0, 0, Header, 1, 3, 256
1, 0, Start_track
1, 0, Tempo, 444444
1, 0, Title_t, "<Title>"
1, 0, Copyright_t, "@<copyright>"
1, 0, End_track
2, 0, Start_track
2, 0, Title_t, "track"
2, 0, Control_c, 0, 7, 127
2, 0, Control_c, 0, 10, 64
2, 0, Control_c, 0, 0, 0
2, 0, Control_c, 0, 32, 0
2, 0, Program_c, 0, 0
2, 0, Control_c, 0, 93, 0
2, 0, Time_signature, 4, 2, 24, 8
2, 0, Key_signature, -3, "major"
2, 0, Note_on_c, 0, 67, 67
2, 0, Note_on_c, 0, 75, 67
2, 128, Note_off_c, 0, 67, 67
2, 128, Note_off_c, 0, 75, 67
2, 128, Note_on_c, 0, 66, 67
2, 128, Note_on_c, 0, 70, 67
2, 256, Note_off_c, 0, 66, 67
2, 256, Note_off_c, 0, 70, 67
2, 256, Note_on_c, 0, 67, 67
2, 256, Note_on_c, 0, 75, 67
2, 384, Note_off_c, 0, 67, 67
2, 384, Note_off_c, 0, 75, 67
2, 384, Note_on_c, 0, 75, 67
2, 384, Note_on_c, 0, 82, 67
2, 640, Note_off_c, 0, 75, 67
2, 640, Note_off_c, 0, 82, 67
2, 640, Note_on_c, 0, 74, 67
2, 640, Note_on_c, 0, 80, 67
2, 768, Note_off_c, 0, 74, 67
2, 768, Note_on_c, 0, 72, 67
2, 896, Note_off_c, 0, 72, 67
2, 896, Note_off_c, 0, 80, 67
2, 896, Note_on_c, 0, 70, 67
2, 896, Note_on_c, 0, 79, 67
2, 1024, Note_off_c, 0, 70, 67
2, 1024, Note_off_c, 0, 79, 67
2, 1024, Note_on_c, 0, 72, 67
2, 1024, Note_on_c, 0, 77, 67
2, 1152, Note_off_c, 0, 72, 67
2, 1152, Note_off_c, 0, 77, 67
2, 1152, Note_on_c, 0, 70, 67
2, 1152, Note_on_c, 0, 74, 67
2, 1280, Note_off_c, 0, 70, 67
2, 1280, Note_on_c, 0, 68, 67
2, 1408, Note_off_c, 0, 68, 67
2, 1408, Note_on_c, 0, 67, 67
2, 1536, Note_off_c, 0, 67, 67
2, 1536, Note_off_c, 0, 74, 67
2, 1536, Note_on_c, 0, 65, 67
2, 1536, Note_on_c, 0, 70, 67
2, 1664, Note_off_c, 0, 65, 67
2, 1664, Note_on_c, 0, 67, 67
2, 1792, Note_off_c, 0, 67, 67
2, 1792, Note_off_c, 0, 70, 67
2, 1792, Note_on_c, 0, 65, 67
2, 1792, Note_on_c, 0, 68, 67
2, 1920, Note_off_c, 0, 68, 67
2, 1920, Note_on_c, 0, 70, 67
2, 2048, Note_off_c, 0, 65, 67
2, 2048, Note_off_c, 0, 70, 67
2, 2048, Note_on_c, 0, 70, 67
2, 2048, Note_on_c, 0, 74, 67
2, 2176, Note_off_c, 0, 70, 67
2, 2176, Note_off_c, 0, 74, 67
2, 2176, Note_on_c, 0, 65, 67
2, 2176, Note_on_c, 0, 70, 67
2, 2304, Note_off_c, 0, 65, 67
2, 2304, Note_off_c, 0, 70, 67
2, 2304, Note_on_c, 0, 70, 67
2, 2304, Note_on_c, 0, 74, 67
2, 2432, Note_off_c, 0, 70, 67
2, 2432, Note_off_c, 0, 74, 67
2, 2432, Note_on_c, 0, 74, 67
2, 2432, Note_on_c, 0, 79, 67
2, 2688, Note_off_c, 0, 74, 67
2, 2688, Note_off_c, 0, 79, 67
2, 2688, Note_on_c, 0, 72, 67
2, 2688, Note_on_c, 0, 77, 67
2, 2816, Note_off_c, 0, 72, 67
2, 2816, Note_on_c, 0, 70, 67
2, 2944, Note_off_c, 0, 70, 67
2, 2944, Note_off_c, 0, 77, 67
2, 2944, Note_on_c, 0, 68, 67
2, 2944, Note_on_c, 0, 74, 67
2, 3072, Note_off_c, 0, 68, 67
2, 3072, Note_off_c, 0, 74, 67
2, 3072, Note_on_c, 0, 67, 67
2, 3072, Note_on_c, 0, 75, 67
2, 3200, Note_off_c, 0, 67, 67
2, 3200, Note_off_c, 0, 75, 67
2, 3200, Note_on_c, 0, 70, 67
2, 3200, Note_on_c, 0, 79, 67
2, 3328, Note_off_c, 0, 70, 67
2, 3328, Note_on_c, 0, 72, 67
2, 3456, Note_off_c, 0, 72, 67
2, 3456, Note_on_c, 0, 74, 67
2, 3584, Note_off_c, 0, 74, 67
2, 3584, Note_off_c, 0, 79, 67
2, 3584, Note_on_c, 0, 70, 67
2, 3584, Note_on_c, 0, 75, 67
2, 3712, Note_off_c, 0, 75, 67
2, 3712, Note_on_c, 0, 74, 67
2, 3840, Note_off_c, 0, 70, 67
2, 3840, Note_off_c, 0, 74, 67
2, 3840, Note_on_c, 0, 65, 67
2, 3840, Note_on_c, 0, 72, 67
2, 3968, Note_off_c, 0, 72, 67
2, 3968, Note_on_c, 0, 70, 67
2, 4096, Note_off_c, 0, 65, 67
2, 4096, Note_off_c, 0, 70, 67
2, 4096, Note_on_c, 0, 67, 67
2, 4096, Note_on_c, 0, 75, 67
2, 4224, Note_off_c, 0, 67, 67
2, 4224, Note_off_c, 0, 75, 67
2, 4224, Note_on_c, 0, 66, 67
2, 4224, Note_on_c, 0, 70, 67
2, 4352, Note_off_c, 0, 66, 67
2, 4352, Note_off_c, 0, 70, 67
2, 4352, Note_on_c, 0, 67, 67
2, 4352, Note_on_c, 0, 75, 67
2, 4480, Note_off_c, 0, 67, 67
2, 4480, Note_off_c, 0, 75, 67
2, 4480, Note_on_c, 0, 75, 67
2, 4480, Note_on_c, 0, 82, 67
2, 4736, Note_off_c, 0, 75, 67
2, 4736, Note_off_c, 0, 82, 67
2, 4736, Note_on_c, 0, 74, 67
2, 4736, Note_on_c, 0, 80, 67
2, 4864, Note_off_c, 0, 74, 67
2, 4864, Note_on_c, 0, 72, 67
2, 4992, Note_off_c, 0, 72, 67
2, 4992, Note_off_c, 0, 80, 67
2, 4992, Note_on_c, 0, 70, 67
2, 4992, Note_on_c, 0, 79, 67
2, 5120, Note_off_c, 0, 70, 67
2, 5120, Note_off_c, 0, 79, 67
2, 5120, Note_on_c, 0, 72, 67
2, 5120, Note_on_c, 0, 77, 67
2, 5248, Note_off_c, 0, 72, 67
2, 5248, Note_off_c, 0, 77, 67
2, 5248, Note_on_c, 0, 70, 67
2, 5248, Note_on_c, 0, 74, 67
2, 5376, Note_off_c, 0, 70, 67
2, 5376, Note_on_c, 0, 68, 67
2, 5504, Note_off_c, 0, 68, 67
2, 5504, Note_on_c, 0, 67, 67
2, 5632, Note_off_c, 0, 67, 67
2, 5632, Note_off_c, 0, 74, 67
2, 5632, Note_on_c, 0, 65, 67
2, 5632, Note_on_c, 0, 70, 67
2, 5760, Note_off_c, 0, 65, 67
2, 5760, Note_on_c, 0, 67, 67
2, 5888, Note_off_c, 0, 67, 67
2, 5888, Note_off_c, 0, 70, 67
2, 5888, Note_on_c, 0, 65, 67
2, 5888, Note_on_c, 0, 68, 67
2, 6016, Note_off_c, 0, 68, 67
2, 6016, Note_on_c, 0, 70, 67
2, 6144, Note_off_c, 0, 65, 67
2, 6144, Note_off_c, 0, 70, 67
2, 6144, Note_on_c, 0, 70, 67
2, 6144, Note_on_c, 0, 74, 67
2, 6272, Note_off_c, 0, 70, 67
2, 6272, Note_off_c, 0, 74, 67
2, 6272, Note_on_c, 0, 65, 67
2, 6272, Note_on_c, 0, 70, 67
2, 6400, Note_off_c, 0, 65, 67
2, 6400, Note_off_c, 0, 70, 67
2, 6400, Note_on_c, 0, 70, 67
2, 6400, Note_on_c, 0, 74, 67
2, 6528, Note_off_c, 0, 70, 67
2, 6528, Note_off_c, 0, 74, 67
2, 6528, Note_on_c, 0, 74, 67
2, 6528, Note_on_c, 0, 79, 67
2, 6784, Note_off_c, 0, 74, 67
2, 6784, Note_off_c, 0, 79, 67
2, 6784, Note_on_c, 0, 72, 67
2, 6784, Note_on_c, 0, 77, 67
2, 6912, Note_off_c, 0, 72, 67
2, 6912, Note_on_c, 0, 70, 67
2, 7040, Note_off_c, 0, 70, 67
2, 7040, Note_off_c, 0, 77, 67
2, 7040, Note_on_c, 0, 68, 67
2, 7040, Note_on_c, 0, 74, 67
2, 7168, Note_off_c, 0, 68, 67
2, 7168, Note_off_c, 0, 74, 67
2, 7168, Note_on_c, 0, 67, 67
2, 7168, Note_on_c, 0, 75, 67
2, 7296, Note_off_c, 0, 67, 67
2, 7296, Note_on_c, 0, 65, 67
2, 7424, Note_off_c, 0, 65, 67
2, 7424, Note_on_c, 0, 63, 67
2, 7552, Note_off_c, 0, 63, 67
2, 7552, Note_on_c, 0, 65, 67
2, 7680, Note_off_c, 0, 65, 67
2, 7680, Note_off_c, 0, 75, 67
2, 7680, Note_on_c, 0, 63, 67
2, 7680, Note_on_c, 0, 67, 67
2, 7808, Note_off_c, 0, 67, 67
2, 7808, Note_on_c, 0, 68, 67
2, 7936, Note_off_c, 0, 63, 67
2, 7936, Note_off_c, 0, 68, 67
2, 7936, Note_on_c, 0, 65, 67
2, 7936, Note_on_c, 0, 70, 67
2, 8064, Note_off_c, 0, 70, 67
2, 8064, Note_on_c, 0, 72, 67
2, 8192, Note_off_c, 0, 65, 67
2, 8192, Note_off_c, 0, 72, 67
2, 8192, Note_on_c, 0, 79, 67
2, 8704, Note_off_c, 0, 79, 67
2, 8704, Note_on_c, 0, 82, 67
2, 8960, Control_c, 0, 93, 0
2, 8960, Note_on_c, 0, 68, 67
2, 9088, Note_off_c, 0, 68, 67
2, 9088, Note_on_c, 0, 70, 67
2, 9216, Note_off_c, 0, 70, 67
2, 9216, Note_off_c, 0, 82, 67
2, 9216, Note_on_c, 0, 72, 67
2, 9216, Note_on_c, 0, 80, 67
2, 9344, Note_off_c, 0, 72, 67
2, 9344, Note_off_c, 0, 80, 67
2, 9344, Note_on_c, 0, 70, 67
2, 9344, Note_on_c, 0, 82, 67
2, 9472, Note_off_c, 0, 70, 67
2, 9472, Note_off_c, 0, 82, 67
2, 9472, Note_on_c, 0, 68, 67
2, 9472, Note_on_c, 0, 80, 67
2, 9600, Note_off_c, 0, 80, 67
2, 9600, Note_on_c, 0, 79, 67
2, 9728, Note_off_c, 0, 68, 67
2, 9728, Note_off_c, 0, 79, 67
2, 9728, Note_on_c, 0, 65, 67
2, 9728, Note_on_c, 0, 77, 67
2, 9856, Note_off_c, 0, 65, 67
2, 9856, Note_on_c, 0, 67, 67
2, 9984, Note_off_c, 0, 67, 67
2, 9984, Note_on_c, 0, 68, 67
2, 10112, Note_off_c, 0, 68, 67
2, 10112, Note_on_c, 0, 70, 67
2, 10240, Note_off_c, 0, 70, 67
2, 10240, Note_off_c, 0, 77, 67
2, 10240, Note_on_c, 0, 68, 67
2, 10240, Note_on_c, 0, 74, 67
2, 10368, Note_off_c, 0, 68, 67
2, 10368, Note_on_c, 0, 67, 67
2, 10496, Note_off_c, 0, 67, 67
2, 10496, Note_on_c, 0, 65, 67
2, 10752, Note_off_c, 0, 65, 67
2, 10752, Note_off_c, 0, 74, 67
2, 10752, Note_on_c, 0, 77, 67
2, 11008, Control_c, 0, 93, 0
2, 11008, Note_on_c, 0, 65, 67
2, 11136, Note_off_c, 0, 65, 67
2, 11136, Note_on_c, 0, 70, 67
2, 11264, Note_off_c, 0, 70, 67
2, 11264, Note_off_c, 0, 77, 67
2, 11264, Note_on_c, 0, 67, 67
2, 11264, Note_on_c, 0, 79, 67
2, 11392, Note_off_c, 0, 67, 67
2, 11392, Note_off_c, 0, 79, 67
2, 11392, Note_on_c, 0, 68, 67
2, 11392, Note_on_c, 0, 80, 67
2, 11520, Note_off_c, 0, 68, 67
2, 11520, Note_off_c, 0, 80, 67
2, 11520, Note_on_c, 0, 70, 67
2, 11520, Note_on_c, 0, 79, 67
2, 11648, Note_off_c, 0, 70, 67
2, 11648, Note_off_c, 0, 79, 67
2, 11648, Note_on_c, 0, 72, 67
2, 11648, Note_on_c, 0, 77, 67
2, 11776, Note_off_c, 0, 72, 67
2, 11776, Note_off_c, 0, 77, 67
2, 11776, Note_on_c, 0, 70, 67
2, 11776, Note_on_c, 0, 75, 67
2, 12288, Note_off_c, 0, 70, 67
2, 12288, Note_off_c, 0, 75, 67
2, 12288, Note_on_c, 0, 75, 67
2, 12288, Note_on_c, 0, 79, 67
2, 12416, Note_off_c, 0, 75, 67
2, 12416, Note_on_c, 0, 74, 67
2, 12544, Note_off_c, 0, 74, 67
2, 12544, Note_on_c, 0, 72, 67
2, 12800, Note_off_c, 0, 72, 67
2, 12800, Note_off_c, 0, 79, 67
2, 12800, Note_on_c, 0, 70, 67
2, 12800, Note_on_c, 0, 82, 67
2, 12928, Note_off_c, 0, 70, 67
2, 12928, Note_on_c, 0, 72, 67
2, 13056, Note_off_c, 0, 72, 67
2, 13056, Note_on_c, 0, 74, 67
2, 13184, Note_off_c, 0, 74, 67
2, 13184, Note_on_c, 0, 75, 67
2, 13312, Note_off_c, 0, 75, 67
2, 13312, Note_off_c, 0, 82, 67
2, 13312, Note_on_c, 0, 77, 67
2, 13312, Note_on_c, 0, 80, 67
2, 13440, Note_off_c, 0, 77, 67
2, 13440, Note_off_c, 0, 80, 67
2, 13440, Note_on_c, 0, 75, 67
2, 13440, Note_on_c, 0, 79, 67
2, 13568, Note_off_c, 0, 75, 67
2, 13568, Note_off_c, 0, 79, 67
2, 13568, Note_on_c, 0, 74, 67
2, 13568, Note_on_c, 0, 80, 67
2, 13696, Note_off_c, 0, 80, 67
2, 13696, Note_on_c, 0, 82, 67
2, 13824, Note_off_c, 0, 74, 67
2, 13824, Note_off_c, 0, 82, 67
2, 13824, Note_on_c, 0, 72, 67
2, 13824, Note_on_c, 0, 84, 67
2, 13952, Note_off_c, 0, 72, 67
2, 13952, Note_on_c, 0, 74, 67
2, 14080, Note_off_c, 0, 74, 67
2, 14080, Note_on_c, 0, 75, 67
2, 14208, Note_off_c, 0, 75, 67
2, 14208, Note_on_c, 0, 77, 67
2, 14336, Note_off_c, 0, 77, 67
2, 14336, Note_off_c, 0, 84, 67
2, 14336, Note_on_c, 0, 74, 67
2, 14336, Note_on_c, 0, 82, 67
2, 14464, Note_off_c, 0, 74, 67
2, 14464, Note_on_c, 0, 72, 67
2, 14592, Note_off_c, 0, 72, 67
2, 14592, Note_off_c, 0, 82, 67
2, 14592, Note_on_c, 0, 70, 67
2, 14592, Note_on_c, 0, 80, 67
2, 14720, Note_off_c, 0, 80, 67
2, 14720, Note_on_c, 0, 79, 67
2, 14848, Note_off_c, 0, 70, 67
2, 14848, Note_off_c, 0, 79, 67
2, 14848, Note_on_c, 0, 68, 67
2, 14848, Note_on_c, 0, 80, 67
2, 14976, Note_off_c, 0, 68, 67
2, 14976, Note_on_c, 0, 70, 67
2, 15104, Note_off_c, 0, 70, 67
2, 15104, Note_on_c, 0, 72, 67
2, 15232, Note_off_c, 0, 72, 67
2, 15232, Note_on_c, 0, 68, 67
2, 15360, Note_off_c, 0, 68, 67
2, 15360, Note_off_c, 0, 80, 67
2, 15360, Note_on_c, 0, 70, 67
2, 15360, Note_on_c, 0, 79, 67
2, 15488, Note_off_c, 0, 70, 67
2, 15488, Note_off_c, 0, 79, 67
2, 15488, Note_on_c, 0, 68, 67
2, 15488, Note_on_c, 0, 80, 67
2, 15616, Note_off_c, 0, 68, 67
2, 15616, Note_off_c, 0, 80, 67
2, 15616, Note_on_c, 0, 67, 67
2, 15616, Note_on_c, 0, 79, 67
2, 15744, Note_off_c, 0, 67, 67
2, 15744, Note_off_c, 0, 79, 67
2, 15744, Note_on_c, 0, 65, 67
2, 15744, Note_on_c, 0, 77, 67
2, 15872, Note_off_c, 0, 65, 67
2, 15872, Note_off_c, 0, 77, 67
2, 15872, Note_on_c, 0, 63, 67
2, 15872, Note_on_c, 0, 75, 67
2, 16000, Note_off_c, 0, 63, 67
2, 16000, Note_on_c, 0, 65, 67
2, 16128, Note_off_c, 0, 65, 67
2, 16128, Note_on_c, 0, 67, 67
2, 16256, Note_off_c, 0, 67, 67
2, 16256, Note_on_c, 0, 68, 67
2, 16384, Note_off_c, 0, 68, 67
2, 16384, Note_off_c, 0, 75, 67
2, 16384, Time_signature, 4, 2, 24, 8
2, 16384, Key_signature, -3, "major"
2, 16384, Note_on_c, 0, 67, 67
2, 16384, Note_on_c, 0, 75, 67
2, 16512, Note_off_c, 0, 67, 67
2, 16512, Note_off_c, 0, 75, 67
2, 16512, Note_on_c, 0, 66, 67
2, 16512, Note_on_c, 0, 70, 67
2, 16640, Note_off_c, 0, 66, 67
2, 16640, Note_off_c, 0, 70, 67
2, 16640, Note_on_c, 0, 67, 67
2, 16640, Note_on_c, 0, 75, 67
2, 16768, Note_off_c, 0, 67, 67
2, 16768, Note_off_c, 0, 75, 67
2, 16768, Note_on_c, 0, 75, 67
2, 16768, Note_on_c, 0, 82, 67
2, 17024, Note_off_c, 0, 75, 67
2, 17024, Note_off_c, 0, 82, 67
2, 17024, Note_on_c, 0, 74, 67
2, 17024, Note_on_c, 0, 80, 67
2, 17152, Note_off_c, 0, 74, 67
2, 17152, Note_on_c, 0, 72, 67
2, 17280, Note_off_c, 0, 72, 67
2, 17280, Note_off_c, 0, 80, 67
2, 17280, Note_on_c, 0, 70, 67
2, 17280, Note_on_c, 0, 79, 67
2, 17408, Note_off_c, 0, 70, 67
2, 17408, Note_off_c, 0, 79, 67
2, 17408, Note_on_c, 0, 72, 67
2, 17408, Note_on_c, 0, 77, 67
2, 17536, Note_off_c, 0, 72, 67
2, 17536, Note_off_c, 0, 77, 67
2, 17536, Note_on_c, 0, 70, 67
2, 17536, Note_on_c, 0, 74, 67
2, 17664, Note_off_c, 0, 70, 67
2, 17664, Note_on_c, 0, 68, 67
2, 17792, Note_off_c, 0, 68, 67
2, 17792, Note_on_c, 0, 67, 67
2, 17920, Note_off_c, 0, 67, 67
2, 17920, Note_off_c, 0, 74, 67
2, 17920, Note_on_c, 0, 65, 67
2, 17920, Note_on_c, 0, 70, 67
2, 18048, Note_off_c, 0, 65, 67
2, 18048, Note_on_c, 0, 67, 67
2, 18176, Note_off_c, 0, 67, 67
2, 18176, Note_off_c, 0, 70, 67
2, 18176, Note_on_c, 0, 65, 67
2, 18176, Note_on_c, 0, 68, 67
2, 18304, Note_off_c, 0, 68, 67
2, 18304, Note_on_c, 0, 70, 67
2, 18432, Note_off_c, 0, 65, 67
2, 18432, Note_off_c, 0, 70, 67
2, 18432, Note_on_c, 0, 70, 67
2, 18432, Note_on_c, 0, 74, 67
2, 18560, Note_off_c, 0, 70, 67
2, 18560, Note_off_c, 0, 74, 67
2, 18560, Note_on_c, 0, 65, 67
2, 18560, Note_on_c, 0, 70, 67
2, 18688, Note_off_c, 0, 65, 67
2, 18688, Note_off_c, 0, 70, 67
2, 18688, Note_on_c, 0, 70, 67
2, 18688, Note_on_c, 0, 74, 67
2, 18816, Note_off_c, 0, 70, 67
2, 18816, Note_off_c, 0, 74, 67
2, 18816, Note_on_c, 0, 74, 67
2, 18816, Note_on_c, 0, 79, 67
2, 19072, Note_off_c, 0, 74, 67
2, 19072, Note_off_c, 0, 79, 67
2, 19072, Note_on_c, 0, 72, 67
2, 19072, Note_on_c, 0, 77, 67
2, 19200, Note_off_c, 0, 72, 67
2, 19200, Note_on_c, 0, 70, 67
2, 19328, Note_off_c, 0, 70, 67
2, 19328, Note_off_c, 0, 77, 67
2, 19328, Note_on_c, 0, 68, 67
2, 19328, Note_on_c, 0, 74, 67
2, 19456, Note_off_c, 0, 68, 67
2, 19456, Note_off_c, 0, 74, 67
2, 19456, Note_on_c, 0, 67, 67
2, 19456, Note_on_c, 0, 75, 67
2, 19584, Note_off_c, 0, 67, 67
2, 19584, Note_off_c, 0, 75, 67
2, 19584, Note_on_c, 0, 70, 67
2, 19584, Note_on_c, 0, 79, 67
2, 19712, Note_off_c, 0, 70, 67
2, 19712, Note_on_c, 0, 72, 67
2, 19840, Note_off_c, 0, 72, 67
2, 19840, Note_on_c, 0, 74, 67
2, 19968, Note_off_c, 0, 74, 67
2, 19968, Note_off_c, 0, 79, 67
2, 19968, Note_on_c, 0, 70, 67
2, 19968, Note_on_c, 0, 75, 67
2, 20096, Note_off_c, 0, 75, 67
2, 20096, Note_on_c, 0, 74, 67
2, 20224, Note_off_c, 0, 70, 67
2, 20224, Note_off_c, 0, 74, 67
2, 20224, Note_on_c, 0, 65, 67
2, 20224, Note_on_c, 0, 72, 67
2, 20352, Note_off_c, 0, 72, 67
2, 20352, Note_on_c, 0, 70, 67
2, 20480, Note_off_c, 0, 65, 67
2, 20480, Note_off_c, 0, 70, 67
2, 20480, Note_on_c, 0, 67, 67
2, 20480, Note_on_c, 0, 75, 67
2, 20608, Note_off_c, 0, 67, 67
2, 20608, Note_off_c, 0, 75, 67
2, 20608, Note_on_c, 0, 66, 67
2, 20608, Note_on_c, 0, 70, 67
2, 20736, Note_off_c, 0, 66, 67
2, 20736, Note_off_c, 0, 70, 67
2, 20736, Note_on_c, 0, 67, 67
2, 20736, Note_on_c, 0, 75, 67
2, 20864, Note_off_c, 0, 67, 67
2, 20864, Note_off_c, 0, 75, 67
2, 20864, Note_on_c, 0, 75, 67
2, 20864, Note_on_c, 0, 82, 67
2, 21120, Note_off_c, 0, 75, 67
2, 21120, Note_off_c, 0, 82, 67
2, 21120, Note_on_c, 0, 74, 67
2, 21120, Note_on_c, 0, 80, 67
2, 21248, Note_off_c, 0, 74, 67
2, 21248, Note_on_c, 0, 72, 67
2, 21376, Note_off_c, 0, 72, 67
2, 21376, Note_off_c, 0, 80, 67
2, 21376, Note_on_c, 0, 70, 67
2, 21376, Note_on_c, 0, 79, 67
2, 21504, Note_off_c, 0, 70, 67
2, 21504, Note_off_c, 0, 79, 67
2, 21504, Note_on_c, 0, 72, 67
2, 21504, Note_on_c, 0, 77, 67
2, 21632, Note_off_c, 0, 72, 67
2, 21632, Note_off_c, 0, 77, 67
2, 21632, Note_on_c, 0, 70, 67
2, 21632, Note_on_c, 0, 74, 67
2, 21760, Note_off_c, 0, 70, 67
2, 21760, Note_on_c, 0, 68, 67
2, 21888, Note_off_c, 0, 68, 67
2, 21888, Note_on_c, 0, 67, 67
2, 22016, Note_off_c, 0, 67, 67
2, 22016, Note_off_c, 0, 74, 67
2, 22016, Note_on_c, 0, 65, 67
2, 22016, Note_on_c, 0, 70, 67
2, 22144, Note_off_c, 0, 65, 67
2, 22144, Note_on_c, 0, 67, 67
2, 22272, Note_off_c, 0, 67, 67
2, 22272, Note_off_c, 0, 70, 67
2, 22272, Note_on_c, 0, 65, 67
2, 22272, Note_on_c, 0, 68, 67
2, 22400, Note_off_c, 0, 68, 67
2, 22400, Note_on_c, 0, 70, 67
2, 22528, Note_off_c, 0, 65, 67
2, 22528, Note_off_c, 0, 70, 67
2, 22528, Note_on_c, 0, 70, 67
2, 22528, Note_on_c, 0, 74, 67
2, 22656, Note_off_c, 0, 70, 67
2, 22656, Note_off_c, 0, 74, 67
2, 22656, Note_on_c, 0, 65, 67
2, 22656, Note_on_c, 0, 70, 67
2, 22784, Note_off_c, 0, 65, 67
2, 22784, Note_off_c, 0, 70, 67
2, 22784, Note_on_c, 0, 70, 67
2, 22784, Note_on_c, 0, 74, 67
2, 22912, Note_off_c, 0, 70, 67
2, 22912, Note_off_c, 0, 74, 67
2, 22912, Note_on_c, 0, 74, 67
2, 22912, Note_on_c, 0, 79, 67
2, 23168, Note_off_c, 0, 74, 67
2, 23168, Note_off_c, 0, 79, 67
2, 23168, Note_on_c, 0, 72, 67
2, 23168, Note_on_c, 0, 77, 67
2, 23296, Note_off_c, 0, 72, 67
2, 23296, Note_on_c, 0, 70, 67
2, 23424, Note_off_c, 0, 70, 67
2, 23424, Note_off_c, 0, 77, 67
2, 23424, Note_on_c, 0, 68, 67
2, 23424, Note_on_c, 0, 74, 67
2, 23552, Note_off_c, 0, 68, 67
2, 23552, Note_off_c, 0, 74, 67
2, 23552, Note_on_c, 0, 67, 67
2, 23552, Note_on_c, 0, 75, 67
2, 23680, Note_off_c, 0, 67, 67
2, 23680, Note_on_c, 0, 65, 67
2, 23808, Note_off_c, 0, 65, 67
2, 23808, Note_on_c, 0, 63, 67
2, 23936, Note_off_c, 0, 63, 67
2, 23936, Note_on_c, 0, 65, 67
2, 24064, Note_off_c, 0, 65, 67
2, 24064, Note_off_c, 0, 75, 67
2, 24064, Note_on_c, 0, 63, 67
2, 24064, Note_on_c, 0, 67, 67
2, 24192, Note_off_c, 0, 67, 67
2, 24192, Note_on_c, 0, 68, 67
2, 24320, Note_off_c, 0, 63, 67
2, 24320, Note_off_c, 0, 68, 67
2, 24320, Note_on_c, 0, 65, 67
2, 24320, Note_on_c, 0, 70, 67
2, 24448, Note_off_c, 0, 70, 67
2, 24448, Note_on_c, 0, 72, 67
2, 24576, Note_off_c, 0, 65, 67
2, 24576, Note_off_c, 0, 72, 67
2, 24576, Note_on_c, 0, 79, 67
2, 25088, Note_off_c, 0, 79, 67
2, 25088, Note_on_c, 0, 82, 67
2, 25344, Control_c, 0, 93, 0
2, 25344, Note_on_c, 0, 68, 67
2, 25472, Note_off_c, 0, 68, 67
2, 25472, Note_on_c, 0, 70, 67
2, 25600, Note_off_c, 0, 70, 67
2, 25600, Note_off_c, 0, 82, 67
2, 25600, Note_on_c, 0, 72, 67
2, 25600, Note_on_c, 0, 80, 67
2, 25728, Note_off_c, 0, 72, 67
2, 25728, Note_off_c, 0, 80, 67
2, 25728, Note_on_c, 0, 70, 67
2, 25728, Note_on_c, 0, 82, 67
2, 25856, Note_off_c, 0, 70, 67
2, 25856, Note_off_c, 0, 82, 67
2, 25856, Note_on_c, 0, 68, 67
2, 25856, Note_on_c, 0, 80, 67
2, 25984, Note_off_c, 0, 80, 67
2, 25984, Note_on_c, 0, 79, 67
2, 26112, Note_off_c, 0, 68, 67
2, 26112, Note_off_c, 0, 79, 67
2, 26112, Note_on_c, 0, 65, 67
2, 26112, Note_on_c, 0, 77, 67
2, 26240, Note_off_c, 0, 65, 67
2, 26240, Note_on_c, 0, 67, 67
2, 26368, Note_off_c, 0, 67, 67
2, 26368, Note_on_c, 0, 68, 67
2, 26496, Note_off_c, 0, 68, 67
2, 26496, Note_on_c, 0, 70, 67
2, 26624, Note_off_c, 0, 70, 67
2, 26624, Note_off_c, 0, 77, 67
2, 26624, Note_on_c, 0, 68, 67
2, 26624, Note_on_c, 0, 74, 67
2, 26752, Note_off_c, 0, 68, 67
2, 26752, Note_on_c, 0, 67, 67
2, 26880, Note_off_c, 0, 67, 67
2, 26880, Note_on_c, 0, 65, 67
2, 27136, Note_off_c, 0, 65, 67
2, 27136, Note_off_c, 0, 74, 67
2, 27136, Note_on_c, 0, 77, 67
2, 27392, Control_c, 0, 93, 0
2, 27392, Note_on_c, 0, 65, 67
2, 27520, Note_off_c, 0, 65, 67
2, 27520, Note_on_c, 0, 70, 67
2, 27648, Note_off_c, 0, 70, 67
2, 27648, Note_off_c, 0, 77, 67
2, 27648, Note_on_c, 0, 67, 67
2, 27648, Note_on_c, 0, 79, 67
2, 27776, Note_off_c, 0, 67, 67
2, 27776, Note_off_c, 0, 79, 67
2, 27776, Note_on_c, 0, 68, 67
2, 27776, Note_on_c, 0, 80, 67
2, 27904, Note_off_c, 0, 68, 67
2, 27904, Note_off_c, 0, 80, 67
2, 27904, Note_on_c, 0, 70, 67
2, 27904, Note_on_c, 0, 79, 67
2, 28032, Note_off_c, 0, 70, 67
2, 28032, Note_off_c, 0, 79, 67
2, 28032, Note_on_c, 0, 72, 67
2, 28032, Note_on_c, 0, 77, 67
2, 28160, Note_off_c, 0, 72, 67
2, 28160, Note_off_c, 0, 77, 67
2, 28160, Note_on_c, 0, 70, 67
2, 28160, Note_on_c, 0, 75, 67
2, 28672, Note_off_c, 0, 70, 67
2, 28672, Note_off_c, 0, 75, 67
2, 28672, Note_on_c, 0, 75, 67
2, 28672, Note_on_c, 0, 79, 67
2, 28800, Note_off_c, 0, 75, 67
2, 28800, Note_on_c, 0, 74, 67
2, 28928, Note_off_c, 0, 74, 67
2, 28928, Note_on_c, 0, 72, 67
2, 29184, Note_off_c, 0, 72, 67
2, 29184, Note_off_c, 0, 79, 67
2, 29184, Note_on_c, 0, 70, 67
2, 29184, Note_on_c, 0, 82, 67
2, 29312, Note_off_c, 0, 70, 67
2, 29312, Note_on_c, 0, 72, 67
2, 29440, Note_off_c, 0, 72, 67
2, 29440, Note_on_c, 0, 74, 67
2, 29568, Note_off_c, 0, 74, 67
2, 29568, Note_on_c, 0, 75, 67
2, 29696, Note_off_c, 0, 75, 67
2, 29696, Note_off_c, 0, 82, 67
2, 29696, Note_on_c, 0, 77, 67
2, 29696, Note_on_c, 0, 80, 67
2, 29824, Note_off_c, 0, 77, 67
2, 29824, Note_off_c, 0, 80, 67
2, 29824, Note_on_c, 0, 75, 67
2, 29824, Note_on_c, 0, 79, 67
2, 29952, Note_off_c, 0, 75, 67
2, 29952, Note_off_c, 0, 79, 67
2, 29952, Note_on_c, 0, 74, 67
2, 29952, Note_on_c, 0, 80, 67
2, 30080, Note_off_c, 0, 80, 67
2, 30080, Note_on_c, 0, 82, 67
2, 30208, Note_off_c, 0, 74, 67
2, 30208, Note_off_c, 0, 82, 67
2, 30208, Note_on_c, 0, 72, 67
2, 30208, Note_on_c, 0, 84, 67
2, 30336, Note_off_c, 0, 72, 67
2, 30336, Note_on_c, 0, 74, 67
2, 30464, Note_off_c, 0, 74, 67
2, 30464, Note_on_c, 0, 75, 67
2, 30592, Note_off_c, 0, 75, 67
2, 30592, Note_on_c, 0, 77, 67
2, 30720, Note_off_c, 0, 77, 67
2, 30720, Note_off_c, 0, 84, 67
2, 30720, Note_on_c, 0, 74, 67
2, 30720, Note_on_c, 0, 82, 67
2, 30848, Note_off_c, 0, 74, 67
2, 30848, Note_on_c, 0, 72, 67
2, 30976, Note_off_c, 0, 72, 67
2, 30976, Note_off_c, 0, 82, 67
2, 30976, Note_on_c, 0, 70, 67
2, 30976, Note_on_c, 0, 80, 67
2, 31104, Note_off_c, 0, 80, 67
2, 31104, Note_on_c, 0, 79, 67
2, 31232, Note_off_c, 0, 70, 67
2, 31232, Note_off_c, 0, 79, 67
2, 31232, Note_on_c, 0, 68, 67
2, 31232, Note_on_c, 0, 80, 67
2, 31360, Note_off_c, 0, 68, 67
2, 31360, Note_on_c, 0, 70, 67
2, 31488, Note_off_c, 0, 70, 67
2, 31488, Note_on_c, 0, 72, 67
2, 31616, Note_off_c, 0, 72, 67
2, 31616, Note_on_c, 0, 68, 67
2, 31744, Note_off_c, 0, 68, 67
2, 31744, Note_off_c, 0, 80, 67
2, 31744, Note_on_c, 0, 70, 67
2, 31744, Note_on_c, 0, 79, 67
2, 31872, Note_off_c, 0, 70, 67
2, 31872, Note_off_c, 0, 79, 67
2, 31872, Note_on_c, 0, 68, 67
2, 31872, Note_on_c, 0, 80, 67
2, 32000, Note_off_c, 0, 68, 67
2, 32000, Note_off_c, 0, 80, 67
2, 32000, Note_on_c, 0, 67, 67
2, 32000, Note_on_c, 0, 79, 67
2, 32128, Note_off_c, 0, 67, 67
2, 32128, Note_off_c, 0, 79, 67
2, 32128, Note_on_c, 0, 65, 67
2, 32128, Note_on_c, 0, 77, 67
2, 32256, Note_off_c, 0, 65, 67
2, 32256, Note_off_c, 0, 77, 67
2, 32256, Note_on_c, 0, 63, 67
2, 32256, Note_on_c, 0, 75, 67
2, 32384, Note_off_c, 0, 63, 67
2, 32384, Note_on_c, 0, 65, 67
2, 32512, Note_off_c, 0, 65, 67
2, 32512, Note_on_c, 0, 67, 67
2, 32640, Note_off_c, 0, 67, 67
2, 32640, Note_on_c, 0, 68, 67
2, 32768, Note_off_c, 0, 68, 67
2, 32768, Note_off_c, 0, 75, 67
2, 32768, Time_signature, 4, 2, 24, 8
2, 32768, Key_signature, -3, "major"
2, 32768, Note_on_c, 0, 67, 67
2, 32768, Note_on_c, 0, 75, 67
2, 32896, Note_off_c, 0, 67, 67
2, 32896, Note_off_c, 0, 75, 67
2, 32896, Note_on_c, 0, 66, 67
2, 32896, Note_on_c, 0, 70, 67
2, 33024, Note_off_c, 0, 66, 67
2, 33024, Note_off_c, 0, 70, 67
2, 33024, Note_on_c, 0, 67, 67
2, 33024, Note_on_c, 0, 75, 67
2, 33152, Note_off_c, 0, 67, 67
2, 33152, Note_off_c, 0, 75, 67
2, 33152, Note_on_c, 0, 75, 67
2, 33152, Note_on_c, 0, 82, 67
2, 33408, Note_off_c, 0, 75, 67
2, 33408, Note_off_c, 0, 82, 67
2, 33408, Note_on_c, 0, 74, 67
2, 33408, Note_on_c, 0, 80, 67
2, 33536, Note_off_c, 0, 74, 67
2, 33536, Note_on_c, 0, 72, 67
2, 33664, Note_off_c, 0, 72, 67
2, 33664, Note_off_c, 0, 80, 67
2, 33664, Note_on_c, 0, 70, 67
2, 33664, Note_on_c, 0, 79, 67
2, 33792, Note_off_c, 0, 70, 67
2, 33792, Note_off_c, 0, 79, 67
2, 33792, Note_on_c, 0, 72, 67
2, 33792, Note_on_c, 0, 77, 67
2, 33920, Note_off_c, 0, 72, 67
2, 33920, Note_off_c, 0, 77, 67
2, 33920, Note_on_c, 0, 70, 67
2, 33920, Note_on_c, 0, 74, 67
2, 34048, Note_off_c, 0, 70, 67
2, 34048, Note_on_c, 0, 68, 67
2, 34176, Note_off_c, 0, 68, 67
2, 34176, Note_on_c, 0, 67, 67
2, 34304, Note_off_c, 0, 67, 67
2, 34304, Note_off_c, 0, 74, 67
2, 34304, Note_on_c, 0, 65, 67
2, 34304, Note_on_c, 0, 70, 67
2, 34432, Note_off_c, 0, 65, 67
2, 34432, Note_on_c, 0, 67, 67
2, 34560, Note_off_c, 0, 67, 67
2, 34560, Note_off_c, 0, 70, 67
2, 34560, Note_on_c, 0, 65, 67
2, 34560, Note_on_c, 0, 68, 67
2, 34688, Note_off_c, 0, 68, 67
2, 34688, Note_on_c, 0, 70, 67
2, 34816, Note_off_c, 0, 65, 67
2, 34816, Note_off_c, 0, 70, 67
2, 34816, Note_on_c, 0, 70, 67
2, 34816, Note_on_c, 0, 74, 67
2, 34944, Note_off_c, 0, 70, 67
2, 34944, Note_off_c, 0, 74, 67
2, 34944, Note_on_c, 0, 65, 67
2, 34944, Note_on_c, 0, 70, 67
2, 35072, Note_off_c, 0, 65, 67
2, 35072, Note_off_c, 0, 70, 67
2, 35072, Note_on_c, 0, 70, 67
2, 35072, Note_on_c, 0, 74, 67
2, 35200, Note_off_c, 0, 70, 67
2, 35200, Note_off_c, 0, 74, 67
2, 35200, Note_on_c, 0, 74, 67
2, 35200, Note_on_c, 0, 79, 67
2, 35456, Note_off_c, 0, 74, 67
2, 35456, Note_off_c, 0, 79, 67
2, 35456, Note_on_c, 0, 72, 67
2, 35456, Note_on_c, 0, 77, 67
2, 35584, Note_off_c, 0, 72, 67
2, 35584, Note_on_c, 0, 70, 67
2, 35712, Note_off_c, 0, 70, 67
2, 35712, Note_off_c, 0, 77, 67
2, 35712, Note_on_c, 0, 68, 67
2, 35712, Note_on_c, 0, 74, 67
2, 35840, Note_off_c, 0, 68, 67
2, 35840, Note_off_c, 0, 74, 67
2, 35840, Note_on_c, 0, 67, 67
2, 35840, Note_on_c, 0, 75, 67
2, 35968, Note_off_c, 0, 67, 67
2, 35968, Note_off_c, 0, 75, 67
2, 35968, Note_on_c, 0, 70, 67
2, 35968, Note_on_c, 0, 79, 67
2, 36096, Note_off_c, 0, 70, 67
2, 36096, Note_on_c, 0, 72, 67
2, 36224, Note_off_c, 0, 72, 67
2, 36224, Note_on_c, 0, 74, 67
2, 36352, Note_off_c, 0, 74, 67
2, 36352, Note_off_c, 0, 79, 67
2, 36352, Note_on_c, 0, 70, 67
2, 36352, Note_on_c, 0, 75, 67
2, 36480, Note_off_c, 0, 75, 67
2, 36480, Note_on_c, 0, 74, 67
2, 36608, Note_off_c, 0, 70, 67
2, 36608, Note_off_c, 0, 74, 67
2, 36608, Note_on_c, 0, 65, 67
2, 36608, Note_on_c, 0, 72, 67
2, 36736, Note_off_c, 0, 72, 67
2, 36736, Note_on_c, 0, 70, 67
2, 36864, Note_off_c, 0, 65, 67
2, 36864, Note_off_c, 0, 70, 67
2, 36864, Note_on_c, 0, 67, 67
2, 36864, Note_on_c, 0, 75, 67
2, 36992, Note_off_c, 0, 67, 67
2, 36992, Note_off_c, 0, 75, 67
2, 36992, Note_on_c, 0, 66, 67
2, 36992, Note_on_c, 0, 70, 67
2, 37120, Note_off_c, 0, 66, 67
2, 37120, Note_off_c, 0, 70, 67
2, 37120, Note_on_c, 0, 67, 67
2, 37120, Note_on_c, 0, 75, 67
2, 37248, Note_off_c, 0, 67, 67
2, 37248, Note_off_c, 0, 75, 67
2, 37248, Note_on_c, 0, 75, 67
2, 37248, Note_on_c, 0, 82, 67
2, 37504, Note_off_c, 0, 75, 67
2, 37504, Note_off_c, 0, 82, 67
2, 37504, Note_on_c, 0, 74, 67
2, 37504, Note_on_c, 0, 80, 67
2, 37632, Note_off_c, 0, 74, 67
2, 37632, Note_on_c, 0, 72, 67
2, 37760, Note_off_c, 0, 72, 67
2, 37760, Note_off_c, 0, 80, 67
2, 37760, Note_on_c, 0, 70, 67
2, 37760, Note_on_c, 0, 79, 67
2, 37888, Note_off_c, 0, 70, 67
2, 37888, Note_off_c, 0, 79, 67
2, 37888, Note_on_c, 0, 72, 67
2, 37888, Note_on_c, 0, 77, 67
2, 38016, Note_off_c, 0, 72, 67
2, 38016, Note_off_c, 0, 77, 67
2, 38016, Note_on_c, 0, 70, 67
2, 38016, Note_on_c, 0, 74, 67
2, 38144, Note_off_c, 0, 70, 67
2, 38144, Note_on_c, 0, 68, 67
2, 38272, Note_off_c, 0, 68, 67
2, 38272, Note_on_c, 0, 67, 67
2, 38400, Note_off_c, 0, 67, 67
2, 38400, Note_off_c, 0, 74, 67
2, 38400, Note_on_c, 0, 65, 67
2, 38400, Note_on_c, 0, 70, 67
2, 38528, Note_off_c, 0, 65, 67
2, 38528, Note_on_c, 0, 67, 67
2, 38656, Note_off_c, 0, 67, 67
2, 38656, Note_off_c, 0, 70, 67
2, 38656, Note_on_c, 0, 65, 67
2, 38656, Note_on_c, 0, 68, 67
2, 38784, Note_off_c, 0, 68, 67
2, 38784, Note_on_c, 0, 70, 67
2, 38912, Note_off_c, 0, 65, 67
2, 38912, Note_off_c, 0, 70, 67
2, 38912, Note_on_c, 0, 70, 67
2, 38912, Note_on_c, 0, 74, 67
2, 39040, Note_off_c, 0, 70, 67
2, 39040, Note_off_c, 0, 74, 67
2, 39040, Note_on_c, 0, 65, 67
2, 39040, Note_on_c, 0, 70, 67
2, 39168, Note_off_c, 0, 65, 67
2, 39168, Note_off_c, 0, 70, 67
2, 39168, Note_on_c, 0, 70, 67
2, 39168, Note_on_c, 0, 74, 67
2, 39296, Note_off_c, 0, 70, 67
2, 39296, Note_off_c, 0, 74, 67
2, 39296, Note_on_c, 0, 74, 67
2, 39296, Note_on_c, 0, 79, 67
2, 39552, Note_off_c, 0, 74, 67
2, 39552, Note_off_c, 0, 79, 67
2, 39552, Note_on_c, 0, 72, 67
2, 39552, Note_on_c, 0, 77, 67
2, 39680, Note_off_c, 0, 72, 67
2, 39680, Note_on_c, 0, 70, 67
2, 39808, Note_off_c, 0, 70, 67
2, 39808, Note_off_c, 0, 77, 67
2, 39808, Note_on_c, 0, 68, 67
2, 39808, Note_on_c, 0, 74, 67
2, 39936, Note_off_c, 0, 68, 67
2, 39936, Note_off_c, 0, 74, 67
2, 39936, Note_on_c, 0, 67, 67
2, 39936, Note_on_c, 0, 75, 67
2, 40064, Note_off_c, 0, 67, 67
2, 40064, Note_on_c, 0, 65, 67
2, 40192, Note_off_c, 0, 65, 67
2, 40192, Note_on_c, 0, 63, 67
2, 40320, Note_off_c, 0, 63, 67
2, 40320, Note_on_c, 0, 65, 67
2, 40448, Note_off_c, 0, 65, 67
2, 40448, Note_off_c, 0, 75, 67
2, 40448, Note_on_c, 0, 63, 67
2, 40448, Note_on_c, 0, 67, 67
2, 40576, Note_off_c, 0, 67, 67
2, 40576, Note_on_c, 0, 68, 67
2, 40704, Note_off_c, 0, 63, 67
2, 40704, Note_off_c, 0, 68, 67
2, 40704, Note_on_c, 0, 65, 67
2, 40704, Note_on_c, 0, 70, 67
2, 40832, Note_off_c, 0, 70, 67
2, 40832, Note_on_c, 0, 72, 67
2, 40960, Note_off_c, 0, 65, 67
2, 40960, Note_off_c, 0, 72, 67
2, 40960, Note_on_c, 0, 79, 67
2, 41472, Note_off_c, 0, 79, 67
2, 41472, Note_on_c, 0, 82, 67
2, 41728, Control_c, 0, 93, 0
2, 41728, Note_on_c, 0, 68, 67
2, 41856, Note_off_c, 0, 68, 67
2, 41856, Note_on_c, 0, 70, 67
2, 41984, Note_off_c, 0, 70, 67
2, 41984, Note_off_c, 0, 82, 67
2, 41984, Note_on_c, 0, 72, 67
2, 41984, Note_on_c, 0, 80, 67
2, 42112, Note_off_c, 0, 72, 67
2, 42112, Note_off_c, 0, 80, 67
2, 42112, Note_on_c, 0, 70, 67
2, 42112, Note_on_c, 0, 82, 67
2, 42240, Note_off_c, 0, 70, 67
2, 42240, Note_off_c, 0, 82, 67
2, 42240, Note_on_c, 0, 68, 67
2, 42240, Note_on_c, 0, 80, 67
2, 42368, Note_off_c, 0, 80, 67
2, 42368, Note_on_c, 0, 79, 67
2, 42496, Note_off_c, 0, 68, 67
2, 42496, Note_off_c, 0, 79, 67
2, 42496, Note_on_c, 0, 65, 67
2, 42496, Note_on_c, 0, 77, 67
2, 42624, Note_off_c, 0, 65, 67
2, 42624, Note_on_c, 0, 67, 67
2, 42752, Note_off_c, 0, 67, 67
2, 42752, Note_on_c, 0, 68, 67
2, 42880, Note_off_c, 0, 68, 67
2, 42880, Note_on_c, 0, 70, 67
2, 43008, Note_off_c, 0, 70, 67
2, 43008, Note_off_c, 0, 77, 67
2, 43008, Note_on_c, 0, 68, 67
2, 43008, Note_on_c, 0, 74, 67
2, 43136, Note_off_c, 0, 68, 67
2, 43136, Note_on_c, 0, 67, 67
2, 43264, Note_off_c, 0, 67, 67
2, 43264, Note_on_c, 0, 65, 67
2, 43520, Note_off_c, 0, 65, 67
2, 43520, Note_off_c, 0, 74, 67
2, 43520, Note_on_c, 0, 77, 67
2, 43776, Control_c, 0, 93, 0
2, 43776, Note_on_c, 0, 65, 67
2, 43904, Note_off_c, 0, 65, 67
2, 43904, Note_on_c, 0, 70, 67
2, 44032, Note_off_c, 0, 70, 67
2, 44032, Note_off_c, 0, 77, 67
2, 44032, Note_on_c, 0, 67, 67
2, 44032, Note_on_c, 0, 79, 67
2, 44160, Note_off_c, 0, 67, 67
2, 44160, Note_off_c, 0, 79, 67
2, 44160, Note_on_c, 0, 68, 67
2, 44160, Note_on_c, 0, 80, 67
2, 44288, Note_off_c, 0, 68, 67
2, 44288, Note_off_c, 0, 80, 67
2, 44288, Note_on_c, 0, 70, 67
2, 44288, Note_on_c, 0, 79, 67
2, 44416, Note_off_c, 0, 70, 67
2, 44416, Note_off_c, 0, 79, 67
2, 44416, Note_on_c, 0, 72, 67
2, 44416, Note_on_c, 0, 77, 67
2, 44544, Note_off_c, 0, 72, 67
2, 44544, Note_off_c, 0, 77, 67
2, 44544, Note_on_c, 0, 70, 67
2, 44544, Note_on_c, 0, 75, 67
2, 45056, Note_off_c, 0, 70, 67
2, 45056, Note_off_c, 0, 75, 67
2, 45056, Note_on_c, 0, 75, 67
2, 45056, Note_on_c, 0, 79, 67
2, 45184, Note_off_c, 0, 75, 67
2, 45184, Note_on_c, 0, 74, 67
2, 45312, Note_off_c, 0, 74, 67
2, 45312, Note_on_c, 0, 72, 67
2, 45568, Note_off_c, 0, 72, 67
2, 45568, Note_off_c, 0, 79, 67
2, 45568, Note_on_c, 0, 70, 67
2, 45568, Note_on_c, 0, 82, 67
2, 45696, Note_off_c, 0, 70, 67
2, 45696, Note_on_c, 0, 72, 67
2, 45824, Note_off_c, 0, 72, 67
2, 45824, Note_on_c, 0, 74, 67
2, 45952, Note_off_c, 0, 74, 67
2, 45952, Note_on_c, 0, 75, 67
2, 46080, Note_off_c, 0, 75, 67
2, 46080, Note_off_c, 0, 82, 67
2, 46080, Note_on_c, 0, 77, 67
2, 46080, Note_on_c, 0, 80, 67
2, 46208, Note_off_c, 0, 77, 67
2, 46208, Note_off_c, 0, 80, 67
2, 46208, Note_on_c, 0, 75, 67
2, 46208, Note_on_c, 0, 79, 67
2, 46336, Note_off_c, 0, 75, 67
2, 46336, Note_off_c, 0, 79, 67
2, 46336, Note_on_c, 0, 74, 67
2, 46336, Note_on_c, 0, 80, 67
2, 46464, Note_off_c, 0, 80, 67
2, 46464, Note_on_c, 0, 82, 67
2, 46592, Note_off_c, 0, 74, 67
2, 46592, Note_off_c, 0, 82, 67
2, 46592, Note_on_c, 0, 72, 67
2, 46592, Note_on_c, 0, 84, 67
2, 46720, Note_off_c, 0, 72, 67
2, 46720, Note_on_c, 0, 74, 67
2, 46848, Note_off_c, 0, 74, 67
2, 46848, Note_on_c, 0, 75, 67
2, 46976, Note_off_c, 0, 75, 67
2, 46976, Note_on_c, 0, 77, 67
2, 47104, Note_off_c, 0, 77, 67
2, 47104, Note_off_c, 0, 84, 67
2, 47104, Note_on_c, 0, 74, 67
2, 47104, Note_on_c, 0, 82, 67
2, 47232, Note_off_c, 0, 74, 67
2, 47232, Note_on_c, 0, 72, 67
2, 47360, Note_off_c, 0, 72, 67
2, 47360, Note_off_c, 0, 82, 67
2, 47360, Note_on_c, 0, 70, 67
2, 47360, Note_on_c, 0, 80, 67
2, 47488, Note_off_c, 0, 80, 67
2, 47488, Note_on_c, 0, 79, 67
2, 47616, Note_off_c, 0, 70, 67
2, 47616, Note_off_c, 0, 79, 67
2, 47616, Note_on_c, 0, 68, 67
2, 47616, Note_on_c, 0, 80, 67
2, 47744, Note_off_c, 0, 68, 67
2, 47744, Note_on_c, 0, 70, 67
2, 47872, Note_off_c, 0, 70, 67
2, 47872, Note_on_c, 0, 72, 67
2, 48000, Note_off_c, 0, 72, 67
2, 48000, Note_on_c, 0, 68, 67
2, 48128, Note_off_c, 0, 68, 67
2, 48128, Note_off_c, 0, 80, 67
2, 48128, Note_on_c, 0, 70, 67
2, 48128, Note_on_c, 0, 79, 67
2, 48256, Note_off_c, 0, 70, 67
2, 48256, Note_off_c, 0, 79, 67
2, 48256, Note_on_c, 0, 68, 67
2, 48256, Note_on_c, 0, 80, 67
2, 48384, Note_off_c, 0, 68, 67
2, 48384, Note_off_c, 0, 80, 67
2, 48384, Note_on_c, 0, 67, 67
2, 48384, Note_on_c, 0, 79, 67
2, 48512, Note_off_c, 0, 67, 67
2, 48512, Note_off_c, 0, 79, 67
2, 48512, Note_on_c, 0, 65, 67
2, 48512, Note_on_c, 0, 77, 67
2, 48640, Note_off_c, 0, 65, 67
2, 48640, Note_off_c, 0, 77, 67
2, 48640, Note_on_c, 0, 63, 67
2, 48640, Note_on_c, 0, 75, 67
2, 48768, Note_off_c, 0, 63, 67
2, 48768, Note_on_c, 0, 65, 67
2, 48896, Note_off_c, 0, 65, 67
2, 48896, Note_on_c, 0, 67, 67
2, 49024, Note_off_c, 0, 67, 67
2, 49024, Note_on_c, 0, 68, 67
2, 49152, Note_off_c, 0, 68, 67
2, 49152, Note_off_c, 0, 75, 67
2, 49152, Time_signature, 4, 2, 24, 8
2, 49152, Key_signature, -3, "major"
2, 49152, Note_on_c, 0, 67, 67
2, 49152, Note_on_c, 0, 75, 67
2, 49280, Note_off_c, 0, 67, 67
2, 49280, Note_off_c, 0, 75, 67
2, 49280, Note_on_c, 0, 66, 67
2, 49280, Note_on_c, 0, 70, 67
2, 49408, Note_off_c, 0, 66, 67
2, 49408, Note_off_c, 0, 70, 67
2, 49408, Note_on_c, 0, 67, 67
2, 49408, Note_on_c, 0, 75, 67
2, 49536, Note_off_c, 0, 67, 67
2, 49536, Note_off_c, 0, 75, 67
2, 49536, Note_on_c, 0, 75, 67
2, 49536, Note_on_c, 0, 82, 67
2, 49792, Note_off_c, 0, 75, 67
2, 49792, Note_off_c, 0, 82, 67
2, 49792, Note_on_c, 0, 74, 67
2, 49792, Note_on_c, 0, 80, 67
2, 49920, Note_off_c, 0, 74, 67
2, 49920, Note_on_c, 0, 72, 67
2, 50048, Note_off_c, 0, 72, 67
2, 50048, Note_off_c, 0, 80, 67
2, 50048, Note_on_c, 0, 70, 67
2, 50048, Note_on_c, 0, 79, 67
2, 50176, Note_off_c, 0, 70, 67
2, 50176, Note_off_c, 0, 79, 67
2, 50176, Note_on_c, 0, 72, 67
2, 50176, Note_on_c, 0, 77, 67
2, 50304, Note_off_c, 0, 72, 67
2, 50304, Note_off_c, 0, 77, 67
2, 50304, Note_on_c, 0, 70, 67
2, 50304, Note_on_c, 0, 74, 67
2, 50432, Note_off_c, 0, 70, 67
2, 50432, Note_on_c, 0, 68, 67
2, 50560, Note_off_c, 0, 68, 67
2, 50560, Note_on_c, 0, 67, 67
2, 50688, Note_off_c, 0, 67, 67
2, 50688, Note_off_c, 0, 74, 67
2, 50688, Note_on_c, 0, 65, 67
2, 50688, Note_on_c, 0, 70, 67
2, 50816, Note_off_c, 0, 65, 67
2, 50816, Note_on_c, 0, 67, 67
2, 50944, Note_off_c, 0, 67, 67
2, 50944, Note_off_c, 0, 70, 67
2, 50944, Note_on_c, 0, 65, 67
2, 50944, Note_on_c, 0, 68, 67
2, 51072, Note_off_c, 0, 68, 67
2, 51072, Note_on_c, 0, 70, 67
2, 51200, Note_off_c, 0, 65, 67
2, 51200, Note_off_c, 0, 70, 67
2, 51200, Note_on_c, 0, 70, 67
2, 51200, Note_on_c, 0, 74, 67
2, 51328, Note_off_c, 0, 70, 67
2, 51328, Note_off_c, 0, 74, 67
2, 51328, Note_on_c, 0, 65, 67
2, 51328, Note_on_c, 0, 70, 67
2, 51456, Note_off_c, 0, 65, 67
2, 51456, Note_off_c, 0, 70, 67
2, 51456, Note_on_c, 0, 70, 67
2, 51456, Note_on_c, 0, 74, 67
2, 51584, Note_off_c, 0, 70, 67
2, 51584, Note_off_c, 0, 74, 67
2, 51584, Note_on_c, 0, 74, 67
2, 51584, Note_on_c, 0, 79, 67
2, 51840, Note_off_c, 0, 74, 67
2, 51840, Note_off_c, 0, 79, 67
2, 51840, Note_on_c, 0, 72, 67
2, 51840, Note_on_c, 0, 77, 67
2, 51968, Note_off_c, 0, 72, 67
2, 51968, Note_on_c, 0, 70, 67
2, 52096, Note_off_c, 0, 70, 67
2, 52096, Note_off_c, 0, 77, 67
2, 52096, Note_on_c, 0, 68, 67
2, 52096, Note_on_c, 0, 74, 67
2, 52224, Note_off_c, 0, 68, 67
2, 52224, Note_off_c, 0, 74, 67
2, 52224, Note_on_c, 0, 67, 67
2, 52224, Note_on_c, 0, 75, 67
2, 52352, Note_off_c, 0, 67, 67
2, 52352, Note_off_c, 0, 75, 67
2, 52352, Note_on_c, 0, 70, 67
2, 52352, Note_on_c, 0, 79, 67
2, 52480, Note_off_c, 0, 70, 67
2, 52480, Note_on_c, 0, 72, 67
2, 52608, Note_off_c, 0, 72, 67
2, 52608, Note_on_c, 0, 74, 67
2, 52736, Note_off_c, 0, 74, 67
2, 52736, Note_off_c, 0, 79, 67
2, 52736, Note_on_c, 0, 70, 67
2, 52736, Note_on_c, 0, 75, 67
2, 52864, Note_off_c, 0, 75, 67
2, 52864, Note_on_c, 0, 74, 67
2, 52992, Note_off_c, 0, 70, 67
2, 52992, Note_off_c, 0, 74, 67
2, 52992, Note_on_c, 0, 65, 67
2, 52992, Note_on_c, 0, 72, 67
2, 53120, Note_off_c, 0, 72, 67
2, 53120, Note_on_c, 0, 70, 67
2, 53248, Note_off_c, 0, 65, 67
2, 53248, Note_off_c, 0, 70, 67
2, 53248, Note_on_c, 0, 67, 67
2, 53248, Note_on_c, 0, 75, 67
2, 53376, Note_off_c, 0, 67, 67
2, 53376, Note_off_c, 0, 75, 67
2, 53376, Note_on_c, 0, 66, 67
2, 53376, Note_on_c, 0, 70, 67
2, 53504, Note_off_c, 0, 66, 67
2, 53504, Note_off_c, 0, 70, 67
2, 53504, Note_on_c, 0, 67, 67
2, 53504, Note_on_c, 0, 75, 67
2, 53632, Note_off_c, 0, 67, 67
2, 53632, Note_off_c, 0, 75, 67
2, 53632, Note_on_c, 0, 75, 67
2, 53632, Note_on_c, 0, 82, 67
2, 53888, Note_off_c, 0, 75, 67
2, 53888, Note_off_c, 0, 82, 67
2, 53888, Note_on_c, 0, 74, 67
2, 53888, Note_on_c, 0, 80, 67
2, 54016, Note_off_c, 0, 74, 67
2, 54016, Note_on_c, 0, 72, 67
2, 54144, Note_off_c, 0, 72, 67
2, 54144, Note_off_c, 0, 80, 67
2, 54144, Note_on_c, 0, 70, 67
2, 54144, Note_on_c, 0, 79, 67
2, 54272, Note_off_c, 0, 70, 67
2, 54272, Note_off_c, 0, 79, 67
2, 54272, Note_on_c, 0, 72, 67
2, 54272, Note_on_c, 0, 77, 67
2, 54400, Note_off_c, 0, 72, 67
2, 54400, Note_off_c, 0, 77, 67
2, 54400, Note_on_c, 0, 70, 67
2, 54400, Note_on_c, 0, 74, 67
2, 54528, Note_off_c, 0, 70, 67
2, 54528, Note_on_c, 0, 68, 67
2, 54656, Note_off_c, 0, 68, 67
2, 54656, Note_on_c, 0, 67, 67
2, 54784, Note_off_c, 0, 67, 67
2, 54784, Note_off_c, 0, 74, 67
2, 54784, Note_on_c, 0, 65, 67
2, 54784, Note_on_c, 0, 70, 67
2, 54912, Note_off_c, 0, 65, 67
2, 54912, Note_on_c, 0, 67, 67
2, 55040, Note_off_c, 0, 67, 67
2, 55040, Note_off_c, 0, 70, 67
2, 55040, Note_on_c, 0, 65, 67
2, 55040, Note_on_c, 0, 68, 67
2, 55168, Note_off_c, 0, 68, 67
2, 55168, Note_on_c, 0, 70, 67
2, 55296, Note_off_c, 0, 65, 67
2, 55296, Note_off_c, 0, 70, 67
2, 55296, Note_on_c, 0, 70, 67
2, 55296, Note_on_c, 0, 74, 67
2, 55424, Note_off_c, 0, 70, 67
2, 55424, Note_off_c, 0, 74, 67
2, 55424, Note_on_c, 0, 65, 67
2, 55424, Note_on_c, 0, 70, 67
2, 55552, Note_off_c, 0, 65, 67
2, 55552, Note_off_c, 0, 70, 67
2, 55552, Note_on_c, 0, 70, 67
2, 55552, Note_on_c, 0, 74, 67
2, 55680, Note_off_c, 0, 70, 67
2, 55680, Note_off_c, 0, 74, 67
2, 55680, Note_on_c, 0, 74, 67
2, 55680, Note_on_c, 0, 79, 67
2, 55936, Note_off_c, 0, 74, 67
2, 55936, Note_off_c, 0, 79, 67
2, 55936, Note_on_c, 0, 72, 67
2, 55936, Note_on_c, 0, 77, 67
2, 56064, Note_off_c, 0, 72, 67
2, 56064, Note_on_c, 0, 70, 67
2, 56192, Note_off_c, 0, 70, 67
2, 56192, Note_off_c, 0, 77, 67
2, 56192, Note_on_c, 0, 68, 67
2, 56192, Note_on_c, 0, 74, 67
2, 56320, Note_off_c, 0, 68, 67
2, 56320, Note_off_c, 0, 74, 67
2, 56320, Note_on_c, 0, 67, 67
2, 56320, Note_on_c, 0, 75, 67
2, 56448, Note_off_c, 0, 67, 67
2, 56448, Note_on_c, 0, 65, 67
2, 56576, Note_off_c, 0, 65, 67
2, 56576, Note_on_c, 0, 63, 67
2, 56704, Note_off_c, 0, 63, 67
2, 56704, Note_on_c, 0, 65, 67
2, 56832, Note_off_c, 0, 65, 67
2, 56832, Note_off_c, 0, 75, 67
2, 56832, Note_on_c, 0, 63, 67
2, 56832, Note_on_c, 0, 67, 67
2, 56960, Note_off_c, 0, 67, 67
2, 56960, Note_on_c, 0, 68, 67
2, 57088, Note_off_c, 0, 63, 67
2, 57088, Note_off_c, 0, 68, 67
2, 57088, Note_on_c, 0, 65, 67
2, 57088, Note_on_c, 0, 70, 67
2, 57216, Note_off_c, 0, 70, 67
2, 57216, Note_on_c, 0, 72, 67
2, 57344, Note_off_c, 0, 65, 67
2, 57344, Note_off_c, 0, 72, 67
2, 57344, Note_on_c, 0, 79, 67
2, 57856, Note_off_c, 0, 79, 67
2, 57856, Note_on_c, 0, 82, 67
2, 58112, Control_c, 0, 93, 0
2, 58112, Note_on_c, 0, 68, 67
2, 58240, Note_off_c, 0, 68, 67
2, 58240, Note_on_c, 0, 70, 67
2, 58368, Note_off_c, 0, 70, 67
2, 58368, Note_off_c, 0, 82, 67
2, 58368, Note_on_c, 0, 72, 67
2, 58368, Note_on_c, 0, 80, 67
2, 58496, Note_off_c, 0, 72, 67
2, 58496, Note_off_c, 0, 80, 67
2, 58496, Note_on_c, 0, 70, 67
2, 58496, Note_on_c, 0, 82, 67
2, 58624, Note_off_c, 0, 70, 67
2, 58624, Note_off_c, 0, 82, 67
2, 58624, Note_on_c, 0, 68, 67
2, 58624, Note_on_c, 0, 80, 67
2, 58752, Note_off_c, 0, 80, 67
2, 58752, Note_on_c, 0, 79, 67
2, 58880, Note_off_c, 0, 68, 67
2, 58880, Note_off_c, 0, 79, 67
2, 58880, Note_on_c, 0, 65, 67
2, 58880, Note_on_c, 0, 77, 67
2, 59008, Note_off_c, 0, 65, 67
2, 59008, Note_on_c, 0, 67, 67
2, 59136, Note_off_c, 0, 67, 67
2, 59136, Note_on_c, 0, 68, 67
2, 59264, Note_off_c, 0, 68, 67
2, 59264, Note_on_c, 0, 70, 67
2, 59392, Note_off_c, 0, 70, 67
2, 59392, Note_off_c, 0, 77, 67
2, 59392, Note_on_c, 0, 68, 67
2, 59392, Note_on_c, 0, 74, 67
2, 59520, Note_off_c, 0, 68, 67
2, 59520, Note_on_c, 0, 67, 67
2, 59648, Note_off_c, 0, 67, 67
2, 59648, Note_on_c, 0, 65, 67
2, 59904, Note_off_c, 0, 65, 67
2, 59904, Note_off_c, 0, 74, 67
2, 59904, Note_on_c, 0, 77, 67
2, 60160, Control_c, 0, 93, 0
2, 60160, Note_on_c, 0, 65, 67
2, 60288, Note_off_c, 0, 65, 67
2, 60288, Note_on_c, 0, 70, 67
2, 60416, Note_off_c, 0, 70, 67
2, 60416, Note_off_c, 0, 77, 67
2, 60416, Note_on_c, 0, 67, 67
2, 60416, Note_on_c, 0, 79, 67
2, 60544, Note_off_c, 0, 67, 67
2, 60544, Note_off_c, 0, 79, 67
2, 60544, Note_on_c, 0, 68, 67
2, 60544, Note_on_c, 0, 80, 67
2, 60672, Note_off_c, 0, 68, 67
2, 60672, Note_off_c, 0, 80, 67
2, 60672, Note_on_c, 0, 70, 67
2, 60672, Note_on_c, 0, 79, 67
2, 60800, Note_off_c, 0, 70, 67
2, 60800, Note_off_c, 0, 79, 67
2, 60800, Note_on_c, 0, 72, 67
2, 60800, Note_on_c, 0, 77, 67
2, 60928, Note_off_c, 0, 72, 67
2, 60928, Note_off_c, 0, 77, 67
2, 60928, Note_on_c, 0, 70, 67
2, 60928, Note_on_c, 0, 75, 67
2, 61440, Note_off_c, 0, 70, 67
2, 61440, Note_off_c, 0, 75, 67
2, 61440, Note_on_c, 0, 75, 67
2, 61440, Note_on_c, 0, 79, 67
2, 61568, Note_off_c, 0, 75, 67
2, 61568, Note_on_c, 0, 74, 67
2, 61696, Note_off_c, 0, 74, 67
2, 61696, Note_on_c, 0, 72, 67
2, 61952, Note_off_c, 0, 72, 67
2, 61952, Note_off_c, 0, 79, 67
2, 61952, Note_on_c, 0, 70, 67
2, 61952, Note_on_c, 0, 82, 67
2, 62080, Note_off_c, 0, 70, 67
2, 62080, Note_on_c, 0, 72, 67
2, 62208, Note_off_c, 0, 72, 67
2, 62208, Note_on_c, 0, 74, 67
2, 62336, Note_off_c, 0, 74, 67
2, 62336, Note_on_c, 0, 75, 67
2, 62464, Note_off_c, 0, 75, 67
2, 62464, Note_off_c, 0, 82, 67
2, 62464, Note_on_c, 0, 77, 67
2, 62464, Note_on_c, 0, 80, 67
2, 62592, Note_off_c, 0, 77, 67
2, 62592, Note_off_c, 0, 80, 67
2, 62592, Note_on_c, 0, 75, 67
2, 62592, Note_on_c, 0, 79, 67
2, 62720, Note_off_c, 0, 75, 67
2, 62720, Note_off_c, 0, 79, 67
2, 62720, Note_on_c, 0, 74, 67
2, 62720, Note_on_c, 0, 80, 67
2, 62848, Note_off_c, 0, 80, 67
2, 62848, Note_on_c, 0, 82, 67
2, 62976, Note_off_c, 0, 74, 67
2, 62976, Note_off_c, 0, 82, 67
2, 62976, Note_on_c, 0, 72, 67
2, 62976, Note_on_c, 0, 84, 67
2, 63104, Note_off_c, 0, 72, 67
2, 63104, Note_on_c, 0, 74, 67
2, 63232, Note_off_c, 0, 74, 67
2, 63232, Note_on_c, 0, 75, 67
2, 63360, Note_off_c, 0, 75, 67
2, 63360, Note_on_c, 0, 77, 67
2, 63488, Note_off_c, 0, 77, 67
2, 63488, Note_off_c, 0, 84, 67
2, 63488, Note_on_c, 0, 74, 67
2, 63488, Note_on_c, 0, 82, 67
2, 63616, Note_off_c, 0, 74, 67
2, 63616, Note_on_c, 0, 72, 67
2, 63744, Note_off_c, 0, 72, 67
2, 63744, Note_off_c, 0, 82, 67
2, 63744, Note_on_c, 0, 70, 67
2, 63744, Note_on_c, 0, 80, 67
2, 63872, Note_off_c, 0, 80, 67
2, 63872, Note_on_c, 0, 79, 67
2, 64000, Note_off_c, 0, 70, 67
2, 64000, Note_off_c, 0, 79, 67
2, 64000, Note_on_c, 0, 68, 67
2, 64000, Note_on_c, 0, 80, 67
2, 64128, Note_off_c, 0, 68, 67
2, 64128, Note_on_c, 0, 70, 67
2, 64256, Note_off_c, 0, 70, 67
2, 64256, Note_on_c, 0, 72, 67
2, 64384, Note_off_c, 0, 72, 67
2, 64384, Note_on_c, 0, 68, 67
2, 64512, Note_off_c, 0, 68, 67
2, 64512, Note_off_c, 0, 80, 67
2, 64512, Note_on_c, 0, 70, 67
2, 64512, Note_on_c, 0, 79, 67
2, 64640, Note_off_c, 0, 70, 67
2, 64640, Note_off_c, 0, 79, 67
2, 64640, Note_on_c, 0, 68, 67
2, 64640, Note_on_c, 0, 80, 67
2, 64768, Note_off_c, 0, 68, 67
2, 64768, Note_off_c, 0, 80, 67
2, 64768, Note_on_c, 0, 67, 67
2, 64768, Note_on_c, 0, 79, 67
2, 64896, Note_off_c, 0, 67, 67
2, 64896, Note_off_c, 0, 79, 67
2, 64896, Note_on_c, 0, 65, 67
2, 64896, Note_on_c, 0, 77, 67
2, 65024, Note_off_c, 0, 65, 67
2, 65024, Note_off_c, 0, 77, 67
2, 65024, Note_on_c, 0, 63, 67
2, 65024, Note_on_c, 0, 75, 67
2, 65152, Note_off_c, 0, 63, 67
2, 65152, Note_on_c, 0, 65, 67
2, 65280, Note_off_c, 0, 65, 67
2, 65280, Note_on_c, 0, 67, 67
2, 65408, Note_off_c, 0, 67, 67
2, 65408, Note_on_c, 0, 68, 67
2, 65536, Note_off_c, 0, 68, 67
2, 65536, Note_off_c, 0, 75, 67
2, 65536, Time_signature, 4, 2, 24, 8
2, 65536, Key_signature, -3, "major"
2, 65536, Note_on_c, 0, 67, 67
2, 65536, Note_on_c, 0, 75, 67
2, 65664, Note_off_c, 0, 67, 67
2, 65664, Note_off_c, 0, 75, 67
2, 65664, Note_on_c, 0, 66, 67
2, 65664, Note_on_c, 0, 70, 67
2, 65792, Note_off_c, 0, 66, 67
2, 65792, Note_off_c, 0, 70, 67
2, 65792, Note_on_c, 0, 67, 67
2, 65792, Note_on_c, 0, 75, 67
2, 65920, Note_off_c, 0, 67, 67
2, 65920, Note_off_c, 0, 75, 67
2, 65920, Note_on_c, 0, 75, 67
2, 65920, Note_on_c, 0, 82, 67
2, 66176, Note_off_c, 0, 75, 67
2, 66176, Note_off_c, 0, 82, 67
2, 66176, Note_on_c, 0, 74, 67
2, 66176, Note_on_c, 0, 80, 67
2, 66304, Note_off_c, 0, 74, 67
2, 66304, Note_on_c, 0, 72, 67
2, 66432, Note_off_c, 0, 72, 67
2, 66432, Note_off_c, 0, 80, 67
2, 66432, Note_on_c, 0, 70, 67
2, 66432, Note_on_c, 0, 79, 67
2, 66560, Note_off_c, 0, 70, 67
2, 66560, Note_off_c, 0, 79, 67
2, 66560, Note_on_c, 0, 72, 67
2, 66560, Note_on_c, 0, 77, 67
2, 66688, Note_off_c, 0, 72, 67
2, 66688, Note_off_c, 0, 77, 67
2, 66688, Note_on_c, 0, 70, 67
2, 66688, Note_on_c, 0, 74, 67
2, 66816, Note_off_c, 0, 70, 67
2, 66816, Note_on_c, 0, 68, 67
2, 66944, Note_off_c, 0, 68, 67
2, 66944, Note_on_c, 0, 67, 67
2, 67072, Note_off_c, 0, 67, 67
2, 67072, Note_off_c, 0, 74, 67
2, 67072, Note_on_c, 0, 65, 67
2, 67072, Note_on_c, 0, 70, 67
2, 67200, Note_off_c, 0, 65, 67
2, 67200, Note_on_c, 0, 67, 67
2, 67328, Note_off_c, 0, 67, 67
2, 67328, Note_off_c, 0, 70, 67
2, 67328, Note_on_c, 0, 65, 67
2, 67328, Note_on_c, 0, 68, 67
2, 67456, Note_off_c, 0, 68, 67
2, 67456, Note_on_c, 0, 70, 67
2, 67584, Note_off_c, 0, 65, 67
2, 67584, Note_off_c, 0, 70, 67
2, 67584, Note_on_c, 0, 70, 67
2, 67584, Note_on_c, 0, 74, 67
2, 67712, Note_off_c, 0, 70, 67
2, 67712, Note_off_c, 0, 74, 67
2, 67712, Note_on_c, 0, 65, 67
2, 67712, Note_on_c, 0, 70, 67
2, 67840, Note_off_c, 0, 65, 67
2, 67840, Note_off_c, 0, 70, 67
2, 67840, Note_on_c, 0, 70, 67
2, 67840, Note_on_c, 0, 74, 67
2, 67968, Note_off_c, 0, 70, 67
2, 67968, Note_off_c, 0, 74, 67
2, 67968, Note_on_c, 0, 74, 67
2, 67968, Note_on_c, 0, 79, 67
2, 68224, Note_off_c, 0, 74, 67
2, 68224, Note_off_c, 0, 79, 67
2, 68224, Note_on_c, 0, 72, 67
2, 68224, Note_on_c, 0, 77, 67
2, 68352, Note_off_c, 0, 72, 67
2, 68352, Note_on_c, 0, 70, 67
2, 68480, Note_off_c, 0, 70, 67
2, 68480, Note_off_c, 0, 77, 67
2, 68480, Note_on_c, 0, 68, 67
2, 68480, Note_on_c, 0, 74, 67
2, 68608, Note_off_c, 0, 68, 67
2, 68608, Note_off_c, 0, 74, 67
2, 68608, Note_on_c, 0, 67, 67
2, 68608, Note_on_c, 0, 75, 67
2, 68736, Note_off_c, 0, 67, 67
2, 68736, Note_off_c, 0, 75, 67
2, 68736, Note_on_c, 0, 70, 67
2, 68736, Note_on_c, 0, 79, 67
2, 68864, Note_off_c, 0, 70, 67
2, 68864, Note_on_c, 0, 72, 67
2, 68992, Note_off_c, 0, 72, 67
2, 68992, Note_on_c, 0, 74, 67
2, 69120, Note_off_c, 0, 74, 67
2, 69120, Note_off_c, 0, 79, 67
2, 69120, Note_on_c, 0, 70, 67
2, 69120, Note_on_c, 0, 75, 67
2, 69248, Note_off_c, 0, 75, 67
2, 69248, Note_on_c, 0, 74, 67
2, 69376, Note_off_c, 0, 70, 67
2, 69376, Note_off_c, 0, 74, 67
2, 69376, Note_on_c, 0, 65, 67
2, 69376, Note_on_c, 0, 72, 67
2, 69504, Note_off_c, 0, 72, 67
2, 69504, Note_on_c, 0, 70, 67
2, 69632, Note_off_c, 0, 65, 67
2, 69632, Note_off_c, 0, 70, 67
2, 69632, Note_on_c, 0, 67, 67
2, 69632, Note_on_c, 0, 75, 67
2, 69760, Note_off_c, 0, 67, 67
2, 69760, Note_off_c, 0, 75, 67
2, 69760, Note_on_c, 0, 66, 67
2, 69760, Note_on_c, 0, 70, 67
2, 69888, Note_off_c, 0, 66, 67
2, 69888, Note_off_c, 0, 70, 67
2, 69888, Note_on_c, 0, 67, 67
2, 69888, Note_on_c, 0, 75, 67
2, 70016, Note_off_c, 0, 67, 67
2, 70016, Note_off_c, 0, 75, 67
2, 70016, Note_on_c, 0, 75, 67
2, 70016, Note_on_c, 0, 82, 67
2, 70272, Note_off_c, 0, 75, 67
2, 70272, Note_off_c, 0, 82, 67
2, 70272, Note_on_c, 0, 74, 67
2, 70272, Note_on_c, 0, 80, 67
2, 70400, Note_off_c, 0, 74, 67
2, 70400, Note_on_c, 0, 72, 67
2, 70528, Note_off_c, 0, 72, 67
2, 70528, Note_off_c, 0, 80, 67
2, 70528, Note_on_c, 0, 70, 67
2, 70528, Note_on_c, 0, 79, 67
2, 70656, Note_off_c, 0, 70, 67
2, 70656, Note_off_c, 0, 79, 67
2, 70656, Note_on_c, 0, 72, 67
2, 70656, Note_on_c, 0, 77, 67
2, 70784, Note_off_c, 0, 72, 67
2, 70784, Note_off_c, 0, 77, 67
2, 70784, Note_on_c, 0, 70, 67
2, 70784, Note_on_c, 0, 74, 67
2, 70912, Note_off_c, 0, 70, 67
2, 70912, Note_on_c, 0, 68, 67
2, 71040, Note_off_c, 0, 68, 67
2, 71040, Note_on_c, 0, 67, 67
2, 71168, Note_off_c, 0, 67, 67
2, 71168, Note_off_c, 0, 74, 67
2, 71168, Note_on_c, 0, 65, 67
2, 71168, Note_on_c, 0, 70, 67
2, 71296, Note_off_c, 0, 65, 67
2, 71296, Note_on_c, 0, 67, 67
2, 71424, Note_off_c, 0, 67, 67
2, 71424, Note_off_c, 0, 70, 67
2, 71424, Note_on_c, 0, 65, 67
2, 71424, Note_on_c, 0, 68, 67
2, 71552, Note_off_c, 0, 68, 67
2, 71552, Note_on_c, 0, 70, 67
2, 71680, Note_off_c, 0, 65, 67
2, 71680, Note_off_c, 0, 70, 67
2, 71680, Note_on_c, 0, 70, 67
2, 71680, Note_on_c, 0, 74, 67
2, 71808, Note_off_c, 0, 70, 67
2, 71808, Note_off_c, 0, 74, 67
2, 71808, Note_on_c, 0, 65, 67
2, 71808, Note_on_c, 0, 70, 67
2, 71936, Note_off_c, 0, 65, 67
2, 71936, Note_off_c, 0, 70, 67
2, 71936, Note_on_c, 0, 70, 67
2, 71936, Note_on_c, 0, 74, 67
2, 72064, Note_off_c, 0, 70, 67
2, 72064, Note_off_c, 0, 74, 67
2, 72064, Note_on_c, 0, 74, 67
2, 72064, Note_on_c, 0, 79, 67
2, 72320, Note_off_c, 0, 74, 67
2, 72320, Note_off_c, 0, 79, 67
2, 72320, Note_on_c, 0, 72, 67
2, 72320, Note_on_c, 0, 77, 67
2, 72448, Note_off_c, 0, 72, 67
2, 72448, Note_on_c, 0, 70, 67
2, 72576, Note_off_c, 0, 70, 67
2, 72576, Note_off_c, 0, 77, 67
2, 72576, Note_on_c, 0, 68, 67
2, 72576, Note_on_c, 0, 74, 67
2, 72704, Note_off_c, 0, 68, 67
2, 72704, Note_off_c, 0, 74, 67
2, 72704, Note_on_c, 0, 67, 67
2, 72704, Note_on_c, 0, 75, 67
2, 72832, Note_off_c, 0, 67, 67
2, 72832, Note_on_c, 0, 65, 67
2, 72960, Note_off_c, 0, 65, 67
2, 72960, Note_on_c, 0, 63, 67
2, 73088, Note_off_c, 0, 63, 67
2, 73088, Note_on_c, 0, 65, 67
2, 73216, Note_off_c, 0, 65, 67
2, 73216, Note_off_c, 0, 75, 67
2, 73216, Note_on_c, 0, 63, 67
2, 73216, Note_on_c, 0, 67, 67
2, 73344, Note_off_c, 0, 67, 67
2, 73344, Note_on_c, 0, 68, 67
2, 73472, Note_off_c, 0, 63, 67
2, 73472, Note_off_c, 0, 68, 67
2, 73472, Note_on_c, 0, 65, 67
2, 73472, Note_on_c, 0, 70, 67
2, 73600, Note_off_c, 0, 70, 67
2, 73600, Note_on_c, 0, 72, 67
2, 73728, Note_off_c, 0, 65, 67
2, 73728, Note_off_c, 0, 72, 67
2, 73728, Note_on_c, 0, 79, 67
2, 74240, Note_off_c, 0, 79, 67
2, 74240, Note_on_c, 0, 82, 67
2, 74496, Control_c, 0, 93, 0
2, 74496, Note_on_c, 0, 68, 67
2, 74624, Note_off_c, 0, 68, 67
2, 74624, Note_on_c, 0, 70, 67
2, 74752, Note_off_c, 0, 70, 67
2, 74752, Note_off_c, 0, 82, 67
2, 74752, Note_on_c, 0, 72, 67
2, 74752, Note_on_c, 0, 80, 67
2, 74880, Note_off_c, 0, 72, 67
2, 74880, Note_off_c, 0, 80, 67
2, 74880, Note_on_c, 0, 70, 67
2, 74880, Note_on_c, 0, 82, 67
2, 75008, Note_off_c, 0, 70, 67
2, 75008, Note_off_c, 0, 82, 67
2, 75008, Note_on_c, 0, 68, 67
2, 75008, Note_on_c, 0, 80, 67
2, 75136, Note_off_c, 0, 80, 67
2, 75136, Note_on_c, 0, 79, 67
2, 75264, Note_off_c, 0, 68, 67
2, 75264, Note_off_c, 0, 79, 67
2, 75264, Note_on_c, 0, 65, 67
2, 75264, Note_on_c, 0, 77, 67
2, 75392, Note_off_c, 0, 65, 67
2, 75392, Note_on_c, 0, 67, 67
2, 75520, Note_off_c, 0, 67, 67
2, 75520, Note_on_c, 0, 68, 67
2, 75648, Note_off_c, 0, 68, 67
2, 75648, Note_on_c, 0, 70, 67
2, 75776, Note_off_c, 0, 70, 67
2, 75776, Note_off_c, 0, 77, 67
2, 75776, Note_on_c, 0, 68, 67
2, 75776, Note_on_c, 0, 74, 67
2, 75904, Note_off_c, 0, 68, 67
2, 75904, Note_on_c, 0, 67, 67
2, 76032, Note_off_c, 0, 67, 67
2, 76032, Note_on_c, 0, 65, 67
2, 76288, Note_off_c, 0, 65, 67
2, 76288, Note_off_c, 0, 74, 67
2, 76288, Note_on_c, 0, 77, 67
2, 76544, Control_c, 0, 93, 0
2, 76544, Note_on_c, 0, 65, 67
2, 76672, Note_off_c, 0, 65, 67
2, 76672, Note_on_c, 0, 70, 67
2, 76800, Note_off_c, 0, 70, 67
2, 76800, Note_off_c, 0, 77, 67
2, 76800, Note_on_c, 0, 67, 67
2, 76800, Note_on_c, 0, 79, 67
2, 76928, Note_off_c, 0, 67, 67
2, 76928, Note_off_c, 0, 79, 67
2, 76928, Note_on_c, 0, 68, 67
2, 76928, Note_on_c, 0, 80, 67
2, 77056, Note_off_c, 0, 68, 67
2, 77056, Note_off_c, 0, 80, 67
2, 77056, Note_on_c, 0, 70, 67
2, 77056, Note_on_c, 0, 79, 67
2, 77184, Note_off_c, 0, 70, 67
2, 77184, Note_off_c, 0, 79, 67
2, 77184, Note_on_c, 0, 72, 67
2, 77184, Note_on_c, 0, 77, 67
2, 77312, Note_off_c, 0, 72, 67
2, 77312, Note_off_c, 0, 77, 67
2, 77312, Note_on_c, 0, 70, 67
2, 77312, Note_on_c, 0, 75, 67
2, 77824, Note_off_c, 0, 70, 67
2, 77824, Note_off_c, 0, 75, 67
2, 77824, Note_on_c, 0, 75, 67
2, 77824, Note_on_c, 0, 79, 67
2, 77952, Note_off_c, 0, 75, 67
2, 77952, Note_on_c, 0, 74, 67
2, 78080, Note_off_c, 0, 74, 67
2, 78080, Note_on_c, 0, 72, 67
2, 78336, Note_off_c, 0, 72, 67
2, 78336, Note_off_c, 0, 79, 67
2, 78336, Note_on_c, 0, 70, 67
2, 78336, Note_on_c, 0, 82, 67
2, 78464, Note_off_c, 0, 70, 67
2, 78464, Note_on_c, 0, 72, 67
2, 78592, Note_off_c, 0, 72, 67
2, 78592, Note_on_c, 0, 74, 67
2, 78720, Note_off_c, 0, 74, 67
2, 78720, Note_on_c, 0, 75, 67
2, 78848, Note_off_c, 0, 75, 67
2, 78848, Note_off_c, 0, 82, 67
2, 78848, Note_on_c, 0, 77, 67
2, 78848, Note_on_c, 0, 80, 67
2, 78976, Note_off_c, 0, 77, 67
2, 78976, Note_off_c, 0, 80, 67
2, 78976, Note_on_c, 0, 75, 67
2, 78976, Note_on_c, 0, 79, 67
2, 79104, Note_off_c, 0, 75, 67
2, 79104, Note_off_c, 0, 79, 67
2, 79104, Note_on_c, 0, 74, 67
2, 79104, Note_on_c, 0, 80, 67
2, 79232, Note_off_c, 0, 80, 67
2, 79232, Note_on_c, 0, 82, 67
2, 79360, Note_off_c, 0, 74, 67
2, 79360, Note_off_c, 0, 82, 67
2, 79360, Note_on_c, 0, 72, 67
2, 79360, Note_on_c, 0, 84, 67
2, 79488, Note_off_c, 0, 72, 67
2, 79488, Note_on_c, 0, 74, 67
2, 79616, Note_off_c, 0, 74, 67
2, 79616, Note_on_c, 0, 75, 67
2, 79744, Note_off_c, 0, 75, 67
2, 79744, Note_on_c, 0, 77, 67
2, 79872, Note_off_c, 0, 77, 67
2, 79872, Note_off_c, 0, 84, 67
2, 79872, Note_on_c, 0, 74, 67
2, 79872, Note_on_c, 0, 82, 67
2, 80000, Note_off_c, 0, 74, 67
2, 80000, Note_on_c, 0, 72, 67
2, 80128, Note_off_c, 0, 72, 67
2, 80128, Note_off_c, 0, 82, 67
2, 80128, Note_on_c, 0, 70, 67
2, 80128, Note_on_c, 0, 80, 67
2, 80256, Note_off_c, 0, 80, 67
2, 80256, Note_on_c, 0, 79, 67
2, 80384, Note_off_c, 0, 70, 67
2, 80384, Note_off_c, 0, 79, 67
2, 80384, Note_on_c, 0, 68, 67
2, 80384, Note_on_c, 0, 80, 67
2, 80512, Note_off_c, 0, 68, 67
2, 80512, Note_on_c, 0, 70, 67
2, 80640, Note_off_c, 0, 70, 67
2, 80640, Note_on_c, 0, 72, 67
2, 80768, Note_off_c, 0, 72, 67
2, 80768, Note_on_c, 0, 68, 67
2, 80896, Note_off_c, 0, 68, 67
2, 80896, Note_off_c, 0, 80, 67
2, 80896, Note_on_c, 0, 70, 67
2, 80896, Note_on_c, 0, 79, 67
2, 81024, Note_off_c, 0, 70, 67
2, 81024, Note_off_c, 0, 79, 67
2, 81024, Note_on_c, 0, 68, 67
2, 81024, Note_on_c, 0, 80, 67
2, 81152, Note_off_c, 0, 68, 67
2, 81152, Note_off_c, 0, 80, 67
2, 81152, Note_on_c, 0, 67, 67
2, 81152, Note_on_c, 0, 79, 67
2, 81280, Note_off_c, 0, 67, 67
2, 81280, Note_off_c, 0, 79, 67
2, 81280, Note_on_c, 0, 65, 67
2, 81280, Note_on_c, 0, 77, 67
2, 81408, Note_off_c, 0, 65, 67
2, 81408, Note_off_c, 0, 77, 67
2, 81408, Note_on_c, 0, 63, 67
2, 81408, Note_on_c, 0, 75, 67
2, 81536, Note_off_c, 0, 63, 67
2, 81536, Note_on_c, 0, 65, 67
2, 81664, Note_off_c, 0, 65, 67
2, 81664, Note_on_c, 0, 67, 67
2, 81792, Note_off_c, 0, 67, 67
2, 81792, Note_on_c, 0, 68, 67
2, 81920, Note_off_c, 0, 68, 67
2, 81920, Note_off_c, 0, 75, 67
2, 81920, Time_signature, 4, 2, 24, 8
2, 81920, Key_signature, -3, "major"
2, 81920, Note_on_c, 0, 67, 67
2, 81920, Note_on_c, 0, 75, 67
2, 82048, Note_off_c, 0, 67, 67
2, 82048, Note_off_c, 0, 75, 67
2, 82048, Note_on_c, 0, 66, 67
2, 82048, Note_on_c, 0, 70, 67
2, 82176, Note_off_c, 0, 66, 67
2, 82176, Note_off_c, 0, 70, 67
2, 82176, Note_on_c, 0, 67, 67
2, 82176, Note_on_c, 0, 75, 67
2, 82304, Note_off_c, 0, 67, 67
2, 82304, Note_off_c, 0, 75, 67
2, 82304, Note_on_c, 0, 75, 67
2, 82304, Note_on_c, 0, 82, 67
2, 82560, Note_off_c, 0, 75, 67
2, 82560, Note_off_c, 0, 82, 67
2, 82560, Note_on_c, 0, 74, 67
2, 82560, Note_on_c, 0, 80, 67
2, 82688, Note_off_c, 0, 74, 67
2, 82688, Note_on_c, 0, 72, 67
2, 82816, Note_off_c, 0, 72, 67
2, 82816, Note_off_c, 0, 80, 67
2, 82816, Note_on_c, 0, 70, 67
2, 82816, Note_on_c, 0, 79, 67
2, 82944, Note_off_c, 0, 70, 67
2, 82944, Note_off_c, 0, 79, 67
2, 82944, Note_on_c, 0, 72, 67
2, 82944, Note_on_c, 0, 77, 67
2, 83072, Note_off_c, 0, 72, 67
2, 83072, Note_off_c, 0, 77, 67
2, 83072, Note_on_c, 0, 70, 67
2, 83072, Note_on_c, 0, 74, 67
2, 83200, Note_off_c, 0, 70, 67
2, 83200, Note_on_c, 0, 68, 67
2, 83328, Note_off_c, 0, 68, 67
2, 83328, Note_on_c, 0, 67, 67
2, 83456, Note_off_c, 0, 67, 67
2, 83456, Note_off_c, 0, 74, 67
2, 83456, Note_on_c, 0, 65, 67
2, 83456, Note_on_c, 0, 70, 67
2, 83584, Note_off_c, 0, 65, 67
2, 83584, Note_on_c, 0, 67, 67
2, 83712, Note_off_c, 0, 67, 67
2, 83712, Note_off_c, 0, 70, 67
2, 83712, Note_on_c, 0, 65, 67
2, 83712, Note_on_c, 0, 68, 67
2, 83840, Note_off_c, 0, 68, 67
2, 83840, Note_on_c, 0, 70, 67
2, 83968, Note_off_c, 0, 65, 67
2, 83968, Note_off_c, 0, 70, 67
2, 83968, Note_on_c, 0, 70, 67
2, 83968, Note_on_c, 0, 74, 67
2, 84096, Note_off_c, 0, 70, 67
2, 84096, Note_off_c, 0, 74, 67
2, 84096, Note_on_c, 0, 65, 67
2, 84096, Note_on_c, 0, 70, 67
2, 84224, Note_off_c, 0, 65, 67
2, 84224, Note_off_c, 0, 70, 67
2, 84224, Note_on_c, 0, 70, 67
2, 84224, Note_on_c, 0, 74, 67
2, 84352, Note_off_c, 0, 70, 67
2, 84352, Note_off_c, 0, 74, 67
2, 84352, Note_on_c, 0, 74, 67
2, 84352, Note_on_c, 0, 79, 67
2, 84608, Note_off_c, 0, 74, 67
2, 84608, Note_off_c, 0, 79, 67
2, 84608, Note_on_c, 0, 72, 67
2, 84608, Note_on_c, 0, 77, 67
2, 84736, Note_off_c, 0, 72, 67
2, 84736, Note_on_c, 0, 70, 67
2, 84864, Note_off_c, 0, 70, 67
2, 84864, Note_off_c, 0, 77, 67
2, 84864, Note_on_c, 0, 68, 67
2, 84864, Note_on_c, 0, 74, 67
2, 84992, Note_off_c, 0, 68, 67
2, 84992, Note_off_c, 0, 74, 67
2, 84992, Note_on_c, 0, 67, 67
2, 84992, Note_on_c, 0, 75, 67
2, 85120, Note_off_c, 0, 67, 67
2, 85120, Note_off_c, 0, 75, 67
2, 85120, Note_on_c, 0, 70, 67
2, 85120, Note_on_c, 0, 79, 67
2, 85248, Note_off_c, 0, 70, 67
2, 85248, Note_on_c, 0, 72, 67
2, 85376, Note_off_c, 0, 72, 67
2, 85376, Note_on_c, 0, 74, 67
2, 85504, Note_off_c, 0, 74, 67
2, 85504, Note_off_c, 0, 79, 67
2, 85504, Note_on_c, 0, 70, 67
2, 85504, Note_on_c, 0, 75, 67
2, 85632, Note_off_c, 0, 75, 67
2, 85632, Note_on_c, 0, 74, 67
2, 85760, Note_off_c, 0, 70, 67
2, 85760, Note_off_c, 0, 74, 67
2, 85760, Note_on_c, 0, 65, 67
2, 85760, Note_on_c, 0, 72, 67
2, 85888, Note_off_c, 0, 72, 67
2, 85888, Note_on_c, 0, 70, 67
2, 86016, Note_off_c, 0, 65, 67
2, 86016, Note_off_c, 0, 70, 67
2, 86016, Note_on_c, 0, 67, 67
2, 86016, Note_on_c, 0, 75, 67
2, 86144, Note_off_c, 0, 67, 67
2, 86144, Note_off_c, 0, 75, 67
2, 86144, Note_on_c, 0, 66, 67
2, 86144, Note_on_c, 0, 70, 67
2, 86272, Note_off_c, 0, 66, 67
2, 86272, Note_off_c, 0, 70, 67
2, 86272, Note_on_c, 0, 67, 67
2, 86272, Note_on_c, 0, 75, 67
2, 86400, Note_off_c, 0, 67, 67
2, 86400, Note_off_c, 0, 75, 67
2, 86400, Note_on_c, 0, 75, 67
2, 86400, Note_on_c, 0, 82, 67
2, 86656, Note_off_c, 0, 75, 67
2, 86656, Note_off_c, 0, 82, 67
2, 86656, Note_on_c, 0, 74, 67
2, 86656, Note_on_c, 0, 80, 67
2, 86784, Note_off_c, 0, 74, 67
2, 86784, Note_on_c, 0, 72, 67
2, 86912, Note_off_c, 0, 72, 67
2, 86912, Note_off_c, 0, 80, 67
2, 86912, Note_on_c, 0, 70, 67
2, 86912, Note_on_c, 0, 79, 67
2, 87040, Note_off_c, 0, 70, 67
2, 87040, Note_off_c, 0, 79, 67
2, 87040, Note_on_c, 0, 72, 67
2, 87040, Note_on_c, 0, 77, 67
2, 87168, Note_off_c, 0, 72, 67
2, 87168, Note_off_c, 0, 77, 67
2, 87168, Note_on_c, 0, 70, 67
2, 87168, Note_on_c, 0, 74, 67
2, 87296, Note_off_c, 0, 70, 67
2, 87296, Note_on_c, 0, 68, 67
2, 87424, Note_off_c, 0, 68, 67
2, 87424, Note_on_c, 0, 67, 67
2, 87552, Note_off_c, 0, 67, 67
2, 87552, Note_off_c, 0, 74, 67
2, 87552, Note_on_c, 0, 65, 67
2, 87552, Note_on_c, 0, 70, 67
2, 87680, Note_off_c, 0, 65, 67
2, 87680, Note_on_c, 0, 67, 67
2, 87808, Note_off_c, 0, 67, 67
2, 87808, Note_off_c, 0, 70, 67
2, 87808, Note_on_c, 0, 65, 67
2, 87808, Note_on_c, 0, 68, 67
2, 87936, Note_off_c, 0, 68, 67
2, 87936, Note_on_c, 0, 70, 67
2, 88064, Note_off_c, 0, 65, 67
2, 88064, Note_off_c, 0, 70, 67
2, 88064, Note_on_c, 0, 70, 67
2, 88064, Note_on_c, 0, 74, 67
2, 88192, Note_off_c, 0, 70, 67
2, 88192, Note_off_c, 0, 74, 67
2, 88192, Note_on_c, 0, 65, 67
2, 88192, Note_on_c, 0, 70, 67
2, 88320, Note_off_c, 0, 65, 67
2, 88320, Note_off_c, 0, 70, 67
2, 88320, Note_on_c, 0, 70, 67
2, 88320, Note_on_c, 0, 74, 67
2, 88448, Note_off_c, 0, 70, 67
2, 88448, Note_off_c, 0, 74, 67
2, 88448, Note_on_c, 0, 74, 67
2, 88448, Note_on_c, 0, 79, 67
2, 88704, Note_off_c, 0, 74, 67
2, 88704, Note_off_c, 0, 79, 67
2, 88704, Note_on_c, 0, 72, 67
2, 88704, Note_on_c, 0, 77, 67
2, 88832, Note_off_c, 0, 72, 67
2, 88832, Note_on_c, 0, 70, 67
2, 88960, Note_off_c, 0, 70, 67
2, 88960, Note_off_c, 0, 77, 67
2, 88960, Note_on_c, 0, 68, 67
2, 88960, Note_on_c, 0, 74, 67
2, 89088, Note_off_c, 0, 68, 67
2, 89088, Note_off_c, 0, 74, 67
2, 89088, Note_on_c, 0, 67, 67
2, 89088, Note_on_c, 0, 75, 67
2, 89216, Note_off_c, 0, 67, 67
2, 89216, Note_on_c, 0, 65, 67
2, 89344, Note_off_c, 0, 65, 67
2, 89344, Note_on_c, 0, 63, 67
2, 89472, Note_off_c, 0, 63, 67
2, 89472, Note_on_c, 0, 65, 67
2, 89600, Note_off_c, 0, 65, 67
2, 89600, Note_off_c, 0, 75, 67
2, 89600, Note_on_c, 0, 63, 67
2, 89600, Note_on_c, 0, 67, 67
2, 89728, Note_off_c, 0, 67, 67
2, 89728, Note_on_c, 0, 68, 67
2, 89856, Note_off_c, 0, 63, 67
2, 89856, Note_off_c, 0, 68, 67
2, 89856, Note_on_c, 0, 65, 67
2, 89856, Note_on_c, 0, 70, 67
2, 89984, Note_off_c, 0, 70, 67
2, 89984, Note_on_c, 0, 72, 67
2, 90112, Note_off_c, 0, 65, 67
2, 90112, Note_off_c, 0, 72, 67
2, 90112, Note_on_c, 0, 79, 67
2, 90624, Note_off_c, 0, 79, 67
2, 90624, Note_on_c, 0, 82, 67
2, 90880, Control_c, 0, 93, 0
2, 90880, Note_on_c, 0, 68, 67
2, 91008, Note_off_c, 0, 68, 67
2, 91008, Note_on_c, 0, 70, 67
2, 91136, Note_off_c, 0, 70, 67
2, 91136, Note_off_c, 0, 82, 67
2, 91136, Note_on_c, 0, 72, 67
2, 91136, Note_on_c, 0, 80, 67
2, 91264, Note_off_c, 0, 72, 67
2, 91264, Note_off_c, 0, 80, 67
2, 91264, Note_on_c, 0, 70, 67
2, 91264, Note_on_c, 0, 82, 67
2, 91392, Note_off_c, 0, 70, 67
2, 91392, Note_off_c, 0, 82, 67
2, 91392, Note_on_c, 0, 68, 67
2, 91392, Note_on_c, 0, 80, 67
2, 91520, Note_off_c, 0, 80, 67
2, 91520, Note_on_c, 0, 79, 67
2, 91648, Note_off_c, 0, 68, 67
2, 91648, Note_off_c, 0, 79, 67
2, 91648, Note_on_c, 0, 65, 67
2, 91648, Note_on_c, 0, 77, 67
2, 91776, Note_off_c, 0, 65, 67
2, 91776, Note_on_c, 0, 67, 67
2, 91904, Note_off_c, 0, 67, 67
2, 91904, Note_on_c, 0, 68, 67
2, 92032, Note_off_c, 0, 68, 67
2, 92032, Note_on_c, 0, 70, 67
2, 92160, Note_off_c, 0, 70, 67
2, 92160, Note_off_c, 0, 77, 67
2, 92160, Note_on_c, 0, 68, 67
2, 92160, Note_on_c, 0, 74, 67
2, 92288, Note_off_c, 0, 68, 67
2, 92288, Note_on_c, 0, 67, 67
2, 92416, Note_off_c, 0, 67, 67
2, 92416, Note_on_c, 0, 65, 67
2, 92672, Note_off_c, 0, 65, 67
2, 92672, Note_off_c, 0, 74, 67
2, 92672, Note_on_c, 0, 77, 67
2, 92928, Control_c, 0, 93, 0
2, 92928, Note_on_c, 0, 65, 67
2, 93056, Note_off_c, 0, 65, 67
2, 93056, Note_on_c, 0, 70, 67
2, 93184, Note_off_c, 0, 70, 67
2, 93184, Note_off_c, 0, 77, 67
2, 93184, Note_on_c, 0, 67, 67
2, 93184, Note_on_c, 0, 79, 67
2, 93312, Note_off_c, 0, 67, 67
2, 93312, Note_off_c, 0, 79, 67
2, 93312, Note_on_c, 0, 68, 67
2, 93312, Note_on_c, 0, 80, 67
2, 93440, Note_off_c, 0, 68, 67
2, 93440, Note_off_c, 0, 80, 67
2, 93440, Note_on_c, 0, 70, 67
2, 93440, Note_on_c, 0, 79, 67
2, 93568, Note_off_c, 0, 70, 67
2, 93568, Note_off_c, 0, 79, 67
2, 93568, Note_on_c, 0, 72, 67
2, 93568, Note_on_c, 0, 77, 67
2, 93696, Note_off_c, 0, 72, 67
2, 93696, Note_off_c, 0, 77, 67
2, 93696, Note_on_c, 0, 70, 67
2, 93696, Note_on_c, 0, 75, 67
2, 94208, Note_off_c, 0, 70, 67
2, 94208, Note_off_c, 0, 75, 67
2, 94208, Note_on_c, 0, 75, 67
2, 94208, Note_on_c, 0, 79, 67
2, 94336, Note_off_c, 0, 75, 67
2, 94336, Note_on_c, 0, 74, 67
2, 94464, Note_off_c, 0, 74, 67
2, 94464, Note_on_c, 0, 72, 67
2, 94720, Note_off_c, 0, 72, 67
2, 94720, Note_off_c, 0, 79, 67
2, 94720, Note_on_c, 0, 70, 67
2, 94720, Note_on_c, 0, 82, 67
2, 94848, Note_off_c, 0, 70, 67
2, 94848, Note_on_c, 0, 72, 67
2, 94976, Note_off_c, 0, 72, 67
2, 94976, Note_on_c, 0, 74, 67
2, 95104, Note_off_c, 0, 74, 67
2, 95104, Note_on_c, 0, 75, 67
2, 95232, Note_off_c, 0, 75, 67
2, 95232, Note_off_c, 0, 82, 67
2, 95232, Note_on_c, 0, 77, 67
2, 95232, Note_on_c, 0, 80, 67
2, 95360, Note_off_c, 0, 77, 67
2, 95360, Note_off_c, 0, 80, 67
2, 95360, Note_on_c, 0, 75, 67
2, 95360, Note_on_c, 0, 79, 67
2, 95488, Note_off_c, 0, 75, 67
2, 95488, Note_off_c, 0, 79, 67
2, 95488, Note_on_c, 0, 74, 67
2, 95488, Note_on_c, 0, 80, 67
2, 95616, Note_off_c, 0, 80, 67
2, 95616, Note_on_c, 0, 82, 67
2, 95744, Note_off_c, 0, 74, 67
2, 95744, Note_off_c, 0, 82, 67
2, 95744, Note_on_c, 0, 72, 67
2, 95744, Note_on_c, 0, 84, 67
2, 95872, Note_off_c, 0, 72, 67
2, 95872, Note_on_c, 0, 74, 67
2, 96000, Note_off_c, 0, 74, 67
2, 96000, Note_on_c, 0, 75, 67
2, 96128, Note_off_c, 0, 75, 67
2, 96128, Note_on_c, 0, 77, 67
2, 96256, Note_off_c, 0, 77, 67
2, 96256, Note_off_c, 0, 84, 67
2, 96256, Note_on_c, 0, 74, 67
2, 96256, Note_on_c, 0, 82, 67
2, 96384, Note_off_c, 0, 74, 67
2, 96384, Note_on_c, 0, 72, 67
2, 96512, Note_off_c, 0, 72, 67
2, 96512, Note_off_c, 0, 82, 67
2, 96512, Note_on_c, 0, 70, 67
2, 96512, Note_on_c, 0, 80, 67
2, 96640, Note_off_c, 0, 80, 67
2, 96640, Note_on_c, 0, 79, 67
2, 96768, Note_off_c, 0, 70, 67
2, 96768, Note_off_c, 0, 79, 67
2, 96768, Note_on_c, 0, 68, 67
2, 96768, Note_on_c, 0, 80, 67
2, 96896, Note_off_c, 0, 68, 67
2, 96896, Note_on_c, 0, 70, 67
2, 97024, Note_off_c, 0, 70, 67
2, 97024, Note_on_c, 0, 72, 67
2, 97152, Note_off_c, 0, 72, 67
2, 97152, Note_on_c, 0, 68, 67
2, 97280, Note_off_c, 0, 68, 67
2, 97280, Note_off_c, 0, 80, 67
2, 97280, Note_on_c, 0, 70, 67
2, 97280, Note_on_c, 0, 79, 67
2, 97408, Note_off_c, 0, 70, 67
2, 97408, Note_off_c, 0, 79, 67
2, 97408, Note_on_c, 0, 68, 67
2, 97408, Note_on_c, 0, 80, 67
2, 97536, Note_off_c, 0, 68, 67
2, 97536, Note_off_c, 0, 80, 67
2, 97536, Note_on_c, 0, 67, 67
2, 97536, Note_on_c, 0, 79, 67
2, 97664, Note_off_c, 0, 67, 67
2, 97664, Note_off_c, 0, 79, 67
2, 97664, Note_on_c, 0, 65, 67
2, 97664, Note_on_c, 0, 77, 67
2, 97792, Note_off_c, 0, 65, 67
2, 97792, Note_off_c, 0, 77, 67
2, 97792, Note_on_c, 0, 63, 67
2, 97792, Note_on_c, 0, 75, 67
2, 97920, Note_off_c, 0, 63, 67
2, 97920, Note_on_c, 0, 65, 67
2, 98048, Note_off_c, 0, 65, 67
2, 98048, Note_on_c, 0, 67, 67
2, 98176, Note_off_c, 0, 67, 67
2, 98176, Note_on_c, 0, 68, 67
2, 98304, Note_off_c, 0, 68, 67
2, 98304, Note_off_c, 0, 75, 67
2, 98304, Time_signature, 4, 2, 24, 8
2, 98304, Key_signature, -3, "major"
2, 98304, Note_on_c, 0, 67, 67
2, 98304, Note_on_c, 0, 75, 67
2, 98432, Note_off_c, 0, 67, 67
2, 98432, Note_off_c, 0, 75, 67
2, 98432, Note_on_c, 0, 66, 67
2, 98432, Note_on_c, 0, 70, 67
2, 98560, Note_off_c, 0, 66, 67
2, 98560, Note_off_c, 0, 70, 67
2, 98560, Note_on_c, 0, 67, 67
2, 98560, Note_on_c, 0, 75, 67
2, 98688, Note_off_c, 0, 67, 67
2, 98688, Note_off_c, 0, 75, 67
2, 98688, Note_on_c, 0, 75, 67
2, 98688, Note_on_c, 0, 82, 67
2, 98944, Note_off_c, 0, 75, 67
2, 98944, Note_off_c, 0, 82, 67
2, 98944, Note_on_c, 0, 74, 67
2, 98944, Note_on_c, 0, 80, 67
2, 99072, Note_off_c, 0, 74, 67
2, 99072, Note_on_c, 0, 72, 67
2, 99200, Note_off_c, 0, 72, 67
2, 99200, Note_off_c, 0, 80, 67
2, 99200, Note_on_c, 0, 70, 67
2, 99200, Note_on_c, 0, 79, 67
2, 99328, Note_off_c, 0, 70, 67
2, 99328, Note_off_c, 0, 79, 67
2, 99328, Note_on_c, 0, 72, 67
2, 99328, Note_on_c, 0, 77, 67
2, 99456, Note_off_c, 0, 72, 67
2, 99456, Note_off_c, 0, 77, 67
2, 99456, Note_on_c, 0, 70, 67
2, 99456, Note_on_c, 0, 74, 67
2, 99584, Note_off_c, 0, 70, 67
2, 99584, Note_on_c, 0, 68, 67
2, 99712, Note_off_c, 0, 68, 67
2, 99712, Note_on_c, 0, 67, 67
2, 99840, Note_off_c, 0, 67, 67
2, 99840, Note_off_c, 0, 74, 67
2, 99840, Note_on_c, 0, 65, 67
2, 99840, Note_on_c, 0, 70, 67
2, 99968, Note_off_c, 0, 65, 67
2, 99968, Note_on_c, 0, 67, 67
2, 100096, Note_off_c, 0, 67, 67
2, 100096, Note_off_c, 0, 70, 67
2, 100096, Note_on_c, 0, 65, 67
2, 100096, Note_on_c, 0, 68, 67
2, 100224, Note_off_c, 0, 68, 67
2, 100224, Note_on_c, 0, 70, 67
2, 100352, Note_off_c, 0, 65, 67
2, 100352, Note_off_c, 0, 70, 67
2, 100352, Note_on_c, 0, 70, 67
2, 100352, Note_on_c, 0, 74, 67
2, 100480, Note_off_c, 0, 70, 67
2, 100480, Note_off_c, 0, 74, 67
2, 100480, Note_on_c, 0, 65, 67
2, 100480, Note_on_c, 0, 70, 67
2, 100608, Note_off_c, 0, 65, 67
2, 100608, Note_off_c, 0, 70, 67
2, 100608, Note_on_c, 0, 70, 67
2, 100608, Note_on_c, 0, 74, 67
2, 100736, Note_off_c, 0, 70, 67
2, 100736, Note_off_c, 0, 74, 67
2, 100736, Note_on_c, 0, 74, 67
2, 100736, Note_on_c, 0, 79, 67
2, 100992, Note_off_c, 0, 74, 67
2, 100992, Note_off_c, 0, 79, 67
2, 100992, Note_on_c, 0, 72, 67
2, 100992, Note_on_c, 0, 77, 67
2, 101120, Note_off_c, 0, 72, 67
2, 101120, Note_on_c, 0, 70, 67
2, 101248, Note_off_c, 0, 70, 67
2, 101248, Note_off_c, 0, 77, 67
2, 101248, Note_on_c, 0, 68, 67
2, 101248, Note_on_c, 0, 74, 67
2, 101376, Note_off_c, 0, 68, 67
2, 101376, Note_off_c, 0, 74, 67
2, 101376, Note_on_c, 0, 67, 67
2, 101376, Note_on_c, 0, 75, 67
2, 101504, Note_off_c, 0, 67, 67
2, 101504, Note_off_c, 0, 75, 67
2, 101504, Note_on_c, 0, 70, 67
2, 101504, Note_on_c, 0, 79, 67
2, 101632, Note_off_c, 0, 70, 67
2, 101632, Note_on_c, 0, 72, 67
2, 101760, Note_off_c, 0, 72, 67
2, 101760, Note_on_c, 0, 74, 67
2, 101888, Note_off_c, 0, 74, 67
2, 101888, Note_off_c, 0, 79, 67
2, 101888, Note_on_c, 0, 70, 67
2, 101888, Note_on_c, 0, 75, 67
2, 102016, Note_off_c, 0, 75, 67
2, 102016, Note_on_c, 0, 74, 67
2, 102144, Note_off_c, 0, 70, 67
2, 102144, Note_off_c, 0, 74, 67
2, 102144, Note_on_c, 0, 65, 67
2, 102144, Note_on_c, 0, 72, 67
2, 102272, Note_off_c, 0, 72, 67
2, 102272, Note_on_c, 0, 70, 67
2, 102400, Note_off_c, 0, 65, 67
2, 102400, Note_off_c, 0, 70, 67
2, 102400, Note_on_c, 0, 67, 67
2, 102400, Note_on_c, 0, 75, 67
2, 102528, Note_off_c, 0, 67, 67
2, 102528, Note_off_c, 0, 75, 67
2, 102528, Note_on_c, 0, 66, 67
2, 102528, Note_on_c, 0, 70, 67
2, 102656, Note_off_c, 0, 66, 67
2, 102656, Note_off_c, 0, 70, 67
2, 102656, Note_on_c, 0, 67, 67
2, 102656, Note_on_c, 0, 75, 67
2, 102784, Note_off_c, 0, 67, 67
2, 102784, Note_off_c, 0, 75, 67
2, 102784, Note_on_c, 0, 75, 67
2, 102784, Note_on_c, 0, 82, 67
2, 103040, Note_off_c, 0, 75, 67
2, 103040, Note_off_c, 0, 82, 67
2, 103040, Note_on_c, 0, 74, 67
2, 103040, Note_on_c, 0, 80, 67
2, 103168, Note_off_c, 0, 74, 67
2, 103168, Note_on_c, 0, 72, 67
2, 103296, Note_off_c, 0, 72, 67
2, 103296, Note_off_c, 0, 80, 67
2, 103296, Note_on_c, 0, 70, 67
2, 103296, Note_on_c, 0, 79, 67
2, 103424, Note_off_c, 0, 70, 67
2, 103424, Note_off_c, 0, 79, 67
2, 103424, Note_on_c, 0, 72, 67
2, 103424, Note_on_c, 0, 77, 67
2, 103552, Note_off_c, 0, 72, 67
2, 103552, Note_off_c, 0, 77, 67
2, 103552, Note_on_c, 0, 70, 67
2, 103552, Note_on_c, 0, 74, 67
2, 103680, Note_off_c, 0, 70, 67
2, 103680, Note_on_c, 0, 68, 67
2, 103808, Note_off_c, 0, 68, 67
2, 103808, Note_on_c, 0, 67, 67
2, 103936, Note_off_c, 0, 67, 67
2, 103936, Note_off_c, 0, 74, 67
2, 103936, Note_on_c, 0, 65, 67
2, 103936, Note_on_c, 0, 70, 67
2, 104064, Note_off_c, 0, 65, 67
2, 104064, Note_on_c, 0, 67, 67
2, 104192, Note_off_c, 0, 67, 67
2, 104192, Note_off_c, 0, 70, 67
2, 104192, Note_on_c, 0, 65, 67
2, 104192, Note_on_c, 0, 68, 67
2, 104320, Note_off_c, 0, 68, 67
2, 104320, Note_on_c, 0, 70, 67
2, 104448, Note_off_c, 0, 65, 67
2, 104448, Note_off_c, 0, 70, 67
2, 104448, Note_on_c, 0, 70, 67
2, 104448, Note_on_c, 0, 74, 67
2, 104576, Note_off_c, 0, 70, 67
2, 104576, Note_off_c, 0, 74, 67
2, 104576, Note_on_c, 0, 65, 67
2, 104576, Note_on_c, 0, 70, 67
2, 104704, Note_off_c, 0, 65, 67
2, 104704, Note_off_c, 0, 70, 67
2, 104704, Note_on_c, 0, 70, 67
2, 104704, Note_on_c, 0, 74, 67
2, 104832, Note_off_c, 0, 70, 67
2, 104832, Note_off_c, 0, 74, 67
2, 104832, Note_on_c, 0, 74, 67
2, 104832, Note_on_c, 0, 79, 67
2, 105088, Note_off_c, 0, 74, 67
2, 105088, Note_off_c, 0, 79, 67
2, 105088, Note_on_c, 0, 72, 67
2, 105088, Note_on_c, 0, 77, 67
2, 105216, Note_off_c, 0, 72, 67
2, 105216, Note_on_c, 0, 70, 67
2, 105344, Note_off_c, 0, 70, 67
2, 105344, Note_off_c, 0, 77, 67
2, 105344, Note_on_c, 0, 68, 67
2, 105344, Note_on_c, 0, 74, 67
2, 105472, Note_off_c, 0, 68, 67
2, 105472, Note_off_c, 0, 74, 67
2, 105472, Note_on_c, 0, 67, 67
2, 105472, Note_on_c, 0, 75, 67
2, 105600, Note_off_c, 0, 67, 67
2, 105600, Note_on_c, 0, 65, 67
2, 105728, Note_off_c, 0, 65, 67
2, 105728, Note_on_c, 0, 63, 67
2, 105856, Note_off_c, 0, 63, 67
2, 105856, Note_on_c, 0, 65, 67
2, 105984, Note_off_c, 0, 65, 67
2, 105984, Note_off_c, 0, 75, 67
2, 105984, Note_on_c, 0, 63, 67
2, 105984, Note_on_c, 0, 67, 67
2, 106112, Note_off_c, 0, 67, 67
2, 106112, Note_on_c, 0, 68, 67
2, 106240, Note_off_c, 0, 63, 67
2, 106240, Note_off_c, 0, 68, 67
2, 106240, Note_on_c, 0, 65, 67
2, 106240, Note_on_c, 0, 70, 67
2, 106368, Note_off_c, 0, 70, 67
2, 106368, Note_on_c, 0, 72, 67
2, 106496, Note_off_c, 0, 65, 67
2, 106496, Note_off_c, 0, 72, 67
2, 106496, Note_on_c, 0, 79, 67
2, 107008, Note_off_c, 0, 79, 67
2, 107008, Note_on_c, 0, 82, 67
2, 107264, Control_c, 0, 93, 0
2, 107264, Note_on_c, 0, 68, 67
2, 107392, Note_off_c, 0, 68, 67
2, 107392, Note_on_c, 0, 70, 67
2, 107520, Note_off_c, 0, 70, 67
2, 107520, Note_off_c, 0, 82, 67
2, 107520, Note_on_c, 0, 72, 67
2, 107520, Note_on_c, 0, 80, 67
2, 107648, Note_off_c, 0, 72, 67
2, 107648, Note_off_c, 0, 80, 67
2, 107648, Note_on_c, 0, 70, 67
2, 107648, Note_on_c, 0, 82, 67
2, 107776, Note_off_c, 0, 70, 67
2, 107776, Note_off_c, 0, 82, 67
2, 107776, Note_on_c, 0, 68, 67
2, 107776, Note_on_c, 0, 80, 67
2, 107904, Note_off_c, 0, 80, 67
2, 107904, Note_on_c, 0, 79, 67
2, 108032, Note_off_c, 0, 68, 67
2, 108032, Note_off_c, 0, 79, 67
2, 108032, Note_on_c, 0, 65, 67
2, 108032, Note_on_c, 0, 77, 67
2, 108160, Note_off_c, 0, 65, 67
2, 108160, Note_on_c, 0, 67, 67
2, 108288, Note_off_c, 0, 67, 67
2, 108288, Note_on_c, 0, 68, 67
2, 108416, Note_off_c, 0, 68, 67
2, 108416, Note_on_c, 0, 70, 67
2, 108544, Note_off_c, 0, 70, 67
2, 108544, Note_off_c, 0, 77, 67
2, 108544, Note_on_c, 0, 68, 67
2, 108544, Note_on_c, 0, 74, 67
2, 108672, Note_off_c, 0, 68, 67
2, 108672, Note_on_c, 0, 67, 67
2, 108800, Note_off_c, 0, 67, 67
2, 108800, Note_on_c, 0, 65, 67
2, 109056, Note_off_c, 0, 65, 67
2, 109056, Note_off_c, 0, 74, 67
2, 109056, Note_on_c, 0, 77, 67
2, 109312, Control_c, 0, 93, 0
2, 109312, Note_on_c, 0, 65, 67
2, 109440, Note_off_c, 0, 65, 67
2, 109440, Note_on_c, 0, 70, 67
2, 109568, Note_off_c, 0, 70, 67
2, 109568, Note_off_c, 0, 77, 67
2, 109568, Note_on_c, 0, 67, 67
2, 109568, Note_on_c, 0, 79, 67
2, 109696, Note_off_c, 0, 67, 67
2, 109696, Note_off_c, 0, 79, 67
2, 109696, Note_on_c, 0, 68, 67
2, 109696, Note_on_c, 0, 80, 67
2, 109824, Note_off_c, 0, 68, 67
2, 109824, Note_off_c, 0, 80, 67
2, 109824, Note_on_c, 0, 70, 67
2, 109824, Note_on_c, 0, 79, 67
2, 109952, Note_off_c, 0, 70, 67
2, 109952, Note_off_c, 0, 79, 67
2, 109952, Note_on_c, 0, 72, 67
2, 109952, Note_on_c, 0, 77, 67
2, 110080, Note_off_c, 0, 72, 67
2, 110080, Note_off_c, 0, 77, 67
2, 110080, Note_on_c, 0, 70, 67
2, 110080, Note_on_c, 0, 75, 67
2, 110592, Note_off_c, 0, 70, 67
2, 110592, Note_off_c, 0, 75, 67
2, 110592, Note_on_c, 0, 75, 67
2, 110592, Note_on_c, 0, 79, 67
2, 110720, Note_off_c, 0, 75, 67
2, 110720, Note_on_c, 0, 74, 67
2, 110848, Note_off_c, 0, 74, 67
2, 110848, Note_on_c, 0, 72, 67
2, 111104, Note_off_c, 0, 72, 67
2, 111104, Note_off_c, 0, 79, 67
2, 111104, Note_on_c, 0, 70, 67
2, 111104, Note_on_c, 0, 82, 67
2, 111232, Note_off_c, 0, 70, 67
2, 111232, Note_on_c, 0, 72, 67
2, 111360, Note_off_c, 0, 72, 67
2, 111360, Note_on_c, 0, 74, 67
2, 111488, Note_off_c, 0, 74, 67
2, 111488, Note_on_c, 0, 75, 67
2, 111616, Note_off_c, 0, 75, 67
2, 111616, Note_off_c, 0, 82, 67
2, 111616, Note_on_c, 0, 77, 67
2, 111616, Note_on_c, 0, 80, 67
2, 111744, Note_off_c, 0, 77, 67
2, 111744, Note_off_c, 0, 80, 67
2, 111744, Note_on_c, 0, 75, 67
2, 111744, Note_on_c, 0, 79, 67
2, 111872, Note_off_c, 0, 75, 67
2, 111872, Note_off_c, 0, 79, 67
2, 111872, Note_on_c, 0, 74, 67
2, 111872, Note_on_c, 0, 80, 67
2, 112000, Note_off_c, 0, 80, 67
2, 112000, Note_on_c, 0, 82, 67
2, 112128, Note_off_c, 0, 74, 67
2, 112128, Note_off_c, 0, 82, 67
2, 112128, Note_on_c, 0, 72, 67
2, 112128, Note_on_c, 0, 84, 67
2, 112256, Note_off_c, 0, 72, 67
2, 112256, Note_on_c, 0, 74, 67
2, 112384, Note_off_c, 0, 74, 67
2, 112384, Note_on_c, 0, 75, 67
2, 112512, Note_off_c, 0, 75, 67
2, 112512, Note_on_c, 0, 77, 67
2, 112640, Note_off_c, 0, 77, 67
2, 112640, Note_off_c, 0, 84, 67
2, 112640, Note_on_c, 0, 74, 67
2, 112640, Note_on_c, 0, 82, 67
2, 112768, Note_off_c, 0, 74, 67
2, 112768, Note_on_c, 0, 72, 67
2, 112896, Note_off_c, 0, 72, 67
2, 112896, Note_off_c, 0, 82, 67
2, 112896, Note_on_c, 0, 70, 67
2, 112896, Note_on_c, 0, 80, 67
2, 113024, Note_off_c, 0, 80, 67
2, 113024, Note_on_c, 0, 79, 67
2, 113152, Note_off_c, 0, 70, 67
2, 113152, Note_off_c, 0, 79, 67
2, 113152, Note_on_c, 0, 68, 67
2, 113152, Note_on_c, 0, 80, 67
2, 113280, Note_off_c, 0, 68, 67
2, 113280, Note_on_c, 0, 70, 67
2, 113408, Note_off_c, 0, 70, 67
2, 113408, Note_on_c, 0, 72, 67
2, 113536, Note_off_c, 0, 72, 67
2, 113536, Note_on_c, 0, 68, 67
2, 113664, Note_off_c, 0, 68, 67
2, 113664, Note_off_c, 0, 80, 67
2, 113664, Note_on_c, 0, 70, 67
2, 113664, Note_on_c, 0, 79, 67
2, 113792, Note_off_c, 0, 70, 67
2, 113792, Note_off_c, 0, 79, 67
2, 113792, Note_on_c, 0, 68, 67
2, 113792, Note_on_c, 0, 80, 67
2, 113920, Note_off_c, 0, 68, 67
2, 113920, Note_off_c, 0, 80, 67
2, 113920, Note_on_c, 0, 67, 67
2, 113920, Note_on_c, 0, 79, 67
2, 114048, Note_off_c, 0, 67, 67
2, 114048, Note_off_c, 0, 79, 67
2, 114048, Note_on_c, 0, 65, 67
2, 114048, Note_on_c, 0, 77, 67
2, 114176, Note_off_c, 0, 65, 67
2, 114176, Note_off_c, 0, 77, 67
2, 114176, Note_on_c, 0, 63, 67
2, 114176, Note_on_c, 0, 75, 67
2, 114304, Note_off_c, 0, 63, 67
2, 114304, Note_on_c, 0, 65, 67
2, 114432, Note_off_c, 0, 65, 67
2, 114432, Note_on_c, 0, 67, 67
2, 114560, Note_off_c, 0, 67, 67
2, 114560, Note_on_c, 0, 68, 67
2, 114688, Note_off_c, 0, 68, 67
2, 114688, Note_off_c, 0, 75, 67
2, 114688, Time_signature, 4, 2, 24, 8
2, 114688, Key_signature, -3, "major"
2, 114688, Note_on_c, 0, 67, 67
2, 114688, Note_on_c, 0, 75, 67
2, 114816, Note_off_c, 0, 67, 67
2, 114816, Note_off_c, 0, 75, 67
2, 114816, Note_on_c, 0, 66, 67
2, 114816, Note_on_c, 0, 70, 67
2, 114944, Note_off_c, 0, 66, 67
2, 114944, Note_off_c, 0, 70, 67
2, 114944, Note_on_c, 0, 67, 67
2, 114944, Note_on_c, 0, 75, 67
2, 115072, Note_off_c, 0, 67, 67
2, 115072, Note_off_c, 0, 75, 67
2, 115072, Note_on_c, 0, 75, 67
2, 115072, Note_on_c, 0, 82, 67
2, 115328, Note_off_c, 0, 75, 67
2, 115328, Note_off_c, 0, 82, 67
2, 115328, Note_on_c, 0, 74, 67
2, 115328, Note_on_c, 0, 80, 67
2, 115456, Note_off_c, 0, 74, 67
2, 115456, Note_on_c, 0, 72, 67
2, 115584, Note_off_c, 0, 72, 67
2, 115584, Note_off_c, 0, 80, 67
2, 115584, Note_on_c, 0, 70, 67
2, 115584, Note_on_c, 0, 79, 67
2, 115712, Note_off_c, 0, 70, 67
2, 115712, Note_off_c, 0, 79, 67
2, 115712, Note_on_c, 0, 72, 67
2, 115712, Note_on_c, 0, 77, 67
2, 115840, Note_off_c, 0, 72, 67
2, 115840, Note_off_c, 0, 77, 67
2, 115840, Note_on_c, 0, 70, 67
2, 115840, Note_on_c, 0, 74, 67
2, 115968, Note_off_c, 0, 70, 67
2, 115968, Note_on_c, 0, 68, 67
2, 116096, Note_off_c, 0, 68, 67
2, 116096, Note_on_c, 0, 67, 67
2, 116224, Note_off_c, 0, 67, 67
2, 116224, Note_off_c, 0, 74, 67
2, 116224, Note_on_c, 0, 65, 67
2, 116224, Note_on_c, 0, 70, 67
2, 116352, Note_off_c, 0, 65, 67
2, 116352, Note_on_c, 0, 67, 67
2, 116480, Note_off_c, 0, 67, 67
2, 116480, Note_off_c, 0, 70, 67
2, 116480, Note_on_c, 0, 65, 67
2, 116480, Note_on_c, 0, 68, 67
2, 116608, Note_off_c, 0, 68, 67
2, 116608, Note_on_c, 0, 70, 67
2, 116736, Note_off_c, 0, 65, 67
2, 116736, Note_off_c, 0, 70, 67
2, 116736, Note_on_c, 0, 70, 67
2, 116736, Note_on_c, 0, 74, 67
2, 116864, Note_off_c, 0, 70, 67
2, 116864, Note_off_c, 0, 74, 67
2, 116864, Note_on_c, 0, 65, 67
2, 116864, Note_on_c, 0, 70, 67
2, 116992, Note_off_c, 0, 65, 67
2, 116992, Note_off_c, 0, 70, 67
2, 116992, Note_on_c, 0, 70, 67
2, 116992, Note_on_c, 0, 74, 67
2, 117120, Note_off_c, 0, 70, 67
2, 117120, Note_off_c, 0, 74, 67
2, 117120, Note_on_c, 0, 74, 67
2, 117120, Note_on_c, 0, 79, 67
2, 117376, Note_off_c, 0, 74, 67
2, 117376, Note_off_c, 0, 79, 67
2, 117376, Note_on_c, 0, 72, 67
2, 117376, Note_on_c, 0, 77, 67
2, 117504, Note_off_c, 0, 72, 67
2, 117504, Note_on_c, 0, 70, 67
2, 117632, Note_off_c, 0, 70, 67
2, 117632, Note_off_c, 0, 77, 67
2, 117632, Note_on_c, 0, 68, 67
2, 117632, Note_on_c, 0, 74, 67
2, 117760, Note_off_c, 0, 68, 67
2, 117760, Note_off_c, 0, 74, 67
2, 117760, Note_on_c, 0, 67, 67
2, 117760, Note_on_c, 0, 75, 67
2, 117888, Note_off_c, 0, 67, 67
2, 117888, Note_off_c, 0, 75, 67
2, 117888, Note_on_c, 0, 70, 67
2, 117888, Note_on_c, 0, 79, 67
2, 118016, Note_off_c, 0, 70, 67
2, 118016, Note_on_c, 0, 72, 67
2, 118144, Note_off_c, 0, 72, 67
2, 118144, Note_on_c, 0, 74, 67
2, 118272, Note_off_c, 0, 74, 67
2, 118272, Note_off_c, 0, 79, 67
2, 118272, Note_on_c, 0, 70, 67
2, 118272, Note_on_c, 0, 75, 67
2, 118400, Note_off_c, 0, 75, 67
2, 118400, Note_on_c, 0, 74, 67
2, 118528, Note_off_c, 0, 70, 67
2, 118528, Note_off_c, 0, 74, 67
2, 118528, Note_on_c, 0, 65, 67
2, 118528, Note_on_c, 0, 72, 67
2, 118656, Note_off_c, 0, 72, 67
2, 118656, Note_on_c, 0, 70, 67
2, 118784, Note_off_c, 0, 65, 67
2, 118784, Note_off_c, 0, 70, 67
2, 118784, Note_on_c, 0, 67, 67
2, 118784, Note_on_c, 0, 75, 67
2, 118912, Note_off_c, 0, 67, 67
2, 118912, Note_off_c, 0, 75, 67
2, 118912, Note_on_c, 0, 66, 67
2, 118912, Note_on_c, 0, 70, 67
2, 119040, Note_off_c, 0, 66, 67
2, 119040, Note_off_c, 0, 70, 67
2, 119040, Note_on_c, 0, 67, 67
2, 119040, Note_on_c, 0, 75, 67
2, 119168, Note_off_c, 0, 67, 67
2, 119168, Note_off_c, 0, 75, 67
2, 119168, Note_on_c, 0, 75, 67
2, 119168, Note_on_c, 0, 82, 67
2, 119424, Note_off_c, 0, 75, 67
2, 119424, Note_off_c, 0, 82, 67
2, 119424, Note_on_c, 0, 74, 67
2, 119424, Note_on_c, 0, 80, 67
2, 119552, Note_off_c, 0, 74, 67
2, 119552, Note_on_c, 0, 72, 67
2, 119680, Note_off_c, 0, 72, 67
2, 119680, Note_off_c, 0, 80, 67
2, 119680, Note_on_c, 0, 70, 67
2, 119680, Note_on_c, 0, 79, 67
2, 119808, Note_off_c, 0, 70, 67
2, 119808, Note_off_c, 0, 79, 67
2, 119808, Note_on_c, 0, 72, 67
2, 119808, Note_on_c, 0, 77, 67
2, 119936, Note_off_c, 0, 72, 67
2, 119936, Note_off_c, 0, 77, 67
2, 119936, Note_on_c, 0, 70, 67
2, 119936, Note_on_c, 0, 74, 67
2, 120064, Note_off_c, 0, 70, 67
2, 120064, Note_on_c, 0, 68, 67
2, 120192, Note_off_c, 0, 68, 67
2, 120192, Note_on_c, 0, 67, 67
2, 120320, Note_off_c, 0, 67, 67
2, 120320, Note_off_c, 0, 74, 67
2, 120320, Note_on_c, 0, 65, 67
2, 120320, Note_on_c, 0, 70, 67
2, 120448, Note_off_c, 0, 65, 67
2, 120448, Note_on_c, 0, 67, 67
2, 120576, Note_off_c, 0, 67, 67
2, 120576, Note_off_c, 0, 70, 67
2, 120576, Note_on_c, 0, 65, 67
2, 120576, Note_on_c, 0, 68, 67
2, 120704, Note_off_c, 0, 68, 67
2, 120704, Note_on_c, 0, 70, 67
2, 120832, Note_off_c, 0, 65, 67
2, 120832, Note_off_c, 0, 70, 67
2, 120832, Note_on_c, 0, 70, 67
2, 120832, Note_on_c, 0, 74, 67
2, 120960, Note_off_c, 0, 70, 67
2, 120960, Note_off_c, 0, 74, 67
2, 120960, Note_on_c, 0, 65, 67
2, 120960, Note_on_c, 0, 70, 67
2, 121088, Note_off_c, 0, 65, 67
2, 121088, Note_off_c, 0, 70, 67
2, 121088, Note_on_c, 0, 70, 67
2, 121088, Note_on_c, 0, 74, 67
2, 121216, Note_off_c, 0, 70, 67
2, 121216, Note_off_c, 0, 74, 67
2, 121216, Note_on_c, 0, 74, 67
2, 121216, Note_on_c, 0, 79, 67
2, 121472, Note_off_c, 0, 74, 67
2, 121472, Note_off_c, 0, 79, 67
2, 121472, Note_on_c, 0, 72, 67
2, 121472, Note_on_c, 0, 77, 67
2, 121600, Note_off_c, 0, 72, 67
2, 121600, Note_on_c, 0, 70, 67
2, 121728, Note_off_c, 0, 70, 67
2, 121728, Note_off_c, 0, 77, 67
2, 121728, Note_on_c, 0, 68, 67
2, 121728, Note_on_c, 0, 74, 67
2, 121856, Note_off_c, 0, 68, 67
2, 121856, Note_off_c, 0, 74, 67
2, 121856, Note_on_c, 0, 67, 67
2, 121856, Note_on_c, 0, 75, 67
2, 121984, Note_off_c, 0, 67, 67
2, 121984, Note_on_c, 0, 65, 67
2, 122112, Note_off_c, 0, 65, 67
2, 122112, Note_on_c, 0, 63, 67
2, 122240, Note_off_c, 0, 63, 67
2, 122240, Note_on_c, 0, 65, 67
2, 122368, Note_off_c, 0, 65, 67
2, 122368, Note_off_c, 0, 75, 67
2, 122368, Note_on_c, 0, 63, 67
2, 122368, Note_on_c, 0, 67, 67
2, 122496, Note_off_c, 0, 67, 67
2, 122496, Note_on_c, 0, 68, 67
2, 122624, Note_off_c, 0, 63, 67
2, 122624, Note_off_c, 0, 68, 67
2, 122624, Note_on_c, 0, 65, 67
2, 122624, Note_on_c, 0, 70, 67
2, 122752, Note_off_c, 0, 70, 67
2, 122752, Note_on_c, 0, 72, 67
2, 122880, Note_off_c, 0, 65, 67
2, 122880, Note_off_c, 0, 72, 67
2, 122880, Note_on_c, 0, 79, 67
2, 123392, Note_off_c, 0, 79, 67
2, 123392, Note_on_c, 0, 82, 67
2, 123648, Control_c, 0, 93, 0
2, 123648, Note_on_c, 0, 68, 67
2, 123776, Note_off_c, 0, 68, 67
2, 123776, Note_on_c, 0, 70, 67
2, 123904, Note_off_c, 0, 70, 67
2, 123904, Note_off_c, 0, 82, 67
2, 123904, Note_on_c, 0, 72, 67
2, 123904, Note_on_c, 0, 80, 67
2, 124032, Note_off_c, 0, 72, 67
2, 124032, Note_off_c, 0, 80, 67
2, 124032, Note_on_c, 0, 70, 67
2, 124032, Note_on_c, 0, 82, 67
2, 124160, Note_off_c, 0, 70, 67
2, 124160, Note_off_c, 0, 82, 67
2, 124160, Note_on_c, 0, 68, 67
2, 124160, Note_on_c, 0, 80, 67
2, 124288, Note_off_c, 0, 80, 67
2, 124288, Note_on_c, 0, 79, 67
2, 124416, Note_off_c, 0, 68, 67
2, 124416, Note_off_c, 0, 79, 67
2, 124416, Note_on_c, 0, 65, 67
2, 124416, Note_on_c, 0, 77, 67
2, 124544, Note_off_c, 0, 65, 67
2, 124544, Note_on_c, 0, 67, 67
2, 124672, Note_off_c, 0, 67, 67
2, 124672, Note_on_c, 0, 68, 67
2, 124800, Note_off_c, 0, 68, 67
2, 124800, Note_on_c, 0, 70, 67
2, 124928, Note_off_c, 0, 70, 67
2, 124928, Note_off_c, 0, 77, 67
2, 124928, Note_on_c, 0, 68, 67
2, 124928, Note_on_c, 0, 74, 67
2, 125056, Note_off_c, 0, 68, 67
2, 125056, Note_on_c, 0, 67, 67
2, 125184, Note_off_c, 0, 67, 67
2, 125184, Note_on_c, 0, 65, 67
2, 125440, Note_off_c, 0, 65, 67
2, 125440, Note_off_c, 0, 74, 67
2, 125440, Note_on_c, 0, 77, 67
2, 125696, Control_c, 0, 93, 0
2, 125696, Note_on_c, 0, 65, 67
2, 125824, Note_off_c, 0, 65, 67
2, 125824, Note_on_c, 0, 70, 67
2, 125952, Note_off_c, 0, 70, 67
2, 125952, Note_off_c, 0, 77, 67
2, 125952, Note_on_c, 0, 67, 67
2, 125952, Note_on_c, 0, 79, 67
2, 126080, Note_off_c, 0, 67, 67
2, 126080, Note_off_c, 0, 79, 67
2, 126080, Note_on_c, 0, 68, 67
2, 126080, Note_on_c, 0, 80, 67
2, 126208, Note_off_c, 0, 68, 67
2, 126208, Note_off_c, 0, 80, 67
2, 126208, Note_on_c, 0, 70, 67
2, 126208, Note_on_c, 0, 79, 67
2, 126336, Note_off_c, 0, 70, 67
2, 126336, Note_off_c, 0, 79, 67
2, 126336, Note_on_c, 0, 72, 67
2, 126336, Note_on_c, 0, 77, 67
2, 126464, Note_off_c, 0, 72, 67
2, 126464, Note_off_c, 0, 77, 67
2, 126464, Note_on_c, 0, 70, 67
2, 126464, Note_on_c, 0, 75, 67
2, 126976, Note_off_c, 0, 70, 67
2, 126976, Note_off_c, 0, 75, 67
2, 126976, Note_on_c, 0, 75, 67
2, 126976, Note_on_c, 0, 79, 67
2, 127104, Note_off_c, 0, 75, 67
2, 127104, Note_on_c, 0, 74, 67
2, 127232, Note_off_c, 0, 74, 67
2, 127232, Note_on_c, 0, 72, 67
2, 127488, Note_off_c, 0, 72, 67
2, 127488, Note_off_c, 0, 79, 67
2, 127488, Note_on_c, 0, 70, 67
2, 127488, Note_on_c, 0, 82, 67
2, 127616, Note_off_c, 0, 70, 67
2, 127616, Note_on_c, 0, 72, 67
2, 127744, Note_off_c, 0, 72, 67
2, 127744, Note_on_c, 0, 74, 67
2, 127872, Note_off_c, 0, 74, 67
2, 127872, Note_on_c, 0, 75, 67
2, 128000, Note_off_c, 0, 75, 67
2, 128000, Note_off_c, 0, 82, 67
2, 128000, Note_on_c, 0, 77, 67
2, 128000, Note_on_c, 0, 80, 67
2, 128128, Note_off_c, 0, 77, 67
2, 128128, Note_off_c, 0, 80, 67
2, 128128, Note_on_c, 0, 75, 67
2, 128128, Note_on_c, 0, 79, 67
2, 128256, Note_off_c, 0, 75, 67
2, 128256, Note_off_c, 0, 79, 67
2, 128256, Note_on_c, 0, 74, 67
2, 128256, Note_on_c, 0, 80, 67
2, 128384, Note_off_c, 0, 80, 67
2, 128384, Note_on_c, 0, 82, 67
2, 128512, Note_off_c, 0, 74, 67
2, 128512, Note_off_c, 0, 82, 67
2, 128512, Note_on_c, 0, 72, 67
2, 128512, Note_on_c, 0, 84, 67
2, 128640, Note_off_c, 0, 72, 67
2, 128640, Note_on_c, 0, 74, 67
2, 128768, Note_off_c, 0, 74, 67
2, 128768, Note_on_c, 0, 75, 67
2, 128896, Note_off_c, 0, 75, 67
2, 128896, Note_on_c, 0, 77, 67
2, 129024, Note_off_c, 0, 77, 67
2, 129024, Note_off_c, 0, 84, 67
2, 129024, Note_on_c, 0, 74, 67
2, 129024, Note_on_c, 0, 82, 67
2, 129152, Note_off_c, 0, 74, 67
2, 129152, Note_on_c, 0, 72, 67
2, 129280, Note_off_c, 0, 72, 67
2, 129280, Note_off_c, 0, 82, 67
2, 129280, Note_on_c, 0, 70, 67
2, 129280, Note_on_c, 0, 80, 67
2, 129408, Note_off_c, 0, 80, 67
2, 129408, Note_on_c, 0, 79, 67
2, 129536, Note_off_c, 0, 70, 67
2, 129536, Note_off_c, 0, 79, 67
2, 129536, Note_on_c, 0, 68, 67
2, 129536, Note_on_c, 0, 80, 67
2, 129664, Note_off_c, 0, 68, 67
2, 129664, Note_on_c, 0, 70, 67
2, 129792, Note_off_c, 0, 70, 67
2, 129792, Note_on_c, 0, 72, 67
2, 129920, Note_off_c, 0, 72, 67
2, 129920, Note_on_c, 0, 68, 67
2, 130048, Note_off_c, 0, 68, 67
2, 130048, Note_off_c, 0, 80, 67
2, 130048, Note_on_c, 0, 70, 67
2, 130048, Note_on_c, 0, 79, 67
2, 130176, Note_off_c, 0, 70, 67
2, 130176, Note_off_c, 0, 79, 67
2, 130176, Note_on_c, 0, 68, 67
2, 130176, Note_on_c, 0, 80, 67
2, 130304, Note_off_c, 0, 68, 67
2, 130304, Note_off_c, 0, 80, 67
2, 130304, Note_on_c, 0, 67, 67
2, 130304, Note_on_c, 0, 79, 67
2, 130432, Note_off_c, 0, 67, 67
2, 130432, Note_off_c, 0, 79, 67
2, 130432, Note_on_c, 0, 65, 67
2, 130432, Note_on_c, 0, 77, 67
2, 130560, Note_off_c, 0, 65, 67
2, 130560, Note_off_c, 0, 77, 67
2, 130560, Note_on_c, 0, 63, 67
2, 130560, Note_on_c, 0, 75, 67
2, 130688, Note_off_c, 0, 63, 67
2, 130688, Note_on_c, 0, 65, 67
2, 130816, Note_off_c, 0, 65, 67
2, 130816, Note_on_c, 0, 67, 67
2, 130944, Note_off_c, 0, 67, 67
2, 130944, Note_on_c, 0, 68, 67
2, 131072, Note_off_c, 0, 68, 67
2, 131072, Note_off_c, 0, 75, 67
2, 131072, Time_signature, 4, 2, 24, 8
2, 131072, Key_signature, -3, "major"
2, 131072, Note_on_c, 0, 67, 67
2, 131072, Note_on_c, 0, 75, 67
2, 131200, Note_off_c, 0, 67, 67
2, 131200, Note_off_c, 0, 75, 67
2, 131200, Note_on_c, 0, 66, 67
2, 131200, Note_on_c, 0, 70, 67
2, 131328, Note_off_c, 0, 66, 67
2, 131328, Note_off_c, 0, 70, 67
2, 131328, Note_on_c, 0, 67, 67
2, 131328, Note_on_c, 0, 75, 67
2, 131456, Note_off_c, 0, 67, 67
2, 131456, Note_off_c, 0, 75, 67
2, 131456, Note_on_c, 0, 75, 67
2, 131456, Note_on_c, 0, 82, 67
2, 131712, Note_off_c, 0, 75, 67
2, 131712, Note_off_c, 0, 82, 67
2, 131712, Note_on_c, 0, 74, 67
2, 131712, Note_on_c, 0, 80, 67
2, 131840, Note_off_c, 0, 74, 67
2, 131840, Note_on_c, 0, 72, 67
2, 131968, Note_off_c, 0, 72, 67
2, 131968, Note_off_c, 0, 80, 67
2, 131968, Note_on_c, 0, 70, 67
2, 131968, Note_on_c, 0, 79, 67
2, 132096, Note_off_c, 0, 70, 67
2, 132096, Note_off_c, 0, 79, 67
2, 132096, Note_on_c, 0, 72, 67
2, 132096, Note_on_c, 0, 77, 67
2, 132224, Note_off_c, 0, 72, 67
2, 132224, Note_off_c, 0, 77, 67
2, 132224, Note_on_c, 0, 70, 67
2, 132224, Note_on_c, 0, 74, 67
2, 132352, Note_off_c, 0, 70, 67
2, 132352, Note_on_c, 0, 68, 67
2, 132480, Note_off_c, 0, 68, 67
2, 132480, Note_on_c, 0, 67, 67
2, 132608, Note_off_c, 0, 67, 67
2, 132608, Note_off_c, 0, 74, 67
2, 132608, Note_on_c, 0, 65, 67
2, 132608, Note_on_c, 0, 70, 67
2, 132736, Note_off_c, 0, 65, 67
2, 132736, Note_on_c, 0, 67, 67
2, 132864, Note_off_c, 0, 67, 67
2, 132864, Note_off_c, 0, 70, 67
2, 132864, Note_on_c, 0, 65, 67
2, 132864, Note_on_c, 0, 68, 67
2, 132992, Note_off_c, 0, 68, 67
2, 132992, Note_on_c, 0, 70, 67
2, 133120, Note_off_c, 0, 65, 67
2, 133120, Note_off_c, 0, 70, 67
2, 133120, Note_on_c, 0, 70, 67
2, 133120, Note_on_c, 0, 74, 67
2, 133248, Note_off_c, 0, 70, 67
2, 133248, Note_off_c, 0, 74, 67
2, 133248, Note_on_c, 0, 65, 67
2, 133248, Note_on_c, 0, 70, 67
2, 133376, Note_off_c, 0, 65, 67
2, 133376, Note_off_c, 0, 70, 67
2, 133376, Note_on_c, 0, 70, 67
2, 133376, Note_on_c, 0, 74, 67
2, 133504, Note_off_c, 0, 70, 67
2, 133504, Note_off_c, 0, 74, 67
2, 133504, Note_on_c, 0, 74, 67
2, 133504, Note_on_c, 0, 79, 67
2, 133760, Note_off_c, 0, 74, 67
2, 133760, Note_off_c, 0, 79, 67
2, 133760, Note_on_c, 0, 72, 67
2, 133760, Note_on_c, 0, 77, 67
2, 133888, Note_off_c, 0, 72, 67
2, 133888, Note_on_c, 0, 70, 67
2, 134016, Note_off_c, 0, 70, 67
2, 134016, Note_off_c, 0, 77, 67
2, 134016, Note_on_c, 0, 68, 67
2, 134016, Note_on_c, 0, 74, 67
2, 134144, Note_off_c, 0, 68, 67
2, 134144, Note_off_c, 0, 74, 67
2, 134144, Note_on_c, 0, 67, 67
2, 134144, Note_on_c, 0, 75, 67
2, 134272, Note_off_c, 0, 67, 67
2, 134272, Note_off_c, 0, 75, 67
2, 134272, Note_on_c, 0, 70, 67
2, 134272, Note_on_c, 0, 79, 67
2, 134400, Note_off_c, 0, 70, 67
2, 134400, Note_on_c, 0, 72, 67
2, 134528, Note_off_c, 0, 72, 67
2, 134528, Note_on_c, 0, 74, 67
2, 134656, Note_off_c, 0, 74, 67
2, 134656, Note_off_c, 0, 79, 67
2, 134656, Note_on_c, 0, 70, 67
2, 134656, Note_on_c, 0, 75, 67
2, 134784, Note_off_c, 0, 75, 67
2, 134784, Note_on_c, 0, 74, 67
2, 134912, Note_off_c, 0, 70, 67
2, 134912, Note_off_c, 0, 74, 67
2, 134912, Note_on_c, 0, 65, 67
2, 134912, Note_on_c, 0, 72, 67
2, 135040, Note_off_c, 0, 72, 67
2, 135040, Note_on_c, 0, 70, 67
2, 135168, Note_off_c, 0, 65, 67
2, 135168, Note_off_c, 0, 70, 67
2, 135168, Note_on_c, 0, 67, 67
2, 135168, Note_on_c, 0, 75, 67
2, 135296, Note_off_c, 0, 67, 67
2, 135296, Note_off_c, 0, 75, 67
2, 135296, Note_on_c, 0, 66, 67
2, 135296, Note_on_c, 0, 70, 67
2, 135424, Note_off_c, 0, 66, 67
2, 135424, Note_off_c, 0, 70, 67
2, 135424, Note_on_c, 0, 67, 67
2, 135424, Note_on_c, 0, 75, 67
2, 135552, Note_off_c, 0, 67, 67
2, 135552, Note_off_c, 0, 75, 67
2, 135552, Note_on_c, 0, 75, 67
2, 135552, Note_on_c, 0, 82, 67
2, 135808, Note_off_c, 0, 75, 67
2, 135808, Note_off_c, 0, 82, 67
2, 135808, Note_on_c, 0, 74, 67
2, 135808, Note_on_c, 0, 80, 67
2, 135936, Note_off_c, 0, 74, 67
2, 135936, Note_on_c, 0, 72, 67
2, 136064, Note_off_c, 0, 72, 67
2, 136064, Note_off_c, 0, 80, 67
2, 136064, Note_on_c, 0, 70, 67
2, 136064, Note_on_c, 0, 79, 67
2, 136192, Note_off_c, 0, 70, 67
2, 136192, Note_off_c, 0, 79, 67
2, 136192, Note_on_c, 0, 72, 67
2, 136192, Note_on_c, 0, 77, 67
2, 136320, Note_off_c, 0, 72, 67
2, 136320, Note_off_c, 0, 77, 67
2, 136320, Note_on_c, 0, 70, 67
2, 136320, Note_on_c, 0, 74, 67
2, 136448, Note_off_c, 0, 70, 67
2, 136448, Note_on_c, 0, 68, 67
2, 136576, Note_off_c, 0, 68, 67
2, 136576, Note_on_c, 0, 67, 67
2, 136704, Note_off_c, 0, 67, 67
2, 136704, Note_off_c, 0, 74, 67
2, 136704, Note_on_c, 0, 65, 67
2, 136704, Note_on_c, 0, 70, 67
2, 136832, Note_off_c, 0, 65, 67
2, 136832, Note_on_c, 0, 67, 67
2, 136960, Note_off_c, 0, 67, 67
2, 136960, Note_off_c, 0, 70, 67
2, 136960, Note_on_c, 0, 65, 67
2, 136960, Note_on_c, 0, 68, 67
2, 137088, Note_off_c, 0, 68, 67
2, 137088, Note_on_c, 0, 70, 67
2, 137216, Note_off_c, 0, 65, 67
2, 137216, Note_off_c, 0, 70, 67
2, 137216, Note_on_c, 0, 70, 67
2, 137216, Note_on_c, 0, 74, 67
2, 137344, Note_off_c, 0, 70, 67
2, 137344, Note_off_c, 0, 74, 67
2, 137344, Note_on_c, 0, 65, 67
2, 137344, Note_on_c, 0, 70, 67
2, 137472, Note_off_c, 0, 65, 67
2, 137472, Note_off_c, 0, 70, 67
2, 137472, Note_on_c, 0, 70, 67
2, 137472, Note_on_c, 0, 74, 67
2, 137600, Note_off_c, 0, 70, 67
2, 137600, Note_off_c, 0, 74, 67
2, 137600, Note_on_c, 0, 74, 67
2, 137600, Note_on_c, 0, 79, 67
2, 137856, Note_off_c, 0, 74, 67
2, 137856, Note_off_c, 0, 79, 67
2, 137856, Note_on_c, 0, 72, 67
2, 137856, Note_on_c, 0, 77, 67
2, 137984, Note_off_c, 0, 72, 67
2, 137984, Note_on_c, 0, 70, 67
2, 138112, Note_off_c, 0, 70, 67
2, 138112, Note_off_c, 0, 77, 67
2, 138112, Note_on_c, 0, 68, 67
2, 138112, Note_on_c, 0, 74, 67
2, 138240, Note_off_c, 0, 68, 67
2, 138240, Note_off_c, 0, 74, 67
2, 138240, Note_on_c, 0, 67, 67
2, 138240, Note_on_c, 0, 75, 67
2, 138368, Note_off_c, 0, 67, 67
2, 138368, Note_on_c, 0, 65, 67
2, 138496, Note_off_c, 0, 65, 67
2, 138496, Note_on_c, 0, 63, 67
2, 138624, Note_off_c, 0, 63, 67
2, 138624, Note_on_c, 0, 65, 67
2, 138752, Note_off_c, 0, 65, 67
2, 138752, Note_off_c, 0, 75, 67
2, 138752, Note_on_c, 0, 63, 67
2, 138752, Note_on_c, 0, 67, 67
2, 138880, Note_off_c, 0, 67, 67
2, 138880, Note_on_c, 0, 68, 67
2, 139008, Note_off_c, 0, 63, 67
2, 139008, Note_off_c, 0, 68, 67
2, 139008, Note_on_c, 0, 65, 67
2, 139008, Note_on_c, 0, 70, 67
2, 139136, Note_off_c, 0, 70, 67
2, 139136, Note_on_c, 0, 72, 67
2, 139264, Note_off_c, 0, 65, 67
2, 139264, Note_off_c, 0, 72, 67
2, 139264, Note_on_c, 0, 79, 67
2, 139776, Note_off_c, 0, 79, 67
2, 139776, Note_on_c, 0, 82, 67
2, 140032, Control_c, 0, 93, 0
2, 140032, Note_on_c, 0, 68, 67
2, 140160, Note_off_c, 0, 68, 67
2, 140160, Note_on_c, 0, 70, 67
2, 140288, Note_off_c, 0, 70, 67
2, 140288, Note_off_c, 0, 82, 67
2, 140288, Note_on_c, 0, 72, 67
2, 140288, Note_on_c, 0, 80, 67
2, 140416, Note_off_c, 0, 72, 67
2, 140416, Note_off_c, 0, 80, 67
2, 140416, Note_on_c, 0, 70, 67
2, 140416, Note_on_c, 0, 82, 67
2, 140544, Note_off_c, 0, 70, 67
2, 140544, Note_off_c, 0, 82, 67
2, 140544, Note_on_c, 0, 68, 67
2, 140544, Note_on_c, 0, 80, 67
2, 140672, Note_off_c, 0, 80, 67
2, 140672, Note_on_c, 0, 79, 67
2, 140800, Note_off_c, 0, 68, 67
2, 140800, Note_off_c, 0, 79, 67
2, 140800, Note_on_c, 0, 65, 67
2, 140800, Note_on_c, 0, 77, 67
2, 140928, Note_off_c, 0, 65, 67
2, 140928, Note_on_c, 0, 67, 67
2, 141056, Note_off_c, 0, 67, 67
2, 141056, Note_on_c, 0, 68, 67
2, 141184, Note_off_c, 0, 68, 67
2, 141184, Note_on_c, 0, 70, 67
2, 141312, Note_off_c, 0, 70, 67
2, 141312, Note_off_c, 0, 77, 67
2, 141312, Note_on_c, 0, 68, 67
2, 141312, Note_on_c, 0, 74, 67
2, 141440, Note_off_c, 0, 68, 67
2, 141440, Note_on_c, 0, 67, 67
2, 141568, Note_off_c, 0, 67, 67
2, 141568, Note_on_c, 0, 65, 67
2, 141824, Note_off_c, 0, 65, 67
2, 141824, Note_off_c, 0, 74, 67
2, 141824, Note_on_c, 0, 77, 67
2, 142080, Control_c, 0, 93, 0
2, 142080, Note_on_c, 0, 65, 67
2, 142208, Note_off_c, 0, 65, 67
2, 142208, Note_on_c, 0, 70, 67
2, 142336, Note_off_c, 0, 70, 67
2, 142336, Note_off_c, 0, 77, 67
2, 142336, Note_on_c, 0, 67, 67
2, 142336, Note_on_c, 0, 79, 67
2, 142464, Note_off_c, 0, 67, 67
2, 142464, Note_off_c, 0, 79, 67
2, 142464, Note_on_c, 0, 68, 67
2, 142464, Note_on_c, 0, 80, 67
2, 142592, Note_off_c, 0, 68, 67
2, 142592, Note_off_c, 0, 80, 67
2, 142592, Note_on_c, 0, 70, 67
2, 142592, Note_on_c, 0, 79, 67
2, 142720, Note_off_c, 0, 70, 67
2, 142720, Note_off_c, 0, 79, 67
2, 142720, Note_on_c, 0, 72, 67
2, 142720, Note_on_c, 0, 77, 67
2, 142848, Note_off_c, 0, 72, 67
2, 142848, Note_off_c, 0, 77, 67
2, 142848, Note_on_c, 0, 70, 67
2, 142848, Note_on_c, 0, 75, 67
2, 143360, Note_off_c, 0, 70, 67
2, 143360, Note_off_c, 0, 75, 67
2, 143360, Note_on_c, 0, 75, 67
2, 143360, Note_on_c, 0, 79, 67
2, 143488, Note_off_c, 0, 75, 67
2, 143488, Note_on_c, 0, 74, 67
2, 143616, Note_off_c, 0, 74, 67
2, 143616, Note_on_c, 0, 72, 67
2, 143872, Note_off_c, 0, 72, 67
2, 143872, Note_off_c, 0, 79, 67
2, 143872, Note_on_c, 0, 70, 67
2, 143872, Note_on_c, 0, 82, 67
2, 144000, Note_off_c, 0, 70, 67
2, 144000, Note_on_c, 0, 72, 67
2, 144128, Note_off_c, 0, 72, 67
2, 144128, Note_on_c, 0, 74, 67
2, 144256, Note_off_c, 0, 74, 67
2, 144256, Note_on_c, 0, 75, 67
2, 144384, Note_off_c, 0, 75, 67
2, 144384, Note_off_c, 0, 82, 67
2, 144384, Note_on_c, 0, 77, 67
2, 144384, Note_on_c, 0, 80, 67
2, 144512, Note_off_c, 0, 77, 67
2, 144512, Note_off_c, 0, 80, 67
2, 144512, Note_on_c, 0, 75, 67
2, 144512, Note_on_c, 0, 79, 67
2, 144640, Note_off_c, 0, 75, 67
2, 144640, Note_off_c, 0, 79, 67
2, 144640, Note_on_c, 0, 74, 67
2, 144640, Note_on_c, 0, 80, 67
2, 144768, Note_off_c, 0, 80, 67
2, 144768, Note_on_c, 0, 82, 67
2, 144896, Note_off_c, 0, 74, 67
2, 144896, Note_off_c, 0, 82, 67
2, 144896, Note_on_c, 0, 72, 67
2, 144896, Note_on_c, 0, 84, 67
2, 145024, Note_off_c, 0, 72, 67
2, 145024, Note_on_c, 0, 74, 67
2, 145152, Note_off_c, 0, 74, 67
2, 145152, Note_on_c, 0, 75, 67
2, 145280, Note_off_c, 0, 75, 67
2, 145280, Note_on_c, 0, 77, 67
2, 145408, Note_off_c, 0, 77, 67
2, 145408, Note_off_c, 0, 84, 67
2, 145408, Note_on_c, 0, 74, 67
2, 145408, Note_on_c, 0, 82, 67
2, 145536, Note_off_c, 0, 74, 67
2, 145536, Note_on_c, 0, 72, 67
2, 145664, Note_off_c, 0, 72, 67
2, 145664, Note_off_c, 0, 82, 67
2, 145664, Note_on_c, 0, 70, 67
2, 145664, Note_on_c, 0, 80, 67
2, 145792, Note_off_c, 0, 80, 67
2, 145792, Note_on_c, 0, 79, 67
2, 145920, Note_off_c, 0, 70, 67
2, 145920, Note_off_c, 0, 79, 67
2, 145920, Note_on_c, 0, 68, 67
2, 145920, Note_on_c, 0, 80, 67
2, 146048, Note_off_c, 0, 68, 67
2, 146048, Note_on_c, 0, 70, 67
2, 146176, Note_off_c, 0, 70, 67
2, 146176, Note_on_c, 0, 72, 67
2, 146304, Note_off_c, 0, 72, 67
2, 146304, Note_on_c, 0, 68, 67
2, 146432, Note_off_c, 0, 68, 67
2, 146432, Note_off_c, 0, 80, 67
2, 146432, Note_on_c, 0, 70, 67
2, 146432, Note_on_c, 0, 79, 67
2, 146560, Note_off_c, 0, 70, 67
2, 146560, Note_off_c, 0, 79, 67
2, 146560, Note_on_c, 0, 68, 67
2, 146560, Note_on_c, 0, 80, 67
2, 146688, Note_off_c, 0, 68, 67
2, 146688, Note_off_c, 0, 80, 67
2, 146688, Note_on_c, 0, 67, 67
2, 146688, Note_on_c, 0, 79, 67
2, 146816, Note_off_c, 0, 67, 67
2, 146816, Note_off_c, 0, 79, 67
2, 146816, Note_on_c, 0, 65, 67
2, 146816, Note_on_c, 0, 77, 67
2, 146944, Note_off_c, 0, 65, 67
2, 146944, Note_off_c, 0, 77, 67
2, 146944, Note_on_c, 0, 63, 67
2, 146944, Note_on_c, 0, 75, 67
2, 147072, Note_off_c, 0, 63, 67
2, 147072, Note_on_c, 0, 65, 67
2, 147200, Note_off_c, 0, 65, 67
2, 147200, Note_on_c, 0, 67, 67
2, 147328, Note_off_c, 0, 67, 67
2, 147328, Note_on_c, 0, 68, 67
2, 147456, Note_off_c, 0, 68, 67
2, 147456, Note_off_c, 0, 75, 67
2, 147456, Time_signature, 4, 2, 24, 8
2, 147456, Key_signature, -3, "major"
2, 147456, Note_on_c, 0, 67, 67
2, 147456, Note_on_c, 0, 75, 67
2, 147584, Note_off_c, 0, 67, 67
2, 147584, Note_off_c, 0, 75, 67
2, 147584, Note_on_c, 0, 66, 67
2, 147584, Note_on_c, 0, 70, 67
2, 147712, Note_off_c, 0, 66, 67
2, 147712, Note_off_c, 0, 70, 67
2, 147712, Note_on_c, 0, 67, 67
2, 147712, Note_on_c, 0, 75, 67
2, 147840, Note_off_c, 0, 67, 67
2, 147840, Note_off_c, 0, 75, 67
2, 147840, Note_on_c, 0, 75, 67
2, 147840, Note_on_c, 0, 82, 67
2, 148096, Note_off_c, 0, 75, 67
2, 148096, Note_off_c, 0, 82, 67
2, 148096, Note_on_c, 0, 74, 67
2, 148096, Note_on_c, 0, 80, 67
2, 148224, Note_off_c, 0, 74, 67
2, 148224, Note_on_c, 0, 72, 67
2, 148352, Note_off_c, 0, 72, 67
2, 148352, Note_off_c, 0, 80, 67
2, 148352, Note_on_c, 0, 70, 67
2, 148352, Note_on_c, 0, 79, 67
2, 148480, Note_off_c, 0, 70, 67
2, 148480, Note_off_c, 0, 79, 67
2, 148480, Note_on_c, 0, 72, 67
2, 148480, Note_on_c, 0, 77, 67
2, 148608, Note_off_c, 0, 72, 67
2, 148608, Note_off_c, 0, 77, 67
2, 148608, Note_on_c, 0, 70, 67
2, 148608, Note_on_c, 0, 74, 67
2, 148736, Note_off_c, 0, 70, 67
2, 148736, Note_on_c, 0, 68, 67
2, 148864, Note_off_c, 0, 68, 67
2, 148864, Note_on_c, 0, 67, 67
2, 148992, Note_off_c, 0, 67, 67
2, 148992, Note_off_c, 0, 74, 67
2, 148992, Note_on_c, 0, 65, 67
2, 148992, Note_on_c, 0, 70, 67
2, 149120, Note_off_c, 0, 65, 67
2, 149120, Note_on_c, 0, 67, 67
2, 149248, Note_off_c, 0, 67, 67
2, 149248, Note_off_c, 0, 70, 67
2, 149248, Note_on_c, 0, 65, 67
2, 149248, Note_on_c, 0, 68, 67
2, 149376, Note_off_c, 0, 68, 67
2, 149376, Note_on_c, 0, 70, 67
2, 149504, Note_off_c, 0, 65, 67
2, 149504, Note_off_c, 0, 70, 67
2, 149504, Note_on_c, 0, 70, 67
2, 149504, Note_on_c, 0, 74, 67
2, 149632, Note_off_c, 0, 70, 67
2, 149632, Note_off_c, 0, 74, 67
2, 149632, Note_on_c, 0, 65, 67
2, 149632, Note_on_c, 0, 70, 67
2, 149760, Note_off_c, 0, 65, 67
2, 149760, Note_off_c, 0, 70, 67
2, 149760, Note_on_c, 0, 70, 67
2, 149760, Note_on_c, 0, 74, 67
2, 149888, Note_off_c, 0, 70, 67
2, 149888, Note_off_c, 0, 74, 67
2, 149888, Note_on_c, 0, 74, 67
2, 149888, Note_on_c, 0, 79, 67
2, 150144, Note_off_c, 0, 74, 67
2, 150144, Note_off_c, 0, 79, 67
2, 150144, Note_on_c, 0, 72, 67
2, 150144, Note_on_c, 0, 77, 67
2, 150272, Note_off_c, 0, 72, 67
2, 150272, Note_on_c, 0, 70, 67
2, 150400, Note_off_c, 0, 70, 67
2, 150400, Note_off_c, 0, 77, 67
2, 150400, Note_on_c, 0, 68, 67
2, 150400, Note_on_c, 0, 74, 67
2, 150528, Note_off_c, 0, 68, 67
2, 150528, Note_off_c, 0, 74, 67
2, 150528, Note_on_c, 0, 67, 67
2, 150528, Note_on_c, 0, 75, 67
2, 150656, Note_off_c, 0, 67, 67
2, 150656, Note_off_c, 0, 75, 67
2, 150656, Note_on_c, 0, 70, 67
2, 150656, Note_on_c, 0, 79, 67
2, 150784, Note_off_c, 0, 70, 67
2, 150784, Note_on_c, 0, 72, 67
2, 150912, Note_off_c, 0, 72, 67
2, 150912, Note_on_c, 0, 74, 67
2, 151040, Note_off_c, 0, 74, 67
2, 151040, Note_off_c, 0, 79, 67
2, 151040, Note_on_c, 0, 70, 67
2, 151040, Note_on_c, 0, 75, 67
2, 151168, Note_off_c, 0, 75, 67
2, 151168, Note_on_c, 0, 74, 67
2, 151296, Note_off_c, 0, 70, 67
2, 151296, Note_off_c, 0, 74, 67
2, 151296, Note_on_c, 0, 65, 67
2, 151296, Note_on_c, 0, 72, 67
2, 151424, Note_off_c, 0, 72, 67
2, 151424, Note_on_c, 0, 70, 67
2, 151552, Note_off_c, 0, 65, 67
2, 151552, Note_off_c, 0, 70, 67
2, 151552, Note_on_c, 0, 67, 67
2, 151552, Note_on_c, 0, 75, 67
2, 151680, Note_off_c, 0, 67, 67
2, 151680, Note_off_c, 0, 75, 67
2, 151680, Note_on_c, 0, 66, 67
2, 151680, Note_on_c, 0, 70, 67
2, 151808, Note_off_c, 0, 66, 67
2, 151808, Note_off_c, 0, 70, 67
2, 151808, Note_on_c, 0, 67, 67
2, 151808, Note_on_c, 0, 75, 67
2, 151936, Note_off_c, 0, 67, 67
2, 151936, Note_off_c, 0, 75, 67
2, 151936, Note_on_c, 0, 75, 67
2, 151936, Note_on_c, 0, 82, 67
2, 152192, Note_off_c, 0, 75, 67
2, 152192, Note_off_c, 0, 82, 67
2, 152192, Note_on_c, 0, 74, 67
2, 152192, Note_on_c, 0, 80, 67
2, 152320, Note_off_c, 0, 74, 67
2, 152320, Note_on_c, 0, 72, 67
2, 152448, Note_off_c, 0, 72, 67
2, 152448, Note_off_c, 0, 80, 67
2, 152448, Note_on_c, 0, 70, 67
2, 152448, Note_on_c, 0, 79, 67
2, 152576, Note_off_c, 0, 70, 67
2, 152576, Note_off_c, 0, 79, 67
2, 152576, Note_on_c, 0, 72, 67
2, 152576, Note_on_c, 0, 77, 67
2, 152704, Note_off_c, 0, 72, 67
2, 152704, Note_off_c, 0, 77, 67
2, 152704, Note_on_c, 0, 70, 67
2, 152704, Note_on_c, 0, 74, 67
2, 152832, Note_off_c, 0, 70, 67
2, 152832, Note_on_c, 0, 68, 67
2, 152960, Note_off_c, 0, 68, 67
2, 152960, Note_on_c, 0, 67, 67
2, 153088, Note_off_c, 0, 67, 67
2, 153088, Note_off_c, 0, 74, 67
2, 153088, Note_on_c, 0, 65, 67
2, 153088, Note_on_c, 0, 70, 67
2, 153216, Note_off_c, 0, 65, 67
2, 153216, Note_on_c, 0, 67, 67
2, 153344, Note_off_c, 0, 67, 67
2, 153344, Note_off_c, 0, 70, 67
2, 153344, Note_on_c, 0, 65, 67
2, 153344, Note_on_c, 0, 68, 67
2, 153472, Note_off_c, 0, 68, 67
2, 153472, Note_on_c, 0, 70, 67
2, 153600, Note_off_c, 0, 65, 67
2, 153600, Note_off_c, 0, 70, 67
2, 153600, Note_on_c, 0, 70, 67
2, 153600, Note_on_c, 0, 74, 67
2, 153728, Note_off_c, 0, 70, 67
2, 153728, Note_off_c, 0, 74, 67
2, 153728, Note_on_c, 0, 65, 67
2, 153728, Note_on_c, 0, 70, 67
2, 153856, Note_off_c, 0, 65, 67
2, 153856, Note_off_c, 0, 70, 67
2, 153856, Note_on_c, 0, 70, 67
2, 153856, Note_on_c, 0, 74, 67
2, 153984, Note_off_c, 0, 70, 67
2, 153984, Note_off_c, 0, 74, 67
2, 153984, Note_on_c, 0, 74, 67
2, 153984, Note_on_c, 0, 79, 67
2, 154240, Note_off_c, 0, 74, 67
2, 154240, Note_off_c, 0, 79, 67
2, 154240, Note_on_c, 0, 72, 67
2, 154240, Note_on_c, 0, 77, 67
2, 154368, Note_off_c, 0, 72, 67
2, 154368, Note_on_c, 0, 70, 67
2, 154496, Note_off_c, 0, 70, 67
2, 154496, Note_off_c, 0, 77, 67
2, 154496, Note_on_c, 0, 68, 67
2, 154496, Note_on_c, 0, 74, 67
2, 154624, Note_off_c, 0, 68, 67
2, 154624, Note_off_c, 0, 74, 67
2, 154624, Note_on_c, 0, 67, 67
2, 154624, Note_on_c, 0, 75, 67
2, 154752, Note_off_c, 0, 67, 67
2, 154752, Note_on_c, 0, 65, 67
2, 154880, Note_off_c, 0, 65, 67
2, 154880, Note_on_c, 0, 63, 67
2, 155008, Note_off_c, 0, 63, 67
2, 155008, Note_on_c, 0, 65, 67
2, 155136, Note_off_c, 0, 65, 67
2, 155136, Note_off_c, 0, 75, 67
2, 155136, Note_on_c, 0, 63, 67
2, 155136, Note_on_c, 0, 67, 67
2, 155264, Note_off_c, 0, 67, 67
2, 155264, Note_on_c, 0, 68, 67
2, 155392, Note_off_c, 0, 63, 67
2, 155392, Note_off_c, 0, 68, 67
2, 155392, Note_on_c, 0, 65, 67
2, 155392, Note_on_c, 0, 70, 67
2, 155520, Note_off_c, 0, 70, 67
2, 155520, Note_on_c, 0, 72, 67
2, 155648, Note_off_c, 0, 65, 67
2, 155648, Note_off_c, 0, 72, 67
2, 155648, Note_on_c, 0, 79, 67
2, 156160, Note_off_c, 0, 79, 67
2, 156160, Note_on_c, 0, 82, 67
2, 156416, Control_c, 0, 93, 0
2, 156416, Note_on_c, 0, 68, 67
2, 156544, Note_off_c, 0, 68, 67
2, 156544, Note_on_c, 0, 70, 67
2, 156672, Note_off_c, 0, 70, 67
2, 156672, Note_off_c, 0, 82, 67
2, 156672, Note_on_c, 0, 72, 67
2, 156672, Note_on_c, 0, 80, 67
2, 156800, Note_off_c, 0, 72, 67
2, 156800, Note_off_c, 0, 80, 67
2, 156800, Note_on_c, 0, 70, 67
2, 156800, Note_on_c, 0, 82, 67
2, 156928, Note_off_c, 0, 70, 67
2, 156928, Note_off_c, 0, 82, 67
2, 156928, Note_on_c, 0, 68, 67
2, 156928, Note_on_c, 0, 80, 67
2, 157056, Note_off_c, 0, 80, 67
2, 157056, Note_on_c, 0, 79, 67
2, 157184, Note_off_c, 0, 68, 67
2, 157184, Note_off_c, 0, 79, 67
2, 157184, Note_on_c, 0, 65, 67
2, 157184, Note_on_c, 0, 77, 67
2, 157312, Note_off_c, 0, 65, 67
2, 157312, Note_on_c, 0, 67, 67
2, 157440, Note_off_c, 0, 67, 67
2, 157440, Note_on_c, 0, 68, 67
2, 157568, Note_off_c, 0, 68, 67
2, 157568, Note_on_c, 0, 70, 67
2, 157696, Note_off_c, 0, 70, 67
2, 157696, Note_off_c, 0, 77, 67
2, 157696, Note_on_c, 0, 68, 67
2, 157696, Note_on_c, 0, 74, 67
2, 157824, Note_off_c, 0, 68, 67
2, 157824, Note_on_c, 0, 67, 67
2, 157952, Note_off_c, 0, 67, 67
2, 157952, Note_on_c, 0, 65, 67
2, 158208, Note_off_c, 0, 65, 67
2, 158208, Note_off_c, 0, 74, 67
2, 158208, Note_on_c, 0, 77, 67
2, 158464, Control_c, 0, 93, 0
2, 158464, Note_on_c, 0, 65, 67
2, 158592, Note_off_c, 0, 65, 67
2, 158592, Note_on_c, 0, 70, 67
2, 158720, Note_off_c, 0, 70, 67
2, 158720, Note_off_c, 0, 77, 67
2, 158720, Note_on_c, 0, 67, 67
2, 158720, Note_on_c, 0, 79, 67
2, 158848, Note_off_c, 0, 67, 67
2, 158848, Note_off_c, 0, 79, 67
2, 158848, Note_on_c, 0, 68, 67
2, 158848, Note_on_c, 0, 80, 67
2, 158976, Note_off_c, 0, 68, 67
2, 158976, Note_off_c, 0, 80, 67
2, 158976, Note_on_c, 0, 70, 67
2, 158976, Note_on_c, 0, 79, 67
2, 159104, Note_off_c, 0, 70, 67
2, 159104, Note_off_c, 0, 79, 67
2, 159104, Note_on_c, 0, 72, 67
2, 159104, Note_on_c, 0, 77, 67
2, 159232, Note_off_c, 0, 72, 67
2, 159232, Note_off_c, 0, 77, 67
2, 159232, Note_on_c, 0, 70, 67
2, 159232, Note_on_c, 0, 75, 67
2, 159744, Note_off_c, 0, 70, 67
2, 159744, Note_off_c, 0, 75, 67
2, 159744, Note_on_c, 0, 75, 67
2, 159744, Note_on_c, 0, 79, 67
2, 159872, Note_off_c, 0, 75, 67
2, 159872, Note_on_c, 0, 74, 67
2, 160000, Note_off_c, 0, 74, 67
2, 160000, Note_on_c, 0, 72, 67
2, 160256, Note_off_c, 0, 72, 67
2, 160256, Note_off_c, 0, 79, 67
2, 160256, Note_on_c, 0, 70, 67
2, 160256, Note_on_c, 0, 82, 67
2, 160384, Note_off_c, 0, 70, 67
2, 160384, Note_on_c, 0, 72, 67
2, 160512, Note_off_c, 0, 72, 67
2, 160512, Note_on_c, 0, 74, 67
2, 160640, Note_off_c, 0, 74, 67
2, 160640, Note_on_c, 0, 75, 67
2, 160768, Note_off_c, 0, 75, 67
2, 160768, Note_off_c, 0, 82, 67
2, 160768, Note_on_c, 0, 77, 67
2, 160768, Note_on_c, 0, 80, 67
2, 160896, Note_off_c, 0, 77, 67
2, 160896, Note_off_c, 0, 80, 67
2, 160896, Note_on_c, 0, 75, 67
2, 160896, Note_on_c, 0, 79, 67
2, 161024, Note_off_c, 0, 75, 67
2, 161024, Note_off_c, 0, 79, 67
2, 161024, Note_on_c, 0, 74, 67
2, 161024, Note_on_c, 0, 80, 67
2, 161152, Note_off_c, 0, 80, 67
2, 161152, Note_on_c, 0, 82, 67
2, 161280, Note_off_c, 0, 74, 67
2, 161280, Note_off_c, 0, 82, 67
2, 161280, Note_on_c, 0, 72, 67
2, 161280, Note_on_c, 0, 84, 67
2, 161408, Note_off_c, 0, 72, 67
2, 161408, Note_on_c, 0, 74, 67
2, 161536, Note_off_c, 0, 74, 67
2, 161536, Note_on_c, 0, 75, 67
2, 161664, Note_off_c, 0, 75, 67
2, 161664, Note_on_c, 0, 77, 67
2, 161792, Note_off_c, 0, 77, 67
2, 161792, Note_off_c, 0, 84, 67
2, 161792, Note_on_c, 0, 74, 67
2, 161792, Note_on_c, 0, 82, 67
2, 161920, Note_off_c, 0, 74, 67
2, 161920, Note_on_c, 0, 72, 67
2, 162048, Note_off_c, 0, 72, 67
2, 162048, Note_off_c, 0, 82, 67
2, 162048, Note_on_c, 0, 70, 67
2, 162048, Note_on_c, 0, 80, 67
2, 162176, Note_off_c, 0, 80, 67
2, 162176, Note_on_c, 0, 79, 67
2, 162304, Note_off_c, 0, 70, 67
2, 162304, Note_off_c, 0, 79, 67
2, 162304, Note_on_c, 0, 68, 67
2, 162304, Note_on_c, 0, 80, 67
2, 162432, Note_off_c, 0, 68, 67
2, 162432, Note_on_c, 0, 70, 67
2, 162560, Note_off_c, 0, 70, 67
2, 162560, Note_on_c, 0, 72, 67
2, 162688, Note_off_c, 0, 72, 67
2, 162688, Note_on_c, 0, 68, 67
2, 162816, Note_off_c, 0, 68, 67
2, 162816, Note_off_c, 0, 80, 67
2, 162816, Note_on_c, 0, 70, 67
2, 162816, Note_on_c, 0, 79, 67
2, 162944, Note_off_c, 0, 70, 67
2, 162944, Note_off_c, 0, 79, 67
2, 162944, Note_on_c, 0, 68, 67
2, 162944, Note_on_c, 0, 80, 67
2, 163072, Note_off_c, 0, 68, 67
2, 163072, Note_off_c, 0, 80, 67
2, 163072, Note_on_c, 0, 67, 67
2, 163072, Note_on_c, 0, 79, 67
2, 163200, Note_off_c, 0, 67, 67
2, 163200, Note_off_c, 0, 79, 67
2, 163200, Note_on_c, 0, 65, 67
2, 163200, Note_on_c, 0, 77, 67
2, 163328, Note_off_c, 0, 65, 67
2, 163328, Note_off_c, 0, 77, 67
2, 163328, Note_on_c, 0, 63, 67
2, 163328, Note_on_c, 0, 75, 67
2, 163456, Note_off_c, 0, 63, 67
2, 163456, Note_on_c, 0, 65, 67
2, 163584, Note_off_c, 0, 65, 67
2, 163584, Note_on_c, 0, 67, 67
2, 163712, Note_off_c, 0, 67, 67
2, 163712, Note_on_c, 0, 68, 67
2, 163840, Note_off_c, 0, 68, 67
2, 163840, Note_off_c, 0, 75, 67
2, 163840, Time_signature, 4, 2, 24, 8
2, 163840, Key_signature, -3, "major"
2, 163840, Note_on_c, 0, 67, 67
2, 163840, Note_on_c, 0, 75, 67
2, 163968, Note_off_c, 0, 67, 67
2, 163968, Note_off_c, 0, 75, 67
2, 163968, Note_on_c, 0, 66, 67
2, 163968, Note_on_c, 0, 70, 67
2, 164096, Note_off_c, 0, 66, 67
2, 164096, Note_off_c, 0, 70, 67
2, 164096, Note_on_c, 0, 67, 67
2, 164096, Note_on_c, 0, 75, 67
2, 164224, Note_off_c, 0, 67, 67
2, 164224, Note_off_c, 0, 75, 67
2, 164224, Note_on_c, 0, 75, 67
2, 164224, Note_on_c, 0, 82, 67
2, 164480, Note_off_c, 0, 75, 67
2, 164480, Note_off_c, 0, 82, 67
2, 164480, Note_on_c, 0, 74, 67
2, 164480, Note_on_c, 0, 80, 67
2, 164608, Note_off_c, 0, 74, 67
2, 164608, Note_on_c, 0, 72, 67
2, 164736, Note_off_c, 0, 72, 67
2, 164736, Note_off_c, 0, 80, 67
2, 164736, Note_on_c, 0, 70, 67
2, 164736, Note_on_c, 0, 79, 67
2, 164864, Note_off_c, 0, 70, 67
2, 164864, Note_off_c, 0, 79, 67
2, 164864, Note_on_c, 0, 72, 67
2, 164864, Note_on_c, 0, 77, 67
2, 164992, Note_off_c, 0, 72, 67
2, 164992, Note_off_c, 0, 77, 67
2, 164992, Note_on_c, 0, 70, 67
2, 164992, Note_on_c, 0, 74, 67
2, 165120, Note_off_c, 0, 70, 67
2, 165120, Note_on_c, 0, 68, 67
2, 165248, Note_off_c, 0, 68, 67
2, 165248, Note_on_c, 0, 67, 67
2, 165376, Note_off_c, 0, 67, 67
2, 165376, Note_off_c, 0, 74, 67
2, 165376, Note_on_c, 0, 65, 67
2, 165376, Note_on_c, 0, 70, 67
2, 165504, Note_off_c, 0, 65, 67
2, 165504, Note_on_c, 0, 67, 67
2, 165632, Note_off_c, 0, 67, 67
2, 165632, Note_off_c, 0, 70, 67
2, 165632, Note_on_c, 0, 65, 67
2, 165632, Note_on_c, 0, 68, 67
2, 165760, Note_off_c, 0, 68, 67
2, 165760, Note_on_c, 0, 70, 67
2, 165888, Note_off_c, 0, 65, 67
2, 165888, Note_off_c, 0, 70, 67
2, 165888, Note_on_c, 0, 70, 67
2, 165888, Note_on_c, 0, 74, 67
2, 166016, Note_off_c, 0, 70, 67
2, 166016, Note_off_c, 0, 74, 67
2, 166016, Note_on_c, 0, 65, 67
2, 166016, Note_on_c, 0, 70, 67
2, 166144, Note_off_c, 0, 65, 67
2, 166144, Note_off_c, 0, 70, 67
2, 166144, Note_on_c, 0, 70, 67
2, 166144, Note_on_c, 0, 74, 67
2, 166272, Note_off_c, 0, 70, 67
2, 166272, Note_off_c, 0, 74, 67
2, 166272, Note_on_c, 0, 74, 67
2, 166272, Note_on_c, 0, 79, 67
2, 166528, Note_off_c, 0, 74, 67
2, 166528, Note_off_c, 0, 79, 67
2, 166528, Note_on_c, 0, 72, 67
2, 166528, Note_on_c, 0, 77, 67
2, 166656, Note_off_c, 0, 72, 67
2, 166656, Note_on_c, 0, 70, 67
2, 166784, Note_off_c, 0, 70, 67
2, 166784, Note_off_c, 0, 77, 67
2, 166784, Note_on_c, 0, 68, 67
2, 166784, Note_on_c, 0, 74, 67
2, 166912, Note_off_c, 0, 68, 67
2, 166912, Note_off_c, 0, 74, 67
2, 166912, Note_on_c, 0, 67, 67
2, 166912, Note_on_c, 0, 75, 67
2, 167040, Note_off_c, 0, 67, 67
2, 167040, Note_off_c, 0, 75, 67
2, 167040, Note_on_c, 0, 70, 67
2, 167040, Note_on_c, 0, 79, 67
2, 167168, Note_off_c, 0, 70, 67
2, 167168, Note_on_c, 0, 72, 67
2, 167296, Note_off_c, 0, 72, 67
2, 167296, Note_on_c, 0, 74, 67
2, 167424, Note_off_c, 0, 74, 67
2, 167424, Note_off_c, 0, 79, 67
2, 167424, Note_on_c, 0, 70, 67
2, 167424, Note_on_c, 0, 75, 67
2, 167552, Note_off_c, 0, 75, 67
2, 167552, Note_on_c, 0, 74, 67
2, 167680, Note_off_c, 0, 70, 67
2, 167680, Note_off_c, 0, 74, 67
2, 167680, Note_on_c, 0, 65, 67
2, 167680, Note_on_c, 0, 72, 67
2, 167808, Note_off_c, 0, 72, 67
2, 167808, Note_on_c, 0, 70, 67
2, 167936, Note_off_c, 0, 65, 67
2, 167936, Note_off_c, 0, 70, 67
2, 167936, Note_on_c, 0, 67, 67
2, 167936, Note_on_c, 0, 75, 67
2, 168064, Note_off_c, 0, 67, 67
2, 168064, Note_off_c, 0, 75, 67
2, 168064, Note_on_c, 0, 66, 67
2, 168064, Note_on_c, 0, 70, 67
2, 168192, Note_off_c, 0, 66, 67
2, 168192, Note_off_c, 0, 70, 67
2, 168192, Note_on_c, 0, 67, 67
2, 168192, Note_on_c, 0, 75, 67
2, 168320, Note_off_c, 0, 67, 67
2, 168320, Note_off_c, 0, 75, 67
2, 168320, Note_on_c, 0, 75, 67
2, 168320, Note_on_c, 0, 82, 67
2, 168576, Note_off_c, 0, 75, 67
2, 168576, Note_off_c, 0, 82, 67
2, 168576, Note_on_c, 0, 74, 67
2, 168576, Note_on_c, 0, 80, 67
2, 168704, Note_off_c, 0, 74, 67
2, 168704, Note_on_c, 0, 72, 67
2, 168832, Note_off_c, 0, 72, 67
2, 168832, Note_off_c, 0, 80, 67
2, 168832, Note_on_c, 0, 70, 67
2, 168832, Note_on_c, 0, 79, 67
2, 168960, Note_off_c, 0, 70, 67
2, 168960, Note_off_c, 0, 79, 67
2, 168960, Note_on_c, 0, 72, 67
2, 168960, Note_on_c, 0, 77, 67
2, 169088, Note_off_c, 0, 72, 67
2, 169088, Note_off_c, 0, 77, 67
2, 169088, Note_on_c, 0, 70, 67
2, 169088, Note_on_c, 0, 74, 67
2, 169216, Note_off_c, 0, 70, 67
2, 169216, Note_on_c, 0, 68, 67
2, 169344, Note_off_c, 0, 68, 67
2, 169344, Note_on_c, 0, 67, 67
2, 169472, Note_off_c, 0, 67, 67
2, 169472, Note_off_c, 0, 74, 67
2, 169472, Note_on_c, 0, 65, 67
2, 169472, Note_on_c, 0, 70, 67
2, 169600, Note_off_c, 0, 65, 67
2, 169600, Note_on_c, 0, 67, 67
2, 169728, Note_off_c, 0, 67, 67
2, 169728, Note_off_c, 0, 70, 67
2, 169728, Note_on_c, 0, 65, 67
2, 169728, Note_on_c, 0, 68, 67
2, 169856, Note_off_c, 0, 68, 67
2, 169856, Note_on_c, 0, 70, 67
2, 169984, Note_off_c, 0, 65, 67
2, 169984, Note_off_c, 0, 70, 67
2, 169984, Note_on_c, 0, 70, 67
2, 169984, Note_on_c, 0, 74, 67
2, 170112, Note_off_c, 0, 70, 67
2, 170112, Note_off_c, 0, 74, 67
2, 170112, Note_on_c, 0, 65, 67
2, 170112, Note_on_c, 0, 70, 67
2, 170240, Note_off_c, 0, 65, 67
2, 170240, Note_off_c, 0, 70, 67
2, 170240, Note_on_c, 0, 70, 67
2, 170240, Note_on_c, 0, 74, 67
2, 170368, Note_off_c, 0, 70, 67
2, 170368, Note_off_c, 0, 74, 67
2, 170368, Note_on_c, 0, 74, 67
2, 170368, Note_on_c, 0, 79, 67
2, 170624, Note_off_c, 0, 74, 67
2, 170624, Note_off_c, 0, 79, 67
2, 170624, Note_on_c, 0, 72, 67
2, 170624, Note_on_c, 0, 77, 67
2, 170752, Note_off_c, 0, 72, 67
2, 170752, Note_on_c, 0, 70, 67
2, 170880, Note_off_c, 0, 70, 67
2, 170880, Note_off_c, 0, 77, 67
2, 170880, Note_on_c, 0, 68, 67
2, 170880, Note_on_c, 0, 74, 67
2, 171008, Note_off_c, 0, 68, 67
2, 171008, Note_off_c, 0, 74, 67
2, 171008, Note_on_c, 0, 67, 67
2, 171008, Note_on_c, 0, 75, 67
2, 171136, Note_off_c, 0, 67, 67
2, 171136, Note_on_c, 0, 65, 67
2, 171264, Note_off_c, 0, 65, 67
2, 171264, Note_on_c, 0, 63, 67
2, 171392, Note_off_c, 0, 63, 67
2, 171392, Note_on_c, 0, 65, 67
2, 171520, Note_off_c, 0, 65, 67
2, 171520, Note_off_c, 0, 75, 67
2, 171520, Note_on_c, 0, 63, 67
2, 171520, Note_on_c, 0, 67, 67
2, 171648, Note_off_c, 0, 67, 67
2, 171648, Note_on_c, 0, 68, 67
2, 171776, Note_off_c, 0, 63, 67
2, 171776, Note_off_c, 0, 68, 67
2, 171776, Note_on_c, 0, 65, 67
2, 171776, Note_on_c, 0, 70, 67
2, 171904, Note_off_c, 0, 70, 67
2, 171904, Note_on_c, 0, 72, 67
2, 172032, Note_off_c, 0, 65, 67
2, 172032, Note_off_c, 0, 72, 67
2, 172032, Note_on_c, 0, 79, 67
2, 172544, Note_off_c, 0, 79, 67
2, 172544, Note_on_c, 0, 82, 67
2, 172800, Control_c, 0, 93, 0
2, 172800, Note_on_c, 0, 68, 67
2, 172928, Note_off_c, 0, 68, 67
2, 172928, Note_on_c, 0, 70, 67
2, 173056, Note_off_c, 0, 70, 67
2, 173056, Note_off_c, 0, 82, 67
2, 173056, Note_on_c, 0, 72, 67
2, 173056, Note_on_c, 0, 80, 67
2, 173184, Note_off_c, 0, 72, 67
2, 173184, Note_off_c, 0, 80, 67
2, 173184, Note_on_c, 0, 70, 67
2, 173184, Note_on_c, 0, 82, 67
2, 173312, Note_off_c, 0, 70, 67
2, 173312, Note_off_c, 0, 82, 67
2, 173312, Note_on_c, 0, 68, 67
2, 173312, Note_on_c, 0, 80, 67
2, 173440, Note_off_c, 0, 80, 67
2, 173440, Note_on_c, 0, 79, 67
2, 173568, Note_off_c, 0, 68, 67
2, 173568, Note_off_c, 0, 79, 67
2, 173568, Note_on_c, 0, 65, 67
2, 173568, Note_on_c, 0, 77, 67
2, 173696, Note_off_c, 0, 65, 67
2, 173696, Note_on_c, 0, 67, 67
2, 173824, Note_off_c, 0, 67, 67
2, 173824, Note_on_c, 0, 68, 67
2, 173952, Note_off_c, 0, 68, 67
2, 173952, Note_on_c, 0, 70, 67
2, 174080, Note_off_c, 0, 70, 67
2, 174080, Note_off_c, 0, 77, 67
2, 174080, Note_on_c, 0, 68, 67
2, 174080, Note_on_c, 0, 74, 67
2, 174208, Note_off_c, 0, 68, 67
2, 174208, Note_on_c, 0, 67, 67
2, 174336, Note_off_c, 0, 67, 67
2, 174336, Note_on_c, 0, 65, 67
2, 174592, Note_off_c, 0, 65, 67
2, 174592, Note_off_c, 0, 74, 67
2, 174592, Note_on_c, 0, 77, 67
2, 174848, Control_c, 0, 93, 0
2, 174848, Note_on_c, 0, 65, 67
2, 174976, Note_off_c, 0, 65, 67
2, 174976, Note_on_c, 0, 70, 67
2, 175104, Note_off_c, 0, 70, 67
2, 175104, Note_off_c, 0, 77, 67
2, 175104, Note_on_c, 0, 67, 67
2, 175104, Note_on_c, 0, 79, 67
2, 175232, Note_off_c, 0, 67, 67
2, 175232, Note_off_c, 0, 79, 67
2, 175232, Note_on_c, 0, 68, 67
2, 175232, Note_on_c, 0, 80, 67
2, 175360, Note_off_c, 0, 68, 67
2, 175360, Note_off_c, 0, 80, 67
2, 175360, Note_on_c, 0, 70, 67
2, 175360, Note_on_c, 0, 79, 67
2, 175488, Note_off_c, 0, 70, 67
2, 175488, Note_off_c, 0, 79, 67
2, 175488, Note_on_c, 0, 72, 67
2, 175488, Note_on_c, 0, 77, 67
2, 175616, Note_off_c, 0, 72, 67
2, 175616, Note_off_c, 0, 77, 67
2, 175616, Note_on_c, 0, 70, 67
2, 175616, Note_on_c, 0, 75, 67
2, 176128, Note_off_c, 0, 70, 67
2, 176128, Note_off_c, 0, 75, 67
2, 176128, Note_on_c, 0, 75, 67
2, 176128, Note_on_c, 0, 79, 67
2, 176256, Note_off_c, 0, 75, 67
2, 176256, Note_on_c, 0, 74, 67
2, 176384, Note_off_c, 0, 74, 67
2, 176384, Note_on_c, 0, 72, 67
2, 176640, Note_off_c, 0, 72, 67
2, 176640, Note_off_c, 0, 79, 67
2, 176640, Note_on_c, 0, 70, 67
2, 176640, Note_on_c, 0, 82, 67
2, 176768, Note_off_c, 0, 70, 67
2, 176768, Note_on_c, 0, 72, 67
2, 176896, Note_off_c, 0, 72, 67
2, 176896, Note_on_c, 0, 74, 67
2, 177024, Note_off_c, 0, 74, 67
2, 177024, Note_on_c, 0, 75, 67
2, 177152, Note_off_c, 0, 75, 67
2, 177152, Note_off_c, 0, 82, 67
2, 177152, Note_on_c, 0, 77, 67
2, 177152, Note_on_c, 0, 80, 67
2, 177280, Note_off_c, 0, 77, 67
2, 177280, Note_off_c, 0, 80, 67
2, 177280, Note_on_c, 0, 75, 67
2, 177280, Note_on_c, 0, 79, 67
2, 177408, Note_off_c, 0, 75, 67
2, 177408, Note_off_c, 0, 79, 67
2, 177408, Note_on_c, 0, 74, 67
2, 177408, Note_on_c, 0, 80, 67
2, 177536, Note_off_c, 0, 80, 67
2, 177536, Note_on_c, 0, 82, 67
2, 177664, Note_off_c, 0, 74, 67
2, 177664, Note_off_c, 0, 82, 67
2, 177664, Note_on_c, 0, 72, 67
2, 177664, Note_on_c, 0, 84, 67
2, 177792, Note_off_c, 0, 72, 67
2, 177792, Note_on_c, 0, 74, 67
2, 177920, Note_off_c, 0, 74, 67
2, 177920, Note_on_c, 0, 75, 67
2, 178048, Note_off_c, 0, 75, 67
2, 178048, Note_on_c, 0, 77, 67
2, 178176, Note_off_c, 0, 77, 67
2, 178176, Note_off_c, 0, 84, 67
2, 178176, Note_on_c, 0, 74, 67
2, 178176, Note_on_c, 0, 82, 67
2, 178304, Note_off_c, 0, 74, 67
2, 178304, Note_on_c, 0, 72, 67
2, 178432, Note_off_c, 0, 72, 67
2, 178432, Note_off_c, 0, 82, 67
2, 178432, Note_on_c, 0, 70, 67
2, 178432, Note_on_c, 0, 80, 67
2, 178560, Note_off_c, 0, 80, 67
2, 178560, Note_on_c, 0, 79, 67
2, 178688, Note_off_c, 0, 70, 67
2, 178688, Note_off_c, 0, 79, 67
2, 178688, Note_on_c, 0, 68, 67
2, 178688, Note_on_c, 0, 80, 67
2, 178816, Note_off_c, 0, 68, 67
2, 178816, Note_on_c, 0, 70, 67
2, 178944, Note_off_c, 0, 70, 67
2, 178944, Note_on_c, 0, 72, 67
2, 179072, Note_off_c, 0, 72, 67
2, 179072, Note_on_c, 0, 68, 67
2, 179200, Note_off_c, 0, 68, 67
2, 179200, Note_off_c, 0, 80, 67
2, 179200, Note_on_c, 0, 70, 67
2, 179200, Note_on_c, 0, 79, 67
2, 179328, Note_off_c, 0, 70, 67
2, 179328, Note_off_c, 0, 79, 67
2, 179328, Note_on_c, 0, 68, 67
2, 179328, Note_on_c, 0, 80, 67
2, 179456, Note_off_c, 0, 68, 67
2, 179456, Note_off_c, 0, 80, 67
2, 179456, Note_on_c, 0, 67, 67
2, 179456, Note_on_c, 0, 79, 67
2, 179584, Note_off_c, 0, 67, 67
2, 179584, Note_off_c, 0, 79, 67
2, 179584, Note_on_c, 0, 65, 67
2, 179584, Note_on_c, 0, 77, 67
2, 179712, Note_off_c, 0, 65, 67
2, 179712, Note_off_c, 0, 77, 67
2, 179712, Note_on_c, 0, 63, 67
2, 179712, Note_on_c, 0, 75, 67
2, 179840, Note_off_c, 0, 63, 67
2, 179840, Note_on_c, 0, 65, 67
2, 179968, Note_off_c, 0, 65, 67
2, 179968, Note_on_c, 0, 67, 67
2, 180096, Note_off_c, 0, 67, 67
2, 180096, Note_on_c, 0, 68, 67
2, 180224, Note_off_c, 0, 68, 67
2, 180224, Note_off_c, 0, 75, 67
2, 180224, Time_signature, 4, 2, 24, 8
2, 180224, Key_signature, -3, "major"
2, 180224, Note_on_c, 0, 67, 67
2, 180224, Note_on_c, 0, 75, 67
2, 180352, Note_off_c, 0, 67, 67
2, 180352, Note_off_c, 0, 75, 67
2, 180352, Note_on_c, 0, 66, 67
2, 180352, Note_on_c, 0, 70, 67
2, 180480, Note_off_c, 0, 66, 67
2, 180480, Note_off_c, 0, 70, 67
2, 180480, Note_on_c, 0, 67, 67
2, 180480, Note_on_c, 0, 75, 67
2, 180608, Note_off_c, 0, 67, 67
2, 180608, Note_off_c, 0, 75, 67
2, 180608, Note_on_c, 0, 75, 67
2, 180608, Note_on_c, 0, 82, 67
2, 180864, Note_off_c, 0, 75, 67
2, 180864, Note_off_c, 0, 82, 67
2, 180864, Note_on_c, 0, 74, 67
2, 180864, Note_on_c, 0, 80, 67
2, 180992, Note_off_c, 0, 74, 67
2, 180992, Note_on_c, 0, 72, 67
2, 181120, Note_off_c, 0, 72, 67
2, 181120, Note_off_c, 0, 80, 67
2, 181120, Note_on_c, 0, 70, 67
2, 181120, Note_on_c, 0, 79, 67
2, 181248, Note_off_c, 0, 70, 67
2, 181248, Note_off_c, 0, 79, 67
2, 181248, Note_on_c, 0, 72, 67
2, 181248, Note_on_c, 0, 77, 67
2, 181376, Note_off_c, 0, 72, 67
2, 181376, Note_off_c, 0, 77, 67
2, 181376, Note_on_c, 0, 70, 67
2, 181376, Note_on_c, 0, 74, 67
2, 181504, Note_off_c, 0, 70, 67
2, 181504, Note_on_c, 0, 68, 67
2, 181632, Note_off_c, 0, 68, 67
2, 181632, Note_on_c, 0, 67, 67
2, 181760, Note_off_c, 0, 67, 67
2, 181760, Note_off_c, 0, 74, 67
2, 181760, Note_on_c, 0, 65, 67
2, 181760, Note_on_c, 0, 70, 67
2, 181888, Note_off_c, 0, 65, 67
2, 181888, Note_on_c, 0, 67, 67
2, 182016, Note_off_c, 0, 67, 67
2, 182016, Note_off_c, 0, 70, 67
2, 182016, Note_on_c, 0, 65, 67
2, 182016, Note_on_c, 0, 68, 67
2, 182144, Note_off_c, 0, 68, 67
2, 182144, Note_on_c, 0, 70, 67
2, 182272, Note_off_c, 0, 65, 67
2, 182272, Note_off_c, 0, 70, 67
2, 182272, Note_on_c, 0, 70, 67
2, 182272, Note_on_c, 0, 74, 67
2, 182400, Note_off_c, 0, 70, 67
2, 182400, Note_off_c, 0, 74, 67
2, 182400, Note_on_c, 0, 65, 67
2, 182400, Note_on_c, 0, 70, 67
2, 182528, Note_off_c, 0, 65, 67
2, 182528, Note_off_c, 0, 70, 67
2, 182528, Note_on_c, 0, 70, 67
2, 182528, Note_on_c, 0, 74, 67
2, 182656, Note_off_c, 0, 70, 67
2, 182656, Note_off_c, 0, 74, 67
2, 182656, Note_on_c, 0, 74, 67
2, 182656, Note_on_c, 0, 79, 67
2, 182912, Note_off_c, 0, 74, 67
2, 182912, Note_off_c, 0, 79, 67
2, 182912, Note_on_c, 0, 72, 67
2, 182912, Note_on_c, 0, 77, 67
2, 183040, Note_off_c, 0, 72, 67
2, 183040, Note_on_c, 0, 70, 67
2, 183168, Note_off_c, 0, 70, 67
2, 183168, Note_off_c, 0, 77, 67
2, 183168, Note_on_c, 0, 68, 67
2, 183168, Note_on_c, 0, 74, 67
2, 183296, Note_off_c, 0, 68, 67
2, 183296, Note_off_c, 0, 74, 67
2, 183296, Note_on_c, 0, 67, 67
2, 183296, Note_on_c, 0, 75, 67
2, 183424, Note_off_c, 0, 67, 67
2, 183424, Note_off_c, 0, 75, 67
2, 183424, Note_on_c, 0, 70, 67
2, 183424, Note_on_c, 0, 79, 67
2, 183552, Note_off_c, 0, 70, 67
2, 183552, Note_on_c, 0, 72, 67
2, 183680, Note_off_c, 0, 72, 67
2, 183680, Note_on_c, 0, 74, 67
2, 183808, Note_off_c, 0, 74, 67
2, 183808, Note_off_c, 0, 79, 67
2, 183808, Note_on_c, 0, 70, 67
2, 183808, Note_on_c, 0, 75, 67
2, 183936, Note_off_c, 0, 75, 67
2, 183936, Note_on_c, 0, 74, 67
2, 184064, Note_off_c, 0, 70, 67
2, 184064, Note_off_c, 0, 74, 67
2, 184064, Note_on_c, 0, 65, 67
2, 184064, Note_on_c, 0, 72, 67
2, 184192, Note_off_c, 0, 72, 67
2, 184192, Note_on_c, 0, 70, 67
2, 184320, Note_off_c, 0, 65, 67
2, 184320, Note_off_c, 0, 70, 67
2, 184320, Note_on_c, 0, 67, 67
2, 184320, Note_on_c, 0, 75, 67
2, 184448, Note_off_c, 0, 67, 67
2, 184448, Note_off_c, 0, 75, 67
2, 184448, Note_on_c, 0, 66, 67
2, 184448, Note_on_c, 0, 70, 67
2, 184576, Note_off_c, 0, 66, 67
2, 184576, Note_off_c, 0, 70, 67
2, 184576, Note_on_c, 0, 67, 67
2, 184576, Note_on_c, 0, 75, 67
2, 184704, Note_off_c, 0, 67, 67
2, 184704, Note_off_c, 0, 75, 67
2, 184704, Note_on_c, 0, 75, 67
2, 184704, Note_on_c, 0, 82, 67
2, 184960, Note_off_c, 0, 75, 67
2, 184960, Note_off_c, 0, 82, 67
2, 184960, Note_on_c, 0, 74, 67
2, 184960, Note_on_c, 0, 80, 67
2, 185088, Note_off_c, 0, 74, 67
2, 185088, Note_on_c, 0, 72, 67
2, 185216, Note_off_c, 0, 72, 67
2, 185216, Note_off_c, 0, 80, 67
2, 185216, Note_on_c, 0, 70, 67
2, 185216, Note_on_c, 0, 79, 67
2, 185344, Note_off_c, 0, 70, 67
2, 185344, Note_off_c, 0, 79, 67
2, 185344, Note_on_c, 0, 72, 67
2, 185344, Note_on_c, 0, 77, 67
2, 185472, Note_off_c, 0, 72, 67
2, 185472, Note_off_c, 0, 77, 67
2, 185472, Note_on_c, 0, 70, 67
2, 185472, Note_on_c, 0, 74, 67
2, 185600, Note_off_c, 0, 70, 67
2, 185600, Note_on_c, 0, 68, 67
2, 185728, Note_off_c, 0, 68, 67
2, 185728, Note_on_c, 0, 67, 67
2, 185856, Note_off_c, 0, 67, 67
2, 185856, Note_off_c, 0, 74, 67
2, 185856, Note_on_c, 0, 65, 67
2, 185856, Note_on_c, 0, 70, 67
2, 185984, Note_off_c, 0, 65, 67
2, 185984, Note_on_c, 0, 67, 67
2, 186112, Note_off_c, 0, 67, 67
2, 186112, Note_off_c, 0, 70, 67
2, 186112, Note_on_c, 0, 65, 67
2, 186112, Note_on_c, 0, 68, 67
2, 186240, Note_off_c, 0, 68, 67
2, 186240, Note_on_c, 0, 70, 67
2, 186368, Note_off_c, 0, 65, 67
2, 186368, Note_off_c, 0, 70, 67
2, 186368, Note_on_c, 0, 70, 67
2, 186368, Note_on_c, 0, 74, 67
2, 186496, Note_off_c, 0, 70, 67
2, 186496, Note_off_c, 0, 74, 67
2, 186496, Note_on_c, 0, 65, 67
2, 186496, Note_on_c, 0, 70, 67
2, 186624, Note_off_c, 0, 65, 67
2, 186624, Note_off_c, 0, 70, 67
2, 186624, Note_on_c, 0, 70, 67
2, 186624, Note_on_c, 0, 74, 67
2, 186752, Note_off_c, 0, 70, 67
2, 186752, Note_off_c, 0, 74, 67
2, 186752, Note_on_c, 0, 74, 67
2, 186752, Note_on_c, 0, 79, 67
2, 187008, Note_off_c, 0, 74, 67
2, 187008, Note_off_c, 0, 79, 67
2, 187008, Note_on_c, 0, 72, 67
2, 187008, Note_on_c, 0, 77, 67
2, 187136, Note_off_c, 0, 72, 67
2, 187136, Note_on_c, 0, 70, 67
2, 187264, Note_off_c, 0, 70, 67
2, 187264, Note_off_c, 0, 77, 67
2, 187264, Note_on_c, 0, 68, 67
2, 187264, Note_on_c, 0, 74, 67
2, 187392, Note_off_c, 0, 68, 67
2, 187392, Note_off_c, 0, 74, 67
2, 187392, Note_on_c, 0, 67, 67
2, 187392, Note_on_c, 0, 75, 67
2, 187520, Note_off_c, 0, 67, 67
2, 187520, Note_on_c, 0, 65, 67
2, 187648, Note_off_c, 0, 65, 67
2, 187648, Note_on_c, 0, 63, 67
2, 187776, Note_off_c, 0, 63, 67
2, 187776, Note_on_c, 0, 65, 67
2, 187904, Note_off_c, 0, 65, 67
2, 187904, Note_off_c, 0, 75, 67
2, 187904, Note_on_c, 0, 63, 67
2, 187904, Note_on_c, 0, 67, 67
2, 188032, Note_off_c, 0, 67, 67
2, 188032, Note_on_c, 0, 68, 67
2, 188160, Note_off_c, 0, 63, 67
2, 188160, Note_off_c, 0, 68, 67
2, 188160, Note_on_c, 0, 65, 67
2, 188160, Note_on_c, 0, 70, 67
2, 188288, Note_off_c, 0, 70, 67
2, 188288, Note_on_c, 0, 72, 67
2, 188416, Note_off_c, 0, 65, 67
2, 188416, Note_off_c, 0, 72, 67
2, 188416, Note_on_c, 0, 79, 67
2, 188928, Note_off_c, 0, 79, 67
2, 188928, Note_on_c, 0, 82, 67
2, 189184, Control_c, 0, 93, 0
2, 189184, Note_on_c, 0, 68, 67
2, 189312, Note_off_c, 0, 68, 67
2, 189312, Note_on_c, 0, 70, 67
2, 189440, Note_off_c, 0, 70, 67
2, 189440, Note_off_c, 0, 82, 67
2, 189440, Note_on_c, 0, 72, 67
2, 189440, Note_on_c, 0, 80, 67
2, 189568, Note_off_c, 0, 72, 67
2, 189568, Note_off_c, 0, 80, 67
2, 189568, Note_on_c, 0, 70, 67
2, 189568, Note_on_c, 0, 82, 67
2, 189696, Note_off_c, 0, 70, 67
2, 189696, Note_off_c, 0, 82, 67
2, 189696, Note_on_c, 0, 68, 67
2, 189696, Note_on_c, 0, 80, 67
2, 189824, Note_off_c, 0, 80, 67
2, 189824, Note_on_c, 0, 79, 67
2, 189952, Note_off_c, 0, 68, 67
2, 189952, Note_off_c, 0, 79, 67
2, 189952, Note_on_c, 0, 65, 67
2, 189952, Note_on_c, 0, 77, 67
2, 190080, Note_off_c, 0, 65, 67
2, 190080, Note_on_c, 0, 67, 67
2, 190208, Note_off_c, 0, 67, 67
2, 190208, Note_on_c, 0, 68, 67
2, 190336, Note_off_c, 0, 68, 67
2, 190336, Note_on_c, 0, 70, 67
2, 190464, Note_off_c, 0, 70, 67
2, 190464, Note_off_c, 0, 77, 67
2, 190464, Note_on_c, 0, 68, 67
2, 190464, Note_on_c, 0, 74, 67
2, 190592, Note_off_c, 0, 68, 67
2, 190592, Note_on_c, 0, 67, 67
2, 190720, Note_off_c, 0, 67, 67
2, 190720, Note_on_c, 0, 65, 67
2, 190976, Note_off_c, 0, 65, 67
2, 190976, Note_off_c, 0, 74, 67
2, 190976, Note_on_c, 0, 77, 67
2, 191232, Control_c, 0, 93, 0
2, 191232, Note_on_c, 0, 65, 67
2, 191360, Note_off_c, 0, 65, 67
2, 191360, Note_on_c, 0, 70, 67
2, 191488, Note_off_c, 0, 70, 67
2, 191488, Note_off_c, 0, 77, 67
2, 191488, Note_on_c, 0, 67, 67
2, 191488, Note_on_c, 0, 79, 67
2, 191616, Note_off_c, 0, 67, 67
2, 191616, Note_off_c, 0, 79, 67
2, 191616, Note_on_c, 0, 68, 67
2, 191616, Note_on_c, 0, 80, 67
2, 191744, Note_off_c, 0, 68, 67
2, 191744, Note_off_c, 0, 80, 67
2, 191744, Note_on_c, 0, 70, 67
2, 191744, Note_on_c, 0, 79, 67
2, 191872, Note_off_c, 0, 70, 67
2, 191872, Note_off_c, 0, 79, 67
2, 191872, Note_on_c, 0, 72, 67
2, 191872, Note_on_c, 0, 77, 67
2, 192000, Note_off_c, 0, 72, 67
2, 192000, Note_off_c, 0, 77, 67
2, 192000, Note_on_c, 0, 70, 67
2, 192000, Note_on_c, 0, 75, 67
2, 192512, Note_off_c, 0, 70, 67
2, 192512, Note_off_c, 0, 75, 67
2, 192512, Note_on_c, 0, 75, 67
2, 192512, Note_on_c, 0, 79, 67
2, 192640, Note_off_c, 0, 75, 67
2, 192640, Note_on_c, 0, 74, 67
2, 192768, Note_off_c, 0, 74, 67
2, 192768, Note_on_c, 0, 72, 67
2, 193024, Note_off_c, 0, 72, 67
2, 193024, Note_off_c, 0, 79, 67
2, 193024, Note_on_c, 0, 70, 67
2, 193024, Note_on_c, 0, 82, 67
2, 193152, Note_off_c, 0, 70, 67
2, 193152, Note_on_c, 0, 72, 67
2, 193280, Note_off_c, 0, 72, 67
2, 193280, Note_on_c, 0, 74, 67
2, 193408, Note_off_c, 0, 74, 67
2, 193408, Note_on_c, 0, 75, 67
2, 193536, Note_off_c, 0, 75, 67
2, 193536, Note_off_c, 0, 82, 67
2, 193536, Note_on_c, 0, 77, 67
2, 193536, Note_on_c, 0, 80, 67
2, 193664, Note_off_c, 0, 77, 67
2, 193664, Note_off_c, 0, 80, 67
2, 193664, Note_on_c, 0, 75, 67
2, 193664, Note_on_c, 0, 79, 67
2, 193792, Note_off_c, 0, 75, 67
2, 193792, Note_off_c, 0, 79, 67
2, 193792, Note_on_c, 0, 74, 67
2, 193792, Note_on_c, 0, 80, 67
2, 193920, Note_off_c, 0, 80, 67
2, 193920, Note_on_c, 0, 82, 67
2, 194048, Note_off_c, 0, 74, 67
2, 194048, Note_off_c, 0, 82, 67
2, 194048, Note_on_c, 0, 72, 67
2, 194048, Note_on_c, 0, 84, 67
2, 194176, Note_off_c, 0, 72, 67
2, 194176, Note_on_c, 0, 74, 67
2, 194304, Note_off_c, 0, 74, 67
2, 194304, Note_on_c, 0, 75, 67
2, 194432, Note_off_c, 0, 75, 67
2, 194432, Note_on_c, 0, 77, 67
2, 194560, Note_off_c, 0, 77, 67
2, 194560, Note_off_c, 0, 84, 67
2, 194560, Note_on_c, 0, 74, 67
2, 194560, Note_on_c, 0, 82, 67
2, 194688, Note_off_c, 0, 74, 67
2, 194688, Note_on_c, 0, 72, 67
2, 194816, Note_off_c, 0, 72, 67
2, 194816, Note_off_c, 0, 82, 67
2, 194816, Note_on_c, 0, 70, 67
2, 194816, Note_on_c, 0, 80, 67
2, 194944, Note_off_c, 0, 80, 67
2, 194944, Note_on_c, 0, 79, 67
2, 195072, Note_off_c, 0, 70, 67
2, 195072, Note_off_c, 0, 79, 67
2, 195072, Note_on_c, 0, 68, 67
2, 195072, Note_on_c, 0, 80, 67
2, 195200, Note_off_c, 0, 68, 67
2, 195200, Note_on_c, 0, 70, 67
2, 195328, Note_off_c, 0, 70, 67
2, 195328, Note_on_c, 0, 72, 67
2, 195456, Note_off_c, 0, 72, 67
2, 195456, Note_on_c, 0, 68, 67
2, 195584, Note_off_c, 0, 68, 67
2, 195584, Note_off_c, 0, 80, 67
2, 195584, Note_on_c, 0, 70, 67
2, 195584, Note_on_c, 0, 79, 67
2, 195712, Note_off_c, 0, 70, 67
2, 195712, Note_off_c, 0, 79, 67
2, 195712, Note_on_c, 0, 68, 67
2, 195712, Note_on_c, 0, 80, 67
2, 195840, Note_off_c, 0, 68, 67
2, 195840, Note_off_c, 0, 80, 67
2, 195840, Note_on_c, 0, 67, 67
2, 195840, Note_on_c, 0, 79, 67
2, 195968, Note_off_c, 0, 67, 67
2, 195968, Note_off_c, 0, 79, 67
2, 195968, Note_on_c, 0, 65, 67
2, 195968, Note_on_c, 0, 77, 67
2, 196096, Note_off_c, 0, 65, 67
2, 196096, Note_off_c, 0, 77, 67
2, 196096, Note_on_c, 0, 63, 67
2, 196096, Note_on_c, 0, 75, 67
2, 196224, Note_off_c, 0, 63, 67
2, 196224, Note_on_c, 0, 65, 67
2, 196352, Note_off_c, 0, 65, 67
2, 196352, Note_on_c, 0, 67, 67
2, 196480, Note_off_c, 0, 67, 67
2, 196480, Note_on_c, 0, 68, 67
2, 196608, Note_off_c, 0, 68, 67
2, 196608, Note_off_c, 0, 75, 67
2, 196608, Time_signature, 4, 2, 24, 8
2, 196608, Key_signature, -3, "major"
2, 196608, Note_on_c, 0, 67, 67
2, 196608, Note_on_c, 0, 75, 67
2, 196736, Note_off_c, 0, 67, 67
2, 196736, Note_off_c, 0, 75, 67
2, 196736, Note_on_c, 0, 66, 67
2, 196736, Note_on_c, 0, 70, 67
2, 196864, Note_off_c, 0, 66, 67
2, 196864, Note_off_c, 0, 70, 67
2, 196864, Note_on_c, 0, 67, 67
2, 196864, Note_on_c, 0, 75, 67
2, 196992, Note_off_c, 0, 67, 67
2, 196992, Note_off_c, 0, 75, 67
2, 196992, Note_on_c, 0, 75, 67
2, 196992, Note_on_c, 0, 82, 67
2, 197248, Note_off_c, 0, 75, 67
2, 197248, Note_off_c, 0, 82, 67
2, 197248, Note_on_c, 0, 74, 67
2, 197248, Note_on_c, 0, 80, 67
2, 197376, Note_off_c, 0, 74, 67
2, 197376, Note_on_c, 0, 72, 67
2, 197504, Note_off_c, 0, 72, 67
2, 197504, Note_off_c, 0, 80, 67
2, 197504, Note_on_c, 0, 70, 67
2, 197504, Note_on_c, 0, 79, 67
2, 197632, Note_off_c, 0, 70, 67
2, 197632, Note_off_c, 0, 79, 67
2, 197632, Note_on_c, 0, 72, 67
2, 197632, Note_on_c, 0, 77, 67
2, 197760, Note_off_c, 0, 72, 67
2, 197760, Note_off_c, 0, 77, 67
2, 197760, Note_on_c, 0, 70, 67
2, 197760, Note_on_c, 0, 74, 67
2, 197888, Note_off_c, 0, 70, 67
2, 197888, Note_on_c, 0, 68, 67
2, 198016, Note_off_c, 0, 68, 67
2, 198016, Note_on_c, 0, 67, 67
2, 198144, Note_off_c, 0, 67, 67
2, 198144, Note_off_c, 0, 74, 67
2, 198144, Note_on_c, 0, 65, 67
2, 198144, Note_on_c, 0, 70, 67
2, 198272, Note_off_c, 0, 65, 67
2, 198272, Note_on_c, 0, 67, 67
2, 198400, Note_off_c, 0, 67, 67
2, 198400, Note_off_c, 0, 70, 67
2, 198400, Note_on_c, 0, 65, 67
2, 198400, Note_on_c, 0, 68, 67
2, 198528, Note_off_c, 0, 68, 67
2, 198528, Note_on_c, 0, 70, 67
2, 198656, Note_off_c, 0, 65, 67
2, 198656, Note_off_c, 0, 70, 67
2, 198656, Note_on_c, 0, 70, 67
2, 198656, Note_on_c, 0, 74, 67
2, 198784, Note_off_c, 0, 70, 67
2, 198784, Note_off_c, 0, 74, 67
2, 198784, Note_on_c, 0, 65, 67
2, 198784, Note_on_c, 0, 70, 67
2, 198912, Note_off_c, 0, 65, 67
2, 198912, Note_off_c, 0, 70, 67
2, 198912, Note_on_c, 0, 70, 67
2, 198912, Note_on_c, 0, 74, 67
2, 199040, Note_off_c, 0, 70, 67
2, 199040, Note_off_c, 0, 74, 67
2, 199040, Note_on_c, 0, 74, 67
2, 199040, Note_on_c, 0, 79, 67
2, 199296, Note_off_c, 0, 74, 67
2, 199296, Note_off_c, 0, 79, 67
2, 199296, Note_on_c, 0, 72, 67
2, 199296, Note_on_c, 0, 77, 67
2, 199424, Note_off_c, 0, 72, 67
2, 199424, Note_on_c, 0, 70, 67
2, 199552, Note_off_c, 0, 70, 67
2, 199552, Note_off_c, 0, 77, 67
2, 199552, Note_on_c, 0, 68, 67
2, 199552, Note_on_c, 0, 74, 67
2, 199680, Note_off_c, 0, 68, 67
2, 199680, Note_off_c, 0, 74, 67
2, 199680, Note_on_c, 0, 67, 67
2, 199680, Note_on_c, 0, 75, 67
2, 199808, Note_off_c, 0, 67, 67
2, 199808, Note_off_c, 0, 75, 67
2, 199808, Note_on_c, 0, 70, 67
2, 199808, Note_on_c, 0, 79, 67
2, 199936, Note_off_c, 0, 70, 67
2, 199936, Note_on_c, 0, 72, 67
2, 200064, Note_off_c, 0, 72, 67
2, 200064, Note_on_c, 0, 74, 67
2, 200192, Note_off_c, 0, 74, 67
2, 200192, Note_off_c, 0, 79, 67
2, 200192, Note_on_c, 0, 70, 67
2, 200192, Note_on_c, 0, 75, 67
2, 200320, Note_off_c, 0, 75, 67
2, 200320, Note_on_c, 0, 74, 67
2, 200448, Note_off_c, 0, 70, 67
2, 200448, Note_off_c, 0, 74, 67
2, 200448, Note_on_c, 0, 65, 67
2, 200448, Note_on_c, 0, 72, 67
2, 200576, Note_off_c, 0, 72, 67
2, 200576, Note_on_c, 0, 70, 67
2, 200704, Note_off_c, 0, 65, 67
2, 200704, Note_off_c, 0, 70, 67
2, 200704, Note_on_c, 0, 67, 67
2, 200704, Note_on_c, 0, 75, 67
2, 200832, Note_off_c, 0, 67, 67
2, 200832, Note_off_c, 0, 75, 67
2, 200832, Note_on_c, 0, 66, 67
2, 200832, Note_on_c, 0, 70, 67
2, 200960, Note_off_c, 0, 66, 67
2, 200960, Note_off_c, 0, 70, 67
2, 200960, Note_on_c, 0, 67, 67
2, 200960, Note_on_c, 0, 75, 67
2, 201088, Note_off_c, 0, 67, 67
2, 201088, Note_off_c, 0, 75, 67
2, 201088, Note_on_c, 0, 75, 67
2, 201088, Note_on_c, 0, 82, 67
2, 201344, Note_off_c, 0, 75, 67
2, 201344, Note_off_c, 0, 82, 67
2, 201344, Note_on_c, 0, 74, 67
2, 201344, Note_on_c, 0, 80, 67
2, 201472, Note_off_c, 0, 74, 67
2, 201472, Note_on_c, 0, 72, 67
2, 201600, Note_off_c, 0, 72, 67
2, 201600, Note_off_c, 0, 80, 67
2, 201600, Note_on_c, 0, 70, 67
2, 201600, Note_on_c, 0, 79, 67
2, 201728, Note_off_c, 0, 70, 67
2, 201728, Note_off_c, 0, 79, 67
2, 201728, Note_on_c, 0, 72, 67
2, 201728, Note_on_c, 0, 77, 67
2, 201856, Note_off_c, 0, 72, 67
2, 201856, Note_off_c, 0, 77, 67
2, 201856, Note_on_c, 0, 70, 67
2, 201856, Note_on_c, 0, 74, 67
2, 201984, Note_off_c, 0, 70, 67
2, 201984, Note_on_c, 0, 68, 67
2, 202112, Note_off_c, 0, 68, 67
2, 202112, Note_on_c, 0, 67, 67
2, 202240, Note_off_c, 0, 67, 67
2, 202240, Note_off_c, 0, 74, 67
2, 202240, Note_on_c, 0, 65, 67
2, 202240, Note_on_c, 0, 70, 67
2, 202368, Note_off_c, 0, 65, 67
2, 202368, Note_on_c, 0, 67, 67
2, 202496, Note_off_c, 0, 67, 67
2, 202496, Note_off_c, 0, 70, 67
2, 202496, Note_on_c, 0, 65, 67
2, 202496, Note_on_c, 0, 68, 67
2, 202624, Note_off_c, 0, 68, 67
2, 202624, Note_on_c, 0, 70, 67
2, 202752, Note_off_c, 0, 65, 67
2, 202752, Note_off_c, 0, 70, 67
2, 202752, Note_on_c, 0, 70, 67
2, 202752, Note_on_c, 0, 74, 67
2, 202880, Note_off_c, 0, 70, 67
2, 202880, Note_off_c, 0, 74, 67
2, 202880, Note_on_c, 0, 65, 67
2, 202880, Note_on_c, 0, 70, 67
2, 203008, Note_off_c, 0, 65, 67
2, 203008, Note_off_c, 0, 70, 67
2, 203008, Note_on_c, 0, 70, 67
2, 203008, Note_on_c, 0, 74, 67
2, 203136, Note_off_c, 0, 70, 67
2, 203136, Note_off_c, 0, 74, 67
2, 203136, Note_on_c, 0, 74, 67
2, 203136, Note_on_c, 0, 79, 67
2, 203392, Note_off_c, 0, 74, 67
2, 203392, Note_off_c, 0, 79, 67
2, 203392, Note_on_c, 0, 72, 67
2, 203392, Note_on_c, 0, 77, 67
2, 203520, Note_off_c, 0, 72, 67
2, 203520, Note_on_c, 0, 70, 67
2, 203648, Note_off_c, 0, 70, 67
2, 203648, Note_off_c, 0, 77, 67
2, 203648, Note_on_c, 0, 68, 67
2, 203648, Note_on_c, 0, 74, 67
2, 203776, Note_off_c, 0, 68, 67
2, 203776, Note_off_c, 0, 74, 67
2, 203776, Note_on_c, 0, 67, 67
2, 203776, Note_on_c, 0, 75, 67
2, 203904, Note_off_c, 0, 67, 67
2, 203904, Note_on_c, 0, 65, 67
2, 204032, Note_off_c, 0, 65, 67
2, 204032, Note_on_c, 0, 63, 67
2, 204160, Note_off_c, 0, 63, 67
2, 204160, Note_on_c, 0, 65, 67
2, 204288, Note_off_c, 0, 65, 67
2, 204288, Note_off_c, 0, 75, 67
2, 204288, Note_on_c, 0, 63, 67
2, 204288, Note_on_c, 0, 67, 67
2, 204416, Note_off_c, 0, 67, 67
2, 204416, Note_on_c, 0, 68, 67
2, 204544, Note_off_c, 0, 63, 67
2, 204544, Note_off_c, 0, 68, 67
2, 204544, Note_on_c, 0, 65, 67
2, 204544, Note_on_c, 0, 70, 67
2, 204672, Note_off_c, 0, 70, 67
2, 204672, Note_on_c, 0, 72, 67
2, 204800, Note_off_c, 0, 65, 67
2, 204800, Note_off_c, 0, 72, 67
2, 204800, Note_on_c, 0, 79, 67
2, 205312, Note_off_c, 0, 79, 67
2, 205312, Note_on_c, 0, 82, 67
2, 205568, Control_c, 0, 93, 0
2, 205568, Note_on_c, 0, 68, 67
2, 205696, Note_off_c, 0, 68, 67
2, 205696, Note_on_c, 0, 70, 67
2, 205824, Note_off_c, 0, 70, 67
2, 205824, Note_off_c, 0, 82, 67
2, 205824, Note_on_c, 0, 72, 67
2, 205824, Note_on_c, 0, 80, 67
2, 205952, Note_off_c, 0, 72, 67
2, 205952, Note_off_c, 0, 80, 67
2, 205952, Note_on_c, 0, 70, 67
2, 205952, Note_on_c, 0, 82, 67
2, 206080, Note_off_c, 0, 70, 67
2, 206080, Note_off_c, 0, 82, 67
2, 206080, Note_on_c, 0, 68, 67
2, 206080, Note_on_c, 0, 80, 67
2, 206208, Note_off_c, 0, 80, 67
2, 206208, Note_on_c, 0, 79, 67
2, 206336, Note_off_c, 0, 68, 67
2, 206336, Note_off_c, 0, 79, 67
2, 206336, Note_on_c, 0, 65, 67
2, 206336, Note_on_c, 0, 77, 67
2, 206464, Note_off_c, 0, 65, 67
2, 206464, Note_on_c, 0, 67, 67
2, 206592, Note_off_c, 0, 67, 67
2, 206592, Note_on_c, 0, 68, 67
2, 206720, Note_off_c, 0, 68, 67
2, 206720, Note_on_c, 0, 70, 67
2, 206848, Note_off_c, 0, 70, 67
2, 206848, Note_off_c, 0, 77, 67
2, 206848, Note_on_c, 0, 68, 67
2, 206848, Note_on_c, 0, 74, 67
2, 206976, Note_off_c, 0, 68, 67
2, 206976, Note_on_c, 0, 67, 67
2, 207104, Note_off_c, 0, 67, 67
2, 207104, Note_on_c, 0, 65, 67
2, 207360, Note_off_c, 0, 65, 67
2, 207360, Note_off_c, 0, 74, 67
2, 207360, Note_on_c, 0, 77, 67
2, 207616, Control_c, 0, 93, 0
2, 207616, Note_on_c, 0, 65, 67
2, 207744, Note_off_c, 0, 65, 67
2, 207744, Note_on_c, 0, 70, 67
2, 207872, Note_off_c, 0, 70, 67
2, 207872, Note_off_c, 0, 77, 67
2, 207872, Note_on_c, 0, 67, 67
2, 207872, Note_on_c, 0, 79, 67
2, 208000, Note_off_c, 0, 67, 67
2, 208000, Note_off_c, 0, 79, 67
2, 208000, Note_on_c, 0, 68, 67
2, 208000, Note_on_c, 0, 80, 67
2, 208128, Note_off_c, 0, 68, 67
2, 208128, Note_off_c, 0, 80, 67
2, 208128, Note_on_c, 0, 70, 67
2, 208128, Note_on_c, 0, 79, 67
2, 208256, Note_off_c, 0, 70, 67
2, 208256, Note_off_c, 0, 79, 67
2, 208256, Note_on_c, 0, 72, 67
2, 208256, Note_on_c, 0, 77, 67
2, 208384, Note_off_c, 0, 72, 67
2, 208384, Note_off_c, 0, 77, 67
2, 208384, Note_on_c, 0, 70, 67
2, 208384, Note_on_c, 0, 75, 67
2, 208896, Note_off_c, 0, 70, 67
2, 208896, Note_off_c, 0, 75, 67
2, 208896, Note_on_c, 0, 75, 67
2, 208896, Note_on_c, 0, 79, 67
2, 209024, Note_off_c, 0, 75, 67
2, 209024, Note_on_c, 0, 74, 67
2, 209152, Note_off_c, 0, 74, 67
2, 209152, Note_on_c, 0, 72, 67
2, 209408, Note_off_c, 0, 72, 67
2, 209408, Note_off_c, 0, 79, 67
2, 209408, Note_on_c, 0, 70, 67
2, 209408, Note_on_c, 0, 82, 67
2, 209536, Note_off_c, 0, 70, 67
2, 209536, Note_on_c, 0, 72, 67
2, 209664, Note_off_c, 0, 72, 67
2, 209664, Note_on_c, 0, 74, 67
2, 209792, Note_off_c, 0, 74, 67
2, 209792, Note_on_c, 0, 75, 67
2, 209920, Note_off_c, 0, 75, 67
2, 209920, Note_off_c, 0, 82, 67
2, 209920, Note_on_c, 0, 77, 67
2, 209920, Note_on_c, 0, 80, 67
2, 210048, Note_off_c, 0, 77, 67
2, 210048, Note_off_c, 0, 80, 67
2, 210048, Note_on_c, 0, 75, 67
2, 210048, Note_on_c, 0, 79, 67
2, 210176, Note_off_c, 0, 75, 67
2, 210176, Note_off_c, 0, 79, 67
2, 210176, Note_on_c, 0, 74, 67
2, 210176, Note_on_c, 0, 80, 67
2, 210304, Note_off_c, 0, 80, 67
2, 210304, Note_on_c, 0, 82, 67
2, 210432, Note_off_c, 0, 74, 67
2, 210432, Note_off_c, 0, 82, 67
2, 210432, Note_on_c, 0, 72, 67
2, 210432, Note_on_c, 0, 84, 67
2, 210560, Note_off_c, 0, 72, 67
2, 210560, Note_on_c, 0, 74, 67
2, 210688, Note_off_c, 0, 74, 67
2, 210688, Note_on_c, 0, 75, 67
2, 210816, Note_off_c, 0, 75, 67
2, 210816, Note_on_c, 0, 77, 67
2, 210944, Note_off_c, 0, 77, 67
2, 210944, Note_off_c, 0, 84, 67
2, 210944, Note_on_c, 0, 74, 67
2, 210944, Note_on_c, 0, 82, 67
2, 211072, Note_off_c, 0, 74, 67
2, 211072, Note_on_c, 0, 72, 67
2, 211200, Note_off_c, 0, 72, 67
2, 211200, Note_off_c, 0, 82, 67
2, 211200, Note_on_c, 0, 70, 67
2, 211200, Note_on_c, 0, 80, 67
2, 211328, Note_off_c, 0, 80, 67
2, 211328, Note_on_c, 0, 79, 67
2, 211456, Note_off_c, 0, 70, 67
2, 211456, Note_off_c, 0, 79, 67
2, 211456, Note_on_c, 0, 68, 67
2, 211456, Note_on_c, 0, 80, 67
2, 211584, Note_off_c, 0, 68, 67
2, 211584, Note_on_c, 0, 70, 67
2, 211712, Note_off_c, 0, 70, 67
2, 211712, Note_on_c, 0, 72, 67
2, 211840, Note_off_c, 0, 72, 67
2, 211840, Note_on_c, 0, 68, 67
2, 211968, Note_off_c, 0, 68, 67
2, 211968, Note_off_c, 0, 80, 67
2, 211968, Note_on_c, 0, 70, 67
2, 211968, Note_on_c, 0, 79, 67
2, 212096, Note_off_c, 0, 70, 67
2, 212096, Note_off_c, 0, 79, 67
2, 212096, Note_on_c, 0, 68, 67
2, 212096, Note_on_c, 0, 80, 67
2, 212224, Note_off_c, 0, 68, 67
2, 212224, Note_off_c, 0, 80, 67
2, 212224, Note_on_c, 0, 67, 67
2, 212224, Note_on_c, 0, 79, 67
2, 212352, Note_off_c, 0, 67, 67
2, 212352, Note_off_c, 0, 79, 67
2, 212352, Note_on_c, 0, 65, 67
2, 212352, Note_on_c, 0, 77, 67
2, 212480, Note_off_c, 0, 65, 67
2, 212480, Note_off_c, 0, 77, 67
2, 212480, Note_on_c, 0, 63, 67
2, 212480, Note_on_c, 0, 75, 67
2, 212608, Note_off_c, 0, 63, 67
2, 212608, Note_on_c, 0, 65, 67
2, 212736, Note_off_c, 0, 65, 67
2, 212736, Note_on_c, 0, 67, 67
2, 212864, Note_off_c, 0, 67, 67
2, 212864, Note_on_c, 0, 68, 67
2, 212992, Note_off_c, 0, 68, 67
2, 212992, Note_off_c, 0, 75, 67
2, 212992, Time_signature, 4, 2, 24, 8
2, 212992, Key_signature, -3, "major"
2, 212992, Note_on_c, 0, 67, 67
2, 212992, Note_on_c, 0, 75, 67
2, 213120, Note_off_c, 0, 67, 67
2, 213120, Note_off_c, 0, 75, 67
2, 213120, Note_on_c, 0, 66, 67
2, 213120, Note_on_c, 0, 70, 67
2, 213248, Note_off_c, 0, 66, 67
2, 213248, Note_off_c, 0, 70, 67
2, 213248, Note_on_c, 0, 67, 67
2, 213248, Note_on_c, 0, 75, 67
2, 213376, Note_off_c, 0, 67, 67
2, 213376, Note_off_c, 0, 75, 67
2, 213376, Note_on_c, 0, 75, 67
2, 213376, Note_on_c, 0, 82, 67
2, 213632, Note_off_c, 0, 75, 67
2, 213632, Note_off_c, 0, 82, 67
2, 213632, Note_on_c, 0, 74, 67
2, 213632, Note_on_c, 0, 80, 67
2, 213760, Note_off_c, 0, 74, 67
2, 213760, Note_on_c, 0, 72, 67
2, 213888, Note_off_c, 0, 72, 67
2, 213888, Note_off_c, 0, 80, 67
2, 213888, Note_on_c, 0, 70, 67
2, 213888, Note_on_c, 0, 79, 67
2, 214016, Note_off_c, 0, 70, 67
2, 214016, Note_off_c, 0, 79, 67
2, 214016, Note_on_c, 0, 72, 67
2, 214016, Note_on_c, 0, 77, 67
2, 214144, Note_off_c, 0, 72, 67
2, 214144, Note_off_c, 0, 77, 67
2, 214144, Note_on_c, 0, 70, 67
2, 214144, Note_on_c, 0, 74, 67
2, 214272, Note_off_c, 0, 70, 67
2, 214272, Note_on_c, 0, 68, 67
2, 214400, Note_off_c, 0, 68, 67
2, 214400, Note_on_c, 0, 67, 67
2, 214528, Note_off_c, 0, 67, 67
2, 214528, Note_off_c, 0, 74, 67
2, 214528, Note_on_c, 0, 65, 67
2, 214528, Note_on_c, 0, 70, 67
2, 214656, Note_off_c, 0, 65, 67
2, 214656, Note_on_c, 0, 67, 67
2, 214784, Note_off_c, 0, 67, 67
2, 214784, Note_off_c, 0, 70, 67
2, 214784, Note_on_c, 0, 65, 67
2, 214784, Note_on_c, 0, 68, 67
2, 214912, Note_off_c, 0, 68, 67
2, 214912, Note_on_c, 0, 70, 67
2, 215040, Note_off_c, 0, 65, 67
2, 215040, Note_off_c, 0, 70, 67
2, 215040, Note_on_c, 0, 70, 67
2, 215040, Note_on_c, 0, 74, 67
2, 215168, Note_off_c, 0, 70, 67
2, 215168, Note_off_c, 0, 74, 67
2, 215168, Note_on_c, 0, 65, 67
2, 215168, Note_on_c, 0, 70, 67
2, 215296, Note_off_c, 0, 65, 67
2, 215296, Note_off_c, 0, 70, 67
2, 215296, Note_on_c, 0, 70, 67
2, 215296, Note_on_c, 0, 74, 67
2, 215424, Note_off_c, 0, 70, 67
2, 215424, Note_off_c, 0, 74, 67
2, 215424, Note_on_c, 0, 74, 67
2, 215424, Note_on_c, 0, 79, 67
2, 215680, Note_off_c, 0, 74, 67
2, 215680, Note_off_c, 0, 79, 67
2, 215680, Note_on_c, 0, 72, 67
2, 215680, Note_on_c, 0, 77, 67
2, 215808, Note_off_c, 0, 72, 67
2, 215808, Note_on_c, 0, 70, 67
2, 215936, Note_off_c, 0, 70, 67
2, 215936, Note_off_c, 0, 77, 67
2, 215936, Note_on_c, 0, 68, 67
2, 215936, Note_on_c, 0, 74, 67
2, 216064, Note_off_c, 0, 68, 67
2, 216064, Note_off_c, 0, 74, 67
2, 216064, Note_on_c, 0, 67, 67
2, 216064, Note_on_c, 0, 75, 67
2, 216192, Note_off_c, 0, 67, 67
2, 216192, Note_off_c, 0, 75, 67
2, 216192, Note_on_c, 0, 70, 67
2, 216192, Note_on_c, 0, 79, 67
2, 216320, Note_off_c, 0, 70, 67
2, 216320, Note_on_c, 0, 72, 67
2, 216448, Note_off_c, 0, 72, 67
2, 216448, Note_on_c, 0, 74, 67
2, 216576, Note_off_c, 0, 74, 67
2, 216576, Note_off_c, 0, 79, 67
2, 216576, Note_on_c, 0, 70, 67
2, 216576, Note_on_c, 0, 75, 67
2, 216704, Note_off_c, 0, 75, 67
2, 216704, Note_on_c, 0, 74, 67
2, 216832, Note_off_c, 0, 70, 67
2, 216832, Note_off_c, 0, 74, 67
2, 216832, Note_on_c, 0, 65, 67
2, 216832, Note_on_c, 0, 72, 67
2, 216960, Note_off_c, 0, 72, 67
2, 216960, Note_on_c, 0, 70, 67
2, 217088, Note_off_c, 0, 65, 67
2, 217088, Note_off_c, 0, 70, 67
2, 217088, Note_on_c, 0, 67, 67
2, 217088, Note_on_c, 0, 75, 67
2, 217216, Note_off_c, 0, 67, 67
2, 217216, Note_off_c, 0, 75, 67
2, 217216, Note_on_c, 0, 66, 67
2, 217216, Note_on_c, 0, 70, 67
2, 217344, Note_off_c, 0, 66, 67
2, 217344, Note_off_c, 0, 70, 67
2, 217344, Note_on_c, 0, 67, 67
2, 217344, Note_on_c, 0, 75, 67
2, 217472, Note_off_c, 0, 67, 67
2, 217472, Note_off_c, 0, 75, 67
2, 217472, Note_on_c, 0, 75, 67
2, 217472, Note_on_c, 0, 82, 67
2, 217728, Note_off_c, 0, 75, 67
2, 217728, Note_off_c, 0, 82, 67
2, 217728, Note_on_c, 0, 74, 67
2, 217728, Note_on_c, 0, 80, 67
2, 217856, Note_off_c, 0, 74, 67
2, 217856, Note_on_c, 0, 72, 67
2, 217984, Note_off_c, 0, 72, 67
2, 217984, Note_off_c, 0, 80, 67
2, 217984, Note_on_c, 0, 70, 67
2, 217984, Note_on_c, 0, 79, 67
2, 218112, Note_off_c, 0, 70, 67
2, 218112, Note_off_c, 0, 79, 67
2, 218112, Note_on_c, 0, 72, 67
2, 218112, Note_on_c, 0, 77, 67
2, 218240, Note_off_c, 0, 72, 67
2, 218240, Note_off_c, 0, 77, 67
2, 218240, Note_on_c, 0, 70, 67
2, 218240, Note_on_c, 0, 74, 67
2, 218368, Note_off_c, 0, 70, 67
2, 218368, Note_on_c, 0, 68, 67
2, 218496, Note_off_c, 0, 68, 67
2, 218496, Note_on_c, 0, 67, 67
2, 218624, Note_off_c, 0, 67, 67
2, 218624, Note_off_c, 0, 74, 67
2, 218624, Note_on_c, 0, 65, 67
2, 218624, Note_on_c, 0, 70, 67
2, 218752, Note_off_c, 0, 65, 67
2, 218752, Note_on_c, 0, 67, 67
2, 218880, Note_off_c, 0, 67, 67
2, 218880, Note_off_c, 0, 70, 67
2, 218880, Note_on_c, 0, 65, 67
2, 218880, Note_on_c, 0, 68, 67
2, 219008, Note_off_c, 0, 68, 67
2, 219008, Note_on_c, 0, 70, 67
2, 219136, Note_off_c, 0, 65, 67
2, 219136, Note_off_c, 0, 70, 67
2, 219136, Note_on_c, 0, 70, 67
2, 219136, Note_on_c, 0, 74, 67
2, 219264, Note_off_c, 0, 70, 67
2, 219264, Note_off_c, 0, 74, 67
2, 219264, Note_on_c, 0, 65, 67
2, 219264, Note_on_c, 0, 70, 67
2, 219392, Note_off_c, 0, 65, 67
2, 219392, Note_off_c, 0, 70, 67
2, 219392, Note_on_c, 0, 70, 67
2, 219392, Note_on_c, 0, 74, 67
2, 219520, Note_off_c, 0, 70, 67
2, 219520, Note_off_c, 0, 74, 67
2, 219520, Note_on_c, 0, 74, 67
2, 219520, Note_on_c, 0, 79, 67
2, 219776, Note_off_c, 0, 74, 67
2, 219776, Note_off_c, 0, 79, 67
2, 219776, Note_on_c, 0, 72, 67
2, 219776, Note_on_c, 0, 77, 67
2, 219904, Note_off_c, 0, 72, 67
2, 219904, Note_on_c, 0, 70, 67
2, 220032, Note_off_c, 0, 70, 67
2, 220032, Note_off_c, 0, 77, 67
2, 220032, Note_on_c, 0, 68, 67
2, 220032, Note_on_c, 0, 74, 67
2, 220160, Note_off_c, 0, 68, 67
2, 220160, Note_off_c, 0, 74, 67
2, 220160, Note_on_c, 0, 67, 67
2, 220160, Note_on_c, 0, 75, 67
2, 220288, Note_off_c, 0, 67, 67
2, 220288, Note_on_c, 0, 65, 67
2, 220416, Note_off_c, 0, 65, 67
2, 220416, Note_on_c, 0, 63, 67
2, 220544, Note_off_c, 0, 63, 67
2, 220544, Note_on_c, 0, 65, 67
2, 220672, Note_off_c, 0, 65, 67
2, 220672, Note_off_c, 0, 75, 67
2, 220672, Note_on_c, 0, 63, 67
2, 220672, Note_on_c, 0, 67, 67
2, 220800, Note_off_c, 0, 67, 67
2, 220800, Note_on_c, 0, 68, 67
2, 220928, Note_off_c, 0, 63, 67
2, 220928, Note_off_c, 0, 68, 67
2, 220928, Note_on_c, 0, 65, 67
2, 220928, Note_on_c, 0, 70, 67
2, 221056, Note_off_c, 0, 70, 67
2, 221056, Note_on_c, 0, 72, 67
2, 221184, Note_off_c, 0, 65, 67
2, 221184, Note_off_c, 0, 72, 67
2, 221184, Note_on_c, 0, 79, 67
2, 221696, Note_off_c, 0, 79, 67
2, 221696, Note_on_c, 0, 82, 67
2, 221952, Control_c, 0, 93, 0
2, 221952, Note_on_c, 0, 68, 67
2, 222080, Note_off_c, 0, 68, 67
2, 222080, Note_on_c, 0, 70, 67
2, 222208, Note_off_c, 0, 70, 67
2, 222208, Note_off_c, 0, 82, 67
2, 222208, Note_on_c, 0, 72, 67
2, 222208, Note_on_c, 0, 80, 67
2, 222336, Note_off_c, 0, 72, 67
2, 222336, Note_off_c, 0, 80, 67
2, 222336, Note_on_c, 0, 70, 67
2, 222336, Note_on_c, 0, 82, 67
2, 222464, Note_off_c, 0, 70, 67
2, 222464, Note_off_c, 0, 82, 67
2, 222464, Note_on_c, 0, 68, 67
2, 222464, Note_on_c, 0, 80, 67
2, 222592, Note_off_c, 0, 80, 67
2, 222592, Note_on_c, 0, 79, 67
2, 222720, Note_off_c, 0, 68, 67
2, 222720, Note_off_c, 0, 79, 67
2, 222720, Note_on_c, 0, 65, 67
2, 222720, Note_on_c, 0, 77, 67
2, 222848, Note_off_c, 0, 65, 67
2, 222848, Note_on_c, 0, 67, 67
2, 222976, Note_off_c, 0, 67, 67
2, 222976, Note_on_c, 0, 68, 67
2, 223104, Note_off_c, 0, 68, 67
2, 223104, Note_on_c, 0, 70, 67
2, 223232, Note_off_c, 0, 70, 67
2, 223232, Note_off_c, 0, 77, 67
2, 223232, Note_on_c, 0, 68, 67
2, 223232, Note_on_c, 0, 74, 67
2, 223360, Note_off_c, 0, 68, 67
2, 223360, Note_on_c, 0, 67, 67
2, 223488, Note_off_c, 0, 67, 67
2, 223488, Note_on_c, 0, 65, 67
2, 223744, Note_off_c, 0, 65, 67
2, 223744, Note_off_c, 0, 74, 67
2, 223744, Note_on_c, 0, 77, 67
2, 224000, Control_c, 0, 93, 0
2, 224000, Note_on_c, 0, 65, 67
2, 224128, Note_off_c, 0, 65, 67
2, 224128, Note_on_c, 0, 70, 67
2, 224256, Note_off_c, 0, 70, 67
2, 224256, Note_off_c, 0, 77, 67
2, 224256, Note_on_c, 0, 67, 67
2, 224256, Note_on_c, 0, 79, 67
2, 224384, Note_off_c, 0, 67, 67
2, 224384, Note_off_c, 0, 79, 67
2, 224384, Note_on_c, 0, 68, 67
2, 224384, Note_on_c, 0, 80, 67
2, 224512, Note_off_c, 0, 68, 67
2, 224512, Note_off_c, 0, 80, 67
2, 224512, Note_on_c, 0, 70, 67
2, 224512, Note_on_c, 0, 79, 67
2, 224640, Note_off_c, 0, 70, 67
2, 224640, Note_off_c, 0, 79, 67
2, 224640, Note_on_c, 0, 72, 67
2, 224640, Note_on_c, 0, 77, 67
2, 224768, Note_off_c, 0, 72, 67
2, 224768, Note_off_c, 0, 77, 67
2, 224768, Note_on_c, 0, 70, 67
2, 224768, Note_on_c, 0, 75, 67
2, 225280, Note_off_c, 0, 70, 67
2, 225280, Note_off_c, 0, 75, 67
2, 225280, Note_on_c, 0, 75, 67
2, 225280, Note_on_c, 0, 79, 67
2, 225408, Note_off_c, 0, 75, 67
2, 225408, Note_on_c, 0, 74, 67
2, 225536, Note_off_c, 0, 74, 67
2, 225536, Note_on_c, 0, 72, 67
2, 225792, Note_off_c, 0, 72, 67
2, 225792, Note_off_c, 0, 79, 67
2, 225792, Note_on_c, 0, 70, 67
2, 225792, Note_on_c, 0, 82, 67
2, 225920, Note_off_c, 0, 70, 67
2, 225920, Note_on_c, 0, 72, 67
2, 226048, Note_off_c, 0, 72, 67
2, 226048, Note_on_c, 0, 74, 67
2, 226176, Note_off_c, 0, 74, 67
2, 226176, Note_on_c, 0, 75, 67
2, 226304, Note_off_c, 0, 75, 67
2, 226304, Note_off_c, 0, 82, 67
2, 226304, Note_on_c, 0, 77, 67
2, 226304, Note_on_c, 0, 80, 67
2, 226432, Note_off_c, 0, 77, 67
2, 226432, Note_off_c, 0, 80, 67
2, 226432, Note_on_c, 0, 75, 67
2, 226432, Note_on_c, 0, 79, 67
2, 226560, Note_off_c, 0, 75, 67
2, 226560, Note_off_c, 0, 79, 67
2, 226560, Note_on_c, 0, 74, 67
2, 226560, Note_on_c, 0, 80, 67
2, 226688, Note_off_c, 0, 80, 67
2, 226688, Note_on_c, 0, 82, 67
2, 226816, Note_off_c, 0, 74, 67
2, 226816, Note_off_c, 0, 82, 67
2, 226816, Note_on_c, 0, 72, 67
2, 226816, Note_on_c, 0, 84, 67
2, 226944, Note_off_c, 0, 72, 67
2, 226944, Note_on_c, 0, 74, 67
2, 227072, Note_off_c, 0, 74, 67
2, 227072, Note_on_c, 0, 75, 67
2, 227200, Note_off_c, 0, 75, 67
2, 227200, Note_on_c, 0, 77, 67
2, 227328, Note_off_c, 0, 77, 67
2, 227328, Note_off_c, 0, 84, 67
2, 227328, Note_on_c, 0, 74, 67
2, 227328, Note_on_c, 0, 82, 67
2, 227456, Note_off_c, 0, 74, 67
2, 227456, Note_on_c, 0, 72, 67
2, 227584, Note_off_c, 0, 72, 67
2, 227584, Note_off_c, 0, 82, 67
2, 227584, Note_on_c, 0, 70, 67
2, 227584, Note_on_c, 0, 80, 67
2, 227712, Note_off_c, 0, 80, 67
2, 227712, Note_on_c, 0, 79, 67
2, 227840, Note_off_c, 0, 70, 67
2, 227840, Note_off_c, 0, 79, 67
2, 227840, Note_on_c, 0, 68, 67
2, 227840, Note_on_c, 0, 80, 67
2, 227968, Note_off_c, 0, 68, 67
2, 227968, Note_on_c, 0, 70, 67
2, 228096, Note_off_c, 0, 70, 67
2, 228096, Note_on_c, 0, 72, 67
2, 228224, Note_off_c, 0, 72, 67
2, 228224, Note_on_c, 0, 68, 67
2, 228352, Note_off_c, 0, 68, 67
2, 228352, Note_off_c, 0, 80, 67
2, 228352, Note_on_c, 0, 70, 67
2, 228352, Note_on_c, 0, 79, 67
2, 228480, Note_off_c, 0, 70, 67
2, 228480, Note_off_c, 0, 79, 67
2, 228480, Note_on_c, 0, 68, 67
2, 228480, Note_on_c, 0, 80, 67
2, 228608, Note_off_c, 0, 68, 67
2, 228608, Note_off_c, 0, 80, 67
2, 228608, Note_on_c, 0, 67, 67
2, 228608, Note_on_c, 0, 79, 67
2, 228736, Note_off_c, 0, 67, 67
2, 228736, Note_off_c, 0, 79, 67
2, 228736, Note_on_c, 0, 65, 67
2, 228736, Note_on_c, 0, 77, 67
2, 228864, Note_off_c, 0, 65, 67
2, 228864, Note_off_c, 0, 77, 67
2, 228864, Note_on_c, 0, 63, 67
2, 228864, Note_on_c, 0, 75, 67
2, 228992, Note_off_c, 0, 63, 67
2, 228992, Note_on_c, 0, 65, 67
2, 229120, Note_off_c, 0, 65, 67
2, 229120, Note_on_c, 0, 67, 67
2, 229248, Note_off_c, 0, 67, 67
2, 229248, Note_on_c, 0, 68, 67
2, 229376, Note_off_c, 0, 68, 67
2, 229376, Note_off_c, 0, 75, 67
2, 229376, Time_signature, 4, 2, 24, 8
2, 229376, Key_signature, -3, "major"
2, 229376, Note_on_c, 0, 67, 67
2, 229376, Note_on_c, 0, 75, 67
2, 229504, Note_off_c, 0, 67, 67
2, 229504, Note_off_c, 0, 75, 67
2, 229504, Note_on_c, 0, 66, 67
2, 229504, Note_on_c, 0, 70, 67
2, 229632, Note_off_c, 0, 66, 67
2, 229632, Note_off_c, 0, 70, 67
2, 229632, Note_on_c, 0, 67, 67
2, 229632, Note_on_c, 0, 75, 67
2, 229760, Note_off_c, 0, 67, 67
2, 229760, Note_off_c, 0, 75, 67
2, 229760, Note_on_c, 0, 75, 67
2, 229760, Note_on_c, 0, 82, 67
2, 230016, Note_off_c, 0, 75, 67
2, 230016, Note_off_c, 0, 82, 67
2, 230016, Note_on_c, 0, 74, 67
2, 230016, Note_on_c, 0, 80, 67
2, 230144, Note_off_c, 0, 74, 67
2, 230144, Note_on_c, 0, 72, 67
2, 230272, Note_off_c, 0, 72, 67
2, 230272, Note_off_c, 0, 80, 67
2, 230272, Note_on_c, 0, 70, 67
2, 230272, Note_on_c, 0, 79, 67
2, 230400, Note_off_c, 0, 70, 67
2, 230400, Note_off_c, 0, 79, 67
2, 230400, Note_on_c, 0, 72, 67
2, 230400, Note_on_c, 0, 77, 67
2, 230528, Note_off_c, 0, 72, 67
2, 230528, Note_off_c, 0, 77, 67
2, 230528, Note_on_c, 0, 70, 67
2, 230528, Note_on_c, 0, 74, 67
2, 230656, Note_off_c, 0, 70, 67
2, 230656, Note_on_c, 0, 68, 67
2, 230784, Note_off_c, 0, 68, 67
2, 230784, Note_on_c, 0, 67, 67
2, 230912, Note_off_c, 0, 67, 67
2, 230912, Note_off_c, 0, 74, 67
2, 230912, Note_on_c, 0, 65, 67
2, 230912, Note_on_c, 0, 70, 67
2, 231040, Note_off_c, 0, 65, 67
2, 231040, Note_on_c, 0, 67, 67
2, 231168, Note_off_c, 0, 67, 67
2, 231168, Note_off_c, 0, 70, 67
2, 231168, Note_on_c, 0, 65, 67
2, 231168, Note_on_c, 0, 68, 67
2, 231296, Note_off_c, 0, 68, 67
2, 231296, Note_on_c, 0, 70, 67
2, 231424, Note_off_c, 0, 65, 67
2, 231424, Note_off_c, 0, 70, 67
2, 231424, Note_on_c, 0, 70, 67
2, 231424, Note_on_c, 0, 74, 67
2, 231552, Note_off_c, 0, 70, 67
2, 231552, Note_off_c, 0, 74, 67
2, 231552, Note_on_c, 0, 65, 67
2, 231552, Note_on_c, 0, 70, 67
2, 231680, Note_off_c, 0, 65, 67
2, 231680, Note_off_c, 0, 70, 67
2, 231680, Note_on_c, 0, 70, 67
2, 231680, Note_on_c, 0, 74, 67
2, 231808, Note_off_c, 0, 70, 67
2, 231808, Note_off_c, 0, 74, 67
2, 231808, Note_on_c, 0, 74, 67
2, 231808, Note_on_c, 0, 79, 67
2, 232064, Note_off_c, 0, 74, 67
2, 232064, Note_off_c, 0, 79, 67
2, 232064, Note_on_c, 0, 72, 67
2, 232064, Note_on_c, 0, 77, 67
2, 232192, Note_off_c, 0, 72, 67
2, 232192, Note_on_c, 0, 70, 67
2, 232320, Note_off_c, 0, 70, 67
2, 232320, Note_off_c, 0, 77, 67
2, 232320, Note_on_c, 0, 68, 67
2, 232320, Note_on_c, 0, 74, 67
2, 232448, Note_off_c, 0, 68, 67
2, 232448, Note_off_c, 0, 74, 67
2, 232448, Note_on_c, 0, 67, 67
2, 232448, Note_on_c, 0, 75, 67
2, 232576, Note_off_c, 0, 67, 67
2, 232576, Note_off_c, 0, 75, 67
2, 232576, Note_on_c, 0, 70, 67
2, 232576, Note_on_c, 0, 79, 67
2, 232704, Note_off_c, 0, 70, 67
2, 232704, Note_on_c, 0, 72, 67
2, 232832, Note_off_c, 0, 72, 67
2, 232832, Note_on_c, 0, 74, 67
2, 232960, Note_off_c, 0, 74, 67
2, 232960, Note_off_c, 0, 79, 67
2, 232960, Note_on_c, 0, 70, 67
2, 232960, Note_on_c, 0, 75, 67
2, 233088, Note_off_c, 0, 75, 67
2, 233088, Note_on_c, 0, 74, 67
2, 233216, Note_off_c, 0, 70, 67
2, 233216, Note_off_c, 0, 74, 67
2, 233216, Note_on_c, 0, 65, 67
2, 233216, Note_on_c, 0, 72, 67
2, 233344, Note_off_c, 0, 72, 67
2, 233344, Note_on_c, 0, 70, 67
2, 233472, Note_off_c, 0, 65, 67
2, 233472, Note_off_c, 0, 70, 67
2, 233472, Note_on_c, 0, 67, 67
2, 233472, Note_on_c, 0, 75, 67
2, 233600, Note_off_c, 0, 67, 67
2, 233600, Note_off_c, 0, 75, 67
2, 233600, Note_on_c, 0, 66, 67
2, 233600, Note_on_c, 0, 70, 67
2, 233728, Note_off_c, 0, 66, 67
2, 233728, Note_off_c, 0, 70, 67
2, 233728, Note_on_c, 0, 67, 67
2, 233728, Note_on_c, 0, 75, 67
2, 233856, Note_off_c, 0, 67, 67
2, 233856, Note_off_c, 0, 75, 67
2, 233856, Note_on_c, 0, 75, 67
2, 233856, Note_on_c, 0, 82, 67
2, 234112, Note_off_c, 0, 75, 67
2, 234112, Note_off_c, 0, 82, 67
2, 234112, Note_on_c, 0, 74, 67
2, 234112, Note_on_c, 0, 80, 67
2, 234240, Note_off_c, 0, 74, 67
2, 234240, Note_on_c, 0, 72, 67
2, 234368, Note_off_c, 0, 72, 67
2, 234368, Note_off_c, 0, 80, 67
2, 234368, Note_on_c, 0, 70, 67
2, 234368, Note_on_c, 0, 79, 67
2, 234496, Note_off_c, 0, 70, 67
2, 234496, Note_off_c, 0, 79, 67
2, 234496, Note_on_c, 0, 72, 67
2, 234496, Note_on_c, 0, 77, 67
2, 234624, Note_off_c, 0, 72, 67
2, 234624, Note_off_c, 0, 77, 67
2, 234624, Note_on_c, 0, 70, 67
2, 234624, Note_on_c, 0, 74, 67
2, 234752, Note_off_c, 0, 70, 67
2, 234752, Note_on_c, 0, 68, 67
2, 234880, Note_off_c, 0, 68, 67
2, 234880, Note_on_c, 0, 67, 67
2, 235008, Note_off_c, 0, 67, 67
2, 235008, Note_off_c, 0, 74, 67
2, 235008, Note_on_c, 0, 65, 67
2, 235008, Note_on_c, 0, 70, 67
2, 235136, Note_off_c, 0, 65, 67
2, 235136, Note_on_c, 0, 67, 67
2, 235264, Note_off_c, 0, 67, 67
2, 235264, Note_off_c, 0, 70, 67
2, 235264, Note_on_c, 0, 65, 67
2, 235264, Note_on_c, 0, 68, 67
2, 235392, Note_off_c, 0, 68, 67
2, 235392, Note_on_c, 0, 70, 67
2, 235520, Note_off_c, 0, 65, 67
2, 235520, Note_off_c, 0, 70, 67
2, 235520, Note_on_c, 0, 70, 67
2, 235520, Note_on_c, 0, 74, 67
2, 235648, Note_off_c, 0, 70, 67
2, 235648, Note_off_c, 0, 74, 67
2, 235648, Note_on_c, 0, 65, 67
2, 235648, Note_on_c, 0, 70, 67
2, 235776, Note_off_c, 0, 65, 67
2, 235776, Note_off_c, 0, 70, 67
2, 235776, Note_on_c, 0, 70, 67
2, 235776, Note_on_c, 0, 74, 67
2, 235904, Note_off_c, 0, 70, 67
2, 235904, Note_off_c, 0, 74, 67
2, 235904, Note_on_c, 0, 74, 67
2, 235904, Note_on_c, 0, 79, 67
2, 236160, Note_off_c, 0, 74, 67
2, 236160, Note_off_c, 0, 79, 67
2, 236160, Note_on_c, 0, 72, 67
2, 236160, Note_on_c, 0, 77, 67
2, 236288, Note_off_c, 0, 72, 67
2, 236288, Note_on_c, 0, 70, 67
2, 236416, Note_off_c, 0, 70, 67
2, 236416, Note_off_c, 0, 77, 67
2, 236416, Note_on_c, 0, 68, 67
2, 236416, Note_on_c, 0, 74, 67
2, 236544, Note_off_c, 0, 68, 67
2, 236544, Note_off_c, 0, 74, 67
2, 236544, Note_on_c, 0, 67, 67
2, 236544, Note_on_c, 0, 75, 67
2, 236672, Note_off_c, 0, 67, 67
2, 236672, Note_on_c, 0, 65, 67
2, 236800, Note_off_c, 0, 65, 67
2, 236800, Note_on_c, 0, 63, 67
2, 236928, Note_off_c, 0, 63, 67
2, 236928, Note_on_c, 0, 65, 67
2, 237056, Note_off_c, 0, 65, 67
2, 237056, Note_off_c, 0, 75, 67
2, 237056, Note_on_c, 0, 63, 67
2, 237056, Note_on_c, 0, 67, 67
2, 237184, Note_off_c, 0, 67, 67
2, 237184, Note_on_c, 0, 68, 67
2, 237312, Note_off_c, 0, 63, 67
2, 237312, Note_off_c, 0, 68, 67
2, 237312, Note_on_c, 0, 65, 67
2, 237312, Note_on_c, 0, 70, 67
2, 237440, Note_off_c, 0, 70, 67
2, 237440, Note_on_c, 0, 72, 67
2, 237568, Note_off_c, 0, 65, 67
2, 237568, Note_off_c, 0, 72, 67
2, 237568, Note_on_c, 0, 79, 67
2, 238080, Note_off_c, 0, 79, 67
2, 238080, Note_on_c, 0, 82, 67
2, 238336, Control_c, 0, 93, 0
2, 238336, Note_on_c, 0, 68, 67
2, 238464, Note_off_c, 0, 68, 67
2, 238464, Note_on_c, 0, 70, 67
2, 238592, Note_off_c, 0, 70, 67
2, 238592, Note_off_c, 0, 82, 67
2, 238592, Note_on_c, 0, 72, 67
2, 238592, Note_on_c, 0, 80, 67
2, 238720, Note_off_c, 0, 72, 67
2, 238720, Note_off_c, 0, 80, 67
2, 238720, Note_on_c, 0, 70, 67
2, 238720, Note_on_c, 0, 82, 67
2, 238848, Note_off_c, 0, 70, 67
2, 238848, Note_off_c, 0, 82, 67
2, 238848, Note_on_c, 0, 68, 67
2, 238848, Note_on_c, 0, 80, 67
2, 238976, Note_off_c, 0, 80, 67
2, 238976, Note_on_c, 0, 79, 67
2, 239104, Note_off_c, 0, 68, 67
2, 239104, Note_off_c, 0, 79, 67
2, 239104, Note_on_c, 0, 65, 67
2, 239104, Note_on_c, 0, 77, 67
2, 239232, Note_off_c, 0, 65, 67
2, 239232, Note_on_c, 0, 67, 67
2, 239360, Note_off_c, 0, 67, 67
2, 239360, Note_on_c, 0, 68, 67
2, 239488, Note_off_c, 0, 68, 67
2, 239488, Note_on_c, 0, 70, 67
2, 239616, Note_off_c, 0, 70, 67
2, 239616, Note_off_c, 0, 77, 67
2, 239616, Note_on_c, 0, 68, 67
2, 239616, Note_on_c, 0, 74, 67
2, 239744, Note_off_c, 0, 68, 67
2, 239744, Note_on_c, 0, 67, 67
2, 239872, Note_off_c, 0, 67, 67
2, 239872, Note_on_c, 0, 65, 67
2, 240128, Note_off_c, 0, 65, 67
2, 240128, Note_off_c, 0, 74, 67
2, 240128, Note_on_c, 0, 77, 67
2, 240384, Control_c, 0, 93, 0
2, 240384, Note_on_c, 0, 65, 67
2, 240512, Note_off_c, 0, 65, 67
2, 240512, Note_on_c, 0, 70, 67
2, 240640, Note_off_c, 0, 70, 67
2, 240640, Note_off_c, 0, 77, 67
2, 240640, Note_on_c, 0, 67, 67
2, 240640, Note_on_c, 0, 79, 67
2, 240768, Note_off_c, 0, 67, 67
2, 240768, Note_off_c, 0, 79, 67
2, 240768, Note_on_c, 0, 68, 67
2, 240768, Note_on_c, 0, 80, 67
2, 240896, Note_off_c, 0, 68, 67
2, 240896, Note_off_c, 0, 80, 67
2, 240896, Note_on_c, 0, 70, 67
2, 240896, Note_on_c, 0, 79, 67
2, 241024, Note_off_c, 0, 70, 67
2, 241024, Note_off_c, 0, 79, 67
2, 241024, Note_on_c, 0, 72, 67
2, 241024, Note_on_c, 0, 77, 67
2, 241152, Note_off_c, 0, 72, 67
2, 241152, Note_off_c, 0, 77, 67
2, 241152, Note_on_c, 0, 70, 67
2, 241152, Note_on_c, 0, 75, 67
2, 241664, Note_off_c, 0, 70, 67
2, 241664, Note_off_c, 0, 75, 67
2, 241664, Note_on_c, 0, 75, 67
2, 241664, Note_on_c, 0, 79, 67
2, 241792, Note_off_c, 0, 75, 67
2, 241792, Note_on_c, 0, 74, 67
2, 241920, Note_off_c, 0, 74, 67
2, 241920, Note_on_c, 0, 72, 67
2, 242176, Note_off_c, 0, 72, 67
2, 242176, Note_off_c, 0, 79, 67
2, 242176, Note_on_c, 0, 70, 67
2, 242176, Note_on_c, 0, 82, 67
2, 242304, Note_off_c, 0, 70, 67
2, 242304, Note_on_c, 0, 72, 67
2, 242432, Note_off_c, 0, 72, 67
2, 242432, Note_on_c, 0, 74, 67
2, 242560, Note_off_c, 0, 74, 67
2, 242560, Note_on_c, 0, 75, 67
2, 242688, Note_off_c, 0, 75, 67
2, 242688, Note_off_c, 0, 82, 67
2, 242688, Note_on_c, 0, 77, 67
2, 242688, Note_on_c, 0, 80, 67
2, 242816, Note_off_c, 0, 77, 67
2, 242816, Note_off_c, 0, 80, 67
2, 242816, Note_on_c, 0, 75, 67
2, 242816, Note_on_c, 0, 79, 67
2, 242944, Note_off_c, 0, 75, 67
2, 242944, Note_off_c, 0, 79, 67
2, 242944, Note_on_c, 0, 74, 67
2, 242944, Note_on_c, 0, 80, 67
2, 243072, Note_off_c, 0, 80, 67
2, 243072, Note_on_c, 0, 82, 67
2, 243200, Note_off_c, 0, 74, 67
2, 243200, Note_off_c, 0, 82, 67
2, 243200, Note_on_c, 0, 72, 67
2, 243200, Note_on_c, 0, 84, 67
2, 243328, Note_off_c, 0, 72, 67
2, 243328, Note_on_c, 0, 74, 67
2, 243456, Note_off_c, 0, 74, 67
2, 243456, Note_on_c, 0, 75, 67
2, 243584, Note_off_c, 0, 75, 67
2, 243584, Note_on_c, 0, 77, 67
2, 243712, Note_off_c, 0, 77, 67
2, 243712, Note_off_c, 0, 84, 67
2, 243712, Note_on_c, 0, 74, 67
2, 243712, Note_on_c, 0, 82, 67
2, 243840, Note_off_c, 0, 74, 67
2, 243840, Note_on_c, 0, 72, 67
2, 243968, Note_off_c, 0, 72, 67
2, 243968, Note_off_c, 0, 82, 67
2, 243968, Note_on_c, 0, 70, 67
2, 243968, Note_on_c, 0, 80, 67
2, 244096, Note_off_c, 0, 80, 67
2, 244096, Note_on_c, 0, 79, 67
2, 244224, Note_off_c, 0, 70, 67
2, 244224, Note_off_c, 0, 79, 67
2, 244224, Note_on_c, 0, 68, 67
2, 244224, Note_on_c, 0, 80, 67
2, 244352, Note_off_c, 0, 68, 67
2, 244352, Note_on_c, 0, 70, 67
2, 244480, Note_off_c, 0, 70, 67
2, 244480, Note_on_c, 0, 72, 67
2, 244608, Note_off_c, 0, 72, 67
2, 244608, Note_on_c, 0, 68, 67
2, 244736, Note_off_c, 0, 68, 67
2, 244736, Note_off_c, 0, 80, 67
2, 244736, Note_on_c, 0, 70, 67
2, 244736, Note_on_c, 0, 79, 67
2, 244864, Note_off_c, 0, 70, 67
2, 244864, Note_off_c, 0, 79, 67
2, 244864, Note_on_c, 0, 68, 67
2, 244864, Note_on_c, 0, 80, 67
2, 244992, Note_off_c, 0, 68, 67
2, 244992, Note_off_c, 0, 80, 67
2, 244992, Note_on_c, 0, 67, 67
2, 244992, Note_on_c, 0, 79, 67
2, 245120, Note_off_c, 0, 67, 67
2, 245120, Note_off_c, 0, 79, 67
2, 245120, Note_on_c, 0, 65, 67
2, 245120, Note_on_c, 0, 77, 67
2, 245248, Note_off_c, 0, 65, 67
2, 245248, Note_off_c, 0, 77, 67
2, 245248, Note_on_c, 0, 63, 67
2, 245248, Note_on_c, 0, 75, 67
2, 245376, Note_off_c, 0, 63, 67
2, 245376, Note_on_c, 0, 65, 67
2, 245504, Note_off_c, 0, 65, 67
2, 245504, Note_on_c, 0, 67, 67
2, 245632, Note_off_c, 0, 67, 67
2, 245632, Note_on_c, 0, 68, 67
2, 245760, Note_off_c, 0, 68, 67
2, 245760, Note_off_c, 0, 75, 67
2, 245760, Time_signature, 4, 2, 24, 8
2, 245760, Key_signature, -3, "major"
2, 245760, Note_on_c, 0, 67, 67
2, 245760, Note_on_c, 0, 75, 67
2, 245888, Note_off_c, 0, 67, 67
2, 245888, Note_off_c, 0, 75, 67
2, 245888, Note_on_c, 0, 66, 67
2, 245888, Note_on_c, 0, 70, 67
2, 246016, Note_off_c, 0, 66, 67
2, 246016, Note_off_c, 0, 70, 67
2, 246016, Note_on_c, 0, 67, 67
2, 246016, Note_on_c, 0, 75, 67
2, 246144, Note_off_c, 0, 67, 67
2, 246144, Note_off_c, 0, 75, 67
2, 246144, Note_on_c, 0, 75, 67
2, 246144, Note_on_c, 0, 82, 67
2, 246400, Note_off_c, 0, 75, 67
2, 246400, Note_off_c, 0, 82, 67
2, 246400, Note_on_c, 0, 74, 67
2, 246400, Note_on_c, 0, 80, 67
2, 246528, Note_off_c, 0, 74, 67
2, 246528, Note_on_c, 0, 72, 67
2, 246656, Note_off_c, 0, 72, 67
2, 246656, Note_off_c, 0, 80, 67
2, 246656, Note_on_c, 0, 70, 67
2, 246656, Note_on_c, 0, 79, 67
2, 246784, Note_off_c, 0, 70, 67
2, 246784, Note_off_c, 0, 79, 67
2, 246784, Note_on_c, 0, 72, 67
2, 246784, Note_on_c, 0, 77, 67
2, 246912, Note_off_c, 0, 72, 67
2, 246912, Note_off_c, 0, 77, 67
2, 246912, Note_on_c, 0, 70, 67
2, 246912, Note_on_c, 0, 74, 67
2, 247040, Note_off_c, 0, 70, 67
2, 247040, Note_on_c, 0, 68, 67
2, 247168, Note_off_c, 0, 68, 67
2, 247168, Note_on_c, 0, 67, 67
2, 247296, Note_off_c, 0, 67, 67
2, 247296, Note_off_c, 0, 74, 67
2, 247296, Note_on_c, 0, 65, 67
2, 247296, Note_on_c, 0, 70, 67
2, 247424, Note_off_c, 0, 65, 67
2, 247424, Note_on_c, 0, 67, 67
2, 247552, Note_off_c, 0, 67, 67
2, 247552, Note_off_c, 0, 70, 67
2, 247552, Note_on_c, 0, 65, 67
2, 247552, Note_on_c, 0, 68, 67
2, 247680, Note_off_c, 0, 68, 67
2, 247680, Note_on_c, 0, 70, 67
2, 247808, Note_off_c, 0, 65, 67
2, 247808, Note_off_c, 0, 70, 67
2, 247808, Note_on_c, 0, 70, 67
2, 247808, Note_on_c, 0, 74, 67
2, 247936, Note_off_c, 0, 70, 67
2, 247936, Note_off_c, 0, 74, 67
2, 247936, Note_on_c, 0, 65, 67
2, 247936, Note_on_c, 0, 70, 67
2, 248064, Note_off_c, 0, 65, 67
2, 248064, Note_off_c, 0, 70, 67
2, 248064, Note_on_c, 0, 70, 67
2, 248064, Note_on_c, 0, 74, 67
2, 248192, Note_off_c, 0, 70, 67
2, 248192, Note_off_c, 0, 74, 67
2, 248192, Note_on_c, 0, 74, 67
2, 248192, Note_on_c, 0, 79, 67
2, 248448, Note_off_c, 0, 74, 67
2, 248448, Note_off_c, 0, 79, 67
2, 248448, Note_on_c, 0, 72, 67
2, 248448, Note_on_c, 0, 77, 67
2, 248576, Note_off_c, 0, 72, 67
2, 248576, Note_on_c, 0, 70, 67
2, 248704, Note_off_c, 0, 70, 67
2, 248704, Note_off_c, 0, 77, 67
2, 248704, Note_on_c, 0, 68, 67
2, 248704, Note_on_c, 0, 74, 67
2, 248832, Note_off_c, 0, 68, 67
2, 248832, Note_off_c, 0, 74, 67
2, 248832, Note_on_c, 0, 67, 67
2, 248832, Note_on_c, 0, 75, 67
2, 248960, Note_off_c, 0, 67, 67
2, 248960, Note_off_c, 0, 75, 67
2, 248960, Note_on_c, 0, 70, 67
2, 248960, Note_on_c, 0, 79, 67
2, 249088, Note_off_c, 0, 70, 67
2, 249088, Note_on_c, 0, 72, 67
2, 249216, Note_off_c, 0, 72, 67
2, 249216, Note_on_c, 0, 74, 67
2, 249344, Note_off_c, 0, 74, 67
2, 249344, Note_off_c, 0, 79, 67
2, 249344, Note_on_c, 0, 70, 67
2, 249344, Note_on_c, 0, 75, 67
2, 249472, Note_off_c, 0, 75, 67
2, 249472, Note_on_c, 0, 74, 67
2, 249600, Note_off_c, 0, 70, 67
2, 249600, Note_off_c, 0, 74, 67
2, 249600, Note_on_c, 0, 65, 67
2, 249600, Note_on_c, 0, 72, 67
2, 249728, Note_off_c, 0, 72, 67
2, 249728, Note_on_c, 0, 70, 67
2, 249856, Note_off_c, 0, 65, 67
2, 249856, Note_off_c, 0, 70, 67
2, 249856, Note_on_c, 0, 67, 67
2, 249856, Note_on_c, 0, 75, 67
2, 249984, Note_off_c, 0, 67, 67
2, 249984, Note_off_c, 0, 75, 67
2, 249984, Note_on_c, 0, 66, 67
2, 249984, Note_on_c, 0, 70, 67
2, 250112, Note_off_c, 0, 66, 67
2, 250112, Note_off_c, 0, 70, 67
2, 250112, Note_on_c, 0, 67, 67
2, 250112, Note_on_c, 0, 75, 67
2, 250240, Note_off_c, 0, 67, 67
2, 250240, Note_off_c, 0, 75, 67
2, 250240, Note_on_c, 0, 75, 67
2, 250240, Note_on_c, 0, 82, 67
2, 250496, Note_off_c, 0, 75, 67
2, 250496, Note_off_c, 0, 82, 67
2, 250496, Note_on_c, 0, 74, 67
2, 250496, Note_on_c, 0, 80, 67
2, 250624, Note_off_c, 0, 74, 67
2, 250624, Note_on_c, 0, 72, 67
2, 250752, Note_off_c, 0, 72, 67
2, 250752, Note_off_c, 0, 80, 67
2, 250752, Note_on_c, 0, 70, 67
2, 250752, Note_on_c, 0, 79, 67
2, 250880, Note_off_c, 0, 70, 67
2, 250880, Note_off_c, 0, 79, 67
2, 250880, Note_on_c, 0, 72, 67
2, 250880, Note_on_c, 0, 77, 67
2, 251008, Note_off_c, 0, 72, 67
2, 251008, Note_off_c, 0, 77, 67
2, 251008, Note_on_c, 0, 70, 67
2, 251008, Note_on_c, 0, 74, 67
2, 251136, Note_off_c, 0, 70, 67
2, 251136, Note_on_c, 0, 68, 67
2, 251264, Note_off_c, 0, 68, 67
2, 251264, Note_on_c, 0, 67, 67
2, 251392, Note_off_c, 0, 67, 67
2, 251392, Note_off_c, 0, 74, 67
2, 251392, Note_on_c, 0, 65, 67
2, 251392, Note_on_c, 0, 70, 67
2, 251520, Note_off_c, 0, 65, 67
2, 251520, Note_on_c, 0, 67, 67
2, 251648, Note_off_c, 0, 67, 67
2, 251648, Note_off_c, 0, 70, 67
2, 251648, Note_on_c, 0, 65, 67
2, 251648, Note_on_c, 0, 68, 67
2, 251776, Note_off_c, 0, 68, 67
2, 251776, Note_on_c, 0, 70, 67
2, 251904, Note_off_c, 0, 65, 67
2, 251904, Note_off_c, 0, 70, 67
2, 251904, Note_on_c, 0, 70, 67
2, 251904, Note_on_c, 0, 74, 67
2, 252032, Note_off_c, 0, 70, 67
2, 252032, Note_off_c, 0, 74, 67
2, 252032, Note_on_c, 0, 65, 67
2, 252032, Note_on_c, 0, 70, 67
2, 252160, Note_off_c, 0, 65, 67
2, 252160, Note_off_c, 0, 70, 67
2, 252160, Note_on_c, 0, 70, 67
2, 252160, Note_on_c, 0, 74, 67
2, 252288, Note_off_c, 0, 70, 67
2, 252288, Note_off_c, 0, 74, 67
2, 252288, Note_on_c, 0, 74, 67
2, 252288, Note_on_c, 0, 79, 67
2, 252544, Note_off_c, 0, 74, 67
2, 252544, Note_off_c, 0, 79, 67
2, 252544, Note_on_c, 0, 72, 67
2, 252544, Note_on_c, 0, 77, 67
2, 252672, Note_off_c, 0, 72, 67
2, 252672, Note_on_c, 0, 70, 67
2, 252800, Note_off_c, 0, 70, 67
2, 252800, Note_off_c, 0, 77, 67
2, 252800, Note_on_c, 0, 68, 67
2, 252800, Note_on_c, 0, 74, 67
2, 252928, Note_off_c, 0, 68, 67
2, 252928, Note_off_c, 0, 74, 67
2, 252928, Note_on_c, 0, 67, 67
2, 252928, Note_on_c, 0, 75, 67
2, 253056, Note_off_c, 0, 67, 67
2, 253056, Note_on_c, 0, 65, 67
2, 253184, Note_off_c, 0, 65, 67
2, 253184, Note_on_c, 0, 63, 67
2, 253312, Note_off_c, 0, 63, 67
2, 253312, Note_on_c, 0, 65, 67
2, 253440, Note_off_c, 0, 65, 67
2, 253440, Note_off_c, 0, 75, 67
2, 253440, Note_on_c, 0, 63, 67
2, 253440, Note_on_c, 0, 67, 67
2, 253568, Note_off_c, 0, 67, 67
2, 253568, Note_on_c, 0, 68, 67
2, 253696, Note_off_c, 0, 63, 67
2, 253696, Note_off_c, 0, 68, 67
2, 253696, Note_on_c, 0, 65, 67
2, 253696, Note_on_c, 0, 70, 67
2, 253824, Note_off_c, 0, 70, 67
2, 253824, Note_on_c, 0, 72, 67
2, 253952, Note_off_c, 0, 65, 67
2, 253952, Note_off_c, 0, 72, 67
2, 253952, Note_on_c, 0, 79, 67
2, 254464, Note_off_c, 0, 79, 67
2, 254464, Note_on_c, 0, 82, 67
2, 254720, Control_c, 0, 93, 0
2, 254720, Note_on_c, 0, 68, 67
2, 254848, Note_off_c, 0, 68, 67
2, 254848, Note_on_c, 0, 70, 67
2, 254976, Note_off_c, 0, 70, 67
2, 254976, Note_off_c, 0, 82, 67
2, 254976, Note_on_c, 0, 72, 67
2, 254976, Note_on_c, 0, 80, 67
2, 255104, Note_off_c, 0, 72, 67
2, 255104, Note_off_c, 0, 80, 67
2, 255104, Note_on_c, 0, 70, 67
2, 255104, Note_on_c, 0, 82, 67
2, 255232, Note_off_c, 0, 70, 67
2, 255232, Note_off_c, 0, 82, 67
2, 255232, Note_on_c, 0, 68, 67
2, 255232, Note_on_c, 0, 80, 67
2, 255360, Note_off_c, 0, 80, 67
2, 255360, Note_on_c, 0, 79, 67
2, 255488, Note_off_c, 0, 68, 67
2, 255488, Note_off_c, 0, 79, 67
2, 255488, Note_on_c, 0, 65, 67
2, 255488, Note_on_c, 0, 77, 67
2, 255616, Note_off_c, 0, 65, 67
2, 255616, Note_on_c, 0, 67, 67
2, 255744, Note_off_c, 0, 67, 67
2, 255744, Note_on_c, 0, 68, 67
2, 255872, Note_off_c, 0, 68, 67
2, 255872, Note_on_c, 0, 70, 67
2, 256000, Note_off_c, 0, 70, 67
2, 256000, Note_off_c, 0, 77, 67
2, 256000, Note_on_c, 0, 68, 67
2, 256000, Note_on_c, 0, 74, 67
2, 256128, Note_off_c, 0, 68, 67
2, 256128, Note_on_c, 0, 67, 67
2, 256256, Note_off_c, 0, 67, 67
2, 256256, Note_on_c, 0, 65, 67
2, 256512, Note_off_c, 0, 65, 67
2, 256512, Note_off_c, 0, 74, 67
2, 256512, Note_on_c, 0, 77, 67
2, 256768, Control_c, 0, 93, 0
2, 256768, Note_on_c, 0, 65, 67
2, 256896, Note_off_c, 0, 65, 67
2, 256896, Note_on_c, 0, 70, 67
2, 257024, Note_off_c, 0, 70, 67
2, 257024, Note_off_c, 0, 77, 67
2, 257024, Note_on_c, 0, 67, 67
2, 257024, Note_on_c, 0, 79, 67
2, 257152, Note_off_c, 0, 67, 67
2, 257152, Note_off_c, 0, 79, 67
2, 257152, Note_on_c, 0, 68, 67
2, 257152, Note_on_c, 0, 80, 67
2, 257280, Note_off_c, 0, 68, 67
2, 257280, Note_off_c, 0, 80, 67
2, 257280, Note_on_c, 0, 70, 67
2, 257280, Note_on_c, 0, 79, 67
2, 257408, Note_off_c, 0, 70, 67
2, 257408, Note_off_c, 0, 79, 67
2, 257408, Note_on_c, 0, 72, 67
2, 257408, Note_on_c, 0, 77, 67
2, 257536, Note_off_c, 0, 72, 67
2, 257536, Note_off_c, 0, 77, 67
2, 257536, Note_on_c, 0, 70, 67
2, 257536, Note_on_c, 0, 75, 67
2, 258048, Note_off_c, 0, 70, 67
2, 258048, Note_off_c, 0, 75, 67
2, 258048, Note_on_c, 0, 75, 67
2, 258048, Note_on_c, 0, 79, 67
2, 258176, Note_off_c, 0, 75, 67
2, 258176, Note_on_c, 0, 74, 67
2, 258304, Note_off_c, 0, 74, 67
2, 258304, Note_on_c, 0, 72, 67
2, 258560, Note_off_c, 0, 72, 67
2, 258560, Note_off_c, 0, 79, 67
2, 258560, Note_on_c, 0, 70, 67
2, 258560, Note_on_c, 0, 82, 67
2, 258688, Note_off_c, 0, 70, 67
2, 258688, Note_on_c, 0, 72, 67
2, 258816, Note_off_c, 0, 72, 67
2, 258816, Note_on_c, 0, 74, 67
2, 258944, Note_off_c, 0, 74, 67
2, 258944, Note_on_c, 0, 75, 67
2, 259072, Note_off_c, 0, 75, 67
2, 259072, Note_off_c, 0, 82, 67
2, 259072, Note_on_c, 0, 77, 67
2, 259072, Note_on_c, 0, 80, 67
2, 259200, Note_off_c, 0, 77, 67
2, 259200, Note_off_c, 0, 80, 67
2, 259200, Note_on_c, 0, 75, 67
2, 259200, Note_on_c, 0, 79, 67
2, 259328, Note_off_c, 0, 75, 67
2, 259328, Note_off_c, 0, 79, 67
2, 259328, Note_on_c, 0, 74, 67
2, 259328, Note_on_c, 0, 80, 67
2, 259456, Note_off_c, 0, 80, 67
2, 259456, Note_on_c, 0, 82, 67
2, 259584, Note_off_c, 0, 74, 67
2, 259584, Note_off_c, 0, 82, 67
2, 259584, Note_on_c, 0, 72, 67
2, 259584, Note_on_c, 0, 84, 67
2, 259712, Note_off_c, 0, 72, 67
2, 259712, Note_on_c, 0, 74, 67
2, 259840, Note_off_c, 0, 74, 67
2, 259840, Note_on_c, 0, 75, 67
2, 259968, Note_off_c, 0, 75, 67
2, 259968, Note_on_c, 0, 77, 67
2, 260096, Note_off_c, 0, 77, 67
2, 260096, Note_off_c, 0, 84, 67
2, 260096, Note_on_c, 0, 74, 67
2, 260096, Note_on_c, 0, 82, 67
2, 260224, Note_off_c, 0, 74, 67
2, 260224, Note_on_c, 0, 72, 67
2, 260352, Note_off_c, 0, 72, 67
2, 260352, Note_off_c, 0, 82, 67
2, 260352, Note_on_c, 0, 70, 67
2, 260352, Note_on_c, 0, 80, 67
2, 260480, Note_off_c, 0, 80, 67
2, 260480, Note_on_c, 0, 79, 67
2, 260608, Note_off_c, 0, 70, 67
2, 260608, Note_off_c, 0, 79, 67
2, 260608, Note_on_c, 0, 68, 67
2, 260608, Note_on_c, 0, 80, 67
2, 260736, Note_off_c, 0, 68, 67
2, 260736, Note_on_c, 0, 70, 67
2, 260864, Note_off_c, 0, 70, 67
2, 260864, Note_on_c, 0, 72, 67
2, 260992, Note_off_c, 0, 72, 67
2, 260992, Note_on_c, 0, 68, 67
2, 261120, Note_off_c, 0, 68, 67
2, 261120, Note_off_c, 0, 80, 67
2, 261120, Note_on_c, 0, 70, 67
2, 261120, Note_on_c, 0, 79, 67
2, 261248, Note_off_c, 0, 70, 67
2, 261248, Note_off_c, 0, 79, 67
2, 261248, Note_on_c, 0, 68, 67
2, 261248, Note_on_c, 0, 80, 67
2, 261376, Note_off_c, 0, 68, 67
2, 261376, Note_off_c, 0, 80, 67
2, 261376, Note_on_c, 0, 67, 67
2, 261376, Note_on_c, 0, 79, 67
2, 261504, Note_off_c, 0, 67, 67
2, 261504, Note_off_c, 0, 79, 67
2, 261504, Note_on_c, 0, 65, 67
2, 261504, Note_on_c, 0, 77, 67
2, 261632, Note_off_c, 0, 65, 67
2, 261632, Note_off_c, 0, 77, 67
2, 261632, Note_on_c, 0, 63, 67
2, 261632, Note_on_c, 0, 75, 67
2, 261760, Note_off_c, 0, 63, 67
2, 261760, Note_on_c, 0, 65, 67
2, 261888, Note_off_c, 0, 65, 67
2, 261888, Note_on_c, 0, 67, 67
2, 262016, Note_off_c, 0, 67, 67
2, 262016, Note_on_c, 0, 68, 67
2, 262144, Note_off_c, 0, 68, 67
2, 262144, Note_off_c, 0, 75, 67
2, 262144, Time_signature, 4, 2, 24, 8
2, 262144, Key_signature, -3, "major"
2, 262144, Note_on_c, 0, 67, 67
2, 262144, Note_on_c, 0, 75, 67
2, 262272, Note_off_c, 0, 67, 67
2, 262272, Note_off_c, 0, 75, 67
2, 262272, Note_on_c, 0, 66, 67
2, 262272, Note_on_c, 0, 70, 67
2, 262400, Note_off_c, 0, 66, 67
2, 262400, Note_off_c, 0, 70, 67
2, 262400, Note_on_c, 0, 67, 67
2, 262400, Note_on_c, 0, 75, 67
2, 262528, Note_off_c, 0, 67, 67
2, 262528, Note_off_c, 0, 75, 67
2, 262528, Note_on_c, 0, 75, 67
2, 262528, Note_on_c, 0, 82, 67
2, 262784, Note_off_c, 0, 75, 67
2, 262784, Note_off_c, 0, 82, 67
2, 262784, Note_on_c, 0, 74, 67
2, 262784, Note_on_c, 0, 80, 67
2, 262912, Note_off_c, 0, 74, 67
2, 262912, Note_on_c, 0, 72, 67
2, 263040, Note_off_c, 0, 72, 67
2, 263040, Note_off_c, 0, 80, 67
2, 263040, Note_on_c, 0, 70, 67
2, 263040, Note_on_c, 0, 79, 67
2, 263168, Note_off_c, 0, 70, 67
2, 263168, Note_off_c, 0, 79, 67
2, 263168, Note_on_c, 0, 72, 67
2, 263168, Note_on_c, 0, 77, 67
2, 263296, Note_off_c, 0, 72, 67
2, 263296, Note_off_c, 0, 77, 67
2, 263296, Note_on_c, 0, 70, 67
2, 263296, Note_on_c, 0, 74, 67
2, 263424, Note_off_c, 0, 70, 67
2, 263424, Note_on_c, 0, 68, 67
2, 263552, Note_off_c, 0, 68, 67
2, 263552, Note_on_c, 0, 67, 67
2, 263680, Note_off_c, 0, 67, 67
2, 263680, Note_off_c, 0, 74, 67
2, 263680, Note_on_c, 0, 65, 67
2, 263680, Note_on_c, 0, 70, 67
2, 263808, Note_off_c, 0, 65, 67
2, 263808, Note_on_c, 0, 67, 67
2, 263936, Note_off_c, 0, 67, 67
2, 263936, Note_off_c, 0, 70, 67
2, 263936, Note_on_c, 0, 65, 67
2, 263936, Note_on_c, 0, 68, 67
2, 264064, Note_off_c, 0, 68, 67
2, 264064, Note_on_c, 0, 70, 67
2, 264192, Note_off_c, 0, 65, 67
2, 264192, Note_off_c, 0, 70, 67
2, 264192, Note_on_c, 0, 70, 67
2, 264192, Note_on_c, 0, 74, 67
2, 264320, Note_off_c, 0, 70, 67
2, 264320, Note_off_c, 0, 74, 67
2, 264320, Note_on_c, 0, 65, 67
2, 264320, Note_on_c, 0, 70, 67
2, 264448, Note_off_c, 0, 65, 67
2, 264448, Note_off_c, 0, 70, 67
2, 264448, Note_on_c, 0, 70, 67
2, 264448, Note_on_c, 0, 74, 67
2, 264576, Note_off_c, 0, 70, 67
2, 264576, Note_off_c, 0, 74, 67
2, 264576, Note_on_c, 0, 74, 67
2, 264576, Note_on_c, 0, 79, 67
2, 264832, Note_off_c, 0, 74, 67
2, 264832, Note_off_c, 0, 79, 67
2, 264832, Note_on_c, 0, 72, 67
2, 264832, Note_on_c, 0, 77, 67
2, 264960, Note_off_c, 0, 72, 67
2, 264960, Note_on_c, 0, 70, 67
2, 265088, Note_off_c, 0, 70, 67
2, 265088, Note_off_c, 0, 77, 67
2, 265088, Note_on_c, 0, 68, 67
2, 265088, Note_on_c, 0, 74, 67
2, 265216, Note_off_c, 0, 68, 67
2, 265216, Note_off_c, 0, 74, 67
2, 265216, Note_on_c, 0, 67, 67
2, 265216, Note_on_c, 0, 75, 67
2, 265344, Note_off_c, 0, 67, 67
2, 265344, Note_off_c, 0, 75, 67
2, 265344, Note_on_c, 0, 70, 67
2, 265344, Note_on_c, 0, 79, 67
2, 265472, Note_off_c, 0, 70, 67
2, 265472, Note_on_c, 0, 72, 67
2, 265600, Note_off_c, 0, 72, 67
2, 265600, Note_on_c, 0, 74, 67
2, 265728, Note_off_c, 0, 74, 67
2, 265728, Note_off_c, 0, 79, 67
2, 265728, Note_on_c, 0, 70, 67
2, 265728, Note_on_c, 0, 75, 67
2, 265856, Note_off_c, 0, 75, 67
2, 265856, Note_on_c, 0, 74, 67
2, 265984, Note_off_c, 0, 70, 67
2, 265984, Note_off_c, 0, 74, 67
2, 265984, Note_on_c, 0, 65, 67
2, 265984, Note_on_c, 0, 72, 67
2, 266112, Note_off_c, 0, 72, 67
2, 266112, Note_on_c, 0, 70, 67
2, 266240, Note_off_c, 0, 65, 67
2, 266240, Note_off_c, 0, 70, 67
2, 266240, Note_on_c, 0, 67, 67
2, 266240, Note_on_c, 0, 75, 67
2, 266368, Note_off_c, 0, 67, 67
2, 266368, Note_off_c, 0, 75, 67
2, 266368, Note_on_c, 0, 66, 67
2, 266368, Note_on_c, 0, 70, 67
2, 266496, Note_off_c, 0, 66, 67
2, 266496, Note_off_c, 0, 70, 67
2, 266496, Note_on_c, 0, 67, 67
2, 266496, Note_on_c, 0, 75, 67
2, 266624, Note_off_c, 0, 67, 67
2, 266624, Note_off_c, 0, 75, 67
2, 266624, Note_on_c, 0, 75, 67
2, 266624, Note_on_c, 0, 82, 67
2, 266880, Note_off_c, 0, 75, 67
2, 266880, Note_off_c, 0, 82, 67
2, 266880, Note_on_c, 0, 74, 67
2, 266880, Note_on_c, 0, 80, 67
2, 267008, Note_off_c, 0, 74, 67
2, 267008, Note_on_c, 0, 72, 67
2, 267136, Note_off_c, 0, 72, 67
2, 267136, Note_off_c, 0, 80, 67
2, 267136, Note_on_c, 0, 70, 67
2, 267136, Note_on_c, 0, 79, 67
2, 267264, Note_off_c, 0, 70, 67
2, 267264, Note_off_c, 0, 79, 67
2, 267264, Note_on_c, 0, 72, 67
2, 267264, Note_on_c, 0, 77, 67
2, 267392, Note_off_c, 0, 72, 67
2, 267392, Note_off_c, 0, 77, 67
2, 267392, Note_on_c, 0, 70, 67
2, 267392, Note_on_c, 0, 74, 67
2, 267520, Note_off_c, 0, 70, 67
2, 267520, Note_on_c, 0, 68, 67
2, 267648, Note_off_c, 0, 68, 67
2, 267648, Note_on_c, 0, 67, 67
2, 267776, Note_off_c, 0, 67, 67
2, 267776, Note_off_c, 0, 74, 67
2, 267776, Note_on_c, 0, 65, 67
2, 267776, Note_on_c, 0, 70, 67
2, 267904, Note_off_c, 0, 65, 67
2, 267904, Note_on_c, 0, 67, 67
2, 268032, Note_off_c, 0, 67, 67
2, 268032, Note_off_c, 0, 70, 67
2, 268032, Note_on_c, 0, 65, 67
2, 268032, Note_on_c, 0, 68, 67
2, 268160, Note_off_c, 0, 68, 67
2, 268160, Note_on_c, 0, 70, 67
2, 268288, Note_off_c, 0, 65, 67
2, 268288, Note_off_c, 0, 70, 67
2, 268288, Note_on_c, 0, 70, 67
2, 268288, Note_on_c, 0, 74, 67
2, 268416, Note_off_c, 0, 70, 67
2, 268416, Note_off_c, 0, 74, 67
2, 268416, Note_on_c, 0, 65, 67
2, 268416, Note_on_c, 0, 70, 67
2, 268544, Note_off_c, 0, 65, 67
2, 268544, Note_off_c, 0, 70, 67
2, 268544, Note_on_c, 0, 70, 67
2, 268544, Note_on_c, 0, 74, 67
2, 268672, Note_off_c, 0, 70, 67
2, 268672, Note_off_c, 0, 74, 67
2, 268672, Note_on_c, 0, 74, 67
2, 268672, Note_on_c, 0, 79, 67
2, 268928, Note_off_c, 0, 74, 67
2, 268928, Note_off_c, 0, 79, 67
2, 268928, Note_on_c, 0, 72, 67
2, 268928, Note_on_c, 0, 77, 67
2, 269056, Note_off_c, 0, 72, 67
2, 269056, Note_on_c, 0, 70, 67
2, 269184, Note_off_c, 0, 70, 67
2, 269184, Note_off_c, 0, 77, 67
2, 269184, Note_on_c, 0, 68, 67
2, 269184, Note_on_c, 0, 74, 67
2, 269312, Note_off_c, 0, 68, 67
2, 269312, Note_off_c, 0, 74, 67
2, 269312, Note_on_c, 0, 67, 67
2, 269312, Note_on_c, 0, 75, 67
2, 269440, Note_off_c, 0, 67, 67
2, 269440, Note_on_c, 0, 65, 67
2, 269568, Note_off_c, 0, 65, 67
2, 269568, Note_on_c, 0, 63, 67
2, 269696, Note_off_c, 0, 63, 67
2, 269696, Note_on_c, 0, 65, 67
2, 269824, Note_off_c, 0, 65, 67
2, 269824, Note_off_c, 0, 75, 67
2, 269824, Note_on_c, 0, 63, 67
2, 269824, Note_on_c, 0, 67, 67
2, 269952, Note_off_c, 0, 67, 67
2, 269952, Note_on_c, 0, 68, 67
2, 270080, Note_off_c, 0, 63, 67
2, 270080, Note_off_c, 0, 68, 67
2, 270080, Note_on_c, 0, 65, 67
2, 270080, Note_on_c, 0, 70, 67
2, 270208, Note_off_c, 0, 70, 67
2, 270208, Note_on_c, 0, 72, 67
2, 270336, Note_off_c, 0, 65, 67
2, 270336, Note_off_c, 0, 72, 67
2, 270336, Note_on_c, 0, 79, 67
2, 270848, Note_off_c, 0, 79, 67
2, 270848, Note_on_c, 0, 82, 67
2, 271104, Control_c, 0, 93, 0
2, 271104, Note_on_c, 0, 68, 67
2, 271232, Note_off_c, 0, 68, 67
2, 271232, Note_on_c, 0, 70, 67
2, 271360, Note_off_c, 0, 70, 67
2, 271360, Note_off_c, 0, 82, 67
2, 271360, Note_on_c, 0, 72, 67
2, 271360, Note_on_c, 0, 80, 67
2, 271488, Note_off_c, 0, 72, 67
2, 271488, Note_off_c, 0, 80, 67
2, 271488, Note_on_c, 0, 70, 67
2, 271488, Note_on_c, 0, 82, 67
2, 271616, Note_off_c, 0, 70, 67
2, 271616, Note_off_c, 0, 82, 67
2, 271616, Note_on_c, 0, 68, 67
2, 271616, Note_on_c, 0, 80, 67
2, 271744, Note_off_c, 0, 80, 67
2, 271744, Note_on_c, 0, 79, 67
2, 271872, Note_off_c, 0, 68, 67
2, 271872, Note_off_c, 0, 79, 67
2, 271872, Note_on_c, 0, 65, 67
2, 271872, Note_on_c, 0, 77, 67
2, 272000, Note_off_c, 0, 65, 67
2, 272000, Note_on_c, 0, 67, 67
2, 272128, Note_off_c, 0, 67, 67
2, 272128, Note_on_c, 0, 68, 67
2, 272256, Note_off_c, 0, 68, 67
2, 272256, Note_on_c, 0, 70, 67
2, 272384, Note_off_c, 0, 70, 67
2, 272384, Note_off_c, 0, 77, 67
2, 272384, Note_on_c, 0, 68, 67
2, 272384, Note_on_c, 0, 74, 67
2, 272512, Note_off_c, 0, 68, 67
2, 272512, Note_on_c, 0, 67, 67
2, 272640, Note_off_c, 0, 67, 67
2, 272640, Note_on_c, 0, 65, 67
2, 272896, Note_off_c, 0, 65, 67
2, 272896, Note_off_c, 0, 74, 67
2, 272896, Note_on_c, 0, 77, 67
2, 273152, Control_c, 0, 93, 0
2, 273152, Note_on_c, 0, 65, 67
2, 273280, Note_off_c, 0, 65, 67
2, 273280, Note_on_c, 0, 70, 67
2, 273408, Note_off_c, 0, 70, 67
2, 273408, Note_off_c, 0, 77, 67
2, 273408, Note_on_c, 0, 67, 67
2, 273408, Note_on_c, 0, 79, 67
2, 273536, Note_off_c, 0, 67, 67
2, 273536, Note_off_c, 0, 79, 67
2, 273536, Note_on_c, 0, 68, 67
2, 273536, Note_on_c, 0, 80, 67
2, 273664, Note_off_c, 0, 68, 67
2, 273664, Note_off_c, 0, 80, 67
2, 273664, Note_on_c, 0, 70, 67
2, 273664, Note_on_c, 0, 79, 67
2, 273792, Note_off_c, 0, 70, 67
2, 273792, Note_off_c, 0, 79, 67
2, 273792, Note_on_c, 0, 72, 67
2, 273792, Note_on_c, 0, 77, 67
2, 273920, Note_off_c, 0, 72, 67
2, 273920, Note_off_c, 0, 77, 67
2, 273920, Note_on_c, 0, 70, 67
2, 273920, Note_on_c, 0, 75, 67
2, 274432, Note_off_c, 0, 70, 67
2, 274432, Note_off_c, 0, 75, 67
2, 274432, Note_on_c, 0, 75, 67
2, 274432, Note_on_c, 0, 79, 67
2, 274560, Note_off_c, 0, 75, 67
2, 274560, Note_on_c, 0, 74, 67
2, 274688, Note_off_c, 0, 74, 67
2, 274688, Note_on_c, 0, 72, 67
2, 274944, Note_off_c, 0, 72, 67
2, 274944, Note_off_c, 0, 79, 67
2, 274944, Note_on_c, 0, 70, 67
2, 274944, Note_on_c, 0, 82, 67
2, 275072, Note_off_c, 0, 70, 67
2, 275072, Note_on_c, 0, 72, 67
2, 275200, Note_off_c, 0, 72, 67
2, 275200, Note_on_c, 0, 74, 67
2, 275328, Note_off_c, 0, 74, 67
2, 275328, Note_on_c, 0, 75, 67
2, 275456, Note_off_c, 0, 75, 67
2, 275456, Note_off_c, 0, 82, 67
2, 275456, Note_on_c, 0, 77, 67
2, 275456, Note_on_c, 0, 80, 67
2, 275584, Note_off_c, 0, 77, 67
2, 275584, Note_off_c, 0, 80, 67
2, 275584, Note_on_c, 0, 75, 67
2, 275584, Note_on_c, 0, 79, 67
2, 275712, Note_off_c, 0, 75, 67
2, 275712, Note_off_c, 0, 79, 67
2, 275712, Note_on_c, 0, 74, 67
2, 275712, Note_on_c, 0, 80, 67
2, 275840, Note_off_c, 0, 80, 67
2, 275840, Note_on_c, 0, 82, 67
2, 275968, Note_off_c, 0, 74, 67
2, 275968, Note_off_c, 0, 82, 67
2, 275968, Note_on_c, 0, 72, 67
2, 275968, Note_on_c, 0, 84, 67
2, 276096, Note_off_c, 0, 72, 67
2, 276096, Note_on_c, 0, 74, 67
2, 276224, Note_off_c, 0, 74, 67
2, 276224, Note_on_c, 0, 75, 67
2, 276352, Note_off_c, 0, 75, 67
2, 276352, Note_on_c, 0, 77, 67
2, 276480, Note_off_c, 0, 77, 67
2, 276480, Note_off_c, 0, 84, 67
2, 276480, Note_on_c, 0, 74, 67
2, 276480, Note_on_c, 0, 82, 67
2, 276608, Note_off_c, 0, 74, 67
2, 276608, Note_on_c, 0, 72, 67
2, 276736, Note_off_c, 0, 72, 67
2, 276736, Note_off_c, 0, 82, 67
2, 276736, Note_on_c, 0, 70, 67
2, 276736, Note_on_c, 0, 80, 67
2, 276864, Note_off_c, 0, 80, 67
2, 276864, Note_on_c, 0, 79, 67
2, 276992, Note_off_c, 0, 70, 67
2, 276992, Note_off_c, 0, 79, 67
2, 276992, Note_on_c, 0, 68, 67
2, 276992, Note_on_c, 0, 80, 67
2, 277120, Note_off_c, 0, 68, 67
2, 277120, Note_on_c, 0, 70, 67
2, 277248, Note_off_c, 0, 70, 67
2, 277248, Note_on_c, 0, 72, 67
2, 277376, Note_off_c, 0, 72, 67
2, 277376, Note_on_c, 0, 68, 67
2, 277504, Note_off_c, 0, 68, 67
2, 277504, Note_off_c, 0, 80, 67
2, 277504, Note_on_c, 0, 70, 67
2, 277504, Note_on_c, 0, 79, 67
2, 277632, Note_off_c, 0, 70, 67
2, 277632, Note_off_c, 0, 79, 67
2, 277632, Note_on_c, 0, 68, 67
2, 277632, Note_on_c, 0, 80, 67
2, 277760, Note_off_c, 0, 68, 67
2, 277760, Note_off_c, 0, 80, 67
2, 277760, Note_on_c, 0, 67, 67
2, 277760, Note_on_c, 0, 79, 67
2, 277888, Note_off_c, 0, 67, 67
2, 277888, Note_off_c, 0, 79, 67
2, 277888, Note_on_c, 0, 65, 67
2, 277888, Note_on_c, 0, 77, 67
2, 278016, Note_off_c, 0, 65, 67
2, 278016, Note_off_c, 0, 77, 67
2, 278016, Note_on_c, 0, 63, 67
2, 278016, Note_on_c, 0, 75, 67
2, 278144, Note_off_c, 0, 63, 67
2, 278144, Note_on_c, 0, 65, 67
2, 278272, Note_off_c, 0, 65, 67
2, 278272, Note_on_c, 0, 67, 67
2, 278400, Note_off_c, 0, 67, 67
2, 278400, Note_on_c, 0, 68, 67
2, 278528, Note_off_c, 0, 68, 67
2, 278528, Note_off_c, 0, 75, 67
2, 278528, Time_signature, 4, 2, 24, 8
2, 278528, Key_signature, -3, "major"
2, 278528, Note_on_c, 0, 67, 67
2, 278528, Note_on_c, 0, 75, 67
2, 278656, Note_off_c, 0, 67, 67
2, 278656, Note_off_c, 0, 75, 67
2, 278656, Note_on_c, 0, 66, 67
2, 278656, Note_on_c, 0, 70, 67
2, 278784, Note_off_c, 0, 66, 67
2, 278784, Note_off_c, 0, 70, 67
2, 278784, Note_on_c, 0, 67, 67
2, 278784, Note_on_c, 0, 75, 67
2, 278912, Note_off_c, 0, 67, 67
2, 278912, Note_off_c, 0, 75, 67
2, 278912, Note_on_c, 0, 75, 67
2, 278912, Note_on_c, 0, 82, 67
2, 279168, Note_off_c, 0, 75, 67
2, 279168, Note_off_c, 0, 82, 67
2, 279168, Note_on_c, 0, 74, 67
2, 279168, Note_on_c, 0, 80, 67
2, 279296, Note_off_c, 0, 74, 67
2, 279296, Note_on_c, 0, 72, 67
2, 279424, Note_off_c, 0, 72, 67
2, 279424, Note_off_c, 0, 80, 67
2, 279424, Note_on_c, 0, 70, 67
2, 279424, Note_on_c, 0, 79, 67
2, 279552, Note_off_c, 0, 70, 67
2, 279552, Note_off_c, 0, 79, 67
2, 279552, Note_on_c, 0, 72, 67
2, 279552, Note_on_c, 0, 77, 67
2, 279680, Note_off_c, 0, 72, 67
2, 279680, Note_off_c, 0, 77, 67
2, 279680, Note_on_c, 0, 70, 67
2, 279680, Note_on_c, 0, 74, 67
2, 279808, Note_off_c, 0, 70, 67
2, 279808, Note_on_c, 0, 68, 67
2, 279936, Note_off_c, 0, 68, 67
2, 279936, Note_on_c, 0, 67, 67
2, 280064, Note_off_c, 0, 67, 67
2, 280064, Note_off_c, 0, 74, 67
2, 280064, Note_on_c, 0, 65, 67
2, 280064, Note_on_c, 0, 70, 67
2, 280192, Note_off_c, 0, 65, 67
2, 280192, Note_on_c, 0, 67, 67
2, 280320, Note_off_c, 0, 67, 67
2, 280320, Note_off_c, 0, 70, 67
2, 280320, Note_on_c, 0, 65, 67
2, 280320, Note_on_c, 0, 68, 67
2, 280448, Note_off_c, 0, 68, 67
2, 280448, Note_on_c, 0, 70, 67
2, 280576, Note_off_c, 0, 65, 67
2, 280576, Note_off_c, 0, 70, 67
2, 280576, Note_on_c, 0, 70, 67
2, 280576, Note_on_c, 0, 74, 67
2, 280704, Note_off_c, 0, 70, 67
2, 280704, Note_off_c, 0, 74, 67
2, 280704, Note_on_c, 0, 65, 67
2, 280704, Note_on_c, 0, 70, 67
2, 280832, Note_off_c, 0, 65, 67
2, 280832, Note_off_c, 0, 70, 67
2, 280832, Note_on_c, 0, 70, 67
2, 280832, Note_on_c, 0, 74, 67
2, 280960, Note_off_c, 0, 70, 67
2, 280960, Note_off_c, 0, 74, 67
2, 280960, Note_on_c, 0, 74, 67
2, 280960, Note_on_c, 0, 79, 67
2, 281216, Note_off_c, 0, 74, 67
2, 281216, Note_off_c, 0, 79, 67
2, 281216, Note_on_c, 0, 72, 67
2, 281216, Note_on_c, 0, 77, 67
2, 281344, Note_off_c, 0, 72, 67
2, 281344, Note_on_c, 0, 70, 67
2, 281472, Note_off_c, 0, 70, 67
2, 281472, Note_off_c, 0, 77, 67
2, 281472, Note_on_c, 0, 68, 67
2, 281472, Note_on_c, 0, 74, 67
2, 281600, Note_off_c, 0, 68, 67
2, 281600, Note_off_c, 0, 74, 67
2, 281600, Note_on_c, 0, 67, 67
2, 281600, Note_on_c, 0, 75, 67
2, 281728, Note_off_c, 0, 67, 67
2, 281728, Note_off_c, 0, 75, 67
2, 281728, Note_on_c, 0, 70, 67
2, 281728, Note_on_c, 0, 79, 67
2, 281856, Note_off_c, 0, 70, 67
2, 281856, Note_on_c, 0, 72, 67
2, 281984, Note_off_c, 0, 72, 67
2, 281984, Note_on_c, 0, 74, 67
2, 282112, Note_off_c, 0, 74, 67
2, 282112, Note_off_c, 0, 79, 67
2, 282112, Note_on_c, 0, 70, 67
2, 282112, Note_on_c, 0, 75, 67
2, 282240, Note_off_c, 0, 75, 67
2, 282240, Note_on_c, 0, 74, 67
2, 282368, Note_off_c, 0, 70, 67
2, 282368, Note_off_c, 0, 74, 67
2, 282368, Note_on_c, 0, 65, 67
2, 282368, Note_on_c, 0, 72, 67
2, 282496, Note_off_c, 0, 72, 67
2, 282496, Note_on_c, 0, 70, 67
2, 282624, Note_off_c, 0, 65, 67
2, 282624, Note_off_c, 0, 70, 67
2, 282624, Note_on_c, 0, 67, 67
2, 282624, Note_on_c, 0, 75, 67
2, 282752, Note_off_c, 0, 67, 67
2, 282752, Note_off_c, 0, 75, 67
2, 282752, Note_on_c, 0, 66, 67
2, 282752, Note_on_c, 0, 70, 67
2, 282880, Note_off_c, 0, 66, 67
2, 282880, Note_off_c, 0, 70, 67
2, 282880, Note_on_c, 0, 67, 67
2, 282880, Note_on_c, 0, 75, 67
2, 283008, Note_off_c, 0, 67, 67
2, 283008, Note_off_c, 0, 75, 67
2, 283008, Note_on_c, 0, 75, 67
2, 283008, Note_on_c, 0, 82, 67
2, 283264, Note_off_c, 0, 75, 67
2, 283264, Note_off_c, 0, 82, 67
2, 283264, Note_on_c, 0, 74, 67
2, 283264, Note_on_c, 0, 80, 67
2, 283392, Note_off_c, 0, 74, 67
2, 283392, Note_on_c, 0, 72, 67
2, 283520, Note_off_c, 0, 72, 67
2, 283520, Note_off_c, 0, 80, 67
2, 283520, Note_on_c, 0, 70, 67
2, 283520, Note_on_c, 0, 79, 67
2, 283648, Note_off_c, 0, 70, 67
2, 283648, Note_off_c, 0, 79, 67
2, 283648, Note_on_c, 0, 72, 67
2, 283648, Note_on_c, 0, 77, 67
2, 283776, Note_off_c, 0, 72, 67
2, 283776, Note_off_c, 0, 77, 67
2, 283776, Note_on_c, 0, 70, 67
2, 283776, Note_on_c, 0, 74, 67
2, 283904, Note_off_c, 0, 70, 67
2, 283904, Note_on_c, 0, 68, 67
2, 284032, Note_off_c, 0, 68, 67
2, 284032, Note_on_c, 0, 67, 67
2, 284160, Note_off_c, 0, 67, 67
2, 284160, Note_off_c, 0, 74, 67
2, 284160, Note_on_c, 0, 65, 67
2, 284160, Note_on_c, 0, 70, 67
2, 284288, Note_off_c, 0, 65, 67
2, 284288, Note_on_c, 0, 67, 67
2, 284416, Note_off_c, 0, 67, 67
2, 284416, Note_off_c, 0, 70, 67
2, 284416, Note_on_c, 0, 65, 67
2, 284416, Note_on_c, 0, 68, 67
2, 284544, Note_off_c, 0, 68, 67
2, 284544, Note_on_c, 0, 70, 67
2, 284672, Note_off_c, 0, 65, 67
2, 284672, Note_off_c, 0, 70, 67
2, 284672, Note_on_c, 0, 70, 67
2, 284672, Note_on_c, 0, 74, 67
2, 284800, Note_off_c, 0, 70, 67
2, 284800, Note_off_c, 0, 74, 67
2, 284800, Note_on_c, 0, 65, 67
2, 284800, Note_on_c, 0, 70, 67
2, 284928, Note_off_c, 0, 65, 67
2, 284928, Note_off_c, 0, 70, 67
2, 284928, Note_on_c, 0, 70, 67
2, 284928, Note_on_c, 0, 74, 67
2, 285056, Note_off_c, 0, 70, 67
2, 285056, Note_off_c, 0, 74, 67
2, 285056, Note_on_c, 0, 74, 67
2, 285056, Note_on_c, 0, 79, 67
2, 285312, Note_off_c, 0, 74, 67
2, 285312, Note_off_c, 0, 79, 67
2, 285312, Note_on_c, 0, 72, 67
2, 285312, Note_on_c, 0, 77, 67
2, 285440, Note_off_c, 0, 72, 67
2, 285440, Note_on_c, 0, 70, 67
2, 285568, Note_off_c, 0, 70, 67
2, 285568, Note_off_c, 0, 77, 67
2, 285568, Note_on_c, 0, 68, 67
2, 285568, Note_on_c, 0, 74, 67
2, 285696, Note_off_c, 0, 68, 67
2, 285696, Note_off_c, 0, 74, 67
2, 285696, Note_on_c, 0, 67, 67
2, 285696, Note_on_c, 0, 75, 67
2, 285824, Note_off_c, 0, 67, 67
2, 285824, Note_on_c, 0, 65, 67
2, 285952, Note_off_c, 0, 65, 67
2, 285952, Note_on_c, 0, 63, 67
2, 286080, Note_off_c, 0, 63, 67
2, 286080, Note_on_c, 0, 65, 67
2, 286208, Note_off_c, 0, 65, 67
2, 286208, Note_off_c, 0, 75, 67
2, 286208, Note_on_c, 0, 63, 67
2, 286208, Note_on_c, 0, 67, 67
2, 286336, Note_off_c, 0, 67, 67
2, 286336, Note_on_c, 0, 68, 67
2, 286464, Note_off_c, 0, 63, 67
2, 286464, Note_off_c, 0, 68, 67
2, 286464, Note_on_c, 0, 65, 67
2, 286464, Note_on_c, 0, 70, 67
2, 286592, Note_off_c, 0, 70, 67
2, 286592, Note_on_c, 0, 72, 67
2, 286720, Note_off_c, 0, 65, 67
2, 286720, Note_off_c, 0, 72, 67
2, 286720, Note_on_c, 0, 79, 67
2, 287232, Note_off_c, 0, 79, 67
2, 287232, Note_on_c, 0, 82, 67
2, 287488, Control_c, 0, 93, 0
2, 287488, Note_on_c, 0, 68, 67
2, 287616, Note_off_c, 0, 68, 67
2, 287616, Note_on_c, 0, 70, 67
2, 287744, Note_off_c, 0, 70, 67
2, 287744, Note_off_c, 0, 82, 67
2, 287744, Note_on_c, 0, 72, 67
2, 287744, Note_on_c, 0, 80, 67
2, 287872, Note_off_c, 0, 72, 67
2, 287872, Note_off_c, 0, 80, 67
2, 287872, Note_on_c, 0, 70, 67
2, 287872, Note_on_c, 0, 82, 67
2, 288000, Note_off_c, 0, 70, 67
2, 288000, Note_off_c, 0, 82, 67
2, 288000, Note_on_c, 0, 68, 67
2, 288000, Note_on_c, 0, 80, 67
2, 288128, Note_off_c, 0, 80, 67
2, 288128, Note_on_c, 0, 79, 67
2, 288256, Note_off_c, 0, 68, 67
2, 288256, Note_off_c, 0, 79, 67
2, 288256, Note_on_c, 0, 65, 67
2, 288256, Note_on_c, 0, 77, 67
2, 288384, Note_off_c, 0, 65, 67
2, 288384, Note_on_c, 0, 67, 67
2, 288512, Note_off_c, 0, 67, 67
2, 288512, Note_on_c, 0, 68, 67
2, 288640, Note_off_c, 0, 68, 67
2, 288640, Note_on_c, 0, 70, 67
2, 288768, Note_off_c, 0, 70, 67
2, 288768, Note_off_c, 0, 77, 67
2, 288768, Note_on_c, 0, 68, 67
2, 288768, Note_on_c, 0, 74, 67
2, 288896, Note_off_c, 0, 68, 67
2, 288896, Note_on_c, 0, 67, 67
2, 289024, Note_off_c, 0, 67, 67
2, 289024, Note_on_c, 0, 65, 67
2, 289280, Note_off_c, 0, 65, 67
2, 289280, Note_off_c, 0, 74, 67
2, 289280, Note_on_c, 0, 77, 67
2, 289536, Control_c, 0, 93, 0
2, 289536, Note_on_c, 0, 65, 67
2, 289664, Note_off_c, 0, 65, 67
2, 289664, Note_on_c, 0, 70, 67
2, 289792, Note_off_c, 0, 70, 67
2, 289792, Note_off_c, 0, 77, 67
2, 289792, Note_on_c, 0, 67, 67
2, 289792, Note_on_c, 0, 79, 67
2, 289920, Note_off_c, 0, 67, 67
2, 289920, Note_off_c, 0, 79, 67
2, 289920, Note_on_c, 0, 68, 67
2, 289920, Note_on_c, 0, 80, 67
2, 290048, Note_off_c, 0, 68, 67
2, 290048, Note_off_c, 0, 80, 67
2, 290048, Note_on_c, 0, 70, 67
2, 290048, Note_on_c, 0, 79, 67
2, 290176, Note_off_c, 0, 70, 67
2, 290176, Note_off_c, 0, 79, 67
2, 290176, Note_on_c, 0, 72, 67
2, 290176, Note_on_c, 0, 77, 67
2, 290304, Note_off_c, 0, 72, 67
2, 290304, Note_off_c, 0, 77, 67
2, 290304, Note_on_c, 0, 70, 67
2, 290304, Note_on_c, 0, 75, 67
2, 290816, Note_off_c, 0, 70, 67
2, 290816, Note_off_c, 0, 75, 67
2, 290816, Note_on_c, 0, 75, 67
2, 290816, Note_on_c, 0, 79, 67
2, 290944, Note_off_c, 0, 75, 67
2, 290944, Note_on_c, 0, 74, 67
2, 291072, Note_off_c, 0, 74, 67
2, 291072, Note_on_c, 0, 72, 67
2, 291328, Note_off_c, 0, 72, 67
2, 291328, Note_off_c, 0, 79, 67
2, 291328, Note_on_c, 0, 70, 67
2, 291328, Note_on_c, 0, 82, 67
2, 291456, Note_off_c, 0, 70, 67
2, 291456, Note_on_c, 0, 72, 67
2, 291584, Note_off_c, 0, 72, 67
2, 291584, Note_on_c, 0, 74, 67
2, 291712, Note_off_c, 0, 74, 67
2, 291712, Note_on_c, 0, 75, 67
2, 291840, Note_off_c, 0, 75, 67
2, 291840, Note_off_c, 0, 82, 67
2, 291840, Note_on_c, 0, 77, 67
2, 291840, Note_on_c, 0, 80, 67
2, 291968, Note_off_c, 0, 77, 67
2, 291968, Note_off_c, 0, 80, 67
2, 291968, Note_on_c, 0, 75, 67
2, 291968, Note_on_c, 0, 79, 67
2, 292096, Note_off_c, 0, 75, 67
2, 292096, Note_off_c, 0, 79, 67
2, 292096, Note_on_c, 0, 74, 67
2, 292096, Note_on_c, 0, 80, 67
2, 292224, Note_off_c, 0, 80, 67
2, 292224, Note_on_c, 0, 82, 67
2, 292352, Note_off_c, 0, 74, 67
2, 292352, Note_off_c, 0, 82, 67
2, 292352, Note_on_c, 0, 72, 67
2, 292352, Note_on_c, 0, 84, 67
2, 292480, Note_off_c, 0, 72, 67
2, 292480, Note_on_c, 0, 74, 67
2, 292608, Note_off_c, 0, 74, 67
2, 292608, Note_on_c, 0, 75, 67
2, 292736, Note_off_c, 0, 75, 67
2, 292736, Note_on_c, 0, 77, 67
2, 292864, Note_off_c, 0, 77, 67
2, 292864, Note_off_c, 0, 84, 67
2, 292864, Note_on_c, 0, 74, 67
2, 292864, Note_on_c, 0, 82, 67
2, 292992, Note_off_c, 0, 74, 67
2, 292992, Note_on_c, 0, 72, 67
2, 293120, Note_off_c, 0, 72, 67
2, 293120, Note_off_c, 0, 82, 67
2, 293120, Note_on_c, 0, 70, 67
2, 293120, Note_on_c, 0, 80, 67
2, 293248, Note_off_c, 0, 80, 67
2, 293248, Note_on_c, 0, 79, 67
2, 293376, Note_off_c, 0, 70, 67
2, 293376, Note_off_c, 0, 79, 67
2, 293376, Note_on_c, 0, 68, 67
2, 293376, Note_on_c, 0, 80, 67
2, 293504, Note_off_c, 0, 68, 67
2, 293504, Note_on_c, 0, 70, 67
2, 293632, Note_off_c, 0, 70, 67
2, 293632, Note_on_c, 0, 72, 67
2, 293760, Note_off_c, 0, 72, 67
2, 293760, Note_on_c, 0, 68, 67
2, 293888, Note_off_c, 0, 68, 67
2, 293888, Note_off_c, 0, 80, 67
2, 293888, Note_on_c, 0, 70, 67
2, 293888, Note_on_c, 0, 79, 67
2, 294016, Note_off_c, 0, 70, 67
2, 294016, Note_off_c, 0, 79, 67
2, 294016, Note_on_c, 0, 68, 67
2, 294016, Note_on_c, 0, 80, 67
2, 294144, Note_off_c, 0, 68, 67
2, 294144, Note_off_c, 0, 80, 67
2, 294144, Note_on_c, 0, 67, 67
2, 294144, Note_on_c, 0, 79, 67
2, 294272, Note_off_c, 0, 67, 67
2, 294272, Note_off_c, 0, 79, 67
2, 294272, Note_on_c, 0, 65, 67
2, 294272, Note_on_c, 0, 77, 67
2, 294400, Note_off_c, 0, 65, 67
2, 294400, Note_off_c, 0, 77, 67
2, 294400, Note_on_c, 0, 63, 67
2, 294400, Note_on_c, 0, 75, 67
2, 294528, Note_off_c, 0, 63, 67
2, 294528, Note_on_c, 0, 65, 67
2, 294656, Note_off_c, 0, 65, 67
2, 294656, Note_on_c, 0, 67, 67
2, 294784, Note_off_c, 0, 67, 67
2, 294784, Note_on_c, 0, 68, 67
2, 294912, Note_off_c, 0, 68, 67
2, 294912, Note_off_c, 0, 75, 67
2, 294912, Time_signature, 4, 2, 24, 8
2, 294912, Key_signature, -3, "major"
2, 294912, Note_on_c, 0, 67, 67
2, 294912, Note_on_c, 0, 75, 67
2, 295040, Note_off_c, 0, 67, 67
2, 295040, Note_off_c, 0, 75, 67
2, 295040, Note_on_c, 0, 66, 67
2, 295040, Note_on_c, 0, 70, 67
2, 295168, Note_off_c, 0, 66, 67
2, 295168, Note_off_c, 0, 70, 67
2, 295168, Note_on_c, 0, 67, 67
2, 295168, Note_on_c, 0, 75, 67
2, 295296, Note_off_c, 0, 67, 67
2, 295296, Note_off_c, 0, 75, 67
2, 295296, Note_on_c, 0, 75, 67
2, 295296, Note_on_c, 0, 82, 67
2, 295552, Note_off_c, 0, 75, 67
2, 295552, Note_off_c, 0, 82, 67
2, 295552, Note_on_c, 0, 74, 67
2, 295552, Note_on_c, 0, 80, 67
2, 295680, Note_off_c, 0, 74, 67
2, 295680, Note_on_c, 0, 72, 67
2, 295808, Note_off_c, 0, 72, 67
2, 295808, Note_off_c, 0, 80, 67
2, 295808, Note_on_c, 0, 70, 67
2, 295808, Note_on_c, 0, 79, 67
2, 295936, Note_off_c, 0, 70, 67
2, 295936, Note_off_c, 0, 79, 67
2, 295936, Note_on_c, 0, 72, 67
2, 295936, Note_on_c, 0, 77, 67
2, 296064, Note_off_c, 0, 72, 67
2, 296064, Note_off_c, 0, 77, 67
2, 296064, Note_on_c, 0, 70, 67
2, 296064, Note_on_c, 0, 74, 67
2, 296192, Note_off_c, 0, 70, 67
2, 296192, Note_on_c, 0, 68, 67
2, 296320, Note_off_c, 0, 68, 67
2, 296320, Note_on_c, 0, 67, 67
2, 296448, Note_off_c, 0, 67, 67
2, 296448, Note_off_c, 0, 74, 67
2, 296448, Note_on_c, 0, 65, 67
2, 296448, Note_on_c, 0, 70, 67
2, 296576, Note_off_c, 0, 65, 67
2, 296576, Note_on_c, 0, 67, 67
2, 296704, Note_off_c, 0, 67, 67
2, 296704, Note_off_c, 0, 70, 67
2, 296704, Note_on_c, 0, 65, 67
2, 296704, Note_on_c, 0, 68, 67
2, 296832, Note_off_c, 0, 68, 67
2, 296832, Note_on_c, 0, 70, 67
2, 296960, Note_off_c, 0, 65, 67
2, 296960, Note_off_c, 0, 70, 67
2, 296960, Note_on_c, 0, 70, 67
2, 296960, Note_on_c, 0, 74, 67
2, 297088, Note_off_c, 0, 70, 67
2, 297088, Note_off_c, 0, 74, 67
2, 297088, Note_on_c, 0, 65, 67
2, 297088, Note_on_c, 0, 70, 67
2, 297216, Note_off_c, 0, 65, 67
2, 297216, Note_off_c, 0, 70, 67
2, 297216, Note_on_c, 0, 70, 67
2, 297216, Note_on_c, 0, 74, 67
2, 297344, Note_off_c, 0, 70, 67
2, 297344, Note_off_c, 0, 74, 67
2, 297344, Note_on_c, 0, 74, 67
2, 297344, Note_on_c, 0, 79, 67
2, 297600, Note_off_c, 0, 74, 67
2, 297600, Note_off_c, 0, 79, 67
2, 297600, Note_on_c, 0, 72, 67
2, 297600, Note_on_c, 0, 77, 67
2, 297728, Note_off_c, 0, 72, 67
2, 297728, Note_on_c, 0, 70, 67
2, 297856, Note_off_c, 0, 70, 67
2, 297856, Note_off_c, 0, 77, 67
2, 297856, Note_on_c, 0, 68, 67
2, 297856, Note_on_c, 0, 74, 67
2, 297984, Note_off_c, 0, 68, 67
2, 297984, Note_off_c, 0, 74, 67
2, 297984, Note_on_c, 0, 67, 67
2, 297984, Note_on_c, 0, 75, 67
2, 298112, Note_off_c, 0, 67, 67
2, 298112, Note_off_c, 0, 75, 67
2, 298112, Note_on_c, 0, 70, 67
2, 298112, Note_on_c, 0, 79, 67
2, 298240, Note_off_c, 0, 70, 67
2, 298240, Note_on_c, 0, 72, 67
2, 298368, Note_off_c, 0, 72, 67
2, 298368, Note_on_c, 0, 74, 67
2, 298496, Note_off_c, 0, 74, 67
2, 298496, Note_off_c, 0, 79, 67
2, 298496, Note_on_c, 0, 70, 67
2, 298496, Note_on_c, 0, 75, 67
2, 298624, Note_off_c, 0, 75, 67
2, 298624, Note_on_c, 0, 74, 67
2, 298752, Note_off_c, 0, 70, 67
2, 298752, Note_off_c, 0, 74, 67
2, 298752, Note_on_c, 0, 65, 67
2, 298752, Note_on_c, 0, 72, 67
2, 298880, Note_off_c, 0, 72, 67
2, 298880, Note_on_c, 0, 70, 67
2, 299008, Note_off_c, 0, 65, 67
2, 299008, Note_off_c, 0, 70, 67
2, 299008, Note_on_c, 0, 67, 67
2, 299008, Note_on_c, 0, 75, 67
2, 299136, Note_off_c, 0, 67, 67
2, 299136, Note_off_c, 0, 75, 67
2, 299136, Note_on_c, 0, 66, 67
2, 299136, Note_on_c, 0, 70, 67
2, 299264, Note_off_c, 0, 66, 67
2, 299264, Note_off_c, 0, 70, 67
2, 299264, Note_on_c, 0, 67, 67
2, 299264, Note_on_c, 0, 75, 67
2, 299392, Note_off_c, 0, 67, 67
2, 299392, Note_off_c, 0, 75, 67
2, 299392, Note_on_c, 0, 75, 67
2, 299392, Note_on_c, 0, 82, 67
2, 299648, Note_off_c, 0, 75, 67
2, 299648, Note_off_c, 0, 82, 67
2, 299648, Note_on_c, 0, 74, 67
2, 299648, Note_on_c, 0, 80, 67
2, 299776, Note_off_c, 0, 74, 67
2, 299776, Note_on_c, 0, 72, 67
2, 299904, Note_off_c, 0, 72, 67
2, 299904, Note_off_c, 0, 80, 67
2, 299904, Note_on_c, 0, 70, 67
2, 299904, Note_on_c, 0, 79, 67
2, 300032, Note_off_c, 0, 70, 67
2, 300032, Note_off_c, 0, 79, 67
2, 300032, Note_on_c, 0, 72, 67
2, 300032, Note_on_c, 0, 77, 67
2, 300160, Note_off_c, 0, 72, 67
2, 300160, Note_off_c, 0, 77, 67
2, 300160, Note_on_c, 0, 70, 67
2, 300160, Note_on_c, 0, 74, 67
2, 300288, Note_off_c, 0, 70, 67
2, 300288, Note_on_c, 0, 68, 67
2, 300416, Note_off_c, 0, 68, 67
2, 300416, Note_on_c, 0, 67, 67
2, 300544, Note_off_c, 0, 67, 67
2, 300544, Note_off_c, 0, 74, 67
2, 300544, Note_on_c, 0, 65, 67
2, 300544, Note_on_c, 0, 70, 67
2, 300672, Note_off_c, 0, 65, 67
2, 300672, Note_on_c, 0, 67, 67
2, 300800, Note_off_c, 0, 67, 67
2, 300800, Note_off_c, 0, 70, 67
2, 300800, Note_on_c, 0, 65, 67
2, 300800, Note_on_c, 0, 68, 67
2, 300928, Note_off_c, 0, 68, 67
2, 300928, Note_on_c, 0, 70, 67
2, 301056, Note_off_c, 0, 65, 67
2, 301056, Note_off_c, 0, 70, 67
2, 301056, Note_on_c, 0, 70, 67
2, 301056, Note_on_c, 0, 74, 67
2, 301184, Note_off_c, 0, 70, 67
2, 301184, Note_off_c, 0, 74, 67
2, 301184, Note_on_c, 0, 65, 67
2, 301184, Note_on_c, 0, 70, 67
2, 301312, Note_off_c, 0, 65, 67
2, 301312, Note_off_c, 0, 70, 67
2, 301312, Note_on_c, 0, 70, 67
2, 301312, Note_on_c, 0, 74, 67
2, 301440, Note_off_c, 0, 70, 67
2, 301440, Note_off_c, 0, 74, 67
2, 301440, Note_on_c, 0, 74, 67
2, 301440, Note_on_c, 0, 79, 67
2, 301696, Note_off_c, 0, 74, 67
2, 301696, Note_off_c, 0, 79, 67
2, 301696, Note_on_c, 0, 72, 67
2, 301696, Note_on_c, 0, 77, 67
2, 301824, Note_off_c, 0, 72, 67
2, 301824, Note_on_c, 0, 70, 67
2, 301952, Note_off_c, 0, 70, 67
2, 301952, Note_off_c, 0, 77, 67
2, 301952, Note_on_c, 0, 68, 67
2, 301952, Note_on_c, 0, 74, 67
2, 302080, Note_off_c, 0, 68, 67
2, 302080, Note_off_c, 0, 74, 67
2, 302080, Note_on_c, 0, 67, 67
2, 302080, Note_on_c, 0, 75, 67
2, 302208, Note_off_c, 0, 67, 67
2, 302208, Note_on_c, 0, 65, 67
2, 302336, Note_off_c, 0, 65, 67
2, 302336, Note_on_c, 0, 63, 67
2, 302464, Note_off_c, 0, 63, 67
2, 302464, Note_on_c, 0, 65, 67
2, 302592, Note_off_c, 0, 65, 67
2, 302592, Note_off_c, 0, 75, 67
2, 302592, Note_on_c, 0, 63, 67
2, 302592, Note_on_c, 0, 67, 67
2, 302720, Note_off_c, 0, 67, 67
2, 302720, Note_on_c, 0, 68, 67
2, 302848, Note_off_c, 0, 63, 67
2, 302848, Note_off_c, 0, 68, 67
2, 302848, Note_on_c, 0, 65, 67
2, 302848, Note_on_c, 0, 70, 67
2, 302976, Note_off_c, 0, 70, 67
2, 302976, Note_on_c, 0, 72, 67
2, 303104, Note_off_c, 0, 65, 67
2, 303104, Note_off_c, 0, 72, 67
2, 303104, Note_on_c, 0, 79, 67
2, 303616, Note_off_c, 0, 79, 67
2, 303616, Note_on_c, 0, 82, 67
2, 303872, Control_c, 0, 93, 0
2, 303872, Note_on_c, 0, 68, 67
2, 304000, Note_off_c, 0, 68, 67
2, 304000, Note_on_c, 0, 70, 67
2, 304128, Note_off_c, 0, 70, 67
2, 304128, Note_off_c, 0, 82, 67
2, 304128, Note_on_c, 0, 72, 67
2, 304128, Note_on_c, 0, 80, 67
2, 304256, Note_off_c, 0, 72, 67
2, 304256, Note_off_c, 0, 80, 67
2, 304256, Note_on_c, 0, 70, 67
2, 304256, Note_on_c, 0, 82, 67
2, 304384, Note_off_c, 0, 70, 67
2, 304384, Note_off_c, 0, 82, 67
2, 304384, Note_on_c, 0, 68, 67
2, 304384, Note_on_c, 0, 80, 67
2, 304512, Note_off_c, 0, 80, 67
2, 304512, Note_on_c, 0, 79, 67
2, 304640, Note_off_c, 0, 68, 67
2, 304640, Note_off_c, 0, 79, 67
2, 304640, Note_on_c, 0, 65, 67
2, 304640, Note_on_c, 0, 77, 67
2, 304768, Note_off_c, 0, 65, 67
2, 304768, Note_on_c, 0, 67, 67
2, 304896, Note_off_c, 0, 67, 67
2, 304896, Note_on_c, 0, 68, 67
2, 305024, Note_off_c, 0, 68, 67
2, 305024, Note_on_c, 0, 70, 67
2, 305152, Note_off_c, 0, 70, 67
2, 305152, Note_off_c, 0, 77, 67
2, 305152, Note_on_c, 0, 68, 67
2, 305152, Note_on_c, 0, 74, 67
2, 305280, Note_off_c, 0, 68, 67
2, 305280, Note_on_c, 0, 67, 67
2, 305408, Note_off_c, 0, 67, 67
2, 305408, Note_on_c, 0, 65, 67
2, 305664, Note_off_c, 0, 65, 67
2, 305664, Note_off_c, 0, 74, 67
2, 305664, Note_on_c, 0, 77, 67
2, 305920, Control_c, 0, 93, 0
2, 305920, Note_on_c, 0, 65, 67
2, 306048, Note_off_c, 0, 65, 67
2, 306048, Note_on_c, 0, 70, 67
2, 306176, Note_off_c, 0, 70, 67
2, 306176, Note_off_c, 0, 77, 67
2, 306176, Note_on_c, 0, 67, 67
2, 306176, Note_on_c, 0, 79, 67
2, 306304, Note_off_c, 0, 67, 67
2, 306304, Note_off_c, 0, 79, 67
2, 306304, Note_on_c, 0, 68, 67
2, 306304, Note_on_c, 0, 80, 67
2, 306432, Note_off_c, 0, 68, 67
2, 306432, Note_off_c, 0, 80, 67
2, 306432, Note_on_c, 0, 70, 67
2, 306432, Note_on_c, 0, 79, 67
2, 306560, Note_off_c, 0, 70, 67
2, 306560, Note_off_c, 0, 79, 67
2, 306560, Note_on_c, 0, 72, 67
2, 306560, Note_on_c, 0, 77, 67
2, 306688, Note_off_c, 0, 72, 67
2, 306688, Note_off_c, 0, 77, 67
2, 306688, Note_on_c, 0, 70, 67
2, 306688, Note_on_c, 0, 75, 67
2, 307200, Note_off_c, 0, 70, 67
2, 307200, Note_off_c, 0, 75, 67
2, 307200, Note_on_c, 0, 75, 67
2, 307200, Note_on_c, 0, 79, 67
2, 307328, Note_off_c, 0, 75, 67
2, 307328, Note_on_c, 0, 74, 67
2, 307456, Note_off_c, 0, 74, 67
2, 307456, Note_on_c, 0, 72, 67
2, 307712, Note_off_c, 0, 72, 67
2, 307712, Note_off_c, 0, 79, 67
2, 307712, Note_on_c, 0, 70, 67
2, 307712, Note_on_c, 0, 82, 67
2, 307840, Note_off_c, 0, 70, 67
2, 307840, Note_on_c, 0, 72, 67
2, 307968, Note_off_c, 0, 72, 67
2, 307968, Note_on_c, 0, 74, 67
2, 308096, Note_off_c, 0, 74, 67
2, 308096, Note_on_c, 0, 75, 67
2, 308224, Note_off_c, 0, 75, 67
2, 308224, Note_off_c, 0, 82, 67
2, 308224, Note_on_c, 0, 77, 67
2, 308224, Note_on_c, 0, 80, 67
2, 308352, Note_off_c, 0, 77, 67
2, 308352, Note_off_c, 0, 80, 67
2, 308352, Note_on_c, 0, 75, 67
2, 308352, Note_on_c, 0, 79, 67
2, 308480, Note_off_c, 0, 75, 67
2, 308480, Note_off_c, 0, 79, 67
2, 308480, Note_on_c, 0, 74, 67
2, 308480, Note_on_c, 0, 80, 67
2, 308608, Note_off_c, 0, 80, 67
2, 308608, Note_on_c, 0, 82, 67
2, 308736, Note_off_c, 0, 74, 67
2, 308736, Note_off_c, 0, 82, 67
2, 308736, Note_on_c, 0, 72, 67
2, 308736, Note_on_c, 0, 84, 67
2, 308864, Note_off_c, 0, 72, 67
2, 308864, Note_on_c, 0, 74, 67
2, 308992, Note_off_c, 0, 74, 67
2, 308992, Note_on_c, 0, 75, 67
2, 309120, Note_off_c, 0, 75, 67
2, 309120, Note_on_c, 0, 77, 67
2, 309248, Note_off_c, 0, 77, 67
2, 309248, Note_off_c, 0, 84, 67
2, 309248, Note_on_c, 0, 74, 67
2, 309248, Note_on_c, 0, 82, 67
2, 309376, Note_off_c, 0, 74, 67
2, 309376, Note_on_c, 0, 72, 67
2, 309504, Note_off_c, 0, 72, 67
2, 309504, Note_off_c, 0, 82, 67
2, 309504, Note_on_c, 0, 70, 67
2, 309504, Note_on_c, 0, 80, 67
2, 309632, Note_off_c, 0, 80, 67
2, 309632, Note_on_c, 0, 79, 67
2, 309760, Note_off_c, 0, 70, 67
2, 309760, Note_off_c, 0, 79, 67
2, 309760, Note_on_c, 0, 68, 67
2, 309760, Note_on_c, 0, 80, 67
2, 309888, Note_off_c, 0, 68, 67
2, 309888, Note_on_c, 0, 70, 67
2, 310016, Note_off_c, 0, 70, 67
2, 310016, Note_on_c, 0, 72, 67
2, 310144, Note_off_c, 0, 72, 67
2, 310144, Note_on_c, 0, 68, 67
2, 310272, Note_off_c, 0, 68, 67
2, 310272, Note_off_c, 0, 80, 67
2, 310272, Note_on_c, 0, 70, 67
2, 310272, Note_on_c, 0, 79, 67
2, 310400, Note_off_c, 0, 70, 67
2, 310400, Note_off_c, 0, 79, 67
2, 310400, Note_on_c, 0, 68, 67
2, 310400, Note_on_c, 0, 80, 67
2, 310528, Note_off_c, 0, 68, 67
2, 310528, Note_off_c, 0, 80, 67
2, 310528, Note_on_c, 0, 67, 67
2, 310528, Note_on_c, 0, 79, 67
2, 310656, Note_off_c, 0, 67, 67
2, 310656, Note_off_c, 0, 79, 67
2, 310656, Note_on_c, 0, 65, 67
2, 310656, Note_on_c, 0, 77, 67
2, 310784, Note_off_c, 0, 65, 67
2, 310784, Note_off_c, 0, 77, 67
2, 310784, Note_on_c, 0, 63, 67
2, 310784, Note_on_c, 0, 75, 67
2, 310912, Note_off_c, 0, 63, 67
2, 310912, Note_on_c, 0, 65, 67
2, 311040, Note_off_c, 0, 65, 67
2, 311040, Note_on_c, 0, 67, 67
2, 311168, Note_off_c, 0, 67, 67
2, 311168, Note_on_c, 0, 68, 67
2, 311296, Note_off_c, 0, 68, 67
2, 311296, Note_off_c, 0, 75, 67
2, 311296, Time_signature, 4, 2, 24, 8
2, 311296, Key_signature, -3, "major"
2, 311296, Note_on_c, 0, 67, 67
2, 311296, Note_on_c, 0, 75, 67
2, 311424, Note_off_c, 0, 67, 67
2, 311424, Note_off_c, 0, 75, 67
2, 311424, Note_on_c, 0, 66, 67
2, 311424, Note_on_c, 0, 70, 67
2, 311552, Note_off_c, 0, 66, 67
2, 311552, Note_off_c, 0, 70, 67
2, 311552, Note_on_c, 0, 67, 67
2, 311552, Note_on_c, 0, 75, 67
2, 311680, Note_off_c, 0, 67, 67
2, 311680, Note_off_c, 0, 75, 67
2, 311680, Note_on_c, 0, 75, 67
2, 311680, Note_on_c, 0, 82, 67
2, 311936, Note_off_c, 0, 75, 67
2, 311936, Note_off_c, 0, 82, 67
2, 311936, Note_on_c, 0, 74, 67
2, 311936, Note_on_c, 0, 80, 67
2, 312064, Note_off_c, 0, 74, 67
2, 312064, Note_on_c, 0, 72, 67
2, 312192, Note_off_c, 0, 72, 67
2, 312192, Note_off_c, 0, 80, 67
2, 312192, Note_on_c, 0, 70, 67
2, 312192, Note_on_c, 0, 79, 67
2, 312320, Note_off_c, 0, 70, 67
2, 312320, Note_off_c, 0, 79, 67
2, 312320, Note_on_c, 0, 72, 67
2, 312320, Note_on_c, 0, 77, 67
2, 312448, Note_off_c, 0, 72, 67
2, 312448, Note_off_c, 0, 77, 67
2, 312448, Note_on_c, 0, 70, 67
2, 312448, Note_on_c, 0, 74, 67
2, 312576, Note_off_c, 0, 70, 67
2, 312576, Note_on_c, 0, 68, 67
2, 312704, Note_off_c, 0, 68, 67
2, 312704, Note_on_c, 0, 67, 67
2, 312832, Note_off_c, 0, 67, 67
2, 312832, Note_off_c, 0, 74, 67
2, 312832, Note_on_c, 0, 65, 67
2, 312832, Note_on_c, 0, 70, 67
2, 312960, Note_off_c, 0, 65, 67
2, 312960, Note_on_c, 0, 67, 67
2, 313088, Note_off_c, 0, 67, 67
2, 313088, Note_off_c, 0, 70, 67
2, 313088, Note_on_c, 0, 65, 67
2, 313088, Note_on_c, 0, 68, 67
2, 313216, Note_off_c, 0, 68, 67
2, 313216, Note_on_c, 0, 70, 67
2, 313344, Note_off_c, 0, 65, 67
2, 313344, Note_off_c, 0, 70, 67
2, 313344, Note_on_c, 0, 70, 67
2, 313344, Note_on_c, 0, 74, 67
2, 313472, Note_off_c, 0, 70, 67
2, 313472, Note_off_c, 0, 74, 67
2, 313472, Note_on_c, 0, 65, 67
2, 313472, Note_on_c, 0, 70, 67
2, 313600, Note_off_c, 0, 65, 67
2, 313600, Note_off_c, 0, 70, 67
2, 313600, Note_on_c, 0, 70, 67
2, 313600, Note_on_c, 0, 74, 67
2, 313728, Note_off_c, 0, 70, 67
2, 313728, Note_off_c, 0, 74, 67
2, 313728, Note_on_c, 0, 74, 67
2, 313728, Note_on_c, 0, 79, 67
2, 313984, Note_off_c, 0, 74, 67
2, 313984, Note_off_c, 0, 79, 67
2, 313984, Note_on_c, 0, 72, 67
2, 313984, Note_on_c, 0, 77, 67
2, 314112, Note_off_c, 0, 72, 67
2, 314112, Note_on_c, 0, 70, 67
2, 314240, Note_off_c, 0, 70, 67
2, 314240, Note_off_c, 0, 77, 67
2, 314240, Note_on_c, 0, 68, 67
2, 314240, Note_on_c, 0, 74, 67
2, 314368, Note_off_c, 0, 68, 67
2, 314368, Note_off_c, 0, 74, 67
2, 314368, Note_on_c, 0, 67, 67
2, 314368, Note_on_c, 0, 75, 67
2, 314496, Note_off_c, 0, 67, 67
2, 314496, Note_off_c, 0, 75, 67
2, 314496, Note_on_c, 0, 70, 67
2, 314496, Note_on_c, 0, 79, 67
2, 314624, Note_off_c, 0, 70, 67
2, 314624, Note_on_c, 0, 72, 67
2, 314752, Note_off_c, 0, 72, 67
2, 314752, Note_on_c, 0, 74, 67
2, 314880, Note_off_c, 0, 74, 67
2, 314880, Note_off_c, 0, 79, 67
2, 314880, Note_on_c, 0, 70, 67
2, 314880, Note_on_c, 0, 75, 67
2, 315008, Note_off_c, 0, 75, 67
2, 315008, Note_on_c, 0, 74, 67
2, 315136, Note_off_c, 0, 70, 67
2, 315136, Note_off_c, 0, 74, 67
2, 315136, Note_on_c, 0, 65, 67
2, 315136, Note_on_c, 0, 72, 67
2, 315264, Note_off_c, 0, 72, 67
2, 315264, Note_on_c, 0, 70, 67
2, 315392, Note_off_c, 0, 65, 67
2, 315392, Note_off_c, 0, 70, 67
2, 315392, Note_on_c, 0, 67, 67
2, 315392, Note_on_c, 0, 75, 67
2, 315520, Note_off_c, 0, 67, 67
2, 315520, Note_off_c, 0, 75, 67
2, 315520, Note_on_c, 0, 66, 67
2, 315520, Note_on_c, 0, 70, 67
2, 315648, Note_off_c, 0, 66, 67
2, 315648, Note_off_c, 0, 70, 67
2, 315648, Note_on_c, 0, 67, 67
2, 315648, Note_on_c, 0, 75, 67
2, 315776, Note_off_c, 0, 67, 67
2, 315776, Note_off_c, 0, 75, 67
2, 315776, Note_on_c, 0, 75, 67
2, 315776, Note_on_c, 0, 82, 67
2, 316032, Note_off_c, 0, 75, 67
2, 316032, Note_off_c, 0, 82, 67
2, 316032, Note_on_c, 0, 74, 67
2, 316032, Note_on_c, 0, 80, 67
2, 316160, Note_off_c, 0, 74, 67
2, 316160, Note_on_c, 0, 72, 67
2, 316288, Note_off_c, 0, 72, 67
2, 316288, Note_off_c, 0, 80, 67
2, 316288, Note_on_c, 0, 70, 67
2, 316288, Note_on_c, 0, 79, 67
2, 316416, Note_off_c, 0, 70, 67
2, 316416, Note_off_c, 0, 79, 67
2, 316416, Note_on_c, 0, 72, 67
2, 316416, Note_on_c, 0, 77, 67
2, 316544, Note_off_c, 0, 72, 67
2, 316544, Note_off_c, 0, 77, 67
2, 316544, Note_on_c, 0, 70, 67
2, 316544, Note_on_c, 0, 74, 67
2, 316672, Note_off_c, 0, 70, 67
2, 316672, Note_on_c, 0, 68, 67
2, 316800, Note_off_c, 0, 68, 67
2, 316800, Note_on_c, 0, 67, 67
2, 316928, Note_off_c, 0, 67, 67
2, 316928, Note_off_c, 0, 74, 67
2, 316928, Note_on_c, 0, 65, 67
2, 316928, Note_on_c, 0, 70, 67
2, 317056, Note_off_c, 0, 65, 67
2, 317056, Note_on_c, 0, 67, 67
2, 317184, Note_off_c, 0, 67, 67
2, 317184, Note_off_c, 0, 70, 67
2, 317184, Note_on_c, 0, 65, 67
2, 317184, Note_on_c, 0, 68, 67
2, 317312, Note_off_c, 0, 68, 67
2, 317312, Note_on_c, 0, 70, 67
2, 317440, Note_off_c, 0, 65, 67
2, 317440, Note_off_c, 0, 70, 67
2, 317440, Note_on_c, 0, 70, 67
2, 317440, Note_on_c, 0, 74, 67
2, 317568, Note_off_c, 0, 70, 67
2, 317568, Note_off_c, 0, 74, 67
2, 317568, Note_on_c, 0, 65, 67
2, 317568, Note_on_c, 0, 70, 67
2, 317696, Note_off_c, 0, 65, 67
2, 317696, Note_off_c, 0, 70, 67
2, 317696, Note_on_c, 0, 70, 67
2, 317696, Note_on_c, 0, 74, 67
2, 317824, Note_off_c, 0, 70, 67
2, 317824, Note_off_c, 0, 74, 67
2, 317824, Note_on_c, 0, 74, 67
2, 317824, Note_on_c, 0, 79, 67
2, 318080, Note_off_c, 0, 74, 67
2, 318080, Note_off_c, 0, 79, 67
2, 318080, Note_on_c, 0, 72, 67
2, 318080, Note_on_c, 0, 77, 67
2, 318208, Note_off_c, 0, 72, 67
2, 318208, Note_on_c, 0, 70, 67
2, 318336, Note_off_c, 0, 70, 67
2, 318336, Note_off_c, 0, 77, 67
2, 318336, Note_on_c, 0, 68, 67
2, 318336, Note_on_c, 0, 74, 67
2, 318464, Note_off_c, 0, 68, 67
2, 318464, Note_off_c, 0, 74, 67
2, 318464, Note_on_c, 0, 67, 67
2, 318464, Note_on_c, 0, 75, 67
2, 318592, Note_off_c, 0, 67, 67
2, 318592, Note_on_c, 0, 65, 67
2, 318720, Note_off_c, 0, 65, 67
2, 318720, Note_on_c, 0, 63, 67
2, 318848, Note_off_c, 0, 63, 67
2, 318848, Note_on_c, 0, 65, 67
2, 318976, Note_off_c, 0, 65, 67
2, 318976, Note_off_c, 0, 75, 67
2, 318976, Note_on_c, 0, 63, 67
2, 318976, Note_on_c, 0, 67, 67
2, 319104, Note_off_c, 0, 67, 67
2, 319104, Note_on_c, 0, 68, 67
2, 319232, Note_off_c, 0, 63, 67
2, 319232, Note_off_c, 0, 68, 67
2, 319232, Note_on_c, 0, 65, 67
2, 319232, Note_on_c, 0, 70, 67
2, 319360, Note_off_c, 0, 70, 67
2, 319360, Note_on_c, 0, 72, 67
2, 319488, Note_off_c, 0, 65, 67
2, 319488, Note_off_c, 0, 72, 67
2, 319488, Note_on_c, 0, 79, 67
2, 320000, Note_off_c, 0, 79, 67
2, 320000, Note_on_c, 0, 82, 67
2, 320256, Control_c, 0, 93, 0
2, 320256, Note_on_c, 0, 68, 67
2, 320384, Note_off_c, 0, 68, 67
2, 320384, Note_on_c, 0, 70, 67
2, 320512, Note_off_c, 0, 70, 67
2, 320512, Note_off_c, 0, 82, 67
2, 320512, Note_on_c, 0, 72, 67
2, 320512, Note_on_c, 0, 80, 67
2, 320640, Note_off_c, 0, 72, 67
2, 320640, Note_off_c, 0, 80, 67
2, 320640, Note_on_c, 0, 70, 67
2, 320640, Note_on_c, 0, 82, 67
2, 320768, Note_off_c, 0, 70, 67
2, 320768, Note_off_c, 0, 82, 67
2, 320768, Note_on_c, 0, 68, 67
2, 320768, Note_on_c, 0, 80, 67
2, 320896, Note_off_c, 0, 80, 67
2, 320896, Note_on_c, 0, 79, 67
2, 321024, Note_off_c, 0, 68, 67
2, 321024, Note_off_c, 0, 79, 67
2, 321024, Note_on_c, 0, 65, 67
2, 321024, Note_on_c, 0, 77, 67
2, 321152, Note_off_c, 0, 65, 67
2, 321152, Note_on_c, 0, 67, 67
2, 321280, Note_off_c, 0, 67, 67
2, 321280, Note_on_c, 0, 68, 67
2, 321408, Note_off_c, 0, 68, 67
2, 321408, Note_on_c, 0, 70, 67
2, 321536, Note_off_c, 0, 70, 67
2, 321536, Note_off_c, 0, 77, 67
2, 321536, Note_on_c, 0, 68, 67
2, 321536, Note_on_c, 0, 74, 67
2, 321664, Note_off_c, 0, 68, 67
2, 321664, Note_on_c, 0, 67, 67
2, 321792, Note_off_c, 0, 67, 67
2, 321792, Note_on_c, 0, 65, 67
2, 322048, Note_off_c, 0, 65, 67
2, 322048, Note_off_c, 0, 74, 67
2, 322048, Note_on_c, 0, 77, 67
2, 322304, Control_c, 0, 93, 0
2, 322304, Note_on_c, 0, 65, 67
2, 322432, Note_off_c, 0, 65, 67
2, 322432, Note_on_c, 0, 70, 67
2, 322560, Note_off_c, 0, 70, 67
2, 322560, Note_off_c, 0, 77, 67
2, 322560, Note_on_c, 0, 67, 67
2, 322560, Note_on_c, 0, 79, 67
2, 322688, Note_off_c, 0, 67, 67
2, 322688, Note_off_c, 0, 79, 67
2, 322688, Note_on_c, 0, 68, 67
2, 322688, Note_on_c, 0, 80, 67
2, 322816, Note_off_c, 0, 68, 67
2, 322816, Note_off_c, 0, 80, 67
2, 322816, Note_on_c, 0, 70, 67
2, 322816, Note_on_c, 0, 79, 67
2, 322944, Note_off_c, 0, 70, 67
2, 322944, Note_off_c, 0, 79, 67
2, 322944, Note_on_c, 0, 72, 67
2, 322944, Note_on_c, 0, 77, 67
2, 323072, Note_off_c, 0, 72, 67
2, 323072, Note_off_c, 0, 77, 67
2, 323072, Note_on_c, 0, 70, 67
2, 323072, Note_on_c, 0, 75, 67
2, 323584, Note_off_c, 0, 70, 67
2, 323584, Note_off_c, 0, 75, 67
2, 323584, Note_on_c, 0, 75, 67
2, 323584, Note_on_c, 0, 79, 67
2, 323712, Note_off_c, 0, 75, 67
2, 323712, Note_on_c, 0, 74, 67
2, 323840, Note_off_c, 0, 74, 67
2, 323840, Note_on_c, 0, 72, 67
2, 324096, Note_off_c, 0, 72, 67
2, 324096, Note_off_c, 0, 79, 67
2, 324096, Note_on_c, 0, 70, 67
2, 324096, Note_on_c, 0, 82, 67
2, 324224, Note_off_c, 0, 70, 67
2, 324224, Note_on_c, 0, 72, 67
2, 324352, Note_off_c, 0, 72, 67
2, 324352, Note_on_c, 0, 74, 67
2, 324480, Note_off_c, 0, 74, 67
2, 324480, Note_on_c, 0, 75, 67
2, 324608, Note_off_c, 0, 75, 67
2, 324608, Note_off_c, 0, 82, 67
2, 324608, Note_on_c, 0, 77, 67
2, 324608, Note_on_c, 0, 80, 67
2, 324736, Note_off_c, 0, 77, 67
2, 324736, Note_off_c, 0, 80, 67
2, 324736, Note_on_c, 0, 75, 67
2, 324736, Note_on_c, 0, 79, 67
2, 324864, Note_off_c, 0, 75, 67
2, 324864, Note_off_c, 0, 79, 67
2, 324864, Note_on_c, 0, 74, 67
2, 324864, Note_on_c, 0, 80, 67
2, 324992, Note_off_c, 0, 80, 67
2, 324992, Note_on_c, 0, 82, 67
2, 325120, Note_off_c, 0, 74, 67
2, 325120, Note_off_c, 0, 82, 67
2, 325120, Note_on_c, 0, 72, 67
2, 325120, Note_on_c, 0, 84, 67
2, 325248, Note_off_c, 0, 72, 67
2, 325248, Note_on_c, 0, 74, 67
2, 325376, Note_off_c, 0, 74, 67
2, 325376, Note_on_c, 0, 75, 67
2, 325504, Note_off_c, 0, 75, 67
2, 325504, Note_on_c, 0, 77, 67
2, 325632, Note_off_c, 0, 77, 67
2, 325632, Note_off_c, 0, 84, 67
2, 325632, Note_on_c, 0, 74, 67
2, 325632, Note_on_c, 0, 82, 67
2, 325760, Note_off_c, 0, 74, 67
2, 325760, Note_on_c, 0, 72, 67
2, 325888, Note_off_c, 0, 72, 67
2, 325888, Note_off_c, 0, 82, 67
2, 325888, Note_on_c, 0, 70, 67
2, 325888, Note_on_c, 0, 80, 67
2, 326016, Note_off_c, 0, 80, 67
2, 326016, Note_on_c, 0, 79, 67
2, 326144, Note_off_c, 0, 70, 67
2, 326144, Note_off_c, 0, 79, 67
2, 326144, Note_on_c, 0, 68, 67
2, 326144, Note_on_c, 0, 80, 67
2, 326272, Note_off_c, 0, 68, 67
2, 326272, Note_on_c, 0, 70, 67
2, 326400, Note_off_c, 0, 70, 67
2, 326400, Note_on_c, 0, 72, 67
2, 326528, Note_off_c, 0, 72, 67
2, 326528, Note_on_c, 0, 68, 67
2, 326656, Note_off_c, 0, 68, 67
2, 326656, Note_off_c, 0, 80, 67
2, 326656, Note_on_c, 0, 70, 67
2, 326656, Note_on_c, 0, 79, 67
2, 326784, Note_off_c, 0, 70, 67
2, 326784, Note_off_c, 0, 79, 67
2, 326784, Note_on_c, 0, 68, 67
2, 326784, Note_on_c, 0, 80, 67
2, 326912, Note_off_c, 0, 68, 67
2, 326912, Note_off_c, 0, 80, 67
2, 326912, Note_on_c, 0, 67, 67
2, 326912, Note_on_c, 0, 79, 67
2, 327040, Note_off_c, 0, 67, 67
2, 327040, Note_off_c, 0, 79, 67
2, 327040, Note_on_c, 0, 65, 67
2, 327040, Note_on_c, 0, 77, 67
2, 327168, Note_off_c, 0, 65, 67
2, 327168, Note_off_c, 0, 77, 67
2, 327168, Note_on_c, 0, 63, 67
2, 327168, Note_on_c, 0, 75, 67
2, 327296, Note_off_c, 0, 63, 67
2, 327296, Note_on_c, 0, 65, 67
2, 327424, Note_off_c, 0, 65, 67
2, 327424, Note_on_c, 0, 67, 67
2, 327552, Note_off_c, 0, 67, 67
2, 327552, Note_on_c, 0, 68, 67
2, 327680, Note_off_c, 0, 68, 67
2, 327680, Note_off_c, 0, 75, 67
2, 327680, Time_signature, 4, 2, 24, 8
2, 327680, Key_signature, -3, "major"
2, 327680, Note_on_c, 0, 67, 67
2, 327680, Note_on_c, 0, 75, 67
2, 327808, Note_off_c, 0, 67, 67
2, 327808, Note_off_c, 0, 75, 67
2, 327808, Note_on_c, 0, 66, 67
2, 327808, Note_on_c, 0, 70, 67
2, 327936, Note_off_c, 0, 66, 67
2, 327936, Note_off_c, 0, 70, 67
2, 327936, Note_on_c, 0, 67, 67
2, 327936, Note_on_c, 0, 75, 67
2, 328064, Note_off_c, 0, 67, 67
2, 328064, Note_off_c, 0, 75, 67
2, 328064, Note_on_c, 0, 75, 67
2, 328064, Note_on_c, 0, 82, 67
2, 328320, Note_off_c, 0, 75, 67
2, 328320, Note_off_c, 0, 82, 67
2, 328320, Note_on_c, 0, 74, 67
2, 328320, Note_on_c, 0, 80, 67
2, 328448, Note_off_c, 0, 74, 67
2, 328448, Note_on_c, 0, 72, 67
2, 328576, Note_off_c, 0, 72, 67
2, 328576, Note_off_c, 0, 80, 67
2, 328576, Note_on_c, 0, 70, 67
2, 328576, Note_on_c, 0, 79, 67
2, 328704, Note_off_c, 0, 70, 67
2, 328704, Note_off_c, 0, 79, 67
2, 328704, Note_on_c, 0, 72, 67
2, 328704, Note_on_c, 0, 77, 67
2, 328832, Note_off_c, 0, 72, 67
2, 328832, Note_off_c, 0, 77, 67
2, 328832, Note_on_c, 0, 70, 67
2, 328832, Note_on_c, 0, 74, 67
2, 328960, Note_off_c, 0, 70, 67
2, 328960, Note_on_c, 0, 68, 67
2, 329088, Note_off_c, 0, 68, 67
2, 329088, Note_on_c, 0, 67, 67
2, 329216, Note_off_c, 0, 67, 67
2, 329216, Note_off_c, 0, 74, 67
2, 329216, Note_on_c, 0, 65, 67
2, 329216, Note_on_c, 0, 70, 67
2, 329344, Note_off_c, 0, 65, 67
2, 329344, Note_on_c, 0, 67, 67
2, 329472, Note_off_c, 0, 67, 67
2, 329472, Note_off_c, 0, 70, 67
2, 329472, Note_on_c, 0, 65, 67
2, 329472, Note_on_c, 0, 68, 67
2, 329600, Note_off_c, 0, 68, 67
2, 329600, Note_on_c, 0, 70, 67
2, 329728, Note_off_c, 0, 65, 67
2, 329728, Note_off_c, 0, 70, 67
2, 329728, Note_on_c, 0, 70, 67
2, 329728, Note_on_c, 0, 74, 67
2, 329856, Note_off_c, 0, 70, 67
2, 329856, Note_off_c, 0, 74, 67
2, 329856, Note_on_c, 0, 65, 67
2, 329856, Note_on_c, 0, 70, 67
2, 329984, Note_off_c, 0, 65, 67
2, 329984, Note_off_c, 0, 70, 67
2, 329984, Note_on_c, 0, 70, 67
2, 329984, Note_on_c, 0, 74, 67
2, 330112, Note_off_c, 0, 70, 67
2, 330112, Note_off_c, 0, 74, 67
2, 330112, Note_on_c, 0, 74, 67
2, 330112, Note_on_c, 0, 79, 67
2, 330368, Note_off_c, 0, 74, 67
2, 330368, Note_off_c, 0, 79, 67
2, 330368, Note_on_c, 0, 72, 67
2, 330368, Note_on_c, 0, 77, 67
2, 330496, Note_off_c, 0, 72, 67
2, 330496, Note_on_c, 0, 70, 67
2, 330624, Note_off_c, 0, 70, 67
2, 330624, Note_off_c, 0, 77, 67
2, 330624, Note_on_c, 0, 68, 67
2, 330624, Note_on_c, 0, 74, 67
2, 330752, Note_off_c, 0, 68, 67
2, 330752, Note_off_c, 0, 74, 67
2, 330752, Note_on_c, 0, 67, 67
2, 330752, Note_on_c, 0, 75, 67
2, 330880, Note_off_c, 0, 67, 67
2, 330880, Note_off_c, 0, 75, 67
2, 330880, Note_on_c, 0, 70, 67
2, 330880, Note_on_c, 0, 79, 67
2, 331008, Note_off_c, 0, 70, 67
2, 331008, Note_on_c, 0, 72, 67
2, 331136, Note_off_c, 0, 72, 67
2, 331136, Note_on_c, 0, 74, 67
2, 331264, Note_off_c, 0, 74, 67
2, 331264, Note_off_c, 0, 79, 67
2, 331264, Note_on_c, 0, 70, 67
2, 331264, Note_on_c, 0, 75, 67
2, 331392, Note_off_c, 0, 75, 67
2, 331392, Note_on_c, 0, 74, 67
2, 331520, Note_off_c, 0, 70, 67
2, 331520, Note_off_c, 0, 74, 67
2, 331520, Note_on_c, 0, 65, 67
2, 331520, Note_on_c, 0, 72, 67
2, 331648, Note_off_c, 0, 72, 67
2, 331648, Note_on_c, 0, 70, 67
2, 331776, Note_off_c, 0, 65, 67
2, 331776, Note_off_c, 0, 70, 67
2, 331776, Note_on_c, 0, 67, 67
2, 331776, Note_on_c, 0, 75, 67
2, 331904, Note_off_c, 0, 67, 67
2, 331904, Note_off_c, 0, 75, 67
2, 331904, Note_on_c, 0, 66, 67
2, 331904, Note_on_c, 0, 70, 67
2, 332032, Note_off_c, 0, 66, 67
2, 332032, Note_off_c, 0, 70, 67
2, 332032, Note_on_c, 0, 67, 67
2, 332032, Note_on_c, 0, 75, 67
2, 332160, Note_off_c, 0, 67, 67
2, 332160, Note_off_c, 0, 75, 67
2, 332160, Note_on_c, 0, 75, 67
2, 332160, Note_on_c, 0, 82, 67
2, 332416, Note_off_c, 0, 75, 67
2, 332416, Note_off_c, 0, 82, 67
2, 332416, Note_on_c, 0, 74, 67
2, 332416, Note_on_c, 0, 80, 67
2, 332544, Note_off_c, 0, 74, 67
2, 332544, Note_on_c, 0, 72, 67
2, 332672, Note_off_c, 0, 72, 67
2, 332672, Note_off_c, 0, 80, 67
2, 332672, Note_on_c, 0, 70, 67
2, 332672, Note_on_c, 0, 79, 67
2, 332800, Note_off_c, 0, 70, 67
2, 332800, Note_off_c, 0, 79, 67
2, 332800, Note_on_c, 0, 72, 67
2, 332800, Note_on_c, 0, 77, 67
2, 332928, Note_off_c, 0, 72, 67
2, 332928, Note_off_c, 0, 77, 67
2, 332928, Note_on_c, 0, 70, 67
2, 332928, Note_on_c, 0, 74, 67
2, 333056, Note_off_c, 0, 70, 67
2, 333056, Note_on_c, 0, 68, 67
2, 333184, Note_off_c, 0, 68, 67
2, 333184, Note_on_c, 0, 67, 67
2, 333312, Note_off_c, 0, 67, 67
2, 333312, Note_off_c, 0, 74, 67
2, 333312, Note_on_c, 0, 65, 67
2, 333312, Note_on_c, 0, 70, 67
2, 333440, Note_off_c, 0, 65, 67
2, 333440, Note_on_c, 0, 67, 67
2, 333568, Note_off_c, 0, 67, 67
2, 333568, Note_off_c, 0, 70, 67
2, 333568, Note_on_c, 0, 65, 67
2, 333568, Note_on_c, 0, 68, 67
2, 333696, Note_off_c, 0, 68, 67
2, 333696, Note_on_c, 0, 70, 67
2, 333824, Note_off_c, 0, 65, 67
2, 333824, Note_off_c, 0, 70, 67
2, 333824, Note_on_c, 0, 70, 67
2, 333824, Note_on_c, 0, 74, 67
2, 333952, Note_off_c, 0, 70, 67
2, 333952, Note_off_c, 0, 74, 67
2, 333952, Note_on_c, 0, 65, 67
2, 333952, Note_on_c, 0, 70, 67
2, 334080, Note_off_c, 0, 65, 67
2, 334080, Note_off_c, 0, 70, 67
2, 334080, Note_on_c, 0, 70, 67
2, 334080, Note_on_c, 0, 74, 67
2, 334208, Note_off_c, 0, 70, 67
2, 334208, Note_off_c, 0, 74, 67
2, 334208, Note_on_c, 0, 74, 67
2, 334208, Note_on_c, 0, 79, 67
2, 334464, Note_off_c, 0, 74, 67
2, 334464, Note_off_c, 0, 79, 67
2, 334464, Note_on_c, 0, 72, 67
2, 334464, Note_on_c, 0, 77, 67
2, 334592, Note_off_c, 0, 72, 67
2, 334592, Note_on_c, 0, 70, 67
2, 334720, Note_off_c, 0, 70, 67
2, 334720, Note_off_c, 0, 77, 67
2, 334720, Note_on_c, 0, 68, 67
2, 334720, Note_on_c, 0, 74, 67
2, 334848, Note_off_c, 0, 68, 67
2, 334848, Note_off_c, 0, 74, 67
2, 334848, Note_on_c, 0, 67, 67
2, 334848, Note_on_c, 0, 75, 67
2, 334976, Note_off_c, 0, 67, 67
2, 334976, Note_on_c, 0, 65, 67
2, 335104, Note_off_c, 0, 65, 67
2, 335104, Note_on_c, 0, 63, 67
2, 335232, Note_off_c, 0, 63, 67
2, 335232, Note_on_c, 0, 65, 67
2, 335360, Note_off_c, 0, 65, 67
2, 335360, Note_off_c, 0, 75, 67
2, 335360, Note_on_c, 0, 63, 67
2, 335360, Note_on_c, 0, 67, 67
2, 335488, Note_off_c, 0, 67, 67
2, 335488, Note_on_c, 0, 68, 67
2, 335616, Note_off_c, 0, 63, 67
2, 335616, Note_off_c, 0, 68, 67
2, 335616, Note_on_c, 0, 65, 67
2, 335616, Note_on_c, 0, 70, 67
2, 335744, Note_off_c, 0, 70, 67
2, 335744, Note_on_c, 0, 72, 67
2, 335872, Note_off_c, 0, 65, 67
2, 335872, Note_off_c, 0, 72, 67
2, 335872, Note_on_c, 0, 79, 67
2, 336384, Note_off_c, 0, 79, 67
2, 336384, Note_on_c, 0, 82, 67
2, 336640, Control_c, 0, 93, 0
2, 336640, Note_on_c, 0, 68, 67
2, 336768, Note_off_c, 0, 68, 67
2, 336768, Note_on_c, 0, 70, 67
2, 336896, Note_off_c, 0, 70, 67
2, 336896, Note_off_c, 0, 82, 67
2, 336896, Note_on_c, 0, 72, 67
2, 336896, Note_on_c, 0, 80, 67
2, 337024, Note_off_c, 0, 72, 67
2, 337024, Note_off_c, 0, 80, 67
2, 337024, Note_on_c, 0, 70, 67
2, 337024, Note_on_c, 0, 82, 67
2, 337152, Note_off_c, 0, 70, 67
2, 337152, Note_off_c, 0, 82, 67
2, 337152, Note_on_c, 0, 68, 67
2, 337152, Note_on_c, 0, 80, 67
2, 337280, Note_off_c, 0, 80, 67
2, 337280, Note_on_c, 0, 79, 67
2, 337408, Note_off_c, 0, 68, 67
2, 337408, Note_off_c, 0, 79, 67
2, 337408, Note_on_c, 0, 65, 67
2, 337408, Note_on_c, 0, 77, 67
2, 337536, Note_off_c, 0, 65, 67
2, 337536, Note_on_c, 0, 67, 67
2, 337664, Note_off_c, 0, 67, 67
2, 337664, Note_on_c, 0, 68, 67
2, 337792, Note_off_c, 0, 68, 67
2, 337792, Note_on_c, 0, 70, 67
2, 337920, Note_off_c, 0, 70, 67
2, 337920, Note_off_c, 0, 77, 67
2, 337920, Note_on_c, 0, 68, 67
2, 337920, Note_on_c, 0, 74, 67
2, 338048, Note_off_c, 0, 68, 67
2, 338048, Note_on_c, 0, 67, 67
2, 338176, Note_off_c, 0, 67, 67
2, 338176, Note_on_c, 0, 65, 67
2, 338432, Note_off_c, 0, 65, 67
2, 338432, Note_off_c, 0, 74, 67
2, 338432, Note_on_c, 0, 77, 67
2, 338688, Control_c, 0, 93, 0
2, 338688, Note_on_c, 0, 65, 67
2, 338816, Note_off_c, 0, 65, 67
2, 338816, Note_on_c, 0, 70, 67
2, 338944, Note_off_c, 0, 70, 67
2, 338944, Note_off_c, 0, 77, 67
2, 338944, Note_on_c, 0, 67, 67
2, 338944, Note_on_c, 0, 79, 67
2, 339072, Note_off_c, 0, 67, 67
2, 339072, Note_off_c, 0, 79, 67
2, 339072, Note_on_c, 0, 68, 67
2, 339072, Note_on_c, 0, 80, 67
2, 339200, Note_off_c, 0, 68, 67
2, 339200, Note_off_c, 0, 80, 67
2, 339200, Note_on_c, 0, 70, 67
2, 339200, Note_on_c, 0, 79, 67
2, 339328, Note_off_c, 0, 70, 67
2, 339328, Note_off_c, 0, 79, 67
2, 339328, Note_on_c, 0, 72, 67
2, 339328, Note_on_c, 0, 77, 67
2, 339456, Note_off_c, 0, 72, 67
2, 339456, Note_off_c, 0, 77, 67
2, 339456, Note_on_c, 0, 70, 67
2, 339456, Note_on_c, 0, 75, 67
2, 339968, Note_off_c, 0, 70, 67
2, 339968, Note_off_c, 0, 75, 67
2, 339968, Note_on_c, 0, 75, 67
2, 339968, Note_on_c, 0, 79, 67
2, 340096, Note_off_c, 0, 75, 67
2, 340096, Note_on_c, 0, 74, 67
2, 340224, Note_off_c, 0, 74, 67
2, 340224, Note_on_c, 0, 72, 67
2, 340480, Note_off_c, 0, 72, 67
2, 340480, Note_off_c, 0, 79, 67
2, 340480, Note_on_c, 0, 70, 67
2, 340480, Note_on_c, 0, 82, 67
2, 340608, Note_off_c, 0, 70, 67
2, 340608, Note_on_c, 0, 72, 67
2, 340736, Note_off_c, 0, 72, 67
2, 340736, Note_on_c, 0, 74, 67
2, 340864, Note_off_c, 0, 74, 67
2, 340864, Note_on_c, 0, 75, 67
2, 340992, Note_off_c, 0, 75, 67
2, 340992, Note_off_c, 0, 82, 67
2, 340992, Note_on_c, 0, 77, 67
2, 340992, Note_on_c, 0, 80, 67
2, 341120, Note_off_c, 0, 77, 67
2, 341120, Note_off_c, 0, 80, 67
2, 341120, Note_on_c, 0, 75, 67
2, 341120, Note_on_c, 0, 79, 67
2, 341248, Note_off_c, 0, 75, 67
2, 341248, Note_off_c, 0, 79, 67
2, 341248, Note_on_c, 0, 74, 67
2, 341248, Note_on_c, 0, 80, 67
2, 341376, Note_off_c, 0, 80, 67
2, 341376, Note_on_c, 0, 82, 67
2, 341504, Note_off_c, 0, 74, 67
2, 341504, Note_off_c, 0, 82, 67
2, 341504, Note_on_c, 0, 72, 67
2, 341504, Note_on_c, 0, 84, 67
2, 341632, Note_off_c, 0, 72, 67
2, 341632, Note_on_c, 0, 74, 67
2, 341760, Note_off_c, 0, 74, 67
2, 341760, Note_on_c, 0, 75, 67
2, 341888, Note_off_c, 0, 75, 67
2, 341888, Note_on_c, 0, 77, 67
2, 342016, Note_off_c, 0, 77, 67
2, 342016, Note_off_c, 0, 84, 67
2, 342016, Note_on_c, 0, 74, 67
2, 342016, Note_on_c, 0, 82, 67
2, 342144, Note_off_c, 0, 74, 67
2, 342144, Note_on_c, 0, 72, 67
2, 342272, Note_off_c, 0, 72, 67
2, 342272, Note_off_c, 0, 82, 67
2, 342272, Note_on_c, 0, 70, 67
2, 342272, Note_on_c, 0, 80, 67
2, 342400, Note_off_c, 0, 80, 67
2, 342400, Note_on_c, 0, 79, 67
2, 342528, Note_off_c, 0, 70, 67
2, 342528, Note_off_c, 0, 79, 67
2, 342528, Note_on_c, 0, 68, 67
2, 342528, Note_on_c, 0, 80, 67
2, 342656, Note_off_c, 0, 68, 67
2, 342656, Note_on_c, 0, 70, 67
2, 342784, Note_off_c, 0, 70, 67
2, 342784, Note_on_c, 0, 72, 67
2, 342912, Note_off_c, 0, 72, 67
2, 342912, Note_on_c, 0, 68, 67
2, 343040, Note_off_c, 0, 68, 67
2, 343040, Note_off_c, 0, 80, 67
2, 343040, Note_on_c, 0, 70, 67
2, 343040, Note_on_c, 0, 79, 67
2, 343168, Note_off_c, 0, 70, 67
2, 343168, Note_off_c, 0, 79, 67
2, 343168, Note_on_c, 0, 68, 67
2, 343168, Note_on_c, 0, 80, 67
2, 343296, Note_off_c, 0, 68, 67
2, 343296, Note_off_c, 0, 80, 67
2, 343296, Note_on_c, 0, 67, 67
2, 343296, Note_on_c, 0, 79, 67
2, 343424, Note_off_c, 0, 67, 67
2, 343424, Note_off_c, 0, 79, 67
2, 343424, Note_on_c, 0, 65, 67
2, 343424, Note_on_c, 0, 77, 67
2, 343552, Note_off_c, 0, 65, 67
2, 343552, Note_off_c, 0, 77, 67
2, 343552, Note_on_c, 0, 63, 67
2, 343552, Note_on_c, 0, 75, 67
2, 343680, Note_off_c, 0, 63, 67
2, 343680, Note_on_c, 0, 65, 67
2, 343808, Note_off_c, 0, 65, 67
2, 343808, Note_on_c, 0, 67, 67
2, 343936, Note_off_c, 0, 67, 67
2, 343936, Note_on_c, 0, 68, 67
2, 344064, Note_off_c, 0, 68, 67
2, 344064, Note_off_c, 0, 75, 67
2, 344064, Time_signature, 4, 2, 24, 8
2, 344064, Key_signature, -3, "major"
2, 344064, Note_on_c, 0, 67, 67
2, 344064, Note_on_c, 0, 75, 67
2, 344192, Note_off_c, 0, 67, 67
2, 344192, Note_off_c, 0, 75, 67
2, 344192, Note_on_c, 0, 66, 67
2, 344192, Note_on_c, 0, 70, 67
2, 344320, Note_off_c, 0, 66, 67
2, 344320, Note_off_c, 0, 70, 67
2, 344320, Note_on_c, 0, 67, 67
2, 344320, Note_on_c, 0, 75, 67
2, 344448, Note_off_c, 0, 67, 67
2, 344448, Note_off_c, 0, 75, 67
2, 344448, Note_on_c, 0, 75, 67
2, 344448, Note_on_c, 0, 82, 67
2, 344704, Note_off_c, 0, 75, 67
2, 344704, Note_off_c, 0, 82, 67
2, 344704, Note_on_c, 0, 74, 67
2, 344704, Note_on_c, 0, 80, 67
2, 344832, Note_off_c, 0, 74, 67
2, 344832, Note_on_c, 0, 72, 67
2, 344960, Note_off_c, 0, 72, 67
2, 344960, Note_off_c, 0, 80, 67
2, 344960, Note_on_c, 0, 70, 67
2, 344960, Note_on_c, 0, 79, 67
2, 345088, Note_off_c, 0, 70, 67
2, 345088, Note_off_c, 0, 79, 67
2, 345088, Note_on_c, 0, 72, 67
2, 345088, Note_on_c, 0, 77, 67
2, 345216, Note_off_c, 0, 72, 67
2, 345216, Note_off_c, 0, 77, 67
2, 345216, Note_on_c, 0, 70, 67
2, 345216, Note_on_c, 0, 74, 67
2, 345344, Note_off_c, 0, 70, 67
2, 345344, Note_on_c, 0, 68, 67
2, 345472, Note_off_c, 0, 68, 67
2, 345472, Note_on_c, 0, 67, 67
2, 345600, Note_off_c, 0, 67, 67
2, 345600, Note_off_c, 0, 74, 67
2, 345600, Note_on_c, 0, 65, 67
2, 345600, Note_on_c, 0, 70, 67
2, 345728, Note_off_c, 0, 65, 67
2, 345728, Note_on_c, 0, 67, 67
2, 345856, Note_off_c, 0, 67, 67
2, 345856, Note_off_c, 0, 70, 67
2, 345856, Note_on_c, 0, 65, 67
2, 345856, Note_on_c, 0, 68, 67
2, 345984, Note_off_c, 0, 68, 67
2, 345984, Note_on_c, 0, 70, 67
2, 346112, Note_off_c, 0, 65, 67
2, 346112, Note_off_c, 0, 70, 67
2, 346112, Note_on_c, 0, 70, 67
2, 346112, Note_on_c, 0, 74, 67
2, 346240, Note_off_c, 0, 70, 67
2, 346240, Note_off_c, 0, 74, 67
2, 346240, Note_on_c, 0, 65, 67
2, 346240, Note_on_c, 0, 70, 67
2, 346368, Note_off_c, 0, 65, 67
2, 346368, Note_off_c, 0, 70, 67
2, 346368, Note_on_c, 0, 70, 67
2, 346368, Note_on_c, 0, 74, 67
2, 346496, Note_off_c, 0, 70, 67
2, 346496, Note_off_c, 0, 74, 67
2, 346496, Note_on_c, 0, 74, 67
2, 346496, Note_on_c, 0, 79, 67
2, 346752, Note_off_c, 0, 74, 67
2, 346752, Note_off_c, 0, 79, 67
2, 346752, Note_on_c, 0, 72, 67
2, 346752, Note_on_c, 0, 77, 67
2, 346880, Note_off_c, 0, 72, 67
2, 346880, Note_on_c, 0, 70, 67
2, 347008, Note_off_c, 0, 70, 67
2, 347008, Note_off_c, 0, 77, 67
2, 347008, Note_on_c, 0, 68, 67
2, 347008, Note_on_c, 0, 74, 67
2, 347136, Note_off_c, 0, 68, 67
2, 347136, Note_off_c, 0, 74, 67
2, 347136, Note_on_c, 0, 67, 67
2, 347136, Note_on_c, 0, 75, 67
2, 347264, Note_off_c, 0, 67, 67
2, 347264, Note_off_c, 0, 75, 67
2, 347264, Note_on_c, 0, 70, 67
2, 347264, Note_on_c, 0, 79, 67
2, 347392, Note_off_c, 0, 70, 67
2, 347392, Note_on_c, 0, 72, 67
2, 347520, Note_off_c, 0, 72, 67
2, 347520, Note_on_c, 0, 74, 67
2, 347648, Note_off_c, 0, 74, 67
2, 347648, Note_off_c, 0, 79, 67
2, 347648, Note_on_c, 0, 70, 67
2, 347648, Note_on_c, 0, 75, 67
2, 347776, Note_off_c, 0, 75, 67
2, 347776, Note_on_c, 0, 74, 67
2, 347904, Note_off_c, 0, 70, 67
2, 347904, Note_off_c, 0, 74, 67
2, 347904, Note_on_c, 0, 65, 67
2, 347904, Note_on_c, 0, 72, 67
2, 348032, Note_off_c, 0, 72, 67
2, 348032, Note_on_c, 0, 70, 67
2, 348160, Note_off_c, 0, 65, 67
2, 348160, Note_off_c, 0, 70, 67
2, 348160, Note_on_c, 0, 67, 67
2, 348160, Note_on_c, 0, 75, 67
2, 348288, Note_off_c, 0, 67, 67
2, 348288, Note_off_c, 0, 75, 67
2, 348288, Note_on_c, 0, 66, 67
2, 348288, Note_on_c, 0, 70, 67
2, 348416, Note_off_c, 0, 66, 67
2, 348416, Note_off_c, 0, 70, 67
2, 348416, Note_on_c, 0, 67, 67
2, 348416, Note_on_c, 0, 75, 67
2, 348544, Note_off_c, 0, 67, 67
2, 348544, Note_off_c, 0, 75, 67
2, 348544, Note_on_c, 0, 75, 67
2, 348544, Note_on_c, 0, 82, 67
2, 348800, Note_off_c, 0, 75, 67
2, 348800, Note_off_c, 0, 82, 67
2, 348800, Note_on_c, 0, 74, 67
2, 348800, Note_on_c, 0, 80, 67
2, 348928, Note_off_c, 0, 74, 67
2, 348928, Note_on_c, 0, 72, 67
2, 349056, Note_off_c, 0, 72, 67
2, 349056, Note_off_c, 0, 80, 67
2, 349056, Note_on_c, 0, 70, 67
2, 349056, Note_on_c, 0, 79, 67
2, 349184, Note_off_c, 0, 70, 67
2, 349184, Note_off_c, 0, 79, 67
2, 349184, Note_on_c, 0, 72, 67
2, 349184, Note_on_c, 0, 77, 67
2, 349312, Note_off_c, 0, 72, 67
2, 349312, Note_off_c, 0, 77, 67
2, 349312, Note_on_c, 0, 70, 67
2, 349312, Note_on_c, 0, 74, 67
2, 349440, Note_off_c, 0, 70, 67
2, 349440, Note_on_c, 0, 68, 67
2, 349568, Note_off_c, 0, 68, 67
2, 349568, Note_on_c, 0, 67, 67
2, 349696, Note_off_c, 0, 67, 67
2, 349696, Note_off_c, 0, 74, 67
2, 349696, Note_on_c, 0, 65, 67
2, 349696, Note_on_c, 0, 70, 67
2, 349824, Note_off_c, 0, 65, 67
2, 349824, Note_on_c, 0, 67, 67
2, 349952, Note_off_c, 0, 67, 67
2, 349952, Note_off_c, 0, 70, 67
2, 349952, Note_on_c, 0, 65, 67
2, 349952, Note_on_c, 0, 68, 67
2, 350080, Note_off_c, 0, 68, 67
2, 350080, Note_on_c, 0, 70, 67
2, 350208, Note_off_c, 0, 65, 67
2, 350208, Note_off_c, 0, 70, 67
2, 350208, Note_on_c, 0, 70, 67
2, 350208, Note_on_c, 0, 74, 67
2, 350336, Note_off_c, 0, 70, 67
2, 350336, Note_off_c, 0, 74, 67
2, 350336, Note_on_c, 0, 65, 67
2, 350336, Note_on_c, 0, 70, 67
2, 350464, Note_off_c, 0, 65, 67
2, 350464, Note_off_c, 0, 70, 67
2, 350464, Note_on_c, 0, 70, 67
2, 350464, Note_on_c, 0, 74, 67
2, 350592, Note_off_c, 0, 70, 67
2, 350592, Note_off_c, 0, 74, 67
2, 350592, Note_on_c, 0, 74, 67
2, 350592, Note_on_c, 0, 79, 67
2, 350848, Note_off_c, 0, 74, 67
2, 350848, Note_off_c, 0, 79, 67
2, 350848, Note_on_c, 0, 72, 67
2, 350848, Note_on_c, 0, 77, 67
2, 350976, Note_off_c, 0, 72, 67
2, 350976, Note_on_c, 0, 70, 67
2, 351104, Note_off_c, 0, 70, 67
2, 351104, Note_off_c, 0, 77, 67
2, 351104, Note_on_c, 0, 68, 67
2, 351104, Note_on_c, 0, 74, 67
2, 351232, Note_off_c, 0, 68, 67
2, 351232, Note_off_c, 0, 74, 67
2, 351232, Note_on_c, 0, 67, 67
2, 351232, Note_on_c, 0, 75, 67
2, 351360, Note_off_c, 0, 67, 67
2, 351360, Note_on_c, 0, 65, 67
2, 351488, Note_off_c, 0, 65, 67
2, 351488, Note_on_c, 0, 63, 67
2, 351616, Note_off_c, 0, 63, 67
2, 351616, Note_on_c, 0, 65, 67
2, 351744, Note_off_c, 0, 65, 67
2, 351744, Note_off_c, 0, 75, 67
2, 351744, Note_on_c, 0, 63, 67
2, 351744, Note_on_c, 0, 67, 67
2, 351872, Note_off_c, 0, 67, 67
2, 351872, Note_on_c, 0, 68, 67
2, 352000, Note_off_c, 0, 63, 67
2, 352000, Note_off_c, 0, 68, 67
2, 352000, Note_on_c, 0, 65, 67
2, 352000, Note_on_c, 0, 70, 67
2, 352128, Note_off_c, 0, 70, 67
2, 352128, Note_on_c, 0, 72, 67
2, 352256, Note_off_c, 0, 65, 67
2, 352256, Note_off_c, 0, 72, 67
2, 352256, Note_on_c, 0, 79, 67
2, 352768, Note_off_c, 0, 79, 67
2, 352768, Note_on_c, 0, 82, 67
2, 353024, Control_c, 0, 93, 0
2, 353024, Note_on_c, 0, 68, 67
2, 353152, Note_off_c, 0, 68, 67
2, 353152, Note_on_c, 0, 70, 67
2, 353280, Note_off_c, 0, 70, 67
2, 353280, Note_off_c, 0, 82, 67
2, 353280, Note_on_c, 0, 72, 67
2, 353280, Note_on_c, 0, 80, 67
2, 353408, Note_off_c, 0, 72, 67
2, 353408, Note_off_c, 0, 80, 67
2, 353408, Note_on_c, 0, 70, 67
2, 353408, Note_on_c, 0, 82, 67
2, 353536, Note_off_c, 0, 70, 67
2, 353536, Note_off_c, 0, 82, 67
2, 353536, Note_on_c, 0, 68, 67
2, 353536, Note_on_c, 0, 80, 67
2, 353664, Note_off_c, 0, 80, 67
2, 353664, Note_on_c, 0, 79, 67
2, 353792, Note_off_c, 0, 68, 67
2, 353792, Note_off_c, 0, 79, 67
2, 353792, Note_on_c, 0, 65, 67
2, 353792, Note_on_c, 0, 77, 67
2, 353920, Note_off_c, 0, 65, 67
2, 353920, Note_on_c, 0, 67, 67
2, 354048, Note_off_c, 0, 67, 67
2, 354048, Note_on_c, 0, 68, 67
2, 354176, Note_off_c, 0, 68, 67
2, 354176, Note_on_c, 0, 70, 67
2, 354304, Note_off_c, 0, 70, 67
2, 354304, Note_off_c, 0, 77, 67
2, 354304, Note_on_c, 0, 68, 67
2, 354304, Note_on_c, 0, 74, 67
2, 354432, Note_off_c, 0, 68, 67
2, 354432, Note_on_c, 0, 67, 67
2, 354560, Note_off_c, 0, 67, 67
2, 354560, Note_on_c, 0, 65, 67
2, 354816, Note_off_c, 0, 65, 67
2, 354816, Note_off_c, 0, 74, 67
2, 354816, Note_on_c, 0, 77, 67
2, 355072, Control_c, 0, 93, 0
2, 355072, Note_on_c, 0, 65, 67
2, 355200, Note_off_c, 0, 65, 67
2, 355200, Note_on_c, 0, 70, 67
2, 355328, Note_off_c, 0, 70, 67
2, 355328, Note_off_c, 0, 77, 67
2, 355328, Note_on_c, 0, 67, 67
2, 355328, Note_on_c, 0, 79, 67
2, 355456, Note_off_c, 0, 67, 67
2, 355456, Note_off_c, 0, 79, 67
2, 355456, Note_on_c, 0, 68, 67
2, 355456, Note_on_c, 0, 80, 67
2, 355584, Note_off_c, 0, 68, 67
2, 355584, Note_off_c, 0, 80, 67
2, 355584, Note_on_c, 0, 70, 67
2, 355584, Note_on_c, 0, 79, 67
2, 355712, Note_off_c, 0, 70, 67
2, 355712, Note_off_c, 0, 79, 67
2, 355712, Note_on_c, 0, 72, 67
2, 355712, Note_on_c, 0, 77, 67
2, 355840, Note_off_c, 0, 72, 67
2, 355840, Note_off_c, 0, 77, 67
2, 355840, Note_on_c, 0, 70, 67
2, 355840, Note_on_c, 0, 75, 67
2, 356352, Note_off_c, 0, 70, 67
2, 356352, Note_off_c, 0, 75, 67
2, 356352, Note_on_c, 0, 75, 67
2, 356352, Note_on_c, 0, 79, 67
2, 356480, Note_off_c, 0, 75, 67
2, 356480, Note_on_c, 0, 74, 67
2, 356608, Note_off_c, 0, 74, 67
2, 356608, Note_on_c, 0, 72, 67
2, 356864, Note_off_c, 0, 72, 67
2, 356864, Note_off_c, 0, 79, 67
2, 356864, Note_on_c, 0, 70, 67
2, 356864, Note_on_c, 0, 82, 67
2, 356992, Note_off_c, 0, 70, 67
2, 356992, Note_on_c, 0, 72, 67
2, 357120, Note_off_c, 0, 72, 67
2, 357120, Note_on_c, 0, 74, 67
2, 357248, Note_off_c, 0, 74, 67
2, 357248, Note_on_c, 0, 75, 67
2, 357376, Note_off_c, 0, 75, 67
2, 357376, Note_off_c, 0, 82, 67
2, 357376, Note_on_c, 0, 77, 67
2, 357376, Note_on_c, 0, 80, 67
2, 357504, Note_off_c, 0, 77, 67
2, 357504, Note_off_c, 0, 80, 67
2, 357504, Note_on_c, 0, 75, 67
2, 357504, Note_on_c, 0, 79, 67
2, 357632, Note_off_c, 0, 75, 67
2, 357632, Note_off_c, 0, 79, 67
2, 357632, Note_on_c, 0, 74, 67
2, 357632, Note_on_c, 0, 80, 67
2, 357760, Note_off_c, 0, 80, 67
2, 357760, Note_on_c, 0, 82, 67
2, 357888, Note_off_c, 0, 74, 67
2, 357888, Note_off_c, 0, 82, 67
2, 357888, Note_on_c, 0, 72, 67
2, 357888, Note_on_c, 0, 84, 67
2, 358016, Note_off_c, 0, 72, 67
2, 358016, Note_on_c, 0, 74, 67
2, 358144, Note_off_c, 0, 74, 67
2, 358144, Note_on_c, 0, 75, 67
2, 358272, Note_off_c, 0, 75, 67
2, 358272, Note_on_c, 0, 77, 67
2, 358400, Note_off_c, 0, 77, 67
2, 358400, Note_off_c, 0, 84, 67
2, 358400, Note_on_c, 0, 74, 67
2, 358400, Note_on_c, 0, 82, 67
2, 358528, Note_off_c, 0, 74, 67
2, 358528, Note_on_c, 0, 72, 67
2, 358656, Note_off_c, 0, 72, 67
2, 358656, Note_off_c, 0, 82, 67
2, 358656, Note_on_c, 0, 70, 67
2, 358656, Note_on_c, 0, 80, 67
2, 358784, Note_off_c, 0, 80, 67
2, 358784, Note_on_c, 0, 79, 67
2, 358912, Note_off_c, 0, 70, 67
2, 358912, Note_off_c, 0, 79, 67
2, 358912, Note_on_c, 0, 68, 67
2, 358912, Note_on_c, 0, 80, 67
2, 359040, Note_off_c, 0, 68, 67
2, 359040, Note_on_c, 0, 70, 67
2, 359168, Note_off_c, 0, 70, 67
2, 359168, Note_on_c, 0, 72, 67
2, 359296, Note_off_c, 0, 72, 67
2, 359296, Note_on_c, 0, 68, 67
2, 359424, Note_off_c, 0, 68, 67
2, 359424, Note_off_c, 0, 80, 67
2, 359424, Note_on_c, 0, 70, 67
2, 359424, Note_on_c, 0, 79, 67
2, 359552, Note_off_c, 0, 70, 67
2, 359552, Note_off_c, 0, 79, 67
2, 359552, Note_on_c, 0, 68, 67
2, 359552, Note_on_c, 0, 80, 67
2, 359680, Note_off_c, 0, 68, 67
2, 359680, Note_off_c, 0, 80, 67
2, 359680, Note_on_c, 0, 67, 67
2, 359680, Note_on_c, 0, 79, 67
2, 359808, Note_off_c, 0, 67, 67
2, 359808, Note_off_c, 0, 79, 67
2, 359808, Note_on_c, 0, 65, 67
2, 359808, Note_on_c, 0, 77, 67
2, 359936, Note_off_c, 0, 65, 67
2, 359936, Note_off_c, 0, 77, 67
2, 359936, Note_on_c, 0, 63, 67
2, 359936, Note_on_c, 0, 75, 67
2, 360064, Note_off_c, 0, 63, 67
2, 360064, Note_on_c, 0, 65, 67
2, 360192, Note_off_c, 0, 65, 67
2, 360192, Note_on_c, 0, 67, 67
2, 360320, Note_off_c, 0, 67, 67
2, 360320, Note_on_c, 0, 68, 67
2, 360448, Note_off_c, 0, 68, 67
2, 360448, Note_off_c, 0, 75, 67
2, 360448, Time_signature, 4, 2, 24, 8
2, 360448, Key_signature, -3, "major"
2, 360448, Note_on_c, 0, 67, 67
2, 360448, Note_on_c, 0, 75, 67
2, 360576, Note_off_c, 0, 67, 67
2, 360576, Note_off_c, 0, 75, 67
2, 360576, Note_on_c, 0, 66, 67
2, 360576, Note_on_c, 0, 70, 67
2, 360704, Note_off_c, 0, 66, 67
2, 360704, Note_off_c, 0, 70, 67
2, 360704, Note_on_c, 0, 67, 67
2, 360704, Note_on_c, 0, 75, 67
2, 360832, Note_off_c, 0, 67, 67
2, 360832, Note_off_c, 0, 75, 67
2, 360832, Note_on_c, 0, 75, 67
2, 360832, Note_on_c, 0, 82, 67
2, 361088, Note_off_c, 0, 75, 67
2, 361088, Note_off_c, 0, 82, 67
2, 361088, Note_on_c, 0, 74, 67
2, 361088, Note_on_c, 0, 80, 67
2, 361216, Note_off_c, 0, 74, 67
2, 361216, Note_on_c, 0, 72, 67
2, 361344, Note_off_c, 0, 72, 67
2, 361344, Note_off_c, 0, 80, 67
2, 361344, Note_on_c, 0, 70, 67
2, 361344, Note_on_c, 0, 79, 67
2, 361472, Note_off_c, 0, 70, 67
2, 361472, Note_off_c, 0, 79, 67
2, 361472, Note_on_c, 0, 72, 67
2, 361472, Note_on_c, 0, 77, 67
2, 361600, Note_off_c, 0, 72, 67
2, 361600, Note_off_c, 0, 77, 67
2, 361600, Note_on_c, 0, 70, 67
2, 361600, Note_on_c, 0, 74, 67
2, 361728, Note_off_c, 0, 70, 67
2, 361728, Note_on_c, 0, 68, 67
2, 361856, Note_off_c, 0, 68, 67
2, 361856, Note_on_c, 0, 67, 67
2, 361984, Note_off_c, 0, 67, 67
2, 361984, Note_off_c, 0, 74, 67
2, 361984, Note_on_c, 0, 65, 67
2, 361984, Note_on_c, 0, 70, 67
2, 362112, Note_off_c, 0, 65, 67
2, 362112, Note_on_c, 0, 67, 67
2, 362240, Note_off_c, 0, 67, 67
2, 362240, Note_off_c, 0, 70, 67
2, 362240, Note_on_c, 0, 65, 67
2, 362240, Note_on_c, 0, 68, 67
2, 362368, Note_off_c, 0, 68, 67
2, 362368, Note_on_c, 0, 70, 67
2, 362496, Note_off_c, 0, 65, 67
2, 362496, Note_off_c, 0, 70, 67
2, 362496, Note_on_c, 0, 70, 67
2, 362496, Note_on_c, 0, 74, 67
2, 362624, Note_off_c, 0, 70, 67
2, 362624, Note_off_c, 0, 74, 67
2, 362624, Note_on_c, 0, 65, 67
2, 362624, Note_on_c, 0, 70, 67
2, 362752, Note_off_c, 0, 65, 67
2, 362752, Note_off_c, 0, 70, 67
2, 362752, Note_on_c, 0, 70, 67
2, 362752, Note_on_c, 0, 74, 67
2, 362880, Note_off_c, 0, 70, 67
2, 362880, Note_off_c, 0, 74, 67
2, 362880, Note_on_c, 0, 74, 67
2, 362880, Note_on_c, 0, 79, 67
2, 363136, Note_off_c, 0, 74, 67
2, 363136, Note_off_c, 0, 79, 67
2, 363136, Note_on_c, 0, 72, 67
2, 363136, Note_on_c, 0, 77, 67
2, 363264, Note_off_c, 0, 72, 67
2, 363264, Note_on_c, 0, 70, 67
2, 363392, Note_off_c, 0, 70, 67
2, 363392, Note_off_c, 0, 77, 67
2, 363392, Note_on_c, 0, 68, 67
2, 363392, Note_on_c, 0, 74, 67
2, 363520, Note_off_c, 0, 68, 67
2, 363520, Note_off_c, 0, 74, 67
2, 363520, Note_on_c, 0, 67, 67
2, 363520, Note_on_c, 0, 75, 67
2, 363648, Note_off_c, 0, 67, 67
2, 363648, Note_off_c, 0, 75, 67
2, 363648, Note_on_c, 0, 70, 67
2, 363648, Note_on_c, 0, 79, 67
2, 363776, Note_off_c, 0, 70, 67
2, 363776, Note_on_c, 0, 72, 67
2, 363904, Note_off_c, 0, 72, 67
2, 363904, Note_on_c, 0, 74, 67
2, 364032, Note_off_c, 0, 74, 67
2, 364032, Note_off_c, 0, 79, 67
2, 364032, Note_on_c, 0, 70, 67
2, 364032, Note_on_c, 0, 75, 67
2, 364160, Note_off_c, 0, 75, 67
2, 364160, Note_on_c, 0, 74, 67
2, 364288, Note_off_c, 0, 70, 67
2, 364288, Note_off_c, 0, 74, 67
2, 364288, Note_on_c, 0, 65, 67
2, 364288, Note_on_c, 0, 72, 67
2, 364416, Note_off_c, 0, 72, 67
2, 364416, Note_on_c, 0, 70, 67
2, 364544, Note_off_c, 0, 65, 67
2, 364544, Note_off_c, 0, 70, 67
2, 364544, Note_on_c, 0, 67, 67
2, 364544, Note_on_c, 0, 75, 67
2, 364672, Note_off_c, 0, 67, 67
2, 364672, Note_off_c, 0, 75, 67
2, 364672, Note_on_c, 0, 66, 67
2, 364672, Note_on_c, 0, 70, 67
2, 364800, Note_off_c, 0, 66, 67
2, 364800, Note_off_c, 0, 70, 67
2, 364800, Note_on_c, 0, 67, 67
2, 364800, Note_on_c, 0, 75, 67
2, 364928, Note_off_c, 0, 67, 67
2, 364928, Note_off_c, 0, 75, 67
2, 364928, Note_on_c, 0, 75, 67
2, 364928, Note_on_c, 0, 82, 67
2, 365184, Note_off_c, 0, 75, 67
2, 365184, Note_off_c, 0, 82, 67
2, 365184, Note_on_c, 0, 74, 67
2, 365184, Note_on_c, 0, 80, 67
2, 365312, Note_off_c, 0, 74, 67
2, 365312, Note_on_c, 0, 72, 67
2, 365440, Note_off_c, 0, 72, 67
2, 365440, Note_off_c, 0, 80, 67
2, 365440, Note_on_c, 0, 70, 67
2, 365440, Note_on_c, 0, 79, 67
2, 365568, Note_off_c, 0, 70, 67
2, 365568, Note_off_c, 0, 79, 67
2, 365568, Note_on_c, 0, 72, 67
2, 365568, Note_on_c, 0, 77, 67
2, 365696, Note_off_c, 0, 72, 67
2, 365696, Note_off_c, 0, 77, 67
2, 365696, Note_on_c, 0, 70, 67
2, 365696, Note_on_c, 0, 74, 67
2, 365824, Note_off_c, 0, 70, 67
2, 365824, Note_on_c, 0, 68, 67
2, 365952, Note_off_c, 0, 68, 67
2, 365952, Note_on_c, 0, 67, 67
2, 366080, Note_off_c, 0, 67, 67
2, 366080, Note_off_c, 0, 74, 67
2, 366080, Note_on_c, 0, 65, 67
2, 366080, Note_on_c, 0, 70, 67
2, 366208, Note_off_c, 0, 65, 67
2, 366208, Note_on_c, 0, 67, 67
2, 366336, Note_off_c, 0, 67, 67
2, 366336, Note_off_c, 0, 70, 67
2, 366336, Note_on_c, 0, 65, 67
2, 366336, Note_on_c, 0, 68, 67
2, 366464, Note_off_c, 0, 68, 67
2, 366464, Note_on_c, 0, 70, 67
2, 366592, Note_off_c, 0, 65, 67
2, 366592, Note_off_c, 0, 70, 67
2, 366592, Note_on_c, 0, 70, 67
2, 366592, Note_on_c, 0, 74, 67
2, 366720, Note_off_c, 0, 70, 67
2, 366720, Note_off_c, 0, 74, 67
2, 366720, Note_on_c, 0, 65, 67
2, 366720, Note_on_c, 0, 70, 67
2, 366848, Note_off_c, 0, 65, 67
2, 366848, Note_off_c, 0, 70, 67
2, 366848, Note_on_c, 0, 70, 67
2, 366848, Note_on_c, 0, 74, 67
2, 366976, Note_off_c, 0, 70, 67
2, 366976, Note_off_c, 0, 74, 67
2, 366976, Note_on_c, 0, 74, 67
2, 366976, Note_on_c, 0, 79, 67
2, 367232, Note_off_c, 0, 74, 67
2, 367232, Note_off_c, 0, 79, 67
2, 367232, Note_on_c, 0, 72, 67
2, 367232, Note_on_c, 0, 77, 67
2, 367360, Note_off_c, 0, 72, 67
2, 367360, Note_on_c, 0, 70, 67
2, 367488, Note_off_c, 0, 70, 67
2, 367488, Note_off_c, 0, 77, 67
2, 367488, Note_on_c, 0, 68, 67
2, 367488, Note_on_c, 0, 74, 67
2, 367616, Note_off_c, 0, 68, 67
2, 367616, Note_off_c, 0, 74, 67
2, 367616, Note_on_c, 0, 67, 67
2, 367616, Note_on_c, 0, 75, 67
2, 367744, Note_off_c, 0, 67, 67
2, 367744, Note_on_c, 0, 65, 67
2, 367872, Note_off_c, 0, 65, 67
2, 367872, Note_on_c, 0, 63, 67
2, 368000, Note_off_c, 0, 63, 67
2, 368000, Note_on_c, 0, 65, 67
2, 368128, Note_off_c, 0, 65, 67
2, 368128, Note_off_c, 0, 75, 67
2, 368128, Note_on_c, 0, 63, 67
2, 368128, Note_on_c, 0, 67, 67
2, 368256, Note_off_c, 0, 67, 67
2, 368256, Note_on_c, 0, 68, 67
2, 368384, Note_off_c, 0, 63, 67
2, 368384, Note_off_c, 0, 68, 67
2, 368384, Note_on_c, 0, 65, 67
2, 368384, Note_on_c, 0, 70, 67
2, 368512, Note_off_c, 0, 70, 67
2, 368512, Note_on_c, 0, 72, 67
2, 368640, Note_off_c, 0, 65, 67
2, 368640, Note_off_c, 0, 72, 67
2, 368640, Note_on_c, 0, 79, 67
2, 369152, Note_off_c, 0, 79, 67
2, 369152, Note_on_c, 0, 82, 67
2, 369408, Control_c, 0, 93, 0
2, 369408, Note_on_c, 0, 68, 67
2, 369536, Note_off_c, 0, 68, 67
2, 369536, Note_on_c, 0, 70, 67
2, 369664, Note_off_c, 0, 70, 67
2, 369664, Note_off_c, 0, 82, 67
2, 369664, Note_on_c, 0, 72, 67
2, 369664, Note_on_c, 0, 80, 67
2, 369792, Note_off_c, 0, 72, 67
2, 369792, Note_off_c, 0, 80, 67
2, 369792, Note_on_c, 0, 70, 67
2, 369792, Note_on_c, 0, 82, 67
2, 369920, Note_off_c, 0, 70, 67
2, 369920, Note_off_c, 0, 82, 67
2, 369920, Note_on_c, 0, 68, 67
2, 369920, Note_on_c, 0, 80, 67
2, 370048, Note_off_c, 0, 80, 67
2, 370048, Note_on_c, 0, 79, 67
2, 370176, Note_off_c, 0, 68, 67
2, 370176, Note_off_c, 0, 79, 67
2, 370176, Note_on_c, 0, 65, 67
2, 370176, Note_on_c, 0, 77, 67
2, 370304, Note_off_c, 0, 65, 67
2, 370304, Note_on_c, 0, 67, 67
2, 370432, Note_off_c, 0, 67, 67
2, 370432, Note_on_c, 0, 68, 67
2, 370560, Note_off_c, 0, 68, 67
2, 370560, Note_on_c, 0, 70, 67
2, 370688, Note_off_c, 0, 70, 67
2, 370688, Note_off_c, 0, 77, 67
2, 370688, Note_on_c, 0, 68, 67
2, 370688, Note_on_c, 0, 74, 67
2, 370816, Note_off_c, 0, 68, 67
2, 370816, Note_on_c, 0, 67, 67
2, 370944, Note_off_c, 0, 67, 67
2, 370944, Note_on_c, 0, 65, 67
2, 371200, Note_off_c, 0, 65, 67
2, 371200, Note_off_c, 0, 74, 67
2, 371200, Note_on_c, 0, 77, 67
2, 371456, Control_c, 0, 93, 0
2, 371456, Note_on_c, 0, 65, 67
2, 371584, Note_off_c, 0, 65, 67
2, 371584, Note_on_c, 0, 70, 67
2, 371712, Note_off_c, 0, 70, 67
2, 371712, Note_off_c, 0, 77, 67
2, 371712, Note_on_c, 0, 67, 67
2, 371712, Note_on_c, 0, 79, 67
2, 371840, Note_off_c, 0, 67, 67
2, 371840, Note_off_c, 0, 79, 67
2, 371840, Note_on_c, 0, 68, 67
2, 371840, Note_on_c, 0, 80, 67
2, 371968, Note_off_c, 0, 68, 67
2, 371968, Note_off_c, 0, 80, 67
2, 371968, Note_on_c, 0, 70, 67
2, 371968, Note_on_c, 0, 79, 67
2, 372096, Note_off_c, 0, 70, 67
2, 372096, Note_off_c, 0, 79, 67
2, 372096, Note_on_c, 0, 72, 67
2, 372096, Note_on_c, 0, 77, 67
2, 372224, Note_off_c, 0, 72, 67
2, 372224, Note_off_c, 0, 77, 67
2, 372224, Note_on_c, 0, 70, 67
2, 372224, Note_on_c, 0, 75, 67
2, 372736, Note_off_c, 0, 70, 67
2, 372736, Note_off_c, 0, 75, 67
2, 372736, Note_on_c, 0, 75, 67
2, 372736, Note_on_c, 0, 79, 67
2, 372864, Note_off_c, 0, 75, 67
2, 372864, Note_on_c, 0, 74, 67
2, 372992, Note_off_c, 0, 74, 67
2, 372992, Note_on_c, 0, 72, 67
2, 373248, Note_off_c, 0, 72, 67
2, 373248, Note_off_c, 0, 79, 67
2, 373248, Note_on_c, 0, 70, 67
2, 373248, Note_on_c, 0, 82, 67
2, 373376, Note_off_c, 0, 70, 67
2, 373376, Note_on_c, 0, 72, 67
2, 373504, Note_off_c, 0, 72, 67
2, 373504, Note_on_c, 0, 74, 67
2, 373632, Note_off_c, 0, 74, 67
2, 373632, Note_on_c, 0, 75, 67
2, 373760, Note_off_c, 0, 75, 67
2, 373760, Note_off_c, 0, 82, 67
2, 373760, Note_on_c, 0, 77, 67
2, 373760, Note_on_c, 0, 80, 67
2, 373888, Note_off_c, 0, 77, 67
2, 373888, Note_off_c, 0, 80, 67
2, 373888, Note_on_c, 0, 75, 67
2, 373888, Note_on_c, 0, 79, 67
2, 374016, Note_off_c, 0, 75, 67
2, 374016, Note_off_c, 0, 79, 67
2, 374016, Note_on_c, 0, 74, 67
2, 374016, Note_on_c, 0, 80, 67
2, 374144, Note_off_c, 0, 80, 67
2, 374144, Note_on_c, 0, 82, 67
2, 374272, Note_off_c, 0, 74, 67
2, 374272, Note_off_c, 0, 82, 67
2, 374272, Note_on_c, 0, 72, 67
2, 374272, Note_on_c, 0, 84, 67
2, 374400, Note_off_c, 0, 72, 67
2, 374400, Note_on_c, 0, 74, 67
2, 374528, Note_off_c, 0, 74, 67
2, 374528, Note_on_c, 0, 75, 67
2, 374656, Note_off_c, 0, 75, 67
2, 374656, Note_on_c, 0, 77, 67
2, 374784, Note_off_c, 0, 77, 67
2, 374784, Note_off_c, 0, 84, 67
2, 374784, Note_on_c, 0, 74, 67
2, 374784, Note_on_c, 0, 82, 67
2, 374912, Note_off_c, 0, 74, 67
2, 374912, Note_on_c, 0, 72, 67
2, 375040, Note_off_c, 0, 72, 67
2, 375040, Note_off_c, 0, 82, 67
2, 375040, Note_on_c, 0, 70, 67
2, 375040, Note_on_c, 0, 80, 67
2, 375168, Note_off_c, 0, 80, 67
2, 375168, Note_on_c, 0, 79, 67
2, 375296, Note_off_c, 0, 70, 67
2, 375296, Note_off_c, 0, 79, 67
2, 375296, Note_on_c, 0, 68, 67
2, 375296, Note_on_c, 0, 80, 67
2, 375424, Note_off_c, 0, 68, 67
2, 375424, Note_on_c, 0, 70, 67
2, 375552, Note_off_c, 0, 70, 67
2, 375552, Note_on_c, 0, 72, 67
2, 375680, Note_off_c, 0, 72, 67
2, 375680, Note_on_c, 0, 68, 67
2, 375808, Note_off_c, 0, 68, 67
2, 375808, Note_off_c, 0, 80, 67
2, 375808, Note_on_c, 0, 70, 67
2, 375808, Note_on_c, 0, 79, 67
2, 375936, Note_off_c, 0, 70, 67
2, 375936, Note_off_c, 0, 79, 67
2, 375936, Note_on_c, 0, 68, 67
2, 375936, Note_on_c, 0, 80, 67
2, 376064, Note_off_c, 0, 68, 67
2, 376064, Note_off_c, 0, 80, 67
2, 376064, Note_on_c, 0, 67, 67
2, 376064, Note_on_c, 0, 79, 67
2, 376192, Note_off_c, 0, 67, 67
2, 376192, Note_off_c, 0, 79, 67
2, 376192, Note_on_c, 0, 65, 67
2, 376192, Note_on_c, 0, 77, 67
2, 376320, Note_off_c, 0, 65, 67
2, 376320, Note_off_c, 0, 77, 67
2, 376320, Note_on_c, 0, 63, 67
2, 376320, Note_on_c, 0, 75, 67
2, 376448, Note_off_c, 0, 63, 67
2, 376448, Note_on_c, 0, 65, 67
2, 376576, Note_off_c, 0, 65, 67
2, 376576, Note_on_c, 0, 67, 67
2, 376704, Note_off_c, 0, 67, 67
2, 376704, Note_on_c, 0, 68, 67
2, 376832, Note_off_c, 0, 68, 67
2, 376832, Note_off_c, 0, 75, 67
2, 376832, Time_signature, 4, 2, 24, 8
2, 376832, Key_signature, -3, "major"
2, 376832, Note_on_c, 0, 67, 67
2, 376832, Note_on_c, 0, 75, 67
2, 376960, Note_off_c, 0, 67, 67
2, 376960, Note_off_c, 0, 75, 67
2, 376960, Note_on_c, 0, 66, 67
2, 376960, Note_on_c, 0, 70, 67
2, 377088, Note_off_c, 0, 66, 67
2, 377088, Note_off_c, 0, 70, 67
2, 377088, Note_on_c, 0, 67, 67
2, 377088, Note_on_c, 0, 75, 67
2, 377216, Note_off_c, 0, 67, 67
2, 377216, Note_off_c, 0, 75, 67
2, 377216, Note_on_c, 0, 75, 67
2, 377216, Note_on_c, 0, 82, 67
2, 377472, Note_off_c, 0, 75, 67
2, 377472, Note_off_c, 0, 82, 67
2, 377472, Note_on_c, 0, 74, 67
2, 377472, Note_on_c, 0, 80, 67
2, 377600, Note_off_c, 0, 74, 67
2, 377600, Note_on_c, 0, 72, 67
2, 377728, Note_off_c, 0, 72, 67
2, 377728, Note_off_c, 0, 80, 67
2, 377728, Note_on_c, 0, 70, 67
2, 377728, Note_on_c, 0, 79, 67
2, 377856, Note_off_c, 0, 70, 67
2, 377856, Note_off_c, 0, 79, 67
2, 377856, Note_on_c, 0, 72, 67
2, 377856, Note_on_c, 0, 77, 67
2, 377984, Note_off_c, 0, 72, 67
2, 377984, Note_off_c, 0, 77, 67
2, 377984, Note_on_c, 0, 70, 67
2, 377984, Note_on_c, 0, 74, 67
2, 378112, Note_off_c, 0, 70, 67
2, 378112, Note_on_c, 0, 68, 67
2, 378240, Note_off_c, 0, 68, 67
2, 378240, Note_on_c, 0, 67, 67
2, 378368, Note_off_c, 0, 67, 67
2, 378368, Note_off_c, 0, 74, 67
2, 378368, Note_on_c, 0, 65, 67
2, 378368, Note_on_c, 0, 70, 67
2, 378496, Note_off_c, 0, 65, 67
2, 378496, Note_on_c, 0, 67, 67
2, 378624, Note_off_c, 0, 67, 67
2, 378624, Note_off_c, 0, 70, 67
2, 378624, Note_on_c, 0, 65, 67
2, 378624, Note_on_c, 0, 68, 67
2, 378752, Note_off_c, 0, 68, 67
2, 378752, Note_on_c, 0, 70, 67
2, 378880, Note_off_c, 0, 65, 67
2, 378880, Note_off_c, 0, 70, 67
2, 378880, Note_on_c, 0, 70, 67
2, 378880, Note_on_c, 0, 74, 67
2, 379008, Note_off_c, 0, 70, 67
2, 379008, Note_off_c, 0, 74, 67
2, 379008, Note_on_c, 0, 65, 67
2, 379008, Note_on_c, 0, 70, 67
2, 379136, Note_off_c, 0, 65, 67
2, 379136, Note_off_c, 0, 70, 67
2, 379136, Note_on_c, 0, 70, 67
2, 379136, Note_on_c, 0, 74, 67
2, 379264, Note_off_c, 0, 70, 67
2, 379264, Note_off_c, 0, 74, 67
2, 379264, Note_on_c, 0, 74, 67
2, 379264, Note_on_c, 0, 79, 67
2, 379520, Note_off_c, 0, 74, 67
2, 379520, Note_off_c, 0, 79, 67
2, 379520, Note_on_c, 0, 72, 67
2, 379520, Note_on_c, 0, 77, 67
2, 379648, Note_off_c, 0, 72, 67
2, 379648, Note_on_c, 0, 70, 67
2, 379776, Note_off_c, 0, 70, 67
2, 379776, Note_off_c, 0, 77, 67
2, 379776, Note_on_c, 0, 68, 67
2, 379776, Note_on_c, 0, 74, 67
2, 379904, Note_off_c, 0, 68, 67
2, 379904, Note_off_c, 0, 74, 67
2, 379904, Note_on_c, 0, 67, 67
2, 379904, Note_on_c, 0, 75, 67
2, 380032, Note_off_c, 0, 67, 67
2, 380032, Note_off_c, 0, 75, 67
2, 380032, Note_on_c, 0, 70, 67
2, 380032, Note_on_c, 0, 79, 67
2, 380160, Note_off_c, 0, 70, 67
2, 380160, Note_on_c, 0, 72, 67
2, 380288, Note_off_c, 0, 72, 67
2, 380288, Note_on_c, 0, 74, 67
2, 380416, Note_off_c, 0, 74, 67
2, 380416, Note_off_c, 0, 79, 67
2, 380416, Note_on_c, 0, 70, 67
2, 380416, Note_on_c, 0, 75, 67
2, 380544, Note_off_c, 0, 75, 67
2, 380544, Note_on_c, 0, 74, 67
2, 380672, Note_off_c, 0, 70, 67
2, 380672, Note_off_c, 0, 74, 67
2, 380672, Note_on_c, 0, 65, 67
2, 380672, Note_on_c, 0, 72, 67
2, 380800, Note_off_c, 0, 72, 67
2, 380800, Note_on_c, 0, 70, 67
2, 380928, Note_off_c, 0, 65, 67
2, 380928, Note_off_c, 0, 70, 67
2, 380928, Note_on_c, 0, 67, 67
2, 380928, Note_on_c, 0, 75, 67
2, 381056, Note_off_c, 0, 67, 67
2, 381056, Note_off_c, 0, 75, 67
2, 381056, Note_on_c, 0, 66, 67
2, 381056, Note_on_c, 0, 70, 67
2, 381184, Note_off_c, 0, 66, 67
2, 381184, Note_off_c, 0, 70, 67
2, 381184, Note_on_c, 0, 67, 67
2, 381184, Note_on_c, 0, 75, 67
2, 381312, Note_off_c, 0, 67, 67
2, 381312, Note_off_c, 0, 75, 67
2, 381312, Note_on_c, 0, 75, 67
2, 381312, Note_on_c, 0, 82, 67
2, 381568, Note_off_c, 0, 75, 67
2, 381568, Note_off_c, 0, 82, 67
2, 381568, Note_on_c, 0, 74, 67
2, 381568, Note_on_c, 0, 80, 67
2, 381696, Note_off_c, 0, 74, 67
2, 381696, Note_on_c, 0, 72, 67
2, 381824, Note_off_c, 0, 72, 67
2, 381824, Note_off_c, 0, 80, 67
2, 381824, Note_on_c, 0, 70, 67
2, 381824, Note_on_c, 0, 79, 67
2, 381952, Note_off_c, 0, 70, 67
2, 381952, Note_off_c, 0, 79, 67
2, 381952, Note_on_c, 0, 72, 67
2, 381952, Note_on_c, 0, 77, 67
2, 382080, Note_off_c, 0, 72, 67
2, 382080, Note_off_c, 0, 77, 67
2, 382080, Note_on_c, 0, 70, 67
2, 382080, Note_on_c, 0, 74, 67
2, 382208, Note_off_c, 0, 70, 67
2, 382208, Note_on_c, 0, 68, 67
2, 382336, Note_off_c, 0, 68, 67
2, 382336, Note_on_c, 0, 67, 67
2, 382464, Note_off_c, 0, 67, 67
2, 382464, Note_off_c, 0, 74, 67
2, 382464, Note_on_c, 0, 65, 67
2, 382464, Note_on_c, 0, 70, 67
2, 382592, Note_off_c, 0, 65, 67
2, 382592, Note_on_c, 0, 67, 67
2, 382720, Note_off_c, 0, 67, 67
2, 382720, Note_off_c, 0, 70, 67
2, 382720, Note_on_c, 0, 65, 67
2, 382720, Note_on_c, 0, 68, 67
2, 382848, Note_off_c, 0, 68, 67
2, 382848, Note_on_c, 0, 70, 67
2, 382976, Note_off_c, 0, 65, 67
2, 382976, Note_off_c, 0, 70, 67
2, 382976, Note_on_c, 0, 70, 67
2, 382976, Note_on_c, 0, 74, 67
2, 383104, Note_off_c, 0, 70, 67
2, 383104, Note_off_c, 0, 74, 67
2, 383104, Note_on_c, 0, 65, 67
2, 383104, Note_on_c, 0, 70, 67
2, 383232, Note_off_c, 0, 65, 67
2, 383232, Note_off_c, 0, 70, 67
2, 383232, Note_on_c, 0, 70, 67
2, 383232, Note_on_c, 0, 74, 67
2, 383360, Note_off_c, 0, 70, 67
2, 383360, Note_off_c, 0, 74, 67
2, 383360, Note_on_c, 0, 74, 67
2, 383360, Note_on_c, 0, 79, 67
2, 383616, Note_off_c, 0, 74, 67
2, 383616, Note_off_c, 0, 79, 67
2, 383616, Note_on_c, 0, 72, 67
2, 383616, Note_on_c, 0, 77, 67
2, 383744, Note_off_c, 0, 72, 67
2, 383744, Note_on_c, 0, 70, 67
2, 383872, Note_off_c, 0, 70, 67
2, 383872, Note_off_c, 0, 77, 67
2, 383872, Note_on_c, 0, 68, 67
2, 383872, Note_on_c, 0, 74, 67
2, 384000, Note_off_c, 0, 68, 67
2, 384000, Note_off_c, 0, 74, 67
2, 384000, Note_on_c, 0, 67, 67
2, 384000, Note_on_c, 0, 75, 67
2, 384128, Note_off_c, 0, 67, 67
2, 384128, Note_on_c, 0, 65, 67
2, 384256, Note_off_c, 0, 65, 67
2, 384256, Note_on_c, 0, 63, 67
2, 384384, Note_off_c, 0, 63, 67
2, 384384, Note_on_c, 0, 65, 67
2, 384512, Note_off_c, 0, 65, 67
2, 384512, Note_off_c, 0, 75, 67
2, 384512, Note_on_c, 0, 63, 67
2, 384512, Note_on_c, 0, 67, 67
2, 384640, Note_off_c, 0, 67, 67
2, 384640, Note_on_c, 0, 68, 67
2, 384768, Note_off_c, 0, 63, 67
2, 384768, Note_off_c, 0, 68, 67
2, 384768, Note_on_c, 0, 65, 67
2, 384768, Note_on_c, 0, 70, 67
2, 384896, Note_off_c, 0, 70, 67
2, 384896, Note_on_c, 0, 72, 67
2, 385024, Note_off_c, 0, 65, 67
2, 385024, Note_off_c, 0, 72, 67
2, 385024, Note_on_c, 0, 79, 67
2, 385536, Note_off_c, 0, 79, 67
2, 385536, Note_on_c, 0, 82, 67
2, 385792, Control_c, 0, 93, 0
2, 385792, Note_on_c, 0, 68, 67
2, 385920, Note_off_c, 0, 68, 67
2, 385920, Note_on_c, 0, 70, 67
2, 386048, Note_off_c, 0, 70, 67
2, 386048, Note_off_c, 0, 82, 67
2, 386048, Note_on_c, 0, 72, 67
2, 386048, Note_on_c, 0, 80, 67
2, 386176, Note_off_c, 0, 72, 67
2, 386176, Note_off_c, 0, 80, 67
2, 386176, Note_on_c, 0, 70, 67
2, 386176, Note_on_c, 0, 82, 67
2, 386304, Note_off_c, 0, 70, 67
2, 386304, Note_off_c, 0, 82, 67
2, 386304, Note_on_c, 0, 68, 67
2, 386304, Note_on_c, 0, 80, 67
2, 386432, Note_off_c, 0, 80, 67
2, 386432, Note_on_c, 0, 79, 67
2, 386560, Note_off_c, 0, 68, 67
2, 386560, Note_off_c, 0, 79, 67
2, 386560, Note_on_c, 0, 65, 67
2, 386560, Note_on_c, 0, 77, 67
2, 386688, Note_off_c, 0, 65, 67
2, 386688, Note_on_c, 0, 67, 67
2, 386816, Note_off_c, 0, 67, 67
2, 386816, Note_on_c, 0, 68, 67
2, 386944, Note_off_c, 0, 68, 67
2, 386944, Note_on_c, 0, 70, 67
2, 387072, Note_off_c, 0, 70, 67
2, 387072, Note_off_c, 0, 77, 67
2, 387072, Note_on_c, 0, 68, 67
2, 387072, Note_on_c, 0, 74, 67
2, 387200, Note_off_c, 0, 68, 67
2, 387200, Note_on_c, 0, 67, 67
2, 387328, Note_off_c, 0, 67, 67
2, 387328, Note_on_c, 0, 65, 67
2, 387584, Note_off_c, 0, 65, 67
2, 387584, Note_off_c, 0, 74, 67
2, 387584, Note_on_c, 0, 77, 67
2, 387840, Control_c, 0, 93, 0
2, 387840, Note_on_c, 0, 65, 67
2, 387968, Note_off_c, 0, 65, 67
2, 387968, Note_on_c, 0, 70, 67
2, 388096, Note_off_c, 0, 70, 67
2, 388096, Note_off_c, 0, 77, 67
2, 388096, Note_on_c, 0, 67, 67
2, 388096, Note_on_c, 0, 79, 67
2, 388224, Note_off_c, 0, 67, 67
2, 388224, Note_off_c, 0, 79, 67
2, 388224, Note_on_c, 0, 68, 67
2, 388224, Note_on_c, 0, 80, 67
2, 388352, Note_off_c, 0, 68, 67
2, 388352, Note_off_c, 0, 80, 67
2, 388352, Note_on_c, 0, 70, 67
2, 388352, Note_on_c, 0, 79, 67
2, 388480, Note_off_c, 0, 70, 67
2, 388480, Note_off_c, 0, 79, 67
2, 388480, Note_on_c, 0, 72, 67
2, 388480, Note_on_c, 0, 77, 67
2, 388608, Note_off_c, 0, 72, 67
2, 388608, Note_off_c, 0, 77, 67
2, 388608, Note_on_c, 0, 70, 67
2, 388608, Note_on_c, 0, 75, 67
2, 389120, Note_off_c, 0, 70, 67
2, 389120, Note_off_c, 0, 75, 67
2, 389120, Note_on_c, 0, 75, 67
2, 389120, Note_on_c, 0, 79, 67
2, 389248, Note_off_c, 0, 75, 67
2, 389248, Note_on_c, 0, 74, 67
2, 389376, Note_off_c, 0, 74, 67
2, 389376, Note_on_c, 0, 72, 67
2, 389632, Note_off_c, 0, 72, 67
2, 389632, Note_off_c, 0, 79, 67
2, 389632, Note_on_c, 0, 70, 67
2, 389632, Note_on_c, 0, 82, 67
2, 389760, Note_off_c, 0, 70, 67
2, 389760, Note_on_c, 0, 72, 67
2, 389888, Note_off_c, 0, 72, 67
2, 389888, Note_on_c, 0, 74, 67
2, 390016, Note_off_c, 0, 74, 67
2, 390016, Note_on_c, 0, 75, 67
2, 390144, Note_off_c, 0, 75, 67
2, 390144, Note_off_c, 0, 82, 67
2, 390144, Note_on_c, 0, 77, 67
2, 390144, Note_on_c, 0, 80, 67
2, 390272, Note_off_c, 0, 77, 67
2, 390272, Note_off_c, 0, 80, 67
2, 390272, Note_on_c, 0, 75, 67
2, 390272, Note_on_c, 0, 79, 67
2, 390400, Note_off_c, 0, 75, 67
2, 390400, Note_off_c, 0, 79, 67
2, 390400, Note_on_c, 0, 74, 67
2, 390400, Note_on_c, 0, 80, 67
2, 390528, Note_off_c, 0, 80, 67
2, 390528, Note_on_c, 0, 82, 67
2, 390656, Note_off_c, 0, 74, 67
2, 390656, Note_off_c, 0, 82, 67
2, 390656, Note_on_c, 0, 72, 67
2, 390656, Note_on_c, 0, 84, 67
2, 390784, Note_off_c, 0, 72, 67
2, 390784, Note_on_c, 0, 74, 67
2, 390912, Note_off_c, 0, 74, 67
2, 390912, Note_on_c, 0, 75, 67
2, 391040, Note_off_c, 0, 75, 67
2, 391040, Note_on_c, 0, 77, 67
2, 391168, Note_off_c, 0, 77, 67
2, 391168, Note_off_c, 0, 84, 67
2, 391168, Note_on_c, 0, 74, 67
2, 391168, Note_on_c, 0, 82, 67
2, 391296, Note_off_c, 0, 74, 67
2, 391296, Note_on_c, 0, 72, 67
2, 391424, Note_off_c, 0, 72, 67
2, 391424, Note_off_c, 0, 82, 67
2, 391424, Note_on_c, 0, 70, 67
2, 391424, Note_on_c, 0, 80, 67
2, 391552, Note_off_c, 0, 80, 67
2, 391552, Note_on_c, 0, 79, 67
2, 391680, Note_off_c, 0, 70, 67
2, 391680, Note_off_c, 0, 79, 67
2, 391680, Note_on_c, 0, 68, 67
2, 391680, Note_on_c, 0, 80, 67
2, 391808, Note_off_c, 0, 68, 67
2, 391808, Note_on_c, 0, 70, 67
2, 391936, Note_off_c, 0, 70, 67
2, 391936, Note_on_c, 0, 72, 67
2, 392064, Note_off_c, 0, 72, 67
2, 392064, Note_on_c, 0, 68, 67
2, 392192, Note_off_c, 0, 68, 67
2, 392192, Note_off_c, 0, 80, 67
2, 392192, Note_on_c, 0, 70, 67
2, 392192, Note_on_c, 0, 79, 67
2, 392320, Note_off_c, 0, 70, 67
2, 392320, Note_off_c, 0, 79, 67
2, 392320, Note_on_c, 0, 68, 67
2, 392320, Note_on_c, 0, 80, 67
2, 392448, Note_off_c, 0, 68, 67
2, 392448, Note_off_c, 0, 80, 67
2, 392448, Note_on_c, 0, 67, 67
2, 392448, Note_on_c, 0, 79, 67
2, 392576, Note_off_c, 0, 67, 67
2, 392576, Note_off_c, 0, 79, 67
2, 392576, Note_on_c, 0, 65, 67
2, 392576, Note_on_c, 0, 77, 67
2, 392704, Note_off_c, 0, 65, 67
2, 392704, Note_off_c, 0, 77, 67
2, 392704, Note_on_c, 0, 63, 67
2, 392704, Note_on_c, 0, 75, 67
2, 392832, Note_off_c, 0, 63, 67
2, 392832, Note_on_c, 0, 65, 67
2, 392960, Note_off_c, 0, 65, 67
2, 392960, Note_on_c, 0, 67, 67
2, 393088, Note_off_c, 0, 67, 67
2, 393088, Note_on_c, 0, 68, 67
2, 393216, Note_off_c, 0, 68, 67
2, 393216, Note_off_c, 0, 75, 67
2, 393216, Time_signature, 4, 2, 24, 8
2, 393216, Key_signature, -3, "major"
2, 393216, Note_on_c, 0, 67, 67
2, 393216, Note_on_c, 0, 75, 67
2, 393344, Note_off_c, 0, 67, 67
2, 393344, Note_off_c, 0, 75, 67
2, 393344, Note_on_c, 0, 66, 67
2, 393344, Note_on_c, 0, 70, 67
2, 393472, Note_off_c, 0, 66, 67
2, 393472, Note_off_c, 0, 70, 67
2, 393472, Note_on_c, 0, 67, 67
2, 393472, Note_on_c, 0, 75, 67
2, 393600, Note_off_c, 0, 67, 67
2, 393600, Note_off_c, 0, 75, 67
2, 393600, Note_on_c, 0, 75, 67
2, 393600, Note_on_c, 0, 82, 67
2, 393856, Note_off_c, 0, 75, 67
2, 393856, Note_off_c, 0, 82, 67
2, 393856, Note_on_c, 0, 74, 67
2, 393856, Note_on_c, 0, 80, 67
2, 393984, Note_off_c, 0, 74, 67
2, 393984, Note_on_c, 0, 72, 67
2, 394112, Note_off_c, 0, 72, 67
2, 394112, Note_off_c, 0, 80, 67
2, 394112, Note_on_c, 0, 70, 67
2, 394112, Note_on_c, 0, 79, 67
2, 394240, Note_off_c, 0, 70, 67
2, 394240, Note_off_c, 0, 79, 67
2, 394240, Note_on_c, 0, 72, 67
2, 394240, Note_on_c, 0, 77, 67
2, 394368, Note_off_c, 0, 72, 67
2, 394368, Note_off_c, 0, 77, 67
2, 394368, Note_on_c, 0, 70, 67
2, 394368, Note_on_c, 0, 74, 67
2, 394496, Note_off_c, 0, 70, 67
2, 394496, Note_on_c, 0, 68, 67
2, 394624, Note_off_c, 0, 68, 67
2, 394624, Note_on_c, 0, 67, 67
2, 394752, Note_off_c, 0, 67, 67
2, 394752, Note_off_c, 0, 74, 67
2, 394752, Note_on_c, 0, 65, 67
2, 394752, Note_on_c, 0, 70, 67
2, 394880, Note_off_c, 0, 65, 67
2, 394880, Note_on_c, 0, 67, 67
2, 395008, Note_off_c, 0, 67, 67
2, 395008, Note_off_c, 0, 70, 67
2, 395008, Note_on_c, 0, 65, 67
2, 395008, Note_on_c, 0, 68, 67
2, 395136, Note_off_c, 0, 68, 67
2, 395136, Note_on_c, 0, 70, 67
2, 395264, Note_off_c, 0, 65, 67
2, 395264, Note_off_c, 0, 70, 67
2, 395264, Note_on_c, 0, 70, 67
2, 395264, Note_on_c, 0, 74, 67
2, 395392, Note_off_c, 0, 70, 67
2, 395392, Note_off_c, 0, 74, 67
2, 395392, Note_on_c, 0, 65, 67
2, 395392, Note_on_c, 0, 70, 67
2, 395520, Note_off_c, 0, 65, 67
2, 395520, Note_off_c, 0, 70, 67
2, 395520, Note_on_c, 0, 70, 67
2, 395520, Note_on_c, 0, 74, 67
2, 395648, Note_off_c, 0, 70, 67
2, 395648, Note_off_c, 0, 74, 67
2, 395648, Note_on_c, 0, 74, 67
2, 395648, Note_on_c, 0, 79, 67
2, 395904, Note_off_c, 0, 74, 67
2, 395904, Note_off_c, 0, 79, 67
2, 395904, Note_on_c, 0, 72, 67
2, 395904, Note_on_c, 0, 77, 67
2, 396032, Note_off_c, 0, 72, 67
2, 396032, Note_on_c, 0, 70, 67
2, 396160, Note_off_c, 0, 70, 67
2, 396160, Note_off_c, 0, 77, 67
2, 396160, Note_on_c, 0, 68, 67
2, 396160, Note_on_c, 0, 74, 67
2, 396288, Note_off_c, 0, 68, 67
2, 396288, Note_off_c, 0, 74, 67
2, 396288, Note_on_c, 0, 67, 67
2, 396288, Note_on_c, 0, 75, 67
2, 396416, Note_off_c, 0, 67, 67
2, 396416, Note_off_c, 0, 75, 67
2, 396416, Note_on_c, 0, 70, 67
2, 396416, Note_on_c, 0, 79, 67
2, 396544, Note_off_c, 0, 70, 67
2, 396544, Note_on_c, 0, 72, 67
2, 396672, Note_off_c, 0, 72, 67
2, 396672, Note_on_c, 0, 74, 67
2, 396800, Note_off_c, 0, 74, 67
2, 396800, Note_off_c, 0, 79, 67
2, 396800, Note_on_c, 0, 70, 67
2, 396800, Note_on_c, 0, 75, 67
2, 396928, Note_off_c, 0, 75, 67
2, 396928, Note_on_c, 0, 74, 67
2, 397056, Note_off_c, 0, 70, 67
2, 397056, Note_off_c, 0, 74, 67
2, 397056, Note_on_c, 0, 65, 67
2, 397056, Note_on_c, 0, 72, 67
2, 397184, Note_off_c, 0, 72, 67
2, 397184, Note_on_c, 0, 70, 67
2, 397312, Note_off_c, 0, 65, 67
2, 397312, Note_off_c, 0, 70, 67
2, 397312, Note_on_c, 0, 67, 67
2, 397312, Note_on_c, 0, 75, 67
2, 397440, Note_off_c, 0, 67, 67
2, 397440, Note_off_c, 0, 75, 67
2, 397440, Note_on_c, 0, 66, 67
2, 397440, Note_on_c, 0, 70, 67
2, 397568, Note_off_c, 0, 66, 67
2, 397568, Note_off_c, 0, 70, 67
2, 397568, Note_on_c, 0, 67, 67
2, 397568, Note_on_c, 0, 75, 67
2, 397696, Note_off_c, 0, 67, 67
2, 397696, Note_off_c, 0, 75, 67
2, 397696, Note_on_c, 0, 75, 67
2, 397696, Note_on_c, 0, 82, 67
2, 397952, Note_off_c, 0, 75, 67
2, 397952, Note_off_c, 0, 82, 67
2, 397952, Note_on_c, 0, 74, 67
2, 397952, Note_on_c, 0, 80, 67
2, 398080, Note_off_c, 0, 74, 67
2, 398080, Note_on_c, 0, 72, 67
2, 398208, Note_off_c, 0, 72, 67
2, 398208, Note_off_c, 0, 80, 67
2, 398208, Note_on_c, 0, 70, 67
2, 398208, Note_on_c, 0, 79, 67
2, 398336, Note_off_c, 0, 70, 67
2, 398336, Note_off_c, 0, 79, 67
2, 398336, Note_on_c, 0, 72, 67
2, 398336, Note_on_c, 0, 77, 67
2, 398464, Note_off_c, 0, 72, 67
2, 398464, Note_off_c, 0, 77, 67
2, 398464, Note_on_c, 0, 70, 67
2, 398464, Note_on_c, 0, 74, 67
2, 398592, Note_off_c, 0, 70, 67
2, 398592, Note_on_c, 0, 68, 67
2, 398720, Note_off_c, 0, 68, 67
2, 398720, Note_on_c, 0, 67, 67
2, 398848, Note_off_c, 0, 67, 67
2, 398848, Note_off_c, 0, 74, 67
2, 398848, Note_on_c, 0, 65, 67
2, 398848, Note_on_c, 0, 70, 67
2, 398976, Note_off_c, 0, 65, 67
2, 398976, Note_on_c, 0, 67, 67
2, 399104, Note_off_c, 0, 67, 67
2, 399104, Note_off_c, 0, 70, 67
2, 399104, Note_on_c, 0, 65, 67
2, 399104, Note_on_c, 0, 68, 67
2, 399232, Note_off_c, 0, 68, 67
2, 399232, Note_on_c, 0, 70, 67
2, 399360, Note_off_c, 0, 65, 67
2, 399360, Note_off_c, 0, 70, 67
2, 399360, Note_on_c, 0, 70, 67
2, 399360, Note_on_c, 0, 74, 67
2, 399488, Note_off_c, 0, 70, 67
2, 399488, Note_off_c, 0, 74, 67
2, 399488, Note_on_c, 0, 65, 67
2, 399488, Note_on_c, 0, 70, 67
2, 399616, Note_off_c, 0, 65, 67
2, 399616, Note_off_c, 0, 70, 67
2, 399616, Note_on_c, 0, 70, 67
2, 399616, Note_on_c, 0, 74, 67
2, 399744, Note_off_c, 0, 70, 67
2, 399744, Note_off_c, 0, 74, 67
2, 399744, Note_on_c, 0, 74, 67
2, 399744, Note_on_c, 0, 79, 67
2, 400000, Note_off_c, 0, 74, 67
2, 400000, Note_off_c, 0, 79, 67
2, 400000, Note_on_c, 0, 72, 67
2, 400000, Note_on_c, 0, 77, 67
2, 400128, Note_off_c, 0, 72, 67
2, 400128, Note_on_c, 0, 70, 67
2, 400256, Note_off_c, 0, 70, 67
2, 400256, Note_off_c, 0, 77, 67
2, 400256, Note_on_c, 0, 68, 67
2, 400256, Note_on_c, 0, 74, 67
2, 400384, Note_off_c, 0, 68, 67
2, 400384, Note_off_c, 0, 74, 67
2, 400384, Note_on_c, 0, 67, 67
2, 400384, Note_on_c, 0, 75, 67
2, 400512, Note_off_c, 0, 67, 67
2, 400512, Note_on_c, 0, 65, 67
2, 400640, Note_off_c, 0, 65, 67
2, 400640, Note_on_c, 0, 63, 67
2, 400768, Note_off_c, 0, 63, 67
2, 400768, Note_on_c, 0, 65, 67
2, 400896, Note_off_c, 0, 65, 67
2, 400896, Note_off_c, 0, 75, 67
2, 400896, Note_on_c, 0, 63, 67
2, 400896, Note_on_c, 0, 67, 67
2, 401024, Note_off_c, 0, 67, 67
2, 401024, Note_on_c, 0, 68, 67
2, 401152, Note_off_c, 0, 63, 67
2, 401152, Note_off_c, 0, 68, 67
2, 401152, Note_on_c, 0, 65, 67
2, 401152, Note_on_c, 0, 70, 67
2, 401280, Note_off_c, 0, 70, 67
2, 401280, Note_on_c, 0, 72, 67
2, 401408, Note_off_c, 0, 65, 67
2, 401408, Note_off_c, 0, 72, 67
2, 401408, Note_on_c, 0, 79, 67
2, 401920, Note_off_c, 0, 79, 67
2, 401920, Note_on_c, 0, 82, 67
2, 402176, Control_c, 0, 93, 0
2, 402176, Note_on_c, 0, 68, 67
2, 402304, Note_off_c, 0, 68, 67
2, 402304, Note_on_c, 0, 70, 67
2, 402432, Note_off_c, 0, 70, 67
2, 402432, Note_off_c, 0, 82, 67
2, 402432, Note_on_c, 0, 72, 67
2, 402432, Note_on_c, 0, 80, 67
2, 402560, Note_off_c, 0, 72, 67
2, 402560, Note_off_c, 0, 80, 67
2, 402560, Note_on_c, 0, 70, 67
2, 402560, Note_on_c, 0, 82, 67
2, 402688, Note_off_c, 0, 70, 67
2, 402688, Note_off_c, 0, 82, 67
2, 402688, Note_on_c, 0, 68, 67
2, 402688, Note_on_c, 0, 80, 67
2, 402816, Note_off_c, 0, 80, 67
2, 402816, Note_on_c, 0, 79, 67
2, 402944, Note_off_c, 0, 68, 67
2, 402944, Note_off_c, 0, 79, 67
2, 402944, Note_on_c, 0, 65, 67
2, 402944, Note_on_c, 0, 77, 67
2, 403072, Note_off_c, 0, 65, 67
2, 403072, Note_on_c, 0, 67, 67
2, 403200, Note_off_c, 0, 67, 67
2, 403200, Note_on_c, 0, 68, 67
2, 403328, Note_off_c, 0, 68, 67
2, 403328, Note_on_c, 0, 70, 67
2, 403456, Note_off_c, 0, 70, 67
2, 403456, Note_off_c, 0, 77, 67
2, 403456, Note_on_c, 0, 68, 67
2, 403456, Note_on_c, 0, 74, 67
2, 403584, Note_off_c, 0, 68, 67
2, 403584, Note_on_c, 0, 67, 67
2, 403712, Note_off_c, 0, 67, 67
2, 403712, Note_on_c, 0, 65, 67
2, 403968, Note_off_c, 0, 65, 67
2, 403968, Note_off_c, 0, 74, 67
2, 403968, Note_on_c, 0, 77, 67
2, 404224, Control_c, 0, 93, 0
2, 404224, Note_on_c, 0, 65, 67
2, 404352, Note_off_c, 0, 65, 67
2, 404352, Note_on_c, 0, 70, 67
2, 404480, Note_off_c, 0, 70, 67
2, 404480, Note_off_c, 0, 77, 67
2, 404480, Note_on_c, 0, 67, 67
2, 404480, Note_on_c, 0, 79, 67
2, 404608, Note_off_c, 0, 67, 67
2, 404608, Note_off_c, 0, 79, 67
2, 404608, Note_on_c, 0, 68, 67
2, 404608, Note_on_c, 0, 80, 67
2, 404736, Note_off_c, 0, 68, 67
2, 404736, Note_off_c, 0, 80, 67
2, 404736, Note_on_c, 0, 70, 67
2, 404736, Note_on_c, 0, 79, 67
2, 404864, Note_off_c, 0, 70, 67
2, 404864, Note_off_c, 0, 79, 67
2, 404864, Note_on_c, 0, 72, 67
2, 404864, Note_on_c, 0, 77, 67
2, 404992, Note_off_c, 0, 72, 67
2, 404992, Note_off_c, 0, 77, 67
2, 404992, Note_on_c, 0, 70, 67
2, 404992, Note_on_c, 0, 75, 67
2, 405504, Note_off_c, 0, 70, 67
2, 405504, Note_off_c, 0, 75, 67
2, 405504, Note_on_c, 0, 75, 67
2, 405504, Note_on_c, 0, 79, 67
2, 405632, Note_off_c, 0, 75, 67
2, 405632, Note_on_c, 0, 74, 67
2, 405760, Note_off_c, 0, 74, 67
2, 405760, Note_on_c, 0, 72, 67
2, 406016, Note_off_c, 0, 72, 67
2, 406016, Note_off_c, 0, 79, 67
2, 406016, Note_on_c, 0, 70, 67
2, 406016, Note_on_c, 0, 82, 67
2, 406144, Note_off_c, 0, 70, 67
2, 406144, Note_on_c, 0, 72, 67
2, 406272, Note_off_c, 0, 72, 67
2, 406272, Note_on_c, 0, 74, 67
2, 406400, Note_off_c, 0, 74, 67
2, 406400, Note_on_c, 0, 75, 67
2, 406528, Note_off_c, 0, 75, 67
2, 406528, Note_off_c, 0, 82, 67
2, 406528, Note_on_c, 0, 77, 67
2, 406528, Note_on_c, 0, 80, 67
2, 406656, Note_off_c, 0, 77, 67
2, 406656, Note_off_c, 0, 80, 67
2, 406656, Note_on_c, 0, 75, 67
2, 406656, Note_on_c, 0, 79, 67
2, 406784, Note_off_c, 0, 75, 67
2, 406784, Note_off_c, 0, 79, 67
2, 406784, Note_on_c, 0, 74, 67
2, 406784, Note_on_c, 0, 80, 67
2, 406912, Note_off_c, 0, 80, 67
2, 406912, Note_on_c, 0, 82, 67
2, 407040, Note_off_c, 0, 74, 67
2, 407040, Note_off_c, 0, 82, 67
2, 407040, Note_on_c, 0, 72, 67
2, 407040, Note_on_c, 0, 84, 67
2, 407168, Note_off_c, 0, 72, 67
2, 407168, Note_on_c, 0, 74, 67
2, 407296, Note_off_c, 0, 74, 67
2, 407296, Note_on_c, 0, 75, 67
2, 407424, Note_off_c, 0, 75, 67
2, 407424, Note_on_c, 0, 77, 67
2, 407552, Note_off_c, 0, 77, 67
2, 407552, Note_off_c, 0, 84, 67
2, 407552, Note_on_c, 0, 74, 67
2, 407552, Note_on_c, 0, 82, 67
2, 407680, Note_off_c, 0, 74, 67
2, 407680, Note_on_c, 0, 72, 67
2, 407808, Note_off_c, 0, 72, 67
2, 407808, Note_off_c, 0, 82, 67
2, 407808, Note_on_c, 0, 70, 67
2, 407808, Note_on_c, 0, 80, 67
2, 407936, Note_off_c, 0, 80, 67
2, 407936, Note_on_c, 0, 79, 67
2, 408064, Note_off_c, 0, 70, 67
2, 408064, Note_off_c, 0, 79, 67
2, 408064, Note_on_c, 0, 68, 67
2, 408064, Note_on_c, 0, 80, 67
2, 408192, Note_off_c, 0, 68, 67
2, 408192, Note_on_c, 0, 70, 67
2, 408320, Note_off_c, 0, 70, 67
2, 408320, Note_on_c, 0, 72, 67
2, 408448, Note_off_c, 0, 72, 67
2, 408448, Note_on_c, 0, 68, 67
2, 408576, Note_off_c, 0, 68, 67
2, 408576, Note_off_c, 0, 80, 67
2, 408576, Note_on_c, 0, 70, 67
2, 408576, Note_on_c, 0, 79, 67
2, 408704, Note_off_c, 0, 70, 67
2, 408704, Note_off_c, 0, 79, 67
2, 408704, Note_on_c, 0, 68, 67
2, 408704, Note_on_c, 0, 80, 67
2, 408832, Note_off_c, 0, 68, 67
2, 408832, Note_off_c, 0, 80, 67
2, 408832, Note_on_c, 0, 67, 67
2, 408832, Note_on_c, 0, 79, 67
2, 408960, Note_off_c, 0, 67, 67
2, 408960, Note_off_c, 0, 79, 67
2, 408960, Note_on_c, 0, 65, 67
2, 408960, Note_on_c, 0, 77, 67
2, 409088, Note_off_c, 0, 65, 67
2, 409088, Note_off_c, 0, 77, 67
2, 409088, Note_on_c, 0, 63, 67
2, 409088, Note_on_c, 0, 75, 67
2, 409216, Note_off_c, 0, 63, 67
2, 409216, Note_on_c, 0, 65, 67
2, 409344, Note_off_c, 0, 65, 67
2, 409344, Note_on_c, 0, 67, 67
2, 409472, Note_off_c, 0, 67, 67
2, 409472, Note_on_c, 0, 68, 67
2, 409600, Note_off_c, 0, 68, 67
2, 409600, Note_off_c, 0, 75, 67
2, 409600, Time_signature, 4, 2, 24, 8
2, 409600, Key_signature, -3, "major"
2, 409600, Note_on_c, 0, 67, 67
2, 409600, Note_on_c, 0, 75, 67
2, 409728, Note_off_c, 0, 67, 67
2, 409728, Note_off_c, 0, 75, 67
2, 409728, Note_on_c, 0, 66, 67
2, 409728, Note_on_c, 0, 70, 67
2, 409856, Note_off_c, 0, 66, 67
2, 409856, Note_off_c, 0, 70, 67
2, 409856, Note_on_c, 0, 67, 67
2, 409856, Note_on_c, 0, 75, 67
2, 409984, Note_off_c, 0, 67, 67
2, 409984, Note_off_c, 0, 75, 67
2, 409984, Note_on_c, 0, 75, 67
2, 409984, Note_on_c, 0, 82, 67
2, 410240, Note_off_c, 0, 75, 67
2, 410240, Note_off_c, 0, 82, 67
2, 410240, Note_on_c, 0, 74, 67
2, 410240, Note_on_c, 0, 80, 67
2, 410368, Note_off_c, 0, 74, 67
2, 410368, Note_on_c, 0, 72, 67
2, 410496, Note_off_c, 0, 72, 67
2, 410496, Note_off_c, 0, 80, 67
2, 410496, Note_on_c, 0, 70, 67
2, 410496, Note_on_c, 0, 79, 67
2, 410624, Note_off_c, 0, 70, 67
2, 410624, Note_off_c, 0, 79, 67
2, 410624, Note_on_c, 0, 72, 67
2, 410624, Note_on_c, 0, 77, 67
2, 410752, Note_off_c, 0, 72, 67
2, 410752, Note_off_c, 0, 77, 67
2, 410752, Note_on_c, 0, 70, 67
2, 410752, Note_on_c, 0, 74, 67
2, 410880, Note_off_c, 0, 70, 67
2, 410880, Note_on_c, 0, 68, 67
2, 411008, Note_off_c, 0, 68, 67
2, 411008, Note_on_c, 0, 67, 67
2, 411136, Note_off_c, 0, 67, 67
2, 411136, Note_off_c, 0, 74, 67
2, 411136, Note_on_c, 0, 65, 67
2, 411136, Note_on_c, 0, 70, 67
2, 411264, Note_off_c, 0, 65, 67
2, 411264, Note_on_c, 0, 67, 67
2, 411392, Note_off_c, 0, 67, 67
2, 411392, Note_off_c, 0, 70, 67
2, 411392, Note_on_c, 0, 65, 67
2, 411392, Note_on_c, 0, 68, 67
2, 411520, Note_off_c, 0, 68, 67
2, 411520, Note_on_c, 0, 70, 67
2, 411648, Note_off_c, 0, 65, 67
2, 411648, Note_off_c, 0, 70, 67
2, 411648, Note_on_c, 0, 70, 67
2, 411648, Note_on_c, 0, 74, 67
2, 411776, Note_off_c, 0, 70, 67
2, 411776, Note_off_c, 0, 74, 67
2, 411776, Note_on_c, 0, 65, 67
2, 411776, Note_on_c, 0, 70, 67
2, 411904, Note_off_c, 0, 65, 67
2, 411904, Note_off_c, 0, 70, 67
2, 411904, Note_on_c, 0, 70, 67
2, 411904, Note_on_c, 0, 74, 67
2, 412032, Note_off_c, 0, 70, 67
2, 412032, Note_off_c, 0, 74, 67
2, 412032, Note_on_c, 0, 74, 67
2, 412032, Note_on_c, 0, 79, 67
2, 412288, Note_off_c, 0, 74, 67
2, 412288, Note_off_c, 0, 79, 67
2, 412288, Note_on_c, 0, 72, 67
2, 412288, Note_on_c, 0, 77, 67
2, 412416, Note_off_c, 0, 72, 67
2, 412416, Note_on_c, 0, 70, 67
2, 412544, Note_off_c, 0, 70, 67
2, 412544, Note_off_c, 0, 77, 67
2, 412544, Note_on_c, 0, 68, 67
2, 412544, Note_on_c, 0, 74, 67
2, 412672, Note_off_c, 0, 68, 67
2, 412672, Note_off_c, 0, 74, 67
2, 412672, Note_on_c, 0, 67, 67
2, 412672, Note_on_c, 0, 75, 67
2, 412800, Note_off_c, 0, 67, 67
2, 412800, Note_off_c, 0, 75, 67
2, 412800, Note_on_c, 0, 70, 67
2, 412800, Note_on_c, 0, 79, 67
2, 412928, Note_off_c, 0, 70, 67
2, 412928, Note_on_c, 0, 72, 67
2, 413056, Note_off_c, 0, 72, 67
2, 413056, Note_on_c, 0, 74, 67
2, 413184, Note_off_c, 0, 74, 67
2, 413184, Note_off_c, 0, 79, 67
2, 413184, Note_on_c, 0, 70, 67
2, 413184, Note_on_c, 0, 75, 67
2, 413312, Note_off_c, 0, 75, 67
2, 413312, Note_on_c, 0, 74, 67
2, 413440, Note_off_c, 0, 70, 67
2, 413440, Note_off_c, 0, 74, 67
2, 413440, Note_on_c, 0, 65, 67
2, 413440, Note_on_c, 0, 72, 67
2, 413568, Note_off_c, 0, 72, 67
2, 413568, Note_on_c, 0, 70, 67
2, 413696, Note_off_c, 0, 65, 67
2, 413696, Note_off_c, 0, 70, 67
2, 413696, Note_on_c, 0, 67, 67
2, 413696, Note_on_c, 0, 75, 67
2, 413824, Note_off_c, 0, 67, 67
2, 413824, Note_off_c, 0, 75, 67
2, 413824, Note_on_c, 0, 66, 67
2, 413824, Note_on_c, 0, 70, 67
2, 413952, Note_off_c, 0, 66, 67
2, 413952, Note_off_c, 0, 70, 67
2, 413952, Note_on_c, 0, 67, 67
2, 413952, Note_on_c, 0, 75, 67
2, 414080, Note_off_c, 0, 67, 67
2, 414080, Note_off_c, 0, 75, 67
2, 414080, Note_on_c, 0, 75, 67
2, 414080, Note_on_c, 0, 82, 67
2, 414336, Note_off_c, 0, 75, 67
2, 414336, Note_off_c, 0, 82, 67
2, 414336, Note_on_c, 0, 74, 67
2, 414336, Note_on_c, 0, 80, 67
2, 414464, Note_off_c, 0, 74, 67
2, 414464, Note_on_c, 0, 72, 67
2, 414592, Note_off_c, 0, 72, 67
2, 414592, Note_off_c, 0, 80, 67
2, 414592, Note_on_c, 0, 70, 67
2, 414592, Note_on_c, 0, 79, 67
2, 414720, Note_off_c, 0, 70, 67
2, 414720, Note_off_c, 0, 79, 67
2, 414720, Note_on_c, 0, 72, 67
2, 414720, Note_on_c, 0, 77, 67
2, 414848, Note_off_c, 0, 72, 67
2, 414848, Note_off_c, 0, 77, 67
2, 414848, Note_on_c, 0, 70, 67
2, 414848, Note_on_c, 0, 74, 67
2, 414976, Note_off_c, 0, 70, 67
2, 414976, Note_on_c, 0, 68, 67
2, 415104, Note_off_c, 0, 68, 67
2, 415104, Note_on_c, 0, 67, 67
2, 415232, Note_off_c, 0, 67, 67
2, 415232, Note_off_c, 0, 74, 67
2, 415232, Note_on_c, 0, 65, 67
2, 415232, Note_on_c, 0, 70, 67
2, 415360, Note_off_c, 0, 65, 67
2, 415360, Note_on_c, 0, 67, 67
2, 415488, Note_off_c, 0, 67, 67
2, 415488, Note_off_c, 0, 70, 67
2, 415488, Note_on_c, 0, 65, 67
2, 415488, Note_on_c, 0, 68, 67
2, 415616, Note_off_c, 0, 68, 67
2, 415616, Note_on_c, 0, 70, 67
2, 415744, Note_off_c, 0, 65, 67
2, 415744, Note_off_c, 0, 70, 67
2, 415744, Note_on_c, 0, 70, 67
2, 415744, Note_on_c, 0, 74, 67
2, 415872, Note_off_c, 0, 70, 67
2, 415872, Note_off_c, 0, 74, 67
2, 415872, Note_on_c, 0, 65, 67
2, 415872, Note_on_c, 0, 70, 67
2, 416000, Note_off_c, 0, 65, 67
2, 416000, Note_off_c, 0, 70, 67
2, 416000, Note_on_c, 0, 70, 67
2, 416000, Note_on_c, 0, 74, 67
2, 416128, Note_off_c, 0, 70, 67
2, 416128, Note_off_c, 0, 74, 67
2, 416128, Note_on_c, 0, 74, 67
2, 416128, Note_on_c, 0, 79, 67
2, 416384, Note_off_c, 0, 74, 67
2, 416384, Note_off_c, 0, 79, 67
2, 416384, Note_on_c, 0, 72, 67
2, 416384, Note_on_c, 0, 77, 67
2, 416512, Note_off_c, 0, 72, 67
2, 416512, Note_on_c, 0, 70, 67
2, 416640, Note_off_c, 0, 70, 67
2, 416640, Note_off_c, 0, 77, 67
2, 416640, Note_on_c, 0, 68, 67
2, 416640, Note_on_c, 0, 74, 67
2, 416768, Note_off_c, 0, 68, 67
2, 416768, Note_off_c, 0, 74, 67
2, 416768, Note_on_c, 0, 67, 67
2, 416768, Note_on_c, 0, 75, 67
2, 416896, Note_off_c, 0, 67, 67
2, 416896, Note_on_c, 0, 65, 67
2, 417024, Note_off_c, 0, 65, 67
2, 417024, Note_on_c, 0, 63, 67
2, 417152, Note_off_c, 0, 63, 67
2, 417152, Note_on_c, 0, 65, 67
2, 417280, Note_off_c, 0, 65, 67
2, 417280, Note_off_c, 0, 75, 67
2, 417280, Note_on_c, 0, 63, 67
2, 417280, Note_on_c, 0, 67, 67
2, 417408, Note_off_c, 0, 67, 67
2, 417408, Note_on_c, 0, 68, 67
2, 417536, Note_off_c, 0, 63, 67
2, 417536, Note_off_c, 0, 68, 67
2, 417536, Note_on_c, 0, 65, 67
2, 417536, Note_on_c, 0, 70, 67
2, 417664, Note_off_c, 0, 70, 67
2, 417664, Note_on_c, 0, 72, 67
2, 417792, Note_off_c, 0, 65, 67
2, 417792, Note_off_c, 0, 72, 67
2, 417792, Note_on_c, 0, 79, 67
2, 418304, Note_off_c, 0, 79, 67
2, 418304, Note_on_c, 0, 82, 67
2, 418560, Control_c, 0, 93, 0
2, 418560, Note_on_c, 0, 68, 67
2, 418688, Note_off_c, 0, 68, 67
2, 418688, Note_on_c, 0, 70, 67
2, 418816, Note_off_c, 0, 70, 67
2, 418816, Note_off_c, 0, 82, 67
2, 418816, Note_on_c, 0, 72, 67
2, 418816, Note_on_c, 0, 80, 67
2, 418944, Note_off_c, 0, 72, 67
2, 418944, Note_off_c, 0, 80, 67
2, 418944, Note_on_c, 0, 70, 67
2, 418944, Note_on_c, 0, 82, 67
2, 419072, Note_off_c, 0, 70, 67
2, 419072, Note_off_c, 0, 82, 67
2, 419072, Note_on_c, 0, 68, 67
2, 419072, Note_on_c, 0, 80, 67
2, 419200, Note_off_c, 0, 80, 67
2, 419200, Note_on_c, 0, 79, 67
2, 419328, Note_off_c, 0, 68, 67
2, 419328, Note_off_c, 0, 79, 67
2, 419328, Note_on_c, 0, 65, 67
2, 419328, Note_on_c, 0, 77, 67
2, 419456, Note_off_c, 0, 65, 67
2, 419456, Note_on_c, 0, 67, 67
2, 419584, Note_off_c, 0, 67, 67
2, 419584, Note_on_c, 0, 68, 67
2, 419712, Note_off_c, 0, 68, 67
2, 419712, Note_on_c, 0, 70, 67
2, 419840, Note_off_c, 0, 70, 67
2, 419840, Note_off_c, 0, 77, 67
2, 419840, Note_on_c, 0, 68, 67
2, 419840, Note_on_c, 0, 74, 67
2, 419968, Note_off_c, 0, 68, 67
2, 419968, Note_on_c, 0, 67, 67
2, 420096, Note_off_c, 0, 67, 67
2, 420096, Note_on_c, 0, 65, 67
2, 420352, Note_off_c, 0, 65, 67
2, 420352, Note_off_c, 0, 74, 67
2, 420352, Note_on_c, 0, 77, 67
2, 420608, Control_c, 0, 93, 0
2, 420608, Note_on_c, 0, 65, 67
2, 420736, Note_off_c, 0, 65, 67
2, 420736, Note_on_c, 0, 70, 67
2, 420864, Note_off_c, 0, 70, 67
2, 420864, Note_off_c, 0, 77, 67
2, 420864, Note_on_c, 0, 67, 67
2, 420864, Note_on_c, 0, 79, 67
2, 420992, Note_off_c, 0, 67, 67
2, 420992, Note_off_c, 0, 79, 67
2, 420992, Note_on_c, 0, 68, 67
2, 420992, Note_on_c, 0, 80, 67
2, 421120, Note_off_c, 0, 68, 67
2, 421120, Note_off_c, 0, 80, 67
2, 421120, Note_on_c, 0, 70, 67
2, 421120, Note_on_c, 0, 79, 67
2, 421248, Note_off_c, 0, 70, 67
2, 421248, Note_off_c, 0, 79, 67
2, 421248, Note_on_c, 0, 72, 67
2, 421248, Note_on_c, 0, 77, 67
2, 421376, Note_off_c, 0, 72, 67
2, 421376, Note_off_c, 0, 77, 67
2, 421376, Note_on_c, 0, 70, 67
2, 421376, Note_on_c, 0, 75, 67
2, 421888, Note_off_c, 0, 70, 67
2, 421888, Note_off_c, 0, 75, 67
2, 421888, Note_on_c, 0, 75, 67
2, 421888, Note_on_c, 0, 79, 67
2, 422016, Note_off_c, 0, 75, 67
2, 422016, Note_on_c, 0, 74, 67
2, 422144, Note_off_c, 0, 74, 67
2, 422144, Note_on_c, 0, 72, 67
2, 422400, Note_off_c, 0, 72, 67
2, 422400, Note_off_c, 0, 79, 67
2, 422400, Note_on_c, 0, 70, 67
2, 422400, Note_on_c, 0, 82, 67
2, 422528, Note_off_c, 0, 70, 67
2, 422528, Note_on_c, 0, 72, 67
2, 422656, Note_off_c, 0, 72, 67
2, 422656, Note_on_c, 0, 74, 67
2, 422784, Note_off_c, 0, 74, 67
2, 422784, Note_on_c, 0, 75, 67
2, 422912, Note_off_c, 0, 75, 67
2, 422912, Note_off_c, 0, 82, 67
2, 422912, Note_on_c, 0, 77, 67
2, 422912, Note_on_c, 0, 80, 67
2, 423040, Note_off_c, 0, 77, 67
2, 423040, Note_off_c, 0, 80, 67
2, 423040, Note_on_c, 0, 75, 67
2, 423040, Note_on_c, 0, 79, 67
2, 423168, Note_off_c, 0, 75, 67
2, 423168, Note_off_c, 0, 79, 67
2, 423168, Note_on_c, 0, 74, 67
2, 423168, Note_on_c, 0, 80, 67
2, 423296, Note_off_c, 0, 80, 67
2, 423296, Note_on_c, 0, 82, 67
2, 423424, Note_off_c, 0, 74, 67
2, 423424, Note_off_c, 0, 82, 67
2, 423424, Note_on_c, 0, 72, 67
2, 423424, Note_on_c, 0, 84, 67
2, 423552, Note_off_c, 0, 72, 67
2, 423552, Note_on_c, 0, 74, 67
2, 423680, Note_off_c, 0, 74, 67
2, 423680, Note_on_c, 0, 75, 67
2, 423808, Note_off_c, 0, 75, 67
2, 423808, Note_on_c, 0, 77, 67
2, 423936, Note_off_c, 0, 77, 67
2, 423936, Note_off_c, 0, 84, 67
2, 423936, Note_on_c, 0, 74, 67
2, 423936, Note_on_c, 0, 82, 67
2, 424064, Note_off_c, 0, 74, 67
2, 424064, Note_on_c, 0, 72, 67
2, 424192, Note_off_c, 0, 72, 67
2, 424192, Note_off_c, 0, 82, 67
2, 424192, Note_on_c, 0, 70, 67
2, 424192, Note_on_c, 0, 80, 67
2, 424320, Note_off_c, 0, 80, 67
2, 424320, Note_on_c, 0, 79, 67
2, 424448, Note_off_c, 0, 70, 67
2, 424448, Note_off_c, 0, 79, 67
2, 424448, Note_on_c, 0, 68, 67
2, 424448, Note_on_c, 0, 80, 67
2, 424576, Note_off_c, 0, 68, 67
2, 424576, Note_on_c, 0, 70, 67
2, 424704, Note_off_c, 0, 70, 67
2, 424704, Note_on_c, 0, 72, 67
2, 424832, Note_off_c, 0, 72, 67
2, 424832, Note_on_c, 0, 68, 67
2, 424960, Note_off_c, 0, 68, 67
2, 424960, Note_off_c, 0, 80, 67
2, 424960, Note_on_c, 0, 70, 67
2, 424960, Note_on_c, 0, 79, 67
2, 425088, Note_off_c, 0, 70, 67
2, 425088, Note_off_c, 0, 79, 67
2, 425088, Note_on_c, 0, 68, 67
2, 425088, Note_on_c, 0, 80, 67
2, 425216, Note_off_c, 0, 68, 67
2, 425216, Note_off_c, 0, 80, 67
2, 425216, Note_on_c, 0, 67, 67
2, 425216, Note_on_c, 0, 79, 67
2, 425344, Note_off_c, 0, 67, 67
2, 425344, Note_off_c, 0, 79, 67
2, 425344, Note_on_c, 0, 65, 67
2, 425344, Note_on_c, 0, 77, 67
2, 425472, Note_off_c, 0, 65, 67
2, 425472, Note_off_c, 0, 77, 67
2, 425472, Note_on_c, 0, 63, 67
2, 425472, Note_on_c, 0, 75, 67
2, 425600, Note_off_c, 0, 63, 67
2, 425600, Note_on_c, 0, 65, 67
2, 425728, Note_off_c, 0, 65, 67
2, 425728, Note_on_c, 0, 67, 67
2, 425856, Note_off_c, 0, 67, 67
2, 425856, Note_on_c, 0, 68, 67
2, 425984, Note_off_c, 0, 68, 67
2, 425984, Note_off_c, 0, 75, 67
2, 425984, Time_signature, 4, 2, 24, 8
2, 425984, Key_signature, -3, "major"
2, 425984, Note_on_c, 0, 67, 67
2, 425984, Note_on_c, 0, 75, 67
2, 426112, Note_off_c, 0, 67, 67
2, 426112, Note_off_c, 0, 75, 67
2, 426112, Note_on_c, 0, 66, 67
2, 426112, Note_on_c, 0, 70, 67
2, 426240, Note_off_c, 0, 66, 67
2, 426240, Note_off_c, 0, 70, 67
2, 426240, Note_on_c, 0, 67, 67
2, 426240, Note_on_c, 0, 75, 67
2, 426368, Note_off_c, 0, 67, 67
2, 426368, Note_off_c, 0, 75, 67
2, 426368, Note_on_c, 0, 75, 67
2, 426368, Note_on_c, 0, 82, 67
2, 426624, Note_off_c, 0, 75, 67
2, 426624, Note_off_c, 0, 82, 67
2, 426624, Note_on_c, 0, 74, 67
2, 426624, Note_on_c, 0, 80, 67
2, 426752, Note_off_c, 0, 74, 67
2, 426752, Note_on_c, 0, 72, 67
2, 426880, Note_off_c, 0, 72, 67
2, 426880, Note_off_c, 0, 80, 67
2, 426880, Note_on_c, 0, 70, 67
2, 426880, Note_on_c, 0, 79, 67
2, 427008, Note_off_c, 0, 70, 67
2, 427008, Note_off_c, 0, 79, 67
2, 427008, Note_on_c, 0, 72, 67
2, 427008, Note_on_c, 0, 77, 67
2, 427136, Note_off_c, 0, 72, 67
2, 427136, Note_off_c, 0, 77, 67
2, 427136, Note_on_c, 0, 70, 67
2, 427136, Note_on_c, 0, 74, 67
2, 427264, Note_off_c, 0, 70, 67
2, 427264, Note_on_c, 0, 68, 67
2, 427392, Note_off_c, 0, 68, 67
2, 427392, Note_on_c, 0, 67, 67
2, 427520, Note_off_c, 0, 67, 67
2, 427520, Note_off_c, 0, 74, 67
2, 427520, Note_on_c, 0, 65, 67
2, 427520, Note_on_c, 0, 70, 67
2, 427648, Note_off_c, 0, 65, 67
2, 427648, Note_on_c, 0, 67, 67
2, 427776, Note_off_c, 0, 67, 67
2, 427776, Note_off_c, 0, 70, 67
2, 427776, Note_on_c, 0, 65, 67
2, 427776, Note_on_c, 0, 68, 67
2, 427904, Note_off_c, 0, 68, 67
2, 427904, Note_on_c, 0, 70, 67
2, 428032, Note_off_c, 0, 65, 67
2, 428032, Note_off_c, 0, 70, 67
2, 428032, Note_on_c, 0, 70, 67
2, 428032, Note_on_c, 0, 74, 67
2, 428160, Note_off_c, 0, 70, 67
2, 428160, Note_off_c, 0, 74, 67
2, 428160, Note_on_c, 0, 65, 67
2, 428160, Note_on_c, 0, 70, 67
2, 428288, Note_off_c, 0, 65, 67
2, 428288, Note_off_c, 0, 70, 67
2, 428288, Note_on_c, 0, 70, 67
2, 428288, Note_on_c, 0, 74, 67
2, 428416, Note_off_c, 0, 70, 67
2, 428416, Note_off_c, 0, 74, 67
2, 428416, Note_on_c, 0, 74, 67
2, 428416, Note_on_c, 0, 79, 67
2, 428672, Note_off_c, 0, 74, 67
2, 428672, Note_off_c, 0, 79, 67
2, 428672, Note_on_c, 0, 72, 67
2, 428672, Note_on_c, 0, 77, 67
2, 428800, Note_off_c, 0, 72, 67
2, 428800, Note_on_c, 0, 70, 67
2, 428928, Note_off_c, 0, 70, 67
2, 428928, Note_off_c, 0, 77, 67
2, 428928, Note_on_c, 0, 68, 67
2, 428928, Note_on_c, 0, 74, 67
2, 429056, Note_off_c, 0, 68, 67
2, 429056, Note_off_c, 0, 74, 67
2, 429056, Note_on_c, 0, 67, 67
2, 429056, Note_on_c, 0, 75, 67
2, 429184, Note_off_c, 0, 67, 67
2, 429184, Note_off_c, 0, 75, 67
2, 429184, Note_on_c, 0, 70, 67
2, 429184, Note_on_c, 0, 79, 67
2, 429312, Note_off_c, 0, 70, 67
2, 429312, Note_on_c, 0, 72, 67
2, 429440, Note_off_c, 0, 72, 67
2, 429440, Note_on_c, 0, 74, 67
2, 429568, Note_off_c, 0, 74, 67
2, 429568, Note_off_c, 0, 79, 67
2, 429568, Note_on_c, 0, 70, 67
2, 429568, Note_on_c, 0, 75, 67
2, 429696, Note_off_c, 0, 75, 67
2, 429696, Note_on_c, 0, 74, 67
2, 429824, Note_off_c, 0, 70, 67
2, 429824, Note_off_c, 0, 74, 67
2, 429824, Note_on_c, 0, 65, 67
2, 429824, Note_on_c, 0, 72, 67
2, 429952, Note_off_c, 0, 72, 67
2, 429952, Note_on_c, 0, 70, 67
2, 430080, Note_off_c, 0, 65, 67
2, 430080, Note_off_c, 0, 70, 67
2, 430080, Note_on_c, 0, 67, 67
2, 430080, Note_on_c, 0, 75, 67
2, 430208, Note_off_c, 0, 67, 67
2, 430208, Note_off_c, 0, 75, 67
2, 430208, Note_on_c, 0, 66, 67
2, 430208, Note_on_c, 0, 70, 67
2, 430336, Note_off_c, 0, 66, 67
2, 430336, Note_off_c, 0, 70, 67
2, 430336, Note_on_c, 0, 67, 67
2, 430336, Note_on_c, 0, 75, 67
2, 430464, Note_off_c, 0, 67, 67
2, 430464, Note_off_c, 0, 75, 67
2, 430464, Note_on_c, 0, 75, 67
2, 430464, Note_on_c, 0, 82, 67
2, 430720, Note_off_c, 0, 75, 67
2, 430720, Note_off_c, 0, 82, 67
2, 430720, Note_on_c, 0, 74, 67
2, 430720, Note_on_c, 0, 80, 67
2, 430848, Note_off_c, 0, 74, 67
2, 430848, Note_on_c, 0, 72, 67
2, 430976, Note_off_c, 0, 72, 67
2, 430976, Note_off_c, 0, 80, 67
2, 430976, Note_on_c, 0, 70, 67
2, 430976, Note_on_c, 0, 79, 67
2, 431104, Note_off_c, 0, 70, 67
2, 431104, Note_off_c, 0, 79, 67
2, 431104, Note_on_c, 0, 72, 67
2, 431104, Note_on_c, 0, 77, 67
2, 431232, Note_off_c, 0, 72, 67
2, 431232, Note_off_c, 0, 77, 67
2, 431232, Note_on_c, 0, 70, 67
2, 431232, Note_on_c, 0, 74, 67
2, 431360, Note_off_c, 0, 70, 67
2, 431360, Note_on_c, 0, 68, 67
2, 431488, Note_off_c, 0, 68, 67
2, 431488, Note_on_c, 0, 67, 67
2, 431616, Note_off_c, 0, 67, 67
2, 431616, Note_off_c, 0, 74, 67
2, 431616, Note_on_c, 0, 65, 67
2, 431616, Note_on_c, 0, 70, 67
2, 431744, Note_off_c, 0, 65, 67
2, 431744, Note_on_c, 0, 67, 67
2, 431872, Note_off_c, 0, 67, 67
2, 431872, Note_off_c, 0, 70, 67
2, 431872, Note_on_c, 0, 65, 67
2, 431872, Note_on_c, 0, 68, 67
2, 432000, Note_off_c, 0, 68, 67
2, 432000, Note_on_c, 0, 70, 67
2, 432128, Note_off_c, 0, 65, 67
2, 432128, Note_off_c, 0, 70, 67
2, 432128, Note_on_c, 0, 70, 67
2, 432128, Note_on_c, 0, 74, 67
2, 432256, Note_off_c, 0, 70, 67
2, 432256, Note_off_c, 0, 74, 67
2, 432256, Note_on_c, 0, 65, 67
2, 432256, Note_on_c, 0, 70, 67
2, 432384, Note_off_c, 0, 65, 67
2, 432384, Note_off_c, 0, 70, 67
2, 432384, Note_on_c, 0, 70, 67
2, 432384, Note_on_c, 0, 74, 67
2, 432512, Note_off_c, 0, 70, 67
2, 432512, Note_off_c, 0, 74, 67
2, 432512, Note_on_c, 0, 74, 67
2, 432512, Note_on_c, 0, 79, 67
2, 432768, Note_off_c, 0, 74, 67
2, 432768, Note_off_c, 0, 79, 67
2, 432768, Note_on_c, 0, 72, 67
2, 432768, Note_on_c, 0, 77, 67
2, 432896, Note_off_c, 0, 72, 67
2, 432896, Note_on_c, 0, 70, 67
2, 433024, Note_off_c, 0, 70, 67
2, 433024, Note_off_c, 0, 77, 67
2, 433024, Note_on_c, 0, 68, 67
2, 433024, Note_on_c, 0, 74, 67
2, 433152, Note_off_c, 0, 68, 67
2, 433152, Note_off_c, 0, 74, 67
2, 433152, Note_on_c, 0, 67, 67
2, 433152, Note_on_c, 0, 75, 67
2, 433280, Note_off_c, 0, 67, 67
2, 433280, Note_on_c, 0, 65, 67
2, 433408, Note_off_c, 0, 65, 67
2, 433408, Note_on_c, 0, 63, 67
2, 433536, Note_off_c, 0, 63, 67
2, 433536, Note_on_c, 0, 65, 67
2, 433664, Note_off_c, 0, 65, 67
2, 433664, Note_off_c, 0, 75, 67
2, 433664, Note_on_c, 0, 63, 67
2, 433664, Note_on_c, 0, 67, 67
2, 433792, Note_off_c, 0, 67, 67
2, 433792, Note_on_c, 0, 68, 67
2, 433920, Note_off_c, 0, 63, 67
2, 433920, Note_off_c, 0, 68, 67
2, 433920, Note_on_c, 0, 65, 67
2, 433920, Note_on_c, 0, 70, 67
2, 434048, Note_off_c, 0, 70, 67
2, 434048, Note_on_c, 0, 72, 67
2, 434176, Note_off_c, 0, 65, 67
2, 434176, Note_off_c, 0, 72, 67
2, 434176, Note_on_c, 0, 79, 67
2, 434688, Note_off_c, 0, 79, 67
2, 434688, Note_on_c, 0, 82, 67
2, 434944, Control_c, 0, 93, 0
2, 434944, Note_on_c, 0, 68, 67
2, 435072, Note_off_c, 0, 68, 67
2, 435072, Note_on_c, 0, 70, 67
2, 435200, Note_off_c, 0, 70, 67
2, 435200, Note_off_c, 0, 82, 67
2, 435200, Note_on_c, 0, 72, 67
2, 435200, Note_on_c, 0, 80, 67
2, 435328, Note_off_c, 0, 72, 67
2, 435328, Note_off_c, 0, 80, 67
2, 435328, Note_on_c, 0, 70, 67
2, 435328, Note_on_c, 0, 82, 67
2, 435456, Note_off_c, 0, 70, 67
2, 435456, Note_off_c, 0, 82, 67
2, 435456, Note_on_c, 0, 68, 67
2, 435456, Note_on_c, 0, 80, 67
2, 435584, Note_off_c, 0, 80, 67
2, 435584, Note_on_c, 0, 79, 67
2, 435712, Note_off_c, 0, 68, 67
2, 435712, Note_off_c, 0, 79, 67
2, 435712, Note_on_c, 0, 65, 67
2, 435712, Note_on_c, 0, 77, 67
2, 435840, Note_off_c, 0, 65, 67
2, 435840, Note_on_c, 0, 67, 67
2, 435968, Note_off_c, 0, 67, 67
2, 435968, Note_on_c, 0, 68, 67
2, 436096, Note_off_c, 0, 68, 67
2, 436096, Note_on_c, 0, 70, 67
2, 436224, Note_off_c, 0, 70, 67
2, 436224, Note_off_c, 0, 77, 67
2, 436224, Note_on_c, 0, 68, 67
2, 436224, Note_on_c, 0, 74, 67
2, 436352, Note_off_c, 0, 68, 67
2, 436352, Note_on_c, 0, 67, 67
2, 436480, Note_off_c, 0, 67, 67
2, 436480, Note_on_c, 0, 65, 67
2, 436736, Note_off_c, 0, 65, 67
2, 436736, Note_off_c, 0, 74, 67
2, 436736, Note_on_c, 0, 77, 67
2, 436992, Control_c, 0, 93, 0
2, 436992, Note_on_c, 0, 65, 67
2, 437120, Note_off_c, 0, 65, 67
2, 437120, Note_on_c, 0, 70, 67
2, 437248, Note_off_c, 0, 70, 67
2, 437248, Note_off_c, 0, 77, 67
2, 437248, Note_on_c, 0, 67, 67
2, 437248, Note_on_c, 0, 79, 67
2, 437376, Note_off_c, 0, 67, 67
2, 437376, Note_off_c, 0, 79, 67
2, 437376, Note_on_c, 0, 68, 67
2, 437376, Note_on_c, 0, 80, 67
2, 437504, Note_off_c, 0, 68, 67
2, 437504, Note_off_c, 0, 80, 67
2, 437504, Note_on_c, 0, 70, 67
2, 437504, Note_on_c, 0, 79, 67
2, 437632, Note_off_c, 0, 70, 67
2, 437632, Note_off_c, 0, 79, 67
2, 437632, Note_on_c, 0, 72, 67
2, 437632, Note_on_c, 0, 77, 67
2, 437760, Note_off_c, 0, 72, 67
2, 437760, Note_off_c, 0, 77, 67
2, 437760, Note_on_c, 0, 70, 67
2, 437760, Note_on_c, 0, 75, 67
2, 438272, Note_off_c, 0, 70, 67
2, 438272, Note_off_c, 0, 75, 67
2, 438272, Note_on_c, 0, 75, 67
2, 438272, Note_on_c, 0, 79, 67
2, 438400, Note_off_c, 0, 75, 67
2, 438400, Note_on_c, 0, 74, 67
2, 438528, Note_off_c, 0, 74, 67
2, 438528, Note_on_c, 0, 72, 67
2, 438784, Note_off_c, 0, 72, 67
2, 438784, Note_off_c, 0, 79, 67
2, 438784, Note_on_c, 0, 70, 67
2, 438784, Note_on_c, 0, 82, 67
2, 438912, Note_off_c, 0, 70, 67
2, 438912, Note_on_c, 0, 72, 67
2, 439040, Note_off_c, 0, 72, 67
2, 439040, Note_on_c, 0, 74, 67
2, 439168, Note_off_c, 0, 74, 67
2, 439168, Note_on_c, 0, 75, 67
2, 439296, Note_off_c, 0, 75, 67
2, 439296, Note_off_c, 0, 82, 67
2, 439296, Note_on_c, 0, 77, 67
2, 439296, Note_on_c, 0, 80, 67
2, 439424, Note_off_c, 0, 77, 67
2, 439424, Note_off_c, 0, 80, 67
2, 439424, Note_on_c, 0, 75, 67
2, 439424, Note_on_c, 0, 79, 67
2, 439552, Note_off_c, 0, 75, 67
2, 439552, Note_off_c, 0, 79, 67
2, 439552, Note_on_c, 0, 74, 67
2, 439552, Note_on_c, 0, 80, 67
2, 439680, Note_off_c, 0, 80, 67
2, 439680, Note_on_c, 0, 82, 67
2, 439808, Note_off_c, 0, 74, 67
2, 439808, Note_off_c, 0, 82, 67
2, 439808, Note_on_c, 0, 72, 67
2, 439808, Note_on_c, 0, 84, 67
2, 439936, Note_off_c, 0, 72, 67
2, 439936, Note_on_c, 0, 74, 67
2, 440064, Note_off_c, 0, 74, 67
2, 440064, Note_on_c, 0, 75, 67
2, 440192, Note_off_c, 0, 75, 67
2, 440192, Note_on_c, 0, 77, 67
2, 440320, Note_off_c, 0, 77, 67
2, 440320, Note_off_c, 0, 84, 67
2, 440320, Note_on_c, 0, 74, 67
2, 440320, Note_on_c, 0, 82, 67
2, 440448, Note_off_c, 0, 74, 67
2, 440448, Note_on_c, 0, 72, 67
2, 440576, Note_off_c, 0, 72, 67
2, 440576, Note_off_c, 0, 82, 67
2, 440576, Note_on_c, 0, 70, 67
2, 440576, Note_on_c, 0, 80, 67
2, 440704, Note_off_c, 0, 80, 67
2, 440704, Note_on_c, 0, 79, 67
2, 440832, Note_off_c, 0, 70, 67
2, 440832, Note_off_c, 0, 79, 67
2, 440832, Note_on_c, 0, 68, 67
2, 440832, Note_on_c, 0, 80, 67
2, 440960, Note_off_c, 0, 68, 67
2, 440960, Note_on_c, 0, 70, 67
2, 441088, Note_off_c, 0, 70, 67
2, 441088, Note_on_c, 0, 72, 67
2, 441216, Note_off_c, 0, 72, 67
2, 441216, Note_on_c, 0, 68, 67
2, 441344, Note_off_c, 0, 68, 67
2, 441344, Note_off_c, 0, 80, 67
2, 441344, Note_on_c, 0, 70, 67
2, 441344, Note_on_c, 0, 79, 67
2, 441472, Note_off_c, 0, 70, 67
2, 441472, Note_off_c, 0, 79, 67
2, 441472, Note_on_c, 0, 68, 67
2, 441472, Note_on_c, 0, 80, 67
2, 441600, Note_off_c, 0, 68, 67
2, 441600, Note_off_c, 0, 80, 67
2, 441600, Note_on_c, 0, 67, 67
2, 441600, Note_on_c, 0, 79, 67
2, 441728, Note_off_c, 0, 67, 67
2, 441728, Note_off_c, 0, 79, 67
2, 441728, Note_on_c, 0, 65, 67
2, 441728, Note_on_c, 0, 77, 67
2, 441856, Note_off_c, 0, 65, 67
2, 441856, Note_off_c, 0, 77, 67
2, 441856, Note_on_c, 0, 63, 67
2, 441856, Note_on_c, 0, 75, 67
2, 441984, Note_off_c, 0, 63, 67
2, 441984, Note_on_c, 0, 65, 67
2, 442112, Note_off_c, 0, 65, 67
2, 442112, Note_on_c, 0, 67, 67
2, 442240, Note_off_c, 0, 67, 67
2, 442240, Note_on_c, 0, 68, 67
2, 442368, Note_off_c, 0, 68, 67
2, 442368, Note_off_c, 0, 75, 67
2, 442368, Time_signature, 4, 2, 24, 8
2, 442368, Key_signature, -3, "major"
2, 442368, Note_on_c, 0, 67, 67
2, 442368, Note_on_c, 0, 75, 67
2, 442496, Note_off_c, 0, 67, 67
2, 442496, Note_off_c, 0, 75, 67
2, 442496, Note_on_c, 0, 66, 67
2, 442496, Note_on_c, 0, 70, 67
2, 442624, Note_off_c, 0, 66, 67
2, 442624, Note_off_c, 0, 70, 67
2, 442624, Note_on_c, 0, 67, 67
2, 442624, Note_on_c, 0, 75, 67
2, 442752, Note_off_c, 0, 67, 67
2, 442752, Note_off_c, 0, 75, 67
2, 442752, Note_on_c, 0, 75, 67
2, 442752, Note_on_c, 0, 82, 67
2, 443008, Note_off_c, 0, 75, 67
2, 443008, Note_off_c, 0, 82, 67
2, 443008, Note_on_c, 0, 74, 67
2, 443008, Note_on_c, 0, 80, 67
2, 443136, Note_off_c, 0, 74, 67
2, 443136, Note_on_c, 0, 72, 67
2, 443264, Note_off_c, 0, 72, 67
2, 443264, Note_off_c, 0, 80, 67
2, 443264, Note_on_c, 0, 70, 67
2, 443264, Note_on_c, 0, 79, 67
2, 443392, Note_off_c, 0, 70, 67
2, 443392, Note_off_c, 0, 79, 67
2, 443392, Note_on_c, 0, 72, 67
2, 443392, Note_on_c, 0, 77, 67
2, 443520, Note_off_c, 0, 72, 67
2, 443520, Note_off_c, 0, 77, 67
2, 443520, Note_on_c, 0, 70, 67
2, 443520, Note_on_c, 0, 74, 67
2, 443648, Note_off_c, 0, 70, 67
2, 443648, Note_on_c, 0, 68, 67
2, 443776, Note_off_c, 0, 68, 67
2, 443776, Note_on_c, 0, 67, 67
2, 443904, Note_off_c, 0, 67, 67
2, 443904, Note_off_c, 0, 74, 67
2, 443904, Note_on_c, 0, 65, 67
2, 443904, Note_on_c, 0, 70, 67
2, 444032, Note_off_c, 0, 65, 67
2, 444032, Note_on_c, 0, 67, 67
2, 444160, Note_off_c, 0, 67, 67
2, 444160, Note_off_c, 0, 70, 67
2, 444160, Note_on_c, 0, 65, 67
2, 444160, Note_on_c, 0, 68, 67
2, 444288, Note_off_c, 0, 68, 67
2, 444288, Note_on_c, 0, 70, 67
2, 444416, Note_off_c, 0, 65, 67
2, 444416, Note_off_c, 0, 70, 67
2, 444416, Note_on_c, 0, 70, 67
2, 444416, Note_on_c, 0, 74, 67
2, 444544, Note_off_c, 0, 70, 67
2, 444544, Note_off_c, 0, 74, 67
2, 444544, Note_on_c, 0, 65, 67
2, 444544, Note_on_c, 0, 70, 67
2, 444672, Note_off_c, 0, 65, 67
2, 444672, Note_off_c, 0, 70, 67
2, 444672, Note_on_c, 0, 70, 67
2, 444672, Note_on_c, 0, 74, 67
2, 444800, Note_off_c, 0, 70, 67
2, 444800, Note_off_c, 0, 74, 67
2, 444800, Note_on_c, 0, 74, 67
2, 444800, Note_on_c, 0, 79, 67
2, 445056, Note_off_c, 0, 74, 67
2, 445056, Note_off_c, 0, 79, 67
2, 445056, Note_on_c, 0, 72, 67
2, 445056, Note_on_c, 0, 77, 67
2, 445184, Note_off_c, 0, 72, 67
2, 445184, Note_on_c, 0, 70, 67
2, 445312, Note_off_c, 0, 70, 67
2, 445312, Note_off_c, 0, 77, 67
2, 445312, Note_on_c, 0, 68, 67
2, 445312, Note_on_c, 0, 74, 67
2, 445440, Note_off_c, 0, 68, 67
2, 445440, Note_off_c, 0, 74, 67
2, 445440, Note_on_c, 0, 67, 67
2, 445440, Note_on_c, 0, 75, 67
2, 445568, Note_off_c, 0, 67, 67
2, 445568, Note_off_c, 0, 75, 67
2, 445568, Note_on_c, 0, 70, 67
2, 445568, Note_on_c, 0, 79, 67
2, 445696, Note_off_c, 0, 70, 67
2, 445696, Note_on_c, 0, 72, 67
2, 445824, Note_off_c, 0, 72, 67
2, 445824, Note_on_c, 0, 74, 67
2, 445952, Note_off_c, 0, 74, 67
2, 445952, Note_off_c, 0, 79, 67
2, 445952, Note_on_c, 0, 70, 67
2, 445952, Note_on_c, 0, 75, 67
2, 446080, Note_off_c, 0, 75, 67
2, 446080, Note_on_c, 0, 74, 67
2, 446208, Note_off_c, 0, 70, 67
2, 446208, Note_off_c, 0, 74, 67
2, 446208, Note_on_c, 0, 65, 67
2, 446208, Note_on_c, 0, 72, 67
2, 446336, Note_off_c, 0, 72, 67
2, 446336, Note_on_c, 0, 70, 67
2, 446464, Note_off_c, 0, 65, 67
2, 446464, Note_off_c, 0, 70, 67
2, 446464, Note_on_c, 0, 67, 67
2, 446464, Note_on_c, 0, 75, 67
2, 446592, Note_off_c, 0, 67, 67
2, 446592, Note_off_c, 0, 75, 67
2, 446592, Note_on_c, 0, 66, 67
2, 446592, Note_on_c, 0, 70, 67
2, 446720, Note_off_c, 0, 66, 67
2, 446720, Note_off_c, 0, 70, 67
2, 446720, Note_on_c, 0, 67, 67
2, 446720, Note_on_c, 0, 75, 67
2, 446848, Note_off_c, 0, 67, 67
2, 446848, Note_off_c, 0, 75, 67
2, 446848, Note_on_c, 0, 75, 67
2, 446848, Note_on_c, 0, 82, 67
2, 447104, Note_off_c, 0, 75, 67
2, 447104, Note_off_c, 0, 82, 67
2, 447104, Note_on_c, 0, 74, 67
2, 447104, Note_on_c, 0, 80, 67
2, 447232, Note_off_c, 0, 74, 67
2, 447232, Note_on_c, 0, 72, 67
2, 447360, Note_off_c, 0, 72, 67
2, 447360, Note_off_c, 0, 80, 67
2, 447360, Note_on_c, 0, 70, 67
2, 447360, Note_on_c, 0, 79, 67
2, 447488, Note_off_c, 0, 70, 67
2, 447488, Note_off_c, 0, 79, 67
2, 447488, Note_on_c, 0, 72, 67
2, 447488, Note_on_c, 0, 77, 67
2, 447616, Note_off_c, 0, 72, 67
2, 447616, Note_off_c, 0, 77, 67
2, 447616, Note_on_c, 0, 70, 67
2, 447616, Note_on_c, 0, 74, 67
2, 447744, Note_off_c, 0, 70, 67
2, 447744, Note_on_c, 0, 68, 67
2, 447872, Note_off_c, 0, 68, 67
2, 447872, Note_on_c, 0, 67, 67
2, 448000, Note_off_c, 0, 67, 67
2, 448000, Note_off_c, 0, 74, 67
2, 448000, Note_on_c, 0, 65, 67
2, 448000, Note_on_c, 0, 70, 67
2, 448128, Note_off_c, 0, 65, 67
2, 448128, Note_on_c, 0, 67, 67
2, 448256, Note_off_c, 0, 67, 67
2, 448256, Note_off_c, 0, 70, 67
2, 448256, Note_on_c, 0, 65, 67
2, 448256, Note_on_c, 0, 68, 67
2, 448384, Note_off_c, 0, 68, 67
2, 448384, Note_on_c, 0, 70, 67
2, 448512, Note_off_c, 0, 65, 67
2, 448512, Note_off_c, 0, 70, 67
2, 448512, Note_on_c, 0, 70, 67
2, 448512, Note_on_c, 0, 74, 67
2, 448640, Note_off_c, 0, 70, 67
2, 448640, Note_off_c, 0, 74, 67
2, 448640, Note_on_c, 0, 65, 67
2, 448640, Note_on_c, 0, 70, 67
2, 448768, Note_off_c, 0, 65, 67
2, 448768, Note_off_c, 0, 70, 67
2, 448768, Note_on_c, 0, 70, 67
2, 448768, Note_on_c, 0, 74, 67
2, 448896, Note_off_c, 0, 70, 67
2, 448896, Note_off_c, 0, 74, 67
2, 448896, Note_on_c, 0, 74, 67
2, 448896, Note_on_c, 0, 79, 67
2, 449152, Note_off_c, 0, 74, 67
2, 449152, Note_off_c, 0, 79, 67
2, 449152, Note_on_c, 0, 72, 67
2, 449152, Note_on_c, 0, 77, 67
2, 449280, Note_off_c, 0, 72, 67
2, 449280, Note_on_c, 0, 70, 67
2, 449408, Note_off_c, 0, 70, 67
2, 449408, Note_off_c, 0, 77, 67
2, 449408, Note_on_c, 0, 68, 67
2, 449408, Note_on_c, 0, 74, 67
2, 449536, Note_off_c, 0, 68, 67
2, 449536, Note_off_c, 0, 74, 67
2, 449536, Note_on_c, 0, 67, 67
2, 449536, Note_on_c, 0, 75, 67
2, 449664, Note_off_c, 0, 67, 67
2, 449664, Note_on_c, 0, 65, 67
2, 449792, Note_off_c, 0, 65, 67
2, 449792, Note_on_c, 0, 63, 67
2, 449920, Note_off_c, 0, 63, 67
2, 449920, Note_on_c, 0, 65, 67
2, 450048, Note_off_c, 0, 65, 67
2, 450048, Note_off_c, 0, 75, 67
2, 450048, Note_on_c, 0, 63, 67
2, 450048, Note_on_c, 0, 67, 67
2, 450176, Note_off_c, 0, 67, 67
2, 450176, Note_on_c, 0, 68, 67
2, 450304, Note_off_c, 0, 63, 67
2, 450304, Note_off_c, 0, 68, 67
2, 450304, Note_on_c, 0, 65, 67
2, 450304, Note_on_c, 0, 70, 67
2, 450432, Note_off_c, 0, 70, 67
2, 450432, Note_on_c, 0, 72, 67
2, 450560, Note_off_c, 0, 65, 67
2, 450560, Note_off_c, 0, 72, 67
2, 450560, Note_on_c, 0, 79, 67
2, 451072, Note_off_c, 0, 79, 67
2, 451072, Note_on_c, 0, 82, 67
2, 451328, Control_c, 0, 93, 0
2, 451328, Note_on_c, 0, 68, 67
2, 451456, Note_off_c, 0, 68, 67
2, 451456, Note_on_c, 0, 70, 67
2, 451584, Note_off_c, 0, 70, 67
2, 451584, Note_off_c, 0, 82, 67
2, 451584, Note_on_c, 0, 72, 67
2, 451584, Note_on_c, 0, 80, 67
2, 451712, Note_off_c, 0, 72, 67
2, 451712, Note_off_c, 0, 80, 67
2, 451712, Note_on_c, 0, 70, 67
2, 451712, Note_on_c, 0, 82, 67
2, 451840, Note_off_c, 0, 70, 67
2, 451840, Note_off_c, 0, 82, 67
2, 451840, Note_on_c, 0, 68, 67
2, 451840, Note_on_c, 0, 80, 67
2, 451968, Note_off_c, 0, 80, 67
2, 451968, Note_on_c, 0, 79, 67
2, 452096, Note_off_c, 0, 68, 67
2, 452096, Note_off_c, 0, 79, 67
2, 452096, Note_on_c, 0, 65, 67
2, 452096, Note_on_c, 0, 77, 67
2, 452224, Note_off_c, 0, 65, 67
2, 452224, Note_on_c, 0, 67, 67
2, 452352, Note_off_c, 0, 67, 67
2, 452352, Note_on_c, 0, 68, 67
2, 452480, Note_off_c, 0, 68, 67
2, 452480, Note_on_c, 0, 70, 67
2, 452608, Note_off_c, 0, 70, 67
2, 452608, Note_off_c, 0, 77, 67
2, 452608, Note_on_c, 0, 68, 67
2, 452608, Note_on_c, 0, 74, 67
2, 452736, Note_off_c, 0, 68, 67
2, 452736, Note_on_c, 0, 67, 67
2, 452864, Note_off_c, 0, 67, 67
2, 452864, Note_on_c, 0, 65, 67
2, 453120, Note_off_c, 0, 65, 67
2, 453120, Note_off_c, 0, 74, 67
2, 453120, Note_on_c, 0, 77, 67
2, 453376, Control_c, 0, 93, 0
2, 453376, Note_on_c, 0, 65, 67
2, 453504, Note_off_c, 0, 65, 67
2, 453504, Note_on_c, 0, 70, 67
2, 453632, Note_off_c, 0, 70, 67
2, 453632, Note_off_c, 0, 77, 67
2, 453632, Note_on_c, 0, 67, 67
2, 453632, Note_on_c, 0, 79, 67
2, 453760, Note_off_c, 0, 67, 67
2, 453760, Note_off_c, 0, 79, 67
2, 453760, Note_on_c, 0, 68, 67
2, 453760, Note_on_c, 0, 80, 67
2, 453888, Note_off_c, 0, 68, 67
2, 453888, Note_off_c, 0, 80, 67
2, 453888, Note_on_c, 0, 70, 67
2, 453888, Note_on_c, 0, 79, 67
2, 454016, Note_off_c, 0, 70, 67
2, 454016, Note_off_c, 0, 79, 67
2, 454016, Note_on_c, 0, 72, 67
2, 454016, Note_on_c, 0, 77, 67
2, 454144, Note_off_c, 0, 72, 67
2, 454144, Note_off_c, 0, 77, 67
2, 454144, Note_on_c, 0, 70, 67
2, 454144, Note_on_c, 0, 75, 67
2, 454656, Note_off_c, 0, 70, 67
2, 454656, Note_off_c, 0, 75, 67
2, 454656, Note_on_c, 0, 75, 67
2, 454656, Note_on_c, 0, 79, 67
2, 454784, Note_off_c, 0, 75, 67
2, 454784, Note_on_c, 0, 74, 67
2, 454912, Note_off_c, 0, 74, 67
2, 454912, Note_on_c, 0, 72, 67
2, 455168, Note_off_c, 0, 72, 67
2, 455168, Note_off_c, 0, 79, 67
2, 455168, Note_on_c, 0, 70, 67
2, 455168, Note_on_c, 0, 82, 67
2, 455296, Note_off_c, 0, 70, 67
2, 455296, Note_on_c, 0, 72, 67
2, 455424, Note_off_c, 0, 72, 67
2, 455424, Note_on_c, 0, 74, 67
2, 455552, Note_off_c, 0, 74, 67
2, 455552, Note_on_c, 0, 75, 67
2, 455680, Note_off_c, 0, 75, 67
2, 455680, Note_off_c, 0, 82, 67
2, 455680, Note_on_c, 0, 77, 67
2, 455680, Note_on_c, 0, 80, 67
2, 455808, Note_off_c, 0, 77, 67
2, 455808, Note_off_c, 0, 80, 67
2, 455808, Note_on_c, 0, 75, 67
2, 455808, Note_on_c, 0, 79, 67
2, 455936, Note_off_c, 0, 75, 67
2, 455936, Note_off_c, 0, 79, 67
2, 455936, Note_on_c, 0, 74, 67
2, 455936, Note_on_c, 0, 80, 67
2, 456064, Note_off_c, 0, 80, 67
2, 456064, Note_on_c, 0, 82, 67
2, 456192, Note_off_c, 0, 74, 67
2, 456192, Note_off_c, 0, 82, 67
2, 456192, Note_on_c, 0, 72, 67
2, 456192, Note_on_c, 0, 84, 67
2, 456320, Note_off_c, 0, 72, 67
2, 456320, Note_on_c, 0, 74, 67
2, 456448, Note_off_c, 0, 74, 67
2, 456448, Note_on_c, 0, 75, 67
2, 456576, Note_off_c, 0, 75, 67
2, 456576, Note_on_c, 0, 77, 67
2, 456704, Note_off_c, 0, 77, 67
2, 456704, Note_off_c, 0, 84, 67
2, 456704, Note_on_c, 0, 74, 67
2, 456704, Note_on_c, 0, 82, 67
2, 456832, Note_off_c, 0, 74, 67
2, 456832, Note_on_c, 0, 72, 67
2, 456960, Note_off_c, 0, 72, 67
2, 456960, Note_off_c, 0, 82, 67
2, 456960, Note_on_c, 0, 70, 67
2, 456960, Note_on_c, 0, 80, 67
2, 457088, Note_off_c, 0, 80, 67
2, 457088, Note_on_c, 0, 79, 67
2, 457216, Note_off_c, 0, 70, 67
2, 457216, Note_off_c, 0, 79, 67
2, 457216, Note_on_c, 0, 68, 67
2, 457216, Note_on_c, 0, 80, 67
2, 457344, Note_off_c, 0, 68, 67
2, 457344, Note_on_c, 0, 70, 67
2, 457472, Note_off_c, 0, 70, 67
2, 457472, Note_on_c, 0, 72, 67
2, 457600, Note_off_c, 0, 72, 67
2, 457600, Note_on_c, 0, 68, 67
2, 457728, Note_off_c, 0, 68, 67
2, 457728, Note_off_c, 0, 80, 67
2, 457728, Note_on_c, 0, 70, 67
2, 457728, Note_on_c, 0, 79, 67
2, 457856, Note_off_c, 0, 70, 67
2, 457856, Note_off_c, 0, 79, 67
2, 457856, Note_on_c, 0, 68, 67
2, 457856, Note_on_c, 0, 80, 67
2, 457984, Note_off_c, 0, 68, 67
2, 457984, Note_off_c, 0, 80, 67
2, 457984, Note_on_c, 0, 67, 67
2, 457984, Note_on_c, 0, 79, 67
2, 458112, Note_off_c, 0, 67, 67
2, 458112, Note_off_c, 0, 79, 67
2, 458112, Note_on_c, 0, 65, 67
2, 458112, Note_on_c, 0, 77, 67
2, 458240, Note_off_c, 0, 65, 67
2, 458240, Note_off_c, 0, 77, 67
2, 458240, Note_on_c, 0, 63, 67
2, 458240, Note_on_c, 0, 75, 67
2, 458368, Note_off_c, 0, 63, 67
2, 458368, Note_on_c, 0, 65, 67
2, 458496, Note_off_c, 0, 65, 67
2, 458496, Note_on_c, 0, 67, 67
2, 458624, Note_off_c, 0, 67, 67
2, 458624, Note_on_c, 0, 68, 67
2, 458752, Note_off_c, 0, 68, 67
2, 458752, Note_off_c, 0, 75, 67
2, 458752, Time_signature, 4, 2, 24, 8
2, 458752, Key_signature, -3, "major"
2, 458752, Note_on_c, 0, 67, 67
2, 458752, Note_on_c, 0, 75, 67
2, 458880, Note_off_c, 0, 67, 67
2, 458880, Note_off_c, 0, 75, 67
2, 458880, Note_on_c, 0, 66, 67
2, 458880, Note_on_c, 0, 70, 67
2, 459008, Note_off_c, 0, 66, 67
2, 459008, Note_off_c, 0, 70, 67
2, 459008, Note_on_c, 0, 67, 67
2, 459008, Note_on_c, 0, 75, 67
2, 459136, Note_off_c, 0, 67, 67
2, 459136, Note_off_c, 0, 75, 67
2, 459136, Note_on_c, 0, 75, 67
2, 459136, Note_on_c, 0, 82, 67
2, 459392, Note_off_c, 0, 75, 67
2, 459392, Note_off_c, 0, 82, 67
2, 459392, Note_on_c, 0, 74, 67
2, 459392, Note_on_c, 0, 80, 67
2, 459520, Note_off_c, 0, 74, 67
2, 459520, Note_on_c, 0, 72, 67
2, 459648, Note_off_c, 0, 72, 67
2, 459648, Note_off_c, 0, 80, 67
2, 459648, Note_on_c, 0, 70, 67
2, 459648, Note_on_c, 0, 79, 67
2, 459776, Note_off_c, 0, 70, 67
2, 459776, Note_off_c, 0, 79, 67
2, 459776, Note_on_c, 0, 72, 67
2, 459776, Note_on_c, 0, 77, 67
2, 459904, Note_off_c, 0, 72, 67
2, 459904, Note_off_c, 0, 77, 67
2, 459904, Note_on_c, 0, 70, 67
2, 459904, Note_on_c, 0, 74, 67
2, 460032, Note_off_c, 0, 70, 67
2, 460032, Note_on_c, 0, 68, 67
2, 460160, Note_off_c, 0, 68, 67
2, 460160, Note_on_c, 0, 67, 67
2, 460288, Note_off_c, 0, 67, 67
2, 460288, Note_off_c, 0, 74, 67
2, 460288, Note_on_c, 0, 65, 67
2, 460288, Note_on_c, 0, 70, 67
2, 460416, Note_off_c, 0, 65, 67
2, 460416, Note_on_c, 0, 67, 67
2, 460544, Note_off_c, 0, 67, 67
2, 460544, Note_off_c, 0, 70, 67
2, 460544, Note_on_c, 0, 65, 67
2, 460544, Note_on_c, 0, 68, 67
2, 460672, Note_off_c, 0, 68, 67
2, 460672, Note_on_c, 0, 70, 67
2, 460800, Note_off_c, 0, 65, 67
2, 460800, Note_off_c, 0, 70, 67
2, 460800, Note_on_c, 0, 70, 67
2, 460800, Note_on_c, 0, 74, 67
2, 460928, Note_off_c, 0, 70, 67
2, 460928, Note_off_c, 0, 74, 67
2, 460928, Note_on_c, 0, 65, 67
2, 460928, Note_on_c, 0, 70, 67
2, 461056, Note_off_c, 0, 65, 67
2, 461056, Note_off_c, 0, 70, 67
2, 461056, Note_on_c, 0, 70, 67
2, 461056, Note_on_c, 0, 74, 67
2, 461184, Note_off_c, 0, 70, 67
2, 461184, Note_off_c, 0, 74, 67
2, 461184, Note_on_c, 0, 74, 67
2, 461184, Note_on_c, 0, 79, 67
2, 461440, Note_off_c, 0, 74, 67
2, 461440, Note_off_c, 0, 79, 67
2, 461440, Note_on_c, 0, 72, 67
2, 461440, Note_on_c, 0, 77, 67
2, 461568, Note_off_c, 0, 72, 67
2, 461568, Note_on_c, 0, 70, 67
2, 461696, Note_off_c, 0, 70, 67
2, 461696, Note_off_c, 0, 77, 67
2, 461696, Note_on_c, 0, 68, 67
2, 461696, Note_on_c, 0, 74, 67
2, 461824, Note_off_c, 0, 68, 67
2, 461824, Note_off_c, 0, 74, 67
2, 461824, Note_on_c, 0, 67, 67
2, 461824, Note_on_c, 0, 75, 67
2, 461952, Note_off_c, 0, 67, 67
2, 461952, Note_off_c, 0, 75, 67
2, 461952, Note_on_c, 0, 70, 67
2, 461952, Note_on_c, 0, 79, 67
2, 462080, Note_off_c, 0, 70, 67
2, 462080, Note_on_c, 0, 72, 67
2, 462208, Note_off_c, 0, 72, 67
2, 462208, Note_on_c, 0, 74, 67
2, 462336, Note_off_c, 0, 74, 67
2, 462336, Note_off_c, 0, 79, 67
2, 462336, Note_on_c, 0, 70, 67
2, 462336, Note_on_c, 0, 75, 67
2, 462464, Note_off_c, 0, 75, 67
2, 462464, Note_on_c, 0, 74, 67
2, 462592, Note_off_c, 0, 70, 67
2, 462592, Note_off_c, 0, 74, 67
2, 462592, Note_on_c, 0, 65, 67
2, 462592, Note_on_c, 0, 72, 67
2, 462720, Note_off_c, 0, 72, 67
2, 462720, Note_on_c, 0, 70, 67
2, 462848, Note_off_c, 0, 65, 67
2, 462848, Note_off_c, 0, 70, 67
2, 462848, Note_on_c, 0, 67, 67
2, 462848, Note_on_c, 0, 75, 67
2, 462976, Note_off_c, 0, 67, 67
2, 462976, Note_off_c, 0, 75, 67
2, 462976, Note_on_c, 0, 66, 67
2, 462976, Note_on_c, 0, 70, 67
2, 463104, Note_off_c, 0, 66, 67
2, 463104, Note_off_c, 0, 70, 67
2, 463104, Note_on_c, 0, 67, 67
2, 463104, Note_on_c, 0, 75, 67
2, 463232, Note_off_c, 0, 67, 67
2, 463232, Note_off_c, 0, 75, 67
2, 463232, Note_on_c, 0, 75, 67
2, 463232, Note_on_c, 0, 82, 67
2, 463488, Note_off_c, 0, 75, 67
2, 463488, Note_off_c, 0, 82, 67
2, 463488, Note_on_c, 0, 74, 67
2, 463488, Note_on_c, 0, 80, 67
2, 463616, Note_off_c, 0, 74, 67
2, 463616, Note_on_c, 0, 72, 67
2, 463744, Note_off_c, 0, 72, 67
2, 463744, Note_off_c, 0, 80, 67
2, 463744, Note_on_c, 0, 70, 67
2, 463744, Note_on_c, 0, 79, 67
2, 463872, Note_off_c, 0, 70, 67
2, 463872, Note_off_c, 0, 79, 67
2, 463872, Note_on_c, 0, 72, 67
2, 463872, Note_on_c, 0, 77, 67
2, 464000, Note_off_c, 0, 72, 67
2, 464000, Note_off_c, 0, 77, 67
2, 464000, Note_on_c, 0, 70, 67
2, 464000, Note_on_c, 0, 74, 67
2, 464128, Note_off_c, 0, 70, 67
2, 464128, Note_on_c, 0, 68, 67
2, 464256, Note_off_c, 0, 68, 67
2, 464256, Note_on_c, 0, 67, 67
2, 464384, Note_off_c, 0, 67, 67
2, 464384, Note_off_c, 0, 74, 67
2, 464384, Note_on_c, 0, 65, 67
2, 464384, Note_on_c, 0, 70, 67
2, 464512, Note_off_c, 0, 65, 67
2, 464512, Note_on_c, 0, 67, 67
2, 464640, Note_off_c, 0, 67, 67
2, 464640, Note_off_c, 0, 70, 67
2, 464640, Note_on_c, 0, 65, 67
2, 464640, Note_on_c, 0, 68, 67
2, 464768, Note_off_c, 0, 68, 67
2, 464768, Note_on_c, 0, 70, 67
2, 464896, Note_off_c, 0, 65, 67
2, 464896, Note_off_c, 0, 70, 67
2, 464896, Note_on_c, 0, 70, 67
2, 464896, Note_on_c, 0, 74, 67
2, 465024, Note_off_c, 0, 70, 67
2, 465024, Note_off_c, 0, 74, 67
2, 465024, Note_on_c, 0, 65, 67
2, 465024, Note_on_c, 0, 70, 67
2, 465152, Note_off_c, 0, 65, 67
2, 465152, Note_off_c, 0, 70, 67
2, 465152, Note_on_c, 0, 70, 67
2, 465152, Note_on_c, 0, 74, 67
2, 465280, Note_off_c, 0, 70, 67
2, 465280, Note_off_c, 0, 74, 67
2, 465280, Note_on_c, 0, 74, 67
2, 465280, Note_on_c, 0, 79, 67
2, 465536, Note_off_c, 0, 74, 67
2, 465536, Note_off_c, 0, 79, 67
2, 465536, Note_on_c, 0, 72, 67
2, 465536, Note_on_c, 0, 77, 67
2, 465664, Note_off_c, 0, 72, 67
2, 465664, Note_on_c, 0, 70, 67
2, 465792, Note_off_c, 0, 70, 67
2, 465792, Note_off_c, 0, 77, 67
2, 465792, Note_on_c, 0, 68, 67
2, 465792, Note_on_c, 0, 74, 67
2, 465920, Note_off_c, 0, 68, 67
2, 465920, Note_off_c, 0, 74, 67
2, 465920, Note_on_c, 0, 67, 67
2, 465920, Note_on_c, 0, 75, 67
2, 466048, Note_off_c, 0, 67, 67
2, 466048, Note_on_c, 0, 65, 67
2, 466176, Note_off_c, 0, 65, 67
2, 466176, Note_on_c, 0, 63, 67
2, 466304, Note_off_c, 0, 63, 67
2, 466304, Note_on_c, 0, 65, 67
2, 466432, Note_off_c, 0, 65, 67
2, 466432, Note_off_c, 0, 75, 67
2, 466432, Note_on_c, 0, 63, 67
2, 466432, Note_on_c, 0, 67, 67
2, 466560, Note_off_c, 0, 67, 67
2, 466560, Note_on_c, 0, 68, 67
2, 466688, Note_off_c, 0, 63, 67
2, 466688, Note_off_c, 0, 68, 67
2, 466688, Note_on_c, 0, 65, 67
2, 466688, Note_on_c, 0, 70, 67
2, 466816, Note_off_c, 0, 70, 67
2, 466816, Note_on_c, 0, 72, 67
2, 466944, Note_off_c, 0, 65, 67
2, 466944, Note_off_c, 0, 72, 67
2, 466944, Note_on_c, 0, 79, 67
2, 467456, Note_off_c, 0, 79, 67
2, 467456, Note_on_c, 0, 82, 67
2, 467712, Control_c, 0, 93, 0
2, 467712, Note_on_c, 0, 68, 67
2, 467840, Note_off_c, 0, 68, 67
2, 467840, Note_on_c, 0, 70, 67
2, 467968, Note_off_c, 0, 70, 67
2, 467968, Note_off_c, 0, 82, 67
2, 467968, Note_on_c, 0, 72, 67
2, 467968, Note_on_c, 0, 80, 67
2, 468096, Note_off_c, 0, 72, 67
2, 468096, Note_off_c, 0, 80, 67
2, 468096, Note_on_c, 0, 70, 67
2, 468096, Note_on_c, 0, 82, 67
2, 468224, Note_off_c, 0, 70, 67
2, 468224, Note_off_c, 0, 82, 67
2, 468224, Note_on_c, 0, 68, 67
2, 468224, Note_on_c, 0, 80, 67
2, 468352, Note_off_c, 0, 80, 67
2, 468352, Note_on_c, 0, 79, 67
2, 468480, Note_off_c, 0, 68, 67
2, 468480, Note_off_c, 0, 79, 67
2, 468480, Note_on_c, 0, 65, 67
2, 468480, Note_on_c, 0, 77, 67
2, 468608, Note_off_c, 0, 65, 67
2, 468608, Note_on_c, 0, 67, 67
2, 468736, Note_off_c, 0, 67, 67
2, 468736, Note_on_c, 0, 68, 67
2, 468864, Note_off_c, 0, 68, 67
2, 468864, Note_on_c, 0, 70, 67
2, 468992, Note_off_c, 0, 70, 67
2, 468992, Note_off_c, 0, 77, 67
2, 468992, Note_on_c, 0, 68, 67
2, 468992, Note_on_c, 0, 74, 67
2, 469120, Note_off_c, 0, 68, 67
2, 469120, Note_on_c, 0, 67, 67
2, 469248, Note_off_c, 0, 67, 67
2, 469248, Note_on_c, 0, 65, 67
2, 469504, Note_off_c, 0, 65, 67
2, 469504, Note_off_c, 0, 74, 67
2, 469504, Note_on_c, 0, 77, 67
2, 469760, Control_c, 0, 93, 0
2, 469760, Note_on_c, 0, 65, 67
2, 469888, Note_off_c, 0, 65, 67
2, 469888, Note_on_c, 0, 70, 67
2, 470016, Note_off_c, 0, 70, 67
2, 470016, Note_off_c, 0, 77, 67
2, 470016, Note_on_c, 0, 67, 67
2, 470016, Note_on_c, 0, 79, 67
2, 470144, Note_off_c, 0, 67, 67
2, 470144, Note_off_c, 0, 79, 67
2, 470144, Note_on_c, 0, 68, 67
2, 470144, Note_on_c, 0, 80, 67
2, 470272, Note_off_c, 0, 68, 67
2, 470272, Note_off_c, 0, 80, 67
2, 470272, Note_on_c, 0, 70, 67
2, 470272, Note_on_c, 0, 79, 67
2, 470400, Note_off_c, 0, 70, 67
2, 470400, Note_off_c, 0, 79, 67
2, 470400, Note_on_c, 0, 72, 67
2, 470400, Note_on_c, 0, 77, 67
2, 470528, Note_off_c, 0, 72, 67
2, 470528, Note_off_c, 0, 77, 67
2, 470528, Note_on_c, 0, 70, 67
2, 470528, Note_on_c, 0, 75, 67
2, 471040, Note_off_c, 0, 70, 67
2, 471040, Note_off_c, 0, 75, 67
2, 471040, Note_on_c, 0, 75, 67
2, 471040, Note_on_c, 0, 79, 67
2, 471168, Note_off_c, 0, 75, 67
2, 471168, Note_on_c, 0, 74, 67
2, 471296, Note_off_c, 0, 74, 67
2, 471296, Note_on_c, 0, 72, 67
2, 471552, Note_off_c, 0, 72, 67
2, 471552, Note_off_c, 0, 79, 67
2, 471552, Note_on_c, 0, 70, 67
2, 471552, Note_on_c, 0, 82, 67
2, 471680, Note_off_c, 0, 70, 67
2, 471680, Note_on_c, 0, 72, 67
2, 471808, Note_off_c, 0, 72, 67
2, 471808, Note_on_c, 0, 74, 67
2, 471936, Note_off_c, 0, 74, 67
2, 471936, Note_on_c, 0, 75, 67
2, 472064, Note_off_c, 0, 75, 67
2, 472064, Note_off_c, 0, 82, 67
2, 472064, Note_on_c, 0, 77, 67
2, 472064, Note_on_c, 0, 80, 67
2, 472192, Note_off_c, 0, 77, 67
2, 472192, Note_off_c, 0, 80, 67
2, 472192, Note_on_c, 0, 75, 67
2, 472192, Note_on_c, 0, 79, 67
2, 472320, Note_off_c, 0, 75, 67
2, 472320, Note_off_c, 0, 79, 67
2, 472320, Note_on_c, 0, 74, 67
2, 472320, Note_on_c, 0, 80, 67
2, 472448, Note_off_c, 0, 80, 67
2, 472448, Note_on_c, 0, 82, 67
2, 472576, Note_off_c, 0, 74, 67
2, 472576, Note_off_c, 0, 82, 67
2, 472576, Note_on_c, 0, 72, 67
2, 472576, Note_on_c, 0, 84, 67
2, 472704, Note_off_c, 0, 72, 67
2, 472704, Note_on_c, 0, 74, 67
2, 472832, Note_off_c, 0, 74, 67
2, 472832, Note_on_c, 0, 75, 67
2, 472960, Note_off_c, 0, 75, 67
2, 472960, Note_on_c, 0, 77, 67
2, 473088, Note_off_c, 0, 77, 67
2, 473088, Note_off_c, 0, 84, 67
2, 473088, Note_on_c, 0, 74, 67
2, 473088, Note_on_c, 0, 82, 67
2, 473216, Note_off_c, 0, 74, 67
2, 473216, Note_on_c, 0, 72, 67
2, 473344, Note_off_c, 0, 72, 67
2, 473344, Note_off_c, 0, 82, 67
2, 473344, Note_on_c, 0, 70, 67
2, 473344, Note_on_c, 0, 80, 67
2, 473472, Note_off_c, 0, 80, 67
2, 473472, Note_on_c, 0, 79, 67
2, 473600, Note_off_c, 0, 70, 67
2, 473600, Note_off_c, 0, 79, 67
2, 473600, Note_on_c, 0, 68, 67
2, 473600, Note_on_c, 0, 80, 67
2, 473728, Note_off_c, 0, 68, 67
2, 473728, Note_on_c, 0, 70, 67
2, 473856, Note_off_c, 0, 70, 67
2, 473856, Note_on_c, 0, 72, 67
2, 473984, Note_off_c, 0, 72, 67
2, 473984, Note_on_c, 0, 68, 67
2, 474112, Note_off_c, 0, 68, 67
2, 474112, Note_off_c, 0, 80, 67
2, 474112, Note_on_c, 0, 70, 67
2, 474112, Note_on_c, 0, 79, 67
2, 474240, Note_off_c, 0, 70, 67
2, 474240, Note_off_c, 0, 79, 67
2, 474240, Note_on_c, 0, 68, 67
2, 474240, Note_on_c, 0, 80, 67
2, 474368, Note_off_c, 0, 68, 67
2, 474368, Note_off_c, 0, 80, 67
2, 474368, Note_on_c, 0, 67, 67
2, 474368, Note_on_c, 0, 79, 67
2, 474496, Note_off_c, 0, 67, 67
2, 474496, Note_off_c, 0, 79, 67
2, 474496, Note_on_c, 0, 65, 67
2, 474496, Note_on_c, 0, 77, 67
2, 474624, Note_off_c, 0, 65, 67
2, 474624, Note_off_c, 0, 77, 67
2, 474624, Note_on_c, 0, 63, 67
2, 474624, Note_on_c, 0, 75, 67
2, 474752, Note_off_c, 0, 63, 67
2, 474752, Note_on_c, 0, 65, 67
2, 474880, Note_off_c, 0, 65, 67
2, 474880, Note_on_c, 0, 67, 67
2, 475008, Note_off_c, 0, 67, 67
2, 475008, Note_on_c, 0, 68, 67
2, 475136, Note_off_c, 0, 68, 67
2, 475136, Note_off_c, 0, 75, 67
2, 475136, Time_signature, 4, 2, 24, 8
2, 475136, Key_signature, -3, "major"
2, 475136, Note_on_c, 0, 67, 67
2, 475136, Note_on_c, 0, 75, 67
2, 475264, Note_off_c, 0, 67, 67
2, 475264, Note_off_c, 0, 75, 67
2, 475264, Note_on_c, 0, 66, 67
2, 475264, Note_on_c, 0, 70, 67
2, 475392, Note_off_c, 0, 66, 67
2, 475392, Note_off_c, 0, 70, 67
2, 475392, Note_on_c, 0, 67, 67
2, 475392, Note_on_c, 0, 75, 67
2, 475520, Note_off_c, 0, 67, 67
2, 475520, Note_off_c, 0, 75, 67
2, 475520, Note_on_c, 0, 75, 67
2, 475520, Note_on_c, 0, 82, 67
2, 475776, Note_off_c, 0, 75, 67
2, 475776, Note_off_c, 0, 82, 67
2, 475776, Note_on_c, 0, 74, 67
2, 475776, Note_on_c, 0, 80, 67
2, 475904, Note_off_c, 0, 74, 67
2, 475904, Note_on_c, 0, 72, 67
2, 476032, Note_off_c, 0, 72, 67
2, 476032, Note_off_c, 0, 80, 67
2, 476032, Note_on_c, 0, 70, 67
2, 476032, Note_on_c, 0, 79, 67
2, 476160, Note_off_c, 0, 70, 67
2, 476160, Note_off_c, 0, 79, 67
2, 476160, Note_on_c, 0, 72, 67
2, 476160, Note_on_c, 0, 77, 67
2, 476288, Note_off_c, 0, 72, 67
2, 476288, Note_off_c, 0, 77, 67
2, 476288, Note_on_c, 0, 70, 67
2, 476288, Note_on_c, 0, 74, 67
2, 476416, Note_off_c, 0, 70, 67
2, 476416, Note_on_c, 0, 68, 67
2, 476544, Note_off_c, 0, 68, 67
2, 476544, Note_on_c, 0, 67, 67
2, 476672, Note_off_c, 0, 67, 67
2, 476672, Note_off_c, 0, 74, 67
2, 476672, Note_on_c, 0, 65, 67
2, 476672, Note_on_c, 0, 70, 67
2, 476800, Note_off_c, 0, 65, 67
2, 476800, Note_on_c, 0, 67, 67
2, 476928, Note_off_c, 0, 67, 67
2, 476928, Note_off_c, 0, 70, 67
2, 476928, Note_on_c, 0, 65, 67
2, 476928, Note_on_c, 0, 68, 67
2, 477056, Note_off_c, 0, 68, 67
2, 477056, Note_on_c, 0, 70, 67
2, 477184, Note_off_c, 0, 65, 67
2, 477184, Note_off_c, 0, 70, 67
2, 477184, Note_on_c, 0, 70, 67
2, 477184, Note_on_c, 0, 74, 67
2, 477312, Note_off_c, 0, 70, 67
2, 477312, Note_off_c, 0, 74, 67
2, 477312, Note_on_c, 0, 65, 67
2, 477312, Note_on_c, 0, 70, 67
2, 477440, Note_off_c, 0, 65, 67
2, 477440, Note_off_c, 0, 70, 67
2, 477440, Note_on_c, 0, 70, 67
2, 477440, Note_on_c, 0, 74, 67
2, 477568, Note_off_c, 0, 70, 67
2, 477568, Note_off_c, 0, 74, 67
2, 477568, Note_on_c, 0, 74, 67
2, 477568, Note_on_c, 0, 79, 67
2, 477824, Note_off_c, 0, 74, 67
2, 477824, Note_off_c, 0, 79, 67
2, 477824, Note_on_c, 0, 72, 67
2, 477824, Note_on_c, 0, 77, 67
2, 477952, Note_off_c, 0, 72, 67
2, 477952, Note_on_c, 0, 70, 67
2, 478080, Note_off_c, 0, 70, 67
2, 478080, Note_off_c, 0, 77, 67
2, 478080, Note_on_c, 0, 68, 67
2, 478080, Note_on_c, 0, 74, 67
2, 478208, Note_off_c, 0, 68, 67
2, 478208, Note_off_c, 0, 74, 67
2, 478208, Note_on_c, 0, 67, 67
2, 478208, Note_on_c, 0, 75, 67
2, 478336, Note_off_c, 0, 67, 67
2, 478336, Note_off_c, 0, 75, 67
2, 478336, Note_on_c, 0, 70, 67
2, 478336, Note_on_c, 0, 79, 67
2, 478464, Note_off_c, 0, 70, 67
2, 478464, Note_on_c, 0, 72, 67
2, 478592, Note_off_c, 0, 72, 67
2, 478592, Note_on_c, 0, 74, 67
2, 478720, Note_off_c, 0, 74, 67
2, 478720, Note_off_c, 0, 79, 67
2, 478720, Note_on_c, 0, 70, 67
2, 478720, Note_on_c, 0, 75, 67
2, 478848, Note_off_c, 0, 75, 67
2, 478848, Note_on_c, 0, 74, 67
2, 478976, Note_off_c, 0, 70, 67
2, 478976, Note_off_c, 0, 74, 67
2, 478976, Note_on_c, 0, 65, 67
2, 478976, Note_on_c, 0, 72, 67
2, 479104, Note_off_c, 0, 72, 67
2, 479104, Note_on_c, 0, 70, 67
2, 479232, Note_off_c, 0, 65, 67
2, 479232, Note_off_c, 0, 70, 67
2, 479232, Note_on_c, 0, 67, 67
2, 479232, Note_on_c, 0, 75, 67
2, 479360, Note_off_c, 0, 67, 67
2, 479360, Note_off_c, 0, 75, 67
2, 479360, Note_on_c, 0, 66, 67
2, 479360, Note_on_c, 0, 70, 67
2, 479488, Note_off_c, 0, 66, 67
2, 479488, Note_off_c, 0, 70, 67
2, 479488, Note_on_c, 0, 67, 67
2, 479488, Note_on_c, 0, 75, 67
2, 479616, Note_off_c, 0, 67, 67
2, 479616, Note_off_c, 0, 75, 67
2, 479616, Note_on_c, 0, 75, 67
2, 479616, Note_on_c, 0, 82, 67
2, 479872, Note_off_c, 0, 75, 67
2, 479872, Note_off_c, 0, 82, 67
2, 479872, Note_on_c, 0, 74, 67
2, 479872, Note_on_c, 0, 80, 67
2, 480000, Note_off_c, 0, 74, 67
2, 480000, Note_on_c, 0, 72, 67
2, 480128, Note_off_c, 0, 72, 67
2, 480128, Note_off_c, 0, 80, 67
2, 480128, Note_on_c, 0, 70, 67
2, 480128, Note_on_c, 0, 79, 67
2, 480256, Note_off_c, 0, 70, 67
2, 480256, Note_off_c, 0, 79, 67
2, 480256, Note_on_c, 0, 72, 67
2, 480256, Note_on_c, 0, 77, 67
2, 480384, Note_off_c, 0, 72, 67
2, 480384, Note_off_c, 0, 77, 67
2, 480384, Note_on_c, 0, 70, 67
2, 480384, Note_on_c, 0, 74, 67
2, 480512, Note_off_c, 0, 70, 67
2, 480512, Note_on_c, 0, 68, 67
2, 480640, Note_off_c, 0, 68, 67
2, 480640, Note_on_c, 0, 67, 67
2, 480768, Note_off_c, 0, 67, 67
2, 480768, Note_off_c, 0, 74, 67
2, 480768, Note_on_c, 0, 65, 67
2, 480768, Note_on_c, 0, 70, 67
2, 480896, Note_off_c, 0, 65, 67
2, 480896, Note_on_c, 0, 67, 67
2, 481024, Note_off_c, 0, 67, 67
2, 481024, Note_off_c, 0, 70, 67
2, 481024, Note_on_c, 0, 65, 67
2, 481024, Note_on_c, 0, 68, 67
2, 481152, Note_off_c, 0, 68, 67
2, 481152, Note_on_c, 0, 70, 67
2, 481280, Note_off_c, 0, 65, 67
2, 481280, Note_off_c, 0, 70, 67
2, 481280, Note_on_c, 0, 70, 67
2, 481280, Note_on_c, 0, 74, 67
2, 481408, Note_off_c, 0, 70, 67
2, 481408, Note_off_c, 0, 74, 67
2, 481408, Note_on_c, 0, 65, 67
2, 481408, Note_on_c, 0, 70, 67
2, 481536, Note_off_c, 0, 65, 67
2, 481536, Note_off_c, 0, 70, 67
2, 481536, Note_on_c, 0, 70, 67
2, 481536, Note_on_c, 0, 74, 67
2, 481664, Note_off_c, 0, 70, 67
2, 481664, Note_off_c, 0, 74, 67
2, 481664, Note_on_c, 0, 74, 67
2, 481664, Note_on_c, 0, 79, 67
2, 481920, Note_off_c, 0, 74, 67
2, 481920, Note_off_c, 0, 79, 67
2, 481920, Note_on_c, 0, 72, 67
2, 481920, Note_on_c, 0, 77, 67
2, 482048, Note_off_c, 0, 72, 67
2, 482048, Note_on_c, 0, 70, 67
2, 482176, Note_off_c, 0, 70, 67
2, 482176, Note_off_c, 0, 77, 67
2, 482176, Note_on_c, 0, 68, 67
2, 482176, Note_on_c, 0, 74, 67
2, 482304, Note_off_c, 0, 68, 67
2, 482304, Note_off_c, 0, 74, 67
2, 482304, Note_on_c, 0, 67, 67
2, 482304, Note_on_c, 0, 75, 67
2, 482432, Note_off_c, 0, 67, 67
2, 482432, Note_on_c, 0, 65, 67
2, 482560, Note_off_c, 0, 65, 67
2, 482560, Note_on_c, 0, 63, 67
2, 482688, Note_off_c, 0, 63, 67
2, 482688, Note_on_c, 0, 65, 67
2, 482816, Note_off_c, 0, 65, 67
2, 482816, Note_off_c, 0, 75, 67
2, 482816, Note_on_c, 0, 63, 67
2, 482816, Note_on_c, 0, 67, 67
2, 482944, Note_off_c, 0, 67, 67
2, 482944, Note_on_c, 0, 68, 67
2, 483072, Note_off_c, 0, 63, 67
2, 483072, Note_off_c, 0, 68, 67
2, 483072, Note_on_c, 0, 65, 67
2, 483072, Note_on_c, 0, 70, 67
2, 483200, Note_off_c, 0, 70, 67
2, 483200, Note_on_c, 0, 72, 67
2, 483328, Note_off_c, 0, 65, 67
2, 483328, Note_off_c, 0, 72, 67
2, 483328, Note_on_c, 0, 79, 67
2, 483840, Note_off_c, 0, 79, 67
2, 483840, Note_on_c, 0, 82, 67
2, 484096, Control_c, 0, 93, 0
2, 484096, Note_on_c, 0, 68, 67
2, 484224, Note_off_c, 0, 68, 67
2, 484224, Note_on_c, 0, 70, 67
2, 484352, Note_off_c, 0, 70, 67
2, 484352, Note_off_c, 0, 82, 67
2, 484352, Note_on_c, 0, 72, 67
2, 484352, Note_on_c, 0, 80, 67
2, 484480, Note_off_c, 0, 72, 67
2, 484480, Note_off_c, 0, 80, 67
2, 484480, Note_on_c, 0, 70, 67
2, 484480, Note_on_c, 0, 82, 67
2, 484608, Note_off_c, 0, 70, 67
2, 484608, Note_off_c, 0, 82, 67
2, 484608, Note_on_c, 0, 68, 67
2, 484608, Note_on_c, 0, 80, 67
2, 484736, Note_off_c, 0, 80, 67
2, 484736, Note_on_c, 0, 79, 67
2, 484864, Note_off_c, 0, 68, 67
2, 484864, Note_off_c, 0, 79, 67
2, 484864, Note_on_c, 0, 65, 67
2, 484864, Note_on_c, 0, 77, 67
2, 484992, Note_off_c, 0, 65, 67
2, 484992, Note_on_c, 0, 67, 67
2, 485120, Note_off_c, 0, 67, 67
2, 485120, Note_on_c, 0, 68, 67
2, 485248, Note_off_c, 0, 68, 67
2, 485248, Note_on_c, 0, 70, 67
2, 485376, Note_off_c, 0, 70, 67
2, 485376, Note_off_c, 0, 77, 67
2, 485376, Note_on_c, 0, 68, 67
2, 485376, Note_on_c, 0, 74, 67
2, 485504, Note_off_c, 0, 68, 67
2, 485504, Note_on_c, 0, 67, 67
2, 485632, Note_off_c, 0, 67, 67
2, 485632, Note_on_c, 0, 65, 67
2, 485888, Note_off_c, 0, 65, 67
2, 485888, Note_off_c, 0, 74, 67
2, 485888, Note_on_c, 0, 77, 67
2, 486144, Control_c, 0, 93, 0
2, 486144, Note_on_c, 0, 65, 67
2, 486272, Note_off_c, 0, 65, 67
2, 486272, Note_on_c, 0, 70, 67
2, 486400, Note_off_c, 0, 70, 67
2, 486400, Note_off_c, 0, 77, 67
2, 486400, Note_on_c, 0, 67, 67
2, 486400, Note_on_c, 0, 79, 67
2, 486528, Note_off_c, 0, 67, 67
2, 486528, Note_off_c, 0, 79, 67
2, 486528, Note_on_c, 0, 68, 67
2, 486528, Note_on_c, 0, 80, 67
2, 486656, Note_off_c, 0, 68, 67
2, 486656, Note_off_c, 0, 80, 67
2, 486656, Note_on_c, 0, 70, 67
2, 486656, Note_on_c, 0, 79, 67
2, 486784, Note_off_c, 0, 70, 67
2, 486784, Note_off_c, 0, 79, 67
2, 486784, Note_on_c, 0, 72, 67
2, 486784, Note_on_c, 0, 77, 67
2, 486912, Note_off_c, 0, 72, 67
2, 486912, Note_off_c, 0, 77, 67
2, 486912, Note_on_c, 0, 70, 67
2, 486912, Note_on_c, 0, 75, 67
2, 487424, Note_off_c, 0, 70, 67
2, 487424, Note_off_c, 0, 75, 67
2, 487424, Note_on_c, 0, 75, 67
2, 487424, Note_on_c, 0, 79, 67
2, 487552, Note_off_c, 0, 75, 67
2, 487552, Note_on_c, 0, 74, 67
2, 487680, Note_off_c, 0, 74, 67
2, 487680, Note_on_c, 0, 72, 67
2, 487936, Note_off_c, 0, 72, 67
2, 487936, Note_off_c, 0, 79, 67
2, 487936, Note_on_c, 0, 70, 67
2, 487936, Note_on_c, 0, 82, 67
2, 488064, Note_off_c, 0, 70, 67
2, 488064, Note_on_c, 0, 72, 67
2, 488192, Note_off_c, 0, 72, 67
2, 488192, Note_on_c, 0, 74, 67
2, 488320, Note_off_c, 0, 74, 67
2, 488320, Note_on_c, 0, 75, 67
2, 488448, Note_off_c, 0, 75, 67
2, 488448, Note_off_c, 0, 82, 67
2, 488448, Note_on_c, 0, 77, 67
2, 488448, Note_on_c, 0, 80, 67
2, 488576, Note_off_c, 0, 77, 67
2, 488576, Note_off_c, 0, 80, 67
2, 488576, Note_on_c, 0, 75, 67
2, 488576, Note_on_c, 0, 79, 67
2, 488704, Note_off_c, 0, 75, 67
2, 488704, Note_off_c, 0, 79, 67
2, 488704, Note_on_c, 0, 74, 67
2, 488704, Note_on_c, 0, 80, 67
2, 488832, Note_off_c, 0, 80, 67
2, 488832, Note_on_c, 0, 82, 67
2, 488960, Note_off_c, 0, 74, 67
2, 488960, Note_off_c, 0, 82, 67
2, 488960, Note_on_c, 0, 72, 67
2, 488960, Note_on_c, 0, 84, 67
2, 489088, Note_off_c, 0, 72, 67
2, 489088, Note_on_c, 0, 74, 67
2, 489216, Note_off_c, 0, 74, 67
2, 489216, Note_on_c, 0, 75, 67
2, 489344, Note_off_c, 0, 75, 67
2, 489344, Note_on_c, 0, 77, 67
2, 489472, Note_off_c, 0, 77, 67
2, 489472, Note_off_c, 0, 84, 67
2, 489472, Note_on_c, 0, 74, 67
2, 489472, Note_on_c, 0, 82, 67
2, 489600, Note_off_c, 0, 74, 67
2, 489600, Note_on_c, 0, 72, 67
2, 489728, Note_off_c, 0, 72, 67
2, 489728, Note_off_c, 0, 82, 67
2, 489728, Note_on_c, 0, 70, 67
2, 489728, Note_on_c, 0, 80, 67
2, 489856, Note_off_c, 0, 80, 67
2, 489856, Note_on_c, 0, 79, 67
2, 489984, Note_off_c, 0, 70, 67
2, 489984, Note_off_c, 0, 79, 67
2, 489984, Note_on_c, 0, 68, 67
2, 489984, Note_on_c, 0, 80, 67
2, 490112, Note_off_c, 0, 68, 67
2, 490112, Note_on_c, 0, 70, 67
2, 490240, Note_off_c, 0, 70, 67
2, 490240, Note_on_c, 0, 72, 67
2, 490368, Note_off_c, 0, 72, 67
2, 490368, Note_on_c, 0, 68, 67
2, 490496, Note_off_c, 0, 68, 67
2, 490496, Note_off_c, 0, 80, 67
2, 490496, Note_on_c, 0, 70, 67
2, 490496, Note_on_c, 0, 79, 67
2, 490624, Note_off_c, 0, 70, 67
2, 490624, Note_off_c, 0, 79, 67
2, 490624, Note_on_c, 0, 68, 67
2, 490624, Note_on_c, 0, 80, 67
2, 490752, Note_off_c, 0, 68, 67
2, 490752, Note_off_c, 0, 80, 67
2, 490752, Note_on_c, 0, 67, 67
2, 490752, Note_on_c, 0, 79, 67
2, 490880, Note_off_c, 0, 67, 67
2, 490880, Note_off_c, 0, 79, 67
2, 490880, Note_on_c, 0, 65, 67
2, 490880, Note_on_c, 0, 77, 67
2, 491008, Note_off_c, 0, 65, 67
2, 491008, Note_off_c, 0, 77, 67
2, 491008, Note_on_c, 0, 63, 67
2, 491008, Note_on_c, 0, 75, 67
2, 491136, Note_off_c, 0, 63, 67
2, 491136, Note_on_c, 0, 65, 67
2, 491264, Note_off_c, 0, 65, 67
2, 491264, Note_on_c, 0, 67, 67
2, 491392, Note_off_c, 0, 67, 67
2, 491392, Note_on_c, 0, 68, 67
2, 491520, Note_off_c, 0, 68, 67
2, 491520, Note_off_c, 0, 75, 67
2, 491520, Time_signature, 4, 2, 24, 8
2, 491520, Key_signature, -3, "major"
2, 491520, Note_on_c, 0, 67, 67
2, 491520, Note_on_c, 0, 75, 67
2, 491648, Note_off_c, 0, 67, 67
2, 491648, Note_off_c, 0, 75, 67
2, 491648, Note_on_c, 0, 66, 67
2, 491648, Note_on_c, 0, 70, 67
2, 491776, Note_off_c, 0, 66, 67
2, 491776, Note_off_c, 0, 70, 67
2, 491776, Note_on_c, 0, 67, 67
2, 491776, Note_on_c, 0, 75, 67
2, 491904, Note_off_c, 0, 67, 67
2, 491904, Note_off_c, 0, 75, 67
2, 491904, Note_on_c, 0, 75, 67
2, 491904, Note_on_c, 0, 82, 67
2, 492160, Note_off_c, 0, 75, 67
2, 492160, Note_off_c, 0, 82, 67
2, 492160, Note_on_c, 0, 74, 67
2, 492160, Note_on_c, 0, 80, 67
2, 492288, Note_off_c, 0, 74, 67
2, 492288, Note_on_c, 0, 72, 67
2, 492416, Note_off_c, 0, 72, 67
2, 492416, Note_off_c, 0, 80, 67
2, 492416, Note_on_c, 0, 70, 67
2, 492416, Note_on_c, 0, 79, 67
2, 492544, Note_off_c, 0, 70, 67
2, 492544, Note_off_c, 0, 79, 67
2, 492544, Note_on_c, 0, 72, 67
2, 492544, Note_on_c, 0, 77, 67
2, 492672, Note_off_c, 0, 72, 67
2, 492672, Note_off_c, 0, 77, 67
2, 492672, Note_on_c, 0, 70, 67
2, 492672, Note_on_c, 0, 74, 67
2, 492800, Note_off_c, 0, 70, 67
2, 492800, Note_on_c, 0, 68, 67
2, 492928, Note_off_c, 0, 68, 67
2, 492928, Note_on_c, 0, 67, 67
2, 493056, Note_off_c, 0, 67, 67
2, 493056, Note_off_c, 0, 74, 67
2, 493056, Note_on_c, 0, 65, 67
2, 493056, Note_on_c, 0, 70, 67
2, 493184, Note_off_c, 0, 65, 67
2, 493184, Note_on_c, 0, 67, 67
2, 493312, Note_off_c, 0, 67, 67
2, 493312, Note_off_c, 0, 70, 67
2, 493312, Note_on_c, 0, 65, 67
2, 493312, Note_on_c, 0, 68, 67
2, 493440, Note_off_c, 0, 68, 67
2, 493440, Note_on_c, 0, 70, 67
2, 493568, Note_off_c, 0, 65, 67
2, 493568, Note_off_c, 0, 70, 67
2, 493568, Note_on_c, 0, 70, 67
2, 493568, Note_on_c, 0, 74, 67
2, 493696, Note_off_c, 0, 70, 67
2, 493696, Note_off_c, 0, 74, 67
2, 493696, Note_on_c, 0, 65, 67
2, 493696, Note_on_c, 0, 70, 67
2, 493824, Note_off_c, 0, 65, 67
2, 493824, Note_off_c, 0, 70, 67
2, 493824, Note_on_c, 0, 70, 67
2, 493824, Note_on_c, 0, 74, 67
2, 493952, Note_off_c, 0, 70, 67
2, 493952, Note_off_c, 0, 74, 67
2, 493952, Note_on_c, 0, 74, 67
2, 493952, Note_on_c, 0, 79, 67
2, 494208, Note_off_c, 0, 74, 67
2, 494208, Note_off_c, 0, 79, 67
2, 494208, Note_on_c, 0, 72, 67
2, 494208, Note_on_c, 0, 77, 67
2, 494336, Note_off_c, 0, 72, 67
2, 494336, Note_on_c, 0, 70, 67
2, 494464, Note_off_c, 0, 70, 67
2, 494464, Note_off_c, 0, 77, 67
2, 494464, Note_on_c, 0, 68, 67
2, 494464, Note_on_c, 0, 74, 67
2, 494592, Note_off_c, 0, 68, 67
2, 494592, Note_off_c, 0, 74, 67
2, 494592, Note_on_c, 0, 67, 67
2, 494592, Note_on_c, 0, 75, 67
2, 494720, Note_off_c, 0, 67, 67
2, 494720, Note_off_c, 0, 75, 67
2, 494720, Note_on_c, 0, 70, 67
2, 494720, Note_on_c, 0, 79, 67
2, 494848, Note_off_c, 0, 70, 67
2, 494848, Note_on_c, 0, 72, 67
2, 494976, Note_off_c, 0, 72, 67
2, 494976, Note_on_c, 0, 74, 67
2, 495104, Note_off_c, 0, 74, 67
2, 495104, Note_off_c, 0, 79, 67
2, 495104, Note_on_c, 0, 70, 67
2, 495104, Note_on_c, 0, 75, 67
2, 495232, Note_off_c, 0, 75, 67
2, 495232, Note_on_c, 0, 74, 67
2, 495360, Note_off_c, 0, 70, 67
2, 495360, Note_off_c, 0, 74, 67
2, 495360, Note_on_c, 0, 65, 67
2, 495360, Note_on_c, 0, 72, 67
2, 495488, Note_off_c, 0, 72, 67
2, 495488, Note_on_c, 0, 70, 67
2, 495616, Note_off_c, 0, 65, 67
2, 495616, Note_off_c, 0, 70, 67
2, 495616, Note_on_c, 0, 67, 67
2, 495616, Note_on_c, 0, 75, 67
2, 495744, Note_off_c, 0, 67, 67
2, 495744, Note_off_c, 0, 75, 67
2, 495744, Note_on_c, 0, 66, 67
2, 495744, Note_on_c, 0, 70, 67
2, 495872, Note_off_c, 0, 66, 67
2, 495872, Note_off_c, 0, 70, 67
2, 495872, Note_on_c, 0, 67, 67
2, 495872, Note_on_c, 0, 75, 67
2, 496000, Note_off_c, 0, 67, 67
2, 496000, Note_off_c, 0, 75, 67
2, 496000, Note_on_c, 0, 75, 67
2, 496000, Note_on_c, 0, 82, 67
2, 496256, Note_off_c, 0, 75, 67
2, 496256, Note_off_c, 0, 82, 67
2, 496256, Note_on_c, 0, 74, 67
2, 496256, Note_on_c, 0, 80, 67
2, 496384, Note_off_c, 0, 74, 67
2, 496384, Note_on_c, 0, 72, 67
2, 496512, Note_off_c, 0, 72, 67
2, 496512, Note_off_c, 0, 80, 67
2, 496512, Note_on_c, 0, 70, 67
2, 496512, Note_on_c, 0, 79, 67
2, 496640, Note_off_c, 0, 70, 67
2, 496640, Note_off_c, 0, 79, 67
2, 496640, Note_on_c, 0, 72, 67
2, 496640, Note_on_c, 0, 77, 67
2, 496768, Note_off_c, 0, 72, 67
2, 496768, Note_off_c, 0, 77, 67
2, 496768, Note_on_c, 0, 70, 67
2, 496768, Note_on_c, 0, 74, 67
2, 496896, Note_off_c, 0, 70, 67
2, 496896, Note_on_c, 0, 68, 67
2, 497024, Note_off_c, 0, 68, 67
2, 497024, Note_on_c, 0, 67, 67
2, 497152, Note_off_c, 0, 67, 67
2, 497152, Note_off_c, 0, 74, 67
2, 497152, Note_on_c, 0, 65, 67
2, 497152, Note_on_c, 0, 70, 67
2, 497280, Note_off_c, 0, 65, 67
2, 497280, Note_on_c, 0, 67, 67
2, 497408, Note_off_c, 0, 67, 67
2, 497408, Note_off_c, 0, 70, 67
2, 497408, Note_on_c, 0, 65, 67
2, 497408, Note_on_c, 0, 68, 67
2, 497536, Note_off_c, 0, 68, 67
2, 497536, Note_on_c, 0, 70, 67
2, 497664, Note_off_c, 0, 65, 67
2, 497664, Note_off_c, 0, 70, 67
2, 497664, Note_on_c, 0, 70, 67
2, 497664, Note_on_c, 0, 74, 67
2, 497792, Note_off_c, 0, 70, 67
2, 497792, Note_off_c, 0, 74, 67
2, 497792, Note_on_c, 0, 65, 67
2, 497792, Note_on_c, 0, 70, 67
2, 497920, Note_off_c, 0, 65, 67
2, 497920, Note_off_c, 0, 70, 67
2, 497920, Note_on_c, 0, 70, 67
2, 497920, Note_on_c, 0, 74, 67
2, 498048, Note_off_c, 0, 70, 67
2, 498048, Note_off_c, 0, 74, 67
2, 498048, Note_on_c, 0, 74, 67
2, 498048, Note_on_c, 0, 79, 67
2, 498304, Note_off_c, 0, 74, 67
2, 498304, Note_off_c, 0, 79, 67
2, 498304, Note_on_c, 0, 72, 67
2, 498304, Note_on_c, 0, 77, 67
2, 498432, Note_off_c, 0, 72, 67
2, 498432, Note_on_c, 0, 70, 67
2, 498560, Note_off_c, 0, 70, 67
2, 498560, Note_off_c, 0, 77, 67
2, 498560, Note_on_c, 0, 68, 67
2, 498560, Note_on_c, 0, 74, 67
2, 498688, Note_off_c, 0, 68, 67
2, 498688, Note_off_c, 0, 74, 67
2, 498688, Note_on_c, 0, 67, 67
2, 498688, Note_on_c, 0, 75, 67
2, 498816, Note_off_c, 0, 67, 67
2, 498816, Note_on_c, 0, 65, 67
2, 498944, Note_off_c, 0, 65, 67
2, 498944, Note_on_c, 0, 63, 67
2, 499072, Note_off_c, 0, 63, 67
2, 499072, Note_on_c, 0, 65, 67
2, 499200, Note_off_c, 0, 65, 67
2, 499200, Note_off_c, 0, 75, 67
2, 499200, Note_on_c, 0, 63, 67
2, 499200, Note_on_c, 0, 67, 67
2, 499328, Note_off_c, 0, 67, 67
2, 499328, Note_on_c, 0, 68, 67
2, 499456, Note_off_c, 0, 63, 67
2, 499456, Note_off_c, 0, 68, 67
2, 499456, Note_on_c, 0, 65, 67
2, 499456, Note_on_c, 0, 70, 67
2, 499584, Note_off_c, 0, 70, 67
2, 499584, Note_on_c, 0, 72, 67
2, 499712, Note_off_c, 0, 65, 67
2, 499712, Note_off_c, 0, 72, 67
2, 499712, Note_on_c, 0, 79, 67
2, 500224, Note_off_c, 0, 79, 67
2, 500224, Note_on_c, 0, 82, 67
2, 500480, Control_c, 0, 93, 0
2, 500480, Note_on_c, 0, 68, 67
2, 500608, Note_off_c, 0, 68, 67
2, 500608, Note_on_c, 0, 70, 67
2, 500736, Note_off_c, 0, 70, 67
2, 500736, Note_off_c, 0, 82, 67
2, 500736, Note_on_c, 0, 72, 67
2, 500736, Note_on_c, 0, 80, 67
2, 500864, Note_off_c, 0, 72, 67
2, 500864, Note_off_c, 0, 80, 67
2, 500864, Note_on_c, 0, 70, 67
2, 500864, Note_on_c, 0, 82, 67
2, 500992, Note_off_c, 0, 70, 67
2, 500992, Note_off_c, 0, 82, 67
2, 500992, Note_on_c, 0, 68, 67
2, 500992, Note_on_c, 0, 80, 67
2, 501120, Note_off_c, 0, 80, 67
2, 501120, Note_on_c, 0, 79, 67
2, 501248, Note_off_c, 0, 68, 67
2, 501248, Note_off_c, 0, 79, 67
2, 501248, Note_on_c, 0, 65, 67
2, 501248, Note_on_c, 0, 77, 67
2, 501376, Note_off_c, 0, 65, 67
2, 501376, Note_on_c, 0, 67, 67
2, 501504, Note_off_c, 0, 67, 67
2, 501504, Note_on_c, 0, 68, 67
2, 501632, Note_off_c, 0, 68, 67
2, 501632, Note_on_c, 0, 70, 67
2, 501760, Note_off_c, 0, 70, 67
2, 501760, Note_off_c, 0, 77, 67
2, 501760, Note_on_c, 0, 68, 67
2, 501760, Note_on_c, 0, 74, 67
2, 501888, Note_off_c, 0, 68, 67
2, 501888, Note_on_c, 0, 67, 67
2, 502016, Note_off_c, 0, 67, 67
2, 502016, Note_on_c, 0, 65, 67
2, 502272, Note_off_c, 0, 65, 67
2, 502272, Note_off_c, 0, 74, 67
2, 502272, Note_on_c, 0, 77, 67
2, 502528, Control_c, 0, 93, 0
2, 502528, Note_on_c, 0, 65, 67
2, 502656, Note_off_c, 0, 65, 67
2, 502656, Note_on_c, 0, 70, 67
2, 502784, Note_off_c, 0, 70, 67
2, 502784, Note_off_c, 0, 77, 67
2, 502784, Note_on_c, 0, 67, 67
2, 502784, Note_on_c, 0, 79, 67
2, 502912, Note_off_c, 0, 67, 67
2, 502912, Note_off_c, 0, 79, 67
2, 502912, Note_on_c, 0, 68, 67
2, 502912, Note_on_c, 0, 80, 67
2, 503040, Note_off_c, 0, 68, 67
2, 503040, Note_off_c, 0, 80, 67
2, 503040, Note_on_c, 0, 70, 67
2, 503040, Note_on_c, 0, 79, 67
2, 503168, Note_off_c, 0, 70, 67
2, 503168, Note_off_c, 0, 79, 67
2, 503168, Note_on_c, 0, 72, 67
2, 503168, Note_on_c, 0, 77, 67
2, 503296, Note_off_c, 0, 72, 67
2, 503296, Note_off_c, 0, 77, 67
2, 503296, Note_on_c, 0, 70, 67
2, 503296, Note_on_c, 0, 75, 67
2, 503808, Note_off_c, 0, 70, 67
2, 503808, Note_off_c, 0, 75, 67
2, 503808, Note_on_c, 0, 75, 67
2, 503808, Note_on_c, 0, 79, 67
2, 503936, Note_off_c, 0, 75, 67
2, 503936, Note_on_c, 0, 74, 67
2, 504064, Note_off_c, 0, 74, 67
2, 504064, Note_on_c, 0, 72, 67
2, 504320, Note_off_c, 0, 72, 67
2, 504320, Note_off_c, 0, 79, 67
2, 504320, Note_on_c, 0, 70, 67
2, 504320, Note_on_c, 0, 82, 67
2, 504448, Note_off_c, 0, 70, 67
2, 504448, Note_on_c, 0, 72, 67
2, 504576, Note_off_c, 0, 72, 67
2, 504576, Note_on_c, 0, 74, 67
2, 504704, Note_off_c, 0, 74, 67
2, 504704, Note_on_c, 0, 75, 67
2, 504832, Note_off_c, 0, 75, 67
2, 504832, Note_off_c, 0, 82, 67
2, 504832, Note_on_c, 0, 77, 67
2, 504832, Note_on_c, 0, 80, 67
2, 504960, Note_off_c, 0, 77, 67
2, 504960, Note_off_c, 0, 80, 67
2, 504960, Note_on_c, 0, 75, 67
2, 504960, Note_on_c, 0, 79, 67
2, 505088, Note_off_c, 0, 75, 67
2, 505088, Note_off_c, 0, 79, 67
2, 505088, Note_on_c, 0, 74, 67
2, 505088, Note_on_c, 0, 80, 67
2, 505216, Note_off_c, 0, 80, 67
2, 505216, Note_on_c, 0, 82, 67
2, 505344, Note_off_c, 0, 74, 67
2, 505344, Note_off_c, 0, 82, 67
2, 505344, Note_on_c, 0, 72, 67
2, 505344, Note_on_c, 0, 84, 67
2, 505472, Note_off_c, 0, 72, 67
2, 505472, Note_on_c, 0, 74, 67
2, 505600, Note_off_c, 0, 74, 67
2, 505600, Note_on_c, 0, 75, 67
2, 505728, Note_off_c, 0, 75, 67
2, 505728, Note_on_c, 0, 77, 67
2, 505856, Note_off_c, 0, 77, 67
2, 505856, Note_off_c, 0, 84, 67
2, 505856, Note_on_c, 0, 74, 67
2, 505856, Note_on_c, 0, 82, 67
2, 505984, Note_off_c, 0, 74, 67
2, 505984, Note_on_c, 0, 72, 67
2, 506112, Note_off_c, 0, 72, 67
2, 506112, Note_off_c, 0, 82, 67
2, 506112, Note_on_c, 0, 70, 67
2, 506112, Note_on_c, 0, 80, 67
2, 506240, Note_off_c, 0, 80, 67
2, 506240, Note_on_c, 0, 79, 67
2, 506368, Note_off_c, 0, 70, 67
2, 506368, Note_off_c, 0, 79, 67
2, 506368, Note_on_c, 0, 68, 67
2, 506368, Note_on_c, 0, 80, 67
2, 506496, Note_off_c, 0, 68, 67
2, 506496, Note_on_c, 0, 70, 67
2, 506624, Note_off_c, 0, 70, 67
2, 506624, Note_on_c, 0, 72, 67
2, 506752, Note_off_c, 0, 72, 67
2, 506752, Note_on_c, 0, 68, 67
2, 506880, Note_off_c, 0, 68, 67
2, 506880, Note_off_c, 0, 80, 67
2, 506880, Note_on_c, 0, 70, 67
2, 506880, Note_on_c, 0, 79, 67
2, 507008, Note_off_c, 0, 70, 67
2, 507008, Note_off_c, 0, 79, 67
2, 507008, Note_on_c, 0, 68, 67
2, 507008, Note_on_c, 0, 80, 67
2, 507136, Note_off_c, 0, 68, 67
2, 507136, Note_off_c, 0, 80, 67
2, 507136, Note_on_c, 0, 67, 67
2, 507136, Note_on_c, 0, 79, 67
2, 507264, Note_off_c, 0, 67, 67
2, 507264, Note_off_c, 0, 79, 67
2, 507264, Note_on_c, 0, 65, 67
2, 507264, Note_on_c, 0, 77, 67
2, 507392, Note_off_c, 0, 65, 67
2, 507392, Note_off_c, 0, 77, 67
2, 507392, Note_on_c, 0, 63, 67
2, 507392, Note_on_c, 0, 75, 67
2, 507520, Note_off_c, 0, 63, 67
2, 507520, Note_on_c, 0, 65, 67
2, 507648, Note_off_c, 0, 65, 67
2, 507648, Note_on_c, 0, 67, 67
2, 507776, Note_off_c, 0, 67, 67
2, 507776, Note_on_c, 0, 68, 67
2, 507904, Note_off_c, 0, 68, 67
2, 507904, Note_off_c, 0, 75, 67
2, 507904, Time_signature, 4, 2, 24, 8
2, 507904, Key_signature, -3, "major"
2, 507904, Note_on_c, 0, 67, 67
2, 507904, Note_on_c, 0, 75, 67
2, 508032, Note_off_c, 0, 67, 67
2, 508032, Note_off_c, 0, 75, 67
2, 508032, Note_on_c, 0, 66, 67
2, 508032, Note_on_c, 0, 70, 67
2, 508160, Note_off_c, 0, 66, 67
2, 508160, Note_off_c, 0, 70, 67
2, 508160, Note_on_c, 0, 67, 67
2, 508160, Note_on_c, 0, 75, 67
2, 508288, Note_off_c, 0, 67, 67
2, 508288, Note_off_c, 0, 75, 67
2, 508288, Note_on_c, 0, 75, 67
2, 508288, Note_on_c, 0, 82, 67
2, 508544, Note_off_c, 0, 75, 67
2, 508544, Note_off_c, 0, 82, 67
2, 508544, Note_on_c, 0, 74, 67
2, 508544, Note_on_c, 0, 80, 67
2, 508672, Note_off_c, 0, 74, 67
2, 508672, Note_on_c, 0, 72, 67
2, 508800, Note_off_c, 0, 72, 67
2, 508800, Note_off_c, 0, 80, 67
2, 508800, Note_on_c, 0, 70, 67
2, 508800, Note_on_c, 0, 79, 67
2, 508928, Note_off_c, 0, 70, 67
2, 508928, Note_off_c, 0, 79, 67
2, 508928, Note_on_c, 0, 72, 67
2, 508928, Note_on_c, 0, 77, 67
2, 509056, Note_off_c, 0, 72, 67
2, 509056, Note_off_c, 0, 77, 67
2, 509056, Note_on_c, 0, 70, 67
2, 509056, Note_on_c, 0, 74, 67
2, 509184, Note_off_c, 0, 70, 67
2, 509184, Note_on_c, 0, 68, 67
2, 509312, Note_off_c, 0, 68, 67
2, 509312, Note_on_c, 0, 67, 67
2, 509440, Note_off_c, 0, 67, 67
2, 509440, Note_off_c, 0, 74, 67
2, 509440, Note_on_c, 0, 65, 67
2, 509440, Note_on_c, 0, 70, 67
2, 509568, Note_off_c, 0, 65, 67
2, 509568, Note_on_c, 0, 67, 67
2, 509696, Note_off_c, 0, 67, 67
2, 509696, Note_off_c, 0, 70, 67
2, 509696, Note_on_c, 0, 65, 67
2, 509696, Note_on_c, 0, 68, 67
2, 509824, Note_off_c, 0, 68, 67
2, 509824, Note_on_c, 0, 70, 67
2, 509952, Note_off_c, 0, 65, 67
2, 509952, Note_off_c, 0, 70, 67
2, 509952, Note_on_c, 0, 70, 67
2, 509952, Note_on_c, 0, 74, 67
2, 510080, Note_off_c, 0, 70, 67
2, 510080, Note_off_c, 0, 74, 67
2, 510080, Note_on_c, 0, 65, 67
2, 510080, Note_on_c, 0, 70, 67
2, 510208, Note_off_c, 0, 65, 67
2, 510208, Note_off_c, 0, 70, 67
2, 510208, Note_on_c, 0, 70, 67
2, 510208, Note_on_c, 0, 74, 67
2, 510336, Note_off_c, 0, 70, 67
2, 510336, Note_off_c, 0, 74, 67
2, 510336, Note_on_c, 0, 74, 67
2, 510336, Note_on_c, 0, 79, 67
2, 510592, Note_off_c, 0, 74, 67
2, 510592, Note_off_c, 0, 79, 67
2, 510592, Note_on_c, 0, 72, 67
2, 510592, Note_on_c, 0, 77, 67
2, 510720, Note_off_c, 0, 72, 67
2, 510720, Note_on_c, 0, 70, 67
2, 510848, Note_off_c, 0, 70, 67
2, 510848, Note_off_c, 0, 77, 67
2, 510848, Note_on_c, 0, 68, 67
2, 510848, Note_on_c, 0, 74, 67
2, 510976, Note_off_c, 0, 68, 67
2, 510976, Note_off_c, 0, 74, 67
2, 510976, Note_on_c, 0, 67, 67
2, 510976, Note_on_c, 0, 75, 67
2, 511104, Note_off_c, 0, 67, 67
2, 511104, Note_off_c, 0, 75, 67
2, 511104, Note_on_c, 0, 70, 67
2, 511104, Note_on_c, 0, 79, 67
2, 511232, Note_off_c, 0, 70, 67
2, 511232, Note_on_c, 0, 72, 67
2, 511360, Note_off_c, 0, 72, 67
2, 511360, Note_on_c, 0, 74, 67
2, 511488, Note_off_c, 0, 74, 67
2, 511488, Note_off_c, 0, 79, 67
2, 511488, Note_on_c, 0, 70, 67
2, 511488, Note_on_c, 0, 75, 67
2, 511616, Note_off_c, 0, 75, 67
2, 511616, Note_on_c, 0, 74, 67
2, 511744, Note_off_c, 0, 70, 67
2, 511744, Note_off_c, 0, 74, 67
2, 511744, Note_on_c, 0, 65, 67
2, 511744, Note_on_c, 0, 72, 67
2, 511872, Note_off_c, 0, 72, 67
2, 511872, Note_on_c, 0, 70, 67
2, 512000, Note_off_c, 0, 65, 67
2, 512000, Note_off_c, 0, 70, 67
2, 512000, Note_on_c, 0, 67, 67
2, 512000, Note_on_c, 0, 75, 67
2, 512128, Note_off_c, 0, 67, 67
2, 512128, Note_off_c, 0, 75, 67
2, 512128, Note_on_c, 0, 66, 67
2, 512128, Note_on_c, 0, 70, 67
2, 512256, Note_off_c, 0, 66, 67
2, 512256, Note_off_c, 0, 70, 67
2, 512256, Note_on_c, 0, 67, 67
2, 512256, Note_on_c, 0, 75, 67
2, 512384, Note_off_c, 0, 67, 67
2, 512384, Note_off_c, 0, 75, 67
2, 512384, Note_on_c, 0, 75, 67
2, 512384, Note_on_c, 0, 82, 67
2, 512640, Note_off_c, 0, 75, 67
2, 512640, Note_off_c, 0, 82, 67
2, 512640, Note_on_c, 0, 74, 67
2, 512640, Note_on_c, 0, 80, 67
2, 512768, Note_off_c, 0, 74, 67
2, 512768, Note_on_c, 0, 72, 67
2, 512896, Note_off_c, 0, 72, 67
2, 512896, Note_off_c, 0, 80, 67
2, 512896, Note_on_c, 0, 70, 67
2, 512896, Note_on_c, 0, 79, 67
2, 513024, Note_off_c, 0, 70, 67
2, 513024, Note_off_c, 0, 79, 67
2, 513024, Note_on_c, 0, 72, 67
2, 513024, Note_on_c, 0, 77, 67
2, 513152, Note_off_c, 0, 72, 67
2, 513152, Note_off_c, 0, 77, 67
2, 513152, Note_on_c, 0, 70, 67
2, 513152, Note_on_c, 0, 74, 67
2, 513280, Note_off_c, 0, 70, 67
2, 513280, Note_on_c, 0, 68, 67
2, 513408, Note_off_c, 0, 68, 67
2, 513408, Note_on_c, 0, 67, 67
2, 513536, Note_off_c, 0, 67, 67
2, 513536, Note_off_c, 0, 74, 67
2, 513536, Note_on_c, 0, 65, 67
2, 513536, Note_on_c, 0, 70, 67
2, 513664, Note_off_c, 0, 65, 67
2, 513664, Note_on_c, 0, 67, 67
2, 513792, Note_off_c, 0, 67, 67
2, 513792, Note_off_c, 0, 70, 67
2, 513792, Note_on_c, 0, 65, 67
2, 513792, Note_on_c, 0, 68, 67
2, 513920, Note_off_c, 0, 68, 67
2, 513920, Note_on_c, 0, 70, 67
2, 514048, Note_off_c, 0, 65, 67
2, 514048, Note_off_c, 0, 70, 67
2, 514048, Note_on_c, 0, 70, 67
2, 514048, Note_on_c, 0, 74, 67
2, 514176, Note_off_c, 0, 70, 67
2, 514176, Note_off_c, 0, 74, 67
2, 514176, Note_on_c, 0, 65, 67
2, 514176, Note_on_c, 0, 70, 67
2, 514304, Note_off_c, 0, 65, 67
2, 514304, Note_off_c, 0, 70, 67
2, 514304, Note_on_c, 0, 70, 67
2, 514304, Note_on_c, 0, 74, 67
2, 514432, Note_off_c, 0, 70, 67
2, 514432, Note_off_c, 0, 74, 67
2, 514432, Note_on_c, 0, 74, 67
2, 514432, Note_on_c, 0, 79, 67
2, 514688, Note_off_c, 0, 74, 67
2, 514688, Note_off_c, 0, 79, 67
2, 514688, Note_on_c, 0, 72, 67
2, 514688, Note_on_c, 0, 77, 67
2, 514816, Note_off_c, 0, 72, 67
2, 514816, Note_on_c, 0, 70, 67
2, 514944, Note_off_c, 0, 70, 67
2, 514944, Note_off_c, 0, 77, 67
2, 514944, Note_on_c, 0, 68, 67
2, 514944, Note_on_c, 0, 74, 67
2, 515072, Note_off_c, 0, 68, 67
2, 515072, Note_off_c, 0, 74, 67
2, 515072, Note_on_c, 0, 67, 67
2, 515072, Note_on_c, 0, 75, 67
2, 515200, Note_off_c, 0, 67, 67
2, 515200, Note_on_c, 0, 65, 67
2, 515328, Note_off_c, 0, 65, 67
2, 515328, Note_on_c, 0, 63, 67
2, 515456, Note_off_c, 0, 63, 67
2, 515456, Note_on_c, 0, 65, 67
2, 515584, Note_off_c, 0, 65, 67
2, 515584, Note_off_c, 0, 75, 67
2, 515584, Note_on_c, 0, 63, 67
2, 515584, Note_on_c, 0, 67, 67
2, 515712, Note_off_c, 0, 67, 67
2, 515712, Note_on_c, 0, 68, 67
2, 515840, Note_off_c, 0, 63, 67
2, 515840, Note_off_c, 0, 68, 67
2, 515840, Note_on_c, 0, 65, 67
2, 515840, Note_on_c, 0, 70, 67
2, 515968, Note_off_c, 0, 70, 67
2, 515968, Note_on_c, 0, 72, 67
2, 516096, Note_off_c, 0, 65, 67
2, 516096, Note_off_c, 0, 72, 67
2, 516096, Note_on_c, 0, 79, 67
2, 516608, Note_off_c, 0, 79, 67
2, 516608, Note_on_c, 0, 82, 67
2, 516864, Control_c, 0, 93, 0
2, 516864, Note_on_c, 0, 68, 67
2, 516992, Note_off_c, 0, 68, 67
2, 516992, Note_on_c, 0, 70, 67
2, 517120, Note_off_c, 0, 70, 67
2, 517120, Note_off_c, 0, 82, 67
2, 517120, Note_on_c, 0, 72, 67
2, 517120, Note_on_c, 0, 80, 67
2, 517248, Note_off_c, 0, 72, 67
2, 517248, Note_off_c, 0, 80, 67
2, 517248, Note_on_c, 0, 70, 67
2, 517248, Note_on_c, 0, 82, 67
2, 517376, Note_off_c, 0, 70, 67
2, 517376, Note_off_c, 0, 82, 67
2, 517376, Note_on_c, 0, 68, 67
2, 517376, Note_on_c, 0, 80, 67
2, 517504, Note_off_c, 0, 80, 67
2, 517504, Note_on_c, 0, 79, 67
2, 517632, Note_off_c, 0, 68, 67
2, 517632, Note_off_c, 0, 79, 67
2, 517632, Note_on_c, 0, 65, 67
2, 517632, Note_on_c, 0, 77, 67
2, 517760, Note_off_c, 0, 65, 67
2, 517760, Note_on_c, 0, 67, 67
2, 517888, Note_off_c, 0, 67, 67
2, 517888, Note_on_c, 0, 68, 67
2, 518016, Note_off_c, 0, 68, 67
2, 518016, Note_on_c, 0, 70, 67
2, 518144, Note_off_c, 0, 70, 67
2, 518144, Note_off_c, 0, 77, 67
2, 518144, Note_on_c, 0, 68, 67
2, 518144, Note_on_c, 0, 74, 67
2, 518272, Note_off_c, 0, 68, 67
2, 518272, Note_on_c, 0, 67, 67
2, 518400, Note_off_c, 0, 67, 67
2, 518400, Note_on_c, 0, 65, 67
2, 518656, Note_off_c, 0, 65, 67
2, 518656, Note_off_c, 0, 74, 67
2, 518656, Note_on_c, 0, 77, 67
2, 518912, Control_c, 0, 93, 0
2, 518912, Note_on_c, 0, 65, 67
2, 519040, Note_off_c, 0, 65, 67
2, 519040, Note_on_c, 0, 70, 67
2, 519168, Note_off_c, 0, 70, 67
2, 519168, Note_off_c, 0, 77, 67
2, 519168, Note_on_c, 0, 67, 67
2, 519168, Note_on_c, 0, 79, 67
2, 519296, Note_off_c, 0, 67, 67
2, 519296, Note_off_c, 0, 79, 67
2, 519296, Note_on_c, 0, 68, 67
2, 519296, Note_on_c, 0, 80, 67
2, 519424, Note_off_c, 0, 68, 67
2, 519424, Note_off_c, 0, 80, 67
2, 519424, Note_on_c, 0, 70, 67
2, 519424, Note_on_c, 0, 79, 67
2, 519552, Note_off_c, 0, 70, 67
2, 519552, Note_off_c, 0, 79, 67
2, 519552, Note_on_c, 0, 72, 67
2, 519552, Note_on_c, 0, 77, 67
2, 519680, Note_off_c, 0, 72, 67
2, 519680, Note_off_c, 0, 77, 67
2, 519680, Note_on_c, 0, 70, 67
2, 519680, Note_on_c, 0, 75, 67
2, 520192, Note_off_c, 0, 70, 67
2, 520192, Note_off_c, 0, 75, 67
2, 520192, Note_on_c, 0, 75, 67
2, 520192, Note_on_c, 0, 79, 67
2, 520320, Note_off_c, 0, 75, 67
2, 520320, Note_on_c, 0, 74, 67
2, 520448, Note_off_c, 0, 74, 67
2, 520448, Note_on_c, 0, 72, 67
2, 520704, Note_off_c, 0, 72, 67
2, 520704, Note_off_c, 0, 79, 67
2, 520704, Note_on_c, 0, 70, 67
2, 520704, Note_on_c, 0, 82, 67
2, 520832, Note_off_c, 0, 70, 67
2, 520832, Note_on_c, 0, 72, 67
2, 520960, Note_off_c, 0, 72, 67
2, 520960, Note_on_c, 0, 74, 67
2, 521088, Note_off_c, 0, 74, 67
2, 521088, Note_on_c, 0, 75, 67
2, 521216, Note_off_c, 0, 75, 67
2, 521216, Note_off_c, 0, 82, 67
2, 521216, Note_on_c, 0, 77, 67
2, 521216, Note_on_c, 0, 80, 67
2, 521344, Note_off_c, 0, 77, 67
2, 521344, Note_off_c, 0, 80, 67
2, 521344, Note_on_c, 0, 75, 67
2, 521344, Note_on_c, 0, 79, 67
2, 521472, Note_off_c, 0, 75, 67
2, 521472, Note_off_c, 0, 79, 67
2, 521472, Note_on_c, 0, 74, 67
2, 521472, Note_on_c, 0, 80, 67
2, 521600, Note_off_c, 0, 80, 67
2, 521600, Note_on_c, 0, 82, 67
2, 521728, Note_off_c, 0, 74, 67
2, 521728, Note_off_c, 0, 82, 67
2, 521728, Note_on_c, 0, 72, 67
2, 521728, Note_on_c, 0, 84, 67
2, 521856, Note_off_c, 0, 72, 67
2, 521856, Note_on_c, 0, 74, 67
2, 521984, Note_off_c, 0, 74, 67
2, 521984, Note_on_c, 0, 75, 67
2, 522112, Note_off_c, 0, 75, 67
2, 522112, Note_on_c, 0, 77, 67
2, 522240, Note_off_c, 0, 77, 67
2, 522240, Note_off_c, 0, 84, 67
2, 522240, Note_on_c, 0, 74, 67
2, 522240, Note_on_c, 0, 82, 67
2, 522368, Note_off_c, 0, 74, 67
2, 522368, Note_on_c, 0, 72, 67
2, 522496, Note_off_c, 0, 72, 67
2, 522496, Note_off_c, 0, 82, 67
2, 522496, Note_on_c, 0, 70, 67
2, 522496, Note_on_c, 0, 80, 67
2, 522624, Note_off_c, 0, 80, 67
2, 522624, Note_on_c, 0, 79, 67
2, 522752, Note_off_c, 0, 70, 67
2, 522752, Note_off_c, 0, 79, 67
2, 522752, Note_on_c, 0, 68, 67
2, 522752, Note_on_c, 0, 80, 67
2, 522880, Note_off_c, 0, 68, 67
2, 522880, Note_on_c, 0, 70, 67
2, 523008, Note_off_c, 0, 70, 67
2, 523008, Note_on_c, 0, 72, 67
2, 523136, Note_off_c, 0, 72, 67
2, 523136, Note_on_c, 0, 68, 67
2, 523264, Note_off_c, 0, 68, 67
2, 523264, Note_off_c, 0, 80, 67
2, 523264, Note_on_c, 0, 70, 67
2, 523264, Note_on_c, 0, 79, 67
2, 523392, Note_off_c, 0, 70, 67
2, 523392, Note_off_c, 0, 79, 67
2, 523392, Note_on_c, 0, 68, 67
2, 523392, Note_on_c, 0, 80, 67
2, 523520, Note_off_c, 0, 68, 67
2, 523520, Note_off_c, 0, 80, 67
2, 523520, Note_on_c, 0, 67, 67
2, 523520, Note_on_c, 0, 79, 67
2, 523648, Note_off_c, 0, 67, 67
2, 523648, Note_off_c, 0, 79, 67
2, 523648, Note_on_c, 0, 65, 67
2, 523648, Note_on_c, 0, 77, 67
2, 523776, Note_off_c, 0, 65, 67
2, 523776, Note_off_c, 0, 77, 67
2, 523776, Note_on_c, 0, 63, 67
2, 523776, Note_on_c, 0, 75, 67
2, 523904, Note_off_c, 0, 63, 67
2, 523904, Note_on_c, 0, 65, 67
2, 524032, Note_off_c, 0, 65, 67
2, 524032, Note_on_c, 0, 67, 67
2, 524160, Note_off_c, 0, 67, 67
2, 524160, Note_on_c, 0, 68, 67
2, 524288, Note_off_c, 0, 68, 67
2, 524288, Note_off_c, 0, 75, 67
2, 524288, Time_signature, 4, 2, 24, 8
2, 524288, Key_signature, -3, "major"
2, 524288, Note_on_c, 0, 67, 67
2, 524288, Note_on_c, 0, 75, 67
2, 524416, Note_off_c, 0, 67, 67
2, 524416, Note_off_c, 0, 75, 67
2, 524416, Note_on_c, 0, 66, 67
2, 524416, Note_on_c, 0, 70, 67
2, 524544, Note_off_c, 0, 66, 67
2, 524544, Note_off_c, 0, 70, 67
2, 524544, Note_on_c, 0, 67, 67
2, 524544, Note_on_c, 0, 75, 67
2, 524672, Note_off_c, 0, 67, 67
2, 524672, Note_off_c, 0, 75, 67
2, 524672, Note_on_c, 0, 75, 67
2, 524672, Note_on_c, 0, 82, 67
2, 524928, Note_off_c, 0, 75, 67
2, 524928, Note_off_c, 0, 82, 67
2, 524928, Note_on_c, 0, 74, 67
2, 524928, Note_on_c, 0, 80, 67
2, 525056, Note_off_c, 0, 74, 67
2, 525056, Note_on_c, 0, 72, 67
2, 525184, Note_off_c, 0, 72, 67
2, 525184, Note_off_c, 0, 80, 67
2, 525184, Note_on_c, 0, 70, 67
2, 525184, Note_on_c, 0, 79, 67
2, 525312, Note_off_c, 0, 70, 67
2, 525312, Note_off_c, 0, 79, 67
2, 525312, Note_on_c, 0, 72, 67
2, 525312, Note_on_c, 0, 77, 67
2, 525440, Note_off_c, 0, 72, 67
2, 525440, Note_off_c, 0, 77, 67
2, 525440, Note_on_c, 0, 70, 67
2, 525440, Note_on_c, 0, 74, 67
2, 525568, Note_off_c, 0, 70, 67
2, 525568, Note_on_c, 0, 68, 67
2, 525696, Note_off_c, 0, 68, 67
2, 525696, Note_on_c, 0, 67, 67
2, 525824, Note_off_c, 0, 67, 67
2, 525824, Note_off_c, 0, 74, 67
2, 525824, Note_on_c, 0, 65, 67
2, 525824, Note_on_c, 0, 70, 67
2, 525952, Note_off_c, 0, 65, 67
2, 525952, Note_on_c, 0, 67, 67
2, 526080, Note_off_c, 0, 67, 67
2, 526080, Note_off_c, 0, 70, 67
2, 526080, Note_on_c, 0, 65, 67
2, 526080, Note_on_c, 0, 68, 67
2, 526208, Note_off_c, 0, 68, 67
2, 526208, Note_on_c, 0, 70, 67
2, 526336, Note_off_c, 0, 65, 67
2, 526336, Note_off_c, 0, 70, 67
2, 526336, Note_on_c, 0, 70, 67
2, 526336, Note_on_c, 0, 74, 67
2, 526464, Note_off_c, 0, 70, 67
2, 526464, Note_off_c, 0, 74, 67
2, 526464, Note_on_c, 0, 65, 67
2, 526464, Note_on_c, 0, 70, 67
2, 526592, Note_off_c, 0, 65, 67
2, 526592, Note_off_c, 0, 70, 67
2, 526592, Note_on_c, 0, 70, 67
2, 526592, Note_on_c, 0, 74, 67
2, 526720, Note_off_c, 0, 70, 67
2, 526720, Note_off_c, 0, 74, 67
2, 526720, Note_on_c, 0, 74, 67
2, 526720, Note_on_c, 0, 79, 67
2, 526976, Note_off_c, 0, 74, 67
2, 526976, Note_off_c, 0, 79, 67
2, 526976, Note_on_c, 0, 72, 67
2, 526976, Note_on_c, 0, 77, 67
2, 527104, Note_off_c, 0, 72, 67
2, 527104, Note_on_c, 0, 70, 67
2, 527232, Note_off_c, 0, 70, 67
2, 527232, Note_off_c, 0, 77, 67
2, 527232, Note_on_c, 0, 68, 67
2, 527232, Note_on_c, 0, 74, 67
2, 527360, Note_off_c, 0, 68, 67
2, 527360, Note_off_c, 0, 74, 67
2, 527360, Note_on_c, 0, 67, 67
2, 527360, Note_on_c, 0, 75, 67
2, 527488, Note_off_c, 0, 67, 67
2, 527488, Note_off_c, 0, 75, 67
2, 527488, Note_on_c, 0, 70, 67
2, 527488, Note_on_c, 0, 79, 67
2, 527616, Note_off_c, 0, 70, 67
2, 527616, Note_on_c, 0, 72, 67
2, 527744, Note_off_c, 0, 72, 67
2, 527744, Note_on_c, 0, 74, 67
2, 527872, Note_off_c, 0, 74, 67
2, 527872, Note_off_c, 0, 79, 67
2, 527872, Note_on_c, 0, 70, 67
2, 527872, Note_on_c, 0, 75, 67
2, 528000, Note_off_c, 0, 75, 67
2, 528000, Note_on_c, 0, 74, 67
2, 528128, Note_off_c, 0, 70, 67
2, 528128, Note_off_c, 0, 74, 67
2, 528128, Note_on_c, 0, 65, 67
2, 528128, Note_on_c, 0, 72, 67
2, 528256, Note_off_c, 0, 72, 67
2, 528256, Note_on_c, 0, 70, 67
2, 528384, Note_off_c, 0, 65, 67
2, 528384, Note_off_c, 0, 70, 67
2, 528384, Note_on_c, 0, 67, 67
2, 528384, Note_on_c, 0, 75, 67
2, 528512, Note_off_c, 0, 67, 67
2, 528512, Note_off_c, 0, 75, 67
2, 528512, Note_on_c, 0, 66, 67
2, 528512, Note_on_c, 0, 70, 67
2, 528640, Note_off_c, 0, 66, 67
2, 528640, Note_off_c, 0, 70, 67
2, 528640, Note_on_c, 0, 67, 67
2, 528640, Note_on_c, 0, 75, 67
2, 528768, Note_off_c, 0, 67, 67
2, 528768, Note_off_c, 0, 75, 67
2, 528768, Note_on_c, 0, 75, 67
2, 528768, Note_on_c, 0, 82, 67
2, 529024, Note_off_c, 0, 75, 67
2, 529024, Note_off_c, 0, 82, 67
2, 529024, Note_on_c, 0, 74, 67
2, 529024, Note_on_c, 0, 80, 67
2, 529152, Note_off_c, 0, 74, 67
2, 529152, Note_on_c, 0, 72, 67
2, 529280, Note_off_c, 0, 72, 67
2, 529280, Note_off_c, 0, 80, 67
2, 529280, Note_on_c, 0, 70, 67
2, 529280, Note_on_c, 0, 79, 67
2, 529408, Note_off_c, 0, 70, 67
2, 529408, Note_off_c, 0, 79, 67
2, 529408, Note_on_c, 0, 72, 67
2, 529408, Note_on_c, 0, 77, 67
2, 529536, Note_off_c, 0, 72, 67
2, 529536, Note_off_c, 0, 77, 67
2, 529536, Note_on_c, 0, 70, 67
2, 529536, Note_on_c, 0, 74, 67
2, 529664, Note_off_c, 0, 70, 67
2, 529664, Note_on_c, 0, 68, 67
2, 529792, Note_off_c, 0, 68, 67
2, 529792, Note_on_c, 0, 67, 67
2, 529920, Note_off_c, 0, 67, 67
2, 529920, Note_off_c, 0, 74, 67
2, 529920, Note_on_c, 0, 65, 67
2, 529920, Note_on_c, 0, 70, 67
2, 530048, Note_off_c, 0, 65, 67
2, 530048, Note_on_c, 0, 67, 67
2, 530176, Note_off_c, 0, 67, 67
2, 530176, Note_off_c, 0, 70, 67
2, 530176, Note_on_c, 0, 65, 67
2, 530176, Note_on_c, 0, 68, 67
2, 530304, Note_off_c, 0, 68, 67
2, 530304, Note_on_c, 0, 70, 67
2, 530432, Note_off_c, 0, 65, 67
2, 530432, Note_off_c, 0, 70, 67
2, 530432, Note_on_c, 0, 70, 67
2, 530432, Note_on_c, 0, 74, 67
2, 530560, Note_off_c, 0, 70, 67
2, 530560, Note_off_c, 0, 74, 67
2, 530560, Note_on_c, 0, 65, 67
2, 530560, Note_on_c, 0, 70, 67
2, 530688, Note_off_c, 0, 65, 67
2, 530688, Note_off_c, 0, 70, 67
2, 530688, Note_on_c, 0, 70, 67
2, 530688, Note_on_c, 0, 74, 67
2, 530816, Note_off_c, 0, 70, 67
2, 530816, Note_off_c, 0, 74, 67
2, 530816, Note_on_c, 0, 74, 67
2, 530816, Note_on_c, 0, 79, 67
2, 531072, Note_off_c, 0, 74, 67
2, 531072, Note_off_c, 0, 79, 67
2, 531072, Note_on_c, 0, 72, 67
2, 531072, Note_on_c, 0, 77, 67
2, 531200, Note_off_c, 0, 72, 67
2, 531200, Note_on_c, 0, 70, 67
2, 531328, Note_off_c, 0, 70, 67
2, 531328, Note_off_c, 0, 77, 67
2, 531328, Note_on_c, 0, 68, 67
2, 531328, Note_on_c, 0, 74, 67
2, 531456, Note_off_c, 0, 68, 67
2, 531456, Note_off_c, 0, 74, 67
2, 531456, Note_on_c, 0, 67, 67
2, 531456, Note_on_c, 0, 75, 67
2, 531584, Note_off_c, 0, 67, 67
2, 531584, Note_on_c, 0, 65, 67
2, 531712, Note_off_c, 0, 65, 67
2, 531712, Note_on_c, 0, 63, 67
2, 531840, Note_off_c, 0, 63, 67
2, 531840, Note_on_c, 0, 65, 67
2, 531968, Note_off_c, 0, 65, 67
2, 531968, Note_off_c, 0, 75, 67
2, 531968, Note_on_c, 0, 63, 67
2, 531968, Note_on_c, 0, 67, 67
2, 532096, Note_off_c, 0, 67, 67
2, 532096, Note_on_c, 0, 68, 67
2, 532224, Note_off_c, 0, 63, 67
2, 532224, Note_off_c, 0, 68, 67
2, 532224, Note_on_c, 0, 65, 67
2, 532224, Note_on_c, 0, 70, 67
2, 532352, Note_off_c, 0, 70, 67
2, 532352, Note_on_c, 0, 72, 67
2, 532480, Note_off_c, 0, 65, 67
2, 532480, Note_off_c, 0, 72, 67
2, 532480, Note_on_c, 0, 79, 67
2, 532992, Note_off_c, 0, 79, 67
2, 532992, Note_on_c, 0, 82, 67
2, 533248, Control_c, 0, 93, 0
2, 533248, Note_on_c, 0, 68, 67
2, 533376, Note_off_c, 0, 68, 67
2, 533376, Note_on_c, 0, 70, 67
2, 533504, Note_off_c, 0, 70, 67
2, 533504, Note_off_c, 0, 82, 67
2, 533504, Note_on_c, 0, 72, 67
2, 533504, Note_on_c, 0, 80, 67
2, 533632, Note_off_c, 0, 72, 67
2, 533632, Note_off_c, 0, 80, 67
2, 533632, Note_on_c, 0, 70, 67
2, 533632, Note_on_c, 0, 82, 67
2, 533760, Note_off_c, 0, 70, 67
2, 533760, Note_off_c, 0, 82, 67
2, 533760, Note_on_c, 0, 68, 67
2, 533760, Note_on_c, 0, 80, 67
2, 533888, Note_off_c, 0, 80, 67
2, 533888, Note_on_c, 0, 79, 67
2, 534016, Note_off_c, 0, 68, 67
2, 534016, Note_off_c, 0, 79, 67
2, 534016, Note_on_c, 0, 65, 67
2, 534016, Note_on_c, 0, 77, 67
2, 534144, Note_off_c, 0, 65, 67
2, 534144, Note_on_c, 0, 67, 67
2, 534272, Note_off_c, 0, 67, 67
2, 534272, Note_on_c, 0, 68, 67
2, 534400, Note_off_c, 0, 68, 67
2, 534400, Note_on_c, 0, 70, 67
2, 534528, Note_off_c, 0, 70, 67
2, 534528, Note_off_c, 0, 77, 67
2, 534528, Note_on_c, 0, 68, 67
2, 534528, Note_on_c, 0, 74, 67
2, 534656, Note_off_c, 0, 68, 67
2, 534656, Note_on_c, 0, 67, 67
2, 534784, Note_off_c, 0, 67, 67
2, 534784, Note_on_c, 0, 65, 67
2, 535040, Note_off_c, 0, 65, 67
2, 535040, Note_off_c, 0, 74, 67
2, 535040, Note_on_c, 0, 77, 67
2, 535296, Control_c, 0, 93, 0
2, 535296, Note_on_c, 0, 65, 67
2, 535424, Note_off_c, 0, 65, 67
2, 535424, Note_on_c, 0, 70, 67
2, 535552, Note_off_c, 0, 70, 67
2, 535552, Note_off_c, 0, 77, 67
2, 535552, Note_on_c, 0, 67, 67
2, 535552, Note_on_c, 0, 79, 67
2, 535680, Note_off_c, 0, 67, 67
2, 535680, Note_off_c, 0, 79, 67
2, 535680, Note_on_c, 0, 68, 67
2, 535680, Note_on_c, 0, 80, 67
2, 535808, Note_off_c, 0, 68, 67
2, 535808, Note_off_c, 0, 80, 67
2, 535808, Note_on_c, 0, 70, 67
2, 535808, Note_on_c, 0, 79, 67
2, 535936, Note_off_c, 0, 70, 67
2, 535936, Note_off_c, 0, 79, 67
2, 535936, Note_on_c, 0, 72, 67
2, 535936, Note_on_c, 0, 77, 67
2, 536064, Note_off_c, 0, 72, 67
2, 536064, Note_off_c, 0, 77, 67
2, 536064, Note_on_c, 0, 70, 67
2, 536064, Note_on_c, 0, 75, 67
2, 536576, Note_off_c, 0, 70, 67
2, 536576, Note_off_c, 0, 75, 67
2, 536576, Note_on_c, 0, 75, 67
2, 536576, Note_on_c, 0, 79, 67
2, 536704, Note_off_c, 0, 75, 67
2, 536704, Note_on_c, 0, 74, 67
2, 536832, Note_off_c, 0, 74, 67
2, 536832, Note_on_c, 0, 72, 67
2, 537088, Note_off_c, 0, 72, 67
2, 537088, Note_off_c, 0, 79, 67
2, 537088, Note_on_c, 0, 70, 67
2, 537088, Note_on_c, 0, 82, 67
2, 537216, Note_off_c, 0, 70, 67
2, 537216, Note_on_c, 0, 72, 67
2, 537344, Note_off_c, 0, 72, 67
2, 537344, Note_on_c, 0, 74, 67
2, 537472, Note_off_c, 0, 74, 67
2, 537472, Note_on_c, 0, 75, 67
2, 537600, Note_off_c, 0, 75, 67
2, 537600, Note_off_c, 0, 82, 67
2, 537600, Note_on_c, 0, 77, 67
2, 537600, Note_on_c, 0, 80, 67
2, 537728, Note_off_c, 0, 77, 67
2, 537728, Note_off_c, 0, 80, 67
2, 537728, Note_on_c, 0, 75, 67
2, 537728, Note_on_c, 0, 79, 67
2, 537856, Note_off_c, 0, 75, 67
2, 537856, Note_off_c, 0, 79, 67
2, 537856, Note_on_c, 0, 74, 67
2, 537856, Note_on_c, 0, 80, 67
2, 537984, Note_off_c, 0, 80, 67
2, 537984, Note_on_c, 0, 82, 67
2, 538112, Note_off_c, 0, 74, 67
2, 538112, Note_off_c, 0, 82, 67
2, 538112, Note_on_c, 0, 72, 67
2, 538112, Note_on_c, 0, 84, 67
2, 538240, Note_off_c, 0, 72, 67
2, 538240, Note_on_c, 0, 74, 67
2, 538368, Note_off_c, 0, 74, 67
2, 538368, Note_on_c, 0, 75, 67
2, 538496, Note_off_c, 0, 75, 67
2, 538496, Note_on_c, 0, 77, 67
2, 538624, Note_off_c, 0, 77, 67
2, 538624, Note_off_c, 0, 84, 67
2, 538624, Note_on_c, 0, 74, 67
2, 538624, Note_on_c, 0, 82, 67
2, 538752, Note_off_c, 0, 74, 67
2, 538752, Note_on_c, 0, 72, 67
2, 538880, Note_off_c, 0, 72, 67
2, 538880, Note_off_c, 0, 82, 67
2, 538880, Note_on_c, 0, 70, 67
2, 538880, Note_on_c, 0, 80, 67
2, 539008, Note_off_c, 0, 80, 67
2, 539008, Note_on_c, 0, 79, 67
2, 539136, Note_off_c, 0, 70, 67
2, 539136, Note_off_c, 0, 79, 67
2, 539136, Note_on_c, 0, 68, 67
2, 539136, Note_on_c, 0, 80, 67
2, 539264, Note_off_c, 0, 68, 67
2, 539264, Note_on_c, 0, 70, 67
2, 539392, Note_off_c, 0, 70, 67
2, 539392, Note_on_c, 0, 72, 67
2, 539520, Note_off_c, 0, 72, 67
2, 539520, Note_on_c, 0, 68, 67
2, 539648, Note_off_c, 0, 68, 67
2, 539648, Note_off_c, 0, 80, 67
2, 539648, Note_on_c, 0, 70, 67
2, 539648, Note_on_c, 0, 79, 67
2, 539776, Note_off_c, 0, 70, 67
2, 539776, Note_off_c, 0, 79, 67
2, 539776, Note_on_c, 0, 68, 67
2, 539776, Note_on_c, 0, 80, 67
2, 539904, Note_off_c, 0, 68, 67
2, 539904, Note_off_c, 0, 80, 67
2, 539904, Note_on_c, 0, 67, 67
2, 539904, Note_on_c, 0, 79, 67
2, 540032, Note_off_c, 0, 67, 67
2, 540032, Note_off_c, 0, 79, 67
2, 540032, Note_on_c, 0, 65, 67
2, 540032, Note_on_c, 0, 77, 67
2, 540160, Note_off_c, 0, 65, 67
2, 540160, Note_off_c, 0, 77, 67
2, 540160, Note_on_c, 0, 63, 67
2, 540160, Note_on_c, 0, 75, 67
2, 540288, Note_off_c, 0, 63, 67
2, 540288, Note_on_c, 0, 65, 67
2, 540416, Note_off_c, 0, 65, 67
2, 540416, Note_on_c, 0, 67, 67
2, 540544, Note_off_c, 0, 67, 67
2, 540544, Note_on_c, 0, 68, 67
2, 540672, Note_off_c, 0, 68, 67
2, 540672, Note_off_c, 0, 75, 67
2, 540672, Time_signature, 4, 2, 24, 8
2, 540672, Key_signature, -3, "major"
2, 540672, Note_on_c, 0, 67, 67
2, 540672, Note_on_c, 0, 75, 67
2, 540800, Note_off_c, 0, 67, 67
2, 540800, Note_off_c, 0, 75, 67
2, 540800, Note_on_c, 0, 66, 67
2, 540800, Note_on_c, 0, 70, 67
2, 540928, Note_off_c, 0, 66, 67
2, 540928, Note_off_c, 0, 70, 67
2, 540928, Note_on_c, 0, 67, 67
2, 540928, Note_on_c, 0, 75, 67
2, 541056, Note_off_c, 0, 67, 67
2, 541056, Note_off_c, 0, 75, 67
2, 541056, Note_on_c, 0, 75, 67
2, 541056, Note_on_c, 0, 82, 67
2, 541312, Note_off_c, 0, 75, 67
2, 541312, Note_off_c, 0, 82, 67
2, 541312, Note_on_c, 0, 74, 67
2, 541312, Note_on_c, 0, 80, 67
2, 541440, Note_off_c, 0, 74, 67
2, 541440, Note_on_c, 0, 72, 67
2, 541568, Note_off_c, 0, 72, 67
2, 541568, Note_off_c, 0, 80, 67
2, 541568, Note_on_c, 0, 70, 67
2, 541568, Note_on_c, 0, 79, 67
2, 541696, Note_off_c, 0, 70, 67
2, 541696, Note_off_c, 0, 79, 67
2, 541696, Note_on_c, 0, 72, 67
2, 541696, Note_on_c, 0, 77, 67
2, 541824, Note_off_c, 0, 72, 67
2, 541824, Note_off_c, 0, 77, 67
2, 541824, Note_on_c, 0, 70, 67
2, 541824, Note_on_c, 0, 74, 67
2, 541952, Note_off_c, 0, 70, 67
2, 541952, Note_on_c, 0, 68, 67
2, 542080, Note_off_c, 0, 68, 67
2, 542080, Note_on_c, 0, 67, 67
2, 542208, Note_off_c, 0, 67, 67
2, 542208, Note_off_c, 0, 74, 67
2, 542208, Note_on_c, 0, 65, 67
2, 542208, Note_on_c, 0, 70, 67
2, 542336, Note_off_c, 0, 65, 67
2, 542336, Note_on_c, 0, 67, 67
2, 542464, Note_off_c, 0, 67, 67
2, 542464, Note_off_c, 0, 70, 67
2, 542464, Note_on_c, 0, 65, 67
2, 542464, Note_on_c, 0, 68, 67
2, 542592, Note_off_c, 0, 68, 67
2, 542592, Note_on_c, 0, 70, 67
2, 542720, Note_off_c, 0, 65, 67
2, 542720, Note_off_c, 0, 70, 67
2, 542720, Note_on_c, 0, 70, 67
2, 542720, Note_on_c, 0, 74, 67
2, 542848, Note_off_c, 0, 70, 67
2, 542848, Note_off_c, 0, 74, 67
2, 542848, Note_on_c, 0, 65, 67
2, 542848, Note_on_c, 0, 70, 67
2, 542976, Note_off_c, 0, 65, 67
2, 542976, Note_off_c, 0, 70, 67
2, 542976, Note_on_c, 0, 70, 67
2, 542976, Note_on_c, 0, 74, 67
2, 543104, Note_off_c, 0, 70, 67
2, 543104, Note_off_c, 0, 74, 67
2, 543104, Note_on_c, 0, 74, 67
2, 543104, Note_on_c, 0, 79, 67
2, 543360, Note_off_c, 0, 74, 67
2, 543360, Note_off_c, 0, 79, 67
2, 543360, Note_on_c, 0, 72, 67
2, 543360, Note_on_c, 0, 77, 67
2, 543488, Note_off_c, 0, 72, 67
2, 543488, Note_on_c, 0, 70, 67
2, 543616, Note_off_c, 0, 70, 67
2, 543616, Note_off_c, 0, 77, 67
2, 543616, Note_on_c, 0, 68, 67
2, 543616, Note_on_c, 0, 74, 67
2, 543744, Note_off_c, 0, 68, 67
2, 543744, Note_off_c, 0, 74, 67
2, 543744, Note_on_c, 0, 67, 67
2, 543744, Note_on_c, 0, 75, 67
2, 543872, Note_off_c, 0, 67, 67
2, 543872, Note_off_c, 0, 75, 67
2, 543872, Note_on_c, 0, 70, 67
2, 543872, Note_on_c, 0, 79, 67
2, 544000, Note_off_c, 0, 70, 67
2, 544000, Note_on_c, 0, 72, 67
2, 544128, Note_off_c, 0, 72, 67
2, 544128, Note_on_c, 0, 74, 67
2, 544256, Note_off_c, 0, 74, 67
2, 544256, Note_off_c, 0, 79, 67
2, 544256, Note_on_c, 0, 70, 67
2, 544256, Note_on_c, 0, 75, 67
2, 544384, Note_off_c, 0, 75, 67
2, 544384, Note_on_c, 0, 74, 67
2, 544512, Note_off_c, 0, 70, 67
2, 544512, Note_off_c, 0, 74, 67
2, 544512, Note_on_c, 0, 65, 67
2, 544512, Note_on_c, 0, 72, 67
2, 544640, Note_off_c, 0, 72, 67
2, 544640, Note_on_c, 0, 70, 67
2, 544768, Note_off_c, 0, 65, 67
2, 544768, Note_off_c, 0, 70, 67
2, 544768, Note_on_c, 0, 67, 67
2, 544768, Note_on_c, 0, 75, 67
2, 544896, Note_off_c, 0, 67, 67
2, 544896, Note_off_c, 0, 75, 67
2, 544896, Note_on_c, 0, 66, 67
2, 544896, Note_on_c, 0, 70, 67
2, 545024, Note_off_c, 0, 66, 67
2, 545024, Note_off_c, 0, 70, 67
2, 545024, Note_on_c, 0, 67, 67
2, 545024, Note_on_c, 0, 75, 67
2, 545152, Note_off_c, 0, 67, 67
2, 545152, Note_off_c, 0, 75, 67
2, 545152, Note_on_c, 0, 75, 67
2, 545152, Note_on_c, 0, 82, 67
2, 545408, Note_off_c, 0, 75, 67
2, 545408, Note_off_c, 0, 82, 67
2, 545408, Note_on_c, 0, 74, 67
2, 545408, Note_on_c, 0, 80, 67
2, 545536, Note_off_c, 0, 74, 67
2, 545536, Note_on_c, 0, 72, 67
2, 545664, Note_off_c, 0, 72, 67
2, 545664, Note_off_c, 0, 80, 67
2, 545664, Note_on_c, 0, 70, 67
2, 545664, Note_on_c, 0, 79, 67
2, 545792, Note_off_c, 0, 70, 67
2, 545792, Note_off_c, 0, 79, 67
2, 545792, Note_on_c, 0, 72, 67
2, 545792, Note_on_c, 0, 77, 67
2, 545920, Note_off_c, 0, 72, 67
2, 545920, Note_off_c, 0, 77, 67
2, 545920, Note_on_c, 0, 70, 67
2, 545920, Note_on_c, 0, 74, 67
2, 546048, Note_off_c, 0, 70, 67
2, 546048, Note_on_c, 0, 68, 67
2, 546176, Note_off_c, 0, 68, 67
2, 546176, Note_on_c, 0, 67, 67
2, 546304, Note_off_c, 0, 67, 67
2, 546304, Note_off_c, 0, 74, 67
2, 546304, Note_on_c, 0, 65, 67
2, 546304, Note_on_c, 0, 70, 67
2, 546432, Note_off_c, 0, 65, 67
2, 546432, Note_on_c, 0, 67, 67
2, 546560, Note_off_c, 0, 67, 67
2, 546560, Note_off_c, 0, 70, 67
2, 546560, Note_on_c, 0, 65, 67
2, 546560, Note_on_c, 0, 68, 67
2, 546688, Note_off_c, 0, 68, 67
2, 546688, Note_on_c, 0, 70, 67
2, 546816, Note_off_c, 0, 65, 67
2, 546816, Note_off_c, 0, 70, 67
2, 546816, Note_on_c, 0, 70, 67
2, 546816, Note_on_c, 0, 74, 67
2, 546944, Note_off_c, 0, 70, 67
2, 546944, Note_off_c, 0, 74, 67
2, 546944, Note_on_c, 0, 65, 67
2, 546944, Note_on_c, 0, 70, 67
2, 547072, Note_off_c, 0, 65, 67
2, 547072, Note_off_c, 0, 70, 67
2, 547072, Note_on_c, 0, 70, 67
2, 547072, Note_on_c, 0, 74, 67
2, 547200, Note_off_c, 0, 70, 67
2, 547200, Note_off_c, 0, 74, 67
2, 547200, Note_on_c, 0, 74, 67
2, 547200, Note_on_c, 0, 79, 67
2, 547456, Note_off_c, 0, 74, 67
2, 547456, Note_off_c, 0, 79, 67
2, 547456, Note_on_c, 0, 72, 67
2, 547456, Note_on_c, 0, 77, 67
2, 547584, Note_off_c, 0, 72, 67
2, 547584, Note_on_c, 0, 70, 67
2, 547712, Note_off_c, 0, 70, 67
2, 547712, Note_off_c, 0, 77, 67
2, 547712, Note_on_c, 0, 68, 67
2, 547712, Note_on_c, 0, 74, 67
2, 547840, Note_off_c, 0, 68, 67
2, 547840, Note_off_c, 0, 74, 67
2, 547840, Note_on_c, 0, 67, 67
2, 547840, Note_on_c, 0, 75, 67
2, 547968, Note_off_c, 0, 67, 67
2, 547968, Note_on_c, 0, 65, 67
2, 548096, Note_off_c, 0, 65, 67
2, 548096, Note_on_c, 0, 63, 67
2, 548224, Note_off_c, 0, 63, 67
2, 548224, Note_on_c, 0, 65, 67
2, 548352, Note_off_c, 0, 65, 67
2, 548352, Note_off_c, 0, 75, 67
2, 548352, Note_on_c, 0, 63, 67
2, 548352, Note_on_c, 0, 67, 67
2, 548480, Note_off_c, 0, 67, 67
2, 548480, Note_on_c, 0, 68, 67
2, 548608, Note_off_c, 0, 63, 67
2, 548608, Note_off_c, 0, 68, 67
2, 548608, Note_on_c, 0, 65, 67
2, 548608, Note_on_c, 0, 70, 67
2, 548736, Note_off_c, 0, 70, 67
2, 548736, Note_on_c, 0, 72, 67
2, 548864, Note_off_c, 0, 65, 67
2, 548864, Note_off_c, 0, 72, 67
2, 548864, Note_on_c, 0, 79, 67
2, 549376, Note_off_c, 0, 79, 67
2, 549376, Note_on_c, 0, 82, 67
2, 549632, Control_c, 0, 93, 0
2, 549632, Note_on_c, 0, 68, 67
2, 549760, Note_off_c, 0, 68, 67
2, 549760, Note_on_c, 0, 70, 67
2, 549888, Note_off_c, 0, 70, 67
2, 549888, Note_off_c, 0, 82, 67
2, 549888, Note_on_c, 0, 72, 67
2, 549888, Note_on_c, 0, 80, 67
2, 550016, Note_off_c, 0, 72, 67
2, 550016, Note_off_c, 0, 80, 67
2, 550016, Note_on_c, 0, 70, 67
2, 550016, Note_on_c, 0, 82, 67
2, 550144, Note_off_c, 0, 70, 67
2, 550144, Note_off_c, 0, 82, 67
2, 550144, Note_on_c, 0, 68, 67
2, 550144, Note_on_c, 0, 80, 67
2, 550272, Note_off_c, 0, 80, 67
2, 550272, Note_on_c, 0, 79, 67
2, 550400, Note_off_c, 0, 68, 67
2, 550400, Note_off_c, 0, 79, 67
2, 550400, Note_on_c, 0, 65, 67
2, 550400, Note_on_c, 0, 77, 67
2, 550528, Note_off_c, 0, 65, 67
2, 550528, Note_on_c, 0, 67, 67
2, 550656, Note_off_c, 0, 67, 67
2, 550656, Note_on_c, 0, 68, 67
2, 550784, Note_off_c, 0, 68, 67
2, 550784, Note_on_c, 0, 70, 67
2, 550912, Note_off_c, 0, 70, 67
2, 550912, Note_off_c, 0, 77, 67
2, 550912, Note_on_c, 0, 68, 67
2, 550912, Note_on_c, 0, 74, 67
2, 551040, Note_off_c, 0, 68, 67
2, 551040, Note_on_c, 0, 67, 67
2, 551168, Note_off_c, 0, 67, 67
2, 551168, Note_on_c, 0, 65, 67
2, 551424, Note_off_c, 0, 65, 67
2, 551424, Note_off_c, 0, 74, 67
2, 551424, Note_on_c, 0, 77, 67
2, 551680, Control_c, 0, 93, 0
2, 551680, Note_on_c, 0, 65, 67
2, 551808, Note_off_c, 0, 65, 67
2, 551808, Note_on_c, 0, 70, 67
2, 551936, Note_off_c, 0, 70, 67
2, 551936, Note_off_c, 0, 77, 67
2, 551936, Note_on_c, 0, 67, 67
2, 551936, Note_on_c, 0, 79, 67
2, 552064, Note_off_c, 0, 67, 67
2, 552064, Note_off_c, 0, 79, 67
2, 552064, Note_on_c, 0, 68, 67
2, 552064, Note_on_c, 0, 80, 67
2, 552192, Note_off_c, 0, 68, 67
2, 552192, Note_off_c, 0, 80, 67
2, 552192, Note_on_c, 0, 70, 67
2, 552192, Note_on_c, 0, 79, 67
2, 552320, Note_off_c, 0, 70, 67
2, 552320, Note_off_c, 0, 79, 67
2, 552320, Note_on_c, 0, 72, 67
2, 552320, Note_on_c, 0, 77, 67
2, 552448, Note_off_c, 0, 72, 67
2, 552448, Note_off_c, 0, 77, 67
2, 552448, Note_on_c, 0, 70, 67
2, 552448, Note_on_c, 0, 75, 67
2, 552960, Note_off_c, 0, 70, 67
2, 552960, Note_off_c, 0, 75, 67
2, 552960, Note_on_c, 0, 75, 67
2, 552960, Note_on_c, 0, 79, 67
2, 553088, Note_off_c, 0, 75, 67
2, 553088, Note_on_c, 0, 74, 67
2, 553216, Note_off_c, 0, 74, 67
2, 553216, Note_on_c, 0, 72, 67
2, 553472, Note_off_c, 0, 72, 67
2, 553472, Note_off_c, 0, 79, 67
2, 553472, Note_on_c, 0, 70, 67
2, 553472, Note_on_c, 0, 82, 67
2, 553600, Note_off_c, 0, 70, 67
2, 553600, Note_on_c, 0, 72, 67
2, 553728, Note_off_c, 0, 72, 67
2, 553728, Note_on_c, 0, 74, 67
2, 553856, Note_off_c, 0, 74, 67
2, 553856, Note_on_c, 0, 75, 67
2, 553984, Note_off_c, 0, 75, 67
2, 553984, Note_off_c, 0, 82, 67
2, 553984, Note_on_c, 0, 77, 67
2, 553984, Note_on_c, 0, 80, 67
2, 554112, Note_off_c, 0, 77, 67
2, 554112, Note_off_c, 0, 80, 67
2, 554112, Note_on_c, 0, 75, 67
2, 554112, Note_on_c, 0, 79, 67
2, 554240, Note_off_c, 0, 75, 67
2, 554240, Note_off_c, 0, 79, 67
2, 554240, Note_on_c, 0, 74, 67
2, 554240, Note_on_c, 0, 80, 67
2, 554368, Note_off_c, 0, 80, 67
2, 554368, Note_on_c, 0, 82, 67
2, 554496, Note_off_c, 0, 74, 67
2, 554496, Note_off_c, 0, 82, 67
2, 554496, Note_on_c, 0, 72, 67
2, 554496, Note_on_c, 0, 84, 67
2, 554624, Note_off_c, 0, 72, 67
2, 554624, Note_on_c, 0, 74, 67
2, 554752, Note_off_c, 0, 74, 67
2, 554752, Note_on_c, 0, 75, 67
2, 554880, Note_off_c, 0, 75, 67
2, 554880, Note_on_c, 0, 77, 67
2, 555008, Note_off_c, 0, 77, 67
2, 555008, Note_off_c, 0, 84, 67
2, 555008, Note_on_c, 0, 74, 67
2, 555008, Note_on_c, 0, 82, 67
2, 555136, Note_off_c, 0, 74, 67
2, 555136, Note_on_c, 0, 72, 67
2, 555264, Note_off_c, 0, 72, 67
2, 555264, Note_off_c, 0, 82, 67
2, 555264, Note_on_c, 0, 70, 67
2, 555264, Note_on_c, 0, 80, 67
2, 555392, Note_off_c, 0, 80, 67
2, 555392, Note_on_c, 0, 79, 67
2, 555520, Note_off_c, 0, 70, 67
2, 555520, Note_off_c, 0, 79, 67
2, 555520, Note_on_c, 0, 68, 67
2, 555520, Note_on_c, 0, 80, 67
2, 555648, Note_off_c, 0, 68, 67
2, 555648, Note_on_c, 0, 70, 67
2, 555776, Note_off_c, 0, 70, 67
2, 555776, Note_on_c, 0, 72, 67
2, 555904, Note_off_c, 0, 72, 67
2, 555904, Note_on_c, 0, 68, 67
2, 556032, Note_off_c, 0, 68, 67
2, 556032, Note_off_c, 0, 80, 67
2, 556032, Note_on_c, 0, 70, 67
2, 556032, Note_on_c, 0, 79, 67
2, 556160, Note_off_c, 0, 70, 67
2, 556160, Note_off_c, 0, 79, 67
2, 556160, Note_on_c, 0, 68, 67
2, 556160, Note_on_c, 0, 80, 67
2, 556288, Note_off_c, 0, 68, 67
2, 556288, Note_off_c, 0, 80, 67
2, 556288, Note_on_c, 0, 67, 67
2, 556288, Note_on_c, 0, 79, 67
2, 556416, Note_off_c, 0, 67, 67
2, 556416, Note_off_c, 0, 79, 67
2, 556416, Note_on_c, 0, 65, 67
2, 556416, Note_on_c, 0, 77, 67
2, 556544, Note_off_c, 0, 65, 67
2, 556544, Note_off_c, 0, 77, 67
2, 556544, Note_on_c, 0, 63, 67
2, 556544, Note_on_c, 0, 75, 67
2, 556672, Note_off_c, 0, 63, 67
2, 556672, Note_on_c, 0, 65, 67
2, 556800, Note_off_c, 0, 65, 67
2, 556800, Note_on_c, 0, 67, 67
2, 556928, Note_off_c, 0, 67, 67
2, 556928, Note_on_c, 0, 68, 67
2, 557056, Note_off_c, 0, 68, 67
2, 557056, Note_off_c, 0, 75, 67
2, 557056, Time_signature, 4, 2, 24, 8
2, 557056, Key_signature, -3, "major"
2, 557056, Note_on_c, 0, 67, 67
2, 557056, Note_on_c, 0, 75, 67
2, 557184, Note_off_c, 0, 67, 67
2, 557184, Note_off_c, 0, 75, 67
2, 557184, Note_on_c, 0, 66, 67
2, 557184, Note_on_c, 0, 70, 67
2, 557312, Note_off_c, 0, 66, 67
2, 557312, Note_off_c, 0, 70, 67
2, 557312, Note_on_c, 0, 67, 67
2, 557312, Note_on_c, 0, 75, 67
2, 557440, Note_off_c, 0, 67, 67
2, 557440, Note_off_c, 0, 75, 67
2, 557440, Note_on_c, 0, 75, 67
2, 557440, Note_on_c, 0, 82, 67
2, 557696, Note_off_c, 0, 75, 67
2, 557696, Note_off_c, 0, 82, 67
2, 557696, Note_on_c, 0, 74, 67
2, 557696, Note_on_c, 0, 80, 67
2, 557824, Note_off_c, 0, 74, 67
2, 557824, Note_on_c, 0, 72, 67
2, 557952, Note_off_c, 0, 72, 67
2, 557952, Note_off_c, 0, 80, 67
2, 557952, Note_on_c, 0, 70, 67
2, 557952, Note_on_c, 0, 79, 67
2, 558080, Note_off_c, 0, 70, 67
2, 558080, Note_off_c, 0, 79, 67
2, 558080, Note_on_c, 0, 72, 67
2, 558080, Note_on_c, 0, 77, 67
2, 558208, Note_off_c, 0, 72, 67
2, 558208, Note_off_c, 0, 77, 67
2, 558208, Note_on_c, 0, 70, 67
2, 558208, Note_on_c, 0, 74, 67
2, 558336, Note_off_c, 0, 70, 67
2, 558336, Note_on_c, 0, 68, 67
2, 558464, Note_off_c, 0, 68, 67
2, 558464, Note_on_c, 0, 67, 67
2, 558592, Note_off_c, 0, 67, 67
2, 558592, Note_off_c, 0, 74, 67
2, 558592, Note_on_c, 0, 65, 67
2, 558592, Note_on_c, 0, 70, 67
2, 558720, Note_off_c, 0, 65, 67
2, 558720, Note_on_c, 0, 67, 67
2, 558848, Note_off_c, 0, 67, 67
2, 558848, Note_off_c, 0, 70, 67
2, 558848, Note_on_c, 0, 65, 67
2, 558848, Note_on_c, 0, 68, 67
2, 558976, Note_off_c, 0, 68, 67
2, 558976, Note_on_c, 0, 70, 67
2, 559104, Note_off_c, 0, 65, 67
2, 559104, Note_off_c, 0, 70, 67
2, 559104, Note_on_c, 0, 70, 67
2, 559104, Note_on_c, 0, 74, 67
2, 559232, Note_off_c, 0, 70, 67
2, 559232, Note_off_c, 0, 74, 67
2, 559232, Note_on_c, 0, 65, 67
2, 559232, Note_on_c, 0, 70, 67
2, 559360, Note_off_c, 0, 65, 67
2, 559360, Note_off_c, 0, 70, 67
2, 559360, Note_on_c, 0, 70, 67
2, 559360, Note_on_c, 0, 74, 67
2, 559488, Note_off_c, 0, 70, 67
2, 559488, Note_off_c, 0, 74, 67
2, 559488, Note_on_c, 0, 74, 67
2, 559488, Note_on_c, 0, 79, 67
2, 559744, Note_off_c, 0, 74, 67
2, 559744, Note_off_c, 0, 79, 67
2, 559744, Note_on_c, 0, 72, 67
2, 559744, Note_on_c, 0, 77, 67
2, 559872, Note_off_c, 0, 72, 67
2, 559872, Note_on_c, 0, 70, 67
2, 560000, Note_off_c, 0, 70, 67
2, 560000, Note_off_c, 0, 77, 67
2, 560000, Note_on_c, 0, 68, 67
2, 560000, Note_on_c, 0, 74, 67
2, 560128, Note_off_c, 0, 68, 67
2, 560128, Note_off_c, 0, 74, 67
2, 560128, Note_on_c, 0, 67, 67
2, 560128, Note_on_c, 0, 75, 67
2, 560256, Note_off_c, 0, 67, 67
2, 560256, Note_off_c, 0, 75, 67
2, 560256, Note_on_c, 0, 70, 67
2, 560256, Note_on_c, 0, 79, 67
2, 560384, Note_off_c, 0, 70, 67
2, 560384, Note_on_c, 0, 72, 67
2, 560512, Note_off_c, 0, 72, 67
2, 560512, Note_on_c, 0, 74, 67
2, 560640, Note_off_c, 0, 74, 67
2, 560640, Note_off_c, 0, 79, 67
2, 560640, Note_on_c, 0, 70, 67
2, 560640, Note_on_c, 0, 75, 67
2, 560768, Note_off_c, 0, 75, 67
2, 560768, Note_on_c, 0, 74, 67
2, 560896, Note_off_c, 0, 70, 67
2, 560896, Note_off_c, 0, 74, 67
2, 560896, Note_on_c, 0, 65, 67
2, 560896, Note_on_c, 0, 72, 67
2, 561024, Note_off_c, 0, 72, 67
2, 561024, Note_on_c, 0, 70, 67
2, 561152, Note_off_c, 0, 65, 67
2, 561152, Note_off_c, 0, 70, 67
2, 561152, Note_on_c, 0, 67, 67
2, 561152, Note_on_c, 0, 75, 67
2, 561280, Note_off_c, 0, 67, 67
2, 561280, Note_off_c, 0, 75, 67
2, 561280, Note_on_c, 0, 66, 67
2, 561280, Note_on_c, 0, 70, 67
2, 561408, Note_off_c, 0, 66, 67
2, 561408, Note_off_c, 0, 70, 67
2, 561408, Note_on_c, 0, 67, 67
2, 561408, Note_on_c, 0, 75, 67
2, 561536, Note_off_c, 0, 67, 67
2, 561536, Note_off_c, 0, 75, 67
2, 561536, Note_on_c, 0, 75, 67
2, 561536, Note_on_c, 0, 82, 67
2, 561792, Note_off_c, 0, 75, 67
2, 561792, Note_off_c, 0, 82, 67
2, 561792, Note_on_c, 0, 74, 67
2, 561792, Note_on_c, 0, 80, 67
2, 561920, Note_off_c, 0, 74, 67
2, 561920, Note_on_c, 0, 72, 67
2, 562048, Note_off_c, 0, 72, 67
2, 562048, Note_off_c, 0, 80, 67
2, 562048, Note_on_c, 0, 70, 67
2, 562048, Note_on_c, 0, 79, 67
2, 562176, Note_off_c, 0, 70, 67
2, 562176, Note_off_c, 0, 79, 67
2, 562176, Note_on_c, 0, 72, 67
2, 562176, Note_on_c, 0, 77, 67
2, 562304, Note_off_c, 0, 72, 67
2, 562304, Note_off_c, 0, 77, 67
2, 562304, Note_on_c, 0, 70, 67
2, 562304, Note_on_c, 0, 74, 67
2, 562432, Note_off_c, 0, 70, 67
2, 562432, Note_on_c, 0, 68, 67
2, 562560, Note_off_c, 0, 68, 67
2, 562560, Note_on_c, 0, 67, 67
2, 562688, Note_off_c, 0, 67, 67
2, 562688, Note_off_c, 0, 74, 67
2, 562688, Note_on_c, 0, 65, 67
2, 562688, Note_on_c, 0, 70, 67
2, 562816, Note_off_c, 0, 65, 67
2, 562816, Note_on_c, 0, 67, 67
2, 562944, Note_off_c, 0, 67, 67
2, 562944, Note_off_c, 0, 70, 67
2, 562944, Note_on_c, 0, 65, 67
2, 562944, Note_on_c, 0, 68, 67
2, 563072, Note_off_c, 0, 68, 67
2, 563072, Note_on_c, 0, 70, 67
2, 563200, Note_off_c, 0, 65, 67
2, 563200, Note_off_c, 0, 70, 67
2, 563200, Note_on_c, 0, 70, 67
2, 563200, Note_on_c, 0, 74, 67
2, 563328, Note_off_c, 0, 70, 67
2, 563328, Note_off_c, 0, 74, 67
2, 563328, Note_on_c, 0, 65, 67
2, 563328, Note_on_c, 0, 70, 67
2, 563456, Note_off_c, 0, 65, 67
2, 563456, Note_off_c, 0, 70, 67
2, 563456, Note_on_c, 0, 70, 67
2, 563456, Note_on_c, 0, 74, 67
2, 563584, Note_off_c, 0, 70, 67
2, 563584, Note_off_c, 0, 74, 67
2, 563584, Note_on_c, 0, 74, 67
2, 563584, Note_on_c, 0, 79, 67
2, 563840, Note_off_c, 0, 74, 67
2, 563840, Note_off_c, 0, 79, 67
2, 563840, Note_on_c, 0, 72, 67
2, 563840, Note_on_c, 0, 77, 67
2, 563968, Note_off_c, 0, 72, 67
2, 563968, Note_on_c, 0, 70, 67
2, 564096, Note_off_c, 0, 70, 67
2, 564096, Note_off_c, 0, 77, 67
2, 564096, Note_on_c, 0, 68, 67
2, 564096, Note_on_c, 0, 74, 67
2, 564224, Note_off_c, 0, 68, 67
2, 564224, Note_off_c, 0, 74, 67
2, 564224, Note_on_c, 0, 67, 67
2, 564224, Note_on_c, 0, 75, 67
2, 564352, Note_off_c, 0, 67, 67
2, 564352, Note_on_c, 0, 65, 67
2, 564480, Note_off_c, 0, 65, 67
2, 564480, Note_on_c, 0, 63, 67
2, 564608, Note_off_c, 0, 63, 67
2, 564608, Note_on_c, 0, 65, 67
2, 564736, Note_off_c, 0, 65, 67
2, 564736, Note_off_c, 0, 75, 67
2, 564736, Note_on_c, 0, 63, 67
2, 564736, Note_on_c, 0, 67, 67
2, 564864, Note_off_c, 0, 67, 67
2, 564864, Note_on_c, 0, 68, 67
2, 564992, Note_off_c, 0, 63, 67
2, 564992, Note_off_c, 0, 68, 67
2, 564992, Note_on_c, 0, 65, 67
2, 564992, Note_on_c, 0, 70, 67
2, 565120, Note_off_c, 0, 70, 67
2, 565120, Note_on_c, 0, 72, 67
2, 565248, Note_off_c, 0, 65, 67
2, 565248, Note_off_c, 0, 72, 67
2, 565248, Note_on_c, 0, 79, 67
2, 565760, Note_off_c, 0, 79, 67
2, 565760, Note_on_c, 0, 82, 67
2, 566016, Control_c, 0, 93, 0
2, 566016, Note_on_c, 0, 68, 67
2, 566144, Note_off_c, 0, 68, 67
2, 566144, Note_on_c, 0, 70, 67
2, 566272, Note_off_c, 0, 70, 67
2, 566272, Note_off_c, 0, 82, 67
2, 566272, Note_on_c, 0, 72, 67
2, 566272, Note_on_c, 0, 80, 67
2, 566400, Note_off_c, 0, 72, 67
2, 566400, Note_off_c, 0, 80, 67
2, 566400, Note_on_c, 0, 70, 67
2, 566400, Note_on_c, 0, 82, 67
2, 566528, Note_off_c, 0, 70, 67
2, 566528, Note_off_c, 0, 82, 67
2, 566528, Note_on_c, 0, 68, 67
2, 566528, Note_on_c, 0, 80, 67
2, 566656, Note_off_c, 0, 80, 67
2, 566656, Note_on_c, 0, 79, 67
2, 566784, Note_off_c, 0, 68, 67
2, 566784, Note_off_c, 0, 79, 67
2, 566784, Note_on_c, 0, 65, 67
2, 566784, Note_on_c, 0, 77, 67
2, 566912, Note_off_c, 0, 65, 67
2, 566912, Note_on_c, 0, 67, 67
2, 567040, Note_off_c, 0, 67, 67
2, 567040, Note_on_c, 0, 68, 67
2, 567168, Note_off_c, 0, 68, 67
2, 567168, Note_on_c, 0, 70, 67
2, 567296, Note_off_c, 0, 70, 67
2, 567296, Note_off_c, 0, 77, 67
2, 567296, Note_on_c, 0, 68, 67
2, 567296, Note_on_c, 0, 74, 67
2, 567424, Note_off_c, 0, 68, 67
2, 567424, Note_on_c, 0, 67, 67
2, 567552, Note_off_c, 0, 67, 67
2, 567552, Note_on_c, 0, 65, 67
2, 567808, Note_off_c, 0, 65, 67
2, 567808, Note_off_c, 0, 74, 67
2, 567808, Note_on_c, 0, 77, 67
2, 568064, Control_c, 0, 93, 0
2, 568064, Note_on_c, 0, 65, 67
2, 568192, Note_off_c, 0, 65, 67
2, 568192, Note_on_c, 0, 70, 67
2, 568320, Note_off_c, 0, 70, 67
2, 568320, Note_off_c, 0, 77, 67
2, 568320, Note_on_c, 0, 67, 67
2, 568320, Note_on_c, 0, 79, 67
2, 568448, Note_off_c, 0, 67, 67
2, 568448, Note_off_c, 0, 79, 67
2, 568448, Note_on_c, 0, 68, 67
2, 568448, Note_on_c, 0, 80, 67
2, 568576, Note_off_c, 0, 68, 67
2, 568576, Note_off_c, 0, 80, 67
2, 568576, Note_on_c, 0, 70, 67
2, 568576, Note_on_c, 0, 79, 67
2, 568704, Note_off_c, 0, 70, 67
2, 568704, Note_off_c, 0, 79, 67
2, 568704, Note_on_c, 0, 72, 67
2, 568704, Note_on_c, 0, 77, 67
2, 568832, Note_off_c, 0, 72, 67
2, 568832, Note_off_c, 0, 77, 67
2, 568832, Note_on_c, 0, 70, 67
2, 568832, Note_on_c, 0, 75, 67
2, 569344, Note_off_c, 0, 70, 67
2, 569344, Note_off_c, 0, 75, 67
2, 569344, Note_on_c, 0, 75, 67
2, 569344, Note_on_c, 0, 79, 67
2, 569472, Note_off_c, 0, 75, 67
2, 569472, Note_on_c, 0, 74, 67
2, 569600, Note_off_c, 0, 74, 67
2, 569600, Note_on_c, 0, 72, 67
2, 569856, Note_off_c, 0, 72, 67
2, 569856, Note_off_c, 0, 79, 67
2, 569856, Note_on_c, 0, 70, 67
2, 569856, Note_on_c, 0, 82, 67
2, 569984, Note_off_c, 0, 70, 67
2, 569984, Note_on_c, 0, 72, 67
2, 570112, Note_off_c, 0, 72, 67
2, 570112, Note_on_c, 0, 74, 67
2, 570240, Note_off_c, 0, 74, 67
2, 570240, Note_on_c, 0, 75, 67
2, 570368, Note_off_c, 0, 75, 67
2, 570368, Note_off_c, 0, 82, 67
2, 570368, Note_on_c, 0, 77, 67
2, 570368, Note_on_c, 0, 80, 67
2, 570496, Note_off_c, 0, 77, 67
2, 570496, Note_off_c, 0, 80, 67
2, 570496, Note_on_c, 0, 75, 67
2, 570496, Note_on_c, 0, 79, 67
2, 570624, Note_off_c, 0, 75, 67
2, 570624, Note_off_c, 0, 79, 67
2, 570624, Note_on_c, 0, 74, 67
2, 570624, Note_on_c, 0, 80, 67
2, 570752, Note_off_c, 0, 80, 67
2, 570752, Note_on_c, 0, 82, 67
2, 570880, Note_off_c, 0, 74, 67
2, 570880, Note_off_c, 0, 82, 67
2, 570880, Note_on_c, 0, 72, 67
2, 570880, Note_on_c, 0, 84, 67
2, 571008, Note_off_c, 0, 72, 67
2, 571008, Note_on_c, 0, 74, 67
2, 571136, Note_off_c, 0, 74, 67
2, 571136, Note_on_c, 0, 75, 67
2, 571264, Note_off_c, 0, 75, 67
2, 571264, Note_on_c, 0, 77, 67
2, 571392, Note_off_c, 0, 77, 67
2, 571392, Note_off_c, 0, 84, 67
2, 571392, Note_on_c, 0, 74, 67
2, 571392, Note_on_c, 0, 82, 67
2, 571520, Note_off_c, 0, 74, 67
2, 571520, Note_on_c, 0, 72, 67
2, 571648, Note_off_c, 0, 72, 67
2, 571648, Note_off_c, 0, 82, 67
2, 571648, Note_on_c, 0, 70, 67
2, 571648, Note_on_c, 0, 80, 67
2, 571776, Note_off_c, 0, 80, 67
2, 571776, Note_on_c, 0, 79, 67
2, 571904, Note_off_c, 0, 70, 67
2, 571904, Note_off_c, 0, 79, 67
2, 571904, Note_on_c, 0, 68, 67
2, 571904, Note_on_c, 0, 80, 67
2, 572032, Note_off_c, 0, 68, 67
2, 572032, Note_on_c, 0, 70, 67
2, 572160, Note_off_c, 0, 70, 67
2, 572160, Note_on_c, 0, 72, 67
2, 572288, Note_off_c, 0, 72, 67
2, 572288, Note_on_c, 0, 68, 67
2, 572416, Note_off_c, 0, 68, 67
2, 572416, Note_off_c, 0, 80, 67
2, 572416, Note_on_c, 0, 70, 67
2, 572416, Note_on_c, 0, 79, 67
2, 572544, Note_off_c, 0, 70, 67
2, 572544, Note_off_c, 0, 79, 67
2, 572544, Note_on_c, 0, 68, 67
2, 572544, Note_on_c, 0, 80, 67
2, 572672, Note_off_c, 0, 68, 67
2, 572672, Note_off_c, 0, 80, 67
2, 572672, Note_on_c, 0, 67, 67
2, 572672, Note_on_c, 0, 79, 67
2, 572800, Note_off_c, 0, 67, 67
2, 572800, Note_off_c, 0, 79, 67
2, 572800, Note_on_c, 0, 65, 67
2, 572800, Note_on_c, 0, 77, 67
2, 572928, Note_off_c, 0, 65, 67
2, 572928, Note_off_c, 0, 77, 67
2, 572928, Note_on_c, 0, 63, 67
2, 572928, Note_on_c, 0, 75, 67
2, 573056, Note_off_c, 0, 63, 67
2, 573056, Note_on_c, 0, 65, 67
2, 573184, Note_off_c, 0, 65, 67
2, 573184, Note_on_c, 0, 67, 67
2, 573312, Note_off_c, 0, 67, 67
2, 573312, Note_on_c, 0, 68, 67
2, 573440, Note_off_c, 0, 68, 67
2, 573440, Note_off_c, 0, 75, 67
2, 573440, Time_signature, 4, 2, 24, 8
2, 573440, Key_signature, -3, "major"
2, 573440, Note_on_c, 0, 67, 67
2, 573440, Note_on_c, 0, 75, 67
2, 573568, Note_off_c, 0, 67, 67
2, 573568, Note_off_c, 0, 75, 67
2, 573568, Note_on_c, 0, 66, 67
2, 573568, Note_on_c, 0, 70, 67
2, 573696, Note_off_c, 0, 66, 67
2, 573696, Note_off_c, 0, 70, 67
2, 573696, Note_on_c, 0, 67, 67
2, 573696, Note_on_c, 0, 75, 67
2, 573824, Note_off_c, 0, 67, 67
2, 573824, Note_off_c, 0, 75, 67
2, 573824, Note_on_c, 0, 75, 67
2, 573824, Note_on_c, 0, 82, 67
2, 574080, Note_off_c, 0, 75, 67
2, 574080, Note_off_c, 0, 82, 67
2, 574080, Note_on_c, 0, 74, 67
2, 574080, Note_on_c, 0, 80, 67
2, 574208, Note_off_c, 0, 74, 67
2, 574208, Note_on_c, 0, 72, 67
2, 574336, Note_off_c, 0, 72, 67
2, 574336, Note_off_c, 0, 80, 67
2, 574336, Note_on_c, 0, 70, 67
2, 574336, Note_on_c, 0, 79, 67
2, 574464, Note_off_c, 0, 70, 67
2, 574464, Note_off_c, 0, 79, 67
2, 574464, Note_on_c, 0, 72, 67
2, 574464, Note_on_c, 0, 77, 67
2, 574592, Note_off_c, 0, 72, 67
2, 574592, Note_off_c, 0, 77, 67
2, 574592, Note_on_c, 0, 70, 67
2, 574592, Note_on_c, 0, 74, 67
2, 574720, Note_off_c, 0, 70, 67
2, 574720, Note_on_c, 0, 68, 67
2, 574848, Note_off_c, 0, 68, 67
2, 574848, Note_on_c, 0, 67, 67
2, 574976, Note_off_c, 0, 67, 67
2, 574976, Note_off_c, 0, 74, 67
2, 574976, Note_on_c, 0, 65, 67
2, 574976, Note_on_c, 0, 70, 67
2, 575104, Note_off_c, 0, 65, 67
2, 575104, Note_on_c, 0, 67, 67
2, 575232, Note_off_c, 0, 67, 67
2, 575232, Note_off_c, 0, 70, 67
2, 575232, Note_on_c, 0, 65, 67
2, 575232, Note_on_c, 0, 68, 67
2, 575360, Note_off_c, 0, 68, 67
2, 575360, Note_on_c, 0, 70, 67
2, 575488, Note_off_c, 0, 65, 67
2, 575488, Note_off_c, 0, 70, 67
2, 575488, Note_on_c, 0, 70, 67
2, 575488, Note_on_c, 0, 74, 67
2, 575616, Note_off_c, 0, 70, 67
2, 575616, Note_off_c, 0, 74, 67
2, 575616, Note_on_c, 0, 65, 67
2, 575616, Note_on_c, 0, 70, 67
2, 575744, Note_off_c, 0, 65, 67
2, 575744, Note_off_c, 0, 70, 67
2, 575744, Note_on_c, 0, 70, 67
2, 575744, Note_on_c, 0, 74, 67
2, 575872, Note_off_c, 0, 70, 67
2, 575872, Note_off_c, 0, 74, 67
2, 575872, Note_on_c, 0, 74, 67
2, 575872, Note_on_c, 0, 79, 67
2, 576128, Note_off_c, 0, 74, 67
2, 576128, Note_off_c, 0, 79, 67
2, 576128, Note_on_c, 0, 72, 67
2, 576128, Note_on_c, 0, 77, 67
2, 576256, Note_off_c, 0, 72, 67
2, 576256, Note_on_c, 0, 70, 67
2, 576384, Note_off_c, 0, 70, 67
2, 576384, Note_off_c, 0, 77, 67
2, 576384, Note_on_c, 0, 68, 67
2, 576384, Note_on_c, 0, 74, 67
2, 576512, Note_off_c, 0, 68, 67
2, 576512, Note_off_c, 0, 74, 67
2, 576512, Note_on_c, 0, 67, 67
2, 576512, Note_on_c, 0, 75, 67
2, 576640, Note_off_c, 0, 67, 67
2, 576640, Note_off_c, 0, 75, 67
2, 576640, Note_on_c, 0, 70, 67
2, 576640, Note_on_c, 0, 79, 67
2, 576768, Note_off_c, 0, 70, 67
2, 576768, Note_on_c, 0, 72, 67
2, 576896, Note_off_c, 0, 72, 67
2, 576896, Note_on_c, 0, 74, 67
2, 577024, Note_off_c, 0, 74, 67
2, 577024, Note_off_c, 0, 79, 67
2, 577024, Note_on_c, 0, 70, 67
2, 577024, Note_on_c, 0, 75, 67
2, 577152, Note_off_c, 0, 75, 67
2, 577152, Note_on_c, 0, 74, 67
2, 577280, Note_off_c, 0, 70, 67
2, 577280, Note_off_c, 0, 74, 67
2, 577280, Note_on_c, 0, 65, 67
2, 577280, Note_on_c, 0, 72, 67
2, 577408, Note_off_c, 0, 72, 67
2, 577408, Note_on_c, 0, 70, 67
2, 577536, Note_off_c, 0, 65, 67
2, 577536, Note_off_c, 0, 70, 67
2, 577536, Note_on_c, 0, 67, 67
2, 577536, Note_on_c, 0, 75, 67
2, 577664, Note_off_c, 0, 67, 67
2, 577664, Note_off_c, 0, 75, 67
2, 577664, Note_on_c, 0, 66, 67
2, 577664, Note_on_c, 0, 70, 67
2, 577792, Note_off_c, 0, 66, 67
2, 577792, Note_off_c, 0, 70, 67
2, 577792, Note_on_c, 0, 67, 67
2, 577792, Note_on_c, 0, 75, 67
2, 577920, Note_off_c, 0, 67, 67
2, 577920, Note_off_c, 0, 75, 67
2, 577920, Note_on_c, 0, 75, 67
2, 577920, Note_on_c, 0, 82, 67
2, 578176, Note_off_c, 0, 75, 67
2, 578176, Note_off_c, 0, 82, 67
2, 578176, Note_on_c, 0, 74, 67
2, 578176, Note_on_c, 0, 80, 67
2, 578304, Note_off_c, 0, 74, 67
2, 578304, Note_on_c, 0, 72, 67
2, 578432, Note_off_c, 0, 72, 67
2, 578432, Note_off_c, 0, 80, 67
2, 578432, Note_on_c, 0, 70, 67
2, 578432, Note_on_c, 0, 79, 67
2, 578560, Note_off_c, 0, 70, 67
2, 578560, Note_off_c, 0, 79, 67
2, 578560, Note_on_c, 0, 72, 67
2, 578560, Note_on_c, 0, 77, 67
2, 578688, Note_off_c, 0, 72, 67
2, 578688, Note_off_c, 0, 77, 67
2, 578688, Note_on_c, 0, 70, 67
2, 578688, Note_on_c, 0, 74, 67
2, 578816, Note_off_c, 0, 70, 67
2, 578816, Note_on_c, 0, 68, 67
2, 578944, Note_off_c, 0, 68, 67
2, 578944, Note_on_c, 0, 67, 67
2, 579072, Note_off_c, 0, 67, 67
2, 579072, Note_off_c, 0, 74, 67
2, 579072, Note_on_c, 0, 65, 67
2, 579072, Note_on_c, 0, 70, 67
2, 579200, Note_off_c, 0, 65, 67
2, 579200, Note_on_c, 0, 67, 67
2, 579328, Note_off_c, 0, 67, 67
2, 579328, Note_off_c, 0, 70, 67
2, 579328, Note_on_c, 0, 65, 67
2, 579328, Note_on_c, 0, 68, 67
2, 579456, Note_off_c, 0, 68, 67
2, 579456, Note_on_c, 0, 70, 67
2, 579584, Note_off_c, 0, 65, 67
2, 579584, Note_off_c, 0, 70, 67
2, 579584, Note_on_c, 0, 70, 67
2, 579584, Note_on_c, 0, 74, 67
2, 579712, Note_off_c, 0, 70, 67
2, 579712, Note_off_c, 0, 74, 67
2, 579712, Note_on_c, 0, 65, 67
2, 579712, Note_on_c, 0, 70, 67
2, 579840, Note_off_c, 0, 65, 67
2, 579840, Note_off_c, 0, 70, 67
2, 579840, Note_on_c, 0, 70, 67
2, 579840, Note_on_c, 0, 74, 67
2, 579968, Note_off_c, 0, 70, 67
2, 579968, Note_off_c, 0, 74, 67
2, 579968, Note_on_c, 0, 74, 67
2, 579968, Note_on_c, 0, 79, 67
2, 580224, Note_off_c, 0, 74, 67
2, 580224, Note_off_c, 0, 79, 67
2, 580224, Note_on_c, 0, 72, 67
2, 580224, Note_on_c, 0, 77, 67
2, 580352, Note_off_c, 0, 72, 67
2, 580352, Note_on_c, 0, 70, 67
2, 580480, Note_off_c, 0, 70, 67
2, 580480, Note_off_c, 0, 77, 67
2, 580480, Note_on_c, 0, 68, 67
2, 580480, Note_on_c, 0, 74, 67
2, 580608, Note_off_c, 0, 68, 67
2, 580608, Note_off_c, 0, 74, 67
2, 580608, Note_on_c, 0, 67, 67
2, 580608, Note_on_c, 0, 75, 67
2, 580736, Note_off_c, 0, 67, 67
2, 580736, Note_on_c, 0, 65, 67
2, 580864, Note_off_c, 0, 65, 67
2, 580864, Note_on_c, 0, 63, 67
2, 580992, Note_off_c, 0, 63, 67
2, 580992, Note_on_c, 0, 65, 67
2, 581120, Note_off_c, 0, 65, 67
2, 581120, Note_off_c, 0, 75, 67
2, 581120, Note_on_c, 0, 63, 67
2, 581120, Note_on_c, 0, 67, 67
2, 581248, Note_off_c, 0, 67, 67
2, 581248, Note_on_c, 0, 68, 67
2, 581376, Note_off_c, 0, 63, 67
2, 581376, Note_off_c, 0, 68, 67
2, 581376, Note_on_c, 0, 65, 67
2, 581376, Note_on_c, 0, 70, 67
2, 581504, Note_off_c, 0, 70, 67
2, 581504, Note_on_c, 0, 72, 67
2, 581632, Note_off_c, 0, 65, 67
2, 581632, Note_off_c, 0, 72, 67
2, 581632, Note_on_c, 0, 79, 67
2, 582144, Note_off_c, 0, 79, 67
2, 582144, Note_on_c, 0, 82, 67
2, 582400, Control_c, 0, 93, 0
2, 582400, Note_on_c, 0, 68, 67
2, 582528, Note_off_c, 0, 68, 67
2, 582528, Note_on_c, 0, 70, 67
2, 582656, Note_off_c, 0, 70, 67
2, 582656, Note_off_c, 0, 82, 67
2, 582656, Note_on_c, 0, 72, 67
2, 582656, Note_on_c, 0, 80, 67
2, 582784, Note_off_c, 0, 72, 67
2, 582784, Note_off_c, 0, 80, 67
2, 582784, Note_on_c, 0, 70, 67
2, 582784, Note_on_c, 0, 82, 67
2, 582912, Note_off_c, 0, 70, 67
2, 582912, Note_off_c, 0, 82, 67
2, 582912, Note_on_c, 0, 68, 67
2, 582912, Note_on_c, 0, 80, 67
2, 583040, Note_off_c, 0, 80, 67
2, 583040, Note_on_c, 0, 79, 67
2, 583168, Note_off_c, 0, 68, 67
2, 583168, Note_off_c, 0, 79, 67
2, 583168, Note_on_c, 0, 65, 67
2, 583168, Note_on_c, 0, 77, 67
2, 583296, Note_off_c, 0, 65, 67
2, 583296, Note_on_c, 0, 67, 67
2, 583424, Note_off_c, 0, 67, 67
2, 583424, Note_on_c, 0, 68, 67
2, 583552, Note_off_c, 0, 68, 67
2, 583552, Note_on_c, 0, 70, 67
2, 583680, Note_off_c, 0, 70, 67
2, 583680, Note_off_c, 0, 77, 67
2, 583680, Note_on_c, 0, 68, 67
2, 583680, Note_on_c, 0, 74, 67
2, 583808, Note_off_c, 0, 68, 67
2, 583808, Note_on_c, 0, 67, 67
2, 583936, Note_off_c, 0, 67, 67
2, 583936, Note_on_c, 0, 65, 67
2, 584192, Note_off_c, 0, 65, 67
2, 584192, Note_off_c, 0, 74, 67
2, 584192, Note_on_c, 0, 77, 67
2, 584448, Control_c, 0, 93, 0
2, 584448, Note_on_c, 0, 65, 67
2, 584576, Note_off_c, 0, 65, 67
2, 584576, Note_on_c, 0, 70, 67
2, 584704, Note_off_c, 0, 70, 67
2, 584704, Note_off_c, 0, 77, 67
2, 584704, Note_on_c, 0, 67, 67
2, 584704, Note_on_c, 0, 79, 67
2, 584832, Note_off_c, 0, 67, 67
2, 584832, Note_off_c, 0, 79, 67
2, 584832, Note_on_c, 0, 68, 67
2, 584832, Note_on_c, 0, 80, 67
2, 584960, Note_off_c, 0, 68, 67
2, 584960, Note_off_c, 0, 80, 67
2, 584960, Note_on_c, 0, 70, 67
2, 584960, Note_on_c, 0, 79, 67
2, 585088, Note_off_c, 0, 70, 67
2, 585088, Note_off_c, 0, 79, 67
2, 585088, Note_on_c, 0, 72, 67
2, 585088, Note_on_c, 0, 77, 67
2, 585216, Note_off_c, 0, 72, 67
2, 585216, Note_off_c, 0, 77, 67
2, 585216, Note_on_c, 0, 70, 67
2, 585216, Note_on_c, 0, 75, 67
2, 585728, Note_off_c, 0, 70, 67
2, 585728, Note_off_c, 0, 75, 67
2, 585728, Note_on_c, 0, 75, 67
2, 585728, Note_on_c, 0, 79, 67
2, 585856, Note_off_c, 0, 75, 67
2, 585856, Note_on_c, 0, 74, 67
2, 585984, Note_off_c, 0, 74, 67
2, 585984, Note_on_c, 0, 72, 67
2, 586240, Note_off_c, 0, 72, 67
2, 586240, Note_off_c, 0, 79, 67
2, 586240, Note_on_c, 0, 70, 67
2, 586240, Note_on_c, 0, 82, 67
2, 586368, Note_off_c, 0, 70, 67
2, 586368, Note_on_c, 0, 72, 67
2, 586496, Note_off_c, 0, 72, 67
2, 586496, Note_on_c, 0, 74, 67
2, 586624, Note_off_c, 0, 74, 67
2, 586624, Note_on_c, 0, 75, 67
2, 586752, Note_off_c, 0, 75, 67
2, 586752, Note_off_c, 0, 82, 67
2, 586752, Note_on_c, 0, 77, 67
2, 586752, Note_on_c, 0, 80, 67
2, 586880, Note_off_c, 0, 77, 67
2, 586880, Note_off_c, 0, 80, 67
2, 586880, Note_on_c, 0, 75, 67
2, 586880, Note_on_c, 0, 79, 67
2, 587008, Note_off_c, 0, 75, 67
2, 587008, Note_off_c, 0, 79, 67
2, 587008, Note_on_c, 0, 74, 67
2, 587008, Note_on_c, 0, 80, 67
2, 587136, Note_off_c, 0, 80, 67
2, 587136, Note_on_c, 0, 82, 67
2, 587264, Note_off_c, 0, 74, 67
2, 587264, Note_off_c, 0, 82, 67
2, 587264, Note_on_c, 0, 72, 67
2, 587264, Note_on_c, 0, 84, 67
2, 587392, Note_off_c, 0, 72, 67
2, 587392, Note_on_c, 0, 74, 67
2, 587520, Note_off_c, 0, 74, 67
2, 587520, Note_on_c, 0, 75, 67
2, 587648, Note_off_c, 0, 75, 67
2, 587648, Note_on_c, 0, 77, 67
2, 587776, Note_off_c, 0, 77, 67
2, 587776, Note_off_c, 0, 84, 67
2, 587776, Note_on_c, 0, 74, 67
2, 587776, Note_on_c, 0, 82, 67
2, 587904, Note_off_c, 0, 74, 67
2, 587904, Note_on_c, 0, 72, 67
2, 588032, Note_off_c, 0, 72, 67
2, 588032, Note_off_c, 0, 82, 67
2, 588032, Note_on_c, 0, 70, 67
2, 588032, Note_on_c, 0, 80, 67
2, 588160, Note_off_c, 0, 80, 67
2, 588160, Note_on_c, 0, 79, 67
2, 588288, Note_off_c, 0, 70, 67
2, 588288, Note_off_c, 0, 79, 67
2, 588288, Note_on_c, 0, 68, 67
2, 588288, Note_on_c, 0, 80, 67
2, 588416, Note_off_c, 0, 68, 67
2, 588416, Note_on_c, 0, 70, 67
2, 588544, Note_off_c, 0, 70, 67
2, 588544, Note_on_c, 0, 72, 67
2, 588672, Note_off_c, 0, 72, 67
2, 588672, Note_on_c, 0, 68, 67
2, 588800, Note_off_c, 0, 68, 67
2, 588800, Note_off_c, 0, 80, 67
2, 588800, Note_on_c, 0, 70, 67
2, 588800, Note_on_c, 0, 79, 67
2, 588928, Note_off_c, 0, 70, 67
2, 588928, Note_off_c, 0, 79, 67
2, 588928, Note_on_c, 0, 68, 67
2, 588928, Note_on_c, 0, 80, 67
2, 589056, Note_off_c, 0, 68, 67
2, 589056, Note_off_c, 0, 80, 67
2, 589056, Note_on_c, 0, 67, 67
2, 589056, Note_on_c, 0, 79, 67
2, 589184, Note_off_c, 0, 67, 67
2, 589184, Note_off_c, 0, 79, 67
2, 589184, Note_on_c, 0, 65, 67
2, 589184, Note_on_c, 0, 77, 67
2, 589312, Note_off_c, 0, 65, 67
2, 589312, Note_off_c, 0, 77, 67
2, 589312, Note_on_c, 0, 63, 67
2, 589312, Note_on_c, 0, 75, 67
2, 589440, Note_off_c, 0, 63, 67
2, 589440, Note_on_c, 0, 65, 67
2, 589568, Note_off_c, 0, 65, 67
2, 589568, Note_on_c, 0, 67, 67
2, 589696, Note_off_c, 0, 67, 67
2, 589696, Note_on_c, 0, 68, 67
2, 589824, Note_off_c, 0, 68, 67
2, 589824, Note_off_c, 0, 75, 67
2, 589824, Time_signature, 4, 2, 24, 8
2, 589824, Key_signature, -3, "major"
2, 589824, Note_on_c, 0, 67, 67
2, 589824, Note_on_c, 0, 75, 67
2, 589952, Note_off_c, 0, 67, 67
2, 589952, Note_off_c, 0, 75, 67
2, 589952, Note_on_c, 0, 66, 67
2, 589952, Note_on_c, 0, 70, 67
2, 590080, Note_off_c, 0, 66, 67
2, 590080, Note_off_c, 0, 70, 67
2, 590080, Note_on_c, 0, 67, 67
2, 590080, Note_on_c, 0, 75, 67
2, 590208, Note_off_c, 0, 67, 67
2, 590208, Note_off_c, 0, 75, 67
2, 590208, Note_on_c, 0, 75, 67
2, 590208, Note_on_c, 0, 82, 67
2, 590464, Note_off_c, 0, 75, 67
2, 590464, Note_off_c, 0, 82, 67
2, 590464, Note_on_c, 0, 74, 67
2, 590464, Note_on_c, 0, 80, 67
2, 590592, Note_off_c, 0, 74, 67
2, 590592, Note_on_c, 0, 72, 67
2, 590720, Note_off_c, 0, 72, 67
2, 590720, Note_off_c, 0, 80, 67
2, 590720, Note_on_c, 0, 70, 67
2, 590720, Note_on_c, 0, 79, 67
2, 590848, Note_off_c, 0, 70, 67
2, 590848, Note_off_c, 0, 79, 67
2, 590848, Note_on_c, 0, 72, 67
2, 590848, Note_on_c, 0, 77, 67
2, 590976, Note_off_c, 0, 72, 67
2, 590976, Note_off_c, 0, 77, 67
2, 590976, Note_on_c, 0, 70, 67
2, 590976, Note_on_c, 0, 74, 67
2, 591104, Note_off_c, 0, 70, 67
2, 591104, Note_on_c, 0, 68, 67
2, 591232, Note_off_c, 0, 68, 67
2, 591232, Note_on_c, 0, 67, 67
2, 591360, Note_off_c, 0, 67, 67
2, 591360, Note_off_c, 0, 74, 67
2, 591360, Note_on_c, 0, 65, 67
2, 591360, Note_on_c, 0, 70, 67
2, 591488, Note_off_c, 0, 65, 67
2, 591488, Note_on_c, 0, 67, 67
2, 591616, Note_off_c, 0, 67, 67
2, 591616, Note_off_c, 0, 70, 67
2, 591616, Note_on_c, 0, 65, 67
2, 591616, Note_on_c, 0, 68, 67
2, 591744, Note_off_c, 0, 68, 67
2, 591744, Note_on_c, 0, 70, 67
2, 591872, Note_off_c, 0, 65, 67
2, 591872, Note_off_c, 0, 70, 67
2, 591872, Note_on_c, 0, 70, 67
2, 591872, Note_on_c, 0, 74, 67
2, 592000, Note_off_c, 0, 70, 67
2, 592000, Note_off_c, 0, 74, 67
2, 592000, Note_on_c, 0, 65, 67
2, 592000, Note_on_c, 0, 70, 67
2, 592128, Note_off_c, 0, 65, 67
2, 592128, Note_off_c, 0, 70, 67
2, 592128, Note_on_c, 0, 70, 67
2, 592128, Note_on_c, 0, 74, 67
2, 592256, Note_off_c, 0, 70, 67
2, 592256, Note_off_c, 0, 74, 67
2, 592256, Note_on_c, 0, 74, 67
2, 592256, Note_on_c, 0, 79, 67
2, 592512, Note_off_c, 0, 74, 67
2, 592512, Note_off_c, 0, 79, 67
2, 592512, Note_on_c, 0, 72, 67
2, 592512, Note_on_c, 0, 77, 67
2, 592640, Note_off_c, 0, 72, 67
2, 592640, Note_on_c, 0, 70, 67
2, 592768, Note_off_c, 0, 70, 67
2, 592768, Note_off_c, 0, 77, 67
2, 592768, Note_on_c, 0, 68, 67
2, 592768, Note_on_c, 0, 74, 67
2, 592896, Note_off_c, 0, 68, 67
2, 592896, Note_off_c, 0, 74, 67
2, 592896, Note_on_c, 0, 67, 67
2, 592896, Note_on_c, 0, 75, 67
2, 593024, Note_off_c, 0, 67, 67
2, 593024, Note_off_c, 0, 75, 67
2, 593024, Note_on_c, 0, 70, 67
2, 593024, Note_on_c, 0, 79, 67
2, 593152, Note_off_c, 0, 70, 67
2, 593152, Note_on_c, 0, 72, 67
2, 593280, Note_off_c, 0, 72, 67
2, 593280, Note_on_c, 0, 74, 67
2, 593408, Note_off_c, 0, 74, 67
2, 593408, Note_off_c, 0, 79, 67
2, 593408, Note_on_c, 0, 70, 67
2, 593408, Note_on_c, 0, 75, 67
2, 593536, Note_off_c, 0, 75, 67
2, 593536, Note_on_c, 0, 74, 67
2, 593664, Note_off_c, 0, 70, 67
2, 593664, Note_off_c, 0, 74, 67
2, 593664, Note_on_c, 0, 65, 67
2, 593664, Note_on_c, 0, 72, 67
2, 593792, Note_off_c, 0, 72, 67
2, 593792, Note_on_c, 0, 70, 67
2, 593920, Note_off_c, 0, 65, 67
2, 593920, Note_off_c, 0, 70, 67
2, 593920, Note_on_c, 0, 67, 67
2, 593920, Note_on_c, 0, 75, 67
2, 594048, Note_off_c, 0, 67, 67
2, 594048, Note_off_c, 0, 75, 67
2, 594048, Note_on_c, 0, 66, 67
2, 594048, Note_on_c, 0, 70, 67
2, 594176, Note_off_c, 0, 66, 67
2, 594176, Note_off_c, 0, 70, 67
2, 594176, Note_on_c, 0, 67, 67
2, 594176, Note_on_c, 0, 75, 67
2, 594304, Note_off_c, 0, 67, 67
2, 594304, Note_off_c, 0, 75, 67
2, 594304, Note_on_c, 0, 75, 67
2, 594304, Note_on_c, 0, 82, 67
2, 594560, Note_off_c, 0, 75, 67
2, 594560, Note_off_c, 0, 82, 67
2, 594560, Note_on_c, 0, 74, 67
2, 594560, Note_on_c, 0, 80, 67
2, 594688, Note_off_c, 0, 74, 67
2, 594688, Note_on_c, 0, 72, 67
2, 594816, Note_off_c, 0, 72, 67
2, 594816, Note_off_c, 0, 80, 67
2, 594816, Note_on_c, 0, 70, 67
2, 594816, Note_on_c, 0, 79, 67
2, 594944, Note_off_c, 0, 70, 67
2, 594944, Note_off_c, 0, 79, 67
2, 594944, Note_on_c, 0, 72, 67
2, 594944, Note_on_c, 0, 77, 67
2, 595072, Note_off_c, 0, 72, 67
2, 595072, Note_off_c, 0, 77, 67
2, 595072, Note_on_c, 0, 70, 67
2, 595072, Note_on_c, 0, 74, 67
2, 595200, Note_off_c, 0, 70, 67
2, 595200, Note_on_c, 0, 68, 67
2, 595328, Note_off_c, 0, 68, 67
2, 595328, Note_on_c, 0, 67, 67
2, 595456, Note_off_c, 0, 67, 67
2, 595456, Note_off_c, 0, 74, 67
2, 595456, Note_on_c, 0, 65, 67
2, 595456, Note_on_c, 0, 70, 67
2, 595584, Note_off_c, 0, 65, 67
2, 595584, Note_on_c, 0, 67, 67
2, 595712, Note_off_c, 0, 67, 67
2, 595712, Note_off_c, 0, 70, 67
2, 595712, Note_on_c, 0, 65, 67
2, 595712, Note_on_c, 0, 68, 67
2, 595840, Note_off_c, 0, 68, 67
2, 595840, Note_on_c, 0, 70, 67
2, 595968, Note_off_c, 0, 65, 67
2, 595968, Note_off_c, 0, 70, 67
2, 595968, Note_on_c, 0, 70, 67
2, 595968, Note_on_c, 0, 74, 67
2, 596096, Note_off_c, 0, 70, 67
2, 596096, Note_off_c, 0, 74, 67
2, 596096, Note_on_c, 0, 65, 67
2, 596096, Note_on_c, 0, 70, 67
2, 596224, Note_off_c, 0, 65, 67
2, 596224, Note_off_c, 0, 70, 67
2, 596224, Note_on_c, 0, 70, 67
2, 596224, Note_on_c, 0, 74, 67
2, 596352, Note_off_c, 0, 70, 67
2, 596352, Note_off_c, 0, 74, 67
2, 596352, Note_on_c, 0, 74, 67
2, 596352, Note_on_c, 0, 79, 67
2, 596608, Note_off_c, 0, 74, 67
2, 596608, Note_off_c, 0, 79, 67
2, 596608, Note_on_c, 0, 72, 67
2, 596608, Note_on_c, 0, 77, 67
2, 596736, Note_off_c, 0, 72, 67
2, 596736, Note_on_c, 0, 70, 67
2, 596864, Note_off_c, 0, 70, 67
2, 596864, Note_off_c, 0, 77, 67
2, 596864, Note_on_c, 0, 68, 67
2, 596864, Note_on_c, 0, 74, 67
2, 596992, Note_off_c, 0, 68, 67
2, 596992, Note_off_c, 0, 74, 67
2, 596992, Note_on_c, 0, 67, 67
2, 596992, Note_on_c, 0, 75, 67
2, 597120, Note_off_c, 0, 67, 67
2, 597120, Note_on_c, 0, 65, 67
2, 597248, Note_off_c, 0, 65, 67
2, 597248, Note_on_c, 0, 63, 67
2, 597376, Note_off_c, 0, 63, 67
2, 597376, Note_on_c, 0, 65, 67
2, 597504, Note_off_c, 0, 65, 67
2, 597504, Note_off_c, 0, 75, 67
2, 597504, Note_on_c, 0, 63, 67
2, 597504, Note_on_c, 0, 67, 67
2, 597632, Note_off_c, 0, 67, 67
2, 597632, Note_on_c, 0, 68, 67
2, 597760, Note_off_c, 0, 63, 67
2, 597760, Note_off_c, 0, 68, 67
2, 597760, Note_on_c, 0, 65, 67
2, 597760, Note_on_c, 0, 70, 67
2, 597888, Note_off_c, 0, 70, 67
2, 597888, Note_on_c, 0, 72, 67
2, 598016, Note_off_c, 0, 65, 67
2, 598016, Note_off_c, 0, 72, 67
2, 598016, Note_on_c, 0, 79, 67
2, 598528, Note_off_c, 0, 79, 67
2, 598528, Note_on_c, 0, 82, 67
2, 598784, Control_c, 0, 93, 0
2, 598784, Note_on_c, 0, 68, 67
2, 598912, Note_off_c, 0, 68, 67
2, 598912, Note_on_c, 0, 70, 67
2, 599040, Note_off_c, 0, 70, 67
2, 599040, Note_off_c, 0, 82, 67
2, 599040, Note_on_c, 0, 72, 67
2, 599040, Note_on_c, 0, 80, 67
2, 599168, Note_off_c, 0, 72, 67
2, 599168, Note_off_c, 0, 80, 67
2, 599168, Note_on_c, 0, 70, 67
2, 599168, Note_on_c, 0, 82, 67
2, 599296, Note_off_c, 0, 70, 67
2, 599296, Note_off_c, 0, 82, 67
2, 599296, Note_on_c, 0, 68, 67
2, 599296, Note_on_c, 0, 80, 67
2, 599424, Note_off_c, 0, 80, 67
2, 599424, Note_on_c, 0, 79, 67
2, 599552, Note_off_c, 0, 68, 67
2, 599552, Note_off_c, 0, 79, 67
2, 599552, Note_on_c, 0, 65, 67
2, 599552, Note_on_c, 0, 77, 67
2, 599680, Note_off_c, 0, 65, 67
2, 599680, Note_on_c, 0, 67, 67
2, 599808, Note_off_c, 0, 67, 67
2, 599808, Note_on_c, 0, 68, 67
2, 599936, Note_off_c, 0, 68, 67
2, 599936, Note_on_c, 0, 70, 67
2, 600064, Note_off_c, 0, 70, 67
2, 600064, Note_off_c, 0, 77, 67
2, 600064, Note_on_c, 0, 68, 67
2, 600064, Note_on_c, 0, 74, 67
2, 600192, Note_off_c, 0, 68, 67
2, 600192, Note_on_c, 0, 67, 67
2, 600320, Note_off_c, 0, 67, 67
2, 600320, Note_on_c, 0, 65, 67
2, 600576, Note_off_c, 0, 65, 67
2, 600576, Note_off_c, 0, 74, 67
2, 600576, Note_on_c, 0, 77, 67
2, 600832, Control_c, 0, 93, 0
2, 600832, Note_on_c, 0, 65, 67
2, 600960, Note_off_c, 0, 65, 67
2, 600960, Note_on_c, 0, 70, 67
2, 601088, Note_off_c, 0, 70, 67
2, 601088, Note_off_c, 0, 77, 67
2, 601088, Note_on_c, 0, 67, 67
2, 601088, Note_on_c, 0, 79, 67
2, 601216, Note_off_c, 0, 67, 67
2, 601216, Note_off_c, 0, 79, 67
2, 601216, Note_on_c, 0, 68, 67
2, 601216, Note_on_c, 0, 80, 67
2, 601344, Note_off_c, 0, 68, 67
2, 601344, Note_off_c, 0, 80, 67
2, 601344, Note_on_c, 0, 70, 67
2, 601344, Note_on_c, 0, 79, 67
2, 601472, Note_off_c, 0, 70, 67
2, 601472, Note_off_c, 0, 79, 67
2, 601472, Note_on_c, 0, 72, 67
2, 601472, Note_on_c, 0, 77, 67
2, 601600, Note_off_c, 0, 72, 67
2, 601600, Note_off_c, 0, 77, 67
2, 601600, Note_on_c, 0, 70, 67
2, 601600, Note_on_c, 0, 75, 67
2, 602112, Note_off_c, 0, 70, 67
2, 602112, Note_off_c, 0, 75, 67
2, 602112, Note_on_c, 0, 75, 67
2, 602112, Note_on_c, 0, 79, 67
2, 602240, Note_off_c, 0, 75, 67
2, 602240, Note_on_c, 0, 74, 67
2, 602368, Note_off_c, 0, 74, 67
2, 602368, Note_on_c, 0, 72, 67
2, 602624, Note_off_c, 0, 72, 67
2, 602624, Note_off_c, 0, 79, 67
2, 602624, Note_on_c, 0, 70, 67
2, 602624, Note_on_c, 0, 82, 67
2, 602752, Note_off_c, 0, 70, 67
2, 602752, Note_on_c, 0, 72, 67
2, 602880, Note_off_c, 0, 72, 67
2, 602880, Note_on_c, 0, 74, 67
2, 603008, Note_off_c, 0, 74, 67
2, 603008, Note_on_c, 0, 75, 67
2, 603136, Note_off_c, 0, 75, 67
2, 603136, Note_off_c, 0, 82, 67
2, 603136, Note_on_c, 0, 77, 67
2, 603136, Note_on_c, 0, 80, 67
2, 603264, Note_off_c, 0, 77, 67
2, 603264, Note_off_c, 0, 80, 67
2, 603264, Note_on_c, 0, 75, 67
2, 603264, Note_on_c, 0, 79, 67
2, 603392, Note_off_c, 0, 75, 67
2, 603392, Note_off_c, 0, 79, 67
2, 603392, Note_on_c, 0, 74, 67
2, 603392, Note_on_c, 0, 80, 67
2, 603520, Note_off_c, 0, 80, 67
2, 603520, Note_on_c, 0, 82, 67
2, 603648, Note_off_c, 0, 74, 67
2, 603648, Note_off_c, 0, 82, 67
2, 603648, Note_on_c, 0, 72, 67
2, 603648, Note_on_c, 0, 84, 67
2, 603776, Note_off_c, 0, 72, 67
2, 603776, Note_on_c, 0, 74, 67
2, 603904, Note_off_c, 0, 74, 67
2, 603904, Note_on_c, 0, 75, 67
2, 604032, Note_off_c, 0, 75, 67
2, 604032, Note_on_c, 0, 77, 67
2, 604160, Note_off_c, 0, 77, 67
2, 604160, Note_off_c, 0, 84, 67
2, 604160, Note_on_c, 0, 74, 67
2, 604160, Note_on_c, 0, 82, 67
2, 604288, Note_off_c, 0, 74, 67
2, 604288, Note_on_c, 0, 72, 67
2, 604416, Note_off_c, 0, 72, 67
2, 604416, Note_off_c, 0, 82, 67
2, 604416, Note_on_c, 0, 70, 67
2, 604416, Note_on_c, 0, 80, 67
2, 604544, Note_off_c, 0, 80, 67
2, 604544, Note_on_c, 0, 79, 67
2, 604672, Note_off_c, 0, 70, 67
2, 604672, Note_off_c, 0, 79, 67
2, 604672, Note_on_c, 0, 68, 67
2, 604672, Note_on_c, 0, 80, 67
2, 604800, Note_off_c, 0, 68, 67
2, 604800, Note_on_c, 0, 70, 67
2, 604928, Note_off_c, 0, 70, 67
2, 604928, Note_on_c, 0, 72, 67
2, 605056, Note_off_c, 0, 72, 67
2, 605056, Note_on_c, 0, 68, 67
2, 605184, Note_off_c, 0, 68, 67
2, 605184, Note_off_c, 0, 80, 67
2, 605184, Note_on_c, 0, 70, 67
2, 605184, Note_on_c, 0, 79, 67
2, 605312, Note_off_c, 0, 70, 67
2, 605312, Note_off_c, 0, 79, 67
2, 605312, Note_on_c, 0, 68, 67
2, 605312, Note_on_c, 0, 80, 67
2, 605440, Note_off_c, 0, 68, 67
2, 605440, Note_off_c, 0, 80, 67
2, 605440, Note_on_c, 0, 67, 67
2, 605440, Note_on_c, 0, 79, 67
2, 605568, Note_off_c, 0, 67, 67
2, 605568, Note_off_c, 0, 79, 67
2, 605568, Note_on_c, 0, 65, 67
2, 605568, Note_on_c, 0, 77, 67
2, 605696, Note_off_c, 0, 65, 67
2, 605696, Note_off_c, 0, 77, 67
2, 605696, Note_on_c, 0, 63, 67
2, 605696, Note_on_c, 0, 75, 67
2, 605824, Note_off_c, 0, 63, 67
2, 605824, Note_on_c, 0, 65, 67
2, 605952, Note_off_c, 0, 65, 67
2, 605952, Note_on_c, 0, 67, 67
2, 606080, Note_off_c, 0, 67, 67
2, 606080, Note_on_c, 0, 68, 67
2, 606208, Note_off_c, 0, 68, 67
2, 606208, Note_off_c, 0, 75, 67
2, 606208, Time_signature, 4, 2, 24, 8
2, 606208, Key_signature, -3, "major"
2, 606208, Note_on_c, 0, 67, 67
2, 606208, Note_on_c, 0, 75, 67
2, 606336, Note_off_c, 0, 67, 67
2, 606336, Note_off_c, 0, 75, 67
2, 606336, Note_on_c, 0, 66, 67
2, 606336, Note_on_c, 0, 70, 67
2, 606464, Note_off_c, 0, 66, 67
2, 606464, Note_off_c, 0, 70, 67
2, 606464, Note_on_c, 0, 67, 67
2, 606464, Note_on_c, 0, 75, 67
2, 606592, Note_off_c, 0, 67, 67
2, 606592, Note_off_c, 0, 75, 67
2, 606592, Note_on_c, 0, 75, 67
2, 606592, Note_on_c, 0, 82, 67
2, 606848, Note_off_c, 0, 75, 67
2, 606848, Note_off_c, 0, 82, 67
2, 606848, Note_on_c, 0, 74, 67
2, 606848, Note_on_c, 0, 80, 67
2, 606976, Note_off_c, 0, 74, 67
2, 606976, Note_on_c, 0, 72, 67
2, 607104, Note_off_c, 0, 72, 67
2, 607104, Note_off_c, 0, 80, 67
2, 607104, Note_on_c, 0, 70, 67
2, 607104, Note_on_c, 0, 79, 67
2, 607232, Note_off_c, 0, 70, 67
2, 607232, Note_off_c, 0, 79, 67
2, 607232, Note_on_c, 0, 72, 67
2, 607232, Note_on_c, 0, 77, 67
2, 607360, Note_off_c, 0, 72, 67
2, 607360, Note_off_c, 0, 77, 67
2, 607360, Note_on_c, 0, 70, 67
2, 607360, Note_on_c, 0, 74, 67
2, 607488, Note_off_c, 0, 70, 67
2, 607488, Note_on_c, 0, 68, 67
2, 607616, Note_off_c, 0, 68, 67
2, 607616, Note_on_c, 0, 67, 67
2, 607744, Note_off_c, 0, 67, 67
2, 607744, Note_off_c, 0, 74, 67
2, 607744, Note_on_c, 0, 65, 67
2, 607744, Note_on_c, 0, 70, 67
2, 607872, Note_off_c, 0, 65, 67
2, 607872, Note_on_c, 0, 67, 67
2, 608000, Note_off_c, 0, 67, 67
2, 608000, Note_off_c, 0, 70, 67
2, 608000, Note_on_c, 0, 65, 67
2, 608000, Note_on_c, 0, 68, 67
2, 608128, Note_off_c, 0, 68, 67
2, 608128, Note_on_c, 0, 70, 67
2, 608256, Note_off_c, 0, 65, 67
2, 608256, Note_off_c, 0, 70, 67
2, 608256, Note_on_c, 0, 70, 67
2, 608256, Note_on_c, 0, 74, 67
2, 608384, Note_off_c, 0, 70, 67
2, 608384, Note_off_c, 0, 74, 67
2, 608384, Note_on_c, 0, 65, 67
2, 608384, Note_on_c, 0, 70, 67
2, 608512, Note_off_c, 0, 65, 67
2, 608512, Note_off_c, 0, 70, 67
2, 608512, Note_on_c, 0, 70, 67
2, 608512, Note_on_c, 0, 74, 67
2, 608640, Note_off_c, 0, 70, 67
2, 608640, Note_off_c, 0, 74, 67
2, 608640, Note_on_c, 0, 74, 67
2, 608640, Note_on_c, 0, 79, 67
2, 608896, Note_off_c, 0, 74, 67
2, 608896, Note_off_c, 0, 79, 67
2, 608896, Note_on_c, 0, 72, 67
2, 608896, Note_on_c, 0, 77, 67
2, 609024, Note_off_c, 0, 72, 67
2, 609024, Note_on_c, 0, 70, 67
2, 609152, Note_off_c, 0, 70, 67
2, 609152, Note_off_c, 0, 77, 67
2, 609152, Note_on_c, 0, 68, 67
2, 609152, Note_on_c, 0, 74, 67
2, 609280, Note_off_c, 0, 68, 67
2, 609280, Note_off_c, 0, 74, 67
2, 609280, Note_on_c, 0, 67, 67
2, 609280, Note_on_c, 0, 75, 67
2, 609408, Note_off_c, 0, 67, 67
2, 609408, Note_off_c, 0, 75, 67
2, 609408, Note_on_c, 0, 70, 67
2, 609408, Note_on_c, 0, 79, 67
2, 609536, Note_off_c, 0, 70, 67
2, 609536, Note_on_c, 0, 72, 67
2, 609664, Note_off_c, 0, 72, 67
2, 609664, Note_on_c, 0, 74, 67
2, 609792, Note_off_c, 0, 74, 67
2, 609792, Note_off_c, 0, 79, 67
2, 609792, Note_on_c, 0, 70, 67
2, 609792, Note_on_c, 0, 75, 67
2, 609920, Note_off_c, 0, 75, 67
2, 609920, Note_on_c, 0, 74, 67
2, 610048, Note_off_c, 0, 70, 67
2, 610048, Note_off_c, 0, 74, 67
2, 610048, Note_on_c, 0, 65, 67
2, 610048, Note_on_c, 0, 72, 67
2, 610176, Note_off_c, 0, 72, 67
2, 610176, Note_on_c, 0, 70, 67
2, 610304, Note_off_c, 0, 65, 67
2, 610304, Note_off_c, 0, 70, 67
2, 610304, Note_on_c, 0, 67, 67
2, 610304, Note_on_c, 0, 75, 67
2, 610432, Note_off_c, 0, 67, 67
2, 610432, Note_off_c, 0, 75, 67
2, 610432, Note_on_c, 0, 66, 67
2, 610432, Note_on_c, 0, 70, 67
2, 610560, Note_off_c, 0, 66, 67
2, 610560, Note_off_c, 0, 70, 67
2, 610560, Note_on_c, 0, 67, 67
2, 610560, Note_on_c, 0, 75, 67
2, 610688, Note_off_c, 0, 67, 67
2, 610688, Note_off_c, 0, 75, 67
2, 610688, Note_on_c, 0, 75, 67
2, 610688, Note_on_c, 0, 82, 67
2, 610944, Note_off_c, 0, 75, 67
2, 610944, Note_off_c, 0, 82, 67
2, 610944, Note_on_c, 0, 74, 67
2, 610944, Note_on_c, 0, 80, 67
2, 611072, Note_off_c, 0, 74, 67
2, 611072, Note_on_c, 0, 72, 67
2, 611200, Note_off_c, 0, 72, 67
2, 611200, Note_off_c, 0, 80, 67
2, 611200, Note_on_c, 0, 70, 67
2, 611200, Note_on_c, 0, 79, 67
2, 611328, Note_off_c, 0, 70, 67
2, 611328, Note_off_c, 0, 79, 67
2, 611328, Note_on_c, 0, 72, 67
2, 611328, Note_on_c, 0, 77, 67
2, 611456, Note_off_c, 0, 72, 67
2, 611456, Note_off_c, 0, 77, 67
2, 611456, Note_on_c, 0, 70, 67
2, 611456, Note_on_c, 0, 74, 67
2, 611584, Note_off_c, 0, 70, 67
2, 611584, Note_on_c, 0, 68, 67
2, 611712, Note_off_c, 0, 68, 67
2, 611712, Note_on_c, 0, 67, 67
2, 611840, Note_off_c, 0, 67, 67
2, 611840, Note_off_c, 0, 74, 67
2, 611840, Note_on_c, 0, 65, 67
2, 611840, Note_on_c, 0, 70, 67
2, 611968, Note_off_c, 0, 65, 67
2, 611968, Note_on_c, 0, 67, 67
2, 612096, Note_off_c, 0, 67, 67
2, 612096, Note_off_c, 0, 70, 67
2, 612096, Note_on_c, 0, 65, 67
2, 612096, Note_on_c, 0, 68, 67
2, 612224, Note_off_c, 0, 68, 67
2, 612224, Note_on_c, 0, 70, 67
2, 612352, Note_off_c, 0, 65, 67
2, 612352, Note_off_c, 0, 70, 67
2, 612352, Note_on_c, 0, 70, 67
2, 612352, Note_on_c, 0, 74, 67
2, 612480, Note_off_c, 0, 70, 67
2, 612480, Note_off_c, 0, 74, 67
2, 612480, Note_on_c, 0, 65, 67
2, 612480, Note_on_c, 0, 70, 67
2, 612608, Note_off_c, 0, 65, 67
2, 612608, Note_off_c, 0, 70, 67
2, 612608, Note_on_c, 0, 70, 67
2, 612608, Note_on_c, 0, 74, 67
2, 612736, Note_off_c, 0, 70, 67
2, 612736, Note_off_c, 0, 74, 67
2, 612736, Note_on_c, 0, 74, 67
2, 612736, Note_on_c, 0, 79, 67
2, 612992, Note_off_c, 0, 74, 67
2, 612992, Note_off_c, 0, 79, 67
2, 612992, Note_on_c, 0, 72, 67
2, 612992, Note_on_c, 0, 77, 67
2, 613120, Note_off_c, 0, 72, 67
2, 613120, Note_on_c, 0, 70, 67
2, 613248, Note_off_c, 0, 70, 67
2, 613248, Note_off_c, 0, 77, 67
2, 613248, Note_on_c, 0, 68, 67
2, 613248, Note_on_c, 0, 74, 67
2, 613376, Note_off_c, 0, 68, 67
2, 613376, Note_off_c, 0, 74, 67
2, 613376, Note_on_c, 0, 67, 67
2, 613376, Note_on_c, 0, 75, 67
2, 613504, Note_off_c, 0, 67, 67
2, 613504, Note_on_c, 0, 65, 67
2, 613632, Note_off_c, 0, 65, 67
2, 613632, Note_on_c, 0, 63, 67
2, 613760, Note_off_c, 0, 63, 67
2, 613760, Note_on_c, 0, 65, 67
2, 613888, Note_off_c, 0, 65, 67
2, 613888, Note_off_c, 0, 75, 67
2, 613888, Note_on_c, 0, 63, 67
2, 613888, Note_on_c, 0, 67, 67
2, 614016, Note_off_c, 0, 67, 67
2, 614016, Note_on_c, 0, 68, 67
2, 614144, Note_off_c, 0, 63, 67
2, 614144, Note_off_c, 0, 68, 67
2, 614144, Note_on_c, 0, 65, 67
2, 614144, Note_on_c, 0, 70, 67
2, 614272, Note_off_c, 0, 70, 67
2, 614272, Note_on_c, 0, 72, 67
2, 614400, Note_off_c, 0, 65, 67
2, 614400, Note_off_c, 0, 72, 67
2, 614400, Note_on_c, 0, 79, 67
2, 614912, Note_off_c, 0, 79, 67
2, 614912, Note_on_c, 0, 82, 67
2, 615168, Control_c, 0, 93, 0
2, 615168, Note_on_c, 0, 68, 67
2, 615296, Note_off_c, 0, 68, 67
2, 615296, Note_on_c, 0, 70, 67
2, 615424, Note_off_c, 0, 70, 67
2, 615424, Note_off_c, 0, 82, 67
2, 615424, Note_on_c, 0, 72, 67
2, 615424, Note_on_c, 0, 80, 67
2, 615552, Note_off_c, 0, 72, 67
2, 615552, Note_off_c, 0, 80, 67
2, 615552, Note_on_c, 0, 70, 67
2, 615552, Note_on_c, 0, 82, 67
2, 615680, Note_off_c, 0, 70, 67
2, 615680, Note_off_c, 0, 82, 67
2, 615680, Note_on_c, 0, 68, 67
2, 615680, Note_on_c, 0, 80, 67
2, 615808, Note_off_c, 0, 80, 67
2, 615808, Note_on_c, 0, 79, 67
2, 615936, Note_off_c, 0, 68, 67
2, 615936, Note_off_c, 0, 79, 67
2, 615936, Note_on_c, 0, 65, 67
2, 615936, Note_on_c, 0, 77, 67
2, 616064, Note_off_c, 0, 65, 67
2, 616064, Note_on_c, 0, 67, 67
2, 616192, Note_off_c, 0, 67, 67
2, 616192, Note_on_c, 0, 68, 67
2, 616320, Note_off_c, 0, 68, 67
2, 616320, Note_on_c, 0, 70, 67
2, 616448, Note_off_c, 0, 70, 67
2, 616448, Note_off_c, 0, 77, 67
2, 616448, Note_on_c, 0, 68, 67
2, 616448, Note_on_c, 0, 74, 67
2, 616576, Note_off_c, 0, 68, 67
2, 616576, Note_on_c, 0, 67, 67
2, 616704, Note_off_c, 0, 67, 67
2, 616704, Note_on_c, 0, 65, 67
2, 616960, Note_off_c, 0, 65, 67
2, 616960, Note_off_c, 0, 74, 67
2, 616960, Note_on_c, 0, 77, 67
2, 617216, Control_c, 0, 93, 0
2, 617216, Note_on_c, 0, 65, 67
2, 617344, Note_off_c, 0, 65, 67
2, 617344, Note_on_c, 0, 70, 67
2, 617472, Note_off_c, 0, 70, 67
2, 617472, Note_off_c, 0, 77, 67
2, 617472, Note_on_c, 0, 67, 67
2, 617472, Note_on_c, 0, 79, 67
2, 617600, Note_off_c, 0, 67, 67
2, 617600, Note_off_c, 0, 79, 67
2, 617600, Note_on_c, 0, 68, 67
2, 617600, Note_on_c, 0, 80, 67
2, 617728, Note_off_c, 0, 68, 67
2, 617728, Note_off_c, 0, 80, 67
2, 617728, Note_on_c, 0, 70, 67
2, 617728, Note_on_c, 0, 79, 67
2, 617856, Note_off_c, 0, 70, 67
2, 617856, Note_off_c, 0, 79, 67
2, 617856, Note_on_c, 0, 72, 67
2, 617856, Note_on_c, 0, 77, 67
2, 617984, Note_off_c, 0, 72, 67
2, 617984, Note_off_c, 0, 77, 67
2, 617984, Note_on_c, 0, 70, 67
2, 617984, Note_on_c, 0, 75, 67
2, 618496, Note_off_c, 0, 70, 67
2, 618496, Note_off_c, 0, 75, 67
2, 618496, Note_on_c, 0, 75, 67
2, 618496, Note_on_c, 0, 79, 67
2, 618624, Note_off_c, 0, 75, 67
2, 618624, Note_on_c, 0, 74, 67
2, 618752, Note_off_c, 0, 74, 67
2, 618752, Note_on_c, 0, 72, 67
2, 619008, Note_off_c, 0, 72, 67
2, 619008, Note_off_c, 0, 79, 67
2, 619008, Note_on_c, 0, 70, 67
2, 619008, Note_on_c, 0, 82, 67
2, 619136, Note_off_c, 0, 70, 67
2, 619136, Note_on_c, 0, 72, 67
2, 619264, Note_off_c, 0, 72, 67
2, 619264, Note_on_c, 0, 74, 67
2, 619392, Note_off_c, 0, 74, 67
2, 619392, Note_on_c, 0, 75, 67
2, 619520, Note_off_c, 0, 75, 67
2, 619520, Note_off_c, 0, 82, 67
2, 619520, Note_on_c, 0, 77, 67
2, 619520, Note_on_c, 0, 80, 67
2, 619648, Note_off_c, 0, 77, 67
2, 619648, Note_off_c, 0, 80, 67
2, 619648, Note_on_c, 0, 75, 67
2, 619648, Note_on_c, 0, 79, 67
2, 619776, Note_off_c, 0, 75, 67
2, 619776, Note_off_c, 0, 79, 67
2, 619776, Note_on_c, 0, 74, 67
2, 619776, Note_on_c, 0, 80, 67
2, 619904, Note_off_c, 0, 80, 67
2, 619904, Note_on_c, 0, 82, 67
2, 620032, Note_off_c, 0, 74, 67
2, 620032, Note_off_c, 0, 82, 67
2, 620032, Note_on_c, 0, 72, 67
2, 620032, Note_on_c, 0, 84, 67
2, 620160, Note_off_c, 0, 72, 67
2, 620160, Note_on_c, 0, 74, 67
2, 620288, Note_off_c, 0, 74, 67
2, 620288, Note_on_c, 0, 75, 67
2, 620416, Note_off_c, 0, 75, 67
2, 620416, Note_on_c, 0, 77, 67
2, 620544, Note_off_c, 0, 77, 67
2, 620544, Note_off_c, 0, 84, 67
2, 620544, Note_on_c, 0, 74, 67
2, 620544, Note_on_c, 0, 82, 67
2, 620672, Note_off_c, 0, 74, 67
2, 620672, Note_on_c, 0, 72, 67
2, 620800, Note_off_c, 0, 72, 67
2, 620800, Note_off_c, 0, 82, 67
2, 620800, Note_on_c, 0, 70, 67
2, 620800, Note_on_c, 0, 80, 67
2, 620928, Note_off_c, 0, 80, 67
2, 620928, Note_on_c, 0, 79, 67
2, 621056, Note_off_c, 0, 70, 67
2, 621056, Note_off_c, 0, 79, 67
2, 621056, Note_on_c, 0, 68, 67
2, 621056, Note_on_c, 0, 80, 67
2, 621184, Note_off_c, 0, 68, 67
2, 621184, Note_on_c, 0, 70, 67
2, 621312, Note_off_c, 0, 70, 67
2, 621312, Note_on_c, 0, 72, 67
2, 621440, Note_off_c, 0, 72, 67
2, 621440, Note_on_c, 0, 68, 67
2, 621568, Note_off_c, 0, 68, 67
2, 621568, Note_off_c, 0, 80, 67
2, 621568, Note_on_c, 0, 70, 67
2, 621568, Note_on_c, 0, 79, 67
2, 621696, Note_off_c, 0, 70, 67
2, 621696, Note_off_c, 0, 79, 67
2, 621696, Note_on_c, 0, 68, 67
2, 621696, Note_on_c, 0, 80, 67
2, 621824, Note_off_c, 0, 68, 67
2, 621824, Note_off_c, 0, 80, 67
2, 621824, Note_on_c, 0, 67, 67
2, 621824, Note_on_c, 0, 79, 67
2, 621952, Note_off_c, 0, 67, 67
2, 621952, Note_off_c, 0, 79, 67
2, 621952, Note_on_c, 0, 65, 67
2, 621952, Note_on_c, 0, 77, 67
2, 622080, Note_off_c, 0, 65, 67
2, 622080, Note_off_c, 0, 77, 67
2, 622080, Note_on_c, 0, 63, 67
2, 622080, Note_on_c, 0, 75, 67
2, 622208, Note_off_c, 0, 63, 67
2, 622208, Note_on_c, 0, 65, 67
2, 622336, Note_off_c, 0, 65, 67
2, 622336, Note_on_c, 0, 67, 67
2, 622464, Note_off_c, 0, 67, 67
2, 622464, Note_on_c, 0, 68, 67
2, 622592, Note_off_c, 0, 68, 67
2, 622592, Note_off_c, 0, 75, 67
2, 622592, Time_signature, 4, 2, 24, 8
2, 622592, Key_signature, -3, "major"
2, 622592, Note_on_c, 0, 67, 67
2, 622592, Note_on_c, 0, 75, 67
2, 622720, Note_off_c, 0, 67, 67
2, 622720, Note_off_c, 0, 75, 67
2, 622720, Note_on_c, 0, 66, 67
2, 622720, Note_on_c, 0, 70, 67
2, 622848, Note_off_c, 0, 66, 67
2, 622848, Note_off_c, 0, 70, 67
2, 622848, Note_on_c, 0, 67, 67
2, 622848, Note_on_c, 0, 75, 67
2, 622976, Note_off_c, 0, 67, 67
2, 622976, Note_off_c, 0, 75, 67
2, 622976, Note_on_c, 0, 75, 67
2, 622976, Note_on_c, 0, 82, 67
2, 623232, Note_off_c, 0, 75, 67
2, 623232, Note_off_c, 0, 82, 67
2, 623232, Note_on_c, 0, 74, 67
2, 623232, Note_on_c, 0, 80, 67
2, 623360, Note_off_c, 0, 74, 67
2, 623360, Note_on_c, 0, 72, 67
2, 623488, Note_off_c, 0, 72, 67
2, 623488, Note_off_c, 0, 80, 67
2, 623488, Note_on_c, 0, 70, 67
2, 623488, Note_on_c, 0, 79, 67
2, 623616, Note_off_c, 0, 70, 67
2, 623616, Note_off_c, 0, 79, 67
2, 623616, Note_on_c, 0, 72, 67
2, 623616, Note_on_c, 0, 77, 67
2, 623744, Note_off_c, 0, 72, 67
2, 623744, Note_off_c, 0, 77, 67
2, 623744, Note_on_c, 0, 70, 67
2, 623744, Note_on_c, 0, 74, 67
2, 623872, Note_off_c, 0, 70, 67
2, 623872, Note_on_c, 0, 68, 67
2, 624000, Note_off_c, 0, 68, 67
2, 624000, Note_on_c, 0, 67, 67
2, 624128, Note_off_c, 0, 67, 67
2, 624128, Note_off_c, 0, 74, 67
2, 624128, Note_on_c, 0, 65, 67
2, 624128, Note_on_c, 0, 70, 67
2, 624256, Note_off_c, 0, 65, 67
2, 624256, Note_on_c, 0, 67, 67
2, 624384, Note_off_c, 0, 67, 67
2, 624384, Note_off_c, 0, 70, 67
2, 624384, Note_on_c, 0, 65, 67
2, 624384, Note_on_c, 0, 68, 67
2, 624512, Note_off_c, 0, 68, 67
2, 624512, Note_on_c, 0, 70, 67
2, 624640, Note_off_c, 0, 65, 67
2, 624640, Note_off_c, 0, 70, 67
2, 624640, Note_on_c, 0, 70, 67
2, 624640, Note_on_c, 0, 74, 67
2, 624768, Note_off_c, 0, 70, 67
2, 624768, Note_off_c, 0, 74, 67
2, 624768, Note_on_c, 0, 65, 67
2, 624768, Note_on_c, 0, 70, 67
2, 624896, Note_off_c, 0, 65, 67
2, 624896, Note_off_c, 0, 70, 67
2, 624896, Note_on_c, 0, 70, 67
2, 624896, Note_on_c, 0, 74, 67
2, 625024, Note_off_c, 0, 70, 67
2, 625024, Note_off_c, 0, 74, 67
2, 625024, Note_on_c, 0, 74, 67
2, 625024, Note_on_c, 0, 79, 67
2, 625280, Note_off_c, 0, 74, 67
2, 625280, Note_off_c, 0, 79, 67
2, 625280, Note_on_c, 0, 72, 67
2, 625280, Note_on_c, 0, 77, 67
2, 625408, Note_off_c, 0, 72, 67
2, 625408, Note_on_c, 0, 70, 67
2, 625536, Note_off_c, 0, 70, 67
2, 625536, Note_off_c, 0, 77, 67
2, 625536, Note_on_c, 0, 68, 67
2, 625536, Note_on_c, 0, 74, 67
2, 625664, Note_off_c, 0, 68, 67
2, 625664, Note_off_c, 0, 74, 67
2, 625664, Note_on_c, 0, 67, 67
2, 625664, Note_on_c, 0, 75, 67
2, 625792, Note_off_c, 0, 67, 67
2, 625792, Note_off_c, 0, 75, 67
2, 625792, Note_on_c, 0, 70, 67
2, 625792, Note_on_c, 0, 79, 67
2, 625920, Note_off_c, 0, 70, 67
2, 625920, Note_on_c, 0, 72, 67
2, 626048, Note_off_c, 0, 72, 67
2, 626048, Note_on_c, 0, 74, 67
2, 626176, Note_off_c, 0, 74, 67
2, 626176, Note_off_c, 0, 79, 67
2, 626176, Note_on_c, 0, 70, 67
2, 626176, Note_on_c, 0, 75, 67
2, 626304, Note_off_c, 0, 75, 67
2, 626304, Note_on_c, 0, 74, 67
2, 626432, Note_off_c, 0, 70, 67
2, 626432, Note_off_c, 0, 74, 67
2, 626432, Note_on_c, 0, 65, 67
2, 626432, Note_on_c, 0, 72, 67
2, 626560, Note_off_c, 0, 72, 67
2, 626560, Note_on_c, 0, 70, 67
2, 626688, Note_off_c, 0, 65, 67
2, 626688, Note_off_c, 0, 70, 67
2, 626688, Note_on_c, 0, 67, 67
2, 626688, Note_on_c, 0, 75, 67
2, 626816, Note_off_c, 0, 67, 67
2, 626816, Note_off_c, 0, 75, 67
2, 626816, Note_on_c, 0, 66, 67
2, 626816, Note_on_c, 0, 70, 67
2, 626944, Note_off_c, 0, 66, 67
2, 626944, Note_off_c, 0, 70, 67
2, 626944, Note_on_c, 0, 67, 67
2, 626944, Note_on_c, 0, 75, 67
2, 627072, Note_off_c, 0, 67, 67
2, 627072, Note_off_c, 0, 75, 67
2, 627072, Note_on_c, 0, 75, 67
2, 627072, Note_on_c, 0, 82, 67
2, 627328, Note_off_c, 0, 75, 67
2, 627328, Note_off_c, 0, 82, 67
2, 627328, Note_on_c, 0, 74, 67
2, 627328, Note_on_c, 0, 80, 67
2, 627456, Note_off_c, 0, 74, 67
2, 627456, Note_on_c, 0, 72, 67
2, 627584, Note_off_c, 0, 72, 67
2, 627584, Note_off_c, 0, 80, 67
2, 627584, Note_on_c, 0, 70, 67
2, 627584, Note_on_c, 0, 79, 67
2, 627712, Note_off_c, 0, 70, 67
2, 627712, Note_off_c, 0, 79, 67
2, 627712, Note_on_c, 0, 72, 67
2, 627712, Note_on_c, 0, 77, 67
2, 627840, Note_off_c, 0, 72, 67
2, 627840, Note_off_c, 0, 77, 67
2, 627840, Note_on_c, 0, 70, 67
2, 627840, Note_on_c, 0, 74, 67
2, 627968, Note_off_c, 0, 70, 67
2, 627968, Note_on_c, 0, 68, 67
2, 628096, Note_off_c, 0, 68, 67
2, 628096, Note_on_c, 0, 67, 67
2, 628224, Note_off_c, 0, 67, 67
2, 628224, Note_off_c, 0, 74, 67
2, 628224, Note_on_c, 0, 65, 67
2, 628224, Note_on_c, 0, 70, 67
2, 628352, Note_off_c, 0, 65, 67
2, 628352, Note_on_c, 0, 67, 67
2, 628480, Note_off_c, 0, 67, 67
2, 628480, Note_off_c, 0, 70, 67
2, 628480, Note_on_c, 0, 65, 67
2, 628480, Note_on_c, 0, 68, 67
2, 628608, Note_off_c, 0, 68, 67
2, 628608, Note_on_c, 0, 70, 67
2, 628736, Note_off_c, 0, 65, 67
2, 628736, Note_off_c, 0, 70, 67
2, 628736, Note_on_c, 0, 70, 67
2, 628736, Note_on_c, 0, 74, 67
2, 628864, Note_off_c, 0, 70, 67
2, 628864, Note_off_c, 0, 74, 67
2, 628864, Note_on_c, 0, 65, 67
2, 628864, Note_on_c, 0, 70, 67
2, 628992, Note_off_c, 0, 65, 67
2, 628992, Note_off_c, 0, 70, 67
2, 628992, Note_on_c, 0, 70, 67
2, 628992, Note_on_c, 0, 74, 67
2, 629120, Note_off_c, 0, 70, 67
2, 629120, Note_off_c, 0, 74, 67
2, 629120, Note_on_c, 0, 74, 67
2, 629120, Note_on_c, 0, 79, 67
2, 629376, Note_off_c, 0, 74, 67
2, 629376, Note_off_c, 0, 79, 67
2, 629376, Note_on_c, 0, 72, 67
2, 629376, Note_on_c, 0, 77, 67
2, 629504, Note_off_c, 0, 72, 67
2, 629504, Note_on_c, 0, 70, 67
2, 629632, Note_off_c, 0, 70, 67
2, 629632, Note_off_c, 0, 77, 67
2, 629632, Note_on_c, 0, 68, 67
2, 629632, Note_on_c, 0, 74, 67
2, 629760, Note_off_c, 0, 68, 67
2, 629760, Note_off_c, 0, 74, 67
2, 629760, Note_on_c, 0, 67, 67
2, 629760, Note_on_c, 0, 75, 67
2, 629888, Note_off_c, 0, 67, 67
2, 629888, Note_on_c, 0, 65, 67
2, 630016, Note_off_c, 0, 65, 67
2, 630016, Note_on_c, 0, 63, 67
2, 630144, Note_off_c, 0, 63, 67
2, 630144, Note_on_c, 0, 65, 67
2, 630272, Note_off_c, 0, 65, 67
2, 630272, Note_off_c, 0, 75, 67
2, 630272, Note_on_c, 0, 63, 67
2, 630272, Note_on_c, 0, 67, 67
2, 630400, Note_off_c, 0, 67, 67
2, 630400, Note_on_c, 0, 68, 67
2, 630528, Note_off_c, 0, 63, 67
2, 630528, Note_off_c, 0, 68, 67
2, 630528, Note_on_c, 0, 65, 67
2, 630528, Note_on_c, 0, 70, 67
2, 630656, Note_off_c, 0, 70, 67
2, 630656, Note_on_c, 0, 72, 67
2, 630784, Note_off_c, 0, 65, 67
2, 630784, Note_off_c, 0, 72, 67
2, 630784, Note_on_c, 0, 79, 67
2, 631296, Note_off_c, 0, 79, 67
2, 631296, Note_on_c, 0, 82, 67
2, 631552, Control_c, 0, 93, 0
2, 631552, Note_on_c, 0, 68, 67
2, 631680, Note_off_c, 0, 68, 67
2, 631680, Note_on_c, 0, 70, 67
2, 631808, Note_off_c, 0, 70, 67
2, 631808, Note_off_c, 0, 82, 67
2, 631808, Note_on_c, 0, 72, 67
2, 631808, Note_on_c, 0, 80, 67
2, 631936, Note_off_c, 0, 72, 67
2, 631936, Note_off_c, 0, 80, 67
2, 631936, Note_on_c, 0, 70, 67
2, 631936, Note_on_c, 0, 82, 67
2, 632064, Note_off_c, 0, 70, 67
2, 632064, Note_off_c, 0, 82, 67
2, 632064, Note_on_c, 0, 68, 67
2, 632064, Note_on_c, 0, 80, 67
2, 632192, Note_off_c, 0, 80, 67
2, 632192, Note_on_c, 0, 79, 67
2, 632320, Note_off_c, 0, 68, 67
2, 632320, Note_off_c, 0, 79, 67
2, 632320, Note_on_c, 0, 65, 67
2, 632320, Note_on_c, 0, 77, 67
2, 632448, Note_off_c, 0, 65, 67
2, 632448, Note_on_c, 0, 67, 67
2, 632576, Note_off_c, 0, 67, 67
2, 632576, Note_on_c, 0, 68, 67
2, 632704, Note_off_c, 0, 68, 67
2, 632704, Note_on_c, 0, 70, 67
2, 632832, Note_off_c, 0, 70, 67
2, 632832, Note_off_c, 0, 77, 67
2, 632832, Note_on_c, 0, 68, 67
2, 632832, Note_on_c, 0, 74, 67
2, 632960, Note_off_c, 0, 68, 67
2, 632960, Note_on_c, 0, 67, 67
2, 633088, Note_off_c, 0, 67, 67
2, 633088, Note_on_c, 0, 65, 67
2, 633344, Note_off_c, 0, 65, 67
2, 633344, Note_off_c, 0, 74, 67
2, 633344, Note_on_c, 0, 77, 67
2, 633600, Control_c, 0, 93, 0
2, 633600, Note_on_c, 0, 65, 67
2, 633728, Note_off_c, 0, 65, 67
2, 633728, Note_on_c, 0, 70, 67
2, 633856, Note_off_c, 0, 70, 67
2, 633856, Note_off_c, 0, 77, 67
2, 633856, Note_on_c, 0, 67, 67
2, 633856, Note_on_c, 0, 79, 67
2, 633984, Note_off_c, 0, 67, 67
2, 633984, Note_off_c, 0, 79, 67
2, 633984, Note_on_c, 0, 68, 67
2, 633984, Note_on_c, 0, 80, 67
2, 634112, Note_off_c, 0, 68, 67
2, 634112, Note_off_c, 0, 80, 67
2, 634112, Note_on_c, 0, 70, 67
2, 634112, Note_on_c, 0, 79, 67
2, 634240, Note_off_c, 0, 70, 67
2, 634240, Note_off_c, 0, 79, 67
2, 634240, Note_on_c, 0, 72, 67
2, 634240, Note_on_c, 0, 77, 67
2, 634368, Note_off_c, 0, 72, 67
2, 634368, Note_off_c, 0, 77, 67
2, 634368, Note_on_c, 0, 70, 67
2, 634368, Note_on_c, 0, 75, 67
2, 634880, Note_off_c, 0, 70, 67
2, 634880, Note_off_c, 0, 75, 67
2, 634880, Note_on_c, 0, 75, 67
2, 634880, Note_on_c, 0, 79, 67
2, 635008, Note_off_c, 0, 75, 67
2, 635008, Note_on_c, 0, 74, 67
2, 635136, Note_off_c, 0, 74, 67
2, 635136, Note_on_c, 0, 72, 67
2, 635392, Note_off_c, 0, 72, 67
2, 635392, Note_off_c, 0, 79, 67
2, 635392, Note_on_c, 0, 70, 67
2, 635392, Note_on_c, 0, 82, 67
2, 635520, Note_off_c, 0, 70, 67
2, 635520, Note_on_c, 0, 72, 67
2, 635648, Note_off_c, 0, 72, 67
2, 635648, Note_on_c, 0, 74, 67
2, 635776, Note_off_c, 0, 74, 67
2, 635776, Note_on_c, 0, 75, 67
2, 635904, Note_off_c, 0, 75, 67
2, 635904, Note_off_c, 0, 82, 67
2, 635904, Note_on_c, 0, 77, 67
2, 635904, Note_on_c, 0, 80, 67
2, 636032, Note_off_c, 0, 77, 67
2, 636032, Note_off_c, 0, 80, 67
2, 636032, Note_on_c, 0, 75, 67
2, 636032, Note_on_c, 0, 79, 67
2, 636160, Note_off_c, 0, 75, 67
2, 636160, Note_off_c, 0, 79, 67
2, 636160, Note_on_c, 0, 74, 67
2, 636160, Note_on_c, 0, 80, 67
2, 636288, Note_off_c, 0, 80, 67
2, 636288, Note_on_c, 0, 82, 67
2, 636416, Note_off_c, 0, 74, 67
2, 636416, Note_off_c, 0, 82, 67
2, 636416, Note_on_c, 0, 72, 67
2, 636416, Note_on_c, 0, 84, 67
2, 636544, Note_off_c, 0, 72, 67
2, 636544, Note_on_c, 0, 74, 67
2, 636672, Note_off_c, 0, 74, 67
2, 636672, Note_on_c, 0, 75, 67
2, 636800, Note_off_c, 0, 75, 67
2, 636800, Note_on_c, 0, 77, 67
2, 636928, Note_off_c, 0, 77, 67
2, 636928, Note_off_c, 0, 84, 67
2, 636928, Note_on_c, 0, 74, 67
2, 636928, Note_on_c, 0, 82, 67
2, 637056, Note_off_c, 0, 74, 67
2, 637056, Note_on_c, 0, 72, 67
2, 637184, Note_off_c, 0, 72, 67
2, 637184, Note_off_c, 0, 82, 67
2, 637184, Note_on_c, 0, 70, 67
2, 637184, Note_on_c, 0, 80, 67
2, 637312, Note_off_c, 0, 80, 67
2, 637312, Note_on_c, 0, 79, 67
2, 637440, Note_off_c, 0, 70, 67
2, 637440, Note_off_c, 0, 79, 67
2, 637440, Note_on_c, 0, 68, 67
2, 637440, Note_on_c, 0, 80, 67
2, 637568, Note_off_c, 0, 68, 67
2, 637568, Note_on_c, 0, 70, 67
2, 637696, Note_off_c, 0, 70, 67
2, 637696, Note_on_c, 0, 72, 67
2, 637824, Note_off_c, 0, 72, 67
2, 637824, Note_on_c, 0, 68, 67
2, 637952, Note_off_c, 0, 68, 67
2, 637952, Note_off_c, 0, 80, 67
2, 637952, Note_on_c, 0, 70, 67
2, 637952, Note_on_c, 0, 79, 67
2, 638080, Note_off_c, 0, 70, 67
2, 638080, Note_off_c, 0, 79, 67
2, 638080, Note_on_c, 0, 68, 67
2, 638080, Note_on_c, 0, 80, 67
2, 638208, Note_off_c, 0, 68, 67
2, 638208, Note_off_c, 0, 80, 67
2, 638208, Note_on_c, 0, 67, 67
2, 638208, Note_on_c, 0, 79, 67
2, 638336, Note_off_c, 0, 67, 67
2, 638336, Note_off_c, 0, 79, 67
2, 638336, Note_on_c, 0, 65, 67
2, 638336, Note_on_c, 0, 77, 67
2, 638464, Note_off_c, 0, 65, 67
2, 638464, Note_off_c, 0, 77, 67
2, 638464, Note_on_c, 0, 63, 67
2, 638464, Note_on_c, 0, 75, 67
2, 638592, Note_off_c, 0, 63, 67
2, 638592, Note_on_c, 0, 65, 67
2, 638720, Note_off_c, 0, 65, 67
2, 638720, Note_on_c, 0, 67, 67
2, 638848, Note_off_c, 0, 67, 67
2, 638848, Note_on_c, 0, 68, 67
2, 638976, Note_off_c, 0, 68, 67
2, 638976, Note_off_c, 0, 75, 67
2, 638976, Time_signature, 4, 2, 24, 8
2, 638976, Key_signature, -3, "major"
2, 638976, Note_on_c, 0, 67, 67
2, 638976, Note_on_c, 0, 75, 67
2, 639104, Note_off_c, 0, 67, 67
2, 639104, Note_off_c, 0, 75, 67
2, 639104, Note_on_c, 0, 66, 67
2, 639104, Note_on_c, 0, 70, 67
2, 639232, Note_off_c, 0, 66, 67
2, 639232, Note_off_c, 0, 70, 67
2, 639232, Note_on_c, 0, 67, 67
2, 639232, Note_on_c, 0, 75, 67
2, 639360, Note_off_c, 0, 67, 67
2, 639360, Note_off_c, 0, 75, 67
2, 639360, Note_on_c, 0, 75, 67
2, 639360, Note_on_c, 0, 82, 67
2, 639616, Note_off_c, 0, 75, 67
2, 639616, Note_off_c, 0, 82, 67
2, 639616, Note_on_c, 0, 74, 67
2, 639616, Note_on_c, 0, 80, 67
2, 639744, Note_off_c, 0, 74, 67
2, 639744, Note_on_c, 0, 72, 67
2, 639872, Note_off_c, 0, 72, 67
2, 639872, Note_off_c, 0, 80, 67
2, 639872, Note_on_c, 0, 70, 67
2, 639872, Note_on_c, 0, 79, 67
2, 640000, Note_off_c, 0, 70, 67
2, 640000, Note_off_c, 0, 79, 67
2, 640000, Note_on_c, 0, 72, 67
2, 640000, Note_on_c, 0, 77, 67
2, 640128, Note_off_c, 0, 72, 67
2, 640128, Note_off_c, 0, 77, 67
2, 640128, Note_on_c, 0, 70, 67
2, 640128, Note_on_c, 0, 74, 67
2, 640256, Note_off_c, 0, 70, 67
2, 640256, Note_on_c, 0, 68, 67
2, 640384, Note_off_c, 0, 68, 67
2, 640384, Note_on_c, 0, 67, 67
2, 640512, Note_off_c, 0, 67, 67
2, 640512, Note_off_c, 0, 74, 67
2, 640512, Note_on_c, 0, 65, 67
2, 640512, Note_on_c, 0, 70, 67
2, 640640, Note_off_c, 0, 65, 67
2, 640640, Note_on_c, 0, 67, 67
2, 640768, Note_off_c, 0, 67, 67
2, 640768, Note_off_c, 0, 70, 67
2, 640768, Note_on_c, 0, 65, 67
2, 640768, Note_on_c, 0, 68, 67
2, 640896, Note_off_c, 0, 68, 67
2, 640896, Note_on_c, 0, 70, 67
2, 641024, Note_off_c, 0, 65, 67
2, 641024, Note_off_c, 0, 70, 67
2, 641024, Note_on_c, 0, 70, 67
2, 641024, Note_on_c, 0, 74, 67
2, 641152, Note_off_c, 0, 70, 67
2, 641152, Note_off_c, 0, 74, 67
2, 641152, Note_on_c, 0, 65, 67
2, 641152, Note_on_c, 0, 70, 67
2, 641280, Note_off_c, 0, 65, 67
2, 641280, Note_off_c, 0, 70, 67
2, 641280, Note_on_c, 0, 70, 67
2, 641280, Note_on_c, 0, 74, 67
2, 641408, Note_off_c, 0, 70, 67
2, 641408, Note_off_c, 0, 74, 67
2, 641408, Note_on_c, 0, 74, 67
2, 641408, Note_on_c, 0, 79, 67
2, 641664, Note_off_c, 0, 74, 67
2, 641664, Note_off_c, 0, 79, 67
2, 641664, Note_on_c, 0, 72, 67
2, 641664, Note_on_c, 0, 77, 67
2, 641792, Note_off_c, 0, 72, 67
2, 641792, Note_on_c, 0, 70, 67
2, 641920, Note_off_c, 0, 70, 67
2, 641920, Note_off_c, 0, 77, 67
2, 641920, Note_on_c, 0, 68, 67
2, 641920, Note_on_c, 0, 74, 67
2, 642048, Note_off_c, 0, 68, 67
2, 642048, Note_off_c, 0, 74, 67
2, 642048, Note_on_c, 0, 67, 67
2, 642048, Note_on_c, 0, 75, 67
2, 642176, Note_off_c, 0, 67, 67
2, 642176, Note_off_c, 0, 75, 67
2, 642176, Note_on_c, 0, 70, 67
2, 642176, Note_on_c, 0, 79, 67
2, 642304, Note_off_c, 0, 70, 67
2, 642304, Note_on_c, 0, 72, 67
2, 642432, Note_off_c, 0, 72, 67
2, 642432, Note_on_c, 0, 74, 67
2, 642560, Note_off_c, 0, 74, 67
2, 642560, Note_off_c, 0, 79, 67
2, 642560, Note_on_c, 0, 70, 67
2, 642560, Note_on_c, 0, 75, 67
2, 642688, Note_off_c, 0, 75, 67
2, 642688, Note_on_c, 0, 74, 67
2, 642816, Note_off_c, 0, 70, 67
2, 642816, Note_off_c, 0, 74, 67
2, 642816, Note_on_c, 0, 65, 67
2, 642816, Note_on_c, 0, 72, 67
2, 642944, Note_off_c, 0, 72, 67
2, 642944, Note_on_c, 0, 70, 67
2, 643072, Note_off_c, 0, 65, 67
2, 643072, Note_off_c, 0, 70, 67
2, 643072, Note_on_c, 0, 67, 67
2, 643072, Note_on_c, 0, 75, 67
2, 643200, Note_off_c, 0, 67, 67
2, 643200, Note_off_c, 0, 75, 67
2, 643200, Note_on_c, 0, 66, 67
2, 643200, Note_on_c, 0, 70, 67
2, 643328, Note_off_c, 0, 66, 67
2, 643328, Note_off_c, 0, 70, 67
2, 643328, Note_on_c, 0, 67, 67
2, 643328, Note_on_c, 0, 75, 67
2, 643456, Note_off_c, 0, 67, 67
2, 643456, Note_off_c, 0, 75, 67
2, 643456, Note_on_c, 0, 75, 67
2, 643456, Note_on_c, 0, 82, 67
2, 643712, Note_off_c, 0, 75, 67
2, 643712, Note_off_c, 0, 82, 67
2, 643712, Note_on_c, 0, 74, 67
2, 643712, Note_on_c, 0, 80, 67
2, 643840, Note_off_c, 0, 74, 67
2, 643840, Note_on_c, 0, 72, 67
2, 643968, Note_off_c, 0, 72, 67
2, 643968, Note_off_c, 0, 80, 67
2, 643968, Note_on_c, 0, 70, 67
2, 643968, Note_on_c, 0, 79, 67
2, 644096, Note_off_c, 0, 70, 67
2, 644096, Note_off_c, 0, 79, 67
2, 644096, Note_on_c, 0, 72, 67
2, 644096, Note_on_c, 0, 77, 67
2, 644224, Note_off_c, 0, 72, 67
2, 644224, Note_off_c, 0, 77, 67
2, 644224, Note_on_c, 0, 70, 67
2, 644224, Note_on_c, 0, 74, 67
2, 644352, Note_off_c, 0, 70, 67
2, 644352, Note_on_c, 0, 68, 67
2, 644480, Note_off_c, 0, 68, 67
2, 644480, Note_on_c, 0, 67, 67
2, 644608, Note_off_c, 0, 67, 67
2, 644608, Note_off_c, 0, 74, 67
2, 644608, Note_on_c, 0, 65, 67
2, 644608, Note_on_c, 0, 70, 67
2, 644736, Note_off_c, 0, 65, 67
2, 644736, Note_on_c, 0, 67, 67
2, 644864, Note_off_c, 0, 67, 67
2, 644864, Note_off_c, 0, 70, 67
2, 644864, Note_on_c, 0, 65, 67
2, 644864, Note_on_c, 0, 68, 67
2, 644992, Note_off_c, 0, 68, 67
2, 644992, Note_on_c, 0, 70, 67
2, 645120, Note_off_c, 0, 65, 67
2, 645120, Note_off_c, 0, 70, 67
2, 645120, Note_on_c, 0, 70, 67
2, 645120, Note_on_c, 0, 74, 67
2, 645248, Note_off_c, 0, 70, 67
2, 645248, Note_off_c, 0, 74, 67
2, 645248, Note_on_c, 0, 65, 67
2, 645248, Note_on_c, 0, 70, 67
2, 645376, Note_off_c, 0, 65, 67
2, 645376, Note_off_c, 0, 70, 67
2, 645376, Note_on_c, 0, 70, 67
2, 645376, Note_on_c, 0, 74, 67
2, 645504, Note_off_c, 0, 70, 67
2, 645504, Note_off_c, 0, 74, 67
2, 645504, Note_on_c, 0, 74, 67
2, 645504, Note_on_c, 0, 79, 67
2, 645760, Note_off_c, 0, 74, 67
2, 645760, Note_off_c, 0, 79, 67
2, 645760, Note_on_c, 0, 72, 67
2, 645760, Note_on_c, 0, 77, 67
2, 645888, Note_off_c, 0, 72, 67
2, 645888, Note_on_c, 0, 70, 67
2, 646016, Note_off_c, 0, 70, 67
2, 646016, Note_off_c, 0, 77, 67
2, 646016, Note_on_c, 0, 68, 67
2, 646016, Note_on_c, 0, 74, 67
2, 646144, Note_off_c, 0, 68, 67
2, 646144, Note_off_c, 0, 74, 67
2, 646144, Note_on_c, 0, 67, 67
2, 646144, Note_on_c, 0, 75, 67
2, 646272, Note_off_c, 0, 67, 67
2, 646272, Note_on_c, 0, 65, 67
2, 646400, Note_off_c, 0, 65, 67
2, 646400, Note_on_c, 0, 63, 67
2, 646528, Note_off_c, 0, 63, 67
2, 646528, Note_on_c, 0, 65, 67
2, 646656, Note_off_c, 0, 65, 67
2, 646656, Note_off_c, 0, 75, 67
2, 646656, Note_on_c, 0, 63, 67
2, 646656, Note_on_c, 0, 67, 67
2, 646784, Note_off_c, 0, 67, 67
2, 646784, Note_on_c, 0, 68, 67
2, 646912, Note_off_c, 0, 63, 67
2, 646912, Note_off_c, 0, 68, 67
2, 646912, Note_on_c, 0, 65, 67
2, 646912, Note_on_c, 0, 70, 67
2, 647040, Note_off_c, 0, 70, 67
2, 647040, Note_on_c, 0, 72, 67
2, 647168, Note_off_c, 0, 65, 67
2, 647168, Note_off_c, 0, 72, 67
2, 647168, Note_on_c, 0, 79, 67
2, 647680, Note_off_c, 0, 79, 67
2, 647680, Note_on_c, 0, 82, 67
2, 647936, Control_c, 0, 93, 0
2, 647936, Note_on_c, 0, 68, 67
2, 648064, Note_off_c, 0, 68, 67
2, 648064, Note_on_c, 0, 70, 67
2, 648192, Note_off_c, 0, 70, 67
2, 648192, Note_off_c, 0, 82, 67
2, 648192, Note_on_c, 0, 72, 67
2, 648192, Note_on_c, 0, 80, 67
2, 648320, Note_off_c, 0, 72, 67
2, 648320, Note_off_c, 0, 80, 67
2, 648320, Note_on_c, 0, 70, 67
2, 648320, Note_on_c, 0, 82, 67
2, 648448, Note_off_c, 0, 70, 67
2, 648448, Note_off_c, 0, 82, 67
2, 648448, Note_on_c, 0, 68, 67
2, 648448, Note_on_c, 0, 80, 67
2, 648576, Note_off_c, 0, 80, 67
2, 648576, Note_on_c, 0, 79, 67
2, 648704, Note_off_c, 0, 68, 67
2, 648704, Note_off_c, 0, 79, 67
2, 648704, Note_on_c, 0, 65, 67
2, 648704, Note_on_c, 0, 77, 67
2, 648832, Note_off_c, 0, 65, 67
2, 648832, Note_on_c, 0, 67, 67
2, 648960, Note_off_c, 0, 67, 67
2, 648960, Note_on_c, 0, 68, 67
2, 649088, Note_off_c, 0, 68, 67
2, 649088, Note_on_c, 0, 70, 67
2, 649216, Note_off_c, 0, 70, 67
2, 649216, Note_off_c, 0, 77, 67
2, 649216, Note_on_c, 0, 68, 67
2, 649216, Note_on_c, 0, 74, 67
2, 649344, Note_off_c, 0, 68, 67
2, 649344, Note_on_c, 0, 67, 67
2, 649472, Note_off_c, 0, 67, 67
2, 649472, Note_on_c, 0, 65, 67
2, 649728, Note_off_c, 0, 65, 67
2, 649728, Note_off_c, 0, 74, 67
2, 649728, Note_on_c, 0, 77, 67
2, 649984, Control_c, 0, 93, 0
2, 649984, Note_on_c, 0, 65, 67
2, 650112, Note_off_c, 0, 65, 67
2, 650112, Note_on_c, 0, 70, 67
2, 650240, Note_off_c, 0, 70, 67
2, 650240, Note_off_c, 0, 77, 67
2, 650240, Note_on_c, 0, 67, 67
2, 650240, Note_on_c, 0, 79, 67
2, 650368, Note_off_c, 0, 67, 67
2, 650368, Note_off_c, 0, 79, 67
2, 650368, Note_on_c, 0, 68, 67
2, 650368, Note_on_c, 0, 80, 67
2, 650496, Note_off_c, 0, 68, 67
2, 650496, Note_off_c, 0, 80, 67
2, 650496, Note_on_c, 0, 70, 67
2, 650496, Note_on_c, 0, 79, 67
2, 650624, Note_off_c, 0, 70, 67
2, 650624, Note_off_c, 0, 79, 67
2, 650624, Note_on_c, 0, 72, 67
2, 650624, Note_on_c, 0, 77, 67
2, 650752, Note_off_c, 0, 72, 67
2, 650752, Note_off_c, 0, 77, 67
2, 650752, Note_on_c, 0, 70, 67
2, 650752, Note_on_c, 0, 75, 67
2, 651264, Note_off_c, 0, 70, 67
2, 651264, Note_off_c, 0, 75, 67
2, 651264, Note_on_c, 0, 75, 67
2, 651264, Note_on_c, 0, 79, 67
2, 651392, Note_off_c, 0, 75, 67
2, 651392, Note_on_c, 0, 74, 67
2, 651520, Note_off_c, 0, 74, 67
2, 651520, Note_on_c, 0, 72, 67
2, 651776, Note_off_c, 0, 72, 67
2, 651776, Note_off_c, 0, 79, 67
2, 651776, Note_on_c, 0, 70, 67
2, 651776, Note_on_c, 0, 82, 67
2, 651904, Note_off_c, 0, 70, 67
2, 651904, Note_on_c, 0, 72, 67
2, 652032, Note_off_c, 0, 72, 67
2, 652032, Note_on_c, 0, 74, 67
2, 652160, Note_off_c, 0, 74, 67
2, 652160, Note_on_c, 0, 75, 67
2, 652288, Note_off_c, 0, 75, 67
2, 652288, Note_off_c, 0, 82, 67
2, 652288, Note_on_c, 0, 77, 67
2, 652288, Note_on_c, 0, 80, 67
2, 652416, Note_off_c, 0, 77, 67
2, 652416, Note_off_c, 0, 80, 67
2, 652416, Note_on_c, 0, 75, 67
2, 652416, Note_on_c, 0, 79, 67
2, 652544, Note_off_c, 0, 75, 67
2, 652544, Note_off_c, 0, 79, 67
2, 652544, Note_on_c, 0, 74, 67
2, 652544, Note_on_c, 0, 80, 67
2, 652672, Note_off_c, 0, 80, 67
2, 652672, Note_on_c, 0, 82, 67
2, 652800, Note_off_c, 0, 74, 67
2, 652800, Note_off_c, 0, 82, 67
2, 652800, Note_on_c, 0, 72, 67
2, 652800, Note_on_c, 0, 84, 67
2, 652928, Note_off_c, 0, 72, 67
2, 652928, Note_on_c, 0, 74, 67
2, 653056, Note_off_c, 0, 74, 67
2, 653056, Note_on_c, 0, 75, 67
2, 653184, Note_off_c, 0, 75, 67
2, 653184, Note_on_c, 0, 77, 67
2, 653312, Note_off_c, 0, 77, 67
2, 653312, Note_off_c, 0, 84, 67
2, 653312, Note_on_c, 0, 74, 67
2, 653312, Note_on_c, 0, 82, 67
2, 653440, Note_off_c, 0, 74, 67
2, 653440, Note_on_c, 0, 72, 67
2, 653568, Note_off_c, 0, 72, 67
2, 653568, Note_off_c, 0, 82, 67
2, 653568, Note_on_c, 0, 70, 67
2, 653568, Note_on_c, 0, 80, 67
2, 653696, Note_off_c, 0, 80, 67
2, 653696, Note_on_c, 0, 79, 67
2, 653824, Note_off_c, 0, 70, 67
2, 653824, Note_off_c, 0, 79, 67
2, 653824, Note_on_c, 0, 68, 67
2, 653824, Note_on_c, 0, 80, 67
2, 653952, Note_off_c, 0, 68, 67
2, 653952, Note_on_c, 0, 70, 67
2, 654080, Note_off_c, 0, 70, 67
2, 654080, Note_on_c, 0, 72, 67
2, 654208, Note_off_c, 0, 72, 67
2, 654208, Note_on_c, 0, 68, 67
2, 654336, Note_off_c, 0, 68, 67
2, 654336, Note_off_c, 0, 80, 67
2, 654336, Note_on_c, 0, 70, 67
2, 654336, Note_on_c, 0, 79, 67
2, 654464, Note_off_c, 0, 70, 67
2, 654464, Note_off_c, 0, 79, 67
2, 654464, Note_on_c, 0, 68, 67
2, 654464, Note_on_c, 0, 80, 67
2, 654592, Note_off_c, 0, 68, 67
2, 654592, Note_off_c, 0, 80, 67
2, 654592, Note_on_c, 0, 67, 67
2, 654592, Note_on_c, 0, 79, 67
2, 654720, Note_off_c, 0, 67, 67
2, 654720, Note_off_c, 0, 79, 67
2, 654720, Note_on_c, 0, 65, 67
2, 654720, Note_on_c, 0, 77, 67
2, 654848, Note_off_c, 0, 65, 67
2, 654848, Note_off_c, 0, 77, 67
2, 654848, Note_on_c, 0, 63, 67
2, 654848, Note_on_c, 0, 75, 67
2, 654976, Note_off_c, 0, 63, 67
2, 654976, Note_on_c, 0, 65, 67
2, 655104, Note_off_c, 0, 65, 67
2, 655104, Note_on_c, 0, 67, 67
2, 655232, Note_off_c, 0, 67, 67
2, 655232, Note_on_c, 0, 68, 67
2, 655360, Note_off_c, 0, 68, 67
2, 655360, Note_off_c, 0, 75, 67
2, 655360, Time_signature, 4, 2, 24, 8
2, 655360, Key_signature, -3, "major"
2, 655360, Note_on_c, 0, 67, 67
2, 655360, Note_on_c, 0, 75, 67
2, 655488, Note_off_c, 0, 67, 67
2, 655488, Note_off_c, 0, 75, 67
2, 655488, Note_on_c, 0, 66, 67
2, 655488, Note_on_c, 0, 70, 67
2, 655616, Note_off_c, 0, 66, 67
2, 655616, Note_off_c, 0, 70, 67
2, 655616, Note_on_c, 0, 67, 67
2, 655616, Note_on_c, 0, 75, 67
2, 655744, Note_off_c, 0, 67, 67
2, 655744, Note_off_c, 0, 75, 67
2, 655744, Note_on_c, 0, 75, 67
2, 655744, Note_on_c, 0, 82, 67
2, 656000, Note_off_c, 0, 75, 67
2, 656000, Note_off_c, 0, 82, 67
2, 656000, Note_on_c, 0, 74, 67
2, 656000, Note_on_c, 0, 80, 67
2, 656128, Note_off_c, 0, 74, 67
2, 656128, Note_on_c, 0, 72, 67
2, 656256, Note_off_c, 0, 72, 67
2, 656256, Note_off_c, 0, 80, 67
2, 656256, Note_on_c, 0, 70, 67
2, 656256, Note_on_c, 0, 79, 67
2, 656384, Note_off_c, 0, 70, 67
2, 656384, Note_off_c, 0, 79, 67
2, 656384, Note_on_c, 0, 72, 67
2, 656384, Note_on_c, 0, 77, 67
2, 656512, Note_off_c, 0, 72, 67
2, 656512, Note_off_c, 0, 77, 67
2, 656512, Note_on_c, 0, 70, 67
2, 656512, Note_on_c, 0, 74, 67
2, 656640, Note_off_c, 0, 70, 67
2, 656640, Note_on_c, 0, 68, 67
2, 656768, Note_off_c, 0, 68, 67
2, 656768, Note_on_c, 0, 67, 67
2, 656896, Note_off_c, 0, 67, 67
2, 656896, Note_off_c, 0, 74, 67
2, 656896, Note_on_c, 0, 65, 67
2, 656896, Note_on_c, 0, 70, 67
2, 657024, Note_off_c, 0, 65, 67
2, 657024, Note_on_c, 0, 67, 67
2, 657152, Note_off_c, 0, 67, 67
2, 657152, Note_off_c, 0, 70, 67
2, 657152, Note_on_c, 0, 65, 67
2, 657152, Note_on_c, 0, 68, 67
2, 657280, Note_off_c, 0, 68, 67
2, 657280, Note_on_c, 0, 70, 67
2, 657408, Note_off_c, 0, 65, 67
2, 657408, Note_off_c, 0, 70, 67
2, 657408, Note_on_c, 0, 70, 67
2, 657408, Note_on_c, 0, 74, 67
2, 657536, Note_off_c, 0, 70, 67
2, 657536, Note_off_c, 0, 74, 67
2, 657536, Note_on_c, 0, 65, 67
2, 657536, Note_on_c, 0, 70, 67
2, 657664, Note_off_c, 0, 65, 67
2, 657664, Note_off_c, 0, 70, 67
2, 657664, Note_on_c, 0, 70, 67
2, 657664, Note_on_c, 0, 74, 67
2, 657792, Note_off_c, 0, 70, 67
2, 657792, Note_off_c, 0, 74, 67
2, 657792, Note_on_c, 0, 74, 67
2, 657792, Note_on_c, 0, 79, 67
2, 658048, Note_off_c, 0, 74, 67
2, 658048, Note_off_c, 0, 79, 67
2, 658048, Note_on_c, 0, 72, 67
2, 658048, Note_on_c, 0, 77, 67
2, 658176, Note_off_c, 0, 72, 67
2, 658176, Note_on_c, 0, 70, 67
2, 658304, Note_off_c, 0, 70, 67
2, 658304, Note_off_c, 0, 77, 67
2, 658304, Note_on_c, 0, 68, 67
2, 658304, Note_on_c, 0, 74, 67
2, 658432, Note_off_c, 0, 68, 67
2, 658432, Note_off_c, 0, 74, 67
2, 658432, Note_on_c, 0, 67, 67
2, 658432, Note_on_c, 0, 75, 67
2, 658560, Note_off_c, 0, 67, 67
2, 658560, Note_off_c, 0, 75, 67
2, 658560, Note_on_c, 0, 70, 67
2, 658560, Note_on_c, 0, 79, 67
2, 658688, Note_off_c, 0, 70, 67
2, 658688, Note_on_c, 0, 72, 67
2, 658816, Note_off_c, 0, 72, 67
2, 658816, Note_on_c, 0, 74, 67
2, 658944, Note_off_c, 0, 74, 67
2, 658944, Note_off_c, 0, 79, 67
2, 658944, Note_on_c, 0, 70, 67
2, 658944, Note_on_c, 0, 75, 67
2, 659072, Note_off_c, 0, 75, 67
2, 659072, Note_on_c, 0, 74, 67
2, 659200, Note_off_c, 0, 70, 67
2, 659200, Note_off_c, 0, 74, 67
2, 659200, Note_on_c, 0, 65, 67
2, 659200, Note_on_c, 0, 72, 67
2, 659328, Note_off_c, 0, 72, 67
2, 659328, Note_on_c, 0, 70, 67
2, 659456, Note_off_c, 0, 65, 67
2, 659456, Note_off_c, 0, 70, 67
2, 659456, Note_on_c, 0, 67, 67
2, 659456, Note_on_c, 0, 75, 67
2, 659584, Note_off_c, 0, 67, 67
2, 659584, Note_off_c, 0, 75, 67
2, 659584, Note_on_c, 0, 66, 67
2, 659584, Note_on_c, 0, 70, 67
2, 659712, Note_off_c, 0, 66, 67
2, 659712, Note_off_c, 0, 70, 67
2, 659712, Note_on_c, 0, 67, 67
2, 659712, Note_on_c, 0, 75, 67
2, 659840, Note_off_c, 0, 67, 67
2, 659840, Note_off_c, 0, 75, 67
2, 659840, Note_on_c, 0, 75, 67
2, 659840, Note_on_c, 0, 82, 67
2, 660096, Note_off_c, 0, 75, 67
2, 660096, Note_off_c, 0, 82, 67
2, 660096, Note_on_c, 0, 74, 67
2, 660096, Note_on_c, 0, 80, 67
2, 660224, Note_off_c, 0, 74, 67
2, 660224, Note_on_c, 0, 72, 67
2, 660352, Note_off_c, 0, 72, 67
2, 660352, Note_off_c, 0, 80, 67
2, 660352, Note_on_c, 0, 70, 67
2, 660352, Note_on_c, 0, 79, 67
2, 660480, Note_off_c, 0, 70, 67
2, 660480, Note_off_c, 0, 79, 67
2, 660480, Note_on_c, 0, 72, 67
2, 660480, Note_on_c, 0, 77, 67
2, 660608, Note_off_c, 0, 72, 67
2, 660608, Note_off_c, 0, 77, 67
2, 660608, Note_on_c, 0, 70, 67
2, 660608, Note_on_c, 0, 74, 67
2, 660736, Note_off_c, 0, 70, 67
2, 660736, Note_on_c, 0, 68, 67
2, 660864, Note_off_c, 0, 68, 67
2, 660864, Note_on_c, 0, 67, 67
2, 660992, Note_off_c, 0, 67, 67
2, 660992, Note_off_c, 0, 74, 67
2, 660992, Note_on_c, 0, 65, 67
2, 660992, Note_on_c, 0, 70, 67
2, 661120, Note_off_c, 0, 65, 67
2, 661120, Note_on_c, 0, 67, 67
2, 661248, Note_off_c, 0, 67, 67
2, 661248, Note_off_c, 0, 70, 67
2, 661248, Note_on_c, 0, 65, 67
2, 661248, Note_on_c, 0, 68, 67
2, 661376, Note_off_c, 0, 68, 67
2, 661376, Note_on_c, 0, 70, 67
2, 661504, Note_off_c, 0, 65, 67
2, 661504, Note_off_c, 0, 70, 67
2, 661504, Note_on_c, 0, 70, 67
2, 661504, Note_on_c, 0, 74, 67
2, 661632, Note_off_c, 0, 70, 67
2, 661632, Note_off_c, 0, 74, 67
2, 661632, Note_on_c, 0, 65, 67
2, 661632, Note_on_c, 0, 70, 67
2, 661760, Note_off_c, 0, 65, 67
2, 661760, Note_off_c, 0, 70, 67
2, 661760, Note_on_c, 0, 70, 67
2, 661760, Note_on_c, 0, 74, 67
2, 661888, Note_off_c, 0, 70, 67
2, 661888, Note_off_c, 0, 74, 67
2, 661888, Note_on_c, 0, 74, 67
2, 661888, Note_on_c, 0, 79, 67
2, 662144, Note_off_c, 0, 74, 67
2, 662144, Note_off_c, 0, 79, 67
2, 662144, Note_on_c, 0, 72, 67
2, 662144, Note_on_c, 0, 77, 67
2, 662272, Note_off_c, 0, 72, 67
2, 662272, Note_on_c, 0, 70, 67
2, 662400, Note_off_c, 0, 70, 67
2, 662400, Note_off_c, 0, 77, 67
2, 662400, Note_on_c, 0, 68, 67
2, 662400, Note_on_c, 0, 74, 67
2, 662528, Note_off_c, 0, 68, 67
2, 662528, Note_off_c, 0, 74, 67
2, 662528, Note_on_c, 0, 67, 67
2, 662528, Note_on_c, 0, 75, 67
2, 662656, Note_off_c, 0, 67, 67
2, 662656, Note_on_c, 0, 65, 67
2, 662784, Note_off_c, 0, 65, 67
2, 662784, Note_on_c, 0, 63, 67
2, 662912, Note_off_c, 0, 63, 67
2, 662912, Note_on_c, 0, 65, 67
2, 663040, Note_off_c, 0, 65, 67
2, 663040, Note_off_c, 0, 75, 67
2, 663040, Note_on_c, 0, 63, 67
2, 663040, Note_on_c, 0, 67, 67
2, 663168, Note_off_c, 0, 67, 67
2, 663168, Note_on_c, 0, 68, 67
2, 663296, Note_off_c, 0, 63, 67
2, 663296, Note_off_c, 0, 68, 67
2, 663296, Note_on_c, 0, 65, 67
2, 663296, Note_on_c, 0, 70, 67
2, 663424, Note_off_c, 0, 70, 67
2, 663424, Note_on_c, 0, 72, 67
2, 663552, Note_off_c, 0, 65, 67
2, 663552, Note_off_c, 0, 72, 67
2, 663552, Note_on_c, 0, 79, 67
2, 664064, Note_off_c, 0, 79, 67
2, 664064, Note_on_c, 0, 82, 67
2, 664320, Control_c, 0, 93, 0
2, 664320, Note_on_c, 0, 68, 67
2, 664448, Note_off_c, 0, 68, 67
2, 664448, Note_on_c, 0, 70, 67
2, 664576, Note_off_c, 0, 70, 67
2, 664576, Note_off_c, 0, 82, 67
2, 664576, Note_on_c, 0, 72, 67
2, 664576, Note_on_c, 0, 80, 67
2, 664704, Note_off_c, 0, 72, 67
2, 664704, Note_off_c, 0, 80, 67
2, 664704, Note_on_c, 0, 70, 67
2, 664704, Note_on_c, 0, 82, 67
2, 664832, Note_off_c, 0, 70, 67
2, 664832, Note_off_c, 0, 82, 67
2, 664832, Note_on_c, 0, 68, 67
2, 664832, Note_on_c, 0, 80, 67
2, 664960, Note_off_c, 0, 80, 67
2, 664960, Note_on_c, 0, 79, 67
2, 665088, Note_off_c, 0, 68, 67
2, 665088, Note_off_c, 0, 79, 67
2, 665088, Note_on_c, 0, 65, 67
2, 665088, Note_on_c, 0, 77, 67
2, 665216, Note_off_c, 0, 65, 67
2, 665216, Note_on_c, 0, 67, 67
2, 665344, Note_off_c, 0, 67, 67
2, 665344, Note_on_c, 0, 68, 67
2, 665472, Note_off_c, 0, 68, 67
2, 665472, Note_on_c, 0, 70, 67
2, 665600, Note_off_c, 0, 70, 67
2, 665600, Note_off_c, 0, 77, 67
2, 665600, Note_on_c, 0, 68, 67
2, 665600, Note_on_c, 0, 74, 67
2, 665728, Note_off_c, 0, 68, 67
2, 665728, Note_on_c, 0, 67, 67
2, 665856, Note_off_c, 0, 67, 67
2, 665856, Note_on_c, 0, 65, 67
2, 666112, Note_off_c, 0, 65, 67
2, 666112, Note_off_c, 0, 74, 67
2, 666112, Note_on_c, 0, 77, 67
2, 666368, Control_c, 0, 93, 0
2, 666368, Note_on_c, 0, 65, 67
2, 666496, Note_off_c, 0, 65, 67
2, 666496, Note_on_c, 0, 70, 67
2, 666624, Note_off_c, 0, 70, 67
2, 666624, Note_off_c, 0, 77, 67
2, 666624, Note_on_c, 0, 67, 67
2, 666624, Note_on_c, 0, 79, 67
2, 666752, Note_off_c, 0, 67, 67
2, 666752, Note_off_c, 0, 79, 67
2, 666752, Note_on_c, 0, 68, 67
2, 666752, Note_on_c, 0, 80, 67
2, 666880, Note_off_c, 0, 68, 67
2, 666880, Note_off_c, 0, 80, 67
2, 666880, Note_on_c, 0, 70, 67
2, 666880, Note_on_c, 0, 79, 67
2, 667008, Note_off_c, 0, 70, 67
2, 667008, Note_off_c, 0, 79, 67
2, 667008, Note_on_c, 0, 72, 67
2, 667008, Note_on_c, 0, 77, 67
2, 667136, Note_off_c, 0, 72, 67
2, 667136, Note_off_c, 0, 77, 67
2, 667136, Note_on_c, 0, 70, 67
2, 667136, Note_on_c, 0, 75, 67
2, 667648, Note_off_c, 0, 70, 67
2, 667648, Note_off_c, 0, 75, 67
2, 667648, Note_on_c, 0, 75, 67
2, 667648, Note_on_c, 0, 79, 67
2, 667776, Note_off_c, 0, 75, 67
2, 667776, Note_on_c, 0, 74, 67
2, 667904, Note_off_c, 0, 74, 67
2, 667904, Note_on_c, 0, 72, 67
2, 668160, Note_off_c, 0, 72, 67
2, 668160, Note_off_c, 0, 79, 67
2, 668160, Note_on_c, 0, 70, 67
2, 668160, Note_on_c, 0, 82, 67
2, 668288, Note_off_c, 0, 70, 67
2, 668288, Note_on_c, 0, 72, 67
2, 668416, Note_off_c, 0, 72, 67
2, 668416, Note_on_c, 0, 74, 67
2, 668544, Note_off_c, 0, 74, 67
2, 668544, Note_on_c, 0, 75, 67
2, 668672, Note_off_c, 0, 75, 67
2, 668672, Note_off_c, 0, 82, 67
2, 668672, Note_on_c, 0, 77, 67
2, 668672, Note_on_c, 0, 80, 67
2, 668800, Note_off_c, 0, 77, 67
2, 668800, Note_off_c, 0, 80, 67
2, 668800, Note_on_c, 0, 75, 67
2, 668800, Note_on_c, 0, 79, 67
2, 668928, Note_off_c, 0, 75, 67
2, 668928, Note_off_c, 0, 79, 67
2, 668928, Note_on_c, 0, 74, 67
2, 668928, Note_on_c, 0, 80, 67
2, 669056, Note_off_c, 0, 80, 67
2, 669056, Note_on_c, 0, 82, 67
2, 669184, Note_off_c, 0, 74, 67
2, 669184, Note_off_c, 0, 82, 67
2, 669184, Note_on_c, 0, 72, 67
2, 669184, Note_on_c, 0, 84, 67
2, 669312, Note_off_c, 0, 72, 67
2, 669312, Note_on_c, 0, 74, 67
2, 669440, Note_off_c, 0, 74, 67
2, 669440, Note_on_c, 0, 75, 67
2, 669568, Note_off_c, 0, 75, 67
2, 669568, Note_on_c, 0, 77, 67
2, 669696, Note_off_c, 0, 77, 67
2, 669696, Note_off_c, 0, 84, 67
2, 669696, Note_on_c, 0, 74, 67
2, 669696, Note_on_c, 0, 82, 67
2, 669824, Note_off_c, 0, 74, 67
2, 669824, Note_on_c, 0, 72, 67
2, 669952, Note_off_c, 0, 72, 67
2, 669952, Note_off_c, 0, 82, 67
2, 669952, Note_on_c, 0, 70, 67
2, 669952, Note_on_c, 0, 80, 67
2, 670080, Note_off_c, 0, 80, 67
2, 670080, Note_on_c, 0, 79, 67
2, 670208, Note_off_c, 0, 70, 67
2, 670208, Note_off_c, 0, 79, 67
2, 670208, Note_on_c, 0, 68, 67
2, 670208, Note_on_c, 0, 80, 67
2, 670336, Note_off_c, 0, 68, 67
2, 670336, Note_on_c, 0, 70, 67
2, 670464, Note_off_c, 0, 70, 67
2, 670464, Note_on_c, 0, 72, 67
2, 670592, Note_off_c, 0, 72, 67
2, 670592, Note_on_c, 0, 68, 67
2, 670720, Note_off_c, 0, 68, 67
2, 670720, Note_off_c, 0, 80, 67
2, 670720, Note_on_c, 0, 70, 67
2, 670720, Note_on_c, 0, 79, 67
2, 670848, Note_off_c, 0, 70, 67
2, 670848, Note_off_c, 0, 79, 67
2, 670848, Note_on_c, 0, 68, 67
2, 670848, Note_on_c, 0, 80, 67
2, 670976, Note_off_c, 0, 68, 67
2, 670976, Note_off_c, 0, 80, 67
2, 670976, Note_on_c, 0, 67, 67
2, 670976, Note_on_c, 0, 79, 67
2, 671104, Note_off_c, 0, 67, 67
2, 671104, Note_off_c, 0, 79, 67
2, 671104, Note_on_c, 0, 65, 67
2, 671104, Note_on_c, 0, 77, 67
2, 671232, Note_off_c, 0, 65, 67
2, 671232, Note_off_c, 0, 77, 67
2, 671232, Note_on_c, 0, 63, 67
2, 671232, Note_on_c, 0, 75, 67
2, 671360, Note_off_c, 0, 63, 67
2, 671360, Note_on_c, 0, 65, 67
2, 671488, Note_off_c, 0, 65, 67
2, 671488, Note_on_c, 0, 67, 67
2, 671616, Note_off_c, 0, 67, 67
2, 671616, Note_on_c, 0, 68, 67
2, 671744, Note_off_c, 0, 68, 67
2, 671744, Note_off_c, 0, 75, 67
2, 671744, Time_signature, 4, 2, 24, 8
2, 671744, Key_signature, -3, "major"
2, 671744, Note_on_c, 0, 67, 67
2, 671744, Note_on_c, 0, 75, 67
2, 671872, Note_off_c, 0, 67, 67
2, 671872, Note_off_c, 0, 75, 67
2, 671872, Note_on_c, 0, 66, 67
2, 671872, Note_on_c, 0, 70, 67
2, 672000, Note_off_c, 0, 66, 67
2, 672000, Note_off_c, 0, 70, 67
2, 672000, Note_on_c, 0, 67, 67
2, 672000, Note_on_c, 0, 75, 67
2, 672128, Note_off_c, 0, 67, 67
2, 672128, Note_off_c, 0, 75, 67
2, 672128, Note_on_c, 0, 75, 67
2, 672128, Note_on_c, 0, 82, 67
2, 672384, Note_off_c, 0, 75, 67
2, 672384, Note_off_c, 0, 82, 67
2, 672384, Note_on_c, 0, 74, 67
2, 672384, Note_on_c, 0, 80, 67
2, 672512, Note_off_c, 0, 74, 67
2, 672512, Note_on_c, 0, 72, 67
2, 672640, Note_off_c, 0, 72, 67
2, 672640, Note_off_c, 0, 80, 67
2, 672640, Note_on_c, 0, 70, 67
2, 672640, Note_on_c, 0, 79, 67
2, 672768, Note_off_c, 0, 70, 67
2, 672768, Note_off_c, 0, 79, 67
2, 672768, Note_on_c, 0, 72, 67
2, 672768, Note_on_c, 0, 77, 67
2, 672896, Note_off_c, 0, 72, 67
2, 672896, Note_off_c, 0, 77, 67
2, 672896, Note_on_c, 0, 70, 67
2, 672896, Note_on_c, 0, 74, 67
2, 673024, Note_off_c, 0, 70, 67
2, 673024, Note_on_c, 0, 68, 67
2, 673152, Note_off_c, 0, 68, 67
2, 673152, Note_on_c, 0, 67, 67
2, 673280, Note_off_c, 0, 67, 67
2, 673280, Note_off_c, 0, 74, 67
2, 673280, Note_on_c, 0, 65, 67
2, 673280, Note_on_c, 0, 70, 67
2, 673408, Note_off_c, 0, 65, 67
2, 673408, Note_on_c, 0, 67, 67
2, 673536, Note_off_c, 0, 67, 67
2, 673536, Note_off_c, 0, 70, 67
2, 673536, Note_on_c, 0, 65, 67
2, 673536, Note_on_c, 0, 68, 67
2, 673664, Note_off_c, 0, 68, 67
2, 673664, Note_on_c, 0, 70, 67
2, 673792, Note_off_c, 0, 65, 67
2, 673792, Note_off_c, 0, 70, 67
2, 673792, Note_on_c, 0, 70, 67
2, 673792, Note_on_c, 0, 74, 67
2, 673920, Note_off_c, 0, 70, 67
2, 673920, Note_off_c, 0, 74, 67
2, 673920, Note_on_c, 0, 65, 67
2, 673920, Note_on_c, 0, 70, 67
2, 674048, Note_off_c, 0, 65, 67
2, 674048, Note_off_c, 0, 70, 67
2, 674048, Note_on_c, 0, 70, 67
2, 674048, Note_on_c, 0, 74, 67
2, 674176, Note_off_c, 0, 70, 67
2, 674176, Note_off_c, 0, 74, 67
2, 674176, Note_on_c, 0, 74, 67
2, 674176, Note_on_c, 0, 79, 67
2, 674432, Note_off_c, 0, 74, 67
2, 674432, Note_off_c, 0, 79, 67
2, 674432, Note_on_c, 0, 72, 67
2, 674432, Note_on_c, 0, 77, 67
2, 674560, Note_off_c, 0, 72, 67
2, 674560, Note_on_c, 0, 70, 67
2, 674688, Note_off_c, 0, 70, 67
2, 674688, Note_off_c, 0, 77, 67
2, 674688, Note_on_c, 0, 68, 67
2, 674688, Note_on_c, 0, 74, 67
2, 674816, Note_off_c, 0, 68, 67
2, 674816, Note_off_c, 0, 74, 67
2, 674816, Note_on_c, 0, 67, 67
2, 674816, Note_on_c, 0, 75, 67
2, 674944, Note_off_c, 0, 67, 67
2, 674944, Note_off_c, 0, 75, 67
2, 674944, Note_on_c, 0, 70, 67
2, 674944, Note_on_c, 0, 79, 67
2, 675072, Note_off_c, 0, 70, 67
2, 675072, Note_on_c, 0, 72, 67
2, 675200, Note_off_c, 0, 72, 67
2, 675200, Note_on_c, 0, 74, 67
2, 675328, Note_off_c, 0, 74, 67
2, 675328, Note_off_c, 0, 79, 67
2, 675328, Note_on_c, 0, 70, 67
2, 675328, Note_on_c, 0, 75, 67
2, 675456, Note_off_c, 0, 75, 67
2, 675456, Note_on_c, 0, 74, 67
2, 675584, Note_off_c, 0, 70, 67
2, 675584, Note_off_c, 0, 74, 67
2, 675584, Note_on_c, 0, 65, 67
2, 675584, Note_on_c, 0, 72, 67
2, 675712, Note_off_c, 0, 72, 67
2, 675712, Note_on_c, 0, 70, 67
2, 675840, Note_off_c, 0, 65, 67
2, 675840, Note_off_c, 0, 70, 67
2, 675840, Note_on_c, 0, 67, 67
2, 675840, Note_on_c, 0, 75, 67
2, 675968, Note_off_c, 0, 67, 67
2, 675968, Note_off_c, 0, 75, 67
2, 675968, Note_on_c, 0, 66, 67
2, 675968, Note_on_c, 0, 70, 67
2, 676096, Note_off_c, 0, 66, 67
2, 676096, Note_off_c, 0, 70, 67
2, 676096, Note_on_c, 0, 67, 67
2, 676096, Note_on_c, 0, 75, 67
2, 676224, Note_off_c, 0, 67, 67
2, 676224, Note_off_c, 0, 75, 67
2, 676224, Note_on_c, 0, 75, 67
2, 676224, Note_on_c, 0, 82, 67
2, 676480, Note_off_c, 0, 75, 67
2, 676480, Note_off_c, 0, 82, 67
2, 676480, Note_on_c, 0, 74, 67
2, 676480, Note_on_c, 0, 80, 67
2, 676608, Note_off_c, 0, 74, 67
2, 676608, Note_on_c, 0, 72, 67
2, 676736, Note_off_c, 0, 72, 67
2, 676736, Note_off_c, 0, 80, 67
2, 676736, Note_on_c, 0, 70, 67
2, 676736, Note_on_c, 0, 79, 67
2, 676864, Note_off_c, 0, 70, 67
2, 676864, Note_off_c, 0, 79, 67
2, 676864, Note_on_c, 0, 72, 67
2, 676864, Note_on_c, 0, 77, 67
2, 676992, Note_off_c, 0, 72, 67
2, 676992, Note_off_c, 0, 77, 67
2, 676992, Note_on_c, 0, 70, 67
2, 676992, Note_on_c, 0, 74, 67
2, 677120, Note_off_c, 0, 70, 67
2, 677120, Note_on_c, 0, 68, 67
2, 677248, Note_off_c, 0, 68, 67
2, 677248, Note_on_c, 0, 67, 67
2, 677376, Note_off_c, 0, 67, 67
2, 677376, Note_off_c, 0, 74, 67
2, 677376, Note_on_c, 0, 65, 67
2, 677376, Note_on_c, 0, 70, 67
2, 677504, Note_off_c, 0, 65, 67
2, 677504, Note_on_c, 0, 67, 67
2, 677632, Note_off_c, 0, 67, 67
2, 677632, Note_off_c, 0, 70, 67
2, 677632, Note_on_c, 0, 65, 67
2, 677632, Note_on_c, 0, 68, 67
2, 677760, Note_off_c, 0, 68, 67
2, 677760, Note_on_c, 0, 70, 67
2, 677888, Note_off_c, 0, 65, 67
2, 677888, Note_off_c, 0, 70, 67
2, 677888, Note_on_c, 0, 70, 67
2, 677888, Note_on_c, 0, 74, 67
2, 678016, Note_off_c, 0, 70, 67
2, 678016, Note_off_c, 0, 74, 67
2, 678016, Note_on_c, 0, 65, 67
2, 678016, Note_on_c, 0, 70, 67
2, 678144, Note_off_c, 0, 65, 67
2, 678144, Note_off_c, 0, 70, 67
2, 678144, Note_on_c, 0, 70, 67
2, 678144, Note_on_c, 0, 74, 67
2, 678272, Note_off_c, 0, 70, 67
2, 678272, Note_off_c, 0, 74, 67
2, 678272, Note_on_c, 0, 74, 67
2, 678272, Note_on_c, 0, 79, 67
2, 678528, Note_off_c, 0, 74, 67
2, 678528, Note_off_c, 0, 79, 67
2, 678528, Note_on_c, 0, 72, 67
2, 678528, Note_on_c, 0, 77, 67
2, 678656, Note_off_c, 0, 72, 67
2, 678656, Note_on_c, 0, 70, 67
2, 678784, Note_off_c, 0, 70, 67
2, 678784, Note_off_c, 0, 77, 67
2, 678784, Note_on_c, 0, 68, 67
2, 678784, Note_on_c, 0, 74, 67
2, 678912, Note_off_c, 0, 68, 67
2, 678912, Note_off_c, 0, 74, 67
2, 678912, Note_on_c, 0, 67, 67
2, 678912, Note_on_c, 0, 75, 67
2, 679040, Note_off_c, 0, 67, 67
2, 679040, Note_on_c, 0, 65, 67
2, 679168, Note_off_c, 0, 65, 67
2, 679168, Note_on_c, 0, 63, 67
2, 679296, Note_off_c, 0, 63, 67
2, 679296, Note_on_c, 0, 65, 67
2, 679424, Note_off_c, 0, 65, 67
2, 679424, Note_off_c, 0, 75, 67
2, 679424, Note_on_c, 0, 63, 67
2, 679424, Note_on_c, 0, 67, 67
2, 679552, Note_off_c, 0, 67, 67
2, 679552, Note_on_c, 0, 68, 67
2, 679680, Note_off_c, 0, 63, 67
2, 679680, Note_off_c, 0, 68, 67
2, 679680, Note_on_c, 0, 65, 67
2, 679680, Note_on_c, 0, 70, 67
2, 679808, Note_off_c, 0, 70, 67
2, 679808, Note_on_c, 0, 72, 67
2, 679936, Note_off_c, 0, 65, 67
2, 679936, Note_off_c, 0, 72, 67
2, 679936, Note_on_c, 0, 79, 67
2, 680448, Note_off_c, 0, 79, 67
2, 680448, Note_on_c, 0, 82, 67
2, 680704, Control_c, 0, 93, 0
2, 680704, Note_on_c, 0, 68, 67
2, 680832, Note_off_c, 0, 68, 67
2, 680832, Note_on_c, 0, 70, 67
2, 680960, Note_off_c, 0, 70, 67
2, 680960, Note_off_c, 0, 82, 67
2, 680960, Note_on_c, 0, 72, 67
2, 680960, Note_on_c, 0, 80, 67
2, 681088, Note_off_c, 0, 72, 67
2, 681088, Note_off_c, 0, 80, 67
2, 681088, Note_on_c, 0, 70, 67
2, 681088, Note_on_c, 0, 82, 67
2, 681216, Note_off_c, 0, 70, 67
2, 681216, Note_off_c, 0, 82, 67
2, 681216, Note_on_c, 0, 68, 67
2, 681216, Note_on_c, 0, 80, 67
2, 681344, Note_off_c, 0, 80, 67
2, 681344, Note_on_c, 0, 79, 67
2, 681472, Note_off_c, 0, 68, 67
2, 681472, Note_off_c, 0, 79, 67
2, 681472, Note_on_c, 0, 65, 67
2, 681472, Note_on_c, 0, 77, 67
2, 681600, Note_off_c, 0, 65, 67
2, 681600, Note_on_c, 0, 67, 67
2, 681728, Note_off_c, 0, 67, 67
2, 681728, Note_on_c, 0, 68, 67
2, 681856, Note_off_c, 0, 68, 67
2, 681856, Note_on_c, 0, 70, 67
2, 681984, Note_off_c, 0, 70, 67
2, 681984, Note_off_c, 0, 77, 67
2, 681984, Note_on_c, 0, 68, 67
2, 681984, Note_on_c, 0, 74, 67
2, 682112, Note_off_c, 0, 68, 67
2, 682112, Note_on_c, 0, 67, 67
2, 682240, Note_off_c, 0, 67, 67
2, 682240, Note_on_c, 0, 65, 67
2, 682496, Note_off_c, 0, 65, 67
2, 682496, Note_off_c, 0, 74, 67
2, 682496, Note_on_c, 0, 77, 67
2, 682752, Control_c, 0, 93, 0
2, 682752, Note_on_c, 0, 65, 67
2, 682880, Note_off_c, 0, 65, 67
2, 682880, Note_on_c, 0, 70, 67
2, 683008, Note_off_c, 0, 70, 67
2, 683008, Note_off_c, 0, 77, 67
2, 683008, Note_on_c, 0, 67, 67
2, 683008, Note_on_c, 0, 79, 67
2, 683136, Note_off_c, 0, 67, 67
2, 683136, Note_off_c, 0, 79, 67
2, 683136, Note_on_c, 0, 68, 67
2, 683136, Note_on_c, 0, 80, 67
2, 683264, Note_off_c, 0, 68, 67
2, 683264, Note_off_c, 0, 80, 67
2, 683264, Note_on_c, 0, 70, 67
2, 683264, Note_on_c, 0, 79, 67
2, 683392, Note_off_c, 0, 70, 67
2, 683392, Note_off_c, 0, 79, 67
2, 683392, Note_on_c, 0, 72, 67
2, 683392, Note_on_c, 0, 77, 67
2, 683520, Note_off_c, 0, 72, 67
2, 683520, Note_off_c, 0, 77, 67
2, 683520, Note_on_c, 0, 70, 67
2, 683520, Note_on_c, 0, 75, 67
2, 684032, Note_off_c, 0, 70, 67
2, 684032, Note_off_c, 0, 75, 67
2, 684032, Note_on_c, 0, 75, 67
2, 684032, Note_on_c, 0, 79, 67
2, 684160, Note_off_c, 0, 75, 67
2, 684160, Note_on_c, 0, 74, 67
2, 684288, Note_off_c, 0, 74, 67
2, 684288, Note_on_c, 0, 72, 67
2, 684544, Note_off_c, 0, 72, 67
2, 684544, Note_off_c, 0, 79, 67
2, 684544, Note_on_c, 0, 70, 67
2, 684544, Note_on_c, 0, 82, 67
2, 684672, Note_off_c, 0, 70, 67
2, 684672, Note_on_c, 0, 72, 67
2, 684800, Note_off_c, 0, 72, 67
2, 684800, Note_on_c, 0, 74, 67
2, 684928, Note_off_c, 0, 74, 67
2, 684928, Note_on_c, 0, 75, 67
2, 685056, Note_off_c, 0, 75, 67
2, 685056, Note_off_c, 0, 82, 67
2, 685056, Note_on_c, 0, 77, 67
2, 685056, Note_on_c, 0, 80, 67
2, 685184, Note_off_c, 0, 77, 67
2, 685184, Note_off_c, 0, 80, 67
2, 685184, Note_on_c, 0, 75, 67
2, 685184, Note_on_c, 0, 79, 67
2, 685312, Note_off_c, 0, 75, 67
2, 685312, Note_off_c, 0, 79, 67
2, 685312, Note_on_c, 0, 74, 67
2, 685312, Note_on_c, 0, 80, 67
2, 685440, Note_off_c, 0, 80, 67
2, 685440, Note_on_c, 0, 82, 67
2, 685568, Note_off_c, 0, 74, 67
2, 685568, Note_off_c, 0, 82, 67
2, 685568, Note_on_c, 0, 72, 67
2, 685568, Note_on_c, 0, 84, 67
2, 685696, Note_off_c, 0, 72, 67
2, 685696, Note_on_c, 0, 74, 67
2, 685824, Note_off_c, 0, 74, 67
2, 685824, Note_on_c, 0, 75, 67
2, 685952, Note_off_c, 0, 75, 67
2, 685952, Note_on_c, 0, 77, 67
2, 686080, Note_off_c, 0, 77, 67
2, 686080, Note_off_c, 0, 84, 67
2, 686080, Note_on_c, 0, 74, 67
2, 686080, Note_on_c, 0, 82, 67
2, 686208, Note_off_c, 0, 74, 67
2, 686208, Note_on_c, 0, 72, 67
2, 686336, Note_off_c, 0, 72, 67
2, 686336, Note_off_c, 0, 82, 67
2, 686336, Note_on_c, 0, 70, 67
2, 686336, Note_on_c, 0, 80, 67
2, 686464, Note_off_c, 0, 80, 67
2, 686464, Note_on_c, 0, 79, 67
2, 686592, Note_off_c, 0, 70, 67
2, 686592, Note_off_c, 0, 79, 67
2, 686592, Note_on_c, 0, 68, 67
2, 686592, Note_on_c, 0, 80, 67
2, 686720, Note_off_c, 0, 68, 67
2, 686720, Note_on_c, 0, 70, 67
2, 686848, Note_off_c, 0, 70, 67
2, 686848, Note_on_c, 0, 72, 67
2, 686976, Note_off_c, 0, 72, 67
2, 686976, Note_on_c, 0, 68, 67
2, 687104, Note_off_c, 0, 68, 67
2, 687104, Note_off_c, 0, 80, 67
2, 687104, Note_on_c, 0, 70, 67
2, 687104, Note_on_c, 0, 79, 67
2, 687232, Note_off_c, 0, 70, 67
2, 687232, Note_off_c, 0, 79, 67
2, 687232, Note_on_c, 0, 68, 67
2, 687232, Note_on_c, 0, 80, 67
2, 687360, Note_off_c, 0, 68, 67
2, 687360, Note_off_c, 0, 80, 67
2, 687360, Note_on_c, 0, 67, 67
2, 687360, Note_on_c, 0, 79, 67
2, 687488, Note_off_c, 0, 67, 67
2, 687488, Note_off_c, 0, 79, 67
2, 687488, Note_on_c, 0, 65, 67
2, 687488, Note_on_c, 0, 77, 67
2, 687616, Note_off_c, 0, 65, 67
2, 687616, Note_off_c, 0, 77, 67
2, 687616, Note_on_c, 0, 63, 67
2, 687616, Note_on_c, 0, 75, 67
2, 687744, Note_off_c, 0, 63, 67
2, 687744, Note_on_c, 0, 65, 67
2, 687872, Note_off_c, 0, 65, 67
2, 687872, Note_on_c, 0, 67, 67
2, 688000, Note_off_c, 0, 67, 67
2, 688000, Note_on_c, 0, 68, 67
2, 688128, Note_off_c, 0, 68, 67
2, 688128, Note_off_c, 0, 75, 67
2, 688128, Time_signature, 4, 2, 24, 8
2, 688128, Key_signature, -3, "major"
2, 688128, Note_on_c, 0, 67, 67
2, 688128, Note_on_c, 0, 75, 67
2, 688256, Note_off_c, 0, 67, 67
2, 688256, Note_off_c, 0, 75, 67
2, 688256, Note_on_c, 0, 66, 67
2, 688256, Note_on_c, 0, 70, 67
2, 688384, Note_off_c, 0, 66, 67
2, 688384, Note_off_c, 0, 70, 67
2, 688384, Note_on_c, 0, 67, 67
2, 688384, Note_on_c, 0, 75, 67
2, 688512, Note_off_c, 0, 67, 67
2, 688512, Note_off_c, 0, 75, 67
2, 688512, Note_on_c, 0, 75, 67
2, 688512, Note_on_c, 0, 82, 67
2, 688768, Note_off_c, 0, 75, 67
2, 688768, Note_off_c, 0, 82, 67
2, 688768, Note_on_c, 0, 74, 67
2, 688768, Note_on_c, 0, 80, 67
2, 688896, Note_off_c, 0, 74, 67
2, 688896, Note_on_c, 0, 72, 67
2, 689024, Note_off_c, 0, 72, 67
2, 689024, Note_off_c, 0, 80, 67
2, 689024, Note_on_c, 0, 70, 67
2, 689024, Note_on_c, 0, 79, 67
2, 689152, Note_off_c, 0, 70, 67
2, 689152, Note_off_c, 0, 79, 67
2, 689152, Note_on_c, 0, 72, 67
2, 689152, Note_on_c, 0, 77, 67
2, 689280, Note_off_c, 0, 72, 67
2, 689280, Note_off_c, 0, 77, 67
2, 689280, Note_on_c, 0, 70, 67
2, 689280, Note_on_c, 0, 74, 67
2, 689408, Note_off_c, 0, 70, 67
2, 689408, Note_on_c, 0, 68, 67
2, 689536, Note_off_c, 0, 68, 67
2, 689536, Note_on_c, 0, 67, 67
2, 689664, Note_off_c, 0, 67, 67
2, 689664, Note_off_c, 0, 74, 67
2, 689664, Note_on_c, 0, 65, 67
2, 689664, Note_on_c, 0, 70, 67
2, 689792, Note_off_c, 0, 65, 67
2, 689792, Note_on_c, 0, 67, 67
2, 689920, Note_off_c, 0, 67, 67
2, 689920, Note_off_c, 0, 70, 67
2, 689920, Note_on_c, 0, 65, 67
2, 689920, Note_on_c, 0, 68, 67
2, 690048, Note_off_c, 0, 68, 67
2, 690048, Note_on_c, 0, 70, 67
2, 690176, Note_off_c, 0, 65, 67
2, 690176, Note_off_c, 0, 70, 67
2, 690176, Note_on_c, 0, 70, 67
2, 690176, Note_on_c, 0, 74, 67
2, 690304, Note_off_c, 0, 70, 67
2, 690304, Note_off_c, 0, 74, 67
2, 690304, Note_on_c, 0, 65, 67
2, 690304, Note_on_c, 0, 70, 67
2, 690432, Note_off_c, 0, 65, 67
2, 690432, Note_off_c, 0, 70, 67
2, 690432, Note_on_c, 0, 70, 67
2, 690432, Note_on_c, 0, 74, 67
2, 690560, Note_off_c, 0, 70, 67
2, 690560, Note_off_c, 0, 74, 67
2, 690560, Note_on_c, 0, 74, 67
2, 690560, Note_on_c, 0, 79, 67
2, 690816, Note_off_c, 0, 74, 67
2, 690816, Note_off_c, 0, 79, 67
2, 690816, Note_on_c, 0, 72, 67
2, 690816, Note_on_c, 0, 77, 67
2, 690944, Note_off_c, 0, 72, 67
2, 690944, Note_on_c, 0, 70, 67
2, 691072, Note_off_c, 0, 70, 67
2, 691072, Note_off_c, 0, 77, 67
2, 691072, Note_on_c, 0, 68, 67
2, 691072, Note_on_c, 0, 74, 67
2, 691200, Note_off_c, 0, 68, 67
2, 691200, Note_off_c, 0, 74, 67
2, 691200, Note_on_c, 0, 67, 67
2, 691200, Note_on_c, 0, 75, 67
2, 691328, Note_off_c, 0, 67, 67
2, 691328, Note_off_c, 0, 75, 67
2, 691328, Note_on_c, 0, 70, 67
2, 691328, Note_on_c, 0, 79, 67
2, 691456, Note_off_c, 0, 70, 67
2, 691456, Note_on_c, 0, 72, 67
2, 691584, Note_off_c, 0, 72, 67
2, 691584, Note_on_c, 0, 74, 67
2, 691712, Note_off_c, 0, 74, 67
2, 691712, Note_off_c, 0, 79, 67
2, 691712, Note_on_c, 0, 70, 67
2, 691712, Note_on_c, 0, 75, 67
2, 691840, Note_off_c, 0, 75, 67
2, 691840, Note_on_c, 0, 74, 67
2, 691968, Note_off_c, 0, 70, 67
2, 691968, Note_off_c, 0, 74, 67
2, 691968, Note_on_c, 0, 65, 67
2, 691968, Note_on_c, 0, 72, 67
2, 692096, Note_off_c, 0, 72, 67
2, 692096, Note_on_c, 0, 70, 67
2, 692224, Note_off_c, 0, 65, 67
2, 692224, Note_off_c, 0, 70, 67
2, 692224, Note_on_c, 0, 67, 67
2, 692224, Note_on_c, 0, 75, 67
2, 692352, Note_off_c, 0, 67, 67
2, 692352, Note_off_c, 0, 75, 67
2, 692352, Note_on_c, 0, 66, 67
2, 692352, Note_on_c, 0, 70, 67
2, 692480, Note_off_c, 0, 66, 67
2, 692480, Note_off_c, 0, 70, 67
2, 692480, Note_on_c, 0, 67, 67
2, 692480, Note_on_c, 0, 75, 67
2, 692608, Note_off_c, 0, 67, 67
2, 692608, Note_off_c, 0, 75, 67
2, 692608, Note_on_c, 0, 75, 67
2, 692608, Note_on_c, 0, 82, 67
2, 692864, Note_off_c, 0, 75, 67
2, 692864, Note_off_c, 0, 82, 67
2, 692864, Note_on_c, 0, 74, 67
2, 692864, Note_on_c, 0, 80, 67
2, 692992, Note_off_c, 0, 74, 67
2, 692992, Note_on_c, 0, 72, 67
2, 693120, Note_off_c, 0, 72, 67
2, 693120, Note_off_c, 0, 80, 67
2, 693120, Note_on_c, 0, 70, 67
2, 693120, Note_on_c, 0, 79, 67
2, 693248, Note_off_c, 0, 70, 67
2, 693248, Note_off_c, 0, 79, 67
2, 693248, Note_on_c, 0, 72, 67
2, 693248, Note_on_c, 0, 77, 67
2, 693376, Note_off_c, 0, 72, 67
2, 693376, Note_off_c, 0, 77, 67
2, 693376, Note_on_c, 0, 70, 67
2, 693376, Note_on_c, 0, 74, 67
2, 693504, Note_off_c, 0, 70, 67
2, 693504, Note_on_c, 0, 68, 67
2, 693632, Note_off_c, 0, 68, 67
2, 693632, Note_on_c, 0, 67, 67
2, 693760, Note_off_c, 0, 67, 67
2, 693760, Note_off_c, 0, 74, 67
2, 693760, Note_on_c, 0, 65, 67
2, 693760, Note_on_c, 0, 70, 67
2, 693888, Note_off_c, 0, 65, 67
2, 693888, Note_on_c, 0, 67, 67
2, 694016, Note_off_c, 0, 67, 67
2, 694016, Note_off_c, 0, 70, 67
2, 694016, Note_on_c, 0, 65, 67
2, 694016, Note_on_c, 0, 68, 67
2, 694144, Note_off_c, 0, 68, 67
2, 694144, Note_on_c, 0, 70, 67
2, 694272, Note_off_c, 0, 65, 67
2, 694272, Note_off_c, 0, 70, 67
2, 694272, Note_on_c, 0, 70, 67
2, 694272, Note_on_c, 0, 74, 67
2, 694400, Note_off_c, 0, 70, 67
2, 694400, Note_off_c, 0, 74, 67
2, 694400, Note_on_c, 0, 65, 67
2, 694400, Note_on_c, 0, 70, 67
2, 694528, Note_off_c, 0, 65, 67
2, 694528, Note_off_c, 0, 70, 67
2, 694528, Note_on_c, 0, 70, 67
2, 694528, Note_on_c, 0, 74, 67
2, 694656, Note_off_c, 0, 70, 67
2, 694656, Note_off_c, 0, 74, 67
2, 694656, Note_on_c, 0, 74, 67
2, 694656, Note_on_c, 0, 79, 67
2, 694912, Note_off_c, 0, 74, 67
2, 694912, Note_off_c, 0, 79, 67
2, 694912, Note_on_c, 0, 72, 67
2, 694912, Note_on_c, 0, 77, 67
2, 695040, Note_off_c, 0, 72, 67
2, 695040, Note_on_c, 0, 70, 67
2, 695168, Note_off_c, 0, 70, 67
2, 695168, Note_off_c, 0, 77, 67
2, 695168, Note_on_c, 0, 68, 67
2, 695168, Note_on_c, 0, 74, 67
2, 695296, Note_off_c, 0, 68, 67
2, 695296, Note_off_c, 0, 74, 67
2, 695296, Note_on_c, 0, 67, 67
2, 695296, Note_on_c, 0, 75, 67
2, 695424, Note_off_c, 0, 67, 67
2, 695424, Note_on_c, 0, 65, 67
2, 695552, Note_off_c, 0, 65, 67
2, 695552, Note_on_c, 0, 63, 67
2, 695680, Note_off_c, 0, 63, 67
2, 695680, Note_on_c, 0, 65, 67
2, 695808, Note_off_c, 0, 65, 67
2, 695808, Note_off_c, 0, 75, 67
2, 695808, Note_on_c, 0, 63, 67
2, 695808, Note_on_c, 0, 67, 67
2, 695936, Note_off_c, 0, 67, 67
2, 695936, Note_on_c, 0, 68, 67
2, 696064, Note_off_c, 0, 63, 67
2, 696064, Note_off_c, 0, 68, 67
2, 696064, Note_on_c, 0, 65, 67
2, 696064, Note_on_c, 0, 70, 67
2, 696192, Note_off_c, 0, 70, 67
2, 696192, Note_on_c, 0, 72, 67
2, 696320, Note_off_c, 0, 65, 67
2, 696320, Note_off_c, 0, 72, 67
2, 696320, Note_on_c, 0, 79, 67
2, 696832, Note_off_c, 0, 79, 67
2, 696832, Note_on_c, 0, 82, 67
2, 697088, Control_c, 0, 93, 0
2, 697088, Note_on_c, 0, 68, 67
2, 697216, Note_off_c, 0, 68, 67
2, 697216, Note_on_c, 0, 70, 67
2, 697344, Note_off_c, 0, 70, 67
2, 697344, Note_off_c, 0, 82, 67
2, 697344, Note_on_c, 0, 72, 67
2, 697344, Note_on_c, 0, 80, 67
2, 697472, Note_off_c, 0, 72, 67
2, 697472, Note_off_c, 0, 80, 67
2, 697472, Note_on_c, 0, 70, 67
2, 697472, Note_on_c, 0, 82, 67
2, 697600, Note_off_c, 0, 70, 67
2, 697600, Note_off_c, 0, 82, 67
2, 697600, Note_on_c, 0, 68, 67
2, 697600, Note_on_c, 0, 80, 67
2, 697728, Note_off_c, 0, 80, 67
2, 697728, Note_on_c, 0, 79, 67
2, 697856, Note_off_c, 0, 68, 67
2, 697856, Note_off_c, 0, 79, 67
2, 697856, Note_on_c, 0, 65, 67
2, 697856, Note_on_c, 0, 77, 67
2, 697984, Note_off_c, 0, 65, 67
2, 697984, Note_on_c, 0, 67, 67
2, 698112, Note_off_c, 0, 67, 67
2, 698112, Note_on_c, 0, 68, 67
2, 698240, Note_off_c, 0, 68, 67
2, 698240, Note_on_c, 0, 70, 67
2, 698368, Note_off_c, 0, 70, 67
2, 698368, Note_off_c, 0, 77, 67
2, 698368, Note_on_c, 0, 68, 67
2, 698368, Note_on_c, 0, 74, 67
2, 698496, Note_off_c, 0, 68, 67
2, 698496, Note_on_c, 0, 67, 67
2, 698624, Note_off_c, 0, 67, 67
2, 698624, Note_on_c, 0, 65, 67
2, 698880, Note_off_c, 0, 65, 67
2, 698880, Note_off_c, 0, 74, 67
2, 698880, Note_on_c, 0, 77, 67
2, 699136, Control_c, 0, 93, 0
2, 699136, Note_on_c, 0, 65, 67
2, 699264, Note_off_c, 0, 65, 67
2, 699264, Note_on_c, 0, 70, 67
2, 699392, Note_off_c, 0, 70, 67
2, 699392, Note_off_c, 0, 77, 67
2, 699392, Note_on_c, 0, 67, 67
2, 699392, Note_on_c, 0, 79, 67
2, 699520, Note_off_c, 0, 67, 67
2, 699520, Note_off_c, 0, 79, 67
2, 699520, Note_on_c, 0, 68, 67
2, 699520, Note_on_c, 0, 80, 67
2, 699648, Note_off_c, 0, 68, 67
2, 699648, Note_off_c, 0, 80, 67
2, 699648, Note_on_c, 0, 70, 67
2, 699648, Note_on_c, 0, 79, 67
2, 699776, Note_off_c, 0, 70, 67
2, 699776, Note_off_c, 0, 79, 67
2, 699776, Note_on_c, 0, 72, 67
2, 699776, Note_on_c, 0, 77, 67
2, 699904, Note_off_c, 0, 72, 67
2, 699904, Note_off_c, 0, 77, 67
2, 699904, Note_on_c, 0, 70, 67
2, 699904, Note_on_c, 0, 75, 67
2, 700416, Note_off_c, 0, 70, 67
2, 700416, Note_off_c, 0, 75, 67
2, 700416, Note_on_c, 0, 75, 67
2, 700416, Note_on_c, 0, 79, 67
2, 700544, Note_off_c, 0, 75, 67
2, 700544, Note_on_c, 0, 74, 67
2, 700672, Note_off_c, 0, 74, 67
2, 700672, Note_on_c, 0, 72, 67
2, 700928, Note_off_c, 0, 72, 67
2, 700928, Note_off_c, 0, 79, 67
2, 700928, Note_on_c, 0, 70, 67
2, 700928, Note_on_c, 0, 82, 67
2, 701056, Note_off_c, 0, 70, 67
2, 701056, Note_on_c, 0, 72, 67
2, 701184, Note_off_c, 0, 72, 67
2, 701184, Note_on_c, 0, 74, 67
2, 701312, Note_off_c, 0, 74, 67
2, 701312, Note_on_c, 0, 75, 67
2, 701440, Note_off_c, 0, 75, 67
2, 701440, Note_off_c, 0, 82, 67
2, 701440, Note_on_c, 0, 77, 67
2, 701440, Note_on_c, 0, 80, 67
2, 701568, Note_off_c, 0, 77, 67
2, 701568, Note_off_c, 0, 80, 67
2, 701568, Note_on_c, 0, 75, 67
2, 701568, Note_on_c, 0, 79, 67
2, 701696, Note_off_c, 0, 75, 67
2, 701696, Note_off_c, 0, 79, 67
2, 701696, Note_on_c, 0, 74, 67
2, 701696, Note_on_c, 0, 80, 67
2, 701824, Note_off_c, 0, 80, 67
2, 701824, Note_on_c, 0, 82, 67
2, 701952, Note_off_c, 0, 74, 67
2, 701952, Note_off_c, 0, 82, 67
2, 701952, Note_on_c, 0, 72, 67
2, 701952, Note_on_c, 0, 84, 67
2, 702080, Note_off_c, 0, 72, 67
2, 702080, Note_on_c, 0, 74, 67
2, 702208, Note_off_c, 0, 74, 67
2, 702208, Note_on_c, 0, 75, 67
2, 702336, Note_off_c, 0, 75, 67
2, 702336, Note_on_c, 0, 77, 67
2, 702464, Note_off_c, 0, 77, 67
2, 702464, Note_off_c, 0, 84, 67
2, 702464, Note_on_c, 0, 74, 67
2, 702464, Note_on_c, 0, 82, 67
2, 702592, Note_off_c, 0, 74, 67
2, 702592, Note_on_c, 0, 72, 67
2, 702720, Note_off_c, 0, 72, 67
2, 702720, Note_off_c, 0, 82, 67
2, 702720, Note_on_c, 0, 70, 67
2, 702720, Note_on_c, 0, 80, 67
2, 702848, Note_off_c, 0, 80, 67
2, 702848, Note_on_c, 0, 79, 67
2, 702976, Note_off_c, 0, 70, 67
2, 702976, Note_off_c, 0, 79, 67
2, 702976, Note_on_c, 0, 68, 67
2, 702976, Note_on_c, 0, 80, 67
2, 703104, Note_off_c, 0, 68, 67
2, 703104, Note_on_c, 0, 70, 67
2, 703232, Note_off_c, 0, 70, 67
2, 703232, Note_on_c, 0, 72, 67
2, 703360, Note_off_c, 0, 72, 67
2, 703360, Note_on_c, 0, 68, 67
2, 703488, Note_off_c, 0, 68, 67
2, 703488, Note_off_c, 0, 80, 67
2, 703488, Note_on_c, 0, 70, 67
2, 703488, Note_on_c, 0, 79, 67
2, 703616, Note_off_c, 0, 70, 67
2, 703616, Note_off_c, 0, 79, 67
2, 703616, Note_on_c, 0, 68, 67
2, 703616, Note_on_c, 0, 80, 67
2, 703744, Note_off_c, 0, 68, 67
2, 703744, Note_off_c, 0, 80, 67
2, 703744, Note_on_c, 0, 67, 67
2, 703744, Note_on_c, 0, 79, 67
2, 703872, Note_off_c, 0, 67, 67
2, 703872, Note_off_c, 0, 79, 67
2, 703872, Note_on_c, 0, 65, 67
2, 703872, Note_on_c, 0, 77, 67
2, 704000, Note_off_c, 0, 65, 67
2, 704000, Note_off_c, 0, 77, 67
2, 704000, Note_on_c, 0, 63, 67
2, 704000, Note_on_c, 0, 75, 67
2, 704128, Note_off_c, 0, 63, 67
2, 704128, Note_on_c, 0, 65, 67
2, 704256, Note_off_c, 0, 65, 67
2, 704256, Note_on_c, 0, 67, 67
2, 704384, Note_off_c, 0, 67, 67
2, 704384, Note_on_c, 0, 68, 67
2, 704512, Note_off_c, 0, 68, 67
2, 704512, Note_off_c, 0, 75, 67
2, 704512, Time_signature, 4, 2, 24, 8
2, 704512, Key_signature, -3, "major"
2, 704512, Note_on_c, 0, 67, 67
2, 704512, Note_on_c, 0, 75, 67
2, 704640, Note_off_c, 0, 67, 67
2, 704640, Note_off_c, 0, 75, 67
2, 704640, Note_on_c, 0, 66, 67
2, 704640, Note_on_c, 0, 70, 67
2, 704768, Note_off_c, 0, 66, 67
2, 704768, Note_off_c, 0, 70, 67
2, 704768, Note_on_c, 0, 67, 67
2, 704768, Note_on_c, 0, 75, 67
2, 704896, Note_off_c, 0, 67, 67
2, 704896, Note_off_c, 0, 75, 67
2, 704896, Note_on_c, 0, 75, 67
2, 704896, Note_on_c, 0, 82, 67
2, 705152, Note_off_c, 0, 75, 67
2, 705152, Note_off_c, 0, 82, 67
2, 705152, Note_on_c, 0, 74, 67
2, 705152, Note_on_c, 0, 80, 67
2, 705280, Note_off_c, 0, 74, 67
2, 705280, Note_on_c, 0, 72, 67
2, 705408, Note_off_c, 0, 72, 67
2, 705408, Note_off_c, 0, 80, 67
2, 705408, Note_on_c, 0, 70, 67
2, 705408, Note_on_c, 0, 79, 67
2, 705536, Note_off_c, 0, 70, 67
2, 705536, Note_off_c, 0, 79, 67
2, 705536, Note_on_c, 0, 72, 67
2, 705536, Note_on_c, 0, 77, 67
2, 705664, Note_off_c, 0, 72, 67
2, 705664, Note_off_c, 0, 77, 67
2, 705664, Note_on_c, 0, 70, 67
2, 705664, Note_on_c, 0, 74, 67
2, 705792, Note_off_c, 0, 70, 67
2, 705792, Note_on_c, 0, 68, 67
2, 705920, Note_off_c, 0, 68, 67
2, 705920, Note_on_c, 0, 67, 67
2, 706048, Note_off_c, 0, 67, 67
2, 706048, Note_off_c, 0, 74, 67
2, 706048, Note_on_c, 0, 65, 67
2, 706048, Note_on_c, 0, 70, 67
2, 706176, Note_off_c, 0, 65, 67
2, 706176, Note_on_c, 0, 67, 67
2, 706304, Note_off_c, 0, 67, 67
2, 706304, Note_off_c, 0, 70, 67
2, 706304, Note_on_c, 0, 65, 67
2, 706304, Note_on_c, 0, 68, 67
2, 706432, Note_off_c, 0, 68, 67
2, 706432, Note_on_c, 0, 70, 67
2, 706560, Note_off_c, 0, 65, 67
2, 706560, Note_off_c, 0, 70, 67
2, 706560, Note_on_c, 0, 70, 67
2, 706560, Note_on_c, 0, 74, 67
2, 706688, Note_off_c, 0, 70, 67
2, 706688, Note_off_c, 0, 74, 67
2, 706688, Note_on_c, 0, 65, 67
2, 706688, Note_on_c, 0, 70, 67
2, 706816, Note_off_c, 0, 65, 67
2, 706816, Note_off_c, 0, 70, 67
2, 706816, Note_on_c, 0, 70, 67
2, 706816, Note_on_c, 0, 74, 67
2, 706944, Note_off_c, 0, 70, 67
2, 706944, Note_off_c, 0, 74, 67
2, 706944, Note_on_c, 0, 74, 67
2, 706944, Note_on_c, 0, 79, 67
2, 707200, Note_off_c, 0, 74, 67
2, 707200, Note_off_c, 0, 79, 67
2, 707200, Note_on_c, 0, 72, 67
2, 707200, Note_on_c, 0, 77, 67
2, 707328, Note_off_c, 0, 72, 67
2, 707328, Note_on_c, 0, 70, 67
2, 707456, Note_off_c, 0, 70, 67
2, 707456, Note_off_c, 0, 77, 67
2, 707456, Note_on_c, 0, 68, 67
2, 707456, Note_on_c, 0, 74, 67
2, 707584, Note_off_c, 0, 68, 67
2, 707584, Note_off_c, 0, 74, 67
2, 707584, Note_on_c, 0, 67, 67
2, 707584, Note_on_c, 0, 75, 67
2, 707712, Note_off_c, 0, 67, 67
2, 707712, Note_off_c, 0, 75, 67
2, 707712, Note_on_c, 0, 70, 67
2, 707712, Note_on_c, 0, 79, 67
2, 707840, Note_off_c, 0, 70, 67
2, 707840, Note_on_c, 0, 72, 67
2, 707968, Note_off_c, 0, 72, 67
2, 707968, Note_on_c, 0, 74, 67
2, 708096, Note_off_c, 0, 74, 67
2, 708096, Note_off_c, 0, 79, 67
2, 708096, Note_on_c, 0, 70, 67
2, 708096, Note_on_c, 0, 75, 67
2, 708224, Note_off_c, 0, 75, 67
2, 708224, Note_on_c, 0, 74, 67
2, 708352, Note_off_c, 0, 70, 67
2, 708352, Note_off_c, 0, 74, 67
2, 708352, Note_on_c, 0, 65, 67
2, 708352, Note_on_c, 0, 72, 67
2, 708480, Note_off_c, 0, 72, 67
2, 708480, Note_on_c, 0, 70, 67
2, 708608, Note_off_c, 0, 65, 67
2, 708608, Note_off_c, 0, 70, 67
2, 708608, Note_on_c, 0, 67, 67
2, 708608, Note_on_c, 0, 75, 67
2, 708736, Note_off_c, 0, 67, 67
2, 708736, Note_off_c, 0, 75, 67
2, 708736, Note_on_c, 0, 66, 67
2, 708736, Note_on_c, 0, 70, 67
2, 708864, Note_off_c, 0, 66, 67
2, 708864, Note_off_c, 0, 70, 67
2, 708864, Note_on_c, 0, 67, 67
2, 708864, Note_on_c, 0, 75, 67
2, 708992, Note_off_c, 0, 67, 67
2, 708992, Note_off_c, 0, 75, 67
2, 708992, Note_on_c, 0, 75, 67
2, 708992, Note_on_c, 0, 82, 67
2, 709248, Note_off_c, 0, 75, 67
2, 709248, Note_off_c, 0, 82, 67
2, 709248, Note_on_c, 0, 74, 67
2, 709248, Note_on_c, 0, 80, 67
2, 709376, Note_off_c, 0, 74, 67
2, 709376, Note_on_c, 0, 72, 67
2, 709504, Note_off_c, 0, 72, 67
2, 709504, Note_off_c, 0, 80, 67
2, 709504, Note_on_c, 0, 70, 67
2, 709504, Note_on_c, 0, 79, 67
2, 709632, Note_off_c, 0, 70, 67
2, 709632, Note_off_c, 0, 79, 67
2, 709632, Note_on_c, 0, 72, 67
2, 709632, Note_on_c, 0, 77, 67
2, 709760, Note_off_c, 0, 72, 67
2, 709760, Note_off_c, 0, 77, 67
2, 709760, Note_on_c, 0, 70, 67
2, 709760, Note_on_c, 0, 74, 67
2, 709888, Note_off_c, 0, 70, 67
2, 709888, Note_on_c, 0, 68, 67
2, 710016, Note_off_c, 0, 68, 67
2, 710016, Note_on_c, 0, 67, 67
2, 710144, Note_off_c, 0, 67, 67
2, 710144, Note_off_c, 0, 74, 67
2, 710144, Note_on_c, 0, 65, 67
2, 710144, Note_on_c, 0, 70, 67
2, 710272, Note_off_c, 0, 65, 67
2, 710272, Note_on_c, 0, 67, 67
2, 710400, Note_off_c, 0, 67, 67
2, 710400, Note_off_c, 0, 70, 67
2, 710400, Note_on_c, 0, 65, 67
2, 710400, Note_on_c, 0, 68, 67
2, 710528, Note_off_c, 0, 68, 67
2, 710528, Note_on_c, 0, 70, 67
2, 710656, Note_off_c, 0, 65, 67
2, 710656, Note_off_c, 0, 70, 67
2, 710656, Note_on_c, 0, 70, 67
2, 710656, Note_on_c, 0, 74, 67
2, 710784, Note_off_c, 0, 70, 67
2, 710784, Note_off_c, 0, 74, 67
2, 710784, Note_on_c, 0, 65, 67
2, 710784, Note_on_c, 0, 70, 67
2, 710912, Note_off_c, 0, 65, 67
2, 710912, Note_off_c, 0, 70, 67
2, 710912, Note_on_c, 0, 70, 67
2, 710912, Note_on_c, 0, 74, 67
2, 711040, Note_off_c, 0, 70, 67
2, 711040, Note_off_c, 0, 74, 67
2, 711040, Note_on_c, 0, 74, 67
2, 711040, Note_on_c, 0, 79, 67
2, 711296, Note_off_c, 0, 74, 67
2, 711296, Note_off_c, 0, 79, 67
2, 711296, Note_on_c, 0, 72, 67
2, 711296, Note_on_c, 0, 77, 67
2, 711424, Note_off_c, 0, 72, 67
2, 711424, Note_on_c, 0, 70, 67
2, 711552, Note_off_c, 0, 70, 67
2, 711552, Note_off_c, 0, 77, 67
2, 711552, Note_on_c, 0, 68, 67
2, 711552, Note_on_c, 0, 74, 67
2, 711680, Note_off_c, 0, 68, 67
2, 711680, Note_off_c, 0, 74, 67
2, 711680, Note_on_c, 0, 67, 67
2, 711680, Note_on_c, 0, 75, 67
2, 711808, Note_off_c, 0, 67, 67
2, 711808, Note_on_c, 0, 65, 67
2, 711936, Note_off_c, 0, 65, 67
2, 711936, Note_on_c, 0, 63, 67
2, 712064, Note_off_c, 0, 63, 67
2, 712064, Note_on_c, 0, 65, 67
2, 712192, Note_off_c, 0, 65, 67
2, 712192, Note_off_c, 0, 75, 67
2, 712192, Note_on_c, 0, 63, 67
2, 712192, Note_on_c, 0, 67, 67
2, 712320, Note_off_c, 0, 67, 67
2, 712320, Note_on_c, 0, 68, 67
2, 712448, Note_off_c, 0, 63, 67
2, 712448, Note_off_c, 0, 68, 67
2, 712448, Note_on_c, 0, 65, 67
2, 712448, Note_on_c, 0, 70, 67
2, 712576, Note_off_c, 0, 70, 67
2, 712576, Note_on_c, 0, 72, 67
2, 712704, Note_off_c, 0, 65, 67
2, 712704, Note_off_c, 0, 72, 67
2, 712704, Note_on_c, 0, 79, 67
2, 713216, Note_off_c, 0, 79, 67
2, 713216, Note_on_c, 0, 82, 67
2, 713472, Control_c, 0, 93, 0
2, 713472, Note_on_c, 0, 68, 67
2, 713600, Note_off_c, 0, 68, 67
2, 713600, Note_on_c, 0, 70, 67
2, 713728, Note_off_c, 0, 70, 67
2, 713728, Note_off_c, 0, 82, 67
2, 713728, Note_on_c, 0, 72, 67
2, 713728, Note_on_c, 0, 80, 67
2, 713856, Note_off_c, 0, 72, 67
2, 713856, Note_off_c, 0, 80, 67
2, 713856, Note_on_c, 0, 70, 67
2, 713856, Note_on_c, 0, 82, 67
2, 713984, Note_off_c, 0, 70, 67
2, 713984, Note_off_c, 0, 82, 67
2, 713984, Note_on_c, 0, 68, 67
2, 713984, Note_on_c, 0, 80, 67
2, 714112, Note_off_c, 0, 80, 67
2, 714112, Note_on_c, 0, 79, 67
2, 714240, Note_off_c, 0, 68, 67
2, 714240, Note_off_c, 0, 79, 67
2, 714240, Note_on_c, 0, 65, 67
2, 714240, Note_on_c, 0, 77, 67
2, 714368, Note_off_c, 0, 65, 67
2, 714368, Note_on_c, 0, 67, 67
2, 714496, Note_off_c, 0, 67, 67
2, 714496, Note_on_c, 0, 68, 67
2, 714624, Note_off_c, 0, 68, 67
2, 714624, Note_on_c, 0, 70, 67
2, 714752, Note_off_c, 0, 70, 67
2, 714752, Note_off_c, 0, 77, 67
2, 714752, Note_on_c, 0, 68, 67
2, 714752, Note_on_c, 0, 74, 67
2, 714880, Note_off_c, 0, 68, 67
2, 714880, Note_on_c, 0, 67, 67
2, 715008, Note_off_c, 0, 67, 67
2, 715008, Note_on_c, 0, 65, 67
2, 715264, Note_off_c, 0, 65, 67
2, 715264, Note_off_c, 0, 74, 67
2, 715264, Note_on_c, 0, 77, 67
2, 715520, Control_c, 0, 93, 0
2, 715520, Note_on_c, 0, 65, 67
2, 715648, Note_off_c, 0, 65, 67
2, 715648, Note_on_c, 0, 70, 67
2, 715776, Note_off_c, 0, 70, 67
2, 715776, Note_off_c, 0, 77, 67
2, 715776, Note_on_c, 0, 67, 67
2, 715776, Note_on_c, 0, 79, 67
2, 715904, Note_off_c, 0, 67, 67
2, 715904, Note_off_c, 0, 79, 67
2, 715904, Note_on_c, 0, 68, 67
2, 715904, Note_on_c, 0, 80, 67
2, 716032, Note_off_c, 0, 68, 67
2, 716032, Note_off_c, 0, 80, 67
2, 716032, Note_on_c, 0, 70, 67
2, 716032, Note_on_c, 0, 79, 67
2, 716160, Note_off_c, 0, 70, 67
2, 716160, Note_off_c, 0, 79, 67
2, 716160, Note_on_c, 0, 72, 67
2, 716160, Note_on_c, 0, 77, 67
2, 716288, Note_off_c, 0, 72, 67
2, 716288, Note_off_c, 0, 77, 67
2, 716288, Note_on_c, 0, 70, 67
2, 716288, Note_on_c, 0, 75, 67
2, 716800, Note_off_c, 0, 70, 67
2, 716800, Note_off_c, 0, 75, 67
2, 716800, Note_on_c, 0, 75, 67
2, 716800, Note_on_c, 0, 79, 67
2, 716928, Note_off_c, 0, 75, 67
2, 716928, Note_on_c, 0, 74, 67
2, 717056, Note_off_c, 0, 74, 67
2, 717056, Note_on_c, 0, 72, 67
2, 717312, Note_off_c, 0, 72, 67
2, 717312, Note_off_c, 0, 79, 67
2, 717312, Note_on_c, 0, 70, 67
2, 717312, Note_on_c, 0, 82, 67
2, 717440, Note_off_c, 0, 70, 67
2, 717440, Note_on_c, 0, 72, 67
2, 717568, Note_off_c, 0, 72, 67
2, 717568, Note_on_c, 0, 74, 67
2, 717696, Note_off_c, 0, 74, 67
2, 717696, Note_on_c, 0, 75, 67
2, 717824, Note_off_c, 0, 75, 67
2, 717824, Note_off_c, 0, 82, 67
2, 717824, Note_on_c, 0, 77, 67
2, 717824, Note_on_c, 0, 80, 67
2, 717952, Note_off_c, 0, 77, 67
2, 717952, Note_off_c, 0, 80, 67
2, 717952, Note_on_c, 0, 75, 67
2, 717952, Note_on_c, 0, 79, 67
2, 718080, Note_off_c, 0, 75, 67
2, 718080, Note_off_c, 0, 79, 67
2, 718080, Note_on_c, 0, 74, 67
2, 718080, Note_on_c, 0, 80, 67
2, 718208, Note_off_c, 0, 80, 67
2, 718208, Note_on_c, 0, 82, 67
2, 718336, Note_off_c, 0, 74, 67
2, 718336, Note_off_c, 0, 82, 67
2, 718336, Note_on_c, 0, 72, 67
2, 718336, Note_on_c, 0, 84, 67
2, 718464, Note_off_c, 0, 72, 67
2, 718464, Note_on_c, 0, 74, 67
2, 718592, Note_off_c, 0, 74, 67
2, 718592, Note_on_c, 0, 75, 67
2, 718720, Note_off_c, 0, 75, 67
2, 718720, Note_on_c, 0, 77, 67
2, 718848, Note_off_c, 0, 77, 67
2, 718848, Note_off_c, 0, 84, 67
2, 718848, Note_on_c, 0, 74, 67
2, 718848, Note_on_c, 0, 82, 67
2, 718976, Note_off_c, 0, 74, 67
2, 718976, Note_on_c, 0, 72, 67
2, 719104, Note_off_c, 0, 72, 67
2, 719104, Note_off_c, 0, 82, 67
2, 719104, Note_on_c, 0, 70, 67
2, 719104, Note_on_c, 0, 80, 67
2, 719232, Note_off_c, 0, 80, 67
2, 719232, Note_on_c, 0, 79, 67
2, 719360, Note_off_c, 0, 70, 67
2, 719360, Note_off_c, 0, 79, 67
2, 719360, Note_on_c, 0, 68, 67
2, 719360, Note_on_c, 0, 80, 67
2, 719488, Note_off_c, 0, 68, 67
2, 719488, Note_on_c, 0, 70, 67
2, 719616, Note_off_c, 0, 70, 67
2, 719616, Note_on_c, 0, 72, 67
2, 719744, Note_off_c, 0, 72, 67
2, 719744, Note_on_c, 0, 68, 67
2, 719872, Note_off_c, 0, 68, 67
2, 719872, Note_off_c, 0, 80, 67
2, 719872, Note_on_c, 0, 70, 67
2, 719872, Note_on_c, 0, 79, 67
2, 720000, Note_off_c, 0, 70, 67
2, 720000, Note_off_c, 0, 79, 67
2, 720000, Note_on_c, 0, 68, 67
2, 720000, Note_on_c, 0, 80, 67
2, 720128, Note_off_c, 0, 68, 67
2, 720128, Note_off_c, 0, 80, 67
2, 720128, Note_on_c, 0, 67, 67
2, 720128, Note_on_c, 0, 79, 67
2, 720256, Note_off_c, 0, 67, 67
2, 720256, Note_off_c, 0, 79, 67
2, 720256, Note_on_c, 0, 65, 67
2, 720256, Note_on_c, 0, 77, 67
2, 720384, Note_off_c, 0, 65, 67
2, 720384, Note_off_c, 0, 77, 67
2, 720384, Note_on_c, 0, 63, 67
2, 720384, Note_on_c, 0, 75, 67
2, 720512, Note_off_c, 0, 63, 67
2, 720512, Note_on_c, 0, 65, 67
2, 720640, Note_off_c, 0, 65, 67
2, 720640, Note_on_c, 0, 67, 67
2, 720768, Note_off_c, 0, 67, 67
2, 720768, Note_on_c, 0, 68, 67
2, 720896, Note_off_c, 0, 68, 67
2, 720896, Note_off_c, 0, 75, 67
2, 720896, Time_signature, 4, 2, 24, 8
2, 720896, Key_signature, -3, "major"
2, 720896, Note_on_c, 0, 67, 67
2, 720896, Note_on_c, 0, 75, 67
2, 721024, Note_off_c, 0, 67, 67
2, 721024, Note_off_c, 0, 75, 67
2, 721024, Note_on_c, 0, 66, 67
2, 721024, Note_on_c, 0, 70, 67
2, 721152, Note_off_c, 0, 66, 67
2, 721152, Note_off_c, 0, 70, 67
2, 721152, Note_on_c, 0, 67, 67
2, 721152, Note_on_c, 0, 75, 67
2, 721280, Note_off_c, 0, 67, 67
2, 721280, Note_off_c, 0, 75, 67
2, 721280, Note_on_c, 0, 75, 67
2, 721280, Note_on_c, 0, 82, 67
2, 721536, Note_off_c, 0, 75, 67
2, 721536, Note_off_c, 0, 82, 67
2, 721536, Note_on_c, 0, 74, 67
2, 721536, Note_on_c, 0, 80, 67
2, 721664, Note_off_c, 0, 74, 67
2, 721664, Note_on_c, 0, 72, 67
2, 721792, Note_off_c, 0, 72, 67
2, 721792, Note_off_c, 0, 80, 67
2, 721792, Note_on_c, 0, 70, 67
2, 721792, Note_on_c, 0, 79, 67
2, 721920, Note_off_c, 0, 70, 67
2, 721920, Note_off_c, 0, 79, 67
2, 721920, Note_on_c, 0, 72, 67
2, 721920, Note_on_c, 0, 77, 67
2, 722048, Note_off_c, 0, 72, 67
2, 722048, Note_off_c, 0, 77, 67
2, 722048, Note_on_c, 0, 70, 67
2, 722048, Note_on_c, 0, 74, 67
2, 722176, Note_off_c, 0, 70, 67
2, 722176, Note_on_c, 0, 68, 67
2, 722304, Note_off_c, 0, 68, 67
2, 722304, Note_on_c, 0, 67, 67
2, 722432, Note_off_c, 0, 67, 67
2, 722432, Note_off_c, 0, 74, 67
2, 722432, Note_on_c, 0, 65, 67
2, 722432, Note_on_c, 0, 70, 67
2, 722560, Note_off_c, 0, 65, 67
2, 722560, Note_on_c, 0, 67, 67
2, 722688, Note_off_c, 0, 67, 67
2, 722688, Note_off_c, 0, 70, 67
2, 722688, Note_on_c, 0, 65, 67
2, 722688, Note_on_c, 0, 68, 67
2, 722816, Note_off_c, 0, 68, 67
2, 722816, Note_on_c, 0, 70, 67
2, 722944, Note_off_c, 0, 65, 67
2, 722944, Note_off_c, 0, 70, 67
2, 722944, Note_on_c, 0, 70, 67
2, 722944, Note_on_c, 0, 74, 67
2, 723072, Note_off_c, 0, 70, 67
2, 723072, Note_off_c, 0, 74, 67
2, 723072, Note_on_c, 0, 65, 67
2, 723072, Note_on_c, 0, 70, 67
2, 723200, Note_off_c, 0, 65, 67
2, 723200, Note_off_c, 0, 70, 67
2, 723200, Note_on_c, 0, 70, 67
2, 723200, Note_on_c, 0, 74, 67
2, 723328, Note_off_c, 0, 70, 67
2, 723328, Note_off_c, 0, 74, 67
2, 723328, Note_on_c, 0, 74, 67
2, 723328, Note_on_c, 0, 79, 67
2, 723584, Note_off_c, 0, 74, 67
2, 723584, Note_off_c, 0, 79, 67
2, 723584, Note_on_c, 0, 72, 67
2, 723584, Note_on_c, 0, 77, 67
2, 723712, Note_off_c, 0, 72, 67
2, 723712, Note_on_c, 0, 70, 67
2, 723840, Note_off_c, 0, 70, 67
2, 723840, Note_off_c, 0, 77, 67
2, 723840, Note_on_c, 0, 68, 67
2, 723840, Note_on_c, 0, 74, 67
2, 723968, Note_off_c, 0, 68, 67
2, 723968, Note_off_c, 0, 74, 67
2, 723968, Note_on_c, 0, 67, 67
2, 723968, Note_on_c, 0, 75, 67
2, 724096, Note_off_c, 0, 67, 67
2, 724096, Note_off_c, 0, 75, 67
2, 724096, Note_on_c, 0, 70, 67
2, 724096, Note_on_c, 0, 79, 67
2, 724224, Note_off_c, 0, 70, 67
2, 724224, Note_on_c, 0, 72, 67
2, 724352, Note_off_c, 0, 72, 67
2, 724352, Note_on_c, 0, 74, 67
2, 724480, Note_off_c, 0, 74, 67
2, 724480, Note_off_c, 0, 79, 67
2, 724480, Note_on_c, 0, 70, 67
2, 724480, Note_on_c, 0, 75, 67
2, 724608, Note_off_c, 0, 75, 67
2, 724608, Note_on_c, 0, 74, 67
2, 724736, Note_off_c, 0, 70, 67
2, 724736, Note_off_c, 0, 74, 67
2, 724736, Note_on_c, 0, 65, 67
2, 724736, Note_on_c, 0, 72, 67
2, 724864, Note_off_c, 0, 72, 67
2, 724864, Note_on_c, 0, 70, 67
2, 724992, Note_off_c, 0, 65, 67
2, 724992, Note_off_c, 0, 70, 67
2, 724992, Note_on_c, 0, 67, 67
2, 724992, Note_on_c, 0, 75, 67
2, 725120, Note_off_c, 0, 67, 67
2, 725120, Note_off_c, 0, 75, 67
2, 725120, Note_on_c, 0, 66, 67
2, 725120, Note_on_c, 0, 70, 67
2, 725248, Note_off_c, 0, 66, 67
2, 725248, Note_off_c, 0, 70, 67
2, 725248, Note_on_c, 0, 67, 67
2, 725248, Note_on_c, 0, 75, 67
2, 725376, Note_off_c, 0, 67, 67
2, 725376, Note_off_c, 0, 75, 67
2, 725376, Note_on_c, 0, 75, 67
2, 725376, Note_on_c, 0, 82, 67
2, 725632, Note_off_c, 0, 75, 67
2, 725632, Note_off_c, 0, 82, 67
2, 725632, Note_on_c, 0, 74, 67
2, 725632, Note_on_c, 0, 80, 67
2, 725760, Note_off_c, 0, 74, 67
2, 725760, Note_on_c, 0, 72, 67
2, 725888, Note_off_c, 0, 72, 67
2, 725888, Note_off_c, 0, 80, 67
2, 725888, Note_on_c, 0, 70, 67
2, 725888, Note_on_c, 0, 79, 67
2, 726016, Note_off_c, 0, 70, 67
2, 726016, Note_off_c, 0, 79, 67
2, 726016, Note_on_c, 0, 72, 67
2, 726016, Note_on_c, 0, 77, 67
2, 726144, Note_off_c, 0, 72, 67
2, 726144, Note_off_c, 0, 77, 67
2, 726144, Note_on_c, 0, 70, 67
2, 726144, Note_on_c, 0, 74, 67
2, 726272, Note_off_c, 0, 70, 67
2, 726272, Note_on_c, 0, 68, 67
2, 726400, Note_off_c, 0, 68, 67
2, 726400, Note_on_c, 0, 67, 67
2, 726528, Note_off_c, 0, 67, 67
2, 726528, Note_off_c, 0, 74, 67
2, 726528, Note_on_c, 0, 65, 67
2, 726528, Note_on_c, 0, 70, 67
2, 726656, Note_off_c, 0, 65, 67
2, 726656, Note_on_c, 0, 67, 67
2, 726784, Note_off_c, 0, 67, 67
2, 726784, Note_off_c, 0, 70, 67
2, 726784, Note_on_c, 0, 65, 67
2, 726784, Note_on_c, 0, 68, 67
2, 726912, Note_off_c, 0, 68, 67
2, 726912, Note_on_c, 0, 70, 67
2, 727040, Note_off_c, 0, 65, 67
2, 727040, Note_off_c, 0, 70, 67
2, 727040, Note_on_c, 0, 70, 67
2, 727040, Note_on_c, 0, 74, 67
2, 727168, Note_off_c, 0, 70, 67
2, 727168, Note_off_c, 0, 74, 67
2, 727168, Note_on_c, 0, 65, 67
2, 727168, Note_on_c, 0, 70, 67
2, 727296, Note_off_c, 0, 65, 67
2, 727296, Note_off_c, 0, 70, 67
2, 727296, Note_on_c, 0, 70, 67
2, 727296, Note_on_c, 0, 74, 67
2, 727424, Note_off_c, 0, 70, 67
2, 727424, Note_off_c, 0, 74, 67
2, 727424, Note_on_c, 0, 74, 67
2, 727424, Note_on_c, 0, 79, 67
2, 727680, Note_off_c, 0, 74, 67
2, 727680, Note_off_c, 0, 79, 67
2, 727680, Note_on_c, 0, 72, 67
2, 727680, Note_on_c, 0, 77, 67
2, 727808, Note_off_c, 0, 72, 67
2, 727808, Note_on_c, 0, 70, 67
2, 727936, Note_off_c, 0, 70, 67
2, 727936, Note_off_c, 0, 77, 67
2, 727936, Note_on_c, 0, 68, 67
2, 727936, Note_on_c, 0, 74, 67
2, 728064, Note_off_c, 0, 68, 67
2, 728064, Note_off_c, 0, 74, 67
2, 728064, Note_on_c, 0, 67, 67
2, 728064, Note_on_c, 0, 75, 67
2, 728192, Note_off_c, 0, 67, 67
2, 728192, Note_on_c, 0, 65, 67
2, 728320, Note_off_c, 0, 65, 67
2, 728320, Note_on_c, 0, 63, 67
2, 728448, Note_off_c, 0, 63, 67
2, 728448, Note_on_c, 0, 65, 67
2, 728576, Note_off_c, 0, 65, 67
2, 728576, Note_off_c, 0, 75, 67
2, 728576, Note_on_c, 0, 63, 67
2, 728576, Note_on_c, 0, 67, 67
2, 728704, Note_off_c, 0, 67, 67
2, 728704, Note_on_c, 0, 68, 67
2, 728832, Note_off_c, 0, 63, 67
2, 728832, Note_off_c, 0, 68, 67
2, 728832, Note_on_c, 0, 65, 67
2, 728832, Note_on_c, 0, 70, 67
2, 728960, Note_off_c, 0, 70, 67
2, 728960, Note_on_c, 0, 72, 67
2, 729088, Note_off_c, 0, 65, 67
2, 729088, Note_off_c, 0, 72, 67
2, 729088, Note_on_c, 0, 79, 67
2, 729600, Note_off_c, 0, 79, 67
2, 729600, Note_on_c, 0, 82, 67
2, 729856, Control_c, 0, 93, 0
2, 729856, Note_on_c, 0, 68, 67
2, 729984, Note_off_c, 0, 68, 67
2, 729984, Note_on_c, 0, 70, 67
2, 730112, Note_off_c, 0, 70, 67
2, 730112, Note_off_c, 0, 82, 67
2, 730112, Note_on_c, 0, 72, 67
2, 730112, Note_on_c, 0, 80, 67
2, 730240, Note_off_c, 0, 72, 67
2, 730240, Note_off_c, 0, 80, 67
2, 730240, Note_on_c, 0, 70, 67
2, 730240, Note_on_c, 0, 82, 67
2, 730368, Note_off_c, 0, 70, 67
2, 730368, Note_off_c, 0, 82, 67
2, 730368, Note_on_c, 0, 68, 67
2, 730368, Note_on_c, 0, 80, 67
2, 730496, Note_off_c, 0, 80, 67
2, 730496, Note_on_c, 0, 79, 67
2, 730624, Note_off_c, 0, 68, 67
2, 730624, Note_off_c, 0, 79, 67
2, 730624, Note_on_c, 0, 65, 67
2, 730624, Note_on_c, 0, 77, 67
2, 730752, Note_off_c, 0, 65, 67
2, 730752, Note_on_c, 0, 67, 67
2, 730880, Note_off_c, 0, 67, 67
2, 730880, Note_on_c, 0, 68, 67
2, 731008, Note_off_c, 0, 68, 67
2, 731008, Note_on_c, 0, 70, 67
2, 731136, Note_off_c, 0, 70, 67
2, 731136, Note_off_c, 0, 77, 67
2, 731136, Note_on_c, 0, 68, 67
2, 731136, Note_on_c, 0, 74, 67
2, 731264, Note_off_c, 0, 68, 67
2, 731264, Note_on_c, 0, 67, 67
2, 731392, Note_off_c, 0, 67, 67
2, 731392, Note_on_c, 0, 65, 67
2, 731648, Note_off_c, 0, 65, 67
2, 731648, Note_off_c, 0, 74, 67
2, 731648, Note_on_c, 0, 77, 67
2, 731904, Control_c, 0, 93, 0
2, 731904, Note_on_c, 0, 65, 67
2, 732032, Note_off_c, 0, 65, 67
2, 732032, Note_on_c, 0, 70, 67
2, 732160, Note_off_c, 0, 70, 67
2, 732160, Note_off_c, 0, 77, 67
2, 732160, Note_on_c, 0, 67, 67
2, 732160, Note_on_c, 0, 79, 67
2, 732288, Note_off_c, 0, 67, 67
2, 732288, Note_off_c, 0, 79, 67
2, 732288, Note_on_c, 0, 68, 67
2, 732288, Note_on_c, 0, 80, 67
2, 732416, Note_off_c, 0, 68, 67
2, 732416, Note_off_c, 0, 80, 67
2, 732416, Note_on_c, 0, 70, 67
2, 732416, Note_on_c, 0, 79, 67
2, 732544, Note_off_c, 0, 70, 67
2, 732544, Note_off_c, 0, 79, 67
2, 732544, Note_on_c, 0, 72, 67
2, 732544, Note_on_c, 0, 77, 67
2, 732672, Note_off_c, 0, 72, 67
2, 732672, Note_off_c, 0, 77, 67
2, 732672, Note_on_c, 0, 70, 67
2, 732672, Note_on_c, 0, 75, 67
2, 733184, Note_off_c, 0, 70, 67
2, 733184, Note_off_c, 0, 75, 67
2, 733184, Note_on_c, 0, 75, 67
2, 733184, Note_on_c, 0, 79, 67
2, 733312, Note_off_c, 0, 75, 67
2, 733312, Note_on_c, 0, 74, 67
2, 733440, Note_off_c, 0, 74, 67
2, 733440, Note_on_c, 0, 72, 67
2, 733696, Note_off_c, 0, 72, 67
2, 733696, Note_off_c, 0, 79, 67
2, 733696, Note_on_c, 0, 70, 67
2, 733696, Note_on_c, 0, 82, 67
2, 733824, Note_off_c, 0, 70, 67
2, 733824, Note_on_c, 0, 72, 67
2, 733952, Note_off_c, 0, 72, 67
2, 733952, Note_on_c, 0, 74, 67
2, 734080, Note_off_c, 0, 74, 67
2, 734080, Note_on_c, 0, 75, 67
2, 734208, Note_off_c, 0, 75, 67
2, 734208, Note_off_c, 0, 82, 67
2, 734208, Note_on_c, 0, 77, 67
2, 734208, Note_on_c, 0, 80, 67
2, 734336, Note_off_c, 0, 77, 67
2, 734336, Note_off_c, 0, 80, 67
2, 734336, Note_on_c, 0, 75, 67
2, 734336, Note_on_c, 0, 79, 67
2, 734464, Note_off_c, 0, 75, 67
2, 734464, Note_off_c, 0, 79, 67
2, 734464, Note_on_c, 0, 74, 67
2, 734464, Note_on_c, 0, 80, 67
2, 734592, Note_off_c, 0, 80, 67
2, 734592, Note_on_c, 0, 82, 67
2, 734720, Note_off_c, 0, 74, 67
2, 734720, Note_off_c, 0, 82, 67
2, 734720, Note_on_c, 0, 72, 67
2, 734720, Note_on_c, 0, 84, 67
2, 734848, Note_off_c, 0, 72, 67
2, 734848, Note_on_c, 0, 74, 67
2, 734976, Note_off_c, 0, 74, 67
2, 734976, Note_on_c, 0, 75, 67
2, 735104, Note_off_c, 0, 75, 67
2, 735104, Note_on_c, 0, 77, 67
2, 735232, Note_off_c, 0, 77, 67
2, 735232, Note_off_c, 0, 84, 67
2, 735232, Note_on_c, 0, 74, 67
2, 735232, Note_on_c, 0, 82, 67
2, 735360, Note_off_c, 0, 74, 67
2, 735360, Note_on_c, 0, 72, 67
2, 735488, Note_off_c, 0, 72, 67
2, 735488, Note_off_c, 0, 82, 67
2, 735488, Note_on_c, 0, 70, 67
2, 735488, Note_on_c, 0, 80, 67
2, 735616, Note_off_c, 0, 80, 67
2, 735616, Note_on_c, 0, 79, 67
2, 735744, Note_off_c, 0, 70, 67
2, 735744, Note_off_c, 0, 79, 67
2, 735744, Note_on_c, 0, 68, 67
2, 735744, Note_on_c, 0, 80, 67
2, 735872, Note_off_c, 0, 68, 67
2, 735872, Note_on_c, 0, 70, 67
2, 736000, Note_off_c, 0, 70, 67
2, 736000, Note_on_c, 0, 72, 67
2, 736128, Note_off_c, 0, 72, 67
2, 736128, Note_on_c, 0, 68, 67
2, 736256, Note_off_c, 0, 68, 67
2, 736256, Note_off_c, 0, 80, 67
2, 736256, Note_on_c, 0, 70, 67
2, 736256, Note_on_c, 0, 79, 67
2, 736384, Note_off_c, 0, 70, 67
2, 736384, Note_off_c, 0, 79, 67
2, 736384, Note_on_c, 0, 68, 67
2, 736384, Note_on_c, 0, 80, 67
2, 736512, Note_off_c, 0, 68, 67
2, 736512, Note_off_c, 0, 80, 67
2, 736512, Note_on_c, 0, 67, 67
2, 736512, Note_on_c, 0, 79, 67
2, 736640, Note_off_c, 0, 67, 67
2, 736640, Note_off_c, 0, 79, 67
2, 736640, Note_on_c, 0, 65, 67
2, 736640, Note_on_c, 0, 77, 67
2, 736768, Note_off_c, 0, 65, 67
2, 736768, Note_off_c, 0, 77, 67
2, 736768, Note_on_c, 0, 63, 67
2, 736768, Note_on_c, 0, 75, 67
2, 736896, Note_off_c, 0, 63, 67
2, 736896, Note_on_c, 0, 65, 67
2, 737024, Note_off_c, 0, 65, 67
2, 737024, Note_on_c, 0, 67, 67
2, 737152, Note_off_c, 0, 67, 67
2, 737152, Note_on_c, 0, 68, 67
2, 737280, Note_off_c, 0, 68, 67
2, 737280, Note_off_c, 0, 75, 67
2, 737280, Time_signature, 4, 2, 24, 8
2, 737280, Key_signature, -3, "major"
2, 737280, Note_on_c, 0, 67, 67
2, 737280, Note_on_c, 0, 75, 67
2, 737408, Note_off_c, 0, 67, 67
2, 737408, Note_off_c, 0, 75, 67
2, 737408, Note_on_c, 0, 66, 67
2, 737408, Note_on_c, 0, 70, 67
2, 737536, Note_off_c, 0, 66, 67
2, 737536, Note_off_c, 0, 70, 67
2, 737536, Note_on_c, 0, 67, 67
2, 737536, Note_on_c, 0, 75, 67
2, 737664, Note_off_c, 0, 67, 67
2, 737664, Note_off_c, 0, 75, 67
2, 737664, Note_on_c, 0, 75, 67
2, 737664, Note_on_c, 0, 82, 67
2, 737920, Note_off_c, 0, 75, 67
2, 737920, Note_off_c, 0, 82, 67
2, 737920, Note_on_c, 0, 74, 67
2, 737920, Note_on_c, 0, 80, 67
2, 738048, Note_off_c, 0, 74, 67
2, 738048, Note_on_c, 0, 72, 67
2, 738176, Note_off_c, 0, 72, 67
2, 738176, Note_off_c, 0, 80, 67
2, 738176, Note_on_c, 0, 70, 67
2, 738176, Note_on_c, 0, 79, 67
2, 738304, Note_off_c, 0, 70, 67
2, 738304, Note_off_c, 0, 79, 67
2, 738304, Note_on_c, 0, 72, 67
2, 738304, Note_on_c, 0, 77, 67
2, 738432, Note_off_c, 0, 72, 67
2, 738432, Note_off_c, 0, 77, 67
2, 738432, Note_on_c, 0, 70, 67
2, 738432, Note_on_c, 0, 74, 67
2, 738560, Note_off_c, 0, 70, 67
2, 738560, Note_on_c, 0, 68, 67
2, 738688, Note_off_c, 0, 68, 67
2, 738688, Note_on_c, 0, 67, 67
2, 738816, Note_off_c, 0, 67, 67
2, 738816, Note_off_c, 0, 74, 67
2, 738816, Note_on_c, 0, 65, 67
2, 738816, Note_on_c, 0, 70, 67
2, 738944, Note_off_c, 0, 65, 67
2, 738944, Note_on_c, 0, 67, 67
2, 739072, Note_off_c, 0, 67, 67
2, 739072, Note_off_c, 0, 70, 67
2, 739072, Note_on_c, 0, 65, 67
2, 739072, Note_on_c, 0, 68, 67
2, 739200, Note_off_c, 0, 68, 67
2, 739200, Note_on_c, 0, 70, 67
2, 739328, Note_off_c, 0, 65, 67
2, 739328, Note_off_c, 0, 70, 67
2, 739328, Note_on_c, 0, 70, 67
2, 739328, Note_on_c, 0, 74, 67
2, 739456, Note_off_c, 0, 70, 67
2, 739456, Note_off_c, 0, 74, 67
2, 739456, Note_on_c, 0, 65, 67
2, 739456, Note_on_c, 0, 70, 67
2, 739584, Note_off_c, 0, 65, 67
2, 739584, Note_off_c, 0, 70, 67
2, 739584, Note_on_c, 0, 70, 67
2, 739584, Note_on_c, 0, 74, 67
2, 739712, Note_off_c, 0, 70, 67
2, 739712, Note_off_c, 0, 74, 67
2, 739712, Note_on_c, 0, 74, 67
2, 739712, Note_on_c, 0, 79, 67
2, 739968, Note_off_c, 0, 74, 67
2, 739968, Note_off_c, 0, 79, 67
2, 739968, Note_on_c, 0, 72, 67
2, 739968, Note_on_c, 0, 77, 67
2, 740096, Note_off_c, 0, 72, 67
2, 740096, Note_on_c, 0, 70, 67
2, 740224, Note_off_c, 0, 70, 67
2, 740224, Note_off_c, 0, 77, 67
2, 740224, Note_on_c, 0, 68, 67
2, 740224, Note_on_c, 0, 74, 67
2, 740352, Note_off_c, 0, 68, 67
2, 740352, Note_off_c, 0, 74, 67
2, 740352, Note_on_c, 0, 67, 67
2, 740352, Note_on_c, 0, 75, 67
2, 740480, Note_off_c, 0, 67, 67
2, 740480, Note_off_c, 0, 75, 67
2, 740480, Note_on_c, 0, 70, 67
2, 740480, Note_on_c, 0, 79, 67
2, 740608, Note_off_c, 0, 70, 67
2, 740608, Note_on_c, 0, 72, 67
2, 740736, Note_off_c, 0, 72, 67
2, 740736, Note_on_c, 0, 74, 67
2, 740864, Note_off_c, 0, 74, 67
2, 740864, Note_off_c, 0, 79, 67
2, 740864, Note_on_c, 0, 70, 67
2, 740864, Note_on_c, 0, 75, 67
2, 740992, Note_off_c, 0, 75, 67
2, 740992, Note_on_c, 0, 74, 67
2, 741120, Note_off_c, 0, 70, 67
2, 741120, Note_off_c, 0, 74, 67
2, 741120, Note_on_c, 0, 65, 67
2, 741120, Note_on_c, 0, 72, 67
2, 741248, Note_off_c, 0, 72, 67
2, 741248, Note_on_c, 0, 70, 67
2, 741376, Note_off_c, 0, 65, 67
2, 741376, Note_off_c, 0, 70, 67
2, 741376, Note_on_c, 0, 67, 67
2, 741376, Note_on_c, 0, 75, 67
2, 741504, Note_off_c, 0, 67, 67
2, 741504, Note_off_c, 0, 75, 67
2, 741504, Note_on_c, 0, 66, 67
2, 741504, Note_on_c, 0, 70, 67
2, 741632, Note_off_c, 0, 66, 67
2, 741632, Note_off_c, 0, 70, 67
2, 741632, Note_on_c, 0, 67, 67
2, 741632, Note_on_c, 0, 75, 67
2, 741760, Note_off_c, 0, 67, 67
2, 741760, Note_off_c, 0, 75, 67
2, 741760, Note_on_c, 0, 75, 67
2, 741760, Note_on_c, 0, 82, 67
2, 742016, Note_off_c, 0, 75, 67
2, 742016, Note_off_c, 0, 82, 67
2, 742016, Note_on_c, 0, 74, 67
2, 742016, Note_on_c, 0, 80, 67
2, 742144, Note_off_c, 0, 74, 67
2, 742144, Note_on_c, 0, 72, 67
2, 742272, Note_off_c, 0, 72, 67
2, 742272, Note_off_c, 0, 80, 67
2, 742272, Note_on_c, 0, 70, 67
2, 742272, Note_on_c, 0, 79, 67
2, 742400, Note_off_c, 0, 70, 67
2, 742400, Note_off_c, 0, 79, 67
2, 742400, Note_on_c, 0, 72, 67
2, 742400, Note_on_c, 0, 77, 67
2, 742528, Note_off_c, 0, 72, 67
2, 742528, Note_off_c, 0, 77, 67
2, 742528, Note_on_c, 0, 70, 67
2, 742528, Note_on_c, 0, 74, 67
2, 742656, Note_off_c, 0, 70, 67
2, 742656, Note_on_c, 0, 68, 67
2, 742784, Note_off_c, 0, 68, 67
2, 742784, Note_on_c, 0, 67, 67
2, 742912, Note_off_c, 0, 67, 67
2, 742912, Note_off_c, 0, 74, 67
2, 742912, Note_on_c, 0, 65, 67
2, 742912, Note_on_c, 0, 70, 67
2, 743040, Note_off_c, 0, 65, 67
2, 743040, Note_on_c, 0, 67, 67
2, 743168, Note_off_c, 0, 67, 67
2, 743168, Note_off_c, 0, 70, 67
2, 743168, Note_on_c, 0, 65, 67
2, 743168, Note_on_c, 0, 68, 67
2, 743296, Note_off_c, 0, 68, 67
2, 743296, Note_on_c, 0, 70, 67
2, 743424, Note_off_c, 0, 65, 67
2, 743424, Note_off_c, 0, 70, 67
2, 743424, Note_on_c, 0, 70, 67
2, 743424, Note_on_c, 0, 74, 67
2, 743552, Note_off_c, 0, 70, 67
2, 743552, Note_off_c, 0, 74, 67
2, 743552, Note_on_c, 0, 65, 67
2, 743552, Note_on_c, 0, 70, 67
2, 743680, Note_off_c, 0, 65, 67
2, 743680, Note_off_c, 0, 70, 67
2, 743680, Note_on_c, 0, 70, 67
2, 743680, Note_on_c, 0, 74, 67
2, 743808, Note_off_c, 0, 70, 67
2, 743808, Note_off_c, 0, 74, 67
2, 743808, Note_on_c, 0, 74, 67
2, 743808, Note_on_c, 0, 79, 67
2, 744064, Note_off_c, 0, 74, 67
2, 744064, Note_off_c, 0, 79, 67
2, 744064, Note_on_c, 0, 72, 67
2, 744064, Note_on_c, 0, 77, 67
2, 744192, Note_off_c, 0, 72, 67
2, 744192, Note_on_c, 0, 70, 67
2, 744320, Note_off_c, 0, 70, 67
2, 744320, Note_off_c, 0, 77, 67
2, 744320, Note_on_c, 0, 68, 67
2, 744320, Note_on_c, 0, 74, 67
2, 744448, Note_off_c, 0, 68, 67
2, 744448, Note_off_c, 0, 74, 67
2, 744448, Note_on_c, 0, 67, 67
2, 744448, Note_on_c, 0, 75, 67
2, 744576, Note_off_c, 0, 67, 67
2, 744576, Note_on_c, 0, 65, 67
2, 744704, Note_off_c, 0, 65, 67
2, 744704, Note_on_c, 0, 63, 67
2, 744832, Note_off_c, 0, 63, 67
2, 744832, Note_on_c, 0, 65, 67
2, 744960, Note_off_c, 0, 65, 67
2, 744960, Note_off_c, 0, 75, 67
2, 744960, Note_on_c, 0, 63, 67
2, 744960, Note_on_c, 0, 67, 67
2, 745088, Note_off_c, 0, 67, 67
2, 745088, Note_on_c, 0, 68, 67
2, 745216, Note_off_c, 0, 63, 67
2, 745216, Note_off_c, 0, 68, 67
2, 745216, Note_on_c, 0, 65, 67
2, 745216, Note_on_c, 0, 70, 67
2, 745344, Note_off_c, 0, 70, 67
2, 745344, Note_on_c, 0, 72, 67
2, 745472, Note_off_c, 0, 65, 67
2, 745472, Note_off_c, 0, 72, 67
2, 745472, Note_on_c, 0, 79, 67
2, 745984, Note_off_c, 0, 79, 67
2, 745984, Note_on_c, 0, 82, 67
2, 746240, Control_c, 0, 93, 0
2, 746240, Note_on_c, 0, 68, 67
2, 746368, Note_off_c, 0, 68, 67
2, 746368, Note_on_c, 0, 70, 67
2, 746496, Note_off_c, 0, 70, 67
2, 746496, Note_off_c, 0, 82, 67
2, 746496, Note_on_c, 0, 72, 67
2, 746496, Note_on_c, 0, 80, 67
2, 746624, Note_off_c, 0, 72, 67
2, 746624, Note_off_c, 0, 80, 67
2, 746624, Note_on_c, 0, 70, 67
2, 746624, Note_on_c, 0, 82, 67
2, 746752, Note_off_c, 0, 70, 67
2, 746752, Note_off_c, 0, 82, 67
2, 746752, Note_on_c, 0, 68, 67
2, 746752, Note_on_c, 0, 80, 67
2, 746880, Note_off_c, 0, 80, 67
2, 746880, Note_on_c, 0, 79, 67
2, 747008, Note_off_c, 0, 68, 67
2, 747008, Note_off_c, 0, 79, 67
2, 747008, Note_on_c, 0, 65, 67
2, 747008, Note_on_c, 0, 77, 67
2, 747136, Note_off_c, 0, 65, 67
2, 747136, Note_on_c, 0, 67, 67
2, 747264, Note_off_c, 0, 67, 67
2, 747264, Note_on_c, 0, 68, 67
2, 747392, Note_off_c, 0, 68, 67
2, 747392, Note_on_c, 0, 70, 67
2, 747520, Note_off_c, 0, 70, 67
2, 747520, Note_off_c, 0, 77, 67
2, 747520, Note_on_c, 0, 68, 67
2, 747520, Note_on_c, 0, 74, 67
2, 747648, Note_off_c, 0, 68, 67
2, 747648, Note_on_c, 0, 67, 67
2, 747776, Note_off_c, 0, 67, 67
2, 747776, Note_on_c, 0, 65, 67
2, 748032, Note_off_c, 0, 65, 67
2, 748032, Note_off_c, 0, 74, 67
2, 748032, Note_on_c, 0, 77, 67
2, 748288, Control_c, 0, 93, 0
2, 748288, Note_on_c, 0, 65, 67
2, 748416, Note_off_c, 0, 65, 67
2, 748416, Note_on_c, 0, 70, 67
2, 748544, Note_off_c, 0, 70, 67
2, 748544, Note_off_c, 0, 77, 67
2, 748544, Note_on_c, 0, 67, 67
2, 748544, Note_on_c, 0, 79, 67
2, 748672, Note_off_c, 0, 67, 67
2, 748672, Note_off_c, 0, 79, 67
2, 748672, Note_on_c, 0, 68, 67
2, 748672, Note_on_c, 0, 80, 67
2, 748800, Note_off_c, 0, 68, 67
2, 748800, Note_off_c, 0, 80, 67
2, 748800, Note_on_c, 0, 70, 67
2, 748800, Note_on_c, 0, 79, 67
2, 748928, Note_off_c, 0, 70, 67
2, 748928, Note_off_c, 0, 79, 67
2, 748928, Note_on_c, 0, 72, 67
2, 748928, Note_on_c, 0, 77, 67
2, 749056, Note_off_c, 0, 72, 67
2, 749056, Note_off_c, 0, 77, 67
2, 749056, Note_on_c, 0, 70, 67
2, 749056, Note_on_c, 0, 75, 67
2, 749568, Note_off_c, 0, 70, 67
2, 749568, Note_off_c, 0, 75, 67
2, 749568, Note_on_c, 0, 75, 67
2, 749568, Note_on_c, 0, 79, 67
2, 749696, Note_off_c, 0, 75, 67
2, 749696, Note_on_c, 0, 74, 67
2, 749824, Note_off_c, 0, 74, 67
2, 749824, Note_on_c, 0, 72, 67
2, 750080, Note_off_c, 0, 72, 67
2, 750080, Note_off_c, 0, 79, 67
2, 750080, Note_on_c, 0, 70, 67
2, 750080, Note_on_c, 0, 82, 67
2, 750208, Note_off_c, 0, 70, 67
2, 750208, Note_on_c, 0, 72, 67
2, 750336, Note_off_c, 0, 72, 67
2, 750336, Note_on_c, 0, 74, 67
2, 750464, Note_off_c, 0, 74, 67
2, 750464, Note_on_c, 0, 75, 67
2, 750592, Note_off_c, 0, 75, 67
2, 750592, Note_off_c, 0, 82, 67
2, 750592, Note_on_c, 0, 77, 67
2, 750592, Note_on_c, 0, 80, 67
2, 750720, Note_off_c, 0, 77, 67
2, 750720, Note_off_c, 0, 80, 67
2, 750720, Note_on_c, 0, 75, 67
2, 750720, Note_on_c, 0, 79, 67
2, 750848, Note_off_c, 0, 75, 67
2, 750848, Note_off_c, 0, 79, 67
2, 750848, Note_on_c, 0, 74, 67
2, 750848, Note_on_c, 0, 80, 67
2, 750976, Note_off_c, 0, 80, 67
2, 750976, Note_on_c, 0, 82, 67
2, 751104, Note_off_c, 0, 74, 67
2, 751104, Note_off_c, 0, 82, 67
2, 751104, Note_on_c, 0, 72, 67
2, 751104, Note_on_c, 0, 84, 67
2, 751232, Note_off_c, 0, 72, 67
2, 751232, Note_on_c, 0, 74, 67
2, 751360, Note_off_c, 0, 74, 67
2, 751360, Note_on_c, 0, 75, 67
2, 751488, Note_off_c, 0, 75, 67
2, 751488, Note_on_c, 0, 77, 67
2, 751616, Note_off_c, 0, 77, 67
2, 751616, Note_off_c, 0, 84, 67
2, 751616, Note_on_c, 0, 74, 67
2, 751616, Note_on_c, 0, 82, 67
2, 751744, Note_off_c, 0, 74, 67
2, 751744, Note_on_c, 0, 72, 67
2, 751872, Note_off_c, 0, 72, 67
2, 751872, Note_off_c, 0, 82, 67
2, 751872, Note_on_c, 0, 70, 67
2, 751872, Note_on_c, 0, 80, 67
2, 752000, Note_off_c, 0, 80, 67
2, 752000, Note_on_c, 0, 79, 67
2, 752128, Note_off_c, 0, 70, 67
2, 752128, Note_off_c, 0, 79, 67
2, 752128, Note_on_c, 0, 68, 67
2, 752128, Note_on_c, 0, 80, 67
2, 752256, Note_off_c, 0, 68, 67
2, 752256, Note_on_c, 0, 70, 67
2, 752384, Note_off_c, 0, 70, 67
2, 752384, Note_on_c, 0, 72, 67
2, 752512, Note_off_c, 0, 72, 67
2, 752512, Note_on_c, 0, 68, 67
2, 752640, Note_off_c, 0, 68, 67
2, 752640, Note_off_c, 0, 80, 67
2, 752640, Note_on_c, 0, 70, 67
2, 752640, Note_on_c, 0, 79, 67
2, 752768, Note_off_c, 0, 70, 67
2, 752768, Note_off_c, 0, 79, 67
2, 752768, Note_on_c, 0, 68, 67
2, 752768, Note_on_c, 0, 80, 67
2, 752896, Note_off_c, 0, 68, 67
2, 752896, Note_off_c, 0, 80, 67
2, 752896, Note_on_c, 0, 67, 67
2, 752896, Note_on_c, 0, 79, 67
2, 753024, Note_off_c, 0, 67, 67
2, 753024, Note_off_c, 0, 79, 67
2, 753024, Note_on_c, 0, 65, 67
2, 753024, Note_on_c, 0, 77, 67
2, 753152, Note_off_c, 0, 65, 67
2, 753152, Note_off_c, 0, 77, 67
2, 753152, Note_on_c, 0, 63, 67
2, 753152, Note_on_c, 0, 75, 67
2, 753280, Note_off_c, 0, 63, 67
2, 753280, Note_on_c, 0, 65, 67
2, 753408, Note_off_c, 0, 65, 67
2, 753408, Note_on_c, 0, 67, 67
2, 753536, Note_off_c, 0, 67, 67
2, 753536, Note_on_c, 0, 68, 67
2, 753664, Note_off_c, 0, 68, 67
2, 753664, Note_off_c, 0, 75, 67
2, 753664, Time_signature, 4, 2, 24, 8
2, 753664, Key_signature, -3, "major"
2, 753664, Note_on_c, 0, 67, 67
2, 753664, Note_on_c, 0, 75, 67
2, 753792, Note_off_c, 0, 67, 67
2, 753792, Note_off_c, 0, 75, 67
2, 753792, Note_on_c, 0, 66, 67
2, 753792, Note_on_c, 0, 70, 67
2, 753920, Note_off_c, 0, 66, 67
2, 753920, Note_off_c, 0, 70, 67
2, 753920, Note_on_c, 0, 67, 67
2, 753920, Note_on_c, 0, 75, 67
2, 754048, Note_off_c, 0, 67, 67
2, 754048, Note_off_c, 0, 75, 67
2, 754048, Note_on_c, 0, 75, 67
2, 754048, Note_on_c, 0, 82, 67
2, 754304, Note_off_c, 0, 75, 67
2, 754304, Note_off_c, 0, 82, 67
2, 754304, Note_on_c, 0, 74, 67
2, 754304, Note_on_c, 0, 80, 67
2, 754432, Note_off_c, 0, 74, 67
2, 754432, Note_on_c, 0, 72, 67
2, 754560, Note_off_c, 0, 72, 67
2, 754560, Note_off_c, 0, 80, 67
2, 754560, Note_on_c, 0, 70, 67
2, 754560, Note_on_c, 0, 79, 67
2, 754688, Note_off_c, 0, 70, 67
2, 754688, Note_off_c, 0, 79, 67
2, 754688, Note_on_c, 0, 72, 67
2, 754688, Note_on_c, 0, 77, 67
2, 754816, Note_off_c, 0, 72, 67
2, 754816, Note_off_c, 0, 77, 67
2, 754816, Note_on_c, 0, 70, 67
2, 754816, Note_on_c, 0, 74, 67
2, 754944, Note_off_c, 0, 70, 67
2, 754944, Note_on_c, 0, 68, 67
2, 755072, Note_off_c, 0, 68, 67
2, 755072, Note_on_c, 0, 67, 67
2, 755200, Note_off_c, 0, 67, 67
2, 755200, Note_off_c, 0, 74, 67
2, 755200, Note_on_c, 0, 65, 67
2, 755200, Note_on_c, 0, 70, 67
2, 755328, Note_off_c, 0, 65, 67
2, 755328, Note_on_c, 0, 67, 67
2, 755456, Note_off_c, 0, 67, 67
2, 755456, Note_off_c, 0, 70, 67
2, 755456, Note_on_c, 0, 65, 67
2, 755456, Note_on_c, 0, 68, 67
2, 755584, Note_off_c, 0, 68, 67
2, 755584, Note_on_c, 0, 70, 67
2, 755712, Note_off_c, 0, 65, 67
2, 755712, Note_off_c, 0, 70, 67
2, 755712, Note_on_c, 0, 70, 67
2, 755712, Note_on_c, 0, 74, 67
2, 755840, Note_off_c, 0, 70, 67
2, 755840, Note_off_c, 0, 74, 67
2, 755840, Note_on_c, 0, 65, 67
2, 755840, Note_on_c, 0, 70, 67
2, 755968, Note_off_c, 0, 65, 67
2, 755968, Note_off_c, 0, 70, 67
2, 755968, Note_on_c, 0, 70, 67
2, 755968, Note_on_c, 0, 74, 67
2, 756096, Note_off_c, 0, 70, 67
2, 756096, Note_off_c, 0, 74, 67
2, 756096, Note_on_c, 0, 74, 67
2, 756096, Note_on_c, 0, 79, 67
2, 756352, Note_off_c, 0, 74, 67
2, 756352, Note_off_c, 0, 79, 67
2, 756352, Note_on_c, 0, 72, 67
2, 756352, Note_on_c, 0, 77, 67
2, 756480, Note_off_c, 0, 72, 67
2, 756480, Note_on_c, 0, 70, 67
2, 756608, Note_off_c, 0, 70, 67
2, 756608, Note_off_c, 0, 77, 67
2, 756608, Note_on_c, 0, 68, 67
2, 756608, Note_on_c, 0, 74, 67
2, 756736, Note_off_c, 0, 68, 67
2, 756736, Note_off_c, 0, 74, 67
2, 756736, Note_on_c, 0, 67, 67
2, 756736, Note_on_c, 0, 75, 67
2, 756864, Note_off_c, 0, 67, 67
2, 756864, Note_off_c, 0, 75, 67
2, 756864, Note_on_c, 0, 70, 67
2, 756864, Note_on_c, 0, 79, 67
2, 756992, Note_off_c, 0, 70, 67
2, 756992, Note_on_c, 0, 72, 67
2, 757120, Note_off_c, 0, 72, 67
2, 757120, Note_on_c, 0, 74, 67
2, 757248, Note_off_c, 0, 74, 67
2, 757248, Note_off_c, 0, 79, 67
2, 757248, Note_on_c, 0, 70, 67
2, 757248, Note_on_c, 0, 75, 67
2, 757376, Note_off_c, 0, 75, 67
2, 757376, Note_on_c, 0, 74, 67
2, 757504, Note_off_c, 0, 70, 67
2, 757504, Note_off_c, 0, 74, 67
2, 757504, Note_on_c, 0, 65, 67
2, 757504, Note_on_c, 0, 72, 67
2, 757632, Note_off_c, 0, 72, 67
2, 757632, Note_on_c, 0, 70, 67
2, 757760, Note_off_c, 0, 65, 67
2, 757760, Note_off_c, 0, 70, 67
2, 757760, Note_on_c, 0, 67, 67
2, 757760, Note_on_c, 0, 75, 67
2, 757888, Note_off_c, 0, 67, 67
2, 757888, Note_off_c, 0, 75, 67
2, 757888, Note_on_c, 0, 66, 67
2, 757888, Note_on_c, 0, 70, 67
2, 758016, Note_off_c, 0, 66, 67
2, 758016, Note_off_c, 0, 70, 67
2, 758016, Note_on_c, 0, 67, 67
2, 758016, Note_on_c, 0, 75, 67
2, 758144, Note_off_c, 0, 67, 67
2, 758144, Note_off_c, 0, 75, 67
2, 758144, Note_on_c, 0, 75, 67
2, 758144, Note_on_c, 0, 82, 67
2, 758400, Note_off_c, 0, 75, 67
2, 758400, Note_off_c, 0, 82, 67
2, 758400, Note_on_c, 0, 74, 67
2, 758400, Note_on_c, 0, 80, 67
2, 758528, Note_off_c, 0, 74, 67
2, 758528, Note_on_c, 0, 72, 67
2, 758656, Note_off_c, 0, 72, 67
2, 758656, Note_off_c, 0, 80, 67
2, 758656, Note_on_c, 0, 70, 67
2, 758656, Note_on_c, 0, 79, 67
2, 758784, Note_off_c, 0, 70, 67
2, 758784, Note_off_c, 0, 79, 67
2, 758784, Note_on_c, 0, 72, 67
2, 758784, Note_on_c, 0, 77, 67
2, 758912, Note_off_c, 0, 72, 67
2, 758912, Note_off_c, 0, 77, 67
2, 758912, Note_on_c, 0, 70, 67
2, 758912, Note_on_c, 0, 74, 67
2, 759040, Note_off_c, 0, 70, 67
2, 759040, Note_on_c, 0, 68, 67
2, 759168, Note_off_c, 0, 68, 67
2, 759168, Note_on_c, 0, 67, 67
2, 759296, Note_off_c, 0, 67, 67
2, 759296, Note_off_c, 0, 74, 67
2, 759296, Note_on_c, 0, 65, 67
2, 759296, Note_on_c, 0, 70, 67
2, 759424, Note_off_c, 0, 65, 67
2, 759424, Note_on_c, 0, 67, 67
2, 759552, Note_off_c, 0, 67, 67
2, 759552, Note_off_c, 0, 70, 67
2, 759552, Note_on_c, 0, 65, 67
2, 759552, Note_on_c, 0, 68, 67
2, 759680, Note_off_c, 0, 68, 67
2, 759680, Note_on_c, 0, 70, 67
2, 759808, Note_off_c, 0, 65, 67
2, 759808, Note_off_c, 0, 70, 67
2, 759808, Note_on_c, 0, 70, 67
2, 759808, Note_on_c, 0, 74, 67
2, 759936, Note_off_c, 0, 70, 67
2, 759936, Note_off_c, 0, 74, 67
2, 759936, Note_on_c, 0, 65, 67
2, 759936, Note_on_c, 0, 70, 67
2, 760064, Note_off_c, 0, 65, 67
2, 760064, Note_off_c, 0, 70, 67
2, 760064, Note_on_c, 0, 70, 67
2, 760064, Note_on_c, 0, 74, 67
2, 760192, Note_off_c, 0, 70, 67
2, 760192, Note_off_c, 0, 74, 67
2, 760192, Note_on_c, 0, 74, 67
2, 760192, Note_on_c, 0, 79, 67
2, 760448, Note_off_c, 0, 74, 67
2, 760448, Note_off_c, 0, 79, 67
2, 760448, Note_on_c, 0, 72, 67
2, 760448, Note_on_c, 0, 77, 67
2, 760576, Note_off_c, 0, 72, 67
2, 760576, Note_on_c, 0, 70, 67
2, 760704, Note_off_c, 0, 70, 67
2, 760704, Note_off_c, 0, 77, 67
2, 760704, Note_on_c, 0, 68, 67
2, 760704, Note_on_c, 0, 74, 67
2, 760832, Note_off_c, 0, 68, 67
2, 760832, Note_off_c, 0, 74, 67
2, 760832, Note_on_c, 0, 67, 67
2, 760832, Note_on_c, 0, 75, 67
2, 760960, Note_off_c, 0, 67, 67
2, 760960, Note_on_c, 0, 65, 67
2, 761088, Note_off_c, 0, 65, 67
2, 761088, Note_on_c, 0, 63, 67
2, 761216, Note_off_c, 0, 63, 67
2, 761216, Note_on_c, 0, 65, 67
2, 761344, Note_off_c, 0, 65, 67
2, 761344, Note_off_c, 0, 75, 67
2, 761344, Note_on_c, 0, 63, 67
2, 761344, Note_on_c, 0, 67, 67
2, 761472, Note_off_c, 0, 67, 67
2, 761472, Note_on_c, 0, 68, 67
2, 761600, Note_off_c, 0, 63, 67
2, 761600, Note_off_c, 0, 68, 67
2, 761600, Note_on_c, 0, 65, 67
2, 761600, Note_on_c, 0, 70, 67
2, 761728, Note_off_c, 0, 70, 67
2, 761728, Note_on_c, 0, 72, 67
2, 761856, Note_off_c, 0, 65, 67
2, 761856, Note_off_c, 0, 72, 67
2, 761856, Note_on_c, 0, 79, 67
2, 762368, Note_off_c, 0, 79, 67
2, 762368, Note_on_c, 0, 82, 67
2, 762624, Control_c, 0, 93, 0
2, 762624, Note_on_c, 0, 68, 67
2, 762752, Note_off_c, 0, 68, 67
2, 762752, Note_on_c, 0, 70, 67
2, 762880, Note_off_c, 0, 70, 67
2, 762880, Note_off_c, 0, 82, 67
2, 762880, Note_on_c, 0, 72, 67
2, 762880, Note_on_c, 0, 80, 67
2, 763008, Note_off_c, 0, 72, 67
2, 763008, Note_off_c, 0, 80, 67
2, 763008, Note_on_c, 0, 70, 67
2, 763008, Note_on_c, 0, 82, 67
2, 763136, Note_off_c, 0, 70, 67
2, 763136, Note_off_c, 0, 82, 67
2, 763136, Note_on_c, 0, 68, 67
2, 763136, Note_on_c, 0, 80, 67
2, 763264, Note_off_c, 0, 80, 67
2, 763264, Note_on_c, 0, 79, 67
2, 763392, Note_off_c, 0, 68, 67
2, 763392, Note_off_c, 0, 79, 67
2, 763392, Note_on_c, 0, 65, 67
2, 763392, Note_on_c, 0, 77, 67
2, 763520, Note_off_c, 0, 65, 67
2, 763520, Note_on_c, 0, 67, 67
2, 763648, Note_off_c, 0, 67, 67
2, 763648, Note_on_c, 0, 68, 67
2, 763776, Note_off_c, 0, 68, 67
2, 763776, Note_on_c, 0, 70, 67
2, 763904, Note_off_c, 0, 70, 67
2, 763904, Note_off_c, 0, 77, 67
2, 763904, Note_on_c, 0, 68, 67
2, 763904, Note_on_c, 0, 74, 67
2, 764032, Note_off_c, 0, 68, 67
2, 764032, Note_on_c, 0, 67, 67
2, 764160, Note_off_c, 0, 67, 67
2, 764160, Note_on_c, 0, 65, 67
2, 764416, Note_off_c, 0, 65, 67
2, 764416, Note_off_c, 0, 74, 67
2, 764416, Note_on_c, 0, 77, 67
2, 764672, Control_c, 0, 93, 0
2, 764672, Note_on_c, 0, 65, 67
2, 764800, Note_off_c, 0, 65, 67
2, 764800, Note_on_c, 0, 70, 67
2, 764928, Note_off_c, 0, 70, 67
2, 764928, Note_off_c, 0, 77, 67
2, 764928, Note_on_c, 0, 67, 67
2, 764928, Note_on_c, 0, 79, 67
2, 765056, Note_off_c, 0, 67, 67
2, 765056, Note_off_c, 0, 79, 67
2, 765056, Note_on_c, 0, 68, 67
2, 765056, Note_on_c, 0, 80, 67
2, 765184, Note_off_c, 0, 68, 67
2, 765184, Note_off_c, 0, 80, 67
2, 765184, Note_on_c, 0, 70, 67
2, 765184, Note_on_c, 0, 79, 67
2, 765312, Note_off_c, 0, 70, 67
2, 765312, Note_off_c, 0, 79, 67
2, 765312, Note_on_c, 0, 72, 67
2, 765312, Note_on_c, 0, 77, 67
2, 765440, Note_off_c, 0, 72, 67
2, 765440, Note_off_c, 0, 77, 67
2, 765440, Note_on_c, 0, 70, 67
2, 765440, Note_on_c, 0, 75, 67
2, 765952, Note_off_c, 0, 70, 67
2, 765952, Note_off_c, 0, 75, 67
2, 765952, Note_on_c, 0, 75, 67
2, 765952, Note_on_c, 0, 79, 67
2, 766080, Note_off_c, 0, 75, 67
2, 766080, Note_on_c, 0, 74, 67
2, 766208, Note_off_c, 0, 74, 67
2, 766208, Note_on_c, 0, 72, 67
2, 766464, Note_off_c, 0, 72, 67
2, 766464, Note_off_c, 0, 79, 67
2, 766464, Note_on_c, 0, 70, 67
2, 766464, Note_on_c, 0, 82, 67
2, 766592, Note_off_c, 0, 70, 67
2, 766592, Note_on_c, 0, 72, 67
2, 766720, Note_off_c, 0, 72, 67
2, 766720, Note_on_c, 0, 74, 67
2, 766848, Note_off_c, 0, 74, 67
2, 766848, Note_on_c, 0, 75, 67
2, 766976, Note_off_c, 0, 75, 67
2, 766976, Note_off_c, 0, 82, 67
2, 766976, Note_on_c, 0, 77, 67
2, 766976, Note_on_c, 0, 80, 67
2, 767104, Note_off_c, 0, 77, 67
2, 767104, Note_off_c, 0, 80, 67
2, 767104, Note_on_c, 0, 75, 67
2, 767104, Note_on_c, 0, 79, 67
2, 767232, Note_off_c, 0, 75, 67
2, 767232, Note_off_c, 0, 79, 67
2, 767232, Note_on_c, 0, 74, 67
2, 767232, Note_on_c, 0, 80, 67
2, 767360, Note_off_c, 0, 80, 67
2, 767360, Note_on_c, 0, 82, 67
2, 767488, Note_off_c, 0, 74, 67
2, 767488, Note_off_c, 0, 82, 67
2, 767488, Note_on_c, 0, 72, 67
2, 767488, Note_on_c, 0, 84, 67
2, 767616, Note_off_c, 0, 72, 67
2, 767616, Note_on_c, 0, 74, 67
2, 767744, Note_off_c, 0, 74, 67
2, 767744, Note_on_c, 0, 75, 67
2, 767872, Note_off_c, 0, 75, 67
2, 767872, Note_on_c, 0, 77, 67
2, 768000, Note_off_c, 0, 77, 67
2, 768000, Note_off_c, 0, 84, 67
2, 768000, Note_on_c, 0, 74, 67
2, 768000, Note_on_c, 0, 82, 67
2, 768128, Note_off_c, 0, 74, 67
2, 768128, Note_on_c, 0, 72, 67
2, 768256, Note_off_c, 0, 72, 67
2, 768256, Note_off_c, 0, 82, 67
2, 768256, Note_on_c, 0, 70, 67
2, 768256, Note_on_c, 0, 80, 67
2, 768384, Note_off_c, 0, 80, 67
2, 768384, Note_on_c, 0, 79, 67
2, 768512, Note_off_c, 0, 70, 67
2, 768512, Note_off_c, 0, 79, 67
2, 768512, Note_on_c, 0, 68, 67
2, 768512, Note_on_c, 0, 80, 67
2, 768640, Note_off_c, 0, 68, 67
2, 768640, Note_on_c, 0, 70, 67
2, 768768, Note_off_c, 0, 70, 67
2, 768768, Note_on_c, 0, 72, 67
2, 768896, Note_off_c, 0, 72, 67
2, 768896, Note_on_c, 0, 68, 67
2, 769024, Note_off_c, 0, 68, 67
2, 769024, Note_off_c, 0, 80, 67
2, 769024, Note_on_c, 0, 70, 67
2, 769024, Note_on_c, 0, 79, 67
2, 769152, Note_off_c, 0, 70, 67
2, 769152, Note_off_c, 0, 79, 67
2, 769152, Note_on_c, 0, 68, 67
2, 769152, Note_on_c, 0, 80, 67
2, 769280, Note_off_c, 0, 68, 67
2, 769280, Note_off_c, 0, 80, 67
2, 769280, Note_on_c, 0, 67, 67
2, 769280, Note_on_c, 0, 79, 67
2, 769408, Note_off_c, 0, 67, 67
2, 769408, Note_off_c, 0, 79, 67
2, 769408, Note_on_c, 0, 65, 67
2, 769408, Note_on_c, 0, 77, 67
2, 769536, Note_off_c, 0, 65, 67
2, 769536, Note_off_c, 0, 77, 67
2, 769536, Note_on_c, 0, 63, 67
2, 769536, Note_on_c, 0, 75, 67
2, 769664, Note_off_c, 0, 63, 67
2, 769664, Note_on_c, 0, 65, 67
2, 769792, Note_off_c, 0, 65, 67
2, 769792, Note_on_c, 0, 67, 67
2, 769920, Note_off_c, 0, 67, 67
2, 769920, Note_on_c, 0, 68, 67
2, 770048, Note_off_c, 0, 68, 67
2, 770048, Note_off_c, 0, 75, 67
2, 770048, Time_signature, 4, 2, 24, 8
2, 770048, Key_signature, -3, "major"
2, 770048, Note_on_c, 0, 67, 67
2, 770048, Note_on_c, 0, 75, 67
2, 770176, Note_off_c, 0, 67, 67
2, 770176, Note_off_c, 0, 75, 67
2, 770176, Note_on_c, 0, 66, 67
2, 770176, Note_on_c, 0, 70, 67
2, 770304, Note_off_c, 0, 66, 67
2, 770304, Note_off_c, 0, 70, 67
2, 770304, Note_on_c, 0, 67, 67
2, 770304, Note_on_c, 0, 75, 67
2, 770432, Note_off_c, 0, 67, 67
2, 770432, Note_off_c, 0, 75, 67
2, 770432, Note_on_c, 0, 75, 67
2, 770432, Note_on_c, 0, 82, 67
2, 770688, Note_off_c, 0, 75, 67
2, 770688, Note_off_c, 0, 82, 67
2, 770688, Note_on_c, 0, 74, 67
2, 770688, Note_on_c, 0, 80, 67
2, 770816, Note_off_c, 0, 74, 67
2, 770816, Note_on_c, 0, 72, 67
2, 770944, Note_off_c, 0, 72, 67
2, 770944, Note_off_c, 0, 80, 67
2, 770944, Note_on_c, 0, 70, 67
2, 770944, Note_on_c, 0, 79, 67
2, 771072, Note_off_c, 0, 70, 67
2, 771072, Note_off_c, 0, 79, 67
2, 771072, Note_on_c, 0, 72, 67
2, 771072, Note_on_c, 0, 77, 67
2, 771200, Note_off_c, 0, 72, 67
2, 771200, Note_off_c, 0, 77, 67
2, 771200, Note_on_c, 0, 70, 67
2, 771200, Note_on_c, 0, 74, 67
2, 771328, Note_off_c, 0, 70, 67
2, 771328, Note_on_c, 0, 68, 67
2, 771456, Note_off_c, 0, 68, 67
2, 771456, Note_on_c, 0, 67, 67
2, 771584, Note_off_c, 0, 67, 67
2, 771584, Note_off_c, 0, 74, 67
2, 771584, Note_on_c, 0, 65, 67
2, 771584, Note_on_c, 0, 70, 67
2, 771712, Note_off_c, 0, 65, 67
2, 771712, Note_on_c, 0, 67, 67
2, 771840, Note_off_c, 0, 67, 67
2, 771840, Note_off_c, 0, 70, 67
2, 771840, Note_on_c, 0, 65, 67
2, 771840, Note_on_c, 0, 68, 67
2, 771968, Note_off_c, 0, 68, 67
2, 771968, Note_on_c, 0, 70, 67
2, 772096, Note_off_c, 0, 65, 67
2, 772096, Note_off_c, 0, 70, 67
2, 772096, Note_on_c, 0, 70, 67
2, 772096, Note_on_c, 0, 74, 67
2, 772224, Note_off_c, 0, 70, 67
2, 772224, Note_off_c, 0, 74, 67
2, 772224, Note_on_c, 0, 65, 67
2, 772224, Note_on_c, 0, 70, 67
2, 772352, Note_off_c, 0, 65, 67
2, 772352, Note_off_c, 0, 70, 67
2, 772352, Note_on_c, 0, 70, 67
2, 772352, Note_on_c, 0, 74, 67
2, 772480, Note_off_c, 0, 70, 67
2, 772480, Note_off_c, 0, 74, 67
2, 772480, Note_on_c, 0, 74, 67
2, 772480, Note_on_c, 0, 79, 67
2, 772736, Note_off_c, 0, 74, 67
2, 772736, Note_off_c, 0, 79, 67
2, 772736, Note_on_c, 0, 72, 67
2, 772736, Note_on_c, 0, 77, 67
2, 772864, Note_off_c, 0, 72, 67
2, 772864, Note_on_c, 0, 70, 67
2, 772992, Note_off_c, 0, 70, 67
2, 772992, Note_off_c, 0, 77, 67
2, 772992, Note_on_c, 0, 68, 67
2, 772992, Note_on_c, 0, 74, 67
2, 773120, Note_off_c, 0, 68, 67
2, 773120, Note_off_c, 0, 74, 67
2, 773120, Note_on_c, 0, 67, 67
2, 773120, Note_on_c, 0, 75, 67
2, 773248, Note_off_c, 0, 67, 67
2, 773248, Note_off_c, 0, 75, 67
2, 773248, Note_on_c, 0, 70, 67
2, 773248, Note_on_c, 0, 79, 67
2, 773376, Note_off_c, 0, 70, 67
2, 773376, Note_on_c, 0, 72, 67
2, 773504, Note_off_c, 0, 72, 67
2, 773504, Note_on_c, 0, 74, 67
2, 773632, Note_off_c, 0, 74, 67
2, 773632, Note_off_c, 0, 79, 67
2, 773632, Note_on_c, 0, 70, 67
2, 773632, Note_on_c, 0, 75, 67
2, 773760, Note_off_c, 0, 75, 67
2, 773760, Note_on_c, 0, 74, 67
2, 773888, Note_off_c, 0, 70, 67
2, 773888, Note_off_c, 0, 74, 67
2, 773888, Note_on_c, 0, 65, 67
2, 773888, Note_on_c, 0, 72, 67
2, 774016, Note_off_c, 0, 72, 67
2, 774016, Note_on_c, 0, 70, 67
2, 774144, Note_off_c, 0, 65, 67
2, 774144, Note_off_c, 0, 70, 67
2, 774144, Note_on_c, 0, 67, 67
2, 774144, Note_on_c, 0, 75, 67
2, 774272, Note_off_c, 0, 67, 67
2, 774272, Note_off_c, 0, 75, 67
2, 774272, Note_on_c, 0, 66, 67
2, 774272, Note_on_c, 0, 70, 67
2, 774400, Note_off_c, 0, 66, 67
2, 774400, Note_off_c, 0, 70, 67
2, 774400, Note_on_c, 0, 67, 67
2, 774400, Note_on_c, 0, 75, 67
2, 774528, Note_off_c, 0, 67, 67
2, 774528, Note_off_c, 0, 75, 67
2, 774528, Note_on_c, 0, 75, 67
2, 774528, Note_on_c, 0, 82, 67
2, 774784, Note_off_c, 0, 75, 67
2, 774784, Note_off_c, 0, 82, 67
2, 774784, Note_on_c, 0, 74, 67
2, 774784, Note_on_c, 0, 80, 67
2, 774912, Note_off_c, 0, 74, 67
2, 774912, Note_on_c, 0, 72, 67
2, 775040, Note_off_c, 0, 72, 67
2, 775040, Note_off_c, 0, 80, 67
2, 775040, Note_on_c, 0, 70, 67
2, 775040, Note_on_c, 0, 79, 67
2, 775168, Note_off_c, 0, 70, 67
2, 775168, Note_off_c, 0, 79, 67
2, 775168, Note_on_c, 0, 72, 67
2, 775168, Note_on_c, 0, 77, 67
2, 775296, Note_off_c, 0, 72, 67
2, 775296, Note_off_c, 0, 77, 67
2, 775296, Note_on_c, 0, 70, 67
2, 775296, Note_on_c, 0, 74, 67
2, 775424, Note_off_c, 0, 70, 67
2, 775424, Note_on_c, 0, 68, 67
2, 775552, Note_off_c, 0, 68, 67
2, 775552, Note_on_c, 0, 67, 67
2, 775680, Note_off_c, 0, 67, 67
2, 775680, Note_off_c, 0, 74, 67
2, 775680, Note_on_c, 0, 65, 67
2, 775680, Note_on_c, 0, 70, 67
2, 775808, Note_off_c, 0, 65, 67
2, 775808, Note_on_c, 0, 67, 67
2, 775936, Note_off_c, 0, 67, 67
2, 775936, Note_off_c, 0, 70, 67
2, 775936, Note_on_c, 0, 65, 67
2, 775936, Note_on_c, 0, 68, 67
2, 776064, Note_off_c, 0, 68, 67
2, 776064, Note_on_c, 0, 70, 67
2, 776192, Note_off_c, 0, 65, 67
2, 776192, Note_off_c, 0, 70, 67
2, 776192, Note_on_c, 0, 70, 67
2, 776192, Note_on_c, 0, 74, 67
2, 776320, Note_off_c, 0, 70, 67
2, 776320, Note_off_c, 0, 74, 67
2, 776320, Note_on_c, 0, 65, 67
2, 776320, Note_on_c, 0, 70, 67
2, 776448, Note_off_c, 0, 65, 67
2, 776448, Note_off_c, 0, 70, 67
2, 776448, Note_on_c, 0, 70, 67
2, 776448, Note_on_c, 0, 74, 67
2, 776576, Note_off_c, 0, 70, 67
2, 776576, Note_off_c, 0, 74, 67
2, 776576, Note_on_c, 0, 74, 67
2, 776576, Note_on_c, 0, 79, 67
2, 776832, Note_off_c, 0, 74, 67
2, 776832, Note_off_c, 0, 79, 67
2, 776832, Note_on_c, 0, 72, 67
2, 776832, Note_on_c, 0, 77, 67
2, 776960, Note_off_c, 0, 72, 67
2, 776960, Note_on_c, 0, 70, 67
2, 777088, Note_off_c, 0, 70, 67
2, 777088, Note_off_c, 0, 77, 67
2, 777088, Note_on_c, 0, 68, 67
2, 777088, Note_on_c, 0, 74, 67
2, 777216, Note_off_c, 0, 68, 67
2, 777216, Note_off_c, 0, 74, 67
2, 777216, Note_on_c, 0, 67, 67
2, 777216, Note_on_c, 0, 75, 67
2, 777344, Note_off_c, 0, 67, 67
2, 777344, Note_on_c, 0, 65, 67
2, 777472, Note_off_c, 0, 65, 67
2, 777472, Note_on_c, 0, 63, 67
2, 777600, Note_off_c, 0, 63, 67
2, 777600, Note_on_c, 0, 65, 67
2, 777728, Note_off_c, 0, 65, 67
2, 777728, Note_off_c, 0, 75, 67
2, 777728, Note_on_c, 0, 63, 67
2, 777728, Note_on_c, 0, 67, 67
2, 777856, Note_off_c, 0, 67, 67
2, 777856, Note_on_c, 0, 68, 67
2, 777984, Note_off_c, 0, 63, 67
2, 777984, Note_off_c, 0, 68, 67
2, 777984, Note_on_c, 0, 65, 67
2, 777984, Note_on_c, 0, 70, 67
2, 778112, Note_off_c, 0, 70, 67
2, 778112, Note_on_c, 0, 72, 67
2, 778240, Note_off_c, 0, 65, 67
2, 778240, Note_off_c, 0, 72, 67
2, 778240, Note_on_c, 0, 79, 67
2, 778752, Note_off_c, 0, 79, 67
2, 778752, Note_on_c, 0, 82, 67
2, 779008, Control_c, 0, 93, 0
2, 779008, Note_on_c, 0, 68, 67
2, 779136, Note_off_c, 0, 68, 67
2, 779136, Note_on_c, 0, 70, 67
2, 779264, Note_off_c, 0, 70, 67
2, 779264, Note_off_c, 0, 82, 67
2, 779264, Note_on_c, 0, 72, 67
2, 779264, Note_on_c, 0, 80, 67
2, 779392, Note_off_c, 0, 72, 67
2, 779392, Note_off_c, 0, 80, 67
2, 779392, Note_on_c, 0, 70, 67
2, 779392, Note_on_c, 0, 82, 67
2, 779520, Note_off_c, 0, 70, 67
2, 779520, Note_off_c, 0, 82, 67
2, 779520, Note_on_c, 0, 68, 67
2, 779520, Note_on_c, 0, 80, 67
2, 779648, Note_off_c, 0, 80, 67
2, 779648, Note_on_c, 0, 79, 67
2, 779776, Note_off_c, 0, 68, 67
2, 779776, Note_off_c, 0, 79, 67
2, 779776, Note_on_c, 0, 65, 67
2, 779776, Note_on_c, 0, 77, 67
2, 779904, Note_off_c, 0, 65, 67
2, 779904, Note_on_c, 0, 67, 67
2, 780032, Note_off_c, 0, 67, 67
2, 780032, Note_on_c, 0, 68, 67
2, 780160, Note_off_c, 0, 68, 67
2, 780160, Note_on_c, 0, 70, 67
2, 780288, Note_off_c, 0, 70, 67
2, 780288, Note_off_c, 0, 77, 67
2, 780288, Note_on_c, 0, 68, 67
2, 780288, Note_on_c, 0, 74, 67
2, 780416, Note_off_c, 0, 68, 67
2, 780416, Note_on_c, 0, 67, 67
2, 780544, Note_off_c, 0, 67, 67
2, 780544, Note_on_c, 0, 65, 67
2, 780800, Note_off_c, 0, 65, 67
2, 780800, Note_off_c, 0, 74, 67
2, 780800, Note_on_c, 0, 77, 67
2, 781056, Control_c, 0, 93, 0
2, 781056, Note_on_c, 0, 65, 67
2, 781184, Note_off_c, 0, 65, 67
2, 781184, Note_on_c, 0, 70, 67
2, 781312, Note_off_c, 0, 70, 67
2, 781312, Note_off_c, 0, 77, 67
2, 781312, Note_on_c, 0, 67, 67
2, 781312, Note_on_c, 0, 79, 67
2, 781440, Note_off_c, 0, 67, 67
2, 781440, Note_off_c, 0, 79, 67
2, 781440, Note_on_c, 0, 68, 67
2, 781440, Note_on_c, 0, 80, 67
2, 781568, Note_off_c, 0, 68, 67
2, 781568, Note_off_c, 0, 80, 67
2, 781568, Note_on_c, 0, 70, 67
2, 781568, Note_on_c, 0, 79, 67
2, 781696, Note_off_c, 0, 70, 67
2, 781696, Note_off_c, 0, 79, 67
2, 781696, Note_on_c, 0, 72, 67
2, 781696, Note_on_c, 0, 77, 67
2, 781824, Note_off_c, 0, 72, 67
2, 781824, Note_off_c, 0, 77, 67
2, 781824, Note_on_c, 0, 70, 67
2, 781824, Note_on_c, 0, 75, 67
2, 782336, Note_off_c, 0, 70, 67
2, 782336, Note_off_c, 0, 75, 67
2, 782336, Note_on_c, 0, 75, 67
2, 782336, Note_on_c, 0, 79, 67
2, 782464, Note_off_c, 0, 75, 67
2, 782464, Note_on_c, 0, 74, 67
2, 782592, Note_off_c, 0, 74, 67
2, 782592, Note_on_c, 0, 72, 67
2, 782848, Note_off_c, 0, 72, 67
2, 782848, Note_off_c, 0, 79, 67
2, 782848, Note_on_c, 0, 70, 67
2, 782848, Note_on_c, 0, 82, 67
2, 782976, Note_off_c, 0, 70, 67
2, 782976, Note_on_c, 0, 72, 67
2, 783104, Note_off_c, 0, 72, 67
2, 783104, Note_on_c, 0, 74, 67
2, 783232, Note_off_c, 0, 74, 67
2, 783232, Note_on_c, 0, 75, 67
2, 783360, Note_off_c, 0, 75, 67
2, 783360, Note_off_c, 0, 82, 67
2, 783360, Note_on_c, 0, 77, 67
2, 783360, Note_on_c, 0, 80, 67
2, 783488, Note_off_c, 0, 77, 67
2, 783488, Note_off_c, 0, 80, 67
2, 783488, Note_on_c, 0, 75, 67
2, 783488, Note_on_c, 0, 79, 67
2, 783616, Note_off_c, 0, 75, 67
2, 783616, Note_off_c, 0, 79, 67
2, 783616, Note_on_c, 0, 74, 67
2, 783616, Note_on_c, 0, 80, 67
2, 783744, Note_off_c, 0, 80, 67
2, 783744, Note_on_c, 0, 82, 67
2, 783872, Note_off_c, 0, 74, 67
2, 783872, Note_off_c, 0, 82, 67
2, 783872, Note_on_c, 0, 72, 67
2, 783872, Note_on_c, 0, 84, 67
2, 784000, Note_off_c, 0, 72, 67
2, 784000, Note_on_c, 0, 74, 67
2, 784128, Note_off_c, 0, 74, 67
2, 784128, Note_on_c, 0, 75, 67
2, 784256, Note_off_c, 0, 75, 67
2, 784256, Note_on_c, 0, 77, 67
2, 784384, Note_off_c, 0, 77, 67
2, 784384, Note_off_c, 0, 84, 67
2, 784384, Note_on_c, 0, 74, 67
2, 784384, Note_on_c, 0, 82, 67
2, 784512, Note_off_c, 0, 74, 67
2, 784512, Note_on_c, 0, 72, 67
2, 784640, Note_off_c, 0, 72, 67
2, 784640, Note_off_c, 0, 82, 67
2, 784640, Note_on_c, 0, 70, 67
2, 784640, Note_on_c, 0, 80, 67
2, 784768, Note_off_c, 0, 80, 67
2, 784768, Note_on_c, 0, 79, 67
2, 784896, Note_off_c, 0, 70, 67
2, 784896, Note_off_c, 0, 79, 67
2, 784896, Note_on_c, 0, 68, 67
2, 784896, Note_on_c, 0, 80, 67
2, 785024, Note_off_c, 0, 68, 67
2, 785024, Note_on_c, 0, 70, 67
2, 785152, Note_off_c, 0, 70, 67
2, 785152, Note_on_c, 0, 72, 67
2, 785280, Note_off_c, 0, 72, 67
2, 785280, Note_on_c, 0, 68, 67
2, 785408, Note_off_c, 0, 68, 67
2, 785408, Note_off_c, 0, 80, 67
2, 785408, Note_on_c, 0, 70, 67
2, 785408, Note_on_c, 0, 79, 67
2, 785536, Note_off_c, 0, 70, 67
2, 785536, Note_off_c, 0, 79, 67
2, 785536, Note_on_c, 0, 68, 67
2, 785536, Note_on_c, 0, 80, 67
2, 785664, Note_off_c, 0, 68, 67
2, 785664, Note_off_c, 0, 80, 67
2, 785664, Note_on_c, 0, 67, 67
2, 785664, Note_on_c, 0, 79, 67
2, 785792, Note_off_c, 0, 67, 67
2, 785792, Note_off_c, 0, 79, 67
2, 785792, Note_on_c, 0, 65, 67
2, 785792, Note_on_c, 0, 77, 67
2, 785920, Note_off_c, 0, 65, 67
2, 785920, Note_off_c, 0, 77, 67
2, 785920, Note_on_c, 0, 63, 67
2, 785920, Note_on_c, 0, 75, 67
2, 786048, Note_off_c, 0, 63, 67
2, 786048, Note_on_c, 0, 65, 67
2, 786176, Note_off_c, 0, 65, 67
2, 786176, Note_on_c, 0, 67, 67
2, 786304, Note_off_c, 0, 67, 67
2, 786304, Note_on_c, 0, 68, 67
2, 786432, Note_off_c, 0, 68, 67
2, 786432, Note_off_c, 0, 75, 67
2, 786432, Time_signature, 4, 2, 24, 8
2, 786432, Key_signature, -3, "major"
2, 786432, Note_on_c, 0, 67, 67
2, 786432, Note_on_c, 0, 75, 67
2, 786560, Note_off_c, 0, 67, 67
2, 786560, Note_off_c, 0, 75, 67
2, 786560, Note_on_c, 0, 66, 67
2, 786560, Note_on_c, 0, 70, 67
2, 786688, Note_off_c, 0, 66, 67
2, 786688, Note_off_c, 0, 70, 67
2, 786688, Note_on_c, 0, 67, 67
2, 786688, Note_on_c, 0, 75, 67
2, 786816, Note_off_c, 0, 67, 67
2, 786816, Note_off_c, 0, 75, 67
2, 786816, Note_on_c, 0, 75, 67
2, 786816, Note_on_c, 0, 82, 67
2, 787072, Note_off_c, 0, 75, 67
2, 787072, Note_off_c, 0, 82, 67
2, 787072, Note_on_c, 0, 74, 67
2, 787072, Note_on_c, 0, 80, 67
2, 787200, Note_off_c, 0, 74, 67
2, 787200, Note_on_c, 0, 72, 67
2, 787328, Note_off_c, 0, 72, 67
2, 787328, Note_off_c, 0, 80, 67
2, 787328, Note_on_c, 0, 70, 67
2, 787328, Note_on_c, 0, 79, 67
2, 787456, Note_off_c, 0, 70, 67
2, 787456, Note_off_c, 0, 79, 67
2, 787456, Note_on_c, 0, 72, 67
2, 787456, Note_on_c, 0, 77, 67
2, 787584, Note_off_c, 0, 72, 67
2, 787584, Note_off_c, 0, 77, 67
2, 787584, Note_on_c, 0, 70, 67
2, 787584, Note_on_c, 0, 74, 67
2, 787712, Note_off_c, 0, 70, 67
2, 787712, Note_on_c, 0, 68, 67
2, 787840, Note_off_c, 0, 68, 67
2, 787840, Note_on_c, 0, 67, 67
2, 787968, Note_off_c, 0, 67, 67
2, 787968, Note_off_c, 0, 74, 67
2, 787968, Note_on_c, 0, 65, 67
2, 787968, Note_on_c, 0, 70, 67
2, 788096, Note_off_c, 0, 65, 67
2, 788096, Note_on_c, 0, 67, 67
2, 788224, Note_off_c, 0, 67, 67
2, 788224, Note_off_c, 0, 70, 67
2, 788224, Note_on_c, 0, 65, 67
2, 788224, Note_on_c, 0, 68, 67
2, 788352, Note_off_c, 0, 68, 67
2, 788352, Note_on_c, 0, 70, 67
2, 788480, Note_off_c, 0, 65, 67
2, 788480, Note_off_c, 0, 70, 67
2, 788480, Note_on_c, 0, 70, 67
2, 788480, Note_on_c, 0, 74, 67
2, 788608, Note_off_c, 0, 70, 67
2, 788608, Note_off_c, 0, 74, 67
2, 788608, Note_on_c, 0, 65, 67
2, 788608, Note_on_c, 0, 70, 67
2, 788736, Note_off_c, 0, 65, 67
2, 788736, Note_off_c, 0, 70, 67
2, 788736, Note_on_c, 0, 70, 67
2, 788736, Note_on_c, 0, 74, 67
2, 788864, Note_off_c, 0, 70, 67
2, 788864, Note_off_c, 0, 74, 67
2, 788864, Note_on_c, 0, 74, 67
2, 788864, Note_on_c, 0, 79, 67
2, 789120, Note_off_c, 0, 74, 67
2, 789120, Note_off_c, 0, 79, 67
2, 789120, Note_on_c, 0, 72, 67
2, 789120, Note_on_c, 0, 77, 67
2, 789248, Note_off_c, 0, 72, 67
2, 789248, Note_on_c, 0, 70, 67
2, 789376, Note_off_c, 0, 70, 67
2, 789376, Note_off_c, 0, 77, 67
2, 789376, Note_on_c, 0, 68, 67
2, 789376, Note_on_c, 0, 74, 67
2, 789504, Note_off_c, 0, 68, 67
2, 789504, Note_off_c, 0, 74, 67
2, 789504, Note_on_c, 0, 67, 67
2, 789504, Note_on_c, 0, 75, 67
2, 789632, Note_off_c, 0, 67, 67
2, 789632, Note_off_c, 0, 75, 67
2, 789632, Note_on_c, 0, 70, 67
2, 789632, Note_on_c, 0, 79, 67
2, 789760, Note_off_c, 0, 70, 67
2, 789760, Note_on_c, 0, 72, 67
2, 789888, Note_off_c, 0, 72, 67
2, 789888, Note_on_c, 0, 74, 67
2, 790016, Note_off_c, 0, 74, 67
2, 790016, Note_off_c, 0, 79, 67
2, 790016, Note_on_c, 0, 70, 67
2, 790016, Note_on_c, 0, 75, 67
2, 790144, Note_off_c, 0, 75, 67
2, 790144, Note_on_c, 0, 74, 67
2, 790272, Note_off_c, 0, 70, 67
2, 790272, Note_off_c, 0, 74, 67
2, 790272, Note_on_c, 0, 65, 67
2, 790272, Note_on_c, 0, 72, 67
2, 790400, Note_off_c, 0, 72, 67
2, 790400, Note_on_c, 0, 70, 67
2, 790528, Note_off_c, 0, 65, 67
2, 790528, Note_off_c, 0, 70, 67
2, 790528, Note_on_c, 0, 67, 67
2, 790528, Note_on_c, 0, 75, 67
2, 790656, Note_off_c, 0, 67, 67
2, 790656, Note_off_c, 0, 75, 67
2, 790656, Note_on_c, 0, 66, 67
2, 790656, Note_on_c, 0, 70, 67
2, 790784, Note_off_c, 0, 66, 67
2, 790784, Note_off_c, 0, 70, 67
2, 790784, Note_on_c, 0, 67, 67
2, 790784, Note_on_c, 0, 75, 67
2, 790912, Note_off_c, 0, 67, 67
2, 790912, Note_off_c, 0, 75, 67
2, 790912, Note_on_c, 0, 75, 67
2, 790912, Note_on_c, 0, 82, 67
2, 791168, Note_off_c, 0, 75, 67
2, 791168, Note_off_c, 0, 82, 67
2, 791168, Note_on_c, 0, 74, 67
2, 791168, Note_on_c, 0, 80, 67
2, 791296, Note_off_c, 0, 74, 67
2, 791296, Note_on_c, 0, 72, 67
2, 791424, Note_off_c, 0, 72, 67
2, 791424, Note_off_c, 0, 80, 67
2, 791424, Note_on_c, 0, 70, 67
2, 791424, Note_on_c, 0, 79, 67
2, 791552, Note_off_c, 0, 70, 67
2, 791552, Note_off_c, 0, 79, 67
2, 791552, Note_on_c, 0, 72, 67
2, 791552, Note_on_c, 0, 77, 67
2, 791680, Note_off_c, 0, 72, 67
2, 791680, Note_off_c, 0, 77, 67
2, 791680, Note_on_c, 0, 70, 67
2, 791680, Note_on_c, 0, 74, 67
2, 791808, Note_off_c, 0, 70, 67
2, 791808, Note_on_c, 0, 68, 67
2, 791936, Note_off_c, 0, 68, 67
2, 791936, Note_on_c, 0, 67, 67
2, 792064, Note_off_c, 0, 67, 67
2, 792064, Note_off_c, 0, 74, 67
2, 792064, Note_on_c, 0, 65, 67
2, 792064, Note_on_c, 0, 70, 67
2, 792192, Note_off_c, 0, 65, 67
2, 792192, Note_on_c, 0, 67, 67
2, 792320, Note_off_c, 0, 67, 67
2, 792320, Note_off_c, 0, 70, 67
2, 792320, Note_on_c, 0, 65, 67
2, 792320, Note_on_c, 0, 68, 67
2, 792448, Note_off_c, 0, 68, 67
2, 792448, Note_on_c, 0, 70, 67
2, 792576, Note_off_c, 0, 65, 67
2, 792576, Note_off_c, 0, 70, 67
2, 792576, Note_on_c, 0, 70, 67
2, 792576, Note_on_c, 0, 74, 67
2, 792704, Note_off_c, 0, 70, 67
2, 792704, Note_off_c, 0, 74, 67
2, 792704, Note_on_c, 0, 65, 67
2, 792704, Note_on_c, 0, 70, 67
2, 792832, Note_off_c, 0, 65, 67
2, 792832, Note_off_c, 0, 70, 67
2, 792832, Note_on_c, 0, 70, 67
2, 792832, Note_on_c, 0, 74, 67
2, 792960, Note_off_c, 0, 70, 67
2, 792960, Note_off_c, 0, 74, 67
2, 792960, Note_on_c, 0, 74, 67
2, 792960, Note_on_c, 0, 79, 67
2, 793216, Note_off_c, 0, 74, 67
2, 793216, Note_off_c, 0, 79, 67
2, 793216, Note_on_c, 0, 72, 67
2, 793216, Note_on_c, 0, 77, 67
2, 793344, Note_off_c, 0, 72, 67
2, 793344, Note_on_c, 0, 70, 67
2, 793472, Note_off_c, 0, 70, 67
2, 793472, Note_off_c, 0, 77, 67
2, 793472, Note_on_c, 0, 68, 67
2, 793472, Note_on_c, 0, 74, 67
2, 793600, Note_off_c, 0, 68, 67
2, 793600, Note_off_c, 0, 74, 67
2, 793600, Note_on_c, 0, 67, 67
2, 793600, Note_on_c, 0, 75, 67
2, 793728, Note_off_c, 0, 67, 67
2, 793728, Note_on_c, 0, 65, 67
2, 793856, Note_off_c, 0, 65, 67
2, 793856, Note_on_c, 0, 63, 67
2, 793984, Note_off_c, 0, 63, 67
2, 793984, Note_on_c, 0, 65, 67
2, 794112, Note_off_c, 0, 65, 67
2, 794112, Note_off_c, 0, 75, 67
2, 794112, Note_on_c, 0, 63, 67
2, 794112, Note_on_c, 0, 67, 67
2, 794240, Note_off_c, 0, 67, 67
2, 794240, Note_on_c, 0, 68, 67
2, 794368, Note_off_c, 0, 63, 67
2, 794368, Note_off_c, 0, 68, 67
2, 794368, Note_on_c, 0, 65, 67
2, 794368, Note_on_c, 0, 70, 67
2, 794496, Note_off_c, 0, 70, 67
2, 794496, Note_on_c, 0, 72, 67
2, 794624, Note_off_c, 0, 65, 67
2, 794624, Note_off_c, 0, 72, 67
2, 794624, Note_on_c, 0, 79, 67
2, 795136, Note_off_c, 0, 79, 67
2, 795136, Note_on_c, 0, 82, 67
2, 795392, Control_c, 0, 93, 0
2, 795392, Note_on_c, 0, 68, 67
2, 795520, Note_off_c, 0, 68, 67
2, 795520, Note_on_c, 0, 70, 67
2, 795648, Note_off_c, 0, 70, 67
2, 795648, Note_off_c, 0, 82, 67
2, 795648, Note_on_c, 0, 72, 67
2, 795648, Note_on_c, 0, 80, 67
2, 795776, Note_off_c, 0, 72, 67
2, 795776, Note_off_c, 0, 80, 67
2, 795776, Note_on_c, 0, 70, 67
2, 795776, Note_on_c, 0, 82, 67
2, 795904, Note_off_c, 0, 70, 67
2, 795904, Note_off_c, 0, 82, 67
2, 795904, Note_on_c, 0, 68, 67
2, 795904, Note_on_c, 0, 80, 67
2, 796032, Note_off_c, 0, 80, 67
2, 796032, Note_on_c, 0, 79, 67
2, 796160, Note_off_c, 0, 68, 67
2, 796160, Note_off_c, 0, 79, 67
2, 796160, Note_on_c, 0, 65, 67
2, 796160, Note_on_c, 0, 77, 67
2, 796288, Note_off_c, 0, 65, 67
2, 796288, Note_on_c, 0, 67, 67
2, 796416, Note_off_c, 0, 67, 67
2, 796416, Note_on_c, 0, 68, 67
2, 796544, Note_off_c, 0, 68, 67
2, 796544, Note_on_c, 0, 70, 67
2, 796672, Note_off_c, 0, 70, 67
2, 796672, Note_off_c, 0, 77, 67
2, 796672, Note_on_c, 0, 68, 67
2, 796672, Note_on_c, 0, 74, 67
2, 796800, Note_off_c, 0, 68, 67
2, 796800, Note_on_c, 0, 67, 67
2, 796928, Note_off_c, 0, 67, 67
2, 796928, Note_on_c, 0, 65, 67
2, 797184, Note_off_c, 0, 65, 67
2, 797184, Note_off_c, 0, 74, 67
2, 797184, Note_on_c, 0, 77, 67
2, 797440, Control_c, 0, 93, 0
2, 797440, Note_on_c, 0, 65, 67
2, 797568, Note_off_c, 0, 65, 67
2, 797568, Note_on_c, 0, 70, 67
2, 797696, Note_off_c, 0, 70, 67
2, 797696, Note_off_c, 0, 77, 67
2, 797696, Note_on_c, 0, 67, 67
2, 797696, Note_on_c, 0, 79, 67
2, 797824, Note_off_c, 0, 67, 67
2, 797824, Note_off_c, 0, 79, 67
2, 797824, Note_on_c, 0, 68, 67
2, 797824, Note_on_c, 0, 80, 67
2, 797952, Note_off_c, 0, 68, 67
2, 797952, Note_off_c, 0, 80, 67
2, 797952, Note_on_c, 0, 70, 67
2, 797952, Note_on_c, 0, 79, 67
2, 798080, Note_off_c, 0, 70, 67
2, 798080, Note_off_c, 0, 79, 67
2, 798080, Note_on_c, 0, 72, 67
2, 798080, Note_on_c, 0, 77, 67
2, 798208, Note_off_c, 0, 72, 67
2, 798208, Note_off_c, 0, 77, 67
2, 798208, Note_on_c, 0, 70, 67
2, 798208, Note_on_c, 0, 75, 67
2, 798720, Note_off_c, 0, 70, 67
2, 798720, Note_off_c, 0, 75, 67
2, 798720, Note_on_c, 0, 75, 67
2, 798720, Note_on_c, 0, 79, 67
2, 798848, Note_off_c, 0, 75, 67
2, 798848, Note_on_c, 0, 74, 67
2, 798976, Note_off_c, 0, 74, 67
2, 798976, Note_on_c, 0, 72, 67
2, 799232, Note_off_c, 0, 72, 67
2, 799232, Note_off_c, 0, 79, 67
2, 799232, Note_on_c, 0, 70, 67
2, 799232, Note_on_c, 0, 82, 67
2, 799360, Note_off_c, 0, 70, 67
2, 799360, Note_on_c, 0, 72, 67
2, 799488, Note_off_c, 0, 72, 67
2, 799488, Note_on_c, 0, 74, 67
2, 799616, Note_off_c, 0, 74, 67
2, 799616, Note_on_c, 0, 75, 67
2, 799744, Note_off_c, 0, 75, 67
2, 799744, Note_off_c, 0, 82, 67
2, 799744, Note_on_c, 0, 77, 67
2, 799744, Note_on_c, 0, 80, 67
2, 799872, Note_off_c, 0, 77, 67
2, 799872, Note_off_c, 0, 80, 67
2, 799872, Note_on_c, 0, 75, 67
2, 799872, Note_on_c, 0, 79, 67
2, 800000, Note_off_c, 0, 75, 67
2, 800000, Note_off_c, 0, 79, 67
2, 800000, Note_on_c, 0, 74, 67
2, 800000, Note_on_c, 0, 80, 67
2, 800128, Note_off_c, 0, 80, 67
2, 800128, Note_on_c, 0, 82, 67
2, 800256, Note_off_c, 0, 74, 67
2, 800256, Note_off_c, 0, 82, 67
2, 800256, Note_on_c, 0, 72, 67
2, 800256, Note_on_c, 0, 84, 67
2, 800384, Note_off_c, 0, 72, 67
2, 800384, Note_on_c, 0, 74, 67
2, 800512, Note_off_c, 0, 74, 67
2, 800512, Note_on_c, 0, 75, 67
2, 800640, Note_off_c, 0, 75, 67
2, 800640, Note_on_c, 0, 77, 67
2, 800768, Note_off_c, 0, 77, 67
2, 800768, Note_off_c, 0, 84, 67
2, 800768, Note_on_c, 0, 74, 67
2, 800768, Note_on_c, 0, 82, 67
2, 800896, Note_off_c, 0, 74, 67
2, 800896, Note_on_c, 0, 72, 67
2, 801024, Note_off_c, 0, 72, 67
2, 801024, Note_off_c, 0, 82, 67
2, 801024, Note_on_c, 0, 70, 67
2, 801024, Note_on_c, 0, 80, 67
2, 801152, Note_off_c, 0, 80, 67
2, 801152, Note_on_c, 0, 79, 67
2, 801280, Note_off_c, 0, 70, 67
2, 801280, Note_off_c, 0, 79, 67
2, 801280, Note_on_c, 0, 68, 67
2, 801280, Note_on_c, 0, 80, 67
2, 801408, Note_off_c, 0, 68, 67
2, 801408, Note_on_c, 0, 70, 67
2, 801536, Note_off_c, 0, 70, 67
2, 801536, Note_on_c, 0, 72, 67
2, 801664, Note_off_c, 0, 72, 67
2, 801664, Note_on_c, 0, 68, 67
2, 801792, Note_off_c, 0, 68, 67
2, 801792, Note_off_c, 0, 80, 67
2, 801792, Note_on_c, 0, 70, 67
2, 801792, Note_on_c, 0, 79, 67
2, 801920, Note_off_c, 0, 70, 67
2, 801920, Note_off_c, 0, 79, 67
2, 801920, Note_on_c, 0, 68, 67
2, 801920, Note_on_c, 0, 80, 67
2, 802048, Note_off_c, 0, 68, 67
2, 802048, Note_off_c, 0, 80, 67
2, 802048, Note_on_c, 0, 67, 67
2, 802048, Note_on_c, 0, 79, 67
2, 802176, Note_off_c, 0, 67, 67
2, 802176, Note_off_c, 0, 79, 67
2, 802176, Note_on_c, 0, 65, 67
2, 802176, Note_on_c, 0, 77, 67
2, 802304, Note_off_c, 0, 65, 67
2, 802304, Note_off_c, 0, 77, 67
2, 802304, Note_on_c, 0, 63, 67
2, 802304, Note_on_c, 0, 75, 67
2, 802432, Note_off_c, 0, 63, 67
2, 802432, Note_on_c, 0, 65, 67
2, 802560, Note_off_c, 0, 65, 67
2, 802560, Note_on_c, 0, 67, 67
2, 802688, Note_off_c, 0, 67, 67
2, 802688, Note_on_c, 0, 68, 67
2, 802816, Note_off_c, 0, 68, 67
2, 802816, Note_off_c, 0, 75, 67
2, 802816, Time_signature, 4, 2, 24, 8
2, 802816, Key_signature, -3, "major"
2, 802816, Note_on_c, 0, 67, 67
2, 802816, Note_on_c, 0, 75, 67
2, 802944, Note_off_c, 0, 67, 67
2, 802944, Note_off_c, 0, 75, 67
2, 802944, Note_on_c, 0, 66, 67
2, 802944, Note_on_c, 0, 70, 67
2, 803072, Note_off_c, 0, 66, 67
2, 803072, Note_off_c, 0, 70, 67
2, 803072, Note_on_c, 0, 67, 67
2, 803072, Note_on_c, 0, 75, 67
2, 803200, Note_off_c, 0, 67, 67
2, 803200, Note_off_c, 0, 75, 67
2, 803200, Note_on_c, 0, 75, 67
2, 803200, Note_on_c, 0, 82, 67
2, 803456, Note_off_c, 0, 75, 67
2, 803456, Note_off_c, 0, 82, 67
2, 803456, Note_on_c, 0, 74, 67
2, 803456, Note_on_c, 0, 80, 67
2, 803584, Note_off_c, 0, 74, 67
2, 803584, Note_on_c, 0, 72, 67
2, 803712, Note_off_c, 0, 72, 67
2, 803712, Note_off_c, 0, 80, 67
2, 803712, Note_on_c, 0, 70, 67
2, 803712, Note_on_c, 0, 79, 67
2, 803840, Note_off_c, 0, 70, 67
2, 803840, Note_off_c, 0, 79, 67
2, 803840, Note_on_c, 0, 72, 67
2, 803840, Note_on_c, 0, 77, 67
2, 803968, Note_off_c, 0, 72, 67
2, 803968, Note_off_c, 0, 77, 67
2, 803968, Note_on_c, 0, 70, 67
2, 803968, Note_on_c, 0, 74, 67
2, 804096, Note_off_c, 0, 70, 67
2, 804096, Note_on_c, 0, 68, 67
2, 804224, Note_off_c, 0, 68, 67
2, 804224, Note_on_c, 0, 67, 67
2, 804352, Note_off_c, 0, 67, 67
2, 804352, Note_off_c, 0, 74, 67
2, 804352, Note_on_c, 0, 65, 67
2, 804352, Note_on_c, 0, 70, 67
2, 804480, Note_off_c, 0, 65, 67
2, 804480, Note_on_c, 0, 67, 67
2, 804608, Note_off_c, 0, 67, 67
2, 804608, Note_off_c, 0, 70, 67
2, 804608, Note_on_c, 0, 65, 67
2, 804608, Note_on_c, 0, 68, 67
2, 804736, Note_off_c, 0, 68, 67
2, 804736, Note_on_c, 0, 70, 67
2, 804864, Note_off_c, 0, 65, 67
2, 804864, Note_off_c, 0, 70, 67
2, 804864, Note_on_c, 0, 70, 67
2, 804864, Note_on_c, 0, 74, 67
2, 804992, Note_off_c, 0, 70, 67
2, 804992, Note_off_c, 0, 74, 67
2, 804992, Note_on_c, 0, 65, 67
2, 804992, Note_on_c, 0, 70, 67
2, 805120, Note_off_c, 0, 65, 67
2, 805120, Note_off_c, 0, 70, 67
2, 805120, Note_on_c, 0, 70, 67
2, 805120, Note_on_c, 0, 74, 67
2, 805248, Note_off_c, 0, 70, 67
2, 805248, Note_off_c, 0, 74, 67
2, 805248, Note_on_c, 0, 74, 67
2, 805248, Note_on_c, 0, 79, 67
2, 805504, Note_off_c, 0, 74, 67
2, 805504, Note_off_c, 0, 79, 67
2, 805504, Note_on_c, 0, 72, 67
2, 805504, Note_on_c, 0, 77, 67
2, 805632, Note_off_c, 0, 72, 67
2, 805632, Note_on_c, 0, 70, 67
2, 805760, Note_off_c, 0, 70, 67
2, 805760, Note_off_c, 0, 77, 67
2, 805760, Note_on_c, 0, 68, 67
2, 805760, Note_on_c, 0, 74, 67
2, 805888, Note_off_c, 0, 68, 67
2, 805888, Note_off_c, 0, 74, 67
2, 805888, Note_on_c, 0, 67, 67
2, 805888, Note_on_c, 0, 75, 67
2, 806016, Note_off_c, 0, 67, 67
2, 806016, Note_off_c, 0, 75, 67
2, 806016, Note_on_c, 0, 70, 67
2, 806016, Note_on_c, 0, 79, 67
2, 806144, Note_off_c, 0, 70, 67
2, 806144, Note_on_c, 0, 72, 67
2, 806272, Note_off_c, 0, 72, 67
2, 806272, Note_on_c, 0, 74, 67
2, 806400, Note_off_c, 0, 74, 67
2, 806400, Note_off_c, 0, 79, 67
2, 806400, Note_on_c, 0, 70, 67
2, 806400, Note_on_c, 0, 75, 67
2, 806528, Note_off_c, 0, 75, 67
2, 806528, Note_on_c, 0, 74, 67
2, 806656, Note_off_c, 0, 70, 67
2, 806656, Note_off_c, 0, 74, 67
2, 806656, Note_on_c, 0, 65, 67
2, 806656, Note_on_c, 0, 72, 67
2, 806784, Note_off_c, 0, 72, 67
2, 806784, Note_on_c, 0, 70, 67
2, 806912, Note_off_c, 0, 65, 67
2, 806912, Note_off_c, 0, 70, 67
2, 806912, Note_on_c, 0, 67, 67
2, 806912, Note_on_c, 0, 75, 67
2, 807040, Note_off_c, 0, 67, 67
2, 807040, Note_off_c, 0, 75, 67
2, 807040, Note_on_c, 0, 66, 67
2, 807040, Note_on_c, 0, 70, 67
2, 807168, Note_off_c, 0, 66, 67
2, 807168, Note_off_c, 0, 70, 67
2, 807168, Note_on_c, 0, 67, 67
2, 807168, Note_on_c, 0, 75, 67
2, 807296, Note_off_c, 0, 67, 67
2, 807296, Note_off_c, 0, 75, 67
2, 807296, Note_on_c, 0, 75, 67
2, 807296, Note_on_c, 0, 82, 67
2, 807552, Note_off_c, 0, 75, 67
2, 807552, Note_off_c, 0, 82, 67
2, 807552, Note_on_c, 0, 74, 67
2, 807552, Note_on_c, 0, 80, 67
2, 807680, Note_off_c, 0, 74, 67
2, 807680, Note_on_c, 0, 72, 67
2, 807808, Note_off_c, 0, 72, 67
2, 807808, Note_off_c, 0, 80, 67
2, 807808, Note_on_c, 0, 70, 67
2, 807808, Note_on_c, 0, 79, 67
2, 807936, Note_off_c, 0, 70, 67
2, 807936, Note_off_c, 0, 79, 67
2, 807936, Note_on_c, 0, 72, 67
2, 807936, Note_on_c, 0, 77, 67
2, 808064, Note_off_c, 0, 72, 67
2, 808064, Note_off_c, 0, 77, 67
2, 808064, Note_on_c, 0, 70, 67
2, 808064, Note_on_c, 0, 74, 67
2, 808192, Note_off_c, 0, 70, 67
2, 808192, Note_on_c, 0, 68, 67
2, 808320, Note_off_c, 0, 68, 67
2, 808320, Note_on_c, 0, 67, 67
2, 808448, Note_off_c, 0, 67, 67
2, 808448, Note_off_c, 0, 74, 67
2, 808448, Note_on_c, 0, 65, 67
2, 808448, Note_on_c, 0, 70, 67
2, 808576, Note_off_c, 0, 65, 67
2, 808576, Note_on_c, 0, 67, 67
2, 808704, Note_off_c, 0, 67, 67
2, 808704, Note_off_c, 0, 70, 67
2, 808704, Note_on_c, 0, 65, 67
2, 808704, Note_on_c, 0, 68, 67
2, 808832, Note_off_c, 0, 68, 67
2, 808832, Note_on_c, 0, 70, 67
2, 808960, Note_off_c, 0, 65, 67
2, 808960, Note_off_c, 0, 70, 67
2, 808960, Note_on_c, 0, 70, 67
2, 808960, Note_on_c, 0, 74, 67
2, 809088, Note_off_c, 0, 70, 67
2, 809088, Note_off_c, 0, 74, 67
2, 809088, Note_on_c, 0, 65, 67
2, 809088, Note_on_c, 0, 70, 67
2, 809216, Note_off_c, 0, 65, 67
2, 809216, Note_off_c, 0, 70, 67
2, 809216, Note_on_c, 0, 70, 67
2, 809216, Note_on_c, 0, 74, 67
2, 809344, Note_off_c, 0, 70, 67
2, 809344, Note_off_c, 0, 74, 67
2, 809344, Note_on_c, 0, 74, 67
2, 809344, Note_on_c, 0, 79, 67
2, 809600, Note_off_c, 0, 74, 67
2, 809600, Note_off_c, 0, 79, 67
2, 809600, Note_on_c, 0, 72, 67
2, 809600, Note_on_c, 0, 77, 67
2, 809728, Note_off_c, 0, 72, 67
2, 809728, Note_on_c, 0, 70, 67
2, 809856, Note_off_c, 0, 70, 67
2, 809856, Note_off_c, 0, 77, 67
2, 809856, Note_on_c, 0, 68, 67
2, 809856, Note_on_c, 0, 74, 67
2, 809984, Note_off_c, 0, 68, 67
2, 809984, Note_off_c, 0, 74, 67
2, 809984, Note_on_c, 0, 67, 67
2, 809984, Note_on_c, 0, 75, 67
2, 810112, Note_off_c, 0, 67, 67
2, 810112, Note_on_c, 0, 65, 67
2, 810240, Note_off_c, 0, 65, 67
2, 810240, Note_on_c, 0, 63, 67
2, 810368, Note_off_c, 0, 63, 67
2, 810368, Note_on_c, 0, 65, 67
2, 810496, Note_off_c, 0, 65, 67
2, 810496, Note_off_c, 0, 75, 67
2, 810496, Note_on_c, 0, 63, 67
2, 810496, Note_on_c, 0, 67, 67
2, 810624, Note_off_c, 0, 67, 67
2, 810624, Note_on_c, 0, 68, 67
2, 810752, Note_off_c, 0, 63, 67
2, 810752, Note_off_c, 0, 68, 67
2, 810752, Note_on_c, 0, 65, 67
2, 810752, Note_on_c, 0, 70, 67
2, 810880, Note_off_c, 0, 70, 67
2, 810880, Note_on_c, 0, 72, 67
2, 811008, Note_off_c, 0, 65, 67
2, 811008, Note_off_c, 0, 72, 67
2, 811008, Note_on_c, 0, 79, 67
2, 811520, Note_off_c, 0, 79, 67
2, 811520, Note_on_c, 0, 82, 67
2, 811776, Control_c, 0, 93, 0
2, 811776, Note_on_c, 0, 68, 67
2, 811904, Note_off_c, 0, 68, 67
2, 811904, Note_on_c, 0, 70, 67
2, 812032, Note_off_c, 0, 70, 67
2, 812032, Note_off_c, 0, 82, 67
2, 812032, Note_on_c, 0, 72, 67
2, 812032, Note_on_c, 0, 80, 67
2, 812160, Note_off_c, 0, 72, 67
2, 812160, Note_off_c, 0, 80, 67
2, 812160, Note_on_c, 0, 70, 67
2, 812160, Note_on_c, 0, 82, 67
2, 812288, Note_off_c, 0, 70, 67
2, 812288, Note_off_c, 0, 82, 67
2, 812288, Note_on_c, 0, 68, 67
2, 812288, Note_on_c, 0, 80, 67
2, 812416, Note_off_c, 0, 80, 67
2, 812416, Note_on_c, 0, 79, 67
2, 812544, Note_off_c, 0, 68, 67
2, 812544, Note_off_c, 0, 79, 67
2, 812544, Note_on_c, 0, 65, 67
2, 812544, Note_on_c, 0, 77, 67
2, 812672, Note_off_c, 0, 65, 67
2, 812672, Note_on_c, 0, 67, 67
2, 812800, Note_off_c, 0, 67, 67
2, 812800, Note_on_c, 0, 68, 67
2, 812928, Note_off_c, 0, 68, 67
2, 812928, Note_on_c, 0, 70, 67
2, 813056, Note_off_c, 0, 70, 67
2, 813056, Note_off_c, 0, 77, 67
2, 813056, Note_on_c, 0, 68, 67
2, 813056, Note_on_c, 0, 74, 67
2, 813184, Note_off_c, 0, 68, 67
2, 813184, Note_on_c, 0, 67, 67
2, 813312, Note_off_c, 0, 67, 67
2, 813312, Note_on_c, 0, 65, 67
2, 813568, Note_off_c, 0, 65, 67
2, 813568, Note_off_c, 0, 74, 67
2, 813568, Note_on_c, 0, 77, 67
2, 813824, Control_c, 0, 93, 0
2, 813824, Note_on_c, 0, 65, 67
2, 813952, Note_off_c, 0, 65, 67
2, 813952, Note_on_c, 0, 70, 67
2, 814080, Note_off_c, 0, 70, 67
2, 814080, Note_off_c, 0, 77, 67
2, 814080, Note_on_c, 0, 67, 67
2, 814080, Note_on_c, 0, 79, 67
2, 814208, Note_off_c, 0, 67, 67
2, 814208, Note_off_c, 0, 79, 67
2, 814208, Note_on_c, 0, 68, 67
2, 814208, Note_on_c, 0, 80, 67
2, 814336, Note_off_c, 0, 68, 67
2, 814336, Note_off_c, 0, 80, 67
2, 814336, Note_on_c, 0, 70, 67
2, 814336, Note_on_c, 0, 79, 67
2, 814464, Note_off_c, 0, 70, 67
2, 814464, Note_off_c, 0, 79, 67
2, 814464, Note_on_c, 0, 72, 67
2, 814464, Note_on_c, 0, 77, 67
2, 814592, Note_off_c, 0, 72, 67
2, 814592, Note_off_c, 0, 77, 67
2, 814592, Note_on_c, 0, 70, 67
2, 814592, Note_on_c, 0, 75, 67
2, 815104, Note_off_c, 0, 70, 67
2, 815104, Note_off_c, 0, 75, 67
2, 815104, Note_on_c, 0, 75, 67
2, 815104, Note_on_c, 0, 79, 67
2, 815232, Note_off_c, 0, 75, 67
2, 815232, Note_on_c, 0, 74, 67
2, 815360, Note_off_c, 0, 74, 67
2, 815360, Note_on_c, 0, 72, 67
2, 815616, Note_off_c, 0, 72, 67
2, 815616, Note_off_c, 0, 79, 67
2, 815616, Note_on_c, 0, 70, 67
2, 815616, Note_on_c, 0, 82, 67
2, 815744, Note_off_c, 0, 70, 67
2, 815744, Note_on_c, 0, 72, 67
2, 815872, Note_off_c, 0, 72, 67
2, 815872, Note_on_c, 0, 74, 67
2, 816000, Note_off_c, 0, 74, 67
2, 816000, Note_on_c, 0, 75, 67
2, 816128, Note_off_c, 0, 75, 67
2, 816128, Note_off_c, 0, 82, 67
2, 816128, Note_on_c, 0, 77, 67
2, 816128, Note_on_c, 0, 80, 67
2, 816256, Note_off_c, 0, 77, 67
2, 816256, Note_off_c, 0, 80, 67
2, 816256, Note_on_c, 0, 75, 67
2, 816256, Note_on_c, 0, 79, 67
2, 816384, Note_off_c, 0, 75, 67
2, 816384, Note_off_c, 0, 79, 67
2, 816384, Note_on_c, 0, 74, 67
2, 816384, Note_on_c, 0, 80, 67
2, 816512, Note_off_c, 0, 80, 67
2, 816512, Note_on_c, 0, 82, 67
2, 816640, Note_off_c, 0, 74, 67
2, 816640, Note_off_c, 0, 82, 67
2, 816640, Note_on_c, 0, 72, 67
2, 816640, Note_on_c, 0, 84, 67
2, 816768, Note_off_c, 0, 72, 67
2, 816768, Note_on_c, 0, 74, 67
2, 816896, Note_off_c, 0, 74, 67
2, 816896, Note_on_c, 0, 75, 67
2, 817024, Note_off_c, 0, 75, 67
2, 817024, Note_on_c, 0, 77, 67
2, 817152, Note_off_c, 0, 77, 67
2, 817152, Note_off_c, 0, 84, 67
2, 817152, Note_on_c, 0, 74, 67
2, 817152, Note_on_c, 0, 82, 67
2, 817280, Note_off_c, 0, 74, 67
2, 817280, Note_on_c, 0, 72, 67
2, 817408, Note_off_c, 0, 72, 67
2, 817408, Note_off_c, 0, 82, 67
2, 817408, Note_on_c, 0, 70, 67
2, 817408, Note_on_c, 0, 80, 67
2, 817536, Note_off_c, 0, 80, 67
2, 817536, Note_on_c, 0, 79, 67
2, 817664, Note_off_c, 0, 70, 67
2, 817664, Note_off_c, 0, 79, 67
2, 817664, Note_on_c, 0, 68, 67
2, 817664, Note_on_c, 0, 80, 67
2, 817792, Note_off_c, 0, 68, 67
2, 817792, Note_on_c, 0, 70, 67
2, 817920, Note_off_c, 0, 70, 67
2, 817920, Note_on_c, 0, 72, 67
2, 818048, Note_off_c, 0, 72, 67
2, 818048, Note_on_c, 0, 68, 67
2, 818176, Note_off_c, 0, 68, 67
2, 818176, Note_off_c, 0, 80, 67
2, 818176, Note_on_c, 0, 70, 67
2, 818176, Note_on_c, 0, 79, 67
2, 818304, Note_off_c, 0, 70, 67
2, 818304, Note_off_c, 0, 79, 67
2, 818304, Note_on_c, 0, 68, 67
2, 818304, Note_on_c, 0, 80, 67
2, 818432, Note_off_c, 0, 68, 67
2, 818432, Note_off_c, 0, 80, 67
2, 818432, Note_on_c, 0, 67, 67
2, 818432, Note_on_c, 0, 79, 67
2, 818560, Note_off_c, 0, 67, 67
2, 818560, Note_off_c, 0, 79, 67
2, 818560, Note_on_c, 0, 65, 67
2, 818560, Note_on_c, 0, 77, 67
2, 818688, Note_off_c, 0, 65, 67
2, 818688, Note_off_c, 0, 77, 67
2, 818688, Note_on_c, 0, 63, 67
2, 818688, Note_on_c, 0, 75, 67
2, 818816, Note_off_c, 0, 63, 67
2, 818816, Note_on_c, 0, 65, 67
2, 818944, Note_off_c, 0, 65, 67
2, 818944, Note_on_c, 0, 67, 67
2, 819072, Note_off_c, 0, 67, 67
2, 819072, Note_on_c, 0, 68, 67
2, 819200, Note_off_c, 0, 68, 67
2, 819200, Note_off_c, 0, 75, 67
2, 819328, Control_c, 0, 93, 0
2, 819328, End_track
3, 0, Start_track
3, 0, Title_t, "track"
3, 0, Control_c, 0, 93, 0
3, 0, Note_on_c, 0, 51, 55
3, 128, Note_off_c, 0, 51, 55
3, 128, Note_on_c, 0, 55, 55
3, 256, Note_off_c, 0, 55, 55
3, 256, Note_on_c, 0, 51, 55
3, 384, Note_off_c, 0, 51, 55
3, 384, Note_on_c, 0, 55, 55
3, 512, Note_off_c, 0, 55, 55
3, 512, Note_on_c, 0, 51, 55
3, 640, Note_off_c, 0, 51, 55
3, 640, Note_on_c, 0, 55, 55
3, 768, Note_off_c, 0, 55, 55
3, 768, Note_on_c, 0, 56, 55
3, 896, Note_off_c, 0, 56, 55
3, 896, Note_on_c, 0, 55, 55
3, 1024, Note_off_c, 0, 55, 55
3, 1024, Note_on_c, 0, 53, 55
3, 1152, Note_off_c, 0, 53, 55
3, 1152, Note_on_c, 0, 58, 55
3, 1280, Note_off_c, 0, 58, 55
3, 1280, Note_on_c, 0, 53, 55
3, 1408, Note_off_c, 0, 53, 55
3, 1408, Note_on_c, 0, 58, 55
3, 1536, Note_off_c, 0, 58, 55
3, 1536, Note_on_c, 0, 53, 55
3, 1664, Note_off_c, 0, 53, 55
3, 1664, Note_on_c, 0, 58, 55
3, 1792, Note_off_c, 0, 58, 55
3, 1792, Note_on_c, 0, 53, 55
3, 1920, Note_off_c, 0, 53, 55
3, 1920, Note_on_c, 0, 58, 55
3, 2048, Note_off_c, 0, 58, 55
3, 2048, Note_on_c, 0, 53, 55
3, 2176, Note_off_c, 0, 53, 55
3, 2176, Note_on_c, 0, 58, 55
3, 2304, Note_off_c, 0, 58, 55
3, 2304, Note_on_c, 0, 53, 55
3, 2432, Note_off_c, 0, 53, 55
3, 2432, Note_on_c, 0, 58, 55
3, 2560, Note_off_c, 0, 58, 55
3, 2560, Note_on_c, 0, 53, 55
3, 2688, Note_off_c, 0, 53, 55
3, 2688, Note_on_c, 0, 58, 55
3, 2816, Note_off_c, 0, 58, 55
3, 2816, Note_on_c, 0, 56, 55
3, 2944, Note_off_c, 0, 56, 55
3, 2944, Note_on_c, 0, 58, 55
3, 3072, Note_off_c, 0, 58, 55
3, 3072, Note_on_c, 0, 55, 55
3, 3200, Note_off_c, 0, 55, 55
3, 3200, Note_on_c, 0, 58, 55
3, 3328, Note_off_c, 0, 58, 55
3, 3328, Note_on_c, 0, 55, 55
3, 3456, Note_off_c, 0, 55, 55
3, 3456, Note_on_c, 0, 58, 55
3, 3584, Note_off_c, 0, 58, 55
3, 3584, Note_on_c, 0, 55, 55
3, 3712, Note_off_c, 0, 55, 55
3, 3712, Note_on_c, 0, 58, 55
3, 3840, Note_off_c, 0, 58, 55
3, 3840, Note_on_c, 0, 56, 55
3, 3968, Note_off_c, 0, 56, 55
3, 3968, Note_on_c, 0, 58, 55
3, 4096, Note_off_c, 0, 58, 55
3, 4096, Note_on_c, 0, 51, 55
3, 4224, Note_off_c, 0, 51, 55
3, 4224, Note_on_c, 0, 55, 55
3, 4352, Note_off_c, 0, 55, 55
3, 4352, Note_on_c, 0, 51, 55
3, 4480, Note_off_c, 0, 51, 55
3, 4480, Note_on_c, 0, 55, 55
3, 4608, Note_off_c, 0, 55, 55
3, 4608, Note_on_c, 0, 51, 55
3, 4736, Note_off_c, 0, 51, 55
3, 4736, Note_on_c, 0, 55, 55
3, 4864, Note_off_c, 0, 55, 55
3, 4864, Note_on_c, 0, 56, 55
3, 4992, Note_off_c, 0, 56, 55
3, 4992, Note_on_c, 0, 55, 55
3, 5120, Note_off_c, 0, 55, 55
3, 5120, Note_on_c, 0, 53, 55
3, 5248, Note_off_c, 0, 53, 55
3, 5248, Note_on_c, 0, 58, 55
3, 5376, Note_off_c, 0, 58, 55
3, 5376, Note_on_c, 0, 53, 55
3, 5504, Note_off_c, 0, 53, 55
3, 5504, Note_on_c, 0, 58, 55
3, 5632, Note_off_c, 0, 58, 55
3, 5632, Note_on_c, 0, 53, 55
3, 5760, Note_off_c, 0, 53, 55
3, 5760, Note_on_c, 0, 58, 55
3, 5888, Note_off_c, 0, 58, 55
3, 5888, Note_on_c, 0, 53, 55
3, 6016, Note_off_c, 0, 53, 55
3, 6016, Note_on_c, 0, 58, 55
3, 6144, Note_off_c, 0, 58, 55
3, 6144, Note_on_c, 0, 53, 55
3, 6272, Note_off_c, 0, 53, 55
3, 6272, Note_on_c, 0, 58, 55
3, 6400, Note_off_c, 0, 58, 55
3, 6400, Note_on_c, 0, 53, 55
3, 6528, Note_off_c, 0, 53, 55
3, 6528, Note_on_c, 0, 58, 55
3, 6656, Note_off_c, 0, 58, 55
3, 6656, Note_on_c, 0, 53, 55
3, 6784, Note_off_c, 0, 53, 55
3, 6784, Note_on_c, 0, 58, 55
3, 6912, Note_off_c, 0, 58, 55
3, 6912, Note_on_c, 0, 56, 55
3, 7040, Note_off_c, 0, 56, 55
3, 7040, Note_on_c, 0, 58, 55
3, 7168, Note_off_c, 0, 58, 55
3, 7168, Note_on_c, 0, 51, 55
3, 7296, Note_off_c, 0, 51, 55
3, 7296, Note_on_c, 0, 55, 55
3, 7424, Note_off_c, 0, 55, 55
3, 7424, Note_on_c, 0, 51, 55
3, 7552, Note_off_c, 0, 51, 55
3, 7552, Note_on_c, 0, 55, 55
3, 7680, Note_off_c, 0, 55, 55
3, 7680, Note_on_c, 0, 51, 55
3, 7808, Note_off_c, 0, 51, 55
3, 7808, Note_on_c, 0, 58, 55
3, 7936, Note_off_c, 0, 58, 55
3, 7936, Note_on_c, 0, 56, 55
3, 8064, Note_off_c, 0, 56, 55
3, 8064, Note_on_c, 0, 55, 55
3, 8192, Note_off_c, 0, 55, 55
3, 8192, Note_on_c, 0, 55, 55
3, 8192, Note_on_c, 0, 67, 55
3, 8320, Note_off_c, 0, 55, 55
3, 8320, Note_off_c, 0, 67, 55
3, 8320, Note_on_c, 0, 58, 55
3, 8320, Note_on_c, 0, 65, 55
3, 8448, Note_off_c, 0, 58, 55
3, 8448, Note_off_c, 0, 65, 55
3, 8448, Note_on_c, 0, 55, 55
3, 8448, Note_on_c, 0, 63, 55
3, 8576, Note_off_c, 0, 55, 55
3, 8576, Note_off_c, 0, 63, 55
3, 8576, Note_on_c, 0, 58, 55
3, 8704, Note_off_c, 0, 58, 55
3, 8704, Note_on_c, 0, 55, 55
3, 8704, Note_on_c, 0, 65, 55
3, 8832, Note_off_c, 0, 55, 55
3, 8832, Note_off_c, 0, 65, 55
3, 8832, Note_on_c, 0, 58, 55
3, 8832, Note_on_c, 0, 67, 55
3, 8960, Note_off_c, 0, 58, 55
3, 8960, Note_off_c, 0, 67, 55
3, 8960, Note_on_c, 0, 55, 55
3, 9088, Note_off_c, 0, 55, 55
3, 9088, Note_on_c, 0, 58, 55
3, 9216, Note_off_c, 0, 58, 55
3, 9216, Note_on_c, 0, 56, 55
3, 9344, Note_off_c, 0, 56, 55
3, 9344, Note_on_c, 0, 60, 55
3, 9472, Note_off_c, 0, 60, 55
3, 9472, Note_on_c, 0, 56, 55
3, 9600, Note_off_c, 0, 56, 55
3, 9600, Note_on_c, 0, 60, 55
3, 9728, Note_off_c, 0, 60, 55
3, 9728, Note_on_c, 0, 56, 55
3, 9856, Note_off_c, 0, 56, 55
3, 9856, Note_on_c, 0, 60, 55
3, 9984, Note_off_c, 0, 60, 55
3, 9984, Note_on_c, 0, 56, 55
3, 10112, Note_off_c, 0, 56, 55
3, 10112, Note_on_c, 0, 60, 55
3, 10240, Note_off_c, 0, 60, 55
3, 10240, Note_on_c, 0, 53, 55
3, 10368, Note_off_c, 0, 53, 55
3, 10368, Note_on_c, 0, 56, 55
3, 10496, Note_off_c, 0, 56, 55
3, 10496, Note_on_c, 0, 53, 55
3, 10624, Note_off_c, 0, 53, 55
3, 10624, Note_on_c, 0, 56, 55
3, 10752, Note_off_c, 0, 56, 55
3, 10752, Note_on_c, 0, 53, 55
3, 10752, Note_on_c, 0, 62, 55
3, 10880, Note_off_c, 0, 53, 55
3, 10880, Note_off_c, 0, 62, 55
3, 10880, Note_on_c, 0, 56, 55
3, 10880, Note_on_c, 0, 63, 55
3, 11008, Note_off_c, 0, 56, 55
3, 11008, Note_off_c, 0, 63, 55
3, 11008, Note_on_c, 0, 53, 55
3, 11136, Note_off_c, 0, 53, 55
3, 11136, Note_on_c, 0, 56, 55
3, 11264, Note_off_c, 0, 56, 55
3, 11264, Note_on_c, 0, 55, 55
3, 11392, Note_off_c, 0, 55, 55
3, 11392, Note_on_c, 0, 58, 55
3, 11520, Note_off_c, 0, 58, 55
3, 11520, Note_on_c, 0, 55, 55
3, 11648, Note_off_c, 0, 55, 55
3, 11648, Note_on_c, 0, 58, 55
3, 11776, Note_off_c, 0, 58, 55
3, 11776, Note_on_c, 0, 55, 55
3, 11904, Note_off_c, 0, 55, 55
3, 11904, Note_on_c, 0, 58, 55
3, 12032, Note_off_c, 0, 58, 55
3, 12032, Note_on_c, 0, 55, 55
3, 12160, Note_off_c, 0, 55, 55
3, 12160, Note_on_c, 0, 58, 55
3, 12288, Note_off_c, 0, 58, 55
3, 12288, Note_on_c, 0, 55, 55
3, 12416, Note_off_c, 0, 55, 55
3, 12416, Note_on_c, 0, 58, 55
3, 12544, Note_off_c, 0, 58, 55
3, 12544, Note_on_c, 0, 55, 55
3, 12672, Note_off_c, 0, 55, 55
3, 12672, Note_on_c, 0, 58, 55
3, 12800, Note_off_c, 0, 58, 55
3, 12800, Note_on_c, 0, 55, 55
3, 12928, Note_off_c, 0, 55, 55
3, 12928, Note_on_c, 0, 58, 55
3, 13056, Note_off_c, 0, 58, 55
3, 13056, Note_on_c, 0, 55, 55
3, 13184, Note_off_c, 0, 55, 55
3, 13184, Note_on_c, 0, 58, 55
3, 13312, Note_off_c, 0, 58, 55
3, 13312, Note_on_c, 0, 56, 55
3, 13440, Note_off_c, 0, 56, 55
3, 13440, Note_on_c, 0, 60, 55
3, 13568, Note_off_c, 0, 60, 55
3, 13568, Note_on_c, 0, 56, 55
3, 13696, Note_off_c, 0, 56, 55
3, 13696, Note_on_c, 0, 60, 55
3, 13824, Note_off_c, 0, 60, 55
3, 13824, Note_on_c, 0, 56, 55
3, 13952, Note_off_c, 0, 56, 55
3, 13952, Note_on_c, 0, 60, 55
3, 14080, Note_off_c, 0, 60, 55
3, 14080, Note_on_c, 0, 56, 55
3, 14208, Note_off_c, 0, 56, 55
3, 14208, Note_on_c, 0, 60, 55
3, 14336, Note_off_c, 0, 60, 55
3, 14336, Note_on_c, 0, 53, 55
3, 14464, Note_off_c, 0, 53, 55
3, 14464, Note_on_c, 0, 56, 55
3, 14592, Note_off_c, 0, 56, 55
3, 14592, Note_on_c, 0, 53, 55
3, 14720, Note_off_c, 0, 53, 55
3, 14720, Note_on_c, 0, 56, 55
3, 14848, Note_off_c, 0, 56, 55
3, 14848, Note_on_c, 0, 53, 55
3, 14976, Note_off_c, 0, 53, 55
3, 14976, Note_on_c, 0, 56, 55
3, 15104, Note_off_c, 0, 56, 55
3, 15104, Note_on_c, 0, 53, 55
3, 15232, Note_off_c, 0, 53, 55
3, 15232, Note_on_c, 0, 56, 55
3, 15360, Note_off_c, 0, 56, 55
3, 15360, Note_on_c, 0, 55, 55
3, 15488, Note_off_c, 0, 55, 55
3, 15488, Note_on_c, 0, 58, 55
3, 15616, Note_off_c, 0, 58, 55
3, 15616, Note_on_c, 0, 55, 55
3, 15744, Note_off_c, 0, 55, 55
3, 15744, Note_on_c, 0, 58, 55
3, 15872, Note_off_c, 0, 58, 55
3, 15872, Note_on_c, 0, 55, 55
3, 16000, Note_off_c, 0, 55, 55
3, 16000, Note_on_c, 0, 58, 55
3, 16128, Note_off_c, 0, 58, 55
3, 16128, Note_on_c, 0, 55, 55
3, 16256, Note_off_c, 0, 55, 55
3, 16256, Note_on_c, 0, 58, 55
3, 16384, Note_off_c, 0, 58, 55
3, 16384, Note_on_c, 0, 51, 55
3, 16512, Note_off_c, 0, 51, 55
3, 16512, Note_on_c, 0, 55, 55
3, 16640, Note_off_c, 0, 55, 55
3, 16640, Note_on_c, 0, 51, 55
3, 16768, Note_off_c, 0, 51, 55
3, 16768, Note_on_c, 0, 55, 55
3, 16896, Note_off_c, 0, 55, 55
3, 16896, Note_on_c, 0, 51, 55
3, 17024, Note_off_c, 0, 51, 55
3, 17024, Note_on_c, 0, 55, 55
3, 17152, Note_off_c, 0, 55, 55
3, 17152, Note_on_c, 0, 56, 55
3, 17280, Note_off_c, 0, 56, 55
3, 17280, Note_on_c, 0, 55, 55
3, 17408, Note_off_c, 0, 55, 55
3, 17408, Note_on_c, 0, 53, 55
3, 17536, Note_off_c, 0, 53, 55
3, 17536, Note_on_c, 0, 58, 55
3, 17664, Note_off_c, 0, 58, 55
3, 17664, Note_on_c, 0, 53, 55
3, 17792, Note_off_c, 0, 53, 55
3, 17792, Note_on_c, 0, 58, 55
3, 17920, Note_off_c, 0, 58, 55
3, 17920, Note_on_c, 0, 53, 55
3, 18048, Note_off_c, 0, 53, 55
3, 18048, Note_on_c, 0, 58, 55
3, 18176, Note_off_c, 0, 58, 55
3, 18176, Note_on_c, 0, 53, 55
3, 18304, Note_off_c, 0, 53, 55
3, 18304, Note_on_c, 0, 58, 55
3, 18432, Note_off_c, 0, 58, 55
3, 18432, Note_on_c, 0, 53, 55
3, 18560, Note_off_c, 0, 53, 55
3, 18560, Note_on_c, 0, 58, 55
3, 18688, Note_off_c, 0, 58, 55
3, 18688, Note_on_c, 0, 53, 55
3, 18816, Note_off_c, 0, 53, 55
3, 18816, Note_on_c, 0, 58, 55
3, 18944, Note_off_c, 0, 58, 55
3, 18944, Note_on_c, 0, 53, 55
3, 19072, Note_off_c, 0, 53, 55
3, 19072, Note_on_c, 0, 58, 55
3, 19200, Note_off_c, 0, 58, 55
3, 19200, Note_on_c, 0, 56, 55
3, 19328, Note_off_c, 0, 56, 55
3, 19328, Note_on_c, 0, 58, 55
3, 19456, Note_off_c, 0, 58, 55
3, 19456, Note_on_c, 0, 55, 55
3, 19584, Note_off_c, 0, 55, 55
3, 19584, Note_on_c, 0, 58, 55
3, 19712, Note_off_c, 0, 58, 55
3, 19712, Note_on_c, 0, 55, 55
3, 19840, Note_off_c, 0, 55, 55
3, 19840, Note_on_c, 0, 58, 55
3, 19968, Note_off_c, 0, 58, 55
3, 19968, Note_on_c, 0, 55, 55
3, 20096, Note_off_c, 0, 55, 55
3, 20096, Note_on_c, 0, 58, 55
3, 20224, Note_off_c, 0, 58, 55
3, 20224, Note_on_c, 0, 56, 55
3, 20352, Note_off_c, 0, 56, 55
3, 20352, Note_on_c, 0, 58, 55
3, 20480, Note_off_c, 0, 58, 55
3, 20480, Note_on_c, 0, 51, 55
3, 20608, Note_off_c, 0, 51, 55
3, 20608, Note_on_c, 0, 55, 55
3, 20736, Note_off_c, 0, 55, 55
3, 20736, Note_on_c, 0, 51, 55
3, 20864, Note_off_c, 0, 51, 55
3, 20864, Note_on_c, 0, 55, 55
3, 20992, Note_off_c, 0, 55, 55
3, 20992, Note_on_c, 0, 51, 55
3, 21120, Note_off_c, 0, 51, 55
3, 21120, Note_on_c, 0, 55, 55
3, 21248, Note_off_c, 0, 55, 55
3, 21248, Note_on_c, 0, 56, 55
3, 21376, Note_off_c, 0, 56, 55
3, 21376, Note_on_c, 0, 55, 55
3, 21504, Note_off_c, 0, 55, 55
3, 21504, Note_on_c, 0, 53, 55
3, 21632, Note_off_c, 0, 53, 55
3, 21632, Note_on_c, 0, 58, 55
3, 21760, Note_off_c, 0, 58, 55
3, 21760, Note_on_c, 0, 53, 55
3, 21888, Note_off_c, 0, 53, 55
3, 21888, Note_on_c, 0, 58, 55
3, 22016, Note_off_c, 0, 58, 55
3, 22016, Note_on_c, 0, 53, 55
3, 22144, Note_off_c, 0, 53, 55
3, 22144, Note_on_c, 0, 58, 55
3, 22272, Note_off_c, 0, 58, 55
3, 22272, Note_on_c, 0, 53, 55
3, 22400, Note_off_c, 0, 53, 55
3, 22400, Note_on_c, 0, 58, 55
3, 22528, Note_off_c, 0, 58, 55
3, 22528, Note_on_c, 0, 53, 55
3, 22656, Note_off_c, 0, 53, 55
3, 22656, Note_on_c, 0, 58, 55
3, 22784, Note_off_c, 0, 58, 55
3, 22784, Note_on_c, 0, 53, 55
3, 22912, Note_off_c, 0, 53, 55
3, 22912, Note_on_c, 0, 58, 55
3, 23040, Note_off_c, 0, 58, 55
3, 23040, Note_on_c, 0, 53, 55
3, 23168, Note_off_c, 0, 53, 55
3, 23168, Note_on_c, 0, 58, 55
3, 23296, Note_off_c, 0, 58, 55
3, 23296, Note_on_c, 0, 56, 55
3, 23424, Note_off_c, 0, 56, 55
3, 23424, Note_on_c, 0, 58, 55
3, 23552, Note_off_c, 0, 58, 55
3, 23552, Note_on_c, 0, 51, 55
3, 23680, Note_off_c, 0, 51, 55
3, 23680, Note_on_c, 0, 55, 55
3, 23808, Note_off_c, 0, 55, 55
3, 23808, Note_on_c, 0, 51, 55
3, 23936, Note_off_c, 0, 51, 55
3, 23936, Note_on_c, 0, 55, 55
3, 24064, Note_off_c, 0, 55, 55
3, 24064, Note_on_c, 0, 51, 55
3, 24192, Note_off_c, 0, 51, 55
3, 24192, Note_on_c, 0, 58, 55
3, 24320, Note_off_c, 0, 58, 55
3, 24320, Note_on_c, 0, 56, 55
3, 24448, Note_off_c, 0, 56, 55
3, 24448, Note_on_c, 0, 55, 55
3, 24576, Note_off_c, 0, 55, 55
3, 24576, Note_on_c, 0, 55, 55
3, 24576, Note_on_c, 0, 67, 55
3, 24704, Note_off_c, 0, 55, 55
3, 24704, Note_off_c, 0, 67, 55
3, 24704, Note_on_c, 0, 58, 55
3, 24704, Note_on_c, 0, 65, 55
3, 24832, Note_off_c, 0, 58, 55
3, 24832, Note_off_c, 0, 65, 55
3, 24832, Note_on_c, 0, 55, 55
3, 24832, Note_on_c, 0, 63, 55
3, 24960, Note_off_c, 0, 55, 55
3, 24960, Note_off_c, 0, 63, 55
3, 24960, Note_on_c, 0, 58, 55
3, 25088, Note_off_c, 0, 58, 55
3, 25088, Note_on_c, 0, 55, 55
3, 25088, Note_on_c, 0, 65, 55
3, 25216, Note_off_c, 0, 55, 55
3, 25216, Note_off_c, 0, 65, 55
3, 25216, Note_on_c, 0, 58, 55
3, 25216, Note_on_c, 0, 67, 55
3, 25344, Note_off_c, 0, 58, 55
3, 25344, Note_off_c, 0, 67, 55
3, 25344, Note_on_c, 0, 55, 55
3, 25472, Note_off_c, 0, 55, 55
3, 25472, Note_on_c, 0, 58, 55
3, 25600, Note_off_c, 0, 58, 55
3, 25600, Note_on_c, 0, 56, 55
3, 25728, Note_off_c, 0, 56, 55
3, 25728, Note_on_c, 0, 60, 55
3, 25856, Note_off_c, 0, 60, 55
3, 25856, Note_on_c, 0, 56, 55
3, 25984, Note_off_c, 0, 56, 55
3, 25984, Note_on_c, 0, 60, 55
3, 26112, Note_off_c, 0, 60, 55
3, 26112, Note_on_c, 0, 56, 55
3, 26240, Note_off_c, 0, 56, 55
3, 26240, Note_on_c, 0, 60, 55
3, 26368, Note_off_c, 0, 60, 55
3, 26368, Note_on_c, 0, 56, 55
3, 26496, Note_off_c, 0, 56, 55
3, 26496, Note_on_c, 0, 60, 55
3, 26624, Note_off_c, 0, 60, 55
3, 26624, Note_on_c, 0, 53, 55
3, 26752, Note_off_c, 0, 53, 55
3, 26752, Note_on_c, 0, 56, 55
3, 26880, Note_off_c, 0, 56, 55
3, 26880, Note_on_c, 0, 53, 55
3, 27008, Note_off_c, 0, 53, 55
3, 27008, Note_on_c, 0, 56, 55
3, 27136, Note_off_c, 0, 56, 55
3, 27136, Note_on_c, 0, 53, 55
3, 27136, Note_on_c, 0, 62, 55
3, 27264, Note_off_c, 0, 53, 55
3, 27264, Note_off_c, 0, 62, 55
3, 27264, Note_on_c, 0, 56, 55
3, 27264, Note_on_c, 0, 63, 55
3, 27392, Note_off_c, 0, 56, 55
3, 27392, Note_off_c, 0, 63, 55
3, 27392, Note_on_c, 0, 53, 55
3, 27520, Note_off_c, 0, 53, 55
3, 27520, Note_on_c, 0, 56, 55
3, 27648, Note_off_c, 0, 56, 55
3, 27648, Note_on_c, 0, 55, 55
3, 27776, Note_off_c, 0, 55, 55
3, 27776, Note_on_c, 0, 58, 55
3, 27904, Note_off_c, 0, 58, 55
3, 27904, Note_on_c, 0, 55, 55
3, 28032, Note_off_c, 0, 55, 55
3, 28032, Note_on_c, 0, 58, 55
3, 28160, Note_off_c, 0, 58, 55
3, 28160, Note_on_c, 0, 55, 55
3, 28288, Note_off_c, 0, 55, 55
3, 28288, Note_on_c, 0, 58, 55
3, 28416, Note_off_c, 0, 58, 55
3, 28416, Note_on_c, 0, 55, 55
3, 28544, Note_off_c, 0, 55, 55
3, 28544, Note_on_c, 0, 58, 55
3, 28672, Note_off_c, 0, 58, 55
3, 28672, Note_on_c, 0, 55, 55
3, 28800, Note_off_c, 0, 55, 55
3, 28800, Note_on_c, 0, 58, 55
3, 28928, Note_off_c, 0, 58, 55
3, 28928, Note_on_c, 0, 55, 55
3, 29056, Note_off_c, 0, 55, 55
3, 29056, Note_on_c, 0, 58, 55
3, 29184, Note_off_c, 0, 58, 55
3, 29184, Note_on_c, 0, 55, 55
3, 29312, Note_off_c, 0, 55, 55
3, 29312, Note_on_c, 0, 58, 55
3, 29440, Note_off_c, 0, 58, 55
3, 29440, Note_on_c, 0, 55, 55
3, 29568, Note_off_c, 0, 55, 55
3, 29568, Note_on_c, 0, 58, 55
3, 29696, Note_off_c, 0, 58, 55
3, 29696, Note_on_c, 0, 56, 55
3, 29824, Note_off_c, 0, 56, 55
3, 29824, Note_on_c, 0, 60, 55
3, 29952, Note_off_c, 0, 60, 55
3, 29952, Note_on_c, 0, 56, 55
3, 30080, Note_off_c, 0, 56, 55
3, 30080, Note_on_c, 0, 60, 55
3, 30208, Note_off_c, 0, 60, 55
3, 30208, Note_on_c, 0, 56, 55
3, 30336, Note_off_c, 0, 56, 55
3, 30336, Note_on_c, 0, 60, 55
3, 30464, Note_off_c, 0, 60, 55
3, 30464, Note_on_c, 0, 56, 55
3, 30592, Note_off_c, 0, 56, 55
3, 30592, Note_on_c, 0, 60, 55
3, 30720, Note_off_c, 0, 60, 55
3, 30720, Note_on_c, 0, 53, 55
3, 30848, Note_off_c, 0, 53, 55
3, 30848, Note_on_c, 0, 56, 55
3, 30976, Note_off_c, 0, 56, 55
3, 30976, Note_on_c, 0, 53, 55
3, 31104, Note_off_c, 0, 53, 55
3, 31104, Note_on_c, 0, 56, 55
3, 31232, Note_off_c, 0, 56, 55
3, 31232, Note_on_c, 0, 53, 55
3, 31360, Note_off_c, 0, 53, 55
3, 31360, Note_on_c, 0, 56, 55
3, 31488, Note_off_c, 0, 56, 55
3, 31488, Note_on_c, 0, 53, 55
3, 31616, Note_off_c, 0, 53, 55
3, 31616, Note_on_c, 0, 56, 55
3, 31744, Note_off_c, 0, 56, 55
3, 31744, Note_on_c, 0, 55, 55
3, 31872, Note_off_c, 0, 55, 55
3, 31872, Note_on_c, 0, 58, 55
3, 32000, Note_off_c, 0, 58, 55
3, 32000, Note_on_c, 0, 55, 55
3, 32128, Note_off_c, 0, 55, 55
3, 32128, Note_on_c, 0, 58, 55
3, 32256, Note_off_c, 0, 58, 55
3, 32256, Note_on_c, 0, 55, 55
3, 32384, Note_off_c, 0, 55, 55
3, 32384, Note_on_c, 0, 58, 55
3, 32512, Note_off_c, 0, 58, 55
3, 32512, Note_on_c, 0, 55, 55
3, 32640, Note_off_c, 0, 55, 55
3, 32640, Note_on_c, 0, 58, 55
3, 32768, Note_off_c, 0, 58, 55
3, 32768, Note_on_c, 0, 51, 55
3, 32896, Note_off_c, 0, 51, 55
3, 32896, Note_on_c, 0, 55, 55
3, 33024, Note_off_c, 0, 55, 55
3, 33024, Note_on_c, 0, 51, 55
3, 33152, Note_off_c, 0, 51, 55
3, 33152, Note_on_c, 0, 55, 55
3, 33280, Note_off_c, 0, 55, 55
3, 33280, Note_on_c, 0, 51, 55
3, 33408, Note_off_c, 0, 51, 55
3, 33408, Note_on_c, 0, 55, 55
3, 33536, Note_off_c, 0, 55, 55
3, 33536, Note_on_c, 0, 56, 55
3, 33664, Note_off_c, 0, 56, 55
3, 33664, Note_on_c, 0, 55, 55
3, 33792, Note_off_c, 0, 55, 55
3, 33792, Note_on_c, 0, 53, 55
3, 33920, Note_off_c, 0, 53, 55
3, 33920, Note_on_c, 0, 58, 55
3, 34048, Note_off_c, 0, 58, 55
3, 34048, Note_on_c, 0, 53, 55
3, 34176, Note_off_c, 0, 53, 55
3, 34176, Note_on_c, 0, 58, 55
3, 34304, Note_off_c, 0, 58, 55
3, 34304, Note_on_c, 0, 53, 55
3, 34432, Note_off_c, 0, 53, 55
3, 34432, Note_on_c, 0, 58, 55
3, 34560, Note_off_c, 0, 58, 55
3, 34560, Note_on_c, 0, 53, 55
3, 34688, Note_off_c, 0, 53, 55
3, 34688, Note_on_c, 0, 58, 55
3, 34816, Note_off_c, 0, 58, 55
3, 34816, Note_on_c, 0, 53, 55
3, 34944, Note_off_c, 0, 53, 55
3, 34944, Note_on_c, 0, 58, 55
3, 35072, Note_off_c, 0, 58, 55
3, 35072, Note_on_c, 0, 53, 55
3, 35200, Note_off_c, 0, 53, 55
3, 35200, Note_on_c, 0, 58, 55
3, 35328, Note_off_c, 0, 58, 55
3, 35328, Note_on_c, 0, 53, 55
3, 35456, Note_off_c, 0, 53, 55
3, 35456, Note_on_c, 0, 58, 55
3, 35584, Note_off_c, 0, 58, 55
3, 35584, Note_on_c, 0, 56, 55
3, 35712, Note_off_c, 0, 56, 55
3, 35712, Note_on_c, 0, 58, 55
3, 35840, Note_off_c, 0, 58, 55
3, 35840, Note_on_c, 0, 55, 55
3, 35968, Note_off_c, 0, 55, 55
3, 35968, Note_on_c, 0, 58, 55
3, 36096, Note_off_c, 0, 58, 55
3, 36096, Note_on_c, 0, 55, 55
3, 36224, Note_off_c, 0, 55, 55
3, 36224, Note_on_c, 0, 58, 55
3, 36352, Note_off_c, 0, 58, 55
3, 36352, Note_on_c, 0, 55, 55
3, 36480, Note_off_c, 0, 55, 55
3, 36480, Note_on_c, 0, 58, 55
3, 36608, Note_off_c, 0, 58, 55
3, 36608, Note_on_c, 0, 56, 55
3, 36736, Note_off_c, 0, 56, 55
3, 36736, Note_on_c, 0, 58, 55
3, 36864, Note_off_c, 0, 58, 55
3, 36864, Note_on_c, 0, 51, 55
3, 36992, Note_off_c, 0, 51, 55
3, 36992, Note_on_c, 0, 55, 55
3, 37120, Note_off_c, 0, 55, 55
3, 37120, Note_on_c, 0, 51, 55
3, 37248, Note_off_c, 0, 51, 55
3, 37248, Note_on_c, 0, 55, 55
3, 37376, Note_off_c, 0, 55, 55
3, 37376, Note_on_c, 0, 51, 55
3, 37504, Note_off_c, 0, 51, 55
3, 37504, Note_on_c, 0, 55, 55
3, 37632, Note_off_c, 0, 55, 55
3, 37632, Note_on_c, 0, 56, 55
3, 37760, Note_off_c, 0, 56, 55
3, 37760, Note_on_c, 0, 55, 55
3, 37888, Note_off_c, 0, 55, 55
3, 37888, Note_on_c, 0, 53, 55
3, 38016, Note_off_c, 0, 53, 55
3, 38016, Note_on_c, 0, 58, 55
3, 38144, Note_off_c, 0, 58, 55
3, 38144, Note_on_c, 0, 53, 55
3, 38272, Note_off_c, 0, 53, 55
3, 38272, Note_on_c, 0, 58, 55
3, 38400, Note_off_c, 0, 58, 55
3, 38400, Note_on_c, 0, 53, 55
3, 38528, Note_off_c, 0, 53, 55
3, 38528, Note_on_c, 0, 58, 55
3, 38656, Note_off_c, 0, 58, 55
3, 38656, Note_on_c, 0, 53, 55
3, 38784, Note_off_c, 0, 53, 55
3, 38784, Note_on_c, 0, 58, 55
3, 38912, Note_off_c, 0, 58, 55
3, 38912, Note_on_c, 0, 53, 55
3, 39040, Note_off_c, 0, 53, 55
3, 39040, Note_on_c, 0, 58, 55
3, 39168, Note_off_c, 0, 58, 55
3, 39168, Note_on_c, 0, 53, 55
3, 39296, Note_off_c, 0, 53, 55
3, 39296, Note_on_c, 0, 58, 55
3, 39424, Note_off_c, 0, 58, 55
3, 39424, Note_on_c, 0, 53, 55
3, 39552, Note_off_c, 0, 53, 55
3, 39552, Note_on_c, 0, 58, 55
3, 39680, Note_off_c, 0, 58, 55
3, 39680, Note_on_c, 0, 56, 55
3, 39808, Note_off_c, 0, 56, 55
3, 39808, Note_on_c, 0, 58, 55
3, 39936, Note_off_c, 0, 58, 55
3, 39936, Note_on_c, 0, 51, 55
3, 40064, Note_off_c, 0, 51, 55
3, 40064, Note_on_c, 0, 55, 55
3, 40192, Note_off_c, 0, 55, 55
3, 40192, Note_on_c, 0, 51, 55
3, 40320, Note_off_c, 0, 51, 55
3, 40320, Note_on_c, 0, 55, 55
3, 40448, Note_off_c, 0, 55, 55
3, 40448, Note_on_c, 0, 51, 55
3, 40576, Note_off_c, 0, 51, 55
3, 40576, Note_on_c, 0, 58, 55
3, 40704, Note_off_c, 0, 58, 55
3, 40704, Note_on_c, 0, 56, 55
3, 40832, Note_off_c, 0, 56, 55
3, 40832, Note_on_c, 0, 55, 55
3, 40960, Note_off_c, 0, 55, 55
3, 40960, Note_on_c, 0, 55, 55
3, 40960, Note_on_c, 0, 67, 55
3, 41088, Note_off_c, 0, 55, 55
3, 41088, Note_off_c, 0, 67, 55
3, 41088, Note_on_c, 0, 58, 55
3, 41088, Note_on_c, 0, 65, 55
3, 41216, Note_off_c, 0, 58, 55
3, 41216, Note_off_c, 0, 65, 55
3, 41216, Note_on_c, 0, 55, 55
3, 41216, Note_on_c, 0, 63, 55
3, 41344, Note_off_c, 0, 55, 55
3, 41344, Note_off_c, 0, 63, 55
3, 41344, Note_on_c, 0, 58, 55
3, 41472, Note_off_c, 0, 58, 55
3, 41472, Note_on_c, 0, 55, 55
3, 41472, Note_on_c, 0, 65, 55
3, 41600, Note_off_c, 0, 55, 55
3, 41600, Note_off_c, 0, 65, 55
3, 41600, Note_on_c, 0, 58, 55
3, 41600, Note_on_c, 0, 67, 55
3, 41728, Note_off_c, 0, 58, 55
3, 41728, Note_off_c, 0, 67, 55
3, 41728, Note_on_c, 0, 55, 55
3, 41856, Note_off_c, 0, 55, 55
3, 41856, Note_on_c, 0, 58, 55
3, 41984, Note_off_c, 0, 58, 55
3, 41984, Note_on_c, 0, 56, 55
3, 42112, Note_off_c, 0, 56, 55
3, 42112, Note_on_c, 0, 60, 55
3, 42240, Note_off_c, 0, 60, 55
3, 42240, Note_on_c, 0, 56, 55
3, 42368, Note_off_c, 0, 56, 55
3, 42368, Note_on_c, 0, 60, 55
3, 42496, Note_off_c, 0, 60, 55
3, 42496, Note_on_c, 0, 56, 55
3, 42624, Note_off_c, 0, 56, 55
3, 42624, Note_on_c, 0, 60, 55
3, 42752, Note_off_c, 0, 60, 55
3, 42752, Note_on_c, 0, 56, 55
3, 42880, Note_off_c, 0, 56, 55
3, 42880, Note_on_c, 0, 60, 55
3, 43008, Note_off_c, 0, 60, 55
3, 43008, Note_on_c, 0, 53, 55
3, 43136, Note_off_c, 0, 53, 55
3, 43136, Note_on_c, 0, 56, 55
3, 43264, Note_off_c, 0, 56, 55
3, 43264, Note_on_c, 0, 53, 55
3, 43392, Note_off_c, 0, 53, 55
3, 43392, Note_on_c, 0, 56, 55
3, 43520, Note_off_c, 0, 56, 55
3, 43520, Note_on_c, 0, 53, 55
3, 43520, Note_on_c, 0, 62, 55
3, 43648, Note_off_c, 0, 53, 55
3, 43648, Note_off_c, 0, 62, 55
3, 43648, Note_on_c, 0, 56, 55
3, 43648, Note_on_c, 0, 63, 55
3, 43776, Note_off_c, 0, 56, 55
3, 43776, Note_off_c, 0, 63, 55
3, 43776, Note_on_c, 0, 53, 55
3, 43904, Note_off_c, 0, 53, 55
3, 43904, Note_on_c, 0, 56, 55
3, 44032, Note_off_c, 0, 56, 55
3, 44032, Note_on_c, 0, 55, 55
3, 44160, Note_off_c, 0, 55, 55
3, 44160, Note_on_c, 0, 58, 55
3, 44288, Note_off_c, 0, 58, 55
3, 44288, Note_on_c, 0, 55, 55
3, 44416, Note_off_c, 0, 55, 55
3, 44416, Note_on_c, 0, 58, 55
3, 44544, Note_off_c, 0, 58, 55
3, 44544, Note_on_c, 0, 55, 55
3, 44672, Note_off_c, 0, 55, 55
3, 44672, Note_on_c, 0, 58, 55
3, 44800, Note_off_c, 0, 58, 55
3, 44800, Note_on_c, 0, 55, 55
3, 44928, Note_off_c, 0, 55, 55
3, 44928, Note_on_c, 0, 58, 55
3, 45056, Note_off_c, 0, 58, 55
3, 45056, Note_on_c, 0, 55, 55
3, 45184, Note_off_c, 0, 55, 55
3, 45184, Note_on_c, 0, 58, 55
3, 45312, Note_off_c, 0, 58, 55
3, 45312, Note_on_c, 0, 55, 55
3, 45440, Note_off_c, 0, 55, 55
3, 45440, Note_on_c, 0, 58, 55
3, 45568, Note_off_c, 0, 58, 55
3, 45568, Note_on_c, 0, 55, 55
3, 45696, Note_off_c, 0, 55, 55
3, 45696, Note_on_c, 0, 58, 55
3, 45824, Note_off_c, 0, 58, 55
3, 45824, Note_on_c, 0, 55, 55
3, 45952, Note_off_c, 0, 55, 55
3, 45952, Note_on_c, 0, 58, 55
3, 46080, Note_off_c, 0, 58, 55
3, 46080, Note_on_c, 0, 56, 55
3, 46208, Note_off_c, 0, 56, 55
3, 46208, Note_on_c, 0, 60, 55
3, 46336, Note_off_c, 0, 60, 55
3, 46336, Note_on_c, 0, 56, 55
3, 46464, Note_off_c, 0, 56, 55
3, 46464, Note_on_c, 0, 60, 55
3, 46592, Note_off_c, 0, 60, 55
3, 46592, Note_on_c, 0, 56, 55
3, 46720, Note_off_c, 0, 56, 55
3, 46720, Note_on_c, 0, 60, 55
3, 46848, Note_off_c, 0, 60, 55
3, 46848, Note_on_c, 0, 56, 55
3, 46976, Note_off_c, 0, 56, 55
3, 46976, Note_on_c, 0, 60, 55
3, 47104, Note_off_c, 0, 60, 55
3, 47104, Note_on_c, 0, 53, 55
3, 47232, Note_off_c, 0, 53, 55
3, 47232, Note_on_c, 0, 56, 55
3, 47360, Note_off_c, 0, 56, 55
3, 47360, Note_on_c, 0, 53, 55
3, 47488, Note_off_c, 0, 53, 55
3, 47488, Note_on_c, 0, 56, 55
3, 47616, Note_off_c, 0, 56, 55
3, 47616, Note_on_c, 0, 53, 55
3, 47744, Note_off_c, 0, 53, 55
3, 47744, Note_on_c, 0, 56, 55
3, 47872, Note_off_c, 0, 56, 55
3, 47872, Note_on_c, 0, 53, 55
3, 48000, Note_off_c, 0, 53, 55
3, 48000, Note_on_c, 0, 56, 55
3, 48128, Note_off_c, 0, 56, 55
3, 48128, Note_on_c, 0, 55, 55
3, 48256, Note_off_c, 0, 55, 55
3, 48256, Note_on_c, 0, 58, 55
3, 48384, Note_off_c, 0, 58, 55
3, 48384, Note_on_c, 0, 55, 55
3, 48512, Note_off_c, 0, 55, 55
3, 48512, Note_on_c, 0, 58, 55
3, 48640, Note_off_c, 0, 58, 55
3, 48640, Note_on_c, 0, 55, 55
3, 48768, Note_off_c, 0, 55, 55
3, 48768, Note_on_c, 0, 58, 55
3, 48896, Note_off_c, 0, 58, 55
3, 48896, Note_on_c, 0, 55, 55
3, 49024, Note_off_c, 0, 55, 55
3, 49024, Note_on_c, 0, 58, 55
3, 49152, Note_off_c, 0, 58, 55
3, 49152, Note_on_c, 0, 51, 55
3, 49280, Note_off_c, 0, 51, 55
3, 49280, Note_on_c, 0, 55, 55
3, 49408, Note_off_c, 0, 55, 55
3, 49408, Note_on_c, 0, 51, 55
3, 49536, Note_off_c, 0, 51, 55
3, 49536, Note_on_c, 0, 55, 55
3, 49664, Note_off_c, 0, 55, 55
3, 49664, Note_on_c, 0, 51, 55
3, 49792, Note_off_c, 0, 51, 55
3, 49792, Note_on_c, 0, 55, 55
3, 49920, Note_off_c, 0, 55, 55
3, 49920, Note_on_c, 0, 56, 55
3, 50048, Note_off_c, 0, 56, 55
3, 50048, Note_on_c, 0, 55, 55
3, 50176, Note_off_c, 0, 55, 55
3, 50176, Note_on_c, 0, 53, 55
3, 50304, Note_off_c, 0, 53, 55
3, 50304, Note_on_c, 0, 58, 55
3, 50432, Note_off_c, 0, 58, 55
3, 50432, Note_on_c, 0, 53, 55
3, 50560, Note_off_c, 0, 53, 55
3, 50560, Note_on_c, 0, 58, 55
3, 50688, Note_off_c, 0, 58, 55
3, 50688, Note_on_c, 0, 53, 55
3, 50816, Note_off_c, 0, 53, 55
3, 50816, Note_on_c, 0, 58, 55
3, 50944, Note_off_c, 0, 58, 55
3, 50944, Note_on_c, 0, 53, 55
3, 51072, Note_off_c, 0, 53, 55
3, 51072, Note_on_c, 0, 58, 55
3, 51200, Note_off_c, 0, 58, 55
3, 51200, Note_on_c, 0, 53, 55
3, 51328, Note_off_c, 0, 53, 55
3, 51328, Note_on_c, 0, 58, 55
3, 51456, Note_off_c, 0, 58, 55
3, 51456, Note_on_c, 0, 53, 55
3, 51584, Note_off_c, 0, 53, 55
3, 51584, Note_on_c, 0, 58, 55
3, 51712, Note_off_c, 0, 58, 55
3, 51712, Note_on_c, 0, 53, 55
3, 51840, Note_off_c, 0, 53, 55
3, 51840, Note_on_c, 0, 58, 55
3, 51968, Note_off_c, 0, 58, 55
3, 51968, Note_on_c, 0, 56, 55
3, 52096, Note_off_c, 0, 56, 55
3, 52096, Note_on_c, 0, 58, 55
3, 52224, Note_off_c, 0, 58, 55
3, 52224, Note_on_c, 0, 55, 55
3, 52352, Note_off_c, 0, 55, 55
3, 52352, Note_on_c, 0, 58, 55
3, 52480, Note_off_c, 0, 58, 55
3, 52480, Note_on_c, 0, 55, 55
3, 52608, Note_off_c, 0, 55, 55
3, 52608, Note_on_c, 0, 58, 55
3, 52736, Note_off_c, 0, 58, 55
3, 52736, Note_on_c, 0, 55, 55
3, 52864, Note_off_c, 0, 55, 55
3, 52864, Note_on_c, 0, 58, 55
3, 52992, Note_off_c, 0, 58, 55
3, 52992, Note_on_c, 0, 56, 55
3, 53120, Note_off_c, 0, 56, 55
3, 53120, Note_on_c, 0, 58, 55
3, 53248, Note_off_c, 0, 58, 55
3, 53248, Note_on_c, 0, 51, 55
3, 53376, Note_off_c, 0, 51, 55
3, 53376, Note_on_c, 0, 55, 55
3, 53504, Note_off_c, 0, 55, 55
3, 53504, Note_on_c, 0, 51, 55
3, 53632, Note_off_c, 0, 51, 55
3, 53632, Note_on_c, 0, 55, 55
3, 53760, Note_off_c, 0, 55, 55
3, 53760, Note_on_c, 0, 51, 55
3, 53888, Note_off_c, 0, 51, 55
3, 53888, Note_on_c, 0, 55, 55
3, 54016, Note_off_c, 0, 55, 55
3, 54016, Note_on_c, 0, 56, 55
3, 54144, Note_off_c, 0, 56, 55
3, 54144, Note_on_c, 0, 55, 55
3, 54272, Note_off_c, 0, 55, 55
3, 54272, Note_on_c, 0, 53, 55
3, 54400, Note_off_c, 0, 53, 55
3, 54400, Note_on_c, 0, 58, 55
3, 54528, Note_off_c, 0, 58, 55
3, 54528, Note_on_c, 0, 53, 55
3, 54656, Note_off_c, 0, 53, 55
3, 54656, Note_on_c, 0, 58, 55
3, 54784, Note_off_c, 0, 58, 55
3, 54784, Note_on_c, 0, 53, 55
3, 54912, Note_off_c, 0, 53, 55
3, 54912, Note_on_c, 0, 58, 55
3, 55040, Note_off_c, 0, 58, 55
3, 55040, Note_on_c, 0, 53, 55
3, 55168, Note_off_c, 0, 53, 55
3, 55168, Note_on_c, 0, 58, 55
3, 55296, Note_off_c, 0, 58, 55
3, 55296, Note_on_c, 0, 53, 55
3, 55424, Note_off_c, 0, 53, 55
3, 55424, Note_on_c, 0, 58, 55
3, 55552, Note_off_c, 0, 58, 55
3, 55552, Note_on_c, 0, 53, 55
3, 55680, Note_off_c, 0, 53, 55
3, 55680, Note_on_c, 0, 58, 55
3, 55808, Note_off_c, 0, 58, 55
3, 55808, Note_on_c, 0, 53, 55
3, 55936, Note_off_c, 0, 53, 55
3, 55936, Note_on_c, 0, 58, 55
3, 56064, Note_off_c, 0, 58, 55
3, 56064, Note_on_c, 0, 56, 55
3, 56192, Note_off_c, 0, 56, 55
3, 56192, Note_on_c, 0, 58, 55
3, 56320, Note_off_c, 0, 58, 55
3, 56320, Note_on_c, 0, 51, 55
3, 56448, Note_off_c, 0, 51, 55
3, 56448, Note_on_c, 0, 55, 55
3, 56576, Note_off_c, 0, 55, 55
3, 56576, Note_on_c, 0, 51, 55
3, 56704, Note_off_c, 0, 51, 55
3, 56704, Note_on_c, 0, 55, 55
3, 56832, Note_off_c, 0, 55, 55
3, 56832, Note_on_c, 0, 51, 55
3, 56960, Note_off_c, 0, 51, 55
3, 56960, Note_on_c, 0, 58, 55
3, 57088, Note_off_c, 0, 58, 55
3, 57088, Note_on_c, 0, 56, 55
3, 57216, Note_off_c, 0, 56, 55
3, 57216, Note_on_c, 0, 55, 55
3, 57344, Note_off_c, 0, 55, 55
3, 57344, Note_on_c, 0, 55, 55
3, 57344, Note_on_c, 0, 67, 55
3, 57472, Note_off_c, 0, 55, 55
3, 57472, Note_off_c, 0, 67, 55
3, 57472, Note_on_c, 0, 58, 55
3, 57472, Note_on_c, 0, 65, 55
3, 57600, Note_off_c, 0, 58, 55
3, 57600, Note_off_c, 0, 65, 55
3, 57600, Note_on_c, 0, 55, 55
3, 57600, Note_on_c, 0, 63, 55
3, 57728, Note_off_c, 0, 55, 55
3, 57728, Note_off_c, 0, 63, 55
3, 57728, Note_on_c, 0, 58, 55
3, 57856, Note_off_c, 0, 58, 55
3, 57856, Note_on_c, 0, 55, 55
3, 57856, Note_on_c, 0, 65, 55
3, 57984, Note_off_c, 0, 55, 55
3, 57984, Note_off_c, 0, 65, 55
3, 57984, Note_on_c, 0, 58, 55
3, 57984, Note_on_c, 0, 67, 55
3, 58112, Note_off_c, 0, 58, 55
3, 58112, Note_off_c, 0, 67, 55
3, 58112, Note_on_c, 0, 55, 55
3, 58240, Note_off_c, 0, 55, 55
3, 58240, Note_on_c, 0, 58, 55
3, 58368, Note_off_c, 0, 58, 55
3, 58368, Note_on_c, 0, 56, 55
3, 58496, Note_off_c, 0, 56, 55
3, 58496, Note_on_c, 0, 60, 55
3, 58624, Note_off_c, 0, 60, 55
3, 58624, Note_on_c, 0, 56, 55
3, 58752, Note_off_c, 0, 56, 55
3, 58752, Note_on_c, 0, 60, 55
3, 58880, Note_off_c, 0, 60, 55
3, 58880, Note_on_c, 0, 56, 55
3, 59008, Note_off_c, 0, 56, 55
3, 59008, Note_on_c, 0, 60, 55
3, 59136, Note_off_c, 0, 60, 55
3, 59136, Note_on_c, 0, 56, 55
3, 59264, Note_off_c, 0, 56, 55
3, 59264, Note_on_c, 0, 60, 55
3, 59392, Note_off_c, 0, 60, 55
3, 59392, Note_on_c, 0, 53, 55
3, 59520, Note_off_c, 0, 53, 55
3, 59520, Note_on_c, 0, 56, 55
3, 59648, Note_off_c, 0, 56, 55
3, 59648, Note_on_c, 0, 53, 55
3, 59776, Note_off_c, 0, 53, 55
3, 59776, Note_on_c, 0, 56, 55
3, 59904, Note_off_c, 0, 56, 55
3, 59904, Note_on_c, 0, 53, 55
3, 59904, Note_on_c, 0, 62, 55
3, 60032, Note_off_c, 0, 53, 55
3, 60032, Note_off_c, 0, 62, 55
3, 60032, Note_on_c, 0, 56, 55
3, 60032, Note_on_c, 0, 63, 55
3, 60160, Note_off_c, 0, 56, 55
3, 60160, Note_off_c, 0, 63, 55
3, 60160, Note_on_c, 0, 53, 55
3, 60288, Note_off_c, 0, 53, 55
3, 60288, Note_on_c, 0, 56, 55
3, 60416, Note_off_c, 0, 56, 55
3, 60416, Note_on_c, 0, 55, 55
3, 60544, Note_off_c, 0, 55, 55
3, 60544, Note_on_c, 0, 58, 55
3, 60672, Note_off_c, 0, 58, 55
3, 60672, Note_on_c, 0, 55, 55
3, 60800, Note_off_c, 0, 55, 55
3, 60800, Note_on_c, 0, 58, 55
3, 60928, Note_off_c, 0, 58, 55
3, 60928, Note_on_c, 0, 55, 55
3, 61056, Note_off_c, 0, 55, 55
3, 61056, Note_on_c, 0, 58, 55
3, 61184, Note_off_c, 0, 58, 55
3, 61184, Note_on_c, 0, 55, 55
3, 61312, Note_off_c, 0, 55, 55
3, 61312, Note_on_c, 0, 58, 55
3, 61440, Note_off_c, 0, 58, 55
3, 61440, Note_on_c, 0, 55, 55
3, 61568, Note_off_c, 0, 55, 55
3, 61568, Note_on_c, 0, 58, 55
3, 61696, Note_off_c, 0, 58, 55
3, 61696, Note_on_c, 0, 55, 55
3, 61824, Note_off_c, 0, 55, 55
3, 61824, Note_on_c, 0, 58, 55
3, 61952, Note_off_c, 0, 58, 55
3, 61952, Note_on_c, 0, 55, 55
3, 62080, Note_off_c, 0, 55, 55
3, 62080, Note_on_c, 0, 58, 55
3, 62208, Note_off_c, 0, 58, 55
3, 62208, Note_on_c, 0, 55, 55
3, 62336, Note_off_c, 0, 55, 55
3, 62336, Note_on_c, 0, 58, 55
3, 62464, Note_off_c, 0, 58, 55
3, 62464, Note_on_c, 0, 56, 55
3, 62592, Note_off_c, 0, 56, 55
3, 62592, Note_on_c, 0, 60, 55
3, 62720, Note_off_c, 0, 60, 55
3, 62720, Note_on_c, 0, 56, 55
3, 62848, Note_off_c, 0, 56, 55
3, 62848, Note_on_c, 0, 60, 55
3, 62976, Note_off_c, 0, 60, 55
3, 62976, Note_on_c, 0, 56, 55
3, 63104, Note_off_c, 0, 56, 55
3, 63104, Note_on_c, 0, 60, 55
3, 63232, Note_off_c, 0, 60, 55
3, 63232, Note_on_c, 0, 56, 55
3, 63360, Note_off_c, 0, 56, 55
3, 63360, Note_on_c, 0, 60, 55
3, 63488, Note_off_c, 0, 60, 55
3, 63488, Note_on_c, 0, 53, 55
3, 63616, Note_off_c, 0, 53, 55
3, 63616, Note_on_c, 0, 56, 55
3, 63744, Note_off_c, 0, 56, 55
3, 63744, Note_on_c, 0, 53, 55
3, 63872, Note_off_c, 0, 53, 55
3, 63872, Note_on_c, 0, 56, 55
3, 64000, Note_off_c, 0, 56, 55
3, 64000, Note_on_c, 0, 53, 55
3, 64128, Note_off_c, 0, 53, 55
3, 64128, Note_on_c, 0, 56, 55
3, 64256, Note_off_c, 0, 56, 55
3, 64256, Note_on_c, 0, 53, 55
3, 64384, Note_off_c, 0, 53, 55
3, 64384, Note_on_c, 0, 56, 55
3, 64512, Note_off_c, 0, 56, 55
3, 64512, Note_on_c, 0, 55, 55
3, 64640, Note_off_c, 0, 55, 55
3, 64640, Note_on_c, 0, 58, 55
3, 64768, Note_off_c, 0, 58, 55
3, 64768, Note_on_c, 0, 55, 55
3, 64896, Note_off_c, 0, 55, 55
3, 64896, Note_on_c, 0, 58, 55
3, 65024, Note_off_c, 0, 58, 55
3, 65024, Note_on_c, 0, 55, 55
3, 65152, Note_off_c, 0, 55, 55
3, 65152, Note_on_c, 0, 58, 55
3, 65280, Note_off_c, 0, 58, 55
3, 65280, Note_on_c, 0, 55, 55
3, 65408, Note_off_c, 0, 55, 55
3, 65408, Note_on_c, 0, 58, 55
3, 65536, Note_off_c, 0, 58, 55
3, 65536, Note_on_c, 0, 51, 55
3, 65664, Note_off_c, 0, 51, 55
3, 65664, Note_on_c, 0, 55, 55
3, 65792, Note_off_c, 0, 55, 55
3, 65792, Note_on_c, 0, 51, 55
3, 65920, Note_off_c, 0, 51, 55
3, 65920, Note_on_c, 0, 55, 55
3, 66048, Note_off_c, 0, 55, 55
3, 66048, Note_on_c, 0, 51, 55
3, 66176, Note_off_c, 0, 51, 55
3, 66176, Note_on_c, 0, 55, 55
3, 66304, Note_off_c, 0, 55, 55
3, 66304, Note_on_c, 0, 56, 55
3, 66432, Note_off_c, 0, 56, 55
3, 66432, Note_on_c, 0, 55, 55
3, 66560, Note_off_c, 0, 55, 55
3, 66560, Note_on_c, 0, 53, 55
3, 66688, Note_off_c, 0, 53, 55
3, 66688, Note_on_c, 0, 58, 55
3, 66816, Note_off_c, 0, 58, 55
3, 66816, Note_on_c, 0, 53, 55
3, 66944, Note_off_c, 0, 53, 55
3, 66944, Note_on_c, 0, 58, 55
3, 67072, Note_off_c, 0, 58, 55
3, 67072, Note_on_c, 0, 53, 55
3, 67200, Note_off_c, 0, 53, 55
3, 67200, Note_on_c, 0, 58, 55
3, 67328, Note_off_c, 0, 58, 55
3, 67328, Note_on_c, 0, 53, 55
3, 67456, Note_off_c, 0, 53, 55
3, 67456, Note_on_c, 0, 58, 55
3, 67584, Note_off_c, 0, 58, 55
3, 67584, Note_on_c, 0, 53, 55
3, 67712, Note_off_c, 0, 53, 55
3, 67712, Note_on_c, 0, 58, 55
3, 67840, Note_off_c, 0, 58, 55
3, 67840, Note_on_c, 0, 53, 55
3, 67968, Note_off_c, 0, 53, 55
3, 67968, Note_on_c, 0, 58, 55
3, 68096, Note_off_c, 0, 58, 55
3, 68096, Note_on_c, 0, 53, 55
3, 68224, Note_off_c, 0, 53, 55
3, 68224, Note_on_c, 0, 58, 55
3, 68352, Note_off_c, 0, 58, 55
3, 68352, Note_on_c, 0, 56, 55
3, 68480, Note_off_c, 0, 56, 55
3, 68480, Note_on_c, 0, 58, 55
3, 68608, Note_off_c, 0, 58, 55
3, 68608, Note_on_c, 0, 55, 55
3, 68736, Note_off_c, 0, 55, 55
3, 68736, Note_on_c, 0, 58, 55
3, 68864, Note_off_c, 0, 58, 55
3, 68864, Note_on_c, 0, 55, 55
3, 68992, Note_off_c, 0, 55, 55
3, 68992, Note_on_c, 0, 58, 55
3, 69120, Note_off_c, 0, 58, 55
3, 69120, Note_on_c, 0, 55, 55
3, 69248, Note_off_c, 0, 55, 55
3, 69248, Note_on_c, 0, 58, 55
3, 69376, Note_off_c, 0, 58, 55
3, 69376, Note_on_c, 0, 56, 55
3, 69504, Note_off_c, 0, 56, 55
3, 69504, Note_on_c, 0, 58, 55
3, 69632, Note_off_c, 0, 58, 55
3, 69632, Note_on_c, 0, 51, 55
3, 69760, Note_off_c, 0, 51, 55
3, 69760, Note_on_c, 0, 55, 55
3, 69888, Note_off_c, 0, 55, 55
3, 69888, Note_on_c, 0, 51, 55
3, 70016, Note_off_c, 0, 51, 55
3, 70016, Note_on_c, 0, 55, 55
3, 70144, Note_off_c, 0, 55, 55
3, 70144, Note_on_c, 0, 51, 55
3, 70272, Note_off_c, 0, 51, 55
3, 70272, Note_on_c, 0, 55, 55
3, 70400, Note_off_c, 0, 55, 55
3, 70400, Note_on_c, 0, 56, 55
3, 70528, Note_off_c, 0, 56, 55
3, 70528, Note_on_c, 0, 55, 55
3, 70656, Note_off_c, 0, 55, 55
3, 70656, Note_on_c, 0, 53, 55
3, 70784, Note_off_c, 0, 53, 55
3, 70784, Note_on_c, 0, 58, 55
3, 70912, Note_off_c, 0, 58, 55
3, 70912, Note_on_c, 0, 53, 55
3, 71040, Note_off_c, 0, 53, 55
3, 71040, Note_on_c, 0, 58, 55
3, 71168, Note_off_c, 0, 58, 55
3, 71168, Note_on_c, 0, 53, 55
3, 71296, Note_off_c, 0, 53, 55
3, 71296, Note_on_c, 0, 58, 55
3, 71424, Note_off_c, 0, 58, 55
3, 71424, Note_on_c, 0, 53, 55
3, 71552, Note_off_c, 0, 53, 55
3, 71552, Note_on_c, 0, 58, 55
3, 71680, Note_off_c, 0, 58, 55
3, 71680, Note_on_c, 0, 53, 55
3, 71808, Note_off_c, 0, 53, 55
3, 71808, Note_on_c, 0, 58, 55
3, 71936, Note_off_c, 0, 58, 55
3, 71936, Note_on_c, 0, 53, 55
3, 72064, Note_off_c, 0, 53, 55
3, 72064, Note_on_c, 0, 58, 55
3, 72192, Note_off_c, 0, 58, 55
3, 72192, Note_on_c, 0, 53, 55
3, 72320, Note_off_c, 0, 53, 55
3, 72320, Note_on_c, 0, 58, 55
3, 72448, Note_off_c, 0, 58, 55
3, 72448, Note_on_c, 0, 56, 55
3, 72576, Note_off_c, 0, 56, 55
3, 72576, Note_on_c, 0, 58, 55
3, 72704, Note_off_c, 0, 58, 55
3, 72704, Note_on_c, 0, 51, 55
3, 72832, Note_off_c, 0, 51, 55
3, 72832, Note_on_c, 0, 55, 55
3, 72960, Note_off_c, 0, 55, 55
3, 72960, Note_on_c, 0, 51, 55
3, 73088, Note_off_c, 0, 51, 55
3, 73088, Note_on_c, 0, 55, 55
3, 73216, Note_off_c, 0, 55, 55
3, 73216, Note_on_c, 0, 51, 55
3, 73344, Note_off_c, 0, 51, 55
3, 73344, Note_on_c, 0, 58, 55
3, 73472, Note_off_c, 0, 58, 55
3, 73472, Note_on_c, 0, 56, 55
3, 73600, Note_off_c, 0, 56, 55
3, 73600, Note_on_c, 0, 55, 55
3, 73728, Note_off_c, 0, 55, 55
3, 73728, Note_on_c, 0, 55, 55
3, 73728, Note_on_c, 0, 67, 55
3, 73856, Note_off_c, 0, 55, 55
3, 73856, Note_off_c, 0, 67, 55
3, 73856, Note_on_c, 0, 58, 55
3, 73856, Note_on_c, 0, 65, 55
3, 73984, Note_off_c, 0, 58, 55
3, 73984, Note_off_c, 0, 65, 55
3, 73984, Note_on_c, 0, 55, 55
3, 73984, Note_on_c, 0, 63, 55
3, 74112, Note_off_c, 0, 55, 55
3, 74112, Note_off_c, 0, 63, 55
3, 74112, Note_on_c, 0, 58, 55
3, 74240, Note_off_c, 0, 58, 55
3, 74240, Note_on_c, 0, 55, 55
3, 74240, Note_on_c, 0, 65, 55
3, 74368, Note_off_c, 0, 55, 55
3, 74368, Note_off_c, 0, 65, 55
3, 74368, Note_on_c, 0, 58, 55
3, 74368, Note_on_c, 0, 67, 55
3, 74496, Note_off_c, 0, 58, 55
3, 74496, Note_off_c, 0, 67, 55
3, 74496, Note_on_c, 0, 55, 55
3, 74624, Note_off_c, 0, 55, 55
3, 74624, Note_on_c, 0, 58, 55
3, 74752, Note_off_c, 0, 58, 55
3, 74752, Note_on_c, 0, 56, 55
3, 74880, Note_off_c, 0, 56, 55
3, 74880, Note_on_c, 0, 60, 55
3, 75008, Note_off_c, 0, 60, 55
3, 75008, Note_on_c, 0, 56, 55
3, 75136, Note_off_c, 0, 56, 55
3, 75136, Note_on_c, 0, 60, 55
3, 75264, Note_off_c, 0, 60, 55
3, 75264, Note_on_c, 0, 56, 55
3, 75392, Note_off_c, 0, 56, 55
3, 75392, Note_on_c, 0, 60, 55
3, 75520, Note_off_c, 0, 60, 55
3, 75520, Note_on_c, 0, 56, 55
3, 75648, Note_off_c, 0, 56, 55
3, 75648, Note_on_c, 0, 60, 55
3, 75776, Note_off_c, 0, 60, 55
3, 75776, Note_on_c, 0, 53, 55
3, 75904, Note_off_c, 0, 53, 55
3, 75904, Note_on_c, 0, 56, 55
3, 76032, Note_off_c, 0, 56, 55
3, 76032, Note_on_c, 0, 53, 55
3, 76160, Note_off_c, 0, 53, 55
3, 76160, Note_on_c, 0, 56, 55
3, 76288, Note_off_c, 0, 56, 55
3, 76288, Note_on_c, 0, 53, 55
3, 76288, Note_on_c, 0, 62, 55
3, 76416, Note_off_c, 0, 53, 55
3, 76416, Note_off_c, 0, 62, 55
3, 76416, Note_on_c, 0, 56, 55
3, 76416, Note_on_c, 0, 63, 55
3, 76544, Note_off_c, 0, 56, 55
3, 76544, Note_off_c, 0, 63, 55
3, 76544, Note_on_c, 0, 53, 55
3, 76672, Note_off_c, 0, 53, 55
3, 76672, Note_on_c, 0, 56, 55
3, 76800, Note_off_c, 0, 56, 55
3, 76800, Note_on_c, 0, 55, 55
3, 76928, Note_off_c, 0, 55, 55
3, 76928, Note_on_c, 0, 58, 55
3, 77056, Note_off_c, 0, 58, 55
3, 77056, Note_on_c, 0, 55, 55
3, 77184, Note_off_c, 0, 55, 55
3, 77184, Note_on_c, 0, 58, 55
3, 77312, Note_off_c, 0, 58, 55
3, 77312, Note_on_c, 0, 55, 55
3, 77440, Note_off_c, 0, 55, 55
3, 77440, Note_on_c, 0, 58, 55
3, 77568, Note_off_c, 0, 58, 55
3, 77568, Note_on_c, 0, 55, 55
3, 77696, Note_off_c, 0, 55, 55
3, 77696, Note_on_c, 0, 58, 55
3, 77824, Note_off_c, 0, 58, 55
3, 77824, Note_on_c, 0, 55, 55
3, 77952, Note_off_c, 0, 55, 55
3, 77952, Note_on_c, 0, 58, 55
3, 78080, Note_off_c, 0, 58, 55
3, 78080, Note_on_c, 0, 55, 55
3, 78208, Note_off_c, 0, 55, 55
3, 78208, Note_on_c, 0, 58, 55
3, 78336, Note_off_c, 0, 58, 55
3, 78336, Note_on_c, 0, 55, 55
3, 78464, Note_off_c, 0, 55, 55
3, 78464, Note_on_c, 0, 58, 55
3, 78592, Note_off_c, 0, 58, 55
3, 78592, Note_on_c, 0, 55, 55
3, 78720, Note_off_c, 0, 55, 55
3, 78720, Note_on_c, 0, 58, 55
3, 78848, Note_off_c, 0, 58, 55
3, 78848, Note_on_c, 0, 56, 55
3, 78976, Note_off_c, 0, 56, 55
3, 78976, Note_on_c, 0, 60, 55
3, 79104, Note_off_c, 0, 60, 55
3, 79104, Note_on_c, 0, 56, 55
3, 79232, Note_off_c, 0, 56, 55
3, 79232, Note_on_c, 0, 60, 55
3, 79360, Note_off_c, 0, 60, 55
3, 79360, Note_on_c, 0, 56, 55
3, 79488, Note_off_c, 0, 56, 55
3, 79488, Note_on_c, 0, 60, 55
3, 79616, Note_off_c, 0, 60, 55
3, 79616, Note_on_c, 0, 56, 55
3, 79744, Note_off_c, 0, 56, 55
3, 79744, Note_on_c, 0, 60, 55
3, 79872, Note_off_c, 0, 60, 55
3, 79872, Note_on_c, 0, 53, 55
3, 80000, Note_off_c, 0, 53, 55
3, 80000, Note_on_c, 0, 56, 55
3, 80128, Note_off_c, 0, 56, 55
3, 80128, Note_on_c, 0, 53, 55
3, 80256, Note_off_c, 0, 53, 55
3, 80256, Note_on_c, 0, 56, 55
3, 80384, Note_off_c, 0, 56, 55
3, 80384, Note_on_c, 0, 53, 55
3, 80512, Note_off_c, 0, 53, 55
3, 80512, Note_on_c, 0, 56, 55
3, 80640, Note_off_c, 0, 56, 55
3, 80640, Note_on_c, 0, 53, 55
3, 80768, Note_off_c, 0, 53, 55
3, 80768, Note_on_c, 0, 56, 55
3, 80896, Note_off_c, 0, 56, 55
3, 80896, Note_on_c, 0, 55, 55
3, 81024, Note_off_c, 0, 55, 55
3, 81024, Note_on_c, 0, 58, 55
3, 81152, Note_off_c, 0, 58, 55
3, 81152, Note_on_c, 0, 55, 55
3, 81280, Note_off_c, 0, 55, 55
3, 81280, Note_on_c, 0, 58, 55
3, 81408, Note_off_c, 0, 58, 55
3, 81408, Note_on_c, 0, 55, 55
3, 81536, Note_off_c, 0, 55, 55
3, 81536, Note_on_c, 0, 58, 55
3, 81664, Note_off_c, 0, 58, 55
3, 81664, Note_on_c, 0, 55, 55
3, 81792, Note_off_c, 0, 55, 55
3, 81792, Note_on_c, 0, 58, 55
3, 81920, Note_off_c, 0, 58, 55
3, 81920, Note_on_c, 0, 51, 55
3, 82048, Note_off_c, 0, 51, 55
3, 82048, Note_on_c, 0, 55, 55
3, 82176, Note_off_c, 0, 55, 55
3, 82176, Note_on_c, 0, 51, 55
3, 82304, Note_off_c, 0, 51, 55
3, 82304, Note_on_c, 0, 55, 55
3, 82432, Note_off_c, 0, 55, 55
3, 82432, Note_on_c, 0, 51, 55
3, 82560, Note_off_c, 0, 51, 55
3, 82560, Note_on_c, 0, 55, 55
3, 82688, Note_off_c, 0, 55, 55
3, 82688, Note_on_c, 0, 56, 55
3, 82816, Note_off_c, 0, 56, 55
3, 82816, Note_on_c, 0, 55, 55
3, 82944, Note_off_c, 0, 55, 55
3, 82944, Note_on_c, 0, 53, 55
3, 83072, Note_off_c, 0, 53, 55
3, 83072, Note_on_c, 0, 58, 55
3, 83200, Note_off_c, 0, 58, 55
3, 83200, Note_on_c, 0, 53, 55
3, 83328, Note_off_c, 0, 53, 55
3, 83328, Note_on_c, 0, 58, 55
3, 83456, Note_off_c, 0, 58, 55
3, 83456, Note_on_c, 0, 53, 55
3, 83584, Note_off_c, 0, 53, 55
3, 83584, Note_on_c, 0, 58, 55
3, 83712, Note_off_c, 0, 58, 55
3, 83712, Note_on_c, 0, 53, 55
3, 83840, Note_off_c, 0, 53, 55
3, 83840, Note_on_c, 0, 58, 55
3, 83968, Note_off_c, 0, 58, 55
3, 83968, Note_on_c, 0, 53, 55
3, 84096, Note_off_c, 0, 53, 55
3, 84096, Note_on_c, 0, 58, 55
3, 84224, Note_off_c, 0, 58, 55
3, 84224, Note_on_c, 0, 53, 55
3, 84352, Note_off_c, 0, 53, 55
3, 84352, Note_on_c, 0, 58, 55
3, 84480, Note_off_c, 0, 58, 55
3, 84480, Note_on_c, 0, 53, 55
3, 84608, Note_off_c, 0, 53, 55
3, 84608, Note_on_c, 0, 58, 55
3, 84736, Note_off_c, 0, 58, 55
3, 84736, Note_on_c, 0, 56, 55
3, 84864, Note_off_c, 0, 56, 55
3, 84864, Note_on_c, 0, 58, 55
3, 84992, Note_off_c, 0, 58, 55
3, 84992, Note_on_c, 0, 55, 55
3, 85120, Note_off_c, 0, 55, 55
3, 85120, Note_on_c, 0, 58, 55
3, 85248, Note_off_c, 0, 58, 55
3, 85248, Note_on_c, 0, 55, 55
3, 85376, Note_off_c, 0, 55, 55
3, 85376, Note_on_c, 0, 58, 55
3, 85504, Note_off_c, 0, 58, 55
3, 85504, Note_on_c, 0, 55, 55
3, 85632, Note_off_c, 0, 55, 55
3, 85632, Note_on_c, 0, 58, 55
3, 85760, Note_off_c, 0, 58, 55
3, 85760, Note_on_c, 0, 56, 55
3, 85888, Note_off_c, 0, 56, 55
3, 85888, Note_on_c, 0, 58, 55
3, 86016, Note_off_c, 0, 58, 55
3, 86016, Note_on_c, 0, 51, 55
3, 86144, Note_off_c, 0, 51, 55
3, 86144, Note_on_c, 0, 55, 55
3, 86272, Note_off_c, 0, 55, 55
3, 86272, Note_on_c, 0, 51, 55
3, 86400, Note_off_c, 0, 51, 55
3, 86400, Note_on_c, 0, 55, 55
3, 86528, Note_off_c, 0, 55, 55
3, 86528, Note_on_c, 0, 51, 55
3, 86656, Note_off_c, 0, 51, 55
3, 86656, Note_on_c, 0, 55, 55
3, 86784, Note_off_c, 0, 55, 55
3, 86784, Note_on_c, 0, 56, 55
3, 86912, Note_off_c, 0, 56, 55
3, 86912, Note_on_c, 0, 55, 55
3, 87040, Note_off_c, 0, 55, 55
3, 87040, Note_on_c, 0, 53, 55
3, 87168, Note_off_c, 0, 53, 55
3, 87168, Note_on_c, 0, 58, 55
3, 87296, Note_off_c, 0, 58, 55
3, 87296, Note_on_c, 0, 53, 55
3, 87424, Note_off_c, 0, 53, 55
3, 87424, Note_on_c, 0, 58, 55
3, 87552, Note_off_c, 0, 58, 55
3, 87552, Note_on_c, 0, 53, 55
3, 87680, Note_off_c, 0, 53, 55
3, 87680, Note_on_c, 0, 58, 55
3, 87808, Note_off_c, 0, 58, 55
3, 87808, Note_on_c, 0, 53, 55
3, 87936, Note_off_c, 0, 53, 55
3, 87936, Note_on_c, 0, 58, 55
3, 88064, Note_off_c, 0, 58, 55
3, 88064, Note_on_c, 0, 53, 55
3, 88192, Note_off_c, 0, 53, 55
3, 88192, Note_on_c, 0, 58, 55
3, 88320, Note_off_c, 0, 58, 55
3, 88320, Note_on_c, 0, 53, 55
3, 88448, Note_off_c, 0, 53, 55
3, 88448, Note_on_c, 0, 58, 55
3, 88576, Note_off_c, 0, 58, 55
3, 88576, Note_on_c, 0, 53, 55
3, 88704, Note_off_c, 0, 53, 55
3, 88704, Note_on_c, 0, 58, 55
3, 88832, Note_off_c, 0, 58, 55
3, 88832, Note_on_c, 0, 56, 55
3, 88960, Note_off_c, 0, 56, 55
3, 88960, Note_on_c, 0, 58, 55
3, 89088, Note_off_c, 0, 58, 55
3, 89088, Note_on_c, 0, 51, 55
3, 89216, Note_off_c, 0, 51, 55
3, 89216, Note_on_c, 0, 55, 55
3, 89344, Note_off_c, 0, 55, 55
3, 89344, Note_on_c, 0, 51, 55
3, 89472, Note_off_c, 0, 51, 55
3, 89472, Note_on_c, 0, 55, 55
3, 89600, Note_off_c, 0, 55, 55
3, 89600, Note_on_c, 0, 51, 55
3, 89728, Note_off_c, 0, 51, 55
3, 89728, Note_on_c, 0, 58, 55
3, 89856, Note_off_c, 0, 58, 55
3, 89856, Note_on_c, 0, 56, 55
3, 89984, Note_off_c, 0, 56, 55
3, 89984, Note_on_c, 0, 55, 55
3, 90112, Note_off_c, 0, 55, 55
3, 90112, Note_on_c, 0, 55, 55
3, 90112, Note_on_c, 0, 67, 55
3, 90240, Note_off_c, 0, 55, 55
3, 90240, Note_off_c, 0, 67, 55
3, 90240, Note_on_c, 0, 58, 55
3, 90240, Note_on_c, 0, 65, 55
3, 90368, Note_off_c, 0, 58, 55
3, 90368, Note_off_c, 0, 65, 55
3, 90368, Note_on_c, 0, 55, 55
3, 90368, Note_on_c, 0, 63, 55
3, 90496, Note_off_c, 0, 55, 55
3, 90496, Note_off_c, 0, 63, 55
3, 90496, Note_on_c, 0, 58, 55
3, 90624, Note_off_c, 0, 58, 55
3, 90624, Note_on_c, 0, 55, 55
3, 90624, Note_on_c, 0, 65, 55
3, 90752, Note_off_c, 0, 55, 55
3, 90752, Note_off_c, 0, 65, 55
3, 90752, Note_on_c, 0, 58, 55
3, 90752, Note_on_c, 0, 67, 55
3, 90880, Note_off_c, 0, 58, 55
3, 90880, Note_off_c, 0, 67, 55
3, 90880, Note_on_c, 0, 55, 55
3, 91008, Note_off_c, 0, 55, 55
3, 91008, Note_on_c, 0, 58, 55
3, 91136, Note_off_c, 0, 58, 55
3, 91136, Note_on_c, 0, 56, 55
3, 91264, Note_off_c, 0, 56, 55
3, 91264, Note_on_c, 0, 60, 55
3, 91392, Note_off_c, 0, 60, 55
3, 91392, Note_on_c, 0, 56, 55
3, 91520, Note_off_c, 0, 56, 55
3, 91520, Note_on_c, 0, 60, 55
3, 91648, Note_off_c, 0, 60, 55
3, 91648, Note_on_c, 0, 56, 55
3, 91776, Note_off_c, 0, 56, 55
3, 91776, Note_on_c, 0, 60, 55
3, 91904, Note_off_c, 0, 60, 55
3, 91904, Note_on_c, 0, 56, 55
3, 92032, Note_off_c, 0, 56, 55
3, 92032, Note_on_c, 0, 60, 55
3, 92160, Note_off_c, 0, 60, 55
3, 92160, Note_on_c, 0, 53, 55
3, 92288, Note_off_c, 0, 53, 55
3, 92288, Note_on_c, 0, 56, 55
3, 92416, Note_off_c, 0, 56, 55
3, 92416, Note_on_c, 0, 53, 55
3, 92544, Note_off_c, 0, 53, 55
3, 92544, Note_on_c, 0, 56, 55
3, 92672, Note_off_c, 0, 56, 55
3, 92672, Note_on_c, 0, 53, 55
3, 92672, Note_on_c, 0, 62, 55
3, 92800, Note_off_c, 0, 53, 55
3, 92800, Note_off_c, 0, 62, 55
3, 92800, Note_on_c, 0, 56, 55
3, 92800, Note_on_c, 0, 63, 55
3, 92928, Note_off_c, 0, 56, 55
3, 92928, Note_off_c, 0, 63, 55
3, 92928, Note_on_c, 0, 53, 55
3, 93056, Note_off_c, 0, 53, 55
3, 93056, Note_on_c, 0, 56, 55
3, 93184, Note_off_c, 0, 56, 55
3, 93184, Note_on_c, 0, 55, 55
3, 93312, Note_off_c, 0, 55, 55
3, 93312, Note_on_c, 0, 58, 55
3, 93440, Note_off_c, 0, 58, 55
3, 93440, Note_on_c, 0, 55, 55
3, 93568, Note_off_c, 0, 55, 55
3, 93568, Note_on_c, 0, 58, 55
3, 93696, Note_off_c, 0, 58, 55
3, 93696, Note_on_c, 0, 55, 55
3, 93824, Note_off_c, 0, 55, 55
3, 93824, Note_on_c, 0, 58, 55
3, 93952, Note_off_c, 0, 58, 55
3, 93952, Note_on_c, 0, 55, 55
3, 94080, Note_off_c, 0, 55, 55
3, 94080, Note_on_c, 0, 58, 55
3, 94208, Note_off_c, 0, 58, 55
3, 94208, Note_on_c, 0, 55, 55
3, 94336, Note_off_c, 0, 55, 55
3, 94336, Note_on_c, 0, 58, 55
3, 94464, Note_off_c, 0, 58, 55
3, 94464, Note_on_c, 0, 55, 55
3, 94592, Note_off_c, 0, 55, 55
3, 94592, Note_on_c, 0, 58, 55
3, 94720, Note_off_c, 0, 58, 55
3, 94720, Note_on_c, 0, 55, 55
3, 94848, Note_off_c, 0, 55, 55
3, 94848, Note_on_c, 0, 58, 55
3, 94976, Note_off_c, 0, 58, 55
3, 94976, Note_on_c, 0, 55, 55
3, 95104, Note_off_c, 0, 55, 55
3, 95104, Note_on_c, 0, 58, 55
3, 95232, Note_off_c, 0, 58, 55
3, 95232, Note_on_c, 0, 56, 55
3, 95360, Note_off_c, 0, 56, 55
3, 95360, Note_on_c, 0, 60, 55
3, 95488, Note_off_c, 0, 60, 55
3, 95488, Note_on_c, 0, 56, 55
3, 95616, Note_off_c, 0, 56, 55
3, 95616, Note_on_c, 0, 60, 55
3, 95744, Note_off_c, 0, 60, 55
3, 95744, Note_on_c, 0, 56, 55
3, 95872, Note_off_c, 0, 56, 55
3, 95872, Note_on_c, 0, 60, 55
3, 96000, Note_off_c, 0, 60, 55
3, 96000, Note_on_c, 0, 56, 55
3, 96128, Note_off_c, 0, 56, 55
3, 96128, Note_on_c, 0, 60, 55
3, 96256, Note_off_c, 0, 60, 55
3, 96256, Note_on_c, 0, 53, 55
3, 96384, Note_off_c, 0, 53, 55
3, 96384, Note_on_c, 0, 56, 55
3, 96512, Note_off_c, 0, 56, 55
3, 96512, Note_on_c, 0, 53, 55
3, 96640, Note_off_c, 0, 53, 55
3, 96640, Note_on_c, 0, 56, 55
3, 96768, Note_off_c, 0, 56, 55
3, 96768, Note_on_c, 0, 53, 55
3, 96896, Note_off_c, 0, 53, 55
3, 96896, Note_on_c, 0, 56, 55
3, 97024, Note_off_c, 0, 56, 55
3, 97024, Note_on_c, 0, 53, 55
3, 97152, Note_off_c, 0, 53, 55
3, 97152, Note_on_c, 0, 56, 55
3, 97280, Note_off_c, 0, 56, 55
3, 97280, Note_on_c, 0, 55, 55
3, 97408, Note_off_c, 0, 55, 55
3, 97408, Note_on_c, 0, 58, 55
3, 97536, Note_off_c, 0, 58, 55
3, 97536, Note_on_c, 0, 55, 55
3, 97664, Note_off_c, 0, 55, 55
3, 97664, Note_on_c, 0, 58, 55
3, 97792, Note_off_c, 0, 58, 55
3, 97792, Note_on_c, 0, 55, 55
3, 97920, Note_off_c, 0, 55, 55
3, 97920, Note_on_c, 0, 58, 55
3, 98048, Note_off_c, 0, 58, 55
3, 98048, Note_on_c, 0, 55, 55
3, 98176, Note_off_c, 0, 55, 55
3, 98176, Note_on_c, 0, 58, 55
3, 98304, Note_off_c, 0, 58, 55
3, 98304, Note_on_c, 0, 51, 55
3, 98432, Note_off_c, 0, 51, 55
3, 98432, Note_on_c, 0, 55, 55
3, 98560, Note_off_c, 0, 55, 55
3, 98560, Note_on_c, 0, 51, 55
3, 98688, Note_off_c, 0, 51, 55
3, 98688, Note_on_c, 0, 55, 55
3, 98816, Note_off_c, 0, 55, 55
3, 98816, Note_on_c, 0, 51, 55
3, 98944, Note_off_c, 0, 51, 55
3, 98944, Note_on_c, 0, 55, 55
3, 99072, Note_off_c, 0, 55, 55
3, 99072, Note_on_c, 0, 56, 55
3, 99200, Note_off_c, 0, 56, 55
3, 99200, Note_on_c, 0, 55, 55
3, 99328, Note_off_c, 0, 55, 55
3, 99328, Note_on_c, 0, 53, 55
3, 99456, Note_off_c, 0, 53, 55
3, 99456, Note_on_c, 0, 58, 55
3, 99584, Note_off_c, 0, 58, 55
3, 99584, Note_on_c, 0, 53, 55
3, 99712, Note_off_c, 0, 53, 55
3, 99712, Note_on_c, 0, 58, 55
3, 99840, Note_off_c, 0, 58, 55
3, 99840, Note_on_c, 0, 53, 55
3, 99968, Note_off_c, 0, 53, 55
3, 99968, Note_on_c, 0, 58, 55
3, 100096, Note_off_c, 0, 58, 55
3, 100096, Note_on_c, 0, 53, 55
3, 100224, Note_off_c, 0, 53, 55
3, 100224, Note_on_c, 0, 58, 55
3, 100352, Note_off_c, 0, 58, 55
3, 100352, Note_on_c, 0, 53, 55
3, 100480, Note_off_c, 0, 53, 55
3, 100480, Note_on_c, 0, 58, 55
3, 100608, Note_off_c, 0, 58, 55
3, 100608, Note_on_c, 0, 53, 55
3, 100736, Note_off_c, 0, 53, 55
3, 100736, Note_on_c, 0, 58, 55
3, 100864, Note_off_c, 0, 58, 55
3, 100864, Note_on_c, 0, 53, 55
3, 100992, Note_off_c, 0, 53, 55
3, 100992, Note_on_c, 0, 58, 55
3, 101120, Note_off_c, 0, 58, 55
3, 101120, Note_on_c, 0, 56, 55
3, 101248, Note_off_c, 0, 56, 55
3, 101248, Note_on_c, 0, 58, 55
3, 101376, Note_off_c, 0, 58, 55
3, 101376, Note_on_c, 0, 55, 55
3, 101504, Note_off_c, 0, 55, 55
3, 101504, Note_on_c, 0, 58, 55
3, 101632, Note_off_c, 0, 58, 55
3, 101632, Note_on_c, 0, 55, 55
3, 101760, Note_off_c, 0, 55, 55
3, 101760, Note_on_c, 0, 58, 55
3, 101888, Note_off_c, 0, 58, 55
3, 101888, Note_on_c, 0, 55, 55
3, 102016, Note_off_c, 0, 55, 55
3, 102016, Note_on_c, 0, 58, 55
3, 102144, Note_off_c, 0, 58, 55
3, 102144, Note_on_c, 0, 56, 55
3, 102272, Note_off_c, 0, 56, 55
3, 102272, Note_on_c, 0, 58, 55
3, 102400, Note_off_c, 0, 58, 55
3, 102400, Note_on_c, 0, 51, 55
3, 102528, Note_off_c, 0, 51, 55
3, 102528, Note_on_c, 0, 55, 55
3, 102656, Note_off_c, 0, 55, 55
3, 102656, Note_on_c, 0, 51, 55
3, 102784, Note_off_c, 0, 51, 55
3, 102784, Note_on_c, 0, 55, 55
3, 102912, Note_off_c, 0, 55, 55
3, 102912, Note_on_c, 0, 51, 55
3, 103040, Note_off_c, 0, 51, 55
3, 103040, Note_on_c, 0, 55, 55
3, 103168, Note_off_c, 0, 55, 55
3, 103168, Note_on_c, 0, 56, 55
3, 103296, Note_off_c, 0, 56, 55
3, 103296, Note_on_c, 0, 55, 55
3, 103424, Note_off_c, 0, 55, 55
3, 103424, Note_on_c, 0, 53, 55
3, 103552, Note_off_c, 0, 53, 55
3, 103552, Note_on_c, 0, 58, 55
3, 103680, Note_off_c, 0, 58, 55
3, 103680, Note_on_c, 0, 53, 55
3, 103808, Note_off_c, 0, 53, 55
3, 103808, Note_on_c, 0, 58, 55
3, 103936, Note_off_c, 0, 58, 55
3, 103936, Note_on_c, 0, 53, 55
3, 104064, Note_off_c, 0, 53, 55
3, 104064, Note_on_c, 0, 58, 55
3, 104192, Note_off_c, 0, 58, 55
3, 104192, Note_on_c, 0, 53, 55
3, 104320, Note_off_c, 0, 53, 55
3, 104320, Note_on_c, 0, 58, 55
3, 104448, Note_off_c, 0, 58, 55
3, 104448, Note_on_c, 0, 53, 55
3, 104576, Note_off_c, 0, 53, 55
3, 104576, Note_on_c, 0, 58, 55
3, 104704, Note_off_c, 0, 58, 55
3, 104704, Note_on_c, 0, 53, 55
3, 104832, Note_off_c, 0, 53, 55
3, 104832, Note_on_c, 0, 58, 55
3, 104960, Note_off_c, 0, 58, 55
3, 104960, Note_on_c, 0, 53, 55
3, 105088, Note_off_c, 0, 53, 55
3, 105088, Note_on_c, 0, 58, 55
3, 105216, Note_off_c, 0, 58, 55
3, 105216, Note_on_c, 0, 56, 55
3, 105344, Note_off_c, 0, 56, 55
3, 105344, Note_on_c, 0, 58, 55
3, 105472, Note_off_c, 0, 58, 55
3, 105472, Note_on_c, 0, 51, 55
3, 105600, Note_off_c, 0, 51, 55
3, 105600, Note_on_c, 0, 55, 55
3, 105728, Note_off_c, 0, 55, 55
3, 105728, Note_on_c, 0, 51, 55
3, 105856, Note_off_c, 0, 51, 55
3, 105856, Note_on_c, 0, 55, 55
3, 105984, Note_off_c, 0, 55, 55
3, 105984, Note_on_c, 0, 51, 55
3, 106112, Note_off_c, 0, 51, 55
3, 106112, Note_on_c, 0, 58, 55
3, 106240, Note_off_c, 0, 58, 55
3, 106240, Note_on_c, 0, 56, 55
3, 106368, Note_off_c, 0, 56, 55
3, 106368, Note_on_c, 0, 55, 55
3, 106496, Note_off_c, 0, 55, 55
3, 106496, Note_on_c, 0, 55, 55
3, 106496, Note_on_c, 0, 67, 55
3, 106624, Note_off_c, 0, 55, 55
3, 106624, Note_off_c, 0, 67, 55
3, 106624, Note_on_c, 0, 58, 55
3, 106624, Note_on_c, 0, 65, 55
3, 106752, Note_off_c, 0, 58, 55
3, 106752, Note_off_c, 0, 65, 55
3, 106752, Note_on_c, 0, 55, 55
3, 106752, Note_on_c, 0, 63, 55
3, 106880, Note_off_c, 0, 55, 55
3, 106880, Note_off_c, 0, 63, 55
3, 106880, Note_on_c, 0, 58, 55
3, 107008, Note_off_c, 0, 58, 55
3, 107008, Note_on_c, 0, 55, 55
3, 107008, Note_on_c, 0, 65, 55
3, 107136, Note_off_c, 0, 55, 55
3, 107136, Note_off_c, 0, 65, 55
3, 107136, Note_on_c, 0, 58, 55
3, 107136, Note_on_c, 0, 67, 55
3, 107264, Note_off_c, 0, 58, 55
3, 107264, Note_off_c, 0, 67, 55
3, 107264, Note_on_c, 0, 55, 55
3, 107392, Note_off_c, 0, 55, 55
3, 107392, Note_on_c, 0, 58, 55
3, 107520, Note_off_c, 0, 58, 55
3, 107520, Note_on_c, 0, 56, 55
3, 107648, Note_off_c, 0, 56, 55
3, 107648, Note_on_c, 0, 60, 55
3, 107776, Note_off_c, 0, 60, 55
3, 107776, Note_on_c, 0, 56, 55
3, 107904, Note_off_c, 0, 56, 55
3, 107904, Note_on_c, 0, 60, 55
3, 108032, Note_off_c, 0, 60, 55
3, 108032, Note_on_c, 0, 56, 55
3, 108160, Note_off_c, 0, 56, 55
3, 108160, Note_on_c, 0, 60, 55
3, 108288, Note_off_c, 0, 60, 55
3, 108288, Note_on_c, 0, 56, 55
3, 108416, Note_off_c, 0, 56, 55
3, 108416, Note_on_c, 0, 60, 55
3, 108544, Note_off_c, 0, 60, 55
3, 108544, Note_on_c, 0, 53, 55
3, 108672, Note_off_c, 0, 53, 55
3, 108672, Note_on_c, 0, 56, 55
3, 108800, Note_off_c, 0, 56, 55
3, 108800, Note_on_c, 0, 53, 55
3, 108928, Note_off_c, 0, 53, 55
3, 108928, Note_on_c, 0, 56, 55
3, 109056, Note_off_c, 0, 56, 55
3, 109056, Note_on_c, 0, 53, 55
3, 109056, Note_on_c, 0, 62, 55
3, 109184, Note_off_c, 0, 53, 55
3, 109184, Note_off_c, 0, 62, 55
3, 109184, Note_on_c, 0, 56, 55
3, 109184, Note_on_c, 0, 63, 55
3, 109312, Note_off_c, 0, 56, 55
3, 109312, Note_off_c, 0, 63, 55
3, 109312, Note_on_c, 0, 53, 55
3, 109440, Note_off_c, 0, 53, 55
3, 109440, Note_on_c, 0, 56, 55
3, 109568, Note_off_c, 0, 56, 55
3, 109568, Note_on_c, 0, 55, 55
3, 109696, Note_off_c, 0, 55, 55
3, 109696, Note_on_c, 0, 58, 55
3, 109824, Note_off_c, 0, 58, 55
3, 109824, Note_on_c, 0, 55, 55
3, 109952, Note_off_c, 0, 55, 55
3, 109952, Note_on_c, 0, 58, 55
3, 110080, Note_off_c, 0, 58, 55
3, 110080, Note_on_c, 0, 55, 55
3, 110208, Note_off_c, 0, 55, 55
3, 110208, Note_on_c, 0, 58, 55
3, 110336, Note_off_c, 0, 58, 55
3, 110336, Note_on_c, 0, 55, 55
3, 110464, Note_off_c, 0, 55, 55
3, 110464, Note_on_c, 0, 58, 55
3, 110592, Note_off_c, 0, 58, 55
3, 110592, Note_on_c, 0, 55, 55
3, 110720, Note_off_c, 0, 55, 55
3, 110720, Note_on_c, 0, 58, 55
3, 110848, Note_off_c, 0, 58, 55
3, 110848, Note_on_c, 0, 55, 55
3, 110976, Note_off_c, 0, 55, 55
3, 110976, Note_on_c, 0, 58, 55
3, 111104, Note_off_c, 0, 58, 55
3, 111104, Note_on_c, 0, 55, 55
3, 111232, Note_off_c, 0, 55, 55
3, 111232, Note_on_c, 0, 58, 55
3, 111360, Note_off_c, 0, 58, 55
3, 111360, Note_on_c, 0, 55, 55
3, 111488, Note_off_c, 0, 55, 55
3, 111488, Note_on_c, 0, 58, 55
3, 111616, Note_off_c, 0, 58, 55
3, 111616, Note_on_c, 0, 56, 55
3, 111744, Note_off_c, 0, 56, 55
3, 111744, Note_on_c, 0, 60, 55
3, 111872, Note_off_c, 0, 60, 55
3, 111872, Note_on_c, 0, 56, 55
3, 112000, Note_off_c, 0, 56, 55
3, 112000, Note_on_c, 0, 60, 55
3, 112128, Note_off_c, 0, 60, 55
3, 112128, Note_on_c, 0, 56, 55
3, 112256, Note_off_c, 0, 56, 55
3, 112256, Note_on_c, 0, 60, 55
3, 112384, Note_off_c, 0, 60, 55
3, 112384, Note_on_c, 0, 56, 55
3, 112512, Note_off_c, 0, 56, 55
3, 112512, Note_on_c, 0, 60, 55
3, 112640, Note_off_c, 0, 60, 55
3, 112640, Note_on_c, 0, 53, 55
3, 112768, Note_off_c, 0, 53, 55
3, 112768, Note_on_c, 0, 56, 55
3, 112896, Note_off_c, 0, 56, 55
3, 112896, Note_on_c, 0, 53, 55
3, 113024, Note_off_c, 0, 53, 55
3, 113024, Note_on_c, 0, 56, 55
3, 113152, Note_off_c, 0, 56, 55
3, 113152, Note_on_c, 0, 53, 55
3, 113280, Note_off_c, 0, 53, 55
3, 113280, Note_on_c, 0, 56, 55
3, 113408, Note_off_c, 0, 56, 55
3, 113408, Note_on_c, 0, 53, 55
3, 113536, Note_off_c, 0, 53, 55
3, 113536, Note_on_c, 0, 56, 55
3, 113664, Note_off_c, 0, 56, 55
3, 113664, Note_on_c, 0, 55, 55
3, 113792, Note_off_c, 0, 55, 55
3, 113792, Note_on_c, 0, 58, 55
3, 113920, Note_off_c, 0, 58, 55
3, 113920, Note_on_c, 0, 55, 55
3, 114048, Note_off_c, 0, 55, 55
3, 114048, Note_on_c, 0, 58, 55
3, 114176, Note_off_c, 0, 58, 55
3, 114176, Note_on_c, 0, 55, 55
3, 114304, Note_off_c, 0, 55, 55
3, 114304, Note_on_c, 0, 58, 55
3, 114432, Note_off_c, 0, 58, 55
3, 114432, Note_on_c, 0, 55, 55
3, 114560, Note_off_c, 0, 55, 55
3, 114560, Note_on_c, 0, 58, 55
3, 114688, Note_off_c, 0, 58, 55
3, 114688, Note_on_c, 0, 51, 55
3, 114816, Note_off_c, 0, 51, 55
3, 114816, Note_on_c, 0, 55, 55
3, 114944, Note_off_c, 0, 55, 55
3, 114944, Note_on_c, 0, 51, 55
3, 115072, Note_off_c, 0, 51, 55
3, 115072, Note_on_c, 0, 55, 55
3, 115200, Note_off_c, 0, 55, 55
3, 115200, Note_on_c, 0, 51, 55
3, 115328, Note_off_c, 0, 51, 55
3, 115328, Note_on_c, 0, 55, 55
3, 115456, Note_off_c, 0, 55, 55
3, 115456, Note_on_c, 0, 56, 55
3, 115584, Note_off_c, 0, 56, 55
3, 115584, Note_on_c, 0, 55, 55
3, 115712, Note_off_c, 0, 55, 55
3, 115712, Note_on_c, 0, 53, 55
3, 115840, Note_off_c, 0, 53, 55
3, 115840, Note_on_c, 0, 58, 55
3, 115968, Note_off_c, 0, 58, 55
3, 115968, Note_on_c, 0, 53, 55
3, 116096, Note_off_c, 0, 53, 55
3, 116096, Note_on_c, 0, 58, 55
3, 116224, Note_off_c, 0, 58, 55
3, 116224, Note_on_c, 0, 53, 55
3, 116352, Note_off_c, 0, 53, 55
3, 116352, Note_on_c, 0, 58, 55
3, 116480, Note_off_c, 0, 58, 55
3, 116480, Note_on_c, 0, 53, 55
3, 116608, Note_off_c, 0, 53, 55
3, 116608, Note_on_c, 0, 58, 55
3, 116736, Note_off_c, 0, 58, 55
3, 116736, Note_on_c, 0, 53, 55
3, 116864, Note_off_c, 0, 53, 55
3, 116864, Note_on_c, 0, 58, 55
3, 116992, Note_off_c, 0, 58, 55
3, 116992, Note_on_c, 0, 53, 55
3, 117120, Note_off_c, 0, 53, 55
3, 117120, Note_on_c, 0, 58, 55
3, 117248, Note_off_c, 0, 58, 55
3, 117248, Note_on_c, 0, 53, 55
3, 117376, Note_off_c, 0, 53, 55
3, 117376, Note_on_c, 0, 58, 55
3, 117504, Note_off_c, 0, 58, 55
3, 117504, Note_on_c, 0, 56, 55
3, 117632, Note_off_c, 0, 56, 55
3, 117632, Note_on_c, 0, 58, 55
3, 117760, Note_off_c, 0, 58, 55
3, 117760, Note_on_c, 0, 55, 55
3, 117888, Note_off_c, 0, 55, 55
3, 117888, Note_on_c, 0, 58, 55
3, 118016, Note_off_c, 0, 58, 55
3, 118016, Note_on_c, 0, 55, 55
3, 118144, Note_off_c, 0, 55, 55
3, 118144, Note_on_c, 0, 58, 55
3, 118272, Note_off_c, 0, 58, 55
3, 118272, Note_on_c, 0, 55, 55
3, 118400, Note_off_c, 0, 55, 55
3, 118400, Note_on_c, 0, 58, 55
3, 118528, Note_off_c, 0, 58, 55
3, 118528, Note_on_c, 0, 56, 55
3, 118656, Note_off_c, 0, 56, 55
3, 118656, Note_on_c, 0, 58, 55
3, 118784, Note_off_c, 0, 58, 55
3, 118784, Note_on_c, 0, 51, 55
3, 118912, Note_off_c, 0, 51, 55
3, 118912, Note_on_c, 0, 55, 55
3, 119040, Note_off_c, 0, 55, 55
3, 119040, Note_on_c, 0, 51, 55
3, 119168, Note_off_c, 0, 51, 55
3, 119168, Note_on_c, 0, 55, 55
3, 119296, Note_off_c, 0, 55, 55
3, 119296, Note_on_c, 0, 51, 55
3, 119424, Note_off_c, 0, 51, 55
3, 119424, Note_on_c, 0, 55, 55
3, 119552, Note_off_c, 0, 55, 55
3, 119552, Note_on_c, 0, 56, 55
3, 119680, Note_off_c, 0, 56, 55
3, 119680, Note_on_c, 0, 55, 55
3, 119808, Note_off_c, 0, 55, 55
3, 119808, Note_on_c, 0, 53, 55
3, 119936, Note_off_c, 0, 53, 55
3, 119936, Note_on_c, 0, 58, 55
3, 120064, Note_off_c, 0, 58, 55
3, 120064, Note_on_c, 0, 53, 55
3, 120192, Note_off_c, 0, 53, 55
3, 120192, Note_on_c, 0, 58, 55
3, 120320, Note_off_c, 0, 58, 55
3, 120320, Note_on_c, 0, 53, 55
3, 120448, Note_off_c, 0, 53, 55
3, 120448, Note_on_c, 0, 58, 55
3, 120576, Note_off_c, 0, 58, 55
3, 120576, Note_on_c, 0, 53, 55
3, 120704, Note_off_c, 0, 53, 55
3, 120704, Note_on_c, 0, 58, 55
3, 120832, Note_off_c, 0, 58, 55
3, 120832, Note_on_c, 0, 53, 55
3, 120960, Note_off_c, 0, 53, 55
3, 120960, Note_on_c, 0, 58, 55
3, 121088, Note_off_c, 0, 58, 55
3, 121088, Note_on_c, 0, 53, 55
3, 121216, Note_off_c, 0, 53, 55
3, 121216, Note_on_c, 0, 58, 55
3, 121344, Note_off_c, 0, 58, 55
3, 121344, Note_on_c, 0, 53, 55
3, 121472, Note_off_c, 0, 53, 55
3, 121472, Note_on_c, 0, 58, 55
3, 121600, Note_off_c, 0, 58, 55
3, 121600, Note_on_c, 0, 56, 55
3, 121728, Note_off_c, 0, 56, 55
3, 121728, Note_on_c, 0, 58, 55
3, 121856, Note_off_c, 0, 58, 55
3, 121856, Note_on_c, 0, 51, 55
3, 121984, Note_off_c, 0, 51, 55
3, 121984, Note_on_c, 0, 55, 55
3, 122112, Note_off_c, 0, 55, 55
3, 122112, Note_on_c, 0, 51, 55
3, 122240, Note_off_c, 0, 51, 55
3, 122240, Note_on_c, 0, 55, 55
3, 122368, Note_off_c, 0, 55, 55
3, 122368, Note_on_c, 0, 51, 55
3, 122496, Note_off_c, 0, 51, 55
3, 122496, Note_on_c, 0, 58, 55
3, 122624, Note_off_c, 0, 58, 55
3, 122624, Note_on_c, 0, 56, 55
3, 122752, Note_off_c, 0, 56, 55
3, 122752, Note_on_c, 0, 55, 55
3, 122880, Note_off_c, 0, 55, 55
3, 122880, Note_on_c, 0, 55, 55
3, 122880, Note_on_c, 0, 67, 55
3, 123008, Note_off_c, 0, 55, 55
3, 123008, Note_off_c, 0, 67, 55
3, 123008, Note_on_c, 0, 58, 55
3, 123008, Note_on_c, 0, 65, 55
3, 123136, Note_off_c, 0, 58, 55
3, 123136, Note_off_c, 0, 65, 55
3, 123136, Note_on_c, 0, 55, 55
3, 123136, Note_on_c, 0, 63, 55
3, 123264, Note_off_c, 0, 55, 55
3, 123264, Note_off_c, 0, 63, 55
3, 123264, Note_on_c, 0, 58, 55
3, 123392, Note_off_c, 0, 58, 55
3, 123392, Note_on_c, 0, 55, 55
3, 123392, Note_on_c, 0, 65, 55
3, 123520, Note_off_c, 0, 55, 55
3, 123520, Note_off_c, 0, 65, 55
3, 123520, Note_on_c, 0, 58, 55
3, 123520, Note_on_c, 0, 67, 55
3, 123648, Note_off_c, 0, 58, 55
3, 123648, Note_off_c, 0, 67, 55
3, 123648, Note_on_c, 0, 55, 55
3, 123776, Note_off_c, 0, 55, 55
3, 123776, Note_on_c, 0, 58, 55
3, 123904, Note_off_c, 0, 58, 55
3, 123904, Note_on_c, 0, 56, 55
3, 124032, Note_off_c, 0, 56, 55
3, 124032, Note_on_c, 0, 60, 55
3, 124160, Note_off_c, 0, 60, 55
3, 124160, Note_on_c, 0, 56, 55
3, 124288, Note_off_c, 0, 56, 55
3, 124288, Note_on_c, 0, 60, 55
3, 124416, Note_off_c, 0, 60, 55
3, 124416, Note_on_c, 0, 56, 55
3, 124544, Note_off_c, 0, 56, 55
3, 124544, Note_on_c, 0, 60, 55
3, 124672, Note_off_c, 0, 60, 55
3, 124672, Note_on_c, 0, 56, 55
3, 124800, Note_off_c, 0, 56, 55
3, 124800, Note_on_c, 0, 60, 55
3, 124928, Note_off_c, 0, 60, 55
3, 124928, Note_on_c, 0, 53, 55
3, 125056, Note_off_c, 0, 53, 55
3, 125056, Note_on_c, 0, 56, 55
3, 125184, Note_off_c, 0, 56, 55
3, 125184, Note_on_c, 0, 53, 55
3, 125312, Note_off_c, 0, 53, 55
3, 125312, Note_on_c, 0, 56, 55
3, 125440, Note_off_c, 0, 56, 55
3, 125440, Note_on_c, 0, 53, 55
3, 125440, Note_on_c, 0, 62, 55
3, 125568, Note_off_c, 0, 53, 55
3, 125568, Note_off_c, 0, 62, 55
3, 125568, Note_on_c, 0, 56, 55
3, 125568, Note_on_c, 0, 63, 55
3, 125696, Note_off_c, 0, 56, 55
3, 125696, Note_off_c, 0, 63, 55
3, 125696, Note_on_c, 0, 53, 55
3, 125824, Note_off_c, 0, 53, 55
3, 125824, Note_on_c, 0, 56, 55
3, 125952, Note_off_c, 0, 56, 55
3, 125952, Note_on_c, 0, 55, 55
3, 126080, Note_off_c, 0, 55, 55
3, 126080, Note_on_c, 0, 58, 55
3, 126208, Note_off_c, 0, 58, 55
3, 126208, Note_on_c, 0, 55, 55
3, 126336, Note_off_c, 0, 55, 55
3, 126336, Note_on_c, 0, 58, 55
3, 126464, Note_off_c, 0, 58, 55
3, 126464, Note_on_c, 0, 55, 55
3, 126592, Note_off_c, 0, 55, 55
3, 126592, Note_on_c, 0, 58, 55
3, 126720, Note_off_c, 0, 58, 55
3, 126720, Note_on_c, 0, 55, 55
3, 126848, Note_off_c, 0, 55, 55
3, 126848, Note_on_c, 0, 58, 55
3, 126976, Note_off_c, 0, 58, 55
3, 126976, Note_on_c, 0, 55, 55
3, 127104, Note_off_c, 0, 55, 55
3, 127104, Note_on_c, 0, 58, 55
3, 127232, Note_off_c, 0, 58, 55
3, 127232, Note_on_c, 0, 55, 55
3, 127360, Note_off_c, 0, 55, 55
3, 127360, Note_on_c, 0, 58, 55
3, 127488, Note_off_c, 0, 58, 55
3, 127488, Note_on_c, 0, 55, 55
3, 127616, Note_off_c, 0, 55, 55
3, 127616, Note_on_c, 0, 58, 55
3, 127744, Note_off_c, 0, 58, 55
3, 127744, Note_on_c, 0, 55, 55
3, 127872, Note_off_c, 0, 55, 55
3, 127872, Note_on_c, 0, 58, 55
3, 128000, Note_off_c, 0, 58, 55
3, 128000, Note_on_c, 0, 56, 55
3, 128128, Note_off_c, 0, 56, 55
3, 128128, Note_on_c, 0, 60, 55
3, 128256, Note_off_c, 0, 60, 55
3, 128256, Note_on_c, 0, 56, 55
3, 128384, Note_off_c, 0, 56, 55
3, 128384, Note_on_c, 0, 60, 55
3, 128512, Note_off_c, 0, 60, 55
3, 128512, Note_on_c, 0, 56, 55
3, 128640, Note_off_c, 0, 56, 55
3, 128640, Note_on_c, 0, 60, 55
3, 128768, Note_off_c, 0, 60, 55
3, 128768, Note_on_c, 0, 56, 55
3, 128896, Note_off_c, 0, 56, 55
3, 128896, Note_on_c, 0, 60, 55
3, 129024, Note_off_c, 0, 60, 55
3, 129024, Note_on_c, 0, 53, 55
3, 129152, Note_off_c, 0, 53, 55
3, 129152, Note_on_c, 0, 56, 55
3, 129280, Note_off_c, 0, 56, 55
3, 129280, Note_on_c, 0, 53, 55
3, 129408, Note_off_c, 0, 53, 55
3, 129408, Note_on_c, 0, 56, 55
3, 129536, Note_off_c, 0, 56, 55
3, 129536, Note_on_c, 0, 53, 55
3, 129664, Note_off_c, 0, 53, 55
3, 129664, Note_on_c, 0, 56, 55
3, 129792, Note_off_c, 0, 56, 55
3, 129792, Note_on_c, 0, 53, 55
3, 129920, Note_off_c, 0, 53, 55
3, 129920, Note_on_c, 0, 56, 55
3, 130048, Note_off_c, 0, 56, 55
3, 130048, Note_on_c, 0, 55, 55
3, 130176, Note_off_c, 0, 55, 55
3, 130176, Note_on_c, 0, 58, 55
3, 130304, Note_off_c, 0, 58, 55
3, 130304, Note_on_c, 0, 55, 55
3, 130432, Note_off_c, 0, 55, 55
3, 130432, Note_on_c, 0, 58, 55
3, 130560, Note_off_c, 0, 58, 55
3, 130560, Note_on_c, 0, 55, 55
3, 130688, Note_off_c, 0, 55, 55
3, 130688, Note_on_c, 0, 58, 55
3, 130816, Note_off_c, 0, 58, 55
3, 130816, Note_on_c, 0, 55, 55
3, 130944, Note_off_c, 0, 55, 55
3, 130944, Note_on_c, 0, 58, 55
3, 131072, Note_off_c, 0, 58, 55
3, 131072, Note_on_c, 0, 51, 55
3, 131200, Note_off_c, 0, 51, 55
3, 131200, Note_on_c, 0, 55, 55
3, 131328, Note_off_c, 0, 55, 55
3, 131328, Note_on_c, 0, 51, 55
3, 131456, Note_off_c, 0, 51, 55
3, 131456, Note_on_c, 0, 55, 55
3, 131584, Note_off_c, 0, 55, 55
3, 131584, Note_on_c, 0, 51, 55
3, 131712, Note_off_c, 0, 51, 55
3, 131712, Note_on_c, 0, 55, 55
3, 131840, Note_off_c, 0, 55, 55
3, 131840, Note_on_c, 0, 56, 55
3, 131968, Note_off_c, 0, 56, 55
3, 131968, Note_on_c, 0, 55, 55
3, 132096, Note_off_c, 0, 55, 55
3, 132096, Note_on_c, 0, 53, 55
3, 132224, Note_off_c, 0, 53, 55
3, 132224, Note_on_c, 0, 58, 55
3, 132352, Note_off_c, 0, 58, 55
3, 132352, Note_on_c, 0, 53, 55
3, 132480, Note_off_c, 0, 53, 55
3, 132480, Note_on_c, 0, 58, 55
3, 132608, Note_off_c, 0, 58, 55
3, 132608, Note_on_c, 0, 53, 55
3, 132736, Note_off_c, 0, 53, 55
3, 132736, Note_on_c, 0, 58, 55
3, 132864, Note_off_c, 0, 58, 55
3, 132864, Note_on_c, 0, 53, 55
3, 132992, Note_off_c, 0, 53, 55
3, 132992, Note_on_c, 0, 58, 55
3, 133120, Note_off_c, 0, 58, 55
3, 133120, Note_on_c, 0, 53, 55
3, 133248, Note_off_c, 0, 53, 55
3, 133248, Note_on_c, 0, 58, 55
3, 133376, Note_off_c, 0, 58, 55
3, 133376, Note_on_c, 0, 53, 55
3, 133504, Note_off_c, 0, 53, 55
3, 133504, Note_on_c, 0, 58, 55
3, 133632, Note_off_c, 0, 58, 55
3, 133632, Note_on_c, 0, 53, 55
3, 133760, Note_off_c, 0, 53, 55
3, 133760, Note_on_c, 0, 58, 55
3, 133888, Note_off_c, 0, 58, 55
3, 133888, Note_on_c, 0, 56, 55
3, 134016, Note_off_c, 0, 56, 55
3, 134016, Note_on_c, 0, 58, 55
3, 134144, Note_off_c, 0, 58, 55
3, 134144, Note_on_c, 0, 55, 55
3, 134272, Note_off_c, 0, 55, 55
3, 134272, Note_on_c, 0, 58, 55
3, 134400, Note_off_c, 0, 58, 55
3, 134400, Note_on_c, 0, 55, 55
3, 134528, Note_off_c, 0, 55, 55
3, 134528, Note_on_c, 0, 58, 55
3, 134656, Note_off_c, 0, 58, 55
3, 134656, Note_on_c, 0, 55, 55
3, 134784, Note_off_c, 0, 55, 55
3, 134784, Note_on_c, 0, 58, 55
3, 134912, Note_off_c, 0, 58, 55
3, 134912, Note_on_c, 0, 56, 55
3, 135040, Note_off_c, 0, 56, 55
3, 135040, Note_on_c, 0, 58, 55
3, 135168, Note_off_c, 0, 58, 55
3, 135168, Note_on_c, 0, 51, 55
3, 135296, Note_off_c, 0, 51, 55
3, 135296, Note_on_c, 0, 55, 55
3, 135424, Note_off_c, 0, 55, 55
3, 135424, Note_on_c, 0, 51, 55
3, 135552, Note_off_c, 0, 51, 55
3, 135552, Note_on_c, 0, 55, 55
3, 135680, Note_off_c, 0, 55, 55
3, 135680, Note_on_c, 0, 51, 55
3, 135808, Note_off_c, 0, 51, 55
3, 135808, Note_on_c, 0, 55, 55
3, 135936, Note_off_c, 0, 55, 55
3, 135936, Note_on_c, 0, 56, 55
3, 136064, Note_off_c, 0, 56, 55
3, 136064, Note_on_c, 0, 55, 55
3, 136192, Note_off_c, 0, 55, 55
3, 136192, Note_on_c, 0, 53, 55
3, 136320, Note_off_c, 0, 53, 55
3, 136320, Note_on_c, 0, 58, 55
3, 136448, Note_off_c, 0, 58, 55
3, 136448, Note_on_c, 0, 53, 55
3, 136576, Note_off_c, 0, 53, 55
3, 136576, Note_on_c, 0, 58, 55
3, 136704, Note_off_c, 0, 58, 55
3, 136704, Note_on_c, 0, 53, 55
3, 136832, Note_off_c, 0, 53, 55
3, 136832, Note_on_c, 0, 58, 55
3, 136960, Note_off_c, 0, 58, 55
3, 136960, Note_on_c, 0, 53, 55
3, 137088, Note_off_c, 0, 53, 55
3, 137088, Note_on_c, 0, 58, 55
3, 137216, Note_off_c, 0, 58, 55
3, 137216, Note_on_c, 0, 53, 55
3, 137344, Note_off_c, 0, 53, 55
3, 137344, Note_on_c, 0, 58, 55
3, 137472, Note_off_c, 0, 58, 55
3, 137472, Note_on_c, 0, 53, 55
3, 137600, Note_off_c, 0, 53, 55
3, 137600, Note_on_c, 0, 58, 55
3, 137728, Note_off_c, 0, 58, 55
3, 137728, Note_on_c, 0, 53, 55
3, 137856, Note_off_c, 0, 53, 55
3, 137856, Note_on_c, 0, 58, 55
3, 137984, Note_off_c, 0, 58, 55
3, 137984, Note_on_c, 0, 56, 55
3, 138112, Note_off_c, 0, 56, 55
3, 138112, Note_on_c, 0, 58, 55
3, 138240, Note_off_c, 0, 58, 55
3, 138240, Note_on_c, 0, 51, 55
3, 138368, Note_off_c, 0, 51, 55
3, 138368, Note_on_c, 0, 55, 55
3, 138496, Note_off_c, 0, 55, 55
3, 138496, Note_on_c, 0, 51, 55
3, 138624, Note_off_c, 0, 51, 55
3, 138624, Note_on_c, 0, 55, 55
3, 138752, Note_off_c, 0, 55, 55
3, 138752, Note_on_c, 0, 51, 55
3, 138880, Note_off_c, 0, 51, 55
3, 138880, Note_on_c, 0, 58, 55
3, 139008, Note_off_c, 0, 58, 55
3, 139008, Note_on_c, 0, 56, 55
3, 139136, Note_off_c, 0, 56, 55
3, 139136, Note_on_c, 0, 55, 55
3, 139264, Note_off_c, 0, 55, 55
3, 139264, Note_on_c, 0, 55, 55
3, 139264, Note_on_c, 0, 67, 55
3, 139392, Note_off_c, 0, 55, 55
3, 139392, Note_off_c, 0, 67, 55
3, 139392, Note_on_c, 0, 58, 55
3, 139392, Note_on_c, 0, 65, 55
3, 139520, Note_off_c, 0, 58, 55
3, 139520, Note_off_c, 0, 65, 55
3, 139520, Note_on_c, 0, 55, 55
3, 139520, Note_on_c, 0, 63, 55
3, 139648, Note_off_c, 0, 55, 55
3, 139648, Note_off_c, 0, 63, 55
3, 139648, Note_on_c, 0, 58, 55
3, 139776, Note_off_c, 0, 58, 55
3, 139776, Note_on_c, 0, 55, 55
3, 139776, Note_on_c, 0, 65, 55
3, 139904, Note_off_c, 0, 55, 55
3, 139904, Note_off_c, 0, 65, 55
3, 139904, Note_on_c, 0, 58, 55
3, 139904, Note_on_c, 0, 67, 55
3, 140032, Note_off_c, 0, 58, 55
3, 140032, Note_off_c, 0, 67, 55
3, 140032, Note_on_c, 0, 55, 55
3, 140160, Note_off_c, 0, 55, 55
3, 140160, Note_on_c, 0, 58, 55
3, 140288, Note_off_c, 0, 58, 55
3, 140288, Note_on_c, 0, 56, 55
3, 140416, Note_off_c, 0, 56, 55
3, 140416, Note_on_c, 0, 60, 55
3, 140544, Note_off_c, 0, 60, 55
3, 140544, Note_on_c, 0, 56, 55
3, 140672, Note_off_c, 0, 56, 55
3, 140672, Note_on_c, 0, 60, 55
3, 140800, Note_off_c, 0, 60, 55
3, 140800, Note_on_c, 0, 56, 55
3, 140928, Note_off_c, 0, 56, 55
3, 140928, Note_on_c, 0, 60, 55
3, 141056, Note_off_c, 0, 60, 55
3, 141056, Note_on_c, 0, 56, 55
3, 141184, Note_off_c, 0, 56, 55
3, 141184, Note_on_c, 0, 60, 55
3, 141312, Note_off_c, 0, 60, 55
3, 141312, Note_on_c, 0, 53, 55
3, 141440, Note_off_c, 0, 53, 55
3, 141440, Note_on_c, 0, 56, 55
3, 141568, Note_off_c, 0, 56, 55
3, 141568, Note_on_c, 0, 53, 55
3, 141696, Note_off_c, 0, 53, 55
3, 141696, Note_on_c, 0, 56, 55
3, 141824, Note_off_c, 0, 56, 55
3, 141824, Note_on_c, 0, 53, 55
3, 141824, Note_on_c, 0, 62, 55
3, 141952, Note_off_c, 0, 53, 55
3, 141952, Note_off_c, 0, 62, 55
3, 141952, Note_on_c, 0, 56, 55
3, 141952, Note_on_c, 0, 63, 55
3, 142080, Note_off_c, 0, 56, 55
3, 142080, Note_off_c, 0, 63, 55
3, 142080, Note_on_c, 0, 53, 55
3, 142208, Note_off_c, 0, 53, 55
3, 142208, Note_on_c, 0, 56, 55
3, 142336, Note_off_c, 0, 56, 55
3, 142336, Note_on_c, 0, 55, 55
3, 142464, Note_off_c, 0, 55, 55
3, 142464, Note_on_c, 0, 58, 55
3, 142592, Note_off_c, 0, 58, 55
3, 142592, Note_on_c, 0, 55, 55
3, 142720, Note_off_c, 0, 55, 55
3, 142720, Note_on_c, 0, 58, 55
3, 142848, Note_off_c, 0, 58, 55
3, 142848, Note_on_c, 0, 55, 55
3, 142976, Note_off_c, 0, 55, 55
3, 142976, Note_on_c, 0, 58, 55
3, 143104, Note_off_c, 0, 58, 55
3, 143104, Note_on_c, 0, 55, 55
3, 143232, Note_off_c, 0, 55, 55
3, 143232, Note_on_c, 0, 58, 55
3, 143360, Note_off_c, 0, 58, 55
3, 143360, Note_on_c, 0, 55, 55
3, 143488, Note_off_c, 0, 55, 55
3, 143488, Note_on_c, 0, 58, 55
3, 143616, Note_off_c, 0, 58, 55
3, 143616, Note_on_c, 0, 55, 55
3, 143744, Note_off_c, 0, 55, 55
3, 143744, Note_on_c, 0, 58, 55
3, 143872, Note_off_c, 0, 58, 55
3, 143872, Note_on_c, 0, 55, 55
3, 144000, Note_off_c, 0, 55, 55
3, 144000, Note_on_c, 0, 58, 55
3, 144128, Note_off_c, 0, 58, 55
3, 144128, Note_on_c, 0, 55, 55
3, 144256, Note_off_c, 0, 55, 55
3, 144256, Note_on_c, 0, 58, 55
3, 144384, Note_off_c, 0, 58, 55
3, 144384, Note_on_c, 0, 56, 55
3, 144512, Note_off_c, 0, 56, 55
3, 144512, Note_on_c, 0, 60, 55
3, 144640, Note_off_c, 0, 60, 55
3, 144640, Note_on_c, 0, 56, 55
3, 144768, Note_off_c, 0, 56, 55
3, 144768, Note_on_c, 0, 60, 55
3, 144896, Note_off_c, 0, 60, 55
3, 144896, Note_on_c, 0, 56, 55
3, 145024, Note_off_c, 0, 56, 55
3, 145024, Note_on_c, 0, 60, 55
3, 145152, Note_off_c, 0, 60, 55
3, 145152, Note_on_c, 0, 56, 55
3, 145280, Note_off_c, 0, 56, 55
3, 145280, Note_on_c, 0, 60, 55
3, 145408, Note_off_c, 0, 60, 55
3, 145408, Note_on_c, 0, 53, 55
3, 145536, Note_off_c, 0, 53, 55
3, 145536, Note_on_c, 0, 56, 55
3, 145664, Note_off_c, 0, 56, 55
3, 145664, Note_on_c, 0, 53, 55
3, 145792, Note_off_c, 0, 53, 55
3, 145792, Note_on_c, 0, 56, 55
3, 145920, Note_off_c, 0, 56, 55
3, 145920, Note_on_c, 0, 53, 55
3, 146048, Note_off_c, 0, 53, 55
3, 146048, Note_on_c, 0, 56, 55
3, 146176, Note_off_c, 0, 56, 55
3, 146176, Note_on_c, 0, 53, 55
3, 146304, Note_off_c, 0, 53, 55
3, 146304, Note_on_c, 0, 56, 55
3, 146432, Note_off_c, 0, 56, 55
3, 146432, Note_on_c, 0, 55, 55
3, 146560, Note_off_c, 0, 55, 55
3, 146560, Note_on_c, 0, 58, 55
3, 146688, Note_off_c, 0, 58, 55
3, 146688, Note_on_c, 0, 55, 55
3, 146816, Note_off_c, 0, 55, 55
3, 146816, Note_on_c, 0, 58, 55
3, 146944, Note_off_c, 0, 58, 55
3, 146944, Note_on_c, 0, 55, 55
3, 147072, Note_off_c, 0, 55, 55
3, 147072, Note_on_c, 0, 58, 55
3, 147200, Note_off_c, 0, 58, 55
3, 147200, Note_on_c, 0, 55, 55
3, 147328, Note_off_c, 0, 55, 55
3, 147328, Note_on_c, 0, 58, 55
3, 147456, Note_off_c, 0, 58, 55
3, 147456, Note_on_c, 0, 51, 55
3, 147584, Note_off_c, 0, 51, 55
3, 147584, Note_on_c, 0, 55, 55
3, 147712, Note_off_c, 0, 55, 55
3, 147712, Note_on_c, 0, 51, 55
3, 147840, Note_off_c, 0, 51, 55
3, 147840, Note_on_c, 0, 55, 55
3, 147968, Note_off_c, 0, 55, 55
3, 147968, Note_on_c, 0, 51, 55
3, 148096, Note_off_c, 0, 51, 55
3, 148096, Note_on_c, 0, 55, 55
3, 148224, Note_off_c, 0, 55, 55
3, 148224, Note_on_c, 0, 56, 55
3, 148352, Note_off_c, 0, 56, 55
3, 148352, Note_on_c, 0, 55, 55
3, 148480, Note_off_c, 0, 55, 55
3, 148480, Note_on_c, 0, 53, 55
3, 148608, Note_off_c, 0, 53, 55
3, 148608, Note_on_c, 0, 58, 55
3, 148736, Note_off_c, 0, 58, 55
3, 148736, Note_on_c, 0, 53, 55
3, 148864, Note_off_c, 0, 53, 55
3, 148864, Note_on_c, 0, 58, 55
3, 148992, Note_off_c, 0, 58, 55
3, 148992, Note_on_c, 0, 53, 55
3, 149120, Note_off_c, 0, 53, 55
3, 149120, Note_on_c, 0, 58, 55
3, 149248, Note_off_c, 0, 58, 55
3, 149248, Note_on_c, 0, 53, 55
3, 149376, Note_off_c, 0, 53, 55
3, 149376, Note_on_c, 0, 58, 55
3, 149504, Note_off_c, 0, 58, 55
3, 149504, Note_on_c, 0, 53, 55
3, 149632, Note_off_c, 0, 53, 55
3, 149632, Note_on_c, 0, 58, 55
3, 149760, Note_off_c, 0, 58, 55
3, 149760, Note_on_c, 0, 53, 55
3, 149888, Note_off_c, 0, 53, 55
3, 149888, Note_on_c, 0, 58, 55
3, 150016, Note_off_c, 0, 58, 55
3, 150016, Note_on_c, 0, 53, 55
3, 150144, Note_off_c, 0, 53, 55
3, 150144, Note_on_c, 0, 58, 55
3, 150272, Note_off_c, 0, 58, 55
3, 150272, Note_on_c, 0, 56, 55
3, 150400, Note_off_c, 0, 56, 55
3, 150400, Note_on_c, 0, 58, 55
3, 150528, Note_off_c, 0, 58, 55
3, 150528, Note_on_c, 0, 55, 55
3, 150656, Note_off_c, 0, 55, 55
3, 150656, Note_on_c, 0, 58, 55
3, 150784, Note_off_c, 0, 58, 55
3, 150784, Note_on_c, 0, 55, 55
3, 150912, Note_off_c, 0, 55, 55
3, 150912, Note_on_c, 0, 58, 55
3, 151040, Note_off_c, 0, 58, 55
3, 151040, Note_on_c, 0, 55, 55
3, 151168, Note_off_c, 0, 55, 55
3, 151168, Note_on_c, 0, 58, 55
3, 151296, Note_off_c, 0, 58, 55
3, 151296, Note_on_c, 0, 56, 55
3, 151424, Note_off_c, 0, 56, 55
3, 151424, Note_on_c, 0, 58, 55
3, 151552, Note_off_c, 0, 58, 55
3, 151552, Note_on_c, 0, 51, 55
3, 151680, Note_off_c, 0, 51, 55
3, 151680, Note_on_c, 0, 55, 55
3, 151808, Note_off_c, 0, 55, 55
3, 151808, Note_on_c, 0, 51, 55
3, 151936, Note_off_c, 0, 51, 55
3, 151936, Note_on_c, 0, 55, 55
3, 152064, Note_off_c, 0, 55, 55
3, 152064, Note_on_c, 0, 51, 55
3, 152192, Note_off_c, 0, 51, 55
3, 152192, Note_on_c, 0, 55, 55
3, 152320, Note_off_c, 0, 55, 55
3, 152320, Note_on_c, 0, 56, 55
3, 152448, Note_off_c, 0, 56, 55
3, 152448, Note_on_c, 0, 55, 55
3, 152576, Note_off_c, 0, 55, 55
3, 152576, Note_on_c, 0, 53, 55
3, 152704, Note_off_c, 0, 53, 55
3, 152704, Note_on_c, 0, 58, 55
3, 152832, Note_off_c, 0, 58, 55
3, 152832, Note_on_c, 0, 53, 55
3, 152960, Note_off_c, 0, 53, 55
3, 152960, Note_on_c, 0, 58, 55
3, 153088, Note_off_c, 0, 58, 55
3, 153088, Note_on_c, 0, 53, 55
3, 153216, Note_off_c, 0, 53, 55
3, 153216, Note_on_c, 0, 58, 55
3, 153344, Note_off_c, 0, 58, 55
3, 153344, Note_on_c, 0, 53, 55
3, 153472, Note_off_c, 0, 53, 55
3, 153472, Note_on_c, 0, 58, 55
3, 153600, Note_off_c, 0, 58, 55
3, 153600, Note_on_c, 0, 53, 55
3, 153728, Note_off_c, 0, 53, 55
3, 153728, Note_on_c, 0, 58, 55
3, 153856, Note_off_c, 0, 58, 55
3, 153856, Note_on_c, 0, 53, 55
3, 153984, Note_off_c, 0, 53, 55
3, 153984, Note_on_c, 0, 58, 55
3, 154112, Note_off_c, 0, 58, 55
3, 154112, Note_on_c, 0, 53, 55
3, 154240, Note_off_c, 0, 53, 55
3, 154240, Note_on_c, 0, 58, 55
3, 154368, Note_off_c, 0, 58, 55
3, 154368, Note_on_c, 0, 56, 55
3, 154496, Note_off_c, 0, 56, 55
3, 154496, Note_on_c, 0, 58, 55
3, 154624, Note_off_c, 0, 58, 55
3, 154624, Note_on_c, 0, 51, 55
3, 154752, Note_off_c, 0, 51, 55
3, 154752, Note_on_c, 0, 55, 55
3, 154880, Note_off_c, 0, 55, 55
3, 154880, Note_on_c, 0, 51, 55
3, 155008, Note_off_c, 0, 51, 55
3, 155008, Note_on_c, 0, 55, 55
3, 155136, Note_off_c, 0, 55, 55
3, 155136, Note_on_c, 0, 51, 55
3, 155264, Note_off_c, 0, 51, 55
3, 155264, Note_on_c, 0, 58, 55
3, 155392, Note_off_c, 0, 58, 55
3, 155392, Note_on_c, 0, 56, 55
3, 155520, Note_off_c, 0, 56, 55
3, 155520, Note_on_c, 0, 55, 55
3, 155648, Note_off_c, 0, 55, 55
3, 155648, Note_on_c, 0, 55, 55
3, 155648, Note_on_c, 0, 67, 55
3, 155776, Note_off_c, 0, 55, 55
3, 155776, Note_off_c, 0, 67, 55
3, 155776, Note_on_c, 0, 58, 55
3, 155776, Note_on_c, 0, 65, 55
3, 155904, Note_off_c, 0, 58, 55
3, 155904, Note_off_c, 0, 65, 55
3, 155904, Note_on_c, 0, 55, 55
3, 155904, Note_on_c, 0, 63, 55
3, 156032, Note_off_c, 0, 55, 55
3, 156032, Note_off_c, 0, 63, 55
3, 156032, Note_on_c, 0, 58, 55
3, 156160, Note_off_c, 0, 58, 55
3, 156160, Note_on_c, 0, 55, 55
3, 156160, Note_on_c, 0, 65, 55
3, 156288, Note_off_c, 0, 55, 55
3, 156288, Note_off_c, 0, 65, 55
3, 156288, Note_on_c, 0, 58, 55
3, 156288, Note_on_c, 0, 67, 55
3, 156416, Note_off_c, 0, 58, 55
3, 156416, Note_off_c, 0, 67, 55
3, 156416, Note_on_c, 0, 55, 55
3, 156544, Note_off_c, 0, 55, 55
3, 156544, Note_on_c, 0, 58, 55
3, 156672, Note_off_c, 0, 58, 55
3, 156672, Note_on_c, 0, 56, 55
3, 156800, Note_off_c, 0, 56, 55
3, 156800, Note_on_c, 0, 60, 55
3, 156928, Note_off_c, 0, 60, 55
3, 156928, Note_on_c, 0, 56, 55
3, 157056, Note_off_c, 0, 56, 55
3, 157056, Note_on_c, 0, 60, 55
3, 157184, Note_off_c, 0, 60, 55
3, 157184, Note_on_c, 0, 56, 55
3, 157312, Note_off_c, 0, 56, 55
3, 157312, Note_on_c, 0, 60, 55
3, 157440, Note_off_c, 0, 60, 55
3, 157440, Note_on_c, 0, 56, 55
3, 157568, Note_off_c, 0, 56, 55
3, 157568, Note_on_c, 0, 60, 55
3, 157696, Note_off_c, 0, 60, 55
3, 157696, Note_on_c, 0, 53, 55
3, 157824, Note_off_c, 0, 53, 55
3, 157824, Note_on_c, 0, 56, 55
3, 157952, Note_off_c, 0, 56, 55
3, 157952, Note_on_c, 0, 53, 55
3, 158080, Note_off_c, 0, 53, 55
3, 158080, Note_on_c, 0, 56, 55
3, 158208, Note_off_c, 0, 56, 55
3, 158208, Note_on_c, 0, 53, 55
3, 158208, Note_on_c, 0, 62, 55
3, 158336, Note_off_c, 0, 53, 55
3, 158336, Note_off_c, 0, 62, 55
3, 158336, Note_on_c, 0, 56, 55
3, 158336, Note_on_c, 0, 63, 55
3, 158464, Note_off_c, 0, 56, 55
3, 158464, Note_off_c, 0, 63, 55
3, 158464, Note_on_c, 0, 53, 55
3, 158592, Note_off_c, 0, 53, 55
3, 158592, Note_on_c, 0, 56, 55
3, 158720, Note_off_c, 0, 56, 55
3, 158720, Note_on_c, 0, 55, 55
3, 158848, Note_off_c, 0, 55, 55
3, 158848, Note_on_c, 0, 58, 55
3, 158976, Note_off_c, 0, 58, 55
3, 158976, Note_on_c, 0, 55, 55
3, 159104, Note_off_c, 0, 55, 55
3, 159104, Note_on_c, 0, 58, 55
3, 159232, Note_off_c, 0, 58, 55
3, 159232, Note_on_c, 0, 55, 55
3, 159360, Note_off_c, 0, 55, 55
3, 159360, Note_on_c, 0, 58, 55
3, 159488, Note_off_c, 0, 58, 55
3, 159488, Note_on_c, 0, 55, 55
3, 159616, Note_off_c, 0, 55, 55
3, 159616, Note_on_c, 0, 58, 55
3, 159744, Note_off_c, 0, 58, 55
3, 159744, Note_on_c, 0, 55, 55
3, 159872, Note_off_c, 0, 55, 55
3, 159872, Note_on_c, 0, 58, 55
3, 160000, Note_off_c, 0, 58, 55
3, 160000, Note_on_c, 0, 55, 55
3, 160128, Note_off_c, 0, 55, 55
3, 160128, Note_on_c, 0, 58, 55
3, 160256, Note_off_c, 0, 58, 55
3, 160256, Note_on_c, 0, 55, 55
3, 160384, Note_off_c, 0, 55, 55
3, 160384, Note_on_c, 0, 58, 55
3, 160512, Note_off_c, 0, 58, 55
3, 160512, Note_on_c, 0, 55, 55
3, 160640, Note_off_c, 0, 55, 55
3, 160640, Note_on_c, 0, 58, 55
3, 160768, Note_off_c, 0, 58, 55
3, 160768, Note_on_c, 0, 56, 55
3, 160896, Note_off_c, 0, 56, 55
3, 160896, Note_on_c, 0, 60, 55
3, 161024, Note_off_c, 0, 60, 55
3, 161024, Note_on_c, 0, 56, 55
3, 161152, Note_off_c, 0, 56, 55
3, 161152, Note_on_c, 0, 60, 55
3, 161280, Note_off_c, 0, 60, 55
3, 161280, Note_on_c, 0, 56, 55
3, 161408, Note_off_c, 0, 56, 55
3, 161408, Note_on_c, 0, 60, 55
3, 161536, Note_off_c, 0, 60, 55
3, 161536, Note_on_c, 0, 56, 55
3, 161664, Note_off_c, 0, 56, 55
3, 161664, Note_on_c, 0, 60, 55
3, 161792, Note_off_c, 0, 60, 55
3, 161792, Note_on_c, 0, 53, 55
3, 161920, Note_off_c, 0, 53, 55
3, 161920, Note_on_c, 0, 56, 55
3, 162048, Note_off_c, 0, 56, 55
3, 162048, Note_on_c, 0, 53, 55
3, 162176, Note_off_c, 0, 53, 55
3, 162176, Note_on_c, 0, 56, 55
3, 162304, Note_off_c, 0, 56, 55
3, 162304, Note_on_c, 0, 53, 55
3, 162432, Note_off_c, 0, 53, 55
3, 162432, Note_on_c, 0, 56, 55
3, 162560, Note_off_c, 0, 56, 55
3, 162560, Note_on_c, 0, 53, 55
3, 162688, Note_off_c, 0, 53, 55
3, 162688, Note_on_c, 0, 56, 55
3, 162816, Note_off_c, 0, 56, 55
3, 162816, Note_on_c, 0, 55, 55
3, 162944, Note_off_c, 0, 55, 55
3, 162944, Note_on_c, 0, 58, 55
3, 163072, Note_off_c, 0, 58, 55
3, 163072, Note_on_c, 0, 55, 55
3, 163200, Note_off_c, 0, 55, 55
3, 163200, Note_on_c, 0, 58, 55
3, 163328, Note_off_c, 0, 58, 55
3, 163328, Note_on_c, 0, 55, 55
3, 163456, Note_off_c, 0, 55, 55
3, 163456, Note_on_c, 0, 58, 55
3, 163584, Note_off_c, 0, 58, 55
3, 163584, Note_on_c, 0, 55, 55
3, 163712, Note_off_c, 0, 55, 55
3, 163712, Note_on_c, 0, 58, 55
3, 163840, Note_off_c, 0, 58, 55
3, 163840, Note_on_c, 0, 51, 55
3, 163968, Note_off_c, 0, 51, 55
3, 163968, Note_on_c, 0, 55, 55
3, 164096, Note_off_c, 0, 55, 55
3, 164096, Note_on_c, 0, 51, 55
3, 164224, Note_off_c, 0, 51, 55
3, 164224, Note_on_c, 0, 55, 55
3, 164352, Note_off_c, 0, 55, 55
3, 164352, Note_on_c, 0, 51, 55
3, 164480, Note_off_c, 0, 51, 55
3, 164480, Note_on_c, 0, 55, 55
3, 164608, Note_off_c, 0, 55, 55
3, 164608, Note_on_c, 0, 56, 55
3, 164736, Note_off_c, 0, 56, 55
3, 164736, Note_on_c, 0, 55, 55
3, 164864, Note_off_c, 0, 55, 55
3, 164864, Note_on_c, 0, 53, 55
3, 164992, Note_off_c, 0, 53, 55
3, 164992, Note_on_c, 0, 58, 55
3, 165120, Note_off_c, 0, 58, 55
3, 165120, Note_on_c, 0, 53, 55
3, 165248, Note_off_c, 0, 53, 55
3, 165248, Note_on_c, 0, 58, 55
3, 165376, Note_off_c, 0, 58, 55
3, 165376, Note_on_c, 0, 53, 55
3, 165504, Note_off_c, 0, 53, 55
3, 165504, Note_on_c, 0, 58, 55
3, 165632, Note_off_c, 0, 58, 55
3, 165632, Note_on_c, 0, 53, 55
3, 165760, Note_off_c, 0, 53, 55
3, 165760, Note_on_c, 0, 58, 55
3, 165888, Note_off_c, 0, 58, 55
3, 165888, Note_on_c, 0, 53, 55
3, 166016, Note_off_c, 0, 53, 55
3, 166016, Note_on_c, 0, 58, 55
3, 166144, Note_off_c, 0, 58, 55
3, 166144, Note_on_c, 0, 53, 55
3, 166272, Note_off_c, 0, 53, 55
3, 166272, Note_on_c, 0, 58, 55
3, 166400, Note_off_c, 0, 58, 55
3, 166400, Note_on_c, 0, 53, 55
3, 166528, Note_off_c, 0, 53, 55
3, 166528, Note_on_c, 0, 58, 55
3, 166656, Note_off_c, 0, 58, 55
3, 166656, Note_on_c, 0, 56, 55
3, 166784, Note_off_c, 0, 56, 55
3, 166784, Note_on_c, 0, 58, 55
3, 166912, Note_off_c, 0, 58, 55
3, 166912, Note_on_c, 0, 55, 55
3, 167040, Note_off_c, 0, 55, 55
3, 167040, Note_on_c, 0, 58, 55
3, 167168, Note_off_c, 0, 58, 55
3, 167168, Note_on_c, 0, 55, 55
3, 167296, Note_off_c, 0, 55, 55
3, 167296, Note_on_c, 0, 58, 55
3, 167424, Note_off_c, 0, 58, 55
3, 167424, Note_on_c, 0, 55, 55
3, 167552, Note_off_c, 0, 55, 55
3, 167552, Note_on_c, 0, 58, 55
3, 167680, Note_off_c, 0, 58, 55
3, 167680, Note_on_c, 0, 56, 55
3, 167808, Note_off_c, 0, 56, 55
3, 167808, Note_on_c, 0, 58, 55
3, 167936, Note_off_c, 0, 58, 55
3, 167936, Note_on_c, 0, 51, 55
3, 168064, Note_off_c, 0, 51, 55
3, 168064, Note_on_c, 0, 55, 55
3, 168192, Note_off_c, 0, 55, 55
3, 168192, Note_on_c, 0, 51, 55
3, 168320, Note_off_c, 0, 51, 55
3, 168320, Note_on_c, 0, 55, 55
3, 168448, Note_off_c, 0, 55, 55
3, 168448, Note_on_c, 0, 51, 55
3, 168576, Note_off_c, 0, 51, 55
3, 168576, Note_on_c, 0, 55, 55
3, 168704, Note_off_c, 0, 55, 55
3, 168704, Note_on_c, 0, 56, 55
3, 168832, Note_off_c, 0, 56, 55
3, 168832, Note_on_c, 0, 55, 55
3, 168960, Note_off_c, 0, 55, 55
3, 168960, Note_on_c, 0, 53, 55
3, 169088, Note_off_c, 0, 53, 55
3, 169088, Note_on_c, 0, 58, 55
3, 169216, Note_off_c, 0, 58, 55
3, 169216, Note_on_c, 0, 53, 55
3, 169344, Note_off_c, 0, 53, 55
3, 169344, Note_on_c, 0, 58, 55
3, 169472, Note_off_c, 0, 58, 55
3, 169472, Note_on_c, 0, 53, 55
3, 169600, Note_off_c, 0, 53, 55
3, 169600, Note_on_c, 0, 58, 55
3, 169728, Note_off_c, 0, 58, 55
3, 169728, Note_on_c, 0, 53, 55
3, 169856, Note_off_c, 0, 53, 55
3, 169856, Note_on_c, 0, 58, 55
3, 169984, Note_off_c, 0, 58, 55
3, 169984, Note_on_c, 0, 53, 55
3, 170112, Note_off_c, 0, 53, 55
3, 170112, Note_on_c, 0, 58, 55
3, 170240, Note_off_c, 0, 58, 55
3, 170240, Note_on_c, 0, 53, 55
3, 170368, Note_off_c, 0, 53, 55
3, 170368, Note_on_c, 0, 58, 55
3, 170496, Note_off_c, 0, 58, 55
3, 170496, Note_on_c, 0, 53, 55
3, 170624, Note_off_c, 0, 53, 55
3, 170624, Note_on_c, 0, 58, 55
3, 170752, Note_off_c, 0, 58, 55
3, 170752, Note_on_c, 0, 56, 55
3, 170880, Note_off_c, 0, 56, 55
3, 170880, Note_on_c, 0, 58, 55
3, 171008, Note_off_c, 0, 58, 55
3, 171008, Note_on_c, 0, 51, 55
3, 171136, Note_off_c, 0, 51, 55
3, 171136, Note_on_c, 0, 55, 55
3, 171264, Note_off_c, 0, 55, 55
3, 171264, Note_on_c, 0, 51, 55
3, 171392, Note_off_c, 0, 51, 55
3, 171392, Note_on_c, 0, 55, 55
3, 171520, Note_off_c, 0, 55, 55
3, 171520, Note_on_c, 0, 51, 55
3, 171648, Note_off_c, 0, 51, 55
3, 171648, Note_on_c, 0, 58, 55
3, 171776, Note_off_c, 0, 58, 55
3, 171776, Note_on_c, 0, 56, 55
3, 171904, Note_off_c, 0, 56, 55
3, 171904, Note_on_c, 0, 55, 55
3, 172032, Note_off_c, 0, 55, 55
3, 172032, Note_on_c, 0, 55, 55
3, 172032, Note_on_c, 0, 67, 55
3, 172160, Note_off_c, 0, 55, 55
3, 172160, Note_off_c, 0, 67, 55
3, 172160, Note_on_c, 0, 58, 55
3, 172160, Note_on_c, 0, 65, 55
3, 172288, Note_off_c, 0, 58, 55
3, 172288, Note_off_c, 0, 65, 55
3, 172288, Note_on_c, 0, 55, 55
3, 172288, Note_on_c, 0, 63, 55
3, 172416, Note_off_c, 0, 55, 55
3, 172416, Note_off_c, 0, 63, 55
3, 172416, Note_on_c, 0, 58, 55
3, 172544, Note_off_c, 0, 58, 55
3, 172544, Note_on_c, 0, 55, 55
3, 172544, Note_on_c, 0, 65, 55
3, 172672, Note_off_c, 0, 55, 55
3, 172672, Note_off_c, 0, 65, 55
3, 172672, Note_on_c, 0, 58, 55
3, 172672, Note_on_c, 0, 67, 55
3, 172800, Note_off_c, 0, 58, 55
3, 172800, Note_off_c, 0, 67, 55
3, 172800, Note_on_c, 0, 55, 55
3, 172928, Note_off_c, 0, 55, 55
3, 172928, Note_on_c, 0, 58, 55
3, 173056, Note_off_c, 0, 58, 55
3, 173056, Note_on_c, 0, 56, 55
3, 173184, Note_off_c, 0, 56, 55
3, 173184, Note_on_c, 0, 60, 55
3, 173312, Note_off_c, 0, 60, 55
3, 173312, Note_on_c, 0, 56, 55
3, 173440, Note_off_c, 0, 56, 55
3, 173440, Note_on_c, 0, 60, 55
3, 173568, Note_off_c, 0, 60, 55
3, 173568, Note_on_c, 0, 56, 55
3, 173696, Note_off_c, 0, 56, 55
3, 173696, Note_on_c, 0, 60, 55
3, 173824, Note_off_c, 0, 60, 55
3, 173824, Note_on_c, 0, 56, 55
3, 173952, Note_off_c, 0, 56, 55
3, 173952, Note_on_c, 0, 60, 55
3, 174080, Note_off_c, 0, 60, 55
3, 174080, Note_on_c, 0, 53, 55
3, 174208, Note_off_c, 0, 53, 55
3, 174208, Note_on_c, 0, 56, 55
3, 174336, Note_off_c, 0, 56, 55
3, 174336, Note_on_c, 0, 53, 55
3, 174464, Note_off_c, 0, 53, 55
3, 174464, Note_on_c, 0, 56, 55
3, 174592, Note_off_c, 0, 56, 55
3, 174592, Note_on_c, 0, 53, 55
3, 174592, Note_on_c, 0, 62, 55
3, 174720, Note_off_c, 0, 53, 55
3, 174720, Note_off_c, 0, 62, 55
3, 174720, Note_on_c, 0, 56, 55
3, 174720, Note_on_c, 0, 63, 55
3, 174848, Note_off_c, 0, 56, 55
3, 174848, Note_off_c, 0, 63, 55
3, 174848, Note_on_c, 0, 53, 55
3, 174976, Note_off_c, 0, 53, 55
3, 174976, Note_on_c, 0, 56, 55
3, 175104, Note_off_c, 0, 56, 55
3, 175104, Note_on_c, 0, 55, 55
3, 175232, Note_off_c, 0, 55, 55
3, 175232, Note_on_c, 0, 58, 55
3, 175360, Note_off_c, 0, 58, 55
3, 175360, Note_on_c, 0, 55, 55
3, 175488, Note_off_c, 0, 55, 55
3, 175488, Note_on_c, 0, 58, 55
3, 175616, Note_off_c, 0, 58, 55
3, 175616, Note_on_c, 0, 55, 55
3, 175744, Note_off_c, 0, 55, 55
3, 175744, Note_on_c, 0, 58, 55
3, 175872, Note_off_c, 0, 58, 55
3, 175872, Note_on_c, 0, 55, 55
3, 176000, Note_off_c, 0, 55, 55
3, 176000, Note_on_c, 0, 58, 55
3, 176128, Note_off_c, 0, 58, 55
3, 176128, Note_on_c, 0, 55, 55
3, 176256, Note_off_c, 0, 55, 55
3, 176256, Note_on_c, 0, 58, 55
3, 176384, Note_off_c, 0, 58, 55
3, 176384, Note_on_c, 0, 55, 55
3, 176512, Note_off_c, 0, 55, 55
3, 176512, Note_on_c, 0, 58, 55
3, 176640, Note_off_c, 0, 58, 55
3, 176640, Note_on_c, 0, 55, 55
3, 176768, Note_off_c, 0, 55, 55
3, 176768, Note_on_c, 0, 58, 55
3, 176896, Note_off_c, 0, 58, 55
3, 176896, Note_on_c, 0, 55, 55
3, 177024, Note_off_c, 0, 55, 55
3, 177024, Note_on_c, 0, 58, 55
3, 177152, Note_off_c, 0, 58, 55
3, 177152, Note_on_c, 0, 56, 55
3, 177280, Note_off_c, 0, 56, 55
3, 177280, Note_on_c, 0, 60, 55
3, 177408, Note_off_c, 0, 60, 55
3, 177408, Note_on_c, 0, 56, 55
3, 177536, Note_off_c, 0, 56, 55
3, 177536, Note_on_c, 0, 60, 55
3, 177664, Note_off_c, 0, 60, 55
3, 177664, Note_on_c, 0, 56, 55
3, 177792, Note_off_c, 0, 56, 55
3, 177792, Note_on_c, 0, 60, 55
3, 177920, Note_off_c, 0, 60, 55
3, 177920, Note_on_c, 0, 56, 55
3, 178048, Note_off_c, 0, 56, 55
3, 178048, Note_on_c, 0, 60, 55
3, 178176, Note_off_c, 0, 60, 55
3, 178176, Note_on_c, 0, 53, 55
3, 178304, Note_off_c, 0, 53, 55
3, 178304, Note_on_c, 0, 56, 55
3, 178432, Note_off_c, 0, 56, 55
3, 178432, Note_on_c, 0, 53, 55
3, 178560, Note_off_c, 0, 53, 55
3, 178560, Note_on_c, 0, 56, 55
3, 178688, Note_off_c, 0, 56, 55
3, 178688, Note_on_c, 0, 53, 55
3, 178816, Note_off_c, 0, 53, 55
3, 178816, Note_on_c, 0, 56, 55
3, 178944, Note_off_c, 0, 56, 55
3, 178944, Note_on_c, 0, 53, 55
3, 179072, Note_off_c, 0, 53, 55
3, 179072, Note_on_c, 0, 56, 55
3, 179200, Note_off_c, 0, 56, 55
3, 179200, Note_on_c, 0, 55, 55
3, 179328, Note_off_c, 0, 55, 55
3, 179328, Note_on_c, 0, 58, 55
3, 179456, Note_off_c, 0, 58, 55
3, 179456, Note_on_c, 0, 55, 55
3, 179584, Note_off_c, 0, 55, 55
3, 179584, Note_on_c, 0, 58, 55
3, 179712, Note_off_c, 0, 58, 55
3, 179712, Note_on_c, 0, 55, 55
3, 179840, Note_off_c, 0, 55, 55
3, 179840, Note_on_c, 0, 58, 55
3, 179968, Note_off_c, 0, 58, 55
3, 179968, Note_on_c, 0, 55, 55
3, 180096, Note_off_c, 0, 55, 55
3, 180096, Note_on_c, 0, 58, 55
3, 180224, Note_off_c, 0, 58, 55
3, 180224, Note_on_c, 0, 51, 55
3, 180352, Note_off_c, 0, 51, 55
3, 180352, Note_on_c, 0, 55, 55
3, 180480, Note_off_c, 0, 55, 55
3, 180480, Note_on_c, 0, 51, 55
3, 180608, Note_off_c, 0, 51, 55
3, 180608, Note_on_c, 0, 55, 55
3, 180736, Note_off_c, 0, 55, 55
3, 180736, Note_on_c, 0, 51, 55
3, 180864, Note_off_c, 0, 51, 55
3, 180864, Note_on_c, 0, 55, 55
3, 180992, Note_off_c, 0, 55, 55
3, 180992, Note_on_c, 0, 56, 55
3, 181120, Note_off_c, 0, 56, 55
3, 181120, Note_on_c, 0, 55, 55
3, 181248, Note_off_c, 0, 55, 55
3, 181248, Note_on_c, 0, 53, 55
3, 181376, Note_off_c, 0, 53, 55
3, 181376, Note_on_c, 0, 58, 55
3, 181504, Note_off_c, 0, 58, 55
3, 181504, Note_on_c, 0, 53, 55
3, 181632, Note_off_c, 0, 53, 55
3, 181632, Note_on_c, 0, 58, 55
3, 181760, Note_off_c, 0, 58, 55
3, 181760, Note_on_c, 0, 53, 55
3, 181888, Note_off_c, 0, 53, 55
3, 181888, Note_on_c, 0, 58, 55
3, 182016, Note_off_c, 0, 58, 55
3, 182016, Note_on_c, 0, 53, 55
3, 182144, Note_off_c, 0, 53, 55
3, 182144, Note_on_c, 0, 58, 55
3, 182272, Note_off_c, 0, 58, 55
3, 182272, Note_on_c, 0, 53, 55
3, 182400, Note_off_c, 0, 53, 55
3, 182400, Note_on_c, 0, 58, 55
3, 182528, Note_off_c, 0, 58, 55
3, 182528, Note_on_c, 0, 53, 55
3, 182656, Note_off_c, 0, 53, 55
3, 182656, Note_on_c, 0, 58, 55
3, 182784, Note_off_c, 0, 58, 55
3, 182784, Note_on_c, 0, 53, 55
3, 182912, Note_off_c, 0, 53, 55
3, 182912, Note_on_c, 0, 58, 55
3, 183040, Note_off_c, 0, 58, 55
3, 183040, Note_on_c, 0, 56, 55
3, 183168, Note_off_c, 0, 56, 55
3, 183168, Note_on_c, 0, 58, 55
3, 183296, Note_off_c, 0, 58, 55
3, 183296, Note_on_c, 0, 55, 55
3, 183424, Note_off_c, 0, 55, 55
3, 183424, Note_on_c, 0, 58, 55
3, 183552, Note_off_c, 0, 58, 55
3, 183552, Note_on_c, 0, 55, 55
3, 183680, Note_off_c, 0, 55, 55
3, 183680, Note_on_c, 0, 58, 55
3, 183808, Note_off_c, 0, 58, 55
3, 183808, Note_on_c, 0, 55, 55
3, 183936, Note_off_c, 0, 55, 55
3, 183936, Note_on_c, 0, 58, 55
3, 184064, Note_off_c, 0, 58, 55
3, 184064, Note_on_c, 0, 56, 55
3, 184192, Note_off_c, 0, 56, 55
3, 184192, Note_on_c, 0, 58, 55
3, 184320, Note_off_c, 0, 58, 55
3, 184320, Note_on_c, 0, 51, 55
3, 184448, Note_off_c, 0, 51, 55
3, 184448, Note_on_c, 0, 55, 55
3, 184576, Note_off_c, 0, 55, 55
3, 184576, Note_on_c, 0, 51, 55
3, 184704, Note_off_c, 0, 51, 55
3, 184704, Note_on_c, 0, 55, 55
3, 184832, Note_off_c, 0, 55, 55
3, 184832, Note_on_c, 0, 51, 55
3, 184960, Note_off_c, 0, 51, 55
3, 184960, Note_on_c, 0, 55, 55
3, 185088, Note_off_c, 0, 55, 55
3, 185088, Note_on_c, 0, 56, 55
3, 185216, Note_off_c, 0, 56, 55
3, 185216, Note_on_c, 0, 55, 55
3, 185344, Note_off_c, 0, 55, 55
3, 185344, Note_on_c, 0, 53, 55
3, 185472, Note_off_c, 0, 53, 55
3, 185472, Note_on_c, 0, 58, 55
3, 185600, Note_off_c, 0, 58, 55
3, 185600, Note_on_c, 0, 53, 55
3, 185728, Note_off_c, 0, 53, 55
3, 185728, Note_on_c, 0, 58, 55
3, 185856, Note_off_c, 0, 58, 55
3, 185856, Note_on_c, 0, 53, 55
3, 185984, Note_off_c, 0, 53, 55
3, 185984, Note_on_c, 0, 58, 55
3, 186112, Note_off_c, 0, 58, 55
3, 186112, Note_on_c, 0, 53, 55
3, 186240, Note_off_c, 0, 53, 55
3, 186240, Note_on_c, 0, 58, 55
3, 186368, Note_off_c, 0, 58, 55
3, 186368, Note_on_c, 0, 53, 55
3, 186496, Note_off_c, 0, 53, 55
3, 186496, Note_on_c, 0, 58, 55
3, 186624, Note_off_c, 0, 58, 55
3, 186624, Note_on_c, 0, 53, 55
3, 186752, Note_off_c, 0, 53, 55
3, 186752, Note_on_c, 0, 58, 55
3, 186880, Note_off_c, 0, 58, 55
3, 186880, Note_on_c, 0, 53, 55
3, 187008, Note_off_c, 0, 53, 55
3, 187008, Note_on_c, 0, 58, 55
3, 187136, Note_off_c, 0, 58, 55
3, 187136, Note_on_c, 0, 56, 55
3, 187264, Note_off_c, 0, 56, 55
3, 187264, Note_on_c, 0, 58, 55
3, 187392, Note_off_c, 0, 58, 55
3, 187392, Note_on_c, 0, 51, 55
3, 187520, Note_off_c, 0, 51, 55
3, 187520, Note_on_c, 0, 55, 55
3, 187648, Note_off_c, 0, 55, 55
3, 187648, Note_on_c, 0, 51, 55
3, 187776, Note_off_c, 0, 51, 55
3, 187776, Note_on_c, 0, 55, 55
3, 187904, Note_off_c, 0, 55, 55
3, 187904, Note_on_c, 0, 51, 55
3, 188032, Note_off_c, 0, 51, 55
3, 188032, Note_on_c, 0, 58, 55
3, 188160, Note_off_c, 0, 58, 55
3, 188160, Note_on_c, 0, 56, 55
3, 188288, Note_off_c, 0, 56, 55
3, 188288, Note_on_c, 0, 55, 55
3, 188416, Note_off_c, 0, 55, 55
3, 188416, Note_on_c, 0, 55, 55
3, 188416, Note_on_c, 0, 67, 55
3, 188544, Note_off_c, 0, 55, 55
3, 188544, Note_off_c, 0, 67, 55
3, 188544, Note_on_c, 0, 58, 55
3, 188544, Note_on_c, 0, 65, 55
3, 188672, Note_off_c, 0, 58, 55
3, 188672, Note_off_c, 0, 65, 55
3, 188672, Note_on_c, 0, 55, 55
3, 188672, Note_on_c, 0, 63, 55
3, 188800, Note_off_c, 0, 55, 55
3, 188800, Note_off_c, 0, 63, 55
3, 188800, Note_on_c, 0, 58, 55
3, 188928, Note_off_c, 0, 58, 55
3, 188928, Note_on_c, 0, 55, 55
3, 188928, Note_on_c, 0, 65, 55
3, 189056, Note_off_c, 0, 55, 55
3, 189056, Note_off_c, 0, 65, 55
3, 189056, Note_on_c, 0, 58, 55
3, 189056, Note_on_c, 0, 67, 55
3, 189184, Note_off_c, 0, 58, 55
3, 189184, Note_off_c, 0, 67, 55
3, 189184, Note_on_c, 0, 55, 55
3, 189312, Note_off_c, 0, 55, 55
3, 189312, Note_on_c, 0, 58, 55
3, 189440, Note_off_c, 0, 58, 55
3, 189440, Note_on_c, 0, 56, 55
3, 189568, Note_off_c, 0, 56, 55
3, 189568, Note_on_c, 0, 60, 55
3, 189696, Note_off_c, 0, 60, 55
3, 189696, Note_on_c, 0, 56, 55
3, 189824, Note_off_c, 0, 56, 55
3, 189824, Note_on_c, 0, 60, 55
3, 189952, Note_off_c, 0, 60, 55
3, 189952, Note_on_c, 0, 56, 55
3, 190080, Note_off_c, 0, 56, 55
3, 190080, Note_on_c, 0, 60, 55
3, 190208, Note_off_c, 0, 60, 55
3, 190208, Note_on_c, 0, 56, 55
3, 190336, Note_off_c, 0, 56, 55
3, 190336, Note_on_c, 0, 60, 55
3, 190464, Note_off_c, 0, 60, 55
3, 190464, Note_on_c, 0, 53, 55
3, 190592, Note_off_c, 0, 53, 55
3, 190592, Note_on_c, 0, 56, 55
3, 190720, Note_off_c, 0, 56, 55
3, 190720, Note_on_c, 0, 53, 55
3, 190848, Note_off_c, 0, 53, 55
3, 190848, Note_on_c, 0, 56, 55
3, 190976, Note_off_c, 0, 56, 55
3, 190976, Note_on_c, 0, 53, 55
3, 190976, Note_on_c, 0, 62, 55
3, 191104, Note_off_c, 0, 53, 55
3, 191104, Note_off_c, 0, 62, 55
3, 191104, Note_on_c, 0, 56, 55
3, 191104, Note_on_c, 0, 63, 55
3, 191232, Note_off_c, 0, 56, 55
3, 191232, Note_off_c, 0, 63, 55
3, 191232, Note_on_c, 0, 53, 55
3, 191360, Note_off_c, 0, 53, 55
3, 191360, Note_on_c, 0, 56, 55
3, 191488, Note_off_c, 0, 56, 55
3, 191488, Note_on_c, 0, 55, 55
3, 191616, Note_off_c, 0, 55, 55
3, 191616, Note_on_c, 0, 58, 55
3, 191744, Note_off_c, 0, 58, 55
3, 191744, Note_on_c, 0, 55, 55
3, 191872, Note_off_c, 0, 55, 55
3, 191872, Note_on_c, 0, 58, 55
3, 192000, Note_off_c, 0, 58, 55
3, 192000, Note_on_c, 0, 55, 55
3, 192128, Note_off_c, 0, 55, 55
3, 192128, Note_on_c, 0, 58, 55
3, 192256, Note_off_c, 0, 58, 55
3, 192256, Note_on_c, 0, 55, 55
3, 192384, Note_off_c, 0, 55, 55
3, 192384, Note_on_c, 0, 58, 55
3, 192512, Note_off_c, 0, 58, 55
3, 192512, Note_on_c, 0, 55, 55
3, 192640, Note_off_c, 0, 55, 55
3, 192640, Note_on_c, 0, 58, 55
3, 192768, Note_off_c, 0, 58, 55
3, 192768, Note_on_c, 0, 55, 55
3, 192896, Note_off_c, 0, 55, 55
3, 192896, Note_on_c, 0, 58, 55
3, 193024, Note_off_c, 0, 58, 55
3, 193024, Note_on_c, 0, 55, 55
3, 193152, Note_off_c, 0, 55, 55
3, 193152, Note_on_c, 0, 58, 55
3, 193280, Note_off_c, 0, 58, 55
3, 193280, Note_on_c, 0, 55, 55
3, 193408, Note_off_c, 0, 55, 55
3, 193408, Note_on_c, 0, 58, 55
3, 193536, Note_off_c, 0, 58, 55
3, 193536, Note_on_c, 0, 56, 55
3, 193664, Note_off_c, 0, 56, 55
3, 193664, Note_on_c, 0, 60, 55
3, 193792, Note_off_c, 0, 60, 55
3, 193792, Note_on_c, 0, 56, 55
3, 193920, Note_off_c, 0, 56, 55
3, 193920, Note_on_c, 0, 60, 55
3, 194048, Note_off_c, 0, 60, 55
3, 194048, Note_on_c, 0, 56, 55
3, 194176, Note_off_c, 0, 56, 55
3, 194176, Note_on_c, 0, 60, 55
3, 194304, Note_off_c, 0, 60, 55
3, 194304, Note_on_c, 0, 56, 55
3, 194432, Note_off_c, 0, 56, 55
3, 194432, Note_on_c, 0, 60, 55
3, 194560, Note_off_c, 0, 60, 55
3, 194560, Note_on_c, 0, 53, 55
3, 194688, Note_off_c, 0, 53, 55
3, 194688, Note_on_c, 0, 56, 55
3, 194816, Note_off_c, 0, 56, 55
3, 194816, Note_on_c, 0, 53, 55
3, 194944, Note_off_c, 0, 53, 55
3, 194944, Note_on_c, 0, 56, 55
3, 195072, Note_off_c, 0, 56, 55
3, 195072, Note_on_c, 0, 53, 55
3, 195200, Note_off_c, 0, 53, 55
3, 195200, Note_on_c, 0, 56, 55
3, 195328, Note_off_c, 0, 56, 55
3, 195328, Note_on_c, 0, 53, 55
3, 195456, Note_off_c, 0, 53, 55
3, 195456, Note_on_c, 0, 56, 55
3, 195584, Note_off_c, 0, 56, 55
3, 195584, Note_on_c, 0, 55, 55
3, 195712, Note_off_c, 0, 55, 55
3, 195712, Note_on_c, 0, 58, 55
3, 195840, Note_off_c, 0, 58, 55
3, 195840, Note_on_c, 0, 55, 55
3, 195968, Note_off_c, 0, 55, 55
3, 195968, Note_on_c, 0, 58, 55
3, 196096, Note_off_c, 0, 58, 55
3, 196096, Note_on_c, 0, 55, 55
3, 196224, Note_off_c, 0, 55, 55
3, 196224, Note_on_c, 0, 58, 55
3, 196352, Note_off_c, 0, 58, 55
3, 196352, Note_on_c, 0, 55, 55
3, 196480, Note_off_c, 0, 55, 55
3, 196480, Note_on_c, 0, 58, 55
3, 196608, Note_off_c, 0, 58, 55
3, 196608, Note_on_c, 0, 51, 55
3, 196736, Note_off_c, 0, 51, 55
3, 196736, Note_on_c, 0, 55, 55
3, 196864, Note_off_c, 0, 55, 55
3, 196864, Note_on_c, 0, 51, 55
3, 196992, Note_off_c, 0, 51, 55
3, 196992, Note_on_c, 0, 55, 55
3, 197120, Note_off_c, 0, 55, 55
3, 197120, Note_on_c, 0, 51, 55
3, 197248, Note_off_c, 0, 51, 55
3, 197248, Note_on_c, 0, 55, 55
3, 197376, Note_off_c, 0, 55, 55
3, 197376, Note_on_c, 0, 56, 55
3, 197504, Note_off_c, 0, 56, 55
3, 197504, Note_on_c, 0, 55, 55
3, 197632, Note_off_c, 0, 55, 55
3, 197632, Note_on_c, 0, 53, 55
3, 197760, Note_off_c, 0, 53, 55
3, 197760, Note_on_c, 0, 58, 55
3, 197888, Note_off_c, 0, 58, 55
3, 197888, Note_on_c, 0, 53, 55
3, 198016, Note_off_c, 0, 53, 55
3, 198016, Note_on_c, 0, 58, 55
3, 198144, Note_off_c, 0, 58, 55
3, 198144, Note_on_c, 0, 53, 55
3, 198272, Note_off_c, 0, 53, 55
3, 198272, Note_on_c, 0, 58, 55
3, 198400, Note_off_c, 0, 58, 55
3, 198400, Note_on_c, 0, 53, 55
3, 198528, Note_off_c, 0, 53, 55
3, 198528, Note_on_c, 0, 58, 55
3, 198656, Note_off_c, 0, 58, 55
3, 198656, Note_on_c, 0, 53, 55
3, 198784, Note_off_c, 0, 53, 55
3, 198784, Note_on_c, 0, 58, 55
3, 198912, Note_off_c, 0, 58, 55
3, 198912, Note_on_c, 0, 53, 55
3, 199040, Note_off_c, 0, 53, 55
3, 199040, Note_on_c, 0, 58, 55
3, 199168, Note_off_c, 0, 58, 55
3, 199168, Note_on_c, 0, 53, 55
3, 199296, Note_off_c, 0, 53, 55
3, 199296, Note_on_c, 0, 58, 55
3, 199424, Note_off_c, 0, 58, 55
3, 199424, Note_on_c, 0, 56, 55
3, 199552, Note_off_c, 0, 56, 55
3, 199552, Note_on_c, 0, 58, 55
3, 199680, Note_off_c, 0, 58, 55
3, 199680, Note_on_c, 0, 55, 55
3, 199808, Note_off_c, 0, 55, 55
3, 199808, Note_on_c, 0, 58, 55
3, 199936, Note_off_c, 0, 58, 55
3, 199936, Note_on_c, 0, 55, 55
3, 200064, Note_off_c, 0, 55, 55
3, 200064, Note_on_c, 0, 58, 55
3, 200192, Note_off_c, 0, 58, 55
3, 200192, Note_on_c, 0, 55, 55
3, 200320, Note_off_c, 0, 55, 55
3, 200320, Note_on_c, 0, 58, 55
3, 200448, Note_off_c, 0, 58, 55
3, 200448, Note_on_c, 0, 56, 55
3, 200576, Note_off_c, 0, 56, 55
3, 200576, Note_on_c, 0, 58, 55
3, 200704, Note_off_c, 0, 58, 55
3, 200704, Note_on_c, 0, 51, 55
3, 200832, Note_off_c, 0, 51, 55
3, 200832, Note_on_c, 0, 55, 55
3, 200960, Note_off_c, 0, 55, 55
3, 200960, Note_on_c, 0, 51, 55
3, 201088, Note_off_c, 0, 51, 55
3, 201088, Note_on_c, 0, 55, 55
3, 201216, Note_off_c, 0, 55, 55
3, 201216, Note_on_c, 0, 51, 55
3, 201344, Note_off_c, 0, 51, 55
3, 201344, Note_on_c, 0, 55, 55
3, 201472, Note_off_c, 0, 55, 55
3, 201472, Note_on_c, 0, 56, 55
3, 201600, Note_off_c, 0, 56, 55
3, 201600, Note_on_c, 0, 55, 55
3, 201728, Note_off_c, 0, 55, 55
3, 201728, Note_on_c, 0, 53, 55
3, 201856, Note_off_c, 0, 53, 55
3, 201856, Note_on_c, 0, 58, 55
3, 201984, Note_off_c, 0, 58, 55
3, 201984, Note_on_c, 0, 53, 55
3, 202112, Note_off_c, 0, 53, 55
3, 202112, Note_on_c, 0, 58, 55
3, 202240, Note_off_c, 0, 58, 55
3, 202240, Note_on_c, 0, 53, 55
3, 202368, Note_off_c, 0, 53, 55
3, 202368, Note_on_c, 0, 58, 55
3, 202496, Note_off_c, 0, 58, 55
3, 202496, Note_on_c, 0, 53, 55
3, 202624, Note_off_c, 0, 53, 55
3, 202624, Note_on_c, 0, 58, 55
3, 202752, Note_off_c, 0, 58, 55
3, 202752, Note_on_c, 0, 53, 55
3, 202880, Note_off_c, 0, 53, 55
3, 202880, Note_on_c, 0, 58, 55
3, 203008, Note_off_c, 0, 58, 55
3, 203008, Note_on_c, 0, 53, 55
3, 203136, Note_off_c, 0, 53, 55
3, 203136, Note_on_c, 0, 58, 55
3, 203264, Note_off_c, 0, 58, 55
3, 203264, Note_on_c, 0, 53, 55
3, 203392, Note_off_c, 0, 53, 55
3, 203392, Note_on_c, 0, 58, 55
3, 203520, Note_off_c, 0, 58, 55
3, 203520, Note_on_c, 0, 56, 55
3, 203648, Note_off_c, 0, 56, 55
3, 203648, Note_on_c, 0, 58, 55
3, 203776, Note_off_c, 0, 58, 55
3, 203776, Note_on_c, 0, 51, 55
3, 203904, Note_off_c, 0, 51, 55
3, 203904, Note_on_c, 0, 55, 55
3, 204032, Note_off_c, 0, 55, 55
3, 204032, Note_on_c, 0, 51, 55
3, 204160, Note_off_c, 0, 51, 55
3, 204160, Note_on_c, 0, 55, 55
3, 204288, Note_off_c, 0, 55, 55
3, 204288, Note_on_c, 0, 51, 55
3, 204416, Note_off_c, 0, 51, 55
3, 204416, Note_on_c, 0, 58, 55
3, 204544, Note_off_c, 0, 58, 55
3, 204544, Note_on_c, 0, 56, 55
3, 204672, Note_off_c, 0, 56, 55
3, 204672, Note_on_c, 0, 55, 55
3, 204800, Note_off_c, 0, 55, 55
3, 204800, Note_on_c, 0, 55, 55
3, 204800, Note_on_c, 0, 67, 55
3, 204928, Note_off_c, 0, 55, 55
3, 204928, Note_off_c, 0, 67, 55
3, 204928, Note_on_c, 0, 58, 55
3, 204928, Note_on_c, 0, 65, 55
3, 205056, Note_off_c, 0, 58, 55
3, 205056, Note_off_c, 0, 65, 55
3, 205056, Note_on_c, 0, 55, 55
3, 205056, Note_on_c, 0, 63, 55
3, 205184, Note_off_c, 0, 55, 55
3, 205184, Note_off_c, 0, 63, 55
3, 205184, Note_on_c, 0, 58, 55
3, 205312, Note_off_c, 0, 58, 55
3, 205312, Note_on_c, 0, 55, 55
3, 205312, Note_on_c, 0, 65, 55
3, 205440, Note_off_c, 0, 55, 55
3, 205440, Note_off_c, 0, 65, 55
3, 205440, Note_on_c, 0, 58, 55
3, 205440, Note_on_c, 0, 67, 55
3, 205568, Note_off_c, 0, 58, 55
3, 205568, Note_off_c, 0, 67, 55
3, 205568, Note_on_c, 0, 55, 55
3, 205696, Note_off_c, 0, 55, 55
3, 205696, Note_on_c, 0, 58, 55
3, 205824, Note_off_c, 0, 58, 55
3, 205824, Note_on_c, 0, 56, 55
3, 205952, Note_off_c, 0, 56, 55
3, 205952, Note_on_c, 0, 60, 55
3, 206080, Note_off_c, 0, 60, 55
3, 206080, Note_on_c, 0, 56, 55
3, 206208, Note_off_c, 0, 56, 55
3, 206208, Note_on_c, 0, 60, 55
3, 206336, Note_off_c, 0, 60, 55
3, 206336, Note_on_c, 0, 56, 55
3, 206464, Note_off_c, 0, 56, 55
3, 206464, Note_on_c, 0, 60, 55
3, 206592, Note_off_c, 0, 60, 55
3, 206592, Note_on_c, 0, 56, 55
3, 206720, Note_off_c, 0, 56, 55
3, 206720, Note_on_c, 0, 60, 55
3, 206848, Note_off_c, 0, 60, 55
3, 206848, Note_on_c, 0, 53, 55
3, 206976, Note_off_c, 0, 53, 55
3, 206976, Note_on_c, 0, 56, 55
3, 207104, Note_off_c, 0, 56, 55
3, 207104, Note_on_c, 0, 53, 55
3, 207232, Note_off_c, 0, 53, 55
3, 207232, Note_on_c, 0, 56, 55
3, 207360, Note_off_c, 0, 56, 55
3, 207360, Note_on_c, 0, 53, 55
3, 207360, Note_on_c, 0, 62, 55
3, 207488, Note_off_c, 0, 53, 55
3, 207488, Note_off_c, 0, 62, 55
3, 207488, Note_on_c, 0, 56, 55
3, 207488, Note_on_c, 0, 63, 55
3, 207616, Note_off_c, 0, 56, 55
3, 207616, Note_off_c, 0, 63, 55
3, 207616, Note_on_c, 0, 53, 55
3, 207744, Note_off_c, 0, 53, 55
3, 207744, Note_on_c, 0, 56, 55
3, 207872, Note_off_c, 0, 56, 55
3, 207872, Note_on_c, 0, 55, 55
3, 208000, Note_off_c, 0, 55, 55
3, 208000, Note_on_c, 0, 58, 55
3, 208128, Note_off_c, 0, 58, 55
3, 208128, Note_on_c, 0, 55, 55
3, 208256, Note_off_c, 0, 55, 55
3, 208256, Note_on_c, 0, 58, 55
3, 208384, Note_off_c, 0, 58, 55
3, 208384, Note_on_c, 0, 55, 55
3, 208512, Note_off_c, 0, 55, 55
3, 208512, Note_on_c, 0, 58, 55
3, 208640, Note_off_c, 0, 58, 55
3, 208640, Note_on_c, 0, 55, 55
3, 208768, Note_off_c, 0, 55, 55
3, 208768, Note_on_c, 0, 58, 55
3, 208896, Note_off_c, 0, 58, 55
3, 208896, Note_on_c, 0, 55, 55
3, 209024, Note_off_c, 0, 55, 55
3, 209024, Note_on_c, 0, 58, 55
3, 209152, Note_off_c, 0, 58, 55
3, 209152, Note_on_c, 0, 55, 55
3, 209280, Note_off_c, 0, 55, 55
3, 209280, Note_on_c, 0, 58, 55
3, 209408, Note_off_c, 0, 58, 55
3, 209408, Note_on_c, 0, 55, 55
3, 209536, Note_off_c, 0, 55, 55
3, 209536, Note_on_c, 0, 58, 55
3, 209664, Note_off_c, 0, 58, 55
3, 209664, Note_on_c, 0, 55, 55
3, 209792, Note_off_c, 0, 55, 55
3, 209792, Note_on_c, 0, 58, 55
3, 209920, Note_off_c, 0, 58, 55
3, 209920, Note_on_c, 0, 56, 55
3, 210048, Note_off_c, 0, 56, 55
3, 210048, Note_on_c, 0, 60, 55
3, 210176, Note_off_c, 0, 60, 55
3, 210176, Note_on_c, 0, 56, 55
3, 210304, Note_off_c, 0, 56, 55
3, 210304, Note_on_c, 0, 60, 55
3, 210432, Note_off_c, 0, 60, 55
3, 210432, Note_on_c, 0, 56, 55
3, 210560, Note_off_c, 0, 56, 55
3, 210560, Note_on_c, 0, 60, 55
3, 210688, Note_off_c, 0, 60, 55
3, 210688, Note_on_c, 0, 56, 55
3, 210816, Note_off_c, 0, 56, 55
3, 210816, Note_on_c, 0, 60, 55
3, 210944, Note_off_c, 0, 60, 55
3, 210944, Note_on_c, 0, 53, 55
3, 211072, Note_off_c, 0, 53, 55
3, 211072, Note_on_c, 0, 56, 55
3, 211200, Note_off_c, 0, 56, 55
3, 211200, Note_on_c, 0, 53, 55
3, 211328, Note_off_c, 0, 53, 55
3, 211328, Note_on_c, 0, 56, 55
3, 211456, Note_off_c, 0, 56, 55
3, 211456, Note_on_c, 0, 53, 55
3, 211584, Note_off_c, 0, 53, 55
3, 211584, Note_on_c, 0, 56, 55
3, 211712, Note_off_c, 0, 56, 55
3, 211712, Note_on_c, 0, 53, 55
3, 211840, Note_off_c, 0, 53, 55
3, 211840, Note_on_c, 0, 56, 55
3, 211968, Note_off_c, 0, 56, 55
3, 211968, Note_on_c, 0, 55, 55
3, 212096, Note_off_c, 0, 55, 55
3, 212096, Note_on_c, 0, 58, 55
3, 212224, Note_off_c, 0, 58, 55
3, 212224, Note_on_c, 0, 55, 55
3, 212352, Note_off_c, 0, 55, 55
3, 212352, Note_on_c, 0, 58, 55
3, 212480, Note_off_c, 0, 58, 55
3, 212480, Note_on_c, 0, 55, 55
3, 212608, Note_off_c, 0, 55, 55
3, 212608, Note_on_c, 0, 58, 55
3, 212736, Note_off_c, 0, 58, 55
3, 212736, Note_on_c, 0, 55, 55
3, 212864, Note_off_c, 0, 55, 55
3, 212864, Note_on_c, 0, 58, 55
3, 212992, Note_off_c, 0, 58, 55
3, 212992, Note_on_c, 0, 51, 55
3, 213120, Note_off_c, 0, 51, 55
3, 213120, Note_on_c, 0, 55, 55
3, 213248, Note_off_c, 0, 55, 55
3, 213248, Note_on_c, 0, 51, 55
3, 213376, Note_off_c, 0, 51, 55
3, 213376, Note_on_c, 0, 55, 55
3, 213504, Note_off_c, 0, 55, 55
3, 213504, Note_on_c, 0, 51, 55
3, 213632, Note_off_c, 0, 51, 55
3, 213632, Note_on_c, 0, 55, 55
3, 213760, Note_off_c, 0, 55, 55
3, 213760, Note_on_c, 0, 56, 55
3, 213888, Note_off_c, 0, 56, 55
3, 213888, Note_on_c, 0, 55, 55
3, 214016, Note_off_c, 0, 55, 55
3, 214016, Note_on_c, 0, 53, 55
3, 214144, Note_off_c, 0, 53, 55
3, 214144, Note_on_c, 0, 58, 55
3, 214272, Note_off_c, 0, 58, 55
3, 214272, Note_on_c, 0, 53, 55
3, 214400, Note_off_c, 0, 53, 55
3, 214400, Note_on_c, 0, 58, 55
3, 214528, Note_off_c, 0, 58, 55
3, 214528, Note_on_c, 0, 53, 55
3, 214656, Note_off_c, 0, 53, 55
3, 214656, Note_on_c, 0, 58, 55
3, 214784, Note_off_c, 0, 58, 55
3, 214784, Note_on_c, 0, 53, 55
3, 214912, Note_off_c, 0, 53, 55
3, 214912, Note_on_c, 0, 58, 55
3, 215040, Note_off_c, 0, 58, 55
3, 215040, Note_on_c, 0, 53, 55
3, 215168, Note_off_c, 0, 53, 55
3, 215168, Note_on_c, 0, 58, 55
3, 215296, Note_off_c, 0, 58, 55
3, 215296, Note_on_c, 0, 53, 55
3, 215424, Note_off_c, 0, 53, 55
3, 215424, Note_on_c, 0, 58, 55
3, 215552, Note_off_c, 0, 58, 55
3, 215552, Note_on_c, 0, 53, 55
3, 215680, Note_off_c, 0, 53, 55
3, 215680, Note_on_c, 0, 58, 55
3, 215808, Note_off_c, 0, 58, 55
3, 215808, Note_on_c, 0, 56, 55
3, 215936, Note_off_c, 0, 56, 55
3, 215936, Note_on_c, 0, 58, 55
3, 216064, Note_off_c, 0, 58, 55
3, 216064, Note_on_c, 0, 55, 55
3, 216192, Note_off_c, 0, 55, 55
3, 216192, Note_on_c, 0, 58, 55
3, 216320, Note_off_c, 0, 58, 55
3, 216320, Note_on_c, 0, 55, 55
3, 216448, Note_off_c, 0, 55, 55
3, 216448, Note_on_c, 0, 58, 55
3, 216576, Note_off_c, 0, 58, 55
3, 216576, Note_on_c, 0, 55, 55
3, 216704, Note_off_c, 0, 55, 55
3, 216704, Note_on_c, 0, 58, 55
3, 216832, Note_off_c, 0, 58, 55
3, 216832, Note_on_c, 0, 56, 55
3, 216960, Note_off_c, 0, 56, 55
3, 216960, Note_on_c, 0, 58, 55
3, 217088, Note_off_c, 0, 58, 55
3, 217088, Note_on_c, 0, 51, 55
3, 217216, Note_off_c, 0, 51, 55
3, 217216, Note_on_c, 0, 55, 55
3, 217344, Note_off_c, 0, 55, 55
3, 217344, Note_on_c, 0, 51, 55
3, 217472, Note_off_c, 0, 51, 55
3, 217472, Note_on_c, 0, 55, 55
3, 217600, Note_off_c, 0, 55, 55
3, 217600, Note_on_c, 0, 51, 55
3, 217728, Note_off_c, 0, 51, 55
3, 217728, Note_on_c, 0, 55, 55
3, 217856, Note_off_c, 0, 55, 55
3, 217856, Note_on_c, 0, 56, 55
3, 217984, Note_off_c, 0, 56, 55
3, 217984, Note_on_c, 0, 55, 55
3, 218112, Note_off_c, 0, 55, 55
3, 218112, Note_on_c, 0, 53, 55
3, 218240, Note_off_c, 0, 53, 55
3, 218240, Note_on_c, 0, 58, 55
3, 218368, Note_off_c, 0, 58, 55
3, 218368, Note_on_c, 0, 53, 55
3, 218496, Note_off_c, 0, 53, 55
3, 218496, Note_on_c, 0, 58, 55
3, 218624, Note_off_c, 0, 58, 55
3, 218624, Note_on_c, 0, 53, 55
3, 218752, Note_off_c, 0, 53, 55
3, 218752, Note_on_c, 0, 58, 55
3, 218880, Note_off_c, 0, 58, 55
3, 218880, Note_on_c, 0, 53, 55
3, 219008, Note_off_c, 0, 53, 55
3, 219008, Note_on_c, 0, 58, 55
3, 219136, Note_off_c, 0, 58, 55
3, 219136, Note_on_c, 0, 53, 55
3, 219264, Note_off_c, 0, 53, 55
3, 219264, Note_on_c, 0, 58, 55
3, 219392, Note_off_c, 0, 58, 55
3, 219392, Note_on_c, 0, 53, 55
3, 219520, Note_off_c, 0, 53, 55
3, 219520, Note_on_c, 0, 58, 55
3, 219648, Note_off_c, 0, 58, 55
3, 219648, Note_on_c, 0, 53, 55
3, 219776, Note_off_c, 0, 53, 55
3, 219776, Note_on_c, 0, 58, 55
3, 219904, Note_off_c, 0, 58, 55
3, 219904, Note_on_c, 0, 56, 55
3, 220032, Note_off_c, 0, 56, 55
3, 220032, Note_on_c, 0, 58, 55
3, 220160, Note_off_c, 0, 58, 55
3, 220160, Note_on_c, 0, 51, 55
3, 220288, Note_off_c, 0, 51, 55
3, 220288, Note_on_c, 0, 55, 55
3, 220416, Note_off_c, 0, 55, 55
3, 220416, Note_on_c, 0, 51, 55
3, 220544, Note_off_c, 0, 51, 55
3, 220544, Note_on_c, 0, 55, 55
3, 220672, Note_off_c, 0, 55, 55
3, 220672, Note_on_c, 0, 51, 55
3, 220800, Note_off_c, 0, 51, 55
3, 220800, Note_on_c, 0, 58, 55
3, 220928, Note_off_c, 0, 58, 55
3, 220928, Note_on_c, 0, 56, 55
3, 221056, Note_off_c, 0, 56, 55
3, 221056, Note_on_c, 0, 55, 55
3, 221184, Note_off_c, 0, 55, 55
3, 221184, Note_on_c, 0, 55, 55
3, 221184, Note_on_c, 0, 67, 55
3, 221312, Note_off_c, 0, 55, 55
3, 221312, Note_off_c, 0, 67, 55
3, 221312, Note_on_c, 0, 58, 55
3, 221312, Note_on_c, 0, 65, 55
3, 221440, Note_off_c, 0, 58, 55
3, 221440, Note_off_c, 0, 65, 55
3, 221440, Note_on_c, 0, 55, 55
3, 221440, Note_on_c, 0, 63, 55
3, 221568, Note_off_c, 0, 55, 55
3, 221568, Note_off_c, 0, 63, 55
3, 221568, Note_on_c, 0, 58, 55
3, 221696, Note_off_c, 0, 58, 55
3, 221696, Note_on_c, 0, 55, 55
3, 221696, Note_on_c, 0, 65, 55
3, 221824, Note_off_c, 0, 55, 55
3, 221824, Note_off_c, 0, 65, 55
3, 221824, Note_on_c, 0, 58, 55
3, 221824, Note_on_c, 0, 67, 55
3, 221952, Note_off_c, 0, 58, 55
3, 221952, Note_off_c, 0, 67, 55
3, 221952, Note_on_c, 0, 55, 55
3, 222080, Note_off_c, 0, 55, 55
3, 222080, Note_on_c, 0, 58, 55
3, 222208, Note_off_c, 0, 58, 55
3, 222208, Note_on_c, 0, 56, 55
3, 222336, Note_off_c, 0, 56, 55
3, 222336, Note_on_c, 0, 60, 55
3, 222464, Note_off_c, 0, 60, 55
3, 222464, Note_on_c, 0, 56, 55
3, 222592, Note_off_c, 0, 56, 55
3, 222592, Note_on_c, 0, 60, 55
3, 222720, Note_off_c, 0, 60, 55
3, 222720, Note_on_c, 0, 56, 55
3, 222848, Note_off_c, 0, 56, 55
3, 222848, Note_on_c, 0, 60, 55
3, 222976, Note_off_c, 0, 60, 55
3, 222976, Note_on_c, 0, 56, 55
3, 223104, Note_off_c, 0, 56, 55
3, 223104, Note_on_c, 0, 60, 55
3, 223232, Note_off_c, 0, 60, 55
3, 223232, Note_on_c, 0, 53, 55
3, 223360, Note_off_c, 0, 53, 55
3, 223360, Note_on_c, 0, 56, 55
3, 223488, Note_off_c, 0, 56, 55
3, 223488, Note_on_c, 0, 53, 55
3, 223616, Note_off_c, 0, 53, 55
3, 223616, Note_on_c, 0, 56, 55
3, 223744, Note_off_c, 0, 56, 55
3, 223744, Note_on_c, 0, 53, 55
3, 223744, Note_on_c, 0, 62, 55
3, 223872, Note_off_c, 0, 53, 55
3, 223872, Note_off_c, 0, 62, 55
3, 223872, Note_on_c, 0, 56, 55
3, 223872, Note_on_c, 0, 63, 55
3, 224000, Note_off_c, 0, 56, 55
3, 224000, Note_off_c, 0, 63, 55
3, 224000, Note_on_c, 0, 53, 55
3, 224128, Note_off_c, 0, 53, 55
3, 224128, Note_on_c, 0, 56, 55
3, 224256, Note_off_c, 0, 56, 55
3, 224256, Note_on_c, 0, 55, 55
3, 224384, Note_off_c, 0, 55, 55
3, 224384, Note_on_c, 0, 58, 55
3, 224512, Note_off_c, 0, 58, 55
3, 224512, Note_on_c, 0, 55, 55
3, 224640, Note_off_c, 0, 55, 55
3, 224640, Note_on_c, 0, 58, 55
3, 224768, Note_off_c, 0, 58, 55
3, 224768, Note_on_c, 0, 55, 55
3, 224896, Note_off_c, 0, 55, 55
3, 224896, Note_on_c, 0, 58, 55
3, 225024, Note_off_c, 0, 58, 55
3, 225024, Note_on_c, 0, 55, 55
3, 225152, Note_off_c, 0, 55, 55
3, 225152, Note_on_c, 0, 58, 55
3, 225280, Note_off_c, 0, 58, 55
3, 225280, Note_on_c, 0, 55, 55
3, 225408, Note_off_c, 0, 55, 55
3, 225408, Note_on_c, 0, 58, 55
3, 225536, Note_off_c, 0, 58, 55
3, 225536, Note_on_c, 0, 55, 55
3, 225664, Note_off_c, 0, 55, 55
3, 225664, Note_on_c, 0, 58, 55
3, 225792, Note_off_c, 0, 58, 55
3, 225792, Note_on_c, 0, 55, 55
3, 225920, Note_off_c, 0, 55, 55
3, 225920, Note_on_c, 0, 58, 55
3, 226048, Note_off_c, 0, 58, 55
3, 226048, Note_on_c, 0, 55, 55
3, 226176, Note_off_c, 0, 55, 55
3, 226176, Note_on_c, 0, 58, 55
3, 226304, Note_off_c, 0, 58, 55
3, 226304, Note_on_c, 0, 56, 55
3, 226432, Note_off_c, 0, 56, 55
3, 226432, Note_on_c, 0, 60, 55
3, 226560, Note_off_c, 0, 60, 55
3, 226560, Note_on_c, 0, 56, 55
3, 226688, Note_off_c, 0, 56, 55
3, 226688, Note_on_c, 0, 60, 55
3, 226816, Note_off_c, 0, 60, 55
3, 226816, Note_on_c, 0, 56, 55
3, 226944, Note_off_c, 0, 56, 55
3, 226944, Note_on_c, 0, 60, 55
3, 227072, Note_off_c, 0, 60, 55
3, 227072, Note_on_c, 0, 56, 55
3, 227200, Note_off_c, 0, 56, 55
3, 227200, Note_on_c, 0, 60, 55
3, 227328, Note_off_c, 0, 60, 55
3, 227328, Note_on_c, 0, 53, 55
3, 227456, Note_off_c, 0, 53, 55
3, 227456, Note_on_c, 0, 56, 55
3, 227584, Note_off_c, 0, 56, 55
3, 227584, Note_on_c, 0, 53, 55
3, 227712, Note_off_c, 0, 53, 55
3, 227712, Note_on_c, 0, 56, 55
3, 227840, Note_off_c, 0, 56, 55
3, 227840, Note_on_c, 0, 53, 55
3, 227968, Note_off_c, 0, 53, 55
3, 227968, Note_on_c, 0, 56, 55
3, 228096, Note_off_c, 0, 56, 55
3, 228096, Note_on_c, 0, 53, 55
3, 228224, Note_off_c, 0, 53, 55
3, 228224, Note_on_c, 0, 56, 55
3, 228352, Note_off_c, 0, 56, 55
3, 228352, Note_on_c, 0, 55, 55
3, 228480, Note_off_c, 0, 55, 55
3, 228480, Note_on_c, 0, 58, 55
3, 228608, Note_off_c, 0, 58, 55
3, 228608, Note_on_c, 0, 55, 55
3, 228736, Note_off_c, 0, 55, 55
3, 228736, Note_on_c, 0, 58, 55
3, 228864, Note_off_c, 0, 58, 55
3, 228864, Note_on_c, 0, 55, 55
3, 228992, Note_off_c, 0, 55, 55
3, 228992, Note_on_c, 0, 58, 55
3, 229120, Note_off_c, 0, 58, 55
3, 229120, Note_on_c, 0, 55, 55
3, 229248, Note_off_c, 0, 55, 55
3, 229248, Note_on_c, 0, 58, 55
3, 229376, Note_off_c, 0, 58, 55
3, 229376, Note_on_c, 0, 51, 55
3, 229504, Note_off_c, 0, 51, 55
3, 229504, Note_on_c, 0, 55, 55
3, 229632, Note_off_c, 0, 55, 55
3, 229632, Note_on_c, 0, 51, 55
3, 229760, Note_off_c, 0, 51, 55
3, 229760, Note_on_c, 0, 55, 55
3, 229888, Note_off_c, 0, 55, 55
3, 229888, Note_on_c, 0, 51, 55
3, 230016, Note_off_c, 0, 51, 55
3, 230016, Note_on_c, 0, 55, 55
3, 230144, Note_off_c, 0, 55, 55
3, 230144, Note_on_c, 0, 56, 55
3, 230272, Note_off_c, 0, 56, 55
3, 230272, Note_on_c, 0, 55, 55
3, 230400, Note_off_c, 0, 55, 55
3, 230400, Note_on_c, 0, 53, 55
3, 230528, Note_off_c, 0, 53, 55
3, 230528, Note_on_c, 0, 58, 55
3, 230656, Note_off_c, 0, 58, 55
3, 230656, Note_on_c, 0, 53, 55
3, 230784, Note_off_c, 0, 53, 55
3, 230784, Note_on_c, 0, 58, 55
3, 230912, Note_off_c, 0, 58, 55
3, 230912, Note_on_c, 0, 53, 55
3, 231040, Note_off_c, 0, 53, 55
3, 231040, Note_on_c, 0, 58, 55
3, 231168, Note_off_c, 0, 58, 55
3, 231168, Note_on_c, 0, 53, 55
3, 231296, Note_off_c, 0, 53, 55
3, 231296, Note_on_c, 0, 58, 55
3, 231424, Note_off_c, 0, 58, 55
3, 231424, Note_on_c, 0, 53, 55
3, 231552, Note_off_c, 0, 53, 55
3, 231552, Note_on_c, 0, 58, 55
3, 231680, Note_off_c, 0, 58, 55
3, 231680, Note_on_c, 0, 53, 55
3, 231808, Note_off_c, 0, 53, 55
3, 231808, Note_on_c, 0, 58, 55
3, 231936, Note_off_c, 0, 58, 55
3, 231936, Note_on_c, 0, 53, 55
3, 232064, Note_off_c, 0, 53, 55
3, 232064, Note_on_c, 0, 58, 55
3, 232192, Note_off_c, 0, 58, 55
3, 232192, Note_on_c, 0, 56, 55
3, 232320, Note_off_c, 0, 56, 55
3, 232320, Note_on_c, 0, 58, 55
3, 232448, Note_off_c, 0, 58, 55
3, 232448, Note_on_c, 0, 55, 55
3, 232576, Note_off_c, 0, 55, 55
3, 232576, Note_on_c, 0, 58, 55
3, 232704, Note_off_c, 0, 58, 55
3, 232704, Note_on_c, 0, 55, 55
3, 232832, Note_off_c, 0, 55, 55
3, 232832, Note_on_c, 0, 58, 55
3, 232960, Note_off_c, 0, 58, 55
3, 232960, Note_on_c, 0, 55, 55
3, 233088, Note_off_c, 0, 55, 55
3, 233088, Note_on_c, 0, 58, 55
3, 233216, Note_off_c, 0, 58, 55
3, 233216, Note_on_c, 0, 56, 55
3, 233344, Note_off_c, 0, 56, 55
3, 233344, Note_on_c, 0, 58, 55
3, 233472, Note_off_c, 0, 58, 55
3, 233472, Note_on_c, 0, 51, 55
3, 233600, Note_off_c, 0, 51, 55
3, 233600, Note_on_c, 0, 55, 55
3, 233728, Note_off_c, 0, 55, 55
3, 233728, Note_on_c, 0, 51, 55
3, 233856, Note_off_c, 0, 51, 55
3, 233856, Note_on_c, 0, 55, 55
3, 233984, Note_off_c, 0, 55, 55
3, 233984, Note_on_c, 0, 51, 55
3, 234112, Note_off_c, 0, 51, 55
3, 234112, Note_on_c, 0, 55, 55
3, 234240, Note_off_c, 0, 55, 55
3, 234240, Note_on_c, 0, 56, 55
3, 234368, Note_off_c, 0, 56, 55
3, 234368, Note_on_c, 0, 55, 55
3, 234496, Note_off_c, 0, 55, 55
3, 234496, Note_on_c, 0, 53, 55
3, 234624, Note_off_c, 0, 53, 55
3, 234624, Note_on_c, 0, 58, 55
3, 234752, Note_off_c, 0, 58, 55
3, 234752, Note_on_c, 0, 53, 55
3, 234880, Note_off_c, 0, 53, 55
3, 234880, Note_on_c, 0, 58, 55
3, 235008, Note_off_c, 0, 58, 55
3, 235008, Note_on_c, 0, 53, 55
3, 235136, Note_off_c, 0, 53, 55
3, 235136, Note_on_c, 0, 58, 55
3, 235264, Note_off_c, 0, 58, 55
3, 235264, Note_on_c, 0, 53, 55
3, 235392, Note_off_c, 0, 53, 55
3, 235392, Note_on_c, 0, 58, 55
3, 235520, Note_off_c, 0, 58, 55
3, 235520, Note_on_c, 0, 53, 55
3, 235648, Note_off_c, 0, 53, 55
3, 235648, Note_on_c, 0, 58, 55
3, 235776, Note_off_c, 0, 58, 55
3, 235776, Note_on_c, 0, 53, 55
3, 235904, Note_off_c, 0, 53, 55
3, 235904, Note_on_c, 0, 58, 55
3, 236032, Note_off_c, 0, 58, 55
3, 236032, Note_on_c, 0, 53, 55
3, 236160, Note_off_c, 0, 53, 55
3, 236160, Note_on_c, 0, 58, 55
3, 236288, Note_off_c, 0, 58, 55
3, 236288, Note_on_c, 0, 56, 55
3, 236416, Note_off_c, 0, 56, 55
3, 236416, Note_on_c, 0, 58, 55
3, 236544, Note_off_c, 0, 58, 55
3, 236544, Note_on_c, 0, 51, 55
3, 236672, Note_off_c, 0, 51, 55
3, 236672, Note_on_c, 0, 55, 55
3, 236800, Note_off_c, 0, 55, 55
3, 236800, Note_on_c, 0, 51, 55
3, 236928, Note_off_c, 0, 51, 55
3, 236928, Note_on_c, 0, 55, 55
3, 237056, Note_off_c, 0, 55, 55
3, 237056, Note_on_c, 0, 51, 55
3, 237184, Note_off_c, 0, 51, 55
3, 237184, Note_on_c, 0, 58, 55
3, 237312, Note_off_c, 0, 58, 55
3, 237312, Note_on_c, 0, 56, 55
3, 237440, Note_off_c, 0, 56, 55
3, 237440, Note_on_c, 0, 55, 55
3, 237568, Note_off_c, 0, 55, 55
3, 237568, Note_on_c, 0, 55, 55
3, 237568, Note_on_c, 0, 67, 55
3, 237696, Note_off_c, 0, 55, 55
3, 237696, Note_off_c, 0, 67, 55
3, 237696, Note_on_c, 0, 58, 55
3, 237696, Note_on_c, 0, 65, 55
3, 237824, Note_off_c, 0, 58, 55
3, 237824, Note_off_c, 0, 65, 55
3, 237824, Note_on_c, 0, 55, 55
3, 237824, Note_on_c, 0, 63, 55
3, 237952, Note_off_c, 0, 55, 55
3, 237952, Note_off_c, 0, 63, 55
3, 237952, Note_on_c, 0, 58, 55
3, 238080, Note_off_c, 0, 58, 55
3, 238080, Note_on_c, 0, 55, 55
3, 238080, Note_on_c, 0, 65, 55
3, 238208, Note_off_c, 0, 55, 55
3, 238208, Note_off_c, 0, 65, 55
3, 238208, Note_on_c, 0, 58, 55
3, 238208, Note_on_c, 0, 67, 55
3, 238336, Note_off_c, 0, 58, 55
3, 238336, Note_off_c, 0, 67, 55
3, 238336, Note_on_c, 0, 55, 55
3, 238464, Note_off_c, 0, 55, 55
3, 238464, Note_on_c, 0, 58, 55
3, 238592, Note_off_c, 0, 58, 55
3, 238592, Note_on_c, 0, 56, 55
3, 238720, Note_off_c, 0, 56, 55
3, 238720, Note_on_c, 0, 60, 55
3, 238848, Note_off_c, 0, 60, 55
3, 238848, Note_on_c, 0, 56, 55
3, 238976, Note_off_c, 0, 56, 55
3, 238976, Note_on_c, 0, 60, 55
3, 239104, Note_off_c, 0, 60, 55
3, 239104, Note_on_c, 0, 56, 55
3, 239232, Note_off_c, 0, 56, 55
3, 239232, Note_on_c, 0, 60, 55
3, 239360, Note_off_c, 0, 60, 55
3, 239360, Note_on_c, 0, 56, 55
3, 239488, Note_off_c, 0, 56, 55
3, 239488, Note_on_c, 0, 60, 55
3, 239616, Note_off_c, 0, 60, 55
3, 239616, Note_on_c, 0, 53, 55
3, 239744, Note_off_c, 0, 53, 55
3, 239744, Note_on_c, 0, 56, 55
3, 239872, Note_off_c, 0, 56, 55
3, 239872, Note_on_c, 0, 53, 55
3, 240000, Note_off_c, 0, 53, 55
3, 240000, Note_on_c, 0, 56, 55
3, 240128, Note_off_c, 0, 56, 55
3, 240128, Note_on_c, 0, 53, 55
3, 240128, Note_on_c, 0, 62, 55
3, 240256, Note_off_c, 0, 53, 55
3, 240256, Note_off_c, 0, 62, 55
3, 240256, Note_on_c, 0, 56, 55
3, 240256, Note_on_c, 0, 63, 55
3, 240384, Note_off_c, 0, 56, 55
3, 240384, Note_off_c, 0, 63, 55
3, 240384, Note_on_c, 0, 53, 55
3, 240512, Note_off_c, 0, 53, 55
3, 240512, Note_on_c, 0, 56, 55
3, 240640, Note_off_c, 0, 56, 55
3, 240640, Note_on_c, 0, 55, 55
3, 240768, Note_off_c, 0, 55, 55
3, 240768, Note_on_c, 0, 58, 55
3, 240896, Note_off_c, 0, 58, 55
3, 240896, Note_on_c, 0, 55, 55
3, 241024, Note_off_c, 0, 55, 55
3, 241024, Note_on_c, 0, 58, 55
3, 241152, Note_off_c, 0, 58, 55
3, 241152, Note_on_c, 0, 55, 55
3, 241280, Note_off_c, 0, 55, 55
3, 241280, Note_on_c, 0, 58, 55
3, 241408, Note_off_c, 0, 58, 55
3, 241408, Note_on_c, 0, 55, 55
3, 241536, Note_off_c, 0, 55, 55
3, 241536, Note_on_c, 0, 58, 55
3, 241664, Note_off_c, 0, 58, 55
3, 241664, Note_on_c, 0, 55, 55
3, 241792, Note_off_c, 0, 55, 55
3, 241792, Note_on_c, 0, 58, 55
3, 241920, Note_off_c, 0, 58, 55
3, 241920, Note_on_c, 0, 55, 55
3, 242048, Note_off_c, 0, 55, 55
3, 242048, Note_on_c, 0, 58, 55
3, 242176, Note_off_c, 0, 58, 55
3, 242176, Note_on_c, 0, 55, 55
3, 242304, Note_off_c, 0, 55, 55
3, 242304, Note_on_c, 0, 58, 55
3, 242432, Note_off_c, 0, 58, 55
3, 242432, Note_on_c, 0, 55, 55
3, 242560, Note_off_c, 0, 55, 55
3, 242560, Note_on_c, 0, 58, 55
3, 242688, Note_off_c, 0, 58, 55
3, 242688, Note_on_c, 0, 56, 55
3, 242816, Note_off_c, 0, 56, 55
3, 242816, Note_on_c, 0, 60, 55
3, 242944, Note_off_c, 0, 60, 55
3, 242944, Note_on_c, 0, 56, 55
3, 243072, Note_off_c, 0, 56, 55
3, 243072, Note_on_c, 0, 60, 55
3, 243200, Note_off_c, 0, 60, 55
3, 243200, Note_on_c, 0, 56, 55
3, 243328, Note_off_c, 0, 56, 55
3, 243328, Note_on_c, 0, 60, 55
3, 243456, Note_off_c, 0, 60, 55
3, 243456, Note_on_c, 0, 56, 55
3, 243584, Note_off_c, 0, 56, 55
3, 243584, Note_on_c, 0, 60, 55
3, 243712, Note_off_c, 0, 60, 55
3, 243712, Note_on_c, 0, 53, 55
3, 243840, Note_off_c, 0, 53, 55
3, 243840, Note_on_c, 0, 56, 55
3, 243968, Note_off_c, 0, 56, 55
3, 243968, Note_on_c, 0, 53, 55
3, 244096, Note_off_c, 0, 53, 55
3, 244096, Note_on_c, 0, 56, 55
3, 244224, Note_off_c, 0, 56, 55
3, 244224, Note_on_c, 0, 53, 55
3, 244352, Note_off_c, 0, 53, 55
3, 244352, Note_on_c, 0, 56, 55
3, 244480, Note_off_c, 0, 56, 55
3, 244480, Note_on_c, 0, 53, 55
3, 244608, Note_off_c, 0, 53, 55
3, 244608, Note_on_c, 0, 56, 55
3, 244736, Note_off_c, 0, 56, 55
3, 244736, Note_on_c, 0, 55, 55
3, 244864, Note_off_c, 0, 55, 55
3, 244864, Note_on_c, 0, 58, 55
3, 244992, Note_off_c, 0, 58, 55
3, 244992, Note_on_c, 0, 55, 55
3, 245120, Note_off_c, 0, 55, 55
3, 245120, Note_on_c, 0, 58, 55
3, 245248, Note_off_c, 0, 58, 55
3, 245248, Note_on_c, 0, 55, 55
3, 245376, Note_off_c, 0, 55, 55
3, 245376, Note_on_c, 0, 58, 55
3, 245504, Note_off_c, 0, 58, 55
3, 245504, Note_on_c, 0, 55, 55
3, 245632, Note_off_c, 0, 55, 55
3, 245632, Note_on_c, 0, 58, 55
3, 245760, Note_off_c, 0, 58, 55
3, 245760, Note_on_c, 0, 51, 55
3, 245888, Note_off_c, 0, 51, 55
3, 245888, Note_on_c, 0, 55, 55
3, 246016, Note_off_c, 0, 55, 55
3, 246016, Note_on_c, 0, 51, 55
3, 246144, Note_off_c, 0, 51, 55
3, 246144, Note_on_c, 0, 55, 55
3, 246272, Note_off_c, 0, 55, 55
3, 246272, Note_on_c, 0, 51, 55
3, 246400, Note_off_c, 0, 51, 55
3, 246400, Note_on_c, 0, 55, 55
3, 246528, Note_off_c, 0, 55, 55
3, 246528, Note_on_c, 0, 56, 55
3, 246656, Note_off_c, 0, 56, 55
3, 246656, Note_on_c, 0, 55, 55
3, 246784, Note_off_c, 0, 55, 55
3, 246784, Note_on_c, 0, 53, 55
3, 246912, Note_off_c, 0, 53, 55
3, 246912, Note_on_c, 0, 58, 55
3, 247040, Note_off_c, 0, 58, 55
3, 247040, Note_on_c, 0, 53, 55
3, 247168, Note_off_c, 0, 53, 55
3, 247168, Note_on_c, 0, 58, 55
3, 247296, Note_off_c, 0, 58, 55
3, 247296, Note_on_c, 0, 53, 55
3, 247424, Note_off_c, 0, 53, 55
3, 247424, Note_on_c, 0, 58, 55
3, 247552, Note_off_c, 0, 58, 55
3, 247552, Note_on_c, 0, 53, 55
3, 247680, Note_off_c, 0, 53, 55
3, 247680, Note_on_c, 0, 58, 55
3, 247808, Note_off_c, 0, 58, 55
3, 247808, Note_on_c, 0, 53, 55
3, 247936, Note_off_c, 0, 53, 55
3, 247936, Note_on_c, 0, 58, 55
3, 248064, Note_off_c, 0, 58, 55
3, 248064, Note_on_c, 0, 53, 55
3, 248192, Note_off_c, 0, 53, 55
3, 248192, Note_on_c, 0, 58, 55
3, 248320, Note_off_c, 0, 58, 55
3, 248320, Note_on_c, 0, 53, 55
3, 248448, Note_off_c, 0, 53, 55
3, 248448, Note_on_c, 0, 58, 55
3, 248576, Note_off_c, 0, 58, 55
3, 248576, Note_on_c, 0, 56, 55
3, 248704, Note_off_c, 0, 56, 55
3, 248704, Note_on_c, 0, 58, 55
3, 248832, Note_off_c, 0, 58, 55
3, 248832, Note_on_c, 0, 55, 55
3, 248960, Note_off_c, 0, 55, 55
3, 248960, Note_on_c, 0, 58, 55
3, 249088, Note_off_c, 0, 58, 55
3, 249088, Note_on_c, 0, 55, 55
3, 249216, Note_off_c, 0, 55, 55
3, 249216, Note_on_c, 0, 58, 55
3, 249344, Note_off_c, 0, 58, 55
3, 249344, Note_on_c, 0, 55, 55
3, 249472, Note_off_c, 0, 55, 55
3, 249472, Note_on_c, 0, 58, 55
3, 249600, Note_off_c, 0, 58, 55
3, 249600, Note_on_c, 0, 56, 55
3, 249728, Note_off_c, 0, 56, 55
3, 249728, Note_on_c, 0, 58, 55
3, 249856, Note_off_c, 0, 58, 55
3, 249856, Note_on_c, 0, 51, 55
3, 249984, Note_off_c, 0, 51, 55
3, 249984, Note_on_c, 0, 55, 55
3, 250112, Note_off_c, 0, 55, 55
3, 250112, Note_on_c, 0, 51, 55
3, 250240, Note_off_c, 0, 51, 55
3, 250240, Note_on_c, 0, 55, 55
3, 250368, Note_off_c, 0, 55, 55
3, 250368, Note_on_c, 0, 51, 55
3, 250496, Note_off_c, 0, 51, 55
3, 250496, Note_on_c, 0, 55, 55
3, 250624, Note_off_c, 0, 55, 55
3, 250624, Note_on_c, 0, 56, 55
3, 250752, Note_off_c, 0, 56, 55
3, 250752, Note_on_c, 0, 55, 55
3, 250880, Note_off_c, 0, 55, 55
3, 250880, Note_on_c, 0, 53, 55
3, 251008, Note_off_c, 0, 53, 55
3, 251008, Note_on_c, 0, 58, 55
3, 251136, Note_off_c, 0, 58, 55
3, 251136, Note_on_c, 0, 53, 55
3, 251264, Note_off_c, 0, 53, 55
3, 251264, Note_on_c, 0, 58, 55
3, 251392, Note_off_c, 0, 58, 55
3, 251392, Note_on_c, 0, 53, 55
3, 251520, Note_off_c, 0, 53, 55
3, 251520, Note_on_c, 0, 58, 55
3, 251648, Note_off_c, 0, 58, 55
3, 251648, Note_on_c, 0, 53, 55
3, 251776, Note_off_c, 0, 53, 55
3, 251776, Note_on_c, 0, 58, 55
3, 251904, Note_off_c, 0, 58, 55
3, 251904, Note_on_c, 0, 53, 55
3, 252032, Note_off_c, 0, 53, 55
3, 252032, Note_on_c, 0, 58, 55
3, 252160, Note_off_c, 0, 58, 55
3, 252160, Note_on_c, 0, 53, 55
3, 252288, Note_off_c, 0, 53, 55
3, 252288, Note_on_c, 0, 58, 55
3, 252416, Note_off_c, 0, 58, 55
3, 252416, Note_on_c, 0, 53, 55
3, 252544, Note_off_c, 0, 53, 55
3, 252544, Note_on_c, 0, 58, 55
3, 252672, Note_off_c, 0, 58, 55
3, 252672, Note_on_c, 0, 56, 55
3, 252800, Note_off_c, 0, 56, 55
3, 252800, Note_on_c, 0, 58, 55
3, 252928, Note_off_c, 0, 58, 55
3, 252928, Note_on_c, 0, 51, 55
3, 253056, Note_off_c, 0, 51, 55
3, 253056, Note_on_c, 0, 55, 55
3, 253184, Note_off_c, 0, 55, 55
3, 253184, Note_on_c, 0, 51, 55
3, 253312, Note_off_c, 0, 51, 55
3, 253312, Note_on_c, 0, 55, 55
3, 253440, Note_off_c, 0, 55, 55
3, 253440, Note_on_c, 0, 51, 55
3, 253568, Note_off_c, 0, 51, 55
3, 253568, Note_on_c, 0, 58, 55
3, 253696, Note_off_c, 0, 58, 55
3, 253696, Note_on_c, 0, 56, 55
3, 253824, Note_off_c, 0, 56, 55
3, 253824, Note_on_c, 0, 55, 55
3, 253952, Note_off_c, 0, 55, 55
3, 253952, Note_on_c, 0, 55, 55
3, 253952, Note_on_c, 0, 67, 55
3, 254080, Note_off_c, 0, 55, 55
3, 254080, Note_off_c, 0, 67, 55
3, 254080, Note_on_c, 0, 58, 55
3, 254080, Note_on_c, 0, 65, 55
3, 254208, Note_off_c, 0, 58, 55
3, 254208, Note_off_c, 0, 65, 55
3, 254208, Note_on_c, 0, 55, 55
3, 254208, Note_on_c, 0, 63, 55
3, 254336, Note_off_c, 0, 55, 55
3, 254336, Note_off_c, 0, 63, 55
3, 254336, Note_on_c, 0, 58, 55
3, 254464, Note_off_c, 0, 58, 55
3, 254464, Note_on_c, 0, 55, 55
3, 254464, Note_on_c, 0, 65, 55
3, 254592, Note_off_c, 0, 55, 55
3, 254592, Note_off_c, 0, 65, 55
3, 254592, Note_on_c, 0, 58, 55
3, 254592, Note_on_c, 0, 67, 55
3, 254720, Note_off_c, 0, 58, 55
3, 254720, Note_off_c, 0, 67, 55
3, 254720, Note_on_c, 0, 55, 55
3, 254848, Note_off_c, 0, 55, 55
3, 254848, Note_on_c, 0, 58, 55
3, 254976, Note_off_c, 0, 58, 55
3, 254976, Note_on_c, 0, 56, 55
3, 255104, Note_off_c, 0, 56, 55
3, 255104, Note_on_c, 0, 60, 55
3, 255232, Note_off_c, 0, 60, 55
3, 255232, Note_on_c, 0, 56, 55
3, 255360, Note_off_c, 0, 56, 55
3, 255360, Note_on_c, 0, 60, 55
3, 255488, Note_off_c, 0, 60, 55
3, 255488, Note_on_c, 0, 56, 55
3, 255616, Note_off_c, 0, 56, 55
3, 255616, Note_on_c, 0, 60, 55
3, 255744, Note_off_c, 0, 60, 55
3, 255744, Note_on_c, 0, 56, 55
3, 255872, Note_off_c, 0, 56, 55
3, 255872, Note_on_c, 0, 60, 55
3, 256000, Note_off_c, 0, 60, 55
3, 256000, Note_on_c, 0, 53, 55
3, 256128, Note_off_c, 0, 53, 55
3, 256128, Note_on_c, 0, 56, 55
3, 256256, Note_off_c, 0, 56, 55
3, 256256, Note_on_c, 0, 53, 55
3, 256384, Note_off_c, 0, 53, 55
3, 256384, Note_on_c, 0, 56, 55
3, 256512, Note_off_c, 0, 56, 55
3, 256512, Note_on_c, 0, 53, 55
3, 256512, Note_on_c, 0, 62, 55
3, 256640, Note_off_c, 0, 53, 55
3, 256640, Note_off_c, 0, 62, 55
3, 256640, Note_on_c, 0, 56, 55
3, 256640, Note_on_c, 0, 63, 55
3, 256768, Note_off_c, 0, 56, 55
3, 256768, Note_off_c, 0, 63, 55
3, 256768, Note_on_c, 0, 53, 55
3, 256896, Note_off_c, 0, 53, 55
3, 256896, Note_on_c, 0, 56, 55
3, 257024, Note_off_c, 0, 56, 55
3, 257024, Note_on_c, 0, 55, 55
3, 257152, Note_off_c, 0, 55, 55
3, 257152, Note_on_c, 0, 58, 55
3, 257280, Note_off_c, 0, 58, 55
3, 257280, Note_on_c, 0, 55, 55
3, 257408, Note_off_c, 0, 55, 55
3, 257408, Note_on_c, 0, 58, 55
3, 257536, Note_off_c, 0, 58, 55
3, 257536, Note_on_c, 0, 55, 55
3, 257664, Note_off_c, 0, 55, 55
3, 257664, Note_on_c, 0, 58, 55
3, 257792, Note_off_c, 0, 58, 55
3, 257792, Note_on_c, 0, 55, 55
3, 257920, Note_off_c, 0, 55, 55
3, 257920, Note_on_c, 0, 58, 55
3, 258048, Note_off_c, 0, 58, 55
3, 258048, Note_on_c, 0, 55, 55
3, 258176, Note_off_c, 0, 55, 55
3, 258176, Note_on_c, 0, 58, 55
3, 258304, Note_off_c, 0, 58, 55
3, 258304, Note_on_c, 0, 55, 55
3, 258432, Note_off_c, 0, 55, 55
3, 258432, Note_on_c, 0, 58, 55
3, 258560, Note_off_c, 0, 58, 55
3, 258560, Note_on_c, 0, 55, 55
3, 258688, Note_off_c, 0, 55, 55
3, 258688, Note_on_c, 0, 58, 55
3, 258816, Note_off_c, 0, 58, 55
3, 258816, Note_on_c, 0, 55, 55
3, 258944, Note_off_c, 0, 55, 55
3, 258944, Note_on_c, 0, 58, 55
3, 259072, Note_off_c, 0, 58, 55
3, 259072, Note_on_c, 0, 56, 55
3, 259200, Note_off_c, 0, 56, 55
3, 259200, Note_on_c, 0, 60, 55
3, 259328, Note_off_c, 0, 60, 55
3, 259328, Note_on_c, 0, 56, 55
3, 259456, Note_off_c, 0, 56, 55
3, 259456, Note_on_c, 0, 60, 55
3, 259584, Note_off_c, 0, 60, 55
3, 259584, Note_on_c, 0, 56, 55
3, 259712, Note_off_c, 0, 56, 55
3, 259712, Note_on_c, 0, 60, 55
3, 259840, Note_off_c, 0, 60, 55
3, 259840, Note_on_c, 0, 56, 55
3, 259968, Note_off_c, 0, 56, 55
3, 259968, Note_on_c, 0, 60, 55
3, 260096, Note_off_c, 0, 60, 55
3, 260096, Note_on_c, 0, 53, 55
3, 260224, Note_off_c, 0, 53, 55
3, 260224, Note_on_c, 0, 56, 55
3, 260352, Note_off_c, 0, 56, 55
3, 260352, Note_on_c, 0, 53, 55
3, 260480, Note_off_c, 0, 53, 55
3, 260480, Note_on_c, 0, 56, 55
3, 260608, Note_off_c, 0, 56, 55
3, 260608, Note_on_c, 0, 53, 55
3, 260736, Note_off_c, 0, 53, 55
3, 260736, Note_on_c, 0, 56, 55
3, 260864, Note_off_c, 0, 56, 55
3, 260864, Note_on_c, 0, 53, 55
3, 260992, Note_off_c, 0, 53, 55
3, 260992, Note_on_c, 0, 56, 55
3, 261120, Note_off_c, 0, 56, 55
3, 261120, Note_on_c, 0, 55, 55
3, 261248, Note_off_c, 0, 55, 55
3, 261248, Note_on_c, 0, 58, 55
3, 261376, Note_off_c, 0, 58, 55
3, 261376, Note_on_c, 0, 55, 55
3, 261504, Note_off_c, 0, 55, 55
3, 261504, Note_on_c, 0, 58, 55
3, 261632, Note_off_c, 0, 58, 55
3, 261632, Note_on_c, 0, 55, 55
3, 261760, Note_off_c, 0, 55, 55
3, 261760, Note_on_c, 0, 58, 55
3, 261888, Note_off_c, 0, 58, 55
3, 261888, Note_on_c, 0, 55, 55
3, 262016, Note_off_c, 0, 55, 55
3, 262016, Note_on_c, 0, 58, 55
3, 262144, Note_off_c, 0, 58, 55
3, 262144, Note_on_c, 0, 51, 55
3, 262272, Note_off_c, 0, 51, 55
3, 262272, Note_on_c, 0, 55, 55
3, 262400, Note_off_c, 0, 55, 55
3, 262400, Note_on_c, 0, 51, 55
3, 262528, Note_off_c, 0, 51, 55
3, 262528, Note_on_c, 0, 55, 55
3, 262656, Note_off_c, 0, 55, 55
3, 262656, Note_on_c, 0, 51, 55
3, 262784, Note_off_c, 0, 51, 55
3, 262784, Note_on_c, 0, 55, 55
3, 262912, Note_off_c, 0, 55, 55
3, 262912, Note_on_c, 0, 56, 55
3, 263040, Note_off_c, 0, 56, 55
3, 263040, Note_on_c, 0, 55, 55
3, 263168, Note_off_c, 0, 55, 55
3, 263168, Note_on_c, 0, 53, 55
3, 263296, Note_off_c, 0, 53, 55
3, 263296, Note_on_c, 0, 58, 55
3, 263424, Note_off_c, 0, 58, 55
3, 263424, Note_on_c, 0, 53, 55
3, 263552, Note_off_c, 0, 53, 55
3, 263552, Note_on_c, 0, 58, 55
3, 263680, Note_off_c, 0, 58, 55
3, 263680, Note_on_c, 0, 53, 55
3, 263808, Note_off_c, 0, 53, 55
3, 263808, Note_on_c, 0, 58, 55
3, 263936, Note_off_c, 0, 58, 55
3, 263936, Note_on_c, 0, 53, 55
3, 264064, Note_off_c, 0, 53, 55
3, 264064, Note_on_c, 0, 58, 55
3, 264192, Note_off_c, 0, 58, 55
3, 264192, Note_on_c, 0, 53, 55
3, 264320, Note_off_c, 0, 53, 55
3, 264320, Note_on_c, 0, 58, 55
3, 264448, Note_off_c, 0, 58, 55
3, 264448, Note_on_c, 0, 53, 55
3, 264576, Note_off_c, 0, 53, 55
3, 264576, Note_on_c, 0, 58, 55
3, 264704, Note_off_c, 0, 58, 55
3, 264704, Note_on_c, 0, 53, 55
3, 264832, Note_off_c, 0, 53, 55
3, 264832, Note_on_c, 0, 58, 55
3, 264960, Note_off_c, 0, 58, 55
3, 264960, Note_on_c, 0, 56, 55
3, 265088, Note_off_c, 0, 56, 55
3, 265088, Note_on_c, 0, 58, 55
3, 265216, Note_off_c, 0, 58, 55
3, 265216, Note_on_c, 0, 55, 55
3, 265344, Note_off_c, 0, 55, 55
3, 265344, Note_on_c, 0, 58, 55
3, 265472, Note_off_c, 0, 58, 55
3, 265472, Note_on_c, 0, 55, 55
3, 265600, Note_off_c, 0, 55, 55
3, 265600, Note_on_c, 0, 58, 55
3, 265728, Note_off_c, 0, 58, 55
3, 265728, Note_on_c, 0, 55, 55
3, 265856, Note_off_c, 0, 55, 55
3, 265856, Note_on_c, 0, 58, 55
3, 265984, Note_off_c, 0, 58, 55
3, 265984, Note_on_c, 0, 56, 55
3, 266112, Note_off_c, 0, 56, 55
3, 266112, Note_on_c, 0, 58, 55
3, 266240, Note_off_c, 0, 58, 55
3, 266240, Note_on_c, 0, 51, 55
3, 266368, Note_off_c, 0, 51, 55
3, 266368, Note_on_c, 0, 55, 55
3, 266496, Note_off_c, 0, 55, 55
3, 266496, Note_on_c, 0, 51, 55
3, 266624, Note_off_c, 0, 51, 55
3, 266624, Note_on_c, 0, 55, 55
3, 266752, Note_off_c, 0, 55, 55
3, 266752, Note_on_c, 0, 51, 55
3, 266880, Note_off_c, 0, 51, 55
3, 266880, Note_on_c, 0, 55, 55
3, 267008, Note_off_c, 0, 55, 55
3, 267008, Note_on_c, 0, 56, 55
3, 267136, Note_off_c, 0, 56, 55
3, 267136, Note_on_c, 0, 55, 55
3, 267264, Note_off_c, 0, 55, 55
3, 267264, Note_on_c, 0, 53, 55
3, 267392, Note_off_c, 0, 53, 55
3, 267392, Note_on_c, 0, 58, 55
3, 267520, Note_off_c, 0, 58, 55
3, 267520, Note_on_c, 0, 53, 55
3, 267648, Note_off_c, 0, 53, 55
3, 267648, Note_on_c, 0, 58, 55
3, 267776, Note_off_c, 0, 58, 55
3, 267776, Note_on_c, 0, 53, 55
3, 267904, Note_off_c, 0, 53, 55
3, 267904, Note_on_c, 0, 58, 55
3, 268032, Note_off_c, 0, 58, 55
3, 268032, Note_on_c, 0, 53, 55
3, 268160, Note_off_c, 0, 53, 55
3, 268160, Note_on_c, 0, 58, 55
3, 268288, Note_off_c, 0, 58, 55
3, 268288, Note_on_c, 0, 53, 55
3, 268416, Note_off_c, 0, 53, 55
3, 268416, Note_on_c, 0, 58, 55
3, 268544, Note_off_c, 0, 58, 55
3, 268544, Note_on_c, 0, 53, 55
3, 268672, Note_off_c, 0, 53, 55
3, 268672, Note_on_c, 0, 58, 55
3, 268800, Note_off_c, 0, 58, 55
3, 268800, Note_on_c, 0, 53, 55
3, 268928, Note_off_c, 0, 53, 55
3, 268928, Note_on_c, 0, 58, 55
3, 269056, Note_off_c, 0, 58, 55
3, 269056, Note_on_c, 0, 56, 55
3, 269184, Note_off_c, 0, 56, 55
3, 269184, Note_on_c, 0, 58, 55
3, 269312, Note_off_c, 0, 58, 55
3, 269312, Note_on_c, 0, 51, 55
3, 269440, Note_off_c, 0, 51, 55
3, 269440, Note_on_c, 0, 55, 55
3, 269568, Note_off_c, 0, 55, 55
3, 269568, Note_on_c, 0, 51, 55
3, 269696, Note_off_c, 0, 51, 55
3, 269696, Note_on_c, 0, 55, 55
3, 269824, Note_off_c, 0, 55, 55
3, 269824, Note_on_c, 0, 51, 55
3, 269952, Note_off_c, 0, 51, 55
3, 269952, Note_on_c, 0, 58, 55
3, 270080, Note_off_c, 0, 58, 55
3, 270080, Note_on_c, 0, 56, 55
3, 270208, Note_off_c, 0, 56, 55
3, 270208, Note_on_c, 0, 55, 55
3, 270336, Note_off_c, 0, 55, 55
3, 270336, Note_on_c, 0, 55, 55
3, 270336, Note_on_c, 0, 67, 55
3, 270464, Note_off_c, 0, 55, 55
3, 270464, Note_off_c, 0, 67, 55
3, 270464, Note_on_c, 0, 58, 55
3, 270464, Note_on_c, 0, 65, 55
3, 270592, Note_off_c, 0, 58, 55
3, 270592, Note_off_c, 0, 65, 55
3, 270592, Note_on_c, 0, 55, 55
3, 270592, Note_on_c, 0, 63, 55
3, 270720, Note_off_c, 0, 55, 55
3, 270720, Note_off_c, 0, 63, 55
3, 270720, Note_on_c, 0, 58, 55
3, 270848, Note_off_c, 0, 58, 55
3, 270848, Note_on_c, 0, 55, 55
3, 270848, Note_on_c, 0, 65, 55
3, 270976, Note_off_c, 0, 55, 55
3, 270976, Note_off_c, 0, 65, 55
3, 270976, Note_on_c, 0, 58, 55
3, 270976, Note_on_c, 0, 67, 55
3, 271104, Note_off_c, 0, 58, 55
3, 271104, Note_off_c, 0, 67, 55
3, 271104, Note_on_c, 0, 55, 55
3, 271232, Note_off_c, 0, 55, 55
3, 271232, Note_on_c, 0, 58, 55
3, 271360, Note_off_c, 0, 58, 55
3, 271360, Note_on_c, 0, 56, 55
3, 271488, Note_off_c, 0, 56, 55
3, 271488, Note_on_c, 0, 60, 55
3, 271616, Note_off_c, 0, 60, 55
3, 271616, Note_on_c, 0, 56, 55
3, 271744, Note_off_c, 0, 56, 55
3, 271744, Note_on_c, 0, 60, 55
3, 271872, Note_off_c, 0, 60, 55
3, 271872, Note_on_c, 0, 56, 55
3, 272000, Note_off_c, 0, 56, 55
3, 272000, Note_on_c, 0, 60, 55
3, 272128, Note_off_c, 0, 60, 55
3, 272128, Note_on_c, 0, 56, 55
3, 272256, Note_off_c, 0, 56, 55
3, 272256, Note_on_c, 0, 60, 55
3, 272384, Note_off_c, 0, 60, 55
3, 272384, Note_on_c, 0, 53, 55
3, 272512, Note_off_c, 0, 53, 55
3, 272512, Note_on_c, 0, 56, 55
3, 272640, Note_off_c, 0, 56, 55
3, 272640, Note_on_c, 0, 53, 55
3, 272768, Note_off_c, 0, 53, 55
3, 272768, Note_on_c, 0, 56, 55
3, 272896, Note_off_c, 0, 56, 55
3, 272896, Note_on_c, 0, 53, 55
3, 272896, Note_on_c, 0, 62, 55
3, 273024, Note_off_c, 0, 53, 55
3, 273024, Note_off_c, 0, 62, 55
3, 273024, Note_on_c, 0, 56, 55
3, 273024, Note_on_c, 0, 63, 55
3, 273152, Note_off_c, 0, 56, 55
3, 273152, Note_off_c, 0, 63, 55
3, 273152, Note_on_c, 0, 53, 55
3, 273280, Note_off_c, 0, 53, 55
3, 273280, Note_on_c, 0, 56, 55
3, 273408, Note_off_c, 0, 56, 55
3, 273408, Note_on_c, 0, 55, 55
3, 273536, Note_off_c, 0, 55, 55
3, 273536, Note_on_c, 0, 58, 55
3, 273664, Note_off_c, 0, 58, 55
3, 273664, Note_on_c, 0, 55, 55
3, 273792, Note_off_c, 0, 55, 55
3, 273792, Note_on_c, 0, 58, 55
3, 273920, Note_off_c, 0, 58, 55
3, 273920, Note_on_c, 0, 55, 55
3, 274048, Note_off_c, 0, 55, 55
3, 274048, Note_on_c, 0, 58, 55
3, 274176, Note_off_c, 0, 58, 55
3, 274176, Note_on_c, 0, 55, 55
3, 274304, Note_off_c, 0, 55, 55
3, 274304, Note_on_c, 0, 58, 55
3, 274432, Note_off_c, 0, 58, 55
3, 274432, Note_on_c, 0, 55, 55
3, 274560, Note_off_c, 0, 55, 55
3, 274560, Note_on_c, 0, 58, 55
3, 274688, Note_off_c, 0, 58, 55
3, 274688, Note_on_c, 0, 55, 55
3, 274816, Note_off_c, 0, 55, 55
3, 274816, Note_on_c, 0, 58, 55
3, 274944, Note_off_c, 0, 58, 55
3, 274944, Note_on_c, 0, 55, 55
3, 275072, Note_off_c, 0, 55, 55
3, 275072, Note_on_c, 0, 58, 55
3, 275200, Note_off_c, 0, 58, 55
3, 275200, Note_on_c, 0, 55, 55
3, 275328, Note_off_c, 0, 55, 55
3, 275328, Note_on_c, 0, 58, 55
3, 275456, Note_off_c, 0, 58, 55
3, 275456, Note_on_c, 0, 56, 55
3, 275584, Note_off_c, 0, 56, 55
3, 275584, Note_on_c, 0, 60, 55
3, 275712, Note_off_c, 0, 60, 55
3, 275712, Note_on_c, 0, 56, 55
3, 275840, Note_off_c, 0, 56, 55
3, 275840, Note_on_c, 0, 60, 55
3, 275968, Note_off_c, 0, 60, 55
3, 275968, Note_on_c, 0, 56, 55
3, 276096, Note_off_c, 0, 56, 55
3, 276096, Note_on_c, 0, 60, 55
3, 276224, Note_off_c, 0, 60, 55
3, 276224, Note_on_c, 0, 56, 55
3, 276352, Note_off_c, 0, 56, 55
3, 276352, Note_on_c, 0, 60, 55
3, 276480, Note_off_c, 0, 60, 55
3, 276480, Note_on_c, 0, 53, 55
3, 276608, Note_off_c, 0, 53, 55
3, 276608, Note_on_c, 0, 56, 55
3, 276736, Note_off_c, 0, 56, 55
3, 276736, Note_on_c, 0, 53, 55
3, 276864, Note_off_c, 0, 53, 55
3, 276864, Note_on_c, 0, 56, 55
3, 276992, Note_off_c, 0, 56, 55
3, 276992, Note_on_c, 0, 53, 55
3, 277120, Note_off_c, 0, 53, 55
3, 277120, Note_on_c, 0, 56, 55
3, 277248, Note_off_c, 0, 56, 55
3, 277248, Note_on_c, 0, 53, 55
3, 277376, Note_off_c, 0, 53, 55
3, 277376, Note_on_c, 0, 56, 55
3, 277504, Note_off_c, 0, 56, 55
3, 277504, Note_on_c, 0, 55, 55
3, 277632, Note_off_c, 0, 55, 55
3, 277632, Note_on_c, 0, 58, 55
3, 277760, Note_off_c, 0, 58, 55
3, 277760, Note_on_c, 0, 55, 55
3, 277888, Note_off_c, 0, 55, 55
3, 277888, Note_on_c, 0, 58, 55
3, 278016, Note_off_c, 0, 58, 55
3, 278016, Note_on_c, 0, 55, 55
3, 278144, Note_off_c, 0, 55, 55
3, 278144, Note_on_c, 0, 58, 55
3, 278272, Note_off_c, 0, 58, 55
3, 278272, Note_on_c, 0, 55, 55
3, 278400, Note_off_c, 0, 55, 55
3, 278400, Note_on_c, 0, 58, 55
3, 278528, Note_off_c, 0, 58, 55
3, 278528, Note_on_c, 0, 51, 55
3, 278656, Note_off_c, 0, 51, 55
3, 278656, Note_on_c, 0, 55, 55
3, 278784, Note_off_c, 0, 55, 55
3, 278784, Note_on_c, 0, 51, 55
3, 278912, Note_off_c, 0, 51, 55
3, 278912, Note_on_c, 0, 55, 55
3, 279040, Note_off_c, 0, 55, 55
3, 279040, Note_on_c, 0, 51, 55
3, 279168, Note_off_c, 0, 51, 55
3, 279168, Note_on_c, 0, 55, 55
3, 279296, Note_off_c, 0, 55, 55
3, 279296, Note_on_c, 0, 56, 55
3, 279424, Note_off_c, 0, 56, 55
3, 279424, Note_on_c, 0, 55, 55
3, 279552, Note_off_c, 0, 55, 55
3, 279552, Note_on_c, 0, 53, 55
3, 279680, Note_off_c, 0, 53, 55
3, 279680, Note_on_c, 0, 58, 55
3, 279808, Note_off_c, 0, 58, 55
3, 279808, Note_on_c, 0, 53, 55
3, 279936, Note_off_c, 0, 53, 55
3, 279936, Note_on_c, 0, 58, 55
3, 280064, Note_off_c, 0, 58, 55
3, 280064, Note_on_c, 0, 53, 55
3, 280192, Note_off_c, 0, 53, 55
3, 280192, Note_on_c, 0, 58, 55
3, 280320, Note_off_c, 0, 58, 55
3, 280320, Note_on_c, 0, 53, 55
3, 280448, Note_off_c, 0, 53, 55
3, 280448, Note_on_c, 0, 58, 55
3, 280576, Note_off_c, 0, 58, 55
3, 280576, Note_on_c, 0, 53, 55
3, 280704, Note_off_c, 0, 53, 55
3, 280704, Note_on_c, 0, 58, 55
3, 280832, Note_off_c, 0, 58, 55
3, 280832, Note_on_c, 0, 53, 55
3, 280960, Note_off_c, 0, 53, 55
3, 280960, Note_on_c, 0, 58, 55
3, 281088, Note_off_c, 0, 58, 55
3, 281088, Note_on_c, 0, 53, 55
3, 281216, Note_off_c, 0, 53, 55
3, 281216, Note_on_c, 0, 58, 55
3, 281344, Note_off_c, 0, 58, 55
3, 281344, Note_on_c, 0, 56, 55
3, 281472, Note_off_c, 0, 56, 55
3, 281472, Note_on_c, 0, 58, 55
3, 281600, Note_off_c, 0, 58, 55
3, 281600, Note_on_c, 0, 55, 55
3, 281728, Note_off_c, 0, 55, 55
3, 281728, Note_on_c, 0, 58, 55
3, 281856, Note_off_c, 0, 58, 55
3, 281856, Note_on_c, 0, 55, 55
3, 281984, Note_off_c, 0, 55, 55
3, 281984, Note_on_c, 0, 58, 55
3, 282112, Note_off_c, 0, 58, 55
3, 282112, Note_on_c, 0, 55, 55
3, 282240, Note_off_c, 0, 55, 55
3, 282240, Note_on_c, 0, 58, 55
3, 282368, Note_off_c, 0, 58, 55
3, 282368, Note_on_c, 0, 56, 55
3, 282496, Note_off_c, 0, 56, 55
3, 282496, Note_on_c, 0, 58, 55
3, 282624, Note_off_c, 0, 58, 55
3, 282624, Note_on_c, 0, 51, 55
3, 282752, Note_off_c, 0, 51, 55
3, 282752, Note_on_c, 0, 55, 55
3, 282880, Note_off_c, 0, 55, 55
3, 282880, Note_on_c, 0, 51, 55
3, 283008, Note_off_c, 0, 51, 55
3, 283008, Note_on_c, 0, 55, 55
3, 283136, Note_off_c, 0, 55, 55
3, 283136, Note_on_c, 0, 51, 55
3, 283264, Note_off_c, 0, 51, 55
3, 283264, Note_on_c, 0, 55, 55
3, 283392, Note_off_c, 0, 55, 55
3, 283392, Note_on_c, 0, 56, 55
3, 283520, Note_off_c, 0, 56, 55
3, 283520, Note_on_c, 0, 55, 55
3, 283648, Note_off_c, 0, 55, 55
3, 283648, Note_on_c, 0, 53, 55
3, 283776, Note_off_c, 0, 53, 55
3, 283776, Note_on_c, 0, 58, 55
3, 283904, Note_off_c, 0, 58, 55
3, 283904, Note_on_c, 0, 53, 55
3, 284032, Note_off_c, 0, 53, 55
3, 284032, Note_on_c, 0, 58, 55
3, 284160, Note_off_c, 0, 58, 55
3, 284160, Note_on_c, 0, 53, 55
3, 284288, Note_off_c, 0, 53, 55
3, 284288, Note_on_c, 0, 58, 55
3, 284416, Note_off_c, 0, 58, 55
3, 284416, Note_on_c, 0, 53, 55
3, 284544, Note_off_c, 0, 53, 55
3, 284544, Note_on_c, 0, 58, 55
3, 284672, Note_off_c, 0, 58, 55
3, 284672, Note_on_c, 0, 53, 55
3, 284800, Note_off_c, 0, 53, 55
3, 284800, Note_on_c, 0, 58, 55
3, 284928, Note_off_c, 0, 58, 55
3, 284928, Note_on_c, 0, 53, 55
3, 285056, Note_off_c, 0, 53, 55
3, 285056, Note_on_c, 0, 58, 55
3, 285184, Note_off_c, 0, 58, 55
3, 285184, Note_on_c, 0, 53, 55
3, 285312, Note_off_c, 0, 53, 55
3, 285312, Note_on_c, 0, 58, 55
3, 285440, Note_off_c, 0, 58, 55
3, 285440, Note_on_c, 0, 56, 55
3, 285568, Note_off_c, 0, 56, 55
3, 285568, Note_on_c, 0, 58, 55
3, 285696, Note_off_c, 0, 58, 55
3, 285696, Note_on_c, 0, 51, 55
3, 285824, Note_off_c, 0, 51, 55
3, 285824, Note_on_c, 0, 55, 55
3, 285952, Note_off_c, 0, 55, 55
3, 285952, Note_on_c, 0, 51, 55
3, 286080, Note_off_c, 0, 51, 55
3, 286080, Note_on_c, 0, 55, 55
3, 286208, Note_off_c, 0, 55, 55
3, 286208, Note_on_c, 0, 51, 55
3, 286336, Note_off_c, 0, 51, 55
3, 286336, Note_on_c, 0, 58, 55
3, 286464, Note_off_c, 0, 58, 55
3, 286464, Note_on_c, 0, 56, 55
3, 286592, Note_off_c, 0, 56, 55
3, 286592, Note_on_c, 0, 55, 55
3, 286720, Note_off_c, 0, 55, 55
3, 286720, Note_on_c, 0, 55, 55
3, 286720, Note_on_c, 0, 67, 55
3, 286848, Note_off_c, 0, 55, 55
3, 286848, Note_off_c, 0, 67, 55
3, 286848, Note_on_c, 0, 58, 55
3, 286848, Note_on_c, 0, 65, 55
3, 286976, Note_off_c, 0, 58, 55
3, 286976, Note_off_c, 0, 65, 55
3, 286976, Note_on_c, 0, 55, 55
3, 286976, Note_on_c, 0, 63, 55
3, 287104, Note_off_c, 0, 55, 55
3, 287104, Note_off_c, 0, 63, 55
3, 287104, Note_on_c, 0, 58, 55
3, 287232, Note_off_c, 0, 58, 55
3, 287232, Note_on_c, 0, 55, 55
3, 287232, Note_on_c, 0, 65, 55
3, 287360, Note_off_c, 0, 55, 55
3, 287360, Note_off_c, 0, 65, 55
3, 287360, Note_on_c, 0, 58, 55
3, 287360, Note_on_c, 0, 67, 55
3, 287488, Note_off_c, 0, 58, 55
3, 287488, Note_off_c, 0, 67, 55
3, 287488, Note_on_c, 0, 55, 55
3, 287616, Note_off_c, 0, 55, 55
3, 287616, Note_on_c, 0, 58, 55
3, 287744, Note_off_c, 0, 58, 55
3, 287744, Note_on_c, 0, 56, 55
3, 287872, Note_off_c, 0, 56, 55
3, 287872, Note_on_c, 0, 60, 55
3, 288000, Note_off_c, 0, 60, 55
3, 288000, Note_on_c, 0, 56, 55
3, 288128, Note_off_c, 0, 56, 55
3, 288128, Note_on_c, 0, 60, 55
3, 288256, Note_off_c, 0, 60, 55
3, 288256, Note_on_c, 0, 56, 55
3, 288384, Note_off_c, 0, 56, 55
3, 288384, Note_on_c, 0, 60, 55
3, 288512, Note_off_c, 0, 60, 55
3, 288512, Note_on_c, 0, 56, 55
3, 288640, Note_off_c, 0, 56, 55
3, 288640, Note_on_c, 0, 60, 55
3, 288768, Note_off_c, 0, 60, 55
3, 288768, Note_on_c, 0, 53, 55
3, 288896, Note_off_c, 0, 53, 55
3, 288896, Note_on_c, 0, 56, 55
3, 289024, Note_off_c, 0, 56, 55
3, 289024, Note_on_c, 0, 53, 55
3, 289152, Note_off_c, 0, 53, 55
3, 289152, Note_on_c, 0, 56, 55
3, 289280, Note_off_c, 0, 56, 55
3, 289280, Note_on_c, 0, 53, 55
3, 289280, Note_on_c, 0, 62, 55
3, 289408, Note_off_c, 0, 53, 55
3, 289408, Note_off_c, 0, 62, 55
3, 289408, Note_on_c, 0, 56, 55
3, 289408, Note_on_c, 0, 63, 55
3, 289536, Note_off_c, 0, 56, 55
3, 289536, Note_off_c, 0, 63, 55
3, 289536, Note_on_c, 0, 53, 55
3, 289664, Note_off_c, 0, 53, 55
3, 289664, Note_on_c, 0, 56, 55
3, 289792, Note_off_c, 0, 56, 55
3, 289792, Note_on_c, 0, 55, 55
3, 289920, Note_off_c, 0, 55, 55
3, 289920, Note_on_c, 0, 58, 55
3, 290048, Note_off_c, 0, 58, 55
3, 290048, Note_on_c, 0, 55, 55
3, 290176, Note_off_c, 0, 55, 55
3, 290176, Note_on_c, 0, 58, 55
3, 290304, Note_off_c, 0, 58, 55
3, 290304, Note_on_c, 0, 55, 55
3, 290432, Note_off_c, 0, 55, 55
3, 290432, Note_on_c, 0, 58, 55
3, 290560, Note_off_c, 0, 58, 55
3, 290560, Note_on_c, 0, 55, 55
3, 290688, Note_off_c, 0, 55, 55
3, 290688, Note_on_c, 0, 58, 55
3, 290816, Note_off_c, 0, 58, 55
3, 290816, Note_on_c, 0, 55, 55
3, 290944, Note_off_c, 0, 55, 55
3, 290944, Note_on_c, 0, 58, 55
3, 291072, Note_off_c, 0, 58, 55
3, 291072, Note_on_c, 0, 55, 55
3, 291200, Note_off_c, 0, 55, 55
3, 291200, Note_on_c, 0, 58, 55
3, 291328, Note_off_c, 0, 58, 55
3, 291328, Note_on_c, 0, 55, 55
3, 291456, Note_off_c, 0, 55, 55
3, 291456, Note_on_c, 0, 58, 55
3, 291584, Note_off_c, 0, 58, 55
3, 291584, Note_on_c, 0, 55, 55
3, 291712, Note_off_c, 0, 55, 55
3, 291712, Note_on_c, 0, 58, 55
3, 291840, Note_off_c, 0, 58, 55
3, 291840, Note_on_c, 0, 56, 55
3, 291968, Note_off_c, 0, 56, 55
3, 291968, Note_on_c, 0, 60, 55
3, 292096, Note_off_c, 0, 60, 55
3, 292096, Note_on_c, 0, 56, 55
3, 292224, Note_off_c, 0, 56, 55
3, 292224, Note_on_c, 0, 60, 55
3, 292352, Note_off_c, 0, 60, 55
3, 292352, Note_on_c, 0, 56, 55
3, 292480, Note_off_c, 0, 56, 55
3, 292480, Note_on_c, 0, 60, 55
3, 292608, Note_off_c, 0, 60, 55
3, 292608, Note_on_c, 0, 56, 55
3, 292736, Note_off_c, 0, 56, 55
3, 292736, Note_on_c, 0, 60, 55
3, 292864, Note_off_c, 0, 60, 55
3, 292864, Note_on_c, 0, 53, 55
3, 292992, Note_off_c, 0, 53, 55
3, 292992, Note_on_c, 0, 56, 55
3, 293120, Note_off_c, 0, 56, 55
3, 293120, Note_on_c, 0, 53, 55
3, 293248, Note_off_c, 0, 53, 55
3, 293248, Note_on_c, 0, 56, 55
3, 293376, Note_off_c, 0, 56, 55
3, 293376, Note_on_c, 0, 53, 55
3, 293504, Note_off_c, 0, 53, 55
3, 293504, Note_on_c, 0, 56, 55
3, 293632, Note_off_c, 0, 56, 55
3, 293632, Note_on_c, 0, 53, 55
3, 293760, Note_off_c, 0, 53, 55
3, 293760, Note_on_c, 0, 56, 55
3, 293888, Note_off_c, 0, 56, 55
3, 293888, Note_on_c, 0, 55, 55
3, 294016, Note_off_c, 0, 55, 55
3, 294016, Note_on_c, 0, 58, 55
3, 294144, Note_off_c, 0, 58, 55
3, 294144, Note_on_c, 0, 55, 55
3, 294272, Note_off_c, 0, 55, 55
3, 294272, Note_on_c, 0, 58, 55
3, 294400, Note_off_c, 0, 58, 55
3, 294400, Note_on_c, 0, 55, 55
3, 294528, Note_off_c, 0, 55, 55
3, 294528, Note_on_c, 0, 58, 55
3, 294656, Note_off_c, 0, 58, 55
3, 294656, Note_on_c, 0, 55, 55
3, 294784, Note_off_c, 0, 55, 55
3, 294784, Note_on_c, 0, 58, 55
3, 294912, Note_off_c, 0, 58, 55
3, 294912, Note_on_c, 0, 51, 55
3, 295040, Note_off_c, 0, 51, 55
3, 295040, Note_on_c, 0, 55, 55
3, 295168, Note_off_c, 0, 55, 55
3, 295168, Note_on_c, 0, 51, 55
3, 295296, Note_off_c, 0, 51, 55
3, 295296, Note_on_c, 0, 55, 55
3, 295424, Note_off_c, 0, 55, 55
3, 295424, Note_on_c, 0, 51, 55
3, 295552, Note_off_c, 0, 51, 55
3, 295552, Note_on_c, 0, 55, 55
3, 295680, Note_off_c, 0, 55, 55
3, 295680, Note_on_c, 0, 56, 55
3, 295808, Note_off_c, 0, 56, 55
3, 295808, Note_on_c, 0, 55, 55
3, 295936, Note_off_c, 0, 55, 55
3, 295936, Note_on_c, 0, 53, 55
3, 296064, Note_off_c, 0, 53, 55
3, 296064, Note_on_c, 0, 58, 55
3, 296192, Note_off_c, 0, 58, 55
3, 296192, Note_on_c, 0, 53, 55
3, 296320, Note_off_c, 0, 53, 55
3, 296320, Note_on_c, 0, 58, 55
3, 296448, Note_off_c, 0, 58, 55
3, 296448, Note_on_c, 0, 53, 55
3, 296576, Note_off_c, 0, 53, 55
3, 296576, Note_on_c, 0, 58, 55
3, 296704, Note_off_c, 0, 58, 55
3, 296704, Note_on_c, 0, 53, 55
3, 296832, Note_off_c, 0, 53, 55
3, 296832, Note_on_c, 0, 58, 55
3, 296960, Note_off_c, 0, 58, 55
3, 296960, Note_on_c, 0, 53, 55
3, 297088, Note_off_c, 0, 53, 55
3, 297088, Note_on_c, 0, 58, 55
3, 297216, Note_off_c, 0, 58, 55
3, 297216, Note_on_c, 0, 53, 55
3, 297344, Note_off_c, 0, 53, 55
3, 297344, Note_on_c, 0, 58, 55
3, 297472, Note_off_c, 0, 58, 55
3, 297472, Note_on_c, 0, 53, 55
3, 297600, Note_off_c, 0, 53, 55
3, 297600, Note_on_c, 0, 58, 55
3, 297728, Note_off_c, 0, 58, 55
3, 297728, Note_on_c, 0, 56, 55
3, 297856, Note_off_c, 0, 56, 55
3, 297856, Note_on_c, 0, 58, 55
3, 297984, Note_off_c, 0, 58, 55
3, 297984, Note_on_c, 0, 55, 55
3, 298112, Note_off_c, 0, 55, 55
3, 298112, Note_on_c, 0, 58, 55
3, 298240, Note_off_c, 0, 58, 55
3, 298240, Note_on_c, 0, 55, 55
3, 298368, Note_off_c, 0, 55, 55
3, 298368, Note_on_c, 0, 58, 55
3, 298496, Note_off_c, 0, 58, 55
3, 298496, Note_on_c, 0, 55, 55
3, 298624, Note_off_c, 0, 55, 55
3, 298624, Note_on_c, 0, 58, 55
3, 298752, Note_off_c, 0, 58, 55
3, 298752, Note_on_c, 0, 56, 55
3, 298880, Note_off_c, 0, 56, 55
3, 298880, Note_on_c, 0, 58, 55
3, 299008, Note_off_c, 0, 58, 55
3, 299008, Note_on_c, 0, 51, 55
3, 299136, Note_off_c, 0, 51, 55
3, 299136, Note_on_c, 0, 55, 55
3, 299264, Note_off_c, 0, 55, 55
3, 299264, Note_on_c, 0, 51, 55
3, 299392, Note_off_c, 0, 51, 55
3, 299392, Note_on_c, 0, 55, 55
3, 299520, Note_off_c, 0, 55, 55
3, 299520, Note_on_c, 0, 51, 55
3, 299648, Note_off_c, 0, 51, 55
3, 299648, Note_on_c, 0, 55, 55
3, 299776, Note_off_c, 0, 55, 55
3, 299776, Note_on_c, 0, 56, 55
3, 299904, Note_off_c, 0, 56, 55
3, 299904, Note_on_c, 0, 55, 55
3, 300032, Note_off_c, 0, 55, 55
3, 300032, Note_on_c, 0, 53, 55
3, 300160, Note_off_c, 0, 53, 55
3, 300160, Note_on_c, 0, 58, 55
3, 300288, Note_off_c, 0, 58, 55
3, 300288, Note_on_c, 0, 53, 55
3, 300416, Note_off_c, 0, 53, 55
3, 300416, Note_on_c, 0, 58, 55
3, 300544, Note_off_c, 0, 58, 55
3, 300544, Note_on_c, 0, 53, 55
3, 300672, Note_off_c, 0, 53, 55
3, 300672, Note_on_c, 0, 58, 55
3, 300800, Note_off_c, 0, 58, 55
3, 300800, Note_on_c, 0, 53, 55
3, 300928, Note_off_c, 0, 53, 55
3, 300928, Note_on_c, 0, 58, 55
3, 301056, Note_off_c, 0, 58, 55
3, 301056, Note_on_c, 0, 53, 55
3, 301184, Note_off_c, 0, 53, 55
3, 301184, Note_on_c, 0, 58, 55
3, 301312, Note_off_c, 0, 58, 55
3, 301312, Note_on_c, 0, 53, 55
3, 301440, Note_off_c, 0, 53, 55
3, 301440, Note_on_c, 0, 58, 55
3, 301568, Note_off_c, 0, 58, 55
3, 301568, Note_on_c, 0, 53, 55
3, 301696, Note_off_c, 0, 53, 55
3, 301696, Note_on_c, 0, 58, 55
3, 301824, Note_off_c, 0, 58, 55
3, 301824, Note_on_c, 0, 56, 55
3, 301952, Note_off_c, 0, 56, 55
3, 301952, Note_on_c, 0, 58, 55
3, 302080, Note_off_c, 0, 58, 55
3, 302080, Note_on_c, 0, 51, 55
3, 302208, Note_off_c, 0, 51, 55
3, 302208, Note_on_c, 0, 55, 55
3, 302336, Note_off_c, 0, 55, 55
3, 302336, Note_on_c, 0, 51, 55
3, 302464, Note_off_c, 0, 51, 55
3, 302464, Note_on_c, 0, 55, 55
3, 302592, Note_off_c, 0, 55, 55
3, 302592, Note_on_c, 0, 51, 55
3, 302720, Note_off_c, 0, 51, 55
3, 302720, Note_on_c, 0, 58, 55
3, 302848, Note_off_c, 0, 58, 55
3, 302848, Note_on_c, 0, 56, 55
3, 302976, Note_off_c, 0, 56, 55
3, 302976, Note_on_c, 0, 55, 55
3, 303104, Note_off_c, 0, 55, 55
3, 303104, Note_on_c, 0, 55, 55
3, 303104, Note_on_c, 0, 67, 55
3, 303232, Note_off_c, 0, 55, 55
3, 303232, Note_off_c, 0, 67, 55
3, 303232, Note_on_c, 0, 58, 55
3, 303232, Note_on_c, 0, 65, 55
3, 303360, Note_off_c, 0, 58, 55
3, 303360, Note_off_c, 0, 65, 55
3, 303360, Note_on_c, 0, 55, 55
3, 303360, Note_on_c, 0, 63, 55
3, 303488, Note_off_c, 0, 55, 55
3, 303488, Note_off_c, 0, 63, 55
3, 303488, Note_on_c, 0, 58, 55
3, 303616, Note_off_c, 0, 58, 55
3, 303616, Note_on_c, 0, 55, 55
3, 303616, Note_on_c, 0, 65, 55
3, 303744, Note_off_c, 0, 55, 55
3, 303744, Note_off_c, 0, 65, 55
3, 303744, Note_on_c, 0, 58, 55
3, 303744, Note_on_c, 0, 67, 55
3, 303872, Note_off_c, 0, 58, 55
3, 303872, Note_off_c, 0, 67, 55
3, 303872, Note_on_c, 0, 55, 55
3, 304000, Note_off_c, 0, 55, 55
3, 304000, Note_on_c, 0, 58, 55
3, 304128, Note_off_c, 0, 58, 55
3, 304128, Note_on_c, 0, 56, 55
3, 304256, Note_off_c, 0, 56, 55
3, 304256, Note_on_c, 0, 60, 55
3, 304384, Note_off_c, 0, 60, 55
3, 304384, Note_on_c, 0, 56, 55
3, 304512, Note_off_c, 0, 56, 55
3, 304512, Note_on_c, 0, 60, 55
3, 304640, Note_off_c, 0, 60, 55
3, 304640, Note_on_c, 0, 56, 55
3, 304768, Note_off_c, 0, 56, 55
3, 304768, Note_on_c, 0, 60, 55
3, 304896, Note_off_c, 0, 60, 55
3, 304896, Note_on_c, 0, 56, 55
3, 305024, Note_off_c, 0, 56, 55
3, 305024, Note_on_c, 0, 60, 55
3, 305152, Note_off_c, 0, 60, 55
3, 305152, Note_on_c, 0, 53, 55
3, 305280, Note_off_c, 0, 53, 55
3, 305280, Note_on_c, 0, 56, 55
3, 305408, Note_off_c, 0, 56, 55
3, 305408, Note_on_c, 0, 53, 55
3, 305536, Note_off_c, 0, 53, 55
3, 305536, Note_on_c, 0, 56, 55
3, 305664, Note_off_c, 0, 56, 55
3, 305664, Note_on_c, 0, 53, 55
3, 305664, Note_on_c, 0, 62, 55
3, 305792, Note_off_c, 0, 53, 55
3, 305792, Note_off_c, 0, 62, 55
3, 305792, Note_on_c, 0, 56, 55
3, 305792, Note_on_c, 0, 63, 55
3, 305920, Note_off_c, 0, 56, 55
3, 305920, Note_off_c, 0, 63, 55
3, 305920, Note_on_c, 0, 53, 55
3, 306048, Note_off_c, 0, 53, 55
3, 306048, Note_on_c, 0, 56, 55
3, 306176, Note_off_c, 0, 56, 55
3, 306176, Note_on_c, 0, 55, 55
3, 306304, Note_off_c, 0, 55, 55
3, 306304, Note_on_c, 0, 58, 55
3, 306432, Note_off_c, 0, 58, 55
3, 306432, Note_on_c, 0, 55, 55
3, 306560, Note_off_c, 0, 55, 55
3, 306560, Note_on_c, 0, 58, 55
3, 306688, Note_off_c, 0, 58, 55
3, 306688, Note_on_c, 0, 55, 55
3, 306816, Note_off_c, 0, 55, 55
3, 306816, Note_on_c, 0, 58, 55
3, 306944, Note_off_c, 0, 58, 55
3, 306944, Note_on_c, 0, 55, 55
3, 307072, Note_off_c, 0, 55, 55
3, 307072, Note_on_c, 0, 58, 55
3, 307200, Note_off_c, 0, 58, 55
3, 307200, Note_on_c, 0, 55, 55
3, 307328, Note_off_c, 0, 55, 55
3, 307328, Note_on_c, 0, 58, 55
3, 307456, Note_off_c, 0, 58, 55
3, 307456, Note_on_c, 0, 55, 55
3, 307584, Note_off_c, 0, 55, 55
3, 307584, Note_on_c, 0, 58, 55
3, 307712, Note_off_c, 0, 58, 55
3, 307712, Note_on_c, 0, 55, 55
3, 307840, Note_off_c, 0, 55, 55
3, 307840, Note_on_c, 0, 58, 55
3, 307968, Note_off_c, 0, 58, 55
3, 307968, Note_on_c, 0, 55, 55
3, 308096, Note_off_c, 0, 55, 55
3, 308096, Note_on_c, 0, 58, 55
3, 308224, Note_off_c, 0, 58, 55
3, 308224, Note_on_c, 0, 56, 55
3, 308352, Note_off_c, 0, 56, 55
3, 308352, Note_on_c, 0, 60, 55
3, 308480, Note_off_c, 0, 60, 55
3, 308480, Note_on_c, 0, 56, 55
3, 308608, Note_off_c, 0, 56, 55
3, 308608, Note_on_c, 0, 60, 55
3, 308736, Note_off_c, 0, 60, 55
3, 308736, Note_on_c, 0, 56, 55
3, 308864, Note_off_c, 0, 56, 55
3, 308864, Note_on_c, 0, 60, 55
3, 308992, Note_off_c, 0, 60, 55
3, 308992, Note_on_c, 0, 56, 55
3, 309120, Note_off_c, 0, 56, 55
3, 309120, Note_on_c, 0, 60, 55
3, 309248, Note_off_c, 0, 60, 55
3, 309248, Note_on_c, 0, 53, 55
3, 309376, Note_off_c, 0, 53, 55
3, 309376, Note_on_c, 0, 56, 55
3, 309504, Note_off_c, 0, 56, 55
3, 309504, Note_on_c, 0, 53, 55
3, 309632, Note_off_c, 0, 53, 55
3, 309632, Note_on_c, 0, 56, 55
3, 309760, Note_off_c, 0, 56, 55
3, 309760, Note_on_c, 0, 53, 55
3, 309888, Note_off_c, 0, 53, 55
3, 309888, Note_on_c, 0, 56, 55
3, 310016, Note_off_c, 0, 56, 55
3, 310016, Note_on_c, 0, 53, 55
3, 310144, Note_off_c, 0, 53, 55
3, 310144, Note_on_c, 0, 56, 55
3, 310272, Note_off_c, 0, 56, 55
3, 310272, Note_on_c, 0, 55, 55
3, 310400, Note_off_c, 0, 55, 55
3, 310400, Note_on_c, 0, 58, 55
3, 310528, Note_off_c, 0, 58, 55
3, 310528, Note_on_c, 0, 55, 55
3, 310656, Note_off_c, 0, 55, 55
3, 310656, Note_on_c, 0, 58, 55
3, 310784, Note_off_c, 0, 58, 55
3, 310784, Note_on_c, 0, 55, 55
3, 310912, Note_off_c, 0, 55, 55
3, 310912, Note_on_c, 0, 58, 55
3, 311040, Note_off_c, 0, 58, 55
3, 311040, Note_on_c, 0, 55, 55
3, 311168, Note_off_c, 0, 55, 55
3, 311168, Note_on_c, 0, 58, 55
3, 311296, Note_off_c, 0, 58, 55
3, 311296, Note_on_c, 0, 51, 55
3, 311424, Note_off_c, 0, 51, 55
3, 311424, Note_on_c, 0, 55, 55
3, 311552, Note_off_c, 0, 55, 55
3, 311552, Note_on_c, 0, 51, 55
3, 311680, Note_off_c, 0, 51, 55
3, 311680, Note_on_c, 0, 55, 55
3, 311808, Note_off_c, 0, 55, 55
3, 311808, Note_on_c, 0, 51, 55
3, 311936, Note_off_c, 0, 51, 55
3, 311936, Note_on_c, 0, 55, 55
3, 312064, Note_off_c, 0, 55, 55
3, 312064, Note_on_c, 0, 56, 55
3, 312192, Note_off_c, 0, 56, 55
3, 312192, Note_on_c, 0, 55, 55
3, 312320, Note_off_c, 0, 55, 55
3, 312320, Note_on_c, 0, 53, 55
3, 312448, Note_off_c, 0, 53, 55
3, 312448, Note_on_c, 0, 58, 55
3, 312576, Note_off_c, 0, 58, 55
3, 312576, Note_on_c, 0, 53, 55
3, 312704, Note_off_c, 0, 53, 55
3, 312704, Note_on_c, 0, 58, 55
3, 312832, Note_off_c, 0, 58, 55
3, 312832, Note_on_c, 0, 53, 55
3, 312960, Note_off_c, 0, 53, 55
3, 312960, Note_on_c, 0, 58, 55
3, 313088, Note_off_c, 0, 58, 55
3, 313088, Note_on_c, 0, 53, 55
3, 313216, Note_off_c, 0, 53, 55
3, 313216, Note_on_c, 0, 58, 55
3, 313344, Note_off_c, 0, 58, 55
3, 313344, Note_on_c, 0, 53, 55
3, 313472, Note_off_c, 0, 53, 55
3, 313472, Note_on_c, 0, 58, 55
3, 313600, Note_off_c, 0, 58, 55
3, 313600, Note_on_c, 0, 53, 55
3, 313728, Note_off_c, 0, 53, 55
3, 313728, Note_on_c, 0, 58, 55
3, 313856, Note_off_c, 0, 58, 55
3, 313856, Note_on_c, 0, 53, 55
3, 313984, Note_off_c, 0, 53, 55
3, 313984, Note_on_c, 0, 58, 55
3, 314112, Note_off_c, 0, 58, 55
3, 314112, Note_on_c, 0, 56, 55
3, 314240, Note_off_c, 0, 56, 55
3, 314240, Note_on_c, 0, 58, 55
3, 314368, Note_off_c, 0, 58, 55
3, 314368, Note_on_c, 0, 55, 55
3, 314496, Note_off_c, 0, 55, 55
3, 314496, Note_on_c, 0, 58, 55
3, 314624, Note_off_c, 0, 58, 55
3, 314624, Note_on_c, 0, 55, 55
3, 314752, Note_off_c, 0, 55, 55
3, 314752, Note_on_c, 0, 58, 55
3, 314880, Note_off_c, 0, 58, 55
3, 314880, Note_on_c, 0, 55, 55
3, 315008, Note_off_c, 0, 55, 55
3, 315008, Note_on_c, 0, 58, 55
3, 315136, Note_off_c, 0, 58, 55
3, 315136, Note_on_c, 0, 56, 55
3, 315264, Note_off_c, 0, 56, 55
3, 315264, Note_on_c, 0, 58, 55
3, 315392, Note_off_c, 0, 58, 55
3, 315392, Note_on_c, 0, 51, 55
3, 315520, Note_off_c, 0, 51, 55
3, 315520, Note_on_c, 0, 55, 55
3, 315648, Note_off_c, 0, 55, 55
3, 315648, Note_on_c, 0, 51, 55
3, 315776, Note_off_c, 0, 51, 55
3, 315776, Note_on_c, 0, 55, 55
3, 315904, Note_off_c, 0, 55, 55
3, 315904, Note_on_c, 0, 51, 55
3, 316032, Note_off_c, 0, 51, 55
3, 316032, Note_on_c, 0, 55, 55
3, 316160, Note_off_c, 0, 55, 55
3, 316160, Note_on_c, 0, 56, 55
3, 316288, Note_off_c, 0, 56, 55
3, 316288, Note_on_c, 0, 55, 55
3, 316416, Note_off_c, 0, 55, 55
3, 316416, Note_on_c, 0, 53, 55
3, 316544, Note_off_c, 0, 53, 55
3, 316544, Note_on_c, 0, 58, 55
3, 316672, Note_off_c, 0, 58, 55
3, 316672, Note_on_c, 0, 53, 55
3, 316800, Note_off_c, 0, 53, 55
3, 316800, Note_on_c, 0, 58, 55
3, 316928, Note_off_c, 0, 58, 55
3, 316928, Note_on_c, 0, 53, 55
3, 317056, Note_off_c, 0, 53, 55
3, 317056, Note_on_c, 0, 58, 55
3, 317184, Note_off_c, 0, 58, 55
3, 317184, Note_on_c, 0, 53, 55
3, 317312, Note_off_c, 0, 53, 55
3, 317312, Note_on_c, 0, 58, 55
3, 317440, Note_off_c, 0, 58, 55
3, 317440, Note_on_c, 0, 53, 55
3, 317568, Note_off_c, 0, 53, 55
3, 317568, Note_on_c, 0, 58, 55
3, 317696, Note_off_c, 0, 58, 55
3, 317696, Note_on_c, 0, 53, 55
3, 317824, Note_off_c, 0, 53, 55
3, 317824, Note_on_c, 0, 58, 55
3, 317952, Note_off_c, 0, 58, 55
3, 317952, Note_on_c, 0, 53, 55
3, 318080, Note_off_c, 0, 53, 55
3, 318080, Note_on_c, 0, 58, 55
3, 318208, Note_off_c, 0, 58, 55
3, 318208, Note_on_c, 0, 56, 55
3, 318336, Note_off_c, 0, 56, 55
3, 318336, Note_on_c, 0, 58, 55
3, 318464, Note_off_c, 0, 58, 55
3, 318464, Note_on_c, 0, 51, 55
3, 318592, Note_off_c, 0, 51, 55
3, 318592, Note_on_c, 0, 55, 55
3, 318720, Note_off_c, 0, 55, 55
3, 318720, Note_on_c, 0, 51, 55
3, 318848, Note_off_c, 0, 51, 55
3, 318848, Note_on_c, 0, 55, 55
3, 318976, Note_off_c, 0, 55, 55
3, 318976, Note_on_c, 0, 51, 55
3, 319104, Note_off_c, 0, 51, 55
3, 319104, Note_on_c, 0, 58, 55
3, 319232, Note_off_c, 0, 58, 55
3, 319232, Note_on_c, 0, 56, 55
3, 319360, Note_off_c, 0, 56, 55
3, 319360, Note_on_c, 0, 55, 55
3, 319488, Note_off_c, 0, 55, 55
3, 319488, Note_on_c, 0, 55, 55
3, 319488, Note_on_c, 0, 67, 55
3, 319616, Note_off_c, 0, 55, 55
3, 319616, Note_off_c, 0, 67, 55
3, 319616, Note_on_c, 0, 58, 55
3, 319616, Note_on_c, 0, 65, 55
3, 319744, Note_off_c, 0, 58, 55
3, 319744, Note_off_c, 0, 65, 55
3, 319744, Note_on_c, 0, 55, 55
3, 319744, Note_on_c, 0, 63, 55
3, 319872, Note_off_c, 0, 55, 55
3, 319872, Note_off_c, 0, 63, 55
3, 319872, Note_on_c, 0, 58, 55
3, 320000, Note_off_c, 0, 58, 55
3, 320000, Note_on_c, 0, 55, 55
3, 320000, Note_on_c, 0, 65, 55
3, 320128, Note_off_c, 0, 55, 55
3, 320128, Note_off_c, 0, 65, 55
3, 320128, Note_on_c, 0, 58, 55
3, 320128, Note_on_c, 0, 67, 55
3, 320256, Note_off_c, 0, 58, 55
3, 320256, Note_off_c, 0, 67, 55
3, 320256, Note_on_c, 0, 55, 55
3, 320384, Note_off_c, 0, 55, 55
3, 320384, Note_on_c, 0, 58, 55
3, 320512, Note_off_c, 0, 58, 55
3, 320512, Note_on_c, 0, 56, 55
3, 320640, Note_off_c, 0, 56, 55
3, 320640, Note_on_c, 0, 60, 55
3, 320768, Note_off_c, 0, 60, 55
3, 320768, Note_on_c, 0, 56, 55
3, 320896, Note_off_c, 0, 56, 55
3, 320896, Note_on_c, 0, 60, 55
3, 321024, Note_off_c, 0, 60, 55
3, 321024, Note_on_c, 0, 56, 55
3, 321152, Note_off_c, 0, 56, 55
3, 321152, Note_on_c, 0, 60, 55
3, 321280, Note_off_c, 0, 60, 55
3, 321280, Note_on_c, 0, 56, 55
3, 321408, Note_off_c, 0, 56, 55
3, 321408, Note_on_c, 0, 60, 55
3, 321536, Note_off_c, 0, 60, 55
3, 321536, Note_on_c, 0, 53, 55
3, 321664, Note_off_c, 0, 53, 55
3, 321664, Note_on_c, 0, 56, 55
3, 321792, Note_off_c, 0, 56, 55
3, 321792, Note_on_c, 0, 53, 55
3, 321920, Note_off_c, 0, 53, 55
3, 321920, Note_on_c, 0, 56, 55
3, 322048, Note_off_c, 0, 56, 55
3, 322048, Note_on_c, 0, 53, 55
3, 322048, Note_on_c, 0, 62, 55
3, 322176, Note_off_c, 0, 53, 55
3, 322176, Note_off_c, 0, 62, 55
3, 322176, Note_on_c, 0, 56, 55
3, 322176, Note_on_c, 0, 63, 55
3, 322304, Note_off_c, 0, 56, 55
3, 322304, Note_off_c, 0, 63, 55
3, 322304, Note_on_c, 0, 53, 55
3, 322432, Note_off_c, 0, 53, 55
3, 322432, Note_on_c, 0, 56, 55
3, 322560, Note_off_c, 0, 56, 55
3, 322560, Note_on_c, 0, 55, 55
3, 322688, Note_off_c, 0, 55, 55
3, 322688, Note_on_c, 0, 58, 55
3, 322816, Note_off_c, 0, 58, 55
3, 322816, Note_on_c, 0, 55, 55
3, 322944, Note_off_c, 0, 55, 55
3, 322944, Note_on_c, 0, 58, 55
3, 323072, Note_off_c, 0, 58, 55
3, 323072, Note_on_c, 0, 55, 55
3, 323200, Note_off_c, 0, 55, 55
3, 323200, Note_on_c, 0, 58, 55
3, 323328, Note_off_c, 0, 58, 55
3, 323328, Note_on_c, 0, 55, 55
3, 323456, Note_off_c, 0, 55, 55
3, 323456, Note_on_c, 0, 58, 55
3, 323584, Note_off_c, 0, 58, 55
3, 323584, Note_on_c, 0, 55, 55
3, 323712, Note_off_c, 0, 55, 55
3, 323712, Note_on_c, 0, 58, 55
3, 323840, Note_off_c, 0, 58, 55
3, 323840, Note_on_c, 0, 55, 55
3, 323968, Note_off_c, 0, 55, 55
3, 323968, Note_on_c, 0, 58, 55
3, 324096, Note_off_c, 0, 58, 55
3, 324096, Note_on_c, 0, 55, 55
3, 324224, Note_off_c, 0, 55, 55
3, 324224, Note_on_c, 0, 58, 55
3, 324352, Note_off_c, 0, 58, 55
3, 324352, Note_on_c, 0, 55, 55
3, 324480, Note_off_c, 0, 55, 55
3, 324480, Note_on_c, 0, 58, 55
3, 324608, Note_off_c, 0, 58, 55
3, 324608, Note_on_c, 0, 56, 55
3, 324736, Note_off_c, 0, 56, 55
3, 324736, Note_on_c, 0, 60, 55
3, 324864, Note_off_c, 0, 60, 55
3, 324864, Note_on_c, 0, 56, 55
3, 324992, Note_off_c, 0, 56, 55
3, 324992, Note_on_c, 0, 60, 55
3, 325120, Note_off_c, 0, 60, 55
3, 325120, Note_on_c, 0, 56, 55
3, 325248, Note_off_c, 0, 56, 55
3, 325248, Note_on_c, 0, 60, 55
3, 325376, Note_off_c, 0, 60, 55
3, 325376, Note_on_c, 0, 56, 55
3, 325504, Note_off_c, 0, 56, 55
3, 325504, Note_on_c, 0, 60, 55
3, 325632, Note_off_c, 0, 60, 55
3, 325632, Note_on_c, 0, 53, 55
3, 325760, Note_off_c, 0, 53, 55
3, 325760, Note_on_c, 0, 56, 55
3, 325888, Note_off_c, 0, 56, 55
3, 325888, Note_on_c, 0, 53, 55
3, 326016, Note_off_c, 0, 53, 55
3, 326016, Note_on_c, 0, 56, 55
3, 326144, Note_off_c, 0, 56, 55
3, 326144, Note_on_c, 0, 53, 55
3, 326272, Note_off_c, 0, 53, 55
3, 326272, Note_on_c, 0, 56, 55
3, 326400, Note_off_c, 0, 56, 55
3, 326400, Note_on_c, 0, 53, 55
3, 326528, Note_off_c, 0, 53, 55
3, 326528, Note_on_c, 0, 56, 55
3, 326656, Note_off_c, 0, 56, 55
3, 326656, Note_on_c, 0, 55, 55
3, 326784, Note_off_c, 0, 55, 55
3, 326784, Note_on_c, 0, 58, 55
3, 326912, Note_off_c, 0, 58, 55
3, 326912, Note_on_c, 0, 55, 55
3, 327040, Note_off_c, 0, 55, 55
3, 327040, Note_on_c, 0, 58, 55
3, 327168, Note_off_c, 0, 58, 55
3, 327168, Note_on_c, 0, 55, 55
3, 327296, Note_off_c, 0, 55, 55
3, 327296, Note_on_c, 0, 58, 55
3, 327424, Note_off_c, 0, 58, 55
3, 327424, Note_on_c, 0, 55, 55
3, 327552, Note_off_c, 0, 55, 55
3, 327552, Note_on_c, 0, 58, 55
3, 327680, Note_off_c, 0, 58, 55
3, 327680, Note_on_c, 0, 51, 55
3, 327808, Note_off_c, 0, 51, 55
3, 327808, Note_on_c, 0, 55, 55
3, 327936, Note_off_c, 0, 55, 55
3, 327936, Note_on_c, 0, 51, 55
3, 328064, Note_off_c, 0, 51, 55
3, 328064, Note_on_c, 0, 55, 55
3, 328192, Note_off_c, 0, 55, 55
3, 328192, Note_on_c, 0, 51, 55
3, 328320, Note_off_c, 0, 51, 55
3, 328320, Note_on_c, 0, 55, 55
3, 328448, Note_off_c, 0, 55, 55
3, 328448, Note_on_c, 0, 56, 55
3, 328576, Note_off_c, 0, 56, 55
3, 328576, Note_on_c, 0, 55, 55
3, 328704, Note_off_c, 0, 55, 55
3, 328704, Note_on_c, 0, 53, 55
3, 328832, Note_off_c, 0, 53, 55
3, 328832, Note_on_c, 0, 58, 55
3, 328960, Note_off_c, 0, 58, 55
3, 328960, Note_on_c, 0, 53, 55
3, 329088, Note_off_c, 0, 53, 55
3, 329088, Note_on_c, 0, 58, 55
3, 329216, Note_off_c, 0, 58, 55
3, 329216, Note_on_c, 0, 53, 55
3, 329344, Note_off_c, 0, 53, 55
3, 329344, Note_on_c, 0, 58, 55
3, 329472, Note_off_c, 0, 58, 55
3, 329472, Note_on_c, 0, 53, 55
3, 329600, Note_off_c, 0, 53, 55
3, 329600, Note_on_c, 0, 58, 55
3, 329728, Note_off_c, 0, 58, 55
3, 329728, Note_on_c, 0, 53, 55
3, 329856, Note_off_c, 0, 53, 55
3, 329856, Note_on_c, 0, 58, 55
3, 329984, Note_off_c, 0, 58, 55
3, 329984, Note_on_c, 0, 53, 55
3, 330112, Note_off_c, 0, 53, 55
3, 330112, Note_on_c, 0, 58, 55
3, 330240, Note_off_c, 0, 58, 55
3, 330240, Note_on_c, 0, 53, 55
3, 330368, Note_off_c, 0, 53, 55
3, 330368, Note_on_c, 0, 58, 55
3, 330496, Note_off_c, 0, 58, 55
3, 330496, Note_on_c, 0, 56, 55
3, 330624, Note_off_c, 0, 56, 55
3, 330624, Note_on_c, 0, 58, 55
3, 330752, Note_off_c, 0, 58, 55
3, 330752, Note_on_c, 0, 55, 55
3, 330880, Note_off_c, 0, 55, 55
3, 330880, Note_on_c, 0, 58, 55
3, 331008, Note_off_c, 0, 58, 55
3, 331008, Note_on_c, 0, 55, 55
3, 331136, Note_off_c, 0, 55, 55
3, 331136, Note_on_c, 0, 58, 55
3, 331264, Note_off_c, 0, 58, 55
3, 331264, Note_on_c, 0, 55, 55
3, 331392, Note_off_c, 0, 55, 55
3, 331392, Note_on_c, 0, 58, 55
3, 331520, Note_off_c, 0, 58, 55
3, 331520, Note_on_c, 0, 56, 55
3, 331648, Note_off_c, 0, 56, 55
3, 331648, Note_on_c, 0, 58, 55
3, 331776, Note_off_c, 0, 58, 55
3, 331776, Note_on_c, 0, 51, 55
3, 331904, Note_off_c, 0, 51, 55
3, 331904, Note_on_c, 0, 55, 55
3, 332032, Note_off_c, 0, 55, 55
3, 332032, Note_on_c, 0, 51, 55
3, 332160, Note_off_c, 0, 51, 55
3, 332160, Note_on_c, 0, 55, 55
3, 332288, Note_off_c, 0, 55, 55
3, 332288, Note_on_c, 0, 51, 55
3, 332416, Note_off_c, 0, 51, 55
3, 332416, Note_on_c, 0, 55, 55
3, 332544, Note_off_c, 0, 55, 55
3, 332544, Note_on_c, 0, 56, 55
3, 332672, Note_off_c, 0, 56, 55
3, 332672, Note_on_c, 0, 55, 55
3, 332800, Note_off_c, 0, 55, 55
3, 332800, Note_on_c, 0, 53, 55
3, 332928, Note_off_c, 0, 53, 55
3, 332928, Note_on_c, 0, 58, 55
3, 333056, Note_off_c, 0, 58, 55
3, 333056, Note_on_c, 0, 53, 55
3, 333184, Note_off_c, 0, 53, 55
3, 333184, Note_on_c, 0, 58, 55
3, 333312, Note_off_c, 0, 58, 55
3, 333312, Note_on_c, 0, 53, 55
3, 333440, Note_off_c, 0, 53, 55
3, 333440, Note_on_c, 0, 58, 55
3, 333568, Note_off_c, 0, 58, 55
3, 333568, Note_on_c, 0, 53, 55
3, 333696, Note_off_c, 0, 53, 55
3, 333696, Note_on_c, 0, 58, 55
3, 333824, Note_off_c, 0, 58, 55
3, 333824, Note_on_c, 0, 53, 55
3, 333952, Note_off_c, 0, 53, 55
3, 333952, Note_on_c, 0, 58, 55
3, 334080, Note_off_c, 0, 58, 55
3, 334080, Note_on_c, 0, 53, 55
3, 334208, Note_off_c, 0, 53, 55
3, 334208, Note_on_c, 0, 58, 55
3, 334336, Note_off_c, 0, 58, 55
3, 334336, Note_on_c, 0, 53, 55
3, 334464, Note_off_c, 0, 53, 55
3, 334464, Note_on_c, 0, 58, 55
3, 334592, Note_off_c, 0, 58, 55
3, 334592, Note_on_c, 0, 56, 55
3, 334720, Note_off_c, 0, 56, 55
3, 334720, Note_on_c, 0, 58, 55
3, 334848, Note_off_c, 0, 58, 55
3, 334848, Note_on_c, 0, 51, 55
3, 334976, Note_off_c, 0, 51, 55
3, 334976, Note_on_c, 0, 55, 55
3, 335104, Note_off_c, 0, 55, 55
3, 335104, Note_on_c, 0, 51, 55
3, 335232, Note_off_c, 0, 51, 55
3, 335232, Note_on_c, 0, 55, 55
3, 335360, Note_off_c, 0, 55, 55
3, 335360, Note_on_c, 0, 51, 55
3, 335488, Note_off_c, 0, 51, 55
3, 335488, Note_on_c, 0, 58, 55
3, 335616, Note_off_c, 0, 58, 55
3, 335616, Note_on_c, 0, 56, 55
3, 335744, Note_off_c, 0, 56, 55
3, 335744, Note_on_c, 0, 55, 55
3, 335872, Note_off_c, 0, 55, 55
3, 335872, Note_on_c, 0, 55, 55
3, 335872, Note_on_c, 0, 67, 55
3, 336000, Note_off_c, 0, 55, 55
3, 336000, Note_off_c, 0, 67, 55
3, 336000, Note_on_c, 0, 58, 55
3, 336000, Note_on_c, 0, 65, 55
3, 336128, Note_off_c, 0, 58, 55
3, 336128, Note_off_c, 0, 65, 55
3, 336128, Note_on_c, 0, 55, 55
3, 336128, Note_on_c, 0, 63, 55
3, 336256, Note_off_c, 0, 55, 55
3, 336256, Note_off_c, 0, 63, 55
3, 336256, Note_on_c, 0, 58, 55
3, 336384, Note_off_c, 0, 58, 55
3, 336384, Note_on_c, 0, 55, 55
3, 336384, Note_on_c, 0, 65, 55
3, 336512, Note_off_c, 0, 55, 55
3, 336512, Note_off_c, 0, 65, 55
3, 336512, Note_on_c, 0, 58, 55
3, 336512, Note_on_c, 0, 67, 55
3, 336640, Note_off_c, 0, 58, 55
3, 336640, Note_off_c, 0, 67, 55
3, 336640, Note_on_c, 0, 55, 55
3, 336768, Note_off_c, 0, 55, 55
3, 336768, Note_on_c, 0, 58, 55
3, 336896, Note_off_c, 0, 58, 55
3, 336896, Note_on_c, 0, 56, 55
3, 337024, Note_off_c, 0, 56, 55
3, 337024, Note_on_c, 0, 60, 55
3, 337152, Note_off_c, 0, 60, 55
3, 337152, Note_on_c, 0, 56, 55
3, 337280, Note_off_c, 0, 56, 55
3, 337280, Note_on_c, 0, 60, 55
3, 337408, Note_off_c, 0, 60, 55
3, 337408, Note_on_c, 0, 56, 55
3, 337536, Note_off_c, 0, 56, 55
3, 337536, Note_on_c, 0, 60, 55
3, 337664, Note_off_c, 0, 60, 55
3, 337664, Note_on_c, 0, 56, 55
3, 337792, Note_off_c, 0, 56, 55
3, 337792, Note_on_c, 0, 60, 55
3, 337920, Note_off_c, 0, 60, 55
3, 337920, Note_on_c, 0, 53, 55
3, 338048, Note_off_c, 0, 53, 55
3, 338048, Note_on_c, 0, 56, 55
3, 338176, Note_off_c, 0, 56, 55
3, 338176, Note_on_c, 0, 53, 55
3, 338304, Note_off_c, 0, 53, 55
3, 338304, Note_on_c, 0, 56, 55
3, 338432, Note_off_c, 0, 56, 55
3, 338432, Note_on_c, 0, 53, 55
3, 338432, Note_on_c, 0, 62, 55
3, 338560, Note_off_c, 0, 53, 55
3, 338560, Note_off_c, 0, 62, 55
3, 338560, Note_on_c, 0, 56, 55
3, 338560, Note_on_c, 0, 63, 55
3, 338688, Note_off_c, 0, 56, 55
3, 338688, Note_off_c, 0, 63, 55
3, 338688, Note_on_c, 0, 53, 55
3, 338816, Note_off_c, 0, 53, 55
3, 338816, Note_on_c, 0, 56, 55
3, 338944, Note_off_c, 0, 56, 55
3, 338944, Note_on_c, 0, 55, 55
3, 339072, Note_off_c, 0, 55, 55
3, 339072, Note_on_c, 0, 58, 55
3, 339200, Note_off_c, 0, 58, 55
3, 339200, Note_on_c, 0, 55, 55
3, 339328, Note_off_c, 0, 55, 55
3, 339328, Note_on_c, 0, 58, 55
3, 339456, Note_off_c, 0, 58, 55
3, 339456, Note_on_c, 0, 55, 55
3, 339584, Note_off_c, 0, 55, 55
3, 339584, Note_on_c, 0, 58, 55
3, 339712, Note_off_c, 0, 58, 55
3, 339712, Note_on_c, 0, 55, 55
3, 339840, Note_off_c, 0, 55, 55
3, 339840, Note_on_c, 0, 58, 55
3, 339968, Note_off_c, 0, 58, 55
3, 339968, Note_on_c, 0, 55, 55
3, 340096, Note_off_c, 0, 55, 55
3, 340096, Note_on_c, 0, 58, 55
3, 340224, Note_off_c, 0, 58, 55
3, 340224, Note_on_c, 0, 55, 55
3, 340352, Note_off_c, 0, 55, 55
3, 340352, Note_on_c, 0, 58, 55
3, 340480, Note_off_c, 0, 58, 55
3, 340480, Note_on_c, 0, 55, 55
3, 340608, Note_off_c, 0, 55, 55
3, 340608, Note_on_c, 0, 58, 55
3, 340736, Note_off_c, 0, 58, 55
3, 340736, Note_on_c, 0, 55, 55
3, 340864, Note_off_c, 0, 55, 55
3, 340864, Note_on_c, 0, 58, 55
3, 340992, Note_off_c, 0, 58, 55
3, 340992, Note_on_c, 0, 56, 55
3, 341120, Note_off_c, 0, 56, 55
3, 341120, Note_on_c, 0, 60, 55
3, 341248, Note_off_c, 0, 60, 55
3, 341248, Note_on_c, 0, 56, 55
3, 341376, Note_off_c, 0, 56, 55
3, 341376, Note_on_c, 0, 60, 55
3, 341504, Note_off_c, 0, 60, 55
3, 341504, Note_on_c, 0, 56, 55
3, 341632, Note_off_c, 0, 56, 55
3, 341632, Note_on_c, 0, 60, 55
3, 341760, Note_off_c, 0, 60, 55
3, 341760, Note_on_c, 0, 56, 55
3, 341888, Note_off_c, 0, 56, 55
3, 341888, Note_on_c, 0, 60, 55
3, 342016, Note_off_c, 0, 60, 55
3, 342016, Note_on_c, 0, 53, 55
3, 342144, Note_off_c, 0, 53, 55
3, 342144, Note_on_c, 0, 56, 55
3, 342272, Note_off_c, 0, 56, 55
3, 342272, Note_on_c, 0, 53, 55
3, 342400, Note_off_c, 0, 53, 55
3, 342400, Note_on_c, 0, 56, 55
3, 342528, Note_off_c, 0, 56, 55
3, 342528, Note_on_c, 0, 53, 55
3, 342656, Note_off_c, 0, 53, 55
3, 342656, Note_on_c, 0, 56, 55
3, 342784, Note_off_c, 0, 56, 55
3, 342784, Note_on_c, 0, 53, 55
3, 342912, Note_off_c, 0, 53, 55
3, 342912, Note_on_c, 0, 56, 55
3, 343040, Note_off_c, 0, 56, 55
3, 343040, Note_on_c, 0, 55, 55
3, 343168, Note_off_c, 0, 55, 55
3, 343168, Note_on_c, 0, 58, 55
3, 343296, Note_off_c, 0, 58, 55
3, 343296, Note_on_c, 0, 55, 55
3, 343424, Note_off_c, 0, 55, 55
3, 343424, Note_on_c, 0, 58, 55
3, 343552, Note_off_c, 0, 58, 55
3, 343552, Note_on_c, 0, 55, 55
3, 343680, Note_off_c, 0, 55, 55
3, 343680, Note_on_c, 0, 58, 55
3, 343808, Note_off_c, 0, 58, 55
3, 343808, Note_on_c, 0, 55, 55
3, 343936, Note_off_c, 0, 55, 55
3, 343936, Note_on_c, 0, 58, 55
3, 344064, Note_off_c, 0, 58, 55
3, 344064, Note_on_c, 0, 51, 55
3, 344192, Note_off_c, 0, 51, 55
3, 344192, Note_on_c, 0, 55, 55
3, 344320, Note_off_c, 0, 55, 55
3, 344320, Note_on_c, 0, 51, 55
3, 344448, Note_off_c, 0, 51, 55
3, 344448, Note_on_c, 0, 55, 55
3, 344576, Note_off_c, 0, 55, 55
3, 344576, Note_on_c, 0, 51, 55
3, 344704, Note_off_c, 0, 51, 55
3, 344704, Note_on_c, 0, 55, 55
3, 344832, Note_off_c, 0, 55, 55
3, 344832, Note_on_c, 0, 56, 55
3, 344960, Note_off_c, 0, 56, 55
3, 344960, Note_on_c, 0, 55, 55
3, 345088, Note_off_c, 0, 55, 55
3, 345088, Note_on_c, 0, 53, 55
3, 345216, Note_off_c, 0, 53, 55
3, 345216, Note_on_c, 0, 58, 55
3, 345344, Note_off_c, 0, 58, 55
3, 345344, Note_on_c, 0, 53, 55
3, 345472, Note_off_c, 0, 53, 55
3, 345472, Note_on_c, 0, 58, 55
3, 345600, Note_off_c, 0, 58, 55
3, 345600, Note_on_c, 0, 53, 55
3, 345728, Note_off_c, 0, 53, 55
3, 345728, Note_on_c, 0, 58, 55
3, 345856, Note_off_c, 0, 58, 55
3, 345856, Note_on_c, 0, 53, 55
3, 345984, Note_off_c, 0, 53, 55
3, 345984, Note_on_c, 0, 58, 55
3, 346112, Note_off_c, 0, 58, 55
3, 346112, Note_on_c, 0, 53, 55
3, 346240, Note_off_c, 0, 53, 55
3, 346240, Note_on_c, 0, 58, 55
3, 346368, Note_off_c, 0, 58, 55
3, 346368, Note_on_c, 0, 53, 55
3, 346496, Note_off_c, 0, 53, 55
3, 346496, Note_on_c, 0, 58, 55
3, 346624, Note_off_c, 0, 58, 55
3, 346624, Note_on_c, 0, 53, 55
3, 346752, Note_off_c, 0, 53, 55
3, 346752, Note_on_c, 0, 58, 55
3, 346880, Note_off_c, 0, 58, 55
3, 346880, Note_on_c, 0, 56, 55
3, 347008, Note_off_c, 0, 56, 55
3, 347008, Note_on_c, 0, 58, 55
3, 347136, Note_off_c, 0, 58, 55
3, 347136, Note_on_c, 0, 55, 55
3, 347264, Note_off_c, 0, 55, 55
3, 347264, Note_on_c, 0, 58, 55
3, 347392, Note_off_c, 0, 58, 55
3, 347392, Note_on_c, 0, 55, 55
3, 347520, Note_off_c, 0, 55, 55
3, 347520, Note_on_c, 0, 58, 55
3, 347648, Note_off_c, 0, 58, 55
3, 347648, Note_on_c, 0, 55, 55
3, 347776, Note_off_c, 0, 55, 55
3, 347776, Note_on_c, 0, 58, 55
3, 347904, Note_off_c, 0, 58, 55
3, 347904, Note_on_c, 0, 56, 55
3, 348032, Note_off_c, 0, 56, 55
3, 348032, Note_on_c, 0, 58, 55
3, 348160, Note_off_c, 0, 58, 55
3, 348160, Note_on_c, 0, 51, 55
3, 348288, Note_off_c, 0, 51, 55
3, 348288, Note_on_c, 0, 55, 55
3, 348416, Note_off_c, 0, 55, 55
3, 348416, Note_on_c, 0, 51, 55
3, 348544, Note_off_c, 0, 51, 55
3, 348544, Note_on_c, 0, 55, 55
3, 348672, Note_off_c, 0, 55, 55
3, 348672, Note_on_c, 0, 51, 55
3, 348800, Note_off_c, 0, 51, 55
3, 348800, Note_on_c, 0, 55, 55
3, 348928, Note_off_c, 0, 55, 55
3, 348928, Note_on_c, 0, 56, 55
3, 349056, Note_off_c, 0, 56, 55
3, 349056, Note_on_c, 0, 55, 55
3, 349184, Note_off_c, 0, 55, 55
3, 349184, Note_on_c, 0, 53, 55
3, 349312, Note_off_c, 0, 53, 55
3, 349312, Note_on_c, 0, 58, 55
3, 349440, Note_off_c, 0, 58, 55
3, 349440, Note_on_c, 0, 53, 55
3, 349568, Note_off_c, 0, 53, 55
3, 349568, Note_on_c, 0, 58, 55
3, 349696, Note_off_c, 0, 58, 55
3, 349696, Note_on_c, 0, 53, 55
3, 349824, Note_off_c, 0, 53, 55
3, 349824, Note_on_c, 0, 58, 55
3, 349952, Note_off_c, 0, 58, 55
3, 349952, Note_on_c, 0, 53, 55
3, 350080, Note_off_c, 0, 53, 55
3, 350080, Note_on_c, 0, 58, 55
3, 350208, Note_off_c, 0, 58, 55
3, 350208, Note_on_c, 0, 53, 55
3, 350336, Note_off_c, 0, 53, 55
3, 350336, Note_on_c, 0, 58, 55
3, 350464, Note_off_c, 0, 58, 55
3, 350464, Note_on_c, 0, 53, 55
3, 350592, Note_off_c, 0, 53, 55
3, 350592, Note_on_c, 0, 58, 55
3, 350720, Note_off_c, 0, 58, 55
3, 350720, Note_on_c, 0, 53, 55
3, 350848, Note_off_c, 0, 53, 55
3, 350848, Note_on_c, 0, 58, 55
3, 350976, Note_off_c, 0, 58, 55
3, 350976, Note_on_c, 0, 56, 55
3, 351104, Note_off_c, 0, 56, 55
3, 351104, Note_on_c, 0, 58, 55
3, 351232, Note_off_c, 0, 58, 55
3, 351232, Note_on_c, 0, 51, 55
3, 351360, Note_off_c, 0, 51, 55
3, 351360, Note_on_c, 0, 55, 55
3, 351488, Note_off_c, 0, 55, 55
3, 351488, Note_on_c, 0, 51, 55
3, 351616, Note_off_c, 0, 51, 55
3, 351616, Note_on_c, 0, 55, 55
3, 351744, Note_off_c, 0, 55, 55
3, 351744, Note_on_c, 0, 51, 55
3, 351872, Note_off_c, 0, 51, 55
3, 351872, Note_on_c, 0, 58, 55
3, 352000, Note_off_c, 0, 58, 55
3, 352000, Note_on_c, 0, 56, 55
3, 352128, Note_off_c, 0, 56, 55
3, 352128, Note_on_c, 0, 55, 55
3, 352256, Note_off_c, 0, 55, 55
3, 352256, Note_on_c, 0, 55, 55
3, 352256, Note_on_c, 0, 67, 55
3, 352384, Note_off_c, 0, 55, 55
3, 352384, Note_off_c, 0, 67, 55
3, 352384, Note_on_c, 0, 58, 55
3, 352384, Note_on_c, 0, 65, 55
3, 352512, Note_off_c, 0, 58, 55
3, 352512, Note_off_c, 0, 65, 55
3, 352512, Note_on_c, 0, 55, 55
3, 352512, Note_on_c, 0, 63, 55
3, 352640, Note_off_c, 0, 55, 55
3, 352640, Note_off_c, 0, 63, 55
3, 352640, Note_on_c, 0, 58, 55
3, 352768, Note_off_c, 0, 58, 55
3, 352768, Note_on_c, 0, 55, 55
3, 352768, Note_on_c, 0, 65, 55
3, 352896, Note_off_c, 0, 55, 55
3, 352896, Note_off_c, 0, 65, 55
3, 352896, Note_on_c, 0, 58, 55
3, 352896, Note_on_c, 0, 67, 55
3, 353024, Note_off_c, 0, 58, 55
3, 353024, Note_off_c, 0, 67, 55
3, 353024, Note_on_c, 0, 55, 55
3, 353152, Note_off_c, 0, 55, 55
3, 353152, Note_on_c, 0, 58, 55
3, 353280, Note_off_c, 0, 58, 55
3, 353280, Note_on_c, 0, 56, 55
3, 353408, Note_off_c, 0, 56, 55
3, 353408, Note_on_c, 0, 60, 55
3, 353536, Note_off_c, 0, 60, 55
3, 353536, Note_on_c, 0, 56, 55
3, 353664, Note_off_c, 0, 56, 55
3, 353664, Note_on_c, 0, 60, 55
3, 353792, Note_off_c, 0, 60, 55
3, 353792, Note_on_c, 0, 56, 55
3, 353920, Note_off_c, 0, 56, 55
3, 353920, Note_on_c, 0, 60, 55
3, 354048, Note_off_c, 0, 60, 55
3, 354048, Note_on_c, 0, 56, 55
3, 354176, Note_off_c, 0, 56, 55
3, 354176, Note_on_c, 0, 60, 55
3, 354304, Note_off_c, 0, 60, 55
3, 354304, Note_on_c, 0, 53, 55
3, 354432, Note_off_c, 0, 53, 55
3, 354432, Note_on_c, 0, 56, 55
3, 354560, Note_off_c, 0, 56, 55
3, 354560, Note_on_c, 0, 53, 55
3, 354688, Note_off_c, 0, 53, 55
3, 354688, Note_on_c, 0, 56, 55
3, 354816, Note_off_c, 0, 56, 55
3, 354816, Note_on_c, 0, 53, 55
3, 354816, Note_on_c, 0, 62, 55
3, 354944, Note_off_c, 0, 53, 55
3, 354944, Note_off_c, 0, 62, 55
3, 354944, Note_on_c, 0, 56, 55
3, 354944, Note_on_c, 0, 63, 55
3, 355072, Note_off_c, 0, 56, 55
3, 355072, Note_off_c, 0, 63, 55
3, 355072, Note_on_c, 0, 53, 55
3, 355200, Note_off_c, 0, 53, 55
3, 355200, Note_on_c, 0, 56, 55
3, 355328, Note_off_c, 0, 56, 55
3, 355328, Note_on_c, 0, 55, 55
3, 355456, Note_off_c, 0, 55, 55
3, 355456, Note_on_c, 0, 58, 55
3, 355584, Note_off_c, 0, 58, 55
3, 355584, Note_on_c, 0, 55, 55
3, 355712, Note_off_c, 0, 55, 55
3, 355712, Note_on_c, 0, 58, 55
3, 355840, Note_off_c, 0, 58, 55
3, 355840, Note_on_c, 0, 55, 55
3, 355968, Note_off_c, 0, 55, 55
3, 355968, Note_on_c, 0, 58, 55
3, 356096, Note_off_c, 0, 58, 55
3, 356096, Note_on_c, 0, 55, 55
3, 356224, Note_off_c, 0, 55, 55
3, 356224, Note_on_c, 0, 58, 55
3, 356352, Note_off_c, 0, 58, 55
3, 356352, Note_on_c, 0, 55, 55
3, 356480, Note_off_c, 0, 55, 55
3, 356480, Note_on_c, 0, 58, 55
3, 356608, Note_off_c, 0, 58, 55
3, 356608, Note_on_c, 0, 55, 55
3, 356736, Note_off_c, 0, 55, 55
3, 356736, Note_on_c, 0, 58, 55
3, 356864, Note_off_c, 0, 58, 55
3, 356864, Note_on_c, 0, 55, 55
3, 356992, Note_off_c, 0, 55, 55
3, 356992, Note_on_c, 0, 58, 55
3, 357120, Note_off_c, 0, 58, 55
3, 357120, Note_on_c, 0, 55, 55
3, 357248, Note_off_c, 0, 55, 55
3, 357248, Note_on_c, 0, 58, 55
3, 357376, Note_off_c, 0, 58, 55
3, 357376, Note_on_c, 0, 56, 55
3, 357504, Note_off_c, 0, 56, 55
3, 357504, Note_on_c, 0, 60, 55
3, 357632, Note_off_c, 0, 60, 55
3, 357632, Note_on_c, 0, 56, 55
3, 357760, Note_off_c, 0, 56, 55
3, 357760, Note_on_c, 0, 60, 55
3, 357888, Note_off_c, 0, 60, 55
3, 357888, Note_on_c, 0, 56, 55
3, 358016, Note_off_c, 0, 56, 55
3, 358016, Note_on_c, 0, 60, 55
3, 358144, Note_off_c, 0, 60, 55
3, 358144, Note_on_c, 0, 56, 55
3, 358272, Note_off_c, 0, 56, 55
3, 358272, Note_on_c, 0, 60, 55
3, 358400, Note_off_c, 0, 60, 55
3, 358400, Note_on_c, 0, 53, 55
3, 358528, Note_off_c, 0, 53, 55
3, 358528, Note_on_c, 0, 56, 55
3, 358656, Note_off_c, 0, 56, 55
3, 358656, Note_on_c, 0, 53, 55
3, 358784, Note_off_c, 0, 53, 55
3, 358784, Note_on_c, 0, 56, 55
3, 358912, Note_off_c, 0, 56, 55
3, 358912, Note_on_c, 0, 53, 55
3, 359040, Note_off_c, 0, 53, 55
3, 359040, Note_on_c, 0, 56, 55
3, 359168, Note_off_c, 0, 56, 55
3, 359168, Note_on_c, 0, 53, 55
3, 359296, Note_off_c, 0, 53, 55
3, 359296, Note_on_c, 0, 56, 55
3, 359424, Note_off_c, 0, 56, 55
3, 359424, Note_on_c, 0, 55, 55
3, 359552, Note_off_c, 0, 55, 55
3, 359552, Note_on_c, 0, 58, 55
3, 359680, Note_off_c, 0, 58, 55
3, 359680, Note_on_c, 0, 55, 55
3, 359808, Note_off_c, 0, 55, 55
3, 359808, Note_on_c, 0, 58, 55
3, 359936, Note_off_c, 0, 58, 55
3, 359936, Note_on_c, 0, 55, 55
3, 360064, Note_off_c, 0, 55, 55
3, 360064, Note_on_c, 0, 58, 55
3, 360192, Note_off_c, 0, 58, 55
3, 360192, Note_on_c, 0, 55, 55
3, 360320, Note_off_c, 0, 55, 55
3, 360320, Note_on_c, 0, 58, 55
3, 360448, Note_off_c, 0, 58, 55
3, 360448, Note_on_c, 0, 51, 55
3, 360576, Note_off_c, 0, 51, 55
3, 360576, Note_on_c, 0, 55, 55
3, 360704, Note_off_c, 0, 55, 55
3, 360704, Note_on_c, 0, 51, 55
3, 360832, Note_off_c, 0, 51, 55
3, 360832, Note_on_c, 0, 55, 55
3, 360960, Note_off_c, 0, 55, 55
3, 360960, Note_on_c, 0, 51, 55
3, 361088, Note_off_c, 0, 51, 55
3, 361088, Note_on_c, 0, 55, 55
3, 361216, Note_off_c, 0, 55, 55
3, 361216, Note_on_c, 0, 56, 55
3, 361344, Note_off_c, 0, 56, 55
3, 361344, Note_on_c, 0, 55, 55
3, 361472, Note_off_c, 0, 55, 55
3, 361472, Note_on_c, 0, 53, 55
3, 361600, Note_off_c, 0, 53, 55
3, 361600, Note_on_c, 0, 58, 55
3, 361728, Note_off_c, 0, 58, 55
3, 361728, Note_on_c, 0, 53, 55
3, 361856, Note_off_c, 0, 53, 55
3, 361856, Note_on_c, 0, 58, 55
3, 361984, Note_off_c, 0, 58, 55
3, 361984, Note_on_c, 0, 53, 55
3, 362112, Note_off_c, 0, 53, 55
3, 362112, Note_on_c, 0, 58, 55
3, 362240, Note_off_c, 0, 58, 55
3, 362240, Note_on_c, 0, 53, 55
3, 362368, Note_off_c, 0, 53, 55
3, 362368, Note_on_c, 0, 58, 55
3, 362496, Note_off_c, 0, 58, 55
3, 362496, Note_on_c, 0, 53, 55
3, 362624, Note_off_c, 0, 53, 55
3, 362624, Note_on_c, 0, 58, 55
3, 362752, Note_off_c, 0, 58, 55
3, 362752, Note_on_c, 0, 53, 55
3, 362880, Note_off_c, 0, 53, 55
3, 362880, Note_on_c, 0, 58, 55
3, 363008, Note_off_c, 0, 58, 55
3, 363008, Note_on_c, 0, 53, 55
3, 363136, Note_off_c, 0, 53, 55
3, 363136, Note_on_c, 0, 58, 55
3, 363264, Note_off_c, 0, 58, 55
3, 363264, Note_on_c, 0, 56, 55
3, 363392, Note_off_c, 0, 56, 55
3, 363392, Note_on_c, 0, 58, 55
3, 363520, Note_off_c, 0, 58, 55
3, 363520, Note_on_c, 0, 55, 55
3, 363648, Note_off_c, 0, 55, 55
3, 363648, Note_on_c, 0, 58, 55
3, 363776, Note_off_c, 0, 58, 55
3, 363776, Note_on_c, 0, 55, 55
3, 363904, Note_off_c, 0, 55, 55
3, 363904, Note_on_c, 0, 58, 55
3, 364032, Note_off_c, 0, 58, 55
3, 364032, Note_on_c, 0, 55, 55
3, 364160, Note_off_c, 0, 55, 55
3, 364160, Note_on_c, 0, 58, 55
3, 364288, Note_off_c, 0, 58, 55
3, 364288, Note_on_c, 0, 56, 55
3, 364416, Note_off_c, 0, 56, 55
3, 364416, Note_on_c, 0, 58, 55
3, 364544, Note_off_c, 0, 58, 55
3, 364544, Note_on_c, 0, 51, 55
3, 364672, Note_off_c, 0, 51, 55
3, 364672, Note_on_c, 0, 55, 55
3, 364800, Note_off_c, 0, 55, 55
3, 364800, Note_on_c, 0, 51, 55
3, 364928, Note_off_c, 0, 51, 55
3, 364928, Note_on_c, 0, 55, 55
3, 365056, Note_off_c, 0, 55, 55
3, 365056, Note_on_c, 0, 51, 55
3, 365184, Note_off_c, 0, 51, 55
3, 365184, Note_on_c, 0, 55, 55
3, 365312, Note_off_c, 0, 55, 55
3, 365312, Note_on_c, 0, 56, 55
3, 365440, Note_off_c, 0, 56, 55
3, 365440, Note_on_c, 0, 55, 55
3, 365568, Note_off_c, 0, 55, 55
3, 365568, Note_on_c, 0, 53, 55
3, 365696, Note_off_c, 0, 53, 55
3, 365696, Note_on_c, 0, 58, 55
3, 365824, Note_off_c, 0, 58, 55
3, 365824, Note_on_c, 0, 53, 55
3, 365952, Note_off_c, 0, 53, 55
3, 365952, Note_on_c, 0, 58, 55
3, 366080, Note_off_c, 0, 58, 55
3, 366080, Note_on_c, 0, 53, 55
3, 366208, Note_off_c, 0, 53, 55
3, 366208, Note_on_c, 0, 58, 55
3, 366336, Note_off_c, 0, 58, 55
3, 366336, Note_on_c, 0, 53, 55
3, 366464, Note_off_c, 0, 53, 55
3, 366464, Note_on_c, 0, 58, 55
3, 366592, Note_off_c, 0, 58, 55
3, 366592, Note_on_c, 0, 53, 55
3, 366720, Note_off_c, 0, 53, 55
3, 366720, Note_on_c, 0, 58, 55
3, 366848, Note_off_c, 0, 58, 55
3, 366848, Note_on_c, 0, 53, 55
3, 366976, Note_off_c, 0, 53, 55
3, 366976, Note_on_c, 0, 58, 55
3, 367104, Note_off_c, 0, 58, 55
3, 367104, Note_on_c, 0, 53, 55
3, 367232, Note_off_c, 0, 53, 55
3, 367232, Note_on_c, 0, 58, 55
3, 367360, Note_off_c, 0, 58, 55
3, 367360, Note_on_c, 0, 56, 55
3, 367488, Note_off_c, 0, 56, 55
3, 367488, Note_on_c, 0, 58, 55
3, 367616, Note_off_c, 0, 58, 55
3, 367616, Note_on_c, 0, 51, 55
3, 367744, Note_off_c, 0, 51, 55
3, 367744, Note_on_c, 0, 55, 55
3, 367872, Note_off_c, 0, 55, 55
3, 367872, Note_on_c, 0, 51, 55
3, 368000, Note_off_c, 0, 51, 55
3, 368000, Note_on_c, 0, 55, 55
3, 368128, Note_off_c, 0, 55, 55
3, 368128, Note_on_c, 0, 51, 55
3, 368256, Note_off_c, 0, 51, 55
3, 368256, Note_on_c, 0, 58, 55
3, 368384, Note_off_c, 0, 58, 55
3, 368384, Note_on_c, 0, 56, 55
3, 368512, Note_off_c, 0, 56, 55
3, 368512, Note_on_c, 0, 55, 55
3, 368640, Note_off_c, 0, 55, 55
3, 368640, Note_on_c, 0, 55, 55
3, 368640, Note_on_c, 0, 67, 55
3, 368768, Note_off_c, 0, 55, 55
3, 368768, Note_off_c, 0, 67, 55
3, 368768, Note_on_c, 0, 58, 55
3, 368768, Note_on_c, 0, 65, 55
3, 368896, Note_off_c, 0, 58, 55
3, 368896, Note_off_c, 0, 65, 55
3, 368896, Note_on_c, 0, 55, 55
3, 368896, Note_on_c, 0, 63, 55
3, 369024, Note_off_c, 0, 55, 55
3, 369024, Note_off_c, 0, 63, 55
3, 369024, Note_on_c, 0, 58, 55
3, 369152, Note_off_c, 0, 58, 55
3, 369152, Note_on_c, 0, 55, 55
3, 369152, Note_on_c, 0, 65, 55
3, 369280, Note_off_c, 0, 55, 55
3, 369280, Note_off_c, 0, 65, 55
3, 369280, Note_on_c, 0, 58, 55
3, 369280, Note_on_c, 0, 67, 55
3, 369408, Note_off_c, 0, 58, 55
3, 369408, Note_off_c, 0, 67, 55
3, 369408, Note_on_c, 0, 55, 55
3, 369536, Note_off_c, 0, 55, 55
3, 369536, Note_on_c, 0, 58, 55
3, 369664, Note_off_c, 0, 58, 55
3, 369664, Note_on_c, 0, 56, 55
3, 369792, Note_off_c, 0, 56, 55
3, 369792, Note_on_c, 0, 60, 55
3, 369920, Note_off_c, 0, 60, 55
3, 369920, Note_on_c, 0, 56, 55
3, 370048, Note_off_c, 0, 56, 55
3, 370048, Note_on_c, 0, 60, 55
3, 370176, Note_off_c, 0, 60, 55
3, 370176, Note_on_c, 0, 56, 55
3, 370304, Note_off_c, 0, 56, 55
3, 370304, Note_on_c, 0, 60, 55
3, 370432, Note_off_c, 0, 60, 55
3, 370432, Note_on_c, 0, 56, 55
3, 370560, Note_off_c, 0, 56, 55
3, 370560, Note_on_c, 0, 60, 55
3, 370688, Note_off_c, 0, 60, 55
3, 370688, Note_on_c, 0, 53, 55
3, 370816, Note_off_c, 0, 53, 55
3, 370816, Note_on_c, 0, 56, 55
3, 370944, Note_off_c, 0, 56, 55
3, 370944, Note_on_c, 0, 53, 55
3, 371072, Note_off_c, 0, 53, 55
3, 371072, Note_on_c, 0, 56, 55
3, 371200, Note_off_c, 0, 56, 55
3, 371200, Note_on_c, 0, 53, 55
3, 371200, Note_on_c, 0, 62, 55
3, 371328, Note_off_c, 0, 53, 55
3, 371328, Note_off_c, 0, 62, 55
3, 371328, Note_on_c, 0, 56, 55
3, 371328, Note_on_c, 0, 63, 55
3, 371456, Note_off_c, 0, 56, 55
3, 371456, Note_off_c, 0, 63, 55
3, 371456, Note_on_c, 0, 53, 55
3, 371584, Note_off_c, 0, 53, 55
3, 371584, Note_on_c, 0, 56, 55
3, 371712, Note_off_c, 0, 56, 55
3, 371712, Note_on_c, 0, 55, 55
3, 371840, Note_off_c, 0, 55, 55
3, 371840, Note_on_c, 0, 58, 55
3, 371968, Note_off_c, 0, 58, 55
3, 371968, Note_on_c, 0, 55, 55
3, 372096, Note_off_c, 0, 55, 55
3, 372096, Note_on_c, 0, 58, 55
3, 372224, Note_off_c, 0, 58, 55
3, 372224, Note_on_c, 0, 55, 55
3, 372352, Note_off_c, 0, 55, 55
3, 372352, Note_on_c, 0, 58, 55
3, 372480, Note_off_c, 0, 58, 55
3, 372480, Note_on_c, 0, 55, 55
3, 372608, Note_off_c, 0, 55, 55
3, 372608, Note_on_c, 0, 58, 55
3, 372736, Note_off_c, 0, 58, 55
3, 372736, Note_on_c, 0, 55, 55
3, 372864, Note_off_c, 0, 55, 55
3, 372864, Note_on_c, 0, 58, 55
3, 372992, Note_off_c, 0, 58, 55
3, 372992, Note_on_c, 0, 55, 55
3, 373120, Note_off_c, 0, 55, 55
3, 373120, Note_on_c, 0, 58, 55
3, 373248, Note_off_c, 0, 58, 55
3, 373248, Note_on_c, 0, 55, 55
3, 373376, Note_off_c, 0, 55, 55
3, 373376, Note_on_c, 0, 58, 55
3, 373504, Note_off_c, 0, 58, 55
3, 373504, Note_on_c, 0, 55, 55
3, 373632, Note_off_c, 0, 55, 55
3, 373632, Note_on_c, 0, 58, 55
3, 373760, Note_off_c, 0, 58, 55
3, 373760, Note_on_c, 0, 56, 55
3, 373888, Note_off_c, 0, 56, 55
3, 373888, Note_on_c, 0, 60, 55
3, 374016, Note_off_c, 0, 60, 55
3, 374016, Note_on_c, 0, 56, 55
3, 374144, Note_off_c, 0, 56, 55
3, 374144, Note_on_c, 0, 60, 55
3, 374272, Note_off_c, 0, 60, 55
3, 374272, Note_on_c, 0, 56, 55
3, 374400, Note_off_c, 0, 56, 55
3, 374400, Note_on_c, 0, 60, 55
3, 374528, Note_off_c, 0, 60, 55
3, 374528, Note_on_c, 0, 56, 55
3, 374656, Note_off_c, 0, 56, 55
3, 374656, Note_on_c, 0, 60, 55
3, 374784, Note_off_c, 0, 60, 55
3, 374784, Note_on_c, 0, 53, 55
3, 374912, Note_off_c, 0, 53, 55
3, 374912, Note_on_c, 0, 56, 55
3, 375040, Note_off_c, 0, 56, 55
3, 375040, Note_on_c, 0, 53, 55
3, 375168, Note_off_c, 0, 53, 55
3, 375168, Note_on_c, 0, 56, 55
3, 375296, Note_off_c, 0, 56, 55
3, 375296, Note_on_c, 0, 53, 55
3, 375424, Note_off_c, 0, 53, 55
3, 375424, Note_on_c, 0, 56, 55
3, 375552, Note_off_c, 0, 56, 55
3, 375552, Note_on_c, 0, 53, 55
3, 375680, Note_off_c, 0, 53, 55
3, 375680, Note_on_c, 0, 56, 55
3, 375808, Note_off_c, 0, 56, 55
3, 375808, Note_on_c, 0, 55, 55
3, 375936, Note_off_c, 0, 55, 55
3, 375936, Note_on_c, 0, 58, 55
3, 376064, Note_off_c, 0, 58, 55
3, 376064, Note_on_c, 0, 55, 55
3, 376192, Note_off_c, 0, 55, 55
3, 376192, Note_on_c, 0, 58, 55
3, 376320, Note_off_c, 0, 58, 55
3, 376320, Note_on_c, 0, 55, 55
3, 376448, Note_off_c, 0, 55, 55
3, 376448, Note_on_c, 0, 58, 55
3, 376576, Note_off_c, 0, 58, 55
3, 376576, Note_on_c, 0, 55, 55
3, 376704, Note_off_c, 0, 55, 55
3, 376704, Note_on_c, 0, 58, 55
3, 376832, Note_off_c, 0, 58, 55
3, 376832, Note_on_c, 0, 51, 55
3, 376960, Note_off_c, 0, 51, 55
3, 376960, Note_on_c, 0, 55, 55
3, 377088, Note_off_c, 0, 55, 55
3, 377088, Note_on_c, 0, 51, 55
3, 377216, Note_off_c, 0, 51, 55
3, 377216, Note_on_c, 0, 55, 55
3, 377344, Note_off_c, 0, 55, 55
3, 377344, Note_on_c, 0, 51, 55
3, 377472, Note_off_c, 0, 51, 55
3, 377472, Note_on_c, 0, 55, 55
3, 377600, Note_off_c, 0, 55, 55
3, 377600, Note_on_c, 0, 56, 55
3, 377728, Note_off_c, 0, 56, 55
3, 377728, Note_on_c, 0, 55, 55
3, 377856, Note_off_c, 0, 55, 55
3, 377856, Note_on_c, 0, 53, 55
3, 377984, Note_off_c, 0, 53, 55
3, 377984, Note_on_c, 0, 58, 55
3, 378112, Note_off_c, 0, 58, 55
3, 378112, Note_on_c, 0, 53, 55
3, 378240, Note_off_c, 0, 53, 55
3, 378240, Note_on_c, 0, 58, 55
3, 378368, Note_off_c, 0, 58, 55
3, 378368, Note_on_c, 0, 53, 55
3, 378496, Note_off_c, 0, 53, 55
3, 378496, Note_on_c, 0, 58, 55
3, 378624, Note_off_c, 0, 58, 55
3, 378624, Note_on_c, 0, 53, 55
3, 378752, Note_off_c, 0, 53, 55
3, 378752, Note_on_c, 0, 58, 55
3, 378880, Note_off_c, 0, 58, 55
3, 378880, Note_on_c, 0, 53, 55
3, 379008, Note_off_c, 0, 53, 55
3, 379008, Note_on_c, 0, 58, 55
3, 379136, Note_off_c, 0, 58, 55
3, 379136, Note_on_c, 0, 53, 55
3, 379264, Note_off_c, 0, 53, 55
3, 379264, Note_on_c, 0, 58, 55
3, 379392, Note_off_c, 0, 58, 55
3, 379392, Note_on_c, 0, 53, 55
3, 379520, Note_off_c, 0, 53, 55
3, 379520, Note_on_c, 0, 58, 55
3, 379648, Note_off_c, 0, 58, 55
3, 379648, Note_on_c, 0, 56, 55
3, 379776, Note_off_c, 0, 56, 55
3, 379776, Note_on_c, 0, 58, 55
3, 379904, Note_off_c, 0, 58, 55
3, 379904, Note_on_c, 0, 55, 55
3, 380032, Note_off_c, 0, 55, 55
3, 380032, Note_on_c, 0, 58, 55
3, 380160, Note_off_c, 0, 58, 55
3, 380160, Note_on_c, 0, 55, 55
3, 380288, Note_off_c, 0, 55, 55
3, 380288, Note_on_c, 0, 58, 55
3, 380416, Note_off_c, 0, 58, 55
3, 380416, Note_on_c, 0, 55, 55
3, 380544, Note_off_c, 0, 55, 55
3, 380544, Note_on_c, 0, 58, 55
3, 380672, Note_off_c, 0, 58, 55
3, 380672, Note_on_c, 0, 56, 55
3, 380800, Note_off_c, 0, 56, 55
3, 380800, Note_on_c, 0, 58, 55
3, 380928, Note_off_c, 0, 58, 55
3, 380928, Note_on_c, 0, 51, 55
3, 381056, Note_off_c, 0, 51, 55
3, 381056, Note_on_c, 0, 55, 55
3, 381184, Note_off_c, 0, 55, 55
3, 381184, Note_on_c, 0, 51, 55
3, 381312, Note_off_c, 0, 51, 55
3, 381312, Note_on_c, 0, 55, 55
3, 381440, Note_off_c, 0, 55, 55
3, 381440, Note_on_c, 0, 51, 55
3, 381568, Note_off_c, 0, 51, 55
3, 381568, Note_on_c, 0, 55, 55
3, 381696, Note_off_c, 0, 55, 55
3, 381696, Note_on_c, 0, 56, 55
3, 381824, Note_off_c, 0, 56, 55
3, 381824, Note_on_c, 0, 55, 55
3, 381952, Note_off_c, 0, 55, 55
3, 381952, Note_on_c, 0, 53, 55
3, 382080, Note_off_c, 0, 53, 55
3, 382080, Note_on_c, 0, 58, 55
3, 382208, Note_off_c, 0, 58, 55
3, 382208, Note_on_c, 0, 53, 55
3, 382336, Note_off_c, 0, 53, 55
3, 382336, Note_on_c, 0, 58, 55
3, 382464, Note_off_c, 0, 58, 55
3, 382464, Note_on_c, 0, 53, 55
3, 382592, Note_off_c, 0, 53, 55
3, 382592, Note_on_c, 0, 58, 55
3, 382720, Note_off_c, 0, 58, 55
3, 382720, Note_on_c, 0, 53, 55
3, 382848, Note_off_c, 0, 53, 55
3, 382848, Note_on_c, 0, 58, 55
3, 382976, Note_off_c, 0, 58, 55
3, 382976, Note_on_c, 0, 53, 55
3, 383104, Note_off_c, 0, 53, 55
3, 383104, Note_on_c, 0, 58, 55
3, 383232, Note_off_c, 0, 58, 55
3, 383232, Note_on_c, 0, 53, 55
3, 383360, Note_off_c, 0, 53, 55
3, 383360, Note_on_c, 0, 58, 55
3, 383488, Note_off_c, 0, 58, 55
3, 383488, Note_on_c, 0, 53, 55
3, 383616, Note_off_c, 0, 53, 55
3, 383616, Note_on_c, 0, 58, 55
3, 383744, Note_off_c, 0, 58, 55
3, 383744, Note_on_c, 0, 56, 55
3, 383872, Note_off_c, 0, 56, 55
3, 383872, Note_on_c, 0, 58, 55
3, 384000, Note_off_c, 0, 58, 55
3, 384000, Note_on_c, 0, 51, 55
3, 384128, Note_off_c, 0, 51, 55
3, 384128, Note_on_c, 0, 55, 55
3, 384256, Note_off_c, 0, 55, 55
3, 384256, Note_on_c, 0, 51, 55
3, 384384, Note_off_c, 0, 51, 55
3, 384384, Note_on_c, 0, 55, 55
3, 384512, Note_off_c, 0, 55, 55
3, 384512, Note_on_c, 0, 51, 55
3, 384640, Note_off_c, 0, 51, 55
3, 384640, Note_on_c, 0, 58, 55
3, 384768, Note_off_c, 0, 58, 55
3, 384768, Note_on_c, 0, 56, 55
3, 384896, Note_off_c, 0, 56, 55
3, 384896, Note_on_c, 0, 55, 55
3, 385024, Note_off_c, 0, 55, 55
3, 385024, Note_on_c, 0, 55, 55
3, 385024, Note_on_c, 0, 67, 55
3, 385152, Note_off_c, 0, 55, 55
3, 385152, Note_off_c, 0, 67, 55
3, 385152, Note_on_c, 0, 58, 55
3, 385152, Note_on_c, 0, 65, 55
3, 385280, Note_off_c, 0, 58, 55
3, 385280, Note_off_c, 0, 65, 55
3, 385280, Note_on_c, 0, 55, 55
3, 385280, Note_on_c, 0, 63, 55
3, 385408, Note_off_c, 0, 55, 55
3, 385408, Note_off_c, 0, 63, 55
3, 385408, Note_on_c, 0, 58, 55
3, 385536, Note_off_c, 0, 58, 55
3, 385536, Note_on_c, 0, 55, 55
3, 385536, Note_on_c, 0, 65, 55
3, 385664, Note_off_c, 0, 55, 55
3, 385664, Note_off_c, 0, 65, 55
3, 385664, Note_on_c, 0, 58, 55
3, 385664, Note_on_c, 0, 67, 55
3, 385792, Note_off_c, 0, 58, 55
3, 385792, Note_off_c, 0, 67, 55
3, 385792, Note_on_c, 0, 55, 55
3, 385920, Note_off_c, 0, 55, 55
3, 385920, Note_on_c, 0, 58, 55
3, 386048, Note_off_c, 0, 58, 55
3, 386048, Note_on_c, 0, 56, 55
3, 386176, Note_off_c, 0, 56, 55
3, 386176, Note_on_c, 0, 60, 55
3, 386304, Note_off_c, 0, 60, 55
3, 386304, Note_on_c, 0, 56, 55
3, 386432, Note_off_c, 0, 56, 55
3, 386432, Note_on_c, 0, 60, 55
3, 386560, Note_off_c, 0, 60, 55
3, 386560, Note_on_c, 0, 56, 55
3, 386688, Note_off_c, 0, 56, 55
3, 386688, Note_on_c, 0, 60, 55
3, 386816, Note_off_c, 0, 60, 55
3, 386816, Note_on_c, 0, 56, 55
3, 386944, Note_off_c, 0, 56, 55
3, 386944, Note_on_c, 0, 60, 55
3, 387072, Note_off_c, 0, 60, 55
3, 387072, Note_on_c, 0, 53, 55
3, 387200, Note_off_c, 0, 53, 55
3, 387200, Note_on_c, 0, 56, 55
3, 387328, Note_off_c, 0, 56, 55
3, 387328, Note_on_c, 0, 53, 55
3, 387456, Note_off_c, 0, 53, 55
3, 387456, Note_on_c, 0, 56, 55
3, 387584, Note_off_c, 0, 56, 55
3, 387584, Note_on_c, 0, 53, 55
3, 387584, Note_on_c, 0, 62, 55
3, 387712, Note_off_c, 0, 53, 55
3, 387712, Note_off_c, 0, 62, 55
3, 387712, Note_on_c, 0, 56, 55
3, 387712, Note_on_c, 0, 63, 55
3, 387840, Note_off_c, 0, 56, 55
3, 387840, Note_off_c, 0, 63, 55
3, 387840, Note_on_c, 0, 53, 55
3, 387968, Note_off_c, 0, 53, 55
3, 387968, Note_on_c, 0, 56, 55
3, 388096, Note_off_c, 0, 56, 55
3, 388096, Note_on_c, 0, 55, 55
3, 388224, Note_off_c, 0, 55, 55
3, 388224, Note_on_c, 0, 58, 55
3, 388352, Note_off_c, 0, 58, 55
3, 388352, Note_on_c, 0, 55, 55
3, 388480, Note_off_c, 0, 55, 55
3, 388480, Note_on_c, 0, 58, 55
3, 388608, Note_off_c, 0, 58, 55
3, 388608, Note_on_c, 0, 55, 55
3, 388736, Note_off_c, 0, 55, 55
3, 388736, Note_on_c, 0, 58, 55
3, 388864, Note_off_c, 0, 58, 55
3, 388864, Note_on_c, 0, 55, 55
3, 388992, Note_off_c, 0, 55, 55
3, 388992, Note_on_c, 0, 58, 55
3, 389120, Note_off_c, 0, 58, 55
3, 389120, Note_on_c, 0, 55, 55
3, 389248, Note_off_c, 0, 55, 55
3, 389248, Note_on_c, 0, 58, 55
3, 389376, Note_off_c, 0, 58, 55
3, 389376, Note_on_c, 0, 55, 55
3, 389504, Note_off_c, 0, 55, 55
3, 389504, Note_on_c, 0, 58, 55
3, 389632, Note_off_c, 0, 58, 55
3, 389632, Note_on_c, 0, 55, 55
3, 389760, Note_off_c, 0, 55, 55
3, 389760, Note_on_c, 0, 58, 55
3, 389888, Note_off_c, 0, 58, 55
3, 389888, Note_on_c, 0, 55, 55
3, 390016, Note_off_c, 0, 55, 55
3, 390016, Note_on_c, 0, 58, 55
3, 390144, Note_off_c, 0, 58, 55
3, 390144, Note_on_c, 0, 56, 55
3, 390272, Note_off_c, 0, 56, 55
3, 390272, Note_on_c, 0, 60, 55
3, 390400, Note_off_c, 0, 60, 55
3, 390400, Note_on_c, 0, 56, 55
3, 390528, Note_off_c, 0, 56, 55
3, 390528, Note_on_c, 0, 60, 55
3, 390656, Note_off_c, 0, 60, 55
3, 390656, Note_on_c, 0, 56, 55
3, 390784, Note_off_c, 0, 56, 55
3, 390784, Note_on_c, 0, 60, 55
3, 390912, Note_off_c, 0, 60, 55
3, 390912, Note_on_c, 0, 56, 55
3, 391040, Note_off_c, 0, 56, 55
3, 391040, Note_on_c, 0, 60, 55
3, 391168, Note_off_c, 0, 60, 55
3, 391168, Note_on_c, 0, 53, 55
3, 391296, Note_off_c, 0, 53, 55
3, 391296, Note_on_c, 0, 56, 55
3, 391424, Note_off_c, 0, 56, 55
3, 391424, Note_on_c, 0, 53, 55
3, 391552, Note_off_c, 0, 53, 55
3, 391552, Note_on_c, 0, 56, 55
3, 391680, Note_off_c, 0, 56, 55
3, 391680, Note_on_c, 0, 53, 55
3, 391808, Note_off_c, 0, 53, 55
3, 391808, Note_on_c, 0, 56, 55
3, 391936, Note_off_c, 0, 56, 55
3, 391936, Note_on_c, 0, 53, 55
3, 392064, Note_off_c, 0, 53, 55
3, 392064, Note_on_c, 0, 56, 55
3, 392192, Note_off_c, 0, 56, 55
3, 392192, Note_on_c, 0, 55, 55
3, 392320, Note_off_c, 0, 55, 55
3, 392320, Note_on_c, 0, 58, 55
3, 392448, Note_off_c, 0, 58, 55
3, 392448, Note_on_c, 0, 55, 55
3, 392576, Note_off_c, 0, 55, 55
3, 392576, Note_on_c, 0, 58, 55
3, 392704, Note_off_c, 0, 58, 55
3, 392704, Note_on_c, 0, 55, 55
3, 392832, Note_off_c, 0, 55, 55
3, 392832, Note_on_c, 0, 58, 55
3, 392960, Note_off_c, 0, 58, 55
3, 392960, Note_on_c, 0, 55, 55
3, 393088, Note_off_c, 0, 55, 55
3, 393088, Note_on_c, 0, 58, 55
3, 393216, Note_off_c, 0, 58, 55
3, 393216, Note_on_c, 0, 51, 55
3, 393344, Note_off_c, 0, 51, 55
3, 393344, Note_on_c, 0, 55, 55
3, 393472, Note_off_c, 0, 55, 55
3, 393472, Note_on_c, 0, 51, 55
3, 393600, Note_off_c, 0, 51, 55
3, 393600, Note_on_c, 0, 55, 55
3, 393728, Note_off_c, 0, 55, 55
3, 393728, Note_on_c, 0, 51, 55
3, 393856, Note_off_c, 0, 51, 55
3, 393856, Note_on_c, 0, 55, 55
3, 393984, Note_off_c, 0, 55, 55
3, 393984, Note_on_c, 0, 56, 55
3, 394112, Note_off_c, 0, 56, 55
3, 394112, Note_on_c, 0, 55, 55
3, 394240, Note_off_c, 0, 55, 55
3, 394240, Note_on_c, 0, 53, 55
3, 394368, Note_off_c, 0, 53, 55
3, 394368, Note_on_c, 0, 58, 55
3, 394496, Note_off_c, 0, 58, 55
3, 394496, Note_on_c, 0, 53, 55
3, 394624, Note_off_c, 0, 53, 55
3, 394624, Note_on_c, 0, 58, 55
3, 394752, Note_off_c, 0, 58, 55
3, 394752, Note_on_c, 0, 53, 55
3, 394880, Note_off_c, 0, 53, 55
3, 394880, Note_on_c, 0, 58, 55
3, 395008, Note_off_c, 0, 58, 55
3, 395008, Note_on_c, 0, 53, 55
3, 395136, Note_off_c, 0, 53, 55
3, 395136, Note_on_c, 0, 58, 55
3, 395264, Note_off_c, 0, 58, 55
3, 395264, Note_on_c, 0, 53, 55
3, 395392, Note_off_c, 0, 53, 55
3, 395392, Note_on_c, 0, 58, 55
3, 395520, Note_off_c, 0, 58, 55
3, 395520, Note_on_c, 0, 53, 55
3, 395648, Note_off_c, 0, 53, 55
3, 395648, Note_on_c, 0, 58, 55
3, 395776, Note_off_c, 0, 58, 55
3, 395776, Note_on_c, 0, 53, 55
3, 395904, Note_off_c, 0, 53, 55
3, 395904, Note_on_c, 0, 58, 55
3, 396032, Note_off_c, 0, 58, 55
3, 396032, Note_on_c, 0, 56, 55
3, 396160, Note_off_c, 0, 56, 55
3, 396160, Note_on_c, 0, 58, 55
3, 396288, Note_off_c, 0, 58, 55
3, 396288, Note_on_c, 0, 55, 55
3, 396416, Note_off_c, 0, 55, 55
3, 396416, Note_on_c, 0, 58, 55
3, 396544, Note_off_c, 0, 58, 55
3, 396544, Note_on_c, 0, 55, 55
3, 396672, Note_off_c, 0, 55, 55
3, 396672, Note_on_c, 0, 58, 55
3, 396800, Note_off_c, 0, 58, 55
3, 396800, Note_on_c, 0, 55, 55
3, 396928, Note_off_c, 0, 55, 55
3, 396928, Note_on_c, 0, 58, 55
3, 397056, Note_off_c, 0, 58, 55
3, 397056, Note_on_c, 0, 56, 55
3, 397184, Note_off_c, 0, 56, 55
3, 397184, Note_on_c, 0, 58, 55
3, 397312, Note_off_c, 0, 58, 55
3, 397312, Note_on_c, 0, 51, 55
3, 397440, Note_off_c, 0, 51, 55
3, 397440, Note_on_c, 0, 55, 55
3, 397568, Note_off_c, 0, 55, 55
3, 397568, Note_on_c, 0, 51, 55
3, 397696, Note_off_c, 0, 51, 55
3, 397696, Note_on_c, 0, 55, 55
3, 397824, Note_off_c, 0, 55, 55
3, 397824, Note_on_c, 0, 51, 55
3, 397952, Note_off_c, 0, 51, 55
3, 397952, Note_on_c, 0, 55, 55
3, 398080, Note_off_c, 0, 55, 55
3, 398080, Note_on_c, 0, 56, 55
3, 398208, Note_off_c, 0, 56, 55
3, 398208, Note_on_c, 0, 55, 55
3, 398336, Note_off_c, 0, 55, 55
3, 398336, Note_on_c, 0, 53, 55
3, 398464, Note_off_c, 0, 53, 55
3, 398464, Note_on_c, 0, 58, 55
3, 398592, Note_off_c, 0, 58, 55
3, 398592, Note_on_c, 0, 53, 55
3, 398720, Note_off_c, 0, 53, 55
3, 398720, Note_on_c, 0, 58, 55
3, 398848, Note_off_c, 0, 58, 55
3, 398848, Note_on_c, 0, 53, 55
3, 398976, Note_off_c, 0, 53, 55
3, 398976, Note_on_c, 0, 58, 55
3, 399104, Note_off_c, 0, 58, 55
3, 399104, Note_on_c, 0, 53, 55
3, 399232, Note_off_c, 0, 53, 55
3, 399232, Note_on_c, 0, 58, 55
3, 399360, Note_off_c, 0, 58, 55
3, 399360, Note_on_c, 0, 53, 55
3, 399488, Note_off_c, 0, 53, 55
3, 399488, Note_on_c, 0, 58, 55
3, 399616, Note_off_c, 0, 58, 55
3, 399616, Note_on_c, 0, 53, 55
3, 399744, Note_off_c, 0, 53, 55
3, 399744, Note_on_c, 0, 58, 55
3, 399872, Note_off_c, 0, 58, 55
3, 399872, Note_on_c, 0, 53, 55
3, 400000, Note_off_c, 0, 53, 55
3, 400000, Note_on_c, 0, 58, 55
3, 400128, Note_off_c, 0, 58, 55
3, 400128, Note_on_c, 0, 56, 55
3, 400256, Note_off_c, 0, 56, 55
3, 400256, Note_on_c, 0, 58, 55
3, 400384, Note_off_c, 0, 58, 55
3, 400384, Note_on_c, 0, 51, 55
3, 400512, Note_off_c, 0, 51, 55
3, 400512, Note_on_c, 0, 55, 55
3, 400640, Note_off_c, 0, 55, 55
3, 400640, Note_on_c, 0, 51, 55
3, 400768, Note_off_c, 0, 51, 55
3, 400768, Note_on_c, 0, 55, 55
3, 400896, Note_off_c, 0, 55, 55
3, 400896, Note_on_c, 0, 51, 55
3, 401024, Note_off_c, 0, 51, 55
3, 401024, Note_on_c, 0, 58, 55
3, 401152, Note_off_c, 0, 58, 55
3, 401152, Note_on_c, 0, 56, 55
3, 401280, Note_off_c, 0, 56, 55
3, 401280, Note_on_c, 0, 55, 55
3, 401408, Note_off_c, 0, 55, 55
3, 401408, Note_on_c, 0, 55, 55
3, 401408, Note_on_c, 0, 67, 55
3, 401536, Note_off_c, 0, 55, 55
3, 401536, Note_off_c, 0, 67, 55
3, 401536, Note_on_c, 0, 58, 55
3, 401536, Note_on_c, 0, 65, 55
3, 401664, Note_off_c, 0, 58, 55
3, 401664, Note_off_c, 0, 65, 55
3, 401664, Note_on_c, 0, 55, 55
3, 401664, Note_on_c, 0, 63, 55
3, 401792, Note_off_c, 0, 55, 55
3, 401792, Note_off_c, 0, 63, 55
3, 401792, Note_on_c, 0, 58, 55
3, 401920, Note_off_c, 0, 58, 55
3, 401920, Note_on_c, 0, 55, 55
3, 401920, Note_on_c, 0, 65, 55
3, 402048, Note_off_c, 0, 55, 55
3, 402048, Note_off_c, 0, 65, 55
3, 402048, Note_on_c, 0, 58, 55
3, 402048, Note_on_c, 0, 67, 55
3, 402176, Note_off_c, 0, 58, 55
3, 402176, Note_off_c, 0, 67, 55
3, 402176, Note_on_c, 0, 55, 55
3, 402304, Note_off_c, 0, 55, 55
3, 402304, Note_on_c, 0, 58, 55
3, 402432, Note_off_c, 0, 58, 55
3, 402432, Note_on_c, 0, 56, 55
3, 402560, Note_off_c, 0, 56, 55
3, 402560, Note_on_c, 0, 60, 55
3, 402688, Note_off_c, 0, 60, 55
3, 402688, Note_on_c, 0, 56, 55
3, 402816, Note_off_c, 0, 56, 55
3, 402816, Note_on_c, 0, 60, 55
3, 402944, Note_off_c, 0, 60, 55
3, 402944, Note_on_c, 0, 56, 55
3, 403072, Note_off_c, 0, 56, 55
3, 403072, Note_on_c, 0, 60, 55
3, 403200, Note_off_c, 0, 60, 55
3, 403200, Note_on_c, 0, 56, 55
3, 403328, Note_off_c, 0, 56, 55
3, 403328, Note_on_c, 0, 60, 55
3, 403456, Note_off_c, 0, 60, 55
3, 403456, Note_on_c, 0, 53, 55
3, 403584, Note_off_c, 0, 53, 55
3, 403584, Note_on_c, 0, 56, 55
3, 403712, Note_off_c, 0, 56, 55
3, 403712, Note_on_c, 0, 53, 55
3, 403840, Note_off_c, 0, 53, 55
3, 403840, Note_on_c, 0, 56, 55
3, 403968, Note_off_c, 0, 56, 55
3, 403968, Note_on_c, 0, 53, 55
3, 403968, Note_on_c, 0, 62, 55
3, 404096, Note_off_c, 0, 53, 55
3, 404096, Note_off_c, 0, 62, 55
3, 404096, Note_on_c, 0, 56, 55
3, 404096, Note_on_c, 0, 63, 55
3, 404224, Note_off_c, 0, 56, 55
3, 404224, Note_off_c, 0, 63, 55
3, 404224, Note_on_c, 0, 53, 55
3, 404352, Note_off_c, 0, 53, 55
3, 404352, Note_on_c, 0, 56, 55
3, 404480, Note_off_c, 0, 56, 55
3, 404480, Note_on_c, 0, 55, 55
3, 404608, Note_off_c, 0, 55, 55
3, 404608, Note_on_c, 0, 58, 55
3, 404736, Note_off_c, 0, 58, 55
3, 404736, Note_on_c, 0, 55, 55
3, 404864, Note_off_c, 0, 55, 55
3, 404864, Note_on_c, 0, 58, 55
3, 404992, Note_off_c, 0, 58, 55
3, 404992, Note_on_c, 0, 55, 55
3, 405120, Note_off_c, 0, 55, 55
3, 405120, Note_on_c, 0, 58, 55
3, 405248, Note_off_c, 0, 58, 55
3, 405248, Note_on_c, 0, 55, 55
3, 405376, Note_off_c, 0, 55, 55
3, 405376, Note_on_c, 0, 58, 55
3, 405504, Note_off_c, 0, 58, 55
3, 405504, Note_on_c, 0, 55, 55
3, 405632, Note_off_c, 0, 55, 55
3, 405632, Note_on_c, 0, 58, 55
3, 405760, Note_off_c, 0, 58, 55
3, 405760, Note_on_c, 0, 55, 55
3, 405888, Note_off_c, 0, 55, 55
3, 405888, Note_on_c, 0, 58, 55
3, 406016, Note_off_c, 0, 58, 55
3, 406016, Note_on_c, 0, 55, 55
3, 406144, Note_off_c, 0, 55, 55
3, 406144, Note_on_c, 0, 58, 55
3, 406272, Note_off_c, 0, 58, 55
3, 406272, Note_on_c, 0, 55, 55
3, 406400, Note_off_c, 0, 55, 55
3, 406400, Note_on_c, 0, 58, 55
3, 406528, Note_off_c, 0, 58, 55
3, 406528, Note_on_c, 0, 56, 55
3, 406656, Note_off_c, 0, 56, 55
3, 406656, Note_on_c, 0, 60, 55
3, 406784, Note_off_c, 0, 60, 55
3, 406784, Note_on_c, 0, 56, 55
3, 406912, Note_off_c, 0, 56, 55
3, 406912, Note_on_c, 0, 60, 55
3, 407040, Note_off_c, 0, 60, 55
3, 407040, Note_on_c, 0, 56, 55
3, 407168, Note_off_c, 0, 56, 55
3, 407168, Note_on_c, 0, 60, 55
3, 407296, Note_off_c, 0, 60, 55
3, 407296, Note_on_c, 0, 56, 55
3, 407424, Note_off_c, 0, 56, 55
3, 407424, Note_on_c, 0, 60, 55
3, 407552, Note_off_c, 0, 60, 55
3, 407552, Note_on_c, 0, 53, 55
3, 407680, Note_off_c, 0, 53, 55
3, 407680, Note_on_c, 0, 56, 55
3, 407808, Note_off_c, 0, 56, 55
3, 407808, Note_on_c, 0, 53, 55
3, 407936, Note_off_c, 0, 53, 55
3, 407936, Note_on_c, 0, 56, 55
3, 408064, Note_off_c, 0, 56, 55
3, 408064, Note_on_c, 0, 53, 55
3, 408192, Note_off_c, 0, 53, 55
3, 408192, Note_on_c, 0, 56, 55
3, 408320, Note_off_c, 0, 56, 55
3, 408320, Note_on_c, 0, 53, 55
3, 408448, Note_off_c, 0, 53, 55
3, 408448, Note_on_c, 0, 56, 55
3, 408576, Note_off_c, 0, 56, 55
3, 408576, Note_on_c, 0, 55, 55
3, 408704, Note_off_c, 0, 55, 55
3, 408704, Note_on_c, 0, 58, 55
3, 408832, Note_off_c, 0, 58, 55
3, 408832, Note_on_c, 0, 55, 55
3, 408960, Note_off_c, 0, 55, 55
3, 408960, Note_on_c, 0, 58, 55
3, 409088, Note_off_c, 0, 58, 55
3, 409088, Note_on_c, 0, 55, 55
3, 409216, Note_off_c, 0, 55, 55
3, 409216, Note_on_c, 0, 58, 55
3, 409344, Note_off_c, 0, 58, 55
3, 409344, Note_on_c, 0, 55, 55
3, 409472, Note_off_c, 0, 55, 55
3, 409472, Note_on_c, 0, 58, 55
3, 409600, Note_off_c, 0, 58, 55
3, 409600, Note_on_c, 0, 51, 55
3, 409728, Note_off_c, 0, 51, 55
3, 409728, Note_on_c, 0, 55, 55
3, 409856, Note_off_c, 0, 55, 55
3, 409856, Note_on_c, 0, 51, 55
3, 409984, Note_off_c, 0, 51, 55
3, 409984, Note_on_c, 0, 55, 55
3, 410112, Note_off_c, 0, 55, 55
3, 410112, Note_on_c, 0, 51, 55
3, 410240, Note_off_c, 0, 51, 55
3, 410240, Note_on_c, 0, 55, 55
3, 410368, Note_off_c, 0, 55, 55
3, 410368, Note_on_c, 0, 56, 55
3, 410496, Note_off_c, 0, 56, 55
3, 410496, Note_on_c, 0, 55, 55
3, 410624, Note_off_c, 0, 55, 55
3, 410624, Note_on_c, 0, 53, 55
3, 410752, Note_off_c, 0, 53, 55
3, 410752, Note_on_c, 0, 58, 55
3, 410880, Note_off_c, 0, 58, 55
3, 410880, Note_on_c, 0, 53, 55
3, 411008, Note_off_c, 0, 53, 55
3, 411008, Note_on_c, 0, 58, 55
3, 411136, Note_off_c, 0, 58, 55
3, 411136, Note_on_c, 0, 53, 55
3, 411264, Note_off_c, 0, 53, 55
3, 411264, Note_on_c, 0, 58, 55
3, 411392, Note_off_c, 0, 58, 55
3, 411392, Note_on_c, 0, 53, 55
3, 411520, Note_off_c, 0, 53, 55
3, 411520, Note_on_c, 0, 58, 55
3, 411648, Note_off_c, 0, 58, 55
3, 411648, Note_on_c, 0, 53, 55
3, 411776, Note_off_c, 0, 53, 55
3, 411776, Note_on_c, 0, 58, 55
3, 411904, Note_off_c, 0, 58, 55
3, 411904, Note_on_c, 0, 53, 55
3, 412032, Note_off_c, 0, 53, 55
3, 412032, Note_on_c, 0, 58, 55
3, 412160, Note_off_c, 0, 58, 55
3, 412160, Note_on_c, 0, 53, 55
3, 412288, Note_off_c, 0, 53, 55
3, 412288, Note_on_c, 0, 58, 55
3, 412416, Note_off_c, 0, 58, 55
3, 412416, Note_on_c, 0, 56, 55
3, 412544, Note_off_c, 0, 56, 55
3, 412544, Note_on_c, 0, 58, 55
3, 412672, Note_off_c, 0, 58, 55
3, 412672, Note_on_c, 0, 55, 55
3, 412800, Note_off_c, 0, 55, 55
3, 412800, Note_on_c, 0, 58, 55
3, 412928, Note_off_c, 0, 58, 55
3, 412928, Note_on_c, 0, 55, 55
3, 413056, Note_off_c, 0, 55, 55
3, 413056, Note_on_c, 0, 58, 55
3, 413184, Note_off_c, 0, 58, 55
3, 413184, Note_on_c, 0, 55, 55
3, 413312, Note_off_c, 0, 55, 55
3, 413312, Note_on_c, 0, 58, 55
3, 413440, Note_off_c, 0, 58, 55
3, 413440, Note_on_c, 0, 56, 55
3, 413568, Note_off_c, 0, 56, 55
3, 413568, Note_on_c, 0, 58, 55
3, 413696, Note_off_c, 0, 58, 55
3, 413696, Note_on_c, 0, 51, 55
3, 413824, Note_off_c, 0, 51, 55
3, 413824, Note_on_c, 0, 55, 55
3, 413952, Note_off_c, 0, 55, 55
3, 413952, Note_on_c, 0, 51, 55
3, 414080, Note_off_c, 0, 51, 55
3, 414080, Note_on_c, 0, 55, 55
3, 414208, Note_off_c, 0, 55, 55
3, 414208, Note_on_c, 0, 51, 55
3, 414336, Note_off_c, 0, 51, 55
3, 414336, Note_on_c, 0, 55, 55
3, 414464, Note_off_c, 0, 55, 55
3, 414464, Note_on_c, 0, 56, 55
3, 414592, Note_off_c, 0, 56, 55
3, 414592, Note_on_c, 0, 55, 55
3, 414720, Note_off_c, 0, 55, 55
3, 414720, Note_on_c, 0, 53, 55
3, 414848, Note_off_c, 0, 53, 55
3, 414848, Note_on_c, 0, 58, 55
3, 414976, Note_off_c, 0, 58, 55
3, 414976, Note_on_c, 0, 53, 55
3, 415104, Note_off_c, 0, 53, 55
3, 415104, Note_on_c, 0, 58, 55
3, 415232, Note_off_c, 0, 58, 55
3, 415232, Note_on_c, 0, 53, 55
3, 415360, Note_off_c, 0, 53, 55
3, 415360, Note_on_c, 0, 58, 55
3, 415488, Note_off_c, 0, 58, 55
3, 415488, Note_on_c, 0, 53, 55
3, 415616, Note_off_c, 0, 53, 55
3, 415616, Note_on_c, 0, 58, 55
3, 415744, Note_off_c, 0, 58, 55
3, 415744, Note_on_c, 0, 53, 55
3, 415872, Note_off_c, 0, 53, 55
3, 415872, Note_on_c, 0, 58, 55
3, 416000, Note_off_c, 0, 58, 55
3, 416000, Note_on_c, 0, 53, 55
3, 416128, Note_off_c, 0, 53, 55
3, 416128, Note_on_c, 0, 58, 55
3, 416256, Note_off_c, 0, 58, 55
3, 416256, Note_on_c, 0, 53, 55
3, 416384, Note_off_c, 0, 53, 55
3, 416384, Note_on_c, 0, 58, 55
3, 416512, Note_off_c, 0, 58, 55
3, 416512, Note_on_c, 0, 56, 55
3, 416640, Note_off_c, 0, 56, 55
3, 416640, Note_on_c, 0, 58, 55
3, 416768, Note_off_c, 0, 58, 55
3, 416768, Note_on_c, 0, 51, 55
3, 416896, Note_off_c, 0, 51, 55
3, 416896, Note_on_c, 0, 55, 55
3, 417024, Note_off_c, 0, 55, 55
3, 417024, Note_on_c, 0, 51, 55
3, 417152, Note_off_c, 0, 51, 55
3, 417152, Note_on_c, 0, 55, 55
3, 417280, Note_off_c, 0, 55, 55
3, 417280, Note_on_c, 0, 51, 55
3, 417408, Note_off_c, 0, 51, 55
3, 417408, Note_on_c, 0, 58, 55
3, 417536, Note_off_c, 0, 58, 55
3, 417536, Note_on_c, 0, 56, 55
3, 417664, Note_off_c, 0, 56, 55
3, 417664, Note_on_c, 0, 55, 55
3, 417792, Note_off_c, 0, 55, 55
3, 417792, Note_on_c, 0, 55, 55
3, 417792, Note_on_c, 0, 67, 55
3, 417920, Note_off_c, 0, 55, 55
3, 417920, Note_off_c, 0, 67, 55
3, 417920, Note_on_c, 0, 58, 55
3, 417920, Note_on_c, 0, 65, 55
3, 418048, Note_off_c, 0, 58, 55
3, 418048, Note_off_c, 0, 65, 55
3, 418048, Note_on_c, 0, 55, 55
3, 418048, Note_on_c, 0, 63, 55
3, 418176, Note_off_c, 0, 55, 55
3, 418176, Note_off_c, 0, 63, 55
3, 418176, Note_on_c, 0, 58, 55
3, 418304, Note_off_c, 0, 58, 55
3, 418304, Note_on_c, 0, 55, 55
3, 418304, Note_on_c, 0, 65, 55
3, 418432, Note_off_c, 0, 55, 55
3, 418432, Note_off_c, 0, 65, 55
3, 418432, Note_on_c, 0, 58, 55
3, 418432, Note_on_c, 0, 67, 55
3, 418560, Note_off_c, 0, 58, 55
3, 418560, Note_off_c, 0, 67, 55
3, 418560, Note_on_c, 0, 55, 55
3, 418688, Note_off_c, 0, 55, 55
3, 418688, Note_on_c, 0, 58, 55
3, 418816, Note_off_c, 0, 58, 55
3, 418816, Note_on_c, 0, 56, 55
3, 418944, Note_off_c, 0, 56, 55
3, 418944, Note_on_c, 0, 60, 55
3, 419072, Note_off_c, 0, 60, 55
3, 419072, Note_on_c, 0, 56, 55
3, 419200, Note_off_c, 0, 56, 55
3, 419200, Note_on_c, 0, 60, 55
3, 419328, Note_off_c, 0, 60, 55
3, 419328, Note_on_c, 0, 56, 55
3, 419456, Note_off_c, 0, 56, 55
3, 419456, Note_on_c, 0, 60, 55
3, 419584, Note_off_c, 0, 60, 55
3, 419584, Note_on_c, 0, 56, 55
3, 419712, Note_off_c, 0, 56, 55
3, 419712, Note_on_c, 0, 60, 55
3, 419840, Note_off_c, 0, 60, 55
3, 419840, Note_on_c, 0, 53, 55
3, 419968, Note_off_c, 0, 53, 55
3, 419968, Note_on_c, 0, 56, 55
3, 420096, Note_off_c, 0, 56, 55
3, 420096, Note_on_c, 0, 53, 55
3, 420224, Note_off_c, 0, 53, 55
3, 420224, Note_on_c, 0, 56, 55
3, 420352, Note_off_c, 0, 56, 55
3, 420352, Note_on_c, 0, 53, 55
3, 420352, Note_on_c, 0, 62, 55
3, 420480, Note_off_c, 0, 53, 55
3, 420480, Note_off_c, 0, 62, 55
3, 420480, Note_on_c, 0, 56, 55
3, 420480, Note_on_c, 0, 63, 55
3, 420608, Note_off_c, 0, 56, 55
3, 420608, Note_off_c, 0, 63, 55
3, 420608, Note_on_c, 0, 53, 55
3, 420736, Note_off_c, 0, 53, 55
3, 420736, Note_on_c, 0, 56, 55
3, 420864, Note_off_c, 0, 56, 55
3, 420864, Note_on_c, 0, 55, 55
3, 420992, Note_off_c, 0, 55, 55
3, 420992, Note_on_c, 0, 58, 55
3, 421120, Note_off_c, 0, 58, 55
3, 421120, Note_on_c, 0, 55, 55
3, 421248, Note_off_c, 0, 55, 55
3, 421248, Note_on_c, 0, 58, 55
3, 421376, Note_off_c, 0, 58, 55
3, 421376, Note_on_c, 0, 55, 55
3, 421504, Note_off_c, 0, 55, 55
3, 421504, Note_on_c, 0, 58, 55
3, 421632, Note_off_c, 0, 58, 55
3, 421632, Note_on_c, 0, 55, 55
3, 421760, Note_off_c, 0, 55, 55
3, 421760, Note_on_c, 0, 58, 55
3, 421888, Note_off_c, 0, 58, 55
3, 421888, Note_on_c, 0, 55, 55
3, 422016, Note_off_c, 0, 55, 55
3, 422016, Note_on_c, 0, 58, 55
3, 422144, Note_off_c, 0, 58, 55
3, 422144, Note_on_c, 0, 55, 55
3, 422272, Note_off_c, 0, 55, 55
3, 422272, Note_on_c, 0, 58, 55
3, 422400, Note_off_c, 0, 58, 55
3, 422400, Note_on_c, 0, 55, 55
3, 422528, Note_off_c, 0, 55, 55
3, 422528, Note_on_c, 0, 58, 55
3, 422656, Note_off_c, 0, 58, 55
3, 422656, Note_on_c, 0, 55, 55
3, 422784, Note_off_c, 0, 55, 55
3, 422784, Note_on_c, 0, 58, 55
3, 422912, Note_off_c, 0, 58, 55
3, 422912, Note_on_c, 0, 56, 55
3, 423040, Note_off_c, 0, 56, 55
3, 423040, Note_on_c, 0, 60, 55
3, 423168, Note_off_c, 0, 60, 55
3, 423168, Note_on_c, 0, 56, 55
3, 423296, Note_off_c, 0, 56, 55
3, 423296, Note_on_c, 0, 60, 55
3, 423424, Note_off_c, 0, 60, 55
3, 423424, Note_on_c, 0, 56, 55
3, 423552, Note_off_c, 0, 56, 55
3, 423552, Note_on_c, 0, 60, 55
3, 423680, Note_off_c, 0, 60, 55
3, 423680, Note_on_c, 0, 56, 55
3, 423808, Note_off_c, 0, 56, 55
3, 423808, Note_on_c, 0, 60, 55
3, 423936, Note_off_c, 0, 60, 55
3, 423936, Note_on_c, 0, 53, 55
3, 424064, Note_off_c, 0, 53, 55
3, 424064, Note_on_c, 0, 56, 55
3, 424192, Note_off_c, 0, 56, 55
3, 424192, Note_on_c, 0, 53, 55
3, 424320, Note_off_c, 0, 53, 55
3, 424320, Note_on_c, 0, 56, 55
3, 424448, Note_off_c, 0, 56, 55
3, 424448, Note_on_c, 0, 53, 55
3, 424576, Note_off_c, 0, 53, 55
3, 424576, Note_on_c, 0, 56, 55
3, 424704, Note_off_c, 0, 56, 55
3, 424704, Note_on_c, 0, 53, 55
3, 424832, Note_off_c, 0, 53, 55
3, 424832, Note_on_c, 0, 56, 55
3, 424960, Note_off_c, 0, 56, 55
3, 424960, Note_on_c, 0, 55, 55
3, 425088, Note_off_c, 0, 55, 55
3, 425088, Note_on_c, 0, 58, 55
3, 425216, Note_off_c, 0, 58, 55
3, 425216, Note_on_c, 0, 55, 55
3, 425344, Note_off_c, 0, 55, 55
3, 425344, Note_on_c, 0, 58, 55
3, 425472, Note_off_c, 0, 58, 55
3, 425472, Note_on_c, 0, 55, 55
3, 425600, Note_off_c, 0, 55, 55
3, 425600, Note_on_c, 0, 58, 55
3, 425728, Note_off_c, 0, 58, 55
3, 425728, Note_on_c, 0, 55, 55
3, 425856, Note_off_c, 0, 55, 55
3, 425856, Note_on_c, 0, 58, 55
3, 425984, Note_off_c, 0, 58, 55
3, 425984, Note_on_c, 0, 51, 55
3, 426112, Note_off_c, 0, 51, 55
3, 426112, Note_on_c, 0, 55, 55
3, 426240, Note_off_c, 0, 55, 55
3, 426240, Note_on_c, 0, 51, 55
3, 426368, Note_off_c, 0, 51, 55
3, 426368, Note_on_c, 0, 55, 55
3, 426496, Note_off_c, 0, 55, 55
3, 426496, Note_on_c, 0, 51, 55
3, 426624, Note_off_c, 0, 51, 55
3, 426624, Note_on_c, 0, 55, 55
3, 426752, Note_off_c, 0, 55, 55
3, 426752, Note_on_c, 0, 56, 55
3, 426880, Note_off_c, 0, 56, 55
3, 426880, Note_on_c, 0, 55, 55
3, 427008, Note_off_c, 0, 55, 55
3, 427008, Note_on_c, 0, 53, 55
3, 427136, Note_off_c, 0, 53, 55
3, 427136, Note_on_c, 0, 58, 55
3, 427264, Note_off_c, 0, 58, 55
3, 427264, Note_on_c, 0, 53, 55
3, 427392, Note_off_c, 0, 53, 55
3, 427392, Note_on_c, 0, 58, 55
3, 427520, Note_off_c, 0, 58, 55
3, 427520, Note_on_c, 0, 53, 55
3, 427648, Note_off_c, 0, 53, 55
3, 427648, Note_on_c, 0, 58, 55
3, 427776, Note_off_c, 0, 58, 55
3, 427776, Note_on_c, 0, 53, 55
3, 427904, Note_off_c, 0, 53, 55
3, 427904, Note_on_c, 0, 58, 55
3, 428032, Note_off_c, 0, 58, 55
3, 428032, Note_on_c, 0, 53, 55
3, 428160, Note_off_c, 0, 53, 55
3, 428160, Note_on_c, 0, 58, 55
3, 428288, Note_off_c, 0, 58, 55
3, 428288, Note_on_c, 0, 53, 55
3, 428416, Note_off_c, 0, 53, 55
3, 428416, Note_on_c, 0, 58, 55
3, 428544, Note_off_c, 0, 58, 55
3, 428544, Note_on_c, 0, 53, 55
3, 428672, Note_off_c, 0, 53, 55
3, 428672, Note_on_c, 0, 58, 55
3, 428800, Note_off_c, 0, 58, 55
3, 428800, Note_on_c, 0, 56, 55
3, 428928, Note_off_c, 0, 56, 55
3, 428928, Note_on_c, 0, 58, 55
3, 429056, Note_off_c, 0, 58, 55
3, 429056, Note_on_c, 0, 55, 55
3, 429184, Note_off_c, 0, 55, 55
3, 429184, Note_on_c, 0, 58, 55
3, 429312, Note_off_c, 0, 58, 55
3, 429312, Note_on_c, 0, 55, 55
3, 429440, Note_off_c, 0, 55, 55
3, 429440, Note_on_c, 0, 58, 55
3, 429568, Note_off_c, 0, 58, 55
3, 429568, Note_on_c, 0, 55, 55
3, 429696, Note_off_c, 0, 55, 55
3, 429696, Note_on_c, 0, 58, 55
3, 429824, Note_off_c, 0, 58, 55
3, 429824, Note_on_c, 0, 56, 55
3, 429952, Note_off_c, 0, 56, 55
3, 429952, Note_on_c, 0, 58, 55
3, 430080, Note_off_c, 0, 58, 55
3, 430080, Note_on_c, 0, 51, 55
3, 430208, Note_off_c, 0, 51, 55
3, 430208, Note_on_c, 0, 55, 55
3, 430336, Note_off_c, 0, 55, 55
3, 430336, Note_on_c, 0, 51, 55
3, 430464, Note_off_c, 0, 51, 55
3, 430464, Note_on_c, 0, 55, 55
3, 430592, Note_off_c, 0, 55, 55
3, 430592, Note_on_c, 0, 51, 55
3, 430720, Note_off_c, 0, 51, 55
3, 430720, Note_on_c, 0, 55, 55
3, 430848, Note_off_c, 0, 55, 55
3, 430848, Note_on_c, 0, 56, 55
3, 430976, Note_off_c, 0, 56, 55
3, 430976, Note_on_c, 0, 55, 55
3, 431104, Note_off_c, 0, 55, 55
3, 431104, Note_on_c, 0, 53, 55
3, 431232, Note_off_c, 0, 53, 55
3, 431232, Note_on_c, 0, 58, 55
3, 431360, Note_off_c, 0, 58, 55
3, 431360, Note_on_c, 0, 53, 55
3, 431488, Note_off_c, 0, 53, 55
3, 431488, Note_on_c, 0, 58, 55
3, 431616, Note_off_c, 0, 58, 55
3, 431616, Note_on_c, 0, 53, 55
3, 431744, Note_off_c, 0, 53, 55
3, 431744, Note_on_c, 0, 58, 55
3, 431872, Note_off_c, 0, 58, 55
3, 431872, Note_on_c, 0, 53, 55
3, 432000, Note_off_c, 0, 53, 55
3, 432000, Note_on_c, 0, 58, 55
3, 432128, Note_off_c, 0, 58, 55
3, 432128, Note_on_c, 0, 53, 55
3, 432256, Note_off_c, 0, 53, 55
3, 432256, Note_on_c, 0, 58, 55
3, 432384, Note_off_c, 0, 58, 55
3, 432384, Note_on_c, 0, 53, 55
3, 432512, Note_off_c, 0, 53, 55
3, 432512, Note_on_c, 0, 58, 55
3, 432640, Note_off_c, 0, 58, 55
3, 432640, Note_on_c, 0, 53, 55
3, 432768, Note_off_c, 0, 53, 55
3, 432768, Note_on_c, 0, 58, 55
3, 432896, Note_off_c, 0, 58, 55
3, 432896, Note_on_c, 0, 56, 55
3, 433024, Note_off_c, 0, 56, 55
3, 433024, Note_on_c, 0, 58, 55
3, 433152, Note_off_c, 0, 58, 55
3, 433152, Note_on_c, 0, 51, 55
3, 433280, Note_off_c, 0, 51, 55
3, 433280, Note_on_c, 0, 55, 55
3, 433408, Note_off_c, 0, 55, 55
3, 433408, Note_on_c, 0, 51, 55
3, 433536, Note_off_c, 0, 51, 55
3, 433536, Note_on_c, 0, 55, 55
3, 433664, Note_off_c, 0, 55, 55
3, 433664, Note_on_c, 0, 51, 55
3, 433792, Note_off_c, 0, 51, 55
3, 433792, Note_on_c, 0, 58, 55
3, 433920, Note_off_c, 0, 58, 55
3, 433920, Note_on_c, 0, 56, 55
3, 434048, Note_off_c, 0, 56, 55
3, 434048, Note_on_c, 0, 55, 55
3, 434176, Note_off_c, 0, 55, 55
3, 434176, Note_on_c, 0, 55, 55
3, 434176, Note_on_c, 0, 67, 55
3, 434304, Note_off_c, 0, 55, 55
3, 434304, Note_off_c, 0, 67, 55
3, 434304, Note_on_c, 0, 58, 55
3, 434304, Note_on_c, 0, 65, 55
3, 434432, Note_off_c, 0, 58, 55
3, 434432, Note_off_c, 0, 65, 55
3, 434432, Note_on_c, 0, 55, 55
3, 434432, Note_on_c, 0, 63, 55
3, 434560, Note_off_c, 0, 55, 55
3, 434560, Note_off_c, 0, 63, 55
3, 434560, Note_on_c, 0, 58, 55
3, 434688, Note_off_c, 0, 58, 55
3, 434688, Note_on_c, 0, 55, 55
3, 434688, Note_on_c, 0, 65, 55
3, 434816, Note_off_c, 0, 55, 55
3, 434816, Note_off_c, 0, 65, 55
3, 434816, Note_on_c, 0, 58, 55
3, 434816, Note_on_c, 0, 67, 55
3, 434944, Note_off_c, 0, 58, 55
3, 434944, Note_off_c, 0, 67, 55
3, 434944, Note_on_c, 0, 55, 55
3, 435072, Note_off_c, 0, 55, 55
3, 435072, Note_on_c, 0, 58, 55
3, 435200, Note_off_c, 0, 58, 55
3, 435200, Note_on_c, 0, 56, 55
3, 435328, Note_off_c, 0, 56, 55
3, 435328, Note_on_c, 0, 60, 55
3, 435456, Note_off_c, 0, 60, 55
3, 435456, Note_on_c, 0, 56, 55
3, 435584, Note_off_c, 0, 56, 55
3, 435584, Note_on_c, 0, 60, 55
3, 435712, Note_off_c, 0, 60, 55
3, 435712, Note_on_c, 0, 56, 55
3, 435840, Note_off_c, 0, 56, 55
3, 435840, Note_on_c, 0, 60, 55
3, 435968, Note_off_c, 0, 60, 55
3, 435968, Note_on_c, 0, 56, 55
3, 436096, Note_off_c, 0, 56, 55
3, 436096, Note_on_c, 0, 60, 55
3, 436224, Note_off_c, 0, 60, 55
3, 436224, Note_on_c, 0, 53, 55
3, 436352, Note_off_c, 0, 53, 55
3, 436352, Note_on_c, 0, 56, 55
3, 436480, Note_off_c, 0, 56, 55
3, 436480, Note_on_c, 0, 53, 55
3, 436608, Note_off_c, 0, 53, 55
3, 436608, Note_on_c, 0, 56, 55
3, 436736, Note_off_c, 0, 56, 55
3, 436736, Note_on_c, 0, 53, 55
3, 436736, Note_on_c, 0, 62, 55
3, 436864, Note_off_c, 0, 53, 55
3, 436864, Note_off_c, 0, 62, 55
3, 436864, Note_on_c, 0, 56, 55
3, 436864, Note_on_c, 0, 63, 55
3, 436992, Note_off_c, 0, 56, 55
3, 436992, Note_off_c, 0, 63, 55
3, 436992, Note_on_c, 0, 53, 55
3, 437120, Note_off_c, 0, 53, 55
3, 437120, Note_on_c, 0, 56, 55
3, 437248, Note_off_c, 0, 56, 55
3, 437248, Note_on_c, 0, 55, 55
3, 437376, Note_off_c, 0, 55, 55
3, 437376, Note_on_c, 0, 58, 55
3, 437504, Note_off_c, 0, 58, 55
3, 437504, Note_on_c, 0, 55, 55
3, 437632, Note_off_c, 0, 55, 55
3, 437632, Note_on_c, 0, 58, 55
3, 437760, Note_off_c, 0, 58, 55
3, 437760, Note_on_c, 0, 55, 55
3, 437888, Note_off_c, 0, 55, 55
3, 437888, Note_on_c, 0, 58, 55
3, 438016, Note_off_c, 0, 58, 55
3, 438016, Note_on_c, 0, 55, 55
3, 438144, Note_off_c, 0, 55, 55
3, 438144, Note_on_c, 0, 58, 55
3, 438272, Note_off_c, 0, 58, 55
3, 438272, Note_on_c, 0, 55, 55
3, 438400, Note_off_c, 0, 55, 55
3, 438400, Note_on_c, 0, 58, 55
3, 438528, Note_off_c, 0, 58, 55
3, 438528, Note_on_c, 0, 55, 55
3, 438656, Note_off_c, 0, 55, 55
3, 438656, Note_on_c, 0, 58, 55
3, 438784, Note_off_c, 0, 58, 55
3, 438784, Note_on_c, 0, 55, 55
3, 438912, Note_off_c, 0, 55, 55
3, 438912, Note_on_c, 0, 58, 55
3, 439040, Note_off_c, 0, 58, 55
3, 439040, Note_on_c, 0, 55, 55
3, 439168, Note_off_c, 0, 55, 55
3, 439168, Note_on_c, 0, 58, 55
3, 439296, Note_off_c, 0, 58, 55
3, 439296, Note_on_c, 0, 56, 55
3, 439424, Note_off_c, 0, 56, 55
3, 439424, Note_on_c, 0, 60, 55
3, 439552, Note_off_c, 0, 60, 55
3, 439552, Note_on_c, 0, 56, 55
3, 439680, Note_off_c, 0, 56, 55
3, 439680, Note_on_c, 0, 60, 55
3, 439808, Note_off_c, 0, 60, 55
3, 439808, Note_on_c, 0, 56, 55
3, 439936, Note_off_c, 0, 56, 55
3, 439936, Note_on_c, 0, 60, 55
3, 440064, Note_off_c, 0, 60, 55
3, 440064, Note_on_c, 0, 56, 55
3, 440192, Note_off_c, 0, 56, 55
3, 440192, Note_on_c, 0, 60, 55
3, 440320, Note_off_c, 0, 60, 55
3, 440320, Note_on_c, 0, 53, 55
3, 440448, Note_off_c, 0, 53, 55
3, 440448, Note_on_c, 0, 56, 55
3, 440576, Note_off_c, 0, 56, 55
3, 440576, Note_on_c, 0, 53, 55
3, 440704, Note_off_c, 0, 53, 55
3, 440704, Note_on_c, 0, 56, 55
3, 440832, Note_off_c, 0, 56, 55
3, 440832, Note_on_c, 0, 53, 55
3, 440960, Note_off_c, 0, 53, 55
3, 440960, Note_on_c, 0, 56, 55
3, 441088, Note_off_c, 0, 56, 55
3, 441088, Note_on_c, 0, 53, 55
3, 441216, Note_off_c, 0, 53, 55
3, 441216, Note_on_c, 0, 56, 55
3, 441344, Note_off_c, 0, 56, 55
3, 441344, Note_on_c, 0, 55, 55
3, 441472, Note_off_c, 0, 55, 55
3, 441472, Note_on_c, 0, 58, 55
3, 441600, Note_off_c, 0, 58, 55
3, 441600, Note_on_c, 0, 55, 55
3, 441728, Note_off_c, 0, 55, 55
3, 441728, Note_on_c, 0, 58, 55
3, 441856, Note_off_c, 0, 58, 55
3, 441856, Note_on_c, 0, 55, 55
3, 441984, Note_off_c, 0, 55, 55
3, 441984, Note_on_c, 0, 58, 55
3, 442112, Note_off_c, 0, 58, 55
3, 442112, Note_on_c, 0, 55, 55
3, 442240, Note_off_c, 0, 55, 55
3, 442240, Note_on_c, 0, 58, 55
3, 442368, Note_off_c, 0, 58, 55
3, 442368, Note_on_c, 0, 51, 55
3, 442496, Note_off_c, 0, 51, 55
3, 442496, Note_on_c, 0, 55, 55
3, 442624, Note_off_c, 0, 55, 55
3, 442624, Note_on_c, 0, 51, 55
3, 442752, Note_off_c, 0, 51, 55
3, 442752, Note_on_c, 0, 55, 55
3, 442880, Note_off_c, 0, 55, 55
3, 442880, Note_on_c, 0, 51, 55
3, 443008, Note_off_c, 0, 51, 55
3, 443008, Note_on_c, 0, 55, 55
3, 443136, Note_off_c, 0, 55, 55
3, 443136, Note_on_c, 0, 56, 55
3, 443264, Note_off_c, 0, 56, 55
3, 443264, Note_on_c, 0, 55, 55
3, 443392, Note_off_c, 0, 55, 55
3, 443392, Note_on_c, 0, 53, 55
3, 443520, Note_off_c, 0, 53, 55
3, 443520, Note_on_c, 0, 58, 55
3, 443648, Note_off_c, 0, 58, 55
3, 443648, Note_on_c, 0, 53, 55
3, 443776, Note_off_c, 0, 53, 55
3, 443776, Note_on_c, 0, 58, 55
3, 443904, Note_off_c, 0, 58, 55
3, 443904, Note_on_c, 0, 53, 55
3, 444032, Note_off_c, 0, 53, 55
3, 444032, Note_on_c, 0, 58, 55
3, 444160, Note_off_c, 0, 58, 55
3, 444160, Note_on_c, 0, 53, 55
3, 444288, Note_off_c, 0, 53, 55
3, 444288, Note_on_c, 0, 58, 55
3, 444416, Note_off_c, 0, 58, 55
3, 444416, Note_on_c, 0, 53, 55
3, 444544, Note_off_c, 0, 53, 55
3, 444544, Note_on_c, 0, 58, 55
3, 444672, Note_off_c, 0, 58, 55
3, 444672, Note_on_c, 0, 53, 55
3, 444800, Note_off_c, 0, 53, 55
3, 444800, Note_on_c, 0, 58, 55
3, 444928, Note_off_c, 0, 58, 55
3, 444928, Note_on_c, 0, 53, 55
3, 445056, Note_off_c, 0, 53, 55
3, 445056, Note_on_c, 0, 58, 55
3, 445184, Note_off_c, 0, 58, 55
3, 445184, Note_on_c, 0, 56, 55
3, 445312, Note_off_c, 0, 56, 55
3, 445312, Note_on_c, 0, 58, 55
3, 445440, Note_off_c, 0, 58, 55
3, 445440, Note_on_c, 0, 55, 55
3, 445568, Note_off_c, 0, 55, 55
3, 445568, Note_on_c, 0, 58, 55
3, 445696, Note_off_c, 0, 58, 55
3, 445696, Note_on_c, 0, 55, 55
3, 445824, Note_off_c, 0, 55, 55
3, 445824, Note_on_c, 0, 58, 55
3, 445952, Note_off_c, 0, 58, 55
3, 445952, Note_on_c, 0, 55, 55
3, 446080, Note_off_c, 0, 55, 55
3, 446080, Note_on_c, 0, 58, 55
3, 446208, Note_off_c, 0, 58, 55
3, 446208, Note_on_c, 0, 56, 55
3, 446336, Note_off_c, 0, 56, 55
3, 446336, Note_on_c, 0, 58, 55
3, 446464, Note_off_c, 0, 58, 55
3, 446464, Note_on_c, 0, 51, 55
3, 446592, Note_off_c, 0, 51, 55
3, 446592, Note_on_c, 0, 55, 55
3, 446720, Note_off_c, 0, 55, 55
3, 446720, Note_on_c, 0, 51, 55
3, 446848, Note_off_c, 0, 51, 55
3, 446848, Note_on_c, 0, 55, 55
3, 446976, Note_off_c, 0, 55, 55
3, 446976, Note_on_c, 0, 51, 55
3, 447104, Note_off_c, 0, 51, 55
3, 447104, Note_on_c, 0, 55, 55
3, 447232, Note_off_c, 0, 55, 55
3, 447232, Note_on_c, 0, 56, 55
3, 447360, Note_off_c, 0, 56, 55
3, 447360, Note_on_c, 0, 55, 55
3, 447488, Note_off_c, 0, 55, 55
3, 447488, Note_on_c, 0, 53, 55
3, 447616, Note_off_c, 0, 53, 55
3, 447616, Note_on_c, 0, 58, 55
3, 447744, Note_off_c, 0, 58, 55
3, 447744, Note_on_c, 0, 53, 55
3, 447872, Note_off_c, 0, 53, 55
3, 447872, Note_on_c, 0, 58, 55
3, 448000, Note_off_c, 0, 58, 55
3, 448000, Note_on_c, 0, 53, 55
3, 448128, Note_off_c, 0, 53, 55
3, 448128, Note_on_c, 0, 58, 55
3, 448256, Note_off_c, 0, 58, 55
3, 448256, Note_on_c, 0, 53, 55
3, 448384, Note_off_c, 0, 53, 55
3, 448384, Note_on_c, 0, 58, 55
3, 448512, Note_off_c, 0, 58, 55
3, 448512, Note_on_c, 0, 53, 55
3, 448640, Note_off_c, 0, 53, 55
3, 448640, Note_on_c, 0, 58, 55
3, 448768, Note_off_c, 0, 58, 55
3, 448768, Note_on_c, 0, 53, 55
3, 448896, Note_off_c, 0, 53, 55
3, 448896, Note_on_c, 0, 58, 55
3, 449024, Note_off_c, 0, 58, 55
3, 449024, Note_on_c, 0, 53, 55
3, 449152, Note_off_c, 0, 53, 55
3, 449152, Note_on_c, 0, 58, 55
3, 449280, Note_off_c, 0, 58, 55
3, 449280, Note_on_c, 0, 56, 55
3, 449408, Note_off_c, 0, 56, 55
3, 449408, Note_on_c, 0, 58, 55
3, 449536, Note_off_c, 0, 58, 55
3, 449536, Note_on_c, 0, 51, 55
3, 449664, Note_off_c, 0, 51, 55
3, 449664, Note_on_c, 0, 55, 55
3, 449792, Note_off_c, 0, 55, 55
3, 449792, Note_on_c, 0, 51, 55
3, 449920, Note_off_c, 0, 51, 55
3, 449920, Note_on_c, 0, 55, 55
3, 450048, Note_off_c, 0, 55, 55
3, 450048, Note_on_c, 0, 51, 55
3, 450176, Note_off_c, 0, 51, 55
3, 450176, Note_on_c, 0, 58, 55
3, 450304, Note_off_c, 0, 58, 55
3, 450304, Note_on_c, 0, 56, 55
3, 450432, Note_off_c, 0, 56, 55
3, 450432, Note_on_c, 0, 55, 55
3, 450560, Note_off_c, 0, 55, 55
3, 450560, Note_on_c, 0, 55, 55
3, 450560, Note_on_c, 0, 67, 55
3, 450688, Note_off_c, 0, 55, 55
3, 450688, Note_off_c, 0, 67, 55
3, 450688, Note_on_c, 0, 58, 55
3, 450688, Note_on_c, 0, 65, 55
3, 450816, Note_off_c, 0, 58, 55
3, 450816, Note_off_c, 0, 65, 55
3, 450816, Note_on_c, 0, 55, 55
3, 450816, Note_on_c, 0, 63, 55
3, 450944, Note_off_c, 0, 55, 55
3, 450944, Note_off_c, 0, 63, 55
3, 450944, Note_on_c, 0, 58, 55
3, 451072, Note_off_c, 0, 58, 55
3, 451072, Note_on_c, 0, 55, 55
3, 451072, Note_on_c, 0, 65, 55
3, 451200, Note_off_c, 0, 55, 55
3, 451200, Note_off_c, 0, 65, 55
3, 451200, Note_on_c, 0, 58, 55
3, 451200, Note_on_c, 0, 67, 55
3, 451328, Note_off_c, 0, 58, 55
3, 451328, Note_off_c, 0, 67, 55
3, 451328, Note_on_c, 0, 55, 55
3, 451456, Note_off_c, 0, 55, 55
3, 451456, Note_on_c, 0, 58, 55
3, 451584, Note_off_c, 0, 58, 55
3, 451584, Note_on_c, 0, 56, 55
3, 451712, Note_off_c, 0, 56, 55
3, 451712, Note_on_c, 0, 60, 55
3, 451840, Note_off_c, 0, 60, 55
3, 451840, Note_on_c, 0, 56, 55
3, 451968, Note_off_c, 0, 56, 55
3, 451968, Note_on_c, 0, 60, 55
3, 452096, Note_off_c, 0, 60, 55
3, 452096, Note_on_c, 0, 56, 55
3, 452224, Note_off_c, 0, 56, 55
3, 452224, Note_on_c, 0, 60, 55
3, 452352, Note_off_c, 0, 60, 55
3, 452352, Note_on_c, 0, 56, 55
3, 452480, Note_off_c, 0, 56, 55
3, 452480, Note_on_c, 0, 60, 55
3, 452608, Note_off_c, 0, 60, 55
3, 452608, Note_on_c, 0, 53, 55
3, 452736, Note_off_c, 0, 53, 55
3, 452736, Note_on_c, 0, 56, 55
3, 452864, Note_off_c, 0, 56, 55
3, 452864, Note_on_c, 0, 53, 55
3, 452992, Note_off_c, 0, 53, 55
3, 452992, Note_on_c, 0, 56, 55
3, 453120, Note_off_c, 0, 56, 55
3, 453120, Note_on_c, 0, 53, 55
3, 453120, Note_on_c, 0, 62, 55
3, 453248, Note_off_c, 0, 53, 55
3, 453248, Note_off_c, 0, 62, 55
3, 453248, Note_on_c, 0, 56, 55
3, 453248, Note_on_c, 0, 63, 55
3, 453376, Note_off_c, 0, 56, 55
3, 453376, Note_off_c, 0, 63, 55
3, 453376, Note_on_c, 0, 53, 55
3, 453504, Note_off_c, 0, 53, 55
3, 453504, Note_on_c, 0, 56, 55
3, 453632, Note_off_c, 0, 56, 55
3, 453632, Note_on_c, 0, 55, 55
3, 453760, Note_off_c, 0, 55, 55
3, 453760, Note_on_c, 0, 58, 55
3, 453888, Note_off_c, 0, 58, 55
3, 453888, Note_on_c, 0, 55, 55
3, 454016, Note_off_c, 0, 55, 55
3, 454016, Note_on_c, 0, 58, 55
3, 454144, Note_off_c, 0, 58, 55
3, 454144, Note_on_c, 0, 55, 55
3, 454272, Note_off_c, 0, 55, 55
3, 454272, Note_on_c, 0, 58, 55
3, 454400, Note_off_c, 0, 58, 55
3, 454400, Note_on_c, 0, 55, 55
3, 454528, Note_off_c, 0, 55, 55
3, 454528, Note_on_c, 0, 58, 55
3, 454656, Note_off_c, 0, 58, 55
3, 454656, Note_on_c, 0, 55, 55
3, 454784, Note_off_c, 0, 55, 55
3, 454784, Note_on_c, 0, 58, 55
3, 454912, Note_off_c, 0, 58, 55
3, 454912, Note_on_c, 0, 55, 55
3, 455040, Note_off_c, 0, 55, 55
3, 455040, Note_on_c, 0, 58, 55
3, 455168, Note_off_c, 0, 58, 55
3, 455168, Note_on_c, 0, 55, 55
3, 455296, Note_off_c, 0, 55, 55
3, 455296, Note_on_c, 0, 58, 55
3, 455424, Note_off_c, 0, 58, 55
3, 455424, Note_on_c, 0, 55, 55
3, 455552, Note_off_c, 0, 55, 55
3, 455552, Note_on_c, 0, 58, 55
3, 455680, Note_off_c, 0, 58, 55
3, 455680, Note_on_c, 0, 56, 55
3, 455808, Note_off_c, 0, 56, 55
3, 455808, Note_on_c, 0, 60, 55
3, 455936, Note_off_c, 0, 60, 55
3, 455936, Note_on_c, 0, 56, 55
3, 456064, Note_off_c, 0, 56, 55
3, 456064, Note_on_c, 0, 60, 55
3, 456192, Note_off_c, 0, 60, 55
3, 456192, Note_on_c, 0, 56, 55
3, 456320, Note_off_c, 0, 56, 55
3, 456320, Note_on_c, 0, 60, 55
3, 456448, Note_off_c, 0, 60, 55
3, 456448, Note_on_c, 0, 56, 55
3, 456576, Note_off_c, 0, 56, 55
3, 456576, Note_on_c, 0, 60, 55
3, 456704, Note_off_c, 0, 60, 55
3, 456704, Note_on_c, 0, 53, 55
3, 456832, Note_off_c, 0, 53, 55
3, 456832, Note_on_c, 0, 56, 55
3, 456960, Note_off_c, 0, 56, 55
3, 456960, Note_on_c, 0, 53, 55
3, 457088, Note_off_c, 0, 53, 55
3, 457088, Note_on_c, 0, 56, 55
3, 457216, Note_off_c, 0, 56, 55
3, 457216, Note_on_c, 0, 53, 55
3, 457344, Note_off_c, 0, 53, 55
3, 457344, Note_on_c, 0, 56, 55
3, 457472, Note_off_c, 0, 56, 55
3, 457472, Note_on_c, 0, 53, 55
3, 457600, Note_off_c, 0, 53, 55
3, 457600, Note_on_c, 0, 56, 55
3, 457728, Note_off_c, 0, 56, 55
3, 457728, Note_on_c, 0, 55, 55
3, 457856, Note_off_c, 0, 55, 55
3, 457856, Note_on_c, 0, 58, 55
3, 457984, Note_off_c, 0, 58, 55
3, 457984, Note_on_c, 0, 55, 55
3, 458112, Note_off_c, 0, 55, 55
3, 458112, Note_on_c, 0, 58, 55
3, 458240, Note_off_c, 0, 58, 55
3, 458240, Note_on_c, 0, 55, 55
3, 458368, Note_off_c, 0, 55, 55
3, 458368, Note_on_c, 0, 58, 55
3, 458496, Note_off_c, 0, 58, 55
3, 458496, Note_on_c, 0, 55, 55
3, 458624, Note_off_c, 0, 55, 55
3, 458624, Note_on_c, 0, 58, 55
3, 458752, Note_off_c, 0, 58, 55
3, 458752, Note_on_c, 0, 51, 55
3, 458880, Note_off_c, 0, 51, 55
3, 458880, Note_on_c, 0, 55, 55
3, 459008, Note_off_c, 0, 55, 55
3, 459008, Note_on_c, 0, 51, 55
3, 459136, Note_off_c, 0, 51, 55
3, 459136, Note_on_c, 0, 55, 55
3, 459264, Note_off_c, 0, 55, 55
3, 459264, Note_on_c, 0, 51, 55
3, 459392, Note_off_c, 0, 51, 55
3, 459392, Note_on_c, 0, 55, 55
3, 459520, Note_off_c, 0, 55, 55
3, 459520, Note_on_c, 0, 56, 55
3, 459648, Note_off_c, 0, 56, 55
3, 459648, Note_on_c, 0, 55, 55
3, 459776, Note_off_c, 0, 55, 55
3, 459776, Note_on_c, 0, 53, 55
3, 459904, Note_off_c, 0, 53, 55
3, 459904, Note_on_c, 0, 58, 55
3, 460032, Note_off_c, 0, 58, 55
3, 460032, Note_on_c, 0, 53, 55
3, 460160, Note_off_c, 0, 53, 55
3, 460160, Note_on_c, 0, 58, 55
3, 460288, Note_off_c, 0, 58, 55
3, 460288, Note_on_c, 0, 53, 55
3, 460416, Note_off_c, 0, 53, 55
3, 460416, Note_on_c, 0, 58, 55
3, 460544, Note_off_c, 0, 58, 55
3, 460544, Note_on_c, 0, 53, 55
3, 460672, Note_off_c, 0, 53, 55
3, 460672, Note_on_c, 0, 58, 55
3, 460800, Note_off_c, 0, 58, 55
3, 460800, Note_on_c, 0, 53, 55
3, 460928, Note_off_c, 0, 53, 55
3, 460928, Note_on_c, 0, 58, 55
3, 461056, Note_off_c, 0, 58, 55
3, 461056, Note_on_c, 0, 53, 55
3, 461184, Note_off_c, 0, 53, 55
3, 461184, Note_on_c, 0, 58, 55
3, 461312, Note_off_c, 0, 58, 55
3, 461312, Note_on_c, 0, 53, 55
3, 461440, Note_off_c, 0, 53, 55
3, 461440, Note_on_c, 0, 58, 55
3, 461568, Note_off_c, 0, 58, 55
3, 461568, Note_on_c, 0, 56, 55
3, 461696, Note_off_c, 0, 56, 55
3, 461696, Note_on_c, 0, 58, 55
3, 461824, Note_off_c, 0, 58, 55
3, 461824, Note_on_c, 0, 55, 55
3, 461952, Note_off_c, 0, 55, 55
3, 461952, Note_on_c, 0, 58, 55
3, 462080, Note_off_c, 0, 58, 55
3, 462080, Note_on_c, 0, 55, 55
3, 462208, Note_off_c, 0, 55, 55
3, 462208, Note_on_c, 0, 58, 55
3, 462336, Note_off_c, 0, 58, 55
3, 462336, Note_on_c, 0, 55, 55
3, 462464, Note_off_c, 0, 55, 55
3, 462464, Note_on_c, 0, 58, 55
3, 462592, Note_off_c, 0, 58, 55
3, 462592, Note_on_c, 0, 56, 55
3, 462720, Note_off_c, 0, 56, 55
3, 462720, Note_on_c, 0, 58, 55
3, 462848, Note_off_c, 0, 58, 55
3, 462848, Note_on_c, 0, 51, 55
3, 462976, Note_off_c, 0, 51, 55
3, 462976, Note_on_c, 0, 55, 55
3, 463104, Note_off_c, 0, 55, 55
3, 463104, Note_on_c, 0, 51, 55
3, 463232, Note_off_c, 0, 51, 55
3, 463232, Note_on_c, 0, 55, 55
3, 463360, Note_off_c, 0, 55, 55
3, 463360, Note_on_c, 0, 51, 55
3, 463488, Note_off_c, 0, 51, 55
3, 463488, Note_on_c, 0, 55, 55
3, 463616, Note_off_c, 0, 55, 55
3, 463616, Note_on_c, 0, 56, 55
3, 463744, Note_off_c, 0, 56, 55
3, 463744, Note_on_c, 0, 55, 55
3, 463872, Note_off_c, 0, 55, 55
3, 463872, Note_on_c, 0, 53, 55
3, 464000, Note_off_c, 0, 53, 55
3, 464000, Note_on_c, 0, 58, 55
3, 464128, Note_off_c, 0, 58, 55
3, 464128, Note_on_c, 0, 53, 55
3, 464256, Note_off_c, 0, 53, 55
3, 464256, Note_on_c, 0, 58, 55
3, 464384, Note_off_c, 0, 58, 55
3, 464384, Note_on_c, 0, 53, 55
3, 464512, Note_off_c, 0, 53, 55
3, 464512, Note_on_c, 0, 58, 55
3, 464640, Note_off_c, 0, 58, 55
3, 464640, Note_on_c, 0, 53, 55
3, 464768, Note_off_c, 0, 53, 55
3, 464768, Note_on_c, 0, 58, 55
3, 464896, Note_off_c, 0, 58, 55
3, 464896, Note_on_c, 0, 53, 55
3, 465024, Note_off_c, 0, 53, 55
3, 465024, Note_on_c, 0, 58, 55
3, 465152, Note_off_c, 0, 58, 55
3, 465152, Note_on_c, 0, 53, 55
3, 465280, Note_off_c, 0, 53, 55
3, 465280, Note_on_c, 0, 58, 55
3, 465408, Note_off_c, 0, 58, 55
3, 465408, Note_on_c, 0, 53, 55
3, 465536, Note_off_c, 0, 53, 55
3, 465536, Note_on_c, 0, 58, 55
3, 465664, Note_off_c, 0, 58, 55
3, 465664, Note_on_c, 0, 56, 55
3, 465792, Note_off_c, 0, 56, 55
3, 465792, Note_on_c, 0, 58, 55
3, 465920, Note_off_c, 0, 58, 55
3, 465920, Note_on_c, 0, 51, 55
3, 466048, Note_off_c, 0, 51, 55
3, 466048, Note_on_c, 0, 55, 55
3, 466176, Note_off_c, 0, 55, 55
3, 466176, Note_on_c, 0, 51, 55
3, 466304, Note_off_c, 0, 51, 55
3, 466304, Note_on_c, 0, 55, 55
3, 466432, Note_off_c, 0, 55, 55
3, 466432, Note_on_c, 0, 51, 55
3, 466560, Note_off_c, 0, 51, 55
3, 466560, Note_on_c, 0, 58, 55
3, 466688, Note_off_c, 0, 58, 55
3, 466688, Note_on_c, 0, 56, 55
3, 466816, Note_off_c, 0, 56, 55
3, 466816, Note_on_c, 0, 55, 55
3, 466944, Note_off_c, 0, 55, 55
3, 466944, Note_on_c, 0, 55, 55
3, 466944, Note_on_c, 0, 67, 55
3, 467072, Note_off_c, 0, 55, 55
3, 467072, Note_off_c, 0, 67, 55
3, 467072, Note_on_c, 0, 58, 55
3, 467072, Note_on_c, 0, 65, 55
3, 467200, Note_off_c, 0, 58, 55
3, 467200, Note_off_c, 0, 65, 55
3, 467200, Note_on_c, 0, 55, 55
3, 467200, Note_on_c, 0, 63, 55
3, 467328, Note_off_c, 0, 55, 55
3, 467328, Note_off_c, 0, 63, 55
3, 467328, Note_on_c, 0, 58, 55
3, 467456, Note_off_c, 0, 58, 55
3, 467456, Note_on_c, 0, 55, 55
3, 467456, Note_on_c, 0, 65, 55
3, 467584, Note_off_c, 0, 55, 55
3, 467584, Note_off_c, 0, 65, 55
3, 467584, Note_on_c, 0, 58, 55
3, 467584, Note_on_c, 0, 67, 55
3, 467712, Note_off_c, 0, 58, 55
3, 467712, Note_off_c, 0, 67, 55
3, 467712, Note_on_c, 0, 55, 55
3, 467840, Note_off_c, 0, 55, 55
3, 467840, Note_on_c, 0, 58, 55
3, 467968, Note_off_c, 0, 58, 55
3, 467968, Note_on_c, 0, 56, 55
3, 468096, Note_off_c, 0, 56, 55
3, 468096, Note_on_c, 0, 60, 55
3, 468224, Note_off_c, 0, 60, 55
3, 468224, Note_on_c, 0, 56, 55
3, 468352, Note_off_c, 0, 56, 55
3, 468352, Note_on_c, 0, 60, 55
3, 468480, Note_off_c, 0, 60, 55
3, 468480, Note_on_c, 0, 56, 55
3, 468608, Note_off_c, 0, 56, 55
3, 468608, Note_on_c, 0, 60, 55
3, 468736, Note_off_c, 0, 60, 55
3, 468736, Note_on_c, 0, 56, 55
3, 468864, Note_off_c, 0, 56, 55
3, 468864, Note_on_c, 0, 60, 55
3, 468992, Note_off_c, 0, 60, 55
3, 468992, Note_on_c, 0, 53, 55
3, 469120, Note_off_c, 0, 53, 55
3, 469120, Note_on_c, 0, 56, 55
3, 469248, Note_off_c, 0, 56, 55
3, 469248, Note_on_c, 0, 53, 55
3, 469376, Note_off_c, 0, 53, 55
3, 469376, Note_on_c, 0, 56, 55
3, 469504, Note_off_c, 0, 56, 55
3, 469504, Note_on_c, 0, 53, 55
3, 469504, Note_on_c, 0, 62, 55
3, 469632, Note_off_c, 0, 53, 55
3, 469632, Note_off_c, 0, 62, 55
3, 469632, Note_on_c, 0, 56, 55
3, 469632, Note_on_c, 0, 63, 55
3, 469760, Note_off_c, 0, 56, 55
3, 469760, Note_off_c, 0, 63, 55
3, 469760, Note_on_c, 0, 53, 55
3, 469888, Note_off_c, 0, 53, 55
3, 469888, Note_on_c, 0, 56, 55
3, 470016, Note_off_c, 0, 56, 55
3, 470016, Note_on_c, 0, 55, 55
3, 470144, Note_off_c, 0, 55, 55
3, 470144, Note_on_c, 0, 58, 55
3, 470272, Note_off_c, 0, 58, 55
3, 470272, Note_on_c, 0, 55, 55
3, 470400, Note_off_c, 0, 55, 55
3, 470400, Note_on_c, 0, 58, 55
3, 470528, Note_off_c, 0, 58, 55
3, 470528, Note_on_c, 0, 55, 55
3, 470656, Note_off_c, 0, 55, 55
3, 470656, Note_on_c, 0, 58, 55
3, 470784, Note_off_c, 0, 58, 55
3, 470784, Note_on_c, 0, 55, 55
3, 470912, Note_off_c, 0, 55, 55
3, 470912, Note_on_c, 0, 58, 55
3, 471040, Note_off_c, 0, 58, 55
3, 471040, Note_on_c, 0, 55, 55
3, 471168, Note_off_c, 0, 55, 55
3, 471168, Note_on_c, 0, 58, 55
3, 471296, Note_off_c, 0, 58, 55
3, 471296, Note_on_c, 0, 55, 55
3, 471424, Note_off_c, 0, 55, 55
3, 471424, Note_on_c, 0, 58, 55
3, 471552, Note_off_c, 0, 58, 55
3, 471552, Note_on_c, 0, 55, 55
3, 471680, Note_off_c, 0, 55, 55
3, 471680, Note_on_c, 0, 58, 55
3, 471808, Note_off_c, 0, 58, 55
3, 471808, Note_on_c, 0, 55, 55
3, 471936, Note_off_c, 0, 55, 55
3, 471936, Note_on_c, 0, 58, 55
3, 472064, Note_off_c, 0, 58, 55
3, 472064, Note_on_c, 0, 56, 55
3, 472192, Note_off_c, 0, 56, 55
3, 472192, Note_on_c, 0, 60, 55
3, 472320, Note_off_c, 0, 60, 55
3, 472320, Note_on_c, 0, 56, 55
3, 472448, Note_off_c, 0, 56, 55
3, 472448, Note_on_c, 0, 60, 55
3, 472576, Note_off_c, 0, 60, 55
3, 472576, Note_on_c, 0, 56, 55
3, 472704, Note_off_c, 0, 56, 55
3, 472704, Note_on_c, 0, 60, 55
3, 472832, Note_off_c, 0, 60, 55
3, 472832, Note_on_c, 0, 56, 55
3, 472960, Note_off_c, 0, 56, 55
3, 472960, Note_on_c, 0, 60, 55
3, 473088, Note_off_c, 0, 60, 55
3, 473088, Note_on_c, 0, 53, 55
3, 473216, Note_off_c, 0, 53, 55
3, 473216, Note_on_c, 0, 56, 55
3, 473344, Note_off_c, 0, 56, 55
3, 473344, Note_on_c, 0, 53, 55
3, 473472, Note_off_c, 0, 53, 55
3, 473472, Note_on_c, 0, 56, 55
3, 473600, Note_off_c, 0, 56, 55
3, 473600, Note_on_c, 0, 53, 55
3, 473728, Note_off_c, 0, 53, 55
3, 473728, Note_on_c, 0, 56, 55
3, 473856, Note_off_c, 0, 56, 55
3, 473856, Note_on_c, 0, 53, 55
3, 473984, Note_off_c, 0, 53, 55
3, 473984, Note_on_c, 0, 56, 55
3, 474112, Note_off_c, 0, 56, 55
3, 474112, Note_on_c, 0, 55, 55
3, 474240, Note_off_c, 0, 55, 55
3, 474240, Note_on_c, 0, 58, 55
3, 474368, Note_off_c, 0, 58, 55
3, 474368, Note_on_c, 0, 55, 55
3, 474496, Note_off_c, 0, 55, 55
3, 474496, Note_on_c, 0, 58, 55
3, 474624, Note_off_c, 0, 58, 55
3, 474624, Note_on_c, 0, 55, 55
3, 474752, Note_off_c, 0, 55, 55
3, 474752, Note_on_c, 0, 58, 55
3, 474880, Note_off_c, 0, 58, 55
3, 474880, Note_on_c, 0, 55, 55
3, 475008, Note_off_c, 0, 55, 55
3, 475008, Note_on_c, 0, 58, 55
3, 475136, Note_off_c, 0, 58, 55
3, 475136, Note_on_c, 0, 51, 55
3, 475264, Note_off_c, 0, 51, 55
3, 475264, Note_on_c, 0, 55, 55
3, 475392, Note_off_c, 0, 55, 55
3, 475392, Note_on_c, 0, 51, 55
3, 475520, Note_off_c, 0, 51, 55
3, 475520, Note_on_c, 0, 55, 55
3, 475648, Note_off_c, 0, 55, 55
3, 475648, Note_on_c, 0, 51, 55
3, 475776, Note_off_c, 0, 51, 55
3, 475776, Note_on_c, 0, 55, 55
3, 475904, Note_off_c, 0, 55, 55
3, 475904, Note_on_c, 0, 56, 55
3, 476032, Note_off_c, 0, 56, 55
3, 476032, Note_on_c, 0, 55, 55
3, 476160, Note_off_c, 0, 55, 55
3, 476160, Note_on_c, 0, 53, 55
3, 476288, Note_off_c, 0, 53, 55
3, 476288, Note_on_c, 0, 58, 55
3, 476416, Note_off_c, 0, 58, 55
3, 476416, Note_on_c, 0, 53, 55
3, 476544, Note_off_c, 0, 53, 55
3, 476544, Note_on_c, 0, 58, 55
3, 476672, Note_off_c, 0, 58, 55
3, 476672, Note_on_c, 0, 53, 55
3, 476800, Note_off_c, 0, 53, 55
3, 476800, Note_on_c, 0, 58, 55
3, 476928, Note_off_c, 0, 58, 55
3, 476928, Note_on_c, 0, 53, 55
3, 477056, Note_off_c, 0, 53, 55
3, 477056, Note_on_c, 0, 58, 55
3, 477184, Note_off_c, 0, 58, 55
3, 477184, Note_on_c, 0, 53, 55
3, 477312, Note_off_c, 0, 53, 55
3, 477312, Note_on_c, 0, 58, 55
3, 477440, Note_off_c, 0, 58, 55
3, 477440, Note_on_c, 0, 53, 55
3, 477568, Note_off_c, 0, 53, 55
3, 477568, Note_on_c, 0, 58, 55
3, 477696, Note_off_c, 0, 58, 55
3, 477696, Note_on_c, 0, 53, 55
3, 477824, Note_off_c, 0, 53, 55
3, 477824, Note_on_c, 0, 58, 55
3, 477952, Note_off_c, 0, 58, 55
3, 477952, Note_on_c, 0, 56, 55
3, 478080, Note_off_c, 0, 56, 55
3, 478080, Note_on_c, 0, 58, 55
3, 478208, Note_off_c, 0, 58, 55
3, 478208, Note_on_c, 0, 55, 55
3, 478336, Note_off_c, 0, 55, 55
3, 478336, Note_on_c, 0, 58, 55
3, 478464, Note_off_c, 0, 58, 55
3, 478464, Note_on_c, 0, 55, 55
3, 478592, Note_off_c, 0, 55, 55
3, 478592, Note_on_c, 0, 58, 55
3, 478720, Note_off_c, 0, 58, 55
3, 478720, Note_on_c, 0, 55, 55
3, 478848, Note_off_c, 0, 55, 55
3, 478848, Note_on_c, 0, 58, 55
3, 478976, Note_off_c, 0, 58, 55
3, 478976, Note_on_c, 0, 56, 55
3, 479104, Note_off_c, 0, 56, 55
3, 479104, Note_on_c, 0, 58, 55
3, 479232, Note_off_c, 0, 58, 55
3, 479232, Note_on_c, 0, 51, 55
3, 479360, Note_off_c, 0, 51, 55
3, 479360, Note_on_c, 0, 55, 55
3, 479488, Note_off_c, 0, 55, 55
3, 479488, Note_on_c, 0, 51, 55
3, 479616, Note_off_c, 0, 51, 55
3, 479616, Note_on_c, 0, 55, 55
3, 479744, Note_off_c, 0, 55, 55
3, 479744, Note_on_c, 0, 51, 55
3, 479872, Note_off_c, 0, 51, 55
3, 479872, Note_on_c, 0, 55, 55
3, 480000, Note_off_c, 0, 55, 55
3, 480000, Note_on_c, 0, 56, 55
3, 480128, Note_off_c, 0, 56, 55
3, 480128, Note_on_c, 0, 55, 55
3, 480256, Note_off_c, 0, 55, 55
3, 480256, Note_on_c, 0, 53, 55
3, 480384, Note_off_c, 0, 53, 55
3, 480384, Note_on_c, 0, 58, 55
3, 480512, Note_off_c, 0, 58, 55
3, 480512, Note_on_c, 0, 53, 55
3, 480640, Note_off_c, 0, 53, 55
3, 480640, Note_on_c, 0, 58, 55
3, 480768, Note_off_c, 0, 58, 55
3, 480768, Note_on_c, 0, 53, 55
3, 480896, Note_off_c, 0, 53, 55
3, 480896, Note_on_c, 0, 58, 55
3, 481024, Note_off_c, 0, 58, 55
3, 481024, Note_on_c, 0, 53, 55
3, 481152, Note_off_c, 0, 53, 55
3, 481152, Note_on_c, 0, 58, 55
3, 481280, Note_off_c, 0, 58, 55
3, 481280, Note_on_c, 0, 53, 55
3, 481408, Note_off_c, 0, 53, 55
3, 481408, Note_on_c, 0, 58, 55
3, 481536, Note_off_c, 0, 58, 55
3, 481536, Note_on_c, 0, 53, 55
3, 481664, Note_off_c, 0, 53, 55
3, 481664, Note_on_c, 0, 58, 55
3, 481792, Note_off_c, 0, 58, 55
3, 481792, Note_on_c, 0, 53, 55
3, 481920, Note_off_c, 0, 53, 55
3, 481920, Note_on_c, 0, 58, 55
3, 482048, Note_off_c, 0, 58, 55
3, 482048, Note_on_c, 0, 56, 55
3, 482176, Note_off_c, 0, 56, 55
3, 482176, Note_on_c, 0, 58, 55
3, 482304, Note_off_c, 0, 58, 55
3, 482304, Note_on_c, 0, 51, 55
3, 482432, Note_off_c, 0, 51, 55
3, 482432, Note_on_c, 0, 55, 55
3, 482560, Note_off_c, 0, 55, 55
3, 482560, Note_on_c, 0, 51, 55
3, 482688, Note_off_c, 0, 51, 55
3, 482688, Note_on_c, 0, 55, 55
3, 482816, Note_off_c, 0, 55, 55
3, 482816, Note_on_c, 0, 51, 55
3, 482944, Note_off_c, 0, 51, 55
3, 482944, Note_on_c, 0, 58, 55
3, 483072, Note_off_c, 0, 58, 55
3, 483072, Note_on_c, 0, 56, 55
3, 483200, Note_off_c, 0, 56, 55
3, 483200, Note_on_c, 0, 55, 55
3, 483328, Note_off_c, 0, 55, 55
3, 483328, Note_on_c, 0, 55, 55
3, 483328, Note_on_c, 0, 67, 55
3, 483456, Note_off_c, 0, 55, 55
3, 483456, Note_off_c, 0, 67, 55
3, 483456, Note_on_c, 0, 58, 55
3, 483456, Note_on_c, 0, 65, 55
3, 483584, Note_off_c, 0, 58, 55
3, 483584, Note_off_c, 0, 65, 55
3, 483584, Note_on_c, 0, 55, 55
3, 483584, Note_on_c, 0, 63, 55
3, 483712, Note_off_c, 0, 55, 55
3, 483712, Note_off_c, 0, 63, 55
3, 483712, Note_on_c, 0, 58, 55
3, 483840, Note_off_c, 0, 58, 55
3, 483840, Note_on_c, 0, 55, 55
3, 483840, Note_on_c, 0, 65, 55
3, 483968, Note_off_c, 0, 55, 55
3, 483968, Note_off_c, 0, 65, 55
3, 483968, Note_on_c, 0, 58, 55
3, 483968, Note_on_c, 0, 67, 55
3, 484096, Note_off_c, 0, 58, 55
3, 484096, Note_off_c, 0, 67, 55
3, 484096, Note_on_c, 0, 55, 55
3, 484224, Note_off_c, 0, 55, 55
3, 484224, Note_on_c, 0, 58, 55
3, 484352, Note_off_c, 0, 58, 55
3, 484352, Note_on_c, 0, 56, 55
3, 484480, Note_off_c, 0, 56, 55
3, 484480, Note_on_c, 0, 60, 55
3, 484608, Note_off_c, 0, 60, 55
3, 484608, Note_on_c, 0, 56, 55
3, 484736, Note_off_c, 0, 56, 55
3, 484736, Note_on_c, 0, 60, 55
3, 484864, Note_off_c, 0, 60, 55
3, 484864, Note_on_c, 0, 56, 55
3, 484992, Note_off_c, 0, 56, 55
3, 484992, Note_on_c, 0, 60, 55
3, 485120, Note_off_c, 0, 60, 55
3, 485120, Note_on_c, 0, 56, 55
3, 485248, Note_off_c, 0, 56, 55
3, 485248, Note_on_c, 0, 60, 55
3, 485376, Note_off_c, 0, 60, 55
3, 485376, Note_on_c, 0, 53, 55
3, 485504, Note_off_c, 0, 53, 55
3, 485504, Note_on_c, 0, 56, 55
3, 485632, Note_off_c, 0, 56, 55
3, 485632, Note_on_c, 0, 53, 55
3, 485760, Note_off_c, 0, 53, 55
3, 485760, Note_on_c, 0, 56, 55
3, 485888, Note_off_c, 0, 56, 55
3, 485888, Note_on_c, 0, 53, 55
3, 485888, Note_on_c, 0, 62, 55
3, 486016, Note_off_c, 0, 53, 55
3, 486016, Note_off_c, 0, 62, 55
3, 486016, Note_on_c, 0, 56, 55
3, 486016, Note_on_c, 0, 63, 55
3, 486144, Note_off_c, 0, 56, 55
3, 486144, Note_off_c, 0, 63, 55
3, 486144, Note_on_c, 0, 53, 55
3, 486272, Note_off_c, 0, 53, 55
3, 486272, Note_on_c, 0, 56, 55
3, 486400, Note_off_c, 0, 56, 55
3, 486400, Note_on_c, 0, 55, 55
3, 486528, Note_off_c, 0, 55, 55
3, 486528, Note_on_c, 0, 58, 55
3, 486656, Note_off_c, 0, 58, 55
3, 486656, Note_on_c, 0, 55, 55
3, 486784, Note_off_c, 0, 55, 55
3, 486784, Note_on_c, 0, 58, 55
3, 486912, Note_off_c, 0, 58, 55
3, 486912, Note_on_c, 0, 55, 55
3, 487040, Note_off_c, 0, 55, 55
3, 487040, Note_on_c, 0, 58, 55
3, 487168, Note_off_c, 0, 58, 55
3, 487168, Note_on_c, 0, 55, 55
3, 487296, Note_off_c, 0, 55, 55
3, 487296, Note_on_c, 0, 58, 55
3, 487424, Note_off_c, 0, 58, 55
3, 487424, Note_on_c, 0, 55, 55
3, 487552, Note_off_c, 0, 55, 55
3, 487552, Note_on_c, 0, 58, 55
3, 487680, Note_off_c, 0, 58, 55
3, 487680, Note_on_c, 0, 55, 55
3, 487808, Note_off_c, 0, 55, 55
3, 487808, Note_on_c, 0, 58, 55
3, 487936, Note_off_c, 0, 58, 55
3, 487936, Note_on_c, 0, 55, 55
3, 488064, Note_off_c, 0, 55, 55
3, 488064, Note_on_c, 0, 58, 55
3, 488192, Note_off_c, 0, 58, 55
3, 488192, Note_on_c, 0, 55, 55
3, 488320, Note_off_c, 0, 55, 55
3, 488320, Note_on_c, 0, 58, 55
3, 488448, Note_off_c, 0, 58, 55
3, 488448, Note_on_c, 0, 56, 55
3, 488576, Note_off_c, 0, 56, 55
3, 488576, Note_on_c, 0, 60, 55
3, 488704, Note_off_c, 0, 60, 55
3, 488704, Note_on_c, 0, 56, 55
3, 488832, Note_off_c, 0, 56, 55
3, 488832, Note_on_c, 0, 60, 55
3, 488960, Note_off_c, 0, 60, 55
3, 488960, Note_on_c, 0, 56, 55
3, 489088, Note_off_c, 0, 56, 55
3, 489088, Note_on_c, 0, 60, 55
3, 489216, Note_off_c, 0, 60, 55
3, 489216, Note_on_c, 0, 56, 55
3, 489344, Note_off_c, 0, 56, 55
3, 489344, Note_on_c, 0, 60, 55
3, 489472, Note_off_c, 0, 60, 55
3, 489472, Note_on_c, 0, 53, 55
3, 489600, Note_off_c, 0, 53, 55
3, 489600, Note_on_c, 0, 56, 55
3, 489728, Note_off_c, 0, 56, 55
3, 489728, Note_on_c, 0, 53, 55
3, 489856, Note_off_c, 0, 53, 55
3, 489856, Note_on_c, 0, 56, 55
3, 489984, Note_off_c, 0, 56, 55
3, 489984, Note_on_c, 0, 53, 55
3, 490112, Note_off_c, 0, 53, 55
3, 490112, Note_on_c, 0, 56, 55
3, 490240, Note_off_c, 0, 56, 55
3, 490240, Note_on_c, 0, 53, 55
3, 490368, Note_off_c, 0, 53, 55
3, 490368, Note_on_c, 0, 56, 55
3, 490496, Note_off_c, 0, 56, 55
3, 490496, Note_on_c, 0, 55, 55
3, 490624, Note_off_c, 0, 55, 55
3, 490624, Note_on_c, 0, 58, 55
3, 490752, Note_off_c, 0, 58, 55
3, 490752, Note_on_c, 0, 55, 55
3, 490880, Note_off_c, 0, 55, 55
3, 490880, Note_on_c, 0, 58, 55
3, 491008, Note_off_c, 0, 58, 55
3, 491008, Note_on_c, 0, 55, 55
3, 491136, Note_off_c, 0, 55, 55
3, 491136, Note_on_c, 0, 58, 55
3, 491264, Note_off_c, 0, 58, 55
3, 491264, Note_on_c, 0, 55, 55
3, 491392, Note_off_c, 0, 55, 55
3, 491392, Note_on_c, 0, 58, 55
3, 491520, Note_off_c, 0, 58, 55
3, 491520, Note_on_c, 0, 51, 55
3, 491648, Note_off_c, 0, 51, 55
3, 491648, Note_on_c, 0, 55, 55
3, 491776, Note_off_c, 0, 55, 55
3, 491776, Note_on_c, 0, 51, 55
3, 491904, Note_off_c, 0, 51, 55
3, 491904, Note_on_c, 0, 55, 55
3, 492032, Note_off_c, 0, 55, 55
3, 492032, Note_on_c, 0, 51, 55
3, 492160, Note_off_c, 0, 51, 55
3, 492160, Note_on_c, 0, 55, 55
3, 492288, Note_off_c, 0, 55, 55
3, 492288, Note_on_c, 0, 56, 55
3, 492416, Note_off_c, 0, 56, 55
3, 492416, Note_on_c, 0, 55, 55
3, 492544, Note_off_c, 0, 55, 55
3, 492544, Note_on_c, 0, 53, 55
3, 492672, Note_off_c, 0, 53, 55
3, 492672, Note_on_c, 0, 58, 55
3, 492800, Note_off_c, 0, 58, 55
3, 492800, Note_on_c, 0, 53, 55
3, 492928, Note_off_c, 0, 53, 55
3, 492928, Note_on_c, 0, 58, 55
3, 493056, Note_off_c, 0, 58, 55
3, 493056, Note_on_c, 0, 53, 55
3, 493184, Note_off_c, 0, 53, 55
3, 493184, Note_on_c, 0, 58, 55
3, 493312, Note_off_c, 0, 58, 55
3, 493312, Note_on_c, 0, 53, 55
3, 493440, Note_off_c, 0, 53, 55
3, 493440, Note_on_c, 0, 58, 55
3, 493568, Note_off_c, 0, 58, 55
3, 493568, Note_on_c, 0, 53, 55
3, 493696, Note_off_c, 0, 53, 55
3, 493696, Note_on_c, 0, 58, 55
3, 493824, Note_off_c, 0, 58, 55
3, 493824, Note_on_c, 0, 53, 55
3, 493952, Note_off_c, 0, 53, 55
3, 493952, Note_on_c, 0, 58, 55
3, 494080, Note_off_c, 0, 58, 55
3, 494080, Note_on_c, 0, 53, 55
3, 494208, Note_off_c, 0, 53, 55
3, 494208, Note_on_c, 0, 58, 55
3, 494336, Note_off_c, 0, 58, 55
3, 494336, Note_on_c, 0, 56, 55
3, 494464, Note_off_c, 0, 56, 55
3, 494464, Note_on_c, 0, 58, 55
3, 494592, Note_off_c, 0, 58, 55
3, 494592, Note_on_c, 0, 55, 55
3, 494720, Note_off_c, 0, 55, 55
3, 494720, Note_on_c, 0, 58, 55
3, 494848, Note_off_c, 0, 58, 55
3, 494848, Note_on_c, 0, 55, 55
3, 494976, Note_off_c, 0, 55, 55
3, 494976, Note_on_c, 0, 58, 55
3, 495104, Note_off_c, 0, 58, 55
3, 495104, Note_on_c, 0, 55, 55
3, 495232, Note_off_c, 0, 55, 55
3, 495232, Note_on_c, 0, 58, 55
3, 495360, Note_off_c, 0, 58, 55
3, 495360, Note_on_c, 0, 56, 55
3, 495488, Note_off_c, 0, 56, 55
3, 495488, Note_on_c, 0, 58, 55
3, 495616, Note_off_c, 0, 58, 55
3, 495616, Note_on_c, 0, 51, 55
3, 495744, Note_off_c, 0, 51, 55
3, 495744, Note_on_c, 0, 55, 55
3, 495872, Note_off_c, 0, 55, 55
3, 495872, Note_on_c, 0, 51, 55
3, 496000, Note_off_c, 0, 51, 55
3, 496000, Note_on_c, 0, 55, 55
3, 496128, Note_off_c, 0, 55, 55
3, 496128, Note_on_c, 0, 51, 55
3, 496256, Note_off_c, 0, 51, 55
3, 496256, Note_on_c, 0, 55, 55
3, 496384, Note_off_c, 0, 55, 55
3, 496384, Note_on_c, 0, 56, 55
3, 496512, Note_off_c, 0, 56, 55
3, 496512, Note_on_c, 0, 55, 55
3, 496640, Note_off_c, 0, 55, 55
3, 496640, Note_on_c, 0, 53, 55
3, 496768, Note_off_c, 0, 53, 55
3, 496768, Note_on_c, 0, 58, 55
3, 496896, Note_off_c, 0, 58, 55
3, 496896, Note_on_c, 0, 53, 55
3, 497024, Note_off_c, 0, 53, 55
3, 497024, Note_on_c, 0, 58, 55
3, 497152, Note_off_c, 0, 58, 55
3, 497152, Note_on_c, 0, 53, 55
3, 497280, Note_off_c, 0, 53, 55
3, 497280, Note_on_c, 0, 58, 55
3, 497408, Note_off_c, 0, 58, 55
3, 497408, Note_on_c, 0, 53, 55
3, 497536, Note_off_c, 0, 53, 55
3, 497536, Note_on_c, 0, 58, 55
3, 497664, Note_off_c, 0, 58, 55
3, 497664, Note_on_c, 0, 53, 55
3, 497792, Note_off_c, 0, 53, 55
3, 497792, Note_on_c, 0, 58, 55
3, 497920, Note_off_c, 0, 58, 55
3, 497920, Note_on_c, 0, 53, 55
3, 498048, Note_off_c, 0, 53, 55
3, 498048, Note_on_c, 0, 58, 55
3, 498176, Note_off_c, 0, 58, 55
3, 498176, Note_on_c, 0, 53, 55
3, 498304, Note_off_c, 0, 53, 55
3, 498304, Note_on_c, 0, 58, 55
3, 498432, Note_off_c, 0, 58, 55
3, 498432, Note_on_c, 0, 56, 55
3, 498560, Note_off_c, 0, 56, 55
3, 498560, Note_on_c, 0, 58, 55
3, 498688, Note_off_c, 0, 58, 55
3, 498688, Note_on_c, 0, 51, 55
3, 498816, Note_off_c, 0, 51, 55
3, 498816, Note_on_c, 0, 55, 55
3, 498944, Note_off_c, 0, 55, 55
3, 498944, Note_on_c, 0, 51, 55
3, 499072, Note_off_c, 0, 51, 55
3, 499072, Note_on_c, 0, 55, 55
3, 499200, Note_off_c, 0, 55, 55
3, 499200, Note_on_c, 0, 51, 55
3, 499328, Note_off_c, 0, 51, 55
3, 499328, Note_on_c, 0, 58, 55
3, 499456, Note_off_c, 0, 58, 55
3, 499456, Note_on_c, 0, 56, 55
3, 499584, Note_off_c, 0, 56, 55
3, 499584, Note_on_c, 0, 55, 55
3, 499712, Note_off_c, 0, 55, 55
3, 499712, Note_on_c, 0, 55, 55
3, 499712, Note_on_c, 0, 67, 55
3, 499840, Note_off_c, 0, 55, 55
3, 499840, Note_off_c, 0, 67, 55
3, 499840, Note_on_c, 0, 58, 55
3, 499840, Note_on_c, 0, 65, 55
3, 499968, Note_off_c, 0, 58, 55
3, 499968, Note_off_c, 0, 65, 55
3, 499968, Note_on_c, 0, 55, 55
3, 499968, Note_on_c, 0, 63, 55
3, 500096, Note_off_c, 0, 55, 55
3, 500096, Note_off_c, 0, 63, 55
3, 500096, Note_on_c, 0, 58, 55
3, 500224, Note_off_c, 0, 58, 55
3, 500224, Note_on_c, 0, 55, 55
3, 500224, Note_on_c, 0, 65, 55
3, 500352, Note_off_c, 0, 55, 55
3, 500352, Note_off_c, 0, 65, 55
3, 500352, Note_on_c, 0, 58, 55
3, 500352, Note_on_c, 0, 67, 55
3, 500480, Note_off_c, 0, 58, 55
3, 500480, Note_off_c, 0, 67, 55
3, 500480, Note_on_c, 0, 55, 55
3, 500608, Note_off_c, 0, 55, 55
3, 500608, Note_on_c, 0, 58, 55
3, 500736, Note_off_c, 0, 58, 55
3, 500736, Note_on_c, 0, 56, 55
3, 500864, Note_off_c, 0, 56, 55
3, 500864, Note_on_c, 0, 60, 55
3, 500992, Note_off_c, 0, 60, 55
3, 500992, Note_on_c, 0, 56, 55
3, 501120, Note_off_c, 0, 56, 55
3, 501120, Note_on_c, 0, 60, 55
3, 501248, Note_off_c, 0, 60, 55
3, 501248, Note_on_c, 0, 56, 55
3, 501376, Note_off_c, 0, 56, 55
3, 501376, Note_on_c, 0, 60, 55
3, 501504, Note_off_c, 0, 60, 55
3, 501504, Note_on_c, 0, 56, 55
3, 501632, Note_off_c, 0, 56, 55
3, 501632, Note_on_c, 0, 60, 55
3, 501760, Note_off_c, 0, 60, 55
3, 501760, Note_on_c, 0, 53, 55
3, 501888, Note_off_c, 0, 53, 55
3, 501888, Note_on_c, 0, 56, 55
3, 502016, Note_off_c, 0, 56, 55
3, 502016, Note_on_c, 0, 53, 55
3, 502144, Note_off_c, 0, 53, 55
3, 502144, Note_on_c, 0, 56, 55
3, 502272, Note_off_c, 0, 56, 55
3, 502272, Note_on_c, 0, 53, 55
3, 502272, Note_on_c, 0, 62, 55
3, 502400, Note_off_c, 0, 53, 55
3, 502400, Note_off_c, 0, 62, 55
3, 502400, Note_on_c, 0, 56, 55
3, 502400, Note_on_c, 0, 63, 55
3, 502528, Note_off_c, 0, 56, 55
3, 502528, Note_off_c, 0, 63, 55
3, 502528, Note_on_c, 0, 53, 55
3, 502656, Note_off_c, 0, 53, 55
3, 502656, Note_on_c, 0, 56, 55
3, 502784, Note_off_c, 0, 56, 55
3, 502784, Note_on_c, 0, 55, 55
3, 502912, Note_off_c, 0, 55, 55
3, 502912, Note_on_c, 0, 58, 55
3, 503040, Note_off_c, 0, 58, 55
3, 503040, Note_on_c, 0, 55, 55
3, 503168, Note_off_c, 0, 55, 55
3, 503168, Note_on_c, 0, 58, 55
3, 503296, Note_off_c, 0, 58, 55
3, 503296, Note_on_c, 0, 55, 55
3, 503424, Note_off_c, 0, 55, 55
3, 503424, Note_on_c, 0, 58, 55
3, 503552, Note_off_c, 0, 58, 55
3, 503552, Note_on_c, 0, 55, 55
3, 503680, Note_off_c, 0, 55, 55
3, 503680, Note_on_c, 0, 58, 55
3, 503808, Note_off_c, 0, 58, 55
3, 503808, Note_on_c, 0, 55, 55
3, 503936, Note_off_c, 0, 55, 55
3, 503936, Note_on_c, 0, 58, 55
3, 504064, Note_off_c, 0, 58, 55
3, 504064, Note_on_c, 0, 55, 55
3, 504192, Note_off_c, 0, 55, 55
3, 504192, Note_on_c, 0, 58, 55
3, 504320, Note_off_c, 0, 58, 55
3, 504320, Note_on_c, 0, 55, 55
3, 504448, Note_off_c, 0, 55, 55
3, 504448, Note_on_c, 0, 58, 55
3, 504576, Note_off_c, 0, 58, 55
3, 504576, Note_on_c, 0, 55, 55
3, 504704, Note_off_c, 0, 55, 55
3, 504704, Note_on_c, 0, 58, 55
3, 504832, Note_off_c, 0, 58, 55
3, 504832, Note_on_c, 0, 56, 55
3, 504960, Note_off_c, 0, 56, 55
3, 504960, Note_on_c, 0, 60, 55
3, 505088, Note_off_c, 0, 60, 55
3, 505088, Note_on_c, 0, 56, 55
3, 505216, Note_off_c, 0, 56, 55
3, 505216, Note_on_c, 0, 60, 55
3, 505344, Note_off_c, 0, 60, 55
3, 505344, Note_on_c, 0, 56, 55
3, 505472, Note_off_c, 0, 56, 55
3, 505472, Note_on_c, 0, 60, 55
3, 505600, Note_off_c, 0, 60, 55
3, 505600, Note_on_c, 0, 56, 55
3, 505728, Note_off_c, 0, 56, 55
3, 505728, Note_on_c, 0, 60, 55
3, 505856, Note_off_c, 0, 60, 55
3, 505856, Note_on_c, 0, 53, 55
3, 505984, Note_off_c, 0, 53, 55
3, 505984, Note_on_c, 0, 56, 55
3, 506112, Note_off_c, 0, 56, 55
3, 506112, Note_on_c, 0, 53, 55
3, 506240, Note_off_c, 0, 53, 55
3, 506240, Note_on_c, 0, 56, 55
3, 506368, Note_off_c, 0, 56, 55
3, 506368, Note_on_c, 0, 53, 55
3, 506496, Note_off_c, 0, 53, 55
3, 506496, Note_on_c, 0, 56, 55
3, 506624, Note_off_c, 0, 56, 55
3, 506624, Note_on_c, 0, 53, 55
3, 506752, Note_off_c, 0, 53, 55
3, 506752, Note_on_c, 0, 56, 55
3, 506880, Note_off_c, 0, 56, 55
3, 506880, Note_on_c, 0, 55, 55
3, 507008, Note_off_c, 0, 55, 55
3, 507008, Note_on_c, 0, 58, 55
3, 507136, Note_off_c, 0, 58, 55
3, 507136, Note_on_c, 0, 55, 55
3, 507264, Note_off_c, 0, 55, 55
3, 507264, Note_on_c, 0, 58, 55
3, 507392, Note_off_c, 0, 58, 55
3, 507392, Note_on_c, 0, 55, 55
3, 507520, Note_off_c, 0, 55, 55
3, 507520, Note_on_c, 0, 58, 55
3, 507648, Note_off_c, 0, 58, 55
3, 507648, Note_on_c, 0, 55, 55
3, 507776, Note_off_c, 0, 55, 55
3, 507776, Note_on_c, 0, 58, 55
3, 507904, Note_off_c, 0, 58, 55
3, 507904, Note_on_c, 0, 51, 55
3, 508032, Note_off_c, 0, 51, 55
3, 508032, Note_on_c, 0, 55, 55
3, 508160, Note_off_c, 0, 55, 55
3, 508160, Note_on_c, 0, 51, 55
3, 508288, Note_off_c, 0, 51, 55
3, 508288, Note_on_c, 0, 55, 55
3, 508416, Note_off_c, 0, 55, 55
3, 508416, Note_on_c, 0, 51, 55
3, 508544, Note_off_c, 0, 51, 55
3, 508544, Note_on_c, 0, 55, 55
3, 508672, Note_off_c, 0, 55, 55
3, 508672, Note_on_c, 0, 56, 55
3, 508800, Note_off_c, 0, 56, 55
3, 508800, Note_on_c, 0, 55, 55
3, 508928, Note_off_c, 0, 55, 55
3, 508928, Note_on_c, 0, 53, 55
3, 509056, Note_off_c, 0, 53, 55
3, 509056, Note_on_c, 0, 58, 55
3, 509184, Note_off_c, 0, 58, 55
3, 509184, Note_on_c, 0, 53, 55
3, 509312, Note_off_c, 0, 53, 55
3, 509312, Note_on_c, 0, 58, 55
3, 509440, Note_off_c, 0, 58, 55
3, 509440, Note_on_c, 0, 53, 55
3, 509568, Note_off_c, 0, 53, 55
3, 509568, Note_on_c, 0, 58, 55
3, 509696, Note_off_c, 0, 58, 55
3, 509696, Note_on_c, 0, 53, 55
3, 509824, Note_off_c, 0, 53, 55
3, 509824, Note_on_c, 0, 58, 55
3, 509952, Note_off_c, 0, 58, 55
3, 509952, Note_on_c, 0, 53, 55
3, 510080, Note_off_c, 0, 53, 55
3, 510080, Note_on_c, 0, 58, 55
3, 510208, Note_off_c, 0, 58, 55
3, 510208, Note_on_c, 0, 53, 55
3, 510336, Note_off_c, 0, 53, 55
3, 510336, Note_on_c, 0, 58, 55
3, 510464, Note_off_c, 0, 58, 55
3, 510464, Note_on_c, 0, 53, 55
3, 510592, Note_off_c, 0, 53, 55
3, 510592, Note_on_c, 0, 58, 55
3, 510720, Note_off_c, 0, 58, 55
3, 510720, Note_on_c, 0, 56, 55
3, 510848, Note_off_c, 0, 56, 55
3, 510848, Note_on_c, 0, 58, 55
3, 510976, Note_off_c, 0, 58, 55
3, 510976, Note_on_c, 0, 55, 55
3, 511104, Note_off_c, 0, 55, 55
3, 511104, Note_on_c, 0, 58, 55
3, 511232, Note_off_c, 0, 58, 55
3, 511232, Note_on_c, 0, 55, 55
3, 511360, Note_off_c, 0, 55, 55
3, 511360, Note_on_c, 0, 58, 55
3, 511488, Note_off_c, 0, 58, 55
3, 511488, Note_on_c, 0, 55, 55
3, 511616, Note_off_c, 0, 55, 55
3, 511616, Note_on_c, 0, 58, 55
3, 511744, Note_off_c, 0, 58, 55
3, 511744, Note_on_c, 0, 56, 55
3, 511872, Note_off_c, 0, 56, 55
3, 511872, Note_on_c, 0, 58, 55
3, 512000, Note_off_c, 0, 58, 55
3, 512000, Note_on_c, 0, 51, 55
3, 512128, Note_off_c, 0, 51, 55
3, 512128, Note_on_c, 0, 55, 55
3, 512256, Note_off_c, 0, 55, 55
3, 512256, Note_on_c, 0, 51, 55
3, 512384, Note_off_c, 0, 51, 55
3, 512384, Note_on_c, 0, 55, 55
3, 512512, Note_off_c, 0, 55, 55
3, 512512, Note_on_c, 0, 51, 55
3, 512640, Note_off_c, 0, 51, 55
3, 512640, Note_on_c, 0, 55, 55
3, 512768, Note_off_c, 0, 55, 55
3, 512768, Note_on_c, 0, 56, 55
3, 512896, Note_off_c, 0, 56, 55
3, 512896, Note_on_c, 0, 55, 55
3, 513024, Note_off_c, 0, 55, 55
3, 513024, Note_on_c, 0, 53, 55
3, 513152, Note_off_c, 0, 53, 55
3, 513152, Note_on_c, 0, 58, 55
3, 513280, Note_off_c, 0, 58, 55
3, 513280, Note_on_c, 0, 53, 55
3, 513408, Note_off_c, 0, 53, 55
3, 513408, Note_on_c, 0, 58, 55
3, 513536, Note_off_c, 0, 58, 55
3, 513536, Note_on_c, 0, 53, 55
3, 513664, Note_off_c, 0, 53, 55
3, 513664, Note_on_c, 0, 58, 55
3, 513792, Note_off_c, 0, 58, 55
3, 513792, Note_on_c, 0, 53, 55
3, 513920, Note_off_c, 0, 53, 55
3, 513920, Note_on_c, 0, 58, 55
3, 514048, Note_off_c, 0, 58, 55
3, 514048, Note_on_c, 0, 53, 55
3, 514176, Note_off_c, 0, 53, 55
3, 514176, Note_on_c, 0, 58, 55
3, 514304, Note_off_c, 0, 58, 55
3, 514304, Note_on_c, 0, 53, 55
3, 514432, Note_off_c, 0, 53, 55
3, 514432, Note_on_c, 0, 58, 55
3, 514560, Note_off_c, 0, 58, 55
3, 514560, Note_on_c, 0, 53, 55
3, 514688, Note_off_c, 0, 53, 55
3, 514688, Note_on_c, 0, 58, 55
3, 514816, Note_off_c, 0, 58, 55
3, 514816, Note_on_c, 0, 56, 55
3, 514944, Note_off_c, 0, 56, 55
3, 514944, Note_on_c, 0, 58, 55
3, 515072, Note_off_c, 0, 58, 55
3, 515072, Note_on_c, 0, 51, 55
3, 515200, Note_off_c, 0, 51, 55
3, 515200, Note_on_c, 0, 55, 55
3, 515328, Note_off_c, 0, 55, 55
3, 515328, Note_on_c, 0, 51, 55
3, 515456, Note_off_c, 0, 51, 55
3, 515456, Note_on_c, 0, 55, 55
3, 515584, Note_off_c, 0, 55, 55
3, 515584, Note_on_c, 0, 51, 55
3, 515712, Note_off_c, 0, 51, 55
3, 515712, Note_on_c, 0, 58, 55
3, 515840, Note_off_c, 0, 58, 55
3, 515840, Note_on_c, 0, 56, 55
3, 515968, Note_off_c, 0, 56, 55
3, 515968, Note_on_c, 0, 55, 55
3, 516096, Note_off_c, 0, 55, 55
3, 516096, Note_on_c, 0, 55, 55
3, 516096, Note_on_c, 0, 67, 55
3, 516224, Note_off_c, 0, 55, 55
3, 516224, Note_off_c, 0, 67, 55
3, 516224, Note_on_c, 0, 58, 55
3, 516224, Note_on_c, 0, 65, 55
3, 516352, Note_off_c, 0, 58, 55
3, 516352, Note_off_c, 0, 65, 55
3, 516352, Note_on_c, 0, 55, 55
3, 516352, Note_on_c, 0, 63, 55
3, 516480, Note_off_c, 0, 55, 55
3, 516480, Note_off_c, 0, 63, 55
3, 516480, Note_on_c, 0, 58, 55
3, 516608, Note_off_c, 0, 58, 55
3, 516608, Note_on_c, 0, 55, 55
3, 516608, Note_on_c, 0, 65, 55
3, 516736, Note_off_c, 0, 55, 55
3, 516736, Note_off_c, 0, 65, 55
3, 516736, Note_on_c, 0, 58, 55
3, 516736, Note_on_c, 0, 67, 55
3, 516864, Note_off_c, 0, 58, 55
3, 516864, Note_off_c, 0, 67, 55
3, 516864, Note_on_c, 0, 55, 55
3, 516992, Note_off_c, 0, 55, 55
3, 516992, Note_on_c, 0, 58, 55
3, 517120, Note_off_c, 0, 58, 55
3, 517120, Note_on_c, 0, 56, 55
3, 517248, Note_off_c, 0, 56, 55
3, 517248, Note_on_c, 0, 60, 55
3, 517376, Note_off_c, 0, 60, 55
3, 517376, Note_on_c, 0, 56, 55
3, 517504, Note_off_c, 0, 56, 55
3, 517504, Note_on_c, 0, 60, 55
3, 517632, Note_off_c, 0, 60, 55
3, 517632, Note_on_c, 0, 56, 55
3, 517760, Note_off_c, 0, 56, 55
3, 517760, Note_on_c, 0, 60, 55
3, 517888, Note_off_c, 0, 60, 55
3, 517888, Note_on_c, 0, 56, 55
3, 518016, Note_off_c, 0, 56, 55
3, 518016, Note_on_c, 0, 60, 55
3, 518144, Note_off_c, 0, 60, 55
3, 518144, Note_on_c, 0, 53, 55
3, 518272, Note_off_c, 0, 53, 55
3, 518272, Note_on_c, 0, 56, 55
3, 518400, Note_off_c, 0, 56, 55
3, 518400, Note_on_c, 0, 53, 55
3, 518528, Note_off_c, 0, 53, 55
3, 518528, Note_on_c, 0, 56, 55
3, 518656, Note_off_c, 0, 56, 55
3, 518656, Note_on_c, 0, 53, 55
3, 518656, Note_on_c, 0, 62, 55
3, 518784, Note_off_c, 0, 53, 55
3, 518784, Note_off_c, 0, 62, 55
3, 518784, Note_on_c, 0, 56, 55
3, 518784, Note_on_c, 0, 63, 55
3, 518912, Note_off_c, 0, 56, 55
3, 518912, Note_off_c, 0, 63, 55
3, 518912, Note_on_c, 0, 53, 55
3, 519040, Note_off_c, 0, 53, 55
3, 519040, Note_on_c, 0, 56, 55
3, 519168, Note_off_c, 0, 56, 55
3, 519168, Note_on_c, 0, 55, 55
3, 519296, Note_off_c, 0, 55, 55
3, 519296, Note_on_c, 0, 58, 55
3, 519424, Note_off_c, 0, 58, 55
3, 519424, Note_on_c, 0, 55, 55
3, 519552, Note_off_c, 0, 55, 55
3, 519552, Note_on_c, 0, 58, 55
3, 519680, Note_off_c, 0, 58, 55
3, 519680, Note_on_c, 0, 55, 55
3, 519808, Note_off_c, 0, 55, 55
3, 519808, Note_on_c, 0, 58, 55
3, 519936, Note_off_c, 0, 58, 55
3, 519936, Note_on_c, 0, 55, 55
3, 520064, Note_off_c, 0, 55, 55
3, 520064, Note_on_c, 0, 58, 55
3, 520192, Note_off_c, 0, 58, 55
3, 520192, Note_on_c, 0, 55, 55
3, 520320, Note_off_c, 0, 55, 55
3, 520320, Note_on_c, 0, 58, 55
3, 520448, Note_off_c, 0, 58, 55
3, 520448, Note_on_c, 0, 55, 55
3, 520576, Note_off_c, 0, 55, 55
3, 520576, Note_on_c, 0, 58, 55
3, 520704, Note_off_c, 0, 58, 55
3, 520704, Note_on_c, 0, 55, 55
3, 520832, Note_off_c, 0, 55, 55
3, 520832, Note_on_c, 0, 58, 55
3, 520960, Note_off_c, 0, 58, 55
3, 520960, Note_on_c, 0, 55, 55
3, 521088, Note_off_c, 0, 55, 55
3, 521088, Note_on_c, 0, 58, 55
3, 521216, Note_off_c, 0, 58, 55
3, 521216, Note_on_c, 0, 56, 55
3, 521344, Note_off_c, 0, 56, 55
3, 521344, Note_on_c, 0, 60, 55
3, 521472, Note_off_c, 0, 60, 55
3, 521472, Note_on_c, 0, 56, 55
3, 521600, Note_off_c, 0, 56, 55
3, 521600, Note_on_c, 0, 60, 55
3, 521728, Note_off_c, 0, 60, 55
3, 521728, Note_on_c, 0, 56, 55
3, 521856, Note_off_c, 0, 56, 55
3, 521856, Note_on_c, 0, 60, 55
3, 521984, Note_off_c, 0, 60, 55
3, 521984, Note_on_c, 0, 56, 55
3, 522112, Note_off_c, 0, 56, 55
3, 522112, Note_on_c, 0, 60, 55
3, 522240, Note_off_c, 0, 60, 55
3, 522240, Note_on_c, 0, 53, 55
3, 522368, Note_off_c, 0, 53, 55
3, 522368, Note_on_c, 0, 56, 55
3, 522496, Note_off_c, 0, 56, 55
3, 522496, Note_on_c, 0, 53, 55
3, 522624, Note_off_c, 0, 53, 55
3, 522624, Note_on_c, 0, 56, 55
3, 522752, Note_off_c, 0, 56, 55
3, 522752, Note_on_c, 0, 53, 55
3, 522880, Note_off_c, 0, 53, 55
3, 522880, Note_on_c, 0, 56, 55
3, 523008, Note_off_c, 0, 56, 55
3, 523008, Note_on_c, 0, 53, 55
3, 523136, Note_off_c, 0, 53, 55
3, 523136, Note_on_c, 0, 56, 55
3, 523264, Note_off_c, 0, 56, 55
3, 523264, Note_on_c, 0, 55, 55
3, 523392, Note_off_c, 0, 55, 55
3, 523392, Note_on_c, 0, 58, 55
3, 523520, Note_off_c, 0, 58, 55
3, 523520, Note_on_c, 0, 55, 55
3, 523648, Note_off_c, 0, 55, 55
3, 523648, Note_on_c, 0, 58, 55
3, 523776, Note_off_c, 0, 58, 55
3, 523776, Note_on_c, 0, 55, 55
3, 523904, Note_off_c, 0, 55, 55
3, 523904, Note_on_c, 0, 58, 55
3, 524032, Note_off_c, 0, 58, 55
3, 524032, Note_on_c, 0, 55, 55
3, 524160, Note_off_c, 0, 55, 55
3, 524160, Note_on_c, 0, 58, 55
3, 524288, Note_off_c, 0, 58, 55
3, 524288, Note_on_c, 0, 51, 55
3, 524416, Note_off_c, 0, 51, 55
3, 524416, Note_on_c, 0, 55, 55
3, 524544, Note_off_c, 0, 55, 55
3, 524544, Note_on_c, 0, 51, 55
3, 524672, Note_off_c, 0, 51, 55
3, 524672, Note_on_c, 0, 55, 55
3, 524800, Note_off_c, 0, 55, 55
3, 524800, Note_on_c, 0, 51, 55
3, 524928, Note_off_c, 0, 51, 55
3, 524928, Note_on_c, 0, 55, 55
3, 525056, Note_off_c, 0, 55, 55
3, 525056, Note_on_c, 0, 56, 55
3, 525184, Note_off_c, 0, 56, 55
3, 525184, Note_on_c, 0, 55, 55
3, 525312, Note_off_c, 0, 55, 55
3, 525312, Note_on_c, 0, 53, 55
3, 525440, Note_off_c, 0, 53, 55
3, 525440, Note_on_c, 0, 58, 55
3, 525568, Note_off_c, 0, 58, 55
3, 525568, Note_on_c, 0, 53, 55
3, 525696, Note_off_c, 0, 53, 55
3, 525696, Note_on_c, 0, 58, 55
3, 525824, Note_off_c, 0, 58, 55
3, 525824, Note_on_c, 0, 53, 55
3, 525952, Note_off_c, 0, 53, 55
3, 525952, Note_on_c, 0, 58, 55
3, 526080, Note_off_c, 0, 58, 55
3, 526080, Note_on_c, 0, 53, 55
3, 526208, Note_off_c, 0, 53, 55
3, 526208, Note_on_c, 0, 58, 55
3, 526336, Note_off_c, 0, 58, 55
3, 526336, Note_on_c, 0, 53, 55
3, 526464, Note_off_c, 0, 53, 55
3, 526464, Note_on_c, 0, 58, 55
3, 526592, Note_off_c, 0, 58, 55
3, 526592, Note_on_c, 0, 53, 55
3, 526720, Note_off_c, 0, 53, 55
3, 526720, Note_on_c, 0, 58, 55
3, 526848, Note_off_c, 0, 58, 55
3, 526848, Note_on_c, 0, 53, 55
3, 526976, Note_off_c, 0, 53, 55
3, 526976, Note_on_c, 0, 58, 55
3, 527104, Note_off_c, 0, 58, 55
3, 527104, Note_on_c, 0, 56, 55
3, 527232, Note_off_c, 0, 56, 55
3, 527232, Note_on_c, 0, 58, 55
3, 527360, Note_off_c, 0, 58, 55
3, 527360, Note_on_c, 0, 55, 55
3, 527488, Note_off_c, 0, 55, 55
3, 527488, Note_on_c, 0, 58, 55
3, 527616, Note_off_c, 0, 58, 55
3, 527616, Note_on_c, 0, 55, 55
3, 527744, Note_off_c, 0, 55, 55
3, 527744, Note_on_c, 0, 58, 55
3, 527872, Note_off_c, 0, 58, 55
3, 527872, Note_on_c, 0, 55, 55
3, 528000, Note_off_c, 0, 55, 55
3, 528000, Note_on_c, 0, 58, 55
3, 528128, Note_off_c, 0, 58, 55
3, 528128, Note_on_c, 0, 56, 55
3, 528256, Note_off_c, 0, 56, 55
3, 528256, Note_on_c, 0, 58, 55
3, 528384, Note_off_c, 0, 58, 55
3, 528384, Note_on_c, 0, 51, 55
3, 528512, Note_off_c, 0, 51, 55
3, 528512, Note_on_c, 0, 55, 55
3, 528640, Note_off_c, 0, 55, 55
3, 528640, Note_on_c, 0, 51, 55
3, 528768, Note_off_c, 0, 51, 55
3, 528768, Note_on_c, 0, 55, 55
3, 528896, Note_off_c, 0, 55, 55
3, 528896, Note_on_c, 0, 51, 55
3, 529024, Note_off_c, 0, 51, 55
3, 529024, Note_on_c, 0, 55, 55
3, 529152, Note_off_c, 0, 55, 55
3, 529152, Note_on_c, 0, 56, 55
3, 529280, Note_off_c, 0, 56, 55
3, 529280, Note_on_c, 0, 55, 55
3, 529408, Note_off_c, 0, 55, 55
3, 529408, Note_on_c, 0, 53, 55
3, 529536, Note_off_c, 0, 53, 55
3, 529536, Note_on_c, 0, 58, 55
3, 529664, Note_off_c, 0, 58, 55
3, 529664, Note_on_c, 0, 53, 55
3, 529792, Note_off_c, 0, 53, 55
3, 529792, Note_on_c, 0, 58, 55
3, 529920, Note_off_c, 0, 58, 55
3, 529920, Note_on_c, 0, 53, 55
3, 530048, Note_off_c, 0, 53, 55
3, 530048, Note_on_c, 0, 58, 55
3, 530176, Note_off_c, 0, 58, 55
3, 530176, Note_on_c, 0, 53, 55
3, 530304, Note_off_c, 0, 53, 55
3, 530304, Note_on_c, 0, 58, 55
3, 530432, Note_off_c, 0, 58, 55
3, 530432, Note_on_c, 0, 53, 55
3, 530560, Note_off_c, 0, 53, 55
3, 530560, Note_on_c, 0, 58, 55
3, 530688, Note_off_c, 0, 58, 55
3, 530688, Note_on_c, 0, 53, 55
3, 530816, Note_off_c, 0, 53, 55
3, 530816, Note_on_c, 0, 58, 55
3, 530944, Note_off_c, 0, 58, 55
3, 530944, Note_on_c, 0, 53, 55
3, 531072, Note_off_c, 0, 53, 55
3, 531072, Note_on_c, 0, 58, 55
3, 531200, Note_off_c, 0, 58, 55
3, 531200, Note_on_c, 0, 56, 55
3, 531328, Note_off_c, 0, 56, 55
3, 531328, Note_on_c, 0, 58, 55
3, 531456, Note_off_c, 0, 58, 55
3, 531456, Note_on_c, 0, 51, 55
3, 531584, Note_off_c, 0, 51, 55
3, 531584, Note_on_c, 0, 55, 55
3, 531712, Note_off_c, 0, 55, 55
3, 531712, Note_on_c, 0, 51, 55
3, 531840, Note_off_c, 0, 51, 55
3, 531840, Note_on_c, 0, 55, 55
3, 531968, Note_off_c, 0, 55, 55
3, 531968, Note_on_c, 0, 51, 55
3, 532096, Note_off_c, 0, 51, 55
3, 532096, Note_on_c, 0, 58, 55
3, 532224, Note_off_c, 0, 58, 55
3, 532224, Note_on_c, 0, 56, 55
3, 532352, Note_off_c, 0, 56, 55
3, 532352, Note_on_c, 0, 55, 55
3, 532480, Note_off_c, 0, 55, 55
3, 532480, Note_on_c, 0, 55, 55
3, 532480, Note_on_c, 0, 67, 55
3, 532608, Note_off_c, 0, 55, 55
3, 532608, Note_off_c, 0, 67, 55
3, 532608, Note_on_c, 0, 58, 55
3, 532608, Note_on_c, 0, 65, 55
3, 532736, Note_off_c, 0, 58, 55
3, 532736, Note_off_c, 0, 65, 55
3, 532736, Note_on_c, 0, 55, 55
3, 532736, Note_on_c, 0, 63, 55
3, 532864, Note_off_c, 0, 55, 55
3, 532864, Note_off_c, 0, 63, 55
3, 532864, Note_on_c, 0, 58, 55
3, 532992, Note_off_c, 0, 58, 55
3, 532992, Note_on_c, 0, 55, 55
3, 532992, Note_on_c, 0, 65, 55
3, 533120, Note_off_c, 0, 55, 55
3, 533120, Note_off_c, 0, 65, 55
3, 533120, Note_on_c, 0, 58, 55
3, 533120, Note_on_c, 0, 67, 55
3, 533248, Note_off_c, 0, 58, 55
3, 533248, Note_off_c, 0, 67, 55
3, 533248, Note_on_c, 0, 55, 55
3, 533376, Note_off_c, 0, 55, 55
3, 533376, Note_on_c, 0, 58, 55
3, 533504, Note_off_c, 0, 58, 55
3, 533504, Note_on_c, 0, 56, 55
3, 533632, Note_off_c, 0, 56, 55
3, 533632, Note_on_c, 0, 60, 55
3, 533760, Note_off_c, 0, 60, 55
3, 533760, Note_on_c, 0, 56, 55
3, 533888, Note_off_c, 0, 56, 55
3, 533888, Note_on_c, 0, 60, 55
3, 534016, Note_off_c, 0, 60, 55
3, 534016, Note_on_c, 0, 56, 55
3, 534144, Note_off_c, 0, 56, 55
3, 534144, Note_on_c, 0, 60, 55
3, 534272, Note_off_c, 0, 60, 55
3, 534272, Note_on_c, 0, 56, 55
3, 534400, Note_off_c, 0, 56, 55
3, 534400, Note_on_c, 0, 60, 55
3, 534528, Note_off_c, 0, 60, 55
3, 534528, Note_on_c, 0, 53, 55
3, 534656, Note_off_c, 0, 53, 55
3, 534656, Note_on_c, 0, 56, 55
3, 534784, Note_off_c, 0, 56, 55
3, 534784, Note_on_c, 0, 53, 55
3, 534912, Note_off_c, 0, 53, 55
3, 534912, Note_on_c, 0, 56, 55
3, 535040, Note_off_c, 0, 56, 55
3, 535040, Note_on_c, 0, 53, 55
3, 535040, Note_on_c, 0, 62, 55
3, 535168, Note_off_c, 0, 53, 55
3, 535168, Note_off_c, 0, 62, 55
3, 535168, Note_on_c, 0, 56, 55
3, 535168, Note_on_c, 0, 63, 55
3, 535296, Note_off_c, 0, 56, 55
3, 535296, Note_off_c, 0, 63, 55
3, 535296, Note_on_c, 0, 53, 55
3, 535424, Note_off_c, 0, 53, 55
3, 535424, Note_on_c, 0, 56, 55
3, 535552, Note_off_c, 0, 56, 55
3, 535552, Note_on_c, 0, 55, 55
3, 535680, Note_off_c, 0, 55, 55
3, 535680, Note_on_c, 0, 58, 55
3, 535808, Note_off_c, 0, 58, 55
3, 535808, Note_on_c, 0, 55, 55
3, 535936, Note_off_c, 0, 55, 55
3, 535936, Note_on_c, 0, 58, 55
3, 536064, Note_off_c, 0, 58, 55
3, 536064, Note_on_c, 0, 55, 55
3, 536192, Note_off_c, 0, 55, 55
3, 536192, Note_on_c, 0, 58, 55
3, 536320, Note_off_c, 0, 58, 55
3, 536320, Note_on_c, 0, 55, 55
3, 536448, Note_off_c, 0, 55, 55
3, 536448, Note_on_c, 0, 58, 55
3, 536576, Note_off_c, 0, 58, 55
3, 536576, Note_on_c, 0, 55, 55
3, 536704, Note_off_c, 0, 55, 55
3, 536704, Note_on_c, 0, 58, 55
3, 536832, Note_off_c, 0, 58, 55
3, 536832, Note_on_c, 0, 55, 55
3, 536960, Note_off_c, 0, 55, 55
3, 536960, Note_on_c, 0, 58, 55
3, 537088, Note_off_c, 0, 58, 55
3, 537088, Note_on_c, 0, 55, 55
3, 537216, Note_off_c, 0, 55, 55
3, 537216, Note_on_c, 0, 58, 55
3, 537344, Note_off_c, 0, 58, 55
3, 537344, Note_on_c, 0, 55, 55
3, 537472, Note_off_c, 0, 55, 55
3, 537472, Note_on_c, 0, 58, 55
3, 537600, Note_off_c, 0, 58, 55
3, 537600, Note_on_c, 0, 56, 55
3, 537728, Note_off_c, 0, 56, 55
3, 537728, Note_on_c, 0, 60, 55
3, 537856, Note_off_c, 0, 60, 55
3, 537856, Note_on_c, 0, 56, 55
3, 537984, Note_off_c, 0, 56, 55
3, 537984, Note_on_c, 0, 60, 55
3, 538112, Note_off_c, 0, 60, 55
3, 538112, Note_on_c, 0, 56, 55
3, 538240, Note_off_c, 0, 56, 55
3, 538240, Note_on_c, 0, 60, 55
3, 538368, Note_off_c, 0, 60, 55
3, 538368, Note_on_c, 0, 56, 55
3, 538496, Note_off_c, 0, 56, 55
3, 538496, Note_on_c, 0, 60, 55
3, 538624, Note_off_c, 0, 60, 55
3, 538624, Note_on_c, 0, 53, 55
3, 538752, Note_off_c, 0, 53, 55
3, 538752, Note_on_c, 0, 56, 55
3, 538880, Note_off_c, 0, 56, 55
3, 538880, Note_on_c, 0, 53, 55
3, 539008, Note_off_c, 0, 53, 55
3, 539008, Note_on_c, 0, 56, 55
3, 539136, Note_off_c, 0, 56, 55
3, 539136, Note_on_c, 0, 53, 55
3, 539264, Note_off_c, 0, 53, 55
3, 539264, Note_on_c, 0, 56, 55
3, 539392, Note_off_c, 0, 56, 55
3, 539392, Note_on_c, 0, 53, 55
3, 539520, Note_off_c, 0, 53, 55
3, 539520, Note_on_c, 0, 56, 55
3, 539648, Note_off_c, 0, 56, 55
3, 539648, Note_on_c, 0, 55, 55
3, 539776, Note_off_c, 0, 55, 55
3, 539776, Note_on_c, 0, 58, 55
3, 539904, Note_off_c, 0, 58, 55
3, 539904, Note_on_c, 0, 55, 55
3, 540032, Note_off_c, 0, 55, 55
3, 540032, Note_on_c, 0, 58, 55
3, 540160, Note_off_c, 0, 58, 55
3, 540160, Note_on_c, 0, 55, 55
3, 540288, Note_off_c, 0, 55, 55
3, 540288, Note_on_c, 0, 58, 55
3, 540416, Note_off_c, 0, 58, 55
3, 540416, Note_on_c, 0, 55, 55
3, 540544, Note_off_c, 0, 55, 55
3, 540544, Note_on_c, 0, 58, 55
3, 540672, Note_off_c, 0, 58, 55
3, 540672, Note_on_c, 0, 51, 55
3, 540800, Note_off_c, 0, 51, 55
3, 540800, Note_on_c, 0, 55, 55
3, 540928, Note_off_c, 0, 55, 55
3, 540928, Note_on_c, 0, 51, 55
3, 541056, Note_off_c, 0, 51, 55
3, 541056, Note_on_c, 0, 55, 55
3, 541184, Note_off_c, 0, 55, 55
3, 541184, Note_on_c, 0, 51, 55
3, 541312, Note_off_c, 0, 51, 55
3, 541312, Note_on_c, 0, 55, 55
3, 541440, Note_off_c, 0, 55, 55
3, 541440, Note_on_c, 0, 56, 55
3, 541568, Note_off_c, 0, 56, 55
3, 541568, Note_on_c, 0, 55, 55
3, 541696, Note_off_c, 0, 55, 55
3, 541696, Note_on_c, 0, 53, 55
3, 541824, Note_off_c, 0, 53, 55
3, 541824, Note_on_c, 0, 58, 55
3, 541952, Note_off_c, 0, 58, 55
3, 541952, Note_on_c, 0, 53, 55
3, 542080, Note_off_c, 0, 53, 55
3, 542080, Note_on_c, 0, 58, 55
3, 542208, Note_off_c, 0, 58, 55
3, 542208, Note_on_c, 0, 53, 55
3, 542336, Note_off_c, 0, 53, 55
3, 542336, Note_on_c, 0, 58, 55
3, 542464, Note_off_c, 0, 58, 55
3, 542464, Note_on_c, 0, 53, 55
3, 542592, Note_off_c, 0, 53, 55
3, 542592, Note_on_c, 0, 58, 55
3, 542720, Note_off_c, 0, 58, 55
3, 542720, Note_on_c, 0, 53, 55
3, 542848, Note_off_c, 0, 53, 55
3, 542848, Note_on_c, 0, 58, 55
3, 542976, Note_off_c, 0, 58, 55
3, 542976, Note_on_c, 0, 53, 55
3, 543104, Note_off_c, 0, 53, 55
3, 543104, Note_on_c, 0, 58, 55
3, 543232, Note_off_c, 0, 58, 55
3, 543232, Note_on_c, 0, 53, 55
3, 543360, Note_off_c, 0, 53, 55
3, 543360, Note_on_c, 0, 58, 55
3, 543488, Note_off_c, 0, 58, 55
3, 543488, Note_on_c, 0, 56, 55
3, 543616, Note_off_c, 0, 56, 55
3, 543616, Note_on_c, 0, 58, 55
3, 543744, Note_off_c, 0, 58, 55
3, 543744, Note_on_c, 0, 55, 55
3, 543872, Note_off_c, 0, 55, 55
3, 543872, Note_on_c, 0, 58, 55
3, 544000, Note_off_c, 0, 58, 55
3, 544000, Note_on_c, 0, 55, 55
3, 544128, Note_off_c, 0, 55, 55
3, 544128, Note_on_c, 0, 58, 55
3, 544256, Note_off_c, 0, 58, 55
3, 544256, Note_on_c, 0, 55, 55
3, 544384, Note_off_c, 0, 55, 55
3, 544384, Note_on_c, 0, 58, 55
3, 544512, Note_off_c, 0, 58, 55
3, 544512, Note_on_c, 0, 56, 55
3, 544640, Note_off_c, 0, 56, 55
3, 544640, Note_on_c, 0, 58, 55
3, 544768, Note_off_c, 0, 58, 55
3, 544768, Note_on_c, 0, 51, 55
3, 544896, Note_off_c, 0, 51, 55
3, 544896, Note_on_c, 0, 55, 55
3, 545024, Note_off_c, 0, 55, 55
3, 545024, Note_on_c, 0, 51, 55
3, 545152, Note_off_c, 0, 51, 55
3, 545152, Note_on_c, 0, 55, 55
3, 545280, Note_off_c, 0, 55, 55
3, 545280, Note_on_c, 0, 51, 55
3, 545408, Note_off_c, 0, 51, 55
3, 545408, Note_on_c, 0, 55, 55
3, 545536, Note_off_c, 0, 55, 55
3, 545536, Note_on_c, 0, 56, 55
3, 545664, Note_off_c, 0, 56, 55
3, 545664, Note_on_c, 0, 55, 55
3, 545792, Note_off_c, 0, 55, 55
3, 545792, Note_on_c, 0, 53, 55
3, 545920, Note_off_c, 0, 53, 55
3, 545920, Note_on_c, 0, 58, 55
3, 546048, Note_off_c, 0, 58, 55
3, 546048, Note_on_c, 0, 53, 55
3, 546176, Note_off_c, 0, 53, 55
3, 546176, Note_on_c, 0, 58, 55
3, 546304, Note_off_c, 0, 58, 55
3, 546304, Note_on_c, 0, 53, 55
3, 546432, Note_off_c, 0, 53, 55
3, 546432, Note_on_c, 0, 58, 55
3, 546560, Note_off_c, 0, 58, 55
3, 546560, Note_on_c, 0, 53, 55
3, 546688, Note_off_c, 0, 53, 55
3, 546688, Note_on_c, 0, 58, 55
3, 546816, Note_off_c, 0, 58, 55
3, 546816, Note_on_c, 0, 53, 55
3, 546944, Note_off_c, 0, 53, 55
3, 546944, Note_on_c, 0, 58, 55
3, 547072, Note_off_c, 0, 58, 55
3, 547072, Note_on_c, 0, 53, 55
3, 547200, Note_off_c, 0, 53, 55
3, 547200, Note_on_c, 0, 58, 55
3, 547328, Note_off_c, 0, 58, 55
3, 547328, Note_on_c, 0, 53, 55
3, 547456, Note_off_c, 0, 53, 55
3, 547456, Note_on_c, 0, 58, 55
3, 547584, Note_off_c, 0, 58, 55
3, 547584, Note_on_c, 0, 56, 55
3, 547712, Note_off_c, 0, 56, 55
3, 547712, Note_on_c, 0, 58, 55
3, 547840, Note_off_c, 0, 58, 55
3, 547840, Note_on_c, 0, 51, 55
3, 547968, Note_off_c, 0, 51, 55
3, 547968, Note_on_c, 0, 55, 55
3, 548096, Note_off_c, 0, 55, 55
3, 548096, Note_on_c, 0, 51, 55
3, 548224, Note_off_c, 0, 51, 55
3, 548224, Note_on_c, 0, 55, 55
3, 548352, Note_off_c, 0, 55, 55
3, 548352, Note_on_c, 0, 51, 55
3, 548480, Note_off_c, 0, 51, 55
3, 548480, Note_on_c, 0, 58, 55
3, 548608, Note_off_c, 0, 58, 55
3, 548608, Note_on_c, 0, 56, 55
3, 548736, Note_off_c, 0, 56, 55
3, 548736, Note_on_c, 0, 55, 55
3, 548864, Note_off_c, 0, 55, 55
3, 548864, Note_on_c, 0, 55, 55
3, 548864, Note_on_c, 0, 67, 55
3, 548992, Note_off_c, 0, 55, 55
3, 548992, Note_off_c, 0, 67, 55
3, 548992, Note_on_c, 0, 58, 55
3, 548992, Note_on_c, 0, 65, 55
3, 549120, Note_off_c, 0, 58, 55
3, 549120, Note_off_c, 0, 65, 55
3, 549120, Note_on_c, 0, 55, 55
3, 549120, Note_on_c, 0, 63, 55
3, 549248, Note_off_c, 0, 55, 55
3, 549248, Note_off_c, 0, 63, 55
3, 549248, Note_on_c, 0, 58, 55
3, 549376, Note_off_c, 0, 58, 55
3, 549376, Note_on_c, 0, 55, 55
3, 549376, Note_on_c, 0, 65, 55
3, 549504, Note_off_c, 0, 55, 55
3, 549504, Note_off_c, 0, 65, 55
3, 549504, Note_on_c, 0, 58, 55
3, 549504, Note_on_c, 0, 67, 55
3, 549632, Note_off_c, 0, 58, 55
3, 549632, Note_off_c, 0, 67, 55
3, 549632, Note_on_c, 0, 55, 55
3, 549760, Note_off_c, 0, 55, 55
3, 549760, Note_on_c, 0, 58, 55
3, 549888, Note_off_c, 0, 58, 55
3, 549888, Note_on_c, 0, 56, 55
3, 550016, Note_off_c, 0, 56, 55
3, 550016, Note_on_c, 0, 60, 55
3, 550144, Note_off_c, 0, 60, 55
3, 550144, Note_on_c, 0, 56, 55
3, 550272, Note_off_c, 0, 56, 55
3, 550272, Note_on_c, 0, 60, 55
3, 550400, Note_off_c, 0, 60, 55
3, 550400, Note_on_c, 0, 56, 55
3, 550528, Note_off_c, 0, 56, 55
3, 550528, Note_on_c, 0, 60, 55
3, 550656, Note_off_c, 0, 60, 55
3, 550656, Note_on_c, 0, 56, 55
3, 550784, Note_off_c, 0, 56, 55
3, 550784, Note_on_c, 0, 60, 55
3, 550912, Note_off_c, 0, 60, 55
3, 550912, Note_on_c, 0, 53, 55
3, 551040, Note_off_c, 0, 53, 55
3, 551040, Note_on_c, 0, 56, 55
3, 551168, Note_off_c, 0, 56, 55
3, 551168, Note_on_c, 0, 53, 55
3, 551296, Note_off_c, 0, 53, 55
3, 551296, Note_on_c, 0, 56, 55
3, 551424, Note_off_c, 0, 56, 55
3, 551424, Note_on_c, 0, 53, 55
3, 551424, Note_on_c, 0, 62, 55
3, 551552, Note_off_c, 0, 53, 55
3, 551552, Note_off_c, 0, 62, 55
3, 551552, Note_on_c, 0, 56, 55
3, 551552, Note_on_c, 0, 63, 55
3, 551680, Note_off_c, 0, 56, 55
3, 551680, Note_off_c, 0, 63, 55
3, 551680, Note_on_c, 0, 53, 55
3, 551808, Note_off_c, 0, 53, 55
3, 551808, Note_on_c, 0, 56, 55
3, 551936, Note_off_c, 0, 56, 55
3, 551936, Note_on_c, 0, 55, 55
3, 552064, Note_off_c, 0, 55, 55
3, 552064, Note_on_c, 0, 58, 55
3, 552192, Note_off_c, 0, 58, 55
3, 552192, Note_on_c, 0, 55, 55
3, 552320, Note_off_c, 0, 55, 55
3, 552320, Note_on_c, 0, 58, 55
3, 552448, Note_off_c, 0, 58, 55
3, 552448, Note_on_c, 0, 55, 55
3, 552576, Note_off_c, 0, 55, 55
3, 552576, Note_on_c, 0, 58, 55
3, 552704, Note_off_c, 0, 58, 55
3, 552704, Note_on_c, 0, 55, 55
3, 552832, Note_off_c, 0, 55, 55
3, 552832, Note_on_c, 0, 58, 55
3, 552960, Note_off_c, 0, 58, 55
3, 552960, Note_on_c, 0, 55, 55
3, 553088, Note_off_c, 0, 55, 55
3, 553088, Note_on_c, 0, 58, 55
3, 553216, Note_off_c, 0, 58, 55
3, 553216, Note_on_c, 0, 55, 55
3, 553344, Note_off_c, 0, 55, 55
3, 553344, Note_on_c, 0, 58, 55
3, 553472, Note_off_c, 0, 58, 55
3, 553472, Note_on_c, 0, 55, 55
3, 553600, Note_off_c, 0, 55, 55
3, 553600, Note_on_c, 0, 58, 55
3, 553728, Note_off_c, 0, 58, 55
3, 553728, Note_on_c, 0, 55, 55
3, 553856, Note_off_c, 0, 55, 55
3, 553856, Note_on_c, 0, 58, 55
3, 553984, Note_off_c, 0, 58, 55
3, 553984, Note_on_c, 0, 56, 55
3, 554112, Note_off_c, 0, 56, 55
3, 554112, Note_on_c, 0, 60, 55
3, 554240, Note_off_c, 0, 60, 55
3, 554240, Note_on_c, 0, 56, 55
3, 554368, Note_off_c, 0, 56, 55
3, 554368, Note_on_c, 0, 60, 55
3, 554496, Note_off_c, 0, 60, 55
3, 554496, Note_on_c, 0, 56, 55
3, 554624, Note_off_c, 0, 56, 55
3, 554624, Note_on_c, 0, 60, 55
3, 554752, Note_off_c, 0, 60, 55
3, 554752, Note_on_c, 0, 56, 55
3, 554880, Note_off_c, 0, 56, 55
3, 554880, Note_on_c, 0, 60, 55
3, 555008, Note_off_c, 0, 60, 55
3, 555008, Note_on_c, 0, 53, 55
3, 555136, Note_off_c, 0, 53, 55
3, 555136, Note_on_c, 0, 56, 55
3, 555264, Note_off_c, 0, 56, 55
3, 555264, Note_on_c, 0, 53, 55
3, 555392, Note_off_c, 0, 53, 55
3, 555392, Note_on_c, 0, 56, 55
3, 555520, Note_off_c, 0, 56, 55
3, 555520, Note_on_c, 0, 53, 55
3, 555648, Note_off_c, 0, 53, 55
3, 555648, Note_on_c, 0, 56, 55
3, 555776, Note_off_c, 0, 56, 55
3, 555776, Note_on_c, 0, 53, 55
3, 555904, Note_off_c, 0, 53, 55
3, 555904, Note_on_c, 0, 56, 55
3, 556032, Note_off_c, 0, 56, 55
3, 556032, Note_on_c, 0, 55, 55
3, 556160, Note_off_c, 0, 55, 55
3, 556160, Note_on_c, 0, 58, 55
3, 556288, Note_off_c, 0, 58, 55
3, 556288, Note_on_c, 0, 55, 55
3, 556416, Note_off_c, 0, 55, 55
3, 556416, Note_on_c, 0, 58, 55
3, 556544, Note_off_c, 0, 58, 55
3, 556544, Note_on_c, 0, 55, 55
3, 556672, Note_off_c, 0, 55, 55
3, 556672, Note_on_c, 0, 58, 55
3, 556800, Note_off_c, 0, 58, 55
3, 556800, Note_on_c, 0, 55, 55
3, 556928, Note_off_c, 0, 55, 55
3, 556928, Note_on_c, 0, 58, 55
3, 557056, Note_off_c, 0, 58, 55
3, 557056, Note_on_c, 0, 51, 55
3, 557184, Note_off_c, 0, 51, 55
3, 557184, Note_on_c, 0, 55, 55
3, 557312, Note_off_c, 0, 55, 55
3, 557312, Note_on_c, 0, 51, 55
3, 557440, Note_off_c, 0, 51, 55
3, 557440, Note_on_c, 0, 55, 55
3, 557568, Note_off_c, 0, 55, 55
3, 557568, Note_on_c, 0, 51, 55
3, 557696, Note_off_c, 0, 51, 55
3, 557696, Note_on_c, 0, 55, 55
3, 557824, Note_off_c, 0, 55, 55
3, 557824, Note_on_c, 0, 56, 55
3, 557952, Note_off_c, 0, 56, 55
3, 557952, Note_on_c, 0, 55, 55
3, 558080, Note_off_c, 0, 55, 55
3, 558080, Note_on_c, 0, 53, 55
3, 558208, Note_off_c, 0, 53, 55
3, 558208, Note_on_c, 0, 58, 55
3, 558336, Note_off_c, 0, 58, 55
3, 558336, Note_on_c, 0, 53, 55
3, 558464, Note_off_c, 0, 53, 55
3, 558464, Note_on_c, 0, 58, 55
3, 558592, Note_off_c, 0, 58, 55
3, 558592, Note_on_c, 0, 53, 55
3, 558720, Note_off_c, 0, 53, 55
3, 558720, Note_on_c, 0, 58, 55
3, 558848, Note_off_c, 0, 58, 55
3, 558848, Note_on_c, 0, 53, 55
3, 558976, Note_off_c, 0, 53, 55
3, 558976, Note_on_c, 0, 58, 55
3, 559104, Note_off_c, 0, 58, 55
3, 559104, Note_on_c, 0, 53, 55
3, 559232, Note_off_c, 0, 53, 55
3, 559232, Note_on_c, 0, 58, 55
3, 559360, Note_off_c, 0, 58, 55
3, 559360, Note_on_c, 0, 53, 55
3, 559488, Note_off_c, 0, 53, 55
3, 559488, Note_on_c, 0, 58, 55
3, 559616, Note_off_c, 0, 58, 55
3, 559616, Note_on_c, 0, 53, 55
3, 559744, Note_off_c, 0, 53, 55
3, 559744, Note_on_c, 0, 58, 55
3, 559872, Note_off_c, 0, 58, 55
3, 559872, Note_on_c, 0, 56, 55
3, 560000, Note_off_c, 0, 56, 55
3, 560000, Note_on_c, 0, 58, 55
3, 560128, Note_off_c, 0, 58, 55
3, 560128, Note_on_c, 0, 55, 55
3, 560256, Note_off_c, 0, 55, 55
3, 560256, Note_on_c, 0, 58, 55
3, 560384, Note_off_c, 0, 58, 55
3, 560384, Note_on_c, 0, 55, 55
3, 560512, Note_off_c, 0, 55, 55
3, 560512, Note_on_c, 0, 58, 55
3, 560640, Note_off_c, 0, 58, 55
3, 560640, Note_on_c, 0, 55, 55
3, 560768, Note_off_c, 0, 55, 55
3, 560768, Note_on_c, 0, 58, 55
3, 560896, Note_off_c, 0, 58, 55
3, 560896, Note_on_c, 0, 56, 55
3, 561024, Note_off_c, 0, 56, 55
3, 561024, Note_on_c, 0, 58, 55
3, 561152, Note_off_c, 0, 58, 55
3, 561152, Note_on_c, 0, 51, 55
3, 561280, Note_off_c, 0, 51, 55
3, 561280, Note_on_c, 0, 55, 55
3, 561408, Note_off_c, 0, 55, 55
3, 561408, Note_on_c, 0, 51, 55
3, 561536, Note_off_c, 0, 51, 55
3, 561536, Note_on_c, 0, 55, 55
3, 561664, Note_off_c, 0, 55, 55
3, 561664, Note_on_c, 0, 51, 55
3, 561792, Note_off_c, 0, 51, 55
3, 561792, Note_on_c, 0, 55, 55
3, 561920, Note_off_c, 0, 55, 55
3, 561920, Note_on_c, 0, 56, 55
3, 562048, Note_off_c, 0, 56, 55
3, 562048, Note_on_c, 0, 55, 55
3, 562176, Note_off_c, 0, 55, 55
3, 562176, Note_on_c, 0, 53, 55
3, 562304, Note_off_c, 0, 53, 55
3, 562304, Note_on_c, 0, 58, 55
3, 562432, Note_off_c, 0, 58, 55
3, 562432, Note_on_c, 0, 53, 55
3, 562560, Note_off_c, 0, 53, 55
3, 562560, Note_on_c, 0, 58, 55
3, 562688, Note_off_c, 0, 58, 55
3, 562688, Note_on_c, 0, 53, 55
3, 562816, Note_off_c, 0, 53, 55
3, 562816, Note_on_c, 0, 58, 55
3, 562944, Note_off_c, 0, 58, 55
3, 562944, Note_on_c, 0, 53, 55
3, 563072, Note_off_c, 0, 53, 55
3, 563072, Note_on_c, 0, 58, 55
3, 563200, Note_off_c, 0, 58, 55
3, 563200, Note_on_c, 0, 53, 55
3, 563328, Note_off_c, 0, 53, 55
3, 563328, Note_on_c, 0, 58, 55
3, 563456, Note_off_c, 0, 58, 55
3, 563456, Note_on_c, 0, 53, 55
3, 563584, Note_off_c, 0, 53, 55
3, 563584, Note_on_c, 0, 58, 55
3, 563712, Note_off_c, 0, 58, 55
3, 563712, Note_on_c, 0, 53, 55
3, 563840, Note_off_c, 0, 53, 55
3, 563840, Note_on_c, 0, 58, 55
3, 563968, Note_off_c, 0, 58, 55
3, 563968, Note_on_c, 0, 56, 55
3, 564096, Note_off_c, 0, 56, 55
3, 564096, Note_on_c, 0, 58, 55
3, 564224, Note_off_c, 0, 58, 55
3, 564224, Note_on_c, 0, 51, 55
3, 564352, Note_off_c, 0, 51, 55
3, 564352, Note_on_c, 0, 55, 55
3, 564480, Note_off_c, 0, 55, 55
3, 564480, Note_on_c, 0, 51, 55
3, 564608, Note_off_c, 0, 51, 55
3, 564608, Note_on_c, 0, 55, 55
3, 564736, Note_off_c, 0, 55, 55
3, 564736, Note_on_c, 0, 51, 55
3, 564864, Note_off_c, 0, 51, 55
3, 564864, Note_on_c, 0, 58, 55
3, 564992, Note_off_c, 0, 58, 55
3, 564992, Note_on_c, 0, 56, 55
3, 565120, Note_off_c, 0, 56, 55
3, 565120, Note_on_c, 0, 55, 55
3, 565248, Note_off_c, 0, 55, 55
3, 565248, Note_on_c, 0, 55, 55
3, 565248, Note_on_c, 0, 67, 55
3, 565376, Note_off_c, 0, 55, 55
3, 565376, Note_off_c, 0, 67, 55
3, 565376, Note_on_c, 0, 58, 55
3, 565376, Note_on_c, 0, 65, 55
3, 565504, Note_off_c, 0, 58, 55
3, 565504, Note_off_c, 0, 65, 55
3, 565504, Note_on_c, 0, 55, 55
3, 565504, Note_on_c, 0, 63, 55
3, 565632, Note_off_c, 0, 55, 55
3, 565632, Note_off_c, 0, 63, 55
3, 565632, Note_on_c, 0, 58, 55
3, 565760, Note_off_c, 0, 58, 55
3, 565760, Note_on_c, 0, 55, 55
3, 565760, Note_on_c, 0, 65, 55
3, 565888, Note_off_c, 0, 55, 55
3, 565888, Note_off_c, 0, 65, 55
3, 565888, Note_on_c, 0, 58, 55
3, 565888, Note_on_c, 0, 67, 55
3, 566016, Note_off_c, 0, 58, 55
3, 566016, Note_off_c, 0, 67, 55
3, 566016, Note_on_c, 0, 55, 55
3, 566144, Note_off_c, 0, 55, 55
3, 566144, Note_on_c, 0, 58, 55
3, 566272, Note_off_c, 0, 58, 55
3, 566272, Note_on_c, 0, 56, 55
3, 566400, Note_off_c, 0, 56, 55
3, 566400, Note_on_c, 0, 60, 55
3, 566528, Note_off_c, 0, 60, 55
3, 566528, Note_on_c, 0, 56, 55
3, 566656, Note_off_c, 0, 56, 55
3, 566656, Note_on_c, 0, 60, 55
3, 566784, Note_off_c, 0, 60, 55
3, 566784, Note_on_c, 0, 56, 55
3, 566912, Note_off_c, 0, 56, 55
3, 566912, Note_on_c, 0, 60, 55
3, 567040, Note_off_c, 0, 60, 55
3, 567040, Note_on_c, 0, 56, 55
3, 567168, Note_off_c, 0, 56, 55
3, 567168, Note_on_c, 0, 60, 55
3, 567296, Note_off_c, 0, 60, 55
3, 567296, Note_on_c, 0, 53, 55
3, 567424, Note_off_c, 0, 53, 55
3, 567424, Note_on_c, 0, 56, 55
3, 567552, Note_off_c, 0, 56, 55
3, 567552, Note_on_c, 0, 53, 55
3, 567680, Note_off_c, 0, 53, 55
3, 567680, Note_on_c, 0, 56, 55
3, 567808, Note_off_c, 0, 56, 55
3, 567808, Note_on_c, 0, 53, 55
3, 567808, Note_on_c, 0, 62, 55
3, 567936, Note_off_c, 0, 53, 55
3, 567936, Note_off_c, 0, 62, 55
3, 567936, Note_on_c, 0, 56, 55
3, 567936, Note_on_c, 0, 63, 55
3, 568064, Note_off_c, 0, 56, 55
3, 568064, Note_off_c, 0, 63, 55
3, 568064, Note_on_c, 0, 53, 55
3, 568192, Note_off_c, 0, 53, 55
3, 568192, Note_on_c, 0, 56, 55
3, 568320, Note_off_c, 0, 56, 55
3, 568320, Note_on_c, 0, 55, 55
3, 568448, Note_off_c, 0, 55, 55
3, 568448, Note_on_c, 0, 58, 55
3, 568576, Note_off_c, 0, 58, 55
3, 568576, Note_on_c, 0, 55, 55
3, 568704, Note_off_c, 0, 55, 55
3, 568704, Note_on_c, 0, 58, 55
3, 568832, Note_off_c, 0, 58, 55
3, 568832, Note_on_c, 0, 55, 55
3, 568960, Note_off_c, 0, 55, 55
3, 568960, Note_on_c, 0, 58, 55
3, 569088, Note_off_c, 0, 58, 55
3, 569088, Note_on_c, 0, 55, 55
3, 569216, Note_off_c, 0, 55, 55
3, 569216, Note_on_c, 0, 58, 55
3, 569344, Note_off_c, 0, 58, 55
3, 569344, Note_on_c, 0, 55, 55
3, 569472, Note_off_c, 0, 55, 55
3, 569472, Note_on_c, 0, 58, 55
3, 569600, Note_off_c, 0, 58, 55
3, 569600, Note_on_c, 0, 55, 55
3, 569728, Note_off_c, 0, 55, 55
3, 569728, Note_on_c, 0, 58, 55
3, 569856, Note_off_c, 0, 58, 55
3, 569856, Note_on_c, 0, 55, 55
3, 569984, Note_off_c, 0, 55, 55
3, 569984, Note_on_c, 0, 58, 55
3, 570112, Note_off_c, 0, 58, 55
3, 570112, Note_on_c, 0, 55, 55
3, 570240, Note_off_c, 0, 55, 55
3, 570240, Note_on_c, 0, 58, 55
3, 570368, Note_off_c, 0, 58, 55
3, 570368, Note_on_c, 0, 56, 55
3, 570496, Note_off_c, 0, 56, 55
3, 570496, Note_on_c, 0, 60, 55
3, 570624, Note_off_c, 0, 60, 55
3, 570624, Note_on_c, 0, 56, 55
3, 570752, Note_off_c, 0, 56, 55
3, 570752, Note_on_c, 0, 60, 55
3, 570880, Note_off_c, 0, 60, 55
3, 570880, Note_on_c, 0, 56, 55
3, 571008, Note_off_c, 0, 56, 55
3, 571008, Note_on_c, 0, 60, 55
3, 571136, Note_off_c, 0, 60, 55
3, 571136, Note_on_c, 0, 56, 55
3, 571264, Note_off_c, 0, 56, 55
3, 571264, Note_on_c, 0, 60, 55
3, 571392, Note_off_c, 0, 60, 55
3, 571392, Note_on_c, 0, 53, 55
3, 571520, Note_off_c, 0, 53, 55
3, 571520, Note_on_c, 0, 56, 55
3, 571648, Note_off_c, 0, 56, 55
3, 571648, Note_on_c, 0, 53, 55
3, 571776, Note_off_c, 0, 53, 55
3, 571776, Note_on_c, 0, 56, 55
3, 571904, Note_off_c, 0, 56, 55
3, 571904, Note_on_c, 0, 53, 55
3, 572032, Note_off_c, 0, 53, 55
3, 572032, Note_on_c, 0, 56, 55
3, 572160, Note_off_c, 0, 56, 55
3, 572160, Note_on_c, 0, 53, 55
3, 572288, Note_off_c, 0, 53, 55
3, 572288, Note_on_c, 0, 56, 55
3, 572416, Note_off_c, 0, 56, 55
3, 572416, Note_on_c, 0, 55, 55
3, 572544, Note_off_c, 0, 55, 55
3, 572544, Note_on_c, 0, 58, 55
3, 572672, Note_off_c, 0, 58, 55
3, 572672, Note_on_c, 0, 55, 55
3, 572800, Note_off_c, 0, 55, 55
3, 572800, Note_on_c, 0, 58, 55
3, 572928, Note_off_c, 0, 58, 55
3, 572928, Note_on_c, 0, 55, 55
3, 573056, Note_off_c, 0, 55, 55
3, 573056, Note_on_c, 0, 58, 55
3, 573184, Note_off_c, 0, 58, 55
3, 573184, Note_on_c, 0, 55, 55
3, 573312, Note_off_c, 0, 55, 55
3, 573312, Note_on_c, 0, 58, 55
3, 573440, Note_off_c, 0, 58, 55
3, 573440, Note_on_c, 0, 51, 55
3, 573568, Note_off_c, 0, 51, 55
3, 573568, Note_on_c, 0, 55, 55
3, 573696, Note_off_c, 0, 55, 55
3, 573696, Note_on_c, 0, 51, 55
3, 573824, Note_off_c, 0, 51, 55
3, 573824, Note_on_c, 0, 55, 55
3, 573952, Note_off_c, 0, 55, 55
3, 573952, Note_on_c, 0, 51, 55
3, 574080, Note_off_c, 0, 51, 55
3, 574080, Note_on_c, 0, 55, 55
3, 574208, Note_off_c, 0, 55, 55
3, 574208, Note_on_c, 0, 56, 55
3, 574336, Note_off_c, 0, 56, 55
3, 574336, Note_on_c, 0, 55, 55
3, 574464, Note_off_c, 0, 55, 55
3, 574464, Note_on_c, 0, 53, 55
3, 574592, Note_off_c, 0, 53, 55
3, 574592, Note_on_c, 0, 58, 55
3, 574720, Note_off_c, 0, 58, 55
3, 574720, Note_on_c, 0, 53, 55
3, 574848, Note_off_c, 0, 53, 55
3, 574848, Note_on_c, 0, 58, 55
3, 574976, Note_off_c, 0, 58, 55
3, 574976, Note_on_c, 0, 53, 55
3, 575104, Note_off_c, 0, 53, 55
3, 575104, Note_on_c, 0, 58, 55
3, 575232, Note_off_c, 0, 58, 55
3, 575232, Note_on_c, 0, 53, 55
3, 575360, Note_off_c, 0, 53, 55
3, 575360, Note_on_c, 0, 58, 55
3, 575488, Note_off_c, 0, 58, 55
3, 575488, Note_on_c, 0, 53, 55
3, 575616, Note_off_c, 0, 53, 55
3, 575616, Note_on_c, 0, 58, 55
3, 575744, Note_off_c, 0, 58, 55
3, 575744, Note_on_c, 0, 53, 55
3, 575872, Note_off_c, 0, 53, 55
3, 575872, Note_on_c, 0, 58, 55
3, 576000, Note_off_c, 0, 58, 55
3, 576000, Note_on_c, 0, 53, 55
3, 576128, Note_off_c, 0, 53, 55
3, 576128, Note_on_c, 0, 58, 55
3, 576256, Note_off_c, 0, 58, 55
3, 576256, Note_on_c, 0, 56, 55
3, 576384, Note_off_c, 0, 56, 55
3, 576384, Note_on_c, 0, 58, 55
3, 576512, Note_off_c, 0, 58, 55
3, 576512, Note_on_c, 0, 55, 55
3, 576640, Note_off_c, 0, 55, 55
3, 576640, Note_on_c, 0, 58, 55
3, 576768, Note_off_c, 0, 58, 55
3, 576768, Note_on_c, 0, 55, 55
3, 576896, Note_off_c, 0, 55, 55
3, 576896, Note_on_c, 0, 58, 55
3, 577024, Note_off_c, 0, 58, 55
3, 577024, Note_on_c, 0, 55, 55
3, 577152, Note_off_c, 0, 55, 55
3, 577152, Note_on_c, 0, 58, 55
3, 577280, Note_off_c, 0, 58, 55
3, 577280, Note_on_c, 0, 56, 55
3, 577408, Note_off_c, 0, 56, 55
3, 577408, Note_on_c, 0, 58, 55
3, 577536, Note_off_c, 0, 58, 55
3, 577536, Note_on_c, 0, 51, 55
3, 577664, Note_off_c, 0, 51, 55
3, 577664, Note_on_c, 0, 55, 55
3, 577792, Note_off_c, 0, 55, 55
3, 577792, Note_on_c, 0, 51, 55
3, 577920, Note_off_c, 0, 51, 55
3, 577920, Note_on_c, 0, 55, 55
3, 578048, Note_off_c, 0, 55, 55
3, 578048, Note_on_c, 0, 51, 55
3, 578176, Note_off_c, 0, 51, 55
3, 578176, Note_on_c, 0, 55, 55
3, 578304, Note_off_c, 0, 55, 55
3, 578304, Note_on_c, 0, 56, 55
3, 578432, Note_off_c, 0, 56, 55
3, 578432, Note_on_c, 0, 55, 55
3, 578560, Note_off_c, 0, 55, 55
3, 578560, Note_on_c, 0, 53, 55
3, 578688, Note_off_c, 0, 53, 55
3, 578688, Note_on_c, 0, 58, 55
3, 578816, Note_off_c, 0, 58, 55
3, 578816, Note_on_c, 0, 53, 55
3, 578944, Note_off_c, 0, 53, 55
3, 578944, Note_on_c, 0, 58, 55
3, 579072, Note_off_c, 0, 58, 55
3, 579072, Note_on_c, 0, 53, 55
3, 579200, Note_off_c, 0, 53, 55
3, 579200, Note_on_c, 0, 58, 55
3, 579328, Note_off_c, 0, 58, 55
3, 579328, Note_on_c, 0, 53, 55
3, 579456, Note_off_c, 0, 53, 55
3, 579456, Note_on_c, 0, 58, 55
3, 579584, Note_off_c, 0, 58, 55
3, 579584, Note_on_c, 0, 53, 55
3, 579712, Note_off_c, 0, 53, 55
3, 579712, Note_on_c, 0, 58, 55
3, 579840, Note_off_c, 0, 58, 55
3, 579840, Note_on_c, 0, 53, 55
3, 579968, Note_off_c, 0, 53, 55
3, 579968, Note_on_c, 0, 58, 55
3, 580096, Note_off_c, 0, 58, 55
3, 580096, Note_on_c, 0, 53, 55
3, 580224, Note_off_c, 0, 53, 55
3, 580224, Note_on_c, 0, 58, 55
3, 580352, Note_off_c, 0, 58, 55
3, 580352, Note_on_c, 0, 56, 55
3, 580480, Note_off_c, 0, 56, 55
3, 580480, Note_on_c, 0, 58, 55
3, 580608, Note_off_c, 0, 58, 55
3, 580608, Note_on_c, 0, 51, 55
3, 580736, Note_off_c, 0, 51, 55
3, 580736, Note_on_c, 0, 55, 55
3, 580864, Note_off_c, 0, 55, 55
3, 580864, Note_on_c, 0, 51, 55
3, 580992, Note_off_c, 0, 51, 55
3, 580992, Note_on_c, 0, 55, 55
3, 581120, Note_off_c, 0, 55, 55
3, 581120, Note_on_c, 0, 51, 55
3, 581248, Note_off_c, 0, 51, 55
3, 581248, Note_on_c, 0, 58, 55
3, 581376, Note_off_c, 0, 58, 55
3, 581376, Note_on_c, 0, 56, 55
3, 581504, Note_off_c, 0, 56, 55
3, 581504, Note_on_c, 0, 55, 55
3, 581632, Note_off_c, 0, 55, 55
3, 581632, Note_on_c, 0, 55, 55
3, 581632, Note_on_c, 0, 67, 55
3, 581760, Note_off_c, 0, 55, 55
3, 581760, Note_off_c, 0, 67, 55
3, 581760, Note_on_c, 0, 58, 55
3, 581760, Note_on_c, 0, 65, 55
3, 581888, Note_off_c, 0, 58, 55
3, 581888, Note_off_c, 0, 65, 55
3, 581888, Note_on_c, 0, 55, 55
3, 581888, Note_on_c, 0, 63, 55
3, 582016, Note_off_c, 0, 55, 55
3, 582016, Note_off_c, 0, 63, 55
3, 582016, Note_on_c, 0, 58, 55
3, 582144, Note_off_c, 0, 58, 55
3, 582144, Note_on_c, 0, 55, 55
3, 582144, Note_on_c, 0, 65, 55
3, 582272, Note_off_c, 0, 55, 55
3, 582272, Note_off_c, 0, 65, 55
3, 582272, Note_on_c, 0, 58, 55
3, 582272, Note_on_c, 0, 67, 55
3, 582400, Note_off_c, 0, 58, 55
3, 582400, Note_off_c, 0, 67, 55
3, 582400, Note_on_c, 0, 55, 55
3, 582528, Note_off_c, 0, 55, 55
3, 582528, Note_on_c, 0, 58, 55
3, 582656, Note_off_c, 0, 58, 55
3, 582656, Note_on_c, 0, 56, 55
3, 582784, Note_off_c, 0, 56, 55
3, 582784, Note_on_c, 0, 60, 55
3, 582912, Note_off_c, 0, 60, 55
3, 582912, Note_on_c, 0, 56, 55
3, 583040, Note_off_c, 0, 56, 55
3, 583040, Note_on_c, 0, 60, 55
3, 583168, Note_off_c, 0, 60, 55
3, 583168, Note_on_c, 0, 56, 55
3, 583296, Note_off_c, 0, 56, 55
3, 583296, Note_on_c, 0, 60, 55
3, 583424, Note_off_c, 0, 60, 55
3, 583424, Note_on_c, 0, 56, 55
3, 583552, Note_off_c, 0, 56, 55
3, 583552, Note_on_c, 0, 60, 55
3, 583680, Note_off_c, 0, 60, 55
3, 583680, Note_on_c, 0, 53, 55
3, 583808, Note_off_c, 0, 53, 55
3, 583808, Note_on_c, 0, 56, 55
3, 583936, Note_off_c, 0, 56, 55
3, 583936, Note_on_c, 0, 53, 55
3, 584064, Note_off_c, 0, 53, 55
3, 584064, Note_on_c, 0, 56, 55
3, 584192, Note_off_c, 0, 56, 55
3, 584192, Note_on_c, 0, 53, 55
3, 584192, Note_on_c, 0, 62, 55
3, 584320, Note_off_c, 0, 53, 55
3, 584320, Note_off_c, 0, 62, 55
3, 584320, Note_on_c, 0, 56, 55
3, 584320, Note_on_c, 0, 63, 55
3, 584448, Note_off_c, 0, 56, 55
3, 584448, Note_off_c, 0, 63, 55
3, 584448, Note_on_c, 0, 53, 55
3, 584576, Note_off_c, 0, 53, 55
3, 584576, Note_on_c, 0, 56, 55
3, 584704, Note_off_c, 0, 56, 55
3, 584704, Note_on_c, 0, 55, 55
3, 584832, Note_off_c, 0, 55, 55
3, 584832, Note_on_c, 0, 58, 55
3, 584960, Note_off_c, 0, 58, 55
3, 584960, Note_on_c, 0, 55, 55
3, 585088, Note_off_c, 0, 55, 55
3, 585088, Note_on_c, 0, 58, 55
3, 585216, Note_off_c, 0, 58, 55
3, 585216, Note_on_c, 0, 55, 55
3, 585344, Note_off_c, 0, 55, 55
3, 585344, Note_on_c, 0, 58, 55
3, 585472, Note_off_c, 0, 58, 55
3, 585472, Note_on_c, 0, 55, 55
3, 585600, Note_off_c, 0, 55, 55
3, 585600, Note_on_c, 0, 58, 55
3, 585728, Note_off_c, 0, 58, 55
3, 585728, Note_on_c, 0, 55, 55
3, 585856, Note_off_c, 0, 55, 55
3, 585856, Note_on_c, 0, 58, 55
3, 585984, Note_off_c, 0, 58, 55
3, 585984, Note_on_c, 0, 55, 55
3, 586112, Note_off_c, 0, 55, 55
3, 586112, Note_on_c, 0, 58, 55
3, 586240, Note_off_c, 0, 58, 55
3, 586240, Note_on_c, 0, 55, 55
3, 586368, Note_off_c, 0, 55, 55
3, 586368, Note_on_c, 0, 58, 55
3, 586496, Note_off_c, 0, 58, 55
3, 586496, Note_on_c, 0, 55, 55
3, 586624, Note_off_c, 0, 55, 55
3, 586624, Note_on_c, 0, 58, 55
3, 586752, Note_off_c, 0, 58, 55
3, 586752, Note_on_c, 0, 56, 55
3, 586880, Note_off_c, 0, 56, 55
3, 586880, Note_on_c, 0, 60, 55
3, 587008, Note_off_c, 0, 60, 55
3, 587008, Note_on_c, 0, 56, 55
3, 587136, Note_off_c, 0, 56, 55
3, 587136, Note_on_c, 0, 60, 55
3, 587264, Note_off_c, 0, 60, 55
3, 587264, Note_on_c, 0, 56, 55
3, 587392, Note_off_c, 0, 56, 55
3, 587392, Note_on_c, 0, 60, 55
3, 587520, Note_off_c, 0, 60, 55
3, 587520, Note_on_c, 0, 56, 55
3, 587648, Note_off_c, 0, 56, 55
3, 587648, Note_on_c, 0, 60, 55
3, 587776, Note_off_c, 0, 60, 55
3, 587776, Note_on_c, 0, 53, 55
3, 587904, Note_off_c, 0, 53, 55
3, 587904, Note_on_c, 0, 56, 55
3, 588032, Note_off_c, 0, 56, 55
3, 588032, Note_on_c, 0, 53, 55
3, 588160, Note_off_c, 0, 53, 55
3, 588160, Note_on_c, 0, 56, 55
3, 588288, Note_off_c, 0, 56, 55
3, 588288, Note_on_c, 0, 53, 55
3, 588416, Note_off_c, 0, 53, 55
3, 588416, Note_on_c, 0, 56, 55
3, 588544, Note_off_c, 0, 56, 55
3, 588544, Note_on_c, 0, 53, 55
3, 588672, Note_off_c, 0, 53, 55
3, 588672, Note_on_c, 0, 56, 55
3, 588800, Note_off_c, 0, 56, 55
3, 588800, Note_on_c, 0, 55, 55
3, 588928, Note_off_c, 0, 55, 55
3, 588928, Note_on_c, 0, 58, 55
3, 589056, Note_off_c, 0, 58, 55
3, 589056, Note_on_c, 0, 55, 55
3, 589184, Note_off_c, 0, 55, 55
3, 589184, Note_on_c, 0, 58, 55
3, 589312, Note_off_c, 0, 58, 55
3, 589312, Note_on_c, 0, 55, 55
3, 589440, Note_off_c, 0, 55, 55
3, 589440, Note_on_c, 0, 58, 55
3, 589568, Note_off_c, 0, 58, 55
3, 589568, Note_on_c, 0, 55, 55
3, 589696, Note_off_c, 0, 55, 55
3, 589696, Note_on_c, 0, 58, 55
3, 589824, Note_off_c, 0, 58, 55
3, 589824, Note_on_c, 0, 51, 55
3, 589952, Note_off_c, 0, 51, 55
3, 589952, Note_on_c, 0, 55, 55
3, 590080, Note_off_c, 0, 55, 55
3, 590080, Note_on_c, 0, 51, 55
3, 590208, Note_off_c, 0, 51, 55
3, 590208, Note_on_c, 0, 55, 55
3, 590336, Note_off_c, 0, 55, 55
3, 590336, Note_on_c, 0, 51, 55
3, 590464, Note_off_c, 0, 51, 55
3, 590464, Note_on_c, 0, 55, 55
3, 590592, Note_off_c, 0, 55, 55
3, 590592, Note_on_c, 0, 56, 55
3, 590720, Note_off_c, 0, 56, 55
3, 590720, Note_on_c, 0, 55, 55
3, 590848, Note_off_c, 0, 55, 55
3, 590848, Note_on_c, 0, 53, 55
3, 590976, Note_off_c, 0, 53, 55
3, 590976, Note_on_c, 0, 58, 55
3, 591104, Note_off_c, 0, 58, 55
3, 591104, Note_on_c, 0, 53, 55
3, 591232, Note_off_c, 0, 53, 55
3, 591232, Note_on_c, 0, 58, 55
3, 591360, Note_off_c, 0, 58, 55
3, 591360, Note_on_c, 0, 53, 55
3, 591488, Note_off_c, 0, 53, 55
3, 591488, Note_on_c, 0, 58, 55
3, 591616, Note_off_c, 0, 58, 55
3, 591616, Note_on_c, 0, 53, 55
3, 591744, Note_off_c, 0, 53, 55
3, 591744, Note_on_c, 0, 58, 55
3, 591872, Note_off_c, 0, 58, 55
3, 591872, Note_on_c, 0, 53, 55
3, 592000, Note_off_c, 0, 53, 55
3, 592000, Note_on_c, 0, 58, 55
3, 592128, Note_off_c, 0, 58, 55
3, 592128, Note_on_c, 0, 53, 55
3, 592256, Note_off_c, 0, 53, 55
3, 592256, Note_on_c, 0, 58, 55
3, 592384, Note_off_c, 0, 58, 55
3, 592384, Note_on_c, 0, 53, 55
3, 592512, Note_off_c, 0, 53, 55
3, 592512, Note_on_c, 0, 58, 55
3, 592640, Note_off_c, 0, 58, 55
3, 592640, Note_on_c, 0, 56, 55
3, 592768, Note_off_c, 0, 56, 55
3, 592768, Note_on_c, 0, 58, 55
3, 592896, Note_off_c, 0, 58, 55
3, 592896, Note_on_c, 0, 55, 55
3, 593024, Note_off_c, 0, 55, 55
3, 593024, Note_on_c, 0, 58, 55
3, 593152, Note_off_c, 0, 58, 55
3, 593152, Note_on_c, 0, 55, 55
3, 593280, Note_off_c, 0, 55, 55
3, 593280, Note_on_c, 0, 58, 55
3, 593408, Note_off_c, 0, 58, 55
3, 593408, Note_on_c, 0, 55, 55
3, 593536, Note_off_c, 0, 55, 55
3, 593536, Note_on_c, 0, 58, 55
3, 593664, Note_off_c, 0, 58, 55
3, 593664, Note_on_c, 0, 56, 55
3, 593792, Note_off_c, 0, 56, 55
3, 593792, Note_on_c, 0, 58, 55
3, 593920, Note_off_c, 0, 58, 55
3, 593920, Note_on_c, 0, 51, 55
3, 594048, Note_off_c, 0, 51, 55
3, 594048, Note_on_c, 0, 55, 55
3, 594176, Note_off_c, 0, 55, 55
3, 594176, Note_on_c, 0, 51, 55
3, 594304, Note_off_c, 0, 51, 55
3, 594304, Note_on_c, 0, 55, 55
3, 594432, Note_off_c, 0, 55, 55
3, 594432, Note_on_c, 0, 51, 55
3, 594560, Note_off_c, 0, 51, 55
3, 594560, Note_on_c, 0, 55, 55
3, 594688, Note_off_c, 0, 55, 55
3, 594688, Note_on_c, 0, 56, 55
3, 594816, Note_off_c, 0, 56, 55
3, 594816, Note_on_c, 0, 55, 55
3, 594944, Note_off_c, 0, 55, 55
3, 594944, Note_on_c, 0, 53, 55
3, 595072, Note_off_c, 0, 53, 55
3, 595072, Note_on_c, 0, 58, 55
3, 595200, Note_off_c, 0, 58, 55
3, 595200, Note_on_c, 0, 53, 55
3, 595328, Note_off_c, 0, 53, 55
3, 595328, Note_on_c, 0, 58, 55
3, 595456, Note_off_c, 0, 58, 55
3, 595456, Note_on_c, 0, 53, 55
3, 595584, Note_off_c, 0, 53, 55
3, 595584, Note_on_c, 0, 58, 55
3, 595712, Note_off_c, 0, 58, 55
3, 595712, Note_on_c, 0, 53, 55
3, 595840, Note_off_c, 0, 53, 55
3, 595840, Note_on_c, 0, 58, 55
3, 595968, Note_off_c, 0, 58, 55
3, 595968, Note_on_c, 0, 53, 55
3, 596096, Note_off_c, 0, 53, 55
3, 596096, Note_on_c, 0, 58, 55
3, 596224, Note_off_c, 0, 58, 55
3, 596224, Note_on_c, 0, 53, 55
3, 596352, Note_off_c, 0, 53, 55
3, 596352, Note_on_c, 0, 58, 55
3, 596480, Note_off_c, 0, 58, 55
3, 596480, Note_on_c, 0, 53, 55
3, 596608, Note_off_c, 0, 53, 55
3, 596608, Note_on_c, 0, 58, 55
3, 596736, Note_off_c, 0, 58, 55
3, 596736, Note_on_c, 0, 56, 55
3, 596864, Note_off_c, 0, 56, 55
3, 596864, Note_on_c, 0, 58, 55
3, 596992, Note_off_c, 0, 58, 55
3, 596992, Note_on_c, 0, 51, 55
3, 597120, Note_off_c, 0, 51, 55
3, 597120, Note_on_c, 0, 55, 55
3, 597248, Note_off_c, 0, 55, 55
3, 597248, Note_on_c, 0, 51, 55
3, 597376, Note_off_c, 0, 51, 55
3, 597376, Note_on_c, 0, 55, 55
3, 597504, Note_off_c, 0, 55, 55
3, 597504, Note_on_c, 0, 51, 55
3, 597632, Note_off_c, 0, 51, 55
3, 597632, Note_on_c, 0, 58, 55
3, 597760, Note_off_c, 0, 58, 55
3, 597760, Note_on_c, 0, 56, 55
3, 597888, Note_off_c, 0, 56, 55
3, 597888, Note_on_c, 0, 55, 55
3, 598016, Note_off_c, 0, 55, 55
3, 598016, Note_on_c, 0, 55, 55
3, 598016, Note_on_c, 0, 67, 55
3, 598144, Note_off_c, 0, 55, 55
3, 598144, Note_off_c, 0, 67, 55
3, 598144, Note_on_c, 0, 58, 55
3, 598144, Note_on_c, 0, 65, 55
3, 598272, Note_off_c, 0, 58, 55
3, 598272, Note_off_c, 0, 65, 55
3, 598272, Note_on_c, 0, 55, 55
3, 598272, Note_on_c, 0, 63, 55
3, 598400, Note_off_c, 0, 55, 55
3, 598400, Note_off_c, 0, 63, 55
3, 598400, Note_on_c, 0, 58, 55
3, 598528, Note_off_c, 0, 58, 55
3, 598528, Note_on_c, 0, 55, 55
3, 598528, Note_on_c, 0, 65, 55
3, 598656, Note_off_c, 0, 55, 55
3, 598656, Note_off_c, 0, 65, 55
3, 598656, Note_on_c, 0, 58, 55
3, 598656, Note_on_c, 0, 67, 55
3, 598784, Note_off_c, 0, 58, 55
3, 598784, Note_off_c, 0, 67, 55
3, 598784, Note_on_c, 0, 55, 55
3, 598912, Note_off_c, 0, 55, 55
3, 598912, Note_on_c, 0, 58, 55
3, 599040, Note_off_c, 0, 58, 55
3, 599040, Note_on_c, 0, 56, 55
3, 599168, Note_off_c, 0, 56, 55
3, 599168, Note_on_c, 0, 60, 55
3, 599296, Note_off_c, 0, 60, 55
3, 599296, Note_on_c, 0, 56, 55
3, 599424, Note_off_c, 0, 56, 55
3, 599424, Note_on_c, 0, 60, 55
3, 599552, Note_off_c, 0, 60, 55
3, 599552, Note_on_c, 0, 56, 55
3, 599680, Note_off_c, 0, 56, 55
3, 599680, Note_on_c, 0, 60, 55
3, 599808, Note_off_c, 0, 60, 55
3, 599808, Note_on_c, 0, 56, 55
3, 599936, Note_off_c, 0, 56, 55
3, 599936, Note_on_c, 0, 60, 55
3, 600064, Note_off_c, 0, 60, 55
3, 600064, Note_on_c, 0, 53, 55
3, 600192, Note_off_c, 0, 53, 55
3, 600192, Note_on_c, 0, 56, 55
3, 600320, Note_off_c, 0, 56, 55
3, 600320, Note_on_c, 0, 53, 55
3, 600448, Note_off_c, 0, 53, 55
3, 600448, Note_on_c, 0, 56, 55
3, 600576, Note_off_c, 0, 56, 55
3, 600576, Note_on_c, 0, 53, 55
3, 600576, Note_on_c, 0, 62, 55
3, 600704, Note_off_c, 0, 53, 55
3, 600704, Note_off_c, 0, 62, 55
3, 600704, Note_on_c, 0, 56, 55
3, 600704, Note_on_c, 0, 63, 55
3, 600832, Note_off_c, 0, 56, 55
3, 600832, Note_off_c, 0, 63, 55
3, 600832, Note_on_c, 0, 53, 55
3, 600960, Note_off_c, 0, 53, 55
3, 600960, Note_on_c, 0, 56, 55
3, 601088, Note_off_c, 0, 56, 55
3, 601088, Note_on_c, 0, 55, 55
3, 601216, Note_off_c, 0, 55, 55
3, 601216, Note_on_c, 0, 58, 55
3, 601344, Note_off_c, 0, 58, 55
3, 601344, Note_on_c, 0, 55, 55
3, 601472, Note_off_c, 0, 55, 55
3, 601472, Note_on_c, 0, 58, 55
3, 601600, Note_off_c, 0, 58, 55
3, 601600, Note_on_c, 0, 55, 55
3, 601728, Note_off_c, 0, 55, 55
3, 601728, Note_on_c, 0, 58, 55
3, 601856, Note_off_c, 0, 58, 55
3, 601856, Note_on_c, 0, 55, 55
3, 601984, Note_off_c, 0, 55, 55
3, 601984, Note_on_c, 0, 58, 55
3, 602112, Note_off_c, 0, 58, 55
3, 602112, Note_on_c, 0, 55, 55
3, 602240, Note_off_c, 0, 55, 55
3, 602240, Note_on_c, 0, 58, 55
3, 602368, Note_off_c, 0, 58, 55
3, 602368, Note_on_c, 0, 55, 55
3, 602496, Note_off_c, 0, 55, 55
3, 602496, Note_on_c, 0, 58, 55
3, 602624, Note_off_c, 0, 58, 55
3, 602624, Note_on_c, 0, 55, 55
3, 602752, Note_off_c, 0, 55, 55
3, 602752, Note_on_c, 0, 58, 55
3, 602880, Note_off_c, 0, 58, 55
3, 602880, Note_on_c, 0, 55, 55
3, 603008, Note_off_c, 0, 55, 55
3, 603008, Note_on_c, 0, 58, 55
3, 603136, Note_off_c, 0, 58, 55
3, 603136, Note_on_c, 0, 56, 55
3, 603264, Note_off_c, 0, 56, 55
3, 603264, Note_on_c, 0, 60, 55
3, 603392, Note_off_c, 0, 60, 55
3, 603392, Note_on_c, 0, 56, 55
3, 603520, Note_off_c, 0, 56, 55
3, 603520, Note_on_c, 0, 60, 55
3, 603648, Note_off_c, 0, 60, 55
3, 603648, Note_on_c, 0, 56, 55
3, 603776, Note_off_c, 0, 56, 55
3, 603776, Note_on_c, 0, 60, 55
3, 603904, Note_off_c, 0, 60, 55
3, 603904, Note_on_c, 0, 56, 55
3, 604032, Note_off_c, 0, 56, 55
3, 604032, Note_on_c, 0, 60, 55
3, 604160, Note_off_c, 0, 60, 55
3, 604160, Note_on_c, 0, 53, 55
3, 604288, Note_off_c, 0, 53, 55
3, 604288, Note_on_c, 0, 56, 55
3, 604416, Note_off_c, 0, 56, 55
3, 604416, Note_on_c, 0, 53, 55
3, 604544, Note_off_c, 0, 53, 55
3, 604544, Note_on_c, 0, 56, 55
3, 604672, Note_off_c, 0, 56, 55
3, 604672, Note_on_c, 0, 53, 55
3, 604800, Note_off_c, 0, 53, 55
3, 604800, Note_on_c, 0, 56, 55
3, 604928, Note_off_c, 0, 56, 55
3, 604928, Note_on_c, 0, 53, 55
3, 605056, Note_off_c, 0, 53, 55
3, 605056, Note_on_c, 0, 56, 55
3, 605184, Note_off_c, 0, 56, 55
3, 605184, Note_on_c, 0, 55, 55
3, 605312, Note_off_c, 0, 55, 55
3, 605312, Note_on_c, 0, 58, 55
3, 605440, Note_off_c, 0, 58, 55
3, 605440, Note_on_c, 0, 55, 55
3, 605568, Note_off_c, 0, 55, 55
3, 605568, Note_on_c, 0, 58, 55
3, 605696, Note_off_c, 0, 58, 55
3, 605696, Note_on_c, 0, 55, 55
3, 605824, Note_off_c, 0, 55, 55
3, 605824, Note_on_c, 0, 58, 55
3, 605952, Note_off_c, 0, 58, 55
3, 605952, Note_on_c, 0, 55, 55
3, 606080, Note_off_c, 0, 55, 55
3, 606080, Note_on_c, 0, 58, 55
3, 606208, Note_off_c, 0, 58, 55
3, 606208, Note_on_c, 0, 51, 55
3, 606336, Note_off_c, 0, 51, 55
3, 606336, Note_on_c, 0, 55, 55
3, 606464, Note_off_c, 0, 55, 55
3, 606464, Note_on_c, 0, 51, 55
3, 606592, Note_off_c, 0, 51, 55
3, 606592, Note_on_c, 0, 55, 55
3, 606720, Note_off_c, 0, 55, 55
3, 606720, Note_on_c, 0, 51, 55
3, 606848, Note_off_c, 0, 51, 55
3, 606848, Note_on_c, 0, 55, 55
3, 606976, Note_off_c, 0, 55, 55
3, 606976, Note_on_c, 0, 56, 55
3, 607104, Note_off_c, 0, 56, 55
3, 607104, Note_on_c, 0, 55, 55
3, 607232, Note_off_c, 0, 55, 55
3, 607232, Note_on_c, 0, 53, 55
3, 607360, Note_off_c, 0, 53, 55
3, 607360, Note_on_c, 0, 58, 55
3, 607488, Note_off_c, 0, 58, 55
3, 607488, Note_on_c, 0, 53, 55
3, 607616, Note_off_c, 0, 53, 55
3, 607616, Note_on_c, 0, 58, 55
3, 607744, Note_off_c, 0, 58, 55
3, 607744, Note_on_c, 0, 53, 55
3, 607872, Note_off_c, 0, 53, 55
3, 607872, Note_on_c, 0, 58, 55
3, 608000, Note_off_c, 0, 58, 55
3, 608000, Note_on_c, 0, 53, 55
3, 608128, Note_off_c, 0, 53, 55
3, 608128, Note_on_c, 0, 58, 55
3, 608256, Note_off_c, 0, 58, 55
3, 608256, Note_on_c, 0, 53, 55
3, 608384, Note_off_c, 0, 53, 55
3, 608384, Note_on_c, 0, 58, 55
3, 608512, Note_off_c, 0, 58, 55
3, 608512, Note_on_c, 0, 53, 55
3, 608640, Note_off_c, 0, 53, 55
3, 608640, Note_on_c, 0, 58, 55
3, 608768, Note_off_c, 0, 58, 55
3, 608768, Note_on_c, 0, 53, 55
3, 608896, Note_off_c, 0, 53, 55
3, 608896, Note_on_c, 0, 58, 55
3, 609024, Note_off_c, 0, 58, 55
3, 609024, Note_on_c, 0, 56, 55
3, 609152, Note_off_c, 0, 56, 55
3, 609152, Note_on_c, 0, 58, 55
3, 609280, Note_off_c, 0, 58, 55
3, 609280, Note_on_c, 0, 55, 55
3, 609408, Note_off_c, 0, 55, 55
3, 609408, Note_on_c, 0, 58, 55
3, 609536, Note_off_c, 0, 58, 55
3, 609536, Note_on_c, 0, 55, 55
3, 609664, Note_off_c, 0, 55, 55
3, 609664, Note_on_c, 0, 58, 55
3, 609792, Note_off_c, 0, 58, 55
3, 609792, Note_on_c, 0, 55, 55
3, 609920, Note_off_c, 0, 55, 55
3, 609920, Note_on_c, 0, 58, 55
3, 610048, Note_off_c, 0, 58, 55
3, 610048, Note_on_c, 0, 56, 55
3, 610176, Note_off_c, 0, 56, 55
3, 610176, Note_on_c, 0, 58, 55
3, 610304, Note_off_c, 0, 58, 55
3, 610304, Note_on_c, 0, 51, 55
3, 610432, Note_off_c, 0, 51, 55
3, 610432, Note_on_c, 0, 55, 55
3, 610560, Note_off_c, 0, 55, 55
3, 610560, Note_on_c, 0, 51, 55
3, 610688, Note_off_c, 0, 51, 55
3, 610688, Note_on_c, 0, 55, 55
3, 610816, Note_off_c, 0, 55, 55
3, 610816, Note_on_c, 0, 51, 55
3, 610944, Note_off_c, 0, 51, 55
3, 610944, Note_on_c, 0, 55, 55
3, 611072, Note_off_c, 0, 55, 55
3, 611072, Note_on_c, 0, 56, 55
3, 611200, Note_off_c, 0, 56, 55
3, 611200, Note_on_c, 0, 55, 55
3, 611328, Note_off_c, 0, 55, 55
3, 611328, Note_on_c, 0, 53, 55
3, 611456, Note_off_c, 0, 53, 55
3, 611456, Note_on_c, 0, 58, 55
3, 611584, Note_off_c, 0, 58, 55
3, 611584, Note_on_c, 0, 53, 55
3, 611712, Note_off_c, 0, 53, 55
3, 611712, Note_on_c, 0, 58, 55
3, 611840, Note_off_c, 0, 58, 55
3, 611840, Note_on_c, 0, 53, 55
3, 611968, Note_off_c, 0, 53, 55
3, 611968, Note_on_c, 0, 58, 55
3, 612096, Note_off_c, 0, 58, 55
3, 612096, Note_on_c, 0, 53, 55
3, 612224, Note_off_c, 0, 53, 55
3, 612224, Note_on_c, 0, 58, 55
3, 612352, Note_off_c, 0, 58, 55
3, 612352, Note_on_c, 0, 53, 55
3, 612480, Note_off_c, 0, 53, 55
3, 612480, Note_on_c, 0, 58, 55
3, 612608, Note_off_c, 0, 58, 55
3, 612608, Note_on_c, 0, 53, 55
3, 612736, Note_off_c, 0, 53, 55
3, 612736, Note_on_c, 0, 58, 55
3, 612864, Note_off_c, 0, 58, 55
3, 612864, Note_on_c, 0, 53, 55
3, 612992, Note_off_c, 0, 53, 55
3, 612992, Note_on_c, 0, 58, 55
3, 613120, Note_off_c, 0, 58, 55
3, 613120, Note_on_c, 0, 56, 55
3, 613248, Note_off_c, 0, 56, 55
3, 613248, Note_on_c, 0, 58, 55
3, 613376, Note_off_c, 0, 58, 55
3, 613376, Note_on_c, 0, 51, 55
3, 613504, Note_off_c, 0, 51, 55
3, 613504, Note_on_c, 0, 55, 55
3, 613632, Note_off_c, 0, 55, 55
3, 613632, Note_on_c, 0, 51, 55
3, 613760, Note_off_c, 0, 51, 55
3, 613760, Note_on_c, 0, 55, 55
3, 613888, Note_off_c, 0, 55, 55
3, 613888, Note_on_c, 0, 51, 55
3, 614016, Note_off_c, 0, 51, 55
3, 614016, Note_on_c, 0, 58, 55
3, 614144, Note_off_c, 0, 58, 55
3, 614144, Note_on_c, 0, 56, 55
3, 614272, Note_off_c, 0, 56, 55
3, 614272, Note_on_c, 0, 55, 55
3, 614400, Note_off_c, 0, 55, 55
3, 614400, Note_on_c, 0, 55, 55
3, 614400, Note_on_c, 0, 67, 55
3, 614528, Note_off_c, 0, 55, 55
3, 614528, Note_off_c, 0, 67, 55
3, 614528, Note_on_c, 0, 58, 55
3, 614528, Note_on_c, 0, 65, 55
3, 614656, Note_off_c, 0, 58, 55
3, 614656, Note_off_c, 0, 65, 55
3, 614656, Note_on_c, 0, 55, 55
3, 614656, Note_on_c, 0, 63, 55
3, 614784, Note_off_c, 0, 55, 55
3, 614784, Note_off_c, 0, 63, 55
3, 614784, Note_on_c, 0, 58, 55
3, 614912, Note_off_c, 0, 58, 55
3, 614912, Note_on_c, 0, 55, 55
3, 614912, Note_on_c, 0, 65, 55
3, 615040, Note_off_c, 0, 55, 55
3, 615040, Note_off_c, 0, 65, 55
3, 615040, Note_on_c, 0, 58, 55
3, 615040, Note_on_c, 0, 67, 55
3, 615168, Note_off_c, 0, 58, 55
3, 615168, Note_off_c, 0, 67, 55
3, 615168, Note_on_c, 0, 55, 55
3, 615296, Note_off_c, 0, 55, 55
3, 615296, Note_on_c, 0, 58, 55
3, 615424, Note_off_c, 0, 58, 55
3, 615424, Note_on_c, 0, 56, 55
3, 615552, Note_off_c, 0, 56, 55
3, 615552, Note_on_c, 0, 60, 55
3, 615680, Note_off_c, 0, 60, 55
3, 615680, Note_on_c, 0, 56, 55
3, 615808, Note_off_c, 0, 56, 55
3, 615808, Note_on_c, 0, 60, 55
3, 615936, Note_off_c, 0, 60, 55
3, 615936, Note_on_c, 0, 56, 55
3, 616064, Note_off_c, 0, 56, 55
3, 616064, Note_on_c, 0, 60, 55
3, 616192, Note_off_c, 0, 60, 55
3, 616192, Note_on_c, 0, 56, 55
3, 616320, Note_off_c, 0, 56, 55
3, 616320, Note_on_c, 0, 60, 55
3, 616448, Note_off_c, 0, 60, 55
3, 616448, Note_on_c, 0, 53, 55
3, 616576, Note_off_c, 0, 53, 55
3, 616576, Note_on_c, 0, 56, 55
3, 616704, Note_off_c, 0, 56, 55
3, 616704, Note_on_c, 0, 53, 55
3, 616832, Note_off_c, 0, 53, 55
3, 616832, Note_on_c, 0, 56, 55
3, 616960, Note_off_c, 0, 56, 55
3, 616960, Note_on_c, 0, 53, 55
3, 616960, Note_on_c, 0, 62, 55
3, 617088, Note_off_c, 0, 53, 55
3, 617088, Note_off_c, 0, 62, 55
3, 617088, Note_on_c, 0, 56, 55
3, 617088, Note_on_c, 0, 63, 55
3, 617216, Note_off_c, 0, 56, 55
3, 617216, Note_off_c, 0, 63, 55
3, 617216, Note_on_c, 0, 53, 55
3, 617344, Note_off_c, 0, 53, 55
3, 617344, Note_on_c, 0, 56, 55
3, 617472, Note_off_c, 0, 56, 55
3, 617472, Note_on_c, 0, 55, 55
3, 617600, Note_off_c, 0, 55, 55
3, 617600, Note_on_c, 0, 58, 55
3, 617728, Note_off_c, 0, 58, 55
3, 617728, Note_on_c, 0, 55, 55
3, 617856, Note_off_c, 0, 55, 55
3, 617856, Note_on_c, 0, 58, 55
3, 617984, Note_off_c, 0, 58, 55
3, 617984, Note_on_c, 0, 55, 55
3, 618112, Note_off_c, 0, 55, 55
3, 618112, Note_on_c, 0, 58, 55
3, 618240, Note_off_c, 0, 58, 55
3, 618240, Note_on_c, 0, 55, 55
3, 618368, Note_off_c, 0, 55, 55
3, 618368, Note_on_c, 0, 58, 55
3, 618496, Note_off_c, 0, 58, 55
3, 618496, Note_on_c, 0, 55, 55
3, 618624, Note_off_c, 0, 55, 55
3, 618624, Note_on_c, 0, 58, 55
3, 618752, Note_off_c, 0, 58, 55
3, 618752, Note_on_c, 0, 55, 55
3, 618880, Note_off_c, 0, 55, 55
3, 618880, Note_on_c, 0, 58, 55
3, 619008, Note_off_c, 0, 58, 55
3, 619008, Note_on_c, 0, 55, 55
3, 619136, Note_off_c, 0, 55, 55
3, 619136, Note_on_c, 0, 58, 55
3, 619264, Note_off_c, 0, 58, 55
3, 619264, Note_on_c, 0, 55, 55
3, 619392, Note_off_c, 0, 55, 55
3, 619392, Note_on_c, 0, 58, 55
3, 619520, Note_off_c, 0, 58, 55
3, 619520, Note_on_c, 0, 56, 55
3, 619648, Note_off_c, 0, 56, 55
3, 619648, Note_on_c, 0, 60, 55
3, 619776, Note_off_c, 0, 60, 55
3, 619776, Note_on_c, 0, 56, 55
3, 619904, Note_off_c, 0, 56, 55
3, 619904, Note_on_c, 0, 60, 55
3, 620032, Note_off_c, 0, 60, 55
3, 620032, Note_on_c, 0, 56, 55
3, 620160, Note_off_c, 0, 56, 55
3, 620160, Note_on_c, 0, 60, 55
3, 620288, Note_off_c, 0, 60, 55
3, 620288, Note_on_c, 0, 56, 55
3, 620416, Note_off_c, 0, 56, 55
3, 620416, Note_on_c, 0, 60, 55
3, 620544, Note_off_c, 0, 60, 55
3, 620544, Note_on_c, 0, 53, 55
3, 620672, Note_off_c, 0, 53, 55
3, 620672, Note_on_c, 0, 56, 55
3, 620800, Note_off_c, 0, 56, 55
3, 620800, Note_on_c, 0, 53, 55
3, 620928, Note_off_c, 0, 53, 55
3, 620928, Note_on_c, 0, 56, 55
3, 621056, Note_off_c, 0, 56, 55
3, 621056, Note_on_c, 0, 53, 55
3, 621184, Note_off_c, 0, 53, 55
3, 621184, Note_on_c, 0, 56, 55
3, 621312, Note_off_c, 0, 56, 55
3, 621312, Note_on_c, 0, 53, 55
3, 621440, Note_off_c, 0, 53, 55
3, 621440, Note_on_c, 0, 56, 55
3, 621568, Note_off_c, 0, 56, 55
3, 621568, Note_on_c, 0, 55, 55
3, 621696, Note_off_c, 0, 55, 55
3, 621696, Note_on_c, 0, 58, 55
3, 621824, Note_off_c, 0, 58, 55
3, 621824, Note_on_c, 0, 55, 55
3, 621952, Note_off_c, 0, 55, 55
3, 621952, Note_on_c, 0, 58, 55
3, 622080, Note_off_c, 0, 58, 55
3, 622080, Note_on_c, 0, 55, 55
3, 622208, Note_off_c, 0, 55, 55
3, 622208, Note_on_c, 0, 58, 55
3, 622336, Note_off_c, 0, 58, 55
3, 622336, Note_on_c, 0, 55, 55
3, 622464, Note_off_c, 0, 55, 55
3, 622464, Note_on_c, 0, 58, 55
3, 622592, Note_off_c, 0, 58, 55
3, 622592, Note_on_c, 0, 51, 55
3, 622720, Note_off_c, 0, 51, 55
3, 622720, Note_on_c, 0, 55, 55
3, 622848, Note_off_c, 0, 55, 55
3, 622848, Note_on_c, 0, 51, 55
3, 622976, Note_off_c, 0, 51, 55
3, 622976, Note_on_c, 0, 55, 55
3, 623104, Note_off_c, 0, 55, 55
3, 623104, Note_on_c, 0, 51, 55
3, 623232, Note_off_c, 0, 51, 55
3, 623232, Note_on_c, 0, 55, 55
3, 623360, Note_off_c, 0, 55, 55
3, 623360, Note_on_c, 0, 56, 55
3, 623488, Note_off_c, 0, 56, 55
3, 623488, Note_on_c, 0, 55, 55
3, 623616, Note_off_c, 0, 55, 55
3, 623616, Note_on_c, 0, 53, 55
3, 623744, Note_off_c, 0, 53, 55
3, 623744, Note_on_c, 0, 58, 55
3, 623872, Note_off_c, 0, 58, 55
3, 623872, Note_on_c, 0, 53, 55
3, 624000, Note_off_c, 0, 53, 55
3, 624000, Note_on_c, 0, 58, 55
3, 624128, Note_off_c, 0, 58, 55
3, 624128, Note_on_c, 0, 53, 55
3, 624256, Note_off_c, 0, 53, 55
3, 624256, Note_on_c, 0, 58, 55
3, 624384, Note_off_c, 0, 58, 55
3, 624384, Note_on_c, 0, 53, 55
3, 624512, Note_off_c, 0, 53, 55
3, 624512, Note_on_c, 0, 58, 55
3, 624640, Note_off_c, 0, 58, 55
3, 624640, Note_on_c, 0, 53, 55
3, 624768, Note_off_c, 0, 53, 55
3, 624768, Note_on_c, 0, 58, 55
3, 624896, Note_off_c, 0, 58, 55
3, 624896, Note_on_c, 0, 53, 55
3, 625024, Note_off_c, 0, 53, 55
3, 625024, Note_on_c, 0, 58, 55
3, 625152, Note_off_c, 0, 58, 55
3, 625152, Note_on_c, 0, 53, 55
3, 625280, Note_off_c, 0, 53, 55
3, 625280, Note_on_c, 0, 58, 55
3, 625408, Note_off_c, 0, 58, 55
3, 625408, Note_on_c, 0, 56, 55
3, 625536, Note_off_c, 0, 56, 55
3, 625536, Note_on_c, 0, 58, 55
3, 625664, Note_off_c, 0, 58, 55
3, 625664, Note_on_c, 0, 55, 55
3, 625792, Note_off_c, 0, 55, 55
3, 625792, Note_on_c, 0, 58, 55
3, 625920, Note_off_c, 0, 58, 55
3, 625920, Note_on_c, 0, 55, 55
3, 626048, Note_off_c, 0, 55, 55
3, 626048, Note_on_c, 0, 58, 55
3, 626176, Note_off_c, 0, 58, 55
3, 626176, Note_on_c, 0, 55, 55
3, 626304, Note_off_c, 0, 55, 55
3, 626304, Note_on_c, 0, 58, 55
3, 626432, Note_off_c, 0, 58, 55
3, 626432, Note_on_c, 0, 56, 55
3, 626560, Note_off_c, 0, 56, 55
3, 626560, Note_on_c, 0, 58, 55
3, 626688, Note_off_c, 0, 58, 55
3, 626688, Note_on_c, 0, 51, 55
3, 626816, Note_off_c, 0, 51, 55
3, 626816, Note_on_c, 0, 55, 55
3, 626944, Note_off_c, 0, 55, 55
3, 626944, Note_on_c, 0, 51, 55
3, 627072, Note_off_c, 0, 51, 55
3, 627072, Note_on_c, 0, 55, 55
3, 627200, Note_off_c, 0, 55, 55
3, 627200, Note_on_c, 0, 51, 55
3, 627328, Note_off_c, 0, 51, 55
3, 627328, Note_on_c, 0, 55, 55
3, 627456, Note_off_c, 0, 55, 55
3, 627456, Note_on_c, 0, 56, 55
3, 627584, Note_off_c, 0, 56, 55
3, 627584, Note_on_c, 0, 55, 55
3, 627712, Note_off_c, 0, 55, 55
3, 627712, Note_on_c, 0, 53, 55
3, 627840, Note_off_c, 0, 53, 55
3, 627840, Note_on_c, 0, 58, 55
3, 627968, Note_off_c, 0, 58, 55
3, 627968, Note_on_c, 0, 53, 55
3, 628096, Note_off_c, 0, 53, 55
3, 628096, Note_on_c, 0, 58, 55
3, 628224, Note_off_c, 0, 58, 55
3, 628224, Note_on_c, 0, 53, 55
3, 628352, Note_off_c, 0, 53, 55
3, 628352, Note_on_c, 0, 58, 55
3, 628480, Note_off_c, 0, 58, 55
3, 628480, Note_on_c, 0, 53, 55
3, 628608, Note_off_c, 0, 53, 55
3, 628608, Note_on_c, 0, 58, 55
3, 628736, Note_off_c, 0, 58, 55
3, 628736, Note_on_c, 0, 53, 55
3, 628864, Note_off_c, 0, 53, 55
3, 628864, Note_on_c, 0, 58, 55
3, 628992, Note_off_c, 0, 58, 55
3, 628992, Note_on_c, 0, 53, 55
3, 629120, Note_off_c, 0, 53, 55
3, 629120, Note_on_c, 0, 58, 55
3, 629248, Note_off_c, 0, 58, 55
3, 629248, Note_on_c, 0, 53, 55
3, 629376, Note_off_c, 0, 53, 55
3, 629376, Note_on_c, 0, 58, 55
3, 629504, Note_off_c, 0, 58, 55
3, 629504, Note_on_c, 0, 56, 55
3, 629632, Note_off_c, 0, 56, 55
3, 629632, Note_on_c, 0, 58, 55
3, 629760, Note_off_c, 0, 58, 55
3, 629760, Note_on_c, 0, 51, 55
3, 629888, Note_off_c, 0, 51, 55
3, 629888, Note_on_c, 0, 55, 55
3, 630016, Note_off_c, 0, 55, 55
3, 630016, Note_on_c, 0, 51, 55
3, 630144, Note_off_c, 0, 51, 55
3, 630144, Note_on_c, 0, 55, 55
3, 630272, Note_off_c, 0, 55, 55
3, 630272, Note_on_c, 0, 51, 55
3, 630400, Note_off_c, 0, 51, 55
3, 630400, Note_on_c, 0, 58, 55
3, 630528, Note_off_c, 0, 58, 55
3, 630528, Note_on_c, 0, 56, 55
3, 630656, Note_off_c, 0, 56, 55
3, 630656, Note_on_c, 0, 55, 55
3, 630784, Note_off_c, 0, 55, 55
3, 630784, Note_on_c, 0, 55, 55
3, 630784, Note_on_c, 0, 67, 55
3, 630912, Note_off_c, 0, 55, 55
3, 630912, Note_off_c, 0, 67, 55
3, 630912, Note_on_c, 0, 58, 55
3, 630912, Note_on_c, 0, 65, 55
3, 631040, Note_off_c, 0, 58, 55
3, 631040, Note_off_c, 0, 65, 55
3, 631040, Note_on_c, 0, 55, 55
3, 631040, Note_on_c, 0, 63, 55
3, 631168, Note_off_c, 0, 55, 55
3, 631168, Note_off_c, 0, 63, 55
3, 631168, Note_on_c, 0, 58, 55
3, 631296, Note_off_c, 0, 58, 55
3, 631296, Note_on_c, 0, 55, 55
3, 631296, Note_on_c, 0, 65, 55
3, 631424, Note_off_c, 0, 55, 55
3, 631424, Note_off_c, 0, 65, 55
3, 631424, Note_on_c, 0, 58, 55
3, 631424, Note_on_c, 0, 67, 55
3, 631552, Note_off_c, 0, 58, 55
3, 631552, Note_off_c, 0, 67, 55
3, 631552, Note_on_c, 0, 55, 55
3, 631680, Note_off_c, 0, 55, 55
3, 631680, Note_on_c, 0, 58, 55
3, 631808, Note_off_c, 0, 58, 55
3, 631808, Note_on_c, 0, 56, 55
3, 631936, Note_off_c, 0, 56, 55
3, 631936, Note_on_c, 0, 60, 55
3, 632064, Note_off_c, 0, 60, 55
3, 632064, Note_on_c, 0, 56, 55
3, 632192, Note_off_c, 0, 56, 55
3, 632192, Note_on_c, 0, 60, 55
3, 632320, Note_off_c, 0, 60, 55
3, 632320, Note_on_c, 0, 56, 55
3, 632448, Note_off_c, 0, 56, 55
3, 632448, Note_on_c, 0, 60, 55
3, 632576, Note_off_c, 0, 60, 55
3, 632576, Note_on_c, 0, 56, 55
3, 632704, Note_off_c, 0, 56, 55
3, 632704, Note_on_c, 0, 60, 55
3, 632832, Note_off_c, 0, 60, 55
3, 632832, Note_on_c, 0, 53, 55
3, 632960, Note_off_c, 0, 53, 55
3, 632960, Note_on_c, 0, 56, 55
3, 633088, Note_off_c, 0, 56, 55
3, 633088, Note_on_c, 0, 53, 55
3, 633216, Note_off_c, 0, 53, 55
3, 633216, Note_on_c, 0, 56, 55
3, 633344, Note_off_c, 0, 56, 55
3, 633344, Note_on_c, 0, 53, 55
3, 633344, Note_on_c, 0, 62, 55
3, 633472, Note_off_c, 0, 53, 55
3, 633472, Note_off_c, 0, 62, 55
3, 633472, Note_on_c, 0, 56, 55
3, 633472, Note_on_c, 0, 63, 55
3, 633600, Note_off_c, 0, 56, 55
3, 633600, Note_off_c, 0, 63, 55
3, 633600, Note_on_c, 0, 53, 55
3, 633728, Note_off_c, 0, 53, 55
3, 633728, Note_on_c, 0, 56, 55
3, 633856, Note_off_c, 0, 56, 55
3, 633856, Note_on_c, 0, 55, 55
3, 633984, Note_off_c, 0, 55, 55
3, 633984, Note_on_c, 0, 58, 55
3, 634112, Note_off_c, 0, 58, 55
3, 634112, Note_on_c, 0, 55, 55
3, 634240, Note_off_c, 0, 55, 55
3, 634240, Note_on_c, 0, 58, 55
3, 634368, Note_off_c, 0, 58, 55
3, 634368, Note_on_c, 0, 55, 55
3, 634496, Note_off_c, 0, 55, 55
3, 634496, Note_on_c, 0, 58, 55
3, 634624, Note_off_c, 0, 58, 55
3, 634624, Note_on_c, 0, 55, 55
3, 634752, Note_off_c, 0, 55, 55
3, 634752, Note_on_c, 0, 58, 55
3, 634880, Note_off_c, 0, 58, 55
3, 634880, Note_on_c, 0, 55, 55
3, 635008, Note_off_c, 0, 55, 55
3, 635008, Note_on_c, 0, 58, 55
3, 635136, Note_off_c, 0, 58, 55
3, 635136, Note_on_c, 0, 55, 55
3, 635264, Note_off_c, 0, 55, 55
3, 635264, Note_on_c, 0, 58, 55
3, 635392, Note_off_c, 0, 58, 55
3, 635392, Note_on_c, 0, 55, 55
3, 635520, Note_off_c, 0, 55, 55
3, 635520, Note_on_c, 0, 58, 55
3, 635648, Note_off_c, 0, 58, 55
3, 635648, Note_on_c, 0, 55, 55
3, 635776, Note_off_c, 0, 55, 55
3, 635776, Note_on_c, 0, 58, 55
3, 635904, Note_off_c, 0, 58, 55
3, 635904, Note_on_c, 0, 56, 55
3, 636032, Note_off_c, 0, 56, 55
3, 636032, Note_on_c, 0, 60, 55
3, 636160, Note_off_c, 0, 60, 55
3, 636160, Note_on_c, 0, 56, 55
3, 636288, Note_off_c, 0, 56, 55
3, 636288, Note_on_c, 0, 60, 55
3, 636416, Note_off_c, 0, 60, 55
3, 636416, Note_on_c, 0, 56, 55
3, 636544, Note_off_c, 0, 56, 55
3, 636544, Note_on_c, 0, 60, 55
3, 636672, Note_off_c, 0, 60, 55
3, 636672, Note_on_c, 0, 56, 55
3, 636800, Note_off_c, 0, 56, 55
3, 636800, Note_on_c, 0, 60, 55
3, 636928, Note_off_c, 0, 60, 55
3, 636928, Note_on_c, 0, 53, 55
3, 637056, Note_off_c, 0, 53, 55
3, 637056, Note_on_c, 0, 56, 55
3, 637184, Note_off_c, 0, 56, 55
3, 637184, Note_on_c, 0, 53, 55
3, 637312, Note_off_c, 0, 53, 55
3, 637312, Note_on_c, 0, 56, 55
3, 637440, Note_off_c, 0, 56, 55
3, 637440, Note_on_c, 0, 53, 55
3, 637568, Note_off_c, 0, 53, 55
3, 637568, Note_on_c, 0, 56, 55
3, 637696, Note_off_c, 0, 56, 55
3, 637696, Note_on_c, 0, 53, 55
3, 637824, Note_off_c, 0, 53, 55
3, 637824, Note_on_c, 0, 56, 55
3, 637952, Note_off_c, 0, 56, 55
3, 637952, Note_on_c, 0, 55, 55
3, 638080, Note_off_c, 0, 55, 55
3, 638080, Note_on_c, 0, 58, 55
3, 638208, Note_off_c, 0, 58, 55
3, 638208, Note_on_c, 0, 55, 55
3, 638336, Note_off_c, 0, 55, 55
3, 638336, Note_on_c, 0, 58, 55
3, 638464, Note_off_c, 0, 58, 55
3, 638464, Note_on_c, 0, 55, 55
3, 638592, Note_off_c, 0, 55, 55
3, 638592, Note_on_c, 0, 58, 55
3, 638720, Note_off_c, 0, 58, 55
3, 638720, Note_on_c, 0, 55, 55
3, 638848, Note_off_c, 0, 55, 55
3, 638848, Note_on_c, 0, 58, 55
3, 638976, Note_off_c, 0, 58, 55
3, 638976, Note_on_c, 0, 51, 55
3, 639104, Note_off_c, 0, 51, 55
3, 639104, Note_on_c, 0, 55, 55
3, 639232, Note_off_c, 0, 55, 55
3, 639232, Note_on_c, 0, 51, 55
3, 639360, Note_off_c, 0, 51, 55
3, 639360, Note_on_c, 0, 55, 55
3, 639488, Note_off_c, 0, 55, 55
3, 639488, Note_on_c, 0, 51, 55
3, 639616, Note_off_c, 0, 51, 55
3, 639616, Note_on_c, 0, 55, 55
3, 639744, Note_off_c, 0, 55, 55
3, 639744, Note_on_c, 0, 56, 55
3, 639872, Note_off_c, 0, 56, 55
3, 639872, Note_on_c, 0, 55, 55
3, 640000, Note_off_c, 0, 55, 55
3, 640000, Note_on_c, 0, 53, 55
3, 640128, Note_off_c, 0, 53, 55
3, 640128, Note_on_c, 0, 58, 55
3, 640256, Note_off_c, 0, 58, 55
3, 640256, Note_on_c, 0, 53, 55
3, 640384, Note_off_c, 0, 53, 55
3, 640384, Note_on_c, 0, 58, 55
3, 640512, Note_off_c, 0, 58, 55
3, 640512, Note_on_c, 0, 53, 55
3, 640640, Note_off_c, 0, 53, 55
3, 640640, Note_on_c, 0, 58, 55
3, 640768, Note_off_c, 0, 58, 55
3, 640768, Note_on_c, 0, 53, 55
3, 640896, Note_off_c, 0, 53, 55
3, 640896, Note_on_c, 0, 58, 55
3, 641024, Note_off_c, 0, 58, 55
3, 641024, Note_on_c, 0, 53, 55
3, 641152, Note_off_c, 0, 53, 55
3, 641152, Note_on_c, 0, 58, 55
3, 641280, Note_off_c, 0, 58, 55
3, 641280, Note_on_c, 0, 53, 55
3, 641408, Note_off_c, 0, 53, 55
3, 641408, Note_on_c, 0, 58, 55
3, 641536, Note_off_c, 0, 58, 55
3, 641536, Note_on_c, 0, 53, 55
3, 641664, Note_off_c, 0, 53, 55
3, 641664, Note_on_c, 0, 58, 55
3, 641792, Note_off_c, 0, 58, 55
3, 641792, Note_on_c, 0, 56, 55
3, 641920, Note_off_c, 0, 56, 55
3, 641920, Note_on_c, 0, 58, 55
3, 642048, Note_off_c, 0, 58, 55
3, 642048, Note_on_c, 0, 55, 55
3, 642176, Note_off_c, 0, 55, 55
3, 642176, Note_on_c, 0, 58, 55
3, 642304, Note_off_c, 0, 58, 55
3, 642304, Note_on_c, 0, 55, 55
3, 642432, Note_off_c, 0, 55, 55
3, 642432, Note_on_c, 0, 58, 55
3, 642560, Note_off_c, 0, 58, 55
3, 642560, Note_on_c, 0, 55, 55
3, 642688, Note_off_c, 0, 55, 55
3, 642688, Note_on_c, 0, 58, 55
3, 642816, Note_off_c, 0, 58, 55
3, 642816, Note_on_c, 0, 56, 55
3, 642944, Note_off_c, 0, 56, 55
3, 642944, Note_on_c, 0, 58, 55
3, 643072, Note_off_c, 0, 58, 55
3, 643072, Note_on_c, 0, 51, 55
3, 643200, Note_off_c, 0, 51, 55
3, 643200, Note_on_c, 0, 55, 55
3, 643328, Note_off_c, 0, 55, 55
3, 643328, Note_on_c, 0, 51, 55
3, 643456, Note_off_c, 0, 51, 55
3, 643456, Note_on_c, 0, 55, 55
3, 643584, Note_off_c, 0, 55, 55
3, 643584, Note_on_c, 0, 51, 55
3, 643712, Note_off_c, 0, 51, 55
3, 643712, Note_on_c, 0, 55, 55
3, 643840, Note_off_c, 0, 55, 55
3, 643840, Note_on_c, 0, 56, 55
3, 643968, Note_off_c, 0, 56, 55
3, 643968, Note_on_c, 0, 55, 55
3, 644096, Note_off_c, 0, 55, 55
3, 644096, Note_on_c, 0, 53, 55
3, 644224, Note_off_c, 0, 53, 55
3, 644224, Note_on_c, 0, 58, 55
3, 644352, Note_off_c, 0, 58, 55
3, 644352, Note_on_c, 0, 53, 55
3, 644480, Note_off_c, 0, 53, 55
3, 644480, Note_on_c, 0, 58, 55
3, 644608, Note_off_c, 0, 58, 55
3, 644608, Note_on_c, 0, 53, 55
3, 644736, Note_off_c, 0, 53, 55
3, 644736, Note_on_c, 0, 58, 55
3, 644864, Note_off_c, 0, 58, 55
3, 644864, Note_on_c, 0, 53, 55
3, 644992, Note_off_c, 0, 53, 55
3, 644992, Note_on_c, 0, 58, 55
3, 645120, Note_off_c, 0, 58, 55
3, 645120, Note_on_c, 0, 53, 55
3, 645248, Note_off_c, 0, 53, 55
3, 645248, Note_on_c, 0, 58, 55
3, 645376, Note_off_c, 0, 58, 55
3, 645376, Note_on_c, 0, 53, 55
3, 645504, Note_off_c, 0, 53, 55
3, 645504, Note_on_c, 0, 58, 55
3, 645632, Note_off_c, 0, 58, 55
3, 645632, Note_on_c, 0, 53, 55
3, 645760, Note_off_c, 0, 53, 55
3, 645760, Note_on_c, 0, 58, 55
3, 645888, Note_off_c, 0, 58, 55
3, 645888, Note_on_c, 0, 56, 55
3, 646016, Note_off_c, 0, 56, 55
3, 646016, Note_on_c, 0, 58, 55
3, 646144, Note_off_c, 0, 58, 55
3, 646144, Note_on_c, 0, 51, 55
3, 646272, Note_off_c, 0, 51, 55
3, 646272, Note_on_c, 0, 55, 55
3, 646400, Note_off_c, 0, 55, 55
3, 646400, Note_on_c, 0, 51, 55
3, 646528, Note_off_c, 0, 51, 55
3, 646528, Note_on_c, 0, 55, 55
3, 646656, Note_off_c, 0, 55, 55
3, 646656, Note_on_c, 0, 51, 55
3, 646784, Note_off_c, 0, 51, 55
3, 646784, Note_on_c, 0, 58, 55
3, 646912, Note_off_c, 0, 58, 55
3, 646912, Note_on_c, 0, 56, 55
3, 647040, Note_off_c, 0, 56, 55
3, 647040, Note_on_c, 0, 55, 55
3, 647168, Note_off_c, 0, 55, 55
3, 647168, Note_on_c, 0, 55, 55
3, 647168, Note_on_c, 0, 67, 55
3, 647296, Note_off_c, 0, 55, 55
3, 647296, Note_off_c, 0, 67, 55
3, 647296, Note_on_c, 0, 58, 55
3, 647296, Note_on_c, 0, 65, 55
3, 647424, Note_off_c, 0, 58, 55
3, 647424, Note_off_c, 0, 65, 55
3, 647424, Note_on_c, 0, 55, 55
3, 647424, Note_on_c, 0, 63, 55
3, 647552, Note_off_c, 0, 55, 55
3, 647552, Note_off_c, 0, 63, 55
3, 647552, Note_on_c, 0, 58, 55
3, 647680, Note_off_c, 0, 58, 55
3, 647680, Note_on_c, 0, 55, 55
3, 647680, Note_on_c, 0, 65, 55
3, 647808, Note_off_c, 0, 55, 55
3, 647808, Note_off_c, 0, 65, 55
3, 647808, Note_on_c, 0, 58, 55
3, 647808, Note_on_c, 0, 67, 55
3, 647936, Note_off_c, 0, 58, 55
3, 647936, Note_off_c, 0, 67, 55
3, 647936, Note_on_c, 0, 55, 55
3, 648064, Note_off_c, 0, 55, 55
3, 648064, Note_on_c, 0, 58, 55
3, 648192, Note_off_c, 0, 58, 55
3, 648192, Note_on_c, 0, 56, 55
3, 648320, Note_off_c, 0, 56, 55
3, 648320, Note_on_c, 0, 60, 55
3, 648448, Note_off_c, 0, 60, 55
3, 648448, Note_on_c, 0, 56, 55
3, 648576, Note_off_c, 0, 56, 55
3, 648576, Note_on_c, 0, 60, 55
3, 648704, Note_off_c, 0, 60, 55
3, 648704, Note_on_c, 0, 56, 55
3, 648832, Note_off_c, 0, 56, 55
3, 648832, Note_on_c, 0, 60, 55
3, 648960, Note_off_c, 0, 60, 55
3, 648960, Note_on_c, 0, 56, 55
3, 649088, Note_off_c, 0, 56, 55
3, 649088, Note_on_c, 0, 60, 55
3, 649216, Note_off_c, 0, 60, 55
3, 649216, Note_on_c, 0, 53, 55
3, 649344, Note_off_c, 0, 53, 55
3, 649344, Note_on_c, 0, 56, 55
3, 649472, Note_off_c, 0, 56, 55
3, 649472, Note_on_c, 0, 53, 55
3, 649600, Note_off_c, 0, 53, 55
3, 649600, Note_on_c, 0, 56, 55
3, 649728, Note_off_c, 0, 56, 55
3, 649728, Note_on_c, 0, 53, 55
3, 649728, Note_on_c, 0, 62, 55
3, 649856, Note_off_c, 0, 53, 55
3, 649856, Note_off_c, 0, 62, 55
3, 649856, Note_on_c, 0, 56, 55
3, 649856, Note_on_c, 0, 63, 55
3, 649984, Note_off_c, 0, 56, 55
3, 649984, Note_off_c, 0, 63, 55
3, 649984, Note_on_c, 0, 53, 55
3, 650112, Note_off_c, 0, 53, 55
3, 650112, Note_on_c, 0, 56, 55
3, 650240, Note_off_c, 0, 56, 55
3, 650240, Note_on_c, 0, 55, 55
3, 650368, Note_off_c, 0, 55, 55
3, 650368, Note_on_c, 0, 58, 55
3, 650496, Note_off_c, 0, 58, 55
3, 650496, Note_on_c, 0, 55, 55
3, 650624, Note_off_c, 0, 55, 55
3, 650624, Note_on_c, 0, 58, 55
3, 650752, Note_off_c, 0, 58, 55
3, 650752, Note_on_c, 0, 55, 55
3, 650880, Note_off_c, 0, 55, 55
3, 650880, Note_on_c, 0, 58, 55
3, 651008, Note_off_c, 0, 58, 55
3, 651008, Note_on_c, 0, 55, 55
3, 651136, Note_off_c, 0, 55, 55
3, 651136, Note_on_c, 0, 58, 55
3, 651264, Note_off_c, 0, 58, 55
3, 651264, Note_on_c, 0, 55, 55
3, 651392, Note_off_c, 0, 55, 55
3, 651392, Note_on_c, 0, 58, 55
3, 651520, Note_off_c, 0, 58, 55
3, 651520, Note_on_c, 0, 55, 55
3, 651648, Note_off_c, 0, 55, 55
3, 651648, Note_on_c, 0, 58, 55
3, 651776, Note_off_c, 0, 58, 55
3, 651776, Note_on_c, 0, 55, 55
3, 651904, Note_off_c, 0, 55, 55
3, 651904, Note_on_c, 0, 58, 55
3, 652032, Note_off_c, 0, 58, 55
3, 652032, Note_on_c, 0, 55, 55
3, 652160, Note_off_c, 0, 55, 55
3, 652160, Note_on_c, 0, 58, 55
3, 652288, Note_off_c, 0, 58, 55
3, 652288, Note_on_c, 0, 56, 55
3, 652416, Note_off_c, 0, 56, 55
3, 652416, Note_on_c, 0, 60, 55
3, 652544, Note_off_c, 0, 60, 55
3, 652544, Note_on_c, 0, 56, 55
3, 652672, Note_off_c, 0, 56, 55
3, 652672, Note_on_c, 0, 60, 55
3, 652800, Note_off_c, 0, 60, 55
3, 652800, Note_on_c, 0, 56, 55
3, 652928, Note_off_c, 0, 56, 55
3, 652928, Note_on_c, 0, 60, 55
3, 653056, Note_off_c, 0, 60, 55
3, 653056, Note_on_c, 0, 56, 55
3, 653184, Note_off_c, 0, 56, 55
3, 653184, Note_on_c, 0, 60, 55
3, 653312, Note_off_c, 0, 60, 55
3, 653312, Note_on_c, 0, 53, 55
3, 653440, Note_off_c, 0, 53, 55
3, 653440, Note_on_c, 0, 56, 55
3, 653568, Note_off_c, 0, 56, 55
3, 653568, Note_on_c, 0, 53, 55
3, 653696, Note_off_c, 0, 53, 55
3, 653696, Note_on_c, 0, 56, 55
3, 653824, Note_off_c, 0, 56, 55
3, 653824, Note_on_c, 0, 53, 55
3, 653952, Note_off_c, 0, 53, 55
3, 653952, Note_on_c, 0, 56, 55
3, 654080, Note_off_c, 0, 56, 55
3, 654080, Note_on_c, 0, 53, 55
3, 654208, Note_off_c, 0, 53, 55
3, 654208, Note_on_c, 0, 56, 55
3, 654336, Note_off_c, 0, 56, 55
3, 654336, Note_on_c, 0, 55, 55
3, 654464, Note_off_c, 0, 55, 55
3, 654464, Note_on_c, 0, 58, 55
3, 654592, Note_off_c, 0, 58, 55
3, 654592, Note_on_c, 0, 55, 55
3, 654720, Note_off_c, 0, 55, 55
3, 654720, Note_on_c, 0, 58, 55
3, 654848, Note_off_c, 0, 58, 55
3, 654848, Note_on_c, 0, 55, 55
3, 654976, Note_off_c, 0, 55, 55
3, 654976, Note_on_c, 0, 58, 55
3, 655104, Note_off_c, 0, 58, 55
3, 655104, Note_on_c, 0, 55, 55
3, 655232, Note_off_c, 0, 55, 55
3, 655232, Note_on_c, 0, 58, 55
3, 655360, Note_off_c, 0, 58, 55
3, 655360, Note_on_c, 0, 51, 55
3, 655488, Note_off_c, 0, 51, 55
3, 655488, Note_on_c, 0, 55, 55
3, 655616, Note_off_c, 0, 55, 55
3, 655616, Note_on_c, 0, 51, 55
3, 655744, Note_off_c, 0, 51, 55
3, 655744, Note_on_c, 0, 55, 55
3, 655872, Note_off_c, 0, 55, 55
3, 655872, Note_on_c, 0, 51, 55
3, 656000, Note_off_c, 0, 51, 55
3, 656000, Note_on_c, 0, 55, 55
3, 656128, Note_off_c, 0, 55, 55
3, 656128, Note_on_c, 0, 56, 55
3, 656256, Note_off_c, 0, 56, 55
3, 656256, Note_on_c, 0, 55, 55
3, 656384, Note_off_c, 0, 55, 55
3, 656384, Note_on_c, 0, 53, 55
3, 656512, Note_off_c, 0, 53, 55
3, 656512, Note_on_c, 0, 58, 55
3, 656640, Note_off_c, 0, 58, 55
3, 656640, Note_on_c, 0, 53, 55
3, 656768, Note_off_c, 0, 53, 55
3, 656768, Note_on_c, 0, 58, 55
3, 656896, Note_off_c, 0, 58, 55
3, 656896, Note_on_c, 0, 53, 55
3, 657024, Note_off_c, 0, 53, 55
3, 657024, Note_on_c, 0, 58, 55
3, 657152, Note_off_c, 0, 58, 55
3, 657152, Note_on_c, 0, 53, 55
3, 657280, Note_off_c, 0, 53, 55
3, 657280, Note_on_c, 0, 58, 55
3, 657408, Note_off_c, 0, 58, 55
3, 657408, Note_on_c, 0, 53, 55
3, 657536, Note_off_c, 0, 53, 55
3, 657536, Note_on_c, 0, 58, 55
3, 657664, Note_off_c, 0, 58, 55
3, 657664, Note_on_c, 0, 53, 55
3, 657792, Note_off_c, 0, 53, 55
3, 657792, Note_on_c, 0, 58, 55
3, 657920, Note_off_c, 0, 58, 55
3, 657920, Note_on_c, 0, 53, 55
3, 658048, Note_off_c, 0, 53, 55
3, 658048, Note_on_c, 0, 58, 55
3, 658176, Note_off_c, 0, 58, 55
3, 658176, Note_on_c, 0, 56, 55
3, 658304, Note_off_c, 0, 56, 55
3, 658304, Note_on_c, 0, 58, 55
3, 658432, Note_off_c, 0, 58, 55
3, 658432, Note_on_c, 0, 55, 55
3, 658560, Note_off_c, 0, 55, 55
3, 658560, Note_on_c, 0, 58, 55
3, 658688, Note_off_c, 0, 58, 55
3, 658688, Note_on_c, 0, 55, 55
3, 658816, Note_off_c, 0, 55, 55
3, 658816, Note_on_c, 0, 58, 55
3, 658944, Note_off_c, 0, 58, 55
3, 658944, Note_on_c, 0, 55, 55
3, 659072, Note_off_c, 0, 55, 55
3, 659072, Note_on_c, 0, 58, 55
3, 659200, Note_off_c, 0, 58, 55
3, 659200, Note_on_c, 0, 56, 55
3, 659328, Note_off_c, 0, 56, 55
3, 659328, Note_on_c, 0, 58, 55
3, 659456, Note_off_c, 0, 58, 55
3, 659456, Note_on_c, 0, 51, 55
3, 659584, Note_off_c, 0, 51, 55
3, 659584, Note_on_c, 0, 55, 55
3, 659712, Note_off_c, 0, 55, 55
3, 659712, Note_on_c, 0, 51, 55
3, 659840, Note_off_c, 0, 51, 55
3, 659840, Note_on_c, 0, 55, 55
3, 659968, Note_off_c, 0, 55, 55
3, 659968, Note_on_c, 0, 51, 55
3, 660096, Note_off_c, 0, 51, 55
3, 660096, Note_on_c, 0, 55, 55
3, 660224, Note_off_c, 0, 55, 55
3, 660224, Note_on_c, 0, 56, 55
3, 660352, Note_off_c, 0, 56, 55
3, 660352, Note_on_c, 0, 55, 55
3, 660480, Note_off_c, 0, 55, 55
3, 660480, Note_on_c, 0, 53, 55
3, 660608, Note_off_c, 0, 53, 55
3, 660608, Note_on_c, 0, 58, 55
3, 660736, Note_off_c, 0, 58, 55
3, 660736, Note_on_c, 0, 53, 55
3, 660864, Note_off_c, 0, 53, 55
3, 660864, Note_on_c, 0, 58, 55
3, 660992, Note_off_c, 0, 58, 55
3, 660992, Note_on_c, 0, 53, 55
3, 661120, Note_off_c, 0, 53, 55
3, 661120, Note_on_c, 0, 58, 55
3, 661248, Note_off_c, 0, 58, 55
3, 661248, Note_on_c, 0, 53, 55
3, 661376, Note_off_c, 0, 53, 55
3, 661376, Note_on_c, 0, 58, 55
3, 661504, Note_off_c, 0, 58, 55
3, 661504, Note_on_c, 0, 53, 55
3, 661632, Note_off_c, 0, 53, 55
3, 661632, Note_on_c, 0, 58, 55
3, 661760, Note_off_c, 0, 58, 55
3, 661760, Note_on_c, 0, 53, 55
3, 661888, Note_off_c, 0, 53, 55
3, 661888, Note_on_c, 0, 58, 55
3, 662016, Note_off_c, 0, 58, 55
3, 662016, Note_on_c, 0, 53, 55
3, 662144, Note_off_c, 0, 53, 55
3, 662144, Note_on_c, 0, 58, 55
3, 662272, Note_off_c, 0, 58, 55
3, 662272, Note_on_c, 0, 56, 55
3, 662400, Note_off_c, 0, 56, 55
3, 662400, Note_on_c, 0, 58, 55
3, 662528, Note_off_c, 0, 58, 55
3, 662528, Note_on_c, 0, 51, 55
3, 662656, Note_off_c, 0, 51, 55
3, 662656, Note_on_c, 0, 55, 55
3, 662784, Note_off_c, 0, 55, 55
3, 662784, Note_on_c, 0, 51, 55
3, 662912, Note_off_c, 0, 51, 55
3, 662912, Note_on_c, 0, 55, 55
3, 663040, Note_off_c, 0, 55, 55
3, 663040, Note_on_c, 0, 51, 55
3, 663168, Note_off_c, 0, 51, 55
3, 663168, Note_on_c, 0, 58, 55
3, 663296, Note_off_c, 0, 58, 55
3, 663296, Note_on_c, 0, 56, 55
3, 663424, Note_off_c, 0, 56, 55
3, 663424, Note_on_c, 0, 55, 55
3, 663552, Note_off_c, 0, 55, 55
3, 663552, Note_on_c, 0, 55, 55
3, 663552, Note_on_c, 0, 67, 55
3, 663680, Note_off_c, 0, 55, 55
3, 663680, Note_off_c, 0, 67, 55
3, 663680, Note_on_c, 0, 58, 55
3, 663680, Note_on_c, 0, 65, 55
3, 663808, Note_off_c, 0, 58, 55
3, 663808, Note_off_c, 0, 65, 55
3, 663808, Note_on_c, 0, 55, 55
3, 663808, Note_on_c, 0, 63, 55
3, 663936, Note_off_c, 0, 55, 55
3, 663936, Note_off_c, 0, 63, 55
3, 663936, Note_on_c, 0, 58, 55
3, 664064, Note_off_c, 0, 58, 55
3, 664064, Note_on_c, 0, 55, 55
3, 664064, Note_on_c, 0, 65, 55
3, 664192, Note_off_c, 0, 55, 55
3, 664192, Note_off_c, 0, 65, 55
3, 664192, Note_on_c, 0, 58, 55
3, 664192, Note_on_c, 0, 67, 55
3, 664320, Note_off_c, 0, 58, 55
3, 664320, Note_off_c, 0, 67, 55
3, 664320, Note_on_c, 0, 55, 55
3, 664448, Note_off_c, 0, 55, 55
3, 664448, Note_on_c, 0, 58, 55
3, 664576, Note_off_c, 0, 58, 55
3, 664576, Note_on_c, 0, 56, 55
3, 664704, Note_off_c, 0, 56, 55
3, 664704, Note_on_c, 0, 60, 55
3, 664832, Note_off_c, 0, 60, 55
3, 664832, Note_on_c, 0, 56, 55
3, 664960, Note_off_c, 0, 56, 55
3, 664960, Note_on_c, 0, 60, 55
3, 665088, Note_off_c, 0, 60, 55
3, 665088, Note_on_c, 0, 56, 55
3, 665216, Note_off_c, 0, 56, 55
3, 665216, Note_on_c, 0, 60, 55
3, 665344, Note_off_c, 0, 60, 55
3, 665344, Note_on_c, 0, 56, 55
3, 665472, Note_off_c, 0, 56, 55
3, 665472, Note_on_c, 0, 60, 55
3, 665600, Note_off_c, 0, 60, 55
3, 665600, Note_on_c, 0, 53, 55
3, 665728, Note_off_c, 0, 53, 55
3, 665728, Note_on_c, 0, 56, 55
3, 665856, Note_off_c, 0, 56, 55
3, 665856, Note_on_c, 0, 53, 55
3, 665984, Note_off_c, 0, 53, 55
3, 665984, Note_on_c, 0, 56, 55
3, 666112, Note_off_c, 0, 56, 55
3, 666112, Note_on_c, 0, 53, 55
3, 666112, Note_on_c, 0, 62, 55
3, 666240, Note_off_c, 0, 53, 55
3, 666240, Note_off_c, 0, 62, 55
3, 666240, Note_on_c, 0, 56, 55
3, 666240, Note_on_c, 0, 63, 55
3, 666368, Note_off_c, 0, 56, 55
3, 666368, Note_off_c, 0, 63, 55
3, 666368, Note_on_c, 0, 53, 55
3, 666496, Note_off_c, 0, 53, 55
3, 666496, Note_on_c, 0, 56, 55
3, 666624, Note_off_c, 0, 56, 55
3, 666624, Note_on_c, 0, 55, 55
3, 666752, Note_off_c, 0, 55, 55
3, 666752, Note_on_c, 0, 58, 55
3, 666880, Note_off_c, 0, 58, 55
3, 666880, Note_on_c, 0, 55, 55
3, 667008, Note_off_c, 0, 55, 55
3, 667008, Note_on_c, 0, 58, 55
3, 667136, Note_off_c, 0, 58, 55
3, 667136, Note_on_c, 0, 55, 55
3, 667264, Note_off_c, 0, 55, 55
3, 667264, Note_on_c, 0, 58, 55
3, 667392, Note_off_c, 0, 58, 55
3, 667392, Note_on_c, 0, 55, 55
3, 667520, Note_off_c, 0, 55, 55
3, 667520, Note_on_c, 0, 58, 55
3, 667648, Note_off_c, 0, 58, 55
3, 667648, Note_on_c, 0, 55, 55
3, 667776, Note_off_c, 0, 55, 55
3, 667776, Note_on_c, 0, 58, 55
3, 667904, Note_off_c, 0, 58, 55
3, 667904, Note_on_c, 0, 55, 55
3, 668032, Note_off_c, 0, 55, 55
3, 668032, Note_on_c, 0, 58, 55
3, 668160, Note_off_c, 0, 58, 55
3, 668160, Note_on_c, 0, 55, 55
3, 668288, Note_off_c, 0, 55, 55
3, 668288, Note_on_c, 0, 58, 55
3, 668416, Note_off_c, 0, 58, 55
3, 668416, Note_on_c, 0, 55, 55
3, 668544, Note_off_c, 0, 55, 55
3, 668544, Note_on_c, 0, 58, 55
3, 668672, Note_off_c, 0, 58, 55
3, 668672, Note_on_c, 0, 56, 55
3, 668800, Note_off_c, 0, 56, 55
3, 668800, Note_on_c, 0, 60, 55
3, 668928, Note_off_c, 0, 60, 55
3, 668928, Note_on_c, 0, 56, 55
3, 669056, Note_off_c, 0, 56, 55
3, 669056, Note_on_c, 0, 60, 55
3, 669184, Note_off_c, 0, 60, 55
3, 669184, Note_on_c, 0, 56, 55
3, 669312, Note_off_c, 0, 56, 55
3, 669312, Note_on_c, 0, 60, 55
3, 669440, Note_off_c, 0, 60, 55
3, 669440, Note_on_c, 0, 56, 55
3, 669568, Note_off_c, 0, 56, 55
3, 669568, Note_on_c, 0, 60, 55
3, 669696, Note_off_c, 0, 60, 55
3, 669696, Note_on_c, 0, 53, 55
3, 669824, Note_off_c, 0, 53, 55
3, 669824, Note_on_c, 0, 56, 55
3, 669952, Note_off_c, 0, 56, 55
3, 669952, Note_on_c, 0, 53, 55
3, 670080, Note_off_c, 0, 53, 55
3, 670080, Note_on_c, 0, 56, 55
3, 670208, Note_off_c, 0, 56, 55
3, 670208, Note_on_c, 0, 53, 55
3, 670336, Note_off_c, 0, 53, 55
3, 670336, Note_on_c, 0, 56, 55
3, 670464, Note_off_c, 0, 56, 55
3, 670464, Note_on_c, 0, 53, 55
3, 670592, Note_off_c, 0, 53, 55
3, 670592, Note_on_c, 0, 56, 55
3, 670720, Note_off_c, 0, 56, 55
3, 670720, Note_on_c, 0, 55, 55
3, 670848, Note_off_c, 0, 55, 55
3, 670848, Note_on_c, 0, 58, 55
3, 670976, Note_off_c, 0, 58, 55
3, 670976, Note_on_c, 0, 55, 55
3, 671104, Note_off_c, 0, 55, 55
3, 671104, Note_on_c, 0, 58, 55
3, 671232, Note_off_c, 0, 58, 55
3, 671232, Note_on_c, 0, 55, 55
3, 671360, Note_off_c, 0, 55, 55
3, 671360, Note_on_c, 0, 58, 55
3, 671488, Note_off_c, 0, 58, 55
3, 671488, Note_on_c, 0, 55, 55
3, 671616, Note_off_c, 0, 55, 55
3, 671616, Note_on_c, 0, 58, 55
3, 671744, Note_off_c, 0, 58, 55
3, 671744, Note_on_c, 0, 51, 55
3, 671872, Note_off_c, 0, 51, 55
3, 671872, Note_on_c, 0, 55, 55
3, 672000, Note_off_c, 0, 55, 55
3, 672000, Note_on_c, 0, 51, 55
3, 672128, Note_off_c, 0, 51, 55
3, 672128, Note_on_c, 0, 55, 55
3, 672256, Note_off_c, 0, 55, 55
3, 672256, Note_on_c, 0, 51, 55
3, 672384, Note_off_c, 0, 51, 55
3, 672384, Note_on_c, 0, 55, 55
3, 672512, Note_off_c, 0, 55, 55
3, 672512, Note_on_c, 0, 56, 55
3, 672640, Note_off_c, 0, 56, 55
3, 672640, Note_on_c, 0, 55, 55
3, 672768, Note_off_c, 0, 55, 55
3, 672768, Note_on_c, 0, 53, 55
3, 672896, Note_off_c, 0, 53, 55
3, 672896, Note_on_c, 0, 58, 55
3, 673024, Note_off_c, 0, 58, 55
3, 673024, Note_on_c, 0, 53, 55
3, 673152, Note_off_c, 0, 53, 55
3, 673152, Note_on_c, 0, 58, 55
3, 673280, Note_off_c, 0, 58, 55
3, 673280, Note_on_c, 0, 53, 55
3, 673408, Note_off_c, 0, 53, 55
3, 673408, Note_on_c, 0, 58, 55
3, 673536, Note_off_c, 0, 58, 55
3, 673536, Note_on_c, 0, 53, 55
3, 673664, Note_off_c, 0, 53, 55
3, 673664, Note_on_c, 0, 58, 55
3, 673792, Note_off_c, 0, 58, 55
3, 673792, Note_on_c, 0, 53, 55
3, 673920, Note_off_c, 0, 53, 55
3, 673920, Note_on_c, 0, 58, 55
3, 674048, Note_off_c, 0, 58, 55
3, 674048, Note_on_c, 0, 53, 55
3, 674176, Note_off_c, 0, 53, 55
3, 674176, Note_on_c, 0, 58, 55
3, 674304, Note_off_c, 0, 58, 55
3, 674304, Note_on_c, 0, 53, 55
3, 674432, Note_off_c, 0, 53, 55
3, 674432, Note_on_c, 0, 58, 55
3, 674560, Note_off_c, 0, 58, 55
3, 674560, Note_on_c, 0, 56, 55
3, 674688, Note_off_c, 0, 56, 55
3, 674688, Note_on_c, 0, 58, 55
3, 674816, Note_off_c, 0, 58, 55
3, 674816, Note_on_c, 0, 55, 55
3, 674944, Note_off_c, 0, 55, 55
3, 674944, Note_on_c, 0, 58, 55
3, 675072, Note_off_c, 0, 58, 55
3, 675072, Note_on_c, 0, 55, 55
3, 675200, Note_off_c, 0, 55, 55
3, 675200, Note_on_c, 0, 58, 55
3, 675328, Note_off_c, 0, 58, 55
3, 675328, Note_on_c, 0, 55, 55
3, 675456, Note_off_c, 0, 55, 55
3, 675456, Note_on_c, 0, 58, 55
3, 675584, Note_off_c, 0, 58, 55
3, 675584, Note_on_c, 0, 56, 55
3, 675712, Note_off_c, 0, 56, 55
3, 675712, Note_on_c, 0, 58, 55
3, 675840, Note_off_c, 0, 58, 55
3, 675840, Note_on_c, 0, 51, 55
3, 675968, Note_off_c, 0, 51, 55
3, 675968, Note_on_c, 0, 55, 55
3, 676096, Note_off_c, 0, 55, 55
3, 676096, Note_on_c, 0, 51, 55
3, 676224, Note_off_c, 0, 51, 55
3, 676224, Note_on_c, 0, 55, 55
3, 676352, Note_off_c, 0, 55, 55
3, 676352, Note_on_c, 0, 51, 55
3, 676480, Note_off_c, 0, 51, 55
3, 676480, Note_on_c, 0, 55, 55
3, 676608, Note_off_c, 0, 55, 55
3, 676608, Note_on_c, 0, 56, 55
3, 676736, Note_off_c, 0, 56, 55
3, 676736, Note_on_c, 0, 55, 55
3, 676864, Note_off_c, 0, 55, 55
3, 676864, Note_on_c, 0, 53, 55
3, 676992, Note_off_c, 0, 53, 55
3, 676992, Note_on_c, 0, 58, 55
3, 677120, Note_off_c, 0, 58, 55
3, 677120, Note_on_c, 0, 53, 55
3, 677248, Note_off_c, 0, 53, 55
3, 677248, Note_on_c, 0, 58, 55
3, 677376, Note_off_c, 0, 58, 55
3, 677376, Note_on_c, 0, 53, 55
3, 677504, Note_off_c, 0, 53, 55
3, 677504, Note_on_c, 0, 58, 55
3, 677632, Note_off_c, 0, 58, 55
3, 677632, Note_on_c, 0, 53, 55
3, 677760, Note_off_c, 0, 53, 55
3, 677760, Note_on_c, 0, 58, 55
3, 677888, Note_off_c, 0, 58, 55
3, 677888, Note_on_c, 0, 53, 55
3, 678016, Note_off_c, 0, 53, 55
3, 678016, Note_on_c, 0, 58, 55
3, 678144, Note_off_c, 0, 58, 55
3, 678144, Note_on_c, 0, 53, 55
3, 678272, Note_off_c, 0, 53, 55
3, 678272, Note_on_c, 0, 58, 55
3, 678400, Note_off_c, 0, 58, 55
3, 678400, Note_on_c, 0, 53, 55
3, 678528, Note_off_c, 0, 53, 55
3, 678528, Note_on_c, 0, 58, 55
3, 678656, Note_off_c, 0, 58, 55
3, 678656, Note_on_c, 0, 56, 55
3, 678784, Note_off_c, 0, 56, 55
3, 678784, Note_on_c, 0, 58, 55
3, 678912, Note_off_c, 0, 58, 55
3, 678912, Note_on_c, 0, 51, 55
3, 679040, Note_off_c, 0, 51, 55
3, 679040, Note_on_c, 0, 55, 55
3, 679168, Note_off_c, 0, 55, 55
3, 679168, Note_on_c, 0, 51, 55
3, 679296, Note_off_c, 0, 51, 55
3, 679296, Note_on_c, 0, 55, 55
3, 679424, Note_off_c, 0, 55, 55
3, 679424, Note_on_c, 0, 51, 55
3, 679552, Note_off_c, 0, 51, 55
3, 679552, Note_on_c, 0, 58, 55
3, 679680, Note_off_c, 0, 58, 55
3, 679680, Note_on_c, 0, 56, 55
3, 679808, Note_off_c, 0, 56, 55
3, 679808, Note_on_c, 0, 55, 55
3, 679936, Note_off_c, 0, 55, 55
3, 679936, Note_on_c, 0, 55, 55
3, 679936, Note_on_c, 0, 67, 55
3, 680064, Note_off_c, 0, 55, 55
3, 680064, Note_off_c, 0, 67, 55
3, 680064, Note_on_c, 0, 58, 55
3, 680064, Note_on_c, 0, 65, 55
3, 680192, Note_off_c, 0, 58, 55
3, 680192, Note_off_c, 0, 65, 55
3, 680192, Note_on_c, 0, 55, 55
3, 680192, Note_on_c, 0, 63, 55
3, 680320, Note_off_c, 0, 55, 55
3, 680320, Note_off_c, 0, 63, 55
3, 680320, Note_on_c, 0, 58, 55
3, 680448, Note_off_c, 0, 58, 55
3, 680448, Note_on_c, 0, 55, 55
3, 680448, Note_on_c, 0, 65, 55
3, 680576, Note_off_c, 0, 55, 55
3, 680576, Note_off_c, 0, 65, 55
3, 680576, Note_on_c, 0, 58, 55
3, 680576, Note_on_c, 0, 67, 55
3, 680704, Note_off_c, 0, 58, 55
3, 680704, Note_off_c, 0, 67, 55
3, 680704, Note_on_c, 0, 55, 55
3, 680832, Note_off_c, 0, 55, 55
3, 680832, Note_on_c, 0, 58, 55
3, 680960, Note_off_c, 0, 58, 55
3, 680960, Note_on_c, 0, 56, 55
3, 681088, Note_off_c, 0, 56, 55
3, 681088, Note_on_c, 0, 60, 55
3, 681216, Note_off_c, 0, 60, 55
3, 681216, Note_on_c, 0, 56, 55
3, 681344, Note_off_c, 0, 56, 55
3, 681344, Note_on_c, 0, 60, 55
3, 681472, Note_off_c, 0, 60, 55
3, 681472, Note_on_c, 0, 56, 55
3, 681600, Note_off_c, 0, 56, 55
3, 681600, Note_on_c, 0, 60, 55
3, 681728, Note_off_c, 0, 60, 55
3, 681728, Note_on_c, 0, 56, 55
3, 681856, Note_off_c, 0, 56, 55
3, 681856, Note_on_c, 0, 60, 55
3, 681984, Note_off_c, 0, 60, 55
3, 681984, Note_on_c, 0, 53, 55
3, 682112, Note_off_c, 0, 53, 55
3, 682112, Note_on_c, 0, 56, 55
3, 682240, Note_off_c, 0, 56, 55
3, 682240, Note_on_c, 0, 53, 55
3, 682368, Note_off_c, 0, 53, 55
3, 682368, Note_on_c, 0, 56, 55
3, 682496, Note_off_c, 0, 56, 55
3, 682496, Note_on_c, 0, 53, 55
3, 682496, Note_on_c, 0, 62, 55
3, 682624, Note_off_c, 0, 53, 55
3, 682624, Note_off_c, 0, 62, 55
3, 682624, Note_on_c, 0, 56, 55
3, 682624, Note_on_c, 0, 63, 55
3, 682752, Note_off_c, 0, 56, 55
3, 682752, Note_off_c, 0, 63, 55
3, 682752, Note_on_c, 0, 53, 55
3, 682880, Note_off_c, 0, 53, 55
3, 682880, Note_on_c, 0, 56, 55
3, 683008, Note_off_c, 0, 56, 55
3, 683008, Note_on_c, 0, 55, 55
3, 683136, Note_off_c, 0, 55, 55
3, 683136, Note_on_c, 0, 58, 55
3, 683264, Note_off_c, 0, 58, 55
3, 683264, Note_on_c, 0, 55, 55
3, 683392, Note_off_c, 0, 55, 55
3, 683392, Note_on_c, 0, 58, 55
3, 683520, Note_off_c, 0, 58, 55
3, 683520, Note_on_c, 0, 55, 55
3, 683648, Note_off_c, 0, 55, 55
3, 683648, Note_on_c, 0, 58, 55
3, 683776, Note_off_c, 0, 58, 55
3, 683776, Note_on_c, 0, 55, 55
3, 683904, Note_off_c, 0, 55, 55
3, 683904, Note_on_c, 0, 58, 55
3, 684032, Note_off_c, 0, 58, 55
3, 684032, Note_on_c, 0, 55, 55
3, 684160, Note_off_c, 0, 55, 55
3, 684160, Note_on_c, 0, 58, 55
3, 684288, Note_off_c, 0, 58, 55
3, 684288, Note_on_c, 0, 55, 55
3, 684416, Note_off_c, 0, 55, 55
3, 684416, Note_on_c, 0, 58, 55
3, 684544, Note_off_c, 0, 58, 55
3, 684544, Note_on_c, 0, 55, 55
3, 684672, Note_off_c, 0, 55, 55
3, 684672, Note_on_c, 0, 58, 55
3, 684800, Note_off_c, 0, 58, 55
3, 684800, Note_on_c, 0, 55, 55
3, 684928, Note_off_c, 0, 55, 55
3, 684928, Note_on_c, 0, 58, 55
3, 685056, Note_off_c, 0, 58, 55
3, 685056, Note_on_c, 0, 56, 55
3, 685184, Note_off_c, 0, 56, 55
3, 685184, Note_on_c, 0, 60, 55
3, 685312, Note_off_c, 0, 60, 55
3, 685312, Note_on_c, 0, 56, 55
3, 685440, Note_off_c, 0, 56, 55
3, 685440, Note_on_c, 0, 60, 55
3, 685568, Note_off_c, 0, 60, 55
3, 685568, Note_on_c, 0, 56, 55
3, 685696, Note_off_c, 0, 56, 55
3, 685696, Note_on_c, 0, 60, 55
3, 685824, Note_off_c, 0, 60, 55
3, 685824, Note_on_c, 0, 56, 55
3, 685952, Note_off_c, 0, 56, 55
3, 685952, Note_on_c, 0, 60, 55
3, 686080, Note_off_c, 0, 60, 55
3, 686080, Note_on_c, 0, 53, 55
3, 686208, Note_off_c, 0, 53, 55
3, 686208, Note_on_c, 0, 56, 55
3, 686336, Note_off_c, 0, 56, 55
3, 686336, Note_on_c, 0, 53, 55
3, 686464, Note_off_c, 0, 53, 55
3, 686464, Note_on_c, 0, 56, 55
3, 686592, Note_off_c, 0, 56, 55
3, 686592, Note_on_c, 0, 53, 55
3, 686720, Note_off_c, 0, 53, 55
3, 686720, Note_on_c, 0, 56, 55
3, 686848, Note_off_c, 0, 56, 55
3, 686848, Note_on_c, 0, 53, 55
3, 686976, Note_off_c, 0, 53, 55
3, 686976, Note_on_c, 0, 56, 55
3, 687104, Note_off_c, 0, 56, 55
3, 687104, Note_on_c, 0, 55, 55
3, 687232, Note_off_c, 0, 55, 55
3, 687232, Note_on_c, 0, 58, 55
3, 687360, Note_off_c, 0, 58, 55
3, 687360, Note_on_c, 0, 55, 55
3, 687488, Note_off_c, 0, 55, 55
3, 687488, Note_on_c, 0, 58, 55
3, 687616, Note_off_c, 0, 58, 55
3, 687616, Note_on_c, 0, 55, 55
3, 687744, Note_off_c, 0, 55, 55
3, 687744, Note_on_c, 0, 58, 55
3, 687872, Note_off_c, 0, 58, 55
3, 687872, Note_on_c, 0, 55, 55
3, 688000, Note_off_c, 0, 55, 55
3, 688000, Note_on_c, 0, 58, 55
3, 688128, Note_off_c, 0, 58, 55
3, 688128, Note_on_c, 0, 51, 55
3, 688256, Note_off_c, 0, 51, 55
3, 688256, Note_on_c, 0, 55, 55
3, 688384, Note_off_c, 0, 55, 55
3, 688384, Note_on_c, 0, 51, 55
3, 688512, Note_off_c, 0, 51, 55
3, 688512, Note_on_c, 0, 55, 55
3, 688640, Note_off_c, 0, 55, 55
3, 688640, Note_on_c, 0, 51, 55
3, 688768, Note_off_c, 0, 51, 55
3, 688768, Note_on_c, 0, 55, 55
3, 688896, Note_off_c, 0, 55, 55
3, 688896, Note_on_c, 0, 56, 55
3, 689024, Note_off_c, 0, 56, 55
3, 689024, Note_on_c, 0, 55, 55
3, 689152, Note_off_c, 0, 55, 55
3, 689152, Note_on_c, 0, 53, 55
3, 689280, Note_off_c, 0, 53, 55
3, 689280, Note_on_c, 0, 58, 55
3, 689408, Note_off_c, 0, 58, 55
3, 689408, Note_on_c, 0, 53, 55
3, 689536, Note_off_c, 0, 53, 55
3, 689536, Note_on_c, 0, 58, 55
3, 689664, Note_off_c, 0, 58, 55
3, 689664, Note_on_c, 0, 53, 55
3, 689792, Note_off_c, 0, 53, 55
3, 689792, Note_on_c, 0, 58, 55
3, 689920, Note_off_c, 0, 58, 55
3, 689920, Note_on_c, 0, 53, 55
3, 690048, Note_off_c, 0, 53, 55
3, 690048, Note_on_c, 0, 58, 55
3, 690176, Note_off_c, 0, 58, 55
3, 690176, Note_on_c, 0, 53, 55
3, 690304, Note_off_c, 0, 53, 55
3, 690304, Note_on_c, 0, 58, 55
3, 690432, Note_off_c, 0, 58, 55
3, 690432, Note_on_c, 0, 53, 55
3, 690560, Note_off_c, 0, 53, 55
3, 690560, Note_on_c, 0, 58, 55
3, 690688, Note_off_c, 0, 58, 55
3, 690688, Note_on_c, 0, 53, 55
3, 690816, Note_off_c, 0, 53, 55
3, 690816, Note_on_c, 0, 58, 55
3, 690944, Note_off_c, 0, 58, 55
3, 690944, Note_on_c, 0, 56, 55
3, 691072, Note_off_c, 0, 56, 55
3, 691072, Note_on_c, 0, 58, 55
3, 691200, Note_off_c, 0, 58, 55
3, 691200, Note_on_c, 0, 55, 55
3, 691328, Note_off_c, 0, 55, 55
3, 691328, Note_on_c, 0, 58, 55
3, 691456, Note_off_c, 0, 58, 55
3, 691456, Note_on_c, 0, 55, 55
3, 691584, Note_off_c, 0, 55, 55
3, 691584, Note_on_c, 0, 58, 55
3, 691712, Note_off_c, 0, 58, 55
3, 691712, Note_on_c, 0, 55, 55
3, 691840, Note_off_c, 0, 55, 55
3, 691840, Note_on_c, 0, 58, 55
3, 691968, Note_off_c, 0, 58, 55
3, 691968, Note_on_c, 0, 56, 55
3, 692096, Note_off_c, 0, 56, 55
3, 692096, Note_on_c, 0, 58, 55
3, 692224, Note_off_c, 0, 58, 55
3, 692224, Note_on_c, 0, 51, 55
3, 692352, Note_off_c, 0, 51, 55
3, 692352, Note_on_c, 0, 55, 55
3, 692480, Note_off_c, 0, 55, 55
3, 692480, Note_on_c, 0, 51, 55
3, 692608, Note_off_c, 0, 51, 55
3, 692608, Note_on_c, 0, 55, 55
3, 692736, Note_off_c, 0, 55, 55
3, 692736, Note_on_c, 0, 51, 55
3, 692864, Note_off_c, 0, 51, 55
3, 692864, Note_on_c, 0, 55, 55
3, 692992, Note_off_c, 0, 55, 55
3, 692992, Note_on_c, 0, 56, 55
3, 693120, Note_off_c, 0, 56, 55
3, 693120, Note_on_c, 0, 55, 55
3, 693248, Note_off_c, 0, 55, 55
3, 693248, Note_on_c, 0, 53, 55
3, 693376, Note_off_c, 0, 53, 55
3, 693376, Note_on_c, 0, 58, 55
3, 693504, Note_off_c, 0, 58, 55
3, 693504, Note_on_c, 0, 53, 55
3, 693632, Note_off_c, 0, 53, 55
3, 693632, Note_on_c, 0, 58, 55
3, 693760, Note_off_c, 0, 58, 55
3, 693760, Note_on_c, 0, 53, 55
3, 693888, Note_off_c, 0, 53, 55
3, 693888, Note_on_c, 0, 58, 55
3, 694016, Note_off_c, 0, 58, 55
3, 694016, Note_on_c, 0, 53, 55
3, 694144, Note_off_c, 0, 53, 55
3, 694144, Note_on_c, 0, 58, 55
3, 694272, Note_off_c, 0, 58, 55
3, 694272, Note_on_c, 0, 53, 55
3, 694400, Note_off_c, 0, 53, 55
3, 694400, Note_on_c, 0, 58, 55
3, 694528, Note_off_c, 0, 58, 55
3, 694528, Note_on_c, 0, 53, 55
3, 694656, Note_off_c, 0, 53, 55
3, 694656, Note_on_c, 0, 58, 55
3, 694784, Note_off_c, 0, 58, 55
3, 694784, Note_on_c, 0, 53, 55
3, 694912, Note_off_c, 0, 53, 55
3, 694912, Note_on_c, 0, 58, 55
3, 695040, Note_off_c, 0, 58, 55
3, 695040, Note_on_c, 0, 56, 55
3, 695168, Note_off_c, 0, 56, 55
3, 695168, Note_on_c, 0, 58, 55
3, 695296, Note_off_c, 0, 58, 55
3, 695296, Note_on_c, 0, 51, 55
3, 695424, Note_off_c, 0, 51, 55
3, 695424, Note_on_c, 0, 55, 55
3, 695552, Note_off_c, 0, 55, 55
3, 695552, Note_on_c, 0, 51, 55
3, 695680, Note_off_c, 0, 51, 55
3, 695680, Note_on_c, 0, 55, 55
3, 695808, Note_off_c, 0, 55, 55
3, 695808, Note_on_c, 0, 51, 55
3, 695936, Note_off_c, 0, 51, 55
3, 695936, Note_on_c, 0, 58, 55
3, 696064, Note_off_c, 0, 58, 55
3, 696064, Note_on_c, 0, 56, 55
3, 696192, Note_off_c, 0, 56, 55
3, 696192, Note_on_c, 0, 55, 55
3, 696320, Note_off_c, 0, 55, 55
3, 696320, Note_on_c, 0, 55, 55
3, 696320, Note_on_c, 0, 67, 55
3, 696448, Note_off_c, 0, 55, 55
3, 696448, Note_off_c, 0, 67, 55
3, 696448, Note_on_c, 0, 58, 55
3, 696448, Note_on_c, 0, 65, 55
3, 696576, Note_off_c, 0, 58, 55
3, 696576, Note_off_c, 0, 65, 55
3, 696576, Note_on_c, 0, 55, 55
3, 696576, Note_on_c, 0, 63, 55
3, 696704, Note_off_c, 0, 55, 55
3, 696704, Note_off_c, 0, 63, 55
3, 696704, Note_on_c, 0, 58, 55
3, 696832, Note_off_c, 0, 58, 55
3, 696832, Note_on_c, 0, 55, 55
3, 696832, Note_on_c, 0, 65, 55
3, 696960, Note_off_c, 0, 55, 55
3, 696960, Note_off_c, 0, 65, 55
3, 696960, Note_on_c, 0, 58, 55
3, 696960, Note_on_c, 0, 67, 55
3, 697088, Note_off_c, 0, 58, 55
3, 697088, Note_off_c, 0, 67, 55
3, 697088, Note_on_c, 0, 55, 55
3, 697216, Note_off_c, 0, 55, 55
3, 697216, Note_on_c, 0, 58, 55
3, 697344, Note_off_c, 0, 58, 55
3, 697344, Note_on_c, 0, 56, 55
3, 697472, Note_off_c, 0, 56, 55
3, 697472, Note_on_c, 0, 60, 55
3, 697600, Note_off_c, 0, 60, 55
3, 697600, Note_on_c, 0, 56, 55
3, 697728, Note_off_c, 0, 56, 55
3, 697728, Note_on_c, 0, 60, 55
3, 697856, Note_off_c, 0, 60, 55
3, 697856, Note_on_c, 0, 56, 55
3, 697984, Note_off_c, 0, 56, 55
3, 697984, Note_on_c, 0, 60, 55
3, 698112, Note_off_c, 0, 60, 55
3, 698112, Note_on_c, 0, 56, 55
3, 698240, Note_off_c, 0, 56, 55
3, 698240, Note_on_c, 0, 60, 55
3, 698368, Note_off_c, 0, 60, 55
3, 698368, Note_on_c, 0, 53, 55
3, 698496, Note_off_c, 0, 53, 55
3, 698496, Note_on_c, 0, 56, 55
3, 698624, Note_off_c, 0, 56, 55
3, 698624, Note_on_c, 0, 53, 55
3, 698752, Note_off_c, 0, 53, 55
3, 698752, Note_on_c, 0, 56, 55
3, 698880, Note_off_c, 0, 56, 55
3, 698880, Note_on_c, 0, 53, 55
3, 698880, Note_on_c, 0, 62, 55
3, 699008, Note_off_c, 0, 53, 55
3, 699008, Note_off_c, 0, 62, 55
3, 699008, Note_on_c, 0, 56, 55
3, 699008, Note_on_c, 0, 63, 55
3, 699136, Note_off_c, 0, 56, 55
3, 699136, Note_off_c, 0, 63, 55
3, 699136, Note_on_c, 0, 53, 55
3, 699264, Note_off_c, 0, 53, 55
3, 699264, Note_on_c, 0, 56, 55
3, 699392, Note_off_c, 0, 56, 55
3, 699392, Note_on_c, 0, 55, 55
3, 699520, Note_off_c, 0, 55, 55
3, 699520, Note_on_c, 0, 58, 55
3, 699648, Note_off_c, 0, 58, 55
3, 699648, Note_on_c, 0, 55, 55
3, 699776, Note_off_c, 0, 55, 55
3, 699776, Note_on_c, 0, 58, 55
3, 699904, Note_off_c, 0, 58, 55
3, 699904, Note_on_c, 0, 55, 55
3, 700032, Note_off_c, 0, 55, 55
3, 700032, Note_on_c, 0, 58, 55
3, 700160, Note_off_c, 0, 58, 55
3, 700160, Note_on_c, 0, 55, 55
3, 700288, Note_off_c, 0, 55, 55
3, 700288, Note_on_c, 0, 58, 55
3, 700416, Note_off_c, 0, 58, 55
3, 700416, Note_on_c, 0, 55, 55
3, 700544, Note_off_c, 0, 55, 55
3, 700544, Note_on_c, 0, 58, 55
3, 700672, Note_off_c, 0, 58, 55
3, 700672, Note_on_c, 0, 55, 55
3, 700800, Note_off_c, 0, 55, 55
3, 700800, Note_on_c, 0, 58, 55
3, 700928, Note_off_c, 0, 58, 55
3, 700928, Note_on_c, 0, 55, 55
3, 701056, Note_off_c, 0, 55, 55
3, 701056, Note_on_c, 0, 58, 55
3, 701184, Note_off_c, 0, 58, 55
3, 701184, Note_on_c, 0, 55, 55
3, 701312, Note_off_c, 0, 55, 55
3, 701312, Note_on_c, 0, 58, 55
3, 701440, Note_off_c, 0, 58, 55
3, 701440, Note_on_c, 0, 56, 55
3, 701568, Note_off_c, 0, 56, 55
3, 701568, Note_on_c, 0, 60, 55
3, 701696, Note_off_c, 0, 60, 55
3, 701696, Note_on_c, 0, 56, 55
3, 701824, Note_off_c, 0, 56, 55
3, 701824, Note_on_c, 0, 60, 55
3, 701952, Note_off_c, 0, 60, 55
3, 701952, Note_on_c, 0, 56, 55
3, 702080, Note_off_c, 0, 56, 55
3, 702080, Note_on_c, 0, 60, 55
3, 702208, Note_off_c, 0, 60, 55
3, 702208, Note_on_c, 0, 56, 55
3, 702336, Note_off_c, 0, 56, 55
3, 702336, Note_on_c, 0, 60, 55
3, 702464, Note_off_c, 0, 60, 55
3, 702464, Note_on_c, 0, 53, 55
3, 702592, Note_off_c, 0, 53, 55
3, 702592, Note_on_c, 0, 56, 55
3, 702720, Note_off_c, 0, 56, 55
3, 702720, Note_on_c, 0, 53, 55
3, 702848, Note_off_c, 0, 53, 55
3, 702848, Note_on_c, 0, 56, 55
3, 702976, Note_off_c, 0, 56, 55
3, 702976, Note_on_c, 0, 53, 55
3, 703104, Note_off_c, 0, 53, 55
3, 703104, Note_on_c, 0, 56, 55
3, 703232, Note_off_c, 0, 56, 55
3, 703232, Note_on_c, 0, 53, 55
3, 703360, Note_off_c, 0, 53, 55
3, 703360, Note_on_c, 0, 56, 55
3, 703488, Note_off_c, 0, 56, 55
3, 703488, Note_on_c, 0, 55, 55
3, 703616, Note_off_c, 0, 55, 55
3, 703616, Note_on_c, 0, 58, 55
3, 703744, Note_off_c, 0, 58, 55
3, 703744, Note_on_c, 0, 55, 55
3, 703872, Note_off_c, 0, 55, 55
3, 703872, Note_on_c, 0, 58, 55
3, 704000, Note_off_c, 0, 58, 55
3, 704000, Note_on_c, 0, 55, 55
3, 704128, Note_off_c, 0, 55, 55
3, 704128, Note_on_c, 0, 58, 55
3, 704256, Note_off_c, 0, 58, 55
3, 704256, Note_on_c, 0, 55, 55
3, 704384, Note_off_c, 0, 55, 55
3, 704384, Note_on_c, 0, 58, 55
3, 704512, Note_off_c, 0, 58, 55
3, 704512, Note_on_c, 0, 51, 55
3, 704640, Note_off_c, 0, 51, 55
3, 704640, Note_on_c, 0, 55, 55
3, 704768, Note_off_c, 0, 55, 55
3, 704768, Note_on_c, 0, 51, 55
3, 704896, Note_off_c, 0, 51, 55
3, 704896, Note_on_c, 0, 55, 55
3, 705024, Note_off_c, 0, 55, 55
3, 705024, Note_on_c, 0, 51, 55
3, 705152, Note_off_c, 0, 51, 55
3, 705152, Note_on_c, 0, 55, 55
3, 705280, Note_off_c, 0, 55, 55
3, 705280, Note_on_c, 0, 56, 55
3, 705408, Note_off_c, 0, 56, 55
3, 705408, Note_on_c, 0, 55, 55
3, 705536, Note_off_c, 0, 55, 55
3, 705536, Note_on_c, 0, 53, 55
3, 705664, Note_off_c, 0, 53, 55
3, 705664, Note_on_c, 0, 58, 55
3, 705792, Note_off_c, 0, 58, 55
3, 705792, Note_on_c, 0, 53, 55
3, 705920, Note_off_c, 0, 53, 55
3, 705920, Note_on_c, 0, 58, 55
3, 706048, Note_off_c, 0, 58, 55
3, 706048, Note_on_c, 0, 53, 55
3, 706176, Note_off_c, 0, 53, 55
3, 706176, Note_on_c, 0, 58, 55
3, 706304, Note_off_c, 0, 58, 55
3, 706304, Note_on_c, 0, 53, 55
3, 706432, Note_off_c, 0, 53, 55
3, 706432, Note_on_c, 0, 58, 55
3, 706560, Note_off_c, 0, 58, 55
3, 706560, Note_on_c, 0, 53, 55
3, 706688, Note_off_c, 0, 53, 55
3, 706688, Note_on_c, 0, 58, 55
3, 706816, Note_off_c, 0, 58, 55
3, 706816, Note_on_c, 0, 53, 55
3, 706944, Note_off_c, 0, 53, 55
3, 706944, Note_on_c, 0, 58, 55
3, 707072, Note_off_c, 0, 58, 55
3, 707072, Note_on_c, 0, 53, 55
3, 707200, Note_off_c, 0, 53, 55
3, 707200, Note_on_c, 0, 58, 55
3, 707328, Note_off_c, 0, 58, 55
3, 707328, Note_on_c, 0, 56, 55
3, 707456, Note_off_c, 0, 56, 55
3, 707456, Note_on_c, 0, 58, 55
3, 707584, Note_off_c, 0, 58, 55
3, 707584, Note_on_c, 0, 55, 55
3, 707712, Note_off_c, 0, 55, 55
3, 707712, Note_on_c, 0, 58, 55
3, 707840, Note_off_c, 0, 58, 55
3, 707840, Note_on_c, 0, 55, 55
3, 707968, Note_off_c, 0, 55, 55
3, 707968, Note_on_c, 0, 58, 55
3, 708096, Note_off_c, 0, 58, 55
3, 708096, Note_on_c, 0, 55, 55
3, 708224, Note_off_c, 0, 55, 55
3, 708224, Note_on_c, 0, 58, 55
3, 708352, Note_off_c, 0, 58, 55
3, 708352, Note_on_c, 0, 56, 55
3, 708480, Note_off_c, 0, 56, 55
3, 708480, Note_on_c, 0, 58, 55
3, 708608, Note_off_c, 0, 58, 55
3, 708608, Note_on_c, 0, 51, 55
3, 708736, Note_off_c, 0, 51, 55
3, 708736, Note_on_c, 0, 55, 55
3, 708864, Note_off_c, 0, 55, 55
3, 708864, Note_on_c, 0, 51, 55
3, 708992, Note_off_c, 0, 51, 55
3, 708992, Note_on_c, 0, 55, 55
3, 709120, Note_off_c, 0, 55, 55
3, 709120, Note_on_c, 0, 51, 55
3, 709248, Note_off_c, 0, 51, 55
3, 709248, Note_on_c, 0, 55, 55
3, 709376, Note_off_c, 0, 55, 55
3, 709376, Note_on_c, 0, 56, 55
3, 709504, Note_off_c, 0, 56, 55
3, 709504, Note_on_c, 0, 55, 55
3, 709632, Note_off_c, 0, 55, 55
3, 709632, Note_on_c, 0, 53, 55
3, 709760, Note_off_c, 0, 53, 55
3, 709760, Note_on_c, 0, 58, 55
3, 709888, Note_off_c, 0, 58, 55
3, 709888, Note_on_c, 0, 53, 55
3, 710016, Note_off_c, 0, 53, 55
3, 710016, Note_on_c, 0, 58, 55
3, 710144, Note_off_c, 0, 58, 55
3, 710144, Note_on_c, 0, 53, 55
3, 710272, Note_off_c, 0, 53, 55
3, 710272, Note_on_c, 0, 58, 55
3, 710400, Note_off_c, 0, 58, 55
3, 710400, Note_on_c, 0, 53, 55
3, 710528, Note_off_c, 0, 53, 55
3, 710528, Note_on_c, 0, 58, 55
3, 710656, Note_off_c, 0, 58, 55
3, 710656, Note_on_c, 0, 53, 55
3, 710784, Note_off_c, 0, 53, 55
3, 710784, Note_on_c, 0, 58, 55
3, 710912, Note_off_c, 0, 58, 55
3, 710912, Note_on_c, 0, 53, 55
3, 711040, Note_off_c, 0, 53, 55
3, 711040, Note_on_c, 0, 58, 55
3, 711168, Note_off_c, 0, 58, 55
3, 711168, Note_on_c, 0, 53, 55
3, 711296, Note_off_c, 0, 53, 55
3, 711296, Note_on_c, 0, 58, 55
3, 711424, Note_off_c, 0, 58, 55
3, 711424, Note_on_c, 0, 56, 55
3, 711552, Note_off_c, 0, 56, 55
3, 711552, Note_on_c, 0, 58, 55
3, 711680, Note_off_c, 0, 58, 55
3, 711680, Note_on_c, 0, 51, 55
3, 711808, Note_off_c, 0, 51, 55
3, 711808, Note_on_c, 0, 55, 55
3, 711936, Note_off_c, 0, 55, 55
3, 711936, Note_on_c, 0, 51, 55
3, 712064, Note_off_c, 0, 51, 55
3, 712064, Note_on_c, 0, 55, 55
3, 712192, Note_off_c, 0, 55, 55
3, 712192, Note_on_c, 0, 51, 55
3, 712320, Note_off_c, 0, 51, 55
3, 712320, Note_on_c, 0, 58, 55
3, 712448, Note_off_c, 0, 58, 55
3, 712448, Note_on_c, 0, 56, 55
3, 712576, Note_off_c, 0, 56, 55
3, 712576, Note_on_c, 0, 55, 55
3, 712704, Note_off_c, 0, 55, 55
3, 712704, Note_on_c, 0, 55, 55
3, 712704, Note_on_c, 0, 67, 55
3, 712832, Note_off_c, 0, 55, 55
3, 712832, Note_off_c, 0, 67, 55
3, 712832, Note_on_c, 0, 58, 55
3, 712832, Note_on_c, 0, 65, 55
3, 712960, Note_off_c, 0, 58, 55
3, 712960, Note_off_c, 0, 65, 55
3, 712960, Note_on_c, 0, 55, 55
3, 712960, Note_on_c, 0, 63, 55
3, 713088, Note_off_c, 0, 55, 55
3, 713088, Note_off_c, 0, 63, 55
3, 713088, Note_on_c, 0, 58, 55
3, 713216, Note_off_c, 0, 58, 55
3, 713216, Note_on_c, 0, 55, 55
3, 713216, Note_on_c, 0, 65, 55
3, 713344, Note_off_c, 0, 55, 55
3, 713344, Note_off_c, 0, 65, 55
3, 713344, Note_on_c, 0, 58, 55
3, 713344, Note_on_c, 0, 67, 55
3, 713472, Note_off_c, 0, 58, 55
3, 713472, Note_off_c, 0, 67, 55
3, 713472, Note_on_c, 0, 55, 55
3, 713600, Note_off_c, 0, 55, 55
3, 713600, Note_on_c, 0, 58, 55
3, 713728, Note_off_c, 0, 58, 55
3, 713728, Note_on_c, 0, 56, 55
3, 713856, Note_off_c, 0, 56, 55
3, 713856, Note_on_c, 0, 60, 55
3, 713984, Note_off_c, 0, 60, 55
3, 713984, Note_on_c, 0, 56, 55
3, 714112, Note_off_c, 0, 56, 55
3, 714112, Note_on_c, 0, 60, 55
3, 714240, Note_off_c, 0, 60, 55
3, 714240, Note_on_c, 0, 56, 55
3, 714368, Note_off_c, 0, 56, 55
3, 714368, Note_on_c, 0, 60, 55
3, 714496, Note_off_c, 0, 60, 55
3, 714496, Note_on_c, 0, 56, 55
3, 714624, Note_off_c, 0, 56, 55
3, 714624, Note_on_c, 0, 60, 55
3, 714752, Note_off_c, 0, 60, 55
3, 714752, Note_on_c, 0, 53, 55
3, 714880, Note_off_c, 0, 53, 55
3, 714880, Note_on_c, 0, 56, 55
3, 715008, Note_off_c, 0, 56, 55
3, 715008, Note_on_c, 0, 53, 55
3, 715136, Note_off_c, 0, 53, 55
3, 715136, Note_on_c, 0, 56, 55
3, 715264, Note_off_c, 0, 56, 55
3, 715264, Note_on_c, 0, 53, 55
3, 715264, Note_on_c, 0, 62, 55
3, 715392, Note_off_c, 0, 53, 55
3, 715392, Note_off_c, 0, 62, 55
3, 715392, Note_on_c, 0, 56, 55
3, 715392, Note_on_c, 0, 63, 55
3, 715520, Note_off_c, 0, 56, 55
3, 715520, Note_off_c, 0, 63, 55
3, 715520, Note_on_c, 0, 53, 55
3, 715648, Note_off_c, 0, 53, 55
3, 715648, Note_on_c, 0, 56, 55
3, 715776, Note_off_c, 0, 56, 55
3, 715776, Note_on_c, 0, 55, 55
3, 715904, Note_off_c, 0, 55, 55
3, 715904, Note_on_c, 0, 58, 55
3, 716032, Note_off_c, 0, 58, 55
3, 716032, Note_on_c, 0, 55, 55
3, 716160, Note_off_c, 0, 55, 55
3, 716160, Note_on_c, 0, 58, 55
3, 716288, Note_off_c, 0, 58, 55
3, 716288, Note_on_c, 0, 55, 55
3, 716416, Note_off_c, 0, 55, 55
3, 716416, Note_on_c, 0, 58, 55
3, 716544, Note_off_c, 0, 58, 55
3, 716544, Note_on_c, 0, 55, 55
3, 716672, Note_off_c, 0, 55, 55
3, 716672, Note_on_c, 0, 58, 55
3, 716800, Note_off_c, 0, 58, 55
3, 716800, Note_on_c, 0, 55, 55
3, 716928, Note_off_c, 0, 55, 55
3, 716928, Note_on_c, 0, 58, 55
3, 717056, Note_off_c, 0, 58, 55
3, 717056, Note_on_c, 0, 55, 55
3, 717184, Note_off_c, 0, 55, 55
3, 717184, Note_on_c, 0, 58, 55
3, 717312, Note_off_c, 0, 58, 55
3, 717312, Note_on_c, 0, 55, 55
3, 717440, Note_off_c, 0, 55, 55
3, 717440, Note_on_c, 0, 58, 55
3, 717568, Note_off_c, 0, 58, 55
3, 717568, Note_on_c, 0, 55, 55
3, 717696, Note_off_c, 0, 55, 55
3, 717696, Note_on_c, 0, 58, 55
3, 717824, Note_off_c, 0, 58, 55
3, 717824, Note_on_c, 0, 56, 55
3, 717952, Note_off_c, 0, 56, 55
3, 717952, Note_on_c, 0, 60, 55
3, 718080, Note_off_c, 0, 60, 55
3, 718080, Note_on_c, 0, 56, 55
3, 718208, Note_off_c, 0, 56, 55
3, 718208, Note_on_c, 0, 60, 55
3, 718336, Note_off_c, 0, 60, 55
3, 718336, Note_on_c, 0, 56, 55
3, 718464, Note_off_c, 0, 56, 55
3, 718464, Note_on_c, 0, 60, 55
3, 718592, Note_off_c, 0, 60, 55
3, 718592, Note_on_c, 0, 56, 55
3, 718720, Note_off_c, 0, 56, 55
3, 718720, Note_on_c, 0, 60, 55
3, 718848, Note_off_c, 0, 60, 55
3, 718848, Note_on_c, 0, 53, 55
3, 718976, Note_off_c, 0, 53, 55
3, 718976, Note_on_c, 0, 56, 55
3, 719104, Note_off_c, 0, 56, 55
3, 719104, Note_on_c, 0, 53, 55
3, 719232, Note_off_c, 0, 53, 55
3, 719232, Note_on_c, 0, 56, 55
3, 719360, Note_off_c, 0, 56, 55
3, 719360, Note_on_c, 0, 53, 55
3, 719488, Note_off_c, 0, 53, 55
3, 719488, Note_on_c, 0, 56, 55
3, 719616, Note_off_c, 0, 56, 55
3, 719616, Note_on_c, 0, 53, 55
3, 719744, Note_off_c, 0, 53, 55
3, 719744, Note_on_c, 0, 56, 55
3, 719872, Note_off_c, 0, 56, 55
3, 719872, Note_on_c, 0, 55, 55
3, 720000, Note_off_c, 0, 55, 55
3, 720000, Note_on_c, 0, 58, 55
3, 720128, Note_off_c, 0, 58, 55
3, 720128, Note_on_c, 0, 55, 55
3, 720256, Note_off_c, 0, 55, 55
3, 720256, Note_on_c, 0, 58, 55
3, 720384, Note_off_c, 0, 58, 55
3, 720384, Note_on_c, 0, 55, 55
3, 720512, Note_off_c, 0, 55, 55
3, 720512, Note_on_c, 0, 58, 55
3, 720640, Note_off_c, 0, 58, 55
3, 720640, Note_on_c, 0, 55, 55
3, 720768, Note_off_c, 0, 55, 55
3, 720768, Note_on_c, 0, 58, 55
3, 720896, Note_off_c, 0, 58, 55
3, 720896, Note_on_c, 0, 51, 55
3, 721024, Note_off_c, 0, 51, 55
3, 721024, Note_on_c, 0, 55, 55
3, 721152, Note_off_c, 0, 55, 55
3, 721152, Note_on_c, 0, 51, 55
3, 721280, Note_off_c, 0, 51, 55
3, 721280, Note_on_c, 0, 55, 55
3, 721408, Note_off_c, 0, 55, 55
3, 721408, Note_on_c, 0, 51, 55
3, 721536, Note_off_c, 0, 51, 55
3, 721536, Note_on_c, 0, 55, 55
3, 721664, Note_off_c, 0, 55, 55
3, 721664, Note_on_c, 0, 56, 55
3, 721792, Note_off_c, 0, 56, 55
3, 721792, Note_on_c, 0, 55, 55
3, 721920, Note_off_c, 0, 55, 55
3, 721920, Note_on_c, 0, 53, 55
3, 722048, Note_off_c, 0, 53, 55
3, 722048, Note_on_c, 0, 58, 55
3, 722176, Note_off_c, 0, 58, 55
3, 722176, Note_on_c, 0, 53, 55
3, 722304, Note_off_c, 0, 53, 55
3, 722304, Note_on_c, 0, 58, 55
3, 722432, Note_off_c, 0, 58, 55
3, 722432, Note_on_c, 0, 53, 55
3, 722560, Note_off_c, 0, 53, 55
3, 722560, Note_on_c, 0, 58, 55
3, 722688, Note_off_c, 0, 58, 55
3, 722688, Note_on_c, 0, 53, 55
3, 722816, Note_off_c, 0, 53, 55
3, 722816, Note_on_c, 0, 58, 55
3, 722944, Note_off_c, 0, 58, 55
3, 722944, Note_on_c, 0, 53, 55
3, 723072, Note_off_c, 0, 53, 55
3, 723072, Note_on_c, 0, 58, 55
3, 723200, Note_off_c, 0, 58, 55
3, 723200, Note_on_c, 0, 53, 55
3, 723328, Note_off_c, 0, 53, 55
3, 723328, Note_on_c, 0, 58, 55
3, 723456, Note_off_c, 0, 58, 55
3, 723456, Note_on_c, 0, 53, 55
3, 723584, Note_off_c, 0, 53, 55
3, 723584, Note_on_c, 0, 58, 55
3, 723712, Note_off_c, 0, 58, 55
3, 723712, Note_on_c, 0, 56, 55
3, 723840, Note_off_c, 0, 56, 55
3, 723840, Note_on_c, 0, 58, 55
3, 723968, Note_off_c, 0, 58, 55
3, 723968, Note_on_c, 0, 55, 55
3, 724096, Note_off_c, 0, 55, 55
3, 724096, Note_on_c, 0, 58, 55
3, 724224, Note_off_c, 0, 58, 55
3, 724224, Note_on_c, 0, 55, 55
3, 724352, Note_off_c, 0, 55, 55
3, 724352, Note_on_c, 0, 58, 55
3, 724480, Note_off_c, 0, 58, 55
3, 724480, Note_on_c, 0, 55, 55
3, 724608, Note_off_c, 0, 55, 55
3, 724608, Note_on_c, 0, 58, 55
3, 724736, Note_off_c, 0, 58, 55
3, 724736, Note_on_c, 0, 56, 55
3, 724864, Note_off_c, 0, 56, 55
3, 724864, Note_on_c, 0, 58, 55
3, 724992, Note_off_c, 0, 58, 55
3, 724992, Note_on_c, 0, 51, 55
3, 725120, Note_off_c, 0, 51, 55
3, 725120, Note_on_c, 0, 55, 55
3, 725248, Note_off_c, 0, 55, 55
3, 725248, Note_on_c, 0, 51, 55
3, 725376, Note_off_c, 0, 51, 55
3, 725376, Note_on_c, 0, 55, 55
3, 725504, Note_off_c, 0, 55, 55
3, 725504, Note_on_c, 0, 51, 55
3, 725632, Note_off_c, 0, 51, 55
3, 725632, Note_on_c, 0, 55, 55
3, 725760, Note_off_c, 0, 55, 55
3, 725760, Note_on_c, 0, 56, 55
3, 725888, Note_off_c, 0, 56, 55
3, 725888, Note_on_c, 0, 55, 55
3, 726016, Note_off_c, 0, 55, 55
3, 726016, Note_on_c, 0, 53, 55
3, 726144, Note_off_c, 0, 53, 55
3, 726144, Note_on_c, 0, 58, 55
3, 726272, Note_off_c, 0, 58, 55
3, 726272, Note_on_c, 0, 53, 55
3, 726400, Note_off_c, 0, 53, 55
3, 726400, Note_on_c, 0, 58, 55
3, 726528, Note_off_c, 0, 58, 55
3, 726528, Note_on_c, 0, 53, 55
3, 726656, Note_off_c, 0, 53, 55
3, 726656, Note_on_c, 0, 58, 55
3, 726784, Note_off_c, 0, 58, 55
3, 726784, Note_on_c, 0, 53, 55
3, 726912, Note_off_c, 0, 53, 55
3, 726912, Note_on_c, 0, 58, 55
3, 727040, Note_off_c, 0, 58, 55
3, 727040, Note_on_c, 0, 53, 55
3, 727168, Note_off_c, 0, 53, 55
3, 727168, Note_on_c, 0, 58, 55
3, 727296, Note_off_c, 0, 58, 55
3, 727296, Note_on_c, 0, 53, 55
3, 727424, Note_off_c, 0, 53, 55
3, 727424, Note_on_c, 0, 58, 55
3, 727552, Note_off_c, 0, 58, 55
3, 727552, Note_on_c, 0, 53, 55
3, 727680, Note_off_c, 0, 53, 55
3, 727680, Note_on_c, 0, 58, 55
3, 727808, Note_off_c, 0, 58, 55
3, 727808, Note_on_c, 0, 56, 55
3, 727936, Note_off_c, 0, 56, 55
3, 727936, Note_on_c, 0, 58, 55
3, 728064, Note_off_c, 0, 58, 55
3, 728064, Note_on_c, 0, 51, 55
3, 728192, Note_off_c, 0, 51, 55
3, 728192, Note_on_c, 0, 55, 55
3, 728320, Note_off_c, 0, 55, 55
3, 728320, Note_on_c, 0, 51, 55
3, 728448, Note_off_c, 0, 51, 55
3, 728448, Note_on_c, 0, 55, 55
3, 728576, Note_off_c, 0, 55, 55
3, 728576, Note_on_c, 0, 51, 55
3, 728704, Note_off_c, 0, 51, 55
3, 728704, Note_on_c, 0, 58, 55
3, 728832, Note_off_c, 0, 58, 55
3, 728832, Note_on_c, 0, 56, 55
3, 728960, Note_off_c, 0, 56, 55
3, 728960, Note_on_c, 0, 55, 55
3, 729088, Note_off_c, 0, 55, 55
3, 729088, Note_on_c, 0, 55, 55
3, 729088, Note_on_c, 0, 67, 55
3, 729216, Note_off_c, 0, 55, 55
3, 729216, Note_off_c, 0, 67, 55
3, 729216, Note_on_c, 0, 58, 55
3, 729216, Note_on_c, 0, 65, 55
3, 729344, Note_off_c, 0, 58, 55
3, 729344, Note_off_c, 0, 65, 55
3, 729344, Note_on_c, 0, 55, 55
3, 729344, Note_on_c, 0, 63, 55
3, 729472, Note_off_c, 0, 55, 55
3, 729472, Note_off_c, 0, 63, 55
3, 729472, Note_on_c, 0, 58, 55
3, 729600, Note_off_c, 0, 58, 55
3, 729600, Note_on_c, 0, 55, 55
3, 729600, Note_on_c, 0, 65, 55
3, 729728, Note_off_c, 0, 55, 55
3, 729728, Note_off_c, 0, 65, 55
3, 729728, Note_on_c, 0, 58, 55
3, 729728, Note_on_c, 0, 67, 55
3, 729856, Note_off_c, 0, 58, 55
3, 729856, Note_off_c, 0, 67, 55
3, 729856, Note_on_c, 0, 55, 55
3, 729984, Note_off_c, 0, 55, 55
3, 729984, Note_on_c, 0, 58, 55
3, 730112, Note_off_c, 0, 58, 55
3, 730112, Note_on_c, 0, 56, 55
3, 730240, Note_off_c, 0, 56, 55
3, 730240, Note_on_c, 0, 60, 55
3, 730368, Note_off_c, 0, 60, 55
3, 730368, Note_on_c, 0, 56, 55
3, 730496, Note_off_c, 0, 56, 55
3, 730496, Note_on_c, 0, 60, 55
3, 730624, Note_off_c, 0, 60, 55
3, 730624, Note_on_c, 0, 56, 55
3, 730752, Note_off_c, 0, 56, 55
3, 730752, Note_on_c, 0, 60, 55
3, 730880, Note_off_c, 0, 60, 55
3, 730880, Note_on_c, 0, 56, 55
3, 731008, Note_off_c, 0, 56, 55
3, 731008, Note_on_c, 0, 60, 55
3, 731136, Note_off_c, 0, 60, 55
3, 731136, Note_on_c, 0, 53, 55
3, 731264, Note_off_c, 0, 53, 55
3, 731264, Note_on_c, 0, 56, 55
3, 731392, Note_off_c, 0, 56, 55
3, 731392, Note_on_c, 0, 53, 55
3, 731520, Note_off_c, 0, 53, 55
3, 731520, Note_on_c, 0, 56, 55
3, 731648, Note_off_c, 0, 56, 55
3, 731648, Note_on_c, 0, 53, 55
3, 731648, Note_on_c, 0, 62, 55
3, 731776, Note_off_c, 0, 53, 55
3, 731776, Note_off_c, 0, 62, 55
3, 731776, Note_on_c, 0, 56, 55
3, 731776, Note_on_c, 0, 63, 55
3, 731904, Note_off_c, 0, 56, 55
3, 731904, Note_off_c, 0, 63, 55
3, 731904, Note_on_c, 0, 53, 55
3, 732032, Note_off_c, 0, 53, 55
3, 732032, Note_on_c, 0, 56, 55
3, 732160, Note_off_c, 0, 56, 55
3, 732160, Note_on_c, 0, 55, 55
3, 732288, Note_off_c, 0, 55, 55
3, 732288, Note_on_c, 0, 58, 55
3, 732416, Note_off_c, 0, 58, 55
3, 732416, Note_on_c, 0, 55, 55
3, 732544, Note_off_c, 0, 55, 55
3, 732544, Note_on_c, 0, 58, 55
3, 732672, Note_off_c, 0, 58, 55
3, 732672, Note_on_c, 0, 55, 55
3, 732800, Note_off_c, 0, 55, 55
3, 732800, Note_on_c, 0, 58, 55
3, 732928, Note_off_c, 0, 58, 55
3, 732928, Note_on_c, 0, 55, 55
3, 733056, Note_off_c, 0, 55, 55
3, 733056, Note_on_c, 0, 58, 55
3, 733184, Note_off_c, 0, 58, 55
3, 733184, Note_on_c, 0, 55, 55
3, 733312, Note_off_c, 0, 55, 55
3, 733312, Note_on_c, 0, 58, 55
3, 733440, Note_off_c, 0, 58, 55
3, 733440, Note_on_c, 0, 55, 55
3, 733568, Note_off_c, 0, 55, 55
3, 733568, Note_on_c, 0, 58, 55
3, 733696, Note_off_c, 0, 58, 55
3, 733696, Note_on_c, 0, 55, 55
3, 733824, Note_off_c, 0, 55, 55
3, 733824, Note_on_c, 0, 58, 55
3, 733952, Note_off_c, 0, 58, 55
3, 733952, Note_on_c, 0, 55, 55
3, 734080, Note_off_c, 0, 55, 55
3, 734080, Note_on_c, 0, 58, 55
3, 734208, Note_off_c, 0, 58, 55
3, 734208, Note_on_c, 0, 56, 55
3, 734336, Note_off_c, 0, 56, 55
3, 734336, Note_on_c, 0, 60, 55
3, 734464, Note_off_c, 0, 60, 55
3, 734464, Note_on_c, 0, 56, 55
3, 734592, Note_off_c, 0, 56, 55
3, 734592, Note_on_c, 0, 60, 55
3, 734720, Note_off_c, 0, 60, 55
3, 734720, Note_on_c, 0, 56, 55
3, 734848, Note_off_c, 0, 56, 55
3, 734848, Note_on_c, 0, 60, 55
3, 734976, Note_off_c, 0, 60, 55
3, 734976, Note_on_c, 0, 56, 55
3, 735104, Note_off_c, 0, 56, 55
3, 735104, Note_on_c, 0, 60, 55
3, 735232, Note_off_c, 0, 60, 55
3, 735232, Note_on_c, 0, 53, 55
3, 735360, Note_off_c, 0, 53, 55
3, 735360, Note_on_c, 0, 56, 55
3, 735488, Note_off_c, 0, 56, 55
3, 735488, Note_on_c, 0, 53, 55
3, 735616, Note_off_c, 0, 53, 55
3, 735616, Note_on_c, 0, 56, 55
3, 735744, Note_off_c, 0, 56, 55
3, 735744, Note_on_c, 0, 53, 55
3, 735872, Note_off_c, 0, 53, 55
3, 735872, Note_on_c, 0, 56, 55
3, 736000, Note_off_c, 0, 56, 55
3, 736000, Note_on_c, 0, 53, 55
3, 736128, Note_off_c, 0, 53, 55
3, 736128, Note_on_c, 0, 56, 55
3, 736256, Note_off_c, 0, 56, 55
3, 736256, Note_on_c, 0, 55, 55
3, 736384, Note_off_c, 0, 55, 55
3, 736384, Note_on_c, 0, 58, 55
3, 736512, Note_off_c, 0, 58, 55
3, 736512, Note_on_c, 0, 55, 55
3, 736640, Note_off_c, 0, 55, 55
3, 736640, Note_on_c, 0, 58, 55
3, 736768, Note_off_c, 0, 58, 55
3, 736768, Note_on_c, 0, 55, 55
3, 736896, Note_off_c, 0, 55, 55
3, 736896, Note_on_c, 0, 58, 55
3, 737024, Note_off_c, 0, 58, 55
3, 737024, Note_on_c, 0, 55, 55
3, 737152, Note_off_c, 0, 55, 55
3, 737152, Note_on_c, 0, 58, 55
3, 737280, Note_off_c, 0, 58, 55
3, 737280, Note_on_c, 0, 51, 55
3, 737408, Note_off_c, 0, 51, 55
3, 737408, Note_on_c, 0, 55, 55
3, 737536, Note_off_c, 0, 55, 55
3, 737536, Note_on_c, 0, 51, 55
3, 737664, Note_off_c, 0, 51, 55
3, 737664, Note_on_c, 0, 55, 55
3, 737792, Note_off_c, 0, 55, 55
3, 737792, Note_on_c, 0, 51, 55
3, 737920, Note_off_c, 0, 51, 55
3, 737920, Note_on_c, 0, 55, 55
3, 738048, Note_off_c, 0, 55, 55
3, 738048, Note_on_c, 0, 56, 55
3, 738176, Note_off_c, 0, 56, 55
3, 738176, Note_on_c, 0, 55, 55
3, 738304, Note_off_c, 0, 55, 55
3, 738304, Note_on_c, 0, 53, 55
3, 738432, Note_off_c, 0, 53, 55
3, 738432, Note_on_c, 0, 58, 55
3, 738560, Note_off_c, 0, 58, 55
3, 738560, Note_on_c, 0, 53, 55
3, 738688, Note_off_c, 0, 53, 55
3, 738688, Note_on_c, 0, 58, 55
3, 738816, Note_off_c, 0, 58, 55
3, 738816, Note_on_c, 0, 53, 55
3, 738944, Note_off_c, 0, 53, 55
3, 738944, Note_on_c, 0, 58, 55
3, 739072, Note_off_c, 0, 58, 55
3, 739072, Note_on_c, 0, 53, 55
3, 739200, Note_off_c, 0, 53, 55
3, 739200, Note_on_c, 0, 58, 55
3, 739328, Note_off_c, 0, 58, 55
3, 739328, Note_on_c, 0, 53, 55
3, 739456, Note_off_c, 0, 53, 55
3, 739456, Note_on_c, 0, 58, 55
3, 739584, Note_off_c, 0, 58, 55
3, 739584, Note_on_c, 0, 53, 55
3, 739712, Note_off_c, 0, 53, 55
3, 739712, Note_on_c, 0, 58, 55
3, 739840, Note_off_c, 0, 58, 55
3, 739840, Note_on_c, 0, 53, 55
3, 739968, Note_off_c, 0, 53, 55
3, 739968, Note_on_c, 0, 58, 55
3, 740096, Note_off_c, 0, 58, 55
3, 740096, Note_on_c, 0, 56, 55
3, 740224, Note_off_c, 0, 56, 55
3, 740224, Note_on_c, 0, 58, 55
3, 740352, Note_off_c, 0, 58, 55
3, 740352, Note_on_c, 0, 55, 55
3, 740480, Note_off_c, 0, 55, 55
3, 740480, Note_on_c, 0, 58, 55
3, 740608, Note_off_c, 0, 58, 55
3, 740608, Note_on_c, 0, 55, 55
3, 740736, Note_off_c, 0, 55, 55
3, 740736, Note_on_c, 0, 58, 55
3, 740864, Note_off_c, 0, 58, 55
3, 740864, Note_on_c, 0, 55, 55
3, 740992, Note_off_c, 0, 55, 55
3, 740992, Note_on_c, 0, 58, 55
3, 741120, Note_off_c, 0, 58, 55
3, 741120, Note_on_c, 0, 56, 55
3, 741248, Note_off_c, 0, 56, 55
3, 741248, Note_on_c, 0, 58, 55
3, 741376, Note_off_c, 0, 58, 55
3, 741376, Note_on_c, 0, 51, 55
3, 741504, Note_off_c, 0, 51, 55
3, 741504, Note_on_c, 0, 55, 55
3, 741632, Note_off_c, 0, 55, 55
3, 741632, Note_on_c, 0, 51, 55
3, 741760, Note_off_c, 0, 51, 55
3, 741760, Note_on_c, 0, 55, 55
3, 741888, Note_off_c, 0, 55, 55
3, 741888, Note_on_c, 0, 51, 55
3, 742016, Note_off_c, 0, 51, 55
3, 742016, Note_on_c, 0, 55, 55
3, 742144, Note_off_c, 0, 55, 55
3, 742144, Note_on_c, 0, 56, 55
3, 742272, Note_off_c, 0, 56, 55
3, 742272, Note_on_c, 0, 55, 55
3, 742400, Note_off_c, 0, 55, 55
3, 742400, Note_on_c, 0, 53, 55
3, 742528, Note_off_c, 0, 53, 55
3, 742528, Note_on_c, 0, 58, 55
3, 742656, Note_off_c, 0, 58, 55
3, 742656, Note_on_c, 0, 53, 55
3, 742784, Note_off_c, 0, 53, 55
3, 742784, Note_on_c, 0, 58, 55
3, 742912, Note_off_c, 0, 58, 55
3, 742912, Note_on_c, 0, 53, 55
3, 743040, Note_off_c, 0, 53, 55
3, 743040, Note_on_c, 0, 58, 55
3, 743168, Note_off_c, 0, 58, 55
3, 743168, Note_on_c, 0, 53, 55
3, 743296, Note_off_c, 0, 53, 55
3, 743296, Note_on_c, 0, 58, 55
3, 743424, Note_off_c, 0, 58, 55
3, 743424, Note_on_c, 0, 53, 55
3, 743552, Note_off_c, 0, 53, 55
3, 743552, Note_on_c, 0, 58, 55
3, 743680, Note_off_c, 0, 58, 55
3, 743680, Note_on_c, 0, 53, 55
3, 743808, Note_off_c, 0, 53, 55
3, 743808, Note_on_c, 0, 58, 55
3, 743936, Note_off_c, 0, 58, 55
3, 743936, Note_on_c, 0, 53, 55
3, 744064, Note_off_c, 0, 53, 55
3, 744064, Note_on_c, 0, 58, 55
3, 744192, Note_off_c, 0, 58, 55
3, 744192, Note_on_c, 0, 56, 55
3, 744320, Note_off_c, 0, 56, 55
3, 744320, Note_on_c, 0, 58, 55
3, 744448, Note_off_c, 0, 58, 55
3, 744448, Note_on_c, 0, 51, 55
3, 744576, Note_off_c, 0, 51, 55
3, 744576, Note_on_c, 0, 55, 55
3, 744704, Note_off_c, 0, 55, 55
3, 744704, Note_on_c, 0, 51, 55
3, 744832, Note_off_c, 0, 51, 55
3, 744832, Note_on_c, 0, 55, 55
3, 744960, Note_off_c, 0, 55, 55
3, 744960, Note_on_c, 0, 51, 55
3, 745088, Note_off_c, 0, 51, 55
3, 745088, Note_on_c, 0, 58, 55
3, 745216, Note_off_c, 0, 58, 55
3, 745216, Note_on_c, 0, 56, 55
3, 745344, Note_off_c, 0, 56, 55
3, 745344, Note_on_c, 0, 55, 55
3, 745472, Note_off_c, 0, 55, 55
3, 745472, Note_on_c, 0, 55, 55
3, 745472, Note_on_c, 0, 67, 55
3, 745600, Note_off_c, 0, 55, 55
3, 745600, Note_off_c, 0, 67, 55
3, 745600, Note_on_c, 0, 58, 55
3, 745600, Note_on_c, 0, 65, 55
3, 745728, Note_off_c, 0, 58, 55
3, 745728, Note_off_c, 0, 65, 55
3, 745728, Note_on_c, 0, 55, 55
3, 745728, Note_on_c, 0, 63, 55
3, 745856, Note_off_c, 0, 55, 55
3, 745856, Note_off_c, 0, 63, 55
3, 745856, Note_on_c, 0, 58, 55
3, 745984, Note_off_c, 0, 58, 55
3, 745984, Note_on_c, 0, 55, 55
3, 745984, Note_on_c, 0, 65, 55
3, 746112, Note_off_c, 0, 55, 55
3, 746112, Note_off_c, 0, 65, 55
3, 746112, Note_on_c, 0, 58, 55
3, 746112, Note_on_c, 0, 67, 55
3, 746240, Note_off_c, 0, 58, 55
3, 746240, Note_off_c, 0, 67, 55
3, 746240, Note_on_c, 0, 55, 55
3, 746368, Note_off_c, 0, 55, 55
3, 746368, Note_on_c, 0, 58, 55
3, 746496, Note_off_c, 0, 58, 55
3, 746496, Note_on_c, 0, 56, 55
3, 746624, Note_off_c, 0, 56, 55
3, 746624, Note_on_c, 0, 60, 55
3, 746752, Note_off_c, 0, 60, 55
3, 746752, Note_on_c, 0, 56, 55
3, 746880, Note_off_c, 0, 56, 55
3, 746880, Note_on_c, 0, 60, 55
3, 747008, Note_off_c, 0, 60, 55
3, 747008, Note_on_c, 0, 56, 55
3, 747136, Note_off_c, 0, 56, 55
3, 747136, Note_on_c, 0, 60, 55
3, 747264, Note_off_c, 0, 60, 55
3, 747264, Note_on_c, 0, 56, 55
3, 747392, Note_off_c, 0, 56, 55
3, 747392, Note_on_c, 0, 60, 55
3, 747520, Note_off_c, 0, 60, 55
3, 747520, Note_on_c, 0, 53, 55
3, 747648, Note_off_c, 0, 53, 55
3, 747648, Note_on_c, 0, 56, 55
3, 747776, Note_off_c, 0, 56, 55
3, 747776, Note_on_c, 0, 53, 55
3, 747904, Note_off_c, 0, 53, 55
3, 747904, Note_on_c, 0, 56, 55
3, 748032, Note_off_c, 0, 56, 55
3, 748032, Note_on_c, 0, 53, 55
3, 748032, Note_on_c, 0, 62, 55
3, 748160, Note_off_c, 0, 53, 55
3, 748160, Note_off_c, 0, 62, 55
3, 748160, Note_on_c, 0, 56, 55
3, 748160, Note_on_c, 0, 63, 55
3, 748288, Note_off_c, 0, 56, 55
3, 748288, Note_off_c, 0, 63, 55
3, 748288, Note_on_c, 0, 53, 55
3, 748416, Note_off_c, 0, 53, 55
3, 748416, Note_on_c, 0, 56, 55
3, 748544, Note_off_c, 0, 56, 55
3, 748544, Note_on_c, 0, 55, 55
3, 748672, Note_off_c, 0, 55, 55
3, 748672, Note_on_c, 0, 58, 55
3, 748800, Note_off_c, 0, 58, 55
3, 748800, Note_on_c, 0, 55, 55
3, 748928, Note_off_c, 0, 55, 55
3, 748928, Note_on_c, 0, 58, 55
3, 749056, Note_off_c, 0, 58, 55
3, 749056, Note_on_c, 0, 55, 55
3, 749184, Note_off_c, 0, 55, 55
3, 749184, Note_on_c, 0, 58, 55
3, 749312, Note_off_c, 0, 58, 55
3, 749312, Note_on_c, 0, 55, 55
3, 749440, Note_off_c, 0, 55, 55
3, 749440, Note_on_c, 0, 58, 55
3, 749568, Note_off_c, 0, 58, 55
3, 749568, Note_on_c, 0, 55, 55
3, 749696, Note_off_c, 0, 55, 55
3, 749696, Note_on_c, 0, 58, 55
3, 749824, Note_off_c, 0, 58, 55
3, 749824, Note_on_c, 0, 55, 55
3, 749952, Note_off_c, 0, 55, 55
3, 749952, Note_on_c, 0, 58, 55
3, 750080, Note_off_c, 0, 58, 55
3, 750080, Note_on_c, 0, 55, 55
3, 750208, Note_off_c, 0, 55, 55
3, 750208, Note_on_c, 0, 58, 55
3, 750336, Note_off_c, 0, 58, 55
3, 750336, Note_on_c, 0, 55, 55
3, 750464, Note_off_c, 0, 55, 55
3, 750464, Note_on_c, 0, 58, 55
3, 750592, Note_off_c, 0, 58, 55
3, 750592, Note_on_c, 0, 56, 55
3, 750720, Note_off_c, 0, 56, 55
3, 750720, Note_on_c, 0, 60, 55
3, 750848, Note_off_c, 0, 60, 55
3, 750848, Note_on_c, 0, 56, 55
3, 750976, Note_off_c, 0, 56, 55
3, 750976, Note_on_c, 0, 60, 55
3, 751104, Note_off_c, 0, 60, 55
3, 751104, Note_on_c, 0, 56, 55
3, 751232, Note_off_c, 0, 56, 55
3, 751232, Note_on_c, 0, 60, 55
3, 751360, Note_off_c, 0, 60, 55
3, 751360, Note_on_c, 0, 56, 55
3, 751488, Note_off_c, 0, 56, 55
3, 751488, Note_on_c, 0, 60, 55
3, 751616, Note_off_c, 0, 60, 55
3, 751616, Note_on_c, 0, 53, 55
3, 751744, Note_off_c, 0, 53, 55
3, 751744, Note_on_c, 0, 56, 55
3, 751872, Note_off_c, 0, 56, 55
3, 751872, Note_on_c, 0, 53, 55
3, 752000, Note_off_c, 0, 53, 55
3, 752000, Note_on_c, 0, 56, 55
3, 752128, Note_off_c, 0, 56, 55
3, 752128, Note_on_c, 0, 53, 55
3, 752256, Note_off_c, 0, 53, 55
3, 752256, Note_on_c, 0, 56, 55
3, 752384, Note_off_c, 0, 56, 55
3, 752384, Note_on_c, 0, 53, 55
3, 752512, Note_off_c, 0, 53, 55
3, 752512, Note_on_c, 0, 56, 55
3, 752640, Note_off_c, 0, 56, 55
3, 752640, Note_on_c, 0, 55, 55
3, 752768, Note_off_c, 0, 55, 55
3, 752768, Note_on_c, 0, 58, 55
3, 752896, Note_off_c, 0, 58, 55
3, 752896, Note_on_c, 0, 55, 55
3, 753024, Note_off_c, 0, 55, 55
3, 753024, Note_on_c, 0, 58, 55
3, 753152, Note_off_c, 0, 58, 55
3, 753152, Note_on_c, 0, 55, 55
3, 753280, Note_off_c, 0, 55, 55
3, 753280, Note_on_c, 0, 58, 55
3, 753408, Note_off_c, 0, 58, 55
3, 753408, Note_on_c, 0, 55, 55
3, 753536, Note_off_c, 0, 55, 55
3, 753536, Note_on_c, 0, 58, 55
3, 753664, Note_off_c, 0, 58, 55
3, 753664, Note_on_c, 0, 51, 55
3, 753792, Note_off_c, 0, 51, 55
3, 753792, Note_on_c, 0, 55, 55
3, 753920, Note_off_c, 0, 55, 55
3, 753920, Note_on_c, 0, 51, 55
3, 754048, Note_off_c, 0, 51, 55
3, 754048, Note_on_c, 0, 55, 55
3, 754176, Note_off_c, 0, 55, 55
3, 754176, Note_on_c, 0, 51, 55
3, 754304, Note_off_c, 0, 51, 55
3, 754304, Note_on_c, 0, 55, 55
3, 754432, Note_off_c, 0, 55, 55
3, 754432, Note_on_c, 0, 56, 55
3, 754560, Note_off_c, 0, 56, 55
3, 754560, Note_on_c, 0, 55, 55
3, 754688, Note_off_c, 0, 55, 55
3, 754688, Note_on_c, 0, 53, 55
3, 754816, Note_off_c, 0, 53, 55
3, 754816, Note_on_c, 0, 58, 55
3, 754944, Note_off_c, 0, 58, 55
3, 754944, Note_on_c, 0, 53, 55
3, 755072, Note_off_c, 0, 53, 55
3, 755072, Note_on_c, 0, 58, 55
3, 755200, Note_off_c, 0, 58, 55
3, 755200, Note_on_c, 0, 53, 55
3, 755328, Note_off_c, 0, 53, 55
3, 755328, Note_on_c, 0, 58, 55
3, 755456, Note_off_c, 0, 58, 55
3, 755456, Note_on_c, 0, 53, 55
3, 755584, Note_off_c, 0, 53, 55
3, 755584, Note_on_c, 0, 58, 55
3, 755712, Note_off_c, 0, 58, 55
3, 755712, Note_on_c, 0, 53, 55
3, 755840, Note_off_c, 0, 53, 55
3, 755840, Note_on_c, 0, 58, 55
3, 755968, Note_off_c, 0, 58, 55
3, 755968, Note_on_c, 0, 53, 55
3, 756096, Note_off_c, 0, 53, 55
3, 756096, Note_on_c, 0, 58, 55
3, 756224, Note_off_c, 0, 58, 55
3, 756224, Note_on_c, 0, 53, 55
3, 756352, Note_off_c, 0, 53, 55
3, 756352, Note_on_c, 0, 58, 55
3, 756480, Note_off_c, 0, 58, 55
3, 756480, Note_on_c, 0, 56, 55
3, 756608, Note_off_c, 0, 56, 55
3, 756608, Note_on_c, 0, 58, 55
3, 756736, Note_off_c, 0, 58, 55
3, 756736, Note_on_c, 0, 55, 55
3, 756864, Note_off_c, 0, 55, 55
3, 756864, Note_on_c, 0, 58, 55
3, 756992, Note_off_c, 0, 58, 55
3, 756992, Note_on_c, 0, 55, 55
3, 757120, Note_off_c, 0, 55, 55
3, 757120, Note_on_c, 0, 58, 55
3, 757248, Note_off_c, 0, 58, 55
3, 757248, Note_on_c, 0, 55, 55
3, 757376, Note_off_c, 0, 55, 55
3, 757376, Note_on_c, 0, 58, 55
3, 757504, Note_off_c, 0, 58, 55
3, 757504, Note_on_c, 0, 56, 55
3, 757632, Note_off_c, 0, 56, 55
3, 757632, Note_on_c, 0, 58, 55
3, 757760, Note_off_c, 0, 58, 55
3, 757760, Note_on_c, 0, 51, 55
3, 757888, Note_off_c, 0, 51, 55
3, 757888, Note_on_c, 0, 55, 55
3, 758016, Note_off_c, 0, 55, 55
3, 758016, Note_on_c, 0, 51, 55
3, 758144, Note_off_c, 0, 51, 55
3, 758144, Note_on_c, 0, 55, 55
3, 758272, Note_off_c, 0, 55, 55
3, 758272, Note_on_c, 0, 51, 55
3, 758400, Note_off_c, 0, 51, 55
3, 758400, Note_on_c, 0, 55, 55
3, 758528, Note_off_c, 0, 55, 55
3, 758528, Note_on_c, 0, 56, 55
3, 758656, Note_off_c, 0, 56, 55
3, 758656, Note_on_c, 0, 55, 55
3, 758784, Note_off_c, 0, 55, 55
3, 758784, Note_on_c, 0, 53, 55
3, 758912, Note_off_c, 0, 53, 55
3, 758912, Note_on_c, 0, 58, 55
3, 759040, Note_off_c, 0, 58, 55
3, 759040, Note_on_c, 0, 53, 55
3, 759168, Note_off_c, 0, 53, 55
3, 759168, Note_on_c, 0, 58, 55
3, 759296, Note_off_c, 0, 58, 55
3, 759296, Note_on_c, 0, 53, 55
3, 759424, Note_off_c, 0, 53, 55
3, 759424, Note_on_c, 0, 58, 55
3, 759552, Note_off_c, 0, 58, 55
3, 759552, Note_on_c, 0, 53, 55
3, 759680, Note_off_c, 0, 53, 55
3, 759680, Note_on_c, 0, 58, 55
3, 759808, Note_off_c, 0, 58, 55
3, 759808, Note_on_c, 0, 53, 55
3, 759936, Note_off_c, 0, 53, 55
3, 759936, Note_on_c, 0, 58, 55
3, 760064, Note_off_c, 0, 58, 55
3, 760064, Note_on_c, 0, 53, 55
3, 760192, Note_off_c, 0, 53, 55
3, 760192, Note_on_c, 0, 58, 55
3, 760320, Note_off_c, 0, 58, 55
3, 760320, Note_on_c, 0, 53, 55
3, 760448, Note_off_c, 0, 53, 55
3, 760448, Note_on_c, 0, 58, 55
3, 760576, Note_off_c, 0, 58, 55
3, 760576, Note_on_c, 0, 56, 55
3, 760704, Note_off_c, 0, 56, 55
3, 760704, Note_on_c, 0, 58, 55
3, 760832, Note_off_c, 0, 58, 55
3, 760832, Note_on_c, 0, 51, 55
3, 760960, Note_off_c, 0, 51, 55
3, 760960, Note_on_c, 0, 55, 55
3, 761088, Note_off_c, 0, 55, 55
3, 761088, Note_on_c, 0, 51, 55
3, 761216, Note_off_c, 0, 51, 55
3, 761216, Note_on_c, 0, 55, 55
3, 761344, Note_off_c, 0, 55, 55
3, 761344, Note_on_c, 0, 51, 55
3, 761472, Note_off_c, 0, 51, 55
3, 761472, Note_on_c, 0, 58, 55
3, 761600, Note_off_c, 0, 58, 55
3, 761600, Note_on_c, 0, 56, 55
3, 761728, Note_off_c, 0, 56, 55
3, 761728, Note_on_c, 0, 55, 55
3, 761856, Note_off_c, 0, 55, 55
3, 761856, Note_on_c, 0, 55, 55
3, 761856, Note_on_c, 0, 67, 55
3, 761984, Note_off_c, 0, 55, 55
3, 761984, Note_off_c, 0, 67, 55
3, 761984, Note_on_c, 0, 58, 55
3, 761984, Note_on_c, 0, 65, 55
3, 762112, Note_off_c, 0, 58, 55
3, 762112, Note_off_c, 0, 65, 55
3, 762112, Note_on_c, 0, 55, 55
3, 762112, Note_on_c, 0, 63, 55
3, 762240, Note_off_c, 0, 55, 55
3, 762240, Note_off_c, 0, 63, 55
3, 762240, Note_on_c, 0, 58, 55
3, 762368, Note_off_c, 0, 58, 55
3, 762368, Note_on_c, 0, 55, 55
3, 762368, Note_on_c, 0, 65, 55
3, 762496, Note_off_c, 0, 55, 55
3, 762496, Note_off_c, 0, 65, 55
3, 762496, Note_on_c, 0, 58, 55
3, 762496, Note_on_c, 0, 67, 55
3, 762624, Note_off_c, 0, 58, 55
3, 762624, Note_off_c, 0, 67, 55
3, 762624, Note_on_c, 0, 55, 55
3, 762752, Note_off_c, 0, 55, 55
3, 762752, Note_on_c, 0, 58, 55
3, 762880, Note_off_c, 0, 58, 55
3, 762880, Note_on_c, 0, 56, 55
3, 763008, Note_off_c, 0, 56, 55
3, 763008, Note_on_c, 0, 60, 55
3, 763136, Note_off_c, 0, 60, 55
3, 763136, Note_on_c, 0, 56, 55
3, 763264, Note_off_c, 0, 56, 55
3, 763264, Note_on_c, 0, 60, 55
3, 763392, Note_off_c, 0, 60, 55
3, 763392, Note_on_c, 0, 56, 55
3, 763520, Note_off_c, 0, 56, 55
3, 763520, Note_on_c, 0, 60, 55
3, 763648, Note_off_c, 0, 60, 55
3, 763648, Note_on_c, 0, 56, 55
3, 763776, Note_off_c, 0, 56, 55
3, 763776, Note_on_c, 0, 60, 55
3, 763904, Note_off_c, 0, 60, 55
3, 763904, Note_on_c, 0, 53, 55
3, 764032, Note_off_c, 0, 53, 55
3, 764032, Note_on_c, 0, 56, 55
3, 764160, Note_off_c, 0, 56, 55
3, 764160, Note_on_c, 0, 53, 55
3, 764288, Note_off_c, 0, 53, 55
3, 764288, Note_on_c, 0, 56, 55
3, 764416, Note_off_c, 0, 56, 55
3, 764416, Note_on_c, 0, 53, 55
3, 764416, Note_on_c, 0, 62, 55
3, 764544, Note_off_c, 0, 53, 55
3, 764544, Note_off_c, 0, 62, 55
3, 764544, Note_on_c, 0, 56, 55
3, 764544, Note_on_c, 0, 63, 55
3, 764672, Note_off_c, 0, 56, 55
3, 764672, Note_off_c, 0, 63, 55
3, 764672, Note_on_c, 0, 53, 55
3, 764800, Note_off_c, 0, 53, 55
3, 764800, Note_on_c, 0, 56, 55
3, 764928, Note_off_c, 0, 56, 55
3, 764928, Note_on_c, 0, 55, 55
3, 765056, Note_off_c, 0, 55, 55
3, 765056, Note_on_c, 0, 58, 55
3, 765184, Note_off_c, 0, 58, 55
3, 765184, Note_on_c, 0, 55, 55
3, 765312, Note_off_c, 0, 55, 55
3, 765312, Note_on_c, 0, 58, 55
3, 765440, Note_off_c, 0, 58, 55
3, 765440, Note_on_c, 0, 55, 55
3, 765568, Note_off_c, 0, 55, 55
3, 765568, Note_on_c, 0, 58, 55
3, 765696, Note_off_c, 0, 58, 55
3, 765696, Note_on_c, 0, 55, 55
3, 765824, Note_off_c, 0, 55, 55
3, 765824, Note_on_c, 0, 58, 55
3, 765952, Note_off_c, 0, 58, 55
3, 765952, Note_on_c, 0, 55, 55
3, 766080, Note_off_c, 0, 55, 55
3, 766080, Note_on_c, 0, 58, 55
3, 766208, Note_off_c, 0, 58, 55
3, 766208, Note_on_c, 0, 55, 55
3, 766336, Note_off_c, 0, 55, 55
3, 766336, Note_on_c, 0, 58, 55
3, 766464, Note_off_c, 0, 58, 55
3, 766464, Note_on_c, 0, 55, 55
3, 766592, Note_off_c, 0, 55, 55
3, 766592, Note_on_c, 0, 58, 55
3, 766720, Note_off_c, 0, 58, 55
3, 766720, Note_on_c, 0, 55, 55
3, 766848, Note_off_c, 0, 55, 55
3, 766848, Note_on_c, 0, 58, 55
3, 766976, Note_off_c, 0, 58, 55
3, 766976, Note_on_c, 0, 56, 55
3, 767104, Note_off_c, 0, 56, 55
3, 767104, Note_on_c, 0, 60, 55
3, 767232, Note_off_c, 0, 60, 55
3, 767232, Note_on_c, 0, 56, 55
3, 767360, Note_off_c, 0, 56, 55
3, 767360, Note_on_c, 0, 60, 55
3, 767488, Note_off_c, 0, 60, 55
3, 767488, Note_on_c, 0, 56, 55
3, 767616, Note_off_c, 0, 56, 55
3, 767616, Note_on_c, 0, 60, 55
3, 767744, Note_off_c, 0, 60, 55
3, 767744, Note_on_c, 0, 56, 55
3, 767872, Note_off_c, 0, 56, 55
3, 767872, Note_on_c, 0, 60, 55
3, 768000, Note_off_c, 0, 60, 55
3, 768000, Note_on_c, 0, 53, 55
3, 768128, Note_off_c, 0, 53, 55
3, 768128, Note_on_c, 0, 56, 55
3, 768256, Note_off_c, 0, 56, 55
3, 768256, Note_on_c, 0, 53, 55
3, 768384, Note_off_c, 0, 53, 55
3, 768384, Note_on_c, 0, 56, 55
3, 768512, Note_off_c, 0, 56, 55
3, 768512, Note_on_c, 0, 53, 55
3, 768640, Note_off_c, 0, 53, 55
3, 768640, Note_on_c, 0, 56, 55
3, 768768, Note_off_c, 0, 56, 55
3, 768768, Note_on_c, 0, 53, 55
3, 768896, Note_off_c, 0, 53, 55
3, 768896, Note_on_c, 0, 56, 55
3, 769024, Note_off_c, 0, 56, 55
3, 769024, Note_on_c, 0, 55, 55
3, 769152, Note_off_c, 0, 55, 55
3, 769152, Note_on_c, 0, 58, 55
3, 769280, Note_off_c, 0, 58, 55
3, 769280, Note_on_c, 0, 55, 55
3, 769408, Note_off_c, 0, 55, 55
3, 769408, Note_on_c, 0, 58, 55
3, 769536, Note_off_c, 0, 58, 55
3, 769536, Note_on_c, 0, 55, 55
3, 769664, Note_off_c, 0, 55, 55
3, 769664, Note_on_c, 0, 58, 55
3, 769792, Note_off_c, 0, 58, 55
3, 769792, Note_on_c, 0, 55, 55
3, 769920, Note_off_c, 0, 55, 55
3, 769920, Note_on_c, 0, 58, 55
3, 770048, Note_off_c, 0, 58, 55
3, 770048, Note_on_c, 0, 51, 55
3, 770176, Note_off_c, 0, 51, 55
3, 770176, Note_on_c, 0, 55, 55
3, 770304, Note_off_c, 0, 55, 55
3, 770304, Note_on_c, 0, 51, 55
3, 770432, Note_off_c, 0, 51, 55
3, 770432, Note_on_c, 0, 55, 55
3, 770560, Note_off_c, 0, 55, 55
3, 770560, Note_on_c, 0, 51, 55
3, 770688, Note_off_c, 0, 51, 55
3, 770688, Note_on_c, 0, 55, 55
3, 770816, Note_off_c, 0, 55, 55
3, 770816, Note_on_c, 0, 56, 55
3, 770944, Note_off_c, 0, 56, 55
3, 770944, Note_on_c, 0, 55, 55
3, 771072, Note_off_c, 0, 55, 55
3, 771072, Note_on_c, 0, 53, 55
3, 771200, Note_off_c, 0, 53, 55
3, 771200, Note_on_c, 0, 58, 55
3, 771328, Note_off_c, 0, 58, 55
3, 771328, Note_on_c, 0, 53, 55
3, 771456, Note_off_c, 0, 53, 55
3, 771456, Note_on_c, 0, 58, 55
3, 771584, Note_off_c, 0, 58, 55
3, 771584, Note_on_c, 0, 53, 55
3, 771712, Note_off_c, 0, 53, 55
3, 771712, Note_on_c, 0, 58, 55
3, 771840, Note_off_c, 0, 58, 55
3, 771840, Note_on_c, 0, 53, 55
3, 771968, Note_off_c, 0, 53, 55
3, 771968, Note_on_c, 0, 58, 55
3, 772096, Note_off_c, 0, 58, 55
3, 772096, Note_on_c, 0, 53, 55
3, 772224, Note_off_c, 0, 53, 55
3, 772224, Note_on_c, 0, 58, 55
3, 772352, Note_off_c, 0, 58, 55
3, 772352, Note_on_c, 0, 53, 55
3, 772480, Note_off_c, 0, 53, 55
3, 772480, Note_on_c, 0, 58, 55
3, 772608, Note_off_c, 0, 58, 55
3, 772608, Note_on_c, 0, 53, 55
3, 772736, Note_off_c, 0, 53, 55
3, 772736, Note_on_c, 0, 58, 55
3, 772864, Note_off_c, 0, 58, 55
3, 772864, Note_on_c, 0, 56, 55
3, 772992, Note_off_c, 0, 56, 55
3, 772992, Note_on_c, 0, 58, 55
3, 773120, Note_off_c, 0, 58, 55
3, 773120, Note_on_c, 0, 55, 55
3, 773248, Note_off_c, 0, 55, 55
3, 773248, Note_on_c, 0, 58, 55
3, 773376, Note_off_c, 0, 58, 55
3, 773376, Note_on_c, 0, 55, 55
3, 773504, Note_off_c, 0, 55, 55
3, 773504, Note_on_c, 0, 58, 55
3, 773632, Note_off_c, 0, 58, 55
3, 773632, Note_on_c, 0, 55, 55
3, 773760, Note_off_c, 0, 55, 55
3, 773760, Note_on_c, 0, 58, 55
3, 773888, Note_off_c, 0, 58, 55
3, 773888, Note_on_c, 0, 56, 55
3, 774016, Note_off_c, 0, 56, 55
3, 774016, Note_on_c, 0, 58, 55
3, 774144, Note_off_c, 0, 58, 55
3, 774144, Note_on_c, 0, 51, 55
3, 774272, Note_off_c, 0, 51, 55
3, 774272, Note_on_c, 0, 55, 55
3, 774400, Note_off_c, 0, 55, 55
3, 774400, Note_on_c, 0, 51, 55
3, 774528, Note_off_c, 0, 51, 55
3, 774528, Note_on_c, 0, 55, 55
3, 774656, Note_off_c, 0, 55, 55
3, 774656, Note_on_c, 0, 51, 55
3, 774784, Note_off_c, 0, 51, 55
3, 774784, Note_on_c, 0, 55, 55
3, 774912, Note_off_c, 0, 55, 55
3, 774912, Note_on_c, 0, 56, 55
3, 775040, Note_off_c, 0, 56, 55
3, 775040, Note_on_c, 0, 55, 55
3, 775168, Note_off_c, 0, 55, 55
3, 775168, Note_on_c, 0, 53, 55
3, 775296, Note_off_c, 0, 53, 55
3, 775296, Note_on_c, 0, 58, 55
3, 775424, Note_off_c, 0, 58, 55
3, 775424, Note_on_c, 0, 53, 55
3, 775552, Note_off_c, 0, 53, 55
3, 775552, Note_on_c, 0, 58, 55
3, 775680, Note_off_c, 0, 58, 55
3, 775680, Note_on_c, 0, 53, 55
3, 775808, Note_off_c, 0, 53, 55
3, 775808, Note_on_c, 0, 58, 55
3, 775936, Note_off_c, 0, 58, 55
3, 775936, Note_on_c, 0, 53, 55
3, 776064, Note_off_c, 0, 53, 55
3, 776064, Note_on_c, 0, 58, 55
3, 776192, Note_off_c, 0, 58, 55
3, 776192, Note_on_c, 0, 53, 55
3, 776320, Note_off_c, 0, 53, 55
3, 776320, Note_on_c, 0, 58, 55
3, 776448, Note_off_c, 0, 58, 55
3, 776448, Note_on_c, 0, 53, 55
3, 776576, Note_off_c, 0, 53, 55
3, 776576, Note_on_c, 0, 58, 55
3, 776704, Note_off_c, 0, 58, 55
3, 776704, Note_on_c, 0, 53, 55
3, 776832, Note_off_c, 0, 53, 55
3, 776832, Note_on_c, 0, 58, 55
3, 776960, Note_off_c, 0, 58, 55
3, 776960, Note_on_c, 0, 56, 55
3, 777088, Note_off_c, 0, 56, 55
3, 777088, Note_on_c, 0, 58, 55
3, 777216, Note_off_c, 0, 58, 55
3, 777216, Note_on_c, 0, 51, 55
3, 777344, Note_off_c, 0, 51, 55
3, 777344, Note_on_c, 0, 55, 55
3, 777472, Note_off_c, 0, 55, 55
3, 777472, Note_on_c, 0, 51, 55
3, 777600, Note_off_c, 0, 51, 55
3, 777600, Note_on_c, 0, 55, 55
3, 777728, Note_off_c, 0, 55, 55
3, 777728, Note_on_c, 0, 51, 55
3, 777856, Note_off_c, 0, 51, 55
3, 777856, Note_on_c, 0, 58, 55
3, 777984, Note_off_c, 0, 58, 55
3, 777984, Note_on_c, 0, 56, 55
3, 778112, Note_off_c, 0, 56, 55
3, 778112, Note_on_c, 0, 55, 55
3, 778240, Note_off_c, 0, 55, 55
3, 778240, Note_on_c, 0, 55, 55
3, 778240, Note_on_c, 0, 67, 55
3, 778368, Note_off_c, 0, 55, 55
3, 778368, Note_off_c, 0, 67, 55
3, 778368, Note_on_c, 0, 58, 55
3, 778368, Note_on_c, 0, 65, 55
3, 778496, Note_off_c, 0, 58, 55
3, 778496, Note_off_c, 0, 65, 55
3, 778496, Note_on_c, 0, 55, 55
3, 778496, Note_on_c, 0, 63, 55
3, 778624, Note_off_c, 0, 55, 55
3, 778624, Note_off_c, 0, 63, 55
3, 778624, Note_on_c, 0, 58, 55
3, 778752, Note_off_c, 0, 58, 55
3, 778752, Note_on_c, 0, 55, 55
3, 778752, Note_on_c, 0, 65, 55
3, 778880, Note_off_c, 0, 55, 55
3, 778880, Note_off_c, 0, 65, 55
3, 778880, Note_on_c, 0, 58, 55
3, 778880, Note_on_c, 0, 67, 55
3, 779008, Note_off_c, 0, 58, 55
3, 779008, Note_off_c, 0, 67, 55
3, 779008, Note_on_c, 0, 55, 55
3, 779136, Note_off_c, 0, 55, 55
3, 779136, Note_on_c, 0, 58, 55
3, 779264, Note_off_c, 0, 58, 55
3, 779264, Note_on_c, 0, 56, 55
3, 779392, Note_off_c, 0, 56, 55
3, 779392, Note_on_c, 0, 60, 55
3, 779520, Note_off_c, 0, 60, 55
3, 779520, Note_on_c, 0, 56, 55
3, 779648, Note_off_c, 0, 56, 55
3, 779648, Note_on_c, 0, 60, 55
3, 779776, Note_off_c, 0, 60, 55
3, 779776, Note_on_c, 0, 56, 55
3, 779904, Note_off_c, 0, 56, 55
3, 779904, Note_on_c, 0, 60, 55
3, 780032, Note_off_c, 0, 60, 55
3, 780032, Note_on_c, 0, 56, 55
3, 780160, Note_off_c, 0, 56, 55
3, 780160, Note_on_c, 0, 60, 55
3, 780288, Note_off_c, 0, 60, 55
3, 780288, Note_on_c, 0, 53, 55
3, 780416, Note_off_c, 0, 53, 55
3, 780416, Note_on_c, 0, 56, 55
3, 780544, Note_off_c, 0, 56, 55
3, 780544, Note_on_c, 0, 53, 55
3, 780672, Note_off_c, 0, 53, 55
3, 780672, Note_on_c, 0, 56, 55
3, 780800, Note_off_c, 0, 56, 55
3, 780800, Note_on_c, 0, 53, 55
3, 780800, Note_on_c, 0, 62, 55
3, 780928, Note_off_c, 0, 53, 55
3, 780928, Note_off_c, 0, 62, 55
3, 780928, Note_on_c, 0, 56, 55
3, 780928, Note_on_c, 0, 63, 55
3, 781056, Note_off_c, 0, 56, 55
3, 781056, Note_off_c, 0, 63, 55
3, 781056, Note_on_c, 0, 53, 55
3, 781184, Note_off_c, 0, 53, 55
3, 781184, Note_on_c, 0, 56, 55
3, 781312, Note_off_c, 0, 56, 55
3, 781312, Note_on_c, 0, 55, 55
3, 781440, Note_off_c, 0, 55, 55
3, 781440, Note_on_c, 0, 58, 55
3, 781568, Note_off_c, 0, 58, 55
3, 781568, Note_on_c, 0, 55, 55
3, 781696, Note_off_c, 0, 55, 55
3, 781696, Note_on_c, 0, 58, 55
3, 781824, Note_off_c, 0, 58, 55
3, 781824, Note_on_c, 0, 55, 55
3, 781952, Note_off_c, 0, 55, 55
3, 781952, Note_on_c, 0, 58, 55
3, 782080, Note_off_c, 0, 58, 55
3, 782080, Note_on_c, 0, 55, 55
3, 782208, Note_off_c, 0, 55, 55
3, 782208, Note_on_c, 0, 58, 55
3, 782336, Note_off_c, 0, 58, 55
3, 782336, Note_on_c, 0, 55, 55
3, 782464, Note_off_c, 0, 55, 55
3, 782464, Note_on_c, 0, 58, 55
3, 782592, Note_off_c, 0, 58, 55
3, 782592, Note_on_c, 0, 55, 55
3, 782720, Note_off_c, 0, 55, 55
3, 782720, Note_on_c, 0, 58, 55
3, 782848, Note_off_c, 0, 58, 55
3, 782848, Note_on_c, 0, 55, 55
3, 782976, Note_off_c, 0, 55, 55
3, 782976, Note_on_c, 0, 58, 55
3, 783104, Note_off_c, 0, 58, 55
3, 783104, Note_on_c, 0, 55, 55
3, 783232, Note_off_c, 0, 55, 55
3, 783232, Note_on_c, 0, 58, 55
3, 783360, Note_off_c, 0, 58, 55
3, 783360, Note_on_c, 0, 56, 55
3, 783488, Note_off_c, 0, 56, 55
3, 783488, Note_on_c, 0, 60, 55
3, 783616, Note_off_c, 0, 60, 55
3, 783616, Note_on_c, 0, 56, 55
3, 783744, Note_off_c, 0, 56, 55
3, 783744, Note_on_c, 0, 60, 55
3, 783872, Note_off_c, 0, 60, 55
3, 783872, Note_on_c, 0, 56, 55
3, 784000, Note_off_c, 0, 56, 55
3, 784000, Note_on_c, 0, 60, 55
3, 784128, Note_off_c, 0, 60, 55
3, 784128, Note_on_c, 0, 56, 55
3, 784256, Note_off_c, 0, 56, 55
3, 784256, Note_on_c, 0, 60, 55
3, 784384, Note_off_c, 0, 60, 55
3, 784384, Note_on_c, 0, 53, 55
3, 784512, Note_off_c, 0, 53, 55
3, 784512, Note_on_c, 0, 56, 55
3, 784640, Note_off_c, 0, 56, 55
3, 784640, Note_on_c, 0, 53, 55
3, 784768, Note_off_c, 0, 53, 55
3, 784768, Note_on_c, 0, 56, 55
3, 784896, Note_off_c, 0, 56, 55
3, 784896, Note_on_c, 0, 53, 55
3, 785024, Note_off_c, 0, 53, 55
3, 785024, Note_on_c, 0, 56, 55
3, 785152, Note_off_c, 0, 56, 55
3, 785152, Note_on_c, 0, 53, 55
3, 785280, Note_off_c, 0, 53, 55
3, 785280, Note_on_c, 0, 56, 55
3, 785408, Note_off_c, 0, 56, 55
3, 785408, Note_on_c, 0, 55, 55
3, 785536, Note_off_c, 0, 55, 55
3, 785536, Note_on_c, 0, 58, 55
3, 785664, Note_off_c, 0, 58, 55
3, 785664, Note_on_c, 0, 55, 55
3, 785792, Note_off_c, 0, 55, 55
3, 785792, Note_on_c, 0, 58, 55
3, 785920, Note_off_c, 0, 58, 55
3, 785920, Note_on_c, 0, 55, 55
3, 786048, Note_off_c, 0, 55, 55
3, 786048, Note_on_c, 0, 58, 55
3, 786176, Note_off_c, 0, 58, 55
3, 786176, Note_on_c, 0, 55, 55
3, 786304, Note_off_c, 0, 55, 55
3, 786304, Note_on_c, 0, 58, 55
3, 786432, Note_off_c, 0, 58, 55
3, 786432, Note_on_c, 0, 51, 55
3, 786560, Note_off_c, 0, 51, 55
3, 786560, Note_on_c, 0, 55, 55
3, 786688, Note_off_c, 0, 55, 55
3, 786688, Note_on_c, 0, 51, 55
3, 786816, Note_off_c, 0, 51, 55
3, 786816, Note_on_c, 0, 55, 55
3, 786944, Note_off_c, 0, 55, 55
3, 786944, Note_on_c, 0, 51, 55
3, 787072, Note_off_c, 0, 51, 55
3, 787072, Note_on_c, 0, 55, 55
3, 787200, Note_off_c, 0, 55, 55
3, 787200, Note_on_c, 0, 56, 55
3, 787328, Note_off_c, 0, 56, 55
3, 787328, Note_on_c, 0, 55, 55
3, 787456, Note_off_c, 0, 55, 55
3, 787456, Note_on_c, 0, 53, 55
3, 787584, Note_off_c, 0, 53, 55
3, 787584, Note_on_c, 0, 58, 55
3, 787712, Note_off_c, 0, 58, 55
3, 787712, Note_on_c, 0, 53, 55
3, 787840, Note_off_c, 0, 53, 55
3, 787840, Note_on_c, 0, 58, 55
3, 787968, Note_off_c, 0, 58, 55
3, 787968, Note_on_c, 0, 53, 55
3, 788096, Note_off_c, 0, 53, 55
3, 788096, Note_on_c, 0, 58, 55
3, 788224, Note_off_c, 0, 58, 55
3, 788224, Note_on_c, 0, 53, 55
3, 788352, Note_off_c, 0, 53, 55
3, 788352, Note_on_c, 0, 58, 55
3, 788480, Note_off_c, 0, 58, 55
3, 788480, Note_on_c, 0, 53, 55
3, 788608, Note_off_c, 0, 53, 55
3, 788608, Note_on_c, 0, 58, 55
3, 788736, Note_off_c, 0, 58, 55
3, 788736, Note_on_c, 0, 53, 55
3, 788864, Note_off_c, 0, 53, 55
3, 788864, Note_on_c, 0, 58, 55
3, 788992, Note_off_c, 0, 58, 55
3, 788992, Note_on_c, 0, 53, 55
3, 789120, Note_off_c, 0, 53, 55
3, 789120, Note_on_c, 0, 58, 55
3, 789248, Note_off_c, 0, 58, 55
3, 789248, Note_on_c, 0, 56, 55
3, 789376, Note_off_c, 0, 56, 55
3, 789376, Note_on_c, 0, 58, 55
3, 789504, Note_off_c, 0, 58, 55
3, 789504, Note_on_c, 0, 55, 55
3, 789632, Note_off_c, 0, 55, 55
3, 789632, Note_on_c, 0, 58, 55
3, 789760, Note_off_c, 0, 58, 55
3, 789760, Note_on_c, 0, 55, 55
3, 789888, Note_off_c, 0, 55, 55
3, 789888, Note_on_c, 0, 58, 55
3, 790016, Note_off_c, 0, 58, 55
3, 790016, Note_on_c, 0, 55, 55
3, 790144, Note_off_c, 0, 55, 55
3, 790144, Note_on_c, 0, 58, 55
3, 790272, Note_off_c, 0, 58, 55
3, 790272, Note_on_c, 0, 56, 55
3, 790400, Note_off_c, 0, 56, 55
3, 790400, Note_on_c, 0, 58, 55
3, 790528, Note_off_c, 0, 58, 55
3, 790528, Note_on_c, 0, 51, 55
3, 790656, Note_off_c, 0, 51, 55
3, 790656, Note_on_c, 0, 55, 55
3, 790784, Note_off_c, 0, 55, 55
3, 790784, Note_on_c, 0, 51, 55
3, 790912, Note_off_c, 0, 51, 55
3, 790912, Note_on_c, 0, 55, 55
3, 791040, Note_off_c, 0, 55, 55
3, 791040, Note_on_c, 0, 51, 55
3, 791168, Note_off_c, 0, 51, 55
3, 791168, Note_on_c, 0, 55, 55
3, 791296, Note_off_c, 0, 55, 55
3, 791296, Note_on_c, 0, 56, 55
3, 791424, Note_off_c, 0, 56, 55
3, 791424, Note_on_c, 0, 55, 55
3, 791552, Note_off_c, 0, 55, 55
3, 791552, Note_on_c, 0, 53, 55
3, 791680, Note_off_c, 0, 53, 55
3, 791680, Note_on_c, 0, 58, 55
3, 791808, Note_off_c, 0, 58, 55
3, 791808, Note_on_c, 0, 53, 55
3, 791936, Note_off_c, 0, 53, 55
3, 791936, Note_on_c, 0, 58, 55
3, 792064, Note_off_c, 0, 58, 55
3, 792064, Note_on_c, 0, 53, 55
3, 792192, Note_off_c, 0, 53, 55
3, 792192, Note_on_c, 0, 58, 55
3, 792320, Note_off_c, 0, 58, 55
3, 792320, Note_on_c, 0, 53, 55
3, 792448, Note_off_c, 0, 53, 55
3, 792448, Note_on_c, 0, 58, 55
3, 792576, Note_off_c, 0, 58, 55
3, 792576, Note_on_c, 0, 53, 55
3, 792704, Note_off_c, 0, 53, 55
3, 792704, Note_on_c, 0, 58, 55
3, 792832, Note_off_c, 0, 58, 55
3, 792832, Note_on_c, 0, 53, 55
3, 792960, Note_off_c, 0, 53, 55
3, 792960, Note_on_c, 0, 58, 55
3, 793088, Note_off_c, 0, 58, 55
3, 793088, Note_on_c, 0, 53, 55
3, 793216, Note_off_c, 0, 53, 55
3, 793216, Note_on_c, 0, 58, 55
3, 793344, Note_off_c, 0, 58, 55
3, 793344, Note_on_c, 0, 56, 55
3, 793472, Note_off_c, 0, 56, 55
3, 793472, Note_on_c, 0, 58, 55
3, 793600, Note_off_c, 0, 58, 55
3, 793600, Note_on_c, 0, 51, 55
3, 793728, Note_off_c, 0, 51, 55
3, 793728, Note_on_c, 0, 55, 55
3, 793856, Note_off_c, 0, 55, 55
3, 793856, Note_on_c, 0, 51, 55
3, 793984, Note_off_c, 0, 51, 55
3, 793984, Note_on_c, 0, 55, 55
3, 794112, Note_off_c, 0, 55, 55
3, 794112, Note_on_c, 0, 51, 55
3, 794240, Note_off_c, 0, 51, 55
3, 794240, Note_on_c, 0, 58, 55
3, 794368, Note_off_c, 0, 58, 55
3, 794368, Note_on_c, 0, 56, 55
3, 794496, Note_off_c, 0, 56, 55
3, 794496, Note_on_c, 0, 55, 55
3, 794624, Note_off_c, 0, 55, 55
3, 794624, Note_on_c, 0, 55, 55
3, 794624, Note_on_c, 0, 67, 55
3, 794752, Note_off_c, 0, 55, 55
3, 794752, Note_off_c, 0, 67, 55
3, 794752, Note_on_c, 0, 58, 55
3, 794752, Note_on_c, 0, 65, 55
3, 794880, Note_off_c, 0, 58, 55
3, 794880, Note_off_c, 0, 65, 55
3, 794880, Note_on_c, 0, 55, 55
3, 794880, Note_on_c, 0, 63, 55
3, 795008, Note_off_c, 0, 55, 55
3, 795008, Note_off_c, 0, 63, 55
3, 795008, Note_on_c, 0, 58, 55
3, 795136, Note_off_c, 0, 58, 55
3, 795136, Note_on_c, 0, 55, 55
3, 795136, Note_on_c, 0, 65, 55
3, 795264, Note_off_c, 0, 55, 55
3, 795264, Note_off_c, 0, 65, 55
3, 795264, Note_on_c, 0, 58, 55
3, 795264, Note_on_c, 0, 67, 55
3, 795392, Note_off_c, 0, 58, 55
3, 795392, Note_off_c, 0, 67, 55
3, 795392, Note_on_c, 0, 55, 55
3, 795520, Note_off_c, 0, 55, 55
3, 795520, Note_on_c, 0, 58, 55
3, 795648, Note_off_c, 0, 58, 55
3, 795648, Note_on_c, 0, 56, 55
3, 795776, Note_off_c, 0, 56, 55
3, 795776, Note_on_c, 0, 60, 55
3, 795904, Note_off_c, 0, 60, 55
3, 795904, Note_on_c, 0, 56, 55
3, 796032, Note_off_c, 0, 56, 55
3, 796032, Note_on_c, 0, 60, 55
3, 796160, Note_off_c, 0, 60, 55
3, 796160, Note_on_c, 0, 56, 55
3, 796288, Note_off_c, 0, 56, 55
3, 796288, Note_on_c, 0, 60, 55
3, 796416, Note_off_c, 0, 60, 55
3, 796416, Note_on_c, 0, 56, 55
3, 796544, Note_off_c, 0, 56, 55
3, 796544, Note_on_c, 0, 60, 55
3, 796672, Note_off_c, 0, 60, 55
3, 796672, Note_on_c, 0, 53, 55
3, 796800, Note_off_c, 0, 53, 55
3, 796800, Note_on_c, 0, 56, 55
3, 796928, Note_off_c, 0, 56, 55
3, 796928, Note_on_c, 0, 53, 55
3, 797056, Note_off_c, 0, 53, 55
3, 797056, Note_on_c, 0, 56, 55
3, 797184, Note_off_c, 0, 56, 55
3, 797184, Note_on_c, 0, 53, 55
3, 797184, Note_on_c, 0, 62, 55
3, 797312, Note_off_c, 0, 53, 55
3, 797312, Note_off_c, 0, 62, 55
3, 797312, Note_on_c, 0, 56, 55
3, 797312, Note_on_c, 0, 63, 55
3, 797440, Note_off_c, 0, 56, 55
3, 797440, Note_off_c, 0, 63, 55
3, 797440, Note_on_c, 0, 53, 55
3, 797568, Note_off_c, 0, 53, 55
3, 797568, Note_on_c, 0, 56, 55
3, 797696, Note_off_c, 0, 56, 55
3, 797696, Note_on_c, 0, 55, 55
3, 797824, Note_off_c, 0, 55, 55
3, 797824, Note_on_c, 0, 58, 55
3, 797952, Note_off_c, 0, 58, 55
3, 797952, Note_on_c, 0, 55, 55
3, 798080, Note_off_c, 0, 55, 55
3, 798080, Note_on_c, 0, 58, 55
3, 798208, Note_off_c, 0, 58, 55
3, 798208, Note_on_c, 0, 55, 55
3, 798336, Note_off_c, 0, 55, 55
3, 798336, Note_on_c, 0, 58, 55
3, 798464, Note_off_c, 0, 58, 55
3, 798464, Note_on_c, 0, 55, 55
3, 798592, Note_off_c, 0, 55, 55
3, 798592, Note_on_c, 0, 58, 55
3, 798720, Note_off_c, 0, 58, 55
3, 798720, Note_on_c, 0, 55, 55
3, 798848, Note_off_c, 0, 55, 55
3, 798848, Note_on_c, 0, 58, 55
3, 798976, Note_off_c, 0, 58, 55
3, 798976, Note_on_c, 0, 55, 55
3, 799104, Note_off_c, 0, 55, 55
3, 799104, Note_on_c, 0, 58, 55
3, 799232, Note_off_c, 0, 58, 55
3, 799232, Note_on_c, 0, 55, 55
3, 799360, Note_off_c, 0, 55, 55
3, 799360, Note_on_c, 0, 58, 55
3, 799488, Note_off_c, 0, 58, 55
3, 799488, Note_on_c, 0, 55, 55
3, 799616, Note_off_c, 0, 55, 55
3, 799616, Note_on_c, 0, 58, 55
3, 799744, Note_off_c, 0, 58, 55
3, 799744, Note_on_c, 0, 56, 55
3, 799872, Note_off_c, 0, 56, 55
3, 799872, Note_on_c, 0, 60, 55
3, 800000, Note_off_c, 0, 60, 55
3, 800000, Note_on_c, 0, 56, 55
3, 800128, Note_off_c, 0, 56, 55
3, 800128, Note_on_c, 0, 60, 55
3, 800256, Note_off_c, 0, 60, 55
3, 800256, Note_on_c, 0, 56, 55
3, 800384, Note_off_c, 0, 56, 55
3, 800384, Note_on_c, 0, 60, 55
3, 800512, Note_off_c, 0, 60, 55
3, 800512, Note_on_c, 0, 56, 55
3, 800640, Note_off_c, 0, 56, 55
3, 800640, Note_on_c, 0, 60, 55
3, 800768, Note_off_c, 0, 60, 55
3, 800768, Note_on_c, 0, 53, 55
3, 800896, Note_off_c, 0, 53, 55
3, 800896, Note_on_c, 0, 56, 55
3, 801024, Note_off_c, 0, 56, 55
3, 801024, Note_on_c, 0, 53, 55
3, 801152, Note_off_c, 0, 53, 55
3, 801152, Note_on_c, 0, 56, 55
3, 801280, Note_off_c, 0, 56, 55
3, 801280, Note_on_c, 0, 53, 55
3, 801408, Note_off_c, 0, 53, 55
3, 801408, Note_on_c, 0, 56, 55
3, 801536, Note_off_c, 0, 56, 55
3, 801536, Note_on_c, 0, 53, 55
3, 801664, Note_off_c, 0, 53, 55
3, 801664, Note_on_c, 0, 56, 55
3, 801792, Note_off_c, 0, 56, 55
3, 801792, Note_on_c, 0, 55, 55
3, 801920, Note_off_c, 0, 55, 55
3, 801920, Note_on_c, 0, 58, 55
3, 802048, Note_off_c, 0, 58, 55
3, 802048, Note_on_c, 0, 55, 55
3, 802176, Note_off_c, 0, 55, 55
3, 802176, Note_on_c, 0, 58, 55
3, 802304, Note_off_c, 0, 58, 55
3, 802304, Note_on_c, 0, 55, 55
3, 802432, Note_off_c, 0, 55, 55
3, 802432, Note_on_c, 0, 58, 55
3, 802560, Note_off_c, 0, 58, 55
3, 802560, Note_on_c, 0, 55, 55
3, 802688, Note_off_c, 0, 55, 55
3, 802688, Note_on_c, 0, 58, 55
3, 802816, Note_off_c, 0, 58, 55
3, 802816, Note_on_c, 0, 51, 55
3, 802944, Note_off_c, 0, 51, 55
3, 802944, Note_on_c, 0, 55, 55
3, 803072, Note_off_c, 0, 55, 55
3, 803072, Note_on_c, 0, 51, 55
3, 803200, Note_off_c, 0, 51, 55
3, 803200, Note_on_c, 0, 55, 55
3, 803328, Note_off_c, 0, 55, 55
3, 803328, Note_on_c, 0, 51, 55
3, 803456, Note_off_c, 0, 51, 55
3, 803456, Note_on_c, 0, 55, 55
3, 803584, Note_off_c, 0, 55, 55
3, 803584, Note_on_c, 0, 56, 55
3, 803712, Note_off_c, 0, 56, 55
3, 803712, Note_on_c, 0, 55, 55
3, 803840, Note_off_c, 0, 55, 55
3, 803840, Note_on_c, 0, 53, 55
3, 803968, Note_off_c, 0, 53, 55
3, 803968, Note_on_c, 0, 58, 55
3, 804096, Note_off_c, 0, 58, 55
3, 804096, Note_on_c, 0, 53, 55
3, 804224, Note_off_c, 0, 53, 55
3, 804224, Note_on_c, 0, 58, 55
3, 804352, Note_off_c, 0, 58, 55
3, 804352, Note_on_c, 0, 53, 55
3, 804480, Note_off_c, 0, 53, 55
3, 804480, Note_on_c, 0, 58, 55
3, 804608, Note_off_c, 0, 58, 55
3, 804608, Note_on_c, 0, 53, 55
3, 804736, Note_off_c, 0, 53, 55
3, 804736, Note_on_c, 0, 58, 55
3, 804864, Note_off_c, 0, 58, 55
3, 804864, Note_on_c, 0, 53, 55
3, 804992, Note_off_c, 0, 53, 55
3, 804992, Note_on_c, 0, 58, 55
3, 805120, Note_off_c, 0, 58, 55
3, 805120, Note_on_c, 0, 53, 55
3, 805248, Note_off_c, 0, 53, 55
3, 805248, Note_on_c, 0, 58, 55
3, 805376, Note_off_c, 0, 58, 55
3, 805376, Note_on_c, 0, 53, 55
3, 805504, Note_off_c, 0, 53, 55
3, 805504, Note_on_c, 0, 58, 55
3, 805632, Note_off_c, 0, 58, 55
3, 805632, Note_on_c, 0, 56, 55
3, 805760, Note_off_c, 0, 56, 55
3, 805760, Note_on_c, 0, 58, 55
3, 805888, Note_off_c, 0, 58, 55
3, 805888, Note_on_c, 0, 55, 55
3, 806016, Note_off_c, 0, 55, 55
3, 806016, Note_on_c, 0, 58, 55
3, 806144, Note_off_c, 0, 58, 55
3, 806144, Note_on_c, 0, 55, 55
3, 806272, Note_off_c, 0, 55, 55
3, 806272, Note_on_c, 0, 58, 55
3, 806400, Note_off_c, 0, 58, 55
3, 806400, Note_on_c, 0, 55, 55
3, 806528, Note_off_c, 0, 55, 55
3, 806528, Note_on_c, 0, 58, 55
3, 806656, Note_off_c, 0, 58, 55
3, 806656, Note_on_c, 0, 56, 55
3, 806784, Note_off_c, 0, 56, 55
3, 806784, Note_on_c, 0, 58, 55
3, 806912, Note_off_c, 0, 58, 55
3, 806912, Note_on_c, 0, 51, 55
3, 807040, Note_off_c, 0, 51, 55
3, 807040, Note_on_c, 0, 55, 55
3, 807168, Note_off_c, 0, 55, 55
3, 807168, Note_on_c, 0, 51, 55
3, 807296, Note_off_c, 0, 51, 55
3, 807296, Note_on_c, 0, 55, 55
3, 807424, Note_off_c, 0, 55, 55
3, 807424, Note_on_c, 0, 51, 55
3, 807552, Note_off_c, 0, 51, 55
3, 807552, Note_on_c, 0, 55, 55
3, 807680, Note_off_c, 0, 55, 55
3, 807680, Note_on_c, 0, 56, 55
3, 807808, Note_off_c, 0, 56, 55
3, 807808, Note_on_c, 0, 55, 55
3, 807936, Note_off_c, 0, 55, 55
3, 807936, Note_on_c, 0, 53, 55
3, 808064, Note_off_c, 0, 53, 55
3, 808064, Note_on_c, 0, 58, 55
3, 808192, Note_off_c, 0, 58, 55
3, 808192, Note_on_c, 0, 53, 55
3, 808320, Note_off_c, 0, 53, 55
3, 808320, Note_on_c, 0, 58, 55
3, 808448, Note_off_c, 0, 58, 55
3, 808448, Note_on_c, 0, 53, 55
3, 808576, Note_off_c, 0, 53, 55
3, 808576, Note_on_c, 0, 58, 55
3, 808704, Note_off_c, 0, 58, 55
3, 808704, Note_on_c, 0, 53, 55
3, 808832, Note_off_c, 0, 53, 55
3, 808832, Note_on_c, 0, 58, 55
3, 808960, Note_off_c, 0, 58, 55
3, 808960, Note_on_c, 0, 53, 55
3, 809088, Note_off_c, 0, 53, 55
3, 809088, Note_on_c, 0, 58, 55
3, 809216, Note_off_c, 0, 58, 55
3, 809216, Note_on_c, 0, 53, 55
3, 809344, Note_off_c, 0, 53, 55
3, 809344, Note_on_c, 0, 58, 55
3, 809472, Note_off_c, 0, 58, 55
3, 809472, Note_on_c, 0, 53, 55
3, 809600, Note_off_c, 0, 53, 55
3, 809600, Note_on_c, 0, 58, 55
3, 809728, Note_off_c, 0, 58, 55
3, 809728, Note_on_c, 0, 56, 55
3, 809856, Note_off_c, 0, 56, 55
3, 809856, Note_on_c, 0, 58, 55
3, 809984, Note_off_c, 0, 58, 55
3, 809984, Note_on_c, 0, 51, 55
3, 810112, Note_off_c, 0, 51, 55
3, 810112, Note_on_c, 0, 55, 55
3, 810240, Note_off_c, 0, 55, 55
3, 810240, Note_on_c, 0, 51, 55
3, 810368, Note_off_c, 0, 51, 55
3, 810368, Note_on_c, 0, 55, 55
3, 810496, Note_off_c, 0, 55, 55
3, 810496, Note_on_c, 0, 51, 55
3, 810624, Note_off_c, 0, 51, 55
3, 810624, Note_on_c, 0, 58, 55
3, 810752, Note_off_c, 0, 58, 55
3, 810752, Note_on_c, 0, 56, 55
3, 810880, Note_off_c, 0, 56, 55
3, 810880, Note_on_c, 0, 55, 55
3, 811008, Note_off_c, 0, 55, 55
3, 811008, Note_on_c, 0, 55, 55
3, 811008, Note_on_c, 0, 67, 55
3, 811136, Note_off_c, 0, 55, 55
3, 811136, Note_off_c, 0, 67, 55
3, 811136, Note_on_c, 0, 58, 55
3, 811136, Note_on_c, 0, 65, 55
3, 811264, Note_off_c, 0, 58, 55
3, 811264, Note_off_c, 0, 65, 55
3, 811264, Note_on_c, 0, 55, 55
3, 811264, Note_on_c, 0, 63, 55
3, 811392, Note_off_c, 0, 55, 55
3, 811392, Note_off_c, 0, 63, 55
3, 811392, Note_on_c, 0, 58, 55
3, 811520, Note_off_c, 0, 58, 55
3, 811520, Note_on_c, 0, 55, 55
3, 811520, Note_on_c, 0, 65, 55
3, 811648, Note_off_c, 0, 55, 55
3, 811648, Note_off_c, 0, 65, 55
3, 811648, Note_on_c, 0, 58, 55
3, 811648, Note_on_c, 0, 67, 55
3, 811776, Note_off_c, 0, 58, 55
3, 811776, Note_off_c, 0, 67, 55
3, 811776, Note_on_c, 0, 55, 55
3, 811904, Note_off_c, 0, 55, 55
3, 811904, Note_on_c, 0, 58, 55
3, 812032, Note_off_c, 0, 58, 55
3, 812032, Note_on_c, 0, 56, 55
3, 812160, Note_off_c, 0, 56, 55
3, 812160, Note_on_c, 0, 60, 55
3, 812288, Note_off_c, 0, 60, 55
3, 812288, Note_on_c, 0, 56, 55
3, 812416, Note_off_c, 0, 56, 55
3, 812416, Note_on_c, 0, 60, 55
3, 812544, Note_off_c, 0, 60, 55
3, 812544, Note_on_c, 0, 56, 55
3, 812672, Note_off_c, 0, 56, 55
3, 812672, Note_on_c, 0, 60, 55
3, 812800, Note_off_c, 0, 60, 55
3, 812800, Note_on_c, 0, 56, 55
3, 812928, Note_off_c, 0, 56, 55
3, 812928, Note_on_c, 0, 60, 55
3, 813056, Note_off_c, 0, 60, 55
3, 813056, Note_on_c, 0, 53, 55
3, 813184, Note_off_c, 0, 53, 55
3, 813184, Note_on_c, 0, 56, 55
3, 813312, Note_off_c, 0, 56, 55
3, 813312, Note_on_c, 0, 53, 55
3, 813440, Note_off_c, 0, 53, 55
3, 813440, Note_on_c, 0, 56, 55
3, 813568, Note_off_c, 0, 56, 55
3, 813568, Note_on_c, 0, 53, 55
3, 813568, Note_on_c, 0, 62, 55
3, 813696, Note_off_c, 0, 53, 55
3, 813696, Note_off_c, 0, 62, 55
3, 813696, Note_on_c, 0, 56, 55
3, 813696, Note_on_c, 0, 63, 55
3, 813824, Note_off_c, 0, 56, 55
3, 813824, Note_off_c, 0, 63, 55
3, 813824, Note_on_c, 0, 53, 55
3, 813952, Note_off_c, 0, 53, 55
3, 813952, Note_on_c, 0, 56, 55
3, 814080, Note_off_c, 0, 56, 55
3, 814080, Note_on_c, 0, 55, 55
3, 814208, Note_off_c, 0, 55, 55
3, 814208, Note_on_c, 0, 58, 55
3, 814336, Note_off_c, 0, 58, 55
3, 814336, Note_on_c, 0, 55, 55
3, 814464, Note_off_c, 0, 55, 55
3, 814464, Note_on_c, 0, 58, 55
3, 814592, Note_off_c, 0, 58, 55
3, 814592, Note_on_c, 0, 55, 55
3, 814720, Note_off_c, 0, 55, 55
3, 814720, Note_on_c, 0, 58, 55
3, 814848, Note_off_c, 0, 58, 55
3, 814848, Note_on_c, 0, 55, 55
3, 814976, Note_off_c, 0, 55, 55
3, 814976, Note_on_c, 0, 58, 55
3, 815104, Note_off_c, 0, 58, 55
3, 815104, Note_on_c, 0, 55, 55
3, 815232, Note_off_c, 0, 55, 55
3, 815232, Note_on_c, 0, 58, 55
3, 815360, Note_off_c, 0, 58, 55
3, 815360, Note_on_c, 0, 55, 55
3, 815488, Note_off_c, 0, 55, 55
3, 815488, Note_on_c, 0, 58, 55
3, 815616, Note_off_c, 0, 58, 55
3, 815616, Note_on_c, 0, 55, 55
3, 815744, Note_off_c, 0, 55, 55
3, 815744, Note_on_c, 0, 58, 55
3, 815872, Note_off_c, 0, 58, 55
3, 815872, Note_on_c, 0, 55, 55
3, 816000, Note_off_c, 0, 55, 55
3, 816000, Note_on_c, 0, 58, 55
3, 816128, Note_off_c, 0, 58, 55
3, 816128, Note_on_c, 0, 56, 55
3, 816256, Note_off_c, 0, 56, 55
3, 816256, Note_on_c, 0, 60, 55
3, 816384, Note_off_c, 0, 60, 55
3, 816384, Note_on_c, 0, 56, 55
3, 816512, Note_off_c, 0, 56, 55
3, 816512, Note_on_c, 0, 60, 55
3, 816640, Note_off_c, 0, 60, 55
3, 816640, Note_on_c, 0, 56, 55
3, 816768, Note_off_c, 0, 56, 55
3, 816768, Note_on_c, 0, 60, 55
3, 816896, Note_off_c, 0, 60, 55
3, 816896, Note_on_c, 0, 56, 55
3, 817024, Note_off_c, 0, 56, 55
3, 817024, Note_on_c, 0, 60, 55
3, 817152, Note_off_c, 0, 60, 55
3, 817152, Note_on_c, 0, 53, 55
3, 817280, Note_off_c, 0, 53, 55
3, 817280, Note_on_c, 0, 56, 55
3, 817408, Note_off_c, 0, 56, 55
3, 817408, Note_on_c, 0, 53, 55
3, 817536, Note_off_c, 0, 53, 55
3, 817536, Note_on_c, 0, 56, 55
3, 817664, Note_off_c, 0, 56, 55
3, 817664, Note_on_c, 0, 53, 55
3, 817792, Note_off_c, 0, 53, 55
3, 817792, Note_on_c, 0, 56, 55
3, 817920, Note_off_c, 0, 56, 55
3, 817920, Note_on_c, 0, 53, 55
3, 818048, Note_off_c, 0, 53, 55
3, 818048, Note_on_c, 0, 56, 55
3, 818176, Note_off_c, 0, 56, 55
3, 818176, Note_on_c, 0, 55, 55
3, 818304, Note_off_c, 0, 55, 55
3, 818304, Note_on_c, 0, 58, 55
3, 818432, Note_off_c, 0, 58, 55
3, 818432, Note_on_c, 0, 55, 55
3, 818560, Note_off_c, 0, 55, 55
3, 818560, Note_on_c, 0, 58, 55
3, 818688, Note_off_c, 0, 58, 55
3, 818688, Note_on_c, 0, 55, 55
3, 818816, Note_off_c, 0, 55, 55
3, 818816, Note_on_c, 0, 58, 55
3, 818944, Note_off_c, 0, 58, 55
3, 818944, Note_on_c, 0, 55, 55
3, 819072, Note_off_c, 0, 55, 55
3, 819072, Note_on_c, 0, 58, 55
3, 819200, Note_off_c, 0, 58, 55
3, 819328, Control_c, 0, 93, 0
3, 819328, End_track
0, 0, End_of_file
