0, 0, Header, 1, 4, 256
1, 0, Start_track
1, 0, Tempo, 500000
1, 0, Title_t, "<Title>"
1, 0, Copyright_t, "@<copyright>"
1, 0, End_track
2, 0, Start_track
2, 0, Title_t, "Piano (Left Hand)"
2, 0, Control_c, 0, 7, 127
2, 0, Control_c, 0, 10, 64
2, 0, Control_c, 0, 0, 0
2, 0, Control_c, 0, 32, 0
2, 0, Program_c, 0, 0
2, 0, Control_c, 0, 93, 0
2, 0, Time_signature, 4, 2, 24, 8
2, 0, Key_signature, -3, "major"
2, 1024, Control_c, 0, 93, 0
2, 1024, Note_on_c, 0, 51, 67
2, 1088, Note_off_c, 0, 51, 67
2, 1152, Note_off_c, 0, 51, 67
2, 1152, Note_on_c, 0, 63, 67
2, 1216, Note_off_c, 0, 63, 67
2, 1280, Note_off_c, 0, 63, 67
2, 1280, Note_on_c, 0, 50, 67
2, 1344, Note_off_c, 0, 50, 67
2, 1408, Note_off_c, 0, 50, 67
2, 1408, Note_on_c, 0, 62, 67
2, 1472, Note_off_c, 0, 62, 67
2, 1536, Note_off_c, 0, 62, 67
2, 1536, Note_on_c, 0, 48, 67
2, 1600, Note_off_c, 0, 48, 67
2, 1664, Note_off_c, 0, 48, 67
2, 1664, Note_on_c, 0, 60, 67
2, 1728, Note_off_c, 0, 60, 67
2, 1792, Note_off_c, 0, 60, 67
2, 1792, Note_on_c, 0, 46, 67
2, 1856, Note_off_c, 0, 46, 67
2, 1920, Note_off_c, 0, 46, 67
2, 1920, Note_on_c, 0, 58, 67
2, 1984, Note_off_c, 0, 58, 67
2, 2048, Note_off_c, 0, 58, 67
2, 2048, Note_on_c, 0, 51, 67
2, 2112, Note_off_c, 0, 51, 67
2, 2176, Note_off_c, 0, 51, 67
2, 2176, Note_on_c, 0, 63, 67
2, 2240, Note_off_c, 0, 63, 67
2, 2304, Note_off_c, 0, 63, 67
2, 2304, Note_on_c, 0, 46, 67
2, 2368, Note_off_c, 0, 46, 67
2, 2432, Note_off_c, 0, 46, 67
2, 2432, Note_on_c, 0, 58, 67
2, 2496, Note_off_c, 0, 58, 67
2, 2560, Note_off_c, 0, 58, 67
2, 2560, Note_on_c, 0, 48, 67
2, 2624, Note_off_c, 0, 48, 67
2, 2688, Note_off_c, 0, 48, 67
2, 2688, Note_on_c, 0, 60, 67
2, 2752, Note_off_c, 0, 60, 67
2, 2816, Note_off_c, 0, 60, 67
2, 2816, Note_on_c, 0, 46, 67
2, 2880, Note_off_c, 0, 46, 67
2, 2944, Note_off_c, 0, 46, 67
2, 2944, Note_on_c, 0, 58, 67
2, 3008, Note_off_c, 0, 58, 67
2, 3072, Note_off_c, 0, 58, 67
2, 3072, Note_on_c, 0, 50, 67
2, 3136, Note_off_c, 0, 50, 67
2, 3200, Note_off_c, 0, 50, 67
2, 3200, Note_on_c, 0, 62, 67
2, 3264, Note_off_c, 0, 62, 67
2, 3328, Note_off_c, 0, 62, 67
2, 3328, Note_on_c, 0, 46, 67
2, 3392, Note_off_c, 0, 46, 67
2, 3456, Note_off_c, 0, 46, 67
2, 3456, Note_on_c, 0, 58, 67
2, 3520, Note_off_c, 0, 58, 67
2, 3584, Note_off_c, 0, 58, 67
2, 3584, Note_on_c, 0, 48, 67
2, 3648, Note_off_c, 0, 48, 67
2, 3712, Note_off_c, 0, 48, 67
2, 3712, Note_on_c, 0, 60, 67
2, 3776, Note_off_c, 0, 60, 67
2, 3840, Note_off_c, 0, 60, 67
2, 3840, Note_on_c, 0, 49, 67
2, 3904, Note_off_c, 0, 49, 67
2, 3968, Note_off_c, 0, 49, 67
2, 3968, Note_on_c, 0, 61, 67
2, 4032, Note_off_c, 0, 61, 67
2, 4096, Note_off_c, 0, 61, 67
2, 4096, Note_on_c, 0, 50, 67
2, 4160, Note_off_c, 0, 50, 67
2, 4224, Note_off_c, 0, 50, 67
2, 4224, Note_on_c, 0, 62, 67
2, 4288, Note_off_c, 0, 62, 67
2, 4352, Note_off_c, 0, 62, 67
2, 4352, Note_on_c, 0, 46, 67
2, 4416, Note_off_c, 0, 46, 67
2, 4480, Note_off_c, 0, 46, 67
2, 4480, Note_on_c, 0, 58, 67
2, 4544, Note_off_c, 0, 58, 67
2, 4608, Note_off_c, 0, 58, 67
2, 4608, Note_on_c, 0, 51, 67
2, 4672, Note_off_c, 0, 51, 67
2, 4736, Note_off_c, 0, 51, 67
2, 4736, Note_on_c, 0, 63, 67
2, 4800, Note_off_c, 0, 63, 67
2, 4864, Note_off_c, 0, 63, 67
2, 4864, Note_on_c, 0, 46, 67
2, 4928, Note_off_c, 0, 46, 67
2, 4992, Note_off_c, 0, 46, 67
2, 4992, Note_on_c, 0, 58, 67
2, 5056, Note_off_c, 0, 58, 67
2, 5120, Note_off_c, 0, 58, 67
2, 5120, Note_on_c, 0, 51, 67
2, 5184, Note_off_c, 0, 51, 67
2, 5248, Note_off_c, 0, 51, 67
2, 5248, Note_on_c, 0, 63, 67
2, 5312, Note_off_c, 0, 63, 67
2, 5376, Note_off_c, 0, 63, 67
2, 5376, Note_on_c, 0, 50, 67
2, 5440, Note_off_c, 0, 50, 67
2, 5504, Note_off_c, 0, 50, 67
2, 5504, Note_on_c, 0, 62, 67
2, 5568, Note_off_c, 0, 62, 67
2, 5632, Note_off_c, 0, 62, 67
2, 5632, Note_on_c, 0, 48, 67
2, 5696, Note_off_c, 0, 48, 67
2, 5760, Note_off_c, 0, 48, 67
2, 5760, Note_on_c, 0, 60, 67
2, 5824, Note_off_c, 0, 60, 67
2, 5888, Note_off_c, 0, 60, 67
2, 5888, Note_on_c, 0, 46, 67
2, 5952, Note_off_c, 0, 46, 67
2, 6016, Note_off_c, 0, 46, 67
2, 6016, Note_on_c, 0, 58, 67
2, 6080, Note_off_c, 0, 58, 67
2, 6144, Note_off_c, 0, 58, 67
2, 6144, Note_on_c, 0, 51, 67
2, 6208, Note_off_c, 0, 51, 67
2, 6272, Note_off_c, 0, 51, 67
2, 6272, Note_on_c, 0, 63, 67
2, 6336, Note_off_c, 0, 63, 67
2, 6400, Note_off_c, 0, 63, 67
2, 6400, Note_on_c, 0, 46, 67
2, 6464, Note_off_c, 0, 46, 67
2, 6528, Note_off_c, 0, 46, 67
2, 6528, Note_on_c, 0, 58, 67
2, 6592, Note_off_c, 0, 58, 67
2, 6656, Note_off_c, 0, 58, 67
2, 6656, Note_on_c, 0, 48, 67
2, 6720, Note_off_c, 0, 48, 67
2, 6784, Note_off_c, 0, 48, 67
2, 6784, Note_on_c, 0, 60, 67
2, 6848, Note_off_c, 0, 60, 67
2, 6912, Note_off_c, 0, 60, 67
2, 6912, Note_on_c, 0, 46, 67
2, 6976, Note_off_c, 0, 46, 67
2, 7040, Note_off_c, 0, 46, 67
2, 7040, Note_on_c, 0, 58, 67
2, 7104, Note_off_c, 0, 58, 67
2, 7168, Note_off_c, 0, 58, 67
2, 7168, Note_on_c, 0, 50, 67
2, 7232, Note_off_c, 0, 50, 67
2, 7296, Note_off_c, 0, 50, 67
2, 7296, Note_on_c, 0, 62, 67
2, 7360, Note_off_c, 0, 62, 67
2, 7424, Note_off_c, 0, 62, 67
2, 7424, Note_on_c, 0, 48, 67
2, 7488, Note_off_c, 0, 48, 67
2, 7552, Note_off_c, 0, 48, 67
2, 7552, Note_on_c, 0, 60, 67
2, 7616, Note_off_c, 0, 60, 67
2, 7680, Note_off_c, 0, 60, 67
2, 7680, Note_on_c, 0, 46, 67
2, 7744, Note_off_c, 0, 46, 67
2, 7808, Note_off_c, 0, 46, 67
2, 7808, Note_on_c, 0, 58, 67
2, 7872, Note_off_c, 0, 58, 67
2, 7936, Note_off_c, 0, 58, 67
2, 7936, Note_on_c, 0, 48, 67
2, 8000, Note_off_c, 0, 48, 67
2, 8064, Note_off_c, 0, 48, 67
2, 8064, Note_on_c, 0, 60, 67
2, 8128, Note_off_c, 0, 60, 67
2, 8192, Note_off_c, 0, 60, 67
2, 8192, Note_on_c, 0, 50, 67
2, 8256, Note_off_c, 0, 50, 67
2, 8320, Note_off_c, 0, 50, 67
2, 8320, Note_on_c, 0, 62, 67
2, 8384, Note_off_c, 0, 62, 67
2, 8448, Note_off_c, 0, 62, 67
2, 8448, Note_on_c, 0, 46, 67
2, 8512, Note_off_c, 0, 46, 67
2, 8576, Note_off_c, 0, 46, 67
2, 8576, Note_on_c, 0, 58, 67
2, 8640, Note_off_c, 0, 58, 67
2, 8704, Note_off_c, 0, 58, 67
2, 8704, Note_on_c, 0, 51, 67
2, 8768, Note_off_c, 0, 51, 67
2, 8832, Note_off_c, 0, 51, 67
2, 8832, Note_on_c, 0, 63, 67
2, 8896, Note_off_c, 0, 63, 67
2, 8960, Note_off_c, 0, 63, 67
2, 8960, Note_on_c, 0, 46, 67
2, 9024, Note_off_c, 0, 46, 67
2, 9088, Note_off_c, 0, 46, 67
2, 9088, Note_on_c, 0, 58, 67
2, 9152, Note_off_c, 0, 58, 67
2, 9216, Note_off_c, 0, 58, 67
2, 9216, Note_on_c, 0, 39, 67
2, 9280, Note_off_c, 0, 39, 67
2, 9280, Note_on_c, 0, 46, 67
2, 9344, Note_off_c, 0, 46, 67
2, 9344, Note_on_c, 0, 51, 67
2, 9408, Note_off_c, 0, 51, 67
2, 9408, Note_on_c, 0, 53, 67
2, 9472, Note_off_c, 0, 53, 67
2, 9472, Note_on_c, 0, 55, 67
2, 9536, Note_off_c, 0, 55, 67
2, 9536, Note_on_c, 0, 51, 67
2, 9600, Note_off_c, 0, 51, 67
2, 9600, Note_on_c, 0, 58, 67
2, 9664, Note_off_c, 0, 58, 67
2, 9664, Note_on_c, 0, 63, 67
2, 9712, Control_c, 0, 93, 0
2, 9728, Note_off_c, 0, 63, 67
2, 9728, Note_on_c, 0, 44, 67
2, 9792, Note_off_c, 0, 44, 67
2, 9792, Note_on_c, 0, 51, 67
2, 9856, Note_off_c, 0, 51, 67
2, 9856, Note_on_c, 0, 56, 67
2, 9920, Note_off_c, 0, 56, 67
2, 9920, Note_on_c, 0, 58, 67
2, 9984, Note_off_c, 0, 58, 67
2, 9984, Note_on_c, 0, 60, 67
2, 10048, Note_off_c, 0, 60, 67
2, 10048, Note_on_c, 0, 56, 67
2, 10112, Note_off_c, 0, 56, 67
2, 10112, Note_on_c, 0, 63, 67
2, 10176, Note_off_c, 0, 63, 67
2, 10176, Note_on_c, 0, 68, 67
2, 10224, Control_c, 0, 93, 0
2, 10240, Note_off_c, 0, 68, 67
2, 10240, Note_on_c, 0, 46, 67
2, 10304, Note_off_c, 0, 46, 67
2, 10304, Note_on_c, 0, 53, 67
2, 10368, Note_off_c, 0, 53, 67
2, 10368, Note_on_c, 0, 58, 67
2, 10432, Note_off_c, 0, 58, 67
2, 10432, Note_on_c, 0, 60, 67
2, 10496, Note_off_c, 0, 60, 67
2, 10496, Note_on_c, 0, 62, 67
2, 10560, Note_off_c, 0, 62, 67
2, 10560, Note_on_c, 0, 58, 67
2, 10624, Note_off_c, 0, 58, 67
2, 10624, Note_on_c, 0, 65, 67
2, 10688, Note_off_c, 0, 65, 67
2, 10688, Note_on_c, 0, 70, 67
2, 10736, Control_c, 0, 93, 0
2, 10752, Note_off_c, 0, 70, 67
2, 10752, Note_on_c, 0, 41, 67
2, 10816, Note_off_c, 0, 41, 67
2, 10816, Note_on_c, 0, 44, 67
2, 10880, Note_off_c, 0, 44, 67
2, 10880, Control_c, 0, 64, 64
2, 10880, Note_on_c, 0, 50, 67
2, 10901, Note_off_c, 0, 50, 67
2, 10901, Note_on_c, 0, 53, 67
2, 10922, Note_off_c, 0, 53, 67
2, 10922, Note_on_c, 0, 58, 67
2, 10943, Note_off_c, 0, 58, 67
2, 10944, Control_c, 0, 93, 0
2, 10944, Note_on_c, 0, 62, 67
2, 10965, Note_off_c, 0, 62, 67
2, 10965, Note_on_c, 0, 65, 67
2, 10986, Note_off_c, 0, 65, 67
2, 10986, Note_on_c, 0, 70, 67
2, 11008, Control_c, 0, 93, 0
2, 11008, Control_c, 0, 64, 0
2, 11136, Note_off_c, 0, 70, 67
2, 11136, Note_on_c, 0, 51, 67
2, 11200, Note_off_c, 0, 51, 67
2, 11200, Note_on_c, 0, 46, 67
2, 11264, Note_off_c, 0, 46, 67
2, 11264, Note_on_c, 0, 39, 67
2, 11328, Note_off_c, 0, 39, 67
2, 11328, Note_on_c, 0, 46, 67
2, 11392, Note_off_c, 0, 46, 67
2, 11392, Note_on_c, 0, 51, 67
2, 11456, Note_off_c, 0, 51, 67
2, 11456, Note_on_c, 0, 53, 67
2, 11520, Note_off_c, 0, 53, 67
2, 11520, Note_on_c, 0, 55, 67
2, 11584, Note_off_c, 0, 55, 67
2, 11584, Note_on_c, 0, 51, 67
2, 11648, Note_off_c, 0, 51, 67
2, 11648, Note_on_c, 0, 58, 67
2, 11712, Note_off_c, 0, 58, 67
2, 11712, Note_on_c, 0, 63, 67
2, 11760, Control_c, 0, 93, 0
2, 11776, Note_off_c, 0, 63, 67
2, 11776, Note_on_c, 0, 44, 67
2, 11840, Note_off_c, 0, 44, 67
2, 11840, Note_on_c, 0, 51, 67
2, 11904, Note_off_c, 0, 51, 67
2, 11904, Note_on_c, 0, 56, 67
2, 11968, Note_off_c, 0, 56, 67
2, 11968, Note_on_c, 0, 58, 67
2, 12032, Note_off_c, 0, 58, 67
2, 12032, Note_on_c, 0, 60, 67
2, 12096, Note_off_c, 0, 60, 67
2, 12096, Note_on_c, 0, 56, 67
2, 12160, Note_off_c, 0, 56, 67
2, 12160, Note_on_c, 0, 63, 67
2, 12224, Note_off_c, 0, 63, 67
2, 12224, Note_on_c, 0, 68, 67
2, 12272, Control_c, 0, 93, 0
2, 12288, Note_off_c, 0, 68, 67
2, 12288, Note_on_c, 0, 46, 67
2, 12352, Note_off_c, 0, 46, 67
2, 12352, Note_on_c, 0, 53, 67
2, 12416, Note_off_c, 0, 53, 67
2, 12416, Note_on_c, 0, 58, 67
2, 12480, Note_off_c, 0, 58, 67
2, 12480, Note_on_c, 0, 60, 67
2, 12544, Note_off_c, 0, 60, 67
2, 12544, Note_on_c, 0, 62, 67
2, 12608, Note_off_c, 0, 62, 67
2, 12608, Note_on_c, 0, 58, 67
2, 12672, Note_off_c, 0, 58, 67
2, 12672, Note_on_c, 0, 65, 67
2, 12736, Note_off_c, 0, 65, 67
2, 12736, Note_on_c, 0, 70, 67
2, 12784, Control_c, 0, 93, 0
2, 12800, Note_off_c, 0, 70, 67
2, 12800, Note_on_c, 0, 39, 67
2, 12864, Note_off_c, 0, 39, 67
2, 12864, Note_on_c, 0, 46, 67
2, 12928, Note_off_c, 0, 46, 67
2, 12928, Note_on_c, 0, 51, 67
2, 12992, Note_off_c, 0, 51, 67
2, 12992, Control_c, 0, 64, 64
2, 12992, Note_on_c, 0, 55, 67
2, 13002, Note_off_c, 0, 55, 67
2, 13002, Note_on_c, 0, 58, 67
2, 13013, Note_off_c, 0, 58, 67
2, 13013, Note_on_c, 0, 63, 67
2, 13023, Note_off_c, 0, 63, 67
2, 13024, Control_c, 0, 93, 0
2, 13024, Note_on_c, 0, 67, 67
2, 13034, Note_off_c, 0, 67, 67
2, 13034, Note_on_c, 0, 70, 67
2, 13045, Note_off_c, 0, 70, 67
2, 13045, Note_on_c, 0, 75, 67
2, 13055, Note_off_c, 0, 75, 67
2, 13056, Control_c, 0, 93, 0
2, 13184, Control_c, 0, 93, 0
2, 13248, Control_c, 0, 93, 0
2, 13248, Control_c, 0, 64, 0
2, 13312, Control_c, 0, 93, 0
2, 13312, Note_on_c, 0, 51, 67
2, 13376, Note_off_c, 0, 51, 67
2, 13440, Note_off_c, 0, 51, 67
2, 13440, Note_on_c, 0, 63, 67
2, 13504, Note_off_c, 0, 63, 67
2, 13568, Note_off_c, 0, 63, 67
2, 13568, Note_on_c, 0, 50, 67
2, 13632, Note_off_c, 0, 50, 67
2, 13696, Note_off_c, 0, 50, 67
2, 13696, Note_on_c, 0, 62, 67
2, 13760, Note_off_c, 0, 62, 67
2, 13824, Note_off_c, 0, 62, 67
2, 13824, Note_on_c, 0, 48, 67
2, 13888, Note_off_c, 0, 48, 67
2, 13952, Note_off_c, 0, 48, 67
2, 13952, Note_on_c, 0, 60, 67
2, 14016, Note_off_c, 0, 60, 67
2, 14080, Note_off_c, 0, 60, 67
2, 14080, Note_on_c, 0, 46, 67
2, 14144, Note_off_c, 0, 46, 67
2, 14208, Note_off_c, 0, 46, 67
2, 14208, Note_on_c, 0, 58, 67
2, 14272, Note_off_c, 0, 58, 67
2, 14336, Note_off_c, 0, 58, 67
2, 14336, Note_on_c, 0, 51, 67
2, 14400, Note_off_c, 0, 51, 67
2, 14464, Note_off_c, 0, 51, 67
2, 14464, Note_on_c, 0, 63, 67
2, 14528, Note_off_c, 0, 63, 67
2, 14592, Note_off_c, 0, 63, 67
2, 14592, Note_on_c, 0, 46, 67
2, 14656, Note_off_c, 0, 46, 67
2, 14720, Note_off_c, 0, 46, 67
2, 14720, Note_on_c, 0, 58, 67
2, 14784, Note_off_c, 0, 58, 67
2, 14848, Note_off_c, 0, 58, 67
2, 14848, Note_on_c, 0, 48, 67
2, 14912, Note_off_c, 0, 48, 67
2, 14976, Note_off_c, 0, 48, 67
2, 14976, Note_on_c, 0, 60, 67
2, 15040, Note_off_c, 0, 60, 67
2, 15104, Note_off_c, 0, 60, 67
2, 15104, Note_on_c, 0, 46, 67
2, 15168, Note_off_c, 0, 46, 67
2, 15232, Note_off_c, 0, 46, 67
2, 15232, Note_on_c, 0, 58, 67
2, 15296, Note_off_c, 0, 58, 67
2, 15360, Note_off_c, 0, 58, 67
2, 15360, Note_on_c, 0, 50, 67
2, 15424, Note_off_c, 0, 50, 67
2, 15488, Note_off_c, 0, 50, 67
2, 15488, Note_on_c, 0, 62, 67
2, 15552, Note_off_c, 0, 62, 67
2, 15616, Note_off_c, 0, 62, 67
2, 15616, Note_on_c, 0, 46, 67
2, 15680, Note_off_c, 0, 46, 67
2, 15744, Note_off_c, 0, 46, 67
2, 15744, Note_on_c, 0, 58, 67
2, 15808, Note_off_c, 0, 58, 67
2, 15872, Note_off_c, 0, 58, 67
2, 15872, Note_on_c, 0, 48, 67
2, 15936, Note_off_c, 0, 48, 67
2, 16000, Note_off_c, 0, 48, 67
2, 16000, Note_on_c, 0, 60, 67
2, 16064, Note_off_c, 0, 60, 67
2, 16128, Note_off_c, 0, 60, 67
2, 16128, Note_on_c, 0, 49, 67
2, 16192, Note_off_c, 0, 49, 67
2, 16256, Note_off_c, 0, 49, 67
2, 16256, Note_on_c, 0, 61, 67
2, 16320, Note_off_c, 0, 61, 67
2, 16384, Note_off_c, 0, 61, 67
2, 16384, Note_on_c, 0, 50, 67
2, 16448, Note_off_c, 0, 50, 67
2, 16512, Note_off_c, 0, 50, 67
2, 16512, Note_on_c, 0, 62, 67
2, 16576, Note_off_c, 0, 62, 67
2, 16640, Note_off_c, 0, 62, 67
2, 16640, Note_on_c, 0, 46, 67
2, 16704, Note_off_c, 0, 46, 67
2, 16768, Note_off_c, 0, 46, 67
2, 16768, Note_on_c, 0, 58, 67
2, 16832, Note_off_c, 0, 58, 67
2, 16896, Note_off_c, 0, 58, 67
2, 16896, Note_on_c, 0, 51, 67
2, 16960, Note_off_c, 0, 51, 67
2, 17024, Note_off_c, 0, 51, 67
2, 17024, Note_on_c, 0, 63, 67
2, 17088, Note_off_c, 0, 63, 67
2, 17152, Note_off_c, 0, 63, 67
2, 17152, Note_on_c, 0, 46, 67
2, 17216, Note_off_c, 0, 46, 67
2, 17280, Note_off_c, 0, 46, 67
2, 17280, Note_on_c, 0, 58, 67
2, 17344, Note_off_c, 0, 58, 67
2, 17408, Note_off_c, 0, 58, 67
2, 17408, Note_on_c, 0, 51, 67
2, 17472, Note_off_c, 0, 51, 67
2, 17536, Note_off_c, 0, 51, 67
2, 17536, Note_on_c, 0, 63, 67
2, 17600, Note_off_c, 0, 63, 67
2, 17664, Note_off_c, 0, 63, 67
2, 17664, Note_on_c, 0, 50, 67
2, 17728, Note_off_c, 0, 50, 67
2, 17792, Note_off_c, 0, 50, 67
2, 17792, Note_on_c, 0, 62, 67
2, 17856, Note_off_c, 0, 62, 67
2, 17920, Note_off_c, 0, 62, 67
2, 17920, Note_on_c, 0, 48, 67
2, 17984, Note_off_c, 0, 48, 67
2, 18048, Note_off_c, 0, 48, 67
2, 18048, Note_on_c, 0, 60, 67
2, 18112, Note_off_c, 0, 60, 67
2, 18176, Note_off_c, 0, 60, 67
2, 18176, Note_on_c, 0, 46, 67
2, 18240, Note_off_c, 0, 46, 67
2, 18304, Note_off_c, 0, 46, 67
2, 18304, Note_on_c, 0, 58, 67
2, 18368, Note_off_c, 0, 58, 67
2, 18432, Note_off_c, 0, 58, 67
2, 18432, Note_on_c, 0, 51, 67
2, 18496, Note_off_c, 0, 51, 67
2, 18560, Note_off_c, 0, 51, 67
2, 18560, Note_on_c, 0, 63, 67
2, 18624, Note_off_c, 0, 63, 67
2, 18688, Note_off_c, 0, 63, 67
2, 18688, Note_on_c, 0, 46, 67
2, 18752, Note_off_c, 0, 46, 67
2, 18816, Note_off_c, 0, 46, 67
2, 18816, Note_on_c, 0, 58, 67
2, 18880, Note_off_c, 0, 58, 67
2, 18944, Note_off_c, 0, 58, 67
2, 18944, Note_on_c, 0, 48, 67
2, 19008, Note_off_c, 0, 48, 67
2, 19072, Note_off_c, 0, 48, 67
2, 19072, Note_on_c, 0, 60, 67
2, 19136, Note_off_c, 0, 60, 67
2, 19200, Note_off_c, 0, 60, 67
2, 19200, Note_on_c, 0, 46, 67
2, 19264, Note_off_c, 0, 46, 67
2, 19328, Note_off_c, 0, 46, 67
2, 19328, Note_on_c, 0, 58, 67
2, 19392, Note_off_c, 0, 58, 67
2, 19456, Note_off_c, 0, 58, 67
2, 19456, Note_on_c, 0, 50, 67
2, 19520, Note_off_c, 0, 50, 67
2, 19584, Note_off_c, 0, 50, 67
2, 19584, Note_on_c, 0, 62, 67
2, 19648, Note_off_c, 0, 62, 67
2, 19712, Note_off_c, 0, 62, 67
2, 19712, Note_on_c, 0, 48, 67
2, 19776, Note_off_c, 0, 48, 67
2, 19840, Note_off_c, 0, 48, 67
2, 19840, Note_on_c, 0, 60, 67
2, 19904, Note_off_c, 0, 60, 67
2, 19968, Note_off_c, 0, 60, 67
2, 19968, Note_on_c, 0, 46, 67
2, 20032, Note_off_c, 0, 46, 67
2, 20096, Note_off_c, 0, 46, 67
2, 20096, Note_on_c, 0, 58, 67
2, 20160, Note_off_c, 0, 58, 67
2, 20224, Note_off_c, 0, 58, 67
2, 20224, Note_on_c, 0, 48, 67
2, 20288, Note_off_c, 0, 48, 67
2, 20352, Note_off_c, 0, 48, 67
2, 20352, Note_on_c, 0, 60, 67
2, 20416, Note_off_c, 0, 60, 67
2, 20480, Note_off_c, 0, 60, 67
2, 20480, Note_on_c, 0, 50, 67
2, 20544, Note_off_c, 0, 50, 67
2, 20608, Note_off_c, 0, 50, 67
2, 20608, Note_on_c, 0, 62, 67
2, 20672, Note_off_c, 0, 62, 67
2, 20736, Note_off_c, 0, 62, 67
2, 20736, Note_on_c, 0, 46, 67
2, 20800, Note_off_c, 0, 46, 67
2, 20864, Note_off_c, 0, 46, 67
2, 20864, Note_on_c, 0, 58, 67
2, 20928, Note_off_c, 0, 58, 67
2, 20992, Note_off_c, 0, 58, 67
2, 20992, Note_on_c, 0, 51, 67
2, 21056, Note_off_c, 0, 51, 67
2, 21120, Note_off_c, 0, 51, 67
2, 21120, Note_on_c, 0, 63, 67
2, 21184, Note_off_c, 0, 63, 67
2, 21248, Note_off_c, 0, 63, 67
2, 21248, Note_on_c, 0, 46, 67
2, 21312, Note_off_c, 0, 46, 67
2, 21376, Note_off_c, 0, 46, 67
2, 21376, Note_on_c, 0, 58, 67
2, 21440, Note_off_c, 0, 58, 67
2, 21504, Note_off_c, 0, 58, 67
2, 21504, Note_on_c, 0, 39, 67
2, 21568, Note_off_c, 0, 39, 67
2, 21568, Note_on_c, 0, 46, 67
2, 21632, Note_off_c, 0, 46, 67
2, 21632, Note_on_c, 0, 51, 67
2, 21696, Note_off_c, 0, 51, 67
2, 21696, Note_on_c, 0, 53, 67
2, 21760, Note_off_c, 0, 53, 67
2, 21760, Note_on_c, 0, 55, 67
2, 21824, Note_off_c, 0, 55, 67
2, 21824, Note_on_c, 0, 51, 67
2, 21888, Note_off_c, 0, 51, 67
2, 21888, Note_on_c, 0, 58, 67
2, 21952, Note_off_c, 0, 58, 67
2, 21952, Note_on_c, 0, 63, 67
2, 22000, Control_c, 0, 93, 0
2, 22016, Note_off_c, 0, 63, 67
2, 22016, Note_on_c, 0, 44, 67
2, 22080, Note_off_c, 0, 44, 67
2, 22080, Note_on_c, 0, 51, 67
2, 22144, Note_off_c, 0, 51, 67
2, 22144, Note_on_c, 0, 56, 67
2, 22208, Note_off_c, 0, 56, 67
2, 22208, Note_on_c, 0, 58, 67
2, 22272, Note_off_c, 0, 58, 67
2, 22272, Note_on_c, 0, 60, 67
2, 22336, Note_off_c, 0, 60, 67
2, 22336, Note_on_c, 0, 56, 67
2, 22400, Note_off_c, 0, 56, 67
2, 22400, Note_on_c, 0, 63, 67
2, 22464, Note_off_c, 0, 63, 67
2, 22464, Note_on_c, 0, 68, 67
2, 22512, Control_c, 0, 93, 0
2, 22528, Note_off_c, 0, 68, 67
2, 22528, Note_on_c, 0, 46, 67
2, 22592, Note_off_c, 0, 46, 67
2, 22592, Note_on_c, 0, 53, 67
2, 22656, Note_off_c, 0, 53, 67
2, 22656, Note_on_c, 0, 58, 67
2, 22720, Note_off_c, 0, 58, 67
2, 22720, Note_on_c, 0, 60, 67
2, 22784, Note_off_c, 0, 60, 67
2, 22784, Note_on_c, 0, 62, 67
2, 22848, Note_off_c, 0, 62, 67
2, 22848, Note_on_c, 0, 58, 67
2, 22912, Note_off_c, 0, 58, 67
2, 22912, Note_on_c, 0, 65, 67
2, 22976, Note_off_c, 0, 65, 67
2, 22976, Note_on_c, 0, 70, 67
2, 23024, Control_c, 0, 93, 0
2, 23040, Note_off_c, 0, 70, 67
2, 23040, Note_on_c, 0, 41, 67
2, 23104, Note_off_c, 0, 41, 67
2, 23104, Note_on_c, 0, 44, 67
2, 23168, Note_off_c, 0, 44, 67
2, 23168, Control_c, 0, 64, 64
2, 23168, Note_on_c, 0, 50, 67
2, 23189, Note_off_c, 0, 50, 67
2, 23189, Note_on_c, 0, 53, 67
2, 23210, Note_off_c, 0, 53, 67
2, 23210, Note_on_c, 0, 58, 67
2, 23231, Note_off_c, 0, 58, 67
2, 23232, Control_c, 0, 93, 0
2, 23232, Note_on_c, 0, 62, 67
2, 23253, Note_off_c, 0, 62, 67
2, 23253, Note_on_c, 0, 65, 67
2, 23274, Note_off_c, 0, 65, 67
2, 23274, Note_on_c, 0, 70, 67
2, 23296, Control_c, 0, 93, 0
2, 23296, Control_c, 0, 64, 0
2, 23424, Note_off_c, 0, 70, 67
2, 23424, Note_on_c, 0, 51, 67
2, 23488, Note_off_c, 0, 51, 67
2, 23488, Note_on_c, 0, 46, 67
2, 23552, Note_off_c, 0, 46, 67
2, 23552, Note_on_c, 0, 39, 67
2, 23616, Note_off_c, 0, 39, 67
2, 23616, Note_on_c, 0, 46, 67
2, 23680, Note_off_c, 0, 46, 67
2, 23680, Note_on_c, 0, 51, 67
2, 23744, Note_off_c, 0, 51, 67
2, 23744, Note_on_c, 0, 53, 67
2, 23808, Note_off_c, 0, 53, 67
2, 23808, Note_on_c, 0, 55, 67
2, 23872, Note_off_c, 0, 55, 67
2, 23872, Note_on_c, 0, 51, 67
2, 23936, Note_off_c, 0, 51, 67
2, 23936, Note_on_c, 0, 58, 67
2, 24000, Note_off_c, 0, 58, 67
2, 24000, Note_on_c, 0, 63, 67
2, 24048, Control_c, 0, 93, 0
2, 24064, Note_off_c, 0, 63, 67
2, 24064, Note_on_c, 0, 44, 67
2, 24128, Note_off_c, 0, 44, 67
2, 24128, Note_on_c, 0, 51, 67
2, 24192, Note_off_c, 0, 51, 67
2, 24192, Note_on_c, 0, 56, 67
2, 24256, Note_off_c, 0, 56, 67
2, 24256, Note_on_c, 0, 58, 67
2, 24320, Note_off_c, 0, 58, 67
2, 24320, Note_on_c, 0, 60, 67
2, 24384, Note_off_c, 0, 60, 67
2, 24384, Note_on_c, 0, 56, 67
2, 24448, Note_off_c, 0, 56, 67
2, 24448, Note_on_c, 0, 63, 67
2, 24512, Note_off_c, 0, 63, 67
2, 24512, Note_on_c, 0, 68, 67
2, 24560, Control_c, 0, 93, 0
2, 24576, Note_off_c, 0, 68, 67
2, 24576, Note_on_c, 0, 46, 67
2, 24640, Note_off_c, 0, 46, 67
2, 24640, Note_on_c, 0, 53, 67
2, 24704, Note_off_c, 0, 53, 67
2, 24704, Note_on_c, 0, 58, 67
2, 24768, Note_off_c, 0, 58, 67
2, 24768, Note_on_c, 0, 60, 67
2, 24832, Note_off_c, 0, 60, 67
2, 24832, Note_on_c, 0, 62, 67
2, 24896, Note_off_c, 0, 62, 67
2, 24896, Note_on_c, 0, 58, 67
2, 24960, Note_off_c, 0, 58, 67
2, 24960, Note_on_c, 0, 65, 67
2, 25024, Note_off_c, 0, 65, 67
2, 25024, Note_on_c, 0, 70, 67
2, 25072, Control_c, 0, 93, 0
2, 25088, Note_off_c, 0, 70, 67
2, 25088, Note_on_c, 0, 39, 67
2, 25152, Note_off_c, 0, 39, 67
2, 25152, Note_on_c, 0, 46, 67
2, 25216, Note_off_c, 0, 46, 67
2, 25216, Note_on_c, 0, 51, 67
2, 25280, Note_off_c, 0, 51, 67
2, 25280, Control_c, 0, 64, 64
2, 25280, Note_on_c, 0, 55, 67
2, 25290, Note_off_c, 0, 55, 67
2, 25290, Note_on_c, 0, 58, 67
2, 25301, Note_off_c, 0, 58, 67
2, 25301, Note_on_c, 0, 63, 67
2, 25311, Note_off_c, 0, 63, 67
2, 25312, Control_c, 0, 93, 0
2, 25312, Note_on_c, 0, 67, 67
2, 25322, Note_off_c, 0, 67, 67
2, 25322, Note_on_c, 0, 70, 67
2, 25333, Note_off_c, 0, 70, 67
2, 25333, Note_on_c, 0, 75, 67
2, 25343, Note_off_c, 0, 75, 67
2, 25344, Control_c, 0, 93, 0
2, 25472, Control_c, 0, 93, 0
2, 25536, Control_c, 0, 93, 0
2, 25536, Control_c, 0, 64, 0
2, 25600, Control_c, 0, 93, 0
2, 25600, Note_on_c, 0, 51, 67
2, 25664, Note_off_c, 0, 51, 67
2, 25728, Note_off_c, 0, 51, 67
2, 25728, Note_on_c, 0, 63, 67
2, 25792, Note_off_c, 0, 63, 67
2, 25856, Note_off_c, 0, 63, 67
2, 25856, Note_on_c, 0, 50, 67
2, 25920, Note_off_c, 0, 50, 67
2, 25984, Note_off_c, 0, 50, 67
2, 25984, Note_on_c, 0, 62, 67
2, 26048, Note_off_c, 0, 62, 67
2, 26112, Note_off_c, 0, 62, 67
2, 26112, Note_on_c, 0, 48, 67
2, 26176, Note_off_c, 0, 48, 67
2, 26240, Note_off_c, 0, 48, 67
2, 26240, Note_on_c, 0, 60, 67
2, 26304, Note_off_c, 0, 60, 67
2, 26368, Note_off_c, 0, 60, 67
2, 26368, Note_on_c, 0, 46, 67
2, 26432, Note_off_c, 0, 46, 67
2, 26496, Note_off_c, 0, 46, 67
2, 26496, Note_on_c, 0, 58, 67
2, 26560, Note_off_c, 0, 58, 67
2, 26624, Note_off_c, 0, 58, 67
2, 26624, Note_on_c, 0, 51, 67
2, 26688, Note_off_c, 0, 51, 67
2, 26752, Note_off_c, 0, 51, 67
2, 26752, Note_on_c, 0, 63, 67
2, 26816, Note_off_c, 0, 63, 67
2, 26880, Note_off_c, 0, 63, 67
2, 26880, Note_on_c, 0, 46, 67
2, 26944, Note_off_c, 0, 46, 67
2, 27008, Note_off_c, 0, 46, 67
2, 27008, Note_on_c, 0, 58, 67
2, 27072, Note_off_c, 0, 58, 67
2, 27136, Note_off_c, 0, 58, 67
2, 27136, Note_on_c, 0, 48, 67
2, 27200, Note_off_c, 0, 48, 67
2, 27264, Note_off_c, 0, 48, 67
2, 27264, Note_on_c, 0, 60, 67
2, 27328, Note_off_c, 0, 60, 67
2, 27392, Note_off_c, 0, 60, 67
2, 27392, Note_on_c, 0, 46, 67
2, 27456, Note_off_c, 0, 46, 67
2, 27520, Note_off_c, 0, 46, 67
2, 27520, Note_on_c, 0, 58, 67
2, 27584, Note_off_c, 0, 58, 67
2, 27648, Note_off_c, 0, 58, 67
2, 27648, Note_on_c, 0, 50, 67
2, 27712, Note_off_c, 0, 50, 67
2, 27776, Note_off_c, 0, 50, 67
2, 27776, Note_on_c, 0, 62, 67
2, 27840, Note_off_c, 0, 62, 67
2, 27904, Note_off_c, 0, 62, 67
2, 27904, Note_on_c, 0, 46, 67
2, 27968, Note_off_c, 0, 46, 67
2, 28032, Note_off_c, 0, 46, 67
2, 28032, Note_on_c, 0, 58, 67
2, 28096, Note_off_c, 0, 58, 67
2, 28160, Note_off_c, 0, 58, 67
2, 28160, Note_on_c, 0, 48, 67
2, 28224, Note_off_c, 0, 48, 67
2, 28288, Note_off_c, 0, 48, 67
2, 28288, Note_on_c, 0, 60, 67
2, 28352, Note_off_c, 0, 60, 67
2, 28416, Note_off_c, 0, 60, 67
2, 28416, Note_on_c, 0, 49, 67
2, 28480, Note_off_c, 0, 49, 67
2, 28544, Note_off_c, 0, 49, 67
2, 28544, Note_on_c, 0, 61, 67
2, 28608, Note_off_c, 0, 61, 67
2, 28672, Note_off_c, 0, 61, 67
2, 28672, Note_on_c, 0, 50, 67
2, 28736, Note_off_c, 0, 50, 67
2, 28800, Note_off_c, 0, 50, 67
2, 28800, Note_on_c, 0, 62, 67
2, 28864, Note_off_c, 0, 62, 67
2, 28928, Note_off_c, 0, 62, 67
2, 28928, Note_on_c, 0, 46, 67
2, 28992, Note_off_c, 0, 46, 67
2, 29056, Note_off_c, 0, 46, 67
2, 29056, Note_on_c, 0, 58, 67
2, 29120, Note_off_c, 0, 58, 67
2, 29184, Note_off_c, 0, 58, 67
2, 29184, Note_on_c, 0, 51, 67
2, 29248, Note_off_c, 0, 51, 67
2, 29312, Note_off_c, 0, 51, 67
2, 29312, Note_on_c, 0, 63, 67
2, 29376, Note_off_c, 0, 63, 67
2, 29440, Note_off_c, 0, 63, 67
2, 29440, Note_on_c, 0, 46, 67
2, 29504, Note_off_c, 0, 46, 67
2, 29568, Note_off_c, 0, 46, 67
2, 29568, Note_on_c, 0, 58, 67
2, 29632, Note_off_c, 0, 58, 67
2, 29696, Note_off_c, 0, 58, 67
2, 29696, Note_on_c, 0, 51, 67
2, 29760, Note_off_c, 0, 51, 67
2, 29824, Note_off_c, 0, 51, 67
2, 29824, Note_on_c, 0, 63, 67
2, 29888, Note_off_c, 0, 63, 67
2, 29952, Note_off_c, 0, 63, 67
2, 29952, Note_on_c, 0, 50, 67
2, 30016, Note_off_c, 0, 50, 67
2, 30080, Note_off_c, 0, 50, 67
2, 30080, Note_on_c, 0, 62, 67
2, 30144, Note_off_c, 0, 62, 67
2, 30208, Note_off_c, 0, 62, 67
2, 30208, Note_on_c, 0, 48, 67
2, 30272, Note_off_c, 0, 48, 67
2, 30336, Note_off_c, 0, 48, 67
2, 30336, Note_on_c, 0, 60, 67
2, 30400, Note_off_c, 0, 60, 67
2, 30464, Note_off_c, 0, 60, 67
2, 30464, Note_on_c, 0, 46, 67
2, 30528, Note_off_c, 0, 46, 67
2, 30592, Note_off_c, 0, 46, 67
2, 30592, Note_on_c, 0, 58, 67
2, 30656, Note_off_c, 0, 58, 67
2, 30720, Note_off_c, 0, 58, 67
2, 30720, Note_on_c, 0, 51, 67
2, 30784, Note_off_c, 0, 51, 67
2, 30848, Note_off_c, 0, 51, 67
2, 30848, Note_on_c, 0, 63, 67
2, 30912, Note_off_c, 0, 63, 67
2, 30976, Note_off_c, 0, 63, 67
2, 30976, Note_on_c, 0, 46, 67
2, 31040, Note_off_c, 0, 46, 67
2, 31104, Note_off_c, 0, 46, 67
2, 31104, Note_on_c, 0, 58, 67
2, 31168, Note_off_c, 0, 58, 67
2, 31232, Note_off_c, 0, 58, 67
2, 31232, Note_on_c, 0, 48, 67
2, 31296, Note_off_c, 0, 48, 67
2, 31360, Note_off_c, 0, 48, 67
2, 31360, Note_on_c, 0, 60, 67
2, 31424, Note_off_c, 0, 60, 67
2, 31488, Note_off_c, 0, 60, 67
2, 31488, Note_on_c, 0, 46, 67
2, 31552, Note_off_c, 0, 46, 67
2, 31616, Note_off_c, 0, 46, 67
2, 31616, Note_on_c, 0, 58, 67
2, 31680, Note_off_c, 0, 58, 67
2, 31744, Note_off_c, 0, 58, 67
2, 31744, Note_on_c, 0, 50, 67
2, 31808, Note_off_c, 0, 50, 67
2, 31872, Note_off_c, 0, 50, 67
2, 31872, Note_on_c, 0, 62, 67
2, 31936, Note_off_c, 0, 62, 67
2, 32000, Note_off_c, 0, 62, 67
2, 32000, Note_on_c, 0, 48, 67
2, 32064, Note_off_c, 0, 48, 67
2, 32128, Note_off_c, 0, 48, 67
2, 32128, Note_on_c, 0, 60, 67
2, 32192, Note_off_c, 0, 60, 67
2, 32256, Note_off_c, 0, 60, 67
2, 32256, Note_on_c, 0, 46, 67
2, 32320, Note_off_c, 0, 46, 67
2, 32384, Note_off_c, 0, 46, 67
2, 32384, Note_on_c, 0, 58, 67
2, 32448, Note_off_c, 0, 58, 67
2, 32512, Note_off_c, 0, 58, 67
2, 32512, Note_on_c, 0, 48, 67
2, 32576, Note_off_c, 0, 48, 67
2, 32640, Note_off_c, 0, 48, 67
2, 32640, Note_on_c, 0, 60, 67
2, 32704, Note_off_c, 0, 60, 67
2, 32768, Note_off_c, 0, 60, 67
2, 32768, Note_on_c, 0, 50, 67
2, 32832, Note_off_c, 0, 50, 67
2, 32896, Note_off_c, 0, 50, 67
2, 32896, Note_on_c, 0, 62, 67
2, 32960, Note_off_c, 0, 62, 67
2, 33024, Note_off_c, 0, 62, 67
2, 33024, Note_on_c, 0, 46, 67
2, 33088, Note_off_c, 0, 46, 67
2, 33152, Note_off_c, 0, 46, 67
2, 33152, Note_on_c, 0, 58, 67
2, 33216, Note_off_c, 0, 58, 67
2, 33280, Note_off_c, 0, 58, 67
2, 33280, Note_on_c, 0, 51, 67
2, 33344, Note_off_c, 0, 51, 67
2, 33408, Note_off_c, 0, 51, 67
2, 33408, Note_on_c, 0, 63, 67
2, 33472, Note_off_c, 0, 63, 67
2, 33536, Note_off_c, 0, 63, 67
2, 33536, Note_on_c, 0, 46, 67
2, 33600, Note_off_c, 0, 46, 67
2, 33664, Note_off_c, 0, 46, 67
2, 33664, Note_on_c, 0, 58, 67
2, 33728, Note_off_c, 0, 58, 67
2, 33792, Note_off_c, 0, 58, 67
2, 33792, Note_on_c, 0, 39, 67
2, 33856, Note_off_c, 0, 39, 67
2, 33856, Note_on_c, 0, 46, 67
2, 33920, Note_off_c, 0, 46, 67
2, 33920, Note_on_c, 0, 51, 67
2, 33984, Note_off_c, 0, 51, 67
2, 33984, Note_on_c, 0, 53, 67
2, 34048, Note_off_c, 0, 53, 67
2, 34048, Note_on_c, 0, 55, 67
2, 34112, Note_off_c, 0, 55, 67
2, 34112, Note_on_c, 0, 51, 67
2, 34176, Note_off_c, 0, 51, 67
2, 34176, Note_on_c, 0, 58, 67
2, 34240, Note_off_c, 0, 58, 67
2, 34240, Note_on_c, 0, 63, 67
2, 34288, Control_c, 0, 93, 0
2, 34304, Note_off_c, 0, 63, 67
2, 34304, Note_on_c, 0, 44, 67
2, 34368, Note_off_c, 0, 44, 67
2, 34368, Note_on_c, 0, 51, 67
2, 34432, Note_off_c, 0, 51, 67
2, 34432, Note_on_c, 0, 56, 67
2, 34496, Note_off_c, 0, 56, 67
2, 34496, Note_on_c, 0, 58, 67
2, 34560, Note_off_c, 0, 58, 67
2, 34560, Note_on_c, 0, 60, 67
2, 34624, Note_off_c, 0, 60, 67
2, 34624, Note_on_c, 0, 56, 67
2, 34688, Note_off_c, 0, 56, 67
2, 34688, Note_on_c, 0, 63, 67
2, 34752, Note_off_c, 0, 63, 67
2, 34752, Note_on_c, 0, 68, 67
2, 34800, Control_c, 0, 93, 0
2, 34816, Note_off_c, 0, 68, 67
2, 34816, Note_on_c, 0, 46, 67
2, 34880, Note_off_c, 0, 46, 67
2, 34880, Note_on_c, 0, 53, 67
2, 34944, Note_off_c, 0, 53, 67
2, 34944, Note_on_c, 0, 58, 67
2, 35008, Note_off_c, 0, 58, 67
2, 35008, Note_on_c, 0, 60, 67
2, 35072, Note_off_c, 0, 60, 67
2, 35072, Note_on_c, 0, 62, 67
2, 35136, Note_off_c, 0, 62, 67
2, 35136, Note_on_c, 0, 58, 67
2, 35200, Note_off_c, 0, 58, 67
2, 35200, Note_on_c, 0, 65, 67
2, 35264, Note_off_c, 0, 65, 67
2, 35264, Note_on_c, 0, 70, 67
2, 35312, Control_c, 0, 93, 0
2, 35328, Note_off_c, 0, 70, 67
2, 35328, Note_on_c, 0, 41, 67
2, 35392, Note_off_c, 0, 41, 67
2, 35392, Note_on_c, 0, 44, 67
2, 35456, Note_off_c, 0, 44, 67
2, 35456, Control_c, 0, 64, 64
2, 35456, Note_on_c, 0, 50, 67
2, 35477, Note_off_c, 0, 50, 67
2, 35477, Note_on_c, 0, 53, 67
2, 35498, Note_off_c, 0, 53, 67
2, 35498, Note_on_c, 0, 58, 67
2, 35519, Note_off_c, 0, 58, 67
2, 35520, Control_c, 0, 93, 0
2, 35520, Note_on_c, 0, 62, 67
2, 35541, Note_off_c, 0, 62, 67
2, 35541, Note_on_c, 0, 65, 67
2, 35562, Note_off_c, 0, 65, 67
2, 35562, Note_on_c, 0, 70, 67
2, 35584, Control_c, 0, 93, 0
2, 35584, Control_c, 0, 64, 0
2, 35712, Note_off_c, 0, 70, 67
2, 35712, Note_on_c, 0, 51, 67
2, 35776, Note_off_c, 0, 51, 67
2, 35776, Note_on_c, 0, 46, 67
2, 35840, Note_off_c, 0, 46, 67
2, 35840, Note_on_c, 0, 39, 67
2, 35904, Note_off_c, 0, 39, 67
2, 35904, Note_on_c, 0, 46, 67
2, 35968, Note_off_c, 0, 46, 67
2, 35968, Note_on_c, 0, 51, 67
2, 36032, Note_off_c, 0, 51, 67
2, 36032, Note_on_c, 0, 53, 67
2, 36096, Note_off_c, 0, 53, 67
2, 36096, Note_on_c, 0, 55, 67
2, 36160, Note_off_c, 0, 55, 67
2, 36160, Note_on_c, 0, 51, 67
2, 36224, Note_off_c, 0, 51, 67
2, 36224, Note_on_c, 0, 58, 67
2, 36288, Note_off_c, 0, 58, 67
2, 36288, Note_on_c, 0, 63, 67
2, 36336, Control_c, 0, 93, 0
2, 36352, Note_off_c, 0, 63, 67
2, 36352, Note_on_c, 0, 44, 67
2, 36416, Note_off_c, 0, 44, 67
2, 36416, Note_on_c, 0, 51, 67
2, 36480, Note_off_c, 0, 51, 67
2, 36480, Note_on_c, 0, 56, 67
2, 36544, Note_off_c, 0, 56, 67
2, 36544, Note_on_c, 0, 58, 67
2, 36608, Note_off_c, 0, 58, 67
2, 36608, Note_on_c, 0, 60, 67
2, 36672, Note_off_c, 0, 60, 67
2, 36672, Note_on_c, 0, 56, 67
2, 36736, Note_off_c, 0, 56, 67
2, 36736, Note_on_c, 0, 63, 67
2, 36800, Note_off_c, 0, 63, 67
2, 36800, Note_on_c, 0, 68, 67
2, 36848, Control_c, 0, 93, 0
2, 36864, Note_off_c, 0, 68, 67
2, 36864, Note_on_c, 0, 46, 67
2, 36928, Note_off_c, 0, 46, 67
2, 36928, Note_on_c, 0, 53, 67
2, 36992, Note_off_c, 0, 53, 67
2, 36992, Note_on_c, 0, 58, 67
2, 37056, Note_off_c, 0, 58, 67
2, 37056, Note_on_c, 0, 60, 67
2, 37120, Note_off_c, 0, 60, 67
2, 37120, Note_on_c, 0, 62, 67
2, 37184, Note_off_c, 0, 62, 67
2, 37184, Note_on_c, 0, 58, 67
2, 37248, Note_off_c, 0, 58, 67
2, 37248, Note_on_c, 0, 65, 67
2, 37312, Note_off_c, 0, 65, 67
2, 37312, Note_on_c, 0, 70, 67
2, 37360, Control_c, 0, 93, 0
2, 37376, Note_off_c, 0, 70, 67
2, 37376, Note_on_c, 0, 39, 67
2, 37440, Note_off_c, 0, 39, 67
2, 37440, Note_on_c, 0, 46, 67
2, 37504, Note_off_c, 0, 46, 67
2, 37504, Note_on_c, 0, 51, 67
2, 37568, Note_off_c, 0, 51, 67
2, 37568, Control_c, 0, 64, 64
2, 37568, Note_on_c, 0, 55, 67
2, 37578, Note_off_c, 0, 55, 67
2, 37578, Note_on_c, 0, 58, 67
2, 37589, Note_off_c, 0, 58, 67
2, 37589, Note_on_c, 0, 63, 67
2, 37599, Note_off_c, 0, 63, 67
2, 37600, Control_c, 0, 93, 0
2, 37600, Note_on_c, 0, 67, 67
2, 37610, Note_off_c, 0, 67, 67
2, 37610, Note_on_c, 0, 70, 67
2, 37621, Note_off_c, 0, 70, 67
2, 37621, Note_on_c, 0, 75, 67
2, 37631, Note_off_c, 0, 75, 67
2, 37632, Control_c, 0, 93, 0
2, 37760, Control_c, 0, 93, 0
2, 37824, Control_c, 0, 93, 0
2, 37824, Control_c, 0, 64, 0
2, 37888, Control_c, 0, 93, 0
2, 37888, Note_on_c, 0, 51, 67
2, 37952, Note_off_c, 0, 51, 67
2, 38016, Note_off_c, 0, 51, 67
2, 38016, Note_on_c, 0, 63, 67
2, 38080, Note_off_c, 0, 63, 67
2, 38144, Note_off_c, 0, 63, 67
2, 38144, Note_on_c, 0, 50, 67
2, 38208, Note_off_c, 0, 50, 67
2, 38272, Note_off_c, 0, 50, 67
2, 38272, Note_on_c, 0, 62, 67
2, 38336, Note_off_c, 0, 62, 67
2, 38400, Note_off_c, 0, 62, 67
2, 38400, Note_on_c, 0, 48, 67
2, 38464, Note_off_c, 0, 48, 67
2, 38528, Note_off_c, 0, 48, 67
2, 38528, Note_on_c, 0, 60, 67
2, 38592, Note_off_c, 0, 60, 67
2, 38656, Note_off_c, 0, 60, 67
2, 38656, Note_on_c, 0, 46, 67
2, 38720, Note_off_c, 0, 46, 67
2, 38784, Note_off_c, 0, 46, 67
2, 38784, Note_on_c, 0, 58, 67
2, 38848, Note_off_c, 0, 58, 67
2, 38912, Note_off_c, 0, 58, 67
2, 38912, Note_on_c, 0, 51, 67
2, 38976, Note_off_c, 0, 51, 67
2, 39040, Note_off_c, 0, 51, 67
2, 39040, Note_on_c, 0, 63, 67
2, 39104, Note_off_c, 0, 63, 67
2, 39168, Note_off_c, 0, 63, 67
2, 39168, Note_on_c, 0, 46, 67
2, 39232, Note_off_c, 0, 46, 67
2, 39296, Note_off_c, 0, 46, 67
2, 39296, Note_on_c, 0, 58, 67
2, 39360, Note_off_c, 0, 58, 67
2, 39424, Note_off_c, 0, 58, 67
2, 39424, Note_on_c, 0, 48, 67
2, 39488, Note_off_c, 0, 48, 67
2, 39552, Note_off_c, 0, 48, 67
2, 39552, Note_on_c, 0, 60, 67
2, 39616, Note_off_c, 0, 60, 67
2, 39680, Note_off_c, 0, 60, 67
2, 39680, Note_on_c, 0, 46, 67
2, 39744, Note_off_c, 0, 46, 67
2, 39808, Note_off_c, 0, 46, 67
2, 39808, Note_on_c, 0, 58, 67
2, 39872, Note_off_c, 0, 58, 67
2, 39936, Note_off_c, 0, 58, 67
2, 39936, Note_on_c, 0, 50, 67
2, 40000, Note_off_c, 0, 50, 67
2, 40064, Note_off_c, 0, 50, 67
2, 40064, Note_on_c, 0, 62, 67
2, 40128, Note_off_c, 0, 62, 67
2, 40192, Note_off_c, 0, 62, 67
2, 40192, Note_on_c, 0, 46, 67
2, 40256, Note_off_c, 0, 46, 67
2, 40320, Note_off_c, 0, 46, 67
2, 40320, Note_on_c, 0, 58, 67
2, 40384, Note_off_c, 0, 58, 67
2, 40448, Note_off_c, 0, 58, 67
2, 40448, Note_on_c, 0, 48, 67
2, 40512, Note_off_c, 0, 48, 67
2, 40576, Note_off_c, 0, 48, 67
2, 40576, Note_on_c, 0, 60, 67
2, 40640, Note_off_c, 0, 60, 67
2, 40704, Note_off_c, 0, 60, 67
2, 40704, Note_on_c, 0, 49, 67
2, 40768, Note_off_c, 0, 49, 67
2, 40832, Note_off_c, 0, 49, 67
2, 40832, Note_on_c, 0, 61, 67
2, 40896, Note_off_c, 0, 61, 67
2, 40960, Note_off_c, 0, 61, 67
2, 40960, Note_on_c, 0, 50, 67
2, 41024, Note_off_c, 0, 50, 67
2, 41088, Note_off_c, 0, 50, 67
2, 41088, Note_on_c, 0, 62, 67
2, 41152, Note_off_c, 0, 62, 67
2, 41216, Note_off_c, 0, 62, 67
2, 41216, Note_on_c, 0, 46, 67
2, 41280, Note_off_c, 0, 46, 67
2, 41344, Note_off_c, 0, 46, 67
2, 41344, Note_on_c, 0, 58, 67
2, 41408, Note_off_c, 0, 58, 67
2, 41472, Note_off_c, 0, 58, 67
2, 41472, Note_on_c, 0, 51, 67
2, 41536, Note_off_c, 0, 51, 67
2, 41600, Note_off_c, 0, 51, 67
2, 41600, Note_on_c, 0, 63, 67
2, 41664, Note_off_c, 0, 63, 67
2, 41728, Note_off_c, 0, 63, 67
2, 41728, Note_on_c, 0, 46, 67
2, 41792, Note_off_c, 0, 46, 67
2, 41856, Note_off_c, 0, 46, 67
2, 41856, Note_on_c, 0, 58, 67
2, 41920, Note_off_c, 0, 58, 67
2, 41984, Note_off_c, 0, 58, 67
2, 41984, Note_on_c, 0, 51, 67
2, 42048, Note_off_c, 0, 51, 67
2, 42112, Note_off_c, 0, 51, 67
2, 42112, Note_on_c, 0, 63, 67
2, 42176, Note_off_c, 0, 63, 67
2, 42240, Note_off_c, 0, 63, 67
2, 42240, Note_on_c, 0, 50, 67
2, 42304, Note_off_c, 0, 50, 67
2, 42368, Note_off_c, 0, 50, 67
2, 42368, Note_on_c, 0, 62, 67
2, 42432, Note_off_c, 0, 62, 67
2, 42496, Note_off_c, 0, 62, 67
2, 42496, Note_on_c, 0, 48, 67
2, 42560, Note_off_c, 0, 48, 67
2, 42624, Note_off_c, 0, 48, 67
2, 42624, Note_on_c, 0, 60, 67
2, 42688, Note_off_c, 0, 60, 67
2, 42752, Note_off_c, 0, 60, 67
2, 42752, Note_on_c, 0, 46, 67
2, 42816, Note_off_c, 0, 46, 67
2, 42880, Note_off_c, 0, 46, 67
2, 42880, Note_on_c, 0, 58, 67
2, 42944, Note_off_c, 0, 58, 67
2, 43008, Note_off_c, 0, 58, 67
2, 43008, Note_on_c, 0, 51, 67
2, 43072, Note_off_c, 0, 51, 67
2, 43136, Note_off_c, 0, 51, 67
2, 43136, Note_on_c, 0, 63, 67
2, 43200, Note_off_c, 0, 63, 67
2, 43264, Note_off_c, 0, 63, 67
2, 43264, Note_on_c, 0, 46, 67
2, 43328, Note_off_c, 0, 46, 67
2, 43392, Note_off_c, 0, 46, 67
2, 43392, Note_on_c, 0, 58, 67
2, 43456, Note_off_c, 0, 58, 67
2, 43520, Note_off_c, 0, 58, 67
2, 43520, Note_on_c, 0, 48, 67
2, 43584, Note_off_c, 0, 48, 67
2, 43648, Note_off_c, 0, 48, 67
2, 43648, Note_on_c, 0, 60, 67
2, 43712, Note_off_c, 0, 60, 67
2, 43776, Note_off_c, 0, 60, 67
2, 43776, Note_on_c, 0, 46, 67
2, 43840, Note_off_c, 0, 46, 67
2, 43904, Note_off_c, 0, 46, 67
2, 43904, Note_on_c, 0, 58, 67
2, 43968, Note_off_c, 0, 58, 67
2, 44032, Note_off_c, 0, 58, 67
2, 44032, Note_on_c, 0, 50, 67
2, 44096, Note_off_c, 0, 50, 67
2, 44160, Note_off_c, 0, 50, 67
2, 44160, Note_on_c, 0, 62, 67
2, 44224, Note_off_c, 0, 62, 67
2, 44288, Note_off_c, 0, 62, 67
2, 44288, Note_on_c, 0, 48, 67
2, 44352, Note_off_c, 0, 48, 67
2, 44416, Note_off_c, 0, 48, 67
2, 44416, Note_on_c, 0, 60, 67
2, 44480, Note_off_c, 0, 60, 67
2, 44544, Note_off_c, 0, 60, 67
2, 44544, Note_on_c, 0, 46, 67
2, 44608, Note_off_c, 0, 46, 67
2, 44672, Note_off_c, 0, 46, 67
2, 44672, Note_on_c, 0, 58, 67
2, 44736, Note_off_c, 0, 58, 67
2, 44800, Note_off_c, 0, 58, 67
2, 44800, Note_on_c, 0, 48, 67
2, 44864, Note_off_c, 0, 48, 67
2, 44928, Note_off_c, 0, 48, 67
2, 44928, Note_on_c, 0, 60, 67
2, 44992, Note_off_c, 0, 60, 67
2, 45056, Note_off_c, 0, 60, 67
2, 45056, Note_on_c, 0, 50, 67
2, 45120, Note_off_c, 0, 50, 67
2, 45184, Note_off_c, 0, 50, 67
2, 45184, Note_on_c, 0, 62, 67
2, 45248, Note_off_c, 0, 62, 67
2, 45312, Note_off_c, 0, 62, 67
2, 45312, Note_on_c, 0, 46, 67
2, 45376, Note_off_c, 0, 46, 67
2, 45440, Note_off_c, 0, 46, 67
2, 45440, Note_on_c, 0, 58, 67
2, 45504, Note_off_c, 0, 58, 67
2, 45568, Note_off_c, 0, 58, 67
2, 45568, Note_on_c, 0, 51, 67
2, 45632, Note_off_c, 0, 51, 67
2, 45696, Note_off_c, 0, 51, 67
2, 45696, Note_on_c, 0, 63, 67
2, 45760, Note_off_c, 0, 63, 67
2, 45824, Note_off_c, 0, 63, 67
2, 45824, Note_on_c, 0, 46, 67
2, 45888, Note_off_c, 0, 46, 67
2, 45952, Note_off_c, 0, 46, 67
2, 45952, Note_on_c, 0, 58, 67
2, 46016, Note_off_c, 0, 58, 67
2, 46080, Note_off_c, 0, 58, 67
2, 46080, Note_on_c, 0, 39, 67
2, 46144, Note_off_c, 0, 39, 67
2, 46144, Note_on_c, 0, 46, 67
2, 46208, Note_off_c, 0, 46, 67
2, 46208, Note_on_c, 0, 51, 67
2, 46272, Note_off_c, 0, 51, 67
2, 46272, Note_on_c, 0, 53, 67
2, 46336, Note_off_c, 0, 53, 67
2, 46336, Note_on_c, 0, 55, 67
2, 46400, Note_off_c, 0, 55, 67
2, 46400, Note_on_c, 0, 51, 67
2, 46464, Note_off_c, 0, 51, 67
2, 46464, Note_on_c, 0, 58, 67
2, 46528, Note_off_c, 0, 58, 67
2, 46528, Note_on_c, 0, 63, 67
2, 46576, Control_c, 0, 93, 0
2, 46592, Note_off_c, 0, 63, 67
2, 46592, Note_on_c, 0, 44, 67
2, 46656, Note_off_c, 0, 44, 67
2, 46656, Note_on_c, 0, 51, 67
2, 46720, Note_off_c, 0, 51, 67
2, 46720, Note_on_c, 0, 56, 67
2, 46784, Note_off_c, 0, 56, 67
2, 46784, Note_on_c, 0, 58, 67
2, 46848, Note_off_c, 0, 58, 67
2, 46848, Note_on_c, 0, 60, 67
2, 46912, Note_off_c, 0, 60, 67
2, 46912, Note_on_c, 0, 56, 67
2, 46976, Note_off_c, 0, 56, 67
2, 46976, Note_on_c, 0, 63, 67
2, 47040, Note_off_c, 0, 63, 67
2, 47040, Note_on_c, 0, 68, 67
2, 47088, Control_c, 0, 93, 0
2, 47104, Note_off_c, 0, 68, 67
2, 47104, Note_on_c, 0, 46, 67
2, 47168, Note_off_c, 0, 46, 67
2, 47168, Note_on_c, 0, 53, 67
2, 47232, Note_off_c, 0, 53, 67
2, 47232, Note_on_c, 0, 58, 67
2, 47296, Note_off_c, 0, 58, 67
2, 47296, Note_on_c, 0, 60, 67
2, 47360, Note_off_c, 0, 60, 67
2, 47360, Note_on_c, 0, 62, 67
2, 47424, Note_off_c, 0, 62, 67
2, 47424, Note_on_c, 0, 58, 67
2, 47488, Note_off_c, 0, 58, 67
2, 47488, Note_on_c, 0, 65, 67
2, 47552, Note_off_c, 0, 65, 67
2, 47552, Note_on_c, 0, 70, 67
2, 47600, Control_c, 0, 93, 0
2, 47616, Note_off_c, 0, 70, 67
2, 47616, Note_on_c, 0, 41, 67
2, 47680, Note_off_c, 0, 41, 67
2, 47680, Note_on_c, 0, 44, 67
2, 47744, Note_off_c, 0, 44, 67
2, 47744, Control_c, 0, 64, 64
2, 47744, Note_on_c, 0, 50, 67
2, 47765, Note_off_c, 0, 50, 67
2, 47765, Note_on_c, 0, 53, 67
2, 47786, Note_off_c, 0, 53, 67
2, 47786, Note_on_c, 0, 58, 67
2, 47807, Note_off_c, 0, 58, 67
2, 47808, Control_c, 0, 93, 0
2, 47808, Note_on_c, 0, 62, 67
2, 47829, Note_off_c, 0, 62, 67
2, 47829, Note_on_c, 0, 65, 67
2, 47850, Note_off_c, 0, 65, 67
2, 47850, Note_on_c, 0, 70, 67
2, 47872, Control_c, 0, 93, 0
2, 47872, Control_c, 0, 64, 0
2, 48000, Note_off_c, 0, 70, 67
2, 48000, Note_on_c, 0, 51, 67
2, 48064, Note_off_c, 0, 51, 67
2, 48064, Note_on_c, 0, 46, 67
2, 48128, Note_off_c, 0, 46, 67
2, 48128, Note_on_c, 0, 39, 67
2, 48192, Note_off_c, 0, 39, 67
2, 48192, Note_on_c, 0, 46, 67
2, 48256, Note_off_c, 0, 46, 67
2, 48256, Note_on_c, 0, 51, 67
2, 48320, Note_off_c, 0, 51, 67
2, 48320, Note_on_c, 0, 53, 67
2, 48384, Note_off_c, 0, 53, 67
2, 48384, Note_on_c, 0, 55, 67
2, 48448, Note_off_c, 0, 55, 67
2, 48448, Note_on_c, 0, 51, 67
2, 48512, Note_off_c, 0, 51, 67
2, 48512, Note_on_c, 0, 58, 67
2, 48576, Note_off_c, 0, 58, 67
2, 48576, Note_on_c, 0, 63, 67
2, 48624, Control_c, 0, 93, 0
2, 48640, Note_off_c, 0, 63, 67
2, 48640, Note_on_c, 0, 44, 67
2, 48704, Note_off_c, 0, 44, 67
2, 48704, Note_on_c, 0, 51, 67
2, 48768, Note_off_c, 0, 51, 67
2, 48768, Note_on_c, 0, 56, 67
2, 48832, Note_off_c, 0, 56, 67
2, 48832, Note_on_c, 0, 58, 67
2, 48896, Note_off_c, 0, 58, 67
2, 48896, Note_on_c, 0, 60, 67
2, 48960, Note_off_c, 0, 60, 67
2, 48960, Note_on_c, 0, 56, 67
2, 49024, Note_off_c, 0, 56, 67
2, 49024, Note_on_c, 0, 63, 67
2, 49088, Note_off_c, 0, 63, 67
2, 49088, Note_on_c, 0, 68, 67
2, 49136, Control_c, 0, 93, 0
2, 49152, Note_off_c, 0, 68, 67
2, 49152, Note_on_c, 0, 46, 67
2, 49216, Note_off_c, 0, 46, 67
2, 49216, Note_on_c, 0, 53, 67
2, 49280, Note_off_c, 0, 53, 67
2, 49280, Note_on_c, 0, 58, 67
2, 49344, Note_off_c, 0, 58, 67
2, 49344, Note_on_c, 0, 60, 67
2, 49408, Note_off_c, 0, 60, 67
2, 49408, Note_on_c, 0, 62, 67
2, 49472, Note_off_c, 0, 62, 67
2, 49472, Note_on_c, 0, 58, 67
2, 49536, Note_off_c, 0, 58, 67
2, 49536, Note_on_c, 0, 65, 67
2, 49600, Note_off_c, 0, 65, 67
2, 49600, Note_on_c, 0, 70, 67
2, 49648, Control_c, 0, 93, 0
2, 49664, Note_off_c, 0, 70, 67
2, 49664, Note_on_c, 0, 39, 67
2, 49728, Note_off_c, 0, 39, 67
2, 49728, Note_on_c, 0, 46, 67
2, 49792, Note_off_c, 0, 46, 67
2, 49792, Note_on_c, 0, 51, 67
2, 49856, Note_off_c, 0, 51, 67
2, 49856, Control_c, 0, 64, 64
2, 49856, Note_on_c, 0, 55, 67
2, 49866, Note_off_c, 0, 55, 67
2, 49866, Note_on_c, 0, 58, 67
2, 49877, Note_off_c, 0, 58, 67
2, 49877, Note_on_c, 0, 63, 67
2, 49887, Note_off_c, 0, 63, 67
2, 49888, Control_c, 0, 93, 0
2, 49888, Note_on_c, 0, 67, 67
2, 49898, Note_off_c, 0, 67, 67
2, 49898, Note_on_c, 0, 70, 67
2, 49909, Note_off_c, 0, 70, 67
2, 49909, Note_on_c, 0, 75, 67
2, 49919, Note_off_c, 0, 75, 67
2, 49920, Control_c, 0, 93, 0
2, 50048, Control_c, 0, 93, 0
2, 50112, Control_c, 0, 93, 0
2, 50112, Control_c, 0, 64, 0
2, 50176, Control_c, 0, 93, 0
2, 50176, Note_on_c, 0, 51, 67
2, 50240, Note_off_c, 0, 51, 67
2, 50304, Note_off_c, 0, 51, 67
2, 50304, Note_on_c, 0, 63, 67
2, 50368, Note_off_c, 0, 63, 67
2, 50432, Note_off_c, 0, 63, 67
2, 50432, Note_on_c, 0, 50, 67
2, 50496, Note_off_c, 0, 50, 67
2, 50560, Note_off_c, 0, 50, 67
2, 50560, Note_on_c, 0, 62, 67
2, 50624, Note_off_c, 0, 62, 67
2, 50688, Note_off_c, 0, 62, 67
2, 50688, Note_on_c, 0, 48, 67
2, 50752, Note_off_c, 0, 48, 67
2, 50816, Note_off_c, 0, 48, 67
2, 50816, Note_on_c, 0, 60, 67
2, 50880, Note_off_c, 0, 60, 67
2, 50944, Note_off_c, 0, 60, 67
2, 50944, Note_on_c, 0, 46, 67
2, 51008, Note_off_c, 0, 46, 67
2, 51072, Note_off_c, 0, 46, 67
2, 51072, Note_on_c, 0, 58, 67
2, 51136, Note_off_c, 0, 58, 67
2, 51200, Note_off_c, 0, 58, 67
2, 51200, Note_on_c, 0, 51, 67
2, 51264, Note_off_c, 0, 51, 67
2, 51328, Note_off_c, 0, 51, 67
2, 51328, Note_on_c, 0, 63, 67
2, 51392, Note_off_c, 0, 63, 67
2, 51456, Note_off_c, 0, 63, 67
2, 51456, Note_on_c, 0, 46, 67
2, 51520, Note_off_c, 0, 46, 67
2, 51584, Note_off_c, 0, 46, 67
2, 51584, Note_on_c, 0, 58, 67
2, 51648, Note_off_c, 0, 58, 67
2, 51712, Note_off_c, 0, 58, 67
2, 51712, Note_on_c, 0, 48, 67
2, 51776, Note_off_c, 0, 48, 67
2, 51840, Note_off_c, 0, 48, 67
2, 51840, Note_on_c, 0, 60, 67
2, 51904, Note_off_c, 0, 60, 67
2, 51968, Note_off_c, 0, 60, 67
2, 51968, Note_on_c, 0, 46, 67
2, 52032, Note_off_c, 0, 46, 67
2, 52096, Note_off_c, 0, 46, 67
2, 52096, Note_on_c, 0, 58, 67
2, 52160, Note_off_c, 0, 58, 67
2, 52224, Note_off_c, 0, 58, 67
2, 52224, Note_on_c, 0, 50, 67
2, 52288, Note_off_c, 0, 50, 67
2, 52352, Note_off_c, 0, 50, 67
2, 52352, Note_on_c, 0, 62, 67
2, 52416, Note_off_c, 0, 62, 67
2, 52480, Note_off_c, 0, 62, 67
2, 52480, Note_on_c, 0, 46, 67
2, 52544, Note_off_c, 0, 46, 67
2, 52608, Note_off_c, 0, 46, 67
2, 52608, Note_on_c, 0, 58, 67
2, 52672, Note_off_c, 0, 58, 67
2, 52736, Note_off_c, 0, 58, 67
2, 52736, Note_on_c, 0, 48, 67
2, 52800, Note_off_c, 0, 48, 67
2, 52864, Note_off_c, 0, 48, 67
2, 52864, Note_on_c, 0, 60, 67
2, 52928, Note_off_c, 0, 60, 67
2, 52992, Note_off_c, 0, 60, 67
2, 52992, Note_on_c, 0, 49, 67
2, 53056, Note_off_c, 0, 49, 67
2, 53120, Note_off_c, 0, 49, 67
2, 53120, Note_on_c, 0, 61, 67
2, 53184, Note_off_c, 0, 61, 67
2, 53248, Note_off_c, 0, 61, 67
2, 53248, Note_on_c, 0, 50, 67
2, 53312, Note_off_c, 0, 50, 67
2, 53376, Note_off_c, 0, 50, 67
2, 53376, Note_on_c, 0, 62, 67
2, 53440, Note_off_c, 0, 62, 67
2, 53504, Note_off_c, 0, 62, 67
2, 53504, Note_on_c, 0, 46, 67
2, 53568, Note_off_c, 0, 46, 67
2, 53632, Note_off_c, 0, 46, 67
2, 53632, Note_on_c, 0, 58, 67
2, 53696, Note_off_c, 0, 58, 67
2, 53760, Note_off_c, 0, 58, 67
2, 53760, Note_on_c, 0, 51, 67
2, 53824, Note_off_c, 0, 51, 67
2, 53888, Note_off_c, 0, 51, 67
2, 53888, Note_on_c, 0, 63, 67
2, 53952, Note_off_c, 0, 63, 67
2, 54016, Note_off_c, 0, 63, 67
2, 54016, Note_on_c, 0, 46, 67
2, 54080, Note_off_c, 0, 46, 67
2, 54144, Note_off_c, 0, 46, 67
2, 54144, Note_on_c, 0, 58, 67
2, 54208, Note_off_c, 0, 58, 67
2, 54272, Note_off_c, 0, 58, 67
2, 54272, Note_on_c, 0, 51, 67
2, 54336, Note_off_c, 0, 51, 67
2, 54400, Note_off_c, 0, 51, 67
2, 54400, Note_on_c, 0, 63, 67
2, 54464, Note_off_c, 0, 63, 67
2, 54528, Note_off_c, 0, 63, 67
2, 54528, Note_on_c, 0, 50, 67
2, 54592, Note_off_c, 0, 50, 67
2, 54656, Note_off_c, 0, 50, 67
2, 54656, Note_on_c, 0, 62, 67
2, 54720, Note_off_c, 0, 62, 67
2, 54784, Note_off_c, 0, 62, 67
2, 54784, Note_on_c, 0, 48, 67
2, 54848, Note_off_c, 0, 48, 67
2, 54912, Note_off_c, 0, 48, 67
2, 54912, Note_on_c, 0, 60, 67
2, 54976, Note_off_c, 0, 60, 67
2, 55040, Note_off_c, 0, 60, 67
2, 55040, Note_on_c, 0, 46, 67
2, 55104, Note_off_c, 0, 46, 67
2, 55168, Note_off_c, 0, 46, 67
2, 55168, Note_on_c, 0, 58, 67
2, 55232, Note_off_c, 0, 58, 67
2, 55296, Note_off_c, 0, 58, 67
2, 55296, Note_on_c, 0, 51, 67
2, 55360, Note_off_c, 0, 51, 67
2, 55424, Note_off_c, 0, 51, 67
2, 55424, Note_on_c, 0, 63, 67
2, 55488, Note_off_c, 0, 63, 67
2, 55552, Note_off_c, 0, 63, 67
2, 55552, Note_on_c, 0, 46, 67
2, 55616, Note_off_c, 0, 46, 67
2, 55680, Note_off_c, 0, 46, 67
2, 55680, Note_on_c, 0, 58, 67
2, 55744, Note_off_c, 0, 58, 67
2, 55808, Note_off_c, 0, 58, 67
2, 55808, Note_on_c, 0, 48, 67
2, 55872, Note_off_c, 0, 48, 67
2, 55936, Note_off_c, 0, 48, 67
2, 55936, Note_on_c, 0, 60, 67
2, 56000, Note_off_c, 0, 60, 67
2, 56064, Note_off_c, 0, 60, 67
2, 56064, Note_on_c, 0, 46, 67
2, 56128, Note_off_c, 0, 46, 67
2, 56192, Note_off_c, 0, 46, 67
2, 56192, Note_on_c, 0, 58, 67
2, 56256, Note_off_c, 0, 58, 67
2, 56320, Note_off_c, 0, 58, 67
2, 56320, Note_on_c, 0, 50, 67
2, 56384, Note_off_c, 0, 50, 67
2, 56448, Note_off_c, 0, 50, 67
2, 56448, Note_on_c, 0, 62, 67
2, 56512, Note_off_c, 0, 62, 67
2, 56576, Note_off_c, 0, 62, 67
2, 56576, Note_on_c, 0, 48, 67
2, 56640, Note_off_c, 0, 48, 67
2, 56704, Note_off_c, 0, 48, 67
2, 56704, Note_on_c, 0, 60, 67
2, 56768, Note_off_c, 0, 60, 67
2, 56832, Note_off_c, 0, 60, 67
2, 56832, Note_on_c, 0, 46, 67
2, 56896, Note_off_c, 0, 46, 67
2, 56960, Note_off_c, 0, 46, 67
2, 56960, Note_on_c, 0, 58, 67
2, 57024, Note_off_c, 0, 58, 67
2, 57088, Note_off_c, 0, 58, 67
2, 57088, Note_on_c, 0, 48, 67
2, 57152, Note_off_c, 0, 48, 67
2, 57216, Note_off_c, 0, 48, 67
2, 57216, Note_on_c, 0, 60, 67
2, 57280, Note_off_c, 0, 60, 67
2, 57344, Note_off_c, 0, 60, 67
2, 57344, Note_on_c, 0, 50, 67
2, 57408, Note_off_c, 0, 50, 67
2, 57472, Note_off_c, 0, 50, 67
2, 57472, Note_on_c, 0, 62, 67
2, 57536, Note_off_c, 0, 62, 67
2, 57600, Note_off_c, 0, 62, 67
2, 57600, Note_on_c, 0, 46, 67
2, 57664, Note_off_c, 0, 46, 67
2, 57728, Note_off_c, 0, 46, 67
2, 57728, Note_on_c, 0, 58, 67
2, 57792, Note_off_c, 0, 58, 67
2, 57856, Note_off_c, 0, 58, 67
2, 57856, Note_on_c, 0, 51, 67
2, 57920, Note_off_c, 0, 51, 67
2, 57984, Note_off_c, 0, 51, 67
2, 57984, Note_on_c, 0, 63, 67
2, 58048, Note_off_c, 0, 63, 67
2, 58112, Note_off_c, 0, 63, 67
2, 58112, Note_on_c, 0, 46, 67
2, 58176, Note_off_c, 0, 46, 67
2, 58240, Note_off_c, 0, 46, 67
2, 58240, Note_on_c, 0, 58, 67
2, 58304, Note_off_c, 0, 58, 67
2, 58368, Note_off_c, 0, 58, 67
2, 58368, Note_on_c, 0, 39, 67
2, 58432, Note_off_c, 0, 39, 67
2, 58432, Note_on_c, 0, 46, 67
2, 58496, Note_off_c, 0, 46, 67
2, 58496, Note_on_c, 0, 51, 67
2, 58560, Note_off_c, 0, 51, 67
2, 58560, Note_on_c, 0, 53, 67
2, 58624, Note_off_c, 0, 53, 67
2, 58624, Note_on_c, 0, 55, 67
2, 58688, Note_off_c, 0, 55, 67
2, 58688, Note_on_c, 0, 51, 67
2, 58752, Note_off_c, 0, 51, 67
2, 58752, Note_on_c, 0, 58, 67
2, 58816, Note_off_c, 0, 58, 67
2, 58816, Note_on_c, 0, 63, 67
2, 58864, Control_c, 0, 93, 0
2, 58880, Note_off_c, 0, 63, 67
2, 58880, Note_on_c, 0, 44, 67
2, 58944, Note_off_c, 0, 44, 67
2, 58944, Note_on_c, 0, 51, 67
2, 59008, Note_off_c, 0, 51, 67
2, 59008, Note_on_c, 0, 56, 67
2, 59072, Note_off_c, 0, 56, 67
2, 59072, Note_on_c, 0, 58, 67
2, 59136, Note_off_c, 0, 58, 67
2, 59136, Note_on_c, 0, 60, 67
2, 59200, Note_off_c, 0, 60, 67
2, 59200, Note_on_c, 0, 56, 67
2, 59264, Note_off_c, 0, 56, 67
2, 59264, Note_on_c, 0, 63, 67
2, 59328, Note_off_c, 0, 63, 67
2, 59328, Note_on_c, 0, 68, 67
2, 59376, Control_c, 0, 93, 0
2, 59392, Note_off_c, 0, 68, 67
2, 59392, Note_on_c, 0, 46, 67
2, 59456, Note_off_c, 0, 46, 67
2, 59456, Note_on_c, 0, 53, 67
2, 59520, Note_off_c, 0, 53, 67
2, 59520, Note_on_c, 0, 58, 67
2, 59584, Note_off_c, 0, 58, 67
2, 59584, Note_on_c, 0, 60, 67
2, 59648, Note_off_c, 0, 60, 67
2, 59648, Note_on_c, 0, 62, 67
2, 59712, Note_off_c, 0, 62, 67
2, 59712, Note_on_c, 0, 58, 67
2, 59776, Note_off_c, 0, 58, 67
2, 59776, Note_on_c, 0, 65, 67
2, 59840, Note_off_c, 0, 65, 67
2, 59840, Note_on_c, 0, 70, 67
2, 59888, Control_c, 0, 93, 0
2, 59904, Note_off_c, 0, 70, 67
2, 59904, Note_on_c, 0, 41, 67
2, 59968, Note_off_c, 0, 41, 67
2, 59968, Note_on_c, 0, 44, 67
2, 60032, Note_off_c, 0, 44, 67
2, 60032, Control_c, 0, 64, 64
2, 60032, Note_on_c, 0, 50, 67
2, 60053, Note_off_c, 0, 50, 67
2, 60053, Note_on_c, 0, 53, 67
2, 60074, Note_off_c, 0, 53, 67
2, 60074, Note_on_c, 0, 58, 67
2, 60095, Note_off_c, 0, 58, 67
2, 60096, Control_c, 0, 93, 0
2, 60096, Note_on_c, 0, 62, 67
2, 60117, Note_off_c, 0, 62, 67
2, 60117, Note_on_c, 0, 65, 67
2, 60138, Note_off_c, 0, 65, 67
2, 60138, Note_on_c, 0, 70, 67
2, 60160, Control_c, 0, 93, 0
2, 60160, Control_c, 0, 64, 0
2, 60288, Note_off_c, 0, 70, 67
2, 60288, Note_on_c, 0, 51, 67
2, 60352, Note_off_c, 0, 51, 67
2, 60352, Note_on_c, 0, 46, 67
2, 60416, Note_off_c, 0, 46, 67
2, 60416, Note_on_c, 0, 39, 67
2, 60480, Note_off_c, 0, 39, 67
2, 60480, Note_on_c, 0, 46, 67
2, 60544, Note_off_c, 0, 46, 67
2, 60544, Note_on_c, 0, 51, 67
2, 60608, Note_off_c, 0, 51, 67
2, 60608, Note_on_c, 0, 53, 67
2, 60672, Note_off_c, 0, 53, 67
2, 60672, Note_on_c, 0, 55, 67
2, 60736, Note_off_c, 0, 55, 67
2, 60736, Note_on_c, 0, 51, 67
2, 60800, Note_off_c, 0, 51, 67
2, 60800, Note_on_c, 0, 58, 67
2, 60864, Note_off_c, 0, 58, 67
2, 60864, Note_on_c, 0, 63, 67
2, 60912, Control_c, 0, 93, 0
2, 60928, Note_off_c, 0, 63, 67
2, 60928, Note_on_c, 0, 44, 67
2, 60992, Note_off_c, 0, 44, 67
2, 60992, Note_on_c, 0, 51, 67
2, 61056, Note_off_c, 0, 51, 67
2, 61056, Note_on_c, 0, 56, 67
2, 61120, Note_off_c, 0, 56, 67
2, 61120, Note_on_c, 0, 58, 67
2, 61184, Note_off_c, 0, 58, 67
2, 61184, Note_on_c, 0, 60, 67
2, 61248, Note_off_c, 0, 60, 67
2, 61248, Note_on_c, 0, 56, 67
2, 61312, Note_off_c, 0, 56, 67
2, 61312, Note_on_c, 0, 63, 67
2, 61376, Note_off_c, 0, 63, 67
2, 61376, Note_on_c, 0, 68, 67
2, 61424, Control_c, 0, 93, 0
2, 61440, Note_off_c, 0, 68, 67
2, 61440, Note_on_c, 0, 46, 67
2, 61504, Note_off_c, 0, 46, 67
2, 61504, Note_on_c, 0, 53, 67
2, 61568, Note_off_c, 0, 53, 67
2, 61568, Note_on_c, 0, 58, 67
2, 61632, Note_off_c, 0, 58, 67
2, 61632, Note_on_c, 0, 60, 67
2, 61696, Note_off_c, 0, 60, 67
2, 61696, Note_on_c, 0, 62, 67
2, 61760, Note_off_c, 0, 62, 67
2, 61760, Note_on_c, 0, 58, 67
2, 61824, Note_off_c, 0, 58, 67
2, 61824, Note_on_c, 0, 65, 67
2, 61888, Note_off_c, 0, 65, 67
2, 61888, Note_on_c, 0, 70, 67
2, 61936, Control_c, 0, 93, 0
2, 61952, Note_off_c, 0, 70, 67
2, 61952, Note_on_c, 0, 39, 67
2, 62016, Note_off_c, 0, 39, 67
2, 62016, Note_on_c, 0, 46, 67
2, 62080, Note_off_c, 0, 46, 67
2, 62080, Note_on_c, 0, 51, 67
2, 62144, Note_off_c, 0, 51, 67
2, 62144, Control_c, 0, 64, 64
2, 62144, Note_on_c, 0, 55, 67
2, 62154, Note_off_c, 0, 55, 67
2, 62154, Note_on_c, 0, 58, 67
2, 62165, Note_off_c, 0, 58, 67
2, 62165, Note_on_c, 0, 63, 67
2, 62175, Note_off_c, 0, 63, 67
2, 62176, Control_c, 0, 93, 0
2, 62176, Note_on_c, 0, 67, 67
2, 62186, Note_off_c, 0, 67, 67
2, 62186, Note_on_c, 0, 70, 67
2, 62197, Note_off_c, 0, 70, 67
2, 62197, Note_on_c, 0, 75, 67
2, 62207, Note_off_c, 0, 75, 67
2, 62208, Control_c, 0, 93, 0
2, 62336, Control_c, 0, 93, 0
2, 62400, Control_c, 0, 93, 0
2, 62400, Control_c, 0, 64, 0
2, 62464, Control_c, 0, 93, 0
2, 62464, Note_on_c, 0, 51, 67
2, 62528, Note_off_c, 0, 51, 67
2, 62592, Note_off_c, 0, 51, 67
2, 62592, Note_on_c, 0, 63, 67
2, 62656, Note_off_c, 0, 63, 67
2, 62720, Note_off_c, 0, 63, 67
2, 62720, Note_on_c, 0, 50, 67
2, 62784, Note_off_c, 0, 50, 67
2, 62848, Note_off_c, 0, 50, 67
2, 62848, Note_on_c, 0, 62, 67
2, 62912, Note_off_c, 0, 62, 67
2, 62976, Note_off_c, 0, 62, 67
2, 62976, Note_on_c, 0, 48, 67
2, 63040, Note_off_c, 0, 48, 67
2, 63104, Note_off_c, 0, 48, 67
2, 63104, Note_on_c, 0, 60, 67
2, 63168, Note_off_c, 0, 60, 67
2, 63232, Note_off_c, 0, 60, 67
2, 63232, Note_on_c, 0, 46, 67
2, 63296, Note_off_c, 0, 46, 67
2, 63360, Note_off_c, 0, 46, 67
2, 63360, Note_on_c, 0, 58, 67
2, 63424, Note_off_c, 0, 58, 67
2, 63488, Note_off_c, 0, 58, 67
2, 63488, Note_on_c, 0, 51, 67
2, 63552, Note_off_c, 0, 51, 67
2, 63616, Note_off_c, 0, 51, 67
2, 63616, Note_on_c, 0, 63, 67
2, 63680, Note_off_c, 0, 63, 67
2, 63744, Note_off_c, 0, 63, 67
2, 63744, Note_on_c, 0, 46, 67
2, 63808, Note_off_c, 0, 46, 67
2, 63872, Note_off_c, 0, 46, 67
2, 63872, Note_on_c, 0, 58, 67
2, 63936, Note_off_c, 0, 58, 67
2, 64000, Note_off_c, 0, 58, 67
2, 64000, Note_on_c, 0, 48, 67
2, 64064, Note_off_c, 0, 48, 67
2, 64128, Note_off_c, 0, 48, 67
2, 64128, Note_on_c, 0, 60, 67
2, 64192, Note_off_c, 0, 60, 67
2, 64256, Note_off_c, 0, 60, 67
2, 64256, Note_on_c, 0, 46, 67
2, 64320, Note_off_c, 0, 46, 67
2, 64384, Note_off_c, 0, 46, 67
2, 64384, Note_on_c, 0, 58, 67
2, 64448, Note_off_c, 0, 58, 67
2, 64512, Note_off_c, 0, 58, 67
2, 64512, Note_on_c, 0, 50, 67
2, 64576, Note_off_c, 0, 50, 67
2, 64640, Note_off_c, 0, 50, 67
2, 64640, Note_on_c, 0, 62, 67
2, 64704, Note_off_c, 0, 62, 67
2, 64768, Note_off_c, 0, 62, 67
2, 64768, Note_on_c, 0, 46, 67
2, 64832, Note_off_c, 0, 46, 67
2, 64896, Note_off_c, 0, 46, 67
2, 64896, Note_on_c, 0, 58, 67
2, 64960, Note_off_c, 0, 58, 67
2, 65024, Note_off_c, 0, 58, 67
2, 65024, Note_on_c, 0, 48, 67
2, 65088, Note_off_c, 0, 48, 67
2, 65152, Note_off_c, 0, 48, 67
2, 65152, Note_on_c, 0, 60, 67
2, 65216, Note_off_c, 0, 60, 67
2, 65280, Note_off_c, 0, 60, 67
2, 65280, Note_on_c, 0, 49, 67
2, 65344, Note_off_c, 0, 49, 67
2, 65408, Note_off_c, 0, 49, 67
2, 65408, Note_on_c, 0, 61, 67
2, 65472, Note_off_c, 0, 61, 67
2, 65536, Note_off_c, 0, 61, 67
2, 65536, Note_on_c, 0, 50, 67
2, 65600, Note_off_c, 0, 50, 67
2, 65664, Note_off_c, 0, 50, 67
2, 65664, Note_on_c, 0, 62, 67
2, 65728, Note_off_c, 0, 62, 67
2, 65792, Note_off_c, 0, 62, 67
2, 65792, Note_on_c, 0, 46, 67
2, 65856, Note_off_c, 0, 46, 67
2, 65920, Note_off_c, 0, 46, 67
2, 65920, Note_on_c, 0, 58, 67
2, 65984, Note_off_c, 0, 58, 67
2, 66048, Note_off_c, 0, 58, 67
2, 66048, Note_on_c, 0, 51, 67
2, 66112, Note_off_c, 0, 51, 67
2, 66176, Note_off_c, 0, 51, 67
2, 66176, Note_on_c, 0, 63, 67
2, 66240, Note_off_c, 0, 63, 67
2, 66304, Note_off_c, 0, 63, 67
2, 66304, Note_on_c, 0, 46, 67
2, 66368, Note_off_c, 0, 46, 67
2, 66432, Note_off_c, 0, 46, 67
2, 66432, Note_on_c, 0, 58, 67
2, 66496, Note_off_c, 0, 58, 67
2, 66560, Note_off_c, 0, 58, 67
2, 66560, Note_on_c, 0, 51, 67
2, 66624, Note_off_c, 0, 51, 67
2, 66688, Note_off_c, 0, 51, 67
2, 66688, Note_on_c, 0, 63, 67
2, 66752, Note_off_c, 0, 63, 67
2, 66816, Note_off_c, 0, 63, 67
2, 66816, Note_on_c, 0, 50, 67
2, 66880, Note_off_c, 0, 50, 67
2, 66944, Note_off_c, 0, 50, 67
2, 66944, Note_on_c, 0, 62, 67
2, 67008, Note_off_c, 0, 62, 67
2, 67072, Note_off_c, 0, 62, 67
2, 67072, Note_on_c, 0, 48, 67
2, 67136, Note_off_c, 0, 48, 67
2, 67200, Note_off_c, 0, 48, 67
2, 67200, Note_on_c, 0, 60, 67
2, 67264, Note_off_c, 0, 60, 67
2, 67328, Note_off_c, 0, 60, 67
2, 67328, Note_on_c, 0, 46, 67
2, 67392, Note_off_c, 0, 46, 67
2, 67456, Note_off_c, 0, 46, 67
2, 67456, Note_on_c, 0, 58, 67
2, 67520, Note_off_c, 0, 58, 67
2, 67584, Note_off_c, 0, 58, 67
2, 67584, Note_on_c, 0, 51, 67
2, 67648, Note_off_c, 0, 51, 67
2, 67712, Note_off_c, 0, 51, 67
2, 67712, Note_on_c, 0, 63, 67
2, 67776, Note_off_c, 0, 63, 67
2, 67840, Note_off_c, 0, 63, 67
2, 67840, Note_on_c, 0, 46, 67
2, 67904, Note_off_c, 0, 46, 67
2, 67968, Note_off_c, 0, 46, 67
2, 67968, Note_on_c, 0, 58, 67
2, 68032, Note_off_c, 0, 58, 67
2, 68096, Note_off_c, 0, 58, 67
2, 68096, Note_on_c, 0, 48, 67
2, 68160, Note_off_c, 0, 48, 67
2, 68224, Note_off_c, 0, 48, 67
2, 68224, Note_on_c, 0, 60, 67
2, 68288, Note_off_c, 0, 60, 67
2, 68352, Note_off_c, 0, 60, 67
2, 68352, Note_on_c, 0, 46, 67
2, 68416, Note_off_c, 0, 46, 67
2, 68480, Note_off_c, 0, 46, 67
2, 68480, Note_on_c, 0, 58, 67
2, 68544, Note_off_c, 0, 58, 67
2, 68608, Note_off_c, 0, 58, 67
2, 68608, Note_on_c, 0, 50, 67
2, 68672, Note_off_c, 0, 50, 67
2, 68736, Note_off_c, 0, 50, 67
2, 68736, Note_on_c, 0, 62, 67
2, 68800, Note_off_c, 0, 62, 67
2, 68864, Note_off_c, 0, 62, 67
2, 68864, Note_on_c, 0, 48, 67
2, 68928, Note_off_c, 0, 48, 67
2, 68992, Note_off_c, 0, 48, 67
2, 68992, Note_on_c, 0, 60, 67
2, 69056, Note_off_c, 0, 60, 67
2, 69120, Note_off_c, 0, 60, 67
2, 69120, Note_on_c, 0, 46, 67
2, 69184, Note_off_c, 0, 46, 67
2, 69248, Note_off_c, 0, 46, 67
2, 69248, Note_on_c, 0, 58, 67
2, 69312, Note_off_c, 0, 58, 67
2, 69376, Note_off_c, 0, 58, 67
2, 69376, Note_on_c, 0, 48, 67
2, 69440, Note_off_c, 0, 48, 67
2, 69504, Note_off_c, 0, 48, 67
2, 69504, Note_on_c, 0, 60, 67
2, 69568, Note_off_c, 0, 60, 67
2, 69632, Note_off_c, 0, 60, 67
2, 69632, Note_on_c, 0, 50, 67
2, 69696, Note_off_c, 0, 50, 67
2, 69760, Note_off_c, 0, 50, 67
2, 69760, Note_on_c, 0, 62, 67
2, 69824, Note_off_c, 0, 62, 67
2, 69888, Note_off_c, 0, 62, 67
2, 69888, Note_on_c, 0, 46, 67
2, 69952, Note_off_c, 0, 46, 67
2, 70016, Note_off_c, 0, 46, 67
2, 70016, Note_on_c, 0, 58, 67
2, 70080, Note_off_c, 0, 58, 67
2, 70144, Note_off_c, 0, 58, 67
2, 70144, Note_on_c, 0, 51, 67
2, 70208, Note_off_c, 0, 51, 67
2, 70272, Note_off_c, 0, 51, 67
2, 70272, Note_on_c, 0, 63, 67
2, 70336, Note_off_c, 0, 63, 67
2, 70400, Note_off_c, 0, 63, 67
2, 70400, Note_on_c, 0, 46, 67
2, 70464, Note_off_c, 0, 46, 67
2, 70528, Note_off_c, 0, 46, 67
2, 70528, Note_on_c, 0, 58, 67
2, 70592, Note_off_c, 0, 58, 67
2, 70656, Note_off_c, 0, 58, 67
2, 70656, Note_on_c, 0, 39, 67
2, 70720, Note_off_c, 0, 39, 67
2, 70720, Note_on_c, 0, 46, 67
2, 70784, Note_off_c, 0, 46, 67
2, 70784, Note_on_c, 0, 51, 67
2, 70848, Note_off_c, 0, 51, 67
2, 70848, Note_on_c, 0, 53, 67
2, 70912, Note_off_c, 0, 53, 67
2, 70912, Note_on_c, 0, 55, 67
2, 70976, Note_off_c, 0, 55, 67
2, 70976, Note_on_c, 0, 51, 67
2, 71040, Note_off_c, 0, 51, 67
2, 71040, Note_on_c, 0, 58, 67
2, 71104, Note_off_c, 0, 58, 67
2, 71104, Note_on_c, 0, 63, 67
2, 71152, Control_c, 0, 93, 0
2, 71168, Note_off_c, 0, 63, 67
2, 71168, Note_on_c, 0, 44, 67
2, 71232, Note_off_c, 0, 44, 67
2, 71232, Note_on_c, 0, 51, 67
2, 71296, Note_off_c, 0, 51, 67
2, 71296, Note_on_c, 0, 56, 67
2, 71360, Note_off_c, 0, 56, 67
2, 71360, Note_on_c, 0, 58, 67
2, 71424, Note_off_c, 0, 58, 67
2, 71424, Note_on_c, 0, 60, 67
2, 71488, Note_off_c, 0, 60, 67
2, 71488, Note_on_c, 0, 56, 67
2, 71552, Note_off_c, 0, 56, 67
2, 71552, Note_on_c, 0, 63, 67
2, 71616, Note_off_c, 0, 63, 67
2, 71616, Note_on_c, 0, 68, 67
2, 71664, Control_c, 0, 93, 0
2, 71680, Note_off_c, 0, 68, 67
2, 71680, Note_on_c, 0, 46, 67
2, 71744, Note_off_c, 0, 46, 67
2, 71744, Note_on_c, 0, 53, 67
2, 71808, Note_off_c, 0, 53, 67
2, 71808, Note_on_c, 0, 58, 67
2, 71872, Note_off_c, 0, 58, 67
2, 71872, Note_on_c, 0, 60, 67
2, 71936, Note_off_c, 0, 60, 67
2, 71936, Note_on_c, 0, 62, 67
2, 72000, Note_off_c, 0, 62, 67
2, 72000, Note_on_c, 0, 58, 67
2, 72064, Note_off_c, 0, 58, 67
2, 72064, Note_on_c, 0, 65, 67
2, 72128, Note_off_c, 0, 65, 67
2, 72128, Note_on_c, 0, 70, 67
2, 72176, Control_c, 0, 93, 0
2, 72192, Note_off_c, 0, 70, 67
2, 72192, Note_on_c, 0, 41, 67
2, 72256, Note_off_c, 0, 41, 67
2, 72256, Note_on_c, 0, 44, 67
2, 72320, Note_off_c, 0, 44, 67
2, 72320, Control_c, 0, 64, 64
2, 72320, Note_on_c, 0, 50, 67
2, 72341, Note_off_c, 0, 50, 67
2, 72341, Note_on_c, 0, 53, 67
2, 72362, Note_off_c, 0, 53, 67
2, 72362, Note_on_c, 0, 58, 67
2, 72383, Note_off_c, 0, 58, 67
2, 72384, Control_c, 0, 93, 0
2, 72384, Note_on_c, 0, 62, 67
2, 72405, Note_off_c, 0, 62, 67
2, 72405, Note_on_c, 0, 65, 67
2, 72426, Note_off_c, 0, 65, 67
2, 72426, Note_on_c, 0, 70, 67
2, 72448, Control_c, 0, 93, 0
2, 72448, Control_c, 0, 64, 0
2, 72576, Note_off_c, 0, 70, 67
2, 72576, Note_on_c, 0, 51, 67
2, 72640, Note_off_c, 0, 51, 67
2, 72640, Note_on_c, 0, 46, 67
2, 72704, Note_off_c, 0, 46, 67
2, 72704, Note_on_c, 0, 39, 67
2, 72768, Note_off_c, 0, 39, 67
2, 72768, Note_on_c, 0, 46, 67
2, 72832, Note_off_c, 0, 46, 67
2, 72832, Note_on_c, 0, 51, 67
2, 72896, Note_off_c, 0, 51, 67
2, 72896, Note_on_c, 0, 53, 67
2, 72960, Note_off_c, 0, 53, 67
2, 72960, Note_on_c, 0, 55, 67
2, 73024, Note_off_c, 0, 55, 67
2, 73024, Note_on_c, 0, 51, 67
2, 73088, Note_off_c, 0, 51, 67
2, 73088, Note_on_c, 0, 58, 67
2, 73152, Note_off_c, 0, 58, 67
2, 73152, Note_on_c, 0, 63, 67
2, 73200, Control_c, 0, 93, 0
2, 73216, Note_off_c, 0, 63, 67
2, 73216, Note_on_c, 0, 44, 67
2, 73280, Note_off_c, 0, 44, 67
2, 73280, Note_on_c, 0, 51, 67
2, 73344, Note_off_c, 0, 51, 67
2, 73344, Note_on_c, 0, 56, 67
2, 73408, Note_off_c, 0, 56, 67
2, 73408, Note_on_c, 0, 58, 67
2, 73472, Note_off_c, 0, 58, 67
2, 73472, Note_on_c, 0, 60, 67
2, 73536, Note_off_c, 0, 60, 67
2, 73536, Note_on_c, 0, 56, 67
2, 73600, Note_off_c, 0, 56, 67
2, 73600, Note_on_c, 0, 63, 67
2, 73664, Note_off_c, 0, 63, 67
2, 73664, Note_on_c, 0, 68, 67
2, 73712, Control_c, 0, 93, 0
2, 73728, Note_off_c, 0, 68, 67
2, 73728, Note_on_c, 0, 46, 67
2, 73792, Note_off_c, 0, 46, 67
2, 73792, Note_on_c, 0, 53, 67
2, 73856, Note_off_c, 0, 53, 67
2, 73856, Note_on_c, 0, 58, 67
2, 73920, Note_off_c, 0, 58, 67
2, 73920, Note_on_c, 0, 60, 67
2, 73984, Note_off_c, 0, 60, 67
2, 73984, Note_on_c, 0, 62, 67
2, 74048, Note_off_c, 0, 62, 67
2, 74048, Note_on_c, 0, 58, 67
2, 74112, Note_off_c, 0, 58, 67
2, 74112, Note_on_c, 0, 65, 67
2, 74176, Note_off_c, 0, 65, 67
2, 74176, Note_on_c, 0, 70, 67
2, 74224, Control_c, 0, 93, 0
2, 74240, Note_off_c, 0, 70, 67
2, 74240, Note_on_c, 0, 39, 67
2, 74304, Note_off_c, 0, 39, 67
2, 74304, Note_on_c, 0, 46, 67
2, 74368, Note_off_c, 0, 46, 67
2, 74368, Note_on_c, 0, 51, 67
2, 74432, Note_off_c, 0, 51, 67
2, 74432, Control_c, 0, 64, 64
2, 74432, Note_on_c, 0, 55, 67
2, 74442, Note_off_c, 0, 55, 67
2, 74442, Note_on_c, 0, 58, 67
2, 74453, Note_off_c, 0, 58, 67
2, 74453, Note_on_c, 0, 63, 67
2, 74463, Note_off_c, 0, 63, 67
2, 74464, Control_c, 0, 93, 0
2, 74464, Note_on_c, 0, 67, 67
2, 74474, Note_off_c, 0, 67, 67
2, 74474, Note_on_c, 0, 70, 67
2, 74485, Note_off_c, 0, 70, 67
2, 74485, Note_on_c, 0, 75, 67
2, 74495, Note_off_c, 0, 75, 67
2, 74496, Control_c, 0, 93, 0
2, 74624, Control_c, 0, 93, 0
2, 74688, Control_c, 0, 93, 0
2, 74688, Control_c, 0, 64, 0
2, 74752, Control_c, 0, 93, 0
2, 74752, Note_on_c, 0, 51, 67
2, 74816, Note_off_c, 0, 51, 67
2, 74880, Note_off_c, 0, 51, 67
2, 74880, Note_on_c, 0, 63, 67
2, 74944, Note_off_c, 0, 63, 67
2, 75008, Note_off_c, 0, 63, 67
2, 75008, Note_on_c, 0, 50, 67
2, 75072, Note_off_c, 0, 50, 67
2, 75136, Note_off_c, 0, 50, 67
2, 75136, Note_on_c, 0, 62, 67
2, 75200, Note_off_c, 0, 62, 67
2, 75264, Note_off_c, 0, 62, 67
2, 75264, Note_on_c, 0, 48, 67
2, 75328, Note_off_c, 0, 48, 67
2, 75392, Note_off_c, 0, 48, 67
2, 75392, Note_on_c, 0, 60, 67
2, 75456, Note_off_c, 0, 60, 67
2, 75520, Note_off_c, 0, 60, 67
2, 75520, Note_on_c, 0, 46, 67
2, 75584, Note_off_c, 0, 46, 67
2, 75648, Note_off_c, 0, 46, 67
2, 75648, Note_on_c, 0, 58, 67
2, 75712, Note_off_c, 0, 58, 67
2, 75776, Note_off_c, 0, 58, 67
2, 75776, Note_on_c, 0, 51, 67
2, 75840, Note_off_c, 0, 51, 67
2, 75904, Note_off_c, 0, 51, 67
2, 75904, Note_on_c, 0, 63, 67
2, 75968, Note_off_c, 0, 63, 67
2, 76032, Note_off_c, 0, 63, 67
2, 76032, Note_on_c, 0, 46, 67
2, 76096, Note_off_c, 0, 46, 67
2, 76160, Note_off_c, 0, 46, 67
2, 76160, Note_on_c, 0, 58, 67
2, 76224, Note_off_c, 0, 58, 67
2, 76288, Note_off_c, 0, 58, 67
2, 76288, Note_on_c, 0, 48, 67
2, 76352, Note_off_c, 0, 48, 67
2, 76416, Note_off_c, 0, 48, 67
2, 76416, Note_on_c, 0, 60, 67
2, 76480, Note_off_c, 0, 60, 67
2, 76544, Note_off_c, 0, 60, 67
2, 76544, Note_on_c, 0, 46, 67
2, 76608, Note_off_c, 0, 46, 67
2, 76672, Note_off_c, 0, 46, 67
2, 76672, Note_on_c, 0, 58, 67
2, 76736, Note_off_c, 0, 58, 67
2, 76800, Note_off_c, 0, 58, 67
2, 76800, Note_on_c, 0, 50, 67
2, 76864, Note_off_c, 0, 50, 67
2, 76928, Note_off_c, 0, 50, 67
2, 76928, Note_on_c, 0, 62, 67
2, 76992, Note_off_c, 0, 62, 67
2, 77056, Note_off_c, 0, 62, 67
2, 77056, Note_on_c, 0, 46, 67
2, 77120, Note_off_c, 0, 46, 67
2, 77184, Note_off_c, 0, 46, 67
2, 77184, Note_on_c, 0, 58, 67
2, 77248, Note_off_c, 0, 58, 67
2, 77312, Note_off_c, 0, 58, 67
2, 77312, Note_on_c, 0, 48, 67
2, 77376, Note_off_c, 0, 48, 67
2, 77440, Note_off_c, 0, 48, 67
2, 77440, Note_on_c, 0, 60, 67
2, 77504, Note_off_c, 0, 60, 67
2, 77568, Note_off_c, 0, 60, 67
2, 77568, Note_on_c, 0, 49, 67
2, 77632, Note_off_c, 0, 49, 67
2, 77696, Note_off_c, 0, 49, 67
2, 77696, Note_on_c, 0, 61, 67
2, 77760, Note_off_c, 0, 61, 67
2, 77824, Note_off_c, 0, 61, 67
2, 77824, Note_on_c, 0, 50, 67
2, 77888, Note_off_c, 0, 50, 67
2, 77952, Note_off_c, 0, 50, 67
2, 77952, Note_on_c, 0, 62, 67
2, 78016, Note_off_c, 0, 62, 67
2, 78080, Note_off_c, 0, 62, 67
2, 78080, Note_on_c, 0, 46, 67
2, 78144, Note_off_c, 0, 46, 67
2, 78208, Note_off_c, 0, 46, 67
2, 78208, Note_on_c, 0, 58, 67
2, 78272, Note_off_c, 0, 58, 67
2, 78336, Note_off_c, 0, 58, 67
2, 78336, Note_on_c, 0, 51, 67
2, 78400, Note_off_c, 0, 51, 67
2, 78464, Note_off_c, 0, 51, 67
2, 78464, Note_on_c, 0, 63, 67
2, 78528, Note_off_c, 0, 63, 67
2, 78592, Note_off_c, 0, 63, 67
2, 78592, Note_on_c, 0, 46, 67
2, 78656, Note_off_c, 0, 46, 67
2, 78720, Note_off_c, 0, 46, 67
2, 78720, Note_on_c, 0, 58, 67
2, 78784, Note_off_c, 0, 58, 67
2, 78848, Note_off_c, 0, 58, 67
2, 78848, Note_on_c, 0, 51, 67
2, 78912, Note_off_c, 0, 51, 67
2, 78976, Note_off_c, 0, 51, 67
2, 78976, Note_on_c, 0, 63, 67
2, 79040, Note_off_c, 0, 63, 67
2, 79104, Note_off_c, 0, 63, 67
2, 79104, Note_on_c, 0, 50, 67
2, 79168, Note_off_c, 0, 50, 67
2, 79232, Note_off_c, 0, 50, 67
2, 79232, Note_on_c, 0, 62, 67
2, 79296, Note_off_c, 0, 62, 67
2, 79360, Note_off_c, 0, 62, 67
2, 79360, Note_on_c, 0, 48, 67
2, 79424, Note_off_c, 0, 48, 67
2, 79488, Note_off_c, 0, 48, 67
2, 79488, Note_on_c, 0, 60, 67
2, 79552, Note_off_c, 0, 60, 67
2, 79616, Note_off_c, 0, 60, 67
2, 79616, Note_on_c, 0, 46, 67
2, 79680, Note_off_c, 0, 46, 67
2, 79744, Note_off_c, 0, 46, 67
2, 79744, Note_on_c, 0, 58, 67
2, 79808, Note_off_c, 0, 58, 67
2, 79872, Note_off_c, 0, 58, 67
2, 79872, Note_on_c, 0, 51, 67
2, 79936, Note_off_c, 0, 51, 67
2, 80000, Note_off_c, 0, 51, 67
2, 80000, Note_on_c, 0, 63, 67
2, 80064, Note_off_c, 0, 63, 67
2, 80128, Note_off_c, 0, 63, 67
2, 80128, Note_on_c, 0, 46, 67
2, 80192, Note_off_c, 0, 46, 67
2, 80256, Note_off_c, 0, 46, 67
2, 80256, Note_on_c, 0, 58, 67
2, 80320, Note_off_c, 0, 58, 67
2, 80384, Note_off_c, 0, 58, 67
2, 80384, Note_on_c, 0, 48, 67
2, 80448, Note_off_c, 0, 48, 67
2, 80512, Note_off_c, 0, 48, 67
2, 80512, Note_on_c, 0, 60, 67
2, 80576, Note_off_c, 0, 60, 67
2, 80640, Note_off_c, 0, 60, 67
2, 80640, Note_on_c, 0, 46, 67
2, 80704, Note_off_c, 0, 46, 67
2, 80768, Note_off_c, 0, 46, 67
2, 80768, Note_on_c, 0, 58, 67
2, 80832, Note_off_c, 0, 58, 67
2, 80896, Note_off_c, 0, 58, 67
2, 80896, Note_on_c, 0, 50, 67
2, 80960, Note_off_c, 0, 50, 67
2, 81024, Note_off_c, 0, 50, 67
2, 81024, Note_on_c, 0, 62, 67
2, 81088, Note_off_c, 0, 62, 67
2, 81152, Note_off_c, 0, 62, 67
2, 81152, Note_on_c, 0, 48, 67
2, 81216, Note_off_c, 0, 48, 67
2, 81280, Note_off_c, 0, 48, 67
2, 81280, Note_on_c, 0, 60, 67
2, 81344, Note_off_c, 0, 60, 67
2, 81408, Note_off_c, 0, 60, 67
2, 81408, Note_on_c, 0, 46, 67
2, 81472, Note_off_c, 0, 46, 67
2, 81536, Note_off_c, 0, 46, 67
2, 81536, Note_on_c, 0, 58, 67
2, 81600, Note_off_c, 0, 58, 67
2, 81664, Note_off_c, 0, 58, 67
2, 81664, Note_on_c, 0, 48, 67
2, 81728, Note_off_c, 0, 48, 67
2, 81792, Note_off_c, 0, 48, 67
2, 81792, Note_on_c, 0, 60, 67
2, 81856, Note_off_c, 0, 60, 67
2, 81920, Note_off_c, 0, 60, 67
2, 81920, Note_on_c, 0, 50, 67
2, 81984, Note_off_c, 0, 50, 67
2, 82048, Note_off_c, 0, 50, 67
2, 82048, Note_on_c, 0, 62, 67
2, 82112, Note_off_c, 0, 62, 67
2, 82176, Note_off_c, 0, 62, 67
2, 82176, Note_on_c, 0, 46, 67
2, 82240, Note_off_c, 0, 46, 67
2, 82304, Note_off_c, 0, 46, 67
2, 82304, Note_on_c, 0, 58, 67
2, 82368, Note_off_c, 0, 58, 67
2, 82432, Note_off_c, 0, 58, 67
2, 82432, Note_on_c, 0, 51, 67
2, 82496, Note_off_c, 0, 51, 67
2, 82560, Note_off_c, 0, 51, 67
2, 82560, Note_on_c, 0, 63, 67
2, 82624, Note_off_c, 0, 63, 67
2, 82688, Note_off_c, 0, 63, 67
2, 82688, Note_on_c, 0, 46, 67
2, 82752, Note_off_c, 0, 46, 67
2, 82816, Note_off_c, 0, 46, 67
2, 82816, Note_on_c, 0, 58, 67
2, 82880, Note_off_c, 0, 58, 67
2, 82944, Note_off_c, 0, 58, 67
2, 82944, Note_on_c, 0, 39, 67
2, 83008, Note_off_c, 0, 39, 67
2, 83008, Note_on_c, 0, 46, 67
2, 83072, Note_off_c, 0, 46, 67
2, 83072, Note_on_c, 0, 51, 67
2, 83136, Note_off_c, 0, 51, 67
2, 83136, Note_on_c, 0, 53, 67
2, 83200, Note_off_c, 0, 53, 67
2, 83200, Note_on_c, 0, 55, 67
2, 83264, Note_off_c, 0, 55, 67
2, 83264, Note_on_c, 0, 51, 67
2, 83328, Note_off_c, 0, 51, 67
2, 83328, Note_on_c, 0, 58, 67
2, 83392, Note_off_c, 0, 58, 67
2, 83392, Note_on_c, 0, 63, 67
2, 83440, Control_c, 0, 93, 0
2, 83456, Note_off_c, 0, 63, 67
2, 83456, Note_on_c, 0, 44, 67
2, 83520, Note_off_c, 0, 44, 67
2, 83520, Note_on_c, 0, 51, 67
2, 83584, Note_off_c, 0, 51, 67
2, 83584, Note_on_c, 0, 56, 67
2, 83648, Note_off_c, 0, 56, 67
2, 83648, Note_on_c, 0, 58, 67
2, 83712, Note_off_c, 0, 58, 67
2, 83712, Note_on_c, 0, 60, 67
2, 83776, Note_off_c, 0, 60, 67
2, 83776, Note_on_c, 0, 56, 67
2, 83840, Note_off_c, 0, 56, 67
2, 83840, Note_on_c, 0, 63, 67
2, 83904, Note_off_c, 0, 63, 67
2, 83904, Note_on_c, 0, 68, 67
2, 83952, Control_c, 0, 93, 0
2, 83968, Note_off_c, 0, 68, 67
2, 83968, Note_on_c, 0, 46, 67
2, 84032, Note_off_c, 0, 46, 67
2, 84032, Note_on_c, 0, 53, 67
2, 84096, Note_off_c, 0, 53, 67
2, 84096, Note_on_c, 0, 58, 67
2, 84160, Note_off_c, 0, 58, 67
2, 84160, Note_on_c, 0, 60, 67
2, 84224, Note_off_c, 0, 60, 67
2, 84224, Note_on_c, 0, 62, 67
2, 84288, Note_off_c, 0, 62, 67
2, 84288, Note_on_c, 0, 58, 67
2, 84352, Note_off_c, 0, 58, 67
2, 84352, Note_on_c, 0, 65, 67
2, 84416, Note_off_c, 0, 65, 67
2, 84416, Note_on_c, 0, 70, 67
2, 84464, Control_c, 0, 93, 0
2, 84480, Note_off_c, 0, 70, 67
2, 84480, Note_on_c, 0, 41, 67
2, 84544, Note_off_c, 0, 41, 67
2, 84544, Note_on_c, 0, 44, 67
2, 84608, Note_off_c, 0, 44, 67
2, 84608, Control_c, 0, 64, 64
2, 84608, Note_on_c, 0, 50, 67
2, 84629, Note_off_c, 0, 50, 67
2, 84629, Note_on_c, 0, 53, 67
2, 84650, Note_off_c, 0, 53, 67
2, 84650, Note_on_c, 0, 58, 67
2, 84671, Note_off_c, 0, 58, 67
2, 84672, Control_c, 0, 93, 0
2, 84672, Note_on_c, 0, 62, 67
2, 84693, Note_off_c, 0, 62, 67
2, 84693, Note_on_c, 0, 65, 67
2, 84714, Note_off_c, 0, 65, 67
2, 84714, Note_on_c, 0, 70, 67
2, 84736, Control_c, 0, 93, 0
2, 84736, Control_c, 0, 64, 0
2, 84864, Note_off_c, 0, 70, 67
2, 84864, Note_on_c, 0, 51, 67
2, 84928, Note_off_c, 0, 51, 67
2, 84928, Note_on_c, 0, 46, 67
2, 84992, Note_off_c, 0, 46, 67
2, 84992, Note_on_c, 0, 39, 67
2, 85056, Note_off_c, 0, 39, 67
2, 85056, Note_on_c, 0, 46, 67
2, 85120, Note_off_c, 0, 46, 67
2, 85120, Note_on_c, 0, 51, 67
2, 85184, Note_off_c, 0, 51, 67
2, 85184, Note_on_c, 0, 53, 67
2, 85248, Note_off_c, 0, 53, 67
2, 85248, Note_on_c, 0, 55, 67
2, 85312, Note_off_c, 0, 55, 67
2, 85312, Note_on_c, 0, 51, 67
2, 85376, Note_off_c, 0, 51, 67
2, 85376, Note_on_c, 0, 58, 67
2, 85440, Note_off_c, 0, 58, 67
2, 85440, Note_on_c, 0, 63, 67
2, 85488, Control_c, 0, 93, 0
2, 85504, Note_off_c, 0, 63, 67
2, 85504, Note_on_c, 0, 44, 67
2, 85568, Note_off_c, 0, 44, 67
2, 85568, Note_on_c, 0, 51, 67
2, 85632, Note_off_c, 0, 51, 67
2, 85632, Note_on_c, 0, 56, 67
2, 85696, Note_off_c, 0, 56, 67
2, 85696, Note_on_c, 0, 58, 67
2, 85760, Note_off_c, 0, 58, 67
2, 85760, Note_on_c, 0, 60, 67
2, 85824, Note_off_c, 0, 60, 67
2, 85824, Note_on_c, 0, 56, 67
2, 85888, Note_off_c, 0, 56, 67
2, 85888, Note_on_c, 0, 63, 67
2, 85952, Note_off_c, 0, 63, 67
2, 85952, Note_on_c, 0, 68, 67
2, 86000, Control_c, 0, 93, 0
2, 86016, Note_off_c, 0, 68, 67
2, 86016, Note_on_c, 0, 46, 67
2, 86080, Note_off_c, 0, 46, 67
2, 86080, Note_on_c, 0, 53, 67
2, 86144, Note_off_c, 0, 53, 67
2, 86144, Note_on_c, 0, 58, 67
2, 86208, Note_off_c, 0, 58, 67
2, 86208, Note_on_c, 0, 60, 67
2, 86272, Note_off_c, 0, 60, 67
2, 86272, Note_on_c, 0, 62, 67
2, 86336, Note_off_c, 0, 62, 67
2, 86336, Note_on_c, 0, 58, 67
2, 86400, Note_off_c, 0, 58, 67
2, 86400, Note_on_c, 0, 65, 67
2, 86464, Note_off_c, 0, 65, 67
2, 86464, Note_on_c, 0, 70, 67
2, 86512, Control_c, 0, 93, 0
2, 86528, Note_off_c, 0, 70, 67
2, 86528, Note_on_c, 0, 39, 67
2, 86592, Note_off_c, 0, 39, 67
2, 86592, Note_on_c, 0, 46, 67
2, 86656, Note_off_c, 0, 46, 67
2, 86656, Note_on_c, 0, 51, 67
2, 86720, Note_off_c, 0, 51, 67
2, 86720, Control_c, 0, 64, 64
2, 86720, Note_on_c, 0, 55, 67
2, 86730, Note_off_c, 0, 55, 67
2, 86730, Note_on_c, 0, 58, 67
2, 86741, Note_off_c, 0, 58, 67
2, 86741, Note_on_c, 0, 63, 67
2, 86751, Note_off_c, 0, 63, 67
2, 86752, Control_c, 0, 93, 0
2, 86752, Note_on_c, 0, 67, 67
2, 86762, Note_off_c, 0, 67, 67
2, 86762, Note_on_c, 0, 70, 67
2, 86773, Note_off_c, 0, 70, 67
2, 86773, Note_on_c, 0, 75, 67
2, 86783, Note_off_c, 0, 75, 67
2, 86784, Control_c, 0, 93, 0
2, 86912, Control_c, 0, 93, 0
2, 86976, Control_c, 0, 93, 0
2, 86976, Control_c, 0, 64, 0
2, 87040, Control_c, 0, 93, 0
2, 87040, Note_on_c, 0, 51, 67
2, 87104, Note_off_c, 0, 51, 67
2, 87168, Note_off_c, 0, 51, 67
2, 87168, Note_on_c, 0, 63, 67
2, 87232, Note_off_c, 0, 63, 67
2, 87296, Note_off_c, 0, 63, 67
2, 87296, Note_on_c, 0, 50, 67
2, 87360, Note_off_c, 0, 50, 67
2, 87424, Note_off_c, 0, 50, 67
2, 87424, Note_on_c, 0, 62, 67
2, 87488, Note_off_c, 0, 62, 67
2, 87552, Note_off_c, 0, 62, 67
2, 87552, Note_on_c, 0, 48, 67
2, 87616, Note_off_c, 0, 48, 67
2, 87680, Note_off_c, 0, 48, 67
2, 87680, Note_on_c, 0, 60, 67
2, 87744, Note_off_c, 0, 60, 67
2, 87808, Note_off_c, 0, 60, 67
2, 87808, Note_on_c, 0, 46, 67
2, 87872, Note_off_c, 0, 46, 67
2, 87936, Note_off_c, 0, 46, 67
2, 87936, Note_on_c, 0, 58, 67
2, 88000, Note_off_c, 0, 58, 67
2, 88064, Note_off_c, 0, 58, 67
2, 88064, Note_on_c, 0, 51, 67
2, 88128, Note_off_c, 0, 51, 67
2, 88192, Note_off_c, 0, 51, 67
2, 88192, Note_on_c, 0, 63, 67
2, 88256, Note_off_c, 0, 63, 67
2, 88320, Note_off_c, 0, 63, 67
2, 88320, Note_on_c, 0, 46, 67
2, 88384, Note_off_c, 0, 46, 67
2, 88448, Note_off_c, 0, 46, 67
2, 88448, Note_on_c, 0, 58, 67
2, 88512, Note_off_c, 0, 58, 67
2, 88576, Note_off_c, 0, 58, 67
2, 88576, Note_on_c, 0, 48, 67
2, 88640, Note_off_c, 0, 48, 67
2, 88704, Note_off_c, 0, 48, 67
2, 88704, Note_on_c, 0, 60, 67
2, 88768, Note_off_c, 0, 60, 67
2, 88832, Note_off_c, 0, 60, 67
2, 88832, Note_on_c, 0, 46, 67
2, 88896, Note_off_c, 0, 46, 67
2, 88960, Note_off_c, 0, 46, 67
2, 88960, Note_on_c, 0, 58, 67
2, 89024, Note_off_c, 0, 58, 67
2, 89088, Note_off_c, 0, 58, 67
2, 89088, Note_on_c, 0, 50, 67
2, 89152, Note_off_c, 0, 50, 67
2, 89216, Note_off_c, 0, 50, 67
2, 89216, Note_on_c, 0, 62, 67
2, 89280, Note_off_c, 0, 62, 67
2, 89344, Note_off_c, 0, 62, 67
2, 89344, Note_on_c, 0, 46, 67
2, 89408, Note_off_c, 0, 46, 67
2, 89472, Note_off_c, 0, 46, 67
2, 89472, Note_on_c, 0, 58, 67
2, 89536, Note_off_c, 0, 58, 67
2, 89600, Note_off_c, 0, 58, 67
2, 89600, Note_on_c, 0, 48, 67
2, 89664, Note_off_c, 0, 48, 67
2, 89728, Note_off_c, 0, 48, 67
2, 89728, Note_on_c, 0, 60, 67
2, 89792, Note_off_c, 0, 60, 67
2, 89856, Note_off_c, 0, 60, 67
2, 89856, Note_on_c, 0, 49, 67
2, 89920, Note_off_c, 0, 49, 67
2, 89984, Note_off_c, 0, 49, 67
2, 89984, Note_on_c, 0, 61, 67
2, 90048, Note_off_c, 0, 61, 67
2, 90112, Note_off_c, 0, 61, 67
2, 90112, Note_on_c, 0, 50, 67
2, 90176, Note_off_c, 0, 50, 67
2, 90240, Note_off_c, 0, 50, 67
2, 90240, Note_on_c, 0, 62, 67
2, 90304, Note_off_c, 0, 62, 67
2, 90368, Note_off_c, 0, 62, 67
2, 90368, Note_on_c, 0, 46, 67
2, 90432, Note_off_c, 0, 46, 67
2, 90496, Note_off_c, 0, 46, 67
2, 90496, Note_on_c, 0, 58, 67
2, 90560, Note_off_c, 0, 58, 67
2, 90624, Note_off_c, 0, 58, 67
2, 90624, Note_on_c, 0, 51, 67
2, 90688, Note_off_c, 0, 51, 67
2, 90752, Note_off_c, 0, 51, 67
2, 90752, Note_on_c, 0, 63, 67
2, 90816, Note_off_c, 0, 63, 67
2, 90880, Note_off_c, 0, 63, 67
2, 90880, Note_on_c, 0, 46, 67
2, 90944, Note_off_c, 0, 46, 67
2, 91008, Note_off_c, 0, 46, 67
2, 91008, Note_on_c, 0, 58, 67
2, 91072, Note_off_c, 0, 58, 67
2, 91136, Note_off_c, 0, 58, 67
2, 91136, Note_on_c, 0, 51, 67
2, 91200, Note_off_c, 0, 51, 67
2, 91264, Note_off_c, 0, 51, 67
2, 91264, Note_on_c, 0, 63, 67
2, 91328, Note_off_c, 0, 63, 67
2, 91392, Note_off_c, 0, 63, 67
2, 91392, Note_on_c, 0, 50, 67
2, 91456, Note_off_c, 0, 50, 67
2, 91520, Note_off_c, 0, 50, 67
2, 91520, Note_on_c, 0, 62, 67
2, 91584, Note_off_c, 0, 62, 67
2, 91648, Note_off_c, 0, 62, 67
2, 91648, Note_on_c, 0, 48, 67
2, 91712, Note_off_c, 0, 48, 67
2, 91776, Note_off_c, 0, 48, 67
2, 91776, Note_on_c, 0, 60, 67
2, 91840, Note_off_c, 0, 60, 67
2, 91904, Note_off_c, 0, 60, 67
2, 91904, Note_on_c, 0, 46, 67
2, 91968, Note_off_c, 0, 46, 67
2, 92032, Note_off_c, 0, 46, 67
2, 92032, Note_on_c, 0, 58, 67
2, 92096, Note_off_c, 0, 58, 67
2, 92160, Note_off_c, 0, 58, 67
2, 92160, Note_on_c, 0, 51, 67
2, 92224, Note_off_c, 0, 51, 67
2, 92288, Note_off_c, 0, 51, 67
2, 92288, Note_on_c, 0, 63, 67
2, 92352, Note_off_c, 0, 63, 67
2, 92416, Note_off_c, 0, 63, 67
2, 92416, Note_on_c, 0, 46, 67
2, 92480, Note_off_c, 0, 46, 67
2, 92544, Note_off_c, 0, 46, 67
2, 92544, Note_on_c, 0, 58, 67
2, 92608, Note_off_c, 0, 58, 67
2, 92672, Note_off_c, 0, 58, 67
2, 92672, Note_on_c, 0, 48, 67
2, 92736, Note_off_c, 0, 48, 67
2, 92800, Note_off_c, 0, 48, 67
2, 92800, Note_on_c, 0, 60, 67
2, 92864, Note_off_c, 0, 60, 67
2, 92928, Note_off_c, 0, 60, 67
2, 92928, Note_on_c, 0, 46, 67
2, 92992, Note_off_c, 0, 46, 67
2, 93056, Note_off_c, 0, 46, 67
2, 93056, Note_on_c, 0, 58, 67
2, 93120, Note_off_c, 0, 58, 67
2, 93184, Note_off_c, 0, 58, 67
2, 93184, Note_on_c, 0, 50, 67
2, 93248, Note_off_c, 0, 50, 67
2, 93312, Note_off_c, 0, 50, 67
2, 93312, Note_on_c, 0, 62, 67
2, 93376, Note_off_c, 0, 62, 67
2, 93440, Note_off_c, 0, 62, 67
2, 93440, Note_on_c, 0, 48, 67
2, 93504, Note_off_c, 0, 48, 67
2, 93568, Note_off_c, 0, 48, 67
2, 93568, Note_on_c, 0, 60, 67
2, 93632, Note_off_c, 0, 60, 67
2, 93696, Note_off_c, 0, 60, 67
2, 93696, Note_on_c, 0, 46, 67
2, 93760, Note_off_c, 0, 46, 67
2, 93824, Note_off_c, 0, 46, 67
2, 93824, Note_on_c, 0, 58, 67
2, 93888, Note_off_c, 0, 58, 67
2, 93952, Note_off_c, 0, 58, 67
2, 93952, Note_on_c, 0, 48, 67
2, 94016, Note_off_c, 0, 48, 67
2, 94080, Note_off_c, 0, 48, 67
2, 94080, Note_on_c, 0, 60, 67
2, 94144, Note_off_c, 0, 60, 67
2, 94208, Note_off_c, 0, 60, 67
2, 94208, Note_on_c, 0, 50, 67
2, 94272, Note_off_c, 0, 50, 67
2, 94336, Note_off_c, 0, 50, 67
2, 94336, Note_on_c, 0, 62, 67
2, 94400, Note_off_c, 0, 62, 67
2, 94464, Note_off_c, 0, 62, 67
2, 94464, Note_on_c, 0, 46, 67
2, 94528, Note_off_c, 0, 46, 67
2, 94592, Note_off_c, 0, 46, 67
2, 94592, Note_on_c, 0, 58, 67
2, 94656, Note_off_c, 0, 58, 67
2, 94720, Note_off_c, 0, 58, 67
2, 94720, Note_on_c, 0, 51, 67
2, 94784, Note_off_c, 0, 51, 67
2, 94848, Note_off_c, 0, 51, 67
2, 94848, Note_on_c, 0, 63, 67
2, 94912, Note_off_c, 0, 63, 67
2, 94976, Note_off_c, 0, 63, 67
2, 94976, Note_on_c, 0, 46, 67
2, 95040, Note_off_c, 0, 46, 67
2, 95104, Note_off_c, 0, 46, 67
2, 95104, Note_on_c, 0, 58, 67
2, 95168, Note_off_c, 0, 58, 67
2, 95232, Note_off_c, 0, 58, 67
2, 95232, Note_on_c, 0, 39, 67
2, 95296, Note_off_c, 0, 39, 67
2, 95296, Note_on_c, 0, 46, 67
2, 95360, Note_off_c, 0, 46, 67
2, 95360, Note_on_c, 0, 51, 67
2, 95424, Note_off_c, 0, 51, 67
2, 95424, Note_on_c, 0, 53, 67
2, 95488, Note_off_c, 0, 53, 67
2, 95488, Note_on_c, 0, 55, 67
2, 95552, Note_off_c, 0, 55, 67
2, 95552, Note_on_c, 0, 51, 67
2, 95616, Note_off_c, 0, 51, 67
2, 95616, Note_on_c, 0, 58, 67
2, 95680, Note_off_c, 0, 58, 67
2, 95680, Note_on_c, 0, 63, 67
2, 95728, Control_c, 0, 93, 0
2, 95744, Note_off_c, 0, 63, 67
2, 95744, Note_on_c, 0, 44, 67
2, 95808, Note_off_c, 0, 44, 67
2, 95808, Note_on_c, 0, 51, 67
2, 95872, Note_off_c, 0, 51, 67
2, 95872, Note_on_c, 0, 56, 67
2, 95936, Note_off_c, 0, 56, 67
2, 95936, Note_on_c, 0, 58, 67
2, 96000, Note_off_c, 0, 58, 67
2, 96000, Note_on_c, 0, 60, 67
2, 96064, Note_off_c, 0, 60, 67
2, 96064, Note_on_c, 0, 56, 67
2, 96128, Note_off_c, 0, 56, 67
2, 96128, Note_on_c, 0, 63, 67
2, 96192, Note_off_c, 0, 63, 67
2, 96192, Note_on_c, 0, 68, 67
2, 96240, Control_c, 0, 93, 0
2, 96256, Note_off_c, 0, 68, 67
2, 96256, Note_on_c, 0, 46, 67
2, 96320, Note_off_c, 0, 46, 67
2, 96320, Note_on_c, 0, 53, 67
2, 96384, Note_off_c, 0, 53, 67
2, 96384, Note_on_c, 0, 58, 67
2, 96448, Note_off_c, 0, 58, 67
2, 96448, Note_on_c, 0, 60, 67
2, 96512, Note_off_c, 0, 60, 67
2, 96512, Note_on_c, 0, 62, 67
2, 96576, Note_off_c, 0, 62, 67
2, 96576, Note_on_c, 0, 58, 67
2, 96640, Note_off_c, 0, 58, 67
2, 96640, Note_on_c, 0, 65, 67
2, 96704, Note_off_c, 0, 65, 67
2, 96704, Note_on_c, 0, 70, 67
2, 96752, Control_c, 0, 93, 0
2, 96768, Note_off_c, 0, 70, 67
2, 96768, Note_on_c, 0, 41, 67
2, 96832, Note_off_c, 0, 41, 67
2, 96832, Note_on_c, 0, 44, 67
2, 96896, Note_off_c, 0, 44, 67
2, 96896, Control_c, 0, 64, 64
2, 96896, Note_on_c, 0, 50, 67
2, 96917, Note_off_c, 0, 50, 67
2, 96917, Note_on_c, 0, 53, 67
2, 96938, Note_off_c, 0, 53, 67
2, 96938, Note_on_c, 0, 58, 67
2, 96959, Note_off_c, 0, 58, 67
2, 96960, Control_c, 0, 93, 0
2, 96960, Note_on_c, 0, 62, 67
2, 96981, Note_off_c, 0, 62, 67
2, 96981, Note_on_c, 0, 65, 67
2, 97002, Note_off_c, 0, 65, 67
2, 97002, Note_on_c, 0, 70, 67
2, 97024, Control_c, 0, 93, 0
2, 97024, Control_c, 0, 64, 0
2, 97152, Note_off_c, 0, 70, 67
2, 97152, Note_on_c, 0, 51, 67
2, 97216, Note_off_c, 0, 51, 67
2, 97216, Note_on_c, 0, 46, 67
2, 97280, Note_off_c, 0, 46, 67
2, 97280, Note_on_c, 0, 39, 67
2, 97344, Note_off_c, 0, 39, 67
2, 97344, Note_on_c, 0, 46, 67
2, 97408, Note_off_c, 0, 46, 67
2, 97408, Note_on_c, 0, 51, 67
2, 97472, Note_off_c, 0, 51, 67
2, 97472, Note_on_c, 0, 53, 67
2, 97536, Note_off_c, 0, 53, 67
2, 97536, Note_on_c, 0, 55, 67
2, 97600, Note_off_c, 0, 55, 67
2, 97600, Note_on_c, 0, 51, 67
2, 97664, Note_off_c, 0, 51, 67
2, 97664, Note_on_c, 0, 58, 67
2, 97728, Note_off_c, 0, 58, 67
2, 97728, Note_on_c, 0, 63, 67
2, 97776, Control_c, 0, 93, 0
2, 97792, Note_off_c, 0, 63, 67
2, 97792, Note_on_c, 0, 44, 67
2, 97856, Note_off_c, 0, 44, 67
2, 97856, Note_on_c, 0, 51, 67
2, 97920, Note_off_c, 0, 51, 67
2, 97920, Note_on_c, 0, 56, 67
2, 97984, Note_off_c, 0, 56, 67
2, 97984, Note_on_c, 0, 58, 67
2, 98048, Note_off_c, 0, 58, 67
2, 98048, Note_on_c, 0, 60, 67
2, 98112, Note_off_c, 0, 60, 67
2, 98112, Note_on_c, 0, 56, 67
2, 98176, Note_off_c, 0, 56, 67
2, 98176, Note_on_c, 0, 63, 67
2, 98240, Note_off_c, 0, 63, 67
2, 98240, Note_on_c, 0, 68, 67
2, 98288, Control_c, 0, 93, 0
2, 98304, Note_off_c, 0, 68, 67
2, 98304, Note_on_c, 0, 46, 67
2, 98368, Note_off_c, 0, 46, 67
2, 98368, Note_on_c, 0, 53, 67
2, 98432, Note_off_c, 0, 53, 67
2, 98432, Note_on_c, 0, 58, 67
2, 98496, Note_off_c, 0, 58, 67
2, 98496, Note_on_c, 0, 60, 67
2, 98560, Note_off_c, 0, 60, 67
2, 98560, Note_on_c, 0, 62, 67
2, 98624, Note_off_c, 0, 62, 67
2, 98624, Note_on_c, 0, 58, 67
2, 98688, Note_off_c, 0, 58, 67
2, 98688, Note_on_c, 0, 65, 67
2, 98752, Note_off_c, 0, 65, 67
2, 98752, Note_on_c, 0, 70, 67
2, 98800, Control_c, 0, 93, 0
2, 98816, Note_off_c, 0, 70, 67
2, 98816, Note_on_c, 0, 39, 67
2, 98880, Note_off_c, 0, 39, 67
2, 98880, Note_on_c, 0, 46, 67
2, 98944, Note_off_c, 0, 46, 67
2, 98944, Note_on_c, 0, 51, 67
2, 99008, Note_off_c, 0, 51, 67
2, 99008, Control_c, 0, 64, 64
2, 99008, Note_on_c, 0, 55, 67
2, 99018, Note_off_c, 0, 55, 67
2, 99018, Note_on_c, 0, 58, 67
2, 99029, Note_off_c, 0, 58, 67
2, 99029, Note_on_c, 0, 63, 67
2, 99039, Note_off_c, 0, 63, 67
2, 99040, Control_c, 0, 93, 0
2, 99040, Note_on_c, 0, 67, 67
2, 99050, Note_off_c, 0, 67, 67
2, 99050, Note_on_c, 0, 70, 67
2, 99061, Note_off_c, 0, 70, 67
2, 99061, Note_on_c, 0, 75, 67
2, 99071, Note_off_c, 0, 75, 67
2, 99072, Control_c, 0, 93, 0
2, 99200, Control_c, 0, 93, 0
2, 99264, Control_c, 0, 93, 0
2, 99264, Control_c, 0, 64, 0
2, 99328, Control_c, 0, 93, 0
2, 99328, Note_on_c, 0, 51, 67
2, 99392, Note_off_c, 0, 51, 67
2, 99456, Note_off_c, 0, 51, 67
2, 99456, Note_on_c, 0, 63, 67
2, 99520, Note_off_c, 0, 63, 67
2, 99584, Note_off_c, 0, 63, 67
2, 99584, Note_on_c, 0, 50, 67
2, 99648, Note_off_c, 0, 50, 67
2, 99712, Note_off_c, 0, 50, 67
2, 99712, Note_on_c, 0, 62, 67
2, 99776, Note_off_c, 0, 62, 67
2, 99840, Note_off_c, 0, 62, 67
2, 99840, Note_on_c, 0, 48, 67
2, 99904, Note_off_c, 0, 48, 67
2, 99968, Note_off_c, 0, 48, 67
2, 99968, Note_on_c, 0, 60, 67
2, 100032, Note_off_c, 0, 60, 67
2, 100096, Note_off_c, 0, 60, 67
2, 100096, Note_on_c, 0, 46, 67
2, 100160, Note_off_c, 0, 46, 67
2, 100224, Note_off_c, 0, 46, 67
2, 100224, Note_on_c, 0, 58, 67
2, 100288, Note_off_c, 0, 58, 67
2, 100352, Note_off_c, 0, 58, 67
2, 100352, Note_on_c, 0, 51, 67
2, 100416, Note_off_c, 0, 51, 67
2, 100480, Note_off_c, 0, 51, 67
2, 100480, Note_on_c, 0, 63, 67
2, 100544, Note_off_c, 0, 63, 67
2, 100608, Note_off_c, 0, 63, 67
2, 100608, Note_on_c, 0, 46, 67
2, 100672, Note_off_c, 0, 46, 67
2, 100736, Note_off_c, 0, 46, 67
2, 100736, Note_on_c, 0, 58, 67
2, 100800, Note_off_c, 0, 58, 67
2, 100864, Note_off_c, 0, 58, 67
2, 100864, Note_on_c, 0, 48, 67
2, 100928, Note_off_c, 0, 48, 67
2, 100992, Note_off_c, 0, 48, 67
2, 100992, Note_on_c, 0, 60, 67
2, 101056, Note_off_c, 0, 60, 67
2, 101120, Note_off_c, 0, 60, 67
2, 101120, Note_on_c, 0, 46, 67
2, 101184, Note_off_c, 0, 46, 67
2, 101248, Note_off_c, 0, 46, 67
2, 101248, Note_on_c, 0, 58, 67
2, 101312, Note_off_c, 0, 58, 67
2, 101376, Note_off_c, 0, 58, 67
2, 101376, Note_on_c, 0, 50, 67
2, 101440, Note_off_c, 0, 50, 67
2, 101504, Note_off_c, 0, 50, 67
2, 101504, Note_on_c, 0, 62, 67
2, 101568, Note_off_c, 0, 62, 67
2, 101632, Note_off_c, 0, 62, 67
2, 101632, Note_on_c, 0, 46, 67
2, 101696, Note_off_c, 0, 46, 67
2, 101760, Note_off_c, 0, 46, 67
2, 101760, Note_on_c, 0, 58, 67
2, 101824, Note_off_c, 0, 58, 67
2, 101888, Note_off_c, 0, 58, 67
2, 101888, Note_on_c, 0, 48, 67
2, 101952, Note_off_c, 0, 48, 67
2, 102016, Note_off_c, 0, 48, 67
2, 102016, Note_on_c, 0, 60, 67
2, 102080, Note_off_c, 0, 60, 67
2, 102144, Note_off_c, 0, 60, 67
2, 102144, Note_on_c, 0, 49, 67
2, 102208, Note_off_c, 0, 49, 67
2, 102272, Note_off_c, 0, 49, 67
2, 102272, Note_on_c, 0, 61, 67
2, 102336, Note_off_c, 0, 61, 67
2, 102400, Note_off_c, 0, 61, 67
2, 102400, Note_on_c, 0, 50, 67
2, 102464, Note_off_c, 0, 50, 67
2, 102528, Note_off_c, 0, 50, 67
2, 102528, Note_on_c, 0, 62, 67
2, 102592, Note_off_c, 0, 62, 67
2, 102656, Note_off_c, 0, 62, 67
2, 102656, Note_on_c, 0, 46, 67
2, 102720, Note_off_c, 0, 46, 67
2, 102784, Note_off_c, 0, 46, 67
2, 102784, Note_on_c, 0, 58, 67
2, 102848, Note_off_c, 0, 58, 67
2, 102912, Note_off_c, 0, 58, 67
2, 102912, Note_on_c, 0, 51, 67
2, 102976, Note_off_c, 0, 51, 67
2, 103040, Note_off_c, 0, 51, 67
2, 103040, Note_on_c, 0, 63, 67
2, 103104, Note_off_c, 0, 63, 67
2, 103168, Note_off_c, 0, 63, 67
2, 103168, Note_on_c, 0, 46, 67
2, 103232, Note_off_c, 0, 46, 67
2, 103296, Note_off_c, 0, 46, 67
2, 103296, Note_on_c, 0, 58, 67
2, 103360, Note_off_c, 0, 58, 67
2, 103424, Note_off_c, 0, 58, 67
2, 103424, Note_on_c, 0, 51, 67
2, 103488, Note_off_c, 0, 51, 67
2, 103552, Note_off_c, 0, 51, 67
2, 103552, Note_on_c, 0, 63, 67
2, 103616, Note_off_c, 0, 63, 67
2, 103680, Note_off_c, 0, 63, 67
2, 103680, Note_on_c, 0, 50, 67
2, 103744, Note_off_c, 0, 50, 67
2, 103808, Note_off_c, 0, 50, 67
2, 103808, Note_on_c, 0, 62, 67
2, 103872, Note_off_c, 0, 62, 67
2, 103936, Note_off_c, 0, 62, 67
2, 103936, Note_on_c, 0, 48, 67
2, 104000, Note_off_c, 0, 48, 67
2, 104064, Note_off_c, 0, 48, 67
2, 104064, Note_on_c, 0, 60, 67
2, 104128, Note_off_c, 0, 60, 67
2, 104192, Note_off_c, 0, 60, 67
2, 104192, Note_on_c, 0, 46, 67
2, 104256, Note_off_c, 0, 46, 67
2, 104320, Note_off_c, 0, 46, 67
2, 104320, Note_on_c, 0, 58, 67
2, 104384, Note_off_c, 0, 58, 67
2, 104448, Note_off_c, 0, 58, 67
2, 104448, Note_on_c, 0, 51, 67
2, 104512, Note_off_c, 0, 51, 67
2, 104576, Note_off_c, 0, 51, 67
2, 104576, Note_on_c, 0, 63, 67
2, 104640, Note_off_c, 0, 63, 67
2, 104704, Note_off_c, 0, 63, 67
2, 104704, Note_on_c, 0, 46, 67
2, 104768, Note_off_c, 0, 46, 67
2, 104832, Note_off_c, 0, 46, 67
2, 104832, Note_on_c, 0, 58, 67
2, 104896, Note_off_c, 0, 58, 67
2, 104960, Note_off_c, 0, 58, 67
2, 104960, Note_on_c, 0, 48, 67
2, 105024, Note_off_c, 0, 48, 67
2, 105088, Note_off_c, 0, 48, 67
2, 105088, Note_on_c, 0, 60, 67
2, 105152, Note_off_c, 0, 60, 67
2, 105216, Note_off_c, 0, 60, 67
2, 105216, Note_on_c, 0, 46, 67
2, 105280, Note_off_c, 0, 46, 67
2, 105344, Note_off_c, 0, 46, 67
2, 105344, Note_on_c, 0, 58, 67
2, 105408, Note_off_c, 0, 58, 67
2, 105472, Note_off_c, 0, 58, 67
2, 105472, Note_on_c, 0, 50, 67
2, 105536, Note_off_c, 0, 50, 67
2, 105600, Note_off_c, 0, 50, 67
2, 105600, Note_on_c, 0, 62, 67
2, 105664, Note_off_c, 0, 62, 67
2, 105728, Note_off_c, 0, 62, 67
2, 105728, Note_on_c, 0, 48, 67
2, 105792, Note_off_c, 0, 48, 67
2, 105856, Note_off_c, 0, 48, 67
2, 105856, Note_on_c, 0, 60, 67
2, 105920, Note_off_c, 0, 60, 67
2, 105984, Note_off_c, 0, 60, 67
2, 105984, Note_on_c, 0, 46, 67
2, 106048, Note_off_c, 0, 46, 67
2, 106112, Note_off_c, 0, 46, 67
2, 106112, Note_on_c, 0, 58, 67
2, 106176, Note_off_c, 0, 58, 67
2, 106240, Note_off_c, 0, 58, 67
2, 106240, Note_on_c, 0, 48, 67
2, 106304, Note_off_c, 0, 48, 67
2, 106368, Note_off_c, 0, 48, 67
2, 106368, Note_on_c, 0, 60, 67
2, 106432, Note_off_c, 0, 60, 67
2, 106496, Note_off_c, 0, 60, 67
2, 106496, Note_on_c, 0, 50, 67
2, 106560, Note_off_c, 0, 50, 67
2, 106624, Note_off_c, 0, 50, 67
2, 106624, Note_on_c, 0, 62, 67
2, 106688, Note_off_c, 0, 62, 67
2, 106752, Note_off_c, 0, 62, 67
2, 106752, Note_on_c, 0, 46, 67
2, 106816, Note_off_c, 0, 46, 67
2, 106880, Note_off_c, 0, 46, 67
2, 106880, Note_on_c, 0, 58, 67
2, 106944, Note_off_c, 0, 58, 67
2, 107008, Note_off_c, 0, 58, 67
2, 107008, Note_on_c, 0, 51, 67
2, 107072, Note_off_c, 0, 51, 67
2, 107136, Note_off_c, 0, 51, 67
2, 107136, Note_on_c, 0, 63, 67
2, 107200, Note_off_c, 0, 63, 67
2, 107264, Note_off_c, 0, 63, 67
2, 107264, Note_on_c, 0, 46, 67
2, 107328, Note_off_c, 0, 46, 67
2, 107392, Note_off_c, 0, 46, 67
2, 107392, Note_on_c, 0, 58, 67
2, 107456, Note_off_c, 0, 58, 67
2, 107520, Note_off_c, 0, 58, 67
2, 107520, Note_on_c, 0, 39, 67
2, 107584, Note_off_c, 0, 39, 67
2, 107584, Note_on_c, 0, 46, 67
2, 107648, Note_off_c, 0, 46, 67
2, 107648, Note_on_c, 0, 51, 67
2, 107712, Note_off_c, 0, 51, 67
2, 107712, Note_on_c, 0, 53, 67
2, 107776, Note_off_c, 0, 53, 67
2, 107776, Note_on_c, 0, 55, 67
2, 107840, Note_off_c, 0, 55, 67
2, 107840, Note_on_c, 0, 51, 67
2, 107904, Note_off_c, 0, 51, 67
2, 107904, Note_on_c, 0, 58, 67
2, 107968, Note_off_c, 0, 58, 67
2, 107968, Note_on_c, 0, 63, 67
2, 108016, Control_c, 0, 93, 0
2, 108032, Note_off_c, 0, 63, 67
2, 108032, Note_on_c, 0, 44, 67
2, 108096, Note_off_c, 0, 44, 67
2, 108096, Note_on_c, 0, 51, 67
2, 108160, Note_off_c, 0, 51, 67
2, 108160, Note_on_c, 0, 56, 67
2, 108224, Note_off_c, 0, 56, 67
2, 108224, Note_on_c, 0, 58, 67
2, 108288, Note_off_c, 0, 58, 67
2, 108288, Note_on_c, 0, 60, 67
2, 108352, Note_off_c, 0, 60, 67
2, 108352, Note_on_c, 0, 56, 67
2, 108416, Note_off_c, 0, 56, 67
2, 108416, Note_on_c, 0, 63, 67
2, 108480, Note_off_c, 0, 63, 67
2, 108480, Note_on_c, 0, 68, 67
2, 108528, Control_c, 0, 93, 0
2, 108544, Note_off_c, 0, 68, 67
2, 108544, Note_on_c, 0, 46, 67
2, 108608, Note_off_c, 0, 46, 67
2, 108608, Note_on_c, 0, 53, 67
2, 108672, Note_off_c, 0, 53, 67
2, 108672, Note_on_c, 0, 58, 67
2, 108736, Note_off_c, 0, 58, 67
2, 108736, Note_on_c, 0, 60, 67
2, 108800, Note_off_c, 0, 60, 67
2, 108800, Note_on_c, 0, 62, 67
2, 108864, Note_off_c, 0, 62, 67
2, 108864, Note_on_c, 0, 58, 67
2, 108928, Note_off_c, 0, 58, 67
2, 108928, Note_on_c, 0, 65, 67
2, 108992, Note_off_c, 0, 65, 67
2, 108992, Note_on_c, 0, 70, 67
2, 109040, Control_c, 0, 93, 0
2, 109056, Note_off_c, 0, 70, 67
2, 109056, Note_on_c, 0, 41, 67
2, 109120, Note_off_c, 0, 41, 67
2, 109120, Note_on_c, 0, 44, 67
2, 109184, Note_off_c, 0, 44, 67
2, 109184, Control_c, 0, 64, 64
2, 109184, Note_on_c, 0, 50, 67
2, 109205, Note_off_c, 0, 50, 67
2, 109205, Note_on_c, 0, 53, 67
2, 109226, Note_off_c, 0, 53, 67
2, 109226, Note_on_c, 0, 58, 67
2, 109247, Note_off_c, 0, 58, 67
2, 109248, Control_c, 0, 93, 0
2, 109248, Note_on_c, 0, 62, 67
2, 109269, Note_off_c, 0, 62, 67
2, 109269, Note_on_c, 0, 65, 67
2, 109290, Note_off_c, 0, 65, 67
2, 109290, Note_on_c, 0, 70, 67
2, 109312, Control_c, 0, 93, 0
2, 109312, Control_c, 0, 64, 0
2, 109440, Note_off_c, 0, 70, 67
2, 109440, Note_on_c, 0, 51, 67
2, 109504, Note_off_c, 0, 51, 67
2, 109504, Note_on_c, 0, 46, 67
2, 109568, Note_off_c, 0, 46, 67
2, 109568, Note_on_c, 0, 39, 67
2, 109632, Note_off_c, 0, 39, 67
2, 109632, Note_on_c, 0, 46, 67
2, 109696, Note_off_c, 0, 46, 67
2, 109696, Note_on_c, 0, 51, 67
2, 109760, Note_off_c, 0, 51, 67
2, 109760, Note_on_c, 0, 53, 67
2, 109824, Note_off_c, 0, 53, 67
2, 109824, Note_on_c, 0, 55, 67
2, 109888, Note_off_c, 0, 55, 67
2, 109888, Note_on_c, 0, 51, 67
2, 109952, Note_off_c, 0, 51, 67
2, 109952, Note_on_c, 0, 58, 67
2, 110016, Note_off_c, 0, 58, 67
2, 110016, Note_on_c, 0, 63, 67
2, 110064, Control_c, 0, 93, 0
2, 110080, Note_off_c, 0, 63, 67
2, 110080, Note_on_c, 0, 44, 67
2, 110144, Note_off_c, 0, 44, 67
2, 110144, Note_on_c, 0, 51, 67
2, 110208, Note_off_c, 0, 51, 67
2, 110208, Note_on_c, 0, 56, 67
2, 110272, Note_off_c, 0, 56, 67
2, 110272, Note_on_c, 0, 58, 67
2, 110336, Note_off_c, 0, 58, 67
2, 110336, Note_on_c, 0, 60, 67
2, 110400, Note_off_c, 0, 60, 67
2, 110400, Note_on_c, 0, 56, 67
2, 110464, Note_off_c, 0, 56, 67
2, 110464, Note_on_c, 0, 63, 67
2, 110528, Note_off_c, 0, 63, 67
2, 110528, Note_on_c, 0, 68, 67
2, 110576, Control_c, 0, 93, 0
2, 110592, Note_off_c, 0, 68, 67
2, 110592, Note_on_c, 0, 46, 67
2, 110656, Note_off_c, 0, 46, 67
2, 110656, Note_on_c, 0, 53, 67
2, 110720, Note_off_c, 0, 53, 67
2, 110720, Note_on_c, 0, 58, 67
2, 110784, Note_off_c, 0, 58, 67
2, 110784, Note_on_c, 0, 60, 67
2, 110848, Note_off_c, 0, 60, 67
2, 110848, Note_on_c, 0, 62, 67
2, 110912, Note_off_c, 0, 62, 67
2, 110912, Note_on_c, 0, 58, 67
2, 110976, Note_off_c, 0, 58, 67
2, 110976, Note_on_c, 0, 65, 67
2, 111040, Note_off_c, 0, 65, 67
2, 111040, Note_on_c, 0, 70, 67
2, 111088, Control_c, 0, 93, 0
2, 111104, Note_off_c, 0, 70, 67
2, 111104, Note_on_c, 0, 39, 67
2, 111168, Note_off_c, 0, 39, 67
2, 111168, Note_on_c, 0, 46, 67
2, 111232, Note_off_c, 0, 46, 67
2, 111232, Note_on_c, 0, 51, 67
2, 111296, Note_off_c, 0, 51, 67
2, 111296, Control_c, 0, 64, 64
2, 111296, Note_on_c, 0, 55, 67
2, 111306, Note_off_c, 0, 55, 67
2, 111306, Note_on_c, 0, 58, 67
2, 111317, Note_off_c, 0, 58, 67
2, 111317, Note_on_c, 0, 63, 67
2, 111327, Note_off_c, 0, 63, 67
2, 111328, Control_c, 0, 93, 0
2, 111328, Note_on_c, 0, 67, 67
2, 111338, Note_off_c, 0, 67, 67
2, 111338, Note_on_c, 0, 70, 67
2, 111349, Note_off_c, 0, 70, 67
2, 111349, Note_on_c, 0, 75, 67
2, 111359, Note_off_c, 0, 75, 67
2, 111360, Control_c, 0, 93, 0
2, 111488, Control_c, 0, 93, 0
2, 111552, Control_c, 0, 93, 0
2, 111552, Control_c, 0, 64, 0
2, 111616, Control_c, 0, 93, 0
2, 111616, Note_on_c, 0, 51, 67
2, 111680, Note_off_c, 0, 51, 67
2, 111744, Note_off_c, 0, 51, 67
2, 111744, Note_on_c, 0, 63, 67
2, 111808, Note_off_c, 0, 63, 67
2, 111872, Note_off_c, 0, 63, 67
2, 111872, Note_on_c, 0, 50, 67
2, 111936, Note_off_c, 0, 50, 67
2, 112000, Note_off_c, 0, 50, 67
2, 112000, Note_on_c, 0, 62, 67
2, 112064, Note_off_c, 0, 62, 67
2, 112128, Note_off_c, 0, 62, 67
2, 112128, Note_on_c, 0, 48, 67
2, 112192, Note_off_c, 0, 48, 67
2, 112256, Note_off_c, 0, 48, 67
2, 112256, Note_on_c, 0, 60, 67
2, 112320, Note_off_c, 0, 60, 67
2, 112384, Note_off_c, 0, 60, 67
2, 112384, Note_on_c, 0, 46, 67
2, 112448, Note_off_c, 0, 46, 67
2, 112512, Note_off_c, 0, 46, 67
2, 112512, Note_on_c, 0, 58, 67
2, 112576, Note_off_c, 0, 58, 67
2, 112640, Note_off_c, 0, 58, 67
2, 112640, Note_on_c, 0, 51, 67
2, 112704, Note_off_c, 0, 51, 67
2, 112768, Note_off_c, 0, 51, 67
2, 112768, Note_on_c, 0, 63, 67
2, 112832, Note_off_c, 0, 63, 67
2, 112896, Note_off_c, 0, 63, 67
2, 112896, Note_on_c, 0, 46, 67
2, 112960, Note_off_c, 0, 46, 67
2, 113024, Note_off_c, 0, 46, 67
2, 113024, Note_on_c, 0, 58, 67
2, 113088, Note_off_c, 0, 58, 67
2, 113152, Note_off_c, 0, 58, 67
2, 113152, Note_on_c, 0, 48, 67
2, 113216, Note_off_c, 0, 48, 67
2, 113280, Note_off_c, 0, 48, 67
2, 113280, Note_on_c, 0, 60, 67
2, 113344, Note_off_c, 0, 60, 67
2, 113408, Note_off_c, 0, 60, 67
2, 113408, Note_on_c, 0, 46, 67
2, 113472, Note_off_c, 0, 46, 67
2, 113536, Note_off_c, 0, 46, 67
2, 113536, Note_on_c, 0, 58, 67
2, 113600, Note_off_c, 0, 58, 67
2, 113664, Note_off_c, 0, 58, 67
2, 113664, Note_on_c, 0, 50, 67
2, 113728, Note_off_c, 0, 50, 67
2, 113792, Note_off_c, 0, 50, 67
2, 113792, Note_on_c, 0, 62, 67
2, 113856, Note_off_c, 0, 62, 67
2, 113920, Note_off_c, 0, 62, 67
2, 113920, Note_on_c, 0, 46, 67
2, 113984, Note_off_c, 0, 46, 67
2, 114048, Note_off_c, 0, 46, 67
2, 114048, Note_on_c, 0, 58, 67
2, 114112, Note_off_c, 0, 58, 67
2, 114176, Note_off_c, 0, 58, 67
2, 114176, Note_on_c, 0, 48, 67
2, 114240, Note_off_c, 0, 48, 67
2, 114304, Note_off_c, 0, 48, 67
2, 114304, Note_on_c, 0, 60, 67
2, 114368, Note_off_c, 0, 60, 67
2, 114432, Note_off_c, 0, 60, 67
2, 114432, Note_on_c, 0, 49, 67
2, 114496, Note_off_c, 0, 49, 67
2, 114560, Note_off_c, 0, 49, 67
2, 114560, Note_on_c, 0, 61, 67
2, 114624, Note_off_c, 0, 61, 67
2, 114688, Note_off_c, 0, 61, 67
2, 114688, Note_on_c, 0, 50, 67
2, 114752, Note_off_c, 0, 50, 67
2, 114816, Note_off_c, 0, 50, 67
2, 114816, Note_on_c, 0, 62, 67
2, 114880, Note_off_c, 0, 62, 67
2, 114944, Note_off_c, 0, 62, 67
2, 114944, Note_on_c, 0, 46, 67
2, 115008, Note_off_c, 0, 46, 67
2, 115072, Note_off_c, 0, 46, 67
2, 115072, Note_on_c, 0, 58, 67
2, 115136, Note_off_c, 0, 58, 67
2, 115200, Note_off_c, 0, 58, 67
2, 115200, Note_on_c, 0, 51, 67
2, 115264, Note_off_c, 0, 51, 67
2, 115328, Note_off_c, 0, 51, 67
2, 115328, Note_on_c, 0, 63, 67
2, 115392, Note_off_c, 0, 63, 67
2, 115456, Note_off_c, 0, 63, 67
2, 115456, Note_on_c, 0, 46, 67
2, 115520, Note_off_c, 0, 46, 67
2, 115584, Note_off_c, 0, 46, 67
2, 115584, Note_on_c, 0, 58, 67
2, 115648, Note_off_c, 0, 58, 67
2, 115712, Note_off_c, 0, 58, 67
2, 115712, Note_on_c, 0, 51, 67
2, 115776, Note_off_c, 0, 51, 67
2, 115840, Note_off_c, 0, 51, 67
2, 115840, Note_on_c, 0, 63, 67
2, 115904, Note_off_c, 0, 63, 67
2, 115968, Note_off_c, 0, 63, 67
2, 115968, Note_on_c, 0, 50, 67
2, 116032, Note_off_c, 0, 50, 67
2, 116096, Note_off_c, 0, 50, 67
2, 116096, Note_on_c, 0, 62, 67
2, 116160, Note_off_c, 0, 62, 67
2, 116224, Note_off_c, 0, 62, 67
2, 116224, Note_on_c, 0, 48, 67
2, 116288, Note_off_c, 0, 48, 67
2, 116352, Note_off_c, 0, 48, 67
2, 116352, Note_on_c, 0, 60, 67
2, 116416, Note_off_c, 0, 60, 67
2, 116480, Note_off_c, 0, 60, 67
2, 116480, Note_on_c, 0, 46, 67
2, 116544, Note_off_c, 0, 46, 67
2, 116608, Note_off_c, 0, 46, 67
2, 116608, Note_on_c, 0, 58, 67
2, 116672, Note_off_c, 0, 58, 67
2, 116736, Note_off_c, 0, 58, 67
2, 116736, Note_on_c, 0, 51, 67
2, 116800, Note_off_c, 0, 51, 67
2, 116864, Note_off_c, 0, 51, 67
2, 116864, Note_on_c, 0, 63, 67
2, 116928, Note_off_c, 0, 63, 67
2, 116992, Note_off_c, 0, 63, 67
2, 116992, Note_on_c, 0, 46, 67
2, 117056, Note_off_c, 0, 46, 67
2, 117120, Note_off_c, 0, 46, 67
2, 117120, Note_on_c, 0, 58, 67
2, 117184, Note_off_c, 0, 58, 67
2, 117248, Note_off_c, 0, 58, 67
2, 117248, Note_on_c, 0, 48, 67
2, 117312, Note_off_c, 0, 48, 67
2, 117376, Note_off_c, 0, 48, 67
2, 117376, Note_on_c, 0, 60, 67
2, 117440, Note_off_c, 0, 60, 67
2, 117504, Note_off_c, 0, 60, 67
2, 117504, Note_on_c, 0, 46, 67
2, 117568, Note_off_c, 0, 46, 67
2, 117632, Note_off_c, 0, 46, 67
2, 117632, Note_on_c, 0, 58, 67
2, 117696, Note_off_c, 0, 58, 67
2, 117760, Note_off_c, 0, 58, 67
2, 117760, Note_on_c, 0, 50, 67
2, 117824, Note_off_c, 0, 50, 67
2, 117888, Note_off_c, 0, 50, 67
2, 117888, Note_on_c, 0, 62, 67
2, 117952, Note_off_c, 0, 62, 67
2, 118016, Note_off_c, 0, 62, 67
2, 118016, Note_on_c, 0, 48, 67
2, 118080, Note_off_c, 0, 48, 67
2, 118144, Note_off_c, 0, 48, 67
2, 118144, Note_on_c, 0, 60, 67
2, 118208, Note_off_c, 0, 60, 67
2, 118272, Note_off_c, 0, 60, 67
2, 118272, Note_on_c, 0, 46, 67
2, 118336, Note_off_c, 0, 46, 67
2, 118400, Note_off_c, 0, 46, 67
2, 118400, Note_on_c, 0, 58, 67
2, 118464, Note_off_c, 0, 58, 67
2, 118528, Note_off_c, 0, 58, 67
2, 118528, Note_on_c, 0, 48, 67
2, 118592, Note_off_c, 0, 48, 67
2, 118656, Note_off_c, 0, 48, 67
2, 118656, Note_on_c, 0, 60, 67
2, 118720, Note_off_c, 0, 60, 67
2, 118784, Note_off_c, 0, 60, 67
2, 118784, Note_on_c, 0, 50, 67
2, 118848, Note_off_c, 0, 50, 67
2, 118912, Note_off_c, 0, 50, 67
2, 118912, Note_on_c, 0, 62, 67
2, 118976, Note_off_c, 0, 62, 67
2, 119040, Note_off_c, 0, 62, 67
2, 119040, Note_on_c, 0, 46, 67
2, 119104, Note_off_c, 0, 46, 67
2, 119168, Note_off_c, 0, 46, 67
2, 119168, Note_on_c, 0, 58, 67
2, 119232, Note_off_c, 0, 58, 67
2, 119296, Note_off_c, 0, 58, 67
2, 119296, Note_on_c, 0, 51, 67
2, 119360, Note_off_c, 0, 51, 67
2, 119424, Note_off_c, 0, 51, 67
2, 119424, Note_on_c, 0, 63, 67
2, 119488, Note_off_c, 0, 63, 67
2, 119552, Note_off_c, 0, 63, 67
2, 119552, Note_on_c, 0, 46, 67
2, 119616, Note_off_c, 0, 46, 67
2, 119680, Note_off_c, 0, 46, 67
2, 119680, Note_on_c, 0, 58, 67
2, 119744, Note_off_c, 0, 58, 67
2, 119808, Note_off_c, 0, 58, 67
2, 119808, Note_on_c, 0, 39, 67
2, 119872, Note_off_c, 0, 39, 67
2, 119872, Note_on_c, 0, 46, 67
2, 119936, Note_off_c, 0, 46, 67
2, 119936, Note_on_c, 0, 51, 67
2, 120000, Note_off_c, 0, 51, 67
2, 120000, Note_on_c, 0, 53, 67
2, 120064, Note_off_c, 0, 53, 67
2, 120064, Note_on_c, 0, 55, 67
2, 120128, Note_off_c, 0, 55, 67
2, 120128, Note_on_c, 0, 51, 67
2, 120192, Note_off_c, 0, 51, 67
2, 120192, Note_on_c, 0, 58, 67
2, 120256, Note_off_c, 0, 58, 67
2, 120256, Note_on_c, 0, 63, 67
2, 120304, Control_c, 0, 93, 0
2, 120320, Note_off_c, 0, 63, 67
2, 120320, Note_on_c, 0, 44, 67
2, 120384, Note_off_c, 0, 44, 67
2, 120384, Note_on_c, 0, 51, 67
2, 120448, Note_off_c, 0, 51, 67
2, 120448, Note_on_c, 0, 56, 67
2, 120512, Note_off_c, 0, 56, 67
2, 120512, Note_on_c, 0, 58, 67
2, 120576, Note_off_c, 0, 58, 67
2, 120576, Note_on_c, 0, 60, 67
2, 120640, Note_off_c, 0, 60, 67
2, 120640, Note_on_c, 0, 56, 67
2, 120704, Note_off_c, 0, 56, 67
2, 120704, Note_on_c, 0, 63, 67
2, 120768, Note_off_c, 0, 63, 67
2, 120768, Note_on_c, 0, 68, 67
2, 120816, Control_c, 0, 93, 0
2, 120832, Note_off_c, 0, 68, 67
2, 120832, Note_on_c, 0, 46, 67
2, 120896, Note_off_c, 0, 46, 67
2, 120896, Note_on_c, 0, 53, 67
2, 120960, Note_off_c, 0, 53, 67
2, 120960, Note_on_c, 0, 58, 67
2, 121024, Note_off_c, 0, 58, 67
2, 121024, Note_on_c, 0, 60, 67
2, 121088, Note_off_c, 0, 60, 67
2, 121088, Note_on_c, 0, 62, 67
2, 121152, Note_off_c, 0, 62, 67
2, 121152, Note_on_c, 0, 58, 67
2, 121216, Note_off_c, 0, 58, 67
2, 121216, Note_on_c, 0, 65, 67
2, 121280, Note_off_c, 0, 65, 67
2, 121280, Note_on_c, 0, 70, 67
2, 121328, Control_c, 0, 93, 0
2, 121344, Note_off_c, 0, 70, 67
2, 121344, Note_on_c, 0, 41, 67
2, 121408, Note_off_c, 0, 41, 67
2, 121408, Note_on_c, 0, 44, 67
2, 121472, Note_off_c, 0, 44, 67
2, 121472, Control_c, 0, 64, 64
2, 121472, Note_on_c, 0, 50, 67
2, 121493, Note_off_c, 0, 50, 67
2, 121493, Note_on_c, 0, 53, 67
2, 121514, Note_off_c, 0, 53, 67
2, 121514, Note_on_c, 0, 58, 67
2, 121535, Note_off_c, 0, 58, 67
2, 121536, Control_c, 0, 93, 0
2, 121536, Note_on_c, 0, 62, 67
2, 121557, Note_off_c, 0, 62, 67
2, 121557, Note_on_c, 0, 65, 67
2, 121578, Note_off_c, 0, 65, 67
2, 121578, Note_on_c, 0, 70, 67
2, 121600, Control_c, 0, 93, 0
2, 121600, Control_c, 0, 64, 0
2, 121728, Note_off_c, 0, 70, 67
2, 121728, Note_on_c, 0, 51, 67
2, 121792, Note_off_c, 0, 51, 67
2, 121792, Note_on_c, 0, 46, 67
2, 121856, Note_off_c, 0, 46, 67
2, 121856, Note_on_c, 0, 39, 67
2, 121920, Note_off_c, 0, 39, 67
2, 121920, Note_on_c, 0, 46, 67
2, 121984, Note_off_c, 0, 46, 67
2, 121984, Note_on_c, 0, 51, 67
2, 122048, Note_off_c, 0, 51, 67
2, 122048, Note_on_c, 0, 53, 67
2, 122112, Note_off_c, 0, 53, 67
2, 122112, Note_on_c, 0, 55, 67
2, 122176, Note_off_c, 0, 55, 67
2, 122176, Note_on_c, 0, 51, 67
2, 122240, Note_off_c, 0, 51, 67
2, 122240, Note_on_c, 0, 58, 67
2, 122304, Note_off_c, 0, 58, 67
2, 122304, Note_on_c, 0, 63, 67
2, 122352, Control_c, 0, 93, 0
2, 122368, Note_off_c, 0, 63, 67
2, 122368, Note_on_c, 0, 44, 67
2, 122432, Note_off_c, 0, 44, 67
2, 122432, Note_on_c, 0, 51, 67
2, 122496, Note_off_c, 0, 51, 67
2, 122496, Note_on_c, 0, 56, 67
2, 122560, Note_off_c, 0, 56, 67
2, 122560, Note_on_c, 0, 58, 67
2, 122624, Note_off_c, 0, 58, 67
2, 122624, Note_on_c, 0, 60, 67
2, 122688, Note_off_c, 0, 60, 67
2, 122688, Note_on_c, 0, 56, 67
2, 122752, Note_off_c, 0, 56, 67
2, 122752, Note_on_c, 0, 63, 67
2, 122816, Note_off_c, 0, 63, 67
2, 122816, Note_on_c, 0, 68, 67
2, 122864, Control_c, 0, 93, 0
2, 122880, Note_off_c, 0, 68, 67
2, 122880, Note_on_c, 0, 46, 67
2, 122944, Note_off_c, 0, 46, 67
2, 122944, Note_on_c, 0, 53, 67
2, 123008, Note_off_c, 0, 53, 67
2, 123008, Note_on_c, 0, 58, 67
2, 123072, Note_off_c, 0, 58, 67
2, 123072, Note_on_c, 0, 60, 67
2, 123136, Note_off_c, 0, 60, 67
2, 123136, Note_on_c, 0, 62, 67
2, 123200, Note_off_c, 0, 62, 67
2, 123200, Note_on_c, 0, 58, 67
2, 123264, Note_off_c, 0, 58, 67
2, 123264, Note_on_c, 0, 65, 67
2, 123328, Note_off_c, 0, 65, 67
2, 123328, Note_on_c, 0, 70, 67
2, 123376, Control_c, 0, 93, 0
2, 123392, Note_off_c, 0, 70, 67
2, 123392, Note_on_c, 0, 39, 67
2, 123456, Note_off_c, 0, 39, 67
2, 123456, Note_on_c, 0, 46, 67
2, 123520, Note_off_c, 0, 46, 67
2, 123520, Note_on_c, 0, 51, 67
2, 123584, Note_off_c, 0, 51, 67
2, 123584, Control_c, 0, 64, 64
2, 123584, Note_on_c, 0, 55, 67
2, 123594, Note_off_c, 0, 55, 67
2, 123594, Note_on_c, 0, 58, 67
2, 123605, Note_off_c, 0, 58, 67
2, 123605, Note_on_c, 0, 63, 67
2, 123615, Note_off_c, 0, 63, 67
2, 123616, Control_c, 0, 93, 0
2, 123616, Note_on_c, 0, 67, 67
2, 123626, Note_off_c, 0, 67, 67
2, 123626, Note_on_c, 0, 70, 67
2, 123637, Note_off_c, 0, 70, 67
2, 123637, Note_on_c, 0, 75, 67
2, 123647, Note_off_c, 0, 75, 67
2, 123648, Control_c, 0, 93, 0
2, 123776, Control_c, 0, 93, 0
2, 123840, Control_c, 0, 93, 0
2, 123840, Control_c, 0, 64, 0
2, 123904, Control_c, 0, 93, 0
2, 123904, Note_on_c, 0, 51, 67
2, 123968, Note_off_c, 0, 51, 67
2, 124032, Note_off_c, 0, 51, 67
2, 124032, Note_on_c, 0, 63, 67
2, 124096, Note_off_c, 0, 63, 67
2, 124160, Note_off_c, 0, 63, 67
2, 124160, Note_on_c, 0, 50, 67
2, 124224, Note_off_c, 0, 50, 67
2, 124288, Note_off_c, 0, 50, 67
2, 124288, Note_on_c, 0, 62, 67
2, 124352, Note_off_c, 0, 62, 67
2, 124416, Note_off_c, 0, 62, 67
2, 124416, Note_on_c, 0, 48, 67
2, 124480, Note_off_c, 0, 48, 67
2, 124544, Note_off_c, 0, 48, 67
2, 124544, Note_on_c, 0, 60, 67
2, 124608, Note_off_c, 0, 60, 67
2, 124672, Note_off_c, 0, 60, 67
2, 124672, Note_on_c, 0, 46, 67
2, 124736, Note_off_c, 0, 46, 67
2, 124800, Note_off_c, 0, 46, 67
2, 124800, Note_on_c, 0, 58, 67
2, 124864, Note_off_c, 0, 58, 67
2, 124928, Note_off_c, 0, 58, 67
2, 124928, Note_on_c, 0, 51, 67
2, 124992, Note_off_c, 0, 51, 67
2, 125056, Note_off_c, 0, 51, 67
2, 125056, Note_on_c, 0, 63, 67
2, 125120, Note_off_c, 0, 63, 67
2, 125184, Note_off_c, 0, 63, 67
2, 125184, Note_on_c, 0, 46, 67
2, 125248, Note_off_c, 0, 46, 67
2, 125312, Note_off_c, 0, 46, 67
2, 125312, Note_on_c, 0, 58, 67
2, 125376, Note_off_c, 0, 58, 67
2, 125440, Note_off_c, 0, 58, 67
2, 125440, Note_on_c, 0, 48, 67
2, 125504, Note_off_c, 0, 48, 67
2, 125568, Note_off_c, 0, 48, 67
2, 125568, Note_on_c, 0, 60, 67
2, 125632, Note_off_c, 0, 60, 67
2, 125696, Note_off_c, 0, 60, 67
2, 125696, Note_on_c, 0, 46, 67
2, 125760, Note_off_c, 0, 46, 67
2, 125824, Note_off_c, 0, 46, 67
2, 125824, Note_on_c, 0, 58, 67
2, 125888, Note_off_c, 0, 58, 67
2, 125952, Note_off_c, 0, 58, 67
2, 125952, Note_on_c, 0, 50, 67
2, 126016, Note_off_c, 0, 50, 67
2, 126080, Note_off_c, 0, 50, 67
2, 126080, Note_on_c, 0, 62, 67
2, 126144, Note_off_c, 0, 62, 67
2, 126208, Note_off_c, 0, 62, 67
2, 126208, Note_on_c, 0, 46, 67
2, 126272, Note_off_c, 0, 46, 67
2, 126336, Note_off_c, 0, 46, 67
2, 126336, Note_on_c, 0, 58, 67
2, 126400, Note_off_c, 0, 58, 67
2, 126464, Note_off_c, 0, 58, 67
2, 126464, Note_on_c, 0, 48, 67
2, 126528, Note_off_c, 0, 48, 67
2, 126592, Note_off_c, 0, 48, 67
2, 126592, Note_on_c, 0, 60, 67
2, 126656, Note_off_c, 0, 60, 67
2, 126720, Note_off_c, 0, 60, 67
2, 126720, Note_on_c, 0, 49, 67
2, 126784, Note_off_c, 0, 49, 67
2, 126848, Note_off_c, 0, 49, 67
2, 126848, Note_on_c, 0, 61, 67
2, 126912, Note_off_c, 0, 61, 67
2, 126976, Note_off_c, 0, 61, 67
2, 126976, Note_on_c, 0, 50, 67
2, 127040, Note_off_c, 0, 50, 67
2, 127104, Note_off_c, 0, 50, 67
2, 127104, Note_on_c, 0, 62, 67
2, 127168, Note_off_c, 0, 62, 67
2, 127232, Note_off_c, 0, 62, 67
2, 127232, Note_on_c, 0, 46, 67
2, 127296, Note_off_c, 0, 46, 67
2, 127360, Note_off_c, 0, 46, 67
2, 127360, Note_on_c, 0, 58, 67
2, 127424, Note_off_c, 0, 58, 67
2, 127488, Note_off_c, 0, 58, 67
2, 127488, Note_on_c, 0, 51, 67
2, 127552, Note_off_c, 0, 51, 67
2, 127616, Note_off_c, 0, 51, 67
2, 127616, Note_on_c, 0, 63, 67
2, 127680, Note_off_c, 0, 63, 67
2, 127744, Note_off_c, 0, 63, 67
2, 127744, Note_on_c, 0, 46, 67
2, 127808, Note_off_c, 0, 46, 67
2, 127872, Note_off_c, 0, 46, 67
2, 127872, Note_on_c, 0, 58, 67
2, 127936, Note_off_c, 0, 58, 67
2, 128000, Note_off_c, 0, 58, 67
2, 128000, Note_on_c, 0, 51, 67
2, 128064, Note_off_c, 0, 51, 67
2, 128128, Note_off_c, 0, 51, 67
2, 128128, Note_on_c, 0, 63, 67
2, 128192, Note_off_c, 0, 63, 67
2, 128256, Note_off_c, 0, 63, 67
2, 128256, Note_on_c, 0, 50, 67
2, 128320, Note_off_c, 0, 50, 67
2, 128384, Note_off_c, 0, 50, 67
2, 128384, Note_on_c, 0, 62, 67
2, 128448, Note_off_c, 0, 62, 67
2, 128512, Note_off_c, 0, 62, 67
2, 128512, Note_on_c, 0, 48, 67
2, 128576, Note_off_c, 0, 48, 67
2, 128640, Note_off_c, 0, 48, 67
2, 128640, Note_on_c, 0, 60, 67
2, 128704, Note_off_c, 0, 60, 67
2, 128768, Note_off_c, 0, 60, 67
2, 128768, Note_on_c, 0, 46, 67
2, 128832, Note_off_c, 0, 46, 67
2, 128896, Note_off_c, 0, 46, 67
2, 128896, Note_on_c, 0, 58, 67
2, 128960, Note_off_c, 0, 58, 67
2, 129024, Note_off_c, 0, 58, 67
2, 129024, Note_on_c, 0, 51, 67
2, 129088, Note_off_c, 0, 51, 67
2, 129152, Note_off_c, 0, 51, 67
2, 129152, Note_on_c, 0, 63, 67
2, 129216, Note_off_c, 0, 63, 67
2, 129280, Note_off_c, 0, 63, 67
2, 129280, Note_on_c, 0, 46, 67
2, 129344, Note_off_c, 0, 46, 67
2, 129408, Note_off_c, 0, 46, 67
2, 129408, Note_on_c, 0, 58, 67
2, 129472, Note_off_c, 0, 58, 67
2, 129536, Note_off_c, 0, 58, 67
2, 129536, Note_on_c, 0, 48, 67
2, 129600, Note_off_c, 0, 48, 67
2, 129664, Note_off_c, 0, 48, 67
2, 129664, Note_on_c, 0, 60, 67
2, 129728, Note_off_c, 0, 60, 67
2, 129792, Note_off_c, 0, 60, 67
2, 129792, Note_on_c, 0, 46, 67
2, 129856, Note_off_c, 0, 46, 67
2, 129920, Note_off_c, 0, 46, 67
2, 129920, Note_on_c, 0, 58, 67
2, 129984, Note_off_c, 0, 58, 67
2, 130048, Note_off_c, 0, 58, 67
2, 130048, Note_on_c, 0, 50, 67
2, 130112, Note_off_c, 0, 50, 67
2, 130176, Note_off_c, 0, 50, 67
2, 130176, Note_on_c, 0, 62, 67
2, 130240, Note_off_c, 0, 62, 67
2, 130304, Note_off_c, 0, 62, 67
2, 130304, Note_on_c, 0, 48, 67
2, 130368, Note_off_c, 0, 48, 67
2, 130432, Note_off_c, 0, 48, 67
2, 130432, Note_on_c, 0, 60, 67
2, 130496, Note_off_c, 0, 60, 67
2, 130560, Note_off_c, 0, 60, 67
2, 130560, Note_on_c, 0, 46, 67
2, 130624, Note_off_c, 0, 46, 67
2, 130688, Note_off_c, 0, 46, 67
2, 130688, Note_on_c, 0, 58, 67
2, 130752, Note_off_c, 0, 58, 67
2, 130816, Note_off_c, 0, 58, 67
2, 130816, Note_on_c, 0, 48, 67
2, 130880, Note_off_c, 0, 48, 67
2, 130944, Note_off_c, 0, 48, 67
2, 130944, Note_on_c, 0, 60, 67
2, 131008, Note_off_c, 0, 60, 67
2, 131072, Note_off_c, 0, 60, 67
2, 131072, Note_on_c, 0, 50, 67
2, 131136, Note_off_c, 0, 50, 67
2, 131200, Note_off_c, 0, 50, 67
2, 131200, Note_on_c, 0, 62, 67
2, 131264, Note_off_c, 0, 62, 67
2, 131328, Note_off_c, 0, 62, 67
2, 131328, Note_on_c, 0, 46, 67
2, 131392, Note_off_c, 0, 46, 67
2, 131456, Note_off_c, 0, 46, 67
2, 131456, Note_on_c, 0, 58, 67
2, 131520, Note_off_c, 0, 58, 67
2, 131584, Note_off_c, 0, 58, 67
2, 131584, Note_on_c, 0, 51, 67
2, 131648, Note_off_c, 0, 51, 67
2, 131712, Note_off_c, 0, 51, 67
2, 131712, Note_on_c, 0, 63, 67
2, 131776, Note_off_c, 0, 63, 67
2, 131840, Note_off_c, 0, 63, 67
2, 131840, Note_on_c, 0, 46, 67
2, 131904, Note_off_c, 0, 46, 67
2, 131968, Note_off_c, 0, 46, 67
2, 131968, Note_on_c, 0, 58, 67
2, 132032, Note_off_c, 0, 58, 67
2, 132096, Note_off_c, 0, 58, 67
2, 132096, Note_on_c, 0, 39, 67
2, 132160, Note_off_c, 0, 39, 67
2, 132160, Note_on_c, 0, 46, 67
2, 132224, Note_off_c, 0, 46, 67
2, 132224, Note_on_c, 0, 51, 67
2, 132288, Note_off_c, 0, 51, 67
2, 132288, Note_on_c, 0, 53, 67
2, 132352, Note_off_c, 0, 53, 67
2, 132352, Note_on_c, 0, 55, 67
2, 132416, Note_off_c, 0, 55, 67
2, 132416, Note_on_c, 0, 51, 67
2, 132480, Note_off_c, 0, 51, 67
2, 132480, Note_on_c, 0, 58, 67
2, 132544, Note_off_c, 0, 58, 67
2, 132544, Note_on_c, 0, 63, 67
2, 132592, Control_c, 0, 93, 0
2, 132608, Note_off_c, 0, 63, 67
2, 132608, Note_on_c, 0, 44, 67
2, 132672, Note_off_c, 0, 44, 67
2, 132672, Note_on_c, 0, 51, 67
2, 132736, Note_off_c, 0, 51, 67
2, 132736, Note_on_c, 0, 56, 67
2, 132800, Note_off_c, 0, 56, 67
2, 132800, Note_on_c, 0, 58, 67
2, 132864, Note_off_c, 0, 58, 67
2, 132864, Note_on_c, 0, 60, 67
2, 132928, Note_off_c, 0, 60, 67
2, 132928, Note_on_c, 0, 56, 67
2, 132992, Note_off_c, 0, 56, 67
2, 132992, Note_on_c, 0, 63, 67
2, 133056, Note_off_c, 0, 63, 67
2, 133056, Note_on_c, 0, 68, 67
2, 133104, Control_c, 0, 93, 0
2, 133120, Note_off_c, 0, 68, 67
2, 133120, Note_on_c, 0, 46, 67
2, 133184, Note_off_c, 0, 46, 67
2, 133184, Note_on_c, 0, 53, 67
2, 133248, Note_off_c, 0, 53, 67
2, 133248, Note_on_c, 0, 58, 67
2, 133312, Note_off_c, 0, 58, 67
2, 133312, Note_on_c, 0, 60, 67
2, 133376, Note_off_c, 0, 60, 67
2, 133376, Note_on_c, 0, 62, 67
2, 133440, Note_off_c, 0, 62, 67
2, 133440, Note_on_c, 0, 58, 67
2, 133504, Note_off_c, 0, 58, 67
2, 133504, Note_on_c, 0, 65, 67
2, 133568, Note_off_c, 0, 65, 67
2, 133568, Note_on_c, 0, 70, 67
2, 133616, Control_c, 0, 93, 0
2, 133632, Note_off_c, 0, 70, 67
2, 133632, Note_on_c, 0, 41, 67
2, 133696, Note_off_c, 0, 41, 67
2, 133696, Note_on_c, 0, 44, 67
2, 133760, Note_off_c, 0, 44, 67
2, 133760, Control_c, 0, 64, 64
2, 133760, Note_on_c, 0, 50, 67
2, 133781, Note_off_c, 0, 50, 67
2, 133781, Note_on_c, 0, 53, 67
2, 133802, Note_off_c, 0, 53, 67
2, 133802, Note_on_c, 0, 58, 67
2, 133823, Note_off_c, 0, 58, 67
2, 133824, Control_c, 0, 93, 0
2, 133824, Note_on_c, 0, 62, 67
2, 133845, Note_off_c, 0, 62, 67
2, 133845, Note_on_c, 0, 65, 67
2, 133866, Note_off_c, 0, 65, 67
2, 133866, Note_on_c, 0, 70, 67
2, 133888, Control_c, 0, 93, 0
2, 133888, Control_c, 0, 64, 0
2, 134016, Note_off_c, 0, 70, 67
2, 134016, Note_on_c, 0, 51, 67
2, 134080, Note_off_c, 0, 51, 67
2, 134080, Note_on_c, 0, 46, 67
2, 134144, Note_off_c, 0, 46, 67
2, 134144, Note_on_c, 0, 39, 67
2, 134208, Note_off_c, 0, 39, 67
2, 134208, Note_on_c, 0, 46, 67
2, 134272, Note_off_c, 0, 46, 67
2, 134272, Note_on_c, 0, 51, 67
2, 134336, Note_off_c, 0, 51, 67
2, 134336, Note_on_c, 0, 53, 67
2, 134400, Note_off_c, 0, 53, 67
2, 134400, Note_on_c, 0, 55, 67
2, 134464, Note_off_c, 0, 55, 67
2, 134464, Note_on_c, 0, 51, 67
2, 134528, Note_off_c, 0, 51, 67
2, 134528, Note_on_c, 0, 58, 67
2, 134592, Note_off_c, 0, 58, 67
2, 134592, Note_on_c, 0, 63, 67
2, 134640, Control_c, 0, 93, 0
2, 134656, Note_off_c, 0, 63, 67
2, 134656, Note_on_c, 0, 44, 67
2, 134720, Note_off_c, 0, 44, 67
2, 134720, Note_on_c, 0, 51, 67
2, 134784, Note_off_c, 0, 51, 67
2, 134784, Note_on_c, 0, 56, 67
2, 134848, Note_off_c, 0, 56, 67
2, 134848, Note_on_c, 0, 58, 67
2, 134912, Note_off_c, 0, 58, 67
2, 134912, Note_on_c, 0, 60, 67
2, 134976, Note_off_c, 0, 60, 67
2, 134976, Note_on_c, 0, 56, 67
2, 135040, Note_off_c, 0, 56, 67
2, 135040, Note_on_c, 0, 63, 67
2, 135104, Note_off_c, 0, 63, 67
2, 135104, Note_on_c, 0, 68, 67
2, 135152, Control_c, 0, 93, 0
2, 135168, Note_off_c, 0, 68, 67
2, 135168, Note_on_c, 0, 46, 67
2, 135232, Note_off_c, 0, 46, 67
2, 135232, Note_on_c, 0, 53, 67
2, 135296, Note_off_c, 0, 53, 67
2, 135296, Note_on_c, 0, 58, 67
2, 135360, Note_off_c, 0, 58, 67
2, 135360, Note_on_c, 0, 60, 67
2, 135424, Note_off_c, 0, 60, 67
2, 135424, Note_on_c, 0, 62, 67
2, 135488, Note_off_c, 0, 62, 67
2, 135488, Note_on_c, 0, 58, 67
2, 135552, Note_off_c, 0, 58, 67
2, 135552, Note_on_c, 0, 65, 67
2, 135616, Note_off_c, 0, 65, 67
2, 135616, Note_on_c, 0, 70, 67
2, 135664, Control_c, 0, 93, 0
2, 135680, Note_off_c, 0, 70, 67
2, 135680, Note_on_c, 0, 39, 67
2, 135744, Note_off_c, 0, 39, 67
2, 135744, Note_on_c, 0, 46, 67
2, 135808, Note_off_c, 0, 46, 67
2, 135808, Note_on_c, 0, 51, 67
2, 135872, Note_off_c, 0, 51, 67
2, 135872, Control_c, 0, 64, 64
2, 135872, Note_on_c, 0, 55, 67
2, 135882, Note_off_c, 0, 55, 67
2, 135882, Note_on_c, 0, 58, 67
2, 135893, Note_off_c, 0, 58, 67
2, 135893, Note_on_c, 0, 63, 67
2, 135903, Note_off_c, 0, 63, 67
2, 135904, Control_c, 0, 93, 0
2, 135904, Note_on_c, 0, 67, 67
2, 135914, Note_off_c, 0, 67, 67
2, 135914, Note_on_c, 0, 70, 67
2, 135925, Note_off_c, 0, 70, 67
2, 135925, Note_on_c, 0, 75, 67
2, 135935, Note_off_c, 0, 75, 67
2, 135936, Control_c, 0, 93, 0
2, 136064, Control_c, 0, 93, 0
2, 136128, Control_c, 0, 93, 0
2, 136128, Control_c, 0, 64, 0
2, 136192, Control_c, 0, 93, 0
2, 136192, Note_on_c, 0, 51, 67
2, 136256, Note_off_c, 0, 51, 67
2, 136320, Note_off_c, 0, 51, 67
2, 136320, Note_on_c, 0, 63, 67
2, 136384, Note_off_c, 0, 63, 67
2, 136448, Note_off_c, 0, 63, 67
2, 136448, Note_on_c, 0, 50, 67
2, 136512, Note_off_c, 0, 50, 67
2, 136576, Note_off_c, 0, 50, 67
2, 136576, Note_on_c, 0, 62, 67
2, 136640, Note_off_c, 0, 62, 67
2, 136704, Note_off_c, 0, 62, 67
2, 136704, Note_on_c, 0, 48, 67
2, 136768, Note_off_c, 0, 48, 67
2, 136832, Note_off_c, 0, 48, 67
2, 136832, Note_on_c, 0, 60, 67
2, 136896, Note_off_c, 0, 60, 67
2, 136960, Note_off_c, 0, 60, 67
2, 136960, Note_on_c, 0, 46, 67
2, 137024, Note_off_c, 0, 46, 67
2, 137088, Note_off_c, 0, 46, 67
2, 137088, Note_on_c, 0, 58, 67
2, 137152, Note_off_c, 0, 58, 67
2, 137216, Note_off_c, 0, 58, 67
2, 137216, Note_on_c, 0, 51, 67
2, 137280, Note_off_c, 0, 51, 67
2, 137344, Note_off_c, 0, 51, 67
2, 137344, Note_on_c, 0, 63, 67
2, 137408, Note_off_c, 0, 63, 67
2, 137472, Note_off_c, 0, 63, 67
2, 137472, Note_on_c, 0, 46, 67
2, 137536, Note_off_c, 0, 46, 67
2, 137600, Note_off_c, 0, 46, 67
2, 137600, Note_on_c, 0, 58, 67
2, 137664, Note_off_c, 0, 58, 67
2, 137728, Note_off_c, 0, 58, 67
2, 137728, Note_on_c, 0, 48, 67
2, 137792, Note_off_c, 0, 48, 67
2, 137856, Note_off_c, 0, 48, 67
2, 137856, Note_on_c, 0, 60, 67
2, 137920, Note_off_c, 0, 60, 67
2, 137984, Note_off_c, 0, 60, 67
2, 137984, Note_on_c, 0, 46, 67
2, 138048, Note_off_c, 0, 46, 67
2, 138112, Note_off_c, 0, 46, 67
2, 138112, Note_on_c, 0, 58, 67
2, 138176, Note_off_c, 0, 58, 67
2, 138240, Note_off_c, 0, 58, 67
2, 138240, Note_on_c, 0, 50, 67
2, 138304, Note_off_c, 0, 50, 67
2, 138368, Note_off_c, 0, 50, 67
2, 138368, Note_on_c, 0, 62, 67
2, 138432, Note_off_c, 0, 62, 67
2, 138496, Note_off_c, 0, 62, 67
2, 138496, Note_on_c, 0, 46, 67
2, 138560, Note_off_c, 0, 46, 67
2, 138624, Note_off_c, 0, 46, 67
2, 138624, Note_on_c, 0, 58, 67
2, 138688, Note_off_c, 0, 58, 67
2, 138752, Note_off_c, 0, 58, 67
2, 138752, Note_on_c, 0, 48, 67
2, 138816, Note_off_c, 0, 48, 67
2, 138880, Note_off_c, 0, 48, 67
2, 138880, Note_on_c, 0, 60, 67
2, 138944, Note_off_c, 0, 60, 67
2, 139008, Note_off_c, 0, 60, 67
2, 139008, Note_on_c, 0, 49, 67
2, 139072, Note_off_c, 0, 49, 67
2, 139136, Note_off_c, 0, 49, 67
2, 139136, Note_on_c, 0, 61, 67
2, 139200, Note_off_c, 0, 61, 67
2, 139264, Note_off_c, 0, 61, 67
2, 139264, Note_on_c, 0, 50, 67
2, 139328, Note_off_c, 0, 50, 67
2, 139392, Note_off_c, 0, 50, 67
2, 139392, Note_on_c, 0, 62, 67
2, 139456, Note_off_c, 0, 62, 67
2, 139520, Note_off_c, 0, 62, 67
2, 139520, Note_on_c, 0, 46, 67
2, 139584, Note_off_c, 0, 46, 67
2, 139648, Note_off_c, 0, 46, 67
2, 139648, Note_on_c, 0, 58, 67
2, 139712, Note_off_c, 0, 58, 67
2, 139776, Note_off_c, 0, 58, 67
2, 139776, Note_on_c, 0, 51, 67
2, 139840, Note_off_c, 0, 51, 67
2, 139904, Note_off_c, 0, 51, 67
2, 139904, Note_on_c, 0, 63, 67
2, 139968, Note_off_c, 0, 63, 67
2, 140032, Note_off_c, 0, 63, 67
2, 140032, Note_on_c, 0, 46, 67
2, 140096, Note_off_c, 0, 46, 67
2, 140160, Note_off_c, 0, 46, 67
2, 140160, Note_on_c, 0, 58, 67
2, 140224, Note_off_c, 0, 58, 67
2, 140288, Note_off_c, 0, 58, 67
2, 140288, Note_on_c, 0, 51, 67
2, 140352, Note_off_c, 0, 51, 67
2, 140416, Note_off_c, 0, 51, 67
2, 140416, Note_on_c, 0, 63, 67
2, 140480, Note_off_c, 0, 63, 67
2, 140544, Note_off_c, 0, 63, 67
2, 140544, Note_on_c, 0, 50, 67
2, 140608, Note_off_c, 0, 50, 67
2, 140672, Note_off_c, 0, 50, 67
2, 140672, Note_on_c, 0, 62, 67
2, 140736, Note_off_c, 0, 62, 67
2, 140800, Note_off_c, 0, 62, 67
2, 140800, Note_on_c, 0, 48, 67
2, 140864, Note_off_c, 0, 48, 67
2, 140928, Note_off_c, 0, 48, 67
2, 140928, Note_on_c, 0, 60, 67
2, 140992, Note_off_c, 0, 60, 67
2, 141056, Note_off_c, 0, 60, 67
2, 141056, Note_on_c, 0, 46, 67
2, 141120, Note_off_c, 0, 46, 67
2, 141184, Note_off_c, 0, 46, 67
2, 141184, Note_on_c, 0, 58, 67
2, 141248, Note_off_c, 0, 58, 67
2, 141312, Note_off_c, 0, 58, 67
2, 141312, Note_on_c, 0, 51, 67
2, 141376, Note_off_c, 0, 51, 67
2, 141440, Note_off_c, 0, 51, 67
2, 141440, Note_on_c, 0, 63, 67
2, 141504, Note_off_c, 0, 63, 67
2, 141568, Note_off_c, 0, 63, 67
2, 141568, Note_on_c, 0, 46, 67
2, 141632, Note_off_c, 0, 46, 67
2, 141696, Note_off_c, 0, 46, 67
2, 141696, Note_on_c, 0, 58, 67
2, 141760, Note_off_c, 0, 58, 67
2, 141824, Note_off_c, 0, 58, 67
2, 141824, Note_on_c, 0, 48, 67
2, 141888, Note_off_c, 0, 48, 67
2, 141952, Note_off_c, 0, 48, 67
2, 141952, Note_on_c, 0, 60, 67
2, 142016, Note_off_c, 0, 60, 67
2, 142080, Note_off_c, 0, 60, 67
2, 142080, Note_on_c, 0, 46, 67
2, 142144, Note_off_c, 0, 46, 67
2, 142208, Note_off_c, 0, 46, 67
2, 142208, Note_on_c, 0, 58, 67
2, 142272, Note_off_c, 0, 58, 67
2, 142336, Note_off_c, 0, 58, 67
2, 142336, Note_on_c, 0, 50, 67
2, 142400, Note_off_c, 0, 50, 67
2, 142464, Note_off_c, 0, 50, 67
2, 142464, Note_on_c, 0, 62, 67
2, 142528, Note_off_c, 0, 62, 67
2, 142592, Note_off_c, 0, 62, 67
2, 142592, Note_on_c, 0, 48, 67
2, 142656, Note_off_c, 0, 48, 67
2, 142720, Note_off_c, 0, 48, 67
2, 142720, Note_on_c, 0, 60, 67
2, 142784, Note_off_c, 0, 60, 67
2, 142848, Note_off_c, 0, 60, 67
2, 142848, Note_on_c, 0, 46, 67
2, 142912, Note_off_c, 0, 46, 67
2, 142976, Note_off_c, 0, 46, 67
2, 142976, Note_on_c, 0, 58, 67
2, 143040, Note_off_c, 0, 58, 67
2, 143104, Note_off_c, 0, 58, 67
2, 143104, Note_on_c, 0, 48, 67
2, 143168, Note_off_c, 0, 48, 67
2, 143232, Note_off_c, 0, 48, 67
2, 143232, Note_on_c, 0, 60, 67
2, 143296, Note_off_c, 0, 60, 67
2, 143360, Note_off_c, 0, 60, 67
2, 143360, Note_on_c, 0, 50, 67
2, 143424, Note_off_c, 0, 50, 67
2, 143488, Note_off_c, 0, 50, 67
2, 143488, Note_on_c, 0, 62, 67
2, 143552, Note_off_c, 0, 62, 67
2, 143616, Note_off_c, 0, 62, 67
2, 143616, Note_on_c, 0, 46, 67
2, 143680, Note_off_c, 0, 46, 67
2, 143744, Note_off_c, 0, 46, 67
2, 143744, Note_on_c, 0, 58, 67
2, 143808, Note_off_c, 0, 58, 67
2, 143872, Note_off_c, 0, 58, 67
2, 143872, Note_on_c, 0, 51, 67
2, 143936, Note_off_c, 0, 51, 67
2, 144000, Note_off_c, 0, 51, 67
2, 144000, Note_on_c, 0, 63, 67
2, 144064, Note_off_c, 0, 63, 67
2, 144128, Note_off_c, 0, 63, 67
2, 144128, Note_on_c, 0, 46, 67
2, 144192, Note_off_c, 0, 46, 67
2, 144256, Note_off_c, 0, 46, 67
2, 144256, Note_on_c, 0, 58, 67
2, 144320, Note_off_c, 0, 58, 67
2, 144384, Note_off_c, 0, 58, 67
2, 144384, Note_on_c, 0, 39, 67
2, 144448, Note_off_c, 0, 39, 67
2, 144448, Note_on_c, 0, 46, 67
2, 144512, Note_off_c, 0, 46, 67
2, 144512, Note_on_c, 0, 51, 67
2, 144576, Note_off_c, 0, 51, 67
2, 144576, Note_on_c, 0, 53, 67
2, 144640, Note_off_c, 0, 53, 67
2, 144640, Note_on_c, 0, 55, 67
2, 144704, Note_off_c, 0, 55, 67
2, 144704, Note_on_c, 0, 51, 67
2, 144768, Note_off_c, 0, 51, 67
2, 144768, Note_on_c, 0, 58, 67
2, 144832, Note_off_c, 0, 58, 67
2, 144832, Note_on_c, 0, 63, 67
2, 144880, Control_c, 0, 93, 0
2, 144896, Note_off_c, 0, 63, 67
2, 144896, Note_on_c, 0, 44, 67
2, 144960, Note_off_c, 0, 44, 67
2, 144960, Note_on_c, 0, 51, 67
2, 145024, Note_off_c, 0, 51, 67
2, 145024, Note_on_c, 0, 56, 67
2, 145088, Note_off_c, 0, 56, 67
2, 145088, Note_on_c, 0, 58, 67
2, 145152, Note_off_c, 0, 58, 67
2, 145152, Note_on_c, 0, 60, 67
2, 145216, Note_off_c, 0, 60, 67
2, 145216, Note_on_c, 0, 56, 67
2, 145280, Note_off_c, 0, 56, 67
2, 145280, Note_on_c, 0, 63, 67
2, 145344, Note_off_c, 0, 63, 67
2, 145344, Note_on_c, 0, 68, 67
2, 145392, Control_c, 0, 93, 0
2, 145408, Note_off_c, 0, 68, 67
2, 145408, Note_on_c, 0, 46, 67
2, 145472, Note_off_c, 0, 46, 67
2, 145472, Note_on_c, 0, 53, 67
2, 145536, Note_off_c, 0, 53, 67
2, 145536, Note_on_c, 0, 58, 67
2, 145600, Note_off_c, 0, 58, 67
2, 145600, Note_on_c, 0, 60, 67
2, 145664, Note_off_c, 0, 60, 67
2, 145664, Note_on_c, 0, 62, 67
2, 145728, Note_off_c, 0, 62, 67
2, 145728, Note_on_c, 0, 58, 67
2, 145792, Note_off_c, 0, 58, 67
2, 145792, Note_on_c, 0, 65, 67
2, 145856, Note_off_c, 0, 65, 67
2, 145856, Note_on_c, 0, 70, 67
2, 145904, Control_c, 0, 93, 0
2, 145920, Note_off_c, 0, 70, 67
2, 145920, Note_on_c, 0, 41, 67
2, 145984, Note_off_c, 0, 41, 67
2, 145984, Note_on_c, 0, 44, 67
2, 146048, Note_off_c, 0, 44, 67
2, 146048, Control_c, 0, 64, 64
2, 146048, Note_on_c, 0, 50, 67
2, 146069, Note_off_c, 0, 50, 67
2, 146069, Note_on_c, 0, 53, 67
2, 146090, Note_off_c, 0, 53, 67
2, 146090, Note_on_c, 0, 58, 67
2, 146111, Note_off_c, 0, 58, 67
2, 146112, Control_c, 0, 93, 0
2, 146112, Note_on_c, 0, 62, 67
2, 146133, Note_off_c, 0, 62, 67
2, 146133, Note_on_c, 0, 65, 67
2, 146154, Note_off_c, 0, 65, 67
2, 146154, Note_on_c, 0, 70, 67
2, 146176, Control_c, 0, 93, 0
2, 146176, Control_c, 0, 64, 0
2, 146304, Note_off_c, 0, 70, 67
2, 146304, Note_on_c, 0, 51, 67
2, 146368, Note_off_c, 0, 51, 67
2, 146368, Note_on_c, 0, 46, 67
2, 146432, Note_off_c, 0, 46, 67
2, 146432, Note_on_c, 0, 39, 67
2, 146496, Note_off_c, 0, 39, 67
2, 146496, Note_on_c, 0, 46, 67
2, 146560, Note_off_c, 0, 46, 67
2, 146560, Note_on_c, 0, 51, 67
2, 146624, Note_off_c, 0, 51, 67
2, 146624, Note_on_c, 0, 53, 67
2, 146688, Note_off_c, 0, 53, 67
2, 146688, Note_on_c, 0, 55, 67
2, 146752, Note_off_c, 0, 55, 67
2, 146752, Note_on_c, 0, 51, 67
2, 146816, Note_off_c, 0, 51, 67
2, 146816, Note_on_c, 0, 58, 67
2, 146880, Note_off_c, 0, 58, 67
2, 146880, Note_on_c, 0, 63, 67
2, 146928, Control_c, 0, 93, 0
2, 146944, Note_off_c, 0, 63, 67
2, 146944, Note_on_c, 0, 44, 67
2, 147008, Note_off_c, 0, 44, 67
2, 147008, Note_on_c, 0, 51, 67
2, 147072, Note_off_c, 0, 51, 67
2, 147072, Note_on_c, 0, 56, 67
2, 147136, Note_off_c, 0, 56, 67
2, 147136, Note_on_c, 0, 58, 67
2, 147200, Note_off_c, 0, 58, 67
2, 147200, Note_on_c, 0, 60, 67
2, 147264, Note_off_c, 0, 60, 67
2, 147264, Note_on_c, 0, 56, 67
2, 147328, Note_off_c, 0, 56, 67
2, 147328, Note_on_c, 0, 63, 67
2, 147392, Note_off_c, 0, 63, 67
2, 147392, Note_on_c, 0, 68, 67
2, 147440, Control_c, 0, 93, 0
2, 147456, Note_off_c, 0, 68, 67
2, 147456, Note_on_c, 0, 46, 67
2, 147520, Note_off_c, 0, 46, 67
2, 147520, Note_on_c, 0, 53, 67
2, 147584, Note_off_c, 0, 53, 67
2, 147584, Note_on_c, 0, 58, 67
2, 147648, Note_off_c, 0, 58, 67
2, 147648, Note_on_c, 0, 60, 67
2, 147712, Note_off_c, 0, 60, 67
2, 147712, Note_on_c, 0, 62, 67
2, 147776, Note_off_c, 0, 62, 67
2, 147776, Note_on_c, 0, 58, 67
2, 147840, Note_off_c, 0, 58, 67
2, 147840, Note_on_c, 0, 65, 67
2, 147904, Note_off_c, 0, 65, 67
2, 147904, Note_on_c, 0, 70, 67
2, 147952, Control_c, 0, 93, 0
2, 147968, Note_off_c, 0, 70, 67
2, 147968, Note_on_c, 0, 39, 67
2, 148032, Note_off_c, 0, 39, 67
2, 148032, Note_on_c, 0, 46, 67
2, 148096, Note_off_c, 0, 46, 67
2, 148096, Note_on_c, 0, 51, 67
2, 148160, Note_off_c, 0, 51, 67
2, 148160, Control_c, 0, 64, 64
2, 148160, Note_on_c, 0, 55, 67
2, 148170, Note_off_c, 0, 55, 67
2, 148170, Note_on_c, 0, 58, 67
2, 148181, Note_off_c, 0, 58, 67
2, 148181, Note_on_c, 0, 63, 67
2, 148191, Note_off_c, 0, 63, 67
2, 148192, Control_c, 0, 93, 0
2, 148192, Note_on_c, 0, 67, 67
2, 148202, Note_off_c, 0, 67, 67
2, 148202, Note_on_c, 0, 70, 67
2, 148213, Note_off_c, 0, 70, 67
2, 148213, Note_on_c, 0, 75, 67
2, 148223, Note_off_c, 0, 75, 67
2, 148224, Control_c, 0, 93, 0
2, 148352, Control_c, 0, 93, 0
2, 148416, Control_c, 0, 93, 0
2, 148416, Control_c, 0, 64, 0
2, 148480, Control_c, 0, 93, 0
2, 148480, Note_on_c, 0, 51, 67
2, 148544, Note_off_c, 0, 51, 67
2, 148608, Note_off_c, 0, 51, 67
2, 148608, Note_on_c, 0, 63, 67
2, 148672, Note_off_c, 0, 63, 67
2, 148736, Note_off_c, 0, 63, 67
2, 148736, Note_on_c, 0, 50, 67
2, 148800, Note_off_c, 0, 50, 67
2, 148864, Note_off_c, 0, 50, 67
2, 148864, Note_on_c, 0, 62, 67
2, 148928, Note_off_c, 0, 62, 67
2, 148992, Note_off_c, 0, 62, 67
2, 148992, Note_on_c, 0, 48, 67
2, 149056, Note_off_c, 0, 48, 67
2, 149120, Note_off_c, 0, 48, 67
2, 149120, Note_on_c, 0, 60, 67
2, 149184, Note_off_c, 0, 60, 67
2, 149248, Note_off_c, 0, 60, 67
2, 149248, Note_on_c, 0, 46, 67
2, 149312, Note_off_c, 0, 46, 67
2, 149376, Note_off_c, 0, 46, 67
2, 149376, Note_on_c, 0, 58, 67
2, 149440, Note_off_c, 0, 58, 67
2, 149504, Note_off_c, 0, 58, 67
2, 149504, Note_on_c, 0, 51, 67
2, 149568, Note_off_c, 0, 51, 67
2, 149632, Note_off_c, 0, 51, 67
2, 149632, Note_on_c, 0, 63, 67
2, 149696, Note_off_c, 0, 63, 67
2, 149760, Note_off_c, 0, 63, 67
2, 149760, Note_on_c, 0, 46, 67
2, 149824, Note_off_c, 0, 46, 67
2, 149888, Note_off_c, 0, 46, 67
2, 149888, Note_on_c, 0, 58, 67
2, 149952, Note_off_c, 0, 58, 67
2, 150016, Note_off_c, 0, 58, 67
2, 150016, Note_on_c, 0, 48, 67
2, 150080, Note_off_c, 0, 48, 67
2, 150144, Note_off_c, 0, 48, 67
2, 150144, Note_on_c, 0, 60, 67
2, 150208, Note_off_c, 0, 60, 67
2, 150272, Note_off_c, 0, 60, 67
2, 150272, Note_on_c, 0, 46, 67
2, 150336, Note_off_c, 0, 46, 67
2, 150400, Note_off_c, 0, 46, 67
2, 150400, Note_on_c, 0, 58, 67
2, 150464, Note_off_c, 0, 58, 67
2, 150528, Note_off_c, 0, 58, 67
2, 150528, Note_on_c, 0, 50, 67
2, 150592, Note_off_c, 0, 50, 67
2, 150656, Note_off_c, 0, 50, 67
2, 150656, Note_on_c, 0, 62, 67
2, 150720, Note_off_c, 0, 62, 67
2, 150784, Note_off_c, 0, 62, 67
2, 150784, Note_on_c, 0, 46, 67
2, 150848, Note_off_c, 0, 46, 67
2, 150912, Note_off_c, 0, 46, 67
2, 150912, Note_on_c, 0, 58, 67
2, 150976, Note_off_c, 0, 58, 67
2, 151040, Note_off_c, 0, 58, 67
2, 151040, Note_on_c, 0, 48, 67
2, 151104, Note_off_c, 0, 48, 67
2, 151168, Note_off_c, 0, 48, 67
2, 151168, Note_on_c, 0, 60, 67
2, 151232, Note_off_c, 0, 60, 67
2, 151296, Note_off_c, 0, 60, 67
2, 151296, Note_on_c, 0, 49, 67
2, 151360, Note_off_c, 0, 49, 67
2, 151424, Note_off_c, 0, 49, 67
2, 151424, Note_on_c, 0, 61, 67
2, 151488, Note_off_c, 0, 61, 67
2, 151552, Note_off_c, 0, 61, 67
2, 151552, Note_on_c, 0, 50, 67
2, 151616, Note_off_c, 0, 50, 67
2, 151680, Note_off_c, 0, 50, 67
2, 151680, Note_on_c, 0, 62, 67
2, 151744, Note_off_c, 0, 62, 67
2, 151808, Note_off_c, 0, 62, 67
2, 151808, Note_on_c, 0, 46, 67
2, 151872, Note_off_c, 0, 46, 67
2, 151936, Note_off_c, 0, 46, 67
2, 151936, Note_on_c, 0, 58, 67
2, 152000, Note_off_c, 0, 58, 67
2, 152064, Note_off_c, 0, 58, 67
2, 152064, Note_on_c, 0, 51, 67
2, 152128, Note_off_c, 0, 51, 67
2, 152192, Note_off_c, 0, 51, 67
2, 152192, Note_on_c, 0, 63, 67
2, 152256, Note_off_c, 0, 63, 67
2, 152320, Note_off_c, 0, 63, 67
2, 152320, Note_on_c, 0, 46, 67
2, 152384, Note_off_c, 0, 46, 67
2, 152448, Note_off_c, 0, 46, 67
2, 152448, Note_on_c, 0, 58, 67
2, 152512, Note_off_c, 0, 58, 67
2, 152576, Note_off_c, 0, 58, 67
2, 152576, Note_on_c, 0, 51, 67
2, 152640, Note_off_c, 0, 51, 67
2, 152704, Note_off_c, 0, 51, 67
2, 152704, Note_on_c, 0, 63, 67
2, 152768, Note_off_c, 0, 63, 67
2, 152832, Note_off_c, 0, 63, 67
2, 152832, Note_on_c, 0, 50, 67
2, 152896, Note_off_c, 0, 50, 67
2, 152960, Note_off_c, 0, 50, 67
2, 152960, Note_on_c, 0, 62, 67
2, 153024, Note_off_c, 0, 62, 67
2, 153088, Note_off_c, 0, 62, 67
2, 153088, Note_on_c, 0, 48, 67
2, 153152, Note_off_c, 0, 48, 67
2, 153216, Note_off_c, 0, 48, 67
2, 153216, Note_on_c, 0, 60, 67
2, 153280, Note_off_c, 0, 60, 67
2, 153344, Note_off_c, 0, 60, 67
2, 153344, Note_on_c, 0, 46, 67
2, 153408, Note_off_c, 0, 46, 67
2, 153472, Note_off_c, 0, 46, 67
2, 153472, Note_on_c, 0, 58, 67
2, 153536, Note_off_c, 0, 58, 67
2, 153600, Note_off_c, 0, 58, 67
2, 153600, Note_on_c, 0, 51, 67
2, 153664, Note_off_c, 0, 51, 67
2, 153728, Note_off_c, 0, 51, 67
2, 153728, Note_on_c, 0, 63, 67
2, 153792, Note_off_c, 0, 63, 67
2, 153856, Note_off_c, 0, 63, 67
2, 153856, Note_on_c, 0, 46, 67
2, 153920, Note_off_c, 0, 46, 67
2, 153984, Note_off_c, 0, 46, 67
2, 153984, Note_on_c, 0, 58, 67
2, 154048, Note_off_c, 0, 58, 67
2, 154112, Note_off_c, 0, 58, 67
2, 154112, Note_on_c, 0, 48, 67
2, 154176, Note_off_c, 0, 48, 67
2, 154240, Note_off_c, 0, 48, 67
2, 154240, Note_on_c, 0, 60, 67
2, 154304, Note_off_c, 0, 60, 67
2, 154368, Note_off_c, 0, 60, 67
2, 154368, Note_on_c, 0, 46, 67
2, 154432, Note_off_c, 0, 46, 67
2, 154496, Note_off_c, 0, 46, 67
2, 154496, Note_on_c, 0, 58, 67
2, 154560, Note_off_c, 0, 58, 67
2, 154624, Note_off_c, 0, 58, 67
2, 154624, Note_on_c, 0, 50, 67
2, 154688, Note_off_c, 0, 50, 67
2, 154752, Note_off_c, 0, 50, 67
2, 154752, Note_on_c, 0, 62, 67
2, 154816, Note_off_c, 0, 62, 67
2, 154880, Note_off_c, 0, 62, 67
2, 154880, Note_on_c, 0, 48, 67
2, 154944, Note_off_c, 0, 48, 67
2, 155008, Note_off_c, 0, 48, 67
2, 155008, Note_on_c, 0, 60, 67
2, 155072, Note_off_c, 0, 60, 67
2, 155136, Note_off_c, 0, 60, 67
2, 155136, Note_on_c, 0, 46, 67
2, 155200, Note_off_c, 0, 46, 67
2, 155264, Note_off_c, 0, 46, 67
2, 155264, Note_on_c, 0, 58, 67
2, 155328, Note_off_c, 0, 58, 67
2, 155392, Note_off_c, 0, 58, 67
2, 155392, Note_on_c, 0, 48, 67
2, 155456, Note_off_c, 0, 48, 67
2, 155520, Note_off_c, 0, 48, 67
2, 155520, Note_on_c, 0, 60, 67
2, 155584, Note_off_c, 0, 60, 67
2, 155648, Note_off_c, 0, 60, 67
2, 155648, Note_on_c, 0, 50, 67
2, 155712, Note_off_c, 0, 50, 67
2, 155776, Note_off_c, 0, 50, 67
2, 155776, Note_on_c, 0, 62, 67
2, 155840, Note_off_c, 0, 62, 67
2, 155904, Note_off_c, 0, 62, 67
2, 155904, Note_on_c, 0, 46, 67
2, 155968, Note_off_c, 0, 46, 67
2, 156032, Note_off_c, 0, 46, 67
2, 156032, Note_on_c, 0, 58, 67
2, 156096, Note_off_c, 0, 58, 67
2, 156160, Note_off_c, 0, 58, 67
2, 156160, Note_on_c, 0, 51, 67
2, 156224, Note_off_c, 0, 51, 67
2, 156288, Note_off_c, 0, 51, 67
2, 156288, Note_on_c, 0, 63, 67
2, 156352, Note_off_c, 0, 63, 67
2, 156416, Note_off_c, 0, 63, 67
2, 156416, Note_on_c, 0, 46, 67
2, 156480, Note_off_c, 0, 46, 67
2, 156544, Note_off_c, 0, 46, 67
2, 156544, Note_on_c, 0, 58, 67
2, 156608, Note_off_c, 0, 58, 67
2, 156672, Note_off_c, 0, 58, 67
2, 156672, Note_on_c, 0, 39, 67
2, 156736, Note_off_c, 0, 39, 67
2, 156736, Note_on_c, 0, 46, 67
2, 156800, Note_off_c, 0, 46, 67
2, 156800, Note_on_c, 0, 51, 67
2, 156864, Note_off_c, 0, 51, 67
2, 156864, Note_on_c, 0, 53, 67
2, 156928, Note_off_c, 0, 53, 67
2, 156928, Note_on_c, 0, 55, 67
2, 156992, Note_off_c, 0, 55, 67
2, 156992, Note_on_c, 0, 51, 67
2, 157056, Note_off_c, 0, 51, 67
2, 157056, Note_on_c, 0, 58, 67
2, 157120, Note_off_c, 0, 58, 67
2, 157120, Note_on_c, 0, 63, 67
2, 157168, Control_c, 0, 93, 0
2, 157184, Note_off_c, 0, 63, 67
2, 157184, Note_on_c, 0, 44, 67
2, 157248, Note_off_c, 0, 44, 67
2, 157248, Note_on_c, 0, 51, 67
2, 157312, Note_off_c, 0, 51, 67
2, 157312, Note_on_c, 0, 56, 67
2, 157376, Note_off_c, 0, 56, 67
2, 157376, Note_on_c, 0, 58, 67
2, 157440, Note_off_c, 0, 58, 67
2, 157440, Note_on_c, 0, 60, 67
2, 157504, Note_off_c, 0, 60, 67
2, 157504, Note_on_c, 0, 56, 67
2, 157568, Note_off_c, 0, 56, 67
2, 157568, Note_on_c, 0, 63, 67
2, 157632, Note_off_c, 0, 63, 67
2, 157632, Note_on_c, 0, 68, 67
2, 157680, Control_c, 0, 93, 0
2, 157696, Note_off_c, 0, 68, 67
2, 157696, Note_on_c, 0, 46, 67
2, 157760, Note_off_c, 0, 46, 67
2, 157760, Note_on_c, 0, 53, 67
2, 157824, Note_off_c, 0, 53, 67
2, 157824, Note_on_c, 0, 58, 67
2, 157888, Note_off_c, 0, 58, 67
2, 157888, Note_on_c, 0, 60, 67
2, 157952, Note_off_c, 0, 60, 67
2, 157952, Note_on_c, 0, 62, 67
2, 158016, Note_off_c, 0, 62, 67
2, 158016, Note_on_c, 0, 58, 67
2, 158080, Note_off_c, 0, 58, 67
2, 158080, Note_on_c, 0, 65, 67
2, 158144, Note_off_c, 0, 65, 67
2, 158144, Note_on_c, 0, 70, 67
2, 158192, Control_c, 0, 93, 0
2, 158208, Note_off_c, 0, 70, 67
2, 158208, Note_on_c, 0, 41, 67
2, 158272, Note_off_c, 0, 41, 67
2, 158272, Note_on_c, 0, 44, 67
2, 158336, Note_off_c, 0, 44, 67
2, 158336, Control_c, 0, 64, 64
2, 158336, Note_on_c, 0, 50, 67
2, 158357, Note_off_c, 0, 50, 67
2, 158357, Note_on_c, 0, 53, 67
2, 158378, Note_off_c, 0, 53, 67
2, 158378, Note_on_c, 0, 58, 67
2, 158399, Note_off_c, 0, 58, 67
2, 158400, Control_c, 0, 93, 0
2, 158400, Note_on_c, 0, 62, 67
2, 158421, Note_off_c, 0, 62, 67
2, 158421, Note_on_c, 0, 65, 67
2, 158442, Note_off_c, 0, 65, 67
2, 158442, Note_on_c, 0, 70, 67
2, 158464, Control_c, 0, 93, 0
2, 158464, Control_c, 0, 64, 0
2, 158592, Note_off_c, 0, 70, 67
2, 158592, Note_on_c, 0, 51, 67
2, 158656, Note_off_c, 0, 51, 67
2, 158656, Note_on_c, 0, 46, 67
2, 158720, Note_off_c, 0, 46, 67
2, 158720, Note_on_c, 0, 39, 67
2, 158784, Note_off_c, 0, 39, 67
2, 158784, Note_on_c, 0, 46, 67
2, 158848, Note_off_c, 0, 46, 67
2, 158848, Note_on_c, 0, 51, 67
2, 158912, Note_off_c, 0, 51, 67
2, 158912, Note_on_c, 0, 53, 67
2, 158976, Note_off_c, 0, 53, 67
2, 158976, Note_on_c, 0, 55, 67
2, 159040, Note_off_c, 0, 55, 67
2, 159040, Note_on_c, 0, 51, 67
2, 159104, Note_off_c, 0, 51, 67
2, 159104, Note_on_c, 0, 58, 67
2, 159168, Note_off_c, 0, 58, 67
2, 159168, Note_on_c, 0, 63, 67
2, 159216, Control_c, 0, 93, 0
2, 159232, Note_off_c, 0, 63, 67
2, 159232, Note_on_c, 0, 44, 67
2, 159296, Note_off_c, 0, 44, 67
2, 159296, Note_on_c, 0, 51, 67
2, 159360, Note_off_c, 0, 51, 67
2, 159360, Note_on_c, 0, 56, 67
2, 159424, Note_off_c, 0, 56, 67
2, 159424, Note_on_c, 0, 58, 67
2, 159488, Note_off_c, 0, 58, 67
2, 159488, Note_on_c, 0, 60, 67
2, 159552, Note_off_c, 0, 60, 67
2, 159552, Note_on_c, 0, 56, 67
2, 159616, Note_off_c, 0, 56, 67
2, 159616, Note_on_c, 0, 63, 67
2, 159680, Note_off_c, 0, 63, 67
2, 159680, Note_on_c, 0, 68, 67
2, 159728, Control_c, 0, 93, 0
2, 159744, Note_off_c, 0, 68, 67
2, 159744, Note_on_c, 0, 46, 67
2, 159808, Note_off_c, 0, 46, 67
2, 159808, Note_on_c, 0, 53, 67
2, 159872, Note_off_c, 0, 53, 67
2, 159872, Note_on_c, 0, 58, 67
2, 159936, Note_off_c, 0, 58, 67
2, 159936, Note_on_c, 0, 60, 67
2, 160000, Note_off_c, 0, 60, 67
2, 160000, Note_on_c, 0, 62, 67
2, 160064, Note_off_c, 0, 62, 67
2, 160064, Note_on_c, 0, 58, 67
2, 160128, Note_off_c, 0, 58, 67
2, 160128, Note_on_c, 0, 65, 67
2, 160192, Note_off_c, 0, 65, 67
2, 160192, Note_on_c, 0, 70, 67
2, 160240, Control_c, 0, 93, 0
2, 160256, Note_off_c, 0, 70, 67
2, 160256, Note_on_c, 0, 39, 67
2, 160320, Note_off_c, 0, 39, 67
2, 160320, Note_on_c, 0, 46, 67
2, 160384, Note_off_c, 0, 46, 67
2, 160384, Note_on_c, 0, 51, 67
2, 160448, Note_off_c, 0, 51, 67
2, 160448, Control_c, 0, 64, 64
2, 160448, Note_on_c, 0, 55, 67
2, 160458, Note_off_c, 0, 55, 67
2, 160458, Note_on_c, 0, 58, 67
2, 160469, Note_off_c, 0, 58, 67
2, 160469, Note_on_c, 0, 63, 67
2, 160479, Note_off_c, 0, 63, 67
2, 160480, Control_c, 0, 93, 0
2, 160480, Note_on_c, 0, 67, 67
2, 160490, Note_off_c, 0, 67, 67
2, 160490, Note_on_c, 0, 70, 67
2, 160501, Note_off_c, 0, 70, 67
2, 160501, Note_on_c, 0, 75, 67
2, 160511, Note_off_c, 0, 75, 67
2, 160512, Control_c, 0, 93, 0
2, 160640, Control_c, 0, 93, 0
2, 160704, Control_c, 0, 93, 0
2, 160704, Control_c, 0, 64, 0
2, 160768, Control_c, 0, 93, 0
2, 160768, Note_on_c, 0, 51, 67
2, 160832, Note_off_c, 0, 51, 67
2, 160896, Note_off_c, 0, 51, 67
2, 160896, Note_on_c, 0, 63, 67
2, 160960, Note_off_c, 0, 63, 67
2, 161024, Note_off_c, 0, 63, 67
2, 161024, Note_on_c, 0, 50, 67
2, 161088, Note_off_c, 0, 50, 67
2, 161152, Note_off_c, 0, 50, 67
2, 161152, Note_on_c, 0, 62, 67
2, 161216, Note_off_c, 0, 62, 67
2, 161280, Note_off_c, 0, 62, 67
2, 161280, Note_on_c, 0, 48, 67
2, 161344, Note_off_c, 0, 48, 67
2, 161408, Note_off_c, 0, 48, 67
2, 161408, Note_on_c, 0, 60, 67
2, 161472, Note_off_c, 0, 60, 67
2, 161536, Note_off_c, 0, 60, 67
2, 161536, Note_on_c, 0, 46, 67
2, 161600, Note_off_c, 0, 46, 67
2, 161664, Note_off_c, 0, 46, 67
2, 161664, Note_on_c, 0, 58, 67
2, 161728, Note_off_c, 0, 58, 67
2, 161792, Note_off_c, 0, 58, 67
2, 161792, Note_on_c, 0, 51, 67
2, 161856, Note_off_c, 0, 51, 67
2, 161920, Note_off_c, 0, 51, 67
2, 161920, Note_on_c, 0, 63, 67
2, 161984, Note_off_c, 0, 63, 67
2, 162048, Note_off_c, 0, 63, 67
2, 162048, Note_on_c, 0, 46, 67
2, 162112, Note_off_c, 0, 46, 67
2, 162176, Note_off_c, 0, 46, 67
2, 162176, Note_on_c, 0, 58, 67
2, 162240, Note_off_c, 0, 58, 67
2, 162304, Note_off_c, 0, 58, 67
2, 162304, Note_on_c, 0, 48, 67
2, 162368, Note_off_c, 0, 48, 67
2, 162432, Note_off_c, 0, 48, 67
2, 162432, Note_on_c, 0, 60, 67
2, 162496, Note_off_c, 0, 60, 67
2, 162560, Note_off_c, 0, 60, 67
2, 162560, Note_on_c, 0, 46, 67
2, 162624, Note_off_c, 0, 46, 67
2, 162688, Note_off_c, 0, 46, 67
2, 162688, Note_on_c, 0, 58, 67
2, 162752, Note_off_c, 0, 58, 67
2, 162816, Note_off_c, 0, 58, 67
2, 162816, Note_on_c, 0, 50, 67
2, 162880, Note_off_c, 0, 50, 67
2, 162944, Note_off_c, 0, 50, 67
2, 162944, Note_on_c, 0, 62, 67
2, 163008, Note_off_c, 0, 62, 67
2, 163072, Note_off_c, 0, 62, 67
2, 163072, Note_on_c, 0, 46, 67
2, 163136, Note_off_c, 0, 46, 67
2, 163200, Note_off_c, 0, 46, 67
2, 163200, Note_on_c, 0, 58, 67
2, 163264, Note_off_c, 0, 58, 67
2, 163328, Note_off_c, 0, 58, 67
2, 163328, Note_on_c, 0, 48, 67
2, 163392, Note_off_c, 0, 48, 67
2, 163456, Note_off_c, 0, 48, 67
2, 163456, Note_on_c, 0, 60, 67
2, 163520, Note_off_c, 0, 60, 67
2, 163584, Note_off_c, 0, 60, 67
2, 163584, Note_on_c, 0, 49, 67
2, 163648, Note_off_c, 0, 49, 67
2, 163712, Note_off_c, 0, 49, 67
2, 163712, Note_on_c, 0, 61, 67
2, 163776, Note_off_c, 0, 61, 67
2, 163840, Note_off_c, 0, 61, 67
2, 163840, Note_on_c, 0, 50, 67
2, 163904, Note_off_c, 0, 50, 67
2, 163968, Note_off_c, 0, 50, 67
2, 163968, Note_on_c, 0, 62, 67
2, 164032, Note_off_c, 0, 62, 67
2, 164096, Note_off_c, 0, 62, 67
2, 164096, Note_on_c, 0, 46, 67
2, 164160, Note_off_c, 0, 46, 67
2, 164224, Note_off_c, 0, 46, 67
2, 164224, Note_on_c, 0, 58, 67
2, 164288, Note_off_c, 0, 58, 67
2, 164352, Note_off_c, 0, 58, 67
2, 164352, Note_on_c, 0, 51, 67
2, 164416, Note_off_c, 0, 51, 67
2, 164480, Note_off_c, 0, 51, 67
2, 164480, Note_on_c, 0, 63, 67
2, 164544, Note_off_c, 0, 63, 67
2, 164608, Note_off_c, 0, 63, 67
2, 164608, Note_on_c, 0, 46, 67
2, 164672, Note_off_c, 0, 46, 67
2, 164736, Note_off_c, 0, 46, 67
2, 164736, Note_on_c, 0, 58, 67
2, 164800, Note_off_c, 0, 58, 67
2, 164864, Note_off_c, 0, 58, 67
2, 164864, Note_on_c, 0, 51, 67
2, 164928, Note_off_c, 0, 51, 67
2, 164992, Note_off_c, 0, 51, 67
2, 164992, Note_on_c, 0, 63, 67
2, 165056, Note_off_c, 0, 63, 67
2, 165120, Note_off_c, 0, 63, 67
2, 165120, Note_on_c, 0, 50, 67
2, 165184, Note_off_c, 0, 50, 67
2, 165248, Note_off_c, 0, 50, 67
2, 165248, Note_on_c, 0, 62, 67
2, 165312, Note_off_c, 0, 62, 67
2, 165376, Note_off_c, 0, 62, 67
2, 165376, Note_on_c, 0, 48, 67
2, 165440, Note_off_c, 0, 48, 67
2, 165504, Note_off_c, 0, 48, 67
2, 165504, Note_on_c, 0, 60, 67
2, 165568, Note_off_c, 0, 60, 67
2, 165632, Note_off_c, 0, 60, 67
2, 165632, Note_on_c, 0, 46, 67
2, 165696, Note_off_c, 0, 46, 67
2, 165760, Note_off_c, 0, 46, 67
2, 165760, Note_on_c, 0, 58, 67
2, 165824, Note_off_c, 0, 58, 67
2, 165888, Note_off_c, 0, 58, 67
2, 165888, Note_on_c, 0, 51, 67
2, 165952, Note_off_c, 0, 51, 67
2, 166016, Note_off_c, 0, 51, 67
2, 166016, Note_on_c, 0, 63, 67
2, 166080, Note_off_c, 0, 63, 67
2, 166144, Note_off_c, 0, 63, 67
2, 166144, Note_on_c, 0, 46, 67
2, 166208, Note_off_c, 0, 46, 67
2, 166272, Note_off_c, 0, 46, 67
2, 166272, Note_on_c, 0, 58, 67
2, 166336, Note_off_c, 0, 58, 67
2, 166400, Note_off_c, 0, 58, 67
2, 166400, Note_on_c, 0, 48, 67
2, 166464, Note_off_c, 0, 48, 67
2, 166528, Note_off_c, 0, 48, 67
2, 166528, Note_on_c, 0, 60, 67
2, 166592, Note_off_c, 0, 60, 67
2, 166656, Note_off_c, 0, 60, 67
2, 166656, Note_on_c, 0, 46, 67
2, 166720, Note_off_c, 0, 46, 67
2, 166784, Note_off_c, 0, 46, 67
2, 166784, Note_on_c, 0, 58, 67
2, 166848, Note_off_c, 0, 58, 67
2, 166912, Note_off_c, 0, 58, 67
2, 166912, Note_on_c, 0, 50, 67
2, 166976, Note_off_c, 0, 50, 67
2, 167040, Note_off_c, 0, 50, 67
2, 167040, Note_on_c, 0, 62, 67
2, 167104, Note_off_c, 0, 62, 67
2, 167168, Note_off_c, 0, 62, 67
2, 167168, Note_on_c, 0, 48, 67
2, 167232, Note_off_c, 0, 48, 67
2, 167296, Note_off_c, 0, 48, 67
2, 167296, Note_on_c, 0, 60, 67
2, 167360, Note_off_c, 0, 60, 67
2, 167424, Note_off_c, 0, 60, 67
2, 167424, Note_on_c, 0, 46, 67
2, 167488, Note_off_c, 0, 46, 67
2, 167552, Note_off_c, 0, 46, 67
2, 167552, Note_on_c, 0, 58, 67
2, 167616, Note_off_c, 0, 58, 67
2, 167680, Note_off_c, 0, 58, 67
2, 167680, Note_on_c, 0, 48, 67
2, 167744, Note_off_c, 0, 48, 67
2, 167808, Note_off_c, 0, 48, 67
2, 167808, Note_on_c, 0, 60, 67
2, 167872, Note_off_c, 0, 60, 67
2, 167936, Note_off_c, 0, 60, 67
2, 167936, Note_on_c, 0, 50, 67
2, 168000, Note_off_c, 0, 50, 67
2, 168064, Note_off_c, 0, 50, 67
2, 168064, Note_on_c, 0, 62, 67
2, 168128, Note_off_c, 0, 62, 67
2, 168192, Note_off_c, 0, 62, 67
2, 168192, Note_on_c, 0, 46, 67
2, 168256, Note_off_c, 0, 46, 67
2, 168320, Note_off_c, 0, 46, 67
2, 168320, Note_on_c, 0, 58, 67
2, 168384, Note_off_c, 0, 58, 67
2, 168448, Note_off_c, 0, 58, 67
2, 168448, Note_on_c, 0, 51, 67
2, 168512, Note_off_c, 0, 51, 67
2, 168576, Note_off_c, 0, 51, 67
2, 168576, Note_on_c, 0, 63, 67
2, 168640, Note_off_c, 0, 63, 67
2, 168704, Note_off_c, 0, 63, 67
2, 168704, Note_on_c, 0, 46, 67
2, 168768, Note_off_c, 0, 46, 67
2, 168832, Note_off_c, 0, 46, 67
2, 168832, Note_on_c, 0, 58, 67
2, 168896, Note_off_c, 0, 58, 67
2, 168960, Note_off_c, 0, 58, 67
2, 168960, Note_on_c, 0, 39, 67
2, 169024, Note_off_c, 0, 39, 67
2, 169024, Note_on_c, 0, 46, 67
2, 169088, Note_off_c, 0, 46, 67
2, 169088, Note_on_c, 0, 51, 67
2, 169152, Note_off_c, 0, 51, 67
2, 169152, Note_on_c, 0, 53, 67
2, 169216, Note_off_c, 0, 53, 67
2, 169216, Note_on_c, 0, 55, 67
2, 169280, Note_off_c, 0, 55, 67
2, 169280, Note_on_c, 0, 51, 67
2, 169344, Note_off_c, 0, 51, 67
2, 169344, Note_on_c, 0, 58, 67
2, 169408, Note_off_c, 0, 58, 67
2, 169408, Note_on_c, 0, 63, 67
2, 169456, Control_c, 0, 93, 0
2, 169472, Note_off_c, 0, 63, 67
2, 169472, Note_on_c, 0, 44, 67
2, 169536, Note_off_c, 0, 44, 67
2, 169536, Note_on_c, 0, 51, 67
2, 169600, Note_off_c, 0, 51, 67
2, 169600, Note_on_c, 0, 56, 67
2, 169664, Note_off_c, 0, 56, 67
2, 169664, Note_on_c, 0, 58, 67
2, 169728, Note_off_c, 0, 58, 67
2, 169728, Note_on_c, 0, 60, 67
2, 169792, Note_off_c, 0, 60, 67
2, 169792, Note_on_c, 0, 56, 67
2, 169856, Note_off_c, 0, 56, 67
2, 169856, Note_on_c, 0, 63, 67
2, 169920, Note_off_c, 0, 63, 67
2, 169920, Note_on_c, 0, 68, 67
2, 169968, Control_c, 0, 93, 0
2, 169984, Note_off_c, 0, 68, 67
2, 169984, Note_on_c, 0, 46, 67
2, 170048, Note_off_c, 0, 46, 67
2, 170048, Note_on_c, 0, 53, 67
2, 170112, Note_off_c, 0, 53, 67
2, 170112, Note_on_c, 0, 58, 67
2, 170176, Note_off_c, 0, 58, 67
2, 170176, Note_on_c, 0, 60, 67
2, 170240, Note_off_c, 0, 60, 67
2, 170240, Note_on_c, 0, 62, 67
2, 170304, Note_off_c, 0, 62, 67
2, 170304, Note_on_c, 0, 58, 67
2, 170368, Note_off_c, 0, 58, 67
2, 170368, Note_on_c, 0, 65, 67
2, 170432, Note_off_c, 0, 65, 67
2, 170432, Note_on_c, 0, 70, 67
2, 170480, Control_c, 0, 93, 0
2, 170496, Note_off_c, 0, 70, 67
2, 170496, Note_on_c, 0, 41, 67
2, 170560, Note_off_c, 0, 41, 67
2, 170560, Note_on_c, 0, 44, 67
2, 170624, Note_off_c, 0, 44, 67
2, 170624, Control_c, 0, 64, 64
2, 170624, Note_on_c, 0, 50, 67
2, 170645, Note_off_c, 0, 50, 67
2, 170645, Note_on_c, 0, 53, 67
2, 170666, Note_off_c, 0, 53, 67
2, 170666, Note_on_c, 0, 58, 67
2, 170687, Note_off_c, 0, 58, 67
2, 170688, Control_c, 0, 93, 0
2, 170688, Note_on_c, 0, 62, 67
2, 170709, Note_off_c, 0, 62, 67
2, 170709, Note_on_c, 0, 65, 67
2, 170730, Note_off_c, 0, 65, 67
2, 170730, Note_on_c, 0, 70, 67
2, 170752, Control_c, 0, 93, 0
2, 170752, Control_c, 0, 64, 0
2, 170880, Note_off_c, 0, 70, 67
2, 170880, Note_on_c, 0, 51, 67
2, 170944, Note_off_c, 0, 51, 67
2, 170944, Note_on_c, 0, 46, 67
2, 171008, Note_off_c, 0, 46, 67
2, 171008, Note_on_c, 0, 39, 67
2, 171072, Note_off_c, 0, 39, 67
2, 171072, Note_on_c, 0, 46, 67
2, 171136, Note_off_c, 0, 46, 67
2, 171136, Note_on_c, 0, 51, 67
2, 171200, Note_off_c, 0, 51, 67
2, 171200, Note_on_c, 0, 53, 67
2, 171264, Note_off_c, 0, 53, 67
2, 171264, Note_on_c, 0, 55, 67
2, 171328, Note_off_c, 0, 55, 67
2, 171328, Note_on_c, 0, 51, 67
2, 171392, Note_off_c, 0, 51, 67
2, 171392, Note_on_c, 0, 58, 67
2, 171456, Note_off_c, 0, 58, 67
2, 171456, Note_on_c, 0, 63, 67
2, 171504, Control_c, 0, 93, 0
2, 171520, Note_off_c, 0, 63, 67
2, 171520, Note_on_c, 0, 44, 67
2, 171584, Note_off_c, 0, 44, 67
2, 171584, Note_on_c, 0, 51, 67
2, 171648, Note_off_c, 0, 51, 67
2, 171648, Note_on_c, 0, 56, 67
2, 171712, Note_off_c, 0, 56, 67
2, 171712, Note_on_c, 0, 58, 67
2, 171776, Note_off_c, 0, 58, 67
2, 171776, Note_on_c, 0, 60, 67
2, 171840, Note_off_c, 0, 60, 67
2, 171840, Note_on_c, 0, 56, 67
2, 171904, Note_off_c, 0, 56, 67
2, 171904, Note_on_c, 0, 63, 67
2, 171968, Note_off_c, 0, 63, 67
2, 171968, Note_on_c, 0, 68, 67
2, 172016, Control_c, 0, 93, 0
2, 172032, Note_off_c, 0, 68, 67
2, 172032, Note_on_c, 0, 46, 67
2, 172096, Note_off_c, 0, 46, 67
2, 172096, Note_on_c, 0, 53, 67
2, 172160, Note_off_c, 0, 53, 67
2, 172160, Note_on_c, 0, 58, 67
2, 172224, Note_off_c, 0, 58, 67
2, 172224, Note_on_c, 0, 60, 67
2, 172288, Note_off_c, 0, 60, 67
2, 172288, Note_on_c, 0, 62, 67
2, 172352, Note_off_c, 0, 62, 67
2, 172352, Note_on_c, 0, 58, 67
2, 172416, Note_off_c, 0, 58, 67
2, 172416, Note_on_c, 0, 65, 67
2, 172480, Note_off_c, 0, 65, 67
2, 172480, Note_on_c, 0, 70, 67
2, 172528, Control_c, 0, 93, 0
2, 172544, Note_off_c, 0, 70, 67
2, 172544, Note_on_c, 0, 39, 67
2, 172608, Note_off_c, 0, 39, 67
2, 172608, Note_on_c, 0, 46, 67
2, 172672, Note_off_c, 0, 46, 67
2, 172672, Note_on_c, 0, 51, 67
2, 172736, Note_off_c, 0, 51, 67
2, 172736, Control_c, 0, 64, 64
2, 172736, Note_on_c, 0, 55, 67
2, 172746, Note_off_c, 0, 55, 67
2, 172746, Note_on_c, 0, 58, 67
2, 172757, Note_off_c, 0, 58, 67
2, 172757, Note_on_c, 0, 63, 67
2, 172767, Note_off_c, 0, 63, 67
2, 172768, Control_c, 0, 93, 0
2, 172768, Note_on_c, 0, 67, 67
2, 172778, Note_off_c, 0, 67, 67
2, 172778, Note_on_c, 0, 70, 67
2, 172789, Note_off_c, 0, 70, 67
2, 172789, Note_on_c, 0, 75, 67
2, 172799, Note_off_c, 0, 75, 67
2, 172800, Control_c, 0, 93, 0
2, 172928, Control_c, 0, 93, 0
2, 172992, Control_c, 0, 93, 0
2, 172992, Control_c, 0, 64, 0
2, 173056, Control_c, 0, 93, 0
2, 173056, Note_on_c, 0, 51, 67
2, 173120, Note_off_c, 0, 51, 67
2, 173184, Note_off_c, 0, 51, 67
2, 173184, Note_on_c, 0, 63, 67
2, 173248, Note_off_c, 0, 63, 67
2, 173312, Note_off_c, 0, 63, 67
2, 173312, Note_on_c, 0, 50, 67
2, 173376, Note_off_c, 0, 50, 67
2, 173440, Note_off_c, 0, 50, 67
2, 173440, Note_on_c, 0, 62, 67
2, 173504, Note_off_c, 0, 62, 67
2, 173568, Note_off_c, 0, 62, 67
2, 173568, Note_on_c, 0, 48, 67
2, 173632, Note_off_c, 0, 48, 67
2, 173696, Note_off_c, 0, 48, 67
2, 173696, Note_on_c, 0, 60, 67
2, 173760, Note_off_c, 0, 60, 67
2, 173824, Note_off_c, 0, 60, 67
2, 173824, Note_on_c, 0, 46, 67
2, 173888, Note_off_c, 0, 46, 67
2, 173952, Note_off_c, 0, 46, 67
2, 173952, Note_on_c, 0, 58, 67
2, 174016, Note_off_c, 0, 58, 67
2, 174080, Note_off_c, 0, 58, 67
2, 174080, Note_on_c, 0, 51, 67
2, 174144, Note_off_c, 0, 51, 67
2, 174208, Note_off_c, 0, 51, 67
2, 174208, Note_on_c, 0, 63, 67
2, 174272, Note_off_c, 0, 63, 67
2, 174336, Note_off_c, 0, 63, 67
2, 174336, Note_on_c, 0, 46, 67
2, 174400, Note_off_c, 0, 46, 67
2, 174464, Note_off_c, 0, 46, 67
2, 174464, Note_on_c, 0, 58, 67
2, 174528, Note_off_c, 0, 58, 67
2, 174592, Note_off_c, 0, 58, 67
2, 174592, Note_on_c, 0, 48, 67
2, 174656, Note_off_c, 0, 48, 67
2, 174720, Note_off_c, 0, 48, 67
2, 174720, Note_on_c, 0, 60, 67
2, 174784, Note_off_c, 0, 60, 67
2, 174848, Note_off_c, 0, 60, 67
2, 174848, Note_on_c, 0, 46, 67
2, 174912, Note_off_c, 0, 46, 67
2, 174976, Note_off_c, 0, 46, 67
2, 174976, Note_on_c, 0, 58, 67
2, 175040, Note_off_c, 0, 58, 67
2, 175104, Note_off_c, 0, 58, 67
2, 175104, Note_on_c, 0, 50, 67
2, 175168, Note_off_c, 0, 50, 67
2, 175232, Note_off_c, 0, 50, 67
2, 175232, Note_on_c, 0, 62, 67
2, 175296, Note_off_c, 0, 62, 67
2, 175360, Note_off_c, 0, 62, 67
2, 175360, Note_on_c, 0, 46, 67
2, 175424, Note_off_c, 0, 46, 67
2, 175488, Note_off_c, 0, 46, 67
2, 175488, Note_on_c, 0, 58, 67
2, 175552, Note_off_c, 0, 58, 67
2, 175616, Note_off_c, 0, 58, 67
2, 175616, Note_on_c, 0, 48, 67
2, 175680, Note_off_c, 0, 48, 67
2, 175744, Note_off_c, 0, 48, 67
2, 175744, Note_on_c, 0, 60, 67
2, 175808, Note_off_c, 0, 60, 67
2, 175872, Note_off_c, 0, 60, 67
2, 175872, Note_on_c, 0, 49, 67
2, 175936, Note_off_c, 0, 49, 67
2, 176000, Note_off_c, 0, 49, 67
2, 176000, Note_on_c, 0, 61, 67
2, 176064, Note_off_c, 0, 61, 67
2, 176128, Note_off_c, 0, 61, 67
2, 176128, Note_on_c, 0, 50, 67
2, 176192, Note_off_c, 0, 50, 67
2, 176256, Note_off_c, 0, 50, 67
2, 176256, Note_on_c, 0, 62, 67
2, 176320, Note_off_c, 0, 62, 67
2, 176384, Note_off_c, 0, 62, 67
2, 176384, Note_on_c, 0, 46, 67
2, 176448, Note_off_c, 0, 46, 67
2, 176512, Note_off_c, 0, 46, 67
2, 176512, Note_on_c, 0, 58, 67
2, 176576, Note_off_c, 0, 58, 67
2, 176640, Note_off_c, 0, 58, 67
2, 176640, Note_on_c, 0, 51, 67
2, 176704, Note_off_c, 0, 51, 67
2, 176768, Note_off_c, 0, 51, 67
2, 176768, Note_on_c, 0, 63, 67
2, 176832, Note_off_c, 0, 63, 67
2, 176896, Note_off_c, 0, 63, 67
2, 176896, Note_on_c, 0, 46, 67
2, 176960, Note_off_c, 0, 46, 67
2, 177024, Note_off_c, 0, 46, 67
2, 177024, Note_on_c, 0, 58, 67
2, 177088, Note_off_c, 0, 58, 67
2, 177152, Note_off_c, 0, 58, 67
2, 177152, Note_on_c, 0, 51, 67
2, 177216, Note_off_c, 0, 51, 67
2, 177280, Note_off_c, 0, 51, 67
2, 177280, Note_on_c, 0, 63, 67
2, 177344, Note_off_c, 0, 63, 67
2, 177408, Note_off_c, 0, 63, 67
2, 177408, Note_on_c, 0, 50, 67
2, 177472, Note_off_c, 0, 50, 67
2, 177536, Note_off_c, 0, 50, 67
2, 177536, Note_on_c, 0, 62, 67
2, 177600, Note_off_c, 0, 62, 67
2, 177664, Note_off_c, 0, 62, 67
2, 177664, Note_on_c, 0, 48, 67
2, 177728, Note_off_c, 0, 48, 67
2, 177792, Note_off_c, 0, 48, 67
2, 177792, Note_on_c, 0, 60, 67
2, 177856, Note_off_c, 0, 60, 67
2, 177920, Note_off_c, 0, 60, 67
2, 177920, Note_on_c, 0, 46, 67
2, 177984, Note_off_c, 0, 46, 67
2, 178048, Note_off_c, 0, 46, 67
2, 178048, Note_on_c, 0, 58, 67
2, 178112, Note_off_c, 0, 58, 67
2, 178176, Note_off_c, 0, 58, 67
2, 178176, Note_on_c, 0, 51, 67
2, 178240, Note_off_c, 0, 51, 67
2, 178304, Note_off_c, 0, 51, 67
2, 178304, Note_on_c, 0, 63, 67
2, 178368, Note_off_c, 0, 63, 67
2, 178432, Note_off_c, 0, 63, 67
2, 178432, Note_on_c, 0, 46, 67
2, 178496, Note_off_c, 0, 46, 67
2, 178560, Note_off_c, 0, 46, 67
2, 178560, Note_on_c, 0, 58, 67
2, 178624, Note_off_c, 0, 58, 67
2, 178688, Note_off_c, 0, 58, 67
2, 178688, Note_on_c, 0, 48, 67
2, 178752, Note_off_c, 0, 48, 67
2, 178816, Note_off_c, 0, 48, 67
2, 178816, Note_on_c, 0, 60, 67
2, 178880, Note_off_c, 0, 60, 67
2, 178944, Note_off_c, 0, 60, 67
2, 178944, Note_on_c, 0, 46, 67
2, 179008, Note_off_c, 0, 46, 67
2, 179072, Note_off_c, 0, 46, 67
2, 179072, Note_on_c, 0, 58, 67
2, 179136, Note_off_c, 0, 58, 67
2, 179200, Note_off_c, 0, 58, 67
2, 179200, Note_on_c, 0, 50, 67
2, 179264, Note_off_c, 0, 50, 67
2, 179328, Note_off_c, 0, 50, 67
2, 179328, Note_on_c, 0, 62, 67
2, 179392, Note_off_c, 0, 62, 67
2, 179456, Note_off_c, 0, 62, 67
2, 179456, Note_on_c, 0, 48, 67
2, 179520, Note_off_c, 0, 48, 67
2, 179584, Note_off_c, 0, 48, 67
2, 179584, Note_on_c, 0, 60, 67
2, 179648, Note_off_c, 0, 60, 67
2, 179712, Note_off_c, 0, 60, 67
2, 179712, Note_on_c, 0, 46, 67
2, 179776, Note_off_c, 0, 46, 67
2, 179840, Note_off_c, 0, 46, 67
2, 179840, Note_on_c, 0, 58, 67
2, 179904, Note_off_c, 0, 58, 67
2, 179968, Note_off_c, 0, 58, 67
2, 179968, Note_on_c, 0, 48, 67
2, 180032, Note_off_c, 0, 48, 67
2, 180096, Note_off_c, 0, 48, 67
2, 180096, Note_on_c, 0, 60, 67
2, 180160, Note_off_c, 0, 60, 67
2, 180224, Note_off_c, 0, 60, 67
2, 180224, Note_on_c, 0, 50, 67
2, 180288, Note_off_c, 0, 50, 67
2, 180352, Note_off_c, 0, 50, 67
2, 180352, Note_on_c, 0, 62, 67
2, 180416, Note_off_c, 0, 62, 67
2, 180480, Note_off_c, 0, 62, 67
2, 180480, Note_on_c, 0, 46, 67
2, 180544, Note_off_c, 0, 46, 67
2, 180608, Note_off_c, 0, 46, 67
2, 180608, Note_on_c, 0, 58, 67
2, 180672, Note_off_c, 0, 58, 67
2, 180736, Note_off_c, 0, 58, 67
2, 180736, Note_on_c, 0, 51, 67
2, 180800, Note_off_c, 0, 51, 67
2, 180864, Note_off_c, 0, 51, 67
2, 180864, Note_on_c, 0, 63, 67
2, 180928, Note_off_c, 0, 63, 67
2, 180992, Note_off_c, 0, 63, 67
2, 180992, Note_on_c, 0, 46, 67
2, 181056, Note_off_c, 0, 46, 67
2, 181120, Note_off_c, 0, 46, 67
2, 181120, Note_on_c, 0, 58, 67
2, 181184, Note_off_c, 0, 58, 67
2, 181248, Note_off_c, 0, 58, 67
2, 181248, Note_on_c, 0, 39, 67
2, 181312, Note_off_c, 0, 39, 67
2, 181312, Note_on_c, 0, 46, 67
2, 181376, Note_off_c, 0, 46, 67
2, 181376, Note_on_c, 0, 51, 67
2, 181440, Note_off_c, 0, 51, 67
2, 181440, Note_on_c, 0, 53, 67
2, 181504, Note_off_c, 0, 53, 67
2, 181504, Note_on_c, 0, 55, 67
2, 181568, Note_off_c, 0, 55, 67
2, 181568, Note_on_c, 0, 51, 67
2, 181632, Note_off_c, 0, 51, 67
2, 181632, Note_on_c, 0, 58, 67
2, 181696, Note_off_c, 0, 58, 67
2, 181696, Note_on_c, 0, 63, 67
2, 181744, Control_c, 0, 93, 0
2, 181760, Note_off_c, 0, 63, 67
2, 181760, Note_on_c, 0, 44, 67
2, 181824, Note_off_c, 0, 44, 67
2, 181824, Note_on_c, 0, 51, 67
2, 181888, Note_off_c, 0, 51, 67
2, 181888, Note_on_c, 0, 56, 67
2, 181952, Note_off_c, 0, 56, 67
2, 181952, Note_on_c, 0, 58, 67
2, 182016, Note_off_c, 0, 58, 67
2, 182016, Note_on_c, 0, 60, 67
2, 182080, Note_off_c, 0, 60, 67
2, 182080, Note_on_c, 0, 56, 67
2, 182144, Note_off_c, 0, 56, 67
2, 182144, Note_on_c, 0, 63, 67
2, 182208, Note_off_c, 0, 63, 67
2, 182208, Note_on_c, 0, 68, 67
2, 182256, Control_c, 0, 93, 0
2, 182272, Note_off_c, 0, 68, 67
2, 182272, Note_on_c, 0, 46, 67
2, 182336, Note_off_c, 0, 46, 67
2, 182336, Note_on_c, 0, 53, 67
2, 182400, Note_off_c, 0, 53, 67
2, 182400, Note_on_c, 0, 58, 67
2, 182464, Note_off_c, 0, 58, 67
2, 182464, Note_on_c, 0, 60, 67
2, 182528, Note_off_c, 0, 60, 67
2, 182528, Note_on_c, 0, 62, 67
2, 182592, Note_off_c, 0, 62, 67
2, 182592, Note_on_c, 0, 58, 67
2, 182656, Note_off_c, 0, 58, 67
2, 182656, Note_on_c, 0, 65, 67
2, 182720, Note_off_c, 0, 65, 67
2, 182720, Note_on_c, 0, 70, 67
2, 182768, Control_c, 0, 93, 0
2, 182784, Note_off_c, 0, 70, 67
2, 182784, Note_on_c, 0, 41, 67
2, 182848, Note_off_c, 0, 41, 67
2, 182848, Note_on_c, 0, 44, 67
2, 182912, Note_off_c, 0, 44, 67
2, 182912, Control_c, 0, 64, 64
2, 182912, Note_on_c, 0, 50, 67
2, 182933, Note_off_c, 0, 50, 67
2, 182933, Note_on_c, 0, 53, 67
2, 182954, Note_off_c, 0, 53, 67
2, 182954, Note_on_c, 0, 58, 67
2, 182975, Note_off_c, 0, 58, 67
2, 182976, Control_c, 0, 93, 0
2, 182976, Note_on_c, 0, 62, 67
2, 182997, Note_off_c, 0, 62, 67
2, 182997, Note_on_c, 0, 65, 67
2, 183018, Note_off_c, 0, 65, 67
2, 183018, Note_on_c, 0, 70, 67
2, 183040, Control_c, 0, 93, 0
2, 183040, Control_c, 0, 64, 0
2, 183168, Note_off_c, 0, 70, 67
2, 183168, Note_on_c, 0, 51, 67
2, 183232, Note_off_c, 0, 51, 67
2, 183232, Note_on_c, 0, 46, 67
2, 183296, Note_off_c, 0, 46, 67
2, 183296, Note_on_c, 0, 39, 67
2, 183360, Note_off_c, 0, 39, 67
2, 183360, Note_on_c, 0, 46, 67
2, 183424, Note_off_c, 0, 46, 67
2, 183424, Note_on_c, 0, 51, 67
2, 183488, Note_off_c, 0, 51, 67
2, 183488, Note_on_c, 0, 53, 67
2, 183552, Note_off_c, 0, 53, 67
2, 183552, Note_on_c, 0, 55, 67
2, 183616, Note_off_c, 0, 55, 67
2, 183616, Note_on_c, 0, 51, 67
2, 183680, Note_off_c, 0, 51, 67
2, 183680, Note_on_c, 0, 58, 67
2, 183744, Note_off_c, 0, 58, 67
2, 183744, Note_on_c, 0, 63, 67
2, 183792, Control_c, 0, 93, 0
2, 183808, Note_off_c, 0, 63, 67
2, 183808, Note_on_c, 0, 44, 67
2, 183872, Note_off_c, 0, 44, 67
2, 183872, Note_on_c, 0, 51, 67
2, 183936, Note_off_c, 0, 51, 67
2, 183936, Note_on_c, 0, 56, 67
2, 184000, Note_off_c, 0, 56, 67
2, 184000, Note_on_c, 0, 58, 67
2, 184064, Note_off_c, 0, 58, 67
2, 184064, Note_on_c, 0, 60, 67
2, 184128, Note_off_c, 0, 60, 67
2, 184128, Note_on_c, 0, 56, 67
2, 184192, Note_off_c, 0, 56, 67
2, 184192, Note_on_c, 0, 63, 67
2, 184256, Note_off_c, 0, 63, 67
2, 184256, Note_on_c, 0, 68, 67
2, 184304, Control_c, 0, 93, 0
2, 184320, Note_off_c, 0, 68, 67
2, 184320, Note_on_c, 0, 46, 67
2, 184384, Note_off_c, 0, 46, 67
2, 184384, Note_on_c, 0, 53, 67
2, 184448, Note_off_c, 0, 53, 67
2, 184448, Note_on_c, 0, 58, 67
2, 184512, Note_off_c, 0, 58, 67
2, 184512, Note_on_c, 0, 60, 67
2, 184576, Note_off_c, 0, 60, 67
2, 184576, Note_on_c, 0, 62, 67
2, 184640, Note_off_c, 0, 62, 67
2, 184640, Note_on_c, 0, 58, 67
2, 184704, Note_off_c, 0, 58, 67
2, 184704, Note_on_c, 0, 65, 67
2, 184768, Note_off_c, 0, 65, 67
2, 184768, Note_on_c, 0, 70, 67
2, 184816, Control_c, 0, 93, 0
2, 184832, Note_off_c, 0, 70, 67
2, 184832, Note_on_c, 0, 39, 67
2, 184896, Note_off_c, 0, 39, 67
2, 184896, Note_on_c, 0, 46, 67
2, 184960, Note_off_c, 0, 46, 67
2, 184960, Note_on_c, 0, 51, 67
2, 185024, Note_off_c, 0, 51, 67
2, 185024, Control_c, 0, 64, 64
2, 185024, Note_on_c, 0, 55, 67
2, 185034, Note_off_c, 0, 55, 67
2, 185034, Note_on_c, 0, 58, 67
2, 185045, Note_off_c, 0, 58, 67
2, 185045, Note_on_c, 0, 63, 67
2, 185055, Note_off_c, 0, 63, 67
2, 185056, Control_c, 0, 93, 0
2, 185056, Note_on_c, 0, 67, 67
2, 185066, Note_off_c, 0, 67, 67
2, 185066, Note_on_c, 0, 70, 67
2, 185077, Note_off_c, 0, 70, 67
2, 185077, Note_on_c, 0, 75, 67
2, 185087, Note_off_c, 0, 75, 67
2, 185088, Control_c, 0, 93, 0
2, 185216, Control_c, 0, 93, 0
2, 185280, Control_c, 0, 93, 0
2, 185280, Control_c, 0, 64, 0
2, 185344, Control_c, 0, 93, 0
2, 185344, Note_on_c, 0, 51, 67
2, 185408, Note_off_c, 0, 51, 67
2, 185472, Note_off_c, 0, 51, 67
2, 185472, Note_on_c, 0, 63, 67
2, 185536, Note_off_c, 0, 63, 67
2, 185600, Note_off_c, 0, 63, 67
2, 185600, Note_on_c, 0, 50, 67
2, 185664, Note_off_c, 0, 50, 67
2, 185728, Note_off_c, 0, 50, 67
2, 185728, Note_on_c, 0, 62, 67
2, 185792, Note_off_c, 0, 62, 67
2, 185856, Note_off_c, 0, 62, 67
2, 185856, Note_on_c, 0, 48, 67
2, 185920, Note_off_c, 0, 48, 67
2, 185984, Note_off_c, 0, 48, 67
2, 185984, Note_on_c, 0, 60, 67
2, 186048, Note_off_c, 0, 60, 67
2, 186112, Note_off_c, 0, 60, 67
2, 186112, Note_on_c, 0, 46, 67
2, 186176, Note_off_c, 0, 46, 67
2, 186240, Note_off_c, 0, 46, 67
2, 186240, Note_on_c, 0, 58, 67
2, 186304, Note_off_c, 0, 58, 67
2, 186368, Note_off_c, 0, 58, 67
2, 186368, Note_on_c, 0, 51, 67
2, 186432, Note_off_c, 0, 51, 67
2, 186496, Note_off_c, 0, 51, 67
2, 186496, Note_on_c, 0, 63, 67
2, 186560, Note_off_c, 0, 63, 67
2, 186624, Note_off_c, 0, 63, 67
2, 186624, Note_on_c, 0, 46, 67
2, 186688, Note_off_c, 0, 46, 67
2, 186752, Note_off_c, 0, 46, 67
2, 186752, Note_on_c, 0, 58, 67
2, 186816, Note_off_c, 0, 58, 67
2, 186880, Note_off_c, 0, 58, 67
2, 186880, Note_on_c, 0, 48, 67
2, 186944, Note_off_c, 0, 48, 67
2, 187008, Note_off_c, 0, 48, 67
2, 187008, Note_on_c, 0, 60, 67
2, 187072, Note_off_c, 0, 60, 67
2, 187136, Note_off_c, 0, 60, 67
2, 187136, Note_on_c, 0, 46, 67
2, 187200, Note_off_c, 0, 46, 67
2, 187264, Note_off_c, 0, 46, 67
2, 187264, Note_on_c, 0, 58, 67
2, 187328, Note_off_c, 0, 58, 67
2, 187392, Note_off_c, 0, 58, 67
2, 187392, Note_on_c, 0, 50, 67
2, 187456, Note_off_c, 0, 50, 67
2, 187520, Note_off_c, 0, 50, 67
2, 187520, Note_on_c, 0, 62, 67
2, 187584, Note_off_c, 0, 62, 67
2, 187648, Note_off_c, 0, 62, 67
2, 187648, Note_on_c, 0, 46, 67
2, 187712, Note_off_c, 0, 46, 67
2, 187776, Note_off_c, 0, 46, 67
2, 187776, Note_on_c, 0, 58, 67
2, 187840, Note_off_c, 0, 58, 67
2, 187904, Note_off_c, 0, 58, 67
2, 187904, Note_on_c, 0, 48, 67
2, 187968, Note_off_c, 0, 48, 67
2, 188032, Note_off_c, 0, 48, 67
2, 188032, Note_on_c, 0, 60, 67
2, 188096, Note_off_c, 0, 60, 67
2, 188160, Note_off_c, 0, 60, 67
2, 188160, Note_on_c, 0, 49, 67
2, 188224, Note_off_c, 0, 49, 67
2, 188288, Note_off_c, 0, 49, 67
2, 188288, Note_on_c, 0, 61, 67
2, 188352, Note_off_c, 0, 61, 67
2, 188416, Note_off_c, 0, 61, 67
2, 188416, Note_on_c, 0, 50, 67
2, 188480, Note_off_c, 0, 50, 67
2, 188544, Note_off_c, 0, 50, 67
2, 188544, Note_on_c, 0, 62, 67
2, 188608, Note_off_c, 0, 62, 67
2, 188672, Note_off_c, 0, 62, 67
2, 188672, Note_on_c, 0, 46, 67
2, 188736, Note_off_c, 0, 46, 67
2, 188800, Note_off_c, 0, 46, 67
2, 188800, Note_on_c, 0, 58, 67
2, 188864, Note_off_c, 0, 58, 67
2, 188928, Note_off_c, 0, 58, 67
2, 188928, Note_on_c, 0, 51, 67
2, 188992, Note_off_c, 0, 51, 67
2, 189056, Note_off_c, 0, 51, 67
2, 189056, Note_on_c, 0, 63, 67
2, 189120, Note_off_c, 0, 63, 67
2, 189184, Note_off_c, 0, 63, 67
2, 189184, Note_on_c, 0, 46, 67
2, 189248, Note_off_c, 0, 46, 67
2, 189312, Note_off_c, 0, 46, 67
2, 189312, Note_on_c, 0, 58, 67
2, 189376, Note_off_c, 0, 58, 67
2, 189440, Note_off_c, 0, 58, 67
2, 189440, Note_on_c, 0, 51, 67
2, 189504, Note_off_c, 0, 51, 67
2, 189568, Note_off_c, 0, 51, 67
2, 189568, Note_on_c, 0, 63, 67
2, 189632, Note_off_c, 0, 63, 67
2, 189696, Note_off_c, 0, 63, 67
2, 189696, Note_on_c, 0, 50, 67
2, 189760, Note_off_c, 0, 50, 67
2, 189824, Note_off_c, 0, 50, 67
2, 189824, Note_on_c, 0, 62, 67
2, 189888, Note_off_c, 0, 62, 67
2, 189952, Note_off_c, 0, 62, 67
2, 189952, Note_on_c, 0, 48, 67
2, 190016, Note_off_c, 0, 48, 67
2, 190080, Note_off_c, 0, 48, 67
2, 190080, Note_on_c, 0, 60, 67
2, 190144, Note_off_c, 0, 60, 67
2, 190208, Note_off_c, 0, 60, 67
2, 190208, Note_on_c, 0, 46, 67
2, 190272, Note_off_c, 0, 46, 67
2, 190336, Note_off_c, 0, 46, 67
2, 190336, Note_on_c, 0, 58, 67
2, 190400, Note_off_c, 0, 58, 67
2, 190464, Note_off_c, 0, 58, 67
2, 190464, Note_on_c, 0, 51, 67
2, 190528, Note_off_c, 0, 51, 67
2, 190592, Note_off_c, 0, 51, 67
2, 190592, Note_on_c, 0, 63, 67
2, 190656, Note_off_c, 0, 63, 67
2, 190720, Note_off_c, 0, 63, 67
2, 190720, Note_on_c, 0, 46, 67
2, 190784, Note_off_c, 0, 46, 67
2, 190848, Note_off_c, 0, 46, 67
2, 190848, Note_on_c, 0, 58, 67
2, 190912, Note_off_c, 0, 58, 67
2, 190976, Note_off_c, 0, 58, 67
2, 190976, Note_on_c, 0, 48, 67
2, 191040, Note_off_c, 0, 48, 67
2, 191104, Note_off_c, 0, 48, 67
2, 191104, Note_on_c, 0, 60, 67
2, 191168, Note_off_c, 0, 60, 67
2, 191232, Note_off_c, 0, 60, 67
2, 191232, Note_on_c, 0, 46, 67
2, 191296, Note_off_c, 0, 46, 67
2, 191360, Note_off_c, 0, 46, 67
2, 191360, Note_on_c, 0, 58, 67
2, 191424, Note_off_c, 0, 58, 67
2, 191488, Note_off_c, 0, 58, 67
2, 191488, Note_on_c, 0, 50, 67
2, 191552, Note_off_c, 0, 50, 67
2, 191616, Note_off_c, 0, 50, 67
2, 191616, Note_on_c, 0, 62, 67
2, 191680, Note_off_c, 0, 62, 67
2, 191744, Note_off_c, 0, 62, 67
2, 191744, Note_on_c, 0, 48, 67
2, 191808, Note_off_c, 0, 48, 67
2, 191872, Note_off_c, 0, 48, 67
2, 191872, Note_on_c, 0, 60, 67
2, 191936, Note_off_c, 0, 60, 67
2, 192000, Note_off_c, 0, 60, 67
2, 192000, Note_on_c, 0, 46, 67
2, 192064, Note_off_c, 0, 46, 67
2, 192128, Note_off_c, 0, 46, 67
2, 192128, Note_on_c, 0, 58, 67
2, 192192, Note_off_c, 0, 58, 67
2, 192256, Note_off_c, 0, 58, 67
2, 192256, Note_on_c, 0, 48, 67
2, 192320, Note_off_c, 0, 48, 67
2, 192384, Note_off_c, 0, 48, 67
2, 192384, Note_on_c, 0, 60, 67
2, 192448, Note_off_c, 0, 60, 67
2, 192512, Note_off_c, 0, 60, 67
2, 192512, Note_on_c, 0, 50, 67
2, 192576, Note_off_c, 0, 50, 67
2, 192640, Note_off_c, 0, 50, 67
2, 192640, Note_on_c, 0, 62, 67
2, 192704, Note_off_c, 0, 62, 67
2, 192768, Note_off_c, 0, 62, 67
2, 192768, Note_on_c, 0, 46, 67
2, 192832, Note_off_c, 0, 46, 67
2, 192896, Note_off_c, 0, 46, 67
2, 192896, Note_on_c, 0, 58, 67
2, 192960, Note_off_c, 0, 58, 67
2, 193024, Note_off_c, 0, 58, 67
2, 193024, Note_on_c, 0, 51, 67
2, 193088, Note_off_c, 0, 51, 67
2, 193152, Note_off_c, 0, 51, 67
2, 193152, Note_on_c, 0, 63, 67
2, 193216, Note_off_c, 0, 63, 67
2, 193280, Note_off_c, 0, 63, 67
2, 193280, Note_on_c, 0, 46, 67
2, 193344, Note_off_c, 0, 46, 67
2, 193408, Note_off_c, 0, 46, 67
2, 193408, Note_on_c, 0, 58, 67
2, 193472, Note_off_c, 0, 58, 67
2, 193536, Note_off_c, 0, 58, 67
2, 193536, Note_on_c, 0, 39, 67
2, 193600, Note_off_c, 0, 39, 67
2, 193600, Note_on_c, 0, 46, 67
2, 193664, Note_off_c, 0, 46, 67
2, 193664, Note_on_c, 0, 51, 67
2, 193728, Note_off_c, 0, 51, 67
2, 193728, Note_on_c, 0, 53, 67
2, 193792, Note_off_c, 0, 53, 67
2, 193792, Note_on_c, 0, 55, 67
2, 193856, Note_off_c, 0, 55, 67
2, 193856, Note_on_c, 0, 51, 67
2, 193920, Note_off_c, 0, 51, 67
2, 193920, Note_on_c, 0, 58, 67
2, 193984, Note_off_c, 0, 58, 67
2, 193984, Note_on_c, 0, 63, 67
2, 194032, Control_c, 0, 93, 0
2, 194048, Note_off_c, 0, 63, 67
2, 194048, Note_on_c, 0, 44, 67
2, 194112, Note_off_c, 0, 44, 67
2, 194112, Note_on_c, 0, 51, 67
2, 194176, Note_off_c, 0, 51, 67
2, 194176, Note_on_c, 0, 56, 67
2, 194240, Note_off_c, 0, 56, 67
2, 194240, Note_on_c, 0, 58, 67
2, 194304, Note_off_c, 0, 58, 67
2, 194304, Note_on_c, 0, 60, 67
2, 194368, Note_off_c, 0, 60, 67
2, 194368, Note_on_c, 0, 56, 67
2, 194432, Note_off_c, 0, 56, 67
2, 194432, Note_on_c, 0, 63, 67
2, 194496, Note_off_c, 0, 63, 67
2, 194496, Note_on_c, 0, 68, 67
2, 194544, Control_c, 0, 93, 0
2, 194560, Note_off_c, 0, 68, 67
2, 194560, Note_on_c, 0, 46, 67
2, 194624, Note_off_c, 0, 46, 67
2, 194624, Note_on_c, 0, 53, 67
2, 194688, Note_off_c, 0, 53, 67
2, 194688, Note_on_c, 0, 58, 67
2, 194752, Note_off_c, 0, 58, 67
2, 194752, Note_on_c, 0, 60, 67
2, 194816, Note_off_c, 0, 60, 67
2, 194816, Note_on_c, 0, 62, 67
2, 194880, Note_off_c, 0, 62, 67
2, 194880, Note_on_c, 0, 58, 67
2, 194944, Note_off_c, 0, 58, 67
2, 194944, Note_on_c, 0, 65, 67
2, 195008, Note_off_c, 0, 65, 67
2, 195008, Note_on_c, 0, 70, 67
2, 195056, Control_c, 0, 93, 0
2, 195072, Note_off_c, 0, 70, 67
2, 195072, Note_on_c, 0, 41, 67
2, 195136, Note_off_c, 0, 41, 67
2, 195136, Note_on_c, 0, 44, 67
2, 195200, Note_off_c, 0, 44, 67
2, 195200, Control_c, 0, 64, 64
2, 195200, Note_on_c, 0, 50, 67
2, 195221, Note_off_c, 0, 50, 67
2, 195221, Note_on_c, 0, 53, 67
2, 195242, Note_off_c, 0, 53, 67
2, 195242, Note_on_c, 0, 58, 67
2, 195263, Note_off_c, 0, 58, 67
2, 195264, Control_c, 0, 93, 0
2, 195264, Note_on_c, 0, 62, 67
2, 195285, Note_off_c, 0, 62, 67
2, 195285, Note_on_c, 0, 65, 67
2, 195306, Note_off_c, 0, 65, 67
2, 195306, Note_on_c, 0, 70, 67
2, 195328, Control_c, 0, 93, 0
2, 195328, Control_c, 0, 64, 0
2, 195456, Note_off_c, 0, 70, 67
2, 195456, Note_on_c, 0, 51, 67
2, 195520, Note_off_c, 0, 51, 67
2, 195520, Note_on_c, 0, 46, 67
2, 195584, Note_off_c, 0, 46, 67
2, 195584, Note_on_c, 0, 39, 67
2, 195648, Note_off_c, 0, 39, 67
2, 195648, Note_on_c, 0, 46, 67
2, 195712, Note_off_c, 0, 46, 67
2, 195712, Note_on_c, 0, 51, 67
2, 195776, Note_off_c, 0, 51, 67
2, 195776, Note_on_c, 0, 53, 67
2, 195840, Note_off_c, 0, 53, 67
2, 195840, Note_on_c, 0, 55, 67
2, 195904, Note_off_c, 0, 55, 67
2, 195904, Note_on_c, 0, 51, 67
2, 195968, Note_off_c, 0, 51, 67
2, 195968, Note_on_c, 0, 58, 67
2, 196032, Note_off_c, 0, 58, 67
2, 196032, Note_on_c, 0, 63, 67
2, 196080, Control_c, 0, 93, 0
2, 196096, Note_off_c, 0, 63, 67
2, 196096, Note_on_c, 0, 44, 67
2, 196160, Note_off_c, 0, 44, 67
2, 196160, Note_on_c, 0, 51, 67
2, 196224, Note_off_c, 0, 51, 67
2, 196224, Note_on_c, 0, 56, 67
2, 196288, Note_off_c, 0, 56, 67
2, 196288, Note_on_c, 0, 58, 67
2, 196352, Note_off_c, 0, 58, 67
2, 196352, Note_on_c, 0, 60, 67
2, 196416, Note_off_c, 0, 60, 67
2, 196416, Note_on_c, 0, 56, 67
2, 196480, Note_off_c, 0, 56, 67
2, 196480, Note_on_c, 0, 63, 67
2, 196544, Note_off_c, 0, 63, 67
2, 196544, Note_on_c, 0, 68, 67
2, 196592, Control_c, 0, 93, 0
2, 196608, Note_off_c, 0, 68, 67
2, 196608, Note_on_c, 0, 46, 67
2, 196672, Note_off_c, 0, 46, 67
2, 196672, Note_on_c, 0, 53, 67
2, 196736, Note_off_c, 0, 53, 67
2, 196736, Note_on_c, 0, 58, 67
2, 196800, Note_off_c, 0, 58, 67
2, 196800, Note_on_c, 0, 60, 67
2, 196864, Note_off_c, 0, 60, 67
2, 196864, Note_on_c, 0, 62, 67
2, 196928, Note_off_c, 0, 62, 67
2, 196928, Note_on_c, 0, 58, 67
2, 196992, Note_off_c, 0, 58, 67
2, 196992, Note_on_c, 0, 65, 67
2, 197056, Note_off_c, 0, 65, 67
2, 197056, Note_on_c, 0, 70, 67
2, 197104, Control_c, 0, 93, 0
2, 197120, Note_off_c, 0, 70, 67
2, 197120, Note_on_c, 0, 39, 67
2, 197184, Note_off_c, 0, 39, 67
2, 197184, Note_on_c, 0, 46, 67
2, 197248, Note_off_c, 0, 46, 67
2, 197248, Note_on_c, 0, 51, 67
2, 197312, Note_off_c, 0, 51, 67
2, 197312, Control_c, 0, 64, 64
2, 197312, Note_on_c, 0, 55, 67
2, 197322, Note_off_c, 0, 55, 67
2, 197322, Note_on_c, 0, 58, 67
2, 197333, Note_off_c, 0, 58, 67
2, 197333, Note_on_c, 0, 63, 67
2, 197343, Note_off_c, 0, 63, 67
2, 197344, Control_c, 0, 93, 0
2, 197344, Note_on_c, 0, 67, 67
2, 197354, Note_off_c, 0, 67, 67
2, 197354, Note_on_c, 0, 70, 67
2, 197365, Note_off_c, 0, 70, 67
2, 197365, Note_on_c, 0, 75, 67
2, 197375, Note_off_c, 0, 75, 67
2, 197376, Control_c, 0, 93, 0
2, 197504, Control_c, 0, 93, 0
2, 197568, Control_c, 0, 93, 0
2, 197568, Control_c, 0, 64, 0
2, 197632, Control_c, 0, 93, 0
2, 197632, Note_on_c, 0, 51, 67
2, 197696, Note_off_c, 0, 51, 67
2, 197760, Note_off_c, 0, 51, 67
2, 197760, Note_on_c, 0, 63, 67
2, 197824, Note_off_c, 0, 63, 67
2, 197888, Note_off_c, 0, 63, 67
2, 197888, Note_on_c, 0, 50, 67
2, 197952, Note_off_c, 0, 50, 67
2, 198016, Note_off_c, 0, 50, 67
2, 198016, Note_on_c, 0, 62, 67
2, 198080, Note_off_c, 0, 62, 67
2, 198144, Note_off_c, 0, 62, 67
2, 198144, Note_on_c, 0, 48, 67
2, 198208, Note_off_c, 0, 48, 67
2, 198272, Note_off_c, 0, 48, 67
2, 198272, Note_on_c, 0, 60, 67
2, 198336, Note_off_c, 0, 60, 67
2, 198400, Note_off_c, 0, 60, 67
2, 198400, Note_on_c, 0, 46, 67
2, 198464, Note_off_c, 0, 46, 67
2, 198528, Note_off_c, 0, 46, 67
2, 198528, Note_on_c, 0, 58, 67
2, 198592, Note_off_c, 0, 58, 67
2, 198656, Note_off_c, 0, 58, 67
2, 198656, Note_on_c, 0, 51, 67
2, 198720, Note_off_c, 0, 51, 67
2, 198784, Note_off_c, 0, 51, 67
2, 198784, Note_on_c, 0, 63, 67
2, 198848, Note_off_c, 0, 63, 67
2, 198912, Note_off_c, 0, 63, 67
2, 198912, Note_on_c, 0, 46, 67
2, 198976, Note_off_c, 0, 46, 67
2, 199040, Note_off_c, 0, 46, 67
2, 199040, Note_on_c, 0, 58, 67
2, 199104, Note_off_c, 0, 58, 67
2, 199168, Note_off_c, 0, 58, 67
2, 199168, Note_on_c, 0, 48, 67
2, 199232, Note_off_c, 0, 48, 67
2, 199296, Note_off_c, 0, 48, 67
2, 199296, Note_on_c, 0, 60, 67
2, 199360, Note_off_c, 0, 60, 67
2, 199424, Note_off_c, 0, 60, 67
2, 199424, Note_on_c, 0, 46, 67
2, 199488, Note_off_c, 0, 46, 67
2, 199552, Note_off_c, 0, 46, 67
2, 199552, Note_on_c, 0, 58, 67
2, 199616, Note_off_c, 0, 58, 67
2, 199680, Note_off_c, 0, 58, 67
2, 199680, Note_on_c, 0, 50, 67
2, 199744, Note_off_c, 0, 50, 67
2, 199808, Note_off_c, 0, 50, 67
2, 199808, Note_on_c, 0, 62, 67
2, 199872, Note_off_c, 0, 62, 67
2, 199936, Note_off_c, 0, 62, 67
2, 199936, Note_on_c, 0, 46, 67
2, 200000, Note_off_c, 0, 46, 67
2, 200064, Note_off_c, 0, 46, 67
2, 200064, Note_on_c, 0, 58, 67
2, 200128, Note_off_c, 0, 58, 67
2, 200192, Note_off_c, 0, 58, 67
2, 200192, Note_on_c, 0, 48, 67
2, 200256, Note_off_c, 0, 48, 67
2, 200320, Note_off_c, 0, 48, 67
2, 200320, Note_on_c, 0, 60, 67
2, 200384, Note_off_c, 0, 60, 67
2, 200448, Note_off_c, 0, 60, 67
2, 200448, Note_on_c, 0, 49, 67
2, 200512, Note_off_c, 0, 49, 67
2, 200576, Note_off_c, 0, 49, 67
2, 200576, Note_on_c, 0, 61, 67
2, 200640, Note_off_c, 0, 61, 67
2, 200704, Note_off_c, 0, 61, 67
2, 200704, Note_on_c, 0, 50, 67
2, 200768, Note_off_c, 0, 50, 67
2, 200832, Note_off_c, 0, 50, 67
2, 200832, Note_on_c, 0, 62, 67
2, 200896, Note_off_c, 0, 62, 67
2, 200960, Note_off_c, 0, 62, 67
2, 200960, Note_on_c, 0, 46, 67
2, 201024, Note_off_c, 0, 46, 67
2, 201088, Note_off_c, 0, 46, 67
2, 201088, Note_on_c, 0, 58, 67
2, 201152, Note_off_c, 0, 58, 67
2, 201216, Note_off_c, 0, 58, 67
2, 201216, Note_on_c, 0, 51, 67
2, 201280, Note_off_c, 0, 51, 67
2, 201344, Note_off_c, 0, 51, 67
2, 201344, Note_on_c, 0, 63, 67
2, 201408, Note_off_c, 0, 63, 67
2, 201472, Note_off_c, 0, 63, 67
2, 201472, Note_on_c, 0, 46, 67
2, 201536, Note_off_c, 0, 46, 67
2, 201600, Note_off_c, 0, 46, 67
2, 201600, Note_on_c, 0, 58, 67
2, 201664, Note_off_c, 0, 58, 67
2, 201728, Note_off_c, 0, 58, 67
2, 201728, Note_on_c, 0, 51, 67
2, 201792, Note_off_c, 0, 51, 67
2, 201856, Note_off_c, 0, 51, 67
2, 201856, Note_on_c, 0, 63, 67
2, 201920, Note_off_c, 0, 63, 67
2, 201984, Note_off_c, 0, 63, 67
2, 201984, Note_on_c, 0, 50, 67
2, 202048, Note_off_c, 0, 50, 67
2, 202112, Note_off_c, 0, 50, 67
2, 202112, Note_on_c, 0, 62, 67
2, 202176, Note_off_c, 0, 62, 67
2, 202240, Note_off_c, 0, 62, 67
2, 202240, Note_on_c, 0, 48, 67
2, 202304, Note_off_c, 0, 48, 67
2, 202368, Note_off_c, 0, 48, 67
2, 202368, Note_on_c, 0, 60, 67
2, 202432, Note_off_c, 0, 60, 67
2, 202496, Note_off_c, 0, 60, 67
2, 202496, Note_on_c, 0, 46, 67
2, 202560, Note_off_c, 0, 46, 67
2, 202624, Note_off_c, 0, 46, 67
2, 202624, Note_on_c, 0, 58, 67
2, 202688, Note_off_c, 0, 58, 67
2, 202752, Note_off_c, 0, 58, 67
2, 202752, Note_on_c, 0, 51, 67
2, 202816, Note_off_c, 0, 51, 67
2, 202880, Note_off_c, 0, 51, 67
2, 202880, Note_on_c, 0, 63, 67
2, 202944, Note_off_c, 0, 63, 67
2, 203008, Note_off_c, 0, 63, 67
2, 203008, Note_on_c, 0, 46, 67
2, 203072, Note_off_c, 0, 46, 67
2, 203136, Note_off_c, 0, 46, 67
2, 203136, Note_on_c, 0, 58, 67
2, 203200, Note_off_c, 0, 58, 67
2, 203264, Note_off_c, 0, 58, 67
2, 203264, Note_on_c, 0, 48, 67
2, 203328, Note_off_c, 0, 48, 67
2, 203392, Note_off_c, 0, 48, 67
2, 203392, Note_on_c, 0, 60, 67
2, 203456, Note_off_c, 0, 60, 67
2, 203520, Note_off_c, 0, 60, 67
2, 203520, Note_on_c, 0, 46, 67
2, 203584, Note_off_c, 0, 46, 67
2, 203648, Note_off_c, 0, 46, 67
2, 203648, Note_on_c, 0, 58, 67
2, 203712, Note_off_c, 0, 58, 67
2, 203776, Note_off_c, 0, 58, 67
2, 203776, Note_on_c, 0, 50, 67
2, 203840, Note_off_c, 0, 50, 67
2, 203904, Note_off_c, 0, 50, 67
2, 203904, Note_on_c, 0, 62, 67
2, 203968, Note_off_c, 0, 62, 67
2, 204032, Note_off_c, 0, 62, 67
2, 204032, Note_on_c, 0, 48, 67
2, 204096, Note_off_c, 0, 48, 67
2, 204160, Note_off_c, 0, 48, 67
2, 204160, Note_on_c, 0, 60, 67
2, 204224, Note_off_c, 0, 60, 67
2, 204288, Note_off_c, 0, 60, 67
2, 204288, Note_on_c, 0, 46, 67
2, 204352, Note_off_c, 0, 46, 67
2, 204416, Note_off_c, 0, 46, 67
2, 204416, Note_on_c, 0, 58, 67
2, 204480, Note_off_c, 0, 58, 67
2, 204544, Note_off_c, 0, 58, 67
2, 204544, Note_on_c, 0, 48, 67
2, 204608, Note_off_c, 0, 48, 67
2, 204672, Note_off_c, 0, 48, 67
2, 204672, Note_on_c, 0, 60, 67
2, 204736, Note_off_c, 0, 60, 67
2, 204800, Note_off_c, 0, 60, 67
2, 204800, Note_on_c, 0, 50, 67
2, 204864, Note_off_c, 0, 50, 67
2, 204928, Note_off_c, 0, 50, 67
2, 204928, Note_on_c, 0, 62, 67
2, 204992, Note_off_c, 0, 62, 67
2, 205056, Note_off_c, 0, 62, 67
2, 205056, Note_on_c, 0, 46, 67
2, 205120, Note_off_c, 0, 46, 67
2, 205184, Note_off_c, 0, 46, 67
2, 205184, Note_on_c, 0, 58, 67
2, 205248, Note_off_c, 0, 58, 67
2, 205312, Note_off_c, 0, 58, 67
2, 205312, Note_on_c, 0, 51, 67
2, 205376, Note_off_c, 0, 51, 67
2, 205440, Note_off_c, 0, 51, 67
2, 205440, Note_on_c, 0, 63, 67
2, 205504, Note_off_c, 0, 63, 67
2, 205568, Note_off_c, 0, 63, 67
2, 205568, Note_on_c, 0, 46, 67
2, 205632, Note_off_c, 0, 46, 67
2, 205696, Note_off_c, 0, 46, 67
2, 205696, Note_on_c, 0, 58, 67
2, 205760, Note_off_c, 0, 58, 67
2, 205824, Note_off_c, 0, 58, 67
2, 205824, Note_on_c, 0, 39, 67
2, 205888, Note_off_c, 0, 39, 67
2, 205888, Note_on_c, 0, 46, 67
2, 205952, Note_off_c, 0, 46, 67
2, 205952, Note_on_c, 0, 51, 67
2, 206016, Note_off_c, 0, 51, 67
2, 206016, Note_on_c, 0, 53, 67
2, 206080, Note_off_c, 0, 53, 67
2, 206080, Note_on_c, 0, 55, 67
2, 206144, Note_off_c, 0, 55, 67
2, 206144, Note_on_c, 0, 51, 67
2, 206208, Note_off_c, 0, 51, 67
2, 206208, Note_on_c, 0, 58, 67
2, 206272, Note_off_c, 0, 58, 67
2, 206272, Note_on_c, 0, 63, 67
2, 206320, Control_c, 0, 93, 0
2, 206336, Note_off_c, 0, 63, 67
2, 206336, Note_on_c, 0, 44, 67
2, 206400, Note_off_c, 0, 44, 67
2, 206400, Note_on_c, 0, 51, 67
2, 206464, Note_off_c, 0, 51, 67
2, 206464, Note_on_c, 0, 56, 67
2, 206528, Note_off_c, 0, 56, 67
2, 206528, Note_on_c, 0, 58, 67
2, 206592, Note_off_c, 0, 58, 67
2, 206592, Note_on_c, 0, 60, 67
2, 206656, Note_off_c, 0, 60, 67
2, 206656, Note_on_c, 0, 56, 67
2, 206720, Note_off_c, 0, 56, 67
2, 206720, Note_on_c, 0, 63, 67
2, 206784, Note_off_c, 0, 63, 67
2, 206784, Note_on_c, 0, 68, 67
2, 206832, Control_c, 0, 93, 0
2, 206848, Note_off_c, 0, 68, 67
2, 206848, Note_on_c, 0, 46, 67
2, 206912, Note_off_c, 0, 46, 67
2, 206912, Note_on_c, 0, 53, 67
2, 206976, Note_off_c, 0, 53, 67
2, 206976, Note_on_c, 0, 58, 67
2, 207040, Note_off_c, 0, 58, 67
2, 207040, Note_on_c, 0, 60, 67
2, 207104, Note_off_c, 0, 60, 67
2, 207104, Note_on_c, 0, 62, 67
2, 207168, Note_off_c, 0, 62, 67
2, 207168, Note_on_c, 0, 58, 67
2, 207232, Note_off_c, 0, 58, 67
2, 207232, Note_on_c, 0, 65, 67
2, 207296, Note_off_c, 0, 65, 67
2, 207296, Note_on_c, 0, 70, 67
2, 207344, Control_c, 0, 93, 0
2, 207360, Note_off_c, 0, 70, 67
2, 207360, Note_on_c, 0, 41, 67
2, 207424, Note_off_c, 0, 41, 67
2, 207424, Note_on_c, 0, 44, 67
2, 207488, Note_off_c, 0, 44, 67
2, 207488, Control_c, 0, 64, 64
2, 207488, Note_on_c, 0, 50, 67
2, 207509, Note_off_c, 0, 50, 67
2, 207509, Note_on_c, 0, 53, 67
2, 207530, Note_off_c, 0, 53, 67
2, 207530, Note_on_c, 0, 58, 67
2, 207551, Note_off_c, 0, 58, 67
2, 207552, Control_c, 0, 93, 0
2, 207552, Note_on_c, 0, 62, 67
2, 207573, Note_off_c, 0, 62, 67
2, 207573, Note_on_c, 0, 65, 67
2, 207594, Note_off_c, 0, 65, 67
2, 207594, Note_on_c, 0, 70, 67
2, 207616, Control_c, 0, 93, 0
2, 207616, Control_c, 0, 64, 0
2, 207744, Note_off_c, 0, 70, 67
2, 207744, Note_on_c, 0, 51, 67
2, 207808, Note_off_c, 0, 51, 67
2, 207808, Note_on_c, 0, 46, 67
2, 207872, Note_off_c, 0, 46, 67
2, 207872, Note_on_c, 0, 39, 67
2, 207936, Note_off_c, 0, 39, 67
2, 207936, Note_on_c, 0, 46, 67
2, 208000, Note_off_c, 0, 46, 67
2, 208000, Note_on_c, 0, 51, 67
2, 208064, Note_off_c, 0, 51, 67
2, 208064, Note_on_c, 0, 53, 67
2, 208128, Note_off_c, 0, 53, 67
2, 208128, Note_on_c, 0, 55, 67
2, 208192, Note_off_c, 0, 55, 67
2, 208192, Note_on_c, 0, 51, 67
2, 208256, Note_off_c, 0, 51, 67
2, 208256, Note_on_c, 0, 58, 67
2, 208320, Note_off_c, 0, 58, 67
2, 208320, Note_on_c, 0, 63, 67
2, 208368, Control_c, 0, 93, 0
2, 208384, Note_off_c, 0, 63, 67
2, 208384, Note_on_c, 0, 44, 67
2, 208448, Note_off_c, 0, 44, 67
2, 208448, Note_on_c, 0, 51, 67
2, 208512, Note_off_c, 0, 51, 67
2, 208512, Note_on_c, 0, 56, 67
2, 208576, Note_off_c, 0, 56, 67
2, 208576, Note_on_c, 0, 58, 67
2, 208640, Note_off_c, 0, 58, 67
2, 208640, Note_on_c, 0, 60, 67
2, 208704, Note_off_c, 0, 60, 67
2, 208704, Note_on_c, 0, 56, 67
2, 208768, Note_off_c, 0, 56, 67
2, 208768, Note_on_c, 0, 63, 67
2, 208832, Note_off_c, 0, 63, 67
2, 208832, Note_on_c, 0, 68, 67
2, 208880, Control_c, 0, 93, 0
2, 208896, Note_off_c, 0, 68, 67
2, 208896, Note_on_c, 0, 46, 67
2, 208960, Note_off_c, 0, 46, 67
2, 208960, Note_on_c, 0, 53, 67
2, 209024, Note_off_c, 0, 53, 67
2, 209024, Note_on_c, 0, 58, 67
2, 209088, Note_off_c, 0, 58, 67
2, 209088, Note_on_c, 0, 60, 67
2, 209152, Note_off_c, 0, 60, 67
2, 209152, Note_on_c, 0, 62, 67
2, 209216, Note_off_c, 0, 62, 67
2, 209216, Note_on_c, 0, 58, 67
2, 209280, Note_off_c, 0, 58, 67
2, 209280, Note_on_c, 0, 65, 67
2, 209344, Note_off_c, 0, 65, 67
2, 209344, Note_on_c, 0, 70, 67
2, 209392, Control_c, 0, 93, 0
2, 209408, Note_off_c, 0, 70, 67
2, 209408, Note_on_c, 0, 39, 67
2, 209472, Note_off_c, 0, 39, 67
2, 209472, Note_on_c, 0, 46, 67
2, 209536, Note_off_c, 0, 46, 67
2, 209536, Note_on_c, 0, 51, 67
2, 209600, Note_off_c, 0, 51, 67
2, 209600, Control_c, 0, 64, 64
2, 209600, Note_on_c, 0, 55, 67
2, 209610, Note_off_c, 0, 55, 67
2, 209610, Note_on_c, 0, 58, 67
2, 209621, Note_off_c, 0, 58, 67
2, 209621, Note_on_c, 0, 63, 67
2, 209631, Note_off_c, 0, 63, 67
2, 209632, Control_c, 0, 93, 0
2, 209632, Note_on_c, 0, 67, 67
2, 209642, Note_off_c, 0, 67, 67
2, 209642, Note_on_c, 0, 70, 67
2, 209653, Note_off_c, 0, 70, 67
2, 209653, Note_on_c, 0, 75, 67
2, 209663, Note_off_c, 0, 75, 67
2, 209664, Control_c, 0, 93, 0
2, 209792, Control_c, 0, 93, 0
2, 209856, Control_c, 0, 93, 0
2, 209856, Control_c, 0, 64, 0
2, 209920, Control_c, 0, 93, 0
2, 209920, Note_on_c, 0, 51, 67
2, 209984, Note_off_c, 0, 51, 67
2, 210048, Note_off_c, 0, 51, 67
2, 210048, Note_on_c, 0, 63, 67
2, 210112, Note_off_c, 0, 63, 67
2, 210176, Note_off_c, 0, 63, 67
2, 210176, Note_on_c, 0, 50, 67
2, 210240, Note_off_c, 0, 50, 67
2, 210304, Note_off_c, 0, 50, 67
2, 210304, Note_on_c, 0, 62, 67
2, 210368, Note_off_c, 0, 62, 67
2, 210432, Note_off_c, 0, 62, 67
2, 210432, Note_on_c, 0, 48, 67
2, 210496, Note_off_c, 0, 48, 67
2, 210560, Note_off_c, 0, 48, 67
2, 210560, Note_on_c, 0, 60, 67
2, 210624, Note_off_c, 0, 60, 67
2, 210688, Note_off_c, 0, 60, 67
2, 210688, Note_on_c, 0, 46, 67
2, 210752, Note_off_c, 0, 46, 67
2, 210816, Note_off_c, 0, 46, 67
2, 210816, Note_on_c, 0, 58, 67
2, 210880, Note_off_c, 0, 58, 67
2, 210944, Note_off_c, 0, 58, 67
2, 210944, Note_on_c, 0, 51, 67
2, 211008, Note_off_c, 0, 51, 67
2, 211072, Note_off_c, 0, 51, 67
2, 211072, Note_on_c, 0, 63, 67
2, 211136, Note_off_c, 0, 63, 67
2, 211200, Note_off_c, 0, 63, 67
2, 211200, Note_on_c, 0, 46, 67
2, 211264, Note_off_c, 0, 46, 67
2, 211328, Note_off_c, 0, 46, 67
2, 211328, Note_on_c, 0, 58, 67
2, 211392, Note_off_c, 0, 58, 67
2, 211456, Note_off_c, 0, 58, 67
2, 211456, Note_on_c, 0, 48, 67
2, 211520, Note_off_c, 0, 48, 67
2, 211584, Note_off_c, 0, 48, 67
2, 211584, Note_on_c, 0, 60, 67
2, 211648, Note_off_c, 0, 60, 67
2, 211712, Note_off_c, 0, 60, 67
2, 211712, Note_on_c, 0, 46, 67
2, 211776, Note_off_c, 0, 46, 67
2, 211840, Note_off_c, 0, 46, 67
2, 211840, Note_on_c, 0, 58, 67
2, 211904, Note_off_c, 0, 58, 67
2, 211968, Note_off_c, 0, 58, 67
2, 211968, Note_on_c, 0, 50, 67
2, 212032, Note_off_c, 0, 50, 67
2, 212096, Note_off_c, 0, 50, 67
2, 212096, Note_on_c, 0, 62, 67
2, 212160, Note_off_c, 0, 62, 67
2, 212224, Note_off_c, 0, 62, 67
2, 212224, Note_on_c, 0, 46, 67
2, 212288, Note_off_c, 0, 46, 67
2, 212352, Note_off_c, 0, 46, 67
2, 212352, Note_on_c, 0, 58, 67
2, 212416, Note_off_c, 0, 58, 67
2, 212480, Note_off_c, 0, 58, 67
2, 212480, Note_on_c, 0, 48, 67
2, 212544, Note_off_c, 0, 48, 67
2, 212608, Note_off_c, 0, 48, 67
2, 212608, Note_on_c, 0, 60, 67
2, 212672, Note_off_c, 0, 60, 67
2, 212736, Note_off_c, 0, 60, 67
2, 212736, Note_on_c, 0, 49, 67
2, 212800, Note_off_c, 0, 49, 67
2, 212864, Note_off_c, 0, 49, 67
2, 212864, Note_on_c, 0, 61, 67
2, 212928, Note_off_c, 0, 61, 67
2, 212992, Note_off_c, 0, 61, 67
2, 212992, Note_on_c, 0, 50, 67
2, 213056, Note_off_c, 0, 50, 67
2, 213120, Note_off_c, 0, 50, 67
2, 213120, Note_on_c, 0, 62, 67
2, 213184, Note_off_c, 0, 62, 67
2, 213248, Note_off_c, 0, 62, 67
2, 213248, Note_on_c, 0, 46, 67
2, 213312, Note_off_c, 0, 46, 67
2, 213376, Note_off_c, 0, 46, 67
2, 213376, Note_on_c, 0, 58, 67
2, 213440, Note_off_c, 0, 58, 67
2, 213504, Note_off_c, 0, 58, 67
2, 213504, Note_on_c, 0, 51, 67
2, 213568, Note_off_c, 0, 51, 67
2, 213632, Note_off_c, 0, 51, 67
2, 213632, Note_on_c, 0, 63, 67
2, 213696, Note_off_c, 0, 63, 67
2, 213760, Note_off_c, 0, 63, 67
2, 213760, Note_on_c, 0, 46, 67
2, 213824, Note_off_c, 0, 46, 67
2, 213888, Note_off_c, 0, 46, 67
2, 213888, Note_on_c, 0, 58, 67
2, 213952, Note_off_c, 0, 58, 67
2, 214016, Note_off_c, 0, 58, 67
2, 214016, Note_on_c, 0, 51, 67
2, 214080, Note_off_c, 0, 51, 67
2, 214144, Note_off_c, 0, 51, 67
2, 214144, Note_on_c, 0, 63, 67
2, 214208, Note_off_c, 0, 63, 67
2, 214272, Note_off_c, 0, 63, 67
2, 214272, Note_on_c, 0, 50, 67
2, 214336, Note_off_c, 0, 50, 67
2, 214400, Note_off_c, 0, 50, 67
2, 214400, Note_on_c, 0, 62, 67
2, 214464, Note_off_c, 0, 62, 67
2, 214528, Note_off_c, 0, 62, 67
2, 214528, Note_on_c, 0, 48, 67
2, 214592, Note_off_c, 0, 48, 67
2, 214656, Note_off_c, 0, 48, 67
2, 214656, Note_on_c, 0, 60, 67
2, 214720, Note_off_c, 0, 60, 67
2, 214784, Note_off_c, 0, 60, 67
2, 214784, Note_on_c, 0, 46, 67
2, 214848, Note_off_c, 0, 46, 67
2, 214912, Note_off_c, 0, 46, 67
2, 214912, Note_on_c, 0, 58, 67
2, 214976, Note_off_c, 0, 58, 67
2, 215040, Note_off_c, 0, 58, 67
2, 215040, Note_on_c, 0, 51, 67
2, 215104, Note_off_c, 0, 51, 67
2, 215168, Note_off_c, 0, 51, 67
2, 215168, Note_on_c, 0, 63, 67
2, 215232, Note_off_c, 0, 63, 67
2, 215296, Note_off_c, 0, 63, 67
2, 215296, Note_on_c, 0, 46, 67
2, 215360, Note_off_c, 0, 46, 67
2, 215424, Note_off_c, 0, 46, 67
2, 215424, Note_on_c, 0, 58, 67
2, 215488, Note_off_c, 0, 58, 67
2, 215552, Note_off_c, 0, 58, 67
2, 215552, Note_on_c, 0, 48, 67
2, 215616, Note_off_c, 0, 48, 67
2, 215680, Note_off_c, 0, 48, 67
2, 215680, Note_on_c, 0, 60, 67
2, 215744, Note_off_c, 0, 60, 67
2, 215808, Note_off_c, 0, 60, 67
2, 215808, Note_on_c, 0, 46, 67
2, 215872, Note_off_c, 0, 46, 67
2, 215936, Note_off_c, 0, 46, 67
2, 215936, Note_on_c, 0, 58, 67
2, 216000, Note_off_c, 0, 58, 67
2, 216064, Note_off_c, 0, 58, 67
2, 216064, Note_on_c, 0, 50, 67
2, 216128, Note_off_c, 0, 50, 67
2, 216192, Note_off_c, 0, 50, 67
2, 216192, Note_on_c, 0, 62, 67
2, 216256, Note_off_c, 0, 62, 67
2, 216320, Note_off_c, 0, 62, 67
2, 216320, Note_on_c, 0, 48, 67
2, 216384, Note_off_c, 0, 48, 67
2, 216448, Note_off_c, 0, 48, 67
2, 216448, Note_on_c, 0, 60, 67
2, 216512, Note_off_c, 0, 60, 67
2, 216576, Note_off_c, 0, 60, 67
2, 216576, Note_on_c, 0, 46, 67
2, 216640, Note_off_c, 0, 46, 67
2, 216704, Note_off_c, 0, 46, 67
2, 216704, Note_on_c, 0, 58, 67
2, 216768, Note_off_c, 0, 58, 67
2, 216832, Note_off_c, 0, 58, 67
2, 216832, Note_on_c, 0, 48, 67
2, 216896, Note_off_c, 0, 48, 67
2, 216960, Note_off_c, 0, 48, 67
2, 216960, Note_on_c, 0, 60, 67
2, 217024, Note_off_c, 0, 60, 67
2, 217088, Note_off_c, 0, 60, 67
2, 217088, Note_on_c, 0, 50, 67
2, 217152, Note_off_c, 0, 50, 67
2, 217216, Note_off_c, 0, 50, 67
2, 217216, Note_on_c, 0, 62, 67
2, 217280, Note_off_c, 0, 62, 67
2, 217344, Note_off_c, 0, 62, 67
2, 217344, Note_on_c, 0, 46, 67
2, 217408, Note_off_c, 0, 46, 67
2, 217472, Note_off_c, 0, 46, 67
2, 217472, Note_on_c, 0, 58, 67
2, 217536, Note_off_c, 0, 58, 67
2, 217600, Note_off_c, 0, 58, 67
2, 217600, Note_on_c, 0, 51, 67
2, 217664, Note_off_c, 0, 51, 67
2, 217728, Note_off_c, 0, 51, 67
2, 217728, Note_on_c, 0, 63, 67
2, 217792, Note_off_c, 0, 63, 67
2, 217856, Note_off_c, 0, 63, 67
2, 217856, Note_on_c, 0, 46, 67
2, 217920, Note_off_c, 0, 46, 67
2, 217984, Note_off_c, 0, 46, 67
2, 217984, Note_on_c, 0, 58, 67
2, 218048, Note_off_c, 0, 58, 67
2, 218112, Note_off_c, 0, 58, 67
2, 218112, Note_on_c, 0, 39, 67
2, 218176, Note_off_c, 0, 39, 67
2, 218176, Note_on_c, 0, 46, 67
2, 218240, Note_off_c, 0, 46, 67
2, 218240, Note_on_c, 0, 51, 67
2, 218304, Note_off_c, 0, 51, 67
2, 218304, Note_on_c, 0, 53, 67
2, 218368, Note_off_c, 0, 53, 67
2, 218368, Note_on_c, 0, 55, 67
2, 218432, Note_off_c, 0, 55, 67
2, 218432, Note_on_c, 0, 51, 67
2, 218496, Note_off_c, 0, 51, 67
2, 218496, Note_on_c, 0, 58, 67
2, 218560, Note_off_c, 0, 58, 67
2, 218560, Note_on_c, 0, 63, 67
2, 218608, Control_c, 0, 93, 0
2, 218624, Note_off_c, 0, 63, 67
2, 218624, Note_on_c, 0, 44, 67
2, 218688, Note_off_c, 0, 44, 67
2, 218688, Note_on_c, 0, 51, 67
2, 218752, Note_off_c, 0, 51, 67
2, 218752, Note_on_c, 0, 56, 67
2, 218816, Note_off_c, 0, 56, 67
2, 218816, Note_on_c, 0, 58, 67
2, 218880, Note_off_c, 0, 58, 67
2, 218880, Note_on_c, 0, 60, 67
2, 218944, Note_off_c, 0, 60, 67
2, 218944, Note_on_c, 0, 56, 67
2, 219008, Note_off_c, 0, 56, 67
2, 219008, Note_on_c, 0, 63, 67
2, 219072, Note_off_c, 0, 63, 67
2, 219072, Note_on_c, 0, 68, 67
2, 219120, Control_c, 0, 93, 0
2, 219136, Note_off_c, 0, 68, 67
2, 219136, Note_on_c, 0, 46, 67
2, 219200, Note_off_c, 0, 46, 67
2, 219200, Note_on_c, 0, 53, 67
2, 219264, Note_off_c, 0, 53, 67
2, 219264, Note_on_c, 0, 58, 67
2, 219328, Note_off_c, 0, 58, 67
2, 219328, Note_on_c, 0, 60, 67
2, 219392, Note_off_c, 0, 60, 67
2, 219392, Note_on_c, 0, 62, 67
2, 219456, Note_off_c, 0, 62, 67
2, 219456, Note_on_c, 0, 58, 67
2, 219520, Note_off_c, 0, 58, 67
2, 219520, Note_on_c, 0, 65, 67
2, 219584, Note_off_c, 0, 65, 67
2, 219584, Note_on_c, 0, 70, 67
2, 219632, Control_c, 0, 93, 0
2, 219648, Note_off_c, 0, 70, 67
2, 219648, Note_on_c, 0, 41, 67
2, 219712, Note_off_c, 0, 41, 67
2, 219712, Note_on_c, 0, 44, 67
2, 219776, Note_off_c, 0, 44, 67
2, 219776, Control_c, 0, 64, 64
2, 219776, Note_on_c, 0, 50, 67
2, 219797, Note_off_c, 0, 50, 67
2, 219797, Note_on_c, 0, 53, 67
2, 219818, Note_off_c, 0, 53, 67
2, 219818, Note_on_c, 0, 58, 67
2, 219839, Note_off_c, 0, 58, 67
2, 219840, Control_c, 0, 93, 0
2, 219840, Note_on_c, 0, 62, 67
2, 219861, Note_off_c, 0, 62, 67
2, 219861, Note_on_c, 0, 65, 67
2, 219882, Note_off_c, 0, 65, 67
2, 219882, Note_on_c, 0, 70, 67
2, 219904, Control_c, 0, 93, 0
2, 219904, Control_c, 0, 64, 0
2, 220032, Note_off_c, 0, 70, 67
2, 220032, Note_on_c, 0, 51, 67
2, 220096, Note_off_c, 0, 51, 67
2, 220096, Note_on_c, 0, 46, 67
2, 220160, Note_off_c, 0, 46, 67
2, 220160, Note_on_c, 0, 39, 67
2, 220224, Note_off_c, 0, 39, 67
2, 220224, Note_on_c, 0, 46, 67
2, 220288, Note_off_c, 0, 46, 67
2, 220288, Note_on_c, 0, 51, 67
2, 220352, Note_off_c, 0, 51, 67
2, 220352, Note_on_c, 0, 53, 67
2, 220416, Note_off_c, 0, 53, 67
2, 220416, Note_on_c, 0, 55, 67
2, 220480, Note_off_c, 0, 55, 67
2, 220480, Note_on_c, 0, 51, 67
2, 220544, Note_off_c, 0, 51, 67
2, 220544, Note_on_c, 0, 58, 67
2, 220608, Note_off_c, 0, 58, 67
2, 220608, Note_on_c, 0, 63, 67
2, 220656, Control_c, 0, 93, 0
2, 220672, Note_off_c, 0, 63, 67
2, 220672, Note_on_c, 0, 44, 67
2, 220736, Note_off_c, 0, 44, 67
2, 220736, Note_on_c, 0, 51, 67
2, 220800, Note_off_c, 0, 51, 67
2, 220800, Note_on_c, 0, 56, 67
2, 220864, Note_off_c, 0, 56, 67
2, 220864, Note_on_c, 0, 58, 67
2, 220928, Note_off_c, 0, 58, 67
2, 220928, Note_on_c, 0, 60, 67
2, 220992, Note_off_c, 0, 60, 67
2, 220992, Note_on_c, 0, 56, 67
2, 221056, Note_off_c, 0, 56, 67
2, 221056, Note_on_c, 0, 63, 67
2, 221120, Note_off_c, 0, 63, 67
2, 221120, Note_on_c, 0, 68, 67
2, 221168, Control_c, 0, 93, 0
2, 221184, Note_off_c, 0, 68, 67
2, 221184, Note_on_c, 0, 46, 67
2, 221248, Note_off_c, 0, 46, 67
2, 221248, Note_on_c, 0, 53, 67
2, 221312, Note_off_c, 0, 53, 67
2, 221312, Note_on_c, 0, 58, 67
2, 221376, Note_off_c, 0, 58, 67
2, 221376, Note_on_c, 0, 60, 67
2, 221440, Note_off_c, 0, 60, 67
2, 221440, Note_on_c, 0, 62, 67
2, 221504, Note_off_c, 0, 62, 67
2, 221504, Note_on_c, 0, 58, 67
2, 221568, Note_off_c, 0, 58, 67
2, 221568, Note_on_c, 0, 65, 67
2, 221632, Note_off_c, 0, 65, 67
2, 221632, Note_on_c, 0, 70, 67
2, 221680, Control_c, 0, 93, 0
2, 221696, Note_off_c, 0, 70, 67
2, 221696, Note_on_c, 0, 39, 67
2, 221760, Note_off_c, 0, 39, 67
2, 221760, Note_on_c, 0, 46, 67
2, 221824, Note_off_c, 0, 46, 67
2, 221824, Note_on_c, 0, 51, 67
2, 221888, Note_off_c, 0, 51, 67
2, 221888, Control_c, 0, 64, 64
2, 221888, Note_on_c, 0, 55, 67
2, 221898, Note_off_c, 0, 55, 67
2, 221898, Note_on_c, 0, 58, 67
2, 221909, Note_off_c, 0, 58, 67
2, 221909, Note_on_c, 0, 63, 67
2, 221919, Note_off_c, 0, 63, 67
2, 221920, Control_c, 0, 93, 0
2, 221920, Note_on_c, 0, 67, 67
2, 221930, Note_off_c, 0, 67, 67
2, 221930, Note_on_c, 0, 70, 67
2, 221941, Note_off_c, 0, 70, 67
2, 221941, Note_on_c, 0, 75, 67
2, 221951, Note_off_c, 0, 75, 67
2, 221952, Control_c, 0, 93, 0
2, 222080, Control_c, 0, 93, 0
2, 222144, Control_c, 0, 93, 0
2, 222144, Control_c, 0, 64, 0
2, 222208, Control_c, 0, 93, 0
2, 222208, Note_on_c, 0, 51, 67
2, 222272, Note_off_c, 0, 51, 67
2, 222336, Note_off_c, 0, 51, 67
2, 222336, Note_on_c, 0, 63, 67
2, 222400, Note_off_c, 0, 63, 67
2, 222464, Note_off_c, 0, 63, 67
2, 222464, Note_on_c, 0, 50, 67
2, 222528, Note_off_c, 0, 50, 67
2, 222592, Note_off_c, 0, 50, 67
2, 222592, Note_on_c, 0, 62, 67
2, 222656, Note_off_c, 0, 62, 67
2, 222720, Note_off_c, 0, 62, 67
2, 222720, Note_on_c, 0, 48, 67
2, 222784, Note_off_c, 0, 48, 67
2, 222848, Note_off_c, 0, 48, 67
2, 222848, Note_on_c, 0, 60, 67
2, 222912, Note_off_c, 0, 60, 67
2, 222976, Note_off_c, 0, 60, 67
2, 222976, Note_on_c, 0, 46, 67
2, 223040, Note_off_c, 0, 46, 67
2, 223104, Note_off_c, 0, 46, 67
2, 223104, Note_on_c, 0, 58, 67
2, 223168, Note_off_c, 0, 58, 67
2, 223232, Note_off_c, 0, 58, 67
2, 223232, Note_on_c, 0, 51, 67
2, 223296, Note_off_c, 0, 51, 67
2, 223360, Note_off_c, 0, 51, 67
2, 223360, Note_on_c, 0, 63, 67
2, 223424, Note_off_c, 0, 63, 67
2, 223488, Note_off_c, 0, 63, 67
2, 223488, Note_on_c, 0, 46, 67
2, 223552, Note_off_c, 0, 46, 67
2, 223616, Note_off_c, 0, 46, 67
2, 223616, Note_on_c, 0, 58, 67
2, 223680, Note_off_c, 0, 58, 67
2, 223744, Note_off_c, 0, 58, 67
2, 223744, Note_on_c, 0, 48, 67
2, 223808, Note_off_c, 0, 48, 67
2, 223872, Note_off_c, 0, 48, 67
2, 223872, Note_on_c, 0, 60, 67
2, 223936, Note_off_c, 0, 60, 67
2, 224000, Note_off_c, 0, 60, 67
2, 224000, Note_on_c, 0, 46, 67
2, 224064, Note_off_c, 0, 46, 67
2, 224128, Note_off_c, 0, 46, 67
2, 224128, Note_on_c, 0, 58, 67
2, 224192, Note_off_c, 0, 58, 67
2, 224256, Note_off_c, 0, 58, 67
2, 224256, Note_on_c, 0, 50, 67
2, 224320, Note_off_c, 0, 50, 67
2, 224384, Note_off_c, 0, 50, 67
2, 224384, Note_on_c, 0, 62, 67
2, 224448, Note_off_c, 0, 62, 67
2, 224512, Note_off_c, 0, 62, 67
2, 224512, Note_on_c, 0, 46, 67
2, 224576, Note_off_c, 0, 46, 67
2, 224640, Note_off_c, 0, 46, 67
2, 224640, Note_on_c, 0, 58, 67
2, 224704, Note_off_c, 0, 58, 67
2, 224768, Note_off_c, 0, 58, 67
2, 224768, Note_on_c, 0, 48, 67
2, 224832, Note_off_c, 0, 48, 67
2, 224896, Note_off_c, 0, 48, 67
2, 224896, Note_on_c, 0, 60, 67
2, 224960, Note_off_c, 0, 60, 67
2, 225024, Note_off_c, 0, 60, 67
2, 225024, Note_on_c, 0, 49, 67
2, 225088, Note_off_c, 0, 49, 67
2, 225152, Note_off_c, 0, 49, 67
2, 225152, Note_on_c, 0, 61, 67
2, 225216, Note_off_c, 0, 61, 67
2, 225280, Note_off_c, 0, 61, 67
2, 225280, Note_on_c, 0, 50, 67
2, 225344, Note_off_c, 0, 50, 67
2, 225408, Note_off_c, 0, 50, 67
2, 225408, Note_on_c, 0, 62, 67
2, 225472, Note_off_c, 0, 62, 67
2, 225536, Note_off_c, 0, 62, 67
2, 225536, Note_on_c, 0, 46, 67
2, 225600, Note_off_c, 0, 46, 67
2, 225664, Note_off_c, 0, 46, 67
2, 225664, Note_on_c, 0, 58, 67
2, 225728, Note_off_c, 0, 58, 67
2, 225792, Note_off_c, 0, 58, 67
2, 225792, Note_on_c, 0, 51, 67
2, 225856, Note_off_c, 0, 51, 67
2, 225920, Note_off_c, 0, 51, 67
2, 225920, Note_on_c, 0, 63, 67
2, 225984, Note_off_c, 0, 63, 67
2, 226048, Note_off_c, 0, 63, 67
2, 226048, Note_on_c, 0, 46, 67
2, 226112, Note_off_c, 0, 46, 67
2, 226176, Note_off_c, 0, 46, 67
2, 226176, Note_on_c, 0, 58, 67
2, 226240, Note_off_c, 0, 58, 67
2, 226304, Note_off_c, 0, 58, 67
2, 226304, Note_on_c, 0, 51, 67
2, 226368, Note_off_c, 0, 51, 67
2, 226432, Note_off_c, 0, 51, 67
2, 226432, Note_on_c, 0, 63, 67
2, 226496, Note_off_c, 0, 63, 67
2, 226560, Note_off_c, 0, 63, 67
2, 226560, Note_on_c, 0, 50, 67
2, 226624, Note_off_c, 0, 50, 67
2, 226688, Note_off_c, 0, 50, 67
2, 226688, Note_on_c, 0, 62, 67
2, 226752, Note_off_c, 0, 62, 67
2, 226816, Note_off_c, 0, 62, 67
2, 226816, Note_on_c, 0, 48, 67
2, 226880, Note_off_c, 0, 48, 67
2, 226944, Note_off_c, 0, 48, 67
2, 226944, Note_on_c, 0, 60, 67
2, 227008, Note_off_c, 0, 60, 67
2, 227072, Note_off_c, 0, 60, 67
2, 227072, Note_on_c, 0, 46, 67
2, 227136, Note_off_c, 0, 46, 67
2, 227200, Note_off_c, 0, 46, 67
2, 227200, Note_on_c, 0, 58, 67
2, 227264, Note_off_c, 0, 58, 67
2, 227328, Note_off_c, 0, 58, 67
2, 227328, Note_on_c, 0, 51, 67
2, 227392, Note_off_c, 0, 51, 67
2, 227456, Note_off_c, 0, 51, 67
2, 227456, Note_on_c, 0, 63, 67
2, 227520, Note_off_c, 0, 63, 67
2, 227584, Note_off_c, 0, 63, 67
2, 227584, Note_on_c, 0, 46, 67
2, 227648, Note_off_c, 0, 46, 67
2, 227712, Note_off_c, 0, 46, 67
2, 227712, Note_on_c, 0, 58, 67
2, 227776, Note_off_c, 0, 58, 67
2, 227840, Note_off_c, 0, 58, 67
2, 227840, Note_on_c, 0, 48, 67
2, 227904, Note_off_c, 0, 48, 67
2, 227968, Note_off_c, 0, 48, 67
2, 227968, Note_on_c, 0, 60, 67
2, 228032, Note_off_c, 0, 60, 67
2, 228096, Note_off_c, 0, 60, 67
2, 228096, Note_on_c, 0, 46, 67
2, 228160, Note_off_c, 0, 46, 67
2, 228224, Note_off_c, 0, 46, 67
2, 228224, Note_on_c, 0, 58, 67
2, 228288, Note_off_c, 0, 58, 67
2, 228352, Note_off_c, 0, 58, 67
2, 228352, Note_on_c, 0, 50, 67
2, 228416, Note_off_c, 0, 50, 67
2, 228480, Note_off_c, 0, 50, 67
2, 228480, Note_on_c, 0, 62, 67
2, 228544, Note_off_c, 0, 62, 67
2, 228608, Note_off_c, 0, 62, 67
2, 228608, Note_on_c, 0, 48, 67
2, 228672, Note_off_c, 0, 48, 67
2, 228736, Note_off_c, 0, 48, 67
2, 228736, Note_on_c, 0, 60, 67
2, 228800, Note_off_c, 0, 60, 67
2, 228864, Note_off_c, 0, 60, 67
2, 228864, Note_on_c, 0, 46, 67
2, 228928, Note_off_c, 0, 46, 67
2, 228992, Note_off_c, 0, 46, 67
2, 228992, Note_on_c, 0, 58, 67
2, 229056, Note_off_c, 0, 58, 67
2, 229120, Note_off_c, 0, 58, 67
2, 229120, Note_on_c, 0, 48, 67
2, 229184, Note_off_c, 0, 48, 67
2, 229248, Note_off_c, 0, 48, 67
2, 229248, Note_on_c, 0, 60, 67
2, 229312, Note_off_c, 0, 60, 67
2, 229376, Note_off_c, 0, 60, 67
2, 229376, Note_on_c, 0, 50, 67
2, 229440, Note_off_c, 0, 50, 67
2, 229504, Note_off_c, 0, 50, 67
2, 229504, Note_on_c, 0, 62, 67
2, 229568, Note_off_c, 0, 62, 67
2, 229632, Note_off_c, 0, 62, 67
2, 229632, Note_on_c, 0, 46, 67
2, 229696, Note_off_c, 0, 46, 67
2, 229760, Note_off_c, 0, 46, 67
2, 229760, Note_on_c, 0, 58, 67
2, 229824, Note_off_c, 0, 58, 67
2, 229888, Note_off_c, 0, 58, 67
2, 229888, Note_on_c, 0, 51, 67
2, 229952, Note_off_c, 0, 51, 67
2, 230016, Note_off_c, 0, 51, 67
2, 230016, Note_on_c, 0, 63, 67
2, 230080, Note_off_c, 0, 63, 67
2, 230144, Note_off_c, 0, 63, 67
2, 230144, Note_on_c, 0, 46, 67
2, 230208, Note_off_c, 0, 46, 67
2, 230272, Note_off_c, 0, 46, 67
2, 230272, Note_on_c, 0, 58, 67
2, 230336, Note_off_c, 0, 58, 67
2, 230400, Note_off_c, 0, 58, 67
2, 230400, Note_on_c, 0, 39, 67
2, 230464, Note_off_c, 0, 39, 67
2, 230464, Note_on_c, 0, 46, 67
2, 230528, Note_off_c, 0, 46, 67
2, 230528, Note_on_c, 0, 51, 67
2, 230592, Note_off_c, 0, 51, 67
2, 230592, Note_on_c, 0, 53, 67
2, 230656, Note_off_c, 0, 53, 67
2, 230656, Note_on_c, 0, 55, 67
2, 230720, Note_off_c, 0, 55, 67
2, 230720, Note_on_c, 0, 51, 67
2, 230784, Note_off_c, 0, 51, 67
2, 230784, Note_on_c, 0, 58, 67
2, 230848, Note_off_c, 0, 58, 67
2, 230848, Note_on_c, 0, 63, 67
2, 230896, Control_c, 0, 93, 0
2, 230912, Note_off_c, 0, 63, 67
2, 230912, Note_on_c, 0, 44, 67
2, 230976, Note_off_c, 0, 44, 67
2, 230976, Note_on_c, 0, 51, 67
2, 231040, Note_off_c, 0, 51, 67
2, 231040, Note_on_c, 0, 56, 67
2, 231104, Note_off_c, 0, 56, 67
2, 231104, Note_on_c, 0, 58, 67
2, 231168, Note_off_c, 0, 58, 67
2, 231168, Note_on_c, 0, 60, 67
2, 231232, Note_off_c, 0, 60, 67
2, 231232, Note_on_c, 0, 56, 67
2, 231296, Note_off_c, 0, 56, 67
2, 231296, Note_on_c, 0, 63, 67
2, 231360, Note_off_c, 0, 63, 67
2, 231360, Note_on_c, 0, 68, 67
2, 231408, Control_c, 0, 93, 0
2, 231424, Note_off_c, 0, 68, 67
2, 231424, Note_on_c, 0, 46, 67
2, 231488, Note_off_c, 0, 46, 67
2, 231488, Note_on_c, 0, 53, 67
2, 231552, Note_off_c, 0, 53, 67
2, 231552, Note_on_c, 0, 58, 67
2, 231616, Note_off_c, 0, 58, 67
2, 231616, Note_on_c, 0, 60, 67
2, 231680, Note_off_c, 0, 60, 67
2, 231680, Note_on_c, 0, 62, 67
2, 231744, Note_off_c, 0, 62, 67
2, 231744, Note_on_c, 0, 58, 67
2, 231808, Note_off_c, 0, 58, 67
2, 231808, Note_on_c, 0, 65, 67
2, 231872, Note_off_c, 0, 65, 67
2, 231872, Note_on_c, 0, 70, 67
2, 231920, Control_c, 0, 93, 0
2, 231936, Note_off_c, 0, 70, 67
2, 231936, Note_on_c, 0, 41, 67
2, 232000, Note_off_c, 0, 41, 67
2, 232000, Note_on_c, 0, 44, 67
2, 232064, Note_off_c, 0, 44, 67
2, 232064, Control_c, 0, 64, 64
2, 232064, Note_on_c, 0, 50, 67
2, 232085, Note_off_c, 0, 50, 67
2, 232085, Note_on_c, 0, 53, 67
2, 232106, Note_off_c, 0, 53, 67
2, 232106, Note_on_c, 0, 58, 67
2, 232127, Note_off_c, 0, 58, 67
2, 232128, Control_c, 0, 93, 0
2, 232128, Note_on_c, 0, 62, 67
2, 232149, Note_off_c, 0, 62, 67
2, 232149, Note_on_c, 0, 65, 67
2, 232170, Note_off_c, 0, 65, 67
2, 232170, Note_on_c, 0, 70, 67
2, 232192, Control_c, 0, 93, 0
2, 232192, Control_c, 0, 64, 0
2, 232320, Note_off_c, 0, 70, 67
2, 232320, Note_on_c, 0, 51, 67
2, 232384, Note_off_c, 0, 51, 67
2, 232384, Note_on_c, 0, 46, 67
2, 232448, Note_off_c, 0, 46, 67
2, 232448, Note_on_c, 0, 39, 67
2, 232512, Note_off_c, 0, 39, 67
2, 232512, Note_on_c, 0, 46, 67
2, 232576, Note_off_c, 0, 46, 67
2, 232576, Note_on_c, 0, 51, 67
2, 232640, Note_off_c, 0, 51, 67
2, 232640, Note_on_c, 0, 53, 67
2, 232704, Note_off_c, 0, 53, 67
2, 232704, Note_on_c, 0, 55, 67
2, 232768, Note_off_c, 0, 55, 67
2, 232768, Note_on_c, 0, 51, 67
2, 232832, Note_off_c, 0, 51, 67
2, 232832, Note_on_c, 0, 58, 67
2, 232896, Note_off_c, 0, 58, 67
2, 232896, Note_on_c, 0, 63, 67
2, 232944, Control_c, 0, 93, 0
2, 232960, Note_off_c, 0, 63, 67
2, 232960, Note_on_c, 0, 44, 67
2, 233024, Note_off_c, 0, 44, 67
2, 233024, Note_on_c, 0, 51, 67
2, 233088, Note_off_c, 0, 51, 67
2, 233088, Note_on_c, 0, 56, 67
2, 233152, Note_off_c, 0, 56, 67
2, 233152, Note_on_c, 0, 58, 67
2, 233216, Note_off_c, 0, 58, 67
2, 233216, Note_on_c, 0, 60, 67
2, 233280, Note_off_c, 0, 60, 67
2, 233280, Note_on_c, 0, 56, 67
2, 233344, Note_off_c, 0, 56, 67
2, 233344, Note_on_c, 0, 63, 67
2, 233408, Note_off_c, 0, 63, 67
2, 233408, Note_on_c, 0, 68, 67
2, 233456, Control_c, 0, 93, 0
2, 233472, Note_off_c, 0, 68, 67
2, 233472, Note_on_c, 0, 46, 67
2, 233536, Note_off_c, 0, 46, 67
2, 233536, Note_on_c, 0, 53, 67
2, 233600, Note_off_c, 0, 53, 67
2, 233600, Note_on_c, 0, 58, 67
2, 233664, Note_off_c, 0, 58, 67
2, 233664, Note_on_c, 0, 60, 67
2, 233728, Note_off_c, 0, 60, 67
2, 233728, Note_on_c, 0, 62, 67
2, 233792, Note_off_c, 0, 62, 67
2, 233792, Note_on_c, 0, 58, 67
2, 233856, Note_off_c, 0, 58, 67
2, 233856, Note_on_c, 0, 65, 67
2, 233920, Note_off_c, 0, 65, 67
2, 233920, Note_on_c, 0, 70, 67
2, 233968, Control_c, 0, 93, 0
2, 233984, Note_off_c, 0, 70, 67
2, 233984, Note_on_c, 0, 39, 67
2, 234048, Note_off_c, 0, 39, 67
2, 234048, Note_on_c, 0, 46, 67
2, 234112, Note_off_c, 0, 46, 67
2, 234112, Note_on_c, 0, 51, 67
2, 234176, Note_off_c, 0, 51, 67
2, 234176, Control_c, 0, 64, 64
2, 234176, Note_on_c, 0, 55, 67
2, 234186, Note_off_c, 0, 55, 67
2, 234186, Note_on_c, 0, 58, 67
2, 234197, Note_off_c, 0, 58, 67
2, 234197, Note_on_c, 0, 63, 67
2, 234207, Note_off_c, 0, 63, 67
2, 234208, Control_c, 0, 93, 0
2, 234208, Note_on_c, 0, 67, 67
2, 234218, Note_off_c, 0, 67, 67
2, 234218, Note_on_c, 0, 70, 67
2, 234229, Note_off_c, 0, 70, 67
2, 234229, Note_on_c, 0, 75, 67
2, 234239, Note_off_c, 0, 75, 67
2, 234240, Control_c, 0, 93, 0
2, 234368, Control_c, 0, 93, 0
2, 234432, Control_c, 0, 93, 0
2, 234432, Control_c, 0, 64, 0
2, 234496, Control_c, 0, 93, 0
2, 234496, Note_on_c, 0, 51, 67
2, 234560, Note_off_c, 0, 51, 67
2, 234624, Note_off_c, 0, 51, 67
2, 234624, Note_on_c, 0, 63, 67
2, 234688, Note_off_c, 0, 63, 67
2, 234752, Note_off_c, 0, 63, 67
2, 234752, Note_on_c, 0, 50, 67
2, 234816, Note_off_c, 0, 50, 67
2, 234880, Note_off_c, 0, 50, 67
2, 234880, Note_on_c, 0, 62, 67
2, 234944, Note_off_c, 0, 62, 67
2, 235008, Note_off_c, 0, 62, 67
2, 235008, Note_on_c, 0, 48, 67
2, 235072, Note_off_c, 0, 48, 67
2, 235136, Note_off_c, 0, 48, 67
2, 235136, Note_on_c, 0, 60, 67
2, 235200, Note_off_c, 0, 60, 67
2, 235264, Note_off_c, 0, 60, 67
2, 235264, Note_on_c, 0, 46, 67
2, 235328, Note_off_c, 0, 46, 67
2, 235392, Note_off_c, 0, 46, 67
2, 235392, Note_on_c, 0, 58, 67
2, 235456, Note_off_c, 0, 58, 67
2, 235520, Note_off_c, 0, 58, 67
2, 235520, Note_on_c, 0, 51, 67
2, 235584, Note_off_c, 0, 51, 67
2, 235648, Note_off_c, 0, 51, 67
2, 235648, Note_on_c, 0, 63, 67
2, 235712, Note_off_c, 0, 63, 67
2, 235776, Note_off_c, 0, 63, 67
2, 235776, Note_on_c, 0, 46, 67
2, 235840, Note_off_c, 0, 46, 67
2, 235904, Note_off_c, 0, 46, 67
2, 235904, Note_on_c, 0, 58, 67
2, 235968, Note_off_c, 0, 58, 67
2, 236032, Note_off_c, 0, 58, 67
2, 236032, Note_on_c, 0, 48, 67
2, 236096, Note_off_c, 0, 48, 67
2, 236160, Note_off_c, 0, 48, 67
2, 236160, Note_on_c, 0, 60, 67
2, 236224, Note_off_c, 0, 60, 67
2, 236288, Note_off_c, 0, 60, 67
2, 236288, Note_on_c, 0, 46, 67
2, 236352, Note_off_c, 0, 46, 67
2, 236416, Note_off_c, 0, 46, 67
2, 236416, Note_on_c, 0, 58, 67
2, 236480, Note_off_c, 0, 58, 67
2, 236544, Note_off_c, 0, 58, 67
2, 236544, Note_on_c, 0, 50, 67
2, 236608, Note_off_c, 0, 50, 67
2, 236672, Note_off_c, 0, 50, 67
2, 236672, Note_on_c, 0, 62, 67
2, 236736, Note_off_c, 0, 62, 67
2, 236800, Note_off_c, 0, 62, 67
2, 236800, Note_on_c, 0, 46, 67
2, 236864, Note_off_c, 0, 46, 67
2, 236928, Note_off_c, 0, 46, 67
2, 236928, Note_on_c, 0, 58, 67
2, 236992, Note_off_c, 0, 58, 67
2, 237056, Note_off_c, 0, 58, 67
2, 237056, Note_on_c, 0, 48, 67
2, 237120, Note_off_c, 0, 48, 67
2, 237184, Note_off_c, 0, 48, 67
2, 237184, Note_on_c, 0, 60, 67
2, 237248, Note_off_c, 0, 60, 67
2, 237312, Note_off_c, 0, 60, 67
2, 237312, Note_on_c, 0, 49, 67
2, 237376, Note_off_c, 0, 49, 67
2, 237440, Note_off_c, 0, 49, 67
2, 237440, Note_on_c, 0, 61, 67
2, 237504, Note_off_c, 0, 61, 67
2, 237568, Note_off_c, 0, 61, 67
2, 237568, Note_on_c, 0, 50, 67
2, 237632, Note_off_c, 0, 50, 67
2, 237696, Note_off_c, 0, 50, 67
2, 237696, Note_on_c, 0, 62, 67
2, 237760, Note_off_c, 0, 62, 67
2, 237824, Note_off_c, 0, 62, 67
2, 237824, Note_on_c, 0, 46, 67
2, 237888, Note_off_c, 0, 46, 67
2, 237952, Note_off_c, 0, 46, 67
2, 237952, Note_on_c, 0, 58, 67
2, 238016, Note_off_c, 0, 58, 67
2, 238080, Note_off_c, 0, 58, 67
2, 238080, Note_on_c, 0, 51, 67
2, 238144, Note_off_c, 0, 51, 67
2, 238208, Note_off_c, 0, 51, 67
2, 238208, Note_on_c, 0, 63, 67
2, 238272, Note_off_c, 0, 63, 67
2, 238336, Note_off_c, 0, 63, 67
2, 238336, Note_on_c, 0, 46, 67
2, 238400, Note_off_c, 0, 46, 67
2, 238464, Note_off_c, 0, 46, 67
2, 238464, Note_on_c, 0, 58, 67
2, 238528, Note_off_c, 0, 58, 67
2, 238592, Note_off_c, 0, 58, 67
2, 238592, Note_on_c, 0, 51, 67
2, 238656, Note_off_c, 0, 51, 67
2, 238720, Note_off_c, 0, 51, 67
2, 238720, Note_on_c, 0, 63, 67
2, 238784, Note_off_c, 0, 63, 67
2, 238848, Note_off_c, 0, 63, 67
2, 238848, Note_on_c, 0, 50, 67
2, 238912, Note_off_c, 0, 50, 67
2, 238976, Note_off_c, 0, 50, 67
2, 238976, Note_on_c, 0, 62, 67
2, 239040, Note_off_c, 0, 62, 67
2, 239104, Note_off_c, 0, 62, 67
2, 239104, Note_on_c, 0, 48, 67
2, 239168, Note_off_c, 0, 48, 67
2, 239232, Note_off_c, 0, 48, 67
2, 239232, Note_on_c, 0, 60, 67
2, 239296, Note_off_c, 0, 60, 67
2, 239360, Note_off_c, 0, 60, 67
2, 239360, Note_on_c, 0, 46, 67
2, 239424, Note_off_c, 0, 46, 67
2, 239488, Note_off_c, 0, 46, 67
2, 239488, Note_on_c, 0, 58, 67
2, 239552, Note_off_c, 0, 58, 67
2, 239616, Note_off_c, 0, 58, 67
2, 239616, Note_on_c, 0, 51, 67
2, 239680, Note_off_c, 0, 51, 67
2, 239744, Note_off_c, 0, 51, 67
2, 239744, Note_on_c, 0, 63, 67
2, 239808, Note_off_c, 0, 63, 67
2, 239872, Note_off_c, 0, 63, 67
2, 239872, Note_on_c, 0, 46, 67
2, 239936, Note_off_c, 0, 46, 67
2, 240000, Note_off_c, 0, 46, 67
2, 240000, Note_on_c, 0, 58, 67
2, 240064, Note_off_c, 0, 58, 67
2, 240128, Note_off_c, 0, 58, 67
2, 240128, Note_on_c, 0, 48, 67
2, 240192, Note_off_c, 0, 48, 67
2, 240256, Note_off_c, 0, 48, 67
2, 240256, Note_on_c, 0, 60, 67
2, 240320, Note_off_c, 0, 60, 67
2, 240384, Note_off_c, 0, 60, 67
2, 240384, Note_on_c, 0, 46, 67
2, 240448, Note_off_c, 0, 46, 67
2, 240512, Note_off_c, 0, 46, 67
2, 240512, Note_on_c, 0, 58, 67
2, 240576, Note_off_c, 0, 58, 67
2, 240640, Note_off_c, 0, 58, 67
2, 240640, Note_on_c, 0, 50, 67
2, 240704, Note_off_c, 0, 50, 67
2, 240768, Note_off_c, 0, 50, 67
2, 240768, Note_on_c, 0, 62, 67
2, 240832, Note_off_c, 0, 62, 67
2, 240896, Note_off_c, 0, 62, 67
2, 240896, Note_on_c, 0, 48, 67
2, 240960, Note_off_c, 0, 48, 67
2, 241024, Note_off_c, 0, 48, 67
2, 241024, Note_on_c, 0, 60, 67
2, 241088, Note_off_c, 0, 60, 67
2, 241152, Note_off_c, 0, 60, 67
2, 241152, Note_on_c, 0, 46, 67
2, 241216, Note_off_c, 0, 46, 67
2, 241280, Note_off_c, 0, 46, 67
2, 241280, Note_on_c, 0, 58, 67
2, 241344, Note_off_c, 0, 58, 67
2, 241408, Note_off_c, 0, 58, 67
2, 241408, Note_on_c, 0, 48, 67
2, 241472, Note_off_c, 0, 48, 67
2, 241536, Note_off_c, 0, 48, 67
2, 241536, Note_on_c, 0, 60, 67
2, 241600, Note_off_c, 0, 60, 67
2, 241664, Note_off_c, 0, 60, 67
2, 241664, Note_on_c, 0, 50, 67
2, 241728, Note_off_c, 0, 50, 67
2, 241792, Note_off_c, 0, 50, 67
2, 241792, Note_on_c, 0, 62, 67
2, 241856, Note_off_c, 0, 62, 67
2, 241920, Note_off_c, 0, 62, 67
2, 241920, Note_on_c, 0, 46, 67
2, 241984, Note_off_c, 0, 46, 67
2, 242048, Note_off_c, 0, 46, 67
2, 242048, Note_on_c, 0, 58, 67
2, 242112, Note_off_c, 0, 58, 67
2, 242176, Note_off_c, 0, 58, 67
2, 242176, Note_on_c, 0, 51, 67
2, 242240, Note_off_c, 0, 51, 67
2, 242304, Note_off_c, 0, 51, 67
2, 242304, Note_on_c, 0, 63, 67
2, 242368, Note_off_c, 0, 63, 67
2, 242432, Note_off_c, 0, 63, 67
2, 242432, Note_on_c, 0, 46, 67
2, 242496, Note_off_c, 0, 46, 67
2, 242560, Note_off_c, 0, 46, 67
2, 242560, Note_on_c, 0, 58, 67
2, 242624, Note_off_c, 0, 58, 67
2, 242688, Note_off_c, 0, 58, 67
2, 242688, Note_on_c, 0, 39, 67
2, 242752, Note_off_c, 0, 39, 67
2, 242752, Note_on_c, 0, 46, 67
2, 242816, Note_off_c, 0, 46, 67
2, 242816, Note_on_c, 0, 51, 67
2, 242880, Note_off_c, 0, 51, 67
2, 242880, Note_on_c, 0, 53, 67
2, 242944, Note_off_c, 0, 53, 67
2, 242944, Note_on_c, 0, 55, 67
2, 243008, Note_off_c, 0, 55, 67
2, 243008, Note_on_c, 0, 51, 67
2, 243072, Note_off_c, 0, 51, 67
2, 243072, Note_on_c, 0, 58, 67
2, 243136, Note_off_c, 0, 58, 67
2, 243136, Note_on_c, 0, 63, 67
2, 243184, Control_c, 0, 93, 0
2, 243200, Note_off_c, 0, 63, 67
2, 243200, Note_on_c, 0, 44, 67
2, 243264, Note_off_c, 0, 44, 67
2, 243264, Note_on_c, 0, 51, 67
2, 243328, Note_off_c, 0, 51, 67
2, 243328, Note_on_c, 0, 56, 67
2, 243392, Note_off_c, 0, 56, 67
2, 243392, Note_on_c, 0, 58, 67
2, 243456, Note_off_c, 0, 58, 67
2, 243456, Note_on_c, 0, 60, 67
2, 243520, Note_off_c, 0, 60, 67
2, 243520, Note_on_c, 0, 56, 67
2, 243584, Note_off_c, 0, 56, 67
2, 243584, Note_on_c, 0, 63, 67
2, 243648, Note_off_c, 0, 63, 67
2, 243648, Note_on_c, 0, 68, 67
2, 243696, Control_c, 0, 93, 0
2, 243712, Note_off_c, 0, 68, 67
2, 243712, Note_on_c, 0, 46, 67
2, 243776, Note_off_c, 0, 46, 67
2, 243776, Note_on_c, 0, 53, 67
2, 243840, Note_off_c, 0, 53, 67
2, 243840, Note_on_c, 0, 58, 67
2, 243904, Note_off_c, 0, 58, 67
2, 243904, Note_on_c, 0, 60, 67
2, 243968, Note_off_c, 0, 60, 67
2, 243968, Note_on_c, 0, 62, 67
2, 244032, Note_off_c, 0, 62, 67
2, 244032, Note_on_c, 0, 58, 67
2, 244096, Note_off_c, 0, 58, 67
2, 244096, Note_on_c, 0, 65, 67
2, 244160, Note_off_c, 0, 65, 67
2, 244160, Note_on_c, 0, 70, 67
2, 244208, Control_c, 0, 93, 0
2, 244224, Note_off_c, 0, 70, 67
2, 244224, Note_on_c, 0, 41, 67
2, 244288, Note_off_c, 0, 41, 67
2, 244288, Note_on_c, 0, 44, 67
2, 244352, Note_off_c, 0, 44, 67
2, 244352, Control_c, 0, 64, 64
2, 244352, Note_on_c, 0, 50, 67
2, 244373, Note_off_c, 0, 50, 67
2, 244373, Note_on_c, 0, 53, 67
2, 244394, Note_off_c, 0, 53, 67
2, 244394, Note_on_c, 0, 58, 67
2, 244415, Note_off_c, 0, 58, 67
2, 244416, Control_c, 0, 93, 0
2, 244416, Note_on_c, 0, 62, 67
2, 244437, Note_off_c, 0, 62, 67
2, 244437, Note_on_c, 0, 65, 67
2, 244458, Note_off_c, 0, 65, 67
2, 244458, Note_on_c, 0, 70, 67
2, 244480, Control_c, 0, 93, 0
2, 244480, Control_c, 0, 64, 0
2, 244608, Note_off_c, 0, 70, 67
2, 244608, Note_on_c, 0, 51, 67
2, 244672, Note_off_c, 0, 51, 67
2, 244672, Note_on_c, 0, 46, 67
2, 244736, Note_off_c, 0, 46, 67
2, 244736, Note_on_c, 0, 39, 67
2, 244800, Note_off_c, 0, 39, 67
2, 244800, Note_on_c, 0, 46, 67
2, 244864, Note_off_c, 0, 46, 67
2, 244864, Note_on_c, 0, 51, 67
2, 244928, Note_off_c, 0, 51, 67
2, 244928, Note_on_c, 0, 53, 67
2, 244992, Note_off_c, 0, 53, 67
2, 244992, Note_on_c, 0, 55, 67
2, 245056, Note_off_c, 0, 55, 67
2, 245056, Note_on_c, 0, 51, 67
2, 245120, Note_off_c, 0, 51, 67
2, 245120, Note_on_c, 0, 58, 67
2, 245184, Note_off_c, 0, 58, 67
2, 245184, Note_on_c, 0, 63, 67
2, 245232, Control_c, 0, 93, 0
2, 245248, Note_off_c, 0, 63, 67
2, 245248, Note_on_c, 0, 44, 67
2, 245312, Note_off_c, 0, 44, 67
2, 245312, Note_on_c, 0, 51, 67
2, 245376, Note_off_c, 0, 51, 67
2, 245376, Note_on_c, 0, 56, 67
2, 245440, Note_off_c, 0, 56, 67
2, 245440, Note_on_c, 0, 58, 67
2, 245504, Note_off_c, 0, 58, 67
2, 245504, Note_on_c, 0, 60, 67
2, 245568, Note_off_c, 0, 60, 67
2, 245568, Note_on_c, 0, 56, 67
2, 245632, Note_off_c, 0, 56, 67
2, 245632, Note_on_c, 0, 63, 67
2, 245696, Note_off_c, 0, 63, 67
2, 245696, Note_on_c, 0, 68, 67
2, 245744, Control_c, 0, 93, 0
2, 245760, Note_off_c, 0, 68, 67
2, 245760, Note_on_c, 0, 46, 67
2, 245824, Note_off_c, 0, 46, 67
2, 245824, Note_on_c, 0, 53, 67
2, 245888, Note_off_c, 0, 53, 67
2, 245888, Note_on_c, 0, 58, 67
2, 245952, Note_off_c, 0, 58, 67
2, 245952, Note_on_c, 0, 60, 67
2, 246016, Note_off_c, 0, 60, 67
2, 246016, Note_on_c, 0, 62, 67
2, 246080, Note_off_c, 0, 62, 67
2, 246080, Note_on_c, 0, 58, 67
2, 246144, Note_off_c, 0, 58, 67
2, 246144, Note_on_c, 0, 65, 67
2, 246208, Note_off_c, 0, 65, 67
2, 246208, Note_on_c, 0, 70, 67
2, 246256, Control_c, 0, 93, 0
2, 246272, Note_off_c, 0, 70, 67
2, 246272, Note_on_c, 0, 39, 67
2, 246336, Note_off_c, 0, 39, 67
2, 246336, Note_on_c, 0, 46, 67
2, 246400, Note_off_c, 0, 46, 67
2, 246400, Note_on_c, 0, 51, 67
2, 246464, Note_off_c, 0, 51, 67
2, 246464, Control_c, 0, 64, 64
2, 246464, Note_on_c, 0, 55, 67
2, 246474, Note_off_c, 0, 55, 67
2, 246474, Note_on_c, 0, 58, 67
2, 246485, Note_off_c, 0, 58, 67
2, 246485, Note_on_c, 0, 63, 67
2, 246495, Note_off_c, 0, 63, 67
2, 246496, Control_c, 0, 93, 0
2, 246496, Note_on_c, 0, 67, 67
2, 246506, Note_off_c, 0, 67, 67
2, 246506, Note_on_c, 0, 70, 67
2, 246517, Note_off_c, 0, 70, 67
2, 246517, Note_on_c, 0, 75, 67
2, 246527, Note_off_c, 0, 75, 67
2, 246528, Control_c, 0, 93, 0
2, 246656, Control_c, 0, 93, 0
2, 246720, Control_c, 0, 93, 0
2, 246720, Control_c, 0, 64, 0
2, 246784, Control_c, 0, 93, 0
2, 246784, Note_on_c, 0, 51, 67
2, 246848, Note_off_c, 0, 51, 67
2, 246912, Note_off_c, 0, 51, 67
2, 246912, Note_on_c, 0, 63, 67
2, 246976, Note_off_c, 0, 63, 67
2, 247040, Note_off_c, 0, 63, 67
2, 247040, Note_on_c, 0, 50, 67
2, 247104, Note_off_c, 0, 50, 67
2, 247168, Note_off_c, 0, 50, 67
2, 247168, Note_on_c, 0, 62, 67
2, 247232, Note_off_c, 0, 62, 67
2, 247296, Note_off_c, 0, 62, 67
2, 247296, Note_on_c, 0, 48, 67
2, 247360, Note_off_c, 0, 48, 67
2, 247424, Note_off_c, 0, 48, 67
2, 247424, Note_on_c, 0, 60, 67
2, 247488, Note_off_c, 0, 60, 67
2, 247552, Note_off_c, 0, 60, 67
2, 247552, Note_on_c, 0, 46, 67
2, 247616, Note_off_c, 0, 46, 67
2, 247680, Note_off_c, 0, 46, 67
2, 247680, Note_on_c, 0, 58, 67
2, 247744, Note_off_c, 0, 58, 67
2, 247808, Note_off_c, 0, 58, 67
2, 247808, Note_on_c, 0, 51, 67
2, 247872, Note_off_c, 0, 51, 67
2, 247936, Note_off_c, 0, 51, 67
2, 247936, Note_on_c, 0, 63, 67
2, 248000, Note_off_c, 0, 63, 67
2, 248064, Note_off_c, 0, 63, 67
2, 248064, Note_on_c, 0, 46, 67
2, 248128, Note_off_c, 0, 46, 67
2, 248192, Note_off_c, 0, 46, 67
2, 248192, Note_on_c, 0, 58, 67
2, 248256, Note_off_c, 0, 58, 67
2, 248320, Note_off_c, 0, 58, 67
2, 248320, Note_on_c, 0, 48, 67
2, 248384, Note_off_c, 0, 48, 67
2, 248448, Note_off_c, 0, 48, 67
2, 248448, Note_on_c, 0, 60, 67
2, 248512, Note_off_c, 0, 60, 67
2, 248576, Note_off_c, 0, 60, 67
2, 248576, Note_on_c, 0, 46, 67
2, 248640, Note_off_c, 0, 46, 67
2, 248704, Note_off_c, 0, 46, 67
2, 248704, Note_on_c, 0, 58, 67
2, 248768, Note_off_c, 0, 58, 67
2, 248832, Note_off_c, 0, 58, 67
2, 248832, Note_on_c, 0, 50, 67
2, 248896, Note_off_c, 0, 50, 67
2, 248960, Note_off_c, 0, 50, 67
2, 248960, Note_on_c, 0, 62, 67
2, 249024, Note_off_c, 0, 62, 67
2, 249088, Note_off_c, 0, 62, 67
2, 249088, Note_on_c, 0, 46, 67
2, 249152, Note_off_c, 0, 46, 67
2, 249216, Note_off_c, 0, 46, 67
2, 249216, Note_on_c, 0, 58, 67
2, 249280, Note_off_c, 0, 58, 67
2, 249344, Note_off_c, 0, 58, 67
2, 249344, Note_on_c, 0, 48, 67
2, 249408, Note_off_c, 0, 48, 67
2, 249472, Note_off_c, 0, 48, 67
2, 249472, Note_on_c, 0, 60, 67
2, 249536, Note_off_c, 0, 60, 67
2, 249600, Note_off_c, 0, 60, 67
2, 249600, Note_on_c, 0, 49, 67
2, 249664, Note_off_c, 0, 49, 67
2, 249728, Note_off_c, 0, 49, 67
2, 249728, Note_on_c, 0, 61, 67
2, 249792, Note_off_c, 0, 61, 67
2, 249856, Note_off_c, 0, 61, 67
2, 249856, Note_on_c, 0, 50, 67
2, 249920, Note_off_c, 0, 50, 67
2, 249984, Note_off_c, 0, 50, 67
2, 249984, Note_on_c, 0, 62, 67
2, 250048, Note_off_c, 0, 62, 67
2, 250112, Note_off_c, 0, 62, 67
2, 250112, Note_on_c, 0, 46, 67
2, 250176, Note_off_c, 0, 46, 67
2, 250240, Note_off_c, 0, 46, 67
2, 250240, Note_on_c, 0, 58, 67
2, 250304, Note_off_c, 0, 58, 67
2, 250368, Note_off_c, 0, 58, 67
2, 250368, Note_on_c, 0, 51, 67
2, 250432, Note_off_c, 0, 51, 67
2, 250496, Note_off_c, 0, 51, 67
2, 250496, Note_on_c, 0, 63, 67
2, 250560, Note_off_c, 0, 63, 67
2, 250624, Note_off_c, 0, 63, 67
2, 250624, Note_on_c, 0, 46, 67
2, 250688, Note_off_c, 0, 46, 67
2, 250752, Note_off_c, 0, 46, 67
2, 250752, Note_on_c, 0, 58, 67
2, 250816, Note_off_c, 0, 58, 67
2, 250880, Note_off_c, 0, 58, 67
2, 250880, Note_on_c, 0, 51, 67
2, 250944, Note_off_c, 0, 51, 67
2, 251008, Note_off_c, 0, 51, 67
2, 251008, Note_on_c, 0, 63, 67
2, 251072, Note_off_c, 0, 63, 67
2, 251136, Note_off_c, 0, 63, 67
2, 251136, Note_on_c, 0, 50, 67
2, 251200, Note_off_c, 0, 50, 67
2, 251264, Note_off_c, 0, 50, 67
2, 251264, Note_on_c, 0, 62, 67
2, 251328, Note_off_c, 0, 62, 67
2, 251392, Note_off_c, 0, 62, 67
2, 251392, Note_on_c, 0, 48, 67
2, 251456, Note_off_c, 0, 48, 67
2, 251520, Note_off_c, 0, 48, 67
2, 251520, Note_on_c, 0, 60, 67
2, 251584, Note_off_c, 0, 60, 67
2, 251648, Note_off_c, 0, 60, 67
2, 251648, Note_on_c, 0, 46, 67
2, 251712, Note_off_c, 0, 46, 67
2, 251776, Note_off_c, 0, 46, 67
2, 251776, Note_on_c, 0, 58, 67
2, 251840, Note_off_c, 0, 58, 67
2, 251904, Note_off_c, 0, 58, 67
2, 251904, Note_on_c, 0, 51, 67
2, 251968, Note_off_c, 0, 51, 67
2, 252032, Note_off_c, 0, 51, 67
2, 252032, Note_on_c, 0, 63, 67
2, 252096, Note_off_c, 0, 63, 67
2, 252160, Note_off_c, 0, 63, 67
2, 252160, Note_on_c, 0, 46, 67
2, 252224, Note_off_c, 0, 46, 67
2, 252288, Note_off_c, 0, 46, 67
2, 252288, Note_on_c, 0, 58, 67
2, 252352, Note_off_c, 0, 58, 67
2, 252416, Note_off_c, 0, 58, 67
2, 252416, Note_on_c, 0, 48, 67
2, 252480, Note_off_c, 0, 48, 67
2, 252544, Note_off_c, 0, 48, 67
2, 252544, Note_on_c, 0, 60, 67
2, 252608, Note_off_c, 0, 60, 67
2, 252672, Note_off_c, 0, 60, 67
2, 252672, Note_on_c, 0, 46, 67
2, 252736, Note_off_c, 0, 46, 67
2, 252800, Note_off_c, 0, 46, 67
2, 252800, Note_on_c, 0, 58, 67
2, 252864, Note_off_c, 0, 58, 67
2, 252928, Note_off_c, 0, 58, 67
2, 252928, Note_on_c, 0, 50, 67
2, 252992, Note_off_c, 0, 50, 67
2, 253056, Note_off_c, 0, 50, 67
2, 253056, Note_on_c, 0, 62, 67
2, 253120, Note_off_c, 0, 62, 67
2, 253184, Note_off_c, 0, 62, 67
2, 253184, Note_on_c, 0, 48, 67
2, 253248, Note_off_c, 0, 48, 67
2, 253312, Note_off_c, 0, 48, 67
2, 253312, Note_on_c, 0, 60, 67
2, 253376, Note_off_c, 0, 60, 67
2, 253440, Note_off_c, 0, 60, 67
2, 253440, Note_on_c, 0, 46, 67
2, 253504, Note_off_c, 0, 46, 67
2, 253568, Note_off_c, 0, 46, 67
2, 253568, Note_on_c, 0, 58, 67
2, 253632, Note_off_c, 0, 58, 67
2, 253696, Note_off_c, 0, 58, 67
2, 253696, Note_on_c, 0, 48, 67
2, 253760, Note_off_c, 0, 48, 67
2, 253824, Note_off_c, 0, 48, 67
2, 253824, Note_on_c, 0, 60, 67
2, 253888, Note_off_c, 0, 60, 67
2, 253952, Note_off_c, 0, 60, 67
2, 253952, Note_on_c, 0, 50, 67
2, 254016, Note_off_c, 0, 50, 67
2, 254080, Note_off_c, 0, 50, 67
2, 254080, Note_on_c, 0, 62, 67
2, 254144, Note_off_c, 0, 62, 67
2, 254208, Note_off_c, 0, 62, 67
2, 254208, Note_on_c, 0, 46, 67
2, 254272, Note_off_c, 0, 46, 67
2, 254336, Note_off_c, 0, 46, 67
2, 254336, Note_on_c, 0, 58, 67
2, 254400, Note_off_c, 0, 58, 67
2, 254464, Note_off_c, 0, 58, 67
2, 254464, Note_on_c, 0, 51, 67
2, 254528, Note_off_c, 0, 51, 67
2, 254592, Note_off_c, 0, 51, 67
2, 254592, Note_on_c, 0, 63, 67
2, 254656, Note_off_c, 0, 63, 67
2, 254720, Note_off_c, 0, 63, 67
2, 254720, Note_on_c, 0, 46, 67
2, 254784, Note_off_c, 0, 46, 67
2, 254848, Note_off_c, 0, 46, 67
2, 254848, Note_on_c, 0, 58, 67
2, 254912, Note_off_c, 0, 58, 67
2, 254976, Note_off_c, 0, 58, 67
2, 254976, Note_on_c, 0, 39, 67
2, 255040, Note_off_c, 0, 39, 67
2, 255040, Note_on_c, 0, 46, 67
2, 255104, Note_off_c, 0, 46, 67
2, 255104, Note_on_c, 0, 51, 67
2, 255168, Note_off_c, 0, 51, 67
2, 255168, Note_on_c, 0, 53, 67
2, 255232, Note_off_c, 0, 53, 67
2, 255232, Note_on_c, 0, 55, 67
2, 255296, Note_off_c, 0, 55, 67
2, 255296, Note_on_c, 0, 51, 67
2, 255360, Note_off_c, 0, 51, 67
2, 255360, Note_on_c, 0, 58, 67
2, 255424, Note_off_c, 0, 58, 67
2, 255424, Note_on_c, 0, 63, 67
2, 255472, Control_c, 0, 93, 0
2, 255488, Note_off_c, 0, 63, 67
2, 255488, Note_on_c, 0, 44, 67
2, 255552, Note_off_c, 0, 44, 67
2, 255552, Note_on_c, 0, 51, 67
2, 255616, Note_off_c, 0, 51, 67
2, 255616, Note_on_c, 0, 56, 67
2, 255680, Note_off_c, 0, 56, 67
2, 255680, Note_on_c, 0, 58, 67
2, 255744, Note_off_c, 0, 58, 67
2, 255744, Note_on_c, 0, 60, 67
2, 255808, Note_off_c, 0, 60, 67
2, 255808, Note_on_c, 0, 56, 67
2, 255872, Note_off_c, 0, 56, 67
2, 255872, Note_on_c, 0, 63, 67
2, 255936, Note_off_c, 0, 63, 67
2, 255936, Note_on_c, 0, 68, 67
2, 255984, Control_c, 0, 93, 0
2, 256000, Note_off_c, 0, 68, 67
2, 256000, Note_on_c, 0, 46, 67
2, 256064, Note_off_c, 0, 46, 67
2, 256064, Note_on_c, 0, 53, 67
2, 256128, Note_off_c, 0, 53, 67
2, 256128, Note_on_c, 0, 58, 67
2, 256192, Note_off_c, 0, 58, 67
2, 256192, Note_on_c, 0, 60, 67
2, 256256, Note_off_c, 0, 60, 67
2, 256256, Note_on_c, 0, 62, 67
2, 256320, Note_off_c, 0, 62, 67
2, 256320, Note_on_c, 0, 58, 67
2, 256384, Note_off_c, 0, 58, 67
2, 256384, Note_on_c, 0, 65, 67
2, 256448, Note_off_c, 0, 65, 67
2, 256448, Note_on_c, 0, 70, 67
2, 256496, Control_c, 0, 93, 0
2, 256512, Note_off_c, 0, 70, 67
2, 256512, Note_on_c, 0, 41, 67
2, 256576, Note_off_c, 0, 41, 67
2, 256576, Note_on_c, 0, 44, 67
2, 256640, Note_off_c, 0, 44, 67
2, 256640, Control_c, 0, 64, 64
2, 256640, Note_on_c, 0, 50, 67
2, 256661, Note_off_c, 0, 50, 67
2, 256661, Note_on_c, 0, 53, 67
2, 256682, Note_off_c, 0, 53, 67
2, 256682, Note_on_c, 0, 58, 67
2, 256703, Note_off_c, 0, 58, 67
2, 256704, Control_c, 0, 93, 0
2, 256704, Note_on_c, 0, 62, 67
2, 256725, Note_off_c, 0, 62, 67
2, 256725, Note_on_c, 0, 65, 67
2, 256746, Note_off_c, 0, 65, 67
2, 256746, Note_on_c, 0, 70, 67
2, 256768, Control_c, 0, 93, 0
2, 256768, Control_c, 0, 64, 0
2, 256896, Note_off_c, 0, 70, 67
2, 256896, Note_on_c, 0, 51, 67
2, 256960, Note_off_c, 0, 51, 67
2, 256960, Note_on_c, 0, 46, 67
2, 257024, Note_off_c, 0, 46, 67
2, 257024, Note_on_c, 0, 39, 67
2, 257088, Note_off_c, 0, 39, 67
2, 257088, Note_on_c, 0, 46, 67
2, 257152, Note_off_c, 0, 46, 67
2, 257152, Note_on_c, 0, 51, 67
2, 257216, Note_off_c, 0, 51, 67
2, 257216, Note_on_c, 0, 53, 67
2, 257280, Note_off_c, 0, 53, 67
2, 257280, Note_on_c, 0, 55, 67
2, 257344, Note_off_c, 0, 55, 67
2, 257344, Note_on_c, 0, 51, 67
2, 257408, Note_off_c, 0, 51, 67
2, 257408, Note_on_c, 0, 58, 67
2, 257472, Note_off_c, 0, 58, 67
2, 257472, Note_on_c, 0, 63, 67
2, 257520, Control_c, 0, 93, 0
2, 257536, Note_off_c, 0, 63, 67
2, 257536, Note_on_c, 0, 44, 67
2, 257600, Note_off_c, 0, 44, 67
2, 257600, Note_on_c, 0, 51, 67
2, 257664, Note_off_c, 0, 51, 67
2, 257664, Note_on_c, 0, 56, 67
2, 257728, Note_off_c, 0, 56, 67
2, 257728, Note_on_c, 0, 58, 67
2, 257792, Note_off_c, 0, 58, 67
2, 257792, Note_on_c, 0, 60, 67
2, 257856, Note_off_c, 0, 60, 67
2, 257856, Note_on_c, 0, 56, 67
2, 257920, Note_off_c, 0, 56, 67
2, 257920, Note_on_c, 0, 63, 67
2, 257984, Note_off_c, 0, 63, 67
2, 257984, Note_on_c, 0, 68, 67
2, 258032, Control_c, 0, 93, 0
2, 258048, Note_off_c, 0, 68, 67
2, 258048, Note_on_c, 0, 46, 67
2, 258112, Note_off_c, 0, 46, 67
2, 258112, Note_on_c, 0, 53, 67
2, 258176, Note_off_c, 0, 53, 67
2, 258176, Note_on_c, 0, 58, 67
2, 258240, Note_off_c, 0, 58, 67
2, 258240, Note_on_c, 0, 60, 67
2, 258304, Note_off_c, 0, 60, 67
2, 258304, Note_on_c, 0, 62, 67
2, 258368, Note_off_c, 0, 62, 67
2, 258368, Note_on_c, 0, 58, 67
2, 258432, Note_off_c, 0, 58, 67
2, 258432, Note_on_c, 0, 65, 67
2, 258496, Note_off_c, 0, 65, 67
2, 258496, Note_on_c, 0, 70, 67
2, 258544, Control_c, 0, 93, 0
2, 258560, Note_off_c, 0, 70, 67
2, 258560, Note_on_c, 0, 39, 67
2, 258624, Note_off_c, 0, 39, 67
2, 258624, Note_on_c, 0, 46, 67
2, 258688, Note_off_c, 0, 46, 67
2, 258688, Note_on_c, 0, 51, 67
2, 258752, Note_off_c, 0, 51, 67
2, 258752, Control_c, 0, 64, 64
2, 258752, Note_on_c, 0, 55, 67
2, 258762, Note_off_c, 0, 55, 67
2, 258762, Note_on_c, 0, 58, 67
2, 258773, Note_off_c, 0, 58, 67
2, 258773, Note_on_c, 0, 63, 67
2, 258783, Note_off_c, 0, 63, 67
2, 258784, Control_c, 0, 93, 0
2, 258784, Note_on_c, 0, 67, 67
2, 258794, Note_off_c, 0, 67, 67
2, 258794, Note_on_c, 0, 70, 67
2, 258805, Note_off_c, 0, 70, 67
2, 258805, Note_on_c, 0, 75, 67
2, 258815, Note_off_c, 0, 75, 67
2, 258816, Control_c, 0, 93, 0
2, 258944, Control_c, 0, 93, 0
2, 259008, Control_c, 0, 93, 0
2, 259008, Control_c, 0, 64, 0
2, 259072, Control_c, 0, 93, 0
2, 259072, Note_on_c, 0, 51, 67
2, 259136, Note_off_c, 0, 51, 67
2, 259200, Note_off_c, 0, 51, 67
2, 259200, Note_on_c, 0, 63, 67
2, 259264, Note_off_c, 0, 63, 67
2, 259328, Note_off_c, 0, 63, 67
2, 259328, Note_on_c, 0, 50, 67
2, 259392, Note_off_c, 0, 50, 67
2, 259456, Note_off_c, 0, 50, 67
2, 259456, Note_on_c, 0, 62, 67
2, 259520, Note_off_c, 0, 62, 67
2, 259584, Note_off_c, 0, 62, 67
2, 259584, Note_on_c, 0, 48, 67
2, 259648, Note_off_c, 0, 48, 67
2, 259712, Note_off_c, 0, 48, 67
2, 259712, Note_on_c, 0, 60, 67
2, 259776, Note_off_c, 0, 60, 67
2, 259840, Note_off_c, 0, 60, 67
2, 259840, Note_on_c, 0, 46, 67
2, 259904, Note_off_c, 0, 46, 67
2, 259968, Note_off_c, 0, 46, 67
2, 259968, Note_on_c, 0, 58, 67
2, 260032, Note_off_c, 0, 58, 67
2, 260096, Note_off_c, 0, 58, 67
2, 260096, Note_on_c, 0, 51, 67
2, 260160, Note_off_c, 0, 51, 67
2, 260224, Note_off_c, 0, 51, 67
2, 260224, Note_on_c, 0, 63, 67
2, 260288, Note_off_c, 0, 63, 67
2, 260352, Note_off_c, 0, 63, 67
2, 260352, Note_on_c, 0, 46, 67
2, 260416, Note_off_c, 0, 46, 67
2, 260480, Note_off_c, 0, 46, 67
2, 260480, Note_on_c, 0, 58, 67
2, 260544, Note_off_c, 0, 58, 67
2, 260608, Note_off_c, 0, 58, 67
2, 260608, Note_on_c, 0, 48, 67
2, 260672, Note_off_c, 0, 48, 67
2, 260736, Note_off_c, 0, 48, 67
2, 260736, Note_on_c, 0, 60, 67
2, 260800, Note_off_c, 0, 60, 67
2, 260864, Note_off_c, 0, 60, 67
2, 260864, Note_on_c, 0, 46, 67
2, 260928, Note_off_c, 0, 46, 67
2, 260992, Note_off_c, 0, 46, 67
2, 260992, Note_on_c, 0, 58, 67
2, 261056, Note_off_c, 0, 58, 67
2, 261120, Note_off_c, 0, 58, 67
2, 261120, Note_on_c, 0, 50, 67
2, 261184, Note_off_c, 0, 50, 67
2, 261248, Note_off_c, 0, 50, 67
2, 261248, Note_on_c, 0, 62, 67
2, 261312, Note_off_c, 0, 62, 67
2, 261376, Note_off_c, 0, 62, 67
2, 261376, Note_on_c, 0, 46, 67
2, 261440, Note_off_c, 0, 46, 67
2, 261504, Note_off_c, 0, 46, 67
2, 261504, Note_on_c, 0, 58, 67
2, 261568, Note_off_c, 0, 58, 67
2, 261632, Note_off_c, 0, 58, 67
2, 261632, Note_on_c, 0, 48, 67
2, 261696, Note_off_c, 0, 48, 67
2, 261760, Note_off_c, 0, 48, 67
2, 261760, Note_on_c, 0, 60, 67
2, 261824, Note_off_c, 0, 60, 67
2, 261888, Note_off_c, 0, 60, 67
2, 261888, Note_on_c, 0, 49, 67
2, 261952, Note_off_c, 0, 49, 67
2, 262016, Note_off_c, 0, 49, 67
2, 262016, Note_on_c, 0, 61, 67
2, 262080, Note_off_c, 0, 61, 67
2, 262144, Note_off_c, 0, 61, 67
2, 262144, Note_on_c, 0, 50, 67
2, 262208, Note_off_c, 0, 50, 67
2, 262272, Note_off_c, 0, 50, 67
2, 262272, Note_on_c, 0, 62, 67
2, 262336, Note_off_c, 0, 62, 67
2, 262400, Note_off_c, 0, 62, 67
2, 262400, Note_on_c, 0, 46, 67
2, 262464, Note_off_c, 0, 46, 67
2, 262528, Note_off_c, 0, 46, 67
2, 262528, Note_on_c, 0, 58, 67
2, 262592, Note_off_c, 0, 58, 67
2, 262656, Note_off_c, 0, 58, 67
2, 262656, Note_on_c, 0, 51, 67
2, 262720, Note_off_c, 0, 51, 67
2, 262784, Note_off_c, 0, 51, 67
2, 262784, Note_on_c, 0, 63, 67
2, 262848, Note_off_c, 0, 63, 67
2, 262912, Note_off_c, 0, 63, 67
2, 262912, Note_on_c, 0, 46, 67
2, 262976, Note_off_c, 0, 46, 67
2, 263040, Note_off_c, 0, 46, 67
2, 263040, Note_on_c, 0, 58, 67
2, 263104, Note_off_c, 0, 58, 67
2, 263168, Note_off_c, 0, 58, 67
2, 263168, Note_on_c, 0, 51, 67
2, 263232, Note_off_c, 0, 51, 67
2, 263296, Note_off_c, 0, 51, 67
2, 263296, Note_on_c, 0, 63, 67
2, 263360, Note_off_c, 0, 63, 67
2, 263424, Note_off_c, 0, 63, 67
2, 263424, Note_on_c, 0, 50, 67
2, 263488, Note_off_c, 0, 50, 67
2, 263552, Note_off_c, 0, 50, 67
2, 263552, Note_on_c, 0, 62, 67
2, 263616, Note_off_c, 0, 62, 67
2, 263680, Note_off_c, 0, 62, 67
2, 263680, Note_on_c, 0, 48, 67
2, 263744, Note_off_c, 0, 48, 67
2, 263808, Note_off_c, 0, 48, 67
2, 263808, Note_on_c, 0, 60, 67
2, 263872, Note_off_c, 0, 60, 67
2, 263936, Note_off_c, 0, 60, 67
2, 263936, Note_on_c, 0, 46, 67
2, 264000, Note_off_c, 0, 46, 67
2, 264064, Note_off_c, 0, 46, 67
2, 264064, Note_on_c, 0, 58, 67
2, 264128, Note_off_c, 0, 58, 67
2, 264192, Note_off_c, 0, 58, 67
2, 264192, Note_on_c, 0, 51, 67
2, 264256, Note_off_c, 0, 51, 67
2, 264320, Note_off_c, 0, 51, 67
2, 264320, Note_on_c, 0, 63, 67
2, 264384, Note_off_c, 0, 63, 67
2, 264448, Note_off_c, 0, 63, 67
2, 264448, Note_on_c, 0, 46, 67
2, 264512, Note_off_c, 0, 46, 67
2, 264576, Note_off_c, 0, 46, 67
2, 264576, Note_on_c, 0, 58, 67
2, 264640, Note_off_c, 0, 58, 67
2, 264704, Note_off_c, 0, 58, 67
2, 264704, Note_on_c, 0, 48, 67
2, 264768, Note_off_c, 0, 48, 67
2, 264832, Note_off_c, 0, 48, 67
2, 264832, Note_on_c, 0, 60, 67
2, 264896, Note_off_c, 0, 60, 67
2, 264960, Note_off_c, 0, 60, 67
2, 264960, Note_on_c, 0, 46, 67
2, 265024, Note_off_c, 0, 46, 67
2, 265088, Note_off_c, 0, 46, 67
2, 265088, Note_on_c, 0, 58, 67
2, 265152, Note_off_c, 0, 58, 67
2, 265216, Note_off_c, 0, 58, 67
2, 265216, Note_on_c, 0, 50, 67
2, 265280, Note_off_c, 0, 50, 67
2, 265344, Note_off_c, 0, 50, 67
2, 265344, Note_on_c, 0, 62, 67
2, 265408, Note_off_c, 0, 62, 67
2, 265472, Note_off_c, 0, 62, 67
2, 265472, Note_on_c, 0, 48, 67
2, 265536, Note_off_c, 0, 48, 67
2, 265600, Note_off_c, 0, 48, 67
2, 265600, Note_on_c, 0, 60, 67
2, 265664, Note_off_c, 0, 60, 67
2, 265728, Note_off_c, 0, 60, 67
2, 265728, Note_on_c, 0, 46, 67
2, 265792, Note_off_c, 0, 46, 67
2, 265856, Note_off_c, 0, 46, 67
2, 265856, Note_on_c, 0, 58, 67
2, 265920, Note_off_c, 0, 58, 67
2, 265984, Note_off_c, 0, 58, 67
2, 265984, Note_on_c, 0, 48, 67
2, 266048, Note_off_c, 0, 48, 67
2, 266112, Note_off_c, 0, 48, 67
2, 266112, Note_on_c, 0, 60, 67
2, 266176, Note_off_c, 0, 60, 67
2, 266240, Note_off_c, 0, 60, 67
2, 266240, Note_on_c, 0, 50, 67
2, 266304, Note_off_c, 0, 50, 67
2, 266368, Note_off_c, 0, 50, 67
2, 266368, Note_on_c, 0, 62, 67
2, 266432, Note_off_c, 0, 62, 67
2, 266496, Note_off_c, 0, 62, 67
2, 266496, Note_on_c, 0, 46, 67
2, 266560, Note_off_c, 0, 46, 67
2, 266624, Note_off_c, 0, 46, 67
2, 266624, Note_on_c, 0, 58, 67
2, 266688, Note_off_c, 0, 58, 67
2, 266752, Note_off_c, 0, 58, 67
2, 266752, Note_on_c, 0, 51, 67
2, 266816, Note_off_c, 0, 51, 67
2, 266880, Note_off_c, 0, 51, 67
2, 266880, Note_on_c, 0, 63, 67
2, 266944, Note_off_c, 0, 63, 67
2, 267008, Note_off_c, 0, 63, 67
2, 267008, Note_on_c, 0, 46, 67
2, 267072, Note_off_c, 0, 46, 67
2, 267136, Note_off_c, 0, 46, 67
2, 267136, Note_on_c, 0, 58, 67
2, 267200, Note_off_c, 0, 58, 67
2, 267264, Note_off_c, 0, 58, 67
2, 267264, Note_on_c, 0, 39, 67
2, 267328, Note_off_c, 0, 39, 67
2, 267328, Note_on_c, 0, 46, 67
2, 267392, Note_off_c, 0, 46, 67
2, 267392, Note_on_c, 0, 51, 67
2, 267456, Note_off_c, 0, 51, 67
2, 267456, Note_on_c, 0, 53, 67
2, 267520, Note_off_c, 0, 53, 67
2, 267520, Note_on_c, 0, 55, 67
2, 267584, Note_off_c, 0, 55, 67
2, 267584, Note_on_c, 0, 51, 67
2, 267648, Note_off_c, 0, 51, 67
2, 267648, Note_on_c, 0, 58, 67
2, 267712, Note_off_c, 0, 58, 67
2, 267712, Note_on_c, 0, 63, 67
2, 267760, Control_c, 0, 93, 0
2, 267776, Note_off_c, 0, 63, 67
2, 267776, Note_on_c, 0, 44, 67
2, 267840, Note_off_c, 0, 44, 67
2, 267840, Note_on_c, 0, 51, 67
2, 267904, Note_off_c, 0, 51, 67
2, 267904, Note_on_c, 0, 56, 67
2, 267968, Note_off_c, 0, 56, 67
2, 267968, Note_on_c, 0, 58, 67
2, 268032, Note_off_c, 0, 58, 67
2, 268032, Note_on_c, 0, 60, 67
2, 268096, Note_off_c, 0, 60, 67
2, 268096, Note_on_c, 0, 56, 67
2, 268160, Note_off_c, 0, 56, 67
2, 268160, Note_on_c, 0, 63, 67
2, 268224, Note_off_c, 0, 63, 67
2, 268224, Note_on_c, 0, 68, 67
2, 268272, Control_c, 0, 93, 0
2, 268288, Note_off_c, 0, 68, 67
2, 268288, Note_on_c, 0, 46, 67
2, 268352, Note_off_c, 0, 46, 67
2, 268352, Note_on_c, 0, 53, 67
2, 268416, Note_off_c, 0, 53, 67
2, 268416, Note_on_c, 0, 58, 67
2, 268480, Note_off_c, 0, 58, 67
2, 268480, Note_on_c, 0, 60, 67
2, 268544, Note_off_c, 0, 60, 67
2, 268544, Note_on_c, 0, 62, 67
2, 268608, Note_off_c, 0, 62, 67
2, 268608, Note_on_c, 0, 58, 67
2, 268672, Note_off_c, 0, 58, 67
2, 268672, Note_on_c, 0, 65, 67
2, 268736, Note_off_c, 0, 65, 67
2, 268736, Note_on_c, 0, 70, 67
2, 268784, Control_c, 0, 93, 0
2, 268800, Note_off_c, 0, 70, 67
2, 268800, Note_on_c, 0, 41, 67
2, 268864, Note_off_c, 0, 41, 67
2, 268864, Note_on_c, 0, 44, 67
2, 268928, Note_off_c, 0, 44, 67
2, 268928, Control_c, 0, 64, 64
2, 268928, Note_on_c, 0, 50, 67
2, 268949, Note_off_c, 0, 50, 67
2, 268949, Note_on_c, 0, 53, 67
2, 268970, Note_off_c, 0, 53, 67
2, 268970, Note_on_c, 0, 58, 67
2, 268991, Note_off_c, 0, 58, 67
2, 268992, Control_c, 0, 93, 0
2, 268992, Note_on_c, 0, 62, 67
2, 269013, Note_off_c, 0, 62, 67
2, 269013, Note_on_c, 0, 65, 67
2, 269034, Note_off_c, 0, 65, 67
2, 269034, Note_on_c, 0, 70, 67
2, 269056, Control_c, 0, 93, 0
2, 269056, Control_c, 0, 64, 0
2, 269184, Note_off_c, 0, 70, 67
2, 269184, Note_on_c, 0, 51, 67
2, 269248, Note_off_c, 0, 51, 67
2, 269248, Note_on_c, 0, 46, 67
2, 269312, Note_off_c, 0, 46, 67
2, 269312, Note_on_c, 0, 39, 67
2, 269376, Note_off_c, 0, 39, 67
2, 269376, Note_on_c, 0, 46, 67
2, 269440, Note_off_c, 0, 46, 67
2, 269440, Note_on_c, 0, 51, 67
2, 269504, Note_off_c, 0, 51, 67
2, 269504, Note_on_c, 0, 53, 67
2, 269568, Note_off_c, 0, 53, 67
2, 269568, Note_on_c, 0, 55, 67
2, 269632, Note_off_c, 0, 55, 67
2, 269632, Note_on_c, 0, 51, 67
2, 269696, Note_off_c, 0, 51, 67
2, 269696, Note_on_c, 0, 58, 67
2, 269760, Note_off_c, 0, 58, 67
2, 269760, Note_on_c, 0, 63, 67
2, 269808, Control_c, 0, 93, 0
2, 269824, Note_off_c, 0, 63, 67
2, 269824, Note_on_c, 0, 44, 67
2, 269888, Note_off_c, 0, 44, 67
2, 269888, Note_on_c, 0, 51, 67
2, 269952, Note_off_c, 0, 51, 67
2, 269952, Note_on_c, 0, 56, 67
2, 270016, Note_off_c, 0, 56, 67
2, 270016, Note_on_c, 0, 58, 67
2, 270080, Note_off_c, 0, 58, 67
2, 270080, Note_on_c, 0, 60, 67
2, 270144, Note_off_c, 0, 60, 67
2, 270144, Note_on_c, 0, 56, 67
2, 270208, Note_off_c, 0, 56, 67
2, 270208, Note_on_c, 0, 63, 67
2, 270272, Note_off_c, 0, 63, 67
2, 270272, Note_on_c, 0, 68, 67
2, 270320, Control_c, 0, 93, 0
2, 270336, Note_off_c, 0, 68, 67
2, 270336, Note_on_c, 0, 46, 67
2, 270400, Note_off_c, 0, 46, 67
2, 270400, Note_on_c, 0, 53, 67
2, 270464, Note_off_c, 0, 53, 67
2, 270464, Note_on_c, 0, 58, 67
2, 270528, Note_off_c, 0, 58, 67
2, 270528, Note_on_c, 0, 60, 67
2, 270592, Note_off_c, 0, 60, 67
2, 270592, Note_on_c, 0, 62, 67
2, 270656, Note_off_c, 0, 62, 67
2, 270656, Note_on_c, 0, 58, 67
2, 270720, Note_off_c, 0, 58, 67
2, 270720, Note_on_c, 0, 65, 67
2, 270784, Note_off_c, 0, 65, 67
2, 270784, Note_on_c, 0, 70, 67
2, 270832, Control_c, 0, 93, 0
2, 270848, Note_off_c, 0, 70, 67
2, 270848, Note_on_c, 0, 39, 67
2, 270912, Note_off_c, 0, 39, 67
2, 270912, Note_on_c, 0, 46, 67
2, 270976, Note_off_c, 0, 46, 67
2, 270976, Note_on_c, 0, 51, 67
2, 271040, Note_off_c, 0, 51, 67
2, 271040, Control_c, 0, 64, 64
2, 271040, Note_on_c, 0, 55, 67
2, 271050, Note_off_c, 0, 55, 67
2, 271050, Note_on_c, 0, 58, 67
2, 271061, Note_off_c, 0, 58, 67
2, 271061, Note_on_c, 0, 63, 67
2, 271071, Note_off_c, 0, 63, 67
2, 271072, Control_c, 0, 93, 0
2, 271072, Note_on_c, 0, 67, 67
2, 271082, Note_off_c, 0, 67, 67
2, 271082, Note_on_c, 0, 70, 67
2, 271093, Note_off_c, 0, 70, 67
2, 271093, Note_on_c, 0, 75, 67
2, 271103, Note_off_c, 0, 75, 67
2, 271104, Control_c, 0, 93, 0
2, 271232, Control_c, 0, 93, 0
2, 271296, Control_c, 0, 93, 0
2, 271296, Control_c, 0, 64, 0
2, 271360, Control_c, 0, 93, 0
2, 271360, Note_on_c, 0, 51, 67
2, 271424, Note_off_c, 0, 51, 67
2, 271488, Note_off_c, 0, 51, 67
2, 271488, Note_on_c, 0, 63, 67
2, 271552, Note_off_c, 0, 63, 67
2, 271616, Note_off_c, 0, 63, 67
2, 271616, Note_on_c, 0, 50, 67
2, 271680, Note_off_c, 0, 50, 67
2, 271744, Note_off_c, 0, 50, 67
2, 271744, Note_on_c, 0, 62, 67
2, 271808, Note_off_c, 0, 62, 67
2, 271872, Note_off_c, 0, 62, 67
2, 271872, Note_on_c, 0, 48, 67
2, 271936, Note_off_c, 0, 48, 67
2, 272000, Note_off_c, 0, 48, 67
2, 272000, Note_on_c, 0, 60, 67
2, 272064, Note_off_c, 0, 60, 67
2, 272128, Note_off_c, 0, 60, 67
2, 272128, Note_on_c, 0, 46, 67
2, 272192, Note_off_c, 0, 46, 67
2, 272256, Note_off_c, 0, 46, 67
2, 272256, Note_on_c, 0, 58, 67
2, 272320, Note_off_c, 0, 58, 67
2, 272384, Note_off_c, 0, 58, 67
2, 272384, Note_on_c, 0, 51, 67
2, 272448, Note_off_c, 0, 51, 67
2, 272512, Note_off_c, 0, 51, 67
2, 272512, Note_on_c, 0, 63, 67
2, 272576, Note_off_c, 0, 63, 67
2, 272640, Note_off_c, 0, 63, 67
2, 272640, Note_on_c, 0, 46, 67
2, 272704, Note_off_c, 0, 46, 67
2, 272768, Note_off_c, 0, 46, 67
2, 272768, Note_on_c, 0, 58, 67
2, 272832, Note_off_c, 0, 58, 67
2, 272896, Note_off_c, 0, 58, 67
2, 272896, Note_on_c, 0, 48, 67
2, 272960, Note_off_c, 0, 48, 67
2, 273024, Note_off_c, 0, 48, 67
2, 273024, Note_on_c, 0, 60, 67
2, 273088, Note_off_c, 0, 60, 67
2, 273152, Note_off_c, 0, 60, 67
2, 273152, Note_on_c, 0, 46, 67
2, 273216, Note_off_c, 0, 46, 67
2, 273280, Note_off_c, 0, 46, 67
2, 273280, Note_on_c, 0, 58, 67
2, 273344, Note_off_c, 0, 58, 67
2, 273408, Note_off_c, 0, 58, 67
2, 273408, Note_on_c, 0, 50, 67
2, 273472, Note_off_c, 0, 50, 67
2, 273536, Note_off_c, 0, 50, 67
2, 273536, Note_on_c, 0, 62, 67
2, 273600, Note_off_c, 0, 62, 67
2, 273664, Note_off_c, 0, 62, 67
2, 273664, Note_on_c, 0, 46, 67
2, 273728, Note_off_c, 0, 46, 67
2, 273792, Note_off_c, 0, 46, 67
2, 273792, Note_on_c, 0, 58, 67
2, 273856, Note_off_c, 0, 58, 67
2, 273920, Note_off_c, 0, 58, 67
2, 273920, Note_on_c, 0, 48, 67
2, 273984, Note_off_c, 0, 48, 67
2, 274048, Note_off_c, 0, 48, 67
2, 274048, Note_on_c, 0, 60, 67
2, 274112, Note_off_c, 0, 60, 67
2, 274176, Note_off_c, 0, 60, 67
2, 274176, Note_on_c, 0, 49, 67
2, 274240, Note_off_c, 0, 49, 67
2, 274304, Note_off_c, 0, 49, 67
2, 274304, Note_on_c, 0, 61, 67
2, 274368, Note_off_c, 0, 61, 67
2, 274432, Note_off_c, 0, 61, 67
2, 274432, Note_on_c, 0, 50, 67
2, 274496, Note_off_c, 0, 50, 67
2, 274560, Note_off_c, 0, 50, 67
2, 274560, Note_on_c, 0, 62, 67
2, 274624, Note_off_c, 0, 62, 67
2, 274688, Note_off_c, 0, 62, 67
2, 274688, Note_on_c, 0, 46, 67
2, 274752, Note_off_c, 0, 46, 67
2, 274816, Note_off_c, 0, 46, 67
2, 274816, Note_on_c, 0, 58, 67
2, 274880, Note_off_c, 0, 58, 67
2, 274944, Note_off_c, 0, 58, 67
2, 274944, Note_on_c, 0, 51, 67
2, 275008, Note_off_c, 0, 51, 67
2, 275072, Note_off_c, 0, 51, 67
2, 275072, Note_on_c, 0, 63, 67
2, 275136, Note_off_c, 0, 63, 67
2, 275200, Note_off_c, 0, 63, 67
2, 275200, Note_on_c, 0, 46, 67
2, 275264, Note_off_c, 0, 46, 67
2, 275328, Note_off_c, 0, 46, 67
2, 275328, Note_on_c, 0, 58, 67
2, 275392, Note_off_c, 0, 58, 67
2, 275456, Note_off_c, 0, 58, 67
2, 275456, Note_on_c, 0, 51, 67
2, 275520, Note_off_c, 0, 51, 67
2, 275584, Note_off_c, 0, 51, 67
2, 275584, Note_on_c, 0, 63, 67
2, 275648, Note_off_c, 0, 63, 67
2, 275712, Note_off_c, 0, 63, 67
2, 275712, Note_on_c, 0, 50, 67
2, 275776, Note_off_c, 0, 50, 67
2, 275840, Note_off_c, 0, 50, 67
2, 275840, Note_on_c, 0, 62, 67
2, 275904, Note_off_c, 0, 62, 67
2, 275968, Note_off_c, 0, 62, 67
2, 275968, Note_on_c, 0, 48, 67
2, 276032, Note_off_c, 0, 48, 67
2, 276096, Note_off_c, 0, 48, 67
2, 276096, Note_on_c, 0, 60, 67
2, 276160, Note_off_c, 0, 60, 67
2, 276224, Note_off_c, 0, 60, 67
2, 276224, Note_on_c, 0, 46, 67
2, 276288, Note_off_c, 0, 46, 67
2, 276352, Note_off_c, 0, 46, 67
2, 276352, Note_on_c, 0, 58, 67
2, 276416, Note_off_c, 0, 58, 67
2, 276480, Note_off_c, 0, 58, 67
2, 276480, Note_on_c, 0, 51, 67
2, 276544, Note_off_c, 0, 51, 67
2, 276608, Note_off_c, 0, 51, 67
2, 276608, Note_on_c, 0, 63, 67
2, 276672, Note_off_c, 0, 63, 67
2, 276736, Note_off_c, 0, 63, 67
2, 276736, Note_on_c, 0, 46, 67
2, 276800, Note_off_c, 0, 46, 67
2, 276864, Note_off_c, 0, 46, 67
2, 276864, Note_on_c, 0, 58, 67
2, 276928, Note_off_c, 0, 58, 67
2, 276992, Note_off_c, 0, 58, 67
2, 276992, Note_on_c, 0, 48, 67
2, 277056, Note_off_c, 0, 48, 67
2, 277120, Note_off_c, 0, 48, 67
2, 277120, Note_on_c, 0, 60, 67
2, 277184, Note_off_c, 0, 60, 67
2, 277248, Note_off_c, 0, 60, 67
2, 277248, Note_on_c, 0, 46, 67
2, 277312, Note_off_c, 0, 46, 67
2, 277376, Note_off_c, 0, 46, 67
2, 277376, Note_on_c, 0, 58, 67
2, 277440, Note_off_c, 0, 58, 67
2, 277504, Note_off_c, 0, 58, 67
2, 277504, Note_on_c, 0, 50, 67
2, 277568, Note_off_c, 0, 50, 67
2, 277632, Note_off_c, 0, 50, 67
2, 277632, Note_on_c, 0, 62, 67
2, 277696, Note_off_c, 0, 62, 67
2, 277760, Note_off_c, 0, 62, 67
2, 277760, Note_on_c, 0, 48, 67
2, 277824, Note_off_c, 0, 48, 67
2, 277888, Note_off_c, 0, 48, 67
2, 277888, Note_on_c, 0, 60, 67
2, 277952, Note_off_c, 0, 60, 67
2, 278016, Note_off_c, 0, 60, 67
2, 278016, Note_on_c, 0, 46, 67
2, 278080, Note_off_c, 0, 46, 67
2, 278144, Note_off_c, 0, 46, 67
2, 278144, Note_on_c, 0, 58, 67
2, 278208, Note_off_c, 0, 58, 67
2, 278272, Note_off_c, 0, 58, 67
2, 278272, Note_on_c, 0, 48, 67
2, 278336, Note_off_c, 0, 48, 67
2, 278400, Note_off_c, 0, 48, 67
2, 278400, Note_on_c, 0, 60, 67
2, 278464, Note_off_c, 0, 60, 67
2, 278528, Note_off_c, 0, 60, 67
2, 278528, Note_on_c, 0, 50, 67
2, 278592, Note_off_c, 0, 50, 67
2, 278656, Note_off_c, 0, 50, 67
2, 278656, Note_on_c, 0, 62, 67
2, 278720, Note_off_c, 0, 62, 67
2, 278784, Note_off_c, 0, 62, 67
2, 278784, Note_on_c, 0, 46, 67
2, 278848, Note_off_c, 0, 46, 67
2, 278912, Note_off_c, 0, 46, 67
2, 278912, Note_on_c, 0, 58, 67
2, 278976, Note_off_c, 0, 58, 67
2, 279040, Note_off_c, 0, 58, 67
2, 279040, Note_on_c, 0, 51, 67
2, 279104, Note_off_c, 0, 51, 67
2, 279168, Note_off_c, 0, 51, 67
2, 279168, Note_on_c, 0, 63, 67
2, 279232, Note_off_c, 0, 63, 67
2, 279296, Note_off_c, 0, 63, 67
2, 279296, Note_on_c, 0, 46, 67
2, 279360, Note_off_c, 0, 46, 67
2, 279424, Note_off_c, 0, 46, 67
2, 279424, Note_on_c, 0, 58, 67
2, 279488, Note_off_c, 0, 58, 67
2, 279552, Note_off_c, 0, 58, 67
2, 279552, Note_on_c, 0, 39, 67
2, 279616, Note_off_c, 0, 39, 67
2, 279616, Note_on_c, 0, 46, 67
2, 279680, Note_off_c, 0, 46, 67
2, 279680, Note_on_c, 0, 51, 67
2, 279744, Note_off_c, 0, 51, 67
2, 279744, Note_on_c, 0, 53, 67
2, 279808, Note_off_c, 0, 53, 67
2, 279808, Note_on_c, 0, 55, 67
2, 279872, Note_off_c, 0, 55, 67
2, 279872, Note_on_c, 0, 51, 67
2, 279936, Note_off_c, 0, 51, 67
2, 279936, Note_on_c, 0, 58, 67
2, 280000, Note_off_c, 0, 58, 67
2, 280000, Note_on_c, 0, 63, 67
2, 280048, Control_c, 0, 93, 0
2, 280064, Note_off_c, 0, 63, 67
2, 280064, Note_on_c, 0, 44, 67
2, 280128, Note_off_c, 0, 44, 67
2, 280128, Note_on_c, 0, 51, 67
2, 280192, Note_off_c, 0, 51, 67
2, 280192, Note_on_c, 0, 56, 67
2, 280256, Note_off_c, 0, 56, 67
2, 280256, Note_on_c, 0, 58, 67
2, 280320, Note_off_c, 0, 58, 67
2, 280320, Note_on_c, 0, 60, 67
2, 280384, Note_off_c, 0, 60, 67
2, 280384, Note_on_c, 0, 56, 67
2, 280448, Note_off_c, 0, 56, 67
2, 280448, Note_on_c, 0, 63, 67
2, 280512, Note_off_c, 0, 63, 67
2, 280512, Note_on_c, 0, 68, 67
2, 280560, Control_c, 0, 93, 0
2, 280576, Note_off_c, 0, 68, 67
2, 280576, Note_on_c, 0, 46, 67
2, 280640, Note_off_c, 0, 46, 67
2, 280640, Note_on_c, 0, 53, 67
2, 280704, Note_off_c, 0, 53, 67
2, 280704, Note_on_c, 0, 58, 67
2, 280768, Note_off_c, 0, 58, 67
2, 280768, Note_on_c, 0, 60, 67
2, 280832, Note_off_c, 0, 60, 67
2, 280832, Note_on_c, 0, 62, 67
2, 280896, Note_off_c, 0, 62, 67
2, 280896, Note_on_c, 0, 58, 67
2, 280960, Note_off_c, 0, 58, 67
2, 280960, Note_on_c, 0, 65, 67
2, 281024, Note_off_c, 0, 65, 67
2, 281024, Note_on_c, 0, 70, 67
2, 281072, Control_c, 0, 93, 0
2, 281088, Note_off_c, 0, 70, 67
2, 281088, Note_on_c, 0, 41, 67
2, 281152, Note_off_c, 0, 41, 67
2, 281152, Note_on_c, 0, 44, 67
2, 281216, Note_off_c, 0, 44, 67
2, 281216, Control_c, 0, 64, 64
2, 281216, Note_on_c, 0, 50, 67
2, 281237, Note_off_c, 0, 50, 67
2, 281237, Note_on_c, 0, 53, 67
2, 281258, Note_off_c, 0, 53, 67
2, 281258, Note_on_c, 0, 58, 67
2, 281279, Note_off_c, 0, 58, 67
2, 281280, Control_c, 0, 93, 0
2, 281280, Note_on_c, 0, 62, 67
2, 281301, Note_off_c, 0, 62, 67
2, 281301, Note_on_c, 0, 65, 67
2, 281322, Note_off_c, 0, 65, 67
2, 281322, Note_on_c, 0, 70, 67
2, 281344, Control_c, 0, 93, 0
2, 281344, Control_c, 0, 64, 0
2, 281472, Note_off_c, 0, 70, 67
2, 281472, Note_on_c, 0, 51, 67
2, 281536, Note_off_c, 0, 51, 67
2, 281536, Note_on_c, 0, 46, 67
2, 281600, Note_off_c, 0, 46, 67
2, 281600, Note_on_c, 0, 39, 67
2, 281664, Note_off_c, 0, 39, 67
2, 281664, Note_on_c, 0, 46, 67
2, 281728, Note_off_c, 0, 46, 67
2, 281728, Note_on_c, 0, 51, 67
2, 281792, Note_off_c, 0, 51, 67
2, 281792, Note_on_c, 0, 53, 67
2, 281856, Note_off_c, 0, 53, 67
2, 281856, Note_on_c, 0, 55, 67
2, 281920, Note_off_c, 0, 55, 67
2, 281920, Note_on_c, 0, 51, 67
2, 281984, Note_off_c, 0, 51, 67
2, 281984, Note_on_c, 0, 58, 67
2, 282048, Note_off_c, 0, 58, 67
2, 282048, Note_on_c, 0, 63, 67
2, 282096, Control_c, 0, 93, 0
2, 282112, Note_off_c, 0, 63, 67
2, 282112, Note_on_c, 0, 44, 67
2, 282176, Note_off_c, 0, 44, 67
2, 282176, Note_on_c, 0, 51, 67
2, 282240, Note_off_c, 0, 51, 67
2, 282240, Note_on_c, 0, 56, 67
2, 282304, Note_off_c, 0, 56, 67
2, 282304, Note_on_c, 0, 58, 67
2, 282368, Note_off_c, 0, 58, 67
2, 282368, Note_on_c, 0, 60, 67
2, 282432, Note_off_c, 0, 60, 67
2, 282432, Note_on_c, 0, 56, 67
2, 282496, Note_off_c, 0, 56, 67
2, 282496, Note_on_c, 0, 63, 67
2, 282560, Note_off_c, 0, 63, 67
2, 282560, Note_on_c, 0, 68, 67
2, 282608, Control_c, 0, 93, 0
2, 282624, Note_off_c, 0, 68, 67
2, 282624, Note_on_c, 0, 46, 67
2, 282688, Note_off_c, 0, 46, 67
2, 282688, Note_on_c, 0, 53, 67
2, 282752, Note_off_c, 0, 53, 67
2, 282752, Note_on_c, 0, 58, 67
2, 282816, Note_off_c, 0, 58, 67
2, 282816, Note_on_c, 0, 60, 67
2, 282880, Note_off_c, 0, 60, 67
2, 282880, Note_on_c, 0, 62, 67
2, 282944, Note_off_c, 0, 62, 67
2, 282944, Note_on_c, 0, 58, 67
2, 283008, Note_off_c, 0, 58, 67
2, 283008, Note_on_c, 0, 65, 67
2, 283072, Note_off_c, 0, 65, 67
2, 283072, Note_on_c, 0, 70, 67
2, 283120, Control_c, 0, 93, 0
2, 283136, Note_off_c, 0, 70, 67
2, 283136, Note_on_c, 0, 39, 67
2, 283200, Note_off_c, 0, 39, 67
2, 283200, Note_on_c, 0, 46, 67
2, 283264, Note_off_c, 0, 46, 67
2, 283264, Note_on_c, 0, 51, 67
2, 283328, Note_off_c, 0, 51, 67
2, 283328, Control_c, 0, 64, 64
2, 283328, Note_on_c, 0, 55, 67
2, 283338, Note_off_c, 0, 55, 67
2, 283338, Note_on_c, 0, 58, 67
2, 283349, Note_off_c, 0, 58, 67
2, 283349, Note_on_c, 0, 63, 67
2, 283359, Note_off_c, 0, 63, 67
2, 283360, Control_c, 0, 93, 0
2, 283360, Note_on_c, 0, 67, 67
2, 283370, Note_off_c, 0, 67, 67
2, 283370, Note_on_c, 0, 70, 67
2, 283381, Note_off_c, 0, 70, 67
2, 283381, Note_on_c, 0, 75, 67
2, 283391, Note_off_c, 0, 75, 67
2, 283392, Control_c, 0, 93, 0
2, 283520, Control_c, 0, 93, 0
2, 283584, Control_c, 0, 93, 0
2, 283584, Control_c, 0, 64, 0
2, 283648, Control_c, 0, 93, 0
2, 283648, Note_on_c, 0, 51, 67
2, 283712, Note_off_c, 0, 51, 67
2, 283776, Note_off_c, 0, 51, 67
2, 283776, Note_on_c, 0, 63, 67
2, 283840, Note_off_c, 0, 63, 67
2, 283904, Note_off_c, 0, 63, 67
2, 283904, Note_on_c, 0, 50, 67
2, 283968, Note_off_c, 0, 50, 67
2, 284032, Note_off_c, 0, 50, 67
2, 284032, Note_on_c, 0, 62, 67
2, 284096, Note_off_c, 0, 62, 67
2, 284160, Note_off_c, 0, 62, 67
2, 284160, Note_on_c, 0, 48, 67
2, 284224, Note_off_c, 0, 48, 67
2, 284288, Note_off_c, 0, 48, 67
2, 284288, Note_on_c, 0, 60, 67
2, 284352, Note_off_c, 0, 60, 67
2, 284416, Note_off_c, 0, 60, 67
2, 284416, Note_on_c, 0, 46, 67
2, 284480, Note_off_c, 0, 46, 67
2, 284544, Note_off_c, 0, 46, 67
2, 284544, Note_on_c, 0, 58, 67
2, 284608, Note_off_c, 0, 58, 67
2, 284672, Note_off_c, 0, 58, 67
2, 284672, Note_on_c, 0, 51, 67
2, 284736, Note_off_c, 0, 51, 67
2, 284800, Note_off_c, 0, 51, 67
2, 284800, Note_on_c, 0, 63, 67
2, 284864, Note_off_c, 0, 63, 67
2, 284928, Note_off_c, 0, 63, 67
2, 284928, Note_on_c, 0, 46, 67
2, 284992, Note_off_c, 0, 46, 67
2, 285056, Note_off_c, 0, 46, 67
2, 285056, Note_on_c, 0, 58, 67
2, 285120, Note_off_c, 0, 58, 67
2, 285184, Note_off_c, 0, 58, 67
2, 285184, Note_on_c, 0, 48, 67
2, 285248, Note_off_c, 0, 48, 67
2, 285312, Note_off_c, 0, 48, 67
2, 285312, Note_on_c, 0, 60, 67
2, 285376, Note_off_c, 0, 60, 67
2, 285440, Note_off_c, 0, 60, 67
2, 285440, Note_on_c, 0, 46, 67
2, 285504, Note_off_c, 0, 46, 67
2, 285568, Note_off_c, 0, 46, 67
2, 285568, Note_on_c, 0, 58, 67
2, 285632, Note_off_c, 0, 58, 67
2, 285696, Note_off_c, 0, 58, 67
2, 285696, Note_on_c, 0, 50, 67
2, 285760, Note_off_c, 0, 50, 67
2, 285824, Note_off_c, 0, 50, 67
2, 285824, Note_on_c, 0, 62, 67
2, 285888, Note_off_c, 0, 62, 67
2, 285952, Note_off_c, 0, 62, 67
2, 285952, Note_on_c, 0, 46, 67
2, 286016, Note_off_c, 0, 46, 67
2, 286080, Note_off_c, 0, 46, 67
2, 286080, Note_on_c, 0, 58, 67
2, 286144, Note_off_c, 0, 58, 67
2, 286208, Note_off_c, 0, 58, 67
2, 286208, Note_on_c, 0, 48, 67
2, 286272, Note_off_c, 0, 48, 67
2, 286336, Note_off_c, 0, 48, 67
2, 286336, Note_on_c, 0, 60, 67
2, 286400, Note_off_c, 0, 60, 67
2, 286464, Note_off_c, 0, 60, 67
2, 286464, Note_on_c, 0, 49, 67
2, 286528, Note_off_c, 0, 49, 67
2, 286592, Note_off_c, 0, 49, 67
2, 286592, Note_on_c, 0, 61, 67
2, 286656, Note_off_c, 0, 61, 67
2, 286720, Note_off_c, 0, 61, 67
2, 286720, Note_on_c, 0, 50, 67
2, 286784, Note_off_c, 0, 50, 67
2, 286848, Note_off_c, 0, 50, 67
2, 286848, Note_on_c, 0, 62, 67
2, 286912, Note_off_c, 0, 62, 67
2, 286976, Note_off_c, 0, 62, 67
2, 286976, Note_on_c, 0, 46, 67
2, 287040, Note_off_c, 0, 46, 67
2, 287104, Note_off_c, 0, 46, 67
2, 287104, Note_on_c, 0, 58, 67
2, 287168, Note_off_c, 0, 58, 67
2, 287232, Note_off_c, 0, 58, 67
2, 287232, Note_on_c, 0, 51, 67
2, 287296, Note_off_c, 0, 51, 67
2, 287360, Note_off_c, 0, 51, 67
2, 287360, Note_on_c, 0, 63, 67
2, 287424, Note_off_c, 0, 63, 67
2, 287488, Note_off_c, 0, 63, 67
2, 287488, Note_on_c, 0, 46, 67
2, 287552, Note_off_c, 0, 46, 67
2, 287616, Note_off_c, 0, 46, 67
2, 287616, Note_on_c, 0, 58, 67
2, 287680, Note_off_c, 0, 58, 67
2, 287744, Note_off_c, 0, 58, 67
2, 287744, Note_on_c, 0, 51, 67
2, 287808, Note_off_c, 0, 51, 67
2, 287872, Note_off_c, 0, 51, 67
2, 287872, Note_on_c, 0, 63, 67
2, 287936, Note_off_c, 0, 63, 67
2, 288000, Note_off_c, 0, 63, 67
2, 288000, Note_on_c, 0, 50, 67
2, 288064, Note_off_c, 0, 50, 67
2, 288128, Note_off_c, 0, 50, 67
2, 288128, Note_on_c, 0, 62, 67
2, 288192, Note_off_c, 0, 62, 67
2, 288256, Note_off_c, 0, 62, 67
2, 288256, Note_on_c, 0, 48, 67
2, 288320, Note_off_c, 0, 48, 67
2, 288384, Note_off_c, 0, 48, 67
2, 288384, Note_on_c, 0, 60, 67
2, 288448, Note_off_c, 0, 60, 67
2, 288512, Note_off_c, 0, 60, 67
2, 288512, Note_on_c, 0, 46, 67
2, 288576, Note_off_c, 0, 46, 67
2, 288640, Note_off_c, 0, 46, 67
2, 288640, Note_on_c, 0, 58, 67
2, 288704, Note_off_c, 0, 58, 67
2, 288768, Note_off_c, 0, 58, 67
2, 288768, Note_on_c, 0, 51, 67
2, 288832, Note_off_c, 0, 51, 67
2, 288896, Note_off_c, 0, 51, 67
2, 288896, Note_on_c, 0, 63, 67
2, 288960, Note_off_c, 0, 63, 67
2, 289024, Note_off_c, 0, 63, 67
2, 289024, Note_on_c, 0, 46, 67
2, 289088, Note_off_c, 0, 46, 67
2, 289152, Note_off_c, 0, 46, 67
2, 289152, Note_on_c, 0, 58, 67
2, 289216, Note_off_c, 0, 58, 67
2, 289280, Note_off_c, 0, 58, 67
2, 289280, Note_on_c, 0, 48, 67
2, 289344, Note_off_c, 0, 48, 67
2, 289408, Note_off_c, 0, 48, 67
2, 289408, Note_on_c, 0, 60, 67
2, 289472, Note_off_c, 0, 60, 67
2, 289536, Note_off_c, 0, 60, 67
2, 289536, Note_on_c, 0, 46, 67
2, 289600, Note_off_c, 0, 46, 67
2, 289664, Note_off_c, 0, 46, 67
2, 289664, Note_on_c, 0, 58, 67
2, 289728, Note_off_c, 0, 58, 67
2, 289792, Note_off_c, 0, 58, 67
2, 289792, Note_on_c, 0, 50, 67
2, 289856, Note_off_c, 0, 50, 67
2, 289920, Note_off_c, 0, 50, 67
2, 289920, Note_on_c, 0, 62, 67
2, 289984, Note_off_c, 0, 62, 67
2, 290048, Note_off_c, 0, 62, 67
2, 290048, Note_on_c, 0, 48, 67
2, 290112, Note_off_c, 0, 48, 67
2, 290176, Note_off_c, 0, 48, 67
2, 290176, Note_on_c, 0, 60, 67
2, 290240, Note_off_c, 0, 60, 67
2, 290304, Note_off_c, 0, 60, 67
2, 290304, Note_on_c, 0, 46, 67
2, 290368, Note_off_c, 0, 46, 67
2, 290432, Note_off_c, 0, 46, 67
2, 290432, Note_on_c, 0, 58, 67
2, 290496, Note_off_c, 0, 58, 67
2, 290560, Note_off_c, 0, 58, 67
2, 290560, Note_on_c, 0, 48, 67
2, 290624, Note_off_c, 0, 48, 67
2, 290688, Note_off_c, 0, 48, 67
2, 290688, Note_on_c, 0, 60, 67
2, 290752, Note_off_c, 0, 60, 67
2, 290816, Note_off_c, 0, 60, 67
2, 290816, Note_on_c, 0, 50, 67
2, 290880, Note_off_c, 0, 50, 67
2, 290944, Note_off_c, 0, 50, 67
2, 290944, Note_on_c, 0, 62, 67
2, 291008, Note_off_c, 0, 62, 67
2, 291072, Note_off_c, 0, 62, 67
2, 291072, Note_on_c, 0, 46, 67
2, 291136, Note_off_c, 0, 46, 67
2, 291200, Note_off_c, 0, 46, 67
2, 291200, Note_on_c, 0, 58, 67
2, 291264, Note_off_c, 0, 58, 67
2, 291328, Note_off_c, 0, 58, 67
2, 291328, Note_on_c, 0, 51, 67
2, 291392, Note_off_c, 0, 51, 67
2, 291456, Note_off_c, 0, 51, 67
2, 291456, Note_on_c, 0, 63, 67
2, 291520, Note_off_c, 0, 63, 67
2, 291584, Note_off_c, 0, 63, 67
2, 291584, Note_on_c, 0, 46, 67
2, 291648, Note_off_c, 0, 46, 67
2, 291712, Note_off_c, 0, 46, 67
2, 291712, Note_on_c, 0, 58, 67
2, 291776, Note_off_c, 0, 58, 67
2, 291840, Note_off_c, 0, 58, 67
2, 291840, Note_on_c, 0, 39, 67
2, 291904, Note_off_c, 0, 39, 67
2, 291904, Note_on_c, 0, 46, 67
2, 291968, Note_off_c, 0, 46, 67
2, 291968, Note_on_c, 0, 51, 67
2, 292032, Note_off_c, 0, 51, 67
2, 292032, Note_on_c, 0, 53, 67
2, 292096, Note_off_c, 0, 53, 67
2, 292096, Note_on_c, 0, 55, 67
2, 292160, Note_off_c, 0, 55, 67
2, 292160, Note_on_c, 0, 51, 67
2, 292224, Note_off_c, 0, 51, 67
2, 292224, Note_on_c, 0, 58, 67
2, 292288, Note_off_c, 0, 58, 67
2, 292288, Note_on_c, 0, 63, 67
2, 292336, Control_c, 0, 93, 0
2, 292352, Note_off_c, 0, 63, 67
2, 292352, Note_on_c, 0, 44, 67
2, 292416, Note_off_c, 0, 44, 67
2, 292416, Note_on_c, 0, 51, 67
2, 292480, Note_off_c, 0, 51, 67
2, 292480, Note_on_c, 0, 56, 67
2, 292544, Note_off_c, 0, 56, 67
2, 292544, Note_on_c, 0, 58, 67
2, 292608, Note_off_c, 0, 58, 67
2, 292608, Note_on_c, 0, 60, 67
2, 292672, Note_off_c, 0, 60, 67
2, 292672, Note_on_c, 0, 56, 67
2, 292736, Note_off_c, 0, 56, 67
2, 292736, Note_on_c, 0, 63, 67
2, 292800, Note_off_c, 0, 63, 67
2, 292800, Note_on_c, 0, 68, 67
2, 292848, Control_c, 0, 93, 0
2, 292864, Note_off_c, 0, 68, 67
2, 292864, Note_on_c, 0, 46, 67
2, 292928, Note_off_c, 0, 46, 67
2, 292928, Note_on_c, 0, 53, 67
2, 292992, Note_off_c, 0, 53, 67
2, 292992, Note_on_c, 0, 58, 67
2, 293056, Note_off_c, 0, 58, 67
2, 293056, Note_on_c, 0, 60, 67
2, 293120, Note_off_c, 0, 60, 67
2, 293120, Note_on_c, 0, 62, 67
2, 293184, Note_off_c, 0, 62, 67
2, 293184, Note_on_c, 0, 58, 67
2, 293248, Note_off_c, 0, 58, 67
2, 293248, Note_on_c, 0, 65, 67
2, 293312, Note_off_c, 0, 65, 67
2, 293312, Note_on_c, 0, 70, 67
2, 293360, Control_c, 0, 93, 0
2, 293376, Note_off_c, 0, 70, 67
2, 293376, Note_on_c, 0, 41, 67
2, 293440, Note_off_c, 0, 41, 67
2, 293440, Note_on_c, 0, 44, 67
2, 293504, Note_off_c, 0, 44, 67
2, 293504, Control_c, 0, 64, 64
2, 293504, Note_on_c, 0, 50, 67
2, 293525, Note_off_c, 0, 50, 67
2, 293525, Note_on_c, 0, 53, 67
2, 293546, Note_off_c, 0, 53, 67
2, 293546, Note_on_c, 0, 58, 67
2, 293567, Note_off_c, 0, 58, 67
2, 293568, Control_c, 0, 93, 0
2, 293568, Note_on_c, 0, 62, 67
2, 293589, Note_off_c, 0, 62, 67
2, 293589, Note_on_c, 0, 65, 67
2, 293610, Note_off_c, 0, 65, 67
2, 293610, Note_on_c, 0, 70, 67
2, 293632, Control_c, 0, 93, 0
2, 293632, Control_c, 0, 64, 0
2, 293760, Note_off_c, 0, 70, 67
2, 293760, Note_on_c, 0, 51, 67
2, 293824, Note_off_c, 0, 51, 67
2, 293824, Note_on_c, 0, 46, 67
2, 293888, Note_off_c, 0, 46, 67
2, 293888, Note_on_c, 0, 39, 67
2, 293952, Note_off_c, 0, 39, 67
2, 293952, Note_on_c, 0, 46, 67
2, 294016, Note_off_c, 0, 46, 67
2, 294016, Note_on_c, 0, 51, 67
2, 294080, Note_off_c, 0, 51, 67
2, 294080, Note_on_c, 0, 53, 67
2, 294144, Note_off_c, 0, 53, 67
2, 294144, Note_on_c, 0, 55, 67
2, 294208, Note_off_c, 0, 55, 67
2, 294208, Note_on_c, 0, 51, 67
2, 294272, Note_off_c, 0, 51, 67
2, 294272, Note_on_c, 0, 58, 67
2, 294336, Note_off_c, 0, 58, 67
2, 294336, Note_on_c, 0, 63, 67
2, 294384, Control_c, 0, 93, 0
2, 294400, Note_off_c, 0, 63, 67
2, 294400, Note_on_c, 0, 44, 67
2, 294464, Note_off_c, 0, 44, 67
2, 294464, Note_on_c, 0, 51, 67
2, 294528, Note_off_c, 0, 51, 67
2, 294528, Note_on_c, 0, 56, 67
2, 294592, Note_off_c, 0, 56, 67
2, 294592, Note_on_c, 0, 58, 67
2, 294656, Note_off_c, 0, 58, 67
2, 294656, Note_on_c, 0, 60, 67
2, 294720, Note_off_c, 0, 60, 67
2, 294720, Note_on_c, 0, 56, 67
2, 294784, Note_off_c, 0, 56, 67
2, 294784, Note_on_c, 0, 63, 67
2, 294848, Note_off_c, 0, 63, 67
2, 294848, Note_on_c, 0, 68, 67
2, 294896, Control_c, 0, 93, 0
2, 294912, Note_off_c, 0, 68, 67
2, 294912, Note_on_c, 0, 46, 67
2, 294976, Note_off_c, 0, 46, 67
2, 294976, Note_on_c, 0, 53, 67
2, 295040, Note_off_c, 0, 53, 67
2, 295040, Note_on_c, 0, 58, 67
2, 295104, Note_off_c, 0, 58, 67
2, 295104, Note_on_c, 0, 60, 67
2, 295168, Note_off_c, 0, 60, 67
2, 295168, Note_on_c, 0, 62, 67
2, 295232, Note_off_c, 0, 62, 67
2, 295232, Note_on_c, 0, 58, 67
2, 295296, Note_off_c, 0, 58, 67
2, 295296, Note_on_c, 0, 65, 67
2, 295360, Note_off_c, 0, 65, 67
2, 295360, Note_on_c, 0, 70, 67
2, 295408, Control_c, 0, 93, 0
2, 295424, Note_off_c, 0, 70, 67
2, 295424, Note_on_c, 0, 39, 67
2, 295488, Note_off_c, 0, 39, 67
2, 295488, Note_on_c, 0, 46, 67
2, 295552, Note_off_c, 0, 46, 67
2, 295552, Note_on_c, 0, 51, 67
2, 295616, Note_off_c, 0, 51, 67
2, 295616, Control_c, 0, 64, 64
2, 295616, Note_on_c, 0, 55, 67
2, 295626, Note_off_c, 0, 55, 67
2, 295626, Note_on_c, 0, 58, 67
2, 295637, Note_off_c, 0, 58, 67
2, 295637, Note_on_c, 0, 63, 67
2, 295647, Note_off_c, 0, 63, 67
2, 295648, Control_c, 0, 93, 0
2, 295648, Note_on_c, 0, 67, 67
2, 295658, Note_off_c, 0, 67, 67
2, 295658, Note_on_c, 0, 70, 67
2, 295669, Note_off_c, 0, 70, 67
2, 295669, Note_on_c, 0, 75, 67
2, 295679, Note_off_c, 0, 75, 67
2, 295680, Control_c, 0, 93, 0
2, 295808, Control_c, 0, 93, 0
2, 295872, Control_c, 0, 93, 0
2, 295872, Control_c, 0, 64, 0
2, 295936, Control_c, 0, 93, 0
2, 295936, Note_on_c, 0, 51, 67
2, 296000, Note_off_c, 0, 51, 67
2, 296064, Note_off_c, 0, 51, 67
2, 296064, Note_on_c, 0, 63, 67
2, 296128, Note_off_c, 0, 63, 67
2, 296192, Note_off_c, 0, 63, 67
2, 296192, Note_on_c, 0, 50, 67
2, 296256, Note_off_c, 0, 50, 67
2, 296320, Note_off_c, 0, 50, 67
2, 296320, Note_on_c, 0, 62, 67
2, 296384, Note_off_c, 0, 62, 67
2, 296448, Note_off_c, 0, 62, 67
2, 296448, Note_on_c, 0, 48, 67
2, 296512, Note_off_c, 0, 48, 67
2, 296576, Note_off_c, 0, 48, 67
2, 296576, Note_on_c, 0, 60, 67
2, 296640, Note_off_c, 0, 60, 67
2, 296704, Note_off_c, 0, 60, 67
2, 296704, Note_on_c, 0, 46, 67
2, 296768, Note_off_c, 0, 46, 67
2, 296832, Note_off_c, 0, 46, 67
2, 296832, Note_on_c, 0, 58, 67
2, 296896, Note_off_c, 0, 58, 67
2, 296960, Note_off_c, 0, 58, 67
2, 296960, Note_on_c, 0, 51, 67
2, 297024, Note_off_c, 0, 51, 67
2, 297088, Note_off_c, 0, 51, 67
2, 297088, Note_on_c, 0, 63, 67
2, 297152, Note_off_c, 0, 63, 67
2, 297216, Note_off_c, 0, 63, 67
2, 297216, Note_on_c, 0, 46, 67
2, 297280, Note_off_c, 0, 46, 67
2, 297344, Note_off_c, 0, 46, 67
2, 297344, Note_on_c, 0, 58, 67
2, 297408, Note_off_c, 0, 58, 67
2, 297472, Note_off_c, 0, 58, 67
2, 297472, Note_on_c, 0, 48, 67
2, 297536, Note_off_c, 0, 48, 67
2, 297600, Note_off_c, 0, 48, 67
2, 297600, Note_on_c, 0, 60, 67
2, 297664, Note_off_c, 0, 60, 67
2, 297728, Note_off_c, 0, 60, 67
2, 297728, Note_on_c, 0, 46, 67
2, 297792, Note_off_c, 0, 46, 67
2, 297856, Note_off_c, 0, 46, 67
2, 297856, Note_on_c, 0, 58, 67
2, 297920, Note_off_c, 0, 58, 67
2, 297984, Note_off_c, 0, 58, 67
2, 297984, Note_on_c, 0, 50, 67
2, 298048, Note_off_c, 0, 50, 67
2, 298112, Note_off_c, 0, 50, 67
2, 298112, Note_on_c, 0, 62, 67
2, 298176, Note_off_c, 0, 62, 67
2, 298240, Note_off_c, 0, 62, 67
2, 298240, Note_on_c, 0, 46, 67
2, 298304, Note_off_c, 0, 46, 67
2, 298368, Note_off_c, 0, 46, 67
2, 298368, Note_on_c, 0, 58, 67
2, 298432, Note_off_c, 0, 58, 67
2, 298496, Note_off_c, 0, 58, 67
2, 298496, Note_on_c, 0, 48, 67
2, 298560, Note_off_c, 0, 48, 67
2, 298624, Note_off_c, 0, 48, 67
2, 298624, Note_on_c, 0, 60, 67
2, 298688, Note_off_c, 0, 60, 67
2, 298752, Note_off_c, 0, 60, 67
2, 298752, Note_on_c, 0, 49, 67
2, 298816, Note_off_c, 0, 49, 67
2, 298880, Note_off_c, 0, 49, 67
2, 298880, Note_on_c, 0, 61, 67
2, 298944, Note_off_c, 0, 61, 67
2, 299008, Note_off_c, 0, 61, 67
2, 299008, Note_on_c, 0, 50, 67
2, 299072, Note_off_c, 0, 50, 67
2, 299136, Note_off_c, 0, 50, 67
2, 299136, Note_on_c, 0, 62, 67
2, 299200, Note_off_c, 0, 62, 67
2, 299264, Note_off_c, 0, 62, 67
2, 299264, Note_on_c, 0, 46, 67
2, 299328, Note_off_c, 0, 46, 67
2, 299392, Note_off_c, 0, 46, 67
2, 299392, Note_on_c, 0, 58, 67
2, 299456, Note_off_c, 0, 58, 67
2, 299520, Note_off_c, 0, 58, 67
2, 299520, Note_on_c, 0, 51, 67
2, 299584, Note_off_c, 0, 51, 67
2, 299648, Note_off_c, 0, 51, 67
2, 299648, Note_on_c, 0, 63, 67
2, 299712, Note_off_c, 0, 63, 67
2, 299776, Note_off_c, 0, 63, 67
2, 299776, Note_on_c, 0, 46, 67
2, 299840, Note_off_c, 0, 46, 67
2, 299904, Note_off_c, 0, 46, 67
2, 299904, Note_on_c, 0, 58, 67
2, 299968, Note_off_c, 0, 58, 67
2, 300032, Note_off_c, 0, 58, 67
2, 300032, Note_on_c, 0, 51, 67
2, 300096, Note_off_c, 0, 51, 67
2, 300160, Note_off_c, 0, 51, 67
2, 300160, Note_on_c, 0, 63, 67
2, 300224, Note_off_c, 0, 63, 67
2, 300288, Note_off_c, 0, 63, 67
2, 300288, Note_on_c, 0, 50, 67
2, 300352, Note_off_c, 0, 50, 67
2, 300416, Note_off_c, 0, 50, 67
2, 300416, Note_on_c, 0, 62, 67
2, 300480, Note_off_c, 0, 62, 67
2, 300544, Note_off_c, 0, 62, 67
2, 300544, Note_on_c, 0, 48, 67
2, 300608, Note_off_c, 0, 48, 67
2, 300672, Note_off_c, 0, 48, 67
2, 300672, Note_on_c, 0, 60, 67
2, 300736, Note_off_c, 0, 60, 67
2, 300800, Note_off_c, 0, 60, 67
2, 300800, Note_on_c, 0, 46, 67
2, 300864, Note_off_c, 0, 46, 67
2, 300928, Note_off_c, 0, 46, 67
2, 300928, Note_on_c, 0, 58, 67
2, 300992, Note_off_c, 0, 58, 67
2, 301056, Note_off_c, 0, 58, 67
2, 301056, Note_on_c, 0, 51, 67
2, 301120, Note_off_c, 0, 51, 67
2, 301184, Note_off_c, 0, 51, 67
2, 301184, Note_on_c, 0, 63, 67
2, 301248, Note_off_c, 0, 63, 67
2, 301312, Note_off_c, 0, 63, 67
2, 301312, Note_on_c, 0, 46, 67
2, 301376, Note_off_c, 0, 46, 67
2, 301440, Note_off_c, 0, 46, 67
2, 301440, Note_on_c, 0, 58, 67
2, 301504, Note_off_c, 0, 58, 67
2, 301568, Note_off_c, 0, 58, 67
2, 301568, Note_on_c, 0, 48, 67
2, 301632, Note_off_c, 0, 48, 67
2, 301696, Note_off_c, 0, 48, 67
2, 301696, Note_on_c, 0, 60, 67
2, 301760, Note_off_c, 0, 60, 67
2, 301824, Note_off_c, 0, 60, 67
2, 301824, Note_on_c, 0, 46, 67
2, 301888, Note_off_c, 0, 46, 67
2, 301952, Note_off_c, 0, 46, 67
2, 301952, Note_on_c, 0, 58, 67
2, 302016, Note_off_c, 0, 58, 67
2, 302080, Note_off_c, 0, 58, 67
2, 302080, Note_on_c, 0, 50, 67
2, 302144, Note_off_c, 0, 50, 67
2, 302208, Note_off_c, 0, 50, 67
2, 302208, Note_on_c, 0, 62, 67
2, 302272, Note_off_c, 0, 62, 67
2, 302336, Note_off_c, 0, 62, 67
2, 302336, Note_on_c, 0, 48, 67
2, 302400, Note_off_c, 0, 48, 67
2, 302464, Note_off_c, 0, 48, 67
2, 302464, Note_on_c, 0, 60, 67
2, 302528, Note_off_c, 0, 60, 67
2, 302592, Note_off_c, 0, 60, 67
2, 302592, Note_on_c, 0, 46, 67
2, 302656, Note_off_c, 0, 46, 67
2, 302720, Note_off_c, 0, 46, 67
2, 302720, Note_on_c, 0, 58, 67
2, 302784, Note_off_c, 0, 58, 67
2, 302848, Note_off_c, 0, 58, 67
2, 302848, Note_on_c, 0, 48, 67
2, 302912, Note_off_c, 0, 48, 67
2, 302976, Note_off_c, 0, 48, 67
2, 302976, Note_on_c, 0, 60, 67
2, 303040, Note_off_c, 0, 60, 67
2, 303104, Note_off_c, 0, 60, 67
2, 303104, Note_on_c, 0, 50, 67
2, 303168, Note_off_c, 0, 50, 67
2, 303232, Note_off_c, 0, 50, 67
2, 303232, Note_on_c, 0, 62, 67
2, 303296, Note_off_c, 0, 62, 67
2, 303360, Note_off_c, 0, 62, 67
2, 303360, Note_on_c, 0, 46, 67
2, 303424, Note_off_c, 0, 46, 67
2, 303488, Note_off_c, 0, 46, 67
2, 303488, Note_on_c, 0, 58, 67
2, 303552, Note_off_c, 0, 58, 67
2, 303616, Note_off_c, 0, 58, 67
2, 303616, Note_on_c, 0, 51, 67
2, 303680, Note_off_c, 0, 51, 67
2, 303744, Note_off_c, 0, 51, 67
2, 303744, Note_on_c, 0, 63, 67
2, 303808, Note_off_c, 0, 63, 67
2, 303872, Note_off_c, 0, 63, 67
2, 303872, Note_on_c, 0, 46, 67
2, 303936, Note_off_c, 0, 46, 67
2, 304000, Note_off_c, 0, 46, 67
2, 304000, Note_on_c, 0, 58, 67
2, 304064, Note_off_c, 0, 58, 67
2, 304128, Note_off_c, 0, 58, 67
2, 304128, Note_on_c, 0, 39, 67
2, 304192, Note_off_c, 0, 39, 67
2, 304192, Note_on_c, 0, 46, 67
2, 304256, Note_off_c, 0, 46, 67
2, 304256, Note_on_c, 0, 51, 67
2, 304320, Note_off_c, 0, 51, 67
2, 304320, Note_on_c, 0, 53, 67
2, 304384, Note_off_c, 0, 53, 67
2, 304384, Note_on_c, 0, 55, 67
2, 304448, Note_off_c, 0, 55, 67
2, 304448, Note_on_c, 0, 51, 67
2, 304512, Note_off_c, 0, 51, 67
2, 304512, Note_on_c, 0, 58, 67
2, 304576, Note_off_c, 0, 58, 67
2, 304576, Note_on_c, 0, 63, 67
2, 304624, Control_c, 0, 93, 0
2, 304640, Note_off_c, 0, 63, 67
2, 304640, Note_on_c, 0, 44, 67
2, 304704, Note_off_c, 0, 44, 67
2, 304704, Note_on_c, 0, 51, 67
2, 304768, Note_off_c, 0, 51, 67
2, 304768, Note_on_c, 0, 56, 67
2, 304832, Note_off_c, 0, 56, 67
2, 304832, Note_on_c, 0, 58, 67
2, 304896, Note_off_c, 0, 58, 67
2, 304896, Note_on_c, 0, 60, 67
2, 304960, Note_off_c, 0, 60, 67
2, 304960, Note_on_c, 0, 56, 67
2, 305024, Note_off_c, 0, 56, 67
2, 305024, Note_on_c, 0, 63, 67
2, 305088, Note_off_c, 0, 63, 67
2, 305088, Note_on_c, 0, 68, 67
2, 305136, Control_c, 0, 93, 0
2, 305152, Note_off_c, 0, 68, 67
2, 305152, Note_on_c, 0, 46, 67
2, 305216, Note_off_c, 0, 46, 67
2, 305216, Note_on_c, 0, 53, 67
2, 305280, Note_off_c, 0, 53, 67
2, 305280, Note_on_c, 0, 58, 67
2, 305344, Note_off_c, 0, 58, 67
2, 305344, Note_on_c, 0, 60, 67
2, 305408, Note_off_c, 0, 60, 67
2, 305408, Note_on_c, 0, 62, 67
2, 305472, Note_off_c, 0, 62, 67
2, 305472, Note_on_c, 0, 58, 67
2, 305536, Note_off_c, 0, 58, 67
2, 305536, Note_on_c, 0, 65, 67
2, 305600, Note_off_c, 0, 65, 67
2, 305600, Note_on_c, 0, 70, 67
2, 305648, Control_c, 0, 93, 0
2, 305664, Note_off_c, 0, 70, 67
2, 305664, Note_on_c, 0, 41, 67
2, 305728, Note_off_c, 0, 41, 67
2, 305728, Note_on_c, 0, 44, 67
2, 305792, Note_off_c, 0, 44, 67
2, 305792, Control_c, 0, 64, 64
2, 305792, Note_on_c, 0, 50, 67
2, 305813, Note_off_c, 0, 50, 67
2, 305813, Note_on_c, 0, 53, 67
2, 305834, Note_off_c, 0, 53, 67
2, 305834, Note_on_c, 0, 58, 67
2, 305855, Note_off_c, 0, 58, 67
2, 305856, Control_c, 0, 93, 0
2, 305856, Note_on_c, 0, 62, 67
2, 305877, Note_off_c, 0, 62, 67
2, 305877, Note_on_c, 0, 65, 67
2, 305898, Note_off_c, 0, 65, 67
2, 305898, Note_on_c, 0, 70, 67
2, 305920, Control_c, 0, 93, 0
2, 305920, Control_c, 0, 64, 0
2, 306048, Note_off_c, 0, 70, 67
2, 306048, Note_on_c, 0, 51, 67
2, 306112, Note_off_c, 0, 51, 67
2, 306112, Note_on_c, 0, 46, 67
2, 306176, Note_off_c, 0, 46, 67
2, 306176, Note_on_c, 0, 39, 67
2, 306240, Note_off_c, 0, 39, 67
2, 306240, Note_on_c, 0, 46, 67
2, 306304, Note_off_c, 0, 46, 67
2, 306304, Note_on_c, 0, 51, 67
2, 306368, Note_off_c, 0, 51, 67
2, 306368, Note_on_c, 0, 53, 67
2, 306432, Note_off_c, 0, 53, 67
2, 306432, Note_on_c, 0, 55, 67
2, 306496, Note_off_c, 0, 55, 67
2, 306496, Note_on_c, 0, 51, 67
2, 306560, Note_off_c, 0, 51, 67
2, 306560, Note_on_c, 0, 58, 67
2, 306624, Note_off_c, 0, 58, 67
2, 306624, Note_on_c, 0, 63, 67
2, 306672, Control_c, 0, 93, 0
2, 306688, Note_off_c, 0, 63, 67
2, 306688, Note_on_c, 0, 44, 67
2, 306752, Note_off_c, 0, 44, 67
2, 306752, Note_on_c, 0, 51, 67
2, 306816, Note_off_c, 0, 51, 67
2, 306816, Note_on_c, 0, 56, 67
2, 306880, Note_off_c, 0, 56, 67
2, 306880, Note_on_c, 0, 58, 67
2, 306944, Note_off_c, 0, 58, 67
2, 306944, Note_on_c, 0, 60, 67
2, 307008, Note_off_c, 0, 60, 67
2, 307008, Note_on_c, 0, 56, 67
2, 307072, Note_off_c, 0, 56, 67
2, 307072, Note_on_c, 0, 63, 67
2, 307136, Note_off_c, 0, 63, 67
2, 307136, Note_on_c, 0, 68, 67
2, 307184, Control_c, 0, 93, 0
2, 307200, Note_off_c, 0, 68, 67
2, 307200, Note_on_c, 0, 46, 67
2, 307264, Note_off_c, 0, 46, 67
2, 307264, Note_on_c, 0, 53, 67
2, 307328, Note_off_c, 0, 53, 67
2, 307328, Note_on_c, 0, 58, 67
2, 307392, Note_off_c, 0, 58, 67
2, 307392, Note_on_c, 0, 60, 67
2, 307456, Note_off_c, 0, 60, 67
2, 307456, Note_on_c, 0, 62, 67
2, 307520, Note_off_c, 0, 62, 67
2, 307520, Note_on_c, 0, 58, 67
2, 307584, Note_off_c, 0, 58, 67
2, 307584, Note_on_c, 0, 65, 67
2, 307648, Note_off_c, 0, 65, 67
2, 307648, Note_on_c, 0, 70, 67
2, 307696, Control_c, 0, 93, 0
2, 307712, Note_off_c, 0, 70, 67
2, 307712, Note_on_c, 0, 39, 67
2, 307776, Note_off_c, 0, 39, 67
2, 307776, Note_on_c, 0, 46, 67
2, 307840, Note_off_c, 0, 46, 67
2, 307840, Note_on_c, 0, 51, 67
2, 307904, Note_off_c, 0, 51, 67
2, 307904, Control_c, 0, 64, 64
2, 307904, Note_on_c, 0, 55, 67
2, 307914, Note_off_c, 0, 55, 67
2, 307914, Note_on_c, 0, 58, 67
2, 307925, Note_off_c, 0, 58, 67
2, 307925, Note_on_c, 0, 63, 67
2, 307935, Note_off_c, 0, 63, 67
2, 307936, Control_c, 0, 93, 0
2, 307936, Note_on_c, 0, 67, 67
2, 307946, Note_off_c, 0, 67, 67
2, 307946, Note_on_c, 0, 70, 67
2, 307957, Note_off_c, 0, 70, 67
2, 307957, Note_on_c, 0, 75, 67
2, 307967, Note_off_c, 0, 75, 67
2, 307968, Control_c, 0, 93, 0
2, 308096, Control_c, 0, 93, 0
2, 308160, Control_c, 0, 93, 0
2, 308160, Control_c, 0, 64, 0
2, 308224, Control_c, 0, 93, 0
2, 308224, Note_on_c, 0, 51, 67
2, 308288, Note_off_c, 0, 51, 67
2, 308352, Note_off_c, 0, 51, 67
2, 308352, Note_on_c, 0, 63, 67
2, 308416, Note_off_c, 0, 63, 67
2, 308480, Note_off_c, 0, 63, 67
2, 308480, Note_on_c, 0, 50, 67
2, 308544, Note_off_c, 0, 50, 67
2, 308608, Note_off_c, 0, 50, 67
2, 308608, Note_on_c, 0, 62, 67
2, 308672, Note_off_c, 0, 62, 67
2, 308736, Note_off_c, 0, 62, 67
2, 308736, Note_on_c, 0, 48, 67
2, 308800, Note_off_c, 0, 48, 67
2, 308864, Note_off_c, 0, 48, 67
2, 308864, Note_on_c, 0, 60, 67
2, 308928, Note_off_c, 0, 60, 67
2, 308992, Note_off_c, 0, 60, 67
2, 308992, Note_on_c, 0, 46, 67
2, 309056, Note_off_c, 0, 46, 67
2, 309120, Note_off_c, 0, 46, 67
2, 309120, Note_on_c, 0, 58, 67
2, 309184, Note_off_c, 0, 58, 67
2, 309248, Note_off_c, 0, 58, 67
2, 309248, Note_on_c, 0, 51, 67
2, 309312, Note_off_c, 0, 51, 67
2, 309376, Note_off_c, 0, 51, 67
2, 309376, Note_on_c, 0, 63, 67
2, 309440, Note_off_c, 0, 63, 67
2, 309504, Note_off_c, 0, 63, 67
2, 309504, Note_on_c, 0, 46, 67
2, 309568, Note_off_c, 0, 46, 67
2, 309632, Note_off_c, 0, 46, 67
2, 309632, Note_on_c, 0, 58, 67
2, 309696, Note_off_c, 0, 58, 67
2, 309760, Note_off_c, 0, 58, 67
2, 309760, Note_on_c, 0, 48, 67
2, 309824, Note_off_c, 0, 48, 67
2, 309888, Note_off_c, 0, 48, 67
2, 309888, Note_on_c, 0, 60, 67
2, 309952, Note_off_c, 0, 60, 67
2, 310016, Note_off_c, 0, 60, 67
2, 310016, Note_on_c, 0, 46, 67
2, 310080, Note_off_c, 0, 46, 67
2, 310144, Note_off_c, 0, 46, 67
2, 310144, Note_on_c, 0, 58, 67
2, 310208, Note_off_c, 0, 58, 67
2, 310272, Note_off_c, 0, 58, 67
2, 310272, Note_on_c, 0, 50, 67
2, 310336, Note_off_c, 0, 50, 67
2, 310400, Note_off_c, 0, 50, 67
2, 310400, Note_on_c, 0, 62, 67
2, 310464, Note_off_c, 0, 62, 67
2, 310528, Note_off_c, 0, 62, 67
2, 310528, Note_on_c, 0, 46, 67
2, 310592, Note_off_c, 0, 46, 67
2, 310656, Note_off_c, 0, 46, 67
2, 310656, Note_on_c, 0, 58, 67
2, 310720, Note_off_c, 0, 58, 67
2, 310784, Note_off_c, 0, 58, 67
2, 310784, Note_on_c, 0, 48, 67
2, 310848, Note_off_c, 0, 48, 67
2, 310912, Note_off_c, 0, 48, 67
2, 310912, Note_on_c, 0, 60, 67
2, 310976, Note_off_c, 0, 60, 67
2, 311040, Note_off_c, 0, 60, 67
2, 311040, Note_on_c, 0, 49, 67
2, 311104, Note_off_c, 0, 49, 67
2, 311168, Note_off_c, 0, 49, 67
2, 311168, Note_on_c, 0, 61, 67
2, 311232, Note_off_c, 0, 61, 67
2, 311296, Note_off_c, 0, 61, 67
2, 311296, Note_on_c, 0, 50, 67
2, 311360, Note_off_c, 0, 50, 67
2, 311424, Note_off_c, 0, 50, 67
2, 311424, Note_on_c, 0, 62, 67
2, 311488, Note_off_c, 0, 62, 67
2, 311552, Note_off_c, 0, 62, 67
2, 311552, Note_on_c, 0, 46, 67
2, 311616, Note_off_c, 0, 46, 67
2, 311680, Note_off_c, 0, 46, 67
2, 311680, Note_on_c, 0, 58, 67
2, 311744, Note_off_c, 0, 58, 67
2, 311808, Note_off_c, 0, 58, 67
2, 311808, Note_on_c, 0, 51, 67
2, 311872, Note_off_c, 0, 51, 67
2, 311936, Note_off_c, 0, 51, 67
2, 311936, Note_on_c, 0, 63, 67
2, 312000, Note_off_c, 0, 63, 67
2, 312064, Note_off_c, 0, 63, 67
2, 312064, Note_on_c, 0, 46, 67
2, 312128, Note_off_c, 0, 46, 67
2, 312192, Note_off_c, 0, 46, 67
2, 312192, Note_on_c, 0, 58, 67
2, 312256, Note_off_c, 0, 58, 67
2, 312320, Note_off_c, 0, 58, 67
2, 312320, Note_on_c, 0, 51, 67
2, 312384, Note_off_c, 0, 51, 67
2, 312448, Note_off_c, 0, 51, 67
2, 312448, Note_on_c, 0, 63, 67
2, 312512, Note_off_c, 0, 63, 67
2, 312576, Note_off_c, 0, 63, 67
2, 312576, Note_on_c, 0, 50, 67
2, 312640, Note_off_c, 0, 50, 67
2, 312704, Note_off_c, 0, 50, 67
2, 312704, Note_on_c, 0, 62, 67
2, 312768, Note_off_c, 0, 62, 67
2, 312832, Note_off_c, 0, 62, 67
2, 312832, Note_on_c, 0, 48, 67
2, 312896, Note_off_c, 0, 48, 67
2, 312960, Note_off_c, 0, 48, 67
2, 312960, Note_on_c, 0, 60, 67
2, 313024, Note_off_c, 0, 60, 67
2, 313088, Note_off_c, 0, 60, 67
2, 313088, Note_on_c, 0, 46, 67
2, 313152, Note_off_c, 0, 46, 67
2, 313216, Note_off_c, 0, 46, 67
2, 313216, Note_on_c, 0, 58, 67
2, 313280, Note_off_c, 0, 58, 67
2, 313344, Note_off_c, 0, 58, 67
2, 313344, Note_on_c, 0, 51, 67
2, 313408, Note_off_c, 0, 51, 67
2, 313472, Note_off_c, 0, 51, 67
2, 313472, Note_on_c, 0, 63, 67
2, 313536, Note_off_c, 0, 63, 67
2, 313600, Note_off_c, 0, 63, 67
2, 313600, Note_on_c, 0, 46, 67
2, 313664, Note_off_c, 0, 46, 67
2, 313728, Note_off_c, 0, 46, 67
2, 313728, Note_on_c, 0, 58, 67
2, 313792, Note_off_c, 0, 58, 67
2, 313856, Note_off_c, 0, 58, 67
2, 313856, Note_on_c, 0, 48, 67
2, 313920, Note_off_c, 0, 48, 67
2, 313984, Note_off_c, 0, 48, 67
2, 313984, Note_on_c, 0, 60, 67
2, 314048, Note_off_c, 0, 60, 67
2, 314112, Note_off_c, 0, 60, 67
2, 314112, Note_on_c, 0, 46, 67
2, 314176, Note_off_c, 0, 46, 67
2, 314240, Note_off_c, 0, 46, 67
2, 314240, Note_on_c, 0, 58, 67
2, 314304, Note_off_c, 0, 58, 67
2, 314368, Note_off_c, 0, 58, 67
2, 314368, Note_on_c, 0, 50, 67
2, 314432, Note_off_c, 0, 50, 67
2, 314496, Note_off_c, 0, 50, 67
2, 314496, Note_on_c, 0, 62, 67
2, 314560, Note_off_c, 0, 62, 67
2, 314624, Note_off_c, 0, 62, 67
2, 314624, Note_on_c, 0, 48, 67
2, 314688, Note_off_c, 0, 48, 67
2, 314752, Note_off_c, 0, 48, 67
2, 314752, Note_on_c, 0, 60, 67
2, 314816, Note_off_c, 0, 60, 67
2, 314880, Note_off_c, 0, 60, 67
2, 314880, Note_on_c, 0, 46, 67
2, 314944, Note_off_c, 0, 46, 67
2, 315008, Note_off_c, 0, 46, 67
2, 315008, Note_on_c, 0, 58, 67
2, 315072, Note_off_c, 0, 58, 67
2, 315136, Note_off_c, 0, 58, 67
2, 315136, Note_on_c, 0, 48, 67
2, 315200, Note_off_c, 0, 48, 67
2, 315264, Note_off_c, 0, 48, 67
2, 315264, Note_on_c, 0, 60, 67
2, 315328, Note_off_c, 0, 60, 67
2, 315392, Note_off_c, 0, 60, 67
2, 315392, Note_on_c, 0, 50, 67
2, 315456, Note_off_c, 0, 50, 67
2, 315520, Note_off_c, 0, 50, 67
2, 315520, Note_on_c, 0, 62, 67
2, 315584, Note_off_c, 0, 62, 67
2, 315648, Note_off_c, 0, 62, 67
2, 315648, Note_on_c, 0, 46, 67
2, 315712, Note_off_c, 0, 46, 67
2, 315776, Note_off_c, 0, 46, 67
2, 315776, Note_on_c, 0, 58, 67
2, 315840, Note_off_c, 0, 58, 67
2, 315904, Note_off_c, 0, 58, 67
2, 315904, Note_on_c, 0, 51, 67
2, 315968, Note_off_c, 0, 51, 67
2, 316032, Note_off_c, 0, 51, 67
2, 316032, Note_on_c, 0, 63, 67
2, 316096, Note_off_c, 0, 63, 67
2, 316160, Note_off_c, 0, 63, 67
2, 316160, Note_on_c, 0, 46, 67
2, 316224, Note_off_c, 0, 46, 67
2, 316288, Note_off_c, 0, 46, 67
2, 316288, Note_on_c, 0, 58, 67
2, 316352, Note_off_c, 0, 58, 67
2, 316416, Note_off_c, 0, 58, 67
2, 316416, Note_on_c, 0, 39, 67
2, 316480, Note_off_c, 0, 39, 67
2, 316480, Note_on_c, 0, 46, 67
2, 316544, Note_off_c, 0, 46, 67
2, 316544, Note_on_c, 0, 51, 67
2, 316608, Note_off_c, 0, 51, 67
2, 316608, Note_on_c, 0, 53, 67
2, 316672, Note_off_c, 0, 53, 67
2, 316672, Note_on_c, 0, 55, 67
2, 316736, Note_off_c, 0, 55, 67
2, 316736, Note_on_c, 0, 51, 67
2, 316800, Note_off_c, 0, 51, 67
2, 316800, Note_on_c, 0, 58, 67
2, 316864, Note_off_c, 0, 58, 67
2, 316864, Note_on_c, 0, 63, 67
2, 316912, Control_c, 0, 93, 0
2, 316928, Note_off_c, 0, 63, 67
2, 316928, Note_on_c, 0, 44, 67
2, 316992, Note_off_c, 0, 44, 67
2, 316992, Note_on_c, 0, 51, 67
2, 317056, Note_off_c, 0, 51, 67
2, 317056, Note_on_c, 0, 56, 67
2, 317120, Note_off_c, 0, 56, 67
2, 317120, Note_on_c, 0, 58, 67
2, 317184, Note_off_c, 0, 58, 67
2, 317184, Note_on_c, 0, 60, 67
2, 317248, Note_off_c, 0, 60, 67
2, 317248, Note_on_c, 0, 56, 67
2, 317312, Note_off_c, 0, 56, 67
2, 317312, Note_on_c, 0, 63, 67
2, 317376, Note_off_c, 0, 63, 67
2, 317376, Note_on_c, 0, 68, 67
2, 317424, Control_c, 0, 93, 0
2, 317440, Note_off_c, 0, 68, 67
2, 317440, Note_on_c, 0, 46, 67
2, 317504, Note_off_c, 0, 46, 67
2, 317504, Note_on_c, 0, 53, 67
2, 317568, Note_off_c, 0, 53, 67
2, 317568, Note_on_c, 0, 58, 67
2, 317632, Note_off_c, 0, 58, 67
2, 317632, Note_on_c, 0, 60, 67
2, 317696, Note_off_c, 0, 60, 67
2, 317696, Note_on_c, 0, 62, 67
2, 317760, Note_off_c, 0, 62, 67
2, 317760, Note_on_c, 0, 58, 67
2, 317824, Note_off_c, 0, 58, 67
2, 317824, Note_on_c, 0, 65, 67
2, 317888, Note_off_c, 0, 65, 67
2, 317888, Note_on_c, 0, 70, 67
2, 317936, Control_c, 0, 93, 0
2, 317952, Note_off_c, 0, 70, 67
2, 317952, Note_on_c, 0, 41, 67
2, 318016, Note_off_c, 0, 41, 67
2, 318016, Note_on_c, 0, 44, 67
2, 318080, Note_off_c, 0, 44, 67
2, 318080, Control_c, 0, 64, 64
2, 318080, Note_on_c, 0, 50, 67
2, 318101, Note_off_c, 0, 50, 67
2, 318101, Note_on_c, 0, 53, 67
2, 318122, Note_off_c, 0, 53, 67
2, 318122, Note_on_c, 0, 58, 67
2, 318143, Note_off_c, 0, 58, 67
2, 318144, Control_c, 0, 93, 0
2, 318144, Note_on_c, 0, 62, 67
2, 318165, Note_off_c, 0, 62, 67
2, 318165, Note_on_c, 0, 65, 67
2, 318186, Note_off_c, 0, 65, 67
2, 318186, Note_on_c, 0, 70, 67
2, 318208, Control_c, 0, 93, 0
2, 318208, Control_c, 0, 64, 0
2, 318336, Note_off_c, 0, 70, 67
2, 318336, Note_on_c, 0, 51, 67
2, 318400, Note_off_c, 0, 51, 67
2, 318400, Note_on_c, 0, 46, 67
2, 318464, Note_off_c, 0, 46, 67
2, 318464, Note_on_c, 0, 39, 67
2, 318528, Note_off_c, 0, 39, 67
2, 318528, Note_on_c, 0, 46, 67
2, 318592, Note_off_c, 0, 46, 67
2, 318592, Note_on_c, 0, 51, 67
2, 318656, Note_off_c, 0, 51, 67
2, 318656, Note_on_c, 0, 53, 67
2, 318720, Note_off_c, 0, 53, 67
2, 318720, Note_on_c, 0, 55, 67
2, 318784, Note_off_c, 0, 55, 67
2, 318784, Note_on_c, 0, 51, 67
2, 318848, Note_off_c, 0, 51, 67
2, 318848, Note_on_c, 0, 58, 67
2, 318912, Note_off_c, 0, 58, 67
2, 318912, Note_on_c, 0, 63, 67
2, 318960, Control_c, 0, 93, 0
2, 318976, Note_off_c, 0, 63, 67
2, 318976, Note_on_c, 0, 44, 67
2, 319040, Note_off_c, 0, 44, 67
2, 319040, Note_on_c, 0, 51, 67
2, 319104, Note_off_c, 0, 51, 67
2, 319104, Note_on_c, 0, 56, 67
2, 319168, Note_off_c, 0, 56, 67
2, 319168, Note_on_c, 0, 58, 67
2, 319232, Note_off_c, 0, 58, 67
2, 319232, Note_on_c, 0, 60, 67
2, 319296, Note_off_c, 0, 60, 67
2, 319296, Note_on_c, 0, 56, 67
2, 319360, Note_off_c, 0, 56, 67
2, 319360, Note_on_c, 0, 63, 67
2, 319424, Note_off_c, 0, 63, 67
2, 319424, Note_on_c, 0, 68, 67
2, 319472, Control_c, 0, 93, 0
2, 319488, Note_off_c, 0, 68, 67
2, 319488, Note_on_c, 0, 46, 67
2, 319552, Note_off_c, 0, 46, 67
2, 319552, Note_on_c, 0, 53, 67
2, 319616, Note_off_c, 0, 53, 67
2, 319616, Note_on_c, 0, 58, 67
2, 319680, Note_off_c, 0, 58, 67
2, 319680, Note_on_c, 0, 60, 67
2, 319744, Note_off_c, 0, 60, 67
2, 319744, Note_on_c, 0, 62, 67
2, 319808, Note_off_c, 0, 62, 67
2, 319808, Note_on_c, 0, 58, 67
2, 319872, Note_off_c, 0, 58, 67
2, 319872, Note_on_c, 0, 65, 67
2, 319936, Note_off_c, 0, 65, 67
2, 319936, Note_on_c, 0, 70, 67
2, 319984, Control_c, 0, 93, 0
2, 320000, Note_off_c, 0, 70, 67
2, 320000, Note_on_c, 0, 39, 67
2, 320064, Note_off_c, 0, 39, 67
2, 320064, Note_on_c, 0, 46, 67
2, 320128, Note_off_c, 0, 46, 67
2, 320128, Note_on_c, 0, 51, 67
2, 320192, Note_off_c, 0, 51, 67
2, 320192, Control_c, 0, 64, 64
2, 320192, Note_on_c, 0, 55, 67
2, 320202, Note_off_c, 0, 55, 67
2, 320202, Note_on_c, 0, 58, 67
2, 320213, Note_off_c, 0, 58, 67
2, 320213, Note_on_c, 0, 63, 67
2, 320223, Note_off_c, 0, 63, 67
2, 320224, Control_c, 0, 93, 0
2, 320224, Note_on_c, 0, 67, 67
2, 320234, Note_off_c, 0, 67, 67
2, 320234, Note_on_c, 0, 70, 67
2, 320245, Note_off_c, 0, 70, 67
2, 320245, Note_on_c, 0, 75, 67
2, 320255, Note_off_c, 0, 75, 67
2, 320256, Control_c, 0, 93, 0
2, 320384, Control_c, 0, 93, 0
2, 320448, Control_c, 0, 93, 0
2, 320448, Control_c, 0, 64, 0
2, 320512, Control_c, 0, 93, 0
2, 320512, Note_on_c, 0, 51, 67
2, 320576, Note_off_c, 0, 51, 67
2, 320640, Note_off_c, 0, 51, 67
2, 320640, Note_on_c, 0, 63, 67
2, 320704, Note_off_c, 0, 63, 67
2, 320768, Note_off_c, 0, 63, 67
2, 320768, Note_on_c, 0, 50, 67
2, 320832, Note_off_c, 0, 50, 67
2, 320896, Note_off_c, 0, 50, 67
2, 320896, Note_on_c, 0, 62, 67
2, 320960, Note_off_c, 0, 62, 67
2, 321024, Note_off_c, 0, 62, 67
2, 321024, Note_on_c, 0, 48, 67
2, 321088, Note_off_c, 0, 48, 67
2, 321152, Note_off_c, 0, 48, 67
2, 321152, Note_on_c, 0, 60, 67
2, 321216, Note_off_c, 0, 60, 67
2, 321280, Note_off_c, 0, 60, 67
2, 321280, Note_on_c, 0, 46, 67
2, 321344, Note_off_c, 0, 46, 67
2, 321408, Note_off_c, 0, 46, 67
2, 321408, Note_on_c, 0, 58, 67
2, 321472, Note_off_c, 0, 58, 67
2, 321536, Note_off_c, 0, 58, 67
2, 321536, Note_on_c, 0, 51, 67
2, 321600, Note_off_c, 0, 51, 67
2, 321664, Note_off_c, 0, 51, 67
2, 321664, Note_on_c, 0, 63, 67
2, 321728, Note_off_c, 0, 63, 67
2, 321792, Note_off_c, 0, 63, 67
2, 321792, Note_on_c, 0, 46, 67
2, 321856, Note_off_c, 0, 46, 67
2, 321920, Note_off_c, 0, 46, 67
2, 321920, Note_on_c, 0, 58, 67
2, 321984, Note_off_c, 0, 58, 67
2, 322048, Note_off_c, 0, 58, 67
2, 322048, Note_on_c, 0, 48, 67
2, 322112, Note_off_c, 0, 48, 67
2, 322176, Note_off_c, 0, 48, 67
2, 322176, Note_on_c, 0, 60, 67
2, 322240, Note_off_c, 0, 60, 67
2, 322304, Note_off_c, 0, 60, 67
2, 322304, Note_on_c, 0, 46, 67
2, 322368, Note_off_c, 0, 46, 67
2, 322432, Note_off_c, 0, 46, 67
2, 322432, Note_on_c, 0, 58, 67
2, 322496, Note_off_c, 0, 58, 67
2, 322560, Note_off_c, 0, 58, 67
2, 322560, Note_on_c, 0, 50, 67
2, 322624, Note_off_c, 0, 50, 67
2, 322688, Note_off_c, 0, 50, 67
2, 322688, Note_on_c, 0, 62, 67
2, 322752, Note_off_c, 0, 62, 67
2, 322816, Note_off_c, 0, 62, 67
2, 322816, Note_on_c, 0, 46, 67
2, 322880, Note_off_c, 0, 46, 67
2, 322944, Note_off_c, 0, 46, 67
2, 322944, Note_on_c, 0, 58, 67
2, 323008, Note_off_c, 0, 58, 67
2, 323072, Note_off_c, 0, 58, 67
2, 323072, Note_on_c, 0, 48, 67
2, 323136, Note_off_c, 0, 48, 67
2, 323200, Note_off_c, 0, 48, 67
2, 323200, Note_on_c, 0, 60, 67
2, 323264, Note_off_c, 0, 60, 67
2, 323328, Note_off_c, 0, 60, 67
2, 323328, Note_on_c, 0, 49, 67
2, 323392, Note_off_c, 0, 49, 67
2, 323456, Note_off_c, 0, 49, 67
2, 323456, Note_on_c, 0, 61, 67
2, 323520, Note_off_c, 0, 61, 67
2, 323584, Note_off_c, 0, 61, 67
2, 323584, Note_on_c, 0, 50, 67
2, 323648, Note_off_c, 0, 50, 67
2, 323712, Note_off_c, 0, 50, 67
2, 323712, Note_on_c, 0, 62, 67
2, 323776, Note_off_c, 0, 62, 67
2, 323840, Note_off_c, 0, 62, 67
2, 323840, Note_on_c, 0, 46, 67
2, 323904, Note_off_c, 0, 46, 67
2, 323968, Note_off_c, 0, 46, 67
2, 323968, Note_on_c, 0, 58, 67
2, 324032, Note_off_c, 0, 58, 67
2, 324096, Note_off_c, 0, 58, 67
2, 324096, Note_on_c, 0, 51, 67
2, 324160, Note_off_c, 0, 51, 67
2, 324224, Note_off_c, 0, 51, 67
2, 324224, Note_on_c, 0, 63, 67
2, 324288, Note_off_c, 0, 63, 67
2, 324352, Note_off_c, 0, 63, 67
2, 324352, Note_on_c, 0, 46, 67
2, 324416, Note_off_c, 0, 46, 67
2, 324480, Note_off_c, 0, 46, 67
2, 324480, Note_on_c, 0, 58, 67
2, 324544, Note_off_c, 0, 58, 67
2, 324608, Note_off_c, 0, 58, 67
2, 324608, Note_on_c, 0, 51, 67
2, 324672, Note_off_c, 0, 51, 67
2, 324736, Note_off_c, 0, 51, 67
2, 324736, Note_on_c, 0, 63, 67
2, 324800, Note_off_c, 0, 63, 67
2, 324864, Note_off_c, 0, 63, 67
2, 324864, Note_on_c, 0, 50, 67
2, 324928, Note_off_c, 0, 50, 67
2, 324992, Note_off_c, 0, 50, 67
2, 324992, Note_on_c, 0, 62, 67
2, 325056, Note_off_c, 0, 62, 67
2, 325120, Note_off_c, 0, 62, 67
2, 325120, Note_on_c, 0, 48, 67
2, 325184, Note_off_c, 0, 48, 67
2, 325248, Note_off_c, 0, 48, 67
2, 325248, Note_on_c, 0, 60, 67
2, 325312, Note_off_c, 0, 60, 67
2, 325376, Note_off_c, 0, 60, 67
2, 325376, Note_on_c, 0, 46, 67
2, 325440, Note_off_c, 0, 46, 67
2, 325504, Note_off_c, 0, 46, 67
2, 325504, Note_on_c, 0, 58, 67
2, 325568, Note_off_c, 0, 58, 67
2, 325632, Note_off_c, 0, 58, 67
2, 325632, Note_on_c, 0, 51, 67
2, 325696, Note_off_c, 0, 51, 67
2, 325760, Note_off_c, 0, 51, 67
2, 325760, Note_on_c, 0, 63, 67
2, 325824, Note_off_c, 0, 63, 67
2, 325888, Note_off_c, 0, 63, 67
2, 325888, Note_on_c, 0, 46, 67
2, 325952, Note_off_c, 0, 46, 67
2, 326016, Note_off_c, 0, 46, 67
2, 326016, Note_on_c, 0, 58, 67
2, 326080, Note_off_c, 0, 58, 67
2, 326144, Note_off_c, 0, 58, 67
2, 326144, Note_on_c, 0, 48, 67
2, 326208, Note_off_c, 0, 48, 67
2, 326272, Note_off_c, 0, 48, 67
2, 326272, Note_on_c, 0, 60, 67
2, 326336, Note_off_c, 0, 60, 67
2, 326400, Note_off_c, 0, 60, 67
2, 326400, Note_on_c, 0, 46, 67
2, 326464, Note_off_c, 0, 46, 67
2, 326528, Note_off_c, 0, 46, 67
2, 326528, Note_on_c, 0, 58, 67
2, 326592, Note_off_c, 0, 58, 67
2, 326656, Note_off_c, 0, 58, 67
2, 326656, Note_on_c, 0, 50, 67
2, 326720, Note_off_c, 0, 50, 67
2, 326784, Note_off_c, 0, 50, 67
2, 326784, Note_on_c, 0, 62, 67
2, 326848, Note_off_c, 0, 62, 67
2, 326912, Note_off_c, 0, 62, 67
2, 326912, Note_on_c, 0, 48, 67
2, 326976, Note_off_c, 0, 48, 67
2, 327040, Note_off_c, 0, 48, 67
2, 327040, Note_on_c, 0, 60, 67
2, 327104, Note_off_c, 0, 60, 67
2, 327168, Note_off_c, 0, 60, 67
2, 327168, Note_on_c, 0, 46, 67
2, 327232, Note_off_c, 0, 46, 67
2, 327296, Note_off_c, 0, 46, 67
2, 327296, Note_on_c, 0, 58, 67
2, 327360, Note_off_c, 0, 58, 67
2, 327424, Note_off_c, 0, 58, 67
2, 327424, Note_on_c, 0, 48, 67
2, 327488, Note_off_c, 0, 48, 67
2, 327552, Note_off_c, 0, 48, 67
2, 327552, Note_on_c, 0, 60, 67
2, 327616, Note_off_c, 0, 60, 67
2, 327680, Note_off_c, 0, 60, 67
2, 327680, Note_on_c, 0, 50, 67
2, 327744, Note_off_c, 0, 50, 67
2, 327808, Note_off_c, 0, 50, 67
2, 327808, Note_on_c, 0, 62, 67
2, 327872, Note_off_c, 0, 62, 67
2, 327936, Note_off_c, 0, 62, 67
2, 327936, Note_on_c, 0, 46, 67
2, 328000, Note_off_c, 0, 46, 67
2, 328064, Note_off_c, 0, 46, 67
2, 328064, Note_on_c, 0, 58, 67
2, 328128, Note_off_c, 0, 58, 67
2, 328192, Note_off_c, 0, 58, 67
2, 328192, Note_on_c, 0, 51, 67
2, 328256, Note_off_c, 0, 51, 67
2, 328320, Note_off_c, 0, 51, 67
2, 328320, Note_on_c, 0, 63, 67
2, 328384, Note_off_c, 0, 63, 67
2, 328448, Note_off_c, 0, 63, 67
2, 328448, Note_on_c, 0, 46, 67
2, 328512, Note_off_c, 0, 46, 67
2, 328576, Note_off_c, 0, 46, 67
2, 328576, Note_on_c, 0, 58, 67
2, 328640, Note_off_c, 0, 58, 67
2, 328704, Note_off_c, 0, 58, 67
2, 328704, Note_on_c, 0, 39, 67
2, 328768, Note_off_c, 0, 39, 67
2, 328768, Note_on_c, 0, 46, 67
2, 328832, Note_off_c, 0, 46, 67
2, 328832, Note_on_c, 0, 51, 67
2, 328896, Note_off_c, 0, 51, 67
2, 328896, Note_on_c, 0, 53, 67
2, 328960, Note_off_c, 0, 53, 67
2, 328960, Note_on_c, 0, 55, 67
2, 329024, Note_off_c, 0, 55, 67
2, 329024, Note_on_c, 0, 51, 67
2, 329088, Note_off_c, 0, 51, 67
2, 329088, Note_on_c, 0, 58, 67
2, 329152, Note_off_c, 0, 58, 67
2, 329152, Note_on_c, 0, 63, 67
2, 329200, Control_c, 0, 93, 0
2, 329216, Note_off_c, 0, 63, 67
2, 329216, Note_on_c, 0, 44, 67
2, 329280, Note_off_c, 0, 44, 67
2, 329280, Note_on_c, 0, 51, 67
2, 329344, Note_off_c, 0, 51, 67
2, 329344, Note_on_c, 0, 56, 67
2, 329408, Note_off_c, 0, 56, 67
2, 329408, Note_on_c, 0, 58, 67
2, 329472, Note_off_c, 0, 58, 67
2, 329472, Note_on_c, 0, 60, 67
2, 329536, Note_off_c, 0, 60, 67
2, 329536, Note_on_c, 0, 56, 67
2, 329600, Note_off_c, 0, 56, 67
2, 329600, Note_on_c, 0, 63, 67
2, 329664, Note_off_c, 0, 63, 67
2, 329664, Note_on_c, 0, 68, 67
2, 329712, Control_c, 0, 93, 0
2, 329728, Note_off_c, 0, 68, 67
2, 329728, Note_on_c, 0, 46, 67
2, 329792, Note_off_c, 0, 46, 67
2, 329792, Note_on_c, 0, 53, 67
2, 329856, Note_off_c, 0, 53, 67
2, 329856, Note_on_c, 0, 58, 67
2, 329920, Note_off_c, 0, 58, 67
2, 329920, Note_on_c, 0, 60, 67
2, 329984, Note_off_c, 0, 60, 67
2, 329984, Note_on_c, 0, 62, 67
2, 330048, Note_off_c, 0, 62, 67
2, 330048, Note_on_c, 0, 58, 67
2, 330112, Note_off_c, 0, 58, 67
2, 330112, Note_on_c, 0, 65, 67
2, 330176, Note_off_c, 0, 65, 67
2, 330176, Note_on_c, 0, 70, 67
2, 330224, Control_c, 0, 93, 0
2, 330240, Note_off_c, 0, 70, 67
2, 330240, Note_on_c, 0, 41, 67
2, 330304, Note_off_c, 0, 41, 67
2, 330304, Note_on_c, 0, 44, 67
2, 330368, Note_off_c, 0, 44, 67
2, 330368, Control_c, 0, 64, 64
2, 330368, Note_on_c, 0, 50, 67
2, 330389, Note_off_c, 0, 50, 67
2, 330389, Note_on_c, 0, 53, 67
2, 330410, Note_off_c, 0, 53, 67
2, 330410, Note_on_c, 0, 58, 67
2, 330431, Note_off_c, 0, 58, 67
2, 330432, Control_c, 0, 93, 0
2, 330432, Note_on_c, 0, 62, 67
2, 330453, Note_off_c, 0, 62, 67
2, 330453, Note_on_c, 0, 65, 67
2, 330474, Note_off_c, 0, 65, 67
2, 330474, Note_on_c, 0, 70, 67
2, 330496, Control_c, 0, 93, 0
2, 330496, Control_c, 0, 64, 0
2, 330624, Note_off_c, 0, 70, 67
2, 330624, Note_on_c, 0, 51, 67
2, 330688, Note_off_c, 0, 51, 67
2, 330688, Note_on_c, 0, 46, 67
2, 330752, Note_off_c, 0, 46, 67
2, 330752, Note_on_c, 0, 39, 67
2, 330816, Note_off_c, 0, 39, 67
2, 330816, Note_on_c, 0, 46, 67
2, 330880, Note_off_c, 0, 46, 67
2, 330880, Note_on_c, 0, 51, 67
2, 330944, Note_off_c, 0, 51, 67
2, 330944, Note_on_c, 0, 53, 67
2, 331008, Note_off_c, 0, 53, 67
2, 331008, Note_on_c, 0, 55, 67
2, 331072, Note_off_c, 0, 55, 67
2, 331072, Note_on_c, 0, 51, 67
2, 331136, Note_off_c, 0, 51, 67
2, 331136, Note_on_c, 0, 58, 67
2, 331200, Note_off_c, 0, 58, 67
2, 331200, Note_on_c, 0, 63, 67
2, 331248, Control_c, 0, 93, 0
2, 331264, Note_off_c, 0, 63, 67
2, 331264, Note_on_c, 0, 44, 67
2, 331328, Note_off_c, 0, 44, 67
2, 331328, Note_on_c, 0, 51, 67
2, 331392, Note_off_c, 0, 51, 67
2, 331392, Note_on_c, 0, 56, 67
2, 331456, Note_off_c, 0, 56, 67
2, 331456, Note_on_c, 0, 58, 67
2, 331520, Note_off_c, 0, 58, 67
2, 331520, Note_on_c, 0, 60, 67
2, 331584, Note_off_c, 0, 60, 67
2, 331584, Note_on_c, 0, 56, 67
2, 331648, Note_off_c, 0, 56, 67
2, 331648, Note_on_c, 0, 63, 67
2, 331712, Note_off_c, 0, 63, 67
2, 331712, Note_on_c, 0, 68, 67
2, 331760, Control_c, 0, 93, 0
2, 331776, Note_off_c, 0, 68, 67
2, 331776, Note_on_c, 0, 46, 67
2, 331840, Note_off_c, 0, 46, 67
2, 331840, Note_on_c, 0, 53, 67
2, 331904, Note_off_c, 0, 53, 67
2, 331904, Note_on_c, 0, 58, 67
2, 331968, Note_off_c, 0, 58, 67
2, 331968, Note_on_c, 0, 60, 67
2, 332032, Note_off_c, 0, 60, 67
2, 332032, Note_on_c, 0, 62, 67
2, 332096, Note_off_c, 0, 62, 67
2, 332096, Note_on_c, 0, 58, 67
2, 332160, Note_off_c, 0, 58, 67
2, 332160, Note_on_c, 0, 65, 67
2, 332224, Note_off_c, 0, 65, 67
2, 332224, Note_on_c, 0, 70, 67
2, 332272, Control_c, 0, 93, 0
2, 332288, Note_off_c, 0, 70, 67
2, 332288, Note_on_c, 0, 39, 67
2, 332352, Note_off_c, 0, 39, 67
2, 332352, Note_on_c, 0, 46, 67
2, 332416, Note_off_c, 0, 46, 67
2, 332416, Note_on_c, 0, 51, 67
2, 332480, Note_off_c, 0, 51, 67
2, 332480, Control_c, 0, 64, 64
2, 332480, Note_on_c, 0, 55, 67
2, 332490, Note_off_c, 0, 55, 67
2, 332490, Note_on_c, 0, 58, 67
2, 332501, Note_off_c, 0, 58, 67
2, 332501, Note_on_c, 0, 63, 67
2, 332511, Note_off_c, 0, 63, 67
2, 332512, Control_c, 0, 93, 0
2, 332512, Note_on_c, 0, 67, 67
2, 332522, Note_off_c, 0, 67, 67
2, 332522, Note_on_c, 0, 70, 67
2, 332533, Note_off_c, 0, 70, 67
2, 332533, Note_on_c, 0, 75, 67
2, 332543, Note_off_c, 0, 75, 67
2, 332544, Control_c, 0, 93, 0
2, 332672, Control_c, 0, 93, 0
2, 332736, Control_c, 0, 93, 0
2, 332736, Control_c, 0, 64, 0
2, 332800, Control_c, 0, 93, 0
2, 332800, Note_on_c, 0, 51, 67
2, 332864, Note_off_c, 0, 51, 67
2, 332928, Note_off_c, 0, 51, 67
2, 332928, Note_on_c, 0, 63, 67
2, 332992, Note_off_c, 0, 63, 67
2, 333056, Note_off_c, 0, 63, 67
2, 333056, Note_on_c, 0, 50, 67
2, 333120, Note_off_c, 0, 50, 67
2, 333184, Note_off_c, 0, 50, 67
2, 333184, Note_on_c, 0, 62, 67
2, 333248, Note_off_c, 0, 62, 67
2, 333312, Note_off_c, 0, 62, 67
2, 333312, Note_on_c, 0, 48, 67
2, 333376, Note_off_c, 0, 48, 67
2, 333440, Note_off_c, 0, 48, 67
2, 333440, Note_on_c, 0, 60, 67
2, 333504, Note_off_c, 0, 60, 67
2, 333568, Note_off_c, 0, 60, 67
2, 333568, Note_on_c, 0, 46, 67
2, 333632, Note_off_c, 0, 46, 67
2, 333696, Note_off_c, 0, 46, 67
2, 333696, Note_on_c, 0, 58, 67
2, 333760, Note_off_c, 0, 58, 67
2, 333824, Note_off_c, 0, 58, 67
2, 333824, Note_on_c, 0, 51, 67
2, 333888, Note_off_c, 0, 51, 67
2, 333952, Note_off_c, 0, 51, 67
2, 333952, Note_on_c, 0, 63, 67
2, 334016, Note_off_c, 0, 63, 67
2, 334080, Note_off_c, 0, 63, 67
2, 334080, Note_on_c, 0, 46, 67
2, 334144, Note_off_c, 0, 46, 67
2, 334208, Note_off_c, 0, 46, 67
2, 334208, Note_on_c, 0, 58, 67
2, 334272, Note_off_c, 0, 58, 67
2, 334336, Note_off_c, 0, 58, 67
2, 334336, Note_on_c, 0, 48, 67
2, 334400, Note_off_c, 0, 48, 67
2, 334464, Note_off_c, 0, 48, 67
2, 334464, Note_on_c, 0, 60, 67
2, 334528, Note_off_c, 0, 60, 67
2, 334592, Note_off_c, 0, 60, 67
2, 334592, Note_on_c, 0, 46, 67
2, 334656, Note_off_c, 0, 46, 67
2, 334720, Note_off_c, 0, 46, 67
2, 334720, Note_on_c, 0, 58, 67
2, 334784, Note_off_c, 0, 58, 67
2, 334848, Note_off_c, 0, 58, 67
2, 334848, Note_on_c, 0, 50, 67
2, 334912, Note_off_c, 0, 50, 67
2, 334976, Note_off_c, 0, 50, 67
2, 334976, Note_on_c, 0, 62, 67
2, 335040, Note_off_c, 0, 62, 67
2, 335104, Note_off_c, 0, 62, 67
2, 335104, Note_on_c, 0, 46, 67
2, 335168, Note_off_c, 0, 46, 67
2, 335232, Note_off_c, 0, 46, 67
2, 335232, Note_on_c, 0, 58, 67
2, 335296, Note_off_c, 0, 58, 67
2, 335360, Note_off_c, 0, 58, 67
2, 335360, Note_on_c, 0, 48, 67
2, 335424, Note_off_c, 0, 48, 67
2, 335488, Note_off_c, 0, 48, 67
2, 335488, Note_on_c, 0, 60, 67
2, 335552, Note_off_c, 0, 60, 67
2, 335616, Note_off_c, 0, 60, 67
2, 335616, Note_on_c, 0, 49, 67
2, 335680, Note_off_c, 0, 49, 67
2, 335744, Note_off_c, 0, 49, 67
2, 335744, Note_on_c, 0, 61, 67
2, 335808, Note_off_c, 0, 61, 67
2, 335872, Note_off_c, 0, 61, 67
2, 335872, Note_on_c, 0, 50, 67
2, 335936, Note_off_c, 0, 50, 67
2, 336000, Note_off_c, 0, 50, 67
2, 336000, Note_on_c, 0, 62, 67
2, 336064, Note_off_c, 0, 62, 67
2, 336128, Note_off_c, 0, 62, 67
2, 336128, Note_on_c, 0, 46, 67
2, 336192, Note_off_c, 0, 46, 67
2, 336256, Note_off_c, 0, 46, 67
2, 336256, Note_on_c, 0, 58, 67
2, 336320, Note_off_c, 0, 58, 67
2, 336384, Note_off_c, 0, 58, 67
2, 336384, Note_on_c, 0, 51, 67
2, 336448, Note_off_c, 0, 51, 67
2, 336512, Note_off_c, 0, 51, 67
2, 336512, Note_on_c, 0, 63, 67
2, 336576, Note_off_c, 0, 63, 67
2, 336640, Note_off_c, 0, 63, 67
2, 336640, Note_on_c, 0, 46, 67
2, 336704, Note_off_c, 0, 46, 67
2, 336768, Note_off_c, 0, 46, 67
2, 336768, Note_on_c, 0, 58, 67
2, 336832, Note_off_c, 0, 58, 67
2, 336896, Note_off_c, 0, 58, 67
2, 336896, Note_on_c, 0, 51, 67
2, 336960, Note_off_c, 0, 51, 67
2, 337024, Note_off_c, 0, 51, 67
2, 337024, Note_on_c, 0, 63, 67
2, 337088, Note_off_c, 0, 63, 67
2, 337152, Note_off_c, 0, 63, 67
2, 337152, Note_on_c, 0, 50, 67
2, 337216, Note_off_c, 0, 50, 67
2, 337280, Note_off_c, 0, 50, 67
2, 337280, Note_on_c, 0, 62, 67
2, 337344, Note_off_c, 0, 62, 67
2, 337408, Note_off_c, 0, 62, 67
2, 337408, Note_on_c, 0, 48, 67
2, 337472, Note_off_c, 0, 48, 67
2, 337536, Note_off_c, 0, 48, 67
2, 337536, Note_on_c, 0, 60, 67
2, 337600, Note_off_c, 0, 60, 67
2, 337664, Note_off_c, 0, 60, 67
2, 337664, Note_on_c, 0, 46, 67
2, 337728, Note_off_c, 0, 46, 67
2, 337792, Note_off_c, 0, 46, 67
2, 337792, Note_on_c, 0, 58, 67
2, 337856, Note_off_c, 0, 58, 67
2, 337920, Note_off_c, 0, 58, 67
2, 337920, Note_on_c, 0, 51, 67
2, 337984, Note_off_c, 0, 51, 67
2, 338048, Note_off_c, 0, 51, 67
2, 338048, Note_on_c, 0, 63, 67
2, 338112, Note_off_c, 0, 63, 67
2, 338176, Note_off_c, 0, 63, 67
2, 338176, Note_on_c, 0, 46, 67
2, 338240, Note_off_c, 0, 46, 67
2, 338304, Note_off_c, 0, 46, 67
2, 338304, Note_on_c, 0, 58, 67
2, 338368, Note_off_c, 0, 58, 67
2, 338432, Note_off_c, 0, 58, 67
2, 338432, Note_on_c, 0, 48, 67
2, 338496, Note_off_c, 0, 48, 67
2, 338560, Note_off_c, 0, 48, 67
2, 338560, Note_on_c, 0, 60, 67
2, 338624, Note_off_c, 0, 60, 67
2, 338688, Note_off_c, 0, 60, 67
2, 338688, Note_on_c, 0, 46, 67
2, 338752, Note_off_c, 0, 46, 67
2, 338816, Note_off_c, 0, 46, 67
2, 338816, Note_on_c, 0, 58, 67
2, 338880, Note_off_c, 0, 58, 67
2, 338944, Note_off_c, 0, 58, 67
2, 338944, Note_on_c, 0, 50, 67
2, 339008, Note_off_c, 0, 50, 67
2, 339072, Note_off_c, 0, 50, 67
2, 339072, Note_on_c, 0, 62, 67
2, 339136, Note_off_c, 0, 62, 67
2, 339200, Note_off_c, 0, 62, 67
2, 339200, Note_on_c, 0, 48, 67
2, 339264, Note_off_c, 0, 48, 67
2, 339328, Note_off_c, 0, 48, 67
2, 339328, Note_on_c, 0, 60, 67
2, 339392, Note_off_c, 0, 60, 67
2, 339456, Note_off_c, 0, 60, 67
2, 339456, Note_on_c, 0, 46, 67
2, 339520, Note_off_c, 0, 46, 67
2, 339584, Note_off_c, 0, 46, 67
2, 339584, Note_on_c, 0, 58, 67
2, 339648, Note_off_c, 0, 58, 67
2, 339712, Note_off_c, 0, 58, 67
2, 339712, Note_on_c, 0, 48, 67
2, 339776, Note_off_c, 0, 48, 67
2, 339840, Note_off_c, 0, 48, 67
2, 339840, Note_on_c, 0, 60, 67
2, 339904, Note_off_c, 0, 60, 67
2, 339968, Note_off_c, 0, 60, 67
2, 339968, Note_on_c, 0, 50, 67
2, 340032, Note_off_c, 0, 50, 67
2, 340096, Note_off_c, 0, 50, 67
2, 340096, Note_on_c, 0, 62, 67
2, 340160, Note_off_c, 0, 62, 67
2, 340224, Note_off_c, 0, 62, 67
2, 340224, Note_on_c, 0, 46, 67
2, 340288, Note_off_c, 0, 46, 67
2, 340352, Note_off_c, 0, 46, 67
2, 340352, Note_on_c, 0, 58, 67
2, 340416, Note_off_c, 0, 58, 67
2, 340480, Note_off_c, 0, 58, 67
2, 340480, Note_on_c, 0, 51, 67
2, 340544, Note_off_c, 0, 51, 67
2, 340608, Note_off_c, 0, 51, 67
2, 340608, Note_on_c, 0, 63, 67
2, 340672, Note_off_c, 0, 63, 67
2, 340736, Note_off_c, 0, 63, 67
2, 340736, Note_on_c, 0, 46, 67
2, 340800, Note_off_c, 0, 46, 67
2, 340864, Note_off_c, 0, 46, 67
2, 340864, Note_on_c, 0, 58, 67
2, 340928, Note_off_c, 0, 58, 67
2, 340992, Note_off_c, 0, 58, 67
2, 340992, Note_on_c, 0, 39, 67
2, 341056, Note_off_c, 0, 39, 67
2, 341056, Note_on_c, 0, 46, 67
2, 341120, Note_off_c, 0, 46, 67
2, 341120, Note_on_c, 0, 51, 67
2, 341184, Note_off_c, 0, 51, 67
2, 341184, Note_on_c, 0, 53, 67
2, 341248, Note_off_c, 0, 53, 67
2, 341248, Note_on_c, 0, 55, 67
2, 341312, Note_off_c, 0, 55, 67
2, 341312, Note_on_c, 0, 51, 67
2, 341376, Note_off_c, 0, 51, 67
2, 341376, Note_on_c, 0, 58, 67
2, 341440, Note_off_c, 0, 58, 67
2, 341440, Note_on_c, 0, 63, 67
2, 341488, Control_c, 0, 93, 0
2, 341504, Note_off_c, 0, 63, 67
2, 341504, Note_on_c, 0, 44, 67
2, 341568, Note_off_c, 0, 44, 67
2, 341568, Note_on_c, 0, 51, 67
2, 341632, Note_off_c, 0, 51, 67
2, 341632, Note_on_c, 0, 56, 67
2, 341696, Note_off_c, 0, 56, 67
2, 341696, Note_on_c, 0, 58, 67
2, 341760, Note_off_c, 0, 58, 67
2, 341760, Note_on_c, 0, 60, 67
2, 341824, Note_off_c, 0, 60, 67
2, 341824, Note_on_c, 0, 56, 67
2, 341888, Note_off_c, 0, 56, 67
2, 341888, Note_on_c, 0, 63, 67
2, 341952, Note_off_c, 0, 63, 67
2, 341952, Note_on_c, 0, 68, 67
2, 342000, Control_c, 0, 93, 0
2, 342016, Note_off_c, 0, 68, 67
2, 342016, Note_on_c, 0, 46, 67
2, 342080, Note_off_c, 0, 46, 67
2, 342080, Note_on_c, 0, 53, 67
2, 342144, Note_off_c, 0, 53, 67
2, 342144, Note_on_c, 0, 58, 67
2, 342208, Note_off_c, 0, 58, 67
2, 342208, Note_on_c, 0, 60, 67
2, 342272, Note_off_c, 0, 60, 67
2, 342272, Note_on_c, 0, 62, 67
2, 342336, Note_off_c, 0, 62, 67
2, 342336, Note_on_c, 0, 58, 67
2, 342400, Note_off_c, 0, 58, 67
2, 342400, Note_on_c, 0, 65, 67
2, 342464, Note_off_c, 0, 65, 67
2, 342464, Note_on_c, 0, 70, 67
2, 342512, Control_c, 0, 93, 0
2, 342528, Note_off_c, 0, 70, 67
2, 342528, Note_on_c, 0, 41, 67
2, 342592, Note_off_c, 0, 41, 67
2, 342592, Note_on_c, 0, 44, 67
2, 342656, Note_off_c, 0, 44, 67
2, 342656, Control_c, 0, 64, 64
2, 342656, Note_on_c, 0, 50, 67
2, 342677, Note_off_c, 0, 50, 67
2, 342677, Note_on_c, 0, 53, 67
2, 342698, Note_off_c, 0, 53, 67
2, 342698, Note_on_c, 0, 58, 67
2, 342719, Note_off_c, 0, 58, 67
2, 342720, Control_c, 0, 93, 0
2, 342720, Note_on_c, 0, 62, 67
2, 342741, Note_off_c, 0, 62, 67
2, 342741, Note_on_c, 0, 65, 67
2, 342762, Note_off_c, 0, 65, 67
2, 342762, Note_on_c, 0, 70, 67
2, 342784, Control_c, 0, 93, 0
2, 342784, Control_c, 0, 64, 0
2, 342912, Note_off_c, 0, 70, 67
2, 342912, Note_on_c, 0, 51, 67
2, 342976, Note_off_c, 0, 51, 67
2, 342976, Note_on_c, 0, 46, 67
2, 343040, Note_off_c, 0, 46, 67
2, 343040, Note_on_c, 0, 39, 67
2, 343104, Note_off_c, 0, 39, 67
2, 343104, Note_on_c, 0, 46, 67
2, 343168, Note_off_c, 0, 46, 67
2, 343168, Note_on_c, 0, 51, 67
2, 343232, Note_off_c, 0, 51, 67
2, 343232, Note_on_c, 0, 53, 67
2, 343296, Note_off_c, 0, 53, 67
2, 343296, Note_on_c, 0, 55, 67
2, 343360, Note_off_c, 0, 55, 67
2, 343360, Note_on_c, 0, 51, 67
2, 343424, Note_off_c, 0, 51, 67
2, 343424, Note_on_c, 0, 58, 67
2, 343488, Note_off_c, 0, 58, 67
2, 343488, Note_on_c, 0, 63, 67
2, 343536, Control_c, 0, 93, 0
2, 343552, Note_off_c, 0, 63, 67
2, 343552, Note_on_c, 0, 44, 67
2, 343616, Note_off_c, 0, 44, 67
2, 343616, Note_on_c, 0, 51, 67
2, 343680, Note_off_c, 0, 51, 67
2, 343680, Note_on_c, 0, 56, 67
2, 343744, Note_off_c, 0, 56, 67
2, 343744, Note_on_c, 0, 58, 67
2, 343808, Note_off_c, 0, 58, 67
2, 343808, Note_on_c, 0, 60, 67
2, 343872, Note_off_c, 0, 60, 67
2, 343872, Note_on_c, 0, 56, 67
2, 343936, Note_off_c, 0, 56, 67
2, 343936, Note_on_c, 0, 63, 67
2, 344000, Note_off_c, 0, 63, 67
2, 344000, Note_on_c, 0, 68, 67
2, 344048, Control_c, 0, 93, 0
2, 344064, Note_off_c, 0, 68, 67
2, 344064, Note_on_c, 0, 46, 67
2, 344128, Note_off_c, 0, 46, 67
2, 344128, Note_on_c, 0, 53, 67
2, 344192, Note_off_c, 0, 53, 67
2, 344192, Note_on_c, 0, 58, 67
2, 344256, Note_off_c, 0, 58, 67
2, 344256, Note_on_c, 0, 60, 67
2, 344320, Note_off_c, 0, 60, 67
2, 344320, Note_on_c, 0, 62, 67
2, 344384, Note_off_c, 0, 62, 67
2, 344384, Note_on_c, 0, 58, 67
2, 344448, Note_off_c, 0, 58, 67
2, 344448, Note_on_c, 0, 65, 67
2, 344512, Note_off_c, 0, 65, 67
2, 344512, Note_on_c, 0, 70, 67
2, 344560, Control_c, 0, 93, 0
2, 344576, Note_off_c, 0, 70, 67
2, 344576, Note_on_c, 0, 39, 67
2, 344640, Note_off_c, 0, 39, 67
2, 344640, Note_on_c, 0, 46, 67
2, 344704, Note_off_c, 0, 46, 67
2, 344704, Note_on_c, 0, 51, 67
2, 344768, Note_off_c, 0, 51, 67
2, 344768, Control_c, 0, 64, 64
2, 344768, Note_on_c, 0, 55, 67
2, 344778, Note_off_c, 0, 55, 67
2, 344778, Note_on_c, 0, 58, 67
2, 344789, Note_off_c, 0, 58, 67
2, 344789, Note_on_c, 0, 63, 67
2, 344799, Note_off_c, 0, 63, 67
2, 344800, Control_c, 0, 93, 0
2, 344800, Note_on_c, 0, 67, 67
2, 344810, Note_off_c, 0, 67, 67
2, 344810, Note_on_c, 0, 70, 67
2, 344821, Note_off_c, 0, 70, 67
2, 344821, Note_on_c, 0, 75, 67
2, 344831, Note_off_c, 0, 75, 67
2, 344832, Control_c, 0, 93, 0
2, 344960, Control_c, 0, 93, 0
2, 345024, Control_c, 0, 93, 0
2, 345024, Control_c, 0, 64, 0
2, 345088, Control_c, 0, 93, 0
2, 345088, Note_on_c, 0, 51, 67
2, 345152, Note_off_c, 0, 51, 67
2, 345216, Note_off_c, 0, 51, 67
2, 345216, Note_on_c, 0, 63, 67
2, 345280, Note_off_c, 0, 63, 67
2, 345344, Note_off_c, 0, 63, 67
2, 345344, Note_on_c, 0, 50, 67
2, 345408, Note_off_c, 0, 50, 67
2, 345472, Note_off_c, 0, 50, 67
2, 345472, Note_on_c, 0, 62, 67
2, 345536, Note_off_c, 0, 62, 67
2, 345600, Note_off_c, 0, 62, 67
2, 345600, Note_on_c, 0, 48, 67
2, 345664, Note_off_c, 0, 48, 67
2, 345728, Note_off_c, 0, 48, 67
2, 345728, Note_on_c, 0, 60, 67
2, 345792, Note_off_c, 0, 60, 67
2, 345856, Note_off_c, 0, 60, 67
2, 345856, Note_on_c, 0, 46, 67
2, 345920, Note_off_c, 0, 46, 67
2, 345984, Note_off_c, 0, 46, 67
2, 345984, Note_on_c, 0, 58, 67
2, 346048, Note_off_c, 0, 58, 67
2, 346112, Note_off_c, 0, 58, 67
2, 346112, Note_on_c, 0, 51, 67
2, 346176, Note_off_c, 0, 51, 67
2, 346240, Note_off_c, 0, 51, 67
2, 346240, Note_on_c, 0, 63, 67
2, 346304, Note_off_c, 0, 63, 67
2, 346368, Note_off_c, 0, 63, 67
2, 346368, Note_on_c, 0, 46, 67
2, 346432, Note_off_c, 0, 46, 67
2, 346496, Note_off_c, 0, 46, 67
2, 346496, Note_on_c, 0, 58, 67
2, 346560, Note_off_c, 0, 58, 67
2, 346624, Note_off_c, 0, 58, 67
2, 346624, Note_on_c, 0, 48, 67
2, 346688, Note_off_c, 0, 48, 67
2, 346752, Note_off_c, 0, 48, 67
2, 346752, Note_on_c, 0, 60, 67
2, 346816, Note_off_c, 0, 60, 67
2, 346880, Note_off_c, 0, 60, 67
2, 346880, Note_on_c, 0, 46, 67
2, 346944, Note_off_c, 0, 46, 67
2, 347008, Note_off_c, 0, 46, 67
2, 347008, Note_on_c, 0, 58, 67
2, 347072, Note_off_c, 0, 58, 67
2, 347136, Note_off_c, 0, 58, 67
2, 347136, Note_on_c, 0, 50, 67
2, 347200, Note_off_c, 0, 50, 67
2, 347264, Note_off_c, 0, 50, 67
2, 347264, Note_on_c, 0, 62, 67
2, 347328, Note_off_c, 0, 62, 67
2, 347392, Note_off_c, 0, 62, 67
2, 347392, Note_on_c, 0, 46, 67
2, 347456, Note_off_c, 0, 46, 67
2, 347520, Note_off_c, 0, 46, 67
2, 347520, Note_on_c, 0, 58, 67
2, 347584, Note_off_c, 0, 58, 67
2, 347648, Note_off_c, 0, 58, 67
2, 347648, Note_on_c, 0, 48, 67
2, 347712, Note_off_c, 0, 48, 67
2, 347776, Note_off_c, 0, 48, 67
2, 347776, Note_on_c, 0, 60, 67
2, 347840, Note_off_c, 0, 60, 67
2, 347904, Note_off_c, 0, 60, 67
2, 347904, Note_on_c, 0, 49, 67
2, 347968, Note_off_c, 0, 49, 67
2, 348032, Note_off_c, 0, 49, 67
2, 348032, Note_on_c, 0, 61, 67
2, 348096, Note_off_c, 0, 61, 67
2, 348160, Note_off_c, 0, 61, 67
2, 348160, Note_on_c, 0, 50, 67
2, 348224, Note_off_c, 0, 50, 67
2, 348288, Note_off_c, 0, 50, 67
2, 348288, Note_on_c, 0, 62, 67
2, 348352, Note_off_c, 0, 62, 67
2, 348416, Note_off_c, 0, 62, 67
2, 348416, Note_on_c, 0, 46, 67
2, 348480, Note_off_c, 0, 46, 67
2, 348544, Note_off_c, 0, 46, 67
2, 348544, Note_on_c, 0, 58, 67
2, 348608, Note_off_c, 0, 58, 67
2, 348672, Note_off_c, 0, 58, 67
2, 348672, Note_on_c, 0, 51, 67
2, 348736, Note_off_c, 0, 51, 67
2, 348800, Note_off_c, 0, 51, 67
2, 348800, Note_on_c, 0, 63, 67
2, 348864, Note_off_c, 0, 63, 67
2, 348928, Note_off_c, 0, 63, 67
2, 348928, Note_on_c, 0, 46, 67
2, 348992, Note_off_c, 0, 46, 67
2, 349056, Note_off_c, 0, 46, 67
2, 349056, Note_on_c, 0, 58, 67
2, 349120, Note_off_c, 0, 58, 67
2, 349184, Note_off_c, 0, 58, 67
2, 349184, Note_on_c, 0, 51, 67
2, 349248, Note_off_c, 0, 51, 67
2, 349312, Note_off_c, 0, 51, 67
2, 349312, Note_on_c, 0, 63, 67
2, 349376, Note_off_c, 0, 63, 67
2, 349440, Note_off_c, 0, 63, 67
2, 349440, Note_on_c, 0, 50, 67
2, 349504, Note_off_c, 0, 50, 67
2, 349568, Note_off_c, 0, 50, 67
2, 349568, Note_on_c, 0, 62, 67
2, 349632, Note_off_c, 0, 62, 67
2, 349696, Note_off_c, 0, 62, 67
2, 349696, Note_on_c, 0, 48, 67
2, 349760, Note_off_c, 0, 48, 67
2, 349824, Note_off_c, 0, 48, 67
2, 349824, Note_on_c, 0, 60, 67
2, 349888, Note_off_c, 0, 60, 67
2, 349952, Note_off_c, 0, 60, 67
2, 349952, Note_on_c, 0, 46, 67
2, 350016, Note_off_c, 0, 46, 67
2, 350080, Note_off_c, 0, 46, 67
2, 350080, Note_on_c, 0, 58, 67
2, 350144, Note_off_c, 0, 58, 67
2, 350208, Note_off_c, 0, 58, 67
2, 350208, Note_on_c, 0, 51, 67
2, 350272, Note_off_c, 0, 51, 67
2, 350336, Note_off_c, 0, 51, 67
2, 350336, Note_on_c, 0, 63, 67
2, 350400, Note_off_c, 0, 63, 67
2, 350464, Note_off_c, 0, 63, 67
2, 350464, Note_on_c, 0, 46, 67
2, 350528, Note_off_c, 0, 46, 67
2, 350592, Note_off_c, 0, 46, 67
2, 350592, Note_on_c, 0, 58, 67
2, 350656, Note_off_c, 0, 58, 67
2, 350720, Note_off_c, 0, 58, 67
2, 350720, Note_on_c, 0, 48, 67
2, 350784, Note_off_c, 0, 48, 67
2, 350848, Note_off_c, 0, 48, 67
2, 350848, Note_on_c, 0, 60, 67
2, 350912, Note_off_c, 0, 60, 67
2, 350976, Note_off_c, 0, 60, 67
2, 350976, Note_on_c, 0, 46, 67
2, 351040, Note_off_c, 0, 46, 67
2, 351104, Note_off_c, 0, 46, 67
2, 351104, Note_on_c, 0, 58, 67
2, 351168, Note_off_c, 0, 58, 67
2, 351232, Note_off_c, 0, 58, 67
2, 351232, Note_on_c, 0, 50, 67
2, 351296, Note_off_c, 0, 50, 67
2, 351360, Note_off_c, 0, 50, 67
2, 351360, Note_on_c, 0, 62, 67
2, 351424, Note_off_c, 0, 62, 67
2, 351488, Note_off_c, 0, 62, 67
2, 351488, Note_on_c, 0, 48, 67
2, 351552, Note_off_c, 0, 48, 67
2, 351616, Note_off_c, 0, 48, 67
2, 351616, Note_on_c, 0, 60, 67
2, 351680, Note_off_c, 0, 60, 67
2, 351744, Note_off_c, 0, 60, 67
2, 351744, Note_on_c, 0, 46, 67
2, 351808, Note_off_c, 0, 46, 67
2, 351872, Note_off_c, 0, 46, 67
2, 351872, Note_on_c, 0, 58, 67
2, 351936, Note_off_c, 0, 58, 67
2, 352000, Note_off_c, 0, 58, 67
2, 352000, Note_on_c, 0, 48, 67
2, 352064, Note_off_c, 0, 48, 67
2, 352128, Note_off_c, 0, 48, 67
2, 352128, Note_on_c, 0, 60, 67
2, 352192, Note_off_c, 0, 60, 67
2, 352256, Note_off_c, 0, 60, 67
2, 352256, Note_on_c, 0, 50, 67
2, 352320, Note_off_c, 0, 50, 67
2, 352384, Note_off_c, 0, 50, 67
2, 352384, Note_on_c, 0, 62, 67
2, 352448, Note_off_c, 0, 62, 67
2, 352512, Note_off_c, 0, 62, 67
2, 352512, Note_on_c, 0, 46, 67
2, 352576, Note_off_c, 0, 46, 67
2, 352640, Note_off_c, 0, 46, 67
2, 352640, Note_on_c, 0, 58, 67
2, 352704, Note_off_c, 0, 58, 67
2, 352768, Note_off_c, 0, 58, 67
2, 352768, Note_on_c, 0, 51, 67
2, 352832, Note_off_c, 0, 51, 67
2, 352896, Note_off_c, 0, 51, 67
2, 352896, Note_on_c, 0, 63, 67
2, 352960, Note_off_c, 0, 63, 67
2, 353024, Note_off_c, 0, 63, 67
2, 353024, Note_on_c, 0, 46, 67
2, 353088, Note_off_c, 0, 46, 67
2, 353152, Note_off_c, 0, 46, 67
2, 353152, Note_on_c, 0, 58, 67
2, 353216, Note_off_c, 0, 58, 67
2, 353280, Note_off_c, 0, 58, 67
2, 353280, Note_on_c, 0, 39, 67
2, 353344, Note_off_c, 0, 39, 67
2, 353344, Note_on_c, 0, 46, 67
2, 353408, Note_off_c, 0, 46, 67
2, 353408, Note_on_c, 0, 51, 67
2, 353472, Note_off_c, 0, 51, 67
2, 353472, Note_on_c, 0, 53, 67
2, 353536, Note_off_c, 0, 53, 67
2, 353536, Note_on_c, 0, 55, 67
2, 353600, Note_off_c, 0, 55, 67
2, 353600, Note_on_c, 0, 51, 67
2, 353664, Note_off_c, 0, 51, 67
2, 353664, Note_on_c, 0, 58, 67
2, 353728, Note_off_c, 0, 58, 67
2, 353728, Note_on_c, 0, 63, 67
2, 353776, Control_c, 0, 93, 0
2, 353792, Note_off_c, 0, 63, 67
2, 353792, Note_on_c, 0, 44, 67
2, 353856, Note_off_c, 0, 44, 67
2, 353856, Note_on_c, 0, 51, 67
2, 353920, Note_off_c, 0, 51, 67
2, 353920, Note_on_c, 0, 56, 67
2, 353984, Note_off_c, 0, 56, 67
2, 353984, Note_on_c, 0, 58, 67
2, 354048, Note_off_c, 0, 58, 67
2, 354048, Note_on_c, 0, 60, 67
2, 354112, Note_off_c, 0, 60, 67
2, 354112, Note_on_c, 0, 56, 67
2, 354176, Note_off_c, 0, 56, 67
2, 354176, Note_on_c, 0, 63, 67
2, 354240, Note_off_c, 0, 63, 67
2, 354240, Note_on_c, 0, 68, 67
2, 354288, Control_c, 0, 93, 0
2, 354304, Note_off_c, 0, 68, 67
2, 354304, Note_on_c, 0, 46, 67
2, 354368, Note_off_c, 0, 46, 67
2, 354368, Note_on_c, 0, 53, 67
2, 354432, Note_off_c, 0, 53, 67
2, 354432, Note_on_c, 0, 58, 67
2, 354496, Note_off_c, 0, 58, 67
2, 354496, Note_on_c, 0, 60, 67
2, 354560, Note_off_c, 0, 60, 67
2, 354560, Note_on_c, 0, 62, 67
2, 354624, Note_off_c, 0, 62, 67
2, 354624, Note_on_c, 0, 58, 67
2, 354688, Note_off_c, 0, 58, 67
2, 354688, Note_on_c, 0, 65, 67
2, 354752, Note_off_c, 0, 65, 67
2, 354752, Note_on_c, 0, 70, 67
2, 354800, Control_c, 0, 93, 0
2, 354816, Note_off_c, 0, 70, 67
2, 354816, Note_on_c, 0, 41, 67
2, 354880, Note_off_c, 0, 41, 67
2, 354880, Note_on_c, 0, 44, 67
2, 354944, Note_off_c, 0, 44, 67
2, 354944, Control_c, 0, 64, 64
2, 354944, Note_on_c, 0, 50, 67
2, 354965, Note_off_c, 0, 50, 67
2, 354965, Note_on_c, 0, 53, 67
2, 354986, Note_off_c, 0, 53, 67
2, 354986, Note_on_c, 0, 58, 67
2, 355007, Note_off_c, 0, 58, 67
2, 355008, Control_c, 0, 93, 0
2, 355008, Note_on_c, 0, 62, 67
2, 355029, Note_off_c, 0, 62, 67
2, 355029, Note_on_c, 0, 65, 67
2, 355050, Note_off_c, 0, 65, 67
2, 355050, Note_on_c, 0, 70, 67
2, 355072, Control_c, 0, 93, 0
2, 355072, Control_c, 0, 64, 0
2, 355200, Note_off_c, 0, 70, 67
2, 355200, Note_on_c, 0, 51, 67
2, 355264, Note_off_c, 0, 51, 67
2, 355264, Note_on_c, 0, 46, 67
2, 355328, Note_off_c, 0, 46, 67
2, 355328, Note_on_c, 0, 39, 67
2, 355392, Note_off_c, 0, 39, 67
2, 355392, Note_on_c, 0, 46, 67
2, 355456, Note_off_c, 0, 46, 67
2, 355456, Note_on_c, 0, 51, 67
2, 355520, Note_off_c, 0, 51, 67
2, 355520, Note_on_c, 0, 53, 67
2, 355584, Note_off_c, 0, 53, 67
2, 355584, Note_on_c, 0, 55, 67
2, 355648, Note_off_c, 0, 55, 67
2, 355648, Note_on_c, 0, 51, 67
2, 355712, Note_off_c, 0, 51, 67
2, 355712, Note_on_c, 0, 58, 67
2, 355776, Note_off_c, 0, 58, 67
2, 355776, Note_on_c, 0, 63, 67
2, 355824, Control_c, 0, 93, 0
2, 355840, Note_off_c, 0, 63, 67
2, 355840, Note_on_c, 0, 44, 67
2, 355904, Note_off_c, 0, 44, 67
2, 355904, Note_on_c, 0, 51, 67
2, 355968, Note_off_c, 0, 51, 67
2, 355968, Note_on_c, 0, 56, 67
2, 356032, Note_off_c, 0, 56, 67
2, 356032, Note_on_c, 0, 58, 67
2, 356096, Note_off_c, 0, 58, 67
2, 356096, Note_on_c, 0, 60, 67
2, 356160, Note_off_c, 0, 60, 67
2, 356160, Note_on_c, 0, 56, 67
2, 356224, Note_off_c, 0, 56, 67
2, 356224, Note_on_c, 0, 63, 67
2, 356288, Note_off_c, 0, 63, 67
2, 356288, Note_on_c, 0, 68, 67
2, 356336, Control_c, 0, 93, 0
2, 356352, Note_off_c, 0, 68, 67
2, 356352, Note_on_c, 0, 46, 67
2, 356416, Note_off_c, 0, 46, 67
2, 356416, Note_on_c, 0, 53, 67
2, 356480, Note_off_c, 0, 53, 67
2, 356480, Note_on_c, 0, 58, 67
2, 356544, Note_off_c, 0, 58, 67
2, 356544, Note_on_c, 0, 60, 67
2, 356608, Note_off_c, 0, 60, 67
2, 356608, Note_on_c, 0, 62, 67
2, 356672, Note_off_c, 0, 62, 67
2, 356672, Note_on_c, 0, 58, 67
2, 356736, Note_off_c, 0, 58, 67
2, 356736, Note_on_c, 0, 65, 67
2, 356800, Note_off_c, 0, 65, 67
2, 356800, Note_on_c, 0, 70, 67
2, 356848, Control_c, 0, 93, 0
2, 356864, Note_off_c, 0, 70, 67
2, 356864, Note_on_c, 0, 39, 67
2, 356928, Note_off_c, 0, 39, 67
2, 356928, Note_on_c, 0, 46, 67
2, 356992, Note_off_c, 0, 46, 67
2, 356992, Note_on_c, 0, 51, 67
2, 357056, Note_off_c, 0, 51, 67
2, 357056, Control_c, 0, 64, 64
2, 357056, Note_on_c, 0, 55, 67
2, 357066, Note_off_c, 0, 55, 67
2, 357066, Note_on_c, 0, 58, 67
2, 357077, Note_off_c, 0, 58, 67
2, 357077, Note_on_c, 0, 63, 67
2, 357087, Note_off_c, 0, 63, 67
2, 357088, Control_c, 0, 93, 0
2, 357088, Note_on_c, 0, 67, 67
2, 357098, Note_off_c, 0, 67, 67
2, 357098, Note_on_c, 0, 70, 67
2, 357109, Note_off_c, 0, 70, 67
2, 357109, Note_on_c, 0, 75, 67
2, 357119, Note_off_c, 0, 75, 67
2, 357120, Control_c, 0, 93, 0
2, 357248, Control_c, 0, 93, 0
2, 357312, Control_c, 0, 93, 0
2, 357312, Control_c, 0, 64, 0
2, 357376, Control_c, 0, 93, 0
2, 357376, Note_on_c, 0, 51, 67
2, 357440, Note_off_c, 0, 51, 67
2, 357504, Note_off_c, 0, 51, 67
2, 357504, Note_on_c, 0, 63, 67
2, 357568, Note_off_c, 0, 63, 67
2, 357632, Note_off_c, 0, 63, 67
2, 357632, Note_on_c, 0, 50, 67
2, 357696, Note_off_c, 0, 50, 67
2, 357760, Note_off_c, 0, 50, 67
2, 357760, Note_on_c, 0, 62, 67
2, 357824, Note_off_c, 0, 62, 67
2, 357888, Note_off_c, 0, 62, 67
2, 357888, Note_on_c, 0, 48, 67
2, 357952, Note_off_c, 0, 48, 67
2, 358016, Note_off_c, 0, 48, 67
2, 358016, Note_on_c, 0, 60, 67
2, 358080, Note_off_c, 0, 60, 67
2, 358144, Note_off_c, 0, 60, 67
2, 358144, Note_on_c, 0, 46, 67
2, 358208, Note_off_c, 0, 46, 67
2, 358272, Note_off_c, 0, 46, 67
2, 358272, Note_on_c, 0, 58, 67
2, 358336, Note_off_c, 0, 58, 67
2, 358400, Note_off_c, 0, 58, 67
2, 358400, Note_on_c, 0, 51, 67
2, 358464, Note_off_c, 0, 51, 67
2, 358528, Note_off_c, 0, 51, 67
2, 358528, Note_on_c, 0, 63, 67
2, 358592, Note_off_c, 0, 63, 67
2, 358656, Note_off_c, 0, 63, 67
2, 358656, Note_on_c, 0, 46, 67
2, 358720, Note_off_c, 0, 46, 67
2, 358784, Note_off_c, 0, 46, 67
2, 358784, Note_on_c, 0, 58, 67
2, 358848, Note_off_c, 0, 58, 67
2, 358912, Note_off_c, 0, 58, 67
2, 358912, Note_on_c, 0, 48, 67
2, 358976, Note_off_c, 0, 48, 67
2, 359040, Note_off_c, 0, 48, 67
2, 359040, Note_on_c, 0, 60, 67
2, 359104, Note_off_c, 0, 60, 67
2, 359168, Note_off_c, 0, 60, 67
2, 359168, Note_on_c, 0, 46, 67
2, 359232, Note_off_c, 0, 46, 67
2, 359296, Note_off_c, 0, 46, 67
2, 359296, Note_on_c, 0, 58, 67
2, 359360, Note_off_c, 0, 58, 67
2, 359424, Note_off_c, 0, 58, 67
2, 359424, Note_on_c, 0, 50, 67
2, 359488, Note_off_c, 0, 50, 67
2, 359552, Note_off_c, 0, 50, 67
2, 359552, Note_on_c, 0, 62, 67
2, 359616, Note_off_c, 0, 62, 67
2, 359680, Note_off_c, 0, 62, 67
2, 359680, Note_on_c, 0, 46, 67
2, 359744, Note_off_c, 0, 46, 67
2, 359808, Note_off_c, 0, 46, 67
2, 359808, Note_on_c, 0, 58, 67
2, 359872, Note_off_c, 0, 58, 67
2, 359936, Note_off_c, 0, 58, 67
2, 359936, Note_on_c, 0, 48, 67
2, 360000, Note_off_c, 0, 48, 67
2, 360064, Note_off_c, 0, 48, 67
2, 360064, Note_on_c, 0, 60, 67
2, 360128, Note_off_c, 0, 60, 67
2, 360192, Note_off_c, 0, 60, 67
2, 360192, Note_on_c, 0, 49, 67
2, 360256, Note_off_c, 0, 49, 67
2, 360320, Note_off_c, 0, 49, 67
2, 360320, Note_on_c, 0, 61, 67
2, 360384, Note_off_c, 0, 61, 67
2, 360448, Note_off_c, 0, 61, 67
2, 360448, Note_on_c, 0, 50, 67
2, 360512, Note_off_c, 0, 50, 67
2, 360576, Note_off_c, 0, 50, 67
2, 360576, Note_on_c, 0, 62, 67
2, 360640, Note_off_c, 0, 62, 67
2, 360704, Note_off_c, 0, 62, 67
2, 360704, Note_on_c, 0, 46, 67
2, 360768, Note_off_c, 0, 46, 67
2, 360832, Note_off_c, 0, 46, 67
2, 360832, Note_on_c, 0, 58, 67
2, 360896, Note_off_c, 0, 58, 67
2, 360960, Note_off_c, 0, 58, 67
2, 360960, Note_on_c, 0, 51, 67
2, 361024, Note_off_c, 0, 51, 67
2, 361088, Note_off_c, 0, 51, 67
2, 361088, Note_on_c, 0, 63, 67
2, 361152, Note_off_c, 0, 63, 67
2, 361216, Note_off_c, 0, 63, 67
2, 361216, Note_on_c, 0, 46, 67
2, 361280, Note_off_c, 0, 46, 67
2, 361344, Note_off_c, 0, 46, 67
2, 361344, Note_on_c, 0, 58, 67
2, 361408, Note_off_c, 0, 58, 67
2, 361472, Note_off_c, 0, 58, 67
2, 361472, Note_on_c, 0, 51, 67
2, 361536, Note_off_c, 0, 51, 67
2, 361600, Note_off_c, 0, 51, 67
2, 361600, Note_on_c, 0, 63, 67
2, 361664, Note_off_c, 0, 63, 67
2, 361728, Note_off_c, 0, 63, 67
2, 361728, Note_on_c, 0, 50, 67
2, 361792, Note_off_c, 0, 50, 67
2, 361856, Note_off_c, 0, 50, 67
2, 361856, Note_on_c, 0, 62, 67
2, 361920, Note_off_c, 0, 62, 67
2, 361984, Note_off_c, 0, 62, 67
2, 361984, Note_on_c, 0, 48, 67
2, 362048, Note_off_c, 0, 48, 67
2, 362112, Note_off_c, 0, 48, 67
2, 362112, Note_on_c, 0, 60, 67
2, 362176, Note_off_c, 0, 60, 67
2, 362240, Note_off_c, 0, 60, 67
2, 362240, Note_on_c, 0, 46, 67
2, 362304, Note_off_c, 0, 46, 67
2, 362368, Note_off_c, 0, 46, 67
2, 362368, Note_on_c, 0, 58, 67
2, 362432, Note_off_c, 0, 58, 67
2, 362496, Note_off_c, 0, 58, 67
2, 362496, Note_on_c, 0, 51, 67
2, 362560, Note_off_c, 0, 51, 67
2, 362624, Note_off_c, 0, 51, 67
2, 362624, Note_on_c, 0, 63, 67
2, 362688, Note_off_c, 0, 63, 67
2, 362752, Note_off_c, 0, 63, 67
2, 362752, Note_on_c, 0, 46, 67
2, 362816, Note_off_c, 0, 46, 67
2, 362880, Note_off_c, 0, 46, 67
2, 362880, Note_on_c, 0, 58, 67
2, 362944, Note_off_c, 0, 58, 67
2, 363008, Note_off_c, 0, 58, 67
2, 363008, Note_on_c, 0, 48, 67
2, 363072, Note_off_c, 0, 48, 67
2, 363136, Note_off_c, 0, 48, 67
2, 363136, Note_on_c, 0, 60, 67
2, 363200, Note_off_c, 0, 60, 67
2, 363264, Note_off_c, 0, 60, 67
2, 363264, Note_on_c, 0, 46, 67
2, 363328, Note_off_c, 0, 46, 67
2, 363392, Note_off_c, 0, 46, 67
2, 363392, Note_on_c, 0, 58, 67
2, 363456, Note_off_c, 0, 58, 67
2, 363520, Note_off_c, 0, 58, 67
2, 363520, Note_on_c, 0, 50, 67
2, 363584, Note_off_c, 0, 50, 67
2, 363648, Note_off_c, 0, 50, 67
2, 363648, Note_on_c, 0, 62, 67
2, 363712, Note_off_c, 0, 62, 67
2, 363776, Note_off_c, 0, 62, 67
2, 363776, Note_on_c, 0, 48, 67
2, 363840, Note_off_c, 0, 48, 67
2, 363904, Note_off_c, 0, 48, 67
2, 363904, Note_on_c, 0, 60, 67
2, 363968, Note_off_c, 0, 60, 67
2, 364032, Note_off_c, 0, 60, 67
2, 364032, Note_on_c, 0, 46, 67
2, 364096, Note_off_c, 0, 46, 67
2, 364160, Note_off_c, 0, 46, 67
2, 364160, Note_on_c, 0, 58, 67
2, 364224, Note_off_c, 0, 58, 67
2, 364288, Note_off_c, 0, 58, 67
2, 364288, Note_on_c, 0, 48, 67
2, 364352, Note_off_c, 0, 48, 67
2, 364416, Note_off_c, 0, 48, 67
2, 364416, Note_on_c, 0, 60, 67
2, 364480, Note_off_c, 0, 60, 67
2, 364544, Note_off_c, 0, 60, 67
2, 364544, Note_on_c, 0, 50, 67
2, 364608, Note_off_c, 0, 50, 67
2, 364672, Note_off_c, 0, 50, 67
2, 364672, Note_on_c, 0, 62, 67
2, 364736, Note_off_c, 0, 62, 67
2, 364800, Note_off_c, 0, 62, 67
2, 364800, Note_on_c, 0, 46, 67
2, 364864, Note_off_c, 0, 46, 67
2, 364928, Note_off_c, 0, 46, 67
2, 364928, Note_on_c, 0, 58, 67
2, 364992, Note_off_c, 0, 58, 67
2, 365056, Note_off_c, 0, 58, 67
2, 365056, Note_on_c, 0, 51, 67
2, 365120, Note_off_c, 0, 51, 67
2, 365184, Note_off_c, 0, 51, 67
2, 365184, Note_on_c, 0, 63, 67
2, 365248, Note_off_c, 0, 63, 67
2, 365312, Note_off_c, 0, 63, 67
2, 365312, Note_on_c, 0, 46, 67
2, 365376, Note_off_c, 0, 46, 67
2, 365440, Note_off_c, 0, 46, 67
2, 365440, Note_on_c, 0, 58, 67
2, 365504, Note_off_c, 0, 58, 67
2, 365568, Note_off_c, 0, 58, 67
2, 365568, Note_on_c, 0, 39, 67
2, 365632, Note_off_c, 0, 39, 67
2, 365632, Note_on_c, 0, 46, 67
2, 365696, Note_off_c, 0, 46, 67
2, 365696, Note_on_c, 0, 51, 67
2, 365760, Note_off_c, 0, 51, 67
2, 365760, Note_on_c, 0, 53, 67
2, 365824, Note_off_c, 0, 53, 67
2, 365824, Note_on_c, 0, 55, 67
2, 365888, Note_off_c, 0, 55, 67
2, 365888, Note_on_c, 0, 51, 67
2, 365952, Note_off_c, 0, 51, 67
2, 365952, Note_on_c, 0, 58, 67
2, 366016, Note_off_c, 0, 58, 67
2, 366016, Note_on_c, 0, 63, 67
2, 366064, Control_c, 0, 93, 0
2, 366080, Note_off_c, 0, 63, 67
2, 366080, Note_on_c, 0, 44, 67
2, 366144, Note_off_c, 0, 44, 67
2, 366144, Note_on_c, 0, 51, 67
2, 366208, Note_off_c, 0, 51, 67
2, 366208, Note_on_c, 0, 56, 67
2, 366272, Note_off_c, 0, 56, 67
2, 366272, Note_on_c, 0, 58, 67
2, 366336, Note_off_c, 0, 58, 67
2, 366336, Note_on_c, 0, 60, 67
2, 366400, Note_off_c, 0, 60, 67
2, 366400, Note_on_c, 0, 56, 67
2, 366464, Note_off_c, 0, 56, 67
2, 366464, Note_on_c, 0, 63, 67
2, 366528, Note_off_c, 0, 63, 67
2, 366528, Note_on_c, 0, 68, 67
2, 366576, Control_c, 0, 93, 0
2, 366592, Note_off_c, 0, 68, 67
2, 366592, Note_on_c, 0, 46, 67
2, 366656, Note_off_c, 0, 46, 67
2, 366656, Note_on_c, 0, 53, 67
2, 366720, Note_off_c, 0, 53, 67
2, 366720, Note_on_c, 0, 58, 67
2, 366784, Note_off_c, 0, 58, 67
2, 366784, Note_on_c, 0, 60, 67
2, 366848, Note_off_c, 0, 60, 67
2, 366848, Note_on_c, 0, 62, 67
2, 366912, Note_off_c, 0, 62, 67
2, 366912, Note_on_c, 0, 58, 67
2, 366976, Note_off_c, 0, 58, 67
2, 366976, Note_on_c, 0, 65, 67
2, 367040, Note_off_c, 0, 65, 67
2, 367040, Note_on_c, 0, 70, 67
2, 367088, Control_c, 0, 93, 0
2, 367104, Note_off_c, 0, 70, 67
2, 367104, Note_on_c, 0, 41, 67
2, 367168, Note_off_c, 0, 41, 67
2, 367168, Note_on_c, 0, 44, 67
2, 367232, Note_off_c, 0, 44, 67
2, 367232, Control_c, 0, 64, 64
2, 367232, Note_on_c, 0, 50, 67
2, 367253, Note_off_c, 0, 50, 67
2, 367253, Note_on_c, 0, 53, 67
2, 367274, Note_off_c, 0, 53, 67
2, 367274, Note_on_c, 0, 58, 67
2, 367295, Note_off_c, 0, 58, 67
2, 367296, Control_c, 0, 93, 0
2, 367296, Note_on_c, 0, 62, 67
2, 367317, Note_off_c, 0, 62, 67
2, 367317, Note_on_c, 0, 65, 67
2, 367338, Note_off_c, 0, 65, 67
2, 367338, Note_on_c, 0, 70, 67
2, 367360, Control_c, 0, 93, 0
2, 367360, Control_c, 0, 64, 0
2, 367488, Note_off_c, 0, 70, 67
2, 367488, Note_on_c, 0, 51, 67
2, 367552, Note_off_c, 0, 51, 67
2, 367552, Note_on_c, 0, 46, 67
2, 367616, Note_off_c, 0, 46, 67
2, 367616, Note_on_c, 0, 39, 67
2, 367680, Note_off_c, 0, 39, 67
2, 367680, Note_on_c, 0, 46, 67
2, 367744, Note_off_c, 0, 46, 67
2, 367744, Note_on_c, 0, 51, 67
2, 367808, Note_off_c, 0, 51, 67
2, 367808, Note_on_c, 0, 53, 67
2, 367872, Note_off_c, 0, 53, 67
2, 367872, Note_on_c, 0, 55, 67
2, 367936, Note_off_c, 0, 55, 67
2, 367936, Note_on_c, 0, 51, 67
2, 368000, Note_off_c, 0, 51, 67
2, 368000, Note_on_c, 0, 58, 67
2, 368064, Note_off_c, 0, 58, 67
2, 368064, Note_on_c, 0, 63, 67
2, 368112, Control_c, 0, 93, 0
2, 368128, Note_off_c, 0, 63, 67
2, 368128, Note_on_c, 0, 44, 67
2, 368192, Note_off_c, 0, 44, 67
2, 368192, Note_on_c, 0, 51, 67
2, 368256, Note_off_c, 0, 51, 67
2, 368256, Note_on_c, 0, 56, 67
2, 368320, Note_off_c, 0, 56, 67
2, 368320, Note_on_c, 0, 58, 67
2, 368384, Note_off_c, 0, 58, 67
2, 368384, Note_on_c, 0, 60, 67
2, 368448, Note_off_c, 0, 60, 67
2, 368448, Note_on_c, 0, 56, 67
2, 368512, Note_off_c, 0, 56, 67
2, 368512, Note_on_c, 0, 63, 67
2, 368576, Note_off_c, 0, 63, 67
2, 368576, Note_on_c, 0, 68, 67
2, 368624, Control_c, 0, 93, 0
2, 368640, Note_off_c, 0, 68, 67
2, 368640, Note_on_c, 0, 46, 67
2, 368704, Note_off_c, 0, 46, 67
2, 368704, Note_on_c, 0, 53, 67
2, 368768, Note_off_c, 0, 53, 67
2, 368768, Note_on_c, 0, 58, 67
2, 368832, Note_off_c, 0, 58, 67
2, 368832, Note_on_c, 0, 60, 67
2, 368896, Note_off_c, 0, 60, 67
2, 368896, Note_on_c, 0, 62, 67
2, 368960, Note_off_c, 0, 62, 67
2, 368960, Note_on_c, 0, 58, 67
2, 369024, Note_off_c, 0, 58, 67
2, 369024, Note_on_c, 0, 65, 67
2, 369088, Note_off_c, 0, 65, 67
2, 369088, Note_on_c, 0, 70, 67
2, 369136, Control_c, 0, 93, 0
2, 369152, Note_off_c, 0, 70, 67
2, 369152, Note_on_c, 0, 39, 67
2, 369216, Note_off_c, 0, 39, 67
2, 369216, Note_on_c, 0, 46, 67
2, 369280, Note_off_c, 0, 46, 67
2, 369280, Note_on_c, 0, 51, 67
2, 369344, Note_off_c, 0, 51, 67
2, 369344, Control_c, 0, 64, 64
2, 369344, Note_on_c, 0, 55, 67
2, 369354, Note_off_c, 0, 55, 67
2, 369354, Note_on_c, 0, 58, 67
2, 369365, Note_off_c, 0, 58, 67
2, 369365, Note_on_c, 0, 63, 67
2, 369375, Note_off_c, 0, 63, 67
2, 369376, Control_c, 0, 93, 0
2, 369376, Note_on_c, 0, 67, 67
2, 369386, Note_off_c, 0, 67, 67
2, 369386, Note_on_c, 0, 70, 67
2, 369397, Note_off_c, 0, 70, 67
2, 369397, Note_on_c, 0, 75, 67
2, 369407, Note_off_c, 0, 75, 67
2, 369408, Control_c, 0, 93, 0
2, 369536, Control_c, 0, 93, 0
2, 369600, Control_c, 0, 93, 0
2, 369600, Control_c, 0, 64, 0
2, 369664, Control_c, 0, 93, 0
2, 369664, Note_on_c, 0, 51, 67
2, 369728, Note_off_c, 0, 51, 67
2, 369792, Note_off_c, 0, 51, 67
2, 369792, Note_on_c, 0, 63, 67
2, 369856, Note_off_c, 0, 63, 67
2, 369920, Note_off_c, 0, 63, 67
2, 369920, Note_on_c, 0, 50, 67
2, 369984, Note_off_c, 0, 50, 67
2, 370048, Note_off_c, 0, 50, 67
2, 370048, Note_on_c, 0, 62, 67
2, 370112, Note_off_c, 0, 62, 67
2, 370176, Note_off_c, 0, 62, 67
2, 370176, Note_on_c, 0, 48, 67
2, 370240, Note_off_c, 0, 48, 67
2, 370304, Note_off_c, 0, 48, 67
2, 370304, Note_on_c, 0, 60, 67
2, 370368, Note_off_c, 0, 60, 67
2, 370432, Note_off_c, 0, 60, 67
2, 370432, Note_on_c, 0, 46, 67
2, 370496, Note_off_c, 0, 46, 67
2, 370560, Note_off_c, 0, 46, 67
2, 370560, Note_on_c, 0, 58, 67
2, 370624, Note_off_c, 0, 58, 67
2, 370688, Note_off_c, 0, 58, 67
2, 370688, Note_on_c, 0, 51, 67
2, 370752, Note_off_c, 0, 51, 67
2, 370816, Note_off_c, 0, 51, 67
2, 370816, Note_on_c, 0, 63, 67
2, 370880, Note_off_c, 0, 63, 67
2, 370944, Note_off_c, 0, 63, 67
2, 370944, Note_on_c, 0, 46, 67
2, 371008, Note_off_c, 0, 46, 67
2, 371072, Note_off_c, 0, 46, 67
2, 371072, Note_on_c, 0, 58, 67
2, 371136, Note_off_c, 0, 58, 67
2, 371200, Note_off_c, 0, 58, 67
2, 371200, Note_on_c, 0, 48, 67
2, 371264, Note_off_c, 0, 48, 67
2, 371328, Note_off_c, 0, 48, 67
2, 371328, Note_on_c, 0, 60, 67
2, 371392, Note_off_c, 0, 60, 67
2, 371456, Note_off_c, 0, 60, 67
2, 371456, Note_on_c, 0, 46, 67
2, 371520, Note_off_c, 0, 46, 67
2, 371584, Note_off_c, 0, 46, 67
2, 371584, Note_on_c, 0, 58, 67
2, 371648, Note_off_c, 0, 58, 67
2, 371712, Note_off_c, 0, 58, 67
2, 371712, Note_on_c, 0, 50, 67
2, 371776, Note_off_c, 0, 50, 67
2, 371840, Note_off_c, 0, 50, 67
2, 371840, Note_on_c, 0, 62, 67
2, 371904, Note_off_c, 0, 62, 67
2, 371968, Note_off_c, 0, 62, 67
2, 371968, Note_on_c, 0, 46, 67
2, 372032, Note_off_c, 0, 46, 67
2, 372096, Note_off_c, 0, 46, 67
2, 372096, Note_on_c, 0, 58, 67
2, 372160, Note_off_c, 0, 58, 67
2, 372224, Note_off_c, 0, 58, 67
2, 372224, Note_on_c, 0, 48, 67
2, 372288, Note_off_c, 0, 48, 67
2, 372352, Note_off_c, 0, 48, 67
2, 372352, Note_on_c, 0, 60, 67
2, 372416, Note_off_c, 0, 60, 67
2, 372480, Note_off_c, 0, 60, 67
2, 372480, Note_on_c, 0, 49, 67
2, 372544, Note_off_c, 0, 49, 67
2, 372608, Note_off_c, 0, 49, 67
2, 372608, Note_on_c, 0, 61, 67
2, 372672, Note_off_c, 0, 61, 67
2, 372736, Note_off_c, 0, 61, 67
2, 372736, Note_on_c, 0, 50, 67
2, 372800, Note_off_c, 0, 50, 67
2, 372864, Note_off_c, 0, 50, 67
2, 372864, Note_on_c, 0, 62, 67
2, 372928, Note_off_c, 0, 62, 67
2, 372992, Note_off_c, 0, 62, 67
2, 372992, Note_on_c, 0, 46, 67
2, 373056, Note_off_c, 0, 46, 67
2, 373120, Note_off_c, 0, 46, 67
2, 373120, Note_on_c, 0, 58, 67
2, 373184, Note_off_c, 0, 58, 67
2, 373248, Note_off_c, 0, 58, 67
2, 373248, Note_on_c, 0, 51, 67
2, 373312, Note_off_c, 0, 51, 67
2, 373376, Note_off_c, 0, 51, 67
2, 373376, Note_on_c, 0, 63, 67
2, 373440, Note_off_c, 0, 63, 67
2, 373504, Note_off_c, 0, 63, 67
2, 373504, Note_on_c, 0, 46, 67
2, 373568, Note_off_c, 0, 46, 67
2, 373632, Note_off_c, 0, 46, 67
2, 373632, Note_on_c, 0, 58, 67
2, 373696, Note_off_c, 0, 58, 67
2, 373760, Note_off_c, 0, 58, 67
2, 373760, Note_on_c, 0, 51, 67
2, 373824, Note_off_c, 0, 51, 67
2, 373888, Note_off_c, 0, 51, 67
2, 373888, Note_on_c, 0, 63, 67
2, 373952, Note_off_c, 0, 63, 67
2, 374016, Note_off_c, 0, 63, 67
2, 374016, Note_on_c, 0, 50, 67
2, 374080, Note_off_c, 0, 50, 67
2, 374144, Note_off_c, 0, 50, 67
2, 374144, Note_on_c, 0, 62, 67
2, 374208, Note_off_c, 0, 62, 67
2, 374272, Note_off_c, 0, 62, 67
2, 374272, Note_on_c, 0, 48, 67
2, 374336, Note_off_c, 0, 48, 67
2, 374400, Note_off_c, 0, 48, 67
2, 374400, Note_on_c, 0, 60, 67
2, 374464, Note_off_c, 0, 60, 67
2, 374528, Note_off_c, 0, 60, 67
2, 374528, Note_on_c, 0, 46, 67
2, 374592, Note_off_c, 0, 46, 67
2, 374656, Note_off_c, 0, 46, 67
2, 374656, Note_on_c, 0, 58, 67
2, 374720, Note_off_c, 0, 58, 67
2, 374784, Note_off_c, 0, 58, 67
2, 374784, Note_on_c, 0, 51, 67
2, 374848, Note_off_c, 0, 51, 67
2, 374912, Note_off_c, 0, 51, 67
2, 374912, Note_on_c, 0, 63, 67
2, 374976, Note_off_c, 0, 63, 67
2, 375040, Note_off_c, 0, 63, 67
2, 375040, Note_on_c, 0, 46, 67
2, 375104, Note_off_c, 0, 46, 67
2, 375168, Note_off_c, 0, 46, 67
2, 375168, Note_on_c, 0, 58, 67
2, 375232, Note_off_c, 0, 58, 67
2, 375296, Note_off_c, 0, 58, 67
2, 375296, Note_on_c, 0, 48, 67
2, 375360, Note_off_c, 0, 48, 67
2, 375424, Note_off_c, 0, 48, 67
2, 375424, Note_on_c, 0, 60, 67
2, 375488, Note_off_c, 0, 60, 67
2, 375552, Note_off_c, 0, 60, 67
2, 375552, Note_on_c, 0, 46, 67
2, 375616, Note_off_c, 0, 46, 67
2, 375680, Note_off_c, 0, 46, 67
2, 375680, Note_on_c, 0, 58, 67
2, 375744, Note_off_c, 0, 58, 67
2, 375808, Note_off_c, 0, 58, 67
2, 375808, Note_on_c, 0, 50, 67
2, 375872, Note_off_c, 0, 50, 67
2, 375936, Note_off_c, 0, 50, 67
2, 375936, Note_on_c, 0, 62, 67
2, 376000, Note_off_c, 0, 62, 67
2, 376064, Note_off_c, 0, 62, 67
2, 376064, Note_on_c, 0, 48, 67
2, 376128, Note_off_c, 0, 48, 67
2, 376192, Note_off_c, 0, 48, 67
2, 376192, Note_on_c, 0, 60, 67
2, 376256, Note_off_c, 0, 60, 67
2, 376320, Note_off_c, 0, 60, 67
2, 376320, Note_on_c, 0, 46, 67
2, 376384, Note_off_c, 0, 46, 67
2, 376448, Note_off_c, 0, 46, 67
2, 376448, Note_on_c, 0, 58, 67
2, 376512, Note_off_c, 0, 58, 67
2, 376576, Note_off_c, 0, 58, 67
2, 376576, Note_on_c, 0, 48, 67
2, 376640, Note_off_c, 0, 48, 67
2, 376704, Note_off_c, 0, 48, 67
2, 376704, Note_on_c, 0, 60, 67
2, 376768, Note_off_c, 0, 60, 67
2, 376832, Note_off_c, 0, 60, 67
2, 376832, Note_on_c, 0, 50, 67
2, 376896, Note_off_c, 0, 50, 67
2, 376960, Note_off_c, 0, 50, 67
2, 376960, Note_on_c, 0, 62, 67
2, 377024, Note_off_c, 0, 62, 67
2, 377088, Note_off_c, 0, 62, 67
2, 377088, Note_on_c, 0, 46, 67
2, 377152, Note_off_c, 0, 46, 67
2, 377216, Note_off_c, 0, 46, 67
2, 377216, Note_on_c, 0, 58, 67
2, 377280, Note_off_c, 0, 58, 67
2, 377344, Note_off_c, 0, 58, 67
2, 377344, Note_on_c, 0, 51, 67
2, 377408, Note_off_c, 0, 51, 67
2, 377472, Note_off_c, 0, 51, 67
2, 377472, Note_on_c, 0, 63, 67
2, 377536, Note_off_c, 0, 63, 67
2, 377600, Note_off_c, 0, 63, 67
2, 377600, Note_on_c, 0, 46, 67
2, 377664, Note_off_c, 0, 46, 67
2, 377728, Note_off_c, 0, 46, 67
2, 377728, Note_on_c, 0, 58, 67
2, 377792, Note_off_c, 0, 58, 67
2, 377856, Note_off_c, 0, 58, 67
2, 377856, Note_on_c, 0, 39, 67
2, 377920, Note_off_c, 0, 39, 67
2, 377920, Note_on_c, 0, 46, 67
2, 377984, Note_off_c, 0, 46, 67
2, 377984, Note_on_c, 0, 51, 67
2, 378048, Note_off_c, 0, 51, 67
2, 378048, Note_on_c, 0, 53, 67
2, 378112, Note_off_c, 0, 53, 67
2, 378112, Note_on_c, 0, 55, 67
2, 378176, Note_off_c, 0, 55, 67
2, 378176, Note_on_c, 0, 51, 67
2, 378240, Note_off_c, 0, 51, 67
2, 378240, Note_on_c, 0, 58, 67
2, 378304, Note_off_c, 0, 58, 67
2, 378304, Note_on_c, 0, 63, 67
2, 378352, Control_c, 0, 93, 0
2, 378368, Note_off_c, 0, 63, 67
2, 378368, Note_on_c, 0, 44, 67
2, 378432, Note_off_c, 0, 44, 67
2, 378432, Note_on_c, 0, 51, 67
2, 378496, Note_off_c, 0, 51, 67
2, 378496, Note_on_c, 0, 56, 67
2, 378560, Note_off_c, 0, 56, 67
2, 378560, Note_on_c, 0, 58, 67
2, 378624, Note_off_c, 0, 58, 67
2, 378624, Note_on_c, 0, 60, 67
2, 378688, Note_off_c, 0, 60, 67
2, 378688, Note_on_c, 0, 56, 67
2, 378752, Note_off_c, 0, 56, 67
2, 378752, Note_on_c, 0, 63, 67
2, 378816, Note_off_c, 0, 63, 67
2, 378816, Note_on_c, 0, 68, 67
2, 378864, Control_c, 0, 93, 0
2, 378880, Note_off_c, 0, 68, 67
2, 378880, Note_on_c, 0, 46, 67
2, 378944, Note_off_c, 0, 46, 67
2, 378944, Note_on_c, 0, 53, 67
2, 379008, Note_off_c, 0, 53, 67
2, 379008, Note_on_c, 0, 58, 67
2, 379072, Note_off_c, 0, 58, 67
2, 379072, Note_on_c, 0, 60, 67
2, 379136, Note_off_c, 0, 60, 67
2, 379136, Note_on_c, 0, 62, 67
2, 379200, Note_off_c, 0, 62, 67
2, 379200, Note_on_c, 0, 58, 67
2, 379264, Note_off_c, 0, 58, 67
2, 379264, Note_on_c, 0, 65, 67
2, 379328, Note_off_c, 0, 65, 67
2, 379328, Note_on_c, 0, 70, 67
2, 379376, Control_c, 0, 93, 0
2, 379392, Note_off_c, 0, 70, 67
2, 379392, Note_on_c, 0, 41, 67
2, 379456, Note_off_c, 0, 41, 67
2, 379456, Note_on_c, 0, 44, 67
2, 379520, Note_off_c, 0, 44, 67
2, 379520, Control_c, 0, 64, 64
2, 379520, Note_on_c, 0, 50, 67
2, 379541, Note_off_c, 0, 50, 67
2, 379541, Note_on_c, 0, 53, 67
2, 379562, Note_off_c, 0, 53, 67
2, 379562, Note_on_c, 0, 58, 67
2, 379583, Note_off_c, 0, 58, 67
2, 379584, Control_c, 0, 93, 0
2, 379584, Note_on_c, 0, 62, 67
2, 379605, Note_off_c, 0, 62, 67
2, 379605, Note_on_c, 0, 65, 67
2, 379626, Note_off_c, 0, 65, 67
2, 379626, Note_on_c, 0, 70, 67
2, 379648, Control_c, 0, 93, 0
2, 379648, Control_c, 0, 64, 0
2, 379776, Note_off_c, 0, 70, 67
2, 379776, Note_on_c, 0, 51, 67
2, 379840, Note_off_c, 0, 51, 67
2, 379840, Note_on_c, 0, 46, 67
2, 379904, Note_off_c, 0, 46, 67
2, 379904, Note_on_c, 0, 39, 67
2, 379968, Note_off_c, 0, 39, 67
2, 379968, Note_on_c, 0, 46, 67
2, 380032, Note_off_c, 0, 46, 67
2, 380032, Note_on_c, 0, 51, 67
2, 380096, Note_off_c, 0, 51, 67
2, 380096, Note_on_c, 0, 53, 67
2, 380160, Note_off_c, 0, 53, 67
2, 380160, Note_on_c, 0, 55, 67
2, 380224, Note_off_c, 0, 55, 67
2, 380224, Note_on_c, 0, 51, 67
2, 380288, Note_off_c, 0, 51, 67
2, 380288, Note_on_c, 0, 58, 67
2, 380352, Note_off_c, 0, 58, 67
2, 380352, Note_on_c, 0, 63, 67
2, 380400, Control_c, 0, 93, 0
2, 380416, Note_off_c, 0, 63, 67
2, 380416, Note_on_c, 0, 44, 67
2, 380480, Note_off_c, 0, 44, 67
2, 380480, Note_on_c, 0, 51, 67
2, 380544, Note_off_c, 0, 51, 67
2, 380544, Note_on_c, 0, 56, 67
2, 380608, Note_off_c, 0, 56, 67
2, 380608, Note_on_c, 0, 58, 67
2, 380672, Note_off_c, 0, 58, 67
2, 380672, Note_on_c, 0, 60, 67
2, 380736, Note_off_c, 0, 60, 67
2, 380736, Note_on_c, 0, 56, 67
2, 380800, Note_off_c, 0, 56, 67
2, 380800, Note_on_c, 0, 63, 67
2, 380864, Note_off_c, 0, 63, 67
2, 380864, Note_on_c, 0, 68, 67
2, 380912, Control_c, 0, 93, 0
2, 380928, Note_off_c, 0, 68, 67
2, 380928, Note_on_c, 0, 46, 67
2, 380992, Note_off_c, 0, 46, 67
2, 380992, Note_on_c, 0, 53, 67
2, 381056, Note_off_c, 0, 53, 67
2, 381056, Note_on_c, 0, 58, 67
2, 381120, Note_off_c, 0, 58, 67
2, 381120, Note_on_c, 0, 60, 67
2, 381184, Note_off_c, 0, 60, 67
2, 381184, Note_on_c, 0, 62, 67
2, 381248, Note_off_c, 0, 62, 67
2, 381248, Note_on_c, 0, 58, 67
2, 381312, Note_off_c, 0, 58, 67
2, 381312, Note_on_c, 0, 65, 67
2, 381376, Note_off_c, 0, 65, 67
2, 381376, Note_on_c, 0, 70, 67
2, 381424, Control_c, 0, 93, 0
2, 381440, Note_off_c, 0, 70, 67
2, 381440, Note_on_c, 0, 39, 67
2, 381504, Note_off_c, 0, 39, 67
2, 381504, Note_on_c, 0, 46, 67
2, 381568, Note_off_c, 0, 46, 67
2, 381568, Note_on_c, 0, 51, 67
2, 381632, Note_off_c, 0, 51, 67
2, 381632, Control_c, 0, 64, 64
2, 381632, Note_on_c, 0, 55, 67
2, 381642, Note_off_c, 0, 55, 67
2, 381642, Note_on_c, 0, 58, 67
2, 381653, Note_off_c, 0, 58, 67
2, 381653, Note_on_c, 0, 63, 67
2, 381663, Note_off_c, 0, 63, 67
2, 381664, Control_c, 0, 93, 0
2, 381664, Note_on_c, 0, 67, 67
2, 381674, Note_off_c, 0, 67, 67
2, 381674, Note_on_c, 0, 70, 67
2, 381685, Note_off_c, 0, 70, 67
2, 381685, Note_on_c, 0, 75, 67
2, 381695, Note_off_c, 0, 75, 67
2, 381696, Control_c, 0, 93, 0
2, 381824, Control_c, 0, 93, 0
2, 381888, Control_c, 0, 93, 0
2, 381888, Control_c, 0, 64, 0
2, 381952, Control_c, 0, 93, 0
2, 381952, Note_on_c, 0, 51, 67
2, 382016, Note_off_c, 0, 51, 67
2, 382080, Note_off_c, 0, 51, 67
2, 382080, Note_on_c, 0, 63, 67
2, 382144, Note_off_c, 0, 63, 67
2, 382208, Note_off_c, 0, 63, 67
2, 382208, Note_on_c, 0, 50, 67
2, 382272, Note_off_c, 0, 50, 67
2, 382336, Note_off_c, 0, 50, 67
2, 382336, Note_on_c, 0, 62, 67
2, 382400, Note_off_c, 0, 62, 67
2, 382464, Note_off_c, 0, 62, 67
2, 382464, Note_on_c, 0, 48, 67
2, 382528, Note_off_c, 0, 48, 67
2, 382592, Note_off_c, 0, 48, 67
2, 382592, Note_on_c, 0, 60, 67
2, 382656, Note_off_c, 0, 60, 67
2, 382720, Note_off_c, 0, 60, 67
2, 382720, Note_on_c, 0, 46, 67
2, 382784, Note_off_c, 0, 46, 67
2, 382848, Note_off_c, 0, 46, 67
2, 382848, Note_on_c, 0, 58, 67
2, 382912, Note_off_c, 0, 58, 67
2, 382976, Note_off_c, 0, 58, 67
2, 382976, Note_on_c, 0, 51, 67
2, 383040, Note_off_c, 0, 51, 67
2, 383104, Note_off_c, 0, 51, 67
2, 383104, Note_on_c, 0, 63, 67
2, 383168, Note_off_c, 0, 63, 67
2, 383232, Note_off_c, 0, 63, 67
2, 383232, Note_on_c, 0, 46, 67
2, 383296, Note_off_c, 0, 46, 67
2, 383360, Note_off_c, 0, 46, 67
2, 383360, Note_on_c, 0, 58, 67
2, 383424, Note_off_c, 0, 58, 67
2, 383488, Note_off_c, 0, 58, 67
2, 383488, Note_on_c, 0, 48, 67
2, 383552, Note_off_c, 0, 48, 67
2, 383616, Note_off_c, 0, 48, 67
2, 383616, Note_on_c, 0, 60, 67
2, 383680, Note_off_c, 0, 60, 67
2, 383744, Note_off_c, 0, 60, 67
2, 383744, Note_on_c, 0, 46, 67
2, 383808, Note_off_c, 0, 46, 67
2, 383872, Note_off_c, 0, 46, 67
2, 383872, Note_on_c, 0, 58, 67
2, 383936, Note_off_c, 0, 58, 67
2, 384000, Note_off_c, 0, 58, 67
2, 384000, Note_on_c, 0, 50, 67
2, 384064, Note_off_c, 0, 50, 67
2, 384128, Note_off_c, 0, 50, 67
2, 384128, Note_on_c, 0, 62, 67
2, 384192, Note_off_c, 0, 62, 67
2, 384256, Note_off_c, 0, 62, 67
2, 384256, Note_on_c, 0, 46, 67
2, 384320, Note_off_c, 0, 46, 67
2, 384384, Note_off_c, 0, 46, 67
2, 384384, Note_on_c, 0, 58, 67
2, 384448, Note_off_c, 0, 58, 67
2, 384512, Note_off_c, 0, 58, 67
2, 384512, Note_on_c, 0, 48, 67
2, 384576, Note_off_c, 0, 48, 67
2, 384640, Note_off_c, 0, 48, 67
2, 384640, Note_on_c, 0, 60, 67
2, 384704, Note_off_c, 0, 60, 67
2, 384768, Note_off_c, 0, 60, 67
2, 384768, Note_on_c, 0, 49, 67
2, 384832, Note_off_c, 0, 49, 67
2, 384896, Note_off_c, 0, 49, 67
2, 384896, Note_on_c, 0, 61, 67
2, 384960, Note_off_c, 0, 61, 67
2, 385024, Note_off_c, 0, 61, 67
2, 385024, Note_on_c, 0, 50, 67
2, 385088, Note_off_c, 0, 50, 67
2, 385152, Note_off_c, 0, 50, 67
2, 385152, Note_on_c, 0, 62, 67
2, 385216, Note_off_c, 0, 62, 67
2, 385280, Note_off_c, 0, 62, 67
2, 385280, Note_on_c, 0, 46, 67
2, 385344, Note_off_c, 0, 46, 67
2, 385408, Note_off_c, 0, 46, 67
2, 385408, Note_on_c, 0, 58, 67
2, 385472, Note_off_c, 0, 58, 67
2, 385536, Note_off_c, 0, 58, 67
2, 385536, Note_on_c, 0, 51, 67
2, 385600, Note_off_c, 0, 51, 67
2, 385664, Note_off_c, 0, 51, 67
2, 385664, Note_on_c, 0, 63, 67
2, 385728, Note_off_c, 0, 63, 67
2, 385792, Note_off_c, 0, 63, 67
2, 385792, Note_on_c, 0, 46, 67
2, 385856, Note_off_c, 0, 46, 67
2, 385920, Note_off_c, 0, 46, 67
2, 385920, Note_on_c, 0, 58, 67
2, 385984, Note_off_c, 0, 58, 67
2, 386048, Note_off_c, 0, 58, 67
2, 386048, Note_on_c, 0, 51, 67
2, 386112, Note_off_c, 0, 51, 67
2, 386176, Note_off_c, 0, 51, 67
2, 386176, Note_on_c, 0, 63, 67
2, 386240, Note_off_c, 0, 63, 67
2, 386304, Note_off_c, 0, 63, 67
2, 386304, Note_on_c, 0, 50, 67
2, 386368, Note_off_c, 0, 50, 67
2, 386432, Note_off_c, 0, 50, 67
2, 386432, Note_on_c, 0, 62, 67
2, 386496, Note_off_c, 0, 62, 67
2, 386560, Note_off_c, 0, 62, 67
2, 386560, Note_on_c, 0, 48, 67
2, 386624, Note_off_c, 0, 48, 67
2, 386688, Note_off_c, 0, 48, 67
2, 386688, Note_on_c, 0, 60, 67
2, 386752, Note_off_c, 0, 60, 67
2, 386816, Note_off_c, 0, 60, 67
2, 386816, Note_on_c, 0, 46, 67
2, 386880, Note_off_c, 0, 46, 67
2, 386944, Note_off_c, 0, 46, 67
2, 386944, Note_on_c, 0, 58, 67
2, 387008, Note_off_c, 0, 58, 67
2, 387072, Note_off_c, 0, 58, 67
2, 387072, Note_on_c, 0, 51, 67
2, 387136, Note_off_c, 0, 51, 67
2, 387200, Note_off_c, 0, 51, 67
2, 387200, Note_on_c, 0, 63, 67
2, 387264, Note_off_c, 0, 63, 67
2, 387328, Note_off_c, 0, 63, 67
2, 387328, Note_on_c, 0, 46, 67
2, 387392, Note_off_c, 0, 46, 67
2, 387456, Note_off_c, 0, 46, 67
2, 387456, Note_on_c, 0, 58, 67
2, 387520, Note_off_c, 0, 58, 67
2, 387584, Note_off_c, 0, 58, 67
2, 387584, Note_on_c, 0, 48, 67
2, 387648, Note_off_c, 0, 48, 67
2, 387712, Note_off_c, 0, 48, 67
2, 387712, Note_on_c, 0, 60, 67
2, 387776, Note_off_c, 0, 60, 67
2, 387840, Note_off_c, 0, 60, 67
2, 387840, Note_on_c, 0, 46, 67
2, 387904, Note_off_c, 0, 46, 67
2, 387968, Note_off_c, 0, 46, 67
2, 387968, Note_on_c, 0, 58, 67
2, 388032, Note_off_c, 0, 58, 67
2, 388096, Note_off_c, 0, 58, 67
2, 388096, Note_on_c, 0, 50, 67
2, 388160, Note_off_c, 0, 50, 67
2, 388224, Note_off_c, 0, 50, 67
2, 388224, Note_on_c, 0, 62, 67
2, 388288, Note_off_c, 0, 62, 67
2, 388352, Note_off_c, 0, 62, 67
2, 388352, Note_on_c, 0, 48, 67
2, 388416, Note_off_c, 0, 48, 67
2, 388480, Note_off_c, 0, 48, 67
2, 388480, Note_on_c, 0, 60, 67
2, 388544, Note_off_c, 0, 60, 67
2, 388608, Note_off_c, 0, 60, 67
2, 388608, Note_on_c, 0, 46, 67
2, 388672, Note_off_c, 0, 46, 67
2, 388736, Note_off_c, 0, 46, 67
2, 388736, Note_on_c, 0, 58, 67
2, 388800, Note_off_c, 0, 58, 67
2, 388864, Note_off_c, 0, 58, 67
2, 388864, Note_on_c, 0, 48, 67
2, 388928, Note_off_c, 0, 48, 67
2, 388992, Note_off_c, 0, 48, 67
2, 388992, Note_on_c, 0, 60, 67
2, 389056, Note_off_c, 0, 60, 67
2, 389120, Note_off_c, 0, 60, 67
2, 389120, Note_on_c, 0, 50, 67
2, 389184, Note_off_c, 0, 50, 67
2, 389248, Note_off_c, 0, 50, 67
2, 389248, Note_on_c, 0, 62, 67
2, 389312, Note_off_c, 0, 62, 67
2, 389376, Note_off_c, 0, 62, 67
2, 389376, Note_on_c, 0, 46, 67
2, 389440, Note_off_c, 0, 46, 67
2, 389504, Note_off_c, 0, 46, 67
2, 389504, Note_on_c, 0, 58, 67
2, 389568, Note_off_c, 0, 58, 67
2, 389632, Note_off_c, 0, 58, 67
2, 389632, Note_on_c, 0, 51, 67
2, 389696, Note_off_c, 0, 51, 67
2, 389760, Note_off_c, 0, 51, 67
2, 389760, Note_on_c, 0, 63, 67
2, 389824, Note_off_c, 0, 63, 67
2, 389888, Note_off_c, 0, 63, 67
2, 389888, Note_on_c, 0, 46, 67
2, 389952, Note_off_c, 0, 46, 67
2, 390016, Note_off_c, 0, 46, 67
2, 390016, Note_on_c, 0, 58, 67
2, 390080, Note_off_c, 0, 58, 67
2, 390144, Note_off_c, 0, 58, 67
2, 390144, Note_on_c, 0, 39, 67
2, 390208, Note_off_c, 0, 39, 67
2, 390208, Note_on_c, 0, 46, 67
2, 390272, Note_off_c, 0, 46, 67
2, 390272, Note_on_c, 0, 51, 67
2, 390336, Note_off_c, 0, 51, 67
2, 390336, Note_on_c, 0, 53, 67
2, 390400, Note_off_c, 0, 53, 67
2, 390400, Note_on_c, 0, 55, 67
2, 390464, Note_off_c, 0, 55, 67
2, 390464, Note_on_c, 0, 51, 67
2, 390528, Note_off_c, 0, 51, 67
2, 390528, Note_on_c, 0, 58, 67
2, 390592, Note_off_c, 0, 58, 67
2, 390592, Note_on_c, 0, 63, 67
2, 390640, Control_c, 0, 93, 0
2, 390656, Note_off_c, 0, 63, 67
2, 390656, Note_on_c, 0, 44, 67
2, 390720, Note_off_c, 0, 44, 67
2, 390720, Note_on_c, 0, 51, 67
2, 390784, Note_off_c, 0, 51, 67
2, 390784, Note_on_c, 0, 56, 67
2, 390848, Note_off_c, 0, 56, 67
2, 390848, Note_on_c, 0, 58, 67
2, 390912, Note_off_c, 0, 58, 67
2, 390912, Note_on_c, 0, 60, 67
2, 390976, Note_off_c, 0, 60, 67
2, 390976, Note_on_c, 0, 56, 67
2, 391040, Note_off_c, 0, 56, 67
2, 391040, Note_on_c, 0, 63, 67
2, 391104, Note_off_c, 0, 63, 67
2, 391104, Note_on_c, 0, 68, 67
2, 391152, Control_c, 0, 93, 0
2, 391168, Note_off_c, 0, 68, 67
2, 391168, Note_on_c, 0, 46, 67
2, 391232, Note_off_c, 0, 46, 67
2, 391232, Note_on_c, 0, 53, 67
2, 391296, Note_off_c, 0, 53, 67
2, 391296, Note_on_c, 0, 58, 67
2, 391360, Note_off_c, 0, 58, 67
2, 391360, Note_on_c, 0, 60, 67
2, 391424, Note_off_c, 0, 60, 67
2, 391424, Note_on_c, 0, 62, 67
2, 391488, Note_off_c, 0, 62, 67
2, 391488, Note_on_c, 0, 58, 67
2, 391552, Note_off_c, 0, 58, 67
2, 391552, Note_on_c, 0, 65, 67
2, 391616, Note_off_c, 0, 65, 67
2, 391616, Note_on_c, 0, 70, 67
2, 391664, Control_c, 0, 93, 0
2, 391680, Note_off_c, 0, 70, 67
2, 391680, Note_on_c, 0, 41, 67
2, 391744, Note_off_c, 0, 41, 67
2, 391744, Note_on_c, 0, 44, 67
2, 391808, Note_off_c, 0, 44, 67
2, 391808, Control_c, 0, 64, 64
2, 391808, Note_on_c, 0, 50, 67
2, 391829, Note_off_c, 0, 50, 67
2, 391829, Note_on_c, 0, 53, 67
2, 391850, Note_off_c, 0, 53, 67
2, 391850, Note_on_c, 0, 58, 67
2, 391871, Note_off_c, 0, 58, 67
2, 391872, Control_c, 0, 93, 0
2, 391872, Note_on_c, 0, 62, 67
2, 391893, Note_off_c, 0, 62, 67
2, 391893, Note_on_c, 0, 65, 67
2, 391914, Note_off_c, 0, 65, 67
2, 391914, Note_on_c, 0, 70, 67
2, 391936, Control_c, 0, 93, 0
2, 391936, Control_c, 0, 64, 0
2, 392064, Note_off_c, 0, 70, 67
2, 392064, Note_on_c, 0, 51, 67
2, 392128, Note_off_c, 0, 51, 67
2, 392128, Note_on_c, 0, 46, 67
2, 392192, Note_off_c, 0, 46, 67
2, 392192, Note_on_c, 0, 39, 67
2, 392256, Note_off_c, 0, 39, 67
2, 392256, Note_on_c, 0, 46, 67
2, 392320, Note_off_c, 0, 46, 67
2, 392320, Note_on_c, 0, 51, 67
2, 392384, Note_off_c, 0, 51, 67
2, 392384, Note_on_c, 0, 53, 67
2, 392448, Note_off_c, 0, 53, 67
2, 392448, Note_on_c, 0, 55, 67
2, 392512, Note_off_c, 0, 55, 67
2, 392512, Note_on_c, 0, 51, 67
2, 392576, Note_off_c, 0, 51, 67
2, 392576, Note_on_c, 0, 58, 67
2, 392640, Note_off_c, 0, 58, 67
2, 392640, Note_on_c, 0, 63, 67
2, 392688, Control_c, 0, 93, 0
2, 392704, Note_off_c, 0, 63, 67
2, 392704, Note_on_c, 0, 44, 67
2, 392768, Note_off_c, 0, 44, 67
2, 392768, Note_on_c, 0, 51, 67
2, 392832, Note_off_c, 0, 51, 67
2, 392832, Note_on_c, 0, 56, 67
2, 392896, Note_off_c, 0, 56, 67
2, 392896, Note_on_c, 0, 58, 67
2, 392960, Note_off_c, 0, 58, 67
2, 392960, Note_on_c, 0, 60, 67
2, 393024, Note_off_c, 0, 60, 67
2, 393024, Note_on_c, 0, 56, 67
2, 393088, Note_off_c, 0, 56, 67
2, 393088, Note_on_c, 0, 63, 67
2, 393152, Note_off_c, 0, 63, 67
2, 393152, Note_on_c, 0, 68, 67
2, 393200, Control_c, 0, 93, 0
2, 393216, Note_off_c, 0, 68, 67
2, 393216, Note_on_c, 0, 46, 67
2, 393280, Note_off_c, 0, 46, 67
2, 393280, Note_on_c, 0, 53, 67
2, 393344, Note_off_c, 0, 53, 67
2, 393344, Note_on_c, 0, 58, 67
2, 393408, Note_off_c, 0, 58, 67
2, 393408, Note_on_c, 0, 60, 67
2, 393472, Note_off_c, 0, 60, 67
2, 393472, Note_on_c, 0, 62, 67
2, 393536, Note_off_c, 0, 62, 67
2, 393536, Note_on_c, 0, 58, 67
2, 393600, Note_off_c, 0, 58, 67
2, 393600, Note_on_c, 0, 65, 67
2, 393664, Note_off_c, 0, 65, 67
2, 393664, Note_on_c, 0, 70, 67
2, 393712, Control_c, 0, 93, 0
2, 393728, Note_off_c, 0, 70, 67
2, 393728, Note_on_c, 0, 39, 67
2, 393792, Note_off_c, 0, 39, 67
2, 393792, Note_on_c, 0, 46, 67
2, 393856, Note_off_c, 0, 46, 67
2, 393856, Note_on_c, 0, 51, 67
2, 393920, Note_off_c, 0, 51, 67
2, 393920, Control_c, 0, 64, 64
2, 393920, Note_on_c, 0, 55, 67
2, 393930, Note_off_c, 0, 55, 67
2, 393930, Note_on_c, 0, 58, 67
2, 393941, Note_off_c, 0, 58, 67
2, 393941, Note_on_c, 0, 63, 67
2, 393951, Note_off_c, 0, 63, 67
2, 393952, Control_c, 0, 93, 0
2, 393952, Note_on_c, 0, 67, 67
2, 393962, Note_off_c, 0, 67, 67
2, 393962, Note_on_c, 0, 70, 67
2, 393973, Note_off_c, 0, 70, 67
2, 393973, Note_on_c, 0, 75, 67
2, 393983, Note_off_c, 0, 75, 67
2, 393984, Control_c, 0, 93, 0
2, 394112, Control_c, 0, 93, 0
2, 394176, Control_c, 0, 93, 0
2, 394176, Control_c, 0, 64, 0
2, 394240, Control_c, 0, 93, 0
2, 394240, Note_on_c, 0, 51, 67
2, 394304, Note_off_c, 0, 51, 67
2, 394368, Note_off_c, 0, 51, 67
2, 394368, Note_on_c, 0, 63, 67
2, 394432, Note_off_c, 0, 63, 67
2, 394496, Note_off_c, 0, 63, 67
2, 394496, Note_on_c, 0, 50, 67
2, 394560, Note_off_c, 0, 50, 67
2, 394624, Note_off_c, 0, 50, 67
2, 394624, Note_on_c, 0, 62, 67
2, 394688, Note_off_c, 0, 62, 67
2, 394752, Note_off_c, 0, 62, 67
2, 394752, Note_on_c, 0, 48, 67
2, 394816, Note_off_c, 0, 48, 67
2, 394880, Note_off_c, 0, 48, 67
2, 394880, Note_on_c, 0, 60, 67
2, 394944, Note_off_c, 0, 60, 67
2, 395008, Note_off_c, 0, 60, 67
2, 395008, Note_on_c, 0, 46, 67
2, 395072, Note_off_c, 0, 46, 67
2, 395136, Note_off_c, 0, 46, 67
2, 395136, Note_on_c, 0, 58, 67
2, 395200, Note_off_c, 0, 58, 67
2, 395264, Note_off_c, 0, 58, 67
2, 395264, Note_on_c, 0, 51, 67
2, 395328, Note_off_c, 0, 51, 67
2, 395392, Note_off_c, 0, 51, 67
2, 395392, Note_on_c, 0, 63, 67
2, 395456, Note_off_c, 0, 63, 67
2, 395520, Note_off_c, 0, 63, 67
2, 395520, Note_on_c, 0, 46, 67
2, 395584, Note_off_c, 0, 46, 67
2, 395648, Note_off_c, 0, 46, 67
2, 395648, Note_on_c, 0, 58, 67
2, 395712, Note_off_c, 0, 58, 67
2, 395776, Note_off_c, 0, 58, 67
2, 395776, Note_on_c, 0, 48, 67
2, 395840, Note_off_c, 0, 48, 67
2, 395904, Note_off_c, 0, 48, 67
2, 395904, Note_on_c, 0, 60, 67
2, 395968, Note_off_c, 0, 60, 67
2, 396032, Note_off_c, 0, 60, 67
2, 396032, Note_on_c, 0, 46, 67
2, 396096, Note_off_c, 0, 46, 67
2, 396160, Note_off_c, 0, 46, 67
2, 396160, Note_on_c, 0, 58, 67
2, 396224, Note_off_c, 0, 58, 67
2, 396288, Note_off_c, 0, 58, 67
2, 396288, Note_on_c, 0, 50, 67
2, 396352, Note_off_c, 0, 50, 67
2, 396416, Note_off_c, 0, 50, 67
2, 396416, Note_on_c, 0, 62, 67
2, 396480, Note_off_c, 0, 62, 67
2, 396544, Note_off_c, 0, 62, 67
2, 396544, Note_on_c, 0, 46, 67
2, 396608, Note_off_c, 0, 46, 67
2, 396672, Note_off_c, 0, 46, 67
2, 396672, Note_on_c, 0, 58, 67
2, 396736, Note_off_c, 0, 58, 67
2, 396800, Note_off_c, 0, 58, 67
2, 396800, Note_on_c, 0, 48, 67
2, 396864, Note_off_c, 0, 48, 67
2, 396928, Note_off_c, 0, 48, 67
2, 396928, Note_on_c, 0, 60, 67
2, 396992, Note_off_c, 0, 60, 67
2, 397056, Note_off_c, 0, 60, 67
2, 397056, Note_on_c, 0, 49, 67
2, 397120, Note_off_c, 0, 49, 67
2, 397184, Note_off_c, 0, 49, 67
2, 397184, Note_on_c, 0, 61, 67
2, 397248, Note_off_c, 0, 61, 67
2, 397312, Note_off_c, 0, 61, 67
2, 397312, Note_on_c, 0, 50, 67
2, 397376, Note_off_c, 0, 50, 67
2, 397440, Note_off_c, 0, 50, 67
2, 397440, Note_on_c, 0, 62, 67
2, 397504, Note_off_c, 0, 62, 67
2, 397568, Note_off_c, 0, 62, 67
2, 397568, Note_on_c, 0, 46, 67
2, 397632, Note_off_c, 0, 46, 67
2, 397696, Note_off_c, 0, 46, 67
2, 397696, Note_on_c, 0, 58, 67
2, 397760, Note_off_c, 0, 58, 67
2, 397824, Note_off_c, 0, 58, 67
2, 397824, Note_on_c, 0, 51, 67
2, 397888, Note_off_c, 0, 51, 67
2, 397952, Note_off_c, 0, 51, 67
2, 397952, Note_on_c, 0, 63, 67
2, 398016, Note_off_c, 0, 63, 67
2, 398080, Note_off_c, 0, 63, 67
2, 398080, Note_on_c, 0, 46, 67
2, 398144, Note_off_c, 0, 46, 67
2, 398208, Note_off_c, 0, 46, 67
2, 398208, Note_on_c, 0, 58, 67
2, 398272, Note_off_c, 0, 58, 67
2, 398336, Note_off_c, 0, 58, 67
2, 398336, Note_on_c, 0, 51, 67
2, 398400, Note_off_c, 0, 51, 67
2, 398464, Note_off_c, 0, 51, 67
2, 398464, Note_on_c, 0, 63, 67
2, 398528, Note_off_c, 0, 63, 67
2, 398592, Note_off_c, 0, 63, 67
2, 398592, Note_on_c, 0, 50, 67
2, 398656, Note_off_c, 0, 50, 67
2, 398720, Note_off_c, 0, 50, 67
2, 398720, Note_on_c, 0, 62, 67
2, 398784, Note_off_c, 0, 62, 67
2, 398848, Note_off_c, 0, 62, 67
2, 398848, Note_on_c, 0, 48, 67
2, 398912, Note_off_c, 0, 48, 67
2, 398976, Note_off_c, 0, 48, 67
2, 398976, Note_on_c, 0, 60, 67
2, 399040, Note_off_c, 0, 60, 67
2, 399104, Note_off_c, 0, 60, 67
2, 399104, Note_on_c, 0, 46, 67
2, 399168, Note_off_c, 0, 46, 67
2, 399232, Note_off_c, 0, 46, 67
2, 399232, Note_on_c, 0, 58, 67
2, 399296, Note_off_c, 0, 58, 67
2, 399360, Note_off_c, 0, 58, 67
2, 399360, Note_on_c, 0, 51, 67
2, 399424, Note_off_c, 0, 51, 67
2, 399488, Note_off_c, 0, 51, 67
2, 399488, Note_on_c, 0, 63, 67
2, 399552, Note_off_c, 0, 63, 67
2, 399616, Note_off_c, 0, 63, 67
2, 399616, Note_on_c, 0, 46, 67
2, 399680, Note_off_c, 0, 46, 67
2, 399744, Note_off_c, 0, 46, 67
2, 399744, Note_on_c, 0, 58, 67
2, 399808, Note_off_c, 0, 58, 67
2, 399872, Note_off_c, 0, 58, 67
2, 399872, Note_on_c, 0, 48, 67
2, 399936, Note_off_c, 0, 48, 67
2, 400000, Note_off_c, 0, 48, 67
2, 400000, Note_on_c, 0, 60, 67
2, 400064, Note_off_c, 0, 60, 67
2, 400128, Note_off_c, 0, 60, 67
2, 400128, Note_on_c, 0, 46, 67
2, 400192, Note_off_c, 0, 46, 67
2, 400256, Note_off_c, 0, 46, 67
2, 400256, Note_on_c, 0, 58, 67
2, 400320, Note_off_c, 0, 58, 67
2, 400384, Note_off_c, 0, 58, 67
2, 400384, Note_on_c, 0, 50, 67
2, 400448, Note_off_c, 0, 50, 67
2, 400512, Note_off_c, 0, 50, 67
2, 400512, Note_on_c, 0, 62, 67
2, 400576, Note_off_c, 0, 62, 67
2, 400640, Note_off_c, 0, 62, 67
2, 400640, Note_on_c, 0, 48, 67
2, 400704, Note_off_c, 0, 48, 67
2, 400768, Note_off_c, 0, 48, 67
2, 400768, Note_on_c, 0, 60, 67
2, 400832, Note_off_c, 0, 60, 67
2, 400896, Note_off_c, 0, 60, 67
2, 400896, Note_on_c, 0, 46, 67
2, 400960, Note_off_c, 0, 46, 67
2, 401024, Note_off_c, 0, 46, 67
2, 401024, Note_on_c, 0, 58, 67
2, 401088, Note_off_c, 0, 58, 67
2, 401152, Note_off_c, 0, 58, 67
2, 401152, Note_on_c, 0, 48, 67
2, 401216, Note_off_c, 0, 48, 67
2, 401280, Note_off_c, 0, 48, 67
2, 401280, Note_on_c, 0, 60, 67
2, 401344, Note_off_c, 0, 60, 67
2, 401408, Note_off_c, 0, 60, 67
2, 401408, Note_on_c, 0, 50, 67
2, 401472, Note_off_c, 0, 50, 67
2, 401536, Note_off_c, 0, 50, 67
2, 401536, Note_on_c, 0, 62, 67
2, 401600, Note_off_c, 0, 62, 67
2, 401664, Note_off_c, 0, 62, 67
2, 401664, Note_on_c, 0, 46, 67
2, 401728, Note_off_c, 0, 46, 67
2, 401792, Note_off_c, 0, 46, 67
2, 401792, Note_on_c, 0, 58, 67
2, 401856, Note_off_c, 0, 58, 67
2, 401920, Note_off_c, 0, 58, 67
2, 401920, Note_on_c, 0, 51, 67
2, 401984, Note_off_c, 0, 51, 67
2, 402048, Note_off_c, 0, 51, 67
2, 402048, Note_on_c, 0, 63, 67
2, 402112, Note_off_c, 0, 63, 67
2, 402176, Note_off_c, 0, 63, 67
2, 402176, Note_on_c, 0, 46, 67
2, 402240, Note_off_c, 0, 46, 67
2, 402304, Note_off_c, 0, 46, 67
2, 402304, Note_on_c, 0, 58, 67
2, 402368, Note_off_c, 0, 58, 67
2, 402432, Note_off_c, 0, 58, 67
2, 402432, Note_on_c, 0, 39, 67
2, 402496, Note_off_c, 0, 39, 67
2, 402496, Note_on_c, 0, 46, 67
2, 402560, Note_off_c, 0, 46, 67
2, 402560, Note_on_c, 0, 51, 67
2, 402624, Note_off_c, 0, 51, 67
2, 402624, Note_on_c, 0, 53, 67
2, 402688, Note_off_c, 0, 53, 67
2, 402688, Note_on_c, 0, 55, 67
2, 402752, Note_off_c, 0, 55, 67
2, 402752, Note_on_c, 0, 51, 67
2, 402816, Note_off_c, 0, 51, 67
2, 402816, Note_on_c, 0, 58, 67
2, 402880, Note_off_c, 0, 58, 67
2, 402880, Note_on_c, 0, 63, 67
2, 402928, Control_c, 0, 93, 0
2, 402944, Note_off_c, 0, 63, 67
2, 402944, Note_on_c, 0, 44, 67
2, 403008, Note_off_c, 0, 44, 67
2, 403008, Note_on_c, 0, 51, 67
2, 403072, Note_off_c, 0, 51, 67
2, 403072, Note_on_c, 0, 56, 67
2, 403136, Note_off_c, 0, 56, 67
2, 403136, Note_on_c, 0, 58, 67
2, 403200, Note_off_c, 0, 58, 67
2, 403200, Note_on_c, 0, 60, 67
2, 403264, Note_off_c, 0, 60, 67
2, 403264, Note_on_c, 0, 56, 67
2, 403328, Note_off_c, 0, 56, 67
2, 403328, Note_on_c, 0, 63, 67
2, 403392, Note_off_c, 0, 63, 67
2, 403392, Note_on_c, 0, 68, 67
2, 403440, Control_c, 0, 93, 0
2, 403456, Note_off_c, 0, 68, 67
2, 403456, Note_on_c, 0, 46, 67
2, 403520, Note_off_c, 0, 46, 67
2, 403520, Note_on_c, 0, 53, 67
2, 403584, Note_off_c, 0, 53, 67
2, 403584, Note_on_c, 0, 58, 67
2, 403648, Note_off_c, 0, 58, 67
2, 403648, Note_on_c, 0, 60, 67
2, 403712, Note_off_c, 0, 60, 67
2, 403712, Note_on_c, 0, 62, 67
2, 403776, Note_off_c, 0, 62, 67
2, 403776, Note_on_c, 0, 58, 67
2, 403840, Note_off_c, 0, 58, 67
2, 403840, Note_on_c, 0, 65, 67
2, 403904, Note_off_c, 0, 65, 67
2, 403904, Note_on_c, 0, 70, 67
2, 403952, Control_c, 0, 93, 0
2, 403968, Note_off_c, 0, 70, 67
2, 403968, Note_on_c, 0, 41, 67
2, 404032, Note_off_c, 0, 41, 67
2, 404032, Note_on_c, 0, 44, 67
2, 404096, Note_off_c, 0, 44, 67
2, 404096, Control_c, 0, 64, 64
2, 404096, Note_on_c, 0, 50, 67
2, 404117, Note_off_c, 0, 50, 67
2, 404117, Note_on_c, 0, 53, 67
2, 404138, Note_off_c, 0, 53, 67
2, 404138, Note_on_c, 0, 58, 67
2, 404159, Note_off_c, 0, 58, 67
2, 404160, Control_c, 0, 93, 0
2, 404160, Note_on_c, 0, 62, 67
2, 404181, Note_off_c, 0, 62, 67
2, 404181, Note_on_c, 0, 65, 67
2, 404202, Note_off_c, 0, 65, 67
2, 404202, Note_on_c, 0, 70, 67
2, 404224, Control_c, 0, 93, 0
2, 404224, Control_c, 0, 64, 0
2, 404352, Note_off_c, 0, 70, 67
2, 404352, Note_on_c, 0, 51, 67
2, 404416, Note_off_c, 0, 51, 67
2, 404416, Note_on_c, 0, 46, 67
2, 404480, Note_off_c, 0, 46, 67
2, 404480, Note_on_c, 0, 39, 67
2, 404544, Note_off_c, 0, 39, 67
2, 404544, Note_on_c, 0, 46, 67
2, 404608, Note_off_c, 0, 46, 67
2, 404608, Note_on_c, 0, 51, 67
2, 404672, Note_off_c, 0, 51, 67
2, 404672, Note_on_c, 0, 53, 67
2, 404736, Note_off_c, 0, 53, 67
2, 404736, Note_on_c, 0, 55, 67
2, 404800, Note_off_c, 0, 55, 67
2, 404800, Note_on_c, 0, 51, 67
2, 404864, Note_off_c, 0, 51, 67
2, 404864, Note_on_c, 0, 58, 67
2, 404928, Note_off_c, 0, 58, 67
2, 404928, Note_on_c, 0, 63, 67
2, 404976, Control_c, 0, 93, 0
2, 404992, Note_off_c, 0, 63, 67
2, 404992, Note_on_c, 0, 44, 67
2, 405056, Note_off_c, 0, 44, 67
2, 405056, Note_on_c, 0, 51, 67
2, 405120, Note_off_c, 0, 51, 67
2, 405120, Note_on_c, 0, 56, 67
2, 405184, Note_off_c, 0, 56, 67
2, 405184, Note_on_c, 0, 58, 67
2, 405248, Note_off_c, 0, 58, 67
2, 405248, Note_on_c, 0, 60, 67
2, 405312, Note_off_c, 0, 60, 67
2, 405312, Note_on_c, 0, 56, 67
2, 405376, Note_off_c, 0, 56, 67
2, 405376, Note_on_c, 0, 63, 67
2, 405440, Note_off_c, 0, 63, 67
2, 405440, Note_on_c, 0, 68, 67
2, 405488, Control_c, 0, 93, 0
2, 405504, Note_off_c, 0, 68, 67
2, 405504, Note_on_c, 0, 46, 67
2, 405568, Note_off_c, 0, 46, 67
2, 405568, Note_on_c, 0, 53, 67
2, 405632, Note_off_c, 0, 53, 67
2, 405632, Note_on_c, 0, 58, 67
2, 405696, Note_off_c, 0, 58, 67
2, 405696, Note_on_c, 0, 60, 67
2, 405760, Note_off_c, 0, 60, 67
2, 405760, Note_on_c, 0, 62, 67
2, 405824, Note_off_c, 0, 62, 67
2, 405824, Note_on_c, 0, 58, 67
2, 405888, Note_off_c, 0, 58, 67
2, 405888, Note_on_c, 0, 65, 67
2, 405952, Note_off_c, 0, 65, 67
2, 405952, Note_on_c, 0, 70, 67
2, 406000, Control_c, 0, 93, 0
2, 406016, Note_off_c, 0, 70, 67
2, 406016, Note_on_c, 0, 39, 67
2, 406080, Note_off_c, 0, 39, 67
2, 406080, Note_on_c, 0, 46, 67
2, 406144, Note_off_c, 0, 46, 67
2, 406144, Note_on_c, 0, 51, 67
2, 406208, Note_off_c, 0, 51, 67
2, 406208, Control_c, 0, 64, 64
2, 406208, Note_on_c, 0, 55, 67
2, 406218, Note_off_c, 0, 55, 67
2, 406218, Note_on_c, 0, 58, 67
2, 406229, Note_off_c, 0, 58, 67
2, 406229, Note_on_c, 0, 63, 67
2, 406239, Note_off_c, 0, 63, 67
2, 406240, Control_c, 0, 93, 0
2, 406240, Note_on_c, 0, 67, 67
2, 406250, Note_off_c, 0, 67, 67
2, 406250, Note_on_c, 0, 70, 67
2, 406261, Note_off_c, 0, 70, 67
2, 406261, Note_on_c, 0, 75, 67
2, 406271, Note_off_c, 0, 75, 67
2, 406272, Control_c, 0, 93, 0
2, 406400, Control_c, 0, 93, 0
2, 406464, Control_c, 0, 93, 0
2, 406464, Control_c, 0, 64, 0
2, 406528, Control_c, 0, 93, 0
2, 406528, Note_on_c, 0, 51, 67
2, 406592, Note_off_c, 0, 51, 67
2, 406656, Note_off_c, 0, 51, 67
2, 406656, Note_on_c, 0, 63, 67
2, 406720, Note_off_c, 0, 63, 67
2, 406784, Note_off_c, 0, 63, 67
2, 406784, Note_on_c, 0, 50, 67
2, 406848, Note_off_c, 0, 50, 67
2, 406912, Note_off_c, 0, 50, 67
2, 406912, Note_on_c, 0, 62, 67
2, 406976, Note_off_c, 0, 62, 67
2, 407040, Note_off_c, 0, 62, 67
2, 407040, Note_on_c, 0, 48, 67
2, 407104, Note_off_c, 0, 48, 67
2, 407168, Note_off_c, 0, 48, 67
2, 407168, Note_on_c, 0, 60, 67
2, 407232, Note_off_c, 0, 60, 67
2, 407296, Note_off_c, 0, 60, 67
2, 407296, Note_on_c, 0, 46, 67
2, 407360, Note_off_c, 0, 46, 67
2, 407424, Note_off_c, 0, 46, 67
2, 407424, Note_on_c, 0, 58, 67
2, 407488, Note_off_c, 0, 58, 67
2, 407552, Note_off_c, 0, 58, 67
2, 407552, Note_on_c, 0, 51, 67
2, 407616, Note_off_c, 0, 51, 67
2, 407680, Note_off_c, 0, 51, 67
2, 407680, Note_on_c, 0, 63, 67
2, 407744, Note_off_c, 0, 63, 67
2, 407808, Note_off_c, 0, 63, 67
2, 407808, Note_on_c, 0, 46, 67
2, 407872, Note_off_c, 0, 46, 67
2, 407936, Note_off_c, 0, 46, 67
2, 407936, Note_on_c, 0, 58, 67
2, 408000, Note_off_c, 0, 58, 67
2, 408064, Note_off_c, 0, 58, 67
2, 408064, Note_on_c, 0, 48, 67
2, 408128, Note_off_c, 0, 48, 67
2, 408192, Note_off_c, 0, 48, 67
2, 408192, Note_on_c, 0, 60, 67
2, 408256, Note_off_c, 0, 60, 67
2, 408320, Note_off_c, 0, 60, 67
2, 408320, Note_on_c, 0, 46, 67
2, 408384, Note_off_c, 0, 46, 67
2, 408448, Note_off_c, 0, 46, 67
2, 408448, Note_on_c, 0, 58, 67
2, 408512, Note_off_c, 0, 58, 67
2, 408576, Note_off_c, 0, 58, 67
2, 408576, Note_on_c, 0, 50, 67
2, 408640, Note_off_c, 0, 50, 67
2, 408704, Note_off_c, 0, 50, 67
2, 408704, Note_on_c, 0, 62, 67
2, 408768, Note_off_c, 0, 62, 67
2, 408832, Note_off_c, 0, 62, 67
2, 408832, Note_on_c, 0, 46, 67
2, 408896, Note_off_c, 0, 46, 67
2, 408960, Note_off_c, 0, 46, 67
2, 408960, Note_on_c, 0, 58, 67
2, 409024, Note_off_c, 0, 58, 67
2, 409088, Note_off_c, 0, 58, 67
2, 409088, Note_on_c, 0, 48, 67
2, 409152, Note_off_c, 0, 48, 67
2, 409216, Note_off_c, 0, 48, 67
2, 409216, Note_on_c, 0, 60, 67
2, 409280, Note_off_c, 0, 60, 67
2, 409344, Note_off_c, 0, 60, 67
2, 409344, Note_on_c, 0, 49, 67
2, 409408, Note_off_c, 0, 49, 67
2, 409472, Note_off_c, 0, 49, 67
2, 409472, Note_on_c, 0, 61, 67
2, 409536, Note_off_c, 0, 61, 67
2, 409600, Note_off_c, 0, 61, 67
2, 409600, Note_on_c, 0, 50, 67
2, 409664, Note_off_c, 0, 50, 67
2, 409728, Note_off_c, 0, 50, 67
2, 409728, Note_on_c, 0, 62, 67
2, 409792, Note_off_c, 0, 62, 67
2, 409856, Note_off_c, 0, 62, 67
2, 409856, Note_on_c, 0, 46, 67
2, 409920, Note_off_c, 0, 46, 67
2, 409984, Note_off_c, 0, 46, 67
2, 409984, Note_on_c, 0, 58, 67
2, 410048, Note_off_c, 0, 58, 67
2, 410112, Note_off_c, 0, 58, 67
2, 410112, Note_on_c, 0, 51, 67
2, 410176, Note_off_c, 0, 51, 67
2, 410240, Note_off_c, 0, 51, 67
2, 410240, Note_on_c, 0, 63, 67
2, 410304, Note_off_c, 0, 63, 67
2, 410368, Note_off_c, 0, 63, 67
2, 410368, Note_on_c, 0, 46, 67
2, 410432, Note_off_c, 0, 46, 67
2, 410496, Note_off_c, 0, 46, 67
2, 410496, Note_on_c, 0, 58, 67
2, 410560, Note_off_c, 0, 58, 67
2, 410624, Note_off_c, 0, 58, 67
2, 410624, Note_on_c, 0, 51, 67
2, 410688, Note_off_c, 0, 51, 67
2, 410752, Note_off_c, 0, 51, 67
2, 410752, Note_on_c, 0, 63, 67
2, 410816, Note_off_c, 0, 63, 67
2, 410880, Note_off_c, 0, 63, 67
2, 410880, Note_on_c, 0, 50, 67
2, 410944, Note_off_c, 0, 50, 67
2, 411008, Note_off_c, 0, 50, 67
2, 411008, Note_on_c, 0, 62, 67
2, 411072, Note_off_c, 0, 62, 67
2, 411136, Note_off_c, 0, 62, 67
2, 411136, Note_on_c, 0, 48, 67
2, 411200, Note_off_c, 0, 48, 67
2, 411264, Note_off_c, 0, 48, 67
2, 411264, Note_on_c, 0, 60, 67
2, 411328, Note_off_c, 0, 60, 67
2, 411392, Note_off_c, 0, 60, 67
2, 411392, Note_on_c, 0, 46, 67
2, 411456, Note_off_c, 0, 46, 67
2, 411520, Note_off_c, 0, 46, 67
2, 411520, Note_on_c, 0, 58, 67
2, 411584, Note_off_c, 0, 58, 67
2, 411648, Note_off_c, 0, 58, 67
2, 411648, Note_on_c, 0, 51, 67
2, 411712, Note_off_c, 0, 51, 67
2, 411776, Note_off_c, 0, 51, 67
2, 411776, Note_on_c, 0, 63, 67
2, 411840, Note_off_c, 0, 63, 67
2, 411904, Note_off_c, 0, 63, 67
2, 411904, Note_on_c, 0, 46, 67
2, 411968, Note_off_c, 0, 46, 67
2, 412032, Note_off_c, 0, 46, 67
2, 412032, Note_on_c, 0, 58, 67
2, 412096, Note_off_c, 0, 58, 67
2, 412160, Note_off_c, 0, 58, 67
2, 412160, Note_on_c, 0, 48, 67
2, 412224, Note_off_c, 0, 48, 67
2, 412288, Note_off_c, 0, 48, 67
2, 412288, Note_on_c, 0, 60, 67
2, 412352, Note_off_c, 0, 60, 67
2, 412416, Note_off_c, 0, 60, 67
2, 412416, Note_on_c, 0, 46, 67
2, 412480, Note_off_c, 0, 46, 67
2, 412544, Note_off_c, 0, 46, 67
2, 412544, Note_on_c, 0, 58, 67
2, 412608, Note_off_c, 0, 58, 67
2, 412672, Note_off_c, 0, 58, 67
2, 412672, Note_on_c, 0, 50, 67
2, 412736, Note_off_c, 0, 50, 67
2, 412800, Note_off_c, 0, 50, 67
2, 412800, Note_on_c, 0, 62, 67
2, 412864, Note_off_c, 0, 62, 67
2, 412928, Note_off_c, 0, 62, 67
2, 412928, Note_on_c, 0, 48, 67
2, 412992, Note_off_c, 0, 48, 67
2, 413056, Note_off_c, 0, 48, 67
2, 413056, Note_on_c, 0, 60, 67
2, 413120, Note_off_c, 0, 60, 67
2, 413184, Note_off_c, 0, 60, 67
2, 413184, Note_on_c, 0, 46, 67
2, 413248, Note_off_c, 0, 46, 67
2, 413312, Note_off_c, 0, 46, 67
2, 413312, Note_on_c, 0, 58, 67
2, 413376, Note_off_c, 0, 58, 67
2, 413440, Note_off_c, 0, 58, 67
2, 413440, Note_on_c, 0, 48, 67
2, 413504, Note_off_c, 0, 48, 67
2, 413568, Note_off_c, 0, 48, 67
2, 413568, Note_on_c, 0, 60, 67
2, 413632, Note_off_c, 0, 60, 67
2, 413696, Note_off_c, 0, 60, 67
2, 413696, Note_on_c, 0, 50, 67
2, 413760, Note_off_c, 0, 50, 67
2, 413824, Note_off_c, 0, 50, 67
2, 413824, Note_on_c, 0, 62, 67
2, 413888, Note_off_c, 0, 62, 67
2, 413952, Note_off_c, 0, 62, 67
2, 413952, Note_on_c, 0, 46, 67
2, 414016, Note_off_c, 0, 46, 67
2, 414080, Note_off_c, 0, 46, 67
2, 414080, Note_on_c, 0, 58, 67
2, 414144, Note_off_c, 0, 58, 67
2, 414208, Note_off_c, 0, 58, 67
2, 414208, Note_on_c, 0, 51, 67
2, 414272, Note_off_c, 0, 51, 67
2, 414336, Note_off_c, 0, 51, 67
2, 414336, Note_on_c, 0, 63, 67
2, 414400, Note_off_c, 0, 63, 67
2, 414464, Note_off_c, 0, 63, 67
2, 414464, Note_on_c, 0, 46, 67
2, 414528, Note_off_c, 0, 46, 67
2, 414592, Note_off_c, 0, 46, 67
2, 414592, Note_on_c, 0, 58, 67
2, 414656, Note_off_c, 0, 58, 67
2, 414720, Note_off_c, 0, 58, 67
2, 414720, Note_on_c, 0, 39, 67
2, 414784, Note_off_c, 0, 39, 67
2, 414784, Note_on_c, 0, 46, 67
2, 414848, Note_off_c, 0, 46, 67
2, 414848, Note_on_c, 0, 51, 67
2, 414912, Note_off_c, 0, 51, 67
2, 414912, Note_on_c, 0, 53, 67
2, 414976, Note_off_c, 0, 53, 67
2, 414976, Note_on_c, 0, 55, 67
2, 415040, Note_off_c, 0, 55, 67
2, 415040, Note_on_c, 0, 51, 67
2, 415104, Note_off_c, 0, 51, 67
2, 415104, Note_on_c, 0, 58, 67
2, 415168, Note_off_c, 0, 58, 67
2, 415168, Note_on_c, 0, 63, 67
2, 415216, Control_c, 0, 93, 0
2, 415232, Note_off_c, 0, 63, 67
2, 415232, Note_on_c, 0, 44, 67
2, 415296, Note_off_c, 0, 44, 67
2, 415296, Note_on_c, 0, 51, 67
2, 415360, Note_off_c, 0, 51, 67
2, 415360, Note_on_c, 0, 56, 67
2, 415424, Note_off_c, 0, 56, 67
2, 415424, Note_on_c, 0, 58, 67
2, 415488, Note_off_c, 0, 58, 67
2, 415488, Note_on_c, 0, 60, 67
2, 415552, Note_off_c, 0, 60, 67
2, 415552, Note_on_c, 0, 56, 67
2, 415616, Note_off_c, 0, 56, 67
2, 415616, Note_on_c, 0, 63, 67
2, 415680, Note_off_c, 0, 63, 67
2, 415680, Note_on_c, 0, 68, 67
2, 415728, Control_c, 0, 93, 0
2, 415744, Note_off_c, 0, 68, 67
2, 415744, Note_on_c, 0, 46, 67
2, 415808, Note_off_c, 0, 46, 67
2, 415808, Note_on_c, 0, 53, 67
2, 415872, Note_off_c, 0, 53, 67
2, 415872, Note_on_c, 0, 58, 67
2, 415936, Note_off_c, 0, 58, 67
2, 415936, Note_on_c, 0, 60, 67
2, 416000, Note_off_c, 0, 60, 67
2, 416000, Note_on_c, 0, 62, 67
2, 416064, Note_off_c, 0, 62, 67
2, 416064, Note_on_c, 0, 58, 67
2, 416128, Note_off_c, 0, 58, 67
2, 416128, Note_on_c, 0, 65, 67
2, 416192, Note_off_c, 0, 65, 67
2, 416192, Note_on_c, 0, 70, 67
2, 416240, Control_c, 0, 93, 0
2, 416256, Note_off_c, 0, 70, 67
2, 416256, Note_on_c, 0, 41, 67
2, 416320, Note_off_c, 0, 41, 67
2, 416320, Note_on_c, 0, 44, 67
2, 416384, Note_off_c, 0, 44, 67
2, 416384, Control_c, 0, 64, 64
2, 416384, Note_on_c, 0, 50, 67
2, 416405, Note_off_c, 0, 50, 67
2, 416405, Note_on_c, 0, 53, 67
2, 416426, Note_off_c, 0, 53, 67
2, 416426, Note_on_c, 0, 58, 67
2, 416447, Note_off_c, 0, 58, 67
2, 416448, Control_c, 0, 93, 0
2, 416448, Note_on_c, 0, 62, 67
2, 416469, Note_off_c, 0, 62, 67
2, 416469, Note_on_c, 0, 65, 67
2, 416490, Note_off_c, 0, 65, 67
2, 416490, Note_on_c, 0, 70, 67
2, 416512, Control_c, 0, 93, 0
2, 416512, Control_c, 0, 64, 0
2, 416640, Note_off_c, 0, 70, 67
2, 416640, Note_on_c, 0, 51, 67
2, 416704, Note_off_c, 0, 51, 67
2, 416704, Note_on_c, 0, 46, 67
2, 416768, Note_off_c, 0, 46, 67
2, 416768, Note_on_c, 0, 39, 67
2, 416832, Note_off_c, 0, 39, 67
2, 416832, Note_on_c, 0, 46, 67
2, 416896, Note_off_c, 0, 46, 67
2, 416896, Note_on_c, 0, 51, 67
2, 416960, Note_off_c, 0, 51, 67
2, 416960, Note_on_c, 0, 53, 67
2, 417024, Note_off_c, 0, 53, 67
2, 417024, Note_on_c, 0, 55, 67
2, 417088, Note_off_c, 0, 55, 67
2, 417088, Note_on_c, 0, 51, 67
2, 417152, Note_off_c, 0, 51, 67
2, 417152, Note_on_c, 0, 58, 67
2, 417216, Note_off_c, 0, 58, 67
2, 417216, Note_on_c, 0, 63, 67
2, 417264, Control_c, 0, 93, 0
2, 417280, Note_off_c, 0, 63, 67
2, 417280, Note_on_c, 0, 44, 67
2, 417344, Note_off_c, 0, 44, 67
2, 417344, Note_on_c, 0, 51, 67
2, 417408, Note_off_c, 0, 51, 67
2, 417408, Note_on_c, 0, 56, 67
2, 417472, Note_off_c, 0, 56, 67
2, 417472, Note_on_c, 0, 58, 67
2, 417536, Note_off_c, 0, 58, 67
2, 417536, Note_on_c, 0, 60, 67
2, 417600, Note_off_c, 0, 60, 67
2, 417600, Note_on_c, 0, 56, 67
2, 417664, Note_off_c, 0, 56, 67
2, 417664, Note_on_c, 0, 63, 67
2, 417728, Note_off_c, 0, 63, 67
2, 417728, Note_on_c, 0, 68, 67
2, 417776, Control_c, 0, 93, 0
2, 417792, Note_off_c, 0, 68, 67
2, 417792, Note_on_c, 0, 46, 67
2, 417856, Note_off_c, 0, 46, 67
2, 417856, Note_on_c, 0, 53, 67
2, 417920, Note_off_c, 0, 53, 67
2, 417920, Note_on_c, 0, 58, 67
2, 417984, Note_off_c, 0, 58, 67
2, 417984, Note_on_c, 0, 60, 67
2, 418048, Note_off_c, 0, 60, 67
2, 418048, Note_on_c, 0, 62, 67
2, 418112, Note_off_c, 0, 62, 67
2, 418112, Note_on_c, 0, 58, 67
2, 418176, Note_off_c, 0, 58, 67
2, 418176, Note_on_c, 0, 65, 67
2, 418240, Note_off_c, 0, 65, 67
2, 418240, Note_on_c, 0, 70, 67
2, 418288, Control_c, 0, 93, 0
2, 418304, Note_off_c, 0, 70, 67
2, 418304, Note_on_c, 0, 39, 67
2, 418368, Note_off_c, 0, 39, 67
2, 418368, Note_on_c, 0, 46, 67
2, 418432, Note_off_c, 0, 46, 67
2, 418432, Note_on_c, 0, 51, 67
2, 418496, Note_off_c, 0, 51, 67
2, 418496, Control_c, 0, 64, 64
2, 418496, Note_on_c, 0, 55, 67
2, 418506, Note_off_c, 0, 55, 67
2, 418506, Note_on_c, 0, 58, 67
2, 418517, Note_off_c, 0, 58, 67
2, 418517, Note_on_c, 0, 63, 67
2, 418527, Note_off_c, 0, 63, 67
2, 418528, Control_c, 0, 93, 0
2, 418528, Note_on_c, 0, 67, 67
2, 418538, Note_off_c, 0, 67, 67
2, 418538, Note_on_c, 0, 70, 67
2, 418549, Note_off_c, 0, 70, 67
2, 418549, Note_on_c, 0, 75, 67
2, 418559, Note_off_c, 0, 75, 67
2, 418560, Control_c, 0, 93, 0
2, 418688, Control_c, 0, 93, 0
2, 418752, Control_c, 0, 93, 0
2, 418752, Control_c, 0, 64, 0
2, 418816, Control_c, 0, 93, 0
2, 418816, Note_on_c, 0, 51, 67
2, 418880, Note_off_c, 0, 51, 67
2, 418944, Note_off_c, 0, 51, 67
2, 418944, Note_on_c, 0, 63, 67
2, 419008, Note_off_c, 0, 63, 67
2, 419072, Note_off_c, 0, 63, 67
2, 419072, Note_on_c, 0, 50, 67
2, 419136, Note_off_c, 0, 50, 67
2, 419200, Note_off_c, 0, 50, 67
2, 419200, Note_on_c, 0, 62, 67
2, 419264, Note_off_c, 0, 62, 67
2, 419328, Note_off_c, 0, 62, 67
2, 419328, Note_on_c, 0, 48, 67
2, 419392, Note_off_c, 0, 48, 67
2, 419456, Note_off_c, 0, 48, 67
2, 419456, Note_on_c, 0, 60, 67
2, 419520, Note_off_c, 0, 60, 67
2, 419584, Note_off_c, 0, 60, 67
2, 419584, Note_on_c, 0, 46, 67
2, 419648, Note_off_c, 0, 46, 67
2, 419712, Note_off_c, 0, 46, 67
2, 419712, Note_on_c, 0, 58, 67
2, 419776, Note_off_c, 0, 58, 67
2, 419840, Note_off_c, 0, 58, 67
2, 419840, Note_on_c, 0, 51, 67
2, 419904, Note_off_c, 0, 51, 67
2, 419968, Note_off_c, 0, 51, 67
2, 419968, Note_on_c, 0, 63, 67
2, 420032, Note_off_c, 0, 63, 67
2, 420096, Note_off_c, 0, 63, 67
2, 420096, Note_on_c, 0, 46, 67
2, 420160, Note_off_c, 0, 46, 67
2, 420224, Note_off_c, 0, 46, 67
2, 420224, Note_on_c, 0, 58, 67
2, 420288, Note_off_c, 0, 58, 67
2, 420352, Note_off_c, 0, 58, 67
2, 420352, Note_on_c, 0, 48, 67
2, 420416, Note_off_c, 0, 48, 67
2, 420480, Note_off_c, 0, 48, 67
2, 420480, Note_on_c, 0, 60, 67
2, 420544, Note_off_c, 0, 60, 67
2, 420608, Note_off_c, 0, 60, 67
2, 420608, Note_on_c, 0, 46, 67
2, 420672, Note_off_c, 0, 46, 67
2, 420736, Note_off_c, 0, 46, 67
2, 420736, Note_on_c, 0, 58, 67
2, 420800, Note_off_c, 0, 58, 67
2, 420864, Note_off_c, 0, 58, 67
2, 420864, Note_on_c, 0, 50, 67
2, 420928, Note_off_c, 0, 50, 67
2, 420992, Note_off_c, 0, 50, 67
2, 420992, Note_on_c, 0, 62, 67
2, 421056, Note_off_c, 0, 62, 67
2, 421120, Note_off_c, 0, 62, 67
2, 421120, Note_on_c, 0, 46, 67
2, 421184, Note_off_c, 0, 46, 67
2, 421248, Note_off_c, 0, 46, 67
2, 421248, Note_on_c, 0, 58, 67
2, 421312, Note_off_c, 0, 58, 67
2, 421376, Note_off_c, 0, 58, 67
2, 421376, Note_on_c, 0, 48, 67
2, 421440, Note_off_c, 0, 48, 67
2, 421504, Note_off_c, 0, 48, 67
2, 421504, Note_on_c, 0, 60, 67
2, 421568, Note_off_c, 0, 60, 67
2, 421632, Note_off_c, 0, 60, 67
2, 421632, Note_on_c, 0, 49, 67
2, 421696, Note_off_c, 0, 49, 67
2, 421760, Note_off_c, 0, 49, 67
2, 421760, Note_on_c, 0, 61, 67
2, 421824, Note_off_c, 0, 61, 67
2, 421888, Note_off_c, 0, 61, 67
2, 421888, Note_on_c, 0, 50, 67
2, 421952, Note_off_c, 0, 50, 67
2, 422016, Note_off_c, 0, 50, 67
2, 422016, Note_on_c, 0, 62, 67
2, 422080, Note_off_c, 0, 62, 67
2, 422144, Note_off_c, 0, 62, 67
2, 422144, Note_on_c, 0, 46, 67
2, 422208, Note_off_c, 0, 46, 67
2, 422272, Note_off_c, 0, 46, 67
2, 422272, Note_on_c, 0, 58, 67
2, 422336, Note_off_c, 0, 58, 67
2, 422400, Note_off_c, 0, 58, 67
2, 422400, Note_on_c, 0, 51, 67
2, 422464, Note_off_c, 0, 51, 67
2, 422528, Note_off_c, 0, 51, 67
2, 422528, Note_on_c, 0, 63, 67
2, 422592, Note_off_c, 0, 63, 67
2, 422656, Note_off_c, 0, 63, 67
2, 422656, Note_on_c, 0, 46, 67
2, 422720, Note_off_c, 0, 46, 67
2, 422784, Note_off_c, 0, 46, 67
2, 422784, Note_on_c, 0, 58, 67
2, 422848, Note_off_c, 0, 58, 67
2, 422912, Note_off_c, 0, 58, 67
2, 422912, Note_on_c, 0, 51, 67
2, 422976, Note_off_c, 0, 51, 67
2, 423040, Note_off_c, 0, 51, 67
2, 423040, Note_on_c, 0, 63, 67
2, 423104, Note_off_c, 0, 63, 67
2, 423168, Note_off_c, 0, 63, 67
2, 423168, Note_on_c, 0, 50, 67
2, 423232, Note_off_c, 0, 50, 67
2, 423296, Note_off_c, 0, 50, 67
2, 423296, Note_on_c, 0, 62, 67
2, 423360, Note_off_c, 0, 62, 67
2, 423424, Note_off_c, 0, 62, 67
2, 423424, Note_on_c, 0, 48, 67
2, 423488, Note_off_c, 0, 48, 67
2, 423552, Note_off_c, 0, 48, 67
2, 423552, Note_on_c, 0, 60, 67
2, 423616, Note_off_c, 0, 60, 67
2, 423680, Note_off_c, 0, 60, 67
2, 423680, Note_on_c, 0, 46, 67
2, 423744, Note_off_c, 0, 46, 67
2, 423808, Note_off_c, 0, 46, 67
2, 423808, Note_on_c, 0, 58, 67
2, 423872, Note_off_c, 0, 58, 67
2, 423936, Note_off_c, 0, 58, 67
2, 423936, Note_on_c, 0, 51, 67
2, 424000, Note_off_c, 0, 51, 67
2, 424064, Note_off_c, 0, 51, 67
2, 424064, Note_on_c, 0, 63, 67
2, 424128, Note_off_c, 0, 63, 67
2, 424192, Note_off_c, 0, 63, 67
2, 424192, Note_on_c, 0, 46, 67
2, 424256, Note_off_c, 0, 46, 67
2, 424320, Note_off_c, 0, 46, 67
2, 424320, Note_on_c, 0, 58, 67
2, 424384, Note_off_c, 0, 58, 67
2, 424448, Note_off_c, 0, 58, 67
2, 424448, Note_on_c, 0, 48, 67
2, 424512, Note_off_c, 0, 48, 67
2, 424576, Note_off_c, 0, 48, 67
2, 424576, Note_on_c, 0, 60, 67
2, 424640, Note_off_c, 0, 60, 67
2, 424704, Note_off_c, 0, 60, 67
2, 424704, Note_on_c, 0, 46, 67
2, 424768, Note_off_c, 0, 46, 67
2, 424832, Note_off_c, 0, 46, 67
2, 424832, Note_on_c, 0, 58, 67
2, 424896, Note_off_c, 0, 58, 67
2, 424960, Note_off_c, 0, 58, 67
2, 424960, Note_on_c, 0, 50, 67
2, 425024, Note_off_c, 0, 50, 67
2, 425088, Note_off_c, 0, 50, 67
2, 425088, Note_on_c, 0, 62, 67
2, 425152, Note_off_c, 0, 62, 67
2, 425216, Note_off_c, 0, 62, 67
2, 425216, Note_on_c, 0, 48, 67
2, 425280, Note_off_c, 0, 48, 67
2, 425344, Note_off_c, 0, 48, 67
2, 425344, Note_on_c, 0, 60, 67
2, 425408, Note_off_c, 0, 60, 67
2, 425472, Note_off_c, 0, 60, 67
2, 425472, Note_on_c, 0, 46, 67
2, 425536, Note_off_c, 0, 46, 67
2, 425600, Note_off_c, 0, 46, 67
2, 425600, Note_on_c, 0, 58, 67
2, 425664, Note_off_c, 0, 58, 67
2, 425728, Note_off_c, 0, 58, 67
2, 425728, Note_on_c, 0, 48, 67
2, 425792, Note_off_c, 0, 48, 67
2, 425856, Note_off_c, 0, 48, 67
2, 425856, Note_on_c, 0, 60, 67
2, 425920, Note_off_c, 0, 60, 67
2, 425984, Note_off_c, 0, 60, 67
2, 425984, Note_on_c, 0, 50, 67
2, 426048, Note_off_c, 0, 50, 67
2, 426112, Note_off_c, 0, 50, 67
2, 426112, Note_on_c, 0, 62, 67
2, 426176, Note_off_c, 0, 62, 67
2, 426240, Note_off_c, 0, 62, 67
2, 426240, Note_on_c, 0, 46, 67
2, 426304, Note_off_c, 0, 46, 67
2, 426368, Note_off_c, 0, 46, 67
2, 426368, Note_on_c, 0, 58, 67
2, 426432, Note_off_c, 0, 58, 67
2, 426496, Note_off_c, 0, 58, 67
2, 426496, Note_on_c, 0, 51, 67
2, 426560, Note_off_c, 0, 51, 67
2, 426624, Note_off_c, 0, 51, 67
2, 426624, Note_on_c, 0, 63, 67
2, 426688, Note_off_c, 0, 63, 67
2, 426752, Note_off_c, 0, 63, 67
2, 426752, Note_on_c, 0, 46, 67
2, 426816, Note_off_c, 0, 46, 67
2, 426880, Note_off_c, 0, 46, 67
2, 426880, Note_on_c, 0, 58, 67
2, 426944, Note_off_c, 0, 58, 67
2, 427008, Note_off_c, 0, 58, 67
2, 427008, Note_on_c, 0, 39, 67
2, 427072, Note_off_c, 0, 39, 67
2, 427072, Note_on_c, 0, 46, 67
2, 427136, Note_off_c, 0, 46, 67
2, 427136, Note_on_c, 0, 51, 67
2, 427200, Note_off_c, 0, 51, 67
2, 427200, Note_on_c, 0, 53, 67
2, 427264, Note_off_c, 0, 53, 67
2, 427264, Note_on_c, 0, 55, 67
2, 427328, Note_off_c, 0, 55, 67
2, 427328, Note_on_c, 0, 51, 67
2, 427392, Note_off_c, 0, 51, 67
2, 427392, Note_on_c, 0, 58, 67
2, 427456, Note_off_c, 0, 58, 67
2, 427456, Note_on_c, 0, 63, 67
2, 427504, Control_c, 0, 93, 0
2, 427520, Note_off_c, 0, 63, 67
2, 427520, Note_on_c, 0, 44, 67
2, 427584, Note_off_c, 0, 44, 67
2, 427584, Note_on_c, 0, 51, 67
2, 427648, Note_off_c, 0, 51, 67
2, 427648, Note_on_c, 0, 56, 67
2, 427712, Note_off_c, 0, 56, 67
2, 427712, Note_on_c, 0, 58, 67
2, 427776, Note_off_c, 0, 58, 67
2, 427776, Note_on_c, 0, 60, 67
2, 427840, Note_off_c, 0, 60, 67
2, 427840, Note_on_c, 0, 56, 67
2, 427904, Note_off_c, 0, 56, 67
2, 427904, Note_on_c, 0, 63, 67
2, 427968, Note_off_c, 0, 63, 67
2, 427968, Note_on_c, 0, 68, 67
2, 428016, Control_c, 0, 93, 0
2, 428032, Note_off_c, 0, 68, 67
2, 428032, Note_on_c, 0, 46, 67
2, 428096, Note_off_c, 0, 46, 67
2, 428096, Note_on_c, 0, 53, 67
2, 428160, Note_off_c, 0, 53, 67
2, 428160, Note_on_c, 0, 58, 67
2, 428224, Note_off_c, 0, 58, 67
2, 428224, Note_on_c, 0, 60, 67
2, 428288, Note_off_c, 0, 60, 67
2, 428288, Note_on_c, 0, 62, 67
2, 428352, Note_off_c, 0, 62, 67
2, 428352, Note_on_c, 0, 58, 67
2, 428416, Note_off_c, 0, 58, 67
2, 428416, Note_on_c, 0, 65, 67
2, 428480, Note_off_c, 0, 65, 67
2, 428480, Note_on_c, 0, 70, 67
2, 428528, Control_c, 0, 93, 0
2, 428544, Note_off_c, 0, 70, 67
2, 428544, Note_on_c, 0, 41, 67
2, 428608, Note_off_c, 0, 41, 67
2, 428608, Note_on_c, 0, 44, 67
2, 428672, Note_off_c, 0, 44, 67
2, 428672, Control_c, 0, 64, 64
2, 428672, Note_on_c, 0, 50, 67
2, 428693, Note_off_c, 0, 50, 67
2, 428693, Note_on_c, 0, 53, 67
2, 428714, Note_off_c, 0, 53, 67
2, 428714, Note_on_c, 0, 58, 67
2, 428735, Note_off_c, 0, 58, 67
2, 428736, Control_c, 0, 93, 0
2, 428736, Note_on_c, 0, 62, 67
2, 428757, Note_off_c, 0, 62, 67
2, 428757, Note_on_c, 0, 65, 67
2, 428778, Note_off_c, 0, 65, 67
2, 428778, Note_on_c, 0, 70, 67
2, 428800, Control_c, 0, 93, 0
2, 428800, Control_c, 0, 64, 0
2, 428928, Note_off_c, 0, 70, 67
2, 428928, Note_on_c, 0, 51, 67
2, 428992, Note_off_c, 0, 51, 67
2, 428992, Note_on_c, 0, 46, 67
2, 429056, Note_off_c, 0, 46, 67
2, 429056, Note_on_c, 0, 39, 67
2, 429120, Note_off_c, 0, 39, 67
2, 429120, Note_on_c, 0, 46, 67
2, 429184, Note_off_c, 0, 46, 67
2, 429184, Note_on_c, 0, 51, 67
2, 429248, Note_off_c, 0, 51, 67
2, 429248, Note_on_c, 0, 53, 67
2, 429312, Note_off_c, 0, 53, 67
2, 429312, Note_on_c, 0, 55, 67
2, 429376, Note_off_c, 0, 55, 67
2, 429376, Note_on_c, 0, 51, 67
2, 429440, Note_off_c, 0, 51, 67
2, 429440, Note_on_c, 0, 58, 67
2, 429504, Note_off_c, 0, 58, 67
2, 429504, Note_on_c, 0, 63, 67
2, 429552, Control_c, 0, 93, 0
2, 429568, Note_off_c, 0, 63, 67
2, 429568, Note_on_c, 0, 44, 67
2, 429632, Note_off_c, 0, 44, 67
2, 429632, Note_on_c, 0, 51, 67
2, 429696, Note_off_c, 0, 51, 67
2, 429696, Note_on_c, 0, 56, 67
2, 429760, Note_off_c, 0, 56, 67
2, 429760, Note_on_c, 0, 58, 67
2, 429824, Note_off_c, 0, 58, 67
2, 429824, Note_on_c, 0, 60, 67
2, 429888, Note_off_c, 0, 60, 67
2, 429888, Note_on_c, 0, 56, 67
2, 429952, Note_off_c, 0, 56, 67
2, 429952, Note_on_c, 0, 63, 67
2, 430016, Note_off_c, 0, 63, 67
2, 430016, Note_on_c, 0, 68, 67
2, 430064, Control_c, 0, 93, 0
2, 430080, Note_off_c, 0, 68, 67
2, 430080, Note_on_c, 0, 46, 67
2, 430144, Note_off_c, 0, 46, 67
2, 430144, Note_on_c, 0, 53, 67
2, 430208, Note_off_c, 0, 53, 67
2, 430208, Note_on_c, 0, 58, 67
2, 430272, Note_off_c, 0, 58, 67
2, 430272, Note_on_c, 0, 60, 67
2, 430336, Note_off_c, 0, 60, 67
2, 430336, Note_on_c, 0, 62, 67
2, 430400, Note_off_c, 0, 62, 67
2, 430400, Note_on_c, 0, 58, 67
2, 430464, Note_off_c, 0, 58, 67
2, 430464, Note_on_c, 0, 65, 67
2, 430528, Note_off_c, 0, 65, 67
2, 430528, Note_on_c, 0, 70, 67
2, 430576, Control_c, 0, 93, 0
2, 430592, Note_off_c, 0, 70, 67
2, 430592, Note_on_c, 0, 39, 67
2, 430656, Note_off_c, 0, 39, 67
2, 430656, Note_on_c, 0, 46, 67
2, 430720, Note_off_c, 0, 46, 67
2, 430720, Note_on_c, 0, 51, 67
2, 430784, Note_off_c, 0, 51, 67
2, 430784, Control_c, 0, 64, 64
2, 430784, Note_on_c, 0, 55, 67
2, 430794, Note_off_c, 0, 55, 67
2, 430794, Note_on_c, 0, 58, 67
2, 430805, Note_off_c, 0, 58, 67
2, 430805, Note_on_c, 0, 63, 67
2, 430815, Note_off_c, 0, 63, 67
2, 430816, Control_c, 0, 93, 0
2, 430816, Note_on_c, 0, 67, 67
2, 430826, Note_off_c, 0, 67, 67
2, 430826, Note_on_c, 0, 70, 67
2, 430837, Note_off_c, 0, 70, 67
2, 430837, Note_on_c, 0, 75, 67
2, 430847, Note_off_c, 0, 75, 67
2, 430848, Control_c, 0, 93, 0
2, 430976, Control_c, 0, 93, 0
2, 431040, Control_c, 0, 93, 0
2, 431040, Control_c, 0, 64, 0
2, 431104, Control_c, 0, 93, 0
2, 431104, Note_on_c, 0, 51, 67
2, 431168, Note_off_c, 0, 51, 67
2, 431232, Note_off_c, 0, 51, 67
2, 431232, Note_on_c, 0, 63, 67
2, 431296, Note_off_c, 0, 63, 67
2, 431360, Note_off_c, 0, 63, 67
2, 431360, Note_on_c, 0, 50, 67
2, 431424, Note_off_c, 0, 50, 67
2, 431488, Note_off_c, 0, 50, 67
2, 431488, Note_on_c, 0, 62, 67
2, 431552, Note_off_c, 0, 62, 67
2, 431616, Note_off_c, 0, 62, 67
2, 431616, Note_on_c, 0, 48, 67
2, 431680, Note_off_c, 0, 48, 67
2, 431744, Note_off_c, 0, 48, 67
2, 431744, Note_on_c, 0, 60, 67
2, 431808, Note_off_c, 0, 60, 67
2, 431872, Note_off_c, 0, 60, 67
2, 431872, Note_on_c, 0, 46, 67
2, 431936, Note_off_c, 0, 46, 67
2, 432000, Note_off_c, 0, 46, 67
2, 432000, Note_on_c, 0, 58, 67
2, 432064, Note_off_c, 0, 58, 67
2, 432128, Note_off_c, 0, 58, 67
2, 432128, Note_on_c, 0, 51, 67
2, 432192, Note_off_c, 0, 51, 67
2, 432256, Note_off_c, 0, 51, 67
2, 432256, Note_on_c, 0, 63, 67
2, 432320, Note_off_c, 0, 63, 67
2, 432384, Note_off_c, 0, 63, 67
2, 432384, Note_on_c, 0, 46, 67
2, 432448, Note_off_c, 0, 46, 67
2, 432512, Note_off_c, 0, 46, 67
2, 432512, Note_on_c, 0, 58, 67
2, 432576, Note_off_c, 0, 58, 67
2, 432640, Note_off_c, 0, 58, 67
2, 432640, Note_on_c, 0, 48, 67
2, 432704, Note_off_c, 0, 48, 67
2, 432768, Note_off_c, 0, 48, 67
2, 432768, Note_on_c, 0, 60, 67
2, 432832, Note_off_c, 0, 60, 67
2, 432896, Note_off_c, 0, 60, 67
2, 432896, Note_on_c, 0, 46, 67
2, 432960, Note_off_c, 0, 46, 67
2, 433024, Note_off_c, 0, 46, 67
2, 433024, Note_on_c, 0, 58, 67
2, 433088, Note_off_c, 0, 58, 67
2, 433152, Note_off_c, 0, 58, 67
2, 433152, Note_on_c, 0, 50, 67
2, 433216, Note_off_c, 0, 50, 67
2, 433280, Note_off_c, 0, 50, 67
2, 433280, Note_on_c, 0, 62, 67
2, 433344, Note_off_c, 0, 62, 67
2, 433408, Note_off_c, 0, 62, 67
2, 433408, Note_on_c, 0, 46, 67
2, 433472, Note_off_c, 0, 46, 67
2, 433536, Note_off_c, 0, 46, 67
2, 433536, Note_on_c, 0, 58, 67
2, 433600, Note_off_c, 0, 58, 67
2, 433664, Note_off_c, 0, 58, 67
2, 433664, Note_on_c, 0, 48, 67
2, 433728, Note_off_c, 0, 48, 67
2, 433792, Note_off_c, 0, 48, 67
2, 433792, Note_on_c, 0, 60, 67
2, 433856, Note_off_c, 0, 60, 67
2, 433920, Note_off_c, 0, 60, 67
2, 433920, Note_on_c, 0, 49, 67
2, 433984, Note_off_c, 0, 49, 67
2, 434048, Note_off_c, 0, 49, 67
2, 434048, Note_on_c, 0, 61, 67
2, 434112, Note_off_c, 0, 61, 67
2, 434176, Note_off_c, 0, 61, 67
2, 434176, Note_on_c, 0, 50, 67
2, 434240, Note_off_c, 0, 50, 67
2, 434304, Note_off_c, 0, 50, 67
2, 434304, Note_on_c, 0, 62, 67
2, 434368, Note_off_c, 0, 62, 67
2, 434432, Note_off_c, 0, 62, 67
2, 434432, Note_on_c, 0, 46, 67
2, 434496, Note_off_c, 0, 46, 67
2, 434560, Note_off_c, 0, 46, 67
2, 434560, Note_on_c, 0, 58, 67
2, 434624, Note_off_c, 0, 58, 67
2, 434688, Note_off_c, 0, 58, 67
2, 434688, Note_on_c, 0, 51, 67
2, 434752, Note_off_c, 0, 51, 67
2, 434816, Note_off_c, 0, 51, 67
2, 434816, Note_on_c, 0, 63, 67
2, 434880, Note_off_c, 0, 63, 67
2, 434944, Note_off_c, 0, 63, 67
2, 434944, Note_on_c, 0, 46, 67
2, 435008, Note_off_c, 0, 46, 67
2, 435072, Note_off_c, 0, 46, 67
2, 435072, Note_on_c, 0, 58, 67
2, 435136, Note_off_c, 0, 58, 67
2, 435200, Note_off_c, 0, 58, 67
2, 435200, Note_on_c, 0, 51, 67
2, 435264, Note_off_c, 0, 51, 67
2, 435328, Note_off_c, 0, 51, 67
2, 435328, Note_on_c, 0, 63, 67
2, 435392, Note_off_c, 0, 63, 67
2, 435456, Note_off_c, 0, 63, 67
2, 435456, Note_on_c, 0, 50, 67
2, 435520, Note_off_c, 0, 50, 67
2, 435584, Note_off_c, 0, 50, 67
2, 435584, Note_on_c, 0, 62, 67
2, 435648, Note_off_c, 0, 62, 67
2, 435712, Note_off_c, 0, 62, 67
2, 435712, Note_on_c, 0, 48, 67
2, 435776, Note_off_c, 0, 48, 67
2, 435840, Note_off_c, 0, 48, 67
2, 435840, Note_on_c, 0, 60, 67
2, 435904, Note_off_c, 0, 60, 67
2, 435968, Note_off_c, 0, 60, 67
2, 435968, Note_on_c, 0, 46, 67
2, 436032, Note_off_c, 0, 46, 67
2, 436096, Note_off_c, 0, 46, 67
2, 436096, Note_on_c, 0, 58, 67
2, 436160, Note_off_c, 0, 58, 67
2, 436224, Note_off_c, 0, 58, 67
2, 436224, Note_on_c, 0, 51, 67
2, 436288, Note_off_c, 0, 51, 67
2, 436352, Note_off_c, 0, 51, 67
2, 436352, Note_on_c, 0, 63, 67
2, 436416, Note_off_c, 0, 63, 67
2, 436480, Note_off_c, 0, 63, 67
2, 436480, Note_on_c, 0, 46, 67
2, 436544, Note_off_c, 0, 46, 67
2, 436608, Note_off_c, 0, 46, 67
2, 436608, Note_on_c, 0, 58, 67
2, 436672, Note_off_c, 0, 58, 67
2, 436736, Note_off_c, 0, 58, 67
2, 436736, Note_on_c, 0, 48, 67
2, 436800, Note_off_c, 0, 48, 67
2, 436864, Note_off_c, 0, 48, 67
2, 436864, Note_on_c, 0, 60, 67
2, 436928, Note_off_c, 0, 60, 67
2, 436992, Note_off_c, 0, 60, 67
2, 436992, Note_on_c, 0, 46, 67
2, 437056, Note_off_c, 0, 46, 67
2, 437120, Note_off_c, 0, 46, 67
2, 437120, Note_on_c, 0, 58, 67
2, 437184, Note_off_c, 0, 58, 67
2, 437248, Note_off_c, 0, 58, 67
2, 437248, Note_on_c, 0, 50, 67
2, 437312, Note_off_c, 0, 50, 67
2, 437376, Note_off_c, 0, 50, 67
2, 437376, Note_on_c, 0, 62, 67
2, 437440, Note_off_c, 0, 62, 67
2, 437504, Note_off_c, 0, 62, 67
2, 437504, Note_on_c, 0, 48, 67
2, 437568, Note_off_c, 0, 48, 67
2, 437632, Note_off_c, 0, 48, 67
2, 437632, Note_on_c, 0, 60, 67
2, 437696, Note_off_c, 0, 60, 67
2, 437760, Note_off_c, 0, 60, 67
2, 437760, Note_on_c, 0, 46, 67
2, 437824, Note_off_c, 0, 46, 67
2, 437888, Note_off_c, 0, 46, 67
2, 437888, Note_on_c, 0, 58, 67
2, 437952, Note_off_c, 0, 58, 67
2, 438016, Note_off_c, 0, 58, 67
2, 438016, Note_on_c, 0, 48, 67
2, 438080, Note_off_c, 0, 48, 67
2, 438144, Note_off_c, 0, 48, 67
2, 438144, Note_on_c, 0, 60, 67
2, 438208, Note_off_c, 0, 60, 67
2, 438272, Note_off_c, 0, 60, 67
2, 438272, Note_on_c, 0, 50, 67
2, 438336, Note_off_c, 0, 50, 67
2, 438400, Note_off_c, 0, 50, 67
2, 438400, Note_on_c, 0, 62, 67
2, 438464, Note_off_c, 0, 62, 67
2, 438528, Note_off_c, 0, 62, 67
2, 438528, Note_on_c, 0, 46, 67
2, 438592, Note_off_c, 0, 46, 67
2, 438656, Note_off_c, 0, 46, 67
2, 438656, Note_on_c, 0, 58, 67
2, 438720, Note_off_c, 0, 58, 67
2, 438784, Note_off_c, 0, 58, 67
2, 438784, Note_on_c, 0, 51, 67
2, 438848, Note_off_c, 0, 51, 67
2, 438912, Note_off_c, 0, 51, 67
2, 438912, Note_on_c, 0, 63, 67
2, 438976, Note_off_c, 0, 63, 67
2, 439040, Note_off_c, 0, 63, 67
2, 439040, Note_on_c, 0, 46, 67
2, 439104, Note_off_c, 0, 46, 67
2, 439168, Note_off_c, 0, 46, 67
2, 439168, Note_on_c, 0, 58, 67
2, 439232, Note_off_c, 0, 58, 67
2, 439296, Note_off_c, 0, 58, 67
2, 439296, Note_on_c, 0, 39, 67
2, 439360, Note_off_c, 0, 39, 67
2, 439360, Note_on_c, 0, 46, 67
2, 439424, Note_off_c, 0, 46, 67
2, 439424, Note_on_c, 0, 51, 67
2, 439488, Note_off_c, 0, 51, 67
2, 439488, Note_on_c, 0, 53, 67
2, 439552, Note_off_c, 0, 53, 67
2, 439552, Note_on_c, 0, 55, 67
2, 439616, Note_off_c, 0, 55, 67
2, 439616, Note_on_c, 0, 51, 67
2, 439680, Note_off_c, 0, 51, 67
2, 439680, Note_on_c, 0, 58, 67
2, 439744, Note_off_c, 0, 58, 67
2, 439744, Note_on_c, 0, 63, 67
2, 439792, Control_c, 0, 93, 0
2, 439808, Note_off_c, 0, 63, 67
2, 439808, Note_on_c, 0, 44, 67
2, 439872, Note_off_c, 0, 44, 67
2, 439872, Note_on_c, 0, 51, 67
2, 439936, Note_off_c, 0, 51, 67
2, 439936, Note_on_c, 0, 56, 67
2, 440000, Note_off_c, 0, 56, 67
2, 440000, Note_on_c, 0, 58, 67
2, 440064, Note_off_c, 0, 58, 67
2, 440064, Note_on_c, 0, 60, 67
2, 440128, Note_off_c, 0, 60, 67
2, 440128, Note_on_c, 0, 56, 67
2, 440192, Note_off_c, 0, 56, 67
2, 440192, Note_on_c, 0, 63, 67
2, 440256, Note_off_c, 0, 63, 67
2, 440256, Note_on_c, 0, 68, 67
2, 440304, Control_c, 0, 93, 0
2, 440320, Note_off_c, 0, 68, 67
2, 440320, Note_on_c, 0, 46, 67
2, 440384, Note_off_c, 0, 46, 67
2, 440384, Note_on_c, 0, 53, 67
2, 440448, Note_off_c, 0, 53, 67
2, 440448, Note_on_c, 0, 58, 67
2, 440512, Note_off_c, 0, 58, 67
2, 440512, Note_on_c, 0, 60, 67
2, 440576, Note_off_c, 0, 60, 67
2, 440576, Note_on_c, 0, 62, 67
2, 440640, Note_off_c, 0, 62, 67
2, 440640, Note_on_c, 0, 58, 67
2, 440704, Note_off_c, 0, 58, 67
2, 440704, Note_on_c, 0, 65, 67
2, 440768, Note_off_c, 0, 65, 67
2, 440768, Note_on_c, 0, 70, 67
2, 440816, Control_c, 0, 93, 0
2, 440832, Note_off_c, 0, 70, 67
2, 440832, Note_on_c, 0, 41, 67
2, 440896, Note_off_c, 0, 41, 67
2, 440896, Note_on_c, 0, 44, 67
2, 440960, Note_off_c, 0, 44, 67
2, 440960, Control_c, 0, 64, 64
2, 440960, Note_on_c, 0, 50, 67
2, 440981, Note_off_c, 0, 50, 67
2, 440981, Note_on_c, 0, 53, 67
2, 441002, Note_off_c, 0, 53, 67
2, 441002, Note_on_c, 0, 58, 67
2, 441023, Note_off_c, 0, 58, 67
2, 441024, Control_c, 0, 93, 0
2, 441024, Note_on_c, 0, 62, 67
2, 441045, Note_off_c, 0, 62, 67
2, 441045, Note_on_c, 0, 65, 67
2, 441066, Note_off_c, 0, 65, 67
2, 441066, Note_on_c, 0, 70, 67
2, 441088, Control_c, 0, 93, 0
2, 441088, Control_c, 0, 64, 0
2, 441216, Note_off_c, 0, 70, 67
2, 441216, Note_on_c, 0, 51, 67
2, 441280, Note_off_c, 0, 51, 67
2, 441280, Note_on_c, 0, 46, 67
2, 441344, Note_off_c, 0, 46, 67
2, 441344, Note_on_c, 0, 39, 67
2, 441408, Note_off_c, 0, 39, 67
2, 441408, Note_on_c, 0, 46, 67
2, 441472, Note_off_c, 0, 46, 67
2, 441472, Note_on_c, 0, 51, 67
2, 441536, Note_off_c, 0, 51, 67
2, 441536, Note_on_c, 0, 53, 67
2, 441600, Note_off_c, 0, 53, 67
2, 441600, Note_on_c, 0, 55, 67
2, 441664, Note_off_c, 0, 55, 67
2, 441664, Note_on_c, 0, 51, 67
2, 441728, Note_off_c, 0, 51, 67
2, 441728, Note_on_c, 0, 58, 67
2, 441792, Note_off_c, 0, 58, 67
2, 441792, Note_on_c, 0, 63, 67
2, 441840, Control_c, 0, 93, 0
2, 441856, Note_off_c, 0, 63, 67
2, 441856, Note_on_c, 0, 44, 67
2, 441920, Note_off_c, 0, 44, 67
2, 441920, Note_on_c, 0, 51, 67
2, 441984, Note_off_c, 0, 51, 67
2, 441984, Note_on_c, 0, 56, 67
2, 442048, Note_off_c, 0, 56, 67
2, 442048, Note_on_c, 0, 58, 67
2, 442112, Note_off_c, 0, 58, 67
2, 442112, Note_on_c, 0, 60, 67
2, 442176, Note_off_c, 0, 60, 67
2, 442176, Note_on_c, 0, 56, 67
2, 442240, Note_off_c, 0, 56, 67
2, 442240, Note_on_c, 0, 63, 67
2, 442304, Note_off_c, 0, 63, 67
2, 442304, Note_on_c, 0, 68, 67
2, 442352, Control_c, 0, 93, 0
2, 442368, Note_off_c, 0, 68, 67
2, 442368, Note_on_c, 0, 46, 67
2, 442432, Note_off_c, 0, 46, 67
2, 442432, Note_on_c, 0, 53, 67
2, 442496, Note_off_c, 0, 53, 67
2, 442496, Note_on_c, 0, 58, 67
2, 442560, Note_off_c, 0, 58, 67
2, 442560, Note_on_c, 0, 60, 67
2, 442624, Note_off_c, 0, 60, 67
2, 442624, Note_on_c, 0, 62, 67
2, 442688, Note_off_c, 0, 62, 67
2, 442688, Note_on_c, 0, 58, 67
2, 442752, Note_off_c, 0, 58, 67
2, 442752, Note_on_c, 0, 65, 67
2, 442816, Note_off_c, 0, 65, 67
2, 442816, Note_on_c, 0, 70, 67
2, 442864, Control_c, 0, 93, 0
2, 442880, Note_off_c, 0, 70, 67
2, 442880, Note_on_c, 0, 39, 67
2, 442944, Note_off_c, 0, 39, 67
2, 442944, Note_on_c, 0, 46, 67
2, 443008, Note_off_c, 0, 46, 67
2, 443008, Note_on_c, 0, 51, 67
2, 443072, Note_off_c, 0, 51, 67
2, 443072, Control_c, 0, 64, 64
2, 443072, Note_on_c, 0, 55, 67
2, 443082, Note_off_c, 0, 55, 67
2, 443082, Note_on_c, 0, 58, 67
2, 443093, Note_off_c, 0, 58, 67
2, 443093, Note_on_c, 0, 63, 67
2, 443103, Note_off_c, 0, 63, 67
2, 443104, Control_c, 0, 93, 0
2, 443104, Note_on_c, 0, 67, 67
2, 443114, Note_off_c, 0, 67, 67
2, 443114, Note_on_c, 0, 70, 67
2, 443125, Note_off_c, 0, 70, 67
2, 443125, Note_on_c, 0, 75, 67
2, 443135, Note_off_c, 0, 75, 67
2, 443136, Control_c, 0, 93, 0
2, 443264, Control_c, 0, 93, 0
2, 443328, Control_c, 0, 93, 0
2, 443328, Control_c, 0, 64, 0
2, 443392, Control_c, 0, 93, 0
2, 443392, Note_on_c, 0, 51, 67
2, 443456, Note_off_c, 0, 51, 67
2, 443520, Note_off_c, 0, 51, 67
2, 443520, Note_on_c, 0, 63, 67
2, 443584, Note_off_c, 0, 63, 67
2, 443648, Note_off_c, 0, 63, 67
2, 443648, Note_on_c, 0, 50, 67
2, 443712, Note_off_c, 0, 50, 67
2, 443776, Note_off_c, 0, 50, 67
2, 443776, Note_on_c, 0, 62, 67
2, 443840, Note_off_c, 0, 62, 67
2, 443904, Note_off_c, 0, 62, 67
2, 443904, Note_on_c, 0, 48, 67
2, 443968, Note_off_c, 0, 48, 67
2, 444032, Note_off_c, 0, 48, 67
2, 444032, Note_on_c, 0, 60, 67
2, 444096, Note_off_c, 0, 60, 67
2, 444160, Note_off_c, 0, 60, 67
2, 444160, Note_on_c, 0, 46, 67
2, 444224, Note_off_c, 0, 46, 67
2, 444288, Note_off_c, 0, 46, 67
2, 444288, Note_on_c, 0, 58, 67
2, 444352, Note_off_c, 0, 58, 67
2, 444416, Note_off_c, 0, 58, 67
2, 444416, Note_on_c, 0, 51, 67
2, 444480, Note_off_c, 0, 51, 67
2, 444544, Note_off_c, 0, 51, 67
2, 444544, Note_on_c, 0, 63, 67
2, 444608, Note_off_c, 0, 63, 67
2, 444672, Note_off_c, 0, 63, 67
2, 444672, Note_on_c, 0, 46, 67
2, 444736, Note_off_c, 0, 46, 67
2, 444800, Note_off_c, 0, 46, 67
2, 444800, Note_on_c, 0, 58, 67
2, 444864, Note_off_c, 0, 58, 67
2, 444928, Note_off_c, 0, 58, 67
2, 444928, Note_on_c, 0, 48, 67
2, 444992, Note_off_c, 0, 48, 67
2, 445056, Note_off_c, 0, 48, 67
2, 445056, Note_on_c, 0, 60, 67
2, 445120, Note_off_c, 0, 60, 67
2, 445184, Note_off_c, 0, 60, 67
2, 445184, Note_on_c, 0, 46, 67
2, 445248, Note_off_c, 0, 46, 67
2, 445312, Note_off_c, 0, 46, 67
2, 445312, Note_on_c, 0, 58, 67
2, 445376, Note_off_c, 0, 58, 67
2, 445440, Note_off_c, 0, 58, 67
2, 445440, Note_on_c, 0, 50, 67
2, 445504, Note_off_c, 0, 50, 67
2, 445568, Note_off_c, 0, 50, 67
2, 445568, Note_on_c, 0, 62, 67
2, 445632, Note_off_c, 0, 62, 67
2, 445696, Note_off_c, 0, 62, 67
2, 445696, Note_on_c, 0, 46, 67
2, 445760, Note_off_c, 0, 46, 67
2, 445824, Note_off_c, 0, 46, 67
2, 445824, Note_on_c, 0, 58, 67
2, 445888, Note_off_c, 0, 58, 67
2, 445952, Note_off_c, 0, 58, 67
2, 445952, Note_on_c, 0, 48, 67
2, 446016, Note_off_c, 0, 48, 67
2, 446080, Note_off_c, 0, 48, 67
2, 446080, Note_on_c, 0, 60, 67
2, 446144, Note_off_c, 0, 60, 67
2, 446208, Note_off_c, 0, 60, 67
2, 446208, Note_on_c, 0, 49, 67
2, 446272, Note_off_c, 0, 49, 67
2, 446336, Note_off_c, 0, 49, 67
2, 446336, Note_on_c, 0, 61, 67
2, 446400, Note_off_c, 0, 61, 67
2, 446464, Note_off_c, 0, 61, 67
2, 446464, Note_on_c, 0, 50, 67
2, 446528, Note_off_c, 0, 50, 67
2, 446592, Note_off_c, 0, 50, 67
2, 446592, Note_on_c, 0, 62, 67
2, 446656, Note_off_c, 0, 62, 67
2, 446720, Note_off_c, 0, 62, 67
2, 446720, Note_on_c, 0, 46, 67
2, 446784, Note_off_c, 0, 46, 67
2, 446848, Note_off_c, 0, 46, 67
2, 446848, Note_on_c, 0, 58, 67
2, 446912, Note_off_c, 0, 58, 67
2, 446976, Note_off_c, 0, 58, 67
2, 446976, Note_on_c, 0, 51, 67
2, 447040, Note_off_c, 0, 51, 67
2, 447104, Note_off_c, 0, 51, 67
2, 447104, Note_on_c, 0, 63, 67
2, 447168, Note_off_c, 0, 63, 67
2, 447232, Note_off_c, 0, 63, 67
2, 447232, Note_on_c, 0, 46, 67
2, 447296, Note_off_c, 0, 46, 67
2, 447360, Note_off_c, 0, 46, 67
2, 447360, Note_on_c, 0, 58, 67
2, 447424, Note_off_c, 0, 58, 67
2, 447488, Note_off_c, 0, 58, 67
2, 447488, Note_on_c, 0, 51, 67
2, 447552, Note_off_c, 0, 51, 67
2, 447616, Note_off_c, 0, 51, 67
2, 447616, Note_on_c, 0, 63, 67
2, 447680, Note_off_c, 0, 63, 67
2, 447744, Note_off_c, 0, 63, 67
2, 447744, Note_on_c, 0, 50, 67
2, 447808, Note_off_c, 0, 50, 67
2, 447872, Note_off_c, 0, 50, 67
2, 447872, Note_on_c, 0, 62, 67
2, 447936, Note_off_c, 0, 62, 67
2, 448000, Note_off_c, 0, 62, 67
2, 448000, Note_on_c, 0, 48, 67
2, 448064, Note_off_c, 0, 48, 67
2, 448128, Note_off_c, 0, 48, 67
2, 448128, Note_on_c, 0, 60, 67
2, 448192, Note_off_c, 0, 60, 67
2, 448256, Note_off_c, 0, 60, 67
2, 448256, Note_on_c, 0, 46, 67
2, 448320, Note_off_c, 0, 46, 67
2, 448384, Note_off_c, 0, 46, 67
2, 448384, Note_on_c, 0, 58, 67
2, 448448, Note_off_c, 0, 58, 67
2, 448512, Note_off_c, 0, 58, 67
2, 448512, Note_on_c, 0, 51, 67
2, 448576, Note_off_c, 0, 51, 67
2, 448640, Note_off_c, 0, 51, 67
2, 448640, Note_on_c, 0, 63, 67
2, 448704, Note_off_c, 0, 63, 67
2, 448768, Note_off_c, 0, 63, 67
2, 448768, Note_on_c, 0, 46, 67
2, 448832, Note_off_c, 0, 46, 67
2, 448896, Note_off_c, 0, 46, 67
2, 448896, Note_on_c, 0, 58, 67
2, 448960, Note_off_c, 0, 58, 67
2, 449024, Note_off_c, 0, 58, 67
2, 449024, Note_on_c, 0, 48, 67
2, 449088, Note_off_c, 0, 48, 67
2, 449152, Note_off_c, 0, 48, 67
2, 449152, Note_on_c, 0, 60, 67
2, 449216, Note_off_c, 0, 60, 67
2, 449280, Note_off_c, 0, 60, 67
2, 449280, Note_on_c, 0, 46, 67
2, 449344, Note_off_c, 0, 46, 67
2, 449408, Note_off_c, 0, 46, 67
2, 449408, Note_on_c, 0, 58, 67
2, 449472, Note_off_c, 0, 58, 67
2, 449536, Note_off_c, 0, 58, 67
2, 449536, Note_on_c, 0, 50, 67
2, 449600, Note_off_c, 0, 50, 67
2, 449664, Note_off_c, 0, 50, 67
2, 449664, Note_on_c, 0, 62, 67
2, 449728, Note_off_c, 0, 62, 67
2, 449792, Note_off_c, 0, 62, 67
2, 449792, Note_on_c, 0, 48, 67
2, 449856, Note_off_c, 0, 48, 67
2, 449920, Note_off_c, 0, 48, 67
2, 449920, Note_on_c, 0, 60, 67
2, 449984, Note_off_c, 0, 60, 67
2, 450048, Note_off_c, 0, 60, 67
2, 450048, Note_on_c, 0, 46, 67
2, 450112, Note_off_c, 0, 46, 67
2, 450176, Note_off_c, 0, 46, 67
2, 450176, Note_on_c, 0, 58, 67
2, 450240, Note_off_c, 0, 58, 67
2, 450304, Note_off_c, 0, 58, 67
2, 450304, Note_on_c, 0, 48, 67
2, 450368, Note_off_c, 0, 48, 67
2, 450432, Note_off_c, 0, 48, 67
2, 450432, Note_on_c, 0, 60, 67
2, 450496, Note_off_c, 0, 60, 67
2, 450560, Note_off_c, 0, 60, 67
2, 450560, Note_on_c, 0, 50, 67
2, 450624, Note_off_c, 0, 50, 67
2, 450688, Note_off_c, 0, 50, 67
2, 450688, Note_on_c, 0, 62, 67
2, 450752, Note_off_c, 0, 62, 67
2, 450816, Note_off_c, 0, 62, 67
2, 450816, Note_on_c, 0, 46, 67
2, 450880, Note_off_c, 0, 46, 67
2, 450944, Note_off_c, 0, 46, 67
2, 450944, Note_on_c, 0, 58, 67
2, 451008, Note_off_c, 0, 58, 67
2, 451072, Note_off_c, 0, 58, 67
2, 451072, Note_on_c, 0, 51, 67
2, 451136, Note_off_c, 0, 51, 67
2, 451200, Note_off_c, 0, 51, 67
2, 451200, Note_on_c, 0, 63, 67
2, 451264, Note_off_c, 0, 63, 67
2, 451328, Note_off_c, 0, 63, 67
2, 451328, Note_on_c, 0, 46, 67
2, 451392, Note_off_c, 0, 46, 67
2, 451456, Note_off_c, 0, 46, 67
2, 451456, Note_on_c, 0, 58, 67
2, 451520, Note_off_c, 0, 58, 67
2, 451584, Note_off_c, 0, 58, 67
2, 451584, Note_on_c, 0, 39, 67
2, 451648, Note_off_c, 0, 39, 67
2, 451648, Note_on_c, 0, 46, 67
2, 451712, Note_off_c, 0, 46, 67
2, 451712, Note_on_c, 0, 51, 67
2, 451776, Note_off_c, 0, 51, 67
2, 451776, Note_on_c, 0, 53, 67
2, 451840, Note_off_c, 0, 53, 67
2, 451840, Note_on_c, 0, 55, 67
2, 451904, Note_off_c, 0, 55, 67
2, 451904, Note_on_c, 0, 51, 67
2, 451968, Note_off_c, 0, 51, 67
2, 451968, Note_on_c, 0, 58, 67
2, 452032, Note_off_c, 0, 58, 67
2, 452032, Note_on_c, 0, 63, 67
2, 452080, Control_c, 0, 93, 0
2, 452096, Note_off_c, 0, 63, 67
2, 452096, Note_on_c, 0, 44, 67
2, 452160, Note_off_c, 0, 44, 67
2, 452160, Note_on_c, 0, 51, 67
2, 452224, Note_off_c, 0, 51, 67
2, 452224, Note_on_c, 0, 56, 67
2, 452288, Note_off_c, 0, 56, 67
2, 452288, Note_on_c, 0, 58, 67
2, 452352, Note_off_c, 0, 58, 67
2, 452352, Note_on_c, 0, 60, 67
2, 452416, Note_off_c, 0, 60, 67
2, 452416, Note_on_c, 0, 56, 67
2, 452480, Note_off_c, 0, 56, 67
2, 452480, Note_on_c, 0, 63, 67
2, 452544, Note_off_c, 0, 63, 67
2, 452544, Note_on_c, 0, 68, 67
2, 452592, Control_c, 0, 93, 0
2, 452608, Note_off_c, 0, 68, 67
2, 452608, Note_on_c, 0, 46, 67
2, 452672, Note_off_c, 0, 46, 67
2, 452672, Note_on_c, 0, 53, 67
2, 452736, Note_off_c, 0, 53, 67
2, 452736, Note_on_c, 0, 58, 67
2, 452800, Note_off_c, 0, 58, 67
2, 452800, Note_on_c, 0, 60, 67
2, 452864, Note_off_c, 0, 60, 67
2, 452864, Note_on_c, 0, 62, 67
2, 452928, Note_off_c, 0, 62, 67
2, 452928, Note_on_c, 0, 58, 67
2, 452992, Note_off_c, 0, 58, 67
2, 452992, Note_on_c, 0, 65, 67
2, 453056, Note_off_c, 0, 65, 67
2, 453056, Note_on_c, 0, 70, 67
2, 453104, Control_c, 0, 93, 0
2, 453120, Note_off_c, 0, 70, 67
2, 453120, Note_on_c, 0, 41, 67
2, 453184, Note_off_c, 0, 41, 67
2, 453184, Note_on_c, 0, 44, 67
2, 453248, Note_off_c, 0, 44, 67
2, 453248, Control_c, 0, 64, 64
2, 453248, Note_on_c, 0, 50, 67
2, 453269, Note_off_c, 0, 50, 67
2, 453269, Note_on_c, 0, 53, 67
2, 453290, Note_off_c, 0, 53, 67
2, 453290, Note_on_c, 0, 58, 67
2, 453311, Note_off_c, 0, 58, 67
2, 453312, Control_c, 0, 93, 0
2, 453312, Note_on_c, 0, 62, 67
2, 453333, Note_off_c, 0, 62, 67
2, 453333, Note_on_c, 0, 65, 67
2, 453354, Note_off_c, 0, 65, 67
2, 453354, Note_on_c, 0, 70, 67
2, 453376, Control_c, 0, 93, 0
2, 453376, Control_c, 0, 64, 0
2, 453504, Note_off_c, 0, 70, 67
2, 453504, Note_on_c, 0, 51, 67
2, 453568, Note_off_c, 0, 51, 67
2, 453568, Note_on_c, 0, 46, 67
2, 453632, Note_off_c, 0, 46, 67
2, 453632, Note_on_c, 0, 39, 67
2, 453696, Note_off_c, 0, 39, 67
2, 453696, Note_on_c, 0, 46, 67
2, 453760, Note_off_c, 0, 46, 67
2, 453760, Note_on_c, 0, 51, 67
2, 453824, Note_off_c, 0, 51, 67
2, 453824, Note_on_c, 0, 53, 67
2, 453888, Note_off_c, 0, 53, 67
2, 453888, Note_on_c, 0, 55, 67
2, 453952, Note_off_c, 0, 55, 67
2, 453952, Note_on_c, 0, 51, 67
2, 454016, Note_off_c, 0, 51, 67
2, 454016, Note_on_c, 0, 58, 67
2, 454080, Note_off_c, 0, 58, 67
2, 454080, Note_on_c, 0, 63, 67
2, 454128, Control_c, 0, 93, 0
2, 454144, Note_off_c, 0, 63, 67
2, 454144, Note_on_c, 0, 44, 67
2, 454208, Note_off_c, 0, 44, 67
2, 454208, Note_on_c, 0, 51, 67
2, 454272, Note_off_c, 0, 51, 67
2, 454272, Note_on_c, 0, 56, 67
2, 454336, Note_off_c, 0, 56, 67
2, 454336, Note_on_c, 0, 58, 67
2, 454400, Note_off_c, 0, 58, 67
2, 454400, Note_on_c, 0, 60, 67
2, 454464, Note_off_c, 0, 60, 67
2, 454464, Note_on_c, 0, 56, 67
2, 454528, Note_off_c, 0, 56, 67
2, 454528, Note_on_c, 0, 63, 67
2, 454592, Note_off_c, 0, 63, 67
2, 454592, Note_on_c, 0, 68, 67
2, 454640, Control_c, 0, 93, 0
2, 454656, Note_off_c, 0, 68, 67
2, 454656, Note_on_c, 0, 46, 67
2, 454720, Note_off_c, 0, 46, 67
2, 454720, Note_on_c, 0, 53, 67
2, 454784, Note_off_c, 0, 53, 67
2, 454784, Note_on_c, 0, 58, 67
2, 454848, Note_off_c, 0, 58, 67
2, 454848, Note_on_c, 0, 60, 67
2, 454912, Note_off_c, 0, 60, 67
2, 454912, Note_on_c, 0, 62, 67
2, 454976, Note_off_c, 0, 62, 67
2, 454976, Note_on_c, 0, 58, 67
2, 455040, Note_off_c, 0, 58, 67
2, 455040, Note_on_c, 0, 65, 67
2, 455104, Note_off_c, 0, 65, 67
2, 455104, Note_on_c, 0, 70, 67
2, 455152, Control_c, 0, 93, 0
2, 455168, Note_off_c, 0, 70, 67
2, 455168, Note_on_c, 0, 39, 67
2, 455232, Note_off_c, 0, 39, 67
2, 455232, Note_on_c, 0, 46, 67
2, 455296, Note_off_c, 0, 46, 67
2, 455296, Note_on_c, 0, 51, 67
2, 455360, Note_off_c, 0, 51, 67
2, 455360, Control_c, 0, 64, 64
2, 455360, Note_on_c, 0, 55, 67
2, 455370, Note_off_c, 0, 55, 67
2, 455370, Note_on_c, 0, 58, 67
2, 455381, Note_off_c, 0, 58, 67
2, 455381, Note_on_c, 0, 63, 67
2, 455391, Note_off_c, 0, 63, 67
2, 455392, Control_c, 0, 93, 0
2, 455392, Note_on_c, 0, 67, 67
2, 455402, Note_off_c, 0, 67, 67
2, 455402, Note_on_c, 0, 70, 67
2, 455413, Note_off_c, 0, 70, 67
2, 455413, Note_on_c, 0, 75, 67
2, 455423, Note_off_c, 0, 75, 67
2, 455424, Control_c, 0, 93, 0
2, 455552, Control_c, 0, 93, 0
2, 455616, Control_c, 0, 93, 0
2, 455616, Control_c, 0, 64, 0
2, 455680, Control_c, 0, 93, 0
2, 455680, Note_on_c, 0, 51, 67
2, 455744, Note_off_c, 0, 51, 67
2, 455808, Note_off_c, 0, 51, 67
2, 455808, Note_on_c, 0, 63, 67
2, 455872, Note_off_c, 0, 63, 67
2, 455936, Note_off_c, 0, 63, 67
2, 455936, Note_on_c, 0, 50, 67
2, 456000, Note_off_c, 0, 50, 67
2, 456064, Note_off_c, 0, 50, 67
2, 456064, Note_on_c, 0, 62, 67
2, 456128, Note_off_c, 0, 62, 67
2, 456192, Note_off_c, 0, 62, 67
2, 456192, Note_on_c, 0, 48, 67
2, 456256, Note_off_c, 0, 48, 67
2, 456320, Note_off_c, 0, 48, 67
2, 456320, Note_on_c, 0, 60, 67
2, 456384, Note_off_c, 0, 60, 67
2, 456448, Note_off_c, 0, 60, 67
2, 456448, Note_on_c, 0, 46, 67
2, 456512, Note_off_c, 0, 46, 67
2, 456576, Note_off_c, 0, 46, 67
2, 456576, Note_on_c, 0, 58, 67
2, 456640, Note_off_c, 0, 58, 67
2, 456704, Note_off_c, 0, 58, 67
2, 456704, Note_on_c, 0, 51, 67
2, 456768, Note_off_c, 0, 51, 67
2, 456832, Note_off_c, 0, 51, 67
2, 456832, Note_on_c, 0, 63, 67
2, 456896, Note_off_c, 0, 63, 67
2, 456960, Note_off_c, 0, 63, 67
2, 456960, Note_on_c, 0, 46, 67
2, 457024, Note_off_c, 0, 46, 67
2, 457088, Note_off_c, 0, 46, 67
2, 457088, Note_on_c, 0, 58, 67
2, 457152, Note_off_c, 0, 58, 67
2, 457216, Note_off_c, 0, 58, 67
2, 457216, Note_on_c, 0, 48, 67
2, 457280, Note_off_c, 0, 48, 67
2, 457344, Note_off_c, 0, 48, 67
2, 457344, Note_on_c, 0, 60, 67
2, 457408, Note_off_c, 0, 60, 67
2, 457472, Note_off_c, 0, 60, 67
2, 457472, Note_on_c, 0, 46, 67
2, 457536, Note_off_c, 0, 46, 67
2, 457600, Note_off_c, 0, 46, 67
2, 457600, Note_on_c, 0, 58, 67
2, 457664, Note_off_c, 0, 58, 67
2, 457728, Note_off_c, 0, 58, 67
2, 457728, Note_on_c, 0, 50, 67
2, 457792, Note_off_c, 0, 50, 67
2, 457856, Note_off_c, 0, 50, 67
2, 457856, Note_on_c, 0, 62, 67
2, 457920, Note_off_c, 0, 62, 67
2, 457984, Note_off_c, 0, 62, 67
2, 457984, Note_on_c, 0, 46, 67
2, 458048, Note_off_c, 0, 46, 67
2, 458112, Note_off_c, 0, 46, 67
2, 458112, Note_on_c, 0, 58, 67
2, 458176, Note_off_c, 0, 58, 67
2, 458240, Note_off_c, 0, 58, 67
2, 458240, Note_on_c, 0, 48, 67
2, 458304, Note_off_c, 0, 48, 67
2, 458368, Note_off_c, 0, 48, 67
2, 458368, Note_on_c, 0, 60, 67
2, 458432, Note_off_c, 0, 60, 67
2, 458496, Note_off_c, 0, 60, 67
2, 458496, Note_on_c, 0, 49, 67
2, 458560, Note_off_c, 0, 49, 67
2, 458624, Note_off_c, 0, 49, 67
2, 458624, Note_on_c, 0, 61, 67
2, 458688, Note_off_c, 0, 61, 67
2, 458752, Note_off_c, 0, 61, 67
2, 458752, Note_on_c, 0, 50, 67
2, 458816, Note_off_c, 0, 50, 67
2, 458880, Note_off_c, 0, 50, 67
2, 458880, Note_on_c, 0, 62, 67
2, 458944, Note_off_c, 0, 62, 67
2, 459008, Note_off_c, 0, 62, 67
2, 459008, Note_on_c, 0, 46, 67
2, 459072, Note_off_c, 0, 46, 67
2, 459136, Note_off_c, 0, 46, 67
2, 459136, Note_on_c, 0, 58, 67
2, 459200, Note_off_c, 0, 58, 67
2, 459264, Note_off_c, 0, 58, 67
2, 459264, Note_on_c, 0, 51, 67
2, 459328, Note_off_c, 0, 51, 67
2, 459392, Note_off_c, 0, 51, 67
2, 459392, Note_on_c, 0, 63, 67
2, 459456, Note_off_c, 0, 63, 67
2, 459520, Note_off_c, 0, 63, 67
2, 459520, Note_on_c, 0, 46, 67
2, 459584, Note_off_c, 0, 46, 67
2, 459648, Note_off_c, 0, 46, 67
2, 459648, Note_on_c, 0, 58, 67
2, 459712, Note_off_c, 0, 58, 67
2, 459776, Note_off_c, 0, 58, 67
2, 459776, Note_on_c, 0, 51, 67
2, 459840, Note_off_c, 0, 51, 67
2, 459904, Note_off_c, 0, 51, 67
2, 459904, Note_on_c, 0, 63, 67
2, 459968, Note_off_c, 0, 63, 67
2, 460032, Note_off_c, 0, 63, 67
2, 460032, Note_on_c, 0, 50, 67
2, 460096, Note_off_c, 0, 50, 67
2, 460160, Note_off_c, 0, 50, 67
2, 460160, Note_on_c, 0, 62, 67
2, 460224, Note_off_c, 0, 62, 67
2, 460288, Note_off_c, 0, 62, 67
2, 460288, Note_on_c, 0, 48, 67
2, 460352, Note_off_c, 0, 48, 67
2, 460416, Note_off_c, 0, 48, 67
2, 460416, Note_on_c, 0, 60, 67
2, 460480, Note_off_c, 0, 60, 67
2, 460544, Note_off_c, 0, 60, 67
2, 460544, Note_on_c, 0, 46, 67
2, 460608, Note_off_c, 0, 46, 67
2, 460672, Note_off_c, 0, 46, 67
2, 460672, Note_on_c, 0, 58, 67
2, 460736, Note_off_c, 0, 58, 67
2, 460800, Note_off_c, 0, 58, 67
2, 460800, Note_on_c, 0, 51, 67
2, 460864, Note_off_c, 0, 51, 67
2, 460928, Note_off_c, 0, 51, 67
2, 460928, Note_on_c, 0, 63, 67
2, 460992, Note_off_c, 0, 63, 67
2, 461056, Note_off_c, 0, 63, 67
2, 461056, Note_on_c, 0, 46, 67
2, 461120, Note_off_c, 0, 46, 67
2, 461184, Note_off_c, 0, 46, 67
2, 461184, Note_on_c, 0, 58, 67
2, 461248, Note_off_c, 0, 58, 67
2, 461312, Note_off_c, 0, 58, 67
2, 461312, Note_on_c, 0, 48, 67
2, 461376, Note_off_c, 0, 48, 67
2, 461440, Note_off_c, 0, 48, 67
2, 461440, Note_on_c, 0, 60, 67
2, 461504, Note_off_c, 0, 60, 67
2, 461568, Note_off_c, 0, 60, 67
2, 461568, Note_on_c, 0, 46, 67
2, 461632, Note_off_c, 0, 46, 67
2, 461696, Note_off_c, 0, 46, 67
2, 461696, Note_on_c, 0, 58, 67
2, 461760, Note_off_c, 0, 58, 67
2, 461824, Note_off_c, 0, 58, 67
2, 461824, Note_on_c, 0, 50, 67
2, 461888, Note_off_c, 0, 50, 67
2, 461952, Note_off_c, 0, 50, 67
2, 461952, Note_on_c, 0, 62, 67
2, 462016, Note_off_c, 0, 62, 67
2, 462080, Note_off_c, 0, 62, 67
2, 462080, Note_on_c, 0, 48, 67
2, 462144, Note_off_c, 0, 48, 67
2, 462208, Note_off_c, 0, 48, 67
2, 462208, Note_on_c, 0, 60, 67
2, 462272, Note_off_c, 0, 60, 67
2, 462336, Note_off_c, 0, 60, 67
2, 462336, Note_on_c, 0, 46, 67
2, 462400, Note_off_c, 0, 46, 67
2, 462464, Note_off_c, 0, 46, 67
2, 462464, Note_on_c, 0, 58, 67
2, 462528, Note_off_c, 0, 58, 67
2, 462592, Note_off_c, 0, 58, 67
2, 462592, Note_on_c, 0, 48, 67
2, 462656, Note_off_c, 0, 48, 67
2, 462720, Note_off_c, 0, 48, 67
2, 462720, Note_on_c, 0, 60, 67
2, 462784, Note_off_c, 0, 60, 67
2, 462848, Note_off_c, 0, 60, 67
2, 462848, Note_on_c, 0, 50, 67
2, 462912, Note_off_c, 0, 50, 67
2, 462976, Note_off_c, 0, 50, 67
2, 462976, Note_on_c, 0, 62, 67
2, 463040, Note_off_c, 0, 62, 67
2, 463104, Note_off_c, 0, 62, 67
2, 463104, Note_on_c, 0, 46, 67
2, 463168, Note_off_c, 0, 46, 67
2, 463232, Note_off_c, 0, 46, 67
2, 463232, Note_on_c, 0, 58, 67
2, 463296, Note_off_c, 0, 58, 67
2, 463360, Note_off_c, 0, 58, 67
2, 463360, Note_on_c, 0, 51, 67
2, 463424, Note_off_c, 0, 51, 67
2, 463488, Note_off_c, 0, 51, 67
2, 463488, Note_on_c, 0, 63, 67
2, 463552, Note_off_c, 0, 63, 67
2, 463616, Note_off_c, 0, 63, 67
2, 463616, Note_on_c, 0, 46, 67
2, 463680, Note_off_c, 0, 46, 67
2, 463744, Note_off_c, 0, 46, 67
2, 463744, Note_on_c, 0, 58, 67
2, 463808, Note_off_c, 0, 58, 67
2, 463872, Note_off_c, 0, 58, 67
2, 463872, Note_on_c, 0, 39, 67
2, 463936, Note_off_c, 0, 39, 67
2, 463936, Note_on_c, 0, 46, 67
2, 464000, Note_off_c, 0, 46, 67
2, 464000, Note_on_c, 0, 51, 67
2, 464064, Note_off_c, 0, 51, 67
2, 464064, Note_on_c, 0, 53, 67
2, 464128, Note_off_c, 0, 53, 67
2, 464128, Note_on_c, 0, 55, 67
2, 464192, Note_off_c, 0, 55, 67
2, 464192, Note_on_c, 0, 51, 67
2, 464256, Note_off_c, 0, 51, 67
2, 464256, Note_on_c, 0, 58, 67
2, 464320, Note_off_c, 0, 58, 67
2, 464320, Note_on_c, 0, 63, 67
2, 464368, Control_c, 0, 93, 0
2, 464384, Note_off_c, 0, 63, 67
2, 464384, Note_on_c, 0, 44, 67
2, 464448, Note_off_c, 0, 44, 67
2, 464448, Note_on_c, 0, 51, 67
2, 464512, Note_off_c, 0, 51, 67
2, 464512, Note_on_c, 0, 56, 67
2, 464576, Note_off_c, 0, 56, 67
2, 464576, Note_on_c, 0, 58, 67
2, 464640, Note_off_c, 0, 58, 67
2, 464640, Note_on_c, 0, 60, 67
2, 464704, Note_off_c, 0, 60, 67
2, 464704, Note_on_c, 0, 56, 67
2, 464768, Note_off_c, 0, 56, 67
2, 464768, Note_on_c, 0, 63, 67
2, 464832, Note_off_c, 0, 63, 67
2, 464832, Note_on_c, 0, 68, 67
2, 464880, Control_c, 0, 93, 0
2, 464896, Note_off_c, 0, 68, 67
2, 464896, Note_on_c, 0, 46, 67
2, 464960, Note_off_c, 0, 46, 67
2, 464960, Note_on_c, 0, 53, 67
2, 465024, Note_off_c, 0, 53, 67
2, 465024, Note_on_c, 0, 58, 67
2, 465088, Note_off_c, 0, 58, 67
2, 465088, Note_on_c, 0, 60, 67
2, 465152, Note_off_c, 0, 60, 67
2, 465152, Note_on_c, 0, 62, 67
2, 465216, Note_off_c, 0, 62, 67
2, 465216, Note_on_c, 0, 58, 67
2, 465280, Note_off_c, 0, 58, 67
2, 465280, Note_on_c, 0, 65, 67
2, 465344, Note_off_c, 0, 65, 67
2, 465344, Note_on_c, 0, 70, 67
2, 465392, Control_c, 0, 93, 0
2, 465408, Note_off_c, 0, 70, 67
2, 465408, Note_on_c, 0, 41, 67
2, 465472, Note_off_c, 0, 41, 67
2, 465472, Note_on_c, 0, 44, 67
2, 465536, Note_off_c, 0, 44, 67
2, 465536, Control_c, 0, 64, 64
2, 465536, Note_on_c, 0, 50, 67
2, 465557, Note_off_c, 0, 50, 67
2, 465557, Note_on_c, 0, 53, 67
2, 465578, Note_off_c, 0, 53, 67
2, 465578, Note_on_c, 0, 58, 67
2, 465599, Note_off_c, 0, 58, 67
2, 465600, Control_c, 0, 93, 0
2, 465600, Note_on_c, 0, 62, 67
2, 465621, Note_off_c, 0, 62, 67
2, 465621, Note_on_c, 0, 65, 67
2, 465642, Note_off_c, 0, 65, 67
2, 465642, Note_on_c, 0, 70, 67
2, 465664, Control_c, 0, 93, 0
2, 465664, Control_c, 0, 64, 0
2, 465792, Note_off_c, 0, 70, 67
2, 465792, Note_on_c, 0, 51, 67
2, 465856, Note_off_c, 0, 51, 67
2, 465856, Note_on_c, 0, 46, 67
2, 465920, Note_off_c, 0, 46, 67
2, 465920, Note_on_c, 0, 39, 67
2, 465984, Note_off_c, 0, 39, 67
2, 465984, Note_on_c, 0, 46, 67
2, 466048, Note_off_c, 0, 46, 67
2, 466048, Note_on_c, 0, 51, 67
2, 466112, Note_off_c, 0, 51, 67
2, 466112, Note_on_c, 0, 53, 67
2, 466176, Note_off_c, 0, 53, 67
2, 466176, Note_on_c, 0, 55, 67
2, 466240, Note_off_c, 0, 55, 67
2, 466240, Note_on_c, 0, 51, 67
2, 466304, Note_off_c, 0, 51, 67
2, 466304, Note_on_c, 0, 58, 67
2, 466368, Note_off_c, 0, 58, 67
2, 466368, Note_on_c, 0, 63, 67
2, 466416, Control_c, 0, 93, 0
2, 466432, Note_off_c, 0, 63, 67
2, 466432, Note_on_c, 0, 44, 67
2, 466496, Note_off_c, 0, 44, 67
2, 466496, Note_on_c, 0, 51, 67
2, 466560, Note_off_c, 0, 51, 67
2, 466560, Note_on_c, 0, 56, 67
2, 466624, Note_off_c, 0, 56, 67
2, 466624, Note_on_c, 0, 58, 67
2, 466688, Note_off_c, 0, 58, 67
2, 466688, Note_on_c, 0, 60, 67
2, 466752, Note_off_c, 0, 60, 67
2, 466752, Note_on_c, 0, 56, 67
2, 466816, Note_off_c, 0, 56, 67
2, 466816, Note_on_c, 0, 63, 67
2, 466880, Note_off_c, 0, 63, 67
2, 466880, Note_on_c, 0, 68, 67
2, 466928, Control_c, 0, 93, 0
2, 466944, Note_off_c, 0, 68, 67
2, 466944, Note_on_c, 0, 46, 67
2, 467008, Note_off_c, 0, 46, 67
2, 467008, Note_on_c, 0, 53, 67
2, 467072, Note_off_c, 0, 53, 67
2, 467072, Note_on_c, 0, 58, 67
2, 467136, Note_off_c, 0, 58, 67
2, 467136, Note_on_c, 0, 60, 67
2, 467200, Note_off_c, 0, 60, 67
2, 467200, Note_on_c, 0, 62, 67
2, 467264, Note_off_c, 0, 62, 67
2, 467264, Note_on_c, 0, 58, 67
2, 467328, Note_off_c, 0, 58, 67
2, 467328, Note_on_c, 0, 65, 67
2, 467392, Note_off_c, 0, 65, 67
2, 467392, Note_on_c, 0, 70, 67
2, 467440, Control_c, 0, 93, 0
2, 467456, Note_off_c, 0, 70, 67
2, 467456, Note_on_c, 0, 39, 67
2, 467520, Note_off_c, 0, 39, 67
2, 467520, Note_on_c, 0, 46, 67
2, 467584, Note_off_c, 0, 46, 67
2, 467584, Note_on_c, 0, 51, 67
2, 467648, Note_off_c, 0, 51, 67
2, 467648, Control_c, 0, 64, 64
2, 467648, Note_on_c, 0, 55, 67
2, 467658, Note_off_c, 0, 55, 67
2, 467658, Note_on_c, 0, 58, 67
2, 467669, Note_off_c, 0, 58, 67
2, 467669, Note_on_c, 0, 63, 67
2, 467679, Note_off_c, 0, 63, 67
2, 467680, Control_c, 0, 93, 0
2, 467680, Note_on_c, 0, 67, 67
2, 467690, Note_off_c, 0, 67, 67
2, 467690, Note_on_c, 0, 70, 67
2, 467701, Note_off_c, 0, 70, 67
2, 467701, Note_on_c, 0, 75, 67
2, 467711, Note_off_c, 0, 75, 67
2, 467712, Control_c, 0, 93, 0
2, 467840, Control_c, 0, 93, 0
2, 467904, Control_c, 0, 93, 0
2, 467904, Control_c, 0, 64, 0
2, 467968, Control_c, 0, 93, 0
2, 467968, Note_on_c, 0, 51, 67
2, 468032, Note_off_c, 0, 51, 67
2, 468096, Note_off_c, 0, 51, 67
2, 468096, Note_on_c, 0, 63, 67
2, 468160, Note_off_c, 0, 63, 67
2, 468224, Note_off_c, 0, 63, 67
2, 468224, Note_on_c, 0, 50, 67
2, 468288, Note_off_c, 0, 50, 67
2, 468352, Note_off_c, 0, 50, 67
2, 468352, Note_on_c, 0, 62, 67
2, 468416, Note_off_c, 0, 62, 67
2, 468480, Note_off_c, 0, 62, 67
2, 468480, Note_on_c, 0, 48, 67
2, 468544, Note_off_c, 0, 48, 67
2, 468608, Note_off_c, 0, 48, 67
2, 468608, Note_on_c, 0, 60, 67
2, 468672, Note_off_c, 0, 60, 67
2, 468736, Note_off_c, 0, 60, 67
2, 468736, Note_on_c, 0, 46, 67
2, 468800, Note_off_c, 0, 46, 67
2, 468864, Note_off_c, 0, 46, 67
2, 468864, Note_on_c, 0, 58, 67
2, 468928, Note_off_c, 0, 58, 67
2, 468992, Note_off_c, 0, 58, 67
2, 468992, Note_on_c, 0, 51, 67
2, 469056, Note_off_c, 0, 51, 67
2, 469120, Note_off_c, 0, 51, 67
2, 469120, Note_on_c, 0, 63, 67
2, 469184, Note_off_c, 0, 63, 67
2, 469248, Note_off_c, 0, 63, 67
2, 469248, Note_on_c, 0, 46, 67
2, 469312, Note_off_c, 0, 46, 67
2, 469376, Note_off_c, 0, 46, 67
2, 469376, Note_on_c, 0, 58, 67
2, 469440, Note_off_c, 0, 58, 67
2, 469504, Note_off_c, 0, 58, 67
2, 469504, Note_on_c, 0, 48, 67
2, 469568, Note_off_c, 0, 48, 67
2, 469632, Note_off_c, 0, 48, 67
2, 469632, Note_on_c, 0, 60, 67
2, 469696, Note_off_c, 0, 60, 67
2, 469760, Note_off_c, 0, 60, 67
2, 469760, Note_on_c, 0, 46, 67
2, 469824, Note_off_c, 0, 46, 67
2, 469888, Note_off_c, 0, 46, 67
2, 469888, Note_on_c, 0, 58, 67
2, 469952, Note_off_c, 0, 58, 67
2, 470016, Note_off_c, 0, 58, 67
2, 470016, Note_on_c, 0, 50, 67
2, 470080, Note_off_c, 0, 50, 67
2, 470144, Note_off_c, 0, 50, 67
2, 470144, Note_on_c, 0, 62, 67
2, 470208, Note_off_c, 0, 62, 67
2, 470272, Note_off_c, 0, 62, 67
2, 470272, Note_on_c, 0, 46, 67
2, 470336, Note_off_c, 0, 46, 67
2, 470400, Note_off_c, 0, 46, 67
2, 470400, Note_on_c, 0, 58, 67
2, 470464, Note_off_c, 0, 58, 67
2, 470528, Note_off_c, 0, 58, 67
2, 470528, Note_on_c, 0, 48, 67
2, 470592, Note_off_c, 0, 48, 67
2, 470656, Note_off_c, 0, 48, 67
2, 470656, Note_on_c, 0, 60, 67
2, 470720, Note_off_c, 0, 60, 67
2, 470784, Note_off_c, 0, 60, 67
2, 470784, Note_on_c, 0, 49, 67
2, 470848, Note_off_c, 0, 49, 67
2, 470912, Note_off_c, 0, 49, 67
2, 470912, Note_on_c, 0, 61, 67
2, 470976, Note_off_c, 0, 61, 67
2, 471040, Note_off_c, 0, 61, 67
2, 471040, Note_on_c, 0, 50, 67
2, 471104, Note_off_c, 0, 50, 67
2, 471168, Note_off_c, 0, 50, 67
2, 471168, Note_on_c, 0, 62, 67
2, 471232, Note_off_c, 0, 62, 67
2, 471296, Note_off_c, 0, 62, 67
2, 471296, Note_on_c, 0, 46, 67
2, 471360, Note_off_c, 0, 46, 67
2, 471424, Note_off_c, 0, 46, 67
2, 471424, Note_on_c, 0, 58, 67
2, 471488, Note_off_c, 0, 58, 67
2, 471552, Note_off_c, 0, 58, 67
2, 471552, Note_on_c, 0, 51, 67
2, 471616, Note_off_c, 0, 51, 67
2, 471680, Note_off_c, 0, 51, 67
2, 471680, Note_on_c, 0, 63, 67
2, 471744, Note_off_c, 0, 63, 67
2, 471808, Note_off_c, 0, 63, 67
2, 471808, Note_on_c, 0, 46, 67
2, 471872, Note_off_c, 0, 46, 67
2, 471936, Note_off_c, 0, 46, 67
2, 471936, Note_on_c, 0, 58, 67
2, 472000, Note_off_c, 0, 58, 67
2, 472064, Note_off_c, 0, 58, 67
2, 472064, Note_on_c, 0, 51, 67
2, 472128, Note_off_c, 0, 51, 67
2, 472192, Note_off_c, 0, 51, 67
2, 472192, Note_on_c, 0, 63, 67
2, 472256, Note_off_c, 0, 63, 67
2, 472320, Note_off_c, 0, 63, 67
2, 472320, Note_on_c, 0, 50, 67
2, 472384, Note_off_c, 0, 50, 67
2, 472448, Note_off_c, 0, 50, 67
2, 472448, Note_on_c, 0, 62, 67
2, 472512, Note_off_c, 0, 62, 67
2, 472576, Note_off_c, 0, 62, 67
2, 472576, Note_on_c, 0, 48, 67
2, 472640, Note_off_c, 0, 48, 67
2, 472704, Note_off_c, 0, 48, 67
2, 472704, Note_on_c, 0, 60, 67
2, 472768, Note_off_c, 0, 60, 67
2, 472832, Note_off_c, 0, 60, 67
2, 472832, Note_on_c, 0, 46, 67
2, 472896, Note_off_c, 0, 46, 67
2, 472960, Note_off_c, 0, 46, 67
2, 472960, Note_on_c, 0, 58, 67
2, 473024, Note_off_c, 0, 58, 67
2, 473088, Note_off_c, 0, 58, 67
2, 473088, Note_on_c, 0, 51, 67
2, 473152, Note_off_c, 0, 51, 67
2, 473216, Note_off_c, 0, 51, 67
2, 473216, Note_on_c, 0, 63, 67
2, 473280, Note_off_c, 0, 63, 67
2, 473344, Note_off_c, 0, 63, 67
2, 473344, Note_on_c, 0, 46, 67
2, 473408, Note_off_c, 0, 46, 67
2, 473472, Note_off_c, 0, 46, 67
2, 473472, Note_on_c, 0, 58, 67
2, 473536, Note_off_c, 0, 58, 67
2, 473600, Note_off_c, 0, 58, 67
2, 473600, Note_on_c, 0, 48, 67
2, 473664, Note_off_c, 0, 48, 67
2, 473728, Note_off_c, 0, 48, 67
2, 473728, Note_on_c, 0, 60, 67
2, 473792, Note_off_c, 0, 60, 67
2, 473856, Note_off_c, 0, 60, 67
2, 473856, Note_on_c, 0, 46, 67
2, 473920, Note_off_c, 0, 46, 67
2, 473984, Note_off_c, 0, 46, 67
2, 473984, Note_on_c, 0, 58, 67
2, 474048, Note_off_c, 0, 58, 67
2, 474112, Note_off_c, 0, 58, 67
2, 474112, Note_on_c, 0, 50, 67
2, 474176, Note_off_c, 0, 50, 67
2, 474240, Note_off_c, 0, 50, 67
2, 474240, Note_on_c, 0, 62, 67
2, 474304, Note_off_c, 0, 62, 67
2, 474368, Note_off_c, 0, 62, 67
2, 474368, Note_on_c, 0, 48, 67
2, 474432, Note_off_c, 0, 48, 67
2, 474496, Note_off_c, 0, 48, 67
2, 474496, Note_on_c, 0, 60, 67
2, 474560, Note_off_c, 0, 60, 67
2, 474624, Note_off_c, 0, 60, 67
2, 474624, Note_on_c, 0, 46, 67
2, 474688, Note_off_c, 0, 46, 67
2, 474752, Note_off_c, 0, 46, 67
2, 474752, Note_on_c, 0, 58, 67
2, 474816, Note_off_c, 0, 58, 67
2, 474880, Note_off_c, 0, 58, 67
2, 474880, Note_on_c, 0, 48, 67
2, 474944, Note_off_c, 0, 48, 67
2, 475008, Note_off_c, 0, 48, 67
2, 475008, Note_on_c, 0, 60, 67
2, 475072, Note_off_c, 0, 60, 67
2, 475136, Note_off_c, 0, 60, 67
2, 475136, Note_on_c, 0, 50, 67
2, 475200, Note_off_c, 0, 50, 67
2, 475264, Note_off_c, 0, 50, 67
2, 475264, Note_on_c, 0, 62, 67
2, 475328, Note_off_c, 0, 62, 67
2, 475392, Note_off_c, 0, 62, 67
2, 475392, Note_on_c, 0, 46, 67
2, 475456, Note_off_c, 0, 46, 67
2, 475520, Note_off_c, 0, 46, 67
2, 475520, Note_on_c, 0, 58, 67
2, 475584, Note_off_c, 0, 58, 67
2, 475648, Note_off_c, 0, 58, 67
2, 475648, Note_on_c, 0, 51, 67
2, 475712, Note_off_c, 0, 51, 67
2, 475776, Note_off_c, 0, 51, 67
2, 475776, Note_on_c, 0, 63, 67
2, 475840, Note_off_c, 0, 63, 67
2, 475904, Note_off_c, 0, 63, 67
2, 475904, Note_on_c, 0, 46, 67
2, 475968, Note_off_c, 0, 46, 67
2, 476032, Note_off_c, 0, 46, 67
2, 476032, Note_on_c, 0, 58, 67
2, 476096, Note_off_c, 0, 58, 67
2, 476160, Note_off_c, 0, 58, 67
2, 476160, Note_on_c, 0, 39, 67
2, 476224, Note_off_c, 0, 39, 67
2, 476224, Note_on_c, 0, 46, 67
2, 476288, Note_off_c, 0, 46, 67
2, 476288, Note_on_c, 0, 51, 67
2, 476352, Note_off_c, 0, 51, 67
2, 476352, Note_on_c, 0, 53, 67
2, 476416, Note_off_c, 0, 53, 67
2, 476416, Note_on_c, 0, 55, 67
2, 476480, Note_off_c, 0, 55, 67
2, 476480, Note_on_c, 0, 51, 67
2, 476544, Note_off_c, 0, 51, 67
2, 476544, Note_on_c, 0, 58, 67
2, 476608, Note_off_c, 0, 58, 67
2, 476608, Note_on_c, 0, 63, 67
2, 476656, Control_c, 0, 93, 0
2, 476672, Note_off_c, 0, 63, 67
2, 476672, Note_on_c, 0, 44, 67
2, 476736, Note_off_c, 0, 44, 67
2, 476736, Note_on_c, 0, 51, 67
2, 476800, Note_off_c, 0, 51, 67
2, 476800, Note_on_c, 0, 56, 67
2, 476864, Note_off_c, 0, 56, 67
2, 476864, Note_on_c, 0, 58, 67
2, 476928, Note_off_c, 0, 58, 67
2, 476928, Note_on_c, 0, 60, 67
2, 476992, Note_off_c, 0, 60, 67
2, 476992, Note_on_c, 0, 56, 67
2, 477056, Note_off_c, 0, 56, 67
2, 477056, Note_on_c, 0, 63, 67
2, 477120, Note_off_c, 0, 63, 67
2, 477120, Note_on_c, 0, 68, 67
2, 477168, Control_c, 0, 93, 0
2, 477184, Note_off_c, 0, 68, 67
2, 477184, Note_on_c, 0, 46, 67
2, 477248, Note_off_c, 0, 46, 67
2, 477248, Note_on_c, 0, 53, 67
2, 477312, Note_off_c, 0, 53, 67
2, 477312, Note_on_c, 0, 58, 67
2, 477376, Note_off_c, 0, 58, 67
2, 477376, Note_on_c, 0, 60, 67
2, 477440, Note_off_c, 0, 60, 67
2, 477440, Note_on_c, 0, 62, 67
2, 477504, Note_off_c, 0, 62, 67
2, 477504, Note_on_c, 0, 58, 67
2, 477568, Note_off_c, 0, 58, 67
2, 477568, Note_on_c, 0, 65, 67
2, 477632, Note_off_c, 0, 65, 67
2, 477632, Note_on_c, 0, 70, 67
2, 477680, Control_c, 0, 93, 0
2, 477696, Note_off_c, 0, 70, 67
2, 477696, Note_on_c, 0, 41, 67
2, 477760, Note_off_c, 0, 41, 67
2, 477760, Note_on_c, 0, 44, 67
2, 477824, Note_off_c, 0, 44, 67
2, 477824, Control_c, 0, 64, 64
2, 477824, Note_on_c, 0, 50, 67
2, 477845, Note_off_c, 0, 50, 67
2, 477845, Note_on_c, 0, 53, 67
2, 477866, Note_off_c, 0, 53, 67
2, 477866, Note_on_c, 0, 58, 67
2, 477887, Note_off_c, 0, 58, 67
2, 477888, Control_c, 0, 93, 0
2, 477888, Note_on_c, 0, 62, 67
2, 477909, Note_off_c, 0, 62, 67
2, 477909, Note_on_c, 0, 65, 67
2, 477930, Note_off_c, 0, 65, 67
2, 477930, Note_on_c, 0, 70, 67
2, 477952, Control_c, 0, 93, 0
2, 477952, Control_c, 0, 64, 0
2, 478080, Note_off_c, 0, 70, 67
2, 478080, Note_on_c, 0, 51, 67
2, 478144, Note_off_c, 0, 51, 67
2, 478144, Note_on_c, 0, 46, 67
2, 478208, Note_off_c, 0, 46, 67
2, 478208, Note_on_c, 0, 39, 67
2, 478272, Note_off_c, 0, 39, 67
2, 478272, Note_on_c, 0, 46, 67
2, 478336, Note_off_c, 0, 46, 67
2, 478336, Note_on_c, 0, 51, 67
2, 478400, Note_off_c, 0, 51, 67
2, 478400, Note_on_c, 0, 53, 67
2, 478464, Note_off_c, 0, 53, 67
2, 478464, Note_on_c, 0, 55, 67
2, 478528, Note_off_c, 0, 55, 67
2, 478528, Note_on_c, 0, 51, 67
2, 478592, Note_off_c, 0, 51, 67
2, 478592, Note_on_c, 0, 58, 67
2, 478656, Note_off_c, 0, 58, 67
2, 478656, Note_on_c, 0, 63, 67
2, 478704, Control_c, 0, 93, 0
2, 478720, Note_off_c, 0, 63, 67
2, 478720, Note_on_c, 0, 44, 67
2, 478784, Note_off_c, 0, 44, 67
2, 478784, Note_on_c, 0, 51, 67
2, 478848, Note_off_c, 0, 51, 67
2, 478848, Note_on_c, 0, 56, 67
2, 478912, Note_off_c, 0, 56, 67
2, 478912, Note_on_c, 0, 58, 67
2, 478976, Note_off_c, 0, 58, 67
2, 478976, Note_on_c, 0, 60, 67
2, 479040, Note_off_c, 0, 60, 67
2, 479040, Note_on_c, 0, 56, 67
2, 479104, Note_off_c, 0, 56, 67
2, 479104, Note_on_c, 0, 63, 67
2, 479168, Note_off_c, 0, 63, 67
2, 479168, Note_on_c, 0, 68, 67
2, 479216, Control_c, 0, 93, 0
2, 479232, Note_off_c, 0, 68, 67
2, 479232, Note_on_c, 0, 46, 67
2, 479296, Note_off_c, 0, 46, 67
2, 479296, Note_on_c, 0, 53, 67
2, 479360, Note_off_c, 0, 53, 67
2, 479360, Note_on_c, 0, 58, 67
2, 479424, Note_off_c, 0, 58, 67
2, 479424, Note_on_c, 0, 60, 67
2, 479488, Note_off_c, 0, 60, 67
2, 479488, Note_on_c, 0, 62, 67
2, 479552, Note_off_c, 0, 62, 67
2, 479552, Note_on_c, 0, 58, 67
2, 479616, Note_off_c, 0, 58, 67
2, 479616, Note_on_c, 0, 65, 67
2, 479680, Note_off_c, 0, 65, 67
2, 479680, Note_on_c, 0, 70, 67
2, 479728, Control_c, 0, 93, 0
2, 479744, Note_off_c, 0, 70, 67
2, 479744, Note_on_c, 0, 39, 67
2, 479808, Note_off_c, 0, 39, 67
2, 479808, Note_on_c, 0, 46, 67
2, 479872, Note_off_c, 0, 46, 67
2, 479872, Note_on_c, 0, 51, 67
2, 479936, Note_off_c, 0, 51, 67
2, 479936, Control_c, 0, 64, 64
2, 479936, Note_on_c, 0, 55, 67
2, 479946, Note_off_c, 0, 55, 67
2, 479946, Note_on_c, 0, 58, 67
2, 479957, Note_off_c, 0, 58, 67
2, 479957, Note_on_c, 0, 63, 67
2, 479967, Note_off_c, 0, 63, 67
2, 479968, Control_c, 0, 93, 0
2, 479968, Note_on_c, 0, 67, 67
2, 479978, Note_off_c, 0, 67, 67
2, 479978, Note_on_c, 0, 70, 67
2, 479989, Note_off_c, 0, 70, 67
2, 479989, Note_on_c, 0, 75, 67
2, 479999, Note_off_c, 0, 75, 67
2, 480000, Control_c, 0, 93, 0
2, 480128, Control_c, 0, 93, 0
2, 480192, Control_c, 0, 93, 0
2, 480192, Control_c, 0, 64, 0
2, 480256, Control_c, 0, 93, 0
2, 480256, Note_on_c, 0, 51, 67
2, 480320, Note_off_c, 0, 51, 67
2, 480384, Note_off_c, 0, 51, 67
2, 480384, Note_on_c, 0, 63, 67
2, 480448, Note_off_c, 0, 63, 67
2, 480512, Note_off_c, 0, 63, 67
2, 480512, Note_on_c, 0, 50, 67
2, 480576, Note_off_c, 0, 50, 67
2, 480640, Note_off_c, 0, 50, 67
2, 480640, Note_on_c, 0, 62, 67
2, 480704, Note_off_c, 0, 62, 67
2, 480768, Note_off_c, 0, 62, 67
2, 480768, Note_on_c, 0, 48, 67
2, 480832, Note_off_c, 0, 48, 67
2, 480896, Note_off_c, 0, 48, 67
2, 480896, Note_on_c, 0, 60, 67
2, 480960, Note_off_c, 0, 60, 67
2, 481024, Note_off_c, 0, 60, 67
2, 481024, Note_on_c, 0, 46, 67
2, 481088, Note_off_c, 0, 46, 67
2, 481152, Note_off_c, 0, 46, 67
2, 481152, Note_on_c, 0, 58, 67
2, 481216, Note_off_c, 0, 58, 67
2, 481280, Note_off_c, 0, 58, 67
2, 481280, Note_on_c, 0, 51, 67
2, 481344, Note_off_c, 0, 51, 67
2, 481408, Note_off_c, 0, 51, 67
2, 481408, Note_on_c, 0, 63, 67
2, 481472, Note_off_c, 0, 63, 67
2, 481536, Note_off_c, 0, 63, 67
2, 481536, Note_on_c, 0, 46, 67
2, 481600, Note_off_c, 0, 46, 67
2, 481664, Note_off_c, 0, 46, 67
2, 481664, Note_on_c, 0, 58, 67
2, 481728, Note_off_c, 0, 58, 67
2, 481792, Note_off_c, 0, 58, 67
2, 481792, Note_on_c, 0, 48, 67
2, 481856, Note_off_c, 0, 48, 67
2, 481920, Note_off_c, 0, 48, 67
2, 481920, Note_on_c, 0, 60, 67
2, 481984, Note_off_c, 0, 60, 67
2, 482048, Note_off_c, 0, 60, 67
2, 482048, Note_on_c, 0, 46, 67
2, 482112, Note_off_c, 0, 46, 67
2, 482176, Note_off_c, 0, 46, 67
2, 482176, Note_on_c, 0, 58, 67
2, 482240, Note_off_c, 0, 58, 67
2, 482304, Note_off_c, 0, 58, 67
2, 482304, Note_on_c, 0, 50, 67
2, 482368, Note_off_c, 0, 50, 67
2, 482432, Note_off_c, 0, 50, 67
2, 482432, Note_on_c, 0, 62, 67
2, 482496, Note_off_c, 0, 62, 67
2, 482560, Note_off_c, 0, 62, 67
2, 482560, Note_on_c, 0, 46, 67
2, 482624, Note_off_c, 0, 46, 67
2, 482688, Note_off_c, 0, 46, 67
2, 482688, Note_on_c, 0, 58, 67
2, 482752, Note_off_c, 0, 58, 67
2, 482816, Note_off_c, 0, 58, 67
2, 482816, Note_on_c, 0, 48, 67
2, 482880, Note_off_c, 0, 48, 67
2, 482944, Note_off_c, 0, 48, 67
2, 482944, Note_on_c, 0, 60, 67
2, 483008, Note_off_c, 0, 60, 67
2, 483072, Note_off_c, 0, 60, 67
2, 483072, Note_on_c, 0, 49, 67
2, 483136, Note_off_c, 0, 49, 67
2, 483200, Note_off_c, 0, 49, 67
2, 483200, Note_on_c, 0, 61, 67
2, 483264, Note_off_c, 0, 61, 67
2, 483328, Note_off_c, 0, 61, 67
2, 483328, Note_on_c, 0, 50, 67
2, 483392, Note_off_c, 0, 50, 67
2, 483456, Note_off_c, 0, 50, 67
2, 483456, Note_on_c, 0, 62, 67
2, 483520, Note_off_c, 0, 62, 67
2, 483584, Note_off_c, 0, 62, 67
2, 483584, Note_on_c, 0, 46, 67
2, 483648, Note_off_c, 0, 46, 67
2, 483712, Note_off_c, 0, 46, 67
2, 483712, Note_on_c, 0, 58, 67
2, 483776, Note_off_c, 0, 58, 67
2, 483840, Note_off_c, 0, 58, 67
2, 483840, Note_on_c, 0, 51, 67
2, 483904, Note_off_c, 0, 51, 67
2, 483968, Note_off_c, 0, 51, 67
2, 483968, Note_on_c, 0, 63, 67
2, 484032, Note_off_c, 0, 63, 67
2, 484096, Note_off_c, 0, 63, 67
2, 484096, Note_on_c, 0, 46, 67
2, 484160, Note_off_c, 0, 46, 67
2, 484224, Note_off_c, 0, 46, 67
2, 484224, Note_on_c, 0, 58, 67
2, 484288, Note_off_c, 0, 58, 67
2, 484352, Note_off_c, 0, 58, 67
2, 484352, Note_on_c, 0, 51, 67
2, 484416, Note_off_c, 0, 51, 67
2, 484480, Note_off_c, 0, 51, 67
2, 484480, Note_on_c, 0, 63, 67
2, 484544, Note_off_c, 0, 63, 67
2, 484608, Note_off_c, 0, 63, 67
2, 484608, Note_on_c, 0, 50, 67
2, 484672, Note_off_c, 0, 50, 67
2, 484736, Note_off_c, 0, 50, 67
2, 484736, Note_on_c, 0, 62, 67
2, 484800, Note_off_c, 0, 62, 67
2, 484864, Note_off_c, 0, 62, 67
2, 484864, Note_on_c, 0, 48, 67
2, 484928, Note_off_c, 0, 48, 67
2, 484992, Note_off_c, 0, 48, 67
2, 484992, Note_on_c, 0, 60, 67
2, 485056, Note_off_c, 0, 60, 67
2, 485120, Note_off_c, 0, 60, 67
2, 485120, Note_on_c, 0, 46, 67
2, 485184, Note_off_c, 0, 46, 67
2, 485248, Note_off_c, 0, 46, 67
2, 485248, Note_on_c, 0, 58, 67
2, 485312, Note_off_c, 0, 58, 67
2, 485376, Note_off_c, 0, 58, 67
2, 485376, Note_on_c, 0, 51, 67
2, 485440, Note_off_c, 0, 51, 67
2, 485504, Note_off_c, 0, 51, 67
2, 485504, Note_on_c, 0, 63, 67
2, 485568, Note_off_c, 0, 63, 67
2, 485632, Note_off_c, 0, 63, 67
2, 485632, Note_on_c, 0, 46, 67
2, 485696, Note_off_c, 0, 46, 67
2, 485760, Note_off_c, 0, 46, 67
2, 485760, Note_on_c, 0, 58, 67
2, 485824, Note_off_c, 0, 58, 67
2, 485888, Note_off_c, 0, 58, 67
2, 485888, Note_on_c, 0, 48, 67
2, 485952, Note_off_c, 0, 48, 67
2, 486016, Note_off_c, 0, 48, 67
2, 486016, Note_on_c, 0, 60, 67
2, 486080, Note_off_c, 0, 60, 67
2, 486144, Note_off_c, 0, 60, 67
2, 486144, Note_on_c, 0, 46, 67
2, 486208, Note_off_c, 0, 46, 67
2, 486272, Note_off_c, 0, 46, 67
2, 486272, Note_on_c, 0, 58, 67
2, 486336, Note_off_c, 0, 58, 67
2, 486400, Note_off_c, 0, 58, 67
2, 486400, Note_on_c, 0, 50, 67
2, 486464, Note_off_c, 0, 50, 67
2, 486528, Note_off_c, 0, 50, 67
2, 486528, Note_on_c, 0, 62, 67
2, 486592, Note_off_c, 0, 62, 67
2, 486656, Note_off_c, 0, 62, 67
2, 486656, Note_on_c, 0, 48, 67
2, 486720, Note_off_c, 0, 48, 67
2, 486784, Note_off_c, 0, 48, 67
2, 486784, Note_on_c, 0, 60, 67
2, 486848, Note_off_c, 0, 60, 67
2, 486912, Note_off_c, 0, 60, 67
2, 486912, Note_on_c, 0, 46, 67
2, 486976, Note_off_c, 0, 46, 67
2, 487040, Note_off_c, 0, 46, 67
2, 487040, Note_on_c, 0, 58, 67
2, 487104, Note_off_c, 0, 58, 67
2, 487168, Note_off_c, 0, 58, 67
2, 487168, Note_on_c, 0, 48, 67
2, 487232, Note_off_c, 0, 48, 67
2, 487296, Note_off_c, 0, 48, 67
2, 487296, Note_on_c, 0, 60, 67
2, 487360, Note_off_c, 0, 60, 67
2, 487424, Note_off_c, 0, 60, 67
2, 487424, Note_on_c, 0, 50, 67
2, 487488, Note_off_c, 0, 50, 67
2, 487552, Note_off_c, 0, 50, 67
2, 487552, Note_on_c, 0, 62, 67
2, 487616, Note_off_c, 0, 62, 67
2, 487680, Note_off_c, 0, 62, 67
2, 487680, Note_on_c, 0, 46, 67
2, 487744, Note_off_c, 0, 46, 67
2, 487808, Note_off_c, 0, 46, 67
2, 487808, Note_on_c, 0, 58, 67
2, 487872, Note_off_c, 0, 58, 67
2, 487936, Note_off_c, 0, 58, 67
2, 487936, Note_on_c, 0, 51, 67
2, 488000, Note_off_c, 0, 51, 67
2, 488064, Note_off_c, 0, 51, 67
2, 488064, Note_on_c, 0, 63, 67
2, 488128, Note_off_c, 0, 63, 67
2, 488192, Note_off_c, 0, 63, 67
2, 488192, Note_on_c, 0, 46, 67
2, 488256, Note_off_c, 0, 46, 67
2, 488320, Note_off_c, 0, 46, 67
2, 488320, Note_on_c, 0, 58, 67
2, 488384, Note_off_c, 0, 58, 67
2, 488448, Note_off_c, 0, 58, 67
2, 488448, Note_on_c, 0, 39, 67
2, 488512, Note_off_c, 0, 39, 67
2, 488512, Note_on_c, 0, 46, 67
2, 488576, Note_off_c, 0, 46, 67
2, 488576, Note_on_c, 0, 51, 67
2, 488640, Note_off_c, 0, 51, 67
2, 488640, Note_on_c, 0, 53, 67
2, 488704, Note_off_c, 0, 53, 67
2, 488704, Note_on_c, 0, 55, 67
2, 488768, Note_off_c, 0, 55, 67
2, 488768, Note_on_c, 0, 51, 67
2, 488832, Note_off_c, 0, 51, 67
2, 488832, Note_on_c, 0, 58, 67
2, 488896, Note_off_c, 0, 58, 67
2, 488896, Note_on_c, 0, 63, 67
2, 488944, Control_c, 0, 93, 0
2, 488960, Note_off_c, 0, 63, 67
2, 488960, Note_on_c, 0, 44, 67
2, 489024, Note_off_c, 0, 44, 67
2, 489024, Note_on_c, 0, 51, 67
2, 489088, Note_off_c, 0, 51, 67
2, 489088, Note_on_c, 0, 56, 67
2, 489152, Note_off_c, 0, 56, 67
2, 489152, Note_on_c, 0, 58, 67
2, 489216, Note_off_c, 0, 58, 67
2, 489216, Note_on_c, 0, 60, 67
2, 489280, Note_off_c, 0, 60, 67
2, 489280, Note_on_c, 0, 56, 67
2, 489344, Note_off_c, 0, 56, 67
2, 489344, Note_on_c, 0, 63, 67
2, 489408, Note_off_c, 0, 63, 67
2, 489408, Note_on_c, 0, 68, 67
2, 489456, Control_c, 0, 93, 0
2, 489472, Note_off_c, 0, 68, 67
2, 489472, Note_on_c, 0, 46, 67
2, 489536, Note_off_c, 0, 46, 67
2, 489536, Note_on_c, 0, 53, 67
2, 489600, Note_off_c, 0, 53, 67
2, 489600, Note_on_c, 0, 58, 67
2, 489664, Note_off_c, 0, 58, 67
2, 489664, Note_on_c, 0, 60, 67
2, 489728, Note_off_c, 0, 60, 67
2, 489728, Note_on_c, 0, 62, 67
2, 489792, Note_off_c, 0, 62, 67
2, 489792, Note_on_c, 0, 58, 67
2, 489856, Note_off_c, 0, 58, 67
2, 489856, Note_on_c, 0, 65, 67
2, 489920, Note_off_c, 0, 65, 67
2, 489920, Note_on_c, 0, 70, 67
2, 489968, Control_c, 0, 93, 0
2, 489984, Note_off_c, 0, 70, 67
2, 489984, Note_on_c, 0, 41, 67
2, 490048, Note_off_c, 0, 41, 67
2, 490048, Note_on_c, 0, 44, 67
2, 490112, Note_off_c, 0, 44, 67
2, 490112, Control_c, 0, 64, 64
2, 490112, Note_on_c, 0, 50, 67
2, 490133, Note_off_c, 0, 50, 67
2, 490133, Note_on_c, 0, 53, 67
2, 490154, Note_off_c, 0, 53, 67
2, 490154, Note_on_c, 0, 58, 67
2, 490175, Note_off_c, 0, 58, 67
2, 490176, Control_c, 0, 93, 0
2, 490176, Note_on_c, 0, 62, 67
2, 490197, Note_off_c, 0, 62, 67
2, 490197, Note_on_c, 0, 65, 67
2, 490218, Note_off_c, 0, 65, 67
2, 490218, Note_on_c, 0, 70, 67
2, 490240, Control_c, 0, 93, 0
2, 490240, Control_c, 0, 64, 0
2, 490368, Note_off_c, 0, 70, 67
2, 490368, Note_on_c, 0, 51, 67
2, 490432, Note_off_c, 0, 51, 67
2, 490432, Note_on_c, 0, 46, 67
2, 490496, Note_off_c, 0, 46, 67
2, 490496, Note_on_c, 0, 39, 67
2, 490560, Note_off_c, 0, 39, 67
2, 490560, Note_on_c, 0, 46, 67
2, 490624, Note_off_c, 0, 46, 67
2, 490624, Note_on_c, 0, 51, 67
2, 490688, Note_off_c, 0, 51, 67
2, 490688, Note_on_c, 0, 53, 67
2, 490752, Note_off_c, 0, 53, 67
2, 490752, Note_on_c, 0, 55, 67
2, 490816, Note_off_c, 0, 55, 67
2, 490816, Note_on_c, 0, 51, 67
2, 490880, Note_off_c, 0, 51, 67
2, 490880, Note_on_c, 0, 58, 67
2, 490944, Note_off_c, 0, 58, 67
2, 490944, Note_on_c, 0, 63, 67
2, 490992, Control_c, 0, 93, 0
2, 491008, Note_off_c, 0, 63, 67
2, 491008, Note_on_c, 0, 44, 67
2, 491072, Note_off_c, 0, 44, 67
2, 491072, Note_on_c, 0, 51, 67
2, 491136, Note_off_c, 0, 51, 67
2, 491136, Note_on_c, 0, 56, 67
2, 491200, Note_off_c, 0, 56, 67
2, 491200, Note_on_c, 0, 58, 67
2, 491264, Note_off_c, 0, 58, 67
2, 491264, Note_on_c, 0, 60, 67
2, 491328, Note_off_c, 0, 60, 67
2, 491328, Note_on_c, 0, 56, 67
2, 491392, Note_off_c, 0, 56, 67
2, 491392, Note_on_c, 0, 63, 67
2, 491456, Note_off_c, 0, 63, 67
2, 491456, Note_on_c, 0, 68, 67
2, 491504, Control_c, 0, 93, 0
2, 491520, Note_off_c, 0, 68, 67
2, 491520, Note_on_c, 0, 46, 67
2, 491584, Note_off_c, 0, 46, 67
2, 491584, Note_on_c, 0, 53, 67
2, 491648, Note_off_c, 0, 53, 67
2, 491648, Note_on_c, 0, 58, 67
2, 491712, Note_off_c, 0, 58, 67
2, 491712, Note_on_c, 0, 60, 67
2, 491776, Note_off_c, 0, 60, 67
2, 491776, Note_on_c, 0, 62, 67
2, 491840, Note_off_c, 0, 62, 67
2, 491840, Note_on_c, 0, 58, 67
2, 491904, Note_off_c, 0, 58, 67
2, 491904, Note_on_c, 0, 65, 67
2, 491968, Note_off_c, 0, 65, 67
2, 491968, Note_on_c, 0, 70, 67
2, 492016, Control_c, 0, 93, 0
2, 492032, Note_off_c, 0, 70, 67
2, 492032, Note_on_c, 0, 39, 67
2, 492096, Note_off_c, 0, 39, 67
2, 492096, Note_on_c, 0, 46, 67
2, 492160, Note_off_c, 0, 46, 67
2, 492160, Note_on_c, 0, 51, 67
2, 492224, Note_off_c, 0, 51, 67
2, 492224, Control_c, 0, 64, 64
2, 492224, Note_on_c, 0, 55, 67
2, 492234, Note_off_c, 0, 55, 67
2, 492234, Note_on_c, 0, 58, 67
2, 492245, Note_off_c, 0, 58, 67
2, 492245, Note_on_c, 0, 63, 67
2, 492255, Note_off_c, 0, 63, 67
2, 492256, Control_c, 0, 93, 0
2, 492256, Note_on_c, 0, 67, 67
2, 492266, Note_off_c, 0, 67, 67
2, 492266, Note_on_c, 0, 70, 67
2, 492277, Note_off_c, 0, 70, 67
2, 492277, Note_on_c, 0, 75, 67
2, 492287, Note_off_c, 0, 75, 67
2, 492288, Control_c, 0, 93, 0
2, 492416, Control_c, 0, 93, 0
2, 492480, Control_c, 0, 93, 0
2, 492480, Control_c, 0, 64, 0
2, 492544, Control_c, 0, 93, 0
2, 492544, Note_on_c, 0, 51, 67
2, 492608, Note_off_c, 0, 51, 67
2, 492672, Note_off_c, 0, 51, 67
2, 492672, Note_on_c, 0, 63, 67
2, 492736, Note_off_c, 0, 63, 67
2, 492800, Note_off_c, 0, 63, 67
2, 492800, Note_on_c, 0, 50, 67
2, 492864, Note_off_c, 0, 50, 67
2, 492928, Note_off_c, 0, 50, 67
2, 492928, Note_on_c, 0, 62, 67
2, 492992, Note_off_c, 0, 62, 67
2, 493056, Note_off_c, 0, 62, 67
2, 493056, Note_on_c, 0, 48, 67
2, 493120, Note_off_c, 0, 48, 67
2, 493184, Note_off_c, 0, 48, 67
2, 493184, Note_on_c, 0, 60, 67
2, 493248, Note_off_c, 0, 60, 67
2, 493312, Note_off_c, 0, 60, 67
2, 493312, Note_on_c, 0, 46, 67
2, 493376, Note_off_c, 0, 46, 67
2, 493440, Note_off_c, 0, 46, 67
2, 493440, Note_on_c, 0, 58, 67
2, 493504, Note_off_c, 0, 58, 67
2, 493568, Note_off_c, 0, 58, 67
2, 493568, Note_on_c, 0, 51, 67
2, 493632, Note_off_c, 0, 51, 67
2, 493696, Note_off_c, 0, 51, 67
2, 493696, Note_on_c, 0, 63, 67
2, 493760, Note_off_c, 0, 63, 67
2, 493824, Note_off_c, 0, 63, 67
2, 493824, Note_on_c, 0, 46, 67
2, 493888, Note_off_c, 0, 46, 67
2, 493952, Note_off_c, 0, 46, 67
2, 493952, Note_on_c, 0, 58, 67
2, 494016, Note_off_c, 0, 58, 67
2, 494080, Note_off_c, 0, 58, 67
2, 494080, Note_on_c, 0, 48, 67
2, 494144, Note_off_c, 0, 48, 67
2, 494208, Note_off_c, 0, 48, 67
2, 494208, Note_on_c, 0, 60, 67
2, 494272, Note_off_c, 0, 60, 67
2, 494336, Note_off_c, 0, 60, 67
2, 494336, Note_on_c, 0, 46, 67
2, 494400, Note_off_c, 0, 46, 67
2, 494464, Note_off_c, 0, 46, 67
2, 494464, Note_on_c, 0, 58, 67
2, 494528, Note_off_c, 0, 58, 67
2, 494592, Note_off_c, 0, 58, 67
2, 494592, Note_on_c, 0, 50, 67
2, 494656, Note_off_c, 0, 50, 67
2, 494720, Note_off_c, 0, 50, 67
2, 494720, Note_on_c, 0, 62, 67
2, 494784, Note_off_c, 0, 62, 67
2, 494848, Note_off_c, 0, 62, 67
2, 494848, Note_on_c, 0, 46, 67
2, 494912, Note_off_c, 0, 46, 67
2, 494976, Note_off_c, 0, 46, 67
2, 494976, Note_on_c, 0, 58, 67
2, 495040, Note_off_c, 0, 58, 67
2, 495104, Note_off_c, 0, 58, 67
2, 495104, Note_on_c, 0, 48, 67
2, 495168, Note_off_c, 0, 48, 67
2, 495232, Note_off_c, 0, 48, 67
2, 495232, Note_on_c, 0, 60, 67
2, 495296, Note_off_c, 0, 60, 67
2, 495360, Note_off_c, 0, 60, 67
2, 495360, Note_on_c, 0, 49, 67
2, 495424, Note_off_c, 0, 49, 67
2, 495488, Note_off_c, 0, 49, 67
2, 495488, Note_on_c, 0, 61, 67
2, 495552, Note_off_c, 0, 61, 67
2, 495616, Note_off_c, 0, 61, 67
2, 495616, Note_on_c, 0, 50, 67
2, 495680, Note_off_c, 0, 50, 67
2, 495744, Note_off_c, 0, 50, 67
2, 495744, Note_on_c, 0, 62, 67
2, 495808, Note_off_c, 0, 62, 67
2, 495872, Note_off_c, 0, 62, 67
2, 495872, Note_on_c, 0, 46, 67
2, 495936, Note_off_c, 0, 46, 67
2, 496000, Note_off_c, 0, 46, 67
2, 496000, Note_on_c, 0, 58, 67
2, 496064, Note_off_c, 0, 58, 67
2, 496128, Note_off_c, 0, 58, 67
2, 496128, Note_on_c, 0, 51, 67
2, 496192, Note_off_c, 0, 51, 67
2, 496256, Note_off_c, 0, 51, 67
2, 496256, Note_on_c, 0, 63, 67
2, 496320, Note_off_c, 0, 63, 67
2, 496384, Note_off_c, 0, 63, 67
2, 496384, Note_on_c, 0, 46, 67
2, 496448, Note_off_c, 0, 46, 67
2, 496512, Note_off_c, 0, 46, 67
2, 496512, Note_on_c, 0, 58, 67
2, 496576, Note_off_c, 0, 58, 67
2, 496640, Note_off_c, 0, 58, 67
2, 496640, Note_on_c, 0, 51, 67
2, 496704, Note_off_c, 0, 51, 67
2, 496768, Note_off_c, 0, 51, 67
2, 496768, Note_on_c, 0, 63, 67
2, 496832, Note_off_c, 0, 63, 67
2, 496896, Note_off_c, 0, 63, 67
2, 496896, Note_on_c, 0, 50, 67
2, 496960, Note_off_c, 0, 50, 67
2, 497024, Note_off_c, 0, 50, 67
2, 497024, Note_on_c, 0, 62, 67
2, 497088, Note_off_c, 0, 62, 67
2, 497152, Note_off_c, 0, 62, 67
2, 497152, Note_on_c, 0, 48, 67
2, 497216, Note_off_c, 0, 48, 67
2, 497280, Note_off_c, 0, 48, 67
2, 497280, Note_on_c, 0, 60, 67
2, 497344, Note_off_c, 0, 60, 67
2, 497408, Note_off_c, 0, 60, 67
2, 497408, Note_on_c, 0, 46, 67
2, 497472, Note_off_c, 0, 46, 67
2, 497536, Note_off_c, 0, 46, 67
2, 497536, Note_on_c, 0, 58, 67
2, 497600, Note_off_c, 0, 58, 67
2, 497664, Note_off_c, 0, 58, 67
2, 497664, Note_on_c, 0, 51, 67
2, 497728, Note_off_c, 0, 51, 67
2, 497792, Note_off_c, 0, 51, 67
2, 497792, Note_on_c, 0, 63, 67
2, 497856, Note_off_c, 0, 63, 67
2, 497920, Note_off_c, 0, 63, 67
2, 497920, Note_on_c, 0, 46, 67
2, 497984, Note_off_c, 0, 46, 67
2, 498048, Note_off_c, 0, 46, 67
2, 498048, Note_on_c, 0, 58, 67
2, 498112, Note_off_c, 0, 58, 67
2, 498176, Note_off_c, 0, 58, 67
2, 498176, Note_on_c, 0, 48, 67
2, 498240, Note_off_c, 0, 48, 67
2, 498304, Note_off_c, 0, 48, 67
2, 498304, Note_on_c, 0, 60, 67
2, 498368, Note_off_c, 0, 60, 67
2, 498432, Note_off_c, 0, 60, 67
2, 498432, Note_on_c, 0, 46, 67
2, 498496, Note_off_c, 0, 46, 67
2, 498560, Note_off_c, 0, 46, 67
2, 498560, Note_on_c, 0, 58, 67
2, 498624, Note_off_c, 0, 58, 67
2, 498688, Note_off_c, 0, 58, 67
2, 498688, Note_on_c, 0, 50, 67
2, 498752, Note_off_c, 0, 50, 67
2, 498816, Note_off_c, 0, 50, 67
2, 498816, Note_on_c, 0, 62, 67
2, 498880, Note_off_c, 0, 62, 67
2, 498944, Note_off_c, 0, 62, 67
2, 498944, Note_on_c, 0, 48, 67
2, 499008, Note_off_c, 0, 48, 67
2, 499072, Note_off_c, 0, 48, 67
2, 499072, Note_on_c, 0, 60, 67
2, 499136, Note_off_c, 0, 60, 67
2, 499200, Note_off_c, 0, 60, 67
2, 499200, Note_on_c, 0, 46, 67
2, 499264, Note_off_c, 0, 46, 67
2, 499328, Note_off_c, 0, 46, 67
2, 499328, Note_on_c, 0, 58, 67
2, 499392, Note_off_c, 0, 58, 67
2, 499456, Note_off_c, 0, 58, 67
2, 499456, Note_on_c, 0, 48, 67
2, 499520, Note_off_c, 0, 48, 67
2, 499584, Note_off_c, 0, 48, 67
2, 499584, Note_on_c, 0, 60, 67
2, 499648, Note_off_c, 0, 60, 67
2, 499712, Note_off_c, 0, 60, 67
2, 499712, Note_on_c, 0, 50, 67
2, 499776, Note_off_c, 0, 50, 67
2, 499840, Note_off_c, 0, 50, 67
2, 499840, Note_on_c, 0, 62, 67
2, 499904, Note_off_c, 0, 62, 67
2, 499968, Note_off_c, 0, 62, 67
2, 499968, Note_on_c, 0, 46, 67
2, 500032, Note_off_c, 0, 46, 67
2, 500096, Note_off_c, 0, 46, 67
2, 500096, Note_on_c, 0, 58, 67
2, 500160, Note_off_c, 0, 58, 67
2, 500224, Note_off_c, 0, 58, 67
2, 500224, Note_on_c, 0, 51, 67
2, 500288, Note_off_c, 0, 51, 67
2, 500352, Note_off_c, 0, 51, 67
2, 500352, Note_on_c, 0, 63, 67
2, 500416, Note_off_c, 0, 63, 67
2, 500480, Note_off_c, 0, 63, 67
2, 500480, Note_on_c, 0, 46, 67
2, 500544, Note_off_c, 0, 46, 67
2, 500608, Note_off_c, 0, 46, 67
2, 500608, Note_on_c, 0, 58, 67
2, 500672, Note_off_c, 0, 58, 67
2, 500736, Note_off_c, 0, 58, 67
2, 500736, Note_on_c, 0, 39, 67
2, 500800, Note_off_c, 0, 39, 67
2, 500800, Note_on_c, 0, 46, 67
2, 500864, Note_off_c, 0, 46, 67
2, 500864, Note_on_c, 0, 51, 67
2, 500928, Note_off_c, 0, 51, 67
2, 500928, Note_on_c, 0, 53, 67
2, 500992, Note_off_c, 0, 53, 67
2, 500992, Note_on_c, 0, 55, 67
2, 501056, Note_off_c, 0, 55, 67
2, 501056, Note_on_c, 0, 51, 67
2, 501120, Note_off_c, 0, 51, 67
2, 501120, Note_on_c, 0, 58, 67
2, 501184, Note_off_c, 0, 58, 67
2, 501184, Note_on_c, 0, 63, 67
2, 501232, Control_c, 0, 93, 0
2, 501248, Note_off_c, 0, 63, 67
2, 501248, Note_on_c, 0, 44, 67
2, 501312, Note_off_c, 0, 44, 67
2, 501312, Note_on_c, 0, 51, 67
2, 501376, Note_off_c, 0, 51, 67
2, 501376, Note_on_c, 0, 56, 67
2, 501440, Note_off_c, 0, 56, 67
2, 501440, Note_on_c, 0, 58, 67
2, 501504, Note_off_c, 0, 58, 67
2, 501504, Note_on_c, 0, 60, 67
2, 501568, Note_off_c, 0, 60, 67
2, 501568, Note_on_c, 0, 56, 67
2, 501632, Note_off_c, 0, 56, 67
2, 501632, Note_on_c, 0, 63, 67
2, 501696, Note_off_c, 0, 63, 67
2, 501696, Note_on_c, 0, 68, 67
2, 501744, Control_c, 0, 93, 0
2, 501760, Note_off_c, 0, 68, 67
2, 501760, Note_on_c, 0, 46, 67
2, 501824, Note_off_c, 0, 46, 67
2, 501824, Note_on_c, 0, 53, 67
2, 501888, Note_off_c, 0, 53, 67
2, 501888, Note_on_c, 0, 58, 67
2, 501952, Note_off_c, 0, 58, 67
2, 501952, Note_on_c, 0, 60, 67
2, 502016, Note_off_c, 0, 60, 67
2, 502016, Note_on_c, 0, 62, 67
2, 502080, Note_off_c, 0, 62, 67
2, 502080, Note_on_c, 0, 58, 67
2, 502144, Note_off_c, 0, 58, 67
2, 502144, Note_on_c, 0, 65, 67
2, 502208, Note_off_c, 0, 65, 67
2, 502208, Note_on_c, 0, 70, 67
2, 502256, Control_c, 0, 93, 0
2, 502272, Note_off_c, 0, 70, 67
2, 502272, Note_on_c, 0, 41, 67
2, 502336, Note_off_c, 0, 41, 67
2, 502336, Note_on_c, 0, 44, 67
2, 502400, Note_off_c, 0, 44, 67
2, 502400, Control_c, 0, 64, 64
2, 502400, Note_on_c, 0, 50, 67
2, 502421, Note_off_c, 0, 50, 67
2, 502421, Note_on_c, 0, 53, 67
2, 502442, Note_off_c, 0, 53, 67
2, 502442, Note_on_c, 0, 58, 67
2, 502463, Note_off_c, 0, 58, 67
2, 502464, Control_c, 0, 93, 0
2, 502464, Note_on_c, 0, 62, 67
2, 502485, Note_off_c, 0, 62, 67
2, 502485, Note_on_c, 0, 65, 67
2, 502506, Note_off_c, 0, 65, 67
2, 502506, Note_on_c, 0, 70, 67
2, 502528, Control_c, 0, 93, 0
2, 502528, Control_c, 0, 64, 0
2, 502656, Note_off_c, 0, 70, 67
2, 502656, Note_on_c, 0, 51, 67
2, 502720, Note_off_c, 0, 51, 67
2, 502720, Note_on_c, 0, 46, 67
2, 502784, Note_off_c, 0, 46, 67
2, 502784, Note_on_c, 0, 39, 67
2, 502848, Note_off_c, 0, 39, 67
2, 502848, Note_on_c, 0, 46, 67
2, 502912, Note_off_c, 0, 46, 67
2, 502912, Note_on_c, 0, 51, 67
2, 502976, Note_off_c, 0, 51, 67
2, 502976, Note_on_c, 0, 53, 67
2, 503040, Note_off_c, 0, 53, 67
2, 503040, Note_on_c, 0, 55, 67
2, 503104, Note_off_c, 0, 55, 67
2, 503104, Note_on_c, 0, 51, 67
2, 503168, Note_off_c, 0, 51, 67
2, 503168, Note_on_c, 0, 58, 67
2, 503232, Note_off_c, 0, 58, 67
2, 503232, Note_on_c, 0, 63, 67
2, 503280, Control_c, 0, 93, 0
2, 503296, Note_off_c, 0, 63, 67
2, 503296, Note_on_c, 0, 44, 67
2, 503360, Note_off_c, 0, 44, 67
2, 503360, Note_on_c, 0, 51, 67
2, 503424, Note_off_c, 0, 51, 67
2, 503424, Note_on_c, 0, 56, 67
2, 503488, Note_off_c, 0, 56, 67
2, 503488, Note_on_c, 0, 58, 67
2, 503552, Note_off_c, 0, 58, 67
2, 503552, Note_on_c, 0, 60, 67
2, 503616, Note_off_c, 0, 60, 67
2, 503616, Note_on_c, 0, 56, 67
2, 503680, Note_off_c, 0, 56, 67
2, 503680, Note_on_c, 0, 63, 67
2, 503744, Note_off_c, 0, 63, 67
2, 503744, Note_on_c, 0, 68, 67
2, 503792, Control_c, 0, 93, 0
2, 503808, Note_off_c, 0, 68, 67
2, 503808, Note_on_c, 0, 46, 67
2, 503872, Note_off_c, 0, 46, 67
2, 503872, Note_on_c, 0, 53, 67
2, 503936, Note_off_c, 0, 53, 67
2, 503936, Note_on_c, 0, 58, 67
2, 504000, Note_off_c, 0, 58, 67
2, 504000, Note_on_c, 0, 60, 67
2, 504064, Note_off_c, 0, 60, 67
2, 504064, Note_on_c, 0, 62, 67
2, 504128, Note_off_c, 0, 62, 67
2, 504128, Note_on_c, 0, 58, 67
2, 504192, Note_off_c, 0, 58, 67
2, 504192, Note_on_c, 0, 65, 67
2, 504256, Note_off_c, 0, 65, 67
2, 504256, Note_on_c, 0, 70, 67
2, 504304, Control_c, 0, 93, 0
2, 504320, Note_off_c, 0, 70, 67
2, 504320, Note_on_c, 0, 39, 67
2, 504384, Note_off_c, 0, 39, 67
2, 504384, Note_on_c, 0, 46, 67
2, 504448, Note_off_c, 0, 46, 67
2, 504448, Note_on_c, 0, 51, 67
2, 504512, Note_off_c, 0, 51, 67
2, 504512, Control_c, 0, 64, 64
2, 504512, Note_on_c, 0, 55, 67
2, 504522, Note_off_c, 0, 55, 67
2, 504522, Note_on_c, 0, 58, 67
2, 504533, Note_off_c, 0, 58, 67
2, 504533, Note_on_c, 0, 63, 67
2, 504543, Note_off_c, 0, 63, 67
2, 504544, Control_c, 0, 93, 0
2, 504544, Note_on_c, 0, 67, 67
2, 504554, Note_off_c, 0, 67, 67
2, 504554, Note_on_c, 0, 70, 67
2, 504565, Note_off_c, 0, 70, 67
2, 504565, Note_on_c, 0, 75, 67
2, 504575, Note_off_c, 0, 75, 67
2, 504576, Control_c, 0, 93, 0
2, 504704, Control_c, 0, 93, 0
2, 504768, Control_c, 0, 93, 0
2, 504768, Control_c, 0, 64, 0
2, 504832, Control_c, 0, 93, 0
2, 504832, Note_on_c, 0, 51, 67
2, 504896, Note_off_c, 0, 51, 67
2, 504960, Note_off_c, 0, 51, 67
2, 504960, Note_on_c, 0, 63, 67
2, 505024, Note_off_c, 0, 63, 67
2, 505088, Note_off_c, 0, 63, 67
2, 505088, Note_on_c, 0, 50, 67
2, 505152, Note_off_c, 0, 50, 67
2, 505216, Note_off_c, 0, 50, 67
2, 505216, Note_on_c, 0, 62, 67
2, 505280, Note_off_c, 0, 62, 67
2, 505344, Note_off_c, 0, 62, 67
2, 505344, Note_on_c, 0, 48, 67
2, 505408, Note_off_c, 0, 48, 67
2, 505472, Note_off_c, 0, 48, 67
2, 505472, Note_on_c, 0, 60, 67
2, 505536, Note_off_c, 0, 60, 67
2, 505600, Note_off_c, 0, 60, 67
2, 505600, Note_on_c, 0, 46, 67
2, 505664, Note_off_c, 0, 46, 67
2, 505728, Note_off_c, 0, 46, 67
2, 505728, Note_on_c, 0, 58, 67
2, 505792, Note_off_c, 0, 58, 67
2, 505856, Note_off_c, 0, 58, 67
2, 505856, Note_on_c, 0, 51, 67
2, 505920, Note_off_c, 0, 51, 67
2, 505984, Note_off_c, 0, 51, 67
2, 505984, Note_on_c, 0, 63, 67
2, 506048, Note_off_c, 0, 63, 67
2, 506112, Note_off_c, 0, 63, 67
2, 506112, Note_on_c, 0, 46, 67
2, 506176, Note_off_c, 0, 46, 67
2, 506240, Note_off_c, 0, 46, 67
2, 506240, Note_on_c, 0, 58, 67
2, 506304, Note_off_c, 0, 58, 67
2, 506368, Note_off_c, 0, 58, 67
2, 506368, Note_on_c, 0, 48, 67
2, 506432, Note_off_c, 0, 48, 67
2, 506496, Note_off_c, 0, 48, 67
2, 506496, Note_on_c, 0, 60, 67
2, 506560, Note_off_c, 0, 60, 67
2, 506624, Note_off_c, 0, 60, 67
2, 506624, Note_on_c, 0, 46, 67
2, 506688, Note_off_c, 0, 46, 67
2, 506752, Note_off_c, 0, 46, 67
2, 506752, Note_on_c, 0, 58, 67
2, 506816, Note_off_c, 0, 58, 67
2, 506880, Note_off_c, 0, 58, 67
2, 506880, Note_on_c, 0, 50, 67
2, 506944, Note_off_c, 0, 50, 67
2, 507008, Note_off_c, 0, 50, 67
2, 507008, Note_on_c, 0, 62, 67
2, 507072, Note_off_c, 0, 62, 67
2, 507136, Note_off_c, 0, 62, 67
2, 507136, Note_on_c, 0, 46, 67
2, 507200, Note_off_c, 0, 46, 67
2, 507264, Note_off_c, 0, 46, 67
2, 507264, Note_on_c, 0, 58, 67
2, 507328, Note_off_c, 0, 58, 67
2, 507392, Note_off_c, 0, 58, 67
2, 507392, Note_on_c, 0, 48, 67
2, 507456, Note_off_c, 0, 48, 67
2, 507520, Note_off_c, 0, 48, 67
2, 507520, Note_on_c, 0, 60, 67
2, 507584, Note_off_c, 0, 60, 67
2, 507648, Note_off_c, 0, 60, 67
2, 507648, Note_on_c, 0, 49, 67
2, 507712, Note_off_c, 0, 49, 67
2, 507776, Note_off_c, 0, 49, 67
2, 507776, Note_on_c, 0, 61, 67
2, 507840, Note_off_c, 0, 61, 67
2, 507904, Note_off_c, 0, 61, 67
2, 507904, Note_on_c, 0, 50, 67
2, 507968, Note_off_c, 0, 50, 67
2, 508032, Note_off_c, 0, 50, 67
2, 508032, Note_on_c, 0, 62, 67
2, 508096, Note_off_c, 0, 62, 67
2, 508160, Note_off_c, 0, 62, 67
2, 508160, Note_on_c, 0, 46, 67
2, 508224, Note_off_c, 0, 46, 67
2, 508288, Note_off_c, 0, 46, 67
2, 508288, Note_on_c, 0, 58, 67
2, 508352, Note_off_c, 0, 58, 67
2, 508416, Note_off_c, 0, 58, 67
2, 508416, Note_on_c, 0, 51, 67
2, 508480, Note_off_c, 0, 51, 67
2, 508544, Note_off_c, 0, 51, 67
2, 508544, Note_on_c, 0, 63, 67
2, 508608, Note_off_c, 0, 63, 67
2, 508672, Note_off_c, 0, 63, 67
2, 508672, Note_on_c, 0, 46, 67
2, 508736, Note_off_c, 0, 46, 67
2, 508800, Note_off_c, 0, 46, 67
2, 508800, Note_on_c, 0, 58, 67
2, 508864, Note_off_c, 0, 58, 67
2, 508928, Note_off_c, 0, 58, 67
2, 508928, Note_on_c, 0, 51, 67
2, 508992, Note_off_c, 0, 51, 67
2, 509056, Note_off_c, 0, 51, 67
2, 509056, Note_on_c, 0, 63, 67
2, 509120, Note_off_c, 0, 63, 67
2, 509184, Note_off_c, 0, 63, 67
2, 509184, Note_on_c, 0, 50, 67
2, 509248, Note_off_c, 0, 50, 67
2, 509312, Note_off_c, 0, 50, 67
2, 509312, Note_on_c, 0, 62, 67
2, 509376, Note_off_c, 0, 62, 67
2, 509440, Note_off_c, 0, 62, 67
2, 509440, Note_on_c, 0, 48, 67
2, 509504, Note_off_c, 0, 48, 67
2, 509568, Note_off_c, 0, 48, 67
2, 509568, Note_on_c, 0, 60, 67
2, 509632, Note_off_c, 0, 60, 67
2, 509696, Note_off_c, 0, 60, 67
2, 509696, Note_on_c, 0, 46, 67
2, 509760, Note_off_c, 0, 46, 67
2, 509824, Note_off_c, 0, 46, 67
2, 509824, Note_on_c, 0, 58, 67
2, 509888, Note_off_c, 0, 58, 67
2, 509952, Note_off_c, 0, 58, 67
2, 509952, Note_on_c, 0, 51, 67
2, 510016, Note_off_c, 0, 51, 67
2, 510080, Note_off_c, 0, 51, 67
2, 510080, Note_on_c, 0, 63, 67
2, 510144, Note_off_c, 0, 63, 67
2, 510208, Note_off_c, 0, 63, 67
2, 510208, Note_on_c, 0, 46, 67
2, 510272, Note_off_c, 0, 46, 67
2, 510336, Note_off_c, 0, 46, 67
2, 510336, Note_on_c, 0, 58, 67
2, 510400, Note_off_c, 0, 58, 67
2, 510464, Note_off_c, 0, 58, 67
2, 510464, Note_on_c, 0, 48, 67
2, 510528, Note_off_c, 0, 48, 67
2, 510592, Note_off_c, 0, 48, 67
2, 510592, Note_on_c, 0, 60, 67
2, 510656, Note_off_c, 0, 60, 67
2, 510720, Note_off_c, 0, 60, 67
2, 510720, Note_on_c, 0, 46, 67
2, 510784, Note_off_c, 0, 46, 67
2, 510848, Note_off_c, 0, 46, 67
2, 510848, Note_on_c, 0, 58, 67
2, 510912, Note_off_c, 0, 58, 67
2, 510976, Note_off_c, 0, 58, 67
2, 510976, Note_on_c, 0, 50, 67
2, 511040, Note_off_c, 0, 50, 67
2, 511104, Note_off_c, 0, 50, 67
2, 511104, Note_on_c, 0, 62, 67
2, 511168, Note_off_c, 0, 62, 67
2, 511232, Note_off_c, 0, 62, 67
2, 511232, Note_on_c, 0, 48, 67
2, 511296, Note_off_c, 0, 48, 67
2, 511360, Note_off_c, 0, 48, 67
2, 511360, Note_on_c, 0, 60, 67
2, 511424, Note_off_c, 0, 60, 67
2, 511488, Note_off_c, 0, 60, 67
2, 511488, Note_on_c, 0, 46, 67
2, 511552, Note_off_c, 0, 46, 67
2, 511616, Note_off_c, 0, 46, 67
2, 511616, Note_on_c, 0, 58, 67
2, 511680, Note_off_c, 0, 58, 67
2, 511744, Note_off_c, 0, 58, 67
2, 511744, Note_on_c, 0, 48, 67
2, 511808, Note_off_c, 0, 48, 67
2, 511872, Note_off_c, 0, 48, 67
2, 511872, Note_on_c, 0, 60, 67
2, 511936, Note_off_c, 0, 60, 67
2, 512000, Note_off_c, 0, 60, 67
2, 512000, Note_on_c, 0, 50, 67
2, 512064, Note_off_c, 0, 50, 67
2, 512128, Note_off_c, 0, 50, 67
2, 512128, Note_on_c, 0, 62, 67
2, 512192, Note_off_c, 0, 62, 67
2, 512256, Note_off_c, 0, 62, 67
2, 512256, Note_on_c, 0, 46, 67
2, 512320, Note_off_c, 0, 46, 67
2, 512384, Note_off_c, 0, 46, 67
2, 512384, Note_on_c, 0, 58, 67
2, 512448, Note_off_c, 0, 58, 67
2, 512512, Note_off_c, 0, 58, 67
2, 512512, Note_on_c, 0, 51, 67
2, 512576, Note_off_c, 0, 51, 67
2, 512640, Note_off_c, 0, 51, 67
2, 512640, Note_on_c, 0, 63, 67
2, 512704, Note_off_c, 0, 63, 67
2, 512768, Note_off_c, 0, 63, 67
2, 512768, Note_on_c, 0, 46, 67
2, 512832, Note_off_c, 0, 46, 67
2, 512896, Note_off_c, 0, 46, 67
2, 512896, Note_on_c, 0, 58, 67
2, 512960, Note_off_c, 0, 58, 67
2, 513024, Note_off_c, 0, 58, 67
2, 513024, Note_on_c, 0, 39, 67
2, 513088, Note_off_c, 0, 39, 67
2, 513088, Note_on_c, 0, 46, 67
2, 513152, Note_off_c, 0, 46, 67
2, 513152, Note_on_c, 0, 51, 67
2, 513216, Note_off_c, 0, 51, 67
2, 513216, Note_on_c, 0, 53, 67
2, 513280, Note_off_c, 0, 53, 67
2, 513280, Note_on_c, 0, 55, 67
2, 513344, Note_off_c, 0, 55, 67
2, 513344, Note_on_c, 0, 51, 67
2, 513408, Note_off_c, 0, 51, 67
2, 513408, Note_on_c, 0, 58, 67
2, 513472, Note_off_c, 0, 58, 67
2, 513472, Note_on_c, 0, 63, 67
2, 513520, Control_c, 0, 93, 0
2, 513536, Note_off_c, 0, 63, 67
2, 513536, Note_on_c, 0, 44, 67
2, 513600, Note_off_c, 0, 44, 67
2, 513600, Note_on_c, 0, 51, 67
2, 513664, Note_off_c, 0, 51, 67
2, 513664, Note_on_c, 0, 56, 67
2, 513728, Note_off_c, 0, 56, 67
2, 513728, Note_on_c, 0, 58, 67
2, 513792, Note_off_c, 0, 58, 67
2, 513792, Note_on_c, 0, 60, 67
2, 513856, Note_off_c, 0, 60, 67
2, 513856, Note_on_c, 0, 56, 67
2, 513920, Note_off_c, 0, 56, 67
2, 513920, Note_on_c, 0, 63, 67
2, 513984, Note_off_c, 0, 63, 67
2, 513984, Note_on_c, 0, 68, 67
2, 514032, Control_c, 0, 93, 0
2, 514048, Note_off_c, 0, 68, 67
2, 514048, Note_on_c, 0, 46, 67
2, 514112, Note_off_c, 0, 46, 67
2, 514112, Note_on_c, 0, 53, 67
2, 514176, Note_off_c, 0, 53, 67
2, 514176, Note_on_c, 0, 58, 67
2, 514240, Note_off_c, 0, 58, 67
2, 514240, Note_on_c, 0, 60, 67
2, 514304, Note_off_c, 0, 60, 67
2, 514304, Note_on_c, 0, 62, 67
2, 514368, Note_off_c, 0, 62, 67
2, 514368, Note_on_c, 0, 58, 67
2, 514432, Note_off_c, 0, 58, 67
2, 514432, Note_on_c, 0, 65, 67
2, 514496, Note_off_c, 0, 65, 67
2, 514496, Note_on_c, 0, 70, 67
2, 514544, Control_c, 0, 93, 0
2, 514560, Note_off_c, 0, 70, 67
2, 514560, Note_on_c, 0, 41, 67
2, 514624, Note_off_c, 0, 41, 67
2, 514624, Note_on_c, 0, 44, 67
2, 514688, Note_off_c, 0, 44, 67
2, 514688, Control_c, 0, 64, 64
2, 514688, Note_on_c, 0, 50, 67
2, 514709, Note_off_c, 0, 50, 67
2, 514709, Note_on_c, 0, 53, 67
2, 514730, Note_off_c, 0, 53, 67
2, 514730, Note_on_c, 0, 58, 67
2, 514751, Note_off_c, 0, 58, 67
2, 514752, Control_c, 0, 93, 0
2, 514752, Note_on_c, 0, 62, 67
2, 514773, Note_off_c, 0, 62, 67
2, 514773, Note_on_c, 0, 65, 67
2, 514794, Note_off_c, 0, 65, 67
2, 514794, Note_on_c, 0, 70, 67
2, 514816, Control_c, 0, 93, 0
2, 514816, Control_c, 0, 64, 0
2, 514944, Note_off_c, 0, 70, 67
2, 514944, Note_on_c, 0, 51, 67
2, 515008, Note_off_c, 0, 51, 67
2, 515008, Note_on_c, 0, 46, 67
2, 515072, Note_off_c, 0, 46, 67
2, 515072, Note_on_c, 0, 39, 67
2, 515136, Note_off_c, 0, 39, 67
2, 515136, Note_on_c, 0, 46, 67
2, 515200, Note_off_c, 0, 46, 67
2, 515200, Note_on_c, 0, 51, 67
2, 515264, Note_off_c, 0, 51, 67
2, 515264, Note_on_c, 0, 53, 67
2, 515328, Note_off_c, 0, 53, 67
2, 515328, Note_on_c, 0, 55, 67
2, 515392, Note_off_c, 0, 55, 67
2, 515392, Note_on_c, 0, 51, 67
2, 515456, Note_off_c, 0, 51, 67
2, 515456, Note_on_c, 0, 58, 67
2, 515520, Note_off_c, 0, 58, 67
2, 515520, Note_on_c, 0, 63, 67
2, 515568, Control_c, 0, 93, 0
2, 515584, Note_off_c, 0, 63, 67
2, 515584, Note_on_c, 0, 44, 67
2, 515648, Note_off_c, 0, 44, 67
2, 515648, Note_on_c, 0, 51, 67
2, 515712, Note_off_c, 0, 51, 67
2, 515712, Note_on_c, 0, 56, 67
2, 515776, Note_off_c, 0, 56, 67
2, 515776, Note_on_c, 0, 58, 67
2, 515840, Note_off_c, 0, 58, 67
2, 515840, Note_on_c, 0, 60, 67
2, 515904, Note_off_c, 0, 60, 67
2, 515904, Note_on_c, 0, 56, 67
2, 515968, Note_off_c, 0, 56, 67
2, 515968, Note_on_c, 0, 63, 67
2, 516032, Note_off_c, 0, 63, 67
2, 516032, Note_on_c, 0, 68, 67
2, 516080, Control_c, 0, 93, 0
2, 516096, Note_off_c, 0, 68, 67
2, 516096, Note_on_c, 0, 46, 67
2, 516160, Note_off_c, 0, 46, 67
2, 516160, Note_on_c, 0, 53, 67
2, 516224, Note_off_c, 0, 53, 67
2, 516224, Note_on_c, 0, 58, 67
2, 516288, Note_off_c, 0, 58, 67
2, 516288, Note_on_c, 0, 60, 67
2, 516352, Note_off_c, 0, 60, 67
2, 516352, Note_on_c, 0, 62, 67
2, 516416, Note_off_c, 0, 62, 67
2, 516416, Note_on_c, 0, 58, 67
2, 516480, Note_off_c, 0, 58, 67
2, 516480, Note_on_c, 0, 65, 67
2, 516544, Note_off_c, 0, 65, 67
2, 516544, Note_on_c, 0, 70, 67
2, 516592, Control_c, 0, 93, 0
2, 516608, Note_off_c, 0, 70, 67
2, 516608, Note_on_c, 0, 39, 67
2, 516672, Note_off_c, 0, 39, 67
2, 516672, Note_on_c, 0, 46, 67
2, 516736, Note_off_c, 0, 46, 67
2, 516736, Note_on_c, 0, 51, 67
2, 516800, Note_off_c, 0, 51, 67
2, 516800, Control_c, 0, 64, 64
2, 516800, Note_on_c, 0, 55, 67
2, 516810, Note_off_c, 0, 55, 67
2, 516810, Note_on_c, 0, 58, 67
2, 516821, Note_off_c, 0, 58, 67
2, 516821, Note_on_c, 0, 63, 67
2, 516831, Note_off_c, 0, 63, 67
2, 516832, Control_c, 0, 93, 0
2, 516832, Note_on_c, 0, 67, 67
2, 516842, Note_off_c, 0, 67, 67
2, 516842, Note_on_c, 0, 70, 67
2, 516853, Note_off_c, 0, 70, 67
2, 516853, Note_on_c, 0, 75, 67
2, 516863, Note_off_c, 0, 75, 67
2, 516864, Control_c, 0, 93, 0
2, 516992, Control_c, 0, 93, 0
2, 517056, Control_c, 0, 93, 0
2, 517056, Control_c, 0, 64, 0
2, 517120, Control_c, 0, 93, 0
2, 517120, Note_on_c, 0, 51, 67
2, 517184, Note_off_c, 0, 51, 67
2, 517248, Note_off_c, 0, 51, 67
2, 517248, Note_on_c, 0, 63, 67
2, 517312, Note_off_c, 0, 63, 67
2, 517376, Note_off_c, 0, 63, 67
2, 517376, Note_on_c, 0, 50, 67
2, 517440, Note_off_c, 0, 50, 67
2, 517504, Note_off_c, 0, 50, 67
2, 517504, Note_on_c, 0, 62, 67
2, 517568, Note_off_c, 0, 62, 67
2, 517632, Note_off_c, 0, 62, 67
2, 517632, Note_on_c, 0, 48, 67
2, 517696, Note_off_c, 0, 48, 67
2, 517760, Note_off_c, 0, 48, 67
2, 517760, Note_on_c, 0, 60, 67
2, 517824, Note_off_c, 0, 60, 67
2, 517888, Note_off_c, 0, 60, 67
2, 517888, Note_on_c, 0, 46, 67
2, 517952, Note_off_c, 0, 46, 67
2, 518016, Note_off_c, 0, 46, 67
2, 518016, Note_on_c, 0, 58, 67
2, 518080, Note_off_c, 0, 58, 67
2, 518144, Note_off_c, 0, 58, 67
2, 518144, Note_on_c, 0, 51, 67
2, 518208, Note_off_c, 0, 51, 67
2, 518272, Note_off_c, 0, 51, 67
2, 518272, Note_on_c, 0, 63, 67
2, 518336, Note_off_c, 0, 63, 67
2, 518400, Note_off_c, 0, 63, 67
2, 518400, Note_on_c, 0, 46, 67
2, 518464, Note_off_c, 0, 46, 67
2, 518528, Note_off_c, 0, 46, 67
2, 518528, Note_on_c, 0, 58, 67
2, 518592, Note_off_c, 0, 58, 67
2, 518656, Note_off_c, 0, 58, 67
2, 518656, Note_on_c, 0, 48, 67
2, 518720, Note_off_c, 0, 48, 67
2, 518784, Note_off_c, 0, 48, 67
2, 518784, Note_on_c, 0, 60, 67
2, 518848, Note_off_c, 0, 60, 67
2, 518912, Note_off_c, 0, 60, 67
2, 518912, Note_on_c, 0, 46, 67
2, 518976, Note_off_c, 0, 46, 67
2, 519040, Note_off_c, 0, 46, 67
2, 519040, Note_on_c, 0, 58, 67
2, 519104, Note_off_c, 0, 58, 67
2, 519168, Note_off_c, 0, 58, 67
2, 519168, Note_on_c, 0, 50, 67
2, 519232, Note_off_c, 0, 50, 67
2, 519296, Note_off_c, 0, 50, 67
2, 519296, Note_on_c, 0, 62, 67
2, 519360, Note_off_c, 0, 62, 67
2, 519424, Note_off_c, 0, 62, 67
2, 519424, Note_on_c, 0, 46, 67
2, 519488, Note_off_c, 0, 46, 67
2, 519552, Note_off_c, 0, 46, 67
2, 519552, Note_on_c, 0, 58, 67
2, 519616, Note_off_c, 0, 58, 67
2, 519680, Note_off_c, 0, 58, 67
2, 519680, Note_on_c, 0, 48, 67
2, 519744, Note_off_c, 0, 48, 67
2, 519808, Note_off_c, 0, 48, 67
2, 519808, Note_on_c, 0, 60, 67
2, 519872, Note_off_c, 0, 60, 67
2, 519936, Note_off_c, 0, 60, 67
2, 519936, Note_on_c, 0, 49, 67
2, 520000, Note_off_c, 0, 49, 67
2, 520064, Note_off_c, 0, 49, 67
2, 520064, Note_on_c, 0, 61, 67
2, 520128, Note_off_c, 0, 61, 67
2, 520192, Note_off_c, 0, 61, 67
2, 520192, Note_on_c, 0, 50, 67
2, 520256, Note_off_c, 0, 50, 67
2, 520320, Note_off_c, 0, 50, 67
2, 520320, Note_on_c, 0, 62, 67
2, 520384, Note_off_c, 0, 62, 67
2, 520448, Note_off_c, 0, 62, 67
2, 520448, Note_on_c, 0, 46, 67
2, 520512, Note_off_c, 0, 46, 67
2, 520576, Note_off_c, 0, 46, 67
2, 520576, Note_on_c, 0, 58, 67
2, 520640, Note_off_c, 0, 58, 67
2, 520704, Note_off_c, 0, 58, 67
2, 520704, Note_on_c, 0, 51, 67
2, 520768, Note_off_c, 0, 51, 67
2, 520832, Note_off_c, 0, 51, 67
2, 520832, Note_on_c, 0, 63, 67
2, 520896, Note_off_c, 0, 63, 67
2, 520960, Note_off_c, 0, 63, 67
2, 520960, Note_on_c, 0, 46, 67
2, 521024, Note_off_c, 0, 46, 67
2, 521088, Note_off_c, 0, 46, 67
2, 521088, Note_on_c, 0, 58, 67
2, 521152, Note_off_c, 0, 58, 67
2, 521216, Note_off_c, 0, 58, 67
2, 521216, Note_on_c, 0, 51, 67
2, 521280, Note_off_c, 0, 51, 67
2, 521344, Note_off_c, 0, 51, 67
2, 521344, Note_on_c, 0, 63, 67
2, 521408, Note_off_c, 0, 63, 67
2, 521472, Note_off_c, 0, 63, 67
2, 521472, Note_on_c, 0, 50, 67
2, 521536, Note_off_c, 0, 50, 67
2, 521600, Note_off_c, 0, 50, 67
2, 521600, Note_on_c, 0, 62, 67
2, 521664, Note_off_c, 0, 62, 67
2, 521728, Note_off_c, 0, 62, 67
2, 521728, Note_on_c, 0, 48, 67
2, 521792, Note_off_c, 0, 48, 67
2, 521856, Note_off_c, 0, 48, 67
2, 521856, Note_on_c, 0, 60, 67
2, 521920, Note_off_c, 0, 60, 67
2, 521984, Note_off_c, 0, 60, 67
2, 521984, Note_on_c, 0, 46, 67
2, 522048, Note_off_c, 0, 46, 67
2, 522112, Note_off_c, 0, 46, 67
2, 522112, Note_on_c, 0, 58, 67
2, 522176, Note_off_c, 0, 58, 67
2, 522240, Note_off_c, 0, 58, 67
2, 522240, Note_on_c, 0, 51, 67
2, 522304, Note_off_c, 0, 51, 67
2, 522368, Note_off_c, 0, 51, 67
2, 522368, Note_on_c, 0, 63, 67
2, 522432, Note_off_c, 0, 63, 67
2, 522496, Note_off_c, 0, 63, 67
2, 522496, Note_on_c, 0, 46, 67
2, 522560, Note_off_c, 0, 46, 67
2, 522624, Note_off_c, 0, 46, 67
2, 522624, Note_on_c, 0, 58, 67
2, 522688, Note_off_c, 0, 58, 67
2, 522752, Note_off_c, 0, 58, 67
2, 522752, Note_on_c, 0, 48, 67
2, 522816, Note_off_c, 0, 48, 67
2, 522880, Note_off_c, 0, 48, 67
2, 522880, Note_on_c, 0, 60, 67
2, 522944, Note_off_c, 0, 60, 67
2, 523008, Note_off_c, 0, 60, 67
2, 523008, Note_on_c, 0, 46, 67
2, 523072, Note_off_c, 0, 46, 67
2, 523136, Note_off_c, 0, 46, 67
2, 523136, Note_on_c, 0, 58, 67
2, 523200, Note_off_c, 0, 58, 67
2, 523264, Note_off_c, 0, 58, 67
2, 523264, Note_on_c, 0, 50, 67
2, 523328, Note_off_c, 0, 50, 67
2, 523392, Note_off_c, 0, 50, 67
2, 523392, Note_on_c, 0, 62, 67
2, 523456, Note_off_c, 0, 62, 67
2, 523520, Note_off_c, 0, 62, 67
2, 523520, Note_on_c, 0, 48, 67
2, 523584, Note_off_c, 0, 48, 67
2, 523648, Note_off_c, 0, 48, 67
2, 523648, Note_on_c, 0, 60, 67
2, 523712, Note_off_c, 0, 60, 67
2, 523776, Note_off_c, 0, 60, 67
2, 523776, Note_on_c, 0, 46, 67
2, 523840, Note_off_c, 0, 46, 67
2, 523904, Note_off_c, 0, 46, 67
2, 523904, Note_on_c, 0, 58, 67
2, 523968, Note_off_c, 0, 58, 67
2, 524032, Note_off_c, 0, 58, 67
2, 524032, Note_on_c, 0, 48, 67
2, 524096, Note_off_c, 0, 48, 67
2, 524160, Note_off_c, 0, 48, 67
2, 524160, Note_on_c, 0, 60, 67
2, 524224, Note_off_c, 0, 60, 67
2, 524288, Note_off_c, 0, 60, 67
2, 524288, Note_on_c, 0, 50, 67
2, 524352, Note_off_c, 0, 50, 67
2, 524416, Note_off_c, 0, 50, 67
2, 524416, Note_on_c, 0, 62, 67
2, 524480, Note_off_c, 0, 62, 67
2, 524544, Note_off_c, 0, 62, 67
2, 524544, Note_on_c, 0, 46, 67
2, 524608, Note_off_c, 0, 46, 67
2, 524672, Note_off_c, 0, 46, 67
2, 524672, Note_on_c, 0, 58, 67
2, 524736, Note_off_c, 0, 58, 67
2, 524800, Note_off_c, 0, 58, 67
2, 524800, Note_on_c, 0, 51, 67
2, 524864, Note_off_c, 0, 51, 67
2, 524928, Note_off_c, 0, 51, 67
2, 524928, Note_on_c, 0, 63, 67
2, 524992, Note_off_c, 0, 63, 67
2, 525056, Note_off_c, 0, 63, 67
2, 525056, Note_on_c, 0, 46, 67
2, 525120, Note_off_c, 0, 46, 67
2, 525184, Note_off_c, 0, 46, 67
2, 525184, Note_on_c, 0, 58, 67
2, 525248, Note_off_c, 0, 58, 67
2, 525312, Note_off_c, 0, 58, 67
2, 525312, Note_on_c, 0, 39, 67
2, 525376, Note_off_c, 0, 39, 67
2, 525376, Note_on_c, 0, 46, 67
2, 525440, Note_off_c, 0, 46, 67
2, 525440, Note_on_c, 0, 51, 67
2, 525504, Note_off_c, 0, 51, 67
2, 525504, Note_on_c, 0, 53, 67
2, 525568, Note_off_c, 0, 53, 67
2, 525568, Note_on_c, 0, 55, 67
2, 525632, Note_off_c, 0, 55, 67
2, 525632, Note_on_c, 0, 51, 67
2, 525696, Note_off_c, 0, 51, 67
2, 525696, Note_on_c, 0, 58, 67
2, 525760, Note_off_c, 0, 58, 67
2, 525760, Note_on_c, 0, 63, 67
2, 525808, Control_c, 0, 93, 0
2, 525824, Note_off_c, 0, 63, 67
2, 525824, Note_on_c, 0, 44, 67
2, 525888, Note_off_c, 0, 44, 67
2, 525888, Note_on_c, 0, 51, 67
2, 525952, Note_off_c, 0, 51, 67
2, 525952, Note_on_c, 0, 56, 67
2, 526016, Note_off_c, 0, 56, 67
2, 526016, Note_on_c, 0, 58, 67
2, 526080, Note_off_c, 0, 58, 67
2, 526080, Note_on_c, 0, 60, 67
2, 526144, Note_off_c, 0, 60, 67
2, 526144, Note_on_c, 0, 56, 67
2, 526208, Note_off_c, 0, 56, 67
2, 526208, Note_on_c, 0, 63, 67
2, 526272, Note_off_c, 0, 63, 67
2, 526272, Note_on_c, 0, 68, 67
2, 526320, Control_c, 0, 93, 0
2, 526336, Note_off_c, 0, 68, 67
2, 526336, Note_on_c, 0, 46, 67
2, 526400, Note_off_c, 0, 46, 67
2, 526400, Note_on_c, 0, 53, 67
2, 526464, Note_off_c, 0, 53, 67
2, 526464, Note_on_c, 0, 58, 67
2, 526528, Note_off_c, 0, 58, 67
2, 526528, Note_on_c, 0, 60, 67
2, 526592, Note_off_c, 0, 60, 67
2, 526592, Note_on_c, 0, 62, 67
2, 526656, Note_off_c, 0, 62, 67
2, 526656, Note_on_c, 0, 58, 67
2, 526720, Note_off_c, 0, 58, 67
2, 526720, Note_on_c, 0, 65, 67
2, 526784, Note_off_c, 0, 65, 67
2, 526784, Note_on_c, 0, 70, 67
2, 526832, Control_c, 0, 93, 0
2, 526848, Note_off_c, 0, 70, 67
2, 526848, Note_on_c, 0, 41, 67
2, 526912, Note_off_c, 0, 41, 67
2, 526912, Note_on_c, 0, 44, 67
2, 526976, Note_off_c, 0, 44, 67
2, 526976, Control_c, 0, 64, 64
2, 526976, Note_on_c, 0, 50, 67
2, 526997, Note_off_c, 0, 50, 67
2, 526997, Note_on_c, 0, 53, 67
2, 527018, Note_off_c, 0, 53, 67
2, 527018, Note_on_c, 0, 58, 67
2, 527039, Note_off_c, 0, 58, 67
2, 527040, Control_c, 0, 93, 0
2, 527040, Note_on_c, 0, 62, 67
2, 527061, Note_off_c, 0, 62, 67
2, 527061, Note_on_c, 0, 65, 67
2, 527082, Note_off_c, 0, 65, 67
2, 527082, Note_on_c, 0, 70, 67
2, 527104, Control_c, 0, 93, 0
2, 527104, Control_c, 0, 64, 0
2, 527232, Note_off_c, 0, 70, 67
2, 527232, Note_on_c, 0, 51, 67
2, 527296, Note_off_c, 0, 51, 67
2, 527296, Note_on_c, 0, 46, 67
2, 527360, Note_off_c, 0, 46, 67
2, 527360, Note_on_c, 0, 39, 67
2, 527424, Note_off_c, 0, 39, 67
2, 527424, Note_on_c, 0, 46, 67
2, 527488, Note_off_c, 0, 46, 67
2, 527488, Note_on_c, 0, 51, 67
2, 527552, Note_off_c, 0, 51, 67
2, 527552, Note_on_c, 0, 53, 67
2, 527616, Note_off_c, 0, 53, 67
2, 527616, Note_on_c, 0, 55, 67
2, 527680, Note_off_c, 0, 55, 67
2, 527680, Note_on_c, 0, 51, 67
2, 527744, Note_off_c, 0, 51, 67
2, 527744, Note_on_c, 0, 58, 67
2, 527808, Note_off_c, 0, 58, 67
2, 527808, Note_on_c, 0, 63, 67
2, 527856, Control_c, 0, 93, 0
2, 527872, Note_off_c, 0, 63, 67
2, 527872, Note_on_c, 0, 44, 67
2, 527936, Note_off_c, 0, 44, 67
2, 527936, Note_on_c, 0, 51, 67
2, 528000, Note_off_c, 0, 51, 67
2, 528000, Note_on_c, 0, 56, 67
2, 528064, Note_off_c, 0, 56, 67
2, 528064, Note_on_c, 0, 58, 67
2, 528128, Note_off_c, 0, 58, 67
2, 528128, Note_on_c, 0, 60, 67
2, 528192, Note_off_c, 0, 60, 67
2, 528192, Note_on_c, 0, 56, 67
2, 528256, Note_off_c, 0, 56, 67
2, 528256, Note_on_c, 0, 63, 67
2, 528320, Note_off_c, 0, 63, 67
2, 528320, Note_on_c, 0, 68, 67
2, 528368, Control_c, 0, 93, 0
2, 528384, Note_off_c, 0, 68, 67
2, 528384, Note_on_c, 0, 46, 67
2, 528448, Note_off_c, 0, 46, 67
2, 528448, Note_on_c, 0, 53, 67
2, 528512, Note_off_c, 0, 53, 67
2, 528512, Note_on_c, 0, 58, 67
2, 528576, Note_off_c, 0, 58, 67
2, 528576, Note_on_c, 0, 60, 67
2, 528640, Note_off_c, 0, 60, 67
2, 528640, Note_on_c, 0, 62, 67
2, 528704, Note_off_c, 0, 62, 67
2, 528704, Note_on_c, 0, 58, 67
2, 528768, Note_off_c, 0, 58, 67
2, 528768, Note_on_c, 0, 65, 67
2, 528832, Note_off_c, 0, 65, 67
2, 528832, Note_on_c, 0, 70, 67
2, 528880, Control_c, 0, 93, 0
2, 528896, Note_off_c, 0, 70, 67
2, 528896, Note_on_c, 0, 39, 67
2, 528960, Note_off_c, 0, 39, 67
2, 528960, Note_on_c, 0, 46, 67
2, 529024, Note_off_c, 0, 46, 67
2, 529024, Note_on_c, 0, 51, 67
2, 529088, Note_off_c, 0, 51, 67
2, 529088, Control_c, 0, 64, 64
2, 529088, Note_on_c, 0, 55, 67
2, 529098, Note_off_c, 0, 55, 67
2, 529098, Note_on_c, 0, 58, 67
2, 529109, Note_off_c, 0, 58, 67
2, 529109, Note_on_c, 0, 63, 67
2, 529119, Note_off_c, 0, 63, 67
2, 529120, Control_c, 0, 93, 0
2, 529120, Note_on_c, 0, 67, 67
2, 529130, Note_off_c, 0, 67, 67
2, 529130, Note_on_c, 0, 70, 67
2, 529141, Note_off_c, 0, 70, 67
2, 529141, Note_on_c, 0, 75, 67
2, 529151, Note_off_c, 0, 75, 67
2, 529152, Control_c, 0, 93, 0
2, 529280, Control_c, 0, 93, 0
2, 529344, Control_c, 0, 93, 0
2, 529344, Control_c, 0, 64, 0
2, 529408, Control_c, 0, 93, 0
2, 529408, Note_on_c, 0, 51, 67
2, 529472, Note_off_c, 0, 51, 67
2, 529536, Note_off_c, 0, 51, 67
2, 529536, Note_on_c, 0, 63, 67
2, 529600, Note_off_c, 0, 63, 67
2, 529664, Note_off_c, 0, 63, 67
2, 529664, Note_on_c, 0, 50, 67
2, 529728, Note_off_c, 0, 50, 67
2, 529792, Note_off_c, 0, 50, 67
2, 529792, Note_on_c, 0, 62, 67
2, 529856, Note_off_c, 0, 62, 67
2, 529920, Note_off_c, 0, 62, 67
2, 529920, Note_on_c, 0, 48, 67
2, 529984, Note_off_c, 0, 48, 67
2, 530048, Note_off_c, 0, 48, 67
2, 530048, Note_on_c, 0, 60, 67
2, 530112, Note_off_c, 0, 60, 67
2, 530176, Note_off_c, 0, 60, 67
2, 530176, Note_on_c, 0, 46, 67
2, 530240, Note_off_c, 0, 46, 67
2, 530304, Note_off_c, 0, 46, 67
2, 530304, Note_on_c, 0, 58, 67
2, 530368, Note_off_c, 0, 58, 67
2, 530432, Note_off_c, 0, 58, 67
2, 530432, Note_on_c, 0, 51, 67
2, 530496, Note_off_c, 0, 51, 67
2, 530560, Note_off_c, 0, 51, 67
2, 530560, Note_on_c, 0, 63, 67
2, 530624, Note_off_c, 0, 63, 67
2, 530688, Note_off_c, 0, 63, 67
2, 530688, Note_on_c, 0, 46, 67
2, 530752, Note_off_c, 0, 46, 67
2, 530816, Note_off_c, 0, 46, 67
2, 530816, Note_on_c, 0, 58, 67
2, 530880, Note_off_c, 0, 58, 67
2, 530944, Note_off_c, 0, 58, 67
2, 530944, Note_on_c, 0, 48, 67
2, 531008, Note_off_c, 0, 48, 67
2, 531072, Note_off_c, 0, 48, 67
2, 531072, Note_on_c, 0, 60, 67
2, 531136, Note_off_c, 0, 60, 67
2, 531200, Note_off_c, 0, 60, 67
2, 531200, Note_on_c, 0, 46, 67
2, 531264, Note_off_c, 0, 46, 67
2, 531328, Note_off_c, 0, 46, 67
2, 531328, Note_on_c, 0, 58, 67
2, 531392, Note_off_c, 0, 58, 67
2, 531456, Note_off_c, 0, 58, 67
2, 531456, Note_on_c, 0, 50, 67
2, 531520, Note_off_c, 0, 50, 67
2, 531584, Note_off_c, 0, 50, 67
2, 531584, Note_on_c, 0, 62, 67
2, 531648, Note_off_c, 0, 62, 67
2, 531712, Note_off_c, 0, 62, 67
2, 531712, Note_on_c, 0, 46, 67
2, 531776, Note_off_c, 0, 46, 67
2, 531840, Note_off_c, 0, 46, 67
2, 531840, Note_on_c, 0, 58, 67
2, 531904, Note_off_c, 0, 58, 67
2, 531968, Note_off_c, 0, 58, 67
2, 531968, Note_on_c, 0, 48, 67
2, 532032, Note_off_c, 0, 48, 67
2, 532096, Note_off_c, 0, 48, 67
2, 532096, Note_on_c, 0, 60, 67
2, 532160, Note_off_c, 0, 60, 67
2, 532224, Note_off_c, 0, 60, 67
2, 532224, Note_on_c, 0, 49, 67
2, 532288, Note_off_c, 0, 49, 67
2, 532352, Note_off_c, 0, 49, 67
2, 532352, Note_on_c, 0, 61, 67
2, 532416, Note_off_c, 0, 61, 67
2, 532480, Note_off_c, 0, 61, 67
2, 532480, Note_on_c, 0, 50, 67
2, 532544, Note_off_c, 0, 50, 67
2, 532608, Note_off_c, 0, 50, 67
2, 532608, Note_on_c, 0, 62, 67
2, 532672, Note_off_c, 0, 62, 67
2, 532736, Note_off_c, 0, 62, 67
2, 532736, Note_on_c, 0, 46, 67
2, 532800, Note_off_c, 0, 46, 67
2, 532864, Note_off_c, 0, 46, 67
2, 532864, Note_on_c, 0, 58, 67
2, 532928, Note_off_c, 0, 58, 67
2, 532992, Note_off_c, 0, 58, 67
2, 532992, Note_on_c, 0, 51, 67
2, 533056, Note_off_c, 0, 51, 67
2, 533120, Note_off_c, 0, 51, 67
2, 533120, Note_on_c, 0, 63, 67
2, 533184, Note_off_c, 0, 63, 67
2, 533248, Note_off_c, 0, 63, 67
2, 533248, Note_on_c, 0, 46, 67
2, 533312, Note_off_c, 0, 46, 67
2, 533376, Note_off_c, 0, 46, 67
2, 533376, Note_on_c, 0, 58, 67
2, 533440, Note_off_c, 0, 58, 67
2, 533504, Note_off_c, 0, 58, 67
2, 533504, Note_on_c, 0, 51, 67
2, 533568, Note_off_c, 0, 51, 67
2, 533632, Note_off_c, 0, 51, 67
2, 533632, Note_on_c, 0, 63, 67
2, 533696, Note_off_c, 0, 63, 67
2, 533760, Note_off_c, 0, 63, 67
2, 533760, Note_on_c, 0, 50, 67
2, 533824, Note_off_c, 0, 50, 67
2, 533888, Note_off_c, 0, 50, 67
2, 533888, Note_on_c, 0, 62, 67
2, 533952, Note_off_c, 0, 62, 67
2, 534016, Note_off_c, 0, 62, 67
2, 534016, Note_on_c, 0, 48, 67
2, 534080, Note_off_c, 0, 48, 67
2, 534144, Note_off_c, 0, 48, 67
2, 534144, Note_on_c, 0, 60, 67
2, 534208, Note_off_c, 0, 60, 67
2, 534272, Note_off_c, 0, 60, 67
2, 534272, Note_on_c, 0, 46, 67
2, 534336, Note_off_c, 0, 46, 67
2, 534400, Note_off_c, 0, 46, 67
2, 534400, Note_on_c, 0, 58, 67
2, 534464, Note_off_c, 0, 58, 67
2, 534528, Note_off_c, 0, 58, 67
2, 534528, Note_on_c, 0, 51, 67
2, 534592, Note_off_c, 0, 51, 67
2, 534656, Note_off_c, 0, 51, 67
2, 534656, Note_on_c, 0, 63, 67
2, 534720, Note_off_c, 0, 63, 67
2, 534784, Note_off_c, 0, 63, 67
2, 534784, Note_on_c, 0, 46, 67
2, 534848, Note_off_c, 0, 46, 67
2, 534912, Note_off_c, 0, 46, 67
2, 534912, Note_on_c, 0, 58, 67
2, 534976, Note_off_c, 0, 58, 67
2, 535040, Note_off_c, 0, 58, 67
2, 535040, Note_on_c, 0, 48, 67
2, 535104, Note_off_c, 0, 48, 67
2, 535168, Note_off_c, 0, 48, 67
2, 535168, Note_on_c, 0, 60, 67
2, 535232, Note_off_c, 0, 60, 67
2, 535296, Note_off_c, 0, 60, 67
2, 535296, Note_on_c, 0, 46, 67
2, 535360, Note_off_c, 0, 46, 67
2, 535424, Note_off_c, 0, 46, 67
2, 535424, Note_on_c, 0, 58, 67
2, 535488, Note_off_c, 0, 58, 67
2, 535552, Note_off_c, 0, 58, 67
2, 535552, Note_on_c, 0, 50, 67
2, 535616, Note_off_c, 0, 50, 67
2, 535680, Note_off_c, 0, 50, 67
2, 535680, Note_on_c, 0, 62, 67
2, 535744, Note_off_c, 0, 62, 67
2, 535808, Note_off_c, 0, 62, 67
2, 535808, Note_on_c, 0, 48, 67
2, 535872, Note_off_c, 0, 48, 67
2, 535936, Note_off_c, 0, 48, 67
2, 535936, Note_on_c, 0, 60, 67
2, 536000, Note_off_c, 0, 60, 67
2, 536064, Note_off_c, 0, 60, 67
2, 536064, Note_on_c, 0, 46, 67
2, 536128, Note_off_c, 0, 46, 67
2, 536192, Note_off_c, 0, 46, 67
2, 536192, Note_on_c, 0, 58, 67
2, 536256, Note_off_c, 0, 58, 67
2, 536320, Note_off_c, 0, 58, 67
2, 536320, Note_on_c, 0, 48, 67
2, 536384, Note_off_c, 0, 48, 67
2, 536448, Note_off_c, 0, 48, 67
2, 536448, Note_on_c, 0, 60, 67
2, 536512, Note_off_c, 0, 60, 67
2, 536576, Note_off_c, 0, 60, 67
2, 536576, Note_on_c, 0, 50, 67
2, 536640, Note_off_c, 0, 50, 67
2, 536704, Note_off_c, 0, 50, 67
2, 536704, Note_on_c, 0, 62, 67
2, 536768, Note_off_c, 0, 62, 67
2, 536832, Note_off_c, 0, 62, 67
2, 536832, Note_on_c, 0, 46, 67
2, 536896, Note_off_c, 0, 46, 67
2, 536960, Note_off_c, 0, 46, 67
2, 536960, Note_on_c, 0, 58, 67
2, 537024, Note_off_c, 0, 58, 67
2, 537088, Note_off_c, 0, 58, 67
2, 537088, Note_on_c, 0, 51, 67
2, 537152, Note_off_c, 0, 51, 67
2, 537216, Note_off_c, 0, 51, 67
2, 537216, Note_on_c, 0, 63, 67
2, 537280, Note_off_c, 0, 63, 67
2, 537344, Note_off_c, 0, 63, 67
2, 537344, Note_on_c, 0, 46, 67
2, 537408, Note_off_c, 0, 46, 67
2, 537472, Note_off_c, 0, 46, 67
2, 537472, Note_on_c, 0, 58, 67
2, 537536, Note_off_c, 0, 58, 67
2, 537600, Note_off_c, 0, 58, 67
2, 537600, Note_on_c, 0, 39, 67
2, 537664, Note_off_c, 0, 39, 67
2, 537664, Note_on_c, 0, 46, 67
2, 537728, Note_off_c, 0, 46, 67
2, 537728, Note_on_c, 0, 51, 67
2, 537792, Note_off_c, 0, 51, 67
2, 537792, Note_on_c, 0, 53, 67
2, 537856, Note_off_c, 0, 53, 67
2, 537856, Note_on_c, 0, 55, 67
2, 537920, Note_off_c, 0, 55, 67
2, 537920, Note_on_c, 0, 51, 67
2, 537984, Note_off_c, 0, 51, 67
2, 537984, Note_on_c, 0, 58, 67
2, 538048, Note_off_c, 0, 58, 67
2, 538048, Note_on_c, 0, 63, 67
2, 538096, Control_c, 0, 93, 0
2, 538112, Note_off_c, 0, 63, 67
2, 538112, Note_on_c, 0, 44, 67
2, 538176, Note_off_c, 0, 44, 67
2, 538176, Note_on_c, 0, 51, 67
2, 538240, Note_off_c, 0, 51, 67
2, 538240, Note_on_c, 0, 56, 67
2, 538304, Note_off_c, 0, 56, 67
2, 538304, Note_on_c, 0, 58, 67
2, 538368, Note_off_c, 0, 58, 67
2, 538368, Note_on_c, 0, 60, 67
2, 538432, Note_off_c, 0, 60, 67
2, 538432, Note_on_c, 0, 56, 67
2, 538496, Note_off_c, 0, 56, 67
2, 538496, Note_on_c, 0, 63, 67
2, 538560, Note_off_c, 0, 63, 67
2, 538560, Note_on_c, 0, 68, 67
2, 538608, Control_c, 0, 93, 0
2, 538624, Note_off_c, 0, 68, 67
2, 538624, Note_on_c, 0, 46, 67
2, 538688, Note_off_c, 0, 46, 67
2, 538688, Note_on_c, 0, 53, 67
2, 538752, Note_off_c, 0, 53, 67
2, 538752, Note_on_c, 0, 58, 67
2, 538816, Note_off_c, 0, 58, 67
2, 538816, Note_on_c, 0, 60, 67
2, 538880, Note_off_c, 0, 60, 67
2, 538880, Note_on_c, 0, 62, 67
2, 538944, Note_off_c, 0, 62, 67
2, 538944, Note_on_c, 0, 58, 67
2, 539008, Note_off_c, 0, 58, 67
2, 539008, Note_on_c, 0, 65, 67
2, 539072, Note_off_c, 0, 65, 67
2, 539072, Note_on_c, 0, 70, 67
2, 539120, Control_c, 0, 93, 0
2, 539136, Note_off_c, 0, 70, 67
2, 539136, Note_on_c, 0, 41, 67
2, 539200, Note_off_c, 0, 41, 67
2, 539200, Note_on_c, 0, 44, 67
2, 539264, Note_off_c, 0, 44, 67
2, 539264, Control_c, 0, 64, 64
2, 539264, Note_on_c, 0, 50, 67
2, 539285, Note_off_c, 0, 50, 67
2, 539285, Note_on_c, 0, 53, 67
2, 539306, Note_off_c, 0, 53, 67
2, 539306, Note_on_c, 0, 58, 67
2, 539327, Note_off_c, 0, 58, 67
2, 539328, Control_c, 0, 93, 0
2, 539328, Note_on_c, 0, 62, 67
2, 539349, Note_off_c, 0, 62, 67
2, 539349, Note_on_c, 0, 65, 67
2, 539370, Note_off_c, 0, 65, 67
2, 539370, Note_on_c, 0, 70, 67
2, 539392, Control_c, 0, 93, 0
2, 539392, Control_c, 0, 64, 0
2, 539520, Note_off_c, 0, 70, 67
2, 539520, Note_on_c, 0, 51, 67
2, 539584, Note_off_c, 0, 51, 67
2, 539584, Note_on_c, 0, 46, 67
2, 539648, Note_off_c, 0, 46, 67
2, 539648, Note_on_c, 0, 39, 67
2, 539712, Note_off_c, 0, 39, 67
2, 539712, Note_on_c, 0, 46, 67
2, 539776, Note_off_c, 0, 46, 67
2, 539776, Note_on_c, 0, 51, 67
2, 539840, Note_off_c, 0, 51, 67
2, 539840, Note_on_c, 0, 53, 67
2, 539904, Note_off_c, 0, 53, 67
2, 539904, Note_on_c, 0, 55, 67
2, 539968, Note_off_c, 0, 55, 67
2, 539968, Note_on_c, 0, 51, 67
2, 540032, Note_off_c, 0, 51, 67
2, 540032, Note_on_c, 0, 58, 67
2, 540096, Note_off_c, 0, 58, 67
2, 540096, Note_on_c, 0, 63, 67
2, 540144, Control_c, 0, 93, 0
2, 540160, Note_off_c, 0, 63, 67
2, 540160, Note_on_c, 0, 44, 67
2, 540224, Note_off_c, 0, 44, 67
2, 540224, Note_on_c, 0, 51, 67
2, 540288, Note_off_c, 0, 51, 67
2, 540288, Note_on_c, 0, 56, 67
2, 540352, Note_off_c, 0, 56, 67
2, 540352, Note_on_c, 0, 58, 67
2, 540416, Note_off_c, 0, 58, 67
2, 540416, Note_on_c, 0, 60, 67
2, 540480, Note_off_c, 0, 60, 67
2, 540480, Note_on_c, 0, 56, 67
2, 540544, Note_off_c, 0, 56, 67
2, 540544, Note_on_c, 0, 63, 67
2, 540608, Note_off_c, 0, 63, 67
2, 540608, Note_on_c, 0, 68, 67
2, 540656, Control_c, 0, 93, 0
2, 540672, Note_off_c, 0, 68, 67
2, 540672, Note_on_c, 0, 46, 67
2, 540736, Note_off_c, 0, 46, 67
2, 540736, Note_on_c, 0, 53, 67
2, 540800, Note_off_c, 0, 53, 67
2, 540800, Note_on_c, 0, 58, 67
2, 540864, Note_off_c, 0, 58, 67
2, 540864, Note_on_c, 0, 60, 67
2, 540928, Note_off_c, 0, 60, 67
2, 540928, Note_on_c, 0, 62, 67
2, 540992, Note_off_c, 0, 62, 67
2, 540992, Note_on_c, 0, 58, 67
2, 541056, Note_off_c, 0, 58, 67
2, 541056, Note_on_c, 0, 65, 67
2, 541120, Note_off_c, 0, 65, 67
2, 541120, Note_on_c, 0, 70, 67
2, 541168, Control_c, 0, 93, 0
2, 541184, Note_off_c, 0, 70, 67
2, 541184, Note_on_c, 0, 39, 67
2, 541248, Note_off_c, 0, 39, 67
2, 541248, Note_on_c, 0, 46, 67
2, 541312, Note_off_c, 0, 46, 67
2, 541312, Note_on_c, 0, 51, 67
2, 541376, Note_off_c, 0, 51, 67
2, 541376, Control_c, 0, 64, 64
2, 541376, Note_on_c, 0, 55, 67
2, 541386, Note_off_c, 0, 55, 67
2, 541386, Note_on_c, 0, 58, 67
2, 541397, Note_off_c, 0, 58, 67
2, 541397, Note_on_c, 0, 63, 67
2, 541407, Note_off_c, 0, 63, 67
2, 541408, Control_c, 0, 93, 0
2, 541408, Note_on_c, 0, 67, 67
2, 541418, Note_off_c, 0, 67, 67
2, 541418, Note_on_c, 0, 70, 67
2, 541429, Note_off_c, 0, 70, 67
2, 541429, Note_on_c, 0, 75, 67
2, 541439, Note_off_c, 0, 75, 67
2, 541440, Control_c, 0, 93, 0
2, 541568, Control_c, 0, 93, 0
2, 541632, Control_c, 0, 93, 0
2, 541632, Control_c, 0, 64, 0
2, 541696, Control_c, 0, 93, 0
2, 541696, Note_on_c, 0, 51, 67
2, 541760, Note_off_c, 0, 51, 67
2, 541824, Note_off_c, 0, 51, 67
2, 541824, Note_on_c, 0, 63, 67
2, 541888, Note_off_c, 0, 63, 67
2, 541952, Note_off_c, 0, 63, 67
2, 541952, Note_on_c, 0, 50, 67
2, 542016, Note_off_c, 0, 50, 67
2, 542080, Note_off_c, 0, 50, 67
2, 542080, Note_on_c, 0, 62, 67
2, 542144, Note_off_c, 0, 62, 67
2, 542208, Note_off_c, 0, 62, 67
2, 542208, Note_on_c, 0, 48, 67
2, 542272, Note_off_c, 0, 48, 67
2, 542336, Note_off_c, 0, 48, 67
2, 542336, Note_on_c, 0, 60, 67
2, 542400, Note_off_c, 0, 60, 67
2, 542464, Note_off_c, 0, 60, 67
2, 542464, Note_on_c, 0, 46, 67
2, 542528, Note_off_c, 0, 46, 67
2, 542592, Note_off_c, 0, 46, 67
2, 542592, Note_on_c, 0, 58, 67
2, 542656, Note_off_c, 0, 58, 67
2, 542720, Note_off_c, 0, 58, 67
2, 542720, Note_on_c, 0, 51, 67
2, 542784, Note_off_c, 0, 51, 67
2, 542848, Note_off_c, 0, 51, 67
2, 542848, Note_on_c, 0, 63, 67
2, 542912, Note_off_c, 0, 63, 67
2, 542976, Note_off_c, 0, 63, 67
2, 542976, Note_on_c, 0, 46, 67
2, 543040, Note_off_c, 0, 46, 67
2, 543104, Note_off_c, 0, 46, 67
2, 543104, Note_on_c, 0, 58, 67
2, 543168, Note_off_c, 0, 58, 67
2, 543232, Note_off_c, 0, 58, 67
2, 543232, Note_on_c, 0, 48, 67
2, 543296, Note_off_c, 0, 48, 67
2, 543360, Note_off_c, 0, 48, 67
2, 543360, Note_on_c, 0, 60, 67
2, 543424, Note_off_c, 0, 60, 67
2, 543488, Note_off_c, 0, 60, 67
2, 543488, Note_on_c, 0, 46, 67
2, 543552, Note_off_c, 0, 46, 67
2, 543616, Note_off_c, 0, 46, 67
2, 543616, Note_on_c, 0, 58, 67
2, 543680, Note_off_c, 0, 58, 67
2, 543744, Note_off_c, 0, 58, 67
2, 543744, Note_on_c, 0, 50, 67
2, 543808, Note_off_c, 0, 50, 67
2, 543872, Note_off_c, 0, 50, 67
2, 543872, Note_on_c, 0, 62, 67
2, 543936, Note_off_c, 0, 62, 67
2, 544000, Note_off_c, 0, 62, 67
2, 544000, Note_on_c, 0, 46, 67
2, 544064, Note_off_c, 0, 46, 67
2, 544128, Note_off_c, 0, 46, 67
2, 544128, Note_on_c, 0, 58, 67
2, 544192, Note_off_c, 0, 58, 67
2, 544256, Note_off_c, 0, 58, 67
2, 544256, Note_on_c, 0, 48, 67
2, 544320, Note_off_c, 0, 48, 67
2, 544384, Note_off_c, 0, 48, 67
2, 544384, Note_on_c, 0, 60, 67
2, 544448, Note_off_c, 0, 60, 67
2, 544512, Note_off_c, 0, 60, 67
2, 544512, Note_on_c, 0, 49, 67
2, 544576, Note_off_c, 0, 49, 67
2, 544640, Note_off_c, 0, 49, 67
2, 544640, Note_on_c, 0, 61, 67
2, 544704, Note_off_c, 0, 61, 67
2, 544768, Note_off_c, 0, 61, 67
2, 544768, Note_on_c, 0, 50, 67
2, 544832, Note_off_c, 0, 50, 67
2, 544896, Note_off_c, 0, 50, 67
2, 544896, Note_on_c, 0, 62, 67
2, 544960, Note_off_c, 0, 62, 67
2, 545024, Note_off_c, 0, 62, 67
2, 545024, Note_on_c, 0, 46, 67
2, 545088, Note_off_c, 0, 46, 67
2, 545152, Note_off_c, 0, 46, 67
2, 545152, Note_on_c, 0, 58, 67
2, 545216, Note_off_c, 0, 58, 67
2, 545280, Note_off_c, 0, 58, 67
2, 545280, Note_on_c, 0, 51, 67
2, 545344, Note_off_c, 0, 51, 67
2, 545408, Note_off_c, 0, 51, 67
2, 545408, Note_on_c, 0, 63, 67
2, 545472, Note_off_c, 0, 63, 67
2, 545536, Note_off_c, 0, 63, 67
2, 545536, Note_on_c, 0, 46, 67
2, 545600, Note_off_c, 0, 46, 67
2, 545664, Note_off_c, 0, 46, 67
2, 545664, Note_on_c, 0, 58, 67
2, 545728, Note_off_c, 0, 58, 67
2, 545792, Note_off_c, 0, 58, 67
2, 545792, Note_on_c, 0, 51, 67
2, 545856, Note_off_c, 0, 51, 67
2, 545920, Note_off_c, 0, 51, 67
2, 545920, Note_on_c, 0, 63, 67
2, 545984, Note_off_c, 0, 63, 67
2, 546048, Note_off_c, 0, 63, 67
2, 546048, Note_on_c, 0, 50, 67
2, 546112, Note_off_c, 0, 50, 67
2, 546176, Note_off_c, 0, 50, 67
2, 546176, Note_on_c, 0, 62, 67
2, 546240, Note_off_c, 0, 62, 67
2, 546304, Note_off_c, 0, 62, 67
2, 546304, Note_on_c, 0, 48, 67
2, 546368, Note_off_c, 0, 48, 67
2, 546432, Note_off_c, 0, 48, 67
2, 546432, Note_on_c, 0, 60, 67
2, 546496, Note_off_c, 0, 60, 67
2, 546560, Note_off_c, 0, 60, 67
2, 546560, Note_on_c, 0, 46, 67
2, 546624, Note_off_c, 0, 46, 67
2, 546688, Note_off_c, 0, 46, 67
2, 546688, Note_on_c, 0, 58, 67
2, 546752, Note_off_c, 0, 58, 67
2, 546816, Note_off_c, 0, 58, 67
2, 546816, Note_on_c, 0, 51, 67
2, 546880, Note_off_c, 0, 51, 67
2, 546944, Note_off_c, 0, 51, 67
2, 546944, Note_on_c, 0, 63, 67
2, 547008, Note_off_c, 0, 63, 67
2, 547072, Note_off_c, 0, 63, 67
2, 547072, Note_on_c, 0, 46, 67
2, 547136, Note_off_c, 0, 46, 67
2, 547200, Note_off_c, 0, 46, 67
2, 547200, Note_on_c, 0, 58, 67
2, 547264, Note_off_c, 0, 58, 67
2, 547328, Note_off_c, 0, 58, 67
2, 547328, Note_on_c, 0, 48, 67
2, 547392, Note_off_c, 0, 48, 67
2, 547456, Note_off_c, 0, 48, 67
2, 547456, Note_on_c, 0, 60, 67
2, 547520, Note_off_c, 0, 60, 67
2, 547584, Note_off_c, 0, 60, 67
2, 547584, Note_on_c, 0, 46, 67
2, 547648, Note_off_c, 0, 46, 67
2, 547712, Note_off_c, 0, 46, 67
2, 547712, Note_on_c, 0, 58, 67
2, 547776, Note_off_c, 0, 58, 67
2, 547840, Note_off_c, 0, 58, 67
2, 547840, Note_on_c, 0, 50, 67
2, 547904, Note_off_c, 0, 50, 67
2, 547968, Note_off_c, 0, 50, 67
2, 547968, Note_on_c, 0, 62, 67
2, 548032, Note_off_c, 0, 62, 67
2, 548096, Note_off_c, 0, 62, 67
2, 548096, Note_on_c, 0, 48, 67
2, 548160, Note_off_c, 0, 48, 67
2, 548224, Note_off_c, 0, 48, 67
2, 548224, Note_on_c, 0, 60, 67
2, 548288, Note_off_c, 0, 60, 67
2, 548352, Note_off_c, 0, 60, 67
2, 548352, Note_on_c, 0, 46, 67
2, 548416, Note_off_c, 0, 46, 67
2, 548480, Note_off_c, 0, 46, 67
2, 548480, Note_on_c, 0, 58, 67
2, 548544, Note_off_c, 0, 58, 67
2, 548608, Note_off_c, 0, 58, 67
2, 548608, Note_on_c, 0, 48, 67
2, 548672, Note_off_c, 0, 48, 67
2, 548736, Note_off_c, 0, 48, 67
2, 548736, Note_on_c, 0, 60, 67
2, 548800, Note_off_c, 0, 60, 67
2, 548864, Note_off_c, 0, 60, 67
2, 548864, Note_on_c, 0, 50, 67
2, 548928, Note_off_c, 0, 50, 67
2, 548992, Note_off_c, 0, 50, 67
2, 548992, Note_on_c, 0, 62, 67
2, 549056, Note_off_c, 0, 62, 67
2, 549120, Note_off_c, 0, 62, 67
2, 549120, Note_on_c, 0, 46, 67
2, 549184, Note_off_c, 0, 46, 67
2, 549248, Note_off_c, 0, 46, 67
2, 549248, Note_on_c, 0, 58, 67
2, 549312, Note_off_c, 0, 58, 67
2, 549376, Note_off_c, 0, 58, 67
2, 549376, Note_on_c, 0, 51, 67
2, 549440, Note_off_c, 0, 51, 67
2, 549504, Note_off_c, 0, 51, 67
2, 549504, Note_on_c, 0, 63, 67
2, 549568, Note_off_c, 0, 63, 67
2, 549632, Note_off_c, 0, 63, 67
2, 549632, Note_on_c, 0, 46, 67
2, 549696, Note_off_c, 0, 46, 67
2, 549760, Note_off_c, 0, 46, 67
2, 549760, Note_on_c, 0, 58, 67
2, 549824, Note_off_c, 0, 58, 67
2, 549888, Note_off_c, 0, 58, 67
2, 549888, Note_on_c, 0, 39, 67
2, 549952, Note_off_c, 0, 39, 67
2, 549952, Note_on_c, 0, 46, 67
2, 550016, Note_off_c, 0, 46, 67
2, 550016, Note_on_c, 0, 51, 67
2, 550080, Note_off_c, 0, 51, 67
2, 550080, Note_on_c, 0, 53, 67
2, 550144, Note_off_c, 0, 53, 67
2, 550144, Note_on_c, 0, 55, 67
2, 550208, Note_off_c, 0, 55, 67
2, 550208, Note_on_c, 0, 51, 67
2, 550272, Note_off_c, 0, 51, 67
2, 550272, Note_on_c, 0, 58, 67
2, 550336, Note_off_c, 0, 58, 67
2, 550336, Note_on_c, 0, 63, 67
2, 550384, Control_c, 0, 93, 0
2, 550400, Note_off_c, 0, 63, 67
2, 550400, Note_on_c, 0, 44, 67
2, 550464, Note_off_c, 0, 44, 67
2, 550464, Note_on_c, 0, 51, 67
2, 550528, Note_off_c, 0, 51, 67
2, 550528, Note_on_c, 0, 56, 67
2, 550592, Note_off_c, 0, 56, 67
2, 550592, Note_on_c, 0, 58, 67
2, 550656, Note_off_c, 0, 58, 67
2, 550656, Note_on_c, 0, 60, 67
2, 550720, Note_off_c, 0, 60, 67
2, 550720, Note_on_c, 0, 56, 67
2, 550784, Note_off_c, 0, 56, 67
2, 550784, Note_on_c, 0, 63, 67
2, 550848, Note_off_c, 0, 63, 67
2, 550848, Note_on_c, 0, 68, 67
2, 550896, Control_c, 0, 93, 0
2, 550912, Note_off_c, 0, 68, 67
2, 550912, Note_on_c, 0, 46, 67
2, 550976, Note_off_c, 0, 46, 67
2, 550976, Note_on_c, 0, 53, 67
2, 551040, Note_off_c, 0, 53, 67
2, 551040, Note_on_c, 0, 58, 67
2, 551104, Note_off_c, 0, 58, 67
2, 551104, Note_on_c, 0, 60, 67
2, 551168, Note_off_c, 0, 60, 67
2, 551168, Note_on_c, 0, 62, 67
2, 551232, Note_off_c, 0, 62, 67
2, 551232, Note_on_c, 0, 58, 67
2, 551296, Note_off_c, 0, 58, 67
2, 551296, Note_on_c, 0, 65, 67
2, 551360, Note_off_c, 0, 65, 67
2, 551360, Note_on_c, 0, 70, 67
2, 551408, Control_c, 0, 93, 0
2, 551424, Note_off_c, 0, 70, 67
2, 551424, Note_on_c, 0, 41, 67
2, 551488, Note_off_c, 0, 41, 67
2, 551488, Note_on_c, 0, 44, 67
2, 551552, Note_off_c, 0, 44, 67
2, 551552, Control_c, 0, 64, 64
2, 551552, Note_on_c, 0, 50, 67
2, 551573, Note_off_c, 0, 50, 67
2, 551573, Note_on_c, 0, 53, 67
2, 551594, Note_off_c, 0, 53, 67
2, 551594, Note_on_c, 0, 58, 67
2, 551615, Note_off_c, 0, 58, 67
2, 551616, Control_c, 0, 93, 0
2, 551616, Note_on_c, 0, 62, 67
2, 551637, Note_off_c, 0, 62, 67
2, 551637, Note_on_c, 0, 65, 67
2, 551658, Note_off_c, 0, 65, 67
2, 551658, Note_on_c, 0, 70, 67
2, 551680, Control_c, 0, 93, 0
2, 551680, Control_c, 0, 64, 0
2, 551808, Note_off_c, 0, 70, 67
2, 551808, Note_on_c, 0, 51, 67
2, 551872, Note_off_c, 0, 51, 67
2, 551872, Note_on_c, 0, 46, 67
2, 551936, Note_off_c, 0, 46, 67
2, 551936, Note_on_c, 0, 39, 67
2, 552000, Note_off_c, 0, 39, 67
2, 552000, Note_on_c, 0, 46, 67
2, 552064, Note_off_c, 0, 46, 67
2, 552064, Note_on_c, 0, 51, 67
2, 552128, Note_off_c, 0, 51, 67
2, 552128, Note_on_c, 0, 53, 67
2, 552192, Note_off_c, 0, 53, 67
2, 552192, Note_on_c, 0, 55, 67
2, 552256, Note_off_c, 0, 55, 67
2, 552256, Note_on_c, 0, 51, 67
2, 552320, Note_off_c, 0, 51, 67
2, 552320, Note_on_c, 0, 58, 67
2, 552384, Note_off_c, 0, 58, 67
2, 552384, Note_on_c, 0, 63, 67
2, 552432, Control_c, 0, 93, 0
2, 552448, Note_off_c, 0, 63, 67
2, 552448, Note_on_c, 0, 44, 67
2, 552512, Note_off_c, 0, 44, 67
2, 552512, Note_on_c, 0, 51, 67
2, 552576, Note_off_c, 0, 51, 67
2, 552576, Note_on_c, 0, 56, 67
2, 552640, Note_off_c, 0, 56, 67
2, 552640, Note_on_c, 0, 58, 67
2, 552704, Note_off_c, 0, 58, 67
2, 552704, Note_on_c, 0, 60, 67
2, 552768, Note_off_c, 0, 60, 67
2, 552768, Note_on_c, 0, 56, 67
2, 552832, Note_off_c, 0, 56, 67
2, 552832, Note_on_c, 0, 63, 67
2, 552896, Note_off_c, 0, 63, 67
2, 552896, Note_on_c, 0, 68, 67
2, 552944, Control_c, 0, 93, 0
2, 552960, Note_off_c, 0, 68, 67
2, 552960, Note_on_c, 0, 46, 67
2, 553024, Note_off_c, 0, 46, 67
2, 553024, Note_on_c, 0, 53, 67
2, 553088, Note_off_c, 0, 53, 67
2, 553088, Note_on_c, 0, 58, 67
2, 553152, Note_off_c, 0, 58, 67
2, 553152, Note_on_c, 0, 60, 67
2, 553216, Note_off_c, 0, 60, 67
2, 553216, Note_on_c, 0, 62, 67
2, 553280, Note_off_c, 0, 62, 67
2, 553280, Note_on_c, 0, 58, 67
2, 553344, Note_off_c, 0, 58, 67
2, 553344, Note_on_c, 0, 65, 67
2, 553408, Note_off_c, 0, 65, 67
2, 553408, Note_on_c, 0, 70, 67
2, 553456, Control_c, 0, 93, 0
2, 553472, Note_off_c, 0, 70, 67
2, 553472, Note_on_c, 0, 39, 67
2, 553536, Note_off_c, 0, 39, 67
2, 553536, Note_on_c, 0, 46, 67
2, 553600, Note_off_c, 0, 46, 67
2, 553600, Note_on_c, 0, 51, 67
2, 553664, Note_off_c, 0, 51, 67
2, 553664, Control_c, 0, 64, 64
2, 553664, Note_on_c, 0, 55, 67
2, 553674, Note_off_c, 0, 55, 67
2, 553674, Note_on_c, 0, 58, 67
2, 553685, Note_off_c, 0, 58, 67
2, 553685, Note_on_c, 0, 63, 67
2, 553695, Note_off_c, 0, 63, 67
2, 553696, Control_c, 0, 93, 0
2, 553696, Note_on_c, 0, 67, 67
2, 553706, Note_off_c, 0, 67, 67
2, 553706, Note_on_c, 0, 70, 67
2, 553717, Note_off_c, 0, 70, 67
2, 553717, Note_on_c, 0, 75, 67
2, 553727, Note_off_c, 0, 75, 67
2, 553728, Control_c, 0, 93, 0
2, 553856, Control_c, 0, 93, 0
2, 553920, Control_c, 0, 93, 0
2, 553920, Control_c, 0, 64, 0
2, 553984, Control_c, 0, 93, 0
2, 553984, Note_on_c, 0, 51, 67
2, 554048, Note_off_c, 0, 51, 67
2, 554112, Note_off_c, 0, 51, 67
2, 554112, Note_on_c, 0, 63, 67
2, 554176, Note_off_c, 0, 63, 67
2, 554240, Note_off_c, 0, 63, 67
2, 554240, Note_on_c, 0, 50, 67
2, 554304, Note_off_c, 0, 50, 67
2, 554368, Note_off_c, 0, 50, 67
2, 554368, Note_on_c, 0, 62, 67
2, 554432, Note_off_c, 0, 62, 67
2, 554496, Note_off_c, 0, 62, 67
2, 554496, Note_on_c, 0, 48, 67
2, 554560, Note_off_c, 0, 48, 67
2, 554624, Note_off_c, 0, 48, 67
2, 554624, Note_on_c, 0, 60, 67
2, 554688, Note_off_c, 0, 60, 67
2, 554752, Note_off_c, 0, 60, 67
2, 554752, Note_on_c, 0, 46, 67
2, 554816, Note_off_c, 0, 46, 67
2, 554880, Note_off_c, 0, 46, 67
2, 554880, Note_on_c, 0, 58, 67
2, 554944, Note_off_c, 0, 58, 67
2, 555008, Note_off_c, 0, 58, 67
2, 555008, Note_on_c, 0, 51, 67
2, 555072, Note_off_c, 0, 51, 67
2, 555136, Note_off_c, 0, 51, 67
2, 555136, Note_on_c, 0, 63, 67
2, 555200, Note_off_c, 0, 63, 67
2, 555264, Note_off_c, 0, 63, 67
2, 555264, Note_on_c, 0, 46, 67
2, 555328, Note_off_c, 0, 46, 67
2, 555392, Note_off_c, 0, 46, 67
2, 555392, Note_on_c, 0, 58, 67
2, 555456, Note_off_c, 0, 58, 67
2, 555520, Note_off_c, 0, 58, 67
2, 555520, Note_on_c, 0, 48, 67
2, 555584, Note_off_c, 0, 48, 67
2, 555648, Note_off_c, 0, 48, 67
2, 555648, Note_on_c, 0, 60, 67
2, 555712, Note_off_c, 0, 60, 67
2, 555776, Note_off_c, 0, 60, 67
2, 555776, Note_on_c, 0, 46, 67
2, 555840, Note_off_c, 0, 46, 67
2, 555904, Note_off_c, 0, 46, 67
2, 555904, Note_on_c, 0, 58, 67
2, 555968, Note_off_c, 0, 58, 67
2, 556032, Note_off_c, 0, 58, 67
2, 556032, Note_on_c, 0, 50, 67
2, 556096, Note_off_c, 0, 50, 67
2, 556160, Note_off_c, 0, 50, 67
2, 556160, Note_on_c, 0, 62, 67
2, 556224, Note_off_c, 0, 62, 67
2, 556288, Note_off_c, 0, 62, 67
2, 556288, Note_on_c, 0, 46, 67
2, 556352, Note_off_c, 0, 46, 67
2, 556416, Note_off_c, 0, 46, 67
2, 556416, Note_on_c, 0, 58, 67
2, 556480, Note_off_c, 0, 58, 67
2, 556544, Note_off_c, 0, 58, 67
2, 556544, Note_on_c, 0, 48, 67
2, 556608, Note_off_c, 0, 48, 67
2, 556672, Note_off_c, 0, 48, 67
2, 556672, Note_on_c, 0, 60, 67
2, 556736, Note_off_c, 0, 60, 67
2, 556800, Note_off_c, 0, 60, 67
2, 556800, Note_on_c, 0, 49, 67
2, 556864, Note_off_c, 0, 49, 67
2, 556928, Note_off_c, 0, 49, 67
2, 556928, Note_on_c, 0, 61, 67
2, 556992, Note_off_c, 0, 61, 67
2, 557056, Note_off_c, 0, 61, 67
2, 557056, Note_on_c, 0, 50, 67
2, 557120, Note_off_c, 0, 50, 67
2, 557184, Note_off_c, 0, 50, 67
2, 557184, Note_on_c, 0, 62, 67
2, 557248, Note_off_c, 0, 62, 67
2, 557312, Note_off_c, 0, 62, 67
2, 557312, Note_on_c, 0, 46, 67
2, 557376, Note_off_c, 0, 46, 67
2, 557440, Note_off_c, 0, 46, 67
2, 557440, Note_on_c, 0, 58, 67
2, 557504, Note_off_c, 0, 58, 67
2, 557568, Note_off_c, 0, 58, 67
2, 557568, Note_on_c, 0, 51, 67
2, 557632, Note_off_c, 0, 51, 67
2, 557696, Note_off_c, 0, 51, 67
2, 557696, Note_on_c, 0, 63, 67
2, 557760, Note_off_c, 0, 63, 67
2, 557824, Note_off_c, 0, 63, 67
2, 557824, Note_on_c, 0, 46, 67
2, 557888, Note_off_c, 0, 46, 67
2, 557952, Note_off_c, 0, 46, 67
2, 557952, Note_on_c, 0, 58, 67
2, 558016, Note_off_c, 0, 58, 67
2, 558080, Note_off_c, 0, 58, 67
2, 558080, Note_on_c, 0, 51, 67
2, 558144, Note_off_c, 0, 51, 67
2, 558208, Note_off_c, 0, 51, 67
2, 558208, Note_on_c, 0, 63, 67
2, 558272, Note_off_c, 0, 63, 67
2, 558336, Note_off_c, 0, 63, 67
2, 558336, Note_on_c, 0, 50, 67
2, 558400, Note_off_c, 0, 50, 67
2, 558464, Note_off_c, 0, 50, 67
2, 558464, Note_on_c, 0, 62, 67
2, 558528, Note_off_c, 0, 62, 67
2, 558592, Note_off_c, 0, 62, 67
2, 558592, Note_on_c, 0, 48, 67
2, 558656, Note_off_c, 0, 48, 67
2, 558720, Note_off_c, 0, 48, 67
2, 558720, Note_on_c, 0, 60, 67
2, 558784, Note_off_c, 0, 60, 67
2, 558848, Note_off_c, 0, 60, 67
2, 558848, Note_on_c, 0, 46, 67
2, 558912, Note_off_c, 0, 46, 67
2, 558976, Note_off_c, 0, 46, 67
2, 558976, Note_on_c, 0, 58, 67
2, 559040, Note_off_c, 0, 58, 67
2, 559104, Note_off_c, 0, 58, 67
2, 559104, Note_on_c, 0, 51, 67
2, 559168, Note_off_c, 0, 51, 67
2, 559232, Note_off_c, 0, 51, 67
2, 559232, Note_on_c, 0, 63, 67
2, 559296, Note_off_c, 0, 63, 67
2, 559360, Note_off_c, 0, 63, 67
2, 559360, Note_on_c, 0, 46, 67
2, 559424, Note_off_c, 0, 46, 67
2, 559488, Note_off_c, 0, 46, 67
2, 559488, Note_on_c, 0, 58, 67
2, 559552, Note_off_c, 0, 58, 67
2, 559616, Note_off_c, 0, 58, 67
2, 559616, Note_on_c, 0, 48, 67
2, 559680, Note_off_c, 0, 48, 67
2, 559744, Note_off_c, 0, 48, 67
2, 559744, Note_on_c, 0, 60, 67
2, 559808, Note_off_c, 0, 60, 67
2, 559872, Note_off_c, 0, 60, 67
2, 559872, Note_on_c, 0, 46, 67
2, 559936, Note_off_c, 0, 46, 67
2, 560000, Note_off_c, 0, 46, 67
2, 560000, Note_on_c, 0, 58, 67
2, 560064, Note_off_c, 0, 58, 67
2, 560128, Note_off_c, 0, 58, 67
2, 560128, Note_on_c, 0, 50, 67
2, 560192, Note_off_c, 0, 50, 67
2, 560256, Note_off_c, 0, 50, 67
2, 560256, Note_on_c, 0, 62, 67
2, 560320, Note_off_c, 0, 62, 67
2, 560384, Note_off_c, 0, 62, 67
2, 560384, Note_on_c, 0, 48, 67
2, 560448, Note_off_c, 0, 48, 67
2, 560512, Note_off_c, 0, 48, 67
2, 560512, Note_on_c, 0, 60, 67
2, 560576, Note_off_c, 0, 60, 67
2, 560640, Note_off_c, 0, 60, 67
2, 560640, Note_on_c, 0, 46, 67
2, 560704, Note_off_c, 0, 46, 67
2, 560768, Note_off_c, 0, 46, 67
2, 560768, Note_on_c, 0, 58, 67
2, 560832, Note_off_c, 0, 58, 67
2, 560896, Note_off_c, 0, 58, 67
2, 560896, Note_on_c, 0, 48, 67
2, 560960, Note_off_c, 0, 48, 67
2, 561024, Note_off_c, 0, 48, 67
2, 561024, Note_on_c, 0, 60, 67
2, 561088, Note_off_c, 0, 60, 67
2, 561152, Note_off_c, 0, 60, 67
2, 561152, Note_on_c, 0, 50, 67
2, 561216, Note_off_c, 0, 50, 67
2, 561280, Note_off_c, 0, 50, 67
2, 561280, Note_on_c, 0, 62, 67
2, 561344, Note_off_c, 0, 62, 67
2, 561408, Note_off_c, 0, 62, 67
2, 561408, Note_on_c, 0, 46, 67
2, 561472, Note_off_c, 0, 46, 67
2, 561536, Note_off_c, 0, 46, 67
2, 561536, Note_on_c, 0, 58, 67
2, 561600, Note_off_c, 0, 58, 67
2, 561664, Note_off_c, 0, 58, 67
2, 561664, Note_on_c, 0, 51, 67
2, 561728, Note_off_c, 0, 51, 67
2, 561792, Note_off_c, 0, 51, 67
2, 561792, Note_on_c, 0, 63, 67
2, 561856, Note_off_c, 0, 63, 67
2, 561920, Note_off_c, 0, 63, 67
2, 561920, Note_on_c, 0, 46, 67
2, 561984, Note_off_c, 0, 46, 67
2, 562048, Note_off_c, 0, 46, 67
2, 562048, Note_on_c, 0, 58, 67
2, 562112, Note_off_c, 0, 58, 67
2, 562176, Note_off_c, 0, 58, 67
2, 562176, Note_on_c, 0, 39, 67
2, 562240, Note_off_c, 0, 39, 67
2, 562240, Note_on_c, 0, 46, 67
2, 562304, Note_off_c, 0, 46, 67
2, 562304, Note_on_c, 0, 51, 67
2, 562368, Note_off_c, 0, 51, 67
2, 562368, Note_on_c, 0, 53, 67
2, 562432, Note_off_c, 0, 53, 67
2, 562432, Note_on_c, 0, 55, 67
2, 562496, Note_off_c, 0, 55, 67
2, 562496, Note_on_c, 0, 51, 67
2, 562560, Note_off_c, 0, 51, 67
2, 562560, Note_on_c, 0, 58, 67
2, 562624, Note_off_c, 0, 58, 67
2, 562624, Note_on_c, 0, 63, 67
2, 562672, Control_c, 0, 93, 0
2, 562688, Note_off_c, 0, 63, 67
2, 562688, Note_on_c, 0, 44, 67
2, 562752, Note_off_c, 0, 44, 67
2, 562752, Note_on_c, 0, 51, 67
2, 562816, Note_off_c, 0, 51, 67
2, 562816, Note_on_c, 0, 56, 67
2, 562880, Note_off_c, 0, 56, 67
2, 562880, Note_on_c, 0, 58, 67
2, 562944, Note_off_c, 0, 58, 67
2, 562944, Note_on_c, 0, 60, 67
2, 563008, Note_off_c, 0, 60, 67
2, 563008, Note_on_c, 0, 56, 67
2, 563072, Note_off_c, 0, 56, 67
2, 563072, Note_on_c, 0, 63, 67
2, 563136, Note_off_c, 0, 63, 67
2, 563136, Note_on_c, 0, 68, 67
2, 563184, Control_c, 0, 93, 0
2, 563200, Note_off_c, 0, 68, 67
2, 563200, Note_on_c, 0, 46, 67
2, 563264, Note_off_c, 0, 46, 67
2, 563264, Note_on_c, 0, 53, 67
2, 563328, Note_off_c, 0, 53, 67
2, 563328, Note_on_c, 0, 58, 67
2, 563392, Note_off_c, 0, 58, 67
2, 563392, Note_on_c, 0, 60, 67
2, 563456, Note_off_c, 0, 60, 67
2, 563456, Note_on_c, 0, 62, 67
2, 563520, Note_off_c, 0, 62, 67
2, 563520, Note_on_c, 0, 58, 67
2, 563584, Note_off_c, 0, 58, 67
2, 563584, Note_on_c, 0, 65, 67
2, 563648, Note_off_c, 0, 65, 67
2, 563648, Note_on_c, 0, 70, 67
2, 563696, Control_c, 0, 93, 0
2, 563712, Note_off_c, 0, 70, 67
2, 563712, Note_on_c, 0, 41, 67
2, 563776, Note_off_c, 0, 41, 67
2, 563776, Note_on_c, 0, 44, 67
2, 563840, Note_off_c, 0, 44, 67
2, 563840, Control_c, 0, 64, 64
2, 563840, Note_on_c, 0, 50, 67
2, 563861, Note_off_c, 0, 50, 67
2, 563861, Note_on_c, 0, 53, 67
2, 563882, Note_off_c, 0, 53, 67
2, 563882, Note_on_c, 0, 58, 67
2, 563903, Note_off_c, 0, 58, 67
2, 563904, Control_c, 0, 93, 0
2, 563904, Note_on_c, 0, 62, 67
2, 563925, Note_off_c, 0, 62, 67
2, 563925, Note_on_c, 0, 65, 67
2, 563946, Note_off_c, 0, 65, 67
2, 563946, Note_on_c, 0, 70, 67
2, 563968, Control_c, 0, 93, 0
2, 563968, Control_c, 0, 64, 0
2, 564096, Note_off_c, 0, 70, 67
2, 564096, Note_on_c, 0, 51, 67
2, 564160, Note_off_c, 0, 51, 67
2, 564160, Note_on_c, 0, 46, 67
2, 564224, Note_off_c, 0, 46, 67
2, 564224, Note_on_c, 0, 39, 67
2, 564288, Note_off_c, 0, 39, 67
2, 564288, Note_on_c, 0, 46, 67
2, 564352, Note_off_c, 0, 46, 67
2, 564352, Note_on_c, 0, 51, 67
2, 564416, Note_off_c, 0, 51, 67
2, 564416, Note_on_c, 0, 53, 67
2, 564480, Note_off_c, 0, 53, 67
2, 564480, Note_on_c, 0, 55, 67
2, 564544, Note_off_c, 0, 55, 67
2, 564544, Note_on_c, 0, 51, 67
2, 564608, Note_off_c, 0, 51, 67
2, 564608, Note_on_c, 0, 58, 67
2, 564672, Note_off_c, 0, 58, 67
2, 564672, Note_on_c, 0, 63, 67
2, 564720, Control_c, 0, 93, 0
2, 564736, Note_off_c, 0, 63, 67
2, 564736, Note_on_c, 0, 44, 67
2, 564800, Note_off_c, 0, 44, 67
2, 564800, Note_on_c, 0, 51, 67
2, 564864, Note_off_c, 0, 51, 67
2, 564864, Note_on_c, 0, 56, 67
2, 564928, Note_off_c, 0, 56, 67
2, 564928, Note_on_c, 0, 58, 67
2, 564992, Note_off_c, 0, 58, 67
2, 564992, Note_on_c, 0, 60, 67
2, 565056, Note_off_c, 0, 60, 67
2, 565056, Note_on_c, 0, 56, 67
2, 565120, Note_off_c, 0, 56, 67
2, 565120, Note_on_c, 0, 63, 67
2, 565184, Note_off_c, 0, 63, 67
2, 565184, Note_on_c, 0, 68, 67
2, 565232, Control_c, 0, 93, 0
2, 565248, Note_off_c, 0, 68, 67
2, 565248, Note_on_c, 0, 46, 67
2, 565312, Note_off_c, 0, 46, 67
2, 565312, Note_on_c, 0, 53, 67
2, 565376, Note_off_c, 0, 53, 67
2, 565376, Note_on_c, 0, 58, 67
2, 565440, Note_off_c, 0, 58, 67
2, 565440, Note_on_c, 0, 60, 67
2, 565504, Note_off_c, 0, 60, 67
2, 565504, Note_on_c, 0, 62, 67
2, 565568, Note_off_c, 0, 62, 67
2, 565568, Note_on_c, 0, 58, 67
2, 565632, Note_off_c, 0, 58, 67
2, 565632, Note_on_c, 0, 65, 67
2, 565696, Note_off_c, 0, 65, 67
2, 565696, Note_on_c, 0, 70, 67
2, 565744, Control_c, 0, 93, 0
2, 565760, Note_off_c, 0, 70, 67
2, 565760, Note_on_c, 0, 39, 67
2, 565824, Note_off_c, 0, 39, 67
2, 565824, Note_on_c, 0, 46, 67
2, 565888, Note_off_c, 0, 46, 67
2, 565888, Note_on_c, 0, 51, 67
2, 565952, Note_off_c, 0, 51, 67
2, 565952, Control_c, 0, 64, 64
2, 565952, Note_on_c, 0, 55, 67
2, 565962, Note_off_c, 0, 55, 67
2, 565962, Note_on_c, 0, 58, 67
2, 565973, Note_off_c, 0, 58, 67
2, 565973, Note_on_c, 0, 63, 67
2, 565983, Note_off_c, 0, 63, 67
2, 565984, Control_c, 0, 93, 0
2, 565984, Note_on_c, 0, 67, 67
2, 565994, Note_off_c, 0, 67, 67
2, 565994, Note_on_c, 0, 70, 67
2, 566005, Note_off_c, 0, 70, 67
2, 566005, Note_on_c, 0, 75, 67
2, 566015, Note_off_c, 0, 75, 67
2, 566016, Control_c, 0, 93, 0
2, 566144, Control_c, 0, 93, 0
2, 566208, Control_c, 0, 93, 0
2, 566208, Control_c, 0, 64, 0
2, 566272, Control_c, 0, 93, 0
2, 566272, Note_on_c, 0, 51, 67
2, 566336, Note_off_c, 0, 51, 67
2, 566400, Note_off_c, 0, 51, 67
2, 566400, Note_on_c, 0, 63, 67
2, 566464, Note_off_c, 0, 63, 67
2, 566528, Note_off_c, 0, 63, 67
2, 566528, Note_on_c, 0, 50, 67
2, 566592, Note_off_c, 0, 50, 67
2, 566656, Note_off_c, 0, 50, 67
2, 566656, Note_on_c, 0, 62, 67
2, 566720, Note_off_c, 0, 62, 67
2, 566784, Note_off_c, 0, 62, 67
2, 566784, Note_on_c, 0, 48, 67
2, 566848, Note_off_c, 0, 48, 67
2, 566912, Note_off_c, 0, 48, 67
2, 566912, Note_on_c, 0, 60, 67
2, 566976, Note_off_c, 0, 60, 67
2, 567040, Note_off_c, 0, 60, 67
2, 567040, Note_on_c, 0, 46, 67
2, 567104, Note_off_c, 0, 46, 67
2, 567168, Note_off_c, 0, 46, 67
2, 567168, Note_on_c, 0, 58, 67
2, 567232, Note_off_c, 0, 58, 67
2, 567296, Note_off_c, 0, 58, 67
2, 567296, Note_on_c, 0, 51, 67
2, 567360, Note_off_c, 0, 51, 67
2, 567424, Note_off_c, 0, 51, 67
2, 567424, Note_on_c, 0, 63, 67
2, 567488, Note_off_c, 0, 63, 67
2, 567552, Note_off_c, 0, 63, 67
2, 567552, Note_on_c, 0, 46, 67
2, 567616, Note_off_c, 0, 46, 67
2, 567680, Note_off_c, 0, 46, 67
2, 567680, Note_on_c, 0, 58, 67
2, 567744, Note_off_c, 0, 58, 67
2, 567808, Note_off_c, 0, 58, 67
2, 567808, Note_on_c, 0, 48, 67
2, 567872, Note_off_c, 0, 48, 67
2, 567936, Note_off_c, 0, 48, 67
2, 567936, Note_on_c, 0, 60, 67
2, 568000, Note_off_c, 0, 60, 67
2, 568064, Note_off_c, 0, 60, 67
2, 568064, Note_on_c, 0, 46, 67
2, 568128, Note_off_c, 0, 46, 67
2, 568192, Note_off_c, 0, 46, 67
2, 568192, Note_on_c, 0, 58, 67
2, 568256, Note_off_c, 0, 58, 67
2, 568320, Note_off_c, 0, 58, 67
2, 568320, Note_on_c, 0, 50, 67
2, 568384, Note_off_c, 0, 50, 67
2, 568448, Note_off_c, 0, 50, 67
2, 568448, Note_on_c, 0, 62, 67
2, 568512, Note_off_c, 0, 62, 67
2, 568576, Note_off_c, 0, 62, 67
2, 568576, Note_on_c, 0, 46, 67
2, 568640, Note_off_c, 0, 46, 67
2, 568704, Note_off_c, 0, 46, 67
2, 568704, Note_on_c, 0, 58, 67
2, 568768, Note_off_c, 0, 58, 67
2, 568832, Note_off_c, 0, 58, 67
2, 568832, Note_on_c, 0, 48, 67
2, 568896, Note_off_c, 0, 48, 67
2, 568960, Note_off_c, 0, 48, 67
2, 568960, Note_on_c, 0, 60, 67
2, 569024, Note_off_c, 0, 60, 67
2, 569088, Note_off_c, 0, 60, 67
2, 569088, Note_on_c, 0, 49, 67
2, 569152, Note_off_c, 0, 49, 67
2, 569216, Note_off_c, 0, 49, 67
2, 569216, Note_on_c, 0, 61, 67
2, 569280, Note_off_c, 0, 61, 67
2, 569344, Note_off_c, 0, 61, 67
2, 569344, Note_on_c, 0, 50, 67
2, 569408, Note_off_c, 0, 50, 67
2, 569472, Note_off_c, 0, 50, 67
2, 569472, Note_on_c, 0, 62, 67
2, 569536, Note_off_c, 0, 62, 67
2, 569600, Note_off_c, 0, 62, 67
2, 569600, Note_on_c, 0, 46, 67
2, 569664, Note_off_c, 0, 46, 67
2, 569728, Note_off_c, 0, 46, 67
2, 569728, Note_on_c, 0, 58, 67
2, 569792, Note_off_c, 0, 58, 67
2, 569856, Note_off_c, 0, 58, 67
2, 569856, Note_on_c, 0, 51, 67
2, 569920, Note_off_c, 0, 51, 67
2, 569984, Note_off_c, 0, 51, 67
2, 569984, Note_on_c, 0, 63, 67
2, 570048, Note_off_c, 0, 63, 67
2, 570112, Note_off_c, 0, 63, 67
2, 570112, Note_on_c, 0, 46, 67
2, 570176, Note_off_c, 0, 46, 67
2, 570240, Note_off_c, 0, 46, 67
2, 570240, Note_on_c, 0, 58, 67
2, 570304, Note_off_c, 0, 58, 67
2, 570368, Note_off_c, 0, 58, 67
2, 570368, Note_on_c, 0, 51, 67
2, 570432, Note_off_c, 0, 51, 67
2, 570496, Note_off_c, 0, 51, 67
2, 570496, Note_on_c, 0, 63, 67
2, 570560, Note_off_c, 0, 63, 67
2, 570624, Note_off_c, 0, 63, 67
2, 570624, Note_on_c, 0, 50, 67
2, 570688, Note_off_c, 0, 50, 67
2, 570752, Note_off_c, 0, 50, 67
2, 570752, Note_on_c, 0, 62, 67
2, 570816, Note_off_c, 0, 62, 67
2, 570880, Note_off_c, 0, 62, 67
2, 570880, Note_on_c, 0, 48, 67
2, 570944, Note_off_c, 0, 48, 67
2, 571008, Note_off_c, 0, 48, 67
2, 571008, Note_on_c, 0, 60, 67
2, 571072, Note_off_c, 0, 60, 67
2, 571136, Note_off_c, 0, 60, 67
2, 571136, Note_on_c, 0, 46, 67
2, 571200, Note_off_c, 0, 46, 67
2, 571264, Note_off_c, 0, 46, 67
2, 571264, Note_on_c, 0, 58, 67
2, 571328, Note_off_c, 0, 58, 67
2, 571392, Note_off_c, 0, 58, 67
2, 571392, Note_on_c, 0, 51, 67
2, 571456, Note_off_c, 0, 51, 67
2, 571520, Note_off_c, 0, 51, 67
2, 571520, Note_on_c, 0, 63, 67
2, 571584, Note_off_c, 0, 63, 67
2, 571648, Note_off_c, 0, 63, 67
2, 571648, Note_on_c, 0, 46, 67
2, 571712, Note_off_c, 0, 46, 67
2, 571776, Note_off_c, 0, 46, 67
2, 571776, Note_on_c, 0, 58, 67
2, 571840, Note_off_c, 0, 58, 67
2, 571904, Note_off_c, 0, 58, 67
2, 571904, Note_on_c, 0, 48, 67
2, 571968, Note_off_c, 0, 48, 67
2, 572032, Note_off_c, 0, 48, 67
2, 572032, Note_on_c, 0, 60, 67
2, 572096, Note_off_c, 0, 60, 67
2, 572160, Note_off_c, 0, 60, 67
2, 572160, Note_on_c, 0, 46, 67
2, 572224, Note_off_c, 0, 46, 67
2, 572288, Note_off_c, 0, 46, 67
2, 572288, Note_on_c, 0, 58, 67
2, 572352, Note_off_c, 0, 58, 67
2, 572416, Note_off_c, 0, 58, 67
2, 572416, Note_on_c, 0, 50, 67
2, 572480, Note_off_c, 0, 50, 67
2, 572544, Note_off_c, 0, 50, 67
2, 572544, Note_on_c, 0, 62, 67
2, 572608, Note_off_c, 0, 62, 67
2, 572672, Note_off_c, 0, 62, 67
2, 572672, Note_on_c, 0, 48, 67
2, 572736, Note_off_c, 0, 48, 67
2, 572800, Note_off_c, 0, 48, 67
2, 572800, Note_on_c, 0, 60, 67
2, 572864, Note_off_c, 0, 60, 67
2, 572928, Note_off_c, 0, 60, 67
2, 572928, Note_on_c, 0, 46, 67
2, 572992, Note_off_c, 0, 46, 67
2, 573056, Note_off_c, 0, 46, 67
2, 573056, Note_on_c, 0, 58, 67
2, 573120, Note_off_c, 0, 58, 67
2, 573184, Note_off_c, 0, 58, 67
2, 573184, Note_on_c, 0, 48, 67
2, 573248, Note_off_c, 0, 48, 67
2, 573312, Note_off_c, 0, 48, 67
2, 573312, Note_on_c, 0, 60, 67
2, 573376, Note_off_c, 0, 60, 67
2, 573440, Note_off_c, 0, 60, 67
2, 573440, Note_on_c, 0, 50, 67
2, 573504, Note_off_c, 0, 50, 67
2, 573568, Note_off_c, 0, 50, 67
2, 573568, Note_on_c, 0, 62, 67
2, 573632, Note_off_c, 0, 62, 67
2, 573696, Note_off_c, 0, 62, 67
2, 573696, Note_on_c, 0, 46, 67
2, 573760, Note_off_c, 0, 46, 67
2, 573824, Note_off_c, 0, 46, 67
2, 573824, Note_on_c, 0, 58, 67
2, 573888, Note_off_c, 0, 58, 67
2, 573952, Note_off_c, 0, 58, 67
2, 573952, Note_on_c, 0, 51, 67
2, 574016, Note_off_c, 0, 51, 67
2, 574080, Note_off_c, 0, 51, 67
2, 574080, Note_on_c, 0, 63, 67
2, 574144, Note_off_c, 0, 63, 67
2, 574208, Note_off_c, 0, 63, 67
2, 574208, Note_on_c, 0, 46, 67
2, 574272, Note_off_c, 0, 46, 67
2, 574336, Note_off_c, 0, 46, 67
2, 574336, Note_on_c, 0, 58, 67
2, 574400, Note_off_c, 0, 58, 67
2, 574464, Note_off_c, 0, 58, 67
2, 574464, Note_on_c, 0, 39, 67
2, 574528, Note_off_c, 0, 39, 67
2, 574528, Note_on_c, 0, 46, 67
2, 574592, Note_off_c, 0, 46, 67
2, 574592, Note_on_c, 0, 51, 67
2, 574656, Note_off_c, 0, 51, 67
2, 574656, Note_on_c, 0, 53, 67
2, 574720, Note_off_c, 0, 53, 67
2, 574720, Note_on_c, 0, 55, 67
2, 574784, Note_off_c, 0, 55, 67
2, 574784, Note_on_c, 0, 51, 67
2, 574848, Note_off_c, 0, 51, 67
2, 574848, Note_on_c, 0, 58, 67
2, 574912, Note_off_c, 0, 58, 67
2, 574912, Note_on_c, 0, 63, 67
2, 574960, Control_c, 0, 93, 0
2, 574976, Note_off_c, 0, 63, 67
2, 574976, Note_on_c, 0, 44, 67
2, 575040, Note_off_c, 0, 44, 67
2, 575040, Note_on_c, 0, 51, 67
2, 575104, Note_off_c, 0, 51, 67
2, 575104, Note_on_c, 0, 56, 67
2, 575168, Note_off_c, 0, 56, 67
2, 575168, Note_on_c, 0, 58, 67
2, 575232, Note_off_c, 0, 58, 67
2, 575232, Note_on_c, 0, 60, 67
2, 575296, Note_off_c, 0, 60, 67
2, 575296, Note_on_c, 0, 56, 67
2, 575360, Note_off_c, 0, 56, 67
2, 575360, Note_on_c, 0, 63, 67
2, 575424, Note_off_c, 0, 63, 67
2, 575424, Note_on_c, 0, 68, 67
2, 575472, Control_c, 0, 93, 0
2, 575488, Note_off_c, 0, 68, 67
2, 575488, Note_on_c, 0, 46, 67
2, 575552, Note_off_c, 0, 46, 67
2, 575552, Note_on_c, 0, 53, 67
2, 575616, Note_off_c, 0, 53, 67
2, 575616, Note_on_c, 0, 58, 67
2, 575680, Note_off_c, 0, 58, 67
2, 575680, Note_on_c, 0, 60, 67
2, 575744, Note_off_c, 0, 60, 67
2, 575744, Note_on_c, 0, 62, 67
2, 575808, Note_off_c, 0, 62, 67
2, 575808, Note_on_c, 0, 58, 67
2, 575872, Note_off_c, 0, 58, 67
2, 575872, Note_on_c, 0, 65, 67
2, 575936, Note_off_c, 0, 65, 67
2, 575936, Note_on_c, 0, 70, 67
2, 575984, Control_c, 0, 93, 0
2, 576000, Note_off_c, 0, 70, 67
2, 576000, Note_on_c, 0, 41, 67
2, 576064, Note_off_c, 0, 41, 67
2, 576064, Note_on_c, 0, 44, 67
2, 576128, Note_off_c, 0, 44, 67
2, 576128, Control_c, 0, 64, 64
2, 576128, Note_on_c, 0, 50, 67
2, 576149, Note_off_c, 0, 50, 67
2, 576149, Note_on_c, 0, 53, 67
2, 576170, Note_off_c, 0, 53, 67
2, 576170, Note_on_c, 0, 58, 67
2, 576191, Note_off_c, 0, 58, 67
2, 576192, Control_c, 0, 93, 0
2, 576192, Note_on_c, 0, 62, 67
2, 576213, Note_off_c, 0, 62, 67
2, 576213, Note_on_c, 0, 65, 67
2, 576234, Note_off_c, 0, 65, 67
2, 576234, Note_on_c, 0, 70, 67
2, 576256, Control_c, 0, 93, 0
2, 576256, Control_c, 0, 64, 0
2, 576384, Note_off_c, 0, 70, 67
2, 576384, Note_on_c, 0, 51, 67
2, 576448, Note_off_c, 0, 51, 67
2, 576448, Note_on_c, 0, 46, 67
2, 576512, Note_off_c, 0, 46, 67
2, 576512, Note_on_c, 0, 39, 67
2, 576576, Note_off_c, 0, 39, 67
2, 576576, Note_on_c, 0, 46, 67
2, 576640, Note_off_c, 0, 46, 67
2, 576640, Note_on_c, 0, 51, 67
2, 576704, Note_off_c, 0, 51, 67
2, 576704, Note_on_c, 0, 53, 67
2, 576768, Note_off_c, 0, 53, 67
2, 576768, Note_on_c, 0, 55, 67
2, 576832, Note_off_c, 0, 55, 67
2, 576832, Note_on_c, 0, 51, 67
2, 576896, Note_off_c, 0, 51, 67
2, 576896, Note_on_c, 0, 58, 67
2, 576960, Note_off_c, 0, 58, 67
2, 576960, Note_on_c, 0, 63, 67
2, 577008, Control_c, 0, 93, 0
2, 577024, Note_off_c, 0, 63, 67
2, 577024, Note_on_c, 0, 44, 67
2, 577088, Note_off_c, 0, 44, 67
2, 577088, Note_on_c, 0, 51, 67
2, 577152, Note_off_c, 0, 51, 67
2, 577152, Note_on_c, 0, 56, 67
2, 577216, Note_off_c, 0, 56, 67
2, 577216, Note_on_c, 0, 58, 67
2, 577280, Note_off_c, 0, 58, 67
2, 577280, Note_on_c, 0, 60, 67
2, 577344, Note_off_c, 0, 60, 67
2, 577344, Note_on_c, 0, 56, 67
2, 577408, Note_off_c, 0, 56, 67
2, 577408, Note_on_c, 0, 63, 67
2, 577472, Note_off_c, 0, 63, 67
2, 577472, Note_on_c, 0, 68, 67
2, 577520, Control_c, 0, 93, 0
2, 577536, Note_off_c, 0, 68, 67
2, 577536, Note_on_c, 0, 46, 67
2, 577600, Note_off_c, 0, 46, 67
2, 577600, Note_on_c, 0, 53, 67
2, 577664, Note_off_c, 0, 53, 67
2, 577664, Note_on_c, 0, 58, 67
2, 577728, Note_off_c, 0, 58, 67
2, 577728, Note_on_c, 0, 60, 67
2, 577792, Note_off_c, 0, 60, 67
2, 577792, Note_on_c, 0, 62, 67
2, 577856, Note_off_c, 0, 62, 67
2, 577856, Note_on_c, 0, 58, 67
2, 577920, Note_off_c, 0, 58, 67
2, 577920, Note_on_c, 0, 65, 67
2, 577984, Note_off_c, 0, 65, 67
2, 577984, Note_on_c, 0, 70, 67
2, 578032, Control_c, 0, 93, 0
2, 578048, Note_off_c, 0, 70, 67
2, 578048, Note_on_c, 0, 39, 67
2, 578112, Note_off_c, 0, 39, 67
2, 578112, Note_on_c, 0, 46, 67
2, 578176, Note_off_c, 0, 46, 67
2, 578176, Note_on_c, 0, 51, 67
2, 578240, Note_off_c, 0, 51, 67
2, 578240, Control_c, 0, 64, 64
2, 578240, Note_on_c, 0, 55, 67
2, 578250, Note_off_c, 0, 55, 67
2, 578250, Note_on_c, 0, 58, 67
2, 578261, Note_off_c, 0, 58, 67
2, 578261, Note_on_c, 0, 63, 67
2, 578271, Note_off_c, 0, 63, 67
2, 578272, Control_c, 0, 93, 0
2, 578272, Note_on_c, 0, 67, 67
2, 578282, Note_off_c, 0, 67, 67
2, 578282, Note_on_c, 0, 70, 67
2, 578293, Note_off_c, 0, 70, 67
2, 578293, Note_on_c, 0, 75, 67
2, 578303, Note_off_c, 0, 75, 67
2, 578304, Control_c, 0, 93, 0
2, 578432, Control_c, 0, 93, 0
2, 578496, Control_c, 0, 93, 0
2, 578496, Control_c, 0, 64, 0
2, 578560, Control_c, 0, 93, 0
2, 578560, Note_on_c, 0, 51, 67
2, 578624, Note_off_c, 0, 51, 67
2, 578688, Note_off_c, 0, 51, 67
2, 578688, Note_on_c, 0, 63, 67
2, 578752, Note_off_c, 0, 63, 67
2, 578816, Note_off_c, 0, 63, 67
2, 578816, Note_on_c, 0, 50, 67
2, 578880, Note_off_c, 0, 50, 67
2, 578944, Note_off_c, 0, 50, 67
2, 578944, Note_on_c, 0, 62, 67
2, 579008, Note_off_c, 0, 62, 67
2, 579072, Note_off_c, 0, 62, 67
2, 579072, Note_on_c, 0, 48, 67
2, 579136, Note_off_c, 0, 48, 67
2, 579200, Note_off_c, 0, 48, 67
2, 579200, Note_on_c, 0, 60, 67
2, 579264, Note_off_c, 0, 60, 67
2, 579328, Note_off_c, 0, 60, 67
2, 579328, Note_on_c, 0, 46, 67
2, 579392, Note_off_c, 0, 46, 67
2, 579456, Note_off_c, 0, 46, 67
2, 579456, Note_on_c, 0, 58, 67
2, 579520, Note_off_c, 0, 58, 67
2, 579584, Note_off_c, 0, 58, 67
2, 579584, Note_on_c, 0, 51, 67
2, 579648, Note_off_c, 0, 51, 67
2, 579712, Note_off_c, 0, 51, 67
2, 579712, Note_on_c, 0, 63, 67
2, 579776, Note_off_c, 0, 63, 67
2, 579840, Note_off_c, 0, 63, 67
2, 579840, Note_on_c, 0, 46, 67
2, 579904, Note_off_c, 0, 46, 67
2, 579968, Note_off_c, 0, 46, 67
2, 579968, Note_on_c, 0, 58, 67
2, 580032, Note_off_c, 0, 58, 67
2, 580096, Note_off_c, 0, 58, 67
2, 580096, Note_on_c, 0, 48, 67
2, 580160, Note_off_c, 0, 48, 67
2, 580224, Note_off_c, 0, 48, 67
2, 580224, Note_on_c, 0, 60, 67
2, 580288, Note_off_c, 0, 60, 67
2, 580352, Note_off_c, 0, 60, 67
2, 580352, Note_on_c, 0, 46, 67
2, 580416, Note_off_c, 0, 46, 67
2, 580480, Note_off_c, 0, 46, 67
2, 580480, Note_on_c, 0, 58, 67
2, 580544, Note_off_c, 0, 58, 67
2, 580608, Note_off_c, 0, 58, 67
2, 580608, Note_on_c, 0, 50, 67
2, 580672, Note_off_c, 0, 50, 67
2, 580736, Note_off_c, 0, 50, 67
2, 580736, Note_on_c, 0, 62, 67
2, 580800, Note_off_c, 0, 62, 67
2, 580864, Note_off_c, 0, 62, 67
2, 580864, Note_on_c, 0, 46, 67
2, 580928, Note_off_c, 0, 46, 67
2, 580992, Note_off_c, 0, 46, 67
2, 580992, Note_on_c, 0, 58, 67
2, 581056, Note_off_c, 0, 58, 67
2, 581120, Note_off_c, 0, 58, 67
2, 581120, Note_on_c, 0, 48, 67
2, 581184, Note_off_c, 0, 48, 67
2, 581248, Note_off_c, 0, 48, 67
2, 581248, Note_on_c, 0, 60, 67
2, 581312, Note_off_c, 0, 60, 67
2, 581376, Note_off_c, 0, 60, 67
2, 581376, Note_on_c, 0, 49, 67
2, 581440, Note_off_c, 0, 49, 67
2, 581504, Note_off_c, 0, 49, 67
2, 581504, Note_on_c, 0, 61, 67
2, 581568, Note_off_c, 0, 61, 67
2, 581632, Note_off_c, 0, 61, 67
2, 581632, Note_on_c, 0, 50, 67
2, 581696, Note_off_c, 0, 50, 67
2, 581760, Note_off_c, 0, 50, 67
2, 581760, Note_on_c, 0, 62, 67
2, 581824, Note_off_c, 0, 62, 67
2, 581888, Note_off_c, 0, 62, 67
2, 581888, Note_on_c, 0, 46, 67
2, 581952, Note_off_c, 0, 46, 67
2, 582016, Note_off_c, 0, 46, 67
2, 582016, Note_on_c, 0, 58, 67
2, 582080, Note_off_c, 0, 58, 67
2, 582144, Note_off_c, 0, 58, 67
2, 582144, Note_on_c, 0, 51, 67
2, 582208, Note_off_c, 0, 51, 67
2, 582272, Note_off_c, 0, 51, 67
2, 582272, Note_on_c, 0, 63, 67
2, 582336, Note_off_c, 0, 63, 67
2, 582400, Note_off_c, 0, 63, 67
2, 582400, Note_on_c, 0, 46, 67
2, 582464, Note_off_c, 0, 46, 67
2, 582528, Note_off_c, 0, 46, 67
2, 582528, Note_on_c, 0, 58, 67
2, 582592, Note_off_c, 0, 58, 67
2, 582656, Note_off_c, 0, 58, 67
2, 582656, Note_on_c, 0, 51, 67
2, 582720, Note_off_c, 0, 51, 67
2, 582784, Note_off_c, 0, 51, 67
2, 582784, Note_on_c, 0, 63, 67
2, 582848, Note_off_c, 0, 63, 67
2, 582912, Note_off_c, 0, 63, 67
2, 582912, Note_on_c, 0, 50, 67
2, 582976, Note_off_c, 0, 50, 67
2, 583040, Note_off_c, 0, 50, 67
2, 583040, Note_on_c, 0, 62, 67
2, 583104, Note_off_c, 0, 62, 67
2, 583168, Note_off_c, 0, 62, 67
2, 583168, Note_on_c, 0, 48, 67
2, 583232, Note_off_c, 0, 48, 67
2, 583296, Note_off_c, 0, 48, 67
2, 583296, Note_on_c, 0, 60, 67
2, 583360, Note_off_c, 0, 60, 67
2, 583424, Note_off_c, 0, 60, 67
2, 583424, Note_on_c, 0, 46, 67
2, 583488, Note_off_c, 0, 46, 67
2, 583552, Note_off_c, 0, 46, 67
2, 583552, Note_on_c, 0, 58, 67
2, 583616, Note_off_c, 0, 58, 67
2, 583680, Note_off_c, 0, 58, 67
2, 583680, Note_on_c, 0, 51, 67
2, 583744, Note_off_c, 0, 51, 67
2, 583808, Note_off_c, 0, 51, 67
2, 583808, Note_on_c, 0, 63, 67
2, 583872, Note_off_c, 0, 63, 67
2, 583936, Note_off_c, 0, 63, 67
2, 583936, Note_on_c, 0, 46, 67
2, 584000, Note_off_c, 0, 46, 67
2, 584064, Note_off_c, 0, 46, 67
2, 584064, Note_on_c, 0, 58, 67
2, 584128, Note_off_c, 0, 58, 67
2, 584192, Note_off_c, 0, 58, 67
2, 584192, Note_on_c, 0, 48, 67
2, 584256, Note_off_c, 0, 48, 67
2, 584320, Note_off_c, 0, 48, 67
2, 584320, Note_on_c, 0, 60, 67
2, 584384, Note_off_c, 0, 60, 67
2, 584448, Note_off_c, 0, 60, 67
2, 584448, Note_on_c, 0, 46, 67
2, 584512, Note_off_c, 0, 46, 67
2, 584576, Note_off_c, 0, 46, 67
2, 584576, Note_on_c, 0, 58, 67
2, 584640, Note_off_c, 0, 58, 67
2, 584704, Note_off_c, 0, 58, 67
2, 584704, Note_on_c, 0, 50, 67
2, 584768, Note_off_c, 0, 50, 67
2, 584832, Note_off_c, 0, 50, 67
2, 584832, Note_on_c, 0, 62, 67
2, 584896, Note_off_c, 0, 62, 67
2, 584960, Note_off_c, 0, 62, 67
2, 584960, Note_on_c, 0, 48, 67
2, 585024, Note_off_c, 0, 48, 67
2, 585088, Note_off_c, 0, 48, 67
2, 585088, Note_on_c, 0, 60, 67
2, 585152, Note_off_c, 0, 60, 67
2, 585216, Note_off_c, 0, 60, 67
2, 585216, Note_on_c, 0, 46, 67
2, 585280, Note_off_c, 0, 46, 67
2, 585344, Note_off_c, 0, 46, 67
2, 585344, Note_on_c, 0, 58, 67
2, 585408, Note_off_c, 0, 58, 67
2, 585472, Note_off_c, 0, 58, 67
2, 585472, Note_on_c, 0, 48, 67
2, 585536, Note_off_c, 0, 48, 67
2, 585600, Note_off_c, 0, 48, 67
2, 585600, Note_on_c, 0, 60, 67
2, 585664, Note_off_c, 0, 60, 67
2, 585728, Note_off_c, 0, 60, 67
2, 585728, Note_on_c, 0, 50, 67
2, 585792, Note_off_c, 0, 50, 67
2, 585856, Note_off_c, 0, 50, 67
2, 585856, Note_on_c, 0, 62, 67
2, 585920, Note_off_c, 0, 62, 67
2, 585984, Note_off_c, 0, 62, 67
2, 585984, Note_on_c, 0, 46, 67
2, 586048, Note_off_c, 0, 46, 67
2, 586112, Note_off_c, 0, 46, 67
2, 586112, Note_on_c, 0, 58, 67
2, 586176, Note_off_c, 0, 58, 67
2, 586240, Note_off_c, 0, 58, 67
2, 586240, Note_on_c, 0, 51, 67
2, 586304, Note_off_c, 0, 51, 67
2, 586368, Note_off_c, 0, 51, 67
2, 586368, Note_on_c, 0, 63, 67
2, 586432, Note_off_c, 0, 63, 67
2, 586496, Note_off_c, 0, 63, 67
2, 586496, Note_on_c, 0, 46, 67
2, 586560, Note_off_c, 0, 46, 67
2, 586624, Note_off_c, 0, 46, 67
2, 586624, Note_on_c, 0, 58, 67
2, 586688, Note_off_c, 0, 58, 67
2, 586752, Note_off_c, 0, 58, 67
2, 586752, Note_on_c, 0, 39, 67
2, 586816, Note_off_c, 0, 39, 67
2, 586816, Note_on_c, 0, 46, 67
2, 586880, Note_off_c, 0, 46, 67
2, 586880, Note_on_c, 0, 51, 67
2, 586944, Note_off_c, 0, 51, 67
2, 586944, Note_on_c, 0, 53, 67
2, 587008, Note_off_c, 0, 53, 67
2, 587008, Note_on_c, 0, 55, 67
2, 587072, Note_off_c, 0, 55, 67
2, 587072, Note_on_c, 0, 51, 67
2, 587136, Note_off_c, 0, 51, 67
2, 587136, Note_on_c, 0, 58, 67
2, 587200, Note_off_c, 0, 58, 67
2, 587200, Note_on_c, 0, 63, 67
2, 587248, Control_c, 0, 93, 0
2, 587264, Note_off_c, 0, 63, 67
2, 587264, Note_on_c, 0, 44, 67
2, 587328, Note_off_c, 0, 44, 67
2, 587328, Note_on_c, 0, 51, 67
2, 587392, Note_off_c, 0, 51, 67
2, 587392, Note_on_c, 0, 56, 67
2, 587456, Note_off_c, 0, 56, 67
2, 587456, Note_on_c, 0, 58, 67
2, 587520, Note_off_c, 0, 58, 67
2, 587520, Note_on_c, 0, 60, 67
2, 587584, Note_off_c, 0, 60, 67
2, 587584, Note_on_c, 0, 56, 67
2, 587648, Note_off_c, 0, 56, 67
2, 587648, Note_on_c, 0, 63, 67
2, 587712, Note_off_c, 0, 63, 67
2, 587712, Note_on_c, 0, 68, 67
2, 587760, Control_c, 0, 93, 0
2, 587776, Note_off_c, 0, 68, 67
2, 587776, Note_on_c, 0, 46, 67
2, 587840, Note_off_c, 0, 46, 67
2, 587840, Note_on_c, 0, 53, 67
2, 587904, Note_off_c, 0, 53, 67
2, 587904, Note_on_c, 0, 58, 67
2, 587968, Note_off_c, 0, 58, 67
2, 587968, Note_on_c, 0, 60, 67
2, 588032, Note_off_c, 0, 60, 67
2, 588032, Note_on_c, 0, 62, 67
2, 588096, Note_off_c, 0, 62, 67
2, 588096, Note_on_c, 0, 58, 67
2, 588160, Note_off_c, 0, 58, 67
2, 588160, Note_on_c, 0, 65, 67
2, 588224, Note_off_c, 0, 65, 67
2, 588224, Note_on_c, 0, 70, 67
2, 588272, Control_c, 0, 93, 0
2, 588288, Note_off_c, 0, 70, 67
2, 588288, Note_on_c, 0, 41, 67
2, 588352, Note_off_c, 0, 41, 67
2, 588352, Note_on_c, 0, 44, 67
2, 588416, Note_off_c, 0, 44, 67
2, 588416, Control_c, 0, 64, 64
2, 588416, Note_on_c, 0, 50, 67
2, 588437, Note_off_c, 0, 50, 67
2, 588437, Note_on_c, 0, 53, 67
2, 588458, Note_off_c, 0, 53, 67
2, 588458, Note_on_c, 0, 58, 67
2, 588479, Note_off_c, 0, 58, 67
2, 588480, Control_c, 0, 93, 0
2, 588480, Note_on_c, 0, 62, 67
2, 588501, Note_off_c, 0, 62, 67
2, 588501, Note_on_c, 0, 65, 67
2, 588522, Note_off_c, 0, 65, 67
2, 588522, Note_on_c, 0, 70, 67
2, 588544, Control_c, 0, 93, 0
2, 588544, Control_c, 0, 64, 0
2, 588672, Note_off_c, 0, 70, 67
2, 588672, Note_on_c, 0, 51, 67
2, 588736, Note_off_c, 0, 51, 67
2, 588736, Note_on_c, 0, 46, 67
2, 588800, Note_off_c, 0, 46, 67
2, 588800, Note_on_c, 0, 39, 67
2, 588864, Note_off_c, 0, 39, 67
2, 588864, Note_on_c, 0, 46, 67
2, 588928, Note_off_c, 0, 46, 67
2, 588928, Note_on_c, 0, 51, 67
2, 588992, Note_off_c, 0, 51, 67
2, 588992, Note_on_c, 0, 53, 67
2, 589056, Note_off_c, 0, 53, 67
2, 589056, Note_on_c, 0, 55, 67
2, 589120, Note_off_c, 0, 55, 67
2, 589120, Note_on_c, 0, 51, 67
2, 589184, Note_off_c, 0, 51, 67
2, 589184, Note_on_c, 0, 58, 67
2, 589248, Note_off_c, 0, 58, 67
2, 589248, Note_on_c, 0, 63, 67
2, 589296, Control_c, 0, 93, 0
2, 589312, Note_off_c, 0, 63, 67
2, 589312, Note_on_c, 0, 44, 67
2, 589376, Note_off_c, 0, 44, 67
2, 589376, Note_on_c, 0, 51, 67
2, 589440, Note_off_c, 0, 51, 67
2, 589440, Note_on_c, 0, 56, 67
2, 589504, Note_off_c, 0, 56, 67
2, 589504, Note_on_c, 0, 58, 67
2, 589568, Note_off_c, 0, 58, 67
2, 589568, Note_on_c, 0, 60, 67
2, 589632, Note_off_c, 0, 60, 67
2, 589632, Note_on_c, 0, 56, 67
2, 589696, Note_off_c, 0, 56, 67
2, 589696, Note_on_c, 0, 63, 67
2, 589760, Note_off_c, 0, 63, 67
2, 589760, Note_on_c, 0, 68, 67
2, 589808, Control_c, 0, 93, 0
2, 589824, Note_off_c, 0, 68, 67
2, 589824, Note_on_c, 0, 46, 67
2, 589888, Note_off_c, 0, 46, 67
2, 589888, Note_on_c, 0, 53, 67
2, 589952, Note_off_c, 0, 53, 67
2, 589952, Note_on_c, 0, 58, 67
2, 590016, Note_off_c, 0, 58, 67
2, 590016, Note_on_c, 0, 60, 67
2, 590080, Note_off_c, 0, 60, 67
2, 590080, Note_on_c, 0, 62, 67
2, 590144, Note_off_c, 0, 62, 67
2, 590144, Note_on_c, 0, 58, 67
2, 590208, Note_off_c, 0, 58, 67
2, 590208, Note_on_c, 0, 65, 67
2, 590272, Note_off_c, 0, 65, 67
2, 590272, Note_on_c, 0, 70, 67
2, 590320, Control_c, 0, 93, 0
2, 590336, Note_off_c, 0, 70, 67
2, 590336, Note_on_c, 0, 39, 67
2, 590400, Note_off_c, 0, 39, 67
2, 590400, Note_on_c, 0, 46, 67
2, 590464, Note_off_c, 0, 46, 67
2, 590464, Note_on_c, 0, 51, 67
2, 590528, Note_off_c, 0, 51, 67
2, 590528, Control_c, 0, 64, 64
2, 590528, Note_on_c, 0, 55, 67
2, 590538, Note_off_c, 0, 55, 67
2, 590538, Note_on_c, 0, 58, 67
2, 590549, Note_off_c, 0, 58, 67
2, 590549, Note_on_c, 0, 63, 67
2, 590559, Note_off_c, 0, 63, 67
2, 590560, Control_c, 0, 93, 0
2, 590560, Note_on_c, 0, 67, 67
2, 590570, Note_off_c, 0, 67, 67
2, 590570, Note_on_c, 0, 70, 67
2, 590581, Note_off_c, 0, 70, 67
2, 590581, Note_on_c, 0, 75, 67
2, 590591, Note_off_c, 0, 75, 67
2, 590592, Control_c, 0, 93, 0
2, 590720, Control_c, 0, 93, 0
2, 590784, Control_c, 0, 93, 0
2, 590784, Control_c, 0, 64, 0
2, 590848, Control_c, 0, 93, 0
2, 590848, Note_on_c, 0, 51, 67
2, 590912, Note_off_c, 0, 51, 67
2, 590976, Note_off_c, 0, 51, 67
2, 590976, Note_on_c, 0, 63, 67
2, 591040, Note_off_c, 0, 63, 67
2, 591104, Note_off_c, 0, 63, 67
2, 591104, Note_on_c, 0, 50, 67
2, 591168, Note_off_c, 0, 50, 67
2, 591232, Note_off_c, 0, 50, 67
2, 591232, Note_on_c, 0, 62, 67
2, 591296, Note_off_c, 0, 62, 67
2, 591360, Note_off_c, 0, 62, 67
2, 591360, Note_on_c, 0, 48, 67
2, 591424, Note_off_c, 0, 48, 67
2, 591488, Note_off_c, 0, 48, 67
2, 591488, Note_on_c, 0, 60, 67
2, 591552, Note_off_c, 0, 60, 67
2, 591616, Note_off_c, 0, 60, 67
2, 591616, Note_on_c, 0, 46, 67
2, 591680, Note_off_c, 0, 46, 67
2, 591744, Note_off_c, 0, 46, 67
2, 591744, Note_on_c, 0, 58, 67
2, 591808, Note_off_c, 0, 58, 67
2, 591872, Note_off_c, 0, 58, 67
2, 591872, Note_on_c, 0, 51, 67
2, 591936, Note_off_c, 0, 51, 67
2, 592000, Note_off_c, 0, 51, 67
2, 592000, Note_on_c, 0, 63, 67
2, 592064, Note_off_c, 0, 63, 67
2, 592128, Note_off_c, 0, 63, 67
2, 592128, Note_on_c, 0, 46, 67
2, 592192, Note_off_c, 0, 46, 67
2, 592256, Note_off_c, 0, 46, 67
2, 592256, Note_on_c, 0, 58, 67
2, 592320, Note_off_c, 0, 58, 67
2, 592384, Note_off_c, 0, 58, 67
2, 592384, Note_on_c, 0, 48, 67
2, 592448, Note_off_c, 0, 48, 67
2, 592512, Note_off_c, 0, 48, 67
2, 592512, Note_on_c, 0, 60, 67
2, 592576, Note_off_c, 0, 60, 67
2, 592640, Note_off_c, 0, 60, 67
2, 592640, Note_on_c, 0, 46, 67
2, 592704, Note_off_c, 0, 46, 67
2, 592768, Note_off_c, 0, 46, 67
2, 592768, Note_on_c, 0, 58, 67
2, 592832, Note_off_c, 0, 58, 67
2, 592896, Note_off_c, 0, 58, 67
2, 592896, Note_on_c, 0, 50, 67
2, 592960, Note_off_c, 0, 50, 67
2, 593024, Note_off_c, 0, 50, 67
2, 593024, Note_on_c, 0, 62, 67
2, 593088, Note_off_c, 0, 62, 67
2, 593152, Note_off_c, 0, 62, 67
2, 593152, Note_on_c, 0, 46, 67
2, 593216, Note_off_c, 0, 46, 67
2, 593280, Note_off_c, 0, 46, 67
2, 593280, Note_on_c, 0, 58, 67
2, 593344, Note_off_c, 0, 58, 67
2, 593408, Note_off_c, 0, 58, 67
2, 593408, Note_on_c, 0, 48, 67
2, 593472, Note_off_c, 0, 48, 67
2, 593536, Note_off_c, 0, 48, 67
2, 593536, Note_on_c, 0, 60, 67
2, 593600, Note_off_c, 0, 60, 67
2, 593664, Note_off_c, 0, 60, 67
2, 593664, Note_on_c, 0, 49, 67
2, 593728, Note_off_c, 0, 49, 67
2, 593792, Note_off_c, 0, 49, 67
2, 593792, Note_on_c, 0, 61, 67
2, 593856, Note_off_c, 0, 61, 67
2, 593920, Note_off_c, 0, 61, 67
2, 593920, Note_on_c, 0, 50, 67
2, 593984, Note_off_c, 0, 50, 67
2, 594048, Note_off_c, 0, 50, 67
2, 594048, Note_on_c, 0, 62, 67
2, 594112, Note_off_c, 0, 62, 67
2, 594176, Note_off_c, 0, 62, 67
2, 594176, Note_on_c, 0, 46, 67
2, 594240, Note_off_c, 0, 46, 67
2, 594304, Note_off_c, 0, 46, 67
2, 594304, Note_on_c, 0, 58, 67
2, 594368, Note_off_c, 0, 58, 67
2, 594432, Note_off_c, 0, 58, 67
2, 594432, Note_on_c, 0, 51, 67
2, 594496, Note_off_c, 0, 51, 67
2, 594560, Note_off_c, 0, 51, 67
2, 594560, Note_on_c, 0, 63, 67
2, 594624, Note_off_c, 0, 63, 67
2, 594688, Note_off_c, 0, 63, 67
2, 594688, Note_on_c, 0, 46, 67
2, 594752, Note_off_c, 0, 46, 67
2, 594816, Note_off_c, 0, 46, 67
2, 594816, Note_on_c, 0, 58, 67
2, 594880, Note_off_c, 0, 58, 67
2, 594944, Note_off_c, 0, 58, 67
2, 594944, Note_on_c, 0, 51, 67
2, 595008, Note_off_c, 0, 51, 67
2, 595072, Note_off_c, 0, 51, 67
2, 595072, Note_on_c, 0, 63, 67
2, 595136, Note_off_c, 0, 63, 67
2, 595200, Note_off_c, 0, 63, 67
2, 595200, Note_on_c, 0, 50, 67
2, 595264, Note_off_c, 0, 50, 67
2, 595328, Note_off_c, 0, 50, 67
2, 595328, Note_on_c, 0, 62, 67
2, 595392, Note_off_c, 0, 62, 67
2, 595456, Note_off_c, 0, 62, 67
2, 595456, Note_on_c, 0, 48, 67
2, 595520, Note_off_c, 0, 48, 67
2, 595584, Note_off_c, 0, 48, 67
2, 595584, Note_on_c, 0, 60, 67
2, 595648, Note_off_c, 0, 60, 67
2, 595712, Note_off_c, 0, 60, 67
2, 595712, Note_on_c, 0, 46, 67
2, 595776, Note_off_c, 0, 46, 67
2, 595840, Note_off_c, 0, 46, 67
2, 595840, Note_on_c, 0, 58, 67
2, 595904, Note_off_c, 0, 58, 67
2, 595968, Note_off_c, 0, 58, 67
2, 595968, Note_on_c, 0, 51, 67
2, 596032, Note_off_c, 0, 51, 67
2, 596096, Note_off_c, 0, 51, 67
2, 596096, Note_on_c, 0, 63, 67
2, 596160, Note_off_c, 0, 63, 67
2, 596224, Note_off_c, 0, 63, 67
2, 596224, Note_on_c, 0, 46, 67
2, 596288, Note_off_c, 0, 46, 67
2, 596352, Note_off_c, 0, 46, 67
2, 596352, Note_on_c, 0, 58, 67
2, 596416, Note_off_c, 0, 58, 67
2, 596480, Note_off_c, 0, 58, 67
2, 596480, Note_on_c, 0, 48, 67
2, 596544, Note_off_c, 0, 48, 67
2, 596608, Note_off_c, 0, 48, 67
2, 596608, Note_on_c, 0, 60, 67
2, 596672, Note_off_c, 0, 60, 67
2, 596736, Note_off_c, 0, 60, 67
2, 596736, Note_on_c, 0, 46, 67
2, 596800, Note_off_c, 0, 46, 67
2, 596864, Note_off_c, 0, 46, 67
2, 596864, Note_on_c, 0, 58, 67
2, 596928, Note_off_c, 0, 58, 67
2, 596992, Note_off_c, 0, 58, 67
2, 596992, Note_on_c, 0, 50, 67
2, 597056, Note_off_c, 0, 50, 67
2, 597120, Note_off_c, 0, 50, 67
2, 597120, Note_on_c, 0, 62, 67
2, 597184, Note_off_c, 0, 62, 67
2, 597248, Note_off_c, 0, 62, 67
2, 597248, Note_on_c, 0, 48, 67
2, 597312, Note_off_c, 0, 48, 67
2, 597376, Note_off_c, 0, 48, 67
2, 597376, Note_on_c, 0, 60, 67
2, 597440, Note_off_c, 0, 60, 67
2, 597504, Note_off_c, 0, 60, 67
2, 597504, Note_on_c, 0, 46, 67
2, 597568, Note_off_c, 0, 46, 67
2, 597632, Note_off_c, 0, 46, 67
2, 597632, Note_on_c, 0, 58, 67
2, 597696, Note_off_c, 0, 58, 67
2, 597760, Note_off_c, 0, 58, 67
2, 597760, Note_on_c, 0, 48, 67
2, 597824, Note_off_c, 0, 48, 67
2, 597888, Note_off_c, 0, 48, 67
2, 597888, Note_on_c, 0, 60, 67
2, 597952, Note_off_c, 0, 60, 67
2, 598016, Note_off_c, 0, 60, 67
2, 598016, Note_on_c, 0, 50, 67
2, 598080, Note_off_c, 0, 50, 67
2, 598144, Note_off_c, 0, 50, 67
2, 598144, Note_on_c, 0, 62, 67
2, 598208, Note_off_c, 0, 62, 67
2, 598272, Note_off_c, 0, 62, 67
2, 598272, Note_on_c, 0, 46, 67
2, 598336, Note_off_c, 0, 46, 67
2, 598400, Note_off_c, 0, 46, 67
2, 598400, Note_on_c, 0, 58, 67
2, 598464, Note_off_c, 0, 58, 67
2, 598528, Note_off_c, 0, 58, 67
2, 598528, Note_on_c, 0, 51, 67
2, 598592, Note_off_c, 0, 51, 67
2, 598656, Note_off_c, 0, 51, 67
2, 598656, Note_on_c, 0, 63, 67
2, 598720, Note_off_c, 0, 63, 67
2, 598784, Note_off_c, 0, 63, 67
2, 598784, Note_on_c, 0, 46, 67
2, 598848, Note_off_c, 0, 46, 67
2, 598912, Note_off_c, 0, 46, 67
2, 598912, Note_on_c, 0, 58, 67
2, 598976, Note_off_c, 0, 58, 67
2, 599040, Note_off_c, 0, 58, 67
2, 599040, Note_on_c, 0, 39, 67
2, 599104, Note_off_c, 0, 39, 67
2, 599104, Note_on_c, 0, 46, 67
2, 599168, Note_off_c, 0, 46, 67
2, 599168, Note_on_c, 0, 51, 67
2, 599232, Note_off_c, 0, 51, 67
2, 599232, Note_on_c, 0, 53, 67
2, 599296, Note_off_c, 0, 53, 67
2, 599296, Note_on_c, 0, 55, 67
2, 599360, Note_off_c, 0, 55, 67
2, 599360, Note_on_c, 0, 51, 67
2, 599424, Note_off_c, 0, 51, 67
2, 599424, Note_on_c, 0, 58, 67
2, 599488, Note_off_c, 0, 58, 67
2, 599488, Note_on_c, 0, 63, 67
2, 599536, Control_c, 0, 93, 0
2, 599552, Note_off_c, 0, 63, 67
2, 599552, Note_on_c, 0, 44, 67
2, 599616, Note_off_c, 0, 44, 67
2, 599616, Note_on_c, 0, 51, 67
2, 599680, Note_off_c, 0, 51, 67
2, 599680, Note_on_c, 0, 56, 67
2, 599744, Note_off_c, 0, 56, 67
2, 599744, Note_on_c, 0, 58, 67
2, 599808, Note_off_c, 0, 58, 67
2, 599808, Note_on_c, 0, 60, 67
2, 599872, Note_off_c, 0, 60, 67
2, 599872, Note_on_c, 0, 56, 67
2, 599936, Note_off_c, 0, 56, 67
2, 599936, Note_on_c, 0, 63, 67
2, 600000, Note_off_c, 0, 63, 67
2, 600000, Note_on_c, 0, 68, 67
2, 600048, Control_c, 0, 93, 0
2, 600064, Note_off_c, 0, 68, 67
2, 600064, Note_on_c, 0, 46, 67
2, 600128, Note_off_c, 0, 46, 67
2, 600128, Note_on_c, 0, 53, 67
2, 600192, Note_off_c, 0, 53, 67
2, 600192, Note_on_c, 0, 58, 67
2, 600256, Note_off_c, 0, 58, 67
2, 600256, Note_on_c, 0, 60, 67
2, 600320, Note_off_c, 0, 60, 67
2, 600320, Note_on_c, 0, 62, 67
2, 600384, Note_off_c, 0, 62, 67
2, 600384, Note_on_c, 0, 58, 67
2, 600448, Note_off_c, 0, 58, 67
2, 600448, Note_on_c, 0, 65, 67
2, 600512, Note_off_c, 0, 65, 67
2, 600512, Note_on_c, 0, 70, 67
2, 600560, Control_c, 0, 93, 0
2, 600576, Note_off_c, 0, 70, 67
2, 600576, Note_on_c, 0, 41, 67
2, 600640, Note_off_c, 0, 41, 67
2, 600640, Note_on_c, 0, 44, 67
2, 600704, Note_off_c, 0, 44, 67
2, 600704, Control_c, 0, 64, 64
2, 600704, Note_on_c, 0, 50, 67
2, 600725, Note_off_c, 0, 50, 67
2, 600725, Note_on_c, 0, 53, 67
2, 600746, Note_off_c, 0, 53, 67
2, 600746, Note_on_c, 0, 58, 67
2, 600767, Note_off_c, 0, 58, 67
2, 600768, Control_c, 0, 93, 0
2, 600768, Note_on_c, 0, 62, 67
2, 600789, Note_off_c, 0, 62, 67
2, 600789, Note_on_c, 0, 65, 67
2, 600810, Note_off_c, 0, 65, 67
2, 600810, Note_on_c, 0, 70, 67
2, 600832, Control_c, 0, 93, 0
2, 600832, Control_c, 0, 64, 0
2, 600960, Note_off_c, 0, 70, 67
2, 600960, Note_on_c, 0, 51, 67
2, 601024, Note_off_c, 0, 51, 67
2, 601024, Note_on_c, 0, 46, 67
2, 601088, Note_off_c, 0, 46, 67
2, 601088, Note_on_c, 0, 39, 67
2, 601152, Note_off_c, 0, 39, 67
2, 601152, Note_on_c, 0, 46, 67
2, 601216, Note_off_c, 0, 46, 67
2, 601216, Note_on_c, 0, 51, 67
2, 601280, Note_off_c, 0, 51, 67
2, 601280, Note_on_c, 0, 53, 67
2, 601344, Note_off_c, 0, 53, 67
2, 601344, Note_on_c, 0, 55, 67
2, 601408, Note_off_c, 0, 55, 67
2, 601408, Note_on_c, 0, 51, 67
2, 601472, Note_off_c, 0, 51, 67
2, 601472, Note_on_c, 0, 58, 67
2, 601536, Note_off_c, 0, 58, 67
2, 601536, Note_on_c, 0, 63, 67
2, 601584, Control_c, 0, 93, 0
2, 601600, Note_off_c, 0, 63, 67
2, 601600, Note_on_c, 0, 44, 67
2, 601664, Note_off_c, 0, 44, 67
2, 601664, Note_on_c, 0, 51, 67
2, 601728, Note_off_c, 0, 51, 67
2, 601728, Note_on_c, 0, 56, 67
2, 601792, Note_off_c, 0, 56, 67
2, 601792, Note_on_c, 0, 58, 67
2, 601856, Note_off_c, 0, 58, 67
2, 601856, Note_on_c, 0, 60, 67
2, 601920, Note_off_c, 0, 60, 67
2, 601920, Note_on_c, 0, 56, 67
2, 601984, Note_off_c, 0, 56, 67
2, 601984, Note_on_c, 0, 63, 67
2, 602048, Note_off_c, 0, 63, 67
2, 602048, Note_on_c, 0, 68, 67
2, 602096, Control_c, 0, 93, 0
2, 602112, Note_off_c, 0, 68, 67
2, 602112, Note_on_c, 0, 46, 67
2, 602176, Note_off_c, 0, 46, 67
2, 602176, Note_on_c, 0, 53, 67
2, 602240, Note_off_c, 0, 53, 67
2, 602240, Note_on_c, 0, 58, 67
2, 602304, Note_off_c, 0, 58, 67
2, 602304, Note_on_c, 0, 60, 67
2, 602368, Note_off_c, 0, 60, 67
2, 602368, Note_on_c, 0, 62, 67
2, 602432, Note_off_c, 0, 62, 67
2, 602432, Note_on_c, 0, 58, 67
2, 602496, Note_off_c, 0, 58, 67
2, 602496, Note_on_c, 0, 65, 67
2, 602560, Note_off_c, 0, 65, 67
2, 602560, Note_on_c, 0, 70, 67
2, 602608, Control_c, 0, 93, 0
2, 602624, Note_off_c, 0, 70, 67
2, 602624, Note_on_c, 0, 39, 67
2, 602688, Note_off_c, 0, 39, 67
2, 602688, Note_on_c, 0, 46, 67
2, 602752, Note_off_c, 0, 46, 67
2, 602752, Note_on_c, 0, 51, 67
2, 602816, Note_off_c, 0, 51, 67
2, 602816, Control_c, 0, 64, 64
2, 602816, Note_on_c, 0, 55, 67
2, 602826, Note_off_c, 0, 55, 67
2, 602826, Note_on_c, 0, 58, 67
2, 602837, Note_off_c, 0, 58, 67
2, 602837, Note_on_c, 0, 63, 67
2, 602847, Note_off_c, 0, 63, 67
2, 602848, Control_c, 0, 93, 0
2, 602848, Note_on_c, 0, 67, 67
2, 602858, Note_off_c, 0, 67, 67
2, 602858, Note_on_c, 0, 70, 67
2, 602869, Note_off_c, 0, 70, 67
2, 602869, Note_on_c, 0, 75, 67
2, 602879, Note_off_c, 0, 75, 67
2, 602880, Control_c, 0, 93, 0
2, 603008, Control_c, 0, 93, 0
2, 603072, Control_c, 0, 93, 0
2, 603072, Control_c, 0, 64, 0
2, 603136, Control_c, 0, 93, 0
2, 603136, Note_on_c, 0, 51, 67
2, 603200, Note_off_c, 0, 51, 67
2, 603264, Note_off_c, 0, 51, 67
2, 603264, Note_on_c, 0, 63, 67
2, 603328, Note_off_c, 0, 63, 67
2, 603392, Note_off_c, 0, 63, 67
2, 603392, Note_on_c, 0, 50, 67
2, 603456, Note_off_c, 0, 50, 67
2, 603520, Note_off_c, 0, 50, 67
2, 603520, Note_on_c, 0, 62, 67
2, 603584, Note_off_c, 0, 62, 67
2, 603648, Note_off_c, 0, 62, 67
2, 603648, Note_on_c, 0, 48, 67
2, 603712, Note_off_c, 0, 48, 67
2, 603776, Note_off_c, 0, 48, 67
2, 603776, Note_on_c, 0, 60, 67
2, 603840, Note_off_c, 0, 60, 67
2, 603904, Note_off_c, 0, 60, 67
2, 603904, Note_on_c, 0, 46, 67
2, 603968, Note_off_c, 0, 46, 67
2, 604032, Note_off_c, 0, 46, 67
2, 604032, Note_on_c, 0, 58, 67
2, 604096, Note_off_c, 0, 58, 67
2, 604160, Note_off_c, 0, 58, 67
2, 604160, Note_on_c, 0, 51, 67
2, 604224, Note_off_c, 0, 51, 67
2, 604288, Note_off_c, 0, 51, 67
2, 604288, Note_on_c, 0, 63, 67
2, 604352, Note_off_c, 0, 63, 67
2, 604416, Note_off_c, 0, 63, 67
2, 604416, Note_on_c, 0, 46, 67
2, 604480, Note_off_c, 0, 46, 67
2, 604544, Note_off_c, 0, 46, 67
2, 604544, Note_on_c, 0, 58, 67
2, 604608, Note_off_c, 0, 58, 67
2, 604672, Note_off_c, 0, 58, 67
2, 604672, Note_on_c, 0, 48, 67
2, 604736, Note_off_c, 0, 48, 67
2, 604800, Note_off_c, 0, 48, 67
2, 604800, Note_on_c, 0, 60, 67
2, 604864, Note_off_c, 0, 60, 67
2, 604928, Note_off_c, 0, 60, 67
2, 604928, Note_on_c, 0, 46, 67
2, 604992, Note_off_c, 0, 46, 67
2, 605056, Note_off_c, 0, 46, 67
2, 605056, Note_on_c, 0, 58, 67
2, 605120, Note_off_c, 0, 58, 67
2, 605184, Note_off_c, 0, 58, 67
2, 605184, Note_on_c, 0, 50, 67
2, 605248, Note_off_c, 0, 50, 67
2, 605312, Note_off_c, 0, 50, 67
2, 605312, Note_on_c, 0, 62, 67
2, 605376, Note_off_c, 0, 62, 67
2, 605440, Note_off_c, 0, 62, 67
2, 605440, Note_on_c, 0, 46, 67
2, 605504, Note_off_c, 0, 46, 67
2, 605568, Note_off_c, 0, 46, 67
2, 605568, Note_on_c, 0, 58, 67
2, 605632, Note_off_c, 0, 58, 67
2, 605696, Note_off_c, 0, 58, 67
2, 605696, Note_on_c, 0, 48, 67
2, 605760, Note_off_c, 0, 48, 67
2, 605824, Note_off_c, 0, 48, 67
2, 605824, Note_on_c, 0, 60, 67
2, 605888, Note_off_c, 0, 60, 67
2, 605952, Note_off_c, 0, 60, 67
2, 605952, Note_on_c, 0, 49, 67
2, 606016, Note_off_c, 0, 49, 67
2, 606080, Note_off_c, 0, 49, 67
2, 606080, Note_on_c, 0, 61, 67
2, 606144, Note_off_c, 0, 61, 67
2, 606208, Note_off_c, 0, 61, 67
2, 606208, Note_on_c, 0, 50, 67
2, 606272, Note_off_c, 0, 50, 67
2, 606336, Note_off_c, 0, 50, 67
2, 606336, Note_on_c, 0, 62, 67
2, 606400, Note_off_c, 0, 62, 67
2, 606464, Note_off_c, 0, 62, 67
2, 606464, Note_on_c, 0, 46, 67
2, 606528, Note_off_c, 0, 46, 67
2, 606592, Note_off_c, 0, 46, 67
2, 606592, Note_on_c, 0, 58, 67
2, 606656, Note_off_c, 0, 58, 67
2, 606720, Note_off_c, 0, 58, 67
2, 606720, Note_on_c, 0, 51, 67
2, 606784, Note_off_c, 0, 51, 67
2, 606848, Note_off_c, 0, 51, 67
2, 606848, Note_on_c, 0, 63, 67
2, 606912, Note_off_c, 0, 63, 67
2, 606976, Note_off_c, 0, 63, 67
2, 606976, Note_on_c, 0, 46, 67
2, 607040, Note_off_c, 0, 46, 67
2, 607104, Note_off_c, 0, 46, 67
2, 607104, Note_on_c, 0, 58, 67
2, 607168, Note_off_c, 0, 58, 67
2, 607232, Note_off_c, 0, 58, 67
2, 607232, Note_on_c, 0, 51, 67
2, 607296, Note_off_c, 0, 51, 67
2, 607360, Note_off_c, 0, 51, 67
2, 607360, Note_on_c, 0, 63, 67
2, 607424, Note_off_c, 0, 63, 67
2, 607488, Note_off_c, 0, 63, 67
2, 607488, Note_on_c, 0, 50, 67
2, 607552, Note_off_c, 0, 50, 67
2, 607616, Note_off_c, 0, 50, 67
2, 607616, Note_on_c, 0, 62, 67
2, 607680, Note_off_c, 0, 62, 67
2, 607744, Note_off_c, 0, 62, 67
2, 607744, Note_on_c, 0, 48, 67
2, 607808, Note_off_c, 0, 48, 67
2, 607872, Note_off_c, 0, 48, 67
2, 607872, Note_on_c, 0, 60, 67
2, 607936, Note_off_c, 0, 60, 67
2, 608000, Note_off_c, 0, 60, 67
2, 608000, Note_on_c, 0, 46, 67
2, 608064, Note_off_c, 0, 46, 67
2, 608128, Note_off_c, 0, 46, 67
2, 608128, Note_on_c, 0, 58, 67
2, 608192, Note_off_c, 0, 58, 67
2, 608256, Note_off_c, 0, 58, 67
2, 608256, Note_on_c, 0, 51, 67
2, 608320, Note_off_c, 0, 51, 67
2, 608384, Note_off_c, 0, 51, 67
2, 608384, Note_on_c, 0, 63, 67
2, 608448, Note_off_c, 0, 63, 67
2, 608512, Note_off_c, 0, 63, 67
2, 608512, Note_on_c, 0, 46, 67
2, 608576, Note_off_c, 0, 46, 67
2, 608640, Note_off_c, 0, 46, 67
2, 608640, Note_on_c, 0, 58, 67
2, 608704, Note_off_c, 0, 58, 67
2, 608768, Note_off_c, 0, 58, 67
2, 608768, Note_on_c, 0, 48, 67
2, 608832, Note_off_c, 0, 48, 67
2, 608896, Note_off_c, 0, 48, 67
2, 608896, Note_on_c, 0, 60, 67
2, 608960, Note_off_c, 0, 60, 67
2, 609024, Note_off_c, 0, 60, 67
2, 609024, Note_on_c, 0, 46, 67
2, 609088, Note_off_c, 0, 46, 67
2, 609152, Note_off_c, 0, 46, 67
2, 609152, Note_on_c, 0, 58, 67
2, 609216, Note_off_c, 0, 58, 67
2, 609280, Note_off_c, 0, 58, 67
2, 609280, Note_on_c, 0, 50, 67
2, 609344, Note_off_c, 0, 50, 67
2, 609408, Note_off_c, 0, 50, 67
2, 609408, Note_on_c, 0, 62, 67
2, 609472, Note_off_c, 0, 62, 67
2, 609536, Note_off_c, 0, 62, 67
2, 609536, Note_on_c, 0, 48, 67
2, 609600, Note_off_c, 0, 48, 67
2, 609664, Note_off_c, 0, 48, 67
2, 609664, Note_on_c, 0, 60, 67
2, 609728, Note_off_c, 0, 60, 67
2, 609792, Note_off_c, 0, 60, 67
2, 609792, Note_on_c, 0, 46, 67
2, 609856, Note_off_c, 0, 46, 67
2, 609920, Note_off_c, 0, 46, 67
2, 609920, Note_on_c, 0, 58, 67
2, 609984, Note_off_c, 0, 58, 67
2, 610048, Note_off_c, 0, 58, 67
2, 610048, Note_on_c, 0, 48, 67
2, 610112, Note_off_c, 0, 48, 67
2, 610176, Note_off_c, 0, 48, 67
2, 610176, Note_on_c, 0, 60, 67
2, 610240, Note_off_c, 0, 60, 67
2, 610304, Note_off_c, 0, 60, 67
2, 610304, Note_on_c, 0, 50, 67
2, 610368, Note_off_c, 0, 50, 67
2, 610432, Note_off_c, 0, 50, 67
2, 610432, Note_on_c, 0, 62, 67
2, 610496, Note_off_c, 0, 62, 67
2, 610560, Note_off_c, 0, 62, 67
2, 610560, Note_on_c, 0, 46, 67
2, 610624, Note_off_c, 0, 46, 67
2, 610688, Note_off_c, 0, 46, 67
2, 610688, Note_on_c, 0, 58, 67
2, 610752, Note_off_c, 0, 58, 67
2, 610816, Note_off_c, 0, 58, 67
2, 610816, Note_on_c, 0, 51, 67
2, 610880, Note_off_c, 0, 51, 67
2, 610944, Note_off_c, 0, 51, 67
2, 610944, Note_on_c, 0, 63, 67
2, 611008, Note_off_c, 0, 63, 67
2, 611072, Note_off_c, 0, 63, 67
2, 611072, Note_on_c, 0, 46, 67
2, 611136, Note_off_c, 0, 46, 67
2, 611200, Note_off_c, 0, 46, 67
2, 611200, Note_on_c, 0, 58, 67
2, 611264, Note_off_c, 0, 58, 67
2, 611328, Note_off_c, 0, 58, 67
2, 611328, Note_on_c, 0, 39, 67
2, 611392, Note_off_c, 0, 39, 67
2, 611392, Note_on_c, 0, 46, 67
2, 611456, Note_off_c, 0, 46, 67
2, 611456, Note_on_c, 0, 51, 67
2, 611520, Note_off_c, 0, 51, 67
2, 611520, Note_on_c, 0, 53, 67
2, 611584, Note_off_c, 0, 53, 67
2, 611584, Note_on_c, 0, 55, 67
2, 611648, Note_off_c, 0, 55, 67
2, 611648, Note_on_c, 0, 51, 67
2, 611712, Note_off_c, 0, 51, 67
2, 611712, Note_on_c, 0, 58, 67
2, 611776, Note_off_c, 0, 58, 67
2, 611776, Note_on_c, 0, 63, 67
2, 611824, Control_c, 0, 93, 0
2, 611840, Note_off_c, 0, 63, 67
2, 611840, Note_on_c, 0, 44, 67
2, 611904, Note_off_c, 0, 44, 67
2, 611904, Note_on_c, 0, 51, 67
2, 611968, Note_off_c, 0, 51, 67
2, 611968, Note_on_c, 0, 56, 67
2, 612032, Note_off_c, 0, 56, 67
2, 612032, Note_on_c, 0, 58, 67
2, 612096, Note_off_c, 0, 58, 67
2, 612096, Note_on_c, 0, 60, 67
2, 612160, Note_off_c, 0, 60, 67
2, 612160, Note_on_c, 0, 56, 67
2, 612224, Note_off_c, 0, 56, 67
2, 612224, Note_on_c, 0, 63, 67
2, 612288, Note_off_c, 0, 63, 67
2, 612288, Note_on_c, 0, 68, 67
2, 612336, Control_c, 0, 93, 0
2, 612352, Note_off_c, 0, 68, 67
2, 612352, Note_on_c, 0, 46, 67
2, 612416, Note_off_c, 0, 46, 67
2, 612416, Note_on_c, 0, 53, 67
2, 612480, Note_off_c, 0, 53, 67
2, 612480, Note_on_c, 0, 58, 67
2, 612544, Note_off_c, 0, 58, 67
2, 612544, Note_on_c, 0, 60, 67
2, 612608, Note_off_c, 0, 60, 67
2, 612608, Note_on_c, 0, 62, 67
2, 612672, Note_off_c, 0, 62, 67
2, 612672, Note_on_c, 0, 58, 67
2, 612736, Note_off_c, 0, 58, 67
2, 612736, Note_on_c, 0, 65, 67
2, 612800, Note_off_c, 0, 65, 67
2, 612800, Note_on_c, 0, 70, 67
2, 612848, Control_c, 0, 93, 0
2, 612864, Note_off_c, 0, 70, 67
2, 612864, Note_on_c, 0, 41, 67
2, 612928, Note_off_c, 0, 41, 67
2, 612928, Note_on_c, 0, 44, 67
2, 612992, Note_off_c, 0, 44, 67
2, 612992, Control_c, 0, 64, 64
2, 612992, Note_on_c, 0, 50, 67
2, 613013, Note_off_c, 0, 50, 67
2, 613013, Note_on_c, 0, 53, 67
2, 613034, Note_off_c, 0, 53, 67
2, 613034, Note_on_c, 0, 58, 67
2, 613055, Note_off_c, 0, 58, 67
2, 613056, Control_c, 0, 93, 0
2, 613056, Note_on_c, 0, 62, 67
2, 613077, Note_off_c, 0, 62, 67
2, 613077, Note_on_c, 0, 65, 67
2, 613098, Note_off_c, 0, 65, 67
2, 613098, Note_on_c, 0, 70, 67
2, 613120, Control_c, 0, 93, 0
2, 613120, Control_c, 0, 64, 0
2, 613248, Note_off_c, 0, 70, 67
2, 613248, Note_on_c, 0, 51, 67
2, 613312, Note_off_c, 0, 51, 67
2, 613312, Note_on_c, 0, 46, 67
2, 613376, Note_off_c, 0, 46, 67
2, 613376, Note_on_c, 0, 39, 67
2, 613440, Note_off_c, 0, 39, 67
2, 613440, Note_on_c, 0, 46, 67
2, 613504, Note_off_c, 0, 46, 67
2, 613504, Note_on_c, 0, 51, 67
2, 613568, Note_off_c, 0, 51, 67
2, 613568, Note_on_c, 0, 53, 67
2, 613632, Note_off_c, 0, 53, 67
2, 613632, Note_on_c, 0, 55, 67
2, 613696, Note_off_c, 0, 55, 67
2, 613696, Note_on_c, 0, 51, 67
2, 613760, Note_off_c, 0, 51, 67
2, 613760, Note_on_c, 0, 58, 67
2, 613824, Note_off_c, 0, 58, 67
2, 613824, Note_on_c, 0, 63, 67
2, 613872, Control_c, 0, 93, 0
2, 613888, Note_off_c, 0, 63, 67
2, 613888, Note_on_c, 0, 44, 67
2, 613952, Note_off_c, 0, 44, 67
2, 613952, Note_on_c, 0, 51, 67
2, 614016, Note_off_c, 0, 51, 67
2, 614016, Note_on_c, 0, 56, 67
2, 614080, Note_off_c, 0, 56, 67
2, 614080, Note_on_c, 0, 58, 67
2, 614144, Note_off_c, 0, 58, 67
2, 614144, Note_on_c, 0, 60, 67
2, 614208, Note_off_c, 0, 60, 67
2, 614208, Note_on_c, 0, 56, 67
2, 614272, Note_off_c, 0, 56, 67
2, 614272, Note_on_c, 0, 63, 67
2, 614336, Note_off_c, 0, 63, 67
2, 614336, Note_on_c, 0, 68, 67
2, 614384, Control_c, 0, 93, 0
2, 614400, Note_off_c, 0, 68, 67
2, 614400, Note_on_c, 0, 46, 67
2, 614464, Note_off_c, 0, 46, 67
2, 614464, Note_on_c, 0, 53, 67
2, 614528, Note_off_c, 0, 53, 67
2, 614528, Note_on_c, 0, 58, 67
2, 614592, Note_off_c, 0, 58, 67
2, 614592, Note_on_c, 0, 60, 67
2, 614656, Note_off_c, 0, 60, 67
2, 614656, Note_on_c, 0, 62, 67
2, 614720, Note_off_c, 0, 62, 67
2, 614720, Note_on_c, 0, 58, 67
2, 614784, Note_off_c, 0, 58, 67
2, 614784, Note_on_c, 0, 65, 67
2, 614848, Note_off_c, 0, 65, 67
2, 614848, Note_on_c, 0, 70, 67
2, 614896, Control_c, 0, 93, 0
2, 614912, Note_off_c, 0, 70, 67
2, 614912, Note_on_c, 0, 39, 67
2, 614976, Note_off_c, 0, 39, 67
2, 614976, Note_on_c, 0, 46, 67
2, 615040, Note_off_c, 0, 46, 67
2, 615040, Note_on_c, 0, 51, 67
2, 615104, Note_off_c, 0, 51, 67
2, 615104, Control_c, 0, 64, 64
2, 615104, Note_on_c, 0, 55, 67
2, 615114, Note_off_c, 0, 55, 67
2, 615114, Note_on_c, 0, 58, 67
2, 615125, Note_off_c, 0, 58, 67
2, 615125, Note_on_c, 0, 63, 67
2, 615135, Note_off_c, 0, 63, 67
2, 615136, Control_c, 0, 93, 0
2, 615136, Note_on_c, 0, 67, 67
2, 615146, Note_off_c, 0, 67, 67
2, 615146, Note_on_c, 0, 70, 67
2, 615157, Note_off_c, 0, 70, 67
2, 615157, Note_on_c, 0, 75, 67
2, 615167, Note_off_c, 0, 75, 67
2, 615168, Control_c, 0, 93, 0
2, 615296, Control_c, 0, 93, 0
2, 615360, Control_c, 0, 93, 0
2, 615360, Control_c, 0, 64, 0
2, 615424, Control_c, 0, 93, 0
2, 615424, Note_on_c, 0, 51, 67
2, 615488, Note_off_c, 0, 51, 67
2, 615552, Note_off_c, 0, 51, 67
2, 615552, Note_on_c, 0, 63, 67
2, 615616, Note_off_c, 0, 63, 67
2, 615680, Note_off_c, 0, 63, 67
2, 615680, Note_on_c, 0, 50, 67
2, 615744, Note_off_c, 0, 50, 67
2, 615808, Note_off_c, 0, 50, 67
2, 615808, Note_on_c, 0, 62, 67
2, 615872, Note_off_c, 0, 62, 67
2, 615936, Note_off_c, 0, 62, 67
2, 615936, Note_on_c, 0, 48, 67
2, 616000, Note_off_c, 0, 48, 67
2, 616064, Note_off_c, 0, 48, 67
2, 616064, Note_on_c, 0, 60, 67
2, 616128, Note_off_c, 0, 60, 67
2, 616192, Note_off_c, 0, 60, 67
2, 616192, Note_on_c, 0, 46, 67
2, 616256, Note_off_c, 0, 46, 67
2, 616320, Note_off_c, 0, 46, 67
2, 616320, Note_on_c, 0, 58, 67
2, 616384, Note_off_c, 0, 58, 67
2, 616448, Note_off_c, 0, 58, 67
2, 616448, Note_on_c, 0, 51, 67
2, 616512, Note_off_c, 0, 51, 67
2, 616576, Note_off_c, 0, 51, 67
2, 616576, Note_on_c, 0, 63, 67
2, 616640, Note_off_c, 0, 63, 67
2, 616704, Note_off_c, 0, 63, 67
2, 616704, Note_on_c, 0, 46, 67
2, 616768, Note_off_c, 0, 46, 67
2, 616832, Note_off_c, 0, 46, 67
2, 616832, Note_on_c, 0, 58, 67
2, 616896, Note_off_c, 0, 58, 67
2, 616960, Note_off_c, 0, 58, 67
2, 616960, Note_on_c, 0, 48, 67
2, 617024, Note_off_c, 0, 48, 67
2, 617088, Note_off_c, 0, 48, 67
2, 617088, Note_on_c, 0, 60, 67
2, 617152, Note_off_c, 0, 60, 67
2, 617216, Note_off_c, 0, 60, 67
2, 617216, Note_on_c, 0, 46, 67
2, 617280, Note_off_c, 0, 46, 67
2, 617344, Note_off_c, 0, 46, 67
2, 617344, Note_on_c, 0, 58, 67
2, 617408, Note_off_c, 0, 58, 67
2, 617472, Note_off_c, 0, 58, 67
2, 617472, Note_on_c, 0, 50, 67
2, 617536, Note_off_c, 0, 50, 67
2, 617600, Note_off_c, 0, 50, 67
2, 617600, Note_on_c, 0, 62, 67
2, 617664, Note_off_c, 0, 62, 67
2, 617728, Note_off_c, 0, 62, 67
2, 617728, Note_on_c, 0, 46, 67
2, 617792, Note_off_c, 0, 46, 67
2, 617856, Note_off_c, 0, 46, 67
2, 617856, Note_on_c, 0, 58, 67
2, 617920, Note_off_c, 0, 58, 67
2, 617984, Note_off_c, 0, 58, 67
2, 617984, Note_on_c, 0, 48, 67
2, 618048, Note_off_c, 0, 48, 67
2, 618112, Note_off_c, 0, 48, 67
2, 618112, Note_on_c, 0, 60, 67
2, 618176, Note_off_c, 0, 60, 67
2, 618240, Note_off_c, 0, 60, 67
2, 618240, Note_on_c, 0, 49, 67
2, 618304, Note_off_c, 0, 49, 67
2, 618368, Note_off_c, 0, 49, 67
2, 618368, Note_on_c, 0, 61, 67
2, 618432, Note_off_c, 0, 61, 67
2, 618496, Note_off_c, 0, 61, 67
2, 618496, Note_on_c, 0, 50, 67
2, 618560, Note_off_c, 0, 50, 67
2, 618624, Note_off_c, 0, 50, 67
2, 618624, Note_on_c, 0, 62, 67
2, 618688, Note_off_c, 0, 62, 67
2, 618752, Note_off_c, 0, 62, 67
2, 618752, Note_on_c, 0, 46, 67
2, 618816, Note_off_c, 0, 46, 67
2, 618880, Note_off_c, 0, 46, 67
2, 618880, Note_on_c, 0, 58, 67
2, 618944, Note_off_c, 0, 58, 67
2, 619008, Note_off_c, 0, 58, 67
2, 619008, Note_on_c, 0, 51, 67
2, 619072, Note_off_c, 0, 51, 67
2, 619136, Note_off_c, 0, 51, 67
2, 619136, Note_on_c, 0, 63, 67
2, 619200, Note_off_c, 0, 63, 67
2, 619264, Note_off_c, 0, 63, 67
2, 619264, Note_on_c, 0, 46, 67
2, 619328, Note_off_c, 0, 46, 67
2, 619392, Note_off_c, 0, 46, 67
2, 619392, Note_on_c, 0, 58, 67
2, 619456, Note_off_c, 0, 58, 67
2, 619520, Note_off_c, 0, 58, 67
2, 619520, Note_on_c, 0, 51, 67
2, 619584, Note_off_c, 0, 51, 67
2, 619648, Note_off_c, 0, 51, 67
2, 619648, Note_on_c, 0, 63, 67
2, 619712, Note_off_c, 0, 63, 67
2, 619776, Note_off_c, 0, 63, 67
2, 619776, Note_on_c, 0, 50, 67
2, 619840, Note_off_c, 0, 50, 67
2, 619904, Note_off_c, 0, 50, 67
2, 619904, Note_on_c, 0, 62, 67
2, 619968, Note_off_c, 0, 62, 67
2, 620032, Note_off_c, 0, 62, 67
2, 620032, Note_on_c, 0, 48, 67
2, 620096, Note_off_c, 0, 48, 67
2, 620160, Note_off_c, 0, 48, 67
2, 620160, Note_on_c, 0, 60, 67
2, 620224, Note_off_c, 0, 60, 67
2, 620288, Note_off_c, 0, 60, 67
2, 620288, Note_on_c, 0, 46, 67
2, 620352, Note_off_c, 0, 46, 67
2, 620416, Note_off_c, 0, 46, 67
2, 620416, Note_on_c, 0, 58, 67
2, 620480, Note_off_c, 0, 58, 67
2, 620544, Note_off_c, 0, 58, 67
2, 620544, Note_on_c, 0, 51, 67
2, 620608, Note_off_c, 0, 51, 67
2, 620672, Note_off_c, 0, 51, 67
2, 620672, Note_on_c, 0, 63, 67
2, 620736, Note_off_c, 0, 63, 67
2, 620800, Note_off_c, 0, 63, 67
2, 620800, Note_on_c, 0, 46, 67
2, 620864, Note_off_c, 0, 46, 67
2, 620928, Note_off_c, 0, 46, 67
2, 620928, Note_on_c, 0, 58, 67
2, 620992, Note_off_c, 0, 58, 67
2, 621056, Note_off_c, 0, 58, 67
2, 621056, Note_on_c, 0, 48, 67
2, 621120, Note_off_c, 0, 48, 67
2, 621184, Note_off_c, 0, 48, 67
2, 621184, Note_on_c, 0, 60, 67
2, 621248, Note_off_c, 0, 60, 67
2, 621312, Note_off_c, 0, 60, 67
2, 621312, Note_on_c, 0, 46, 67
2, 621376, Note_off_c, 0, 46, 67
2, 621440, Note_off_c, 0, 46, 67
2, 621440, Note_on_c, 0, 58, 67
2, 621504, Note_off_c, 0, 58, 67
2, 621568, Note_off_c, 0, 58, 67
2, 621568, Note_on_c, 0, 50, 67
2, 621632, Note_off_c, 0, 50, 67
2, 621696, Note_off_c, 0, 50, 67
2, 621696, Note_on_c, 0, 62, 67
2, 621760, Note_off_c, 0, 62, 67
2, 621824, Note_off_c, 0, 62, 67
2, 621824, Note_on_c, 0, 48, 67
2, 621888, Note_off_c, 0, 48, 67
2, 621952, Note_off_c, 0, 48, 67
2, 621952, Note_on_c, 0, 60, 67
2, 622016, Note_off_c, 0, 60, 67
2, 622080, Note_off_c, 0, 60, 67
2, 622080, Note_on_c, 0, 46, 67
2, 622144, Note_off_c, 0, 46, 67
2, 622208, Note_off_c, 0, 46, 67
2, 622208, Note_on_c, 0, 58, 67
2, 622272, Note_off_c, 0, 58, 67
2, 622336, Note_off_c, 0, 58, 67
2, 622336, Note_on_c, 0, 48, 67
2, 622400, Note_off_c, 0, 48, 67
2, 622464, Note_off_c, 0, 48, 67
2, 622464, Note_on_c, 0, 60, 67
2, 622528, Note_off_c, 0, 60, 67
2, 622592, Note_off_c, 0, 60, 67
2, 622592, Note_on_c, 0, 50, 67
2, 622656, Note_off_c, 0, 50, 67
2, 622720, Note_off_c, 0, 50, 67
2, 622720, Note_on_c, 0, 62, 67
2, 622784, Note_off_c, 0, 62, 67
2, 622848, Note_off_c, 0, 62, 67
2, 622848, Note_on_c, 0, 46, 67
2, 622912, Note_off_c, 0, 46, 67
2, 622976, Note_off_c, 0, 46, 67
2, 622976, Note_on_c, 0, 58, 67
2, 623040, Note_off_c, 0, 58, 67
2, 623104, Note_off_c, 0, 58, 67
2, 623104, Note_on_c, 0, 51, 67
2, 623168, Note_off_c, 0, 51, 67
2, 623232, Note_off_c, 0, 51, 67
2, 623232, Note_on_c, 0, 63, 67
2, 623296, Note_off_c, 0, 63, 67
2, 623360, Note_off_c, 0, 63, 67
2, 623360, Note_on_c, 0, 46, 67
2, 623424, Note_off_c, 0, 46, 67
2, 623488, Note_off_c, 0, 46, 67
2, 623488, Note_on_c, 0, 58, 67
2, 623552, Note_off_c, 0, 58, 67
2, 623616, Note_off_c, 0, 58, 67
2, 623616, Note_on_c, 0, 39, 67
2, 623680, Note_off_c, 0, 39, 67
2, 623680, Note_on_c, 0, 46, 67
2, 623744, Note_off_c, 0, 46, 67
2, 623744, Note_on_c, 0, 51, 67
2, 623808, Note_off_c, 0, 51, 67
2, 623808, Note_on_c, 0, 53, 67
2, 623872, Note_off_c, 0, 53, 67
2, 623872, Note_on_c, 0, 55, 67
2, 623936, Note_off_c, 0, 55, 67
2, 623936, Note_on_c, 0, 51, 67
2, 624000, Note_off_c, 0, 51, 67
2, 624000, Note_on_c, 0, 58, 67
2, 624064, Note_off_c, 0, 58, 67
2, 624064, Note_on_c, 0, 63, 67
2, 624112, Control_c, 0, 93, 0
2, 624128, Note_off_c, 0, 63, 67
2, 624128, Note_on_c, 0, 44, 67
2, 624192, Note_off_c, 0, 44, 67
2, 624192, Note_on_c, 0, 51, 67
2, 624256, Note_off_c, 0, 51, 67
2, 624256, Note_on_c, 0, 56, 67
2, 624320, Note_off_c, 0, 56, 67
2, 624320, Note_on_c, 0, 58, 67
2, 624384, Note_off_c, 0, 58, 67
2, 624384, Note_on_c, 0, 60, 67
2, 624448, Note_off_c, 0, 60, 67
2, 624448, Note_on_c, 0, 56, 67
2, 624512, Note_off_c, 0, 56, 67
2, 624512, Note_on_c, 0, 63, 67
2, 624576, Note_off_c, 0, 63, 67
2, 624576, Note_on_c, 0, 68, 67
2, 624624, Control_c, 0, 93, 0
2, 624640, Note_off_c, 0, 68, 67
2, 624640, Note_on_c, 0, 46, 67
2, 624704, Note_off_c, 0, 46, 67
2, 624704, Note_on_c, 0, 53, 67
2, 624768, Note_off_c, 0, 53, 67
2, 624768, Note_on_c, 0, 58, 67
2, 624832, Note_off_c, 0, 58, 67
2, 624832, Note_on_c, 0, 60, 67
2, 624896, Note_off_c, 0, 60, 67
2, 624896, Note_on_c, 0, 62, 67
2, 624960, Note_off_c, 0, 62, 67
2, 624960, Note_on_c, 0, 58, 67
2, 625024, Note_off_c, 0, 58, 67
2, 625024, Note_on_c, 0, 65, 67
2, 625088, Note_off_c, 0, 65, 67
2, 625088, Note_on_c, 0, 70, 67
2, 625136, Control_c, 0, 93, 0
2, 625152, Note_off_c, 0, 70, 67
2, 625152, Note_on_c, 0, 41, 67
2, 625216, Note_off_c, 0, 41, 67
2, 625216, Note_on_c, 0, 44, 67
2, 625280, Note_off_c, 0, 44, 67
2, 625280, Control_c, 0, 64, 64
2, 625280, Note_on_c, 0, 50, 67
2, 625301, Note_off_c, 0, 50, 67
2, 625301, Note_on_c, 0, 53, 67
2, 625322, Note_off_c, 0, 53, 67
2, 625322, Note_on_c, 0, 58, 67
2, 625343, Note_off_c, 0, 58, 67
2, 625344, Control_c, 0, 93, 0
2, 625344, Note_on_c, 0, 62, 67
2, 625365, Note_off_c, 0, 62, 67
2, 625365, Note_on_c, 0, 65, 67
2, 625386, Note_off_c, 0, 65, 67
2, 625386, Note_on_c, 0, 70, 67
2, 625408, Control_c, 0, 93, 0
2, 625408, Control_c, 0, 64, 0
2, 625536, Note_off_c, 0, 70, 67
2, 625536, Note_on_c, 0, 51, 67
2, 625600, Note_off_c, 0, 51, 67
2, 625600, Note_on_c, 0, 46, 67
2, 625664, Note_off_c, 0, 46, 67
2, 625664, Note_on_c, 0, 39, 67
2, 625728, Note_off_c, 0, 39, 67
2, 625728, Note_on_c, 0, 46, 67
2, 625792, Note_off_c, 0, 46, 67
2, 625792, Note_on_c, 0, 51, 67
2, 625856, Note_off_c, 0, 51, 67
2, 625856, Note_on_c, 0, 53, 67
2, 625920, Note_off_c, 0, 53, 67
2, 625920, Note_on_c, 0, 55, 67
2, 625984, Note_off_c, 0, 55, 67
2, 625984, Note_on_c, 0, 51, 67
2, 626048, Note_off_c, 0, 51, 67
2, 626048, Note_on_c, 0, 58, 67
2, 626112, Note_off_c, 0, 58, 67
2, 626112, Note_on_c, 0, 63, 67
2, 626160, Control_c, 0, 93, 0
2, 626176, Note_off_c, 0, 63, 67
2, 626176, Note_on_c, 0, 44, 67
2, 626240, Note_off_c, 0, 44, 67
2, 626240, Note_on_c, 0, 51, 67
2, 626304, Note_off_c, 0, 51, 67
2, 626304, Note_on_c, 0, 56, 67
2, 626368, Note_off_c, 0, 56, 67
2, 626368, Note_on_c, 0, 58, 67
2, 626432, Note_off_c, 0, 58, 67
2, 626432, Note_on_c, 0, 60, 67
2, 626496, Note_off_c, 0, 60, 67
2, 626496, Note_on_c, 0, 56, 67
2, 626560, Note_off_c, 0, 56, 67
2, 626560, Note_on_c, 0, 63, 67
2, 626624, Note_off_c, 0, 63, 67
2, 626624, Note_on_c, 0, 68, 67
2, 626672, Control_c, 0, 93, 0
2, 626688, Note_off_c, 0, 68, 67
2, 626688, Note_on_c, 0, 46, 67
2, 626752, Note_off_c, 0, 46, 67
2, 626752, Note_on_c, 0, 53, 67
2, 626816, Note_off_c, 0, 53, 67
2, 626816, Note_on_c, 0, 58, 67
2, 626880, Note_off_c, 0, 58, 67
2, 626880, Note_on_c, 0, 60, 67
2, 626944, Note_off_c, 0, 60, 67
2, 626944, Note_on_c, 0, 62, 67
2, 627008, Note_off_c, 0, 62, 67
2, 627008, Note_on_c, 0, 58, 67
2, 627072, Note_off_c, 0, 58, 67
2, 627072, Note_on_c, 0, 65, 67
2, 627136, Note_off_c, 0, 65, 67
2, 627136, Note_on_c, 0, 70, 67
2, 627184, Control_c, 0, 93, 0
2, 627200, Note_off_c, 0, 70, 67
2, 627200, Note_on_c, 0, 39, 67
2, 627264, Note_off_c, 0, 39, 67
2, 627264, Note_on_c, 0, 46, 67
2, 627328, Note_off_c, 0, 46, 67
2, 627328, Note_on_c, 0, 51, 67
2, 627392, Note_off_c, 0, 51, 67
2, 627392, Control_c, 0, 64, 64
2, 627392, Note_on_c, 0, 55, 67
2, 627402, Note_off_c, 0, 55, 67
2, 627402, Note_on_c, 0, 58, 67
2, 627413, Note_off_c, 0, 58, 67
2, 627413, Note_on_c, 0, 63, 67
2, 627423, Note_off_c, 0, 63, 67
2, 627424, Control_c, 0, 93, 0
2, 627424, Note_on_c, 0, 67, 67
2, 627434, Note_off_c, 0, 67, 67
2, 627434, Note_on_c, 0, 70, 67
2, 627445, Note_off_c, 0, 70, 67
2, 627445, Note_on_c, 0, 75, 67
2, 627455, Note_off_c, 0, 75, 67
2, 627456, Control_c, 0, 93, 0
2, 627584, Control_c, 0, 93, 0
2, 627648, Control_c, 0, 93, 0
2, 627648, Control_c, 0, 64, 0
2, 627712, Control_c, 0, 93, 0
2, 627712, Note_on_c, 0, 51, 67
2, 627776, Note_off_c, 0, 51, 67
2, 627840, Note_off_c, 0, 51, 67
2, 627840, Note_on_c, 0, 63, 67
2, 627904, Note_off_c, 0, 63, 67
2, 627968, Note_off_c, 0, 63, 67
2, 627968, Note_on_c, 0, 50, 67
2, 628032, Note_off_c, 0, 50, 67
2, 628096, Note_off_c, 0, 50, 67
2, 628096, Note_on_c, 0, 62, 67
2, 628160, Note_off_c, 0, 62, 67
2, 628224, Note_off_c, 0, 62, 67
2, 628224, Note_on_c, 0, 48, 67
2, 628288, Note_off_c, 0, 48, 67
2, 628352, Note_off_c, 0, 48, 67
2, 628352, Note_on_c, 0, 60, 67
2, 628416, Note_off_c, 0, 60, 67
2, 628480, Note_off_c, 0, 60, 67
2, 628480, Note_on_c, 0, 46, 67
2, 628544, Note_off_c, 0, 46, 67
2, 628608, Note_off_c, 0, 46, 67
2, 628608, Note_on_c, 0, 58, 67
2, 628672, Note_off_c, 0, 58, 67
2, 628736, Note_off_c, 0, 58, 67
2, 628736, Note_on_c, 0, 51, 67
2, 628800, Note_off_c, 0, 51, 67
2, 628864, Note_off_c, 0, 51, 67
2, 628864, Note_on_c, 0, 63, 67
2, 628928, Note_off_c, 0, 63, 67
2, 628992, Note_off_c, 0, 63, 67
2, 628992, Note_on_c, 0, 46, 67
2, 629056, Note_off_c, 0, 46, 67
2, 629120, Note_off_c, 0, 46, 67
2, 629120, Note_on_c, 0, 58, 67
2, 629184, Note_off_c, 0, 58, 67
2, 629248, Note_off_c, 0, 58, 67
2, 629248, Note_on_c, 0, 48, 67
2, 629312, Note_off_c, 0, 48, 67
2, 629376, Note_off_c, 0, 48, 67
2, 629376, Note_on_c, 0, 60, 67
2, 629440, Note_off_c, 0, 60, 67
2, 629504, Note_off_c, 0, 60, 67
2, 629504, Note_on_c, 0, 46, 67
2, 629568, Note_off_c, 0, 46, 67
2, 629632, Note_off_c, 0, 46, 67
2, 629632, Note_on_c, 0, 58, 67
2, 629696, Note_off_c, 0, 58, 67
2, 629760, Note_off_c, 0, 58, 67
2, 629760, Note_on_c, 0, 50, 67
2, 629824, Note_off_c, 0, 50, 67
2, 629888, Note_off_c, 0, 50, 67
2, 629888, Note_on_c, 0, 62, 67
2, 629952, Note_off_c, 0, 62, 67
2, 630016, Note_off_c, 0, 62, 67
2, 630016, Note_on_c, 0, 46, 67
2, 630080, Note_off_c, 0, 46, 67
2, 630144, Note_off_c, 0, 46, 67
2, 630144, Note_on_c, 0, 58, 67
2, 630208, Note_off_c, 0, 58, 67
2, 630272, Note_off_c, 0, 58, 67
2, 630272, Note_on_c, 0, 48, 67
2, 630336, Note_off_c, 0, 48, 67
2, 630400, Note_off_c, 0, 48, 67
2, 630400, Note_on_c, 0, 60, 67
2, 630464, Note_off_c, 0, 60, 67
2, 630528, Note_off_c, 0, 60, 67
2, 630528, Note_on_c, 0, 49, 67
2, 630592, Note_off_c, 0, 49, 67
2, 630656, Note_off_c, 0, 49, 67
2, 630656, Note_on_c, 0, 61, 67
2, 630720, Note_off_c, 0, 61, 67
2, 630784, Note_off_c, 0, 61, 67
2, 630784, Note_on_c, 0, 50, 67
2, 630848, Note_off_c, 0, 50, 67
2, 630912, Note_off_c, 0, 50, 67
2, 630912, Note_on_c, 0, 62, 67
2, 630976, Note_off_c, 0, 62, 67
2, 631040, Note_off_c, 0, 62, 67
2, 631040, Note_on_c, 0, 46, 67
2, 631104, Note_off_c, 0, 46, 67
2, 631168, Note_off_c, 0, 46, 67
2, 631168, Note_on_c, 0, 58, 67
2, 631232, Note_off_c, 0, 58, 67
2, 631296, Note_off_c, 0, 58, 67
2, 631296, Note_on_c, 0, 51, 67
2, 631360, Note_off_c, 0, 51, 67
2, 631424, Note_off_c, 0, 51, 67
2, 631424, Note_on_c, 0, 63, 67
2, 631488, Note_off_c, 0, 63, 67
2, 631552, Note_off_c, 0, 63, 67
2, 631552, Note_on_c, 0, 46, 67
2, 631616, Note_off_c, 0, 46, 67
2, 631680, Note_off_c, 0, 46, 67
2, 631680, Note_on_c, 0, 58, 67
2, 631744, Note_off_c, 0, 58, 67
2, 631808, Note_off_c, 0, 58, 67
2, 631808, Note_on_c, 0, 51, 67
2, 631872, Note_off_c, 0, 51, 67
2, 631936, Note_off_c, 0, 51, 67
2, 631936, Note_on_c, 0, 63, 67
2, 632000, Note_off_c, 0, 63, 67
2, 632064, Note_off_c, 0, 63, 67
2, 632064, Note_on_c, 0, 50, 67
2, 632128, Note_off_c, 0, 50, 67
2, 632192, Note_off_c, 0, 50, 67
2, 632192, Note_on_c, 0, 62, 67
2, 632256, Note_off_c, 0, 62, 67
2, 632320, Note_off_c, 0, 62, 67
2, 632320, Note_on_c, 0, 48, 67
2, 632384, Note_off_c, 0, 48, 67
2, 632448, Note_off_c, 0, 48, 67
2, 632448, Note_on_c, 0, 60, 67
2, 632512, Note_off_c, 0, 60, 67
2, 632576, Note_off_c, 0, 60, 67
2, 632576, Note_on_c, 0, 46, 67
2, 632640, Note_off_c, 0, 46, 67
2, 632704, Note_off_c, 0, 46, 67
2, 632704, Note_on_c, 0, 58, 67
2, 632768, Note_off_c, 0, 58, 67
2, 632832, Note_off_c, 0, 58, 67
2, 632832, Note_on_c, 0, 51, 67
2, 632896, Note_off_c, 0, 51, 67
2, 632960, Note_off_c, 0, 51, 67
2, 632960, Note_on_c, 0, 63, 67
2, 633024, Note_off_c, 0, 63, 67
2, 633088, Note_off_c, 0, 63, 67
2, 633088, Note_on_c, 0, 46, 67
2, 633152, Note_off_c, 0, 46, 67
2, 633216, Note_off_c, 0, 46, 67
2, 633216, Note_on_c, 0, 58, 67
2, 633280, Note_off_c, 0, 58, 67
2, 633344, Note_off_c, 0, 58, 67
2, 633344, Note_on_c, 0, 48, 67
2, 633408, Note_off_c, 0, 48, 67
2, 633472, Note_off_c, 0, 48, 67
2, 633472, Note_on_c, 0, 60, 67
2, 633536, Note_off_c, 0, 60, 67
2, 633600, Note_off_c, 0, 60, 67
2, 633600, Note_on_c, 0, 46, 67
2, 633664, Note_off_c, 0, 46, 67
2, 633728, Note_off_c, 0, 46, 67
2, 633728, Note_on_c, 0, 58, 67
2, 633792, Note_off_c, 0, 58, 67
2, 633856, Note_off_c, 0, 58, 67
2, 633856, Note_on_c, 0, 50, 67
2, 633920, Note_off_c, 0, 50, 67
2, 633984, Note_off_c, 0, 50, 67
2, 633984, Note_on_c, 0, 62, 67
2, 634048, Note_off_c, 0, 62, 67
2, 634112, Note_off_c, 0, 62, 67
2, 634112, Note_on_c, 0, 48, 67
2, 634176, Note_off_c, 0, 48, 67
2, 634240, Note_off_c, 0, 48, 67
2, 634240, Note_on_c, 0, 60, 67
2, 634304, Note_off_c, 0, 60, 67
2, 634368, Note_off_c, 0, 60, 67
2, 634368, Note_on_c, 0, 46, 67
2, 634432, Note_off_c, 0, 46, 67
2, 634496, Note_off_c, 0, 46, 67
2, 634496, Note_on_c, 0, 58, 67
2, 634560, Note_off_c, 0, 58, 67
2, 634624, Note_off_c, 0, 58, 67
2, 634624, Note_on_c, 0, 48, 67
2, 634688, Note_off_c, 0, 48, 67
2, 634752, Note_off_c, 0, 48, 67
2, 634752, Note_on_c, 0, 60, 67
2, 634816, Note_off_c, 0, 60, 67
2, 634880, Note_off_c, 0, 60, 67
2, 634880, Note_on_c, 0, 50, 67
2, 634944, Note_off_c, 0, 50, 67
2, 635008, Note_off_c, 0, 50, 67
2, 635008, Note_on_c, 0, 62, 67
2, 635072, Note_off_c, 0, 62, 67
2, 635136, Note_off_c, 0, 62, 67
2, 635136, Note_on_c, 0, 46, 67
2, 635200, Note_off_c, 0, 46, 67
2, 635264, Note_off_c, 0, 46, 67
2, 635264, Note_on_c, 0, 58, 67
2, 635328, Note_off_c, 0, 58, 67
2, 635392, Note_off_c, 0, 58, 67
2, 635392, Note_on_c, 0, 51, 67
2, 635456, Note_off_c, 0, 51, 67
2, 635520, Note_off_c, 0, 51, 67
2, 635520, Note_on_c, 0, 63, 67
2, 635584, Note_off_c, 0, 63, 67
2, 635648, Note_off_c, 0, 63, 67
2, 635648, Note_on_c, 0, 46, 67
2, 635712, Note_off_c, 0, 46, 67
2, 635776, Note_off_c, 0, 46, 67
2, 635776, Note_on_c, 0, 58, 67
2, 635840, Note_off_c, 0, 58, 67
2, 635904, Note_off_c, 0, 58, 67
2, 635904, Note_on_c, 0, 39, 67
2, 635968, Note_off_c, 0, 39, 67
2, 635968, Note_on_c, 0, 46, 67
2, 636032, Note_off_c, 0, 46, 67
2, 636032, Note_on_c, 0, 51, 67
2, 636096, Note_off_c, 0, 51, 67
2, 636096, Note_on_c, 0, 53, 67
2, 636160, Note_off_c, 0, 53, 67
2, 636160, Note_on_c, 0, 55, 67
2, 636224, Note_off_c, 0, 55, 67
2, 636224, Note_on_c, 0, 51, 67
2, 636288, Note_off_c, 0, 51, 67
2, 636288, Note_on_c, 0, 58, 67
2, 636352, Note_off_c, 0, 58, 67
2, 636352, Note_on_c, 0, 63, 67
2, 636400, Control_c, 0, 93, 0
2, 636416, Note_off_c, 0, 63, 67
2, 636416, Note_on_c, 0, 44, 67
2, 636480, Note_off_c, 0, 44, 67
2, 636480, Note_on_c, 0, 51, 67
2, 636544, Note_off_c, 0, 51, 67
2, 636544, Note_on_c, 0, 56, 67
2, 636608, Note_off_c, 0, 56, 67
2, 636608, Note_on_c, 0, 58, 67
2, 636672, Note_off_c, 0, 58, 67
2, 636672, Note_on_c, 0, 60, 67
2, 636736, Note_off_c, 0, 60, 67
2, 636736, Note_on_c, 0, 56, 67
2, 636800, Note_off_c, 0, 56, 67
2, 636800, Note_on_c, 0, 63, 67
2, 636864, Note_off_c, 0, 63, 67
2, 636864, Note_on_c, 0, 68, 67
2, 636912, Control_c, 0, 93, 0
2, 636928, Note_off_c, 0, 68, 67
2, 636928, Note_on_c, 0, 46, 67
2, 636992, Note_off_c, 0, 46, 67
2, 636992, Note_on_c, 0, 53, 67
2, 637056, Note_off_c, 0, 53, 67
2, 637056, Note_on_c, 0, 58, 67
2, 637120, Note_off_c, 0, 58, 67
2, 637120, Note_on_c, 0, 60, 67
2, 637184, Note_off_c, 0, 60, 67
2, 637184, Note_on_c, 0, 62, 67
2, 637248, Note_off_c, 0, 62, 67
2, 637248, Note_on_c, 0, 58, 67
2, 637312, Note_off_c, 0, 58, 67
2, 637312, Note_on_c, 0, 65, 67
2, 637376, Note_off_c, 0, 65, 67
2, 637376, Note_on_c, 0, 70, 67
2, 637424, Control_c, 0, 93, 0
2, 637440, Note_off_c, 0, 70, 67
2, 637440, Note_on_c, 0, 41, 67
2, 637504, Note_off_c, 0, 41, 67
2, 637504, Note_on_c, 0, 44, 67
2, 637568, Note_off_c, 0, 44, 67
2, 637568, Control_c, 0, 64, 64
2, 637568, Note_on_c, 0, 50, 67
2, 637589, Note_off_c, 0, 50, 67
2, 637589, Note_on_c, 0, 53, 67
2, 637610, Note_off_c, 0, 53, 67
2, 637610, Note_on_c, 0, 58, 67
2, 637631, Note_off_c, 0, 58, 67
2, 637632, Control_c, 0, 93, 0
2, 637632, Note_on_c, 0, 62, 67
2, 637653, Note_off_c, 0, 62, 67
2, 637653, Note_on_c, 0, 65, 67
2, 637674, Note_off_c, 0, 65, 67
2, 637674, Note_on_c, 0, 70, 67
2, 637696, Control_c, 0, 93, 0
2, 637696, Control_c, 0, 64, 0
2, 637824, Note_off_c, 0, 70, 67
2, 637824, Note_on_c, 0, 51, 67
2, 637888, Note_off_c, 0, 51, 67
2, 637888, Note_on_c, 0, 46, 67
2, 637952, Note_off_c, 0, 46, 67
2, 637952, Note_on_c, 0, 39, 67
2, 638016, Note_off_c, 0, 39, 67
2, 638016, Note_on_c, 0, 46, 67
2, 638080, Note_off_c, 0, 46, 67
2, 638080, Note_on_c, 0, 51, 67
2, 638144, Note_off_c, 0, 51, 67
2, 638144, Note_on_c, 0, 53, 67
2, 638208, Note_off_c, 0, 53, 67
2, 638208, Note_on_c, 0, 55, 67
2, 638272, Note_off_c, 0, 55, 67
2, 638272, Note_on_c, 0, 51, 67
2, 638336, Note_off_c, 0, 51, 67
2, 638336, Note_on_c, 0, 58, 67
2, 638400, Note_off_c, 0, 58, 67
2, 638400, Note_on_c, 0, 63, 67
2, 638448, Control_c, 0, 93, 0
2, 638464, Note_off_c, 0, 63, 67
2, 638464, Note_on_c, 0, 44, 67
2, 638528, Note_off_c, 0, 44, 67
2, 638528, Note_on_c, 0, 51, 67
2, 638592, Note_off_c, 0, 51, 67
2, 638592, Note_on_c, 0, 56, 67
2, 638656, Note_off_c, 0, 56, 67
2, 638656, Note_on_c, 0, 58, 67
2, 638720, Note_off_c, 0, 58, 67
2, 638720, Note_on_c, 0, 60, 67
2, 638784, Note_off_c, 0, 60, 67
2, 638784, Note_on_c, 0, 56, 67
2, 638848, Note_off_c, 0, 56, 67
2, 638848, Note_on_c, 0, 63, 67
2, 638912, Note_off_c, 0, 63, 67
2, 638912, Note_on_c, 0, 68, 67
2, 638960, Control_c, 0, 93, 0
2, 638976, Note_off_c, 0, 68, 67
2, 638976, Note_on_c, 0, 46, 67
2, 639040, Note_off_c, 0, 46, 67
2, 639040, Note_on_c, 0, 53, 67
2, 639104, Note_off_c, 0, 53, 67
2, 639104, Note_on_c, 0, 58, 67
2, 639168, Note_off_c, 0, 58, 67
2, 639168, Note_on_c, 0, 60, 67
2, 639232, Note_off_c, 0, 60, 67
2, 639232, Note_on_c, 0, 62, 67
2, 639296, Note_off_c, 0, 62, 67
2, 639296, Note_on_c, 0, 58, 67
2, 639360, Note_off_c, 0, 58, 67
2, 639360, Note_on_c, 0, 65, 67
2, 639424, Note_off_c, 0, 65, 67
2, 639424, Note_on_c, 0, 70, 67
2, 639472, Control_c, 0, 93, 0
2, 639488, Note_off_c, 0, 70, 67
2, 639488, Note_on_c, 0, 39, 67
2, 639552, Note_off_c, 0, 39, 67
2, 639552, Note_on_c, 0, 46, 67
2, 639616, Note_off_c, 0, 46, 67
2, 639616, Note_on_c, 0, 51, 67
2, 639680, Note_off_c, 0, 51, 67
2, 639680, Control_c, 0, 64, 64
2, 639680, Note_on_c, 0, 55, 67
2, 639690, Note_off_c, 0, 55, 67
2, 639690, Note_on_c, 0, 58, 67
2, 639701, Note_off_c, 0, 58, 67
2, 639701, Note_on_c, 0, 63, 67
2, 639711, Note_off_c, 0, 63, 67
2, 639712, Control_c, 0, 93, 0
2, 639712, Note_on_c, 0, 67, 67
2, 639722, Note_off_c, 0, 67, 67
2, 639722, Note_on_c, 0, 70, 67
2, 639733, Note_off_c, 0, 70, 67
2, 639733, Note_on_c, 0, 75, 67
2, 639743, Note_off_c, 0, 75, 67
2, 639744, Control_c, 0, 93, 0
2, 639872, Control_c, 0, 93, 0
2, 639936, Control_c, 0, 93, 0
2, 639936, Control_c, 0, 64, 0
2, 640000, Control_c, 0, 93, 0
2, 640000, Note_on_c, 0, 51, 67
2, 640064, Note_off_c, 0, 51, 67
2, 640128, Note_off_c, 0, 51, 67
2, 640128, Note_on_c, 0, 63, 67
2, 640192, Note_off_c, 0, 63, 67
2, 640256, Note_off_c, 0, 63, 67
2, 640256, Note_on_c, 0, 50, 67
2, 640320, Note_off_c, 0, 50, 67
2, 640384, Note_off_c, 0, 50, 67
2, 640384, Note_on_c, 0, 62, 67
2, 640448, Note_off_c, 0, 62, 67
2, 640512, Note_off_c, 0, 62, 67
2, 640512, Note_on_c, 0, 48, 67
2, 640576, Note_off_c, 0, 48, 67
2, 640640, Note_off_c, 0, 48, 67
2, 640640, Note_on_c, 0, 60, 67
2, 640704, Note_off_c, 0, 60, 67
2, 640768, Note_off_c, 0, 60, 67
2, 640768, Note_on_c, 0, 46, 67
2, 640832, Note_off_c, 0, 46, 67
2, 640896, Note_off_c, 0, 46, 67
2, 640896, Note_on_c, 0, 58, 67
2, 640960, Note_off_c, 0, 58, 67
2, 641024, Note_off_c, 0, 58, 67
2, 641024, Note_on_c, 0, 51, 67
2, 641088, Note_off_c, 0, 51, 67
2, 641152, Note_off_c, 0, 51, 67
2, 641152, Note_on_c, 0, 63, 67
2, 641216, Note_off_c, 0, 63, 67
2, 641280, Note_off_c, 0, 63, 67
2, 641280, Note_on_c, 0, 46, 67
2, 641344, Note_off_c, 0, 46, 67
2, 641408, Note_off_c, 0, 46, 67
2, 641408, Note_on_c, 0, 58, 67
2, 641472, Note_off_c, 0, 58, 67
2, 641536, Note_off_c, 0, 58, 67
2, 641536, Note_on_c, 0, 48, 67
2, 641600, Note_off_c, 0, 48, 67
2, 641664, Note_off_c, 0, 48, 67
2, 641664, Note_on_c, 0, 60, 67
2, 641728, Note_off_c, 0, 60, 67
2, 641792, Note_off_c, 0, 60, 67
2, 641792, Note_on_c, 0, 46, 67
2, 641856, Note_off_c, 0, 46, 67
2, 641920, Note_off_c, 0, 46, 67
2, 641920, Note_on_c, 0, 58, 67
2, 641984, Note_off_c, 0, 58, 67
2, 642048, Note_off_c, 0, 58, 67
2, 642048, Note_on_c, 0, 50, 67
2, 642112, Note_off_c, 0, 50, 67
2, 642176, Note_off_c, 0, 50, 67
2, 642176, Note_on_c, 0, 62, 67
2, 642240, Note_off_c, 0, 62, 67
2, 642304, Note_off_c, 0, 62, 67
2, 642304, Note_on_c, 0, 46, 67
2, 642368, Note_off_c, 0, 46, 67
2, 642432, Note_off_c, 0, 46, 67
2, 642432, Note_on_c, 0, 58, 67
2, 642496, Note_off_c, 0, 58, 67
2, 642560, Note_off_c, 0, 58, 67
2, 642560, Note_on_c, 0, 48, 67
2, 642624, Note_off_c, 0, 48, 67
2, 642688, Note_off_c, 0, 48, 67
2, 642688, Note_on_c, 0, 60, 67
2, 642752, Note_off_c, 0, 60, 67
2, 642816, Note_off_c, 0, 60, 67
2, 642816, Note_on_c, 0, 49, 67
2, 642880, Note_off_c, 0, 49, 67
2, 642944, Note_off_c, 0, 49, 67
2, 642944, Note_on_c, 0, 61, 67
2, 643008, Note_off_c, 0, 61, 67
2, 643072, Note_off_c, 0, 61, 67
2, 643072, Note_on_c, 0, 50, 67
2, 643136, Note_off_c, 0, 50, 67
2, 643200, Note_off_c, 0, 50, 67
2, 643200, Note_on_c, 0, 62, 67
2, 643264, Note_off_c, 0, 62, 67
2, 643328, Note_off_c, 0, 62, 67
2, 643328, Note_on_c, 0, 46, 67
2, 643392, Note_off_c, 0, 46, 67
2, 643456, Note_off_c, 0, 46, 67
2, 643456, Note_on_c, 0, 58, 67
2, 643520, Note_off_c, 0, 58, 67
2, 643584, Note_off_c, 0, 58, 67
2, 643584, Note_on_c, 0, 51, 67
2, 643648, Note_off_c, 0, 51, 67
2, 643712, Note_off_c, 0, 51, 67
2, 643712, Note_on_c, 0, 63, 67
2, 643776, Note_off_c, 0, 63, 67
2, 643840, Note_off_c, 0, 63, 67
2, 643840, Note_on_c, 0, 46, 67
2, 643904, Note_off_c, 0, 46, 67
2, 643968, Note_off_c, 0, 46, 67
2, 643968, Note_on_c, 0, 58, 67
2, 644032, Note_off_c, 0, 58, 67
2, 644096, Note_off_c, 0, 58, 67
2, 644096, Note_on_c, 0, 51, 67
2, 644160, Note_off_c, 0, 51, 67
2, 644224, Note_off_c, 0, 51, 67
2, 644224, Note_on_c, 0, 63, 67
2, 644288, Note_off_c, 0, 63, 67
2, 644352, Note_off_c, 0, 63, 67
2, 644352, Note_on_c, 0, 50, 67
2, 644416, Note_off_c, 0, 50, 67
2, 644480, Note_off_c, 0, 50, 67
2, 644480, Note_on_c, 0, 62, 67
2, 644544, Note_off_c, 0, 62, 67
2, 644608, Note_off_c, 0, 62, 67
2, 644608, Note_on_c, 0, 48, 67
2, 644672, Note_off_c, 0, 48, 67
2, 644736, Note_off_c, 0, 48, 67
2, 644736, Note_on_c, 0, 60, 67
2, 644800, Note_off_c, 0, 60, 67
2, 644864, Note_off_c, 0, 60, 67
2, 644864, Note_on_c, 0, 46, 67
2, 644928, Note_off_c, 0, 46, 67
2, 644992, Note_off_c, 0, 46, 67
2, 644992, Note_on_c, 0, 58, 67
2, 645056, Note_off_c, 0, 58, 67
2, 645120, Note_off_c, 0, 58, 67
2, 645120, Note_on_c, 0, 51, 67
2, 645184, Note_off_c, 0, 51, 67
2, 645248, Note_off_c, 0, 51, 67
2, 645248, Note_on_c, 0, 63, 67
2, 645312, Note_off_c, 0, 63, 67
2, 645376, Note_off_c, 0, 63, 67
2, 645376, Note_on_c, 0, 46, 67
2, 645440, Note_off_c, 0, 46, 67
2, 645504, Note_off_c, 0, 46, 67
2, 645504, Note_on_c, 0, 58, 67
2, 645568, Note_off_c, 0, 58, 67
2, 645632, Note_off_c, 0, 58, 67
2, 645632, Note_on_c, 0, 48, 67
2, 645696, Note_off_c, 0, 48, 67
2, 645760, Note_off_c, 0, 48, 67
2, 645760, Note_on_c, 0, 60, 67
2, 645824, Note_off_c, 0, 60, 67
2, 645888, Note_off_c, 0, 60, 67
2, 645888, Note_on_c, 0, 46, 67
2, 645952, Note_off_c, 0, 46, 67
2, 646016, Note_off_c, 0, 46, 67
2, 646016, Note_on_c, 0, 58, 67
2, 646080, Note_off_c, 0, 58, 67
2, 646144, Note_off_c, 0, 58, 67
2, 646144, Note_on_c, 0, 50, 67
2, 646208, Note_off_c, 0, 50, 67
2, 646272, Note_off_c, 0, 50, 67
2, 646272, Note_on_c, 0, 62, 67
2, 646336, Note_off_c, 0, 62, 67
2, 646400, Note_off_c, 0, 62, 67
2, 646400, Note_on_c, 0, 48, 67
2, 646464, Note_off_c, 0, 48, 67
2, 646528, Note_off_c, 0, 48, 67
2, 646528, Note_on_c, 0, 60, 67
2, 646592, Note_off_c, 0, 60, 67
2, 646656, Note_off_c, 0, 60, 67
2, 646656, Note_on_c, 0, 46, 67
2, 646720, Note_off_c, 0, 46, 67
2, 646784, Note_off_c, 0, 46, 67
2, 646784, Note_on_c, 0, 58, 67
2, 646848, Note_off_c, 0, 58, 67
2, 646912, Note_off_c, 0, 58, 67
2, 646912, Note_on_c, 0, 48, 67
2, 646976, Note_off_c, 0, 48, 67
2, 647040, Note_off_c, 0, 48, 67
2, 647040, Note_on_c, 0, 60, 67
2, 647104, Note_off_c, 0, 60, 67
2, 647168, Note_off_c, 0, 60, 67
2, 647168, Note_on_c, 0, 50, 67
2, 647232, Note_off_c, 0, 50, 67
2, 647296, Note_off_c, 0, 50, 67
2, 647296, Note_on_c, 0, 62, 67
2, 647360, Note_off_c, 0, 62, 67
2, 647424, Note_off_c, 0, 62, 67
2, 647424, Note_on_c, 0, 46, 67
2, 647488, Note_off_c, 0, 46, 67
2, 647552, Note_off_c, 0, 46, 67
2, 647552, Note_on_c, 0, 58, 67
2, 647616, Note_off_c, 0, 58, 67
2, 647680, Note_off_c, 0, 58, 67
2, 647680, Note_on_c, 0, 51, 67
2, 647744, Note_off_c, 0, 51, 67
2, 647808, Note_off_c, 0, 51, 67
2, 647808, Note_on_c, 0, 63, 67
2, 647872, Note_off_c, 0, 63, 67
2, 647936, Note_off_c, 0, 63, 67
2, 647936, Note_on_c, 0, 46, 67
2, 648000, Note_off_c, 0, 46, 67
2, 648064, Note_off_c, 0, 46, 67
2, 648064, Note_on_c, 0, 58, 67
2, 648128, Note_off_c, 0, 58, 67
2, 648192, Note_off_c, 0, 58, 67
2, 648192, Note_on_c, 0, 39, 67
2, 648256, Note_off_c, 0, 39, 67
2, 648256, Note_on_c, 0, 46, 67
2, 648320, Note_off_c, 0, 46, 67
2, 648320, Note_on_c, 0, 51, 67
2, 648384, Note_off_c, 0, 51, 67
2, 648384, Note_on_c, 0, 53, 67
2, 648448, Note_off_c, 0, 53, 67
2, 648448, Note_on_c, 0, 55, 67
2, 648512, Note_off_c, 0, 55, 67
2, 648512, Note_on_c, 0, 51, 67
2, 648576, Note_off_c, 0, 51, 67
2, 648576, Note_on_c, 0, 58, 67
2, 648640, Note_off_c, 0, 58, 67
2, 648640, Note_on_c, 0, 63, 67
2, 648688, Control_c, 0, 93, 0
2, 648704, Note_off_c, 0, 63, 67
2, 648704, Note_on_c, 0, 44, 67
2, 648768, Note_off_c, 0, 44, 67
2, 648768, Note_on_c, 0, 51, 67
2, 648832, Note_off_c, 0, 51, 67
2, 648832, Note_on_c, 0, 56, 67
2, 648896, Note_off_c, 0, 56, 67
2, 648896, Note_on_c, 0, 58, 67
2, 648960, Note_off_c, 0, 58, 67
2, 648960, Note_on_c, 0, 60, 67
2, 649024, Note_off_c, 0, 60, 67
2, 649024, Note_on_c, 0, 56, 67
2, 649088, Note_off_c, 0, 56, 67
2, 649088, Note_on_c, 0, 63, 67
2, 649152, Note_off_c, 0, 63, 67
2, 649152, Note_on_c, 0, 68, 67
2, 649200, Control_c, 0, 93, 0
2, 649216, Note_off_c, 0, 68, 67
2, 649216, Note_on_c, 0, 46, 67
2, 649280, Note_off_c, 0, 46, 67
2, 649280, Note_on_c, 0, 53, 67
2, 649344, Note_off_c, 0, 53, 67
2, 649344, Note_on_c, 0, 58, 67
2, 649408, Note_off_c, 0, 58, 67
2, 649408, Note_on_c, 0, 60, 67
2, 649472, Note_off_c, 0, 60, 67
2, 649472, Note_on_c, 0, 62, 67
2, 649536, Note_off_c, 0, 62, 67
2, 649536, Note_on_c, 0, 58, 67
2, 649600, Note_off_c, 0, 58, 67
2, 649600, Note_on_c, 0, 65, 67
2, 649664, Note_off_c, 0, 65, 67
2, 649664, Note_on_c, 0, 70, 67
2, 649712, Control_c, 0, 93, 0
2, 649728, Note_off_c, 0, 70, 67
2, 649728, Note_on_c, 0, 41, 67
2, 649792, Note_off_c, 0, 41, 67
2, 649792, Note_on_c, 0, 44, 67
2, 649856, Note_off_c, 0, 44, 67
2, 649856, Control_c, 0, 64, 64
2, 649856, Note_on_c, 0, 50, 67
2, 649877, Note_off_c, 0, 50, 67
2, 649877, Note_on_c, 0, 53, 67
2, 649898, Note_off_c, 0, 53, 67
2, 649898, Note_on_c, 0, 58, 67
2, 649919, Note_off_c, 0, 58, 67
2, 649920, Control_c, 0, 93, 0
2, 649920, Note_on_c, 0, 62, 67
2, 649941, Note_off_c, 0, 62, 67
2, 649941, Note_on_c, 0, 65, 67
2, 649962, Note_off_c, 0, 65, 67
2, 649962, Note_on_c, 0, 70, 67
2, 649984, Control_c, 0, 93, 0
2, 649984, Control_c, 0, 64, 0
2, 650112, Note_off_c, 0, 70, 67
2, 650112, Note_on_c, 0, 51, 67
2, 650176, Note_off_c, 0, 51, 67
2, 650176, Note_on_c, 0, 46, 67
2, 650240, Note_off_c, 0, 46, 67
2, 650240, Note_on_c, 0, 39, 67
2, 650304, Note_off_c, 0, 39, 67
2, 650304, Note_on_c, 0, 46, 67
2, 650368, Note_off_c, 0, 46, 67
2, 650368, Note_on_c, 0, 51, 67
2, 650432, Note_off_c, 0, 51, 67
2, 650432, Note_on_c, 0, 53, 67
2, 650496, Note_off_c, 0, 53, 67
2, 650496, Note_on_c, 0, 55, 67
2, 650560, Note_off_c, 0, 55, 67
2, 650560, Note_on_c, 0, 51, 67
2, 650624, Note_off_c, 0, 51, 67
2, 650624, Note_on_c, 0, 58, 67
2, 650688, Note_off_c, 0, 58, 67
2, 650688, Note_on_c, 0, 63, 67
2, 650736, Control_c, 0, 93, 0
2, 650752, Note_off_c, 0, 63, 67
2, 650752, Note_on_c, 0, 44, 67
2, 650816, Note_off_c, 0, 44, 67
2, 650816, Note_on_c, 0, 51, 67
2, 650880, Note_off_c, 0, 51, 67
2, 650880, Note_on_c, 0, 56, 67
2, 650944, Note_off_c, 0, 56, 67
2, 650944, Note_on_c, 0, 58, 67
2, 651008, Note_off_c, 0, 58, 67
2, 651008, Note_on_c, 0, 60, 67
2, 651072, Note_off_c, 0, 60, 67
2, 651072, Note_on_c, 0, 56, 67
2, 651136, Note_off_c, 0, 56, 67
2, 651136, Note_on_c, 0, 63, 67
2, 651200, Note_off_c, 0, 63, 67
2, 651200, Note_on_c, 0, 68, 67
2, 651248, Control_c, 0, 93, 0
2, 651264, Note_off_c, 0, 68, 67
2, 651264, Note_on_c, 0, 46, 67
2, 651328, Note_off_c, 0, 46, 67
2, 651328, Note_on_c, 0, 53, 67
2, 651392, Note_off_c, 0, 53, 67
2, 651392, Note_on_c, 0, 58, 67
2, 651456, Note_off_c, 0, 58, 67
2, 651456, Note_on_c, 0, 60, 67
2, 651520, Note_off_c, 0, 60, 67
2, 651520, Note_on_c, 0, 62, 67
2, 651584, Note_off_c, 0, 62, 67
2, 651584, Note_on_c, 0, 58, 67
2, 651648, Note_off_c, 0, 58, 67
2, 651648, Note_on_c, 0, 65, 67
2, 651712, Note_off_c, 0, 65, 67
2, 651712, Note_on_c, 0, 70, 67
2, 651760, Control_c, 0, 93, 0
2, 651776, Note_off_c, 0, 70, 67
2, 651776, Note_on_c, 0, 39, 67
2, 651840, Note_off_c, 0, 39, 67
2, 651840, Note_on_c, 0, 46, 67
2, 651904, Note_off_c, 0, 46, 67
2, 651904, Note_on_c, 0, 51, 67
2, 651968, Note_off_c, 0, 51, 67
2, 651968, Control_c, 0, 64, 64
2, 651968, Note_on_c, 0, 55, 67
2, 651978, Note_off_c, 0, 55, 67
2, 651978, Note_on_c, 0, 58, 67
2, 651989, Note_off_c, 0, 58, 67
2, 651989, Note_on_c, 0, 63, 67
2, 651999, Note_off_c, 0, 63, 67
2, 652000, Control_c, 0, 93, 0
2, 652000, Note_on_c, 0, 67, 67
2, 652010, Note_off_c, 0, 67, 67
2, 652010, Note_on_c, 0, 70, 67
2, 652021, Note_off_c, 0, 70, 67
2, 652021, Note_on_c, 0, 75, 67
2, 652031, Note_off_c, 0, 75, 67
2, 652032, Control_c, 0, 93, 0
2, 652160, Control_c, 0, 93, 0
2, 652224, Control_c, 0, 93, 0
2, 652224, Control_c, 0, 64, 0
2, 652288, Control_c, 0, 93, 0
2, 652288, Note_on_c, 0, 51, 67
2, 652352, Note_off_c, 0, 51, 67
2, 652416, Note_off_c, 0, 51, 67
2, 652416, Note_on_c, 0, 63, 67
2, 652480, Note_off_c, 0, 63, 67
2, 652544, Note_off_c, 0, 63, 67
2, 652544, Note_on_c, 0, 50, 67
2, 652608, Note_off_c, 0, 50, 67
2, 652672, Note_off_c, 0, 50, 67
2, 652672, Note_on_c, 0, 62, 67
2, 652736, Note_off_c, 0, 62, 67
2, 652800, Note_off_c, 0, 62, 67
2, 652800, Note_on_c, 0, 48, 67
2, 652864, Note_off_c, 0, 48, 67
2, 652928, Note_off_c, 0, 48, 67
2, 652928, Note_on_c, 0, 60, 67
2, 652992, Note_off_c, 0, 60, 67
2, 653056, Note_off_c, 0, 60, 67
2, 653056, Note_on_c, 0, 46, 67
2, 653120, Note_off_c, 0, 46, 67
2, 653184, Note_off_c, 0, 46, 67
2, 653184, Note_on_c, 0, 58, 67
2, 653248, Note_off_c, 0, 58, 67
2, 653312, Note_off_c, 0, 58, 67
2, 653312, Note_on_c, 0, 51, 67
2, 653376, Note_off_c, 0, 51, 67
2, 653440, Note_off_c, 0, 51, 67
2, 653440, Note_on_c, 0, 63, 67
2, 653504, Note_off_c, 0, 63, 67
2, 653568, Note_off_c, 0, 63, 67
2, 653568, Note_on_c, 0, 46, 67
2, 653632, Note_off_c, 0, 46, 67
2, 653696, Note_off_c, 0, 46, 67
2, 653696, Note_on_c, 0, 58, 67
2, 653760, Note_off_c, 0, 58, 67
2, 653824, Note_off_c, 0, 58, 67
2, 653824, Note_on_c, 0, 48, 67
2, 653888, Note_off_c, 0, 48, 67
2, 653952, Note_off_c, 0, 48, 67
2, 653952, Note_on_c, 0, 60, 67
2, 654016, Note_off_c, 0, 60, 67
2, 654080, Note_off_c, 0, 60, 67
2, 654080, Note_on_c, 0, 46, 67
2, 654144, Note_off_c, 0, 46, 67
2, 654208, Note_off_c, 0, 46, 67
2, 654208, Note_on_c, 0, 58, 67
2, 654272, Note_off_c, 0, 58, 67
2, 654336, Note_off_c, 0, 58, 67
2, 654336, Note_on_c, 0, 50, 67
2, 654400, Note_off_c, 0, 50, 67
2, 654464, Note_off_c, 0, 50, 67
2, 654464, Note_on_c, 0, 62, 67
2, 654528, Note_off_c, 0, 62, 67
2, 654592, Note_off_c, 0, 62, 67
2, 654592, Note_on_c, 0, 46, 67
2, 654656, Note_off_c, 0, 46, 67
2, 654720, Note_off_c, 0, 46, 67
2, 654720, Note_on_c, 0, 58, 67
2, 654784, Note_off_c, 0, 58, 67
2, 654848, Note_off_c, 0, 58, 67
2, 654848, Note_on_c, 0, 48, 67
2, 654912, Note_off_c, 0, 48, 67
2, 654976, Note_off_c, 0, 48, 67
2, 654976, Note_on_c, 0, 60, 67
2, 655040, Note_off_c, 0, 60, 67
2, 655104, Note_off_c, 0, 60, 67
2, 655104, Note_on_c, 0, 49, 67
2, 655168, Note_off_c, 0, 49, 67
2, 655232, Note_off_c, 0, 49, 67
2, 655232, Note_on_c, 0, 61, 67
2, 655296, Note_off_c, 0, 61, 67
2, 655360, Note_off_c, 0, 61, 67
2, 655360, Note_on_c, 0, 50, 67
2, 655424, Note_off_c, 0, 50, 67
2, 655488, Note_off_c, 0, 50, 67
2, 655488, Note_on_c, 0, 62, 67
2, 655552, Note_off_c, 0, 62, 67
2, 655616, Note_off_c, 0, 62, 67
2, 655616, Note_on_c, 0, 46, 67
2, 655680, Note_off_c, 0, 46, 67
2, 655744, Note_off_c, 0, 46, 67
2, 655744, Note_on_c, 0, 58, 67
2, 655808, Note_off_c, 0, 58, 67
2, 655872, Note_off_c, 0, 58, 67
2, 655872, Note_on_c, 0, 51, 67
2, 655936, Note_off_c, 0, 51, 67
2, 656000, Note_off_c, 0, 51, 67
2, 656000, Note_on_c, 0, 63, 67
2, 656064, Note_off_c, 0, 63, 67
2, 656128, Note_off_c, 0, 63, 67
2, 656128, Note_on_c, 0, 46, 67
2, 656192, Note_off_c, 0, 46, 67
2, 656256, Note_off_c, 0, 46, 67
2, 656256, Note_on_c, 0, 58, 67
2, 656320, Note_off_c, 0, 58, 67
2, 656384, Note_off_c, 0, 58, 67
2, 656384, Note_on_c, 0, 51, 67
2, 656448, Note_off_c, 0, 51, 67
2, 656512, Note_off_c, 0, 51, 67
2, 656512, Note_on_c, 0, 63, 67
2, 656576, Note_off_c, 0, 63, 67
2, 656640, Note_off_c, 0, 63, 67
2, 656640, Note_on_c, 0, 50, 67
2, 656704, Note_off_c, 0, 50, 67
2, 656768, Note_off_c, 0, 50, 67
2, 656768, Note_on_c, 0, 62, 67
2, 656832, Note_off_c, 0, 62, 67
2, 656896, Note_off_c, 0, 62, 67
2, 656896, Note_on_c, 0, 48, 67
2, 656960, Note_off_c, 0, 48, 67
2, 657024, Note_off_c, 0, 48, 67
2, 657024, Note_on_c, 0, 60, 67
2, 657088, Note_off_c, 0, 60, 67
2, 657152, Note_off_c, 0, 60, 67
2, 657152, Note_on_c, 0, 46, 67
2, 657216, Note_off_c, 0, 46, 67
2, 657280, Note_off_c, 0, 46, 67
2, 657280, Note_on_c, 0, 58, 67
2, 657344, Note_off_c, 0, 58, 67
2, 657408, Note_off_c, 0, 58, 67
2, 657408, Note_on_c, 0, 51, 67
2, 657472, Note_off_c, 0, 51, 67
2, 657536, Note_off_c, 0, 51, 67
2, 657536, Note_on_c, 0, 63, 67
2, 657600, Note_off_c, 0, 63, 67
2, 657664, Note_off_c, 0, 63, 67
2, 657664, Note_on_c, 0, 46, 67
2, 657728, Note_off_c, 0, 46, 67
2, 657792, Note_off_c, 0, 46, 67
2, 657792, Note_on_c, 0, 58, 67
2, 657856, Note_off_c, 0, 58, 67
2, 657920, Note_off_c, 0, 58, 67
2, 657920, Note_on_c, 0, 48, 67
2, 657984, Note_off_c, 0, 48, 67
2, 658048, Note_off_c, 0, 48, 67
2, 658048, Note_on_c, 0, 60, 67
2, 658112, Note_off_c, 0, 60, 67
2, 658176, Note_off_c, 0, 60, 67
2, 658176, Note_on_c, 0, 46, 67
2, 658240, Note_off_c, 0, 46, 67
2, 658304, Note_off_c, 0, 46, 67
2, 658304, Note_on_c, 0, 58, 67
2, 658368, Note_off_c, 0, 58, 67
2, 658432, Note_off_c, 0, 58, 67
2, 658432, Note_on_c, 0, 50, 67
2, 658496, Note_off_c, 0, 50, 67
2, 658560, Note_off_c, 0, 50, 67
2, 658560, Note_on_c, 0, 62, 67
2, 658624, Note_off_c, 0, 62, 67
2, 658688, Note_off_c, 0, 62, 67
2, 658688, Note_on_c, 0, 48, 67
2, 658752, Note_off_c, 0, 48, 67
2, 658816, Note_off_c, 0, 48, 67
2, 658816, Note_on_c, 0, 60, 67
2, 658880, Note_off_c, 0, 60, 67
2, 658944, Note_off_c, 0, 60, 67
2, 658944, Note_on_c, 0, 46, 67
2, 659008, Note_off_c, 0, 46, 67
2, 659072, Note_off_c, 0, 46, 67
2, 659072, Note_on_c, 0, 58, 67
2, 659136, Note_off_c, 0, 58, 67
2, 659200, Note_off_c, 0, 58, 67
2, 659200, Note_on_c, 0, 48, 67
2, 659264, Note_off_c, 0, 48, 67
2, 659328, Note_off_c, 0, 48, 67
2, 659328, Note_on_c, 0, 60, 67
2, 659392, Note_off_c, 0, 60, 67
2, 659456, Note_off_c, 0, 60, 67
2, 659456, Note_on_c, 0, 50, 67
2, 659520, Note_off_c, 0, 50, 67
2, 659584, Note_off_c, 0, 50, 67
2, 659584, Note_on_c, 0, 62, 67
2, 659648, Note_off_c, 0, 62, 67
2, 659712, Note_off_c, 0, 62, 67
2, 659712, Note_on_c, 0, 46, 67
2, 659776, Note_off_c, 0, 46, 67
2, 659840, Note_off_c, 0, 46, 67
2, 659840, Note_on_c, 0, 58, 67
2, 659904, Note_off_c, 0, 58, 67
2, 659968, Note_off_c, 0, 58, 67
2, 659968, Note_on_c, 0, 51, 67
2, 660032, Note_off_c, 0, 51, 67
2, 660096, Note_off_c, 0, 51, 67
2, 660096, Note_on_c, 0, 63, 67
2, 660160, Note_off_c, 0, 63, 67
2, 660224, Note_off_c, 0, 63, 67
2, 660224, Note_on_c, 0, 46, 67
2, 660288, Note_off_c, 0, 46, 67
2, 660352, Note_off_c, 0, 46, 67
2, 660352, Note_on_c, 0, 58, 67
2, 660416, Note_off_c, 0, 58, 67
2, 660480, Note_off_c, 0, 58, 67
2, 660480, Note_on_c, 0, 39, 67
2, 660544, Note_off_c, 0, 39, 67
2, 660544, Note_on_c, 0, 46, 67
2, 660608, Note_off_c, 0, 46, 67
2, 660608, Note_on_c, 0, 51, 67
2, 660672, Note_off_c, 0, 51, 67
2, 660672, Note_on_c, 0, 53, 67
2, 660736, Note_off_c, 0, 53, 67
2, 660736, Note_on_c, 0, 55, 67
2, 660800, Note_off_c, 0, 55, 67
2, 660800, Note_on_c, 0, 51, 67
2, 660864, Note_off_c, 0, 51, 67
2, 660864, Note_on_c, 0, 58, 67
2, 660928, Note_off_c, 0, 58, 67
2, 660928, Note_on_c, 0, 63, 67
2, 660976, Control_c, 0, 93, 0
2, 660992, Note_off_c, 0, 63, 67
2, 660992, Note_on_c, 0, 44, 67
2, 661056, Note_off_c, 0, 44, 67
2, 661056, Note_on_c, 0, 51, 67
2, 661120, Note_off_c, 0, 51, 67
2, 661120, Note_on_c, 0, 56, 67
2, 661184, Note_off_c, 0, 56, 67
2, 661184, Note_on_c, 0, 58, 67
2, 661248, Note_off_c, 0, 58, 67
2, 661248, Note_on_c, 0, 60, 67
2, 661312, Note_off_c, 0, 60, 67
2, 661312, Note_on_c, 0, 56, 67
2, 661376, Note_off_c, 0, 56, 67
2, 661376, Note_on_c, 0, 63, 67
2, 661440, Note_off_c, 0, 63, 67
2, 661440, Note_on_c, 0, 68, 67
2, 661488, Control_c, 0, 93, 0
2, 661504, Note_off_c, 0, 68, 67
2, 661504, Note_on_c, 0, 46, 67
2, 661568, Note_off_c, 0, 46, 67
2, 661568, Note_on_c, 0, 53, 67
2, 661632, Note_off_c, 0, 53, 67
2, 661632, Note_on_c, 0, 58, 67
2, 661696, Note_off_c, 0, 58, 67
2, 661696, Note_on_c, 0, 60, 67
2, 661760, Note_off_c, 0, 60, 67
2, 661760, Note_on_c, 0, 62, 67
2, 661824, Note_off_c, 0, 62, 67
2, 661824, Note_on_c, 0, 58, 67
2, 661888, Note_off_c, 0, 58, 67
2, 661888, Note_on_c, 0, 65, 67
2, 661952, Note_off_c, 0, 65, 67
2, 661952, Note_on_c, 0, 70, 67
2, 662000, Control_c, 0, 93, 0
2, 662016, Note_off_c, 0, 70, 67
2, 662016, Note_on_c, 0, 41, 67
2, 662080, Note_off_c, 0, 41, 67
2, 662080, Note_on_c, 0, 44, 67
2, 662144, Note_off_c, 0, 44, 67
2, 662144, Control_c, 0, 64, 64
2, 662144, Note_on_c, 0, 50, 67
2, 662165, Note_off_c, 0, 50, 67
2, 662165, Note_on_c, 0, 53, 67
2, 662186, Note_off_c, 0, 53, 67
2, 662186, Note_on_c, 0, 58, 67
2, 662207, Note_off_c, 0, 58, 67
2, 662208, Control_c, 0, 93, 0
2, 662208, Note_on_c, 0, 62, 67
2, 662229, Note_off_c, 0, 62, 67
2, 662229, Note_on_c, 0, 65, 67
2, 662250, Note_off_c, 0, 65, 67
2, 662250, Note_on_c, 0, 70, 67
2, 662272, Control_c, 0, 93, 0
2, 662272, Control_c, 0, 64, 0
2, 662400, Note_off_c, 0, 70, 67
2, 662400, Note_on_c, 0, 51, 67
2, 662464, Note_off_c, 0, 51, 67
2, 662464, Note_on_c, 0, 46, 67
2, 662528, Note_off_c, 0, 46, 67
2, 662528, Note_on_c, 0, 39, 67
2, 662592, Note_off_c, 0, 39, 67
2, 662592, Note_on_c, 0, 46, 67
2, 662656, Note_off_c, 0, 46, 67
2, 662656, Note_on_c, 0, 51, 67
2, 662720, Note_off_c, 0, 51, 67
2, 662720, Note_on_c, 0, 53, 67
2, 662784, Note_off_c, 0, 53, 67
2, 662784, Note_on_c, 0, 55, 67
2, 662848, Note_off_c, 0, 55, 67
2, 662848, Note_on_c, 0, 51, 67
2, 662912, Note_off_c, 0, 51, 67
2, 662912, Note_on_c, 0, 58, 67
2, 662976, Note_off_c, 0, 58, 67
2, 662976, Note_on_c, 0, 63, 67
2, 663024, Control_c, 0, 93, 0
2, 663040, Note_off_c, 0, 63, 67
2, 663040, Note_on_c, 0, 44, 67
2, 663104, Note_off_c, 0, 44, 67
2, 663104, Note_on_c, 0, 51, 67
2, 663168, Note_off_c, 0, 51, 67
2, 663168, Note_on_c, 0, 56, 67
2, 663232, Note_off_c, 0, 56, 67
2, 663232, Note_on_c, 0, 58, 67
2, 663296, Note_off_c, 0, 58, 67
2, 663296, Note_on_c, 0, 60, 67
2, 663360, Note_off_c, 0, 60, 67
2, 663360, Note_on_c, 0, 56, 67
2, 663424, Note_off_c, 0, 56, 67
2, 663424, Note_on_c, 0, 63, 67
2, 663488, Note_off_c, 0, 63, 67
2, 663488, Note_on_c, 0, 68, 67
2, 663536, Control_c, 0, 93, 0
2, 663552, Note_off_c, 0, 68, 67
2, 663552, Note_on_c, 0, 46, 67
2, 663616, Note_off_c, 0, 46, 67
2, 663616, Note_on_c, 0, 53, 67
2, 663680, Note_off_c, 0, 53, 67
2, 663680, Note_on_c, 0, 58, 67
2, 663744, Note_off_c, 0, 58, 67
2, 663744, Note_on_c, 0, 60, 67
2, 663808, Note_off_c, 0, 60, 67
2, 663808, Note_on_c, 0, 62, 67
2, 663872, Note_off_c, 0, 62, 67
2, 663872, Note_on_c, 0, 58, 67
2, 663936, Note_off_c, 0, 58, 67
2, 663936, Note_on_c, 0, 65, 67
2, 664000, Note_off_c, 0, 65, 67
2, 664000, Note_on_c, 0, 70, 67
2, 664048, Control_c, 0, 93, 0
2, 664064, Note_off_c, 0, 70, 67
2, 664064, Note_on_c, 0, 39, 67
2, 664128, Note_off_c, 0, 39, 67
2, 664128, Note_on_c, 0, 46, 67
2, 664192, Note_off_c, 0, 46, 67
2, 664192, Note_on_c, 0, 51, 67
2, 664256, Note_off_c, 0, 51, 67
2, 664256, Control_c, 0, 64, 64
2, 664256, Note_on_c, 0, 55, 67
2, 664266, Note_off_c, 0, 55, 67
2, 664266, Note_on_c, 0, 58, 67
2, 664277, Note_off_c, 0, 58, 67
2, 664277, Note_on_c, 0, 63, 67
2, 664287, Note_off_c, 0, 63, 67
2, 664288, Control_c, 0, 93, 0
2, 664288, Note_on_c, 0, 67, 67
2, 664298, Note_off_c, 0, 67, 67
2, 664298, Note_on_c, 0, 70, 67
2, 664309, Note_off_c, 0, 70, 67
2, 664309, Note_on_c, 0, 75, 67
2, 664319, Note_off_c, 0, 75, 67
2, 664320, Control_c, 0, 93, 0
2, 664448, Control_c, 0, 93, 0
2, 664512, Control_c, 0, 93, 0
2, 664512, Control_c, 0, 64, 0
2, 664576, Control_c, 0, 93, 0
2, 664576, Note_on_c, 0, 51, 67
2, 664640, Note_off_c, 0, 51, 67
2, 664704, Note_off_c, 0, 51, 67
2, 664704, Note_on_c, 0, 63, 67
2, 664768, Note_off_c, 0, 63, 67
2, 664832, Note_off_c, 0, 63, 67
2, 664832, Note_on_c, 0, 50, 67
2, 664896, Note_off_c, 0, 50, 67
2, 664960, Note_off_c, 0, 50, 67
2, 664960, Note_on_c, 0, 62, 67
2, 665024, Note_off_c, 0, 62, 67
2, 665088, Note_off_c, 0, 62, 67
2, 665088, Note_on_c, 0, 48, 67
2, 665152, Note_off_c, 0, 48, 67
2, 665216, Note_off_c, 0, 48, 67
2, 665216, Note_on_c, 0, 60, 67
2, 665280, Note_off_c, 0, 60, 67
2, 665344, Note_off_c, 0, 60, 67
2, 665344, Note_on_c, 0, 46, 67
2, 665408, Note_off_c, 0, 46, 67
2, 665472, Note_off_c, 0, 46, 67
2, 665472, Note_on_c, 0, 58, 67
2, 665536, Note_off_c, 0, 58, 67
2, 665600, Note_off_c, 0, 58, 67
2, 665600, Note_on_c, 0, 51, 67
2, 665664, Note_off_c, 0, 51, 67
2, 665728, Note_off_c, 0, 51, 67
2, 665728, Note_on_c, 0, 63, 67
2, 665792, Note_off_c, 0, 63, 67
2, 665856, Note_off_c, 0, 63, 67
2, 665856, Note_on_c, 0, 46, 67
2, 665920, Note_off_c, 0, 46, 67
2, 665984, Note_off_c, 0, 46, 67
2, 665984, Note_on_c, 0, 58, 67
2, 666048, Note_off_c, 0, 58, 67
2, 666112, Note_off_c, 0, 58, 67
2, 666112, Note_on_c, 0, 48, 67
2, 666176, Note_off_c, 0, 48, 67
2, 666240, Note_off_c, 0, 48, 67
2, 666240, Note_on_c, 0, 60, 67
2, 666304, Note_off_c, 0, 60, 67
2, 666368, Note_off_c, 0, 60, 67
2, 666368, Note_on_c, 0, 46, 67
2, 666432, Note_off_c, 0, 46, 67
2, 666496, Note_off_c, 0, 46, 67
2, 666496, Note_on_c, 0, 58, 67
2, 666560, Note_off_c, 0, 58, 67
2, 666624, Note_off_c, 0, 58, 67
2, 666624, Note_on_c, 0, 50, 67
2, 666688, Note_off_c, 0, 50, 67
2, 666752, Note_off_c, 0, 50, 67
2, 666752, Note_on_c, 0, 62, 67
2, 666816, Note_off_c, 0, 62, 67
2, 666880, Note_off_c, 0, 62, 67
2, 666880, Note_on_c, 0, 46, 67
2, 666944, Note_off_c, 0, 46, 67
2, 667008, Note_off_c, 0, 46, 67
2, 667008, Note_on_c, 0, 58, 67
2, 667072, Note_off_c, 0, 58, 67
2, 667136, Note_off_c, 0, 58, 67
2, 667136, Note_on_c, 0, 48, 67
2, 667200, Note_off_c, 0, 48, 67
2, 667264, Note_off_c, 0, 48, 67
2, 667264, Note_on_c, 0, 60, 67
2, 667328, Note_off_c, 0, 60, 67
2, 667392, Note_off_c, 0, 60, 67
2, 667392, Note_on_c, 0, 49, 67
2, 667456, Note_off_c, 0, 49, 67
2, 667520, Note_off_c, 0, 49, 67
2, 667520, Note_on_c, 0, 61, 67
2, 667584, Note_off_c, 0, 61, 67
2, 667648, Note_off_c, 0, 61, 67
2, 667648, Note_on_c, 0, 50, 67
2, 667712, Note_off_c, 0, 50, 67
2, 667776, Note_off_c, 0, 50, 67
2, 667776, Note_on_c, 0, 62, 67
2, 667840, Note_off_c, 0, 62, 67
2, 667904, Note_off_c, 0, 62, 67
2, 667904, Note_on_c, 0, 46, 67
2, 667968, Note_off_c, 0, 46, 67
2, 668032, Note_off_c, 0, 46, 67
2, 668032, Note_on_c, 0, 58, 67
2, 668096, Note_off_c, 0, 58, 67
2, 668160, Note_off_c, 0, 58, 67
2, 668160, Note_on_c, 0, 51, 67
2, 668224, Note_off_c, 0, 51, 67
2, 668288, Note_off_c, 0, 51, 67
2, 668288, Note_on_c, 0, 63, 67
2, 668352, Note_off_c, 0, 63, 67
2, 668416, Note_off_c, 0, 63, 67
2, 668416, Note_on_c, 0, 46, 67
2, 668480, Note_off_c, 0, 46, 67
2, 668544, Note_off_c, 0, 46, 67
2, 668544, Note_on_c, 0, 58, 67
2, 668608, Note_off_c, 0, 58, 67
2, 668672, Note_off_c, 0, 58, 67
2, 668672, Note_on_c, 0, 51, 67
2, 668736, Note_off_c, 0, 51, 67
2, 668800, Note_off_c, 0, 51, 67
2, 668800, Note_on_c, 0, 63, 67
2, 668864, Note_off_c, 0, 63, 67
2, 668928, Note_off_c, 0, 63, 67
2, 668928, Note_on_c, 0, 50, 67
2, 668992, Note_off_c, 0, 50, 67
2, 669056, Note_off_c, 0, 50, 67
2, 669056, Note_on_c, 0, 62, 67
2, 669120, Note_off_c, 0, 62, 67
2, 669184, Note_off_c, 0, 62, 67
2, 669184, Note_on_c, 0, 48, 67
2, 669248, Note_off_c, 0, 48, 67
2, 669312, Note_off_c, 0, 48, 67
2, 669312, Note_on_c, 0, 60, 67
2, 669376, Note_off_c, 0, 60, 67
2, 669440, Note_off_c, 0, 60, 67
2, 669440, Note_on_c, 0, 46, 67
2, 669504, Note_off_c, 0, 46, 67
2, 669568, Note_off_c, 0, 46, 67
2, 669568, Note_on_c, 0, 58, 67
2, 669632, Note_off_c, 0, 58, 67
2, 669696, Note_off_c, 0, 58, 67
2, 669696, Note_on_c, 0, 51, 67
2, 669760, Note_off_c, 0, 51, 67
2, 669824, Note_off_c, 0, 51, 67
2, 669824, Note_on_c, 0, 63, 67
2, 669888, Note_off_c, 0, 63, 67
2, 669952, Note_off_c, 0, 63, 67
2, 669952, Note_on_c, 0, 46, 67
2, 670016, Note_off_c, 0, 46, 67
2, 670080, Note_off_c, 0, 46, 67
2, 670080, Note_on_c, 0, 58, 67
2, 670144, Note_off_c, 0, 58, 67
2, 670208, Note_off_c, 0, 58, 67
2, 670208, Note_on_c, 0, 48, 67
2, 670272, Note_off_c, 0, 48, 67
2, 670336, Note_off_c, 0, 48, 67
2, 670336, Note_on_c, 0, 60, 67
2, 670400, Note_off_c, 0, 60, 67
2, 670464, Note_off_c, 0, 60, 67
2, 670464, Note_on_c, 0, 46, 67
2, 670528, Note_off_c, 0, 46, 67
2, 670592, Note_off_c, 0, 46, 67
2, 670592, Note_on_c, 0, 58, 67
2, 670656, Note_off_c, 0, 58, 67
2, 670720, Note_off_c, 0, 58, 67
2, 670720, Note_on_c, 0, 50, 67
2, 670784, Note_off_c, 0, 50, 67
2, 670848, Note_off_c, 0, 50, 67
2, 670848, Note_on_c, 0, 62, 67
2, 670912, Note_off_c, 0, 62, 67
2, 670976, Note_off_c, 0, 62, 67
2, 670976, Note_on_c, 0, 48, 67
2, 671040, Note_off_c, 0, 48, 67
2, 671104, Note_off_c, 0, 48, 67
2, 671104, Note_on_c, 0, 60, 67
2, 671168, Note_off_c, 0, 60, 67
2, 671232, Note_off_c, 0, 60, 67
2, 671232, Note_on_c, 0, 46, 67
2, 671296, Note_off_c, 0, 46, 67
2, 671360, Note_off_c, 0, 46, 67
2, 671360, Note_on_c, 0, 58, 67
2, 671424, Note_off_c, 0, 58, 67
2, 671488, Note_off_c, 0, 58, 67
2, 671488, Note_on_c, 0, 48, 67
2, 671552, Note_off_c, 0, 48, 67
2, 671616, Note_off_c, 0, 48, 67
2, 671616, Note_on_c, 0, 60, 67
2, 671680, Note_off_c, 0, 60, 67
2, 671744, Note_off_c, 0, 60, 67
2, 671744, Note_on_c, 0, 50, 67
2, 671808, Note_off_c, 0, 50, 67
2, 671872, Note_off_c, 0, 50, 67
2, 671872, Note_on_c, 0, 62, 67
2, 671936, Note_off_c, 0, 62, 67
2, 672000, Note_off_c, 0, 62, 67
2, 672000, Note_on_c, 0, 46, 67
2, 672064, Note_off_c, 0, 46, 67
2, 672128, Note_off_c, 0, 46, 67
2, 672128, Note_on_c, 0, 58, 67
2, 672192, Note_off_c, 0, 58, 67
2, 672256, Note_off_c, 0, 58, 67
2, 672256, Note_on_c, 0, 51, 67
2, 672320, Note_off_c, 0, 51, 67
2, 672384, Note_off_c, 0, 51, 67
2, 672384, Note_on_c, 0, 63, 67
2, 672448, Note_off_c, 0, 63, 67
2, 672512, Note_off_c, 0, 63, 67
2, 672512, Note_on_c, 0, 46, 67
2, 672576, Note_off_c, 0, 46, 67
2, 672640, Note_off_c, 0, 46, 67
2, 672640, Note_on_c, 0, 58, 67
2, 672704, Note_off_c, 0, 58, 67
2, 672768, Note_off_c, 0, 58, 67
2, 672768, Note_on_c, 0, 39, 67
2, 672832, Note_off_c, 0, 39, 67
2, 672832, Note_on_c, 0, 46, 67
2, 672896, Note_off_c, 0, 46, 67
2, 672896, Note_on_c, 0, 51, 67
2, 672960, Note_off_c, 0, 51, 67
2, 672960, Note_on_c, 0, 53, 67
2, 673024, Note_off_c, 0, 53, 67
2, 673024, Note_on_c, 0, 55, 67
2, 673088, Note_off_c, 0, 55, 67
2, 673088, Note_on_c, 0, 51, 67
2, 673152, Note_off_c, 0, 51, 67
2, 673152, Note_on_c, 0, 58, 67
2, 673216, Note_off_c, 0, 58, 67
2, 673216, Note_on_c, 0, 63, 67
2, 673264, Control_c, 0, 93, 0
2, 673280, Note_off_c, 0, 63, 67
2, 673280, Note_on_c, 0, 44, 67
2, 673344, Note_off_c, 0, 44, 67
2, 673344, Note_on_c, 0, 51, 67
2, 673408, Note_off_c, 0, 51, 67
2, 673408, Note_on_c, 0, 56, 67
2, 673472, Note_off_c, 0, 56, 67
2, 673472, Note_on_c, 0, 58, 67
2, 673536, Note_off_c, 0, 58, 67
2, 673536, Note_on_c, 0, 60, 67
2, 673600, Note_off_c, 0, 60, 67
2, 673600, Note_on_c, 0, 56, 67
2, 673664, Note_off_c, 0, 56, 67
2, 673664, Note_on_c, 0, 63, 67
2, 673728, Note_off_c, 0, 63, 67
2, 673728, Note_on_c, 0, 68, 67
2, 673776, Control_c, 0, 93, 0
2, 673792, Note_off_c, 0, 68, 67
2, 673792, Note_on_c, 0, 46, 67
2, 673856, Note_off_c, 0, 46, 67
2, 673856, Note_on_c, 0, 53, 67
2, 673920, Note_off_c, 0, 53, 67
2, 673920, Note_on_c, 0, 58, 67
2, 673984, Note_off_c, 0, 58, 67
2, 673984, Note_on_c, 0, 60, 67
2, 674048, Note_off_c, 0, 60, 67
2, 674048, Note_on_c, 0, 62, 67
2, 674112, Note_off_c, 0, 62, 67
2, 674112, Note_on_c, 0, 58, 67
2, 674176, Note_off_c, 0, 58, 67
2, 674176, Note_on_c, 0, 65, 67
2, 674240, Note_off_c, 0, 65, 67
2, 674240, Note_on_c, 0, 70, 67
2, 674288, Control_c, 0, 93, 0
2, 674304, Note_off_c, 0, 70, 67
2, 674304, Note_on_c, 0, 41, 67
2, 674368, Note_off_c, 0, 41, 67
2, 674368, Note_on_c, 0, 44, 67
2, 674432, Note_off_c, 0, 44, 67
2, 674432, Control_c, 0, 64, 64
2, 674432, Note_on_c, 0, 50, 67
2, 674453, Note_off_c, 0, 50, 67
2, 674453, Note_on_c, 0, 53, 67
2, 674474, Note_off_c, 0, 53, 67
2, 674474, Note_on_c, 0, 58, 67
2, 674495, Note_off_c, 0, 58, 67
2, 674496, Control_c, 0, 93, 0
2, 674496, Note_on_c, 0, 62, 67
2, 674517, Note_off_c, 0, 62, 67
2, 674517, Note_on_c, 0, 65, 67
2, 674538, Note_off_c, 0, 65, 67
2, 674538, Note_on_c, 0, 70, 67
2, 674560, Control_c, 0, 93, 0
2, 674560, Control_c, 0, 64, 0
2, 674688, Note_off_c, 0, 70, 67
2, 674688, Note_on_c, 0, 51, 67
2, 674752, Note_off_c, 0, 51, 67
2, 674752, Note_on_c, 0, 46, 67
2, 674816, Note_off_c, 0, 46, 67
2, 674816, Note_on_c, 0, 39, 67
2, 674880, Note_off_c, 0, 39, 67
2, 674880, Note_on_c, 0, 46, 67
2, 674944, Note_off_c, 0, 46, 67
2, 674944, Note_on_c, 0, 51, 67
2, 675008, Note_off_c, 0, 51, 67
2, 675008, Note_on_c, 0, 53, 67
2, 675072, Note_off_c, 0, 53, 67
2, 675072, Note_on_c, 0, 55, 67
2, 675136, Note_off_c, 0, 55, 67
2, 675136, Note_on_c, 0, 51, 67
2, 675200, Note_off_c, 0, 51, 67
2, 675200, Note_on_c, 0, 58, 67
2, 675264, Note_off_c, 0, 58, 67
2, 675264, Note_on_c, 0, 63, 67
2, 675312, Control_c, 0, 93, 0
2, 675328, Note_off_c, 0, 63, 67
2, 675328, Note_on_c, 0, 44, 67
2, 675392, Note_off_c, 0, 44, 67
2, 675392, Note_on_c, 0, 51, 67
2, 675456, Note_off_c, 0, 51, 67
2, 675456, Note_on_c, 0, 56, 67
2, 675520, Note_off_c, 0, 56, 67
2, 675520, Note_on_c, 0, 58, 67
2, 675584, Note_off_c, 0, 58, 67
2, 675584, Note_on_c, 0, 60, 67
2, 675648, Note_off_c, 0, 60, 67
2, 675648, Note_on_c, 0, 56, 67
2, 675712, Note_off_c, 0, 56, 67
2, 675712, Note_on_c, 0, 63, 67
2, 675776, Note_off_c, 0, 63, 67
2, 675776, Note_on_c, 0, 68, 67
2, 675824, Control_c, 0, 93, 0
2, 675840, Note_off_c, 0, 68, 67
2, 675840, Note_on_c, 0, 46, 67
2, 675904, Note_off_c, 0, 46, 67
2, 675904, Note_on_c, 0, 53, 67
2, 675968, Note_off_c, 0, 53, 67
2, 675968, Note_on_c, 0, 58, 67
2, 676032, Note_off_c, 0, 58, 67
2, 676032, Note_on_c, 0, 60, 67
2, 676096, Note_off_c, 0, 60, 67
2, 676096, Note_on_c, 0, 62, 67
2, 676160, Note_off_c, 0, 62, 67
2, 676160, Note_on_c, 0, 58, 67
2, 676224, Note_off_c, 0, 58, 67
2, 676224, Note_on_c, 0, 65, 67
2, 676288, Note_off_c, 0, 65, 67
2, 676288, Note_on_c, 0, 70, 67
2, 676336, Control_c, 0, 93, 0
2, 676352, Note_off_c, 0, 70, 67
2, 676352, Note_on_c, 0, 39, 67
2, 676416, Note_off_c, 0, 39, 67
2, 676416, Note_on_c, 0, 46, 67
2, 676480, Note_off_c, 0, 46, 67
2, 676480, Note_on_c, 0, 51, 67
2, 676544, Note_off_c, 0, 51, 67
2, 676544, Control_c, 0, 64, 64
2, 676544, Note_on_c, 0, 55, 67
2, 676554, Note_off_c, 0, 55, 67
2, 676554, Note_on_c, 0, 58, 67
2, 676565, Note_off_c, 0, 58, 67
2, 676565, Note_on_c, 0, 63, 67
2, 676575, Note_off_c, 0, 63, 67
2, 676576, Control_c, 0, 93, 0
2, 676576, Note_on_c, 0, 67, 67
2, 676586, Note_off_c, 0, 67, 67
2, 676586, Note_on_c, 0, 70, 67
2, 676597, Note_off_c, 0, 70, 67
2, 676597, Note_on_c, 0, 75, 67
2, 676607, Note_off_c, 0, 75, 67
2, 676608, Control_c, 0, 93, 0
2, 676736, Control_c, 0, 93, 0
2, 676800, Control_c, 0, 93, 0
2, 676800, Control_c, 0, 64, 0
2, 676864, Control_c, 0, 93, 0
2, 676864, Note_on_c, 0, 51, 67
2, 676928, Note_off_c, 0, 51, 67
2, 676992, Note_off_c, 0, 51, 67
2, 676992, Note_on_c, 0, 63, 67
2, 677056, Note_off_c, 0, 63, 67
2, 677120, Note_off_c, 0, 63, 67
2, 677120, Note_on_c, 0, 50, 67
2, 677184, Note_off_c, 0, 50, 67
2, 677248, Note_off_c, 0, 50, 67
2, 677248, Note_on_c, 0, 62, 67
2, 677312, Note_off_c, 0, 62, 67
2, 677376, Note_off_c, 0, 62, 67
2, 677376, Note_on_c, 0, 48, 67
2, 677440, Note_off_c, 0, 48, 67
2, 677504, Note_off_c, 0, 48, 67
2, 677504, Note_on_c, 0, 60, 67
2, 677568, Note_off_c, 0, 60, 67
2, 677632, Note_off_c, 0, 60, 67
2, 677632, Note_on_c, 0, 46, 67
2, 677696, Note_off_c, 0, 46, 67
2, 677760, Note_off_c, 0, 46, 67
2, 677760, Note_on_c, 0, 58, 67
2, 677824, Note_off_c, 0, 58, 67
2, 677888, Note_off_c, 0, 58, 67
2, 677888, Note_on_c, 0, 51, 67
2, 677952, Note_off_c, 0, 51, 67
2, 678016, Note_off_c, 0, 51, 67
2, 678016, Note_on_c, 0, 63, 67
2, 678080, Note_off_c, 0, 63, 67
2, 678144, Note_off_c, 0, 63, 67
2, 678144, Note_on_c, 0, 46, 67
2, 678208, Note_off_c, 0, 46, 67
2, 678272, Note_off_c, 0, 46, 67
2, 678272, Note_on_c, 0, 58, 67
2, 678336, Note_off_c, 0, 58, 67
2, 678400, Note_off_c, 0, 58, 67
2, 678400, Note_on_c, 0, 48, 67
2, 678464, Note_off_c, 0, 48, 67
2, 678528, Note_off_c, 0, 48, 67
2, 678528, Note_on_c, 0, 60, 67
2, 678592, Note_off_c, 0, 60, 67
2, 678656, Note_off_c, 0, 60, 67
2, 678656, Note_on_c, 0, 46, 67
2, 678720, Note_off_c, 0, 46, 67
2, 678784, Note_off_c, 0, 46, 67
2, 678784, Note_on_c, 0, 58, 67
2, 678848, Note_off_c, 0, 58, 67
2, 678912, Note_off_c, 0, 58, 67
2, 678912, Note_on_c, 0, 50, 67
2, 678976, Note_off_c, 0, 50, 67
2, 679040, Note_off_c, 0, 50, 67
2, 679040, Note_on_c, 0, 62, 67
2, 679104, Note_off_c, 0, 62, 67
2, 679168, Note_off_c, 0, 62, 67
2, 679168, Note_on_c, 0, 46, 67
2, 679232, Note_off_c, 0, 46, 67
2, 679296, Note_off_c, 0, 46, 67
2, 679296, Note_on_c, 0, 58, 67
2, 679360, Note_off_c, 0, 58, 67
2, 679424, Note_off_c, 0, 58, 67
2, 679424, Note_on_c, 0, 48, 67
2, 679488, Note_off_c, 0, 48, 67
2, 679552, Note_off_c, 0, 48, 67
2, 679552, Note_on_c, 0, 60, 67
2, 679616, Note_off_c, 0, 60, 67
2, 679680, Note_off_c, 0, 60, 67
2, 679680, Note_on_c, 0, 49, 67
2, 679744, Note_off_c, 0, 49, 67
2, 679808, Note_off_c, 0, 49, 67
2, 679808, Note_on_c, 0, 61, 67
2, 679872, Note_off_c, 0, 61, 67
2, 679936, Note_off_c, 0, 61, 67
2, 679936, Note_on_c, 0, 50, 67
2, 680000, Note_off_c, 0, 50, 67
2, 680064, Note_off_c, 0, 50, 67
2, 680064, Note_on_c, 0, 62, 67
2, 680128, Note_off_c, 0, 62, 67
2, 680192, Note_off_c, 0, 62, 67
2, 680192, Note_on_c, 0, 46, 67
2, 680256, Note_off_c, 0, 46, 67
2, 680320, Note_off_c, 0, 46, 67
2, 680320, Note_on_c, 0, 58, 67
2, 680384, Note_off_c, 0, 58, 67
2, 680448, Note_off_c, 0, 58, 67
2, 680448, Note_on_c, 0, 51, 67
2, 680512, Note_off_c, 0, 51, 67
2, 680576, Note_off_c, 0, 51, 67
2, 680576, Note_on_c, 0, 63, 67
2, 680640, Note_off_c, 0, 63, 67
2, 680704, Note_off_c, 0, 63, 67
2, 680704, Note_on_c, 0, 46, 67
2, 680768, Note_off_c, 0, 46, 67
2, 680832, Note_off_c, 0, 46, 67
2, 680832, Note_on_c, 0, 58, 67
2, 680896, Note_off_c, 0, 58, 67
2, 680960, Note_off_c, 0, 58, 67
2, 680960, Note_on_c, 0, 51, 67
2, 681024, Note_off_c, 0, 51, 67
2, 681088, Note_off_c, 0, 51, 67
2, 681088, Note_on_c, 0, 63, 67
2, 681152, Note_off_c, 0, 63, 67
2, 681216, Note_off_c, 0, 63, 67
2, 681216, Note_on_c, 0, 50, 67
2, 681280, Note_off_c, 0, 50, 67
2, 681344, Note_off_c, 0, 50, 67
2, 681344, Note_on_c, 0, 62, 67
2, 681408, Note_off_c, 0, 62, 67
2, 681472, Note_off_c, 0, 62, 67
2, 681472, Note_on_c, 0, 48, 67
2, 681536, Note_off_c, 0, 48, 67
2, 681600, Note_off_c, 0, 48, 67
2, 681600, Note_on_c, 0, 60, 67
2, 681664, Note_off_c, 0, 60, 67
2, 681728, Note_off_c, 0, 60, 67
2, 681728, Note_on_c, 0, 46, 67
2, 681792, Note_off_c, 0, 46, 67
2, 681856, Note_off_c, 0, 46, 67
2, 681856, Note_on_c, 0, 58, 67
2, 681920, Note_off_c, 0, 58, 67
2, 681984, Note_off_c, 0, 58, 67
2, 681984, Note_on_c, 0, 51, 67
2, 682048, Note_off_c, 0, 51, 67
2, 682112, Note_off_c, 0, 51, 67
2, 682112, Note_on_c, 0, 63, 67
2, 682176, Note_off_c, 0, 63, 67
2, 682240, Note_off_c, 0, 63, 67
2, 682240, Note_on_c, 0, 46, 67
2, 682304, Note_off_c, 0, 46, 67
2, 682368, Note_off_c, 0, 46, 67
2, 682368, Note_on_c, 0, 58, 67
2, 682432, Note_off_c, 0, 58, 67
2, 682496, Note_off_c, 0, 58, 67
2, 682496, Note_on_c, 0, 48, 67
2, 682560, Note_off_c, 0, 48, 67
2, 682624, Note_off_c, 0, 48, 67
2, 682624, Note_on_c, 0, 60, 67
2, 682688, Note_off_c, 0, 60, 67
2, 682752, Note_off_c, 0, 60, 67
2, 682752, Note_on_c, 0, 46, 67
2, 682816, Note_off_c, 0, 46, 67
2, 682880, Note_off_c, 0, 46, 67
2, 682880, Note_on_c, 0, 58, 67
2, 682944, Note_off_c, 0, 58, 67
2, 683008, Note_off_c, 0, 58, 67
2, 683008, Note_on_c, 0, 50, 67
2, 683072, Note_off_c, 0, 50, 67
2, 683136, Note_off_c, 0, 50, 67
2, 683136, Note_on_c, 0, 62, 67
2, 683200, Note_off_c, 0, 62, 67
2, 683264, Note_off_c, 0, 62, 67
2, 683264, Note_on_c, 0, 48, 67
2, 683328, Note_off_c, 0, 48, 67
2, 683392, Note_off_c, 0, 48, 67
2, 683392, Note_on_c, 0, 60, 67
2, 683456, Note_off_c, 0, 60, 67
2, 683520, Note_off_c, 0, 60, 67
2, 683520, Note_on_c, 0, 46, 67
2, 683584, Note_off_c, 0, 46, 67
2, 683648, Note_off_c, 0, 46, 67
2, 683648, Note_on_c, 0, 58, 67
2, 683712, Note_off_c, 0, 58, 67
2, 683776, Note_off_c, 0, 58, 67
2, 683776, Note_on_c, 0, 48, 67
2, 683840, Note_off_c, 0, 48, 67
2, 683904, Note_off_c, 0, 48, 67
2, 683904, Note_on_c, 0, 60, 67
2, 683968, Note_off_c, 0, 60, 67
2, 684032, Note_off_c, 0, 60, 67
2, 684032, Note_on_c, 0, 50, 67
2, 684096, Note_off_c, 0, 50, 67
2, 684160, Note_off_c, 0, 50, 67
2, 684160, Note_on_c, 0, 62, 67
2, 684224, Note_off_c, 0, 62, 67
2, 684288, Note_off_c, 0, 62, 67
2, 684288, Note_on_c, 0, 46, 67
2, 684352, Note_off_c, 0, 46, 67
2, 684416, Note_off_c, 0, 46, 67
2, 684416, Note_on_c, 0, 58, 67
2, 684480, Note_off_c, 0, 58, 67
2, 684544, Note_off_c, 0, 58, 67
2, 684544, Note_on_c, 0, 51, 67
2, 684608, Note_off_c, 0, 51, 67
2, 684672, Note_off_c, 0, 51, 67
2, 684672, Note_on_c, 0, 63, 67
2, 684736, Note_off_c, 0, 63, 67
2, 684800, Note_off_c, 0, 63, 67
2, 684800, Note_on_c, 0, 46, 67
2, 684864, Note_off_c, 0, 46, 67
2, 684928, Note_off_c, 0, 46, 67
2, 684928, Note_on_c, 0, 58, 67
2, 684992, Note_off_c, 0, 58, 67
2, 685056, Note_off_c, 0, 58, 67
2, 685056, Note_on_c, 0, 39, 67
2, 685120, Note_off_c, 0, 39, 67
2, 685120, Note_on_c, 0, 46, 67
2, 685184, Note_off_c, 0, 46, 67
2, 685184, Note_on_c, 0, 51, 67
2, 685248, Note_off_c, 0, 51, 67
2, 685248, Note_on_c, 0, 53, 67
2, 685312, Note_off_c, 0, 53, 67
2, 685312, Note_on_c, 0, 55, 67
2, 685376, Note_off_c, 0, 55, 67
2, 685376, Note_on_c, 0, 51, 67
2, 685440, Note_off_c, 0, 51, 67
2, 685440, Note_on_c, 0, 58, 67
2, 685504, Note_off_c, 0, 58, 67
2, 685504, Note_on_c, 0, 63, 67
2, 685552, Control_c, 0, 93, 0
2, 685568, Note_off_c, 0, 63, 67
2, 685568, Note_on_c, 0, 44, 67
2, 685632, Note_off_c, 0, 44, 67
2, 685632, Note_on_c, 0, 51, 67
2, 685696, Note_off_c, 0, 51, 67
2, 685696, Note_on_c, 0, 56, 67
2, 685760, Note_off_c, 0, 56, 67
2, 685760, Note_on_c, 0, 58, 67
2, 685824, Note_off_c, 0, 58, 67
2, 685824, Note_on_c, 0, 60, 67
2, 685888, Note_off_c, 0, 60, 67
2, 685888, Note_on_c, 0, 56, 67
2, 685952, Note_off_c, 0, 56, 67
2, 685952, Note_on_c, 0, 63, 67
2, 686016, Note_off_c, 0, 63, 67
2, 686016, Note_on_c, 0, 68, 67
2, 686064, Control_c, 0, 93, 0
2, 686080, Note_off_c, 0, 68, 67
2, 686080, Note_on_c, 0, 46, 67
2, 686144, Note_off_c, 0, 46, 67
2, 686144, Note_on_c, 0, 53, 67
2, 686208, Note_off_c, 0, 53, 67
2, 686208, Note_on_c, 0, 58, 67
2, 686272, Note_off_c, 0, 58, 67
2, 686272, Note_on_c, 0, 60, 67
2, 686336, Note_off_c, 0, 60, 67
2, 686336, Note_on_c, 0, 62, 67
2, 686400, Note_off_c, 0, 62, 67
2, 686400, Note_on_c, 0, 58, 67
2, 686464, Note_off_c, 0, 58, 67
2, 686464, Note_on_c, 0, 65, 67
2, 686528, Note_off_c, 0, 65, 67
2, 686528, Note_on_c, 0, 70, 67
2, 686576, Control_c, 0, 93, 0
2, 686592, Note_off_c, 0, 70, 67
2, 686592, Note_on_c, 0, 41, 67
2, 686656, Note_off_c, 0, 41, 67
2, 686656, Note_on_c, 0, 44, 67
2, 686720, Note_off_c, 0, 44, 67
2, 686720, Control_c, 0, 64, 64
2, 686720, Note_on_c, 0, 50, 67
2, 686741, Note_off_c, 0, 50, 67
2, 686741, Note_on_c, 0, 53, 67
2, 686762, Note_off_c, 0, 53, 67
2, 686762, Note_on_c, 0, 58, 67
2, 686783, Note_off_c, 0, 58, 67
2, 686784, Control_c, 0, 93, 0
2, 686784, Note_on_c, 0, 62, 67
2, 686805, Note_off_c, 0, 62, 67
2, 686805, Note_on_c, 0, 65, 67
2, 686826, Note_off_c, 0, 65, 67
2, 686826, Note_on_c, 0, 70, 67
2, 686848, Control_c, 0, 93, 0
2, 686848, Control_c, 0, 64, 0
2, 686976, Note_off_c, 0, 70, 67
2, 686976, Note_on_c, 0, 51, 67
2, 687040, Note_off_c, 0, 51, 67
2, 687040, Note_on_c, 0, 46, 67
2, 687104, Note_off_c, 0, 46, 67
2, 687104, Note_on_c, 0, 39, 67
2, 687168, Note_off_c, 0, 39, 67
2, 687168, Note_on_c, 0, 46, 67
2, 687232, Note_off_c, 0, 46, 67
2, 687232, Note_on_c, 0, 51, 67
2, 687296, Note_off_c, 0, 51, 67
2, 687296, Note_on_c, 0, 53, 67
2, 687360, Note_off_c, 0, 53, 67
2, 687360, Note_on_c, 0, 55, 67
2, 687424, Note_off_c, 0, 55, 67
2, 687424, Note_on_c, 0, 51, 67
2, 687488, Note_off_c, 0, 51, 67
2, 687488, Note_on_c, 0, 58, 67
2, 687552, Note_off_c, 0, 58, 67
2, 687552, Note_on_c, 0, 63, 67
2, 687600, Control_c, 0, 93, 0
2, 687616, Note_off_c, 0, 63, 67
2, 687616, Note_on_c, 0, 44, 67
2, 687680, Note_off_c, 0, 44, 67
2, 687680, Note_on_c, 0, 51, 67
2, 687744, Note_off_c, 0, 51, 67
2, 687744, Note_on_c, 0, 56, 67
2, 687808, Note_off_c, 0, 56, 67
2, 687808, Note_on_c, 0, 58, 67
2, 687872, Note_off_c, 0, 58, 67
2, 687872, Note_on_c, 0, 60, 67
2, 687936, Note_off_c, 0, 60, 67
2, 687936, Note_on_c, 0, 56, 67
2, 688000, Note_off_c, 0, 56, 67
2, 688000, Note_on_c, 0, 63, 67
2, 688064, Note_off_c, 0, 63, 67
2, 688064, Note_on_c, 0, 68, 67
2, 688112, Control_c, 0, 93, 0
2, 688128, Note_off_c, 0, 68, 67
2, 688128, Note_on_c, 0, 46, 67
2, 688192, Note_off_c, 0, 46, 67
2, 688192, Note_on_c, 0, 53, 67
2, 688256, Note_off_c, 0, 53, 67
2, 688256, Note_on_c, 0, 58, 67
2, 688320, Note_off_c, 0, 58, 67
2, 688320, Note_on_c, 0, 60, 67
2, 688384, Note_off_c, 0, 60, 67
2, 688384, Note_on_c, 0, 62, 67
2, 688448, Note_off_c, 0, 62, 67
2, 688448, Note_on_c, 0, 58, 67
2, 688512, Note_off_c, 0, 58, 67
2, 688512, Note_on_c, 0, 65, 67
2, 688576, Note_off_c, 0, 65, 67
2, 688576, Note_on_c, 0, 70, 67
2, 688624, Control_c, 0, 93, 0
2, 688640, Note_off_c, 0, 70, 67
2, 688640, Note_on_c, 0, 39, 67
2, 688704, Note_off_c, 0, 39, 67
2, 688704, Note_on_c, 0, 46, 67
2, 688768, Note_off_c, 0, 46, 67
2, 688768, Note_on_c, 0, 51, 67
2, 688832, Note_off_c, 0, 51, 67
2, 688832, Control_c, 0, 64, 64
2, 688832, Note_on_c, 0, 55, 67
2, 688842, Note_off_c, 0, 55, 67
2, 688842, Note_on_c, 0, 58, 67
2, 688853, Note_off_c, 0, 58, 67
2, 688853, Note_on_c, 0, 63, 67
2, 688863, Note_off_c, 0, 63, 67
2, 688864, Control_c, 0, 93, 0
2, 688864, Note_on_c, 0, 67, 67
2, 688874, Note_off_c, 0, 67, 67
2, 688874, Note_on_c, 0, 70, 67
2, 688885, Note_off_c, 0, 70, 67
2, 688885, Note_on_c, 0, 75, 67
2, 688895, Note_off_c, 0, 75, 67
2, 688896, Control_c, 0, 93, 0
2, 689024, Control_c, 0, 93, 0
2, 689088, Control_c, 0, 93, 0
2, 689088, Control_c, 0, 64, 0
2, 689152, Control_c, 0, 93, 0
2, 689152, Note_on_c, 0, 51, 67
2, 689216, Note_off_c, 0, 51, 67
2, 689280, Note_off_c, 0, 51, 67
2, 689280, Note_on_c, 0, 63, 67
2, 689344, Note_off_c, 0, 63, 67
2, 689408, Note_off_c, 0, 63, 67
2, 689408, Note_on_c, 0, 50, 67
2, 689472, Note_off_c, 0, 50, 67
2, 689536, Note_off_c, 0, 50, 67
2, 689536, Note_on_c, 0, 62, 67
2, 689600, Note_off_c, 0, 62, 67
2, 689664, Note_off_c, 0, 62, 67
2, 689664, Note_on_c, 0, 48, 67
2, 689728, Note_off_c, 0, 48, 67
2, 689792, Note_off_c, 0, 48, 67
2, 689792, Note_on_c, 0, 60, 67
2, 689856, Note_off_c, 0, 60, 67
2, 689920, Note_off_c, 0, 60, 67
2, 689920, Note_on_c, 0, 46, 67
2, 689984, Note_off_c, 0, 46, 67
2, 690048, Note_off_c, 0, 46, 67
2, 690048, Note_on_c, 0, 58, 67
2, 690112, Note_off_c, 0, 58, 67
2, 690176, Note_off_c, 0, 58, 67
2, 690176, Note_on_c, 0, 51, 67
2, 690240, Note_off_c, 0, 51, 67
2, 690304, Note_off_c, 0, 51, 67
2, 690304, Note_on_c, 0, 63, 67
2, 690368, Note_off_c, 0, 63, 67
2, 690432, Note_off_c, 0, 63, 67
2, 690432, Note_on_c, 0, 46, 67
2, 690496, Note_off_c, 0, 46, 67
2, 690560, Note_off_c, 0, 46, 67
2, 690560, Note_on_c, 0, 58, 67
2, 690624, Note_off_c, 0, 58, 67
2, 690688, Note_off_c, 0, 58, 67
2, 690688, Note_on_c, 0, 48, 67
2, 690752, Note_off_c, 0, 48, 67
2, 690816, Note_off_c, 0, 48, 67
2, 690816, Note_on_c, 0, 60, 67
2, 690880, Note_off_c, 0, 60, 67
2, 690944, Note_off_c, 0, 60, 67
2, 690944, Note_on_c, 0, 46, 67
2, 691008, Note_off_c, 0, 46, 67
2, 691072, Note_off_c, 0, 46, 67
2, 691072, Note_on_c, 0, 58, 67
2, 691136, Note_off_c, 0, 58, 67
2, 691200, Note_off_c, 0, 58, 67
2, 691200, Note_on_c, 0, 50, 67
2, 691264, Note_off_c, 0, 50, 67
2, 691328, Note_off_c, 0, 50, 67
2, 691328, Note_on_c, 0, 62, 67
2, 691392, Note_off_c, 0, 62, 67
2, 691456, Note_off_c, 0, 62, 67
2, 691456, Note_on_c, 0, 46, 67
2, 691520, Note_off_c, 0, 46, 67
2, 691584, Note_off_c, 0, 46, 67
2, 691584, Note_on_c, 0, 58, 67
2, 691648, Note_off_c, 0, 58, 67
2, 691712, Note_off_c, 0, 58, 67
2, 691712, Note_on_c, 0, 48, 67
2, 691776, Note_off_c, 0, 48, 67
2, 691840, Note_off_c, 0, 48, 67
2, 691840, Note_on_c, 0, 60, 67
2, 691904, Note_off_c, 0, 60, 67
2, 691968, Note_off_c, 0, 60, 67
2, 691968, Note_on_c, 0, 49, 67
2, 692032, Note_off_c, 0, 49, 67
2, 692096, Note_off_c, 0, 49, 67
2, 692096, Note_on_c, 0, 61, 67
2, 692160, Note_off_c, 0, 61, 67
2, 692224, Note_off_c, 0, 61, 67
2, 692224, Note_on_c, 0, 50, 67
2, 692288, Note_off_c, 0, 50, 67
2, 692352, Note_off_c, 0, 50, 67
2, 692352, Note_on_c, 0, 62, 67
2, 692416, Note_off_c, 0, 62, 67
2, 692480, Note_off_c, 0, 62, 67
2, 692480, Note_on_c, 0, 46, 67
2, 692544, Note_off_c, 0, 46, 67
2, 692608, Note_off_c, 0, 46, 67
2, 692608, Note_on_c, 0, 58, 67
2, 692672, Note_off_c, 0, 58, 67
2, 692736, Note_off_c, 0, 58, 67
2, 692736, Note_on_c, 0, 51, 67
2, 692800, Note_off_c, 0, 51, 67
2, 692864, Note_off_c, 0, 51, 67
2, 692864, Note_on_c, 0, 63, 67
2, 692928, Note_off_c, 0, 63, 67
2, 692992, Note_off_c, 0, 63, 67
2, 692992, Note_on_c, 0, 46, 67
2, 693056, Note_off_c, 0, 46, 67
2, 693120, Note_off_c, 0, 46, 67
2, 693120, Note_on_c, 0, 58, 67
2, 693184, Note_off_c, 0, 58, 67
2, 693248, Note_off_c, 0, 58, 67
2, 693248, Note_on_c, 0, 51, 67
2, 693312, Note_off_c, 0, 51, 67
2, 693376, Note_off_c, 0, 51, 67
2, 693376, Note_on_c, 0, 63, 67
2, 693440, Note_off_c, 0, 63, 67
2, 693504, Note_off_c, 0, 63, 67
2, 693504, Note_on_c, 0, 50, 67
2, 693568, Note_off_c, 0, 50, 67
2, 693632, Note_off_c, 0, 50, 67
2, 693632, Note_on_c, 0, 62, 67
2, 693696, Note_off_c, 0, 62, 67
2, 693760, Note_off_c, 0, 62, 67
2, 693760, Note_on_c, 0, 48, 67
2, 693824, Note_off_c, 0, 48, 67
2, 693888, Note_off_c, 0, 48, 67
2, 693888, Note_on_c, 0, 60, 67
2, 693952, Note_off_c, 0, 60, 67
2, 694016, Note_off_c, 0, 60, 67
2, 694016, Note_on_c, 0, 46, 67
2, 694080, Note_off_c, 0, 46, 67
2, 694144, Note_off_c, 0, 46, 67
2, 694144, Note_on_c, 0, 58, 67
2, 694208, Note_off_c, 0, 58, 67
2, 694272, Note_off_c, 0, 58, 67
2, 694272, Note_on_c, 0, 51, 67
2, 694336, Note_off_c, 0, 51, 67
2, 694400, Note_off_c, 0, 51, 67
2, 694400, Note_on_c, 0, 63, 67
2, 694464, Note_off_c, 0, 63, 67
2, 694528, Note_off_c, 0, 63, 67
2, 694528, Note_on_c, 0, 46, 67
2, 694592, Note_off_c, 0, 46, 67
2, 694656, Note_off_c, 0, 46, 67
2, 694656, Note_on_c, 0, 58, 67
2, 694720, Note_off_c, 0, 58, 67
2, 694784, Note_off_c, 0, 58, 67
2, 694784, Note_on_c, 0, 48, 67
2, 694848, Note_off_c, 0, 48, 67
2, 694912, Note_off_c, 0, 48, 67
2, 694912, Note_on_c, 0, 60, 67
2, 694976, Note_off_c, 0, 60, 67
2, 695040, Note_off_c, 0, 60, 67
2, 695040, Note_on_c, 0, 46, 67
2, 695104, Note_off_c, 0, 46, 67
2, 695168, Note_off_c, 0, 46, 67
2, 695168, Note_on_c, 0, 58, 67
2, 695232, Note_off_c, 0, 58, 67
2, 695296, Note_off_c, 0, 58, 67
2, 695296, Note_on_c, 0, 50, 67
2, 695360, Note_off_c, 0, 50, 67
2, 695424, Note_off_c, 0, 50, 67
2, 695424, Note_on_c, 0, 62, 67
2, 695488, Note_off_c, 0, 62, 67
2, 695552, Note_off_c, 0, 62, 67
2, 695552, Note_on_c, 0, 48, 67
2, 695616, Note_off_c, 0, 48, 67
2, 695680, Note_off_c, 0, 48, 67
2, 695680, Note_on_c, 0, 60, 67
2, 695744, Note_off_c, 0, 60, 67
2, 695808, Note_off_c, 0, 60, 67
2, 695808, Note_on_c, 0, 46, 67
2, 695872, Note_off_c, 0, 46, 67
2, 695936, Note_off_c, 0, 46, 67
2, 695936, Note_on_c, 0, 58, 67
2, 696000, Note_off_c, 0, 58, 67
2, 696064, Note_off_c, 0, 58, 67
2, 696064, Note_on_c, 0, 48, 67
2, 696128, Note_off_c, 0, 48, 67
2, 696192, Note_off_c, 0, 48, 67
2, 696192, Note_on_c, 0, 60, 67
2, 696256, Note_off_c, 0, 60, 67
2, 696320, Note_off_c, 0, 60, 67
2, 696320, Note_on_c, 0, 50, 67
2, 696384, Note_off_c, 0, 50, 67
2, 696448, Note_off_c, 0, 50, 67
2, 696448, Note_on_c, 0, 62, 67
2, 696512, Note_off_c, 0, 62, 67
2, 696576, Note_off_c, 0, 62, 67
2, 696576, Note_on_c, 0, 46, 67
2, 696640, Note_off_c, 0, 46, 67
2, 696704, Note_off_c, 0, 46, 67
2, 696704, Note_on_c, 0, 58, 67
2, 696768, Note_off_c, 0, 58, 67
2, 696832, Note_off_c, 0, 58, 67
2, 696832, Note_on_c, 0, 51, 67
2, 696896, Note_off_c, 0, 51, 67
2, 696960, Note_off_c, 0, 51, 67
2, 696960, Note_on_c, 0, 63, 67
2, 697024, Note_off_c, 0, 63, 67
2, 697088, Note_off_c, 0, 63, 67
2, 697088, Note_on_c, 0, 46, 67
2, 697152, Note_off_c, 0, 46, 67
2, 697216, Note_off_c, 0, 46, 67
2, 697216, Note_on_c, 0, 58, 67
2, 697280, Note_off_c, 0, 58, 67
2, 697344, Note_off_c, 0, 58, 67
2, 697344, Note_on_c, 0, 39, 67
2, 697408, Note_off_c, 0, 39, 67
2, 697408, Note_on_c, 0, 46, 67
2, 697472, Note_off_c, 0, 46, 67
2, 697472, Note_on_c, 0, 51, 67
2, 697536, Note_off_c, 0, 51, 67
2, 697536, Note_on_c, 0, 53, 67
2, 697600, Note_off_c, 0, 53, 67
2, 697600, Note_on_c, 0, 55, 67
2, 697664, Note_off_c, 0, 55, 67
2, 697664, Note_on_c, 0, 51, 67
2, 697728, Note_off_c, 0, 51, 67
2, 697728, Note_on_c, 0, 58, 67
2, 697792, Note_off_c, 0, 58, 67
2, 697792, Note_on_c, 0, 63, 67
2, 697840, Control_c, 0, 93, 0
2, 697856, Note_off_c, 0, 63, 67
2, 697856, Note_on_c, 0, 44, 67
2, 697920, Note_off_c, 0, 44, 67
2, 697920, Note_on_c, 0, 51, 67
2, 697984, Note_off_c, 0, 51, 67
2, 697984, Note_on_c, 0, 56, 67
2, 698048, Note_off_c, 0, 56, 67
2, 698048, Note_on_c, 0, 58, 67
2, 698112, Note_off_c, 0, 58, 67
2, 698112, Note_on_c, 0, 60, 67
2, 698176, Note_off_c, 0, 60, 67
2, 698176, Note_on_c, 0, 56, 67
2, 698240, Note_off_c, 0, 56, 67
2, 698240, Note_on_c, 0, 63, 67
2, 698304, Note_off_c, 0, 63, 67
2, 698304, Note_on_c, 0, 68, 67
2, 698352, Control_c, 0, 93, 0
2, 698368, Note_off_c, 0, 68, 67
2, 698368, Note_on_c, 0, 46, 67
2, 698432, Note_off_c, 0, 46, 67
2, 698432, Note_on_c, 0, 53, 67
2, 698496, Note_off_c, 0, 53, 67
2, 698496, Note_on_c, 0, 58, 67
2, 698560, Note_off_c, 0, 58, 67
2, 698560, Note_on_c, 0, 60, 67
2, 698624, Note_off_c, 0, 60, 67
2, 698624, Note_on_c, 0, 62, 67
2, 698688, Note_off_c, 0, 62, 67
2, 698688, Note_on_c, 0, 58, 67
2, 698752, Note_off_c, 0, 58, 67
2, 698752, Note_on_c, 0, 65, 67
2, 698816, Note_off_c, 0, 65, 67
2, 698816, Note_on_c, 0, 70, 67
2, 698864, Control_c, 0, 93, 0
2, 698880, Note_off_c, 0, 70, 67
2, 698880, Note_on_c, 0, 41, 67
2, 698944, Note_off_c, 0, 41, 67
2, 698944, Note_on_c, 0, 44, 67
2, 699008, Note_off_c, 0, 44, 67
2, 699008, Control_c, 0, 64, 64
2, 699008, Note_on_c, 0, 50, 67
2, 699029, Note_off_c, 0, 50, 67
2, 699029, Note_on_c, 0, 53, 67
2, 699050, Note_off_c, 0, 53, 67
2, 699050, Note_on_c, 0, 58, 67
2, 699071, Note_off_c, 0, 58, 67
2, 699072, Control_c, 0, 93, 0
2, 699072, Note_on_c, 0, 62, 67
2, 699093, Note_off_c, 0, 62, 67
2, 699093, Note_on_c, 0, 65, 67
2, 699114, Note_off_c, 0, 65, 67
2, 699114, Note_on_c, 0, 70, 67
2, 699136, Control_c, 0, 93, 0
2, 699136, Control_c, 0, 64, 0
2, 699264, Note_off_c, 0, 70, 67
2, 699264, Note_on_c, 0, 51, 67
2, 699328, Note_off_c, 0, 51, 67
2, 699328, Note_on_c, 0, 46, 67
2, 699392, Note_off_c, 0, 46, 67
2, 699392, Note_on_c, 0, 39, 67
2, 699456, Note_off_c, 0, 39, 67
2, 699456, Note_on_c, 0, 46, 67
2, 699520, Note_off_c, 0, 46, 67
2, 699520, Note_on_c, 0, 51, 67
2, 699584, Note_off_c, 0, 51, 67
2, 699584, Note_on_c, 0, 53, 67
2, 699648, Note_off_c, 0, 53, 67
2, 699648, Note_on_c, 0, 55, 67
2, 699712, Note_off_c, 0, 55, 67
2, 699712, Note_on_c, 0, 51, 67
2, 699776, Note_off_c, 0, 51, 67
2, 699776, Note_on_c, 0, 58, 67
2, 699840, Note_off_c, 0, 58, 67
2, 699840, Note_on_c, 0, 63, 67
2, 699888, Control_c, 0, 93, 0
2, 699904, Note_off_c, 0, 63, 67
2, 699904, Note_on_c, 0, 44, 67
2, 699968, Note_off_c, 0, 44, 67
2, 699968, Note_on_c, 0, 51, 67
2, 700032, Note_off_c, 0, 51, 67
2, 700032, Note_on_c, 0, 56, 67
2, 700096, Note_off_c, 0, 56, 67
2, 700096, Note_on_c, 0, 58, 67
2, 700160, Note_off_c, 0, 58, 67
2, 700160, Note_on_c, 0, 60, 67
2, 700224, Note_off_c, 0, 60, 67
2, 700224, Note_on_c, 0, 56, 67
2, 700288, Note_off_c, 0, 56, 67
2, 700288, Note_on_c, 0, 63, 67
2, 700352, Note_off_c, 0, 63, 67
2, 700352, Note_on_c, 0, 68, 67
2, 700400, Control_c, 0, 93, 0
2, 700416, Note_off_c, 0, 68, 67
2, 700416, Note_on_c, 0, 46, 67
2, 700480, Note_off_c, 0, 46, 67
2, 700480, Note_on_c, 0, 53, 67
2, 700544, Note_off_c, 0, 53, 67
2, 700544, Note_on_c, 0, 58, 67
2, 700608, Note_off_c, 0, 58, 67
2, 700608, Note_on_c, 0, 60, 67
2, 700672, Note_off_c, 0, 60, 67
2, 700672, Note_on_c, 0, 62, 67
2, 700736, Note_off_c, 0, 62, 67
2, 700736, Note_on_c, 0, 58, 67
2, 700800, Note_off_c, 0, 58, 67
2, 700800, Note_on_c, 0, 65, 67
2, 700864, Note_off_c, 0, 65, 67
2, 700864, Note_on_c, 0, 70, 67
2, 700912, Control_c, 0, 93, 0
2, 700928, Note_off_c, 0, 70, 67
2, 700928, Note_on_c, 0, 39, 67
2, 700992, Note_off_c, 0, 39, 67
2, 700992, Note_on_c, 0, 46, 67
2, 701056, Note_off_c, 0, 46, 67
2, 701056, Note_on_c, 0, 51, 67
2, 701120, Note_off_c, 0, 51, 67
2, 701120, Control_c, 0, 64, 64
2, 701120, Note_on_c, 0, 55, 67
2, 701130, Note_off_c, 0, 55, 67
2, 701130, Note_on_c, 0, 58, 67
2, 701141, Note_off_c, 0, 58, 67
2, 701141, Note_on_c, 0, 63, 67
2, 701151, Note_off_c, 0, 63, 67
2, 701152, Control_c, 0, 93, 0
2, 701152, Note_on_c, 0, 67, 67
2, 701162, Note_off_c, 0, 67, 67
2, 701162, Note_on_c, 0, 70, 67
2, 701173, Note_off_c, 0, 70, 67
2, 701173, Note_on_c, 0, 75, 67
2, 701183, Note_off_c, 0, 75, 67
2, 701184, Control_c, 0, 93, 0
2, 701312, Control_c, 0, 93, 0
2, 701376, Control_c, 0, 93, 0
2, 701376, Control_c, 0, 64, 0
2, 701440, Control_c, 0, 93, 0
2, 701440, Note_on_c, 0, 51, 67
2, 701504, Note_off_c, 0, 51, 67
2, 701568, Note_off_c, 0, 51, 67
2, 701568, Note_on_c, 0, 63, 67
2, 701632, Note_off_c, 0, 63, 67
2, 701696, Note_off_c, 0, 63, 67
2, 701696, Note_on_c, 0, 50, 67
2, 701760, Note_off_c, 0, 50, 67
2, 701824, Note_off_c, 0, 50, 67
2, 701824, Note_on_c, 0, 62, 67
2, 701888, Note_off_c, 0, 62, 67
2, 701952, Note_off_c, 0, 62, 67
2, 701952, Note_on_c, 0, 48, 67
2, 702016, Note_off_c, 0, 48, 67
2, 702080, Note_off_c, 0, 48, 67
2, 702080, Note_on_c, 0, 60, 67
2, 702144, Note_off_c, 0, 60, 67
2, 702208, Note_off_c, 0, 60, 67
2, 702208, Note_on_c, 0, 46, 67
2, 702272, Note_off_c, 0, 46, 67
2, 702336, Note_off_c, 0, 46, 67
2, 702336, Note_on_c, 0, 58, 67
2, 702400, Note_off_c, 0, 58, 67
2, 702464, Note_off_c, 0, 58, 67
2, 702464, Note_on_c, 0, 51, 67
2, 702528, Note_off_c, 0, 51, 67
2, 702592, Note_off_c, 0, 51, 67
2, 702592, Note_on_c, 0, 63, 67
2, 702656, Note_off_c, 0, 63, 67
2, 702720, Note_off_c, 0, 63, 67
2, 702720, Note_on_c, 0, 46, 67
2, 702784, Note_off_c, 0, 46, 67
2, 702848, Note_off_c, 0, 46, 67
2, 702848, Note_on_c, 0, 58, 67
2, 702912, Note_off_c, 0, 58, 67
2, 702976, Note_off_c, 0, 58, 67
2, 702976, Note_on_c, 0, 48, 67
2, 703040, Note_off_c, 0, 48, 67
2, 703104, Note_off_c, 0, 48, 67
2, 703104, Note_on_c, 0, 60, 67
2, 703168, Note_off_c, 0, 60, 67
2, 703232, Note_off_c, 0, 60, 67
2, 703232, Note_on_c, 0, 46, 67
2, 703296, Note_off_c, 0, 46, 67
2, 703360, Note_off_c, 0, 46, 67
2, 703360, Note_on_c, 0, 58, 67
2, 703424, Note_off_c, 0, 58, 67
2, 703488, Note_off_c, 0, 58, 67
2, 703488, Note_on_c, 0, 50, 67
2, 703552, Note_off_c, 0, 50, 67
2, 703616, Note_off_c, 0, 50, 67
2, 703616, Note_on_c, 0, 62, 67
2, 703680, Note_off_c, 0, 62, 67
2, 703744, Note_off_c, 0, 62, 67
2, 703744, Note_on_c, 0, 46, 67
2, 703808, Note_off_c, 0, 46, 67
2, 703872, Note_off_c, 0, 46, 67
2, 703872, Note_on_c, 0, 58, 67
2, 703936, Note_off_c, 0, 58, 67
2, 704000, Note_off_c, 0, 58, 67
2, 704000, Note_on_c, 0, 48, 67
2, 704064, Note_off_c, 0, 48, 67
2, 704128, Note_off_c, 0, 48, 67
2, 704128, Note_on_c, 0, 60, 67
2, 704192, Note_off_c, 0, 60, 67
2, 704256, Note_off_c, 0, 60, 67
2, 704256, Note_on_c, 0, 49, 67
2, 704320, Note_off_c, 0, 49, 67
2, 704384, Note_off_c, 0, 49, 67
2, 704384, Note_on_c, 0, 61, 67
2, 704448, Note_off_c, 0, 61, 67
2, 704512, Note_off_c, 0, 61, 67
2, 704512, Note_on_c, 0, 50, 67
2, 704576, Note_off_c, 0, 50, 67
2, 704640, Note_off_c, 0, 50, 67
2, 704640, Note_on_c, 0, 62, 67
2, 704704, Note_off_c, 0, 62, 67
2, 704768, Note_off_c, 0, 62, 67
2, 704768, Note_on_c, 0, 46, 67
2, 704832, Note_off_c, 0, 46, 67
2, 704896, Note_off_c, 0, 46, 67
2, 704896, Note_on_c, 0, 58, 67
2, 704960, Note_off_c, 0, 58, 67
2, 705024, Note_off_c, 0, 58, 67
2, 705024, Note_on_c, 0, 51, 67
2, 705088, Note_off_c, 0, 51, 67
2, 705152, Note_off_c, 0, 51, 67
2, 705152, Note_on_c, 0, 63, 67
2, 705216, Note_off_c, 0, 63, 67
2, 705280, Note_off_c, 0, 63, 67
2, 705280, Note_on_c, 0, 46, 67
2, 705344, Note_off_c, 0, 46, 67
2, 705408, Note_off_c, 0, 46, 67
2, 705408, Note_on_c, 0, 58, 67
2, 705472, Note_off_c, 0, 58, 67
2, 705536, Note_off_c, 0, 58, 67
2, 705536, Note_on_c, 0, 51, 67
2, 705600, Note_off_c, 0, 51, 67
2, 705664, Note_off_c, 0, 51, 67
2, 705664, Note_on_c, 0, 63, 67
2, 705728, Note_off_c, 0, 63, 67
2, 705792, Note_off_c, 0, 63, 67
2, 705792, Note_on_c, 0, 50, 67
2, 705856, Note_off_c, 0, 50, 67
2, 705920, Note_off_c, 0, 50, 67
2, 705920, Note_on_c, 0, 62, 67
2, 705984, Note_off_c, 0, 62, 67
2, 706048, Note_off_c, 0, 62, 67
2, 706048, Note_on_c, 0, 48, 67
2, 706112, Note_off_c, 0, 48, 67
2, 706176, Note_off_c, 0, 48, 67
2, 706176, Note_on_c, 0, 60, 67
2, 706240, Note_off_c, 0, 60, 67
2, 706304, Note_off_c, 0, 60, 67
2, 706304, Note_on_c, 0, 46, 67
2, 706368, Note_off_c, 0, 46, 67
2, 706432, Note_off_c, 0, 46, 67
2, 706432, Note_on_c, 0, 58, 67
2, 706496, Note_off_c, 0, 58, 67
2, 706560, Note_off_c, 0, 58, 67
2, 706560, Note_on_c, 0, 51, 67
2, 706624, Note_off_c, 0, 51, 67
2, 706688, Note_off_c, 0, 51, 67
2, 706688, Note_on_c, 0, 63, 67
2, 706752, Note_off_c, 0, 63, 67
2, 706816, Note_off_c, 0, 63, 67
2, 706816, Note_on_c, 0, 46, 67
2, 706880, Note_off_c, 0, 46, 67
2, 706944, Note_off_c, 0, 46, 67
2, 706944, Note_on_c, 0, 58, 67
2, 707008, Note_off_c, 0, 58, 67
2, 707072, Note_off_c, 0, 58, 67
2, 707072, Note_on_c, 0, 48, 67
2, 707136, Note_off_c, 0, 48, 67
2, 707200, Note_off_c, 0, 48, 67
2, 707200, Note_on_c, 0, 60, 67
2, 707264, Note_off_c, 0, 60, 67
2, 707328, Note_off_c, 0, 60, 67
2, 707328, Note_on_c, 0, 46, 67
2, 707392, Note_off_c, 0, 46, 67
2, 707456, Note_off_c, 0, 46, 67
2, 707456, Note_on_c, 0, 58, 67
2, 707520, Note_off_c, 0, 58, 67
2, 707584, Note_off_c, 0, 58, 67
2, 707584, Note_on_c, 0, 50, 67
2, 707648, Note_off_c, 0, 50, 67
2, 707712, Note_off_c, 0, 50, 67
2, 707712, Note_on_c, 0, 62, 67
2, 707776, Note_off_c, 0, 62, 67
2, 707840, Note_off_c, 0, 62, 67
2, 707840, Note_on_c, 0, 48, 67
2, 707904, Note_off_c, 0, 48, 67
2, 707968, Note_off_c, 0, 48, 67
2, 707968, Note_on_c, 0, 60, 67
2, 708032, Note_off_c, 0, 60, 67
2, 708096, Note_off_c, 0, 60, 67
2, 708096, Note_on_c, 0, 46, 67
2, 708160, Note_off_c, 0, 46, 67
2, 708224, Note_off_c, 0, 46, 67
2, 708224, Note_on_c, 0, 58, 67
2, 708288, Note_off_c, 0, 58, 67
2, 708352, Note_off_c, 0, 58, 67
2, 708352, Note_on_c, 0, 48, 67
2, 708416, Note_off_c, 0, 48, 67
2, 708480, Note_off_c, 0, 48, 67
2, 708480, Note_on_c, 0, 60, 67
2, 708544, Note_off_c, 0, 60, 67
2, 708608, Note_off_c, 0, 60, 67
2, 708608, Note_on_c, 0, 50, 67
2, 708672, Note_off_c, 0, 50, 67
2, 708736, Note_off_c, 0, 50, 67
2, 708736, Note_on_c, 0, 62, 67
2, 708800, Note_off_c, 0, 62, 67
2, 708864, Note_off_c, 0, 62, 67
2, 708864, Note_on_c, 0, 46, 67
2, 708928, Note_off_c, 0, 46, 67
2, 708992, Note_off_c, 0, 46, 67
2, 708992, Note_on_c, 0, 58, 67
2, 709056, Note_off_c, 0, 58, 67
2, 709120, Note_off_c, 0, 58, 67
2, 709120, Note_on_c, 0, 51, 67
2, 709184, Note_off_c, 0, 51, 67
2, 709248, Note_off_c, 0, 51, 67
2, 709248, Note_on_c, 0, 63, 67
2, 709312, Note_off_c, 0, 63, 67
2, 709376, Note_off_c, 0, 63, 67
2, 709376, Note_on_c, 0, 46, 67
2, 709440, Note_off_c, 0, 46, 67
2, 709504, Note_off_c, 0, 46, 67
2, 709504, Note_on_c, 0, 58, 67
2, 709568, Note_off_c, 0, 58, 67
2, 709632, Note_off_c, 0, 58, 67
2, 709632, Note_on_c, 0, 39, 67
2, 709696, Note_off_c, 0, 39, 67
2, 709696, Note_on_c, 0, 46, 67
2, 709760, Note_off_c, 0, 46, 67
2, 709760, Note_on_c, 0, 51, 67
2, 709824, Note_off_c, 0, 51, 67
2, 709824, Note_on_c, 0, 53, 67
2, 709888, Note_off_c, 0, 53, 67
2, 709888, Note_on_c, 0, 55, 67
2, 709952, Note_off_c, 0, 55, 67
2, 709952, Note_on_c, 0, 51, 67
2, 710016, Note_off_c, 0, 51, 67
2, 710016, Note_on_c, 0, 58, 67
2, 710080, Note_off_c, 0, 58, 67
2, 710080, Note_on_c, 0, 63, 67
2, 710128, Control_c, 0, 93, 0
2, 710144, Note_off_c, 0, 63, 67
2, 710144, Note_on_c, 0, 44, 67
2, 710208, Note_off_c, 0, 44, 67
2, 710208, Note_on_c, 0, 51, 67
2, 710272, Note_off_c, 0, 51, 67
2, 710272, Note_on_c, 0, 56, 67
2, 710336, Note_off_c, 0, 56, 67
2, 710336, Note_on_c, 0, 58, 67
2, 710400, Note_off_c, 0, 58, 67
2, 710400, Note_on_c, 0, 60, 67
2, 710464, Note_off_c, 0, 60, 67
2, 710464, Note_on_c, 0, 56, 67
2, 710528, Note_off_c, 0, 56, 67
2, 710528, Note_on_c, 0, 63, 67
2, 710592, Note_off_c, 0, 63, 67
2, 710592, Note_on_c, 0, 68, 67
2, 710640, Control_c, 0, 93, 0
2, 710656, Note_off_c, 0, 68, 67
2, 710656, Note_on_c, 0, 46, 67
2, 710720, Note_off_c, 0, 46, 67
2, 710720, Note_on_c, 0, 53, 67
2, 710784, Note_off_c, 0, 53, 67
2, 710784, Note_on_c, 0, 58, 67
2, 710848, Note_off_c, 0, 58, 67
2, 710848, Note_on_c, 0, 60, 67
2, 710912, Note_off_c, 0, 60, 67
2, 710912, Note_on_c, 0, 62, 67
2, 710976, Note_off_c, 0, 62, 67
2, 710976, Note_on_c, 0, 58, 67
2, 711040, Note_off_c, 0, 58, 67
2, 711040, Note_on_c, 0, 65, 67
2, 711104, Note_off_c, 0, 65, 67
2, 711104, Note_on_c, 0, 70, 67
2, 711152, Control_c, 0, 93, 0
2, 711168, Note_off_c, 0, 70, 67
2, 711168, Note_on_c, 0, 41, 67
2, 711232, Note_off_c, 0, 41, 67
2, 711232, Note_on_c, 0, 44, 67
2, 711296, Note_off_c, 0, 44, 67
2, 711296, Control_c, 0, 64, 64
2, 711296, Note_on_c, 0, 50, 67
2, 711317, Note_off_c, 0, 50, 67
2, 711317, Note_on_c, 0, 53, 67
2, 711338, Note_off_c, 0, 53, 67
2, 711338, Note_on_c, 0, 58, 67
2, 711359, Note_off_c, 0, 58, 67
2, 711360, Control_c, 0, 93, 0
2, 711360, Note_on_c, 0, 62, 67
2, 711381, Note_off_c, 0, 62, 67
2, 711381, Note_on_c, 0, 65, 67
2, 711402, Note_off_c, 0, 65, 67
2, 711402, Note_on_c, 0, 70, 67
2, 711424, Control_c, 0, 93, 0
2, 711424, Control_c, 0, 64, 0
2, 711552, Note_off_c, 0, 70, 67
2, 711552, Note_on_c, 0, 51, 67
2, 711616, Note_off_c, 0, 51, 67
2, 711616, Note_on_c, 0, 46, 67
2, 711680, Note_off_c, 0, 46, 67
2, 711680, Note_on_c, 0, 39, 67
2, 711744, Note_off_c, 0, 39, 67
2, 711744, Note_on_c, 0, 46, 67
2, 711808, Note_off_c, 0, 46, 67
2, 711808, Note_on_c, 0, 51, 67
2, 711872, Note_off_c, 0, 51, 67
2, 711872, Note_on_c, 0, 53, 67
2, 711936, Note_off_c, 0, 53, 67
2, 711936, Note_on_c, 0, 55, 67
2, 712000, Note_off_c, 0, 55, 67
2, 712000, Note_on_c, 0, 51, 67
2, 712064, Note_off_c, 0, 51, 67
2, 712064, Note_on_c, 0, 58, 67
2, 712128, Note_off_c, 0, 58, 67
2, 712128, Note_on_c, 0, 63, 67
2, 712176, Control_c, 0, 93, 0
2, 712192, Note_off_c, 0, 63, 67
2, 712192, Note_on_c, 0, 44, 67
2, 712256, Note_off_c, 0, 44, 67
2, 712256, Note_on_c, 0, 51, 67
2, 712320, Note_off_c, 0, 51, 67
2, 712320, Note_on_c, 0, 56, 67
2, 712384, Note_off_c, 0, 56, 67
2, 712384, Note_on_c, 0, 58, 67
2, 712448, Note_off_c, 0, 58, 67
2, 712448, Note_on_c, 0, 60, 67
2, 712512, Note_off_c, 0, 60, 67
2, 712512, Note_on_c, 0, 56, 67
2, 712576, Note_off_c, 0, 56, 67
2, 712576, Note_on_c, 0, 63, 67
2, 712640, Note_off_c, 0, 63, 67
2, 712640, Note_on_c, 0, 68, 67
2, 712688, Control_c, 0, 93, 0
2, 712704, Note_off_c, 0, 68, 67
2, 712704, Note_on_c, 0, 46, 67
2, 712768, Note_off_c, 0, 46, 67
2, 712768, Note_on_c, 0, 53, 67
2, 712832, Note_off_c, 0, 53, 67
2, 712832, Note_on_c, 0, 58, 67
2, 712896, Note_off_c, 0, 58, 67
2, 712896, Note_on_c, 0, 60, 67
2, 712960, Note_off_c, 0, 60, 67
2, 712960, Note_on_c, 0, 62, 67
2, 713024, Note_off_c, 0, 62, 67
2, 713024, Note_on_c, 0, 58, 67
2, 713088, Note_off_c, 0, 58, 67
2, 713088, Note_on_c, 0, 65, 67
2, 713152, Note_off_c, 0, 65, 67
2, 713152, Note_on_c, 0, 70, 67
2, 713200, Control_c, 0, 93, 0
2, 713216, Note_off_c, 0, 70, 67
2, 713216, Note_on_c, 0, 39, 67
2, 713280, Note_off_c, 0, 39, 67
2, 713280, Note_on_c, 0, 46, 67
2, 713344, Note_off_c, 0, 46, 67
2, 713344, Note_on_c, 0, 51, 67
2, 713408, Note_off_c, 0, 51, 67
2, 713408, Control_c, 0, 64, 64
2, 713408, Note_on_c, 0, 55, 67
2, 713418, Note_off_c, 0, 55, 67
2, 713418, Note_on_c, 0, 58, 67
2, 713429, Note_off_c, 0, 58, 67
2, 713429, Note_on_c, 0, 63, 67
2, 713439, Note_off_c, 0, 63, 67
2, 713440, Control_c, 0, 93, 0
2, 713440, Note_on_c, 0, 67, 67
2, 713450, Note_off_c, 0, 67, 67
2, 713450, Note_on_c, 0, 70, 67
2, 713461, Note_off_c, 0, 70, 67
2, 713461, Note_on_c, 0, 75, 67
2, 713471, Note_off_c, 0, 75, 67
2, 713472, Control_c, 0, 93, 0
2, 713600, Control_c, 0, 93, 0
2, 713664, Control_c, 0, 93, 0
2, 713664, Control_c, 0, 64, 0
2, 713728, Control_c, 0, 93, 0
2, 713728, Note_on_c, 0, 51, 67
2, 713792, Note_off_c, 0, 51, 67
2, 713856, Note_off_c, 0, 51, 67
2, 713856, Note_on_c, 0, 63, 67
2, 713920, Note_off_c, 0, 63, 67
2, 713984, Note_off_c, 0, 63, 67
2, 713984, Note_on_c, 0, 50, 67
2, 714048, Note_off_c, 0, 50, 67
2, 714112, Note_off_c, 0, 50, 67
2, 714112, Note_on_c, 0, 62, 67
2, 714176, Note_off_c, 0, 62, 67
2, 714240, Note_off_c, 0, 62, 67
2, 714240, Note_on_c, 0, 48, 67
2, 714304, Note_off_c, 0, 48, 67
2, 714368, Note_off_c, 0, 48, 67
2, 714368, Note_on_c, 0, 60, 67
2, 714432, Note_off_c, 0, 60, 67
2, 714496, Note_off_c, 0, 60, 67
2, 714496, Note_on_c, 0, 46, 67
2, 714560, Note_off_c, 0, 46, 67
2, 714624, Note_off_c, 0, 46, 67
2, 714624, Note_on_c, 0, 58, 67
2, 714688, Note_off_c, 0, 58, 67
2, 714752, Note_off_c, 0, 58, 67
2, 714752, Note_on_c, 0, 51, 67
2, 714816, Note_off_c, 0, 51, 67
2, 714880, Note_off_c, 0, 51, 67
2, 714880, Note_on_c, 0, 63, 67
2, 714944, Note_off_c, 0, 63, 67
2, 715008, Note_off_c, 0, 63, 67
2, 715008, Note_on_c, 0, 46, 67
2, 715072, Note_off_c, 0, 46, 67
2, 715136, Note_off_c, 0, 46, 67
2, 715136, Note_on_c, 0, 58, 67
2, 715200, Note_off_c, 0, 58, 67
2, 715264, Note_off_c, 0, 58, 67
2, 715264, Note_on_c, 0, 48, 67
2, 715328, Note_off_c, 0, 48, 67
2, 715392, Note_off_c, 0, 48, 67
2, 715392, Note_on_c, 0, 60, 67
2, 715456, Note_off_c, 0, 60, 67
2, 715520, Note_off_c, 0, 60, 67
2, 715520, Note_on_c, 0, 46, 67
2, 715584, Note_off_c, 0, 46, 67
2, 715648, Note_off_c, 0, 46, 67
2, 715648, Note_on_c, 0, 58, 67
2, 715712, Note_off_c, 0, 58, 67
2, 715776, Note_off_c, 0, 58, 67
2, 715776, Note_on_c, 0, 50, 67
2, 715840, Note_off_c, 0, 50, 67
2, 715904, Note_off_c, 0, 50, 67
2, 715904, Note_on_c, 0, 62, 67
2, 715968, Note_off_c, 0, 62, 67
2, 716032, Note_off_c, 0, 62, 67
2, 716032, Note_on_c, 0, 46, 67
2, 716096, Note_off_c, 0, 46, 67
2, 716160, Note_off_c, 0, 46, 67
2, 716160, Note_on_c, 0, 58, 67
2, 716224, Note_off_c, 0, 58, 67
2, 716288, Note_off_c, 0, 58, 67
2, 716288, Note_on_c, 0, 48, 67
2, 716352, Note_off_c, 0, 48, 67
2, 716416, Note_off_c, 0, 48, 67
2, 716416, Note_on_c, 0, 60, 67
2, 716480, Note_off_c, 0, 60, 67
2, 716544, Note_off_c, 0, 60, 67
2, 716544, Note_on_c, 0, 49, 67
2, 716608, Note_off_c, 0, 49, 67
2, 716672, Note_off_c, 0, 49, 67
2, 716672, Note_on_c, 0, 61, 67
2, 716736, Note_off_c, 0, 61, 67
2, 716800, Note_off_c, 0, 61, 67
2, 716800, Note_on_c, 0, 50, 67
2, 716864, Note_off_c, 0, 50, 67
2, 716928, Note_off_c, 0, 50, 67
2, 716928, Note_on_c, 0, 62, 67
2, 716992, Note_off_c, 0, 62, 67
2, 717056, Note_off_c, 0, 62, 67
2, 717056, Note_on_c, 0, 46, 67
2, 717120, Note_off_c, 0, 46, 67
2, 717184, Note_off_c, 0, 46, 67
2, 717184, Note_on_c, 0, 58, 67
2, 717248, Note_off_c, 0, 58, 67
2, 717312, Note_off_c, 0, 58, 67
2, 717312, Note_on_c, 0, 51, 67
2, 717376, Note_off_c, 0, 51, 67
2, 717440, Note_off_c, 0, 51, 67
2, 717440, Note_on_c, 0, 63, 67
2, 717504, Note_off_c, 0, 63, 67
2, 717568, Note_off_c, 0, 63, 67
2, 717568, Note_on_c, 0, 46, 67
2, 717632, Note_off_c, 0, 46, 67
2, 717696, Note_off_c, 0, 46, 67
2, 717696, Note_on_c, 0, 58, 67
2, 717760, Note_off_c, 0, 58, 67
2, 717824, Note_off_c, 0, 58, 67
2, 717824, Note_on_c, 0, 51, 67
2, 717888, Note_off_c, 0, 51, 67
2, 717952, Note_off_c, 0, 51, 67
2, 717952, Note_on_c, 0, 63, 67
2, 718016, Note_off_c, 0, 63, 67
2, 718080, Note_off_c, 0, 63, 67
2, 718080, Note_on_c, 0, 50, 67
2, 718144, Note_off_c, 0, 50, 67
2, 718208, Note_off_c, 0, 50, 67
2, 718208, Note_on_c, 0, 62, 67
2, 718272, Note_off_c, 0, 62, 67
2, 718336, Note_off_c, 0, 62, 67
2, 718336, Note_on_c, 0, 48, 67
2, 718400, Note_off_c, 0, 48, 67
2, 718464, Note_off_c, 0, 48, 67
2, 718464, Note_on_c, 0, 60, 67
2, 718528, Note_off_c, 0, 60, 67
2, 718592, Note_off_c, 0, 60, 67
2, 718592, Note_on_c, 0, 46, 67
2, 718656, Note_off_c, 0, 46, 67
2, 718720, Note_off_c, 0, 46, 67
2, 718720, Note_on_c, 0, 58, 67
2, 718784, Note_off_c, 0, 58, 67
2, 718848, Note_off_c, 0, 58, 67
2, 718848, Note_on_c, 0, 51, 67
2, 718912, Note_off_c, 0, 51, 67
2, 718976, Note_off_c, 0, 51, 67
2, 718976, Note_on_c, 0, 63, 67
2, 719040, Note_off_c, 0, 63, 67
2, 719104, Note_off_c, 0, 63, 67
2, 719104, Note_on_c, 0, 46, 67
2, 719168, Note_off_c, 0, 46, 67
2, 719232, Note_off_c, 0, 46, 67
2, 719232, Note_on_c, 0, 58, 67
2, 719296, Note_off_c, 0, 58, 67
2, 719360, Note_off_c, 0, 58, 67
2, 719360, Note_on_c, 0, 48, 67
2, 719424, Note_off_c, 0, 48, 67
2, 719488, Note_off_c, 0, 48, 67
2, 719488, Note_on_c, 0, 60, 67
2, 719552, Note_off_c, 0, 60, 67
2, 719616, Note_off_c, 0, 60, 67
2, 719616, Note_on_c, 0, 46, 67
2, 719680, Note_off_c, 0, 46, 67
2, 719744, Note_off_c, 0, 46, 67
2, 719744, Note_on_c, 0, 58, 67
2, 719808, Note_off_c, 0, 58, 67
2, 719872, Note_off_c, 0, 58, 67
2, 719872, Note_on_c, 0, 50, 67
2, 719936, Note_off_c, 0, 50, 67
2, 720000, Note_off_c, 0, 50, 67
2, 720000, Note_on_c, 0, 62, 67
2, 720064, Note_off_c, 0, 62, 67
2, 720128, Note_off_c, 0, 62, 67
2, 720128, Note_on_c, 0, 48, 67
2, 720192, Note_off_c, 0, 48, 67
2, 720256, Note_off_c, 0, 48, 67
2, 720256, Note_on_c, 0, 60, 67
2, 720320, Note_off_c, 0, 60, 67
2, 720384, Note_off_c, 0, 60, 67
2, 720384, Note_on_c, 0, 46, 67
2, 720448, Note_off_c, 0, 46, 67
2, 720512, Note_off_c, 0, 46, 67
2, 720512, Note_on_c, 0, 58, 67
2, 720576, Note_off_c, 0, 58, 67
2, 720640, Note_off_c, 0, 58, 67
2, 720640, Note_on_c, 0, 48, 67
2, 720704, Note_off_c, 0, 48, 67
2, 720768, Note_off_c, 0, 48, 67
2, 720768, Note_on_c, 0, 60, 67
2, 720832, Note_off_c, 0, 60, 67
2, 720896, Note_off_c, 0, 60, 67
2, 720896, Note_on_c, 0, 50, 67
2, 720960, Note_off_c, 0, 50, 67
2, 721024, Note_off_c, 0, 50, 67
2, 721024, Note_on_c, 0, 62, 67
2, 721088, Note_off_c, 0, 62, 67
2, 721152, Note_off_c, 0, 62, 67
2, 721152, Note_on_c, 0, 46, 67
2, 721216, Note_off_c, 0, 46, 67
2, 721280, Note_off_c, 0, 46, 67
2, 721280, Note_on_c, 0, 58, 67
2, 721344, Note_off_c, 0, 58, 67
2, 721408, Note_off_c, 0, 58, 67
2, 721408, Note_on_c, 0, 51, 67
2, 721472, Note_off_c, 0, 51, 67
2, 721536, Note_off_c, 0, 51, 67
2, 721536, Note_on_c, 0, 63, 67
2, 721600, Note_off_c, 0, 63, 67
2, 721664, Note_off_c, 0, 63, 67
2, 721664, Note_on_c, 0, 46, 67
2, 721728, Note_off_c, 0, 46, 67
2, 721792, Note_off_c, 0, 46, 67
2, 721792, Note_on_c, 0, 58, 67
2, 721856, Note_off_c, 0, 58, 67
2, 721920, Note_off_c, 0, 58, 67
2, 721920, Note_on_c, 0, 39, 67
2, 721984, Note_off_c, 0, 39, 67
2, 721984, Note_on_c, 0, 46, 67
2, 722048, Note_off_c, 0, 46, 67
2, 722048, Note_on_c, 0, 51, 67
2, 722112, Note_off_c, 0, 51, 67
2, 722112, Note_on_c, 0, 53, 67
2, 722176, Note_off_c, 0, 53, 67
2, 722176, Note_on_c, 0, 55, 67
2, 722240, Note_off_c, 0, 55, 67
2, 722240, Note_on_c, 0, 51, 67
2, 722304, Note_off_c, 0, 51, 67
2, 722304, Note_on_c, 0, 58, 67
2, 722368, Note_off_c, 0, 58, 67
2, 722368, Note_on_c, 0, 63, 67
2, 722416, Control_c, 0, 93, 0
2, 722432, Note_off_c, 0, 63, 67
2, 722432, Note_on_c, 0, 44, 67
2, 722496, Note_off_c, 0, 44, 67
2, 722496, Note_on_c, 0, 51, 67
2, 722560, Note_off_c, 0, 51, 67
2, 722560, Note_on_c, 0, 56, 67
2, 722624, Note_off_c, 0, 56, 67
2, 722624, Note_on_c, 0, 58, 67
2, 722688, Note_off_c, 0, 58, 67
2, 722688, Note_on_c, 0, 60, 67
2, 722752, Note_off_c, 0, 60, 67
2, 722752, Note_on_c, 0, 56, 67
2, 722816, Note_off_c, 0, 56, 67
2, 722816, Note_on_c, 0, 63, 67
2, 722880, Note_off_c, 0, 63, 67
2, 722880, Note_on_c, 0, 68, 67
2, 722928, Control_c, 0, 93, 0
2, 722944, Note_off_c, 0, 68, 67
2, 722944, Note_on_c, 0, 46, 67
2, 723008, Note_off_c, 0, 46, 67
2, 723008, Note_on_c, 0, 53, 67
2, 723072, Note_off_c, 0, 53, 67
2, 723072, Note_on_c, 0, 58, 67
2, 723136, Note_off_c, 0, 58, 67
2, 723136, Note_on_c, 0, 60, 67
2, 723200, Note_off_c, 0, 60, 67
2, 723200, Note_on_c, 0, 62, 67
2, 723264, Note_off_c, 0, 62, 67
2, 723264, Note_on_c, 0, 58, 67
2, 723328, Note_off_c, 0, 58, 67
2, 723328, Note_on_c, 0, 65, 67
2, 723392, Note_off_c, 0, 65, 67
2, 723392, Note_on_c, 0, 70, 67
2, 723440, Control_c, 0, 93, 0
2, 723456, Note_off_c, 0, 70, 67
2, 723456, Note_on_c, 0, 41, 67
2, 723520, Note_off_c, 0, 41, 67
2, 723520, Note_on_c, 0, 44, 67
2, 723584, Note_off_c, 0, 44, 67
2, 723584, Control_c, 0, 64, 64
2, 723584, Note_on_c, 0, 50, 67
2, 723605, Note_off_c, 0, 50, 67
2, 723605, Note_on_c, 0, 53, 67
2, 723626, Note_off_c, 0, 53, 67
2, 723626, Note_on_c, 0, 58, 67
2, 723647, Note_off_c, 0, 58, 67
2, 723648, Control_c, 0, 93, 0
2, 723648, Note_on_c, 0, 62, 67
2, 723669, Note_off_c, 0, 62, 67
2, 723669, Note_on_c, 0, 65, 67
2, 723690, Note_off_c, 0, 65, 67
2, 723690, Note_on_c, 0, 70, 67
2, 723712, Control_c, 0, 93, 0
2, 723712, Control_c, 0, 64, 0
2, 723840, Note_off_c, 0, 70, 67
2, 723840, Note_on_c, 0, 51, 67
2, 723904, Note_off_c, 0, 51, 67
2, 723904, Note_on_c, 0, 46, 67
2, 723968, Note_off_c, 0, 46, 67
2, 723968, Note_on_c, 0, 39, 67
2, 724032, Note_off_c, 0, 39, 67
2, 724032, Note_on_c, 0, 46, 67
2, 724096, Note_off_c, 0, 46, 67
2, 724096, Note_on_c, 0, 51, 67
2, 724160, Note_off_c, 0, 51, 67
2, 724160, Note_on_c, 0, 53, 67
2, 724224, Note_off_c, 0, 53, 67
2, 724224, Note_on_c, 0, 55, 67
2, 724288, Note_off_c, 0, 55, 67
2, 724288, Note_on_c, 0, 51, 67
2, 724352, Note_off_c, 0, 51, 67
2, 724352, Note_on_c, 0, 58, 67
2, 724416, Note_off_c, 0, 58, 67
2, 724416, Note_on_c, 0, 63, 67
2, 724464, Control_c, 0, 93, 0
2, 724480, Note_off_c, 0, 63, 67
2, 724480, Note_on_c, 0, 44, 67
2, 724544, Note_off_c, 0, 44, 67
2, 724544, Note_on_c, 0, 51, 67
2, 724608, Note_off_c, 0, 51, 67
2, 724608, Note_on_c, 0, 56, 67
2, 724672, Note_off_c, 0, 56, 67
2, 724672, Note_on_c, 0, 58, 67
2, 724736, Note_off_c, 0, 58, 67
2, 724736, Note_on_c, 0, 60, 67
2, 724800, Note_off_c, 0, 60, 67
2, 724800, Note_on_c, 0, 56, 67
2, 724864, Note_off_c, 0, 56, 67
2, 724864, Note_on_c, 0, 63, 67
2, 724928, Note_off_c, 0, 63, 67
2, 724928, Note_on_c, 0, 68, 67
2, 724976, Control_c, 0, 93, 0
2, 724992, Note_off_c, 0, 68, 67
2, 724992, Note_on_c, 0, 46, 67
2, 725056, Note_off_c, 0, 46, 67
2, 725056, Note_on_c, 0, 53, 67
2, 725120, Note_off_c, 0, 53, 67
2, 725120, Note_on_c, 0, 58, 67
2, 725184, Note_off_c, 0, 58, 67
2, 725184, Note_on_c, 0, 60, 67
2, 725248, Note_off_c, 0, 60, 67
2, 725248, Note_on_c, 0, 62, 67
2, 725312, Note_off_c, 0, 62, 67
2, 725312, Note_on_c, 0, 58, 67
2, 725376, Note_off_c, 0, 58, 67
2, 725376, Note_on_c, 0, 65, 67
2, 725440, Note_off_c, 0, 65, 67
2, 725440, Note_on_c, 0, 70, 67
2, 725488, Control_c, 0, 93, 0
2, 725504, Note_off_c, 0, 70, 67
2, 725504, Note_on_c, 0, 39, 67
2, 725568, Note_off_c, 0, 39, 67
2, 725568, Note_on_c, 0, 46, 67
2, 725632, Note_off_c, 0, 46, 67
2, 725632, Note_on_c, 0, 51, 67
2, 725696, Note_off_c, 0, 51, 67
2, 725696, Control_c, 0, 64, 64
2, 725696, Note_on_c, 0, 55, 67
2, 725706, Note_off_c, 0, 55, 67
2, 725706, Note_on_c, 0, 58, 67
2, 725717, Note_off_c, 0, 58, 67
2, 725717, Note_on_c, 0, 63, 67
2, 725727, Note_off_c, 0, 63, 67
2, 725728, Control_c, 0, 93, 0
2, 725728, Note_on_c, 0, 67, 67
2, 725738, Note_off_c, 0, 67, 67
2, 725738, Note_on_c, 0, 70, 67
2, 725749, Note_off_c, 0, 70, 67
2, 725749, Note_on_c, 0, 75, 67
2, 725759, Note_off_c, 0, 75, 67
2, 725760, Control_c, 0, 93, 0
2, 725888, Control_c, 0, 93, 0
2, 725952, Control_c, 0, 93, 0
2, 725952, Control_c, 0, 64, 0
2, 726016, Control_c, 0, 93, 0
2, 726016, Note_on_c, 0, 51, 67
2, 726080, Note_off_c, 0, 51, 67
2, 726144, Note_off_c, 0, 51, 67
2, 726144, Note_on_c, 0, 63, 67
2, 726208, Note_off_c, 0, 63, 67
2, 726272, Note_off_c, 0, 63, 67
2, 726272, Note_on_c, 0, 50, 67
2, 726336, Note_off_c, 0, 50, 67
2, 726400, Note_off_c, 0, 50, 67
2, 726400, Note_on_c, 0, 62, 67
2, 726464, Note_off_c, 0, 62, 67
2, 726528, Note_off_c, 0, 62, 67
2, 726528, Note_on_c, 0, 48, 67
2, 726592, Note_off_c, 0, 48, 67
2, 726656, Note_off_c, 0, 48, 67
2, 726656, Note_on_c, 0, 60, 67
2, 726720, Note_off_c, 0, 60, 67
2, 726784, Note_off_c, 0, 60, 67
2, 726784, Note_on_c, 0, 46, 67
2, 726848, Note_off_c, 0, 46, 67
2, 726912, Note_off_c, 0, 46, 67
2, 726912, Note_on_c, 0, 58, 67
2, 726976, Note_off_c, 0, 58, 67
2, 727040, Note_off_c, 0, 58, 67
2, 727040, Note_on_c, 0, 51, 67
2, 727104, Note_off_c, 0, 51, 67
2, 727168, Note_off_c, 0, 51, 67
2, 727168, Note_on_c, 0, 63, 67
2, 727232, Note_off_c, 0, 63, 67
2, 727296, Note_off_c, 0, 63, 67
2, 727296, Note_on_c, 0, 46, 67
2, 727360, Note_off_c, 0, 46, 67
2, 727424, Note_off_c, 0, 46, 67
2, 727424, Note_on_c, 0, 58, 67
2, 727488, Note_off_c, 0, 58, 67
2, 727552, Note_off_c, 0, 58, 67
2, 727552, Note_on_c, 0, 48, 67
2, 727616, Note_off_c, 0, 48, 67
2, 727680, Note_off_c, 0, 48, 67
2, 727680, Note_on_c, 0, 60, 67
2, 727744, Note_off_c, 0, 60, 67
2, 727808, Note_off_c, 0, 60, 67
2, 727808, Note_on_c, 0, 46, 67
2, 727872, Note_off_c, 0, 46, 67
2, 727936, Note_off_c, 0, 46, 67
2, 727936, Note_on_c, 0, 58, 67
2, 728000, Note_off_c, 0, 58, 67
2, 728064, Note_off_c, 0, 58, 67
2, 728064, Note_on_c, 0, 50, 67
2, 728128, Note_off_c, 0, 50, 67
2, 728192, Note_off_c, 0, 50, 67
2, 728192, Note_on_c, 0, 62, 67
2, 728256, Note_off_c, 0, 62, 67
2, 728320, Note_off_c, 0, 62, 67
2, 728320, Note_on_c, 0, 46, 67
2, 728384, Note_off_c, 0, 46, 67
2, 728448, Note_off_c, 0, 46, 67
2, 728448, Note_on_c, 0, 58, 67
2, 728512, Note_off_c, 0, 58, 67
2, 728576, Note_off_c, 0, 58, 67
2, 728576, Note_on_c, 0, 48, 67
2, 728640, Note_off_c, 0, 48, 67
2, 728704, Note_off_c, 0, 48, 67
2, 728704, Note_on_c, 0, 60, 67
2, 728768, Note_off_c, 0, 60, 67
2, 728832, Note_off_c, 0, 60, 67
2, 728832, Note_on_c, 0, 49, 67
2, 728896, Note_off_c, 0, 49, 67
2, 728960, Note_off_c, 0, 49, 67
2, 728960, Note_on_c, 0, 61, 67
2, 729024, Note_off_c, 0, 61, 67
2, 729088, Note_off_c, 0, 61, 67
2, 729088, Note_on_c, 0, 50, 67
2, 729152, Note_off_c, 0, 50, 67
2, 729216, Note_off_c, 0, 50, 67
2, 729216, Note_on_c, 0, 62, 67
2, 729280, Note_off_c, 0, 62, 67
2, 729344, Note_off_c, 0, 62, 67
2, 729344, Note_on_c, 0, 46, 67
2, 729408, Note_off_c, 0, 46, 67
2, 729472, Note_off_c, 0, 46, 67
2, 729472, Note_on_c, 0, 58, 67
2, 729536, Note_off_c, 0, 58, 67
2, 729600, Note_off_c, 0, 58, 67
2, 729600, Note_on_c, 0, 51, 67
2, 729664, Note_off_c, 0, 51, 67
2, 729728, Note_off_c, 0, 51, 67
2, 729728, Note_on_c, 0, 63, 67
2, 729792, Note_off_c, 0, 63, 67
2, 729856, Note_off_c, 0, 63, 67
2, 729856, Note_on_c, 0, 46, 67
2, 729920, Note_off_c, 0, 46, 67
2, 729984, Note_off_c, 0, 46, 67
2, 729984, Note_on_c, 0, 58, 67
2, 730048, Note_off_c, 0, 58, 67
2, 730112, Note_off_c, 0, 58, 67
2, 730112, Note_on_c, 0, 51, 67
2, 730176, Note_off_c, 0, 51, 67
2, 730240, Note_off_c, 0, 51, 67
2, 730240, Note_on_c, 0, 63, 67
2, 730304, Note_off_c, 0, 63, 67
2, 730368, Note_off_c, 0, 63, 67
2, 730368, Note_on_c, 0, 50, 67
2, 730432, Note_off_c, 0, 50, 67
2, 730496, Note_off_c, 0, 50, 67
2, 730496, Note_on_c, 0, 62, 67
2, 730560, Note_off_c, 0, 62, 67
2, 730624, Note_off_c, 0, 62, 67
2, 730624, Note_on_c, 0, 48, 67
2, 730688, Note_off_c, 0, 48, 67
2, 730752, Note_off_c, 0, 48, 67
2, 730752, Note_on_c, 0, 60, 67
2, 730816, Note_off_c, 0, 60, 67
2, 730880, Note_off_c, 0, 60, 67
2, 730880, Note_on_c, 0, 46, 67
2, 730944, Note_off_c, 0, 46, 67
2, 731008, Note_off_c, 0, 46, 67
2, 731008, Note_on_c, 0, 58, 67
2, 731072, Note_off_c, 0, 58, 67
2, 731136, Note_off_c, 0, 58, 67
2, 731136, Note_on_c, 0, 51, 67
2, 731200, Note_off_c, 0, 51, 67
2, 731264, Note_off_c, 0, 51, 67
2, 731264, Note_on_c, 0, 63, 67
2, 731328, Note_off_c, 0, 63, 67
2, 731392, Note_off_c, 0, 63, 67
2, 731392, Note_on_c, 0, 46, 67
2, 731456, Note_off_c, 0, 46, 67
2, 731520, Note_off_c, 0, 46, 67
2, 731520, Note_on_c, 0, 58, 67
2, 731584, Note_off_c, 0, 58, 67
2, 731648, Note_off_c, 0, 58, 67
2, 731648, Note_on_c, 0, 48, 67
2, 731712, Note_off_c, 0, 48, 67
2, 731776, Note_off_c, 0, 48, 67
2, 731776, Note_on_c, 0, 60, 67
2, 731840, Note_off_c, 0, 60, 67
2, 731904, Note_off_c, 0, 60, 67
2, 731904, Note_on_c, 0, 46, 67
2, 731968, Note_off_c, 0, 46, 67
2, 732032, Note_off_c, 0, 46, 67
2, 732032, Note_on_c, 0, 58, 67
2, 732096, Note_off_c, 0, 58, 67
2, 732160, Note_off_c, 0, 58, 67
2, 732160, Note_on_c, 0, 50, 67
2, 732224, Note_off_c, 0, 50, 67
2, 732288, Note_off_c, 0, 50, 67
2, 732288, Note_on_c, 0, 62, 67
2, 732352, Note_off_c, 0, 62, 67
2, 732416, Note_off_c, 0, 62, 67
2, 732416, Note_on_c, 0, 48, 67
2, 732480, Note_off_c, 0, 48, 67
2, 732544, Note_off_c, 0, 48, 67
2, 732544, Note_on_c, 0, 60, 67
2, 732608, Note_off_c, 0, 60, 67
2, 732672, Note_off_c, 0, 60, 67
2, 732672, Note_on_c, 0, 46, 67
2, 732736, Note_off_c, 0, 46, 67
2, 732800, Note_off_c, 0, 46, 67
2, 732800, Note_on_c, 0, 58, 67
2, 732864, Note_off_c, 0, 58, 67
2, 732928, Note_off_c, 0, 58, 67
2, 732928, Note_on_c, 0, 48, 67
2, 732992, Note_off_c, 0, 48, 67
2, 733056, Note_off_c, 0, 48, 67
2, 733056, Note_on_c, 0, 60, 67
2, 733120, Note_off_c, 0, 60, 67
2, 733184, Note_off_c, 0, 60, 67
2, 733184, Note_on_c, 0, 50, 67
2, 733248, Note_off_c, 0, 50, 67
2, 733312, Note_off_c, 0, 50, 67
2, 733312, Note_on_c, 0, 62, 67
2, 733376, Note_off_c, 0, 62, 67
2, 733440, Note_off_c, 0, 62, 67
2, 733440, Note_on_c, 0, 46, 67
2, 733504, Note_off_c, 0, 46, 67
2, 733568, Note_off_c, 0, 46, 67
2, 733568, Note_on_c, 0, 58, 67
2, 733632, Note_off_c, 0, 58, 67
2, 733696, Note_off_c, 0, 58, 67
2, 733696, Note_on_c, 0, 51, 67
2, 733760, Note_off_c, 0, 51, 67
2, 733824, Note_off_c, 0, 51, 67
2, 733824, Note_on_c, 0, 63, 67
2, 733888, Note_off_c, 0, 63, 67
2, 733952, Note_off_c, 0, 63, 67
2, 733952, Note_on_c, 0, 46, 67
2, 734016, Note_off_c, 0, 46, 67
2, 734080, Note_off_c, 0, 46, 67
2, 734080, Note_on_c, 0, 58, 67
2, 734144, Note_off_c, 0, 58, 67
2, 734208, Note_off_c, 0, 58, 67
2, 734208, Note_on_c, 0, 39, 67
2, 734272, Note_off_c, 0, 39, 67
2, 734272, Note_on_c, 0, 46, 67
2, 734336, Note_off_c, 0, 46, 67
2, 734336, Note_on_c, 0, 51, 67
2, 734400, Note_off_c, 0, 51, 67
2, 734400, Note_on_c, 0, 53, 67
2, 734464, Note_off_c, 0, 53, 67
2, 734464, Note_on_c, 0, 55, 67
2, 734528, Note_off_c, 0, 55, 67
2, 734528, Note_on_c, 0, 51, 67
2, 734592, Note_off_c, 0, 51, 67
2, 734592, Note_on_c, 0, 58, 67
2, 734656, Note_off_c, 0, 58, 67
2, 734656, Note_on_c, 0, 63, 67
2, 734704, Control_c, 0, 93, 0
2, 734720, Note_off_c, 0, 63, 67
2, 734720, Note_on_c, 0, 44, 67
2, 734784, Note_off_c, 0, 44, 67
2, 734784, Note_on_c, 0, 51, 67
2, 734848, Note_off_c, 0, 51, 67
2, 734848, Note_on_c, 0, 56, 67
2, 734912, Note_off_c, 0, 56, 67
2, 734912, Note_on_c, 0, 58, 67
2, 734976, Note_off_c, 0, 58, 67
2, 734976, Note_on_c, 0, 60, 67
2, 735040, Note_off_c, 0, 60, 67
2, 735040, Note_on_c, 0, 56, 67
2, 735104, Note_off_c, 0, 56, 67
2, 735104, Note_on_c, 0, 63, 67
2, 735168, Note_off_c, 0, 63, 67
2, 735168, Note_on_c, 0, 68, 67
2, 735216, Control_c, 0, 93, 0
2, 735232, Note_off_c, 0, 68, 67
2, 735232, Note_on_c, 0, 46, 67
2, 735296, Note_off_c, 0, 46, 67
2, 735296, Note_on_c, 0, 53, 67
2, 735360, Note_off_c, 0, 53, 67
2, 735360, Note_on_c, 0, 58, 67
2, 735424, Note_off_c, 0, 58, 67
2, 735424, Note_on_c, 0, 60, 67
2, 735488, Note_off_c, 0, 60, 67
2, 735488, Note_on_c, 0, 62, 67
2, 735552, Note_off_c, 0, 62, 67
2, 735552, Note_on_c, 0, 58, 67
2, 735616, Note_off_c, 0, 58, 67
2, 735616, Note_on_c, 0, 65, 67
2, 735680, Note_off_c, 0, 65, 67
2, 735680, Note_on_c, 0, 70, 67
2, 735728, Control_c, 0, 93, 0
2, 735744, Note_off_c, 0, 70, 67
2, 735744, Note_on_c, 0, 41, 67
2, 735808, Note_off_c, 0, 41, 67
2, 735808, Note_on_c, 0, 44, 67
2, 735872, Note_off_c, 0, 44, 67
2, 735872, Control_c, 0, 64, 64
2, 735872, Note_on_c, 0, 50, 67
2, 735893, Note_off_c, 0, 50, 67
2, 735893, Note_on_c, 0, 53, 67
2, 735914, Note_off_c, 0, 53, 67
2, 735914, Note_on_c, 0, 58, 67
2, 735935, Note_off_c, 0, 58, 67
2, 735936, Control_c, 0, 93, 0
2, 735936, Note_on_c, 0, 62, 67
2, 735957, Note_off_c, 0, 62, 67
2, 735957, Note_on_c, 0, 65, 67
2, 735978, Note_off_c, 0, 65, 67
2, 735978, Note_on_c, 0, 70, 67
2, 736000, Control_c, 0, 93, 0
2, 736000, Control_c, 0, 64, 0
2, 736128, Note_off_c, 0, 70, 67
2, 736128, Note_on_c, 0, 51, 67
2, 736192, Note_off_c, 0, 51, 67
2, 736192, Note_on_c, 0, 46, 67
2, 736256, Note_off_c, 0, 46, 67
2, 736256, Note_on_c, 0, 39, 67
2, 736320, Note_off_c, 0, 39, 67
2, 736320, Note_on_c, 0, 46, 67
2, 736384, Note_off_c, 0, 46, 67
2, 736384, Note_on_c, 0, 51, 67
2, 736448, Note_off_c, 0, 51, 67
2, 736448, Note_on_c, 0, 53, 67
2, 736512, Note_off_c, 0, 53, 67
2, 736512, Note_on_c, 0, 55, 67
2, 736576, Note_off_c, 0, 55, 67
2, 736576, Note_on_c, 0, 51, 67
2, 736640, Note_off_c, 0, 51, 67
2, 736640, Note_on_c, 0, 58, 67
2, 736704, Note_off_c, 0, 58, 67
2, 736704, Note_on_c, 0, 63, 67
2, 736752, Control_c, 0, 93, 0
2, 736768, Note_off_c, 0, 63, 67
2, 736768, Note_on_c, 0, 44, 67
2, 736832, Note_off_c, 0, 44, 67
2, 736832, Note_on_c, 0, 51, 67
2, 736896, Note_off_c, 0, 51, 67
2, 736896, Note_on_c, 0, 56, 67
2, 736960, Note_off_c, 0, 56, 67
2, 736960, Note_on_c, 0, 58, 67
2, 737024, Note_off_c, 0, 58, 67
2, 737024, Note_on_c, 0, 60, 67
2, 737088, Note_off_c, 0, 60, 67
2, 737088, Note_on_c, 0, 56, 67
2, 737152, Note_off_c, 0, 56, 67
2, 737152, Note_on_c, 0, 63, 67
2, 737216, Note_off_c, 0, 63, 67
2, 737216, Note_on_c, 0, 68, 67
2, 737264, Control_c, 0, 93, 0
2, 737280, Note_off_c, 0, 68, 67
2, 737280, Note_on_c, 0, 46, 67
2, 737344, Note_off_c, 0, 46, 67
2, 737344, Note_on_c, 0, 53, 67
2, 737408, Note_off_c, 0, 53, 67
2, 737408, Note_on_c, 0, 58, 67
2, 737472, Note_off_c, 0, 58, 67
2, 737472, Note_on_c, 0, 60, 67
2, 737536, Note_off_c, 0, 60, 67
2, 737536, Note_on_c, 0, 62, 67
2, 737600, Note_off_c, 0, 62, 67
2, 737600, Note_on_c, 0, 58, 67
2, 737664, Note_off_c, 0, 58, 67
2, 737664, Note_on_c, 0, 65, 67
2, 737728, Note_off_c, 0, 65, 67
2, 737728, Note_on_c, 0, 70, 67
2, 737776, Control_c, 0, 93, 0
2, 737792, Note_off_c, 0, 70, 67
2, 737792, Note_on_c, 0, 39, 67
2, 737856, Note_off_c, 0, 39, 67
2, 737856, Note_on_c, 0, 46, 67
2, 737920, Note_off_c, 0, 46, 67
2, 737920, Note_on_c, 0, 51, 67
2, 737984, Note_off_c, 0, 51, 67
2, 737984, Control_c, 0, 64, 64
2, 737984, Note_on_c, 0, 55, 67
2, 737994, Note_off_c, 0, 55, 67
2, 737994, Note_on_c, 0, 58, 67
2, 738005, Note_off_c, 0, 58, 67
2, 738005, Note_on_c, 0, 63, 67
2, 738015, Note_off_c, 0, 63, 67
2, 738016, Control_c, 0, 93, 0
2, 738016, Note_on_c, 0, 67, 67
2, 738026, Note_off_c, 0, 67, 67
2, 738026, Note_on_c, 0, 70, 67
2, 738037, Note_off_c, 0, 70, 67
2, 738037, Note_on_c, 0, 75, 67
2, 738047, Note_off_c, 0, 75, 67
2, 738048, Control_c, 0, 93, 0
2, 738176, Control_c, 0, 93, 0
2, 738240, Control_c, 0, 93, 0
2, 738240, Control_c, 0, 64, 0
2, 738304, Control_c, 0, 93, 0
2, 738304, Note_on_c, 0, 51, 67
2, 738368, Note_off_c, 0, 51, 67
2, 738432, Note_off_c, 0, 51, 67
2, 738432, Note_on_c, 0, 63, 67
2, 738496, Note_off_c, 0, 63, 67
2, 738560, Note_off_c, 0, 63, 67
2, 738560, Note_on_c, 0, 50, 67
2, 738624, Note_off_c, 0, 50, 67
2, 738688, Note_off_c, 0, 50, 67
2, 738688, Note_on_c, 0, 62, 67
2, 738752, Note_off_c, 0, 62, 67
2, 738816, Note_off_c, 0, 62, 67
2, 738816, Note_on_c, 0, 48, 67
2, 738880, Note_off_c, 0, 48, 67
2, 738944, Note_off_c, 0, 48, 67
2, 738944, Note_on_c, 0, 60, 67
2, 739008, Note_off_c, 0, 60, 67
2, 739072, Note_off_c, 0, 60, 67
2, 739072, Note_on_c, 0, 46, 67
2, 739136, Note_off_c, 0, 46, 67
2, 739200, Note_off_c, 0, 46, 67
2, 739200, Note_on_c, 0, 58, 67
2, 739264, Note_off_c, 0, 58, 67
2, 739328, Note_off_c, 0, 58, 67
2, 739328, Note_on_c, 0, 51, 67
2, 739392, Note_off_c, 0, 51, 67
2, 739456, Note_off_c, 0, 51, 67
2, 739456, Note_on_c, 0, 63, 67
2, 739520, Note_off_c, 0, 63, 67
2, 739584, Note_off_c, 0, 63, 67
2, 739584, Note_on_c, 0, 46, 67
2, 739648, Note_off_c, 0, 46, 67
2, 739712, Note_off_c, 0, 46, 67
2, 739712, Note_on_c, 0, 58, 67
2, 739776, Note_off_c, 0, 58, 67
2, 739840, Note_off_c, 0, 58, 67
2, 739840, Note_on_c, 0, 48, 67
2, 739904, Note_off_c, 0, 48, 67
2, 739968, Note_off_c, 0, 48, 67
2, 739968, Note_on_c, 0, 60, 67
2, 740032, Note_off_c, 0, 60, 67
2, 740096, Note_off_c, 0, 60, 67
2, 740096, Note_on_c, 0, 46, 67
2, 740160, Note_off_c, 0, 46, 67
2, 740224, Note_off_c, 0, 46, 67
2, 740224, Note_on_c, 0, 58, 67
2, 740288, Note_off_c, 0, 58, 67
2, 740352, Note_off_c, 0, 58, 67
2, 740352, Note_on_c, 0, 50, 67
2, 740416, Note_off_c, 0, 50, 67
2, 740480, Note_off_c, 0, 50, 67
2, 740480, Note_on_c, 0, 62, 67
2, 740544, Note_off_c, 0, 62, 67
2, 740608, Note_off_c, 0, 62, 67
2, 740608, Note_on_c, 0, 46, 67
2, 740672, Note_off_c, 0, 46, 67
2, 740736, Note_off_c, 0, 46, 67
2, 740736, Note_on_c, 0, 58, 67
2, 740800, Note_off_c, 0, 58, 67
2, 740864, Note_off_c, 0, 58, 67
2, 740864, Note_on_c, 0, 48, 67
2, 740928, Note_off_c, 0, 48, 67
2, 740992, Note_off_c, 0, 48, 67
2, 740992, Note_on_c, 0, 60, 67
2, 741056, Note_off_c, 0, 60, 67
2, 741120, Note_off_c, 0, 60, 67
2, 741120, Note_on_c, 0, 49, 67
2, 741184, Note_off_c, 0, 49, 67
2, 741248, Note_off_c, 0, 49, 67
2, 741248, Note_on_c, 0, 61, 67
2, 741312, Note_off_c, 0, 61, 67
2, 741376, Note_off_c, 0, 61, 67
2, 741376, Note_on_c, 0, 50, 67
2, 741440, Note_off_c, 0, 50, 67
2, 741504, Note_off_c, 0, 50, 67
2, 741504, Note_on_c, 0, 62, 67
2, 741568, Note_off_c, 0, 62, 67
2, 741632, Note_off_c, 0, 62, 67
2, 741632, Note_on_c, 0, 46, 67
2, 741696, Note_off_c, 0, 46, 67
2, 741760, Note_off_c, 0, 46, 67
2, 741760, Note_on_c, 0, 58, 67
2, 741824, Note_off_c, 0, 58, 67
2, 741888, Note_off_c, 0, 58, 67
2, 741888, Note_on_c, 0, 51, 67
2, 741952, Note_off_c, 0, 51, 67
2, 742016, Note_off_c, 0, 51, 67
2, 742016, Note_on_c, 0, 63, 67
2, 742080, Note_off_c, 0, 63, 67
2, 742144, Note_off_c, 0, 63, 67
2, 742144, Note_on_c, 0, 46, 67
2, 742208, Note_off_c, 0, 46, 67
2, 742272, Note_off_c, 0, 46, 67
2, 742272, Note_on_c, 0, 58, 67
2, 742336, Note_off_c, 0, 58, 67
2, 742400, Note_off_c, 0, 58, 67
2, 742400, Note_on_c, 0, 51, 67
2, 742464, Note_off_c, 0, 51, 67
2, 742528, Note_off_c, 0, 51, 67
2, 742528, Note_on_c, 0, 63, 67
2, 742592, Note_off_c, 0, 63, 67
2, 742656, Note_off_c, 0, 63, 67
2, 742656, Note_on_c, 0, 50, 67
2, 742720, Note_off_c, 0, 50, 67
2, 742784, Note_off_c, 0, 50, 67
2, 742784, Note_on_c, 0, 62, 67
2, 742848, Note_off_c, 0, 62, 67
2, 742912, Note_off_c, 0, 62, 67
2, 742912, Note_on_c, 0, 48, 67
2, 742976, Note_off_c, 0, 48, 67
2, 743040, Note_off_c, 0, 48, 67
2, 743040, Note_on_c, 0, 60, 67
2, 743104, Note_off_c, 0, 60, 67
2, 743168, Note_off_c, 0, 60, 67
2, 743168, Note_on_c, 0, 46, 67
2, 743232, Note_off_c, 0, 46, 67
2, 743296, Note_off_c, 0, 46, 67
2, 743296, Note_on_c, 0, 58, 67
2, 743360, Note_off_c, 0, 58, 67
2, 743424, Note_off_c, 0, 58, 67
2, 743424, Note_on_c, 0, 51, 67
2, 743488, Note_off_c, 0, 51, 67
2, 743552, Note_off_c, 0, 51, 67
2, 743552, Note_on_c, 0, 63, 67
2, 743616, Note_off_c, 0, 63, 67
2, 743680, Note_off_c, 0, 63, 67
2, 743680, Note_on_c, 0, 46, 67
2, 743744, Note_off_c, 0, 46, 67
2, 743808, Note_off_c, 0, 46, 67
2, 743808, Note_on_c, 0, 58, 67
2, 743872, Note_off_c, 0, 58, 67
2, 743936, Note_off_c, 0, 58, 67
2, 743936, Note_on_c, 0, 48, 67
2, 744000, Note_off_c, 0, 48, 67
2, 744064, Note_off_c, 0, 48, 67
2, 744064, Note_on_c, 0, 60, 67
2, 744128, Note_off_c, 0, 60, 67
2, 744192, Note_off_c, 0, 60, 67
2, 744192, Note_on_c, 0, 46, 67
2, 744256, Note_off_c, 0, 46, 67
2, 744320, Note_off_c, 0, 46, 67
2, 744320, Note_on_c, 0, 58, 67
2, 744384, Note_off_c, 0, 58, 67
2, 744448, Note_off_c, 0, 58, 67
2, 744448, Note_on_c, 0, 50, 67
2, 744512, Note_off_c, 0, 50, 67
2, 744576, Note_off_c, 0, 50, 67
2, 744576, Note_on_c, 0, 62, 67
2, 744640, Note_off_c, 0, 62, 67
2, 744704, Note_off_c, 0, 62, 67
2, 744704, Note_on_c, 0, 48, 67
2, 744768, Note_off_c, 0, 48, 67
2, 744832, Note_off_c, 0, 48, 67
2, 744832, Note_on_c, 0, 60, 67
2, 744896, Note_off_c, 0, 60, 67
2, 744960, Note_off_c, 0, 60, 67
2, 744960, Note_on_c, 0, 46, 67
2, 745024, Note_off_c, 0, 46, 67
2, 745088, Note_off_c, 0, 46, 67
2, 745088, Note_on_c, 0, 58, 67
2, 745152, Note_off_c, 0, 58, 67
2, 745216, Note_off_c, 0, 58, 67
2, 745216, Note_on_c, 0, 48, 67
2, 745280, Note_off_c, 0, 48, 67
2, 745344, Note_off_c, 0, 48, 67
2, 745344, Note_on_c, 0, 60, 67
2, 745408, Note_off_c, 0, 60, 67
2, 745472, Note_off_c, 0, 60, 67
2, 745472, Note_on_c, 0, 50, 67
2, 745536, Note_off_c, 0, 50, 67
2, 745600, Note_off_c, 0, 50, 67
2, 745600, Note_on_c, 0, 62, 67
2, 745664, Note_off_c, 0, 62, 67
2, 745728, Note_off_c, 0, 62, 67
2, 745728, Note_on_c, 0, 46, 67
2, 745792, Note_off_c, 0, 46, 67
2, 745856, Note_off_c, 0, 46, 67
2, 745856, Note_on_c, 0, 58, 67
2, 745920, Note_off_c, 0, 58, 67
2, 745984, Note_off_c, 0, 58, 67
2, 745984, Note_on_c, 0, 51, 67
2, 746048, Note_off_c, 0, 51, 67
2, 746112, Note_off_c, 0, 51, 67
2, 746112, Note_on_c, 0, 63, 67
2, 746176, Note_off_c, 0, 63, 67
2, 746240, Note_off_c, 0, 63, 67
2, 746240, Note_on_c, 0, 46, 67
2, 746304, Note_off_c, 0, 46, 67
2, 746368, Note_off_c, 0, 46, 67
2, 746368, Note_on_c, 0, 58, 67
2, 746432, Note_off_c, 0, 58, 67
2, 746496, Note_off_c, 0, 58, 67
2, 746496, Note_on_c, 0, 39, 67
2, 746560, Note_off_c, 0, 39, 67
2, 746560, Note_on_c, 0, 46, 67
2, 746624, Note_off_c, 0, 46, 67
2, 746624, Note_on_c, 0, 51, 67
2, 746688, Note_off_c, 0, 51, 67
2, 746688, Note_on_c, 0, 53, 67
2, 746752, Note_off_c, 0, 53, 67
2, 746752, Note_on_c, 0, 55, 67
2, 746816, Note_off_c, 0, 55, 67
2, 746816, Note_on_c, 0, 51, 67
2, 746880, Note_off_c, 0, 51, 67
2, 746880, Note_on_c, 0, 58, 67
2, 746944, Note_off_c, 0, 58, 67
2, 746944, Note_on_c, 0, 63, 67
2, 746992, Control_c, 0, 93, 0
2, 747008, Note_off_c, 0, 63, 67
2, 747008, Note_on_c, 0, 44, 67
2, 747072, Note_off_c, 0, 44, 67
2, 747072, Note_on_c, 0, 51, 67
2, 747136, Note_off_c, 0, 51, 67
2, 747136, Note_on_c, 0, 56, 67
2, 747200, Note_off_c, 0, 56, 67
2, 747200, Note_on_c, 0, 58, 67
2, 747264, Note_off_c, 0, 58, 67
2, 747264, Note_on_c, 0, 60, 67
2, 747328, Note_off_c, 0, 60, 67
2, 747328, Note_on_c, 0, 56, 67
2, 747392, Note_off_c, 0, 56, 67
2, 747392, Note_on_c, 0, 63, 67
2, 747456, Note_off_c, 0, 63, 67
2, 747456, Note_on_c, 0, 68, 67
2, 747504, Control_c, 0, 93, 0
2, 747520, Note_off_c, 0, 68, 67
2, 747520, Note_on_c, 0, 46, 67
2, 747584, Note_off_c, 0, 46, 67
2, 747584, Note_on_c, 0, 53, 67
2, 747648, Note_off_c, 0, 53, 67
2, 747648, Note_on_c, 0, 58, 67
2, 747712, Note_off_c, 0, 58, 67
2, 747712, Note_on_c, 0, 60, 67
2, 747776, Note_off_c, 0, 60, 67
2, 747776, Note_on_c, 0, 62, 67
2, 747840, Note_off_c, 0, 62, 67
2, 747840, Note_on_c, 0, 58, 67
2, 747904, Note_off_c, 0, 58, 67
2, 747904, Note_on_c, 0, 65, 67
2, 747968, Note_off_c, 0, 65, 67
2, 747968, Note_on_c, 0, 70, 67
2, 748016, Control_c, 0, 93, 0
2, 748032, Note_off_c, 0, 70, 67
2, 748032, Note_on_c, 0, 41, 67
2, 748096, Note_off_c, 0, 41, 67
2, 748096, Note_on_c, 0, 44, 67
2, 748160, Note_off_c, 0, 44, 67
2, 748160, Control_c, 0, 64, 64
2, 748160, Note_on_c, 0, 50, 67
2, 748181, Note_off_c, 0, 50, 67
2, 748181, Note_on_c, 0, 53, 67
2, 748202, Note_off_c, 0, 53, 67
2, 748202, Note_on_c, 0, 58, 67
2, 748223, Note_off_c, 0, 58, 67
2, 748224, Control_c, 0, 93, 0
2, 748224, Note_on_c, 0, 62, 67
2, 748245, Note_off_c, 0, 62, 67
2, 748245, Note_on_c, 0, 65, 67
2, 748266, Note_off_c, 0, 65, 67
2, 748266, Note_on_c, 0, 70, 67
2, 748288, Control_c, 0, 93, 0
2, 748288, Control_c, 0, 64, 0
2, 748416, Note_off_c, 0, 70, 67
2, 748416, Note_on_c, 0, 51, 67
2, 748480, Note_off_c, 0, 51, 67
2, 748480, Note_on_c, 0, 46, 67
2, 748544, Note_off_c, 0, 46, 67
2, 748544, Note_on_c, 0, 39, 67
2, 748608, Note_off_c, 0, 39, 67
2, 748608, Note_on_c, 0, 46, 67
2, 748672, Note_off_c, 0, 46, 67
2, 748672, Note_on_c, 0, 51, 67
2, 748736, Note_off_c, 0, 51, 67
2, 748736, Note_on_c, 0, 53, 67
2, 748800, Note_off_c, 0, 53, 67
2, 748800, Note_on_c, 0, 55, 67
2, 748864, Note_off_c, 0, 55, 67
2, 748864, Note_on_c, 0, 51, 67
2, 748928, Note_off_c, 0, 51, 67
2, 748928, Note_on_c, 0, 58, 67
2, 748992, Note_off_c, 0, 58, 67
2, 748992, Note_on_c, 0, 63, 67
2, 749040, Control_c, 0, 93, 0
2, 749056, Note_off_c, 0, 63, 67
2, 749056, Note_on_c, 0, 44, 67
2, 749120, Note_off_c, 0, 44, 67
2, 749120, Note_on_c, 0, 51, 67
2, 749184, Note_off_c, 0, 51, 67
2, 749184, Note_on_c, 0, 56, 67
2, 749248, Note_off_c, 0, 56, 67
2, 749248, Note_on_c, 0, 58, 67
2, 749312, Note_off_c, 0, 58, 67
2, 749312, Note_on_c, 0, 60, 67
2, 749376, Note_off_c, 0, 60, 67
2, 749376, Note_on_c, 0, 56, 67
2, 749440, Note_off_c, 0, 56, 67
2, 749440, Note_on_c, 0, 63, 67
2, 749504, Note_off_c, 0, 63, 67
2, 749504, Note_on_c, 0, 68, 67
2, 749552, Control_c, 0, 93, 0
2, 749568, Note_off_c, 0, 68, 67
2, 749568, Note_on_c, 0, 46, 67
2, 749632, Note_off_c, 0, 46, 67
2, 749632, Note_on_c, 0, 53, 67
2, 749696, Note_off_c, 0, 53, 67
2, 749696, Note_on_c, 0, 58, 67
2, 749760, Note_off_c, 0, 58, 67
2, 749760, Note_on_c, 0, 60, 67
2, 749824, Note_off_c, 0, 60, 67
2, 749824, Note_on_c, 0, 62, 67
2, 749888, Note_off_c, 0, 62, 67
2, 749888, Note_on_c, 0, 58, 67
2, 749952, Note_off_c, 0, 58, 67
2, 749952, Note_on_c, 0, 65, 67
2, 750016, Note_off_c, 0, 65, 67
2, 750016, Note_on_c, 0, 70, 67
2, 750064, Control_c, 0, 93, 0
2, 750080, Note_off_c, 0, 70, 67
2, 750080, Note_on_c, 0, 39, 67
2, 750144, Note_off_c, 0, 39, 67
2, 750144, Note_on_c, 0, 46, 67
2, 750208, Note_off_c, 0, 46, 67
2, 750208, Note_on_c, 0, 51, 67
2, 750272, Note_off_c, 0, 51, 67
2, 750272, Control_c, 0, 64, 64
2, 750272, Note_on_c, 0, 55, 67
2, 750282, Note_off_c, 0, 55, 67
2, 750282, Note_on_c, 0, 58, 67
2, 750293, Note_off_c, 0, 58, 67
2, 750293, Note_on_c, 0, 63, 67
2, 750303, Note_off_c, 0, 63, 67
2, 750304, Control_c, 0, 93, 0
2, 750304, Note_on_c, 0, 67, 67
2, 750314, Note_off_c, 0, 67, 67
2, 750314, Note_on_c, 0, 70, 67
2, 750325, Note_off_c, 0, 70, 67
2, 750325, Note_on_c, 0, 75, 67
2, 750335, Note_off_c, 0, 75, 67
2, 750336, Control_c, 0, 93, 0
2, 750464, Control_c, 0, 93, 0
2, 750528, Control_c, 0, 93, 0
2, 750528, Control_c, 0, 64, 0
2, 750592, Control_c, 0, 93, 0
2, 750592, Note_on_c, 0, 51, 67
2, 750656, Note_off_c, 0, 51, 67
2, 750720, Note_off_c, 0, 51, 67
2, 750720, Note_on_c, 0, 63, 67
2, 750784, Note_off_c, 0, 63, 67
2, 750848, Note_off_c, 0, 63, 67
2, 750848, Note_on_c, 0, 50, 67
2, 750912, Note_off_c, 0, 50, 67
2, 750976, Note_off_c, 0, 50, 67
2, 750976, Note_on_c, 0, 62, 67
2, 751040, Note_off_c, 0, 62, 67
2, 751104, Note_off_c, 0, 62, 67
2, 751104, Note_on_c, 0, 48, 67
2, 751168, Note_off_c, 0, 48, 67
2, 751232, Note_off_c, 0, 48, 67
2, 751232, Note_on_c, 0, 60, 67
2, 751296, Note_off_c, 0, 60, 67
2, 751360, Note_off_c, 0, 60, 67
2, 751360, Note_on_c, 0, 46, 67
2, 751424, Note_off_c, 0, 46, 67
2, 751488, Note_off_c, 0, 46, 67
2, 751488, Note_on_c, 0, 58, 67
2, 751552, Note_off_c, 0, 58, 67
2, 751616, Note_off_c, 0, 58, 67
2, 751616, Note_on_c, 0, 51, 67
2, 751680, Note_off_c, 0, 51, 67
2, 751744, Note_off_c, 0, 51, 67
2, 751744, Note_on_c, 0, 63, 67
2, 751808, Note_off_c, 0, 63, 67
2, 751872, Note_off_c, 0, 63, 67
2, 751872, Note_on_c, 0, 46, 67
2, 751936, Note_off_c, 0, 46, 67
2, 752000, Note_off_c, 0, 46, 67
2, 752000, Note_on_c, 0, 58, 67
2, 752064, Note_off_c, 0, 58, 67
2, 752128, Note_off_c, 0, 58, 67
2, 752128, Note_on_c, 0, 48, 67
2, 752192, Note_off_c, 0, 48, 67
2, 752256, Note_off_c, 0, 48, 67
2, 752256, Note_on_c, 0, 60, 67
2, 752320, Note_off_c, 0, 60, 67
2, 752384, Note_off_c, 0, 60, 67
2, 752384, Note_on_c, 0, 46, 67
2, 752448, Note_off_c, 0, 46, 67
2, 752512, Note_off_c, 0, 46, 67
2, 752512, Note_on_c, 0, 58, 67
2, 752576, Note_off_c, 0, 58, 67
2, 752640, Note_off_c, 0, 58, 67
2, 752640, Note_on_c, 0, 50, 67
2, 752704, Note_off_c, 0, 50, 67
2, 752768, Note_off_c, 0, 50, 67
2, 752768, Note_on_c, 0, 62, 67
2, 752832, Note_off_c, 0, 62, 67
2, 752896, Note_off_c, 0, 62, 67
2, 752896, Note_on_c, 0, 46, 67
2, 752960, Note_off_c, 0, 46, 67
2, 753024, Note_off_c, 0, 46, 67
2, 753024, Note_on_c, 0, 58, 67
2, 753088, Note_off_c, 0, 58, 67
2, 753152, Note_off_c, 0, 58, 67
2, 753152, Note_on_c, 0, 48, 67
2, 753216, Note_off_c, 0, 48, 67
2, 753280, Note_off_c, 0, 48, 67
2, 753280, Note_on_c, 0, 60, 67
2, 753344, Note_off_c, 0, 60, 67
2, 753408, Note_off_c, 0, 60, 67
2, 753408, Note_on_c, 0, 49, 67
2, 753472, Note_off_c, 0, 49, 67
2, 753536, Note_off_c, 0, 49, 67
2, 753536, Note_on_c, 0, 61, 67
2, 753600, Note_off_c, 0, 61, 67
2, 753664, Note_off_c, 0, 61, 67
2, 753664, Note_on_c, 0, 50, 67
2, 753728, Note_off_c, 0, 50, 67
2, 753792, Note_off_c, 0, 50, 67
2, 753792, Note_on_c, 0, 62, 67
2, 753856, Note_off_c, 0, 62, 67
2, 753920, Note_off_c, 0, 62, 67
2, 753920, Note_on_c, 0, 46, 67
2, 753984, Note_off_c, 0, 46, 67
2, 754048, Note_off_c, 0, 46, 67
2, 754048, Note_on_c, 0, 58, 67
2, 754112, Note_off_c, 0, 58, 67
2, 754176, Note_off_c, 0, 58, 67
2, 754176, Note_on_c, 0, 51, 67
2, 754240, Note_off_c, 0, 51, 67
2, 754304, Note_off_c, 0, 51, 67
2, 754304, Note_on_c, 0, 63, 67
2, 754368, Note_off_c, 0, 63, 67
2, 754432, Note_off_c, 0, 63, 67
2, 754432, Note_on_c, 0, 46, 67
2, 754496, Note_off_c, 0, 46, 67
2, 754560, Note_off_c, 0, 46, 67
2, 754560, Note_on_c, 0, 58, 67
2, 754624, Note_off_c, 0, 58, 67
2, 754688, Note_off_c, 0, 58, 67
2, 754688, Note_on_c, 0, 51, 67
2, 754752, Note_off_c, 0, 51, 67
2, 754816, Note_off_c, 0, 51, 67
2, 754816, Note_on_c, 0, 63, 67
2, 754880, Note_off_c, 0, 63, 67
2, 754944, Note_off_c, 0, 63, 67
2, 754944, Note_on_c, 0, 50, 67
2, 755008, Note_off_c, 0, 50, 67
2, 755072, Note_off_c, 0, 50, 67
2, 755072, Note_on_c, 0, 62, 67
2, 755136, Note_off_c, 0, 62, 67
2, 755200, Note_off_c, 0, 62, 67
2, 755200, Note_on_c, 0, 48, 67
2, 755264, Note_off_c, 0, 48, 67
2, 755328, Note_off_c, 0, 48, 67
2, 755328, Note_on_c, 0, 60, 67
2, 755392, Note_off_c, 0, 60, 67
2, 755456, Note_off_c, 0, 60, 67
2, 755456, Note_on_c, 0, 46, 67
2, 755520, Note_off_c, 0, 46, 67
2, 755584, Note_off_c, 0, 46, 67
2, 755584, Note_on_c, 0, 58, 67
2, 755648, Note_off_c, 0, 58, 67
2, 755712, Note_off_c, 0, 58, 67
2, 755712, Note_on_c, 0, 51, 67
2, 755776, Note_off_c, 0, 51, 67
2, 755840, Note_off_c, 0, 51, 67
2, 755840, Note_on_c, 0, 63, 67
2, 755904, Note_off_c, 0, 63, 67
2, 755968, Note_off_c, 0, 63, 67
2, 755968, Note_on_c, 0, 46, 67
2, 756032, Note_off_c, 0, 46, 67
2, 756096, Note_off_c, 0, 46, 67
2, 756096, Note_on_c, 0, 58, 67
2, 756160, Note_off_c, 0, 58, 67
2, 756224, Note_off_c, 0, 58, 67
2, 756224, Note_on_c, 0, 48, 67
2, 756288, Note_off_c, 0, 48, 67
2, 756352, Note_off_c, 0, 48, 67
2, 756352, Note_on_c, 0, 60, 67
2, 756416, Note_off_c, 0, 60, 67
2, 756480, Note_off_c, 0, 60, 67
2, 756480, Note_on_c, 0, 46, 67
2, 756544, Note_off_c, 0, 46, 67
2, 756608, Note_off_c, 0, 46, 67
2, 756608, Note_on_c, 0, 58, 67
2, 756672, Note_off_c, 0, 58, 67
2, 756736, Note_off_c, 0, 58, 67
2, 756736, Note_on_c, 0, 50, 67
2, 756800, Note_off_c, 0, 50, 67
2, 756864, Note_off_c, 0, 50, 67
2, 756864, Note_on_c, 0, 62, 67
2, 756928, Note_off_c, 0, 62, 67
2, 756992, Note_off_c, 0, 62, 67
2, 756992, Note_on_c, 0, 48, 67
2, 757056, Note_off_c, 0, 48, 67
2, 757120, Note_off_c, 0, 48, 67
2, 757120, Note_on_c, 0, 60, 67
2, 757184, Note_off_c, 0, 60, 67
2, 757248, Note_off_c, 0, 60, 67
2, 757248, Note_on_c, 0, 46, 67
2, 757312, Note_off_c, 0, 46, 67
2, 757376, Note_off_c, 0, 46, 67
2, 757376, Note_on_c, 0, 58, 67
2, 757440, Note_off_c, 0, 58, 67
2, 757504, Note_off_c, 0, 58, 67
2, 757504, Note_on_c, 0, 48, 67
2, 757568, Note_off_c, 0, 48, 67
2, 757632, Note_off_c, 0, 48, 67
2, 757632, Note_on_c, 0, 60, 67
2, 757696, Note_off_c, 0, 60, 67
2, 757760, Note_off_c, 0, 60, 67
2, 757760, Note_on_c, 0, 50, 67
2, 757824, Note_off_c, 0, 50, 67
2, 757888, Note_off_c, 0, 50, 67
2, 757888, Note_on_c, 0, 62, 67
2, 757952, Note_off_c, 0, 62, 67
2, 758016, Note_off_c, 0, 62, 67
2, 758016, Note_on_c, 0, 46, 67
2, 758080, Note_off_c, 0, 46, 67
2, 758144, Note_off_c, 0, 46, 67
2, 758144, Note_on_c, 0, 58, 67
2, 758208, Note_off_c, 0, 58, 67
2, 758272, Note_off_c, 0, 58, 67
2, 758272, Note_on_c, 0, 51, 67
2, 758336, Note_off_c, 0, 51, 67
2, 758400, Note_off_c, 0, 51, 67
2, 758400, Note_on_c, 0, 63, 67
2, 758464, Note_off_c, 0, 63, 67
2, 758528, Note_off_c, 0, 63, 67
2, 758528, Note_on_c, 0, 46, 67
2, 758592, Note_off_c, 0, 46, 67
2, 758656, Note_off_c, 0, 46, 67
2, 758656, Note_on_c, 0, 58, 67
2, 758720, Note_off_c, 0, 58, 67
2, 758784, Note_off_c, 0, 58, 67
2, 758784, Note_on_c, 0, 39, 67
2, 758848, Note_off_c, 0, 39, 67
2, 758848, Note_on_c, 0, 46, 67
2, 758912, Note_off_c, 0, 46, 67
2, 758912, Note_on_c, 0, 51, 67
2, 758976, Note_off_c, 0, 51, 67
2, 758976, Note_on_c, 0, 53, 67
2, 759040, Note_off_c, 0, 53, 67
2, 759040, Note_on_c, 0, 55, 67
2, 759104, Note_off_c, 0, 55, 67
2, 759104, Note_on_c, 0, 51, 67
2, 759168, Note_off_c, 0, 51, 67
2, 759168, Note_on_c, 0, 58, 67
2, 759232, Note_off_c, 0, 58, 67
2, 759232, Note_on_c, 0, 63, 67
2, 759280, Control_c, 0, 93, 0
2, 759296, Note_off_c, 0, 63, 67
2, 759296, Note_on_c, 0, 44, 67
2, 759360, Note_off_c, 0, 44, 67
2, 759360, Note_on_c, 0, 51, 67
2, 759424, Note_off_c, 0, 51, 67
2, 759424, Note_on_c, 0, 56, 67
2, 759488, Note_off_c, 0, 56, 67
2, 759488, Note_on_c, 0, 58, 67
2, 759552, Note_off_c, 0, 58, 67
2, 759552, Note_on_c, 0, 60, 67
2, 759616, Note_off_c, 0, 60, 67
2, 759616, Note_on_c, 0, 56, 67
2, 759680, Note_off_c, 0, 56, 67
2, 759680, Note_on_c, 0, 63, 67
2, 759744, Note_off_c, 0, 63, 67
2, 759744, Note_on_c, 0, 68, 67
2, 759792, Control_c, 0, 93, 0
2, 759808, Note_off_c, 0, 68, 67
2, 759808, Note_on_c, 0, 46, 67
2, 759872, Note_off_c, 0, 46, 67
2, 759872, Note_on_c, 0, 53, 67
2, 759936, Note_off_c, 0, 53, 67
2, 759936, Note_on_c, 0, 58, 67
2, 760000, Note_off_c, 0, 58, 67
2, 760000, Note_on_c, 0, 60, 67
2, 760064, Note_off_c, 0, 60, 67
2, 760064, Note_on_c, 0, 62, 67
2, 760128, Note_off_c, 0, 62, 67
2, 760128, Note_on_c, 0, 58, 67
2, 760192, Note_off_c, 0, 58, 67
2, 760192, Note_on_c, 0, 65, 67
2, 760256, Note_off_c, 0, 65, 67
2, 760256, Note_on_c, 0, 70, 67
2, 760304, Control_c, 0, 93, 0
2, 760320, Note_off_c, 0, 70, 67
2, 760320, Note_on_c, 0, 41, 67
2, 760384, Note_off_c, 0, 41, 67
2, 760384, Note_on_c, 0, 44, 67
2, 760448, Note_off_c, 0, 44, 67
2, 760448, Control_c, 0, 64, 64
2, 760448, Note_on_c, 0, 50, 67
2, 760469, Note_off_c, 0, 50, 67
2, 760469, Note_on_c, 0, 53, 67
2, 760490, Note_off_c, 0, 53, 67
2, 760490, Note_on_c, 0, 58, 67
2, 760511, Note_off_c, 0, 58, 67
2, 760512, Control_c, 0, 93, 0
2, 760512, Note_on_c, 0, 62, 67
2, 760533, Note_off_c, 0, 62, 67
2, 760533, Note_on_c, 0, 65, 67
2, 760554, Note_off_c, 0, 65, 67
2, 760554, Note_on_c, 0, 70, 67
2, 760576, Control_c, 0, 93, 0
2, 760576, Control_c, 0, 64, 0
2, 760704, Note_off_c, 0, 70, 67
2, 760704, Note_on_c, 0, 51, 67
2, 760768, Note_off_c, 0, 51, 67
2, 760768, Note_on_c, 0, 46, 67
2, 760832, Note_off_c, 0, 46, 67
2, 760832, Note_on_c, 0, 39, 67
2, 760896, Note_off_c, 0, 39, 67
2, 760896, Note_on_c, 0, 46, 67
2, 760960, Note_off_c, 0, 46, 67
2, 760960, Note_on_c, 0, 51, 67
2, 761024, Note_off_c, 0, 51, 67
2, 761024, Note_on_c, 0, 53, 67
2, 761088, Note_off_c, 0, 53, 67
2, 761088, Note_on_c, 0, 55, 67
2, 761152, Note_off_c, 0, 55, 67
2, 761152, Note_on_c, 0, 51, 67
2, 761216, Note_off_c, 0, 51, 67
2, 761216, Note_on_c, 0, 58, 67
2, 761280, Note_off_c, 0, 58, 67
2, 761280, Note_on_c, 0, 63, 67
2, 761328, Control_c, 0, 93, 0
2, 761344, Note_off_c, 0, 63, 67
2, 761344, Note_on_c, 0, 44, 67
2, 761408, Note_off_c, 0, 44, 67
2, 761408, Note_on_c, 0, 51, 67
2, 761472, Note_off_c, 0, 51, 67
2, 761472, Note_on_c, 0, 56, 67
2, 761536, Note_off_c, 0, 56, 67
2, 761536, Note_on_c, 0, 58, 67
2, 761600, Note_off_c, 0, 58, 67
2, 761600, Note_on_c, 0, 60, 67
2, 761664, Note_off_c, 0, 60, 67
2, 761664, Note_on_c, 0, 56, 67
2, 761728, Note_off_c, 0, 56, 67
2, 761728, Note_on_c, 0, 63, 67
2, 761792, Note_off_c, 0, 63, 67
2, 761792, Note_on_c, 0, 68, 67
2, 761840, Control_c, 0, 93, 0
2, 761856, Note_off_c, 0, 68, 67
2, 761856, Note_on_c, 0, 46, 67
2, 761920, Note_off_c, 0, 46, 67
2, 761920, Note_on_c, 0, 53, 67
2, 761984, Note_off_c, 0, 53, 67
2, 761984, Note_on_c, 0, 58, 67
2, 762048, Note_off_c, 0, 58, 67
2, 762048, Note_on_c, 0, 60, 67
2, 762112, Note_off_c, 0, 60, 67
2, 762112, Note_on_c, 0, 62, 67
2, 762176, Note_off_c, 0, 62, 67
2, 762176, Note_on_c, 0, 58, 67
2, 762240, Note_off_c, 0, 58, 67
2, 762240, Note_on_c, 0, 65, 67
2, 762304, Note_off_c, 0, 65, 67
2, 762304, Note_on_c, 0, 70, 67
2, 762352, Control_c, 0, 93, 0
2, 762368, Note_off_c, 0, 70, 67
2, 762368, Note_on_c, 0, 39, 67
2, 762432, Note_off_c, 0, 39, 67
2, 762432, Note_on_c, 0, 46, 67
2, 762496, Note_off_c, 0, 46, 67
2, 762496, Note_on_c, 0, 51, 67
2, 762560, Note_off_c, 0, 51, 67
2, 762560, Control_c, 0, 64, 64
2, 762560, Note_on_c, 0, 55, 67
2, 762570, Note_off_c, 0, 55, 67
2, 762570, Note_on_c, 0, 58, 67
2, 762581, Note_off_c, 0, 58, 67
2, 762581, Note_on_c, 0, 63, 67
2, 762591, Note_off_c, 0, 63, 67
2, 762592, Control_c, 0, 93, 0
2, 762592, Note_on_c, 0, 67, 67
2, 762602, Note_off_c, 0, 67, 67
2, 762602, Note_on_c, 0, 70, 67
2, 762613, Note_off_c, 0, 70, 67
2, 762613, Note_on_c, 0, 75, 67
2, 762623, Note_off_c, 0, 75, 67
2, 762624, Control_c, 0, 93, 0
2, 762752, Control_c, 0, 93, 0
2, 762816, Control_c, 0, 93, 0
2, 762816, Control_c, 0, 64, 0
2, 762880, Control_c, 0, 93, 0
2, 762880, Note_on_c, 0, 51, 67
2, 762944, Note_off_c, 0, 51, 67
2, 763008, Note_off_c, 0, 51, 67
2, 763008, Note_on_c, 0, 63, 67
2, 763072, Note_off_c, 0, 63, 67
2, 763136, Note_off_c, 0, 63, 67
2, 763136, Note_on_c, 0, 50, 67
2, 763200, Note_off_c, 0, 50, 67
2, 763264, Note_off_c, 0, 50, 67
2, 763264, Note_on_c, 0, 62, 67
2, 763328, Note_off_c, 0, 62, 67
2, 763392, Note_off_c, 0, 62, 67
2, 763392, Note_on_c, 0, 48, 67
2, 763456, Note_off_c, 0, 48, 67
2, 763520, Note_off_c, 0, 48, 67
2, 763520, Note_on_c, 0, 60, 67
2, 763584, Note_off_c, 0, 60, 67
2, 763648, Note_off_c, 0, 60, 67
2, 763648, Note_on_c, 0, 46, 67
2, 763712, Note_off_c, 0, 46, 67
2, 763776, Note_off_c, 0, 46, 67
2, 763776, Note_on_c, 0, 58, 67
2, 763840, Note_off_c, 0, 58, 67
2, 763904, Note_off_c, 0, 58, 67
2, 763904, Note_on_c, 0, 51, 67
2, 763968, Note_off_c, 0, 51, 67
2, 764032, Note_off_c, 0, 51, 67
2, 764032, Note_on_c, 0, 63, 67
2, 764096, Note_off_c, 0, 63, 67
2, 764160, Note_off_c, 0, 63, 67
2, 764160, Note_on_c, 0, 46, 67
2, 764224, Note_off_c, 0, 46, 67
2, 764288, Note_off_c, 0, 46, 67
2, 764288, Note_on_c, 0, 58, 67
2, 764352, Note_off_c, 0, 58, 67
2, 764416, Note_off_c, 0, 58, 67
2, 764416, Note_on_c, 0, 48, 67
2, 764480, Note_off_c, 0, 48, 67
2, 764544, Note_off_c, 0, 48, 67
2, 764544, Note_on_c, 0, 60, 67
2, 764608, Note_off_c, 0, 60, 67
2, 764672, Note_off_c, 0, 60, 67
2, 764672, Note_on_c, 0, 46, 67
2, 764736, Note_off_c, 0, 46, 67
2, 764800, Note_off_c, 0, 46, 67
2, 764800, Note_on_c, 0, 58, 67
2, 764864, Note_off_c, 0, 58, 67
2, 764928, Note_off_c, 0, 58, 67
2, 764928, Note_on_c, 0, 50, 67
2, 764992, Note_off_c, 0, 50, 67
2, 765056, Note_off_c, 0, 50, 67
2, 765056, Note_on_c, 0, 62, 67
2, 765120, Note_off_c, 0, 62, 67
2, 765184, Note_off_c, 0, 62, 67
2, 765184, Note_on_c, 0, 46, 67
2, 765248, Note_off_c, 0, 46, 67
2, 765312, Note_off_c, 0, 46, 67
2, 765312, Note_on_c, 0, 58, 67
2, 765376, Note_off_c, 0, 58, 67
2, 765440, Note_off_c, 0, 58, 67
2, 765440, Note_on_c, 0, 48, 67
2, 765504, Note_off_c, 0, 48, 67
2, 765568, Note_off_c, 0, 48, 67
2, 765568, Note_on_c, 0, 60, 67
2, 765632, Note_off_c, 0, 60, 67
2, 765696, Note_off_c, 0, 60, 67
2, 765696, Note_on_c, 0, 49, 67
2, 765760, Note_off_c, 0, 49, 67
2, 765824, Note_off_c, 0, 49, 67
2, 765824, Note_on_c, 0, 61, 67
2, 765888, Note_off_c, 0, 61, 67
2, 765952, Note_off_c, 0, 61, 67
2, 765952, Note_on_c, 0, 50, 67
2, 766016, Note_off_c, 0, 50, 67
2, 766080, Note_off_c, 0, 50, 67
2, 766080, Note_on_c, 0, 62, 67
2, 766144, Note_off_c, 0, 62, 67
2, 766208, Note_off_c, 0, 62, 67
2, 766208, Note_on_c, 0, 46, 67
2, 766272, Note_off_c, 0, 46, 67
2, 766336, Note_off_c, 0, 46, 67
2, 766336, Note_on_c, 0, 58, 67
2, 766400, Note_off_c, 0, 58, 67
2, 766464, Note_off_c, 0, 58, 67
2, 766464, Note_on_c, 0, 51, 67
2, 766528, Note_off_c, 0, 51, 67
2, 766592, Note_off_c, 0, 51, 67
2, 766592, Note_on_c, 0, 63, 67
2, 766656, Note_off_c, 0, 63, 67
2, 766720, Note_off_c, 0, 63, 67
2, 766720, Note_on_c, 0, 46, 67
2, 766784, Note_off_c, 0, 46, 67
2, 766848, Note_off_c, 0, 46, 67
2, 766848, Note_on_c, 0, 58, 67
2, 766912, Note_off_c, 0, 58, 67
2, 766976, Note_off_c, 0, 58, 67
2, 766976, Note_on_c, 0, 51, 67
2, 767040, Note_off_c, 0, 51, 67
2, 767104, Note_off_c, 0, 51, 67
2, 767104, Note_on_c, 0, 63, 67
2, 767168, Note_off_c, 0, 63, 67
2, 767232, Note_off_c, 0, 63, 67
2, 767232, Note_on_c, 0, 50, 67
2, 767296, Note_off_c, 0, 50, 67
2, 767360, Note_off_c, 0, 50, 67
2, 767360, Note_on_c, 0, 62, 67
2, 767424, Note_off_c, 0, 62, 67
2, 767488, Note_off_c, 0, 62, 67
2, 767488, Note_on_c, 0, 48, 67
2, 767552, Note_off_c, 0, 48, 67
2, 767616, Note_off_c, 0, 48, 67
2, 767616, Note_on_c, 0, 60, 67
2, 767680, Note_off_c, 0, 60, 67
2, 767744, Note_off_c, 0, 60, 67
2, 767744, Note_on_c, 0, 46, 67
2, 767808, Note_off_c, 0, 46, 67
2, 767872, Note_off_c, 0, 46, 67
2, 767872, Note_on_c, 0, 58, 67
2, 767936, Note_off_c, 0, 58, 67
2, 768000, Note_off_c, 0, 58, 67
2, 768000, Note_on_c, 0, 51, 67
2, 768064, Note_off_c, 0, 51, 67
2, 768128, Note_off_c, 0, 51, 67
2, 768128, Note_on_c, 0, 63, 67
2, 768192, Note_off_c, 0, 63, 67
2, 768256, Note_off_c, 0, 63, 67
2, 768256, Note_on_c, 0, 46, 67
2, 768320, Note_off_c, 0, 46, 67
2, 768384, Note_off_c, 0, 46, 67
2, 768384, Note_on_c, 0, 58, 67
2, 768448, Note_off_c, 0, 58, 67
2, 768512, Note_off_c, 0, 58, 67
2, 768512, Note_on_c, 0, 48, 67
2, 768576, Note_off_c, 0, 48, 67
2, 768640, Note_off_c, 0, 48, 67
2, 768640, Note_on_c, 0, 60, 67
2, 768704, Note_off_c, 0, 60, 67
2, 768768, Note_off_c, 0, 60, 67
2, 768768, Note_on_c, 0, 46, 67
2, 768832, Note_off_c, 0, 46, 67
2, 768896, Note_off_c, 0, 46, 67
2, 768896, Note_on_c, 0, 58, 67
2, 768960, Note_off_c, 0, 58, 67
2, 769024, Note_off_c, 0, 58, 67
2, 769024, Note_on_c, 0, 50, 67
2, 769088, Note_off_c, 0, 50, 67
2, 769152, Note_off_c, 0, 50, 67
2, 769152, Note_on_c, 0, 62, 67
2, 769216, Note_off_c, 0, 62, 67
2, 769280, Note_off_c, 0, 62, 67
2, 769280, Note_on_c, 0, 48, 67
2, 769344, Note_off_c, 0, 48, 67
2, 769408, Note_off_c, 0, 48, 67
2, 769408, Note_on_c, 0, 60, 67
2, 769472, Note_off_c, 0, 60, 67
2, 769536, Note_off_c, 0, 60, 67
2, 769536, Note_on_c, 0, 46, 67
2, 769600, Note_off_c, 0, 46, 67
2, 769664, Note_off_c, 0, 46, 67
2, 769664, Note_on_c, 0, 58, 67
2, 769728, Note_off_c, 0, 58, 67
2, 769792, Note_off_c, 0, 58, 67
2, 769792, Note_on_c, 0, 48, 67
2, 769856, Note_off_c, 0, 48, 67
2, 769920, Note_off_c, 0, 48, 67
2, 769920, Note_on_c, 0, 60, 67
2, 769984, Note_off_c, 0, 60, 67
2, 770048, Note_off_c, 0, 60, 67
2, 770048, Note_on_c, 0, 50, 67
2, 770112, Note_off_c, 0, 50, 67
2, 770176, Note_off_c, 0, 50, 67
2, 770176, Note_on_c, 0, 62, 67
2, 770240, Note_off_c, 0, 62, 67
2, 770304, Note_off_c, 0, 62, 67
2, 770304, Note_on_c, 0, 46, 67
2, 770368, Note_off_c, 0, 46, 67
2, 770432, Note_off_c, 0, 46, 67
2, 770432, Note_on_c, 0, 58, 67
2, 770496, Note_off_c, 0, 58, 67
2, 770560, Note_off_c, 0, 58, 67
2, 770560, Note_on_c, 0, 51, 67
2, 770624, Note_off_c, 0, 51, 67
2, 770688, Note_off_c, 0, 51, 67
2, 770688, Note_on_c, 0, 63, 67
2, 770752, Note_off_c, 0, 63, 67
2, 770816, Note_off_c, 0, 63, 67
2, 770816, Note_on_c, 0, 46, 67
2, 770880, Note_off_c, 0, 46, 67
2, 770944, Note_off_c, 0, 46, 67
2, 770944, Note_on_c, 0, 58, 67
2, 771008, Note_off_c, 0, 58, 67
2, 771072, Note_off_c, 0, 58, 67
2, 771072, Note_on_c, 0, 39, 67
2, 771136, Note_off_c, 0, 39, 67
2, 771136, Note_on_c, 0, 46, 67
2, 771200, Note_off_c, 0, 46, 67
2, 771200, Note_on_c, 0, 51, 67
2, 771264, Note_off_c, 0, 51, 67
2, 771264, Note_on_c, 0, 53, 67
2, 771328, Note_off_c, 0, 53, 67
2, 771328, Note_on_c, 0, 55, 67
2, 771392, Note_off_c, 0, 55, 67
2, 771392, Note_on_c, 0, 51, 67
2, 771456, Note_off_c, 0, 51, 67
2, 771456, Note_on_c, 0, 58, 67
2, 771520, Note_off_c, 0, 58, 67
2, 771520, Note_on_c, 0, 63, 67
2, 771568, Control_c, 0, 93, 0
2, 771584, Note_off_c, 0, 63, 67
2, 771584, Note_on_c, 0, 44, 67
2, 771648, Note_off_c, 0, 44, 67
2, 771648, Note_on_c, 0, 51, 67
2, 771712, Note_off_c, 0, 51, 67
2, 771712, Note_on_c, 0, 56, 67
2, 771776, Note_off_c, 0, 56, 67
2, 771776, Note_on_c, 0, 58, 67
2, 771840, Note_off_c, 0, 58, 67
2, 771840, Note_on_c, 0, 60, 67
2, 771904, Note_off_c, 0, 60, 67
2, 771904, Note_on_c, 0, 56, 67
2, 771968, Note_off_c, 0, 56, 67
2, 771968, Note_on_c, 0, 63, 67
2, 772032, Note_off_c, 0, 63, 67
2, 772032, Note_on_c, 0, 68, 67
2, 772080, Control_c, 0, 93, 0
2, 772096, Note_off_c, 0, 68, 67
2, 772096, Note_on_c, 0, 46, 67
2, 772160, Note_off_c, 0, 46, 67
2, 772160, Note_on_c, 0, 53, 67
2, 772224, Note_off_c, 0, 53, 67
2, 772224, Note_on_c, 0, 58, 67
2, 772288, Note_off_c, 0, 58, 67
2, 772288, Note_on_c, 0, 60, 67
2, 772352, Note_off_c, 0, 60, 67
2, 772352, Note_on_c, 0, 62, 67
2, 772416, Note_off_c, 0, 62, 67
2, 772416, Note_on_c, 0, 58, 67
2, 772480, Note_off_c, 0, 58, 67
2, 772480, Note_on_c, 0, 65, 67
2, 772544, Note_off_c, 0, 65, 67
2, 772544, Note_on_c, 0, 70, 67
2, 772592, Control_c, 0, 93, 0
2, 772608, Note_off_c, 0, 70, 67
2, 772608, Note_on_c, 0, 41, 67
2, 772672, Note_off_c, 0, 41, 67
2, 772672, Note_on_c, 0, 44, 67
2, 772736, Note_off_c, 0, 44, 67
2, 772736, Control_c, 0, 64, 64
2, 772736, Note_on_c, 0, 50, 67
2, 772757, Note_off_c, 0, 50, 67
2, 772757, Note_on_c, 0, 53, 67
2, 772778, Note_off_c, 0, 53, 67
2, 772778, Note_on_c, 0, 58, 67
2, 772799, Note_off_c, 0, 58, 67
2, 772800, Control_c, 0, 93, 0
2, 772800, Note_on_c, 0, 62, 67
2, 772821, Note_off_c, 0, 62, 67
2, 772821, Note_on_c, 0, 65, 67
2, 772842, Note_off_c, 0, 65, 67
2, 772842, Note_on_c, 0, 70, 67
2, 772864, Control_c, 0, 93, 0
2, 772864, Control_c, 0, 64, 0
2, 772992, Note_off_c, 0, 70, 67
2, 772992, Note_on_c, 0, 51, 67
2, 773056, Note_off_c, 0, 51, 67
2, 773056, Note_on_c, 0, 46, 67
2, 773120, Note_off_c, 0, 46, 67
2, 773120, Note_on_c, 0, 39, 67
2, 773184, Note_off_c, 0, 39, 67
2, 773184, Note_on_c, 0, 46, 67
2, 773248, Note_off_c, 0, 46, 67
2, 773248, Note_on_c, 0, 51, 67
2, 773312, Note_off_c, 0, 51, 67
2, 773312, Note_on_c, 0, 53, 67
2, 773376, Note_off_c, 0, 53, 67
2, 773376, Note_on_c, 0, 55, 67
2, 773440, Note_off_c, 0, 55, 67
2, 773440, Note_on_c, 0, 51, 67
2, 773504, Note_off_c, 0, 51, 67
2, 773504, Note_on_c, 0, 58, 67
2, 773568, Note_off_c, 0, 58, 67
2, 773568, Note_on_c, 0, 63, 67
2, 773616, Control_c, 0, 93, 0
2, 773632, Note_off_c, 0, 63, 67
2, 773632, Note_on_c, 0, 44, 67
2, 773696, Note_off_c, 0, 44, 67
2, 773696, Note_on_c, 0, 51, 67
2, 773760, Note_off_c, 0, 51, 67
2, 773760, Note_on_c, 0, 56, 67
2, 773824, Note_off_c, 0, 56, 67
2, 773824, Note_on_c, 0, 58, 67
2, 773888, Note_off_c, 0, 58, 67
2, 773888, Note_on_c, 0, 60, 67
2, 773952, Note_off_c, 0, 60, 67
2, 773952, Note_on_c, 0, 56, 67
2, 774016, Note_off_c, 0, 56, 67
2, 774016, Note_on_c, 0, 63, 67
2, 774080, Note_off_c, 0, 63, 67
2, 774080, Note_on_c, 0, 68, 67
2, 774128, Control_c, 0, 93, 0
2, 774144, Note_off_c, 0, 68, 67
2, 774144, Note_on_c, 0, 46, 67
2, 774208, Note_off_c, 0, 46, 67
2, 774208, Note_on_c, 0, 53, 67
2, 774272, Note_off_c, 0, 53, 67
2, 774272, Note_on_c, 0, 58, 67
2, 774336, Note_off_c, 0, 58, 67
2, 774336, Note_on_c, 0, 60, 67
2, 774400, Note_off_c, 0, 60, 67
2, 774400, Note_on_c, 0, 62, 67
2, 774464, Note_off_c, 0, 62, 67
2, 774464, Note_on_c, 0, 58, 67
2, 774528, Note_off_c, 0, 58, 67
2, 774528, Note_on_c, 0, 65, 67
2, 774592, Note_off_c, 0, 65, 67
2, 774592, Note_on_c, 0, 70, 67
2, 774640, Control_c, 0, 93, 0
2, 774656, Note_off_c, 0, 70, 67
2, 774656, Note_on_c, 0, 39, 67
2, 774720, Note_off_c, 0, 39, 67
2, 774720, Note_on_c, 0, 46, 67
2, 774784, Note_off_c, 0, 46, 67
2, 774784, Note_on_c, 0, 51, 67
2, 774848, Note_off_c, 0, 51, 67
2, 774848, Control_c, 0, 64, 64
2, 774848, Note_on_c, 0, 55, 67
2, 774858, Note_off_c, 0, 55, 67
2, 774858, Note_on_c, 0, 58, 67
2, 774869, Note_off_c, 0, 58, 67
2, 774869, Note_on_c, 0, 63, 67
2, 774879, Note_off_c, 0, 63, 67
2, 774880, Control_c, 0, 93, 0
2, 774880, Note_on_c, 0, 67, 67
2, 774890, Note_off_c, 0, 67, 67
2, 774890, Note_on_c, 0, 70, 67
2, 774901, Note_off_c, 0, 70, 67
2, 774901, Note_on_c, 0, 75, 67
2, 774911, Note_off_c, 0, 75, 67
2, 774912, Control_c, 0, 93, 0
2, 775040, Control_c, 0, 93, 0
2, 775104, Control_c, 0, 93, 0
2, 775104, Control_c, 0, 64, 0
2, 775168, Control_c, 0, 93, 0
2, 775168, Note_on_c, 0, 51, 67
2, 775232, Note_off_c, 0, 51, 67
2, 775296, Note_off_c, 0, 51, 67
2, 775296, Note_on_c, 0, 63, 67
2, 775360, Note_off_c, 0, 63, 67
2, 775424, Note_off_c, 0, 63, 67
2, 775424, Note_on_c, 0, 50, 67
2, 775488, Note_off_c, 0, 50, 67
2, 775552, Note_off_c, 0, 50, 67
2, 775552, Note_on_c, 0, 62, 67
2, 775616, Note_off_c, 0, 62, 67
2, 775680, Note_off_c, 0, 62, 67
2, 775680, Note_on_c, 0, 48, 67
2, 775744, Note_off_c, 0, 48, 67
2, 775808, Note_off_c, 0, 48, 67
2, 775808, Note_on_c, 0, 60, 67
2, 775872, Note_off_c, 0, 60, 67
2, 775936, Note_off_c, 0, 60, 67
2, 775936, Note_on_c, 0, 46, 67
2, 776000, Note_off_c, 0, 46, 67
2, 776064, Note_off_c, 0, 46, 67
2, 776064, Note_on_c, 0, 58, 67
2, 776128, Note_off_c, 0, 58, 67
2, 776192, Note_off_c, 0, 58, 67
2, 776192, Note_on_c, 0, 51, 67
2, 776256, Note_off_c, 0, 51, 67
2, 776320, Note_off_c, 0, 51, 67
2, 776320, Note_on_c, 0, 63, 67
2, 776384, Note_off_c, 0, 63, 67
2, 776448, Note_off_c, 0, 63, 67
2, 776448, Note_on_c, 0, 46, 67
2, 776512, Note_off_c, 0, 46, 67
2, 776576, Note_off_c, 0, 46, 67
2, 776576, Note_on_c, 0, 58, 67
2, 776640, Note_off_c, 0, 58, 67
2, 776704, Note_off_c, 0, 58, 67
2, 776704, Note_on_c, 0, 48, 67
2, 776768, Note_off_c, 0, 48, 67
2, 776832, Note_off_c, 0, 48, 67
2, 776832, Note_on_c, 0, 60, 67
2, 776896, Note_off_c, 0, 60, 67
2, 776960, Note_off_c, 0, 60, 67
2, 776960, Note_on_c, 0, 46, 67
2, 777024, Note_off_c, 0, 46, 67
2, 777088, Note_off_c, 0, 46, 67
2, 777088, Note_on_c, 0, 58, 67
2, 777152, Note_off_c, 0, 58, 67
2, 777216, Note_off_c, 0, 58, 67
2, 777216, Note_on_c, 0, 50, 67
2, 777280, Note_off_c, 0, 50, 67
2, 777344, Note_off_c, 0, 50, 67
2, 777344, Note_on_c, 0, 62, 67
2, 777408, Note_off_c, 0, 62, 67
2, 777472, Note_off_c, 0, 62, 67
2, 777472, Note_on_c, 0, 46, 67
2, 777536, Note_off_c, 0, 46, 67
2, 777600, Note_off_c, 0, 46, 67
2, 777600, Note_on_c, 0, 58, 67
2, 777664, Note_off_c, 0, 58, 67
2, 777728, Note_off_c, 0, 58, 67
2, 777728, Note_on_c, 0, 48, 67
2, 777792, Note_off_c, 0, 48, 67
2, 777856, Note_off_c, 0, 48, 67
2, 777856, Note_on_c, 0, 60, 67
2, 777920, Note_off_c, 0, 60, 67
2, 777984, Note_off_c, 0, 60, 67
2, 777984, Note_on_c, 0, 49, 67
2, 778048, Note_off_c, 0, 49, 67
2, 778112, Note_off_c, 0, 49, 67
2, 778112, Note_on_c, 0, 61, 67
2, 778176, Note_off_c, 0, 61, 67
2, 778240, Note_off_c, 0, 61, 67
2, 778240, Note_on_c, 0, 50, 67
2, 778304, Note_off_c, 0, 50, 67
2, 778368, Note_off_c, 0, 50, 67
2, 778368, Note_on_c, 0, 62, 67
2, 778432, Note_off_c, 0, 62, 67
2, 778496, Note_off_c, 0, 62, 67
2, 778496, Note_on_c, 0, 46, 67
2, 778560, Note_off_c, 0, 46, 67
2, 778624, Note_off_c, 0, 46, 67
2, 778624, Note_on_c, 0, 58, 67
2, 778688, Note_off_c, 0, 58, 67
2, 778752, Note_off_c, 0, 58, 67
2, 778752, Note_on_c, 0, 51, 67
2, 778816, Note_off_c, 0, 51, 67
2, 778880, Note_off_c, 0, 51, 67
2, 778880, Note_on_c, 0, 63, 67
2, 778944, Note_off_c, 0, 63, 67
2, 779008, Note_off_c, 0, 63, 67
2, 779008, Note_on_c, 0, 46, 67
2, 779072, Note_off_c, 0, 46, 67
2, 779136, Note_off_c, 0, 46, 67
2, 779136, Note_on_c, 0, 58, 67
2, 779200, Note_off_c, 0, 58, 67
2, 779264, Note_off_c, 0, 58, 67
2, 779264, Note_on_c, 0, 51, 67
2, 779328, Note_off_c, 0, 51, 67
2, 779392, Note_off_c, 0, 51, 67
2, 779392, Note_on_c, 0, 63, 67
2, 779456, Note_off_c, 0, 63, 67
2, 779520, Note_off_c, 0, 63, 67
2, 779520, Note_on_c, 0, 50, 67
2, 779584, Note_off_c, 0, 50, 67
2, 779648, Note_off_c, 0, 50, 67
2, 779648, Note_on_c, 0, 62, 67
2, 779712, Note_off_c, 0, 62, 67
2, 779776, Note_off_c, 0, 62, 67
2, 779776, Note_on_c, 0, 48, 67
2, 779840, Note_off_c, 0, 48, 67
2, 779904, Note_off_c, 0, 48, 67
2, 779904, Note_on_c, 0, 60, 67
2, 779968, Note_off_c, 0, 60, 67
2, 780032, Note_off_c, 0, 60, 67
2, 780032, Note_on_c, 0, 46, 67
2, 780096, Note_off_c, 0, 46, 67
2, 780160, Note_off_c, 0, 46, 67
2, 780160, Note_on_c, 0, 58, 67
2, 780224, Note_off_c, 0, 58, 67
2, 780288, Note_off_c, 0, 58, 67
2, 780288, Note_on_c, 0, 51, 67
2, 780352, Note_off_c, 0, 51, 67
2, 780416, Note_off_c, 0, 51, 67
2, 780416, Note_on_c, 0, 63, 67
2, 780480, Note_off_c, 0, 63, 67
2, 780544, Note_off_c, 0, 63, 67
2, 780544, Note_on_c, 0, 46, 67
2, 780608, Note_off_c, 0, 46, 67
2, 780672, Note_off_c, 0, 46, 67
2, 780672, Note_on_c, 0, 58, 67
2, 780736, Note_off_c, 0, 58, 67
2, 780800, Note_off_c, 0, 58, 67
2, 780800, Note_on_c, 0, 48, 67
2, 780864, Note_off_c, 0, 48, 67
2, 780928, Note_off_c, 0, 48, 67
2, 780928, Note_on_c, 0, 60, 67
2, 780992, Note_off_c, 0, 60, 67
2, 781056, Note_off_c, 0, 60, 67
2, 781056, Note_on_c, 0, 46, 67
2, 781120, Note_off_c, 0, 46, 67
2, 781184, Note_off_c, 0, 46, 67
2, 781184, Note_on_c, 0, 58, 67
2, 781248, Note_off_c, 0, 58, 67
2, 781312, Note_off_c, 0, 58, 67
2, 781312, Note_on_c, 0, 50, 67
2, 781376, Note_off_c, 0, 50, 67
2, 781440, Note_off_c, 0, 50, 67
2, 781440, Note_on_c, 0, 62, 67
2, 781504, Note_off_c, 0, 62, 67
2, 781568, Note_off_c, 0, 62, 67
2, 781568, Note_on_c, 0, 48, 67
2, 781632, Note_off_c, 0, 48, 67
2, 781696, Note_off_c, 0, 48, 67
2, 781696, Note_on_c, 0, 60, 67
2, 781760, Note_off_c, 0, 60, 67
2, 781824, Note_off_c, 0, 60, 67
2, 781824, Note_on_c, 0, 46, 67
2, 781888, Note_off_c, 0, 46, 67
2, 781952, Note_off_c, 0, 46, 67
2, 781952, Note_on_c, 0, 58, 67
2, 782016, Note_off_c, 0, 58, 67
2, 782080, Note_off_c, 0, 58, 67
2, 782080, Note_on_c, 0, 48, 67
2, 782144, Note_off_c, 0, 48, 67
2, 782208, Note_off_c, 0, 48, 67
2, 782208, Note_on_c, 0, 60, 67
2, 782272, Note_off_c, 0, 60, 67
2, 782336, Note_off_c, 0, 60, 67
2, 782336, Note_on_c, 0, 50, 67
2, 782400, Note_off_c, 0, 50, 67
2, 782464, Note_off_c, 0, 50, 67
2, 782464, Note_on_c, 0, 62, 67
2, 782528, Note_off_c, 0, 62, 67
2, 782592, Note_off_c, 0, 62, 67
2, 782592, Note_on_c, 0, 46, 67
2, 782656, Note_off_c, 0, 46, 67
2, 782720, Note_off_c, 0, 46, 67
2, 782720, Note_on_c, 0, 58, 67
2, 782784, Note_off_c, 0, 58, 67
2, 782848, Note_off_c, 0, 58, 67
2, 782848, Note_on_c, 0, 51, 67
2, 782912, Note_off_c, 0, 51, 67
2, 782976, Note_off_c, 0, 51, 67
2, 782976, Note_on_c, 0, 63, 67
2, 783040, Note_off_c, 0, 63, 67
2, 783104, Note_off_c, 0, 63, 67
2, 783104, Note_on_c, 0, 46, 67
2, 783168, Note_off_c, 0, 46, 67
2, 783232, Note_off_c, 0, 46, 67
2, 783232, Note_on_c, 0, 58, 67
2, 783296, Note_off_c, 0, 58, 67
2, 783360, Note_off_c, 0, 58, 67
2, 783360, Note_on_c, 0, 39, 67
2, 783424, Note_off_c, 0, 39, 67
2, 783424, Note_on_c, 0, 46, 67
2, 783488, Note_off_c, 0, 46, 67
2, 783488, Note_on_c, 0, 51, 67
2, 783552, Note_off_c, 0, 51, 67
2, 783552, Note_on_c, 0, 53, 67
2, 783616, Note_off_c, 0, 53, 67
2, 783616, Note_on_c, 0, 55, 67
2, 783680, Note_off_c, 0, 55, 67
2, 783680, Note_on_c, 0, 51, 67
2, 783744, Note_off_c, 0, 51, 67
2, 783744, Note_on_c, 0, 58, 67
2, 783808, Note_off_c, 0, 58, 67
2, 783808, Note_on_c, 0, 63, 67
2, 783856, Control_c, 0, 93, 0
2, 783872, Note_off_c, 0, 63, 67
2, 783872, Note_on_c, 0, 44, 67
2, 783936, Note_off_c, 0, 44, 67
2, 783936, Note_on_c, 0, 51, 67
2, 784000, Note_off_c, 0, 51, 67
2, 784000, Note_on_c, 0, 56, 67
2, 784064, Note_off_c, 0, 56, 67
2, 784064, Note_on_c, 0, 58, 67
2, 784128, Note_off_c, 0, 58, 67
2, 784128, Note_on_c, 0, 60, 67
2, 784192, Note_off_c, 0, 60, 67
2, 784192, Note_on_c, 0, 56, 67
2, 784256, Note_off_c, 0, 56, 67
2, 784256, Note_on_c, 0, 63, 67
2, 784320, Note_off_c, 0, 63, 67
2, 784320, Note_on_c, 0, 68, 67
2, 784368, Control_c, 0, 93, 0
2, 784384, Note_off_c, 0, 68, 67
2, 784384, Note_on_c, 0, 46, 67
2, 784448, Note_off_c, 0, 46, 67
2, 784448, Note_on_c, 0, 53, 67
2, 784512, Note_off_c, 0, 53, 67
2, 784512, Note_on_c, 0, 58, 67
2, 784576, Note_off_c, 0, 58, 67
2, 784576, Note_on_c, 0, 60, 67
2, 784640, Note_off_c, 0, 60, 67
2, 784640, Note_on_c, 0, 62, 67
2, 784704, Note_off_c, 0, 62, 67
2, 784704, Note_on_c, 0, 58, 67
2, 784768, Note_off_c, 0, 58, 67
2, 784768, Note_on_c, 0, 65, 67
2, 784832, Note_off_c, 0, 65, 67
2, 784832, Note_on_c, 0, 70, 67
2, 784880, Control_c, 0, 93, 0
2, 784896, Note_off_c, 0, 70, 67
2, 784896, Note_on_c, 0, 41, 67
2, 784960, Note_off_c, 0, 41, 67
2, 784960, Note_on_c, 0, 44, 67
2, 785024, Note_off_c, 0, 44, 67
2, 785024, Control_c, 0, 64, 64
2, 785024, Note_on_c, 0, 50, 67
2, 785045, Note_off_c, 0, 50, 67
2, 785045, Note_on_c, 0, 53, 67
2, 785066, Note_off_c, 0, 53, 67
2, 785066, Note_on_c, 0, 58, 67
2, 785087, Note_off_c, 0, 58, 67
2, 785088, Control_c, 0, 93, 0
2, 785088, Note_on_c, 0, 62, 67
2, 785109, Note_off_c, 0, 62, 67
2, 785109, Note_on_c, 0, 65, 67
2, 785130, Note_off_c, 0, 65, 67
2, 785130, Note_on_c, 0, 70, 67
2, 785152, Control_c, 0, 93, 0
2, 785152, Control_c, 0, 64, 0
2, 785280, Note_off_c, 0, 70, 67
2, 785280, Note_on_c, 0, 51, 67
2, 785344, Note_off_c, 0, 51, 67
2, 785344, Note_on_c, 0, 46, 67
2, 785408, Note_off_c, 0, 46, 67
2, 785408, Note_on_c, 0, 39, 67
2, 785472, Note_off_c, 0, 39, 67
2, 785472, Note_on_c, 0, 46, 67
2, 785536, Note_off_c, 0, 46, 67
2, 785536, Note_on_c, 0, 51, 67
2, 785600, Note_off_c, 0, 51, 67
2, 785600, Note_on_c, 0, 53, 67
2, 785664, Note_off_c, 0, 53, 67
2, 785664, Note_on_c, 0, 55, 67
2, 785728, Note_off_c, 0, 55, 67
2, 785728, Note_on_c, 0, 51, 67
2, 785792, Note_off_c, 0, 51, 67
2, 785792, Note_on_c, 0, 58, 67
2, 785856, Note_off_c, 0, 58, 67
2, 785856, Note_on_c, 0, 63, 67
2, 785904, Control_c, 0, 93, 0
2, 785920, Note_off_c, 0, 63, 67
2, 785920, Note_on_c, 0, 44, 67
2, 785984, Note_off_c, 0, 44, 67
2, 785984, Note_on_c, 0, 51, 67
2, 786048, Note_off_c, 0, 51, 67
2, 786048, Note_on_c, 0, 56, 67
2, 786112, Note_off_c, 0, 56, 67
2, 786112, Note_on_c, 0, 58, 67
2, 786176, Note_off_c, 0, 58, 67
2, 786176, Note_on_c, 0, 60, 67
2, 786240, Note_off_c, 0, 60, 67
2, 786240, Note_on_c, 0, 56, 67
2, 786304, Note_off_c, 0, 56, 67
2, 786304, Note_on_c, 0, 63, 67
2, 786368, Note_off_c, 0, 63, 67
2, 786368, Note_on_c, 0, 68, 67
2, 786416, Control_c, 0, 93, 0
2, 786432, Note_off_c, 0, 68, 67
2, 786432, Note_on_c, 0, 46, 67
2, 786496, Note_off_c, 0, 46, 67
2, 786496, Note_on_c, 0, 53, 67
2, 786560, Note_off_c, 0, 53, 67
2, 786560, Note_on_c, 0, 58, 67
2, 786624, Note_off_c, 0, 58, 67
2, 786624, Note_on_c, 0, 60, 67
2, 786688, Note_off_c, 0, 60, 67
2, 786688, Note_on_c, 0, 62, 67
2, 786752, Note_off_c, 0, 62, 67
2, 786752, Note_on_c, 0, 58, 67
2, 786816, Note_off_c, 0, 58, 67
2, 786816, Note_on_c, 0, 65, 67
2, 786880, Note_off_c, 0, 65, 67
2, 786880, Note_on_c, 0, 70, 67
2, 786928, Control_c, 0, 93, 0
2, 786944, Note_off_c, 0, 70, 67
2, 786944, Note_on_c, 0, 39, 67
2, 787008, Note_off_c, 0, 39, 67
2, 787008, Note_on_c, 0, 46, 67
2, 787072, Note_off_c, 0, 46, 67
2, 787072, Note_on_c, 0, 51, 67
2, 787136, Note_off_c, 0, 51, 67
2, 787136, Control_c, 0, 64, 64
2, 787136, Note_on_c, 0, 55, 67
2, 787146, Note_off_c, 0, 55, 67
2, 787146, Note_on_c, 0, 58, 67
2, 787157, Note_off_c, 0, 58, 67
2, 787157, Note_on_c, 0, 63, 67
2, 787167, Note_off_c, 0, 63, 67
2, 787168, Control_c, 0, 93, 0
2, 787168, Note_on_c, 0, 67, 67
2, 787178, Note_off_c, 0, 67, 67
2, 787178, Note_on_c, 0, 70, 67
2, 787189, Note_off_c, 0, 70, 67
2, 787189, Note_on_c, 0, 75, 67
2, 787199, Note_off_c, 0, 75, 67
2, 787200, Control_c, 0, 93, 0
2, 787328, Control_c, 0, 93, 0
2, 787392, Control_c, 0, 93, 0
2, 787392, Control_c, 0, 64, 0
2, 787456, Control_c, 0, 93, 0
2, 787456, Note_on_c, 0, 51, 67
2, 787520, Note_off_c, 0, 51, 67
2, 787584, Note_off_c, 0, 51, 67
2, 787584, Note_on_c, 0, 63, 67
2, 787648, Note_off_c, 0, 63, 67
2, 787712, Note_off_c, 0, 63, 67
2, 787712, Note_on_c, 0, 50, 67
2, 787776, Note_off_c, 0, 50, 67
2, 787840, Note_off_c, 0, 50, 67
2, 787840, Note_on_c, 0, 62, 67
2, 787904, Note_off_c, 0, 62, 67
2, 787968, Note_off_c, 0, 62, 67
2, 787968, Note_on_c, 0, 48, 67
2, 788032, Note_off_c, 0, 48, 67
2, 788096, Note_off_c, 0, 48, 67
2, 788096, Note_on_c, 0, 60, 67
2, 788160, Note_off_c, 0, 60, 67
2, 788224, Note_off_c, 0, 60, 67
2, 788224, Note_on_c, 0, 46, 67
2, 788288, Note_off_c, 0, 46, 67
2, 788352, Note_off_c, 0, 46, 67
2, 788352, Note_on_c, 0, 58, 67
2, 788416, Note_off_c, 0, 58, 67
2, 788480, Note_off_c, 0, 58, 67
2, 788480, Note_on_c, 0, 51, 67
2, 788544, Note_off_c, 0, 51, 67
2, 788608, Note_off_c, 0, 51, 67
2, 788608, Note_on_c, 0, 63, 67
2, 788672, Note_off_c, 0, 63, 67
2, 788736, Note_off_c, 0, 63, 67
2, 788736, Note_on_c, 0, 46, 67
2, 788800, Note_off_c, 0, 46, 67
2, 788864, Note_off_c, 0, 46, 67
2, 788864, Note_on_c, 0, 58, 67
2, 788928, Note_off_c, 0, 58, 67
2, 788992, Note_off_c, 0, 58, 67
2, 788992, Note_on_c, 0, 48, 67
2, 789056, Note_off_c, 0, 48, 67
2, 789120, Note_off_c, 0, 48, 67
2, 789120, Note_on_c, 0, 60, 67
2, 789184, Note_off_c, 0, 60, 67
2, 789248, Note_off_c, 0, 60, 67
2, 789248, Note_on_c, 0, 46, 67
2, 789312, Note_off_c, 0, 46, 67
2, 789376, Note_off_c, 0, 46, 67
2, 789376, Note_on_c, 0, 58, 67
2, 789440, Note_off_c, 0, 58, 67
2, 789504, Note_off_c, 0, 58, 67
2, 789504, Note_on_c, 0, 50, 67
2, 789568, Note_off_c, 0, 50, 67
2, 789632, Note_off_c, 0, 50, 67
2, 789632, Note_on_c, 0, 62, 67
2, 789696, Note_off_c, 0, 62, 67
2, 789760, Note_off_c, 0, 62, 67
2, 789760, Note_on_c, 0, 46, 67
2, 789824, Note_off_c, 0, 46, 67
2, 789888, Note_off_c, 0, 46, 67
2, 789888, Note_on_c, 0, 58, 67
2, 789952, Note_off_c, 0, 58, 67
2, 790016, Note_off_c, 0, 58, 67
2, 790016, Note_on_c, 0, 48, 67
2, 790080, Note_off_c, 0, 48, 67
2, 790144, Note_off_c, 0, 48, 67
2, 790144, Note_on_c, 0, 60, 67
2, 790208, Note_off_c, 0, 60, 67
2, 790272, Note_off_c, 0, 60, 67
2, 790272, Note_on_c, 0, 49, 67
2, 790336, Note_off_c, 0, 49, 67
2, 790400, Note_off_c, 0, 49, 67
2, 790400, Note_on_c, 0, 61, 67
2, 790464, Note_off_c, 0, 61, 67
2, 790528, Note_off_c, 0, 61, 67
2, 790528, Note_on_c, 0, 50, 67
2, 790592, Note_off_c, 0, 50, 67
2, 790656, Note_off_c, 0, 50, 67
2, 790656, Note_on_c, 0, 62, 67
2, 790720, Note_off_c, 0, 62, 67
2, 790784, Note_off_c, 0, 62, 67
2, 790784, Note_on_c, 0, 46, 67
2, 790848, Note_off_c, 0, 46, 67
2, 790912, Note_off_c, 0, 46, 67
2, 790912, Note_on_c, 0, 58, 67
2, 790976, Note_off_c, 0, 58, 67
2, 791040, Note_off_c, 0, 58, 67
2, 791040, Note_on_c, 0, 51, 67
2, 791104, Note_off_c, 0, 51, 67
2, 791168, Note_off_c, 0, 51, 67
2, 791168, Note_on_c, 0, 63, 67
2, 791232, Note_off_c, 0, 63, 67
2, 791296, Note_off_c, 0, 63, 67
2, 791296, Note_on_c, 0, 46, 67
2, 791360, Note_off_c, 0, 46, 67
2, 791424, Note_off_c, 0, 46, 67
2, 791424, Note_on_c, 0, 58, 67
2, 791488, Note_off_c, 0, 58, 67
2, 791552, Note_off_c, 0, 58, 67
2, 791552, Note_on_c, 0, 51, 67
2, 791616, Note_off_c, 0, 51, 67
2, 791680, Note_off_c, 0, 51, 67
2, 791680, Note_on_c, 0, 63, 67
2, 791744, Note_off_c, 0, 63, 67
2, 791808, Note_off_c, 0, 63, 67
2, 791808, Note_on_c, 0, 50, 67
2, 791872, Note_off_c, 0, 50, 67
2, 791936, Note_off_c, 0, 50, 67
2, 791936, Note_on_c, 0, 62, 67
2, 792000, Note_off_c, 0, 62, 67
2, 792064, Note_off_c, 0, 62, 67
2, 792064, Note_on_c, 0, 48, 67
2, 792128, Note_off_c, 0, 48, 67
2, 792192, Note_off_c, 0, 48, 67
2, 792192, Note_on_c, 0, 60, 67
2, 792256, Note_off_c, 0, 60, 67
2, 792320, Note_off_c, 0, 60, 67
2, 792320, Note_on_c, 0, 46, 67
2, 792384, Note_off_c, 0, 46, 67
2, 792448, Note_off_c, 0, 46, 67
2, 792448, Note_on_c, 0, 58, 67
2, 792512, Note_off_c, 0, 58, 67
2, 792576, Note_off_c, 0, 58, 67
2, 792576, Note_on_c, 0, 51, 67
2, 792640, Note_off_c, 0, 51, 67
2, 792704, Note_off_c, 0, 51, 67
2, 792704, Note_on_c, 0, 63, 67
2, 792768, Note_off_c, 0, 63, 67
2, 792832, Note_off_c, 0, 63, 67
2, 792832, Note_on_c, 0, 46, 67
2, 792896, Note_off_c, 0, 46, 67
2, 792960, Note_off_c, 0, 46, 67
2, 792960, Note_on_c, 0, 58, 67
2, 793024, Note_off_c, 0, 58, 67
2, 793088, Note_off_c, 0, 58, 67
2, 793088, Note_on_c, 0, 48, 67
2, 793152, Note_off_c, 0, 48, 67
2, 793216, Note_off_c, 0, 48, 67
2, 793216, Note_on_c, 0, 60, 67
2, 793280, Note_off_c, 0, 60, 67
2, 793344, Note_off_c, 0, 60, 67
2, 793344, Note_on_c, 0, 46, 67
2, 793408, Note_off_c, 0, 46, 67
2, 793472, Note_off_c, 0, 46, 67
2, 793472, Note_on_c, 0, 58, 67
2, 793536, Note_off_c, 0, 58, 67
2, 793600, Note_off_c, 0, 58, 67
2, 793600, Note_on_c, 0, 50, 67
2, 793664, Note_off_c, 0, 50, 67
2, 793728, Note_off_c, 0, 50, 67
2, 793728, Note_on_c, 0, 62, 67
2, 793792, Note_off_c, 0, 62, 67
2, 793856, Note_off_c, 0, 62, 67
2, 793856, Note_on_c, 0, 48, 67
2, 793920, Note_off_c, 0, 48, 67
2, 793984, Note_off_c, 0, 48, 67
2, 793984, Note_on_c, 0, 60, 67
2, 794048, Note_off_c, 0, 60, 67
2, 794112, Note_off_c, 0, 60, 67
2, 794112, Note_on_c, 0, 46, 67
2, 794176, Note_off_c, 0, 46, 67
2, 794240, Note_off_c, 0, 46, 67
2, 794240, Note_on_c, 0, 58, 67
2, 794304, Note_off_c, 0, 58, 67
2, 794368, Note_off_c, 0, 58, 67
2, 794368, Note_on_c, 0, 48, 67
2, 794432, Note_off_c, 0, 48, 67
2, 794496, Note_off_c, 0, 48, 67
2, 794496, Note_on_c, 0, 60, 67
2, 794560, Note_off_c, 0, 60, 67
2, 794624, Note_off_c, 0, 60, 67
2, 794624, Note_on_c, 0, 50, 67
2, 794688, Note_off_c, 0, 50, 67
2, 794752, Note_off_c, 0, 50, 67
2, 794752, Note_on_c, 0, 62, 67
2, 794816, Note_off_c, 0, 62, 67
2, 794880, Note_off_c, 0, 62, 67
2, 794880, Note_on_c, 0, 46, 67
2, 794944, Note_off_c, 0, 46, 67
2, 795008, Note_off_c, 0, 46, 67
2, 795008, Note_on_c, 0, 58, 67
2, 795072, Note_off_c, 0, 58, 67
2, 795136, Note_off_c, 0, 58, 67
2, 795136, Note_on_c, 0, 51, 67
2, 795200, Note_off_c, 0, 51, 67
2, 795264, Note_off_c, 0, 51, 67
2, 795264, Note_on_c, 0, 63, 67
2, 795328, Note_off_c, 0, 63, 67
2, 795392, Note_off_c, 0, 63, 67
2, 795392, Note_on_c, 0, 46, 67
2, 795456, Note_off_c, 0, 46, 67
2, 795520, Note_off_c, 0, 46, 67
2, 795520, Note_on_c, 0, 58, 67
2, 795584, Note_off_c, 0, 58, 67
2, 795648, Note_off_c, 0, 58, 67
2, 795648, Note_on_c, 0, 39, 67
2, 795712, Note_off_c, 0, 39, 67
2, 795712, Note_on_c, 0, 46, 67
2, 795776, Note_off_c, 0, 46, 67
2, 795776, Note_on_c, 0, 51, 67
2, 795840, Note_off_c, 0, 51, 67
2, 795840, Note_on_c, 0, 53, 67
2, 795904, Note_off_c, 0, 53, 67
2, 795904, Note_on_c, 0, 55, 67
2, 795968, Note_off_c, 0, 55, 67
2, 795968, Note_on_c, 0, 51, 67
2, 796032, Note_off_c, 0, 51, 67
2, 796032, Note_on_c, 0, 58, 67
2, 796096, Note_off_c, 0, 58, 67
2, 796096, Note_on_c, 0, 63, 67
2, 796144, Control_c, 0, 93, 0
2, 796160, Note_off_c, 0, 63, 67
2, 796160, Note_on_c, 0, 44, 67
2, 796224, Note_off_c, 0, 44, 67
2, 796224, Note_on_c, 0, 51, 67
2, 796288, Note_off_c, 0, 51, 67
2, 796288, Note_on_c, 0, 56, 67
2, 796352, Note_off_c, 0, 56, 67
2, 796352, Note_on_c, 0, 58, 67
2, 796416, Note_off_c, 0, 58, 67
2, 796416, Note_on_c, 0, 60, 67
2, 796480, Note_off_c, 0, 60, 67
2, 796480, Note_on_c, 0, 56, 67
2, 796544, Note_off_c, 0, 56, 67
2, 796544, Note_on_c, 0, 63, 67
2, 796608, Note_off_c, 0, 63, 67
2, 796608, Note_on_c, 0, 68, 67
2, 796656, Control_c, 0, 93, 0
2, 796672, Note_off_c, 0, 68, 67
2, 796672, Note_on_c, 0, 46, 67
2, 796736, Note_off_c, 0, 46, 67
2, 796736, Note_on_c, 0, 53, 67
2, 796800, Note_off_c, 0, 53, 67
2, 796800, Note_on_c, 0, 58, 67
2, 796864, Note_off_c, 0, 58, 67
2, 796864, Note_on_c, 0, 60, 67
2, 796928, Note_off_c, 0, 60, 67
2, 796928, Note_on_c, 0, 62, 67
2, 796992, Note_off_c, 0, 62, 67
2, 796992, Note_on_c, 0, 58, 67
2, 797056, Note_off_c, 0, 58, 67
2, 797056, Note_on_c, 0, 65, 67
2, 797120, Note_off_c, 0, 65, 67
2, 797120, Note_on_c, 0, 70, 67
2, 797168, Control_c, 0, 93, 0
2, 797184, Note_off_c, 0, 70, 67
2, 797184, Note_on_c, 0, 41, 67
2, 797248, Note_off_c, 0, 41, 67
2, 797248, Note_on_c, 0, 44, 67
2, 797312, Note_off_c, 0, 44, 67
2, 797312, Control_c, 0, 64, 64
2, 797312, Note_on_c, 0, 50, 67
2, 797333, Note_off_c, 0, 50, 67
2, 797333, Note_on_c, 0, 53, 67
2, 797354, Note_off_c, 0, 53, 67
2, 797354, Note_on_c, 0, 58, 67
2, 797375, Note_off_c, 0, 58, 67
2, 797376, Control_c, 0, 93, 0
2, 797376, Note_on_c, 0, 62, 67
2, 797397, Note_off_c, 0, 62, 67
2, 797397, Note_on_c, 0, 65, 67
2, 797418, Note_off_c, 0, 65, 67
2, 797418, Note_on_c, 0, 70, 67
2, 797440, Control_c, 0, 93, 0
2, 797440, Control_c, 0, 64, 0
2, 797568, Note_off_c, 0, 70, 67
2, 797568, Note_on_c, 0, 51, 67
2, 797632, Note_off_c, 0, 51, 67
2, 797632, Note_on_c, 0, 46, 67
2, 797696, Note_off_c, 0, 46, 67
2, 797696, Note_on_c, 0, 39, 67
2, 797760, Note_off_c, 0, 39, 67
2, 797760, Note_on_c, 0, 46, 67
2, 797824, Note_off_c, 0, 46, 67
2, 797824, Note_on_c, 0, 51, 67
2, 797888, Note_off_c, 0, 51, 67
2, 797888, Note_on_c, 0, 53, 67
2, 797952, Note_off_c, 0, 53, 67
2, 797952, Note_on_c, 0, 55, 67
2, 798016, Note_off_c, 0, 55, 67
2, 798016, Note_on_c, 0, 51, 67
2, 798080, Note_off_c, 0, 51, 67
2, 798080, Note_on_c, 0, 58, 67
2, 798144, Note_off_c, 0, 58, 67
2, 798144, Note_on_c, 0, 63, 67
2, 798192, Control_c, 0, 93, 0
2, 798208, Note_off_c, 0, 63, 67
2, 798208, Note_on_c, 0, 44, 67
2, 798272, Note_off_c, 0, 44, 67
2, 798272, Note_on_c, 0, 51, 67
2, 798336, Note_off_c, 0, 51, 67
2, 798336, Note_on_c, 0, 56, 67
2, 798400, Note_off_c, 0, 56, 67
2, 798400, Note_on_c, 0, 58, 67
2, 798464, Note_off_c, 0, 58, 67
2, 798464, Note_on_c, 0, 60, 67
2, 798528, Note_off_c, 0, 60, 67
2, 798528, Note_on_c, 0, 56, 67
2, 798592, Note_off_c, 0, 56, 67
2, 798592, Note_on_c, 0, 63, 67
2, 798656, Note_off_c, 0, 63, 67
2, 798656, Note_on_c, 0, 68, 67
2, 798704, Control_c, 0, 93, 0
2, 798720, Note_off_c, 0, 68, 67
2, 798720, Note_on_c, 0, 46, 67
2, 798784, Note_off_c, 0, 46, 67
2, 798784, Note_on_c, 0, 53, 67
2, 798848, Note_off_c, 0, 53, 67
2, 798848, Note_on_c, 0, 58, 67
2, 798912, Note_off_c, 0, 58, 67
2, 798912, Note_on_c, 0, 60, 67
2, 798976, Note_off_c, 0, 60, 67
2, 798976, Note_on_c, 0, 62, 67
2, 799040, Note_off_c, 0, 62, 67
2, 799040, Note_on_c, 0, 58, 67
2, 799104, Note_off_c, 0, 58, 67
2, 799104, Note_on_c, 0, 65, 67
2, 799168, Note_off_c, 0, 65, 67
2, 799168, Note_on_c, 0, 70, 67
2, 799216, Control_c, 0, 93, 0
2, 799232, Note_off_c, 0, 70, 67
2, 799232, Note_on_c, 0, 39, 67
2, 799296, Note_off_c, 0, 39, 67
2, 799296, Note_on_c, 0, 46, 67
2, 799360, Note_off_c, 0, 46, 67
2, 799360, Note_on_c, 0, 51, 67
2, 799424, Note_off_c, 0, 51, 67
2, 799424, Control_c, 0, 64, 64
2, 799424, Note_on_c, 0, 55, 67
2, 799434, Note_off_c, 0, 55, 67
2, 799434, Note_on_c, 0, 58, 67
2, 799445, Note_off_c, 0, 58, 67
2, 799445, Note_on_c, 0, 63, 67
2, 799455, Note_off_c, 0, 63, 67
2, 799456, Control_c, 0, 93, 0
2, 799456, Note_on_c, 0, 67, 67
2, 799466, Note_off_c, 0, 67, 67
2, 799466, Note_on_c, 0, 70, 67
2, 799477, Note_off_c, 0, 70, 67
2, 799477, Note_on_c, 0, 75, 67
2, 799487, Note_off_c, 0, 75, 67
2, 799488, Control_c, 0, 93, 0
2, 799616, Control_c, 0, 93, 0
2, 799680, Control_c, 0, 93, 0
2, 799680, Control_c, 0, 64, 0
2, 799744, Control_c, 0, 93, 0
2, 799744, Note_on_c, 0, 51, 67
2, 799808, Note_off_c, 0, 51, 67
2, 799872, Note_off_c, 0, 51, 67
2, 799872, Note_on_c, 0, 63, 67
2, 799936, Note_off_c, 0, 63, 67
2, 800000, Note_off_c, 0, 63, 67
2, 800000, Note_on_c, 0, 50, 67
2, 800064, Note_off_c, 0, 50, 67
2, 800128, Note_off_c, 0, 50, 67
2, 800128, Note_on_c, 0, 62, 67
2, 800192, Note_off_c, 0, 62, 67
2, 800256, Note_off_c, 0, 62, 67
2, 800256, Note_on_c, 0, 48, 67
2, 800320, Note_off_c, 0, 48, 67
2, 800384, Note_off_c, 0, 48, 67
2, 800384, Note_on_c, 0, 60, 67
2, 800448, Note_off_c, 0, 60, 67
2, 800512, Note_off_c, 0, 60, 67
2, 800512, Note_on_c, 0, 46, 67
2, 800576, Note_off_c, 0, 46, 67
2, 800640, Note_off_c, 0, 46, 67
2, 800640, Note_on_c, 0, 58, 67
2, 800704, Note_off_c, 0, 58, 67
2, 800768, Note_off_c, 0, 58, 67
2, 800768, Note_on_c, 0, 51, 67
2, 800832, Note_off_c, 0, 51, 67
2, 800896, Note_off_c, 0, 51, 67
2, 800896, Note_on_c, 0, 63, 67
2, 800960, Note_off_c, 0, 63, 67
2, 801024, Note_off_c, 0, 63, 67
2, 801024, Note_on_c, 0, 46, 67
2, 801088, Note_off_c, 0, 46, 67
2, 801152, Note_off_c, 0, 46, 67
2, 801152, Note_on_c, 0, 58, 67
2, 801216, Note_off_c, 0, 58, 67
2, 801280, Note_off_c, 0, 58, 67
2, 801280, Note_on_c, 0, 48, 67
2, 801344, Note_off_c, 0, 48, 67
2, 801408, Note_off_c, 0, 48, 67
2, 801408, Note_on_c, 0, 60, 67
2, 801472, Note_off_c, 0, 60, 67
2, 801536, Note_off_c, 0, 60, 67
2, 801536, Note_on_c, 0, 46, 67
2, 801600, Note_off_c, 0, 46, 67
2, 801664, Note_off_c, 0, 46, 67
2, 801664, Note_on_c, 0, 58, 67
2, 801728, Note_off_c, 0, 58, 67
2, 801792, Note_off_c, 0, 58, 67
2, 801792, Note_on_c, 0, 50, 67
2, 801856, Note_off_c, 0, 50, 67
2, 801920, Note_off_c, 0, 50, 67
2, 801920, Note_on_c, 0, 62, 67
2, 801984, Note_off_c, 0, 62, 67
2, 802048, Note_off_c, 0, 62, 67
2, 802048, Note_on_c, 0, 46, 67
2, 802112, Note_off_c, 0, 46, 67
2, 802176, Note_off_c, 0, 46, 67
2, 802176, Note_on_c, 0, 58, 67
2, 802240, Note_off_c, 0, 58, 67
2, 802304, Note_off_c, 0, 58, 67
2, 802304, Note_on_c, 0, 48, 67
2, 802368, Note_off_c, 0, 48, 67
2, 802432, Note_off_c, 0, 48, 67
2, 802432, Note_on_c, 0, 60, 67
2, 802496, Note_off_c, 0, 60, 67
2, 802560, Note_off_c, 0, 60, 67
2, 802560, Note_on_c, 0, 49, 67
2, 802624, Note_off_c, 0, 49, 67
2, 802688, Note_off_c, 0, 49, 67
2, 802688, Note_on_c, 0, 61, 67
2, 802752, Note_off_c, 0, 61, 67
2, 802816, Note_off_c, 0, 61, 67
2, 802816, Note_on_c, 0, 50, 67
2, 802880, Note_off_c, 0, 50, 67
2, 802944, Note_off_c, 0, 50, 67
2, 802944, Note_on_c, 0, 62, 67
2, 803008, Note_off_c, 0, 62, 67
2, 803072, Note_off_c, 0, 62, 67
2, 803072, Note_on_c, 0, 46, 67
2, 803136, Note_off_c, 0, 46, 67
2, 803200, Note_off_c, 0, 46, 67
2, 803200, Note_on_c, 0, 58, 67
2, 803264, Note_off_c, 0, 58, 67
2, 803328, Note_off_c, 0, 58, 67
2, 803328, Note_on_c, 0, 51, 67
2, 803392, Note_off_c, 0, 51, 67
2, 803456, Note_off_c, 0, 51, 67
2, 803456, Note_on_c, 0, 63, 67
2, 803520, Note_off_c, 0, 63, 67
2, 803584, Note_off_c, 0, 63, 67
2, 803584, Note_on_c, 0, 46, 67
2, 803648, Note_off_c, 0, 46, 67
2, 803712, Note_off_c, 0, 46, 67
2, 803712, Note_on_c, 0, 58, 67
2, 803776, Note_off_c, 0, 58, 67
2, 803840, Note_off_c, 0, 58, 67
2, 803840, Note_on_c, 0, 51, 67
2, 803904, Note_off_c, 0, 51, 67
2, 803968, Note_off_c, 0, 51, 67
2, 803968, Note_on_c, 0, 63, 67
2, 804032, Note_off_c, 0, 63, 67
2, 804096, Note_off_c, 0, 63, 67
2, 804096, Note_on_c, 0, 50, 67
2, 804160, Note_off_c, 0, 50, 67
2, 804224, Note_off_c, 0, 50, 67
2, 804224, Note_on_c, 0, 62, 67
2, 804288, Note_off_c, 0, 62, 67
2, 804352, Note_off_c, 0, 62, 67
2, 804352, Note_on_c, 0, 48, 67
2, 804416, Note_off_c, 0, 48, 67
2, 804480, Note_off_c, 0, 48, 67
2, 804480, Note_on_c, 0, 60, 67
2, 804544, Note_off_c, 0, 60, 67
2, 804608, Note_off_c, 0, 60, 67
2, 804608, Note_on_c, 0, 46, 67
2, 804672, Note_off_c, 0, 46, 67
2, 804736, Note_off_c, 0, 46, 67
2, 804736, Note_on_c, 0, 58, 67
2, 804800, Note_off_c, 0, 58, 67
2, 804864, Note_off_c, 0, 58, 67
2, 804864, Note_on_c, 0, 51, 67
2, 804928, Note_off_c, 0, 51, 67
2, 804992, Note_off_c, 0, 51, 67
2, 804992, Note_on_c, 0, 63, 67
2, 805056, Note_off_c, 0, 63, 67
2, 805120, Note_off_c, 0, 63, 67
2, 805120, Note_on_c, 0, 46, 67
2, 805184, Note_off_c, 0, 46, 67
2, 805248, Note_off_c, 0, 46, 67
2, 805248, Note_on_c, 0, 58, 67
2, 805312, Note_off_c, 0, 58, 67
2, 805376, Note_off_c, 0, 58, 67
2, 805376, Note_on_c, 0, 48, 67
2, 805440, Note_off_c, 0, 48, 67
2, 805504, Note_off_c, 0, 48, 67
2, 805504, Note_on_c, 0, 60, 67
2, 805568, Note_off_c, 0, 60, 67
2, 805632, Note_off_c, 0, 60, 67
2, 805632, Note_on_c, 0, 46, 67
2, 805696, Note_off_c, 0, 46, 67
2, 805760, Note_off_c, 0, 46, 67
2, 805760, Note_on_c, 0, 58, 67
2, 805824, Note_off_c, 0, 58, 67
2, 805888, Note_off_c, 0, 58, 67
2, 805888, Note_on_c, 0, 50, 67
2, 805952, Note_off_c, 0, 50, 67
2, 806016, Note_off_c, 0, 50, 67
2, 806016, Note_on_c, 0, 62, 67
2, 806080, Note_off_c, 0, 62, 67
2, 806144, Note_off_c, 0, 62, 67
2, 806144, Note_on_c, 0, 48, 67
2, 806208, Note_off_c, 0, 48, 67
2, 806272, Note_off_c, 0, 48, 67
2, 806272, Note_on_c, 0, 60, 67
2, 806336, Note_off_c, 0, 60, 67
2, 806400, Note_off_c, 0, 60, 67
2, 806400, Note_on_c, 0, 46, 67
2, 806464, Note_off_c, 0, 46, 67
2, 806528, Note_off_c, 0, 46, 67
2, 806528, Note_on_c, 0, 58, 67
2, 806592, Note_off_c, 0, 58, 67
2, 806656, Note_off_c, 0, 58, 67
2, 806656, Note_on_c, 0, 48, 67
2, 806720, Note_off_c, 0, 48, 67
2, 806784, Note_off_c, 0, 48, 67
2, 806784, Note_on_c, 0, 60, 67
2, 806848, Note_off_c, 0, 60, 67
2, 806912, Note_off_c, 0, 60, 67
2, 806912, Note_on_c, 0, 50, 67
2, 806976, Note_off_c, 0, 50, 67
2, 807040, Note_off_c, 0, 50, 67
2, 807040, Note_on_c, 0, 62, 67
2, 807104, Note_off_c, 0, 62, 67
2, 807168, Note_off_c, 0, 62, 67
2, 807168, Note_on_c, 0, 46, 67
2, 807232, Note_off_c, 0, 46, 67
2, 807296, Note_off_c, 0, 46, 67
2, 807296, Note_on_c, 0, 58, 67
2, 807360, Note_off_c, 0, 58, 67
2, 807424, Note_off_c, 0, 58, 67
2, 807424, Note_on_c, 0, 51, 67
2, 807488, Note_off_c, 0, 51, 67
2, 807552, Note_off_c, 0, 51, 67
2, 807552, Note_on_c, 0, 63, 67
2, 807616, Note_off_c, 0, 63, 67
2, 807680, Note_off_c, 0, 63, 67
2, 807680, Note_on_c, 0, 46, 67
2, 807744, Note_off_c, 0, 46, 67
2, 807808, Note_off_c, 0, 46, 67
2, 807808, Note_on_c, 0, 58, 67
2, 807872, Note_off_c, 0, 58, 67
2, 807936, Note_off_c, 0, 58, 67
2, 807936, Note_on_c, 0, 39, 67
2, 808000, Note_off_c, 0, 39, 67
2, 808000, Note_on_c, 0, 46, 67
2, 808064, Note_off_c, 0, 46, 67
2, 808064, Note_on_c, 0, 51, 67
2, 808128, Note_off_c, 0, 51, 67
2, 808128, Note_on_c, 0, 53, 67
2, 808192, Note_off_c, 0, 53, 67
2, 808192, Note_on_c, 0, 55, 67
2, 808256, Note_off_c, 0, 55, 67
2, 808256, Note_on_c, 0, 51, 67
2, 808320, Note_off_c, 0, 51, 67
2, 808320, Note_on_c, 0, 58, 67
2, 808384, Note_off_c, 0, 58, 67
2, 808384, Note_on_c, 0, 63, 67
2, 808432, Control_c, 0, 93, 0
2, 808448, Note_off_c, 0, 63, 67
2, 808448, Note_on_c, 0, 44, 67
2, 808512, Note_off_c, 0, 44, 67
2, 808512, Note_on_c, 0, 51, 67
2, 808576, Note_off_c, 0, 51, 67
2, 808576, Note_on_c, 0, 56, 67
2, 808640, Note_off_c, 0, 56, 67
2, 808640, Note_on_c, 0, 58, 67
2, 808704, Note_off_c, 0, 58, 67
2, 808704, Note_on_c, 0, 60, 67
2, 808768, Note_off_c, 0, 60, 67
2, 808768, Note_on_c, 0, 56, 67
2, 808832, Note_off_c, 0, 56, 67
2, 808832, Note_on_c, 0, 63, 67
2, 808896, Note_off_c, 0, 63, 67
2, 808896, Note_on_c, 0, 68, 67
2, 808944, Control_c, 0, 93, 0
2, 808960, Note_off_c, 0, 68, 67
2, 808960, Note_on_c, 0, 46, 67
2, 809024, Note_off_c, 0, 46, 67
2, 809024, Note_on_c, 0, 53, 67
2, 809088, Note_off_c, 0, 53, 67
2, 809088, Note_on_c, 0, 58, 67
2, 809152, Note_off_c, 0, 58, 67
2, 809152, Note_on_c, 0, 60, 67
2, 809216, Note_off_c, 0, 60, 67
2, 809216, Note_on_c, 0, 62, 67
2, 809280, Note_off_c, 0, 62, 67
2, 809280, Note_on_c, 0, 58, 67
2, 809344, Note_off_c, 0, 58, 67
2, 809344, Note_on_c, 0, 65, 67
2, 809408, Note_off_c, 0, 65, 67
2, 809408, Note_on_c, 0, 70, 67
2, 809456, Control_c, 0, 93, 0
2, 809472, Note_off_c, 0, 70, 67
2, 809472, Note_on_c, 0, 41, 67
2, 809536, Note_off_c, 0, 41, 67
2, 809536, Note_on_c, 0, 44, 67
2, 809600, Note_off_c, 0, 44, 67
2, 809600, Control_c, 0, 64, 64
2, 809600, Note_on_c, 0, 50, 67
2, 809621, Note_off_c, 0, 50, 67
2, 809621, Note_on_c, 0, 53, 67
2, 809642, Note_off_c, 0, 53, 67
2, 809642, Note_on_c, 0, 58, 67
2, 809663, Note_off_c, 0, 58, 67
2, 809664, Control_c, 0, 93, 0
2, 809664, Note_on_c, 0, 62, 67
2, 809685, Note_off_c, 0, 62, 67
2, 809685, Note_on_c, 0, 65, 67
2, 809706, Note_off_c, 0, 65, 67
2, 809706, Note_on_c, 0, 70, 67
2, 809728, Control_c, 0, 93, 0
2, 809728, Control_c, 0, 64, 0
2, 809856, Note_off_c, 0, 70, 67
2, 809856, Note_on_c, 0, 51, 67
2, 809920, Note_off_c, 0, 51, 67
2, 809920, Note_on_c, 0, 46, 67
2, 809984, Note_off_c, 0, 46, 67
2, 809984, Note_on_c, 0, 39, 67
2, 810048, Note_off_c, 0, 39, 67
2, 810048, Note_on_c, 0, 46, 67
2, 810112, Note_off_c, 0, 46, 67
2, 810112, Note_on_c, 0, 51, 67
2, 810176, Note_off_c, 0, 51, 67
2, 810176, Note_on_c, 0, 53, 67
2, 810240, Note_off_c, 0, 53, 67
2, 810240, Note_on_c, 0, 55, 67
2, 810304, Note_off_c, 0, 55, 67
2, 810304, Note_on_c, 0, 51, 67
2, 810368, Note_off_c, 0, 51, 67
2, 810368, Note_on_c, 0, 58, 67
2, 810432, Note_off_c, 0, 58, 67
2, 810432, Note_on_c, 0, 63, 67
2, 810480, Control_c, 0, 93, 0
2, 810496, Note_off_c, 0, 63, 67
2, 810496, Note_on_c, 0, 44, 67
2, 810560, Note_off_c, 0, 44, 67
2, 810560, Note_on_c, 0, 51, 67
2, 810624, Note_off_c, 0, 51, 67
2, 810624, Note_on_c, 0, 56, 67
2, 810688, Note_off_c, 0, 56, 67
2, 810688, Note_on_c, 0, 58, 67
2, 810752, Note_off_c, 0, 58, 67
2, 810752, Note_on_c, 0, 60, 67
2, 810816, Note_off_c, 0, 60, 67
2, 810816, Note_on_c, 0, 56, 67
2, 810880, Note_off_c, 0, 56, 67
2, 810880, Note_on_c, 0, 63, 67
2, 810944, Note_off_c, 0, 63, 67
2, 810944, Note_on_c, 0, 68, 67
2, 810992, Control_c, 0, 93, 0
2, 811008, Note_off_c, 0, 68, 67
2, 811008, Note_on_c, 0, 46, 67
2, 811072, Note_off_c, 0, 46, 67
2, 811072, Note_on_c, 0, 53, 67
2, 811136, Note_off_c, 0, 53, 67
2, 811136, Note_on_c, 0, 58, 67
2, 811200, Note_off_c, 0, 58, 67
2, 811200, Note_on_c, 0, 60, 67
2, 811264, Note_off_c, 0, 60, 67
2, 811264, Note_on_c, 0, 62, 67
2, 811328, Note_off_c, 0, 62, 67
2, 811328, Note_on_c, 0, 58, 67
2, 811392, Note_off_c, 0, 58, 67
2, 811392, Note_on_c, 0, 65, 67
2, 811456, Note_off_c, 0, 65, 67
2, 811456, Note_on_c, 0, 70, 67
2, 811504, Control_c, 0, 93, 0
2, 811520, Note_off_c, 0, 70, 67
2, 811520, Note_on_c, 0, 39, 67
2, 811584, Note_off_c, 0, 39, 67
2, 811584, Note_on_c, 0, 46, 67
2, 811648, Note_off_c, 0, 46, 67
2, 811648, Note_on_c, 0, 51, 67
2, 811712, Note_off_c, 0, 51, 67
2, 811712, Control_c, 0, 64, 64
2, 811712, Note_on_c, 0, 55, 67
2, 811722, Note_off_c, 0, 55, 67
2, 811722, Note_on_c, 0, 58, 67
2, 811733, Note_off_c, 0, 58, 67
2, 811733, Note_on_c, 0, 63, 67
2, 811743, Note_off_c, 0, 63, 67
2, 811744, Control_c, 0, 93, 0
2, 811744, Note_on_c, 0, 67, 67
2, 811754, Note_off_c, 0, 67, 67
2, 811754, Note_on_c, 0, 70, 67
2, 811765, Note_off_c, 0, 70, 67
2, 811765, Note_on_c, 0, 75, 67
2, 811775, Note_off_c, 0, 75, 67
2, 811776, Control_c, 0, 93, 0
2, 811904, Control_c, 0, 93, 0
2, 811968, Control_c, 0, 93, 0
2, 811968, Control_c, 0, 64, 0
2, 812032, Control_c, 0, 93, 0
2, 812032, Note_on_c, 0, 51, 67
2, 812096, Note_off_c, 0, 51, 67
2, 812160, Note_off_c, 0, 51, 67
2, 812160, Note_on_c, 0, 63, 67
2, 812224, Note_off_c, 0, 63, 67
2, 812288, Note_off_c, 0, 63, 67
2, 812288, Note_on_c, 0, 50, 67
2, 812352, Note_off_c, 0, 50, 67
2, 812416, Note_off_c, 0, 50, 67
2, 812416, Note_on_c, 0, 62, 67
2, 812480, Note_off_c, 0, 62, 67
2, 812544, Note_off_c, 0, 62, 67
2, 812544, Note_on_c, 0, 48, 67
2, 812608, Note_off_c, 0, 48, 67
2, 812672, Note_off_c, 0, 48, 67
2, 812672, Note_on_c, 0, 60, 67
2, 812736, Note_off_c, 0, 60, 67
2, 812800, Note_off_c, 0, 60, 67
2, 812800, Note_on_c, 0, 46, 67
2, 812864, Note_off_c, 0, 46, 67
2, 812928, Note_off_c, 0, 46, 67
2, 812928, Note_on_c, 0, 58, 67
2, 812992, Note_off_c, 0, 58, 67
2, 813056, Note_off_c, 0, 58, 67
2, 813056, Note_on_c, 0, 51, 67
2, 813120, Note_off_c, 0, 51, 67
2, 813184, Note_off_c, 0, 51, 67
2, 813184, Note_on_c, 0, 63, 67
2, 813248, Note_off_c, 0, 63, 67
2, 813312, Note_off_c, 0, 63, 67
2, 813312, Note_on_c, 0, 46, 67
2, 813376, Note_off_c, 0, 46, 67
2, 813440, Note_off_c, 0, 46, 67
2, 813440, Note_on_c, 0, 58, 67
2, 813504, Note_off_c, 0, 58, 67
2, 813568, Note_off_c, 0, 58, 67
2, 813568, Note_on_c, 0, 48, 67
2, 813632, Note_off_c, 0, 48, 67
2, 813696, Note_off_c, 0, 48, 67
2, 813696, Note_on_c, 0, 60, 67
2, 813760, Note_off_c, 0, 60, 67
2, 813824, Note_off_c, 0, 60, 67
2, 813824, Note_on_c, 0, 46, 67
2, 813888, Note_off_c, 0, 46, 67
2, 813952, Note_off_c, 0, 46, 67
2, 813952, Note_on_c, 0, 58, 67
2, 814016, Note_off_c, 0, 58, 67
2, 814080, Note_off_c, 0, 58, 67
2, 814080, Note_on_c, 0, 50, 67
2, 814144, Note_off_c, 0, 50, 67
2, 814208, Note_off_c, 0, 50, 67
2, 814208, Note_on_c, 0, 62, 67
2, 814272, Note_off_c, 0, 62, 67
2, 814336, Note_off_c, 0, 62, 67
2, 814336, Note_on_c, 0, 46, 67
2, 814400, Note_off_c, 0, 46, 67
2, 814464, Note_off_c, 0, 46, 67
2, 814464, Note_on_c, 0, 58, 67
2, 814528, Note_off_c, 0, 58, 67
2, 814592, Note_off_c, 0, 58, 67
2, 814592, Note_on_c, 0, 48, 67
2, 814656, Note_off_c, 0, 48, 67
2, 814720, Note_off_c, 0, 48, 67
2, 814720, Note_on_c, 0, 60, 67
2, 814784, Note_off_c, 0, 60, 67
2, 814848, Note_off_c, 0, 60, 67
2, 814848, Note_on_c, 0, 49, 67
2, 814912, Note_off_c, 0, 49, 67
2, 814976, Note_off_c, 0, 49, 67
2, 814976, Note_on_c, 0, 61, 67
2, 815040, Note_off_c, 0, 61, 67
2, 815104, Note_off_c, 0, 61, 67
2, 815104, Note_on_c, 0, 50, 67
2, 815168, Note_off_c, 0, 50, 67
2, 815232, Note_off_c, 0, 50, 67
2, 815232, Note_on_c, 0, 62, 67
2, 815296, Note_off_c, 0, 62, 67
2, 815360, Note_off_c, 0, 62, 67
2, 815360, Note_on_c, 0, 46, 67
2, 815424, Note_off_c, 0, 46, 67
2, 815488, Note_off_c, 0, 46, 67
2, 815488, Note_on_c, 0, 58, 67
2, 815552, Note_off_c, 0, 58, 67
2, 815616, Note_off_c, 0, 58, 67
2, 815616, Note_on_c, 0, 51, 67
2, 815680, Note_off_c, 0, 51, 67
2, 815744, Note_off_c, 0, 51, 67
2, 815744, Note_on_c, 0, 63, 67
2, 815808, Note_off_c, 0, 63, 67
2, 815872, Note_off_c, 0, 63, 67
2, 815872, Note_on_c, 0, 46, 67
2, 815936, Note_off_c, 0, 46, 67
2, 816000, Note_off_c, 0, 46, 67
2, 816000, Note_on_c, 0, 58, 67
2, 816064, Note_off_c, 0, 58, 67
2, 816128, Note_off_c, 0, 58, 67
2, 816128, Note_on_c, 0, 51, 67
2, 816192, Note_off_c, 0, 51, 67
2, 816256, Note_off_c, 0, 51, 67
2, 816256, Note_on_c, 0, 63, 67
2, 816320, Note_off_c, 0, 63, 67
2, 816384, Note_off_c, 0, 63, 67
2, 816384, Note_on_c, 0, 50, 67
2, 816448, Note_off_c, 0, 50, 67
2, 816512, Note_off_c, 0, 50, 67
2, 816512, Note_on_c, 0, 62, 67
2, 816576, Note_off_c, 0, 62, 67
2, 816640, Note_off_c, 0, 62, 67
2, 816640, Note_on_c, 0, 48, 67
2, 816704, Note_off_c, 0, 48, 67
2, 816768, Note_off_c, 0, 48, 67
2, 816768, Note_on_c, 0, 60, 67
2, 816832, Note_off_c, 0, 60, 67
2, 816896, Note_off_c, 0, 60, 67
2, 816896, Note_on_c, 0, 46, 67
2, 816960, Note_off_c, 0, 46, 67
2, 817024, Note_off_c, 0, 46, 67
2, 817024, Note_on_c, 0, 58, 67
2, 817088, Note_off_c, 0, 58, 67
2, 817152, Note_off_c, 0, 58, 67
2, 817152, Note_on_c, 0, 51, 67
2, 817216, Note_off_c, 0, 51, 67
2, 817280, Note_off_c, 0, 51, 67
2, 817280, Note_on_c, 0, 63, 67
2, 817344, Note_off_c, 0, 63, 67
2, 817408, Note_off_c, 0, 63, 67
2, 817408, Note_on_c, 0, 46, 67
2, 817472, Note_off_c, 0, 46, 67
2, 817536, Note_off_c, 0, 46, 67
2, 817536, Note_on_c, 0, 58, 67
2, 817600, Note_off_c, 0, 58, 67
2, 817664, Note_off_c, 0, 58, 67
2, 817664, Note_on_c, 0, 48, 67
2, 817728, Note_off_c, 0, 48, 67
2, 817792, Note_off_c, 0, 48, 67
2, 817792, Note_on_c, 0, 60, 67
2, 817856, Note_off_c, 0, 60, 67
2, 817920, Note_off_c, 0, 60, 67
2, 817920, Note_on_c, 0, 46, 67
2, 817984, Note_off_c, 0, 46, 67
2, 818048, Note_off_c, 0, 46, 67
2, 818048, Note_on_c, 0, 58, 67
2, 818112, Note_off_c, 0, 58, 67
2, 818176, Note_off_c, 0, 58, 67
2, 818176, Note_on_c, 0, 50, 67
2, 818240, Note_off_c, 0, 50, 67
2, 818304, Note_off_c, 0, 50, 67
2, 818304, Note_on_c, 0, 62, 67
2, 818368, Note_off_c, 0, 62, 67
2, 818432, Note_off_c, 0, 62, 67
2, 818432, Note_on_c, 0, 48, 67
2, 818496, Note_off_c, 0, 48, 67
2, 818560, Note_off_c, 0, 48, 67
2, 818560, Note_on_c, 0, 60, 67
2, 818624, Note_off_c, 0, 60, 67
2, 818688, Note_off_c, 0, 60, 67
2, 818688, Note_on_c, 0, 46, 67
2, 818752, Note_off_c, 0, 46, 67
2, 818816, Note_off_c, 0, 46, 67
2, 818816, Note_on_c, 0, 58, 67
2, 818880, Note_off_c, 0, 58, 67
2, 818944, Note_off_c, 0, 58, 67
2, 818944, Note_on_c, 0, 48, 67
2, 819008, Note_off_c, 0, 48, 67
2, 819072, Note_off_c, 0, 48, 67
2, 819072, Note_on_c, 0, 60, 67
2, 819136, Note_off_c, 0, 60, 67
2, 819200, Note_off_c, 0, 60, 67
2, 819200, Note_on_c, 0, 50, 67
2, 819264, Note_off_c, 0, 50, 67
2, 819328, Note_off_c, 0, 50, 67
2, 819328, Note_on_c, 0, 62, 67
2, 819392, Note_off_c, 0, 62, 67
2, 819456, Note_off_c, 0, 62, 67
2, 819456, Note_on_c, 0, 46, 67
2, 819520, Note_off_c, 0, 46, 67
2, 819584, Note_off_c, 0, 46, 67
2, 819584, Note_on_c, 0, 58, 67
2, 819648, Note_off_c, 0, 58, 67
2, 819712, Note_off_c, 0, 58, 67
2, 819712, Note_on_c, 0, 51, 67
2, 819776, Note_off_c, 0, 51, 67
2, 819840, Note_off_c, 0, 51, 67
2, 819840, Note_on_c, 0, 63, 67
2, 819904, Note_off_c, 0, 63, 67
2, 819968, Note_off_c, 0, 63, 67
2, 819968, Note_on_c, 0, 46, 67
2, 820032, Note_off_c, 0, 46, 67
2, 820096, Note_off_c, 0, 46, 67
2, 820096, Note_on_c, 0, 58, 67
2, 820160, Note_off_c, 0, 58, 67
2, 820224, Note_off_c, 0, 58, 67
2, 820224, Note_on_c, 0, 39, 67
2, 820288, Note_off_c, 0, 39, 67
2, 820288, Note_on_c, 0, 46, 67
2, 820352, Note_off_c, 0, 46, 67
2, 820352, Note_on_c, 0, 51, 67
2, 820416, Note_off_c, 0, 51, 67
2, 820416, Note_on_c, 0, 53, 67
2, 820480, Note_off_c, 0, 53, 67
2, 820480, Note_on_c, 0, 55, 67
2, 820544, Note_off_c, 0, 55, 67
2, 820544, Note_on_c, 0, 51, 67
2, 820608, Note_off_c, 0, 51, 67
2, 820608, Note_on_c, 0, 58, 67
2, 820672, Note_off_c, 0, 58, 67
2, 820672, Note_on_c, 0, 63, 67
2, 820720, Control_c, 0, 93, 0
2, 820736, Note_off_c, 0, 63, 67
2, 820736, Note_on_c, 0, 44, 67
2, 820800, Note_off_c, 0, 44, 67
2, 820800, Note_on_c, 0, 51, 67
2, 820864, Note_off_c, 0, 51, 67
2, 820864, Note_on_c, 0, 56, 67
2, 820928, Note_off_c, 0, 56, 67
2, 820928, Note_on_c, 0, 58, 67
2, 820992, Note_off_c, 0, 58, 67
2, 820992, Note_on_c, 0, 60, 67
2, 821056, Note_off_c, 0, 60, 67
2, 821056, Note_on_c, 0, 56, 67
2, 821120, Note_off_c, 0, 56, 67
2, 821120, Note_on_c, 0, 63, 67
2, 821184, Note_off_c, 0, 63, 67
2, 821184, Note_on_c, 0, 68, 67
2, 821232, Control_c, 0, 93, 0
2, 821248, Note_off_c, 0, 68, 67
2, 821248, Note_on_c, 0, 46, 67
2, 821312, Note_off_c, 0, 46, 67
2, 821312, Note_on_c, 0, 53, 67
2, 821376, Note_off_c, 0, 53, 67
2, 821376, Note_on_c, 0, 58, 67
2, 821440, Note_off_c, 0, 58, 67
2, 821440, Note_on_c, 0, 60, 67
2, 821504, Note_off_c, 0, 60, 67
2, 821504, Note_on_c, 0, 62, 67
2, 821568, Note_off_c, 0, 62, 67
2, 821568, Note_on_c, 0, 58, 67
2, 821632, Note_off_c, 0, 58, 67
2, 821632, Note_on_c, 0, 65, 67
2, 821696, Note_off_c, 0, 65, 67
2, 821696, Note_on_c, 0, 70, 67
2, 821744, Control_c, 0, 93, 0
2, 821760, Note_off_c, 0, 70, 67
2, 821760, Note_on_c, 0, 41, 67
2, 821824, Note_off_c, 0, 41, 67
2, 821824, Note_on_c, 0, 44, 67
2, 821888, Note_off_c, 0, 44, 67
2, 821888, Control_c, 0, 64, 64
2, 821888, Note_on_c, 0, 50, 67
2, 821909, Note_off_c, 0, 50, 67
2, 821909, Note_on_c, 0, 53, 67
2, 821930, Note_off_c, 0, 53, 67
2, 821930, Note_on_c, 0, 58, 67
2, 821951, Note_off_c, 0, 58, 67
2, 821952, Control_c, 0, 93, 0
2, 821952, Note_on_c, 0, 62, 67
2, 821973, Note_off_c, 0, 62, 67
2, 821973, Note_on_c, 0, 65, 67
2, 821994, Note_off_c, 0, 65, 67
2, 821994, Note_on_c, 0, 70, 67
2, 822016, Control_c, 0, 93, 0
2, 822016, Control_c, 0, 64, 0
2, 822144, Note_off_c, 0, 70, 67
2, 822144, Note_on_c, 0, 51, 67
2, 822208, Note_off_c, 0, 51, 67
2, 822208, Note_on_c, 0, 46, 67
2, 822272, Note_off_c, 0, 46, 67
2, 822272, Note_on_c, 0, 39, 67
2, 822336, Note_off_c, 0, 39, 67
2, 822336, Note_on_c, 0, 46, 67
2, 822400, Note_off_c, 0, 46, 67
2, 822400, Note_on_c, 0, 51, 67
2, 822464, Note_off_c, 0, 51, 67
2, 822464, Note_on_c, 0, 53, 67
2, 822528, Note_off_c, 0, 53, 67
2, 822528, Note_on_c, 0, 55, 67
2, 822592, Note_off_c, 0, 55, 67
2, 822592, Note_on_c, 0, 51, 67
2, 822656, Note_off_c, 0, 51, 67
2, 822656, Note_on_c, 0, 58, 67
2, 822720, Note_off_c, 0, 58, 67
2, 822720, Note_on_c, 0, 63, 67
2, 822768, Control_c, 0, 93, 0
2, 822784, Note_off_c, 0, 63, 67
2, 822784, Note_on_c, 0, 44, 67
2, 822848, Note_off_c, 0, 44, 67
2, 822848, Note_on_c, 0, 51, 67
2, 822912, Note_off_c, 0, 51, 67
2, 822912, Note_on_c, 0, 56, 67
2, 822976, Note_off_c, 0, 56, 67
2, 822976, Note_on_c, 0, 58, 67
2, 823040, Note_off_c, 0, 58, 67
2, 823040, Note_on_c, 0, 60, 67
2, 823104, Note_off_c, 0, 60, 67
2, 823104, Note_on_c, 0, 56, 67
2, 823168, Note_off_c, 0, 56, 67
2, 823168, Note_on_c, 0, 63, 67
2, 823232, Note_off_c, 0, 63, 67
2, 823232, Note_on_c, 0, 68, 67
2, 823280, Control_c, 0, 93, 0
2, 823296, Note_off_c, 0, 68, 67
2, 823296, Note_on_c, 0, 46, 67
2, 823360, Note_off_c, 0, 46, 67
2, 823360, Note_on_c, 0, 53, 67
2, 823424, Note_off_c, 0, 53, 67
2, 823424, Note_on_c, 0, 58, 67
2, 823488, Note_off_c, 0, 58, 67
2, 823488, Note_on_c, 0, 60, 67
2, 823552, Note_off_c, 0, 60, 67
2, 823552, Note_on_c, 0, 62, 67
2, 823616, Note_off_c, 0, 62, 67
2, 823616, Note_on_c, 0, 58, 67
2, 823680, Note_off_c, 0, 58, 67
2, 823680, Note_on_c, 0, 65, 67
2, 823744, Note_off_c, 0, 65, 67
2, 823744, Note_on_c, 0, 70, 67
2, 823792, Control_c, 0, 93, 0
2, 823808, Note_off_c, 0, 70, 67
2, 823808, Note_on_c, 0, 39, 67
2, 823872, Note_off_c, 0, 39, 67
2, 823872, Note_on_c, 0, 46, 67
2, 823936, Note_off_c, 0, 46, 67
2, 823936, Note_on_c, 0, 51, 67
2, 824000, Note_off_c, 0, 51, 67
2, 824000, Control_c, 0, 64, 64
2, 824000, Note_on_c, 0, 55, 67
2, 824010, Note_off_c, 0, 55, 67
2, 824010, Note_on_c, 0, 58, 67
2, 824021, Note_off_c, 0, 58, 67
2, 824021, Note_on_c, 0, 63, 67
2, 824031, Note_off_c, 0, 63, 67
2, 824032, Control_c, 0, 93, 0
2, 824032, Note_on_c, 0, 67, 67
2, 824042, Note_off_c, 0, 67, 67
2, 824042, Note_on_c, 0, 70, 67
2, 824053, Note_off_c, 0, 70, 67
2, 824053, Note_on_c, 0, 75, 67
2, 824063, Note_off_c, 0, 75, 67
2, 824064, Control_c, 0, 93, 0
2, 824192, Control_c, 0, 93, 0
2, 824256, Control_c, 0, 93, 0
2, 824256, Control_c, 0, 64, 0
2, 824320, Control_c, 0, 93, 0
2, 824320, Note_on_c, 0, 51, 67
2, 824384, Note_off_c, 0, 51, 67
2, 824448, Note_off_c, 0, 51, 67
2, 824448, Note_on_c, 0, 63, 67
2, 824512, Note_off_c, 0, 63, 67
2, 824576, Note_off_c, 0, 63, 67
2, 824576, Note_on_c, 0, 50, 67
2, 824640, Note_off_c, 0, 50, 67
2, 824704, Note_off_c, 0, 50, 67
2, 824704, Note_on_c, 0, 62, 67
2, 824768, Note_off_c, 0, 62, 67
2, 824832, Note_off_c, 0, 62, 67
2, 824832, Note_on_c, 0, 48, 67
2, 824896, Note_off_c, 0, 48, 67
2, 824960, Note_off_c, 0, 48, 67
2, 824960, Note_on_c, 0, 60, 67
2, 825024, Note_off_c, 0, 60, 67
2, 825088, Note_off_c, 0, 60, 67
2, 825088, Note_on_c, 0, 46, 67
2, 825152, Note_off_c, 0, 46, 67
2, 825216, Note_off_c, 0, 46, 67
2, 825216, Note_on_c, 0, 58, 67
2, 825280, Note_off_c, 0, 58, 67
2, 825344, Note_off_c, 0, 58, 67
2, 825344, Note_on_c, 0, 51, 67
2, 825408, Note_off_c, 0, 51, 67
2, 825472, Note_off_c, 0, 51, 67
2, 825472, Note_on_c, 0, 63, 67
2, 825536, Note_off_c, 0, 63, 67
2, 825600, Note_off_c, 0, 63, 67
2, 825600, Note_on_c, 0, 46, 67
2, 825664, Note_off_c, 0, 46, 67
2, 825728, Note_off_c, 0, 46, 67
2, 825728, Note_on_c, 0, 58, 67
2, 825792, Note_off_c, 0, 58, 67
2, 825856, Note_off_c, 0, 58, 67
2, 825856, Note_on_c, 0, 48, 67
2, 825920, Note_off_c, 0, 48, 67
2, 825984, Note_off_c, 0, 48, 67
2, 825984, Note_on_c, 0, 60, 67
2, 826048, Note_off_c, 0, 60, 67
2, 826112, Note_off_c, 0, 60, 67
2, 826112, Note_on_c, 0, 46, 67
2, 826176, Note_off_c, 0, 46, 67
2, 826240, Note_off_c, 0, 46, 67
2, 826240, Note_on_c, 0, 58, 67
2, 826304, Note_off_c, 0, 58, 67
2, 826368, Note_off_c, 0, 58, 67
2, 826368, Note_on_c, 0, 50, 67
2, 826432, Note_off_c, 0, 50, 67
2, 826496, Note_off_c, 0, 50, 67
2, 826496, Note_on_c, 0, 62, 67
2, 826560, Note_off_c, 0, 62, 67
2, 826624, Note_off_c, 0, 62, 67
2, 826624, Note_on_c, 0, 46, 67
2, 826688, Note_off_c, 0, 46, 67
2, 826752, Note_off_c, 0, 46, 67
2, 826752, Note_on_c, 0, 58, 67
2, 826816, Note_off_c, 0, 58, 67
2, 826880, Note_off_c, 0, 58, 67
2, 826880, Note_on_c, 0, 48, 67
2, 826944, Note_off_c, 0, 48, 67
2, 827008, Note_off_c, 0, 48, 67
2, 827008, Note_on_c, 0, 60, 67
2, 827072, Note_off_c, 0, 60, 67
2, 827136, Note_off_c, 0, 60, 67
2, 827136, Note_on_c, 0, 49, 67
2, 827200, Note_off_c, 0, 49, 67
2, 827264, Note_off_c, 0, 49, 67
2, 827264, Note_on_c, 0, 61, 67
2, 827328, Note_off_c, 0, 61, 67
2, 827392, Note_off_c, 0, 61, 67
2, 827392, Note_on_c, 0, 50, 67
2, 827456, Note_off_c, 0, 50, 67
2, 827520, Note_off_c, 0, 50, 67
2, 827520, Note_on_c, 0, 62, 67
2, 827584, Note_off_c, 0, 62, 67
2, 827648, Note_off_c, 0, 62, 67
2, 827648, Note_on_c, 0, 46, 67
2, 827712, Note_off_c, 0, 46, 67
2, 827776, Note_off_c, 0, 46, 67
2, 827776, Note_on_c, 0, 58, 67
2, 827840, Note_off_c, 0, 58, 67
2, 827904, Note_off_c, 0, 58, 67
2, 827904, Note_on_c, 0, 51, 67
2, 827968, Note_off_c, 0, 51, 67
2, 828032, Note_off_c, 0, 51, 67
2, 828032, Note_on_c, 0, 63, 67
2, 828096, Note_off_c, 0, 63, 67
2, 828160, Note_off_c, 0, 63, 67
2, 828160, Note_on_c, 0, 46, 67
2, 828224, Note_off_c, 0, 46, 67
2, 828288, Note_off_c, 0, 46, 67
2, 828288, Note_on_c, 0, 58, 67
2, 828352, Note_off_c, 0, 58, 67
2, 828416, Note_off_c, 0, 58, 67
2, 828416, Note_on_c, 0, 51, 67
2, 828480, Note_off_c, 0, 51, 67
2, 828544, Note_off_c, 0, 51, 67
2, 828544, Note_on_c, 0, 63, 67
2, 828608, Note_off_c, 0, 63, 67
2, 828672, Note_off_c, 0, 63, 67
2, 828672, Note_on_c, 0, 50, 67
2, 828736, Note_off_c, 0, 50, 67
2, 828800, Note_off_c, 0, 50, 67
2, 828800, Note_on_c, 0, 62, 67
2, 828864, Note_off_c, 0, 62, 67
2, 828928, Note_off_c, 0, 62, 67
2, 828928, Note_on_c, 0, 48, 67
2, 828992, Note_off_c, 0, 48, 67
2, 829056, Note_off_c, 0, 48, 67
2, 829056, Note_on_c, 0, 60, 67
2, 829120, Note_off_c, 0, 60, 67
2, 829184, Note_off_c, 0, 60, 67
2, 829184, Note_on_c, 0, 46, 67
2, 829248, Note_off_c, 0, 46, 67
2, 829312, Note_off_c, 0, 46, 67
2, 829312, Note_on_c, 0, 58, 67
2, 829376, Note_off_c, 0, 58, 67
2, 829440, Note_off_c, 0, 58, 67
2, 829440, Note_on_c, 0, 51, 67
2, 829504, Note_off_c, 0, 51, 67
2, 829568, Note_off_c, 0, 51, 67
2, 829568, Note_on_c, 0, 63, 67
2, 829632, Note_off_c, 0, 63, 67
2, 829696, Note_off_c, 0, 63, 67
2, 829696, Note_on_c, 0, 46, 67
2, 829760, Note_off_c, 0, 46, 67
2, 829824, Note_off_c, 0, 46, 67
2, 829824, Note_on_c, 0, 58, 67
2, 829888, Note_off_c, 0, 58, 67
2, 829952, Note_off_c, 0, 58, 67
2, 829952, Note_on_c, 0, 48, 67
2, 830016, Note_off_c, 0, 48, 67
2, 830080, Note_off_c, 0, 48, 67
2, 830080, Note_on_c, 0, 60, 67
2, 830144, Note_off_c, 0, 60, 67
2, 830208, Note_off_c, 0, 60, 67
2, 830208, Note_on_c, 0, 46, 67
2, 830272, Note_off_c, 0, 46, 67
2, 830336, Note_off_c, 0, 46, 67
2, 830336, Note_on_c, 0, 58, 67
2, 830400, Note_off_c, 0, 58, 67
2, 830464, Note_off_c, 0, 58, 67
2, 830464, Note_on_c, 0, 50, 67
2, 830528, Note_off_c, 0, 50, 67
2, 830592, Note_off_c, 0, 50, 67
2, 830592, Note_on_c, 0, 62, 67
2, 830656, Note_off_c, 0, 62, 67
2, 830720, Note_off_c, 0, 62, 67
2, 830720, Note_on_c, 0, 48, 67
2, 830784, Note_off_c, 0, 48, 67
2, 830848, Note_off_c, 0, 48, 67
2, 830848, Note_on_c, 0, 60, 67
2, 830912, Note_off_c, 0, 60, 67
2, 830976, Note_off_c, 0, 60, 67
2, 830976, Note_on_c, 0, 46, 67
2, 831040, Note_off_c, 0, 46, 67
2, 831104, Note_off_c, 0, 46, 67
2, 831104, Note_on_c, 0, 58, 67
2, 831168, Note_off_c, 0, 58, 67
2, 831232, Note_off_c, 0, 58, 67
2, 831232, Note_on_c, 0, 48, 67
2, 831296, Note_off_c, 0, 48, 67
2, 831360, Note_off_c, 0, 48, 67
2, 831360, Note_on_c, 0, 60, 67
2, 831424, Note_off_c, 0, 60, 67
2, 831488, Note_off_c, 0, 60, 67
2, 831488, Note_on_c, 0, 50, 67
2, 831552, Note_off_c, 0, 50, 67
2, 831616, Note_off_c, 0, 50, 67
2, 831616, Note_on_c, 0, 62, 67
2, 831680, Note_off_c, 0, 62, 67
2, 831744, Note_off_c, 0, 62, 67
2, 831744, Note_on_c, 0, 46, 67
2, 831808, Note_off_c, 0, 46, 67
2, 831872, Note_off_c, 0, 46, 67
2, 831872, Note_on_c, 0, 58, 67
2, 831936, Note_off_c, 0, 58, 67
2, 832000, Note_off_c, 0, 58, 67
2, 832000, Note_on_c, 0, 51, 67
2, 832064, Note_off_c, 0, 51, 67
2, 832128, Note_off_c, 0, 51, 67
2, 832128, Note_on_c, 0, 63, 67
2, 832192, Note_off_c, 0, 63, 67
2, 832256, Note_off_c, 0, 63, 67
2, 832256, Note_on_c, 0, 46, 67
2, 832320, Note_off_c, 0, 46, 67
2, 832384, Note_off_c, 0, 46, 67
2, 832384, Note_on_c, 0, 58, 67
2, 832448, Note_off_c, 0, 58, 67
2, 832512, Note_off_c, 0, 58, 67
2, 832512, Note_on_c, 0, 39, 67
2, 832576, Note_off_c, 0, 39, 67
2, 832576, Note_on_c, 0, 46, 67
2, 832640, Note_off_c, 0, 46, 67
2, 832640, Note_on_c, 0, 51, 67
2, 832704, Note_off_c, 0, 51, 67
2, 832704, Note_on_c, 0, 53, 67
2, 832768, Note_off_c, 0, 53, 67
2, 832768, Note_on_c, 0, 55, 67
2, 832832, Note_off_c, 0, 55, 67
2, 832832, Note_on_c, 0, 51, 67
2, 832896, Note_off_c, 0, 51, 67
2, 832896, Note_on_c, 0, 58, 67
2, 832960, Note_off_c, 0, 58, 67
2, 832960, Note_on_c, 0, 63, 67
2, 833008, Control_c, 0, 93, 0
2, 833024, Note_off_c, 0, 63, 67
2, 833024, Note_on_c, 0, 44, 67
2, 833088, Note_off_c, 0, 44, 67
2, 833088, Note_on_c, 0, 51, 67
2, 833152, Note_off_c, 0, 51, 67
2, 833152, Note_on_c, 0, 56, 67
2, 833216, Note_off_c, 0, 56, 67
2, 833216, Note_on_c, 0, 58, 67
2, 833280, Note_off_c, 0, 58, 67
2, 833280, Note_on_c, 0, 60, 67
2, 833344, Note_off_c, 0, 60, 67
2, 833344, Note_on_c, 0, 56, 67
2, 833408, Note_off_c, 0, 56, 67
2, 833408, Note_on_c, 0, 63, 67
2, 833472, Note_off_c, 0, 63, 67
2, 833472, Note_on_c, 0, 68, 67
2, 833520, Control_c, 0, 93, 0
2, 833536, Note_off_c, 0, 68, 67
2, 833536, Note_on_c, 0, 46, 67
2, 833600, Note_off_c, 0, 46, 67
2, 833600, Note_on_c, 0, 53, 67
2, 833664, Note_off_c, 0, 53, 67
2, 833664, Note_on_c, 0, 58, 67
2, 833728, Note_off_c, 0, 58, 67
2, 833728, Note_on_c, 0, 60, 67
2, 833792, Note_off_c, 0, 60, 67
2, 833792, Note_on_c, 0, 62, 67
2, 833856, Note_off_c, 0, 62, 67
2, 833856, Note_on_c, 0, 58, 67
2, 833920, Note_off_c, 0, 58, 67
2, 833920, Note_on_c, 0, 65, 67
2, 833984, Note_off_c, 0, 65, 67
2, 833984, Note_on_c, 0, 70, 67
2, 834032, Control_c, 0, 93, 0
2, 834048, Note_off_c, 0, 70, 67
2, 834048, Note_on_c, 0, 41, 67
2, 834112, Note_off_c, 0, 41, 67
2, 834112, Note_on_c, 0, 44, 67
2, 834176, Note_off_c, 0, 44, 67
2, 834176, Control_c, 0, 64, 64
2, 834176, Note_on_c, 0, 50, 67
2, 834197, Note_off_c, 0, 50, 67
2, 834197, Note_on_c, 0, 53, 67
2, 834218, Note_off_c, 0, 53, 67
2, 834218, Note_on_c, 0, 58, 67
2, 834239, Note_off_c, 0, 58, 67
2, 834240, Control_c, 0, 93, 0
2, 834240, Note_on_c, 0, 62, 67
2, 834261, Note_off_c, 0, 62, 67
2, 834261, Note_on_c, 0, 65, 67
2, 834282, Note_off_c, 0, 65, 67
2, 834282, Note_on_c, 0, 70, 67
2, 834304, Control_c, 0, 93, 0
2, 834304, Control_c, 0, 64, 0
2, 834432, Note_off_c, 0, 70, 67
2, 834432, Note_on_c, 0, 51, 67
2, 834496, Note_off_c, 0, 51, 67
2, 834496, Note_on_c, 0, 46, 67
2, 834560, Note_off_c, 0, 46, 67
2, 834560, Note_on_c, 0, 39, 67
2, 834624, Note_off_c, 0, 39, 67
2, 834624, Note_on_c, 0, 46, 67
2, 834688, Note_off_c, 0, 46, 67
2, 834688, Note_on_c, 0, 51, 67
2, 834752, Note_off_c, 0, 51, 67
2, 834752, Note_on_c, 0, 53, 67
2, 834816, Note_off_c, 0, 53, 67
2, 834816, Note_on_c, 0, 55, 67
2, 834880, Note_off_c, 0, 55, 67
2, 834880, Note_on_c, 0, 51, 67
2, 834944, Note_off_c, 0, 51, 67
2, 834944, Note_on_c, 0, 58, 67
2, 835008, Note_off_c, 0, 58, 67
2, 835008, Note_on_c, 0, 63, 67
2, 835056, Control_c, 0, 93, 0
2, 835072, Note_off_c, 0, 63, 67
2, 835072, Note_on_c, 0, 44, 67
2, 835136, Note_off_c, 0, 44, 67
2, 835136, Note_on_c, 0, 51, 67
2, 835200, Note_off_c, 0, 51, 67
2, 835200, Note_on_c, 0, 56, 67
2, 835264, Note_off_c, 0, 56, 67
2, 835264, Note_on_c, 0, 58, 67
2, 835328, Note_off_c, 0, 58, 67
2, 835328, Note_on_c, 0, 60, 67
2, 835392, Note_off_c, 0, 60, 67
2, 835392, Note_on_c, 0, 56, 67
2, 835456, Note_off_c, 0, 56, 67
2, 835456, Note_on_c, 0, 63, 67
2, 835520, Note_off_c, 0, 63, 67
2, 835520, Note_on_c, 0, 68, 67
2, 835568, Control_c, 0, 93, 0
2, 835584, Note_off_c, 0, 68, 67
2, 835584, Note_on_c, 0, 46, 67
2, 835648, Note_off_c, 0, 46, 67
2, 835648, Note_on_c, 0, 53, 67
2, 835712, Note_off_c, 0, 53, 67
2, 835712, Note_on_c, 0, 58, 67
2, 835776, Note_off_c, 0, 58, 67
2, 835776, Note_on_c, 0, 60, 67
2, 835840, Note_off_c, 0, 60, 67
2, 835840, Note_on_c, 0, 62, 67
2, 835904, Note_off_c, 0, 62, 67
2, 835904, Note_on_c, 0, 58, 67
2, 835968, Note_off_c, 0, 58, 67
2, 835968, Note_on_c, 0, 65, 67
2, 836032, Note_off_c, 0, 65, 67
2, 836032, Note_on_c, 0, 70, 67
2, 836080, Control_c, 0, 93, 0
2, 836096, Note_off_c, 0, 70, 67
2, 836096, Note_on_c, 0, 39, 67
2, 836160, Note_off_c, 0, 39, 67
2, 836160, Note_on_c, 0, 46, 67
2, 836224, Note_off_c, 0, 46, 67
2, 836224, Note_on_c, 0, 51, 67
2, 836288, Note_off_c, 0, 51, 67
2, 836288, Control_c, 0, 64, 64
2, 836288, Note_on_c, 0, 55, 67
2, 836298, Note_off_c, 0, 55, 67
2, 836298, Note_on_c, 0, 58, 67
2, 836309, Note_off_c, 0, 58, 67
2, 836309, Note_on_c, 0, 63, 67
2, 836319, Note_off_c, 0, 63, 67
2, 836320, Control_c, 0, 93, 0
2, 836320, Note_on_c, 0, 67, 67
2, 836330, Note_off_c, 0, 67, 67
2, 836330, Note_on_c, 0, 70, 67
2, 836341, Note_off_c, 0, 70, 67
2, 836341, Note_on_c, 0, 75, 67
2, 836351, Note_off_c, 0, 75, 67
2, 836352, Control_c, 0, 93, 0
2, 836480, Control_c, 0, 93, 0
2, 836544, Control_c, 0, 93, 0
2, 836544, Control_c, 0, 64, 0
2, 836608, Control_c, 0, 93, 0
2, 836608, Note_on_c, 0, 51, 67
2, 836672, Note_off_c, 0, 51, 67
2, 836736, Note_off_c, 0, 51, 67
2, 836736, Note_on_c, 0, 63, 67
2, 836800, Note_off_c, 0, 63, 67
2, 836864, Note_off_c, 0, 63, 67
2, 836864, Note_on_c, 0, 50, 67
2, 836928, Note_off_c, 0, 50, 67
2, 836992, Note_off_c, 0, 50, 67
2, 836992, Note_on_c, 0, 62, 67
2, 837056, Note_off_c, 0, 62, 67
2, 837120, Note_off_c, 0, 62, 67
2, 837120, Note_on_c, 0, 48, 67
2, 837184, Note_off_c, 0, 48, 67
2, 837248, Note_off_c, 0, 48, 67
2, 837248, Note_on_c, 0, 60, 67
2, 837312, Note_off_c, 0, 60, 67
2, 837376, Note_off_c, 0, 60, 67
2, 837376, Note_on_c, 0, 46, 67
2, 837440, Note_off_c, 0, 46, 67
2, 837504, Note_off_c, 0, 46, 67
2, 837504, Note_on_c, 0, 58, 67
2, 837568, Note_off_c, 0, 58, 67
2, 837632, Note_off_c, 0, 58, 67
2, 837632, Note_on_c, 0, 51, 67
2, 837696, Note_off_c, 0, 51, 67
2, 837760, Note_off_c, 0, 51, 67
2, 837760, Note_on_c, 0, 63, 67
2, 837824, Note_off_c, 0, 63, 67
2, 837888, Note_off_c, 0, 63, 67
2, 837888, Note_on_c, 0, 46, 67
2, 837952, Note_off_c, 0, 46, 67
2, 838016, Note_off_c, 0, 46, 67
2, 838016, Note_on_c, 0, 58, 67
2, 838080, Note_off_c, 0, 58, 67
2, 838144, Note_off_c, 0, 58, 67
2, 838144, Note_on_c, 0, 48, 67
2, 838208, Note_off_c, 0, 48, 67
2, 838272, Note_off_c, 0, 48, 67
2, 838272, Note_on_c, 0, 60, 67
2, 838336, Note_off_c, 0, 60, 67
2, 838400, Note_off_c, 0, 60, 67
2, 838400, Note_on_c, 0, 46, 67
2, 838464, Note_off_c, 0, 46, 67
2, 838528, Note_off_c, 0, 46, 67
2, 838528, Note_on_c, 0, 58, 67
2, 838592, Note_off_c, 0, 58, 67
2, 838656, Note_off_c, 0, 58, 67
2, 838656, Note_on_c, 0, 50, 67
2, 838720, Note_off_c, 0, 50, 67
2, 838784, Note_off_c, 0, 50, 67
2, 838784, Note_on_c, 0, 62, 67
2, 838848, Note_off_c, 0, 62, 67
2, 838912, Note_off_c, 0, 62, 67
2, 838912, Note_on_c, 0, 46, 67
2, 838976, Note_off_c, 0, 46, 67
2, 839040, Note_off_c, 0, 46, 67
2, 839040, Note_on_c, 0, 58, 67
2, 839104, Note_off_c, 0, 58, 67
2, 839168, Note_off_c, 0, 58, 67
2, 839168, Note_on_c, 0, 48, 67
2, 839232, Note_off_c, 0, 48, 67
2, 839296, Note_off_c, 0, 48, 67
2, 839296, Note_on_c, 0, 60, 67
2, 839360, Note_off_c, 0, 60, 67
2, 839424, Note_off_c, 0, 60, 67
2, 839424, Note_on_c, 0, 49, 67
2, 839488, Note_off_c, 0, 49, 67
2, 839552, Note_off_c, 0, 49, 67
2, 839552, Note_on_c, 0, 61, 67
2, 839616, Note_off_c, 0, 61, 67
2, 839680, Note_off_c, 0, 61, 67
2, 839680, Note_on_c, 0, 50, 67
2, 839744, Note_off_c, 0, 50, 67
2, 839808, Note_off_c, 0, 50, 67
2, 839808, Note_on_c, 0, 62, 67
2, 839872, Note_off_c, 0, 62, 67
2, 839936, Note_off_c, 0, 62, 67
2, 839936, Note_on_c, 0, 46, 67
2, 840000, Note_off_c, 0, 46, 67
2, 840064, Note_off_c, 0, 46, 67
2, 840064, Note_on_c, 0, 58, 67
2, 840128, Note_off_c, 0, 58, 67
2, 840192, Note_off_c, 0, 58, 67
2, 840192, Note_on_c, 0, 51, 67
2, 840256, Note_off_c, 0, 51, 67
2, 840320, Note_off_c, 0, 51, 67
2, 840320, Note_on_c, 0, 63, 67
2, 840384, Note_off_c, 0, 63, 67
2, 840448, Note_off_c, 0, 63, 67
2, 840448, Note_on_c, 0, 46, 67
2, 840512, Note_off_c, 0, 46, 67
2, 840576, Note_off_c, 0, 46, 67
2, 840576, Note_on_c, 0, 58, 67
2, 840640, Note_off_c, 0, 58, 67
2, 840704, Note_off_c, 0, 58, 67
2, 840704, Note_on_c, 0, 51, 67
2, 840768, Note_off_c, 0, 51, 67
2, 840832, Note_off_c, 0, 51, 67
2, 840832, Note_on_c, 0, 63, 67
2, 840896, Note_off_c, 0, 63, 67
2, 840960, Note_off_c, 0, 63, 67
2, 840960, Note_on_c, 0, 50, 67
2, 841024, Note_off_c, 0, 50, 67
2, 841088, Note_off_c, 0, 50, 67
2, 841088, Note_on_c, 0, 62, 67
2, 841152, Note_off_c, 0, 62, 67
2, 841216, Note_off_c, 0, 62, 67
2, 841216, Note_on_c, 0, 48, 67
2, 841280, Note_off_c, 0, 48, 67
2, 841344, Note_off_c, 0, 48, 67
2, 841344, Note_on_c, 0, 60, 67
2, 841408, Note_off_c, 0, 60, 67
2, 841472, Note_off_c, 0, 60, 67
2, 841472, Note_on_c, 0, 46, 67
2, 841536, Note_off_c, 0, 46, 67
2, 841600, Note_off_c, 0, 46, 67
2, 841600, Note_on_c, 0, 58, 67
2, 841664, Note_off_c, 0, 58, 67
2, 841728, Note_off_c, 0, 58, 67
2, 841728, Note_on_c, 0, 51, 67
2, 841792, Note_off_c, 0, 51, 67
2, 841856, Note_off_c, 0, 51, 67
2, 841856, Note_on_c, 0, 63, 67
2, 841920, Note_off_c, 0, 63, 67
2, 841984, Note_off_c, 0, 63, 67
2, 841984, Note_on_c, 0, 46, 67
2, 842048, Note_off_c, 0, 46, 67
2, 842112, Note_off_c, 0, 46, 67
2, 842112, Note_on_c, 0, 58, 67
2, 842176, Note_off_c, 0, 58, 67
2, 842240, Note_off_c, 0, 58, 67
2, 842240, Note_on_c, 0, 48, 67
2, 842304, Note_off_c, 0, 48, 67
2, 842368, Note_off_c, 0, 48, 67
2, 842368, Note_on_c, 0, 60, 67
2, 842432, Note_off_c, 0, 60, 67
2, 842496, Note_off_c, 0, 60, 67
2, 842496, Note_on_c, 0, 46, 67
2, 842560, Note_off_c, 0, 46, 67
2, 842624, Note_off_c, 0, 46, 67
2, 842624, Note_on_c, 0, 58, 67
2, 842688, Note_off_c, 0, 58, 67
2, 842752, Note_off_c, 0, 58, 67
2, 842752, Note_on_c, 0, 50, 67
2, 842816, Note_off_c, 0, 50, 67
2, 842880, Note_off_c, 0, 50, 67
2, 842880, Note_on_c, 0, 62, 67
2, 842944, Note_off_c, 0, 62, 67
2, 843008, Note_off_c, 0, 62, 67
2, 843008, Note_on_c, 0, 48, 67
2, 843072, Note_off_c, 0, 48, 67
2, 843136, Note_off_c, 0, 48, 67
2, 843136, Note_on_c, 0, 60, 67
2, 843200, Note_off_c, 0, 60, 67
2, 843264, Note_off_c, 0, 60, 67
2, 843264, Note_on_c, 0, 46, 67
2, 843328, Note_off_c, 0, 46, 67
2, 843392, Note_off_c, 0, 46, 67
2, 843392, Note_on_c, 0, 58, 67
2, 843456, Note_off_c, 0, 58, 67
2, 843520, Note_off_c, 0, 58, 67
2, 843520, Note_on_c, 0, 48, 67
2, 843584, Note_off_c, 0, 48, 67
2, 843648, Note_off_c, 0, 48, 67
2, 843648, Note_on_c, 0, 60, 67
2, 843712, Note_off_c, 0, 60, 67
2, 843776, Note_off_c, 0, 60, 67
2, 843776, Note_on_c, 0, 50, 67
2, 843840, Note_off_c, 0, 50, 67
2, 843904, Note_off_c, 0, 50, 67
2, 843904, Note_on_c, 0, 62, 67
2, 843968, Note_off_c, 0, 62, 67
2, 844032, Note_off_c, 0, 62, 67
2, 844032, Note_on_c, 0, 46, 67
2, 844096, Note_off_c, 0, 46, 67
2, 844160, Note_off_c, 0, 46, 67
2, 844160, Note_on_c, 0, 58, 67
2, 844224, Note_off_c, 0, 58, 67
2, 844288, Note_off_c, 0, 58, 67
2, 844288, Note_on_c, 0, 51, 67
2, 844352, Note_off_c, 0, 51, 67
2, 844416, Note_off_c, 0, 51, 67
2, 844416, Note_on_c, 0, 63, 67
2, 844480, Note_off_c, 0, 63, 67
2, 844544, Note_off_c, 0, 63, 67
2, 844544, Note_on_c, 0, 46, 67
2, 844608, Note_off_c, 0, 46, 67
2, 844672, Note_off_c, 0, 46, 67
2, 844672, Note_on_c, 0, 58, 67
2, 844736, Note_off_c, 0, 58, 67
2, 844800, Note_off_c, 0, 58, 67
2, 844800, Note_on_c, 0, 39, 67
2, 844864, Note_off_c, 0, 39, 67
2, 844864, Note_on_c, 0, 46, 67
2, 844928, Note_off_c, 0, 46, 67
2, 844928, Note_on_c, 0, 51, 67
2, 844992, Note_off_c, 0, 51, 67
2, 844992, Note_on_c, 0, 53, 67
2, 845056, Note_off_c, 0, 53, 67
2, 845056, Note_on_c, 0, 55, 67
2, 845120, Note_off_c, 0, 55, 67
2, 845120, Note_on_c, 0, 51, 67
2, 845184, Note_off_c, 0, 51, 67
2, 845184, Note_on_c, 0, 58, 67
2, 845248, Note_off_c, 0, 58, 67
2, 845248, Note_on_c, 0, 63, 67
2, 845296, Control_c, 0, 93, 0
2, 845312, Note_off_c, 0, 63, 67
2, 845312, Note_on_c, 0, 44, 67
2, 845376, Note_off_c, 0, 44, 67
2, 845376, Note_on_c, 0, 51, 67
2, 845440, Note_off_c, 0, 51, 67
2, 845440, Note_on_c, 0, 56, 67
2, 845504, Note_off_c, 0, 56, 67
2, 845504, Note_on_c, 0, 58, 67
2, 845568, Note_off_c, 0, 58, 67
2, 845568, Note_on_c, 0, 60, 67
2, 845632, Note_off_c, 0, 60, 67
2, 845632, Note_on_c, 0, 56, 67
2, 845696, Note_off_c, 0, 56, 67
2, 845696, Note_on_c, 0, 63, 67
2, 845760, Note_off_c, 0, 63, 67
2, 845760, Note_on_c, 0, 68, 67
2, 845808, Control_c, 0, 93, 0
2, 845824, Note_off_c, 0, 68, 67
2, 845824, Note_on_c, 0, 46, 67
2, 845888, Note_off_c, 0, 46, 67
2, 845888, Note_on_c, 0, 53, 67
2, 845952, Note_off_c, 0, 53, 67
2, 845952, Note_on_c, 0, 58, 67
2, 846016, Note_off_c, 0, 58, 67
2, 846016, Note_on_c, 0, 60, 67
2, 846080, Note_off_c, 0, 60, 67
2, 846080, Note_on_c, 0, 62, 67
2, 846144, Note_off_c, 0, 62, 67
2, 846144, Note_on_c, 0, 58, 67
2, 846208, Note_off_c, 0, 58, 67
2, 846208, Note_on_c, 0, 65, 67
2, 846272, Note_off_c, 0, 65, 67
2, 846272, Note_on_c, 0, 70, 67
2, 846320, Control_c, 0, 93, 0
2, 846336, Note_off_c, 0, 70, 67
2, 846336, Note_on_c, 0, 41, 67
2, 846400, Note_off_c, 0, 41, 67
2, 846400, Note_on_c, 0, 44, 67
2, 846464, Note_off_c, 0, 44, 67
2, 846464, Control_c, 0, 64, 64
2, 846464, Note_on_c, 0, 50, 67
2, 846485, Note_off_c, 0, 50, 67
2, 846485, Note_on_c, 0, 53, 67
2, 846506, Note_off_c, 0, 53, 67
2, 846506, Note_on_c, 0, 58, 67
2, 846527, Note_off_c, 0, 58, 67
2, 846528, Control_c, 0, 93, 0
2, 846528, Note_on_c, 0, 62, 67
2, 846549, Note_off_c, 0, 62, 67
2, 846549, Note_on_c, 0, 65, 67
2, 846570, Note_off_c, 0, 65, 67
2, 846570, Note_on_c, 0, 70, 67
2, 846592, Control_c, 0, 93, 0
2, 846592, Control_c, 0, 64, 0
2, 846720, Note_off_c, 0, 70, 67
2, 846720, Note_on_c, 0, 51, 67
2, 846784, Note_off_c, 0, 51, 67
2, 846784, Note_on_c, 0, 46, 67
2, 846848, Note_off_c, 0, 46, 67
2, 846848, Note_on_c, 0, 39, 67
2, 846912, Note_off_c, 0, 39, 67
2, 846912, Note_on_c, 0, 46, 67
2, 846976, Note_off_c, 0, 46, 67
2, 846976, Note_on_c, 0, 51, 67
2, 847040, Note_off_c, 0, 51, 67
2, 847040, Note_on_c, 0, 53, 67
2, 847104, Note_off_c, 0, 53, 67
2, 847104, Note_on_c, 0, 55, 67
2, 847168, Note_off_c, 0, 55, 67
2, 847168, Note_on_c, 0, 51, 67
2, 847232, Note_off_c, 0, 51, 67
2, 847232, Note_on_c, 0, 58, 67
2, 847296, Note_off_c, 0, 58, 67
2, 847296, Note_on_c, 0, 63, 67
2, 847344, Control_c, 0, 93, 0
2, 847360, Note_off_c, 0, 63, 67
2, 847360, Note_on_c, 0, 44, 67
2, 847424, Note_off_c, 0, 44, 67
2, 847424, Note_on_c, 0, 51, 67
2, 847488, Note_off_c, 0, 51, 67
2, 847488, Note_on_c, 0, 56, 67
2, 847552, Note_off_c, 0, 56, 67
2, 847552, Note_on_c, 0, 58, 67
2, 847616, Note_off_c, 0, 58, 67
2, 847616, Note_on_c, 0, 60, 67
2, 847680, Note_off_c, 0, 60, 67
2, 847680, Note_on_c, 0, 56, 67
2, 847744, Note_off_c, 0, 56, 67
2, 847744, Note_on_c, 0, 63, 67
2, 847808, Note_off_c, 0, 63, 67
2, 847808, Note_on_c, 0, 68, 67
2, 847856, Control_c, 0, 93, 0
2, 847872, Note_off_c, 0, 68, 67
2, 847872, Note_on_c, 0, 46, 67
2, 847936, Note_off_c, 0, 46, 67
2, 847936, Note_on_c, 0, 53, 67
2, 848000, Note_off_c, 0, 53, 67
2, 848000, Note_on_c, 0, 58, 67
2, 848064, Note_off_c, 0, 58, 67
2, 848064, Note_on_c, 0, 60, 67
2, 848128, Note_off_c, 0, 60, 67
2, 848128, Note_on_c, 0, 62, 67
2, 848192, Note_off_c, 0, 62, 67
2, 848192, Note_on_c, 0, 58, 67
2, 848256, Note_off_c, 0, 58, 67
2, 848256, Note_on_c, 0, 65, 67
2, 848320, Note_off_c, 0, 65, 67
2, 848320, Note_on_c, 0, 70, 67
2, 848368, Control_c, 0, 93, 0
2, 848384, Note_off_c, 0, 70, 67
2, 848384, Note_on_c, 0, 39, 67
2, 848448, Note_off_c, 0, 39, 67
2, 848448, Note_on_c, 0, 46, 67
2, 848512, Note_off_c, 0, 46, 67
2, 848512, Note_on_c, 0, 51, 67
2, 848576, Note_off_c, 0, 51, 67
2, 848576, Control_c, 0, 64, 64
2, 848576, Note_on_c, 0, 55, 67
2, 848586, Note_off_c, 0, 55, 67
2, 848586, Note_on_c, 0, 58, 67
2, 848597, Note_off_c, 0, 58, 67
2, 848597, Note_on_c, 0, 63, 67
2, 848607, Note_off_c, 0, 63, 67
2, 848608, Control_c, 0, 93, 0
2, 848608, Note_on_c, 0, 67, 67
2, 848618, Note_off_c, 0, 67, 67
2, 848618, Note_on_c, 0, 70, 67
2, 848629, Note_off_c, 0, 70, 67
2, 848629, Note_on_c, 0, 75, 67
2, 848639, Note_off_c, 0, 75, 67
2, 848640, Control_c, 0, 93, 0
2, 848768, Control_c, 0, 93, 0
2, 848832, Control_c, 0, 93, 0
2, 848832, Control_c, 0, 64, 0
2, 848896, Control_c, 0, 93, 0
2, 848896, Note_on_c, 0, 51, 67
2, 848960, Note_off_c, 0, 51, 67
2, 849024, Note_off_c, 0, 51, 67
2, 849024, Note_on_c, 0, 63, 67
2, 849088, Note_off_c, 0, 63, 67
2, 849152, Note_off_c, 0, 63, 67
2, 849152, Note_on_c, 0, 50, 67
2, 849216, Note_off_c, 0, 50, 67
2, 849280, Note_off_c, 0, 50, 67
2, 849280, Note_on_c, 0, 62, 67
2, 849344, Note_off_c, 0, 62, 67
2, 849408, Note_off_c, 0, 62, 67
2, 849408, Note_on_c, 0, 48, 67
2, 849472, Note_off_c, 0, 48, 67
2, 849536, Note_off_c, 0, 48, 67
2, 849536, Note_on_c, 0, 60, 67
2, 849600, Note_off_c, 0, 60, 67
2, 849664, Note_off_c, 0, 60, 67
2, 849664, Note_on_c, 0, 46, 67
2, 849728, Note_off_c, 0, 46, 67
2, 849792, Note_off_c, 0, 46, 67
2, 849792, Note_on_c, 0, 58, 67
2, 849856, Note_off_c, 0, 58, 67
2, 849920, Note_off_c, 0, 58, 67
2, 849920, Note_on_c, 0, 51, 67
2, 849984, Note_off_c, 0, 51, 67
2, 850048, Note_off_c, 0, 51, 67
2, 850048, Note_on_c, 0, 63, 67
2, 850112, Note_off_c, 0, 63, 67
2, 850176, Note_off_c, 0, 63, 67
2, 850176, Note_on_c, 0, 46, 67
2, 850240, Note_off_c, 0, 46, 67
2, 850304, Note_off_c, 0, 46, 67
2, 850304, Note_on_c, 0, 58, 67
2, 850368, Note_off_c, 0, 58, 67
2, 850432, Note_off_c, 0, 58, 67
2, 850432, Note_on_c, 0, 48, 67
2, 850496, Note_off_c, 0, 48, 67
2, 850560, Note_off_c, 0, 48, 67
2, 850560, Note_on_c, 0, 60, 67
2, 850624, Note_off_c, 0, 60, 67
2, 850688, Note_off_c, 0, 60, 67
2, 850688, Note_on_c, 0, 46, 67
2, 850752, Note_off_c, 0, 46, 67
2, 850816, Note_off_c, 0, 46, 67
2, 850816, Note_on_c, 0, 58, 67
2, 850880, Note_off_c, 0, 58, 67
2, 850944, Note_off_c, 0, 58, 67
2, 850944, Note_on_c, 0, 50, 67
2, 851008, Note_off_c, 0, 50, 67
2, 851072, Note_off_c, 0, 50, 67
2, 851072, Note_on_c, 0, 62, 67
2, 851136, Note_off_c, 0, 62, 67
2, 851200, Note_off_c, 0, 62, 67
2, 851200, Note_on_c, 0, 46, 67
2, 851264, Note_off_c, 0, 46, 67
2, 851328, Note_off_c, 0, 46, 67
2, 851328, Note_on_c, 0, 58, 67
2, 851392, Note_off_c, 0, 58, 67
2, 851456, Note_off_c, 0, 58, 67
2, 851456, Note_on_c, 0, 48, 67
2, 851520, Note_off_c, 0, 48, 67
2, 851584, Note_off_c, 0, 48, 67
2, 851584, Note_on_c, 0, 60, 67
2, 851648, Note_off_c, 0, 60, 67
2, 851712, Note_off_c, 0, 60, 67
2, 851712, Note_on_c, 0, 49, 67
2, 851776, Note_off_c, 0, 49, 67
2, 851840, Note_off_c, 0, 49, 67
2, 851840, Note_on_c, 0, 61, 67
2, 851904, Note_off_c, 0, 61, 67
2, 851968, Note_off_c, 0, 61, 67
2, 851968, Note_on_c, 0, 50, 67
2, 852032, Note_off_c, 0, 50, 67
2, 852096, Note_off_c, 0, 50, 67
2, 852096, Note_on_c, 0, 62, 67
2, 852160, Note_off_c, 0, 62, 67
2, 852224, Note_off_c, 0, 62, 67
2, 852224, Note_on_c, 0, 46, 67
2, 852288, Note_off_c, 0, 46, 67
2, 852352, Note_off_c, 0, 46, 67
2, 852352, Note_on_c, 0, 58, 67
2, 852416, Note_off_c, 0, 58, 67
2, 852480, Note_off_c, 0, 58, 67
2, 852480, Note_on_c, 0, 51, 67
2, 852544, Note_off_c, 0, 51, 67
2, 852608, Note_off_c, 0, 51, 67
2, 852608, Note_on_c, 0, 63, 67
2, 852672, Note_off_c, 0, 63, 67
2, 852736, Note_off_c, 0, 63, 67
2, 852736, Note_on_c, 0, 46, 67
2, 852800, Note_off_c, 0, 46, 67
2, 852864, Note_off_c, 0, 46, 67
2, 852864, Note_on_c, 0, 58, 67
2, 852928, Note_off_c, 0, 58, 67
2, 852992, Note_off_c, 0, 58, 67
2, 852992, Note_on_c, 0, 51, 67
2, 853056, Note_off_c, 0, 51, 67
2, 853120, Note_off_c, 0, 51, 67
2, 853120, Note_on_c, 0, 63, 67
2, 853184, Note_off_c, 0, 63, 67
2, 853248, Note_off_c, 0, 63, 67
2, 853248, Note_on_c, 0, 50, 67
2, 853312, Note_off_c, 0, 50, 67
2, 853376, Note_off_c, 0, 50, 67
2, 853376, Note_on_c, 0, 62, 67
2, 853440, Note_off_c, 0, 62, 67
2, 853504, Note_off_c, 0, 62, 67
2, 853504, Note_on_c, 0, 48, 67
2, 853568, Note_off_c, 0, 48, 67
2, 853632, Note_off_c, 0, 48, 67
2, 853632, Note_on_c, 0, 60, 67
2, 853696, Note_off_c, 0, 60, 67
2, 853760, Note_off_c, 0, 60, 67
2, 853760, Note_on_c, 0, 46, 67
2, 853824, Note_off_c, 0, 46, 67
2, 853888, Note_off_c, 0, 46, 67
2, 853888, Note_on_c, 0, 58, 67
2, 853952, Note_off_c, 0, 58, 67
2, 854016, Note_off_c, 0, 58, 67
2, 854016, Note_on_c, 0, 51, 67
2, 854080, Note_off_c, 0, 51, 67
2, 854144, Note_off_c, 0, 51, 67
2, 854144, Note_on_c, 0, 63, 67
2, 854208, Note_off_c, 0, 63, 67
2, 854272, Note_off_c, 0, 63, 67
2, 854272, Note_on_c, 0, 46, 67
2, 854336, Note_off_c, 0, 46, 67
2, 854400, Note_off_c, 0, 46, 67
2, 854400, Note_on_c, 0, 58, 67
2, 854464, Note_off_c, 0, 58, 67
2, 854528, Note_off_c, 0, 58, 67
2, 854528, Note_on_c, 0, 48, 67
2, 854592, Note_off_c, 0, 48, 67
2, 854656, Note_off_c, 0, 48, 67
2, 854656, Note_on_c, 0, 60, 67
2, 854720, Note_off_c, 0, 60, 67
2, 854784, Note_off_c, 0, 60, 67
2, 854784, Note_on_c, 0, 46, 67
2, 854848, Note_off_c, 0, 46, 67
2, 854912, Note_off_c, 0, 46, 67
2, 854912, Note_on_c, 0, 58, 67
2, 854976, Note_off_c, 0, 58, 67
2, 855040, Note_off_c, 0, 58, 67
2, 855040, Note_on_c, 0, 50, 67
2, 855104, Note_off_c, 0, 50, 67
2, 855168, Note_off_c, 0, 50, 67
2, 855168, Note_on_c, 0, 62, 67
2, 855232, Note_off_c, 0, 62, 67
2, 855296, Note_off_c, 0, 62, 67
2, 855296, Note_on_c, 0, 48, 67
2, 855360, Note_off_c, 0, 48, 67
2, 855424, Note_off_c, 0, 48, 67
2, 855424, Note_on_c, 0, 60, 67
2, 855488, Note_off_c, 0, 60, 67
2, 855552, Note_off_c, 0, 60, 67
2, 855552, Note_on_c, 0, 46, 67
2, 855616, Note_off_c, 0, 46, 67
2, 855680, Note_off_c, 0, 46, 67
2, 855680, Note_on_c, 0, 58, 67
2, 855744, Note_off_c, 0, 58, 67
2, 855808, Note_off_c, 0, 58, 67
2, 855808, Note_on_c, 0, 48, 67
2, 855872, Note_off_c, 0, 48, 67
2, 855936, Note_off_c, 0, 48, 67
2, 855936, Note_on_c, 0, 60, 67
2, 856000, Note_off_c, 0, 60, 67
2, 856064, Note_off_c, 0, 60, 67
2, 856064, Note_on_c, 0, 50, 67
2, 856128, Note_off_c, 0, 50, 67
2, 856192, Note_off_c, 0, 50, 67
2, 856192, Note_on_c, 0, 62, 67
2, 856256, Note_off_c, 0, 62, 67
2, 856320, Note_off_c, 0, 62, 67
2, 856320, Note_on_c, 0, 46, 67
2, 856384, Note_off_c, 0, 46, 67
2, 856448, Note_off_c, 0, 46, 67
2, 856448, Note_on_c, 0, 58, 67
2, 856512, Note_off_c, 0, 58, 67
2, 856576, Note_off_c, 0, 58, 67
2, 856576, Note_on_c, 0, 51, 67
2, 856640, Note_off_c, 0, 51, 67
2, 856704, Note_off_c, 0, 51, 67
2, 856704, Note_on_c, 0, 63, 67
2, 856768, Note_off_c, 0, 63, 67
2, 856832, Note_off_c, 0, 63, 67
2, 856832, Note_on_c, 0, 46, 67
2, 856896, Note_off_c, 0, 46, 67
2, 856960, Note_off_c, 0, 46, 67
2, 856960, Note_on_c, 0, 58, 67
2, 857024, Note_off_c, 0, 58, 67
2, 857088, Note_off_c, 0, 58, 67
2, 857088, Note_on_c, 0, 39, 67
2, 857152, Note_off_c, 0, 39, 67
2, 857152, Note_on_c, 0, 46, 67
2, 857216, Note_off_c, 0, 46, 67
2, 857216, Note_on_c, 0, 51, 67
2, 857280, Note_off_c, 0, 51, 67
2, 857280, Note_on_c, 0, 53, 67
2, 857344, Note_off_c, 0, 53, 67
2, 857344, Note_on_c, 0, 55, 67
2, 857408, Note_off_c, 0, 55, 67
2, 857408, Note_on_c, 0, 51, 67
2, 857472, Note_off_c, 0, 51, 67
2, 857472, Note_on_c, 0, 58, 67
2, 857536, Note_off_c, 0, 58, 67
2, 857536, Note_on_c, 0, 63, 67
2, 857584, Control_c, 0, 93, 0
2, 857600, Note_off_c, 0, 63, 67
2, 857600, Note_on_c, 0, 44, 67
2, 857664, Note_off_c, 0, 44, 67
2, 857664, Note_on_c, 0, 51, 67
2, 857728, Note_off_c, 0, 51, 67
2, 857728, Note_on_c, 0, 56, 67
2, 857792, Note_off_c, 0, 56, 67
2, 857792, Note_on_c, 0, 58, 67
2, 857856, Note_off_c, 0, 58, 67
2, 857856, Note_on_c, 0, 60, 67
2, 857920, Note_off_c, 0, 60, 67
2, 857920, Note_on_c, 0, 56, 67
2, 857984, Note_off_c, 0, 56, 67
2, 857984, Note_on_c, 0, 63, 67
2, 858048, Note_off_c, 0, 63, 67
2, 858048, Note_on_c, 0, 68, 67
2, 858096, Control_c, 0, 93, 0
2, 858112, Note_off_c, 0, 68, 67
2, 858112, Note_on_c, 0, 46, 67
2, 858176, Note_off_c, 0, 46, 67
2, 858176, Note_on_c, 0, 53, 67
2, 858240, Note_off_c, 0, 53, 67
2, 858240, Note_on_c, 0, 58, 67
2, 858304, Note_off_c, 0, 58, 67
2, 858304, Note_on_c, 0, 60, 67
2, 858368, Note_off_c, 0, 60, 67
2, 858368, Note_on_c, 0, 62, 67
2, 858432, Note_off_c, 0, 62, 67
2, 858432, Note_on_c, 0, 58, 67
2, 858496, Note_off_c, 0, 58, 67
2, 858496, Note_on_c, 0, 65, 67
2, 858560, Note_off_c, 0, 65, 67
2, 858560, Note_on_c, 0, 70, 67
2, 858608, Control_c, 0, 93, 0
2, 858624, Note_off_c, 0, 70, 67
2, 858624, Note_on_c, 0, 41, 67
2, 858688, Note_off_c, 0, 41, 67
2, 858688, Note_on_c, 0, 44, 67
2, 858752, Note_off_c, 0, 44, 67
2, 858752, Control_c, 0, 64, 64
2, 858752, Note_on_c, 0, 50, 67
2, 858773, Note_off_c, 0, 50, 67
2, 858773, Note_on_c, 0, 53, 67
2, 858794, Note_off_c, 0, 53, 67
2, 858794, Note_on_c, 0, 58, 67
2, 858815, Note_off_c, 0, 58, 67
2, 858816, Control_c, 0, 93, 0
2, 858816, Note_on_c, 0, 62, 67
2, 858837, Note_off_c, 0, 62, 67
2, 858837, Note_on_c, 0, 65, 67
2, 858858, Note_off_c, 0, 65, 67
2, 858858, Note_on_c, 0, 70, 67
2, 858880, Control_c, 0, 93, 0
2, 858880, Control_c, 0, 64, 0
2, 859008, Note_off_c, 0, 70, 67
2, 859008, Note_on_c, 0, 51, 67
2, 859072, Note_off_c, 0, 51, 67
2, 859072, Note_on_c, 0, 46, 67
2, 859136, Note_off_c, 0, 46, 67
2, 859136, Note_on_c, 0, 39, 67
2, 859200, Note_off_c, 0, 39, 67
2, 859200, Note_on_c, 0, 46, 67
2, 859264, Note_off_c, 0, 46, 67
2, 859264, Note_on_c, 0, 51, 67
2, 859328, Note_off_c, 0, 51, 67
2, 859328, Note_on_c, 0, 53, 67
2, 859392, Note_off_c, 0, 53, 67
2, 859392, Note_on_c, 0, 55, 67
2, 859456, Note_off_c, 0, 55, 67
2, 859456, Note_on_c, 0, 51, 67
2, 859520, Note_off_c, 0, 51, 67
2, 859520, Note_on_c, 0, 58, 67
2, 859584, Note_off_c, 0, 58, 67
2, 859584, Note_on_c, 0, 63, 67
2, 859632, Control_c, 0, 93, 0
2, 859648, Note_off_c, 0, 63, 67
2, 859648, Note_on_c, 0, 44, 67
2, 859712, Note_off_c, 0, 44, 67
2, 859712, Note_on_c, 0, 51, 67
2, 859776, Note_off_c, 0, 51, 67
2, 859776, Note_on_c, 0, 56, 67
2, 859840, Note_off_c, 0, 56, 67
2, 859840, Note_on_c, 0, 58, 67
2, 859904, Note_off_c, 0, 58, 67
2, 859904, Note_on_c, 0, 60, 67
2, 859968, Note_off_c, 0, 60, 67
2, 859968, Note_on_c, 0, 56, 67
2, 860032, Note_off_c, 0, 56, 67
2, 860032, Note_on_c, 0, 63, 67
2, 860096, Note_off_c, 0, 63, 67
2, 860096, Note_on_c, 0, 68, 67
2, 860144, Control_c, 0, 93, 0
2, 860160, Note_off_c, 0, 68, 67
2, 860160, Note_on_c, 0, 46, 67
2, 860224, Note_off_c, 0, 46, 67
2, 860224, Note_on_c, 0, 53, 67
2, 860288, Note_off_c, 0, 53, 67
2, 860288, Note_on_c, 0, 58, 67
2, 860352, Note_off_c, 0, 58, 67
2, 860352, Note_on_c, 0, 60, 67
2, 860416, Note_off_c, 0, 60, 67
2, 860416, Note_on_c, 0, 62, 67
2, 860480, Note_off_c, 0, 62, 67
2, 860480, Note_on_c, 0, 58, 67
2, 860544, Note_off_c, 0, 58, 67
2, 860544, Note_on_c, 0, 65, 67
2, 860608, Note_off_c, 0, 65, 67
2, 860608, Note_on_c, 0, 70, 67
2, 860656, Control_c, 0, 93, 0
2, 860672, Note_off_c, 0, 70, 67
2, 860672, Note_on_c, 0, 39, 67
2, 860736, Note_off_c, 0, 39, 67
2, 860736, Note_on_c, 0, 46, 67
2, 860800, Note_off_c, 0, 46, 67
2, 860800, Note_on_c, 0, 51, 67
2, 860864, Note_off_c, 0, 51, 67
2, 860864, Control_c, 0, 64, 64
2, 860864, Note_on_c, 0, 55, 67
2, 860874, Note_off_c, 0, 55, 67
2, 860874, Note_on_c, 0, 58, 67
2, 860885, Note_off_c, 0, 58, 67
2, 860885, Note_on_c, 0, 63, 67
2, 860895, Note_off_c, 0, 63, 67
2, 860896, Control_c, 0, 93, 0
2, 860896, Note_on_c, 0, 67, 67
2, 860906, Note_off_c, 0, 67, 67
2, 860906, Note_on_c, 0, 70, 67
2, 860917, Note_off_c, 0, 70, 67
2, 860917, Note_on_c, 0, 75, 67
2, 860927, Note_off_c, 0, 75, 67
2, 860928, Control_c, 0, 93, 0
2, 861056, Control_c, 0, 93, 0
2, 861120, Control_c, 0, 93, 0
2, 861120, Control_c, 0, 64, 0
2, 861184, Control_c, 0, 93, 0
2, 861184, Note_on_c, 0, 51, 67
2, 861248, Note_off_c, 0, 51, 67
2, 861312, Note_off_c, 0, 51, 67
2, 861312, Note_on_c, 0, 63, 67
2, 861376, Note_off_c, 0, 63, 67
2, 861440, Note_off_c, 0, 63, 67
2, 861440, Note_on_c, 0, 50, 67
2, 861504, Note_off_c, 0, 50, 67
2, 861568, Note_off_c, 0, 50, 67
2, 861568, Note_on_c, 0, 62, 67
2, 861632, Note_off_c, 0, 62, 67
2, 861696, Note_off_c, 0, 62, 67
2, 861696, Note_on_c, 0, 48, 67
2, 861760, Note_off_c, 0, 48, 67
2, 861824, Note_off_c, 0, 48, 67
2, 861824, Note_on_c, 0, 60, 67
2, 861888, Note_off_c, 0, 60, 67
2, 861952, Note_off_c, 0, 60, 67
2, 861952, Note_on_c, 0, 46, 67
2, 862016, Note_off_c, 0, 46, 67
2, 862080, Note_off_c, 0, 46, 67
2, 862080, Note_on_c, 0, 58, 67
2, 862144, Note_off_c, 0, 58, 67
2, 862208, Note_off_c, 0, 58, 67
2, 862208, Note_on_c, 0, 51, 67
2, 862272, Note_off_c, 0, 51, 67
2, 862336, Note_off_c, 0, 51, 67
2, 862336, Note_on_c, 0, 63, 67
2, 862400, Note_off_c, 0, 63, 67
2, 862464, Note_off_c, 0, 63, 67
2, 862464, Note_on_c, 0, 46, 67
2, 862528, Note_off_c, 0, 46, 67
2, 862592, Note_off_c, 0, 46, 67
2, 862592, Note_on_c, 0, 58, 67
2, 862656, Note_off_c, 0, 58, 67
2, 862720, Note_off_c, 0, 58, 67
2, 862720, Note_on_c, 0, 48, 67
2, 862784, Note_off_c, 0, 48, 67
2, 862848, Note_off_c, 0, 48, 67
2, 862848, Note_on_c, 0, 60, 67
2, 862912, Note_off_c, 0, 60, 67
2, 862976, Note_off_c, 0, 60, 67
2, 862976, Note_on_c, 0, 46, 67
2, 863040, Note_off_c, 0, 46, 67
2, 863104, Note_off_c, 0, 46, 67
2, 863104, Note_on_c, 0, 58, 67
2, 863168, Note_off_c, 0, 58, 67
2, 863232, Note_off_c, 0, 58, 67
2, 863232, Note_on_c, 0, 50, 67
2, 863296, Note_off_c, 0, 50, 67
2, 863360, Note_off_c, 0, 50, 67
2, 863360, Note_on_c, 0, 62, 67
2, 863424, Note_off_c, 0, 62, 67
2, 863488, Note_off_c, 0, 62, 67
2, 863488, Note_on_c, 0, 46, 67
2, 863552, Note_off_c, 0, 46, 67
2, 863616, Note_off_c, 0, 46, 67
2, 863616, Note_on_c, 0, 58, 67
2, 863680, Note_off_c, 0, 58, 67
2, 863744, Note_off_c, 0, 58, 67
2, 863744, Note_on_c, 0, 48, 67
2, 863808, Note_off_c, 0, 48, 67
2, 863872, Note_off_c, 0, 48, 67
2, 863872, Note_on_c, 0, 60, 67
2, 863936, Note_off_c, 0, 60, 67
2, 864000, Note_off_c, 0, 60, 67
2, 864000, Note_on_c, 0, 49, 67
2, 864064, Note_off_c, 0, 49, 67
2, 864128, Note_off_c, 0, 49, 67
2, 864128, Note_on_c, 0, 61, 67
2, 864192, Note_off_c, 0, 61, 67
2, 864256, Note_off_c, 0, 61, 67
2, 864256, Note_on_c, 0, 50, 67
2, 864320, Note_off_c, 0, 50, 67
2, 864384, Note_off_c, 0, 50, 67
2, 864384, Note_on_c, 0, 62, 67
2, 864448, Note_off_c, 0, 62, 67
2, 864512, Note_off_c, 0, 62, 67
2, 864512, Note_on_c, 0, 46, 67
2, 864576, Note_off_c, 0, 46, 67
2, 864640, Note_off_c, 0, 46, 67
2, 864640, Note_on_c, 0, 58, 67
2, 864704, Note_off_c, 0, 58, 67
2, 864768, Note_off_c, 0, 58, 67
2, 864768, Note_on_c, 0, 51, 67
2, 864832, Note_off_c, 0, 51, 67
2, 864896, Note_off_c, 0, 51, 67
2, 864896, Note_on_c, 0, 63, 67
2, 864960, Note_off_c, 0, 63, 67
2, 865024, Note_off_c, 0, 63, 67
2, 865024, Note_on_c, 0, 46, 67
2, 865088, Note_off_c, 0, 46, 67
2, 865152, Note_off_c, 0, 46, 67
2, 865152, Note_on_c, 0, 58, 67
2, 865216, Note_off_c, 0, 58, 67
2, 865280, Note_off_c, 0, 58, 67
2, 865280, Note_on_c, 0, 51, 67
2, 865344, Note_off_c, 0, 51, 67
2, 865408, Note_off_c, 0, 51, 67
2, 865408, Note_on_c, 0, 63, 67
2, 865472, Note_off_c, 0, 63, 67
2, 865536, Note_off_c, 0, 63, 67
2, 865536, Note_on_c, 0, 50, 67
2, 865600, Note_off_c, 0, 50, 67
2, 865664, Note_off_c, 0, 50, 67
2, 865664, Note_on_c, 0, 62, 67
2, 865728, Note_off_c, 0, 62, 67
2, 865792, Note_off_c, 0, 62, 67
2, 865792, Note_on_c, 0, 48, 67
2, 865856, Note_off_c, 0, 48, 67
2, 865920, Note_off_c, 0, 48, 67
2, 865920, Note_on_c, 0, 60, 67
2, 865984, Note_off_c, 0, 60, 67
2, 866048, Note_off_c, 0, 60, 67
2, 866048, Note_on_c, 0, 46, 67
2, 866112, Note_off_c, 0, 46, 67
2, 866176, Note_off_c, 0, 46, 67
2, 866176, Note_on_c, 0, 58, 67
2, 866240, Note_off_c, 0, 58, 67
2, 866304, Note_off_c, 0, 58, 67
2, 866304, Note_on_c, 0, 51, 67
2, 866368, Note_off_c, 0, 51, 67
2, 866432, Note_off_c, 0, 51, 67
2, 866432, Note_on_c, 0, 63, 67
2, 866496, Note_off_c, 0, 63, 67
2, 866560, Note_off_c, 0, 63, 67
2, 866560, Note_on_c, 0, 46, 67
2, 866624, Note_off_c, 0, 46, 67
2, 866688, Note_off_c, 0, 46, 67
2, 866688, Note_on_c, 0, 58, 67
2, 866752, Note_off_c, 0, 58, 67
2, 866816, Note_off_c, 0, 58, 67
2, 866816, Note_on_c, 0, 48, 67
2, 866880, Note_off_c, 0, 48, 67
2, 866944, Note_off_c, 0, 48, 67
2, 866944, Note_on_c, 0, 60, 67
2, 867008, Note_off_c, 0, 60, 67
2, 867072, Note_off_c, 0, 60, 67
2, 867072, Note_on_c, 0, 46, 67
2, 867136, Note_off_c, 0, 46, 67
2, 867200, Note_off_c, 0, 46, 67
2, 867200, Note_on_c, 0, 58, 67
2, 867264, Note_off_c, 0, 58, 67
2, 867328, Note_off_c, 0, 58, 67
2, 867328, Note_on_c, 0, 50, 67
2, 867392, Note_off_c, 0, 50, 67
2, 867456, Note_off_c, 0, 50, 67
2, 867456, Note_on_c, 0, 62, 67
2, 867520, Note_off_c, 0, 62, 67
2, 867584, Note_off_c, 0, 62, 67
2, 867584, Note_on_c, 0, 48, 67
2, 867648, Note_off_c, 0, 48, 67
2, 867712, Note_off_c, 0, 48, 67
2, 867712, Note_on_c, 0, 60, 67
2, 867776, Note_off_c, 0, 60, 67
2, 867840, Note_off_c, 0, 60, 67
2, 867840, Note_on_c, 0, 46, 67
2, 867904, Note_off_c, 0, 46, 67
2, 867968, Note_off_c, 0, 46, 67
2, 867968, Note_on_c, 0, 58, 67
2, 868032, Note_off_c, 0, 58, 67
2, 868096, Note_off_c, 0, 58, 67
2, 868096, Note_on_c, 0, 48, 67
2, 868160, Note_off_c, 0, 48, 67
2, 868224, Note_off_c, 0, 48, 67
2, 868224, Note_on_c, 0, 60, 67
2, 868288, Note_off_c, 0, 60, 67
2, 868352, Note_off_c, 0, 60, 67
2, 868352, Note_on_c, 0, 50, 67
2, 868416, Note_off_c, 0, 50, 67
2, 868480, Note_off_c, 0, 50, 67
2, 868480, Note_on_c, 0, 62, 67
2, 868544, Note_off_c, 0, 62, 67
2, 868608, Note_off_c, 0, 62, 67
2, 868608, Note_on_c, 0, 46, 67
2, 868672, Note_off_c, 0, 46, 67
2, 868736, Note_off_c, 0, 46, 67
2, 868736, Note_on_c, 0, 58, 67
2, 868800, Note_off_c, 0, 58, 67
2, 868864, Note_off_c, 0, 58, 67
2, 868864, Note_on_c, 0, 51, 67
2, 868928, Note_off_c, 0, 51, 67
2, 868992, Note_off_c, 0, 51, 67
2, 868992, Note_on_c, 0, 63, 67
2, 869056, Note_off_c, 0, 63, 67
2, 869120, Note_off_c, 0, 63, 67
2, 869120, Note_on_c, 0, 46, 67
2, 869184, Note_off_c, 0, 46, 67
2, 869248, Note_off_c, 0, 46, 67
2, 869248, Note_on_c, 0, 58, 67
2, 869312, Note_off_c, 0, 58, 67
2, 869376, Note_off_c, 0, 58, 67
2, 869376, Note_on_c, 0, 39, 67
2, 869440, Note_off_c, 0, 39, 67
2, 869440, Note_on_c, 0, 46, 67
2, 869504, Note_off_c, 0, 46, 67
2, 869504, Note_on_c, 0, 51, 67
2, 869568, Note_off_c, 0, 51, 67
2, 869568, Note_on_c, 0, 53, 67
2, 869632, Note_off_c, 0, 53, 67
2, 869632, Note_on_c, 0, 55, 67
2, 869696, Note_off_c, 0, 55, 67
2, 869696, Note_on_c, 0, 51, 67
2, 869760, Note_off_c, 0, 51, 67
2, 869760, Note_on_c, 0, 58, 67
2, 869824, Note_off_c, 0, 58, 67
2, 869824, Note_on_c, 0, 63, 67
2, 869872, Control_c, 0, 93, 0
2, 869888, Note_off_c, 0, 63, 67
2, 869888, Note_on_c, 0, 44, 67
2, 869952, Note_off_c, 0, 44, 67
2, 869952, Note_on_c, 0, 51, 67
2, 870016, Note_off_c, 0, 51, 67
2, 870016, Note_on_c, 0, 56, 67
2, 870080, Note_off_c, 0, 56, 67
2, 870080, Note_on_c, 0, 58, 67
2, 870144, Note_off_c, 0, 58, 67
2, 870144, Note_on_c, 0, 60, 67
2, 870208, Note_off_c, 0, 60, 67
2, 870208, Note_on_c, 0, 56, 67
2, 870272, Note_off_c, 0, 56, 67
2, 870272, Note_on_c, 0, 63, 67
2, 870336, Note_off_c, 0, 63, 67
2, 870336, Note_on_c, 0, 68, 67
2, 870384, Control_c, 0, 93, 0
2, 870400, Note_off_c, 0, 68, 67
2, 870400, Note_on_c, 0, 46, 67
2, 870464, Note_off_c, 0, 46, 67
2, 870464, Note_on_c, 0, 53, 67
2, 870528, Note_off_c, 0, 53, 67
2, 870528, Note_on_c, 0, 58, 67
2, 870592, Note_off_c, 0, 58, 67
2, 870592, Note_on_c, 0, 60, 67
2, 870656, Note_off_c, 0, 60, 67
2, 870656, Note_on_c, 0, 62, 67
2, 870720, Note_off_c, 0, 62, 67
2, 870720, Note_on_c, 0, 58, 67
2, 870784, Note_off_c, 0, 58, 67
2, 870784, Note_on_c, 0, 65, 67
2, 870848, Note_off_c, 0, 65, 67
2, 870848, Note_on_c, 0, 70, 67
2, 870896, Control_c, 0, 93, 0
2, 870912, Note_off_c, 0, 70, 67
2, 870912, Note_on_c, 0, 41, 67
2, 870976, Note_off_c, 0, 41, 67
2, 870976, Note_on_c, 0, 44, 67
2, 871040, Note_off_c, 0, 44, 67
2, 871040, Control_c, 0, 64, 64
2, 871040, Note_on_c, 0, 50, 67
2, 871061, Note_off_c, 0, 50, 67
2, 871061, Note_on_c, 0, 53, 67
2, 871082, Note_off_c, 0, 53, 67
2, 871082, Note_on_c, 0, 58, 67
2, 871103, Note_off_c, 0, 58, 67
2, 871104, Control_c, 0, 93, 0
2, 871104, Note_on_c, 0, 62, 67
2, 871125, Note_off_c, 0, 62, 67
2, 871125, Note_on_c, 0, 65, 67
2, 871146, Note_off_c, 0, 65, 67
2, 871146, Note_on_c, 0, 70, 67
2, 871168, Control_c, 0, 93, 0
2, 871168, Control_c, 0, 64, 0
2, 871296, Note_off_c, 0, 70, 67
2, 871296, Note_on_c, 0, 51, 67
2, 871360, Note_off_c, 0, 51, 67
2, 871360, Note_on_c, 0, 46, 67
2, 871424, Note_off_c, 0, 46, 67
2, 871424, Note_on_c, 0, 39, 67
2, 871488, Note_off_c, 0, 39, 67
2, 871488, Note_on_c, 0, 46, 67
2, 871552, Note_off_c, 0, 46, 67
2, 871552, Note_on_c, 0, 51, 67
2, 871616, Note_off_c, 0, 51, 67
2, 871616, Note_on_c, 0, 53, 67
2, 871680, Note_off_c, 0, 53, 67
2, 871680, Note_on_c, 0, 55, 67
2, 871744, Note_off_c, 0, 55, 67
2, 871744, Note_on_c, 0, 51, 67
2, 871808, Note_off_c, 0, 51, 67
2, 871808, Note_on_c, 0, 58, 67
2, 871872, Note_off_c, 0, 58, 67
2, 871872, Note_on_c, 0, 63, 67
2, 871920, Control_c, 0, 93, 0
2, 871936, Note_off_c, 0, 63, 67
2, 871936, Note_on_c, 0, 44, 67
2, 872000, Note_off_c, 0, 44, 67
2, 872000, Note_on_c, 0, 51, 67
2, 872064, Note_off_c, 0, 51, 67
2, 872064, Note_on_c, 0, 56, 67
2, 872128, Note_off_c, 0, 56, 67
2, 872128, Note_on_c, 0, 58, 67
2, 872192, Note_off_c, 0, 58, 67
2, 872192, Note_on_c, 0, 60, 67
2, 872256, Note_off_c, 0, 60, 67
2, 872256, Note_on_c, 0, 56, 67
2, 872320, Note_off_c, 0, 56, 67
2, 872320, Note_on_c, 0, 63, 67
2, 872384, Note_off_c, 0, 63, 67
2, 872384, Note_on_c, 0, 68, 67
2, 872432, Control_c, 0, 93, 0
2, 872448, Note_off_c, 0, 68, 67
2, 872448, Note_on_c, 0, 46, 67
2, 872512, Note_off_c, 0, 46, 67
2, 872512, Note_on_c, 0, 53, 67
2, 872576, Note_off_c, 0, 53, 67
2, 872576, Note_on_c, 0, 58, 67
2, 872640, Note_off_c, 0, 58, 67
2, 872640, Note_on_c, 0, 60, 67
2, 872704, Note_off_c, 0, 60, 67
2, 872704, Note_on_c, 0, 62, 67
2, 872768, Note_off_c, 0, 62, 67
2, 872768, Note_on_c, 0, 58, 67
2, 872832, Note_off_c, 0, 58, 67
2, 872832, Note_on_c, 0, 65, 67
2, 872896, Note_off_c, 0, 65, 67
2, 872896, Note_on_c, 0, 70, 67
2, 872944, Control_c, 0, 93, 0
2, 872960, Note_off_c, 0, 70, 67
2, 872960, Note_on_c, 0, 39, 67
2, 873024, Note_off_c, 0, 39, 67
2, 873024, Note_on_c, 0, 46, 67
2, 873088, Note_off_c, 0, 46, 67
2, 873088, Note_on_c, 0, 51, 67
2, 873152, Note_off_c, 0, 51, 67
2, 873152, Control_c, 0, 64, 64
2, 873152, Note_on_c, 0, 55, 67
2, 873162, Note_off_c, 0, 55, 67
2, 873162, Note_on_c, 0, 58, 67
2, 873173, Note_off_c, 0, 58, 67
2, 873173, Note_on_c, 0, 63, 67
2, 873183, Note_off_c, 0, 63, 67
2, 873184, Control_c, 0, 93, 0
2, 873184, Note_on_c, 0, 67, 67
2, 873194, Note_off_c, 0, 67, 67
2, 873194, Note_on_c, 0, 70, 67
2, 873205, Note_off_c, 0, 70, 67
2, 873205, Note_on_c, 0, 75, 67
2, 873215, Note_off_c, 0, 75, 67
2, 873216, Control_c, 0, 93, 0
2, 873344, Control_c, 0, 93, 0
2, 873408, Control_c, 0, 93, 0
2, 873408, Control_c, 0, 64, 0
2, 873472, Control_c, 0, 93, 0
2, 873472, Note_on_c, 0, 51, 67
2, 873536, Note_off_c, 0, 51, 67
2, 873600, Note_off_c, 0, 51, 67
2, 873600, Note_on_c, 0, 63, 67
2, 873664, Note_off_c, 0, 63, 67
2, 873728, Note_off_c, 0, 63, 67
2, 873728, Note_on_c, 0, 50, 67
2, 873792, Note_off_c, 0, 50, 67
2, 873856, Note_off_c, 0, 50, 67
2, 873856, Note_on_c, 0, 62, 67
2, 873920, Note_off_c, 0, 62, 67
2, 873984, Note_off_c, 0, 62, 67
2, 873984, Note_on_c, 0, 48, 67
2, 874048, Note_off_c, 0, 48, 67
2, 874112, Note_off_c, 0, 48, 67
2, 874112, Note_on_c, 0, 60, 67
2, 874176, Note_off_c, 0, 60, 67
2, 874240, Note_off_c, 0, 60, 67
2, 874240, Note_on_c, 0, 46, 67
2, 874304, Note_off_c, 0, 46, 67
2, 874368, Note_off_c, 0, 46, 67
2, 874368, Note_on_c, 0, 58, 67
2, 874432, Note_off_c, 0, 58, 67
2, 874496, Note_off_c, 0, 58, 67
2, 874496, Note_on_c, 0, 51, 67
2, 874560, Note_off_c, 0, 51, 67
2, 874624, Note_off_c, 0, 51, 67
2, 874624, Note_on_c, 0, 63, 67
2, 874688, Note_off_c, 0, 63, 67
2, 874752, Note_off_c, 0, 63, 67
2, 874752, Note_on_c, 0, 46, 67
2, 874816, Note_off_c, 0, 46, 67
2, 874880, Note_off_c, 0, 46, 67
2, 874880, Note_on_c, 0, 58, 67
2, 874944, Note_off_c, 0, 58, 67
2, 875008, Note_off_c, 0, 58, 67
2, 875008, Note_on_c, 0, 48, 67
2, 875072, Note_off_c, 0, 48, 67
2, 875136, Note_off_c, 0, 48, 67
2, 875136, Note_on_c, 0, 60, 67
2, 875200, Note_off_c, 0, 60, 67
2, 875264, Note_off_c, 0, 60, 67
2, 875264, Note_on_c, 0, 46, 67
2, 875328, Note_off_c, 0, 46, 67
2, 875392, Note_off_c, 0, 46, 67
2, 875392, Note_on_c, 0, 58, 67
2, 875456, Note_off_c, 0, 58, 67
2, 875520, Note_off_c, 0, 58, 67
2, 875520, Note_on_c, 0, 50, 67
2, 875584, Note_off_c, 0, 50, 67
2, 875648, Note_off_c, 0, 50, 67
2, 875648, Note_on_c, 0, 62, 67
2, 875712, Note_off_c, 0, 62, 67
2, 875776, Note_off_c, 0, 62, 67
2, 875776, Note_on_c, 0, 46, 67
2, 875840, Note_off_c, 0, 46, 67
2, 875904, Note_off_c, 0, 46, 67
2, 875904, Note_on_c, 0, 58, 67
2, 875968, Note_off_c, 0, 58, 67
2, 876032, Note_off_c, 0, 58, 67
2, 876032, Note_on_c, 0, 48, 67
2, 876096, Note_off_c, 0, 48, 67
2, 876160, Note_off_c, 0, 48, 67
2, 876160, Note_on_c, 0, 60, 67
2, 876224, Note_off_c, 0, 60, 67
2, 876288, Note_off_c, 0, 60, 67
2, 876288, Note_on_c, 0, 49, 67
2, 876352, Note_off_c, 0, 49, 67
2, 876416, Note_off_c, 0, 49, 67
2, 876416, Note_on_c, 0, 61, 67
2, 876480, Note_off_c, 0, 61, 67
2, 876544, Note_off_c, 0, 61, 67
2, 876544, Note_on_c, 0, 50, 67
2, 876608, Note_off_c, 0, 50, 67
2, 876672, Note_off_c, 0, 50, 67
2, 876672, Note_on_c, 0, 62, 67
2, 876736, Note_off_c, 0, 62, 67
2, 876800, Note_off_c, 0, 62, 67
2, 876800, Note_on_c, 0, 46, 67
2, 876864, Note_off_c, 0, 46, 67
2, 876928, Note_off_c, 0, 46, 67
2, 876928, Note_on_c, 0, 58, 67
2, 876992, Note_off_c, 0, 58, 67
2, 877056, Note_off_c, 0, 58, 67
2, 877056, Note_on_c, 0, 51, 67
2, 877120, Note_off_c, 0, 51, 67
2, 877184, Note_off_c, 0, 51, 67
2, 877184, Note_on_c, 0, 63, 67
2, 877248, Note_off_c, 0, 63, 67
2, 877312, Note_off_c, 0, 63, 67
2, 877312, Note_on_c, 0, 46, 67
2, 877376, Note_off_c, 0, 46, 67
2, 877440, Note_off_c, 0, 46, 67
2, 877440, Note_on_c, 0, 58, 67
2, 877504, Note_off_c, 0, 58, 67
2, 877568, Note_off_c, 0, 58, 67
2, 877568, Note_on_c, 0, 51, 67
2, 877632, Note_off_c, 0, 51, 67
2, 877696, Note_off_c, 0, 51, 67
2, 877696, Note_on_c, 0, 63, 67
2, 877760, Note_off_c, 0, 63, 67
2, 877824, Note_off_c, 0, 63, 67
2, 877824, Note_on_c, 0, 50, 67
2, 877888, Note_off_c, 0, 50, 67
2, 877952, Note_off_c, 0, 50, 67
2, 877952, Note_on_c, 0, 62, 67
2, 878016, Note_off_c, 0, 62, 67
2, 878080, Note_off_c, 0, 62, 67
2, 878080, Note_on_c, 0, 48, 67
2, 878144, Note_off_c, 0, 48, 67
2, 878208, Note_off_c, 0, 48, 67
2, 878208, Note_on_c, 0, 60, 67
2, 878272, Note_off_c, 0, 60, 67
2, 878336, Note_off_c, 0, 60, 67
2, 878336, Note_on_c, 0, 46, 67
2, 878400, Note_off_c, 0, 46, 67
2, 878464, Note_off_c, 0, 46, 67
2, 878464, Note_on_c, 0, 58, 67
2, 878528, Note_off_c, 0, 58, 67
2, 878592, Note_off_c, 0, 58, 67
2, 878592, Note_on_c, 0, 51, 67
2, 878656, Note_off_c, 0, 51, 67
2, 878720, Note_off_c, 0, 51, 67
2, 878720, Note_on_c, 0, 63, 67
2, 878784, Note_off_c, 0, 63, 67
2, 878848, Note_off_c, 0, 63, 67
2, 878848, Note_on_c, 0, 46, 67
2, 878912, Note_off_c, 0, 46, 67
2, 878976, Note_off_c, 0, 46, 67
2, 878976, Note_on_c, 0, 58, 67
2, 879040, Note_off_c, 0, 58, 67
2, 879104, Note_off_c, 0, 58, 67
2, 879104, Note_on_c, 0, 48, 67
2, 879168, Note_off_c, 0, 48, 67
2, 879232, Note_off_c, 0, 48, 67
2, 879232, Note_on_c, 0, 60, 67
2, 879296, Note_off_c, 0, 60, 67
2, 879360, Note_off_c, 0, 60, 67
2, 879360, Note_on_c, 0, 46, 67
2, 879424, Note_off_c, 0, 46, 67
2, 879488, Note_off_c, 0, 46, 67
2, 879488, Note_on_c, 0, 58, 67
2, 879552, Note_off_c, 0, 58, 67
2, 879616, Note_off_c, 0, 58, 67
2, 879616, Note_on_c, 0, 50, 67
2, 879680, Note_off_c, 0, 50, 67
2, 879744, Note_off_c, 0, 50, 67
2, 879744, Note_on_c, 0, 62, 67
2, 879808, Note_off_c, 0, 62, 67
2, 879872, Note_off_c, 0, 62, 67
2, 879872, Note_on_c, 0, 48, 67
2, 879936, Note_off_c, 0, 48, 67
2, 880000, Note_off_c, 0, 48, 67
2, 880000, Note_on_c, 0, 60, 67
2, 880064, Note_off_c, 0, 60, 67
2, 880128, Note_off_c, 0, 60, 67
2, 880128, Note_on_c, 0, 46, 67
2, 880192, Note_off_c, 0, 46, 67
2, 880256, Note_off_c, 0, 46, 67
2, 880256, Note_on_c, 0, 58, 67
2, 880320, Note_off_c, 0, 58, 67
2, 880384, Note_off_c, 0, 58, 67
2, 880384, Note_on_c, 0, 48, 67
2, 880448, Note_off_c, 0, 48, 67
2, 880512, Note_off_c, 0, 48, 67
2, 880512, Note_on_c, 0, 60, 67
2, 880576, Note_off_c, 0, 60, 67
2, 880640, Note_off_c, 0, 60, 67
2, 880640, Note_on_c, 0, 50, 67
2, 880704, Note_off_c, 0, 50, 67
2, 880768, Note_off_c, 0, 50, 67
2, 880768, Note_on_c, 0, 62, 67
2, 880832, Note_off_c, 0, 62, 67
2, 880896, Note_off_c, 0, 62, 67
2, 880896, Note_on_c, 0, 46, 67
2, 880960, Note_off_c, 0, 46, 67
2, 881024, Note_off_c, 0, 46, 67
2, 881024, Note_on_c, 0, 58, 67
2, 881088, Note_off_c, 0, 58, 67
2, 881152, Note_off_c, 0, 58, 67
2, 881152, Note_on_c, 0, 51, 67
2, 881216, Note_off_c, 0, 51, 67
2, 881280, Note_off_c, 0, 51, 67
2, 881280, Note_on_c, 0, 63, 67
2, 881344, Note_off_c, 0, 63, 67
2, 881408, Note_off_c, 0, 63, 67
2, 881408, Note_on_c, 0, 46, 67
2, 881472, Note_off_c, 0, 46, 67
2, 881536, Note_off_c, 0, 46, 67
2, 881536, Note_on_c, 0, 58, 67
2, 881600, Note_off_c, 0, 58, 67
2, 881664, Note_off_c, 0, 58, 67
2, 881664, Note_on_c, 0, 39, 67
2, 881728, Note_off_c, 0, 39, 67
2, 881728, Note_on_c, 0, 46, 67
2, 881792, Note_off_c, 0, 46, 67
2, 881792, Note_on_c, 0, 51, 67
2, 881856, Note_off_c, 0, 51, 67
2, 881856, Note_on_c, 0, 53, 67
2, 881920, Note_off_c, 0, 53, 67
2, 881920, Note_on_c, 0, 55, 67
2, 881984, Note_off_c, 0, 55, 67
2, 881984, Note_on_c, 0, 51, 67
2, 882048, Note_off_c, 0, 51, 67
2, 882048, Note_on_c, 0, 58, 67
2, 882112, Note_off_c, 0, 58, 67
2, 882112, Note_on_c, 0, 63, 67
2, 882160, Control_c, 0, 93, 0
2, 882176, Note_off_c, 0, 63, 67
2, 882176, Note_on_c, 0, 44, 67
2, 882240, Note_off_c, 0, 44, 67
2, 882240, Note_on_c, 0, 51, 67
2, 882304, Note_off_c, 0, 51, 67
2, 882304, Note_on_c, 0, 56, 67
2, 882368, Note_off_c, 0, 56, 67
2, 882368, Note_on_c, 0, 58, 67
2, 882432, Note_off_c, 0, 58, 67
2, 882432, Note_on_c, 0, 60, 67
2, 882496, Note_off_c, 0, 60, 67
2, 882496, Note_on_c, 0, 56, 67
2, 882560, Note_off_c, 0, 56, 67
2, 882560, Note_on_c, 0, 63, 67
2, 882624, Note_off_c, 0, 63, 67
2, 882624, Note_on_c, 0, 68, 67
2, 882672, Control_c, 0, 93, 0
2, 882688, Note_off_c, 0, 68, 67
2, 882688, Note_on_c, 0, 46, 67
2, 882752, Note_off_c, 0, 46, 67
2, 882752, Note_on_c, 0, 53, 67
2, 882816, Note_off_c, 0, 53, 67
2, 882816, Note_on_c, 0, 58, 67
2, 882880, Note_off_c, 0, 58, 67
2, 882880, Note_on_c, 0, 60, 67
2, 882944, Note_off_c, 0, 60, 67
2, 882944, Note_on_c, 0, 62, 67
2, 883008, Note_off_c, 0, 62, 67
2, 883008, Note_on_c, 0, 58, 67
2, 883072, Note_off_c, 0, 58, 67
2, 883072, Note_on_c, 0, 65, 67
2, 883136, Note_off_c, 0, 65, 67
2, 883136, Note_on_c, 0, 70, 67
2, 883184, Control_c, 0, 93, 0
2, 883200, Note_off_c, 0, 70, 67
2, 883200, Note_on_c, 0, 41, 67
2, 883264, Note_off_c, 0, 41, 67
2, 883264, Note_on_c, 0, 44, 67
2, 883328, Note_off_c, 0, 44, 67
2, 883328, Control_c, 0, 64, 64
2, 883328, Note_on_c, 0, 50, 67
2, 883349, Note_off_c, 0, 50, 67
2, 883349, Note_on_c, 0, 53, 67
2, 883370, Note_off_c, 0, 53, 67
2, 883370, Note_on_c, 0, 58, 67
2, 883391, Note_off_c, 0, 58, 67
2, 883392, Control_c, 0, 93, 0
2, 883392, Note_on_c, 0, 62, 67
2, 883413, Note_off_c, 0, 62, 67
2, 883413, Note_on_c, 0, 65, 67
2, 883434, Note_off_c, 0, 65, 67
2, 883434, Note_on_c, 0, 70, 67
2, 883456, Control_c, 0, 93, 0
2, 883456, Control_c, 0, 64, 0
2, 883584, Note_off_c, 0, 70, 67
2, 883584, Note_on_c, 0, 51, 67
2, 883648, Note_off_c, 0, 51, 67
2, 883648, Note_on_c, 0, 46, 67
2, 883712, Note_off_c, 0, 46, 67
2, 883712, Note_on_c, 0, 39, 67
2, 883776, Note_off_c, 0, 39, 67
2, 883776, Note_on_c, 0, 46, 67
2, 883840, Note_off_c, 0, 46, 67
2, 883840, Note_on_c, 0, 51, 67
2, 883904, Note_off_c, 0, 51, 67
2, 883904, Note_on_c, 0, 53, 67
2, 883968, Note_off_c, 0, 53, 67
2, 883968, Note_on_c, 0, 55, 67
2, 884032, Note_off_c, 0, 55, 67
2, 884032, Note_on_c, 0, 51, 67
2, 884096, Note_off_c, 0, 51, 67
2, 884096, Note_on_c, 0, 58, 67
2, 884160, Note_off_c, 0, 58, 67
2, 884160, Note_on_c, 0, 63, 67
2, 884208, Control_c, 0, 93, 0
2, 884224, Note_off_c, 0, 63, 67
2, 884224, Note_on_c, 0, 44, 67
2, 884288, Note_off_c, 0, 44, 67
2, 884288, Note_on_c, 0, 51, 67
2, 884352, Note_off_c, 0, 51, 67
2, 884352, Note_on_c, 0, 56, 67
2, 884416, Note_off_c, 0, 56, 67
2, 884416, Note_on_c, 0, 58, 67
2, 884480, Note_off_c, 0, 58, 67
2, 884480, Note_on_c, 0, 60, 67
2, 884544, Note_off_c, 0, 60, 67
2, 884544, Note_on_c, 0, 56, 67
2, 884608, Note_off_c, 0, 56, 67
2, 884608, Note_on_c, 0, 63, 67
2, 884672, Note_off_c, 0, 63, 67
2, 884672, Note_on_c, 0, 68, 67
2, 884720, Control_c, 0, 93, 0
2, 884736, Note_off_c, 0, 68, 67
2, 884736, Note_on_c, 0, 46, 67
2, 884800, Note_off_c, 0, 46, 67
2, 884800, Note_on_c, 0, 53, 67
2, 884864, Note_off_c, 0, 53, 67
2, 884864, Note_on_c, 0, 58, 67
2, 884928, Note_off_c, 0, 58, 67
2, 884928, Note_on_c, 0, 60, 67
2, 884992, Note_off_c, 0, 60, 67
2, 884992, Note_on_c, 0, 62, 67
2, 885056, Note_off_c, 0, 62, 67
2, 885056, Note_on_c, 0, 58, 67
2, 885120, Note_off_c, 0, 58, 67
2, 885120, Note_on_c, 0, 65, 67
2, 885184, Note_off_c, 0, 65, 67
2, 885184, Note_on_c, 0, 70, 67
2, 885232, Control_c, 0, 93, 0
2, 885248, Note_off_c, 0, 70, 67
2, 885248, Note_on_c, 0, 39, 67
2, 885312, Note_off_c, 0, 39, 67
2, 885312, Note_on_c, 0, 46, 67
2, 885376, Note_off_c, 0, 46, 67
2, 885376, Note_on_c, 0, 51, 67
2, 885440, Note_off_c, 0, 51, 67
2, 885440, Control_c, 0, 64, 64
2, 885440, Note_on_c, 0, 55, 67
2, 885450, Note_off_c, 0, 55, 67
2, 885450, Note_on_c, 0, 58, 67
2, 885461, Note_off_c, 0, 58, 67
2, 885461, Note_on_c, 0, 63, 67
2, 885471, Note_off_c, 0, 63, 67
2, 885472, Control_c, 0, 93, 0
2, 885472, Note_on_c, 0, 67, 67
2, 885482, Note_off_c, 0, 67, 67
2, 885482, Note_on_c, 0, 70, 67
2, 885493, Note_off_c, 0, 70, 67
2, 885493, Note_on_c, 0, 75, 67
2, 885503, Note_off_c, 0, 75, 67
2, 885504, Control_c, 0, 93, 0
2, 885632, Control_c, 0, 93, 0
2, 885696, Control_c, 0, 93, 0
2, 885696, Control_c, 0, 64, 0
2, 885760, Control_c, 0, 93, 0
2, 885760, Note_on_c, 0, 51, 67
2, 885824, Note_off_c, 0, 51, 67
2, 885888, Note_off_c, 0, 51, 67
2, 885888, Note_on_c, 0, 63, 67
2, 885952, Note_off_c, 0, 63, 67
2, 886016, Note_off_c, 0, 63, 67
2, 886016, Note_on_c, 0, 50, 67
2, 886080, Note_off_c, 0, 50, 67
2, 886144, Note_off_c, 0, 50, 67
2, 886144, Note_on_c, 0, 62, 67
2, 886208, Note_off_c, 0, 62, 67
2, 886272, Note_off_c, 0, 62, 67
2, 886272, Note_on_c, 0, 48, 67
2, 886336, Note_off_c, 0, 48, 67
2, 886400, Note_off_c, 0, 48, 67
2, 886400, Note_on_c, 0, 60, 67
2, 886464, Note_off_c, 0, 60, 67
2, 886528, Note_off_c, 0, 60, 67
2, 886528, Note_on_c, 0, 46, 67
2, 886592, Note_off_c, 0, 46, 67
2, 886656, Note_off_c, 0, 46, 67
2, 886656, Note_on_c, 0, 58, 67
2, 886720, Note_off_c, 0, 58, 67
2, 886784, Note_off_c, 0, 58, 67
2, 886784, Note_on_c, 0, 51, 67
2, 886848, Note_off_c, 0, 51, 67
2, 886912, Note_off_c, 0, 51, 67
2, 886912, Note_on_c, 0, 63, 67
2, 886976, Note_off_c, 0, 63, 67
2, 887040, Note_off_c, 0, 63, 67
2, 887040, Note_on_c, 0, 46, 67
2, 887104, Note_off_c, 0, 46, 67
2, 887168, Note_off_c, 0, 46, 67
2, 887168, Note_on_c, 0, 58, 67
2, 887232, Note_off_c, 0, 58, 67
2, 887296, Note_off_c, 0, 58, 67
2, 887296, Note_on_c, 0, 48, 67
2, 887360, Note_off_c, 0, 48, 67
2, 887424, Note_off_c, 0, 48, 67
2, 887424, Note_on_c, 0, 60, 67
2, 887488, Note_off_c, 0, 60, 67
2, 887552, Note_off_c, 0, 60, 67
2, 887552, Note_on_c, 0, 46, 67
2, 887616, Note_off_c, 0, 46, 67
2, 887680, Note_off_c, 0, 46, 67
2, 887680, Note_on_c, 0, 58, 67
2, 887744, Note_off_c, 0, 58, 67
2, 887808, Note_off_c, 0, 58, 67
2, 887808, Note_on_c, 0, 50, 67
2, 887872, Note_off_c, 0, 50, 67
2, 887936, Note_off_c, 0, 50, 67
2, 887936, Note_on_c, 0, 62, 67
2, 888000, Note_off_c, 0, 62, 67
2, 888064, Note_off_c, 0, 62, 67
2, 888064, Note_on_c, 0, 46, 67
2, 888128, Note_off_c, 0, 46, 67
2, 888192, Note_off_c, 0, 46, 67
2, 888192, Note_on_c, 0, 58, 67
2, 888256, Note_off_c, 0, 58, 67
2, 888320, Note_off_c, 0, 58, 67
2, 888320, Note_on_c, 0, 48, 67
2, 888384, Note_off_c, 0, 48, 67
2, 888448, Note_off_c, 0, 48, 67
2, 888448, Note_on_c, 0, 60, 67
2, 888512, Note_off_c, 0, 60, 67
2, 888576, Note_off_c, 0, 60, 67
2, 888576, Note_on_c, 0, 49, 67
2, 888640, Note_off_c, 0, 49, 67
2, 888704, Note_off_c, 0, 49, 67
2, 888704, Note_on_c, 0, 61, 67
2, 888768, Note_off_c, 0, 61, 67
2, 888832, Note_off_c, 0, 61, 67
2, 888832, Note_on_c, 0, 50, 67
2, 888896, Note_off_c, 0, 50, 67
2, 888960, Note_off_c, 0, 50, 67
2, 888960, Note_on_c, 0, 62, 67
2, 889024, Note_off_c, 0, 62, 67
2, 889088, Note_off_c, 0, 62, 67
2, 889088, Note_on_c, 0, 46, 67
2, 889152, Note_off_c, 0, 46, 67
2, 889216, Note_off_c, 0, 46, 67
2, 889216, Note_on_c, 0, 58, 67
2, 889280, Note_off_c, 0, 58, 67
2, 889344, Note_off_c, 0, 58, 67
2, 889344, Note_on_c, 0, 51, 67
2, 889408, Note_off_c, 0, 51, 67
2, 889472, Note_off_c, 0, 51, 67
2, 889472, Note_on_c, 0, 63, 67
2, 889536, Note_off_c, 0, 63, 67
2, 889600, Note_off_c, 0, 63, 67
2, 889600, Note_on_c, 0, 46, 67
2, 889664, Note_off_c, 0, 46, 67
2, 889728, Note_off_c, 0, 46, 67
2, 889728, Note_on_c, 0, 58, 67
2, 889792, Note_off_c, 0, 58, 67
2, 889856, Note_off_c, 0, 58, 67
2, 889856, Note_on_c, 0, 51, 67
2, 889920, Note_off_c, 0, 51, 67
2, 889984, Note_off_c, 0, 51, 67
2, 889984, Note_on_c, 0, 63, 67
2, 890048, Note_off_c, 0, 63, 67
2, 890112, Note_off_c, 0, 63, 67
2, 890112, Note_on_c, 0, 50, 67
2, 890176, Note_off_c, 0, 50, 67
2, 890240, Note_off_c, 0, 50, 67
2, 890240, Note_on_c, 0, 62, 67
2, 890304, Note_off_c, 0, 62, 67
2, 890368, Note_off_c, 0, 62, 67
2, 890368, Note_on_c, 0, 48, 67
2, 890432, Note_off_c, 0, 48, 67
2, 890496, Note_off_c, 0, 48, 67
2, 890496, Note_on_c, 0, 60, 67
2, 890560, Note_off_c, 0, 60, 67
2, 890624, Note_off_c, 0, 60, 67
2, 890624, Note_on_c, 0, 46, 67
2, 890688, Note_off_c, 0, 46, 67
2, 890752, Note_off_c, 0, 46, 67
2, 890752, Note_on_c, 0, 58, 67
2, 890816, Note_off_c, 0, 58, 67
2, 890880, Note_off_c, 0, 58, 67
2, 890880, Note_on_c, 0, 51, 67
2, 890944, Note_off_c, 0, 51, 67
2, 891008, Note_off_c, 0, 51, 67
2, 891008, Note_on_c, 0, 63, 67
2, 891072, Note_off_c, 0, 63, 67
2, 891136, Note_off_c, 0, 63, 67
2, 891136, Note_on_c, 0, 46, 67
2, 891200, Note_off_c, 0, 46, 67
2, 891264, Note_off_c, 0, 46, 67
2, 891264, Note_on_c, 0, 58, 67
2, 891328, Note_off_c, 0, 58, 67
2, 891392, Note_off_c, 0, 58, 67
2, 891392, Note_on_c, 0, 48, 67
2, 891456, Note_off_c, 0, 48, 67
2, 891520, Note_off_c, 0, 48, 67
2, 891520, Note_on_c, 0, 60, 67
2, 891584, Note_off_c, 0, 60, 67
2, 891648, Note_off_c, 0, 60, 67
2, 891648, Note_on_c, 0, 46, 67
2, 891712, Note_off_c, 0, 46, 67
2, 891776, Note_off_c, 0, 46, 67
2, 891776, Note_on_c, 0, 58, 67
2, 891840, Note_off_c, 0, 58, 67
2, 891904, Note_off_c, 0, 58, 67
2, 891904, Note_on_c, 0, 50, 67
2, 891968, Note_off_c, 0, 50, 67
2, 892032, Note_off_c, 0, 50, 67
2, 892032, Note_on_c, 0, 62, 67
2, 892096, Note_off_c, 0, 62, 67
2, 892160, Note_off_c, 0, 62, 67
2, 892160, Note_on_c, 0, 48, 67
2, 892224, Note_off_c, 0, 48, 67
2, 892288, Note_off_c, 0, 48, 67
2, 892288, Note_on_c, 0, 60, 67
2, 892352, Note_off_c, 0, 60, 67
2, 892416, Note_off_c, 0, 60, 67
2, 892416, Note_on_c, 0, 46, 67
2, 892480, Note_off_c, 0, 46, 67
2, 892544, Note_off_c, 0, 46, 67
2, 892544, Note_on_c, 0, 58, 67
2, 892608, Note_off_c, 0, 58, 67
2, 892672, Note_off_c, 0, 58, 67
2, 892672, Note_on_c, 0, 48, 67
2, 892736, Note_off_c, 0, 48, 67
2, 892800, Note_off_c, 0, 48, 67
2, 892800, Note_on_c, 0, 60, 67
2, 892864, Note_off_c, 0, 60, 67
2, 892928, Note_off_c, 0, 60, 67
2, 892928, Note_on_c, 0, 50, 67
2, 892992, Note_off_c, 0, 50, 67
2, 893056, Note_off_c, 0, 50, 67
2, 893056, Note_on_c, 0, 62, 67
2, 893120, Note_off_c, 0, 62, 67
2, 893184, Note_off_c, 0, 62, 67
2, 893184, Note_on_c, 0, 46, 67
2, 893248, Note_off_c, 0, 46, 67
2, 893312, Note_off_c, 0, 46, 67
2, 893312, Note_on_c, 0, 58, 67
2, 893376, Note_off_c, 0, 58, 67
2, 893440, Note_off_c, 0, 58, 67
2, 893440, Note_on_c, 0, 51, 67
2, 893504, Note_off_c, 0, 51, 67
2, 893568, Note_off_c, 0, 51, 67
2, 893568, Note_on_c, 0, 63, 67
2, 893632, Note_off_c, 0, 63, 67
2, 893696, Note_off_c, 0, 63, 67
2, 893696, Note_on_c, 0, 46, 67
2, 893760, Note_off_c, 0, 46, 67
2, 893824, Note_off_c, 0, 46, 67
2, 893824, Note_on_c, 0, 58, 67
2, 893888, Note_off_c, 0, 58, 67
2, 893952, Note_off_c, 0, 58, 67
2, 893952, Note_on_c, 0, 39, 67
2, 894016, Note_off_c, 0, 39, 67
2, 894016, Note_on_c, 0, 46, 67
2, 894080, Note_off_c, 0, 46, 67
2, 894080, Note_on_c, 0, 51, 67
2, 894144, Note_off_c, 0, 51, 67
2, 894144, Note_on_c, 0, 53, 67
2, 894208, Note_off_c, 0, 53, 67
2, 894208, Note_on_c, 0, 55, 67
2, 894272, Note_off_c, 0, 55, 67
2, 894272, Note_on_c, 0, 51, 67
2, 894336, Note_off_c, 0, 51, 67
2, 894336, Note_on_c, 0, 58, 67
2, 894400, Note_off_c, 0, 58, 67
2, 894400, Note_on_c, 0, 63, 67
2, 894448, Control_c, 0, 93, 0
2, 894464, Note_off_c, 0, 63, 67
2, 894464, Note_on_c, 0, 44, 67
2, 894528, Note_off_c, 0, 44, 67
2, 894528, Note_on_c, 0, 51, 67
2, 894592, Note_off_c, 0, 51, 67
2, 894592, Note_on_c, 0, 56, 67
2, 894656, Note_off_c, 0, 56, 67
2, 894656, Note_on_c, 0, 58, 67
2, 894720, Note_off_c, 0, 58, 67
2, 894720, Note_on_c, 0, 60, 67
2, 894784, Note_off_c, 0, 60, 67
2, 894784, Note_on_c, 0, 56, 67
2, 894848, Note_off_c, 0, 56, 67
2, 894848, Note_on_c, 0, 63, 67
2, 894912, Note_off_c, 0, 63, 67
2, 894912, Note_on_c, 0, 68, 67
2, 894960, Control_c, 0, 93, 0
2, 894976, Note_off_c, 0, 68, 67
2, 894976, Note_on_c, 0, 46, 67
2, 895040, Note_off_c, 0, 46, 67
2, 895040, Note_on_c, 0, 53, 67
2, 895104, Note_off_c, 0, 53, 67
2, 895104, Note_on_c, 0, 58, 67
2, 895168, Note_off_c, 0, 58, 67
2, 895168, Note_on_c, 0, 60, 67
2, 895232, Note_off_c, 0, 60, 67
2, 895232, Note_on_c, 0, 62, 67
2, 895296, Note_off_c, 0, 62, 67
2, 895296, Note_on_c, 0, 58, 67
2, 895360, Note_off_c, 0, 58, 67
2, 895360, Note_on_c, 0, 65, 67
2, 895424, Note_off_c, 0, 65, 67
2, 895424, Note_on_c, 0, 70, 67
2, 895472, Control_c, 0, 93, 0
2, 895488, Note_off_c, 0, 70, 67
2, 895488, Note_on_c, 0, 41, 67
2, 895552, Note_off_c, 0, 41, 67
2, 895552, Note_on_c, 0, 44, 67
2, 895616, Note_off_c, 0, 44, 67
2, 895616, Control_c, 0, 64, 64
2, 895616, Note_on_c, 0, 50, 67
2, 895637, Note_off_c, 0, 50, 67
2, 895637, Note_on_c, 0, 53, 67
2, 895658, Note_off_c, 0, 53, 67
2, 895658, Note_on_c, 0, 58, 67
2, 895679, Note_off_c, 0, 58, 67
2, 895680, Control_c, 0, 93, 0
2, 895680, Note_on_c, 0, 62, 67
2, 895701, Note_off_c, 0, 62, 67
2, 895701, Note_on_c, 0, 65, 67
2, 895722, Note_off_c, 0, 65, 67
2, 895722, Note_on_c, 0, 70, 67
2, 895744, Control_c, 0, 93, 0
2, 895744, Control_c, 0, 64, 0
2, 895872, Note_off_c, 0, 70, 67
2, 895872, Note_on_c, 0, 51, 67
2, 895936, Note_off_c, 0, 51, 67
2, 895936, Note_on_c, 0, 46, 67
2, 896000, Note_off_c, 0, 46, 67
2, 896000, Note_on_c, 0, 39, 67
2, 896064, Note_off_c, 0, 39, 67
2, 896064, Note_on_c, 0, 46, 67
2, 896128, Note_off_c, 0, 46, 67
2, 896128, Note_on_c, 0, 51, 67
2, 896192, Note_off_c, 0, 51, 67
2, 896192, Note_on_c, 0, 53, 67
2, 896256, Note_off_c, 0, 53, 67
2, 896256, Note_on_c, 0, 55, 67
2, 896320, Note_off_c, 0, 55, 67
2, 896320, Note_on_c, 0, 51, 67
2, 896384, Note_off_c, 0, 51, 67
2, 896384, Note_on_c, 0, 58, 67
2, 896448, Note_off_c, 0, 58, 67
2, 896448, Note_on_c, 0, 63, 67
2, 896496, Control_c, 0, 93, 0
2, 896512, Note_off_c, 0, 63, 67
2, 896512, Note_on_c, 0, 44, 67
2, 896576, Note_off_c, 0, 44, 67
2, 896576, Note_on_c, 0, 51, 67
2, 896640, Note_off_c, 0, 51, 67
2, 896640, Note_on_c, 0, 56, 67
2, 896704, Note_off_c, 0, 56, 67
2, 896704, Note_on_c, 0, 58, 67
2, 896768, Note_off_c, 0, 58, 67
2, 896768, Note_on_c, 0, 60, 67
2, 896832, Note_off_c, 0, 60, 67
2, 896832, Note_on_c, 0, 56, 67
2, 896896, Note_off_c, 0, 56, 67
2, 896896, Note_on_c, 0, 63, 67
2, 896960, Note_off_c, 0, 63, 67
2, 896960, Note_on_c, 0, 68, 67
2, 897008, Control_c, 0, 93, 0
2, 897024, Note_off_c, 0, 68, 67
2, 897024, Note_on_c, 0, 46, 67
2, 897088, Note_off_c, 0, 46, 67
2, 897088, Note_on_c, 0, 53, 67
2, 897152, Note_off_c, 0, 53, 67
2, 897152, Note_on_c, 0, 58, 67
2, 897216, Note_off_c, 0, 58, 67
2, 897216, Note_on_c, 0, 60, 67
2, 897280, Note_off_c, 0, 60, 67
2, 897280, Note_on_c, 0, 62, 67
2, 897344, Note_off_c, 0, 62, 67
2, 897344, Note_on_c, 0, 58, 67
2, 897408, Note_off_c, 0, 58, 67
2, 897408, Note_on_c, 0, 65, 67
2, 897472, Note_off_c, 0, 65, 67
2, 897472, Note_on_c, 0, 70, 67
2, 897520, Control_c, 0, 93, 0
2, 897536, Note_off_c, 0, 70, 67
2, 897536, Note_on_c, 0, 39, 67
2, 897600, Note_off_c, 0, 39, 67
2, 897600, Note_on_c, 0, 46, 67
2, 897664, Note_off_c, 0, 46, 67
2, 897664, Note_on_c, 0, 51, 67
2, 897728, Note_off_c, 0, 51, 67
2, 897728, Control_c, 0, 64, 64
2, 897728, Note_on_c, 0, 55, 67
2, 897738, Note_off_c, 0, 55, 67
2, 897738, Note_on_c, 0, 58, 67
2, 897749, Note_off_c, 0, 58, 67
2, 897749, Note_on_c, 0, 63, 67
2, 897759, Note_off_c, 0, 63, 67
2, 897760, Control_c, 0, 93, 0
2, 897760, Note_on_c, 0, 67, 67
2, 897770, Note_off_c, 0, 67, 67
2, 897770, Note_on_c, 0, 70, 67
2, 897781, Note_off_c, 0, 70, 67
2, 897781, Note_on_c, 0, 75, 67
2, 897791, Note_off_c, 0, 75, 67
2, 897792, Control_c, 0, 93, 0
2, 897920, Control_c, 0, 93, 0
2, 897984, Control_c, 0, 93, 0
2, 897984, Control_c, 0, 64, 0
2, 898048, Control_c, 0, 93, 0
2, 898048, Note_on_c, 0, 51, 67
2, 898112, Note_off_c, 0, 51, 67
2, 898176, Note_off_c, 0, 51, 67
2, 898176, Note_on_c, 0, 63, 67
2, 898240, Note_off_c, 0, 63, 67
2, 898304, Note_off_c, 0, 63, 67
2, 898304, Note_on_c, 0, 50, 67
2, 898368, Note_off_c, 0, 50, 67
2, 898432, Note_off_c, 0, 50, 67
2, 898432, Note_on_c, 0, 62, 67
2, 898496, Note_off_c, 0, 62, 67
2, 898560, Note_off_c, 0, 62, 67
2, 898560, Note_on_c, 0, 48, 67
2, 898624, Note_off_c, 0, 48, 67
2, 898688, Note_off_c, 0, 48, 67
2, 898688, Note_on_c, 0, 60, 67
2, 898752, Note_off_c, 0, 60, 67
2, 898816, Note_off_c, 0, 60, 67
2, 898816, Note_on_c, 0, 46, 67
2, 898880, Note_off_c, 0, 46, 67
2, 898944, Note_off_c, 0, 46, 67
2, 898944, Note_on_c, 0, 58, 67
2, 899008, Note_off_c, 0, 58, 67
2, 899072, Note_off_c, 0, 58, 67
2, 899072, Note_on_c, 0, 51, 67
2, 899136, Note_off_c, 0, 51, 67
2, 899200, Note_off_c, 0, 51, 67
2, 899200, Note_on_c, 0, 63, 67
2, 899264, Note_off_c, 0, 63, 67
2, 899328, Note_off_c, 0, 63, 67
2, 899328, Note_on_c, 0, 46, 67
2, 899392, Note_off_c, 0, 46, 67
2, 899456, Note_off_c, 0, 46, 67
2, 899456, Note_on_c, 0, 58, 67
2, 899520, Note_off_c, 0, 58, 67
2, 899584, Note_off_c, 0, 58, 67
2, 899584, Note_on_c, 0, 48, 67
2, 899648, Note_off_c, 0, 48, 67
2, 899712, Note_off_c, 0, 48, 67
2, 899712, Note_on_c, 0, 60, 67
2, 899776, Note_off_c, 0, 60, 67
2, 899840, Note_off_c, 0, 60, 67
2, 899840, Note_on_c, 0, 46, 67
2, 899904, Note_off_c, 0, 46, 67
2, 899968, Note_off_c, 0, 46, 67
2, 899968, Note_on_c, 0, 58, 67
2, 900032, Note_off_c, 0, 58, 67
2, 900096, Note_off_c, 0, 58, 67
2, 900096, Note_on_c, 0, 50, 67
2, 900160, Note_off_c, 0, 50, 67
2, 900224, Note_off_c, 0, 50, 67
2, 900224, Note_on_c, 0, 62, 67
2, 900288, Note_off_c, 0, 62, 67
2, 900352, Note_off_c, 0, 62, 67
2, 900352, Note_on_c, 0, 46, 67
2, 900416, Note_off_c, 0, 46, 67
2, 900480, Note_off_c, 0, 46, 67
2, 900480, Note_on_c, 0, 58, 67
2, 900544, Note_off_c, 0, 58, 67
2, 900608, Note_off_c, 0, 58, 67
2, 900608, Note_on_c, 0, 48, 67
2, 900672, Note_off_c, 0, 48, 67
2, 900736, Note_off_c, 0, 48, 67
2, 900736, Note_on_c, 0, 60, 67
2, 900800, Note_off_c, 0, 60, 67
2, 900864, Note_off_c, 0, 60, 67
2, 900864, Note_on_c, 0, 49, 67
2, 900928, Note_off_c, 0, 49, 67
2, 900992, Note_off_c, 0, 49, 67
2, 900992, Note_on_c, 0, 61, 67
2, 901056, Note_off_c, 0, 61, 67
2, 901120, Note_off_c, 0, 61, 67
2, 901120, Note_on_c, 0, 50, 67
2, 901184, Note_off_c, 0, 50, 67
2, 901248, Note_off_c, 0, 50, 67
2, 901248, Note_on_c, 0, 62, 67
2, 901312, Note_off_c, 0, 62, 67
2, 901376, Note_off_c, 0, 62, 67
2, 901376, Note_on_c, 0, 46, 67
2, 901440, Note_off_c, 0, 46, 67
2, 901504, Note_off_c, 0, 46, 67
2, 901504, Note_on_c, 0, 58, 67
2, 901568, Note_off_c, 0, 58, 67
2, 901632, Note_off_c, 0, 58, 67
2, 901632, Note_on_c, 0, 51, 67
2, 901696, Note_off_c, 0, 51, 67
2, 901760, Note_off_c, 0, 51, 67
2, 901760, Note_on_c, 0, 63, 67
2, 901824, Note_off_c, 0, 63, 67
2, 901888, Note_off_c, 0, 63, 67
2, 901888, Note_on_c, 0, 46, 67
2, 901952, Note_off_c, 0, 46, 67
2, 902016, Note_off_c, 0, 46, 67
2, 902016, Note_on_c, 0, 58, 67
2, 902080, Note_off_c, 0, 58, 67
2, 902144, Note_off_c, 0, 58, 67
2, 902144, Note_on_c, 0, 51, 67
2, 902208, Note_off_c, 0, 51, 67
2, 902272, Note_off_c, 0, 51, 67
2, 902272, Note_on_c, 0, 63, 67
2, 902336, Note_off_c, 0, 63, 67
2, 902400, Note_off_c, 0, 63, 67
2, 902400, Note_on_c, 0, 50, 67
2, 902464, Note_off_c, 0, 50, 67
2, 902528, Note_off_c, 0, 50, 67
2, 902528, Note_on_c, 0, 62, 67
2, 902592, Note_off_c, 0, 62, 67
2, 902656, Note_off_c, 0, 62, 67
2, 902656, Note_on_c, 0, 48, 67
2, 902720, Note_off_c, 0, 48, 67
2, 902784, Note_off_c, 0, 48, 67
2, 902784, Note_on_c, 0, 60, 67
2, 902848, Note_off_c, 0, 60, 67
2, 902912, Note_off_c, 0, 60, 67
2, 902912, Note_on_c, 0, 46, 67
2, 902976, Note_off_c, 0, 46, 67
2, 903040, Note_off_c, 0, 46, 67
2, 903040, Note_on_c, 0, 58, 67
2, 903104, Note_off_c, 0, 58, 67
2, 903168, Note_off_c, 0, 58, 67
2, 903168, Note_on_c, 0, 51, 67
2, 903232, Note_off_c, 0, 51, 67
2, 903296, Note_off_c, 0, 51, 67
2, 903296, Note_on_c, 0, 63, 67
2, 903360, Note_off_c, 0, 63, 67
2, 903424, Note_off_c, 0, 63, 67
2, 903424, Note_on_c, 0, 46, 67
2, 903488, Note_off_c, 0, 46, 67
2, 903552, Note_off_c, 0, 46, 67
2, 903552, Note_on_c, 0, 58, 67
2, 903616, Note_off_c, 0, 58, 67
2, 903680, Note_off_c, 0, 58, 67
2, 903680, Note_on_c, 0, 48, 67
2, 903744, Note_off_c, 0, 48, 67
2, 903808, Note_off_c, 0, 48, 67
2, 903808, Note_on_c, 0, 60, 67
2, 903872, Note_off_c, 0, 60, 67
2, 903936, Note_off_c, 0, 60, 67
2, 903936, Note_on_c, 0, 46, 67
2, 904000, Note_off_c, 0, 46, 67
2, 904064, Note_off_c, 0, 46, 67
2, 904064, Note_on_c, 0, 58, 67
2, 904128, Note_off_c, 0, 58, 67
2, 904192, Note_off_c, 0, 58, 67
2, 904192, Note_on_c, 0, 50, 67
2, 904256, Note_off_c, 0, 50, 67
2, 904320, Note_off_c, 0, 50, 67
2, 904320, Note_on_c, 0, 62, 67
2, 904384, Note_off_c, 0, 62, 67
2, 904448, Note_off_c, 0, 62, 67
2, 904448, Note_on_c, 0, 48, 67
2, 904512, Note_off_c, 0, 48, 67
2, 904576, Note_off_c, 0, 48, 67
2, 904576, Note_on_c, 0, 60, 67
2, 904640, Note_off_c, 0, 60, 67
2, 904704, Note_off_c, 0, 60, 67
2, 904704, Note_on_c, 0, 46, 67
2, 904768, Note_off_c, 0, 46, 67
2, 904832, Note_off_c, 0, 46, 67
2, 904832, Note_on_c, 0, 58, 67
2, 904896, Note_off_c, 0, 58, 67
2, 904960, Note_off_c, 0, 58, 67
2, 904960, Note_on_c, 0, 48, 67
2, 905024, Note_off_c, 0, 48, 67
2, 905088, Note_off_c, 0, 48, 67
2, 905088, Note_on_c, 0, 60, 67
2, 905152, Note_off_c, 0, 60, 67
2, 905216, Note_off_c, 0, 60, 67
2, 905216, Note_on_c, 0, 50, 67
2, 905280, Note_off_c, 0, 50, 67
2, 905344, Note_off_c, 0, 50, 67
2, 905344, Note_on_c, 0, 62, 67
2, 905408, Note_off_c, 0, 62, 67
2, 905472, Note_off_c, 0, 62, 67
2, 905472, Note_on_c, 0, 46, 67
2, 905536, Note_off_c, 0, 46, 67
2, 905600, Note_off_c, 0, 46, 67
2, 905600, Note_on_c, 0, 58, 67
2, 905664, Note_off_c, 0, 58, 67
2, 905728, Note_off_c, 0, 58, 67
2, 905728, Note_on_c, 0, 51, 67
2, 905792, Note_off_c, 0, 51, 67
2, 905856, Note_off_c, 0, 51, 67
2, 905856, Note_on_c, 0, 63, 67
2, 905920, Note_off_c, 0, 63, 67
2, 905984, Note_off_c, 0, 63, 67
2, 905984, Note_on_c, 0, 46, 67
2, 906048, Note_off_c, 0, 46, 67
2, 906112, Note_off_c, 0, 46, 67
2, 906112, Note_on_c, 0, 58, 67
2, 906176, Note_off_c, 0, 58, 67
2, 906240, Note_off_c, 0, 58, 67
2, 906240, Note_on_c, 0, 39, 67
2, 906304, Note_off_c, 0, 39, 67
2, 906304, Note_on_c, 0, 46, 67
2, 906368, Note_off_c, 0, 46, 67
2, 906368, Note_on_c, 0, 51, 67
2, 906432, Note_off_c, 0, 51, 67
2, 906432, Note_on_c, 0, 53, 67
2, 906496, Note_off_c, 0, 53, 67
2, 906496, Note_on_c, 0, 55, 67
2, 906560, Note_off_c, 0, 55, 67
2, 906560, Note_on_c, 0, 51, 67
2, 906624, Note_off_c, 0, 51, 67
2, 906624, Note_on_c, 0, 58, 67
2, 906688, Note_off_c, 0, 58, 67
2, 906688, Note_on_c, 0, 63, 67
2, 906736, Control_c, 0, 93, 0
2, 906752, Note_off_c, 0, 63, 67
2, 906752, Note_on_c, 0, 44, 67
2, 906816, Note_off_c, 0, 44, 67
2, 906816, Note_on_c, 0, 51, 67
2, 906880, Note_off_c, 0, 51, 67
2, 906880, Note_on_c, 0, 56, 67
2, 906944, Note_off_c, 0, 56, 67
2, 906944, Note_on_c, 0, 58, 67
2, 907008, Note_off_c, 0, 58, 67
2, 907008, Note_on_c, 0, 60, 67
2, 907072, Note_off_c, 0, 60, 67
2, 907072, Note_on_c, 0, 56, 67
2, 907136, Note_off_c, 0, 56, 67
2, 907136, Note_on_c, 0, 63, 67
2, 907200, Note_off_c, 0, 63, 67
2, 907200, Note_on_c, 0, 68, 67
2, 907248, Control_c, 0, 93, 0
2, 907264, Note_off_c, 0, 68, 67
2, 907264, Note_on_c, 0, 46, 67
2, 907328, Note_off_c, 0, 46, 67
2, 907328, Note_on_c, 0, 53, 67
2, 907392, Note_off_c, 0, 53, 67
2, 907392, Note_on_c, 0, 58, 67
2, 907456, Note_off_c, 0, 58, 67
2, 907456, Note_on_c, 0, 60, 67
2, 907520, Note_off_c, 0, 60, 67
2, 907520, Note_on_c, 0, 62, 67
2, 907584, Note_off_c, 0, 62, 67
2, 907584, Note_on_c, 0, 58, 67
2, 907648, Note_off_c, 0, 58, 67
2, 907648, Note_on_c, 0, 65, 67
2, 907712, Note_off_c, 0, 65, 67
2, 907712, Note_on_c, 0, 70, 67
2, 907760, Control_c, 0, 93, 0
2, 907776, Note_off_c, 0, 70, 67
2, 907776, Note_on_c, 0, 41, 67
2, 907840, Note_off_c, 0, 41, 67
2, 907840, Note_on_c, 0, 44, 67
2, 907904, Note_off_c, 0, 44, 67
2, 907904, Control_c, 0, 64, 64
2, 907904, Note_on_c, 0, 50, 67
2, 907925, Note_off_c, 0, 50, 67
2, 907925, Note_on_c, 0, 53, 67
2, 907946, Note_off_c, 0, 53, 67
2, 907946, Note_on_c, 0, 58, 67
2, 907967, Note_off_c, 0, 58, 67
2, 907968, Control_c, 0, 93, 0
2, 907968, Note_on_c, 0, 62, 67
2, 907989, Note_off_c, 0, 62, 67
2, 907989, Note_on_c, 0, 65, 67
2, 908010, Note_off_c, 0, 65, 67
2, 908010, Note_on_c, 0, 70, 67
2, 908032, Control_c, 0, 93, 0
2, 908032, Control_c, 0, 64, 0
2, 908160, Note_off_c, 0, 70, 67
2, 908160, Note_on_c, 0, 51, 67
2, 908224, Note_off_c, 0, 51, 67
2, 908224, Note_on_c, 0, 46, 67
2, 908288, Note_off_c, 0, 46, 67
2, 908288, Note_on_c, 0, 39, 67
2, 908352, Note_off_c, 0, 39, 67
2, 908352, Note_on_c, 0, 46, 67
2, 908416, Note_off_c, 0, 46, 67
2, 908416, Note_on_c, 0, 51, 67
2, 908480, Note_off_c, 0, 51, 67
2, 908480, Note_on_c, 0, 53, 67
2, 908544, Note_off_c, 0, 53, 67
2, 908544, Note_on_c, 0, 55, 67
2, 908608, Note_off_c, 0, 55, 67
2, 908608, Note_on_c, 0, 51, 67
2, 908672, Note_off_c, 0, 51, 67
2, 908672, Note_on_c, 0, 58, 67
2, 908736, Note_off_c, 0, 58, 67
2, 908736, Note_on_c, 0, 63, 67
2, 908784, Control_c, 0, 93, 0
2, 908800, Note_off_c, 0, 63, 67
2, 908800, Note_on_c, 0, 44, 67
2, 908864, Note_off_c, 0, 44, 67
2, 908864, Note_on_c, 0, 51, 67
2, 908928, Note_off_c, 0, 51, 67
2, 908928, Note_on_c, 0, 56, 67
2, 908992, Note_off_c, 0, 56, 67
2, 908992, Note_on_c, 0, 58, 67
2, 909056, Note_off_c, 0, 58, 67
2, 909056, Note_on_c, 0, 60, 67
2, 909120, Note_off_c, 0, 60, 67
2, 909120, Note_on_c, 0, 56, 67
2, 909184, Note_off_c, 0, 56, 67
2, 909184, Note_on_c, 0, 63, 67
2, 909248, Note_off_c, 0, 63, 67
2, 909248, Note_on_c, 0, 68, 67
2, 909296, Control_c, 0, 93, 0
2, 909312, Note_off_c, 0, 68, 67
2, 909312, Note_on_c, 0, 46, 67
2, 909376, Note_off_c, 0, 46, 67
2, 909376, Note_on_c, 0, 53, 67
2, 909440, Note_off_c, 0, 53, 67
2, 909440, Note_on_c, 0, 58, 67
2, 909504, Note_off_c, 0, 58, 67
2, 909504, Note_on_c, 0, 60, 67
2, 909568, Note_off_c, 0, 60, 67
2, 909568, Note_on_c, 0, 62, 67
2, 909632, Note_off_c, 0, 62, 67
2, 909632, Note_on_c, 0, 58, 67
2, 909696, Note_off_c, 0, 58, 67
2, 909696, Note_on_c, 0, 65, 67
2, 909760, Note_off_c, 0, 65, 67
2, 909760, Note_on_c, 0, 70, 67
2, 909808, Control_c, 0, 93, 0
2, 909824, Note_off_c, 0, 70, 67
2, 909824, Note_on_c, 0, 39, 67
2, 909888, Note_off_c, 0, 39, 67
2, 909888, Note_on_c, 0, 46, 67
2, 909952, Note_off_c, 0, 46, 67
2, 909952, Note_on_c, 0, 51, 67
2, 910016, Note_off_c, 0, 51, 67
2, 910016, Control_c, 0, 64, 64
2, 910016, Note_on_c, 0, 55, 67
2, 910026, Note_off_c, 0, 55, 67
2, 910026, Note_on_c, 0, 58, 67
2, 910037, Note_off_c, 0, 58, 67
2, 910037, Note_on_c, 0, 63, 67
2, 910047, Note_off_c, 0, 63, 67
2, 910048, Control_c, 0, 93, 0
2, 910048, Note_on_c, 0, 67, 67
2, 910058, Note_off_c, 0, 67, 67
2, 910058, Note_on_c, 0, 70, 67
2, 910069, Note_off_c, 0, 70, 67
2, 910069, Note_on_c, 0, 75, 67
2, 910079, Note_off_c, 0, 75, 67
2, 910080, Control_c, 0, 93, 0
2, 910208, Control_c, 0, 93, 0
2, 910272, Control_c, 0, 93, 0
2, 910272, Control_c, 0, 64, 0
2, 910336, Control_c, 0, 93, 0
2, 910336, Note_on_c, 0, 51, 67
2, 910400, Note_off_c, 0, 51, 67
2, 910464, Note_off_c, 0, 51, 67
2, 910464, Note_on_c, 0, 63, 67
2, 910528, Note_off_c, 0, 63, 67
2, 910592, Note_off_c, 0, 63, 67
2, 910592, Note_on_c, 0, 50, 67
2, 910656, Note_off_c, 0, 50, 67
2, 910720, Note_off_c, 0, 50, 67
2, 910720, Note_on_c, 0, 62, 67
2, 910784, Note_off_c, 0, 62, 67
2, 910848, Note_off_c, 0, 62, 67
2, 910848, Note_on_c, 0, 48, 67
2, 910912, Note_off_c, 0, 48, 67
2, 910976, Note_off_c, 0, 48, 67
2, 910976, Note_on_c, 0, 60, 67
2, 911040, Note_off_c, 0, 60, 67
2, 911104, Note_off_c, 0, 60, 67
2, 911104, Note_on_c, 0, 46, 67
2, 911168, Note_off_c, 0, 46, 67
2, 911232, Note_off_c, 0, 46, 67
2, 911232, Note_on_c, 0, 58, 67
2, 911296, Note_off_c, 0, 58, 67
2, 911360, Note_off_c, 0, 58, 67
2, 911360, Note_on_c, 0, 51, 67
2, 911424, Note_off_c, 0, 51, 67
2, 911488, Note_off_c, 0, 51, 67
2, 911488, Note_on_c, 0, 63, 67
2, 911552, Note_off_c, 0, 63, 67
2, 911616, Note_off_c, 0, 63, 67
2, 911616, Note_on_c, 0, 46, 67
2, 911680, Note_off_c, 0, 46, 67
2, 911744, Note_off_c, 0, 46, 67
2, 911744, Note_on_c, 0, 58, 67
2, 911808, Note_off_c, 0, 58, 67
2, 911872, Note_off_c, 0, 58, 67
2, 911872, Note_on_c, 0, 48, 67
2, 911936, Note_off_c, 0, 48, 67
2, 912000, Note_off_c, 0, 48, 67
2, 912000, Note_on_c, 0, 60, 67
2, 912064, Note_off_c, 0, 60, 67
2, 912128, Note_off_c, 0, 60, 67
2, 912128, Note_on_c, 0, 46, 67
2, 912192, Note_off_c, 0, 46, 67
2, 912256, Note_off_c, 0, 46, 67
2, 912256, Note_on_c, 0, 58, 67
2, 912320, Note_off_c, 0, 58, 67
2, 912384, Note_off_c, 0, 58, 67
2, 912384, Note_on_c, 0, 50, 67
2, 912448, Note_off_c, 0, 50, 67
2, 912512, Note_off_c, 0, 50, 67
2, 912512, Note_on_c, 0, 62, 67
2, 912576, Note_off_c, 0, 62, 67
2, 912640, Note_off_c, 0, 62, 67
2, 912640, Note_on_c, 0, 46, 67
2, 912704, Note_off_c, 0, 46, 67
2, 912768, Note_off_c, 0, 46, 67
2, 912768, Note_on_c, 0, 58, 67
2, 912832, Note_off_c, 0, 58, 67
2, 912896, Note_off_c, 0, 58, 67
2, 912896, Note_on_c, 0, 48, 67
2, 912960, Note_off_c, 0, 48, 67
2, 913024, Note_off_c, 0, 48, 67
2, 913024, Note_on_c, 0, 60, 67
2, 913088, Note_off_c, 0, 60, 67
2, 913152, Note_off_c, 0, 60, 67
2, 913152, Note_on_c, 0, 49, 67
2, 913216, Note_off_c, 0, 49, 67
2, 913280, Note_off_c, 0, 49, 67
2, 913280, Note_on_c, 0, 61, 67
2, 913344, Note_off_c, 0, 61, 67
2, 913408, Note_off_c, 0, 61, 67
2, 913408, Note_on_c, 0, 50, 67
2, 913472, Note_off_c, 0, 50, 67
2, 913536, Note_off_c, 0, 50, 67
2, 913536, Note_on_c, 0, 62, 67
2, 913600, Note_off_c, 0, 62, 67
2, 913664, Note_off_c, 0, 62, 67
2, 913664, Note_on_c, 0, 46, 67
2, 913728, Note_off_c, 0, 46, 67
2, 913792, Note_off_c, 0, 46, 67
2, 913792, Note_on_c, 0, 58, 67
2, 913856, Note_off_c, 0, 58, 67
2, 913920, Note_off_c, 0, 58, 67
2, 913920, Note_on_c, 0, 51, 67
2, 913984, Note_off_c, 0, 51, 67
2, 914048, Note_off_c, 0, 51, 67
2, 914048, Note_on_c, 0, 63, 67
2, 914112, Note_off_c, 0, 63, 67
2, 914176, Note_off_c, 0, 63, 67
2, 914176, Note_on_c, 0, 46, 67
2, 914240, Note_off_c, 0, 46, 67
2, 914304, Note_off_c, 0, 46, 67
2, 914304, Note_on_c, 0, 58, 67
2, 914368, Note_off_c, 0, 58, 67
2, 914432, Note_off_c, 0, 58, 67
2, 914432, Note_on_c, 0, 51, 67
2, 914496, Note_off_c, 0, 51, 67
2, 914560, Note_off_c, 0, 51, 67
2, 914560, Note_on_c, 0, 63, 67
2, 914624, Note_off_c, 0, 63, 67
2, 914688, Note_off_c, 0, 63, 67
2, 914688, Note_on_c, 0, 50, 67
2, 914752, Note_off_c, 0, 50, 67
2, 914816, Note_off_c, 0, 50, 67
2, 914816, Note_on_c, 0, 62, 67
2, 914880, Note_off_c, 0, 62, 67
2, 914944, Note_off_c, 0, 62, 67
2, 914944, Note_on_c, 0, 48, 67
2, 915008, Note_off_c, 0, 48, 67
2, 915072, Note_off_c, 0, 48, 67
2, 915072, Note_on_c, 0, 60, 67
2, 915136, Note_off_c, 0, 60, 67
2, 915200, Note_off_c, 0, 60, 67
2, 915200, Note_on_c, 0, 46, 67
2, 915264, Note_off_c, 0, 46, 67
2, 915328, Note_off_c, 0, 46, 67
2, 915328, Note_on_c, 0, 58, 67
2, 915392, Note_off_c, 0, 58, 67
2, 915456, Note_off_c, 0, 58, 67
2, 915456, Note_on_c, 0, 51, 67
2, 915520, Note_off_c, 0, 51, 67
2, 915584, Note_off_c, 0, 51, 67
2, 915584, Note_on_c, 0, 63, 67
2, 915648, Note_off_c, 0, 63, 67
2, 915712, Note_off_c, 0, 63, 67
2, 915712, Note_on_c, 0, 46, 67
2, 915776, Note_off_c, 0, 46, 67
2, 915840, Note_off_c, 0, 46, 67
2, 915840, Note_on_c, 0, 58, 67
2, 915904, Note_off_c, 0, 58, 67
2, 915968, Note_off_c, 0, 58, 67
2, 915968, Note_on_c, 0, 48, 67
2, 916032, Note_off_c, 0, 48, 67
2, 916096, Note_off_c, 0, 48, 67
2, 916096, Note_on_c, 0, 60, 67
2, 916160, Note_off_c, 0, 60, 67
2, 916224, Note_off_c, 0, 60, 67
2, 916224, Note_on_c, 0, 46, 67
2, 916288, Note_off_c, 0, 46, 67
2, 916352, Note_off_c, 0, 46, 67
2, 916352, Note_on_c, 0, 58, 67
2, 916416, Note_off_c, 0, 58, 67
2, 916480, Note_off_c, 0, 58, 67
2, 916480, Note_on_c, 0, 50, 67
2, 916544, Note_off_c, 0, 50, 67
2, 916608, Note_off_c, 0, 50, 67
2, 916608, Note_on_c, 0, 62, 67
2, 916672, Note_off_c, 0, 62, 67
2, 916736, Note_off_c, 0, 62, 67
2, 916736, Note_on_c, 0, 48, 67
2, 916800, Note_off_c, 0, 48, 67
2, 916864, Note_off_c, 0, 48, 67
2, 916864, Note_on_c, 0, 60, 67
2, 916928, Note_off_c, 0, 60, 67
2, 916992, Note_off_c, 0, 60, 67
2, 916992, Note_on_c, 0, 46, 67
2, 917056, Note_off_c, 0, 46, 67
2, 917120, Note_off_c, 0, 46, 67
2, 917120, Note_on_c, 0, 58, 67
2, 917184, Note_off_c, 0, 58, 67
2, 917248, Note_off_c, 0, 58, 67
2, 917248, Note_on_c, 0, 48, 67
2, 917312, Note_off_c, 0, 48, 67
2, 917376, Note_off_c, 0, 48, 67
2, 917376, Note_on_c, 0, 60, 67
2, 917440, Note_off_c, 0, 60, 67
2, 917504, Note_off_c, 0, 60, 67
2, 917504, Note_on_c, 0, 50, 67
2, 917568, Note_off_c, 0, 50, 67
2, 917632, Note_off_c, 0, 50, 67
2, 917632, Note_on_c, 0, 62, 67
2, 917696, Note_off_c, 0, 62, 67
2, 917760, Note_off_c, 0, 62, 67
2, 917760, Note_on_c, 0, 46, 67
2, 917824, Note_off_c, 0, 46, 67
2, 917888, Note_off_c, 0, 46, 67
2, 917888, Note_on_c, 0, 58, 67
2, 917952, Note_off_c, 0, 58, 67
2, 918016, Note_off_c, 0, 58, 67
2, 918016, Note_on_c, 0, 51, 67
2, 918080, Note_off_c, 0, 51, 67
2, 918144, Note_off_c, 0, 51, 67
2, 918144, Note_on_c, 0, 63, 67
2, 918208, Note_off_c, 0, 63, 67
2, 918272, Note_off_c, 0, 63, 67
2, 918272, Note_on_c, 0, 46, 67
2, 918336, Note_off_c, 0, 46, 67
2, 918400, Note_off_c, 0, 46, 67
2, 918400, Note_on_c, 0, 58, 67
2, 918464, Note_off_c, 0, 58, 67
2, 918528, Note_off_c, 0, 58, 67
2, 918528, Note_on_c, 0, 39, 67
2, 918592, Note_off_c, 0, 39, 67
2, 918592, Note_on_c, 0, 46, 67
2, 918656, Note_off_c, 0, 46, 67
2, 918656, Note_on_c, 0, 51, 67
2, 918720, Note_off_c, 0, 51, 67
2, 918720, Note_on_c, 0, 53, 67
2, 918784, Note_off_c, 0, 53, 67
2, 918784, Note_on_c, 0, 55, 67
2, 918848, Note_off_c, 0, 55, 67
2, 918848, Note_on_c, 0, 51, 67
2, 918912, Note_off_c, 0, 51, 67
2, 918912, Note_on_c, 0, 58, 67
2, 918976, Note_off_c, 0, 58, 67
2, 918976, Note_on_c, 0, 63, 67
2, 919024, Control_c, 0, 93, 0
2, 919040, Note_off_c, 0, 63, 67
2, 919040, Note_on_c, 0, 44, 67
2, 919104, Note_off_c, 0, 44, 67
2, 919104, Note_on_c, 0, 51, 67
2, 919168, Note_off_c, 0, 51, 67
2, 919168, Note_on_c, 0, 56, 67
2, 919232, Note_off_c, 0, 56, 67
2, 919232, Note_on_c, 0, 58, 67
2, 919296, Note_off_c, 0, 58, 67
2, 919296, Note_on_c, 0, 60, 67
2, 919360, Note_off_c, 0, 60, 67
2, 919360, Note_on_c, 0, 56, 67
2, 919424, Note_off_c, 0, 56, 67
2, 919424, Note_on_c, 0, 63, 67
2, 919488, Note_off_c, 0, 63, 67
2, 919488, Note_on_c, 0, 68, 67
2, 919536, Control_c, 0, 93, 0
2, 919552, Note_off_c, 0, 68, 67
2, 919552, Note_on_c, 0, 46, 67
2, 919616, Note_off_c, 0, 46, 67
2, 919616, Note_on_c, 0, 53, 67
2, 919680, Note_off_c, 0, 53, 67
2, 919680, Note_on_c, 0, 58, 67
2, 919744, Note_off_c, 0, 58, 67
2, 919744, Note_on_c, 0, 60, 67
2, 919808, Note_off_c, 0, 60, 67
2, 919808, Note_on_c, 0, 62, 67
2, 919872, Note_off_c, 0, 62, 67
2, 919872, Note_on_c, 0, 58, 67
2, 919936, Note_off_c, 0, 58, 67
2, 919936, Note_on_c, 0, 65, 67
2, 920000, Note_off_c, 0, 65, 67
2, 920000, Note_on_c, 0, 70, 67
2, 920048, Control_c, 0, 93, 0
2, 920064, Note_off_c, 0, 70, 67
2, 920064, Note_on_c, 0, 41, 67
2, 920128, Note_off_c, 0, 41, 67
2, 920128, Note_on_c, 0, 44, 67
2, 920192, Note_off_c, 0, 44, 67
2, 920192, Control_c, 0, 64, 64
2, 920192, Note_on_c, 0, 50, 67
2, 920213, Note_off_c, 0, 50, 67
2, 920213, Note_on_c, 0, 53, 67
2, 920234, Note_off_c, 0, 53, 67
2, 920234, Note_on_c, 0, 58, 67
2, 920255, Note_off_c, 0, 58, 67
2, 920256, Control_c, 0, 93, 0
2, 920256, Note_on_c, 0, 62, 67
2, 920277, Note_off_c, 0, 62, 67
2, 920277, Note_on_c, 0, 65, 67
2, 920298, Note_off_c, 0, 65, 67
2, 920298, Note_on_c, 0, 70, 67
2, 920320, Control_c, 0, 93, 0
2, 920320, Control_c, 0, 64, 0
2, 920448, Note_off_c, 0, 70, 67
2, 920448, Note_on_c, 0, 51, 67
2, 920512, Note_off_c, 0, 51, 67
2, 920512, Note_on_c, 0, 46, 67
2, 920576, Note_off_c, 0, 46, 67
2, 920576, Note_on_c, 0, 39, 67
2, 920640, Note_off_c, 0, 39, 67
2, 920640, Note_on_c, 0, 46, 67
2, 920704, Note_off_c, 0, 46, 67
2, 920704, Note_on_c, 0, 51, 67
2, 920768, Note_off_c, 0, 51, 67
2, 920768, Note_on_c, 0, 53, 67
2, 920832, Note_off_c, 0, 53, 67
2, 920832, Note_on_c, 0, 55, 67
2, 920896, Note_off_c, 0, 55, 67
2, 920896, Note_on_c, 0, 51, 67
2, 920960, Note_off_c, 0, 51, 67
2, 920960, Note_on_c, 0, 58, 67
2, 921024, Note_off_c, 0, 58, 67
2, 921024, Note_on_c, 0, 63, 67
2, 921072, Control_c, 0, 93, 0
2, 921088, Note_off_c, 0, 63, 67
2, 921088, Note_on_c, 0, 44, 67
2, 921152, Note_off_c, 0, 44, 67
2, 921152, Note_on_c, 0, 51, 67
2, 921216, Note_off_c, 0, 51, 67
2, 921216, Note_on_c, 0, 56, 67
2, 921280, Note_off_c, 0, 56, 67
2, 921280, Note_on_c, 0, 58, 67
2, 921344, Note_off_c, 0, 58, 67
2, 921344, Note_on_c, 0, 60, 67
2, 921408, Note_off_c, 0, 60, 67
2, 921408, Note_on_c, 0, 56, 67
2, 921472, Note_off_c, 0, 56, 67
2, 921472, Note_on_c, 0, 63, 67
2, 921536, Note_off_c, 0, 63, 67
2, 921536, Note_on_c, 0, 68, 67
2, 921584, Control_c, 0, 93, 0
2, 921600, Note_off_c, 0, 68, 67
2, 921600, Note_on_c, 0, 46, 67
2, 921664, Note_off_c, 0, 46, 67
2, 921664, Note_on_c, 0, 53, 67
2, 921728, Note_off_c, 0, 53, 67
2, 921728, Note_on_c, 0, 58, 67
2, 921792, Note_off_c, 0, 58, 67
2, 921792, Note_on_c, 0, 60, 67
2, 921856, Note_off_c, 0, 60, 67
2, 921856, Note_on_c, 0, 62, 67
2, 921920, Note_off_c, 0, 62, 67
2, 921920, Note_on_c, 0, 58, 67
2, 921984, Note_off_c, 0, 58, 67
2, 921984, Note_on_c, 0, 65, 67
2, 922048, Note_off_c, 0, 65, 67
2, 922048, Note_on_c, 0, 70, 67
2, 922096, Control_c, 0, 93, 0
2, 922112, Note_off_c, 0, 70, 67
2, 922112, Note_on_c, 0, 39, 67
2, 922176, Note_off_c, 0, 39, 67
2, 922176, Note_on_c, 0, 46, 67
2, 922240, Note_off_c, 0, 46, 67
2, 922240, Note_on_c, 0, 51, 67
2, 922304, Note_off_c, 0, 51, 67
2, 922304, Control_c, 0, 64, 64
2, 922304, Note_on_c, 0, 55, 67
2, 922314, Note_off_c, 0, 55, 67
2, 922314, Note_on_c, 0, 58, 67
2, 922325, Note_off_c, 0, 58, 67
2, 922325, Note_on_c, 0, 63, 67
2, 922335, Note_off_c, 0, 63, 67
2, 922336, Control_c, 0, 93, 0
2, 922336, Note_on_c, 0, 67, 67
2, 922346, Note_off_c, 0, 67, 67
2, 922346, Note_on_c, 0, 70, 67
2, 922357, Note_off_c, 0, 70, 67
2, 922357, Note_on_c, 0, 75, 67
2, 922367, Note_off_c, 0, 75, 67
2, 922368, Control_c, 0, 93, 0
2, 922496, Control_c, 0, 93, 0
2, 922560, Control_c, 0, 93, 0
2, 922560, Control_c, 0, 64, 0
2, 922624, Control_c, 0, 93, 0
2, 922624, Note_on_c, 0, 51, 67
2, 922688, Note_off_c, 0, 51, 67
2, 922752, Note_off_c, 0, 51, 67
2, 922752, Note_on_c, 0, 63, 67
2, 922816, Note_off_c, 0, 63, 67
2, 922880, Note_off_c, 0, 63, 67
2, 922880, Note_on_c, 0, 50, 67
2, 922944, Note_off_c, 0, 50, 67
2, 923008, Note_off_c, 0, 50, 67
2, 923008, Note_on_c, 0, 62, 67
2, 923072, Note_off_c, 0, 62, 67
2, 923136, Note_off_c, 0, 62, 67
2, 923136, Note_on_c, 0, 48, 67
2, 923200, Note_off_c, 0, 48, 67
2, 923264, Note_off_c, 0, 48, 67
2, 923264, Note_on_c, 0, 60, 67
2, 923328, Note_off_c, 0, 60, 67
2, 923392, Note_off_c, 0, 60, 67
2, 923392, Note_on_c, 0, 46, 67
2, 923456, Note_off_c, 0, 46, 67
2, 923520, Note_off_c, 0, 46, 67
2, 923520, Note_on_c, 0, 58, 67
2, 923584, Note_off_c, 0, 58, 67
2, 923648, Note_off_c, 0, 58, 67
2, 923648, Note_on_c, 0, 51, 67
2, 923712, Note_off_c, 0, 51, 67
2, 923776, Note_off_c, 0, 51, 67
2, 923776, Note_on_c, 0, 63, 67
2, 923840, Note_off_c, 0, 63, 67
2, 923904, Note_off_c, 0, 63, 67
2, 923904, Note_on_c, 0, 46, 67
2, 923968, Note_off_c, 0, 46, 67
2, 924032, Note_off_c, 0, 46, 67
2, 924032, Note_on_c, 0, 58, 67
2, 924096, Note_off_c, 0, 58, 67
2, 924160, Note_off_c, 0, 58, 67
2, 924160, Note_on_c, 0, 48, 67
2, 924224, Note_off_c, 0, 48, 67
2, 924288, Note_off_c, 0, 48, 67
2, 924288, Note_on_c, 0, 60, 67
2, 924352, Note_off_c, 0, 60, 67
2, 924416, Note_off_c, 0, 60, 67
2, 924416, Note_on_c, 0, 46, 67
2, 924480, Note_off_c, 0, 46, 67
2, 924544, Note_off_c, 0, 46, 67
2, 924544, Note_on_c, 0, 58, 67
2, 924608, Note_off_c, 0, 58, 67
2, 924672, Note_off_c, 0, 58, 67
2, 924672, Note_on_c, 0, 50, 67
2, 924736, Note_off_c, 0, 50, 67
2, 924800, Note_off_c, 0, 50, 67
2, 924800, Note_on_c, 0, 62, 67
2, 924864, Note_off_c, 0, 62, 67
2, 924928, Note_off_c, 0, 62, 67
2, 924928, Note_on_c, 0, 46, 67
2, 924992, Note_off_c, 0, 46, 67
2, 925056, Note_off_c, 0, 46, 67
2, 925056, Note_on_c, 0, 58, 67
2, 925120, Note_off_c, 0, 58, 67
2, 925184, Note_off_c, 0, 58, 67
2, 925184, Note_on_c, 0, 48, 67
2, 925248, Note_off_c, 0, 48, 67
2, 925312, Note_off_c, 0, 48, 67
2, 925312, Note_on_c, 0, 60, 67
2, 925376, Note_off_c, 0, 60, 67
2, 925440, Note_off_c, 0, 60, 67
2, 925440, Note_on_c, 0, 49, 67
2, 925504, Note_off_c, 0, 49, 67
2, 925568, Note_off_c, 0, 49, 67
2, 925568, Note_on_c, 0, 61, 67
2, 925632, Note_off_c, 0, 61, 67
2, 925696, Note_off_c, 0, 61, 67
2, 925696, Note_on_c, 0, 50, 67
2, 925760, Note_off_c, 0, 50, 67
2, 925824, Note_off_c, 0, 50, 67
2, 925824, Note_on_c, 0, 62, 67
2, 925888, Note_off_c, 0, 62, 67
2, 925952, Note_off_c, 0, 62, 67
2, 925952, Note_on_c, 0, 46, 67
2, 926016, Note_off_c, 0, 46, 67
2, 926080, Note_off_c, 0, 46, 67
2, 926080, Note_on_c, 0, 58, 67
2, 926144, Note_off_c, 0, 58, 67
2, 926208, Note_off_c, 0, 58, 67
2, 926208, Note_on_c, 0, 51, 67
2, 926272, Note_off_c, 0, 51, 67
2, 926336, Note_off_c, 0, 51, 67
2, 926336, Note_on_c, 0, 63, 67
2, 926400, Note_off_c, 0, 63, 67
2, 926464, Note_off_c, 0, 63, 67
2, 926464, Note_on_c, 0, 46, 67
2, 926528, Note_off_c, 0, 46, 67
2, 926592, Note_off_c, 0, 46, 67
2, 926592, Note_on_c, 0, 58, 67
2, 926656, Note_off_c, 0, 58, 67
2, 926720, Note_off_c, 0, 58, 67
2, 926720, Note_on_c, 0, 51, 67
2, 926784, Note_off_c, 0, 51, 67
2, 926848, Note_off_c, 0, 51, 67
2, 926848, Note_on_c, 0, 63, 67
2, 926912, Note_off_c, 0, 63, 67
2, 926976, Note_off_c, 0, 63, 67
2, 926976, Note_on_c, 0, 50, 67
2, 927040, Note_off_c, 0, 50, 67
2, 927104, Note_off_c, 0, 50, 67
2, 927104, Note_on_c, 0, 62, 67
2, 927168, Note_off_c, 0, 62, 67
2, 927232, Note_off_c, 0, 62, 67
2, 927232, Note_on_c, 0, 48, 67
2, 927296, Note_off_c, 0, 48, 67
2, 927360, Note_off_c, 0, 48, 67
2, 927360, Note_on_c, 0, 60, 67
2, 927424, Note_off_c, 0, 60, 67
2, 927488, Note_off_c, 0, 60, 67
2, 927488, Note_on_c, 0, 46, 67
2, 927552, Note_off_c, 0, 46, 67
2, 927616, Note_off_c, 0, 46, 67
2, 927616, Note_on_c, 0, 58, 67
2, 927680, Note_off_c, 0, 58, 67
2, 927744, Note_off_c, 0, 58, 67
2, 927744, Note_on_c, 0, 51, 67
2, 927808, Note_off_c, 0, 51, 67
2, 927872, Note_off_c, 0, 51, 67
2, 927872, Note_on_c, 0, 63, 67
2, 927936, Note_off_c, 0, 63, 67
2, 928000, Note_off_c, 0, 63, 67
2, 928000, Note_on_c, 0, 46, 67
2, 928064, Note_off_c, 0, 46, 67
2, 928128, Note_off_c, 0, 46, 67
2, 928128, Note_on_c, 0, 58, 67
2, 928192, Note_off_c, 0, 58, 67
2, 928256, Note_off_c, 0, 58, 67
2, 928256, Note_on_c, 0, 48, 67
2, 928320, Note_off_c, 0, 48, 67
2, 928384, Note_off_c, 0, 48, 67
2, 928384, Note_on_c, 0, 60, 67
2, 928448, Note_off_c, 0, 60, 67
2, 928512, Note_off_c, 0, 60, 67
2, 928512, Note_on_c, 0, 46, 67
2, 928576, Note_off_c, 0, 46, 67
2, 928640, Note_off_c, 0, 46, 67
2, 928640, Note_on_c, 0, 58, 67
2, 928704, Note_off_c, 0, 58, 67
2, 928768, Note_off_c, 0, 58, 67
2, 928768, Note_on_c, 0, 50, 67
2, 928832, Note_off_c, 0, 50, 67
2, 928896, Note_off_c, 0, 50, 67
2, 928896, Note_on_c, 0, 62, 67
2, 928960, Note_off_c, 0, 62, 67
2, 929024, Note_off_c, 0, 62, 67
2, 929024, Note_on_c, 0, 48, 67
2, 929088, Note_off_c, 0, 48, 67
2, 929152, Note_off_c, 0, 48, 67
2, 929152, Note_on_c, 0, 60, 67
2, 929216, Note_off_c, 0, 60, 67
2, 929280, Note_off_c, 0, 60, 67
2, 929280, Note_on_c, 0, 46, 67
2, 929344, Note_off_c, 0, 46, 67
2, 929408, Note_off_c, 0, 46, 67
2, 929408, Note_on_c, 0, 58, 67
2, 929472, Note_off_c, 0, 58, 67
2, 929536, Note_off_c, 0, 58, 67
2, 929536, Note_on_c, 0, 48, 67
2, 929600, Note_off_c, 0, 48, 67
2, 929664, Note_off_c, 0, 48, 67
2, 929664, Note_on_c, 0, 60, 67
2, 929728, Note_off_c, 0, 60, 67
2, 929792, Note_off_c, 0, 60, 67
2, 929792, Note_on_c, 0, 50, 67
2, 929856, Note_off_c, 0, 50, 67
2, 929920, Note_off_c, 0, 50, 67
2, 929920, Note_on_c, 0, 62, 67
2, 929984, Note_off_c, 0, 62, 67
2, 930048, Note_off_c, 0, 62, 67
2, 930048, Note_on_c, 0, 46, 67
2, 930112, Note_off_c, 0, 46, 67
2, 930176, Note_off_c, 0, 46, 67
2, 930176, Note_on_c, 0, 58, 67
2, 930240, Note_off_c, 0, 58, 67
2, 930304, Note_off_c, 0, 58, 67
2, 930304, Note_on_c, 0, 51, 67
2, 930368, Note_off_c, 0, 51, 67
2, 930432, Note_off_c, 0, 51, 67
2, 930432, Note_on_c, 0, 63, 67
2, 930496, Note_off_c, 0, 63, 67
2, 930560, Note_off_c, 0, 63, 67
2, 930560, Note_on_c, 0, 46, 67
2, 930624, Note_off_c, 0, 46, 67
2, 930688, Note_off_c, 0, 46, 67
2, 930688, Note_on_c, 0, 58, 67
2, 930752, Note_off_c, 0, 58, 67
2, 930816, Note_off_c, 0, 58, 67
2, 930816, Note_on_c, 0, 39, 67
2, 930880, Note_off_c, 0, 39, 67
2, 930880, Note_on_c, 0, 46, 67
2, 930944, Note_off_c, 0, 46, 67
2, 930944, Note_on_c, 0, 51, 67
2, 931008, Note_off_c, 0, 51, 67
2, 931008, Note_on_c, 0, 53, 67
2, 931072, Note_off_c, 0, 53, 67
2, 931072, Note_on_c, 0, 55, 67
2, 931136, Note_off_c, 0, 55, 67
2, 931136, Note_on_c, 0, 51, 67
2, 931200, Note_off_c, 0, 51, 67
2, 931200, Note_on_c, 0, 58, 67
2, 931264, Note_off_c, 0, 58, 67
2, 931264, Note_on_c, 0, 63, 67
2, 931312, Control_c, 0, 93, 0
2, 931328, Note_off_c, 0, 63, 67
2, 931328, Note_on_c, 0, 44, 67
2, 931392, Note_off_c, 0, 44, 67
2, 931392, Note_on_c, 0, 51, 67
2, 931456, Note_off_c, 0, 51, 67
2, 931456, Note_on_c, 0, 56, 67
2, 931520, Note_off_c, 0, 56, 67
2, 931520, Note_on_c, 0, 58, 67
2, 931584, Note_off_c, 0, 58, 67
2, 931584, Note_on_c, 0, 60, 67
2, 931648, Note_off_c, 0, 60, 67
2, 931648, Note_on_c, 0, 56, 67
2, 931712, Note_off_c, 0, 56, 67
2, 931712, Note_on_c, 0, 63, 67
2, 931776, Note_off_c, 0, 63, 67
2, 931776, Note_on_c, 0, 68, 67
2, 931824, Control_c, 0, 93, 0
2, 931840, Note_off_c, 0, 68, 67
2, 931840, Note_on_c, 0, 46, 67
2, 931904, Note_off_c, 0, 46, 67
2, 931904, Note_on_c, 0, 53, 67
2, 931968, Note_off_c, 0, 53, 67
2, 931968, Note_on_c, 0, 58, 67
2, 932032, Note_off_c, 0, 58, 67
2, 932032, Note_on_c, 0, 60, 67
2, 932096, Note_off_c, 0, 60, 67
2, 932096, Note_on_c, 0, 62, 67
2, 932160, Note_off_c, 0, 62, 67
2, 932160, Note_on_c, 0, 58, 67
2, 932224, Note_off_c, 0, 58, 67
2, 932224, Note_on_c, 0, 65, 67
2, 932288, Note_off_c, 0, 65, 67
2, 932288, Note_on_c, 0, 70, 67
2, 932336, Control_c, 0, 93, 0
2, 932352, Note_off_c, 0, 70, 67
2, 932352, Note_on_c, 0, 41, 67
2, 932416, Note_off_c, 0, 41, 67
2, 932416, Note_on_c, 0, 44, 67
2, 932480, Note_off_c, 0, 44, 67
2, 932480, Control_c, 0, 64, 64
2, 932480, Note_on_c, 0, 50, 67
2, 932501, Note_off_c, 0, 50, 67
2, 932501, Note_on_c, 0, 53, 67
2, 932522, Note_off_c, 0, 53, 67
2, 932522, Note_on_c, 0, 58, 67
2, 932543, Note_off_c, 0, 58, 67
2, 932544, Control_c, 0, 93, 0
2, 932544, Note_on_c, 0, 62, 67
2, 932565, Note_off_c, 0, 62, 67
2, 932565, Note_on_c, 0, 65, 67
2, 932586, Note_off_c, 0, 65, 67
2, 932586, Note_on_c, 0, 70, 67
2, 932608, Control_c, 0, 93, 0
2, 932608, Control_c, 0, 64, 0
2, 932736, Note_off_c, 0, 70, 67
2, 932736, Note_on_c, 0, 51, 67
2, 932800, Note_off_c, 0, 51, 67
2, 932800, Note_on_c, 0, 46, 67
2, 932864, Note_off_c, 0, 46, 67
2, 932864, Note_on_c, 0, 39, 67
2, 932928, Note_off_c, 0, 39, 67
2, 932928, Note_on_c, 0, 46, 67
2, 932992, Note_off_c, 0, 46, 67
2, 932992, Note_on_c, 0, 51, 67
2, 933056, Note_off_c, 0, 51, 67
2, 933056, Note_on_c, 0, 53, 67
2, 933120, Note_off_c, 0, 53, 67
2, 933120, Note_on_c, 0, 55, 67
2, 933184, Note_off_c, 0, 55, 67
2, 933184, Note_on_c, 0, 51, 67
2, 933248, Note_off_c, 0, 51, 67
2, 933248, Note_on_c, 0, 58, 67
2, 933312, Note_off_c, 0, 58, 67
2, 933312, Note_on_c, 0, 63, 67
2, 933360, Control_c, 0, 93, 0
2, 933376, Note_off_c, 0, 63, 67
2, 933376, Note_on_c, 0, 44, 67
2, 933440, Note_off_c, 0, 44, 67
2, 933440, Note_on_c, 0, 51, 67
2, 933504, Note_off_c, 0, 51, 67
2, 933504, Note_on_c, 0, 56, 67
2, 933568, Note_off_c, 0, 56, 67
2, 933568, Note_on_c, 0, 58, 67
2, 933632, Note_off_c, 0, 58, 67
2, 933632, Note_on_c, 0, 60, 67
2, 933696, Note_off_c, 0, 60, 67
2, 933696, Note_on_c, 0, 56, 67
2, 933760, Note_off_c, 0, 56, 67
2, 933760, Note_on_c, 0, 63, 67
2, 933824, Note_off_c, 0, 63, 67
2, 933824, Note_on_c, 0, 68, 67
2, 933872, Control_c, 0, 93, 0
2, 933888, Note_off_c, 0, 68, 67
2, 933888, Note_on_c, 0, 46, 67
2, 933952, Note_off_c, 0, 46, 67
2, 933952, Note_on_c, 0, 53, 67
2, 934016, Note_off_c, 0, 53, 67
2, 934016, Note_on_c, 0, 58, 67
2, 934080, Note_off_c, 0, 58, 67
2, 934080, Note_on_c, 0, 60, 67
2, 934144, Note_off_c, 0, 60, 67
2, 934144, Note_on_c, 0, 62, 67
2, 934208, Note_off_c, 0, 62, 67
2, 934208, Note_on_c, 0, 58, 67
2, 934272, Note_off_c, 0, 58, 67
2, 934272, Note_on_c, 0, 65, 67
2, 934336, Note_off_c, 0, 65, 67
2, 934336, Note_on_c, 0, 70, 67
2, 934384, Control_c, 0, 93, 0
2, 934400, Note_off_c, 0, 70, 67
2, 934400, Note_on_c, 0, 39, 67
2, 934464, Note_off_c, 0, 39, 67
2, 934464, Note_on_c, 0, 46, 67
2, 934528, Note_off_c, 0, 46, 67
2, 934528, Note_on_c, 0, 51, 67
2, 934592, Note_off_c, 0, 51, 67
2, 934592, Control_c, 0, 64, 64
2, 934592, Note_on_c, 0, 55, 67
2, 934602, Note_off_c, 0, 55, 67
2, 934602, Note_on_c, 0, 58, 67
2, 934613, Note_off_c, 0, 58, 67
2, 934613, Note_on_c, 0, 63, 67
2, 934623, Note_off_c, 0, 63, 67
2, 934624, Control_c, 0, 93, 0
2, 934624, Note_on_c, 0, 67, 67
2, 934634, Note_off_c, 0, 67, 67
2, 934634, Note_on_c, 0, 70, 67
2, 934645, Note_off_c, 0, 70, 67
2, 934645, Note_on_c, 0, 75, 67
2, 934655, Note_off_c, 0, 75, 67
2, 934656, Control_c, 0, 93, 0
2, 934784, Control_c, 0, 93, 0
2, 934848, Control_c, 0, 93, 0
2, 934848, Control_c, 0, 64, 0
2, 934912, Control_c, 0, 93, 0
2, 934912, Note_on_c, 0, 51, 67
2, 934976, Note_off_c, 0, 51, 67
2, 935040, Note_off_c, 0, 51, 67
2, 935040, Note_on_c, 0, 63, 67
2, 935104, Note_off_c, 0, 63, 67
2, 935168, Note_off_c, 0, 63, 67
2, 935168, Note_on_c, 0, 50, 67
2, 935232, Note_off_c, 0, 50, 67
2, 935296, Note_off_c, 0, 50, 67
2, 935296, Note_on_c, 0, 62, 67
2, 935360, Note_off_c, 0, 62, 67
2, 935424, Note_off_c, 0, 62, 67
2, 935424, Note_on_c, 0, 48, 67
2, 935488, Note_off_c, 0, 48, 67
2, 935552, Note_off_c, 0, 48, 67
2, 935552, Note_on_c, 0, 60, 67
2, 935616, Note_off_c, 0, 60, 67
2, 935680, Note_off_c, 0, 60, 67
2, 935680, Note_on_c, 0, 46, 67
2, 935744, Note_off_c, 0, 46, 67
2, 935808, Note_off_c, 0, 46, 67
2, 935808, Note_on_c, 0, 58, 67
2, 935872, Note_off_c, 0, 58, 67
2, 935936, Note_off_c, 0, 58, 67
2, 935936, Note_on_c, 0, 51, 67
2, 936000, Note_off_c, 0, 51, 67
2, 936064, Note_off_c, 0, 51, 67
2, 936064, Note_on_c, 0, 63, 67
2, 936128, Note_off_c, 0, 63, 67
2, 936192, Note_off_c, 0, 63, 67
2, 936192, Note_on_c, 0, 46, 67
2, 936256, Note_off_c, 0, 46, 67
2, 936320, Note_off_c, 0, 46, 67
2, 936320, Note_on_c, 0, 58, 67
2, 936384, Note_off_c, 0, 58, 67
2, 936448, Note_off_c, 0, 58, 67
2, 936448, Note_on_c, 0, 48, 67
2, 936512, Note_off_c, 0, 48, 67
2, 936576, Note_off_c, 0, 48, 67
2, 936576, Note_on_c, 0, 60, 67
2, 936640, Note_off_c, 0, 60, 67
2, 936704, Note_off_c, 0, 60, 67
2, 936704, Note_on_c, 0, 46, 67
2, 936768, Note_off_c, 0, 46, 67
2, 936832, Note_off_c, 0, 46, 67
2, 936832, Note_on_c, 0, 58, 67
2, 936896, Note_off_c, 0, 58, 67
2, 936960, Note_off_c, 0, 58, 67
2, 936960, Note_on_c, 0, 50, 67
2, 937024, Note_off_c, 0, 50, 67
2, 937088, Note_off_c, 0, 50, 67
2, 937088, Note_on_c, 0, 62, 67
2, 937152, Note_off_c, 0, 62, 67
2, 937216, Note_off_c, 0, 62, 67
2, 937216, Note_on_c, 0, 46, 67
2, 937280, Note_off_c, 0, 46, 67
2, 937344, Note_off_c, 0, 46, 67
2, 937344, Note_on_c, 0, 58, 67
2, 937408, Note_off_c, 0, 58, 67
2, 937472, Note_off_c, 0, 58, 67
2, 937472, Note_on_c, 0, 48, 67
2, 937536, Note_off_c, 0, 48, 67
2, 937600, Note_off_c, 0, 48, 67
2, 937600, Note_on_c, 0, 60, 67
2, 937664, Note_off_c, 0, 60, 67
2, 937728, Note_off_c, 0, 60, 67
2, 937728, Note_on_c, 0, 49, 67
2, 937792, Note_off_c, 0, 49, 67
2, 937856, Note_off_c, 0, 49, 67
2, 937856, Note_on_c, 0, 61, 67
2, 937920, Note_off_c, 0, 61, 67
2, 937984, Note_off_c, 0, 61, 67
2, 937984, Note_on_c, 0, 50, 67
2, 938048, Note_off_c, 0, 50, 67
2, 938112, Note_off_c, 0, 50, 67
2, 938112, Note_on_c, 0, 62, 67
2, 938176, Note_off_c, 0, 62, 67
2, 938240, Note_off_c, 0, 62, 67
2, 938240, Note_on_c, 0, 46, 67
2, 938304, Note_off_c, 0, 46, 67
2, 938368, Note_off_c, 0, 46, 67
2, 938368, Note_on_c, 0, 58, 67
2, 938432, Note_off_c, 0, 58, 67
2, 938496, Note_off_c, 0, 58, 67
2, 938496, Note_on_c, 0, 51, 67
2, 938560, Note_off_c, 0, 51, 67
2, 938624, Note_off_c, 0, 51, 67
2, 938624, Note_on_c, 0, 63, 67
2, 938688, Note_off_c, 0, 63, 67
2, 938752, Note_off_c, 0, 63, 67
2, 938752, Note_on_c, 0, 46, 67
2, 938816, Note_off_c, 0, 46, 67
2, 938880, Note_off_c, 0, 46, 67
2, 938880, Note_on_c, 0, 58, 67
2, 938944, Note_off_c, 0, 58, 67
2, 939008, Note_off_c, 0, 58, 67
2, 939008, Note_on_c, 0, 51, 67
2, 939072, Note_off_c, 0, 51, 67
2, 939136, Note_off_c, 0, 51, 67
2, 939136, Note_on_c, 0, 63, 67
2, 939200, Note_off_c, 0, 63, 67
2, 939264, Note_off_c, 0, 63, 67
2, 939264, Note_on_c, 0, 50, 67
2, 939328, Note_off_c, 0, 50, 67
2, 939392, Note_off_c, 0, 50, 67
2, 939392, Note_on_c, 0, 62, 67
2, 939456, Note_off_c, 0, 62, 67
2, 939520, Note_off_c, 0, 62, 67
2, 939520, Note_on_c, 0, 48, 67
2, 939584, Note_off_c, 0, 48, 67
2, 939648, Note_off_c, 0, 48, 67
2, 939648, Note_on_c, 0, 60, 67
2, 939712, Note_off_c, 0, 60, 67
2, 939776, Note_off_c, 0, 60, 67
2, 939776, Note_on_c, 0, 46, 67
2, 939840, Note_off_c, 0, 46, 67
2, 939904, Note_off_c, 0, 46, 67
2, 939904, Note_on_c, 0, 58, 67
2, 939968, Note_off_c, 0, 58, 67
2, 940032, Note_off_c, 0, 58, 67
2, 940032, Note_on_c, 0, 51, 67
2, 940096, Note_off_c, 0, 51, 67
2, 940160, Note_off_c, 0, 51, 67
2, 940160, Note_on_c, 0, 63, 67
2, 940224, Note_off_c, 0, 63, 67
2, 940288, Note_off_c, 0, 63, 67
2, 940288, Note_on_c, 0, 46, 67
2, 940352, Note_off_c, 0, 46, 67
2, 940416, Note_off_c, 0, 46, 67
2, 940416, Note_on_c, 0, 58, 67
2, 940480, Note_off_c, 0, 58, 67
2, 940544, Note_off_c, 0, 58, 67
2, 940544, Note_on_c, 0, 48, 67
2, 940608, Note_off_c, 0, 48, 67
2, 940672, Note_off_c, 0, 48, 67
2, 940672, Note_on_c, 0, 60, 67
2, 940736, Note_off_c, 0, 60, 67
2, 940800, Note_off_c, 0, 60, 67
2, 940800, Note_on_c, 0, 46, 67
2, 940864, Note_off_c, 0, 46, 67
2, 940928, Note_off_c, 0, 46, 67
2, 940928, Note_on_c, 0, 58, 67
2, 940992, Note_off_c, 0, 58, 67
2, 941056, Note_off_c, 0, 58, 67
2, 941056, Note_on_c, 0, 50, 67
2, 941120, Note_off_c, 0, 50, 67
2, 941184, Note_off_c, 0, 50, 67
2, 941184, Note_on_c, 0, 62, 67
2, 941248, Note_off_c, 0, 62, 67
2, 941312, Note_off_c, 0, 62, 67
2, 941312, Note_on_c, 0, 48, 67
2, 941376, Note_off_c, 0, 48, 67
2, 941440, Note_off_c, 0, 48, 67
2, 941440, Note_on_c, 0, 60, 67
2, 941504, Note_off_c, 0, 60, 67
2, 941568, Note_off_c, 0, 60, 67
2, 941568, Note_on_c, 0, 46, 67
2, 941632, Note_off_c, 0, 46, 67
2, 941696, Note_off_c, 0, 46, 67
2, 941696, Note_on_c, 0, 58, 67
2, 941760, Note_off_c, 0, 58, 67
2, 941824, Note_off_c, 0, 58, 67
2, 941824, Note_on_c, 0, 48, 67
2, 941888, Note_off_c, 0, 48, 67
2, 941952, Note_off_c, 0, 48, 67
2, 941952, Note_on_c, 0, 60, 67
2, 942016, Note_off_c, 0, 60, 67
2, 942080, Note_off_c, 0, 60, 67
2, 942080, Note_on_c, 0, 50, 67
2, 942144, Note_off_c, 0, 50, 67
2, 942208, Note_off_c, 0, 50, 67
2, 942208, Note_on_c, 0, 62, 67
2, 942272, Note_off_c, 0, 62, 67
2, 942336, Note_off_c, 0, 62, 67
2, 942336, Note_on_c, 0, 46, 67
2, 942400, Note_off_c, 0, 46, 67
2, 942464, Note_off_c, 0, 46, 67
2, 942464, Note_on_c, 0, 58, 67
2, 942528, Note_off_c, 0, 58, 67
2, 942592, Note_off_c, 0, 58, 67
2, 942592, Note_on_c, 0, 51, 67
2, 942656, Note_off_c, 0, 51, 67
2, 942720, Note_off_c, 0, 51, 67
2, 942720, Note_on_c, 0, 63, 67
2, 942784, Note_off_c, 0, 63, 67
2, 942848, Note_off_c, 0, 63, 67
2, 942848, Note_on_c, 0, 46, 67
2, 942912, Note_off_c, 0, 46, 67
2, 942976, Note_off_c, 0, 46, 67
2, 942976, Note_on_c, 0, 58, 67
2, 943040, Note_off_c, 0, 58, 67
2, 943104, Note_off_c, 0, 58, 67
2, 943104, Note_on_c, 0, 39, 67
2, 943168, Note_off_c, 0, 39, 67
2, 943168, Note_on_c, 0, 46, 67
2, 943232, Note_off_c, 0, 46, 67
2, 943232, Note_on_c, 0, 51, 67
2, 943296, Note_off_c, 0, 51, 67
2, 943296, Note_on_c, 0, 53, 67
2, 943360, Note_off_c, 0, 53, 67
2, 943360, Note_on_c, 0, 55, 67
2, 943424, Note_off_c, 0, 55, 67
2, 943424, Note_on_c, 0, 51, 67
2, 943488, Note_off_c, 0, 51, 67
2, 943488, Note_on_c, 0, 58, 67
2, 943552, Note_off_c, 0, 58, 67
2, 943552, Note_on_c, 0, 63, 67
2, 943600, Control_c, 0, 93, 0
2, 943616, Note_off_c, 0, 63, 67
2, 943616, Note_on_c, 0, 44, 67
2, 943680, Note_off_c, 0, 44, 67
2, 943680, Note_on_c, 0, 51, 67
2, 943744, Note_off_c, 0, 51, 67
2, 943744, Note_on_c, 0, 56, 67
2, 943808, Note_off_c, 0, 56, 67
2, 943808, Note_on_c, 0, 58, 67
2, 943872, Note_off_c, 0, 58, 67
2, 943872, Note_on_c, 0, 60, 67
2, 943936, Note_off_c, 0, 60, 67
2, 943936, Note_on_c, 0, 56, 67
2, 944000, Note_off_c, 0, 56, 67
2, 944000, Note_on_c, 0, 63, 67
2, 944064, Note_off_c, 0, 63, 67
2, 944064, Note_on_c, 0, 68, 67
2, 944112, Control_c, 0, 93, 0
2, 944128, Note_off_c, 0, 68, 67
2, 944128, Note_on_c, 0, 46, 67
2, 944192, Note_off_c, 0, 46, 67
2, 944192, Note_on_c, 0, 53, 67
2, 944256, Note_off_c, 0, 53, 67
2, 944256, Note_on_c, 0, 58, 67
2, 944320, Note_off_c, 0, 58, 67
2, 944320, Note_on_c, 0, 60, 67
2, 944384, Note_off_c, 0, 60, 67
2, 944384, Note_on_c, 0, 62, 67
2, 944448, Note_off_c, 0, 62, 67
2, 944448, Note_on_c, 0, 58, 67
2, 944512, Note_off_c, 0, 58, 67
2, 944512, Note_on_c, 0, 65, 67
2, 944576, Note_off_c, 0, 65, 67
2, 944576, Note_on_c, 0, 70, 67
2, 944624, Control_c, 0, 93, 0
2, 944640, Note_off_c, 0, 70, 67
2, 944640, Note_on_c, 0, 41, 67
2, 944704, Note_off_c, 0, 41, 67
2, 944704, Note_on_c, 0, 44, 67
2, 944768, Note_off_c, 0, 44, 67
2, 944768, Control_c, 0, 64, 64
2, 944768, Note_on_c, 0, 50, 67
2, 944789, Note_off_c, 0, 50, 67
2, 944789, Note_on_c, 0, 53, 67
2, 944810, Note_off_c, 0, 53, 67
2, 944810, Note_on_c, 0, 58, 67
2, 944831, Note_off_c, 0, 58, 67
2, 944832, Control_c, 0, 93, 0
2, 944832, Note_on_c, 0, 62, 67
2, 944853, Note_off_c, 0, 62, 67
2, 944853, Note_on_c, 0, 65, 67
2, 944874, Note_off_c, 0, 65, 67
2, 944874, Note_on_c, 0, 70, 67
2, 944896, Control_c, 0, 93, 0
2, 944896, Control_c, 0, 64, 0
2, 945024, Note_off_c, 0, 70, 67
2, 945024, Note_on_c, 0, 51, 67
2, 945088, Note_off_c, 0, 51, 67
2, 945088, Note_on_c, 0, 46, 67
2, 945152, Note_off_c, 0, 46, 67
2, 945152, Note_on_c, 0, 39, 67
2, 945216, Note_off_c, 0, 39, 67
2, 945216, Note_on_c, 0, 46, 67
2, 945280, Note_off_c, 0, 46, 67
2, 945280, Note_on_c, 0, 51, 67
2, 945344, Note_off_c, 0, 51, 67
2, 945344, Note_on_c, 0, 53, 67
2, 945408, Note_off_c, 0, 53, 67
2, 945408, Note_on_c, 0, 55, 67
2, 945472, Note_off_c, 0, 55, 67
2, 945472, Note_on_c, 0, 51, 67
2, 945536, Note_off_c, 0, 51, 67
2, 945536, Note_on_c, 0, 58, 67
2, 945600, Note_off_c, 0, 58, 67
2, 945600, Note_on_c, 0, 63, 67
2, 945648, Control_c, 0, 93, 0
2, 945664, Note_off_c, 0, 63, 67
2, 945664, Note_on_c, 0, 44, 67
2, 945728, Note_off_c, 0, 44, 67
2, 945728, Note_on_c, 0, 51, 67
2, 945792, Note_off_c, 0, 51, 67
2, 945792, Note_on_c, 0, 56, 67
2, 945856, Note_off_c, 0, 56, 67
2, 945856, Note_on_c, 0, 58, 67
2, 945920, Note_off_c, 0, 58, 67
2, 945920, Note_on_c, 0, 60, 67
2, 945984, Note_off_c, 0, 60, 67
2, 945984, Note_on_c, 0, 56, 67
2, 946048, Note_off_c, 0, 56, 67
2, 946048, Note_on_c, 0, 63, 67
2, 946112, Note_off_c, 0, 63, 67
2, 946112, Note_on_c, 0, 68, 67
2, 946160, Control_c, 0, 93, 0
2, 946176, Note_off_c, 0, 68, 67
2, 946176, Note_on_c, 0, 46, 67
2, 946240, Note_off_c, 0, 46, 67
2, 946240, Note_on_c, 0, 53, 67
2, 946304, Note_off_c, 0, 53, 67
2, 946304, Note_on_c, 0, 58, 67
2, 946368, Note_off_c, 0, 58, 67
2, 946368, Note_on_c, 0, 60, 67
2, 946432, Note_off_c, 0, 60, 67
2, 946432, Note_on_c, 0, 62, 67
2, 946496, Note_off_c, 0, 62, 67
2, 946496, Note_on_c, 0, 58, 67
2, 946560, Note_off_c, 0, 58, 67
2, 946560, Note_on_c, 0, 65, 67
2, 946624, Note_off_c, 0, 65, 67
2, 946624, Note_on_c, 0, 70, 67
2, 946672, Control_c, 0, 93, 0
2, 946688, Note_off_c, 0, 70, 67
2, 946688, Note_on_c, 0, 39, 67
2, 946752, Note_off_c, 0, 39, 67
2, 946752, Note_on_c, 0, 46, 67
2, 946816, Note_off_c, 0, 46, 67
2, 946816, Note_on_c, 0, 51, 67
2, 946880, Note_off_c, 0, 51, 67
2, 946880, Control_c, 0, 64, 64
2, 946880, Note_on_c, 0, 55, 67
2, 946890, Note_off_c, 0, 55, 67
2, 946890, Note_on_c, 0, 58, 67
2, 946901, Note_off_c, 0, 58, 67
2, 946901, Note_on_c, 0, 63, 67
2, 946911, Note_off_c, 0, 63, 67
2, 946912, Control_c, 0, 93, 0
2, 946912, Note_on_c, 0, 67, 67
2, 946922, Note_off_c, 0, 67, 67
2, 946922, Note_on_c, 0, 70, 67
2, 946933, Note_off_c, 0, 70, 67
2, 946933, Note_on_c, 0, 75, 67
2, 946943, Note_off_c, 0, 75, 67
2, 946944, Control_c, 0, 93, 0
2, 947072, Control_c, 0, 93, 0
2, 947136, Control_c, 0, 93, 0
2, 947136, Control_c, 0, 64, 0
2, 947200, Control_c, 0, 93, 0
2, 947200, Note_on_c, 0, 51, 67
2, 947264, Note_off_c, 0, 51, 67
2, 947328, Note_off_c, 0, 51, 67
2, 947328, Note_on_c, 0, 63, 67
2, 947392, Note_off_c, 0, 63, 67
2, 947456, Note_off_c, 0, 63, 67
2, 947456, Note_on_c, 0, 50, 67
2, 947520, Note_off_c, 0, 50, 67
2, 947584, Note_off_c, 0, 50, 67
2, 947584, Note_on_c, 0, 62, 67
2, 947648, Note_off_c, 0, 62, 67
2, 947712, Note_off_c, 0, 62, 67
2, 947712, Note_on_c, 0, 48, 67
2, 947776, Note_off_c, 0, 48, 67
2, 947840, Note_off_c, 0, 48, 67
2, 947840, Note_on_c, 0, 60, 67
2, 947904, Note_off_c, 0, 60, 67
2, 947968, Note_off_c, 0, 60, 67
2, 947968, Note_on_c, 0, 46, 67
2, 948032, Note_off_c, 0, 46, 67
2, 948096, Note_off_c, 0, 46, 67
2, 948096, Note_on_c, 0, 58, 67
2, 948160, Note_off_c, 0, 58, 67
2, 948224, Note_off_c, 0, 58, 67
2, 948224, Note_on_c, 0, 51, 67
2, 948288, Note_off_c, 0, 51, 67
2, 948352, Note_off_c, 0, 51, 67
2, 948352, Note_on_c, 0, 63, 67
2, 948416, Note_off_c, 0, 63, 67
2, 948480, Note_off_c, 0, 63, 67
2, 948480, Note_on_c, 0, 46, 67
2, 948544, Note_off_c, 0, 46, 67
2, 948608, Note_off_c, 0, 46, 67
2, 948608, Note_on_c, 0, 58, 67
2, 948672, Note_off_c, 0, 58, 67
2, 948736, Note_off_c, 0, 58, 67
2, 948736, Note_on_c, 0, 48, 67
2, 948800, Note_off_c, 0, 48, 67
2, 948864, Note_off_c, 0, 48, 67
2, 948864, Note_on_c, 0, 60, 67
2, 948928, Note_off_c, 0, 60, 67
2, 948992, Note_off_c, 0, 60, 67
2, 948992, Note_on_c, 0, 46, 67
2, 949056, Note_off_c, 0, 46, 67
2, 949120, Note_off_c, 0, 46, 67
2, 949120, Note_on_c, 0, 58, 67
2, 949184, Note_off_c, 0, 58, 67
2, 949248, Note_off_c, 0, 58, 67
2, 949248, Note_on_c, 0, 50, 67
2, 949312, Note_off_c, 0, 50, 67
2, 949376, Note_off_c, 0, 50, 67
2, 949376, Note_on_c, 0, 62, 67
2, 949440, Note_off_c, 0, 62, 67
2, 949504, Note_off_c, 0, 62, 67
2, 949504, Note_on_c, 0, 46, 67
2, 949568, Note_off_c, 0, 46, 67
2, 949632, Note_off_c, 0, 46, 67
2, 949632, Note_on_c, 0, 58, 67
2, 949696, Note_off_c, 0, 58, 67
2, 949760, Note_off_c, 0, 58, 67
2, 949760, Note_on_c, 0, 48, 67
2, 949824, Note_off_c, 0, 48, 67
2, 949888, Note_off_c, 0, 48, 67
2, 949888, Note_on_c, 0, 60, 67
2, 949952, Note_off_c, 0, 60, 67
2, 950016, Note_off_c, 0, 60, 67
2, 950016, Note_on_c, 0, 49, 67
2, 950080, Note_off_c, 0, 49, 67
2, 950144, Note_off_c, 0, 49, 67
2, 950144, Note_on_c, 0, 61, 67
2, 950208, Note_off_c, 0, 61, 67
2, 950272, Note_off_c, 0, 61, 67
2, 950272, Note_on_c, 0, 50, 67
2, 950336, Note_off_c, 0, 50, 67
2, 950400, Note_off_c, 0, 50, 67
2, 950400, Note_on_c, 0, 62, 67
2, 950464, Note_off_c, 0, 62, 67
2, 950528, Note_off_c, 0, 62, 67
2, 950528, Note_on_c, 0, 46, 67
2, 950592, Note_off_c, 0, 46, 67
2, 950656, Note_off_c, 0, 46, 67
2, 950656, Note_on_c, 0, 58, 67
2, 950720, Note_off_c, 0, 58, 67
2, 950784, Note_off_c, 0, 58, 67
2, 950784, Note_on_c, 0, 51, 67
2, 950848, Note_off_c, 0, 51, 67
2, 950912, Note_off_c, 0, 51, 67
2, 950912, Note_on_c, 0, 63, 67
2, 950976, Note_off_c, 0, 63, 67
2, 951040, Note_off_c, 0, 63, 67
2, 951040, Note_on_c, 0, 46, 67
2, 951104, Note_off_c, 0, 46, 67
2, 951168, Note_off_c, 0, 46, 67
2, 951168, Note_on_c, 0, 58, 67
2, 951232, Note_off_c, 0, 58, 67
2, 951296, Note_off_c, 0, 58, 67
2, 951296, Note_on_c, 0, 51, 67
2, 951360, Note_off_c, 0, 51, 67
2, 951424, Note_off_c, 0, 51, 67
2, 951424, Note_on_c, 0, 63, 67
2, 951488, Note_off_c, 0, 63, 67
2, 951552, Note_off_c, 0, 63, 67
2, 951552, Note_on_c, 0, 50, 67
2, 951616, Note_off_c, 0, 50, 67
2, 951680, Note_off_c, 0, 50, 67
2, 951680, Note_on_c, 0, 62, 67
2, 951744, Note_off_c, 0, 62, 67
2, 951808, Note_off_c, 0, 62, 67
2, 951808, Note_on_c, 0, 48, 67
2, 951872, Note_off_c, 0, 48, 67
2, 951936, Note_off_c, 0, 48, 67
2, 951936, Note_on_c, 0, 60, 67
2, 952000, Note_off_c, 0, 60, 67
2, 952064, Note_off_c, 0, 60, 67
2, 952064, Note_on_c, 0, 46, 67
2, 952128, Note_off_c, 0, 46, 67
2, 952192, Note_off_c, 0, 46, 67
2, 952192, Note_on_c, 0, 58, 67
2, 952256, Note_off_c, 0, 58, 67
2, 952320, Note_off_c, 0, 58, 67
2, 952320, Note_on_c, 0, 51, 67
2, 952384, Note_off_c, 0, 51, 67
2, 952448, Note_off_c, 0, 51, 67
2, 952448, Note_on_c, 0, 63, 67
2, 952512, Note_off_c, 0, 63, 67
2, 952576, Note_off_c, 0, 63, 67
2, 952576, Note_on_c, 0, 46, 67
2, 952640, Note_off_c, 0, 46, 67
2, 952704, Note_off_c, 0, 46, 67
2, 952704, Note_on_c, 0, 58, 67
2, 952768, Note_off_c, 0, 58, 67
2, 952832, Note_off_c, 0, 58, 67
2, 952832, Note_on_c, 0, 48, 67
2, 952896, Note_off_c, 0, 48, 67
2, 952960, Note_off_c, 0, 48, 67
2, 952960, Note_on_c, 0, 60, 67
2, 953024, Note_off_c, 0, 60, 67
2, 953088, Note_off_c, 0, 60, 67
2, 953088, Note_on_c, 0, 46, 67
2, 953152, Note_off_c, 0, 46, 67
2, 953216, Note_off_c, 0, 46, 67
2, 953216, Note_on_c, 0, 58, 67
2, 953280, Note_off_c, 0, 58, 67
2, 953344, Note_off_c, 0, 58, 67
2, 953344, Note_on_c, 0, 50, 67
2, 953408, Note_off_c, 0, 50, 67
2, 953472, Note_off_c, 0, 50, 67
2, 953472, Note_on_c, 0, 62, 67
2, 953536, Note_off_c, 0, 62, 67
2, 953600, Note_off_c, 0, 62, 67
2, 953600, Note_on_c, 0, 48, 67
2, 953664, Note_off_c, 0, 48, 67
2, 953728, Note_off_c, 0, 48, 67
2, 953728, Note_on_c, 0, 60, 67
2, 953792, Note_off_c, 0, 60, 67
2, 953856, Note_off_c, 0, 60, 67
2, 953856, Note_on_c, 0, 46, 67
2, 953920, Note_off_c, 0, 46, 67
2, 953984, Note_off_c, 0, 46, 67
2, 953984, Note_on_c, 0, 58, 67
2, 954048, Note_off_c, 0, 58, 67
2, 954112, Note_off_c, 0, 58, 67
2, 954112, Note_on_c, 0, 48, 67
2, 954176, Note_off_c, 0, 48, 67
2, 954240, Note_off_c, 0, 48, 67
2, 954240, Note_on_c, 0, 60, 67
2, 954304, Note_off_c, 0, 60, 67
2, 954368, Note_off_c, 0, 60, 67
2, 954368, Note_on_c, 0, 50, 67
2, 954432, Note_off_c, 0, 50, 67
2, 954496, Note_off_c, 0, 50, 67
2, 954496, Note_on_c, 0, 62, 67
2, 954560, Note_off_c, 0, 62, 67
2, 954624, Note_off_c, 0, 62, 67
2, 954624, Note_on_c, 0, 46, 67
2, 954688, Note_off_c, 0, 46, 67
2, 954752, Note_off_c, 0, 46, 67
2, 954752, Note_on_c, 0, 58, 67
2, 954816, Note_off_c, 0, 58, 67
2, 954880, Note_off_c, 0, 58, 67
2, 954880, Note_on_c, 0, 51, 67
2, 954944, Note_off_c, 0, 51, 67
2, 955008, Note_off_c, 0, 51, 67
2, 955008, Note_on_c, 0, 63, 67
2, 955072, Note_off_c, 0, 63, 67
2, 955136, Note_off_c, 0, 63, 67
2, 955136, Note_on_c, 0, 46, 67
2, 955200, Note_off_c, 0, 46, 67
2, 955264, Note_off_c, 0, 46, 67
2, 955264, Note_on_c, 0, 58, 67
2, 955328, Note_off_c, 0, 58, 67
2, 955392, Note_off_c, 0, 58, 67
2, 955392, Note_on_c, 0, 39, 67
2, 955456, Note_off_c, 0, 39, 67
2, 955456, Note_on_c, 0, 46, 67
2, 955520, Note_off_c, 0, 46, 67
2, 955520, Note_on_c, 0, 51, 67
2, 955584, Note_off_c, 0, 51, 67
2, 955584, Note_on_c, 0, 53, 67
2, 955648, Note_off_c, 0, 53, 67
2, 955648, Note_on_c, 0, 55, 67
2, 955712, Note_off_c, 0, 55, 67
2, 955712, Note_on_c, 0, 51, 67
2, 955776, Note_off_c, 0, 51, 67
2, 955776, Note_on_c, 0, 58, 67
2, 955840, Note_off_c, 0, 58, 67
2, 955840, Note_on_c, 0, 63, 67
2, 955888, Control_c, 0, 93, 0
2, 955904, Note_off_c, 0, 63, 67
2, 955904, Note_on_c, 0, 44, 67
2, 955968, Note_off_c, 0, 44, 67
2, 955968, Note_on_c, 0, 51, 67
2, 956032, Note_off_c, 0, 51, 67
2, 956032, Note_on_c, 0, 56, 67
2, 956096, Note_off_c, 0, 56, 67
2, 956096, Note_on_c, 0, 58, 67
2, 956160, Note_off_c, 0, 58, 67
2, 956160, Note_on_c, 0, 60, 67
2, 956224, Note_off_c, 0, 60, 67
2, 956224, Note_on_c, 0, 56, 67
2, 956288, Note_off_c, 0, 56, 67
2, 956288, Note_on_c, 0, 63, 67
2, 956352, Note_off_c, 0, 63, 67
2, 956352, Note_on_c, 0, 68, 67
2, 956400, Control_c, 0, 93, 0
2, 956416, Note_off_c, 0, 68, 67
2, 956416, Note_on_c, 0, 46, 67
2, 956480, Note_off_c, 0, 46, 67
2, 956480, Note_on_c, 0, 53, 67
2, 956544, Note_off_c, 0, 53, 67
2, 956544, Note_on_c, 0, 58, 67
2, 956608, Note_off_c, 0, 58, 67
2, 956608, Note_on_c, 0, 60, 67
2, 956672, Note_off_c, 0, 60, 67
2, 956672, Note_on_c, 0, 62, 67
2, 956736, Note_off_c, 0, 62, 67
2, 956736, Note_on_c, 0, 58, 67
2, 956800, Note_off_c, 0, 58, 67
2, 956800, Note_on_c, 0, 65, 67
2, 956864, Note_off_c, 0, 65, 67
2, 956864, Note_on_c, 0, 70, 67
2, 956912, Control_c, 0, 93, 0
2, 956928, Note_off_c, 0, 70, 67
2, 956928, Note_on_c, 0, 41, 67
2, 956992, Note_off_c, 0, 41, 67
2, 956992, Note_on_c, 0, 44, 67
2, 957056, Note_off_c, 0, 44, 67
2, 957056, Control_c, 0, 64, 64
2, 957056, Note_on_c, 0, 50, 67
2, 957077, Note_off_c, 0, 50, 67
2, 957077, Note_on_c, 0, 53, 67
2, 957098, Note_off_c, 0, 53, 67
2, 957098, Note_on_c, 0, 58, 67
2, 957119, Note_off_c, 0, 58, 67
2, 957120, Control_c, 0, 93, 0
2, 957120, Note_on_c, 0, 62, 67
2, 957141, Note_off_c, 0, 62, 67
2, 957141, Note_on_c, 0, 65, 67
2, 957162, Note_off_c, 0, 65, 67
2, 957162, Note_on_c, 0, 70, 67
2, 957184, Control_c, 0, 93, 0
2, 957184, Control_c, 0, 64, 0
2, 957312, Note_off_c, 0, 70, 67
2, 957312, Note_on_c, 0, 51, 67
2, 957376, Note_off_c, 0, 51, 67
2, 957376, Note_on_c, 0, 46, 67
2, 957440, Note_off_c, 0, 46, 67
2, 957440, Note_on_c, 0, 39, 67
2, 957504, Note_off_c, 0, 39, 67
2, 957504, Note_on_c, 0, 46, 67
2, 957568, Note_off_c, 0, 46, 67
2, 957568, Note_on_c, 0, 51, 67
2, 957632, Note_off_c, 0, 51, 67
2, 957632, Note_on_c, 0, 53, 67
2, 957696, Note_off_c, 0, 53, 67
2, 957696, Note_on_c, 0, 55, 67
2, 957760, Note_off_c, 0, 55, 67
2, 957760, Note_on_c, 0, 51, 67
2, 957824, Note_off_c, 0, 51, 67
2, 957824, Note_on_c, 0, 58, 67
2, 957888, Note_off_c, 0, 58, 67
2, 957888, Note_on_c, 0, 63, 67
2, 957936, Control_c, 0, 93, 0
2, 957952, Note_off_c, 0, 63, 67
2, 957952, Note_on_c, 0, 44, 67
2, 958016, Note_off_c, 0, 44, 67
2, 958016, Note_on_c, 0, 51, 67
2, 958080, Note_off_c, 0, 51, 67
2, 958080, Note_on_c, 0, 56, 67
2, 958144, Note_off_c, 0, 56, 67
2, 958144, Note_on_c, 0, 58, 67
2, 958208, Note_off_c, 0, 58, 67
2, 958208, Note_on_c, 0, 60, 67
2, 958272, Note_off_c, 0, 60, 67
2, 958272, Note_on_c, 0, 56, 67
2, 958336, Note_off_c, 0, 56, 67
2, 958336, Note_on_c, 0, 63, 67
2, 958400, Note_off_c, 0, 63, 67
2, 958400, Note_on_c, 0, 68, 67
2, 958448, Control_c, 0, 93, 0
2, 958464, Note_off_c, 0, 68, 67
2, 958464, Note_on_c, 0, 46, 67
2, 958528, Note_off_c, 0, 46, 67
2, 958528, Note_on_c, 0, 53, 67
2, 958592, Note_off_c, 0, 53, 67
2, 958592, Note_on_c, 0, 58, 67
2, 958656, Note_off_c, 0, 58, 67
2, 958656, Note_on_c, 0, 60, 67
2, 958720, Note_off_c, 0, 60, 67
2, 958720, Note_on_c, 0, 62, 67
2, 958784, Note_off_c, 0, 62, 67
2, 958784, Note_on_c, 0, 58, 67
2, 958848, Note_off_c, 0, 58, 67
2, 958848, Note_on_c, 0, 65, 67
2, 958912, Note_off_c, 0, 65, 67
2, 958912, Note_on_c, 0, 70, 67
2, 958960, Control_c, 0, 93, 0
2, 958976, Note_off_c, 0, 70, 67
2, 958976, Note_on_c, 0, 39, 67
2, 959040, Note_off_c, 0, 39, 67
2, 959040, Note_on_c, 0, 46, 67
2, 959104, Note_off_c, 0, 46, 67
2, 959104, Note_on_c, 0, 51, 67
2, 959168, Note_off_c, 0, 51, 67
2, 959168, Control_c, 0, 64, 64
2, 959168, Note_on_c, 0, 55, 67
2, 959178, Note_off_c, 0, 55, 67
2, 959178, Note_on_c, 0, 58, 67
2, 959189, Note_off_c, 0, 58, 67
2, 959189, Note_on_c, 0, 63, 67
2, 959199, Note_off_c, 0, 63, 67
2, 959200, Control_c, 0, 93, 0
2, 959200, Note_on_c, 0, 67, 67
2, 959210, Note_off_c, 0, 67, 67
2, 959210, Note_on_c, 0, 70, 67
2, 959221, Note_off_c, 0, 70, 67
2, 959221, Note_on_c, 0, 75, 67
2, 959231, Note_off_c, 0, 75, 67
2, 959232, Control_c, 0, 93, 0
2, 959360, Control_c, 0, 93, 0
2, 959424, Control_c, 0, 93, 0
2, 959424, Control_c, 0, 64, 0
2, 959488, Control_c, 0, 93, 0
2, 959488, Note_on_c, 0, 51, 67
2, 959552, Note_off_c, 0, 51, 67
2, 959616, Note_off_c, 0, 51, 67
2, 959616, Note_on_c, 0, 63, 67
2, 959680, Note_off_c, 0, 63, 67
2, 959744, Note_off_c, 0, 63, 67
2, 959744, Note_on_c, 0, 50, 67
2, 959808, Note_off_c, 0, 50, 67
2, 959872, Note_off_c, 0, 50, 67
2, 959872, Note_on_c, 0, 62, 67
2, 959936, Note_off_c, 0, 62, 67
2, 960000, Note_off_c, 0, 62, 67
2, 960000, Note_on_c, 0, 48, 67
2, 960064, Note_off_c, 0, 48, 67
2, 960128, Note_off_c, 0, 48, 67
2, 960128, Note_on_c, 0, 60, 67
2, 960192, Note_off_c, 0, 60, 67
2, 960256, Note_off_c, 0, 60, 67
2, 960256, Note_on_c, 0, 46, 67
2, 960320, Note_off_c, 0, 46, 67
2, 960384, Note_off_c, 0, 46, 67
2, 960384, Note_on_c, 0, 58, 67
2, 960448, Note_off_c, 0, 58, 67
2, 960512, Note_off_c, 0, 58, 67
2, 960512, Note_on_c, 0, 51, 67
2, 960576, Note_off_c, 0, 51, 67
2, 960640, Note_off_c, 0, 51, 67
2, 960640, Note_on_c, 0, 63, 67
2, 960704, Note_off_c, 0, 63, 67
2, 960768, Note_off_c, 0, 63, 67
2, 960768, Note_on_c, 0, 46, 67
2, 960832, Note_off_c, 0, 46, 67
2, 960896, Note_off_c, 0, 46, 67
2, 960896, Note_on_c, 0, 58, 67
2, 960960, Note_off_c, 0, 58, 67
2, 961024, Note_off_c, 0, 58, 67
2, 961024, Note_on_c, 0, 48, 67
2, 961088, Note_off_c, 0, 48, 67
2, 961152, Note_off_c, 0, 48, 67
2, 961152, Note_on_c, 0, 60, 67
2, 961216, Note_off_c, 0, 60, 67
2, 961280, Note_off_c, 0, 60, 67
2, 961280, Note_on_c, 0, 46, 67
2, 961344, Note_off_c, 0, 46, 67
2, 961408, Note_off_c, 0, 46, 67
2, 961408, Note_on_c, 0, 58, 67
2, 961472, Note_off_c, 0, 58, 67
2, 961536, Note_off_c, 0, 58, 67
2, 961536, Note_on_c, 0, 50, 67
2, 961600, Note_off_c, 0, 50, 67
2, 961664, Note_off_c, 0, 50, 67
2, 961664, Note_on_c, 0, 62, 67
2, 961728, Note_off_c, 0, 62, 67
2, 961792, Note_off_c, 0, 62, 67
2, 961792, Note_on_c, 0, 46, 67
2, 961856, Note_off_c, 0, 46, 67
2, 961920, Note_off_c, 0, 46, 67
2, 961920, Note_on_c, 0, 58, 67
2, 961984, Note_off_c, 0, 58, 67
2, 962048, Note_off_c, 0, 58, 67
2, 962048, Note_on_c, 0, 48, 67
2, 962112, Note_off_c, 0, 48, 67
2, 962176, Note_off_c, 0, 48, 67
2, 962176, Note_on_c, 0, 60, 67
2, 962240, Note_off_c, 0, 60, 67
2, 962304, Note_off_c, 0, 60, 67
2, 962304, Note_on_c, 0, 49, 67
2, 962368, Note_off_c, 0, 49, 67
2, 962432, Note_off_c, 0, 49, 67
2, 962432, Note_on_c, 0, 61, 67
2, 962496, Note_off_c, 0, 61, 67
2, 962560, Note_off_c, 0, 61, 67
2, 962560, Note_on_c, 0, 50, 67
2, 962624, Note_off_c, 0, 50, 67
2, 962688, Note_off_c, 0, 50, 67
2, 962688, Note_on_c, 0, 62, 67
2, 962752, Note_off_c, 0, 62, 67
2, 962816, Note_off_c, 0, 62, 67
2, 962816, Note_on_c, 0, 46, 67
2, 962880, Note_off_c, 0, 46, 67
2, 962944, Note_off_c, 0, 46, 67
2, 962944, Note_on_c, 0, 58, 67
2, 963008, Note_off_c, 0, 58, 67
2, 963072, Note_off_c, 0, 58, 67
2, 963072, Note_on_c, 0, 51, 67
2, 963136, Note_off_c, 0, 51, 67
2, 963200, Note_off_c, 0, 51, 67
2, 963200, Note_on_c, 0, 63, 67
2, 963264, Note_off_c, 0, 63, 67
2, 963328, Note_off_c, 0, 63, 67
2, 963328, Note_on_c, 0, 46, 67
2, 963392, Note_off_c, 0, 46, 67
2, 963456, Note_off_c, 0, 46, 67
2, 963456, Note_on_c, 0, 58, 67
2, 963520, Note_off_c, 0, 58, 67
2, 963584, Note_off_c, 0, 58, 67
2, 963584, Note_on_c, 0, 51, 67
2, 963648, Note_off_c, 0, 51, 67
2, 963712, Note_off_c, 0, 51, 67
2, 963712, Note_on_c, 0, 63, 67
2, 963776, Note_off_c, 0, 63, 67
2, 963840, Note_off_c, 0, 63, 67
2, 963840, Note_on_c, 0, 50, 67
2, 963904, Note_off_c, 0, 50, 67
2, 963968, Note_off_c, 0, 50, 67
2, 963968, Note_on_c, 0, 62, 67
2, 964032, Note_off_c, 0, 62, 67
2, 964096, Note_off_c, 0, 62, 67
2, 964096, Note_on_c, 0, 48, 67
2, 964160, Note_off_c, 0, 48, 67
2, 964224, Note_off_c, 0, 48, 67
2, 964224, Note_on_c, 0, 60, 67
2, 964288, Note_off_c, 0, 60, 67
2, 964352, Note_off_c, 0, 60, 67
2, 964352, Note_on_c, 0, 46, 67
2, 964416, Note_off_c, 0, 46, 67
2, 964480, Note_off_c, 0, 46, 67
2, 964480, Note_on_c, 0, 58, 67
2, 964544, Note_off_c, 0, 58, 67
2, 964608, Note_off_c, 0, 58, 67
2, 964608, Note_on_c, 0, 51, 67
2, 964672, Note_off_c, 0, 51, 67
2, 964736, Note_off_c, 0, 51, 67
2, 964736, Note_on_c, 0, 63, 67
2, 964800, Note_off_c, 0, 63, 67
2, 964864, Note_off_c, 0, 63, 67
2, 964864, Note_on_c, 0, 46, 67
2, 964928, Note_off_c, 0, 46, 67
2, 964992, Note_off_c, 0, 46, 67
2, 964992, Note_on_c, 0, 58, 67
2, 965056, Note_off_c, 0, 58, 67
2, 965120, Note_off_c, 0, 58, 67
2, 965120, Note_on_c, 0, 48, 67
2, 965184, Note_off_c, 0, 48, 67
2, 965248, Note_off_c, 0, 48, 67
2, 965248, Note_on_c, 0, 60, 67
2, 965312, Note_off_c, 0, 60, 67
2, 965376, Note_off_c, 0, 60, 67
2, 965376, Note_on_c, 0, 46, 67
2, 965440, Note_off_c, 0, 46, 67
2, 965504, Note_off_c, 0, 46, 67
2, 965504, Note_on_c, 0, 58, 67
2, 965568, Note_off_c, 0, 58, 67
2, 965632, Note_off_c, 0, 58, 67
2, 965632, Note_on_c, 0, 50, 67
2, 965696, Note_off_c, 0, 50, 67
2, 965760, Note_off_c, 0, 50, 67
2, 965760, Note_on_c, 0, 62, 67
2, 965824, Note_off_c, 0, 62, 67
2, 965888, Note_off_c, 0, 62, 67
2, 965888, Note_on_c, 0, 48, 67
2, 965952, Note_off_c, 0, 48, 67
2, 966016, Note_off_c, 0, 48, 67
2, 966016, Note_on_c, 0, 60, 67
2, 966080, Note_off_c, 0, 60, 67
2, 966144, Note_off_c, 0, 60, 67
2, 966144, Note_on_c, 0, 46, 67
2, 966208, Note_off_c, 0, 46, 67
2, 966272, Note_off_c, 0, 46, 67
2, 966272, Note_on_c, 0, 58, 67
2, 966336, Note_off_c, 0, 58, 67
2, 966400, Note_off_c, 0, 58, 67
2, 966400, Note_on_c, 0, 48, 67
2, 966464, Note_off_c, 0, 48, 67
2, 966528, Note_off_c, 0, 48, 67
2, 966528, Note_on_c, 0, 60, 67
2, 966592, Note_off_c, 0, 60, 67
2, 966656, Note_off_c, 0, 60, 67
2, 966656, Note_on_c, 0, 50, 67
2, 966720, Note_off_c, 0, 50, 67
2, 966784, Note_off_c, 0, 50, 67
2, 966784, Note_on_c, 0, 62, 67
2, 966848, Note_off_c, 0, 62, 67
2, 966912, Note_off_c, 0, 62, 67
2, 966912, Note_on_c, 0, 46, 67
2, 966976, Note_off_c, 0, 46, 67
2, 967040, Note_off_c, 0, 46, 67
2, 967040, Note_on_c, 0, 58, 67
2, 967104, Note_off_c, 0, 58, 67
2, 967168, Note_off_c, 0, 58, 67
2, 967168, Note_on_c, 0, 51, 67
2, 967232, Note_off_c, 0, 51, 67
2, 967296, Note_off_c, 0, 51, 67
2, 967296, Note_on_c, 0, 63, 67
2, 967360, Note_off_c, 0, 63, 67
2, 967424, Note_off_c, 0, 63, 67
2, 967424, Note_on_c, 0, 46, 67
2, 967488, Note_off_c, 0, 46, 67
2, 967552, Note_off_c, 0, 46, 67
2, 967552, Note_on_c, 0, 58, 67
2, 967616, Note_off_c, 0, 58, 67
2, 967680, Note_off_c, 0, 58, 67
2, 967680, Note_on_c, 0, 39, 67
2, 967744, Note_off_c, 0, 39, 67
2, 967744, Note_on_c, 0, 46, 67
2, 967808, Note_off_c, 0, 46, 67
2, 967808, Note_on_c, 0, 51, 67
2, 967872, Note_off_c, 0, 51, 67
2, 967872, Note_on_c, 0, 53, 67
2, 967936, Note_off_c, 0, 53, 67
2, 967936, Note_on_c, 0, 55, 67
2, 968000, Note_off_c, 0, 55, 67
2, 968000, Note_on_c, 0, 51, 67
2, 968064, Note_off_c, 0, 51, 67
2, 968064, Note_on_c, 0, 58, 67
2, 968128, Note_off_c, 0, 58, 67
2, 968128, Note_on_c, 0, 63, 67
2, 968176, Control_c, 0, 93, 0
2, 968192, Note_off_c, 0, 63, 67
2, 968192, Note_on_c, 0, 44, 67
2, 968256, Note_off_c, 0, 44, 67
2, 968256, Note_on_c, 0, 51, 67
2, 968320, Note_off_c, 0, 51, 67
2, 968320, Note_on_c, 0, 56, 67
2, 968384, Note_off_c, 0, 56, 67
2, 968384, Note_on_c, 0, 58, 67
2, 968448, Note_off_c, 0, 58, 67
2, 968448, Note_on_c, 0, 60, 67
2, 968512, Note_off_c, 0, 60, 67
2, 968512, Note_on_c, 0, 56, 67
2, 968576, Note_off_c, 0, 56, 67
2, 968576, Note_on_c, 0, 63, 67
2, 968640, Note_off_c, 0, 63, 67
2, 968640, Note_on_c, 0, 68, 67
2, 968688, Control_c, 0, 93, 0
2, 968704, Note_off_c, 0, 68, 67
2, 968704, Note_on_c, 0, 46, 67
2, 968768, Note_off_c, 0, 46, 67
2, 968768, Note_on_c, 0, 53, 67
2, 968832, Note_off_c, 0, 53, 67
2, 968832, Note_on_c, 0, 58, 67
2, 968896, Note_off_c, 0, 58, 67
2, 968896, Note_on_c, 0, 60, 67
2, 968960, Note_off_c, 0, 60, 67
2, 968960, Note_on_c, 0, 62, 67
2, 969024, Note_off_c, 0, 62, 67
2, 969024, Note_on_c, 0, 58, 67
2, 969088, Note_off_c, 0, 58, 67
2, 969088, Note_on_c, 0, 65, 67
2, 969152, Note_off_c, 0, 65, 67
2, 969152, Note_on_c, 0, 70, 67
2, 969200, Control_c, 0, 93, 0
2, 969216, Note_off_c, 0, 70, 67
2, 969216, Note_on_c, 0, 41, 67
2, 969280, Note_off_c, 0, 41, 67
2, 969280, Note_on_c, 0, 44, 67
2, 969344, Note_off_c, 0, 44, 67
2, 969344, Control_c, 0, 64, 64
2, 969344, Note_on_c, 0, 50, 67
2, 969365, Note_off_c, 0, 50, 67
2, 969365, Note_on_c, 0, 53, 67
2, 969386, Note_off_c, 0, 53, 67
2, 969386, Note_on_c, 0, 58, 67
2, 969407, Note_off_c, 0, 58, 67
2, 969408, Control_c, 0, 93, 0
2, 969408, Note_on_c, 0, 62, 67
2, 969429, Note_off_c, 0, 62, 67
2, 969429, Note_on_c, 0, 65, 67
2, 969450, Note_off_c, 0, 65, 67
2, 969450, Note_on_c, 0, 70, 67
2, 969472, Control_c, 0, 93, 0
2, 969472, Control_c, 0, 64, 0
2, 969600, Note_off_c, 0, 70, 67
2, 969600, Note_on_c, 0, 51, 67
2, 969664, Note_off_c, 0, 51, 67
2, 969664, Note_on_c, 0, 46, 67
2, 969728, Note_off_c, 0, 46, 67
2, 969728, Note_on_c, 0, 39, 67
2, 969792, Note_off_c, 0, 39, 67
2, 969792, Note_on_c, 0, 46, 67
2, 969856, Note_off_c, 0, 46, 67
2, 969856, Note_on_c, 0, 51, 67
2, 969920, Note_off_c, 0, 51, 67
2, 969920, Note_on_c, 0, 53, 67
2, 969984, Note_off_c, 0, 53, 67
2, 969984, Note_on_c, 0, 55, 67
2, 970048, Note_off_c, 0, 55, 67
2, 970048, Note_on_c, 0, 51, 67
2, 970112, Note_off_c, 0, 51, 67
2, 970112, Note_on_c, 0, 58, 67
2, 970176, Note_off_c, 0, 58, 67
2, 970176, Note_on_c, 0, 63, 67
2, 970224, Control_c, 0, 93, 0
2, 970240, Note_off_c, 0, 63, 67
2, 970240, Note_on_c, 0, 44, 67
2, 970304, Note_off_c, 0, 44, 67
2, 970304, Note_on_c, 0, 51, 67
2, 970368, Note_off_c, 0, 51, 67
2, 970368, Note_on_c, 0, 56, 67
2, 970432, Note_off_c, 0, 56, 67
2, 970432, Note_on_c, 0, 58, 67
2, 970496, Note_off_c, 0, 58, 67
2, 970496, Note_on_c, 0, 60, 67
2, 970560, Note_off_c, 0, 60, 67
2, 970560, Note_on_c, 0, 56, 67
2, 970624, Note_off_c, 0, 56, 67
2, 970624, Note_on_c, 0, 63, 67
2, 970688, Note_off_c, 0, 63, 67
2, 970688, Note_on_c, 0, 68, 67
2, 970736, Control_c, 0, 93, 0
2, 970752, Note_off_c, 0, 68, 67
2, 970752, Note_on_c, 0, 46, 67
2, 970816, Note_off_c, 0, 46, 67
2, 970816, Note_on_c, 0, 53, 67
2, 970880, Note_off_c, 0, 53, 67
2, 970880, Note_on_c, 0, 58, 67
2, 970944, Note_off_c, 0, 58, 67
2, 970944, Note_on_c, 0, 60, 67
2, 971008, Note_off_c, 0, 60, 67
2, 971008, Note_on_c, 0, 62, 67
2, 971072, Note_off_c, 0, 62, 67
2, 971072, Note_on_c, 0, 58, 67
2, 971136, Note_off_c, 0, 58, 67
2, 971136, Note_on_c, 0, 65, 67
2, 971200, Note_off_c, 0, 65, 67
2, 971200, Note_on_c, 0, 70, 67
2, 971248, Control_c, 0, 93, 0
2, 971264, Note_off_c, 0, 70, 67
2, 971264, Note_on_c, 0, 39, 67
2, 971328, Note_off_c, 0, 39, 67
2, 971328, Note_on_c, 0, 46, 67
2, 971392, Note_off_c, 0, 46, 67
2, 971392, Note_on_c, 0, 51, 67
2, 971456, Note_off_c, 0, 51, 67
2, 971456, Control_c, 0, 64, 64
2, 971456, Note_on_c, 0, 55, 67
2, 971466, Note_off_c, 0, 55, 67
2, 971466, Note_on_c, 0, 58, 67
2, 971477, Note_off_c, 0, 58, 67
2, 971477, Note_on_c, 0, 63, 67
2, 971487, Note_off_c, 0, 63, 67
2, 971488, Control_c, 0, 93, 0
2, 971488, Note_on_c, 0, 67, 67
2, 971498, Note_off_c, 0, 67, 67
2, 971498, Note_on_c, 0, 70, 67
2, 971509, Note_off_c, 0, 70, 67
2, 971509, Note_on_c, 0, 75, 67
2, 971519, Note_off_c, 0, 75, 67
2, 971520, Control_c, 0, 93, 0
2, 971648, Control_c, 0, 93, 0
2, 971712, Control_c, 0, 93, 0
2, 971712, Control_c, 0, 64, 0
2, 971776, Control_c, 0, 93, 0
2, 971776, Note_on_c, 0, 51, 67
2, 971840, Note_off_c, 0, 51, 67
2, 971904, Note_off_c, 0, 51, 67
2, 971904, Note_on_c, 0, 63, 67
2, 971968, Note_off_c, 0, 63, 67
2, 972032, Note_off_c, 0, 63, 67
2, 972032, Note_on_c, 0, 50, 67
2, 972096, Note_off_c, 0, 50, 67
2, 972160, Note_off_c, 0, 50, 67
2, 972160, Note_on_c, 0, 62, 67
2, 972224, Note_off_c, 0, 62, 67
2, 972288, Note_off_c, 0, 62, 67
2, 972288, Note_on_c, 0, 48, 67
2, 972352, Note_off_c, 0, 48, 67
2, 972416, Note_off_c, 0, 48, 67
2, 972416, Note_on_c, 0, 60, 67
2, 972480, Note_off_c, 0, 60, 67
2, 972544, Note_off_c, 0, 60, 67
2, 972544, Note_on_c, 0, 46, 67
2, 972608, Note_off_c, 0, 46, 67
2, 972672, Note_off_c, 0, 46, 67
2, 972672, Note_on_c, 0, 58, 67
2, 972736, Note_off_c, 0, 58, 67
2, 972800, Note_off_c, 0, 58, 67
2, 972800, Note_on_c, 0, 51, 67
2, 972864, Note_off_c, 0, 51, 67
2, 972928, Note_off_c, 0, 51, 67
2, 972928, Note_on_c, 0, 63, 67
2, 972992, Note_off_c, 0, 63, 67
2, 973056, Note_off_c, 0, 63, 67
2, 973056, Note_on_c, 0, 46, 67
2, 973120, Note_off_c, 0, 46, 67
2, 973184, Note_off_c, 0, 46, 67
2, 973184, Note_on_c, 0, 58, 67
2, 973248, Note_off_c, 0, 58, 67
2, 973312, Note_off_c, 0, 58, 67
2, 973312, Note_on_c, 0, 48, 67
2, 973376, Note_off_c, 0, 48, 67
2, 973440, Note_off_c, 0, 48, 67
2, 973440, Note_on_c, 0, 60, 67
2, 973504, Note_off_c, 0, 60, 67
2, 973568, Note_off_c, 0, 60, 67
2, 973568, Note_on_c, 0, 46, 67
2, 973632, Note_off_c, 0, 46, 67
2, 973696, Note_off_c, 0, 46, 67
2, 973696, Note_on_c, 0, 58, 67
2, 973760, Note_off_c, 0, 58, 67
2, 973824, Note_off_c, 0, 58, 67
2, 973824, Note_on_c, 0, 50, 67
2, 973888, Note_off_c, 0, 50, 67
2, 973952, Note_off_c, 0, 50, 67
2, 973952, Note_on_c, 0, 62, 67
2, 974016, Note_off_c, 0, 62, 67
2, 974080, Note_off_c, 0, 62, 67
2, 974080, Note_on_c, 0, 46, 67
2, 974144, Note_off_c, 0, 46, 67
2, 974208, Note_off_c, 0, 46, 67
2, 974208, Note_on_c, 0, 58, 67
2, 974272, Note_off_c, 0, 58, 67
2, 974336, Note_off_c, 0, 58, 67
2, 974336, Note_on_c, 0, 48, 67
2, 974400, Note_off_c, 0, 48, 67
2, 974464, Note_off_c, 0, 48, 67
2, 974464, Note_on_c, 0, 60, 67
2, 974528, Note_off_c, 0, 60, 67
2, 974592, Note_off_c, 0, 60, 67
2, 974592, Note_on_c, 0, 49, 67
2, 974656, Note_off_c, 0, 49, 67
2, 974720, Note_off_c, 0, 49, 67
2, 974720, Note_on_c, 0, 61, 67
2, 974784, Note_off_c, 0, 61, 67
2, 974848, Note_off_c, 0, 61, 67
2, 974848, Note_on_c, 0, 50, 67
2, 974912, Note_off_c, 0, 50, 67
2, 974976, Note_off_c, 0, 50, 67
2, 974976, Note_on_c, 0, 62, 67
2, 975040, Note_off_c, 0, 62, 67
2, 975104, Note_off_c, 0, 62, 67
2, 975104, Note_on_c, 0, 46, 67
2, 975168, Note_off_c, 0, 46, 67
2, 975232, Note_off_c, 0, 46, 67
2, 975232, Note_on_c, 0, 58, 67
2, 975296, Note_off_c, 0, 58, 67
2, 975360, Note_off_c, 0, 58, 67
2, 975360, Note_on_c, 0, 51, 67
2, 975424, Note_off_c, 0, 51, 67
2, 975488, Note_off_c, 0, 51, 67
2, 975488, Note_on_c, 0, 63, 67
2, 975552, Note_off_c, 0, 63, 67
2, 975616, Note_off_c, 0, 63, 67
2, 975616, Note_on_c, 0, 46, 67
2, 975680, Note_off_c, 0, 46, 67
2, 975744, Note_off_c, 0, 46, 67
2, 975744, Note_on_c, 0, 58, 67
2, 975808, Note_off_c, 0, 58, 67
2, 975872, Note_off_c, 0, 58, 67
2, 975872, Note_on_c, 0, 51, 67
2, 975936, Note_off_c, 0, 51, 67
2, 976000, Note_off_c, 0, 51, 67
2, 976000, Note_on_c, 0, 63, 67
2, 976064, Note_off_c, 0, 63, 67
2, 976128, Note_off_c, 0, 63, 67
2, 976128, Note_on_c, 0, 50, 67
2, 976192, Note_off_c, 0, 50, 67
2, 976256, Note_off_c, 0, 50, 67
2, 976256, Note_on_c, 0, 62, 67
2, 976320, Note_off_c, 0, 62, 67
2, 976384, Note_off_c, 0, 62, 67
2, 976384, Note_on_c, 0, 48, 67
2, 976448, Note_off_c, 0, 48, 67
2, 976512, Note_off_c, 0, 48, 67
2, 976512, Note_on_c, 0, 60, 67
2, 976576, Note_off_c, 0, 60, 67
2, 976640, Note_off_c, 0, 60, 67
2, 976640, Note_on_c, 0, 46, 67
2, 976704, Note_off_c, 0, 46, 67
2, 976768, Note_off_c, 0, 46, 67
2, 976768, Note_on_c, 0, 58, 67
2, 976832, Note_off_c, 0, 58, 67
2, 976896, Note_off_c, 0, 58, 67
2, 976896, Note_on_c, 0, 51, 67
2, 976960, Note_off_c, 0, 51, 67
2, 977024, Note_off_c, 0, 51, 67
2, 977024, Note_on_c, 0, 63, 67
2, 977088, Note_off_c, 0, 63, 67
2, 977152, Note_off_c, 0, 63, 67
2, 977152, Note_on_c, 0, 46, 67
2, 977216, Note_off_c, 0, 46, 67
2, 977280, Note_off_c, 0, 46, 67
2, 977280, Note_on_c, 0, 58, 67
2, 977344, Note_off_c, 0, 58, 67
2, 977408, Note_off_c, 0, 58, 67
2, 977408, Note_on_c, 0, 48, 67
2, 977472, Note_off_c, 0, 48, 67
2, 977536, Note_off_c, 0, 48, 67
2, 977536, Note_on_c, 0, 60, 67
2, 977600, Note_off_c, 0, 60, 67
2, 977664, Note_off_c, 0, 60, 67
2, 977664, Note_on_c, 0, 46, 67
2, 977728, Note_off_c, 0, 46, 67
2, 977792, Note_off_c, 0, 46, 67
2, 977792, Note_on_c, 0, 58, 67
2, 977856, Note_off_c, 0, 58, 67
2, 977920, Note_off_c, 0, 58, 67
2, 977920, Note_on_c, 0, 50, 67
2, 977984, Note_off_c, 0, 50, 67
2, 978048, Note_off_c, 0, 50, 67
2, 978048, Note_on_c, 0, 62, 67
2, 978112, Note_off_c, 0, 62, 67
2, 978176, Note_off_c, 0, 62, 67
2, 978176, Note_on_c, 0, 48, 67
2, 978240, Note_off_c, 0, 48, 67
2, 978304, Note_off_c, 0, 48, 67
2, 978304, Note_on_c, 0, 60, 67
2, 978368, Note_off_c, 0, 60, 67
2, 978432, Note_off_c, 0, 60, 67
2, 978432, Note_on_c, 0, 46, 67
2, 978496, Note_off_c, 0, 46, 67
2, 978560, Note_off_c, 0, 46, 67
2, 978560, Note_on_c, 0, 58, 67
2, 978624, Note_off_c, 0, 58, 67
2, 978688, Note_off_c, 0, 58, 67
2, 978688, Note_on_c, 0, 48, 67
2, 978752, Note_off_c, 0, 48, 67
2, 978816, Note_off_c, 0, 48, 67
2, 978816, Note_on_c, 0, 60, 67
2, 978880, Note_off_c, 0, 60, 67
2, 978944, Note_off_c, 0, 60, 67
2, 978944, Note_on_c, 0, 50, 67
2, 979008, Note_off_c, 0, 50, 67
2, 979072, Note_off_c, 0, 50, 67
2, 979072, Note_on_c, 0, 62, 67
2, 979136, Note_off_c, 0, 62, 67
2, 979200, Note_off_c, 0, 62, 67
2, 979200, Note_on_c, 0, 46, 67
2, 979264, Note_off_c, 0, 46, 67
2, 979328, Note_off_c, 0, 46, 67
2, 979328, Note_on_c, 0, 58, 67
2, 979392, Note_off_c, 0, 58, 67
2, 979456, Note_off_c, 0, 58, 67
2, 979456, Note_on_c, 0, 51, 67
2, 979520, Note_off_c, 0, 51, 67
2, 979584, Note_off_c, 0, 51, 67
2, 979584, Note_on_c, 0, 63, 67
2, 979648, Note_off_c, 0, 63, 67
2, 979712, Note_off_c, 0, 63, 67
2, 979712, Note_on_c, 0, 46, 67
2, 979776, Note_off_c, 0, 46, 67
2, 979840, Note_off_c, 0, 46, 67
2, 979840, Note_on_c, 0, 58, 67
2, 979904, Note_off_c, 0, 58, 67
2, 979968, Note_off_c, 0, 58, 67
2, 979968, Note_on_c, 0, 39, 67
2, 980032, Note_off_c, 0, 39, 67
2, 980032, Note_on_c, 0, 46, 67
2, 980096, Note_off_c, 0, 46, 67
2, 980096, Note_on_c, 0, 51, 67
2, 980160, Note_off_c, 0, 51, 67
2, 980160, Note_on_c, 0, 53, 67
2, 980224, Note_off_c, 0, 53, 67
2, 980224, Note_on_c, 0, 55, 67
2, 980288, Note_off_c, 0, 55, 67
2, 980288, Note_on_c, 0, 51, 67
2, 980352, Note_off_c, 0, 51, 67
2, 980352, Note_on_c, 0, 58, 67
2, 980416, Note_off_c, 0, 58, 67
2, 980416, Note_on_c, 0, 63, 67
2, 980464, Control_c, 0, 93, 0
2, 980480, Note_off_c, 0, 63, 67
2, 980480, Note_on_c, 0, 44, 67
2, 980544, Note_off_c, 0, 44, 67
2, 980544, Note_on_c, 0, 51, 67
2, 980608, Note_off_c, 0, 51, 67
2, 980608, Note_on_c, 0, 56, 67
2, 980672, Note_off_c, 0, 56, 67
2, 980672, Note_on_c, 0, 58, 67
2, 980736, Note_off_c, 0, 58, 67
2, 980736, Note_on_c, 0, 60, 67
2, 980800, Note_off_c, 0, 60, 67
2, 980800, Note_on_c, 0, 56, 67
2, 980864, Note_off_c, 0, 56, 67
2, 980864, Note_on_c, 0, 63, 67
2, 980928, Note_off_c, 0, 63, 67
2, 980928, Note_on_c, 0, 68, 67
2, 980976, Control_c, 0, 93, 0
2, 980992, Note_off_c, 0, 68, 67
2, 980992, Note_on_c, 0, 46, 67
2, 981056, Note_off_c, 0, 46, 67
2, 981056, Note_on_c, 0, 53, 67
2, 981120, Note_off_c, 0, 53, 67
2, 981120, Note_on_c, 0, 58, 67
2, 981184, Note_off_c, 0, 58, 67
2, 981184, Note_on_c, 0, 60, 67
2, 981248, Note_off_c, 0, 60, 67
2, 981248, Note_on_c, 0, 62, 67
2, 981312, Note_off_c, 0, 62, 67
2, 981312, Note_on_c, 0, 58, 67
2, 981376, Note_off_c, 0, 58, 67
2, 981376, Note_on_c, 0, 65, 67
2, 981440, Note_off_c, 0, 65, 67
2, 981440, Note_on_c, 0, 70, 67
2, 981488, Control_c, 0, 93, 0
2, 981504, Note_off_c, 0, 70, 67
2, 981504, Note_on_c, 0, 41, 67
2, 981568, Note_off_c, 0, 41, 67
2, 981568, Note_on_c, 0, 44, 67
2, 981632, Note_off_c, 0, 44, 67
2, 981632, Control_c, 0, 64, 64
2, 981632, Note_on_c, 0, 50, 67
2, 981653, Note_off_c, 0, 50, 67
2, 981653, Note_on_c, 0, 53, 67
2, 981674, Note_off_c, 0, 53, 67
2, 981674, Note_on_c, 0, 58, 67
2, 981695, Note_off_c, 0, 58, 67
2, 981696, Control_c, 0, 93, 0
2, 981696, Note_on_c, 0, 62, 67
2, 981717, Note_off_c, 0, 62, 67
2, 981717, Note_on_c, 0, 65, 67
2, 981738, Note_off_c, 0, 65, 67
2, 981738, Note_on_c, 0, 70, 67
2, 981760, Control_c, 0, 93, 0
2, 981760, Control_c, 0, 64, 0
2, 981888, Note_off_c, 0, 70, 67
2, 981888, Note_on_c, 0, 51, 67
2, 981952, Note_off_c, 0, 51, 67
2, 981952, Note_on_c, 0, 46, 67
2, 982016, Note_off_c, 0, 46, 67
2, 982016, Note_on_c, 0, 39, 67
2, 982080, Note_off_c, 0, 39, 67
2, 982080, Note_on_c, 0, 46, 67
2, 982144, Note_off_c, 0, 46, 67
2, 982144, Note_on_c, 0, 51, 67
2, 982208, Note_off_c, 0, 51, 67
2, 982208, Note_on_c, 0, 53, 67
2, 982272, Note_off_c, 0, 53, 67
2, 982272, Note_on_c, 0, 55, 67
2, 982336, Note_off_c, 0, 55, 67
2, 982336, Note_on_c, 0, 51, 67
2, 982400, Note_off_c, 0, 51, 67
2, 982400, Note_on_c, 0, 58, 67
2, 982464, Note_off_c, 0, 58, 67
2, 982464, Note_on_c, 0, 63, 67
2, 982512, Control_c, 0, 93, 0
2, 982528, Note_off_c, 0, 63, 67
2, 982528, Note_on_c, 0, 44, 67
2, 982592, Note_off_c, 0, 44, 67
2, 982592, Note_on_c, 0, 51, 67
2, 982656, Note_off_c, 0, 51, 67
2, 982656, Note_on_c, 0, 56, 67
2, 982720, Note_off_c, 0, 56, 67
2, 982720, Note_on_c, 0, 58, 67
2, 982784, Note_off_c, 0, 58, 67
2, 982784, Note_on_c, 0, 60, 67
2, 982848, Note_off_c, 0, 60, 67
2, 982848, Note_on_c, 0, 56, 67
2, 982912, Note_off_c, 0, 56, 67
2, 982912, Note_on_c, 0, 63, 67
2, 982976, Note_off_c, 0, 63, 67
2, 982976, Note_on_c, 0, 68, 67
2, 983024, Control_c, 0, 93, 0
2, 983040, Note_off_c, 0, 68, 67
2, 983040, Note_on_c, 0, 46, 67
2, 983104, Note_off_c, 0, 46, 67
2, 983104, Note_on_c, 0, 53, 67
2, 983168, Note_off_c, 0, 53, 67
2, 983168, Note_on_c, 0, 58, 67
2, 983232, Note_off_c, 0, 58, 67
2, 983232, Note_on_c, 0, 60, 67
2, 983296, Note_off_c, 0, 60, 67
2, 983296, Note_on_c, 0, 62, 67
2, 983360, Note_off_c, 0, 62, 67
2, 983360, Note_on_c, 0, 58, 67
2, 983424, Note_off_c, 0, 58, 67
2, 983424, Note_on_c, 0, 65, 67
2, 983488, Note_off_c, 0, 65, 67
2, 983488, Note_on_c, 0, 70, 67
2, 983536, Control_c, 0, 93, 0
2, 983552, Note_off_c, 0, 70, 67
2, 983552, Note_on_c, 0, 39, 67
2, 983616, Note_off_c, 0, 39, 67
2, 983616, Note_on_c, 0, 46, 67
2, 983680, Note_off_c, 0, 46, 67
2, 983680, Note_on_c, 0, 51, 67
2, 983744, Note_off_c, 0, 51, 67
2, 983744, Control_c, 0, 64, 64
2, 983744, Note_on_c, 0, 55, 67
2, 983754, Note_off_c, 0, 55, 67
2, 983754, Note_on_c, 0, 58, 67
2, 983765, Note_off_c, 0, 58, 67
2, 983765, Note_on_c, 0, 63, 67
2, 983775, Note_off_c, 0, 63, 67
2, 983776, Control_c, 0, 93, 0
2, 983776, Note_on_c, 0, 67, 67
2, 983786, Note_off_c, 0, 67, 67
2, 983786, Note_on_c, 0, 70, 67
2, 983797, Note_off_c, 0, 70, 67
2, 983797, Note_on_c, 0, 75, 67
2, 983807, Note_off_c, 0, 75, 67
2, 983808, Control_c, 0, 93, 0
2, 983936, Control_c, 0, 93, 0
2, 984000, Control_c, 0, 93, 0
2, 984000, Control_c, 0, 64, 0
2, 984064, Control_c, 0, 93, 0
2, 984064, Note_on_c, 0, 51, 67
2, 984128, Note_off_c, 0, 51, 67
2, 984192, Note_off_c, 0, 51, 67
2, 984192, Note_on_c, 0, 63, 67
2, 984256, Note_off_c, 0, 63, 67
2, 984320, Note_off_c, 0, 63, 67
2, 984320, Note_on_c, 0, 50, 67
2, 984384, Note_off_c, 0, 50, 67
2, 984448, Note_off_c, 0, 50, 67
2, 984448, Note_on_c, 0, 62, 67
2, 984512, Note_off_c, 0, 62, 67
2, 984576, Note_off_c, 0, 62, 67
2, 984576, Note_on_c, 0, 48, 67
2, 984640, Note_off_c, 0, 48, 67
2, 984704, Note_off_c, 0, 48, 67
2, 984704, Note_on_c, 0, 60, 67
2, 984768, Note_off_c, 0, 60, 67
2, 984832, Note_off_c, 0, 60, 67
2, 984832, Note_on_c, 0, 46, 67
2, 984896, Note_off_c, 0, 46, 67
2, 984960, Note_off_c, 0, 46, 67
2, 984960, Note_on_c, 0, 58, 67
2, 985024, Note_off_c, 0, 58, 67
2, 985088, Note_off_c, 0, 58, 67
2, 985088, Note_on_c, 0, 51, 67
2, 985152, Note_off_c, 0, 51, 67
2, 985216, Note_off_c, 0, 51, 67
2, 985216, Note_on_c, 0, 63, 67
2, 985280, Note_off_c, 0, 63, 67
2, 985344, Note_off_c, 0, 63, 67
2, 985344, Note_on_c, 0, 46, 67
2, 985408, Note_off_c, 0, 46, 67
2, 985472, Note_off_c, 0, 46, 67
2, 985472, Note_on_c, 0, 58, 67
2, 985536, Note_off_c, 0, 58, 67
2, 985600, Note_off_c, 0, 58, 67
2, 985600, Note_on_c, 0, 48, 67
2, 985664, Note_off_c, 0, 48, 67
2, 985728, Note_off_c, 0, 48, 67
2, 985728, Note_on_c, 0, 60, 67
2, 985792, Note_off_c, 0, 60, 67
2, 985856, Note_off_c, 0, 60, 67
2, 985856, Note_on_c, 0, 46, 67
2, 985920, Note_off_c, 0, 46, 67
2, 985984, Note_off_c, 0, 46, 67
2, 985984, Note_on_c, 0, 58, 67
2, 986048, Note_off_c, 0, 58, 67
2, 986112, Note_off_c, 0, 58, 67
2, 986112, Note_on_c, 0, 50, 67
2, 986176, Note_off_c, 0, 50, 67
2, 986240, Note_off_c, 0, 50, 67
2, 986240, Note_on_c, 0, 62, 67
2, 986304, Note_off_c, 0, 62, 67
2, 986368, Note_off_c, 0, 62, 67
2, 986368, Note_on_c, 0, 46, 67
2, 986432, Note_off_c, 0, 46, 67
2, 986496, Note_off_c, 0, 46, 67
2, 986496, Note_on_c, 0, 58, 67
2, 986560, Note_off_c, 0, 58, 67
2, 986624, Note_off_c, 0, 58, 67
2, 986624, Note_on_c, 0, 48, 67
2, 986688, Note_off_c, 0, 48, 67
2, 986752, Note_off_c, 0, 48, 67
2, 986752, Note_on_c, 0, 60, 67
2, 986816, Note_off_c, 0, 60, 67
2, 986880, Note_off_c, 0, 60, 67
2, 986880, Note_on_c, 0, 49, 67
2, 986944, Note_off_c, 0, 49, 67
2, 987008, Note_off_c, 0, 49, 67
2, 987008, Note_on_c, 0, 61, 67
2, 987072, Note_off_c, 0, 61, 67
2, 987136, Note_off_c, 0, 61, 67
2, 987136, Note_on_c, 0, 50, 67
2, 987200, Note_off_c, 0, 50, 67
2, 987264, Note_off_c, 0, 50, 67
2, 987264, Note_on_c, 0, 62, 67
2, 987328, Note_off_c, 0, 62, 67
2, 987392, Note_off_c, 0, 62, 67
2, 987392, Note_on_c, 0, 46, 67
2, 987456, Note_off_c, 0, 46, 67
2, 987520, Note_off_c, 0, 46, 67
2, 987520, Note_on_c, 0, 58, 67
2, 987584, Note_off_c, 0, 58, 67
2, 987648, Note_off_c, 0, 58, 67
2, 987648, Note_on_c, 0, 51, 67
2, 987712, Note_off_c, 0, 51, 67
2, 987776, Note_off_c, 0, 51, 67
2, 987776, Note_on_c, 0, 63, 67
2, 987840, Note_off_c, 0, 63, 67
2, 987904, Note_off_c, 0, 63, 67
2, 987904, Note_on_c, 0, 46, 67
2, 987968, Note_off_c, 0, 46, 67
2, 988032, Note_off_c, 0, 46, 67
2, 988032, Note_on_c, 0, 58, 67
2, 988096, Note_off_c, 0, 58, 67
2, 988160, Note_off_c, 0, 58, 67
2, 988160, Note_on_c, 0, 51, 67
2, 988224, Note_off_c, 0, 51, 67
2, 988288, Note_off_c, 0, 51, 67
2, 988288, Note_on_c, 0, 63, 67
2, 988352, Note_off_c, 0, 63, 67
2, 988416, Note_off_c, 0, 63, 67
2, 988416, Note_on_c, 0, 50, 67
2, 988480, Note_off_c, 0, 50, 67
2, 988544, Note_off_c, 0, 50, 67
2, 988544, Note_on_c, 0, 62, 67
2, 988608, Note_off_c, 0, 62, 67
2, 988672, Note_off_c, 0, 62, 67
2, 988672, Note_on_c, 0, 48, 67
2, 988736, Note_off_c, 0, 48, 67
2, 988800, Note_off_c, 0, 48, 67
2, 988800, Note_on_c, 0, 60, 67
2, 988864, Note_off_c, 0, 60, 67
2, 988928, Note_off_c, 0, 60, 67
2, 988928, Note_on_c, 0, 46, 67
2, 988992, Note_off_c, 0, 46, 67
2, 989056, Note_off_c, 0, 46, 67
2, 989056, Note_on_c, 0, 58, 67
2, 989120, Note_off_c, 0, 58, 67
2, 989184, Note_off_c, 0, 58, 67
2, 989184, Note_on_c, 0, 51, 67
2, 989248, Note_off_c, 0, 51, 67
2, 989312, Note_off_c, 0, 51, 67
2, 989312, Note_on_c, 0, 63, 67
2, 989376, Note_off_c, 0, 63, 67
2, 989440, Note_off_c, 0, 63, 67
2, 989440, Note_on_c, 0, 46, 67
2, 989504, Note_off_c, 0, 46, 67
2, 989568, Note_off_c, 0, 46, 67
2, 989568, Note_on_c, 0, 58, 67
2, 989632, Note_off_c, 0, 58, 67
2, 989696, Note_off_c, 0, 58, 67
2, 989696, Note_on_c, 0, 48, 67
2, 989760, Note_off_c, 0, 48, 67
2, 989824, Note_off_c, 0, 48, 67
2, 989824, Note_on_c, 0, 60, 67
2, 989888, Note_off_c, 0, 60, 67
2, 989952, Note_off_c, 0, 60, 67
2, 989952, Note_on_c, 0, 46, 67
2, 990016, Note_off_c, 0, 46, 67
2, 990080, Note_off_c, 0, 46, 67
2, 990080, Note_on_c, 0, 58, 67
2, 990144, Note_off_c, 0, 58, 67
2, 990208, Note_off_c, 0, 58, 67
2, 990208, Note_on_c, 0, 50, 67
2, 990272, Note_off_c, 0, 50, 67
2, 990336, Note_off_c, 0, 50, 67
2, 990336, Note_on_c, 0, 62, 67
2, 990400, Note_off_c, 0, 62, 67
2, 990464, Note_off_c, 0, 62, 67
2, 990464, Note_on_c, 0, 48, 67
2, 990528, Note_off_c, 0, 48, 67
2, 990592, Note_off_c, 0, 48, 67
2, 990592, Note_on_c, 0, 60, 67
2, 990656, Note_off_c, 0, 60, 67
2, 990720, Note_off_c, 0, 60, 67
2, 990720, Note_on_c, 0, 46, 67
2, 990784, Note_off_c, 0, 46, 67
2, 990848, Note_off_c, 0, 46, 67
2, 990848, Note_on_c, 0, 58, 67
2, 990912, Note_off_c, 0, 58, 67
2, 990976, Note_off_c, 0, 58, 67
2, 990976, Note_on_c, 0, 48, 67
2, 991040, Note_off_c, 0, 48, 67
2, 991104, Note_off_c, 0, 48, 67
2, 991104, Note_on_c, 0, 60, 67
2, 991168, Note_off_c, 0, 60, 67
2, 991232, Note_off_c, 0, 60, 67
2, 991232, Note_on_c, 0, 50, 67
2, 991296, Note_off_c, 0, 50, 67
2, 991360, Note_off_c, 0, 50, 67
2, 991360, Note_on_c, 0, 62, 67
2, 991424, Note_off_c, 0, 62, 67
2, 991488, Note_off_c, 0, 62, 67
2, 991488, Note_on_c, 0, 46, 67
2, 991552, Note_off_c, 0, 46, 67
2, 991616, Note_off_c, 0, 46, 67
2, 991616, Note_on_c, 0, 58, 67
2, 991680, Note_off_c, 0, 58, 67
2, 991744, Note_off_c, 0, 58, 67
2, 991744, Note_on_c, 0, 51, 67
2, 991808, Note_off_c, 0, 51, 67
2, 991872, Note_off_c, 0, 51, 67
2, 991872, Note_on_c, 0, 63, 67
2, 991936, Note_off_c, 0, 63, 67
2, 992000, Note_off_c, 0, 63, 67
2, 992000, Note_on_c, 0, 46, 67
2, 992064, Note_off_c, 0, 46, 67
2, 992128, Note_off_c, 0, 46, 67
2, 992128, Note_on_c, 0, 58, 67
2, 992192, Note_off_c, 0, 58, 67
2, 992256, Note_off_c, 0, 58, 67
2, 992256, Note_on_c, 0, 39, 67
2, 992320, Note_off_c, 0, 39, 67
2, 992320, Note_on_c, 0, 46, 67
2, 992384, Note_off_c, 0, 46, 67
2, 992384, Note_on_c, 0, 51, 67
2, 992448, Note_off_c, 0, 51, 67
2, 992448, Note_on_c, 0, 53, 67
2, 992512, Note_off_c, 0, 53, 67
2, 992512, Note_on_c, 0, 55, 67
2, 992576, Note_off_c, 0, 55, 67
2, 992576, Note_on_c, 0, 51, 67
2, 992640, Note_off_c, 0, 51, 67
2, 992640, Note_on_c, 0, 58, 67
2, 992704, Note_off_c, 0, 58, 67
2, 992704, Note_on_c, 0, 63, 67
2, 992752, Control_c, 0, 93, 0
2, 992768, Note_off_c, 0, 63, 67
2, 992768, Note_on_c, 0, 44, 67
2, 992832, Note_off_c, 0, 44, 67
2, 992832, Note_on_c, 0, 51, 67
2, 992896, Note_off_c, 0, 51, 67
2, 992896, Note_on_c, 0, 56, 67
2, 992960, Note_off_c, 0, 56, 67
2, 992960, Note_on_c, 0, 58, 67
2, 993024, Note_off_c, 0, 58, 67
2, 993024, Note_on_c, 0, 60, 67
2, 993088, Note_off_c, 0, 60, 67
2, 993088, Note_on_c, 0, 56, 67
2, 993152, Note_off_c, 0, 56, 67
2, 993152, Note_on_c, 0, 63, 67
2, 993216, Note_off_c, 0, 63, 67
2, 993216, Note_on_c, 0, 68, 67
2, 993264, Control_c, 0, 93, 0
2, 993280, Note_off_c, 0, 68, 67
2, 993280, Note_on_c, 0, 46, 67
2, 993344, Note_off_c, 0, 46, 67
2, 993344, Note_on_c, 0, 53, 67
2, 993408, Note_off_c, 0, 53, 67
2, 993408, Note_on_c, 0, 58, 67
2, 993472, Note_off_c, 0, 58, 67
2, 993472, Note_on_c, 0, 60, 67
2, 993536, Note_off_c, 0, 60, 67
2, 993536, Note_on_c, 0, 62, 67
2, 993600, Note_off_c, 0, 62, 67
2, 993600, Note_on_c, 0, 58, 67
2, 993664, Note_off_c, 0, 58, 67
2, 993664, Note_on_c, 0, 65, 67
2, 993728, Note_off_c, 0, 65, 67
2, 993728, Note_on_c, 0, 70, 67
2, 993776, Control_c, 0, 93, 0
2, 993792, Note_off_c, 0, 70, 67
2, 993792, Note_on_c, 0, 41, 67
2, 993856, Note_off_c, 0, 41, 67
2, 993856, Note_on_c, 0, 44, 67
2, 993920, Note_off_c, 0, 44, 67
2, 993920, Control_c, 0, 64, 64
2, 993920, Note_on_c, 0, 50, 67
2, 993941, Note_off_c, 0, 50, 67
2, 993941, Note_on_c, 0, 53, 67
2, 993962, Note_off_c, 0, 53, 67
2, 993962, Note_on_c, 0, 58, 67
2, 993983, Note_off_c, 0, 58, 67
2, 993984, Control_c, 0, 93, 0
2, 993984, Note_on_c, 0, 62, 67
2, 994005, Note_off_c, 0, 62, 67
2, 994005, Note_on_c, 0, 65, 67
2, 994026, Note_off_c, 0, 65, 67
2, 994026, Note_on_c, 0, 70, 67
2, 994048, Control_c, 0, 93, 0
2, 994048, Control_c, 0, 64, 0
2, 994176, Note_off_c, 0, 70, 67
2, 994176, Note_on_c, 0, 51, 67
2, 994240, Note_off_c, 0, 51, 67
2, 994240, Note_on_c, 0, 46, 67
2, 994304, Note_off_c, 0, 46, 67
2, 994304, Note_on_c, 0, 39, 67
2, 994368, Note_off_c, 0, 39, 67
2, 994368, Note_on_c, 0, 46, 67
2, 994432, Note_off_c, 0, 46, 67
2, 994432, Note_on_c, 0, 51, 67
2, 994496, Note_off_c, 0, 51, 67
2, 994496, Note_on_c, 0, 53, 67
2, 994560, Note_off_c, 0, 53, 67
2, 994560, Note_on_c, 0, 55, 67
2, 994624, Note_off_c, 0, 55, 67
2, 994624, Note_on_c, 0, 51, 67
2, 994688, Note_off_c, 0, 51, 67
2, 994688, Note_on_c, 0, 58, 67
2, 994752, Note_off_c, 0, 58, 67
2, 994752, Note_on_c, 0, 63, 67
2, 994800, Control_c, 0, 93, 0
2, 994816, Note_off_c, 0, 63, 67
2, 994816, Note_on_c, 0, 44, 67
2, 994880, Note_off_c, 0, 44, 67
2, 994880, Note_on_c, 0, 51, 67
2, 994944, Note_off_c, 0, 51, 67
2, 994944, Note_on_c, 0, 56, 67
2, 995008, Note_off_c, 0, 56, 67
2, 995008, Note_on_c, 0, 58, 67
2, 995072, Note_off_c, 0, 58, 67
2, 995072, Note_on_c, 0, 60, 67
2, 995136, Note_off_c, 0, 60, 67
2, 995136, Note_on_c, 0, 56, 67
2, 995200, Note_off_c, 0, 56, 67
2, 995200, Note_on_c, 0, 63, 67
2, 995264, Note_off_c, 0, 63, 67
2, 995264, Note_on_c, 0, 68, 67
2, 995312, Control_c, 0, 93, 0
2, 995328, Note_off_c, 0, 68, 67
2, 995328, Note_on_c, 0, 46, 67
2, 995392, Note_off_c, 0, 46, 67
2, 995392, Note_on_c, 0, 53, 67
2, 995456, Note_off_c, 0, 53, 67
2, 995456, Note_on_c, 0, 58, 67
2, 995520, Note_off_c, 0, 58, 67
2, 995520, Note_on_c, 0, 60, 67
2, 995584, Note_off_c, 0, 60, 67
2, 995584, Note_on_c, 0, 62, 67
2, 995648, Note_off_c, 0, 62, 67
2, 995648, Note_on_c, 0, 58, 67
2, 995712, Note_off_c, 0, 58, 67
2, 995712, Note_on_c, 0, 65, 67
2, 995776, Note_off_c, 0, 65, 67
2, 995776, Note_on_c, 0, 70, 67
2, 995824, Control_c, 0, 93, 0
2, 995840, Note_off_c, 0, 70, 67
2, 995840, Note_on_c, 0, 39, 67
2, 995904, Note_off_c, 0, 39, 67
2, 995904, Note_on_c, 0, 46, 67
2, 995968, Note_off_c, 0, 46, 67
2, 995968, Note_on_c, 0, 51, 67
2, 996032, Note_off_c, 0, 51, 67
2, 996032, Control_c, 0, 64, 64
2, 996032, Note_on_c, 0, 55, 67
2, 996042, Note_off_c, 0, 55, 67
2, 996042, Note_on_c, 0, 58, 67
2, 996053, Note_off_c, 0, 58, 67
2, 996053, Note_on_c, 0, 63, 67
2, 996063, Note_off_c, 0, 63, 67
2, 996064, Control_c, 0, 93, 0
2, 996064, Note_on_c, 0, 67, 67
2, 996074, Note_off_c, 0, 67, 67
2, 996074, Note_on_c, 0, 70, 67
2, 996085, Note_off_c, 0, 70, 67
2, 996085, Note_on_c, 0, 75, 67
2, 996095, Note_off_c, 0, 75, 67
2, 996096, Control_c, 0, 93, 0
2, 996224, Control_c, 0, 93, 0
2, 996288, Control_c, 0, 93, 0
2, 996288, Control_c, 0, 64, 0
2, 996352, Control_c, 0, 93, 0
2, 996352, Note_on_c, 0, 51, 67
2, 996416, Note_off_c, 0, 51, 67
2, 996480, Note_off_c, 0, 51, 67
2, 996480, Note_on_c, 0, 63, 67
2, 996544, Note_off_c, 0, 63, 67
2, 996608, Note_off_c, 0, 63, 67
2, 996608, Note_on_c, 0, 50, 67
2, 996672, Note_off_c, 0, 50, 67
2, 996736, Note_off_c, 0, 50, 67
2, 996736, Note_on_c, 0, 62, 67
2, 996800, Note_off_c, 0, 62, 67
2, 996864, Note_off_c, 0, 62, 67
2, 996864, Note_on_c, 0, 48, 67
2, 996928, Note_off_c, 0, 48, 67
2, 996992, Note_off_c, 0, 48, 67
2, 996992, Note_on_c, 0, 60, 67
2, 997056, Note_off_c, 0, 60, 67
2, 997120, Note_off_c, 0, 60, 67
2, 997120, Note_on_c, 0, 46, 67
2, 997184, Note_off_c, 0, 46, 67
2, 997248, Note_off_c, 0, 46, 67
2, 997248, Note_on_c, 0, 58, 67
2, 997312, Note_off_c, 0, 58, 67
2, 997376, Note_off_c, 0, 58, 67
2, 997376, Note_on_c, 0, 51, 67
2, 997440, Note_off_c, 0, 51, 67
2, 997504, Note_off_c, 0, 51, 67
2, 997504, Note_on_c, 0, 63, 67
2, 997568, Note_off_c, 0, 63, 67
2, 997632, Note_off_c, 0, 63, 67
2, 997632, Note_on_c, 0, 46, 67
2, 997696, Note_off_c, 0, 46, 67
2, 997760, Note_off_c, 0, 46, 67
2, 997760, Note_on_c, 0, 58, 67
2, 997824, Note_off_c, 0, 58, 67
2, 997888, Note_off_c, 0, 58, 67
2, 997888, Note_on_c, 0, 48, 67
2, 997952, Note_off_c, 0, 48, 67
2, 998016, Note_off_c, 0, 48, 67
2, 998016, Note_on_c, 0, 60, 67
2, 998080, Note_off_c, 0, 60, 67
2, 998144, Note_off_c, 0, 60, 67
2, 998144, Note_on_c, 0, 46, 67
2, 998208, Note_off_c, 0, 46, 67
2, 998272, Note_off_c, 0, 46, 67
2, 998272, Note_on_c, 0, 58, 67
2, 998336, Note_off_c, 0, 58, 67
2, 998400, Note_off_c, 0, 58, 67
2, 998400, Note_on_c, 0, 50, 67
2, 998464, Note_off_c, 0, 50, 67
2, 998528, Note_off_c, 0, 50, 67
2, 998528, Note_on_c, 0, 62, 67
2, 998592, Note_off_c, 0, 62, 67
2, 998656, Note_off_c, 0, 62, 67
2, 998656, Note_on_c, 0, 46, 67
2, 998720, Note_off_c, 0, 46, 67
2, 998784, Note_off_c, 0, 46, 67
2, 998784, Note_on_c, 0, 58, 67
2, 998848, Note_off_c, 0, 58, 67
2, 998912, Note_off_c, 0, 58, 67
2, 998912, Note_on_c, 0, 48, 67
2, 998976, Note_off_c, 0, 48, 67
2, 999040, Note_off_c, 0, 48, 67
2, 999040, Note_on_c, 0, 60, 67
2, 999104, Note_off_c, 0, 60, 67
2, 999168, Note_off_c, 0, 60, 67
2, 999168, Note_on_c, 0, 49, 67
2, 999232, Note_off_c, 0, 49, 67
2, 999296, Note_off_c, 0, 49, 67
2, 999296, Note_on_c, 0, 61, 67
2, 999360, Note_off_c, 0, 61, 67
2, 999424, Note_off_c, 0, 61, 67
2, 999424, Note_on_c, 0, 50, 67
2, 999488, Note_off_c, 0, 50, 67
2, 999552, Note_off_c, 0, 50, 67
2, 999552, Note_on_c, 0, 62, 67
2, 999616, Note_off_c, 0, 62, 67
2, 999680, Note_off_c, 0, 62, 67
2, 999680, Note_on_c, 0, 46, 67
2, 999744, Note_off_c, 0, 46, 67
2, 999808, Note_off_c, 0, 46, 67
2, 999808, Note_on_c, 0, 58, 67
2, 999872, Note_off_c, 0, 58, 67
2, 999936, Note_off_c, 0, 58, 67
2, 999936, Note_on_c, 0, 51, 67
2, 1000000, Note_off_c, 0, 51, 67
2, 1000064, Note_off_c, 0, 51, 67
2, 1000064, Note_on_c, 0, 63, 67
2, 1000128, Note_off_c, 0, 63, 67
2, 1000192, Note_off_c, 0, 63, 67
2, 1000192, Note_on_c, 0, 46, 67
2, 1000256, Note_off_c, 0, 46, 67
2, 1000320, Note_off_c, 0, 46, 67
2, 1000320, Note_on_c, 0, 58, 67
2, 1000384, Note_off_c, 0, 58, 67
2, 1000448, Note_off_c, 0, 58, 67
2, 1000448, Note_on_c, 0, 51, 67
2, 1000512, Note_off_c, 0, 51, 67
2, 1000576, Note_off_c, 0, 51, 67
2, 1000576, Note_on_c, 0, 63, 67
2, 1000640, Note_off_c, 0, 63, 67
2, 1000704, Note_off_c, 0, 63, 67
2, 1000704, Note_on_c, 0, 50, 67
2, 1000768, Note_off_c, 0, 50, 67
2, 1000832, Note_off_c, 0, 50, 67
2, 1000832, Note_on_c, 0, 62, 67
2, 1000896, Note_off_c, 0, 62, 67
2, 1000960, Note_off_c, 0, 62, 67
2, 1000960, Note_on_c, 0, 48, 67
2, 1001024, Note_off_c, 0, 48, 67
2, 1001088, Note_off_c, 0, 48, 67
2, 1001088, Note_on_c, 0, 60, 67
2, 1001152, Note_off_c, 0, 60, 67
2, 1001216, Note_off_c, 0, 60, 67
2, 1001216, Note_on_c, 0, 46, 67
2, 1001280, Note_off_c, 0, 46, 67
2, 1001344, Note_off_c, 0, 46, 67
2, 1001344, Note_on_c, 0, 58, 67
2, 1001408, Note_off_c, 0, 58, 67
2, 1001472, Note_off_c, 0, 58, 67
2, 1001472, Note_on_c, 0, 51, 67
2, 1001536, Note_off_c, 0, 51, 67
2, 1001600, Note_off_c, 0, 51, 67
2, 1001600, Note_on_c, 0, 63, 67
2, 1001664, Note_off_c, 0, 63, 67
2, 1001728, Note_off_c, 0, 63, 67
2, 1001728, Note_on_c, 0, 46, 67
2, 1001792, Note_off_c, 0, 46, 67
2, 1001856, Note_off_c, 0, 46, 67
2, 1001856, Note_on_c, 0, 58, 67
2, 1001920, Note_off_c, 0, 58, 67
2, 1001984, Note_off_c, 0, 58, 67
2, 1001984, Note_on_c, 0, 48, 67
2, 1002048, Note_off_c, 0, 48, 67
2, 1002112, Note_off_c, 0, 48, 67
2, 1002112, Note_on_c, 0, 60, 67
2, 1002176, Note_off_c, 0, 60, 67
2, 1002240, Note_off_c, 0, 60, 67
2, 1002240, Note_on_c, 0, 46, 67
2, 1002304, Note_off_c, 0, 46, 67
2, 1002368, Note_off_c, 0, 46, 67
2, 1002368, Note_on_c, 0, 58, 67
2, 1002432, Note_off_c, 0, 58, 67
2, 1002496, Note_off_c, 0, 58, 67
2, 1002496, Note_on_c, 0, 50, 67
2, 1002560, Note_off_c, 0, 50, 67
2, 1002624, Note_off_c, 0, 50, 67
2, 1002624, Note_on_c, 0, 62, 67
2, 1002688, Note_off_c, 0, 62, 67
2, 1002752, Note_off_c, 0, 62, 67
2, 1002752, Note_on_c, 0, 48, 67
2, 1002816, Note_off_c, 0, 48, 67
2, 1002880, Note_off_c, 0, 48, 67
2, 1002880, Note_on_c, 0, 60, 67
2, 1002944, Note_off_c, 0, 60, 67
2, 1003008, Note_off_c, 0, 60, 67
2, 1003008, Note_on_c, 0, 46, 67
2, 1003072, Note_off_c, 0, 46, 67
2, 1003136, Note_off_c, 0, 46, 67
2, 1003136, Note_on_c, 0, 58, 67
2, 1003200, Note_off_c, 0, 58, 67
2, 1003264, Note_off_c, 0, 58, 67
2, 1003264, Note_on_c, 0, 48, 67
2, 1003328, Note_off_c, 0, 48, 67
2, 1003392, Note_off_c, 0, 48, 67
2, 1003392, Note_on_c, 0, 60, 67
2, 1003456, Note_off_c, 0, 60, 67
2, 1003520, Note_off_c, 0, 60, 67
2, 1003520, Note_on_c, 0, 50, 67
2, 1003584, Note_off_c, 0, 50, 67
2, 1003648, Note_off_c, 0, 50, 67
2, 1003648, Note_on_c, 0, 62, 67
2, 1003712, Note_off_c, 0, 62, 67
2, 1003776, Note_off_c, 0, 62, 67
2, 1003776, Note_on_c, 0, 46, 67
2, 1003840, Note_off_c, 0, 46, 67
2, 1003904, Note_off_c, 0, 46, 67
2, 1003904, Note_on_c, 0, 58, 67
2, 1003968, Note_off_c, 0, 58, 67
2, 1004032, Note_off_c, 0, 58, 67
2, 1004032, Note_on_c, 0, 51, 67
2, 1004096, Note_off_c, 0, 51, 67
2, 1004160, Note_off_c, 0, 51, 67
2, 1004160, Note_on_c, 0, 63, 67
2, 1004224, Note_off_c, 0, 63, 67
2, 1004288, Note_off_c, 0, 63, 67
2, 1004288, Note_on_c, 0, 46, 67
2, 1004352, Note_off_c, 0, 46, 67
2, 1004416, Note_off_c, 0, 46, 67
2, 1004416, Note_on_c, 0, 58, 67
2, 1004480, Note_off_c, 0, 58, 67
2, 1004544, Note_off_c, 0, 58, 67
2, 1004544, Note_on_c, 0, 39, 67
2, 1004608, Note_off_c, 0, 39, 67
2, 1004608, Note_on_c, 0, 46, 67
2, 1004672, Note_off_c, 0, 46, 67
2, 1004672, Note_on_c, 0, 51, 67
2, 1004736, Note_off_c, 0, 51, 67
2, 1004736, Note_on_c, 0, 53, 67
2, 1004800, Note_off_c, 0, 53, 67
2, 1004800, Note_on_c, 0, 55, 67
2, 1004864, Note_off_c, 0, 55, 67
2, 1004864, Note_on_c, 0, 51, 67
2, 1004928, Note_off_c, 0, 51, 67
2, 1004928, Note_on_c, 0, 58, 67
2, 1004992, Note_off_c, 0, 58, 67
2, 1004992, Note_on_c, 0, 63, 67
2, 1005040, Control_c, 0, 93, 0
2, 1005056, Note_off_c, 0, 63, 67
2, 1005056, Note_on_c, 0, 44, 67
2, 1005120, Note_off_c, 0, 44, 67
2, 1005120, Note_on_c, 0, 51, 67
2, 1005184, Note_off_c, 0, 51, 67
2, 1005184, Note_on_c, 0, 56, 67
2, 1005248, Note_off_c, 0, 56, 67
2, 1005248, Note_on_c, 0, 58, 67
2, 1005312, Note_off_c, 0, 58, 67
2, 1005312, Note_on_c, 0, 60, 67
2, 1005376, Note_off_c, 0, 60, 67
2, 1005376, Note_on_c, 0, 56, 67
2, 1005440, Note_off_c, 0, 56, 67
2, 1005440, Note_on_c, 0, 63, 67
2, 1005504, Note_off_c, 0, 63, 67
2, 1005504, Note_on_c, 0, 68, 67
2, 1005552, Control_c, 0, 93, 0
2, 1005568, Note_off_c, 0, 68, 67
2, 1005568, Note_on_c, 0, 46, 67
2, 1005632, Note_off_c, 0, 46, 67
2, 1005632, Note_on_c, 0, 53, 67
2, 1005696, Note_off_c, 0, 53, 67
2, 1005696, Note_on_c, 0, 58, 67
2, 1005760, Note_off_c, 0, 58, 67
2, 1005760, Note_on_c, 0, 60, 67
2, 1005824, Note_off_c, 0, 60, 67
2, 1005824, Note_on_c, 0, 62, 67
2, 1005888, Note_off_c, 0, 62, 67
2, 1005888, Note_on_c, 0, 58, 67
2, 1005952, Note_off_c, 0, 58, 67
2, 1005952, Note_on_c, 0, 65, 67
2, 1006016, Note_off_c, 0, 65, 67
2, 1006016, Note_on_c, 0, 70, 67
2, 1006064, Control_c, 0, 93, 0
2, 1006080, Note_off_c, 0, 70, 67
2, 1006080, Note_on_c, 0, 41, 67
2, 1006144, Note_off_c, 0, 41, 67
2, 1006144, Note_on_c, 0, 44, 67
2, 1006208, Note_off_c, 0, 44, 67
2, 1006208, Control_c, 0, 64, 64
2, 1006208, Note_on_c, 0, 50, 67
2, 1006229, Note_off_c, 0, 50, 67
2, 1006229, Note_on_c, 0, 53, 67
2, 1006250, Note_off_c, 0, 53, 67
2, 1006250, Note_on_c, 0, 58, 67
2, 1006271, Note_off_c, 0, 58, 67
2, 1006272, Control_c, 0, 93, 0
2, 1006272, Note_on_c, 0, 62, 67
2, 1006293, Note_off_c, 0, 62, 67
2, 1006293, Note_on_c, 0, 65, 67
2, 1006314, Note_off_c, 0, 65, 67
2, 1006314, Note_on_c, 0, 70, 67
2, 1006336, Control_c, 0, 93, 0
2, 1006336, Control_c, 0, 64, 0
2, 1006464, Note_off_c, 0, 70, 67
2, 1006464, Note_on_c, 0, 51, 67
2, 1006528, Note_off_c, 0, 51, 67
2, 1006528, Note_on_c, 0, 46, 67
2, 1006592, Note_off_c, 0, 46, 67
2, 1006592, Note_on_c, 0, 39, 67
2, 1006656, Note_off_c, 0, 39, 67
2, 1006656, Note_on_c, 0, 46, 67
2, 1006720, Note_off_c, 0, 46, 67
2, 1006720, Note_on_c, 0, 51, 67
2, 1006784, Note_off_c, 0, 51, 67
2, 1006784, Note_on_c, 0, 53, 67
2, 1006848, Note_off_c, 0, 53, 67
2, 1006848, Note_on_c, 0, 55, 67
2, 1006912, Note_off_c, 0, 55, 67
2, 1006912, Note_on_c, 0, 51, 67
2, 1006976, Note_off_c, 0, 51, 67
2, 1006976, Note_on_c, 0, 58, 67
2, 1007040, Note_off_c, 0, 58, 67
2, 1007040, Note_on_c, 0, 63, 67
2, 1007088, Control_c, 0, 93, 0
2, 1007104, Note_off_c, 0, 63, 67
2, 1007104, Note_on_c, 0, 44, 67
2, 1007168, Note_off_c, 0, 44, 67
2, 1007168, Note_on_c, 0, 51, 67
2, 1007232, Note_off_c, 0, 51, 67
2, 1007232, Note_on_c, 0, 56, 67
2, 1007296, Note_off_c, 0, 56, 67
2, 1007296, Note_on_c, 0, 58, 67
2, 1007360, Note_off_c, 0, 58, 67
2, 1007360, Note_on_c, 0, 60, 67
2, 1007424, Note_off_c, 0, 60, 67
2, 1007424, Note_on_c, 0, 56, 67
2, 1007488, Note_off_c, 0, 56, 67
2, 1007488, Note_on_c, 0, 63, 67
2, 1007552, Note_off_c, 0, 63, 67
2, 1007552, Note_on_c, 0, 68, 67
2, 1007600, Control_c, 0, 93, 0
2, 1007616, Note_off_c, 0, 68, 67
2, 1007616, Note_on_c, 0, 46, 67
2, 1007680, Note_off_c, 0, 46, 67
2, 1007680, Note_on_c, 0, 53, 67
2, 1007744, Note_off_c, 0, 53, 67
2, 1007744, Note_on_c, 0, 58, 67
2, 1007808, Note_off_c, 0, 58, 67
2, 1007808, Note_on_c, 0, 60, 67
2, 1007872, Note_off_c, 0, 60, 67
2, 1007872, Note_on_c, 0, 62, 67
2, 1007936, Note_off_c, 0, 62, 67
2, 1007936, Note_on_c, 0, 58, 67
2, 1008000, Note_off_c, 0, 58, 67
2, 1008000, Note_on_c, 0, 65, 67
2, 1008064, Note_off_c, 0, 65, 67
2, 1008064, Note_on_c, 0, 70, 67
2, 1008112, Control_c, 0, 93, 0
2, 1008128, Note_off_c, 0, 70, 67
2, 1008128, Note_on_c, 0, 39, 67
2, 1008192, Note_off_c, 0, 39, 67
2, 1008192, Note_on_c, 0, 46, 67
2, 1008256, Note_off_c, 0, 46, 67
2, 1008256, Note_on_c, 0, 51, 67
2, 1008320, Note_off_c, 0, 51, 67
2, 1008320, Control_c, 0, 64, 64
2, 1008320, Note_on_c, 0, 55, 67
2, 1008330, Note_off_c, 0, 55, 67
2, 1008330, Note_on_c, 0, 58, 67
2, 1008341, Note_off_c, 0, 58, 67
2, 1008341, Note_on_c, 0, 63, 67
2, 1008351, Note_off_c, 0, 63, 67
2, 1008352, Control_c, 0, 93, 0
2, 1008352, Note_on_c, 0, 67, 67
2, 1008362, Note_off_c, 0, 67, 67
2, 1008362, Note_on_c, 0, 70, 67
2, 1008373, Note_off_c, 0, 70, 67
2, 1008373, Note_on_c, 0, 75, 67
2, 1008383, Note_off_c, 0, 75, 67
2, 1008384, Control_c, 0, 93, 0
2, 1008512, Control_c, 0, 93, 0
2, 1008576, Control_c, 0, 93, 0
2, 1008576, Control_c, 0, 64, 0
2, 1008640, Control_c, 0, 93, 0
2, 1008640, Note_on_c, 0, 51, 67
2, 1008704, Note_off_c, 0, 51, 67
2, 1008768, Note_off_c, 0, 51, 67
2, 1008768, Note_on_c, 0, 63, 67
2, 1008832, Note_off_c, 0, 63, 67
2, 1008896, Note_off_c, 0, 63, 67
2, 1008896, Note_on_c, 0, 50, 67
2, 1008960, Note_off_c, 0, 50, 67
2, 1009024, Note_off_c, 0, 50, 67
2, 1009024, Note_on_c, 0, 62, 67
2, 1009088, Note_off_c, 0, 62, 67
2, 1009152, Note_off_c, 0, 62, 67
2, 1009152, Note_on_c, 0, 48, 67
2, 1009216, Note_off_c, 0, 48, 67
2, 1009280, Note_off_c, 0, 48, 67
2, 1009280, Note_on_c, 0, 60, 67
2, 1009344, Note_off_c, 0, 60, 67
2, 1009408, Note_off_c, 0, 60, 67
2, 1009408, Note_on_c, 0, 46, 67
2, 1009472, Note_off_c, 0, 46, 67
2, 1009536, Note_off_c, 0, 46, 67
2, 1009536, Note_on_c, 0, 58, 67
2, 1009600, Note_off_c, 0, 58, 67
2, 1009664, Note_off_c, 0, 58, 67
2, 1009664, Note_on_c, 0, 51, 67
2, 1009728, Note_off_c, 0, 51, 67
2, 1009792, Note_off_c, 0, 51, 67
2, 1009792, Note_on_c, 0, 63, 67
2, 1009856, Note_off_c, 0, 63, 67
2, 1009920, Note_off_c, 0, 63, 67
2, 1009920, Note_on_c, 0, 46, 67
2, 1009984, Note_off_c, 0, 46, 67
2, 1010048, Note_off_c, 0, 46, 67
2, 1010048, Note_on_c, 0, 58, 67
2, 1010112, Note_off_c, 0, 58, 67
2, 1010176, Note_off_c, 0, 58, 67
2, 1010176, Note_on_c, 0, 48, 67
2, 1010240, Note_off_c, 0, 48, 67
2, 1010304, Note_off_c, 0, 48, 67
2, 1010304, Note_on_c, 0, 60, 67
2, 1010368, Note_off_c, 0, 60, 67
2, 1010432, Note_off_c, 0, 60, 67
2, 1010432, Note_on_c, 0, 46, 67
2, 1010496, Note_off_c, 0, 46, 67
2, 1010560, Note_off_c, 0, 46, 67
2, 1010560, Note_on_c, 0, 58, 67
2, 1010624, Note_off_c, 0, 58, 67
2, 1010688, Note_off_c, 0, 58, 67
2, 1010688, Note_on_c, 0, 50, 67
2, 1010752, Note_off_c, 0, 50, 67
2, 1010816, Note_off_c, 0, 50, 67
2, 1010816, Note_on_c, 0, 62, 67
2, 1010880, Note_off_c, 0, 62, 67
2, 1010944, Note_off_c, 0, 62, 67
2, 1010944, Note_on_c, 0, 46, 67
2, 1011008, Note_off_c, 0, 46, 67
2, 1011072, Note_off_c, 0, 46, 67
2, 1011072, Note_on_c, 0, 58, 67
2, 1011136, Note_off_c, 0, 58, 67
2, 1011200, Note_off_c, 0, 58, 67
2, 1011200, Note_on_c, 0, 48, 67
2, 1011264, Note_off_c, 0, 48, 67
2, 1011328, Note_off_c, 0, 48, 67
2, 1011328, Note_on_c, 0, 60, 67
2, 1011392, Note_off_c, 0, 60, 67
2, 1011456, Note_off_c, 0, 60, 67
2, 1011456, Note_on_c, 0, 49, 67
2, 1011520, Note_off_c, 0, 49, 67
2, 1011584, Note_off_c, 0, 49, 67
2, 1011584, Note_on_c, 0, 61, 67
2, 1011648, Note_off_c, 0, 61, 67
2, 1011712, Note_off_c, 0, 61, 67
2, 1011712, Note_on_c, 0, 50, 67
2, 1011776, Note_off_c, 0, 50, 67
2, 1011840, Note_off_c, 0, 50, 67
2, 1011840, Note_on_c, 0, 62, 67
2, 1011904, Note_off_c, 0, 62, 67
2, 1011968, Note_off_c, 0, 62, 67
2, 1011968, Note_on_c, 0, 46, 67
2, 1012032, Note_off_c, 0, 46, 67
2, 1012096, Note_off_c, 0, 46, 67
2, 1012096, Note_on_c, 0, 58, 67
2, 1012160, Note_off_c, 0, 58, 67
2, 1012224, Note_off_c, 0, 58, 67
2, 1012224, Note_on_c, 0, 51, 67
2, 1012288, Note_off_c, 0, 51, 67
2, 1012352, Note_off_c, 0, 51, 67
2, 1012352, Note_on_c, 0, 63, 67
2, 1012416, Note_off_c, 0, 63, 67
2, 1012480, Note_off_c, 0, 63, 67
2, 1012480, Note_on_c, 0, 46, 67
2, 1012544, Note_off_c, 0, 46, 67
2, 1012608, Note_off_c, 0, 46, 67
2, 1012608, Note_on_c, 0, 58, 67
2, 1012672, Note_off_c, 0, 58, 67
2, 1012736, Note_off_c, 0, 58, 67
2, 1012736, Note_on_c, 0, 51, 67
2, 1012800, Note_off_c, 0, 51, 67
2, 1012864, Note_off_c, 0, 51, 67
2, 1012864, Note_on_c, 0, 63, 67
2, 1012928, Note_off_c, 0, 63, 67
2, 1012992, Note_off_c, 0, 63, 67
2, 1012992, Note_on_c, 0, 50, 67
2, 1013056, Note_off_c, 0, 50, 67
2, 1013120, Note_off_c, 0, 50, 67
2, 1013120, Note_on_c, 0, 62, 67
2, 1013184, Note_off_c, 0, 62, 67
2, 1013248, Note_off_c, 0, 62, 67
2, 1013248, Note_on_c, 0, 48, 67
2, 1013312, Note_off_c, 0, 48, 67
2, 1013376, Note_off_c, 0, 48, 67
2, 1013376, Note_on_c, 0, 60, 67
2, 1013440, Note_off_c, 0, 60, 67
2, 1013504, Note_off_c, 0, 60, 67
2, 1013504, Note_on_c, 0, 46, 67
2, 1013568, Note_off_c, 0, 46, 67
2, 1013632, Note_off_c, 0, 46, 67
2, 1013632, Note_on_c, 0, 58, 67
2, 1013696, Note_off_c, 0, 58, 67
2, 1013760, Note_off_c, 0, 58, 67
2, 1013760, Note_on_c, 0, 51, 67
2, 1013824, Note_off_c, 0, 51, 67
2, 1013888, Note_off_c, 0, 51, 67
2, 1013888, Note_on_c, 0, 63, 67
2, 1013952, Note_off_c, 0, 63, 67
2, 1014016, Note_off_c, 0, 63, 67
2, 1014016, Note_on_c, 0, 46, 67
2, 1014080, Note_off_c, 0, 46, 67
2, 1014144, Note_off_c, 0, 46, 67
2, 1014144, Note_on_c, 0, 58, 67
2, 1014208, Note_off_c, 0, 58, 67
2, 1014272, Note_off_c, 0, 58, 67
2, 1014272, Note_on_c, 0, 48, 67
2, 1014336, Note_off_c, 0, 48, 67
2, 1014400, Note_off_c, 0, 48, 67
2, 1014400, Note_on_c, 0, 60, 67
2, 1014464, Note_off_c, 0, 60, 67
2, 1014528, Note_off_c, 0, 60, 67
2, 1014528, Note_on_c, 0, 46, 67
2, 1014592, Note_off_c, 0, 46, 67
2, 1014656, Note_off_c, 0, 46, 67
2, 1014656, Note_on_c, 0, 58, 67
2, 1014720, Note_off_c, 0, 58, 67
2, 1014784, Note_off_c, 0, 58, 67
2, 1014784, Note_on_c, 0, 50, 67
2, 1014848, Note_off_c, 0, 50, 67
2, 1014912, Note_off_c, 0, 50, 67
2, 1014912, Note_on_c, 0, 62, 67
2, 1014976, Note_off_c, 0, 62, 67
2, 1015040, Note_off_c, 0, 62, 67
2, 1015040, Note_on_c, 0, 48, 67
2, 1015104, Note_off_c, 0, 48, 67
2, 1015168, Note_off_c, 0, 48, 67
2, 1015168, Note_on_c, 0, 60, 67
2, 1015232, Note_off_c, 0, 60, 67
2, 1015296, Note_off_c, 0, 60, 67
2, 1015296, Note_on_c, 0, 46, 67
2, 1015360, Note_off_c, 0, 46, 67
2, 1015424, Note_off_c, 0, 46, 67
2, 1015424, Note_on_c, 0, 58, 67
2, 1015488, Note_off_c, 0, 58, 67
2, 1015552, Note_off_c, 0, 58, 67
2, 1015552, Note_on_c, 0, 48, 67
2, 1015616, Note_off_c, 0, 48, 67
2, 1015680, Note_off_c, 0, 48, 67
2, 1015680, Note_on_c, 0, 60, 67
2, 1015744, Note_off_c, 0, 60, 67
2, 1015808, Note_off_c, 0, 60, 67
2, 1015808, Note_on_c, 0, 50, 67
2, 1015872, Note_off_c, 0, 50, 67
2, 1015936, Note_off_c, 0, 50, 67
2, 1015936, Note_on_c, 0, 62, 67
2, 1016000, Note_off_c, 0, 62, 67
2, 1016064, Note_off_c, 0, 62, 67
2, 1016064, Note_on_c, 0, 46, 67
2, 1016128, Note_off_c, 0, 46, 67
2, 1016192, Note_off_c, 0, 46, 67
2, 1016192, Note_on_c, 0, 58, 67
2, 1016256, Note_off_c, 0, 58, 67
2, 1016320, Note_off_c, 0, 58, 67
2, 1016320, Note_on_c, 0, 51, 67
2, 1016384, Note_off_c, 0, 51, 67
2, 1016448, Note_off_c, 0, 51, 67
2, 1016448, Note_on_c, 0, 63, 67
2, 1016512, Note_off_c, 0, 63, 67
2, 1016576, Note_off_c, 0, 63, 67
2, 1016576, Note_on_c, 0, 46, 67
2, 1016640, Note_off_c, 0, 46, 67
2, 1016704, Note_off_c, 0, 46, 67
2, 1016704, Note_on_c, 0, 58, 67
2, 1016768, Note_off_c, 0, 58, 67
2, 1016832, Note_off_c, 0, 58, 67
2, 1016832, Note_on_c, 0, 39, 67
2, 1016896, Note_off_c, 0, 39, 67
2, 1016896, Note_on_c, 0, 46, 67
2, 1016960, Note_off_c, 0, 46, 67
2, 1016960, Note_on_c, 0, 51, 67
2, 1017024, Note_off_c, 0, 51, 67
2, 1017024, Note_on_c, 0, 53, 67
2, 1017088, Note_off_c, 0, 53, 67
2, 1017088, Note_on_c, 0, 55, 67
2, 1017152, Note_off_c, 0, 55, 67
2, 1017152, Note_on_c, 0, 51, 67
2, 1017216, Note_off_c, 0, 51, 67
2, 1017216, Note_on_c, 0, 58, 67
2, 1017280, Note_off_c, 0, 58, 67
2, 1017280, Note_on_c, 0, 63, 67
2, 1017328, Control_c, 0, 93, 0
2, 1017344, Note_off_c, 0, 63, 67
2, 1017344, Note_on_c, 0, 44, 67
2, 1017408, Note_off_c, 0, 44, 67
2, 1017408, Note_on_c, 0, 51, 67
2, 1017472, Note_off_c, 0, 51, 67
2, 1017472, Note_on_c, 0, 56, 67
2, 1017536, Note_off_c, 0, 56, 67
2, 1017536, Note_on_c, 0, 58, 67
2, 1017600, Note_off_c, 0, 58, 67
2, 1017600, Note_on_c, 0, 60, 67
2, 1017664, Note_off_c, 0, 60, 67
2, 1017664, Note_on_c, 0, 56, 67
2, 1017728, Note_off_c, 0, 56, 67
2, 1017728, Note_on_c, 0, 63, 67
2, 1017792, Note_off_c, 0, 63, 67
2, 1017792, Note_on_c, 0, 68, 67
2, 1017840, Control_c, 0, 93, 0
2, 1017856, Note_off_c, 0, 68, 67
2, 1017856, Note_on_c, 0, 46, 67
2, 1017920, Note_off_c, 0, 46, 67
2, 1017920, Note_on_c, 0, 53, 67
2, 1017984, Note_off_c, 0, 53, 67
2, 1017984, Note_on_c, 0, 58, 67
2, 1018048, Note_off_c, 0, 58, 67
2, 1018048, Note_on_c, 0, 60, 67
2, 1018112, Note_off_c, 0, 60, 67
2, 1018112, Note_on_c, 0, 62, 67
2, 1018176, Note_off_c, 0, 62, 67
2, 1018176, Note_on_c, 0, 58, 67
2, 1018240, Note_off_c, 0, 58, 67
2, 1018240, Note_on_c, 0, 65, 67
2, 1018304, Note_off_c, 0, 65, 67
2, 1018304, Note_on_c, 0, 70, 67
2, 1018352, Control_c, 0, 93, 0
2, 1018368, Note_off_c, 0, 70, 67
2, 1018368, Note_on_c, 0, 41, 67
2, 1018432, Note_off_c, 0, 41, 67
2, 1018432, Note_on_c, 0, 44, 67
2, 1018496, Note_off_c, 0, 44, 67
2, 1018496, Control_c, 0, 64, 64
2, 1018496, Note_on_c, 0, 50, 67
2, 1018517, Note_off_c, 0, 50, 67
2, 1018517, Note_on_c, 0, 53, 67
2, 1018538, Note_off_c, 0, 53, 67
2, 1018538, Note_on_c, 0, 58, 67
2, 1018559, Note_off_c, 0, 58, 67
2, 1018560, Control_c, 0, 93, 0
2, 1018560, Note_on_c, 0, 62, 67
2, 1018581, Note_off_c, 0, 62, 67
2, 1018581, Note_on_c, 0, 65, 67
2, 1018602, Note_off_c, 0, 65, 67
2, 1018602, Note_on_c, 0, 70, 67
2, 1018624, Control_c, 0, 93, 0
2, 1018624, Control_c, 0, 64, 0
2, 1018752, Note_off_c, 0, 70, 67
2, 1018752, Note_on_c, 0, 51, 67
2, 1018816, Note_off_c, 0, 51, 67
2, 1018816, Note_on_c, 0, 46, 67
2, 1018880, Note_off_c, 0, 46, 67
2, 1018880, Note_on_c, 0, 39, 67
2, 1018944, Note_off_c, 0, 39, 67
2, 1018944, Note_on_c, 0, 46, 67
2, 1019008, Note_off_c, 0, 46, 67
2, 1019008, Note_on_c, 0, 51, 67
2, 1019072, Note_off_c, 0, 51, 67
2, 1019072, Note_on_c, 0, 53, 67
2, 1019136, Note_off_c, 0, 53, 67
2, 1019136, Note_on_c, 0, 55, 67
2, 1019200, Note_off_c, 0, 55, 67
2, 1019200, Note_on_c, 0, 51, 67
2, 1019264, Note_off_c, 0, 51, 67
2, 1019264, Note_on_c, 0, 58, 67
2, 1019328, Note_off_c, 0, 58, 67
2, 1019328, Note_on_c, 0, 63, 67
2, 1019376, Control_c, 0, 93, 0
2, 1019392, Note_off_c, 0, 63, 67
2, 1019392, Note_on_c, 0, 44, 67
2, 1019456, Note_off_c, 0, 44, 67
2, 1019456, Note_on_c, 0, 51, 67
2, 1019520, Note_off_c, 0, 51, 67
2, 1019520, Note_on_c, 0, 56, 67
2, 1019584, Note_off_c, 0, 56, 67
2, 1019584, Note_on_c, 0, 58, 67
2, 1019648, Note_off_c, 0, 58, 67
2, 1019648, Note_on_c, 0, 60, 67
2, 1019712, Note_off_c, 0, 60, 67
2, 1019712, Note_on_c, 0, 56, 67
2, 1019776, Note_off_c, 0, 56, 67
2, 1019776, Note_on_c, 0, 63, 67
2, 1019840, Note_off_c, 0, 63, 67
2, 1019840, Note_on_c, 0, 68, 67
2, 1019888, Control_c, 0, 93, 0
2, 1019904, Note_off_c, 0, 68, 67
2, 1019904, Note_on_c, 0, 46, 67
2, 1019968, Note_off_c, 0, 46, 67
2, 1019968, Note_on_c, 0, 53, 67
2, 1020032, Note_off_c, 0, 53, 67
2, 1020032, Note_on_c, 0, 58, 67
2, 1020096, Note_off_c, 0, 58, 67
2, 1020096, Note_on_c, 0, 60, 67
2, 1020160, Note_off_c, 0, 60, 67
2, 1020160, Note_on_c, 0, 62, 67
2, 1020224, Note_off_c, 0, 62, 67
2, 1020224, Note_on_c, 0, 58, 67
2, 1020288, Note_off_c, 0, 58, 67
2, 1020288, Note_on_c, 0, 65, 67
2, 1020352, Note_off_c, 0, 65, 67
2, 1020352, Note_on_c, 0, 70, 67
2, 1020400, Control_c, 0, 93, 0
2, 1020416, Note_off_c, 0, 70, 67
2, 1020416, Note_on_c, 0, 39, 67
2, 1020480, Note_off_c, 0, 39, 67
2, 1020480, Note_on_c, 0, 46, 67
2, 1020544, Note_off_c, 0, 46, 67
2, 1020544, Note_on_c, 0, 51, 67
2, 1020608, Note_off_c, 0, 51, 67
2, 1020608, Control_c, 0, 64, 64
2, 1020608, Note_on_c, 0, 55, 67
2, 1020618, Note_off_c, 0, 55, 67
2, 1020618, Note_on_c, 0, 58, 67
2, 1020629, Note_off_c, 0, 58, 67
2, 1020629, Note_on_c, 0, 63, 67
2, 1020639, Note_off_c, 0, 63, 67
2, 1020640, Control_c, 0, 93, 0
2, 1020640, Note_on_c, 0, 67, 67
2, 1020650, Note_off_c, 0, 67, 67
2, 1020650, Note_on_c, 0, 70, 67
2, 1020661, Note_off_c, 0, 70, 67
2, 1020661, Note_on_c, 0, 75, 67
2, 1020671, Note_off_c, 0, 75, 67
2, 1020672, Control_c, 0, 93, 0
2, 1020800, Control_c, 0, 93, 0
2, 1020864, Control_c, 0, 93, 0
2, 1020864, Control_c, 0, 64, 0
2, 1020928, Control_c, 0, 93, 0
2, 1020928, Note_on_c, 0, 51, 67
2, 1020992, Note_off_c, 0, 51, 67
2, 1021056, Note_off_c, 0, 51, 67
2, 1021056, Note_on_c, 0, 63, 67
2, 1021120, Note_off_c, 0, 63, 67
2, 1021184, Note_off_c, 0, 63, 67
2, 1021184, Note_on_c, 0, 50, 67
2, 1021248, Note_off_c, 0, 50, 67
2, 1021312, Note_off_c, 0, 50, 67
2, 1021312, Note_on_c, 0, 62, 67
2, 1021376, Note_off_c, 0, 62, 67
2, 1021440, Note_off_c, 0, 62, 67
2, 1021440, Note_on_c, 0, 48, 67
2, 1021504, Note_off_c, 0, 48, 67
2, 1021568, Note_off_c, 0, 48, 67
2, 1021568, Note_on_c, 0, 60, 67
2, 1021632, Note_off_c, 0, 60, 67
2, 1021696, Note_off_c, 0, 60, 67
2, 1021696, Note_on_c, 0, 46, 67
2, 1021760, Note_off_c, 0, 46, 67
2, 1021824, Note_off_c, 0, 46, 67
2, 1021824, Note_on_c, 0, 58, 67
2, 1021888, Note_off_c, 0, 58, 67
2, 1021952, Note_off_c, 0, 58, 67
2, 1021952, Note_on_c, 0, 51, 67
2, 1022016, Note_off_c, 0, 51, 67
2, 1022080, Note_off_c, 0, 51, 67
2, 1022080, Note_on_c, 0, 63, 67
2, 1022144, Note_off_c, 0, 63, 67
2, 1022208, Note_off_c, 0, 63, 67
2, 1022208, Note_on_c, 0, 46, 67
2, 1022272, Note_off_c, 0, 46, 67
2, 1022336, Note_off_c, 0, 46, 67
2, 1022336, Note_on_c, 0, 58, 67
2, 1022400, Note_off_c, 0, 58, 67
2, 1022464, Note_off_c, 0, 58, 67
2, 1022464, Note_on_c, 0, 48, 67
2, 1022528, Note_off_c, 0, 48, 67
2, 1022592, Note_off_c, 0, 48, 67
2, 1022592, Note_on_c, 0, 60, 67
2, 1022656, Note_off_c, 0, 60, 67
2, 1022720, Note_off_c, 0, 60, 67
2, 1022720, Note_on_c, 0, 46, 67
2, 1022784, Note_off_c, 0, 46, 67
2, 1022848, Note_off_c, 0, 46, 67
2, 1022848, Note_on_c, 0, 58, 67
2, 1022912, Note_off_c, 0, 58, 67
2, 1022976, Note_off_c, 0, 58, 67
2, 1022976, Note_on_c, 0, 50, 67
2, 1023040, Note_off_c, 0, 50, 67
2, 1023104, Note_off_c, 0, 50, 67
2, 1023104, Note_on_c, 0, 62, 67
2, 1023168, Note_off_c, 0, 62, 67
2, 1023232, Note_off_c, 0, 62, 67
2, 1023232, Note_on_c, 0, 46, 67
2, 1023296, Note_off_c, 0, 46, 67
2, 1023360, Note_off_c, 0, 46, 67
2, 1023360, Note_on_c, 0, 58, 67
2, 1023424, Note_off_c, 0, 58, 67
2, 1023488, Note_off_c, 0, 58, 67
2, 1023488, Note_on_c, 0, 48, 67
2, 1023552, Note_off_c, 0, 48, 67
2, 1023616, Note_off_c, 0, 48, 67
2, 1023616, Note_on_c, 0, 60, 67
2, 1023680, Note_off_c, 0, 60, 67
2, 1023744, Note_off_c, 0, 60, 67
2, 1023744, Note_on_c, 0, 49, 67
2, 1023808, Note_off_c, 0, 49, 67
2, 1023872, Note_off_c, 0, 49, 67
2, 1023872, Note_on_c, 0, 61, 67
2, 1023936, Note_off_c, 0, 61, 67
2, 1024000, Note_off_c, 0, 61, 67
2, 1024000, Note_on_c, 0, 50, 67
2, 1024064, Note_off_c, 0, 50, 67
2, 1024128, Note_off_c, 0, 50, 67
2, 1024128, Note_on_c, 0, 62, 67
2, 1024192, Note_off_c, 0, 62, 67
2, 1024256, Note_off_c, 0, 62, 67
2, 1024256, Note_on_c, 0, 46, 67
2, 1024320, Note_off_c, 0, 46, 67
2, 1024384, Note_off_c, 0, 46, 67
2, 1024384, Note_on_c, 0, 58, 67
2, 1024448, Note_off_c, 0, 58, 67
2, 1024512, Note_off_c, 0, 58, 67
2, 1024512, Note_on_c, 0, 51, 67
2, 1024576, Note_off_c, 0, 51, 67
2, 1024640, Note_off_c, 0, 51, 67
2, 1024640, Note_on_c, 0, 63, 67
2, 1024704, Note_off_c, 0, 63, 67
2, 1024768, Note_off_c, 0, 63, 67
2, 1024768, Note_on_c, 0, 46, 67
2, 1024832, Note_off_c, 0, 46, 67
2, 1024896, Note_off_c, 0, 46, 67
2, 1024896, Note_on_c, 0, 58, 67
2, 1024960, Note_off_c, 0, 58, 67
2, 1025024, Note_off_c, 0, 58, 67
2, 1025024, Note_on_c, 0, 51, 67
2, 1025088, Note_off_c, 0, 51, 67
2, 1025152, Note_off_c, 0, 51, 67
2, 1025152, Note_on_c, 0, 63, 67
2, 1025216, Note_off_c, 0, 63, 67
2, 1025280, Note_off_c, 0, 63, 67
2, 1025280, Note_on_c, 0, 50, 67
2, 1025344, Note_off_c, 0, 50, 67
2, 1025408, Note_off_c, 0, 50, 67
2, 1025408, Note_on_c, 0, 62, 67
2, 1025472, Note_off_c, 0, 62, 67
2, 1025536, Note_off_c, 0, 62, 67
2, 1025536, Note_on_c, 0, 48, 67
2, 1025600, Note_off_c, 0, 48, 67
2, 1025664, Note_off_c, 0, 48, 67
2, 1025664, Note_on_c, 0, 60, 67
2, 1025728, Note_off_c, 0, 60, 67
2, 1025792, Note_off_c, 0, 60, 67
2, 1025792, Note_on_c, 0, 46, 67
2, 1025856, Note_off_c, 0, 46, 67
2, 1025920, Note_off_c, 0, 46, 67
2, 1025920, Note_on_c, 0, 58, 67
2, 1025984, Note_off_c, 0, 58, 67
2, 1026048, Note_off_c, 0, 58, 67
2, 1026048, Note_on_c, 0, 51, 67
2, 1026112, Note_off_c, 0, 51, 67
2, 1026176, Note_off_c, 0, 51, 67
2, 1026176, Note_on_c, 0, 63, 67
2, 1026240, Note_off_c, 0, 63, 67
2, 1026304, Note_off_c, 0, 63, 67
2, 1026304, Note_on_c, 0, 46, 67
2, 1026368, Note_off_c, 0, 46, 67
2, 1026432, Note_off_c, 0, 46, 67
2, 1026432, Note_on_c, 0, 58, 67
2, 1026496, Note_off_c, 0, 58, 67
2, 1026560, Note_off_c, 0, 58, 67
2, 1026560, Note_on_c, 0, 48, 67
2, 1026624, Note_off_c, 0, 48, 67
2, 1026688, Note_off_c, 0, 48, 67
2, 1026688, Note_on_c, 0, 60, 67
2, 1026752, Note_off_c, 0, 60, 67
2, 1026816, Note_off_c, 0, 60, 67
2, 1026816, Note_on_c, 0, 46, 67
2, 1026880, Note_off_c, 0, 46, 67
2, 1026944, Note_off_c, 0, 46, 67
2, 1026944, Note_on_c, 0, 58, 67
2, 1027008, Note_off_c, 0, 58, 67
2, 1027072, Note_off_c, 0, 58, 67
2, 1027072, Note_on_c, 0, 50, 67
2, 1027136, Note_off_c, 0, 50, 67
2, 1027200, Note_off_c, 0, 50, 67
2, 1027200, Note_on_c, 0, 62, 67
2, 1027264, Note_off_c, 0, 62, 67
2, 1027328, Note_off_c, 0, 62, 67
2, 1027328, Note_on_c, 0, 48, 67
2, 1027392, Note_off_c, 0, 48, 67
2, 1027456, Note_off_c, 0, 48, 67
2, 1027456, Note_on_c, 0, 60, 67
2, 1027520, Note_off_c, 0, 60, 67
2, 1027584, Note_off_c, 0, 60, 67
2, 1027584, Note_on_c, 0, 46, 67
2, 1027648, Note_off_c, 0, 46, 67
2, 1027712, Note_off_c, 0, 46, 67
2, 1027712, Note_on_c, 0, 58, 67
2, 1027776, Note_off_c, 0, 58, 67
2, 1027840, Note_off_c, 0, 58, 67
2, 1027840, Note_on_c, 0, 48, 67
2, 1027904, Note_off_c, 0, 48, 67
2, 1027968, Note_off_c, 0, 48, 67
2, 1027968, Note_on_c, 0, 60, 67
2, 1028032, Note_off_c, 0, 60, 67
2, 1028096, Note_off_c, 0, 60, 67
2, 1028096, Note_on_c, 0, 50, 67
2, 1028160, Note_off_c, 0, 50, 67
2, 1028224, Note_off_c, 0, 50, 67
2, 1028224, Note_on_c, 0, 62, 67
2, 1028288, Note_off_c, 0, 62, 67
2, 1028352, Note_off_c, 0, 62, 67
2, 1028352, Note_on_c, 0, 46, 67
2, 1028416, Note_off_c, 0, 46, 67
2, 1028480, Note_off_c, 0, 46, 67
2, 1028480, Note_on_c, 0, 58, 67
2, 1028544, Note_off_c, 0, 58, 67
2, 1028608, Note_off_c, 0, 58, 67
2, 1028608, Note_on_c, 0, 51, 67
2, 1028672, Note_off_c, 0, 51, 67
2, 1028736, Note_off_c, 0, 51, 67
2, 1028736, Note_on_c, 0, 63, 67
2, 1028800, Note_off_c, 0, 63, 67
2, 1028864, Note_off_c, 0, 63, 67
2, 1028864, Note_on_c, 0, 46, 67
2, 1028928, Note_off_c, 0, 46, 67
2, 1028992, Note_off_c, 0, 46, 67
2, 1028992, Note_on_c, 0, 58, 67
2, 1029056, Note_off_c, 0, 58, 67
2, 1029120, Note_off_c, 0, 58, 67
2, 1029120, Note_on_c, 0, 39, 67
2, 1029184, Note_off_c, 0, 39, 67
2, 1029184, Note_on_c, 0, 46, 67
2, 1029248, Note_off_c, 0, 46, 67
2, 1029248, Note_on_c, 0, 51, 67
2, 1029312, Note_off_c, 0, 51, 67
2, 1029312, Note_on_c, 0, 53, 67
2, 1029376, Note_off_c, 0, 53, 67
2, 1029376, Note_on_c, 0, 55, 67
2, 1029440, Note_off_c, 0, 55, 67
2, 1029440, Note_on_c, 0, 51, 67
2, 1029504, Note_off_c, 0, 51, 67
2, 1029504, Note_on_c, 0, 58, 67
2, 1029568, Note_off_c, 0, 58, 67
2, 1029568, Note_on_c, 0, 63, 67
2, 1029616, Control_c, 0, 93, 0
2, 1029632, Note_off_c, 0, 63, 67
2, 1029632, Note_on_c, 0, 44, 67
2, 1029696, Note_off_c, 0, 44, 67
2, 1029696, Note_on_c, 0, 51, 67
2, 1029760, Note_off_c, 0, 51, 67
2, 1029760, Note_on_c, 0, 56, 67
2, 1029824, Note_off_c, 0, 56, 67
2, 1029824, Note_on_c, 0, 58, 67
2, 1029888, Note_off_c, 0, 58, 67
2, 1029888, Note_on_c, 0, 60, 67
2, 1029952, Note_off_c, 0, 60, 67
2, 1029952, Note_on_c, 0, 56, 67
2, 1030016, Note_off_c, 0, 56, 67
2, 1030016, Note_on_c, 0, 63, 67
2, 1030080, Note_off_c, 0, 63, 67
2, 1030080, Note_on_c, 0, 68, 67
2, 1030128, Control_c, 0, 93, 0
2, 1030144, Note_off_c, 0, 68, 67
2, 1030144, Note_on_c, 0, 46, 67
2, 1030208, Note_off_c, 0, 46, 67
2, 1030208, Note_on_c, 0, 53, 67
2, 1030272, Note_off_c, 0, 53, 67
2, 1030272, Note_on_c, 0, 58, 67
2, 1030336, Note_off_c, 0, 58, 67
2, 1030336, Note_on_c, 0, 60, 67
2, 1030400, Note_off_c, 0, 60, 67
2, 1030400, Note_on_c, 0, 62, 67
2, 1030464, Note_off_c, 0, 62, 67
2, 1030464, Note_on_c, 0, 58, 67
2, 1030528, Note_off_c, 0, 58, 67
2, 1030528, Note_on_c, 0, 65, 67
2, 1030592, Note_off_c, 0, 65, 67
2, 1030592, Note_on_c, 0, 70, 67
2, 1030640, Control_c, 0, 93, 0
2, 1030656, Note_off_c, 0, 70, 67
2, 1030656, Note_on_c, 0, 41, 67
2, 1030720, Note_off_c, 0, 41, 67
2, 1030720, Note_on_c, 0, 44, 67
2, 1030784, Note_off_c, 0, 44, 67
2, 1030784, Control_c, 0, 64, 64
2, 1030784, Note_on_c, 0, 50, 67
2, 1030805, Note_off_c, 0, 50, 67
2, 1030805, Note_on_c, 0, 53, 67
2, 1030826, Note_off_c, 0, 53, 67
2, 1030826, Note_on_c, 0, 58, 67
2, 1030847, Note_off_c, 0, 58, 67
2, 1030848, Control_c, 0, 93, 0
2, 1030848, Note_on_c, 0, 62, 67
2, 1030869, Note_off_c, 0, 62, 67
2, 1030869, Note_on_c, 0, 65, 67
2, 1030890, Note_off_c, 0, 65, 67
2, 1030890, Note_on_c, 0, 70, 67
2, 1030912, Control_c, 0, 93, 0
2, 1030912, Control_c, 0, 64, 0
2, 1031040, Note_off_c, 0, 70, 67
2, 1031040, Note_on_c, 0, 51, 67
2, 1031104, Note_off_c, 0, 51, 67
2, 1031104, Note_on_c, 0, 46, 67
2, 1031168, Note_off_c, 0, 46, 67
2, 1031168, Note_on_c, 0, 39, 67
2, 1031232, Note_off_c, 0, 39, 67
2, 1031232, Note_on_c, 0, 46, 67
2, 1031296, Note_off_c, 0, 46, 67
2, 1031296, Note_on_c, 0, 51, 67
2, 1031360, Note_off_c, 0, 51, 67
2, 1031360, Note_on_c, 0, 53, 67
2, 1031424, Note_off_c, 0, 53, 67
2, 1031424, Note_on_c, 0, 55, 67
2, 1031488, Note_off_c, 0, 55, 67
2, 1031488, Note_on_c, 0, 51, 67
2, 1031552, Note_off_c, 0, 51, 67
2, 1031552, Note_on_c, 0, 58, 67
2, 1031616, Note_off_c, 0, 58, 67
2, 1031616, Note_on_c, 0, 63, 67
2, 1031664, Control_c, 0, 93, 0
2, 1031680, Note_off_c, 0, 63, 67
2, 1031680, Note_on_c, 0, 44, 67
2, 1031744, Note_off_c, 0, 44, 67
2, 1031744, Note_on_c, 0, 51, 67
2, 1031808, Note_off_c, 0, 51, 67
2, 1031808, Note_on_c, 0, 56, 67
2, 1031872, Note_off_c, 0, 56, 67
2, 1031872, Note_on_c, 0, 58, 67
2, 1031936, Note_off_c, 0, 58, 67
2, 1031936, Note_on_c, 0, 60, 67
2, 1032000, Note_off_c, 0, 60, 67
2, 1032000, Note_on_c, 0, 56, 67
2, 1032064, Note_off_c, 0, 56, 67
2, 1032064, Note_on_c, 0, 63, 67
2, 1032128, Note_off_c, 0, 63, 67
2, 1032128, Note_on_c, 0, 68, 67
2, 1032176, Control_c, 0, 93, 0
2, 1032192, Note_off_c, 0, 68, 67
2, 1032192, Note_on_c, 0, 46, 67
2, 1032256, Note_off_c, 0, 46, 67
2, 1032256, Note_on_c, 0, 53, 67
2, 1032320, Note_off_c, 0, 53, 67
2, 1032320, Note_on_c, 0, 58, 67
2, 1032384, Note_off_c, 0, 58, 67
2, 1032384, Note_on_c, 0, 60, 67
2, 1032448, Note_off_c, 0, 60, 67
2, 1032448, Note_on_c, 0, 62, 67
2, 1032512, Note_off_c, 0, 62, 67
2, 1032512, Note_on_c, 0, 58, 67
2, 1032576, Note_off_c, 0, 58, 67
2, 1032576, Note_on_c, 0, 65, 67
2, 1032640, Note_off_c, 0, 65, 67
2, 1032640, Note_on_c, 0, 70, 67
2, 1032688, Control_c, 0, 93, 0
2, 1032704, Note_off_c, 0, 70, 67
2, 1032704, Note_on_c, 0, 39, 67
2, 1032768, Note_off_c, 0, 39, 67
2, 1032768, Note_on_c, 0, 46, 67
2, 1032832, Note_off_c, 0, 46, 67
2, 1032832, Note_on_c, 0, 51, 67
2, 1032896, Note_off_c, 0, 51, 67
2, 1032896, Control_c, 0, 64, 64
2, 1032896, Note_on_c, 0, 55, 67
2, 1032906, Note_off_c, 0, 55, 67
2, 1032906, Note_on_c, 0, 58, 67
2, 1032917, Note_off_c, 0, 58, 67
2, 1032917, Note_on_c, 0, 63, 67
2, 1032927, Note_off_c, 0, 63, 67
2, 1032928, Control_c, 0, 93, 0
2, 1032928, Note_on_c, 0, 67, 67
2, 1032938, Note_off_c, 0, 67, 67
2, 1032938, Note_on_c, 0, 70, 67
2, 1032949, Note_off_c, 0, 70, 67
2, 1032949, Note_on_c, 0, 75, 67
2, 1032959, Note_off_c, 0, 75, 67
2, 1032960, Control_c, 0, 93, 0
2, 1033088, Control_c, 0, 93, 0
2, 1033152, Control_c, 0, 93, 0
2, 1033152, Control_c, 0, 64, 0
2, 1033216, Control_c, 0, 93, 0
2, 1033216, Note_on_c, 0, 51, 67
2, 1033280, Note_off_c, 0, 51, 67
2, 1033344, Note_off_c, 0, 51, 67
2, 1033344, Note_on_c, 0, 63, 67
2, 1033408, Note_off_c, 0, 63, 67
2, 1033472, Note_off_c, 0, 63, 67
2, 1033472, Note_on_c, 0, 50, 67
2, 1033536, Note_off_c, 0, 50, 67
2, 1033600, Note_off_c, 0, 50, 67
2, 1033600, Note_on_c, 0, 62, 67
2, 1033664, Note_off_c, 0, 62, 67
2, 1033728, Note_off_c, 0, 62, 67
2, 1033728, Note_on_c, 0, 48, 67
2, 1033792, Note_off_c, 0, 48, 67
2, 1033856, Note_off_c, 0, 48, 67
2, 1033856, Note_on_c, 0, 60, 67
2, 1033920, Note_off_c, 0, 60, 67
2, 1033984, Note_off_c, 0, 60, 67
2, 1033984, Note_on_c, 0, 46, 67
2, 1034048, Note_off_c, 0, 46, 67
2, 1034112, Note_off_c, 0, 46, 67
2, 1034112, Note_on_c, 0, 58, 67
2, 1034176, Note_off_c, 0, 58, 67
2, 1034240, Note_off_c, 0, 58, 67
2, 1034240, Note_on_c, 0, 51, 67
2, 1034304, Note_off_c, 0, 51, 67
2, 1034368, Note_off_c, 0, 51, 67
2, 1034368, Note_on_c, 0, 63, 67
2, 1034432, Note_off_c, 0, 63, 67
2, 1034496, Note_off_c, 0, 63, 67
2, 1034496, Note_on_c, 0, 46, 67
2, 1034560, Note_off_c, 0, 46, 67
2, 1034624, Note_off_c, 0, 46, 67
2, 1034624, Note_on_c, 0, 58, 67
2, 1034688, Note_off_c, 0, 58, 67
2, 1034752, Note_off_c, 0, 58, 67
2, 1034752, Note_on_c, 0, 48, 67
2, 1034816, Note_off_c, 0, 48, 67
2, 1034880, Note_off_c, 0, 48, 67
2, 1034880, Note_on_c, 0, 60, 67
2, 1034944, Note_off_c, 0, 60, 67
2, 1035008, Note_off_c, 0, 60, 67
2, 1035008, Note_on_c, 0, 46, 67
2, 1035072, Note_off_c, 0, 46, 67
2, 1035136, Note_off_c, 0, 46, 67
2, 1035136, Note_on_c, 0, 58, 67
2, 1035200, Note_off_c, 0, 58, 67
2, 1035264, Note_off_c, 0, 58, 67
2, 1035264, Note_on_c, 0, 50, 67
2, 1035328, Note_off_c, 0, 50, 67
2, 1035392, Note_off_c, 0, 50, 67
2, 1035392, Note_on_c, 0, 62, 67
2, 1035456, Note_off_c, 0, 62, 67
2, 1035520, Note_off_c, 0, 62, 67
2, 1035520, Note_on_c, 0, 46, 67
2, 1035584, Note_off_c, 0, 46, 67
2, 1035648, Note_off_c, 0, 46, 67
2, 1035648, Note_on_c, 0, 58, 67
2, 1035712, Note_off_c, 0, 58, 67
2, 1035776, Note_off_c, 0, 58, 67
2, 1035776, Note_on_c, 0, 48, 67
2, 1035840, Note_off_c, 0, 48, 67
2, 1035904, Note_off_c, 0, 48, 67
2, 1035904, Note_on_c, 0, 60, 67
2, 1035968, Note_off_c, 0, 60, 67
2, 1036032, Note_off_c, 0, 60, 67
2, 1036032, Note_on_c, 0, 49, 67
2, 1036096, Note_off_c, 0, 49, 67
2, 1036160, Note_off_c, 0, 49, 67
2, 1036160, Note_on_c, 0, 61, 67
2, 1036224, Note_off_c, 0, 61, 67
2, 1036288, Note_off_c, 0, 61, 67
2, 1036288, Note_on_c, 0, 50, 67
2, 1036352, Note_off_c, 0, 50, 67
2, 1036416, Note_off_c, 0, 50, 67
2, 1036416, Note_on_c, 0, 62, 67
2, 1036480, Note_off_c, 0, 62, 67
2, 1036544, Note_off_c, 0, 62, 67
2, 1036544, Note_on_c, 0, 46, 67
2, 1036608, Note_off_c, 0, 46, 67
2, 1036672, Note_off_c, 0, 46, 67
2, 1036672, Note_on_c, 0, 58, 67
2, 1036736, Note_off_c, 0, 58, 67
2, 1036800, Note_off_c, 0, 58, 67
2, 1036800, Note_on_c, 0, 51, 67
2, 1036864, Note_off_c, 0, 51, 67
2, 1036928, Note_off_c, 0, 51, 67
2, 1036928, Note_on_c, 0, 63, 67
2, 1036992, Note_off_c, 0, 63, 67
2, 1037056, Note_off_c, 0, 63, 67
2, 1037056, Note_on_c, 0, 46, 67
2, 1037120, Note_off_c, 0, 46, 67
2, 1037184, Note_off_c, 0, 46, 67
2, 1037184, Note_on_c, 0, 58, 67
2, 1037248, Note_off_c, 0, 58, 67
2, 1037312, Note_off_c, 0, 58, 67
2, 1037312, Note_on_c, 0, 51, 67
2, 1037376, Note_off_c, 0, 51, 67
2, 1037440, Note_off_c, 0, 51, 67
2, 1037440, Note_on_c, 0, 63, 67
2, 1037504, Note_off_c, 0, 63, 67
2, 1037568, Note_off_c, 0, 63, 67
2, 1037568, Note_on_c, 0, 50, 67
2, 1037632, Note_off_c, 0, 50, 67
2, 1037696, Note_off_c, 0, 50, 67
2, 1037696, Note_on_c, 0, 62, 67
2, 1037760, Note_off_c, 0, 62, 67
2, 1037824, Note_off_c, 0, 62, 67
2, 1037824, Note_on_c, 0, 48, 67
2, 1037888, Note_off_c, 0, 48, 67
2, 1037952, Note_off_c, 0, 48, 67
2, 1037952, Note_on_c, 0, 60, 67
2, 1038016, Note_off_c, 0, 60, 67
2, 1038080, Note_off_c, 0, 60, 67
2, 1038080, Note_on_c, 0, 46, 67
2, 1038144, Note_off_c, 0, 46, 67
2, 1038208, Note_off_c, 0, 46, 67
2, 1038208, Note_on_c, 0, 58, 67
2, 1038272, Note_off_c, 0, 58, 67
2, 1038336, Note_off_c, 0, 58, 67
2, 1038336, Note_on_c, 0, 51, 67
2, 1038400, Note_off_c, 0, 51, 67
2, 1038464, Note_off_c, 0, 51, 67
2, 1038464, Note_on_c, 0, 63, 67
2, 1038528, Note_off_c, 0, 63, 67
2, 1038592, Note_off_c, 0, 63, 67
2, 1038592, Note_on_c, 0, 46, 67
2, 1038656, Note_off_c, 0, 46, 67
2, 1038720, Note_off_c, 0, 46, 67
2, 1038720, Note_on_c, 0, 58, 67
2, 1038784, Note_off_c, 0, 58, 67
2, 1038848, Note_off_c, 0, 58, 67
2, 1038848, Note_on_c, 0, 48, 67
2, 1038912, Note_off_c, 0, 48, 67
2, 1038976, Note_off_c, 0, 48, 67
2, 1038976, Note_on_c, 0, 60, 67
2, 1039040, Note_off_c, 0, 60, 67
2, 1039104, Note_off_c, 0, 60, 67
2, 1039104, Note_on_c, 0, 46, 67
2, 1039168, Note_off_c, 0, 46, 67
2, 1039232, Note_off_c, 0, 46, 67
2, 1039232, Note_on_c, 0, 58, 67
2, 1039296, Note_off_c, 0, 58, 67
2, 1039360, Note_off_c, 0, 58, 67
2, 1039360, Note_on_c, 0, 50, 67
2, 1039424, Note_off_c, 0, 50, 67
2, 1039488, Note_off_c, 0, 50, 67
2, 1039488, Note_on_c, 0, 62, 67
2, 1039552, Note_off_c, 0, 62, 67
2, 1039616, Note_off_c, 0, 62, 67
2, 1039616, Note_on_c, 0, 48, 67
2, 1039680, Note_off_c, 0, 48, 67
2, 1039744, Note_off_c, 0, 48, 67
2, 1039744, Note_on_c, 0, 60, 67
2, 1039808, Note_off_c, 0, 60, 67
2, 1039872, Note_off_c, 0, 60, 67
2, 1039872, Note_on_c, 0, 46, 67
2, 1039936, Note_off_c, 0, 46, 67
2, 1040000, Note_off_c, 0, 46, 67
2, 1040000, Note_on_c, 0, 58, 67
2, 1040064, Note_off_c, 0, 58, 67
2, 1040128, Note_off_c, 0, 58, 67
2, 1040128, Note_on_c, 0, 48, 67
2, 1040192, Note_off_c, 0, 48, 67
2, 1040256, Note_off_c, 0, 48, 67
2, 1040256, Note_on_c, 0, 60, 67
2, 1040320, Note_off_c, 0, 60, 67
2, 1040384, Note_off_c, 0, 60, 67
2, 1040384, Note_on_c, 0, 50, 67
2, 1040448, Note_off_c, 0, 50, 67
2, 1040512, Note_off_c, 0, 50, 67
2, 1040512, Note_on_c, 0, 62, 67
2, 1040576, Note_off_c, 0, 62, 67
2, 1040640, Note_off_c, 0, 62, 67
2, 1040640, Note_on_c, 0, 46, 67
2, 1040704, Note_off_c, 0, 46, 67
2, 1040768, Note_off_c, 0, 46, 67
2, 1040768, Note_on_c, 0, 58, 67
2, 1040832, Note_off_c, 0, 58, 67
2, 1040896, Note_off_c, 0, 58, 67
2, 1040896, Note_on_c, 0, 51, 67
2, 1040960, Note_off_c, 0, 51, 67
2, 1041024, Note_off_c, 0, 51, 67
2, 1041024, Note_on_c, 0, 63, 67
2, 1041088, Note_off_c, 0, 63, 67
2, 1041152, Note_off_c, 0, 63, 67
2, 1041152, Note_on_c, 0, 46, 67
2, 1041216, Note_off_c, 0, 46, 67
2, 1041280, Note_off_c, 0, 46, 67
2, 1041280, Note_on_c, 0, 58, 67
2, 1041344, Note_off_c, 0, 58, 67
2, 1041408, Note_off_c, 0, 58, 67
2, 1041408, Note_on_c, 0, 39, 67
2, 1041472, Note_off_c, 0, 39, 67
2, 1041472, Note_on_c, 0, 46, 67
2, 1041536, Note_off_c, 0, 46, 67
2, 1041536, Note_on_c, 0, 51, 67
2, 1041600, Note_off_c, 0, 51, 67
2, 1041600, Note_on_c, 0, 53, 67
2, 1041664, Note_off_c, 0, 53, 67
2, 1041664, Note_on_c, 0, 55, 67
2, 1041728, Note_off_c, 0, 55, 67
2, 1041728, Note_on_c, 0, 51, 67
2, 1041792, Note_off_c, 0, 51, 67
2, 1041792, Note_on_c, 0, 58, 67
2, 1041856, Note_off_c, 0, 58, 67
2, 1041856, Note_on_c, 0, 63, 67
2, 1041904, Control_c, 0, 93, 0
2, 1041920, Note_off_c, 0, 63, 67
2, 1041920, Note_on_c, 0, 44, 67
2, 1041984, Note_off_c, 0, 44, 67
2, 1041984, Note_on_c, 0, 51, 67
2, 1042048, Note_off_c, 0, 51, 67
2, 1042048, Note_on_c, 0, 56, 67
2, 1042112, Note_off_c, 0, 56, 67
2, 1042112, Note_on_c, 0, 58, 67
2, 1042176, Note_off_c, 0, 58, 67
2, 1042176, Note_on_c, 0, 60, 67
2, 1042240, Note_off_c, 0, 60, 67
2, 1042240, Note_on_c, 0, 56, 67
2, 1042304, Note_off_c, 0, 56, 67
2, 1042304, Note_on_c, 0, 63, 67
2, 1042368, Note_off_c, 0, 63, 67
2, 1042368, Note_on_c, 0, 68, 67
2, 1042416, Control_c, 0, 93, 0
2, 1042432, Note_off_c, 0, 68, 67
2, 1042432, Note_on_c, 0, 46, 67
2, 1042496, Note_off_c, 0, 46, 67
2, 1042496, Note_on_c, 0, 53, 67
2, 1042560, Note_off_c, 0, 53, 67
2, 1042560, Note_on_c, 0, 58, 67
2, 1042624, Note_off_c, 0, 58, 67
2, 1042624, Note_on_c, 0, 60, 67
2, 1042688, Note_off_c, 0, 60, 67
2, 1042688, Note_on_c, 0, 62, 67
2, 1042752, Note_off_c, 0, 62, 67
2, 1042752, Note_on_c, 0, 58, 67
2, 1042816, Note_off_c, 0, 58, 67
2, 1042816, Note_on_c, 0, 65, 67
2, 1042880, Note_off_c, 0, 65, 67
2, 1042880, Note_on_c, 0, 70, 67
2, 1042928, Control_c, 0, 93, 0
2, 1042944, Note_off_c, 0, 70, 67
2, 1042944, Note_on_c, 0, 41, 67
2, 1043008, Note_off_c, 0, 41, 67
2, 1043008, Note_on_c, 0, 44, 67
2, 1043072, Note_off_c, 0, 44, 67
2, 1043072, Control_c, 0, 64, 64
2, 1043072, Note_on_c, 0, 50, 67
2, 1043093, Note_off_c, 0, 50, 67
2, 1043093, Note_on_c, 0, 53, 67
2, 1043114, Note_off_c, 0, 53, 67
2, 1043114, Note_on_c, 0, 58, 67
2, 1043135, Note_off_c, 0, 58, 67
2, 1043136, Control_c, 0, 93, 0
2, 1043136, Note_on_c, 0, 62, 67
2, 1043157, Note_off_c, 0, 62, 67
2, 1043157, Note_on_c, 0, 65, 67
2, 1043178, Note_off_c, 0, 65, 67
2, 1043178, Note_on_c, 0, 70, 67
2, 1043200, Control_c, 0, 93, 0
2, 1043200, Control_c, 0, 64, 0
2, 1043328, Note_off_c, 0, 70, 67
2, 1043328, Note_on_c, 0, 51, 67
2, 1043392, Note_off_c, 0, 51, 67
2, 1043392, Note_on_c, 0, 46, 67
2, 1043456, Note_off_c, 0, 46, 67
2, 1043456, Note_on_c, 0, 39, 67
2, 1043520, Note_off_c, 0, 39, 67
2, 1043520, Note_on_c, 0, 46, 67
2, 1043584, Note_off_c, 0, 46, 67
2, 1043584, Note_on_c, 0, 51, 67
2, 1043648, Note_off_c, 0, 51, 67
2, 1043648, Note_on_c, 0, 53, 67
2, 1043712, Note_off_c, 0, 53, 67
2, 1043712, Note_on_c, 0, 55, 67
2, 1043776, Note_off_c, 0, 55, 67
2, 1043776, Note_on_c, 0, 51, 67
2, 1043840, Note_off_c, 0, 51, 67
2, 1043840, Note_on_c, 0, 58, 67
2, 1043904, Note_off_c, 0, 58, 67
2, 1043904, Note_on_c, 0, 63, 67
2, 1043952, Control_c, 0, 93, 0
2, 1043968, Note_off_c, 0, 63, 67
2, 1043968, Note_on_c, 0, 44, 67
2, 1044032, Note_off_c, 0, 44, 67
2, 1044032, Note_on_c, 0, 51, 67
2, 1044096, Note_off_c, 0, 51, 67
2, 1044096, Note_on_c, 0, 56, 67
2, 1044160, Note_off_c, 0, 56, 67
2, 1044160, Note_on_c, 0, 58, 67
2, 1044224, Note_off_c, 0, 58, 67
2, 1044224, Note_on_c, 0, 60, 67
2, 1044288, Note_off_c, 0, 60, 67
2, 1044288, Note_on_c, 0, 56, 67
2, 1044352, Note_off_c, 0, 56, 67
2, 1044352, Note_on_c, 0, 63, 67
2, 1044416, Note_off_c, 0, 63, 67
2, 1044416, Note_on_c, 0, 68, 67
2, 1044464, Control_c, 0, 93, 0
2, 1044480, Note_off_c, 0, 68, 67
2, 1044480, Note_on_c, 0, 46, 67
2, 1044544, Note_off_c, 0, 46, 67
2, 1044544, Note_on_c, 0, 53, 67
2, 1044608, Note_off_c, 0, 53, 67
2, 1044608, Note_on_c, 0, 58, 67
2, 1044672, Note_off_c, 0, 58, 67
2, 1044672, Note_on_c, 0, 60, 67
2, 1044736, Note_off_c, 0, 60, 67
2, 1044736, Note_on_c, 0, 62, 67
2, 1044800, Note_off_c, 0, 62, 67
2, 1044800, Note_on_c, 0, 58, 67
2, 1044864, Note_off_c, 0, 58, 67
2, 1044864, Note_on_c, 0, 65, 67
2, 1044928, Note_off_c, 0, 65, 67
2, 1044928, Note_on_c, 0, 70, 67
2, 1044976, Control_c, 0, 93, 0
2, 1044992, Note_off_c, 0, 70, 67
2, 1044992, Note_on_c, 0, 39, 67
2, 1045056, Note_off_c, 0, 39, 67
2, 1045056, Note_on_c, 0, 46, 67
2, 1045120, Note_off_c, 0, 46, 67
2, 1045120, Note_on_c, 0, 51, 67
2, 1045184, Note_off_c, 0, 51, 67
2, 1045184, Control_c, 0, 64, 64
2, 1045184, Note_on_c, 0, 55, 67
2, 1045194, Note_off_c, 0, 55, 67
2, 1045194, Note_on_c, 0, 58, 67
2, 1045205, Note_off_c, 0, 58, 67
2, 1045205, Note_on_c, 0, 63, 67
2, 1045215, Note_off_c, 0, 63, 67
2, 1045216, Control_c, 0, 93, 0
2, 1045216, Note_on_c, 0, 67, 67
2, 1045226, Note_off_c, 0, 67, 67
2, 1045226, Note_on_c, 0, 70, 67
2, 1045237, Note_off_c, 0, 70, 67
2, 1045237, Note_on_c, 0, 75, 67
2, 1045247, Note_off_c, 0, 75, 67
2, 1045248, Control_c, 0, 93, 0
2, 1045376, Control_c, 0, 93, 0
2, 1045440, Control_c, 0, 93, 0
2, 1045440, Control_c, 0, 64, 0
2, 1045504, Control_c, 0, 93, 0
2, 1045504, Note_on_c, 0, 51, 67
2, 1045568, Note_off_c, 0, 51, 67
2, 1045632, Note_off_c, 0, 51, 67
2, 1045632, Note_on_c, 0, 63, 67
2, 1045696, Note_off_c, 0, 63, 67
2, 1045760, Note_off_c, 0, 63, 67
2, 1045760, Note_on_c, 0, 50, 67
2, 1045824, Note_off_c, 0, 50, 67
2, 1045888, Note_off_c, 0, 50, 67
2, 1045888, Note_on_c, 0, 62, 67
2, 1045952, Note_off_c, 0, 62, 67
2, 1046016, Note_off_c, 0, 62, 67
2, 1046016, Note_on_c, 0, 48, 67
2, 1046080, Note_off_c, 0, 48, 67
2, 1046144, Note_off_c, 0, 48, 67
2, 1046144, Note_on_c, 0, 60, 67
2, 1046208, Note_off_c, 0, 60, 67
2, 1046272, Note_off_c, 0, 60, 67
2, 1046272, Note_on_c, 0, 46, 67
2, 1046336, Note_off_c, 0, 46, 67
2, 1046400, Note_off_c, 0, 46, 67
2, 1046400, Note_on_c, 0, 58, 67
2, 1046464, Note_off_c, 0, 58, 67
2, 1046528, Note_off_c, 0, 58, 67
2, 1046528, Note_on_c, 0, 51, 67
2, 1046592, Note_off_c, 0, 51, 67
2, 1046656, Note_off_c, 0, 51, 67
2, 1046656, Note_on_c, 0, 63, 67
2, 1046720, Note_off_c, 0, 63, 67
2, 1046784, Note_off_c, 0, 63, 67
2, 1046784, Note_on_c, 0, 46, 67
2, 1046848, Note_off_c, 0, 46, 67
2, 1046912, Note_off_c, 0, 46, 67
2, 1046912, Note_on_c, 0, 58, 67
2, 1046976, Note_off_c, 0, 58, 67
2, 1047040, Note_off_c, 0, 58, 67
2, 1047040, Note_on_c, 0, 48, 67
2, 1047104, Note_off_c, 0, 48, 67
2, 1047168, Note_off_c, 0, 48, 67
2, 1047168, Note_on_c, 0, 60, 67
2, 1047232, Note_off_c, 0, 60, 67
2, 1047296, Note_off_c, 0, 60, 67
2, 1047296, Note_on_c, 0, 46, 67
2, 1047360, Note_off_c, 0, 46, 67
2, 1047424, Note_off_c, 0, 46, 67
2, 1047424, Note_on_c, 0, 58, 67
2, 1047488, Note_off_c, 0, 58, 67
2, 1047552, Note_off_c, 0, 58, 67
2, 1047552, Note_on_c, 0, 50, 67
2, 1047616, Note_off_c, 0, 50, 67
2, 1047680, Note_off_c, 0, 50, 67
2, 1047680, Note_on_c, 0, 62, 67
2, 1047744, Note_off_c, 0, 62, 67
2, 1047808, Note_off_c, 0, 62, 67
2, 1047808, Note_on_c, 0, 46, 67
2, 1047872, Note_off_c, 0, 46, 67
2, 1047936, Note_off_c, 0, 46, 67
2, 1047936, Note_on_c, 0, 58, 67
2, 1048000, Note_off_c, 0, 58, 67
2, 1048064, Note_off_c, 0, 58, 67
2, 1048064, Note_on_c, 0, 48, 67
2, 1048128, Note_off_c, 0, 48, 67
2, 1048192, Note_off_c, 0, 48, 67
2, 1048192, Note_on_c, 0, 60, 67
2, 1048256, Note_off_c, 0, 60, 67
2, 1048320, Note_off_c, 0, 60, 67
2, 1048320, Note_on_c, 0, 49, 67
2, 1048384, Note_off_c, 0, 49, 67
2, 1048448, Note_off_c, 0, 49, 67
2, 1048448, Note_on_c, 0, 61, 67
2, 1048512, Note_off_c, 0, 61, 67
2, 1048576, Note_off_c, 0, 61, 67
2, 1048576, Note_on_c, 0, 50, 67
2, 1048640, Note_off_c, 0, 50, 67
2, 1048704, Note_off_c, 0, 50, 67
2, 1048704, Note_on_c, 0, 62, 67
2, 1048768, Note_off_c, 0, 62, 67
2, 1048832, Note_off_c, 0, 62, 67
2, 1048832, Note_on_c, 0, 46, 67
2, 1048896, Note_off_c, 0, 46, 67
2, 1048960, Note_off_c, 0, 46, 67
2, 1048960, Note_on_c, 0, 58, 67
2, 1049024, Note_off_c, 0, 58, 67
2, 1049088, Note_off_c, 0, 58, 67
2, 1049088, Note_on_c, 0, 51, 67
2, 1049152, Note_off_c, 0, 51, 67
2, 1049216, Note_off_c, 0, 51, 67
2, 1049216, Note_on_c, 0, 63, 67
2, 1049280, Note_off_c, 0, 63, 67
2, 1049344, Note_off_c, 0, 63, 67
2, 1049344, Note_on_c, 0, 46, 67
2, 1049408, Note_off_c, 0, 46, 67
2, 1049472, Note_off_c, 0, 46, 67
2, 1049472, Note_on_c, 0, 58, 67
2, 1049536, Note_off_c, 0, 58, 67
2, 1049600, Note_off_c, 0, 58, 67
2, 1049600, Note_on_c, 0, 51, 67
2, 1049664, Note_off_c, 0, 51, 67
2, 1049728, Note_off_c, 0, 51, 67
2, 1049728, Note_on_c, 0, 63, 67
2, 1049792, Note_off_c, 0, 63, 67
2, 1049856, Note_off_c, 0, 63, 67
2, 1049856, Note_on_c, 0, 50, 67
2, 1049920, Note_off_c, 0, 50, 67
2, 1049984, Note_off_c, 0, 50, 67
2, 1049984, Note_on_c, 0, 62, 67
2, 1050048, Note_off_c, 0, 62, 67
2, 1050112, Note_off_c, 0, 62, 67
2, 1050112, Note_on_c, 0, 48, 67
2, 1050176, Note_off_c, 0, 48, 67
2, 1050240, Note_off_c, 0, 48, 67
2, 1050240, Note_on_c, 0, 60, 67
2, 1050304, Note_off_c, 0, 60, 67
2, 1050368, Note_off_c, 0, 60, 67
2, 1050368, Note_on_c, 0, 46, 67
2, 1050432, Note_off_c, 0, 46, 67
2, 1050496, Note_off_c, 0, 46, 67
2, 1050496, Note_on_c, 0, 58, 67
2, 1050560, Note_off_c, 0, 58, 67
2, 1050624, Note_off_c, 0, 58, 67
2, 1050624, Note_on_c, 0, 51, 67
2, 1050688, Note_off_c, 0, 51, 67
2, 1050752, Note_off_c, 0, 51, 67
2, 1050752, Note_on_c, 0, 63, 67
2, 1050816, Note_off_c, 0, 63, 67
2, 1050880, Note_off_c, 0, 63, 67
2, 1050880, Note_on_c, 0, 46, 67
2, 1050944, Note_off_c, 0, 46, 67
2, 1051008, Note_off_c, 0, 46, 67
2, 1051008, Note_on_c, 0, 58, 67
2, 1051072, Note_off_c, 0, 58, 67
2, 1051136, Note_off_c, 0, 58, 67
2, 1051136, Note_on_c, 0, 48, 67
2, 1051200, Note_off_c, 0, 48, 67
2, 1051264, Note_off_c, 0, 48, 67
2, 1051264, Note_on_c, 0, 60, 67
2, 1051328, Note_off_c, 0, 60, 67
2, 1051392, Note_off_c, 0, 60, 67
2, 1051392, Note_on_c, 0, 46, 67
2, 1051456, Note_off_c, 0, 46, 67
2, 1051520, Note_off_c, 0, 46, 67
2, 1051520, Note_on_c, 0, 58, 67
2, 1051584, Note_off_c, 0, 58, 67
2, 1051648, Note_off_c, 0, 58, 67
2, 1051648, Note_on_c, 0, 50, 67
2, 1051712, Note_off_c, 0, 50, 67
2, 1051776, Note_off_c, 0, 50, 67
2, 1051776, Note_on_c, 0, 62, 67
2, 1051840, Note_off_c, 0, 62, 67
2, 1051904, Note_off_c, 0, 62, 67
2, 1051904, Note_on_c, 0, 48, 67
2, 1051968, Note_off_c, 0, 48, 67
2, 1052032, Note_off_c, 0, 48, 67
2, 1052032, Note_on_c, 0, 60, 67
2, 1052096, Note_off_c, 0, 60, 67
2, 1052160, Note_off_c, 0, 60, 67
2, 1052160, Note_on_c, 0, 46, 67
2, 1052224, Note_off_c, 0, 46, 67
2, 1052288, Note_off_c, 0, 46, 67
2, 1052288, Note_on_c, 0, 58, 67
2, 1052352, Note_off_c, 0, 58, 67
2, 1052416, Note_off_c, 0, 58, 67
2, 1052416, Note_on_c, 0, 48, 67
2, 1052480, Note_off_c, 0, 48, 67
2, 1052544, Note_off_c, 0, 48, 67
2, 1052544, Note_on_c, 0, 60, 67
2, 1052608, Note_off_c, 0, 60, 67
2, 1052672, Note_off_c, 0, 60, 67
2, 1052672, Note_on_c, 0, 50, 67
2, 1052736, Note_off_c, 0, 50, 67
2, 1052800, Note_off_c, 0, 50, 67
2, 1052800, Note_on_c, 0, 62, 67
2, 1052864, Note_off_c, 0, 62, 67
2, 1052928, Note_off_c, 0, 62, 67
2, 1052928, Note_on_c, 0, 46, 67
2, 1052992, Note_off_c, 0, 46, 67
2, 1053056, Note_off_c, 0, 46, 67
2, 1053056, Note_on_c, 0, 58, 67
2, 1053120, Note_off_c, 0, 58, 67
2, 1053184, Note_off_c, 0, 58, 67
2, 1053184, Note_on_c, 0, 51, 67
2, 1053248, Note_off_c, 0, 51, 67
2, 1053312, Note_off_c, 0, 51, 67
2, 1053312, Note_on_c, 0, 63, 67
2, 1053376, Note_off_c, 0, 63, 67
2, 1053440, Note_off_c, 0, 63, 67
2, 1053440, Note_on_c, 0, 46, 67
2, 1053504, Note_off_c, 0, 46, 67
2, 1053568, Note_off_c, 0, 46, 67
2, 1053568, Note_on_c, 0, 58, 67
2, 1053632, Note_off_c, 0, 58, 67
2, 1053696, Note_off_c, 0, 58, 67
2, 1053696, Note_on_c, 0, 39, 67
2, 1053760, Note_off_c, 0, 39, 67
2, 1053760, Note_on_c, 0, 46, 67
2, 1053824, Note_off_c, 0, 46, 67
2, 1053824, Note_on_c, 0, 51, 67
2, 1053888, Note_off_c, 0, 51, 67
2, 1053888, Note_on_c, 0, 53, 67
2, 1053952, Note_off_c, 0, 53, 67
2, 1053952, Note_on_c, 0, 55, 67
2, 1054016, Note_off_c, 0, 55, 67
2, 1054016, Note_on_c, 0, 51, 67
2, 1054080, Note_off_c, 0, 51, 67
2, 1054080, Note_on_c, 0, 58, 67
2, 1054144, Note_off_c, 0, 58, 67
2, 1054144, Note_on_c, 0, 63, 67
2, 1054192, Control_c, 0, 93, 0
2, 1054208, Note_off_c, 0, 63, 67
2, 1054208, Note_on_c, 0, 44, 67
2, 1054272, Note_off_c, 0, 44, 67
2, 1054272, Note_on_c, 0, 51, 67
2, 1054336, Note_off_c, 0, 51, 67
2, 1054336, Note_on_c, 0, 56, 67
2, 1054400, Note_off_c, 0, 56, 67
2, 1054400, Note_on_c, 0, 58, 67
2, 1054464, Note_off_c, 0, 58, 67
2, 1054464, Note_on_c, 0, 60, 67
2, 1054528, Note_off_c, 0, 60, 67
2, 1054528, Note_on_c, 0, 56, 67
2, 1054592, Note_off_c, 0, 56, 67
2, 1054592, Note_on_c, 0, 63, 67
2, 1054656, Note_off_c, 0, 63, 67
2, 1054656, Note_on_c, 0, 68, 67
2, 1054704, Control_c, 0, 93, 0
2, 1054720, Note_off_c, 0, 68, 67
2, 1054720, Note_on_c, 0, 46, 67
2, 1054784, Note_off_c, 0, 46, 67
2, 1054784, Note_on_c, 0, 53, 67
2, 1054848, Note_off_c, 0, 53, 67
2, 1054848, Note_on_c, 0, 58, 67
2, 1054912, Note_off_c, 0, 58, 67
2, 1054912, Note_on_c, 0, 60, 67
2, 1054976, Note_off_c, 0, 60, 67
2, 1054976, Note_on_c, 0, 62, 67
2, 1055040, Note_off_c, 0, 62, 67
2, 1055040, Note_on_c, 0, 58, 67
2, 1055104, Note_off_c, 0, 58, 67
2, 1055104, Note_on_c, 0, 65, 67
2, 1055168, Note_off_c, 0, 65, 67
2, 1055168, Note_on_c, 0, 70, 67
2, 1055216, Control_c, 0, 93, 0
2, 1055232, Note_off_c, 0, 70, 67
2, 1055232, Note_on_c, 0, 41, 67
2, 1055296, Note_off_c, 0, 41, 67
2, 1055296, Note_on_c, 0, 44, 67
2, 1055360, Note_off_c, 0, 44, 67
2, 1055360, Control_c, 0, 64, 64
2, 1055360, Note_on_c, 0, 50, 67
2, 1055381, Note_off_c, 0, 50, 67
2, 1055381, Note_on_c, 0, 53, 67
2, 1055402, Note_off_c, 0, 53, 67
2, 1055402, Note_on_c, 0, 58, 67
2, 1055423, Note_off_c, 0, 58, 67
2, 1055424, Control_c, 0, 93, 0
2, 1055424, Note_on_c, 0, 62, 67
2, 1055445, Note_off_c, 0, 62, 67
2, 1055445, Note_on_c, 0, 65, 67
2, 1055466, Note_off_c, 0, 65, 67
2, 1055466, Note_on_c, 0, 70, 67
2, 1055488, Control_c, 0, 93, 0
2, 1055488, Control_c, 0, 64, 0
2, 1055616, Note_off_c, 0, 70, 67
2, 1055616, Note_on_c, 0, 51, 67
2, 1055680, Note_off_c, 0, 51, 67
2, 1055680, Note_on_c, 0, 46, 67
2, 1055744, Note_off_c, 0, 46, 67
2, 1055744, Note_on_c, 0, 39, 67
2, 1055808, Note_off_c, 0, 39, 67
2, 1055808, Note_on_c, 0, 46, 67
2, 1055872, Note_off_c, 0, 46, 67
2, 1055872, Note_on_c, 0, 51, 67
2, 1055936, Note_off_c, 0, 51, 67
2, 1055936, Note_on_c, 0, 53, 67
2, 1056000, Note_off_c, 0, 53, 67
2, 1056000, Note_on_c, 0, 55, 67
2, 1056064, Note_off_c, 0, 55, 67
2, 1056064, Note_on_c, 0, 51, 67
2, 1056128, Note_off_c, 0, 51, 67
2, 1056128, Note_on_c, 0, 58, 67
2, 1056192, Note_off_c, 0, 58, 67
2, 1056192, Note_on_c, 0, 63, 67
2, 1056240, Control_c, 0, 93, 0
2, 1056256, Note_off_c, 0, 63, 67
2, 1056256, Note_on_c, 0, 44, 67
2, 1056320, Note_off_c, 0, 44, 67
2, 1056320, Note_on_c, 0, 51, 67
2, 1056384, Note_off_c, 0, 51, 67
2, 1056384, Note_on_c, 0, 56, 67
2, 1056448, Note_off_c, 0, 56, 67
2, 1056448, Note_on_c, 0, 58, 67
2, 1056512, Note_off_c, 0, 58, 67
2, 1056512, Note_on_c, 0, 60, 67
2, 1056576, Note_off_c, 0, 60, 67
2, 1056576, Note_on_c, 0, 56, 67
2, 1056640, Note_off_c, 0, 56, 67
2, 1056640, Note_on_c, 0, 63, 67
2, 1056704, Note_off_c, 0, 63, 67
2, 1056704, Note_on_c, 0, 68, 67
2, 1056752, Control_c, 0, 93, 0
2, 1056768, Note_off_c, 0, 68, 67
2, 1056768, Note_on_c, 0, 46, 67
2, 1056832, Note_off_c, 0, 46, 67
2, 1056832, Note_on_c, 0, 53, 67
2, 1056896, Note_off_c, 0, 53, 67
2, 1056896, Note_on_c, 0, 58, 67
2, 1056960, Note_off_c, 0, 58, 67
2, 1056960, Note_on_c, 0, 60, 67
2, 1057024, Note_off_c, 0, 60, 67
2, 1057024, Note_on_c, 0, 62, 67
2, 1057088, Note_off_c, 0, 62, 67
2, 1057088, Note_on_c, 0, 58, 67
2, 1057152, Note_off_c, 0, 58, 67
2, 1057152, Note_on_c, 0, 65, 67
2, 1057216, Note_off_c, 0, 65, 67
2, 1057216, Note_on_c, 0, 70, 67
2, 1057264, Control_c, 0, 93, 0
2, 1057280, Note_off_c, 0, 70, 67
2, 1057280, Note_on_c, 0, 39, 67
2, 1057344, Note_off_c, 0, 39, 67
2, 1057344, Note_on_c, 0, 46, 67
2, 1057408, Note_off_c, 0, 46, 67
2, 1057408, Note_on_c, 0, 51, 67
2, 1057472, Note_off_c, 0, 51, 67
2, 1057472, Control_c, 0, 64, 64
2, 1057472, Note_on_c, 0, 55, 67
2, 1057482, Note_off_c, 0, 55, 67
2, 1057482, Note_on_c, 0, 58, 67
2, 1057493, Note_off_c, 0, 58, 67
2, 1057493, Note_on_c, 0, 63, 67
2, 1057503, Note_off_c, 0, 63, 67
2, 1057504, Control_c, 0, 93, 0
2, 1057504, Note_on_c, 0, 67, 67
2, 1057514, Note_off_c, 0, 67, 67
2, 1057514, Note_on_c, 0, 70, 67
2, 1057525, Note_off_c, 0, 70, 67
2, 1057525, Note_on_c, 0, 75, 67
2, 1057535, Note_off_c, 0, 75, 67
2, 1057536, Control_c, 0, 93, 0
2, 1057664, Control_c, 0, 93, 0
2, 1057728, Control_c, 0, 93, 0
2, 1057728, Control_c, 0, 64, 0
2, 1057792, Control_c, 0, 93, 0
2, 1057792, Note_on_c, 0, 51, 67
2, 1057856, Note_off_c, 0, 51, 67
2, 1057920, Note_off_c, 0, 51, 67
2, 1057920, Note_on_c, 0, 63, 67
2, 1057984, Note_off_c, 0, 63, 67
2, 1058048, Note_off_c, 0, 63, 67
2, 1058048, Note_on_c, 0, 50, 67
2, 1058112, Note_off_c, 0, 50, 67
2, 1058176, Note_off_c, 0, 50, 67
2, 1058176, Note_on_c, 0, 62, 67
2, 1058240, Note_off_c, 0, 62, 67
2, 1058304, Note_off_c, 0, 62, 67
2, 1058304, Note_on_c, 0, 48, 67
2, 1058368, Note_off_c, 0, 48, 67
2, 1058432, Note_off_c, 0, 48, 67
2, 1058432, Note_on_c, 0, 60, 67
2, 1058496, Note_off_c, 0, 60, 67
2, 1058560, Note_off_c, 0, 60, 67
2, 1058560, Note_on_c, 0, 46, 67
2, 1058624, Note_off_c, 0, 46, 67
2, 1058688, Note_off_c, 0, 46, 67
2, 1058688, Note_on_c, 0, 58, 67
2, 1058752, Note_off_c, 0, 58, 67
2, 1058816, Note_off_c, 0, 58, 67
2, 1058816, Note_on_c, 0, 51, 67
2, 1058880, Note_off_c, 0, 51, 67
2, 1058944, Note_off_c, 0, 51, 67
2, 1058944, Note_on_c, 0, 63, 67
2, 1059008, Note_off_c, 0, 63, 67
2, 1059072, Note_off_c, 0, 63, 67
2, 1059072, Note_on_c, 0, 46, 67
2, 1059136, Note_off_c, 0, 46, 67
2, 1059200, Note_off_c, 0, 46, 67
2, 1059200, Note_on_c, 0, 58, 67
2, 1059264, Note_off_c, 0, 58, 67
2, 1059328, Note_off_c, 0, 58, 67
2, 1059328, Note_on_c, 0, 48, 67
2, 1059392, Note_off_c, 0, 48, 67
2, 1059456, Note_off_c, 0, 48, 67
2, 1059456, Note_on_c, 0, 60, 67
2, 1059520, Note_off_c, 0, 60, 67
2, 1059584, Note_off_c, 0, 60, 67
2, 1059584, Note_on_c, 0, 46, 67
2, 1059648, Note_off_c, 0, 46, 67
2, 1059712, Note_off_c, 0, 46, 67
2, 1059712, Note_on_c, 0, 58, 67
2, 1059776, Note_off_c, 0, 58, 67
2, 1059840, Note_off_c, 0, 58, 67
2, 1059840, Note_on_c, 0, 50, 67
2, 1059904, Note_off_c, 0, 50, 67
2, 1059968, Note_off_c, 0, 50, 67
2, 1059968, Note_on_c, 0, 62, 67
2, 1060032, Note_off_c, 0, 62, 67
2, 1060096, Note_off_c, 0, 62, 67
2, 1060096, Note_on_c, 0, 46, 67
2, 1060160, Note_off_c, 0, 46, 67
2, 1060224, Note_off_c, 0, 46, 67
2, 1060224, Note_on_c, 0, 58, 67
2, 1060288, Note_off_c, 0, 58, 67
2, 1060352, Note_off_c, 0, 58, 67
2, 1060352, Note_on_c, 0, 48, 67
2, 1060416, Note_off_c, 0, 48, 67
2, 1060480, Note_off_c, 0, 48, 67
2, 1060480, Note_on_c, 0, 60, 67
2, 1060544, Note_off_c, 0, 60, 67
2, 1060608, Note_off_c, 0, 60, 67
2, 1060608, Note_on_c, 0, 49, 67
2, 1060672, Note_off_c, 0, 49, 67
2, 1060736, Note_off_c, 0, 49, 67
2, 1060736, Note_on_c, 0, 61, 67
2, 1060800, Note_off_c, 0, 61, 67
2, 1060864, Note_off_c, 0, 61, 67
2, 1060864, Note_on_c, 0, 50, 67
2, 1060928, Note_off_c, 0, 50, 67
2, 1060992, Note_off_c, 0, 50, 67
2, 1060992, Note_on_c, 0, 62, 67
2, 1061056, Note_off_c, 0, 62, 67
2, 1061120, Note_off_c, 0, 62, 67
2, 1061120, Note_on_c, 0, 46, 67
2, 1061184, Note_off_c, 0, 46, 67
2, 1061248, Note_off_c, 0, 46, 67
2, 1061248, Note_on_c, 0, 58, 67
2, 1061312, Note_off_c, 0, 58, 67
2, 1061376, Note_off_c, 0, 58, 67
2, 1061376, Note_on_c, 0, 51, 67
2, 1061440, Note_off_c, 0, 51, 67
2, 1061504, Note_off_c, 0, 51, 67
2, 1061504, Note_on_c, 0, 63, 67
2, 1061568, Note_off_c, 0, 63, 67
2, 1061632, Note_off_c, 0, 63, 67
2, 1061632, Note_on_c, 0, 46, 67
2, 1061696, Note_off_c, 0, 46, 67
2, 1061760, Note_off_c, 0, 46, 67
2, 1061760, Note_on_c, 0, 58, 67
2, 1061824, Note_off_c, 0, 58, 67
2, 1061888, Note_off_c, 0, 58, 67
2, 1061888, Note_on_c, 0, 51, 67
2, 1061952, Note_off_c, 0, 51, 67
2, 1062016, Note_off_c, 0, 51, 67
2, 1062016, Note_on_c, 0, 63, 67
2, 1062080, Note_off_c, 0, 63, 67
2, 1062144, Note_off_c, 0, 63, 67
2, 1062144, Note_on_c, 0, 50, 67
2, 1062208, Note_off_c, 0, 50, 67
2, 1062272, Note_off_c, 0, 50, 67
2, 1062272, Note_on_c, 0, 62, 67
2, 1062336, Note_off_c, 0, 62, 67
2, 1062400, Note_off_c, 0, 62, 67
2, 1062400, Note_on_c, 0, 48, 67
2, 1062464, Note_off_c, 0, 48, 67
2, 1062528, Note_off_c, 0, 48, 67
2, 1062528, Note_on_c, 0, 60, 67
2, 1062592, Note_off_c, 0, 60, 67
2, 1062656, Note_off_c, 0, 60, 67
2, 1062656, Note_on_c, 0, 46, 67
2, 1062720, Note_off_c, 0, 46, 67
2, 1062784, Note_off_c, 0, 46, 67
2, 1062784, Note_on_c, 0, 58, 67
2, 1062848, Note_off_c, 0, 58, 67
2, 1062912, Note_off_c, 0, 58, 67
2, 1062912, Note_on_c, 0, 51, 67
2, 1062976, Note_off_c, 0, 51, 67
2, 1063040, Note_off_c, 0, 51, 67
2, 1063040, Note_on_c, 0, 63, 67
2, 1063104, Note_off_c, 0, 63, 67
2, 1063168, Note_off_c, 0, 63, 67
2, 1063168, Note_on_c, 0, 46, 67
2, 1063232, Note_off_c, 0, 46, 67
2, 1063296, Note_off_c, 0, 46, 67
2, 1063296, Note_on_c, 0, 58, 67
2, 1063360, Note_off_c, 0, 58, 67
2, 1063424, Note_off_c, 0, 58, 67
2, 1063424, Note_on_c, 0, 48, 67
2, 1063488, Note_off_c, 0, 48, 67
2, 1063552, Note_off_c, 0, 48, 67
2, 1063552, Note_on_c, 0, 60, 67
2, 1063616, Note_off_c, 0, 60, 67
2, 1063680, Note_off_c, 0, 60, 67
2, 1063680, Note_on_c, 0, 46, 67
2, 1063744, Note_off_c, 0, 46, 67
2, 1063808, Note_off_c, 0, 46, 67
2, 1063808, Note_on_c, 0, 58, 67
2, 1063872, Note_off_c, 0, 58, 67
2, 1063936, Note_off_c, 0, 58, 67
2, 1063936, Note_on_c, 0, 50, 67
2, 1064000, Note_off_c, 0, 50, 67
2, 1064064, Note_off_c, 0, 50, 67
2, 1064064, Note_on_c, 0, 62, 67
2, 1064128, Note_off_c, 0, 62, 67
2, 1064192, Note_off_c, 0, 62, 67
2, 1064192, Note_on_c, 0, 48, 67
2, 1064256, Note_off_c, 0, 48, 67
2, 1064320, Note_off_c, 0, 48, 67
2, 1064320, Note_on_c, 0, 60, 67
2, 1064384, Note_off_c, 0, 60, 67
2, 1064448, Note_off_c, 0, 60, 67
2, 1064448, Note_on_c, 0, 46, 67
2, 1064512, Note_off_c, 0, 46, 67
2, 1064576, Note_off_c, 0, 46, 67
2, 1064576, Note_on_c, 0, 58, 67
2, 1064640, Note_off_c, 0, 58, 67
2, 1064704, Note_off_c, 0, 58, 67
2, 1064704, Note_on_c, 0, 48, 67
2, 1064768, Note_off_c, 0, 48, 67
2, 1064832, Note_off_c, 0, 48, 67
2, 1064832, Note_on_c, 0, 60, 67
2, 1064896, Note_off_c, 0, 60, 67
2, 1064960, Note_off_c, 0, 60, 67
2, 1064960, Note_on_c, 0, 50, 67
2, 1065024, Note_off_c, 0, 50, 67
2, 1065088, Note_off_c, 0, 50, 67
2, 1065088, Note_on_c, 0, 62, 67
2, 1065152, Note_off_c, 0, 62, 67
2, 1065216, Note_off_c, 0, 62, 67
2, 1065216, Note_on_c, 0, 46, 67
2, 1065280, Note_off_c, 0, 46, 67
2, 1065344, Note_off_c, 0, 46, 67
2, 1065344, Note_on_c, 0, 58, 67
2, 1065408, Note_off_c, 0, 58, 67
2, 1065472, Note_off_c, 0, 58, 67
2, 1065472, Note_on_c, 0, 51, 67
2, 1065536, Note_off_c, 0, 51, 67
2, 1065600, Note_off_c, 0, 51, 67
2, 1065600, Note_on_c, 0, 63, 67
2, 1065664, Note_off_c, 0, 63, 67
2, 1065728, Note_off_c, 0, 63, 67
2, 1065728, Note_on_c, 0, 46, 67
2, 1065792, Note_off_c, 0, 46, 67
2, 1065856, Note_off_c, 0, 46, 67
2, 1065856, Note_on_c, 0, 58, 67
2, 1065920, Note_off_c, 0, 58, 67
2, 1065984, Note_off_c, 0, 58, 67
2, 1065984, Note_on_c, 0, 39, 67
2, 1066048, Note_off_c, 0, 39, 67
2, 1066048, Note_on_c, 0, 46, 67
2, 1066112, Note_off_c, 0, 46, 67
2, 1066112, Note_on_c, 0, 51, 67
2, 1066176, Note_off_c, 0, 51, 67
2, 1066176, Note_on_c, 0, 53, 67
2, 1066240, Note_off_c, 0, 53, 67
2, 1066240, Note_on_c, 0, 55, 67
2, 1066304, Note_off_c, 0, 55, 67
2, 1066304, Note_on_c, 0, 51, 67
2, 1066368, Note_off_c, 0, 51, 67
2, 1066368, Note_on_c, 0, 58, 67
2, 1066432, Note_off_c, 0, 58, 67
2, 1066432, Note_on_c, 0, 63, 67
2, 1066480, Control_c, 0, 93, 0
2, 1066496, Note_off_c, 0, 63, 67
2, 1066496, Note_on_c, 0, 44, 67
2, 1066560, Note_off_c, 0, 44, 67
2, 1066560, Note_on_c, 0, 51, 67
2, 1066624, Note_off_c, 0, 51, 67
2, 1066624, Note_on_c, 0, 56, 67
2, 1066688, Note_off_c, 0, 56, 67
2, 1066688, Note_on_c, 0, 58, 67
2, 1066752, Note_off_c, 0, 58, 67
2, 1066752, Note_on_c, 0, 60, 67
2, 1066816, Note_off_c, 0, 60, 67
2, 1066816, Note_on_c, 0, 56, 67
2, 1066880, Note_off_c, 0, 56, 67
2, 1066880, Note_on_c, 0, 63, 67
2, 1066944, Note_off_c, 0, 63, 67
2, 1066944, Note_on_c, 0, 68, 67
2, 1066992, Control_c, 0, 93, 0
2, 1067008, Note_off_c, 0, 68, 67
2, 1067008, Note_on_c, 0, 46, 67
2, 1067072, Note_off_c, 0, 46, 67
2, 1067072, Note_on_c, 0, 53, 67
2, 1067136, Note_off_c, 0, 53, 67
2, 1067136, Note_on_c, 0, 58, 67
2, 1067200, Note_off_c, 0, 58, 67
2, 1067200, Note_on_c, 0, 60, 67
2, 1067264, Note_off_c, 0, 60, 67
2, 1067264, Note_on_c, 0, 62, 67
2, 1067328, Note_off_c, 0, 62, 67
2, 1067328, Note_on_c, 0, 58, 67
2, 1067392, Note_off_c, 0, 58, 67
2, 1067392, Note_on_c, 0, 65, 67
2, 1067456, Note_off_c, 0, 65, 67
2, 1067456, Note_on_c, 0, 70, 67
2, 1067504, Control_c, 0, 93, 0
2, 1067520, Note_off_c, 0, 70, 67
2, 1067520, Note_on_c, 0, 41, 67
2, 1067584, Note_off_c, 0, 41, 67
2, 1067584, Note_on_c, 0, 44, 67
2, 1067648, Note_off_c, 0, 44, 67
2, 1067648, Control_c, 0, 64, 64
2, 1067648, Note_on_c, 0, 50, 67
2, 1067669, Note_off_c, 0, 50, 67
2, 1067669, Note_on_c, 0, 53, 67
2, 1067690, Note_off_c, 0, 53, 67
2, 1067690, Note_on_c, 0, 58, 67
2, 1067711, Note_off_c, 0, 58, 67
2, 1067712, Control_c, 0, 93, 0
2, 1067712, Note_on_c, 0, 62, 67
2, 1067733, Note_off_c, 0, 62, 67
2, 1067733, Note_on_c, 0, 65, 67
2, 1067754, Note_off_c, 0, 65, 67
2, 1067754, Note_on_c, 0, 70, 67
2, 1067776, Control_c, 0, 93, 0
2, 1067776, Control_c, 0, 64, 0
2, 1067904, Note_off_c, 0, 70, 67
2, 1067904, Note_on_c, 0, 51, 67
2, 1067968, Note_off_c, 0, 51, 67
2, 1067968, Note_on_c, 0, 46, 67
2, 1068032, Note_off_c, 0, 46, 67
2, 1068032, Note_on_c, 0, 39, 67
2, 1068096, Note_off_c, 0, 39, 67
2, 1068096, Note_on_c, 0, 46, 67
2, 1068160, Note_off_c, 0, 46, 67
2, 1068160, Note_on_c, 0, 51, 67
2, 1068224, Note_off_c, 0, 51, 67
2, 1068224, Note_on_c, 0, 53, 67
2, 1068288, Note_off_c, 0, 53, 67
2, 1068288, Note_on_c, 0, 55, 67
2, 1068352, Note_off_c, 0, 55, 67
2, 1068352, Note_on_c, 0, 51, 67
2, 1068416, Note_off_c, 0, 51, 67
2, 1068416, Note_on_c, 0, 58, 67
2, 1068480, Note_off_c, 0, 58, 67
2, 1068480, Note_on_c, 0, 63, 67
2, 1068528, Control_c, 0, 93, 0
2, 1068544, Note_off_c, 0, 63, 67
2, 1068544, Note_on_c, 0, 44, 67
2, 1068608, Note_off_c, 0, 44, 67
2, 1068608, Note_on_c, 0, 51, 67
2, 1068672, Note_off_c, 0, 51, 67
2, 1068672, Note_on_c, 0, 56, 67
2, 1068736, Note_off_c, 0, 56, 67
2, 1068736, Note_on_c, 0, 58, 67
2, 1068800, Note_off_c, 0, 58, 67
2, 1068800, Note_on_c, 0, 60, 67
2, 1068864, Note_off_c, 0, 60, 67
2, 1068864, Note_on_c, 0, 56, 67
2, 1068928, Note_off_c, 0, 56, 67
2, 1068928, Note_on_c, 0, 63, 67
2, 1068992, Note_off_c, 0, 63, 67
2, 1068992, Note_on_c, 0, 68, 67
2, 1069040, Control_c, 0, 93, 0
2, 1069056, Note_off_c, 0, 68, 67
2, 1069056, Note_on_c, 0, 46, 67
2, 1069120, Note_off_c, 0, 46, 67
2, 1069120, Note_on_c, 0, 53, 67
2, 1069184, Note_off_c, 0, 53, 67
2, 1069184, Note_on_c, 0, 58, 67
2, 1069248, Note_off_c, 0, 58, 67
2, 1069248, Note_on_c, 0, 60, 67
2, 1069312, Note_off_c, 0, 60, 67
2, 1069312, Note_on_c, 0, 62, 67
2, 1069376, Note_off_c, 0, 62, 67
2, 1069376, Note_on_c, 0, 58, 67
2, 1069440, Note_off_c, 0, 58, 67
2, 1069440, Note_on_c, 0, 65, 67
2, 1069504, Note_off_c, 0, 65, 67
2, 1069504, Note_on_c, 0, 70, 67
2, 1069552, Control_c, 0, 93, 0
2, 1069568, Note_off_c, 0, 70, 67
2, 1069568, Note_on_c, 0, 39, 67
2, 1069632, Note_off_c, 0, 39, 67
2, 1069632, Note_on_c, 0, 46, 67
2, 1069696, Note_off_c, 0, 46, 67
2, 1069696, Note_on_c, 0, 51, 67
2, 1069760, Note_off_c, 0, 51, 67
2, 1069760, Control_c, 0, 64, 64
2, 1069760, Note_on_c, 0, 55, 67
2, 1069770, Note_off_c, 0, 55, 67
2, 1069770, Note_on_c, 0, 58, 67
2, 1069781, Note_off_c, 0, 58, 67
2, 1069781, Note_on_c, 0, 63, 67
2, 1069791, Note_off_c, 0, 63, 67
2, 1069792, Control_c, 0, 93, 0
2, 1069792, Note_on_c, 0, 67, 67
2, 1069802, Note_off_c, 0, 67, 67
2, 1069802, Note_on_c, 0, 70, 67
2, 1069813, Note_off_c, 0, 70, 67
2, 1069813, Note_on_c, 0, 75, 67
2, 1069823, Note_off_c, 0, 75, 67
2, 1069824, Control_c, 0, 93, 0
2, 1069952, Control_c, 0, 93, 0
2, 1070016, Control_c, 0, 93, 0
2, 1070016, Control_c, 0, 64, 0
2, 1070080, Control_c, 0, 93, 0
2, 1070080, Note_on_c, 0, 51, 67
2, 1070144, Note_off_c, 0, 51, 67
2, 1070208, Note_off_c, 0, 51, 67
2, 1070208, Note_on_c, 0, 63, 67
2, 1070272, Note_off_c, 0, 63, 67
2, 1070336, Note_off_c, 0, 63, 67
2, 1070336, Note_on_c, 0, 50, 67
2, 1070400, Note_off_c, 0, 50, 67
2, 1070464, Note_off_c, 0, 50, 67
2, 1070464, Note_on_c, 0, 62, 67
2, 1070528, Note_off_c, 0, 62, 67
2, 1070592, Note_off_c, 0, 62, 67
2, 1070592, Note_on_c, 0, 48, 67
2, 1070656, Note_off_c, 0, 48, 67
2, 1070720, Note_off_c, 0, 48, 67
2, 1070720, Note_on_c, 0, 60, 67
2, 1070784, Note_off_c, 0, 60, 67
2, 1070848, Note_off_c, 0, 60, 67
2, 1070848, Note_on_c, 0, 46, 67
2, 1070912, Note_off_c, 0, 46, 67
2, 1070976, Note_off_c, 0, 46, 67
2, 1070976, Note_on_c, 0, 58, 67
2, 1071040, Note_off_c, 0, 58, 67
2, 1071104, Note_off_c, 0, 58, 67
2, 1071104, Note_on_c, 0, 51, 67
2, 1071168, Note_off_c, 0, 51, 67
2, 1071232, Note_off_c, 0, 51, 67
2, 1071232, Note_on_c, 0, 63, 67
2, 1071296, Note_off_c, 0, 63, 67
2, 1071360, Note_off_c, 0, 63, 67
2, 1071360, Note_on_c, 0, 46, 67
2, 1071424, Note_off_c, 0, 46, 67
2, 1071488, Note_off_c, 0, 46, 67
2, 1071488, Note_on_c, 0, 58, 67
2, 1071552, Note_off_c, 0, 58, 67
2, 1071616, Note_off_c, 0, 58, 67
2, 1071616, Note_on_c, 0, 48, 67
2, 1071680, Note_off_c, 0, 48, 67
2, 1071744, Note_off_c, 0, 48, 67
2, 1071744, Note_on_c, 0, 60, 67
2, 1071808, Note_off_c, 0, 60, 67
2, 1071872, Note_off_c, 0, 60, 67
2, 1071872, Note_on_c, 0, 46, 67
2, 1071936, Note_off_c, 0, 46, 67
2, 1072000, Note_off_c, 0, 46, 67
2, 1072000, Note_on_c, 0, 58, 67
2, 1072064, Note_off_c, 0, 58, 67
2, 1072128, Note_off_c, 0, 58, 67
2, 1072128, Note_on_c, 0, 50, 67
2, 1072192, Note_off_c, 0, 50, 67
2, 1072256, Note_off_c, 0, 50, 67
2, 1072256, Note_on_c, 0, 62, 67
2, 1072320, Note_off_c, 0, 62, 67
2, 1072384, Note_off_c, 0, 62, 67
2, 1072384, Note_on_c, 0, 46, 67
2, 1072448, Note_off_c, 0, 46, 67
2, 1072512, Note_off_c, 0, 46, 67
2, 1072512, Note_on_c, 0, 58, 67
2, 1072576, Note_off_c, 0, 58, 67
2, 1072640, Note_off_c, 0, 58, 67
2, 1072640, Note_on_c, 0, 48, 67
2, 1072704, Note_off_c, 0, 48, 67
2, 1072768, Note_off_c, 0, 48, 67
2, 1072768, Note_on_c, 0, 60, 67
2, 1072832, Note_off_c, 0, 60, 67
2, 1072896, Note_off_c, 0, 60, 67
2, 1072896, Note_on_c, 0, 49, 67
2, 1072960, Note_off_c, 0, 49, 67
2, 1073024, Note_off_c, 0, 49, 67
2, 1073024, Note_on_c, 0, 61, 67
2, 1073088, Note_off_c, 0, 61, 67
2, 1073152, Note_off_c, 0, 61, 67
2, 1073152, Note_on_c, 0, 50, 67
2, 1073216, Note_off_c, 0, 50, 67
2, 1073280, Note_off_c, 0, 50, 67
2, 1073280, Note_on_c, 0, 62, 67
2, 1073344, Note_off_c, 0, 62, 67
2, 1073408, Note_off_c, 0, 62, 67
2, 1073408, Note_on_c, 0, 46, 67
2, 1073472, Note_off_c, 0, 46, 67
2, 1073536, Note_off_c, 0, 46, 67
2, 1073536, Note_on_c, 0, 58, 67
2, 1073600, Note_off_c, 0, 58, 67
2, 1073664, Note_off_c, 0, 58, 67
2, 1073664, Note_on_c, 0, 51, 67
2, 1073728, Note_off_c, 0, 51, 67
2, 1073792, Note_off_c, 0, 51, 67
2, 1073792, Note_on_c, 0, 63, 67
2, 1073856, Note_off_c, 0, 63, 67
2, 1073920, Note_off_c, 0, 63, 67
2, 1073920, Note_on_c, 0, 46, 67
2, 1073984, Note_off_c, 0, 46, 67
2, 1074048, Note_off_c, 0, 46, 67
2, 1074048, Note_on_c, 0, 58, 67
2, 1074112, Note_off_c, 0, 58, 67
2, 1074176, Note_off_c, 0, 58, 67
2, 1074176, Note_on_c, 0, 51, 67
2, 1074240, Note_off_c, 0, 51, 67
2, 1074304, Note_off_c, 0, 51, 67
2, 1074304, Note_on_c, 0, 63, 67
2, 1074368, Note_off_c, 0, 63, 67
2, 1074432, Note_off_c, 0, 63, 67
2, 1074432, Note_on_c, 0, 50, 67
2, 1074496, Note_off_c, 0, 50, 67
2, 1074560, Note_off_c, 0, 50, 67
2, 1074560, Note_on_c, 0, 62, 67
2, 1074624, Note_off_c, 0, 62, 67
2, 1074688, Note_off_c, 0, 62, 67
2, 1074688, Note_on_c, 0, 48, 67
2, 1074752, Note_off_c, 0, 48, 67
2, 1074816, Note_off_c, 0, 48, 67
2, 1074816, Note_on_c, 0, 60, 67
2, 1074880, Note_off_c, 0, 60, 67
2, 1074944, Note_off_c, 0, 60, 67
2, 1074944, Note_on_c, 0, 46, 67
2, 1075008, Note_off_c, 0, 46, 67
2, 1075072, Note_off_c, 0, 46, 67
2, 1075072, Note_on_c, 0, 58, 67
2, 1075136, Note_off_c, 0, 58, 67
2, 1075200, Note_off_c, 0, 58, 67
2, 1075200, Note_on_c, 0, 51, 67
2, 1075264, Note_off_c, 0, 51, 67
2, 1075328, Note_off_c, 0, 51, 67
2, 1075328, Note_on_c, 0, 63, 67
2, 1075392, Note_off_c, 0, 63, 67
2, 1075456, Note_off_c, 0, 63, 67
2, 1075456, Note_on_c, 0, 46, 67
2, 1075520, Note_off_c, 0, 46, 67
2, 1075584, Note_off_c, 0, 46, 67
2, 1075584, Note_on_c, 0, 58, 67
2, 1075648, Note_off_c, 0, 58, 67
2, 1075712, Note_off_c, 0, 58, 67
2, 1075712, Note_on_c, 0, 48, 67
2, 1075776, Note_off_c, 0, 48, 67
2, 1075840, Note_off_c, 0, 48, 67
2, 1075840, Note_on_c, 0, 60, 67
2, 1075904, Note_off_c, 0, 60, 67
2, 1075968, Note_off_c, 0, 60, 67
2, 1075968, Note_on_c, 0, 46, 67
2, 1076032, Note_off_c, 0, 46, 67
2, 1076096, Note_off_c, 0, 46, 67
2, 1076096, Note_on_c, 0, 58, 67
2, 1076160, Note_off_c, 0, 58, 67
2, 1076224, Note_off_c, 0, 58, 67
2, 1076224, Note_on_c, 0, 50, 67
2, 1076288, Note_off_c, 0, 50, 67
2, 1076352, Note_off_c, 0, 50, 67
2, 1076352, Note_on_c, 0, 62, 67
2, 1076416, Note_off_c, 0, 62, 67
2, 1076480, Note_off_c, 0, 62, 67
2, 1076480, Note_on_c, 0, 48, 67
2, 1076544, Note_off_c, 0, 48, 67
2, 1076608, Note_off_c, 0, 48, 67
2, 1076608, Note_on_c, 0, 60, 67
2, 1076672, Note_off_c, 0, 60, 67
2, 1076736, Note_off_c, 0, 60, 67
2, 1076736, Note_on_c, 0, 46, 67
2, 1076800, Note_off_c, 0, 46, 67
2, 1076864, Note_off_c, 0, 46, 67
2, 1076864, Note_on_c, 0, 58, 67
2, 1076928, Note_off_c, 0, 58, 67
2, 1076992, Note_off_c, 0, 58, 67
2, 1076992, Note_on_c, 0, 48, 67
2, 1077056, Note_off_c, 0, 48, 67
2, 1077120, Note_off_c, 0, 48, 67
2, 1077120, Note_on_c, 0, 60, 67
2, 1077184, Note_off_c, 0, 60, 67
2, 1077248, Note_off_c, 0, 60, 67
2, 1077248, Note_on_c, 0, 50, 67
2, 1077312, Note_off_c, 0, 50, 67
2, 1077376, Note_off_c, 0, 50, 67
2, 1077376, Note_on_c, 0, 62, 67
2, 1077440, Note_off_c, 0, 62, 67
2, 1077504, Note_off_c, 0, 62, 67
2, 1077504, Note_on_c, 0, 46, 67
2, 1077568, Note_off_c, 0, 46, 67
2, 1077632, Note_off_c, 0, 46, 67
2, 1077632, Note_on_c, 0, 58, 67
2, 1077696, Note_off_c, 0, 58, 67
2, 1077760, Note_off_c, 0, 58, 67
2, 1077760, Note_on_c, 0, 51, 67
2, 1077824, Note_off_c, 0, 51, 67
2, 1077888, Note_off_c, 0, 51, 67
2, 1077888, Note_on_c, 0, 63, 67
2, 1077952, Note_off_c, 0, 63, 67
2, 1078016, Note_off_c, 0, 63, 67
2, 1078016, Note_on_c, 0, 46, 67
2, 1078080, Note_off_c, 0, 46, 67
2, 1078144, Note_off_c, 0, 46, 67
2, 1078144, Note_on_c, 0, 58, 67
2, 1078208, Note_off_c, 0, 58, 67
2, 1078272, Note_off_c, 0, 58, 67
2, 1078272, Note_on_c, 0, 39, 67
2, 1078336, Note_off_c, 0, 39, 67
2, 1078336, Note_on_c, 0, 46, 67
2, 1078400, Note_off_c, 0, 46, 67
2, 1078400, Note_on_c, 0, 51, 67
2, 1078464, Note_off_c, 0, 51, 67
2, 1078464, Note_on_c, 0, 53, 67
2, 1078528, Note_off_c, 0, 53, 67
2, 1078528, Note_on_c, 0, 55, 67
2, 1078592, Note_off_c, 0, 55, 67
2, 1078592, Note_on_c, 0, 51, 67
2, 1078656, Note_off_c, 0, 51, 67
2, 1078656, Note_on_c, 0, 58, 67
2, 1078720, Note_off_c, 0, 58, 67
2, 1078720, Note_on_c, 0, 63, 67
2, 1078768, Control_c, 0, 93, 0
2, 1078784, Note_off_c, 0, 63, 67
2, 1078784, Note_on_c, 0, 44, 67
2, 1078848, Note_off_c, 0, 44, 67
2, 1078848, Note_on_c, 0, 51, 67
2, 1078912, Note_off_c, 0, 51, 67
2, 1078912, Note_on_c, 0, 56, 67
2, 1078976, Note_off_c, 0, 56, 67
2, 1078976, Note_on_c, 0, 58, 67
2, 1079040, Note_off_c, 0, 58, 67
2, 1079040, Note_on_c, 0, 60, 67
2, 1079104, Note_off_c, 0, 60, 67
2, 1079104, Note_on_c, 0, 56, 67
2, 1079168, Note_off_c, 0, 56, 67
2, 1079168, Note_on_c, 0, 63, 67
2, 1079232, Note_off_c, 0, 63, 67
2, 1079232, Note_on_c, 0, 68, 67
2, 1079280, Control_c, 0, 93, 0
2, 1079296, Note_off_c, 0, 68, 67
2, 1079296, Note_on_c, 0, 46, 67
2, 1079360, Note_off_c, 0, 46, 67
2, 1079360, Note_on_c, 0, 53, 67
2, 1079424, Note_off_c, 0, 53, 67
2, 1079424, Note_on_c, 0, 58, 67
2, 1079488, Note_off_c, 0, 58, 67
2, 1079488, Note_on_c, 0, 60, 67
2, 1079552, Note_off_c, 0, 60, 67
2, 1079552, Note_on_c, 0, 62, 67
2, 1079616, Note_off_c, 0, 62, 67
2, 1079616, Note_on_c, 0, 58, 67
2, 1079680, Note_off_c, 0, 58, 67
2, 1079680, Note_on_c, 0, 65, 67
2, 1079744, Note_off_c, 0, 65, 67
2, 1079744, Note_on_c, 0, 70, 67
2, 1079792, Control_c, 0, 93, 0
2, 1079808, Note_off_c, 0, 70, 67
2, 1079808, Note_on_c, 0, 41, 67
2, 1079872, Note_off_c, 0, 41, 67
2, 1079872, Note_on_c, 0, 44, 67
2, 1079936, Note_off_c, 0, 44, 67
2, 1079936, Control_c, 0, 64, 64
2, 1079936, Note_on_c, 0, 50, 67
2, 1079957, Note_off_c, 0, 50, 67
2, 1079957, Note_on_c, 0, 53, 67
2, 1079978, Note_off_c, 0, 53, 67
2, 1079978, Note_on_c, 0, 58, 67
2, 1079999, Note_off_c, 0, 58, 67
2, 1080000, Control_c, 0, 93, 0
2, 1080000, Note_on_c, 0, 62, 67
2, 1080021, Note_off_c, 0, 62, 67
2, 1080021, Note_on_c, 0, 65, 67
2, 1080042, Note_off_c, 0, 65, 67
2, 1080042, Note_on_c, 0, 70, 67
2, 1080064, Control_c, 0, 93, 0
2, 1080064, Control_c, 0, 64, 0
2, 1080192, Note_off_c, 0, 70, 67
2, 1080192, Note_on_c, 0, 51, 67
2, 1080256, Note_off_c, 0, 51, 67
2, 1080256, Note_on_c, 0, 46, 67
2, 1080320, Note_off_c, 0, 46, 67
2, 1080320, Note_on_c, 0, 39, 67
2, 1080384, Note_off_c, 0, 39, 67
2, 1080384, Note_on_c, 0, 46, 67
2, 1080448, Note_off_c, 0, 46, 67
2, 1080448, Note_on_c, 0, 51, 67
2, 1080512, Note_off_c, 0, 51, 67
2, 1080512, Note_on_c, 0, 53, 67
2, 1080576, Note_off_c, 0, 53, 67
2, 1080576, Note_on_c, 0, 55, 67
2, 1080640, Note_off_c, 0, 55, 67
2, 1080640, Note_on_c, 0, 51, 67
2, 1080704, Note_off_c, 0, 51, 67
2, 1080704, Note_on_c, 0, 58, 67
2, 1080768, Note_off_c, 0, 58, 67
2, 1080768, Note_on_c, 0, 63, 67
2, 1080816, Control_c, 0, 93, 0
2, 1080832, Note_off_c, 0, 63, 67
2, 1080832, Note_on_c, 0, 44, 67
2, 1080896, Note_off_c, 0, 44, 67
2, 1080896, Note_on_c, 0, 51, 67
2, 1080960, Note_off_c, 0, 51, 67
2, 1080960, Note_on_c, 0, 56, 67
2, 1081024, Note_off_c, 0, 56, 67
2, 1081024, Note_on_c, 0, 58, 67
2, 1081088, Note_off_c, 0, 58, 67
2, 1081088, Note_on_c, 0, 60, 67
2, 1081152, Note_off_c, 0, 60, 67
2, 1081152, Note_on_c, 0, 56, 67
2, 1081216, Note_off_c, 0, 56, 67
2, 1081216, Note_on_c, 0, 63, 67
2, 1081280, Note_off_c, 0, 63, 67
2, 1081280, Note_on_c, 0, 68, 67
2, 1081328, Control_c, 0, 93, 0
2, 1081344, Note_off_c, 0, 68, 67
2, 1081344, Note_on_c, 0, 46, 67
2, 1081408, Note_off_c, 0, 46, 67
2, 1081408, Note_on_c, 0, 53, 67
2, 1081472, Note_off_c, 0, 53, 67
2, 1081472, Note_on_c, 0, 58, 67
2, 1081536, Note_off_c, 0, 58, 67
2, 1081536, Note_on_c, 0, 60, 67
2, 1081600, Note_off_c, 0, 60, 67
2, 1081600, Note_on_c, 0, 62, 67
2, 1081664, Note_off_c, 0, 62, 67
2, 1081664, Note_on_c, 0, 58, 67
2, 1081728, Note_off_c, 0, 58, 67
2, 1081728, Note_on_c, 0, 65, 67
2, 1081792, Note_off_c, 0, 65, 67
2, 1081792, Note_on_c, 0, 70, 67
2, 1081840, Control_c, 0, 93, 0
2, 1081856, Note_off_c, 0, 70, 67
2, 1081856, Note_on_c, 0, 39, 67
2, 1081920, Note_off_c, 0, 39, 67
2, 1081920, Note_on_c, 0, 46, 67
2, 1081984, Note_off_c, 0, 46, 67
2, 1081984, Note_on_c, 0, 51, 67
2, 1082048, Note_off_c, 0, 51, 67
2, 1082048, Control_c, 0, 64, 64
2, 1082048, Note_on_c, 0, 55, 67
2, 1082058, Note_off_c, 0, 55, 67
2, 1082058, Note_on_c, 0, 58, 67
2, 1082069, Note_off_c, 0, 58, 67
2, 1082069, Note_on_c, 0, 63, 67
2, 1082079, Note_off_c, 0, 63, 67
2, 1082080, Control_c, 0, 93, 0
2, 1082080, Note_on_c, 0, 67, 67
2, 1082090, Note_off_c, 0, 67, 67
2, 1082090, Note_on_c, 0, 70, 67
2, 1082101, Note_off_c, 0, 70, 67
2, 1082101, Note_on_c, 0, 75, 67
2, 1082111, Note_off_c, 0, 75, 67
2, 1082112, Control_c, 0, 93, 0
2, 1082240, Control_c, 0, 93, 0
2, 1082304, Control_c, 0, 93, 0
2, 1082304, Control_c, 0, 64, 0
2, 1082368, Control_c, 0, 93, 0
2, 1082368, Note_on_c, 0, 51, 67
2, 1082432, Note_off_c, 0, 51, 67
2, 1082496, Note_off_c, 0, 51, 67
2, 1082496, Note_on_c, 0, 63, 67
2, 1082560, Note_off_c, 0, 63, 67
2, 1082624, Note_off_c, 0, 63, 67
2, 1082624, Note_on_c, 0, 50, 67
2, 1082688, Note_off_c, 0, 50, 67
2, 1082752, Note_off_c, 0, 50, 67
2, 1082752, Note_on_c, 0, 62, 67
2, 1082816, Note_off_c, 0, 62, 67
2, 1082880, Note_off_c, 0, 62, 67
2, 1082880, Note_on_c, 0, 48, 67
2, 1082944, Note_off_c, 0, 48, 67
2, 1083008, Note_off_c, 0, 48, 67
2, 1083008, Note_on_c, 0, 60, 67
2, 1083072, Note_off_c, 0, 60, 67
2, 1083136, Note_off_c, 0, 60, 67
2, 1083136, Note_on_c, 0, 46, 67
2, 1083200, Note_off_c, 0, 46, 67
2, 1083264, Note_off_c, 0, 46, 67
2, 1083264, Note_on_c, 0, 58, 67
2, 1083328, Note_off_c, 0, 58, 67
2, 1083392, Note_off_c, 0, 58, 67
2, 1083392, Note_on_c, 0, 51, 67
2, 1083456, Note_off_c, 0, 51, 67
2, 1083520, Note_off_c, 0, 51, 67
2, 1083520, Note_on_c, 0, 63, 67
2, 1083584, Note_off_c, 0, 63, 67
2, 1083648, Note_off_c, 0, 63, 67
2, 1083648, Note_on_c, 0, 46, 67
2, 1083712, Note_off_c, 0, 46, 67
2, 1083776, Note_off_c, 0, 46, 67
2, 1083776, Note_on_c, 0, 58, 67
2, 1083840, Note_off_c, 0, 58, 67
2, 1083904, Note_off_c, 0, 58, 67
2, 1083904, Note_on_c, 0, 48, 67
2, 1083968, Note_off_c, 0, 48, 67
2, 1084032, Note_off_c, 0, 48, 67
2, 1084032, Note_on_c, 0, 60, 67
2, 1084096, Note_off_c, 0, 60, 67
2, 1084160, Note_off_c, 0, 60, 67
2, 1084160, Note_on_c, 0, 46, 67
2, 1084224, Note_off_c, 0, 46, 67
2, 1084288, Note_off_c, 0, 46, 67
2, 1084288, Note_on_c, 0, 58, 67
2, 1084352, Note_off_c, 0, 58, 67
2, 1084416, Note_off_c, 0, 58, 67
2, 1084416, Note_on_c, 0, 50, 67
2, 1084480, Note_off_c, 0, 50, 67
2, 1084544, Note_off_c, 0, 50, 67
2, 1084544, Note_on_c, 0, 62, 67
2, 1084608, Note_off_c, 0, 62, 67
2, 1084672, Note_off_c, 0, 62, 67
2, 1084672, Note_on_c, 0, 46, 67
2, 1084736, Note_off_c, 0, 46, 67
2, 1084800, Note_off_c, 0, 46, 67
2, 1084800, Note_on_c, 0, 58, 67
2, 1084864, Note_off_c, 0, 58, 67
2, 1084928, Note_off_c, 0, 58, 67
2, 1084928, Note_on_c, 0, 48, 67
2, 1084992, Note_off_c, 0, 48, 67
2, 1085056, Note_off_c, 0, 48, 67
2, 1085056, Note_on_c, 0, 60, 67
2, 1085120, Note_off_c, 0, 60, 67
2, 1085184, Note_off_c, 0, 60, 67
2, 1085184, Note_on_c, 0, 49, 67
2, 1085248, Note_off_c, 0, 49, 67
2, 1085312, Note_off_c, 0, 49, 67
2, 1085312, Note_on_c, 0, 61, 67
2, 1085376, Note_off_c, 0, 61, 67
2, 1085440, Note_off_c, 0, 61, 67
2, 1085440, Note_on_c, 0, 50, 67
2, 1085504, Note_off_c, 0, 50, 67
2, 1085568, Note_off_c, 0, 50, 67
2, 1085568, Note_on_c, 0, 62, 67
2, 1085632, Note_off_c, 0, 62, 67
2, 1085696, Note_off_c, 0, 62, 67
2, 1085696, Note_on_c, 0, 46, 67
2, 1085760, Note_off_c, 0, 46, 67
2, 1085824, Note_off_c, 0, 46, 67
2, 1085824, Note_on_c, 0, 58, 67
2, 1085888, Note_off_c, 0, 58, 67
2, 1085952, Note_off_c, 0, 58, 67
2, 1085952, Note_on_c, 0, 51, 67
2, 1086016, Note_off_c, 0, 51, 67
2, 1086080, Note_off_c, 0, 51, 67
2, 1086080, Note_on_c, 0, 63, 67
2, 1086144, Note_off_c, 0, 63, 67
2, 1086208, Note_off_c, 0, 63, 67
2, 1086208, Note_on_c, 0, 46, 67
2, 1086272, Note_off_c, 0, 46, 67
2, 1086336, Note_off_c, 0, 46, 67
2, 1086336, Note_on_c, 0, 58, 67
2, 1086400, Note_off_c, 0, 58, 67
2, 1086464, Note_off_c, 0, 58, 67
2, 1086464, Note_on_c, 0, 51, 67
2, 1086528, Note_off_c, 0, 51, 67
2, 1086592, Note_off_c, 0, 51, 67
2, 1086592, Note_on_c, 0, 63, 67
2, 1086656, Note_off_c, 0, 63, 67
2, 1086720, Note_off_c, 0, 63, 67
2, 1086720, Note_on_c, 0, 50, 67
2, 1086784, Note_off_c, 0, 50, 67
2, 1086848, Note_off_c, 0, 50, 67
2, 1086848, Note_on_c, 0, 62, 67
2, 1086912, Note_off_c, 0, 62, 67
2, 1086976, Note_off_c, 0, 62, 67
2, 1086976, Note_on_c, 0, 48, 67
2, 1087040, Note_off_c, 0, 48, 67
2, 1087104, Note_off_c, 0, 48, 67
2, 1087104, Note_on_c, 0, 60, 67
2, 1087168, Note_off_c, 0, 60, 67
2, 1087232, Note_off_c, 0, 60, 67
2, 1087232, Note_on_c, 0, 46, 67
2, 1087296, Note_off_c, 0, 46, 67
2, 1087360, Note_off_c, 0, 46, 67
2, 1087360, Note_on_c, 0, 58, 67
2, 1087424, Note_off_c, 0, 58, 67
2, 1087488, Note_off_c, 0, 58, 67
2, 1087488, Note_on_c, 0, 51, 67
2, 1087552, Note_off_c, 0, 51, 67
2, 1087616, Note_off_c, 0, 51, 67
2, 1087616, Note_on_c, 0, 63, 67
2, 1087680, Note_off_c, 0, 63, 67
2, 1087744, Note_off_c, 0, 63, 67
2, 1087744, Note_on_c, 0, 46, 67
2, 1087808, Note_off_c, 0, 46, 67
2, 1087872, Note_off_c, 0, 46, 67
2, 1087872, Note_on_c, 0, 58, 67
2, 1087936, Note_off_c, 0, 58, 67
2, 1088000, Note_off_c, 0, 58, 67
2, 1088000, Note_on_c, 0, 48, 67
2, 1088064, Note_off_c, 0, 48, 67
2, 1088128, Note_off_c, 0, 48, 67
2, 1088128, Note_on_c, 0, 60, 67
2, 1088192, Note_off_c, 0, 60, 67
2, 1088256, Note_off_c, 0, 60, 67
2, 1088256, Note_on_c, 0, 46, 67
2, 1088320, Note_off_c, 0, 46, 67
2, 1088384, Note_off_c, 0, 46, 67
2, 1088384, Note_on_c, 0, 58, 67
2, 1088448, Note_off_c, 0, 58, 67
2, 1088512, Note_off_c, 0, 58, 67
2, 1088512, Note_on_c, 0, 50, 67
2, 1088576, Note_off_c, 0, 50, 67
2, 1088640, Note_off_c, 0, 50, 67
2, 1088640, Note_on_c, 0, 62, 67
2, 1088704, Note_off_c, 0, 62, 67
2, 1088768, Note_off_c, 0, 62, 67
2, 1088768, Note_on_c, 0, 48, 67
2, 1088832, Note_off_c, 0, 48, 67
2, 1088896, Note_off_c, 0, 48, 67
2, 1088896, Note_on_c, 0, 60, 67
2, 1088960, Note_off_c, 0, 60, 67
2, 1089024, Note_off_c, 0, 60, 67
2, 1089024, Note_on_c, 0, 46, 67
2, 1089088, Note_off_c, 0, 46, 67
2, 1089152, Note_off_c, 0, 46, 67
2, 1089152, Note_on_c, 0, 58, 67
2, 1089216, Note_off_c, 0, 58, 67
2, 1089280, Note_off_c, 0, 58, 67
2, 1089280, Note_on_c, 0, 48, 67
2, 1089344, Note_off_c, 0, 48, 67
2, 1089408, Note_off_c, 0, 48, 67
2, 1089408, Note_on_c, 0, 60, 67
2, 1089472, Note_off_c, 0, 60, 67
2, 1089536, Note_off_c, 0, 60, 67
2, 1089536, Note_on_c, 0, 50, 67
2, 1089600, Note_off_c, 0, 50, 67
2, 1089664, Note_off_c, 0, 50, 67
2, 1089664, Note_on_c, 0, 62, 67
2, 1089728, Note_off_c, 0, 62, 67
2, 1089792, Note_off_c, 0, 62, 67
2, 1089792, Note_on_c, 0, 46, 67
2, 1089856, Note_off_c, 0, 46, 67
2, 1089920, Note_off_c, 0, 46, 67
2, 1089920, Note_on_c, 0, 58, 67
2, 1089984, Note_off_c, 0, 58, 67
2, 1090048, Note_off_c, 0, 58, 67
2, 1090048, Note_on_c, 0, 51, 67
2, 1090112, Note_off_c, 0, 51, 67
2, 1090176, Note_off_c, 0, 51, 67
2, 1090176, Note_on_c, 0, 63, 67
2, 1090240, Note_off_c, 0, 63, 67
2, 1090304, Note_off_c, 0, 63, 67
2, 1090304, Note_on_c, 0, 46, 67
2, 1090368, Note_off_c, 0, 46, 67
2, 1090432, Note_off_c, 0, 46, 67
2, 1090432, Note_on_c, 0, 58, 67
2, 1090496, Note_off_c, 0, 58, 67
2, 1090560, Note_off_c, 0, 58, 67
2, 1090560, Note_on_c, 0, 39, 67
2, 1090624, Note_off_c, 0, 39, 67
2, 1090624, Note_on_c, 0, 46, 67
2, 1090688, Note_off_c, 0, 46, 67
2, 1090688, Note_on_c, 0, 51, 67
2, 1090752, Note_off_c, 0, 51, 67
2, 1090752, Note_on_c, 0, 53, 67
2, 1090816, Note_off_c, 0, 53, 67
2, 1090816, Note_on_c, 0, 55, 67
2, 1090880, Note_off_c, 0, 55, 67
2, 1090880, Note_on_c, 0, 51, 67
2, 1090944, Note_off_c, 0, 51, 67
2, 1090944, Note_on_c, 0, 58, 67
2, 1091008, Note_off_c, 0, 58, 67
2, 1091008, Note_on_c, 0, 63, 67
2, 1091056, Control_c, 0, 93, 0
2, 1091072, Note_off_c, 0, 63, 67
2, 1091072, Note_on_c, 0, 44, 67
2, 1091136, Note_off_c, 0, 44, 67
2, 1091136, Note_on_c, 0, 51, 67
2, 1091200, Note_off_c, 0, 51, 67
2, 1091200, Note_on_c, 0, 56, 67
2, 1091264, Note_off_c, 0, 56, 67
2, 1091264, Note_on_c, 0, 58, 67
2, 1091328, Note_off_c, 0, 58, 67
2, 1091328, Note_on_c, 0, 60, 67
2, 1091392, Note_off_c, 0, 60, 67
2, 1091392, Note_on_c, 0, 56, 67
2, 1091456, Note_off_c, 0, 56, 67
2, 1091456, Note_on_c, 0, 63, 67
2, 1091520, Note_off_c, 0, 63, 67
2, 1091520, Note_on_c, 0, 68, 67
2, 1091568, Control_c, 0, 93, 0
2, 1091584, Note_off_c, 0, 68, 67
2, 1091584, Note_on_c, 0, 46, 67
2, 1091648, Note_off_c, 0, 46, 67
2, 1091648, Note_on_c, 0, 53, 67
2, 1091712, Note_off_c, 0, 53, 67
2, 1091712, Note_on_c, 0, 58, 67
2, 1091776, Note_off_c, 0, 58, 67
2, 1091776, Note_on_c, 0, 60, 67
2, 1091840, Note_off_c, 0, 60, 67
2, 1091840, Note_on_c, 0, 62, 67
2, 1091904, Note_off_c, 0, 62, 67
2, 1091904, Note_on_c, 0, 58, 67
2, 1091968, Note_off_c, 0, 58, 67
2, 1091968, Note_on_c, 0, 65, 67
2, 1092032, Note_off_c, 0, 65, 67
2, 1092032, Note_on_c, 0, 70, 67
2, 1092080, Control_c, 0, 93, 0
2, 1092096, Note_off_c, 0, 70, 67
2, 1092096, Note_on_c, 0, 41, 67
2, 1092160, Note_off_c, 0, 41, 67
2, 1092160, Note_on_c, 0, 44, 67
2, 1092224, Note_off_c, 0, 44, 67
2, 1092224, Control_c, 0, 64, 64
2, 1092224, Note_on_c, 0, 50, 67
2, 1092245, Note_off_c, 0, 50, 67
2, 1092245, Note_on_c, 0, 53, 67
2, 1092266, Note_off_c, 0, 53, 67
2, 1092266, Note_on_c, 0, 58, 67
2, 1092287, Note_off_c, 0, 58, 67
2, 1092288, Control_c, 0, 93, 0
2, 1092288, Note_on_c, 0, 62, 67
2, 1092309, Note_off_c, 0, 62, 67
2, 1092309, Note_on_c, 0, 65, 67
2, 1092330, Note_off_c, 0, 65, 67
2, 1092330, Note_on_c, 0, 70, 67
2, 1092352, Control_c, 0, 93, 0
2, 1092352, Control_c, 0, 64, 0
2, 1092480, Note_off_c, 0, 70, 67
2, 1092480, Note_on_c, 0, 51, 67
2, 1092544, Note_off_c, 0, 51, 67
2, 1092544, Note_on_c, 0, 46, 67
2, 1092608, Note_off_c, 0, 46, 67
2, 1092608, Note_on_c, 0, 39, 67
2, 1092672, Note_off_c, 0, 39, 67
2, 1092672, Note_on_c, 0, 46, 67
2, 1092736, Note_off_c, 0, 46, 67
2, 1092736, Note_on_c, 0, 51, 67
2, 1092800, Note_off_c, 0, 51, 67
2, 1092800, Note_on_c, 0, 53, 67
2, 1092864, Note_off_c, 0, 53, 67
2, 1092864, Note_on_c, 0, 55, 67
2, 1092928, Note_off_c, 0, 55, 67
2, 1092928, Note_on_c, 0, 51, 67
2, 1092992, Note_off_c, 0, 51, 67
2, 1092992, Note_on_c, 0, 58, 67
2, 1093056, Note_off_c, 0, 58, 67
2, 1093056, Note_on_c, 0, 63, 67
2, 1093104, Control_c, 0, 93, 0
2, 1093120, Note_off_c, 0, 63, 67
2, 1093120, Note_on_c, 0, 44, 67
2, 1093184, Note_off_c, 0, 44, 67
2, 1093184, Note_on_c, 0, 51, 67
2, 1093248, Note_off_c, 0, 51, 67
2, 1093248, Note_on_c, 0, 56, 67
2, 1093312, Note_off_c, 0, 56, 67
2, 1093312, Note_on_c, 0, 58, 67
2, 1093376, Note_off_c, 0, 58, 67
2, 1093376, Note_on_c, 0, 60, 67
2, 1093440, Note_off_c, 0, 60, 67
2, 1093440, Note_on_c, 0, 56, 67
2, 1093504, Note_off_c, 0, 56, 67
2, 1093504, Note_on_c, 0, 63, 67
2, 1093568, Note_off_c, 0, 63, 67
2, 1093568, Note_on_c, 0, 68, 67
2, 1093616, Control_c, 0, 93, 0
2, 1093632, Note_off_c, 0, 68, 67
2, 1093632, Note_on_c, 0, 46, 67
2, 1093696, Note_off_c, 0, 46, 67
2, 1093696, Note_on_c, 0, 53, 67
2, 1093760, Note_off_c, 0, 53, 67
2, 1093760, Note_on_c, 0, 58, 67
2, 1093824, Note_off_c, 0, 58, 67
2, 1093824, Note_on_c, 0, 60, 67
2, 1093888, Note_off_c, 0, 60, 67
2, 1093888, Note_on_c, 0, 62, 67
2, 1093952, Note_off_c, 0, 62, 67
2, 1093952, Note_on_c, 0, 58, 67
2, 1094016, Note_off_c, 0, 58, 67
2, 1094016, Note_on_c, 0, 65, 67
2, 1094080, Note_off_c, 0, 65, 67
2, 1094080, Note_on_c, 0, 70, 67
2, 1094128, Control_c, 0, 93, 0
2, 1094144, Note_off_c, 0, 70, 67
2, 1094144, Note_on_c, 0, 39, 67
2, 1094208, Note_off_c, 0, 39, 67
2, 1094208, Note_on_c, 0, 46, 67
2, 1094272, Note_off_c, 0, 46, 67
2, 1094272, Note_on_c, 0, 51, 67
2, 1094336, Note_off_c, 0, 51, 67
2, 1094336, Control_c, 0, 64, 64
2, 1094336, Note_on_c, 0, 55, 67
2, 1094346, Note_off_c, 0, 55, 67
2, 1094346, Note_on_c, 0, 58, 67
2, 1094357, Note_off_c, 0, 58, 67
2, 1094357, Note_on_c, 0, 63, 67
2, 1094367, Note_off_c, 0, 63, 67
2, 1094368, Control_c, 0, 93, 0
2, 1094368, Note_on_c, 0, 67, 67
2, 1094378, Note_off_c, 0, 67, 67
2, 1094378, Note_on_c, 0, 70, 67
2, 1094389, Note_off_c, 0, 70, 67
2, 1094389, Note_on_c, 0, 75, 67
2, 1094399, Note_off_c, 0, 75, 67
2, 1094400, Control_c, 0, 93, 0
2, 1094528, Control_c, 0, 93, 0
2, 1094592, Control_c, 0, 93, 0
2, 1094592, Control_c, 0, 64, 0
2, 1094656, Control_c, 0, 93, 0
2, 1094656, Note_on_c, 0, 51, 67
2, 1094720, Note_off_c, 0, 51, 67
2, 1094784, Note_off_c, 0, 51, 67
2, 1094784, Note_on_c, 0, 63, 67
2, 1094848, Note_off_c, 0, 63, 67
2, 1094912, Note_off_c, 0, 63, 67
2, 1094912, Note_on_c, 0, 50, 67
2, 1094976, Note_off_c, 0, 50, 67
2, 1095040, Note_off_c, 0, 50, 67
2, 1095040, Note_on_c, 0, 62, 67
2, 1095104, Note_off_c, 0, 62, 67
2, 1095168, Note_off_c, 0, 62, 67
2, 1095168, Note_on_c, 0, 48, 67
2, 1095232, Note_off_c, 0, 48, 67
2, 1095296, Note_off_c, 0, 48, 67
2, 1095296, Note_on_c, 0, 60, 67
2, 1095360, Note_off_c, 0, 60, 67
2, 1095424, Note_off_c, 0, 60, 67
2, 1095424, Note_on_c, 0, 46, 67
2, 1095488, Note_off_c, 0, 46, 67
2, 1095552, Note_off_c, 0, 46, 67
2, 1095552, Note_on_c, 0, 58, 67
2, 1095616, Note_off_c, 0, 58, 67
2, 1095680, Note_off_c, 0, 58, 67
2, 1095680, Note_on_c, 0, 51, 67
2, 1095744, Note_off_c, 0, 51, 67
2, 1095808, Note_off_c, 0, 51, 67
2, 1095808, Note_on_c, 0, 63, 67
2, 1095872, Note_off_c, 0, 63, 67
2, 1095936, Note_off_c, 0, 63, 67
2, 1095936, Note_on_c, 0, 46, 67
2, 1096000, Note_off_c, 0, 46, 67
2, 1096064, Note_off_c, 0, 46, 67
2, 1096064, Note_on_c, 0, 58, 67
2, 1096128, Note_off_c, 0, 58, 67
2, 1096192, Note_off_c, 0, 58, 67
2, 1096192, Note_on_c, 0, 48, 67
2, 1096256, Note_off_c, 0, 48, 67
2, 1096320, Note_off_c, 0, 48, 67
2, 1096320, Note_on_c, 0, 60, 67
2, 1096384, Note_off_c, 0, 60, 67
2, 1096448, Note_off_c, 0, 60, 67
2, 1096448, Note_on_c, 0, 46, 67
2, 1096512, Note_off_c, 0, 46, 67
2, 1096576, Note_off_c, 0, 46, 67
2, 1096576, Note_on_c, 0, 58, 67
2, 1096640, Note_off_c, 0, 58, 67
2, 1096704, Note_off_c, 0, 58, 67
2, 1096704, Note_on_c, 0, 50, 67
2, 1096768, Note_off_c, 0, 50, 67
2, 1096832, Note_off_c, 0, 50, 67
2, 1096832, Note_on_c, 0, 62, 67
2, 1096896, Note_off_c, 0, 62, 67
2, 1096960, Note_off_c, 0, 62, 67
2, 1096960, Note_on_c, 0, 46, 67
2, 1097024, Note_off_c, 0, 46, 67
2, 1097088, Note_off_c, 0, 46, 67
2, 1097088, Note_on_c, 0, 58, 67
2, 1097152, Note_off_c, 0, 58, 67
2, 1097216, Note_off_c, 0, 58, 67
2, 1097216, Note_on_c, 0, 48, 67
2, 1097280, Note_off_c, 0, 48, 67
2, 1097344, Note_off_c, 0, 48, 67
2, 1097344, Note_on_c, 0, 60, 67
2, 1097408, Note_off_c, 0, 60, 67
2, 1097472, Note_off_c, 0, 60, 67
2, 1097472, Note_on_c, 0, 49, 67
2, 1097536, Note_off_c, 0, 49, 67
2, 1097600, Note_off_c, 0, 49, 67
2, 1097600, Note_on_c, 0, 61, 67
2, 1097664, Note_off_c, 0, 61, 67
2, 1097728, Note_off_c, 0, 61, 67
2, 1097728, Note_on_c, 0, 50, 67
2, 1097792, Note_off_c, 0, 50, 67
2, 1097856, Note_off_c, 0, 50, 67
2, 1097856, Note_on_c, 0, 62, 67
2, 1097920, Note_off_c, 0, 62, 67
2, 1097984, Note_off_c, 0, 62, 67
2, 1097984, Note_on_c, 0, 46, 67
2, 1098048, Note_off_c, 0, 46, 67
2, 1098112, Note_off_c, 0, 46, 67
2, 1098112, Note_on_c, 0, 58, 67
2, 1098176, Note_off_c, 0, 58, 67
2, 1098240, Note_off_c, 0, 58, 67
2, 1098240, Note_on_c, 0, 51, 67
2, 1098304, Note_off_c, 0, 51, 67
2, 1098368, Note_off_c, 0, 51, 67
2, 1098368, Note_on_c, 0, 63, 67
2, 1098432, Note_off_c, 0, 63, 67
2, 1098496, Note_off_c, 0, 63, 67
2, 1098496, Note_on_c, 0, 46, 67
2, 1098560, Note_off_c, 0, 46, 67
2, 1098624, Note_off_c, 0, 46, 67
2, 1098624, Note_on_c, 0, 58, 67
2, 1098688, Note_off_c, 0, 58, 67
2, 1098752, Note_off_c, 0, 58, 67
2, 1098752, Note_on_c, 0, 51, 67
2, 1098816, Note_off_c, 0, 51, 67
2, 1098880, Note_off_c, 0, 51, 67
2, 1098880, Note_on_c, 0, 63, 67
2, 1098944, Note_off_c, 0, 63, 67
2, 1099008, Note_off_c, 0, 63, 67
2, 1099008, Note_on_c, 0, 50, 67
2, 1099072, Note_off_c, 0, 50, 67
2, 1099136, Note_off_c, 0, 50, 67
2, 1099136, Note_on_c, 0, 62, 67
2, 1099200, Note_off_c, 0, 62, 67
2, 1099264, Note_off_c, 0, 62, 67
2, 1099264, Note_on_c, 0, 48, 67
2, 1099328, Note_off_c, 0, 48, 67
2, 1099392, Note_off_c, 0, 48, 67
2, 1099392, Note_on_c, 0, 60, 67
2, 1099456, Note_off_c, 0, 60, 67
2, 1099520, Note_off_c, 0, 60, 67
2, 1099520, Note_on_c, 0, 46, 67
2, 1099584, Note_off_c, 0, 46, 67
2, 1099648, Note_off_c, 0, 46, 67
2, 1099648, Note_on_c, 0, 58, 67
2, 1099712, Note_off_c, 0, 58, 67
2, 1099776, Note_off_c, 0, 58, 67
2, 1099776, Note_on_c, 0, 51, 67
2, 1099840, Note_off_c, 0, 51, 67
2, 1099904, Note_off_c, 0, 51, 67
2, 1099904, Note_on_c, 0, 63, 67
2, 1099968, Note_off_c, 0, 63, 67
2, 1100032, Note_off_c, 0, 63, 67
2, 1100032, Note_on_c, 0, 46, 67
2, 1100096, Note_off_c, 0, 46, 67
2, 1100160, Note_off_c, 0, 46, 67
2, 1100160, Note_on_c, 0, 58, 67
2, 1100224, Note_off_c, 0, 58, 67
2, 1100288, Note_off_c, 0, 58, 67
2, 1100288, Note_on_c, 0, 48, 67
2, 1100352, Note_off_c, 0, 48, 67
2, 1100416, Note_off_c, 0, 48, 67
2, 1100416, Note_on_c, 0, 60, 67
2, 1100480, Note_off_c, 0, 60, 67
2, 1100544, Note_off_c, 0, 60, 67
2, 1100544, Note_on_c, 0, 46, 67
2, 1100608, Note_off_c, 0, 46, 67
2, 1100672, Note_off_c, 0, 46, 67
2, 1100672, Note_on_c, 0, 58, 67
2, 1100736, Note_off_c, 0, 58, 67
2, 1100800, Note_off_c, 0, 58, 67
2, 1100800, Note_on_c, 0, 50, 67
2, 1100864, Note_off_c, 0, 50, 67
2, 1100928, Note_off_c, 0, 50, 67
2, 1100928, Note_on_c, 0, 62, 67
2, 1100992, Note_off_c, 0, 62, 67
2, 1101056, Note_off_c, 0, 62, 67
2, 1101056, Note_on_c, 0, 48, 67
2, 1101120, Note_off_c, 0, 48, 67
2, 1101184, Note_off_c, 0, 48, 67
2, 1101184, Note_on_c, 0, 60, 67
2, 1101248, Note_off_c, 0, 60, 67
2, 1101312, Note_off_c, 0, 60, 67
2, 1101312, Note_on_c, 0, 46, 67
2, 1101376, Note_off_c, 0, 46, 67
2, 1101440, Note_off_c, 0, 46, 67
2, 1101440, Note_on_c, 0, 58, 67
2, 1101504, Note_off_c, 0, 58, 67
2, 1101568, Note_off_c, 0, 58, 67
2, 1101568, Note_on_c, 0, 48, 67
2, 1101632, Note_off_c, 0, 48, 67
2, 1101696, Note_off_c, 0, 48, 67
2, 1101696, Note_on_c, 0, 60, 67
2, 1101760, Note_off_c, 0, 60, 67
2, 1101824, Note_off_c, 0, 60, 67
2, 1101824, Note_on_c, 0, 50, 67
2, 1101888, Note_off_c, 0, 50, 67
2, 1101952, Note_off_c, 0, 50, 67
2, 1101952, Note_on_c, 0, 62, 67
2, 1102016, Note_off_c, 0, 62, 67
2, 1102080, Note_off_c, 0, 62, 67
2, 1102080, Note_on_c, 0, 46, 67
2, 1102144, Note_off_c, 0, 46, 67
2, 1102208, Note_off_c, 0, 46, 67
2, 1102208, Note_on_c, 0, 58, 67
2, 1102272, Note_off_c, 0, 58, 67
2, 1102336, Note_off_c, 0, 58, 67
2, 1102336, Note_on_c, 0, 51, 67
2, 1102400, Note_off_c, 0, 51, 67
2, 1102464, Note_off_c, 0, 51, 67
2, 1102464, Note_on_c, 0, 63, 67
2, 1102528, Note_off_c, 0, 63, 67
2, 1102592, Note_off_c, 0, 63, 67
2, 1102592, Note_on_c, 0, 46, 67
2, 1102656, Note_off_c, 0, 46, 67
2, 1102720, Note_off_c, 0, 46, 67
2, 1102720, Note_on_c, 0, 58, 67
2, 1102784, Note_off_c, 0, 58, 67
2, 1102848, Note_off_c, 0, 58, 67
2, 1102848, Note_on_c, 0, 39, 67
2, 1102912, Note_off_c, 0, 39, 67
2, 1102912, Note_on_c, 0, 46, 67
2, 1102976, Note_off_c, 0, 46, 67
2, 1102976, Note_on_c, 0, 51, 67
2, 1103040, Note_off_c, 0, 51, 67
2, 1103040, Note_on_c, 0, 53, 67
2, 1103104, Note_off_c, 0, 53, 67
2, 1103104, Note_on_c, 0, 55, 67
2, 1103168, Note_off_c, 0, 55, 67
2, 1103168, Note_on_c, 0, 51, 67
2, 1103232, Note_off_c, 0, 51, 67
2, 1103232, Note_on_c, 0, 58, 67
2, 1103296, Note_off_c, 0, 58, 67
2, 1103296, Note_on_c, 0, 63, 67
2, 1103344, Control_c, 0, 93, 0
2, 1103360, Note_off_c, 0, 63, 67
2, 1103360, Note_on_c, 0, 44, 67
2, 1103424, Note_off_c, 0, 44, 67
2, 1103424, Note_on_c, 0, 51, 67
2, 1103488, Note_off_c, 0, 51, 67
2, 1103488, Note_on_c, 0, 56, 67
2, 1103552, Note_off_c, 0, 56, 67
2, 1103552, Note_on_c, 0, 58, 67
2, 1103616, Note_off_c, 0, 58, 67
2, 1103616, Note_on_c, 0, 60, 67
2, 1103680, Note_off_c, 0, 60, 67
2, 1103680, Note_on_c, 0, 56, 67
2, 1103744, Note_off_c, 0, 56, 67
2, 1103744, Note_on_c, 0, 63, 67
2, 1103808, Note_off_c, 0, 63, 67
2, 1103808, Note_on_c, 0, 68, 67
2, 1103856, Control_c, 0, 93, 0
2, 1103872, Note_off_c, 0, 68, 67
2, 1103872, Note_on_c, 0, 46, 67
2, 1103936, Note_off_c, 0, 46, 67
2, 1103936, Note_on_c, 0, 53, 67
2, 1104000, Note_off_c, 0, 53, 67
2, 1104000, Note_on_c, 0, 58, 67
2, 1104064, Note_off_c, 0, 58, 67
2, 1104064, Note_on_c, 0, 60, 67
2, 1104128, Note_off_c, 0, 60, 67
2, 1104128, Note_on_c, 0, 62, 67
2, 1104192, Note_off_c, 0, 62, 67
2, 1104192, Note_on_c, 0, 58, 67
2, 1104256, Note_off_c, 0, 58, 67
2, 1104256, Note_on_c, 0, 65, 67
2, 1104320, Note_off_c, 0, 65, 67
2, 1104320, Note_on_c, 0, 70, 67
2, 1104368, Control_c, 0, 93, 0
2, 1104384, Note_off_c, 0, 70, 67
2, 1104384, Note_on_c, 0, 41, 67
2, 1104448, Note_off_c, 0, 41, 67
2, 1104448, Note_on_c, 0, 44, 67
2, 1104512, Note_off_c, 0, 44, 67
2, 1104512, Control_c, 0, 64, 64
2, 1104512, Note_on_c, 0, 50, 67
2, 1104533, Note_off_c, 0, 50, 67
2, 1104533, Note_on_c, 0, 53, 67
2, 1104554, Note_off_c, 0, 53, 67
2, 1104554, Note_on_c, 0, 58, 67
2, 1104575, Note_off_c, 0, 58, 67
2, 1104576, Control_c, 0, 93, 0
2, 1104576, Note_on_c, 0, 62, 67
2, 1104597, Note_off_c, 0, 62, 67
2, 1104597, Note_on_c, 0, 65, 67
2, 1104618, Note_off_c, 0, 65, 67
2, 1104618, Note_on_c, 0, 70, 67
2, 1104640, Control_c, 0, 93, 0
2, 1104640, Control_c, 0, 64, 0
2, 1104768, Note_off_c, 0, 70, 67
2, 1104768, Note_on_c, 0, 51, 67
2, 1104832, Note_off_c, 0, 51, 67
2, 1104832, Note_on_c, 0, 46, 67
2, 1104896, Note_off_c, 0, 46, 67
2, 1104896, Note_on_c, 0, 39, 67
2, 1104960, Note_off_c, 0, 39, 67
2, 1104960, Note_on_c, 0, 46, 67
2, 1105024, Note_off_c, 0, 46, 67
2, 1105024, Note_on_c, 0, 51, 67
2, 1105088, Note_off_c, 0, 51, 67
2, 1105088, Note_on_c, 0, 53, 67
2, 1105152, Note_off_c, 0, 53, 67
2, 1105152, Note_on_c, 0, 55, 67
2, 1105216, Note_off_c, 0, 55, 67
2, 1105216, Note_on_c, 0, 51, 67
2, 1105280, Note_off_c, 0, 51, 67
2, 1105280, Note_on_c, 0, 58, 67
2, 1105344, Note_off_c, 0, 58, 67
2, 1105344, Note_on_c, 0, 63, 67
2, 1105392, Control_c, 0, 93, 0
2, 1105408, Note_off_c, 0, 63, 67
2, 1105408, Note_on_c, 0, 44, 67
2, 1105472, Note_off_c, 0, 44, 67
2, 1105472, Note_on_c, 0, 51, 67
2, 1105536, Note_off_c, 0, 51, 67
2, 1105536, Note_on_c, 0, 56, 67
2, 1105600, Note_off_c, 0, 56, 67
2, 1105600, Note_on_c, 0, 58, 67
2, 1105664, Note_off_c, 0, 58, 67
2, 1105664, Note_on_c, 0, 60, 67
2, 1105728, Note_off_c, 0, 60, 67
2, 1105728, Note_on_c, 0, 56, 67
2, 1105792, Note_off_c, 0, 56, 67
2, 1105792, Note_on_c, 0, 63, 67
2, 1105856, Note_off_c, 0, 63, 67
2, 1105856, Note_on_c, 0, 68, 67
2, 1105904, Control_c, 0, 93, 0
2, 1105920, Note_off_c, 0, 68, 67
2, 1105920, Note_on_c, 0, 46, 67
2, 1105984, Note_off_c, 0, 46, 67
2, 1105984, Note_on_c, 0, 53, 67
2, 1106048, Note_off_c, 0, 53, 67
2, 1106048, Note_on_c, 0, 58, 67
2, 1106112, Note_off_c, 0, 58, 67
2, 1106112, Note_on_c, 0, 60, 67
2, 1106176, Note_off_c, 0, 60, 67
2, 1106176, Note_on_c, 0, 62, 67
2, 1106240, Note_off_c, 0, 62, 67
2, 1106240, Note_on_c, 0, 58, 67
2, 1106304, Note_off_c, 0, 58, 67
2, 1106304, Note_on_c, 0, 65, 67
2, 1106368, Note_off_c, 0, 65, 67
2, 1106368, Note_on_c, 0, 70, 67
2, 1106416, Control_c, 0, 93, 0
2, 1106432, Note_off_c, 0, 70, 67
2, 1106432, Note_on_c, 0, 39, 67
2, 1106496, Note_off_c, 0, 39, 67
2, 1106496, Note_on_c, 0, 46, 67
2, 1106560, Note_off_c, 0, 46, 67
2, 1106560, Note_on_c, 0, 51, 67
2, 1106624, Note_off_c, 0, 51, 67
2, 1106624, Control_c, 0, 64, 64
2, 1106624, Note_on_c, 0, 55, 67
2, 1106634, Note_off_c, 0, 55, 67
2, 1106634, Note_on_c, 0, 58, 67
2, 1106645, Note_off_c, 0, 58, 67
2, 1106645, Note_on_c, 0, 63, 67
2, 1106655, Note_off_c, 0, 63, 67
2, 1106656, Control_c, 0, 93, 0
2, 1106656, Note_on_c, 0, 67, 67
2, 1106666, Note_off_c, 0, 67, 67
2, 1106666, Note_on_c, 0, 70, 67
2, 1106677, Note_off_c, 0, 70, 67
2, 1106677, Note_on_c, 0, 75, 67
2, 1106687, Note_off_c, 0, 75, 67
2, 1106688, Control_c, 0, 93, 0
2, 1106816, Control_c, 0, 93, 0
2, 1106880, Control_c, 0, 93, 0
2, 1106880, Control_c, 0, 64, 0
2, 1106944, Control_c, 0, 93, 0
2, 1106944, Note_on_c, 0, 51, 67
2, 1107008, Note_off_c, 0, 51, 67
2, 1107072, Note_off_c, 0, 51, 67
2, 1107072, Note_on_c, 0, 63, 67
2, 1107136, Note_off_c, 0, 63, 67
2, 1107200, Note_off_c, 0, 63, 67
2, 1107200, Note_on_c, 0, 50, 67
2, 1107264, Note_off_c, 0, 50, 67
2, 1107328, Note_off_c, 0, 50, 67
2, 1107328, Note_on_c, 0, 62, 67
2, 1107392, Note_off_c, 0, 62, 67
2, 1107456, Note_off_c, 0, 62, 67
2, 1107456, Note_on_c, 0, 48, 67
2, 1107520, Note_off_c, 0, 48, 67
2, 1107584, Note_off_c, 0, 48, 67
2, 1107584, Note_on_c, 0, 60, 67
2, 1107648, Note_off_c, 0, 60, 67
2, 1107712, Note_off_c, 0, 60, 67
2, 1107712, Note_on_c, 0, 46, 67
2, 1107776, Note_off_c, 0, 46, 67
2, 1107840, Note_off_c, 0, 46, 67
2, 1107840, Note_on_c, 0, 58, 67
2, 1107904, Note_off_c, 0, 58, 67
2, 1107968, Note_off_c, 0, 58, 67
2, 1107968, Note_on_c, 0, 51, 67
2, 1108032, Note_off_c, 0, 51, 67
2, 1108096, Note_off_c, 0, 51, 67
2, 1108096, Note_on_c, 0, 63, 67
2, 1108160, Note_off_c, 0, 63, 67
2, 1108224, Note_off_c, 0, 63, 67
2, 1108224, Note_on_c, 0, 46, 67
2, 1108288, Note_off_c, 0, 46, 67
2, 1108352, Note_off_c, 0, 46, 67
2, 1108352, Note_on_c, 0, 58, 67
2, 1108416, Note_off_c, 0, 58, 67
2, 1108480, Note_off_c, 0, 58, 67
2, 1108480, Note_on_c, 0, 48, 67
2, 1108544, Note_off_c, 0, 48, 67
2, 1108608, Note_off_c, 0, 48, 67
2, 1108608, Note_on_c, 0, 60, 67
2, 1108672, Note_off_c, 0, 60, 67
2, 1108736, Note_off_c, 0, 60, 67
2, 1108736, Note_on_c, 0, 46, 67
2, 1108800, Note_off_c, 0, 46, 67
2, 1108864, Note_off_c, 0, 46, 67
2, 1108864, Note_on_c, 0, 58, 67
2, 1108928, Note_off_c, 0, 58, 67
2, 1108992, Note_off_c, 0, 58, 67
2, 1108992, Note_on_c, 0, 50, 67
2, 1109056, Note_off_c, 0, 50, 67
2, 1109120, Note_off_c, 0, 50, 67
2, 1109120, Note_on_c, 0, 62, 67
2, 1109184, Note_off_c, 0, 62, 67
2, 1109248, Note_off_c, 0, 62, 67
2, 1109248, Note_on_c, 0, 46, 67
2, 1109312, Note_off_c, 0, 46, 67
2, 1109376, Note_off_c, 0, 46, 67
2, 1109376, Note_on_c, 0, 58, 67
2, 1109440, Note_off_c, 0, 58, 67
2, 1109504, Note_off_c, 0, 58, 67
2, 1109504, Note_on_c, 0, 48, 67
2, 1109568, Note_off_c, 0, 48, 67
2, 1109632, Note_off_c, 0, 48, 67
2, 1109632, Note_on_c, 0, 60, 67
2, 1109696, Note_off_c, 0, 60, 67
2, 1109760, Note_off_c, 0, 60, 67
2, 1109760, Note_on_c, 0, 49, 67
2, 1109824, Note_off_c, 0, 49, 67
2, 1109888, Note_off_c, 0, 49, 67
2, 1109888, Note_on_c, 0, 61, 67
2, 1109952, Note_off_c, 0, 61, 67
2, 1110016, Note_off_c, 0, 61, 67
2, 1110016, Note_on_c, 0, 50, 67
2, 1110080, Note_off_c, 0, 50, 67
2, 1110144, Note_off_c, 0, 50, 67
2, 1110144, Note_on_c, 0, 62, 67
2, 1110208, Note_off_c, 0, 62, 67
2, 1110272, Note_off_c, 0, 62, 67
2, 1110272, Note_on_c, 0, 46, 67
2, 1110336, Note_off_c, 0, 46, 67
2, 1110400, Note_off_c, 0, 46, 67
2, 1110400, Note_on_c, 0, 58, 67
2, 1110464, Note_off_c, 0, 58, 67
2, 1110528, Note_off_c, 0, 58, 67
2, 1110528, Note_on_c, 0, 51, 67
2, 1110592, Note_off_c, 0, 51, 67
2, 1110656, Note_off_c, 0, 51, 67
2, 1110656, Note_on_c, 0, 63, 67
2, 1110720, Note_off_c, 0, 63, 67
2, 1110784, Note_off_c, 0, 63, 67
2, 1110784, Note_on_c, 0, 46, 67
2, 1110848, Note_off_c, 0, 46, 67
2, 1110912, Note_off_c, 0, 46, 67
2, 1110912, Note_on_c, 0, 58, 67
2, 1110976, Note_off_c, 0, 58, 67
2, 1111040, Note_off_c, 0, 58, 67
2, 1111040, Note_on_c, 0, 51, 67
2, 1111104, Note_off_c, 0, 51, 67
2, 1111168, Note_off_c, 0, 51, 67
2, 1111168, Note_on_c, 0, 63, 67
2, 1111232, Note_off_c, 0, 63, 67
2, 1111296, Note_off_c, 0, 63, 67
2, 1111296, Note_on_c, 0, 50, 67
2, 1111360, Note_off_c, 0, 50, 67
2, 1111424, Note_off_c, 0, 50, 67
2, 1111424, Note_on_c, 0, 62, 67
2, 1111488, Note_off_c, 0, 62, 67
2, 1111552, Note_off_c, 0, 62, 67
2, 1111552, Note_on_c, 0, 48, 67
2, 1111616, Note_off_c, 0, 48, 67
2, 1111680, Note_off_c, 0, 48, 67
2, 1111680, Note_on_c, 0, 60, 67
2, 1111744, Note_off_c, 0, 60, 67
2, 1111808, Note_off_c, 0, 60, 67
2, 1111808, Note_on_c, 0, 46, 67
2, 1111872, Note_off_c, 0, 46, 67
2, 1111936, Note_off_c, 0, 46, 67
2, 1111936, Note_on_c, 0, 58, 67
2, 1112000, Note_off_c, 0, 58, 67
2, 1112064, Note_off_c, 0, 58, 67
2, 1112064, Note_on_c, 0, 51, 67
2, 1112128, Note_off_c, 0, 51, 67
2, 1112192, Note_off_c, 0, 51, 67
2, 1112192, Note_on_c, 0, 63, 67
2, 1112256, Note_off_c, 0, 63, 67
2, 1112320, Note_off_c, 0, 63, 67
2, 1112320, Note_on_c, 0, 46, 67
2, 1112384, Note_off_c, 0, 46, 67
2, 1112448, Note_off_c, 0, 46, 67
2, 1112448, Note_on_c, 0, 58, 67
2, 1112512, Note_off_c, 0, 58, 67
2, 1112576, Note_off_c, 0, 58, 67
2, 1112576, Note_on_c, 0, 48, 67
2, 1112640, Note_off_c, 0, 48, 67
2, 1112704, Note_off_c, 0, 48, 67
2, 1112704, Note_on_c, 0, 60, 67
2, 1112768, Note_off_c, 0, 60, 67
2, 1112832, Note_off_c, 0, 60, 67
2, 1112832, Note_on_c, 0, 46, 67
2, 1112896, Note_off_c, 0, 46, 67
2, 1112960, Note_off_c, 0, 46, 67
2, 1112960, Note_on_c, 0, 58, 67
2, 1113024, Note_off_c, 0, 58, 67
2, 1113088, Note_off_c, 0, 58, 67
2, 1113088, Note_on_c, 0, 50, 67
2, 1113152, Note_off_c, 0, 50, 67
2, 1113216, Note_off_c, 0, 50, 67
2, 1113216, Note_on_c, 0, 62, 67
2, 1113280, Note_off_c, 0, 62, 67
2, 1113344, Note_off_c, 0, 62, 67
2, 1113344, Note_on_c, 0, 48, 67
2, 1113408, Note_off_c, 0, 48, 67
2, 1113472, Note_off_c, 0, 48, 67
2, 1113472, Note_on_c, 0, 60, 67
2, 1113536, Note_off_c, 0, 60, 67
2, 1113600, Note_off_c, 0, 60, 67
2, 1113600, Note_on_c, 0, 46, 67
2, 1113664, Note_off_c, 0, 46, 67
2, 1113728, Note_off_c, 0, 46, 67
2, 1113728, Note_on_c, 0, 58, 67
2, 1113792, Note_off_c, 0, 58, 67
2, 1113856, Note_off_c, 0, 58, 67
2, 1113856, Note_on_c, 0, 48, 67
2, 1113920, Note_off_c, 0, 48, 67
2, 1113984, Note_off_c, 0, 48, 67
2, 1113984, Note_on_c, 0, 60, 67
2, 1114048, Note_off_c, 0, 60, 67
2, 1114112, Note_off_c, 0, 60, 67
2, 1114112, Note_on_c, 0, 50, 67
2, 1114176, Note_off_c, 0, 50, 67
2, 1114240, Note_off_c, 0, 50, 67
2, 1114240, Note_on_c, 0, 62, 67
2, 1114304, Note_off_c, 0, 62, 67
2, 1114368, Note_off_c, 0, 62, 67
2, 1114368, Note_on_c, 0, 46, 67
2, 1114432, Note_off_c, 0, 46, 67
2, 1114496, Note_off_c, 0, 46, 67
2, 1114496, Note_on_c, 0, 58, 67
2, 1114560, Note_off_c, 0, 58, 67
2, 1114624, Note_off_c, 0, 58, 67
2, 1114624, Note_on_c, 0, 51, 67
2, 1114688, Note_off_c, 0, 51, 67
2, 1114752, Note_off_c, 0, 51, 67
2, 1114752, Note_on_c, 0, 63, 67
2, 1114816, Note_off_c, 0, 63, 67
2, 1114880, Note_off_c, 0, 63, 67
2, 1114880, Note_on_c, 0, 46, 67
2, 1114944, Note_off_c, 0, 46, 67
2, 1115008, Note_off_c, 0, 46, 67
2, 1115008, Note_on_c, 0, 58, 67
2, 1115072, Note_off_c, 0, 58, 67
2, 1115136, Note_off_c, 0, 58, 67
2, 1115136, Note_on_c, 0, 39, 67
2, 1115200, Note_off_c, 0, 39, 67
2, 1115200, Note_on_c, 0, 46, 67
2, 1115264, Note_off_c, 0, 46, 67
2, 1115264, Note_on_c, 0, 51, 67
2, 1115328, Note_off_c, 0, 51, 67
2, 1115328, Note_on_c, 0, 53, 67
2, 1115392, Note_off_c, 0, 53, 67
2, 1115392, Note_on_c, 0, 55, 67
2, 1115456, Note_off_c, 0, 55, 67
2, 1115456, Note_on_c, 0, 51, 67
2, 1115520, Note_off_c, 0, 51, 67
2, 1115520, Note_on_c, 0, 58, 67
2, 1115584, Note_off_c, 0, 58, 67
2, 1115584, Note_on_c, 0, 63, 67
2, 1115632, Control_c, 0, 93, 0
2, 1115648, Note_off_c, 0, 63, 67
2, 1115648, Note_on_c, 0, 44, 67
2, 1115712, Note_off_c, 0, 44, 67
2, 1115712, Note_on_c, 0, 51, 67
2, 1115776, Note_off_c, 0, 51, 67
2, 1115776, Note_on_c, 0, 56, 67
2, 1115840, Note_off_c, 0, 56, 67
2, 1115840, Note_on_c, 0, 58, 67
2, 1115904, Note_off_c, 0, 58, 67
2, 1115904, Note_on_c, 0, 60, 67
2, 1115968, Note_off_c, 0, 60, 67
2, 1115968, Note_on_c, 0, 56, 67
2, 1116032, Note_off_c, 0, 56, 67
2, 1116032, Note_on_c, 0, 63, 67
2, 1116096, Note_off_c, 0, 63, 67
2, 1116096, Note_on_c, 0, 68, 67
2, 1116144, Control_c, 0, 93, 0
2, 1116160, Note_off_c, 0, 68, 67
2, 1116160, Note_on_c, 0, 46, 67
2, 1116224, Note_off_c, 0, 46, 67
2, 1116224, Note_on_c, 0, 53, 67
2, 1116288, Note_off_c, 0, 53, 67
2, 1116288, Note_on_c, 0, 58, 67
2, 1116352, Note_off_c, 0, 58, 67
2, 1116352, Note_on_c, 0, 60, 67
2, 1116416, Note_off_c, 0, 60, 67
2, 1116416, Note_on_c, 0, 62, 67
2, 1116480, Note_off_c, 0, 62, 67
2, 1116480, Note_on_c, 0, 58, 67
2, 1116544, Note_off_c, 0, 58, 67
2, 1116544, Note_on_c, 0, 65, 67
2, 1116608, Note_off_c, 0, 65, 67
2, 1116608, Note_on_c, 0, 70, 67
2, 1116656, Control_c, 0, 93, 0
2, 1116672, Note_off_c, 0, 70, 67
2, 1116672, Note_on_c, 0, 41, 67
2, 1116736, Note_off_c, 0, 41, 67
2, 1116736, Note_on_c, 0, 44, 67
2, 1116800, Note_off_c, 0, 44, 67
2, 1116800, Control_c, 0, 64, 64
2, 1116800, Note_on_c, 0, 50, 67
2, 1116821, Note_off_c, 0, 50, 67
2, 1116821, Note_on_c, 0, 53, 67
2, 1116842, Note_off_c, 0, 53, 67
2, 1116842, Note_on_c, 0, 58, 67
2, 1116863, Note_off_c, 0, 58, 67
2, 1116864, Control_c, 0, 93, 0
2, 1116864, Note_on_c, 0, 62, 67
2, 1116885, Note_off_c, 0, 62, 67
2, 1116885, Note_on_c, 0, 65, 67
2, 1116906, Note_off_c, 0, 65, 67
2, 1116906, Note_on_c, 0, 70, 67
2, 1116928, Control_c, 0, 93, 0
2, 1116928, Control_c, 0, 64, 0
2, 1117056, Note_off_c, 0, 70, 67
2, 1117056, Note_on_c, 0, 51, 67
2, 1117120, Note_off_c, 0, 51, 67
2, 1117120, Note_on_c, 0, 46, 67
2, 1117184, Note_off_c, 0, 46, 67
2, 1117184, Note_on_c, 0, 39, 67
2, 1117248, Note_off_c, 0, 39, 67
2, 1117248, Note_on_c, 0, 46, 67
2, 1117312, Note_off_c, 0, 46, 67
2, 1117312, Note_on_c, 0, 51, 67
2, 1117376, Note_off_c, 0, 51, 67
2, 1117376, Note_on_c, 0, 53, 67
2, 1117440, Note_off_c, 0, 53, 67
2, 1117440, Note_on_c, 0, 55, 67
2, 1117504, Note_off_c, 0, 55, 67
2, 1117504, Note_on_c, 0, 51, 67
2, 1117568, Note_off_c, 0, 51, 67
2, 1117568, Note_on_c, 0, 58, 67
2, 1117632, Note_off_c, 0, 58, 67
2, 1117632, Note_on_c, 0, 63, 67
2, 1117680, Control_c, 0, 93, 0
2, 1117696, Note_off_c, 0, 63, 67
2, 1117696, Note_on_c, 0, 44, 67
2, 1117760, Note_off_c, 0, 44, 67
2, 1117760, Note_on_c, 0, 51, 67
2, 1117824, Note_off_c, 0, 51, 67
2, 1117824, Note_on_c, 0, 56, 67
2, 1117888, Note_off_c, 0, 56, 67
2, 1117888, Note_on_c, 0, 58, 67
2, 1117952, Note_off_c, 0, 58, 67
2, 1117952, Note_on_c, 0, 60, 67
2, 1118016, Note_off_c, 0, 60, 67
2, 1118016, Note_on_c, 0, 56, 67
2, 1118080, Note_off_c, 0, 56, 67
2, 1118080, Note_on_c, 0, 63, 67
2, 1118144, Note_off_c, 0, 63, 67
2, 1118144, Note_on_c, 0, 68, 67
2, 1118192, Control_c, 0, 93, 0
2, 1118208, Note_off_c, 0, 68, 67
2, 1118208, Note_on_c, 0, 46, 67
2, 1118272, Note_off_c, 0, 46, 67
2, 1118272, Note_on_c, 0, 53, 67
2, 1118336, Note_off_c, 0, 53, 67
2, 1118336, Note_on_c, 0, 58, 67
2, 1118400, Note_off_c, 0, 58, 67
2, 1118400, Note_on_c, 0, 60, 67
2, 1118464, Note_off_c, 0, 60, 67
2, 1118464, Note_on_c, 0, 62, 67
2, 1118528, Note_off_c, 0, 62, 67
2, 1118528, Note_on_c, 0, 58, 67
2, 1118592, Note_off_c, 0, 58, 67
2, 1118592, Note_on_c, 0, 65, 67
2, 1118656, Note_off_c, 0, 65, 67
2, 1118656, Note_on_c, 0, 70, 67
2, 1118704, Control_c, 0, 93, 0
2, 1118720, Note_off_c, 0, 70, 67
2, 1118720, Note_on_c, 0, 39, 67
2, 1118784, Note_off_c, 0, 39, 67
2, 1118784, Note_on_c, 0, 46, 67
2, 1118848, Note_off_c, 0, 46, 67
2, 1118848, Note_on_c, 0, 51, 67
2, 1118912, Note_off_c, 0, 51, 67
2, 1118912, Control_c, 0, 64, 64
2, 1118912, Note_on_c, 0, 55, 67
2, 1118922, Note_off_c, 0, 55, 67
2, 1118922, Note_on_c, 0, 58, 67
2, 1118933, Note_off_c, 0, 58, 67
2, 1118933, Note_on_c, 0, 63, 67
2, 1118943, Note_off_c, 0, 63, 67
2, 1118944, Control_c, 0, 93, 0
2, 1118944, Note_on_c, 0, 67, 67
2, 1118954, Note_off_c, 0, 67, 67
2, 1118954, Note_on_c, 0, 70, 67
2, 1118965, Note_off_c, 0, 70, 67
2, 1118965, Note_on_c, 0, 75, 67
2, 1118975, Note_off_c, 0, 75, 67
2, 1118976, Control_c, 0, 93, 0
2, 1119104, Control_c, 0, 93, 0
2, 1119168, Control_c, 0, 93, 0
2, 1119168, Control_c, 0, 64, 0
2, 1119232, Control_c, 0, 93, 0
2, 1119232, Note_on_c, 0, 51, 67
2, 1119296, Note_off_c, 0, 51, 67
2, 1119360, Note_off_c, 0, 51, 67
2, 1119360, Note_on_c, 0, 63, 67
2, 1119424, Note_off_c, 0, 63, 67
2, 1119488, Note_off_c, 0, 63, 67
2, 1119488, Note_on_c, 0, 50, 67
2, 1119552, Note_off_c, 0, 50, 67
2, 1119616, Note_off_c, 0, 50, 67
2, 1119616, Note_on_c, 0, 62, 67
2, 1119680, Note_off_c, 0, 62, 67
2, 1119744, Note_off_c, 0, 62, 67
2, 1119744, Note_on_c, 0, 48, 67
2, 1119808, Note_off_c, 0, 48, 67
2, 1119872, Note_off_c, 0, 48, 67
2, 1119872, Note_on_c, 0, 60, 67
2, 1119936, Note_off_c, 0, 60, 67
2, 1120000, Note_off_c, 0, 60, 67
2, 1120000, Note_on_c, 0, 46, 67
2, 1120064, Note_off_c, 0, 46, 67
2, 1120128, Note_off_c, 0, 46, 67
2, 1120128, Note_on_c, 0, 58, 67
2, 1120192, Note_off_c, 0, 58, 67
2, 1120256, Note_off_c, 0, 58, 67
2, 1120256, Note_on_c, 0, 51, 67
2, 1120320, Note_off_c, 0, 51, 67
2, 1120384, Note_off_c, 0, 51, 67
2, 1120384, Note_on_c, 0, 63, 67
2, 1120448, Note_off_c, 0, 63, 67
2, 1120512, Note_off_c, 0, 63, 67
2, 1120512, Note_on_c, 0, 46, 67
2, 1120576, Note_off_c, 0, 46, 67
2, 1120640, Note_off_c, 0, 46, 67
2, 1120640, Note_on_c, 0, 58, 67
2, 1120704, Note_off_c, 0, 58, 67
2, 1120768, Note_off_c, 0, 58, 67
2, 1120768, Note_on_c, 0, 48, 67
2, 1120832, Note_off_c, 0, 48, 67
2, 1120896, Note_off_c, 0, 48, 67
2, 1120896, Note_on_c, 0, 60, 67
2, 1120960, Note_off_c, 0, 60, 67
2, 1121024, Note_off_c, 0, 60, 67
2, 1121024, Note_on_c, 0, 46, 67
2, 1121088, Note_off_c, 0, 46, 67
2, 1121152, Note_off_c, 0, 46, 67
2, 1121152, Note_on_c, 0, 58, 67
2, 1121216, Note_off_c, 0, 58, 67
2, 1121280, Note_off_c, 0, 58, 67
2, 1121280, Note_on_c, 0, 50, 67
2, 1121344, Note_off_c, 0, 50, 67
2, 1121408, Note_off_c, 0, 50, 67
2, 1121408, Note_on_c, 0, 62, 67
2, 1121472, Note_off_c, 0, 62, 67
2, 1121536, Note_off_c, 0, 62, 67
2, 1121536, Note_on_c, 0, 46, 67
2, 1121600, Note_off_c, 0, 46, 67
2, 1121664, Note_off_c, 0, 46, 67
2, 1121664, Note_on_c, 0, 58, 67
2, 1121728, Note_off_c, 0, 58, 67
2, 1121792, Note_off_c, 0, 58, 67
2, 1121792, Note_on_c, 0, 48, 67
2, 1121856, Note_off_c, 0, 48, 67
2, 1121920, Note_off_c, 0, 48, 67
2, 1121920, Note_on_c, 0, 60, 67
2, 1121984, Note_off_c, 0, 60, 67
2, 1122048, Note_off_c, 0, 60, 67
2, 1122048, Note_on_c, 0, 49, 67
2, 1122112, Note_off_c, 0, 49, 67
2, 1122176, Note_off_c, 0, 49, 67
2, 1122176, Note_on_c, 0, 61, 67
2, 1122240, Note_off_c, 0, 61, 67
2, 1122304, Note_off_c, 0, 61, 67
2, 1122304, Note_on_c, 0, 50, 67
2, 1122368, Note_off_c, 0, 50, 67
2, 1122432, Note_off_c, 0, 50, 67
2, 1122432, Note_on_c, 0, 62, 67
2, 1122496, Note_off_c, 0, 62, 67
2, 1122560, Note_off_c, 0, 62, 67
2, 1122560, Note_on_c, 0, 46, 67
2, 1122624, Note_off_c, 0, 46, 67
2, 1122688, Note_off_c, 0, 46, 67
2, 1122688, Note_on_c, 0, 58, 67
2, 1122752, Note_off_c, 0, 58, 67
2, 1122816, Note_off_c, 0, 58, 67
2, 1122816, Note_on_c, 0, 51, 67
2, 1122880, Note_off_c, 0, 51, 67
2, 1122944, Note_off_c, 0, 51, 67
2, 1122944, Note_on_c, 0, 63, 67
2, 1123008, Note_off_c, 0, 63, 67
2, 1123072, Note_off_c, 0, 63, 67
2, 1123072, Note_on_c, 0, 46, 67
2, 1123136, Note_off_c, 0, 46, 67
2, 1123200, Note_off_c, 0, 46, 67
2, 1123200, Note_on_c, 0, 58, 67
2, 1123264, Note_off_c, 0, 58, 67
2, 1123328, Note_off_c, 0, 58, 67
2, 1123328, Note_on_c, 0, 51, 67
2, 1123392, Note_off_c, 0, 51, 67
2, 1123456, Note_off_c, 0, 51, 67
2, 1123456, Note_on_c, 0, 63, 67
2, 1123520, Note_off_c, 0, 63, 67
2, 1123584, Note_off_c, 0, 63, 67
2, 1123584, Note_on_c, 0, 50, 67
2, 1123648, Note_off_c, 0, 50, 67
2, 1123712, Note_off_c, 0, 50, 67
2, 1123712, Note_on_c, 0, 62, 67
2, 1123776, Note_off_c, 0, 62, 67
2, 1123840, Note_off_c, 0, 62, 67
2, 1123840, Note_on_c, 0, 48, 67
2, 1123904, Note_off_c, 0, 48, 67
2, 1123968, Note_off_c, 0, 48, 67
2, 1123968, Note_on_c, 0, 60, 67
2, 1124032, Note_off_c, 0, 60, 67
2, 1124096, Note_off_c, 0, 60, 67
2, 1124096, Note_on_c, 0, 46, 67
2, 1124160, Note_off_c, 0, 46, 67
2, 1124224, Note_off_c, 0, 46, 67
2, 1124224, Note_on_c, 0, 58, 67
2, 1124288, Note_off_c, 0, 58, 67
2, 1124352, Note_off_c, 0, 58, 67
2, 1124352, Note_on_c, 0, 51, 67
2, 1124416, Note_off_c, 0, 51, 67
2, 1124480, Note_off_c, 0, 51, 67
2, 1124480, Note_on_c, 0, 63, 67
2, 1124544, Note_off_c, 0, 63, 67
2, 1124608, Note_off_c, 0, 63, 67
2, 1124608, Note_on_c, 0, 46, 67
2, 1124672, Note_off_c, 0, 46, 67
2, 1124736, Note_off_c, 0, 46, 67
2, 1124736, Note_on_c, 0, 58, 67
2, 1124800, Note_off_c, 0, 58, 67
2, 1124864, Note_off_c, 0, 58, 67
2, 1124864, Note_on_c, 0, 48, 67
2, 1124928, Note_off_c, 0, 48, 67
2, 1124992, Note_off_c, 0, 48, 67
2, 1124992, Note_on_c, 0, 60, 67
2, 1125056, Note_off_c, 0, 60, 67
2, 1125120, Note_off_c, 0, 60, 67
2, 1125120, Note_on_c, 0, 46, 67
2, 1125184, Note_off_c, 0, 46, 67
2, 1125248, Note_off_c, 0, 46, 67
2, 1125248, Note_on_c, 0, 58, 67
2, 1125312, Note_off_c, 0, 58, 67
2, 1125376, Note_off_c, 0, 58, 67
2, 1125376, Note_on_c, 0, 50, 67
2, 1125440, Note_off_c, 0, 50, 67
2, 1125504, Note_off_c, 0, 50, 67
2, 1125504, Note_on_c, 0, 62, 67
2, 1125568, Note_off_c, 0, 62, 67
2, 1125632, Note_off_c, 0, 62, 67
2, 1125632, Note_on_c, 0, 48, 67
2, 1125696, Note_off_c, 0, 48, 67
2, 1125760, Note_off_c, 0, 48, 67
2, 1125760, Note_on_c, 0, 60, 67
2, 1125824, Note_off_c, 0, 60, 67
2, 1125888, Note_off_c, 0, 60, 67
2, 1125888, Note_on_c, 0, 46, 67
2, 1125952, Note_off_c, 0, 46, 67
2, 1126016, Note_off_c, 0, 46, 67
2, 1126016, Note_on_c, 0, 58, 67
2, 1126080, Note_off_c, 0, 58, 67
2, 1126144, Note_off_c, 0, 58, 67
2, 1126144, Note_on_c, 0, 48, 67
2, 1126208, Note_off_c, 0, 48, 67
2, 1126272, Note_off_c, 0, 48, 67
2, 1126272, Note_on_c, 0, 60, 67
2, 1126336, Note_off_c, 0, 60, 67
2, 1126400, Note_off_c, 0, 60, 67
2, 1126400, Note_on_c, 0, 50, 67
2, 1126464, Note_off_c, 0, 50, 67
2, 1126528, Note_off_c, 0, 50, 67
2, 1126528, Note_on_c, 0, 62, 67
2, 1126592, Note_off_c, 0, 62, 67
2, 1126656, Note_off_c, 0, 62, 67
2, 1126656, Note_on_c, 0, 46, 67
2, 1126720, Note_off_c, 0, 46, 67
2, 1126784, Note_off_c, 0, 46, 67
2, 1126784, Note_on_c, 0, 58, 67
2, 1126848, Note_off_c, 0, 58, 67
2, 1126912, Note_off_c, 0, 58, 67
2, 1126912, Note_on_c, 0, 51, 67
2, 1126976, Note_off_c, 0, 51, 67
2, 1127040, Note_off_c, 0, 51, 67
2, 1127040, Note_on_c, 0, 63, 67
2, 1127104, Note_off_c, 0, 63, 67
2, 1127168, Note_off_c, 0, 63, 67
2, 1127168, Note_on_c, 0, 46, 67
2, 1127232, Note_off_c, 0, 46, 67
2, 1127296, Note_off_c, 0, 46, 67
2, 1127296, Note_on_c, 0, 58, 67
2, 1127360, Note_off_c, 0, 58, 67
2, 1127424, Note_off_c, 0, 58, 67
2, 1127424, Note_on_c, 0, 39, 67
2, 1127488, Note_off_c, 0, 39, 67
2, 1127488, Note_on_c, 0, 46, 67
2, 1127552, Note_off_c, 0, 46, 67
2, 1127552, Note_on_c, 0, 51, 67
2, 1127616, Note_off_c, 0, 51, 67
2, 1127616, Note_on_c, 0, 53, 67
2, 1127680, Note_off_c, 0, 53, 67
2, 1127680, Note_on_c, 0, 55, 67
2, 1127744, Note_off_c, 0, 55, 67
2, 1127744, Note_on_c, 0, 51, 67
2, 1127808, Note_off_c, 0, 51, 67
2, 1127808, Note_on_c, 0, 58, 67
2, 1127872, Note_off_c, 0, 58, 67
2, 1127872, Note_on_c, 0, 63, 67
2, 1127920, Control_c, 0, 93, 0
2, 1127936, Note_off_c, 0, 63, 67
2, 1127936, Note_on_c, 0, 44, 67
2, 1128000, Note_off_c, 0, 44, 67
2, 1128000, Note_on_c, 0, 51, 67
2, 1128064, Note_off_c, 0, 51, 67
2, 1128064, Note_on_c, 0, 56, 67
2, 1128128, Note_off_c, 0, 56, 67
2, 1128128, Note_on_c, 0, 58, 67
2, 1128192, Note_off_c, 0, 58, 67
2, 1128192, Note_on_c, 0, 60, 67
2, 1128256, Note_off_c, 0, 60, 67
2, 1128256, Note_on_c, 0, 56, 67
2, 1128320, Note_off_c, 0, 56, 67
2, 1128320, Note_on_c, 0, 63, 67
2, 1128384, Note_off_c, 0, 63, 67
2, 1128384, Note_on_c, 0, 68, 67
2, 1128432, Control_c, 0, 93, 0
2, 1128448, Note_off_c, 0, 68, 67
2, 1128448, Note_on_c, 0, 46, 67
2, 1128512, Note_off_c, 0, 46, 67
2, 1128512, Note_on_c, 0, 53, 67
2, 1128576, Note_off_c, 0, 53, 67
2, 1128576, Note_on_c, 0, 58, 67
2, 1128640, Note_off_c, 0, 58, 67
2, 1128640, Note_on_c, 0, 60, 67
2, 1128704, Note_off_c, 0, 60, 67
2, 1128704, Note_on_c, 0, 62, 67
2, 1128768, Note_off_c, 0, 62, 67
2, 1128768, Note_on_c, 0, 58, 67
2, 1128832, Note_off_c, 0, 58, 67
2, 1128832, Note_on_c, 0, 65, 67
2, 1128896, Note_off_c, 0, 65, 67
2, 1128896, Note_on_c, 0, 70, 67
2, 1128944, Control_c, 0, 93, 0
2, 1128960, Note_off_c, 0, 70, 67
2, 1128960, Note_on_c, 0, 41, 67
2, 1129024, Note_off_c, 0, 41, 67
2, 1129024, Note_on_c, 0, 44, 67
2, 1129088, Note_off_c, 0, 44, 67
2, 1129088, Control_c, 0, 64, 64
2, 1129088, Note_on_c, 0, 50, 67
2, 1129109, Note_off_c, 0, 50, 67
2, 1129109, Note_on_c, 0, 53, 67
2, 1129130, Note_off_c, 0, 53, 67
2, 1129130, Note_on_c, 0, 58, 67
2, 1129151, Note_off_c, 0, 58, 67
2, 1129152, Control_c, 0, 93, 0
2, 1129152, Note_on_c, 0, 62, 67
2, 1129173, Note_off_c, 0, 62, 67
2, 1129173, Note_on_c, 0, 65, 67
2, 1129194, Note_off_c, 0, 65, 67
2, 1129194, Note_on_c, 0, 70, 67
2, 1129216, Control_c, 0, 93, 0
2, 1129216, Control_c, 0, 64, 0
2, 1129344, Note_off_c, 0, 70, 67
2, 1129344, Note_on_c, 0, 51, 67
2, 1129408, Note_off_c, 0, 51, 67
2, 1129408, Note_on_c, 0, 46, 67
2, 1129472, Note_off_c, 0, 46, 67
2, 1129472, Note_on_c, 0, 39, 67
2, 1129536, Note_off_c, 0, 39, 67
2, 1129536, Note_on_c, 0, 46, 67
2, 1129600, Note_off_c, 0, 46, 67
2, 1129600, Note_on_c, 0, 51, 67
2, 1129664, Note_off_c, 0, 51, 67
2, 1129664, Note_on_c, 0, 53, 67
2, 1129728, Note_off_c, 0, 53, 67
2, 1129728, Note_on_c, 0, 55, 67
2, 1129792, Note_off_c, 0, 55, 67
2, 1129792, Note_on_c, 0, 51, 67
2, 1129856, Note_off_c, 0, 51, 67
2, 1129856, Note_on_c, 0, 58, 67
2, 1129920, Note_off_c, 0, 58, 67
2, 1129920, Note_on_c, 0, 63, 67
2, 1129968, Control_c, 0, 93, 0
2, 1129984, Note_off_c, 0, 63, 67
2, 1129984, Note_on_c, 0, 44, 67
2, 1130048, Note_off_c, 0, 44, 67
2, 1130048, Note_on_c, 0, 51, 67
2, 1130112, Note_off_c, 0, 51, 67
2, 1130112, Note_on_c, 0, 56, 67
2, 1130176, Note_off_c, 0, 56, 67
2, 1130176, Note_on_c, 0, 58, 67
2, 1130240, Note_off_c, 0, 58, 67
2, 1130240, Note_on_c, 0, 60, 67
2, 1130304, Note_off_c, 0, 60, 67
2, 1130304, Note_on_c, 0, 56, 67
2, 1130368, Note_off_c, 0, 56, 67
2, 1130368, Note_on_c, 0, 63, 67
2, 1130432, Note_off_c, 0, 63, 67
2, 1130432, Note_on_c, 0, 68, 67
2, 1130480, Control_c, 0, 93, 0
2, 1130496, Note_off_c, 0, 68, 67
2, 1130496, Note_on_c, 0, 46, 67
2, 1130560, Note_off_c, 0, 46, 67
2, 1130560, Note_on_c, 0, 53, 67
2, 1130624, Note_off_c, 0, 53, 67
2, 1130624, Note_on_c, 0, 58, 67
2, 1130688, Note_off_c, 0, 58, 67
2, 1130688, Note_on_c, 0, 60, 67
2, 1130752, Note_off_c, 0, 60, 67
2, 1130752, Note_on_c, 0, 62, 67
2, 1130816, Note_off_c, 0, 62, 67
2, 1130816, Note_on_c, 0, 58, 67
2, 1130880, Note_off_c, 0, 58, 67
2, 1130880, Note_on_c, 0, 65, 67
2, 1130944, Note_off_c, 0, 65, 67
2, 1130944, Note_on_c, 0, 70, 67
2, 1130992, Control_c, 0, 93, 0
2, 1131008, Note_off_c, 0, 70, 67
2, 1131008, Note_on_c, 0, 39, 67
2, 1131072, Note_off_c, 0, 39, 67
2, 1131072, Note_on_c, 0, 46, 67
2, 1131136, Note_off_c, 0, 46, 67
2, 1131136, Note_on_c, 0, 51, 67
2, 1131200, Note_off_c, 0, 51, 67
2, 1131200, Control_c, 0, 64, 64
2, 1131200, Note_on_c, 0, 55, 67
2, 1131210, Note_off_c, 0, 55, 67
2, 1131210, Note_on_c, 0, 58, 67
2, 1131221, Note_off_c, 0, 58, 67
2, 1131221, Note_on_c, 0, 63, 67
2, 1131231, Note_off_c, 0, 63, 67
2, 1131232, Control_c, 0, 93, 0
2, 1131232, Note_on_c, 0, 67, 67
2, 1131242, Note_off_c, 0, 67, 67
2, 1131242, Note_on_c, 0, 70, 67
2, 1131253, Note_off_c, 0, 70, 67
2, 1131253, Note_on_c, 0, 75, 67
2, 1131263, Note_off_c, 0, 75, 67
2, 1131264, Control_c, 0, 93, 0
2, 1131392, Control_c, 0, 93, 0
2, 1131456, Control_c, 0, 93, 0
2, 1131456, Control_c, 0, 64, 0
2, 1131520, Control_c, 0, 93, 0
2, 1131520, Note_on_c, 0, 51, 67
2, 1131584, Note_off_c, 0, 51, 67
2, 1131648, Note_off_c, 0, 51, 67
2, 1131648, Note_on_c, 0, 63, 67
2, 1131712, Note_off_c, 0, 63, 67
2, 1131776, Note_off_c, 0, 63, 67
2, 1131776, Note_on_c, 0, 50, 67
2, 1131840, Note_off_c, 0, 50, 67
2, 1131904, Note_off_c, 0, 50, 67
2, 1131904, Note_on_c, 0, 62, 67
2, 1131968, Note_off_c, 0, 62, 67
2, 1132032, Note_off_c, 0, 62, 67
2, 1132032, Note_on_c, 0, 48, 67
2, 1132096, Note_off_c, 0, 48, 67
2, 1132160, Note_off_c, 0, 48, 67
2, 1132160, Note_on_c, 0, 60, 67
2, 1132224, Note_off_c, 0, 60, 67
2, 1132288, Note_off_c, 0, 60, 67
2, 1132288, Note_on_c, 0, 46, 67
2, 1132352, Note_off_c, 0, 46, 67
2, 1132416, Note_off_c, 0, 46, 67
2, 1132416, Note_on_c, 0, 58, 67
2, 1132480, Note_off_c, 0, 58, 67
2, 1132544, Note_off_c, 0, 58, 67
2, 1132544, Note_on_c, 0, 51, 67
2, 1132608, Note_off_c, 0, 51, 67
2, 1132672, Note_off_c, 0, 51, 67
2, 1132672, Note_on_c, 0, 63, 67
2, 1132736, Note_off_c, 0, 63, 67
2, 1132800, Note_off_c, 0, 63, 67
2, 1132800, Note_on_c, 0, 46, 67
2, 1132864, Note_off_c, 0, 46, 67
2, 1132928, Note_off_c, 0, 46, 67
2, 1132928, Note_on_c, 0, 58, 67
2, 1132992, Note_off_c, 0, 58, 67
2, 1133056, Note_off_c, 0, 58, 67
2, 1133056, Note_on_c, 0, 48, 67
2, 1133120, Note_off_c, 0, 48, 67
2, 1133184, Note_off_c, 0, 48, 67
2, 1133184, Note_on_c, 0, 60, 67
2, 1133248, Note_off_c, 0, 60, 67
2, 1133312, Note_off_c, 0, 60, 67
2, 1133312, Note_on_c, 0, 46, 67
2, 1133376, Note_off_c, 0, 46, 67
2, 1133440, Note_off_c, 0, 46, 67
2, 1133440, Note_on_c, 0, 58, 67
2, 1133504, Note_off_c, 0, 58, 67
2, 1133568, Note_off_c, 0, 58, 67
2, 1133568, Note_on_c, 0, 50, 67
2, 1133632, Note_off_c, 0, 50, 67
2, 1133696, Note_off_c, 0, 50, 67
2, 1133696, Note_on_c, 0, 62, 67
2, 1133760, Note_off_c, 0, 62, 67
2, 1133824, Note_off_c, 0, 62, 67
2, 1133824, Note_on_c, 0, 46, 67
2, 1133888, Note_off_c, 0, 46, 67
2, 1133952, Note_off_c, 0, 46, 67
2, 1133952, Note_on_c, 0, 58, 67
2, 1134016, Note_off_c, 0, 58, 67
2, 1134080, Note_off_c, 0, 58, 67
2, 1134080, Note_on_c, 0, 48, 67
2, 1134144, Note_off_c, 0, 48, 67
2, 1134208, Note_off_c, 0, 48, 67
2, 1134208, Note_on_c, 0, 60, 67
2, 1134272, Note_off_c, 0, 60, 67
2, 1134336, Note_off_c, 0, 60, 67
2, 1134336, Note_on_c, 0, 49, 67
2, 1134400, Note_off_c, 0, 49, 67
2, 1134464, Note_off_c, 0, 49, 67
2, 1134464, Note_on_c, 0, 61, 67
2, 1134528, Note_off_c, 0, 61, 67
2, 1134592, Note_off_c, 0, 61, 67
2, 1134592, Note_on_c, 0, 50, 67
2, 1134656, Note_off_c, 0, 50, 67
2, 1134720, Note_off_c, 0, 50, 67
2, 1134720, Note_on_c, 0, 62, 67
2, 1134784, Note_off_c, 0, 62, 67
2, 1134848, Note_off_c, 0, 62, 67
2, 1134848, Note_on_c, 0, 46, 67
2, 1134912, Note_off_c, 0, 46, 67
2, 1134976, Note_off_c, 0, 46, 67
2, 1134976, Note_on_c, 0, 58, 67
2, 1135040, Note_off_c, 0, 58, 67
2, 1135104, Note_off_c, 0, 58, 67
2, 1135104, Note_on_c, 0, 51, 67
2, 1135168, Note_off_c, 0, 51, 67
2, 1135232, Note_off_c, 0, 51, 67
2, 1135232, Note_on_c, 0, 63, 67
2, 1135296, Note_off_c, 0, 63, 67
2, 1135360, Note_off_c, 0, 63, 67
2, 1135360, Note_on_c, 0, 46, 67
2, 1135424, Note_off_c, 0, 46, 67
2, 1135488, Note_off_c, 0, 46, 67
2, 1135488, Note_on_c, 0, 58, 67
2, 1135552, Note_off_c, 0, 58, 67
2, 1135616, Note_off_c, 0, 58, 67
2, 1135616, Note_on_c, 0, 51, 67
2, 1135680, Note_off_c, 0, 51, 67
2, 1135744, Note_off_c, 0, 51, 67
2, 1135744, Note_on_c, 0, 63, 67
2, 1135808, Note_off_c, 0, 63, 67
2, 1135872, Note_off_c, 0, 63, 67
2, 1135872, Note_on_c, 0, 50, 67
2, 1135936, Note_off_c, 0, 50, 67
2, 1136000, Note_off_c, 0, 50, 67
2, 1136000, Note_on_c, 0, 62, 67
2, 1136064, Note_off_c, 0, 62, 67
2, 1136128, Note_off_c, 0, 62, 67
2, 1136128, Note_on_c, 0, 48, 67
2, 1136192, Note_off_c, 0, 48, 67
2, 1136256, Note_off_c, 0, 48, 67
2, 1136256, Note_on_c, 0, 60, 67
2, 1136320, Note_off_c, 0, 60, 67
2, 1136384, Note_off_c, 0, 60, 67
2, 1136384, Note_on_c, 0, 46, 67
2, 1136448, Note_off_c, 0, 46, 67
2, 1136512, Note_off_c, 0, 46, 67
2, 1136512, Note_on_c, 0, 58, 67
2, 1136576, Note_off_c, 0, 58, 67
2, 1136640, Note_off_c, 0, 58, 67
2, 1136640, Note_on_c, 0, 51, 67
2, 1136704, Note_off_c, 0, 51, 67
2, 1136768, Note_off_c, 0, 51, 67
2, 1136768, Note_on_c, 0, 63, 67
2, 1136832, Note_off_c, 0, 63, 67
2, 1136896, Note_off_c, 0, 63, 67
2, 1136896, Note_on_c, 0, 46, 67
2, 1136960, Note_off_c, 0, 46, 67
2, 1137024, Note_off_c, 0, 46, 67
2, 1137024, Note_on_c, 0, 58, 67
2, 1137088, Note_off_c, 0, 58, 67
2, 1137152, Note_off_c, 0, 58, 67
2, 1137152, Note_on_c, 0, 48, 67
2, 1137216, Note_off_c, 0, 48, 67
2, 1137280, Note_off_c, 0, 48, 67
2, 1137280, Note_on_c, 0, 60, 67
2, 1137344, Note_off_c, 0, 60, 67
2, 1137408, Note_off_c, 0, 60, 67
2, 1137408, Note_on_c, 0, 46, 67
2, 1137472, Note_off_c, 0, 46, 67
2, 1137536, Note_off_c, 0, 46, 67
2, 1137536, Note_on_c, 0, 58, 67
2, 1137600, Note_off_c, 0, 58, 67
2, 1137664, Note_off_c, 0, 58, 67
2, 1137664, Note_on_c, 0, 50, 67
2, 1137728, Note_off_c, 0, 50, 67
2, 1137792, Note_off_c, 0, 50, 67
2, 1137792, Note_on_c, 0, 62, 67
2, 1137856, Note_off_c, 0, 62, 67
2, 1137920, Note_off_c, 0, 62, 67
2, 1137920, Note_on_c, 0, 48, 67
2, 1137984, Note_off_c, 0, 48, 67
2, 1138048, Note_off_c, 0, 48, 67
2, 1138048, Note_on_c, 0, 60, 67
2, 1138112, Note_off_c, 0, 60, 67
2, 1138176, Note_off_c, 0, 60, 67
2, 1138176, Note_on_c, 0, 46, 67
2, 1138240, Note_off_c, 0, 46, 67
2, 1138304, Note_off_c, 0, 46, 67
2, 1138304, Note_on_c, 0, 58, 67
2, 1138368, Note_off_c, 0, 58, 67
2, 1138432, Note_off_c, 0, 58, 67
2, 1138432, Note_on_c, 0, 48, 67
2, 1138496, Note_off_c, 0, 48, 67
2, 1138560, Note_off_c, 0, 48, 67
2, 1138560, Note_on_c, 0, 60, 67
2, 1138624, Note_off_c, 0, 60, 67
2, 1138688, Note_off_c, 0, 60, 67
2, 1138688, Note_on_c, 0, 50, 67
2, 1138752, Note_off_c, 0, 50, 67
2, 1138816, Note_off_c, 0, 50, 67
2, 1138816, Note_on_c, 0, 62, 67
2, 1138880, Note_off_c, 0, 62, 67
2, 1138944, Note_off_c, 0, 62, 67
2, 1138944, Note_on_c, 0, 46, 67
2, 1139008, Note_off_c, 0, 46, 67
2, 1139072, Note_off_c, 0, 46, 67
2, 1139072, Note_on_c, 0, 58, 67
2, 1139136, Note_off_c, 0, 58, 67
2, 1139200, Note_off_c, 0, 58, 67
2, 1139200, Note_on_c, 0, 51, 67
2, 1139264, Note_off_c, 0, 51, 67
2, 1139328, Note_off_c, 0, 51, 67
2, 1139328, Note_on_c, 0, 63, 67
2, 1139392, Note_off_c, 0, 63, 67
2, 1139456, Note_off_c, 0, 63, 67
2, 1139456, Note_on_c, 0, 46, 67
2, 1139520, Note_off_c, 0, 46, 67
2, 1139584, Note_off_c, 0, 46, 67
2, 1139584, Note_on_c, 0, 58, 67
2, 1139648, Note_off_c, 0, 58, 67
2, 1139712, Note_off_c, 0, 58, 67
2, 1139712, Note_on_c, 0, 39, 67
2, 1139776, Note_off_c, 0, 39, 67
2, 1139776, Note_on_c, 0, 46, 67
2, 1139840, Note_off_c, 0, 46, 67
2, 1139840, Note_on_c, 0, 51, 67
2, 1139904, Note_off_c, 0, 51, 67
2, 1139904, Note_on_c, 0, 53, 67
2, 1139968, Note_off_c, 0, 53, 67
2, 1139968, Note_on_c, 0, 55, 67
2, 1140032, Note_off_c, 0, 55, 67
2, 1140032, Note_on_c, 0, 51, 67
2, 1140096, Note_off_c, 0, 51, 67
2, 1140096, Note_on_c, 0, 58, 67
2, 1140160, Note_off_c, 0, 58, 67
2, 1140160, Note_on_c, 0, 63, 67
2, 1140208, Control_c, 0, 93, 0
2, 1140224, Note_off_c, 0, 63, 67
2, 1140224, Note_on_c, 0, 44, 67
2, 1140288, Note_off_c, 0, 44, 67
2, 1140288, Note_on_c, 0, 51, 67
2, 1140352, Note_off_c, 0, 51, 67
2, 1140352, Note_on_c, 0, 56, 67
2, 1140416, Note_off_c, 0, 56, 67
2, 1140416, Note_on_c, 0, 58, 67
2, 1140480, Note_off_c, 0, 58, 67
2, 1140480, Note_on_c, 0, 60, 67
2, 1140544, Note_off_c, 0, 60, 67
2, 1140544, Note_on_c, 0, 56, 67
2, 1140608, Note_off_c, 0, 56, 67
2, 1140608, Note_on_c, 0, 63, 67
2, 1140672, Note_off_c, 0, 63, 67
2, 1140672, Note_on_c, 0, 68, 67
2, 1140720, Control_c, 0, 93, 0
2, 1140736, Note_off_c, 0, 68, 67
2, 1140736, Note_on_c, 0, 46, 67
2, 1140800, Note_off_c, 0, 46, 67
2, 1140800, Note_on_c, 0, 53, 67
2, 1140864, Note_off_c, 0, 53, 67
2, 1140864, Note_on_c, 0, 58, 67
2, 1140928, Note_off_c, 0, 58, 67
2, 1140928, Note_on_c, 0, 60, 67
2, 1140992, Note_off_c, 0, 60, 67
2, 1140992, Note_on_c, 0, 62, 67
2, 1141056, Note_off_c, 0, 62, 67
2, 1141056, Note_on_c, 0, 58, 67
2, 1141120, Note_off_c, 0, 58, 67
2, 1141120, Note_on_c, 0, 65, 67
2, 1141184, Note_off_c, 0, 65, 67
2, 1141184, Note_on_c, 0, 70, 67
2, 1141232, Control_c, 0, 93, 0
2, 1141248, Note_off_c, 0, 70, 67
2, 1141248, Note_on_c, 0, 41, 67
2, 1141312, Note_off_c, 0, 41, 67
2, 1141312, Note_on_c, 0, 44, 67
2, 1141376, Note_off_c, 0, 44, 67
2, 1141376, Control_c, 0, 64, 64
2, 1141376, Note_on_c, 0, 50, 67
2, 1141397, Note_off_c, 0, 50, 67
2, 1141397, Note_on_c, 0, 53, 67
2, 1141418, Note_off_c, 0, 53, 67
2, 1141418, Note_on_c, 0, 58, 67
2, 1141439, Note_off_c, 0, 58, 67
2, 1141440, Control_c, 0, 93, 0
2, 1141440, Note_on_c, 0, 62, 67
2, 1141461, Note_off_c, 0, 62, 67
2, 1141461, Note_on_c, 0, 65, 67
2, 1141482, Note_off_c, 0, 65, 67
2, 1141482, Note_on_c, 0, 70, 67
2, 1141504, Control_c, 0, 93, 0
2, 1141504, Control_c, 0, 64, 0
2, 1141632, Note_off_c, 0, 70, 67
2, 1141632, Note_on_c, 0, 51, 67
2, 1141696, Note_off_c, 0, 51, 67
2, 1141696, Note_on_c, 0, 46, 67
2, 1141760, Note_off_c, 0, 46, 67
2, 1141760, Note_on_c, 0, 39, 67
2, 1141824, Note_off_c, 0, 39, 67
2, 1141824, Note_on_c, 0, 46, 67
2, 1141888, Note_off_c, 0, 46, 67
2, 1141888, Note_on_c, 0, 51, 67
2, 1141952, Note_off_c, 0, 51, 67
2, 1141952, Note_on_c, 0, 53, 67
2, 1142016, Note_off_c, 0, 53, 67
2, 1142016, Note_on_c, 0, 55, 67
2, 1142080, Note_off_c, 0, 55, 67
2, 1142080, Note_on_c, 0, 51, 67
2, 1142144, Note_off_c, 0, 51, 67
2, 1142144, Note_on_c, 0, 58, 67
2, 1142208, Note_off_c, 0, 58, 67
2, 1142208, Note_on_c, 0, 63, 67
2, 1142256, Control_c, 0, 93, 0
2, 1142272, Note_off_c, 0, 63, 67
2, 1142272, Note_on_c, 0, 44, 67
2, 1142336, Note_off_c, 0, 44, 67
2, 1142336, Note_on_c, 0, 51, 67
2, 1142400, Note_off_c, 0, 51, 67
2, 1142400, Note_on_c, 0, 56, 67
2, 1142464, Note_off_c, 0, 56, 67
2, 1142464, Note_on_c, 0, 58, 67
2, 1142528, Note_off_c, 0, 58, 67
2, 1142528, Note_on_c, 0, 60, 67
2, 1142592, Note_off_c, 0, 60, 67
2, 1142592, Note_on_c, 0, 56, 67
2, 1142656, Note_off_c, 0, 56, 67
2, 1142656, Note_on_c, 0, 63, 67
2, 1142720, Note_off_c, 0, 63, 67
2, 1142720, Note_on_c, 0, 68, 67
2, 1142768, Control_c, 0, 93, 0
2, 1142784, Note_off_c, 0, 68, 67
2, 1142784, Note_on_c, 0, 46, 67
2, 1142848, Note_off_c, 0, 46, 67
2, 1142848, Note_on_c, 0, 53, 67
2, 1142912, Note_off_c, 0, 53, 67
2, 1142912, Note_on_c, 0, 58, 67
2, 1142976, Note_off_c, 0, 58, 67
2, 1142976, Note_on_c, 0, 60, 67
2, 1143040, Note_off_c, 0, 60, 67
2, 1143040, Note_on_c, 0, 62, 67
2, 1143104, Note_off_c, 0, 62, 67
2, 1143104, Note_on_c, 0, 58, 67
2, 1143168, Note_off_c, 0, 58, 67
2, 1143168, Note_on_c, 0, 65, 67
2, 1143232, Note_off_c, 0, 65, 67
2, 1143232, Note_on_c, 0, 70, 67
2, 1143280, Control_c, 0, 93, 0
2, 1143296, Note_off_c, 0, 70, 67
2, 1143296, Note_on_c, 0, 39, 67
2, 1143360, Note_off_c, 0, 39, 67
2, 1143360, Note_on_c, 0, 46, 67
2, 1143424, Note_off_c, 0, 46, 67
2, 1143424, Note_on_c, 0, 51, 67
2, 1143488, Note_off_c, 0, 51, 67
2, 1143488, Control_c, 0, 64, 64
2, 1143488, Note_on_c, 0, 55, 67
2, 1143498, Note_off_c, 0, 55, 67
2, 1143498, Note_on_c, 0, 58, 67
2, 1143509, Note_off_c, 0, 58, 67
2, 1143509, Note_on_c, 0, 63, 67
2, 1143519, Note_off_c, 0, 63, 67
2, 1143520, Control_c, 0, 93, 0
2, 1143520, Note_on_c, 0, 67, 67
2, 1143530, Note_off_c, 0, 67, 67
2, 1143530, Note_on_c, 0, 70, 67
2, 1143541, Note_off_c, 0, 70, 67
2, 1143541, Note_on_c, 0, 75, 67
2, 1143551, Note_off_c, 0, 75, 67
2, 1143552, Control_c, 0, 93, 0
2, 1143680, Control_c, 0, 93, 0
2, 1143744, Control_c, 0, 93, 0
2, 1143744, Control_c, 0, 64, 0
2, 1143808, Control_c, 0, 93, 0
2, 1143808, Note_on_c, 0, 51, 67
2, 1143872, Note_off_c, 0, 51, 67
2, 1143936, Note_off_c, 0, 51, 67
2, 1143936, Note_on_c, 0, 63, 67
2, 1144000, Note_off_c, 0, 63, 67
2, 1144064, Note_off_c, 0, 63, 67
2, 1144064, Note_on_c, 0, 50, 67
2, 1144128, Note_off_c, 0, 50, 67
2, 1144192, Note_off_c, 0, 50, 67
2, 1144192, Note_on_c, 0, 62, 67
2, 1144256, Note_off_c, 0, 62, 67
2, 1144320, Note_off_c, 0, 62, 67
2, 1144320, Note_on_c, 0, 48, 67
2, 1144384, Note_off_c, 0, 48, 67
2, 1144448, Note_off_c, 0, 48, 67
2, 1144448, Note_on_c, 0, 60, 67
2, 1144512, Note_off_c, 0, 60, 67
2, 1144576, Note_off_c, 0, 60, 67
2, 1144576, Note_on_c, 0, 46, 67
2, 1144640, Note_off_c, 0, 46, 67
2, 1144704, Note_off_c, 0, 46, 67
2, 1144704, Note_on_c, 0, 58, 67
2, 1144768, Note_off_c, 0, 58, 67
2, 1144832, Note_off_c, 0, 58, 67
2, 1144832, Note_on_c, 0, 51, 67
2, 1144896, Note_off_c, 0, 51, 67
2, 1144960, Note_off_c, 0, 51, 67
2, 1144960, Note_on_c, 0, 63, 67
2, 1145024, Note_off_c, 0, 63, 67
2, 1145088, Note_off_c, 0, 63, 67
2, 1145088, Note_on_c, 0, 46, 67
2, 1145152, Note_off_c, 0, 46, 67
2, 1145216, Note_off_c, 0, 46, 67
2, 1145216, Note_on_c, 0, 58, 67
2, 1145280, Note_off_c, 0, 58, 67
2, 1145344, Note_off_c, 0, 58, 67
2, 1145344, Note_on_c, 0, 48, 67
2, 1145408, Note_off_c, 0, 48, 67
2, 1145472, Note_off_c, 0, 48, 67
2, 1145472, Note_on_c, 0, 60, 67
2, 1145536, Note_off_c, 0, 60, 67
2, 1145600, Note_off_c, 0, 60, 67
2, 1145600, Note_on_c, 0, 46, 67
2, 1145664, Note_off_c, 0, 46, 67
2, 1145728, Note_off_c, 0, 46, 67
2, 1145728, Note_on_c, 0, 58, 67
2, 1145792, Note_off_c, 0, 58, 67
2, 1145856, Note_off_c, 0, 58, 67
2, 1145856, Note_on_c, 0, 50, 67
2, 1145920, Note_off_c, 0, 50, 67
2, 1145984, Note_off_c, 0, 50, 67
2, 1145984, Note_on_c, 0, 62, 67
2, 1146048, Note_off_c, 0, 62, 67
2, 1146112, Note_off_c, 0, 62, 67
2, 1146112, Note_on_c, 0, 46, 67
2, 1146176, Note_off_c, 0, 46, 67
2, 1146240, Note_off_c, 0, 46, 67
2, 1146240, Note_on_c, 0, 58, 67
2, 1146304, Note_off_c, 0, 58, 67
2, 1146368, Note_off_c, 0, 58, 67
2, 1146368, Note_on_c, 0, 48, 67
2, 1146432, Note_off_c, 0, 48, 67
2, 1146496, Note_off_c, 0, 48, 67
2, 1146496, Note_on_c, 0, 60, 67
2, 1146560, Note_off_c, 0, 60, 67
2, 1146624, Note_off_c, 0, 60, 67
2, 1146624, Note_on_c, 0, 49, 67
2, 1146688, Note_off_c, 0, 49, 67
2, 1146752, Note_off_c, 0, 49, 67
2, 1146752, Note_on_c, 0, 61, 67
2, 1146816, Note_off_c, 0, 61, 67
2, 1146880, Note_off_c, 0, 61, 67
2, 1146880, Note_on_c, 0, 50, 67
2, 1146944, Note_off_c, 0, 50, 67
2, 1147008, Note_off_c, 0, 50, 67
2, 1147008, Note_on_c, 0, 62, 67
2, 1147072, Note_off_c, 0, 62, 67
2, 1147136, Note_off_c, 0, 62, 67
2, 1147136, Note_on_c, 0, 46, 67
2, 1147200, Note_off_c, 0, 46, 67
2, 1147264, Note_off_c, 0, 46, 67
2, 1147264, Note_on_c, 0, 58, 67
2, 1147328, Note_off_c, 0, 58, 67
2, 1147392, Note_off_c, 0, 58, 67
2, 1147392, Note_on_c, 0, 51, 67
2, 1147456, Note_off_c, 0, 51, 67
2, 1147520, Note_off_c, 0, 51, 67
2, 1147520, Note_on_c, 0, 63, 67
2, 1147584, Note_off_c, 0, 63, 67
2, 1147648, Note_off_c, 0, 63, 67
2, 1147648, Note_on_c, 0, 46, 67
2, 1147712, Note_off_c, 0, 46, 67
2, 1147776, Note_off_c, 0, 46, 67
2, 1147776, Note_on_c, 0, 58, 67
2, 1147840, Note_off_c, 0, 58, 67
2, 1147904, Note_off_c, 0, 58, 67
2, 1147904, Note_on_c, 0, 51, 67
2, 1147968, Note_off_c, 0, 51, 67
2, 1148032, Note_off_c, 0, 51, 67
2, 1148032, Note_on_c, 0, 63, 67
2, 1148096, Note_off_c, 0, 63, 67
2, 1148160, Note_off_c, 0, 63, 67
2, 1148160, Note_on_c, 0, 50, 67
2, 1148224, Note_off_c, 0, 50, 67
2, 1148288, Note_off_c, 0, 50, 67
2, 1148288, Note_on_c, 0, 62, 67
2, 1148352, Note_off_c, 0, 62, 67
2, 1148416, Note_off_c, 0, 62, 67
2, 1148416, Note_on_c, 0, 48, 67
2, 1148480, Note_off_c, 0, 48, 67
2, 1148544, Note_off_c, 0, 48, 67
2, 1148544, Note_on_c, 0, 60, 67
2, 1148608, Note_off_c, 0, 60, 67
2, 1148672, Note_off_c, 0, 60, 67
2, 1148672, Note_on_c, 0, 46, 67
2, 1148736, Note_off_c, 0, 46, 67
2, 1148800, Note_off_c, 0, 46, 67
2, 1148800, Note_on_c, 0, 58, 67
2, 1148864, Note_off_c, 0, 58, 67
2, 1148928, Note_off_c, 0, 58, 67
2, 1148928, Note_on_c, 0, 51, 67
2, 1148992, Note_off_c, 0, 51, 67
2, 1149056, Note_off_c, 0, 51, 67
2, 1149056, Note_on_c, 0, 63, 67
2, 1149120, Note_off_c, 0, 63, 67
2, 1149184, Note_off_c, 0, 63, 67
2, 1149184, Note_on_c, 0, 46, 67
2, 1149248, Note_off_c, 0, 46, 67
2, 1149312, Note_off_c, 0, 46, 67
2, 1149312, Note_on_c, 0, 58, 67
2, 1149376, Note_off_c, 0, 58, 67
2, 1149440, Note_off_c, 0, 58, 67
2, 1149440, Note_on_c, 0, 48, 67
2, 1149504, Note_off_c, 0, 48, 67
2, 1149568, Note_off_c, 0, 48, 67
2, 1149568, Note_on_c, 0, 60, 67
2, 1149632, Note_off_c, 0, 60, 67
2, 1149696, Note_off_c, 0, 60, 67
2, 1149696, Note_on_c, 0, 46, 67
2, 1149760, Note_off_c, 0, 46, 67
2, 1149824, Note_off_c, 0, 46, 67
2, 1149824, Note_on_c, 0, 58, 67
2, 1149888, Note_off_c, 0, 58, 67
2, 1149952, Note_off_c, 0, 58, 67
2, 1149952, Note_on_c, 0, 50, 67
2, 1150016, Note_off_c, 0, 50, 67
2, 1150080, Note_off_c, 0, 50, 67
2, 1150080, Note_on_c, 0, 62, 67
2, 1150144, Note_off_c, 0, 62, 67
2, 1150208, Note_off_c, 0, 62, 67
2, 1150208, Note_on_c, 0, 48, 67
2, 1150272, Note_off_c, 0, 48, 67
2, 1150336, Note_off_c, 0, 48, 67
2, 1150336, Note_on_c, 0, 60, 67
2, 1150400, Note_off_c, 0, 60, 67
2, 1150464, Note_off_c, 0, 60, 67
2, 1150464, Note_on_c, 0, 46, 67
2, 1150528, Note_off_c, 0, 46, 67
2, 1150592, Note_off_c, 0, 46, 67
2, 1150592, Note_on_c, 0, 58, 67
2, 1150656, Note_off_c, 0, 58, 67
2, 1150720, Note_off_c, 0, 58, 67
2, 1150720, Note_on_c, 0, 48, 67
2, 1150784, Note_off_c, 0, 48, 67
2, 1150848, Note_off_c, 0, 48, 67
2, 1150848, Note_on_c, 0, 60, 67
2, 1150912, Note_off_c, 0, 60, 67
2, 1150976, Note_off_c, 0, 60, 67
2, 1150976, Note_on_c, 0, 50, 67
2, 1151040, Note_off_c, 0, 50, 67
2, 1151104, Note_off_c, 0, 50, 67
2, 1151104, Note_on_c, 0, 62, 67
2, 1151168, Note_off_c, 0, 62, 67
2, 1151232, Note_off_c, 0, 62, 67
2, 1151232, Note_on_c, 0, 46, 67
2, 1151296, Note_off_c, 0, 46, 67
2, 1151360, Note_off_c, 0, 46, 67
2, 1151360, Note_on_c, 0, 58, 67
2, 1151424, Note_off_c, 0, 58, 67
2, 1151488, Note_off_c, 0, 58, 67
2, 1151488, Note_on_c, 0, 51, 67
2, 1151552, Note_off_c, 0, 51, 67
2, 1151616, Note_off_c, 0, 51, 67
2, 1151616, Note_on_c, 0, 63, 67
2, 1151680, Note_off_c, 0, 63, 67
2, 1151744, Note_off_c, 0, 63, 67
2, 1151744, Note_on_c, 0, 46, 67
2, 1151808, Note_off_c, 0, 46, 67
2, 1151872, Note_off_c, 0, 46, 67
2, 1151872, Note_on_c, 0, 58, 67
2, 1151936, Note_off_c, 0, 58, 67
2, 1152000, Note_off_c, 0, 58, 67
2, 1152000, Note_on_c, 0, 39, 67
2, 1152064, Note_off_c, 0, 39, 67
2, 1152064, Note_on_c, 0, 46, 67
2, 1152128, Note_off_c, 0, 46, 67
2, 1152128, Note_on_c, 0, 51, 67
2, 1152192, Note_off_c, 0, 51, 67
2, 1152192, Note_on_c, 0, 53, 67
2, 1152256, Note_off_c, 0, 53, 67
2, 1152256, Note_on_c, 0, 55, 67
2, 1152320, Note_off_c, 0, 55, 67
2, 1152320, Note_on_c, 0, 51, 67
2, 1152384, Note_off_c, 0, 51, 67
2, 1152384, Note_on_c, 0, 58, 67
2, 1152448, Note_off_c, 0, 58, 67
2, 1152448, Note_on_c, 0, 63, 67
2, 1152496, Control_c, 0, 93, 0
2, 1152512, Note_off_c, 0, 63, 67
2, 1152512, Note_on_c, 0, 44, 67
2, 1152576, Note_off_c, 0, 44, 67
2, 1152576, Note_on_c, 0, 51, 67
2, 1152640, Note_off_c, 0, 51, 67
2, 1152640, Note_on_c, 0, 56, 67
2, 1152704, Note_off_c, 0, 56, 67
2, 1152704, Note_on_c, 0, 58, 67
2, 1152768, Note_off_c, 0, 58, 67
2, 1152768, Note_on_c, 0, 60, 67
2, 1152832, Note_off_c, 0, 60, 67
2, 1152832, Note_on_c, 0, 56, 67
2, 1152896, Note_off_c, 0, 56, 67
2, 1152896, Note_on_c, 0, 63, 67
2, 1152960, Note_off_c, 0, 63, 67
2, 1152960, Note_on_c, 0, 68, 67
2, 1153008, Control_c, 0, 93, 0
2, 1153024, Note_off_c, 0, 68, 67
2, 1153024, Note_on_c, 0, 46, 67
2, 1153088, Note_off_c, 0, 46, 67
2, 1153088, Note_on_c, 0, 53, 67
2, 1153152, Note_off_c, 0, 53, 67
2, 1153152, Note_on_c, 0, 58, 67
2, 1153216, Note_off_c, 0, 58, 67
2, 1153216, Note_on_c, 0, 60, 67
2, 1153280, Note_off_c, 0, 60, 67
2, 1153280, Note_on_c, 0, 62, 67
2, 1153344, Note_off_c, 0, 62, 67
2, 1153344, Note_on_c, 0, 58, 67
2, 1153408, Note_off_c, 0, 58, 67
2, 1153408, Note_on_c, 0, 65, 67
2, 1153472, Note_off_c, 0, 65, 67
2, 1153472, Note_on_c, 0, 70, 67
2, 1153520, Control_c, 0, 93, 0
2, 1153536, Note_off_c, 0, 70, 67
2, 1153536, Note_on_c, 0, 41, 67
2, 1153600, Note_off_c, 0, 41, 67
2, 1153600, Note_on_c, 0, 44, 67
2, 1153664, Note_off_c, 0, 44, 67
2, 1153664, Control_c, 0, 64, 64
2, 1153664, Note_on_c, 0, 50, 67
2, 1153685, Note_off_c, 0, 50, 67
2, 1153685, Note_on_c, 0, 53, 67
2, 1153706, Note_off_c, 0, 53, 67
2, 1153706, Note_on_c, 0, 58, 67
2, 1153727, Note_off_c, 0, 58, 67
2, 1153728, Control_c, 0, 93, 0
2, 1153728, Note_on_c, 0, 62, 67
2, 1153749, Note_off_c, 0, 62, 67
2, 1153749, Note_on_c, 0, 65, 67
2, 1153770, Note_off_c, 0, 65, 67
2, 1153770, Note_on_c, 0, 70, 67
2, 1153792, Control_c, 0, 93, 0
2, 1153792, Control_c, 0, 64, 0
2, 1153920, Note_off_c, 0, 70, 67
2, 1153920, Note_on_c, 0, 51, 67
2, 1153984, Note_off_c, 0, 51, 67
2, 1153984, Note_on_c, 0, 46, 67
2, 1154048, Note_off_c, 0, 46, 67
2, 1154048, Note_on_c, 0, 39, 67
2, 1154112, Note_off_c, 0, 39, 67
2, 1154112, Note_on_c, 0, 46, 67
2, 1154176, Note_off_c, 0, 46, 67
2, 1154176, Note_on_c, 0, 51, 67
2, 1154240, Note_off_c, 0, 51, 67
2, 1154240, Note_on_c, 0, 53, 67
2, 1154304, Note_off_c, 0, 53, 67
2, 1154304, Note_on_c, 0, 55, 67
2, 1154368, Note_off_c, 0, 55, 67
2, 1154368, Note_on_c, 0, 51, 67
2, 1154432, Note_off_c, 0, 51, 67
2, 1154432, Note_on_c, 0, 58, 67
2, 1154496, Note_off_c, 0, 58, 67
2, 1154496, Note_on_c, 0, 63, 67
2, 1154544, Control_c, 0, 93, 0
2, 1154560, Note_off_c, 0, 63, 67
2, 1154560, Note_on_c, 0, 44, 67
2, 1154624, Note_off_c, 0, 44, 67
2, 1154624, Note_on_c, 0, 51, 67
2, 1154688, Note_off_c, 0, 51, 67
2, 1154688, Note_on_c, 0, 56, 67
2, 1154752, Note_off_c, 0, 56, 67
2, 1154752, Note_on_c, 0, 58, 67
2, 1154816, Note_off_c, 0, 58, 67
2, 1154816, Note_on_c, 0, 60, 67
2, 1154880, Note_off_c, 0, 60, 67
2, 1154880, Note_on_c, 0, 56, 67
2, 1154944, Note_off_c, 0, 56, 67
2, 1154944, Note_on_c, 0, 63, 67
2, 1155008, Note_off_c, 0, 63, 67
2, 1155008, Note_on_c, 0, 68, 67
2, 1155056, Control_c, 0, 93, 0
2, 1155072, Note_off_c, 0, 68, 67
2, 1155072, Note_on_c, 0, 46, 67
2, 1155136, Note_off_c, 0, 46, 67
2, 1155136, Note_on_c, 0, 53, 67
2, 1155200, Note_off_c, 0, 53, 67
2, 1155200, Note_on_c, 0, 58, 67
2, 1155264, Note_off_c, 0, 58, 67
2, 1155264, Note_on_c, 0, 60, 67
2, 1155328, Note_off_c, 0, 60, 67
2, 1155328, Note_on_c, 0, 62, 67
2, 1155392, Note_off_c, 0, 62, 67
2, 1155392, Note_on_c, 0, 58, 67
2, 1155456, Note_off_c, 0, 58, 67
2, 1155456, Note_on_c, 0, 65, 67
2, 1155520, Note_off_c, 0, 65, 67
2, 1155520, Note_on_c, 0, 70, 67
2, 1155568, Control_c, 0, 93, 0
2, 1155584, Note_off_c, 0, 70, 67
2, 1155584, Note_on_c, 0, 39, 67
2, 1155648, Note_off_c, 0, 39, 67
2, 1155648, Note_on_c, 0, 46, 67
2, 1155712, Note_off_c, 0, 46, 67
2, 1155712, Note_on_c, 0, 51, 67
2, 1155776, Note_off_c, 0, 51, 67
2, 1155776, Control_c, 0, 64, 64
2, 1155776, Note_on_c, 0, 55, 67
2, 1155786, Note_off_c, 0, 55, 67
2, 1155786, Note_on_c, 0, 58, 67
2, 1155797, Note_off_c, 0, 58, 67
2, 1155797, Note_on_c, 0, 63, 67
2, 1155807, Note_off_c, 0, 63, 67
2, 1155808, Control_c, 0, 93, 0
2, 1155808, Note_on_c, 0, 67, 67
2, 1155818, Note_off_c, 0, 67, 67
2, 1155818, Note_on_c, 0, 70, 67
2, 1155829, Note_off_c, 0, 70, 67
2, 1155829, Note_on_c, 0, 75, 67
2, 1155839, Note_off_c, 0, 75, 67
2, 1155840, Control_c, 0, 93, 0
2, 1155968, Control_c, 0, 93, 0
2, 1156032, Control_c, 0, 93, 0
2, 1156032, Control_c, 0, 64, 0
2, 1156096, Control_c, 0, 93, 0
2, 1156096, Note_on_c, 0, 51, 67
2, 1156160, Note_off_c, 0, 51, 67
2, 1156224, Note_off_c, 0, 51, 67
2, 1156224, Note_on_c, 0, 63, 67
2, 1156288, Note_off_c, 0, 63, 67
2, 1156352, Note_off_c, 0, 63, 67
2, 1156352, Note_on_c, 0, 50, 67
2, 1156416, Note_off_c, 0, 50, 67
2, 1156480, Note_off_c, 0, 50, 67
2, 1156480, Note_on_c, 0, 62, 67
2, 1156544, Note_off_c, 0, 62, 67
2, 1156608, Note_off_c, 0, 62, 67
2, 1156608, Note_on_c, 0, 48, 67
2, 1156672, Note_off_c, 0, 48, 67
2, 1156736, Note_off_c, 0, 48, 67
2, 1156736, Note_on_c, 0, 60, 67
2, 1156800, Note_off_c, 0, 60, 67
2, 1156864, Note_off_c, 0, 60, 67
2, 1156864, Note_on_c, 0, 46, 67
2, 1156928, Note_off_c, 0, 46, 67
2, 1156992, Note_off_c, 0, 46, 67
2, 1156992, Note_on_c, 0, 58, 67
2, 1157056, Note_off_c, 0, 58, 67
2, 1157120, Note_off_c, 0, 58, 67
2, 1157120, Note_on_c, 0, 51, 67
2, 1157184, Note_off_c, 0, 51, 67
2, 1157248, Note_off_c, 0, 51, 67
2, 1157248, Note_on_c, 0, 63, 67
2, 1157312, Note_off_c, 0, 63, 67
2, 1157376, Note_off_c, 0, 63, 67
2, 1157376, Note_on_c, 0, 46, 67
2, 1157440, Note_off_c, 0, 46, 67
2, 1157504, Note_off_c, 0, 46, 67
2, 1157504, Note_on_c, 0, 58, 67
2, 1157568, Note_off_c, 0, 58, 67
2, 1157632, Note_off_c, 0, 58, 67
2, 1157632, Note_on_c, 0, 48, 67
2, 1157696, Note_off_c, 0, 48, 67
2, 1157760, Note_off_c, 0, 48, 67
2, 1157760, Note_on_c, 0, 60, 67
2, 1157824, Note_off_c, 0, 60, 67
2, 1157888, Note_off_c, 0, 60, 67
2, 1157888, Note_on_c, 0, 46, 67
2, 1157952, Note_off_c, 0, 46, 67
2, 1158016, Note_off_c, 0, 46, 67
2, 1158016, Note_on_c, 0, 58, 67
2, 1158080, Note_off_c, 0, 58, 67
2, 1158144, Note_off_c, 0, 58, 67
2, 1158144, Note_on_c, 0, 50, 67
2, 1158208, Note_off_c, 0, 50, 67
2, 1158272, Note_off_c, 0, 50, 67
2, 1158272, Note_on_c, 0, 62, 67
2, 1158336, Note_off_c, 0, 62, 67
2, 1158400, Note_off_c, 0, 62, 67
2, 1158400, Note_on_c, 0, 46, 67
2, 1158464, Note_off_c, 0, 46, 67
2, 1158528, Note_off_c, 0, 46, 67
2, 1158528, Note_on_c, 0, 58, 67
2, 1158592, Note_off_c, 0, 58, 67
2, 1158656, Note_off_c, 0, 58, 67
2, 1158656, Note_on_c, 0, 48, 67
2, 1158720, Note_off_c, 0, 48, 67
2, 1158784, Note_off_c, 0, 48, 67
2, 1158784, Note_on_c, 0, 60, 67
2, 1158848, Note_off_c, 0, 60, 67
2, 1158912, Note_off_c, 0, 60, 67
2, 1158912, Note_on_c, 0, 49, 67
2, 1158976, Note_off_c, 0, 49, 67
2, 1159040, Note_off_c, 0, 49, 67
2, 1159040, Note_on_c, 0, 61, 67
2, 1159104, Note_off_c, 0, 61, 67
2, 1159168, Note_off_c, 0, 61, 67
2, 1159168, Note_on_c, 0, 50, 67
2, 1159232, Note_off_c, 0, 50, 67
2, 1159296, Note_off_c, 0, 50, 67
2, 1159296, Note_on_c, 0, 62, 67
2, 1159360, Note_off_c, 0, 62, 67
2, 1159424, Note_off_c, 0, 62, 67
2, 1159424, Note_on_c, 0, 46, 67
2, 1159488, Note_off_c, 0, 46, 67
2, 1159552, Note_off_c, 0, 46, 67
2, 1159552, Note_on_c, 0, 58, 67
2, 1159616, Note_off_c, 0, 58, 67
2, 1159680, Note_off_c, 0, 58, 67
2, 1159680, Note_on_c, 0, 51, 67
2, 1159744, Note_off_c, 0, 51, 67
2, 1159808, Note_off_c, 0, 51, 67
2, 1159808, Note_on_c, 0, 63, 67
2, 1159872, Note_off_c, 0, 63, 67
2, 1159936, Note_off_c, 0, 63, 67
2, 1159936, Note_on_c, 0, 46, 67
2, 1160000, Note_off_c, 0, 46, 67
2, 1160064, Note_off_c, 0, 46, 67
2, 1160064, Note_on_c, 0, 58, 67
2, 1160128, Note_off_c, 0, 58, 67
2, 1160192, Note_off_c, 0, 58, 67
2, 1160192, Note_on_c, 0, 51, 67
2, 1160256, Note_off_c, 0, 51, 67
2, 1160320, Note_off_c, 0, 51, 67
2, 1160320, Note_on_c, 0, 63, 67
2, 1160384, Note_off_c, 0, 63, 67
2, 1160448, Note_off_c, 0, 63, 67
2, 1160448, Note_on_c, 0, 50, 67
2, 1160512, Note_off_c, 0, 50, 67
2, 1160576, Note_off_c, 0, 50, 67
2, 1160576, Note_on_c, 0, 62, 67
2, 1160640, Note_off_c, 0, 62, 67
2, 1160704, Note_off_c, 0, 62, 67
2, 1160704, Note_on_c, 0, 48, 67
2, 1160768, Note_off_c, 0, 48, 67
2, 1160832, Note_off_c, 0, 48, 67
2, 1160832, Note_on_c, 0, 60, 67
2, 1160896, Note_off_c, 0, 60, 67
2, 1160960, Note_off_c, 0, 60, 67
2, 1160960, Note_on_c, 0, 46, 67
2, 1161024, Note_off_c, 0, 46, 67
2, 1161088, Note_off_c, 0, 46, 67
2, 1161088, Note_on_c, 0, 58, 67
2, 1161152, Note_off_c, 0, 58, 67
2, 1161216, Note_off_c, 0, 58, 67
2, 1161216, Note_on_c, 0, 51, 67
2, 1161280, Note_off_c, 0, 51, 67
2, 1161344, Note_off_c, 0, 51, 67
2, 1161344, Note_on_c, 0, 63, 67
2, 1161408, Note_off_c, 0, 63, 67
2, 1161472, Note_off_c, 0, 63, 67
2, 1161472, Note_on_c, 0, 46, 67
2, 1161536, Note_off_c, 0, 46, 67
2, 1161600, Note_off_c, 0, 46, 67
2, 1161600, Note_on_c, 0, 58, 67
2, 1161664, Note_off_c, 0, 58, 67
2, 1161728, Note_off_c, 0, 58, 67
2, 1161728, Note_on_c, 0, 48, 67
2, 1161792, Note_off_c, 0, 48, 67
2, 1161856, Note_off_c, 0, 48, 67
2, 1161856, Note_on_c, 0, 60, 67
2, 1161920, Note_off_c, 0, 60, 67
2, 1161984, Note_off_c, 0, 60, 67
2, 1161984, Note_on_c, 0, 46, 67
2, 1162048, Note_off_c, 0, 46, 67
2, 1162112, Note_off_c, 0, 46, 67
2, 1162112, Note_on_c, 0, 58, 67
2, 1162176, Note_off_c, 0, 58, 67
2, 1162240, Note_off_c, 0, 58, 67
2, 1162240, Note_on_c, 0, 50, 67
2, 1162304, Note_off_c, 0, 50, 67
2, 1162368, Note_off_c, 0, 50, 67
2, 1162368, Note_on_c, 0, 62, 67
2, 1162432, Note_off_c, 0, 62, 67
2, 1162496, Note_off_c, 0, 62, 67
2, 1162496, Note_on_c, 0, 48, 67
2, 1162560, Note_off_c, 0, 48, 67
2, 1162624, Note_off_c, 0, 48, 67
2, 1162624, Note_on_c, 0, 60, 67
2, 1162688, Note_off_c, 0, 60, 67
2, 1162752, Note_off_c, 0, 60, 67
2, 1162752, Note_on_c, 0, 46, 67
2, 1162816, Note_off_c, 0, 46, 67
2, 1162880, Note_off_c, 0, 46, 67
2, 1162880, Note_on_c, 0, 58, 67
2, 1162944, Note_off_c, 0, 58, 67
2, 1163008, Note_off_c, 0, 58, 67
2, 1163008, Note_on_c, 0, 48, 67
2, 1163072, Note_off_c, 0, 48, 67
2, 1163136, Note_off_c, 0, 48, 67
2, 1163136, Note_on_c, 0, 60, 67
2, 1163200, Note_off_c, 0, 60, 67
2, 1163264, Note_off_c, 0, 60, 67
2, 1163264, Note_on_c, 0, 50, 67
2, 1163328, Note_off_c, 0, 50, 67
2, 1163392, Note_off_c, 0, 50, 67
2, 1163392, Note_on_c, 0, 62, 67
2, 1163456, Note_off_c, 0, 62, 67
2, 1163520, Note_off_c, 0, 62, 67
2, 1163520, Note_on_c, 0, 46, 67
2, 1163584, Note_off_c, 0, 46, 67
2, 1163648, Note_off_c, 0, 46, 67
2, 1163648, Note_on_c, 0, 58, 67
2, 1163712, Note_off_c, 0, 58, 67
2, 1163776, Note_off_c, 0, 58, 67
2, 1163776, Note_on_c, 0, 51, 67
2, 1163840, Note_off_c, 0, 51, 67
2, 1163904, Note_off_c, 0, 51, 67
2, 1163904, Note_on_c, 0, 63, 67
2, 1163968, Note_off_c, 0, 63, 67
2, 1164032, Note_off_c, 0, 63, 67
2, 1164032, Note_on_c, 0, 46, 67
2, 1164096, Note_off_c, 0, 46, 67
2, 1164160, Note_off_c, 0, 46, 67
2, 1164160, Note_on_c, 0, 58, 67
2, 1164224, Note_off_c, 0, 58, 67
2, 1164288, Note_off_c, 0, 58, 67
2, 1164288, Note_on_c, 0, 39, 67
2, 1164352, Note_off_c, 0, 39, 67
2, 1164352, Note_on_c, 0, 46, 67
2, 1164416, Note_off_c, 0, 46, 67
2, 1164416, Note_on_c, 0, 51, 67
2, 1164480, Note_off_c, 0, 51, 67
2, 1164480, Note_on_c, 0, 53, 67
2, 1164544, Note_off_c, 0, 53, 67
2, 1164544, Note_on_c, 0, 55, 67
2, 1164608, Note_off_c, 0, 55, 67
2, 1164608, Note_on_c, 0, 51, 67
2, 1164672, Note_off_c, 0, 51, 67
2, 1164672, Note_on_c, 0, 58, 67
2, 1164736, Note_off_c, 0, 58, 67
2, 1164736, Note_on_c, 0, 63, 67
2, 1164784, Control_c, 0, 93, 0
2, 1164800, Note_off_c, 0, 63, 67
2, 1164800, Note_on_c, 0, 44, 67
2, 1164864, Note_off_c, 0, 44, 67
2, 1164864, Note_on_c, 0, 51, 67
2, 1164928, Note_off_c, 0, 51, 67
2, 1164928, Note_on_c, 0, 56, 67
2, 1164992, Note_off_c, 0, 56, 67
2, 1164992, Note_on_c, 0, 58, 67
2, 1165056, Note_off_c, 0, 58, 67
2, 1165056, Note_on_c, 0, 60, 67
2, 1165120, Note_off_c, 0, 60, 67
2, 1165120, Note_on_c, 0, 56, 67
2, 1165184, Note_off_c, 0, 56, 67
2, 1165184, Note_on_c, 0, 63, 67
2, 1165248, Note_off_c, 0, 63, 67
2, 1165248, Note_on_c, 0, 68, 67
2, 1165296, Control_c, 0, 93, 0
2, 1165312, Note_off_c, 0, 68, 67
2, 1165312, Note_on_c, 0, 46, 67
2, 1165376, Note_off_c, 0, 46, 67
2, 1165376, Note_on_c, 0, 53, 67
2, 1165440, Note_off_c, 0, 53, 67
2, 1165440, Note_on_c, 0, 58, 67
2, 1165504, Note_off_c, 0, 58, 67
2, 1165504, Note_on_c, 0, 60, 67
2, 1165568, Note_off_c, 0, 60, 67
2, 1165568, Note_on_c, 0, 62, 67
2, 1165632, Note_off_c, 0, 62, 67
2, 1165632, Note_on_c, 0, 58, 67
2, 1165696, Note_off_c, 0, 58, 67
2, 1165696, Note_on_c, 0, 65, 67
2, 1165760, Note_off_c, 0, 65, 67
2, 1165760, Note_on_c, 0, 70, 67
2, 1165808, Control_c, 0, 93, 0
2, 1165824, Note_off_c, 0, 70, 67
2, 1165824, Note_on_c, 0, 41, 67
2, 1165888, Note_off_c, 0, 41, 67
2, 1165888, Note_on_c, 0, 44, 67
2, 1165952, Note_off_c, 0, 44, 67
2, 1165952, Control_c, 0, 64, 64
2, 1165952, Note_on_c, 0, 50, 67
2, 1165973, Note_off_c, 0, 50, 67
2, 1165973, Note_on_c, 0, 53, 67
2, 1165994, Note_off_c, 0, 53, 67
2, 1165994, Note_on_c, 0, 58, 67
2, 1166015, Note_off_c, 0, 58, 67
2, 1166016, Control_c, 0, 93, 0
2, 1166016, Note_on_c, 0, 62, 67
2, 1166037, Note_off_c, 0, 62, 67
2, 1166037, Note_on_c, 0, 65, 67
2, 1166058, Note_off_c, 0, 65, 67
2, 1166058, Note_on_c, 0, 70, 67
2, 1166080, Control_c, 0, 93, 0
2, 1166080, Control_c, 0, 64, 0
2, 1166208, Note_off_c, 0, 70, 67
2, 1166208, Note_on_c, 0, 51, 67
2, 1166272, Note_off_c, 0, 51, 67
2, 1166272, Note_on_c, 0, 46, 67
2, 1166336, Note_off_c, 0, 46, 67
2, 1166336, Note_on_c, 0, 39, 67
2, 1166400, Note_off_c, 0, 39, 67
2, 1166400, Note_on_c, 0, 46, 67
2, 1166464, Note_off_c, 0, 46, 67
2, 1166464, Note_on_c, 0, 51, 67
2, 1166528, Note_off_c, 0, 51, 67
2, 1166528, Note_on_c, 0, 53, 67
2, 1166592, Note_off_c, 0, 53, 67
2, 1166592, Note_on_c, 0, 55, 67
2, 1166656, Note_off_c, 0, 55, 67
2, 1166656, Note_on_c, 0, 51, 67
2, 1166720, Note_off_c, 0, 51, 67
2, 1166720, Note_on_c, 0, 58, 67
2, 1166784, Note_off_c, 0, 58, 67
2, 1166784, Note_on_c, 0, 63, 67
2, 1166832, Control_c, 0, 93, 0
2, 1166848, Note_off_c, 0, 63, 67
2, 1166848, Note_on_c, 0, 44, 67
2, 1166912, Note_off_c, 0, 44, 67
2, 1166912, Note_on_c, 0, 51, 67
2, 1166976, Note_off_c, 0, 51, 67
2, 1166976, Note_on_c, 0, 56, 67
2, 1167040, Note_off_c, 0, 56, 67
2, 1167040, Note_on_c, 0, 58, 67
2, 1167104, Note_off_c, 0, 58, 67
2, 1167104, Note_on_c, 0, 60, 67
2, 1167168, Note_off_c, 0, 60, 67
2, 1167168, Note_on_c, 0, 56, 67
2, 1167232, Note_off_c, 0, 56, 67
2, 1167232, Note_on_c, 0, 63, 67
2, 1167296, Note_off_c, 0, 63, 67
2, 1167296, Note_on_c, 0, 68, 67
2, 1167344, Control_c, 0, 93, 0
2, 1167360, Note_off_c, 0, 68, 67
2, 1167360, Note_on_c, 0, 46, 67
2, 1167424, Note_off_c, 0, 46, 67
2, 1167424, Note_on_c, 0, 53, 67
2, 1167488, Note_off_c, 0, 53, 67
2, 1167488, Note_on_c, 0, 58, 67
2, 1167552, Note_off_c, 0, 58, 67
2, 1167552, Note_on_c, 0, 60, 67
2, 1167616, Note_off_c, 0, 60, 67
2, 1167616, Note_on_c, 0, 62, 67
2, 1167680, Note_off_c, 0, 62, 67
2, 1167680, Note_on_c, 0, 58, 67
2, 1167744, Note_off_c, 0, 58, 67
2, 1167744, Note_on_c, 0, 65, 67
2, 1167808, Note_off_c, 0, 65, 67
2, 1167808, Note_on_c, 0, 70, 67
2, 1167856, Control_c, 0, 93, 0
2, 1167872, Note_off_c, 0, 70, 67
2, 1167872, Note_on_c, 0, 39, 67
2, 1167936, Note_off_c, 0, 39, 67
2, 1167936, Note_on_c, 0, 46, 67
2, 1168000, Note_off_c, 0, 46, 67
2, 1168000, Note_on_c, 0, 51, 67
2, 1168064, Note_off_c, 0, 51, 67
2, 1168064, Control_c, 0, 64, 64
2, 1168064, Note_on_c, 0, 55, 67
2, 1168074, Note_off_c, 0, 55, 67
2, 1168074, Note_on_c, 0, 58, 67
2, 1168085, Note_off_c, 0, 58, 67
2, 1168085, Note_on_c, 0, 63, 67
2, 1168095, Note_off_c, 0, 63, 67
2, 1168096, Control_c, 0, 93, 0
2, 1168096, Note_on_c, 0, 67, 67
2, 1168106, Note_off_c, 0, 67, 67
2, 1168106, Note_on_c, 0, 70, 67
2, 1168117, Note_off_c, 0, 70, 67
2, 1168117, Note_on_c, 0, 75, 67
2, 1168127, Note_off_c, 0, 75, 67
2, 1168128, Control_c, 0, 93, 0
2, 1168256, Control_c, 0, 93, 0
2, 1168320, Control_c, 0, 93, 0
2, 1168320, Control_c, 0, 64, 0
2, 1168384, Control_c, 0, 93, 0
2, 1168384, Note_on_c, 0, 51, 67
2, 1168448, Note_off_c, 0, 51, 67
2, 1168512, Note_off_c, 0, 51, 67
2, 1168512, Note_on_c, 0, 63, 67
2, 1168576, Note_off_c, 0, 63, 67
2, 1168640, Note_off_c, 0, 63, 67
2, 1168640, Note_on_c, 0, 50, 67
2, 1168704, Note_off_c, 0, 50, 67
2, 1168768, Note_off_c, 0, 50, 67
2, 1168768, Note_on_c, 0, 62, 67
2, 1168832, Note_off_c, 0, 62, 67
2, 1168896, Note_off_c, 0, 62, 67
2, 1168896, Note_on_c, 0, 48, 67
2, 1168960, Note_off_c, 0, 48, 67
2, 1169024, Note_off_c, 0, 48, 67
2, 1169024, Note_on_c, 0, 60, 67
2, 1169088, Note_off_c, 0, 60, 67
2, 1169152, Note_off_c, 0, 60, 67
2, 1169152, Note_on_c, 0, 46, 67
2, 1169216, Note_off_c, 0, 46, 67
2, 1169280, Note_off_c, 0, 46, 67
2, 1169280, Note_on_c, 0, 58, 67
2, 1169344, Note_off_c, 0, 58, 67
2, 1169408, Note_off_c, 0, 58, 67
2, 1169408, Note_on_c, 0, 51, 67
2, 1169472, Note_off_c, 0, 51, 67
2, 1169536, Note_off_c, 0, 51, 67
2, 1169536, Note_on_c, 0, 63, 67
2, 1169600, Note_off_c, 0, 63, 67
2, 1169664, Note_off_c, 0, 63, 67
2, 1169664, Note_on_c, 0, 46, 67
2, 1169728, Note_off_c, 0, 46, 67
2, 1169792, Note_off_c, 0, 46, 67
2, 1169792, Note_on_c, 0, 58, 67
2, 1169856, Note_off_c, 0, 58, 67
2, 1169920, Note_off_c, 0, 58, 67
2, 1169920, Note_on_c, 0, 48, 67
2, 1169984, Note_off_c, 0, 48, 67
2, 1170048, Note_off_c, 0, 48, 67
2, 1170048, Note_on_c, 0, 60, 67
2, 1170112, Note_off_c, 0, 60, 67
2, 1170176, Note_off_c, 0, 60, 67
2, 1170176, Note_on_c, 0, 46, 67
2, 1170240, Note_off_c, 0, 46, 67
2, 1170304, Note_off_c, 0, 46, 67
2, 1170304, Note_on_c, 0, 58, 67
2, 1170368, Note_off_c, 0, 58, 67
2, 1170432, Note_off_c, 0, 58, 67
2, 1170432, Note_on_c, 0, 50, 67
2, 1170496, Note_off_c, 0, 50, 67
2, 1170560, Note_off_c, 0, 50, 67
2, 1170560, Note_on_c, 0, 62, 67
2, 1170624, Note_off_c, 0, 62, 67
2, 1170688, Note_off_c, 0, 62, 67
2, 1170688, Note_on_c, 0, 46, 67
2, 1170752, Note_off_c, 0, 46, 67
2, 1170816, Note_off_c, 0, 46, 67
2, 1170816, Note_on_c, 0, 58, 67
2, 1170880, Note_off_c, 0, 58, 67
2, 1170944, Note_off_c, 0, 58, 67
2, 1170944, Note_on_c, 0, 48, 67
2, 1171008, Note_off_c, 0, 48, 67
2, 1171072, Note_off_c, 0, 48, 67
2, 1171072, Note_on_c, 0, 60, 67
2, 1171136, Note_off_c, 0, 60, 67
2, 1171200, Note_off_c, 0, 60, 67
2, 1171200, Note_on_c, 0, 49, 67
2, 1171264, Note_off_c, 0, 49, 67
2, 1171328, Note_off_c, 0, 49, 67
2, 1171328, Note_on_c, 0, 61, 67
2, 1171392, Note_off_c, 0, 61, 67
2, 1171456, Note_off_c, 0, 61, 67
2, 1171456, Note_on_c, 0, 50, 67
2, 1171520, Note_off_c, 0, 50, 67
2, 1171584, Note_off_c, 0, 50, 67
2, 1171584, Note_on_c, 0, 62, 67
2, 1171648, Note_off_c, 0, 62, 67
2, 1171712, Note_off_c, 0, 62, 67
2, 1171712, Note_on_c, 0, 46, 67
2, 1171776, Note_off_c, 0, 46, 67
2, 1171840, Note_off_c, 0, 46, 67
2, 1171840, Note_on_c, 0, 58, 67
2, 1171904, Note_off_c, 0, 58, 67
2, 1171968, Note_off_c, 0, 58, 67
2, 1171968, Note_on_c, 0, 51, 67
2, 1172032, Note_off_c, 0, 51, 67
2, 1172096, Note_off_c, 0, 51, 67
2, 1172096, Note_on_c, 0, 63, 67
2, 1172160, Note_off_c, 0, 63, 67
2, 1172224, Note_off_c, 0, 63, 67
2, 1172224, Note_on_c, 0, 46, 67
2, 1172288, Note_off_c, 0, 46, 67
2, 1172352, Note_off_c, 0, 46, 67
2, 1172352, Note_on_c, 0, 58, 67
2, 1172416, Note_off_c, 0, 58, 67
2, 1172480, Note_off_c, 0, 58, 67
2, 1172480, Note_on_c, 0, 51, 67
2, 1172544, Note_off_c, 0, 51, 67
2, 1172608, Note_off_c, 0, 51, 67
2, 1172608, Note_on_c, 0, 63, 67
2, 1172672, Note_off_c, 0, 63, 67
2, 1172736, Note_off_c, 0, 63, 67
2, 1172736, Note_on_c, 0, 50, 67
2, 1172800, Note_off_c, 0, 50, 67
2, 1172864, Note_off_c, 0, 50, 67
2, 1172864, Note_on_c, 0, 62, 67
2, 1172928, Note_off_c, 0, 62, 67
2, 1172992, Note_off_c, 0, 62, 67
2, 1172992, Note_on_c, 0, 48, 67
2, 1173056, Note_off_c, 0, 48, 67
2, 1173120, Note_off_c, 0, 48, 67
2, 1173120, Note_on_c, 0, 60, 67
2, 1173184, Note_off_c, 0, 60, 67
2, 1173248, Note_off_c, 0, 60, 67
2, 1173248, Note_on_c, 0, 46, 67
2, 1173312, Note_off_c, 0, 46, 67
2, 1173376, Note_off_c, 0, 46, 67
2, 1173376, Note_on_c, 0, 58, 67
2, 1173440, Note_off_c, 0, 58, 67
2, 1173504, Note_off_c, 0, 58, 67
2, 1173504, Note_on_c, 0, 51, 67
2, 1173568, Note_off_c, 0, 51, 67
2, 1173632, Note_off_c, 0, 51, 67
2, 1173632, Note_on_c, 0, 63, 67
2, 1173696, Note_off_c, 0, 63, 67
2, 1173760, Note_off_c, 0, 63, 67
2, 1173760, Note_on_c, 0, 46, 67
2, 1173824, Note_off_c, 0, 46, 67
2, 1173888, Note_off_c, 0, 46, 67
2, 1173888, Note_on_c, 0, 58, 67
2, 1173952, Note_off_c, 0, 58, 67
2, 1174016, Note_off_c, 0, 58, 67
2, 1174016, Note_on_c, 0, 48, 67
2, 1174080, Note_off_c, 0, 48, 67
2, 1174144, Note_off_c, 0, 48, 67
2, 1174144, Note_on_c, 0, 60, 67
2, 1174208, Note_off_c, 0, 60, 67
2, 1174272, Note_off_c, 0, 60, 67
2, 1174272, Note_on_c, 0, 46, 67
2, 1174336, Note_off_c, 0, 46, 67
2, 1174400, Note_off_c, 0, 46, 67
2, 1174400, Note_on_c, 0, 58, 67
2, 1174464, Note_off_c, 0, 58, 67
2, 1174528, Note_off_c, 0, 58, 67
2, 1174528, Note_on_c, 0, 50, 67
2, 1174592, Note_off_c, 0, 50, 67
2, 1174656, Note_off_c, 0, 50, 67
2, 1174656, Note_on_c, 0, 62, 67
2, 1174720, Note_off_c, 0, 62, 67
2, 1174784, Note_off_c, 0, 62, 67
2, 1174784, Note_on_c, 0, 48, 67
2, 1174848, Note_off_c, 0, 48, 67
2, 1174912, Note_off_c, 0, 48, 67
2, 1174912, Note_on_c, 0, 60, 67
2, 1174976, Note_off_c, 0, 60, 67
2, 1175040, Note_off_c, 0, 60, 67
2, 1175040, Note_on_c, 0, 46, 67
2, 1175104, Note_off_c, 0, 46, 67
2, 1175168, Note_off_c, 0, 46, 67
2, 1175168, Note_on_c, 0, 58, 67
2, 1175232, Note_off_c, 0, 58, 67
2, 1175296, Note_off_c, 0, 58, 67
2, 1175296, Note_on_c, 0, 48, 67
2, 1175360, Note_off_c, 0, 48, 67
2, 1175424, Note_off_c, 0, 48, 67
2, 1175424, Note_on_c, 0, 60, 67
2, 1175488, Note_off_c, 0, 60, 67
2, 1175552, Note_off_c, 0, 60, 67
2, 1175552, Note_on_c, 0, 50, 67
2, 1175616, Note_off_c, 0, 50, 67
2, 1175680, Note_off_c, 0, 50, 67
2, 1175680, Note_on_c, 0, 62, 67
2, 1175744, Note_off_c, 0, 62, 67
2, 1175808, Note_off_c, 0, 62, 67
2, 1175808, Note_on_c, 0, 46, 67
2, 1175872, Note_off_c, 0, 46, 67
2, 1175936, Note_off_c, 0, 46, 67
2, 1175936, Note_on_c, 0, 58, 67
2, 1176000, Note_off_c, 0, 58, 67
2, 1176064, Note_off_c, 0, 58, 67
2, 1176064, Note_on_c, 0, 51, 67
2, 1176128, Note_off_c, 0, 51, 67
2, 1176192, Note_off_c, 0, 51, 67
2, 1176192, Note_on_c, 0, 63, 67
2, 1176256, Note_off_c, 0, 63, 67
2, 1176320, Note_off_c, 0, 63, 67
2, 1176320, Note_on_c, 0, 46, 67
2, 1176384, Note_off_c, 0, 46, 67
2, 1176448, Note_off_c, 0, 46, 67
2, 1176448, Note_on_c, 0, 58, 67
2, 1176512, Note_off_c, 0, 58, 67
2, 1176576, Note_off_c, 0, 58, 67
2, 1176576, Note_on_c, 0, 39, 67
2, 1176640, Note_off_c, 0, 39, 67
2, 1176640, Note_on_c, 0, 46, 67
2, 1176704, Note_off_c, 0, 46, 67
2, 1176704, Note_on_c, 0, 51, 67
2, 1176768, Note_off_c, 0, 51, 67
2, 1176768, Note_on_c, 0, 53, 67
2, 1176832, Note_off_c, 0, 53, 67
2, 1176832, Note_on_c, 0, 55, 67
2, 1176896, Note_off_c, 0, 55, 67
2, 1176896, Note_on_c, 0, 51, 67
2, 1176960, Note_off_c, 0, 51, 67
2, 1176960, Note_on_c, 0, 58, 67
2, 1177024, Note_off_c, 0, 58, 67
2, 1177024, Note_on_c, 0, 63, 67
2, 1177072, Control_c, 0, 93, 0
2, 1177088, Note_off_c, 0, 63, 67
2, 1177088, Note_on_c, 0, 44, 67
2, 1177152, Note_off_c, 0, 44, 67
2, 1177152, Note_on_c, 0, 51, 67
2, 1177216, Note_off_c, 0, 51, 67
2, 1177216, Note_on_c, 0, 56, 67
2, 1177280, Note_off_c, 0, 56, 67
2, 1177280, Note_on_c, 0, 58, 67
2, 1177344, Note_off_c, 0, 58, 67
2, 1177344, Note_on_c, 0, 60, 67
2, 1177408, Note_off_c, 0, 60, 67
2, 1177408, Note_on_c, 0, 56, 67
2, 1177472, Note_off_c, 0, 56, 67
2, 1177472, Note_on_c, 0, 63, 67
2, 1177536, Note_off_c, 0, 63, 67
2, 1177536, Note_on_c, 0, 68, 67
2, 1177584, Control_c, 0, 93, 0
2, 1177600, Note_off_c, 0, 68, 67
2, 1177600, Note_on_c, 0, 46, 67
2, 1177664, Note_off_c, 0, 46, 67
2, 1177664, Note_on_c, 0, 53, 67
2, 1177728, Note_off_c, 0, 53, 67
2, 1177728, Note_on_c, 0, 58, 67
2, 1177792, Note_off_c, 0, 58, 67
2, 1177792, Note_on_c, 0, 60, 67
2, 1177856, Note_off_c, 0, 60, 67
2, 1177856, Note_on_c, 0, 62, 67
2, 1177920, Note_off_c, 0, 62, 67
2, 1177920, Note_on_c, 0, 58, 67
2, 1177984, Note_off_c, 0, 58, 67
2, 1177984, Note_on_c, 0, 65, 67
2, 1178048, Note_off_c, 0, 65, 67
2, 1178048, Note_on_c, 0, 70, 67
2, 1178096, Control_c, 0, 93, 0
2, 1178112, Note_off_c, 0, 70, 67
2, 1178112, Note_on_c, 0, 41, 67
2, 1178176, Note_off_c, 0, 41, 67
2, 1178176, Note_on_c, 0, 44, 67
2, 1178240, Note_off_c, 0, 44, 67
2, 1178240, Control_c, 0, 64, 64
2, 1178240, Note_on_c, 0, 50, 67
2, 1178261, Note_off_c, 0, 50, 67
2, 1178261, Note_on_c, 0, 53, 67
2, 1178282, Note_off_c, 0, 53, 67
2, 1178282, Note_on_c, 0, 58, 67
2, 1178303, Note_off_c, 0, 58, 67
2, 1178304, Control_c, 0, 93, 0
2, 1178304, Note_on_c, 0, 62, 67
2, 1178325, Note_off_c, 0, 62, 67
2, 1178325, Note_on_c, 0, 65, 67
2, 1178346, Note_off_c, 0, 65, 67
2, 1178346, Note_on_c, 0, 70, 67
2, 1178368, Control_c, 0, 93, 0
2, 1178368, Control_c, 0, 64, 0
2, 1178496, Note_off_c, 0, 70, 67
2, 1178496, Note_on_c, 0, 51, 67
2, 1178560, Note_off_c, 0, 51, 67
2, 1178560, Note_on_c, 0, 46, 67
2, 1178624, Note_off_c, 0, 46, 67
2, 1178624, Note_on_c, 0, 39, 67
2, 1178688, Note_off_c, 0, 39, 67
2, 1178688, Note_on_c, 0, 46, 67
2, 1178752, Note_off_c, 0, 46, 67
2, 1178752, Note_on_c, 0, 51, 67
2, 1178816, Note_off_c, 0, 51, 67
2, 1178816, Note_on_c, 0, 53, 67
2, 1178880, Note_off_c, 0, 53, 67
2, 1178880, Note_on_c, 0, 55, 67
2, 1178944, Note_off_c, 0, 55, 67
2, 1178944, Note_on_c, 0, 51, 67
2, 1179008, Note_off_c, 0, 51, 67
2, 1179008, Note_on_c, 0, 58, 67
2, 1179072, Note_off_c, 0, 58, 67
2, 1179072, Note_on_c, 0, 63, 67
2, 1179120, Control_c, 0, 93, 0
2, 1179136, Note_off_c, 0, 63, 67
2, 1179136, Note_on_c, 0, 44, 67
2, 1179200, Note_off_c, 0, 44, 67
2, 1179200, Note_on_c, 0, 51, 67
2, 1179264, Note_off_c, 0, 51, 67
2, 1179264, Note_on_c, 0, 56, 67
2, 1179328, Note_off_c, 0, 56, 67
2, 1179328, Note_on_c, 0, 58, 67
2, 1179392, Note_off_c, 0, 58, 67
2, 1179392, Note_on_c, 0, 60, 67
2, 1179456, Note_off_c, 0, 60, 67
2, 1179456, Note_on_c, 0, 56, 67
2, 1179520, Note_off_c, 0, 56, 67
2, 1179520, Note_on_c, 0, 63, 67
2, 1179584, Note_off_c, 0, 63, 67
2, 1179584, Note_on_c, 0, 68, 67
2, 1179632, Control_c, 0, 93, 0
2, 1179648, Note_off_c, 0, 68, 67
2, 1179648, Note_on_c, 0, 46, 67
2, 1179712, Note_off_c, 0, 46, 67
2, 1179712, Note_on_c, 0, 53, 67
2, 1179776, Note_off_c, 0, 53, 67
2, 1179776, Note_on_c, 0, 58, 67
2, 1179840, Note_off_c, 0, 58, 67
2, 1179840, Note_on_c, 0, 60, 67
2, 1179904, Note_off_c, 0, 60, 67
2, 1179904, Note_on_c, 0, 62, 67
2, 1179968, Note_off_c, 0, 62, 67
2, 1179968, Note_on_c, 0, 58, 67
2, 1180032, Note_off_c, 0, 58, 67
2, 1180032, Note_on_c, 0, 65, 67
2, 1180096, Note_off_c, 0, 65, 67
2, 1180096, Note_on_c, 0, 70, 67
2, 1180144, Control_c, 0, 93, 0
2, 1180160, Note_off_c, 0, 70, 67
2, 1180160, Note_on_c, 0, 39, 67
2, 1180224, Note_off_c, 0, 39, 67
2, 1180224, Note_on_c, 0, 46, 67
2, 1180288, Note_off_c, 0, 46, 67
2, 1180288, Note_on_c, 0, 51, 67
2, 1180352, Note_off_c, 0, 51, 67
2, 1180352, Control_c, 0, 64, 64
2, 1180352, Note_on_c, 0, 55, 67
2, 1180362, Note_off_c, 0, 55, 67
2, 1180362, Note_on_c, 0, 58, 67
2, 1180373, Note_off_c, 0, 58, 67
2, 1180373, Note_on_c, 0, 63, 67
2, 1180383, Note_off_c, 0, 63, 67
2, 1180384, Control_c, 0, 93, 0
2, 1180384, Note_on_c, 0, 67, 67
2, 1180394, Note_off_c, 0, 67, 67
2, 1180394, Note_on_c, 0, 70, 67
2, 1180405, Note_off_c, 0, 70, 67
2, 1180405, Note_on_c, 0, 75, 67
2, 1180415, Note_off_c, 0, 75, 67
2, 1180416, Control_c, 0, 93, 0
2, 1180544, Control_c, 0, 93, 0
2, 1180608, Control_c, 0, 93, 0
2, 1180608, Control_c, 0, 64, 0
2, 1180672, Control_c, 0, 93, 0
2, 1180672, Note_on_c, 0, 51, 67
2, 1180736, Note_off_c, 0, 51, 67
2, 1180800, Note_off_c, 0, 51, 67
2, 1180800, Note_on_c, 0, 63, 67
2, 1180864, Note_off_c, 0, 63, 67
2, 1180928, Note_off_c, 0, 63, 67
2, 1180928, Note_on_c, 0, 50, 67
2, 1180992, Note_off_c, 0, 50, 67
2, 1181056, Note_off_c, 0, 50, 67
2, 1181056, Note_on_c, 0, 62, 67
2, 1181120, Note_off_c, 0, 62, 67
2, 1181184, Note_off_c, 0, 62, 67
2, 1181184, Note_on_c, 0, 48, 67
2, 1181248, Note_off_c, 0, 48, 67
2, 1181312, Note_off_c, 0, 48, 67
2, 1181312, Note_on_c, 0, 60, 67
2, 1181376, Note_off_c, 0, 60, 67
2, 1181440, Note_off_c, 0, 60, 67
2, 1181440, Note_on_c, 0, 46, 67
2, 1181504, Note_off_c, 0, 46, 67
2, 1181568, Note_off_c, 0, 46, 67
2, 1181568, Note_on_c, 0, 58, 67
2, 1181632, Note_off_c, 0, 58, 67
2, 1181696, Note_off_c, 0, 58, 67
2, 1181696, Note_on_c, 0, 51, 67
2, 1181760, Note_off_c, 0, 51, 67
2, 1181824, Note_off_c, 0, 51, 67
2, 1181824, Note_on_c, 0, 63, 67
2, 1181888, Note_off_c, 0, 63, 67
2, 1181952, Note_off_c, 0, 63, 67
2, 1181952, Note_on_c, 0, 46, 67
2, 1182016, Note_off_c, 0, 46, 67
2, 1182080, Note_off_c, 0, 46, 67
2, 1182080, Note_on_c, 0, 58, 67
2, 1182144, Note_off_c, 0, 58, 67
2, 1182208, Note_off_c, 0, 58, 67
2, 1182208, Note_on_c, 0, 48, 67
2, 1182272, Note_off_c, 0, 48, 67
2, 1182336, Note_off_c, 0, 48, 67
2, 1182336, Note_on_c, 0, 60, 67
2, 1182400, Note_off_c, 0, 60, 67
2, 1182464, Note_off_c, 0, 60, 67
2, 1182464, Note_on_c, 0, 46, 67
2, 1182528, Note_off_c, 0, 46, 67
2, 1182592, Note_off_c, 0, 46, 67
2, 1182592, Note_on_c, 0, 58, 67
2, 1182656, Note_off_c, 0, 58, 67
2, 1182720, Note_off_c, 0, 58, 67
2, 1182720, Note_on_c, 0, 50, 67
2, 1182784, Note_off_c, 0, 50, 67
2, 1182848, Note_off_c, 0, 50, 67
2, 1182848, Note_on_c, 0, 62, 67
2, 1182912, Note_off_c, 0, 62, 67
2, 1182976, Note_off_c, 0, 62, 67
2, 1182976, Note_on_c, 0, 46, 67
2, 1183040, Note_off_c, 0, 46, 67
2, 1183104, Note_off_c, 0, 46, 67
2, 1183104, Note_on_c, 0, 58, 67
2, 1183168, Note_off_c, 0, 58, 67
2, 1183232, Note_off_c, 0, 58, 67
2, 1183232, Note_on_c, 0, 48, 67
2, 1183296, Note_off_c, 0, 48, 67
2, 1183360, Note_off_c, 0, 48, 67
2, 1183360, Note_on_c, 0, 60, 67
2, 1183424, Note_off_c, 0, 60, 67
2, 1183488, Note_off_c, 0, 60, 67
2, 1183488, Note_on_c, 0, 49, 67
2, 1183552, Note_off_c, 0, 49, 67
2, 1183616, Note_off_c, 0, 49, 67
2, 1183616, Note_on_c, 0, 61, 67
2, 1183680, Note_off_c, 0, 61, 67
2, 1183744, Note_off_c, 0, 61, 67
2, 1183744, Note_on_c, 0, 50, 67
2, 1183808, Note_off_c, 0, 50, 67
2, 1183872, Note_off_c, 0, 50, 67
2, 1183872, Note_on_c, 0, 62, 67
2, 1183936, Note_off_c, 0, 62, 67
2, 1184000, Note_off_c, 0, 62, 67
2, 1184000, Note_on_c, 0, 46, 67
2, 1184064, Note_off_c, 0, 46, 67
2, 1184128, Note_off_c, 0, 46, 67
2, 1184128, Note_on_c, 0, 58, 67
2, 1184192, Note_off_c, 0, 58, 67
2, 1184256, Note_off_c, 0, 58, 67
2, 1184256, Note_on_c, 0, 51, 67
2, 1184320, Note_off_c, 0, 51, 67
2, 1184384, Note_off_c, 0, 51, 67
2, 1184384, Note_on_c, 0, 63, 67
2, 1184448, Note_off_c, 0, 63, 67
2, 1184512, Note_off_c, 0, 63, 67
2, 1184512, Note_on_c, 0, 46, 67
2, 1184576, Note_off_c, 0, 46, 67
2, 1184640, Note_off_c, 0, 46, 67
2, 1184640, Note_on_c, 0, 58, 67
2, 1184704, Note_off_c, 0, 58, 67
2, 1184768, Note_off_c, 0, 58, 67
2, 1184768, Note_on_c, 0, 51, 67
2, 1184832, Note_off_c, 0, 51, 67
2, 1184896, Note_off_c, 0, 51, 67
2, 1184896, Note_on_c, 0, 63, 67
2, 1184960, Note_off_c, 0, 63, 67
2, 1185024, Note_off_c, 0, 63, 67
2, 1185024, Note_on_c, 0, 50, 67
2, 1185088, Note_off_c, 0, 50, 67
2, 1185152, Note_off_c, 0, 50, 67
2, 1185152, Note_on_c, 0, 62, 67
2, 1185216, Note_off_c, 0, 62, 67
2, 1185280, Note_off_c, 0, 62, 67
2, 1185280, Note_on_c, 0, 48, 67
2, 1185344, Note_off_c, 0, 48, 67
2, 1185408, Note_off_c, 0, 48, 67
2, 1185408, Note_on_c, 0, 60, 67
2, 1185472, Note_off_c, 0, 60, 67
2, 1185536, Note_off_c, 0, 60, 67
2, 1185536, Note_on_c, 0, 46, 67
2, 1185600, Note_off_c, 0, 46, 67
2, 1185664, Note_off_c, 0, 46, 67
2, 1185664, Note_on_c, 0, 58, 67
2, 1185728, Note_off_c, 0, 58, 67
2, 1185792, Note_off_c, 0, 58, 67
2, 1185792, Note_on_c, 0, 51, 67
2, 1185856, Note_off_c, 0, 51, 67
2, 1185920, Note_off_c, 0, 51, 67
2, 1185920, Note_on_c, 0, 63, 67
2, 1185984, Note_off_c, 0, 63, 67
2, 1186048, Note_off_c, 0, 63, 67
2, 1186048, Note_on_c, 0, 46, 67
2, 1186112, Note_off_c, 0, 46, 67
2, 1186176, Note_off_c, 0, 46, 67
2, 1186176, Note_on_c, 0, 58, 67
2, 1186240, Note_off_c, 0, 58, 67
2, 1186304, Note_off_c, 0, 58, 67
2, 1186304, Note_on_c, 0, 48, 67
2, 1186368, Note_off_c, 0, 48, 67
2, 1186432, Note_off_c, 0, 48, 67
2, 1186432, Note_on_c, 0, 60, 67
2, 1186496, Note_off_c, 0, 60, 67
2, 1186560, Note_off_c, 0, 60, 67
2, 1186560, Note_on_c, 0, 46, 67
2, 1186624, Note_off_c, 0, 46, 67
2, 1186688, Note_off_c, 0, 46, 67
2, 1186688, Note_on_c, 0, 58, 67
2, 1186752, Note_off_c, 0, 58, 67
2, 1186816, Note_off_c, 0, 58, 67
2, 1186816, Note_on_c, 0, 50, 67
2, 1186880, Note_off_c, 0, 50, 67
2, 1186944, Note_off_c, 0, 50, 67
2, 1186944, Note_on_c, 0, 62, 67
2, 1187008, Note_off_c, 0, 62, 67
2, 1187072, Note_off_c, 0, 62, 67
2, 1187072, Note_on_c, 0, 48, 67
2, 1187136, Note_off_c, 0, 48, 67
2, 1187200, Note_off_c, 0, 48, 67
2, 1187200, Note_on_c, 0, 60, 67
2, 1187264, Note_off_c, 0, 60, 67
2, 1187328, Note_off_c, 0, 60, 67
2, 1187328, Note_on_c, 0, 46, 67
2, 1187392, Note_off_c, 0, 46, 67
2, 1187456, Note_off_c, 0, 46, 67
2, 1187456, Note_on_c, 0, 58, 67
2, 1187520, Note_off_c, 0, 58, 67
2, 1187584, Note_off_c, 0, 58, 67
2, 1187584, Note_on_c, 0, 48, 67
2, 1187648, Note_off_c, 0, 48, 67
2, 1187712, Note_off_c, 0, 48, 67
2, 1187712, Note_on_c, 0, 60, 67
2, 1187776, Note_off_c, 0, 60, 67
2, 1187840, Note_off_c, 0, 60, 67
2, 1187840, Note_on_c, 0, 50, 67
2, 1187904, Note_off_c, 0, 50, 67
2, 1187968, Note_off_c, 0, 50, 67
2, 1187968, Note_on_c, 0, 62, 67
2, 1188032, Note_off_c, 0, 62, 67
2, 1188096, Note_off_c, 0, 62, 67
2, 1188096, Note_on_c, 0, 46, 67
2, 1188160, Note_off_c, 0, 46, 67
2, 1188224, Note_off_c, 0, 46, 67
2, 1188224, Note_on_c, 0, 58, 67
2, 1188288, Note_off_c, 0, 58, 67
2, 1188352, Note_off_c, 0, 58, 67
2, 1188352, Note_on_c, 0, 51, 67
2, 1188416, Note_off_c, 0, 51, 67
2, 1188480, Note_off_c, 0, 51, 67
2, 1188480, Note_on_c, 0, 63, 67
2, 1188544, Note_off_c, 0, 63, 67
2, 1188608, Note_off_c, 0, 63, 67
2, 1188608, Note_on_c, 0, 46, 67
2, 1188672, Note_off_c, 0, 46, 67
2, 1188736, Note_off_c, 0, 46, 67
2, 1188736, Note_on_c, 0, 58, 67
2, 1188800, Note_off_c, 0, 58, 67
2, 1188864, Note_off_c, 0, 58, 67
2, 1188864, Note_on_c, 0, 39, 67
2, 1188928, Note_off_c, 0, 39, 67
2, 1188928, Note_on_c, 0, 46, 67
2, 1188992, Note_off_c, 0, 46, 67
2, 1188992, Note_on_c, 0, 51, 67
2, 1189056, Note_off_c, 0, 51, 67
2, 1189056, Note_on_c, 0, 53, 67
2, 1189120, Note_off_c, 0, 53, 67
2, 1189120, Note_on_c, 0, 55, 67
2, 1189184, Note_off_c, 0, 55, 67
2, 1189184, Note_on_c, 0, 51, 67
2, 1189248, Note_off_c, 0, 51, 67
2, 1189248, Note_on_c, 0, 58, 67
2, 1189312, Note_off_c, 0, 58, 67
2, 1189312, Note_on_c, 0, 63, 67
2, 1189360, Control_c, 0, 93, 0
2, 1189376, Note_off_c, 0, 63, 67
2, 1189376, Note_on_c, 0, 44, 67
2, 1189440, Note_off_c, 0, 44, 67
2, 1189440, Note_on_c, 0, 51, 67
2, 1189504, Note_off_c, 0, 51, 67
2, 1189504, Note_on_c, 0, 56, 67
2, 1189568, Note_off_c, 0, 56, 67
2, 1189568, Note_on_c, 0, 58, 67
2, 1189632, Note_off_c, 0, 58, 67
2, 1189632, Note_on_c, 0, 60, 67
2, 1189696, Note_off_c, 0, 60, 67
2, 1189696, Note_on_c, 0, 56, 67
2, 1189760, Note_off_c, 0, 56, 67
2, 1189760, Note_on_c, 0, 63, 67
2, 1189824, Note_off_c, 0, 63, 67
2, 1189824, Note_on_c, 0, 68, 67
2, 1189872, Control_c, 0, 93, 0
2, 1189888, Note_off_c, 0, 68, 67
2, 1189888, Note_on_c, 0, 46, 67
2, 1189952, Note_off_c, 0, 46, 67
2, 1189952, Note_on_c, 0, 53, 67
2, 1190016, Note_off_c, 0, 53, 67
2, 1190016, Note_on_c, 0, 58, 67
2, 1190080, Note_off_c, 0, 58, 67
2, 1190080, Note_on_c, 0, 60, 67
2, 1190144, Note_off_c, 0, 60, 67
2, 1190144, Note_on_c, 0, 62, 67
2, 1190208, Note_off_c, 0, 62, 67
2, 1190208, Note_on_c, 0, 58, 67
2, 1190272, Note_off_c, 0, 58, 67
2, 1190272, Note_on_c, 0, 65, 67
2, 1190336, Note_off_c, 0, 65, 67
2, 1190336, Note_on_c, 0, 70, 67
2, 1190384, Control_c, 0, 93, 0
2, 1190400, Note_off_c, 0, 70, 67
2, 1190400, Note_on_c, 0, 41, 67
2, 1190464, Note_off_c, 0, 41, 67
2, 1190464, Note_on_c, 0, 44, 67
2, 1190528, Note_off_c, 0, 44, 67
2, 1190528, Control_c, 0, 64, 64
2, 1190528, Note_on_c, 0, 50, 67
2, 1190549, Note_off_c, 0, 50, 67
2, 1190549, Note_on_c, 0, 53, 67
2, 1190570, Note_off_c, 0, 53, 67
2, 1190570, Note_on_c, 0, 58, 67
2, 1190591, Note_off_c, 0, 58, 67
2, 1190592, Control_c, 0, 93, 0
2, 1190592, Note_on_c, 0, 62, 67
2, 1190613, Note_off_c, 0, 62, 67
2, 1190613, Note_on_c, 0, 65, 67
2, 1190634, Note_off_c, 0, 65, 67
2, 1190634, Note_on_c, 0, 70, 67
2, 1190656, Control_c, 0, 93, 0
2, 1190656, Control_c, 0, 64, 0
2, 1190784, Note_off_c, 0, 70, 67
2, 1190784, Note_on_c, 0, 51, 67
2, 1190848, Note_off_c, 0, 51, 67
2, 1190848, Note_on_c, 0, 46, 67
2, 1190912, Note_off_c, 0, 46, 67
2, 1190912, Note_on_c, 0, 39, 67
2, 1190976, Note_off_c, 0, 39, 67
2, 1190976, Note_on_c, 0, 46, 67
2, 1191040, Note_off_c, 0, 46, 67
2, 1191040, Note_on_c, 0, 51, 67
2, 1191104, Note_off_c, 0, 51, 67
2, 1191104, Note_on_c, 0, 53, 67
2, 1191168, Note_off_c, 0, 53, 67
2, 1191168, Note_on_c, 0, 55, 67
2, 1191232, Note_off_c, 0, 55, 67
2, 1191232, Note_on_c, 0, 51, 67
2, 1191296, Note_off_c, 0, 51, 67
2, 1191296, Note_on_c, 0, 58, 67
2, 1191360, Note_off_c, 0, 58, 67
2, 1191360, Note_on_c, 0, 63, 67
2, 1191408, Control_c, 0, 93, 0
2, 1191424, Note_off_c, 0, 63, 67
2, 1191424, Note_on_c, 0, 44, 67
2, 1191488, Note_off_c, 0, 44, 67
2, 1191488, Note_on_c, 0, 51, 67
2, 1191552, Note_off_c, 0, 51, 67
2, 1191552, Note_on_c, 0, 56, 67
2, 1191616, Note_off_c, 0, 56, 67
2, 1191616, Note_on_c, 0, 58, 67
2, 1191680, Note_off_c, 0, 58, 67
2, 1191680, Note_on_c, 0, 60, 67
2, 1191744, Note_off_c, 0, 60, 67
2, 1191744, Note_on_c, 0, 56, 67
2, 1191808, Note_off_c, 0, 56, 67
2, 1191808, Note_on_c, 0, 63, 67
2, 1191872, Note_off_c, 0, 63, 67
2, 1191872, Note_on_c, 0, 68, 67
2, 1191920, Control_c, 0, 93, 0
2, 1191936, Note_off_c, 0, 68, 67
2, 1191936, Note_on_c, 0, 46, 67
2, 1192000, Note_off_c, 0, 46, 67
2, 1192000, Note_on_c, 0, 53, 67
2, 1192064, Note_off_c, 0, 53, 67
2, 1192064, Note_on_c, 0, 58, 67
2, 1192128, Note_off_c, 0, 58, 67
2, 1192128, Note_on_c, 0, 60, 67
2, 1192192, Note_off_c, 0, 60, 67
2, 1192192, Note_on_c, 0, 62, 67
2, 1192256, Note_off_c, 0, 62, 67
2, 1192256, Note_on_c, 0, 58, 67
2, 1192320, Note_off_c, 0, 58, 67
2, 1192320, Note_on_c, 0, 65, 67
2, 1192384, Note_off_c, 0, 65, 67
2, 1192384, Note_on_c, 0, 70, 67
2, 1192432, Control_c, 0, 93, 0
2, 1192448, Note_off_c, 0, 70, 67
2, 1192448, Note_on_c, 0, 39, 67
2, 1192512, Note_off_c, 0, 39, 67
2, 1192512, Note_on_c, 0, 46, 67
2, 1192576, Note_off_c, 0, 46, 67
2, 1192576, Note_on_c, 0, 51, 67
2, 1192640, Note_off_c, 0, 51, 67
2, 1192640, Control_c, 0, 64, 64
2, 1192640, Note_on_c, 0, 55, 67
2, 1192650, Note_off_c, 0, 55, 67
2, 1192650, Note_on_c, 0, 58, 67
2, 1192661, Note_off_c, 0, 58, 67
2, 1192661, Note_on_c, 0, 63, 67
2, 1192671, Note_off_c, 0, 63, 67
2, 1192672, Control_c, 0, 93, 0
2, 1192672, Note_on_c, 0, 67, 67
2, 1192682, Note_off_c, 0, 67, 67
2, 1192682, Note_on_c, 0, 70, 67
2, 1192693, Note_off_c, 0, 70, 67
2, 1192693, Note_on_c, 0, 75, 67
2, 1192703, Note_off_c, 0, 75, 67
2, 1192704, Control_c, 0, 93, 0
2, 1192832, Control_c, 0, 93, 0
2, 1192896, Control_c, 0, 93, 0
2, 1192896, Control_c, 0, 64, 0
2, 1192960, Control_c, 0, 93, 0
2, 1192960, Note_on_c, 0, 51, 67
2, 1193024, Note_off_c, 0, 51, 67
2, 1193088, Note_off_c, 0, 51, 67
2, 1193088, Note_on_c, 0, 63, 67
2, 1193152, Note_off_c, 0, 63, 67
2, 1193216, Note_off_c, 0, 63, 67
2, 1193216, Note_on_c, 0, 50, 67
2, 1193280, Note_off_c, 0, 50, 67
2, 1193344, Note_off_c, 0, 50, 67
2, 1193344, Note_on_c, 0, 62, 67
2, 1193408, Note_off_c, 0, 62, 67
2, 1193472, Note_off_c, 0, 62, 67
2, 1193472, Note_on_c, 0, 48, 67
2, 1193536, Note_off_c, 0, 48, 67
2, 1193600, Note_off_c, 0, 48, 67
2, 1193600, Note_on_c, 0, 60, 67
2, 1193664, Note_off_c, 0, 60, 67
2, 1193728, Note_off_c, 0, 60, 67
2, 1193728, Note_on_c, 0, 46, 67
2, 1193792, Note_off_c, 0, 46, 67
2, 1193856, Note_off_c, 0, 46, 67
2, 1193856, Note_on_c, 0, 58, 67
2, 1193920, Note_off_c, 0, 58, 67
2, 1193984, Note_off_c, 0, 58, 67
2, 1193984, Note_on_c, 0, 51, 67
2, 1194048, Note_off_c, 0, 51, 67
2, 1194112, Note_off_c, 0, 51, 67
2, 1194112, Note_on_c, 0, 63, 67
2, 1194176, Note_off_c, 0, 63, 67
2, 1194240, Note_off_c, 0, 63, 67
2, 1194240, Note_on_c, 0, 46, 67
2, 1194304, Note_off_c, 0, 46, 67
2, 1194368, Note_off_c, 0, 46, 67
2, 1194368, Note_on_c, 0, 58, 67
2, 1194432, Note_off_c, 0, 58, 67
2, 1194496, Note_off_c, 0, 58, 67
2, 1194496, Note_on_c, 0, 48, 67
2, 1194560, Note_off_c, 0, 48, 67
2, 1194624, Note_off_c, 0, 48, 67
2, 1194624, Note_on_c, 0, 60, 67
2, 1194688, Note_off_c, 0, 60, 67
2, 1194752, Note_off_c, 0, 60, 67
2, 1194752, Note_on_c, 0, 46, 67
2, 1194816, Note_off_c, 0, 46, 67
2, 1194880, Note_off_c, 0, 46, 67
2, 1194880, Note_on_c, 0, 58, 67
2, 1194944, Note_off_c, 0, 58, 67
2, 1195008, Note_off_c, 0, 58, 67
2, 1195008, Note_on_c, 0, 50, 67
2, 1195072, Note_off_c, 0, 50, 67
2, 1195136, Note_off_c, 0, 50, 67
2, 1195136, Note_on_c, 0, 62, 67
2, 1195200, Note_off_c, 0, 62, 67
2, 1195264, Note_off_c, 0, 62, 67
2, 1195264, Note_on_c, 0, 46, 67
2, 1195328, Note_off_c, 0, 46, 67
2, 1195392, Note_off_c, 0, 46, 67
2, 1195392, Note_on_c, 0, 58, 67
2, 1195456, Note_off_c, 0, 58, 67
2, 1195520, Note_off_c, 0, 58, 67
2, 1195520, Note_on_c, 0, 48, 67
2, 1195584, Note_off_c, 0, 48, 67
2, 1195648, Note_off_c, 0, 48, 67
2, 1195648, Note_on_c, 0, 60, 67
2, 1195712, Note_off_c, 0, 60, 67
2, 1195776, Note_off_c, 0, 60, 67
2, 1195776, Note_on_c, 0, 49, 67
2, 1195840, Note_off_c, 0, 49, 67
2, 1195904, Note_off_c, 0, 49, 67
2, 1195904, Note_on_c, 0, 61, 67
2, 1195968, Note_off_c, 0, 61, 67
2, 1196032, Note_off_c, 0, 61, 67
2, 1196032, Note_on_c, 0, 50, 67
2, 1196096, Note_off_c, 0, 50, 67
2, 1196160, Note_off_c, 0, 50, 67
2, 1196160, Note_on_c, 0, 62, 67
2, 1196224, Note_off_c, 0, 62, 67
2, 1196288, Note_off_c, 0, 62, 67
2, 1196288, Note_on_c, 0, 46, 67
2, 1196352, Note_off_c, 0, 46, 67
2, 1196416, Note_off_c, 0, 46, 67
2, 1196416, Note_on_c, 0, 58, 67
2, 1196480, Note_off_c, 0, 58, 67
2, 1196544, Note_off_c, 0, 58, 67
2, 1196544, Note_on_c, 0, 51, 67
2, 1196608, Note_off_c, 0, 51, 67
2, 1196672, Note_off_c, 0, 51, 67
2, 1196672, Note_on_c, 0, 63, 67
2, 1196736, Note_off_c, 0, 63, 67
2, 1196800, Note_off_c, 0, 63, 67
2, 1196800, Note_on_c, 0, 46, 67
2, 1196864, Note_off_c, 0, 46, 67
2, 1196928, Note_off_c, 0, 46, 67
2, 1196928, Note_on_c, 0, 58, 67
2, 1196992, Note_off_c, 0, 58, 67
2, 1197056, Note_off_c, 0, 58, 67
2, 1197056, Note_on_c, 0, 51, 67
2, 1197120, Note_off_c, 0, 51, 67
2, 1197184, Note_off_c, 0, 51, 67
2, 1197184, Note_on_c, 0, 63, 67
2, 1197248, Note_off_c, 0, 63, 67
2, 1197312, Note_off_c, 0, 63, 67
2, 1197312, Note_on_c, 0, 50, 67
2, 1197376, Note_off_c, 0, 50, 67
2, 1197440, Note_off_c, 0, 50, 67
2, 1197440, Note_on_c, 0, 62, 67
2, 1197504, Note_off_c, 0, 62, 67
2, 1197568, Note_off_c, 0, 62, 67
2, 1197568, Note_on_c, 0, 48, 67
2, 1197632, Note_off_c, 0, 48, 67
2, 1197696, Note_off_c, 0, 48, 67
2, 1197696, Note_on_c, 0, 60, 67
2, 1197760, Note_off_c, 0, 60, 67
2, 1197824, Note_off_c, 0, 60, 67
2, 1197824, Note_on_c, 0, 46, 67
2, 1197888, Note_off_c, 0, 46, 67
2, 1197952, Note_off_c, 0, 46, 67
2, 1197952, Note_on_c, 0, 58, 67
2, 1198016, Note_off_c, 0, 58, 67
2, 1198080, Note_off_c, 0, 58, 67
2, 1198080, Note_on_c, 0, 51, 67
2, 1198144, Note_off_c, 0, 51, 67
2, 1198208, Note_off_c, 0, 51, 67
2, 1198208, Note_on_c, 0, 63, 67
2, 1198272, Note_off_c, 0, 63, 67
2, 1198336, Note_off_c, 0, 63, 67
2, 1198336, Note_on_c, 0, 46, 67
2, 1198400, Note_off_c, 0, 46, 67
2, 1198464, Note_off_c, 0, 46, 67
2, 1198464, Note_on_c, 0, 58, 67
2, 1198528, Note_off_c, 0, 58, 67
2, 1198592, Note_off_c, 0, 58, 67
2, 1198592, Note_on_c, 0, 48, 67
2, 1198656, Note_off_c, 0, 48, 67
2, 1198720, Note_off_c, 0, 48, 67
2, 1198720, Note_on_c, 0, 60, 67
2, 1198784, Note_off_c, 0, 60, 67
2, 1198848, Note_off_c, 0, 60, 67
2, 1198848, Note_on_c, 0, 46, 67
2, 1198912, Note_off_c, 0, 46, 67
2, 1198976, Note_off_c, 0, 46, 67
2, 1198976, Note_on_c, 0, 58, 67
2, 1199040, Note_off_c, 0, 58, 67
2, 1199104, Note_off_c, 0, 58, 67
2, 1199104, Note_on_c, 0, 50, 67
2, 1199168, Note_off_c, 0, 50, 67
2, 1199232, Note_off_c, 0, 50, 67
2, 1199232, Note_on_c, 0, 62, 67
2, 1199296, Note_off_c, 0, 62, 67
2, 1199360, Note_off_c, 0, 62, 67
2, 1199360, Note_on_c, 0, 48, 67
2, 1199424, Note_off_c, 0, 48, 67
2, 1199488, Note_off_c, 0, 48, 67
2, 1199488, Note_on_c, 0, 60, 67
2, 1199552, Note_off_c, 0, 60, 67
2, 1199616, Note_off_c, 0, 60, 67
2, 1199616, Note_on_c, 0, 46, 67
2, 1199680, Note_off_c, 0, 46, 67
2, 1199744, Note_off_c, 0, 46, 67
2, 1199744, Note_on_c, 0, 58, 67
2, 1199808, Note_off_c, 0, 58, 67
2, 1199872, Note_off_c, 0, 58, 67
2, 1199872, Note_on_c, 0, 48, 67
2, 1199936, Note_off_c, 0, 48, 67
2, 1200000, Note_off_c, 0, 48, 67
2, 1200000, Note_on_c, 0, 60, 67
2, 1200064, Note_off_c, 0, 60, 67
2, 1200128, Note_off_c, 0, 60, 67
2, 1200128, Note_on_c, 0, 50, 67
2, 1200192, Note_off_c, 0, 50, 67
2, 1200256, Note_off_c, 0, 50, 67
2, 1200256, Note_on_c, 0, 62, 67
2, 1200320, Note_off_c, 0, 62, 67
2, 1200384, Note_off_c, 0, 62, 67
2, 1200384, Note_on_c, 0, 46, 67
2, 1200448, Note_off_c, 0, 46, 67
2, 1200512, Note_off_c, 0, 46, 67
2, 1200512, Note_on_c, 0, 58, 67
2, 1200576, Note_off_c, 0, 58, 67
2, 1200640, Note_off_c, 0, 58, 67
2, 1200640, Note_on_c, 0, 51, 67
2, 1200704, Note_off_c, 0, 51, 67
2, 1200768, Note_off_c, 0, 51, 67
2, 1200768, Note_on_c, 0, 63, 67
2, 1200832, Note_off_c, 0, 63, 67
2, 1200896, Note_off_c, 0, 63, 67
2, 1200896, Note_on_c, 0, 46, 67
2, 1200960, Note_off_c, 0, 46, 67
2, 1201024, Note_off_c, 0, 46, 67
2, 1201024, Note_on_c, 0, 58, 67
2, 1201088, Note_off_c, 0, 58, 67
2, 1201152, Note_off_c, 0, 58, 67
2, 1201152, Note_on_c, 0, 39, 67
2, 1201216, Note_off_c, 0, 39, 67
2, 1201216, Note_on_c, 0, 46, 67
2, 1201280, Note_off_c, 0, 46, 67
2, 1201280, Note_on_c, 0, 51, 67
2, 1201344, Note_off_c, 0, 51, 67
2, 1201344, Note_on_c, 0, 53, 67
2, 1201408, Note_off_c, 0, 53, 67
2, 1201408, Note_on_c, 0, 55, 67
2, 1201472, Note_off_c, 0, 55, 67
2, 1201472, Note_on_c, 0, 51, 67
2, 1201536, Note_off_c, 0, 51, 67
2, 1201536, Note_on_c, 0, 58, 67
2, 1201600, Note_off_c, 0, 58, 67
2, 1201600, Note_on_c, 0, 63, 67
2, 1201648, Control_c, 0, 93, 0
2, 1201664, Note_off_c, 0, 63, 67
2, 1201664, Note_on_c, 0, 44, 67
2, 1201728, Note_off_c, 0, 44, 67
2, 1201728, Note_on_c, 0, 51, 67
2, 1201792, Note_off_c, 0, 51, 67
2, 1201792, Note_on_c, 0, 56, 67
2, 1201856, Note_off_c, 0, 56, 67
2, 1201856, Note_on_c, 0, 58, 67
2, 1201920, Note_off_c, 0, 58, 67
2, 1201920, Note_on_c, 0, 60, 67
2, 1201984, Note_off_c, 0, 60, 67
2, 1201984, Note_on_c, 0, 56, 67
2, 1202048, Note_off_c, 0, 56, 67
2, 1202048, Note_on_c, 0, 63, 67
2, 1202112, Note_off_c, 0, 63, 67
2, 1202112, Note_on_c, 0, 68, 67
2, 1202160, Control_c, 0, 93, 0
2, 1202176, Note_off_c, 0, 68, 67
2, 1202176, Note_on_c, 0, 46, 67
2, 1202240, Note_off_c, 0, 46, 67
2, 1202240, Note_on_c, 0, 53, 67
2, 1202304, Note_off_c, 0, 53, 67
2, 1202304, Note_on_c, 0, 58, 67
2, 1202368, Note_off_c, 0, 58, 67
2, 1202368, Note_on_c, 0, 60, 67
2, 1202432, Note_off_c, 0, 60, 67
2, 1202432, Note_on_c, 0, 62, 67
2, 1202496, Note_off_c, 0, 62, 67
2, 1202496, Note_on_c, 0, 58, 67
2, 1202560, Note_off_c, 0, 58, 67
2, 1202560, Note_on_c, 0, 65, 67
2, 1202624, Note_off_c, 0, 65, 67
2, 1202624, Note_on_c, 0, 70, 67
2, 1202672, Control_c, 0, 93, 0
2, 1202688, Note_off_c, 0, 70, 67
2, 1202688, Note_on_c, 0, 41, 67
2, 1202752, Note_off_c, 0, 41, 67
2, 1202752, Note_on_c, 0, 44, 67
2, 1202816, Note_off_c, 0, 44, 67
2, 1202816, Control_c, 0, 64, 64
2, 1202816, Note_on_c, 0, 50, 67
2, 1202837, Note_off_c, 0, 50, 67
2, 1202837, Note_on_c, 0, 53, 67
2, 1202858, Note_off_c, 0, 53, 67
2, 1202858, Note_on_c, 0, 58, 67
2, 1202879, Note_off_c, 0, 58, 67
2, 1202880, Control_c, 0, 93, 0
2, 1202880, Note_on_c, 0, 62, 67
2, 1202901, Note_off_c, 0, 62, 67
2, 1202901, Note_on_c, 0, 65, 67
2, 1202922, Note_off_c, 0, 65, 67
2, 1202922, Note_on_c, 0, 70, 67
2, 1202944, Control_c, 0, 93, 0
2, 1202944, Control_c, 0, 64, 0
2, 1203072, Note_off_c, 0, 70, 67
2, 1203072, Note_on_c, 0, 51, 67
2, 1203136, Note_off_c, 0, 51, 67
2, 1203136, Note_on_c, 0, 46, 67
2, 1203200, Note_off_c, 0, 46, 67
2, 1203200, Note_on_c, 0, 39, 67
2, 1203264, Note_off_c, 0, 39, 67
2, 1203264, Note_on_c, 0, 46, 67
2, 1203328, Note_off_c, 0, 46, 67
2, 1203328, Note_on_c, 0, 51, 67
2, 1203392, Note_off_c, 0, 51, 67
2, 1203392, Note_on_c, 0, 53, 67
2, 1203456, Note_off_c, 0, 53, 67
2, 1203456, Note_on_c, 0, 55, 67
2, 1203520, Note_off_c, 0, 55, 67
2, 1203520, Note_on_c, 0, 51, 67
2, 1203584, Note_off_c, 0, 51, 67
2, 1203584, Note_on_c, 0, 58, 67
2, 1203648, Note_off_c, 0, 58, 67
2, 1203648, Note_on_c, 0, 63, 67
2, 1203696, Control_c, 0, 93, 0
2, 1203712, Note_off_c, 0, 63, 67
2, 1203712, Note_on_c, 0, 44, 67
2, 1203776, Note_off_c, 0, 44, 67
2, 1203776, Note_on_c, 0, 51, 67
2, 1203840, Note_off_c, 0, 51, 67
2, 1203840, Note_on_c, 0, 56, 67
2, 1203904, Note_off_c, 0, 56, 67
2, 1203904, Note_on_c, 0, 58, 67
2, 1203968, Note_off_c, 0, 58, 67
2, 1203968, Note_on_c, 0, 60, 67
2, 1204032, Note_off_c, 0, 60, 67
2, 1204032, Note_on_c, 0, 56, 67
2, 1204096, Note_off_c, 0, 56, 67
2, 1204096, Note_on_c, 0, 63, 67
2, 1204160, Note_off_c, 0, 63, 67
2, 1204160, Note_on_c, 0, 68, 67
2, 1204208, Control_c, 0, 93, 0
2, 1204224, Note_off_c, 0, 68, 67
2, 1204224, Note_on_c, 0, 46, 67
2, 1204288, Note_off_c, 0, 46, 67
2, 1204288, Note_on_c, 0, 53, 67
2, 1204352, Note_off_c, 0, 53, 67
2, 1204352, Note_on_c, 0, 58, 67
2, 1204416, Note_off_c, 0, 58, 67
2, 1204416, Note_on_c, 0, 60, 67
2, 1204480, Note_off_c, 0, 60, 67
2, 1204480, Note_on_c, 0, 62, 67
2, 1204544, Note_off_c, 0, 62, 67
2, 1204544, Note_on_c, 0, 58, 67
2, 1204608, Note_off_c, 0, 58, 67
2, 1204608, Note_on_c, 0, 65, 67
2, 1204672, Note_off_c, 0, 65, 67
2, 1204672, Note_on_c, 0, 70, 67
2, 1204720, Control_c, 0, 93, 0
2, 1204736, Note_off_c, 0, 70, 67
2, 1204736, Note_on_c, 0, 39, 67
2, 1204800, Note_off_c, 0, 39, 67
2, 1204800, Note_on_c, 0, 46, 67
2, 1204864, Note_off_c, 0, 46, 67
2, 1204864, Note_on_c, 0, 51, 67
2, 1204928, Note_off_c, 0, 51, 67
2, 1204928, Control_c, 0, 64, 64
2, 1204928, Note_on_c, 0, 55, 67
2, 1204938, Note_off_c, 0, 55, 67
2, 1204938, Note_on_c, 0, 58, 67
2, 1204949, Note_off_c, 0, 58, 67
2, 1204949, Note_on_c, 0, 63, 67
2, 1204959, Note_off_c, 0, 63, 67
2, 1204960, Control_c, 0, 93, 0
2, 1204960, Note_on_c, 0, 67, 67
2, 1204970, Note_off_c, 0, 67, 67
2, 1204970, Note_on_c, 0, 70, 67
2, 1204981, Note_off_c, 0, 70, 67
2, 1204981, Note_on_c, 0, 75, 67
2, 1204991, Note_off_c, 0, 75, 67
2, 1204992, Control_c, 0, 93, 0
2, 1205120, Control_c, 0, 93, 0
2, 1205184, Control_c, 0, 93, 0
2, 1205184, Control_c, 0, 64, 0
2, 1205248, Control_c, 0, 93, 0
2, 1205248, Note_on_c, 0, 51, 67
2, 1205312, Note_off_c, 0, 51, 67
2, 1205376, Note_off_c, 0, 51, 67
2, 1205376, Note_on_c, 0, 63, 67
2, 1205440, Note_off_c, 0, 63, 67
2, 1205504, Note_off_c, 0, 63, 67
2, 1205504, Note_on_c, 0, 50, 67
2, 1205568, Note_off_c, 0, 50, 67
2, 1205632, Note_off_c, 0, 50, 67
2, 1205632, Note_on_c, 0, 62, 67
2, 1205696, Note_off_c, 0, 62, 67
2, 1205760, Note_off_c, 0, 62, 67
2, 1205760, Note_on_c, 0, 48, 67
2, 1205824, Note_off_c, 0, 48, 67
2, 1205888, Note_off_c, 0, 48, 67
2, 1205888, Note_on_c, 0, 60, 67
2, 1205952, Note_off_c, 0, 60, 67
2, 1206016, Note_off_c, 0, 60, 67
2, 1206016, Note_on_c, 0, 46, 67
2, 1206080, Note_off_c, 0, 46, 67
2, 1206144, Note_off_c, 0, 46, 67
2, 1206144, Note_on_c, 0, 58, 67
2, 1206208, Note_off_c, 0, 58, 67
2, 1206272, Note_off_c, 0, 58, 67
2, 1206272, Note_on_c, 0, 51, 67
2, 1206336, Note_off_c, 0, 51, 67
2, 1206400, Note_off_c, 0, 51, 67
2, 1206400, Note_on_c, 0, 63, 67
2, 1206464, Note_off_c, 0, 63, 67
2, 1206528, Note_off_c, 0, 63, 67
2, 1206528, Note_on_c, 0, 46, 67
2, 1206592, Note_off_c, 0, 46, 67
2, 1206656, Note_off_c, 0, 46, 67
2, 1206656, Note_on_c, 0, 58, 67
2, 1206720, Note_off_c, 0, 58, 67
2, 1206784, Note_off_c, 0, 58, 67
2, 1206784, Note_on_c, 0, 48, 67
2, 1206848, Note_off_c, 0, 48, 67
2, 1206912, Note_off_c, 0, 48, 67
2, 1206912, Note_on_c, 0, 60, 67
2, 1206976, Note_off_c, 0, 60, 67
2, 1207040, Note_off_c, 0, 60, 67
2, 1207040, Note_on_c, 0, 46, 67
2, 1207104, Note_off_c, 0, 46, 67
2, 1207168, Note_off_c, 0, 46, 67
2, 1207168, Note_on_c, 0, 58, 67
2, 1207232, Note_off_c, 0, 58, 67
2, 1207296, Note_off_c, 0, 58, 67
2, 1207296, Note_on_c, 0, 50, 67
2, 1207360, Note_off_c, 0, 50, 67
2, 1207424, Note_off_c, 0, 50, 67
2, 1207424, Note_on_c, 0, 62, 67
2, 1207488, Note_off_c, 0, 62, 67
2, 1207552, Note_off_c, 0, 62, 67
2, 1207552, Note_on_c, 0, 46, 67
2, 1207616, Note_off_c, 0, 46, 67
2, 1207680, Note_off_c, 0, 46, 67
2, 1207680, Note_on_c, 0, 58, 67
2, 1207744, Note_off_c, 0, 58, 67
2, 1207808, Note_off_c, 0, 58, 67
2, 1207808, Note_on_c, 0, 48, 67
2, 1207872, Note_off_c, 0, 48, 67
2, 1207936, Note_off_c, 0, 48, 67
2, 1207936, Note_on_c, 0, 60, 67
2, 1208000, Note_off_c, 0, 60, 67
2, 1208064, Note_off_c, 0, 60, 67
2, 1208064, Note_on_c, 0, 49, 67
2, 1208128, Note_off_c, 0, 49, 67
2, 1208192, Note_off_c, 0, 49, 67
2, 1208192, Note_on_c, 0, 61, 67
2, 1208256, Note_off_c, 0, 61, 67
2, 1208320, Note_off_c, 0, 61, 67
2, 1208320, Note_on_c, 0, 50, 67
2, 1208384, Note_off_c, 0, 50, 67
2, 1208448, Note_off_c, 0, 50, 67
2, 1208448, Note_on_c, 0, 62, 67
2, 1208512, Note_off_c, 0, 62, 67
2, 1208576, Note_off_c, 0, 62, 67
2, 1208576, Note_on_c, 0, 46, 67
2, 1208640, Note_off_c, 0, 46, 67
2, 1208704, Note_off_c, 0, 46, 67
2, 1208704, Note_on_c, 0, 58, 67
2, 1208768, Note_off_c, 0, 58, 67
2, 1208832, Note_off_c, 0, 58, 67
2, 1208832, Note_on_c, 0, 51, 67
2, 1208896, Note_off_c, 0, 51, 67
2, 1208960, Note_off_c, 0, 51, 67
2, 1208960, Note_on_c, 0, 63, 67
2, 1209024, Note_off_c, 0, 63, 67
2, 1209088, Note_off_c, 0, 63, 67
2, 1209088, Note_on_c, 0, 46, 67
2, 1209152, Note_off_c, 0, 46, 67
2, 1209216, Note_off_c, 0, 46, 67
2, 1209216, Note_on_c, 0, 58, 67
2, 1209280, Note_off_c, 0, 58, 67
2, 1209344, Note_off_c, 0, 58, 67
2, 1209344, Note_on_c, 0, 51, 67
2, 1209408, Note_off_c, 0, 51, 67
2, 1209472, Note_off_c, 0, 51, 67
2, 1209472, Note_on_c, 0, 63, 67
2, 1209536, Note_off_c, 0, 63, 67
2, 1209600, Note_off_c, 0, 63, 67
2, 1209600, Note_on_c, 0, 50, 67
2, 1209664, Note_off_c, 0, 50, 67
2, 1209728, Note_off_c, 0, 50, 67
2, 1209728, Note_on_c, 0, 62, 67
2, 1209792, Note_off_c, 0, 62, 67
2, 1209856, Note_off_c, 0, 62, 67
2, 1209856, Note_on_c, 0, 48, 67
2, 1209920, Note_off_c, 0, 48, 67
2, 1209984, Note_off_c, 0, 48, 67
2, 1209984, Note_on_c, 0, 60, 67
2, 1210048, Note_off_c, 0, 60, 67
2, 1210112, Note_off_c, 0, 60, 67
2, 1210112, Note_on_c, 0, 46, 67
2, 1210176, Note_off_c, 0, 46, 67
2, 1210240, Note_off_c, 0, 46, 67
2, 1210240, Note_on_c, 0, 58, 67
2, 1210304, Note_off_c, 0, 58, 67
2, 1210368, Note_off_c, 0, 58, 67
2, 1210368, Note_on_c, 0, 51, 67
2, 1210432, Note_off_c, 0, 51, 67
2, 1210496, Note_off_c, 0, 51, 67
2, 1210496, Note_on_c, 0, 63, 67
2, 1210560, Note_off_c, 0, 63, 67
2, 1210624, Note_off_c, 0, 63, 67
2, 1210624, Note_on_c, 0, 46, 67
2, 1210688, Note_off_c, 0, 46, 67
2, 1210752, Note_off_c, 0, 46, 67
2, 1210752, Note_on_c, 0, 58, 67
2, 1210816, Note_off_c, 0, 58, 67
2, 1210880, Note_off_c, 0, 58, 67
2, 1210880, Note_on_c, 0, 48, 67
2, 1210944, Note_off_c, 0, 48, 67
2, 1211008, Note_off_c, 0, 48, 67
2, 1211008, Note_on_c, 0, 60, 67
2, 1211072, Note_off_c, 0, 60, 67
2, 1211136, Note_off_c, 0, 60, 67
2, 1211136, Note_on_c, 0, 46, 67
2, 1211200, Note_off_c, 0, 46, 67
2, 1211264, Note_off_c, 0, 46, 67
2, 1211264, Note_on_c, 0, 58, 67
2, 1211328, Note_off_c, 0, 58, 67
2, 1211392, Note_off_c, 0, 58, 67
2, 1211392, Note_on_c, 0, 50, 67
2, 1211456, Note_off_c, 0, 50, 67
2, 1211520, Note_off_c, 0, 50, 67
2, 1211520, Note_on_c, 0, 62, 67
2, 1211584, Note_off_c, 0, 62, 67
2, 1211648, Note_off_c, 0, 62, 67
2, 1211648, Note_on_c, 0, 48, 67
2, 1211712, Note_off_c, 0, 48, 67
2, 1211776, Note_off_c, 0, 48, 67
2, 1211776, Note_on_c, 0, 60, 67
2, 1211840, Note_off_c, 0, 60, 67
2, 1211904, Note_off_c, 0, 60, 67
2, 1211904, Note_on_c, 0, 46, 67
2, 1211968, Note_off_c, 0, 46, 67
2, 1212032, Note_off_c, 0, 46, 67
2, 1212032, Note_on_c, 0, 58, 67
2, 1212096, Note_off_c, 0, 58, 67
2, 1212160, Note_off_c, 0, 58, 67
2, 1212160, Note_on_c, 0, 48, 67
2, 1212224, Note_off_c, 0, 48, 67
2, 1212288, Note_off_c, 0, 48, 67
2, 1212288, Note_on_c, 0, 60, 67
2, 1212352, Note_off_c, 0, 60, 67
2, 1212416, Note_off_c, 0, 60, 67
2, 1212416, Note_on_c, 0, 50, 67
2, 1212480, Note_off_c, 0, 50, 67
2, 1212544, Note_off_c, 0, 50, 67
2, 1212544, Note_on_c, 0, 62, 67
2, 1212608, Note_off_c, 0, 62, 67
2, 1212672, Note_off_c, 0, 62, 67
2, 1212672, Note_on_c, 0, 46, 67
2, 1212736, Note_off_c, 0, 46, 67
2, 1212800, Note_off_c, 0, 46, 67
2, 1212800, Note_on_c, 0, 58, 67
2, 1212864, Note_off_c, 0, 58, 67
2, 1212928, Note_off_c, 0, 58, 67
2, 1212928, Note_on_c, 0, 51, 67
2, 1212992, Note_off_c, 0, 51, 67
2, 1213056, Note_off_c, 0, 51, 67
2, 1213056, Note_on_c, 0, 63, 67
2, 1213120, Note_off_c, 0, 63, 67
2, 1213184, Note_off_c, 0, 63, 67
2, 1213184, Note_on_c, 0, 46, 67
2, 1213248, Note_off_c, 0, 46, 67
2, 1213312, Note_off_c, 0, 46, 67
2, 1213312, Note_on_c, 0, 58, 67
2, 1213376, Note_off_c, 0, 58, 67
2, 1213440, Note_off_c, 0, 58, 67
2, 1213440, Note_on_c, 0, 39, 67
2, 1213504, Note_off_c, 0, 39, 67
2, 1213504, Note_on_c, 0, 46, 67
2, 1213568, Note_off_c, 0, 46, 67
2, 1213568, Note_on_c, 0, 51, 67
2, 1213632, Note_off_c, 0, 51, 67
2, 1213632, Note_on_c, 0, 53, 67
2, 1213696, Note_off_c, 0, 53, 67
2, 1213696, Note_on_c, 0, 55, 67
2, 1213760, Note_off_c, 0, 55, 67
2, 1213760, Note_on_c, 0, 51, 67
2, 1213824, Note_off_c, 0, 51, 67
2, 1213824, Note_on_c, 0, 58, 67
2, 1213888, Note_off_c, 0, 58, 67
2, 1213888, Note_on_c, 0, 63, 67
2, 1213936, Control_c, 0, 93, 0
2, 1213952, Note_off_c, 0, 63, 67
2, 1213952, Note_on_c, 0, 44, 67
2, 1214016, Note_off_c, 0, 44, 67
2, 1214016, Note_on_c, 0, 51, 67
2, 1214080, Note_off_c, 0, 51, 67
2, 1214080, Note_on_c, 0, 56, 67
2, 1214144, Note_off_c, 0, 56, 67
2, 1214144, Note_on_c, 0, 58, 67
2, 1214208, Note_off_c, 0, 58, 67
2, 1214208, Note_on_c, 0, 60, 67
2, 1214272, Note_off_c, 0, 60, 67
2, 1214272, Note_on_c, 0, 56, 67
2, 1214336, Note_off_c, 0, 56, 67
2, 1214336, Note_on_c, 0, 63, 67
2, 1214400, Note_off_c, 0, 63, 67
2, 1214400, Note_on_c, 0, 68, 67
2, 1214448, Control_c, 0, 93, 0
2, 1214464, Note_off_c, 0, 68, 67
2, 1214464, Note_on_c, 0, 46, 67
2, 1214528, Note_off_c, 0, 46, 67
2, 1214528, Note_on_c, 0, 53, 67
2, 1214592, Note_off_c, 0, 53, 67
2, 1214592, Note_on_c, 0, 58, 67
2, 1214656, Note_off_c, 0, 58, 67
2, 1214656, Note_on_c, 0, 60, 67
2, 1214720, Note_off_c, 0, 60, 67
2, 1214720, Note_on_c, 0, 62, 67
2, 1214784, Note_off_c, 0, 62, 67
2, 1214784, Note_on_c, 0, 58, 67
2, 1214848, Note_off_c, 0, 58, 67
2, 1214848, Note_on_c, 0, 65, 67
2, 1214912, Note_off_c, 0, 65, 67
2, 1214912, Note_on_c, 0, 70, 67
2, 1214960, Control_c, 0, 93, 0
2, 1214976, Note_off_c, 0, 70, 67
2, 1214976, Note_on_c, 0, 41, 67
2, 1215040, Note_off_c, 0, 41, 67
2, 1215040, Note_on_c, 0, 44, 67
2, 1215104, Note_off_c, 0, 44, 67
2, 1215104, Control_c, 0, 64, 64
2, 1215104, Note_on_c, 0, 50, 67
2, 1215125, Note_off_c, 0, 50, 67
2, 1215125, Note_on_c, 0, 53, 67
2, 1215146, Note_off_c, 0, 53, 67
2, 1215146, Note_on_c, 0, 58, 67
2, 1215167, Note_off_c, 0, 58, 67
2, 1215168, Control_c, 0, 93, 0
2, 1215168, Note_on_c, 0, 62, 67
2, 1215189, Note_off_c, 0, 62, 67
2, 1215189, Note_on_c, 0, 65, 67
2, 1215210, Note_off_c, 0, 65, 67
2, 1215210, Note_on_c, 0, 70, 67
2, 1215232, Control_c, 0, 93, 0
2, 1215232, Control_c, 0, 64, 0
2, 1215360, Note_off_c, 0, 70, 67
2, 1215360, Note_on_c, 0, 51, 67
2, 1215424, Note_off_c, 0, 51, 67
2, 1215424, Note_on_c, 0, 46, 67
2, 1215488, Note_off_c, 0, 46, 67
2, 1215488, Note_on_c, 0, 39, 67
2, 1215552, Note_off_c, 0, 39, 67
2, 1215552, Note_on_c, 0, 46, 67
2, 1215616, Note_off_c, 0, 46, 67
2, 1215616, Note_on_c, 0, 51, 67
2, 1215680, Note_off_c, 0, 51, 67
2, 1215680, Note_on_c, 0, 53, 67
2, 1215744, Note_off_c, 0, 53, 67
2, 1215744, Note_on_c, 0, 55, 67
2, 1215808, Note_off_c, 0, 55, 67
2, 1215808, Note_on_c, 0, 51, 67
2, 1215872, Note_off_c, 0, 51, 67
2, 1215872, Note_on_c, 0, 58, 67
2, 1215936, Note_off_c, 0, 58, 67
2, 1215936, Note_on_c, 0, 63, 67
2, 1215984, Control_c, 0, 93, 0
2, 1216000, Note_off_c, 0, 63, 67
2, 1216000, Note_on_c, 0, 44, 67
2, 1216064, Note_off_c, 0, 44, 67
2, 1216064, Note_on_c, 0, 51, 67
2, 1216128, Note_off_c, 0, 51, 67
2, 1216128, Note_on_c, 0, 56, 67
2, 1216192, Note_off_c, 0, 56, 67
2, 1216192, Note_on_c, 0, 58, 67
2, 1216256, Note_off_c, 0, 58, 67
2, 1216256, Note_on_c, 0, 60, 67
2, 1216320, Note_off_c, 0, 60, 67
2, 1216320, Note_on_c, 0, 56, 67
2, 1216384, Note_off_c, 0, 56, 67
2, 1216384, Note_on_c, 0, 63, 67
2, 1216448, Note_off_c, 0, 63, 67
2, 1216448, Note_on_c, 0, 68, 67
2, 1216496, Control_c, 0, 93, 0
2, 1216512, Note_off_c, 0, 68, 67
2, 1216512, Note_on_c, 0, 46, 67
2, 1216576, Note_off_c, 0, 46, 67
2, 1216576, Note_on_c, 0, 53, 67
2, 1216640, Note_off_c, 0, 53, 67
2, 1216640, Note_on_c, 0, 58, 67
2, 1216704, Note_off_c, 0, 58, 67
2, 1216704, Note_on_c, 0, 60, 67
2, 1216768, Note_off_c, 0, 60, 67
2, 1216768, Note_on_c, 0, 62, 67
2, 1216832, Note_off_c, 0, 62, 67
2, 1216832, Note_on_c, 0, 58, 67
2, 1216896, Note_off_c, 0, 58, 67
2, 1216896, Note_on_c, 0, 65, 67
2, 1216960, Note_off_c, 0, 65, 67
2, 1216960, Note_on_c, 0, 70, 67
2, 1217008, Control_c, 0, 93, 0
2, 1217024, Note_off_c, 0, 70, 67
2, 1217024, Note_on_c, 0, 39, 67
2, 1217088, Note_off_c, 0, 39, 67
2, 1217088, Note_on_c, 0, 46, 67
2, 1217152, Note_off_c, 0, 46, 67
2, 1217152, Note_on_c, 0, 51, 67
2, 1217216, Note_off_c, 0, 51, 67
2, 1217216, Control_c, 0, 64, 64
2, 1217216, Note_on_c, 0, 55, 67
2, 1217226, Note_off_c, 0, 55, 67
2, 1217226, Note_on_c, 0, 58, 67
2, 1217237, Note_off_c, 0, 58, 67
2, 1217237, Note_on_c, 0, 63, 67
2, 1217247, Note_off_c, 0, 63, 67
2, 1217248, Control_c, 0, 93, 0
2, 1217248, Note_on_c, 0, 67, 67
2, 1217258, Note_off_c, 0, 67, 67
2, 1217258, Note_on_c, 0, 70, 67
2, 1217269, Note_off_c, 0, 70, 67
2, 1217269, Note_on_c, 0, 75, 67
2, 1217279, Note_off_c, 0, 75, 67
2, 1217280, Control_c, 0, 93, 0
2, 1217408, Control_c, 0, 93, 0
2, 1217472, Control_c, 0, 93, 0
2, 1217472, Control_c, 0, 64, 0
2, 1217536, Control_c, 0, 93, 0
2, 1217536, Note_on_c, 0, 51, 67
2, 1217600, Note_off_c, 0, 51, 67
2, 1217664, Note_off_c, 0, 51, 67
2, 1217664, Note_on_c, 0, 63, 67
2, 1217728, Note_off_c, 0, 63, 67
2, 1217792, Note_off_c, 0, 63, 67
2, 1217792, Note_on_c, 0, 50, 67
2, 1217856, Note_off_c, 0, 50, 67
2, 1217920, Note_off_c, 0, 50, 67
2, 1217920, Note_on_c, 0, 62, 67
2, 1217984, Note_off_c, 0, 62, 67
2, 1218048, Note_off_c, 0, 62, 67
2, 1218048, Note_on_c, 0, 48, 67
2, 1218112, Note_off_c, 0, 48, 67
2, 1218176, Note_off_c, 0, 48, 67
2, 1218176, Note_on_c, 0, 60, 67
2, 1218240, Note_off_c, 0, 60, 67
2, 1218304, Note_off_c, 0, 60, 67
2, 1218304, Note_on_c, 0, 46, 67
2, 1218368, Note_off_c, 0, 46, 67
2, 1218432, Note_off_c, 0, 46, 67
2, 1218432, Note_on_c, 0, 58, 67
2, 1218496, Note_off_c, 0, 58, 67
2, 1218560, Note_off_c, 0, 58, 67
2, 1218560, Note_on_c, 0, 51, 67
2, 1218624, Note_off_c, 0, 51, 67
2, 1218688, Note_off_c, 0, 51, 67
2, 1218688, Note_on_c, 0, 63, 67
2, 1218752, Note_off_c, 0, 63, 67
2, 1218816, Note_off_c, 0, 63, 67
2, 1218816, Note_on_c, 0, 46, 67
2, 1218880, Note_off_c, 0, 46, 67
2, 1218944, Note_off_c, 0, 46, 67
2, 1218944, Note_on_c, 0, 58, 67
2, 1219008, Note_off_c, 0, 58, 67
2, 1219072, Note_off_c, 0, 58, 67
2, 1219072, Note_on_c, 0, 48, 67
2, 1219136, Note_off_c, 0, 48, 67
2, 1219200, Note_off_c, 0, 48, 67
2, 1219200, Note_on_c, 0, 60, 67
2, 1219264, Note_off_c, 0, 60, 67
2, 1219328, Note_off_c, 0, 60, 67
2, 1219328, Note_on_c, 0, 46, 67
2, 1219392, Note_off_c, 0, 46, 67
2, 1219456, Note_off_c, 0, 46, 67
2, 1219456, Note_on_c, 0, 58, 67
2, 1219520, Note_off_c, 0, 58, 67
2, 1219584, Note_off_c, 0, 58, 67
2, 1219584, Note_on_c, 0, 50, 67
2, 1219648, Note_off_c, 0, 50, 67
2, 1219712, Note_off_c, 0, 50, 67
2, 1219712, Note_on_c, 0, 62, 67
2, 1219776, Note_off_c, 0, 62, 67
2, 1219840, Note_off_c, 0, 62, 67
2, 1219840, Note_on_c, 0, 46, 67
2, 1219904, Note_off_c, 0, 46, 67
2, 1219968, Note_off_c, 0, 46, 67
2, 1219968, Note_on_c, 0, 58, 67
2, 1220032, Note_off_c, 0, 58, 67
2, 1220096, Note_off_c, 0, 58, 67
2, 1220096, Note_on_c, 0, 48, 67
2, 1220160, Note_off_c, 0, 48, 67
2, 1220224, Note_off_c, 0, 48, 67
2, 1220224, Note_on_c, 0, 60, 67
2, 1220288, Note_off_c, 0, 60, 67
2, 1220352, Note_off_c, 0, 60, 67
2, 1220352, Note_on_c, 0, 49, 67
2, 1220416, Note_off_c, 0, 49, 67
2, 1220480, Note_off_c, 0, 49, 67
2, 1220480, Note_on_c, 0, 61, 67
2, 1220544, Note_off_c, 0, 61, 67
2, 1220608, Note_off_c, 0, 61, 67
2, 1220608, Note_on_c, 0, 50, 67
2, 1220672, Note_off_c, 0, 50, 67
2, 1220736, Note_off_c, 0, 50, 67
2, 1220736, Note_on_c, 0, 62, 67
2, 1220800, Note_off_c, 0, 62, 67
2, 1220864, Note_off_c, 0, 62, 67
2, 1220864, Note_on_c, 0, 46, 67
2, 1220928, Note_off_c, 0, 46, 67
2, 1220992, Note_off_c, 0, 46, 67
2, 1220992, Note_on_c, 0, 58, 67
2, 1221056, Note_off_c, 0, 58, 67
2, 1221120, Note_off_c, 0, 58, 67
2, 1221120, Note_on_c, 0, 51, 67
2, 1221184, Note_off_c, 0, 51, 67
2, 1221248, Note_off_c, 0, 51, 67
2, 1221248, Note_on_c, 0, 63, 67
2, 1221312, Note_off_c, 0, 63, 67
2, 1221376, Note_off_c, 0, 63, 67
2, 1221376, Note_on_c, 0, 46, 67
2, 1221440, Note_off_c, 0, 46, 67
2, 1221504, Note_off_c, 0, 46, 67
2, 1221504, Note_on_c, 0, 58, 67
2, 1221568, Note_off_c, 0, 58, 67
2, 1221632, Note_off_c, 0, 58, 67
2, 1221632, Note_on_c, 0, 51, 67
2, 1221696, Note_off_c, 0, 51, 67
2, 1221760, Note_off_c, 0, 51, 67
2, 1221760, Note_on_c, 0, 63, 67
2, 1221824, Note_off_c, 0, 63, 67
2, 1221888, Note_off_c, 0, 63, 67
2, 1221888, Note_on_c, 0, 50, 67
2, 1221952, Note_off_c, 0, 50, 67
2, 1222016, Note_off_c, 0, 50, 67
2, 1222016, Note_on_c, 0, 62, 67
2, 1222080, Note_off_c, 0, 62, 67
2, 1222144, Note_off_c, 0, 62, 67
2, 1222144, Note_on_c, 0, 48, 67
2, 1222208, Note_off_c, 0, 48, 67
2, 1222272, Note_off_c, 0, 48, 67
2, 1222272, Note_on_c, 0, 60, 67
2, 1222336, Note_off_c, 0, 60, 67
2, 1222400, Note_off_c, 0, 60, 67
2, 1222400, Note_on_c, 0, 46, 67
2, 1222464, Note_off_c, 0, 46, 67
2, 1222528, Note_off_c, 0, 46, 67
2, 1222528, Note_on_c, 0, 58, 67
2, 1222592, Note_off_c, 0, 58, 67
2, 1222656, Note_off_c, 0, 58, 67
2, 1222656, Note_on_c, 0, 51, 67
2, 1222720, Note_off_c, 0, 51, 67
2, 1222784, Note_off_c, 0, 51, 67
2, 1222784, Note_on_c, 0, 63, 67
2, 1222848, Note_off_c, 0, 63, 67
2, 1222912, Note_off_c, 0, 63, 67
2, 1222912, Note_on_c, 0, 46, 67
2, 1222976, Note_off_c, 0, 46, 67
2, 1223040, Note_off_c, 0, 46, 67
2, 1223040, Note_on_c, 0, 58, 67
2, 1223104, Note_off_c, 0, 58, 67
2, 1223168, Note_off_c, 0, 58, 67
2, 1223168, Note_on_c, 0, 48, 67
2, 1223232, Note_off_c, 0, 48, 67
2, 1223296, Note_off_c, 0, 48, 67
2, 1223296, Note_on_c, 0, 60, 67
2, 1223360, Note_off_c, 0, 60, 67
2, 1223424, Note_off_c, 0, 60, 67
2, 1223424, Note_on_c, 0, 46, 67
2, 1223488, Note_off_c, 0, 46, 67
2, 1223552, Note_off_c, 0, 46, 67
2, 1223552, Note_on_c, 0, 58, 67
2, 1223616, Note_off_c, 0, 58, 67
2, 1223680, Note_off_c, 0, 58, 67
2, 1223680, Note_on_c, 0, 50, 67
2, 1223744, Note_off_c, 0, 50, 67
2, 1223808, Note_off_c, 0, 50, 67
2, 1223808, Note_on_c, 0, 62, 67
2, 1223872, Note_off_c, 0, 62, 67
2, 1223936, Note_off_c, 0, 62, 67
2, 1223936, Note_on_c, 0, 48, 67
2, 1224000, Note_off_c, 0, 48, 67
2, 1224064, Note_off_c, 0, 48, 67
2, 1224064, Note_on_c, 0, 60, 67
2, 1224128, Note_off_c, 0, 60, 67
2, 1224192, Note_off_c, 0, 60, 67
2, 1224192, Note_on_c, 0, 46, 67
2, 1224256, Note_off_c, 0, 46, 67
2, 1224320, Note_off_c, 0, 46, 67
2, 1224320, Note_on_c, 0, 58, 67
2, 1224384, Note_off_c, 0, 58, 67
2, 1224448, Note_off_c, 0, 58, 67
2, 1224448, Note_on_c, 0, 48, 67
2, 1224512, Note_off_c, 0, 48, 67
2, 1224576, Note_off_c, 0, 48, 67
2, 1224576, Note_on_c, 0, 60, 67
2, 1224640, Note_off_c, 0, 60, 67
2, 1224704, Note_off_c, 0, 60, 67
2, 1224704, Note_on_c, 0, 50, 67
2, 1224768, Note_off_c, 0, 50, 67
2, 1224832, Note_off_c, 0, 50, 67
2, 1224832, Note_on_c, 0, 62, 67
2, 1224896, Note_off_c, 0, 62, 67
2, 1224960, Note_off_c, 0, 62, 67
2, 1224960, Note_on_c, 0, 46, 67
2, 1225024, Note_off_c, 0, 46, 67
2, 1225088, Note_off_c, 0, 46, 67
2, 1225088, Note_on_c, 0, 58, 67
2, 1225152, Note_off_c, 0, 58, 67
2, 1225216, Note_off_c, 0, 58, 67
2, 1225216, Note_on_c, 0, 51, 67
2, 1225280, Note_off_c, 0, 51, 67
2, 1225344, Note_off_c, 0, 51, 67
2, 1225344, Note_on_c, 0, 63, 67
2, 1225408, Note_off_c, 0, 63, 67
2, 1225472, Note_off_c, 0, 63, 67
2, 1225472, Note_on_c, 0, 46, 67
2, 1225536, Note_off_c, 0, 46, 67
2, 1225600, Note_off_c, 0, 46, 67
2, 1225600, Note_on_c, 0, 58, 67
2, 1225664, Note_off_c, 0, 58, 67
2, 1225728, Note_off_c, 0, 58, 67
2, 1225728, Note_on_c, 0, 39, 67
2, 1225792, Note_off_c, 0, 39, 67
2, 1225792, Note_on_c, 0, 46, 67
2, 1225856, Note_off_c, 0, 46, 67
2, 1225856, Note_on_c, 0, 51, 67
2, 1225920, Note_off_c, 0, 51, 67
2, 1225920, Note_on_c, 0, 53, 67
2, 1225984, Note_off_c, 0, 53, 67
2, 1225984, Note_on_c, 0, 55, 67
2, 1226048, Note_off_c, 0, 55, 67
2, 1226048, Note_on_c, 0, 51, 67
2, 1226112, Note_off_c, 0, 51, 67
2, 1226112, Note_on_c, 0, 58, 67
2, 1226176, Note_off_c, 0, 58, 67
2, 1226176, Note_on_c, 0, 63, 67
2, 1226224, Control_c, 0, 93, 0
2, 1226240, Note_off_c, 0, 63, 67
2, 1226240, Note_on_c, 0, 44, 67
2, 1226304, Note_off_c, 0, 44, 67
2, 1226304, Note_on_c, 0, 51, 67
2, 1226368, Note_off_c, 0, 51, 67
2, 1226368, Note_on_c, 0, 56, 67
2, 1226432, Note_off_c, 0, 56, 67
2, 1226432, Note_on_c, 0, 58, 67
2, 1226496, Note_off_c, 0, 58, 67
2, 1226496, Note_on_c, 0, 60, 67
2, 1226560, Note_off_c, 0, 60, 67
2, 1226560, Note_on_c, 0, 56, 67
2, 1226624, Note_off_c, 0, 56, 67
2, 1226624, Note_on_c, 0, 63, 67
2, 1226688, Note_off_c, 0, 63, 67
2, 1226688, Note_on_c, 0, 68, 67
2, 1226736, Control_c, 0, 93, 0
2, 1226752, Note_off_c, 0, 68, 67
2, 1226752, Note_on_c, 0, 46, 67
2, 1226816, Note_off_c, 0, 46, 67
2, 1226816, Note_on_c, 0, 53, 67
2, 1226880, Note_off_c, 0, 53, 67
2, 1226880, Note_on_c, 0, 58, 67
2, 1226944, Note_off_c, 0, 58, 67
2, 1226944, Note_on_c, 0, 60, 67
2, 1227008, Note_off_c, 0, 60, 67
2, 1227008, Note_on_c, 0, 62, 67
2, 1227072, Note_off_c, 0, 62, 67
2, 1227072, Note_on_c, 0, 58, 67
2, 1227136, Note_off_c, 0, 58, 67
2, 1227136, Note_on_c, 0, 65, 67
2, 1227200, Note_off_c, 0, 65, 67
2, 1227200, Note_on_c, 0, 70, 67
2, 1227248, Control_c, 0, 93, 0
2, 1227264, Note_off_c, 0, 70, 67
2, 1227264, Note_on_c, 0, 41, 67
2, 1227328, Note_off_c, 0, 41, 67
2, 1227328, Note_on_c, 0, 44, 67
2, 1227392, Note_off_c, 0, 44, 67
2, 1227392, Control_c, 0, 64, 64
2, 1227392, Note_on_c, 0, 50, 67
2, 1227413, Note_off_c, 0, 50, 67
2, 1227413, Note_on_c, 0, 53, 67
2, 1227434, Note_off_c, 0, 53, 67
2, 1227434, Note_on_c, 0, 58, 67
2, 1227455, Note_off_c, 0, 58, 67
2, 1227456, Control_c, 0, 93, 0
2, 1227456, Note_on_c, 0, 62, 67
2, 1227477, Note_off_c, 0, 62, 67
2, 1227477, Note_on_c, 0, 65, 67
2, 1227498, Note_off_c, 0, 65, 67
2, 1227498, Note_on_c, 0, 70, 67
2, 1227520, Control_c, 0, 93, 0
2, 1227520, Control_c, 0, 64, 0
2, 1227648, Note_off_c, 0, 70, 67
2, 1227648, Note_on_c, 0, 51, 67
2, 1227712, Note_off_c, 0, 51, 67
2, 1227712, Note_on_c, 0, 46, 67
2, 1227776, Note_off_c, 0, 46, 67
2, 1227776, Note_on_c, 0, 39, 67
2, 1227840, Note_off_c, 0, 39, 67
2, 1227840, Note_on_c, 0, 46, 67
2, 1227904, Note_off_c, 0, 46, 67
2, 1227904, Note_on_c, 0, 51, 67
2, 1227968, Note_off_c, 0, 51, 67
2, 1227968, Note_on_c, 0, 53, 67
2, 1228032, Note_off_c, 0, 53, 67
2, 1228032, Note_on_c, 0, 55, 67
2, 1228096, Note_off_c, 0, 55, 67
2, 1228096, Note_on_c, 0, 51, 67
2, 1228160, Note_off_c, 0, 51, 67
2, 1228160, Note_on_c, 0, 58, 67
2, 1228224, Note_off_c, 0, 58, 67
2, 1228224, Note_on_c, 0, 63, 67
2, 1228272, Control_c, 0, 93, 0
2, 1228288, Note_off_c, 0, 63, 67
2, 1228288, Note_on_c, 0, 44, 67
2, 1228352, Note_off_c, 0, 44, 67
2, 1228352, Note_on_c, 0, 51, 67
2, 1228416, Note_off_c, 0, 51, 67
2, 1228416, Note_on_c, 0, 56, 67
2, 1228480, Note_off_c, 0, 56, 67
2, 1228480, Note_on_c, 0, 58, 67
2, 1228544, Note_off_c, 0, 58, 67
2, 1228544, Note_on_c, 0, 60, 67
2, 1228608, Note_off_c, 0, 60, 67
2, 1228608, Note_on_c, 0, 56, 67
2, 1228672, Note_off_c, 0, 56, 67
2, 1228672, Note_on_c, 0, 63, 67
2, 1228736, Note_off_c, 0, 63, 67
2, 1228736, Note_on_c, 0, 68, 67
2, 1228784, Control_c, 0, 93, 0
2, 1228800, Note_off_c, 0, 68, 67
2, 1228800, Note_on_c, 0, 46, 67
2, 1228864, Note_off_c, 0, 46, 67
2, 1228864, Note_on_c, 0, 53, 67
2, 1228928, Note_off_c, 0, 53, 67
2, 1228928, Note_on_c, 0, 58, 67
2, 1228992, Note_off_c, 0, 58, 67
2, 1228992, Note_on_c, 0, 60, 67
2, 1229056, Note_off_c, 0, 60, 67
2, 1229056, Note_on_c, 0, 62, 67
2, 1229120, Note_off_c, 0, 62, 67
2, 1229120, Note_on_c, 0, 58, 67
2, 1229184, Note_off_c, 0, 58, 67
2, 1229184, Note_on_c, 0, 65, 67
2, 1229248, Note_off_c, 0, 65, 67
2, 1229248, Note_on_c, 0, 70, 67
2, 1229296, Control_c, 0, 93, 0
2, 1229312, Note_off_c, 0, 70, 67
2, 1229312, Note_on_c, 0, 39, 67
2, 1229376, Note_off_c, 0, 39, 67
2, 1229376, Note_on_c, 0, 46, 67
2, 1229440, Note_off_c, 0, 46, 67
2, 1229440, Note_on_c, 0, 51, 67
2, 1229504, Note_off_c, 0, 51, 67
2, 1229504, Control_c, 0, 64, 64
2, 1229504, Note_on_c, 0, 55, 67
2, 1229514, Note_off_c, 0, 55, 67
2, 1229514, Note_on_c, 0, 58, 67
2, 1229525, Note_off_c, 0, 58, 67
2, 1229525, Note_on_c, 0, 63, 67
2, 1229535, Note_off_c, 0, 63, 67
2, 1229536, Control_c, 0, 93, 0
2, 1229536, Note_on_c, 0, 67, 67
2, 1229546, Control_c, 0, 93, 0
2, 1229546, Note_on_c, 0, 70, 67
2, 1229557, Control_c, 0, 93, 0
2, 1229557, Note_on_c, 0, 75, 67
2, 1229568, Control_c, 0, 93, 0
2, 1229824, Control_c, 0, 93, 0
2, 1230848, Note_off_c, 0, 67, 67
2, 1230848, Note_off_c, 0, 70, 67
2, 1230848, Note_off_c, 0, 75, 67
2, 1230976, Control_c, 0, 93, 0
2, 1230976, End_track
3, 0, Start_track
3, 0, Title_t, "Piano (Additional)"
3, 0, Control_c, 1, 7, 127
3, 0, Control_c, 1, 10, 64
3, 0, Control_c, 1, 0, 0
3, 0, Control_c, 1, 32, 0
3, 0, Program_c, 1, 0
3, 0, Control_c, 1, 93, 0
3, 1024, Control_c, 1, 93, 0
3, 2048, Control_c, 1, 93, 0
3, 3072, Control_c, 1, 93, 0
3, 4096, Control_c, 1, 93, 0
3, 4864, Control_c, 1, 93, 0
3, 4864, Note_on_c, 1, 91, 55
3, 4928, Note_off_c, 1, 91, 55
3, 4992, Note_off_c, 1, 91, 55
3, 4992, Note_on_c, 1, 91, 55
3, 5024, Note_off_c, 1, 91, 55
3, 5056, Note_off_c, 1, 91, 55
3, 5056, Note_on_c, 1, 92, 55
3, 5088, Note_off_c, 1, 92, 55
3, 5120, Note_off_c, 1, 92, 55
3, 5120, Note_on_c, 1, 94, 55
3, 5184, Note_off_c, 1, 94, 55
3, 5248, Note_off_c, 1, 94, 55
3, 5248, Note_on_c, 1, 94, 55
3, 5312, Note_off_c, 1, 94, 55
3, 5376, Note_off_c, 1, 94, 55
3, 5376, Note_on_c, 1, 94, 55
3, 5440, Note_off_c, 1, 94, 55
3, 5504, Note_off_c, 1, 94, 55
3, 5504, Note_on_c, 1, 91, 55
3, 5536, Note_off_c, 1, 91, 55
3, 5568, Note_off_c, 1, 91, 55
3, 5568, Note_on_c, 1, 92, 55
3, 5600, Note_off_c, 1, 92, 55
3, 5632, Note_off_c, 1, 92, 55
3, 5632, Note_on_c, 1, 94, 55
3, 5696, Note_off_c, 1, 94, 55
3, 5760, Note_off_c, 1, 94, 55
3, 5760, Note_on_c, 1, 94, 55
3, 5824, Note_off_c, 1, 94, 55
3, 5888, Note_off_c, 1, 94, 55
3, 5888, Note_on_c, 1, 94, 55
3, 5952, Note_off_c, 1, 94, 55
3, 6016, Note_off_c, 1, 94, 55
3, 6016, Note_on_c, 1, 91, 55
3, 6048, Note_off_c, 1, 91, 55
3, 6080, Note_off_c, 1, 91, 55
3, 6080, Note_on_c, 1, 92, 55
3, 6112, Note_off_c, 1, 92, 55
3, 6144, Note_off_c, 1, 92, 55
3, 6144, Note_on_c, 1, 94, 55
3, 6208, Note_off_c, 1, 94, 55
3, 6272, Note_off_c, 1, 94, 55
3, 6272, Note_on_c, 1, 94, 55
3, 6336, Note_off_c, 1, 94, 55
3, 6400, Note_off_c, 1, 94, 55
3, 7168, Control_c, 1, 93, 0
3, 8192, Control_c, 1, 93, 0
3, 8448, Control_c, 1, 93, 0
3, 8448, Note_on_c, 1, 77, 67
3, 8704, Note_off_c, 1, 77, 67
3, 9216, Control_c, 1, 93, 0
3, 10240, Control_c, 1, 93, 0
3, 11264, Control_c, 1, 93, 0
3, 12288, Control_c, 1, 93, 0
3, 13312, Control_c, 1, 93, 0
3, 14336, Control_c, 1, 93, 0
3, 15360, Control_c, 1, 93, 0
3, 16384, Control_c, 1, 93, 0
3, 17152, Control_c, 1, 93, 0
3, 17152, Note_on_c, 1, 91, 55
3, 17216, Note_off_c, 1, 91, 55
3, 17280, Note_off_c, 1, 91, 55
3, 17280, Note_on_c, 1, 91, 55
3, 17312, Note_off_c, 1, 91, 55
3, 17344, Note_off_c, 1, 91, 55
3, 17344, Note_on_c, 1, 92, 55
3, 17376, Note_off_c, 1, 92, 55
3, 17408, Note_off_c, 1, 92, 55
3, 17408, Note_on_c, 1, 94, 55
3, 17472, Note_off_c, 1, 94, 55
3, 17536, Note_off_c, 1, 94, 55
3, 17536, Note_on_c, 1, 94, 55
3, 17600, Note_off_c, 1, 94, 55
3, 17664, Note_off_c, 1, 94, 55
3, 17664, Note_on_c, 1, 94, 55
3, 17728, Note_off_c, 1, 94, 55
3, 17792, Note_off_c, 1, 94, 55
3, 17792, Note_on_c, 1, 91, 55
3, 17824, Note_off_c, 1, 91, 55
3, 17856, Note_off_c, 1, 91, 55
3, 17856, Note_on_c, 1, 92, 55
3, 17888, Note_off_c, 1, 92, 55
3, 17920, Note_off_c, 1, 92, 55
3, 17920, Note_on_c, 1, 94, 55
3, 17984, Note_off_c, 1, 94, 55
3, 18048, Note_off_c, 1, 94, 55
3, 18048, Note_on_c, 1, 94, 55
3, 18112, Note_off_c, 1, 94, 55
3, 18176, Note_off_c, 1, 94, 55
3, 18176, Note_on_c, 1, 94, 55
3, 18240, Note_off_c, 1, 94, 55
3, 18304, Note_off_c, 1, 94, 55
3, 18304, Note_on_c, 1, 91, 55
3, 18336, Note_off_c, 1, 91, 55
3, 18368, Note_off_c, 1, 91, 55
3, 18368, Note_on_c, 1, 92, 55
3, 18400, Note_off_c, 1, 92, 55
3, 18432, Note_off_c, 1, 92, 55
3, 18432, Note_on_c, 1, 94, 55
3, 18496, Note_off_c, 1, 94, 55
3, 18560, Note_off_c, 1, 94, 55
3, 18560, Note_on_c, 1, 94, 55
3, 18624, Note_off_c, 1, 94, 55
3, 18688, Note_off_c, 1, 94, 55
3, 19456, Control_c, 1, 93, 0
3, 20480, Control_c, 1, 93, 0
3, 20736, Control_c, 1, 93, 0
3, 20736, Note_on_c, 1, 77, 67
3, 20992, Note_off_c, 1, 77, 67
3, 21504, Control_c, 1, 93, 0
3, 22528, Control_c, 1, 93, 0
3, 23552, Control_c, 1, 93, 0
3, 24576, Control_c, 1, 93, 0
3, 25600, Control_c, 1, 93, 0
3, 26624, Control_c, 1, 93, 0
3, 27648, Control_c, 1, 93, 0
3, 28672, Control_c, 1, 93, 0
3, 29440, Control_c, 1, 93, 0
3, 29440, Note_on_c, 1, 91, 55
3, 29504, Note_off_c, 1, 91, 55
3, 29568, Note_off_c, 1, 91, 55
3, 29568, Note_on_c, 1, 91, 55
3, 29600, Note_off_c, 1, 91, 55
3, 29632, Note_off_c, 1, 91, 55
3, 29632, Note_on_c, 1, 92, 55
3, 29664, Note_off_c, 1, 92, 55
3, 29696, Note_off_c, 1, 92, 55
3, 29696, Note_on_c, 1, 94, 55
3, 29760, Note_off_c, 1, 94, 55
3, 29824, Note_off_c, 1, 94, 55
3, 29824, Note_on_c, 1, 94, 55
3, 29888, Note_off_c, 1, 94, 55
3, 29952, Note_off_c, 1, 94, 55
3, 29952, Note_on_c, 1, 94, 55
3, 30016, Note_off_c, 1, 94, 55
3, 30080, Note_off_c, 1, 94, 55
3, 30080, Note_on_c, 1, 91, 55
3, 30112, Note_off_c, 1, 91, 55
3, 30144, Note_off_c, 1, 91, 55
3, 30144, Note_on_c, 1, 92, 55
3, 30176, Note_off_c, 1, 92, 55
3, 30208, Note_off_c, 1, 92, 55
3, 30208, Note_on_c, 1, 94, 55
3, 30272, Note_off_c, 1, 94, 55
3, 30336, Note_off_c, 1, 94, 55
3, 30336, Note_on_c, 1, 94, 55
3, 30400, Note_off_c, 1, 94, 55
3, 30464, Note_off_c, 1, 94, 55
3, 30464, Note_on_c, 1, 94, 55
3, 30528, Note_off_c, 1, 94, 55
3, 30592, Note_off_c, 1, 94, 55
3, 30592, Note_on_c, 1, 91, 55
3, 30624, Note_off_c, 1, 91, 55
3, 30656, Note_off_c, 1, 91, 55
3, 30656, Note_on_c, 1, 92, 55
3, 30688, Note_off_c, 1, 92, 55
3, 30720, Note_off_c, 1, 92, 55
3, 30720, Note_on_c, 1, 94, 55
3, 30784, Note_off_c, 1, 94, 55
3, 30848, Note_off_c, 1, 94, 55
3, 30848, Note_on_c, 1, 94, 55
3, 30912, Note_off_c, 1, 94, 55
3, 30976, Note_off_c, 1, 94, 55
3, 31744, Control_c, 1, 93, 0
3, 32768, Control_c, 1, 93, 0
3, 33024, Control_c, 1, 93, 0
3, 33024, Note_on_c, 1, 77, 67
3, 33280, Note_off_c, 1, 77, 67
3, 33792, Control_c, 1, 93, 0
3, 34816, Control_c, 1, 93, 0
3, 35840, Control_c, 1, 93, 0
3, 36864, Control_c, 1, 93, 0
3, 37888, Control_c, 1, 93, 0
3, 38912, Control_c, 1, 93, 0
3, 39936, Control_c, 1, 93, 0
3, 40960, Control_c, 1, 93, 0
3, 41728, Control_c, 1, 93, 0
3, 41728, Note_on_c, 1, 91, 55
3, 41792, Note_off_c, 1, 91, 55
3, 41856, Note_off_c, 1, 91, 55
3, 41856, Note_on_c, 1, 91, 55
3, 41888, Note_off_c, 1, 91, 55
3, 41920, Note_off_c, 1, 91, 55
3, 41920, Note_on_c, 1, 92, 55
3, 41952, Note_off_c, 1, 92, 55
3, 41984, Note_off_c, 1, 92, 55
3, 41984, Note_on_c, 1, 94, 55
3, 42048, Note_off_c, 1, 94, 55
3, 42112, Note_off_c, 1, 94, 55
3, 42112, Note_on_c, 1, 94, 55
3, 42176, Note_off_c, 1, 94, 55
3, 42240, Note_off_c, 1, 94, 55
3, 42240, Note_on_c, 1, 94, 55
3, 42304, Note_off_c, 1, 94, 55
3, 42368, Note_off_c, 1, 94, 55
3, 42368, Note_on_c, 1, 91, 55
3, 42400, Note_off_c, 1, 91, 55
3, 42432, Note_off_c, 1, 91, 55
3, 42432, Note_on_c, 1, 92, 55
3, 42464, Note_off_c, 1, 92, 55
3, 42496, Note_off_c, 1, 92, 55
3, 42496, Note_on_c, 1, 94, 55
3, 42560, Note_off_c, 1, 94, 55
3, 42624, Note_off_c, 1, 94, 55
3, 42624, Note_on_c, 1, 94, 55
3, 42688, Note_off_c, 1, 94, 55
3, 42752, Note_off_c, 1, 94, 55
3, 42752, Note_on_c, 1, 94, 55
3, 42816, Note_off_c, 1, 94, 55
3, 42880, Note_off_c, 1, 94, 55
3, 42880, Note_on_c, 1, 91, 55
3, 42912, Note_off_c, 1, 91, 55
3, 42944, Note_off_c, 1, 91, 55
3, 42944, Note_on_c, 1, 92, 55
3, 42976, Note_off_c, 1, 92, 55
3, 43008, Note_off_c, 1, 92, 55
3, 43008, Note_on_c, 1, 94, 55
3, 43072, Note_off_c, 1, 94, 55
3, 43136, Note_off_c, 1, 94, 55
3, 43136, Note_on_c, 1, 94, 55
3, 43200, Note_off_c, 1, 94, 55
3, 43264, Note_off_c, 1, 94, 55
3, 44032, Control_c, 1, 93, 0
3, 45056, Control_c, 1, 93, 0
3, 45312, Control_c, 1, 93, 0
3, 45312, Note_on_c, 1, 77, 67
3, 45568, Note_off_c, 1, 77, 67
3, 46080, Control_c, 1, 93, 0
3, 47104, Control_c, 1, 93, 0
3, 48128, Control_c, 1, 93, 0
3, 49152, Control_c, 1, 93, 0
3, 50176, Control_c, 1, 93, 0
3, 51200, Control_c, 1, 93, 0
3, 52224, Control_c, 1, 93, 0
3, 53248, Control_c, 1, 93, 0
3, 54016, Control_c, 1, 93, 0
3, 54016, Note_on_c, 1, 91, 55
3, 54080, Note_off_c, 1, 91, 55
3, 54144, Note_off_c, 1, 91, 55
3, 54144, Note_on_c, 1, 91, 55
3, 54176, Note_off_c, 1, 91, 55
3, 54208, Note_off_c, 1, 91, 55
3, 54208, Note_on_c, 1, 92, 55
3, 54240, Note_off_c, 1, 92, 55
3, 54272, Note_off_c, 1, 92, 55
3, 54272, Note_on_c, 1, 94, 55
3, 54336, Note_off_c, 1, 94, 55
3, 54400, Note_off_c, 1, 94, 55
3, 54400, Note_on_c, 1, 94, 55
3, 54464, Note_off_c, 1, 94, 55
3, 54528, Note_off_c, 1, 94, 55
3, 54528, Note_on_c, 1, 94, 55
3, 54592, Note_off_c, 1, 94, 55
3, 54656, Note_off_c, 1, 94, 55
3, 54656, Note_on_c, 1, 91, 55
3, 54688, Note_off_c, 1, 91, 55
3, 54720, Note_off_c, 1, 91, 55
3, 54720, Note_on_c, 1, 92, 55
3, 54752, Note_off_c, 1, 92, 55
3, 54784, Note_off_c, 1, 92, 55
3, 54784, Note_on_c, 1, 94, 55
3, 54848, Note_off_c, 1, 94, 55
3, 54912, Note_off_c, 1, 94, 55
3, 54912, Note_on_c, 1, 94, 55
3, 54976, Note_off_c, 1, 94, 55
3, 55040, Note_off_c, 1, 94, 55
3, 55040, Note_on_c, 1, 94, 55
3, 55104, Note_off_c, 1, 94, 55
3, 55168, Note_off_c, 1, 94, 55
3, 55168, Note_on_c, 1, 91, 55
3, 55200, Note_off_c, 1, 91, 55
3, 55232, Note_off_c, 1, 91, 55
3, 55232, Note_on_c, 1, 92, 55
3, 55264, Note_off_c, 1, 92, 55
3, 55296, Note_off_c, 1, 92, 55
3, 55296, Note_on_c, 1, 94, 55
3, 55360, Note_off_c, 1, 94, 55
3, 55424, Note_off_c, 1, 94, 55
3, 55424, Note_on_c, 1, 94, 55
3, 55488, Note_off_c, 1, 94, 55
3, 55552, Note_off_c, 1, 94, 55
3, 56320, Control_c, 1, 93, 0
3, 57344, Control_c, 1, 93, 0
3, 57600, Control_c, 1, 93, 0
3, 57600, Note_on_c, 1, 77, 67
3, 57856, Note_off_c, 1, 77, 67
3, 58368, Control_c, 1, 93, 0
3, 59392, Control_c, 1, 93, 0
3, 60416, Control_c, 1, 93, 0
3, 61440, Control_c, 1, 93, 0
3, 62464, Control_c, 1, 93, 0
3, 63488, Control_c, 1, 93, 0
3, 64512, Control_c, 1, 93, 0
3, 65536, Control_c, 1, 93, 0
3, 66304, Control_c, 1, 93, 0
3, 66304, Note_on_c, 1, 91, 55
3, 66368, Note_off_c, 1, 91, 55
3, 66432, Note_off_c, 1, 91, 55
3, 66432, Note_on_c, 1, 91, 55
3, 66464, Note_off_c, 1, 91, 55
3, 66496, Note_off_c, 1, 91, 55
3, 66496, Note_on_c, 1, 92, 55
3, 66528, Note_off_c, 1, 92, 55
3, 66560, Note_off_c, 1, 92, 55
3, 66560, Note_on_c, 1, 94, 55
3, 66624, Note_off_c, 1, 94, 55
3, 66688, Note_off_c, 1, 94, 55
3, 66688, Note_on_c, 1, 94, 55
3, 66752, Note_off_c, 1, 94, 55
3, 66816, Note_off_c, 1, 94, 55
3, 66816, Note_on_c, 1, 94, 55
3, 66880, Note_off_c, 1, 94, 55
3, 66944, Note_off_c, 1, 94, 55
3, 66944, Note_on_c, 1, 91, 55
3, 66976, Note_off_c, 1, 91, 55
3, 67008, Note_off_c, 1, 91, 55
3, 67008, Note_on_c, 1, 92, 55
3, 67040, Note_off_c, 1, 92, 55
3, 67072, Note_off_c, 1, 92, 55
3, 67072, Note_on_c, 1, 94, 55
3, 67136, Note_off_c, 1, 94, 55
3, 67200, Note_off_c, 1, 94, 55
3, 67200, Note_on_c, 1, 94, 55
3, 67264, Note_off_c, 1, 94, 55
3, 67328, Note_off_c, 1, 94, 55
3, 67328, Note_on_c, 1, 94, 55
3, 67392, Note_off_c, 1, 94, 55
3, 67456, Note_off_c, 1, 94, 55
3, 67456, Note_on_c, 1, 91, 55
3, 67488, Note_off_c, 1, 91, 55
3, 67520, Note_off_c, 1, 91, 55
3, 67520, Note_on_c, 1, 92, 55
3, 67552, Note_off_c, 1, 92, 55
3, 67584, Note_off_c, 1, 92, 55
3, 67584, Note_on_c, 1, 94, 55
3, 67648, Note_off_c, 1, 94, 55
3, 67712, Note_off_c, 1, 94, 55
3, 67712, Note_on_c, 1, 94, 55
3, 67776, Note_off_c, 1, 94, 55
3, 67840, Note_off_c, 1, 94, 55
3, 68608, Control_c, 1, 93, 0
3, 69632, Control_c, 1, 93, 0
3, 69888, Control_c, 1, 93, 0
3, 69888, Note_on_c, 1, 77, 67
3, 70144, Note_off_c, 1, 77, 67
3, 70656, Control_c, 1, 93, 0
3, 71680, Control_c, 1, 93, 0
3, 72704, Control_c, 1, 93, 0
3, 73728, Control_c, 1, 93, 0
3, 74752, Control_c, 1, 93, 0
3, 75776, Control_c, 1, 93, 0
3, 76800, Control_c, 1, 93, 0
3, 77824, Control_c, 1, 93, 0
3, 78592, Control_c, 1, 93, 0
3, 78592, Note_on_c, 1, 91, 55
3, 78656, Note_off_c, 1, 91, 55
3, 78720, Note_off_c, 1, 91, 55
3, 78720, Note_on_c, 1, 91, 55
3, 78752, Note_off_c, 1, 91, 55
3, 78784, Note_off_c, 1, 91, 55
3, 78784, Note_on_c, 1, 92, 55
3, 78816, Note_off_c, 1, 92, 55
3, 78848, Note_off_c, 1, 92, 55
3, 78848, Note_on_c, 1, 94, 55
3, 78912, Note_off_c, 1, 94, 55
3, 78976, Note_off_c, 1, 94, 55
3, 78976, Note_on_c, 1, 94, 55
3, 79040, Note_off_c, 1, 94, 55
3, 79104, Note_off_c, 1, 94, 55
3, 79104, Note_on_c, 1, 94, 55
3, 79168, Note_off_c, 1, 94, 55
3, 79232, Note_off_c, 1, 94, 55
3, 79232, Note_on_c, 1, 91, 55
3, 79264, Note_off_c, 1, 91, 55
3, 79296, Note_off_c, 1, 91, 55
3, 79296, Note_on_c, 1, 92, 55
3, 79328, Note_off_c, 1, 92, 55
3, 79360, Note_off_c, 1, 92, 55
3, 79360, Note_on_c, 1, 94, 55
3, 79424, Note_off_c, 1, 94, 55
3, 79488, Note_off_c, 1, 94, 55
3, 79488, Note_on_c, 1, 94, 55
3, 79552, Note_off_c, 1, 94, 55
3, 79616, Note_off_c, 1, 94, 55
3, 79616, Note_on_c, 1, 94, 55
3, 79680, Note_off_c, 1, 94, 55
3, 79744, Note_off_c, 1, 94, 55
3, 79744, Note_on_c, 1, 91, 55
3, 79776, Note_off_c, 1, 91, 55
3, 79808, Note_off_c, 1, 91, 55
3, 79808, Note_on_c, 1, 92, 55
3, 79840, Note_off_c, 1, 92, 55
3, 79872, Note_off_c, 1, 92, 55
3, 79872, Note_on_c, 1, 94, 55
3, 79936, Note_off_c, 1, 94, 55
3, 80000, Note_off_c, 1, 94, 55
3, 80000, Note_on_c, 1, 94, 55
3, 80064, Note_off_c, 1, 94, 55
3, 80128, Note_off_c, 1, 94, 55
3, 80896, Control_c, 1, 93, 0
3, 81920, Control_c, 1, 93, 0
3, 82176, Control_c, 1, 93, 0
3, 82176, Note_on_c, 1, 77, 67
3, 82432, Note_off_c, 1, 77, 67
3, 82944, Control_c, 1, 93, 0
3, 83968, Control_c, 1, 93, 0
3, 84992, Control_c, 1, 93, 0
3, 86016, Control_c, 1, 93, 0
3, 87040, Control_c, 1, 93, 0
3, 88064, Control_c, 1, 93, 0
3, 89088, Control_c, 1, 93, 0
3, 90112, Control_c, 1, 93, 0
3, 90880, Control_c, 1, 93, 0
3, 90880, Note_on_c, 1, 91, 55
3, 90944, Note_off_c, 1, 91, 55
3, 91008, Note_off_c, 1, 91, 55
3, 91008, Note_on_c, 1, 91, 55
3, 91040, Note_off_c, 1, 91, 55
3, 91072, Note_off_c, 1, 91, 55
3, 91072, Note_on_c, 1, 92, 55
3, 91104, Note_off_c, 1, 92, 55
3, 91136, Note_off_c, 1, 92, 55
3, 91136, Note_on_c, 1, 94, 55
3, 91200, Note_off_c, 1, 94, 55
3, 91264, Note_off_c, 1, 94, 55
3, 91264, Note_on_c, 1, 94, 55
3, 91328, Note_off_c, 1, 94, 55
3, 91392, Note_off_c, 1, 94, 55
3, 91392, Note_on_c, 1, 94, 55
3, 91456, Note_off_c, 1, 94, 55
3, 91520, Note_off_c, 1, 94, 55
3, 91520, Note_on_c, 1, 91, 55
3, 91552, Note_off_c, 1, 91, 55
3, 91584, Note_off_c, 1, 91, 55
3, 91584, Note_on_c, 1, 92, 55
3, 91616, Note_off_c, 1, 92, 55
3, 91648, Note_off_c, 1, 92, 55
3, 91648, Note_on_c, 1, 94, 55
3, 91712, Note_off_c, 1, 94, 55
3, 91776, Note_off_c, 1, 94, 55
3, 91776, Note_on_c, 1, 94, 55
3, 91840, Note_off_c, 1, 94, 55
3, 91904, Note_off_c, 1, 94, 55
3, 91904, Note_on_c, 1, 94, 55
3, 91968, Note_off_c, 1, 94, 55
3, 92032, Note_off_c, 1, 94, 55
3, 92032, Note_on_c, 1, 91, 55
3, 92064, Note_off_c, 1, 91, 55
3, 92096, Note_off_c, 1, 91, 55
3, 92096, Note_on_c, 1, 92, 55
3, 92128, Note_off_c, 1, 92, 55
3, 92160, Note_off_c, 1, 92, 55
3, 92160, Note_on_c, 1, 94, 55
3, 92224, Note_off_c, 1, 94, 55
3, 92288, Note_off_c, 1, 94, 55
3, 92288, Note_on_c, 1, 94, 55
3, 92352, Note_off_c, 1, 94, 55
3, 92416, Note_off_c, 1, 94, 55
3, 93184, Control_c, 1, 93, 0
3, 94208, Control_c, 1, 93, 0
3, 94464, Control_c, 1, 93, 0
3, 94464, Note_on_c, 1, 77, 67
3, 94720, Note_off_c, 1, 77, 67
3, 95232, Control_c, 1, 93, 0
3, 96256, Control_c, 1, 93, 0
3, 97280, Control_c, 1, 93, 0
3, 98304, Control_c, 1, 93, 0
3, 99328, Control_c, 1, 93, 0
3, 100352, Control_c, 1, 93, 0
3, 101376, Control_c, 1, 93, 0
3, 102400, Control_c, 1, 93, 0
3, 103168, Control_c, 1, 93, 0
3, 103168, Note_on_c, 1, 91, 55
3, 103232, Note_off_c, 1, 91, 55
3, 103296, Note_off_c, 1, 91, 55
3, 103296, Note_on_c, 1, 91, 55
3, 103328, Note_off_c, 1, 91, 55
3, 103360, Note_off_c, 1, 91, 55
3, 103360, Note_on_c, 1, 92, 55
3, 103392, Note_off_c, 1, 92, 55
3, 103424, Note_off_c, 1, 92, 55
3, 103424, Note_on_c, 1, 94, 55
3, 103488, Note_off_c, 1, 94, 55
3, 103552, Note_off_c, 1, 94, 55
3, 103552, Note_on_c, 1, 94, 55
3, 103616, Note_off_c, 1, 94, 55
3, 103680, Note_off_c, 1, 94, 55
3, 103680, Note_on_c, 1, 94, 55
3, 103744, Note_off_c, 1, 94, 55
3, 103808, Note_off_c, 1, 94, 55
3, 103808, Note_on_c, 1, 91, 55
3, 103840, Note_off_c, 1, 91, 55
3, 103872, Note_off_c, 1, 91, 55
3, 103872, Note_on_c, 1, 92, 55
3, 103904, Note_off_c, 1, 92, 55
3, 103936, Note_off_c, 1, 92, 55
3, 103936, Note_on_c, 1, 94, 55
3, 104000, Note_off_c, 1, 94, 55
3, 104064, Note_off_c, 1, 94, 55
3, 104064, Note_on_c, 1, 94, 55
3, 104128, Note_off_c, 1, 94, 55
3, 104192, Note_off_c, 1, 94, 55
3, 104192, Note_on_c, 1, 94, 55
3, 104256, Note_off_c, 1, 94, 55
3, 104320, Note_off_c, 1, 94, 55
3, 104320, Note_on_c, 1, 91, 55
3, 104352, Note_off_c, 1, 91, 55
3, 104384, Note_off_c, 1, 91, 55
3, 104384, Note_on_c, 1, 92, 55
3, 104416, Note_off_c, 1, 92, 55
3, 104448, Note_off_c, 1, 92, 55
3, 104448, Note_on_c, 1, 94, 55
3, 104512, Note_off_c, 1, 94, 55
3, 104576, Note_off_c, 1, 94, 55
3, 104576, Note_on_c, 1, 94, 55
3, 104640, Note_off_c, 1, 94, 55
3, 104704, Note_off_c, 1, 94, 55
3, 105472, Control_c, 1, 93, 0
3, 106496, Control_c, 1, 93, 0
3, 106752, Control_c, 1, 93, 0
3, 106752, Note_on_c, 1, 77, 67
3, 107008, Note_off_c, 1, 77, 67
3, 107520, Control_c, 1, 93, 0
3, 108544, Control_c, 1, 93, 0
3, 109568, Control_c, 1, 93, 0
3, 110592, Control_c, 1, 93, 0
3, 111616, Control_c, 1, 93, 0
3, 112640, Control_c, 1, 93, 0
3, 113664, Control_c, 1, 93, 0
3, 114688, Control_c, 1, 93, 0
3, 115456, Control_c, 1, 93, 0
3, 115456, Note_on_c, 1, 91, 55
3, 115520, Note_off_c, 1, 91, 55
3, 115584, Note_off_c, 1, 91, 55
3, 115584, Note_on_c, 1, 91, 55
3, 115616, Note_off_c, 1, 91, 55
3, 115648, Note_off_c, 1, 91, 55
3, 115648, Note_on_c, 1, 92, 55
3, 115680, Note_off_c, 1, 92, 55
3, 115712, Note_off_c, 1, 92, 55
3, 115712, Note_on_c, 1, 94, 55
3, 115776, Note_off_c, 1, 94, 55
3, 115840, Note_off_c, 1, 94, 55
3, 115840, Note_on_c, 1, 94, 55
3, 115904, Note_off_c, 1, 94, 55
3, 115968, Note_off_c, 1, 94, 55
3, 115968, Note_on_c, 1, 94, 55
3, 116032, Note_off_c, 1, 94, 55
3, 116096, Note_off_c, 1, 94, 55
3, 116096, Note_on_c, 1, 91, 55
3, 116128, Note_off_c, 1, 91, 55
3, 116160, Note_off_c, 1, 91, 55
3, 116160, Note_on_c, 1, 92, 55
3, 116192, Note_off_c, 1, 92, 55
3, 116224, Note_off_c, 1, 92, 55
3, 116224, Note_on_c, 1, 94, 55
3, 116288, Note_off_c, 1, 94, 55
3, 116352, Note_off_c, 1, 94, 55
3, 116352, Note_on_c, 1, 94, 55
3, 116416, Note_off_c, 1, 94, 55
3, 116480, Note_off_c, 1, 94, 55
3, 116480, Note_on_c, 1, 94, 55
3, 116544, Note_off_c, 1, 94, 55
3, 116608, Note_off_c, 1, 94, 55
3, 116608, Note_on_c, 1, 91, 55
3, 116640, Note_off_c, 1, 91, 55
3, 116672, Note_off_c, 1, 91, 55
3, 116672, Note_on_c, 1, 92, 55
3, 116704, Note_off_c, 1, 92, 55
3, 116736, Note_off_c, 1, 92, 55
3, 116736, Note_on_c, 1, 94, 55
3, 116800, Note_off_c, 1, 94, 55
3, 116864, Note_off_c, 1, 94, 55
3, 116864, Note_on_c, 1, 94, 55
3, 116928, Note_off_c, 1, 94, 55
3, 116992, Note_off_c, 1, 94, 55
3, 117760, Control_c, 1, 93, 0
3, 118784, Control_c, 1, 93, 0
3, 119040, Control_c, 1, 93, 0
3, 119040, Note_on_c, 1, 77, 67
3, 119296, Note_off_c, 1, 77, 67
3, 119808, Control_c, 1, 93, 0
3, 120832, Control_c, 1, 93, 0
3, 121856, Control_c, 1, 93, 0
3, 122880, Control_c, 1, 93, 0
3, 123904, Control_c, 1, 93, 0
3, 124928, Control_c, 1, 93, 0
3, 125952, Control_c, 1, 93, 0
3, 126976, Control_c, 1, 93, 0
3, 127744, Control_c, 1, 93, 0
3, 127744, Note_on_c, 1, 91, 55
3, 127808, Note_off_c, 1, 91, 55
3, 127872, Note_off_c, 1, 91, 55
3, 127872, Note_on_c, 1, 91, 55
3, 127904, Note_off_c, 1, 91, 55
3, 127936, Note_off_c, 1, 91, 55
3, 127936, Note_on_c, 1, 92, 55
3, 127968, Note_off_c, 1, 92, 55
3, 128000, Note_off_c, 1, 92, 55
3, 128000, Note_on_c, 1, 94, 55
3, 128064, Note_off_c, 1, 94, 55
3, 128128, Note_off_c, 1, 94, 55
3, 128128, Note_on_c, 1, 94, 55
3, 128192, Note_off_c, 1, 94, 55
3, 128256, Note_off_c, 1, 94, 55
3, 128256, Note_on_c, 1, 94, 55
3, 128320, Note_off_c, 1, 94, 55
3, 128384, Note_off_c, 1, 94, 55
3, 128384, Note_on_c, 1, 91, 55
3, 128416, Note_off_c, 1, 91, 55
3, 128448, Note_off_c, 1, 91, 55
3, 128448, Note_on_c, 1, 92, 55
3, 128480, Note_off_c, 1, 92, 55
3, 128512, Note_off_c, 1, 92, 55
3, 128512, Note_on_c, 1, 94, 55
3, 128576, Note_off_c, 1, 94, 55
3, 128640, Note_off_c, 1, 94, 55
3, 128640, Note_on_c, 1, 94, 55
3, 128704, Note_off_c, 1, 94, 55
3, 128768, Note_off_c, 1, 94, 55
3, 128768, Note_on_c, 1, 94, 55
3, 128832, Note_off_c, 1, 94, 55
3, 128896, Note_off_c, 1, 94, 55
3, 128896, Note_on_c, 1, 91, 55
3, 128928, Note_off_c, 1, 91, 55
3, 128960, Note_off_c, 1, 91, 55
3, 128960, Note_on_c, 1, 92, 55
3, 128992, Note_off_c, 1, 92, 55
3, 129024, Note_off_c, 1, 92, 55
3, 129024, Note_on_c, 1, 94, 55
3, 129088, Note_off_c, 1, 94, 55
3, 129152, Note_off_c, 1, 94, 55
3, 129152, Note_on_c, 1, 94, 55
3, 129216, Note_off_c, 1, 94, 55
3, 129280, Note_off_c, 1, 94, 55
3, 130048, Control_c, 1, 93, 0
3, 131072, Control_c, 1, 93, 0
3, 131328, Control_c, 1, 93, 0
3, 131328, Note_on_c, 1, 77, 67
3, 131584, Note_off_c, 1, 77, 67
3, 132096, Control_c, 1, 93, 0
3, 133120, Control_c, 1, 93, 0
3, 134144, Control_c, 1, 93, 0
3, 135168, Control_c, 1, 93, 0
3, 136192, Control_c, 1, 93, 0
3, 137216, Control_c, 1, 93, 0
3, 138240, Control_c, 1, 93, 0
3, 139264, Control_c, 1, 93, 0
3, 140032, Control_c, 1, 93, 0
3, 140032, Note_on_c, 1, 91, 55
3, 140096, Note_off_c, 1, 91, 55
3, 140160, Note_off_c, 1, 91, 55
3, 140160, Note_on_c, 1, 91, 55
3, 140192, Note_off_c, 1, 91, 55
3, 140224, Note_off_c, 1, 91, 55
3, 140224, Note_on_c, 1, 92, 55
3, 140256, Note_off_c, 1, 92, 55
3, 140288, Note_off_c, 1, 92, 55
3, 140288, Note_on_c, 1, 94, 55
3, 140352, Note_off_c, 1, 94, 55
3, 140416, Note_off_c, 1, 94, 55
3, 140416, Note_on_c, 1, 94, 55
3, 140480, Note_off_c, 1, 94, 55
3, 140544, Note_off_c, 1, 94, 55
3, 140544, Note_on_c, 1, 94, 55
3, 140608, Note_off_c, 1, 94, 55
3, 140672, Note_off_c, 1, 94, 55
3, 140672, Note_on_c, 1, 91, 55
3, 140704, Note_off_c, 1, 91, 55
3, 140736, Note_off_c, 1, 91, 55
3, 140736, Note_on_c, 1, 92, 55
3, 140768, Note_off_c, 1, 92, 55
3, 140800, Note_off_c, 1, 92, 55
3, 140800, Note_on_c, 1, 94, 55
3, 140864, Note_off_c, 1, 94, 55
3, 140928, Note_off_c, 1, 94, 55
3, 140928, Note_on_c, 1, 94, 55
3, 140992, Note_off_c, 1, 94, 55
3, 141056, Note_off_c, 1, 94, 55
3, 141056, Note_on_c, 1, 94, 55
3, 141120, Note_off_c, 1, 94, 55
3, 141184, Note_off_c, 1, 94, 55
3, 141184, Note_on_c, 1, 91, 55
3, 141216, Note_off_c, 1, 91, 55
3, 141248, Note_off_c, 1, 91, 55
3, 141248, Note_on_c, 1, 92, 55
3, 141280, Note_off_c, 1, 92, 55
3, 141312, Note_off_c, 1, 92, 55
3, 141312, Note_on_c, 1, 94, 55
3, 141376, Note_off_c, 1, 94, 55
3, 141440, Note_off_c, 1, 94, 55
3, 141440, Note_on_c, 1, 94, 55
3, 141504, Note_off_c, 1, 94, 55
3, 141568, Note_off_c, 1, 94, 55
3, 142336, Control_c, 1, 93, 0
3, 143360, Control_c, 1, 93, 0
3, 143616, Control_c, 1, 93, 0
3, 143616, Note_on_c, 1, 77, 67
3, 143872, Note_off_c, 1, 77, 67
3, 144384, Control_c, 1, 93, 0
3, 145408, Control_c, 1, 93, 0
3, 146432, Control_c, 1, 93, 0
3, 147456, Control_c, 1, 93, 0
3, 148480, Control_c, 1, 93, 0
3, 149504, Control_c, 1, 93, 0
3, 150528, Control_c, 1, 93, 0
3, 151552, Control_c, 1, 93, 0
3, 152320, Control_c, 1, 93, 0
3, 152320, Note_on_c, 1, 91, 55
3, 152384, Note_off_c, 1, 91, 55
3, 152448, Note_off_c, 1, 91, 55
3, 152448, Note_on_c, 1, 91, 55
3, 152480, Note_off_c, 1, 91, 55
3, 152512, Note_off_c, 1, 91, 55
3, 152512, Note_on_c, 1, 92, 55
3, 152544, Note_off_c, 1, 92, 55
3, 152576, Note_off_c, 1, 92, 55
3, 152576, Note_on_c, 1, 94, 55
3, 152640, Note_off_c, 1, 94, 55
3, 152704, Note_off_c, 1, 94, 55
3, 152704, Note_on_c, 1, 94, 55
3, 152768, Note_off_c, 1, 94, 55
3, 152832, Note_off_c, 1, 94, 55
3, 152832, Note_on_c, 1, 94, 55
3, 152896, Note_off_c, 1, 94, 55
3, 152960, Note_off_c, 1, 94, 55
3, 152960, Note_on_c, 1, 91, 55
3, 152992, Note_off_c, 1, 91, 55
3, 153024, Note_off_c, 1, 91, 55
3, 153024, Note_on_c, 1, 92, 55
3, 153056, Note_off_c, 1, 92, 55
3, 153088, Note_off_c, 1, 92, 55
3, 153088, Note_on_c, 1, 94, 55
3, 153152, Note_off_c, 1, 94, 55
3, 153216, Note_off_c, 1, 94, 55
3, 153216, Note_on_c, 1, 94, 55
3, 153280, Note_off_c, 1, 94, 55
3, 153344, Note_off_c, 1, 94, 55
3, 153344, Note_on_c, 1, 94, 55
3, 153408, Note_off_c, 1, 94, 55
3, 153472, Note_off_c, 1, 94, 55
3, 153472, Note_on_c, 1, 91, 55
3, 153504, Note_off_c, 1, 91, 55
3, 153536, Note_off_c, 1, 91, 55
3, 153536, Note_on_c, 1, 92, 55
3, 153568, Note_off_c, 1, 92, 55
3, 153600, Note_off_c, 1, 92, 55
3, 153600, Note_on_c, 1, 94, 55
3, 153664, Note_off_c, 1, 94, 55
3, 153728, Note_off_c, 1, 94, 55
3, 153728, Note_on_c, 1, 94, 55
3, 153792, Note_off_c, 1, 94, 55
3, 153856, Note_off_c, 1, 94, 55
3, 154624, Control_c, 1, 93, 0
3, 155648, Control_c, 1, 93, 0
3, 155904, Control_c, 1, 93, 0
3, 155904, Note_on_c, 1, 77, 67
3, 156160, Note_off_c, 1, 77, 67
3, 156672, Control_c, 1, 93, 0
3, 157696, Control_c, 1, 93, 0
3, 158720, Control_c, 1, 93, 0
3, 159744, Control_c, 1, 93, 0
3, 160768, Control_c, 1, 93, 0
3, 161792, Control_c, 1, 93, 0
3, 162816, Control_c, 1, 93, 0
3, 163840, Control_c, 1, 93, 0
3, 164608, Control_c, 1, 93, 0
3, 164608, Note_on_c, 1, 91, 55
3, 164672, Note_off_c, 1, 91, 55
3, 164736, Note_off_c, 1, 91, 55
3, 164736, Note_on_c, 1, 91, 55
3, 164768, Note_off_c, 1, 91, 55
3, 164800, Note_off_c, 1, 91, 55
3, 164800, Note_on_c, 1, 92, 55
3, 164832, Note_off_c, 1, 92, 55
3, 164864, Note_off_c, 1, 92, 55
3, 164864, Note_on_c, 1, 94, 55
3, 164928, Note_off_c, 1, 94, 55
3, 164992, Note_off_c, 1, 94, 55
3, 164992, Note_on_c, 1, 94, 55
3, 165056, Note_off_c, 1, 94, 55
3, 165120, Note_off_c, 1, 94, 55
3, 165120, Note_on_c, 1, 94, 55
3, 165184, Note_off_c, 1, 94, 55
3, 165248, Note_off_c, 1, 94, 55
3, 165248, Note_on_c, 1, 91, 55
3, 165280, Note_off_c, 1, 91, 55
3, 165312, Note_off_c, 1, 91, 55
3, 165312, Note_on_c, 1, 92, 55
3, 165344, Note_off_c, 1, 92, 55
3, 165376, Note_off_c, 1, 92, 55
3, 165376, Note_on_c, 1, 94, 55
3, 165440, Note_off_c, 1, 94, 55
3, 165504, Note_off_c, 1, 94, 55
3, 165504, Note_on_c, 1, 94, 55
3, 165568, Note_off_c, 1, 94, 55
3, 165632, Note_off_c, 1, 94, 55
3, 165632, Note_on_c, 1, 94, 55
3, 165696, Note_off_c, 1, 94, 55
3, 165760, Note_off_c, 1, 94, 55
3, 165760, Note_on_c, 1, 91, 55
3, 165792, Note_off_c, 1, 91, 55
3, 165824, Note_off_c, 1, 91, 55
3, 165824, Note_on_c, 1, 92, 55
3, 165856, Note_off_c, 1, 92, 55
3, 165888, Note_off_c, 1, 92, 55
3, 165888, Note_on_c, 1, 94, 55
3, 165952, Note_off_c, 1, 94, 55
3, 166016, Note_off_c, 1, 94, 55
3, 166016, Note_on_c, 1, 94, 55
3, 166080, Note_off_c, 1, 94, 55
3, 166144, Note_off_c, 1, 94, 55
3, 166912, Control_c, 1, 93, 0
3, 167936, Control_c, 1, 93, 0
3, 168192, Control_c, 1, 93, 0
3, 168192, Note_on_c, 1, 77, 67
3, 168448, Note_off_c, 1, 77, 67
3, 168960, Control_c, 1, 93, 0
3, 169984, Control_c, 1, 93, 0
3, 171008, Control_c, 1, 93, 0
3, 172032, Control_c, 1, 93, 0
3, 173056, Control_c, 1, 93, 0
3, 174080, Control_c, 1, 93, 0
3, 175104, Control_c, 1, 93, 0
3, 176128, Control_c, 1, 93, 0
3, 176896, Control_c, 1, 93, 0
3, 176896, Note_on_c, 1, 91, 55
3, 176960, Note_off_c, 1, 91, 55
3, 177024, Note_off_c, 1, 91, 55
3, 177024, Note_on_c, 1, 91, 55
3, 177056, Note_off_c, 1, 91, 55
3, 177088, Note_off_c, 1, 91, 55
3, 177088, Note_on_c, 1, 92, 55
3, 177120, Note_off_c, 1, 92, 55
3, 177152, Note_off_c, 1, 92, 55
3, 177152, Note_on_c, 1, 94, 55
3, 177216, Note_off_c, 1, 94, 55
3, 177280, Note_off_c, 1, 94, 55
3, 177280, Note_on_c, 1, 94, 55
3, 177344, Note_off_c, 1, 94, 55
3, 177408, Note_off_c, 1, 94, 55
3, 177408, Note_on_c, 1, 94, 55
3, 177472, Note_off_c, 1, 94, 55
3, 177536, Note_off_c, 1, 94, 55
3, 177536, Note_on_c, 1, 91, 55
3, 177568, Note_off_c, 1, 91, 55
3, 177600, Note_off_c, 1, 91, 55
3, 177600, Note_on_c, 1, 92, 55
3, 177632, Note_off_c, 1, 92, 55
3, 177664, Note_off_c, 1, 92, 55
3, 177664, Note_on_c, 1, 94, 55
3, 177728, Note_off_c, 1, 94, 55
3, 177792, Note_off_c, 1, 94, 55
3, 177792, Note_on_c, 1, 94, 55
3, 177856, Note_off_c, 1, 94, 55
3, 177920, Note_off_c, 1, 94, 55
3, 177920, Note_on_c, 1, 94, 55
3, 177984, Note_off_c, 1, 94, 55
3, 178048, Note_off_c, 1, 94, 55
3, 178048, Note_on_c, 1, 91, 55
3, 178080, Note_off_c, 1, 91, 55
3, 178112, Note_off_c, 1, 91, 55
3, 178112, Note_on_c, 1, 92, 55
3, 178144, Note_off_c, 1, 92, 55
3, 178176, Note_off_c, 1, 92, 55
3, 178176, Note_on_c, 1, 94, 55
3, 178240, Note_off_c, 1, 94, 55
3, 178304, Note_off_c, 1, 94, 55
3, 178304, Note_on_c, 1, 94, 55
3, 178368, Note_off_c, 1, 94, 55
3, 178432, Note_off_c, 1, 94, 55
3, 179200, Control_c, 1, 93, 0
3, 180224, Control_c, 1, 93, 0
3, 180480, Control_c, 1, 93, 0
3, 180480, Note_on_c, 1, 77, 67
3, 180736, Note_off_c, 1, 77, 67
3, 181248, Control_c, 1, 93, 0
3, 182272, Control_c, 1, 93, 0
3, 183296, Control_c, 1, 93, 0
3, 184320, Control_c, 1, 93, 0
3, 185344, Control_c, 1, 93, 0
3, 186368, Control_c, 1, 93, 0
3, 187392, Control_c, 1, 93, 0
3, 188416, Control_c, 1, 93, 0
3, 189184, Control_c, 1, 93, 0
3, 189184, Note_on_c, 1, 91, 55
3, 189248, Note_off_c, 1, 91, 55
3, 189312, Note_off_c, 1, 91, 55
3, 189312, Note_on_c, 1, 91, 55
3, 189344, Note_off_c, 1, 91, 55
3, 189376, Note_off_c, 1, 91, 55
3, 189376, Note_on_c, 1, 92, 55
3, 189408, Note_off_c, 1, 92, 55
3, 189440, Note_off_c, 1, 92, 55
3, 189440, Note_on_c, 1, 94, 55
3, 189504, Note_off_c, 1, 94, 55
3, 189568, Note_off_c, 1, 94, 55
3, 189568, Note_on_c, 1, 94, 55
3, 189632, Note_off_c, 1, 94, 55
3, 189696, Note_off_c, 1, 94, 55
3, 189696, Note_on_c, 1, 94, 55
3, 189760, Note_off_c, 1, 94, 55
3, 189824, Note_off_c, 1, 94, 55
3, 189824, Note_on_c, 1, 91, 55
3, 189856, Note_off_c, 1, 91, 55
3, 189888, Note_off_c, 1, 91, 55
3, 189888, Note_on_c, 1, 92, 55
3, 189920, Note_off_c, 1, 92, 55
3, 189952, Note_off_c, 1, 92, 55
3, 189952, Note_on_c, 1, 94, 55
3, 190016, Note_off_c, 1, 94, 55
3, 190080, Note_off_c, 1, 94, 55
3, 190080, Note_on_c, 1, 94, 55
3, 190144, Note_off_c, 1, 94, 55
3, 190208, Note_off_c, 1, 94, 55
3, 190208, Note_on_c, 1, 94, 55
3, 190272, Note_off_c, 1, 94, 55
3, 190336, Note_off_c, 1, 94, 55
3, 190336, Note_on_c, 1, 91, 55
3, 190368, Note_off_c, 1, 91, 55
3, 190400, Note_off_c, 1, 91, 55
3, 190400, Note_on_c, 1, 92, 55
3, 190432, Note_off_c, 1, 92, 55
3, 190464, Note_off_c, 1, 92, 55
3, 190464, Note_on_c, 1, 94, 55
3, 190528, Note_off_c, 1, 94, 55
3, 190592, Note_off_c, 1, 94, 55
3, 190592, Note_on_c, 1, 94, 55
3, 190656, Note_off_c, 1, 94, 55
3, 190720, Note_off_c, 1, 94, 55
3, 191488, Control_c, 1, 93, 0
3, 192512, Control_c, 1, 93, 0
3, 192768, Control_c, 1, 93, 0
3, 192768, Note_on_c, 1, 77, 67
3, 193024, Note_off_c, 1, 77, 67
3, 193536, Control_c, 1, 93, 0
3, 194560, Control_c, 1, 93, 0
3, 195584, Control_c, 1, 93, 0
3, 196608, Control_c, 1, 93, 0
3, 197632, Control_c, 1, 93, 0
3, 198656, Control_c, 1, 93, 0
3, 199680, Control_c, 1, 93, 0
3, 200704, Control_c, 1, 93, 0
3, 201472, Control_c, 1, 93, 0
3, 201472, Note_on_c, 1, 91, 55
3, 201536, Note_off_c, 1, 91, 55
3, 201600, Note_off_c, 1, 91, 55
3, 201600, Note_on_c, 1, 91, 55
3, 201632, Note_off_c, 1, 91, 55
3, 201664, Note_off_c, 1, 91, 55
3, 201664, Note_on_c, 1, 92, 55
3, 201696, Note_off_c, 1, 92, 55
3, 201728, Note_off_c, 1, 92, 55
3, 201728, Note_on_c, 1, 94, 55
3, 201792, Note_off_c, 1, 94, 55
3, 201856, Note_off_c, 1, 94, 55
3, 201856, Note_on_c, 1, 94, 55
3, 201920, Note_off_c, 1, 94, 55
3, 201984, Note_off_c, 1, 94, 55
3, 201984, Note_on_c, 1, 94, 55
3, 202048, Note_off_c, 1, 94, 55
3, 202112, Note_off_c, 1, 94, 55
3, 202112, Note_on_c, 1, 91, 55
3, 202144, Note_off_c, 1, 91, 55
3, 202176, Note_off_c, 1, 91, 55
3, 202176, Note_on_c, 1, 92, 55
3, 202208, Note_off_c, 1, 92, 55
3, 202240, Note_off_c, 1, 92, 55
3, 202240, Note_on_c, 1, 94, 55
3, 202304, Note_off_c, 1, 94, 55
3, 202368, Note_off_c, 1, 94, 55
3, 202368, Note_on_c, 1, 94, 55
3, 202432, Note_off_c, 1, 94, 55
3, 202496, Note_off_c, 1, 94, 55
3, 202496, Note_on_c, 1, 94, 55
3, 202560, Note_off_c, 1, 94, 55
3, 202624, Note_off_c, 1, 94, 55
3, 202624, Note_on_c, 1, 91, 55
3, 202656, Note_off_c, 1, 91, 55
3, 202688, Note_off_c, 1, 91, 55
3, 202688, Note_on_c, 1, 92, 55
3, 202720, Note_off_c, 1, 92, 55
3, 202752, Note_off_c, 1, 92, 55
3, 202752, Note_on_c, 1, 94, 55
3, 202816, Note_off_c, 1, 94, 55
3, 202880, Note_off_c, 1, 94, 55
3, 202880, Note_on_c, 1, 94, 55
3, 202944, Note_off_c, 1, 94, 55
3, 203008, Note_off_c, 1, 94, 55
3, 203776, Control_c, 1, 93, 0
3, 204800, Control_c, 1, 93, 0
3, 205056, Control_c, 1, 93, 0
3, 205056, Note_on_c, 1, 77, 67
3, 205312, Note_off_c, 1, 77, 67
3, 205824, Control_c, 1, 93, 0
3, 206848, Control_c, 1, 93, 0
3, 207872, Control_c, 1, 93, 0
3, 208896, Control_c, 1, 93, 0
3, 209920, Control_c, 1, 93, 0
3, 210944, Control_c, 1, 93, 0
3, 211968, Control_c, 1, 93, 0
3, 212992, Control_c, 1, 93, 0
3, 213760, Control_c, 1, 93, 0
3, 213760, Note_on_c, 1, 91, 55
3, 213824, Note_off_c, 1, 91, 55
3, 213888, Note_off_c, 1, 91, 55
3, 213888, Note_on_c, 1, 91, 55
3, 213920, Note_off_c, 1, 91, 55
3, 213952, Note_off_c, 1, 91, 55
3, 213952, Note_on_c, 1, 92, 55
3, 213984, Note_off_c, 1, 92, 55
3, 214016, Note_off_c, 1, 92, 55
3, 214016, Note_on_c, 1, 94, 55
3, 214080, Note_off_c, 1, 94, 55
3, 214144, Note_off_c, 1, 94, 55
3, 214144, Note_on_c, 1, 94, 55
3, 214208, Note_off_c, 1, 94, 55
3, 214272, Note_off_c, 1, 94, 55
3, 214272, Note_on_c, 1, 94, 55
3, 214336, Note_off_c, 1, 94, 55
3, 214400, Note_off_c, 1, 94, 55
3, 214400, Note_on_c, 1, 91, 55
3, 214432, Note_off_c, 1, 91, 55
3, 214464, Note_off_c, 1, 91, 55
3, 214464, Note_on_c, 1, 92, 55
3, 214496, Note_off_c, 1, 92, 55
3, 214528, Note_off_c, 1, 92, 55
3, 214528, Note_on_c, 1, 94, 55
3, 214592, Note_off_c, 1, 94, 55
3, 214656, Note_off_c, 1, 94, 55
3, 214656, Note_on_c, 1, 94, 55
3, 214720, Note_off_c, 1, 94, 55
3, 214784, Note_off_c, 1, 94, 55
3, 214784, Note_on_c, 1, 94, 55
3, 214848, Note_off_c, 1, 94, 55
3, 214912, Note_off_c, 1, 94, 55
3, 214912, Note_on_c, 1, 91, 55
3, 214944, Note_off_c, 1, 91, 55
3, 214976, Note_off_c, 1, 91, 55
3, 214976, Note_on_c, 1, 92, 55
3, 215008, Note_off_c, 1, 92, 55
3, 215040, Note_off_c, 1, 92, 55
3, 215040, Note_on_c, 1, 94, 55
3, 215104, Note_off_c, 1, 94, 55
3, 215168, Note_off_c, 1, 94, 55
3, 215168, Note_on_c, 1, 94, 55
3, 215232, Note_off_c, 1, 94, 55
3, 215296, Note_off_c, 1, 94, 55
3, 216064, Control_c, 1, 93, 0
3, 217088, Control_c, 1, 93, 0
3, 217344, Control_c, 1, 93, 0
3, 217344, Note_on_c, 1, 77, 67
3, 217600, Note_off_c, 1, 77, 67
3, 218112, Control_c, 1, 93, 0
3, 219136, Control_c, 1, 93, 0
3, 220160, Control_c, 1, 93, 0
3, 221184, Control_c, 1, 93, 0
3, 222208, Control_c, 1, 93, 0
3, 223232, Control_c, 1, 93, 0
3, 224256, Control_c, 1, 93, 0
3, 225280, Control_c, 1, 93, 0
3, 226048, Control_c, 1, 93, 0
3, 226048, Note_on_c, 1, 91, 55
3, 226112, Note_off_c, 1, 91, 55
3, 226176, Note_off_c, 1, 91, 55
3, 226176, Note_on_c, 1, 91, 55
3, 226208, Note_off_c, 1, 91, 55
3, 226240, Note_off_c, 1, 91, 55
3, 226240, Note_on_c, 1, 92, 55
3, 226272, Note_off_c, 1, 92, 55
3, 226304, Note_off_c, 1, 92, 55
3, 226304, Note_on_c, 1, 94, 55
3, 226368, Note_off_c, 1, 94, 55
3, 226432, Note_off_c, 1, 94, 55
3, 226432, Note_on_c, 1, 94, 55
3, 226496, Note_off_c, 1, 94, 55
3, 226560, Note_off_c, 1, 94, 55
3, 226560, Note_on_c, 1, 94, 55
3, 226624, Note_off_c, 1, 94, 55
3, 226688, Note_off_c, 1, 94, 55
3, 226688, Note_on_c, 1, 91, 55
3, 226720, Note_off_c, 1, 91, 55
3, 226752, Note_off_c, 1, 91, 55
3, 226752, Note_on_c, 1, 92, 55
3, 226784, Note_off_c, 1, 92, 55
3, 226816, Note_off_c, 1, 92, 55
3, 226816, Note_on_c, 1, 94, 55
3, 226880, Note_off_c, 1, 94, 55
3, 226944, Note_off_c, 1, 94, 55
3, 226944, Note_on_c, 1, 94, 55
3, 227008, Note_off_c, 1, 94, 55
3, 227072, Note_off_c, 1, 94, 55
3, 227072, Note_on_c, 1, 94, 55
3, 227136, Note_off_c, 1, 94, 55
3, 227200, Note_off_c, 1, 94, 55
3, 227200, Note_on_c, 1, 91, 55
3, 227232, Note_off_c, 1, 91, 55
3, 227264, Note_off_c, 1, 91, 55
3, 227264, Note_on_c, 1, 92, 55
3, 227296, Note_off_c, 1, 92, 55
3, 227328, Note_off_c, 1, 92, 55
3, 227328, Note_on_c, 1, 94, 55
3, 227392, Note_off_c, 1, 94, 55
3, 227456, Note_off_c, 1, 94, 55
3, 227456, Note_on_c, 1, 94, 55
3, 227520, Note_off_c, 1, 94, 55
3, 227584, Note_off_c, 1, 94, 55
3, 228352, Control_c, 1, 93, 0
3, 229376, Control_c, 1, 93, 0
3, 229632, Control_c, 1, 93, 0
3, 229632, Note_on_c, 1, 77, 67
3, 229888, Note_off_c, 1, 77, 67
3, 230400, Control_c, 1, 93, 0
3, 231424, Control_c, 1, 93, 0
3, 232448, Control_c, 1, 93, 0
3, 233472, Control_c, 1, 93, 0
3, 234496, Control_c, 1, 93, 0
3, 235520, Control_c, 1, 93, 0
3, 236544, Control_c, 1, 93, 0
3, 237568, Control_c, 1, 93, 0
3, 238336, Control_c, 1, 93, 0
3, 238336, Note_on_c, 1, 91, 55
3, 238400, Note_off_c, 1, 91, 55
3, 238464, Note_off_c, 1, 91, 55
3, 238464, Note_on_c, 1, 91, 55
3, 238496, Note_off_c, 1, 91, 55
3, 238528, Note_off_c, 1, 91, 55
3, 238528, Note_on_c, 1, 92, 55
3, 238560, Note_off_c, 1, 92, 55
3, 238592, Note_off_c, 1, 92, 55
3, 238592, Note_on_c, 1, 94, 55
3, 238656, Note_off_c, 1, 94, 55
3, 238720, Note_off_c, 1, 94, 55
3, 238720, Note_on_c, 1, 94, 55
3, 238784, Note_off_c, 1, 94, 55
3, 238848, Note_off_c, 1, 94, 55
3, 238848, Note_on_c, 1, 94, 55
3, 238912, Note_off_c, 1, 94, 55
3, 238976, Note_off_c, 1, 94, 55
3, 238976, Note_on_c, 1, 91, 55
3, 239008, Note_off_c, 1, 91, 55
3, 239040, Note_off_c, 1, 91, 55
3, 239040, Note_on_c, 1, 92, 55
3, 239072, Note_off_c, 1, 92, 55
3, 239104, Note_off_c, 1, 92, 55
3, 239104, Note_on_c, 1, 94, 55
3, 239168, Note_off_c, 1, 94, 55
3, 239232, Note_off_c, 1, 94, 55
3, 239232, Note_on_c, 1, 94, 55
3, 239296, Note_off_c, 1, 94, 55
3, 239360, Note_off_c, 1, 94, 55
3, 239360, Note_on_c, 1, 94, 55
3, 239424, Note_off_c, 1, 94, 55
3, 239488, Note_off_c, 1, 94, 55
3, 239488, Note_on_c, 1, 91, 55
3, 239520, Note_off_c, 1, 91, 55
3, 239552, Note_off_c, 1, 91, 55
3, 239552, Note_on_c, 1, 92, 55
3, 239584, Note_off_c, 1, 92, 55
3, 239616, Note_off_c, 1, 92, 55
3, 239616, Note_on_c, 1, 94, 55
3, 239680, Note_off_c, 1, 94, 55
3, 239744, Note_off_c, 1, 94, 55
3, 239744, Note_on_c, 1, 94, 55
3, 239808, Note_off_c, 1, 94, 55
3, 239872, Note_off_c, 1, 94, 55
3, 240640, Control_c, 1, 93, 0
3, 241664, Control_c, 1, 93, 0
3, 241920, Control_c, 1, 93, 0
3, 241920, Note_on_c, 1, 77, 67
3, 242176, Note_off_c, 1, 77, 67
3, 242688, Control_c, 1, 93, 0
3, 243712, Control_c, 1, 93, 0
3, 244736, Control_c, 1, 93, 0
3, 245760, Control_c, 1, 93, 0
3, 246784, Control_c, 1, 93, 0
3, 247808, Control_c, 1, 93, 0
3, 248832, Control_c, 1, 93, 0
3, 249856, Control_c, 1, 93, 0
3, 250624, Control_c, 1, 93, 0
3, 250624, Note_on_c, 1, 91, 55
3, 250688, Note_off_c, 1, 91, 55
3, 250752, Note_off_c, 1, 91, 55
3, 250752, Note_on_c, 1, 91, 55
3, 250784, Note_off_c, 1, 91, 55
3, 250816, Note_off_c, 1, 91, 55
3, 250816, Note_on_c, 1, 92, 55
3, 250848, Note_off_c, 1, 92, 55
3, 250880, Note_off_c, 1, 92, 55
3, 250880, Note_on_c, 1, 94, 55
3, 250944, Note_off_c, 1, 94, 55
3, 251008, Note_off_c, 1, 94, 55
3, 251008, Note_on_c, 1, 94, 55
3, 251072, Note_off_c, 1, 94, 55
3, 251136, Note_off_c, 1, 94, 55
3, 251136, Note_on_c, 1, 94, 55
3, 251200, Note_off_c, 1, 94, 55
3, 251264, Note_off_c, 1, 94, 55
3, 251264, Note_on_c, 1, 91, 55
3, 251296, Note_off_c, 1, 91, 55
3, 251328, Note_off_c, 1, 91, 55
3, 251328, Note_on_c, 1, 92, 55
3, 251360, Note_off_c, 1, 92, 55
3, 251392, Note_off_c, 1, 92, 55
3, 251392, Note_on_c, 1, 94, 55
3, 251456, Note_off_c, 1, 94, 55
3, 251520, Note_off_c, 1, 94, 55
3, 251520, Note_on_c, 1, 94, 55
3, 251584, Note_off_c, 1, 94, 55
3, 251648, Note_off_c, 1, 94, 55
3, 251648, Note_on_c, 1, 94, 55
3, 251712, Note_off_c, 1, 94, 55
3, 251776, Note_off_c, 1, 94, 55
3, 251776, Note_on_c, 1, 91, 55
3, 251808, Note_off_c, 1, 91, 55
3, 251840, Note_off_c, 1, 91, 55
3, 251840, Note_on_c, 1, 92, 55
3, 251872, Note_off_c, 1, 92, 55
3, 251904, Note_off_c, 1, 92, 55
3, 251904, Note_on_c, 1, 94, 55
3, 251968, Note_off_c, 1, 94, 55
3, 252032, Note_off_c, 1, 94, 55
3, 252032, Note_on_c, 1, 94, 55
3, 252096, Note_off_c, 1, 94, 55
3, 252160, Note_off_c, 1, 94, 55
3, 252928, Control_c, 1, 93, 0
3, 253952, Control_c, 1, 93, 0
3, 254208, Control_c, 1, 93, 0
3, 254208, Note_on_c, 1, 77, 67
3, 254464, Note_off_c, 1, 77, 67
3, 254976, Control_c, 1, 93, 0
3, 256000, Control_c, 1, 93, 0
3, 257024, Control_c, 1, 93, 0
3, 258048, Control_c, 1, 93, 0
3, 259072, Control_c, 1, 93, 0
3, 260096, Control_c, 1, 93, 0
3, 261120, Control_c, 1, 93, 0
3, 262144, Control_c, 1, 93, 0
3, 262912, Control_c, 1, 93, 0
3, 262912, Note_on_c, 1, 91, 55
3, 262976, Note_off_c, 1, 91, 55
3, 263040, Note_off_c, 1, 91, 55
3, 263040, Note_on_c, 1, 91, 55
3, 263072, Note_off_c, 1, 91, 55
3, 263104, Note_off_c, 1, 91, 55
3, 263104, Note_on_c, 1, 92, 55
3, 263136, Note_off_c, 1, 92, 55
3, 263168, Note_off_c, 1, 92, 55
3, 263168, Note_on_c, 1, 94, 55
3, 263232, Note_off_c, 1, 94, 55
3, 263296, Note_off_c, 1, 94, 55
3, 263296, Note_on_c, 1, 94, 55
3, 263360, Note_off_c, 1, 94, 55
3, 263424, Note_off_c, 1, 94, 55
3, 263424, Note_on_c, 1, 94, 55
3, 263488, Note_off_c, 1, 94, 55
3, 263552, Note_off_c, 1, 94, 55
3, 263552, Note_on_c, 1, 91, 55
3, 263584, Note_off_c, 1, 91, 55
3, 263616, Note_off_c, 1, 91, 55
3, 263616, Note_on_c, 1, 92, 55
3, 263648, Note_off_c, 1, 92, 55
3, 263680, Note_off_c, 1, 92, 55
3, 263680, Note_on_c, 1, 94, 55
3, 263744, Note_off_c, 1, 94, 55
3, 263808, Note_off_c, 1, 94, 55
3, 263808, Note_on_c, 1, 94, 55
3, 263872, Note_off_c, 1, 94, 55
3, 263936, Note_off_c, 1, 94, 55
3, 263936, Note_on_c, 1, 94, 55
3, 264000, Note_off_c, 1, 94, 55
3, 264064, Note_off_c, 1, 94, 55
3, 264064, Note_on_c, 1, 91, 55
3, 264096, Note_off_c, 1, 91, 55
3, 264128, Note_off_c, 1, 91, 55
3, 264128, Note_on_c, 1, 92, 55
3, 264160, Note_off_c, 1, 92, 55
3, 264192, Note_off_c, 1, 92, 55
3, 264192, Note_on_c, 1, 94, 55
3, 264256, Note_off_c, 1, 94, 55
3, 264320, Note_off_c, 1, 94, 55
3, 264320, Note_on_c, 1, 94, 55
3, 264384, Note_off_c, 1, 94, 55
3, 264448, Note_off_c, 1, 94, 55
3, 265216, Control_c, 1, 93, 0
3, 266240, Control_c, 1, 93, 0
3, 266496, Control_c, 1, 93, 0
3, 266496, Note_on_c, 1, 77, 67
3, 266752, Note_off_c, 1, 77, 67
3, 267264, Control_c, 1, 93, 0
3, 268288, Control_c, 1, 93, 0
3, 269312, Control_c, 1, 93, 0
3, 270336, Control_c, 1, 93, 0
3, 271360, Control_c, 1, 93, 0
3, 272384, Control_c, 1, 93, 0
3, 273408, Control_c, 1, 93, 0
3, 274432, Control_c, 1, 93, 0
3, 275200, Control_c, 1, 93, 0
3, 275200, Note_on_c, 1, 91, 55
3, 275264, Note_off_c, 1, 91, 55
3, 275328, Note_off_c, 1, 91, 55
3, 275328, Note_on_c, 1, 91, 55
3, 275360, Note_off_c, 1, 91, 55
3, 275392, Note_off_c, 1, 91, 55
3, 275392, Note_on_c, 1, 92, 55
3, 275424, Note_off_c, 1, 92, 55
3, 275456, Note_off_c, 1, 92, 55
3, 275456, Note_on_c, 1, 94, 55
3, 275520, Note_off_c, 1, 94, 55
3, 275584, Note_off_c, 1, 94, 55
3, 275584, Note_on_c, 1, 94, 55
3, 275648, Note_off_c, 1, 94, 55
3, 275712, Note_off_c, 1, 94, 55
3, 275712, Note_on_c, 1, 94, 55
3, 275776, Note_off_c, 1, 94, 55
3, 275840, Note_off_c, 1, 94, 55
3, 275840, Note_on_c, 1, 91, 55
3, 275872, Note_off_c, 1, 91, 55
3, 275904, Note_off_c, 1, 91, 55
3, 275904, Note_on_c, 1, 92, 55
3, 275936, Note_off_c, 1, 92, 55
3, 275968, Note_off_c, 1, 92, 55
3, 275968, Note_on_c, 1, 94, 55
3, 276032, Note_off_c, 1, 94, 55
3, 276096, Note_off_c, 1, 94, 55
3, 276096, Note_on_c, 1, 94, 55
3, 276160, Note_off_c, 1, 94, 55
3, 276224, Note_off_c, 1, 94, 55
3, 276224, Note_on_c, 1, 94, 55
3, 276288, Note_off_c, 1, 94, 55
3, 276352, Note_off_c, 1, 94, 55
3, 276352, Note_on_c, 1, 91, 55
3, 276384, Note_off_c, 1, 91, 55
3, 276416, Note_off_c, 1, 91, 55
3, 276416, Note_on_c, 1, 92, 55
3, 276448, Note_off_c, 1, 92, 55
3, 276480, Note_off_c, 1, 92, 55
3, 276480, Note_on_c, 1, 94, 55
3, 276544, Note_off_c, 1, 94, 55
3, 276608, Note_off_c, 1, 94, 55
3, 276608, Note_on_c, 1, 94, 55
3, 276672, Note_off_c, 1, 94, 55
3, 276736, Note_off_c, 1, 94, 55
3, 277504, Control_c, 1, 93, 0
3, 278528, Control_c, 1, 93, 0
3, 278784, Control_c, 1, 93, 0
3, 278784, Note_on_c, 1, 77, 67
3, 279040, Note_off_c, 1, 77, 67
3, 279552, Control_c, 1, 93, 0
3, 280576, Control_c, 1, 93, 0
3, 281600, Control_c, 1, 93, 0
3, 282624, Control_c, 1, 93, 0
3, 283648, Control_c, 1, 93, 0
3, 284672, Control_c, 1, 93, 0
3, 285696, Control_c, 1, 93, 0
3, 286720, Control_c, 1, 93, 0
3, 287488, Control_c, 1, 93, 0
3, 287488, Note_on_c, 1, 91, 55
3, 287552, Note_off_c, 1, 91, 55
3, 287616, Note_off_c, 1, 91, 55
3, 287616, Note_on_c, 1, 91, 55
3, 287648, Note_off_c, 1, 91, 55
3, 287680, Note_off_c, 1, 91, 55
3, 287680, Note_on_c, 1, 92, 55
3, 287712, Note_off_c, 1, 92, 55
3, 287744, Note_off_c, 1, 92, 55
3, 287744, Note_on_c, 1, 94, 55
3, 287808, Note_off_c, 1, 94, 55
3, 287872, Note_off_c, 1, 94, 55
3, 287872, Note_on_c, 1, 94, 55
3, 287936, Note_off_c, 1, 94, 55
3, 288000, Note_off_c, 1, 94, 55
3, 288000, Note_on_c, 1, 94, 55
3, 288064, Note_off_c, 1, 94, 55
3, 288128, Note_off_c, 1, 94, 55
3, 288128, Note_on_c, 1, 91, 55
3, 288160, Note_off_c, 1, 91, 55
3, 288192, Note_off_c, 1, 91, 55
3, 288192, Note_on_c, 1, 92, 55
3, 288224, Note_off_c, 1, 92, 55
3, 288256, Note_off_c, 1, 92, 55
3, 288256, Note_on_c, 1, 94, 55
3, 288320, Note_off_c, 1, 94, 55
3, 288384, Note_off_c, 1, 94, 55
3, 288384, Note_on_c, 1, 94, 55
3, 288448, Note_off_c, 1, 94, 55
3, 288512, Note_off_c, 1, 94, 55
3, 288512, Note_on_c, 1, 94, 55
3, 288576, Note_off_c, 1, 94, 55
3, 288640, Note_off_c, 1, 94, 55
3, 288640, Note_on_c, 1, 91, 55
3, 288672, Note_off_c, 1, 91, 55
3, 288704, Note_off_c, 1, 91, 55
3, 288704, Note_on_c, 1, 92, 55
3, 288736, Note_off_c, 1, 92, 55
3, 288768, Note_off_c, 1, 92, 55
3, 288768, Note_on_c, 1, 94, 55
3, 288832, Note_off_c, 1, 94, 55
3, 288896, Note_off_c, 1, 94, 55
3, 288896, Note_on_c, 1, 94, 55
3, 288960, Note_off_c, 1, 94, 55
3, 289024, Note_off_c, 1, 94, 55
3, 289792, Control_c, 1, 93, 0
3, 290816, Control_c, 1, 93, 0
3, 291072, Control_c, 1, 93, 0
3, 291072, Note_on_c, 1, 77, 67
3, 291328, Note_off_c, 1, 77, 67
3, 291840, Control_c, 1, 93, 0
3, 292864, Control_c, 1, 93, 0
3, 293888, Control_c, 1, 93, 0
3, 294912, Control_c, 1, 93, 0
3, 295936, Control_c, 1, 93, 0
3, 296960, Control_c, 1, 93, 0
3, 297984, Control_c, 1, 93, 0
3, 299008, Control_c, 1, 93, 0
3, 299776, Control_c, 1, 93, 0
3, 299776, Note_on_c, 1, 91, 55
3, 299840, Note_off_c, 1, 91, 55
3, 299904, Note_off_c, 1, 91, 55
3, 299904, Note_on_c, 1, 91, 55
3, 299936, Note_off_c, 1, 91, 55
3, 299968, Note_off_c, 1, 91, 55
3, 299968, Note_on_c, 1, 92, 55
3, 300000, Note_off_c, 1, 92, 55
3, 300032, Note_off_c, 1, 92, 55
3, 300032, Note_on_c, 1, 94, 55
3, 300096, Note_off_c, 1, 94, 55
3, 300160, Note_off_c, 1, 94, 55
3, 300160, Note_on_c, 1, 94, 55
3, 300224, Note_off_c, 1, 94, 55
3, 300288, Note_off_c, 1, 94, 55
3, 300288, Note_on_c, 1, 94, 55
3, 300352, Note_off_c, 1, 94, 55
3, 300416, Note_off_c, 1, 94, 55
3, 300416, Note_on_c, 1, 91, 55
3, 300448, Note_off_c, 1, 91, 55
3, 300480, Note_off_c, 1, 91, 55
3, 300480, Note_on_c, 1, 92, 55
3, 300512, Note_off_c, 1, 92, 55
3, 300544, Note_off_c, 1, 92, 55
3, 300544, Note_on_c, 1, 94, 55
3, 300608, Note_off_c, 1, 94, 55
3, 300672, Note_off_c, 1, 94, 55
3, 300672, Note_on_c, 1, 94, 55
3, 300736, Note_off_c, 1, 94, 55
3, 300800, Note_off_c, 1, 94, 55
3, 300800, Note_on_c, 1, 94, 55
3, 300864, Note_off_c, 1, 94, 55
3, 300928, Note_off_c, 1, 94, 55
3, 300928, Note_on_c, 1, 91, 55
3, 300960, Note_off_c, 1, 91, 55
3, 300992, Note_off_c, 1, 91, 55
3, 300992, Note_on_c, 1, 92, 55
3, 301024, Note_off_c, 1, 92, 55
3, 301056, Note_off_c, 1, 92, 55
3, 301056, Note_on_c, 1, 94, 55
3, 301120, Note_off_c, 1, 94, 55
3, 301184, Note_off_c, 1, 94, 55
3, 301184, Note_on_c, 1, 94, 55
3, 301248, Note_off_c, 1, 94, 55
3, 301312, Note_off_c, 1, 94, 55
3, 302080, Control_c, 1, 93, 0
3, 303104, Control_c, 1, 93, 0
3, 303360, Control_c, 1, 93, 0
3, 303360, Note_on_c, 1, 77, 67
3, 303616, Note_off_c, 1, 77, 67
3, 304128, Control_c, 1, 93, 0
3, 305152, Control_c, 1, 93, 0
3, 306176, Control_c, 1, 93, 0
3, 307200, Control_c, 1, 93, 0
3, 308224, Control_c, 1, 93, 0
3, 309248, Control_c, 1, 93, 0
3, 310272, Control_c, 1, 93, 0
3, 311296, Control_c, 1, 93, 0
3, 312064, Control_c, 1, 93, 0
3, 312064, Note_on_c, 1, 91, 55
3, 312128, Note_off_c, 1, 91, 55
3, 312192, Note_off_c, 1, 91, 55
3, 312192, Note_on_c, 1, 91, 55
3, 312224, Note_off_c, 1, 91, 55
3, 312256, Note_off_c, 1, 91, 55
3, 312256, Note_on_c, 1, 92, 55
3, 312288, Note_off_c, 1, 92, 55
3, 312320, Note_off_c, 1, 92, 55
3, 312320, Note_on_c, 1, 94, 55
3, 312384, Note_off_c, 1, 94, 55
3, 312448, Note_off_c, 1, 94, 55
3, 312448, Note_on_c, 1, 94, 55
3, 312512, Note_off_c, 1, 94, 55
3, 312576, Note_off_c, 1, 94, 55
3, 312576, Note_on_c, 1, 94, 55
3, 312640, Note_off_c, 1, 94, 55
3, 312704, Note_off_c, 1, 94, 55
3, 312704, Note_on_c, 1, 91, 55
3, 312736, Note_off_c, 1, 91, 55
3, 312768, Note_off_c, 1, 91, 55
3, 312768, Note_on_c, 1, 92, 55
3, 312800, Note_off_c, 1, 92, 55
3, 312832, Note_off_c, 1, 92, 55
3, 312832, Note_on_c, 1, 94, 55
3, 312896, Note_off_c, 1, 94, 55
3, 312960, Note_off_c, 1, 94, 55
3, 312960, Note_on_c, 1, 94, 55
3, 313024, Note_off_c, 1, 94, 55
3, 313088, Note_off_c, 1, 94, 55
3, 313088, Note_on_c, 1, 94, 55
3, 313152, Note_off_c, 1, 94, 55
3, 313216, Note_off_c, 1, 94, 55
3, 313216, Note_on_c, 1, 91, 55
3, 313248, Note_off_c, 1, 91, 55
3, 313280, Note_off_c, 1, 91, 55
3, 313280, Note_on_c, 1, 92, 55
3, 313312, Note_off_c, 1, 92, 55
3, 313344, Note_off_c, 1, 92, 55
3, 313344, Note_on_c, 1, 94, 55
3, 313408, Note_off_c, 1, 94, 55
3, 313472, Note_off_c, 1, 94, 55
3, 313472, Note_on_c, 1, 94, 55
3, 313536, Note_off_c, 1, 94, 55
3, 313600, Note_off_c, 1, 94, 55
3, 314368, Control_c, 1, 93, 0
3, 315392, Control_c, 1, 93, 0
3, 315648, Control_c, 1, 93, 0
3, 315648, Note_on_c, 1, 77, 67
3, 315904, Note_off_c, 1, 77, 67
3, 316416, Control_c, 1, 93, 0
3, 317440, Control_c, 1, 93, 0
3, 318464, Control_c, 1, 93, 0
3, 319488, Control_c, 1, 93, 0
3, 320512, Control_c, 1, 93, 0
3, 321536, Control_c, 1, 93, 0
3, 322560, Control_c, 1, 93, 0
3, 323584, Control_c, 1, 93, 0
3, 324352, Control_c, 1, 93, 0
3, 324352, Note_on_c, 1, 91, 55
3, 324416, Note_off_c, 1, 91, 55
3, 324480, Note_off_c, 1, 91, 55
3, 324480, Note_on_c, 1, 91, 55
3, 324512, Note_off_c, 1, 91, 55
3, 324544, Note_off_c, 1, 91, 55
3, 324544, Note_on_c, 1, 92, 55
3, 324576, Note_off_c, 1, 92, 55
3, 324608, Note_off_c, 1, 92, 55
3, 324608, Note_on_c, 1, 94, 55
3, 324672, Note_off_c, 1, 94, 55
3, 324736, Note_off_c, 1, 94, 55
3, 324736, Note_on_c, 1, 94, 55
3, 324800, Note_off_c, 1, 94, 55
3, 324864, Note_off_c, 1, 94, 55
3, 324864, Note_on_c, 1, 94, 55
3, 324928, Note_off_c, 1, 94, 55
3, 324992, Note_off_c, 1, 94, 55
3, 324992, Note_on_c, 1, 91, 55
3, 325024, Note_off_c, 1, 91, 55
3, 325056, Note_off_c, 1, 91, 55
3, 325056, Note_on_c, 1, 92, 55
3, 325088, Note_off_c, 1, 92, 55
3, 325120, Note_off_c, 1, 92, 55
3, 325120, Note_on_c, 1, 94, 55
3, 325184, Note_off_c, 1, 94, 55
3, 325248, Note_off_c, 1, 94, 55
3, 325248, Note_on_c, 1, 94, 55
3, 325312, Note_off_c, 1, 94, 55
3, 325376, Note_off_c, 1, 94, 55
3, 325376, Note_on_c, 1, 94, 55
3, 325440, Note_off_c, 1, 94, 55
3, 325504, Note_off_c, 1, 94, 55
3, 325504, Note_on_c, 1, 91, 55
3, 325536, Note_off_c, 1, 91, 55
3, 325568, Note_off_c, 1, 91, 55
3, 325568, Note_on_c, 1, 92, 55
3, 325600, Note_off_c, 1, 92, 55
3, 325632, Note_off_c, 1, 92, 55
3, 325632, Note_on_c, 1, 94, 55
3, 325696, Note_off_c, 1, 94, 55
3, 325760, Note_off_c, 1, 94, 55
3, 325760, Note_on_c, 1, 94, 55
3, 325824, Note_off_c, 1, 94, 55
3, 325888, Note_off_c, 1, 94, 55
3, 326656, Control_c, 1, 93, 0
3, 327680, Control_c, 1, 93, 0
3, 327936, Control_c, 1, 93, 0
3, 327936, Note_on_c, 1, 77, 67
3, 328192, Note_off_c, 1, 77, 67
3, 328704, Control_c, 1, 93, 0
3, 329728, Control_c, 1, 93, 0
3, 330752, Control_c, 1, 93, 0
3, 331776, Control_c, 1, 93, 0
3, 332800, Control_c, 1, 93, 0
3, 333824, Control_c, 1, 93, 0
3, 334848, Control_c, 1, 93, 0
3, 335872, Control_c, 1, 93, 0
3, 336640, Control_c, 1, 93, 0
3, 336640, Note_on_c, 1, 91, 55
3, 336704, Note_off_c, 1, 91, 55
3, 336768, Note_off_c, 1, 91, 55
3, 336768, Note_on_c, 1, 91, 55
3, 336800, Note_off_c, 1, 91, 55
3, 336832, Note_off_c, 1, 91, 55
3, 336832, Note_on_c, 1, 92, 55
3, 336864, Note_off_c, 1, 92, 55
3, 336896, Note_off_c, 1, 92, 55
3, 336896, Note_on_c, 1, 94, 55
3, 336960, Note_off_c, 1, 94, 55
3, 337024, Note_off_c, 1, 94, 55
3, 337024, Note_on_c, 1, 94, 55
3, 337088, Note_off_c, 1, 94, 55
3, 337152, Note_off_c, 1, 94, 55
3, 337152, Note_on_c, 1, 94, 55
3, 337216, Note_off_c, 1, 94, 55
3, 337280, Note_off_c, 1, 94, 55
3, 337280, Note_on_c, 1, 91, 55
3, 337312, Note_off_c, 1, 91, 55
3, 337344, Note_off_c, 1, 91, 55
3, 337344, Note_on_c, 1, 92, 55
3, 337376, Note_off_c, 1, 92, 55
3, 337408, Note_off_c, 1, 92, 55
3, 337408, Note_on_c, 1, 94, 55
3, 337472, Note_off_c, 1, 94, 55
3, 337536, Note_off_c, 1, 94, 55
3, 337536, Note_on_c, 1, 94, 55
3, 337600, Note_off_c, 1, 94, 55
3, 337664, Note_off_c, 1, 94, 55
3, 337664, Note_on_c, 1, 94, 55
3, 337728, Note_off_c, 1, 94, 55
3, 337792, Note_off_c, 1, 94, 55
3, 337792, Note_on_c, 1, 91, 55
3, 337824, Note_off_c, 1, 91, 55
3, 337856, Note_off_c, 1, 91, 55
3, 337856, Note_on_c, 1, 92, 55
3, 337888, Note_off_c, 1, 92, 55
3, 337920, Note_off_c, 1, 92, 55
3, 337920, Note_on_c, 1, 94, 55
3, 337984, Note_off_c, 1, 94, 55
3, 338048, Note_off_c, 1, 94, 55
3, 338048, Note_on_c, 1, 94, 55
3, 338112, Note_off_c, 1, 94, 55
3, 338176, Note_off_c, 1, 94, 55
3, 338944, Control_c, 1, 93, 0
3, 339968, Control_c, 1, 93, 0
3, 340224, Control_c, 1, 93, 0
3, 340224, Note_on_c, 1, 77, 67
3, 340480, Note_off_c, 1, 77, 67
3, 340992, Control_c, 1, 93, 0
3, 342016, Control_c, 1, 93, 0
3, 343040, Control_c, 1, 93, 0
3, 344064, Control_c, 1, 93, 0
3, 345088, Control_c, 1, 93, 0
3, 346112, Control_c, 1, 93, 0
3, 347136, Control_c, 1, 93, 0
3, 348160, Control_c, 1, 93, 0
3, 348928, Control_c, 1, 93, 0
3, 348928, Note_on_c, 1, 91, 55
3, 348992, Note_off_c, 1, 91, 55
3, 349056, Note_off_c, 1, 91, 55
3, 349056, Note_on_c, 1, 91, 55
3, 349088, Note_off_c, 1, 91, 55
3, 349120, Note_off_c, 1, 91, 55
3, 349120, Note_on_c, 1, 92, 55
3, 349152, Note_off_c, 1, 92, 55
3, 349184, Note_off_c, 1, 92, 55
3, 349184, Note_on_c, 1, 94, 55
3, 349248, Note_off_c, 1, 94, 55
3, 349312, Note_off_c, 1, 94, 55
3, 349312, Note_on_c, 1, 94, 55
3, 349376, Note_off_c, 1, 94, 55
3, 349440, Note_off_c, 1, 94, 55
3, 349440, Note_on_c, 1, 94, 55
3, 349504, Note_off_c, 1, 94, 55
3, 349568, Note_off_c, 1, 94, 55
3, 349568, Note_on_c, 1, 91, 55
3, 349600, Note_off_c, 1, 91, 55
3, 349632, Note_off_c, 1, 91, 55
3, 349632, Note_on_c, 1, 92, 55
3, 349664, Note_off_c, 1, 92, 55
3, 349696, Note_off_c, 1, 92, 55
3, 349696, Note_on_c, 1, 94, 55
3, 349760, Note_off_c, 1, 94, 55
3, 349824, Note_off_c, 1, 94, 55
3, 349824, Note_on_c, 1, 94, 55
3, 349888, Note_off_c, 1, 94, 55
3, 349952, Note_off_c, 1, 94, 55
3, 349952, Note_on_c, 1, 94, 55
3, 350016, Note_off_c, 1, 94, 55
3, 350080, Note_off_c, 1, 94, 55
3, 350080, Note_on_c, 1, 91, 55
3, 350112, Note_off_c, 1, 91, 55
3, 350144, Note_off_c, 1, 91, 55
3, 350144, Note_on_c, 1, 92, 55
3, 350176, Note_off_c, 1, 92, 55
3, 350208, Note_off_c, 1, 92, 55
3, 350208, Note_on_c, 1, 94, 55
3, 350272, Note_off_c, 1, 94, 55
3, 350336, Note_off_c, 1, 94, 55
3, 350336, Note_on_c, 1, 94, 55
3, 350400, Note_off_c, 1, 94, 55
3, 350464, Note_off_c, 1, 94, 55
3, 351232, Control_c, 1, 93, 0
3, 352256, Control_c, 1, 93, 0
3, 352512, Control_c, 1, 93, 0
3, 352512, Note_on_c, 1, 77, 67
3, 352768, Note_off_c, 1, 77, 67
3, 353280, Control_c, 1, 93, 0
3, 354304, Control_c, 1, 93, 0
3, 355328, Control_c, 1, 93, 0
3, 356352, Control_c, 1, 93, 0
3, 357376, Control_c, 1, 93, 0
3, 358400, Control_c, 1, 93, 0
3, 359424, Control_c, 1, 93, 0
3, 360448, Control_c, 1, 93, 0
3, 361216, Control_c, 1, 93, 0
3, 361216, Note_on_c, 1, 91, 55
3, 361280, Note_off_c, 1, 91, 55
3, 361344, Note_off_c, 1, 91, 55
3, 361344, Note_on_c, 1, 91, 55
3, 361376, Note_off_c, 1, 91, 55
3, 361408, Note_off_c, 1, 91, 55
3, 361408, Note_on_c, 1, 92, 55
3, 361440, Note_off_c, 1, 92, 55
3, 361472, Note_off_c, 1, 92, 55
3, 361472, Note_on_c, 1, 94, 55
3, 361536, Note_off_c, 1, 94, 55
3, 361600, Note_off_c, 1, 94, 55
3, 361600, Note_on_c, 1, 94, 55
3, 361664, Note_off_c, 1, 94, 55
3, 361728, Note_off_c, 1, 94, 55
3, 361728, Note_on_c, 1, 94, 55
3, 361792, Note_off_c, 1, 94, 55
3, 361856, Note_off_c, 1, 94, 55
3, 361856, Note_on_c, 1, 91, 55
3, 361888, Note_off_c, 1, 91, 55
3, 361920, Note_off_c, 1, 91, 55
3, 361920, Note_on_c, 1, 92, 55
3, 361952, Note_off_c, 1, 92, 55
3, 361984, Note_off_c, 1, 92, 55
3, 361984, Note_on_c, 1, 94, 55
3, 362048, Note_off_c, 1, 94, 55
3, 362112, Note_off_c, 1, 94, 55
3, 362112, Note_on_c, 1, 94, 55
3, 362176, Note_off_c, 1, 94, 55
3, 362240, Note_off_c, 1, 94, 55
3, 362240, Note_on_c, 1, 94, 55
3, 362304, Note_off_c, 1, 94, 55
3, 362368, Note_off_c, 1, 94, 55
3, 362368, Note_on_c, 1, 91, 55
3, 362400, Note_off_c, 1, 91, 55
3, 362432, Note_off_c, 1, 91, 55
3, 362432, Note_on_c, 1, 92, 55
3, 362464, Note_off_c, 1, 92, 55
3, 362496, Note_off_c, 1, 92, 55
3, 362496, Note_on_c, 1, 94, 55
3, 362560, Note_off_c, 1, 94, 55
3, 362624, Note_off_c, 1, 94, 55
3, 362624, Note_on_c, 1, 94, 55
3, 362688, Note_off_c, 1, 94, 55
3, 362752, Note_off_c, 1, 94, 55
3, 363520, Control_c, 1, 93, 0
3, 364544, Control_c, 1, 93, 0
3, 364800, Control_c, 1, 93, 0
3, 364800, Note_on_c, 1, 77, 67
3, 365056, Note_off_c, 1, 77, 67
3, 365568, Control_c, 1, 93, 0
3, 366592, Control_c, 1, 93, 0
3, 367616, Control_c, 1, 93, 0
3, 368640, Control_c, 1, 93, 0
3, 369664, Control_c, 1, 93, 0
3, 370688, Control_c, 1, 93, 0
3, 371712, Control_c, 1, 93, 0
3, 372736, Control_c, 1, 93, 0
3, 373504, Control_c, 1, 93, 0
3, 373504, Note_on_c, 1, 91, 55
3, 373568, Note_off_c, 1, 91, 55
3, 373632, Note_off_c, 1, 91, 55
3, 373632, Note_on_c, 1, 91, 55
3, 373664, Note_off_c, 1, 91, 55
3, 373696, Note_off_c, 1, 91, 55
3, 373696, Note_on_c, 1, 92, 55
3, 373728, Note_off_c, 1, 92, 55
3, 373760, Note_off_c, 1, 92, 55
3, 373760, Note_on_c, 1, 94, 55
3, 373824, Note_off_c, 1, 94, 55
3, 373888, Note_off_c, 1, 94, 55
3, 373888, Note_on_c, 1, 94, 55
3, 373952, Note_off_c, 1, 94, 55
3, 374016, Note_off_c, 1, 94, 55
3, 374016, Note_on_c, 1, 94, 55
3, 374080, Note_off_c, 1, 94, 55
3, 374144, Note_off_c, 1, 94, 55
3, 374144, Note_on_c, 1, 91, 55
3, 374176, Note_off_c, 1, 91, 55
3, 374208, Note_off_c, 1, 91, 55
3, 374208, Note_on_c, 1, 92, 55
3, 374240, Note_off_c, 1, 92, 55
3, 374272, Note_off_c, 1, 92, 55
3, 374272, Note_on_c, 1, 94, 55
3, 374336, Note_off_c, 1, 94, 55
3, 374400, Note_off_c, 1, 94, 55
3, 374400, Note_on_c, 1, 94, 55
3, 374464, Note_off_c, 1, 94, 55
3, 374528, Note_off_c, 1, 94, 55
3, 374528, Note_on_c, 1, 94, 55
3, 374592, Note_off_c, 1, 94, 55
3, 374656, Note_off_c, 1, 94, 55
3, 374656, Note_on_c, 1, 91, 55
3, 374688, Note_off_c, 1, 91, 55
3, 374720, Note_off_c, 1, 91, 55
3, 374720, Note_on_c, 1, 92, 55
3, 374752, Note_off_c, 1, 92, 55
3, 374784, Note_off_c, 1, 92, 55
3, 374784, Note_on_c, 1, 94, 55
3, 374848, Note_off_c, 1, 94, 55
3, 374912, Note_off_c, 1, 94, 55
3, 374912, Note_on_c, 1, 94, 55
3, 374976, Note_off_c, 1, 94, 55
3, 375040, Note_off_c, 1, 94, 55
3, 375808, Control_c, 1, 93, 0
3, 376832, Control_c, 1, 93, 0
3, 377088, Control_c, 1, 93, 0
3, 377088, Note_on_c, 1, 77, 67
3, 377344, Note_off_c, 1, 77, 67
3, 377856, Control_c, 1, 93, 0
3, 378880, Control_c, 1, 93, 0
3, 379904, Control_c, 1, 93, 0
3, 380928, Control_c, 1, 93, 0
3, 381952, Control_c, 1, 93, 0
3, 382976, Control_c, 1, 93, 0
3, 384000, Control_c, 1, 93, 0
3, 385024, Control_c, 1, 93, 0
3, 385792, Control_c, 1, 93, 0
3, 385792, Note_on_c, 1, 91, 55
3, 385856, Note_off_c, 1, 91, 55
3, 385920, Note_off_c, 1, 91, 55
3, 385920, Note_on_c, 1, 91, 55
3, 385952, Note_off_c, 1, 91, 55
3, 385984, Note_off_c, 1, 91, 55
3, 385984, Note_on_c, 1, 92, 55
3, 386016, Note_off_c, 1, 92, 55
3, 386048, Note_off_c, 1, 92, 55
3, 386048, Note_on_c, 1, 94, 55
3, 386112, Note_off_c, 1, 94, 55
3, 386176, Note_off_c, 1, 94, 55
3, 386176, Note_on_c, 1, 94, 55
3, 386240, Note_off_c, 1, 94, 55
3, 386304, Note_off_c, 1, 94, 55
3, 386304, Note_on_c, 1, 94, 55
3, 386368, Note_off_c, 1, 94, 55
3, 386432, Note_off_c, 1, 94, 55
3, 386432, Note_on_c, 1, 91, 55
3, 386464, Note_off_c, 1, 91, 55
3, 386496, Note_off_c, 1, 91, 55
3, 386496, Note_on_c, 1, 92, 55
3, 386528, Note_off_c, 1, 92, 55
3, 386560, Note_off_c, 1, 92, 55
3, 386560, Note_on_c, 1, 94, 55
3, 386624, Note_off_c, 1, 94, 55
3, 386688, Note_off_c, 1, 94, 55
3, 386688, Note_on_c, 1, 94, 55
3, 386752, Note_off_c, 1, 94, 55
3, 386816, Note_off_c, 1, 94, 55
3, 386816, Note_on_c, 1, 94, 55
3, 386880, Note_off_c, 1, 94, 55
3, 386944, Note_off_c, 1, 94, 55
3, 386944, Note_on_c, 1, 91, 55
3, 386976, Note_off_c, 1, 91, 55
3, 387008, Note_off_c, 1, 91, 55
3, 387008, Note_on_c, 1, 92, 55
3, 387040, Note_off_c, 1, 92, 55
3, 387072, Note_off_c, 1, 92, 55
3, 387072, Note_on_c, 1, 94, 55
3, 387136, Note_off_c, 1, 94, 55
3, 387200, Note_off_c, 1, 94, 55
3, 387200, Note_on_c, 1, 94, 55
3, 387264, Note_off_c, 1, 94, 55
3, 387328, Note_off_c, 1, 94, 55
3, 388096, Control_c, 1, 93, 0
3, 389120, Control_c, 1, 93, 0
3, 389376, Control_c, 1, 93, 0
3, 389376, Note_on_c, 1, 77, 67
3, 389632, Note_off_c, 1, 77, 67
3, 390144, Control_c, 1, 93, 0
3, 391168, Control_c, 1, 93, 0
3, 392192, Control_c, 1, 93, 0
3, 393216, Control_c, 1, 93, 0
3, 394240, Control_c, 1, 93, 0
3, 395264, Control_c, 1, 93, 0
3, 396288, Control_c, 1, 93, 0
3, 397312, Control_c, 1, 93, 0
3, 398080, Control_c, 1, 93, 0
3, 398080, Note_on_c, 1, 91, 55
3, 398144, Note_off_c, 1, 91, 55
3, 398208, Note_off_c, 1, 91, 55
3, 398208, Note_on_c, 1, 91, 55
3, 398240, Note_off_c, 1, 91, 55
3, 398272, Note_off_c, 1, 91, 55
3, 398272, Note_on_c, 1, 92, 55
3, 398304, Note_off_c, 1, 92, 55
3, 398336, Note_off_c, 1, 92, 55
3, 398336, Note_on_c, 1, 94, 55
3, 398400, Note_off_c, 1, 94, 55
3, 398464, Note_off_c, 1, 94, 55
3, 398464, Note_on_c, 1, 94, 55
3, 398528, Note_off_c, 1, 94, 55
3, 398592, Note_off_c, 1, 94, 55
3, 398592, Note_on_c, 1, 94, 55
3, 398656, Note_off_c, 1, 94, 55
3, 398720, Note_off_c, 1, 94, 55
3, 398720, Note_on_c, 1, 91, 55
3, 398752, Note_off_c, 1, 91, 55
3, 398784, Note_off_c, 1, 91, 55
3, 398784, Note_on_c, 1, 92, 55
3, 398816, Note_off_c, 1, 92, 55
3, 398848, Note_off_c, 1, 92, 55
3, 398848, Note_on_c, 1, 94, 55
3, 398912, Note_off_c, 1, 94, 55
3, 398976, Note_off_c, 1, 94, 55
3, 398976, Note_on_c, 1, 94, 55
3, 399040, Note_off_c, 1, 94, 55
3, 399104, Note_off_c, 1, 94, 55
3, 399104, Note_on_c, 1, 94, 55
3, 399168, Note_off_c, 1, 94, 55
3, 399232, Note_off_c, 1, 94, 55
3, 399232, Note_on_c, 1, 91, 55
3, 399264, Note_off_c, 1, 91, 55
3, 399296, Note_off_c, 1, 91, 55
3, 399296, Note_on_c, 1, 92, 55
3, 399328, Note_off_c, 1, 92, 55
3, 399360, Note_off_c, 1, 92, 55
3, 399360, Note_on_c, 1, 94, 55
3, 399424, Note_off_c, 1, 94, 55
3, 399488, Note_off_c, 1, 94, 55
3, 399488, Note_on_c, 1, 94, 55
3, 399552, Note_off_c, 1, 94, 55
3, 399616, Note_off_c, 1, 94, 55
3, 400384, Control_c, 1, 93, 0
3, 401408, Control_c, 1, 93, 0
3, 401664, Control_c, 1, 93, 0
3, 401664, Note_on_c, 1, 77, 67
3, 401920, Note_off_c, 1, 77, 67
3, 402432, Control_c, 1, 93, 0
3, 403456, Control_c, 1, 93, 0
3, 404480, Control_c, 1, 93, 0
3, 405504, Control_c, 1, 93, 0
3, 406528, Control_c, 1, 93, 0
3, 407552, Control_c, 1, 93, 0
3, 408576, Control_c, 1, 93, 0
3, 409600, Control_c, 1, 93, 0
3, 410368, Control_c, 1, 93, 0
3, 410368, Note_on_c, 1, 91, 55
3, 410432, Note_off_c, 1, 91, 55
3, 410496, Note_off_c, 1, 91, 55
3, 410496, Note_on_c, 1, 91, 55
3, 410528, Note_off_c, 1, 91, 55
3, 410560, Note_off_c, 1, 91, 55
3, 410560, Note_on_c, 1, 92, 55
3, 410592, Note_off_c, 1, 92, 55
3, 410624, Note_off_c, 1, 92, 55
3, 410624, Note_on_c, 1, 94, 55
3, 410688, Note_off_c, 1, 94, 55
3, 410752, Note_off_c, 1, 94, 55
3, 410752, Note_on_c, 1, 94, 55
3, 410816, Note_off_c, 1, 94, 55
3, 410880, Note_off_c, 1, 94, 55
3, 410880, Note_on_c, 1, 94, 55
3, 410944, Note_off_c, 1, 94, 55
3, 411008, Note_off_c, 1, 94, 55
3, 411008, Note_on_c, 1, 91, 55
3, 411040, Note_off_c, 1, 91, 55
3, 411072, Note_off_c, 1, 91, 55
3, 411072, Note_on_c, 1, 92, 55
3, 411104, Note_off_c, 1, 92, 55
3, 411136, Note_off_c, 1, 92, 55
3, 411136, Note_on_c, 1, 94, 55
3, 411200, Note_off_c, 1, 94, 55
3, 411264, Note_off_c, 1, 94, 55
3, 411264, Note_on_c, 1, 94, 55
3, 411328, Note_off_c, 1, 94, 55
3, 411392, Note_off_c, 1, 94, 55
3, 411392, Note_on_c, 1, 94, 55
3, 411456, Note_off_c, 1, 94, 55
3, 411520, Note_off_c, 1, 94, 55
3, 411520, Note_on_c, 1, 91, 55
3, 411552, Note_off_c, 1, 91, 55
3, 411584, Note_off_c, 1, 91, 55
3, 411584, Note_on_c, 1, 92, 55
3, 411616, Note_off_c, 1, 92, 55
3, 411648, Note_off_c, 1, 92, 55
3, 411648, Note_on_c, 1, 94, 55
3, 411712, Note_off_c, 1, 94, 55
3, 411776, Note_off_c, 1, 94, 55
3, 411776, Note_on_c, 1, 94, 55
3, 411840, Note_off_c, 1, 94, 55
3, 411904, Note_off_c, 1, 94, 55
3, 412672, Control_c, 1, 93, 0
3, 413696, Control_c, 1, 93, 0
3, 413952, Control_c, 1, 93, 0
3, 413952, Note_on_c, 1, 77, 67
3, 414208, Note_off_c, 1, 77, 67
3, 414720, Control_c, 1, 93, 0
3, 415744, Control_c, 1, 93, 0
3, 416768, Control_c, 1, 93, 0
3, 417792, Control_c, 1, 93, 0
3, 418816, Control_c, 1, 93, 0
3, 419840, Control_c, 1, 93, 0
3, 420864, Control_c, 1, 93, 0
3, 421888, Control_c, 1, 93, 0
3, 422656, Control_c, 1, 93, 0
3, 422656, Note_on_c, 1, 91, 55
3, 422720, Note_off_c, 1, 91, 55
3, 422784, Note_off_c, 1, 91, 55
3, 422784, Note_on_c, 1, 91, 55
3, 422816, Note_off_c, 1, 91, 55
3, 422848, Note_off_c, 1, 91, 55
3, 422848, Note_on_c, 1, 92, 55
3, 422880, Note_off_c, 1, 92, 55
3, 422912, Note_off_c, 1, 92, 55
3, 422912, Note_on_c, 1, 94, 55
3, 422976, Note_off_c, 1, 94, 55
3, 423040, Note_off_c, 1, 94, 55
3, 423040, Note_on_c, 1, 94, 55
3, 423104, Note_off_c, 1, 94, 55
3, 423168, Note_off_c, 1, 94, 55
3, 423168, Note_on_c, 1, 94, 55
3, 423232, Note_off_c, 1, 94, 55
3, 423296, Note_off_c, 1, 94, 55
3, 423296, Note_on_c, 1, 91, 55
3, 423328, Note_off_c, 1, 91, 55
3, 423360, Note_off_c, 1, 91, 55
3, 423360, Note_on_c, 1, 92, 55
3, 423392, Note_off_c, 1, 92, 55
3, 423424, Note_off_c, 1, 92, 55
3, 423424, Note_on_c, 1, 94, 55
3, 423488, Note_off_c, 1, 94, 55
3, 423552, Note_off_c, 1, 94, 55
3, 423552, Note_on_c, 1, 94, 55
3, 423616, Note_off_c, 1, 94, 55
3, 423680, Note_off_c, 1, 94, 55
3, 423680, Note_on_c, 1, 94, 55
3, 423744, Note_off_c, 1, 94, 55
3, 423808, Note_off_c, 1, 94, 55
3, 423808, Note_on_c, 1, 91, 55
3, 423840, Note_off_c, 1, 91, 55
3, 423872, Note_off_c, 1, 91, 55
3, 423872, Note_on_c, 1, 92, 55
3, 423904, Note_off_c, 1, 92, 55
3, 423936, Note_off_c, 1, 92, 55
3, 423936, Note_on_c, 1, 94, 55
3, 424000, Note_off_c, 1, 94, 55
3, 424064, Note_off_c, 1, 94, 55
3, 424064, Note_on_c, 1, 94, 55
3, 424128, Note_off_c, 1, 94, 55
3, 424192, Note_off_c, 1, 94, 55
3, 424960, Control_c, 1, 93, 0
3, 425984, Control_c, 1, 93, 0
3, 426240, Control_c, 1, 93, 0
3, 426240, Note_on_c, 1, 77, 67
3, 426496, Note_off_c, 1, 77, 67
3, 427008, Control_c, 1, 93, 0
3, 428032, Control_c, 1, 93, 0
3, 429056, Control_c, 1, 93, 0
3, 430080, Control_c, 1, 93, 0
3, 431104, Control_c, 1, 93, 0
3, 432128, Control_c, 1, 93, 0
3, 433152, Control_c, 1, 93, 0
3, 434176, Control_c, 1, 93, 0
3, 434944, Control_c, 1, 93, 0
3, 434944, Note_on_c, 1, 91, 55
3, 435008, Note_off_c, 1, 91, 55
3, 435072, Note_off_c, 1, 91, 55
3, 435072, Note_on_c, 1, 91, 55
3, 435104, Note_off_c, 1, 91, 55
3, 435136, Note_off_c, 1, 91, 55
3, 435136, Note_on_c, 1, 92, 55
3, 435168, Note_off_c, 1, 92, 55
3, 435200, Note_off_c, 1, 92, 55
3, 435200, Note_on_c, 1, 94, 55
3, 435264, Note_off_c, 1, 94, 55
3, 435328, Note_off_c, 1, 94, 55
3, 435328, Note_on_c, 1, 94, 55
3, 435392, Note_off_c, 1, 94, 55
3, 435456, Note_off_c, 1, 94, 55
3, 435456, Note_on_c, 1, 94, 55
3, 435520, Note_off_c, 1, 94, 55
3, 435584, Note_off_c, 1, 94, 55
3, 435584, Note_on_c, 1, 91, 55
3, 435616, Note_off_c, 1, 91, 55
3, 435648, Note_off_c, 1, 91, 55
3, 435648, Note_on_c, 1, 92, 55
3, 435680, Note_off_c, 1, 92, 55
3, 435712, Note_off_c, 1, 92, 55
3, 435712, Note_on_c, 1, 94, 55
3, 435776, Note_off_c, 1, 94, 55
3, 435840, Note_off_c, 1, 94, 55
3, 435840, Note_on_c, 1, 94, 55
3, 435904, Note_off_c, 1, 94, 55
3, 435968, Note_off_c, 1, 94, 55
3, 435968, Note_on_c, 1, 94, 55
3, 436032, Note_off_c, 1, 94, 55
3, 436096, Note_off_c, 1, 94, 55
3, 436096, Note_on_c, 1, 91, 55
3, 436128, Note_off_c, 1, 91, 55
3, 436160, Note_off_c, 1, 91, 55
3, 436160, Note_on_c, 1, 92, 55
3, 436192, Note_off_c, 1, 92, 55
3, 436224, Note_off_c, 1, 92, 55
3, 436224, Note_on_c, 1, 94, 55
3, 436288, Note_off_c, 1, 94, 55
3, 436352, Note_off_c, 1, 94, 55
3, 436352, Note_on_c, 1, 94, 55
3, 436416, Note_off_c, 1, 94, 55
3, 436480, Note_off_c, 1, 94, 55
3, 437248, Control_c, 1, 93, 0
3, 438272, Control_c, 1, 93, 0
3, 438528, Control_c, 1, 93, 0
3, 438528, Note_on_c, 1, 77, 67
3, 438784, Note_off_c, 1, 77, 67
3, 439296, Control_c, 1, 93, 0
3, 440320, Control_c, 1, 93, 0
3, 441344, Control_c, 1, 93, 0
3, 442368, Control_c, 1, 93, 0
3, 443392, Control_c, 1, 93, 0
3, 444416, Control_c, 1, 93, 0
3, 445440, Control_c, 1, 93, 0
3, 446464, Control_c, 1, 93, 0
3, 447232, Control_c, 1, 93, 0
3, 447232, Note_on_c, 1, 91, 55
3, 447296, Note_off_c, 1, 91, 55
3, 447360, Note_off_c, 1, 91, 55
3, 447360, Note_on_c, 1, 91, 55
3, 447392, Note_off_c, 1, 91, 55
3, 447424, Note_off_c, 1, 91, 55
3, 447424, Note_on_c, 1, 92, 55
3, 447456, Note_off_c, 1, 92, 55
3, 447488, Note_off_c, 1, 92, 55
3, 447488, Note_on_c, 1, 94, 55
3, 447552, Note_off_c, 1, 94, 55
3, 447616, Note_off_c, 1, 94, 55
3, 447616, Note_on_c, 1, 94, 55
3, 447680, Note_off_c, 1, 94, 55
3, 447744, Note_off_c, 1, 94, 55
3, 447744, Note_on_c, 1, 94, 55
3, 447808, Note_off_c, 1, 94, 55
3, 447872, Note_off_c, 1, 94, 55
3, 447872, Note_on_c, 1, 91, 55
3, 447904, Note_off_c, 1, 91, 55
3, 447936, Note_off_c, 1, 91, 55
3, 447936, Note_on_c, 1, 92, 55
3, 447968, Note_off_c, 1, 92, 55
3, 448000, Note_off_c, 1, 92, 55
3, 448000, Note_on_c, 1, 94, 55
3, 448064, Note_off_c, 1, 94, 55
3, 448128, Note_off_c, 1, 94, 55
3, 448128, Note_on_c, 1, 94, 55
3, 448192, Note_off_c, 1, 94, 55
3, 448256, Note_off_c, 1, 94, 55
3, 448256, Note_on_c, 1, 94, 55
3, 448320, Note_off_c, 1, 94, 55
3, 448384, Note_off_c, 1, 94, 55
3, 448384, Note_on_c, 1, 91, 55
3, 448416, Note_off_c, 1, 91, 55
3, 448448, Note_off_c, 1, 91, 55
3, 448448, Note_on_c, 1, 92, 55
3, 448480, Note_off_c, 1, 92, 55
3, 448512, Note_off_c, 1, 92, 55
3, 448512, Note_on_c, 1, 94, 55
3, 448576, Note_off_c, 1, 94, 55
3, 448640, Note_off_c, 1, 94, 55
3, 448640, Note_on_c, 1, 94, 55
3, 448704, Note_off_c, 1, 94, 55
3, 448768, Note_off_c, 1, 94, 55
3, 449536, Control_c, 1, 93, 0
3, 450560, Control_c, 1, 93, 0
3, 450816, Control_c, 1, 93, 0
3, 450816, Note_on_c, 1, 77, 67
3, 451072, Note_off_c, 1, 77, 67
3, 451584, Control_c, 1, 93, 0
3, 452608, Control_c, 1, 93, 0
3, 453632, Control_c, 1, 93, 0
3, 454656, Control_c, 1, 93, 0
3, 455680, Control_c, 1, 93, 0
3, 456704, Control_c, 1, 93, 0
3, 457728, Control_c, 1, 93, 0
3, 458752, Control_c, 1, 93, 0
3, 459520, Control_c, 1, 93, 0
3, 459520, Note_on_c, 1, 91, 55
3, 459584, Note_off_c, 1, 91, 55
3, 459648, Note_off_c, 1, 91, 55
3, 459648, Note_on_c, 1, 91, 55
3, 459680, Note_off_c, 1, 91, 55
3, 459712, Note_off_c, 1, 91, 55
3, 459712, Note_on_c, 1, 92, 55
3, 459744, Note_off_c, 1, 92, 55
3, 459776, Note_off_c, 1, 92, 55
3, 459776, Note_on_c, 1, 94, 55
3, 459840, Note_off_c, 1, 94, 55
3, 459904, Note_off_c, 1, 94, 55
3, 459904, Note_on_c, 1, 94, 55
3, 459968, Note_off_c, 1, 94, 55
3, 460032, Note_off_c, 1, 94, 55
3, 460032, Note_on_c, 1, 94, 55
3, 460096, Note_off_c, 1, 94, 55
3, 460160, Note_off_c, 1, 94, 55
3, 460160, Note_on_c, 1, 91, 55
3, 460192, Note_off_c, 1, 91, 55
3, 460224, Note_off_c, 1, 91, 55
3, 460224, Note_on_c, 1, 92, 55
3, 460256, Note_off_c, 1, 92, 55
3, 460288, Note_off_c, 1, 92, 55
3, 460288, Note_on_c, 1, 94, 55
3, 460352, Note_off_c, 1, 94, 55
3, 460416, Note_off_c, 1, 94, 55
3, 460416, Note_on_c, 1, 94, 55
3, 460480, Note_off_c, 1, 94, 55
3, 460544, Note_off_c, 1, 94, 55
3, 460544, Note_on_c, 1, 94, 55
3, 460608, Note_off_c, 1, 94, 55
3, 460672, Note_off_c, 1, 94, 55
3, 460672, Note_on_c, 1, 91, 55
3, 460704, Note_off_c, 1, 91, 55
3, 460736, Note_off_c, 1, 91, 55
3, 460736, Note_on_c, 1, 92, 55
3, 460768, Note_off_c, 1, 92, 55
3, 460800, Note_off_c, 1, 92, 55
3, 460800, Note_on_c, 1, 94, 55
3, 460864, Note_off_c, 1, 94, 55
3, 460928, Note_off_c, 1, 94, 55
3, 460928, Note_on_c, 1, 94, 55
3, 460992, Note_off_c, 1, 94, 55
3, 461056, Note_off_c, 1, 94, 55
3, 461824, Control_c, 1, 93, 0
3, 462848, Control_c, 1, 93, 0
3, 463104, Control_c, 1, 93, 0
3, 463104, Note_on_c, 1, 77, 67
3, 463360, Note_off_c, 1, 77, 67
3, 463872, Control_c, 1, 93, 0
3, 464896, Control_c, 1, 93, 0
3, 465920, Control_c, 1, 93, 0
3, 466944, Control_c, 1, 93, 0
3, 467968, Control_c, 1, 93, 0
3, 468992, Control_c, 1, 93, 0
3, 470016, Control_c, 1, 93, 0
3, 471040, Control_c, 1, 93, 0
3, 471808, Control_c, 1, 93, 0
3, 471808, Note_on_c, 1, 91, 55
3, 471872, Note_off_c, 1, 91, 55
3, 471936, Note_off_c, 1, 91, 55
3, 471936, Note_on_c, 1, 91, 55
3, 471968, Note_off_c, 1, 91, 55
3, 472000, Note_off_c, 1, 91, 55
3, 472000, Note_on_c, 1, 92, 55
3, 472032, Note_off_c, 1, 92, 55
3, 472064, Note_off_c, 1, 92, 55
3, 472064, Note_on_c, 1, 94, 55
3, 472128, Note_off_c, 1, 94, 55
3, 472192, Note_off_c, 1, 94, 55
3, 472192, Note_on_c, 1, 94, 55
3, 472256, Note_off_c, 1, 94, 55
3, 472320, Note_off_c, 1, 94, 55
3, 472320, Note_on_c, 1, 94, 55
3, 472384, Note_off_c, 1, 94, 55
3, 472448, Note_off_c, 1, 94, 55
3, 472448, Note_on_c, 1, 91, 55
3, 472480, Note_off_c, 1, 91, 55
3, 472512, Note_off_c, 1, 91, 55
3, 472512, Note_on_c, 1, 92, 55
3, 472544, Note_off_c, 1, 92, 55
3, 472576, Note_off_c, 1, 92, 55
3, 472576, Note_on_c, 1, 94, 55
3, 472640, Note_off_c, 1, 94, 55
3, 472704, Note_off_c, 1, 94, 55
3, 472704, Note_on_c, 1, 94, 55
3, 472768, Note_off_c, 1, 94, 55
3, 472832, Note_off_c, 1, 94, 55
3, 472832, Note_on_c, 1, 94, 55
3, 472896, Note_off_c, 1, 94, 55
3, 472960, Note_off_c, 1, 94, 55
3, 472960, Note_on_c, 1, 91, 55
3, 472992, Note_off_c, 1, 91, 55
3, 473024, Note_off_c, 1, 91, 55
3, 473024, Note_on_c, 1, 92, 55
3, 473056, Note_off_c, 1, 92, 55
3, 473088, Note_off_c, 1, 92, 55
3, 473088, Note_on_c, 1, 94, 55
3, 473152, Note_off_c, 1, 94, 55
3, 473216, Note_off_c, 1, 94, 55
3, 473216, Note_on_c, 1, 94, 55
3, 473280, Note_off_c, 1, 94, 55
3, 473344, Note_off_c, 1, 94, 55
3, 474112, Control_c, 1, 93, 0
3, 475136, Control_c, 1, 93, 0
3, 475392, Control_c, 1, 93, 0
3, 475392, Note_on_c, 1, 77, 67
3, 475648, Note_off_c, 1, 77, 67
3, 476160, Control_c, 1, 93, 0
3, 477184, Control_c, 1, 93, 0
3, 478208, Control_c, 1, 93, 0
3, 479232, Control_c, 1, 93, 0
3, 480256, Control_c, 1, 93, 0
3, 481280, Control_c, 1, 93, 0
3, 482304, Control_c, 1, 93, 0
3, 483328, Control_c, 1, 93, 0
3, 484096, Control_c, 1, 93, 0
3, 484096, Note_on_c, 1, 91, 55
3, 484160, Note_off_c, 1, 91, 55
3, 484224, Note_off_c, 1, 91, 55
3, 484224, Note_on_c, 1, 91, 55
3, 484256, Note_off_c, 1, 91, 55
3, 484288, Note_off_c, 1, 91, 55
3, 484288, Note_on_c, 1, 92, 55
3, 484320, Note_off_c, 1, 92, 55
3, 484352, Note_off_c, 1, 92, 55
3, 484352, Note_on_c, 1, 94, 55
3, 484416, Note_off_c, 1, 94, 55
3, 484480, Note_off_c, 1, 94, 55
3, 484480, Note_on_c, 1, 94, 55
3, 484544, Note_off_c, 1, 94, 55
3, 484608, Note_off_c, 1, 94, 55
3, 484608, Note_on_c, 1, 94, 55
3, 484672, Note_off_c, 1, 94, 55
3, 484736, Note_off_c, 1, 94, 55
3, 484736, Note_on_c, 1, 91, 55
3, 484768, Note_off_c, 1, 91, 55
3, 484800, Note_off_c, 1, 91, 55
3, 484800, Note_on_c, 1, 92, 55
3, 484832, Note_off_c, 1, 92, 55
3, 484864, Note_off_c, 1, 92, 55
3, 484864, Note_on_c, 1, 94, 55
3, 484928, Note_off_c, 1, 94, 55
3, 484992, Note_off_c, 1, 94, 55
3, 484992, Note_on_c, 1, 94, 55
3, 485056, Note_off_c, 1, 94, 55
3, 485120, Note_off_c, 1, 94, 55
3, 485120, Note_on_c, 1, 94, 55
3, 485184, Note_off_c, 1, 94, 55
3, 485248, Note_off_c, 1, 94, 55
3, 485248, Note_on_c, 1, 91, 55
3, 485280, Note_off_c, 1, 91, 55
3, 485312, Note_off_c, 1, 91, 55
3, 485312, Note_on_c, 1, 92, 55
3, 485344, Note_off_c, 1, 92, 55
3, 485376, Note_off_c, 1, 92, 55
3, 485376, Note_on_c, 1, 94, 55
3, 485440, Note_off_c, 1, 94, 55
3, 485504, Note_off_c, 1, 94, 55
3, 485504, Note_on_c, 1, 94, 55
3, 485568, Note_off_c, 1, 94, 55
3, 485632, Note_off_c, 1, 94, 55
3, 486400, Control_c, 1, 93, 0
3, 487424, Control_c, 1, 93, 0
3, 487680, Control_c, 1, 93, 0
3, 487680, Note_on_c, 1, 77, 67
3, 487936, Note_off_c, 1, 77, 67
3, 488448, Control_c, 1, 93, 0
3, 489472, Control_c, 1, 93, 0
3, 490496, Control_c, 1, 93, 0
3, 491520, Control_c, 1, 93, 0
3, 492544, Control_c, 1, 93, 0
3, 493568, Control_c, 1, 93, 0
3, 494592, Control_c, 1, 93, 0
3, 495616, Control_c, 1, 93, 0
3, 496384, Control_c, 1, 93, 0
3, 496384, Note_on_c, 1, 91, 55
3, 496448, Note_off_c, 1, 91, 55
3, 496512, Note_off_c, 1, 91, 55
3, 496512, Note_on_c, 1, 91, 55
3, 496544, Note_off_c, 1, 91, 55
3, 496576, Note_off_c, 1, 91, 55
3, 496576, Note_on_c, 1, 92, 55
3, 496608, Note_off_c, 1, 92, 55
3, 496640, Note_off_c, 1, 92, 55
3, 496640, Note_on_c, 1, 94, 55
3, 496704, Note_off_c, 1, 94, 55
3, 496768, Note_off_c, 1, 94, 55
3, 496768, Note_on_c, 1, 94, 55
3, 496832, Note_off_c, 1, 94, 55
3, 496896, Note_off_c, 1, 94, 55
3, 496896, Note_on_c, 1, 94, 55
3, 496960, Note_off_c, 1, 94, 55
3, 497024, Note_off_c, 1, 94, 55
3, 497024, Note_on_c, 1, 91, 55
3, 497056, Note_off_c, 1, 91, 55
3, 497088, Note_off_c, 1, 91, 55
3, 497088, Note_on_c, 1, 92, 55
3, 497120, Note_off_c, 1, 92, 55
3, 497152, Note_off_c, 1, 92, 55
3, 497152, Note_on_c, 1, 94, 55
3, 497216, Note_off_c, 1, 94, 55
3, 497280, Note_off_c, 1, 94, 55
3, 497280, Note_on_c, 1, 94, 55
3, 497344, Note_off_c, 1, 94, 55
3, 497408, Note_off_c, 1, 94, 55
3, 497408, Note_on_c, 1, 94, 55
3, 497472, Note_off_c, 1, 94, 55
3, 497536, Note_off_c, 1, 94, 55
3, 497536, Note_on_c, 1, 91, 55
3, 497568, Note_off_c, 1, 91, 55
3, 497600, Note_off_c, 1, 91, 55
3, 497600, Note_on_c, 1, 92, 55
3, 497632, Note_off_c, 1, 92, 55
3, 497664, Note_off_c, 1, 92, 55
3, 497664, Note_on_c, 1, 94, 55
3, 497728, Note_off_c, 1, 94, 55
3, 497792, Note_off_c, 1, 94, 55
3, 497792, Note_on_c, 1, 94, 55
3, 497856, Note_off_c, 1, 94, 55
3, 497920, Note_off_c, 1, 94, 55
3, 498688, Control_c, 1, 93, 0
3, 499712, Control_c, 1, 93, 0
3, 499968, Control_c, 1, 93, 0
3, 499968, Note_on_c, 1, 77, 67
3, 500224, Note_off_c, 1, 77, 67
3, 500736, Control_c, 1, 93, 0
3, 501760, Control_c, 1, 93, 0
3, 502784, Control_c, 1, 93, 0
3, 503808, Control_c, 1, 93, 0
3, 504832, Control_c, 1, 93, 0
3, 505856, Control_c, 1, 93, 0
3, 506880, Control_c, 1, 93, 0
3, 507904, Control_c, 1, 93, 0
3, 508672, Control_c, 1, 93, 0
3, 508672, Note_on_c, 1, 91, 55
3, 508736, Note_off_c, 1, 91, 55
3, 508800, Note_off_c, 1, 91, 55
3, 508800, Note_on_c, 1, 91, 55
3, 508832, Note_off_c, 1, 91, 55
3, 508864, Note_off_c, 1, 91, 55
3, 508864, Note_on_c, 1, 92, 55
3, 508896, Note_off_c, 1, 92, 55
3, 508928, Note_off_c, 1, 92, 55
3, 508928, Note_on_c, 1, 94, 55
3, 508992, Note_off_c, 1, 94, 55
3, 509056, Note_off_c, 1, 94, 55
3, 509056, Note_on_c, 1, 94, 55
3, 509120, Note_off_c, 1, 94, 55
3, 509184, Note_off_c, 1, 94, 55
3, 509184, Note_on_c, 1, 94, 55
3, 509248, Note_off_c, 1, 94, 55
3, 509312, Note_off_c, 1, 94, 55
3, 509312, Note_on_c, 1, 91, 55
3, 509344, Note_off_c, 1, 91, 55
3, 509376, Note_off_c, 1, 91, 55
3, 509376, Note_on_c, 1, 92, 55
3, 509408, Note_off_c, 1, 92, 55
3, 509440, Note_off_c, 1, 92, 55
3, 509440, Note_on_c, 1, 94, 55
3, 509504, Note_off_c, 1, 94, 55
3, 509568, Note_off_c, 1, 94, 55
3, 509568, Note_on_c, 1, 94, 55
3, 509632, Note_off_c, 1, 94, 55
3, 509696, Note_off_c, 1, 94, 55
3, 509696, Note_on_c, 1, 94, 55
3, 509760, Note_off_c, 1, 94, 55
3, 509824, Note_off_c, 1, 94, 55
3, 509824, Note_on_c, 1, 91, 55
3, 509856, Note_off_c, 1, 91, 55
3, 509888, Note_off_c, 1, 91, 55
3, 509888, Note_on_c, 1, 92, 55
3, 509920, Note_off_c, 1, 92, 55
3, 509952, Note_off_c, 1, 92, 55
3, 509952, Note_on_c, 1, 94, 55
3, 510016, Note_off_c, 1, 94, 55
3, 510080, Note_off_c, 1, 94, 55
3, 510080, Note_on_c, 1, 94, 55
3, 510144, Note_off_c, 1, 94, 55
3, 510208, Note_off_c, 1, 94, 55
3, 510976, Control_c, 1, 93, 0
3, 512000, Control_c, 1, 93, 0
3, 512256, Control_c, 1, 93, 0
3, 512256, Note_on_c, 1, 77, 67
3, 512512, Note_off_c, 1, 77, 67
3, 513024, Control_c, 1, 93, 0
3, 514048, Control_c, 1, 93, 0
3, 515072, Control_c, 1, 93, 0
3, 516096, Control_c, 1, 93, 0
3, 517120, Control_c, 1, 93, 0
3, 518144, Control_c, 1, 93, 0
3, 519168, Control_c, 1, 93, 0
3, 520192, Control_c, 1, 93, 0
3, 520960, Control_c, 1, 93, 0
3, 520960, Note_on_c, 1, 91, 55
3, 521024, Note_off_c, 1, 91, 55
3, 521088, Note_off_c, 1, 91, 55
3, 521088, Note_on_c, 1, 91, 55
3, 521120, Note_off_c, 1, 91, 55
3, 521152, Note_off_c, 1, 91, 55
3, 521152, Note_on_c, 1, 92, 55
3, 521184, Note_off_c, 1, 92, 55
3, 521216, Note_off_c, 1, 92, 55
3, 521216, Note_on_c, 1, 94, 55
3, 521280, Note_off_c, 1, 94, 55
3, 521344, Note_off_c, 1, 94, 55
3, 521344, Note_on_c, 1, 94, 55
3, 521408, Note_off_c, 1, 94, 55
3, 521472, Note_off_c, 1, 94, 55
3, 521472, Note_on_c, 1, 94, 55
3, 521536, Note_off_c, 1, 94, 55
3, 521600, Note_off_c, 1, 94, 55
3, 521600, Note_on_c, 1, 91, 55
3, 521632, Note_off_c, 1, 91, 55
3, 521664, Note_off_c, 1, 91, 55
3, 521664, Note_on_c, 1, 92, 55
3, 521696, Note_off_c, 1, 92, 55
3, 521728, Note_off_c, 1, 92, 55
3, 521728, Note_on_c, 1, 94, 55
3, 521792, Note_off_c, 1, 94, 55
3, 521856, Note_off_c, 1, 94, 55
3, 521856, Note_on_c, 1, 94, 55
3, 521920, Note_off_c, 1, 94, 55
3, 521984, Note_off_c, 1, 94, 55
3, 521984, Note_on_c, 1, 94, 55
3, 522048, Note_off_c, 1, 94, 55
3, 522112, Note_off_c, 1, 94, 55
3, 522112, Note_on_c, 1, 91, 55
3, 522144, Note_off_c, 1, 91, 55
3, 522176, Note_off_c, 1, 91, 55
3, 522176, Note_on_c, 1, 92, 55
3, 522208, Note_off_c, 1, 92, 55
3, 522240, Note_off_c, 1, 92, 55
3, 522240, Note_on_c, 1, 94, 55
3, 522304, Note_off_c, 1, 94, 55
3, 522368, Note_off_c, 1, 94, 55
3, 522368, Note_on_c, 1, 94, 55
3, 522432, Note_off_c, 1, 94, 55
3, 522496, Note_off_c, 1, 94, 55
3, 523264, Control_c, 1, 93, 0
3, 524288, Control_c, 1, 93, 0
3, 524544, Control_c, 1, 93, 0
3, 524544, Note_on_c, 1, 77, 67
3, 524800, Note_off_c, 1, 77, 67
3, 525312, Control_c, 1, 93, 0
3, 526336, Control_c, 1, 93, 0
3, 527360, Control_c, 1, 93, 0
3, 528384, Control_c, 1, 93, 0
3, 529408, Control_c, 1, 93, 0
3, 530432, Control_c, 1, 93, 0
3, 531456, Control_c, 1, 93, 0
3, 532480, Control_c, 1, 93, 0
3, 533248, Control_c, 1, 93, 0
3, 533248, Note_on_c, 1, 91, 55
3, 533312, Note_off_c, 1, 91, 55
3, 533376, Note_off_c, 1, 91, 55
3, 533376, Note_on_c, 1, 91, 55
3, 533408, Note_off_c, 1, 91, 55
3, 533440, Note_off_c, 1, 91, 55
3, 533440, Note_on_c, 1, 92, 55
3, 533472, Note_off_c, 1, 92, 55
3, 533504, Note_off_c, 1, 92, 55
3, 533504, Note_on_c, 1, 94, 55
3, 533568, Note_off_c, 1, 94, 55
3, 533632, Note_off_c, 1, 94, 55
3, 533632, Note_on_c, 1, 94, 55
3, 533696, Note_off_c, 1, 94, 55
3, 533760, Note_off_c, 1, 94, 55
3, 533760, Note_on_c, 1, 94, 55
3, 533824, Note_off_c, 1, 94, 55
3, 533888, Note_off_c, 1, 94, 55
3, 533888, Note_on_c, 1, 91, 55
3, 533920, Note_off_c, 1, 91, 55
3, 533952, Note_off_c, 1, 91, 55
3, 533952, Note_on_c, 1, 92, 55
3, 533984, Note_off_c, 1, 92, 55
3, 534016, Note_off_c, 1, 92, 55
3, 534016, Note_on_c, 1, 94, 55
3, 534080, Note_off_c, 1, 94, 55
3, 534144, Note_off_c, 1, 94, 55
3, 534144, Note_on_c, 1, 94, 55
3, 534208, Note_off_c, 1, 94, 55
3, 534272, Note_off_c, 1, 94, 55
3, 534272, Note_on_c, 1, 94, 55
3, 534336, Note_off_c, 1, 94, 55
3, 534400, Note_off_c, 1, 94, 55
3, 534400, Note_on_c, 1, 91, 55
3, 534432, Note_off_c, 1, 91, 55
3, 534464, Note_off_c, 1, 91, 55
3, 534464, Note_on_c, 1, 92, 55
3, 534496, Note_off_c, 1, 92, 55
3, 534528, Note_off_c, 1, 92, 55
3, 534528, Note_on_c, 1, 94, 55
3, 534592, Note_off_c, 1, 94, 55
3, 534656, Note_off_c, 1, 94, 55
3, 534656, Note_on_c, 1, 94, 55
3, 534720, Note_off_c, 1, 94, 55
3, 534784, Note_off_c, 1, 94, 55
3, 535552, Control_c, 1, 93, 0
3, 536576, Control_c, 1, 93, 0
3, 536832, Control_c, 1, 93, 0
3, 536832, Note_on_c, 1, 77, 67
3, 537088, Note_off_c, 1, 77, 67
3, 537600, Control_c, 1, 93, 0
3, 538624, Control_c, 1, 93, 0
3, 539648, Control_c, 1, 93, 0
3, 540672, Control_c, 1, 93, 0
3, 541696, Control_c, 1, 93, 0
3, 542720, Control_c, 1, 93, 0
3, 543744, Control_c, 1, 93, 0
3, 544768, Control_c, 1, 93, 0
3, 545536, Control_c, 1, 93, 0
3, 545536, Note_on_c, 1, 91, 55
3, 545600, Note_off_c, 1, 91, 55
3, 545664, Note_off_c, 1, 91, 55
3, 545664, Note_on_c, 1, 91, 55
3, 545696, Note_off_c, 1, 91, 55
3, 545728, Note_off_c, 1, 91, 55
3, 545728, Note_on_c, 1, 92, 55
3, 545760, Note_off_c, 1, 92, 55
3, 545792, Note_off_c, 1, 92, 55
3, 545792, Note_on_c, 1, 94, 55
3, 545856, Note_off_c, 1, 94, 55
3, 545920, Note_off_c, 1, 94, 55
3, 545920, Note_on_c, 1, 94, 55
3, 545984, Note_off_c, 1, 94, 55
3, 546048, Note_off_c, 1, 94, 55
3, 546048, Note_on_c, 1, 94, 55
3, 546112, Note_off_c, 1, 94, 55
3, 546176, Note_off_c, 1, 94, 55
3, 546176, Note_on_c, 1, 91, 55
3, 546208, Note_off_c, 1, 91, 55
3, 546240, Note_off_c, 1, 91, 55
3, 546240, Note_on_c, 1, 92, 55
3, 546272, Note_off_c, 1, 92, 55
3, 546304, Note_off_c, 1, 92, 55
3, 546304, Note_on_c, 1, 94, 55
3, 546368, Note_off_c, 1, 94, 55
3, 546432, Note_off_c, 1, 94, 55
3, 546432, Note_on_c, 1, 94, 55
3, 546496, Note_off_c, 1, 94, 55
3, 546560, Note_off_c, 1, 94, 55
3, 546560, Note_on_c, 1, 94, 55
3, 546624, Note_off_c, 1, 94, 55
3, 546688, Note_off_c, 1, 94, 55
3, 546688, Note_on_c, 1, 91, 55
3, 546720, Note_off_c, 1, 91, 55
3, 546752, Note_off_c, 1, 91, 55
3, 546752, Note_on_c, 1, 92, 55
3, 546784, Note_off_c, 1, 92, 55
3, 546816, Note_off_c, 1, 92, 55
3, 546816, Note_on_c, 1, 94, 55
3, 546880, Note_off_c, 1, 94, 55
3, 546944, Note_off_c, 1, 94, 55
3, 546944, Note_on_c, 1, 94, 55
3, 547008, Note_off_c, 1, 94, 55
3, 547072, Note_off_c, 1, 94, 55
3, 547840, Control_c, 1, 93, 0
3, 548864, Control_c, 1, 93, 0
3, 549120, Control_c, 1, 93, 0
3, 549120, Note_on_c, 1, 77, 67
3, 549376, Note_off_c, 1, 77, 67
3, 549888, Control_c, 1, 93, 0
3, 550912, Control_c, 1, 93, 0
3, 551936, Control_c, 1, 93, 0
3, 552960, Control_c, 1, 93, 0
3, 553984, Control_c, 1, 93, 0
3, 555008, Control_c, 1, 93, 0
3, 556032, Control_c, 1, 93, 0
3, 557056, Control_c, 1, 93, 0
3, 557824, Control_c, 1, 93, 0
3, 557824, Note_on_c, 1, 91, 55
3, 557888, Note_off_c, 1, 91, 55
3, 557952, Note_off_c, 1, 91, 55
3, 557952, Note_on_c, 1, 91, 55
3, 557984, Note_off_c, 1, 91, 55
3, 558016, Note_off_c, 1, 91, 55
3, 558016, Note_on_c, 1, 92, 55
3, 558048, Note_off_c, 1, 92, 55
3, 558080, Note_off_c, 1, 92, 55
3, 558080, Note_on_c, 1, 94, 55
3, 558144, Note_off_c, 1, 94, 55
3, 558208, Note_off_c, 1, 94, 55
3, 558208, Note_on_c, 1, 94, 55
3, 558272, Note_off_c, 1, 94, 55
3, 558336, Note_off_c, 1, 94, 55
3, 558336, Note_on_c, 1, 94, 55
3, 558400, Note_off_c, 1, 94, 55
3, 558464, Note_off_c, 1, 94, 55
3, 558464, Note_on_c, 1, 91, 55
3, 558496, Note_off_c, 1, 91, 55
3, 558528, Note_off_c, 1, 91, 55
3, 558528, Note_on_c, 1, 92, 55
3, 558560, Note_off_c, 1, 92, 55
3, 558592, Note_off_c, 1, 92, 55
3, 558592, Note_on_c, 1, 94, 55
3, 558656, Note_off_c, 1, 94, 55
3, 558720, Note_off_c, 1, 94, 55
3, 558720, Note_on_c, 1, 94, 55
3, 558784, Note_off_c, 1, 94, 55
3, 558848, Note_off_c, 1, 94, 55
3, 558848, Note_on_c, 1, 94, 55
3, 558912, Note_off_c, 1, 94, 55
3, 558976, Note_off_c, 1, 94, 55
3, 558976, Note_on_c, 1, 91, 55
3, 559008, Note_off_c, 1, 91, 55
3, 559040, Note_off_c, 1, 91, 55
3, 559040, Note_on_c, 1, 92, 55
3, 559072, Note_off_c, 1, 92, 55
3, 559104, Note_off_c, 1, 92, 55
3, 559104, Note_on_c, 1, 94, 55
3, 559168, Note_off_c, 1, 94, 55
3, 559232, Note_off_c, 1, 94, 55
3, 559232, Note_on_c, 1, 94, 55
3, 559296, Note_off_c, 1, 94, 55
3, 559360, Note_off_c, 1, 94, 55
3, 560128, Control_c, 1, 93, 0
3, 561152, Control_c, 1, 93, 0
3, 561408, Control_c, 1, 93, 0
3, 561408, Note_on_c, 1, 77, 67
3, 561664, Note_off_c, 1, 77, 67
3, 562176, Control_c, 1, 93, 0
3, 563200, Control_c, 1, 93, 0
3, 564224, Control_c, 1, 93, 0
3, 565248, Control_c, 1, 93, 0
3, 566272, Control_c, 1, 93, 0
3, 567296, Control_c, 1, 93, 0
3, 568320, Control_c, 1, 93, 0
3, 569344, Control_c, 1, 93, 0
3, 570112, Control_c, 1, 93, 0
3, 570112, Note_on_c, 1, 91, 55
3, 570176, Note_off_c, 1, 91, 55
3, 570240, Note_off_c, 1, 91, 55
3, 570240, Note_on_c, 1, 91, 55
3, 570272, Note_off_c, 1, 91, 55
3, 570304, Note_off_c, 1, 91, 55
3, 570304, Note_on_c, 1, 92, 55
3, 570336, Note_off_c, 1, 92, 55
3, 570368, Note_off_c, 1, 92, 55
3, 570368, Note_on_c, 1, 94, 55
3, 570432, Note_off_c, 1, 94, 55
3, 570496, Note_off_c, 1, 94, 55
3, 570496, Note_on_c, 1, 94, 55
3, 570560, Note_off_c, 1, 94, 55
3, 570624, Note_off_c, 1, 94, 55
3, 570624, Note_on_c, 1, 94, 55
3, 570688, Note_off_c, 1, 94, 55
3, 570752, Note_off_c, 1, 94, 55
3, 570752, Note_on_c, 1, 91, 55
3, 570784, Note_off_c, 1, 91, 55
3, 570816, Note_off_c, 1, 91, 55
3, 570816, Note_on_c, 1, 92, 55
3, 570848, Note_off_c, 1, 92, 55
3, 570880, Note_off_c, 1, 92, 55
3, 570880, Note_on_c, 1, 94, 55
3, 570944, Note_off_c, 1, 94, 55
3, 571008, Note_off_c, 1, 94, 55
3, 571008, Note_on_c, 1, 94, 55
3, 571072, Note_off_c, 1, 94, 55
3, 571136, Note_off_c, 1, 94, 55
3, 571136, Note_on_c, 1, 94, 55
3, 571200, Note_off_c, 1, 94, 55
3, 571264, Note_off_c, 1, 94, 55
3, 571264, Note_on_c, 1, 91, 55
3, 571296, Note_off_c, 1, 91, 55
3, 571328, Note_off_c, 1, 91, 55
3, 571328, Note_on_c, 1, 92, 55
3, 571360, Note_off_c, 1, 92, 55
3, 571392, Note_off_c, 1, 92, 55
3, 571392, Note_on_c, 1, 94, 55
3, 571456, Note_off_c, 1, 94, 55
3, 571520, Note_off_c, 1, 94, 55
3, 571520, Note_on_c, 1, 94, 55
3, 571584, Note_off_c, 1, 94, 55
3, 571648, Note_off_c, 1, 94, 55
3, 572416, Control_c, 1, 93, 0
3, 573440, Control_c, 1, 93, 0
3, 573696, Control_c, 1, 93, 0
3, 573696, Note_on_c, 1, 77, 67
3, 573952, Note_off_c, 1, 77, 67
3, 574464, Control_c, 1, 93, 0
3, 575488, Control_c, 1, 93, 0
3, 576512, Control_c, 1, 93, 0
3, 577536, Control_c, 1, 93, 0
3, 578560, Control_c, 1, 93, 0
3, 579584, Control_c, 1, 93, 0
3, 580608, Control_c, 1, 93, 0
3, 581632, Control_c, 1, 93, 0
3, 582400, Control_c, 1, 93, 0
3, 582400, Note_on_c, 1, 91, 55
3, 582464, Note_off_c, 1, 91, 55
3, 582528, Note_off_c, 1, 91, 55
3, 582528, Note_on_c, 1, 91, 55
3, 582560, Note_off_c, 1, 91, 55
3, 582592, Note_off_c, 1, 91, 55
3, 582592, Note_on_c, 1, 92, 55
3, 582624, Note_off_c, 1, 92, 55
3, 582656, Note_off_c, 1, 92, 55
3, 582656, Note_on_c, 1, 94, 55
3, 582720, Note_off_c, 1, 94, 55
3, 582784, Note_off_c, 1, 94, 55
3, 582784, Note_on_c, 1, 94, 55
3, 582848, Note_off_c, 1, 94, 55
3, 582912, Note_off_c, 1, 94, 55
3, 582912, Note_on_c, 1, 94, 55
3, 582976, Note_off_c, 1, 94, 55
3, 583040, Note_off_c, 1, 94, 55
3, 583040, Note_on_c, 1, 91, 55
3, 583072, Note_off_c, 1, 91, 55
3, 583104, Note_off_c, 1, 91, 55
3, 583104, Note_on_c, 1, 92, 55
3, 583136, Note_off_c, 1, 92, 55
3, 583168, Note_off_c, 1, 92, 55
3, 583168, Note_on_c, 1, 94, 55
3, 583232, Note_off_c, 1, 94, 55
3, 583296, Note_off_c, 1, 94, 55
3, 583296, Note_on_c, 1, 94, 55
3, 583360, Note_off_c, 1, 94, 55
3, 583424, Note_off_c, 1, 94, 55
3, 583424, Note_on_c, 1, 94, 55
3, 583488, Note_off_c, 1, 94, 55
3, 583552, Note_off_c, 1, 94, 55
3, 583552, Note_on_c, 1, 91, 55
3, 583584, Note_off_c, 1, 91, 55
3, 583616, Note_off_c, 1, 91, 55
3, 583616, Note_on_c, 1, 92, 55
3, 583648, Note_off_c, 1, 92, 55
3, 583680, Note_off_c, 1, 92, 55
3, 583680, Note_on_c, 1, 94, 55
3, 583744, Note_off_c, 1, 94, 55
3, 583808, Note_off_c, 1, 94, 55
3, 583808, Note_on_c, 1, 94, 55
3, 583872, Note_off_c, 1, 94, 55
3, 583936, Note_off_c, 1, 94, 55
3, 584704, Control_c, 1, 93, 0
3, 585728, Control_c, 1, 93, 0
3, 585984, Control_c, 1, 93, 0
3, 585984, Note_on_c, 1, 77, 67
3, 586240, Note_off_c, 1, 77, 67
3, 586752, Control_c, 1, 93, 0
3, 587776, Control_c, 1, 93, 0
3, 588800, Control_c, 1, 93, 0
3, 589824, Control_c, 1, 93, 0
3, 590848, Control_c, 1, 93, 0
3, 591872, Control_c, 1, 93, 0
3, 592896, Control_c, 1, 93, 0
3, 593920, Control_c, 1, 93, 0
3, 594688, Control_c, 1, 93, 0
3, 594688, Note_on_c, 1, 91, 55
3, 594752, Note_off_c, 1, 91, 55
3, 594816, Note_off_c, 1, 91, 55
3, 594816, Note_on_c, 1, 91, 55
3, 594848, Note_off_c, 1, 91, 55
3, 594880, Note_off_c, 1, 91, 55
3, 594880, Note_on_c, 1, 92, 55
3, 594912, Note_off_c, 1, 92, 55
3, 594944, Note_off_c, 1, 92, 55
3, 594944, Note_on_c, 1, 94, 55
3, 595008, Note_off_c, 1, 94, 55
3, 595072, Note_off_c, 1, 94, 55
3, 595072, Note_on_c, 1, 94, 55
3, 595136, Note_off_c, 1, 94, 55
3, 595200, Note_off_c, 1, 94, 55
3, 595200, Note_on_c, 1, 94, 55
3, 595264, Note_off_c, 1, 94, 55
3, 595328, Note_off_c, 1, 94, 55
3, 595328, Note_on_c, 1, 91, 55
3, 595360, Note_off_c, 1, 91, 55
3, 595392, Note_off_c, 1, 91, 55
3, 595392, Note_on_c, 1, 92, 55
3, 595424, Note_off_c, 1, 92, 55
3, 595456, Note_off_c, 1, 92, 55
3, 595456, Note_on_c, 1, 94, 55
3, 595520, Note_off_c, 1, 94, 55
3, 595584, Note_off_c, 1, 94, 55
3, 595584, Note_on_c, 1, 94, 55
3, 595648, Note_off_c, 1, 94, 55
3, 595712, Note_off_c, 1, 94, 55
3, 595712, Note_on_c, 1, 94, 55
3, 595776, Note_off_c, 1, 94, 55
3, 595840, Note_off_c, 1, 94, 55
3, 595840, Note_on_c, 1, 91, 55
3, 595872, Note_off_c, 1, 91, 55
3, 595904, Note_off_c, 1, 91, 55
3, 595904, Note_on_c, 1, 92, 55
3, 595936, Note_off_c, 1, 92, 55
3, 595968, Note_off_c, 1, 92, 55
3, 595968, Note_on_c, 1, 94, 55
3, 596032, Note_off_c, 1, 94, 55
3, 596096, Note_off_c, 1, 94, 55
3, 596096, Note_on_c, 1, 94, 55
3, 596160, Note_off_c, 1, 94, 55
3, 596224, Note_off_c, 1, 94, 55
3, 596992, Control_c, 1, 93, 0
3, 598016, Control_c, 1, 93, 0
3, 598272, Control_c, 1, 93, 0
3, 598272, Note_on_c, 1, 77, 67
3, 598528, Note_off_c, 1, 77, 67
3, 599040, Control_c, 1, 93, 0
3, 600064, Control_c, 1, 93, 0
3, 601088, Control_c, 1, 93, 0
3, 602112, Control_c, 1, 93, 0
3, 603136, Control_c, 1, 93, 0
3, 604160, Control_c, 1, 93, 0
3, 605184, Control_c, 1, 93, 0
3, 606208, Control_c, 1, 93, 0
3, 606976, Control_c, 1, 93, 0
3, 606976, Note_on_c, 1, 91, 55
3, 607040, Note_off_c, 1, 91, 55
3, 607104, Note_off_c, 1, 91, 55
3, 607104, Note_on_c, 1, 91, 55
3, 607136, Note_off_c, 1, 91, 55
3, 607168, Note_off_c, 1, 91, 55
3, 607168, Note_on_c, 1, 92, 55
3, 607200, Note_off_c, 1, 92, 55
3, 607232, Note_off_c, 1, 92, 55
3, 607232, Note_on_c, 1, 94, 55
3, 607296, Note_off_c, 1, 94, 55
3, 607360, Note_off_c, 1, 94, 55
3, 607360, Note_on_c, 1, 94, 55
3, 607424, Note_off_c, 1, 94, 55
3, 607488, Note_off_c, 1, 94, 55
3, 607488, Note_on_c, 1, 94, 55
3, 607552, Note_off_c, 1, 94, 55
3, 607616, Note_off_c, 1, 94, 55
3, 607616, Note_on_c, 1, 91, 55
3, 607648, Note_off_c, 1, 91, 55
3, 607680, Note_off_c, 1, 91, 55
3, 607680, Note_on_c, 1, 92, 55
3, 607712, Note_off_c, 1, 92, 55
3, 607744, Note_off_c, 1, 92, 55
3, 607744, Note_on_c, 1, 94, 55
3, 607808, Note_off_c, 1, 94, 55
3, 607872, Note_off_c, 1, 94, 55
3, 607872, Note_on_c, 1, 94, 55
3, 607936, Note_off_c, 1, 94, 55
3, 608000, Note_off_c, 1, 94, 55
3, 608000, Note_on_c, 1, 94, 55
3, 608064, Note_off_c, 1, 94, 55
3, 608128, Note_off_c, 1, 94, 55
3, 608128, Note_on_c, 1, 91, 55
3, 608160, Note_off_c, 1, 91, 55
3, 608192, Note_off_c, 1, 91, 55
3, 608192, Note_on_c, 1, 92, 55
3, 608224, Note_off_c, 1, 92, 55
3, 608256, Note_off_c, 1, 92, 55
3, 608256, Note_on_c, 1, 94, 55
3, 608320, Note_off_c, 1, 94, 55
3, 608384, Note_off_c, 1, 94, 55
3, 608384, Note_on_c, 1, 94, 55
3, 608448, Note_off_c, 1, 94, 55
3, 608512, Note_off_c, 1, 94, 55
3, 609280, Control_c, 1, 93, 0
3, 610304, Control_c, 1, 93, 0
3, 610560, Control_c, 1, 93, 0
3, 610560, Note_on_c, 1, 77, 67
3, 610816, Note_off_c, 1, 77, 67
3, 611328, Control_c, 1, 93, 0
3, 612352, Control_c, 1, 93, 0
3, 613376, Control_c, 1, 93, 0
3, 614400, Control_c, 1, 93, 0
3, 615424, Control_c, 1, 93, 0
3, 616448, Control_c, 1, 93, 0
3, 617472, Control_c, 1, 93, 0
3, 618496, Control_c, 1, 93, 0
3, 619264, Control_c, 1, 93, 0
3, 619264, Note_on_c, 1, 91, 55
3, 619328, Note_off_c, 1, 91, 55
3, 619392, Note_off_c, 1, 91, 55
3, 619392, Note_on_c, 1, 91, 55
3, 619424, Note_off_c, 1, 91, 55
3, 619456, Note_off_c, 1, 91, 55
3, 619456, Note_on_c, 1, 92, 55
3, 619488, Note_off_c, 1, 92, 55
3, 619520, Note_off_c, 1, 92, 55
3, 619520, Note_on_c, 1, 94, 55
3, 619584, Note_off_c, 1, 94, 55
3, 619648, Note_off_c, 1, 94, 55
3, 619648, Note_on_c, 1, 94, 55
3, 619712, Note_off_c, 1, 94, 55
3, 619776, Note_off_c, 1, 94, 55
3, 619776, Note_on_c, 1, 94, 55
3, 619840, Note_off_c, 1, 94, 55
3, 619904, Note_off_c, 1, 94, 55
3, 619904, Note_on_c, 1, 91, 55
3, 619936, Note_off_c, 1, 91, 55
3, 619968, Note_off_c, 1, 91, 55
3, 619968, Note_on_c, 1, 92, 55
3, 620000, Note_off_c, 1, 92, 55
3, 620032, Note_off_c, 1, 92, 55
3, 620032, Note_on_c, 1, 94, 55
3, 620096, Note_off_c, 1, 94, 55
3, 620160, Note_off_c, 1, 94, 55
3, 620160, Note_on_c, 1, 94, 55
3, 620224, Note_off_c, 1, 94, 55
3, 620288, Note_off_c, 1, 94, 55
3, 620288, Note_on_c, 1, 94, 55
3, 620352, Note_off_c, 1, 94, 55
3, 620416, Note_off_c, 1, 94, 55
3, 620416, Note_on_c, 1, 91, 55
3, 620448, Note_off_c, 1, 91, 55
3, 620480, Note_off_c, 1, 91, 55
3, 620480, Note_on_c, 1, 92, 55
3, 620512, Note_off_c, 1, 92, 55
3, 620544, Note_off_c, 1, 92, 55
3, 620544, Note_on_c, 1, 94, 55
3, 620608, Note_off_c, 1, 94, 55
3, 620672, Note_off_c, 1, 94, 55
3, 620672, Note_on_c, 1, 94, 55
3, 620736, Note_off_c, 1, 94, 55
3, 620800, Note_off_c, 1, 94, 55
3, 621568, Control_c, 1, 93, 0
3, 622592, Control_c, 1, 93, 0
3, 622848, Control_c, 1, 93, 0
3, 622848, Note_on_c, 1, 77, 67
3, 623104, Note_off_c, 1, 77, 67
3, 623616, Control_c, 1, 93, 0
3, 624640, Control_c, 1, 93, 0
3, 625664, Control_c, 1, 93, 0
3, 626688, Control_c, 1, 93, 0
3, 627712, Control_c, 1, 93, 0
3, 628736, Control_c, 1, 93, 0
3, 629760, Control_c, 1, 93, 0
3, 630784, Control_c, 1, 93, 0
3, 631552, Control_c, 1, 93, 0
3, 631552, Note_on_c, 1, 91, 55
3, 631616, Note_off_c, 1, 91, 55
3, 631680, Note_off_c, 1, 91, 55
3, 631680, Note_on_c, 1, 91, 55
3, 631712, Note_off_c, 1, 91, 55
3, 631744, Note_off_c, 1, 91, 55
3, 631744, Note_on_c, 1, 92, 55
3, 631776, Note_off_c, 1, 92, 55
3, 631808, Note_off_c, 1, 92, 55
3, 631808, Note_on_c, 1, 94, 55
3, 631872, Note_off_c, 1, 94, 55
3, 631936, Note_off_c, 1, 94, 55
3, 631936, Note_on_c, 1, 94, 55
3, 632000, Note_off_c, 1, 94, 55
3, 632064, Note_off_c, 1, 94, 55
3, 632064, Note_on_c, 1, 94, 55
3, 632128, Note_off_c, 1, 94, 55
3, 632192, Note_off_c, 1, 94, 55
3, 632192, Note_on_c, 1, 91, 55
3, 632224, Note_off_c, 1, 91, 55
3, 632256, Note_off_c, 1, 91, 55
3, 632256, Note_on_c, 1, 92, 55
3, 632288, Note_off_c, 1, 92, 55
3, 632320, Note_off_c, 1, 92, 55
3, 632320, Note_on_c, 1, 94, 55
3, 632384, Note_off_c, 1, 94, 55
3, 632448, Note_off_c, 1, 94, 55
3, 632448, Note_on_c, 1, 94, 55
3, 632512, Note_off_c, 1, 94, 55
3, 632576, Note_off_c, 1, 94, 55
3, 632576, Note_on_c, 1, 94, 55
3, 632640, Note_off_c, 1, 94, 55
3, 632704, Note_off_c, 1, 94, 55
3, 632704, Note_on_c, 1, 91, 55
3, 632736, Note_off_c, 1, 91, 55
3, 632768, Note_off_c, 1, 91, 55
3, 632768, Note_on_c, 1, 92, 55
3, 632800, Note_off_c, 1, 92, 55
3, 632832, Note_off_c, 1, 92, 55
3, 632832, Note_on_c, 1, 94, 55
3, 632896, Note_off_c, 1, 94, 55
3, 632960, Note_off_c, 1, 94, 55
3, 632960, Note_on_c, 1, 94, 55
3, 633024, Note_off_c, 1, 94, 55
3, 633088, Note_off_c, 1, 94, 55
3, 633856, Control_c, 1, 93, 0
3, 634880, Control_c, 1, 93, 0
3, 635136, Control_c, 1, 93, 0
3, 635136, Note_on_c, 1, 77, 67
3, 635392, Note_off_c, 1, 77, 67
3, 635904, Control_c, 1, 93, 0
3, 636928, Control_c, 1, 93, 0
3, 637952, Control_c, 1, 93, 0
3, 638976, Control_c, 1, 93, 0
3, 640000, Control_c, 1, 93, 0
3, 641024, Control_c, 1, 93, 0
3, 642048, Control_c, 1, 93, 0
3, 643072, Control_c, 1, 93, 0
3, 643840, Control_c, 1, 93, 0
3, 643840, Note_on_c, 1, 91, 55
3, 643904, Note_off_c, 1, 91, 55
3, 643968, Note_off_c, 1, 91, 55
3, 643968, Note_on_c, 1, 91, 55
3, 644000, Note_off_c, 1, 91, 55
3, 644032, Note_off_c, 1, 91, 55
3, 644032, Note_on_c, 1, 92, 55
3, 644064, Note_off_c, 1, 92, 55
3, 644096, Note_off_c, 1, 92, 55
3, 644096, Note_on_c, 1, 94, 55
3, 644160, Note_off_c, 1, 94, 55
3, 644224, Note_off_c, 1, 94, 55
3, 644224, Note_on_c, 1, 94, 55
3, 644288, Note_off_c, 1, 94, 55
3, 644352, Note_off_c, 1, 94, 55
3, 644352, Note_on_c, 1, 94, 55
3, 644416, Note_off_c, 1, 94, 55
3, 644480, Note_off_c, 1, 94, 55
3, 644480, Note_on_c, 1, 91, 55
3, 644512, Note_off_c, 1, 91, 55
3, 644544, Note_off_c, 1, 91, 55
3, 644544, Note_on_c, 1, 92, 55
3, 644576, Note_off_c, 1, 92, 55
3, 644608, Note_off_c, 1, 92, 55
3, 644608, Note_on_c, 1, 94, 55
3, 644672, Note_off_c, 1, 94, 55
3, 644736, Note_off_c, 1, 94, 55
3, 644736, Note_on_c, 1, 94, 55
3, 644800, Note_off_c, 1, 94, 55
3, 644864, Note_off_c, 1, 94, 55
3, 644864, Note_on_c, 1, 94, 55
3, 644928, Note_off_c, 1, 94, 55
3, 644992, Note_off_c, 1, 94, 55
3, 644992, Note_on_c, 1, 91, 55
3, 645024, Note_off_c, 1, 91, 55
3, 645056, Note_off_c, 1, 91, 55
3, 645056, Note_on_c, 1, 92, 55
3, 645088, Note_off_c, 1, 92, 55
3, 645120, Note_off_c, 1, 92, 55
3, 645120, Note_on_c, 1, 94, 55
3, 645184, Note_off_c, 1, 94, 55
3, 645248, Note_off_c, 1, 94, 55
3, 645248, Note_on_c, 1, 94, 55
3, 645312, Note_off_c, 1, 94, 55
3, 645376, Note_off_c, 1, 94, 55
3, 646144, Control_c, 1, 93, 0
3, 647168, Control_c, 1, 93, 0
3, 647424, Control_c, 1, 93, 0
3, 647424, Note_on_c, 1, 77, 67
3, 647680, Note_off_c, 1, 77, 67
3, 648192, Control_c, 1, 93, 0
3, 649216, Control_c, 1, 93, 0
3, 650240, Control_c, 1, 93, 0
3, 651264, Control_c, 1, 93, 0
3, 652288, Control_c, 1, 93, 0
3, 653312, Control_c, 1, 93, 0
3, 654336, Control_c, 1, 93, 0
3, 655360, Control_c, 1, 93, 0
3, 656128, Control_c, 1, 93, 0
3, 656128, Note_on_c, 1, 91, 55
3, 656192, Note_off_c, 1, 91, 55
3, 656256, Note_off_c, 1, 91, 55
3, 656256, Note_on_c, 1, 91, 55
3, 656288, Note_off_c, 1, 91, 55
3, 656320, Note_off_c, 1, 91, 55
3, 656320, Note_on_c, 1, 92, 55
3, 656352, Note_off_c, 1, 92, 55
3, 656384, Note_off_c, 1, 92, 55
3, 656384, Note_on_c, 1, 94, 55
3, 656448, Note_off_c, 1, 94, 55
3, 656512, Note_off_c, 1, 94, 55
3, 656512, Note_on_c, 1, 94, 55
3, 656576, Note_off_c, 1, 94, 55
3, 656640, Note_off_c, 1, 94, 55
3, 656640, Note_on_c, 1, 94, 55
3, 656704, Note_off_c, 1, 94, 55
3, 656768, Note_off_c, 1, 94, 55
3, 656768, Note_on_c, 1, 91, 55
3, 656800, Note_off_c, 1, 91, 55
3, 656832, Note_off_c, 1, 91, 55
3, 656832, Note_on_c, 1, 92, 55
3, 656864, Note_off_c, 1, 92, 55
3, 656896, Note_off_c, 1, 92, 55
3, 656896, Note_on_c, 1, 94, 55
3, 656960, Note_off_c, 1, 94, 55
3, 657024, Note_off_c, 1, 94, 55
3, 657024, Note_on_c, 1, 94, 55
3, 657088, Note_off_c, 1, 94, 55
3, 657152, Note_off_c, 1, 94, 55
3, 657152, Note_on_c, 1, 94, 55
3, 657216, Note_off_c, 1, 94, 55
3, 657280, Note_off_c, 1, 94, 55
3, 657280, Note_on_c, 1, 91, 55
3, 657312, Note_off_c, 1, 91, 55
3, 657344, Note_off_c, 1, 91, 55
3, 657344, Note_on_c, 1, 92, 55
3, 657376, Note_off_c, 1, 92, 55
3, 657408, Note_off_c, 1, 92, 55
3, 657408, Note_on_c, 1, 94, 55
3, 657472, Note_off_c, 1, 94, 55
3, 657536, Note_off_c, 1, 94, 55
3, 657536, Note_on_c, 1, 94, 55
3, 657600, Note_off_c, 1, 94, 55
3, 657664, Note_off_c, 1, 94, 55
3, 658432, Control_c, 1, 93, 0
3, 659456, Control_c, 1, 93, 0
3, 659712, Control_c, 1, 93, 0
3, 659712, Note_on_c, 1, 77, 67
3, 659968, Note_off_c, 1, 77, 67
3, 660480, Control_c, 1, 93, 0
3, 661504, Control_c, 1, 93, 0
3, 662528, Control_c, 1, 93, 0
3, 663552, Control_c, 1, 93, 0
3, 664576, Control_c, 1, 93, 0
3, 665600, Control_c, 1, 93, 0
3, 666624, Control_c, 1, 93, 0
3, 667648, Control_c, 1, 93, 0
3, 668416, Control_c, 1, 93, 0
3, 668416, Note_on_c, 1, 91, 55
3, 668480, Note_off_c, 1, 91, 55
3, 668544, Note_off_c, 1, 91, 55
3, 668544, Note_on_c, 1, 91, 55
3, 668576, Note_off_c, 1, 91, 55
3, 668608, Note_off_c, 1, 91, 55
3, 668608, Note_on_c, 1, 92, 55
3, 668640, Note_off_c, 1, 92, 55
3, 668672, Note_off_c, 1, 92, 55
3, 668672, Note_on_c, 1, 94, 55
3, 668736, Note_off_c, 1, 94, 55
3, 668800, Note_off_c, 1, 94, 55
3, 668800, Note_on_c, 1, 94, 55
3, 668864, Note_off_c, 1, 94, 55
3, 668928, Note_off_c, 1, 94, 55
3, 668928, Note_on_c, 1, 94, 55
3, 668992, Note_off_c, 1, 94, 55
3, 669056, Note_off_c, 1, 94, 55
3, 669056, Note_on_c, 1, 91, 55
3, 669088, Note_off_c, 1, 91, 55
3, 669120, Note_off_c, 1, 91, 55
3, 669120, Note_on_c, 1, 92, 55
3, 669152, Note_off_c, 1, 92, 55
3, 669184, Note_off_c, 1, 92, 55
3, 669184, Note_on_c, 1, 94, 55
3, 669248, Note_off_c, 1, 94, 55
3, 669312, Note_off_c, 1, 94, 55
3, 669312, Note_on_c, 1, 94, 55
3, 669376, Note_off_c, 1, 94, 55
3, 669440, Note_off_c, 1, 94, 55
3, 669440, Note_on_c, 1, 94, 55
3, 669504, Note_off_c, 1, 94, 55
3, 669568, Note_off_c, 1, 94, 55
3, 669568, Note_on_c, 1, 91, 55
3, 669600, Note_off_c, 1, 91, 55
3, 669632, Note_off_c, 1, 91, 55
3, 669632, Note_on_c, 1, 92, 55
3, 669664, Note_off_c, 1, 92, 55
3, 669696, Note_off_c, 1, 92, 55
3, 669696, Note_on_c, 1, 94, 55
3, 669760, Note_off_c, 1, 94, 55
3, 669824, Note_off_c, 1, 94, 55
3, 669824, Note_on_c, 1, 94, 55
3, 669888, Note_off_c, 1, 94, 55
3, 669952, Note_off_c, 1, 94, 55
3, 670720, Control_c, 1, 93, 0
3, 671744, Control_c, 1, 93, 0
3, 672000, Control_c, 1, 93, 0
3, 672000, Note_on_c, 1, 77, 67
3, 672256, Note_off_c, 1, 77, 67
3, 672768, Control_c, 1, 93, 0
3, 673792, Control_c, 1, 93, 0
3, 674816, Control_c, 1, 93, 0
3, 675840, Control_c, 1, 93, 0
3, 676864, Control_c, 1, 93, 0
3, 677888, Control_c, 1, 93, 0
3, 678912, Control_c, 1, 93, 0
3, 679936, Control_c, 1, 93, 0
3, 680704, Control_c, 1, 93, 0
3, 680704, Note_on_c, 1, 91, 55
3, 680768, Note_off_c, 1, 91, 55
3, 680832, Note_off_c, 1, 91, 55
3, 680832, Note_on_c, 1, 91, 55
3, 680864, Note_off_c, 1, 91, 55
3, 680896, Note_off_c, 1, 91, 55
3, 680896, Note_on_c, 1, 92, 55
3, 680928, Note_off_c, 1, 92, 55
3, 680960, Note_off_c, 1, 92, 55
3, 680960, Note_on_c, 1, 94, 55
3, 681024, Note_off_c, 1, 94, 55
3, 681088, Note_off_c, 1, 94, 55
3, 681088, Note_on_c, 1, 94, 55
3, 681152, Note_off_c, 1, 94, 55
3, 681216, Note_off_c, 1, 94, 55
3, 681216, Note_on_c, 1, 94, 55
3, 681280, Note_off_c, 1, 94, 55
3, 681344, Note_off_c, 1, 94, 55
3, 681344, Note_on_c, 1, 91, 55
3, 681376, Note_off_c, 1, 91, 55
3, 681408, Note_off_c, 1, 91, 55
3, 681408, Note_on_c, 1, 92, 55
3, 681440, Note_off_c, 1, 92, 55
3, 681472, Note_off_c, 1, 92, 55
3, 681472, Note_on_c, 1, 94, 55
3, 681536, Note_off_c, 1, 94, 55
3, 681600, Note_off_c, 1, 94, 55
3, 681600, Note_on_c, 1, 94, 55
3, 681664, Note_off_c, 1, 94, 55
3, 681728, Note_off_c, 1, 94, 55
3, 681728, Note_on_c, 1, 94, 55
3, 681792, Note_off_c, 1, 94, 55
3, 681856, Note_off_c, 1, 94, 55
3, 681856, Note_on_c, 1, 91, 55
3, 681888, Note_off_c, 1, 91, 55
3, 681920, Note_off_c, 1, 91, 55
3, 681920, Note_on_c, 1, 92, 55
3, 681952, Note_off_c, 1, 92, 55
3, 681984, Note_off_c, 1, 92, 55
3, 681984, Note_on_c, 1, 94, 55
3, 682048, Note_off_c, 1, 94, 55
3, 682112, Note_off_c, 1, 94, 55
3, 682112, Note_on_c, 1, 94, 55
3, 682176, Note_off_c, 1, 94, 55
3, 682240, Note_off_c, 1, 94, 55
3, 683008, Control_c, 1, 93, 0
3, 684032, Control_c, 1, 93, 0
3, 684288, Control_c, 1, 93, 0
3, 684288, Note_on_c, 1, 77, 67
3, 684544, Note_off_c, 1, 77, 67
3, 685056, Control_c, 1, 93, 0
3, 686080, Control_c, 1, 93, 0
3, 687104, Control_c, 1, 93, 0
3, 688128, Control_c, 1, 93, 0
3, 689152, Control_c, 1, 93, 0
3, 690176, Control_c, 1, 93, 0
3, 691200, Control_c, 1, 93, 0
3, 692224, Control_c, 1, 93, 0
3, 692992, Control_c, 1, 93, 0
3, 692992, Note_on_c, 1, 91, 55
3, 693056, Note_off_c, 1, 91, 55
3, 693120, Note_off_c, 1, 91, 55
3, 693120, Note_on_c, 1, 91, 55
3, 693152, Note_off_c, 1, 91, 55
3, 693184, Note_off_c, 1, 91, 55
3, 693184, Note_on_c, 1, 92, 55
3, 693216, Note_off_c, 1, 92, 55
3, 693248, Note_off_c, 1, 92, 55
3, 693248, Note_on_c, 1, 94, 55
3, 693312, Note_off_c, 1, 94, 55
3, 693376, Note_off_c, 1, 94, 55
3, 693376, Note_on_c, 1, 94, 55
3, 693440, Note_off_c, 1, 94, 55
3, 693504, Note_off_c, 1, 94, 55
3, 693504, Note_on_c, 1, 94, 55
3, 693568, Note_off_c, 1, 94, 55
3, 693632, Note_off_c, 1, 94, 55
3, 693632, Note_on_c, 1, 91, 55
3, 693664, Note_off_c, 1, 91, 55
3, 693696, Note_off_c, 1, 91, 55
3, 693696, Note_on_c, 1, 92, 55
3, 693728, Note_off_c, 1, 92, 55
3, 693760, Note_off_c, 1, 92, 55
3, 693760, Note_on_c, 1, 94, 55
3, 693824, Note_off_c, 1, 94, 55
3, 693888, Note_off_c, 1, 94, 55
3, 693888, Note_on_c, 1, 94, 55
3, 693952, Note_off_c, 1, 94, 55
3, 694016, Note_off_c, 1, 94, 55
3, 694016, Note_on_c, 1, 94, 55
3, 694080, Note_off_c, 1, 94, 55
3, 694144, Note_off_c, 1, 94, 55
3, 694144, Note_on_c, 1, 91, 55
3, 694176, Note_off_c, 1, 91, 55
3, 694208, Note_off_c, 1, 91, 55
3, 694208, Note_on_c, 1, 92, 55
3, 694240, Note_off_c, 1, 92, 55
3, 694272, Note_off_c, 1, 92, 55
3, 694272, Note_on_c, 1, 94, 55
3, 694336, Note_off_c, 1, 94, 55
3, 694400, Note_off_c, 1, 94, 55
3, 694400, Note_on_c, 1, 94, 55
3, 694464, Note_off_c, 1, 94, 55
3, 694528, Note_off_c, 1, 94, 55
3, 695296, Control_c, 1, 93, 0
3, 696320, Control_c, 1, 93, 0
3, 696576, Control_c, 1, 93, 0
3, 696576, Note_on_c, 1, 77, 67
3, 696832, Note_off_c, 1, 77, 67
3, 697344, Control_c, 1, 93, 0
3, 698368, Control_c, 1, 93, 0
3, 699392, Control_c, 1, 93, 0
3, 700416, Control_c, 1, 93, 0
3, 701440, Control_c, 1, 93, 0
3, 702464, Control_c, 1, 93, 0
3, 703488, Control_c, 1, 93, 0
3, 704512, Control_c, 1, 93, 0
3, 705280, Control_c, 1, 93, 0
3, 705280, Note_on_c, 1, 91, 55
3, 705344, Note_off_c, 1, 91, 55
3, 705408, Note_off_c, 1, 91, 55
3, 705408, Note_on_c, 1, 91, 55
3, 705440, Note_off_c, 1, 91, 55
3, 705472, Note_off_c, 1, 91, 55
3, 705472, Note_on_c, 1, 92, 55
3, 705504, Note_off_c, 1, 92, 55
3, 705536, Note_off_c, 1, 92, 55
3, 705536, Note_on_c, 1, 94, 55
3, 705600, Note_off_c, 1, 94, 55
3, 705664, Note_off_c, 1, 94, 55
3, 705664, Note_on_c, 1, 94, 55
3, 705728, Note_off_c, 1, 94, 55
3, 705792, Note_off_c, 1, 94, 55
3, 705792, Note_on_c, 1, 94, 55
3, 705856, Note_off_c, 1, 94, 55
3, 705920, Note_off_c, 1, 94, 55
3, 705920, Note_on_c, 1, 91, 55
3, 705952, Note_off_c, 1, 91, 55
3, 705984, Note_off_c, 1, 91, 55
3, 705984, Note_on_c, 1, 92, 55
3, 706016, Note_off_c, 1, 92, 55
3, 706048, Note_off_c, 1, 92, 55
3, 706048, Note_on_c, 1, 94, 55
3, 706112, Note_off_c, 1, 94, 55
3, 706176, Note_off_c, 1, 94, 55
3, 706176, Note_on_c, 1, 94, 55
3, 706240, Note_off_c, 1, 94, 55
3, 706304, Note_off_c, 1, 94, 55
3, 706304, Note_on_c, 1, 94, 55
3, 706368, Note_off_c, 1, 94, 55
3, 706432, Note_off_c, 1, 94, 55
3, 706432, Note_on_c, 1, 91, 55
3, 706464, Note_off_c, 1, 91, 55
3, 706496, Note_off_c, 1, 91, 55
3, 706496, Note_on_c, 1, 92, 55
3, 706528, Note_off_c, 1, 92, 55
3, 706560, Note_off_c, 1, 92, 55
3, 706560, Note_on_c, 1, 94, 55
3, 706624, Note_off_c, 1, 94, 55
3, 706688, Note_off_c, 1, 94, 55
3, 706688, Note_on_c, 1, 94, 55
3, 706752, Note_off_c, 1, 94, 55
3, 706816, Note_off_c, 1, 94, 55
3, 707584, Control_c, 1, 93, 0
3, 708608, Control_c, 1, 93, 0
3, 708864, Control_c, 1, 93, 0
3, 708864, Note_on_c, 1, 77, 67
3, 709120, Note_off_c, 1, 77, 67
3, 709632, Control_c, 1, 93, 0
3, 710656, Control_c, 1, 93, 0
3, 711680, Control_c, 1, 93, 0
3, 712704, Control_c, 1, 93, 0
3, 713728, Control_c, 1, 93, 0
3, 714752, Control_c, 1, 93, 0
3, 715776, Control_c, 1, 93, 0
3, 716800, Control_c, 1, 93, 0
3, 717568, Control_c, 1, 93, 0
3, 717568, Note_on_c, 1, 91, 55
3, 717632, Note_off_c, 1, 91, 55
3, 717696, Note_off_c, 1, 91, 55
3, 717696, Note_on_c, 1, 91, 55
3, 717728, Note_off_c, 1, 91, 55
3, 717760, Note_off_c, 1, 91, 55
3, 717760, Note_on_c, 1, 92, 55
3, 717792, Note_off_c, 1, 92, 55
3, 717824, Note_off_c, 1, 92, 55
3, 717824, Note_on_c, 1, 94, 55
3, 717888, Note_off_c, 1, 94, 55
3, 717952, Note_off_c, 1, 94, 55
3, 717952, Note_on_c, 1, 94, 55
3, 718016, Note_off_c, 1, 94, 55
3, 718080, Note_off_c, 1, 94, 55
3, 718080, Note_on_c, 1, 94, 55
3, 718144, Note_off_c, 1, 94, 55
3, 718208, Note_off_c, 1, 94, 55
3, 718208, Note_on_c, 1, 91, 55
3, 718240, Note_off_c, 1, 91, 55
3, 718272, Note_off_c, 1, 91, 55
3, 718272, Note_on_c, 1, 92, 55
3, 718304, Note_off_c, 1, 92, 55
3, 718336, Note_off_c, 1, 92, 55
3, 718336, Note_on_c, 1, 94, 55
3, 718400, Note_off_c, 1, 94, 55
3, 718464, Note_off_c, 1, 94, 55
3, 718464, Note_on_c, 1, 94, 55
3, 718528, Note_off_c, 1, 94, 55
3, 718592, Note_off_c, 1, 94, 55
3, 718592, Note_on_c, 1, 94, 55
3, 718656, Note_off_c, 1, 94, 55
3, 718720, Note_off_c, 1, 94, 55
3, 718720, Note_on_c, 1, 91, 55
3, 718752, Note_off_c, 1, 91, 55
3, 718784, Note_off_c, 1, 91, 55
3, 718784, Note_on_c, 1, 92, 55
3, 718816, Note_off_c, 1, 92, 55
3, 718848, Note_off_c, 1, 92, 55
3, 718848, Note_on_c, 1, 94, 55
3, 718912, Note_off_c, 1, 94, 55
3, 718976, Note_off_c, 1, 94, 55
3, 718976, Note_on_c, 1, 94, 55
3, 719040, Note_off_c, 1, 94, 55
3, 719104, Note_off_c, 1, 94, 55
3, 719872, Control_c, 1, 93, 0
3, 720896, Control_c, 1, 93, 0
3, 721152, Control_c, 1, 93, 0
3, 721152, Note_on_c, 1, 77, 67
3, 721408, Note_off_c, 1, 77, 67
3, 721920, Control_c, 1, 93, 0
3, 722944, Control_c, 1, 93, 0
3, 723968, Control_c, 1, 93, 0
3, 724992, Control_c, 1, 93, 0
3, 726016, Control_c, 1, 93, 0
3, 727040, Control_c, 1, 93, 0
3, 728064, Control_c, 1, 93, 0
3, 729088, Control_c, 1, 93, 0
3, 729856, Control_c, 1, 93, 0
3, 729856, Note_on_c, 1, 91, 55
3, 729920, Note_off_c, 1, 91, 55
3, 729984, Note_off_c, 1, 91, 55
3, 729984, Note_on_c, 1, 91, 55
3, 730016, Note_off_c, 1, 91, 55
3, 730048, Note_off_c, 1, 91, 55
3, 730048, Note_on_c, 1, 92, 55
3, 730080, Note_off_c, 1, 92, 55
3, 730112, Note_off_c, 1, 92, 55
3, 730112, Note_on_c, 1, 94, 55
3, 730176, Note_off_c, 1, 94, 55
3, 730240, Note_off_c, 1, 94, 55
3, 730240, Note_on_c, 1, 94, 55
3, 730304, Note_off_c, 1, 94, 55
3, 730368, Note_off_c, 1, 94, 55
3, 730368, Note_on_c, 1, 94, 55
3, 730432, Note_off_c, 1, 94, 55
3, 730496, Note_off_c, 1, 94, 55
3, 730496, Note_on_c, 1, 91, 55
3, 730528, Note_off_c, 1, 91, 55
3, 730560, Note_off_c, 1, 91, 55
3, 730560, Note_on_c, 1, 92, 55
3, 730592, Note_off_c, 1, 92, 55
3, 730624, Note_off_c, 1, 92, 55
3, 730624, Note_on_c, 1, 94, 55
3, 730688, Note_off_c, 1, 94, 55
3, 730752, Note_off_c, 1, 94, 55
3, 730752, Note_on_c, 1, 94, 55
3, 730816, Note_off_c, 1, 94, 55
3, 730880, Note_off_c, 1, 94, 55
3, 730880, Note_on_c, 1, 94, 55
3, 730944, Note_off_c, 1, 94, 55
3, 731008, Note_off_c, 1, 94, 55
3, 731008, Note_on_c, 1, 91, 55
3, 731040, Note_off_c, 1, 91, 55
3, 731072, Note_off_c, 1, 91, 55
3, 731072, Note_on_c, 1, 92, 55
3, 731104, Note_off_c, 1, 92, 55
3, 731136, Note_off_c, 1, 92, 55
3, 731136, Note_on_c, 1, 94, 55
3, 731200, Note_off_c, 1, 94, 55
3, 731264, Note_off_c, 1, 94, 55
3, 731264, Note_on_c, 1, 94, 55
3, 731328, Note_off_c, 1, 94, 55
3, 731392, Note_off_c, 1, 94, 55
3, 732160, Control_c, 1, 93, 0
3, 733184, Control_c, 1, 93, 0
3, 733440, Control_c, 1, 93, 0
3, 733440, Note_on_c, 1, 77, 67
3, 733696, Note_off_c, 1, 77, 67
3, 734208, Control_c, 1, 93, 0
3, 735232, Control_c, 1, 93, 0
3, 736256, Control_c, 1, 93, 0
3, 737280, Control_c, 1, 93, 0
3, 738304, Control_c, 1, 93, 0
3, 739328, Control_c, 1, 93, 0
3, 740352, Control_c, 1, 93, 0
3, 741376, Control_c, 1, 93, 0
3, 742144, Control_c, 1, 93, 0
3, 742144, Note_on_c, 1, 91, 55
3, 742208, Note_off_c, 1, 91, 55
3, 742272, Note_off_c, 1, 91, 55
3, 742272, Note_on_c, 1, 91, 55
3, 742304, Note_off_c, 1, 91, 55
3, 742336, Note_off_c, 1, 91, 55
3, 742336, Note_on_c, 1, 92, 55
3, 742368, Note_off_c, 1, 92, 55
3, 742400, Note_off_c, 1, 92, 55
3, 742400, Note_on_c, 1, 94, 55
3, 742464, Note_off_c, 1, 94, 55
3, 742528, Note_off_c, 1, 94, 55
3, 742528, Note_on_c, 1, 94, 55
3, 742592, Note_off_c, 1, 94, 55
3, 742656, Note_off_c, 1, 94, 55
3, 742656, Note_on_c, 1, 94, 55
3, 742720, Note_off_c, 1, 94, 55
3, 742784, Note_off_c, 1, 94, 55
3, 742784, Note_on_c, 1, 91, 55
3, 742816, Note_off_c, 1, 91, 55
3, 742848, Note_off_c, 1, 91, 55
3, 742848, Note_on_c, 1, 92, 55
3, 742880, Note_off_c, 1, 92, 55
3, 742912, Note_off_c, 1, 92, 55
3, 742912, Note_on_c, 1, 94, 55
3, 742976, Note_off_c, 1, 94, 55
3, 743040, Note_off_c, 1, 94, 55
3, 743040, Note_on_c, 1, 94, 55
3, 743104, Note_off_c, 1, 94, 55
3, 743168, Note_off_c, 1, 94, 55
3, 743168, Note_on_c, 1, 94, 55
3, 743232, Note_off_c, 1, 94, 55
3, 743296, Note_off_c, 1, 94, 55
3, 743296, Note_on_c, 1, 91, 55
3, 743328, Note_off_c, 1, 91, 55
3, 743360, Note_off_c, 1, 91, 55
3, 743360, Note_on_c, 1, 92, 55
3, 743392, Note_off_c, 1, 92, 55
3, 743424, Note_off_c, 1, 92, 55
3, 743424, Note_on_c, 1, 94, 55
3, 743488, Note_off_c, 1, 94, 55
3, 743552, Note_off_c, 1, 94, 55
3, 743552, Note_on_c, 1, 94, 55
3, 743616, Note_off_c, 1, 94, 55
3, 743680, Note_off_c, 1, 94, 55
3, 744448, Control_c, 1, 93, 0
3, 745472, Control_c, 1, 93, 0
3, 745728, Control_c, 1, 93, 0
3, 745728, Note_on_c, 1, 77, 67
3, 745984, Note_off_c, 1, 77, 67
3, 746496, Control_c, 1, 93, 0
3, 747520, Control_c, 1, 93, 0
3, 748544, Control_c, 1, 93, 0
3, 749568, Control_c, 1, 93, 0
3, 750592, Control_c, 1, 93, 0
3, 751616, Control_c, 1, 93, 0
3, 752640, Control_c, 1, 93, 0
3, 753664, Control_c, 1, 93, 0
3, 754432, Control_c, 1, 93, 0
3, 754432, Note_on_c, 1, 91, 55
3, 754496, Note_off_c, 1, 91, 55
3, 754560, Note_off_c, 1, 91, 55
3, 754560, Note_on_c, 1, 91, 55
3, 754592, Note_off_c, 1, 91, 55
3, 754624, Note_off_c, 1, 91, 55
3, 754624, Note_on_c, 1, 92, 55
3, 754656, Note_off_c, 1, 92, 55
3, 754688, Note_off_c, 1, 92, 55
3, 754688, Note_on_c, 1, 94, 55
3, 754752, Note_off_c, 1, 94, 55
3, 754816, Note_off_c, 1, 94, 55
3, 754816, Note_on_c, 1, 94, 55
3, 754880, Note_off_c, 1, 94, 55
3, 754944, Note_off_c, 1, 94, 55
3, 754944, Note_on_c, 1, 94, 55
3, 755008, Note_off_c, 1, 94, 55
3, 755072, Note_off_c, 1, 94, 55
3, 755072, Note_on_c, 1, 91, 55
3, 755104, Note_off_c, 1, 91, 55
3, 755136, Note_off_c, 1, 91, 55
3, 755136, Note_on_c, 1, 92, 55
3, 755168, Note_off_c, 1, 92, 55
3, 755200, Note_off_c, 1, 92, 55
3, 755200, Note_on_c, 1, 94, 55
3, 755264, Note_off_c, 1, 94, 55
3, 755328, Note_off_c, 1, 94, 55
3, 755328, Note_on_c, 1, 94, 55
3, 755392, Note_off_c, 1, 94, 55
3, 755456, Note_off_c, 1, 94, 55
3, 755456, Note_on_c, 1, 94, 55
3, 755520, Note_off_c, 1, 94, 55
3, 755584, Note_off_c, 1, 94, 55
3, 755584, Note_on_c, 1, 91, 55
3, 755616, Note_off_c, 1, 91, 55
3, 755648, Note_off_c, 1, 91, 55
3, 755648, Note_on_c, 1, 92, 55
3, 755680, Note_off_c, 1, 92, 55
3, 755712, Note_off_c, 1, 92, 55
3, 755712, Note_on_c, 1, 94, 55
3, 755776, Note_off_c, 1, 94, 55
3, 755840, Note_off_c, 1, 94, 55
3, 755840, Note_on_c, 1, 94, 55
3, 755904, Note_off_c, 1, 94, 55
3, 755968, Note_off_c, 1, 94, 55
3, 756736, Control_c, 1, 93, 0
3, 757760, Control_c, 1, 93, 0
3, 758016, Control_c, 1, 93, 0
3, 758016, Note_on_c, 1, 77, 67
3, 758272, Note_off_c, 1, 77, 67
3, 758784, Control_c, 1, 93, 0
3, 759808, Control_c, 1, 93, 0
3, 760832, Control_c, 1, 93, 0
3, 761856, Control_c, 1, 93, 0
3, 762880, Control_c, 1, 93, 0
3, 763904, Control_c, 1, 93, 0
3, 764928, Control_c, 1, 93, 0
3, 765952, Control_c, 1, 93, 0
3, 766720, Control_c, 1, 93, 0
3, 766720, Note_on_c, 1, 91, 55
3, 766784, Note_off_c, 1, 91, 55
3, 766848, Note_off_c, 1, 91, 55
3, 766848, Note_on_c, 1, 91, 55
3, 766880, Note_off_c, 1, 91, 55
3, 766912, Note_off_c, 1, 91, 55
3, 766912, Note_on_c, 1, 92, 55
3, 766944, Note_off_c, 1, 92, 55
3, 766976, Note_off_c, 1, 92, 55
3, 766976, Note_on_c, 1, 94, 55
3, 767040, Note_off_c, 1, 94, 55
3, 767104, Note_off_c, 1, 94, 55
3, 767104, Note_on_c, 1, 94, 55
3, 767168, Note_off_c, 1, 94, 55
3, 767232, Note_off_c, 1, 94, 55
3, 767232, Note_on_c, 1, 94, 55
3, 767296, Note_off_c, 1, 94, 55
3, 767360, Note_off_c, 1, 94, 55
3, 767360, Note_on_c, 1, 91, 55
3, 767392, Note_off_c, 1, 91, 55
3, 767424, Note_off_c, 1, 91, 55
3, 767424, Note_on_c, 1, 92, 55
3, 767456, Note_off_c, 1, 92, 55
3, 767488, Note_off_c, 1, 92, 55
3, 767488, Note_on_c, 1, 94, 55
3, 767552, Note_off_c, 1, 94, 55
3, 767616, Note_off_c, 1, 94, 55
3, 767616, Note_on_c, 1, 94, 55
3, 767680, Note_off_c, 1, 94, 55
3, 767744, Note_off_c, 1, 94, 55
3, 767744, Note_on_c, 1, 94, 55
3, 767808, Note_off_c, 1, 94, 55
3, 767872, Note_off_c, 1, 94, 55
3, 767872, Note_on_c, 1, 91, 55
3, 767904, Note_off_c, 1, 91, 55
3, 767936, Note_off_c, 1, 91, 55
3, 767936, Note_on_c, 1, 92, 55
3, 767968, Note_off_c, 1, 92, 55
3, 768000, Note_off_c, 1, 92, 55
3, 768000, Note_on_c, 1, 94, 55
3, 768064, Note_off_c, 1, 94, 55
3, 768128, Note_off_c, 1, 94, 55
3, 768128, Note_on_c, 1, 94, 55
3, 768192, Note_off_c, 1, 94, 55
3, 768256, Note_off_c, 1, 94, 55
3, 769024, Control_c, 1, 93, 0
3, 770048, Control_c, 1, 93, 0
3, 770304, Control_c, 1, 93, 0
3, 770304, Note_on_c, 1, 77, 67
3, 770560, Note_off_c, 1, 77, 67
3, 771072, Control_c, 1, 93, 0
3, 772096, Control_c, 1, 93, 0
3, 773120, Control_c, 1, 93, 0
3, 774144, Control_c, 1, 93, 0
3, 775168, Control_c, 1, 93, 0
3, 776192, Control_c, 1, 93, 0
3, 777216, Control_c, 1, 93, 0
3, 778240, Control_c, 1, 93, 0
3, 779008, Control_c, 1, 93, 0
3, 779008, Note_on_c, 1, 91, 55
3, 779072, Note_off_c, 1, 91, 55
3, 779136, Note_off_c, 1, 91, 55
3, 779136, Note_on_c, 1, 91, 55
3, 779168, Note_off_c, 1, 91, 55
3, 779200, Note_off_c, 1, 91, 55
3, 779200, Note_on_c, 1, 92, 55
3, 779232, Note_off_c, 1, 92, 55
3, 779264, Note_off_c, 1, 92, 55
3, 779264, Note_on_c, 1, 94, 55
3, 779328, Note_off_c, 1, 94, 55
3, 779392, Note_off_c, 1, 94, 55
3, 779392, Note_on_c, 1, 94, 55
3, 779456, Note_off_c, 1, 94, 55
3, 779520, Note_off_c, 1, 94, 55
3, 779520, Note_on_c, 1, 94, 55
3, 779584, Note_off_c, 1, 94, 55
3, 779648, Note_off_c, 1, 94, 55
3, 779648, Note_on_c, 1, 91, 55
3, 779680, Note_off_c, 1, 91, 55
3, 779712, Note_off_c, 1, 91, 55
3, 779712, Note_on_c, 1, 92, 55
3, 779744, Note_off_c, 1, 92, 55
3, 779776, Note_off_c, 1, 92, 55
3, 779776, Note_on_c, 1, 94, 55
3, 779840, Note_off_c, 1, 94, 55
3, 779904, Note_off_c, 1, 94, 55
3, 779904, Note_on_c, 1, 94, 55
3, 779968, Note_off_c, 1, 94, 55
3, 780032, Note_off_c, 1, 94, 55
3, 780032, Note_on_c, 1, 94, 55
3, 780096, Note_off_c, 1, 94, 55
3, 780160, Note_off_c, 1, 94, 55
3, 780160, Note_on_c, 1, 91, 55
3, 780192, Note_off_c, 1, 91, 55
3, 780224, Note_off_c, 1, 91, 55
3, 780224, Note_on_c, 1, 92, 55
3, 780256, Note_off_c, 1, 92, 55
3, 780288, Note_off_c, 1, 92, 55
3, 780288, Note_on_c, 1, 94, 55
3, 780352, Note_off_c, 1, 94, 55
3, 780416, Note_off_c, 1, 94, 55
3, 780416, Note_on_c, 1, 94, 55
3, 780480, Note_off_c, 1, 94, 55
3, 780544, Note_off_c, 1, 94, 55
3, 781312, Control_c, 1, 93, 0
3, 782336, Control_c, 1, 93, 0
3, 782592, Control_c, 1, 93, 0
3, 782592, Note_on_c, 1, 77, 67
3, 782848, Note_off_c, 1, 77, 67
3, 783360, Control_c, 1, 93, 0
3, 784384, Control_c, 1, 93, 0
3, 785408, Control_c, 1, 93, 0
3, 786432, Control_c, 1, 93, 0
3, 787456, Control_c, 1, 93, 0
3, 788480, Control_c, 1, 93, 0
3, 789504, Control_c, 1, 93, 0
3, 790528, Control_c, 1, 93, 0
3, 791296, Control_c, 1, 93, 0
3, 791296, Note_on_c, 1, 91, 55
3, 791360, Note_off_c, 1, 91, 55
3, 791424, Note_off_c, 1, 91, 55
3, 791424, Note_on_c, 1, 91, 55
3, 791456, Note_off_c, 1, 91, 55
3, 791488, Note_off_c, 1, 91, 55
3, 791488, Note_on_c, 1, 92, 55
3, 791520, Note_off_c, 1, 92, 55
3, 791552, Note_off_c, 1, 92, 55
3, 791552, Note_on_c, 1, 94, 55
3, 791616, Note_off_c, 1, 94, 55
3, 791680, Note_off_c, 1, 94, 55
3, 791680, Note_on_c, 1, 94, 55
3, 791744, Note_off_c, 1, 94, 55
3, 791808, Note_off_c, 1, 94, 55
3, 791808, Note_on_c, 1, 94, 55
3, 791872, Note_off_c, 1, 94, 55
3, 791936, Note_off_c, 1, 94, 55
3, 791936, Note_on_c, 1, 91, 55
3, 791968, Note_off_c, 1, 91, 55
3, 792000, Note_off_c, 1, 91, 55
3, 792000, Note_on_c, 1, 92, 55
3, 792032, Note_off_c, 1, 92, 55
3, 792064, Note_off_c, 1, 92, 55
3, 792064, Note_on_c, 1, 94, 55
3, 792128, Note_off_c, 1, 94, 55
3, 792192, Note_off_c, 1, 94, 55
3, 792192, Note_on_c, 1, 94, 55
3, 792256, Note_off_c, 1, 94, 55
3, 792320, Note_off_c, 1, 94, 55
3, 792320, Note_on_c, 1, 94, 55
3, 792384, Note_off_c, 1, 94, 55
3, 792448, Note_off_c, 1, 94, 55
3, 792448, Note_on_c, 1, 91, 55
3, 792480, Note_off_c, 1, 91, 55
3, 792512, Note_off_c, 1, 91, 55
3, 792512, Note_on_c, 1, 92, 55
3, 792544, Note_off_c, 1, 92, 55
3, 792576, Note_off_c, 1, 92, 55
3, 792576, Note_on_c, 1, 94, 55
3, 792640, Note_off_c, 1, 94, 55
3, 792704, Note_off_c, 1, 94, 55
3, 792704, Note_on_c, 1, 94, 55
3, 792768, Note_off_c, 1, 94, 55
3, 792832, Note_off_c, 1, 94, 55
3, 793600, Control_c, 1, 93, 0
3, 794624, Control_c, 1, 93, 0
3, 794880, Control_c, 1, 93, 0
3, 794880, Note_on_c, 1, 77, 67
3, 795136, Note_off_c, 1, 77, 67
3, 795648, Control_c, 1, 93, 0
3, 796672, Control_c, 1, 93, 0
3, 797696, Control_c, 1, 93, 0
3, 798720, Control_c, 1, 93, 0
3, 799744, Control_c, 1, 93, 0
3, 800768, Control_c, 1, 93, 0
3, 801792, Control_c, 1, 93, 0
3, 802816, Control_c, 1, 93, 0
3, 803584, Control_c, 1, 93, 0
3, 803584, Note_on_c, 1, 91, 55
3, 803648, Note_off_c, 1, 91, 55
3, 803712, Note_off_c, 1, 91, 55
3, 803712, Note_on_c, 1, 91, 55
3, 803744, Note_off_c, 1, 91, 55
3, 803776, Note_off_c, 1, 91, 55
3, 803776, Note_on_c, 1, 92, 55
3, 803808, Note_off_c, 1, 92, 55
3, 803840, Note_off_c, 1, 92, 55
3, 803840, Note_on_c, 1, 94, 55
3, 803904, Note_off_c, 1, 94, 55
3, 803968, Note_off_c, 1, 94, 55
3, 803968, Note_on_c, 1, 94, 55
3, 804032, Note_off_c, 1, 94, 55
3, 804096, Note_off_c, 1, 94, 55
3, 804096, Note_on_c, 1, 94, 55
3, 804160, Note_off_c, 1, 94, 55
3, 804224, Note_off_c, 1, 94, 55
3, 804224, Note_on_c, 1, 91, 55
3, 804256, Note_off_c, 1, 91, 55
3, 804288, Note_off_c, 1, 91, 55
3, 804288, Note_on_c, 1, 92, 55
3, 804320, Note_off_c, 1, 92, 55
3, 804352, Note_off_c, 1, 92, 55
3, 804352, Note_on_c, 1, 94, 55
3, 804416, Note_off_c, 1, 94, 55
3, 804480, Note_off_c, 1, 94, 55
3, 804480, Note_on_c, 1, 94, 55
3, 804544, Note_off_c, 1, 94, 55
3, 804608, Note_off_c, 1, 94, 55
3, 804608, Note_on_c, 1, 94, 55
3, 804672, Note_off_c, 1, 94, 55
3, 804736, Note_off_c, 1, 94, 55
3, 804736, Note_on_c, 1, 91, 55
3, 804768, Note_off_c, 1, 91, 55
3, 804800, Note_off_c, 1, 91, 55
3, 804800, Note_on_c, 1, 92, 55
3, 804832, Note_off_c, 1, 92, 55
3, 804864, Note_off_c, 1, 92, 55
3, 804864, Note_on_c, 1, 94, 55
3, 804928, Note_off_c, 1, 94, 55
3, 804992, Note_off_c, 1, 94, 55
3, 804992, Note_on_c, 1, 94, 55
3, 805056, Note_off_c, 1, 94, 55
3, 805120, Note_off_c, 1, 94, 55
3, 805888, Control_c, 1, 93, 0
3, 806912, Control_c, 1, 93, 0
3, 807168, Control_c, 1, 93, 0
3, 807168, Note_on_c, 1, 77, 67
3, 807424, Note_off_c, 1, 77, 67
3, 807936, Control_c, 1, 93, 0
3, 808960, Control_c, 1, 93, 0
3, 809984, Control_c, 1, 93, 0
3, 811008, Control_c, 1, 93, 0
3, 812032, Control_c, 1, 93, 0
3, 813056, Control_c, 1, 93, 0
3, 814080, Control_c, 1, 93, 0
3, 815104, Control_c, 1, 93, 0
3, 815872, Control_c, 1, 93, 0
3, 815872, Note_on_c, 1, 91, 55
3, 815936, Note_off_c, 1, 91, 55
3, 816000, Note_off_c, 1, 91, 55
3, 816000, Note_on_c, 1, 91, 55
3, 816032, Note_off_c, 1, 91, 55
3, 816064, Note_off_c, 1, 91, 55
3, 816064, Note_on_c, 1, 92, 55
3, 816096, Note_off_c, 1, 92, 55
3, 816128, Note_off_c, 1, 92, 55
3, 816128, Note_on_c, 1, 94, 55
3, 816192, Note_off_c, 1, 94, 55
3, 816256, Note_off_c, 1, 94, 55
3, 816256, Note_on_c, 1, 94, 55
3, 816320, Note_off_c, 1, 94, 55
3, 816384, Note_off_c, 1, 94, 55
3, 816384, Note_on_c, 1, 94, 55
3, 816448, Note_off_c, 1, 94, 55
3, 816512, Note_off_c, 1, 94, 55
3, 816512, Note_on_c, 1, 91, 55
3, 816544, Note_off_c, 1, 91, 55
3, 816576, Note_off_c, 1, 91, 55
3, 816576, Note_on_c, 1, 92, 55
3, 816608, Note_off_c, 1, 92, 55
3, 816640, Note_off_c, 1, 92, 55
3, 816640, Note_on_c, 1, 94, 55
3, 816704, Note_off_c, 1, 94, 55
3, 816768, Note_off_c, 1, 94, 55
3, 816768, Note_on_c, 1, 94, 55
3, 816832, Note_off_c, 1, 94, 55
3, 816896, Note_off_c, 1, 94, 55
3, 816896, Note_on_c, 1, 94, 55
3, 816960, Note_off_c, 1, 94, 55
3, 817024, Note_off_c, 1, 94, 55
3, 817024, Note_on_c, 1, 91, 55
3, 817056, Note_off_c, 1, 91, 55
3, 817088, Note_off_c, 1, 91, 55
3, 817088, Note_on_c, 1, 92, 55
3, 817120, Note_off_c, 1, 92, 55
3, 817152, Note_off_c, 1, 92, 55
3, 817152, Note_on_c, 1, 94, 55
3, 817216, Note_off_c, 1, 94, 55
3, 817280, Note_off_c, 1, 94, 55
3, 817280, Note_on_c, 1, 94, 55
3, 817344, Note_off_c, 1, 94, 55
3, 817408, Note_off_c, 1, 94, 55
3, 818176, Control_c, 1, 93, 0
3, 819200, Control_c, 1, 93, 0
3, 819456, Control_c, 1, 93, 0
3, 819456, Note_on_c, 1, 77, 67
3, 819712, Note_off_c, 1, 77, 67
3, 820224, Control_c, 1, 93, 0
3, 821248, Control_c, 1, 93, 0
3, 822272, Control_c, 1, 93, 0
3, 823296, Control_c, 1, 93, 0
3, 824320, Control_c, 1, 93, 0
3, 825344, Control_c, 1, 93, 0
3, 826368, Control_c, 1, 93, 0
3, 827392, Control_c, 1, 93, 0
3, 828160, Control_c, 1, 93, 0
3, 828160, Note_on_c, 1, 91, 55
3, 828224, Note_off_c, 1, 91, 55
3, 828288, Note_off_c, 1, 91, 55
3, 828288, Note_on_c, 1, 91, 55
3, 828320, Note_off_c, 1, 91, 55
3, 828352, Note_off_c, 1, 91, 55
3, 828352, Note_on_c, 1, 92, 55
3, 828384, Note_off_c, 1, 92, 55
3, 828416, Note_off_c, 1, 92, 55
3, 828416, Note_on_c, 1, 94, 55
3, 828480, Note_off_c, 1, 94, 55
3, 828544, Note_off_c, 1, 94, 55
3, 828544, Note_on_c, 1, 94, 55
3, 828608, Note_off_c, 1, 94, 55
3, 828672, Note_off_c, 1, 94, 55
3, 828672, Note_on_c, 1, 94, 55
3, 828736, Note_off_c, 1, 94, 55
3, 828800, Note_off_c, 1, 94, 55
3, 828800, Note_on_c, 1, 91, 55
3, 828832, Note_off_c, 1, 91, 55
3, 828864, Note_off_c, 1, 91, 55
3, 828864, Note_on_c, 1, 92, 55
3, 828896, Note_off_c, 1, 92, 55
3, 828928, Note_off_c, 1, 92, 55
3, 828928, Note_on_c, 1, 94, 55
3, 828992, Note_off_c, 1, 94, 55
3, 829056, Note_off_c, 1, 94, 55
3, 829056, Note_on_c, 1, 94, 55
3, 829120, Note_off_c, 1, 94, 55
3, 829184, Note_off_c, 1, 94, 55
3, 829184, Note_on_c, 1, 94, 55
3, 829248, Note_off_c, 1, 94, 55
3, 829312, Note_off_c, 1, 94, 55
3, 829312, Note_on_c, 1, 91, 55
3, 829344, Note_off_c, 1, 91, 55
3, 829376, Note_off_c, 1, 91, 55
3, 829376, Note_on_c, 1, 92, 55
3, 829408, Note_off_c, 1, 92, 55
3, 829440, Note_off_c, 1, 92, 55
3, 829440, Note_on_c, 1, 94, 55
3, 829504, Note_off_c, 1, 94, 55
3, 829568, Note_off_c, 1, 94, 55
3, 829568, Note_on_c, 1, 94, 55
3, 829632, Note_off_c, 1, 94, 55
3, 829696, Note_off_c, 1, 94, 55
3, 830464, Control_c, 1, 93, 0
3, 831488, Control_c, 1, 93, 0
3, 831744, Control_c, 1, 93, 0
3, 831744, Note_on_c, 1, 77, 67
3, 832000, Note_off_c, 1, 77, 67
3, 832512, Control_c, 1, 93, 0
3, 833536, Control_c, 1, 93, 0
3, 834560, Control_c, 1, 93, 0
3, 835584, Control_c, 1, 93, 0
3, 836608, Control_c, 1, 93, 0
3, 837632, Control_c, 1, 93, 0
3, 838656, Control_c, 1, 93, 0
3, 839680, Control_c, 1, 93, 0
3, 840448, Control_c, 1, 93, 0
3, 840448, Note_on_c, 1, 91, 55
3, 840512, Note_off_c, 1, 91, 55
3, 840576, Note_off_c, 1, 91, 55
3, 840576, Note_on_c, 1, 91, 55
3, 840608, Note_off_c, 1, 91, 55
3, 840640, Note_off_c, 1, 91, 55
3, 840640, Note_on_c, 1, 92, 55
3, 840672, Note_off_c, 1, 92, 55
3, 840704, Note_off_c, 1, 92, 55
3, 840704, Note_on_c, 1, 94, 55
3, 840768, Note_off_c, 1, 94, 55
3, 840832, Note_off_c, 1, 94, 55
3, 840832, Note_on_c, 1, 94, 55
3, 840896, Note_off_c, 1, 94, 55
3, 840960, Note_off_c, 1, 94, 55
3, 840960, Note_on_c, 1, 94, 55
3, 841024, Note_off_c, 1, 94, 55
3, 841088, Note_off_c, 1, 94, 55
3, 841088, Note_on_c, 1, 91, 55
3, 841120, Note_off_c, 1, 91, 55
3, 841152, Note_off_c, 1, 91, 55
3, 841152, Note_on_c, 1, 92, 55
3, 841184, Note_off_c, 1, 92, 55
3, 841216, Note_off_c, 1, 92, 55
3, 841216, Note_on_c, 1, 94, 55
3, 841280, Note_off_c, 1, 94, 55
3, 841344, Note_off_c, 1, 94, 55
3, 841344, Note_on_c, 1, 94, 55
3, 841408, Note_off_c, 1, 94, 55
3, 841472, Note_off_c, 1, 94, 55
3, 841472, Note_on_c, 1, 94, 55
3, 841536, Note_off_c, 1, 94, 55
3, 841600, Note_off_c, 1, 94, 55
3, 841600, Note_on_c, 1, 91, 55
3, 841632, Note_off_c, 1, 91, 55
3, 841664, Note_off_c, 1, 91, 55
3, 841664, Note_on_c, 1, 92, 55
3, 841696, Note_off_c, 1, 92, 55
3, 841728, Note_off_c, 1, 92, 55
3, 841728, Note_on_c, 1, 94, 55
3, 841792, Note_off_c, 1, 94, 55
3, 841856, Note_off_c, 1, 94, 55
3, 841856, Note_on_c, 1, 94, 55
3, 841920, Note_off_c, 1, 94, 55
3, 841984, Note_off_c, 1, 94, 55
3, 842752, Control_c, 1, 93, 0
3, 843776, Control_c, 1, 93, 0
3, 844032, Control_c, 1, 93, 0
3, 844032, Note_on_c, 1, 77, 67
3, 844288, Note_off_c, 1, 77, 67
3, 844800, Control_c, 1, 93, 0
3, 845824, Control_c, 1, 93, 0
3, 846848, Control_c, 1, 93, 0
3, 847872, Control_c, 1, 93, 0
3, 848896, Control_c, 1, 93, 0
3, 849920, Control_c, 1, 93, 0
3, 850944, Control_c, 1, 93, 0
3, 851968, Control_c, 1, 93, 0
3, 852736, Control_c, 1, 93, 0
3, 852736, Note_on_c, 1, 91, 55
3, 852800, Note_off_c, 1, 91, 55
3, 852864, Note_off_c, 1, 91, 55
3, 852864, Note_on_c, 1, 91, 55
3, 852896, Note_off_c, 1, 91, 55
3, 852928, Note_off_c, 1, 91, 55
3, 852928, Note_on_c, 1, 92, 55
3, 852960, Note_off_c, 1, 92, 55
3, 852992, Note_off_c, 1, 92, 55
3, 852992, Note_on_c, 1, 94, 55
3, 853056, Note_off_c, 1, 94, 55
3, 853120, Note_off_c, 1, 94, 55
3, 853120, Note_on_c, 1, 94, 55
3, 853184, Note_off_c, 1, 94, 55
3, 853248, Note_off_c, 1, 94, 55
3, 853248, Note_on_c, 1, 94, 55
3, 853312, Note_off_c, 1, 94, 55
3, 853376, Note_off_c, 1, 94, 55
3, 853376, Note_on_c, 1, 91, 55
3, 853408, Note_off_c, 1, 91, 55
3, 853440, Note_off_c, 1, 91, 55
3, 853440, Note_on_c, 1, 92, 55
3, 853472, Note_off_c, 1, 92, 55
3, 853504, Note_off_c, 1, 92, 55
3, 853504, Note_on_c, 1, 94, 55
3, 853568, Note_off_c, 1, 94, 55
3, 853632, Note_off_c, 1, 94, 55
3, 853632, Note_on_c, 1, 94, 55
3, 853696, Note_off_c, 1, 94, 55
3, 853760, Note_off_c, 1, 94, 55
3, 853760, Note_on_c, 1, 94, 55
3, 853824, Note_off_c, 1, 94, 55
3, 853888, Note_off_c, 1, 94, 55
3, 853888, Note_on_c, 1, 91, 55
3, 853920, Note_off_c, 1, 91, 55
3, 853952, Note_off_c, 1, 91, 55
3, 853952, Note_on_c, 1, 92, 55
3, 853984, Note_off_c, 1, 92, 55
3, 854016, Note_off_c, 1, 92, 55
3, 854016, Note_on_c, 1, 94, 55
3, 854080, Note_off_c, 1, 94, 55
3, 854144, Note_off_c, 1, 94, 55
3, 854144, Note_on_c, 1, 94, 55
3, 854208, Note_off_c, 1, 94, 55
3, 854272, Note_off_c, 1, 94, 55
3, 855040, Control_c, 1, 93, 0
3, 856064, Control_c, 1, 93, 0
3, 856320, Control_c, 1, 93, 0
3, 856320, Note_on_c, 1, 77, 67
3, 856576, Note_off_c, 1, 77, 67
3, 857088, Control_c, 1, 93, 0
3, 858112, Control_c, 1, 93, 0
3, 859136, Control_c, 1, 93, 0
3, 860160, Control_c, 1, 93, 0
3, 861184, Control_c, 1, 93, 0
3, 862208, Control_c, 1, 93, 0
3, 863232, Control_c, 1, 93, 0
3, 864256, Control_c, 1, 93, 0
3, 865024, Control_c, 1, 93, 0
3, 865024, Note_on_c, 1, 91, 55
3, 865088, Note_off_c, 1, 91, 55
3, 865152, Note_off_c, 1, 91, 55
3, 865152, Note_on_c, 1, 91, 55
3, 865184, Note_off_c, 1, 91, 55
3, 865216, Note_off_c, 1, 91, 55
3, 865216, Note_on_c, 1, 92, 55
3, 865248, Note_off_c, 1, 92, 55
3, 865280, Note_off_c, 1, 92, 55
3, 865280, Note_on_c, 1, 94, 55
3, 865344, Note_off_c, 1, 94, 55
3, 865408, Note_off_c, 1, 94, 55
3, 865408, Note_on_c, 1, 94, 55
3, 865472, Note_off_c, 1, 94, 55
3, 865536, Note_off_c, 1, 94, 55
3, 865536, Note_on_c, 1, 94, 55
3, 865600, Note_off_c, 1, 94, 55
3, 865664, Note_off_c, 1, 94, 55
3, 865664, Note_on_c, 1, 91, 55
3, 865696, Note_off_c, 1, 91, 55
3, 865728, Note_off_c, 1, 91, 55
3, 865728, Note_on_c, 1, 92, 55
3, 865760, Note_off_c, 1, 92, 55
3, 865792, Note_off_c, 1, 92, 55
3, 865792, Note_on_c, 1, 94, 55
3, 865856, Note_off_c, 1, 94, 55
3, 865920, Note_off_c, 1, 94, 55
3, 865920, Note_on_c, 1, 94, 55
3, 865984, Note_off_c, 1, 94, 55
3, 866048, Note_off_c, 1, 94, 55
3, 866048, Note_on_c, 1, 94, 55
3, 866112, Note_off_c, 1, 94, 55
3, 866176, Note_off_c, 1, 94, 55
3, 866176, Note_on_c, 1, 91, 55
3, 866208, Note_off_c, 1, 91, 55
3, 866240, Note_off_c, 1, 91, 55
3, 866240, Note_on_c, 1, 92, 55
3, 866272, Note_off_c, 1, 92, 55
3, 866304, Note_off_c, 1, 92, 55
3, 866304, Note_on_c, 1, 94, 55
3, 866368, Note_off_c, 1, 94, 55
3, 866432, Note_off_c, 1, 94, 55
3, 866432, Note_on_c, 1, 94, 55
3, 866496, Note_off_c, 1, 94, 55
3, 866560, Note_off_c, 1, 94, 55
3, 867328, Control_c, 1, 93, 0
3, 868352, Control_c, 1, 93, 0
3, 868608, Control_c, 1, 93, 0
3, 868608, Note_on_c, 1, 77, 67
3, 868864, Note_off_c, 1, 77, 67
3, 869376, Control_c, 1, 93, 0
3, 870400, Control_c, 1, 93, 0
3, 871424, Control_c, 1, 93, 0
3, 872448, Control_c, 1, 93, 0
3, 873472, Control_c, 1, 93, 0
3, 874496, Control_c, 1, 93, 0
3, 875520, Control_c, 1, 93, 0
3, 876544, Control_c, 1, 93, 0
3, 877312, Control_c, 1, 93, 0
3, 877312, Note_on_c, 1, 91, 55
3, 877376, Note_off_c, 1, 91, 55
3, 877440, Note_off_c, 1, 91, 55
3, 877440, Note_on_c, 1, 91, 55
3, 877472, Note_off_c, 1, 91, 55
3, 877504, Note_off_c, 1, 91, 55
3, 877504, Note_on_c, 1, 92, 55
3, 877536, Note_off_c, 1, 92, 55
3, 877568, Note_off_c, 1, 92, 55
3, 877568, Note_on_c, 1, 94, 55
3, 877632, Note_off_c, 1, 94, 55
3, 877696, Note_off_c, 1, 94, 55
3, 877696, Note_on_c, 1, 94, 55
3, 877760, Note_off_c, 1, 94, 55
3, 877824, Note_off_c, 1, 94, 55
3, 877824, Note_on_c, 1, 94, 55
3, 877888, Note_off_c, 1, 94, 55
3, 877952, Note_off_c, 1, 94, 55
3, 877952, Note_on_c, 1, 91, 55
3, 877984, Note_off_c, 1, 91, 55
3, 878016, Note_off_c, 1, 91, 55
3, 878016, Note_on_c, 1, 92, 55
3, 878048, Note_off_c, 1, 92, 55
3, 878080, Note_off_c, 1, 92, 55
3, 878080, Note_on_c, 1, 94, 55
3, 878144, Note_off_c, 1, 94, 55
3, 878208, Note_off_c, 1, 94, 55
3, 878208, Note_on_c, 1, 94, 55
3, 878272, Note_off_c, 1, 94, 55
3, 878336, Note_off_c, 1, 94, 55
3, 878336, Note_on_c, 1, 94, 55
3, 878400, Note_off_c, 1, 94, 55
3, 878464, Note_off_c, 1, 94, 55
3, 878464, Note_on_c, 1, 91, 55
3, 878496, Note_off_c, 1, 91, 55
3, 878528, Note_off_c, 1, 91, 55
3, 878528, Note_on_c, 1, 92, 55
3, 878560, Note_off_c, 1, 92, 55
3, 878592, Note_off_c, 1, 92, 55
3, 878592, Note_on_c, 1, 94, 55
3, 878656, Note_off_c, 1, 94, 55
3, 878720, Note_off_c, 1, 94, 55
3, 878720, Note_on_c, 1, 94, 55
3, 878784, Note_off_c, 1, 94, 55
3, 878848, Note_off_c, 1, 94, 55
3, 879616, Control_c, 1, 93, 0
3, 880640, Control_c, 1, 93, 0
3, 880896, Control_c, 1, 93, 0
3, 880896, Note_on_c, 1, 77, 67
3, 881152, Note_off_c, 1, 77, 67
3, 881664, Control_c, 1, 93, 0
3, 882688, Control_c, 1, 93, 0
3, 883712, Control_c, 1, 93, 0
3, 884736, Control_c, 1, 93, 0
3, 885760, Control_c, 1, 93, 0
3, 886784, Control_c, 1, 93, 0
3, 887808, Control_c, 1, 93, 0
3, 888832, Control_c, 1, 93, 0
3, 889600, Control_c, 1, 93, 0
3, 889600, Note_on_c, 1, 91, 55
3, 889664, Note_off_c, 1, 91, 55
3, 889728, Note_off_c, 1, 91, 55
3, 889728, Note_on_c, 1, 91, 55
3, 889760, Note_off_c, 1, 91, 55
3, 889792, Note_off_c, 1, 91, 55
3, 889792, Note_on_c, 1, 92, 55
3, 889824, Note_off_c, 1, 92, 55
3, 889856, Note_off_c, 1, 92, 55
3, 889856, Note_on_c, 1, 94, 55
3, 889920, Note_off_c, 1, 94, 55
3, 889984, Note_off_c, 1, 94, 55
3, 889984, Note_on_c, 1, 94, 55
3, 890048, Note_off_c, 1, 94, 55
3, 890112, Note_off_c, 1, 94, 55
3, 890112, Note_on_c, 1, 94, 55
3, 890176, Note_off_c, 1, 94, 55
3, 890240, Note_off_c, 1, 94, 55
3, 890240, Note_on_c, 1, 91, 55
3, 890272, Note_off_c, 1, 91, 55
3, 890304, Note_off_c, 1, 91, 55
3, 890304, Note_on_c, 1, 92, 55
3, 890336, Note_off_c, 1, 92, 55
3, 890368, Note_off_c, 1, 92, 55
3, 890368, Note_on_c, 1, 94, 55
3, 890432, Note_off_c, 1, 94, 55
3, 890496, Note_off_c, 1, 94, 55
3, 890496, Note_on_c, 1, 94, 55
3, 890560, Note_off_c, 1, 94, 55
3, 890624, Note_off_c, 1, 94, 55
3, 890624, Note_on_c, 1, 94, 55
3, 890688, Note_off_c, 1, 94, 55
3, 890752, Note_off_c, 1, 94, 55
3, 890752, Note_on_c, 1, 91, 55
3, 890784, Note_off_c, 1, 91, 55
3, 890816, Note_off_c, 1, 91, 55
3, 890816, Note_on_c, 1, 92, 55
3, 890848, Note_off_c, 1, 92, 55
3, 890880, Note_off_c, 1, 92, 55
3, 890880, Note_on_c, 1, 94, 55
3, 890944, Note_off_c, 1, 94, 55
3, 891008, Note_off_c, 1, 94, 55
3, 891008, Note_on_c, 1, 94, 55
3, 891072, Note_off_c, 1, 94, 55
3, 891136, Note_off_c, 1, 94, 55
3, 891904, Control_c, 1, 93, 0
3, 892928, Control_c, 1, 93, 0
3, 893184, Control_c, 1, 93, 0
3, 893184, Note_on_c, 1, 77, 67
3, 893440, Note_off_c, 1, 77, 67
3, 893952, Control_c, 1, 93, 0
3, 894976, Control_c, 1, 93, 0
3, 896000, Control_c, 1, 93, 0
3, 897024, Control_c, 1, 93, 0
3, 898048, Control_c, 1, 93, 0
3, 899072, Control_c, 1, 93, 0
3, 900096, Control_c, 1, 93, 0
3, 901120, Control_c, 1, 93, 0
3, 901888, Control_c, 1, 93, 0
3, 901888, Note_on_c, 1, 91, 55
3, 901952, Note_off_c, 1, 91, 55
3, 902016, Note_off_c, 1, 91, 55
3, 902016, Note_on_c, 1, 91, 55
3, 902048, Note_off_c, 1, 91, 55
3, 902080, Note_off_c, 1, 91, 55
3, 902080, Note_on_c, 1, 92, 55
3, 902112, Note_off_c, 1, 92, 55
3, 902144, Note_off_c, 1, 92, 55
3, 902144, Note_on_c, 1, 94, 55
3, 902208, Note_off_c, 1, 94, 55
3, 902272, Note_off_c, 1, 94, 55
3, 902272, Note_on_c, 1, 94, 55
3, 902336, Note_off_c, 1, 94, 55
3, 902400, Note_off_c, 1, 94, 55
3, 902400, Note_on_c, 1, 94, 55
3, 902464, Note_off_c, 1, 94, 55
3, 902528, Note_off_c, 1, 94, 55
3, 902528, Note_on_c, 1, 91, 55
3, 902560, Note_off_c, 1, 91, 55
3, 902592, Note_off_c, 1, 91, 55
3, 902592, Note_on_c, 1, 92, 55
3, 902624, Note_off_c, 1, 92, 55
3, 902656, Note_off_c, 1, 92, 55
3, 902656, Note_on_c, 1, 94, 55
3, 902720, Note_off_c, 1, 94, 55
3, 902784, Note_off_c, 1, 94, 55
3, 902784, Note_on_c, 1, 94, 55
3, 902848, Note_off_c, 1, 94, 55
3, 902912, Note_off_c, 1, 94, 55
3, 902912, Note_on_c, 1, 94, 55
3, 902976, Note_off_c, 1, 94, 55
3, 903040, Note_off_c, 1, 94, 55
3, 903040, Note_on_c, 1, 91, 55
3, 903072, Note_off_c, 1, 91, 55
3, 903104, Note_off_c, 1, 91, 55
3, 903104, Note_on_c, 1, 92, 55
3, 903136, Note_off_c, 1, 92, 55
3, 903168, Note_off_c, 1, 92, 55
3, 903168, Note_on_c, 1, 94, 55
3, 903232, Note_off_c, 1, 94, 55
3, 903296, Note_off_c, 1, 94, 55
3, 903296, Note_on_c, 1, 94, 55
3, 903360, Note_off_c, 1, 94, 55
3, 903424, Note_off_c, 1, 94, 55
3, 904192, Control_c, 1, 93, 0
3, 905216, Control_c, 1, 93, 0
3, 905472, Control_c, 1, 93, 0
3, 905472, Note_on_c, 1, 77, 67
3, 905728, Note_off_c, 1, 77, 67
3, 906240, Control_c, 1, 93, 0
3, 907264, Control_c, 1, 93, 0
3, 908288, Control_c, 1, 93, 0
3, 909312, Control_c, 1, 93, 0
3, 910336, Control_c, 1, 93, 0
3, 911360, Control_c, 1, 93, 0
3, 912384, Control_c, 1, 93, 0
3, 913408, Control_c, 1, 93, 0
3, 914176, Control_c, 1, 93, 0
3, 914176, Note_on_c, 1, 91, 55
3, 914240, Note_off_c, 1, 91, 55
3, 914304, Note_off_c, 1, 91, 55
3, 914304, Note_on_c, 1, 91, 55
3, 914336, Note_off_c, 1, 91, 55
3, 914368, Note_off_c, 1, 91, 55
3, 914368, Note_on_c, 1, 92, 55
3, 914400, Note_off_c, 1, 92, 55
3, 914432, Note_off_c, 1, 92, 55
3, 914432, Note_on_c, 1, 94, 55
3, 914496, Note_off_c, 1, 94, 55
3, 914560, Note_off_c, 1, 94, 55
3, 914560, Note_on_c, 1, 94, 55
3, 914624, Note_off_c, 1, 94, 55
3, 914688, Note_off_c, 1, 94, 55
3, 914688, Note_on_c, 1, 94, 55
3, 914752, Note_off_c, 1, 94, 55
3, 914816, Note_off_c, 1, 94, 55
3, 914816, Note_on_c, 1, 91, 55
3, 914848, Note_off_c, 1, 91, 55
3, 914880, Note_off_c, 1, 91, 55
3, 914880, Note_on_c, 1, 92, 55
3, 914912, Note_off_c, 1, 92, 55
3, 914944, Note_off_c, 1, 92, 55
3, 914944, Note_on_c, 1, 94, 55
3, 915008, Note_off_c, 1, 94, 55
3, 915072, Note_off_c, 1, 94, 55
3, 915072, Note_on_c, 1, 94, 55
3, 915136, Note_off_c, 1, 94, 55
3, 915200, Note_off_c, 1, 94, 55
3, 915200, Note_on_c, 1, 94, 55
3, 915264, Note_off_c, 1, 94, 55
3, 915328, Note_off_c, 1, 94, 55
3, 915328, Note_on_c, 1, 91, 55
3, 915360, Note_off_c, 1, 91, 55
3, 915392, Note_off_c, 1, 91, 55
3, 915392, Note_on_c, 1, 92, 55
3, 915424, Note_off_c, 1, 92, 55
3, 915456, Note_off_c, 1, 92, 55
3, 915456, Note_on_c, 1, 94, 55
3, 915520, Note_off_c, 1, 94, 55
3, 915584, Note_off_c, 1, 94, 55
3, 915584, Note_on_c, 1, 94, 55
3, 915648, Note_off_c, 1, 94, 55
3, 915712, Note_off_c, 1, 94, 55
3, 916480, Control_c, 1, 93, 0
3, 917504, Control_c, 1, 93, 0
3, 917760, Control_c, 1, 93, 0
3, 917760, Note_on_c, 1, 77, 67
3, 918016, Note_off_c, 1, 77, 67
3, 918528, Control_c, 1, 93, 0
3, 919552, Control_c, 1, 93, 0
3, 920576, Control_c, 1, 93, 0
3, 921600, Control_c, 1, 93, 0
3, 922624, Control_c, 1, 93, 0
3, 923648, Control_c, 1, 93, 0
3, 924672, Control_c, 1, 93, 0
3, 925696, Control_c, 1, 93, 0
3, 926464, Control_c, 1, 93, 0
3, 926464, Note_on_c, 1, 91, 55
3, 926528, Note_off_c, 1, 91, 55
3, 926592, Note_off_c, 1, 91, 55
3, 926592, Note_on_c, 1, 91, 55
3, 926624, Note_off_c, 1, 91, 55
3, 926656, Note_off_c, 1, 91, 55
3, 926656, Note_on_c, 1, 92, 55
3, 926688, Note_off_c, 1, 92, 55
3, 926720, Note_off_c, 1, 92, 55
3, 926720, Note_on_c, 1, 94, 55
3, 926784, Note_off_c, 1, 94, 55
3, 926848, Note_off_c, 1, 94, 55
3, 926848, Note_on_c, 1, 94, 55
3, 926912, Note_off_c, 1, 94, 55
3, 926976, Note_off_c, 1, 94, 55
3, 926976, Note_on_c, 1, 94, 55
3, 927040, Note_off_c, 1, 94, 55
3, 927104, Note_off_c, 1, 94, 55
3, 927104, Note_on_c, 1, 91, 55
3, 927136, Note_off_c, 1, 91, 55
3, 927168, Note_off_c, 1, 91, 55
3, 927168, Note_on_c, 1, 92, 55
3, 927200, Note_off_c, 1, 92, 55
3, 927232, Note_off_c, 1, 92, 55
3, 927232, Note_on_c, 1, 94, 55
3, 927296, Note_off_c, 1, 94, 55
3, 927360, Note_off_c, 1, 94, 55
3, 927360, Note_on_c, 1, 94, 55
3, 927424, Note_off_c, 1, 94, 55
3, 927488, Note_off_c, 1, 94, 55
3, 927488, Note_on_c, 1, 94, 55
3, 927552, Note_off_c, 1, 94, 55
3, 927616, Note_off_c, 1, 94, 55
3, 927616, Note_on_c, 1, 91, 55
3, 927648, Note_off_c, 1, 91, 55
3, 927680, Note_off_c, 1, 91, 55
3, 927680, Note_on_c, 1, 92, 55
3, 927712, Note_off_c, 1, 92, 55
3, 927744, Note_off_c, 1, 92, 55
3, 927744, Note_on_c, 1, 94, 55
3, 927808, Note_off_c, 1, 94, 55
3, 927872, Note_off_c, 1, 94, 55
3, 927872, Note_on_c, 1, 94, 55
3, 927936, Note_off_c, 1, 94, 55
3, 928000, Note_off_c, 1, 94, 55
3, 928768, Control_c, 1, 93, 0
3, 929792, Control_c, 1, 93, 0
3, 930048, Control_c, 1, 93, 0
3, 930048, Note_on_c, 1, 77, 67
3, 930304, Note_off_c, 1, 77, 67
3, 930816, Control_c, 1, 93, 0
3, 931840, Control_c, 1, 93, 0
3, 932864, Control_c, 1, 93, 0
3, 933888, Control_c, 1, 93, 0
3, 934912, Control_c, 1, 93, 0
3, 935936, Control_c, 1, 93, 0
3, 936960, Control_c, 1, 93, 0
3, 937984, Control_c, 1, 93, 0
3, 938752, Control_c, 1, 93, 0
3, 938752, Note_on_c, 1, 91, 55
3, 938816, Note_off_c, 1, 91, 55
3, 938880, Note_off_c, 1, 91, 55
3, 938880, Note_on_c, 1, 91, 55
3, 938912, Note_off_c, 1, 91, 55
3, 938944, Note_off_c, 1, 91, 55
3, 938944, Note_on_c, 1, 92, 55
3, 938976, Note_off_c, 1, 92, 55
3, 939008, Note_off_c, 1, 92, 55
3, 939008, Note_on_c, 1, 94, 55
3, 939072, Note_off_c, 1, 94, 55
3, 939136, Note_off_c, 1, 94, 55
3, 939136, Note_on_c, 1, 94, 55
3, 939200, Note_off_c, 1, 94, 55
3, 939264, Note_off_c, 1, 94, 55
3, 939264, Note_on_c, 1, 94, 55
3, 939328, Note_off_c, 1, 94, 55
3, 939392, Note_off_c, 1, 94, 55
3, 939392, Note_on_c, 1, 91, 55
3, 939424, Note_off_c, 1, 91, 55
3, 939456, Note_off_c, 1, 91, 55
3, 939456, Note_on_c, 1, 92, 55
3, 939488, Note_off_c, 1, 92, 55
3, 939520, Note_off_c, 1, 92, 55
3, 939520, Note_on_c, 1, 94, 55
3, 939584, Note_off_c, 1, 94, 55
3, 939648, Note_off_c, 1, 94, 55
3, 939648, Note_on_c, 1, 94, 55
3, 939712, Note_off_c, 1, 94, 55
3, 939776, Note_off_c, 1, 94, 55
3, 939776, Note_on_c, 1, 94, 55
3, 939840, Note_off_c, 1, 94, 55
3, 939904, Note_off_c, 1, 94, 55
3, 939904, Note_on_c, 1, 91, 55
3, 939936, Note_off_c, 1, 91, 55
3, 939968, Note_off_c, 1, 91, 55
3, 939968, Note_on_c, 1, 92, 55
3, 940000, Note_off_c, 1, 92, 55
3, 940032, Note_off_c, 1, 92, 55
3, 940032, Note_on_c, 1, 94, 55
3, 940096, Note_off_c, 1, 94, 55
3, 940160, Note_off_c, 1, 94, 55
3, 940160, Note_on_c, 1, 94, 55
3, 940224, Note_off_c, 1, 94, 55
3, 940288, Note_off_c, 1, 94, 55
3, 941056, Control_c, 1, 93, 0
3, 942080, Control_c, 1, 93, 0
3, 942336, Control_c, 1, 93, 0
3, 942336, Note_on_c, 1, 77, 67
3, 942592, Note_off_c, 1, 77, 67
3, 943104, Control_c, 1, 93, 0
3, 944128, Control_c, 1, 93, 0
3, 945152, Control_c, 1, 93, 0
3, 946176, Control_c, 1, 93, 0
3, 947200, Control_c, 1, 93, 0
3, 948224, Control_c, 1, 93, 0
3, 949248, Control_c, 1, 93, 0
3, 950272, Control_c, 1, 93, 0
3, 951040, Control_c, 1, 93, 0
3, 951040, Note_on_c, 1, 91, 55
3, 951104, Note_off_c, 1, 91, 55
3, 951168, Note_off_c, 1, 91, 55
3, 951168, Note_on_c, 1, 91, 55
3, 951200, Note_off_c, 1, 91, 55
3, 951232, Note_off_c, 1, 91, 55
3, 951232, Note_on_c, 1, 92, 55
3, 951264, Note_off_c, 1, 92, 55
3, 951296, Note_off_c, 1, 92, 55
3, 951296, Note_on_c, 1, 94, 55
3, 951360, Note_off_c, 1, 94, 55
3, 951424, Note_off_c, 1, 94, 55
3, 951424, Note_on_c, 1, 94, 55
3, 951488, Note_off_c, 1, 94, 55
3, 951552, Note_off_c, 1, 94, 55
3, 951552, Note_on_c, 1, 94, 55
3, 951616, Note_off_c, 1, 94, 55
3, 951680, Note_off_c, 1, 94, 55
3, 951680, Note_on_c, 1, 91, 55
3, 951712, Note_off_c, 1, 91, 55
3, 951744, Note_off_c, 1, 91, 55
3, 951744, Note_on_c, 1, 92, 55
3, 951776, Note_off_c, 1, 92, 55
3, 951808, Note_off_c, 1, 92, 55
3, 951808, Note_on_c, 1, 94, 55
3, 951872, Note_off_c, 1, 94, 55
3, 951936, Note_off_c, 1, 94, 55
3, 951936, Note_on_c, 1, 94, 55
3, 952000, Note_off_c, 1, 94, 55
3, 952064, Note_off_c, 1, 94, 55
3, 952064, Note_on_c, 1, 94, 55
3, 952128, Note_off_c, 1, 94, 55
3, 952192, Note_off_c, 1, 94, 55
3, 952192, Note_on_c, 1, 91, 55
3, 952224, Note_off_c, 1, 91, 55
3, 952256, Note_off_c, 1, 91, 55
3, 952256, Note_on_c, 1, 92, 55
3, 952288, Note_off_c, 1, 92, 55
3, 952320, Note_off_c, 1, 92, 55
3, 952320, Note_on_c, 1, 94, 55
3, 952384, Note_off_c, 1, 94, 55
3, 952448, Note_off_c, 1, 94, 55
3, 952448, Note_on_c, 1, 94, 55
3, 952512, Note_off_c, 1, 94, 55
3, 952576, Note_off_c, 1, 94, 55
3, 953344, Control_c, 1, 93, 0
3, 954368, Control_c, 1, 93, 0
3, 954624, Control_c, 1, 93, 0
3, 954624, Note_on_c, 1, 77, 67
3, 954880, Note_off_c, 1, 77, 67
3, 955392, Control_c, 1, 93, 0
3, 956416, Control_c, 1, 93, 0
3, 957440, Control_c, 1, 93, 0
3, 958464, Control_c, 1, 93, 0
3, 959488, Control_c, 1, 93, 0
3, 960512, Control_c, 1, 93, 0
3, 961536, Control_c, 1, 93, 0
3, 962560, Control_c, 1, 93, 0
3, 963328, Control_c, 1, 93, 0
3, 963328, Note_on_c, 1, 91, 55
3, 963392, Note_off_c, 1, 91, 55
3, 963456, Note_off_c, 1, 91, 55
3, 963456, Note_on_c, 1, 91, 55
3, 963488, Note_off_c, 1, 91, 55
3, 963520, Note_off_c, 1, 91, 55
3, 963520, Note_on_c, 1, 92, 55
3, 963552, Note_off_c, 1, 92, 55
3, 963584, Note_off_c, 1, 92, 55
3, 963584, Note_on_c, 1, 94, 55
3, 963648, Note_off_c, 1, 94, 55
3, 963712, Note_off_c, 1, 94, 55
3, 963712, Note_on_c, 1, 94, 55
3, 963776, Note_off_c, 1, 94, 55
3, 963840, Note_off_c, 1, 94, 55
3, 963840, Note_on_c, 1, 94, 55
3, 963904, Note_off_c, 1, 94, 55
3, 963968, Note_off_c, 1, 94, 55
3, 963968, Note_on_c, 1, 91, 55
3, 964000, Note_off_c, 1, 91, 55
3, 964032, Note_off_c, 1, 91, 55
3, 964032, Note_on_c, 1, 92, 55
3, 964064, Note_off_c, 1, 92, 55
3, 964096, Note_off_c, 1, 92, 55
3, 964096, Note_on_c, 1, 94, 55
3, 964160, Note_off_c, 1, 94, 55
3, 964224, Note_off_c, 1, 94, 55
3, 964224, Note_on_c, 1, 94, 55
3, 964288, Note_off_c, 1, 94, 55
3, 964352, Note_off_c, 1, 94, 55
3, 964352, Note_on_c, 1, 94, 55
3, 964416, Note_off_c, 1, 94, 55
3, 964480, Note_off_c, 1, 94, 55
3, 964480, Note_on_c, 1, 91, 55
3, 964512, Note_off_c, 1, 91, 55
3, 964544, Note_off_c, 1, 91, 55
3, 964544, Note_on_c, 1, 92, 55
3, 964576, Note_off_c, 1, 92, 55
3, 964608, Note_off_c, 1, 92, 55
3, 964608, Note_on_c, 1, 94, 55
3, 964672, Note_off_c, 1, 94, 55
3, 964736, Note_off_c, 1, 94, 55
3, 964736, Note_on_c, 1, 94, 55
3, 964800, Note_off_c, 1, 94, 55
3, 964864, Note_off_c, 1, 94, 55
3, 965632, Control_c, 1, 93, 0
3, 966656, Control_c, 1, 93, 0
3, 966912, Control_c, 1, 93, 0
3, 966912, Note_on_c, 1, 77, 67
3, 967168, Note_off_c, 1, 77, 67
3, 967680, Control_c, 1, 93, 0
3, 968704, Control_c, 1, 93, 0
3, 969728, Control_c, 1, 93, 0
3, 970752, Control_c, 1, 93, 0
3, 971776, Control_c, 1, 93, 0
3, 972800, Control_c, 1, 93, 0
3, 973824, Control_c, 1, 93, 0
3, 974848, Control_c, 1, 93, 0
3, 975616, Control_c, 1, 93, 0
3, 975616, Note_on_c, 1, 91, 55
3, 975680, Note_off_c, 1, 91, 55
3, 975744, Note_off_c, 1, 91, 55
3, 975744, Note_on_c, 1, 91, 55
3, 975776, Note_off_c, 1, 91, 55
3, 975808, Note_off_c, 1, 91, 55
3, 975808, Note_on_c, 1, 92, 55
3, 975840, Note_off_c, 1, 92, 55
3, 975872, Note_off_c, 1, 92, 55
3, 975872, Note_on_c, 1, 94, 55
3, 975936, Note_off_c, 1, 94, 55
3, 976000, Note_off_c, 1, 94, 55
3, 976000, Note_on_c, 1, 94, 55
3, 976064, Note_off_c, 1, 94, 55
3, 976128, Note_off_c, 1, 94, 55
3, 976128, Note_on_c, 1, 94, 55
3, 976192, Note_off_c, 1, 94, 55
3, 976256, Note_off_c, 1, 94, 55
3, 976256, Note_on_c, 1, 91, 55
3, 976288, Note_off_c, 1, 91, 55
3, 976320, Note_off_c, 1, 91, 55
3, 976320, Note_on_c, 1, 92, 55
3, 976352, Note_off_c, 1, 92, 55
3, 976384, Note_off_c, 1, 92, 55
3, 976384, Note_on_c, 1, 94, 55
3, 976448, Note_off_c, 1, 94, 55
3, 976512, Note_off_c, 1, 94, 55
3, 976512, Note_on_c, 1, 94, 55
3, 976576, Note_off_c, 1, 94, 55
3, 976640, Note_off_c, 1, 94, 55
3, 976640, Note_on_c, 1, 94, 55
3, 976704, Note_off_c, 1, 94, 55
3, 976768, Note_off_c, 1, 94, 55
3, 976768, Note_on_c, 1, 91, 55
3, 976800, Note_off_c, 1, 91, 55
3, 976832, Note_off_c, 1, 91, 55
3, 976832, Note_on_c, 1, 92, 55
3, 976864, Note_off_c, 1, 92, 55
3, 976896, Note_off_c, 1, 92, 55
3, 976896, Note_on_c, 1, 94, 55
3, 976960, Note_off_c, 1, 94, 55
3, 977024, Note_off_c, 1, 94, 55
3, 977024, Note_on_c, 1, 94, 55
3, 977088, Note_off_c, 1, 94, 55
3, 977152, Note_off_c, 1, 94, 55
3, 977920, Control_c, 1, 93, 0
3, 978944, Control_c, 1, 93, 0
3, 979200, Control_c, 1, 93, 0
3, 979200, Note_on_c, 1, 77, 67
3, 979456, Note_off_c, 1, 77, 67
3, 979968, Control_c, 1, 93, 0
3, 980992, Control_c, 1, 93, 0
3, 982016, Control_c, 1, 93, 0
3, 983040, Control_c, 1, 93, 0
3, 984064, Control_c, 1, 93, 0
3, 985088, Control_c, 1, 93, 0
3, 986112, Control_c, 1, 93, 0
3, 987136, Control_c, 1, 93, 0
3, 987904, Control_c, 1, 93, 0
3, 987904, Note_on_c, 1, 91, 55
3, 987968, Note_off_c, 1, 91, 55
3, 988032, Note_off_c, 1, 91, 55
3, 988032, Note_on_c, 1, 91, 55
3, 988064, Note_off_c, 1, 91, 55
3, 988096, Note_off_c, 1, 91, 55
3, 988096, Note_on_c, 1, 92, 55
3, 988128, Note_off_c, 1, 92, 55
3, 988160, Note_off_c, 1, 92, 55
3, 988160, Note_on_c, 1, 94, 55
3, 988224, Note_off_c, 1, 94, 55
3, 988288, Note_off_c, 1, 94, 55
3, 988288, Note_on_c, 1, 94, 55
3, 988352, Note_off_c, 1, 94, 55
3, 988416, Note_off_c, 1, 94, 55
3, 988416, Note_on_c, 1, 94, 55
3, 988480, Note_off_c, 1, 94, 55
3, 988544, Note_off_c, 1, 94, 55
3, 988544, Note_on_c, 1, 91, 55
3, 988576, Note_off_c, 1, 91, 55
3, 988608, Note_off_c, 1, 91, 55
3, 988608, Note_on_c, 1, 92, 55
3, 988640, Note_off_c, 1, 92, 55
3, 988672, Note_off_c, 1, 92, 55
3, 988672, Note_on_c, 1, 94, 55
3, 988736, Note_off_c, 1, 94, 55
3, 988800, Note_off_c, 1, 94, 55
3, 988800, Note_on_c, 1, 94, 55
3, 988864, Note_off_c, 1, 94, 55
3, 988928, Note_off_c, 1, 94, 55
3, 988928, Note_on_c, 1, 94, 55
3, 988992, Note_off_c, 1, 94, 55
3, 989056, Note_off_c, 1, 94, 55
3, 989056, Note_on_c, 1, 91, 55
3, 989088, Note_off_c, 1, 91, 55
3, 989120, Note_off_c, 1, 91, 55
3, 989120, Note_on_c, 1, 92, 55
3, 989152, Note_off_c, 1, 92, 55
3, 989184, Note_off_c, 1, 92, 55
3, 989184, Note_on_c, 1, 94, 55
3, 989248, Note_off_c, 1, 94, 55
3, 989312, Note_off_c, 1, 94, 55
3, 989312, Note_on_c, 1, 94, 55
3, 989376, Note_off_c, 1, 94, 55
3, 989440, Note_off_c, 1, 94, 55
3, 990208, Control_c, 1, 93, 0
3, 991232, Control_c, 1, 93, 0
3, 991488, Control_c, 1, 93, 0
3, 991488, Note_on_c, 1, 77, 67
3, 991744, Note_off_c, 1, 77, 67
3, 992256, Control_c, 1, 93, 0
3, 993280, Control_c, 1, 93, 0
3, 994304, Control_c, 1, 93, 0
3, 995328, Control_c, 1, 93, 0
3, 996352, Control_c, 1, 93, 0
3, 997376, Control_c, 1, 93, 0
3, 998400, Control_c, 1, 93, 0
3, 999424, Control_c, 1, 93, 0
3, 1000192, Control_c, 1, 93, 0
3, 1000192, Note_on_c, 1, 91, 55
3, 1000256, Note_off_c, 1, 91, 55
3, 1000320, Note_off_c, 1, 91, 55
3, 1000320, Note_on_c, 1, 91, 55
3, 1000352, Note_off_c, 1, 91, 55
3, 1000384, Note_off_c, 1, 91, 55
3, 1000384, Note_on_c, 1, 92, 55
3, 1000416, Note_off_c, 1, 92, 55
3, 1000448, Note_off_c, 1, 92, 55
3, 1000448, Note_on_c, 1, 94, 55
3, 1000512, Note_off_c, 1, 94, 55
3, 1000576, Note_off_c, 1, 94, 55
3, 1000576, Note_on_c, 1, 94, 55
3, 1000640, Note_off_c, 1, 94, 55
3, 1000704, Note_off_c, 1, 94, 55
3, 1000704, Note_on_c, 1, 94, 55
3, 1000768, Note_off_c, 1, 94, 55
3, 1000832, Note_off_c, 1, 94, 55
3, 1000832, Note_on_c, 1, 91, 55
3, 1000864, Note_off_c, 1, 91, 55
3, 1000896, Note_off_c, 1, 91, 55
3, 1000896, Note_on_c, 1, 92, 55
3, 1000928, Note_off_c, 1, 92, 55
3, 1000960, Note_off_c, 1, 92, 55
3, 1000960, Note_on_c, 1, 94, 55
3, 1001024, Note_off_c, 1, 94, 55
3, 1001088, Note_off_c, 1, 94, 55
3, 1001088, Note_on_c, 1, 94, 55
3, 1001152, Note_off_c, 1, 94, 55
3, 1001216, Note_off_c, 1, 94, 55
3, 1001216, Note_on_c, 1, 94, 55
3, 1001280, Note_off_c, 1, 94, 55
3, 1001344, Note_off_c, 1, 94, 55
3, 1001344, Note_on_c, 1, 91, 55
3, 1001376, Note_off_c, 1, 91, 55
3, 1001408, Note_off_c, 1, 91, 55
3, 1001408, Note_on_c, 1, 92, 55
3, 1001440, Note_off_c, 1, 92, 55
3, 1001472, Note_off_c, 1, 92, 55
3, 1001472, Note_on_c, 1, 94, 55
3, 1001536, Note_off_c, 1, 94, 55
3, 1001600, Note_off_c, 1, 94, 55
3, 1001600, Note_on_c, 1, 94, 55
3, 1001664, Note_off_c, 1, 94, 55
3, 1001728, Note_off_c, 1, 94, 55
3, 1002496, Control_c, 1, 93, 0
3, 1003520, Control_c, 1, 93, 0
3, 1003776, Control_c, 1, 93, 0
3, 1003776, Note_on_c, 1, 77, 67
3, 1004032, Note_off_c, 1, 77, 67
3, 1004544, Control_c, 1, 93, 0
3, 1005568, Control_c, 1, 93, 0
3, 1006592, Control_c, 1, 93, 0
3, 1007616, Control_c, 1, 93, 0
3, 1008640, Control_c, 1, 93, 0
3, 1009664, Control_c, 1, 93, 0
3, 1010688, Control_c, 1, 93, 0
3, 1011712, Control_c, 1, 93, 0
3, 1012480, Control_c, 1, 93, 0
3, 1012480, Note_on_c, 1, 91, 55
3, 1012544, Note_off_c, 1, 91, 55
3, 1012608, Note_off_c, 1, 91, 55
3, 1012608, Note_on_c, 1, 91, 55
3, 1012640, Note_off_c, 1, 91, 55
3, 1012672, Note_off_c, 1, 91, 55
3, 1012672, Note_on_c, 1, 92, 55
3, 1012704, Note_off_c, 1, 92, 55
3, 1012736, Note_off_c, 1, 92, 55
3, 1012736, Note_on_c, 1, 94, 55
3, 1012800, Note_off_c, 1, 94, 55
3, 1012864, Note_off_c, 1, 94, 55
3, 1012864, Note_on_c, 1, 94, 55
3, 1012928, Note_off_c, 1, 94, 55
3, 1012992, Note_off_c, 1, 94, 55
3, 1012992, Note_on_c, 1, 94, 55
3, 1013056, Note_off_c, 1, 94, 55
3, 1013120, Note_off_c, 1, 94, 55
3, 1013120, Note_on_c, 1, 91, 55
3, 1013152, Note_off_c, 1, 91, 55
3, 1013184, Note_off_c, 1, 91, 55
3, 1013184, Note_on_c, 1, 92, 55
3, 1013216, Note_off_c, 1, 92, 55
3, 1013248, Note_off_c, 1, 92, 55
3, 1013248, Note_on_c, 1, 94, 55
3, 1013312, Note_off_c, 1, 94, 55
3, 1013376, Note_off_c, 1, 94, 55
3, 1013376, Note_on_c, 1, 94, 55
3, 1013440, Note_off_c, 1, 94, 55
3, 1013504, Note_off_c, 1, 94, 55
3, 1013504, Note_on_c, 1, 94, 55
3, 1013568, Note_off_c, 1, 94, 55
3, 1013632, Note_off_c, 1, 94, 55
3, 1013632, Note_on_c, 1, 91, 55
3, 1013664, Note_off_c, 1, 91, 55
3, 1013696, Note_off_c, 1, 91, 55
3, 1013696, Note_on_c, 1, 92, 55
3, 1013728, Note_off_c, 1, 92, 55
3, 1013760, Note_off_c, 1, 92, 55
3, 1013760, Note_on_c, 1, 94, 55
3, 1013824, Note_off_c, 1, 94, 55
3, 1013888, Note_off_c, 1, 94, 55
3, 1013888, Note_on_c, 1, 94, 55
3, 1013952, Note_off_c, 1, 94, 55
3, 1014016, Note_off_c, 1, 94, 55
3, 1014784, Control_c, 1, 93, 0
3, 1015808, Control_c, 1, 93, 0
3, 1016064, Control_c, 1, 93, 0
3, 1016064, Note_on_c, 1, 77, 67
3, 1016320, Note_off_c, 1, 77, 67
3, 1016832, Control_c, 1, 93, 0
3, 1017856, Control_c, 1, 93, 0
3, 1018880, Control_c, 1, 93, 0
3, 1019904, Control_c, 1, 93, 0
3, 1020928, Control_c, 1, 93, 0
3, 1021952, Control_c, 1, 93, 0
3, 1022976, Control_c, 1, 93, 0
3, 1024000, Control_c, 1, 93, 0
3, 1024768, Control_c, 1, 93, 0
3, 1024768, Note_on_c, 1, 91, 55
3, 1024832, Note_off_c, 1, 91, 55
3, 1024896, Note_off_c, 1, 91, 55
3, 1024896, Note_on_c, 1, 91, 55
3, 1024928, Note_off_c, 1, 91, 55
3, 1024960, Note_off_c, 1, 91, 55
3, 1024960, Note_on_c, 1, 92, 55
3, 1024992, Note_off_c, 1, 92, 55
3, 1025024, Note_off_c, 1, 92, 55
3, 1025024, Note_on_c, 1, 94, 55
3, 1025088, Note_off_c, 1, 94, 55
3, 1025152, Note_off_c, 1, 94, 55
3, 1025152, Note_on_c, 1, 94, 55
3, 1025216, Note_off_c, 1, 94, 55
3, 1025280, Note_off_c, 1, 94, 55
3, 1025280, Note_on_c, 1, 94, 55
3, 1025344, Note_off_c, 1, 94, 55
3, 1025408, Note_off_c, 1, 94, 55
3, 1025408, Note_on_c, 1, 91, 55
3, 1025440, Note_off_c, 1, 91, 55
3, 1025472, Note_off_c, 1, 91, 55
3, 1025472, Note_on_c, 1, 92, 55
3, 1025504, Note_off_c, 1, 92, 55
3, 1025536, Note_off_c, 1, 92, 55
3, 1025536, Note_on_c, 1, 94, 55
3, 1025600, Note_off_c, 1, 94, 55
3, 1025664, Note_off_c, 1, 94, 55
3, 1025664, Note_on_c, 1, 94, 55
3, 1025728, Note_off_c, 1, 94, 55
3, 1025792, Note_off_c, 1, 94, 55
3, 1025792, Note_on_c, 1, 94, 55
3, 1025856, Note_off_c, 1, 94, 55
3, 1025920, Note_off_c, 1, 94, 55
3, 1025920, Note_on_c, 1, 91, 55
3, 1025952, Note_off_c, 1, 91, 55
3, 1025984, Note_off_c, 1, 91, 55
3, 1025984, Note_on_c, 1, 92, 55
3, 1026016, Note_off_c, 1, 92, 55
3, 1026048, Note_off_c, 1, 92, 55
3, 1026048, Note_on_c, 1, 94, 55
3, 1026112, Note_off_c, 1, 94, 55
3, 1026176, Note_off_c, 1, 94, 55
3, 1026176, Note_on_c, 1, 94, 55
3, 1026240, Note_off_c, 1, 94, 55
3, 1026304, Note_off_c, 1, 94, 55
3, 1027072, Control_c, 1, 93, 0
3, 1028096, Control_c, 1, 93, 0
3, 1028352, Control_c, 1, 93, 0
3, 1028352, Note_on_c, 1, 77, 67
3, 1028608, Note_off_c, 1, 77, 67
3, 1029120, Control_c, 1, 93, 0
3, 1030144, Control_c, 1, 93, 0
3, 1031168, Control_c, 1, 93, 0
3, 1032192, Control_c, 1, 93, 0
3, 1033216, Control_c, 1, 93, 0
3, 1034240, Control_c, 1, 93, 0
3, 1035264, Control_c, 1, 93, 0
3, 1036288, Control_c, 1, 93, 0
3, 1037056, Control_c, 1, 93, 0
3, 1037056, Note_on_c, 1, 91, 55
3, 1037120, Note_off_c, 1, 91, 55
3, 1037184, Note_off_c, 1, 91, 55
3, 1037184, Note_on_c, 1, 91, 55
3, 1037216, Note_off_c, 1, 91, 55
3, 1037248, Note_off_c, 1, 91, 55
3, 1037248, Note_on_c, 1, 92, 55
3, 1037280, Note_off_c, 1, 92, 55
3, 1037312, Note_off_c, 1, 92, 55
3, 1037312, Note_on_c, 1, 94, 55
3, 1037376, Note_off_c, 1, 94, 55
3, 1037440, Note_off_c, 1, 94, 55
3, 1037440, Note_on_c, 1, 94, 55
3, 1037504, Note_off_c, 1, 94, 55
3, 1037568, Note_off_c, 1, 94, 55
3, 1037568, Note_on_c, 1, 94, 55
3, 1037632, Note_off_c, 1, 94, 55
3, 1037696, Note_off_c, 1, 94, 55
3, 1037696, Note_on_c, 1, 91, 55
3, 1037728, Note_off_c, 1, 91, 55
3, 1037760, Note_off_c, 1, 91, 55
3, 1037760, Note_on_c, 1, 92, 55
3, 1037792, Note_off_c, 1, 92, 55
3, 1037824, Note_off_c, 1, 92, 55
3, 1037824, Note_on_c, 1, 94, 55
3, 1037888, Note_off_c, 1, 94, 55
3, 1037952, Note_off_c, 1, 94, 55
3, 1037952, Note_on_c, 1, 94, 55
3, 1038016, Note_off_c, 1, 94, 55
3, 1038080, Note_off_c, 1, 94, 55
3, 1038080, Note_on_c, 1, 94, 55
3, 1038144, Note_off_c, 1, 94, 55
3, 1038208, Note_off_c, 1, 94, 55
3, 1038208, Note_on_c, 1, 91, 55
3, 1038240, Note_off_c, 1, 91, 55
3, 1038272, Note_off_c, 1, 91, 55
3, 1038272, Note_on_c, 1, 92, 55
3, 1038304, Note_off_c, 1, 92, 55
3, 1038336, Note_off_c, 1, 92, 55
3, 1038336, Note_on_c, 1, 94, 55
3, 1038400, Note_off_c, 1, 94, 55
3, 1038464, Note_off_c, 1, 94, 55
3, 1038464, Note_on_c, 1, 94, 55
3, 1038528, Note_off_c, 1, 94, 55
3, 1038592, Note_off_c, 1, 94, 55
3, 1039360, Control_c, 1, 93, 0
3, 1040384, Control_c, 1, 93, 0
3, 1040640, Control_c, 1, 93, 0
3, 1040640, Note_on_c, 1, 77, 67
3, 1040896, Note_off_c, 1, 77, 67
3, 1041408, Control_c, 1, 93, 0
3, 1042432, Control_c, 1, 93, 0
3, 1043456, Control_c, 1, 93, 0
3, 1044480, Control_c, 1, 93, 0
3, 1045504, Control_c, 1, 93, 0
3, 1046528, Control_c, 1, 93, 0
3, 1047552, Control_c, 1, 93, 0
3, 1048576, Control_c, 1, 93, 0
3, 1049344, Control_c, 1, 93, 0
3, 1049344, Note_on_c, 1, 91, 55
3, 1049408, Note_off_c, 1, 91, 55
3, 1049472, Note_off_c, 1, 91, 55
3, 1049472, Note_on_c, 1, 91, 55
3, 1049504, Note_off_c, 1, 91, 55
3, 1049536, Note_off_c, 1, 91, 55
3, 1049536, Note_on_c, 1, 92, 55
3, 1049568, Note_off_c, 1, 92, 55
3, 1049600, Note_off_c, 1, 92, 55
3, 1049600, Note_on_c, 1, 94, 55
3, 1049664, Note_off_c, 1, 94, 55
3, 1049728, Note_off_c, 1, 94, 55
3, 1049728, Note_on_c, 1, 94, 55
3, 1049792, Note_off_c, 1, 94, 55
3, 1049856, Note_off_c, 1, 94, 55
3, 1049856, Note_on_c, 1, 94, 55
3, 1049920, Note_off_c, 1, 94, 55
3, 1049984, Note_off_c, 1, 94, 55
3, 1049984, Note_on_c, 1, 91, 55
3, 1050016, Note_off_c, 1, 91, 55
3, 1050048, Note_off_c, 1, 91, 55
3, 1050048, Note_on_c, 1, 92, 55
3, 1050080, Note_off_c, 1, 92, 55
3, 1050112, Note_off_c, 1, 92, 55
3, 1050112, Note_on_c, 1, 94, 55
3, 1050176, Note_off_c, 1, 94, 55
3, 1050240, Note_off_c, 1, 94, 55
3, 1050240, Note_on_c, 1, 94, 55
3, 1050304, Note_off_c, 1, 94, 55
3, 1050368, Note_off_c, 1, 94, 55
3, 1050368, Note_on_c, 1, 94, 55
3, 1050432, Note_off_c, 1, 94, 55
3, 1050496, Note_off_c, 1, 94, 55
3, 1050496, Note_on_c, 1, 91, 55
3, 1050528, Note_off_c, 1, 91, 55
3, 1050560, Note_off_c, 1, 91, 55
3, 1050560, Note_on_c, 1, 92, 55
3, 1050592, Note_off_c, 1, 92, 55
3, 1050624, Note_off_c, 1, 92, 55
3, 1050624, Note_on_c, 1, 94, 55
3, 1050688, Note_off_c, 1, 94, 55
3, 1050752, Note_off_c, 1, 94, 55
3, 1050752, Note_on_c, 1, 94, 55
3, 1050816, Note_off_c, 1, 94, 55
3, 1050880, Note_off_c, 1, 94, 55
3, 1051648, Control_c, 1, 93, 0
3, 1052672, Control_c, 1, 93, 0
3, 1052928, Control_c, 1, 93, 0
3, 1052928, Note_on_c, 1, 77, 67
3, 1053184, Note_off_c, 1, 77, 67
3, 1053696, Control_c, 1, 93, 0
3, 1054720, Control_c, 1, 93, 0
3, 1055744, Control_c, 1, 93, 0
3, 1056768, Control_c, 1, 93, 0
3, 1057792, Control_c, 1, 93, 0
3, 1058816, Control_c, 1, 93, 0
3, 1059840, Control_c, 1, 93, 0
3, 1060864, Control_c, 1, 93, 0
3, 1061632, Control_c, 1, 93, 0
3, 1061632, Note_on_c, 1, 91, 55
3, 1061696, Note_off_c, 1, 91, 55
3, 1061760, Note_off_c, 1, 91, 55
3, 1061760, Note_on_c, 1, 91, 55
3, 1061792, Note_off_c, 1, 91, 55
3, 1061824, Note_off_c, 1, 91, 55
3, 1061824, Note_on_c, 1, 92, 55
3, 1061856, Note_off_c, 1, 92, 55
3, 1061888, Note_off_c, 1, 92, 55
3, 1061888, Note_on_c, 1, 94, 55
3, 1061952, Note_off_c, 1, 94, 55
3, 1062016, Note_off_c, 1, 94, 55
3, 1062016, Note_on_c, 1, 94, 55
3, 1062080, Note_off_c, 1, 94, 55
3, 1062144, Note_off_c, 1, 94, 55
3, 1062144, Note_on_c, 1, 94, 55
3, 1062208, Note_off_c, 1, 94, 55
3, 1062272, Note_off_c, 1, 94, 55
3, 1062272, Note_on_c, 1, 91, 55
3, 1062304, Note_off_c, 1, 91, 55
3, 1062336, Note_off_c, 1, 91, 55
3, 1062336, Note_on_c, 1, 92, 55
3, 1062368, Note_off_c, 1, 92, 55
3, 1062400, Note_off_c, 1, 92, 55
3, 1062400, Note_on_c, 1, 94, 55
3, 1062464, Note_off_c, 1, 94, 55
3, 1062528, Note_off_c, 1, 94, 55
3, 1062528, Note_on_c, 1, 94, 55
3, 1062592, Note_off_c, 1, 94, 55
3, 1062656, Note_off_c, 1, 94, 55
3, 1062656, Note_on_c, 1, 94, 55
3, 1062720, Note_off_c, 1, 94, 55
3, 1062784, Note_off_c, 1, 94, 55
3, 1062784, Note_on_c, 1, 91, 55
3, 1062816, Note_off_c, 1, 91, 55
3, 1062848, Note_off_c, 1, 91, 55
3, 1062848, Note_on_c, 1, 92, 55
3, 1062880, Note_off_c, 1, 92, 55
3, 1062912, Note_off_c, 1, 92, 55
3, 1062912, Note_on_c, 1, 94, 55
3, 1062976, Note_off_c, 1, 94, 55
3, 1063040, Note_off_c, 1, 94, 55
3, 1063040, Note_on_c, 1, 94, 55
3, 1063104, Note_off_c, 1, 94, 55
3, 1063168, Note_off_c, 1, 94, 55
3, 1063936, Control_c, 1, 93, 0
3, 1064960, Control_c, 1, 93, 0
3, 1065216, Control_c, 1, 93, 0
3, 1065216, Note_on_c, 1, 77, 67
3, 1065472, Note_off_c, 1, 77, 67
3, 1065984, Control_c, 1, 93, 0
3, 1067008, Control_c, 1, 93, 0
3, 1068032, Control_c, 1, 93, 0
3, 1069056, Control_c, 1, 93, 0
3, 1070080, Control_c, 1, 93, 0
3, 1071104, Control_c, 1, 93, 0
3, 1072128, Control_c, 1, 93, 0
3, 1073152, Control_c, 1, 93, 0
3, 1073920, Control_c, 1, 93, 0
3, 1073920, Note_on_c, 1, 91, 55
3, 1073984, Note_off_c, 1, 91, 55
3, 1074048, Note_off_c, 1, 91, 55
3, 1074048, Note_on_c, 1, 91, 55
3, 1074080, Note_off_c, 1, 91, 55
3, 1074112, Note_off_c, 1, 91, 55
3, 1074112, Note_on_c, 1, 92, 55
3, 1074144, Note_off_c, 1, 92, 55
3, 1074176, Note_off_c, 1, 92, 55
3, 1074176, Note_on_c, 1, 94, 55
3, 1074240, Note_off_c, 1, 94, 55
3, 1074304, Note_off_c, 1, 94, 55
3, 1074304, Note_on_c, 1, 94, 55
3, 1074368, Note_off_c, 1, 94, 55
3, 1074432, Note_off_c, 1, 94, 55
3, 1074432, Note_on_c, 1, 94, 55
3, 1074496, Note_off_c, 1, 94, 55
3, 1074560, Note_off_c, 1, 94, 55
3, 1074560, Note_on_c, 1, 91, 55
3, 1074592, Note_off_c, 1, 91, 55
3, 1074624, Note_off_c, 1, 91, 55
3, 1074624, Note_on_c, 1, 92, 55
3, 1074656, Note_off_c, 1, 92, 55
3, 1074688, Note_off_c, 1, 92, 55
3, 1074688, Note_on_c, 1, 94, 55
3, 1074752, Note_off_c, 1, 94, 55
3, 1074816, Note_off_c, 1, 94, 55
3, 1074816, Note_on_c, 1, 94, 55
3, 1074880, Note_off_c, 1, 94, 55
3, 1074944, Note_off_c, 1, 94, 55
3, 1074944, Note_on_c, 1, 94, 55
3, 1075008, Note_off_c, 1, 94, 55
3, 1075072, Note_off_c, 1, 94, 55
3, 1075072, Note_on_c, 1, 91, 55
3, 1075104, Note_off_c, 1, 91, 55
3, 1075136, Note_off_c, 1, 91, 55
3, 1075136, Note_on_c, 1, 92, 55
3, 1075168, Note_off_c, 1, 92, 55
3, 1075200, Note_off_c, 1, 92, 55
3, 1075200, Note_on_c, 1, 94, 55
3, 1075264, Note_off_c, 1, 94, 55
3, 1075328, Note_off_c, 1, 94, 55
3, 1075328, Note_on_c, 1, 94, 55
3, 1075392, Note_off_c, 1, 94, 55
3, 1075456, Note_off_c, 1, 94, 55
3, 1076224, Control_c, 1, 93, 0
3, 1077248, Control_c, 1, 93, 0
3, 1077504, Control_c, 1, 93, 0
3, 1077504, Note_on_c, 1, 77, 67
3, 1077760, Note_off_c, 1, 77, 67
3, 1078272, Control_c, 1, 93, 0
3, 1079296, Control_c, 1, 93, 0
3, 1080320, Control_c, 1, 93, 0
3, 1081344, Control_c, 1, 93, 0
3, 1082368, Control_c, 1, 93, 0
3, 1083392, Control_c, 1, 93, 0
3, 1084416, Control_c, 1, 93, 0
3, 1085440, Control_c, 1, 93, 0
3, 1086208, Control_c, 1, 93, 0
3, 1086208, Note_on_c, 1, 91, 55
3, 1086272, Note_off_c, 1, 91, 55
3, 1086336, Note_off_c, 1, 91, 55
3, 1086336, Note_on_c, 1, 91, 55
3, 1086368, Note_off_c, 1, 91, 55
3, 1086400, Note_off_c, 1, 91, 55
3, 1086400, Note_on_c, 1, 92, 55
3, 1086432, Note_off_c, 1, 92, 55
3, 1086464, Note_off_c, 1, 92, 55
3, 1086464, Note_on_c, 1, 94, 55
3, 1086528, Note_off_c, 1, 94, 55
3, 1086592, Note_off_c, 1, 94, 55
3, 1086592, Note_on_c, 1, 94, 55
3, 1086656, Note_off_c, 1, 94, 55
3, 1086720, Note_off_c, 1, 94, 55
3, 1086720, Note_on_c, 1, 94, 55
3, 1086784, Note_off_c, 1, 94, 55
3, 1086848, Note_off_c, 1, 94, 55
3, 1086848, Note_on_c, 1, 91, 55
3, 1086880, Note_off_c, 1, 91, 55
3, 1086912, Note_off_c, 1, 91, 55
3, 1086912, Note_on_c, 1, 92, 55
3, 1086944, Note_off_c, 1, 92, 55
3, 1086976, Note_off_c, 1, 92, 55
3, 1086976, Note_on_c, 1, 94, 55
3, 1087040, Note_off_c, 1, 94, 55
3, 1087104, Note_off_c, 1, 94, 55
3, 1087104, Note_on_c, 1, 94, 55
3, 1087168, Note_off_c, 1, 94, 55
3, 1087232, Note_off_c, 1, 94, 55
3, 1087232, Note_on_c, 1, 94, 55
3, 1087296, Note_off_c, 1, 94, 55
3, 1087360, Note_off_c, 1, 94, 55
3, 1087360, Note_on_c, 1, 91, 55
3, 1087392, Note_off_c, 1, 91, 55
3, 1087424, Note_off_c, 1, 91, 55
3, 1087424, Note_on_c, 1, 92, 55
3, 1087456, Note_off_c, 1, 92, 55
3, 1087488, Note_off_c, 1, 92, 55
3, 1087488, Note_on_c, 1, 94, 55
3, 1087552, Note_off_c, 1, 94, 55
3, 1087616, Note_off_c, 1, 94, 55
3, 1087616, Note_on_c, 1, 94, 55
3, 1087680, Note_off_c, 1, 94, 55
3, 1087744, Note_off_c, 1, 94, 55
3, 1088512, Control_c, 1, 93, 0
3, 1089536, Control_c, 1, 93, 0
3, 1089792, Control_c, 1, 93, 0
3, 1089792, Note_on_c, 1, 77, 67
3, 1090048, Note_off_c, 1, 77, 67
3, 1090560, Control_c, 1, 93, 0
3, 1091584, Control_c, 1, 93, 0
3, 1092608, Control_c, 1, 93, 0
3, 1093632, Control_c, 1, 93, 0
3, 1094656, Control_c, 1, 93, 0
3, 1095680, Control_c, 1, 93, 0
3, 1096704, Control_c, 1, 93, 0
3, 1097728, Control_c, 1, 93, 0
3, 1098496, Control_c, 1, 93, 0
3, 1098496, Note_on_c, 1, 91, 55
3, 1098560, Note_off_c, 1, 91, 55
3, 1098624, Note_off_c, 1, 91, 55
3, 1098624, Note_on_c, 1, 91, 55
3, 1098656, Note_off_c, 1, 91, 55
3, 1098688, Note_off_c, 1, 91, 55
3, 1098688, Note_on_c, 1, 92, 55
3, 1098720, Note_off_c, 1, 92, 55
3, 1098752, Note_off_c, 1, 92, 55
3, 1098752, Note_on_c, 1, 94, 55
3, 1098816, Note_off_c, 1, 94, 55
3, 1098880, Note_off_c, 1, 94, 55
3, 1098880, Note_on_c, 1, 94, 55
3, 1098944, Note_off_c, 1, 94, 55
3, 1099008, Note_off_c, 1, 94, 55
3, 1099008, Note_on_c, 1, 94, 55
3, 1099072, Note_off_c, 1, 94, 55
3, 1099136, Note_off_c, 1, 94, 55
3, 1099136, Note_on_c, 1, 91, 55
3, 1099168, Note_off_c, 1, 91, 55
3, 1099200, Note_off_c, 1, 91, 55
3, 1099200, Note_on_c, 1, 92, 55
3, 1099232, Note_off_c, 1, 92, 55
3, 1099264, Note_off_c, 1, 92, 55
3, 1099264, Note_on_c, 1, 94, 55
3, 1099328, Note_off_c, 1, 94, 55
3, 1099392, Note_off_c, 1, 94, 55
3, 1099392, Note_on_c, 1, 94, 55
3, 1099456, Note_off_c, 1, 94, 55
3, 1099520, Note_off_c, 1, 94, 55
3, 1099520, Note_on_c, 1, 94, 55
3, 1099584, Note_off_c, 1, 94, 55
3, 1099648, Note_off_c, 1, 94, 55
3, 1099648, Note_on_c, 1, 91, 55
3, 1099680, Note_off_c, 1, 91, 55
3, 1099712, Note_off_c, 1, 91, 55
3, 1099712, Note_on_c, 1, 92, 55
3, 1099744, Note_off_c, 1, 92, 55
3, 1099776, Note_off_c, 1, 92, 55
3, 1099776, Note_on_c, 1, 94, 55
3, 1099840, Note_off_c, 1, 94, 55
3, 1099904, Note_off_c, 1, 94, 55
3, 1099904, Note_on_c, 1, 94, 55
3, 1099968, Note_off_c, 1, 94, 55
3, 1100032, Note_off_c, 1, 94, 55
3, 1100800, Control_c, 1, 93, 0
3, 1101824, Control_c, 1, 93, 0
3, 1102080, Control_c, 1, 93, 0
3, 1102080, Note_on_c, 1, 77, 67
3, 1102336, Note_off_c, 1, 77, 67
3, 1102848, Control_c, 1, 93, 0
3, 1103872, Control_c, 1, 93, 0
3, 1104896, Control_c, 1, 93, 0
3, 1105920, Control_c, 1, 93, 0
3, 1106944, Control_c, 1, 93, 0
3, 1107968, Control_c, 1, 93, 0
3, 1108992, Control_c, 1, 93, 0
3, 1110016, Control_c, 1, 93, 0
3, 1110784, Control_c, 1, 93, 0
3, 1110784, Note_on_c, 1, 91, 55
3, 1110848, Note_off_c, 1, 91, 55
3, 1110912, Note_off_c, 1, 91, 55
3, 1110912, Note_on_c, 1, 91, 55
3, 1110944, Note_off_c, 1, 91, 55
3, 1110976, Note_off_c, 1, 91, 55
3, 1110976, Note_on_c, 1, 92, 55
3, 1111008, Note_off_c, 1, 92, 55
3, 1111040, Note_off_c, 1, 92, 55
3, 1111040, Note_on_c, 1, 94, 55
3, 1111104, Note_off_c, 1, 94, 55
3, 1111168, Note_off_c, 1, 94, 55
3, 1111168, Note_on_c, 1, 94, 55
3, 1111232, Note_off_c, 1, 94, 55
3, 1111296, Note_off_c, 1, 94, 55
3, 1111296, Note_on_c, 1, 94, 55
3, 1111360, Note_off_c, 1, 94, 55
3, 1111424, Note_off_c, 1, 94, 55
3, 1111424, Note_on_c, 1, 91, 55
3, 1111456, Note_off_c, 1, 91, 55
3, 1111488, Note_off_c, 1, 91, 55
3, 1111488, Note_on_c, 1, 92, 55
3, 1111520, Note_off_c, 1, 92, 55
3, 1111552, Note_off_c, 1, 92, 55
3, 1111552, Note_on_c, 1, 94, 55
3, 1111616, Note_off_c, 1, 94, 55
3, 1111680, Note_off_c, 1, 94, 55
3, 1111680, Note_on_c, 1, 94, 55
3, 1111744, Note_off_c, 1, 94, 55
3, 1111808, Note_off_c, 1, 94, 55
3, 1111808, Note_on_c, 1, 94, 55
3, 1111872, Note_off_c, 1, 94, 55
3, 1111936, Note_off_c, 1, 94, 55
3, 1111936, Note_on_c, 1, 91, 55
3, 1111968, Note_off_c, 1, 91, 55
3, 1112000, Note_off_c, 1, 91, 55
3, 1112000, Note_on_c, 1, 92, 55
3, 1112032, Note_off_c, 1, 92, 55
3, 1112064, Note_off_c, 1, 92, 55
3, 1112064, Note_on_c, 1, 94, 55
3, 1112128, Note_off_c, 1, 94, 55
3, 1112192, Note_off_c, 1, 94, 55
3, 1112192, Note_on_c, 1, 94, 55
3, 1112256, Note_off_c, 1, 94, 55
3, 1112320, Note_off_c, 1, 94, 55
3, 1113088, Control_c, 1, 93, 0
3, 1114112, Control_c, 1, 93, 0
3, 1114368, Control_c, 1, 93, 0
3, 1114368, Note_on_c, 1, 77, 67
3, 1114624, Note_off_c, 1, 77, 67
3, 1115136, Control_c, 1, 93, 0
3, 1116160, Control_c, 1, 93, 0
3, 1117184, Control_c, 1, 93, 0
3, 1118208, Control_c, 1, 93, 0
3, 1119232, Control_c, 1, 93, 0
3, 1120256, Control_c, 1, 93, 0
3, 1121280, Control_c, 1, 93, 0
3, 1122304, Control_c, 1, 93, 0
3, 1123072, Control_c, 1, 93, 0
3, 1123072, Note_on_c, 1, 91, 55
3, 1123136, Note_off_c, 1, 91, 55
3, 1123200, Note_off_c, 1, 91, 55
3, 1123200, Note_on_c, 1, 91, 55
3, 1123232, Note_off_c, 1, 91, 55
3, 1123264, Note_off_c, 1, 91, 55
3, 1123264, Note_on_c, 1, 92, 55
3, 1123296, Note_off_c, 1, 92, 55
3, 1123328, Note_off_c, 1, 92, 55
3, 1123328, Note_on_c, 1, 94, 55
3, 1123392, Note_off_c, 1, 94, 55
3, 1123456, Note_off_c, 1, 94, 55
3, 1123456, Note_on_c, 1, 94, 55
3, 1123520, Note_off_c, 1, 94, 55
3, 1123584, Note_off_c, 1, 94, 55
3, 1123584, Note_on_c, 1, 94, 55
3, 1123648, Note_off_c, 1, 94, 55
3, 1123712, Note_off_c, 1, 94, 55
3, 1123712, Note_on_c, 1, 91, 55
3, 1123744, Note_off_c, 1, 91, 55
3, 1123776, Note_off_c, 1, 91, 55
3, 1123776, Note_on_c, 1, 92, 55
3, 1123808, Note_off_c, 1, 92, 55
3, 1123840, Note_off_c, 1, 92, 55
3, 1123840, Note_on_c, 1, 94, 55
3, 1123904, Note_off_c, 1, 94, 55
3, 1123968, Note_off_c, 1, 94, 55
3, 1123968, Note_on_c, 1, 94, 55
3, 1124032, Note_off_c, 1, 94, 55
3, 1124096, Note_off_c, 1, 94, 55
3, 1124096, Note_on_c, 1, 94, 55
3, 1124160, Note_off_c, 1, 94, 55
3, 1124224, Note_off_c, 1, 94, 55
3, 1124224, Note_on_c, 1, 91, 55
3, 1124256, Note_off_c, 1, 91, 55
3, 1124288, Note_off_c, 1, 91, 55
3, 1124288, Note_on_c, 1, 92, 55
3, 1124320, Note_off_c, 1, 92, 55
3, 1124352, Note_off_c, 1, 92, 55
3, 1124352, Note_on_c, 1, 94, 55
3, 1124416, Note_off_c, 1, 94, 55
3, 1124480, Note_off_c, 1, 94, 55
3, 1124480, Note_on_c, 1, 94, 55
3, 1124544, Note_off_c, 1, 94, 55
3, 1124608, Note_off_c, 1, 94, 55
3, 1125376, Control_c, 1, 93, 0
3, 1126400, Control_c, 1, 93, 0
3, 1126656, Control_c, 1, 93, 0
3, 1126656, Note_on_c, 1, 77, 67
3, 1126912, Note_off_c, 1, 77, 67
3, 1127424, Control_c, 1, 93, 0
3, 1128448, Control_c, 1, 93, 0
3, 1129472, Control_c, 1, 93, 0
3, 1130496, Control_c, 1, 93, 0
3, 1131520, Control_c, 1, 93, 0
3, 1132544, Control_c, 1, 93, 0
3, 1133568, Control_c, 1, 93, 0
3, 1134592, Control_c, 1, 93, 0
3, 1135360, Control_c, 1, 93, 0
3, 1135360, Note_on_c, 1, 91, 55
3, 1135424, Note_off_c, 1, 91, 55
3, 1135488, Note_off_c, 1, 91, 55
3, 1135488, Note_on_c, 1, 91, 55
3, 1135520, Note_off_c, 1, 91, 55
3, 1135552, Note_off_c, 1, 91, 55
3, 1135552, Note_on_c, 1, 92, 55
3, 1135584, Note_off_c, 1, 92, 55
3, 1135616, Note_off_c, 1, 92, 55
3, 1135616, Note_on_c, 1, 94, 55
3, 1135680, Note_off_c, 1, 94, 55
3, 1135744, Note_off_c, 1, 94, 55
3, 1135744, Note_on_c, 1, 94, 55
3, 1135808, Note_off_c, 1, 94, 55
3, 1135872, Note_off_c, 1, 94, 55
3, 1135872, Note_on_c, 1, 94, 55
3, 1135936, Note_off_c, 1, 94, 55
3, 1136000, Note_off_c, 1, 94, 55
3, 1136000, Note_on_c, 1, 91, 55
3, 1136032, Note_off_c, 1, 91, 55
3, 1136064, Note_off_c, 1, 91, 55
3, 1136064, Note_on_c, 1, 92, 55
3, 1136096, Note_off_c, 1, 92, 55
3, 1136128, Note_off_c, 1, 92, 55
3, 1136128, Note_on_c, 1, 94, 55
3, 1136192, Note_off_c, 1, 94, 55
3, 1136256, Note_off_c, 1, 94, 55
3, 1136256, Note_on_c, 1, 94, 55
3, 1136320, Note_off_c, 1, 94, 55
3, 1136384, Note_off_c, 1, 94, 55
3, 1136384, Note_on_c, 1, 94, 55
3, 1136448, Note_off_c, 1, 94, 55
3, 1136512, Note_off_c, 1, 94, 55
3, 1136512, Note_on_c, 1, 91, 55
3, 1136544, Note_off_c, 1, 91, 55
3, 1136576, Note_off_c, 1, 91, 55
3, 1136576, Note_on_c, 1, 92, 55
3, 1136608, Note_off_c, 1, 92, 55
3, 1136640, Note_off_c, 1, 92, 55
3, 1136640, Note_on_c, 1, 94, 55
3, 1136704, Note_off_c, 1, 94, 55
3, 1136768, Note_off_c, 1, 94, 55
3, 1136768, Note_on_c, 1, 94, 55
3, 1136832, Note_off_c, 1, 94, 55
3, 1136896, Note_off_c, 1, 94, 55
3, 1137664, Control_c, 1, 93, 0
3, 1138688, Control_c, 1, 93, 0
3, 1138944, Control_c, 1, 93, 0
3, 1138944, Note_on_c, 1, 77, 67
3, 1139200, Note_off_c, 1, 77, 67
3, 1139712, Control_c, 1, 93, 0
3, 1140736, Control_c, 1, 93, 0
3, 1141760, Control_c, 1, 93, 0
3, 1142784, Control_c, 1, 93, 0
3, 1143808, Control_c, 1, 93, 0
3, 1144832, Control_c, 1, 93, 0
3, 1145856, Control_c, 1, 93, 0
3, 1146880, Control_c, 1, 93, 0
3, 1147648, Control_c, 1, 93, 0
3, 1147648, Note_on_c, 1, 91, 55
3, 1147712, Note_off_c, 1, 91, 55
3, 1147776, Note_off_c, 1, 91, 55
3, 1147776, Note_on_c, 1, 91, 55
3, 1147808, Note_off_c, 1, 91, 55
3, 1147840, Note_off_c, 1, 91, 55
3, 1147840, Note_on_c, 1, 92, 55
3, 1147872, Note_off_c, 1, 92, 55
3, 1147904, Note_off_c, 1, 92, 55
3, 1147904, Note_on_c, 1, 94, 55
3, 1147968, Note_off_c, 1, 94, 55
3, 1148032, Note_off_c, 1, 94, 55
3, 1148032, Note_on_c, 1, 94, 55
3, 1148096, Note_off_c, 1, 94, 55
3, 1148160, Note_off_c, 1, 94, 55
3, 1148160, Note_on_c, 1, 94, 55
3, 1148224, Note_off_c, 1, 94, 55
3, 1148288, Note_off_c, 1, 94, 55
3, 1148288, Note_on_c, 1, 91, 55
3, 1148320, Note_off_c, 1, 91, 55
3, 1148352, Note_off_c, 1, 91, 55
3, 1148352, Note_on_c, 1, 92, 55
3, 1148384, Note_off_c, 1, 92, 55
3, 1148416, Note_off_c, 1, 92, 55
3, 1148416, Note_on_c, 1, 94, 55
3, 1148480, Note_off_c, 1, 94, 55
3, 1148544, Note_off_c, 1, 94, 55
3, 1148544, Note_on_c, 1, 94, 55
3, 1148608, Note_off_c, 1, 94, 55
3, 1148672, Note_off_c, 1, 94, 55
3, 1148672, Note_on_c, 1, 94, 55
3, 1148736, Note_off_c, 1, 94, 55
3, 1148800, Note_off_c, 1, 94, 55
3, 1148800, Note_on_c, 1, 91, 55
3, 1148832, Note_off_c, 1, 91, 55
3, 1148864, Note_off_c, 1, 91, 55
3, 1148864, Note_on_c, 1, 92, 55
3, 1148896, Note_off_c, 1, 92, 55
3, 1148928, Note_off_c, 1, 92, 55
3, 1148928, Note_on_c, 1, 94, 55
3, 1148992, Note_off_c, 1, 94, 55
3, 1149056, Note_off_c, 1, 94, 55
3, 1149056, Note_on_c, 1, 94, 55
3, 1149120, Note_off_c, 1, 94, 55
3, 1149184, Note_off_c, 1, 94, 55
3, 1149952, Control_c, 1, 93, 0
3, 1150976, Control_c, 1, 93, 0
3, 1151232, Control_c, 1, 93, 0
3, 1151232, Note_on_c, 1, 77, 67
3, 1151488, Note_off_c, 1, 77, 67
3, 1152000, Control_c, 1, 93, 0
3, 1153024, Control_c, 1, 93, 0
3, 1154048, Control_c, 1, 93, 0
3, 1155072, Control_c, 1, 93, 0
3, 1156096, Control_c, 1, 93, 0
3, 1157120, Control_c, 1, 93, 0
3, 1158144, Control_c, 1, 93, 0
3, 1159168, Control_c, 1, 93, 0
3, 1159936, Control_c, 1, 93, 0
3, 1159936, Note_on_c, 1, 91, 55
3, 1160000, Note_off_c, 1, 91, 55
3, 1160064, Note_off_c, 1, 91, 55
3, 1160064, Note_on_c, 1, 91, 55
3, 1160096, Note_off_c, 1, 91, 55
3, 1160128, Note_off_c, 1, 91, 55
3, 1160128, Note_on_c, 1, 92, 55
3, 1160160, Note_off_c, 1, 92, 55
3, 1160192, Note_off_c, 1, 92, 55
3, 1160192, Note_on_c, 1, 94, 55
3, 1160256, Note_off_c, 1, 94, 55
3, 1160320, Note_off_c, 1, 94, 55
3, 1160320, Note_on_c, 1, 94, 55
3, 1160384, Note_off_c, 1, 94, 55
3, 1160448, Note_off_c, 1, 94, 55
3, 1160448, Note_on_c, 1, 94, 55
3, 1160512, Note_off_c, 1, 94, 55
3, 1160576, Note_off_c, 1, 94, 55
3, 1160576, Note_on_c, 1, 91, 55
3, 1160608, Note_off_c, 1, 91, 55
3, 1160640, Note_off_c, 1, 91, 55
3, 1160640, Note_on_c, 1, 92, 55
3, 1160672, Note_off_c, 1, 92, 55
3, 1160704, Note_off_c, 1, 92, 55
3, 1160704, Note_on_c, 1, 94, 55
3, 1160768, Note_off_c, 1, 94, 55
3, 1160832, Note_off_c, 1, 94, 55
3, 1160832, Note_on_c, 1, 94, 55
3, 1160896, Note_off_c, 1, 94, 55
3, 1160960, Note_off_c, 1, 94, 55
3, 1160960, Note_on_c, 1, 94, 55
3, 1161024, Note_off_c, 1, 94, 55
3, 1161088, Note_off_c, 1, 94, 55
3, 1161088, Note_on_c, 1, 91, 55
3, 1161120, Note_off_c, 1, 91, 55
3, 1161152, Note_off_c, 1, 91, 55
3, 1161152, Note_on_c, 1, 92, 55
3, 1161184, Note_off_c, 1, 92, 55
3, 1161216, Note_off_c, 1, 92, 55
3, 1161216, Note_on_c, 1, 94, 55
3, 1161280, Note_off_c, 1, 94, 55
3, 1161344, Note_off_c, 1, 94, 55
3, 1161344, Note_on_c, 1, 94, 55
3, 1161408, Note_off_c, 1, 94, 55
3, 1161472, Note_off_c, 1, 94, 55
3, 1162240, Control_c, 1, 93, 0
3, 1163264, Control_c, 1, 93, 0
3, 1163520, Control_c, 1, 93, 0
3, 1163520, Note_on_c, 1, 77, 67
3, 1163776, Note_off_c, 1, 77, 67
3, 1164288, Control_c, 1, 93, 0
3, 1165312, Control_c, 1, 93, 0
3, 1166336, Control_c, 1, 93, 0
3, 1167360, Control_c, 1, 93, 0
3, 1168384, Control_c, 1, 93, 0
3, 1169408, Control_c, 1, 93, 0
3, 1170432, Control_c, 1, 93, 0
3, 1171456, Control_c, 1, 93, 0
3, 1172224, Control_c, 1, 93, 0
3, 1172224, Note_on_c, 1, 91, 55
3, 1172288, Note_off_c, 1, 91, 55
3, 1172352, Note_off_c, 1, 91, 55
3, 1172352, Note_on_c, 1, 91, 55
3, 1172384, Note_off_c, 1, 91, 55
3, 1172416, Note_off_c, 1, 91, 55
3, 1172416, Note_on_c, 1, 92, 55
3, 1172448, Note_off_c, 1, 92, 55
3, 1172480, Note_off_c, 1, 92, 55
3, 1172480, Note_on_c, 1, 94, 55
3, 1172544, Note_off_c, 1, 94, 55
3, 1172608, Note_off_c, 1, 94, 55
3, 1172608, Note_on_c, 1, 94, 55
3, 1172672, Note_off_c, 1, 94, 55
3, 1172736, Note_off_c, 1, 94, 55
3, 1172736, Note_on_c, 1, 94, 55
3, 1172800, Note_off_c, 1, 94, 55
3, 1172864, Note_off_c, 1, 94, 55
3, 1172864, Note_on_c, 1, 91, 55
3, 1172896, Note_off_c, 1, 91, 55
3, 1172928, Note_off_c, 1, 91, 55
3, 1172928, Note_on_c, 1, 92, 55
3, 1172960, Note_off_c, 1, 92, 55
3, 1172992, Note_off_c, 1, 92, 55
3, 1172992, Note_on_c, 1, 94, 55
3, 1173056, Note_off_c, 1, 94, 55
3, 1173120, Note_off_c, 1, 94, 55
3, 1173120, Note_on_c, 1, 94, 55
3, 1173184, Note_off_c, 1, 94, 55
3, 1173248, Note_off_c, 1, 94, 55
3, 1173248, Note_on_c, 1, 94, 55
3, 1173312, Note_off_c, 1, 94, 55
3, 1173376, Note_off_c, 1, 94, 55
3, 1173376, Note_on_c, 1, 91, 55
3, 1173408, Note_off_c, 1, 91, 55
3, 1173440, Note_off_c, 1, 91, 55
3, 1173440, Note_on_c, 1, 92, 55
3, 1173472, Note_off_c, 1, 92, 55
3, 1173504, Note_off_c, 1, 92, 55
3, 1173504, Note_on_c, 1, 94, 55
3, 1173568, Note_off_c, 1, 94, 55
3, 1173632, Note_off_c, 1, 94, 55
3, 1173632, Note_on_c, 1, 94, 55
3, 1173696, Note_off_c, 1, 94, 55
3, 1173760, Note_off_c, 1, 94, 55
3, 1174528, Control_c, 1, 93, 0
3, 1175552, Control_c, 1, 93, 0
3, 1175808, Control_c, 1, 93, 0
3, 1175808, Note_on_c, 1, 77, 67
3, 1176064, Note_off_c, 1, 77, 67
3, 1176576, Control_c, 1, 93, 0
3, 1177600, Control_c, 1, 93, 0
3, 1178624, Control_c, 1, 93, 0
3, 1179648, Control_c, 1, 93, 0
3, 1180672, Control_c, 1, 93, 0
3, 1181696, Control_c, 1, 93, 0
3, 1182720, Control_c, 1, 93, 0
3, 1183744, Control_c, 1, 93, 0
3, 1184512, Control_c, 1, 93, 0
3, 1184512, Note_on_c, 1, 91, 55
3, 1184576, Note_off_c, 1, 91, 55
3, 1184640, Note_off_c, 1, 91, 55
3, 1184640, Note_on_c, 1, 91, 55
3, 1184672, Note_off_c, 1, 91, 55
3, 1184704, Note_off_c, 1, 91, 55
3, 1184704, Note_on_c, 1, 92, 55
3, 1184736, Note_off_c, 1, 92, 55
3, 1184768, Note_off_c, 1, 92, 55
3, 1184768, Note_on_c, 1, 94, 55
3, 1184832, Note_off_c, 1, 94, 55
3, 1184896, Note_off_c, 1, 94, 55
3, 1184896, Note_on_c, 1, 94, 55
3, 1184960, Note_off_c, 1, 94, 55
3, 1185024, Note_off_c, 1, 94, 55
3, 1185024, Note_on_c, 1, 94, 55
3, 1185088, Note_off_c, 1, 94, 55
3, 1185152, Note_off_c, 1, 94, 55
3, 1185152, Note_on_c, 1, 91, 55
3, 1185184, Note_off_c, 1, 91, 55
3, 1185216, Note_off_c, 1, 91, 55
3, 1185216, Note_on_c, 1, 92, 55
3, 1185248, Note_off_c, 1, 92, 55
3, 1185280, Note_off_c, 1, 92, 55
3, 1185280, Note_on_c, 1, 94, 55
3, 1185344, Note_off_c, 1, 94, 55
3, 1185408, Note_off_c, 1, 94, 55
3, 1185408, Note_on_c, 1, 94, 55
3, 1185472, Note_off_c, 1, 94, 55
3, 1185536, Note_off_c, 1, 94, 55
3, 1185536, Note_on_c, 1, 94, 55
3, 1185600, Note_off_c, 1, 94, 55
3, 1185664, Note_off_c, 1, 94, 55
3, 1185664, Note_on_c, 1, 91, 55
3, 1185696, Note_off_c, 1, 91, 55
3, 1185728, Note_off_c, 1, 91, 55
3, 1185728, Note_on_c, 1, 92, 55
3, 1185760, Note_off_c, 1, 92, 55
3, 1185792, Note_off_c, 1, 92, 55
3, 1185792, Note_on_c, 1, 94, 55
3, 1185856, Note_off_c, 1, 94, 55
3, 1185920, Note_off_c, 1, 94, 55
3, 1185920, Note_on_c, 1, 94, 55
3, 1185984, Note_off_c, 1, 94, 55
3, 1186048, Note_off_c, 1, 94, 55
3, 1186816, Control_c, 1, 93, 0
3, 1187840, Control_c, 1, 93, 0
3, 1188096, Control_c, 1, 93, 0
3, 1188096, Note_on_c, 1, 77, 67
3, 1188352, Note_off_c, 1, 77, 67
3, 1188864, Control_c, 1, 93, 0
3, 1189888, Control_c, 1, 93, 0
3, 1190912, Control_c, 1, 93, 0
3, 1191936, Control_c, 1, 93, 0
3, 1192960, Control_c, 1, 93, 0
3, 1193984, Control_c, 1, 93, 0
3, 1195008, Control_c, 1, 93, 0
3, 1196032, Control_c, 1, 93, 0
3, 1196800, Control_c, 1, 93, 0
3, 1196800, Note_on_c, 1, 91, 55
3, 1196864, Note_off_c, 1, 91, 55
3, 1196928, Note_off_c, 1, 91, 55
3, 1196928, Note_on_c, 1, 91, 55
3, 1196960, Note_off_c, 1, 91, 55
3, 1196992, Note_off_c, 1, 91, 55
3, 1196992, Note_on_c, 1, 92, 55
3, 1197024, Note_off_c, 1, 92, 55
3, 1197056, Note_off_c, 1, 92, 55
3, 1197056, Note_on_c, 1, 94, 55
3, 1197120, Note_off_c, 1, 94, 55
3, 1197184, Note_off_c, 1, 94, 55
3, 1197184, Note_on_c, 1, 94, 55
3, 1197248, Note_off_c, 1, 94, 55
3, 1197312, Note_off_c, 1, 94, 55
3, 1197312, Note_on_c, 1, 94, 55
3, 1197376, Note_off_c, 1, 94, 55
3, 1197440, Note_off_c, 1, 94, 55
3, 1197440, Note_on_c, 1, 91, 55
3, 1197472, Note_off_c, 1, 91, 55
3, 1197504, Note_off_c, 1, 91, 55
3, 1197504, Note_on_c, 1, 92, 55
3, 1197536, Note_off_c, 1, 92, 55
3, 1197568, Note_off_c, 1, 92, 55
3, 1197568, Note_on_c, 1, 94, 55
3, 1197632, Note_off_c, 1, 94, 55
3, 1197696, Note_off_c, 1, 94, 55
3, 1197696, Note_on_c, 1, 94, 55
3, 1197760, Note_off_c, 1, 94, 55
3, 1197824, Note_off_c, 1, 94, 55
3, 1197824, Note_on_c, 1, 94, 55
3, 1197888, Note_off_c, 1, 94, 55
3, 1197952, Note_off_c, 1, 94, 55
3, 1197952, Note_on_c, 1, 91, 55
3, 1197984, Note_off_c, 1, 91, 55
3, 1198016, Note_off_c, 1, 91, 55
3, 1198016, Note_on_c, 1, 92, 55
3, 1198048, Note_off_c, 1, 92, 55
3, 1198080, Note_off_c, 1, 92, 55
3, 1198080, Note_on_c, 1, 94, 55
3, 1198144, Note_off_c, 1, 94, 55
3, 1198208, Note_off_c, 1, 94, 55
3, 1198208, Note_on_c, 1, 94, 55
3, 1198272, Note_off_c, 1, 94, 55
3, 1198336, Note_off_c, 1, 94, 55
3, 1199104, Control_c, 1, 93, 0
3, 1200128, Control_c, 1, 93, 0
3, 1200384, Control_c, 1, 93, 0
3, 1200384, Note_on_c, 1, 77, 67
3, 1200640, Note_off_c, 1, 77, 67
3, 1201152, Control_c, 1, 93, 0
3, 1202176, Control_c, 1, 93, 0
3, 1203200, Control_c, 1, 93, 0
3, 1204224, Control_c, 1, 93, 0
3, 1205248, Control_c, 1, 93, 0
3, 1206272, Control_c, 1, 93, 0
3, 1207296, Control_c, 1, 93, 0
3, 1208320, Control_c, 1, 93, 0
3, 1209088, Control_c, 1, 93, 0
3, 1209088, Note_on_c, 1, 91, 55
3, 1209152, Note_off_c, 1, 91, 55
3, 1209216, Note_off_c, 1, 91, 55
3, 1209216, Note_on_c, 1, 91, 55
3, 1209248, Note_off_c, 1, 91, 55
3, 1209280, Note_off_c, 1, 91, 55
3, 1209280, Note_on_c, 1, 92, 55
3, 1209312, Note_off_c, 1, 92, 55
3, 1209344, Note_off_c, 1, 92, 55
3, 1209344, Note_on_c, 1, 94, 55
3, 1209408, Note_off_c, 1, 94, 55
3, 1209472, Note_off_c, 1, 94, 55
3, 1209472, Note_on_c, 1, 94, 55
3, 1209536, Note_off_c, 1, 94, 55
3, 1209600, Note_off_c, 1, 94, 55
3, 1209600, Note_on_c, 1, 94, 55
3, 1209664, Note_off_c, 1, 94, 55
3, 1209728, Note_off_c, 1, 94, 55
3, 1209728, Note_on_c, 1, 91, 55
3, 1209760, Note_off_c, 1, 91, 55
3, 1209792, Note_off_c, 1, 91, 55
3, 1209792, Note_on_c, 1, 92, 55
3, 1209824, Note_off_c, 1, 92, 55
3, 1209856, Note_off_c, 1, 92, 55
3, 1209856, Note_on_c, 1, 94, 55
3, 1209920, Note_off_c, 1, 94, 55
3, 1209984, Note_off_c, 1, 94, 55
3, 1209984, Note_on_c, 1, 94, 55
3, 1210048, Note_off_c, 1, 94, 55
3, 1210112, Note_off_c, 1, 94, 55
3, 1210112, Note_on_c, 1, 94, 55
3, 1210176, Note_off_c, 1, 94, 55
3, 1210240, Note_off_c, 1, 94, 55
3, 1210240, Note_on_c, 1, 91, 55
3, 1210272, Note_off_c, 1, 91, 55
3, 1210304, Note_off_c, 1, 91, 55
3, 1210304, Note_on_c, 1, 92, 55
3, 1210336, Note_off_c, 1, 92, 55
3, 1210368, Note_off_c, 1, 92, 55
3, 1210368, Note_on_c, 1, 94, 55
3, 1210432, Note_off_c, 1, 94, 55
3, 1210496, Note_off_c, 1, 94, 55
3, 1210496, Note_on_c, 1, 94, 55
3, 1210560, Note_off_c, 1, 94, 55
3, 1210624, Note_off_c, 1, 94, 55
3, 1211392, Control_c, 1, 93, 0
3, 1212416, Control_c, 1, 93, 0
3, 1212672, Control_c, 1, 93, 0
3, 1212672, Note_on_c, 1, 77, 67
3, 1212928, Note_off_c, 1, 77, 67
3, 1213440, Control_c, 1, 93, 0
3, 1214464, Control_c, 1, 93, 0
3, 1215488, Control_c, 1, 93, 0
3, 1216512, Control_c, 1, 93, 0
3, 1217536, Control_c, 1, 93, 0
3, 1218560, Control_c, 1, 93, 0
3, 1219584, Control_c, 1, 93, 0
3, 1220608, Control_c, 1, 93, 0
3, 1221376, Control_c, 1, 93, 0
3, 1221376, Note_on_c, 1, 91, 55
3, 1221440, Note_off_c, 1, 91, 55
3, 1221504, Note_off_c, 1, 91, 55
3, 1221504, Note_on_c, 1, 91, 55
3, 1221536, Note_off_c, 1, 91, 55
3, 1221568, Note_off_c, 1, 91, 55
3, 1221568, Note_on_c, 1, 92, 55
3, 1221600, Note_off_c, 1, 92, 55
3, 1221632, Note_off_c, 1, 92, 55
3, 1221632, Note_on_c, 1, 94, 55
3, 1221696, Note_off_c, 1, 94, 55
3, 1221760, Note_off_c, 1, 94, 55
3, 1221760, Note_on_c, 1, 94, 55
3, 1221824, Note_off_c, 1, 94, 55
3, 1221888, Note_off_c, 1, 94, 55
3, 1221888, Note_on_c, 1, 94, 55
3, 1221952, Note_off_c, 1, 94, 55
3, 1222016, Note_off_c, 1, 94, 55
3, 1222016, Note_on_c, 1, 91, 55
3, 1222048, Note_off_c, 1, 91, 55
3, 1222080, Note_off_c, 1, 91, 55
3, 1222080, Note_on_c, 1, 92, 55
3, 1222112, Note_off_c, 1, 92, 55
3, 1222144, Note_off_c, 1, 92, 55
3, 1222144, Note_on_c, 1, 94, 55
3, 1222208, Note_off_c, 1, 94, 55
3, 1222272, Note_off_c, 1, 94, 55
3, 1222272, Note_on_c, 1, 94, 55
3, 1222336, Note_off_c, 1, 94, 55
3, 1222400, Note_off_c, 1, 94, 55
3, 1222400, Note_on_c, 1, 94, 55
3, 1222464, Note_off_c, 1, 94, 55
3, 1222528, Note_off_c, 1, 94, 55
3, 1222528, Note_on_c, 1, 91, 55
3, 1222560, Note_off_c, 1, 91, 55
3, 1222592, Note_off_c, 1, 91, 55
3, 1222592, Note_on_c, 1, 92, 55
3, 1222624, Note_off_c, 1, 92, 55
3, 1222656, Note_off_c, 1, 92, 55
3, 1222656, Note_on_c, 1, 94, 55
3, 1222720, Note_off_c, 1, 94, 55
3, 1222784, Note_off_c, 1, 94, 55
3, 1222784, Note_on_c, 1, 94, 55
3, 1222848, Note_off_c, 1, 94, 55
3, 1222912, Note_off_c, 1, 94, 55
3, 1223680, Control_c, 1, 93, 0
3, 1224704, Control_c, 1, 93, 0
3, 1224960, Control_c, 1, 93, 0
3, 1224960, Note_on_c, 1, 77, 67
3, 1225216, Note_off_c, 1, 77, 67
3, 1225728, Control_c, 1, 93, 0
3, 1226752, Control_c, 1, 93, 0
3, 1227776, Control_c, 1, 93, 0
3, 1228800, Control_c, 1, 93, 0
3, 1229824, Control_c, 1, 93, 0
3, 1230848, Control_c, 1, 93, 0
3, 1230976, Control_c, 1, 93, 0
3, 1230976, End_track
4, 0, Start_track
4, 0, Title_t, "Piano (Right Hand)"
4, 0, Control_c, 2, 7, 127
4, 0, Control_c, 2, 10, 64
4, 0, Control_c, 2, 0, 0
4, 0, Control_c, 2, 32, 0
4, 0, Program_c, 2, 0
4, 0, Control_c, 2, 93, 0
4, 512, Control_c, 2, 93, 0
4, 768, Control_c, 2, 93, 0
4, 896, Control_c, 2, 93, 0
4, 896, Note_on_c, 2, 75, 67
4, 960, Note_off_c, 2, 75, 67
4, 960, Note_on_c, 2, 77, 67
4, 1024, Note_off_c, 2, 77, 67
4, 1024, Note_on_c, 2, 79, 67
4, 1088, Note_off_c, 2, 79, 67
4, 1152, Note_off_c, 2, 79, 67
4, 1152, Note_on_c, 2, 75, 67
4, 1152, Note_on_c, 2, 79, 67
4, 1216, Note_off_c, 2, 75, 67
4, 1216, Note_off_c, 2, 79, 67
4, 1280, Note_off_c, 2, 75, 67
4, 1280, Note_off_c, 2, 79, 67
4, 1280, Note_on_c, 2, 75, 67
4, 1280, Note_on_c, 2, 79, 67
4, 1344, Note_off_c, 2, 75, 67
4, 1344, Note_off_c, 2, 79, 67
4, 1408, Note_off_c, 2, 75, 67
4, 1408, Note_off_c, 2, 79, 67
4, 1408, Note_on_c, 2, 75, 67
4, 1472, Note_off_c, 2, 75, 67
4, 1472, Note_on_c, 2, 77, 67
4, 1536, Note_off_c, 2, 77, 67
4, 1536, Note_on_c, 2, 79, 67
4, 1600, Note_off_c, 2, 79, 67
4, 1664, Note_off_c, 2, 79, 67
4, 1664, Note_on_c, 2, 75, 67
4, 1664, Note_on_c, 2, 79, 67
4, 1728, Note_off_c, 2, 75, 67
4, 1728, Note_off_c, 2, 79, 67
4, 1792, Note_off_c, 2, 75, 67
4, 1792, Note_off_c, 2, 79, 67
4, 1792, Note_on_c, 2, 75, 67
4, 1792, Note_on_c, 2, 79, 67
4, 1856, Note_off_c, 2, 75, 67
4, 1856, Note_off_c, 2, 79, 67
4, 1920, Note_off_c, 2, 75, 67
4, 1920, Note_off_c, 2, 79, 67
4, 1920, Note_on_c, 2, 75, 67
4, 1984, Note_off_c, 2, 75, 67
4, 1984, Note_on_c, 2, 77, 67
4, 2048, Note_off_c, 2, 77, 67
4, 2048, Note_on_c, 2, 79, 67
4, 2112, Note_off_c, 2, 79, 67
4, 2176, Note_off_c, 2, 79, 67
4, 2176, Note_on_c, 2, 75, 67
4, 2176, Note_on_c, 2, 79, 67
4, 2240, Note_off_c, 2, 75, 67
4, 2240, Note_off_c, 2, 79, 67
4, 2304, Note_off_c, 2, 75, 67
4, 2304, Note_off_c, 2, 79, 67
4, 2304, Note_on_c, 2, 75, 67
4, 2304, Note_on_c, 2, 80, 67
4, 2336, Note_off_c, 2, 75, 67
4, 2336, Note_off_c, 2, 80, 67
4, 2368, Note_off_c, 2, 75, 67
4, 2368, Note_off_c, 2, 80, 67
4, 2368, Note_on_c, 2, 74, 67
4, 2400, Note_off_c, 2, 74, 67
4, 2432, Note_off_c, 2, 74, 67
4, 2432, Note_on_c, 2, 72, 67
4, 2464, Note_off_c, 2, 72, 67
4, 2496, Note_off_c, 2, 72, 67
4, 2496, Note_on_c, 2, 74, 67
4, 2496, Note_on_c, 2, 79, 67
4, 2528, Note_off_c, 2, 74, 67
4, 2528, Note_off_c, 2, 79, 67
4, 2560, Note_off_c, 2, 74, 67
4, 2560, Note_off_c, 2, 79, 67
4, 2560, Note_on_c, 2, 70, 67
4, 2560, Note_on_c, 2, 77, 67
4, 2624, Note_off_c, 2, 70, 67
4, 2624, Note_off_c, 2, 77, 67
4, 2688, Note_off_c, 2, 70, 67
4, 2688, Note_off_c, 2, 77, 67
4, 2688, Note_on_c, 2, 68, 67
4, 2688, Note_on_c, 2, 70, 67
4, 2752, Note_off_c, 2, 68, 67
4, 2752, Note_off_c, 2, 70, 67
4, 2816, Note_off_c, 2, 68, 67
4, 2816, Note_off_c, 2, 70, 67
4, 2816, Note_on_c, 2, 68, 67
4, 2816, Note_on_c, 2, 70, 67
4, 2880, Note_off_c, 2, 68, 67
4, 2880, Note_off_c, 2, 70, 67
4, 2944, Note_off_c, 2, 68, 67
4, 2944, Note_off_c, 2, 70, 67
4, 2944, Note_on_c, 2, 74, 67
4, 3008, Note_off_c, 2, 74, 67
4, 3008, Note_on_c, 2, 75, 67
4, 3072, Note_off_c, 2, 75, 67
4, 3072, Note_on_c, 2, 77, 67
4, 3136, Note_off_c, 2, 77, 67
4, 3200, Note_off_c, 2, 77, 67
4, 3200, Note_on_c, 2, 74, 67
4, 3200, Note_on_c, 2, 77, 67
4, 3264, Note_off_c, 2, 74, 67
4, 3264, Note_off_c, 2, 77, 67
4, 3328, Note_off_c, 2, 74, 67
4, 3328, Note_off_c, 2, 77, 67
4, 3328, Note_on_c, 2, 74, 67
4, 3328, Note_on_c, 2, 77, 67
4, 3392, Note_off_c, 2, 74, 67
4, 3392, Note_off_c, 2, 77, 67
4, 3456, Note_off_c, 2, 74, 67
4, 3456, Note_off_c, 2, 77, 67
4, 3456, Note_on_c, 2, 74, 67
4, 3520, Note_off_c, 2, 74, 67
4, 3520, Note_on_c, 2, 75, 67
4, 3584, Note_off_c, 2, 75, 67
4, 3584, Note_on_c, 2, 77, 67
4, 3648, Note_off_c, 2, 77, 67
4, 3712, Note_off_c, 2, 77, 67
4, 3712, Note_on_c, 2, 74, 67
4, 3712, Note_on_c, 2, 77, 67
4, 3776, Note_off_c, 2, 74, 67
4, 3776, Note_off_c, 2, 77, 67
4, 3840, Note_off_c, 2, 74, 67
4, 3840, Note_off_c, 2, 77, 67
4, 3840, Note_on_c, 2, 74, 67
4, 3840, Note_on_c, 2, 77, 67
4, 3904, Note_off_c, 2, 74, 67
4, 3904, Note_off_c, 2, 77, 67
4, 3968, Note_off_c, 2, 74, 67
4, 3968, Note_off_c, 2, 77, 67
4, 3968, Note_on_c, 2, 74, 67
4, 4032, Note_off_c, 2, 74, 67
4, 4032, Note_on_c, 2, 75, 67
4, 4096, Note_off_c, 2, 75, 67
4, 4096, Note_on_c, 2, 70, 67
4, 4096, Note_on_c, 2, 77, 67
4, 4160, Note_off_c, 2, 70, 67
4, 4160, Note_off_c, 2, 77, 67
4, 4224, Note_off_c, 2, 70, 67
4, 4224, Note_off_c, 2, 77, 67
4, 4224, Note_on_c, 2, 74, 67
4, 4224, Note_on_c, 2, 77, 67
4, 4288, Note_off_c, 2, 74, 67
4, 4288, Note_off_c, 2, 77, 67
4, 4352, Note_off_c, 2, 74, 67
4, 4352, Note_off_c, 2, 77, 67
4, 4352, Note_on_c, 2, 74, 67
4, 4352, Note_on_c, 2, 79, 67
4, 4384, Note_off_c, 2, 74, 67
4, 4384, Note_off_c, 2, 79, 67
4, 4416, Note_off_c, 2, 74, 67
4, 4416, Note_off_c, 2, 79, 67
4, 4416, Note_on_c, 2, 72, 67
4, 4416, Note_on_c, 2, 77, 67
4, 4448, Note_off_c, 2, 72, 67
4, 4448, Note_off_c, 2, 77, 67
4, 4480, Note_off_c, 2, 72, 67
4, 4480, Note_off_c, 2, 77, 67
4, 4480, Note_on_c, 2, 70, 67
4, 4480, Note_on_c, 2, 77, 67
4, 4512, Note_off_c, 2, 70, 67
4, 4512, Note_off_c, 2, 77, 67
4, 4544, Note_off_c, 2, 70, 67
4, 4544, Note_off_c, 2, 77, 67
4, 4544, Note_on_c, 2, 68, 67
4, 4544, Note_on_c, 2, 79, 67
4, 4576, Note_off_c, 2, 68, 67
4, 4576, Note_off_c, 2, 79, 67
4, 4608, Note_off_c, 2, 68, 67
4, 4608, Note_off_c, 2, 79, 67
4, 4608, Note_on_c, 2, 67, 67
4, 4608, Note_on_c, 2, 75, 67
4, 4672, Note_off_c, 2, 67, 67
4, 4672, Note_off_c, 2, 75, 67
4, 4736, Note_off_c, 2, 67, 67
4, 4736, Note_off_c, 2, 75, 67
4, 4736, Note_on_c, 2, 70, 67
4, 4800, Note_off_c, 2, 70, 67
4, 4864, Note_off_c, 2, 70, 67
4, 4864, Note_on_c, 2, 70, 67
4, 4864, Note_on_c, 2, 79, 67
4, 4928, Note_off_c, 2, 70, 67
4, 4928, Note_off_c, 2, 79, 67
4, 4992, Note_off_c, 2, 70, 67
4, 4992, Note_off_c, 2, 79, 67
4, 4992, Note_on_c, 2, 75, 67
4, 5056, Note_off_c, 2, 75, 67
4, 5056, Note_on_c, 2, 77, 67
4, 5120, Note_off_c, 2, 77, 67
4, 5120, Note_on_c, 2, 79, 67
4, 5184, Note_off_c, 2, 79, 67
4, 5248, Note_off_c, 2, 79, 67
4, 5248, Note_on_c, 2, 75, 67
4, 5248, Note_on_c, 2, 79, 67
4, 5312, Note_off_c, 2, 75, 67
4, 5312, Note_off_c, 2, 79, 67
4, 5376, Note_off_c, 2, 75, 67
4, 5376, Note_off_c, 2, 79, 67
4, 5376, Note_on_c, 2, 75, 67
4, 5376, Note_on_c, 2, 79, 67
4, 5440, Note_off_c, 2, 75, 67
4, 5440, Note_off_c, 2, 79, 67
4, 5504, Note_off_c, 2, 75, 67
4, 5504, Note_off_c, 2, 79, 67
4, 5504, Note_on_c, 2, 75, 67
4, 5568, Note_off_c, 2, 75, 67
4, 5568, Note_on_c, 2, 77, 67
4, 5632, Note_off_c, 2, 77, 67
4, 5632, Note_on_c, 2, 79, 67
4, 5696, Note_off_c, 2, 79, 67
4, 5760, Note_off_c, 2, 79, 67
4, 5760, Note_on_c, 2, 75, 67
4, 5760, Note_on_c, 2, 79, 67
4, 5824, Note_off_c, 2, 75, 67
4, 5824, Note_off_c, 2, 79, 67
4, 5888, Note_off_c, 2, 75, 67
4, 5888, Note_off_c, 2, 79, 67
4, 5888, Note_on_c, 2, 75, 67
4, 5888, Note_on_c, 2, 79, 67
4, 5952, Note_off_c, 2, 75, 67
4, 5952, Note_off_c, 2, 79, 67
4, 6016, Note_off_c, 2, 75, 67
4, 6016, Note_off_c, 2, 79, 67
4, 6016, Note_on_c, 2, 75, 67
4, 6080, Note_off_c, 2, 75, 67
4, 6080, Note_on_c, 2, 77, 67
4, 6144, Note_off_c, 2, 77, 67
4, 6144, Note_on_c, 2, 79, 67
4, 6208, Note_off_c, 2, 79, 67
4, 6272, Note_off_c, 2, 79, 67
4, 6272, Note_on_c, 2, 75, 67
4, 6272, Note_on_c, 2, 79, 67
4, 6336, Note_off_c, 2, 75, 67
4, 6336, Note_off_c, 2, 79, 67
4, 6400, Note_off_c, 2, 75, 67
4, 6400, Note_off_c, 2, 79, 67
4, 6400, Note_on_c, 2, 75, 67
4, 6400, Note_on_c, 2, 80, 67
4, 6432, Note_off_c, 2, 75, 67
4, 6432, Note_off_c, 2, 80, 67
4, 6464, Note_off_c, 2, 75, 67
4, 6464, Note_off_c, 2, 80, 67
4, 6464, Note_on_c, 2, 74, 67
4, 6528, Note_off_c, 2, 74, 67
4, 6528, Note_on_c, 2, 72, 67
4, 6592, Note_off_c, 2, 72, 67
4, 6592, Note_on_c, 2, 74, 67
4, 6592, Note_on_c, 2, 79, 67
4, 6624, Note_off_c, 2, 74, 67
4, 6624, Note_off_c, 2, 79, 67
4, 6656, Note_off_c, 2, 74, 67
4, 6656, Note_off_c, 2, 79, 67
4, 6656, Note_on_c, 2, 70, 67
4, 6656, Note_on_c, 2, 77, 67
4, 6720, Note_off_c, 2, 70, 67
4, 6720, Note_off_c, 2, 77, 67
4, 6784, Note_off_c, 2, 70, 67
4, 6784, Note_off_c, 2, 77, 67
4, 6784, Note_on_c, 2, 68, 67
4, 6784, Note_on_c, 2, 70, 67
4, 6848, Note_off_c, 2, 68, 67
4, 6848, Note_off_c, 2, 70, 67
4, 6912, Note_off_c, 2, 68, 67
4, 6912, Note_off_c, 2, 70, 67
4, 6912, Note_on_c, 2, 68, 67
4, 6912, Note_on_c, 2, 70, 67
4, 6976, Note_off_c, 2, 68, 67
4, 6976, Note_off_c, 2, 70, 67
4, 7040, Note_off_c, 2, 68, 67
4, 7040, Note_off_c, 2, 70, 67
4, 7040, Note_on_c, 2, 74, 67
4, 7104, Note_off_c, 2, 74, 67
4, 7104, Note_on_c, 2, 75, 67
4, 7168, Note_off_c, 2, 75, 67
4, 7168, Note_on_c, 2, 77, 67
4, 7296, Note_off_c, 2, 77, 67
4, 7296, Note_on_c, 2, 74, 67
4, 7296, Note_on_c, 2, 80, 67
4, 7360, Note_off_c, 2, 74, 67
4, 7360, Note_off_c, 2, 80, 67
4, 7424, Note_off_c, 2, 74, 67
4, 7424, Note_off_c, 2, 80, 67
4, 7424, Note_on_c, 2, 74, 67
4, 7424, Note_on_c, 2, 79, 67
4, 7488, Note_off_c, 2, 74, 67
4, 7488, Note_off_c, 2, 79, 67
4, 7552, Note_off_c, 2, 74, 67
4, 7552, Note_off_c, 2, 79, 67
4, 7552, Note_on_c, 2, 77, 67
4, 7616, Note_off_c, 2, 77, 67
4, 7680, Note_off_c, 2, 77, 67
4, 7680, Note_on_c, 2, 75, 67
4, 7744, Note_off_c, 2, 75, 67
4, 7808, Note_off_c, 2, 75, 67
4, 7808, Note_on_c, 2, 70, 67
4, 7808, Note_on_c, 2, 74, 67
4, 7872, Note_off_c, 2, 70, 67
4, 7872, Note_off_c, 2, 74, 67
4, 7936, Note_off_c, 2, 70, 67
4, 7936, Note_off_c, 2, 74, 67
4, 7936, Note_on_c, 2, 72, 67
4, 7936, Note_on_c, 2, 74, 67
4, 8000, Note_off_c, 2, 72, 67
4, 8000, Note_off_c, 2, 74, 67
4, 8064, Note_off_c, 2, 72, 67
4, 8064, Note_off_c, 2, 74, 67
4, 8064, Note_on_c, 2, 70, 67
4, 8064, Note_on_c, 2, 74, 67
4, 8128, Note_off_c, 2, 70, 67
4, 8128, Note_off_c, 2, 74, 67
4, 8192, Note_off_c, 2, 70, 67
4, 8192, Note_off_c, 2, 74, 67
4, 8192, Note_on_c, 2, 80, 67
4, 8192, Note_on_c, 2, 84, 67
4, 8448, Note_off_c, 2, 80, 67
4, 8448, Note_off_c, 2, 84, 67
4, 8448, Note_on_c, 2, 70, 67
4, 8448, Note_on_c, 2, 74, 67
4, 8464, Note_off_c, 2, 70, 67
4, 8464, Note_off_c, 2, 74, 67
4, 8480, Note_off_c, 2, 70, 67
4, 8480, Note_off_c, 2, 74, 67
4, 8480, Note_on_c, 2, 72, 67
4, 8480, Note_on_c, 2, 75, 67
4, 8496, Note_off_c, 2, 72, 67
4, 8496, Note_off_c, 2, 75, 67
4, 8512, Note_off_c, 2, 72, 67
4, 8512, Note_off_c, 2, 75, 67
4, 8512, Note_on_c, 2, 70, 67
4, 8512, Note_on_c, 2, 74, 67
4, 8544, Note_off_c, 2, 70, 67
4, 8544, Note_off_c, 2, 74, 67
4, 8576, Note_off_c, 2, 70, 67
4, 8576, Note_off_c, 2, 74, 67
4, 8576, Note_on_c, 2, 68, 67
4, 8576, Note_on_c, 2, 72, 67
4, 8608, Note_off_c, 2, 68, 67
4, 8608, Note_off_c, 2, 72, 67
4, 8640, Note_off_c, 2, 68, 67
4, 8640, Note_off_c, 2, 72, 67
4, 8640, Note_on_c, 2, 74, 67
4, 8640, Note_on_c, 2, 77, 67
4, 8672, Note_off_c, 2, 74, 67
4, 8672, Note_off_c, 2, 77, 67
4, 8704, Note_off_c, 2, 74, 67
4, 8704, Note_off_c, 2, 77, 67
4, 8704, Note_on_c, 2, 75, 67
4, 8704, Note_on_c, 2, 79, 67
4, 8832, Note_off_c, 2, 75, 67
4, 8832, Note_off_c, 2, 79, 67
4, 8832, Note_on_c, 2, 70, 67
4, 8896, Note_off_c, 2, 70, 67
4, 8960, Note_off_c, 2, 70, 67
4, 8960, Note_on_c, 2, 70, 67
4, 9024, Note_off_c, 2, 70, 67
4, 9088, Note_off_c, 2, 70, 67
4, 9088, Note_on_c, 2, 75, 67
4, 9088, Note_on_c, 2, 79, 67
4, 9152, Note_off_c, 2, 75, 67
4, 9152, Note_off_c, 2, 79, 67
4, 9152, Note_on_c, 2, 77, 67
4, 9152, Note_on_c, 2, 80, 67
4, 9216, Note_off_c, 2, 77, 67
4, 9216, Note_off_c, 2, 80, 67
4, 9216, Note_on_c, 2, 79, 67
4, 9216, Note_on_c, 2, 82, 67
4, 9280, Note_off_c, 2, 79, 67
4, 9280, Note_off_c, 2, 82, 67
4, 9344, Note_off_c, 2, 79, 67
4, 9344, Note_off_c, 2, 82, 67
4, 9344, Note_on_c, 2, 79, 67
4, 9344, Note_on_c, 2, 82, 67
4, 9408, Note_off_c, 2, 79, 67
4, 9408, Note_off_c, 2, 82, 67
4, 9472, Note_off_c, 2, 79, 67
4, 9472, Note_off_c, 2, 82, 67
4, 9472, Note_on_c, 2, 70, 67
4, 9472, Note_on_c, 2, 79, 67
4, 9536, Note_off_c, 2, 70, 67
4, 9536, Note_off_c, 2, 79, 67
4, 9600, Note_off_c, 2, 70, 67
4, 9600, Note_off_c, 2, 79, 67
4, 9600, Note_on_c, 2, 70, 67
4, 9600, Note_on_c, 2, 75, 67
4, 9664, Note_off_c, 2, 70, 67
4, 9664, Note_off_c, 2, 75, 67
4, 9728, Note_off_c, 2, 70, 67
4, 9728, Note_off_c, 2, 75, 67
4, 9728, Note_on_c, 2, 84, 67
4, 9728, Note_on_c, 2, 87, 67
4, 9792, Note_off_c, 2, 84, 67
4, 9792, Note_off_c, 2, 87, 67
4, 9856, Note_off_c, 2, 84, 67
4, 9856, Note_off_c, 2, 87, 67
4, 9856, Note_on_c, 2, 82, 67
4, 9856, Note_on_c, 2, 86, 67
4, 9920, Note_off_c, 2, 82, 67
4, 9920, Note_off_c, 2, 86, 67
4, 9984, Note_off_c, 2, 82, 67
4, 9984, Note_off_c, 2, 86, 67
4, 9984, Note_on_c, 2, 80, 67
4, 9984, Note_on_c, 2, 84, 67
4, 10048, Note_off_c, 2, 80, 67
4, 10048, Note_off_c, 2, 84, 67
4, 10112, Note_off_c, 2, 80, 67
4, 10112, Note_off_c, 2, 84, 67
4, 10112, Note_on_c, 2, 79, 67
4, 10112, Note_on_c, 2, 87, 67
4, 10176, Note_off_c, 2, 79, 67
4, 10176, Note_off_c, 2, 87, 67
4, 10240, Note_off_c, 2, 79, 67
4, 10240, Note_off_c, 2, 87, 67
4, 10240, Note_on_c, 2, 75, 67
4, 10240, Note_on_c, 2, 82, 67
4, 10304, Note_off_c, 2, 75, 67
4, 10304, Note_off_c, 2, 82, 67
4, 10368, Note_off_c, 2, 75, 67
4, 10368, Note_off_c, 2, 82, 67
4, 10368, Note_on_c, 2, 79, 67
4, 10432, Note_off_c, 2, 79, 67
4, 10496, Note_off_c, 2, 79, 67
4, 10496, Note_on_c, 2, 67, 67
4, 10496, Note_on_c, 2, 75, 67
4, 10560, Note_off_c, 2, 67, 67
4, 10560, Note_off_c, 2, 75, 67
4, 10624, Note_off_c, 2, 67, 67
4, 10624, Note_off_c, 2, 75, 67
4, 10624, Note_on_c, 2, 68, 67
4, 10624, Note_on_c, 2, 74, 67
4, 10656, Note_off_c, 2, 68, 67
4, 10656, Note_off_c, 2, 74, 67
4, 10688, Note_off_c, 2, 68, 67
4, 10688, Note_off_c, 2, 74, 67
4, 10688, Note_on_c, 2, 74, 67
4, 10688, Note_on_c, 2, 79, 67
4, 10720, Note_off_c, 2, 74, 67
4, 10720, Note_off_c, 2, 79, 67
4, 10752, Note_off_c, 2, 74, 67
4, 10752, Note_off_c, 2, 79, 67
4, 10752, Note_on_c, 2, 70, 67
4, 10752, Note_on_c, 2, 77, 67
4, 10816, Note_off_c, 2, 70, 67
4, 10816, Note_off_c, 2, 77, 67
4, 10880, Note_off_c, 2, 70, 67
4, 10880, Note_off_c, 2, 77, 67
4, 10880, Note_on_c, 2, 65, 67
4, 10880, Note_on_c, 2, 70, 67
4, 10944, Note_off_c, 2, 65, 67
4, 10944, Note_off_c, 2, 70, 67
4, 11008, Note_off_c, 2, 65, 67
4, 11008, Note_off_c, 2, 70, 67
4, 11008, Note_on_c, 2, 68, 67
4, 11008, Note_on_c, 2, 70, 67
4, 11072, Note_off_c, 2, 68, 67
4, 11072, Note_off_c, 2, 70, 67
4, 11136, Note_off_c, 2, 68, 67
4, 11136, Note_off_c, 2, 70, 67
4, 11136, Note_on_c, 2, 70, 67
4, 11136, Note_on_c, 2, 79, 67
4, 11200, Note_off_c, 2, 70, 67
4, 11200, Note_off_c, 2, 79, 67
4, 11200, Note_on_c, 2, 77, 67
4, 11200, Note_on_c, 2, 80, 67
4, 11264, Note_off_c, 2, 77, 67
4, 11264, Note_off_c, 2, 80, 67
4, 11264, Note_on_c, 2, 79, 67
4, 11264, Note_on_c, 2, 82, 67
4, 11328, Note_off_c, 2, 79, 67
4, 11328, Note_off_c, 2, 82, 67
4, 11392, Note_off_c, 2, 79, 67
4, 11392, Note_off_c, 2, 82, 67
4, 11392, Note_on_c, 2, 79, 67
4, 11392, Note_on_c, 2, 82, 67
4, 11456, Note_off_c, 2, 79, 67
4, 11456, Note_off_c, 2, 82, 67
4, 11520, Note_off_c, 2, 79, 67
4, 11520, Note_off_c, 2, 82, 67
4, 11520, Note_on_c, 2, 70, 67
4, 11520, Note_on_c, 2, 79, 67
4, 11584, Note_off_c, 2, 70, 67
4, 11584, Note_off_c, 2, 79, 67
4, 11648, Note_off_c, 2, 70, 67
4, 11648, Note_off_c, 2, 79, 67
4, 11648, Note_on_c, 2, 75, 67
4, 11648, Note_on_c, 2, 82, 67
4, 11712, Note_off_c, 2, 75, 67
4, 11712, Note_off_c, 2, 82, 67
4, 11776, Note_off_c, 2, 75, 67
4, 11776, Note_off_c, 2, 82, 67
4, 11776, Note_on_c, 2, 84, 67
4, 11776, Note_on_c, 2, 87, 67
4, 11840, Note_off_c, 2, 84, 67
4, 11840, Note_off_c, 2, 87, 67
4, 11904, Note_off_c, 2, 84, 67
4, 11904, Note_off_c, 2, 87, 67
4, 11904, Note_on_c, 2, 82, 67
4, 11904, Note_on_c, 2, 86, 67
4, 11968, Note_off_c, 2, 82, 67
4, 11968, Note_off_c, 2, 86, 67
4, 12032, Note_off_c, 2, 82, 67
4, 12032, Note_off_c, 2, 86, 67
4, 12032, Note_on_c, 2, 80, 67
4, 12032, Note_on_c, 2, 84, 67
4, 12096, Note_off_c, 2, 80, 67
4, 12096, Note_off_c, 2, 84, 67
4, 12160, Note_off_c, 2, 80, 67
4, 12160, Note_off_c, 2, 84, 67
4, 12160, Note_on_c, 2, 70, 67
4, 12160, Note_on_c, 2, 74, 67
4, 12192, Note_off_c, 2, 70, 67
4, 12192, Note_off_c, 2, 74, 67
4, 12224, Note_off_c, 2, 70, 67
4, 12224, Note_off_c, 2, 74, 67
4, 12224, Note_on_c, 2, 77, 67
4, 12224, Note_on_c, 2, 80, 67
4, 12256, Note_off_c, 2, 77, 67
4, 12256, Note_off_c, 2, 80, 67
4, 12288, Note_off_c, 2, 77, 67
4, 12288, Note_off_c, 2, 80, 67
4, 12288, Note_on_c, 2, 77, 67
4, 12288, Note_on_c, 2, 82, 67
4, 12352, Note_off_c, 2, 77, 67
4, 12352, Note_off_c, 2, 82, 67
4, 12416, Note_off_c, 2, 77, 67
4, 12416, Note_off_c, 2, 82, 67
4, 12416, Note_on_c, 2, 80, 67
4, 12416, Note_on_c, 2, 87, 67
4, 12480, Note_off_c, 2, 80, 67
4, 12480, Note_off_c, 2, 87, 67
4, 12544, Note_off_c, 2, 80, 67
4, 12544, Note_off_c, 2, 87, 67
4, 12544, Note_on_c, 2, 82, 67
4, 12544, Note_on_c, 2, 86, 67
4, 12608, Note_off_c, 2, 82, 67
4, 12608, Note_off_c, 2, 86, 67
4, 12672, Note_off_c, 2, 82, 67
4, 12672, Note_off_c, 2, 86, 67
4, 12672, Note_on_c, 2, 80, 67
4, 12672, Note_on_c, 2, 89, 67
4, 12736, Note_off_c, 2, 80, 67
4, 12736, Note_off_c, 2, 89, 67
4, 12800, Note_off_c, 2, 80, 67
4, 12800, Note_off_c, 2, 89, 67
4, 12800, Note_on_c, 2, 79, 67
4, 12800, Note_on_c, 2, 87, 67
4, 12864, Note_off_c, 2, 79, 67
4, 12864, Note_off_c, 2, 87, 67
4, 12928, Note_off_c, 2, 79, 67
4, 12928, Note_off_c, 2, 87, 67
4, 12928, Note_on_c, 2, 70, 67
4, 12928, Note_on_c, 2, 82, 67
4, 12992, Note_off_c, 2, 70, 67
4, 12992, Note_off_c, 2, 82, 67
4, 13056, Note_off_c, 2, 70, 67
4, 13056, Note_off_c, 2, 82, 67
4, 13056, Note_on_c, 2, 70, 67
4, 13056, Note_on_c, 2, 82, 67
4, 13120, Note_off_c, 2, 70, 67
4, 13120, Note_off_c, 2, 82, 67
4, 13184, Note_off_c, 2, 70, 67
4, 13184, Note_off_c, 2, 82, 67
4, 13184, Note_on_c, 2, 75, 67
4, 13248, Note_off_c, 2, 75, 67
4, 13248, Note_on_c, 2, 77, 67
4, 13312, Note_off_c, 2, 77, 67
4, 13312, Note_on_c, 2, 79, 67
4, 13376, Note_off_c, 2, 79, 67
4, 13440, Note_off_c, 2, 79, 67
4, 13440, Note_on_c, 2, 75, 67
4, 13440, Note_on_c, 2, 79, 67
4, 13504, Note_off_c, 2, 75, 67
4, 13504, Note_off_c, 2, 79, 67
4, 13568, Note_off_c, 2, 75, 67
4, 13568, Note_off_c, 2, 79, 67
4, 13568, Note_on_c, 2, 75, 67
4, 13568, Note_on_c, 2, 79, 67
4, 13632, Note_off_c, 2, 75, 67
4, 13632, Note_off_c, 2, 79, 67
4, 13696, Note_off_c, 2, 75, 67
4, 13696, Note_off_c, 2, 79, 67
4, 13696, Note_on_c, 2, 75, 67
4, 13760, Note_off_c, 2, 75, 67
4, 13760, Note_on_c, 2, 77, 67
4, 13824, Note_off_c, 2, 77, 67
4, 13824, Note_on_c, 2, 79, 67
4, 13888, Note_off_c, 2, 79, 67
4, 13952, Note_off_c, 2, 79, 67
4, 13952, Note_on_c, 2, 75, 67
4, 13952, Note_on_c, 2, 79, 67
4, 14016, Note_off_c, 2, 75, 67
4, 14016, Note_off_c, 2, 79, 67
4, 14080, Note_off_c, 2, 75, 67
4, 14080, Note_off_c, 2, 79, 67
4, 14080, Note_on_c, 2, 75, 67
4, 14080, Note_on_c, 2, 79, 67
4, 14144, Note_off_c, 2, 75, 67
4, 14144, Note_off_c, 2, 79, 67
4, 14208, Note_off_c, 2, 75, 67
4, 14208, Note_off_c, 2, 79, 67
4, 14208, Note_on_c, 2, 75, 67
4, 14272, Note_off_c, 2, 75, 67
4, 14272, Note_on_c, 2, 77, 67
4, 14336, Note_off_c, 2, 77, 67
4, 14336, Note_on_c, 2, 79, 67
4, 14400, Note_off_c, 2, 79, 67
4, 14464, Note_off_c, 2, 79, 67
4, 14464, Note_on_c, 2, 75, 67
4, 14464, Note_on_c, 2, 79, 67
4, 14528, Note_off_c, 2, 75, 67
4, 14528, Note_off_c, 2, 79, 67
4, 14592, Note_off_c, 2, 75, 67
4, 14592, Note_off_c, 2, 79, 67
4, 14592, Note_on_c, 2, 75, 67
4, 14592, Note_on_c, 2, 80, 67
4, 14624, Note_off_c, 2, 75, 67
4, 14624, Note_off_c, 2, 80, 67
4, 14656, Note_off_c, 2, 75, 67
4, 14656, Note_off_c, 2, 80, 67
4, 14656, Note_on_c, 2, 74, 67
4, 14688, Note_off_c, 2, 74, 67
4, 14720, Note_off_c, 2, 74, 67
4, 14720, Note_on_c, 2, 72, 67
4, 14752, Note_off_c, 2, 72, 67
4, 14784, Note_off_c, 2, 72, 67
4, 14784, Note_on_c, 2, 74, 67
4, 14784, Note_on_c, 2, 79, 67
4, 14816, Note_off_c, 2, 74, 67
4, 14816, Note_off_c, 2, 79, 67
4, 14848, Note_off_c, 2, 74, 67
4, 14848, Note_off_c, 2, 79, 67
4, 14848, Note_on_c, 2, 70, 67
4, 14848, Note_on_c, 2, 77, 67
4, 14912, Note_off_c, 2, 70, 67
4, 14912, Note_off_c, 2, 77, 67
4, 14976, Note_off_c, 2, 70, 67
4, 14976, Note_off_c, 2, 77, 67
4, 14976, Note_on_c, 2, 68, 67
4, 14976, Note_on_c, 2, 70, 67
4, 15040, Note_off_c, 2, 68, 67
4, 15040, Note_off_c, 2, 70, 67
4, 15104, Note_off_c, 2, 68, 67
4, 15104, Note_off_c, 2, 70, 67
4, 15104, Note_on_c, 2, 68, 67
4, 15104, Note_on_c, 2, 70, 67
4, 15168, Note_off_c, 2, 68, 67
4, 15168, Note_off_c, 2, 70, 67
4, 15232, Note_off_c, 2, 68, 67
4, 15232, Note_off_c, 2, 70, 67
4, 15232, Note_on_c, 2, 74, 67
4, 15296, Note_off_c, 2, 74, 67
4, 15296, Note_on_c, 2, 75, 67
4, 15360, Note_off_c, 2, 75, 67
4, 15360, Note_on_c, 2, 77, 67
4, 15424, Note_off_c, 2, 77, 67
4, 15488, Note_off_c, 2, 77, 67
4, 15488, Note_on_c, 2, 74, 67
4, 15488, Note_on_c, 2, 77, 67
4, 15552, Note_off_c, 2, 74, 67
4, 15552, Note_off_c, 2, 77, 67
4, 15616, Note_off_c, 2, 74, 67
4, 15616, Note_off_c, 2, 77, 67
4, 15616, Note_on_c, 2, 74, 67
4, 15616, Note_on_c, 2, 77, 67
4, 15680, Note_off_c, 2, 74, 67
4, 15680, Note_off_c, 2, 77, 67
4, 15744, Note_off_c, 2, 74, 67
4, 15744, Note_off_c, 2, 77, 67
4, 15744, Note_on_c, 2, 74, 67
4, 15808, Note_off_c, 2, 74, 67
4, 15808, Note_on_c, 2, 75, 67
4, 15872, Note_off_c, 2, 75, 67
4, 15872, Note_on_c, 2, 77, 67
4, 15936, Note_off_c, 2, 77, 67
4, 16000, Note_off_c, 2, 77, 67
4, 16000, Note_on_c, 2, 74, 67
4, 16000, Note_on_c, 2, 77, 67
4, 16064, Note_off_c, 2, 74, 67
4, 16064, Note_off_c, 2, 77, 67
4, 16128, Note_off_c, 2, 74, 67
4, 16128, Note_off_c, 2, 77, 67
4, 16128, Note_on_c, 2, 74, 67
4, 16128, Note_on_c, 2, 77, 67
4, 16192, Note_off_c, 2, 74, 67
4, 16192, Note_off_c, 2, 77, 67
4, 16256, Note_off_c, 2, 74, 67
4, 16256, Note_off_c, 2, 77, 67
4, 16256, Note_on_c, 2, 74, 67
4, 16320, Note_off_c, 2, 74, 67
4, 16320, Note_on_c, 2, 75, 67
4, 16384, Note_off_c, 2, 75, 67
4, 16384, Note_on_c, 2, 70, 67
4, 16384, Note_on_c, 2, 77, 67
4, 16448, Note_off_c, 2, 70, 67
4, 16448, Note_off_c, 2, 77, 67
4, 16512, Note_off_c, 2, 70, 67
4, 16512, Note_off_c, 2, 77, 67
4, 16512, Note_on_c, 2, 74, 67
4, 16512, Note_on_c, 2, 77, 67
4, 16576, Note_off_c, 2, 74, 67
4, 16576, Note_off_c, 2, 77, 67
4, 16640, Note_off_c, 2, 74, 67
4, 16640, Note_off_c, 2, 77, 67
4, 16640, Note_on_c, 2, 74, 67
4, 16640, Note_on_c, 2, 79, 67
4, 16672, Note_off_c, 2, 74, 67
4, 16672, Note_off_c, 2, 79, 67
4, 16704, Note_off_c, 2, 74, 67
4, 16704, Note_off_c, 2, 79, 67
4, 16704, Note_on_c, 2, 72, 67
4, 16704, Note_on_c, 2, 77, 67
4, 16736, Note_off_c, 2, 72, 67
4, 16736, Note_off_c, 2, 77, 67
4, 16768, Note_off_c, 2, 72, 67
4, 16768, Note_off_c, 2, 77, 67
4, 16768, Note_on_c, 2, 70, 67
4, 16768, Note_on_c, 2, 77, 67
4, 16800, Note_off_c, 2, 70, 67
4, 16800, Note_off_c, 2, 77, 67
4, 16832, Note_off_c, 2, 70, 67
4, 16832, Note_off_c, 2, 77, 67
4, 16832, Note_on_c, 2, 68, 67
4, 16832, Note_on_c, 2, 79, 67
4, 16864, Note_off_c, 2, 68, 67
4, 16864, Note_off_c, 2, 79, 67
4, 16896, Note_off_c, 2, 68, 67
4, 16896, Note_off_c, 2, 79, 67
4, 16896, Note_on_c, 2, 67, 67
4, 16896, Note_on_c, 2, 75, 67
4, 16960, Note_off_c, 2, 67, 67
4, 16960, Note_off_c, 2, 75, 67
4, 17024, Note_off_c, 2, 67, 67
4, 17024, Note_off_c, 2, 75, 67
4, 17024, Note_on_c, 2, 70, 67
4, 17088, Note_off_c, 2, 70, 67
4, 17152, Note_off_c, 2, 70, 67
4, 17152, Note_on_c, 2, 70, 67
4, 17152, Note_on_c, 2, 79, 67
4, 17216, Note_off_c, 2, 70, 67
4, 17216, Note_off_c, 2, 79, 67
4, 17280, Note_off_c, 2, 70, 67
4, 17280, Note_off_c, 2, 79, 67
4, 17280, Note_on_c, 2, 75, 67
4, 17344, Note_off_c, 2, 75, 67
4, 17344, Note_on_c, 2, 77, 67
4, 17408, Note_off_c, 2, 77, 67
4, 17408, Note_on_c, 2, 79, 67
4, 17472, Note_off_c, 2, 79, 67
4, 17536, Note_off_c, 2, 79, 67
4, 17536, Note_on_c, 2, 75, 67
4, 17536, Note_on_c, 2, 79, 67
4, 17600, Note_off_c, 2, 75, 67
4, 17600, Note_off_c, 2, 79, 67
4, 17664, Note_off_c, 2, 75, 67
4, 17664, Note_off_c, 2, 79, 67
4, 17664, Note_on_c, 2, 75, 67
4, 17664, Note_on_c, 2, 79, 67
4, 17728, Note_off_c, 2, 75, 67
4, 17728, Note_off_c, 2, 79, 67
4, 17792, Note_off_c, 2, 75, 67
4, 17792, Note_off_c, 2, 79, 67
4, 17792, Note_on_c, 2, 75, 67
4, 17856, Note_off_c, 2, 75, 67
4, 17856, Note_on_c, 2, 77, 67
4, 17920, Note_off_c, 2, 77, 67
4, 17920, Note_on_c, 2, 79, 67
4, 17984, Note_off_c, 2, 79, 67
4, 18048, Note_off_c, 2, 79, 67
4, 18048, Note_on_c, 2, 75, 67
4, 18048, Note_on_c, 2, 79, 67
4, 18112, Note_off_c, 2, 75, 67
4, 18112, Note_off_c, 2, 79, 67
4, 18176, Note_off_c, 2, 75, 67
4, 18176, Note_off_c, 2, 79, 67
4, 18176, Note_on_c, 2, 75, 67
4, 18176, Note_on_c, 2, 79, 67
4, 18240, Note_off_c, 2, 75, 67
4, 18240, Note_off_c, 2, 79, 67
4, 18304, Note_off_c, 2, 75, 67
4, 18304, Note_off_c, 2, 79, 67
4, 18304, Note_on_c, 2, 75, 67
4, 18368, Note_off_c, 2, 75, 67
4, 18368, Note_on_c, 2, 77, 67
4, 18432, Note_off_c, 2, 77, 67
4, 18432, Note_on_c, 2, 79, 67
4, 18496, Note_off_c, 2, 79, 67
4, 18560, Note_off_c, 2, 79, 67
4, 18560, Note_on_c, 2, 75, 67
4, 18560, Note_on_c, 2, 79, 67
4, 18624, Note_off_c, 2, 75, 67
4, 18624, Note_off_c, 2, 79, 67
4, 18688, Note_off_c, 2, 75, 67
4, 18688, Note_off_c, 2, 79, 67
4, 18688, Note_on_c, 2, 75, 67
4, 18688, Note_on_c, 2, 80, 67
4, 18720, Note_off_c, 2, 75, 67
4, 18720, Note_off_c, 2, 80, 67
4, 18752, Note_off_c, 2, 75, 67
4, 18752, Note_off_c, 2, 80, 67
4, 18752, Note_on_c, 2, 74, 67
4, 18816, Note_off_c, 2, 74, 67
4, 18816, Note_on_c, 2, 72, 67
4, 18880, Note_off_c, 2, 72, 67
4, 18880, Note_on_c, 2, 74, 67
4, 18880, Note_on_c, 2, 79, 67
4, 18912, Note_off_c, 2, 74, 67
4, 18912, Note_off_c, 2, 79, 67
4, 18944, Note_off_c, 2, 74, 67
4, 18944, Note_off_c, 2, 79, 67
4, 18944, Note_on_c, 2, 70, 67
4, 18944, Note_on_c, 2, 77, 67
4, 19008, Note_off_c, 2, 70, 67
4, 19008, Note_off_c, 2, 77, 67
4, 19072, Note_off_c, 2, 70, 67
4, 19072, Note_off_c, 2, 77, 67
4, 19072, Note_on_c, 2, 68, 67
4, 19072, Note_on_c, 2, 70, 67
4, 19136, Note_off_c, 2, 68, 67
4, 19136, Note_off_c, 2, 70, 67
4, 19200, Note_off_c, 2, 68, 67
4, 19200, Note_off_c, 2, 70, 67
4, 19200, Note_on_c, 2, 68, 67
4, 19200, Note_on_c, 2, 70, 67
4, 19264, Note_off_c, 2, 68, 67
4, 19264, Note_off_c, 2, 70, 67
4, 19328, Note_off_c, 2, 68, 67
4, 19328, Note_off_c, 2, 70, 67
4, 19328, Note_on_c, 2, 74, 67
4, 19392, Note_off_c, 2, 74, 67
4, 19392, Note_on_c, 2, 75, 67
4, 19456, Note_off_c, 2, 75, 67
4, 19456, Note_on_c, 2, 77, 67
4, 19584, Note_off_c, 2, 77, 67
4, 19584, Note_on_c, 2, 74, 67
4, 19584, Note_on_c, 2, 80, 67
4, 19648, Note_off_c, 2, 74, 67
4, 19648, Note_off_c, 2, 80, 67
4, 19712, Note_off_c, 2, 74, 67
4, 19712, Note_off_c, 2, 80, 67
4, 19712, Note_on_c, 2, 74, 67
4, 19712, Note_on_c, 2, 79, 67
4, 19776, Note_off_c, 2, 74, 67
4, 19776, Note_off_c, 2, 79, 67
4, 19840, Note_off_c, 2, 74, 67
4, 19840, Note_off_c, 2, 79, 67
4, 19840, Note_on_c, 2, 77, 67
4, 19904, Note_off_c, 2, 77, 67
4, 19968, Note_off_c, 2, 77, 67
4, 19968, Note_on_c, 2, 75, 67
4, 20032, Note_off_c, 2, 75, 67
4, 20096, Note_off_c, 2, 75, 67
4, 20096, Note_on_c, 2, 70, 67
4, 20096, Note_on_c, 2, 74, 67
4, 20160, Note_off_c, 2, 70, 67
4, 20160, Note_off_c, 2, 74, 67
4, 20224, Note_off_c, 2, 70, 67
4, 20224, Note_off_c, 2, 74, 67
4, 20224, Note_on_c, 2, 72, 67
4, 20224, Note_on_c, 2, 74, 67
4, 20288, Note_off_c, 2, 72, 67
4, 20288, Note_off_c, 2, 74, 67
4, 20352, Note_off_c, 2, 72, 67
4, 20352, Note_off_c, 2, 74, 67
4, 20352, Note_on_c, 2, 70, 67
4, 20352, Note_on_c, 2, 74, 67
4, 20416, Note_off_c, 2, 70, 67
4, 20416, Note_off_c, 2, 74, 67
4, 20480, Note_off_c, 2, 70, 67
4, 20480, Note_off_c, 2, 74, 67
4, 20480, Note_on_c, 2, 80, 67
4, 20480, Note_on_c, 2, 84, 67
4, 20736, Note_off_c, 2, 80, 67
4, 20736, Note_off_c, 2, 84, 67
4, 20736, Note_on_c, 2, 70, 67
4, 20736, Note_on_c, 2, 74, 67
4, 20752, Note_off_c, 2, 70, 67
4, 20752, Note_off_c, 2, 74, 67
4, 20768, Note_off_c, 2, 70, 67
4, 20768, Note_off_c, 2, 74, 67
4, 20768, Note_on_c, 2, 72, 67
4, 20768, Note_on_c, 2, 75, 67
4, 20784, Note_off_c, 2, 72, 67
4, 20784, Note_off_c, 2, 75, 67
4, 20800, Note_off_c, 2, 72, 67
4, 20800, Note_off_c, 2, 75, 67
4, 20800, Note_on_c, 2, 70, 67
4, 20800, Note_on_c, 2, 74, 67
4, 20832, Note_off_c, 2, 70, 67
4, 20832, Note_off_c, 2, 74, 67
4, 20864, Note_off_c, 2, 70, 67
4, 20864, Note_off_c, 2, 74, 67
4, 20864, Note_on_c, 2, 68, 67
4, 20864, Note_on_c, 2, 72, 67
4, 20896, Note_off_c, 2, 68, 67
4, 20896, Note_off_c, 2, 72, 67
4, 20928, Note_off_c, 2, 68, 67
4, 20928, Note_off_c, 2, 72, 67
4, 20928, Note_on_c, 2, 74, 67
4, 20928, Note_on_c, 2, 77, 67
4, 20960, Note_off_c, 2, 74, 67
4, 20960, Note_off_c, 2, 77, 67
4, 20992, Note_off_c, 2, 74, 67
4, 20992, Note_off_c, 2, 77, 67
4, 20992, Note_on_c, 2, 75, 67
4, 20992, Note_on_c, 2, 79, 67
4, 21120, Note_off_c, 2, 75, 67
4, 21120, Note_off_c, 2, 79, 67
4, 21120, Note_on_c, 2, 70, 67
4, 21184, Note_off_c, 2, 70, 67
4, 21248, Note_off_c, 2, 70, 67
4, 21248, Note_on_c, 2, 70, 67
4, 21312, Note_off_c, 2, 70, 67
4, 21376, Note_off_c, 2, 70, 67
4, 21376, Note_on_c, 2, 75, 67
4, 21376, Note_on_c, 2, 79, 67
4, 21440, Note_off_c, 2, 75, 67
4, 21440, Note_off_c, 2, 79, 67
4, 21440, Note_on_c, 2, 77, 67
4, 21440, Note_on_c, 2, 80, 67
4, 21504, Note_off_c, 2, 77, 67
4, 21504, Note_off_c, 2, 80, 67
4, 21504, Note_on_c, 2, 79, 67
4, 21504, Note_on_c, 2, 82, 67
4, 21568, Note_off_c, 2, 79, 67
4, 21568, Note_off_c, 2, 82, 67
4, 21632, Note_off_c, 2, 79, 67
4, 21632, Note_off_c, 2, 82, 67
4, 21632, Note_on_c, 2, 79, 67
4, 21632, Note_on_c, 2, 82, 67
4, 21696, Note_off_c, 2, 79, 67
4, 21696, Note_off_c, 2, 82, 67
4, 21760, Note_off_c, 2, 79, 67
4, 21760, Note_off_c, 2, 82, 67
4, 21760, Note_on_c, 2, 70, 67
4, 21760, Note_on_c, 2, 79, 67
4, 21824, Note_off_c, 2, 70, 67
4, 21824, Note_off_c, 2, 79, 67
4, 21888, Note_off_c, 2, 70, 67
4, 21888, Note_off_c, 2, 79, 67
4, 21888, Note_on_c, 2, 70, 67
4, 21888, Note_on_c, 2, 75, 67
4, 21952, Note_off_c, 2, 70, 67
4, 21952, Note_off_c, 2, 75, 67
4, 22016, Note_off_c, 2, 70, 67
4, 22016, Note_off_c, 2, 75, 67
4, 22016, Note_on_c, 2, 84, 67
4, 22016, Note_on_c, 2, 87, 67
4, 22080, Note_off_c, 2, 84, 67
4, 22080, Note_off_c, 2, 87, 67
4, 22144, Note_off_c, 2, 84, 67
4, 22144, Note_off_c, 2, 87, 67
4, 22144, Note_on_c, 2, 82, 67
4, 22144, Note_on_c, 2, 86, 67
4, 22208, Note_off_c, 2, 82, 67
4, 22208, Note_off_c, 2, 86, 67
4, 22272, Note_off_c, 2, 82, 67
4, 22272, Note_off_c, 2, 86, 67
4, 22272, Note_on_c, 2, 80, 67
4, 22272, Note_on_c, 2, 84, 67
4, 22336, Note_off_c, 2, 80, 67
4, 22336, Note_off_c, 2, 84, 67
4, 22400, Note_off_c, 2, 80, 67
4, 22400, Note_off_c, 2, 84, 67
4, 22400, Note_on_c, 2, 79, 67
4, 22400, Note_on_c, 2, 87, 67
4, 22464, Note_off_c, 2, 79, 67
4, 22464, Note_off_c, 2, 87, 67
4, 22528, Note_off_c, 2, 79, 67
4, 22528, Note_off_c, 2, 87, 67
4, 22528, Note_on_c, 2, 75, 67
4, 22528, Note_on_c, 2, 82, 67
4, 22592, Note_off_c, 2, 75, 67
4, 22592, Note_off_c, 2, 82, 67
4, 22656, Note_off_c, 2, 75, 67
4, 22656, Note_off_c, 2, 82, 67
4, 22656, Note_on_c, 2, 79, 67
4, 22720, Note_off_c, 2, 79, 67
4, 22784, Note_off_c, 2, 79, 67
4, 22784, Note_on_c, 2, 67, 67
4, 22784, Note_on_c, 2, 75, 67
4, 22848, Note_off_c, 2, 67, 67
4, 22848, Note_off_c, 2, 75, 67
4, 22912, Note_off_c, 2, 67, 67
4, 22912, Note_off_c, 2, 75, 67
4, 22912, Note_on_c, 2, 68, 67
4, 22912, Note_on_c, 2, 74, 67
4, 22944, Note_off_c, 2, 68, 67
4, 22944, Note_off_c, 2, 74, 67
4, 22976, Note_off_c, 2, 68, 67
4, 22976, Note_off_c, 2, 74, 67
4, 22976, Note_on_c, 2, 74, 67
4, 22976, Note_on_c, 2, 79, 67
4, 23008, Note_off_c, 2, 74, 67
4, 23008, Note_off_c, 2, 79, 67
4, 23040, Note_off_c, 2, 74, 67
4, 23040, Note_off_c, 2, 79, 67
4, 23040, Note_on_c, 2, 70, 67
4, 23040, Note_on_c, 2, 77, 67
4, 23104, Note_off_c, 2, 70, 67
4, 23104, Note_off_c, 2, 77, 67
4, 23168, Note_off_c, 2, 70, 67
4, 23168, Note_off_c, 2, 77, 67
4, 23168, Note_on_c, 2, 65, 67
4, 23168, Note_on_c, 2, 70, 67
4, 23232, Note_off_c, 2, 65, 67
4, 23232, Note_off_c, 2, 70, 67
4, 23296, Note_off_c, 2, 65, 67
4, 23296, Note_off_c, 2, 70, 67
4, 23296, Note_on_c, 2, 68, 67
4, 23296, Note_on_c, 2, 70, 67
4, 23360, Note_off_c, 2, 68, 67
4, 23360, Note_off_c, 2, 70, 67
4, 23424, Note_off_c, 2, 68, 67
4, 23424, Note_off_c, 2, 70, 67
4, 23424, Note_on_c, 2, 70, 67
4, 23424, Note_on_c, 2, 79, 67
4, 23488, Note_off_c, 2, 70, 67
4, 23488, Note_off_c, 2, 79, 67
4, 23488, Note_on_c, 2, 77, 67
4, 23488, Note_on_c, 2, 80, 67
4, 23552, Note_off_c, 2, 77, 67
4, 23552, Note_off_c, 2, 80, 67
4, 23552, Note_on_c, 2, 79, 67
4, 23552, Note_on_c, 2, 82, 67
4, 23616, Note_off_c, 2, 79, 67
4, 23616, Note_off_c, 2, 82, 67
4, 23680, Note_off_c, 2, 79, 67
4, 23680, Note_off_c, 2, 82, 67
4, 23680, Note_on_c, 2, 79, 67
4, 23680, Note_on_c, 2, 82, 67
4, 23744, Note_off_c, 2, 79, 67
4, 23744, Note_off_c, 2, 82, 67
4, 23808, Note_off_c, 2, 79, 67
4, 23808, Note_off_c, 2, 82, 67
4, 23808, Note_on_c, 2, 70, 67
4, 23808, Note_on_c, 2, 79, 67
4, 23872, Note_off_c, 2, 70, 67
4, 23872, Note_off_c, 2, 79, 67
4, 23936, Note_off_c, 2, 70, 67
4, 23936, Note_off_c, 2, 79, 67
4, 23936, Note_on_c, 2, 75, 67
4, 23936, Note_on_c, 2, 82, 67
4, 24000, Note_off_c, 2, 75, 67
4, 24000, Note_off_c, 2, 82, 67
4, 24064, Note_off_c, 2, 75, 67
4, 24064, Note_off_c, 2, 82, 67
4, 24064, Note_on_c, 2, 84, 67
4, 24064, Note_on_c, 2, 87, 67
4, 24128, Note_off_c, 2, 84, 67
4, 24128, Note_off_c, 2, 87, 67
4, 24192, Note_off_c, 2, 84, 67
4, 24192, Note_off_c, 2, 87, 67
4, 24192, Note_on_c, 2, 82, 67
4, 24192, Note_on_c, 2, 86, 67
4, 24256, Note_off_c, 2, 82, 67
4, 24256, Note_off_c, 2, 86, 67
4, 24320, Note_off_c, 2, 82, 67
4, 24320, Note_off_c, 2, 86, 67
4, 24320, Note_on_c, 2, 80, 67
4, 24320, Note_on_c, 2, 84, 67
4, 24384, Note_off_c, 2, 80, 67
4, 24384, Note_off_c, 2, 84, 67
4, 24448, Note_off_c, 2, 80, 67
4, 24448, Note_off_c, 2, 84, 67
4, 24448, Note_on_c, 2, 70, 67
4, 24448, Note_on_c, 2, 74, 67
4, 24480, Note_off_c, 2, 70, 67
4, 24480, Note_off_c, 2, 74, 67
4, 24512, Note_off_c, 2, 70, 67
4, 24512, Note_off_c, 2, 74, 67
4, 24512, Note_on_c, 2, 77, 67
4, 24512, Note_on_c, 2, 80, 67
4, 24544, Note_off_c, 2, 77, 67
4, 24544, Note_off_c, 2, 80, 67
4, 24576, Note_off_c, 2, 77, 67
4, 24576, Note_off_c, 2, 80, 67
4, 24576, Note_on_c, 2, 77, 67
4, 24576, Note_on_c, 2, 82, 67
4, 24640, Note_off_c, 2, 77, 67
4, 24640, Note_off_c, 2, 82, 67
4, 24704, Note_off_c, 2, 77, 67
4, 24704, Note_off_c, 2, 82, 67
4, 24704, Note_on_c, 2, 80, 67
4, 24704, Note_on_c, 2, 87, 67
4, 24768, Note_off_c, 2, 80, 67
4, 24768, Note_off_c, 2, 87, 67
4, 24832, Note_off_c, 2, 80, 67
4, 24832, Note_off_c, 2, 87, 67
4, 24832, Note_on_c, 2, 82, 67
4, 24832, Note_on_c, 2, 86, 67
4, 24896, Note_off_c, 2, 82, 67
4, 24896, Note_off_c, 2, 86, 67
4, 24960, Note_off_c, 2, 82, 67
4, 24960, Note_off_c, 2, 86, 67
4, 24960, Note_on_c, 2, 80, 67
4, 24960, Note_on_c, 2, 89, 67
4, 25024, Note_off_c, 2, 80, 67
4, 25024, Note_off_c, 2, 89, 67
4, 25088, Note_off_c, 2, 80, 67
4, 25088, Note_off_c, 2, 89, 67
4, 25088, Note_on_c, 2, 79, 67
4, 25088, Note_on_c, 2, 87, 67
4, 25152, Note_off_c, 2, 79, 67
4, 25152, Note_off_c, 2, 87, 67
4, 25216, Note_off_c, 2, 79, 67
4, 25216, Note_off_c, 2, 87, 67
4, 25216, Note_on_c, 2, 70, 67
4, 25216, Note_on_c, 2, 82, 67
4, 25280, Note_off_c, 2, 70, 67
4, 25280, Note_off_c, 2, 82, 67
4, 25344, Note_off_c, 2, 70, 67
4, 25344, Note_off_c, 2, 82, 67
4, 25344, Note_on_c, 2, 70, 67
4, 25344, Note_on_c, 2, 82, 67
4, 25408, Note_off_c, 2, 70, 67
4, 25408, Note_off_c, 2, 82, 67
4, 25472, Note_off_c, 2, 70, 67
4, 25472, Note_off_c, 2, 82, 67
4, 25472, Note_on_c, 2, 75, 67
4, 25536, Note_off_c, 2, 75, 67
4, 25536, Note_on_c, 2, 77, 67
4, 25600, Note_off_c, 2, 77, 67
4, 25600, Note_on_c, 2, 79, 67
4, 25664, Note_off_c, 2, 79, 67
4, 25728, Note_off_c, 2, 79, 67
4, 25728, Note_on_c, 2, 75, 67
4, 25728, Note_on_c, 2, 79, 67
4, 25792, Note_off_c, 2, 75, 67
4, 25792, Note_off_c, 2, 79, 67
4, 25856, Note_off_c, 2, 75, 67
4, 25856, Note_off_c, 2, 79, 67
4, 25856, Note_on_c, 2, 75, 67
4, 25856, Note_on_c, 2, 79, 67
4, 25920, Note_off_c, 2, 75, 67
4, 25920, Note_off_c, 2, 79, 67
4, 25984, Note_off_c, 2, 75, 67
4, 25984, Note_off_c, 2, 79, 67
4, 25984, Note_on_c, 2, 75, 67
4, 26048, Note_off_c, 2, 75, 67
4, 26048, Note_on_c, 2, 77, 67
4, 26112, Note_off_c, 2, 77, 67
4, 26112, Note_on_c, 2, 79, 67
4, 26176, Note_off_c, 2, 79, 67
4, 26240, Note_off_c, 2, 79, 67
4, 26240, Note_on_c, 2, 75, 67
4, 26240, Note_on_c, 2, 79, 67
4, 26304, Note_off_c, 2, 75, 67
4, 26304, Note_off_c, 2, 79, 67
4, 26368, Note_off_c, 2, 75, 67
4, 26368, Note_off_c, 2, 79, 67
4, 26368, Note_on_c, 2, 75, 67
4, 26368, Note_on_c, 2, 79, 67
4, 26432, Note_off_c, 2, 75, 67
4, 26432, Note_off_c, 2, 79, 67
4, 26496, Note_off_c, 2, 75, 67
4, 26496, Note_off_c, 2, 79, 67
4, 26496, Note_on_c, 2, 75, 67
4, 26560, Note_off_c, 2, 75, 67
4, 26560, Note_on_c, 2, 77, 67
4, 26624, Note_off_c, 2, 77, 67
4, 26624, Note_on_c, 2, 79, 67
4, 26688, Note_off_c, 2, 79, 67
4, 26752, Note_off_c, 2, 79, 67
4, 26752, Note_on_c, 2, 75, 67
4, 26752, Note_on_c, 2, 79, 67
4, 26816, Note_off_c, 2, 75, 67
4, 26816, Note_off_c, 2, 79, 67
4, 26880, Note_off_c, 2, 75, 67
4, 26880, Note_off_c, 2, 79, 67
4, 26880, Note_on_c, 2, 75, 67
4, 26880, Note_on_c, 2, 80, 67
4, 26912, Note_off_c, 2, 75, 67
4, 26912, Note_off_c, 2, 80, 67
4, 26944, Note_off_c, 2, 75, 67
4, 26944, Note_off_c, 2, 80, 67
4, 26944, Note_on_c, 2, 74, 67
4, 26976, Note_off_c, 2, 74, 67
4, 27008, Note_off_c, 2, 74, 67
4, 27008, Note_on_c, 2, 72, 67
4, 27040, Note_off_c, 2, 72, 67
4, 27072, Note_off_c, 2, 72, 67
4, 27072, Note_on_c, 2, 74, 67
4, 27072, Note_on_c, 2, 79, 67
4, 27104, Note_off_c, 2, 74, 67
4, 27104, Note_off_c, 2, 79, 67
4, 27136, Note_off_c, 2, 74, 67
4, 27136, Note_off_c, 2, 79, 67
4, 27136, Note_on_c, 2, 70, 67
4, 27136, Note_on_c, 2, 77, 67
4, 27200, Note_off_c, 2, 70, 67
4, 27200, Note_off_c, 2, 77, 67
4, 27264, Note_off_c, 2, 70, 67
4, 27264, Note_off_c, 2, 77, 67
4, 27264, Note_on_c, 2, 68, 67
4, 27264, Note_on_c, 2, 70, 67
4, 27328, Note_off_c, 2, 68, 67
4, 27328, Note_off_c, 2, 70, 67
4, 27392, Note_off_c, 2, 68, 67
4, 27392, Note_off_c, 2, 70, 67
4, 27392, Note_on_c, 2, 68, 67
4, 27392, Note_on_c, 2, 70, 67
4, 27456, Note_off_c, 2, 68, 67
4, 27456, Note_off_c, 2, 70, 67
4, 27520, Note_off_c, 2, 68, 67
4, 27520, Note_off_c, 2, 70, 67
4, 27520, Note_on_c, 2, 74, 67
4, 27584, Note_off_c, 2, 74, 67
4, 27584, Note_on_c, 2, 75, 67
4, 27648, Note_off_c, 2, 75, 67
4, 27648, Note_on_c, 2, 77, 67
4, 27712, Note_off_c, 2, 77, 67
4, 27776, Note_off_c, 2, 77, 67
4, 27776, Note_on_c, 2, 74, 67
4, 27776, Note_on_c, 2, 77, 67
4, 27840, Note_off_c, 2, 74, 67
4, 27840, Note_off_c, 2, 77, 67
4, 27904, Note_off_c, 2, 74, 67
4, 27904, Note_off_c, 2, 77, 67
4, 27904, Note_on_c, 2, 74, 67
4, 27904, Note_on_c, 2, 77, 67
4, 27968, Note_off_c, 2, 74, 67
4, 27968, Note_off_c, 2, 77, 67
4, 28032, Note_off_c, 2, 74, 67
4, 28032, Note_off_c, 2, 77, 67
4, 28032, Note_on_c, 2, 74, 67
4, 28096, Note_off_c, 2, 74, 67
4, 28096, Note_on_c, 2, 75, 67
4, 28160, Note_off_c, 2, 75, 67
4, 28160, Note_on_c, 2, 77, 67
4, 28224, Note_off_c, 2, 77, 67
4, 28288, Note_off_c, 2, 77, 67
4, 28288, Note_on_c, 2, 74, 67
4, 28288, Note_on_c, 2, 77, 67
4, 28352, Note_off_c, 2, 74, 67
4, 28352, Note_off_c, 2, 77, 67
4, 28416, Note_off_c, 2, 74, 67
4, 28416, Note_off_c, 2, 77, 67
4, 28416, Note_on_c, 2, 74, 67
4, 28416, Note_on_c, 2, 77, 67
4, 28480, Note_off_c, 2, 74, 67
4, 28480, Note_off_c, 2, 77, 67
4, 28544, Note_off_c, 2, 74, 67
4, 28544, Note_off_c, 2, 77, 67
4, 28544, Note_on_c, 2, 74, 67
4, 28608, Note_off_c, 2, 74, 67
4, 28608, Note_on_c, 2, 75, 67
4, 28672, Note_off_c, 2, 75, 67
4, 28672, Note_on_c, 2, 70, 67
4, 28672, Note_on_c, 2, 77, 67
4, 28736, Note_off_c, 2, 70, 67
4, 28736, Note_off_c, 2, 77, 67
4, 28800, Note_off_c, 2, 70, 67
4, 28800, Note_off_c, 2, 77, 67
4, 28800, Note_on_c, 2, 74, 67
4, 28800, Note_on_c, 2, 77, 67
4, 28864, Note_off_c, 2, 74, 67
4, 28864, Note_off_c, 2, 77, 67
4, 28928, Note_off_c, 2, 74, 67
4, 28928, Note_off_c, 2, 77, 67
4, 28928, Note_on_c, 2, 74, 67
4, 28928, Note_on_c, 2, 79, 67
4, 28960, Note_off_c, 2, 74, 67
4, 28960, Note_off_c, 2, 79, 67
4, 28992, Note_off_c, 2, 74, 67
4, 28992, Note_off_c, 2, 79, 67
4, 28992, Note_on_c, 2, 72, 67
4, 28992, Note_on_c, 2, 77, 67
4, 29024, Note_off_c, 2, 72, 67
4, 29024, Note_off_c, 2, 77, 67
4, 29056, Note_off_c, 2, 72, 67
4, 29056, Note_off_c, 2, 77, 67
4, 29056, Note_on_c, 2, 70, 67
4, 29056, Note_on_c, 2, 77, 67
4, 29088, Note_off_c, 2, 70, 67
4, 29088, Note_off_c, 2, 77, 67
4, 29120, Note_off_c, 2, 70, 67
4, 29120, Note_off_c, 2, 77, 67
4, 29120, Note_on_c, 2, 68, 67
4, 29120, Note_on_c, 2, 79, 67
4, 29152, Note_off_c, 2, 68, 67
4, 29152, Note_off_c, 2, 79, 67
4, 29184, Note_off_c, 2, 68, 67
4, 29184, Note_off_c, 2, 79, 67
4, 29184, Note_on_c, 2, 67, 67
4, 29184, Note_on_c, 2, 75, 67
4, 29248, Note_off_c, 2, 67, 67
4, 29248, Note_off_c, 2, 75, 67
4, 29312, Note_off_c, 2, 67, 67
4, 29312, Note_off_c, 2, 75, 67
4, 29312, Note_on_c, 2, 70, 67
4, 29376, Note_off_c, 2, 70, 67
4, 29440, Note_off_c, 2, 70, 67
4, 29440, Note_on_c, 2, 70, 67
4, 29440, Note_on_c, 2, 79, 67
4, 29504, Note_off_c, 2, 70, 67
4, 29504, Note_off_c, 2, 79, 67
4, 29568, Note_off_c, 2, 70, 67
4, 29568, Note_off_c, 2, 79, 67
4, 29568, Note_on_c, 2, 75, 67
4, 29632, Note_off_c, 2, 75, 67
4, 29632, Note_on_c, 2, 77, 67
4, 29696, Note_off_c, 2, 77, 67
4, 29696, Note_on_c, 2, 79, 67
4, 29760, Note_off_c, 2, 79, 67
4, 29824, Note_off_c, 2, 79, 67
4, 29824, Note_on_c, 2, 75, 67
4, 29824, Note_on_c, 2, 79, 67
4, 29888, Note_off_c, 2, 75, 67
4, 29888, Note_off_c, 2, 79, 67
4, 29952, Note_off_c, 2, 75, 67
4, 29952, Note_off_c, 2, 79, 67
4, 29952, Note_on_c, 2, 75, 67
4, 29952, Note_on_c, 2, 79, 67
4, 30016, Note_off_c, 2, 75, 67
4, 30016, Note_off_c, 2, 79, 67
4, 30080, Note_off_c, 2, 75, 67
4, 30080, Note_off_c, 2, 79, 67
4, 30080, Note_on_c, 2, 75, 67
4, 30144, Note_off_c, 2, 75, 67
4, 30144, Note_on_c, 2, 77, 67
4, 30208, Note_off_c, 2, 77, 67
4, 30208, Note_on_c, 2, 79, 67
4, 30272, Note_off_c, 2, 79, 67
4, 30336, Note_off_c, 2, 79, 67
4, 30336, Note_on_c, 2, 75, 67
4, 30336, Note_on_c, 2, 79, 67
4, 30400, Note_off_c, 2, 75, 67
4, 30400, Note_off_c, 2, 79, 67
4, 30464, Note_off_c, 2, 75, 67
4, 30464, Note_off_c, 2, 79, 67
4, 30464, Note_on_c, 2, 75, 67
4, 30464, Note_on_c, 2, 79, 67
4, 30528, Note_off_c, 2, 75, 67
4, 30528, Note_off_c, 2, 79, 67
4, 30592, Note_off_c, 2, 75, 67
4, 30592, Note_off_c, 2, 79, 67
4, 30592, Note_on_c, 2, 75, 67
4, 30656, Note_off_c, 2, 75, 67
4, 30656, Note_on_c, 2, 77, 67
4, 30720, Note_off_c, 2, 77, 67
4, 30720, Note_on_c, 2, 79, 67
4, 30784, Note_off_c, 2, 79, 67
4, 30848, Note_off_c, 2, 79, 67
4, 30848, Note_on_c, 2, 75, 67
4, 30848, Note_on_c, 2, 79, 67
4, 30912, Note_off_c, 2, 75, 67
4, 30912, Note_off_c, 2, 79, 67
4, 30976, Note_off_c, 2, 75, 67
4, 30976, Note_off_c, 2, 79, 67
4, 30976, Note_on_c, 2, 75, 67
4, 30976, Note_on_c, 2, 80, 67
4, 31008, Note_off_c, 2, 75, 67
4, 31008, Note_off_c, 2, 80, 67
4, 31040, Note_off_c, 2, 75, 67
4, 31040, Note_off_c, 2, 80, 67
4, 31040, Note_on_c, 2, 74, 67
4, 31104, Note_off_c, 2, 74, 67
4, 31104, Note_on_c, 2, 72, 67
4, 31168, Note_off_c, 2, 72, 67
4, 31168, Note_on_c, 2, 74, 67
4, 31168, Note_on_c, 2, 79, 67
4, 31200, Note_off_c, 2, 74, 67
4, 31200, Note_off_c, 2, 79, 67
4, 31232, Note_off_c, 2, 74, 67
4, 31232, Note_off_c, 2, 79, 67
4, 31232, Note_on_c, 2, 70, 67
4, 31232, Note_on_c, 2, 77, 67
4, 31296, Note_off_c, 2, 70, 67
4, 31296, Note_off_c, 2, 77, 67
4, 31360, Note_off_c, 2, 70, 67
4, 31360, Note_off_c, 2, 77, 67
4, 31360, Note_on_c, 2, 68, 67
4, 31360, Note_on_c, 2, 70, 67
4, 31424, Note_off_c, 2, 68, 67
4, 31424, Note_off_c, 2, 70, 67
4, 31488, Note_off_c, 2, 68, 67
4, 31488, Note_off_c, 2, 70, 67
4, 31488, Note_on_c, 2, 68, 67
4, 31488, Note_on_c, 2, 70, 67
4, 31552, Note_off_c, 2, 68, 67
4, 31552, Note_off_c, 2, 70, 67
4, 31616, Note_off_c, 2, 68, 67
4, 31616, Note_off_c, 2, 70, 67
4, 31616, Note_on_c, 2, 74, 67
4, 31680, Note_off_c, 2, 74, 67
4, 31680, Note_on_c, 2, 75, 67
4, 31744, Note_off_c, 2, 75, 67
4, 31744, Note_on_c, 2, 77, 67
4, 31872, Note_off_c, 2, 77, 67
4, 31872, Note_on_c, 2, 74, 67
4, 31872, Note_on_c, 2, 80, 67
4, 31936, Note_off_c, 2, 74, 67
4, 31936, Note_off_c, 2, 80, 67
4, 32000, Note_off_c, 2, 74, 67
4, 32000, Note_off_c, 2, 80, 67
4, 32000, Note_on_c, 2, 74, 67
4, 32000, Note_on_c, 2, 79, 67
4, 32064, Note_off_c, 2, 74, 67
4, 32064, Note_off_c, 2, 79, 67
4, 32128, Note_off_c, 2, 74, 67
4, 32128, Note_off_c, 2, 79, 67
4, 32128, Note_on_c, 2, 77, 67
4, 32192, Note_off_c, 2, 77, 67
4, 32256, Note_off_c, 2, 77, 67
4, 32256, Note_on_c, 2, 75, 67
4, 32320, Note_off_c, 2, 75, 67
4, 32384, Note_off_c, 2, 75, 67
4, 32384, Note_on_c, 2, 70, 67
4, 32384, Note_on_c, 2, 74, 67
4, 32448, Note_off_c, 2, 70, 67
4, 32448, Note_off_c, 2, 74, 67
4, 32512, Note_off_c, 2, 70, 67
4, 32512, Note_off_c, 2, 74, 67
4, 32512, Note_on_c, 2, 72, 67
4, 32512, Note_on_c, 2, 74, 67
4, 32576, Note_off_c, 2, 72, 67
4, 32576, Note_off_c, 2, 74, 67
4, 32640, Note_off_c, 2, 72, 67
4, 32640, Note_off_c, 2, 74, 67
4, 32640, Note_on_c, 2, 70, 67
4, 32640, Note_on_c, 2, 74, 67
4, 32704, Note_off_c, 2, 70, 67
4, 32704, Note_off_c, 2, 74, 67
4, 32768, Note_off_c, 2, 70, 67
4, 32768, Note_off_c, 2, 74, 67
4, 32768, Note_on_c, 2, 80, 67
4, 32768, Note_on_c, 2, 84, 67
4, 33024, Note_off_c, 2, 80, 67
4, 33024, Note_off_c, 2, 84, 67
4, 33024, Note_on_c, 2, 70, 67
4, 33024, Note_on_c, 2, 74, 67
4, 33040, Note_off_c, 2, 70, 67
4, 33040, Note_off_c, 2, 74, 67
4, 33056, Note_off_c, 2, 70, 67
4, 33056, Note_off_c, 2, 74, 67
4, 33056, Note_on_c, 2, 72, 67
4, 33056, Note_on_c, 2, 75, 67
4, 33072, Note_off_c, 2, 72, 67
4, 33072, Note_off_c, 2, 75, 67
4, 33088, Note_off_c, 2, 72, 67
4, 33088, Note_off_c, 2, 75, 67
4, 33088, Note_on_c, 2, 70, 67
4, 33088, Note_on_c, 2, 74, 67
4, 33120, Note_off_c, 2, 70, 67
4, 33120, Note_off_c, 2, 74, 67
4, 33152, Note_off_c, 2, 70, 67
4, 33152, Note_off_c, 2, 74, 67
4, 33152, Note_on_c, 2, 68, 67
4, 33152, Note_on_c, 2, 72, 67
4, 33184, Note_off_c, 2, 68, 67
4, 33184, Note_off_c, 2, 72, 67
4, 33216, Note_off_c, 2, 68, 67
4, 33216, Note_off_c, 2, 72, 67
4, 33216, Note_on_c, 2, 74, 67
4, 33216, Note_on_c, 2, 77, 67
4, 33248, Note_off_c, 2, 74, 67
4, 33248, Note_off_c, 2, 77, 67
4, 33280, Note_off_c, 2, 74, 67
4, 33280, Note_off_c, 2, 77, 67
4, 33280, Note_on_c, 2, 75, 67
4, 33280, Note_on_c, 2, 79, 67
4, 33408, Note_off_c, 2, 75, 67
4, 33408, Note_off_c, 2, 79, 67
4, 33408, Note_on_c, 2, 70, 67
4, 33472, Note_off_c, 2, 70, 67
4, 33536, Note_off_c, 2, 70, 67
4, 33536, Note_on_c, 2, 70, 67
4, 33600, Note_off_c, 2, 70, 67
4, 33664, Note_off_c, 2, 70, 67
4, 33664, Note_on_c, 2, 75, 67
4, 33664, Note_on_c, 2, 79, 67
4, 33728, Note_off_c, 2, 75, 67
4, 33728, Note_off_c, 2, 79, 67
4, 33728, Note_on_c, 2, 77, 67
4, 33728, Note_on_c, 2, 80, 67
4, 33792, Note_off_c, 2, 77, 67
4, 33792, Note_off_c, 2, 80, 67
4, 33792, Note_on_c, 2, 79, 67
4, 33792, Note_on_c, 2, 82, 67
4, 33856, Note_off_c, 2, 79, 67
4, 33856, Note_off_c, 2, 82, 67
4, 33920, Note_off_c, 2, 79, 67
4, 33920, Note_off_c, 2, 82, 67
4, 33920, Note_on_c, 2, 79, 67
4, 33920, Note_on_c, 2, 82, 67
4, 33984, Note_off_c, 2, 79, 67
4, 33984, Note_off_c, 2, 82, 67
4, 34048, Note_off_c, 2, 79, 67
4, 34048, Note_off_c, 2, 82, 67
4, 34048, Note_on_c, 2, 70, 67
4, 34048, Note_on_c, 2, 79, 67
4, 34112, Note_off_c, 2, 70, 67
4, 34112, Note_off_c, 2, 79, 67
4, 34176, Note_off_c, 2, 70, 67
4, 34176, Note_off_c, 2, 79, 67
4, 34176, Note_on_c, 2, 70, 67
4, 34176, Note_on_c, 2, 75, 67
4, 34240, Note_off_c, 2, 70, 67
4, 34240, Note_off_c, 2, 75, 67
4, 34304, Note_off_c, 2, 70, 67
4, 34304, Note_off_c, 2, 75, 67
4, 34304, Note_on_c, 2, 84, 67
4, 34304, Note_on_c, 2, 87, 67
4, 34368, Note_off_c, 2, 84, 67
4, 34368, Note_off_c, 2, 87, 67
4, 34432, Note_off_c, 2, 84, 67
4, 34432, Note_off_c, 2, 87, 67
4, 34432, Note_on_c, 2, 82, 67
4, 34432, Note_on_c, 2, 86, 67
4, 34496, Note_off_c, 2, 82, 67
4, 34496, Note_off_c, 2, 86, 67
4, 34560, Note_off_c, 2, 82, 67
4, 34560, Note_off_c, 2, 86, 67
4, 34560, Note_on_c, 2, 80, 67
4, 34560, Note_on_c, 2, 84, 67
4, 34624, Note_off_c, 2, 80, 67
4, 34624, Note_off_c, 2, 84, 67
4, 34688, Note_off_c, 2, 80, 67
4, 34688, Note_off_c, 2, 84, 67
4, 34688, Note_on_c, 2, 79, 67
4, 34688, Note_on_c, 2, 87, 67
4, 34752, Note_off_c, 2, 79, 67
4, 34752, Note_off_c, 2, 87, 67
4, 34816, Note_off_c, 2, 79, 67
4, 34816, Note_off_c, 2, 87, 67
4, 34816, Note_on_c, 2, 75, 67
4, 34816, Note_on_c, 2, 82, 67
4, 34880, Note_off_c, 2, 75, 67
4, 34880, Note_off_c, 2, 82, 67
4, 34944, Note_off_c, 2, 75, 67
4, 34944, Note_off_c, 2, 82, 67
4, 34944, Note_on_c, 2, 79, 67
4, 35008, Note_off_c, 2, 79, 67
4, 35072, Note_off_c, 2, 79, 67
4, 35072, Note_on_c, 2, 67, 67
4, 35072, Note_on_c, 2, 75, 67
4, 35136, Note_off_c, 2, 67, 67
4, 35136, Note_off_c, 2, 75, 67
4, 35200, Note_off_c, 2, 67, 67
4, 35200, Note_off_c, 2, 75, 67
4, 35200, Note_on_c, 2, 68, 67
4, 35200, Note_on_c, 2, 74, 67
4, 35232, Note_off_c, 2, 68, 67
4, 35232, Note_off_c, 2, 74, 67
4, 35264, Note_off_c, 2, 68, 67
4, 35264, Note_off_c, 2, 74, 67
4, 35264, Note_on_c, 2, 74, 67
4, 35264, Note_on_c, 2, 79, 67
4, 35296, Note_off_c, 2, 74, 67
4, 35296, Note_off_c, 2, 79, 67
4, 35328, Note_off_c, 2, 74, 67
4, 35328, Note_off_c, 2, 79, 67
4, 35328, Note_on_c, 2, 70, 67
4, 35328, Note_on_c, 2, 77, 67
4, 35392, Note_off_c, 2, 70, 67
4, 35392, Note_off_c, 2, 77, 67
4, 35456, Note_off_c, 2, 70, 67
4, 35456, Note_off_c, 2, 77, 67
4, 35456, Note_on_c, 2, 65, 67
4, 35456, Note_on_c, 2, 70, 67
4, 35520, Note_off_c, 2, 65, 67
4, 35520, Note_off_c, 2, 70, 67
4, 35584, Note_off_c, 2, 65, 67
4, 35584, Note_off_c, 2, 70, 67
4, 35584, Note_on_c, 2, 68, 67
4, 35584, Note_on_c, 2, 70, 67
4, 35648, Note_off_c, 2, 68, 67
4, 35648, Note_off_c, 2, 70, 67
4, 35712, Note_off_c, 2, 68, 67
4, 35712, Note_off_c, 2, 70, 67
4, 35712, Note_on_c, 2, 70, 67
4, 35712, Note_on_c, 2, 79, 67
4, 35776, Note_off_c, 2, 70, 67
4, 35776, Note_off_c, 2, 79, 67
4, 35776, Note_on_c, 2, 77, 67
4, 35776, Note_on_c, 2, 80, 67
4, 35840, Note_off_c, 2, 77, 67
4, 35840, Note_off_c, 2, 80, 67
4, 35840, Note_on_c, 2, 79, 67
4, 35840, Note_on_c, 2, 82, 67
4, 35904, Note_off_c, 2, 79, 67
4, 35904, Note_off_c, 2, 82, 67
4, 35968, Note_off_c, 2, 79, 67
4, 35968, Note_off_c, 2, 82, 67
4, 35968, Note_on_c, 2, 79, 67
4, 35968, Note_on_c, 2, 82, 67
4, 36032, Note_off_c, 2, 79, 67
4, 36032, Note_off_c, 2, 82, 67
4, 36096, Note_off_c, 2, 79, 67
4, 36096, Note_off_c, 2, 82, 67
4, 36096, Note_on_c, 2, 70, 67
4, 36096, Note_on_c, 2, 79, 67
4, 36160, Note_off_c, 2, 70, 67
4, 36160, Note_off_c, 2, 79, 67
4, 36224, Note_off_c, 2, 70, 67
4, 36224, Note_off_c, 2, 79, 67
4, 36224, Note_on_c, 2, 75, 67
4, 36224, Note_on_c, 2, 82, 67
4, 36288, Note_off_c, 2, 75, 67
4, 36288, Note_off_c, 2, 82, 67
4, 36352, Note_off_c, 2, 75, 67
4, 36352, Note_off_c, 2, 82, 67
4, 36352, Note_on_c, 2, 84, 67
4, 36352, Note_on_c, 2, 87, 67
4, 36416, Note_off_c, 2, 84, 67
4, 36416, Note_off_c, 2, 87, 67
4, 36480, Note_off_c, 2, 84, 67
4, 36480, Note_off_c, 2, 87, 67
4, 36480, Note_on_c, 2, 82, 67
4, 36480, Note_on_c, 2, 86, 67
4, 36544, Note_off_c, 2, 82, 67
4, 36544, Note_off_c, 2, 86, 67
4, 36608, Note_off_c, 2, 82, 67
4, 36608, Note_off_c, 2, 86, 67
4, 36608, Note_on_c, 2, 80, 67
4, 36608, Note_on_c, 2, 84, 67
4, 36672, Note_off_c, 2, 80, 67
4, 36672, Note_off_c, 2, 84, 67
4, 36736, Note_off_c, 2, 80, 67
4, 36736, Note_off_c, 2, 84, 67
4, 36736, Note_on_c, 2, 70, 67
4, 36736, Note_on_c, 2, 74, 67
4, 36768, Note_off_c, 2, 70, 67
4, 36768, Note_off_c, 2, 74, 67
4, 36800, Note_off_c, 2, 70, 67
4, 36800, Note_off_c, 2, 74, 67
4, 36800, Note_on_c, 2, 77, 67
4, 36800, Note_on_c, 2, 80, 67
4, 36832, Note_off_c, 2, 77, 67
4, 36832, Note_off_c, 2, 80, 67
4, 36864, Note_off_c, 2, 77, 67
4, 36864, Note_off_c, 2, 80, 67
4, 36864, Note_on_c, 2, 77, 67
4, 36864, Note_on_c, 2, 82, 67
4, 36928, Note_off_c, 2, 77, 67
4, 36928, Note_off_c, 2, 82, 67
4, 36992, Note_off_c, 2, 77, 67
4, 36992, Note_off_c, 2, 82, 67
4, 36992, Note_on_c, 2, 80, 67
4, 36992, Note_on_c, 2, 87, 67
4, 37056, Note_off_c, 2, 80, 67
4, 37056, Note_off_c, 2, 87, 67
4, 37120, Note_off_c, 2, 80, 67
4, 37120, Note_off_c, 2, 87, 67
4, 37120, Note_on_c, 2, 82, 67
4, 37120, Note_on_c, 2, 86, 67
4, 37184, Note_off_c, 2, 82, 67
4, 37184, Note_off_c, 2, 86, 67
4, 37248, Note_off_c, 2, 82, 67
4, 37248, Note_off_c, 2, 86, 67
4, 37248, Note_on_c, 2, 80, 67
4, 37248, Note_on_c, 2, 89, 67
4, 37312, Note_off_c, 2, 80, 67
4, 37312, Note_off_c, 2, 89, 67
4, 37376, Note_off_c, 2, 80, 67
4, 37376, Note_off_c, 2, 89, 67
4, 37376, Note_on_c, 2, 79, 67
4, 37376, Note_on_c, 2, 87, 67
4, 37440, Note_off_c, 2, 79, 67
4, 37440, Note_off_c, 2, 87, 67
4, 37504, Note_off_c, 2, 79, 67
4, 37504, Note_off_c, 2, 87, 67
4, 37504, Note_on_c, 2, 70, 67
4, 37504, Note_on_c, 2, 82, 67
4, 37568, Note_off_c, 2, 70, 67
4, 37568, Note_off_c, 2, 82, 67
4, 37632, Note_off_c, 2, 70, 67
4, 37632, Note_off_c, 2, 82, 67
4, 37632, Note_on_c, 2, 70, 67
4, 37632, Note_on_c, 2, 82, 67
4, 37696, Note_off_c, 2, 70, 67
4, 37696, Note_off_c, 2, 82, 67
4, 37760, Note_off_c, 2, 70, 67
4, 37760, Note_off_c, 2, 82, 67
4, 37760, Note_on_c, 2, 75, 67
4, 37824, Note_off_c, 2, 75, 67
4, 37824, Note_on_c, 2, 77, 67
4, 37888, Note_off_c, 2, 77, 67
4, 37888, Note_on_c, 2, 79, 67
4, 37952, Note_off_c, 2, 79, 67
4, 38016, Note_off_c, 2, 79, 67
4, 38016, Note_on_c, 2, 75, 67
4, 38016, Note_on_c, 2, 79, 67
4, 38080, Note_off_c, 2, 75, 67
4, 38080, Note_off_c, 2, 79, 67
4, 38144, Note_off_c, 2, 75, 67
4, 38144, Note_off_c, 2, 79, 67
4, 38144, Note_on_c, 2, 75, 67
4, 38144, Note_on_c, 2, 79, 67
4, 38208, Note_off_c, 2, 75, 67
4, 38208, Note_off_c, 2, 79, 67
4, 38272, Note_off_c, 2, 75, 67
4, 38272, Note_off_c, 2, 79, 67
4, 38272, Note_on_c, 2, 75, 67
4, 38336, Note_off_c, 2, 75, 67
4, 38336, Note_on_c, 2, 77, 67
4, 38400, Note_off_c, 2, 77, 67
4, 38400, Note_on_c, 2, 79, 67
4, 38464, Note_off_c, 2, 79, 67
4, 38528, Note_off_c, 2, 79, 67
4, 38528, Note_on_c, 2, 75, 67
4, 38528, Note_on_c, 2, 79, 67
4, 38592, Note_off_c, 2, 75, 67
4, 38592, Note_off_c, 2, 79, 67
4, 38656, Note_off_c, 2, 75, 67
4, 38656, Note_off_c, 2, 79, 67
4, 38656, Note_on_c, 2, 75, 67
4, 38656, Note_on_c, 2, 79, 67
4, 38720, Note_off_c, 2, 75, 67
4, 38720, Note_off_c, 2, 79, 67
4, 38784, Note_off_c, 2, 75, 67
4, 38784, Note_off_c, 2, 79, 67
4, 38784, Note_on_c, 2, 75, 67
4, 38848, Note_off_c, 2, 75, 67
4, 38848, Note_on_c, 2, 77, 67
4, 38912, Note_off_c, 2, 77, 67
4, 38912, Note_on_c, 2, 79, 67
4, 38976, Note_off_c, 2, 79, 67
4, 39040, Note_off_c, 2, 79, 67
4, 39040, Note_on_c, 2, 75, 67
4, 39040, Note_on_c, 2, 79, 67
4, 39104, Note_off_c, 2, 75, 67
4, 39104, Note_off_c, 2, 79, 67
4, 39168, Note_off_c, 2, 75, 67
4, 39168, Note_off_c, 2, 79, 67
4, 39168, Note_on_c, 2, 75, 67
4, 39168, Note_on_c, 2, 80, 67
4, 39200, Note_off_c, 2, 75, 67
4, 39200, Note_off_c, 2, 80, 67
4, 39232, Note_off_c, 2, 75, 67
4, 39232, Note_off_c, 2, 80, 67
4, 39232, Note_on_c, 2, 74, 67
4, 39264, Note_off_c, 2, 74, 67
4, 39296, Note_off_c, 2, 74, 67
4, 39296, Note_on_c, 2, 72, 67
4, 39328, Note_off_c, 2, 72, 67
4, 39360, Note_off_c, 2, 72, 67
4, 39360, Note_on_c, 2, 74, 67
4, 39360, Note_on_c, 2, 79, 67
4, 39392, Note_off_c, 2, 74, 67
4, 39392, Note_off_c, 2, 79, 67
4, 39424, Note_off_c, 2, 74, 67
4, 39424, Note_off_c, 2, 79, 67
4, 39424, Note_on_c, 2, 70, 67
4, 39424, Note_on_c, 2, 77, 67
4, 39488, Note_off_c, 2, 70, 67
4, 39488, Note_off_c, 2, 77, 67
4, 39552, Note_off_c, 2, 70, 67
4, 39552, Note_off_c, 2, 77, 67
4, 39552, Note_on_c, 2, 68, 67
4, 39552, Note_on_c, 2, 70, 67
4, 39616, Note_off_c, 2, 68, 67
4, 39616, Note_off_c, 2, 70, 67
4, 39680, Note_off_c, 2, 68, 67
4, 39680, Note_off_c, 2, 70, 67
4, 39680, Note_on_c, 2, 68, 67
4, 39680, Note_on_c, 2, 70, 67
4, 39744, Note_off_c, 2, 68, 67
4, 39744, Note_off_c, 2, 70, 67
4, 39808, Note_off_c, 2, 68, 67
4, 39808, Note_off_c, 2, 70, 67
4, 39808, Note_on_c, 2, 74, 67
4, 39872, Note_off_c, 2, 74, 67
4, 39872, Note_on_c, 2, 75, 67
4, 39936, Note_off_c, 2, 75, 67
4, 39936, Note_on_c, 2, 77, 67
4, 40000, Note_off_c, 2, 77, 67
4, 40064, Note_off_c, 2, 77, 67
4, 40064, Note_on_c, 2, 74, 67
4, 40064, Note_on_c, 2, 77, 67
4, 40128, Note_off_c, 2, 74, 67
4, 40128, Note_off_c, 2, 77, 67
4, 40192, Note_off_c, 2, 74, 67
4, 40192, Note_off_c, 2, 77, 67
4, 40192, Note_on_c, 2, 74, 67
4, 40192, Note_on_c, 2, 77, 67
4, 40256, Note_off_c, 2, 74, 67
4, 40256, Note_off_c, 2, 77, 67
4, 40320, Note_off_c, 2, 74, 67
4, 40320, Note_off_c, 2, 77, 67
4, 40320, Note_on_c, 2, 74, 67
4, 40384, Note_off_c, 2, 74, 67
4, 40384, Note_on_c, 2, 75, 67
4, 40448, Note_off_c, 2, 75, 67
4, 40448, Note_on_c, 2, 77, 67
4, 40512, Note_off_c, 2, 77, 67
4, 40576, Note_off_c, 2, 77, 67
4, 40576, Note_on_c, 2, 74, 67
4, 40576, Note_on_c, 2, 77, 67
4, 40640, Note_off_c, 2, 74, 67
4, 40640, Note_off_c, 2, 77, 67
4, 40704, Note_off_c, 2, 74, 67
4, 40704, Note_off_c, 2, 77, 67
4, 40704, Note_on_c, 2, 74, 67
4, 40704, Note_on_c, 2, 77, 67
4, 40768, Note_off_c, 2, 74, 67
4, 40768, Note_off_c, 2, 77, 67
4, 40832, Note_off_c, 2, 74, 67
4, 40832, Note_off_c, 2, 77, 67
4, 40832, Note_on_c, 2, 74, 67
4, 40896, Note_off_c, 2, 74, 67
4, 40896, Note_on_c, 2, 75, 67
4, 40960, Note_off_c, 2, 75, 67
4, 40960, Note_on_c, 2, 70, 67
4, 40960, Note_on_c, 2, 77, 67
4, 41024, Note_off_c, 2, 70, 67
4, 41024, Note_off_c, 2, 77, 67
4, 41088, Note_off_c, 2, 70, 67
4, 41088, Note_off_c, 2, 77, 67
4, 41088, Note_on_c, 2, 74, 67
4, 41088, Note_on_c, 2, 77, 67
4, 41152, Note_off_c, 2, 74, 67
4, 41152, Note_off_c, 2, 77, 67
4, 41216, Note_off_c, 2, 74, 67
4, 41216, Note_off_c, 2, 77, 67
4, 41216, Note_on_c, 2, 74, 67
4, 41216, Note_on_c, 2, 79, 67
4, 41248, Note_off_c, 2, 74, 67
4, 41248, Note_off_c, 2, 79, 67
4, 41280, Note_off_c, 2, 74, 67
4, 41280, Note_off_c, 2, 79, 67
4, 41280, Note_on_c, 2, 72, 67
4, 41280, Note_on_c, 2, 77, 67
4, 41312, Note_off_c, 2, 72, 67
4, 41312, Note_off_c, 2, 77, 67
4, 41344, Note_off_c, 2, 72, 67
4, 41344, Note_off_c, 2, 77, 67
4, 41344, Note_on_c, 2, 70, 67
4, 41344, Note_on_c, 2, 77, 67
4, 41376, Note_off_c, 2, 70, 67
4, 41376, Note_off_c, 2, 77, 67
4, 41408, Note_off_c, 2, 70, 67
4, 41408, Note_off_c, 2, 77, 67
4, 41408, Note_on_c, 2, 68, 67
4, 41408, Note_on_c, 2, 79, 67
4, 41440, Note_off_c, 2, 68, 67
4, 41440, Note_off_c, 2, 79, 67
4, 41472, Note_off_c, 2, 68, 67
4, 41472, Note_off_c, 2, 79, 67
4, 41472, Note_on_c, 2, 67, 67
4, 41472, Note_on_c, 2, 75, 67
4, 41536, Note_off_c, 2, 67, 67
4, 41536, Note_off_c, 2, 75, 67
4, 41600, Note_off_c, 2, 67, 67
4, 41600, Note_off_c, 2, 75, 67
4, 41600, Note_on_c, 2, 70, 67
4, 41664, Note_off_c, 2, 70, 67
4, 41728, Note_off_c, 2, 70, 67
4, 41728, Note_on_c, 2, 70, 67
4, 41728, Note_on_c, 2, 79, 67
4, 41792, Note_off_c, 2, 70, 67
4, 41792, Note_off_c, 2, 79, 67
4, 41856, Note_off_c, 2, 70, 67
4, 41856, Note_off_c, 2, 79, 67
4, 41856, Note_on_c, 2, 75, 67
4, 41920, Note_off_c, 2, 75, 67
4, 41920, Note_on_c, 2, 77, 67
4, 41984, Note_off_c, 2, 77, 67
4, 41984, Note_on_c, 2, 79, 67
4, 42048, Note_off_c, 2, 79, 67
4, 42112, Note_off_c, 2, 79, 67
4, 42112, Note_on_c, 2, 75, 67
4, 42112, Note_on_c, 2, 79, 67
4, 42176, Note_off_c, 2, 75, 67
4, 42176, Note_off_c, 2, 79, 67
4, 42240, Note_off_c, 2, 75, 67
4, 42240, Note_off_c, 2, 79, 67
4, 42240, Note_on_c, 2, 75, 67
4, 42240, Note_on_c, 2, 79, 67
4, 42304, Note_off_c, 2, 75, 67
4, 42304, Note_off_c, 2, 79, 67
4, 42368, Note_off_c, 2, 75, 67
4, 42368, Note_off_c, 2, 79, 67
4, 42368, Note_on_c, 2, 75, 67
4, 42432, Note_off_c, 2, 75, 67
4, 42432, Note_on_c, 2, 77, 67
4, 42496, Note_off_c, 2, 77, 67
4, 42496, Note_on_c, 2, 79, 67
4, 42560, Note_off_c, 2, 79, 67
4, 42624, Note_off_c, 2, 79, 67
4, 42624, Note_on_c, 2, 75, 67
4, 42624, Note_on_c, 2, 79, 67
4, 42688, Note_off_c, 2, 75, 67
4, 42688, Note_off_c, 2, 79, 67
4, 42752, Note_off_c, 2, 75, 67
4, 42752, Note_off_c, 2, 79, 67
4, 42752, Note_on_c, 2, 75, 67
4, 42752, Note_on_c, 2, 79, 67
4, 42816, Note_off_c, 2, 75, 67
4, 42816, Note_off_c, 2, 79, 67
4, 42880, Note_off_c, 2, 75, 67
4, 42880, Note_off_c, 2, 79, 67
4, 42880, Note_on_c, 2, 75, 67
4, 42944, Note_off_c, 2, 75, 67
4, 42944, Note_on_c, 2, 77, 67
4, 43008, Note_off_c, 2, 77, 67
4, 43008, Note_on_c, 2, 79, 67
4, 43072, Note_off_c, 2, 79, 67
4, 43136, Note_off_c, 2, 79, 67
4, 43136, Note_on_c, 2, 75, 67
4, 43136, Note_on_c, 2, 79, 67
4, 43200, Note_off_c, 2, 75, 67
4, 43200, Note_off_c, 2, 79, 67
4, 43264, Note_off_c, 2, 75, 67
4, 43264, Note_off_c, 2, 79, 67
4, 43264, Note_on_c, 2, 75, 67
4, 43264, Note_on_c, 2, 80, 67
4, 43296, Note_off_c, 2, 75, 67
4, 43296, Note_off_c, 2, 80, 67
4, 43328, Note_off_c, 2, 75, 67
4, 43328, Note_off_c, 2, 80, 67
4, 43328, Note_on_c, 2, 74, 67
4, 43392, Note_off_c, 2, 74, 67
4, 43392, Note_on_c, 2, 72, 67
4, 43456, Note_off_c, 2, 72, 67
4, 43456, Note_on_c, 2, 74, 67
4, 43456, Note_on_c, 2, 79, 67
4, 43488, Note_off_c, 2, 74, 67
4, 43488, Note_off_c, 2, 79, 67
4, 43520, Note_off_c, 2, 74, 67
4, 43520, Note_off_c, 2, 79, 67
4, 43520, Note_on_c, 2, 70, 67
4, 43520, Note_on_c, 2, 77, 67
4, 43584, Note_off_c, 2, 70, 67
4, 43584, Note_off_c, 2, 77, 67
4, 43648, Note_off_c, 2, 70, 67
4, 43648, Note_off_c, 2, 77, 67
4, 43648, Note_on_c, 2, 68, 67
4, 43648, Note_on_c, 2, 70, 67
4, 43712, Note_off_c, 2, 68, 67
4, 43712, Note_off_c, 2, 70, 67
4, 43776, Note_off_c, 2, 68, 67
4, 43776, Note_off_c, 2, 70, 67
4, 43776, Note_on_c, 2, 68, 67
4, 43776, Note_on_c, 2, 70, 67
4, 43840, Note_off_c, 2, 68, 67
4, 43840, Note_off_c, 2, 70, 67
4, 43904, Note_off_c, 2, 68, 67
4, 43904, Note_off_c, 2, 70, 67
4, 43904, Note_on_c, 2, 74, 67
4, 43968, Note_off_c, 2, 74, 67
4, 43968, Note_on_c, 2, 75, 67
4, 44032, Note_off_c, 2, 75, 67
4, 44032, Note_on_c, 2, 77, 67
4, 44160, Note_off_c, 2, 77, 67
4, 44160, Note_on_c, 2, 74, 67
4, 44160, Note_on_c, 2, 80, 67
4, 44224, Note_off_c, 2, 74, 67
4, 44224, Note_off_c, 2, 80, 67
4, 44288, Note_off_c, 2, 74, 67
4, 44288, Note_off_c, 2, 80, 67
4, 44288, Note_on_c, 2, 74, 67
4, 44288, Note_on_c, 2, 79, 67
4, 44352, Note_off_c, 2, 74, 67
4, 44352, Note_off_c, 2, 79, 67
4, 44416, Note_off_c, 2, 74, 67
4, 44416, Note_off_c, 2, 79, 67
4, 44416, Note_on_c, 2, 77, 67
4, 44480, Note_off_c, 2, 77, 67
4, 44544, Note_off_c, 2, 77, 67
4, 44544, Note_on_c, 2, 75, 67
4, 44608, Note_off_c, 2, 75, 67
4, 44672, Note_off_c, 2, 75, 67
4, 44672, Note_on_c, 2, 70, 67
4, 44672, Note_on_c, 2, 74, 67
4, 44736, Note_off_c, 2, 70, 67
4, 44736, Note_off_c, 2, 74, 67
4, 44800, Note_off_c, 2, 70, 67
4, 44800, Note_off_c, 2, 74, 67
4, 44800, Note_on_c, 2, 72, 67
4, 44800, Note_on_c, 2, 74, 67
4, 44864, Note_off_c, 2, 72, 67
4, 44864, Note_off_c, 2, 74, 67
4, 44928, Note_off_c, 2, 72, 67
4, 44928, Note_off_c, 2, 74, 67
4, 44928, Note_on_c, 2, 70, 67
4, 44928, Note_on_c, 2, 74, 67
4, 44992, Note_off_c, 2, 70, 67
4, 44992, Note_off_c, 2, 74, 67
4, 45056, Note_off_c, 2, 70, 67
4, 45056, Note_off_c, 2, 74, 67
4, 45056, Note_on_c, 2, 80, 67
4, 45056, Note_on_c, 2, 84, 67
4, 45312, Note_off_c, 2, 80, 67
4, 45312, Note_off_c, 2, 84, 67
4, 45312, Note_on_c, 2, 70, 67
4, 45312, Note_on_c, 2, 74, 67
4, 45328, Note_off_c, 2, 70, 67
4, 45328, Note_off_c, 2, 74, 67
4, 45344, Note_off_c, 2, 70, 67
4, 45344, Note_off_c, 2, 74, 67
4, 45344, Note_on_c, 2, 72, 67
4, 45344, Note_on_c, 2, 75, 67
4, 45360, Note_off_c, 2, 72, 67
4, 45360, Note_off_c, 2, 75, 67
4, 45376, Note_off_c, 2, 72, 67
4, 45376, Note_off_c, 2, 75, 67
4, 45376, Note_on_c, 2, 70, 67
4, 45376, Note_on_c, 2, 74, 67
4, 45408, Note_off_c, 2, 70, 67
4, 45408, Note_off_c, 2, 74, 67
4, 45440, Note_off_c, 2, 70, 67
4, 45440, Note_off_c, 2, 74, 67
4, 45440, Note_on_c, 2, 68, 67
4, 45440, Note_on_c, 2, 72, 67
4, 45472, Note_off_c, 2, 68, 67
4, 45472, Note_off_c, 2, 72, 67
4, 45504, Note_off_c, 2, 68, 67
4, 45504, Note_off_c, 2, 72, 67
4, 45504, Note_on_c, 2, 74, 67
4, 45504, Note_on_c, 2, 77, 67
4, 45536, Note_off_c, 2, 74, 67
4, 45536, Note_off_c, 2, 77, 67
4, 45568, Note_off_c, 2, 74, 67
4, 45568, Note_off_c, 2, 77, 67
4, 45568, Note_on_c, 2, 75, 67
4, 45568, Note_on_c, 2, 79, 67
4, 45696, Note_off_c, 2, 75, 67
4, 45696, Note_off_c, 2, 79, 67
4, 45696, Note_on_c, 2, 70, 67
4, 45760, Note_off_c, 2, 70, 67
4, 45824, Note_off_c, 2, 70, 67
4, 45824, Note_on_c, 2, 70, 67
4, 45888, Note_off_c, 2, 70, 67
4, 45952, Note_off_c, 2, 70, 67
4, 45952, Note_on_c, 2, 75, 67
4, 45952, Note_on_c, 2, 79, 67
4, 46016, Note_off_c, 2, 75, 67
4, 46016, Note_off_c, 2, 79, 67
4, 46016, Note_on_c, 2, 77, 67
4, 46016, Note_on_c, 2, 80, 67
4, 46080, Note_off_c, 2, 77, 67
4, 46080, Note_off_c, 2, 80, 67
4, 46080, Note_on_c, 2, 79, 67
4, 46080, Note_on_c, 2, 82, 67
4, 46144, Note_off_c, 2, 79, 67
4, 46144, Note_off_c, 2, 82, 67
4, 46208, Note_off_c, 2, 79, 67
4, 46208, Note_off_c, 2, 82, 67
4, 46208, Note_on_c, 2, 79, 67
4, 46208, Note_on_c, 2, 82, 67
4, 46272, Note_off_c, 2, 79, 67
4, 46272, Note_off_c, 2, 82, 67
4, 46336, Note_off_c, 2, 79, 67
4, 46336, Note_off_c, 2, 82, 67
4, 46336, Note_on_c, 2, 70, 67
4, 46336, Note_on_c, 2, 79, 67
4, 46400, Note_off_c, 2, 70, 67
4, 46400, Note_off_c, 2, 79, 67
4, 46464, Note_off_c, 2, 70, 67
4, 46464, Note_off_c, 2, 79, 67
4, 46464, Note_on_c, 2, 70, 67
4, 46464, Note_on_c, 2, 75, 67
4, 46528, Note_off_c, 2, 70, 67
4, 46528, Note_off_c, 2, 75, 67
4, 46592, Note_off_c, 2, 70, 67
4, 46592, Note_off_c, 2, 75, 67
4, 46592, Note_on_c, 2, 84, 67
4, 46592, Note_on_c, 2, 87, 67
4, 46656, Note_off_c, 2, 84, 67
4, 46656, Note_off_c, 2, 87, 67
4, 46720, Note_off_c, 2, 84, 67
4, 46720, Note_off_c, 2, 87, 67
4, 46720, Note_on_c, 2, 82, 67
4, 46720, Note_on_c, 2, 86, 67
4, 46784, Note_off_c, 2, 82, 67
4, 46784, Note_off_c, 2, 86, 67
4, 46848, Note_off_c, 2, 82, 67
4, 46848, Note_off_c, 2, 86, 67
4, 46848, Note_on_c, 2, 80, 67
4, 46848, Note_on_c, 2, 84, 67
4, 46912, Note_off_c, 2, 80, 67
4, 46912, Note_off_c, 2, 84, 67
4, 46976, Note_off_c, 2, 80, 67
4, 46976, Note_off_c, 2, 84, 67
4, 46976, Note_on_c, 2, 79, 67
4, 46976, Note_on_c, 2, 87, 67
4, 47040, Note_off_c, 2, 79, 67
4, 47040, Note_off_c, 2, 87, 67
4, 47104, Note_off_c, 2, 79, 67
4, 47104, Note_off_c, 2, 87, 67
4, 47104, Note_on_c, 2, 75, 67
4, 47104, Note_on_c, 2, 82, 67
4, 47168, Note_off_c, 2, 75, 67
4, 47168, Note_off_c, 2, 82, 67
4, 47232, Note_off_c, 2, 75, 67
4, 47232, Note_off_c, 2, 82, 67
4, 47232, Note_on_c, 2, 79, 67
4, 47296, Note_off_c, 2, 79, 67
4, 47360, Note_off_c, 2, 79, 67
4, 47360, Note_on_c, 2, 67, 67
4, 47360, Note_on_c, 2, 75, 67
4, 47424, Note_off_c, 2, 67, 67
4, 47424, Note_off_c, 2, 75, 67
4, 47488, Note_off_c, 2, 67, 67
4, 47488, Note_off_c, 2, 75, 67
4, 47488, Note_on_c, 2, 68, 67
4, 47488, Note_on_c, 2, 74, 67
4, 47520, Note_off_c, 2, 68, 67
4, 47520, Note_off_c, 2, 74, 67
4, 47552, Note_off_c, 2, 68, 67
4, 47552, Note_off_c, 2, 74, 67
4, 47552, Note_on_c, 2, 74, 67
4, 47552, Note_on_c, 2, 79, 67
4, 47584, Note_off_c, 2, 74, 67
4, 47584, Note_off_c, 2, 79, 67
4, 47616, Note_off_c, 2, 74, 67
4, 47616, Note_off_c, 2, 79, 67
4, 47616, Note_on_c, 2, 70, 67
4, 47616, Note_on_c, 2, 77, 67
4, 47680, Note_off_c, 2, 70, 67
4, 47680, Note_off_c, 2, 77, 67
4, 47744, Note_off_c, 2, 70, 67
4, 47744, Note_off_c, 2, 77, 67
4, 47744, Note_on_c, 2, 65, 67
4, 47744, Note_on_c, 2, 70, 67
4, 47808, Note_off_c, 2, 65, 67
4, 47808, Note_off_c, 2, 70, 67
4, 47872, Note_off_c, 2, 65, 67
4, 47872, Note_off_c, 2, 70, 67
4, 47872, Note_on_c, 2, 68, 67
4, 47872, Note_on_c, 2, 70, 67
4, 47936, Note_off_c, 2, 68, 67
4, 47936, Note_off_c, 2, 70, 67
4, 48000, Note_off_c, 2, 68, 67
4, 48000, Note_off_c, 2, 70, 67
4, 48000, Note_on_c, 2, 70, 67
4, 48000, Note_on_c, 2, 79, 67
4, 48064, Note_off_c, 2, 70, 67
4, 48064, Note_off_c, 2, 79, 67
4, 48064, Note_on_c, 2, 77, 67
4, 48064, Note_on_c, 2, 80, 67
4, 48128, Note_off_c, 2, 77, 67
4, 48128, Note_off_c, 2, 80, 67
4, 48128, Note_on_c, 2, 79, 67
4, 48128, Note_on_c, 2, 82, 67
4, 48192, Note_off_c, 2, 79, 67
4, 48192, Note_off_c, 2, 82, 67
4, 48256, Note_off_c, 2, 79, 67
4, 48256, Note_off_c, 2, 82, 67
4, 48256, Note_on_c, 2, 79, 67
4, 48256, Note_on_c, 2, 82, 67
4, 48320, Note_off_c, 2, 79, 67
4, 48320, Note_off_c, 2, 82, 67
4, 48384, Note_off_c, 2, 79, 67
4, 48384, Note_off_c, 2, 82, 67
4, 48384, Note_on_c, 2, 70, 67
4, 48384, Note_on_c, 2, 79, 67
4, 48448, Note_off_c, 2, 70, 67
4, 48448, Note_off_c, 2, 79, 67
4, 48512, Note_off_c, 2, 70, 67
4, 48512, Note_off_c, 2, 79, 67
4, 48512, Note_on_c, 2, 75, 67
4, 48512, Note_on_c, 2, 82, 67
4, 48576, Note_off_c, 2, 75, 67
4, 48576, Note_off_c, 2, 82, 67
4, 48640, Note_off_c, 2, 75, 67
4, 48640, Note_off_c, 2, 82, 67
4, 48640, Note_on_c, 2, 84, 67
4, 48640, Note_on_c, 2, 87, 67
4, 48704, Note_off_c, 2, 84, 67
4, 48704, Note_off_c, 2, 87, 67
4, 48768, Note_off_c, 2, 84, 67
4, 48768, Note_off_c, 2, 87, 67
4, 48768, Note_on_c, 2, 82, 67
4, 48768, Note_on_c, 2, 86, 67
4, 48832, Note_off_c, 2, 82, 67
4, 48832, Note_off_c, 2, 86, 67
4, 48896, Note_off_c, 2, 82, 67
4, 48896, Note_off_c, 2, 86, 67
4, 48896, Note_on_c, 2, 80, 67
4, 48896, Note_on_c, 2, 84, 67
4, 48960, Note_off_c, 2, 80, 67
4, 48960, Note_off_c, 2, 84, 67
4, 49024, Note_off_c, 2, 80, 67
4, 49024, Note_off_c, 2, 84, 67
4, 49024, Note_on_c, 2, 70, 67
4, 49024, Note_on_c, 2, 74, 67
4, 49056, Note_off_c, 2, 70, 67
4, 49056, Note_off_c, 2, 74, 67
4, 49088, Note_off_c, 2, 70, 67
4, 49088, Note_off_c, 2, 74, 67
4, 49088, Note_on_c, 2, 77, 67
4, 49088, Note_on_c, 2, 80, 67
4, 49120, Note_off_c, 2, 77, 67
4, 49120, Note_off_c, 2, 80, 67
4, 49152, Note_off_c, 2, 77, 67
4, 49152, Note_off_c, 2, 80, 67
4, 49152, Note_on_c, 2, 77, 67
4, 49152, Note_on_c, 2, 82, 67
4, 49216, Note_off_c, 2, 77, 67
4, 49216, Note_off_c, 2, 82, 67
4, 49280, Note_off_c, 2, 77, 67
4, 49280, Note_off_c, 2, 82, 67
4, 49280, Note_on_c, 2, 80, 67
4, 49280, Note_on_c, 2, 87, 67
4, 49344, Note_off_c, 2, 80, 67
4, 49344, Note_off_c, 2, 87, 67
4, 49408, Note_off_c, 2, 80, 67
4, 49408, Note_off_c, 2, 87, 67
4, 49408, Note_on_c, 2, 82, 67
4, 49408, Note_on_c, 2, 86, 67
4, 49472, Note_off_c, 2, 82, 67
4, 49472, Note_off_c, 2, 86, 67
4, 49536, Note_off_c, 2, 82, 67
4, 49536, Note_off_c, 2, 86, 67
4, 49536, Note_on_c, 2, 80, 67
4, 49536, Note_on_c, 2, 89, 67
4, 49600, Note_off_c, 2, 80, 67
4, 49600, Note_off_c, 2, 89, 67
4, 49664, Note_off_c, 2, 80, 67
4, 49664, Note_off_c, 2, 89, 67
4, 49664, Note_on_c, 2, 79, 67
4, 49664, Note_on_c, 2, 87, 67
4, 49728, Note_off_c, 2, 79, 67
4, 49728, Note_off_c, 2, 87, 67
4, 49792, Note_off_c, 2, 79, 67
4, 49792, Note_off_c, 2, 87, 67
4, 49792, Note_on_c, 2, 70, 67
4, 49792, Note_on_c, 2, 82, 67
4, 49856, Note_off_c, 2, 70, 67
4, 49856, Note_off_c, 2, 82, 67
4, 49920, Note_off_c, 2, 70, 67
4, 49920, Note_off_c, 2, 82, 67
4, 49920, Note_on_c, 2, 70, 67
4, 49920, Note_on_c, 2, 82, 67
4, 49984, Note_off_c, 2, 70, 67
4, 49984, Note_off_c, 2, 82, 67
4, 50048, Note_off_c, 2, 70, 67
4, 50048, Note_off_c, 2, 82, 67
4, 50048, Note_on_c, 2, 75, 67
4, 50112, Note_off_c, 2, 75, 67
4, 50112, Note_on_c, 2, 77, 67
4, 50176, Note_off_c, 2, 77, 67
4, 50176, Note_on_c, 2, 79, 67
4, 50240, Note_off_c, 2, 79, 67
4, 50304, Note_off_c, 2, 79, 67
4, 50304, Note_on_c, 2, 75, 67
4, 50304, Note_on_c, 2, 79, 67
4, 50368, Note_off_c, 2, 75, 67
4, 50368, Note_off_c, 2, 79, 67
4, 50432, Note_off_c, 2, 75, 67
4, 50432, Note_off_c, 2, 79, 67
4, 50432, Note_on_c, 2, 75, 67
4, 50432, Note_on_c, 2, 79, 67
4, 50496, Note_off_c, 2, 75, 67
4, 50496, Note_off_c, 2, 79, 67
4, 50560, Note_off_c, 2, 75, 67
4, 50560, Note_off_c, 2, 79, 67
4, 50560, Note_on_c, 2, 75, 67
4, 50624, Note_off_c, 2, 75, 67
4, 50624, Note_on_c, 2, 77, 67
4, 50688, Note_off_c, 2, 77, 67
4, 50688, Note_on_c, 2, 79, 67
4, 50752, Note_off_c, 2, 79, 67
4, 50816, Note_off_c, 2, 79, 67
4, 50816, Note_on_c, 2, 75, 67
4, 50816, Note_on_c, 2, 79, 67
4, 50880, Note_off_c, 2, 75, 67
4, 50880, Note_off_c, 2, 79, 67
4, 50944, Note_off_c, 2, 75, 67
4, 50944, Note_off_c, 2, 79, 67
4, 50944, Note_on_c, 2, 75, 67
4, 50944, Note_on_c, 2, 79, 67
4, 51008, Note_off_c, 2, 75, 67
4, 51008, Note_off_c, 2, 79, 67
4, 51072, Note_off_c, 2, 75, 67
4, 51072, Note_off_c, 2, 79, 67
4, 51072, Note_on_c, 2, 75, 67
4, 51136, Note_off_c, 2, 75, 67
4, 51136, Note_on_c, 2, 77, 67
4, 51200, Note_off_c, 2, 77, 67
4, 51200, Note_on_c, 2, 79, 67
4, 51264, Note_off_c, 2, 79, 67
4, 51328, Note_off_c, 2, 79, 67
4, 51328, Note_on_c, 2, 75, 67
4, 51328, Note_on_c, 2, 79, 67
4, 51392, Note_off_c, 2, 75, 67
4, 51392, Note_off_c, 2, 79, 67
4, 51456, Note_off_c, 2, 75, 67
4, 51456, Note_off_c, 2, 79, 67
4, 51456, Note_on_c, 2, 75, 67
4, 51456, Note_on_c, 2, 80, 67
4, 51488, Note_off_c, 2, 75, 67
4, 51488, Note_off_c, 2, 80, 67
4, 51520, Note_off_c, 2, 75, 67
4, 51520, Note_off_c, 2, 80, 67
4, 51520, Note_on_c, 2, 74, 67
4, 51552, Note_off_c, 2, 74, 67
4, 51584, Note_off_c, 2, 74, 67
4, 51584, Note_on_c, 2, 72, 67
4, 51616, Note_off_c, 2, 72, 67
4, 51648, Note_off_c, 2, 72, 67
4, 51648, Note_on_c, 2, 74, 67
4, 51648, Note_on_c, 2, 79, 67
4, 51680, Note_off_c, 2, 74, 67
4, 51680, Note_off_c, 2, 79, 67
4, 51712, Note_off_c, 2, 74, 67
4, 51712, Note_off_c, 2, 79, 67
4, 51712, Note_on_c, 2, 70, 67
4, 51712, Note_on_c, 2, 77, 67
4, 51776, Note_off_c, 2, 70, 67
4, 51776, Note_off_c, 2, 77, 67
4, 51840, Note_off_c, 2, 70, 67
4, 51840, Note_off_c, 2, 77, 67
4, 51840, Note_on_c, 2, 68, 67
4, 51840, Note_on_c, 2, 70, 67
4, 51904, Note_off_c, 2, 68, 67
4, 51904, Note_off_c, 2, 70, 67
4, 51968, Note_off_c, 2, 68, 67
4, 51968, Note_off_c, 2, 70, 67
4, 51968, Note_on_c, 2, 68, 67
4, 51968, Note_on_c, 2, 70, 67
4, 52032, Note_off_c, 2, 68, 67
4, 52032, Note_off_c, 2, 70, 67
4, 52096, Note_off_c, 2, 68, 67
4, 52096, Note_off_c, 2, 70, 67
4, 52096, Note_on_c, 2, 74, 67
4, 52160, Note_off_c, 2, 74, 67
4, 52160, Note_on_c, 2, 75, 67
4, 52224, Note_off_c, 2, 75, 67
4, 52224, Note_on_c, 2, 77, 67
4, 52288, Note_off_c, 2, 77, 67
4, 52352, Note_off_c, 2, 77, 67
4, 52352, Note_on_c, 2, 74, 67
4, 52352, Note_on_c, 2, 77, 67
4, 52416, Note_off_c, 2, 74, 67
4, 52416, Note_off_c, 2, 77, 67
4, 52480, Note_off_c, 2, 74, 67
4, 52480, Note_off_c, 2, 77, 67
4, 52480, Note_on_c, 2, 74, 67
4, 52480, Note_on_c, 2, 77, 67
4, 52544, Note_off_c, 2, 74, 67
4, 52544, Note_off_c, 2, 77, 67
4, 52608, Note_off_c, 2, 74, 67
4, 52608, Note_off_c, 2, 77, 67
4, 52608, Note_on_c, 2, 74, 67
4, 52672, Note_off_c, 2, 74, 67
4, 52672, Note_on_c, 2, 75, 67
4, 52736, Note_off_c, 2, 75, 67
4, 52736, Note_on_c, 2, 77, 67
4, 52800, Note_off_c, 2, 77, 67
4, 52864, Note_off_c, 2, 77, 67
4, 52864, Note_on_c, 2, 74, 67
4, 52864, Note_on_c, 2, 77, 67
4, 52928, Note_off_c, 2, 74, 67
4, 52928, Note_off_c, 2, 77, 67
4, 52992, Note_off_c, 2, 74, 67
4, 52992, Note_off_c, 2, 77, 67
4, 52992, Note_on_c, 2, 74, 67
4, 52992, Note_on_c, 2, 77, 67
4, 53056, Note_off_c, 2, 74, 67
4, 53056, Note_off_c, 2, 77, 67
4, 53120, Note_off_c, 2, 74, 67
4, 53120, Note_off_c, 2, 77, 67
4, 53120, Note_on_c, 2, 74, 67
4, 53184, Note_off_c, 2, 74, 67
4, 53184, Note_on_c, 2, 75, 67
4, 53248, Note_off_c, 2, 75, 67
4, 53248, Note_on_c, 2, 70, 67
4, 53248, Note_on_c, 2, 77, 67
4, 53312, Note_off_c, 2, 70, 67
4, 53312, Note_off_c, 2, 77, 67
4, 53376, Note_off_c, 2, 70, 67
4, 53376, Note_off_c, 2, 77, 67
4, 53376, Note_on_c, 2, 74, 67
4, 53376, Note_on_c, 2, 77, 67
4, 53440, Note_off_c, 2, 74, 67
4, 53440, Note_off_c, 2, 77, 67
4, 53504, Note_off_c, 2, 74, 67
4, 53504, Note_off_c, 2, 77, 67
4, 53504, Note_on_c, 2, 74, 67
4, 53504, Note_on_c, 2, 79, 67
4, 53536, Note_off_c, 2, 74, 67
4, 53536, Note_off_c, 2, 79, 67
4, 53568, Note_off_c, 2, 74, 67
4, 53568, Note_off_c, 2, 79, 67
4, 53568, Note_on_c, 2, 72, 67
4, 53568, Note_on_c, 2, 77, 67
4, 53600, Note_off_c, 2, 72, 67
4, 53600, Note_off_c, 2, 77, 67
4, 53632, Note_off_c, 2, 72, 67
4, 53632, Note_off_c, 2, 77, 67
4, 53632, Note_on_c, 2, 70, 67
4, 53632, Note_on_c, 2, 77, 67
4, 53664, Note_off_c, 2, 70, 67
4, 53664, Note_off_c, 2, 77, 67
4, 53696, Note_off_c, 2, 70, 67
4, 53696, Note_off_c, 2, 77, 67
4, 53696, Note_on_c, 2, 68, 67
4, 53696, Note_on_c, 2, 79, 67
4, 53728, Note_off_c, 2, 68, 67
4, 53728, Note_off_c, 2, 79, 67
4, 53760, Note_off_c, 2, 68, 67
4, 53760, Note_off_c, 2, 79, 67
4, 53760, Note_on_c, 2, 67, 67
4, 53760, Note_on_c, 2, 75, 67
4, 53824, Note_off_c, 2, 67, 67
4, 53824, Note_off_c, 2, 75, 67
4, 53888, Note_off_c, 2, 67, 67
4, 53888, Note_off_c, 2, 75, 67
4, 53888, Note_on_c, 2, 70, 67
4, 53952, Note_off_c, 2, 70, 67
4, 54016, Note_off_c, 2, 70, 67
4, 54016, Note_on_c, 2, 70, 67
4, 54016, Note_on_c, 2, 79, 67
4, 54080, Note_off_c, 2, 70, 67
4, 54080, Note_off_c, 2, 79, 67
4, 54144, Note_off_c, 2, 70, 67
4, 54144, Note_off_c, 2, 79, 67
4, 54144, Note_on_c, 2, 75, 67
4, 54208, Note_off_c, 2, 75, 67
4, 54208, Note_on_c, 2, 77, 67
4, 54272, Note_off_c, 2, 77, 67
4, 54272, Note_on_c, 2, 79, 67
4, 54336, Note_off_c, 2, 79, 67
4, 54400, Note_off_c, 2, 79, 67
4, 54400, Note_on_c, 2, 75, 67
4, 54400, Note_on_c, 2, 79, 67
4, 54464, Note_off_c, 2, 75, 67
4, 54464, Note_off_c, 2, 79, 67
4, 54528, Note_off_c, 2, 75, 67
4, 54528, Note_off_c, 2, 79, 67
4, 54528, Note_on_c, 2, 75, 67
4, 54528, Note_on_c, 2, 79, 67
4, 54592, Note_off_c, 2, 75, 67
4, 54592, Note_off_c, 2, 79, 67
4, 54656, Note_off_c, 2, 75, 67
4, 54656, Note_off_c, 2, 79, 67
4, 54656, Note_on_c, 2, 75, 67
4, 54720, Note_off_c, 2, 75, 67
4, 54720, Note_on_c, 2, 77, 67
4, 54784, Note_off_c, 2, 77, 67
4, 54784, Note_on_c, 2, 79, 67
4, 54848, Note_off_c, 2, 79, 67
4, 54912, Note_off_c, 2, 79, 67
4, 54912, Note_on_c, 2, 75, 67
4, 54912, Note_on_c, 2, 79, 67
4, 54976, Note_off_c, 2, 75, 67
4, 54976, Note_off_c, 2, 79, 67
4, 55040, Note_off_c, 2, 75, 67
4, 55040, Note_off_c, 2, 79, 67
4, 55040, Note_on_c, 2, 75, 67
4, 55040, Note_on_c, 2, 79, 67
4, 55104, Note_off_c, 2, 75, 67
4, 55104, Note_off_c, 2, 79, 67
4, 55168, Note_off_c, 2, 75, 67
4, 55168, Note_off_c, 2, 79, 67
4, 55168, Note_on_c, 2, 75, 67
4, 55232, Note_off_c, 2, 75, 67
4, 55232, Note_on_c, 2, 77, 67
4, 55296, Note_off_c, 2, 77, 67
4, 55296, Note_on_c, 2, 79, 67
4, 55360, Note_off_c, 2, 79, 67
4, 55424, Note_off_c, 2, 79, 67
4, 55424, Note_on_c, 2, 75, 67
4, 55424, Note_on_c, 2, 79, 67
4, 55488, Note_off_c, 2, 75, 67
4, 55488, Note_off_c, 2, 79, 67
4, 55552, Note_off_c, 2, 75, 67
4, 55552, Note_off_c, 2, 79, 67
4, 55552, Note_on_c, 2, 75, 67
4, 55552, Note_on_c, 2, 80, 67
4, 55584, Note_off_c, 2, 75, 67
4, 55584, Note_off_c, 2, 80, 67
4, 55616, Note_off_c, 2, 75, 67
4, 55616, Note_off_c, 2, 80, 67
4, 55616, Note_on_c, 2, 74, 67
4, 55680, Note_off_c, 2, 74, 67
4, 55680, Note_on_c, 2, 72, 67
4, 55744, Note_off_c, 2, 72, 67
4, 55744, Note_on_c, 2, 74, 67
4, 55744, Note_on_c, 2, 79, 67
4, 55776, Note_off_c, 2, 74, 67
4, 55776, Note_off_c, 2, 79, 67
4, 55808, Note_off_c, 2, 74, 67
4, 55808, Note_off_c, 2, 79, 67
4, 55808, Note_on_c, 2, 70, 67
4, 55808, Note_on_c, 2, 77, 67
4, 55872, Note_off_c, 2, 70, 67
4, 55872, Note_off_c, 2, 77, 67
4, 55936, Note_off_c, 2, 70, 67
4, 55936, Note_off_c, 2, 77, 67
4, 55936, Note_on_c, 2, 68, 67
4, 55936, Note_on_c, 2, 70, 67
4, 56000, Note_off_c, 2, 68, 67
4, 56000, Note_off_c, 2, 70, 67
4, 56064, Note_off_c, 2, 68, 67
4, 56064, Note_off_c, 2, 70, 67
4, 56064, Note_on_c, 2, 68, 67
4, 56064, Note_on_c, 2, 70, 67
4, 56128, Note_off_c, 2, 68, 67
4, 56128, Note_off_c, 2, 70, 67
4, 56192, Note_off_c, 2, 68, 67
4, 56192, Note_off_c, 2, 70, 67
4, 56192, Note_on_c, 2, 74, 67
4, 56256, Note_off_c, 2, 74, 67
4, 56256, Note_on_c, 2, 75, 67
4, 56320, Note_off_c, 2, 75, 67
4, 56320, Note_on_c, 2, 77, 67
4, 56448, Note_off_c, 2, 77, 67
4, 56448, Note_on_c, 2, 74, 67
4, 56448, Note_on_c, 2, 80, 67
4, 56512, Note_off_c, 2, 74, 67
4, 56512, Note_off_c, 2, 80, 67
4, 56576, Note_off_c, 2, 74, 67
4, 56576, Note_off_c, 2, 80, 67
4, 56576, Note_on_c, 2, 74, 67
4, 56576, Note_on_c, 2, 79, 67
4, 56640, Note_off_c, 2, 74, 67
4, 56640, Note_off_c, 2, 79, 67
4, 56704, Note_off_c, 2, 74, 67
4, 56704, Note_off_c, 2, 79, 67
4, 56704, Note_on_c, 2, 77, 67
4, 56768, Note_off_c, 2, 77, 67
4, 56832, Note_off_c, 2, 77, 67
4, 56832, Note_on_c, 2, 75, 67
4, 56896, Note_off_c, 2, 75, 67
4, 56960, Note_off_c, 2, 75, 67
4, 56960, Note_on_c, 2, 70, 67
4, 56960, Note_on_c, 2, 74, 67
4, 57024, Note_off_c, 2, 70, 67
4, 57024, Note_off_c, 2, 74, 67
4, 57088, Note_off_c, 2, 70, 67
4, 57088, Note_off_c, 2, 74, 67
4, 57088, Note_on_c, 2, 72, 67
4, 57088, Note_on_c, 2, 74, 67
4, 57152, Note_off_c, 2, 72, 67
4, 57152, Note_off_c, 2, 74, 67
4, 57216, Note_off_c, 2, 72, 67
4, 57216, Note_off_c, 2, 74, 67
4, 57216, Note_on_c, 2, 70, 67
4, 57216, Note_on_c, 2, 74, 67
4, 57280, Note_off_c, 2, 70, 67
4, 57280, Note_off_c, 2, 74, 67
4, 57344, Note_off_c, 2, 70, 67
4, 57344, Note_off_c, 2, 74, 67
4, 57344, Note_on_c, 2, 80, 67
4, 57344, Note_on_c, 2, 84, 67
4, 57600, Note_off_c, 2, 80, 67
4, 57600, Note_off_c, 2, 84, 67
4, 57600, Note_on_c, 2, 70, 67
4, 57600, Note_on_c, 2, 74, 67
4, 57616, Note_off_c, 2, 70, 67
4, 57616, Note_off_c, 2, 74, 67
4, 57632, Note_off_c, 2, 70, 67
4, 57632, Note_off_c, 2, 74, 67
4, 57632, Note_on_c, 2, 72, 67
4, 57632, Note_on_c, 2, 75, 67
4, 57648, Note_off_c, 2, 72, 67
4, 57648, Note_off_c, 2, 75, 67
4, 57664, Note_off_c, 2, 72, 67
4, 57664, Note_off_c, 2, 75, 67
4, 57664, Note_on_c, 2, 70, 67
4, 57664, Note_on_c, 2, 74, 67
4, 57696, Note_off_c, 2, 70, 67
4, 57696, Note_off_c, 2, 74, 67
4, 57728, Note_off_c, 2, 70, 67
4, 57728, Note_off_c, 2, 74, 67
4, 57728, Note_on_c, 2, 68, 67
4, 57728, Note_on_c, 2, 72, 67
4, 57760, Note_off_c, 2, 68, 67
4, 57760, Note_off_c, 2, 72, 67
4, 57792, Note_off_c, 2, 68, 67
4, 57792, Note_off_c, 2, 72, 67
4, 57792, Note_on_c, 2, 74, 67
4, 57792, Note_on_c, 2, 77, 67
4, 57824, Note_off_c, 2, 74, 67
4, 57824, Note_off_c, 2, 77, 67
4, 57856, Note_off_c, 2, 74, 67
4, 57856, Note_off_c, 2, 77, 67
4, 57856, Note_on_c, 2, 75, 67
4, 57856, Note_on_c, 2, 79, 67
4, 57984, Note_off_c, 2, 75, 67
4, 57984, Note_off_c, 2, 79, 67
4, 57984, Note_on_c, 2, 70, 67
4, 58048, Note_off_c, 2, 70, 67
4, 58112, Note_off_c, 2, 70, 67
4, 58112, Note_on_c, 2, 70, 67
4, 58176, Note_off_c, 2, 70, 67
4, 58240, Note_off_c, 2, 70, 67
4, 58240, Note_on_c, 2, 75, 67
4, 58240, Note_on_c, 2, 79, 67
4, 58304, Note_off_c, 2, 75, 67
4, 58304, Note_off_c, 2, 79, 67
4, 58304, Note_on_c, 2, 77, 67
4, 58304, Note_on_c, 2, 80, 67
4, 58368, Note_off_c, 2, 77, 67
4, 58368, Note_off_c, 2, 80, 67
4, 58368, Note_on_c, 2, 79, 67
4, 58368, Note_on_c, 2, 82, 67
4, 58432, Note_off_c, 2, 79, 67
4, 58432, Note_off_c, 2, 82, 67
4, 58496, Note_off_c, 2, 79, 67
4, 58496, Note_off_c, 2, 82, 67
4, 58496, Note_on_c, 2, 79, 67
4, 58496, Note_on_c, 2, 82, 67
4, 58560, Note_off_c, 2, 79, 67
4, 58560, Note_off_c, 2, 82, 67
4, 58624, Note_off_c, 2, 79, 67
4, 58624, Note_off_c, 2, 82, 67
4, 58624, Note_on_c, 2, 70, 67
4, 58624, Note_on_c, 2, 79, 67
4, 58688, Note_off_c, 2, 70, 67
4, 58688, Note_off_c, 2, 79, 67
4, 58752, Note_off_c, 2, 70, 67
4, 58752, Note_off_c, 2, 79, 67
4, 58752, Note_on_c, 2, 70, 67
4, 58752, Note_on_c, 2, 75, 67
4, 58816, Note_off_c, 2, 70, 67
4, 58816, Note_off_c, 2, 75, 67
4, 58880, Note_off_c, 2, 70, 67
4, 58880, Note_off_c, 2, 75, 67
4, 58880, Note_on_c, 2, 84, 67
4, 58880, Note_on_c, 2, 87, 67
4, 58944, Note_off_c, 2, 84, 67
4, 58944, Note_off_c, 2, 87, 67
4, 59008, Note_off_c, 2, 84, 67
4, 59008, Note_off_c, 2, 87, 67
4, 59008, Note_on_c, 2, 82, 67
4, 59008, Note_on_c, 2, 86, 67
4, 59072, Note_off_c, 2, 82, 67
4, 59072, Note_off_c, 2, 86, 67
4, 59136, Note_off_c, 2, 82, 67
4, 59136, Note_off_c, 2, 86, 67
4, 59136, Note_on_c, 2, 80, 67
4, 59136, Note_on_c, 2, 84, 67
4, 59200, Note_off_c, 2, 80, 67
4, 59200, Note_off_c, 2, 84, 67
4, 59264, Note_off_c, 2, 80, 67
4, 59264, Note_off_c, 2, 84, 67
4, 59264, Note_on_c, 2, 79, 67
4, 59264, Note_on_c, 2, 87, 67
4, 59328, Note_off_c, 2, 79, 67
4, 59328, Note_off_c, 2, 87, 67
4, 59392, Note_off_c, 2, 79, 67
4, 59392, Note_off_c, 2, 87, 67
4, 59392, Note_on_c, 2, 75, 67
4, 59392, Note_on_c, 2, 82, 67
4, 59456, Note_off_c, 2, 75, 67
4, 59456, Note_off_c, 2, 82, 67
4, 59520, Note_off_c, 2, 75, 67
4, 59520, Note_off_c, 2, 82, 67
4, 59520, Note_on_c, 2, 79, 67
4, 59584, Note_off_c, 2, 79, 67
4, 59648, Note_off_c, 2, 79, 67
4, 59648, Note_on_c, 2, 67, 67
4, 59648, Note_on_c, 2, 75, 67
4, 59712, Note_off_c, 2, 67, 67
4, 59712, Note_off_c, 2, 75, 67
4, 59776, Note_off_c, 2, 67, 67
4, 59776, Note_off_c, 2, 75, 67
4, 59776, Note_on_c, 2, 68, 67
4, 59776, Note_on_c, 2, 74, 67
4, 59808, Note_off_c, 2, 68, 67
4, 59808, Note_off_c, 2, 74, 67
4, 59840, Note_off_c, 2, 68, 67
4, 59840, Note_off_c, 2, 74, 67
4, 59840, Note_on_c, 2, 74, 67
4, 59840, Note_on_c, 2, 79, 67
4, 59872, Note_off_c, 2, 74, 67
4, 59872, Note_off_c, 2, 79, 67
4, 59904, Note_off_c, 2, 74, 67
4, 59904, Note_off_c, 2, 79, 67
4, 59904, Note_on_c, 2, 70, 67
4, 59904, Note_on_c, 2, 77, 67
4, 59968, Note_off_c, 2, 70, 67
4, 59968, Note_off_c, 2, 77, 67
4, 60032, Note_off_c, 2, 70, 67
4, 60032, Note_off_c, 2, 77, 67
4, 60032, Note_on_c, 2, 65, 67
4, 60032, Note_on_c, 2, 70, 67
4, 60096, Note_off_c, 2, 65, 67
4, 60096, Note_off_c, 2, 70, 67
4, 60160, Note_off_c, 2, 65, 67
4, 60160, Note_off_c, 2, 70, 67
4, 60160, Note_on_c, 2, 68, 67
4, 60160, Note_on_c, 2, 70, 67
4, 60224, Note_off_c, 2, 68, 67
4, 60224, Note_off_c, 2, 70, 67
4, 60288, Note_off_c, 2, 68, 67
4, 60288, Note_off_c, 2, 70, 67
4, 60288, Note_on_c, 2, 70, 67
4, 60288, Note_on_c, 2, 79, 67
4, 60352, Note_off_c, 2, 70, 67
4, 60352, Note_off_c, 2, 79, 67
4, 60352, Note_on_c, 2, 77, 67
4, 60352, Note_on_c, 2, 80, 67
4, 60416, Note_off_c, 2, 77, 67
4, 60416, Note_off_c, 2, 80, 67
4, 60416, Note_on_c, 2, 79, 67
4, 60416, Note_on_c, 2, 82, 67
4, 60480, Note_off_c, 2, 79, 67
4, 60480, Note_off_c, 2, 82, 67
4, 60544, Note_off_c, 2, 79, 67
4, 60544, Note_off_c, 2, 82, 67
4, 60544, Note_on_c, 2, 79, 67
4, 60544, Note_on_c, 2, 82, 67
4, 60608, Note_off_c, 2, 79, 67
4, 60608, Note_off_c, 2, 82, 67
4, 60672, Note_off_c, 2, 79, 67
4, 60672, Note_off_c, 2, 82, 67
4, 60672, Note_on_c, 2, 70, 67
4, 60672, Note_on_c, 2, 79, 67
4, 60736, Note_off_c, 2, 70, 67
4, 60736, Note_off_c, 2, 79, 67
4, 60800, Note_off_c, 2, 70, 67
4, 60800, Note_off_c, 2, 79, 67
4, 60800, Note_on_c, 2, 75, 67
4, 60800, Note_on_c, 2, 82, 67
4, 60864, Note_off_c, 2, 75, 67
4, 60864, Note_off_c, 2, 82, 67
4, 60928, Note_off_c, 2, 75, 67
4, 60928, Note_off_c, 2, 82, 67
4, 60928, Note_on_c, 2, 84, 67
4, 60928, Note_on_c, 2, 87, 67
4, 60992, Note_off_c, 2, 84, 67
4, 60992, Note_off_c, 2, 87, 67
4, 61056, Note_off_c, 2, 84, 67
4, 61056, Note_off_c, 2, 87, 67
4, 61056, Note_on_c, 2, 82, 67
4, 61056, Note_on_c, 2, 86, 67
4, 61120, Note_off_c, 2, 82, 67
4, 61120, Note_off_c, 2, 86, 67
4, 61184, Note_off_c, 2, 82, 67
4, 61184, Note_off_c, 2, 86, 67
4, 61184, Note_on_c, 2, 80, 67
4, 61184, Note_on_c, 2, 84, 67
4, 61248, Note_off_c, 2, 80, 67
4, 61248, Note_off_c, 2, 84, 67
4, 61312, Note_off_c, 2, 80, 67
4, 61312, Note_off_c, 2, 84, 67
4, 61312, Note_on_c, 2, 70, 67
4, 61312, Note_on_c, 2, 74, 67
4, 61344, Note_off_c, 2, 70, 67
4, 61344, Note_off_c, 2, 74, 67
4, 61376, Note_off_c, 2, 70, 67
4, 61376, Note_off_c, 2, 74, 67
4, 61376, Note_on_c, 2, 77, 67
4, 61376, Note_on_c, 2, 80, 67
4, 61408, Note_off_c, 2, 77, 67
4, 61408, Note_off_c, 2, 80, 67
4, 61440, Note_off_c, 2, 77, 67
4, 61440, Note_off_c, 2, 80, 67
4, 61440, Note_on_c, 2, 77, 67
4, 61440, Note_on_c, 2, 82, 67
4, 61504, Note_off_c, 2, 77, 67
4, 61504, Note_off_c, 2, 82, 67
4, 61568, Note_off_c, 2, 77, 67
4, 61568, Note_off_c, 2, 82, 67
4, 61568, Note_on_c, 2, 80, 67
4, 61568, Note_on_c, 2, 87, 67
4, 61632, Note_off_c, 2, 80, 67
4, 61632, Note_off_c, 2, 87, 67
4, 61696, Note_off_c, 2, 80, 67
4, 61696, Note_off_c, 2, 87, 67
4, 61696, Note_on_c, 2, 82, 67
4, 61696, Note_on_c, 2, 86, 67
4, 61760, Note_off_c, 2, 82, 67
4, 61760, Note_off_c, 2, 86, 67
4, 61824, Note_off_c, 2, 82, 67
4, 61824, Note_off_c, 2, 86, 67
4, 61824, Note_on_c, 2, 80, 67
4, 61824, Note_on_c, 2, 89, 67
4, 61888, Note_off_c, 2, 80, 67
4, 61888, Note_off_c, 2, 89, 67
4, 61952, Note_off_c, 2, 80, 67
4, 61952, Note_off_c, 2, 89, 67
4, 61952, Note_on_c, 2, 79, 67
4, 61952, Note_on_c, 2, 87, 67
4, 62016, Note_off_c, 2, 79, 67
4, 62016, Note_off_c, 2, 87, 67
4, 62080, Note_off_c, 2, 79, 67
4, 62080, Note_off_c, 2, 87, 67
4, 62080, Note_on_c, 2, 70, 67
4, 62080, Note_on_c, 2, 82, 67
4, 62144, Note_off_c, 2, 70, 67
4, 62144, Note_off_c, 2, 82, 67
4, 62208, Note_off_c, 2, 70, 67
4, 62208, Note_off_c, 2, 82, 67
4, 62208, Note_on_c, 2, 70, 67
4, 62208, Note_on_c, 2, 82, 67
4, 62272, Note_off_c, 2, 70, 67
4, 62272, Note_off_c, 2, 82, 67
4, 62336, Note_off_c, 2, 70, 67
4, 62336, Note_off_c, 2, 82, 67
4, 62336, Note_on_c, 2, 75, 67
4, 62400, Note_off_c, 2, 75, 67
4, 62400, Note_on_c, 2, 77, 67
4, 62464, Note_off_c, 2, 77, 67
4, 62464, Note_on_c, 2, 79, 67
4, 62528, Note_off_c, 2, 79, 67
4, 62592, Note_off_c, 2, 79, 67
4, 62592, Note_on_c, 2, 75, 67
4, 62592, Note_on_c, 2, 79, 67
4, 62656, Note_off_c, 2, 75, 67
4, 62656, Note_off_c, 2, 79, 67
4, 62720, Note_off_c, 2, 75, 67
4, 62720, Note_off_c, 2, 79, 67
4, 62720, Note_on_c, 2, 75, 67
4, 62720, Note_on_c, 2, 79, 67
4, 62784, Note_off_c, 2, 75, 67
4, 62784, Note_off_c, 2, 79, 67
4, 62848, Note_off_c, 2, 75, 67
4, 62848, Note_off_c, 2, 79, 67
4, 62848, Note_on_c, 2, 75, 67
4, 62912, Note_off_c, 2, 75, 67
4, 62912, Note_on_c, 2, 77, 67
4, 62976, Note_off_c, 2, 77, 67
4, 62976, Note_on_c, 2, 79, 67
4, 63040, Note_off_c, 2, 79, 67
4, 63104, Note_off_c, 2, 79, 67
4, 63104, Note_on_c, 2, 75, 67
4, 63104, Note_on_c, 2, 79, 67
4, 63168, Note_off_c, 2, 75, 67
4, 63168, Note_off_c, 2, 79, 67
4, 63232, Note_off_c, 2, 75, 67
4, 63232, Note_off_c, 2, 79, 67
4, 63232, Note_on_c, 2, 75, 67
4, 63232, Note_on_c, 2, 79, 67
4, 63296, Note_off_c, 2, 75, 67
4, 63296, Note_off_c, 2, 79, 67
4, 63360, Note_off_c, 2, 75, 67
4, 63360, Note_off_c, 2, 79, 67
4, 63360, Note_on_c, 2, 75, 67
4, 63424, Note_off_c, 2, 75, 67
4, 63424, Note_on_c, 2, 77, 67
4, 63488, Note_off_c, 2, 77, 67
4, 63488, Note_on_c, 2, 79, 67
4, 63552, Note_off_c, 2, 79, 67
4, 63616, Note_off_c, 2, 79, 67
4, 63616, Note_on_c, 2, 75, 67
4, 63616, Note_on_c, 2, 79, 67
4, 63680, Note_off_c, 2, 75, 67
4, 63680, Note_off_c, 2, 79, 67
4, 63744, Note_off_c, 2, 75, 67
4, 63744, Note_off_c, 2, 79, 67
4, 63744, Note_on_c, 2, 75, 67
4, 63744, Note_on_c, 2, 80, 67
4, 63776, Note_off_c, 2, 75, 67
4, 63776, Note_off_c, 2, 80, 67
4, 63808, Note_off_c, 2, 75, 67
4, 63808, Note_off_c, 2, 80, 67
4, 63808, Note_on_c, 2, 74, 67
4, 63840, Note_off_c, 2, 74, 67
4, 63872, Note_off_c, 2, 74, 67
4, 63872, Note_on_c, 2, 72, 67
4, 63904, Note_off_c, 2, 72, 67
4, 63936, Note_off_c, 2, 72, 67
4, 63936, Note_on_c, 2, 74, 67
4, 63936, Note_on_c, 2, 79, 67
4, 63968, Note_off_c, 2, 74, 67
4, 63968, Note_off_c, 2, 79, 67
4, 64000, Note_off_c, 2, 74, 67
4, 64000, Note_off_c, 2, 79, 67
4, 64000, Note_on_c, 2, 70, 67
4, 64000, Note_on_c, 2, 77, 67
4, 64064, Note_off_c, 2, 70, 67
4, 64064, Note_off_c, 2, 77, 67
4, 64128, Note_off_c, 2, 70, 67
4, 64128, Note_off_c, 2, 77, 67
4, 64128, Note_on_c, 2, 68, 67
4, 64128, Note_on_c, 2, 70, 67
4, 64192, Note_off_c, 2, 68, 67
4, 64192, Note_off_c, 2, 70, 67
4, 64256, Note_off_c, 2, 68, 67
4, 64256, Note_off_c, 2, 70, 67
4, 64256, Note_on_c, 2, 68, 67
4, 64256, Note_on_c, 2, 70, 67
4, 64320, Note_off_c, 2, 68, 67
4, 64320, Note_off_c, 2, 70, 67
4, 64384, Note_off_c, 2, 68, 67
4, 64384, Note_off_c, 2, 70, 67
4, 64384, Note_on_c, 2, 74, 67
4, 64448, Note_off_c, 2, 74, 67
4, 64448, Note_on_c, 2, 75, 67
4, 64512, Note_off_c, 2, 75, 67
4, 64512, Note_on_c, 2, 77, 67
4, 64576, Note_off_c, 2, 77, 67
4, 64640, Note_off_c, 2, 77, 67
4, 64640, Note_on_c, 2, 74, 67
4, 64640, Note_on_c, 2, 77, 67
4, 64704, Note_off_c, 2, 74, 67
4, 64704, Note_off_c, 2, 77, 67
4, 64768, Note_off_c, 2, 74, 67
4, 64768, Note_off_c, 2, 77, 67
4, 64768, Note_on_c, 2, 74, 67
4, 64768, Note_on_c, 2, 77, 67
4, 64832, Note_off_c, 2, 74, 67
4, 64832, Note_off_c, 2, 77, 67
4, 64896, Note_off_c, 2, 74, 67
4, 64896, Note_off_c, 2, 77, 67
4, 64896, Note_on_c, 2, 74, 67
4, 64960, Note_off_c, 2, 74, 67
4, 64960, Note_on_c, 2, 75, 67
4, 65024, Note_off_c, 2, 75, 67
4, 65024, Note_on_c, 2, 77, 67
4, 65088, Note_off_c, 2, 77, 67
4, 65152, Note_off_c, 2, 77, 67
4, 65152, Note_on_c, 2, 74, 67
4, 65152, Note_on_c, 2, 77, 67
4, 65216, Note_off_c, 2, 74, 67
4, 65216, Note_off_c, 2, 77, 67
4, 65280, Note_off_c, 2, 74, 67
4, 65280, Note_off_c, 2, 77, 67
4, 65280, Note_on_c, 2, 74, 67
4, 65280, Note_on_c, 2, 77, 67
4, 65344, Note_off_c, 2, 74, 67
4, 65344, Note_off_c, 2, 77, 67
4, 65408, Note_off_c, 2, 74, 67
4, 65408, Note_off_c, 2, 77, 67
4, 65408, Note_on_c, 2, 74, 67
4, 65472, Note_off_c, 2, 74, 67
4, 65472, Note_on_c, 2, 75, 67
4, 65536, Note_off_c, 2, 75, 67
4, 65536, Note_on_c, 2, 70, 67
4, 65536, Note_on_c, 2, 77, 67
4, 65600, Note_off_c, 2, 70, 67
4, 65600, Note_off_c, 2, 77, 67
4, 65664, Note_off_c, 2, 70, 67
4, 65664, Note_off_c, 2, 77, 67
4, 65664, Note_on_c, 2, 74, 67
4, 65664, Note_on_c, 2, 77, 67
4, 65728, Note_off_c, 2, 74, 67
4, 65728, Note_off_c, 2, 77, 67
4, 65792, Note_off_c, 2, 74, 67
4, 65792, Note_off_c, 2, 77, 67
4, 65792, Note_on_c, 2, 74, 67
4, 65792, Note_on_c, 2, 79, 67
4, 65824, Note_off_c, 2, 74, 67
4, 65824, Note_off_c, 2, 79, 67
4, 65856, Note_off_c, 2, 74, 67
4, 65856, Note_off_c, 2, 79, 67
4, 65856, Note_on_c, 2, 72, 67
4, 65856, Note_on_c, 2, 77, 67
4, 65888, Note_off_c, 2, 72, 67
4, 65888, Note_off_c, 2, 77, 67
4, 65920, Note_off_c, 2, 72, 67
4, 65920, Note_off_c, 2, 77, 67
4, 65920, Note_on_c, 2, 70, 67
4, 65920, Note_on_c, 2, 77, 67
4, 65952, Note_off_c, 2, 70, 67
4, 65952, Note_off_c, 2, 77, 67
4, 65984, Note_off_c, 2, 70, 67
4, 65984, Note_off_c, 2, 77, 67
4, 65984, Note_on_c, 2, 68, 67
4, 65984, Note_on_c, 2, 79, 67
4, 66016, Note_off_c, 2, 68, 67
4, 66016, Note_off_c, 2, 79, 67
4, 66048, Note_off_c, 2, 68, 67
4, 66048, Note_off_c, 2, 79, 67
4, 66048, Note_on_c, 2, 67, 67
4, 66048, Note_on_c, 2, 75, 67
4, 66112, Note_off_c, 2, 67, 67
4, 66112, Note_off_c, 2, 75, 67
4, 66176, Note_off_c, 2, 67, 67
4, 66176, Note_off_c, 2, 75, 67
4, 66176, Note_on_c, 2, 70, 67
4, 66240, Note_off_c, 2, 70, 67
4, 66304, Note_off_c, 2, 70, 67
4, 66304, Note_on_c, 2, 70, 67
4, 66304, Note_on_c, 2, 79, 67
4, 66368, Note_off_c, 2, 70, 67
4, 66368, Note_off_c, 2, 79, 67
4, 66432, Note_off_c, 2, 70, 67
4, 66432, Note_off_c, 2, 79, 67
4, 66432, Note_on_c, 2, 75, 67
4, 66496, Note_off_c, 2, 75, 67
4, 66496, Note_on_c, 2, 77, 67
4, 66560, Note_off_c, 2, 77, 67
4, 66560, Note_on_c, 2, 79, 67
4, 66624, Note_off_c, 2, 79, 67
4, 66688, Note_off_c, 2, 79, 67
4, 66688, Note_on_c, 2, 75, 67
4, 66688, Note_on_c, 2, 79, 67
4, 66752, Note_off_c, 2, 75, 67
4, 66752, Note_off_c, 2, 79, 67
4, 66816, Note_off_c, 2, 75, 67
4, 66816, Note_off_c, 2, 79, 67
4, 66816, Note_on_c, 2, 75, 67
4, 66816, Note_on_c, 2, 79, 67
4, 66880, Note_off_c, 2, 75, 67
4, 66880, Note_off_c, 2, 79, 67
4, 66944, Note_off_c, 2, 75, 67
4, 66944, Note_off_c, 2, 79, 67
4, 66944, Note_on_c, 2, 75, 67
4, 67008, Note_off_c, 2, 75, 67
4, 67008, Note_on_c, 2, 77, 67
4, 67072, Note_off_c, 2, 77, 67
4, 67072, Note_on_c, 2, 79, 67
4, 67136, Note_off_c, 2, 79, 67
4, 67200, Note_off_c, 2, 79, 67
4, 67200, Note_on_c, 2, 75, 67
4, 67200, Note_on_c, 2, 79, 67
4, 67264, Note_off_c, 2, 75, 67
4, 67264, Note_off_c, 2, 79, 67
4, 67328, Note_off_c, 2, 75, 67
4, 67328, Note_off_c, 2, 79, 67
4, 67328, Note_on_c, 2, 75, 67
4, 67328, Note_on_c, 2, 79, 67
4, 67392, Note_off_c, 2, 75, 67
4, 67392, Note_off_c, 2, 79, 67
4, 67456, Note_off_c, 2, 75, 67
4, 67456, Note_off_c, 2, 79, 67
4, 67456, Note_on_c, 2, 75, 67
4, 67520, Note_off_c, 2, 75, 67
4, 67520, Note_on_c, 2, 77, 67
4, 67584, Note_off_c, 2, 77, 67
4, 67584, Note_on_c, 2, 79, 67
4, 67648, Note_off_c, 2, 79, 67
4, 67712, Note_off_c, 2, 79, 67
4, 67712, Note_on_c, 2, 75, 67
4, 67712, Note_on_c, 2, 79, 67
4, 67776, Note_off_c, 2, 75, 67
4, 67776, Note_off_c, 2, 79, 67
4, 67840, Note_off_c, 2, 75, 67
4, 67840, Note_off_c, 2, 79, 67
4, 67840, Note_on_c, 2, 75, 67
4, 67840, Note_on_c, 2, 80, 67
4, 67872, Note_off_c, 2, 75, 67
4, 67872, Note_off_c, 2, 80, 67
4, 67904, Note_off_c, 2, 75, 67
4, 67904, Note_off_c, 2, 80, 67
4, 67904, Note_on_c, 2, 74, 67
4, 67968, Note_off_c, 2, 74, 67
4, 67968, Note_on_c, 2, 72, 67
4, 68032, Note_off_c, 2, 72, 67
4, 68032, Note_on_c, 2, 74, 67
4, 68032, Note_on_c, 2, 79, 67
4, 68064, Note_off_c, 2, 74, 67
4, 68064, Note_off_c, 2, 79, 67
4, 68096, Note_off_c, 2, 74, 67
4, 68096, Note_off_c, 2, 79, 67
4, 68096, Note_on_c, 2, 70, 67
4, 68096, Note_on_c, 2, 77, 67
4, 68160, Note_off_c, 2, 70, 67
4, 68160, Note_off_c, 2, 77, 67
4, 68224, Note_off_c, 2, 70, 67
4, 68224, Note_off_c, 2, 77, 67
4, 68224, Note_on_c, 2, 68, 67
4, 68224, Note_on_c, 2, 70, 67
4, 68288, Note_off_c, 2, 68, 67
4, 68288, Note_off_c, 2, 70, 67
4, 68352, Note_off_c, 2, 68, 67
4, 68352, Note_off_c, 2, 70, 67
4, 68352, Note_on_c, 2, 68, 67
4, 68352, Note_on_c, 2, 70, 67
4, 68416, Note_off_c, 2, 68, 67
4, 68416, Note_off_c, 2, 70, 67
4, 68480, Note_off_c, 2, 68, 67
4, 68480, Note_off_c, 2, 70, 67
4, 68480, Note_on_c, 2, 74, 67
4, 68544, Note_off_c, 2, 74, 67
4, 68544, Note_on_c, 2, 75, 67
4, 68608, Note_off_c, 2, 75, 67
4, 68608, Note_on_c, 2, 77, 67
4, 68736, Note_off_c, 2, 77, 67
4, 68736, Note_on_c, 2, 74, 67
4, 68736, Note_on_c, 2, 80, 67
4, 68800, Note_off_c, 2, 74, 67
4, 68800, Note_off_c, 2, 80, 67
4, 68864, Note_off_c, 2, 74, 67
4, 68864, Note_off_c, 2, 80, 67
4, 68864, Note_on_c, 2, 74, 67
4, 68864, Note_on_c, 2, 79, 67
4, 68928, Note_off_c, 2, 74, 67
4, 68928, Note_off_c, 2, 79, 67
4, 68992, Note_off_c, 2, 74, 67
4, 68992, Note_off_c, 2, 79, 67
4, 68992, Note_on_c, 2, 77, 67
4, 69056, Note_off_c, 2, 77, 67
4, 69120, Note_off_c, 2, 77, 67
4, 69120, Note_on_c, 2, 75, 67
4, 69184, Note_off_c, 2, 75, 67
4, 69248, Note_off_c, 2, 75, 67
4, 69248, Note_on_c, 2, 70, 67
4, 69248, Note_on_c, 2, 74, 67
4, 69312, Note_off_c, 2, 70, 67
4, 69312, Note_off_c, 2, 74, 67
4, 69376, Note_off_c, 2, 70, 67
4, 69376, Note_off_c, 2, 74, 67
4, 69376, Note_on_c, 2, 72, 67
4, 69376, Note_on_c, 2, 74, 67
4, 69440, Note_off_c, 2, 72, 67
4, 69440, Note_off_c, 2, 74, 67
4, 69504, Note_off_c, 2, 72, 67
4, 69504, Note_off_c, 2, 74, 67
4, 69504, Note_on_c, 2, 70, 67
4, 69504, Note_on_c, 2, 74, 67
4, 69568, Note_off_c, 2, 70, 67
4, 69568, Note_off_c, 2, 74, 67
4, 69632, Note_off_c, 2, 70, 67
4, 69632, Note_off_c, 2, 74, 67
4, 69632, Note_on_c, 2, 80, 67
4, 69632, Note_on_c, 2, 84, 67
4, 69888, Note_off_c, 2, 80, 67
4, 69888, Note_off_c, 2, 84, 67
4, 69888, Note_on_c, 2, 70, 67
4, 69888, Note_on_c, 2, 74, 67
4, 69904, Note_off_c, 2, 70, 67
4, 69904, Note_off_c, 2, 74, 67
4, 69920, Note_off_c, 2, 70, 67
4, 69920, Note_off_c, 2, 74, 67
4, 69920, Note_on_c, 2, 72, 67
4, 69920, Note_on_c, 2, 75, 67
4, 69936, Note_off_c, 2, 72, 67
4, 69936, Note_off_c, 2, 75, 67
4, 69952, Note_off_c, 2, 72, 67
4, 69952, Note_off_c, 2, 75, 67
4, 69952, Note_on_c, 2, 70, 67
4, 69952, Note_on_c, 2, 74, 67
4, 69984, Note_off_c, 2, 70, 67
4, 69984, Note_off_c, 2, 74, 67
4, 70016, Note_off_c, 2, 70, 67
4, 70016, Note_off_c, 2, 74, 67
4, 70016, Note_on_c, 2, 68, 67
4, 70016, Note_on_c, 2, 72, 67
4, 70048, Note_off_c, 2, 68, 67
4, 70048, Note_off_c, 2, 72, 67
4, 70080, Note_off_c, 2, 68, 67
4, 70080, Note_off_c, 2, 72, 67
4, 70080, Note_on_c, 2, 74, 67
4, 70080, Note_on_c, 2, 77, 67
4, 70112, Note_off_c, 2, 74, 67
4, 70112, Note_off_c, 2, 77, 67
4, 70144, Note_off_c, 2, 74, 67
4, 70144, Note_off_c, 2, 77, 67
4, 70144, Note_on_c, 2, 75, 67
4, 70144, Note_on_c, 2, 79, 67
4, 70272, Note_off_c, 2, 75, 67
4, 70272, Note_off_c, 2, 79, 67
4, 70272, Note_on_c, 2, 70, 67
4, 70336, Note_off_c, 2, 70, 67
4, 70400, Note_off_c, 2, 70, 67
4, 70400, Note_on_c, 2, 70, 67
4, 70464, Note_off_c, 2, 70, 67
4, 70528, Note_off_c, 2, 70, 67
4, 70528, Note_on_c, 2, 75, 67
4, 70528, Note_on_c, 2, 79, 67
4, 70592, Note_off_c, 2, 75, 67
4, 70592, Note_off_c, 2, 79, 67
4, 70592, Note_on_c, 2, 77, 67
4, 70592, Note_on_c, 2, 80, 67
4, 70656, Note_off_c, 2, 77, 67
4, 70656, Note_off_c, 2, 80, 67
4, 70656, Note_on_c, 2, 79, 67
4, 70656, Note_on_c, 2, 82, 67
4, 70720, Note_off_c, 2, 79, 67
4, 70720, Note_off_c, 2, 82, 67
4, 70784, Note_off_c, 2, 79, 67
4, 70784, Note_off_c, 2, 82, 67
4, 70784, Note_on_c, 2, 79, 67
4, 70784, Note_on_c, 2, 82, 67
4, 70848, Note_off_c, 2, 79, 67
4, 70848, Note_off_c, 2, 82, 67
4, 70912, Note_off_c, 2, 79, 67
4, 70912, Note_off_c, 2, 82, 67
4, 70912, Note_on_c, 2, 70, 67
4, 70912, Note_on_c, 2, 79, 67
4, 70976, Note_off_c, 2, 70, 67
4, 70976, Note_off_c, 2, 79, 67
4, 71040, Note_off_c, 2, 70, 67
4, 71040, Note_off_c, 2, 79, 67
4, 71040, Note_on_c, 2, 70, 67
4, 71040, Note_on_c, 2, 75, 67
4, 71104, Note_off_c, 2, 70, 67
4, 71104, Note_off_c, 2, 75, 67
4, 71168, Note_off_c, 2, 70, 67
4, 71168, Note_off_c, 2, 75, 67
4, 71168, Note_on_c, 2, 84, 67
4, 71168, Note_on_c, 2, 87, 67
4, 71232, Note_off_c, 2, 84, 67
4, 71232, Note_off_c, 2, 87, 67
4, 71296, Note_off_c, 2, 84, 67
4, 71296, Note_off_c, 2, 87, 67
4, 71296, Note_on_c, 2, 82, 67
4, 71296, Note_on_c, 2, 86, 67
4, 71360, Note_off_c, 2, 82, 67
4, 71360, Note_off_c, 2, 86, 67
4, 71424, Note_off_c, 2, 82, 67
4, 71424, Note_off_c, 2, 86, 67
4, 71424, Note_on_c, 2, 80, 67
4, 71424, Note_on_c, 2, 84, 67
4, 71488, Note_off_c, 2, 80, 67
4, 71488, Note_off_c, 2, 84, 67
4, 71552, Note_off_c, 2, 80, 67
4, 71552, Note_off_c, 2, 84, 67
4, 71552, Note_on_c, 2, 79, 67
4, 71552, Note_on_c, 2, 87, 67
4, 71616, Note_off_c, 2, 79, 67
4, 71616, Note_off_c, 2, 87, 67
4, 71680, Note_off_c, 2, 79, 67
4, 71680, Note_off_c, 2, 87, 67
4, 71680, Note_on_c, 2, 75, 67
4, 71680, Note_on_c, 2, 82, 67
4, 71744, Note_off_c, 2, 75, 67
4, 71744, Note_off_c, 2, 82, 67
4, 71808, Note_off_c, 2, 75, 67
4, 71808, Note_off_c, 2, 82, 67
4, 71808, Note_on_c, 2, 79, 67
4, 71872, Note_off_c, 2, 79, 67
4, 71936, Note_off_c, 2, 79, 67
4, 71936, Note_on_c, 2, 67, 67
4, 71936, Note_on_c, 2, 75, 67
4, 72000, Note_off_c, 2, 67, 67
4, 72000, Note_off_c, 2, 75, 67
4, 72064, Note_off_c, 2, 67, 67
4, 72064, Note_off_c, 2, 75, 67
4, 72064, Note_on_c, 2, 68, 67
4, 72064, Note_on_c, 2, 74, 67
4, 72096, Note_off_c, 2, 68, 67
4, 72096, Note_off_c, 2, 74, 67
4, 72128, Note_off_c, 2, 68, 67
4, 72128, Note_off_c, 2, 74, 67
4, 72128, Note_on_c, 2, 74, 67
4, 72128, Note_on_c, 2, 79, 67
4, 72160, Note_off_c, 2, 74, 67
4, 72160, Note_off_c, 2, 79, 67
4, 72192, Note_off_c, 2, 74, 67
4, 72192, Note_off_c, 2, 79, 67
4, 72192, Note_on_c, 2, 70, 67
4, 72192, Note_on_c, 2, 77, 67
4, 72256, Note_off_c, 2, 70, 67
4, 72256, Note_off_c, 2, 77, 67
4, 72320, Note_off_c, 2, 70, 67
4, 72320, Note_off_c, 2, 77, 67
4, 72320, Note_on_c, 2, 65, 67
4, 72320, Note_on_c, 2, 70, 67
4, 72384, Note_off_c, 2, 65, 67
4, 72384, Note_off_c, 2, 70, 67
4, 72448, Note_off_c, 2, 65, 67
4, 72448, Note_off_c, 2, 70, 67
4, 72448, Note_on_c, 2, 68, 67
4, 72448, Note_on_c, 2, 70, 67
4, 72512, Note_off_c, 2, 68, 67
4, 72512, Note_off_c, 2, 70, 67
4, 72576, Note_off_c, 2, 68, 67
4, 72576, Note_off_c, 2, 70, 67
4, 72576, Note_on_c, 2, 70, 67
4, 72576, Note_on_c, 2, 79, 67
4, 72640, Note_off_c, 2, 70, 67
4, 72640, Note_off_c, 2, 79, 67
4, 72640, Note_on_c, 2, 77, 67
4, 72640, Note_on_c, 2, 80, 67
4, 72704, Note_off_c, 2, 77, 67
4, 72704, Note_off_c, 2, 80, 67
4, 72704, Note_on_c, 2, 79, 67
4, 72704, Note_on_c, 2, 82, 67
4, 72768, Note_off_c, 2, 79, 67
4, 72768, Note_off_c, 2, 82, 67
4, 72832, Note_off_c, 2, 79, 67
4, 72832, Note_off_c, 2, 82, 67
4, 72832, Note_on_c, 2, 79, 67
4, 72832, Note_on_c, 2, 82, 67
4, 72896, Note_off_c, 2, 79, 67
4, 72896, Note_off_c, 2, 82, 67
4, 72960, Note_off_c, 2, 79, 67
4, 72960, Note_off_c, 2, 82, 67
4, 72960, Note_on_c, 2, 70, 67
4, 72960, Note_on_c, 2, 79, 67
4, 73024, Note_off_c, 2, 70, 67
4, 73024, Note_off_c, 2, 79, 67
4, 73088, Note_off_c, 2, 70, 67
4, 73088, Note_off_c, 2, 79, 67
4, 73088, Note_on_c, 2, 75, 67
4, 73088, Note_on_c, 2, 82, 67
4, 73152, Note_off_c, 2, 75, 67
4, 73152, Note_off_c, 2, 82, 67
4, 73216, Note_off_c, 2, 75, 67
4, 73216, Note_off_c, 2, 82, 67
4, 73216, Note_on_c, 2, 84, 67
4, 73216, Note_on_c, 2, 87, 67
4, 73280, Note_off_c, 2, 84, 67
4, 73280, Note_off_c, 2, 87, 67
4, 73344, Note_off_c, 2, 84, 67
4, 73344, Note_off_c, 2, 87, 67
4, 73344, Note_on_c, 2, 82, 67
4, 73344, Note_on_c, 2, 86, 67
4, 73408, Note_off_c, 2, 82, 67
4, 73408, Note_off_c, 2, 86, 67
4, 73472, Note_off_c, 2, 82, 67
4, 73472, Note_off_c, 2, 86, 67
4, 73472, Note_on_c, 2, 80, 67
4, 73472, Note_on_c, 2, 84, 67
4, 73536, Note_off_c, 2, 80, 67
4, 73536, Note_off_c, 2, 84, 67
4, 73600, Note_off_c, 2, 80, 67
4, 73600, Note_off_c, 2, 84, 67
4, 73600, Note_on_c, 2, 70, 67
4, 73600, Note_on_c, 2, 74, 67
4, 73632, Note_off_c, 2, 70, 67
4, 73632, Note_off_c, 2, 74, 67
4, 73664, Note_off_c, 2, 70, 67
4, 73664, Note_off_c, 2, 74, 67
4, 73664, Note_on_c, 2, 77, 67
4, 73664, Note_on_c, 2, 80, 67
4, 73696, Note_off_c, 2, 77, 67
4, 73696, Note_off_c, 2, 80, 67
4, 73728, Note_off_c, 2, 77, 67
4, 73728, Note_off_c, 2, 80, 67
4, 73728, Note_on_c, 2, 77, 67
4, 73728, Note_on_c, 2, 82, 67
4, 73792, Note_off_c, 2, 77, 67
4, 73792, Note_off_c, 2, 82, 67
4, 73856, Note_off_c, 2, 77, 67
4, 73856, Note_off_c, 2, 82, 67
4, 73856, Note_on_c, 2, 80, 67
4, 73856, Note_on_c, 2, 87, 67
4, 73920, Note_off_c, 2, 80, 67
4, 73920, Note_off_c, 2, 87, 67
4, 73984, Note_off_c, 2, 80, 67
4, 73984, Note_off_c, 2, 87, 67
4, 73984, Note_on_c, 2, 82, 67
4, 73984, Note_on_c, 2, 86, 67
4, 74048, Note_off_c, 2, 82, 67
4, 74048, Note_off_c, 2, 86, 67
4, 74112, Note_off_c, 2, 82, 67
4, 74112, Note_off_c, 2, 86, 67
4, 74112, Note_on_c, 2, 80, 67
4, 74112, Note_on_c, 2, 89, 67
4, 74176, Note_off_c, 2, 80, 67
4, 74176, Note_off_c, 2, 89, 67
4, 74240, Note_off_c, 2, 80, 67
4, 74240, Note_off_c, 2, 89, 67
4, 74240, Note_on_c, 2, 79, 67
4, 74240, Note_on_c, 2, 87, 67
4, 74304, Note_off_c, 2, 79, 67
4, 74304, Note_off_c, 2, 87, 67
4, 74368, Note_off_c, 2, 79, 67
4, 74368, Note_off_c, 2, 87, 67
4, 74368, Note_on_c, 2, 70, 67
4, 74368, Note_on_c, 2, 82, 67
4, 74432, Note_off_c, 2, 70, 67
4, 74432, Note_off_c, 2, 82, 67
4, 74496, Note_off_c, 2, 70, 67
4, 74496, Note_off_c, 2, 82, 67
4, 74496, Note_on_c, 2, 70, 67
4, 74496, Note_on_c, 2, 82, 67
4, 74560, Note_off_c, 2, 70, 67
4, 74560, Note_off_c, 2, 82, 67
4, 74624, Note_off_c, 2, 70, 67
4, 74624, Note_off_c, 2, 82, 67
4, 74624, Note_on_c, 2, 75, 67
4, 74688, Note_off_c, 2, 75, 67
4, 74688, Note_on_c, 2, 77, 67
4, 74752, Note_off_c, 2, 77, 67
4, 74752, Note_on_c, 2, 79, 67
4, 74816, Note_off_c, 2, 79, 67
4, 74880, Note_off_c, 2, 79, 67
4, 74880, Note_on_c, 2, 75, 67
4, 74880, Note_on_c, 2, 79, 67
4, 74944, Note_off_c, 2, 75, 67
4, 74944, Note_off_c, 2, 79, 67
4, 75008, Note_off_c, 2, 75, 67
4, 75008, Note_off_c, 2, 79, 67
4, 75008, Note_on_c, 2, 75, 67
4, 75008, Note_on_c, 2, 79, 67
4, 75072, Note_off_c, 2, 75, 67
4, 75072, Note_off_c, 2, 79, 67
4, 75136, Note_off_c, 2, 75, 67
4, 75136, Note_off_c, 2, 79, 67
4, 75136, Note_on_c, 2, 75, 67
4, 75200, Note_off_c, 2, 75, 67
4, 75200, Note_on_c, 2, 77, 67
4, 75264, Note_off_c, 2, 77, 67
4, 75264, Note_on_c, 2, 79, 67
4, 75328, Note_off_c, 2, 79, 67
4, 75392, Note_off_c, 2, 79, 67
4, 75392, Note_on_c, 2, 75, 67
4, 75392, Note_on_c, 2, 79, 67
4, 75456, Note_off_c, 2, 75, 67
4, 75456, Note_off_c, 2, 79, 67
4, 75520, Note_off_c, 2, 75, 67
4, 75520, Note_off_c, 2, 79, 67
4, 75520, Note_on_c, 2, 75, 67
4, 75520, Note_on_c, 2, 79, 67
4, 75584, Note_off_c, 2, 75, 67
4, 75584, Note_off_c, 2, 79, 67
4, 75648, Note_off_c, 2, 75, 67
4, 75648, Note_off_c, 2, 79, 67
4, 75648, Note_on_c, 2, 75, 67
4, 75712, Note_off_c, 2, 75, 67
4, 75712, Note_on_c, 2, 77, 67
4, 75776, Note_off_c, 2, 77, 67
4, 75776, Note_on_c, 2, 79, 67
4, 75840, Note_off_c, 2, 79, 67
4, 75904, Note_off_c, 2, 79, 67
4, 75904, Note_on_c, 2, 75, 67
4, 75904, Note_on_c, 2, 79, 67
4, 75968, Note_off_c, 2, 75, 67
4, 75968, Note_off_c, 2, 79, 67
4, 76032, Note_off_c, 2, 75, 67
4, 76032, Note_off_c, 2, 79, 67
4, 76032, Note_on_c, 2, 75, 67
4, 76032, Note_on_c, 2, 80, 67
4, 76064, Note_off_c, 2, 75, 67
4, 76064, Note_off_c, 2, 80, 67
4, 76096, Note_off_c, 2, 75, 67
4, 76096, Note_off_c, 2, 80, 67
4, 76096, Note_on_c, 2, 74, 67
4, 76128, Note_off_c, 2, 74, 67
4, 76160, Note_off_c, 2, 74, 67
4, 76160, Note_on_c, 2, 72, 67
4, 76192, Note_off_c, 2, 72, 67
4, 76224, Note_off_c, 2, 72, 67
4, 76224, Note_on_c, 2, 74, 67
4, 76224, Note_on_c, 2, 79, 67
4, 76256, Note_off_c, 2, 74, 67
4, 76256, Note_off_c, 2, 79, 67
4, 76288, Note_off_c, 2, 74, 67
4, 76288, Note_off_c, 2, 79, 67
4, 76288, Note_on_c, 2, 70, 67
4, 76288, Note_on_c, 2, 77, 67
4, 76352, Note_off_c, 2, 70, 67
4, 76352, Note_off_c, 2, 77, 67
4, 76416, Note_off_c, 2, 70, 67
4, 76416, Note_off_c, 2, 77, 67
4, 76416, Note_on_c, 2, 68, 67
4, 76416, Note_on_c, 2, 70, 67
4, 76480, Note_off_c, 2, 68, 67
4, 76480, Note_off_c, 2, 70, 67
4, 76544, Note_off_c, 2, 68, 67
4, 76544, Note_off_c, 2, 70, 67
4, 76544, Note_on_c, 2, 68, 67
4, 76544, Note_on_c, 2, 70, 67
4, 76608, Note_off_c, 2, 68, 67
4, 76608, Note_off_c, 2, 70, 67
4, 76672, Note_off_c, 2, 68, 67
4, 76672, Note_off_c, 2, 70, 67
4, 76672, Note_on_c, 2, 74, 67
4, 76736, Note_off_c, 2, 74, 67
4, 76736, Note_on_c, 2, 75, 67
4, 76800, Note_off_c, 2, 75, 67
4, 76800, Note_on_c, 2, 77, 67
4, 76864, Note_off_c, 2, 77, 67
4, 76928, Note_off_c, 2, 77, 67
4, 76928, Note_on_c, 2, 74, 67
4, 76928, Note_on_c, 2, 77, 67
4, 76992, Note_off_c, 2, 74, 67
4, 76992, Note_off_c, 2, 77, 67
4, 77056, Note_off_c, 2, 74, 67
4, 77056, Note_off_c, 2, 77, 67
4, 77056, Note_on_c, 2, 74, 67
4, 77056, Note_on_c, 2, 77, 67
4, 77120, Note_off_c, 2, 74, 67
4, 77120, Note_off_c, 2, 77, 67
4, 77184, Note_off_c, 2, 74, 67
4, 77184, Note_off_c, 2, 77, 67
4, 77184, Note_on_c, 2, 74, 67
4, 77248, Note_off_c, 2, 74, 67
4, 77248, Note_on_c, 2, 75, 67
4, 77312, Note_off_c, 2, 75, 67
4, 77312, Note_on_c, 2, 77, 67
4, 77376, Note_off_c, 2, 77, 67
4, 77440, Note_off_c, 2, 77, 67
4, 77440, Note_on_c, 2, 74, 67
4, 77440, Note_on_c, 2, 77, 67
4, 77504, Note_off_c, 2, 74, 67
4, 77504, Note_off_c, 2, 77, 67
4, 77568, Note_off_c, 2, 74, 67
4, 77568, Note_off_c, 2, 77, 67
4, 77568, Note_on_c, 2, 74, 67
4, 77568, Note_on_c, 2, 77, 67
4, 77632, Note_off_c, 2, 74, 67
4, 77632, Note_off_c, 2, 77, 67
4, 77696, Note_off_c, 2, 74, 67
4, 77696, Note_off_c, 2, 77, 67
4, 77696, Note_on_c, 2, 74, 67
4, 77760, Note_off_c, 2, 74, 67
4, 77760, Note_on_c, 2, 75, 67
4, 77824, Note_off_c, 2, 75, 67
4, 77824, Note_on_c, 2, 70, 67
4, 77824, Note_on_c, 2, 77, 67
4, 77888, Note_off_c, 2, 70, 67
4, 77888, Note_off_c, 2, 77, 67
4, 77952, Note_off_c, 2, 70, 67
4, 77952, Note_off_c, 2, 77, 67
4, 77952, Note_on_c, 2, 74, 67
4, 77952, Note_on_c, 2, 77, 67
4, 78016, Note_off_c, 2, 74, 67
4, 78016, Note_off_c, 2, 77, 67
4, 78080, Note_off_c, 2, 74, 67
4, 78080, Note_off_c, 2, 77, 67
4, 78080, Note_on_c, 2, 74, 67
4, 78080, Note_on_c, 2, 79, 67
4, 78112, Note_off_c, 2, 74, 67
4, 78112, Note_off_c, 2, 79, 67
4, 78144, Note_off_c, 2, 74, 67
4, 78144, Note_off_c, 2, 79, 67
4, 78144, Note_on_c, 2, 72, 67
4, 78144, Note_on_c, 2, 77, 67
4, 78176, Note_off_c, 2, 72, 67
4, 78176, Note_off_c, 2, 77, 67
4, 78208, Note_off_c, 2, 72, 67
4, 78208, Note_off_c, 2, 77, 67
4, 78208, Note_on_c, 2, 70, 67
4, 78208, Note_on_c, 2, 77, 67
4, 78240, Note_off_c, 2, 70, 67
4, 78240, Note_off_c, 2, 77, 67
4, 78272, Note_off_c, 2, 70, 67
4, 78272, Note_off_c, 2, 77, 67
4, 78272, Note_on_c, 2, 68, 67
4, 78272, Note_on_c, 2, 79, 67
4, 78304, Note_off_c, 2, 68, 67
4, 78304, Note_off_c, 2, 79, 67
4, 78336, Note_off_c, 2, 68, 67
4, 78336, Note_off_c, 2, 79, 67
4, 78336, Note_on_c, 2, 67, 67
4, 78336, Note_on_c, 2, 75, 67
4, 78400, Note_off_c, 2, 67, 67
4, 78400, Note_off_c, 2, 75, 67
4, 78464, Note_off_c, 2, 67, 67
4, 78464, Note_off_c, 2, 75, 67
4, 78464, Note_on_c, 2, 70, 67
4, 78528, Note_off_c, 2, 70, 67
4, 78592, Note_off_c, 2, 70, 67
4, 78592, Note_on_c, 2, 70, 67
4, 78592, Note_on_c, 2, 79, 67
4, 78656, Note_off_c, 2, 70, 67
4, 78656, Note_off_c, 2, 79, 67
4, 78720, Note_off_c, 2, 70, 67
4, 78720, Note_off_c, 2, 79, 67
4, 78720, Note_on_c, 2, 75, 67
4, 78784, Note_off_c, 2, 75, 67
4, 78784, Note_on_c, 2, 77, 67
4, 78848, Note_off_c, 2, 77, 67
4, 78848, Note_on_c, 2, 79, 67
4, 78912, Note_off_c, 2, 79, 67
4, 78976, Note_off_c, 2, 79, 67
4, 78976, Note_on_c, 2, 75, 67
4, 78976, Note_on_c, 2, 79, 67
4, 79040, Note_off_c, 2, 75, 67
4, 79040, Note_off_c, 2, 79, 67
4, 79104, Note_off_c, 2, 75, 67
4, 79104, Note_off_c, 2, 79, 67
4, 79104, Note_on_c, 2, 75, 67
4, 79104, Note_on_c, 2, 79, 67
4, 79168, Note_off_c, 2, 75, 67
4, 79168, Note_off_c, 2, 79, 67
4, 79232, Note_off_c, 2, 75, 67
4, 79232, Note_off_c, 2, 79, 67
4, 79232, Note_on_c, 2, 75, 67
4, 79296, Note_off_c, 2, 75, 67
4, 79296, Note_on_c, 2, 77, 67
4, 79360, Note_off_c, 2, 77, 67
4, 79360, Note_on_c, 2, 79, 67
4, 79424, Note_off_c, 2, 79, 67
4, 79488, Note_off_c, 2, 79, 67
4, 79488, Note_on_c, 2, 75, 67
4, 79488, Note_on_c, 2, 79, 67
4, 79552, Note_off_c, 2, 75, 67
4, 79552, Note_off_c, 2, 79, 67
4, 79616, Note_off_c, 2, 75, 67
4, 79616, Note_off_c, 2, 79, 67
4, 79616, Note_on_c, 2, 75, 67
4, 79616, Note_on_c, 2, 79, 67
4, 79680, Note_off_c, 2, 75, 67
4, 79680, Note_off_c, 2, 79, 67
4, 79744, Note_off_c, 2, 75, 67
4, 79744, Note_off_c, 2, 79, 67
4, 79744, Note_on_c, 2, 75, 67
4, 79808, Note_off_c, 2, 75, 67
4, 79808, Note_on_c, 2, 77, 67
4, 79872, Note_off_c, 2, 77, 67
4, 79872, Note_on_c, 2, 79, 67
4, 79936, Note_off_c, 2, 79, 67
4, 80000, Note_off_c, 2, 79, 67
4, 80000, Note_on_c, 2, 75, 67
4, 80000, Note_on_c, 2, 79, 67
4, 80064, Note_off_c, 2, 75, 67
4, 80064, Note_off_c, 2, 79, 67
4, 80128, Note_off_c, 2, 75, 67
4, 80128, Note_off_c, 2, 79, 67
4, 80128, Note_on_c, 2, 75, 67
4, 80128, Note_on_c, 2, 80, 67
4, 80160, Note_off_c, 2, 75, 67
4, 80160, Note_off_c, 2, 80, 67
4, 80192, Note_off_c, 2, 75, 67
4, 80192, Note_off_c, 2, 80, 67
4, 80192, Note_on_c, 2, 74, 67
4, 80256, Note_off_c, 2, 74, 67
4, 80256, Note_on_c, 2, 72, 67
4, 80320, Note_off_c, 2, 72, 67
4, 80320, Note_on_c, 2, 74, 67
4, 80320, Note_on_c, 2, 79, 67
4, 80352, Note_off_c, 2, 74, 67
4, 80352, Note_off_c, 2, 79, 67
4, 80384, Note_off_c, 2, 74, 67
4, 80384, Note_off_c, 2, 79, 67
4, 80384, Note_on_c, 2, 70, 67
4, 80384, Note_on_c, 2, 77, 67
4, 80448, Note_off_c, 2, 70, 67
4, 80448, Note_off_c, 2, 77, 67
4, 80512, Note_off_c, 2, 70, 67
4, 80512, Note_off_c, 2, 77, 67
4, 80512, Note_on_c, 2, 68, 67
4, 80512, Note_on_c, 2, 70, 67
4, 80576, Note_off_c, 2, 68, 67
4, 80576, Note_off_c, 2, 70, 67
4, 80640, Note_off_c, 2, 68, 67
4, 80640, Note_off_c, 2, 70, 67
4, 80640, Note_on_c, 2, 68, 67
4, 80640, Note_on_c, 2, 70, 67
4, 80704, Note_off_c, 2, 68, 67
4, 80704, Note_off_c, 2, 70, 67
4, 80768, Note_off_c, 2, 68, 67
4, 80768, Note_off_c, 2, 70, 67
4, 80768, Note_on_c, 2, 74, 67
4, 80832, Note_off_c, 2, 74, 67
4, 80832, Note_on_c, 2, 75, 67
4, 80896, Note_off_c, 2, 75, 67
4, 80896, Note_on_c, 2, 77, 67
4, 81024, Note_off_c, 2, 77, 67
4, 81024, Note_on_c, 2, 74, 67
4, 81024, Note_on_c, 2, 80, 67
4, 81088, Note_off_c, 2, 74, 67
4, 81088, Note_off_c, 2, 80, 67
4, 81152, Note_off_c, 2, 74, 67
4, 81152, Note_off_c, 2, 80, 67
4, 81152, Note_on_c, 2, 74, 67
4, 81152, Note_on_c, 2, 79, 67
4, 81216, Note_off_c, 2, 74, 67
4, 81216, Note_off_c, 2, 79, 67
4, 81280, Note_off_c, 2, 74, 67
4, 81280, Note_off_c, 2, 79, 67
4, 81280, Note_on_c, 2, 77, 67
4, 81344, Note_off_c, 2, 77, 67
4, 81408, Note_off_c, 2, 77, 67
4, 81408, Note_on_c, 2, 75, 67
4, 81472, Note_off_c, 2, 75, 67
4, 81536, Note_off_c, 2, 75, 67
4, 81536, Note_on_c, 2, 70, 67
4, 81536, Note_on_c, 2, 74, 67
4, 81600, Note_off_c, 2, 70, 67
4, 81600, Note_off_c, 2, 74, 67
4, 81664, Note_off_c, 2, 70, 67
4, 81664, Note_off_c, 2, 74, 67
4, 81664, Note_on_c, 2, 72, 67
4, 81664, Note_on_c, 2, 74, 67
4, 81728, Note_off_c, 2, 72, 67
4, 81728, Note_off_c, 2, 74, 67
4, 81792, Note_off_c, 2, 72, 67
4, 81792, Note_off_c, 2, 74, 67
4, 81792, Note_on_c, 2, 70, 67
4, 81792, Note_on_c, 2, 74, 67
4, 81856, Note_off_c, 2, 70, 67
4, 81856, Note_off_c, 2, 74, 67
4, 81920, Note_off_c, 2, 70, 67
4, 81920, Note_off_c, 2, 74, 67
4, 81920, Note_on_c, 2, 80, 67
4, 81920, Note_on_c, 2, 84, 67
4, 82176, Note_off_c, 2, 80, 67
4, 82176, Note_off_c, 2, 84, 67
4, 82176, Note_on_c, 2, 70, 67
4, 82176, Note_on_c, 2, 74, 67
4, 82192, Note_off_c, 2, 70, 67
4, 82192, Note_off_c, 2, 74, 67
4, 82208, Note_off_c, 2, 70, 67
4, 82208, Note_off_c, 2, 74, 67
4, 82208, Note_on_c, 2, 72, 67
4, 82208, Note_on_c, 2, 75, 67
4, 82224, Note_off_c, 2, 72, 67
4, 82224, Note_off_c, 2, 75, 67
4, 82240, Note_off_c, 2, 72, 67
4, 82240, Note_off_c, 2, 75, 67
4, 82240, Note_on_c, 2, 70, 67
4, 82240, Note_on_c, 2, 74, 67
4, 82272, Note_off_c, 2, 70, 67
4, 82272, Note_off_c, 2, 74, 67
4, 82304, Note_off_c, 2, 70, 67
4, 82304, Note_off_c, 2, 74, 67
4, 82304, Note_on_c, 2, 68, 67
4, 82304, Note_on_c, 2, 72, 67
4, 82336, Note_off_c, 2, 68, 67
4, 82336, Note_off_c, 2, 72, 67
4, 82368, Note_off_c, 2, 68, 67
4, 82368, Note_off_c, 2, 72, 67
4, 82368, Note_on_c, 2, 74, 67
4, 82368, Note_on_c, 2, 77, 67
4, 82400, Note_off_c, 2, 74, 67
4, 82400, Note_off_c, 2, 77, 67
4, 82432, Note_off_c, 2, 74, 67
4, 82432, Note_off_c, 2, 77, 67
4, 82432, Note_on_c, 2, 75, 67
4, 82432, Note_on_c, 2, 79, 67
4, 82560, Note_off_c, 2, 75, 67
4, 82560, Note_off_c, 2, 79, 67
4, 82560, Note_on_c, 2, 70, 67
4, 82624, Note_off_c, 2, 70, 67
4, 82688, Note_off_c, 2, 70, 67
4, 82688, Note_on_c, 2, 70, 67
4, 82752, Note_off_c, 2, 70, 67
4, 82816, Note_off_c, 2, 70, 67
4, 82816, Note_on_c, 2, 75, 67
4, 82816, Note_on_c, 2, 79, 67
4, 82880, Note_off_c, 2, 75, 67
4, 82880, Note_off_c, 2, 79, 67
4, 82880, Note_on_c, 2, 77, 67
4, 82880, Note_on_c, 2, 80, 67
4, 82944, Note_off_c, 2, 77, 67
4, 82944, Note_off_c, 2, 80, 67
4, 82944, Note_on_c, 2, 79, 67
4, 82944, Note_on_c, 2, 82, 67
4, 83008, Note_off_c, 2, 79, 67
4, 83008, Note_off_c, 2, 82, 67
4, 83072, Note_off_c, 2, 79, 67
4, 83072, Note_off_c, 2, 82, 67
4, 83072, Note_on_c, 2, 79, 67
4, 83072, Note_on_c, 2, 82, 67
4, 83136, Note_off_c, 2, 79, 67
4, 83136, Note_off_c, 2, 82, 67
4, 83200, Note_off_c, 2, 79, 67
4, 83200, Note_off_c, 2, 82, 67
4, 83200, Note_on_c, 2, 70, 67
4, 83200, Note_on_c, 2, 79, 67
4, 83264, Note_off_c, 2, 70, 67
4, 83264, Note_off_c, 2, 79, 67
4, 83328, Note_off_c, 2, 70, 67
4, 83328, Note_off_c, 2, 79, 67
4, 83328, Note_on_c, 2, 70, 67
4, 83328, Note_on_c, 2, 75, 67
4, 83392, Note_off_c, 2, 70, 67
4, 83392, Note_off_c, 2, 75, 67
4, 83456, Note_off_c, 2, 70, 67
4, 83456, Note_off_c, 2, 75, 67
4, 83456, Note_on_c, 2, 84, 67
4, 83456, Note_on_c, 2, 87, 67
4, 83520, Note_off_c, 2, 84, 67
4, 83520, Note_off_c, 2, 87, 67
4, 83584, Note_off_c, 2, 84, 67
4, 83584, Note_off_c, 2, 87, 67
4, 83584, Note_on_c, 2, 82, 67
4, 83584, Note_on_c, 2, 86, 67
4, 83648, Note_off_c, 2, 82, 67
4, 83648, Note_off_c, 2, 86, 67
4, 83712, Note_off_c, 2, 82, 67
4, 83712, Note_off_c, 2, 86, 67
4, 83712, Note_on_c, 2, 80, 67
4, 83712, Note_on_c, 2, 84, 67
4, 83776, Note_off_c, 2, 80, 67
4, 83776, Note_off_c, 2, 84, 67
4, 83840, Note_off_c, 2, 80, 67
4, 83840, Note_off_c, 2, 84, 67
4, 83840, Note_on_c, 2, 79, 67
4, 83840, Note_on_c, 2, 87, 67
4, 83904, Note_off_c, 2, 79, 67
4, 83904, Note_off_c, 2, 87, 67
4, 83968, Note_off_c, 2, 79, 67
4, 83968, Note_off_c, 2, 87, 67
4, 83968, Note_on_c, 2, 75, 67
4, 83968, Note_on_c, 2, 82, 67
4, 84032, Note_off_c, 2, 75, 67
4, 84032, Note_off_c, 2, 82, 67
4, 84096, Note_off_c, 2, 75, 67
4, 84096, Note_off_c, 2, 82, 67
4, 84096, Note_on_c, 2, 79, 67
4, 84160, Note_off_c, 2, 79, 67
4, 84224, Note_off_c, 2, 79, 67
4, 84224, Note_on_c, 2, 67, 67
4, 84224, Note_on_c, 2, 75, 67
4, 84288, Note_off_c, 2, 67, 67
4, 84288, Note_off_c, 2, 75, 67
4, 84352, Note_off_c, 2, 67, 67
4, 84352, Note_off_c, 2, 75, 67
4, 84352, Note_on_c, 2, 68, 67
4, 84352, Note_on_c, 2, 74, 67
4, 84384, Note_off_c, 2, 68, 67
4, 84384, Note_off_c, 2, 74, 67
4, 84416, Note_off_c, 2, 68, 67
4, 84416, Note_off_c, 2, 74, 67
4, 84416, Note_on_c, 2, 74, 67
4, 84416, Note_on_c, 2, 79, 67
4, 84448, Note_off_c, 2, 74, 67
4, 84448, Note_off_c, 2, 79, 67
4, 84480, Note_off_c, 2, 74, 67
4, 84480, Note_off_c, 2, 79, 67
4, 84480, Note_on_c, 2, 70, 67
4, 84480, Note_on_c, 2, 77, 67
4, 84544, Note_off_c, 2, 70, 67
4, 84544, Note_off_c, 2, 77, 67
4, 84608, Note_off_c, 2, 70, 67
4, 84608, Note_off_c, 2, 77, 67
4, 84608, Note_on_c, 2, 65, 67
4, 84608, Note_on_c, 2, 70, 67
4, 84672, Note_off_c, 2, 65, 67
4, 84672, Note_off_c, 2, 70, 67
4, 84736, Note_off_c, 2, 65, 67
4, 84736, Note_off_c, 2, 70, 67
4, 84736, Note_on_c, 2, 68, 67
4, 84736, Note_on_c, 2, 70, 67
4, 84800, Note_off_c, 2, 68, 67
4, 84800, Note_off_c, 2, 70, 67
4, 84864, Note_off_c, 2, 68, 67
4, 84864, Note_off_c, 2, 70, 67
4, 84864, Note_on_c, 2, 70, 67
4, 84864, Note_on_c, 2, 79, 67
4, 84928, Note_off_c, 2, 70, 67
4, 84928, Note_off_c, 2, 79, 67
4, 84928, Note_on_c, 2, 77, 67
4, 84928, Note_on_c, 2, 80, 67
4, 84992, Note_off_c, 2, 77, 67
4, 84992, Note_off_c, 2, 80, 67
4, 84992, Note_on_c, 2, 79, 67
4, 84992, Note_on_c, 2, 82, 67
4, 85056, Note_off_c, 2, 79, 67
4, 85056, Note_off_c, 2, 82, 67
4, 85120, Note_off_c, 2, 79, 67
4, 85120, Note_off_c, 2, 82, 67
4, 85120, Note_on_c, 2, 79, 67
4, 85120, Note_on_c, 2, 82, 67
4, 85184, Note_off_c, 2, 79, 67
4, 85184, Note_off_c, 2, 82, 67
4, 85248, Note_off_c, 2, 79, 67
4, 85248, Note_off_c, 2, 82, 67
4, 85248, Note_on_c, 2, 70, 67
4, 85248, Note_on_c, 2, 79, 67
4, 85312, Note_off_c, 2, 70, 67
4, 85312, Note_off_c, 2, 79, 67
4, 85376, Note_off_c, 2, 70, 67
4, 85376, Note_off_c, 2, 79, 67
4, 85376, Note_on_c, 2, 75, 67
4, 85376, Note_on_c, 2, 82, 67
4, 85440, Note_off_c, 2, 75, 67
4, 85440, Note_off_c, 2, 82, 67
4, 85504, Note_off_c, 2, 75, 67
4, 85504, Note_off_c, 2, 82, 67
4, 85504, Note_on_c, 2, 84, 67
4, 85504, Note_on_c, 2, 87, 67
4, 85568, Note_off_c, 2, 84, 67
4, 85568, Note_off_c, 2, 87, 67
4, 85632, Note_off_c, 2, 84, 67
4, 85632, Note_off_c, 2, 87, 67
4, 85632, Note_on_c, 2, 82, 67
4, 85632, Note_on_c, 2, 86, 67
4, 85696, Note_off_c, 2, 82, 67
4, 85696, Note_off_c, 2, 86, 67
4, 85760, Note_off_c, 2, 82, 67
4, 85760, Note_off_c, 2, 86, 67
4, 85760, Note_on_c, 2, 80, 67
4, 85760, Note_on_c, 2, 84, 67
4, 85824, Note_off_c, 2, 80, 67
4, 85824, Note_off_c, 2, 84, 67
4, 85888, Note_off_c, 2, 80, 67
4, 85888, Note_off_c, 2, 84, 67
4, 85888, Note_on_c, 2, 70, 67
4, 85888, Note_on_c, 2, 74, 67
4, 85920, Note_off_c, 2, 70, 67
4, 85920, Note_off_c, 2, 74, 67
4, 85952, Note_off_c, 2, 70, 67
4, 85952, Note_off_c, 2, 74, 67
4, 85952, Note_on_c, 2, 77, 67
4, 85952, Note_on_c, 2, 80, 67
4, 85984, Note_off_c, 2, 77, 67
4, 85984, Note_off_c, 2, 80, 67
4, 86016, Note_off_c, 2, 77, 67
4, 86016, Note_off_c, 2, 80, 67
4, 86016, Note_on_c, 2, 77, 67
4, 86016, Note_on_c, 2, 82, 67
4, 86080, Note_off_c, 2, 77, 67
4, 86080, Note_off_c, 2, 82, 67
4, 86144, Note_off_c, 2, 77, 67
4, 86144, Note_off_c, 2, 82, 67
4, 86144, Note_on_c, 2, 80, 67
4, 86144, Note_on_c, 2, 87, 67
4, 86208, Note_off_c, 2, 80, 67
4, 86208, Note_off_c, 2, 87, 67
4, 86272, Note_off_c, 2, 80, 67
4, 86272, Note_off_c, 2, 87, 67
4, 86272, Note_on_c, 2, 82, 67
4, 86272, Note_on_c, 2, 86, 67
4, 86336, Note_off_c, 2, 82, 67
4, 86336, Note_off_c, 2, 86, 67
4, 86400, Note_off_c, 2, 82, 67
4, 86400, Note_off_c, 2, 86, 67
4, 86400, Note_on_c, 2, 80, 67
4, 86400, Note_on_c, 2, 89, 67
4, 86464, Note_off_c, 2, 80, 67
4, 86464, Note_off_c, 2, 89, 67
4, 86528, Note_off_c, 2, 80, 67
4, 86528, Note_off_c, 2, 89, 67
4, 86528, Note_on_c, 2, 79, 67
4, 86528, Note_on_c, 2, 87, 67
4, 86592, Note_off_c, 2, 79, 67
4, 86592, Note_off_c, 2, 87, 67
4, 86656, Note_off_c, 2, 79, 67
4, 86656, Note_off_c, 2, 87, 67
4, 86656, Note_on_c, 2, 70, 67
4, 86656, Note_on_c, 2, 82, 67
4, 86720, Note_off_c, 2, 70, 67
4, 86720, Note_off_c, 2, 82, 67
4, 86784, Note_off_c, 2, 70, 67
4, 86784, Note_off_c, 2, 82, 67
4, 86784, Note_on_c, 2, 70, 67
4, 86784, Note_on_c, 2, 82, 67
4, 86848, Note_off_c, 2, 70, 67
4, 86848, Note_off_c, 2, 82, 67
4, 86912, Note_off_c, 2, 70, 67
4, 86912, Note_off_c, 2, 82, 67
4, 86912, Note_on_c, 2, 75, 67
4, 86976, Note_off_c, 2, 75, 67
4, 86976, Note_on_c, 2, 77, 67
4, 87040, Note_off_c, 2, 77, 67
4, 87040, Note_on_c, 2, 79, 67
4, 87104, Note_off_c, 2, 79, 67
4, 87168, Note_off_c, 2, 79, 67
4, 87168, Note_on_c, 2, 75, 67
4, 87168, Note_on_c, 2, 79, 67
4, 87232, Note_off_c, 2, 75, 67
4, 87232, Note_off_c, 2, 79, 67
4, 87296, Note_off_c, 2, 75, 67
4, 87296, Note_off_c, 2, 79, 67
4, 87296, Note_on_c, 2, 75, 67
4, 87296, Note_on_c, 2, 79, 67
4, 87360, Note_off_c, 2, 75, 67
4, 87360, Note_off_c, 2, 79, 67
4, 87424, Note_off_c, 2, 75, 67
4, 87424, Note_off_c, 2, 79, 67
4, 87424, Note_on_c, 2, 75, 67
4, 87488, Note_off_c, 2, 75, 67
4, 87488, Note_on_c, 2, 77, 67
4, 87552, Note_off_c, 2, 77, 67
4, 87552, Note_on_c, 2, 79, 67
4, 87616, Note_off_c, 2, 79, 67
4, 87680, Note_off_c, 2, 79, 67
4, 87680, Note_on_c, 2, 75, 67
4, 87680, Note_on_c, 2, 79, 67
4, 87744, Note_off_c, 2, 75, 67
4, 87744, Note_off_c, 2, 79, 67
4, 87808, Note_off_c, 2, 75, 67
4, 87808, Note_off_c, 2, 79, 67
4, 87808, Note_on_c, 2, 75, 67
4, 87808, Note_on_c, 2, 79, 67
4, 87872, Note_off_c, 2, 75, 67
4, 87872, Note_off_c, 2, 79, 67
4, 87936, Note_off_c, 2, 75, 67
4, 87936, Note_off_c, 2, 79, 67
4, 87936, Note_on_c, 2, 75, 67
4, 88000, Note_off_c, 2, 75, 67
4, 88000, Note_on_c, 2, 77, 67
4, 88064, Note_off_c, 2, 77, 67
4, 88064, Note_on_c, 2, 79, 67
4, 88128, Note_off_c, 2, 79, 67
4, 88192, Note_off_c, 2, 79, 67
4, 88192, Note_on_c, 2, 75, 67
4, 88192, Note_on_c, 2, 79, 67
4, 88256, Note_off_c, 2, 75, 67
4, 88256, Note_off_c, 2, 79, 67
4, 88320, Note_off_c, 2, 75, 67
4, 88320, Note_off_c, 2, 79, 67
4, 88320, Note_on_c, 2, 75, 67
4, 88320, Note_on_c, 2, 80, 67
4, 88352, Note_off_c, 2, 75, 67
4, 88352, Note_off_c, 2, 80, 67
4, 88384, Note_off_c, 2, 75, 67
4, 88384, Note_off_c, 2, 80, 67
4, 88384, Note_on_c, 2, 74, 67
4, 88416, Note_off_c, 2, 74, 67
4, 88448, Note_off_c, 2, 74, 67
4, 88448, Note_on_c, 2, 72, 67
4, 88480, Note_off_c, 2, 72, 67
4, 88512, Note_off_c, 2, 72, 67
4, 88512, Note_on_c, 2, 74, 67
4, 88512, Note_on_c, 2, 79, 67
4, 88544, Note_off_c, 2, 74, 67
4, 88544, Note_off_c, 2, 79, 67
4, 88576, Note_off_c, 2, 74, 67
4, 88576, Note_off_c, 2, 79, 67
4, 88576, Note_on_c, 2, 70, 67
4, 88576, Note_on_c, 2, 77, 67
4, 88640, Note_off_c, 2, 70, 67
4, 88640, Note_off_c, 2, 77, 67
4, 88704, Note_off_c, 2, 70, 67
4, 88704, Note_off_c, 2, 77, 67
4, 88704, Note_on_c, 2, 68, 67
4, 88704, Note_on_c, 2, 70, 67
4, 88768, Note_off_c, 2, 68, 67
4, 88768, Note_off_c, 2, 70, 67
4, 88832, Note_off_c, 2, 68, 67
4, 88832, Note_off_c, 2, 70, 67
4, 88832, Note_on_c, 2, 68, 67
4, 88832, Note_on_c, 2, 70, 67
4, 88896, Note_off_c, 2, 68, 67
4, 88896, Note_off_c, 2, 70, 67
4, 88960, Note_off_c, 2, 68, 67
4, 88960, Note_off_c, 2, 70, 67
4, 88960, Note_on_c, 2, 74, 67
4, 89024, Note_off_c, 2, 74, 67
4, 89024, Note_on_c, 2, 75, 67
4, 89088, Note_off_c, 2, 75, 67
4, 89088, Note_on_c, 2, 77, 67
4, 89152, Note_off_c, 2, 77, 67
4, 89216, Note_off_c, 2, 77, 67
4, 89216, Note_on_c, 2, 74, 67
4, 89216, Note_on_c, 2, 77, 67
4, 89280, Note_off_c, 2, 74, 67
4, 89280, Note_off_c, 2, 77, 67
4, 89344, Note_off_c, 2, 74, 67
4, 89344, Note_off_c, 2, 77, 67
4, 89344, Note_on_c, 2, 74, 67
4, 89344, Note_on_c, 2, 77, 67
4, 89408, Note_off_c, 2, 74, 67
4, 89408, Note_off_c, 2, 77, 67
4, 89472, Note_off_c, 2, 74, 67
4, 89472, Note_off_c, 2, 77, 67
4, 89472, Note_on_c, 2, 74, 67
4, 89536, Note_off_c, 2, 74, 67
4, 89536, Note_on_c, 2, 75, 67
4, 89600, Note_off_c, 2, 75, 67
4, 89600, Note_on_c, 2, 77, 67
4, 89664, Note_off_c, 2, 77, 67
4, 89728, Note_off_c, 2, 77, 67
4, 89728, Note_on_c, 2, 74, 67
4, 89728, Note_on_c, 2, 77, 67
4, 89792, Note_off_c, 2, 74, 67
4, 89792, Note_off_c, 2, 77, 67
4, 89856, Note_off_c, 2, 74, 67
4, 89856, Note_off_c, 2, 77, 67
4, 89856, Note_on_c, 2, 74, 67
4, 89856, Note_on_c, 2, 77, 67
4, 89920, Note_off_c, 2, 74, 67
4, 89920, Note_off_c, 2, 77, 67
4, 89984, Note_off_c, 2, 74, 67
4, 89984, Note_off_c, 2, 77, 67
4, 89984, Note_on_c, 2, 74, 67
4, 90048, Note_off_c, 2, 74, 67
4, 90048, Note_on_c, 2, 75, 67
4, 90112, Note_off_c, 2, 75, 67
4, 90112, Note_on_c, 2, 70, 67
4, 90112, Note_on_c, 2, 77, 67
4, 90176, Note_off_c, 2, 70, 67
4, 90176, Note_off_c, 2, 77, 67
4, 90240, Note_off_c, 2, 70, 67
4, 90240, Note_off_c, 2, 77, 67
4, 90240, Note_on_c, 2, 74, 67
4, 90240, Note_on_c, 2, 77, 67
4, 90304, Note_off_c, 2, 74, 67
4, 90304, Note_off_c, 2, 77, 67
4, 90368, Note_off_c, 2, 74, 67
4, 90368, Note_off_c, 2, 77, 67
4, 90368, Note_on_c, 2, 74, 67
4, 90368, Note_on_c, 2, 79, 67
4, 90400, Note_off_c, 2, 74, 67
4, 90400, Note_off_c, 2, 79, 67
4, 90432, Note_off_c, 2, 74, 67
4, 90432, Note_off_c, 2, 79, 67
4, 90432, Note_on_c, 2, 72, 67
4, 90432, Note_on_c, 2, 77, 67
4, 90464, Note_off_c, 2, 72, 67
4, 90464, Note_off_c, 2, 77, 67
4, 90496, Note_off_c, 2, 72, 67
4, 90496, Note_off_c, 2, 77, 67
4, 90496, Note_on_c, 2, 70, 67
4, 90496, Note_on_c, 2, 77, 67
4, 90528, Note_off_c, 2, 70, 67
4, 90528, Note_off_c, 2, 77, 67
4, 90560, Note_off_c, 2, 70, 67
4, 90560, Note_off_c, 2, 77, 67
4, 90560, Note_on_c, 2, 68, 67
4, 90560, Note_on_c, 2, 79, 67
4, 90592, Note_off_c, 2, 68, 67
4, 90592, Note_off_c, 2, 79, 67
4, 90624, Note_off_c, 2, 68, 67
4, 90624, Note_off_c, 2, 79, 67
4, 90624, Note_on_c, 2, 67, 67
4, 90624, Note_on_c, 2, 75, 67
4, 90688, Note_off_c, 2, 67, 67
4, 90688, Note_off_c, 2, 75, 67
4, 90752, Note_off_c, 2, 67, 67
4, 90752, Note_off_c, 2, 75, 67
4, 90752, Note_on_c, 2, 70, 67
4, 90816, Note_off_c, 2, 70, 67
4, 90880, Note_off_c, 2, 70, 67
4, 90880, Note_on_c, 2, 70, 67
4, 90880, Note_on_c, 2, 79, 67
4, 90944, Note_off_c, 2, 70, 67
4, 90944, Note_off_c, 2, 79, 67
4, 91008, Note_off_c, 2, 70, 67
4, 91008, Note_off_c, 2, 79, 67
4, 91008, Note_on_c, 2, 75, 67
4, 91072, Note_off_c, 2, 75, 67
4, 91072, Note_on_c, 2, 77, 67
4, 91136, Note_off_c, 2, 77, 67
4, 91136, Note_on_c, 2, 79, 67
4, 91200, Note_off_c, 2, 79, 67
4, 91264, Note_off_c, 2, 79, 67
4, 91264, Note_on_c, 2, 75, 67
4, 91264, Note_on_c, 2, 79, 67
4, 91328, Note_off_c, 2, 75, 67
4, 91328, Note_off_c, 2, 79, 67
4, 91392, Note_off_c, 2, 75, 67
4, 91392, Note_off_c, 2, 79, 67
4, 91392, Note_on_c, 2, 75, 67
4, 91392, Note_on_c, 2, 79, 67
4, 91456, Note_off_c, 2, 75, 67
4, 91456, Note_off_c, 2, 79, 67
4, 91520, Note_off_c, 2, 75, 67
4, 91520, Note_off_c, 2, 79, 67
4, 91520, Note_on_c, 2, 75, 67
4, 91584, Note_off_c, 2, 75, 67
4, 91584, Note_on_c, 2, 77, 67
4, 91648, Note_off_c, 2, 77, 67
4, 91648, Note_on_c, 2, 79, 67
4, 91712, Note_off_c, 2, 79, 67
4, 91776, Note_off_c, 2, 79, 67
4, 91776, Note_on_c, 2, 75, 67
4, 91776, Note_on_c, 2, 79, 67
4, 91840, Note_off_c, 2, 75, 67
4, 91840, Note_off_c, 2, 79, 67
4, 91904, Note_off_c, 2, 75, 67
4, 91904, Note_off_c, 2, 79, 67
4, 91904, Note_on_c, 2, 75, 67
4, 91904, Note_on_c, 2, 79, 67
4, 91968, Note_off_c, 2, 75, 67
4, 91968, Note_off_c, 2, 79, 67
4, 92032, Note_off_c, 2, 75, 67
4, 92032, Note_off_c, 2, 79, 67
4, 92032, Note_on_c, 2, 75, 67
4, 92096, Note_off_c, 2, 75, 67
4, 92096, Note_on_c, 2, 77, 67
4, 92160, Note_off_c, 2, 77, 67
4, 92160, Note_on_c, 2, 79, 67
4, 92224, Note_off_c, 2, 79, 67
4, 92288, Note_off_c, 2, 79, 67
4, 92288, Note_on_c, 2, 75, 67
4, 92288, Note_on_c, 2, 79, 67
4, 92352, Note_off_c, 2, 75, 67
4, 92352, Note_off_c, 2, 79, 67
4, 92416, Note_off_c, 2, 75, 67
4, 92416, Note_off_c, 2, 79, 67
4, 92416, Note_on_c, 2, 75, 67
4, 92416, Note_on_c, 2, 80, 67
4, 92448, Note_off_c, 2, 75, 67
4, 92448, Note_off_c, 2, 80, 67
4, 92480, Note_off_c, 2, 75, 67
4, 92480, Note_off_c, 2, 80, 67
4, 92480, Note_on_c, 2, 74, 67
4, 92544, Note_off_c, 2, 74, 67
4, 92544, Note_on_c, 2, 72, 67
4, 92608, Note_off_c, 2, 72, 67
4, 92608, Note_on_c, 2, 74, 67
4, 92608, Note_on_c, 2, 79, 67
4, 92640, Note_off_c, 2, 74, 67
4, 92640, Note_off_c, 2, 79, 67
4, 92672, Note_off_c, 2, 74, 67
4, 92672, Note_off_c, 2, 79, 67
4, 92672, Note_on_c, 2, 70, 67
4, 92672, Note_on_c, 2, 77, 67
4, 92736, Note_off_c, 2, 70, 67
4, 92736, Note_off_c, 2, 77, 67
4, 92800, Note_off_c, 2, 70, 67
4, 92800, Note_off_c, 2, 77, 67
4, 92800, Note_on_c, 2, 68, 67
4, 92800, Note_on_c, 2, 70, 67
4, 92864, Note_off_c, 2, 68, 67
4, 92864, Note_off_c, 2, 70, 67
4, 92928, Note_off_c, 2, 68, 67
4, 92928, Note_off_c, 2, 70, 67
4, 92928, Note_on_c, 2, 68, 67
4, 92928, Note_on_c, 2, 70, 67
4, 92992, Note_off_c, 2, 68, 67
4, 92992, Note_off_c, 2, 70, 67
4, 93056, Note_off_c, 2, 68, 67
4, 93056, Note_off_c, 2, 70, 67
4, 93056, Note_on_c, 2, 74, 67
4, 93120, Note_off_c, 2, 74, 67
4, 93120, Note_on_c, 2, 75, 67
4, 93184, Note_off_c, 2, 75, 67
4, 93184, Note_on_c, 2, 77, 67
4, 93312, Note_off_c, 2, 77, 67
4, 93312, Note_on_c, 2, 74, 67
4, 93312, Note_on_c, 2, 80, 67
4, 93376, Note_off_c, 2, 74, 67
4, 93376, Note_off_c, 2, 80, 67
4, 93440, Note_off_c, 2, 74, 67
4, 93440, Note_off_c, 2, 80, 67
4, 93440, Note_on_c, 2, 74, 67
4, 93440, Note_on_c, 2, 79, 67
4, 93504, Note_off_c, 2, 74, 67
4, 93504, Note_off_c, 2, 79, 67
4, 93568, Note_off_c, 2, 74, 67
4, 93568, Note_off_c, 2, 79, 67
4, 93568, Note_on_c, 2, 77, 67
4, 93632, Note_off_c, 2, 77, 67
4, 93696, Note_off_c, 2, 77, 67
4, 93696, Note_on_c, 2, 75, 67
4, 93760, Note_off_c, 2, 75, 67
4, 93824, Note_off_c, 2, 75, 67
4, 93824, Note_on_c, 2, 70, 67
4, 93824, Note_on_c, 2, 74, 67
4, 93888, Note_off_c, 2, 70, 67
4, 93888, Note_off_c, 2, 74, 67
4, 93952, Note_off_c, 2, 70, 67
4, 93952, Note_off_c, 2, 74, 67
4, 93952, Note_on_c, 2, 72, 67
4, 93952, Note_on_c, 2, 74, 67
4, 94016, Note_off_c, 2, 72, 67
4, 94016, Note_off_c, 2, 74, 67
4, 94080, Note_off_c, 2, 72, 67
4, 94080, Note_off_c, 2, 74, 67
4, 94080, Note_on_c, 2, 70, 67
4, 94080, Note_on_c, 2, 74, 67
4, 94144, Note_off_c, 2, 70, 67
4, 94144, Note_off_c, 2, 74, 67
4, 94208, Note_off_c, 2, 70, 67
4, 94208, Note_off_c, 2, 74, 67
4, 94208, Note_on_c, 2, 80, 67
4, 94208, Note_on_c, 2, 84, 67
4, 94464, Note_off_c, 2, 80, 67
4, 94464, Note_off_c, 2, 84, 67
4, 94464, Note_on_c, 2, 70, 67
4, 94464, Note_on_c, 2, 74, 67
4, 94480, Note_off_c, 2, 70, 67
4, 94480, Note_off_c, 2, 74, 67
4, 94496, Note_off_c, 2, 70, 67
4, 94496, Note_off_c, 2, 74, 67
4, 94496, Note_on_c, 2, 72, 67
4, 94496, Note_on_c, 2, 75, 67
4, 94512, Note_off_c, 2, 72, 67
4, 94512, Note_off_c, 2, 75, 67
4, 94528, Note_off_c, 2, 72, 67
4, 94528, Note_off_c, 2, 75, 67
4, 94528, Note_on_c, 2, 70, 67
4, 94528, Note_on_c, 2, 74, 67
4, 94560, Note_off_c, 2, 70, 67
4, 94560, Note_off_c, 2, 74, 67
4, 94592, Note_off_c, 2, 70, 67
4, 94592, Note_off_c, 2, 74, 67
4, 94592, Note_on_c, 2, 68, 67
4, 94592, Note_on_c, 2, 72, 67
4, 94624, Note_off_c, 2, 68, 67
4, 94624, Note_off_c, 2, 72, 67
4, 94656, Note_off_c, 2, 68, 67
4, 94656, Note_off_c, 2, 72, 67
4, 94656, Note_on_c, 2, 74, 67
4, 94656, Note_on_c, 2, 77, 67
4, 94688, Note_off_c, 2, 74, 67
4, 94688, Note_off_c, 2, 77, 67
4, 94720, Note_off_c, 2, 74, 67
4, 94720, Note_off_c, 2, 77, 67
4, 94720, Note_on_c, 2, 75, 67
4, 94720, Note_on_c, 2, 79, 67
4, 94848, Note_off_c, 2, 75, 67
4, 94848, Note_off_c, 2, 79, 67
4, 94848, Note_on_c, 2, 70, 67
4, 94912, Note_off_c, 2, 70, 67
4, 94976, Note_off_c, 2, 70, 67
4, 94976, Note_on_c, 2, 70, 67
4, 95040, Note_off_c, 2, 70, 67
4, 95104, Note_off_c, 2, 70, 67
4, 95104, Note_on_c, 2, 75, 67
4, 95104, Note_on_c, 2, 79, 67
4, 95168, Note_off_c, 2, 75, 67
4, 95168, Note_off_c, 2, 79, 67
4, 95168, Note_on_c, 2, 77, 67
4, 95168, Note_on_c, 2, 80, 67
4, 95232, Note_off_c, 2, 77, 67
4, 95232, Note_off_c, 2, 80, 67
4, 95232, Note_on_c, 2, 79, 67
4, 95232, Note_on_c, 2, 82, 67
4, 95296, Note_off_c, 2, 79, 67
4, 95296, Note_off_c, 2, 82, 67
4, 95360, Note_off_c, 2, 79, 67
4, 95360, Note_off_c, 2, 82, 67
4, 95360, Note_on_c, 2, 79, 67
4, 95360, Note_on_c, 2, 82, 67
4, 95424, Note_off_c, 2, 79, 67
4, 95424, Note_off_c, 2, 82, 67
4, 95488, Note_off_c, 2, 79, 67
4, 95488, Note_off_c, 2, 82, 67
4, 95488, Note_on_c, 2, 70, 67
4, 95488, Note_on_c, 2, 79, 67
4, 95552, Note_off_c, 2, 70, 67
4, 95552, Note_off_c, 2, 79, 67
4, 95616, Note_off_c, 2, 70, 67
4, 95616, Note_off_c, 2, 79, 67
4, 95616, Note_on_c, 2, 70, 67
4, 95616, Note_on_c, 2, 75, 67
4, 95680, Note_off_c, 2, 70, 67
4, 95680, Note_off_c, 2, 75, 67
4, 95744, Note_off_c, 2, 70, 67
4, 95744, Note_off_c, 2, 75, 67
4, 95744, Note_on_c, 2, 84, 67
4, 95744, Note_on_c, 2, 87, 67
4, 95808, Note_off_c, 2, 84, 67
4, 95808, Note_off_c, 2, 87, 67
4, 95872, Note_off_c, 2, 84, 67
4, 95872, Note_off_c, 2, 87, 67
4, 95872, Note_on_c, 2, 82, 67
4, 95872, Note_on_c, 2, 86, 67
4, 95936, Note_off_c, 2, 82, 67
4, 95936, Note_off_c, 2, 86, 67
4, 96000, Note_off_c, 2, 82, 67
4, 96000, Note_off_c, 2, 86, 67
4, 96000, Note_on_c, 2, 80, 67
4, 96000, Note_on_c, 2, 84, 67
4, 96064, Note_off_c, 2, 80, 67
4, 96064, Note_off_c, 2, 84, 67
4, 96128, Note_off_c, 2, 80, 67
4, 96128, Note_off_c, 2, 84, 67
4, 96128, Note_on_c, 2, 79, 67
4, 96128, Note_on_c, 2, 87, 67
4, 96192, Note_off_c, 2, 79, 67
4, 96192, Note_off_c, 2, 87, 67
4, 96256, Note_off_c, 2, 79, 67
4, 96256, Note_off_c, 2, 87, 67
4, 96256, Note_on_c, 2, 75, 67
4, 96256, Note_on_c, 2, 82, 67
4, 96320, Note_off_c, 2, 75, 67
4, 96320, Note_off_c, 2, 82, 67
4, 96384, Note_off_c, 2, 75, 67
4, 96384, Note_off_c, 2, 82, 67
4, 96384, Note_on_c, 2, 79, 67
4, 96448, Note_off_c, 2, 79, 67
4, 96512, Note_off_c, 2, 79, 67
4, 96512, Note_on_c, 2, 67, 67
4, 96512, Note_on_c, 2, 75, 67
4, 96576, Note_off_c, 2, 67, 67
4, 96576, Note_off_c, 2, 75, 67
4, 96640, Note_off_c, 2, 67, 67
4, 96640, Note_off_c, 2, 75, 67
4, 96640, Note_on_c, 2, 68, 67
4, 96640, Note_on_c, 2, 74, 67
4, 96672, Note_off_c, 2, 68, 67
4, 96672, Note_off_c, 2, 74, 67
4, 96704, Note_off_c, 2, 68, 67
4, 96704, Note_off_c, 2, 74, 67
4, 96704, Note_on_c, 2, 74, 67
4, 96704, Note_on_c, 2, 79, 67
4, 96736, Note_off_c, 2, 74, 67
4, 96736, Note_off_c, 2, 79, 67
4, 96768, Note_off_c, 2, 74, 67
4, 96768, Note_off_c, 2, 79, 67
4, 96768, Note_on_c, 2, 70, 67
4, 96768, Note_on_c, 2, 77, 67
4, 96832, Note_off_c, 2, 70, 67
4, 96832, Note_off_c, 2, 77, 67
4, 96896, Note_off_c, 2, 70, 67
4, 96896, Note_off_c, 2, 77, 67
4, 96896, Note_on_c, 2, 65, 67
4, 96896, Note_on_c, 2, 70, 67
4, 96960, Note_off_c, 2, 65, 67
4, 96960, Note_off_c, 2, 70, 67
4, 97024, Note_off_c, 2, 65, 67
4, 97024, Note_off_c, 2, 70, 67
4, 97024, Note_on_c, 2, 68, 67
4, 97024, Note_on_c, 2, 70, 67
4, 97088, Note_off_c, 2, 68, 67
4, 97088, Note_off_c, 2, 70, 67
4, 97152, Note_off_c, 2, 68, 67
4, 97152, Note_off_c, 2, 70, 67
4, 97152, Note_on_c, 2, 70, 67
4, 97152, Note_on_c, 2, 79, 67
4, 97216, Note_off_c, 2, 70, 67
4, 97216, Note_off_c, 2, 79, 67
4, 97216, Note_on_c, 2, 77, 67
4, 97216, Note_on_c, 2, 80, 67
4, 97280, Note_off_c, 2, 77, 67
4, 97280, Note_off_c, 2, 80, 67
4, 97280, Note_on_c, 2, 79, 67
4, 97280, Note_on_c, 2, 82, 67
4, 97344, Note_off_c, 2, 79, 67
4, 97344, Note_off_c, 2, 82, 67
4, 97408, Note_off_c, 2, 79, 67
4, 97408, Note_off_c, 2, 82, 67
4, 97408, Note_on_c, 2, 79, 67
4, 97408, Note_on_c, 2, 82, 67
4, 97472, Note_off_c, 2, 79, 67
4, 97472, Note_off_c, 2, 82, 67
4, 97536, Note_off_c, 2, 79, 67
4, 97536, Note_off_c, 2, 82, 67
4, 97536, Note_on_c, 2, 70, 67
4, 97536, Note_on_c, 2, 79, 67
4, 97600, Note_off_c, 2, 70, 67
4, 97600, Note_off_c, 2, 79, 67
4, 97664, Note_off_c, 2, 70, 67
4, 97664, Note_off_c, 2, 79, 67
4, 97664, Note_on_c, 2, 75, 67
4, 97664, Note_on_c, 2, 82, 67
4, 97728, Note_off_c, 2, 75, 67
4, 97728, Note_off_c, 2, 82, 67
4, 97792, Note_off_c, 2, 75, 67
4, 97792, Note_off_c, 2, 82, 67
4, 97792, Note_on_c, 2, 84, 67
4, 97792, Note_on_c, 2, 87, 67
4, 97856, Note_off_c, 2, 84, 67
4, 97856, Note_off_c, 2, 87, 67
4, 97920, Note_off_c, 2, 84, 67
4, 97920, Note_off_c, 2, 87, 67
4, 97920, Note_on_c, 2, 82, 67
4, 97920, Note_on_c, 2, 86, 67
4, 97984, Note_off_c, 2, 82, 67
4, 97984, Note_off_c, 2, 86, 67
4, 98048, Note_off_c, 2, 82, 67
4, 98048, Note_off_c, 2, 86, 67
4, 98048, Note_on_c, 2, 80, 67
4, 98048, Note_on_c, 2, 84, 67
4, 98112, Note_off_c, 2, 80, 67
4, 98112, Note_off_c, 2, 84, 67
4, 98176, Note_off_c, 2, 80, 67
4, 98176, Note_off_c, 2, 84, 67
4, 98176, Note_on_c, 2, 70, 67
4, 98176, Note_on_c, 2, 74, 67
4, 98208, Note_off_c, 2, 70, 67
4, 98208, Note_off_c, 2, 74, 67
4, 98240, Note_off_c, 2, 70, 67
4, 98240, Note_off_c, 2, 74, 67
4, 98240, Note_on_c, 2, 77, 67
4, 98240, Note_on_c, 2, 80, 67
4, 98272, Note_off_c, 2, 77, 67
4, 98272, Note_off_c, 2, 80, 67
4, 98304, Note_off_c, 2, 77, 67
4, 98304, Note_off_c, 2, 80, 67
4, 98304, Note_on_c, 2, 77, 67
4, 98304, Note_on_c, 2, 82, 67
4, 98368, Note_off_c, 2, 77, 67
4, 98368, Note_off_c, 2, 82, 67
4, 98432, Note_off_c, 2, 77, 67
4, 98432, Note_off_c, 2, 82, 67
4, 98432, Note_on_c, 2, 80, 67
4, 98432, Note_on_c, 2, 87, 67
4, 98496, Note_off_c, 2, 80, 67
4, 98496, Note_off_c, 2, 87, 67
4, 98560, Note_off_c, 2, 80, 67
4, 98560, Note_off_c, 2, 87, 67
4, 98560, Note_on_c, 2, 82, 67
4, 98560, Note_on_c, 2, 86, 67
4, 98624, Note_off_c, 2, 82, 67
4, 98624, Note_off_c, 2, 86, 67
4, 98688, Note_off_c, 2, 82, 67
4, 98688, Note_off_c, 2, 86, 67
4, 98688, Note_on_c, 2, 80, 67
4, 98688, Note_on_c, 2, 89, 67
4, 98752, Note_off_c, 2, 80, 67
4, 98752, Note_off_c, 2, 89, 67
4, 98816, Note_off_c, 2, 80, 67
4, 98816, Note_off_c, 2, 89, 67
4, 98816, Note_on_c, 2, 79, 67
4, 98816, Note_on_c, 2, 87, 67
4, 98880, Note_off_c, 2, 79, 67
4, 98880, Note_off_c, 2, 87, 67
4, 98944, Note_off_c, 2, 79, 67
4, 98944, Note_off_c, 2, 87, 67
4, 98944, Note_on_c, 2, 70, 67
4, 98944, Note_on_c, 2, 82, 67
4, 99008, Note_off_c, 2, 70, 67
4, 99008, Note_off_c, 2, 82, 67
4, 99072, Note_off_c, 2, 70, 67
4, 99072, Note_off_c, 2, 82, 67
4, 99072, Note_on_c, 2, 70, 67
4, 99072, Note_on_c, 2, 82, 67
4, 99136, Note_off_c, 2, 70, 67
4, 99136, Note_off_c, 2, 82, 67
4, 99200, Note_off_c, 2, 70, 67
4, 99200, Note_off_c, 2, 82, 67
4, 99200, Note_on_c, 2, 75, 67
4, 99264, Note_off_c, 2, 75, 67
4, 99264, Note_on_c, 2, 77, 67
4, 99328, Note_off_c, 2, 77, 67
4, 99328, Note_on_c, 2, 79, 67
4, 99392, Note_off_c, 2, 79, 67
4, 99456, Note_off_c, 2, 79, 67
4, 99456, Note_on_c, 2, 75, 67
4, 99456, Note_on_c, 2, 79, 67
4, 99520, Note_off_c, 2, 75, 67
4, 99520, Note_off_c, 2, 79, 67
4, 99584, Note_off_c, 2, 75, 67
4, 99584, Note_off_c, 2, 79, 67
4, 99584, Note_on_c, 2, 75, 67
4, 99584, Note_on_c, 2, 79, 67
4, 99648, Note_off_c, 2, 75, 67
4, 99648, Note_off_c, 2, 79, 67
4, 99712, Note_off_c, 2, 75, 67
4, 99712, Note_off_c, 2, 79, 67
4, 99712, Note_on_c, 2, 75, 67
4, 99776, Note_off_c, 2, 75, 67
4, 99776, Note_on_c, 2, 77, 67
4, 99840, Note_off_c, 2, 77, 67
4, 99840, Note_on_c, 2, 79, 67
4, 99904, Note_off_c, 2, 79, 67
4, 99968, Note_off_c, 2, 79, 67
4, 99968, Note_on_c, 2, 75, 67
4, 99968, Note_on_c, 2, 79, 67
4, 100032, Note_off_c, 2, 75, 67
4, 100032, Note_off_c, 2, 79, 67
4, 100096, Note_off_c, 2, 75, 67
4, 100096, Note_off_c, 2, 79, 67
4, 100096, Note_on_c, 2, 75, 67
4, 100096, Note_on_c, 2, 79, 67
4, 100160, Note_off_c, 2, 75, 67
4, 100160, Note_off_c, 2, 79, 67
4, 100224, Note_off_c, 2, 75, 67
4, 100224, Note_off_c, 2, 79, 67
4, 100224, Note_on_c, 2, 75, 67
4, 100288, Note_off_c, 2, 75, 67
4, 100288, Note_on_c, 2, 77, 67
4, 100352, Note_off_c, 2, 77, 67
4, 100352, Note_on_c, 2, 79, 67
4, 100416, Note_off_c, 2, 79, 67
4, 100480, Note_off_c, 2, 79, 67
4, 100480, Note_on_c, 2, 75, 67
4, 100480, Note_on_c, 2, 79, 67
4, 100544, Note_off_c, 2, 75, 67
4, 100544, Note_off_c, 2, 79, 67
4, 100608, Note_off_c, 2, 75, 67
4, 100608, Note_off_c, 2, 79, 67
4, 100608, Note_on_c, 2, 75, 67
4, 100608, Note_on_c, 2, 80, 67
4, 100640, Note_off_c, 2, 75, 67
4, 100640, Note_off_c, 2, 80, 67
4, 100672, Note_off_c, 2, 75, 67
4, 100672, Note_off_c, 2, 80, 67
4, 100672, Note_on_c, 2, 74, 67
4, 100704, Note_off_c, 2, 74, 67
4, 100736, Note_off_c, 2, 74, 67
4, 100736, Note_on_c, 2, 72, 67
4, 100768, Note_off_c, 2, 72, 67
4, 100800, Note_off_c, 2, 72, 67
4, 100800, Note_on_c, 2, 74, 67
4, 100800, Note_on_c, 2, 79, 67
4, 100832, Note_off_c, 2, 74, 67
4, 100832, Note_off_c, 2, 79, 67
4, 100864, Note_off_c, 2, 74, 67
4, 100864, Note_off_c, 2, 79, 67
4, 100864, Note_on_c, 2, 70, 67
4, 100864, Note_on_c, 2, 77, 67
4, 100928, Note_off_c, 2, 70, 67
4, 100928, Note_off_c, 2, 77, 67
4, 100992, Note_off_c, 2, 70, 67
4, 100992, Note_off_c, 2, 77, 67
4, 100992, Note_on_c, 2, 68, 67
4, 100992, Note_on_c, 2, 70, 67
4, 101056, Note_off_c, 2, 68, 67
4, 101056, Note_off_c, 2, 70, 67
4, 101120, Note_off_c, 2, 68, 67
4, 101120, Note_off_c, 2, 70, 67
4, 101120, Note_on_c, 2, 68, 67
4, 101120, Note_on_c, 2, 70, 67
4, 101184, Note_off_c, 2, 68, 67
4, 101184, Note_off_c, 2, 70, 67
4, 101248, Note_off_c, 2, 68, 67
4, 101248, Note_off_c, 2, 70, 67
4, 101248, Note_on_c, 2, 74, 67
4, 101312, Note_off_c, 2, 74, 67
4, 101312, Note_on_c, 2, 75, 67
4, 101376, Note_off_c, 2, 75, 67
4, 101376, Note_on_c, 2, 77, 67
4, 101440, Note_off_c, 2, 77, 67
4, 101504, Note_off_c, 2, 77, 67
4, 101504, Note_on_c, 2, 74, 67
4, 101504, Note_on_c, 2, 77, 67
4, 101568, Note_off_c, 2, 74, 67
4, 101568, Note_off_c, 2, 77, 67
4, 101632, Note_off_c, 2, 74, 67
4, 101632, Note_off_c, 2, 77, 67
4, 101632, Note_on_c, 2, 74, 67
4, 101632, Note_on_c, 2, 77, 67
4, 101696, Note_off_c, 2, 74, 67
4, 101696, Note_off_c, 2, 77, 67
4, 101760, Note_off_c, 2, 74, 67
4, 101760, Note_off_c, 2, 77, 67
4, 101760, Note_on_c, 2, 74, 67
4, 101824, Note_off_c, 2, 74, 67
4, 101824, Note_on_c, 2, 75, 67
4, 101888, Note_off_c, 2, 75, 67
4, 101888, Note_on_c, 2, 77, 67
4, 101952, Note_off_c, 2, 77, 67
4, 102016, Note_off_c, 2, 77, 67
4, 102016, Note_on_c, 2, 74, 67
4, 102016, Note_on_c, 2, 77, 67
4, 102080, Note_off_c, 2, 74, 67
4, 102080, Note_off_c, 2, 77, 67
4, 102144, Note_off_c, 2, 74, 67
4, 102144, Note_off_c, 2, 77, 67
4, 102144, Note_on_c, 2, 74, 67
4, 102144, Note_on_c, 2, 77, 67
4, 102208, Note_off_c, 2, 74, 67
4, 102208, Note_off_c, 2, 77, 67
4, 102272, Note_off_c, 2, 74, 67
4, 102272, Note_off_c, 2, 77, 67
4, 102272, Note_on_c, 2, 74, 67
4, 102336, Note_off_c, 2, 74, 67
4, 102336, Note_on_c, 2, 75, 67
4, 102400, Note_off_c, 2, 75, 67
4, 102400, Note_on_c, 2, 70, 67
4, 102400, Note_on_c, 2, 77, 67
4, 102464, Note_off_c, 2, 70, 67
4, 102464, Note_off_c, 2, 77, 67
4, 102528, Note_off_c, 2, 70, 67
4, 102528, Note_off_c, 2, 77, 67
4, 102528, Note_on_c, 2, 74, 67
4, 102528, Note_on_c, 2, 77, 67
4, 102592, Note_off_c, 2, 74, 67
4, 102592, Note_off_c, 2, 77, 67
4, 102656, Note_off_c, 2, 74, 67
4, 102656, Note_off_c, 2, 77, 67
4, 102656, Note_on_c, 2, 74, 67
4, 102656, Note_on_c, 2, 79, 67
4, 102688, Note_off_c, 2, 74, 67
4, 102688, Note_off_c, 2, 79, 67
4, 102720, Note_off_c, 2, 74, 67
4, 102720, Note_off_c, 2, 79, 67
4, 102720, Note_on_c, 2, 72, 67
4, 102720, Note_on_c, 2, 77, 67
4, 102752, Note_off_c, 2, 72, 67
4, 102752, Note_off_c, 2, 77, 67
4, 102784, Note_off_c, 2, 72, 67
4, 102784, Note_off_c, 2, 77, 67
4, 102784, Note_on_c, 2, 70, 67
4, 102784, Note_on_c, 2, 77, 67
4, 102816, Note_off_c, 2, 70, 67
4, 102816, Note_off_c, 2, 77, 67
4, 102848, Note_off_c, 2, 70, 67
4, 102848, Note_off_c, 2, 77, 67
4, 102848, Note_on_c, 2, 68, 67
4, 102848, Note_on_c, 2, 79, 67
4, 102880, Note_off_c, 2, 68, 67
4, 102880, Note_off_c, 2, 79, 67
4, 102912, Note_off_c, 2, 68, 67
4, 102912, Note_off_c, 2, 79, 67
4, 102912, Note_on_c, 2, 67, 67
4, 102912, Note_on_c, 2, 75, 67
4, 102976, Note_off_c, 2, 67, 67
4, 102976, Note_off_c, 2, 75, 67
4, 103040, Note_off_c, 2, 67, 67
4, 103040, Note_off_c, 2, 75, 67
4, 103040, Note_on_c, 2, 70, 67
4, 103104, Note_off_c, 2, 70, 67
4, 103168, Note_off_c, 2, 70, 67
4, 103168, Note_on_c, 2, 70, 67
4, 103168, Note_on_c, 2, 79, 67
4, 103232, Note_off_c, 2, 70, 67
4, 103232, Note_off_c, 2, 79, 67
4, 103296, Note_off_c, 2, 70, 67
4, 103296, Note_off_c, 2, 79, 67
4, 103296, Note_on_c, 2, 75, 67
4, 103360, Note_off_c, 2, 75, 67
4, 103360, Note_on_c, 2, 77, 67
4, 103424, Note_off_c, 2, 77, 67
4, 103424, Note_on_c, 2, 79, 67
4, 103488, Note_off_c, 2, 79, 67
4, 103552, Note_off_c, 2, 79, 67
4, 103552, Note_on_c, 2, 75, 67
4, 103552, Note_on_c, 2, 79, 67
4, 103616, Note_off_c, 2, 75, 67
4, 103616, Note_off_c, 2, 79, 67
4, 103680, Note_off_c, 2, 75, 67
4, 103680, Note_off_c, 2, 79, 67
4, 103680, Note_on_c, 2, 75, 67
4, 103680, Note_on_c, 2, 79, 67
4, 103744, Note_off_c, 2, 75, 67
4, 103744, Note_off_c, 2, 79, 67
4, 103808, Note_off_c, 2, 75, 67
4, 103808, Note_off_c, 2, 79, 67
4, 103808, Note_on_c, 2, 75, 67
4, 103872, Note_off_c, 2, 75, 67
4, 103872, Note_on_c, 2, 77, 67
4, 103936, Note_off_c, 2, 77, 67
4, 103936, Note_on_c, 2, 79, 67
4, 104000, Note_off_c, 2, 79, 67
4, 104064, Note_off_c, 2, 79, 67
4, 104064, Note_on_c, 2, 75, 67
4, 104064, Note_on_c, 2, 79, 67
4, 104128, Note_off_c, 2, 75, 67
4, 104128, Note_off_c, 2, 79, 67
4, 104192, Note_off_c, 2, 75, 67
4, 104192, Note_off_c, 2, 79, 67
4, 104192, Note_on_c, 2, 75, 67
4, 104192, Note_on_c, 2, 79, 67
4, 104256, Note_off_c, 2, 75, 67
4, 104256, Note_off_c, 2, 79, 67
4, 104320, Note_off_c, 2, 75, 67
4, 104320, Note_off_c, 2, 79, 67
4, 104320, Note_on_c, 2, 75, 67
4, 104384, Note_off_c, 2, 75, 67
4, 104384, Note_on_c, 2, 77, 67
4, 104448, Note_off_c, 2, 77, 67
4, 104448, Note_on_c, 2, 79, 67
4, 104512, Note_off_c, 2, 79, 67
4, 104576, Note_off_c, 2, 79, 67
4, 104576, Note_on_c, 2, 75, 67
4, 104576, Note_on_c, 2, 79, 67
4, 104640, Note_off_c, 2, 75, 67
4, 104640, Note_off_c, 2, 79, 67
4, 104704, Note_off_c, 2, 75, 67
4, 104704, Note_off_c, 2, 79, 67
4, 104704, Note_on_c, 2, 75, 67
4, 104704, Note_on_c, 2, 80, 67
4, 104736, Note_off_c, 2, 75, 67
4, 104736, Note_off_c, 2, 80, 67
4, 104768, Note_off_c, 2, 75, 67
4, 104768, Note_off_c, 2, 80, 67
4, 104768, Note_on_c, 2, 74, 67
4, 104832, Note_off_c, 2, 74, 67
4, 104832, Note_on_c, 2, 72, 67
4, 104896, Note_off_c, 2, 72, 67
4, 104896, Note_on_c, 2, 74, 67
4, 104896, Note_on_c, 2, 79, 67
4, 104928, Note_off_c, 2, 74, 67
4, 104928, Note_off_c, 2, 79, 67
4, 104960, Note_off_c, 2, 74, 67
4, 104960, Note_off_c, 2, 79, 67
4, 104960, Note_on_c, 2, 70, 67
4, 104960, Note_on_c, 2, 77, 67
4, 105024, Note_off_c, 2, 70, 67
4, 105024, Note_off_c, 2, 77, 67
4, 105088, Note_off_c, 2, 70, 67
4, 105088, Note_off_c, 2, 77, 67
4, 105088, Note_on_c, 2, 68, 67
4, 105088, Note_on_c, 2, 70, 67
4, 105152, Note_off_c, 2, 68, 67
4, 105152, Note_off_c, 2, 70, 67
4, 105216, Note_off_c, 2, 68, 67
4, 105216, Note_off_c, 2, 70, 67
4, 105216, Note_on_c, 2, 68, 67
4, 105216, Note_on_c, 2, 70, 67
4, 105280, Note_off_c, 2, 68, 67
4, 105280, Note_off_c, 2, 70, 67
4, 105344, Note_off_c, 2, 68, 67
4, 105344, Note_off_c, 2, 70, 67
4, 105344, Note_on_c, 2, 74, 67
4, 105408, Note_off_c, 2, 74, 67
4, 105408, Note_on_c, 2, 75, 67
4, 105472, Note_off_c, 2, 75, 67
4, 105472, Note_on_c, 2, 77, 67
4, 105600, Note_off_c, 2, 77, 67
4, 105600, Note_on_c, 2, 74, 67
4, 105600, Note_on_c, 2, 80, 67
4, 105664, Note_off_c, 2, 74, 67
4, 105664, Note_off_c, 2, 80, 67
4, 105728, Note_off_c, 2, 74, 67
4, 105728, Note_off_c, 2, 80, 67
4, 105728, Note_on_c, 2, 74, 67
4, 105728, Note_on_c, 2, 79, 67
4, 105792, Note_off_c, 2, 74, 67
4, 105792, Note_off_c, 2, 79, 67
4, 105856, Note_off_c, 2, 74, 67
4, 105856, Note_off_c, 2, 79, 67
4, 105856, Note_on_c, 2, 77, 67
4, 105920, Note_off_c, 2, 77, 67
4, 105984, Note_off_c, 2, 77, 67
4, 105984, Note_on_c, 2, 75, 67
4, 106048, Note_off_c, 2, 75, 67
4, 106112, Note_off_c, 2, 75, 67
4, 106112, Note_on_c, 2, 70, 67
4, 106112, Note_on_c, 2, 74, 67
4, 106176, Note_off_c, 2, 70, 67
4, 106176, Note_off_c, 2, 74, 67
4, 106240, Note_off_c, 2, 70, 67
4, 106240, Note_off_c, 2, 74, 67
4, 106240, Note_on_c, 2, 72, 67
4, 106240, Note_on_c, 2, 74, 67
4, 106304, Note_off_c, 2, 72, 67
4, 106304, Note_off_c, 2, 74, 67
4, 106368, Note_off_c, 2, 72, 67
4, 106368, Note_off_c, 2, 74, 67
4, 106368, Note_on_c, 2, 70, 67
4, 106368, Note_on_c, 2, 74, 67
4, 106432, Note_off_c, 2, 70, 67
4, 106432, Note_off_c, 2, 74, 67
4, 106496, Note_off_c, 2, 70, 67
4, 106496, Note_off_c, 2, 74, 67
4, 106496, Note_on_c, 2, 80, 67
4, 106496, Note_on_c, 2, 84, 67
4, 106752, Note_off_c, 2, 80, 67
4, 106752, Note_off_c, 2, 84, 67
4, 106752, Note_on_c, 2, 70, 67
4, 106752, Note_on_c, 2, 74, 67
4, 106768, Note_off_c, 2, 70, 67
4, 106768, Note_off_c, 2, 74, 67
4, 106784, Note_off_c, 2, 70, 67
4, 106784, Note_off_c, 2, 74, 67
4, 106784, Note_on_c, 2, 72, 67
4, 106784, Note_on_c, 2, 75, 67
4, 106800, Note_off_c, 2, 72, 67
4, 106800, Note_off_c, 2, 75, 67
4, 106816, Note_off_c, 2, 72, 67
4, 106816, Note_off_c, 2, 75, 67
4, 106816, Note_on_c, 2, 70, 67
4, 106816, Note_on_c, 2, 74, 67
4, 106848, Note_off_c, 2, 70, 67
4, 106848, Note_off_c, 2, 74, 67
4, 106880, Note_off_c, 2, 70, 67
4, 106880, Note_off_c, 2, 74, 67
4, 106880, Note_on_c, 2, 68, 67
4, 106880, Note_on_c, 2, 72, 67
4, 106912, Note_off_c, 2, 68, 67
4, 106912, Note_off_c, 2, 72, 67
4, 106944, Note_off_c, 2, 68, 67
4, 106944, Note_off_c, 2, 72, 67
4, 106944, Note_on_c, 2, 74, 67
4, 106944, Note_on_c, 2, 77, 67
4, 106976, Note_off_c, 2, 74, 67
4, 106976, Note_off_c, 2, 77, 67
4, 107008, Note_off_c, 2, 74, 67
4, 107008, Note_off_c, 2, 77, 67
4, 107008, Note_on_c, 2, 75, 67
4, 107008, Note_on_c, 2, 79, 67
4, 107136, Note_off_c, 2, 75, 67
4, 107136, Note_off_c, 2, 79, 67
4, 107136, Note_on_c, 2, 70, 67
4, 107200, Note_off_c, 2, 70, 67
4, 107264, Note_off_c, 2, 70, 67
4, 107264, Note_on_c, 2, 70, 67
4, 107328, Note_off_c, 2, 70, 67
4, 107392, Note_off_c, 2, 70, 67
4, 107392, Note_on_c, 2, 75, 67
4, 107392, Note_on_c, 2, 79, 67
4, 107456, Note_off_c, 2, 75, 67
4, 107456, Note_off_c, 2, 79, 67
4, 107456, Note_on_c, 2, 77, 67
4, 107456, Note_on_c, 2, 80, 67
4, 107520, Note_off_c, 2, 77, 67
4, 107520, Note_off_c, 2, 80, 67
4, 107520, Note_on_c, 2, 79, 67
4, 107520, Note_on_c, 2, 82, 67
4, 107584, Note_off_c, 2, 79, 67
4, 107584, Note_off_c, 2, 82, 67
4, 107648, Note_off_c, 2, 79, 67
4, 107648, Note_off_c, 2, 82, 67
4, 107648, Note_on_c, 2, 79, 67
4, 107648, Note_on_c, 2, 82, 67
4, 107712, Note_off_c, 2, 79, 67
4, 107712, Note_off_c, 2, 82, 67
4, 107776, Note_off_c, 2, 79, 67
4, 107776, Note_off_c, 2, 82, 67
4, 107776, Note_on_c, 2, 70, 67
4, 107776, Note_on_c, 2, 79, 67
4, 107840, Note_off_c, 2, 70, 67
4, 107840, Note_off_c, 2, 79, 67
4, 107904, Note_off_c, 2, 70, 67
4, 107904, Note_off_c, 2, 79, 67
4, 107904, Note_on_c, 2, 70, 67
4, 107904, Note_on_c, 2, 75, 67
4, 107968, Note_off_c, 2, 70, 67
4, 107968, Note_off_c, 2, 75, 67
4, 108032, Note_off_c, 2, 70, 67
4, 108032, Note_off_c, 2, 75, 67
4, 108032, Note_on_c, 2, 84, 67
4, 108032, Note_on_c, 2, 87, 67
4, 108096, Note_off_c, 2, 84, 67
4, 108096, Note_off_c, 2, 87, 67
4, 108160, Note_off_c, 2, 84, 67
4, 108160, Note_off_c, 2, 87, 67
4, 108160, Note_on_c, 2, 82, 67
4, 108160, Note_on_c, 2, 86, 67
4, 108224, Note_off_c, 2, 82, 67
4, 108224, Note_off_c, 2, 86, 67
4, 108288, Note_off_c, 2, 82, 67
4, 108288, Note_off_c, 2, 86, 67
4, 108288, Note_on_c, 2, 80, 67
4, 108288, Note_on_c, 2, 84, 67
4, 108352, Note_off_c, 2, 80, 67
4, 108352, Note_off_c, 2, 84, 67
4, 108416, Note_off_c, 2, 80, 67
4, 108416, Note_off_c, 2, 84, 67
4, 108416, Note_on_c, 2, 79, 67
4, 108416, Note_on_c, 2, 87, 67
4, 108480, Note_off_c, 2, 79, 67
4, 108480, Note_off_c, 2, 87, 67
4, 108544, Note_off_c, 2, 79, 67
4, 108544, Note_off_c, 2, 87, 67
4, 108544, Note_on_c, 2, 75, 67
4, 108544, Note_on_c, 2, 82, 67
4, 108608, Note_off_c, 2, 75, 67
4, 108608, Note_off_c, 2, 82, 67
4, 108672, Note_off_c, 2, 75, 67
4, 108672, Note_off_c, 2, 82, 67
4, 108672, Note_on_c, 2, 79, 67
4, 108736, Note_off_c, 2, 79, 67
4, 108800, Note_off_c, 2, 79, 67
4, 108800, Note_on_c, 2, 67, 67
4, 108800, Note_on_c, 2, 75, 67
4, 108864, Note_off_c, 2, 67, 67
4, 108864, Note_off_c, 2, 75, 67
4, 108928, Note_off_c, 2, 67, 67
4, 108928, Note_off_c, 2, 75, 67
4, 108928, Note_on_c, 2, 68, 67
4, 108928, Note_on_c, 2, 74, 67
4, 108960, Note_off_c, 2, 68, 67
4, 108960, Note_off_c, 2, 74, 67
4, 108992, Note_off_c, 2, 68, 67
4, 108992, Note_off_c, 2, 74, 67
4, 108992, Note_on_c, 2, 74, 67
4, 108992, Note_on_c, 2, 79, 67
4, 109024, Note_off_c, 2, 74, 67
4, 109024, Note_off_c, 2, 79, 67
4, 109056, Note_off_c, 2, 74, 67
4, 109056, Note_off_c, 2, 79, 67
4, 109056, Note_on_c, 2, 70, 67
4, 109056, Note_on_c, 2, 77, 67
4, 109120, Note_off_c, 2, 70, 67
4, 109120, Note_off_c, 2, 77, 67
4, 109184, Note_off_c, 2, 70, 67
4, 109184, Note_off_c, 2, 77, 67
4, 109184, Note_on_c, 2, 65, 67
4, 109184, Note_on_c, 2, 70, 67
4, 109248, Note_off_c, 2, 65, 67
4, 109248, Note_off_c, 2, 70, 67
4, 109312, Note_off_c, 2, 65, 67
4, 109312, Note_off_c, 2, 70, 67
4, 109312, Note_on_c, 2, 68, 67
4, 109312, Note_on_c, 2, 70, 67
4, 109376, Note_off_c, 2, 68, 67
4, 109376, Note_off_c, 2, 70, 67
4, 109440, Note_off_c, 2, 68, 67
4, 109440, Note_off_c, 2, 70, 67
4, 109440, Note_on_c, 2, 70, 67
4, 109440, Note_on_c, 2, 79, 67
4, 109504, Note_off_c, 2, 70, 67
4, 109504, Note_off_c, 2, 79, 67
4, 109504, Note_on_c, 2, 77, 67
4, 109504, Note_on_c, 2, 80, 67
4, 109568, Note_off_c, 2, 77, 67
4, 109568, Note_off_c, 2, 80, 67
4, 109568, Note_on_c, 2, 79, 67
4, 109568, Note_on_c, 2, 82, 67
4, 109632, Note_off_c, 2, 79, 67
4, 109632, Note_off_c, 2, 82, 67
4, 109696, Note_off_c, 2, 79, 67
4, 109696, Note_off_c, 2, 82, 67
4, 109696, Note_on_c, 2, 79, 67
4, 109696, Note_on_c, 2, 82, 67
4, 109760, Note_off_c, 2, 79, 67
4, 109760, Note_off_c, 2, 82, 67
4, 109824, Note_off_c, 2, 79, 67
4, 109824, Note_off_c, 2, 82, 67
4, 109824, Note_on_c, 2, 70, 67
4, 109824, Note_on_c, 2, 79, 67
4, 109888, Note_off_c, 2, 70, 67
4, 109888, Note_off_c, 2, 79, 67
4, 109952, Note_off_c, 2, 70, 67
4, 109952, Note_off_c, 2, 79, 67
4, 109952, Note_on_c, 2, 75, 67
4, 109952, Note_on_c, 2, 82, 67
4, 110016, Note_off_c, 2, 75, 67
4, 110016, Note_off_c, 2, 82, 67
4, 110080, Note_off_c, 2, 75, 67
4, 110080, Note_off_c, 2, 82, 67
4, 110080, Note_on_c, 2, 84, 67
4, 110080, Note_on_c, 2, 87, 67
4, 110144, Note_off_c, 2, 84, 67
4, 110144, Note_off_c, 2, 87, 67
4, 110208, Note_off_c, 2, 84, 67
4, 110208, Note_off_c, 2, 87, 67
4, 110208, Note_on_c, 2, 82, 67
4, 110208, Note_on_c, 2, 86, 67
4, 110272, Note_off_c, 2, 82, 67
4, 110272, Note_off_c, 2, 86, 67
4, 110336, Note_off_c, 2, 82, 67
4, 110336, Note_off_c, 2, 86, 67
4, 110336, Note_on_c, 2, 80, 67
4, 110336, Note_on_c, 2, 84, 67
4, 110400, Note_off_c, 2, 80, 67
4, 110400, Note_off_c, 2, 84, 67
4, 110464, Note_off_c, 2, 80, 67
4, 110464, Note_off_c, 2, 84, 67
4, 110464, Note_on_c, 2, 70, 67
4, 110464, Note_on_c, 2, 74, 67
4, 110496, Note_off_c, 2, 70, 67
4, 110496, Note_off_c, 2, 74, 67
4, 110528, Note_off_c, 2, 70, 67
4, 110528, Note_off_c, 2, 74, 67
4, 110528, Note_on_c, 2, 77, 67
4, 110528, Note_on_c, 2, 80, 67
4, 110560, Note_off_c, 2, 77, 67
4, 110560, Note_off_c, 2, 80, 67
4, 110592, Note_off_c, 2, 77, 67
4, 110592, Note_off_c, 2, 80, 67
4, 110592, Note_on_c, 2, 77, 67
4, 110592, Note_on_c, 2, 82, 67
4, 110656, Note_off_c, 2, 77, 67
4, 110656, Note_off_c, 2, 82, 67
4, 110720, Note_off_c, 2, 77, 67
4, 110720, Note_off_c, 2, 82, 67
4, 110720, Note_on_c, 2, 80, 67
4, 110720, Note_on_c, 2, 87, 67
4, 110784, Note_off_c, 2, 80, 67
4, 110784, Note_off_c, 2, 87, 67
4, 110848, Note_off_c, 2, 80, 67
4, 110848, Note_off_c, 2, 87, 67
4, 110848, Note_on_c, 2, 82, 67
4, 110848, Note_on_c, 2, 86, 67
4, 110912, Note_off_c, 2, 82, 67
4, 110912, Note_off_c, 2, 86, 67
4, 110976, Note_off_c, 2, 82, 67
4, 110976, Note_off_c, 2, 86, 67
4, 110976, Note_on_c, 2, 80, 67
4, 110976, Note_on_c, 2, 89, 67
4, 111040, Note_off_c, 2, 80, 67
4, 111040, Note_off_c, 2, 89, 67
4, 111104, Note_off_c, 2, 80, 67
4, 111104, Note_off_c, 2, 89, 67
4, 111104, Note_on_c, 2, 79, 67
4, 111104, Note_on_c, 2, 87, 67
4, 111168, Note_off_c, 2, 79, 67
4, 111168, Note_off_c, 2, 87, 67
4, 111232, Note_off_c, 2, 79, 67
4, 111232, Note_off_c, 2, 87, 67
4, 111232, Note_on_c, 2, 70, 67
4, 111232, Note_on_c, 2, 82, 67
4, 111296, Note_off_c, 2, 70, 67
4, 111296, Note_off_c, 2, 82, 67
4, 111360, Note_off_c, 2, 70, 67
4, 111360, Note_off_c, 2, 82, 67
4, 111360, Note_on_c, 2, 70, 67
4, 111360, Note_on_c, 2, 82, 67
4, 111424, Note_off_c, 2, 70, 67
4, 111424, Note_off_c, 2, 82, 67
4, 111488, Note_off_c, 2, 70, 67
4, 111488, Note_off_c, 2, 82, 67
4, 111488, Note_on_c, 2, 75, 67
4, 111552, Note_off_c, 2, 75, 67
4, 111552, Note_on_c, 2, 77, 67
4, 111616, Note_off_c, 2, 77, 67
4, 111616, Note_on_c, 2, 79, 67
4, 111680, Note_off_c, 2, 79, 67
4, 111744, Note_off_c, 2, 79, 67
4, 111744, Note_on_c, 2, 75, 67
4, 111744, Note_on_c, 2, 79, 67
4, 111808, Note_off_c, 2, 75, 67
4, 111808, Note_off_c, 2, 79, 67
4, 111872, Note_off_c, 2, 75, 67
4, 111872, Note_off_c, 2, 79, 67
4, 111872, Note_on_c, 2, 75, 67
4, 111872, Note_on_c, 2, 79, 67
4, 111936, Note_off_c, 2, 75, 67
4, 111936, Note_off_c, 2, 79, 67
4, 112000, Note_off_c, 2, 75, 67
4, 112000, Note_off_c, 2, 79, 67
4, 112000, Note_on_c, 2, 75, 67
4, 112064, Note_off_c, 2, 75, 67
4, 112064, Note_on_c, 2, 77, 67
4, 112128, Note_off_c, 2, 77, 67
4, 112128, Note_on_c, 2, 79, 67
4, 112192, Note_off_c, 2, 79, 67
4, 112256, Note_off_c, 2, 79, 67
4, 112256, Note_on_c, 2, 75, 67
4, 112256, Note_on_c, 2, 79, 67
4, 112320, Note_off_c, 2, 75, 67
4, 112320, Note_off_c, 2, 79, 67
4, 112384, Note_off_c, 2, 75, 67
4, 112384, Note_off_c, 2, 79, 67
4, 112384, Note_on_c, 2, 75, 67
4, 112384, Note_on_c, 2, 79, 67
4, 112448, Note_off_c, 2, 75, 67
4, 112448, Note_off_c, 2, 79, 67
4, 112512, Note_off_c, 2, 75, 67
4, 112512, Note_off_c, 2, 79, 67
4, 112512, Note_on_c, 2, 75, 67
4, 112576, Note_off_c, 2, 75, 67
4, 112576, Note_on_c, 2, 77, 67
4, 112640, Note_off_c, 2, 77, 67
4, 112640, Note_on_c, 2, 79, 67
4, 112704, Note_off_c, 2, 79, 67
4, 112768, Note_off_c, 2, 79, 67
4, 112768, Note_on_c, 2, 75, 67
4, 112768, Note_on_c, 2, 79, 67
4, 112832, Note_off_c, 2, 75, 67
4, 112832, Note_off_c, 2, 79, 67
4, 112896, Note_off_c, 2, 75, 67
4, 112896, Note_off_c, 2, 79, 67
4, 112896, Note_on_c, 2, 75, 67
4, 112896, Note_on_c, 2, 80, 67
4, 112928, Note_off_c, 2, 75, 67
4, 112928, Note_off_c, 2, 80, 67
4, 112960, Note_off_c, 2, 75, 67
4, 112960, Note_off_c, 2, 80, 67
4, 112960, Note_on_c, 2, 74, 67
4, 112992, Note_off_c, 2, 74, 67
4, 113024, Note_off_c, 2, 74, 67
4, 113024, Note_on_c, 2, 72, 67
4, 113056, Note_off_c, 2, 72, 67
4, 113088, Note_off_c, 2, 72, 67
4, 113088, Note_on_c, 2, 74, 67
4, 113088, Note_on_c, 2, 79, 67
4, 113120, Note_off_c, 2, 74, 67
4, 113120, Note_off_c, 2, 79, 67
4, 113152, Note_off_c, 2, 74, 67
4, 113152, Note_off_c, 2, 79, 67
4, 113152, Note_on_c, 2, 70, 67
4, 113152, Note_on_c, 2, 77, 67
4, 113216, Note_off_c, 2, 70, 67
4, 113216, Note_off_c, 2, 77, 67
4, 113280, Note_off_c, 2, 70, 67
4, 113280, Note_off_c, 2, 77, 67
4, 113280, Note_on_c, 2, 68, 67
4, 113280, Note_on_c, 2, 70, 67
4, 113344, Note_off_c, 2, 68, 67
4, 113344, Note_off_c, 2, 70, 67
4, 113408, Note_off_c, 2, 68, 67
4, 113408, Note_off_c, 2, 70, 67
4, 113408, Note_on_c, 2, 68, 67
4, 113408, Note_on_c, 2, 70, 67
4, 113472, Note_off_c, 2, 68, 67
4, 113472, Note_off_c, 2, 70, 67
4, 113536, Note_off_c, 2, 68, 67
4, 113536, Note_off_c, 2, 70, 67
4, 113536, Note_on_c, 2, 74, 67
4, 113600, Note_off_c, 2, 74, 67
4, 113600, Note_on_c, 2, 75, 67
4, 113664, Note_off_c, 2, 75, 67
4, 113664, Note_on_c, 2, 77, 67
4, 113728, Note_off_c, 2, 77, 67
4, 113792, Note_off_c, 2, 77, 67
4, 113792, Note_on_c, 2, 74, 67
4, 113792, Note_on_c, 2, 77, 67
4, 113856, Note_off_c, 2, 74, 67
4, 113856, Note_off_c, 2, 77, 67
4, 113920, Note_off_c, 2, 74, 67
4, 113920, Note_off_c, 2, 77, 67
4, 113920, Note_on_c, 2, 74, 67
4, 113920, Note_on_c, 2, 77, 67
4, 113984, Note_off_c, 2, 74, 67
4, 113984, Note_off_c, 2, 77, 67
4, 114048, Note_off_c, 2, 74, 67
4, 114048, Note_off_c, 2, 77, 67
4, 114048, Note_on_c, 2, 74, 67
4, 114112, Note_off_c, 2, 74, 67
4, 114112, Note_on_c, 2, 75, 67
4, 114176, Note_off_c, 2, 75, 67
4, 114176, Note_on_c, 2, 77, 67
4, 114240, Note_off_c, 2, 77, 67
4, 114304, Note_off_c, 2, 77, 67
4, 114304, Note_on_c, 2, 74, 67
4, 114304, Note_on_c, 2, 77, 67
4, 114368, Note_off_c, 2, 74, 67
4, 114368, Note_off_c, 2, 77, 67
4, 114432, Note_off_c, 2, 74, 67
4, 114432, Note_off_c, 2, 77, 67
4, 114432, Note_on_c, 2, 74, 67
4, 114432, Note_on_c, 2, 77, 67
4, 114496, Note_off_c, 2, 74, 67
4, 114496, Note_off_c, 2, 77, 67
4, 114560, Note_off_c, 2, 74, 67
4, 114560, Note_off_c, 2, 77, 67
4, 114560, Note_on_c, 2, 74, 67
4, 114624, Note_off_c, 2, 74, 67
4, 114624, Note_on_c, 2, 75, 67
4, 114688, Note_off_c, 2, 75, 67
4, 114688, Note_on_c, 2, 70, 67
4, 114688, Note_on_c, 2, 77, 67
4, 114752, Note_off_c, 2, 70, 67
4, 114752, Note_off_c, 2, 77, 67
4, 114816, Note_off_c, 2, 70, 67
4, 114816, Note_off_c, 2, 77, 67
4, 114816, Note_on_c, 2, 74, 67
4, 114816, Note_on_c, 2, 77, 67
4, 114880, Note_off_c, 2, 74, 67
4, 114880, Note_off_c, 2, 77, 67
4, 114944, Note_off_c, 2, 74, 67
4, 114944, Note_off_c, 2, 77, 67
4, 114944, Note_on_c, 2, 74, 67
4, 114944, Note_on_c, 2, 79, 67
4, 114976, Note_off_c, 2, 74, 67
4, 114976, Note_off_c, 2, 79, 67
4, 115008, Note_off_c, 2, 74, 67
4, 115008, Note_off_c, 2, 79, 67
4, 115008, Note_on_c, 2, 72, 67
4, 115008, Note_on_c, 2, 77, 67
4, 115040, Note_off_c, 2, 72, 67
4, 115040, Note_off_c, 2, 77, 67
4, 115072, Note_off_c, 2, 72, 67
4, 115072, Note_off_c, 2, 77, 67
4, 115072, Note_on_c, 2, 70, 67
4, 115072, Note_on_c, 2, 77, 67
4, 115104, Note_off_c, 2, 70, 67
4, 115104, Note_off_c, 2, 77, 67
4, 115136, Note_off_c, 2, 70, 67
4, 115136, Note_off_c, 2, 77, 67
4, 115136, Note_on_c, 2, 68, 67
4, 115136, Note_on_c, 2, 79, 67
4, 115168, Note_off_c, 2, 68, 67
4, 115168, Note_off_c, 2, 79, 67
4, 115200, Note_off_c, 2, 68, 67
4, 115200, Note_off_c, 2, 79, 67
4, 115200, Note_on_c, 2, 67, 67
4, 115200, Note_on_c, 2, 75, 67
4, 115264, Note_off_c, 2, 67, 67
4, 115264, Note_off_c, 2, 75, 67
4, 115328, Note_off_c, 2, 67, 67
4, 115328, Note_off_c, 2, 75, 67
4, 115328, Note_on_c, 2, 70, 67
4, 115392, Note_off_c, 2, 70, 67
4, 115456, Note_off_c, 2, 70, 67
4, 115456, Note_on_c, 2, 70, 67
4, 115456, Note_on_c, 2, 79, 67
4, 115520, Note_off_c, 2, 70, 67
4, 115520, Note_off_c, 2, 79, 67
4, 115584, Note_off_c, 2, 70, 67
4, 115584, Note_off_c, 2, 79, 67
4, 115584, Note_on_c, 2, 75, 67
4, 115648, Note_off_c, 2, 75, 67
4, 115648, Note_on_c, 2, 77, 67
4, 115712, Note_off_c, 2, 77, 67
4, 115712, Note_on_c, 2, 79, 67
4, 115776, Note_off_c, 2, 79, 67
4, 115840, Note_off_c, 2, 79, 67
4, 115840, Note_on_c, 2, 75, 67
4, 115840, Note_on_c, 2, 79, 67
4, 115904, Note_off_c, 2, 75, 67
4, 115904, Note_off_c, 2, 79, 67
4, 115968, Note_off_c, 2, 75, 67
4, 115968, Note_off_c, 2, 79, 67
4, 115968, Note_on_c, 2, 75, 67
4, 115968, Note_on_c, 2, 79, 67
4, 116032, Note_off_c, 2, 75, 67
4, 116032, Note_off_c, 2, 79, 67
4, 116096, Note_off_c, 2, 75, 67
4, 116096, Note_off_c, 2, 79, 67
4, 116096, Note_on_c, 2, 75, 67
4, 116160, Note_off_c, 2, 75, 67
4, 116160, Note_on_c, 2, 77, 67
4, 116224, Note_off_c, 2, 77, 67
4, 116224, Note_on_c, 2, 79, 67
4, 116288, Note_off_c, 2, 79, 67
4, 116352, Note_off_c, 2, 79, 67
4, 116352, Note_on_c, 2, 75, 67
4, 116352, Note_on_c, 2, 79, 67
4, 116416, Note_off_c, 2, 75, 67
4, 116416, Note_off_c, 2, 79, 67
4, 116480, Note_off_c, 2, 75, 67
4, 116480, Note_off_c, 2, 79, 67
4, 116480, Note_on_c, 2, 75, 67
4, 116480, Note_on_c, 2, 79, 67
4, 116544, Note_off_c, 2, 75, 67
4, 116544, Note_off_c, 2, 79, 67
4, 116608, Note_off_c, 2, 75, 67
4, 116608, Note_off_c, 2, 79, 67
4, 116608, Note_on_c, 2, 75, 67
4, 116672, Note_off_c, 2, 75, 67
4, 116672, Note_on_c, 2, 77, 67
4, 116736, Note_off_c, 2, 77, 67
4, 116736, Note_on_c, 2, 79, 67
4, 116800, Note_off_c, 2, 79, 67
4, 116864, Note_off_c, 2, 79, 67
4, 116864, Note_on_c, 2, 75, 67
4, 116864, Note_on_c, 2, 79, 67
4, 116928, Note_off_c, 2, 75, 67
4, 116928, Note_off_c, 2, 79, 67
4, 116992, Note_off_c, 2, 75, 67
4, 116992, Note_off_c, 2, 79, 67
4, 116992, Note_on_c, 2, 75, 67
4, 116992, Note_on_c, 2, 80, 67
4, 117024, Note_off_c, 2, 75, 67
4, 117024, Note_off_c, 2, 80, 67
4, 117056, Note_off_c, 2, 75, 67
4, 117056, Note_off_c, 2, 80, 67
4, 117056, Note_on_c, 2, 74, 67
4, 117120, Note_off_c, 2, 74, 67
4, 117120, Note_on_c, 2, 72, 67
4, 117184, Note_off_c, 2, 72, 67
4, 117184, Note_on_c, 2, 74, 67
4, 117184, Note_on_c, 2, 79, 67
4, 117216, Note_off_c, 2, 74, 67
4, 117216, Note_off_c, 2, 79, 67
4, 117248, Note_off_c, 2, 74, 67
4, 117248, Note_off_c, 2, 79, 67
4, 117248, Note_on_c, 2, 70, 67
4, 117248, Note_on_c, 2, 77, 67
4, 117312, Note_off_c, 2, 70, 67
4, 117312, Note_off_c, 2, 77, 67
4, 117376, Note_off_c, 2, 70, 67
4, 117376, Note_off_c, 2, 77, 67
4, 117376, Note_on_c, 2, 68, 67
4, 117376, Note_on_c, 2, 70, 67
4, 117440, Note_off_c, 2, 68, 67
4, 117440, Note_off_c, 2, 70, 67
4, 117504, Note_off_c, 2, 68, 67
4, 117504, Note_off_c, 2, 70, 67
4, 117504, Note_on_c, 2, 68, 67
4, 117504, Note_on_c, 2, 70, 67
4, 117568, Note_off_c, 2, 68, 67
4, 117568, Note_off_c, 2, 70, 67
4, 117632, Note_off_c, 2, 68, 67
4, 117632, Note_off_c, 2, 70, 67
4, 117632, Note_on_c, 2, 74, 67
4, 117696, Note_off_c, 2, 74, 67
4, 117696, Note_on_c, 2, 75, 67
4, 117760, Note_off_c, 2, 75, 67
4, 117760, Note_on_c, 2, 77, 67
4, 117888, Note_off_c, 2, 77, 67
4, 117888, Note_on_c, 2, 74, 67
4, 117888, Note_on_c, 2, 80, 67
4, 117952, Note_off_c, 2, 74, 67
4, 117952, Note_off_c, 2, 80, 67
4, 118016, Note_off_c, 2, 74, 67
4, 118016, Note_off_c, 2, 80, 67
4, 118016, Note_on_c, 2, 74, 67
4, 118016, Note_on_c, 2, 79, 67
4, 118080, Note_off_c, 2, 74, 67
4, 118080, Note_off_c, 2, 79, 67
4, 118144, Note_off_c, 2, 74, 67
4, 118144, Note_off_c, 2, 79, 67
4, 118144, Note_on_c, 2, 77, 67
4, 118208, Note_off_c, 2, 77, 67
4, 118272, Note_off_c, 2, 77, 67
4, 118272, Note_on_c, 2, 75, 67
4, 118336, Note_off_c, 2, 75, 67
4, 118400, Note_off_c, 2, 75, 67
4, 118400, Note_on_c, 2, 70, 67
4, 118400, Note_on_c, 2, 74, 67
4, 118464, Note_off_c, 2, 70, 67
4, 118464, Note_off_c, 2, 74, 67
4, 118528, Note_off_c, 2, 70, 67
4, 118528, Note_off_c, 2, 74, 67
4, 118528, Note_on_c, 2, 72, 67
4, 118528, Note_on_c, 2, 74, 67
4, 118592, Note_off_c, 2, 72, 67
4, 118592, Note_off_c, 2, 74, 67
4, 118656, Note_off_c, 2, 72, 67
4, 118656, Note_off_c, 2, 74, 67
4, 118656, Note_on_c, 2, 70, 67
4, 118656, Note_on_c, 2, 74, 67
4, 118720, Note_off_c, 2, 70, 67
4, 118720, Note_off_c, 2, 74, 67
4, 118784, Note_off_c, 2, 70, 67
4, 118784, Note_off_c, 2, 74, 67
4, 118784, Note_on_c, 2, 80, 67
4, 118784, Note_on_c, 2, 84, 67
4, 119040, Note_off_c, 2, 80, 67
4, 119040, Note_off_c, 2, 84, 67
4, 119040, Note_on_c, 2, 70, 67
4, 119040, Note_on_c, 2, 74, 67
4, 119056, Note_off_c, 2, 70, 67
4, 119056, Note_off_c, 2, 74, 67
4, 119072, Note_off_c, 2, 70, 67
4, 119072, Note_off_c, 2, 74, 67
4, 119072, Note_on_c, 2, 72, 67
4, 119072, Note_on_c, 2, 75, 67
4, 119088, Note_off_c, 2, 72, 67
4, 119088, Note_off_c, 2, 75, 67
4, 119104, Note_off_c, 2, 72, 67
4, 119104, Note_off_c, 2, 75, 67
4, 119104, Note_on_c, 2, 70, 67
4, 119104, Note_on_c, 2, 74, 67
4, 119136, Note_off_c, 2, 70, 67
4, 119136, Note_off_c, 2, 74, 67
4, 119168, Note_off_c, 2, 70, 67
4, 119168, Note_off_c, 2, 74, 67
4, 119168, Note_on_c, 2, 68, 67
4, 119168, Note_on_c, 2, 72, 67
4, 119200, Note_off_c, 2, 68, 67
4, 119200, Note_off_c, 2, 72, 67
4, 119232, Note_off_c, 2, 68, 67
4, 119232, Note_off_c, 2, 72, 67
4, 119232, Note_on_c, 2, 74, 67
4, 119232, Note_on_c, 2, 77, 67
4, 119264, Note_off_c, 2, 74, 67
4, 119264, Note_off_c, 2, 77, 67
4, 119296, Note_off_c, 2, 74, 67
4, 119296, Note_off_c, 2, 77, 67
4, 119296, Note_on_c, 2, 75, 67
4, 119296, Note_on_c, 2, 79, 67
4, 119424, Note_off_c, 2, 75, 67
4, 119424, Note_off_c, 2, 79, 67
4, 119424, Note_on_c, 2, 70, 67
4, 119488, Note_off_c, 2, 70, 67
4, 119552, Note_off_c, 2, 70, 67
4, 119552, Note_on_c, 2, 70, 67
4, 119616, Note_off_c, 2, 70, 67
4, 119680, Note_off_c, 2, 70, 67
4, 119680, Note_on_c, 2, 75, 67
4, 119680, Note_on_c, 2, 79, 67
4, 119744, Note_off_c, 2, 75, 67
4, 119744, Note_off_c, 2, 79, 67
4, 119744, Note_on_c, 2, 77, 67
4, 119744, Note_on_c, 2, 80, 67
4, 119808, Note_off_c, 2, 77, 67
4, 119808, Note_off_c, 2, 80, 67
4, 119808, Note_on_c, 2, 79, 67
4, 119808, Note_on_c, 2, 82, 67
4, 119872, Note_off_c, 2, 79, 67
4, 119872, Note_off_c, 2, 82, 67
4, 119936, Note_off_c, 2, 79, 67
4, 119936, Note_off_c, 2, 82, 67
4, 119936, Note_on_c, 2, 79, 67
4, 119936, Note_on_c, 2, 82, 67
4, 120000, Note_off_c, 2, 79, 67
4, 120000, Note_off_c, 2, 82, 67
4, 120064, Note_off_c, 2, 79, 67
4, 120064, Note_off_c, 2, 82, 67
4, 120064, Note_on_c, 2, 70, 67
4, 120064, Note_on_c, 2, 79, 67
4, 120128, Note_off_c, 2, 70, 67
4, 120128, Note_off_c, 2, 79, 67
4, 120192, Note_off_c, 2, 70, 67
4, 120192, Note_off_c, 2, 79, 67
4, 120192, Note_on_c, 2, 70, 67
4, 120192, Note_on_c, 2, 75, 67
4, 120256, Note_off_c, 2, 70, 67
4, 120256, Note_off_c, 2, 75, 67
4, 120320, Note_off_c, 2, 70, 67
4, 120320, Note_off_c, 2, 75, 67
4, 120320, Note_on_c, 2, 84, 67
4, 120320, Note_on_c, 2, 87, 67
4, 120384, Note_off_c, 2, 84, 67
4, 120384, Note_off_c, 2, 87, 67
4, 120448, Note_off_c, 2, 84, 67
4, 120448, Note_off_c, 2, 87, 67
4, 120448, Note_on_c, 2, 82, 67
4, 120448, Note_on_c, 2, 86, 67
4, 120512, Note_off_c, 2, 82, 67
4, 120512, Note_off_c, 2, 86, 67
4, 120576, Note_off_c, 2, 82, 67
4, 120576, Note_off_c, 2, 86, 67
4, 120576, Note_on_c, 2, 80, 67
4, 120576, Note_on_c, 2, 84, 67
4, 120640, Note_off_c, 2, 80, 67
4, 120640, Note_off_c, 2, 84, 67
4, 120704, Note_off_c, 2, 80, 67
4, 120704, Note_off_c, 2, 84, 67
4, 120704, Note_on_c, 2, 79, 67
4, 120704, Note_on_c, 2, 87, 67
4, 120768, Note_off_c, 2, 79, 67
4, 120768, Note_off_c, 2, 87, 67
4, 120832, Note_off_c, 2, 79, 67
4, 120832, Note_off_c, 2, 87, 67
4, 120832, Note_on_c, 2, 75, 67
4, 120832, Note_on_c, 2, 82, 67
4, 120896, Note_off_c, 2, 75, 67
4, 120896, Note_off_c, 2, 82, 67
4, 120960, Note_off_c, 2, 75, 67
4, 120960, Note_off_c, 2, 82, 67
4, 120960, Note_on_c, 2, 79, 67
4, 121024, Note_off_c, 2, 79, 67
4, 121088, Note_off_c, 2, 79, 67
4, 121088, Note_on_c, 2, 67, 67
4, 121088, Note_on_c, 2, 75, 67
4, 121152, Note_off_c, 2, 67, 67
4, 121152, Note_off_c, 2, 75, 67
4, 121216, Note_off_c, 2, 67, 67
4, 121216, Note_off_c, 2, 75, 67
4, 121216, Note_on_c, 2, 68, 67
4, 121216, Note_on_c, 2, 74, 67
4, 121248, Note_off_c, 2, 68, 67
4, 121248, Note_off_c, 2, 74, 67
4, 121280, Note_off_c, 2, 68, 67
4, 121280, Note_off_c, 2, 74, 67
4, 121280, Note_on_c, 2, 74, 67
4, 121280, Note_on_c, 2, 79, 67
4, 121312, Note_off_c, 2, 74, 67
4, 121312, Note_off_c, 2, 79, 67
4, 121344, Note_off_c, 2, 74, 67
4, 121344, Note_off_c, 2, 79, 67
4, 121344, Note_on_c, 2, 70, 67
4, 121344, Note_on_c, 2, 77, 67
4, 121408, Note_off_c, 2, 70, 67
4, 121408, Note_off_c, 2, 77, 67
4, 121472, Note_off_c, 2, 70, 67
4, 121472, Note_off_c, 2, 77, 67
4, 121472, Note_on_c, 2, 65, 67
4, 121472, Note_on_c, 2, 70, 67
4, 121536, Note_off_c, 2, 65, 67
4, 121536, Note_off_c, 2, 70, 67
4, 121600, Note_off_c, 2, 65, 67
4, 121600, Note_off_c, 2, 70, 67
4, 121600, Note_on_c, 2, 68, 67
4, 121600, Note_on_c, 2, 70, 67
4, 121664, Note_off_c, 2, 68, 67
4, 121664, Note_off_c, 2, 70, 67
4, 121728, Note_off_c, 2, 68, 67
4, 121728, Note_off_c, 2, 70, 67
4, 121728, Note_on_c, 2, 70, 67
4, 121728, Note_on_c, 2, 79, 67
4, 121792, Note_off_c, 2, 70, 67
4, 121792, Note_off_c, 2, 79, 67
4, 121792, Note_on_c, 2, 77, 67
4, 121792, Note_on_c, 2, 80, 67
4, 121856, Note_off_c, 2, 77, 67
4, 121856, Note_off_c, 2, 80, 67
4, 121856, Note_on_c, 2, 79, 67
4, 121856, Note_on_c, 2, 82, 67
4, 121920, Note_off_c, 2, 79, 67
4, 121920, Note_off_c, 2, 82, 67
4, 121984, Note_off_c, 2, 79, 67
4, 121984, Note_off_c, 2, 82, 67
4, 121984, Note_on_c, 2, 79, 67
4, 121984, Note_on_c, 2, 82, 67
4, 122048, Note_off_c, 2, 79, 67
4, 122048, Note_off_c, 2, 82, 67
4, 122112, Note_off_c, 2, 79, 67
4, 122112, Note_off_c, 2, 82, 67
4, 122112, Note_on_c, 2, 70, 67
4, 122112, Note_on_c, 2, 79, 67
4, 122176, Note_off_c, 2, 70, 67
4, 122176, Note_off_c, 2, 79, 67
4, 122240, Note_off_c, 2, 70, 67
4, 122240, Note_off_c, 2, 79, 67
4, 122240, Note_on_c, 2, 75, 67
4, 122240, Note_on_c, 2, 82, 67
4, 122304, Note_off_c, 2, 75, 67
4, 122304, Note_off_c, 2, 82, 67
4, 122368, Note_off_c, 2, 75, 67
4, 122368, Note_off_c, 2, 82, 67
4, 122368, Note_on_c, 2, 84, 67
4, 122368, Note_on_c, 2, 87, 67
4, 122432, Note_off_c, 2, 84, 67
4, 122432, Note_off_c, 2, 87, 67
4, 122496, Note_off_c, 2, 84, 67
4, 122496, Note_off_c, 2, 87, 67
4, 122496, Note_on_c, 2, 82, 67
4, 122496, Note_on_c, 2, 86, 67
4, 122560, Note_off_c, 2, 82, 67
4, 122560, Note_off_c, 2, 86, 67
4, 122624, Note_off_c, 2, 82, 67
4, 122624, Note_off_c, 2, 86, 67
4, 122624, Note_on_c, 2, 80, 67
4, 122624, Note_on_c, 2, 84, 67
4, 122688, Note_off_c, 2, 80, 67
4, 122688, Note_off_c, 2, 84, 67
4, 122752, Note_off_c, 2, 80, 67
4, 122752, Note_off_c, 2, 84, 67
4, 122752, Note_on_c, 2, 70, 67
4, 122752, Note_on_c, 2, 74, 67
4, 122784, Note_off_c, 2, 70, 67
4, 122784, Note_off_c, 2, 74, 67
4, 122816, Note_off_c, 2, 70, 67
4, 122816, Note_off_c, 2, 74, 67
4, 122816, Note_on_c, 2, 77, 67
4, 122816, Note_on_c, 2, 80, 67
4, 122848, Note_off_c, 2, 77, 67
4, 122848, Note_off_c, 2, 80, 67
4, 122880, Note_off_c, 2, 77, 67
4, 122880, Note_off_c, 2, 80, 67
4, 122880, Note_on_c, 2, 77, 67
4, 122880, Note_on_c, 2, 82, 67
4, 122944, Note_off_c, 2, 77, 67
4, 122944, Note_off_c, 2, 82, 67
4, 123008, Note_off_c, 2, 77, 67
4, 123008, Note_off_c, 2, 82, 67
4, 123008, Note_on_c, 2, 80, 67
4, 123008, Note_on_c, 2, 87, 67
4, 123072, Note_off_c, 2, 80, 67
4, 123072, Note_off_c, 2, 87, 67
4, 123136, Note_off_c, 2, 80, 67
4, 123136, Note_off_c, 2, 87, 67
4, 123136, Note_on_c, 2, 82, 67
4, 123136, Note_on_c, 2, 86, 67
4, 123200, Note_off_c, 2, 82, 67
4, 123200, Note_off_c, 2, 86, 67
4, 123264, Note_off_c, 2, 82, 67
4, 123264, Note_off_c, 2, 86, 67
4, 123264, Note_on_c, 2, 80, 67
4, 123264, Note_on_c, 2, 89, 67
4, 123328, Note_off_c, 2, 80, 67
4, 123328, Note_off_c, 2, 89, 67
4, 123392, Note_off_c, 2, 80, 67
4, 123392, Note_off_c, 2, 89, 67
4, 123392, Note_on_c, 2, 79, 67
4, 123392, Note_on_c, 2, 87, 67
4, 123456, Note_off_c, 2, 79, 67
4, 123456, Note_off_c, 2, 87, 67
4, 123520, Note_off_c, 2, 79, 67
4, 123520, Note_off_c, 2, 87, 67
4, 123520, Note_on_c, 2, 70, 67
4, 123520, Note_on_c, 2, 82, 67
4, 123584, Note_off_c, 2, 70, 67
4, 123584, Note_off_c, 2, 82, 67
4, 123648, Note_off_c, 2, 70, 67
4, 123648, Note_off_c, 2, 82, 67
4, 123648, Note_on_c, 2, 70, 67
4, 123648, Note_on_c, 2, 82, 67
4, 123712, Note_off_c, 2, 70, 67
4, 123712, Note_off_c, 2, 82, 67
4, 123776, Note_off_c, 2, 70, 67
4, 123776, Note_off_c, 2, 82, 67
4, 123776, Note_on_c, 2, 75, 67
4, 123840, Note_off_c, 2, 75, 67
4, 123840, Note_on_c, 2, 77, 67
4, 123904, Note_off_c, 2, 77, 67
4, 123904, Note_on_c, 2, 79, 67
4, 123968, Note_off_c, 2, 79, 67
4, 124032, Note_off_c, 2, 79, 67
4, 124032, Note_on_c, 2, 75, 67
4, 124032, Note_on_c, 2, 79, 67
4, 124096, Note_off_c, 2, 75, 67
4, 124096, Note_off_c, 2, 79, 67
4, 124160, Note_off_c, 2, 75, 67
4, 124160, Note_off_c, 2, 79, 67
4, 124160, Note_on_c, 2, 75, 67
4, 124160, Note_on_c, 2, 79, 67
4, 124224, Note_off_c, 2, 75, 67
4, 124224, Note_off_c, 2, 79, 67
4, 124288, Note_off_c, 2, 75, 67
4, 124288, Note_off_c, 2, 79, 67
4, 124288, Note_on_c, 2, 75, 67
4, 124352, Note_off_c, 2, 75, 67
4, 124352, Note_on_c, 2, 77, 67
4, 124416, Note_off_c, 2, 77, 67
4, 124416, Note_on_c, 2, 79, 67
4, 124480, Note_off_c, 2, 79, 67
4, 124544, Note_off_c, 2, 79, 67
4, 124544, Note_on_c, 2, 75, 67
4, 124544, Note_on_c, 2, 79, 67
4, 124608, Note_off_c, 2, 75, 67
4, 124608, Note_off_c, 2, 79, 67
4, 124672, Note_off_c, 2, 75, 67
4, 124672, Note_off_c, 2, 79, 67
4, 124672, Note_on_c, 2, 75, 67
4, 124672, Note_on_c, 2, 79, 67
4, 124736, Note_off_c, 2, 75, 67
4, 124736, Note_off_c, 2, 79, 67
4, 124800, Note_off_c, 2, 75, 67
4, 124800, Note_off_c, 2, 79, 67
4, 124800, Note_on_c, 2, 75, 67
4, 124864, Note_off_c, 2, 75, 67
4, 124864, Note_on_c, 2, 77, 67
4, 124928, Note_off_c, 2, 77, 67
4, 124928, Note_on_c, 2, 79, 67
4, 124992, Note_off_c, 2, 79, 67
4, 125056, Note_off_c, 2, 79, 67
4, 125056, Note_on_c, 2, 75, 67
4, 125056, Note_on_c, 2, 79, 67
4, 125120, Note_off_c, 2, 75, 67
4, 125120, Note_off_c, 2, 79, 67
4, 125184, Note_off_c, 2, 75, 67
4, 125184, Note_off_c, 2, 79, 67
4, 125184, Note_on_c, 2, 75, 67
4, 125184, Note_on_c, 2, 80, 67
4, 125216, Note_off_c, 2, 75, 67
4, 125216, Note_off_c, 2, 80, 67
4, 125248, Note_off_c, 2, 75, 67
4, 125248, Note_off_c, 2, 80, 67
4, 125248, Note_on_c, 2, 74, 67
4, 125280, Note_off_c, 2, 74, 67
4, 125312, Note_off_c, 2, 74, 67
4, 125312, Note_on_c, 2, 72, 67
4, 125344, Note_off_c, 2, 72, 67
4, 125376, Note_off_c, 2, 72, 67
4, 125376, Note_on_c, 2, 74, 67
4, 125376, Note_on_c, 2, 79, 67
4, 125408, Note_off_c, 2, 74, 67
4, 125408, Note_off_c, 2, 79, 67
4, 125440, Note_off_c, 2, 74, 67
4, 125440, Note_off_c, 2, 79, 67
4, 125440, Note_on_c, 2, 70, 67
4, 125440, Note_on_c, 2, 77, 67
4, 125504, Note_off_c, 2, 70, 67
4, 125504, Note_off_c, 2, 77, 67
4, 125568, Note_off_c, 2, 70, 67
4, 125568, Note_off_c, 2, 77, 67
4, 125568, Note_on_c, 2, 68, 67
4, 125568, Note_on_c, 2, 70, 67
4, 125632, Note_off_c, 2, 68, 67
4, 125632, Note_off_c, 2, 70, 67
4, 125696, Note_off_c, 2, 68, 67
4, 125696, Note_off_c, 2, 70, 67
4, 125696, Note_on_c, 2, 68, 67
4, 125696, Note_on_c, 2, 70, 67
4, 125760, Note_off_c, 2, 68, 67
4, 125760, Note_off_c, 2, 70, 67
4, 125824, Note_off_c, 2, 68, 67
4, 125824, Note_off_c, 2, 70, 67
4, 125824, Note_on_c, 2, 74, 67
4, 125888, Note_off_c, 2, 74, 67
4, 125888, Note_on_c, 2, 75, 67
4, 125952, Note_off_c, 2, 75, 67
4, 125952, Note_on_c, 2, 77, 67
4, 126016, Note_off_c, 2, 77, 67
4, 126080, Note_off_c, 2, 77, 67
4, 126080, Note_on_c, 2, 74, 67
4, 126080, Note_on_c, 2, 77, 67
4, 126144, Note_off_c, 2, 74, 67
4, 126144, Note_off_c, 2, 77, 67
4, 126208, Note_off_c, 2, 74, 67
4, 126208, Note_off_c, 2, 77, 67
4, 126208, Note_on_c, 2, 74, 67
4, 126208, Note_on_c, 2, 77, 67
4, 126272, Note_off_c, 2, 74, 67
4, 126272, Note_off_c, 2, 77, 67
4, 126336, Note_off_c, 2, 74, 67
4, 126336, Note_off_c, 2, 77, 67
4, 126336, Note_on_c, 2, 74, 67
4, 126400, Note_off_c, 2, 74, 67
4, 126400, Note_on_c, 2, 75, 67
4, 126464, Note_off_c, 2, 75, 67
4, 126464, Note_on_c, 2, 77, 67
4, 126528, Note_off_c, 2, 77, 67
4, 126592, Note_off_c, 2, 77, 67
4, 126592, Note_on_c, 2, 74, 67
4, 126592, Note_on_c, 2, 77, 67
4, 126656, Note_off_c, 2, 74, 67
4, 126656, Note_off_c, 2, 77, 67
4, 126720, Note_off_c, 2, 74, 67
4, 126720, Note_off_c, 2, 77, 67
4, 126720, Note_on_c, 2, 74, 67
4, 126720, Note_on_c, 2, 77, 67
4, 126784, Note_off_c, 2, 74, 67
4, 126784, Note_off_c, 2, 77, 67
4, 126848, Note_off_c, 2, 74, 67
4, 126848, Note_off_c, 2, 77, 67
4, 126848, Note_on_c, 2, 74, 67
4, 126912, Note_off_c, 2, 74, 67
4, 126912, Note_on_c, 2, 75, 67
4, 126976, Note_off_c, 2, 75, 67
4, 126976, Note_on_c, 2, 70, 67
4, 126976, Note_on_c, 2, 77, 67
4, 127040, Note_off_c, 2, 70, 67
4, 127040, Note_off_c, 2, 77, 67
4, 127104, Note_off_c, 2, 70, 67
4, 127104, Note_off_c, 2, 77, 67
4, 127104, Note_on_c, 2, 74, 67
4, 127104, Note_on_c, 2, 77, 67
4, 127168, Note_off_c, 2, 74, 67
4, 127168, Note_off_c, 2, 77, 67
4, 127232, Note_off_c, 2, 74, 67
4, 127232, Note_off_c, 2, 77, 67
4, 127232, Note_on_c, 2, 74, 67
4, 127232, Note_on_c, 2, 79, 67
4, 127264, Note_off_c, 2, 74, 67
4, 127264, Note_off_c, 2, 79, 67
4, 127296, Note_off_c, 2, 74, 67
4, 127296, Note_off_c, 2, 79, 67
4, 127296, Note_on_c, 2, 72, 67
4, 127296, Note_on_c, 2, 77, 67
4, 127328, Note_off_c, 2, 72, 67
4, 127328, Note_off_c, 2, 77, 67
4, 127360, Note_off_c, 2, 72, 67
4, 127360, Note_off_c, 2, 77, 67
4, 127360, Note_on_c, 2, 70, 67
4, 127360, Note_on_c, 2, 77, 67
4, 127392, Note_off_c, 2, 70, 67
4, 127392, Note_off_c, 2, 77, 67
4, 127424, Note_off_c, 2, 70, 67
4, 127424, Note_off_c, 2, 77, 67
4, 127424, Note_on_c, 2, 68, 67
4, 127424, Note_on_c, 2, 79, 67
4, 127456, Note_off_c, 2, 68, 67
4, 127456, Note_off_c, 2, 79, 67
4, 127488, Note_off_c, 2, 68, 67
4, 127488, Note_off_c, 2, 79, 67
4, 127488, Note_on_c, 2, 67, 67
4, 127488, Note_on_c, 2, 75, 67
4, 127552, Note_off_c, 2, 67, 67
4, 127552, Note_off_c, 2, 75, 67
4, 127616, Note_off_c, 2, 67, 67
4, 127616, Note_off_c, 2, 75, 67
4, 127616, Note_on_c, 2, 70, 67
4, 127680, Note_off_c, 2, 70, 67
4, 127744, Note_off_c, 2, 70, 67
4, 127744, Note_on_c, 2, 70, 67
4, 127744, Note_on_c, 2, 79, 67
4, 127808, Note_off_c, 2, 70, 67
4, 127808, Note_off_c, 2, 79, 67
4, 127872, Note_off_c, 2, 70, 67
4, 127872, Note_off_c, 2, 79, 67
4, 127872, Note_on_c, 2, 75, 67
4, 127936, Note_off_c, 2, 75, 67
4, 127936, Note_on_c, 2, 77, 67
4, 128000, Note_off_c, 2, 77, 67
4, 128000, Note_on_c, 2, 79, 67
4, 128064, Note_off_c, 2, 79, 67
4, 128128, Note_off_c, 2, 79, 67
4, 128128, Note_on_c, 2, 75, 67
4, 128128, Note_on_c, 2, 79, 67
4, 128192, Note_off_c, 2, 75, 67
4, 128192, Note_off_c, 2, 79, 67
4, 128256, Note_off_c, 2, 75, 67
4, 128256, Note_off_c, 2, 79, 67
4, 128256, Note_on_c, 2, 75, 67
4, 128256, Note_on_c, 2, 79, 67
4, 128320, Note_off_c, 2, 75, 67
4, 128320, Note_off_c, 2, 79, 67
4, 128384, Note_off_c, 2, 75, 67
4, 128384, Note_off_c, 2, 79, 67
4, 128384, Note_on_c, 2, 75, 67
4, 128448, Note_off_c, 2, 75, 67
4, 128448, Note_on_c, 2, 77, 67
4, 128512, Note_off_c, 2, 77, 67
4, 128512, Note_on_c, 2, 79, 67
4, 128576, Note_off_c, 2, 79, 67
4, 128640, Note_off_c, 2, 79, 67
4, 128640, Note_on_c, 2, 75, 67
4, 128640, Note_on_c, 2, 79, 67
4, 128704, Note_off_c, 2, 75, 67
4, 128704, Note_off_c, 2, 79, 67
4, 128768, Note_off_c, 2, 75, 67
4, 128768, Note_off_c, 2, 79, 67
4, 128768, Note_on_c, 2, 75, 67
4, 128768, Note_on_c, 2, 79, 67
4, 128832, Note_off_c, 2, 75, 67
4, 128832, Note_off_c, 2, 79, 67
4, 128896, Note_off_c, 2, 75, 67
4, 128896, Note_off_c, 2, 79, 67
4, 128896, Note_on_c, 2, 75, 67
4, 128960, Note_off_c, 2, 75, 67
4, 128960, Note_on_c, 2, 77, 67
4, 129024, Note_off_c, 2, 77, 67
4, 129024, Note_on_c, 2, 79, 67
4, 129088, Note_off_c, 2, 79, 67
4, 129152, Note_off_c, 2, 79, 67
4, 129152, Note_on_c, 2, 75, 67
4, 129152, Note_on_c, 2, 79, 67
4, 129216, Note_off_c, 2, 75, 67
4, 129216, Note_off_c, 2, 79, 67
4, 129280, Note_off_c, 2, 75, 67
4, 129280, Note_off_c, 2, 79, 67
4, 129280, Note_on_c, 2, 75, 67
4, 129280, Note_on_c, 2, 80, 67
4, 129312, Note_off_c, 2, 75, 67
4, 129312, Note_off_c, 2, 80, 67
4, 129344, Note_off_c, 2, 75, 67
4, 129344, Note_off_c, 2, 80, 67
4, 129344, Note_on_c, 2, 74, 67
4, 129408, Note_off_c, 2, 74, 67
4, 129408, Note_on_c, 2, 72, 67
4, 129472, Note_off_c, 2, 72, 67
4, 129472, Note_on_c, 2, 74, 67
4, 129472, Note_on_c, 2, 79, 67
4, 129504, Note_off_c, 2, 74, 67
4, 129504, Note_off_c, 2, 79, 67
4, 129536, Note_off_c, 2, 74, 67
4, 129536, Note_off_c, 2, 79, 67
4, 129536, Note_on_c, 2, 70, 67
4, 129536, Note_on_c, 2, 77, 67
4, 129600, Note_off_c, 2, 70, 67
4, 129600, Note_off_c, 2, 77, 67
4, 129664, Note_off_c, 2, 70, 67
4, 129664, Note_off_c, 2, 77, 67
4, 129664, Note_on_c, 2, 68, 67
4, 129664, Note_on_c, 2, 70, 67
4, 129728, Note_off_c, 2, 68, 67
4, 129728, Note_off_c, 2, 70, 67
4, 129792, Note_off_c, 2, 68, 67
4, 129792, Note_off_c, 2, 70, 67
4, 129792, Note_on_c, 2, 68, 67
4, 129792, Note_on_c, 2, 70, 67
4, 129856, Note_off_c, 2, 68, 67
4, 129856, Note_off_c, 2, 70, 67
4, 129920, Note_off_c, 2, 68, 67
4, 129920, Note_off_c, 2, 70, 67
4, 129920, Note_on_c, 2, 74, 67
4, 129984, Note_off_c, 2, 74, 67
4, 129984, Note_on_c, 2, 75, 67
4, 130048, Note_off_c, 2, 75, 67
4, 130048, Note_on_c, 2, 77, 67
4, 130176, Note_off_c, 2, 77, 67
4, 130176, Note_on_c, 2, 74, 67
4, 130176, Note_on_c, 2, 80, 67
4, 130240, Note_off_c, 2, 74, 67
4, 130240, Note_off_c, 2, 80, 67
4, 130304, Note_off_c, 2, 74, 67
4, 130304, Note_off_c, 2, 80, 67
4, 130304, Note_on_c, 2, 74, 67
4, 130304, Note_on_c, 2, 79, 67
4, 130368, Note_off_c, 2, 74, 67
4, 130368, Note_off_c, 2, 79, 67
4, 130432, Note_off_c, 2, 74, 67
4, 130432, Note_off_c, 2, 79, 67
4, 130432, Note_on_c, 2, 77, 67
4, 130496, Note_off_c, 2, 77, 67
4, 130560, Note_off_c, 2, 77, 67
4, 130560, Note_on_c, 2, 75, 67
4, 130624, Note_off_c, 2, 75, 67
4, 130688, Note_off_c, 2, 75, 67
4, 130688, Note_on_c, 2, 70, 67
4, 130688, Note_on_c, 2, 74, 67
4, 130752, Note_off_c, 2, 70, 67
4, 130752, Note_off_c, 2, 74, 67
4, 130816, Note_off_c, 2, 70, 67
4, 130816, Note_off_c, 2, 74, 67
4, 130816, Note_on_c, 2, 72, 67
4, 130816, Note_on_c, 2, 74, 67
4, 130880, Note_off_c, 2, 72, 67
4, 130880, Note_off_c, 2, 74, 67
4, 130944, Note_off_c, 2, 72, 67
4, 130944, Note_off_c, 2, 74, 67
4, 130944, Note_on_c, 2, 70, 67
4, 130944, Note_on_c, 2, 74, 67
4, 131008, Note_off_c, 2, 70, 67
4, 131008, Note_off_c, 2, 74, 67
4, 131072, Note_off_c, 2, 70, 67
4, 131072, Note_off_c, 2, 74, 67
4, 131072, Note_on_c, 2, 80, 67
4, 131072, Note_on_c, 2, 84, 67
4, 131328, Note_off_c, 2, 80, 67
4, 131328, Note_off_c, 2, 84, 67
4, 131328, Note_on_c, 2, 70, 67
4, 131328, Note_on_c, 2, 74, 67
4, 131344, Note_off_c, 2, 70, 67
4, 131344, Note_off_c, 2, 74, 67
4, 131360, Note_off_c, 2, 70, 67
4, 131360, Note_off_c, 2, 74, 67
4, 131360, Note_on_c, 2, 72, 67
4, 131360, Note_on_c, 2, 75, 67
4, 131376, Note_off_c, 2, 72, 67
4, 131376, Note_off_c, 2, 75, 67
4, 131392, Note_off_c, 2, 72, 67
4, 131392, Note_off_c, 2, 75, 67
4, 131392, Note_on_c, 2, 70, 67
4, 131392, Note_on_c, 2, 74, 67
4, 131424, Note_off_c, 2, 70, 67
4, 131424, Note_off_c, 2, 74, 67
4, 131456, Note_off_c, 2, 70, 67
4, 131456, Note_off_c, 2, 74, 67
4, 131456, Note_on_c, 2, 68, 67
4, 131456, Note_on_c, 2, 72, 67
4, 131488, Note_off_c, 2, 68, 67
4, 131488, Note_off_c, 2, 72, 67
4, 131520, Note_off_c, 2, 68, 67
4, 131520, Note_off_c, 2, 72, 67
4, 131520, Note_on_c, 2, 74, 67
4, 131520, Note_on_c, 2, 77, 67
4, 131552, Note_off_c, 2, 74, 67
4, 131552, Note_off_c, 2, 77, 67
4, 131584, Note_off_c, 2, 74, 67
4, 131584, Note_off_c, 2, 77, 67
4, 131584, Note_on_c, 2, 75, 67
4, 131584, Note_on_c, 2, 79, 67
4, 131712, Note_off_c, 2, 75, 67
4, 131712, Note_off_c, 2, 79, 67
4, 131712, Note_on_c, 2, 70, 67
4, 131776, Note_off_c, 2, 70, 67
4, 131840, Note_off_c, 2, 70, 67
4, 131840, Note_on_c, 2, 70, 67
4, 131904, Note_off_c, 2, 70, 67
4, 131968, Note_off_c, 2, 70, 67
4, 131968, Note_on_c, 2, 75, 67
4, 131968, Note_on_c, 2, 79, 67
4, 132032, Note_off_c, 2, 75, 67
4, 132032, Note_off_c, 2, 79, 67
4, 132032, Note_on_c, 2, 77, 67
4, 132032, Note_on_c, 2, 80, 67
4, 132096, Note_off_c, 2, 77, 67
4, 132096, Note_off_c, 2, 80, 67
4, 132096, Note_on_c, 2, 79, 67
4, 132096, Note_on_c, 2, 82, 67
4, 132160, Note_off_c, 2, 79, 67
4, 132160, Note_off_c, 2, 82, 67
4, 132224, Note_off_c, 2, 79, 67
4, 132224, Note_off_c, 2, 82, 67
4, 132224, Note_on_c, 2, 79, 67
4, 132224, Note_on_c, 2, 82, 67
4, 132288, Note_off_c, 2, 79, 67
4, 132288, Note_off_c, 2, 82, 67
4, 132352, Note_off_c, 2, 79, 67
4, 132352, Note_off_c, 2, 82, 67
4, 132352, Note_on_c, 2, 70, 67
4, 132352, Note_on_c, 2, 79, 67
4, 132416, Note_off_c, 2, 70, 67
4, 132416, Note_off_c, 2, 79, 67
4, 132480, Note_off_c, 2, 70, 67
4, 132480, Note_off_c, 2, 79, 67
4, 132480, Note_on_c, 2, 70, 67
4, 132480, Note_on_c, 2, 75, 67
4, 132544, Note_off_c, 2, 70, 67
4, 132544, Note_off_c, 2, 75, 67
4, 132608, Note_off_c, 2, 70, 67
4, 132608, Note_off_c, 2, 75, 67
4, 132608, Note_on_c, 2, 84, 67
4, 132608, Note_on_c, 2, 87, 67
4, 132672, Note_off_c, 2, 84, 67
4, 132672, Note_off_c, 2, 87, 67
4, 132736, Note_off_c, 2, 84, 67
4, 132736, Note_off_c, 2, 87, 67
4, 132736, Note_on_c, 2, 82, 67
4, 132736, Note_on_c, 2, 86, 67
4, 132800, Note_off_c, 2, 82, 67
4, 132800, Note_off_c, 2, 86, 67
4, 132864, Note_off_c, 2, 82, 67
4, 132864, Note_off_c, 2, 86, 67
4, 132864, Note_on_c, 2, 80, 67
4, 132864, Note_on_c, 2, 84, 67
4, 132928, Note_off_c, 2, 80, 67
4, 132928, Note_off_c, 2, 84, 67
4, 132992, Note_off_c, 2, 80, 67
4, 132992, Note_off_c, 2, 84, 67
4, 132992, Note_on_c, 2, 79, 67
4, 132992, Note_on_c, 2, 87, 67
4, 133056, Note_off_c, 2, 79, 67
4, 133056, Note_off_c, 2, 87, 67
4, 133120, Note_off_c, 2, 79, 67
4, 133120, Note_off_c, 2, 87, 67
4, 133120, Note_on_c, 2, 75, 67
4, 133120, Note_on_c, 2, 82, 67
4, 133184, Note_off_c, 2, 75, 67
4, 133184, Note_off_c, 2, 82, 67
4, 133248, Note_off_c, 2, 75, 67
4, 133248, Note_off_c, 2, 82, 67
4, 133248, Note_on_c, 2, 79, 67
4, 133312, Note_off_c, 2, 79, 67
4, 133376, Note_off_c, 2, 79, 67
4, 133376, Note_on_c, 2, 67, 67
4, 133376, Note_on_c, 2, 75, 67
4, 133440, Note_off_c, 2, 67, 67
4, 133440, Note_off_c, 2, 75, 67
4, 133504, Note_off_c, 2, 67, 67
4, 133504, Note_off_c, 2, 75, 67
4, 133504, Note_on_c, 2, 68, 67
4, 133504, Note_on_c, 2, 74, 67
4, 133536, Note_off_c, 2, 68, 67
4, 133536, Note_off_c, 2, 74, 67
4, 133568, Note_off_c, 2, 68, 67
4, 133568, Note_off_c, 2, 74, 67
4, 133568, Note_on_c, 2, 74, 67
4, 133568, Note_on_c, 2, 79, 67
4, 133600, Note_off_c, 2, 74, 67
4, 133600, Note_off_c, 2, 79, 67
4, 133632, Note_off_c, 2, 74, 67
4, 133632, Note_off_c, 2, 79, 67
4, 133632, Note_on_c, 2, 70, 67
4, 133632, Note_on_c, 2, 77, 67
4, 133696, Note_off_c, 2, 70, 67
4, 133696, Note_off_c, 2, 77, 67
4, 133760, Note_off_c, 2, 70, 67
4, 133760, Note_off_c, 2, 77, 67
4, 133760, Note_on_c, 2, 65, 67
4, 133760, Note_on_c, 2, 70, 67
4, 133824, Note_off_c, 2, 65, 67
4, 133824, Note_off_c, 2, 70, 67
4, 133888, Note_off_c, 2, 65, 67
4, 133888, Note_off_c, 2, 70, 67
4, 133888, Note_on_c, 2, 68, 67
4, 133888, Note_on_c, 2, 70, 67
4, 133952, Note_off_c, 2, 68, 67
4, 133952, Note_off_c, 2, 70, 67
4, 134016, Note_off_c, 2, 68, 67
4, 134016, Note_off_c, 2, 70, 67
4, 134016, Note_on_c, 2, 70, 67
4, 134016, Note_on_c, 2, 79, 67
4, 134080, Note_off_c, 2, 70, 67
4, 134080, Note_off_c, 2, 79, 67
4, 134080, Note_on_c, 2, 77, 67
4, 134080, Note_on_c, 2, 80, 67
4, 134144, Note_off_c, 2, 77, 67
4, 134144, Note_off_c, 2, 80, 67
4, 134144, Note_on_c, 2, 79, 67
4, 134144, Note_on_c, 2, 82, 67
4, 134208, Note_off_c, 2, 79, 67
4, 134208, Note_off_c, 2, 82, 67
4, 134272, Note_off_c, 2, 79, 67
4, 134272, Note_off_c, 2, 82, 67
4, 134272, Note_on_c, 2, 79, 67
4, 134272, Note_on_c, 2, 82, 67
4, 134336, Note_off_c, 2, 79, 67
4, 134336, Note_off_c, 2, 82, 67
4, 134400, Note_off_c, 2, 79, 67
4, 134400, Note_off_c, 2, 82, 67
4, 134400, Note_on_c, 2, 70, 67
4, 134400, Note_on_c, 2, 79, 67
4, 134464, Note_off_c, 2, 70, 67
4, 134464, Note_off_c, 2, 79, 67
4, 134528, Note_off_c, 2, 70, 67
4, 134528, Note_off_c, 2, 79, 67
4, 134528, Note_on_c, 2, 75, 67
4, 134528, Note_on_c, 2, 82, 67
4, 134592, Note_off_c, 2, 75, 67
4, 134592, Note_off_c, 2, 82, 67
4, 134656, Note_off_c, 2, 75, 67
4, 134656, Note_off_c, 2, 82, 67
4, 134656, Note_on_c, 2, 84, 67
4, 134656, Note_on_c, 2, 87, 67
4, 134720, Note_off_c, 2, 84, 67
4, 134720, Note_off_c, 2, 87, 67
4, 134784, Note_off_c, 2, 84, 67
4, 134784, Note_off_c, 2, 87, 67
4, 134784, Note_on_c, 2, 82, 67
4, 134784, Note_on_c, 2, 86, 67
4, 134848, Note_off_c, 2, 82, 67
4, 134848, Note_off_c, 2, 86, 67
4, 134912, Note_off_c, 2, 82, 67
4, 134912, Note_off_c, 2, 86, 67
4, 134912, Note_on_c, 2, 80, 67
4, 134912, Note_on_c, 2, 84, 67
4, 134976, Note_off_c, 2, 80, 67
4, 134976, Note_off_c, 2, 84, 67
4, 135040, Note_off_c, 2, 80, 67
4, 135040, Note_off_c, 2, 84, 67
4, 135040, Note_on_c, 2, 70, 67
4, 135040, Note_on_c, 2, 74, 67
4, 135072, Note_off_c, 2, 70, 67
4, 135072, Note_off_c, 2, 74, 67
4, 135104, Note_off_c, 2, 70, 67
4, 135104, Note_off_c, 2, 74, 67
4, 135104, Note_on_c, 2, 77, 67
4, 135104, Note_on_c, 2, 80, 67
4, 135136, Note_off_c, 2, 77, 67
4, 135136, Note_off_c, 2, 80, 67
4, 135168, Note_off_c, 2, 77, 67
4, 135168, Note_off_c, 2, 80, 67
4, 135168, Note_on_c, 2, 77, 67
4, 135168, Note_on_c, 2, 82, 67
4, 135232, Note_off_c, 2, 77, 67
4, 135232, Note_off_c, 2, 82, 67
4, 135296, Note_off_c, 2, 77, 67
4, 135296, Note_off_c, 2, 82, 67
4, 135296, Note_on_c, 2, 80, 67
4, 135296, Note_on_c, 2, 87, 67
4, 135360, Note_off_c, 2, 80, 67
4, 135360, Note_off_c, 2, 87, 67
4, 135424, Note_off_c, 2, 80, 67
4, 135424, Note_off_c, 2, 87, 67
4, 135424, Note_on_c, 2, 82, 67
4, 135424, Note_on_c, 2, 86, 67
4, 135488, Note_off_c, 2, 82, 67
4, 135488, Note_off_c, 2, 86, 67
4, 135552, Note_off_c, 2, 82, 67
4, 135552, Note_off_c, 2, 86, 67
4, 135552, Note_on_c, 2, 80, 67
4, 135552, Note_on_c, 2, 89, 67
4, 135616, Note_off_c, 2, 80, 67
4, 135616, Note_off_c, 2, 89, 67
4, 135680, Note_off_c, 2, 80, 67
4, 135680, Note_off_c, 2, 89, 67
4, 135680, Note_on_c, 2, 79, 67
4, 135680, Note_on_c, 2, 87, 67
4, 135744, Note_off_c, 2, 79, 67
4, 135744, Note_off_c, 2, 87, 67
4, 135808, Note_off_c, 2, 79, 67
4, 135808, Note_off_c, 2, 87, 67
4, 135808, Note_on_c, 2, 70, 67
4, 135808, Note_on_c, 2, 82, 67
4, 135872, Note_off_c, 2, 70, 67
4, 135872, Note_off_c, 2, 82, 67
4, 135936, Note_off_c, 2, 70, 67
4, 135936, Note_off_c, 2, 82, 67
4, 135936, Note_on_c, 2, 70, 67
4, 135936, Note_on_c, 2, 82, 67
4, 136000, Note_off_c, 2, 70, 67
4, 136000, Note_off_c, 2, 82, 67
4, 136064, Note_off_c, 2, 70, 67
4, 136064, Note_off_c, 2, 82, 67
4, 136064, Note_on_c, 2, 75, 67
4, 136128, Note_off_c, 2, 75, 67
4, 136128, Note_on_c, 2, 77, 67
4, 136192, Note_off_c, 2, 77, 67
4, 136192, Note_on_c, 2, 79, 67
4, 136256, Note_off_c, 2, 79, 67
4, 136320, Note_off_c, 2, 79, 67
4, 136320, Note_on_c, 2, 75, 67
4, 136320, Note_on_c, 2, 79, 67
4, 136384, Note_off_c, 2, 75, 67
4, 136384, Note_off_c, 2, 79, 67
4, 136448, Note_off_c, 2, 75, 67
4, 136448, Note_off_c, 2, 79, 67
4, 136448, Note_on_c, 2, 75, 67
4, 136448, Note_on_c, 2, 79, 67
4, 136512, Note_off_c, 2, 75, 67
4, 136512, Note_off_c, 2, 79, 67
4, 136576, Note_off_c, 2, 75, 67
4, 136576, Note_off_c, 2, 79, 67
4, 136576, Note_on_c, 2, 75, 67
4, 136640, Note_off_c, 2, 75, 67
4, 136640, Note_on_c, 2, 77, 67
4, 136704, Note_off_c, 2, 77, 67
4, 136704, Note_on_c, 2, 79, 67
4, 136768, Note_off_c, 2, 79, 67
4, 136832, Note_off_c, 2, 79, 67
4, 136832, Note_on_c, 2, 75, 67
4, 136832, Note_on_c, 2, 79, 67
4, 136896, Note_off_c, 2, 75, 67
4, 136896, Note_off_c, 2, 79, 67
4, 136960, Note_off_c, 2, 75, 67
4, 136960, Note_off_c, 2, 79, 67
4, 136960, Note_on_c, 2, 75, 67
4, 136960, Note_on_c, 2, 79, 67
4, 137024, Note_off_c, 2, 75, 67
4, 137024, Note_off_c, 2, 79, 67
4, 137088, Note_off_c, 2, 75, 67
4, 137088, Note_off_c, 2, 79, 67
4, 137088, Note_on_c, 2, 75, 67
4, 137152, Note_off_c, 2, 75, 67
4, 137152, Note_on_c, 2, 77, 67
4, 137216, Note_off_c, 2, 77, 67
4, 137216, Note_on_c, 2, 79, 67
4, 137280, Note_off_c, 2, 79, 67
4, 137344, Note_off_c, 2, 79, 67
4, 137344, Note_on_c, 2, 75, 67
4, 137344, Note_on_c, 2, 79, 67
4, 137408, Note_off_c, 2, 75, 67
4, 137408, Note_off_c, 2, 79, 67
4, 137472, Note_off_c, 2, 75, 67
4, 137472, Note_off_c, 2, 79, 67
4, 137472, Note_on_c, 2, 75, 67
4, 137472, Note_on_c, 2, 80, 67
4, 137504, Note_off_c, 2, 75, 67
4, 137504, Note_off_c, 2, 80, 67
4, 137536, Note_off_c, 2, 75, 67
4, 137536, Note_off_c, 2, 80, 67
4, 137536, Note_on_c, 2, 74, 67
4, 137568, Note_off_c, 2, 74, 67
4, 137600, Note_off_c, 2, 74, 67
4, 137600, Note_on_c, 2, 72, 67
4, 137632, Note_off_c, 2, 72, 67
4, 137664, Note_off_c, 2, 72, 67
4, 137664, Note_on_c, 2, 74, 67
4, 137664, Note_on_c, 2, 79, 67
4, 137696, Note_off_c, 2, 74, 67
4, 137696, Note_off_c, 2, 79, 67
4, 137728, Note_off_c, 2, 74, 67
4, 137728, Note_off_c, 2, 79, 67
4, 137728, Note_on_c, 2, 70, 67
4, 137728, Note_on_c, 2, 77, 67
4, 137792, Note_off_c, 2, 70, 67
4, 137792, Note_off_c, 2, 77, 67
4, 137856, Note_off_c, 2, 70, 67
4, 137856, Note_off_c, 2, 77, 67
4, 137856, Note_on_c, 2, 68, 67
4, 137856, Note_on_c, 2, 70, 67
4, 137920, Note_off_c, 2, 68, 67
4, 137920, Note_off_c, 2, 70, 67
4, 137984, Note_off_c, 2, 68, 67
4, 137984, Note_off_c, 2, 70, 67
4, 137984, Note_on_c, 2, 68, 67
4, 137984, Note_on_c, 2, 70, 67
4, 138048, Note_off_c, 2, 68, 67
4, 138048, Note_off_c, 2, 70, 67
4, 138112, Note_off_c, 2, 68, 67
4, 138112, Note_off_c, 2, 70, 67
4, 138112, Note_on_c, 2, 74, 67
4, 138176, Note_off_c, 2, 74, 67
4, 138176, Note_on_c, 2, 75, 67
4, 138240, Note_off_c, 2, 75, 67
4, 138240, Note_on_c, 2, 77, 67
4, 138304, Note_off_c, 2, 77, 67
4, 138368, Note_off_c, 2, 77, 67
4, 138368, Note_on_c, 2, 74, 67
4, 138368, Note_on_c, 2, 77, 67
4, 138432, Note_off_c, 2, 74, 67
4, 138432, Note_off_c, 2, 77, 67
4, 138496, Note_off_c, 2, 74, 67
4, 138496, Note_off_c, 2, 77, 67
4, 138496, Note_on_c, 2, 74, 67
4, 138496, Note_on_c, 2, 77, 67
4, 138560, Note_off_c, 2, 74, 67
4, 138560, Note_off_c, 2, 77, 67
4, 138624, Note_off_c, 2, 74, 67
4, 138624, Note_off_c, 2, 77, 67
4, 138624, Note_on_c, 2, 74, 67
4, 138688, Note_off_c, 2, 74, 67
4, 138688, Note_on_c, 2, 75, 67
4, 138752, Note_off_c, 2, 75, 67
4, 138752, Note_on_c, 2, 77, 67
4, 138816, Note_off_c, 2, 77, 67
4, 138880, Note_off_c, 2, 77, 67
4, 138880, Note_on_c, 2, 74, 67
4, 138880, Note_on_c, 2, 77, 67
4, 138944, Note_off_c, 2, 74, 67
4, 138944, Note_off_c, 2, 77, 67
4, 139008, Note_off_c, 2, 74, 67
4, 139008, Note_off_c, 2, 77, 67
4, 139008, Note_on_c, 2, 74, 67
4, 139008, Note_on_c, 2, 77, 67
4, 139072, Note_off_c, 2, 74, 67
4, 139072, Note_off_c, 2, 77, 67
4, 139136, Note_off_c, 2, 74, 67
4, 139136, Note_off_c, 2, 77, 67
4, 139136, Note_on_c, 2, 74, 67
4, 139200, Note_off_c, 2, 74, 67
4, 139200, Note_on_c, 2, 75, 67
4, 139264, Note_off_c, 2, 75, 67
4, 139264, Note_on_c, 2, 70, 67
4, 139264, Note_on_c, 2, 77, 67
4, 139328, Note_off_c, 2, 70, 67
4, 139328, Note_off_c, 2, 77, 67
4, 139392, Note_off_c, 2, 70, 67
4, 139392, Note_off_c, 2, 77, 67
4, 139392, Note_on_c, 2, 74, 67
4, 139392, Note_on_c, 2, 77, 67
4, 139456, Note_off_c, 2, 74, 67
4, 139456, Note_off_c, 2, 77, 67
4, 139520, Note_off_c, 2, 74, 67
4, 139520, Note_off_c, 2, 77, 67
4, 139520, Note_on_c, 2, 74, 67
4, 139520, Note_on_c, 2, 79, 67
4, 139552, Note_off_c, 2, 74, 67
4, 139552, Note_off_c, 2, 79, 67
4, 139584, Note_off_c, 2, 74, 67
4, 139584, Note_off_c, 2, 79, 67
4, 139584, Note_on_c, 2, 72, 67
4, 139584, Note_on_c, 2, 77, 67
4, 139616, Note_off_c, 2, 72, 67
4, 139616, Note_off_c, 2, 77, 67
4, 139648, Note_off_c, 2, 72, 67
4, 139648, Note_off_c, 2, 77, 67
4, 139648, Note_on_c, 2, 70, 67
4, 139648, Note_on_c, 2, 77, 67
4, 139680, Note_off_c, 2, 70, 67
4, 139680, Note_off_c, 2, 77, 67
4, 139712, Note_off_c, 2, 70, 67
4, 139712, Note_off_c, 2, 77, 67
4, 139712, Note_on_c, 2, 68, 67
4, 139712, Note_on_c, 2, 79, 67
4, 139744, Note_off_c, 2, 68, 67
4, 139744, Note_off_c, 2, 79, 67
4, 139776, Note_off_c, 2, 68, 67
4, 139776, Note_off_c, 2, 79, 67
4, 139776, Note_on_c, 2, 67, 67
4, 139776, Note_on_c, 2, 75, 67
4, 139840, Note_off_c, 2, 67, 67
4, 139840, Note_off_c, 2, 75, 67
4, 139904, Note_off_c, 2, 67, 67
4, 139904, Note_off_c, 2, 75, 67
4, 139904, Note_on_c, 2, 70, 67
4, 139968, Note_off_c, 2, 70, 67
4, 140032, Note_off_c, 2, 70, 67
4, 140032, Note_on_c, 2, 70, 67
4, 140032, Note_on_c, 2, 79, 67
4, 140096, Note_off_c, 2, 70, 67
4, 140096, Note_off_c, 2, 79, 67
4, 140160, Note_off_c, 2, 70, 67
4, 140160, Note_off_c, 2, 79, 67
4, 140160, Note_on_c, 2, 75, 67
4, 140224, Note_off_c, 2, 75, 67
4, 140224, Note_on_c, 2, 77, 67
4, 140288, Note_off_c, 2, 77, 67
4, 140288, Note_on_c, 2, 79, 67
4, 140352, Note_off_c, 2, 79, 67
4, 140416, Note_off_c, 2, 79, 67
4, 140416, Note_on_c, 2, 75, 67
4, 140416, Note_on_c, 2, 79, 67
4, 140480, Note_off_c, 2, 75, 67
4, 140480, Note_off_c, 2, 79, 67
4, 140544, Note_off_c, 2, 75, 67
4, 140544, Note_off_c, 2, 79, 67
4, 140544, Note_on_c, 2, 75, 67
4, 140544, Note_on_c, 2, 79, 67
4, 140608, Note_off_c, 2, 75, 67
4, 140608, Note_off_c, 2, 79, 67
4, 140672, Note_off_c, 2, 75, 67
4, 140672, Note_off_c, 2, 79, 67
4, 140672, Note_on_c, 2, 75, 67
4, 140736, Note_off_c, 2, 75, 67
4, 140736, Note_on_c, 2, 77, 67
4, 140800, Note_off_c, 2, 77, 67
4, 140800, Note_on_c, 2, 79, 67
4, 140864, Note_off_c, 2, 79, 67
4, 140928, Note_off_c, 2, 79, 67
4, 140928, Note_on_c, 2, 75, 67
4, 140928, Note_on_c, 2, 79, 67
4, 140992, Note_off_c, 2, 75, 67
4, 140992, Note_off_c, 2, 79, 67
4, 141056, Note_off_c, 2, 75, 67
4, 141056, Note_off_c, 2, 79, 67
4, 141056, Note_on_c, 2, 75, 67
4, 141056, Note_on_c, 2, 79, 67
4, 141120, Note_off_c, 2, 75, 67
4, 141120, Note_off_c, 2, 79, 67
4, 141184, Note_off_c, 2, 75, 67
4, 141184, Note_off_c, 2, 79, 67
4, 141184, Note_on_c, 2, 75, 67
4, 141248, Note_off_c, 2, 75, 67
4, 141248, Note_on_c, 2, 77, 67
4, 141312, Note_off_c, 2, 77, 67
4, 141312, Note_on_c, 2, 79, 67
4, 141376, Note_off_c, 2, 79, 67
4, 141440, Note_off_c, 2, 79, 67
4, 141440, Note_on_c, 2, 75, 67
4, 141440, Note_on_c, 2, 79, 67
4, 141504, Note_off_c, 2, 75, 67
4, 141504, Note_off_c, 2, 79, 67
4, 141568, Note_off_c, 2, 75, 67
4, 141568, Note_off_c, 2, 79, 67
4, 141568, Note_on_c, 2, 75, 67
4, 141568, Note_on_c, 2, 80, 67
4, 141600, Note_off_c, 2, 75, 67
4, 141600, Note_off_c, 2, 80, 67
4, 141632, Note_off_c, 2, 75, 67
4, 141632, Note_off_c, 2, 80, 67
4, 141632, Note_on_c, 2, 74, 67
4, 141696, Note_off_c, 2, 74, 67
4, 141696, Note_on_c, 2, 72, 67
4, 141760, Note_off_c, 2, 72, 67
4, 141760, Note_on_c, 2, 74, 67
4, 141760, Note_on_c, 2, 79, 67
4, 141792, Note_off_c, 2, 74, 67
4, 141792, Note_off_c, 2, 79, 67
4, 141824, Note_off_c, 2, 74, 67
4, 141824, Note_off_c, 2, 79, 67
4, 141824, Note_on_c, 2, 70, 67
4, 141824, Note_on_c, 2, 77, 67
4, 141888, Note_off_c, 2, 70, 67
4, 141888, Note_off_c, 2, 77, 67
4, 141952, Note_off_c, 2, 70, 67
4, 141952, Note_off_c, 2, 77, 67
4, 141952, Note_on_c, 2, 68, 67
4, 141952, Note_on_c, 2, 70, 67
4, 142016, Note_off_c, 2, 68, 67
4, 142016, Note_off_c, 2, 70, 67
4, 142080, Note_off_c, 2, 68, 67
4, 142080, Note_off_c, 2, 70, 67
4, 142080, Note_on_c, 2, 68, 67
4, 142080, Note_on_c, 2, 70, 67
4, 142144, Note_off_c, 2, 68, 67
4, 142144, Note_off_c, 2, 70, 67
4, 142208, Note_off_c, 2, 68, 67
4, 142208, Note_off_c, 2, 70, 67
4, 142208, Note_on_c, 2, 74, 67
4, 142272, Note_off_c, 2, 74, 67
4, 142272, Note_on_c, 2, 75, 67
4, 142336, Note_off_c, 2, 75, 67
4, 142336, Note_on_c, 2, 77, 67
4, 142464, Note_off_c, 2, 77, 67
4, 142464, Note_on_c, 2, 74, 67
4, 142464, Note_on_c, 2, 80, 67
4, 142528, Note_off_c, 2, 74, 67
4, 142528, Note_off_c, 2, 80, 67
4, 142592, Note_off_c, 2, 74, 67
4, 142592, Note_off_c, 2, 80, 67
4, 142592, Note_on_c, 2, 74, 67
4, 142592, Note_on_c, 2, 79, 67
4, 142656, Note_off_c, 2, 74, 67
4, 142656, Note_off_c, 2, 79, 67
4, 142720, Note_off_c, 2, 74, 67
4, 142720, Note_off_c, 2, 79, 67
4, 142720, Note_on_c, 2, 77, 67
4, 142784, Note_off_c, 2, 77, 67
4, 142848, Note_off_c, 2, 77, 67
4, 142848, Note_on_c, 2, 75, 67
4, 142912, Note_off_c, 2, 75, 67
4, 142976, Note_off_c, 2, 75, 67
4, 142976, Note_on_c, 2, 70, 67
4, 142976, Note_on_c, 2, 74, 67
4, 143040, Note_off_c, 2, 70, 67
4, 143040, Note_off_c, 2, 74, 67
4, 143104, Note_off_c, 2, 70, 67
4, 143104, Note_off_c, 2, 74, 67
4, 143104, Note_on_c, 2, 72, 67
4, 143104, Note_on_c, 2, 74, 67
4, 143168, Note_off_c, 2, 72, 67
4, 143168, Note_off_c, 2, 74, 67
4, 143232, Note_off_c, 2, 72, 67
4, 143232, Note_off_c, 2, 74, 67
4, 143232, Note_on_c, 2, 70, 67
4, 143232, Note_on_c, 2, 74, 67
4, 143296, Note_off_c, 2, 70, 67
4, 143296, Note_off_c, 2, 74, 67
4, 143360, Note_off_c, 2, 70, 67
4, 143360, Note_off_c, 2, 74, 67
4, 143360, Note_on_c, 2, 80, 67
4, 143360, Note_on_c, 2, 84, 67
4, 143616, Note_off_c, 2, 80, 67
4, 143616, Note_off_c, 2, 84, 67
4, 143616, Note_on_c, 2, 70, 67
4, 143616, Note_on_c, 2, 74, 67
4, 143632, Note_off_c, 2, 70, 67
4, 143632, Note_off_c, 2, 74, 67
4, 143648, Note_off_c, 2, 70, 67
4, 143648, Note_off_c, 2, 74, 67
4, 143648, Note_on_c, 2, 72, 67
4, 143648, Note_on_c, 2, 75, 67
4, 143664, Note_off_c, 2, 72, 67
4, 143664, Note_off_c, 2, 75, 67
4, 143680, Note_off_c, 2, 72, 67
4, 143680, Note_off_c, 2, 75, 67
4, 143680, Note_on_c, 2, 70, 67
4, 143680, Note_on_c, 2, 74, 67
4, 143712, Note_off_c, 2, 70, 67
4, 143712, Note_off_c, 2, 74, 67
4, 143744, Note_off_c, 2, 70, 67
4, 143744, Note_off_c, 2, 74, 67
4, 143744, Note_on_c, 2, 68, 67
4, 143744, Note_on_c, 2, 72, 67
4, 143776, Note_off_c, 2, 68, 67
4, 143776, Note_off_c, 2, 72, 67
4, 143808, Note_off_c, 2, 68, 67
4, 143808, Note_off_c, 2, 72, 67
4, 143808, Note_on_c, 2, 74, 67
4, 143808, Note_on_c, 2, 77, 67
4, 143840, Note_off_c, 2, 74, 67
4, 143840, Note_off_c, 2, 77, 67
4, 143872, Note_off_c, 2, 74, 67
4, 143872, Note_off_c, 2, 77, 67
4, 143872, Note_on_c, 2, 75, 67
4, 143872, Note_on_c, 2, 79, 67
4, 144000, Note_off_c, 2, 75, 67
4, 144000, Note_off_c, 2, 79, 67
4, 144000, Note_on_c, 2, 70, 67
4, 144064, Note_off_c, 2, 70, 67
4, 144128, Note_off_c, 2, 70, 67
4, 144128, Note_on_c, 2, 70, 67
4, 144192, Note_off_c, 2, 70, 67
4, 144256, Note_off_c, 2, 70, 67
4, 144256, Note_on_c, 2, 75, 67
4, 144256, Note_on_c, 2, 79, 67
4, 144320, Note_off_c, 2, 75, 67
4, 144320, Note_off_c, 2, 79, 67
4, 144320, Note_on_c, 2, 77, 67
4, 144320, Note_on_c, 2, 80, 67
4, 144384, Note_off_c, 2, 77, 67
4, 144384, Note_off_c, 2, 80, 67
4, 144384, Note_on_c, 2, 79, 67
4, 144384, Note_on_c, 2, 82, 67
4, 144448, Note_off_c, 2, 79, 67
4, 144448, Note_off_c, 2, 82, 67
4, 144512, Note_off_c, 2, 79, 67
4, 144512, Note_off_c, 2, 82, 67
4, 144512, Note_on_c, 2, 79, 67
4, 144512, Note_on_c, 2, 82, 67
4, 144576, Note_off_c, 2, 79, 67
4, 144576, Note_off_c, 2, 82, 67
4, 144640, Note_off_c, 2, 79, 67
4, 144640, Note_off_c, 2, 82, 67
4, 144640, Note_on_c, 2, 70, 67
4, 144640, Note_on_c, 2, 79, 67
4, 144704, Note_off_c, 2, 70, 67
4, 144704, Note_off_c, 2, 79, 67
4, 144768, Note_off_c, 2, 70, 67
4, 144768, Note_off_c, 2, 79, 67
4, 144768, Note_on_c, 2, 70, 67
4, 144768, Note_on_c, 2, 75, 67
4, 144832, Note_off_c, 2, 70, 67
4, 144832, Note_off_c, 2, 75, 67
4, 144896, Note_off_c, 2, 70, 67
4, 144896, Note_off_c, 2, 75, 67
4, 144896, Note_on_c, 2, 84, 67
4, 144896, Note_on_c, 2, 87, 67
4, 144960, Note_off_c, 2, 84, 67
4, 144960, Note_off_c, 2, 87, 67
4, 145024, Note_off_c, 2, 84, 67
4, 145024, Note_off_c, 2, 87, 67
4, 145024, Note_on_c, 2, 82, 67
4, 145024, Note_on_c, 2, 86, 67
4, 145088, Note_off_c, 2, 82, 67
4, 145088, Note_off_c, 2, 86, 67
4, 145152, Note_off_c, 2, 82, 67
4, 145152, Note_off_c, 2, 86, 67
4, 145152, Note_on_c, 2, 80, 67
4, 145152, Note_on_c, 2, 84, 67
4, 145216, Note_off_c, 2, 80, 67
4, 145216, Note_off_c, 2, 84, 67
4, 145280, Note_off_c, 2, 80, 67
4, 145280, Note_off_c, 2, 84, 67
4, 145280, Note_on_c, 2, 79, 67
4, 145280, Note_on_c, 2, 87, 67
4, 145344, Note_off_c, 2, 79, 67
4, 145344, Note_off_c, 2, 87, 67
4, 145408, Note_off_c, 2, 79, 67
4, 145408, Note_off_c, 2, 87, 67
4, 145408, Note_on_c, 2, 75, 67
4, 145408, Note_on_c, 2, 82, 67
4, 145472, Note_off_c, 2, 75, 67
4, 145472, Note_off_c, 2, 82, 67
4, 145536, Note_off_c, 2, 75, 67
4, 145536, Note_off_c, 2, 82, 67
4, 145536, Note_on_c, 2, 79, 67
4, 145600, Note_off_c, 2, 79, 67
4, 145664, Note_off_c, 2, 79, 67
4, 145664, Note_on_c, 2, 67, 67
4, 145664, Note_on_c, 2, 75, 67
4, 145728, Note_off_c, 2, 67, 67
4, 145728, Note_off_c, 2, 75, 67
4, 145792, Note_off_c, 2, 67, 67
4, 145792, Note_off_c, 2, 75, 67
4, 145792, Note_on_c, 2, 68, 67
4, 145792, Note_on_c, 2, 74, 67
4, 145824, Note_off_c, 2, 68, 67
4, 145824, Note_off_c, 2, 74, 67
4, 145856, Note_off_c, 2, 68, 67
4, 145856, Note_off_c, 2, 74, 67
4, 145856, Note_on_c, 2, 74, 67
4, 145856, Note_on_c, 2, 79, 67
4, 145888, Note_off_c, 2, 74, 67
4, 145888, Note_off_c, 2, 79, 67
4, 145920, Note_off_c, 2, 74, 67
4, 145920, Note_off_c, 2, 79, 67
4, 145920, Note_on_c, 2, 70, 67
4, 145920, Note_on_c, 2, 77, 67
4, 145984, Note_off_c, 2, 70, 67
4, 145984, Note_off_c, 2, 77, 67
4, 146048, Note_off_c, 2, 70, 67
4, 146048, Note_off_c, 2, 77, 67
4, 146048, Note_on_c, 2, 65, 67
4, 146048, Note_on_c, 2, 70, 67
4, 146112, Note_off_c, 2, 65, 67
4, 146112, Note_off_c, 2, 70, 67
4, 146176, Note_off_c, 2, 65, 67
4, 146176, Note_off_c, 2, 70, 67
4, 146176, Note_on_c, 2, 68, 67
4, 146176, Note_on_c, 2, 70, 67
4, 146240, Note_off_c, 2, 68, 67
4, 146240, Note_off_c, 2, 70, 67
4, 146304, Note_off_c, 2, 68, 67
4, 146304, Note_off_c, 2, 70, 67
4, 146304, Note_on_c, 2, 70, 67
4, 146304, Note_on_c, 2, 79, 67
4, 146368, Note_off_c, 2, 70, 67
4, 146368, Note_off_c, 2, 79, 67
4, 146368, Note_on_c, 2, 77, 67
4, 146368, Note_on_c, 2, 80, 67
4, 146432, Note_off_c, 2, 77, 67
4, 146432, Note_off_c, 2, 80, 67
4, 146432, Note_on_c, 2, 79, 67
4, 146432, Note_on_c, 2, 82, 67
4, 146496, Note_off_c, 2, 79, 67
4, 146496, Note_off_c, 2, 82, 67
4, 146560, Note_off_c, 2, 79, 67
4, 146560, Note_off_c, 2, 82, 67
4, 146560, Note_on_c, 2, 79, 67
4, 146560, Note_on_c, 2, 82, 67
4, 146624, Note_off_c, 2, 79, 67
4, 146624, Note_off_c, 2, 82, 67
4, 146688, Note_off_c, 2, 79, 67
4, 146688, Note_off_c, 2, 82, 67
4, 146688, Note_on_c, 2, 70, 67
4, 146688, Note_on_c, 2, 79, 67
4, 146752, Note_off_c, 2, 70, 67
4, 146752, Note_off_c, 2, 79, 67
4, 146816, Note_off_c, 2, 70, 67
4, 146816, Note_off_c, 2, 79, 67
4, 146816, Note_on_c, 2, 75, 67
4, 146816, Note_on_c, 2, 82, 67
4, 146880, Note_off_c, 2, 75, 67
4, 146880, Note_off_c, 2, 82, 67
4, 146944, Note_off_c, 2, 75, 67
4, 146944, Note_off_c, 2, 82, 67
4, 146944, Note_on_c, 2, 84, 67
4, 146944, Note_on_c, 2, 87, 67
4, 147008, Note_off_c, 2, 84, 67
4, 147008, Note_off_c, 2, 87, 67
4, 147072, Note_off_c, 2, 84, 67
4, 147072, Note_off_c, 2, 87, 67
4, 147072, Note_on_c, 2, 82, 67
4, 147072, Note_on_c, 2, 86, 67
4, 147136, Note_off_c, 2, 82, 67
4, 147136, Note_off_c, 2, 86, 67
4, 147200, Note_off_c, 2, 82, 67
4, 147200, Note_off_c, 2, 86, 67
4, 147200, Note_on_c, 2, 80, 67
4, 147200, Note_on_c, 2, 84, 67
4, 147264, Note_off_c, 2, 80, 67
4, 147264, Note_off_c, 2, 84, 67
4, 147328, Note_off_c, 2, 80, 67
4, 147328, Note_off_c, 2, 84, 67
4, 147328, Note_on_c, 2, 70, 67
4, 147328, Note_on_c, 2, 74, 67
4, 147360, Note_off_c, 2, 70, 67
4, 147360, Note_off_c, 2, 74, 67
4, 147392, Note_off_c, 2, 70, 67
4, 147392, Note_off_c, 2, 74, 67
4, 147392, Note_on_c, 2, 77, 67
4, 147392, Note_on_c, 2, 80, 67
4, 147424, Note_off_c, 2, 77, 67
4, 147424, Note_off_c, 2, 80, 67
4, 147456, Note_off_c, 2, 77, 67
4, 147456, Note_off_c, 2, 80, 67
4, 147456, Note_on_c, 2, 77, 67
4, 147456, Note_on_c, 2, 82, 67
4, 147520, Note_off_c, 2, 77, 67
4, 147520, Note_off_c, 2, 82, 67
4, 147584, Note_off_c, 2, 77, 67
4, 147584, Note_off_c, 2, 82, 67
4, 147584, Note_on_c, 2, 80, 67
4, 147584, Note_on_c, 2, 87, 67
4, 147648, Note_off_c, 2, 80, 67
4, 147648, Note_off_c, 2, 87, 67
4, 147712, Note_off_c, 2, 80, 67
4, 147712, Note_off_c, 2, 87, 67
4, 147712, Note_on_c, 2, 82, 67
4, 147712, Note_on_c, 2, 86, 67
4, 147776, Note_off_c, 2, 82, 67
4, 147776, Note_off_c, 2, 86, 67
4, 147840, Note_off_c, 2, 82, 67
4, 147840, Note_off_c, 2, 86, 67
4, 147840, Note_on_c, 2, 80, 67
4, 147840, Note_on_c, 2, 89, 67
4, 147904, Note_off_c, 2, 80, 67
4, 147904, Note_off_c, 2, 89, 67
4, 147968, Note_off_c, 2, 80, 67
4, 147968, Note_off_c, 2, 89, 67
4, 147968, Note_on_c, 2, 79, 67
4, 147968, Note_on_c, 2, 87, 67
4, 148032, Note_off_c, 2, 79, 67
4, 148032, Note_off_c, 2, 87, 67
4, 148096, Note_off_c, 2, 79, 67
4, 148096, Note_off_c, 2, 87, 67
4, 148096, Note_on_c, 2, 70, 67
4, 148096, Note_on_c, 2, 82, 67
4, 148160, Note_off_c, 2, 70, 67
4, 148160, Note_off_c, 2, 82, 67
4, 148224, Note_off_c, 2, 70, 67
4, 148224, Note_off_c, 2, 82, 67
4, 148224, Note_on_c, 2, 70, 67
4, 148224, Note_on_c, 2, 82, 67
4, 148288, Note_off_c, 2, 70, 67
4, 148288, Note_off_c, 2, 82, 67
4, 148352, Note_off_c, 2, 70, 67
4, 148352, Note_off_c, 2, 82, 67
4, 148352, Note_on_c, 2, 75, 67
4, 148416, Note_off_c, 2, 75, 67
4, 148416, Note_on_c, 2, 77, 67
4, 148480, Note_off_c, 2, 77, 67
4, 148480, Note_on_c, 2, 79, 67
4, 148544, Note_off_c, 2, 79, 67
4, 148608, Note_off_c, 2, 79, 67
4, 148608, Note_on_c, 2, 75, 67
4, 148608, Note_on_c, 2, 79, 67
4, 148672, Note_off_c, 2, 75, 67
4, 148672, Note_off_c, 2, 79, 67
4, 148736, Note_off_c, 2, 75, 67
4, 148736, Note_off_c, 2, 79, 67
4, 148736, Note_on_c, 2, 75, 67
4, 148736, Note_on_c, 2, 79, 67
4, 148800, Note_off_c, 2, 75, 67
4, 148800, Note_off_c, 2, 79, 67
4, 148864, Note_off_c, 2, 75, 67
4, 148864, Note_off_c, 2, 79, 67
4, 148864, Note_on_c, 2, 75, 67
4, 148928, Note_off_c, 2, 75, 67
4, 148928, Note_on_c, 2, 77, 67
4, 148992, Note_off_c, 2, 77, 67
4, 148992, Note_on_c, 2, 79, 67
4, 149056, Note_off_c, 2, 79, 67
4, 149120, Note_off_c, 2, 79, 67
4, 149120, Note_on_c, 2, 75, 67
4, 149120, Note_on_c, 2, 79, 67
4, 149184, Note_off_c, 2, 75, 67
4, 149184, Note_off_c, 2, 79, 67
4, 149248, Note_off_c, 2, 75, 67
4, 149248, Note_off_c, 2, 79, 67
4, 149248, Note_on_c, 2, 75, 67
4, 149248, Note_on_c, 2, 79, 67
4, 149312, Note_off_c, 2, 75, 67
4, 149312, Note_off_c, 2, 79, 67
4, 149376, Note_off_c, 2, 75, 67
4, 149376, Note_off_c, 2, 79, 67
4, 149376, Note_on_c, 2, 75, 67
4, 149440, Note_off_c, 2, 75, 67
4, 149440, Note_on_c, 2, 77, 67
4, 149504, Note_off_c, 2, 77, 67
4, 149504, Note_on_c, 2, 79, 67
4, 149568, Note_off_c, 2, 79, 67
4, 149632, Note_off_c, 2, 79, 67
4, 149632, Note_on_c, 2, 75, 67
4, 149632, Note_on_c, 2, 79, 67
4, 149696, Note_off_c, 2, 75, 67
4, 149696, Note_off_c, 2, 79, 67
4, 149760, Note_off_c, 2, 75, 67
4, 149760, Note_off_c, 2, 79, 67
4, 149760, Note_on_c, 2, 75, 67
4, 149760, Note_on_c, 2, 80, 67
4, 149792, Note_off_c, 2, 75, 67
4, 149792, Note_off_c, 2, 80, 67
4, 149824, Note_off_c, 2, 75, 67
4, 149824, Note_off_c, 2, 80, 67
4, 149824, Note_on_c, 2, 74, 67
4, 149856, Note_off_c, 2, 74, 67
4, 149888, Note_off_c, 2, 74, 67
4, 149888, Note_on_c, 2, 72, 67
4, 149920, Note_off_c, 2, 72, 67
4, 149952, Note_off_c, 2, 72, 67
4, 149952, Note_on_c, 2, 74, 67
4, 149952, Note_on_c, 2, 79, 67
4, 149984, Note_off_c, 2, 74, 67
4, 149984, Note_off_c, 2, 79, 67
4, 150016, Note_off_c, 2, 74, 67
4, 150016, Note_off_c, 2, 79, 67
4, 150016, Note_on_c, 2, 70, 67
4, 150016, Note_on_c, 2, 77, 67
4, 150080, Note_off_c, 2, 70, 67
4, 150080, Note_off_c, 2, 77, 67
4, 150144, Note_off_c, 2, 70, 67
4, 150144, Note_off_c, 2, 77, 67
4, 150144, Note_on_c, 2, 68, 67
4, 150144, Note_on_c, 2, 70, 67
4, 150208, Note_off_c, 2, 68, 67
4, 150208, Note_off_c, 2, 70, 67
4, 150272, Note_off_c, 2, 68, 67
4, 150272, Note_off_c, 2, 70, 67
4, 150272, Note_on_c, 2, 68, 67
4, 150272, Note_on_c, 2, 70, 67
4, 150336, Note_off_c, 2, 68, 67
4, 150336, Note_off_c, 2, 70, 67
4, 150400, Note_off_c, 2, 68, 67
4, 150400, Note_off_c, 2, 70, 67
4, 150400, Note_on_c, 2, 74, 67
4, 150464, Note_off_c, 2, 74, 67
4, 150464, Note_on_c, 2, 75, 67
4, 150528, Note_off_c, 2, 75, 67
4, 150528, Note_on_c, 2, 77, 67
4, 150592, Note_off_c, 2, 77, 67
4, 150656, Note_off_c, 2, 77, 67
4, 150656, Note_on_c, 2, 74, 67
4, 150656, Note_on_c, 2, 77, 67
4, 150720, Note_off_c, 2, 74, 67
4, 150720, Note_off_c, 2, 77, 67
4, 150784, Note_off_c, 2, 74, 67
4, 150784, Note_off_c, 2, 77, 67
4, 150784, Note_on_c, 2, 74, 67
4, 150784, Note_on_c, 2, 77, 67
4, 150848, Note_off_c, 2, 74, 67
4, 150848, Note_off_c, 2, 77, 67
4, 150912, Note_off_c, 2, 74, 67
4, 150912, Note_off_c, 2, 77, 67
4, 150912, Note_on_c, 2, 74, 67
4, 150976, Note_off_c, 2, 74, 67
4, 150976, Note_on_c, 2, 75, 67
4, 151040, Note_off_c, 2, 75, 67
4, 151040, Note_on_c, 2, 77, 67
4, 151104, Note_off_c, 2, 77, 67
4, 151168, Note_off_c, 2, 77, 67
4, 151168, Note_on_c, 2, 74, 67
4, 151168, Note_on_c, 2, 77, 67
4, 151232, Note_off_c, 2, 74, 67
4, 151232, Note_off_c, 2, 77, 67
4, 151296, Note_off_c, 2, 74, 67
4, 151296, Note_off_c, 2, 77, 67
4, 151296, Note_on_c, 2, 74, 67
4, 151296, Note_on_c, 2, 77, 67
4, 151360, Note_off_c, 2, 74, 67
4, 151360, Note_off_c, 2, 77, 67
4, 151424, Note_off_c, 2, 74, 67
4, 151424, Note_off_c, 2, 77, 67
4, 151424, Note_on_c, 2, 74, 67
4, 151488, Note_off_c, 2, 74, 67
4, 151488, Note_on_c, 2, 75, 67
4, 151552, Note_off_c, 2, 75, 67
4, 151552, Note_on_c, 2, 70, 67
4, 151552, Note_on_c, 2, 77, 67
4, 151616, Note_off_c, 2, 70, 67
4, 151616, Note_off_c, 2, 77, 67
4, 151680, Note_off_c, 2, 70, 67
4, 151680, Note_off_c, 2, 77, 67
4, 151680, Note_on_c, 2, 74, 67
4, 151680, Note_on_c, 2, 77, 67
4, 151744, Note_off_c, 2, 74, 67
4, 151744, Note_off_c, 2, 77, 67
4, 151808, Note_off_c, 2, 74, 67
4, 151808, Note_off_c, 2, 77, 67
4, 151808, Note_on_c, 2, 74, 67
4, 151808, Note_on_c, 2, 79, 67
4, 151840, Note_off_c, 2, 74, 67
4, 151840, Note_off_c, 2, 79, 67
4, 151872, Note_off_c, 2, 74, 67
4, 151872, Note_off_c, 2, 79, 67
4, 151872, Note_on_c, 2, 72, 67
4, 151872, Note_on_c, 2, 77, 67
4, 151904, Note_off_c, 2, 72, 67
4, 151904, Note_off_c, 2, 77, 67
4, 151936, Note_off_c, 2, 72, 67
4, 151936, Note_off_c, 2, 77, 67
4, 151936, Note_on_c, 2, 70, 67
4, 151936, Note_on_c, 2, 77, 67
4, 151968, Note_off_c, 2, 70, 67
4, 151968, Note_off_c, 2, 77, 67
4, 152000, Note_off_c, 2, 70, 67
4, 152000, Note_off_c, 2, 77, 67
4, 152000, Note_on_c, 2, 68, 67
4, 152000, Note_on_c, 2, 79, 67
4, 152032, Note_off_c, 2, 68, 67
4, 152032, Note_off_c, 2, 79, 67
4, 152064, Note_off_c, 2, 68, 67
4, 152064, Note_off_c, 2, 79, 67
4, 152064, Note_on_c, 2, 67, 67
4, 152064, Note_on_c, 2, 75, 67
4, 152128, Note_off_c, 2, 67, 67
4, 152128, Note_off_c, 2, 75, 67
4, 152192, Note_off_c, 2, 67, 67
4, 152192, Note_off_c, 2, 75, 67
4, 152192, Note_on_c, 2, 70, 67
4, 152256, Note_off_c, 2, 70, 67
4, 152320, Note_off_c, 2, 70, 67
4, 152320, Note_on_c, 2, 70, 67
4, 152320, Note_on_c, 2, 79, 67
4, 152384, Note_off_c, 2, 70, 67
4, 152384, Note_off_c, 2, 79, 67
4, 152448, Note_off_c, 2, 70, 67
4, 152448, Note_off_c, 2, 79, 67
4, 152448, Note_on_c, 2, 75, 67
4, 152512, Note_off_c, 2, 75, 67
4, 152512, Note_on_c, 2, 77, 67
4, 152576, Note_off_c, 2, 77, 67
4, 152576, Note_on_c, 2, 79, 67
4, 152640, Note_off_c, 2, 79, 67
4, 152704, Note_off_c, 2, 79, 67
4, 152704, Note_on_c, 2, 75, 67
4, 152704, Note_on_c, 2, 79, 67
4, 152768, Note_off_c, 2, 75, 67
4, 152768, Note_off_c, 2, 79, 67
4, 152832, Note_off_c, 2, 75, 67
4, 152832, Note_off_c, 2, 79, 67
4, 152832, Note_on_c, 2, 75, 67
4, 152832, Note_on_c, 2, 79, 67
4, 152896, Note_off_c, 2, 75, 67
4, 152896, Note_off_c, 2, 79, 67
4, 152960, Note_off_c, 2, 75, 67
4, 152960, Note_off_c, 2, 79, 67
4, 152960, Note_on_c, 2, 75, 67
4, 153024, Note_off_c, 2, 75, 67
4, 153024, Note_on_c, 2, 77, 67
4, 153088, Note_off_c, 2, 77, 67
4, 153088, Note_on_c, 2, 79, 67
4, 153152, Note_off_c, 2, 79, 67
4, 153216, Note_off_c, 2, 79, 67
4, 153216, Note_on_c, 2, 75, 67
4, 153216, Note_on_c, 2, 79, 67
4, 153280, Note_off_c, 2, 75, 67
4, 153280, Note_off_c, 2, 79, 67
4, 153344, Note_off_c, 2, 75, 67
4, 153344, Note_off_c, 2, 79, 67
4, 153344, Note_on_c, 2, 75, 67
4, 153344, Note_on_c, 2, 79, 67
4, 153408, Note_off_c, 2, 75, 67
4, 153408, Note_off_c, 2, 79, 67
4, 153472, Note_off_c, 2, 75, 67
4, 153472, Note_off_c, 2, 79, 67
4, 153472, Note_on_c, 2, 75, 67
4, 153536, Note_off_c, 2, 75, 67
4, 153536, Note_on_c, 2, 77, 67
4, 153600, Note_off_c, 2, 77, 67
4, 153600, Note_on_c, 2, 79, 67
4, 153664, Note_off_c, 2, 79, 67
4, 153728, Note_off_c, 2, 79, 67
4, 153728, Note_on_c, 2, 75, 67
4, 153728, Note_on_c, 2, 79, 67
4, 153792, Note_off_c, 2, 75, 67
4, 153792, Note_off_c, 2, 79, 67
4, 153856, Note_off_c, 2, 75, 67
4, 153856, Note_off_c, 2, 79, 67
4, 153856, Note_on_c, 2, 75, 67
4, 153856, Note_on_c, 2, 80, 67
4, 153888, Note_off_c, 2, 75, 67
4, 153888, Note_off_c, 2, 80, 67
4, 153920, Note_off_c, 2, 75, 67
4, 153920, Note_off_c, 2, 80, 67
4, 153920, Note_on_c, 2, 74, 67
4, 153984, Note_off_c, 2, 74, 67
4, 153984, Note_on_c, 2, 72, 67
4, 154048, Note_off_c, 2, 72, 67
4, 154048, Note_on_c, 2, 74, 67
4, 154048, Note_on_c, 2, 79, 67
4, 154080, Note_off_c, 2, 74, 67
4, 154080, Note_off_c, 2, 79, 67
4, 154112, Note_off_c, 2, 74, 67
4, 154112, Note_off_c, 2, 79, 67
4, 154112, Note_on_c, 2, 70, 67
4, 154112, Note_on_c, 2, 77, 67
4, 154176, Note_off_c, 2, 70, 67
4, 154176, Note_off_c, 2, 77, 67
4, 154240, Note_off_c, 2, 70, 67
4, 154240, Note_off_c, 2, 77, 67
4, 154240, Note_on_c, 2, 68, 67
4, 154240, Note_on_c, 2, 70, 67
4, 154304, Note_off_c, 2, 68, 67
4, 154304, Note_off_c, 2, 70, 67
4, 154368, Note_off_c, 2, 68, 67
4, 154368, Note_off_c, 2, 70, 67
4, 154368, Note_on_c, 2, 68, 67
4, 154368, Note_on_c, 2, 70, 67
4, 154432, Note_off_c, 2, 68, 67
4, 154432, Note_off_c, 2, 70, 67
4, 154496, Note_off_c, 2, 68, 67
4, 154496, Note_off_c, 2, 70, 67
4, 154496, Note_on_c, 2, 74, 67
4, 154560, Note_off_c, 2, 74, 67
4, 154560, Note_on_c, 2, 75, 67
4, 154624, Note_off_c, 2, 75, 67
4, 154624, Note_on_c, 2, 77, 67
4, 154752, Note_off_c, 2, 77, 67
4, 154752, Note_on_c, 2, 74, 67
4, 154752, Note_on_c, 2, 80, 67
4, 154816, Note_off_c, 2, 74, 67
4, 154816, Note_off_c, 2, 80, 67
4, 154880, Note_off_c, 2, 74, 67
4, 154880, Note_off_c, 2, 80, 67
4, 154880, Note_on_c, 2, 74, 67
4, 154880, Note_on_c, 2, 79, 67
4, 154944, Note_off_c, 2, 74, 67
4, 154944, Note_off_c, 2, 79, 67
4, 155008, Note_off_c, 2, 74, 67
4, 155008, Note_off_c, 2, 79, 67
4, 155008, Note_on_c, 2, 77, 67
4, 155072, Note_off_c, 2, 77, 67
4, 155136, Note_off_c, 2, 77, 67
4, 155136, Note_on_c, 2, 75, 67
4, 155200, Note_off_c, 2, 75, 67
4, 155264, Note_off_c, 2, 75, 67
4, 155264, Note_on_c, 2, 70, 67
4, 155264, Note_on_c, 2, 74, 67
4, 155328, Note_off_c, 2, 70, 67
4, 155328, Note_off_c, 2, 74, 67
4, 155392, Note_off_c, 2, 70, 67
4, 155392, Note_off_c, 2, 74, 67
4, 155392, Note_on_c, 2, 72, 67
4, 155392, Note_on_c, 2, 74, 67
4, 155456, Note_off_c, 2, 72, 67
4, 155456, Note_off_c, 2, 74, 67
4, 155520, Note_off_c, 2, 72, 67
4, 155520, Note_off_c, 2, 74, 67
4, 155520, Note_on_c, 2, 70, 67
4, 155520, Note_on_c, 2, 74, 67
4, 155584, Note_off_c, 2, 70, 67
4, 155584, Note_off_c, 2, 74, 67
4, 155648, Note_off_c, 2, 70, 67
4, 155648, Note_off_c, 2, 74, 67
4, 155648, Note_on_c, 2, 80, 67
4, 155648, Note_on_c, 2, 84, 67
4, 155904, Note_off_c, 2, 80, 67
4, 155904, Note_off_c, 2, 84, 67
4, 155904, Note_on_c, 2, 70, 67
4, 155904, Note_on_c, 2, 74, 67
4, 155920, Note_off_c, 2, 70, 67
4, 155920, Note_off_c, 2, 74, 67
4, 155936, Note_off_c, 2, 70, 67
4, 155936, Note_off_c, 2, 74, 67
4, 155936, Note_on_c, 2, 72, 67
4, 155936, Note_on_c, 2, 75, 67
4, 155952, Note_off_c, 2, 72, 67
4, 155952, Note_off_c, 2, 75, 67
4, 155968, Note_off_c, 2, 72, 67
4, 155968, Note_off_c, 2, 75, 67
4, 155968, Note_on_c, 2, 70, 67
4, 155968, Note_on_c, 2, 74, 67
4, 156000, Note_off_c, 2, 70, 67
4, 156000, Note_off_c, 2, 74, 67
4, 156032, Note_off_c, 2, 70, 67
4, 156032, Note_off_c, 2, 74, 67
4, 156032, Note_on_c, 2, 68, 67
4, 156032, Note_on_c, 2, 72, 67
4, 156064, Note_off_c, 2, 68, 67
4, 156064, Note_off_c, 2, 72, 67
4, 156096, Note_off_c, 2, 68, 67
4, 156096, Note_off_c, 2, 72, 67
4, 156096, Note_on_c, 2, 74, 67
4, 156096, Note_on_c, 2, 77, 67
4, 156128, Note_off_c, 2, 74, 67
4, 156128, Note_off_c, 2, 77, 67
4, 156160, Note_off_c, 2, 74, 67
4, 156160, Note_off_c, 2, 77, 67
4, 156160, Note_on_c, 2, 75, 67
4, 156160, Note_on_c, 2, 79, 67
4, 156288, Note_off_c, 2, 75, 67
4, 156288, Note_off_c, 2, 79, 67
4, 156288, Note_on_c, 2, 70, 67
4, 156352, Note_off_c, 2, 70, 67
4, 156416, Note_off_c, 2, 70, 67
4, 156416, Note_on_c, 2, 70, 67
4, 156480, Note_off_c, 2, 70, 67
4, 156544, Note_off_c, 2, 70, 67
4, 156544, Note_on_c, 2, 75, 67
4, 156544, Note_on_c, 2, 79, 67
4, 156608, Note_off_c, 2, 75, 67
4, 156608, Note_off_c, 2, 79, 67
4, 156608, Note_on_c, 2, 77, 67
4, 156608, Note_on_c, 2, 80, 67
4, 156672, Note_off_c, 2, 77, 67
4, 156672, Note_off_c, 2, 80, 67
4, 156672, Note_on_c, 2, 79, 67
4, 156672, Note_on_c, 2, 82, 67
4, 156736, Note_off_c, 2, 79, 67
4, 156736, Note_off_c, 2, 82, 67
4, 156800, Note_off_c, 2, 79, 67
4, 156800, Note_off_c, 2, 82, 67
4, 156800, Note_on_c, 2, 79, 67
4, 156800, Note_on_c, 2, 82, 67
4, 156864, Note_off_c, 2, 79, 67
4, 156864, Note_off_c, 2, 82, 67
4, 156928, Note_off_c, 2, 79, 67
4, 156928, Note_off_c, 2, 82, 67
4, 156928, Note_on_c, 2, 70, 67
4, 156928, Note_on_c, 2, 79, 67
4, 156992, Note_off_c, 2, 70, 67
4, 156992, Note_off_c, 2, 79, 67
4, 157056, Note_off_c, 2, 70, 67
4, 157056, Note_off_c, 2, 79, 67
4, 157056, Note_on_c, 2, 70, 67
4, 157056, Note_on_c, 2, 75, 67
4, 157120, Note_off_c, 2, 70, 67
4, 157120, Note_off_c, 2, 75, 67
4, 157184, Note_off_c, 2, 70, 67
4, 157184, Note_off_c, 2, 75, 67
4, 157184, Note_on_c, 2, 84, 67
4, 157184, Note_on_c, 2, 87, 67
4, 157248, Note_off_c, 2, 84, 67
4, 157248, Note_off_c, 2, 87, 67
4, 157312, Note_off_c, 2, 84, 67
4, 157312, Note_off_c, 2, 87, 67
4, 157312, Note_on_c, 2, 82, 67
4, 157312, Note_on_c, 2, 86, 67
4, 157376, Note_off_c, 2, 82, 67
4, 157376, Note_off_c, 2, 86, 67
4, 157440, Note_off_c, 2, 82, 67
4, 157440, Note_off_c, 2, 86, 67
4, 157440, Note_on_c, 2, 80, 67
4, 157440, Note_on_c, 2, 84, 67
4, 157504, Note_off_c, 2, 80, 67
4, 157504, Note_off_c, 2, 84, 67
4, 157568, Note_off_c, 2, 80, 67
4, 157568, Note_off_c, 2, 84, 67
4, 157568, Note_on_c, 2, 79, 67
4, 157568, Note_on_c, 2, 87, 67
4, 157632, Note_off_c, 2, 79, 67
4, 157632, Note_off_c, 2, 87, 67
4, 157696, Note_off_c, 2, 79, 67
4, 157696, Note_off_c, 2, 87, 67
4, 157696, Note_on_c, 2, 75, 67
4, 157696, Note_on_c, 2, 82, 67
4, 157760, Note_off_c, 2, 75, 67
4, 157760, Note_off_c, 2, 82, 67
4, 157824, Note_off_c, 2, 75, 67
4, 157824, Note_off_c, 2, 82, 67
4, 157824, Note_on_c, 2, 79, 67
4, 157888, Note_off_c, 2, 79, 67
4, 157952, Note_off_c, 2, 79, 67
4, 157952, Note_on_c, 2, 67, 67
4, 157952, Note_on_c, 2, 75, 67
4, 158016, Note_off_c, 2, 67, 67
4, 158016, Note_off_c, 2, 75, 67
4, 158080, Note_off_c, 2, 67, 67
4, 158080, Note_off_c, 2, 75, 67
4, 158080, Note_on_c, 2, 68, 67
4, 158080, Note_on_c, 2, 74, 67
4, 158112, Note_off_c, 2, 68, 67
4, 158112, Note_off_c, 2, 74, 67
4, 158144, Note_off_c, 2, 68, 67
4, 158144, Note_off_c, 2, 74, 67
4, 158144, Note_on_c, 2, 74, 67
4, 158144, Note_on_c, 2, 79, 67
4, 158176, Note_off_c, 2, 74, 67
4, 158176, Note_off_c, 2, 79, 67
4, 158208, Note_off_c, 2, 74, 67
4, 158208, Note_off_c, 2, 79, 67
4, 158208, Note_on_c, 2, 70, 67
4, 158208, Note_on_c, 2, 77, 67
4, 158272, Note_off_c, 2, 70, 67
4, 158272, Note_off_c, 2, 77, 67
4, 158336, Note_off_c, 2, 70, 67
4, 158336, Note_off_c, 2, 77, 67
4, 158336, Note_on_c, 2, 65, 67
4, 158336, Note_on_c, 2, 70, 67
4, 158400, Note_off_c, 2, 65, 67
4, 158400, Note_off_c, 2, 70, 67
4, 158464, Note_off_c, 2, 65, 67
4, 158464, Note_off_c, 2, 70, 67
4, 158464, Note_on_c, 2, 68, 67
4, 158464, Note_on_c, 2, 70, 67
4, 158528, Note_off_c, 2, 68, 67
4, 158528, Note_off_c, 2, 70, 67
4, 158592, Note_off_c, 2, 68, 67
4, 158592, Note_off_c, 2, 70, 67
4, 158592, Note_on_c, 2, 70, 67
4, 158592, Note_on_c, 2, 79, 67
4, 158656, Note_off_c, 2, 70, 67
4, 158656, Note_off_c, 2, 79, 67
4, 158656, Note_on_c, 2, 77, 67
4, 158656, Note_on_c, 2, 80, 67
4, 158720, Note_off_c, 2, 77, 67
4, 158720, Note_off_c, 2, 80, 67
4, 158720, Note_on_c, 2, 79, 67
4, 158720, Note_on_c, 2, 82, 67
4, 158784, Note_off_c, 2, 79, 67
4, 158784, Note_off_c, 2, 82, 67
4, 158848, Note_off_c, 2, 79, 67
4, 158848, Note_off_c, 2, 82, 67
4, 158848, Note_on_c, 2, 79, 67
4, 158848, Note_on_c, 2, 82, 67
4, 158912, Note_off_c, 2, 79, 67
4, 158912, Note_off_c, 2, 82, 67
4, 158976, Note_off_c, 2, 79, 67
4, 158976, Note_off_c, 2, 82, 67
4, 158976, Note_on_c, 2, 70, 67
4, 158976, Note_on_c, 2, 79, 67
4, 159040, Note_off_c, 2, 70, 67
4, 159040, Note_off_c, 2, 79, 67
4, 159104, Note_off_c, 2, 70, 67
4, 159104, Note_off_c, 2, 79, 67
4, 159104, Note_on_c, 2, 75, 67
4, 159104, Note_on_c, 2, 82, 67
4, 159168, Note_off_c, 2, 75, 67
4, 159168, Note_off_c, 2, 82, 67
4, 159232, Note_off_c, 2, 75, 67
4, 159232, Note_off_c, 2, 82, 67
4, 159232, Note_on_c, 2, 84, 67
4, 159232, Note_on_c, 2, 87, 67
4, 159296, Note_off_c, 2, 84, 67
4, 159296, Note_off_c, 2, 87, 67
4, 159360, Note_off_c, 2, 84, 67
4, 159360, Note_off_c, 2, 87, 67
4, 159360, Note_on_c, 2, 82, 67
4, 159360, Note_on_c, 2, 86, 67
4, 159424, Note_off_c, 2, 82, 67
4, 159424, Note_off_c, 2, 86, 67
4, 159488, Note_off_c, 2, 82, 67
4, 159488, Note_off_c, 2, 86, 67
4, 159488, Note_on_c, 2, 80, 67
4, 159488, Note_on_c, 2, 84, 67
4, 159552, Note_off_c, 2, 80, 67
4, 159552, Note_off_c, 2, 84, 67
4, 159616, Note_off_c, 2, 80, 67
4, 159616, Note_off_c, 2, 84, 67
4, 159616, Note_on_c, 2, 70, 67
4, 159616, Note_on_c, 2, 74, 67
4, 159648, Note_off_c, 2, 70, 67
4, 159648, Note_off_c, 2, 74, 67
4, 159680, Note_off_c, 2, 70, 67
4, 159680, Note_off_c, 2, 74, 67
4, 159680, Note_on_c, 2, 77, 67
4, 159680, Note_on_c, 2, 80, 67
4, 159712, Note_off_c, 2, 77, 67
4, 159712, Note_off_c, 2, 80, 67
4, 159744, Note_off_c, 2, 77, 67
4, 159744, Note_off_c, 2, 80, 67
4, 159744, Note_on_c, 2, 77, 67
4, 159744, Note_on_c, 2, 82, 67
4, 159808, Note_off_c, 2, 77, 67
4, 159808, Note_off_c, 2, 82, 67
4, 159872, Note_off_c, 2, 77, 67
4, 159872, Note_off_c, 2, 82, 67
4, 159872, Note_on_c, 2, 80, 67
4, 159872, Note_on_c, 2, 87, 67
4, 159936, Note_off_c, 2, 80, 67
4, 159936, Note_off_c, 2, 87, 67
4, 160000, Note_off_c, 2, 80, 67
4, 160000, Note_off_c, 2, 87, 67
4, 160000, Note_on_c, 2, 82, 67
4, 160000, Note_on_c, 2, 86, 67
4, 160064, Note_off_c, 2, 82, 67
4, 160064, Note_off_c, 2, 86, 67
4, 160128, Note_off_c, 2, 82, 67
4, 160128, Note_off_c, 2, 86, 67
4, 160128, Note_on_c, 2, 80, 67
4, 160128, Note_on_c, 2, 89, 67
4, 160192, Note_off_c, 2, 80, 67
4, 160192, Note_off_c, 2, 89, 67
4, 160256, Note_off_c, 2, 80, 67
4, 160256, Note_off_c, 2, 89, 67
4, 160256, Note_on_c, 2, 79, 67
4, 160256, Note_on_c, 2, 87, 67
4, 160320, Note_off_c, 2, 79, 67
4, 160320, Note_off_c, 2, 87, 67
4, 160384, Note_off_c, 2, 79, 67
4, 160384, Note_off_c, 2, 87, 67
4, 160384, Note_on_c, 2, 70, 67
4, 160384, Note_on_c, 2, 82, 67
4, 160448, Note_off_c, 2, 70, 67
4, 160448, Note_off_c, 2, 82, 67
4, 160512, Note_off_c, 2, 70, 67
4, 160512, Note_off_c, 2, 82, 67
4, 160512, Note_on_c, 2, 70, 67
4, 160512, Note_on_c, 2, 82, 67
4, 160576, Note_off_c, 2, 70, 67
4, 160576, Note_off_c, 2, 82, 67
4, 160640, Note_off_c, 2, 70, 67
4, 160640, Note_off_c, 2, 82, 67
4, 160640, Note_on_c, 2, 75, 67
4, 160704, Note_off_c, 2, 75, 67
4, 160704, Note_on_c, 2, 77, 67
4, 160768, Note_off_c, 2, 77, 67
4, 160768, Note_on_c, 2, 79, 67
4, 160832, Note_off_c, 2, 79, 67
4, 160896, Note_off_c, 2, 79, 67
4, 160896, Note_on_c, 2, 75, 67
4, 160896, Note_on_c, 2, 79, 67
4, 160960, Note_off_c, 2, 75, 67
4, 160960, Note_off_c, 2, 79, 67
4, 161024, Note_off_c, 2, 75, 67
4, 161024, Note_off_c, 2, 79, 67
4, 161024, Note_on_c, 2, 75, 67
4, 161024, Note_on_c, 2, 79, 67
4, 161088, Note_off_c, 2, 75, 67
4, 161088, Note_off_c, 2, 79, 67
4, 161152, Note_off_c, 2, 75, 67
4, 161152, Note_off_c, 2, 79, 67
4, 161152, Note_on_c, 2, 75, 67
4, 161216, Note_off_c, 2, 75, 67
4, 161216, Note_on_c, 2, 77, 67
4, 161280, Note_off_c, 2, 77, 67
4, 161280, Note_on_c, 2, 79, 67
4, 161344, Note_off_c, 2, 79, 67
4, 161408, Note_off_c, 2, 79, 67
4, 161408, Note_on_c, 2, 75, 67
4, 161408, Note_on_c, 2, 79, 67
4, 161472, Note_off_c, 2, 75, 67
4, 161472, Note_off_c, 2, 79, 67
4, 161536, Note_off_c, 2, 75, 67
4, 161536, Note_off_c, 2, 79, 67
4, 161536, Note_on_c, 2, 75, 67
4, 161536, Note_on_c, 2, 79, 67
4, 161600, Note_off_c, 2, 75, 67
4, 161600, Note_off_c, 2, 79, 67
4, 161664, Note_off_c, 2, 75, 67
4, 161664, Note_off_c, 2, 79, 67
4, 161664, Note_on_c, 2, 75, 67
4, 161728, Note_off_c, 2, 75, 67
4, 161728, Note_on_c, 2, 77, 67
4, 161792, Note_off_c, 2, 77, 67
4, 161792, Note_on_c, 2, 79, 67
4, 161856, Note_off_c, 2, 79, 67
4, 161920, Note_off_c, 2, 79, 67
4, 161920, Note_on_c, 2, 75, 67
4, 161920, Note_on_c, 2, 79, 67
4, 161984, Note_off_c, 2, 75, 67
4, 161984, Note_off_c, 2, 79, 67
4, 162048, Note_off_c, 2, 75, 67
4, 162048, Note_off_c, 2, 79, 67
4, 162048, Note_on_c, 2, 75, 67
4, 162048, Note_on_c, 2, 80, 67
4, 162080, Note_off_c, 2, 75, 67
4, 162080, Note_off_c, 2, 80, 67
4, 162112, Note_off_c, 2, 75, 67
4, 162112, Note_off_c, 2, 80, 67
4, 162112, Note_on_c, 2, 74, 67
4, 162144, Note_off_c, 2, 74, 67
4, 162176, Note_off_c, 2, 74, 67
4, 162176, Note_on_c, 2, 72, 67
4, 162208, Note_off_c, 2, 72, 67
4, 162240, Note_off_c, 2, 72, 67
4, 162240, Note_on_c, 2, 74, 67
4, 162240, Note_on_c, 2, 79, 67
4, 162272, Note_off_c, 2, 74, 67
4, 162272, Note_off_c, 2, 79, 67
4, 162304, Note_off_c, 2, 74, 67
4, 162304, Note_off_c, 2, 79, 67
4, 162304, Note_on_c, 2, 70, 67
4, 162304, Note_on_c, 2, 77, 67
4, 162368, Note_off_c, 2, 70, 67
4, 162368, Note_off_c, 2, 77, 67
4, 162432, Note_off_c, 2, 70, 67
4, 162432, Note_off_c, 2, 77, 67
4, 162432, Note_on_c, 2, 68, 67
4, 162432, Note_on_c, 2, 70, 67
4, 162496, Note_off_c, 2, 68, 67
4, 162496, Note_off_c, 2, 70, 67
4, 162560, Note_off_c, 2, 68, 67
4, 162560, Note_off_c, 2, 70, 67
4, 162560, Note_on_c, 2, 68, 67
4, 162560, Note_on_c, 2, 70, 67
4, 162624, Note_off_c, 2, 68, 67
4, 162624, Note_off_c, 2, 70, 67
4, 162688, Note_off_c, 2, 68, 67
4, 162688, Note_off_c, 2, 70, 67
4, 162688, Note_on_c, 2, 74, 67
4, 162752, Note_off_c, 2, 74, 67
4, 162752, Note_on_c, 2, 75, 67
4, 162816, Note_off_c, 2, 75, 67
4, 162816, Note_on_c, 2, 77, 67
4, 162880, Note_off_c, 2, 77, 67
4, 162944, Note_off_c, 2, 77, 67
4, 162944, Note_on_c, 2, 74, 67
4, 162944, Note_on_c, 2, 77, 67
4, 163008, Note_off_c, 2, 74, 67
4, 163008, Note_off_c, 2, 77, 67
4, 163072, Note_off_c, 2, 74, 67
4, 163072, Note_off_c, 2, 77, 67
4, 163072, Note_on_c, 2, 74, 67
4, 163072, Note_on_c, 2, 77, 67
4, 163136, Note_off_c, 2, 74, 67
4, 163136, Note_off_c, 2, 77, 67
4, 163200, Note_off_c, 2, 74, 67
4, 163200, Note_off_c, 2, 77, 67
4, 163200, Note_on_c, 2, 74, 67
4, 163264, Note_off_c, 2, 74, 67
4, 163264, Note_on_c, 2, 75, 67
4, 163328, Note_off_c, 2, 75, 67
4, 163328, Note_on_c, 2, 77, 67
4, 163392, Note_off_c, 2, 77, 67
4, 163456, Note_off_c, 2, 77, 67
4, 163456, Note_on_c, 2, 74, 67
4, 163456, Note_on_c, 2, 77, 67
4, 163520, Note_off_c, 2, 74, 67
4, 163520, Note_off_c, 2, 77, 67
4, 163584, Note_off_c, 2, 74, 67
4, 163584, Note_off_c, 2, 77, 67
4, 163584, Note_on_c, 2, 74, 67
4, 163584, Note_on_c, 2, 77, 67
4, 163648, Note_off_c, 2, 74, 67
4, 163648, Note_off_c, 2, 77, 67
4, 163712, Note_off_c, 2, 74, 67
4, 163712, Note_off_c, 2, 77, 67
4, 163712, Note_on_c, 2, 74, 67
4, 163776, Note_off_c, 2, 74, 67
4, 163776, Note_on_c, 2, 75, 67
4, 163840, Note_off_c, 2, 75, 67
4, 163840, Note_on_c, 2, 70, 67
4, 163840, Note_on_c, 2, 77, 67
4, 163904, Note_off_c, 2, 70, 67
4, 163904, Note_off_c, 2, 77, 67
4, 163968, Note_off_c, 2, 70, 67
4, 163968, Note_off_c, 2, 77, 67
4, 163968, Note_on_c, 2, 74, 67
4, 163968, Note_on_c, 2, 77, 67
4, 164032, Note_off_c, 2, 74, 67
4, 164032, Note_off_c, 2, 77, 67
4, 164096, Note_off_c, 2, 74, 67
4, 164096, Note_off_c, 2, 77, 67
4, 164096, Note_on_c, 2, 74, 67
4, 164096, Note_on_c, 2, 79, 67
4, 164128, Note_off_c, 2, 74, 67
4, 164128, Note_off_c, 2, 79, 67
4, 164160, Note_off_c, 2, 74, 67
4, 164160, Note_off_c, 2, 79, 67
4, 164160, Note_on_c, 2, 72, 67
4, 164160, Note_on_c, 2, 77, 67
4, 164192, Note_off_c, 2, 72, 67
4, 164192, Note_off_c, 2, 77, 67
4, 164224, Note_off_c, 2, 72, 67
4, 164224, Note_off_c, 2, 77, 67
4, 164224, Note_on_c, 2, 70, 67
4, 164224, Note_on_c, 2, 77, 67
4, 164256, Note_off_c, 2, 70, 67
4, 164256, Note_off_c, 2, 77, 67
4, 164288, Note_off_c, 2, 70, 67
4, 164288, Note_off_c, 2, 77, 67
4, 164288, Note_on_c, 2, 68, 67
4, 164288, Note_on_c, 2, 79, 67
4, 164320, Note_off_c, 2, 68, 67
4, 164320, Note_off_c, 2, 79, 67
4, 164352, Note_off_c, 2, 68, 67
4, 164352, Note_off_c, 2, 79, 67
4, 164352, Note_on_c, 2, 67, 67
4, 164352, Note_on_c, 2, 75, 67
4, 164416, Note_off_c, 2, 67, 67
4, 164416, Note_off_c, 2, 75, 67
4, 164480, Note_off_c, 2, 67, 67
4, 164480, Note_off_c, 2, 75, 67
4, 164480, Note_on_c, 2, 70, 67
4, 164544, Note_off_c, 2, 70, 67
4, 164608, Note_off_c, 2, 70, 67
4, 164608, Note_on_c, 2, 70, 67
4, 164608, Note_on_c, 2, 79, 67
4, 164672, Note_off_c, 2, 70, 67
4, 164672, Note_off_c, 2, 79, 67
4, 164736, Note_off_c, 2, 70, 67
4, 164736, Note_off_c, 2, 79, 67
4, 164736, Note_on_c, 2, 75, 67
4, 164800, Note_off_c, 2, 75, 67
4, 164800, Note_on_c, 2, 77, 67
4, 164864, Note_off_c, 2, 77, 67
4, 164864, Note_on_c, 2, 79, 67
4, 164928, Note_off_c, 2, 79, 67
4, 164992, Note_off_c, 2, 79, 67
4, 164992, Note_on_c, 2, 75, 67
4, 164992, Note_on_c, 2, 79, 67
4, 165056, Note_off_c, 2, 75, 67
4, 165056, Note_off_c, 2, 79, 67
4, 165120, Note_off_c, 2, 75, 67
4, 165120, Note_off_c, 2, 79, 67
4, 165120, Note_on_c, 2, 75, 67
4, 165120, Note_on_c, 2, 79, 67
4, 165184, Note_off_c, 2, 75, 67
4, 165184, Note_off_c, 2, 79, 67
4, 165248, Note_off_c, 2, 75, 67
4, 165248, Note_off_c, 2, 79, 67
4, 165248, Note_on_c, 2, 75, 67
4, 165312, Note_off_c, 2, 75, 67
4, 165312, Note_on_c, 2, 77, 67
4, 165376, Note_off_c, 2, 77, 67
4, 165376, Note_on_c, 2, 79, 67
4, 165440, Note_off_c, 2, 79, 67
4, 165504, Note_off_c, 2, 79, 67
4, 165504, Note_on_c, 2, 75, 67
4, 165504, Note_on_c, 2, 79, 67
4, 165568, Note_off_c, 2, 75, 67
4, 165568, Note_off_c, 2, 79, 67
4, 165632, Note_off_c, 2, 75, 67
4, 165632, Note_off_c, 2, 79, 67
4, 165632, Note_on_c, 2, 75, 67
4, 165632, Note_on_c, 2, 79, 67
4, 165696, Note_off_c, 2, 75, 67
4, 165696, Note_off_c, 2, 79, 67
4, 165760, Note_off_c, 2, 75, 67
4, 165760, Note_off_c, 2, 79, 67
4, 165760, Note_on_c, 2, 75, 67
4, 165824, Note_off_c, 2, 75, 67
4, 165824, Note_on_c, 2, 77, 67
4, 165888, Note_off_c, 2, 77, 67
4, 165888, Note_on_c, 2, 79, 67
4, 165952, Note_off_c, 2, 79, 67
4, 166016, Note_off_c, 2, 79, 67
4, 166016, Note_on_c, 2, 75, 67
4, 166016, Note_on_c, 2, 79, 67
4, 166080, Note_off_c, 2, 75, 67
4, 166080, Note_off_c, 2, 79, 67
4, 166144, Note_off_c, 2, 75, 67
4, 166144, Note_off_c, 2, 79, 67
4, 166144, Note_on_c, 2, 75, 67
4, 166144, Note_on_c, 2, 80, 67
4, 166176, Note_off_c, 2, 75, 67
4, 166176, Note_off_c, 2, 80, 67
4, 166208, Note_off_c, 2, 75, 67
4, 166208, Note_off_c, 2, 80, 67
4, 166208, Note_on_c, 2, 74, 67
4, 166272, Note_off_c, 2, 74, 67
4, 166272, Note_on_c, 2, 72, 67
4, 166336, Note_off_c, 2, 72, 67
4, 166336, Note_on_c, 2, 74, 67
4, 166336, Note_on_c, 2, 79, 67
4, 166368, Note_off_c, 2, 74, 67
4, 166368, Note_off_c, 2, 79, 67
4, 166400, Note_off_c, 2, 74, 67
4, 166400, Note_off_c, 2, 79, 67
4, 166400, Note_on_c, 2, 70, 67
4, 166400, Note_on_c, 2, 77, 67
4, 166464, Note_off_c, 2, 70, 67
4, 166464, Note_off_c, 2, 77, 67
4, 166528, Note_off_c, 2, 70, 67
4, 166528, Note_off_c, 2, 77, 67
4, 166528, Note_on_c, 2, 68, 67
4, 166528, Note_on_c, 2, 70, 67
4, 166592, Note_off_c, 2, 68, 67
4, 166592, Note_off_c, 2, 70, 67
4, 166656, Note_off_c, 2, 68, 67
4, 166656, Note_off_c, 2, 70, 67
4, 166656, Note_on_c, 2, 68, 67
4, 166656, Note_on_c, 2, 70, 67
4, 166720, Note_off_c, 2, 68, 67
4, 166720, Note_off_c, 2, 70, 67
4, 166784, Note_off_c, 2, 68, 67
4, 166784, Note_off_c, 2, 70, 67
4, 166784, Note_on_c, 2, 74, 67
4, 166848, Note_off_c, 2, 74, 67
4, 166848, Note_on_c, 2, 75, 67
4, 166912, Note_off_c, 2, 75, 67
4, 166912, Note_on_c, 2, 77, 67
4, 167040, Note_off_c, 2, 77, 67
4, 167040, Note_on_c, 2, 74, 67
4, 167040, Note_on_c, 2, 80, 67
4, 167104, Note_off_c, 2, 74, 67
4, 167104, Note_off_c, 2, 80, 67
4, 167168, Note_off_c, 2, 74, 67
4, 167168, Note_off_c, 2, 80, 67
4, 167168, Note_on_c, 2, 74, 67
4, 167168, Note_on_c, 2, 79, 67
4, 167232, Note_off_c, 2, 74, 67
4, 167232, Note_off_c, 2, 79, 67
4, 167296, Note_off_c, 2, 74, 67
4, 167296, Note_off_c, 2, 79, 67
4, 167296, Note_on_c, 2, 77, 67
4, 167360, Note_off_c, 2, 77, 67
4, 167424, Note_off_c, 2, 77, 67
4, 167424, Note_on_c, 2, 75, 67
4, 167488, Note_off_c, 2, 75, 67
4, 167552, Note_off_c, 2, 75, 67
4, 167552, Note_on_c, 2, 70, 67
4, 167552, Note_on_c, 2, 74, 67
4, 167616, Note_off_c, 2, 70, 67
4, 167616, Note_off_c, 2, 74, 67
4, 167680, Note_off_c, 2, 70, 67
4, 167680, Note_off_c, 2, 74, 67
4, 167680, Note_on_c, 2, 72, 67
4, 167680, Note_on_c, 2, 74, 67
4, 167744, Note_off_c, 2, 72, 67
4, 167744, Note_off_c, 2, 74, 67
4, 167808, Note_off_c, 2, 72, 67
4, 167808, Note_off_c, 2, 74, 67
4, 167808, Note_on_c, 2, 70, 67
4, 167808, Note_on_c, 2, 74, 67
4, 167872, Note_off_c, 2, 70, 67
4, 167872, Note_off_c, 2, 74, 67
4, 167936, Note_off_c, 2, 70, 67
4, 167936, Note_off_c, 2, 74, 67
4, 167936, Note_on_c, 2, 80, 67
4, 167936, Note_on_c, 2, 84, 67
4, 168192, Note_off_c, 2, 80, 67
4, 168192, Note_off_c, 2, 84, 67
4, 168192, Note_on_c, 2, 70, 67
4, 168192, Note_on_c, 2, 74, 67
4, 168208, Note_off_c, 2, 70, 67
4, 168208, Note_off_c, 2, 74, 67
4, 168224, Note_off_c, 2, 70, 67
4, 168224, Note_off_c, 2, 74, 67
4, 168224, Note_on_c, 2, 72, 67
4, 168224, Note_on_c, 2, 75, 67
4, 168240, Note_off_c, 2, 72, 67
4, 168240, Note_off_c, 2, 75, 67
4, 168256, Note_off_c, 2, 72, 67
4, 168256, Note_off_c, 2, 75, 67
4, 168256, Note_on_c, 2, 70, 67
4, 168256, Note_on_c, 2, 74, 67
4, 168288, Note_off_c, 2, 70, 67
4, 168288, Note_off_c, 2, 74, 67
4, 168320, Note_off_c, 2, 70, 67
4, 168320, Note_off_c, 2, 74, 67
4, 168320, Note_on_c, 2, 68, 67
4, 168320, Note_on_c, 2, 72, 67
4, 168352, Note_off_c, 2, 68, 67
4, 168352, Note_off_c, 2, 72, 67
4, 168384, Note_off_c, 2, 68, 67
4, 168384, Note_off_c, 2, 72, 67
4, 168384, Note_on_c, 2, 74, 67
4, 168384, Note_on_c, 2, 77, 67
4, 168416, Note_off_c, 2, 74, 67
4, 168416, Note_off_c, 2, 77, 67
4, 168448, Note_off_c, 2, 74, 67
4, 168448, Note_off_c, 2, 77, 67
4, 168448, Note_on_c, 2, 75, 67
4, 168448, Note_on_c, 2, 79, 67
4, 168576, Note_off_c, 2, 75, 67
4, 168576, Note_off_c, 2, 79, 67
4, 168576, Note_on_c, 2, 70, 67
4, 168640, Note_off_c, 2, 70, 67
4, 168704, Note_off_c, 2, 70, 67
4, 168704, Note_on_c, 2, 70, 67
4, 168768, Note_off_c, 2, 70, 67
4, 168832, Note_off_c, 2, 70, 67
4, 168832, Note_on_c, 2, 75, 67
4, 168832, Note_on_c, 2, 79, 67
4, 168896, Note_off_c, 2, 75, 67
4, 168896, Note_off_c, 2, 79, 67
4, 168896, Note_on_c, 2, 77, 67
4, 168896, Note_on_c, 2, 80, 67
4, 168960, Note_off_c, 2, 77, 67
4, 168960, Note_off_c, 2, 80, 67
4, 168960, Note_on_c, 2, 79, 67
4, 168960, Note_on_c, 2, 82, 67
4, 169024, Note_off_c, 2, 79, 67
4, 169024, Note_off_c, 2, 82, 67
4, 169088, Note_off_c, 2, 79, 67
4, 169088, Note_off_c, 2, 82, 67
4, 169088, Note_on_c, 2, 79, 67
4, 169088, Note_on_c, 2, 82, 67
4, 169152, Note_off_c, 2, 79, 67
4, 169152, Note_off_c, 2, 82, 67
4, 169216, Note_off_c, 2, 79, 67
4, 169216, Note_off_c, 2, 82, 67
4, 169216, Note_on_c, 2, 70, 67
4, 169216, Note_on_c, 2, 79, 67
4, 169280, Note_off_c, 2, 70, 67
4, 169280, Note_off_c, 2, 79, 67
4, 169344, Note_off_c, 2, 70, 67
4, 169344, Note_off_c, 2, 79, 67
4, 169344, Note_on_c, 2, 70, 67
4, 169344, Note_on_c, 2, 75, 67
4, 169408, Note_off_c, 2, 70, 67
4, 169408, Note_off_c, 2, 75, 67
4, 169472, Note_off_c, 2, 70, 67
4, 169472, Note_off_c, 2, 75, 67
4, 169472, Note_on_c, 2, 84, 67
4, 169472, Note_on_c, 2, 87, 67
4, 169536, Note_off_c, 2, 84, 67
4, 169536, Note_off_c, 2, 87, 67
4, 169600, Note_off_c, 2, 84, 67
4, 169600, Note_off_c, 2, 87, 67
4, 169600, Note_on_c, 2, 82, 67
4, 169600, Note_on_c, 2, 86, 67
4, 169664, Note_off_c, 2, 82, 67
4, 169664, Note_off_c, 2, 86, 67
4, 169728, Note_off_c, 2, 82, 67
4, 169728, Note_off_c, 2, 86, 67
4, 169728, Note_on_c, 2, 80, 67
4, 169728, Note_on_c, 2, 84, 67
4, 169792, Note_off_c, 2, 80, 67
4, 169792, Note_off_c, 2, 84, 67
4, 169856, Note_off_c, 2, 80, 67
4, 169856, Note_off_c, 2, 84, 67
4, 169856, Note_on_c, 2, 79, 67
4, 169856, Note_on_c, 2, 87, 67
4, 169920, Note_off_c, 2, 79, 67
4, 169920, Note_off_c, 2, 87, 67
4, 169984, Note_off_c, 2, 79, 67
4, 169984, Note_off_c, 2, 87, 67
4, 169984, Note_on_c, 2, 75, 67
4, 169984, Note_on_c, 2, 82, 67
4, 170048, Note_off_c, 2, 75, 67
4, 170048, Note_off_c, 2, 82, 67
4, 170112, Note_off_c, 2, 75, 67
4, 170112, Note_off_c, 2, 82, 67
4, 170112, Note_on_c, 2, 79, 67
4, 170176, Note_off_c, 2, 79, 67
4, 170240, Note_off_c, 2, 79, 67
4, 170240, Note_on_c, 2, 67, 67
4, 170240, Note_on_c, 2, 75, 67
4, 170304, Note_off_c, 2, 67, 67
4, 170304, Note_off_c, 2, 75, 67
4, 170368, Note_off_c, 2, 67, 67
4, 170368, Note_off_c, 2, 75, 67
4, 170368, Note_on_c, 2, 68, 67
4, 170368, Note_on_c, 2, 74, 67
4, 170400, Note_off_c, 2, 68, 67
4, 170400, Note_off_c, 2, 74, 67
4, 170432, Note_off_c, 2, 68, 67
4, 170432, Note_off_c, 2, 74, 67
4, 170432, Note_on_c, 2, 74, 67
4, 170432, Note_on_c, 2, 79, 67
4, 170464, Note_off_c, 2, 74, 67
4, 170464, Note_off_c, 2, 79, 67
4, 170496, Note_off_c, 2, 74, 67
4, 170496, Note_off_c, 2, 79, 67
4, 170496, Note_on_c, 2, 70, 67
4, 170496, Note_on_c, 2, 77, 67
4, 170560, Note_off_c, 2, 70, 67
4, 170560, Note_off_c, 2, 77, 67
4, 170624, Note_off_c, 2, 70, 67
4, 170624, Note_off_c, 2, 77, 67
4, 170624, Note_on_c, 2, 65, 67
4, 170624, Note_on_c, 2, 70, 67
4, 170688, Note_off_c, 2, 65, 67
4, 170688, Note_off_c, 2, 70, 67
4, 170752, Note_off_c, 2, 65, 67
4, 170752, Note_off_c, 2, 70, 67
4, 170752, Note_on_c, 2, 68, 67
4, 170752, Note_on_c, 2, 70, 67
4, 170816, Note_off_c, 2, 68, 67
4, 170816, Note_off_c, 2, 70, 67
4, 170880, Note_off_c, 2, 68, 67
4, 170880, Note_off_c, 2, 70, 67
4, 170880, Note_on_c, 2, 70, 67
4, 170880, Note_on_c, 2, 79, 67
4, 170944, Note_off_c, 2, 70, 67
4, 170944, Note_off_c, 2, 79, 67
4, 170944, Note_on_c, 2, 77, 67
4, 170944, Note_on_c, 2, 80, 67
4, 171008, Note_off_c, 2, 77, 67
4, 171008, Note_off_c, 2, 80, 67
4, 171008, Note_on_c, 2, 79, 67
4, 171008, Note_on_c, 2, 82, 67
4, 171072, Note_off_c, 2, 79, 67
4, 171072, Note_off_c, 2, 82, 67
4, 171136, Note_off_c, 2, 79, 67
4, 171136, Note_off_c, 2, 82, 67
4, 171136, Note_on_c, 2, 79, 67
4, 171136, Note_on_c, 2, 82, 67
4, 171200, Note_off_c, 2, 79, 67
4, 171200, Note_off_c, 2, 82, 67
4, 171264, Note_off_c, 2, 79, 67
4, 171264, Note_off_c, 2, 82, 67
4, 171264, Note_on_c, 2, 70, 67
4, 171264, Note_on_c, 2, 79, 67
4, 171328, Note_off_c, 2, 70, 67
4, 171328, Note_off_c, 2, 79, 67
4, 171392, Note_off_c, 2, 70, 67
4, 171392, Note_off_c, 2, 79, 67
4, 171392, Note_on_c, 2, 75, 67
4, 171392, Note_on_c, 2, 82, 67
4, 171456, Note_off_c, 2, 75, 67
4, 171456, Note_off_c, 2, 82, 67
4, 171520, Note_off_c, 2, 75, 67
4, 171520, Note_off_c, 2, 82, 67
4, 171520, Note_on_c, 2, 84, 67
4, 171520, Note_on_c, 2, 87, 67
4, 171584, Note_off_c, 2, 84, 67
4, 171584, Note_off_c, 2, 87, 67
4, 171648, Note_off_c, 2, 84, 67
4, 171648, Note_off_c, 2, 87, 67
4, 171648, Note_on_c, 2, 82, 67
4, 171648, Note_on_c, 2, 86, 67
4, 171712, Note_off_c, 2, 82, 67
4, 171712, Note_off_c, 2, 86, 67
4, 171776, Note_off_c, 2, 82, 67
4, 171776, Note_off_c, 2, 86, 67
4, 171776, Note_on_c, 2, 80, 67
4, 171776, Note_on_c, 2, 84, 67
4, 171840, Note_off_c, 2, 80, 67
4, 171840, Note_off_c, 2, 84, 67
4, 171904, Note_off_c, 2, 80, 67
4, 171904, Note_off_c, 2, 84, 67
4, 171904, Note_on_c, 2, 70, 67
4, 171904, Note_on_c, 2, 74, 67
4, 171936, Note_off_c, 2, 70, 67
4, 171936, Note_off_c, 2, 74, 67
4, 171968, Note_off_c, 2, 70, 67
4, 171968, Note_off_c, 2, 74, 67
4, 171968, Note_on_c, 2, 77, 67
4, 171968, Note_on_c, 2, 80, 67
4, 172000, Note_off_c, 2, 77, 67
4, 172000, Note_off_c, 2, 80, 67
4, 172032, Note_off_c, 2, 77, 67
4, 172032, Note_off_c, 2, 80, 67
4, 172032, Note_on_c, 2, 77, 67
4, 172032, Note_on_c, 2, 82, 67
4, 172096, Note_off_c, 2, 77, 67
4, 172096, Note_off_c, 2, 82, 67
4, 172160, Note_off_c, 2, 77, 67
4, 172160, Note_off_c, 2, 82, 67
4, 172160, Note_on_c, 2, 80, 67
4, 172160, Note_on_c, 2, 87, 67
4, 172224, Note_off_c, 2, 80, 67
4, 172224, Note_off_c, 2, 87, 67
4, 172288, Note_off_c, 2, 80, 67
4, 172288, Note_off_c, 2, 87, 67
4, 172288, Note_on_c, 2, 82, 67
4, 172288, Note_on_c, 2, 86, 67
4, 172352, Note_off_c, 2, 82, 67
4, 172352, Note_off_c, 2, 86, 67
4, 172416, Note_off_c, 2, 82, 67
4, 172416, Note_off_c, 2, 86, 67
4, 172416, Note_on_c, 2, 80, 67
4, 172416, Note_on_c, 2, 89, 67
4, 172480, Note_off_c, 2, 80, 67
4, 172480, Note_off_c, 2, 89, 67
4, 172544, Note_off_c, 2, 80, 67
4, 172544, Note_off_c, 2, 89, 67
4, 172544, Note_on_c, 2, 79, 67
4, 172544, Note_on_c, 2, 87, 67
4, 172608, Note_off_c, 2, 79, 67
4, 172608, Note_off_c, 2, 87, 67
4, 172672, Note_off_c, 2, 79, 67
4, 172672, Note_off_c, 2, 87, 67
4, 172672, Note_on_c, 2, 70, 67
4, 172672, Note_on_c, 2, 82, 67
4, 172736, Note_off_c, 2, 70, 67
4, 172736, Note_off_c, 2, 82, 67
4, 172800, Note_off_c, 2, 70, 67
4, 172800, Note_off_c, 2, 82, 67
4, 172800, Note_on_c, 2, 70, 67
4, 172800, Note_on_c, 2, 82, 67
4, 172864, Note_off_c, 2, 70, 67
4, 172864, Note_off_c, 2, 82, 67
4, 172928, Note_off_c, 2, 70, 67
4, 172928, Note_off_c, 2, 82, 67
4, 172928, Note_on_c, 2, 75, 67
4, 172992, Note_off_c, 2, 75, 67
4, 172992, Note_on_c, 2, 77, 67
4, 173056, Note_off_c, 2, 77, 67
4, 173056, Note_on_c, 2, 79, 67
4, 173120, Note_off_c, 2, 79, 67
4, 173184, Note_off_c, 2, 79, 67
4, 173184, Note_on_c, 2, 75, 67
4, 173184, Note_on_c, 2, 79, 67
4, 173248, Note_off_c, 2, 75, 67
4, 173248, Note_off_c, 2, 79, 67
4, 173312, Note_off_c, 2, 75, 67
4, 173312, Note_off_c, 2, 79, 67
4, 173312, Note_on_c, 2, 75, 67
4, 173312, Note_on_c, 2, 79, 67
4, 173376, Note_off_c, 2, 75, 67
4, 173376, Note_off_c, 2, 79, 67
4, 173440, Note_off_c, 2, 75, 67
4, 173440, Note_off_c, 2, 79, 67
4, 173440, Note_on_c, 2, 75, 67
4, 173504, Note_off_c, 2, 75, 67
4, 173504, Note_on_c, 2, 77, 67
4, 173568, Note_off_c, 2, 77, 67
4, 173568, Note_on_c, 2, 79, 67
4, 173632, Note_off_c, 2, 79, 67
4, 173696, Note_off_c, 2, 79, 67
4, 173696, Note_on_c, 2, 75, 67
4, 173696, Note_on_c, 2, 79, 67
4, 173760, Note_off_c, 2, 75, 67
4, 173760, Note_off_c, 2, 79, 67
4, 173824, Note_off_c, 2, 75, 67
4, 173824, Note_off_c, 2, 79, 67
4, 173824, Note_on_c, 2, 75, 67
4, 173824, Note_on_c, 2, 79, 67
4, 173888, Note_off_c, 2, 75, 67
4, 173888, Note_off_c, 2, 79, 67
4, 173952, Note_off_c, 2, 75, 67
4, 173952, Note_off_c, 2, 79, 67
4, 173952, Note_on_c, 2, 75, 67
4, 174016, Note_off_c, 2, 75, 67
4, 174016, Note_on_c, 2, 77, 67
4, 174080, Note_off_c, 2, 77, 67
4, 174080, Note_on_c, 2, 79, 67
4, 174144, Note_off_c, 2, 79, 67
4, 174208, Note_off_c, 2, 79, 67
4, 174208, Note_on_c, 2, 75, 67
4, 174208, Note_on_c, 2, 79, 67
4, 174272, Note_off_c, 2, 75, 67
4, 174272, Note_off_c, 2, 79, 67
4, 174336, Note_off_c, 2, 75, 67
4, 174336, Note_off_c, 2, 79, 67
4, 174336, Note_on_c, 2, 75, 67
4, 174336, Note_on_c, 2, 80, 67
4, 174368, Note_off_c, 2, 75, 67
4, 174368, Note_off_c, 2, 80, 67
4, 174400, Note_off_c, 2, 75, 67
4, 174400, Note_off_c, 2, 80, 67
4, 174400, Note_on_c, 2, 74, 67
4, 174432, Note_off_c, 2, 74, 67
4, 174464, Note_off_c, 2, 74, 67
4, 174464, Note_on_c, 2, 72, 67
4, 174496, Note_off_c, 2, 72, 67
4, 174528, Note_off_c, 2, 72, 67
4, 174528, Note_on_c, 2, 74, 67
4, 174528, Note_on_c, 2, 79, 67
4, 174560, Note_off_c, 2, 74, 67
4, 174560, Note_off_c, 2, 79, 67
4, 174592, Note_off_c, 2, 74, 67
4, 174592, Note_off_c, 2, 79, 67
4, 174592, Note_on_c, 2, 70, 67
4, 174592, Note_on_c, 2, 77, 67
4, 174656, Note_off_c, 2, 70, 67
4, 174656, Note_off_c, 2, 77, 67
4, 174720, Note_off_c, 2, 70, 67
4, 174720, Note_off_c, 2, 77, 67
4, 174720, Note_on_c, 2, 68, 67
4, 174720, Note_on_c, 2, 70, 67
4, 174784, Note_off_c, 2, 68, 67
4, 174784, Note_off_c, 2, 70, 67
4, 174848, Note_off_c, 2, 68, 67
4, 174848, Note_off_c, 2, 70, 67
4, 174848, Note_on_c, 2, 68, 67
4, 174848, Note_on_c, 2, 70, 67
4, 174912, Note_off_c, 2, 68, 67
4, 174912, Note_off_c, 2, 70, 67
4, 174976, Note_off_c, 2, 68, 67
4, 174976, Note_off_c, 2, 70, 67
4, 174976, Note_on_c, 2, 74, 67
4, 175040, Note_off_c, 2, 74, 67
4, 175040, Note_on_c, 2, 75, 67
4, 175104, Note_off_c, 2, 75, 67
4, 175104, Note_on_c, 2, 77, 67
4, 175168, Note_off_c, 2, 77, 67
4, 175232, Note_off_c, 2, 77, 67
4, 175232, Note_on_c, 2, 74, 67
4, 175232, Note_on_c, 2, 77, 67
4, 175296, Note_off_c, 2, 74, 67
4, 175296, Note_off_c, 2, 77, 67
4, 175360, Note_off_c, 2, 74, 67
4, 175360, Note_off_c, 2, 77, 67
4, 175360, Note_on_c, 2, 74, 67
4, 175360, Note_on_c, 2, 77, 67
4, 175424, Note_off_c, 2, 74, 67
4, 175424, Note_off_c, 2, 77, 67
4, 175488, Note_off_c, 2, 74, 67
4, 175488, Note_off_c, 2, 77, 67
4, 175488, Note_on_c, 2, 74, 67
4, 175552, Note_off_c, 2, 74, 67
4, 175552, Note_on_c, 2, 75, 67
4, 175616, Note_off_c, 2, 75, 67
4, 175616, Note_on_c, 2, 77, 67
4, 175680, Note_off_c, 2, 77, 67
4, 175744, Note_off_c, 2, 77, 67
4, 175744, Note_on_c, 2, 74, 67
4, 175744, Note_on_c, 2, 77, 67
4, 175808, Note_off_c, 2, 74, 67
4, 175808, Note_off_c, 2, 77, 67
4, 175872, Note_off_c, 2, 74, 67
4, 175872, Note_off_c, 2, 77, 67
4, 175872, Note_on_c, 2, 74, 67
4, 175872, Note_on_c, 2, 77, 67
4, 175936, Note_off_c, 2, 74, 67
4, 175936, Note_off_c, 2, 77, 67
4, 176000, Note_off_c, 2, 74, 67
4, 176000, Note_off_c, 2, 77, 67
4, 176000, Note_on_c, 2, 74, 67
4, 176064, Note_off_c, 2, 74, 67
4, 176064, Note_on_c, 2, 75, 67
4, 176128, Note_off_c, 2, 75, 67
4, 176128, Note_on_c, 2, 70, 67
4, 176128, Note_on_c, 2, 77, 67
4, 176192, Note_off_c, 2, 70, 67
4, 176192, Note_off_c, 2, 77, 67
4, 176256, Note_off_c, 2, 70, 67
4, 176256, Note_off_c, 2, 77, 67
4, 176256, Note_on_c, 2, 74, 67
4, 176256, Note_on_c, 2, 77, 67
4, 176320, Note_off_c, 2, 74, 67
4, 176320, Note_off_c, 2, 77, 67
4, 176384, Note_off_c, 2, 74, 67
4, 176384, Note_off_c, 2, 77, 67
4, 176384, Note_on_c, 2, 74, 67
4, 176384, Note_on_c, 2, 79, 67
4, 176416, Note_off_c, 2, 74, 67
4, 176416, Note_off_c, 2, 79, 67
4, 176448, Note_off_c, 2, 74, 67
4, 176448, Note_off_c, 2, 79, 67
4, 176448, Note_on_c, 2, 72, 67
4, 176448, Note_on_c, 2, 77, 67
4, 176480, Note_off_c, 2, 72, 67
4, 176480, Note_off_c, 2, 77, 67
4, 176512, Note_off_c, 2, 72, 67
4, 176512, Note_off_c, 2, 77, 67
4, 176512, Note_on_c, 2, 70, 67
4, 176512, Note_on_c, 2, 77, 67
4, 176544, Note_off_c, 2, 70, 67
4, 176544, Note_off_c, 2, 77, 67
4, 176576, Note_off_c, 2, 70, 67
4, 176576, Note_off_c, 2, 77, 67
4, 176576, Note_on_c, 2, 68, 67
4, 176576, Note_on_c, 2, 79, 67
4, 176608, Note_off_c, 2, 68, 67
4, 176608, Note_off_c, 2, 79, 67
4, 176640, Note_off_c, 2, 68, 67
4, 176640, Note_off_c, 2, 79, 67
4, 176640, Note_on_c, 2, 67, 67
4, 176640, Note_on_c, 2, 75, 67
4, 176704, Note_off_c, 2, 67, 67
4, 176704, Note_off_c, 2, 75, 67
4, 176768, Note_off_c, 2, 67, 67
4, 176768, Note_off_c, 2, 75, 67
4, 176768, Note_on_c, 2, 70, 67
4, 176832, Note_off_c, 2, 70, 67
4, 176896, Note_off_c, 2, 70, 67
4, 176896, Note_on_c, 2, 70, 67
4, 176896, Note_on_c, 2, 79, 67
4, 176960, Note_off_c, 2, 70, 67
4, 176960, Note_off_c, 2, 79, 67
4, 177024, Note_off_c, 2, 70, 67
4, 177024, Note_off_c, 2, 79, 67
4, 177024, Note_on_c, 2, 75, 67
4, 177088, Note_off_c, 2, 75, 67
4, 177088, Note_on_c, 2, 77, 67
4, 177152, Note_off_c, 2, 77, 67
4, 177152, Note_on_c, 2, 79, 67
4, 177216, Note_off_c, 2, 79, 67
4, 177280, Note_off_c, 2, 79, 67
4, 177280, Note_on_c, 2, 75, 67
4, 177280, Note_on_c, 2, 79, 67
4, 177344, Note_off_c, 2, 75, 67
4, 177344, Note_off_c, 2, 79, 67
4, 177408, Note_off_c, 2, 75, 67
4, 177408, Note_off_c, 2, 79, 67
4, 177408, Note_on_c, 2, 75, 67
4, 177408, Note_on_c, 2, 79, 67
4, 177472, Note_off_c, 2, 75, 67
4, 177472, Note_off_c, 2, 79, 67
4, 177536, Note_off_c, 2, 75, 67
4, 177536, Note_off_c, 2, 79, 67
4, 177536, Note_on_c, 2, 75, 67
4, 177600, Note_off_c, 2, 75, 67
4, 177600, Note_on_c, 2, 77, 67
4, 177664, Note_off_c, 2, 77, 67
4, 177664, Note_on_c, 2, 79, 67
4, 177728, Note_off_c, 2, 79, 67
4, 177792, Note_off_c, 2, 79, 67
4, 177792, Note_on_c, 2, 75, 67
4, 177792, Note_on_c, 2, 79, 67
4, 177856, Note_off_c, 2, 75, 67
4, 177856, Note_off_c, 2, 79, 67
4, 177920, Note_off_c, 2, 75, 67
4, 177920, Note_off_c, 2, 79, 67
4, 177920, Note_on_c, 2, 75, 67
4, 177920, Note_on_c, 2, 79, 67
4, 177984, Note_off_c, 2, 75, 67
4, 177984, Note_off_c, 2, 79, 67
4, 178048, Note_off_c, 2, 75, 67
4, 178048, Note_off_c, 2, 79, 67
4, 178048, Note_on_c, 2, 75, 67
4, 178112, Note_off_c, 2, 75, 67
4, 178112, Note_on_c, 2, 77, 67
4, 178176, Note_off_c, 2, 77, 67
4, 178176, Note_on_c, 2, 79, 67
4, 178240, Note_off_c, 2, 79, 67
4, 178304, Note_off_c, 2, 79, 67
4, 178304, Note_on_c, 2, 75, 67
4, 178304, Note_on_c, 2, 79, 67
4, 178368, Note_off_c, 2, 75, 67
4, 178368, Note_off_c, 2, 79, 67
4, 178432, Note_off_c, 2, 75, 67
4, 178432, Note_off_c, 2, 79, 67
4, 178432, Note_on_c, 2, 75, 67
4, 178432, Note_on_c, 2, 80, 67
4, 178464, Note_off_c, 2, 75, 67
4, 178464, Note_off_c, 2, 80, 67
4, 178496, Note_off_c, 2, 75, 67
4, 178496, Note_off_c, 2, 80, 67
4, 178496, Note_on_c, 2, 74, 67
4, 178560, Note_off_c, 2, 74, 67
4, 178560, Note_on_c, 2, 72, 67
4, 178624, Note_off_c, 2, 72, 67
4, 178624, Note_on_c, 2, 74, 67
4, 178624, Note_on_c, 2, 79, 67
4, 178656, Note_off_c, 2, 74, 67
4, 178656, Note_off_c, 2, 79, 67
4, 178688, Note_off_c, 2, 74, 67
4, 178688, Note_off_c, 2, 79, 67
4, 178688, Note_on_c, 2, 70, 67
4, 178688, Note_on_c, 2, 77, 67
4, 178752, Note_off_c, 2, 70, 67
4, 178752, Note_off_c, 2, 77, 67
4, 178816, Note_off_c, 2, 70, 67
4, 178816, Note_off_c, 2, 77, 67
4, 178816, Note_on_c, 2, 68, 67
4, 178816, Note_on_c, 2, 70, 67
4, 178880, Note_off_c, 2, 68, 67
4, 178880, Note_off_c, 2, 70, 67
4, 178944, Note_off_c, 2, 68, 67
4, 178944, Note_off_c, 2, 70, 67
4, 178944, Note_on_c, 2, 68, 67
4, 178944, Note_on_c, 2, 70, 67
4, 179008, Note_off_c, 2, 68, 67
4, 179008, Note_off_c, 2, 70, 67
4, 179072, Note_off_c, 2, 68, 67
4, 179072, Note_off_c, 2, 70, 67
4, 179072, Note_on_c, 2, 74, 67
4, 179136, Note_off_c, 2, 74, 67
4, 179136, Note_on_c, 2, 75, 67
4, 179200, Note_off_c, 2, 75, 67
4, 179200, Note_on_c, 2, 77, 67
4, 179328, Note_off_c, 2, 77, 67
4, 179328, Note_on_c, 2, 74, 67
4, 179328, Note_on_c, 2, 80, 67
4, 179392, Note_off_c, 2, 74, 67
4, 179392, Note_off_c, 2, 80, 67
4, 179456, Note_off_c, 2, 74, 67
4, 179456, Note_off_c, 2, 80, 67
4, 179456, Note_on_c, 2, 74, 67
4, 179456, Note_on_c, 2, 79, 67
4, 179520, Note_off_c, 2, 74, 67
4, 179520, Note_off_c, 2, 79, 67
4, 179584, Note_off_c, 2, 74, 67
4, 179584, Note_off_c, 2, 79, 67
4, 179584, Note_on_c, 2, 77, 67
4, 179648, Note_off_c, 2, 77, 67
4, 179712, Note_off_c, 2, 77, 67
4, 179712, Note_on_c, 2, 75, 67
4, 179776, Note_off_c, 2, 75, 67
4, 179840, Note_off_c, 2, 75, 67
4, 179840, Note_on_c, 2, 70, 67
4, 179840, Note_on_c, 2, 74, 67
4, 179904, Note_off_c, 2, 70, 67
4, 179904, Note_off_c, 2, 74, 67
4, 179968, Note_off_c, 2, 70, 67
4, 179968, Note_off_c, 2, 74, 67
4, 179968, Note_on_c, 2, 72, 67
4, 179968, Note_on_c, 2, 74, 67
4, 180032, Note_off_c, 2, 72, 67
4, 180032, Note_off_c, 2, 74, 67
4, 180096, Note_off_c, 2, 72, 67
4, 180096, Note_off_c, 2, 74, 67
4, 180096, Note_on_c, 2, 70, 67
4, 180096, Note_on_c, 2, 74, 67
4, 180160, Note_off_c, 2, 70, 67
4, 180160, Note_off_c, 2, 74, 67
4, 180224, Note_off_c, 2, 70, 67
4, 180224, Note_off_c, 2, 74, 67
4, 180224, Note_on_c, 2, 80, 67
4, 180224, Note_on_c, 2, 84, 67
4, 180480, Note_off_c, 2, 80, 67
4, 180480, Note_off_c, 2, 84, 67
4, 180480, Note_on_c, 2, 70, 67
4, 180480, Note_on_c, 2, 74, 67
4, 180496, Note_off_c, 2, 70, 67
4, 180496, Note_off_c, 2, 74, 67
4, 180512, Note_off_c, 2, 70, 67
4, 180512, Note_off_c, 2, 74, 67
4, 180512, Note_on_c, 2, 72, 67
4, 180512, Note_on_c, 2, 75, 67
4, 180528, Note_off_c, 2, 72, 67
4, 180528, Note_off_c, 2, 75, 67
4, 180544, Note_off_c, 2, 72, 67
4, 180544, Note_off_c, 2, 75, 67
4, 180544, Note_on_c, 2, 70, 67
4, 180544, Note_on_c, 2, 74, 67
4, 180576, Note_off_c, 2, 70, 67
4, 180576, Note_off_c, 2, 74, 67
4, 180608, Note_off_c, 2, 70, 67
4, 180608, Note_off_c, 2, 74, 67
4, 180608, Note_on_c, 2, 68, 67
4, 180608, Note_on_c, 2, 72, 67
4, 180640, Note_off_c, 2, 68, 67
4, 180640, Note_off_c, 2, 72, 67
4, 180672, Note_off_c, 2, 68, 67
4, 180672, Note_off_c, 2, 72, 67
4, 180672, Note_on_c, 2, 74, 67
4, 180672, Note_on_c, 2, 77, 67
4, 180704, Note_off_c, 2, 74, 67
4, 180704, Note_off_c, 2, 77, 67
4, 180736, Note_off_c, 2, 74, 67
4, 180736, Note_off_c, 2, 77, 67
4, 180736, Note_on_c, 2, 75, 67
4, 180736, Note_on_c, 2, 79, 67
4, 180864, Note_off_c, 2, 75, 67
4, 180864, Note_off_c, 2, 79, 67
4, 180864, Note_on_c, 2, 70, 67
4, 180928, Note_off_c, 2, 70, 67
4, 180992, Note_off_c, 2, 70, 67
4, 180992, Note_on_c, 2, 70, 67
4, 181056, Note_off_c, 2, 70, 67
4, 181120, Note_off_c, 2, 70, 67
4, 181120, Note_on_c, 2, 75, 67
4, 181120, Note_on_c, 2, 79, 67
4, 181184, Note_off_c, 2, 75, 67
4, 181184, Note_off_c, 2, 79, 67
4, 181184, Note_on_c, 2, 77, 67
4, 181184, Note_on_c, 2, 80, 67
4, 181248, Note_off_c, 2, 77, 67
4, 181248, Note_off_c, 2, 80, 67
4, 181248, Note_on_c, 2, 79, 67
4, 181248, Note_on_c, 2, 82, 67
4, 181312, Note_off_c, 2, 79, 67
4, 181312, Note_off_c, 2, 82, 67
4, 181376, Note_off_c, 2, 79, 67
4, 181376, Note_off_c, 2, 82, 67
4, 181376, Note_on_c, 2, 79, 67
4, 181376, Note_on_c, 2, 82, 67
4, 181440, Note_off_c, 2, 79, 67
4, 181440, Note_off_c, 2, 82, 67
4, 181504, Note_off_c, 2, 79, 67
4, 181504, Note_off_c, 2, 82, 67
4, 181504, Note_on_c, 2, 70, 67
4, 181504, Note_on_c, 2, 79, 67
4, 181568, Note_off_c, 2, 70, 67
4, 181568, Note_off_c, 2, 79, 67
4, 181632, Note_off_c, 2, 70, 67
4, 181632, Note_off_c, 2, 79, 67
4, 181632, Note_on_c, 2, 70, 67
4, 181632, Note_on_c, 2, 75, 67
4, 181696, Note_off_c, 2, 70, 67
4, 181696, Note_off_c, 2, 75, 67
4, 181760, Note_off_c, 2, 70, 67
4, 181760, Note_off_c, 2, 75, 67
4, 181760, Note_on_c, 2, 84, 67
4, 181760, Note_on_c, 2, 87, 67
4, 181824, Note_off_c, 2, 84, 67
4, 181824, Note_off_c, 2, 87, 67
4, 181888, Note_off_c, 2, 84, 67
4, 181888, Note_off_c, 2, 87, 67
4, 181888, Note_on_c, 2, 82, 67
4, 181888, Note_on_c, 2, 86, 67
4, 181952, Note_off_c, 2, 82, 67
4, 181952, Note_off_c, 2, 86, 67
4, 182016, Note_off_c, 2, 82, 67
4, 182016, Note_off_c, 2, 86, 67
4, 182016, Note_on_c, 2, 80, 67
4, 182016, Note_on_c, 2, 84, 67
4, 182080, Note_off_c, 2, 80, 67
4, 182080, Note_off_c, 2, 84, 67
4, 182144, Note_off_c, 2, 80, 67
4, 182144, Note_off_c, 2, 84, 67
4, 182144, Note_on_c, 2, 79, 67
4, 182144, Note_on_c, 2, 87, 67
4, 182208, Note_off_c, 2, 79, 67
4, 182208, Note_off_c, 2, 87, 67
4, 182272, Note_off_c, 2, 79, 67
4, 182272, Note_off_c, 2, 87, 67
4, 182272, Note_on_c, 2, 75, 67
4, 182272, Note_on_c, 2, 82, 67
4, 182336, Note_off_c, 2, 75, 67
4, 182336, Note_off_c, 2, 82, 67
4, 182400, Note_off_c, 2, 75, 67
4, 182400, Note_off_c, 2, 82, 67
4, 182400, Note_on_c, 2, 79, 67
4, 182464, Note_off_c, 2, 79, 67
4, 182528, Note_off_c, 2, 79, 67
4, 182528, Note_on_c, 2, 67, 67
4, 182528, Note_on_c, 2, 75, 67
4, 182592, Note_off_c, 2, 67, 67
4, 182592, Note_off_c, 2, 75, 67
4, 182656, Note_off_c, 2, 67, 67
4, 182656, Note_off_c, 2, 75, 67
4, 182656, Note_on_c, 2, 68, 67
4, 182656, Note_on_c, 2, 74, 67
4, 182688, Note_off_c, 2, 68, 67
4, 182688, Note_off_c, 2, 74, 67
4, 182720, Note_off_c, 2, 68, 67
4, 182720, Note_off_c, 2, 74, 67
4, 182720, Note_on_c, 2, 74, 67
4, 182720, Note_on_c, 2, 79, 67
4, 182752, Note_off_c, 2, 74, 67
4, 182752, Note_off_c, 2, 79, 67
4, 182784, Note_off_c, 2, 74, 67
4, 182784, Note_off_c, 2, 79, 67
4, 182784, Note_on_c, 2, 70, 67
4, 182784, Note_on_c, 2, 77, 67
4, 182848, Note_off_c, 2, 70, 67
4, 182848, Note_off_c, 2, 77, 67
4, 182912, Note_off_c, 2, 70, 67
4, 182912, Note_off_c, 2, 77, 67
4, 182912, Note_on_c, 2, 65, 67
4, 182912, Note_on_c, 2, 70, 67
4, 182976, Note_off_c, 2, 65, 67
4, 182976, Note_off_c, 2, 70, 67
4, 183040, Note_off_c, 2, 65, 67
4, 183040, Note_off_c, 2, 70, 67
4, 183040, Note_on_c, 2, 68, 67
4, 183040, Note_on_c, 2, 70, 67
4, 183104, Note_off_c, 2, 68, 67
4, 183104, Note_off_c, 2, 70, 67
4, 183168, Note_off_c, 2, 68, 67
4, 183168, Note_off_c, 2, 70, 67
4, 183168, Note_on_c, 2, 70, 67
4, 183168, Note_on_c, 2, 79, 67
4, 183232, Note_off_c, 2, 70, 67
4, 183232, Note_off_c, 2, 79, 67
4, 183232, Note_on_c, 2, 77, 67
4, 183232, Note_on_c, 2, 80, 67
4, 183296, Note_off_c, 2, 77, 67
4, 183296, Note_off_c, 2, 80, 67
4, 183296, Note_on_c, 2, 79, 67
4, 183296, Note_on_c, 2, 82, 67
4, 183360, Note_off_c, 2, 79, 67
4, 183360, Note_off_c, 2, 82, 67
4, 183424, Note_off_c, 2, 79, 67
4, 183424, Note_off_c, 2, 82, 67
4, 183424, Note_on_c, 2, 79, 67
4, 183424, Note_on_c, 2, 82, 67
4, 183488, Note_off_c, 2, 79, 67
4, 183488, Note_off_c, 2, 82, 67
4, 183552, Note_off_c, 2, 79, 67
4, 183552, Note_off_c, 2, 82, 67
4, 183552, Note_on_c, 2, 70, 67
4, 183552, Note_on_c, 2, 79, 67
4, 183616, Note_off_c, 2, 70, 67
4, 183616, Note_off_c, 2, 79, 67
4, 183680, Note_off_c, 2, 70, 67
4, 183680, Note_off_c, 2, 79, 67
4, 183680, Note_on_c, 2, 75, 67
4, 183680, Note_on_c, 2, 82, 67
4, 183744, Note_off_c, 2, 75, 67
4, 183744, Note_off_c, 2, 82, 67
4, 183808, Note_off_c, 2, 75, 67
4, 183808, Note_off_c, 2, 82, 67
4, 183808, Note_on_c, 2, 84, 67
4, 183808, Note_on_c, 2, 87, 67
4, 183872, Note_off_c, 2, 84, 67
4, 183872, Note_off_c, 2, 87, 67
4, 183936, Note_off_c, 2, 84, 67
4, 183936, Note_off_c, 2, 87, 67
4, 183936, Note_on_c, 2, 82, 67
4, 183936, Note_on_c, 2, 86, 67
4, 184000, Note_off_c, 2, 82, 67
4, 184000, Note_off_c, 2, 86, 67
4, 184064, Note_off_c, 2, 82, 67
4, 184064, Note_off_c, 2, 86, 67
4, 184064, Note_on_c, 2, 80, 67
4, 184064, Note_on_c, 2, 84, 67
4, 184128, Note_off_c, 2, 80, 67
4, 184128, Note_off_c, 2, 84, 67
4, 184192, Note_off_c, 2, 80, 67
4, 184192, Note_off_c, 2, 84, 67
4, 184192, Note_on_c, 2, 70, 67
4, 184192, Note_on_c, 2, 74, 67
4, 184224, Note_off_c, 2, 70, 67
4, 184224, Note_off_c, 2, 74, 67
4, 184256, Note_off_c, 2, 70, 67
4, 184256, Note_off_c, 2, 74, 67
4, 184256, Note_on_c, 2, 77, 67
4, 184256, Note_on_c, 2, 80, 67
4, 184288, Note_off_c, 2, 77, 67
4, 184288, Note_off_c, 2, 80, 67
4, 184320, Note_off_c, 2, 77, 67
4, 184320, Note_off_c, 2, 80, 67
4, 184320, Note_on_c, 2, 77, 67
4, 184320, Note_on_c, 2, 82, 67
4, 184384, Note_off_c, 2, 77, 67
4, 184384, Note_off_c, 2, 82, 67
4, 184448, Note_off_c, 2, 77, 67
4, 184448, Note_off_c, 2, 82, 67
4, 184448, Note_on_c, 2, 80, 67
4, 184448, Note_on_c, 2, 87, 67
4, 184512, Note_off_c, 2, 80, 67
4, 184512, Note_off_c, 2, 87, 67
4, 184576, Note_off_c, 2, 80, 67
4, 184576, Note_off_c, 2, 87, 67
4, 184576, Note_on_c, 2, 82, 67
4, 184576, Note_on_c, 2, 86, 67
4, 184640, Note_off_c, 2, 82, 67
4, 184640, Note_off_c, 2, 86, 67
4, 184704, Note_off_c, 2, 82, 67
4, 184704, Note_off_c, 2, 86, 67
4, 184704, Note_on_c, 2, 80, 67
4, 184704, Note_on_c, 2, 89, 67
4, 184768, Note_off_c, 2, 80, 67
4, 184768, Note_off_c, 2, 89, 67
4, 184832, Note_off_c, 2, 80, 67
4, 184832, Note_off_c, 2, 89, 67
4, 184832, Note_on_c, 2, 79, 67
4, 184832, Note_on_c, 2, 87, 67
4, 184896, Note_off_c, 2, 79, 67
4, 184896, Note_off_c, 2, 87, 67
4, 184960, Note_off_c, 2, 79, 67
4, 184960, Note_off_c, 2, 87, 67
4, 184960, Note_on_c, 2, 70, 67
4, 184960, Note_on_c, 2, 82, 67
4, 185024, Note_off_c, 2, 70, 67
4, 185024, Note_off_c, 2, 82, 67
4, 185088, Note_off_c, 2, 70, 67
4, 185088, Note_off_c, 2, 82, 67
4, 185088, Note_on_c, 2, 70, 67
4, 185088, Note_on_c, 2, 82, 67
4, 185152, Note_off_c, 2, 70, 67
4, 185152, Note_off_c, 2, 82, 67
4, 185216, Note_off_c, 2, 70, 67
4, 185216, Note_off_c, 2, 82, 67
4, 185216, Note_on_c, 2, 75, 67
4, 185280, Note_off_c, 2, 75, 67
4, 185280, Note_on_c, 2, 77, 67
4, 185344, Note_off_c, 2, 77, 67
4, 185344, Note_on_c, 2, 79, 67
4, 185408, Note_off_c, 2, 79, 67
4, 185472, Note_off_c, 2, 79, 67
4, 185472, Note_on_c, 2, 75, 67
4, 185472, Note_on_c, 2, 79, 67
4, 185536, Note_off_c, 2, 75, 67
4, 185536, Note_off_c, 2, 79, 67
4, 185600, Note_off_c, 2, 75, 67
4, 185600, Note_off_c, 2, 79, 67
4, 185600, Note_on_c, 2, 75, 67
4, 185600, Note_on_c, 2, 79, 67
4, 185664, Note_off_c, 2, 75, 67
4, 185664, Note_off_c, 2, 79, 67
4, 185728, Note_off_c, 2, 75, 67
4, 185728, Note_off_c, 2, 79, 67
4, 185728, Note_on_c, 2, 75, 67
4, 185792, Note_off_c, 2, 75, 67
4, 185792, Note_on_c, 2, 77, 67
4, 185856, Note_off_c, 2, 77, 67
4, 185856, Note_on_c, 2, 79, 67
4, 185920, Note_off_c, 2, 79, 67
4, 185984, Note_off_c, 2, 79, 67
4, 185984, Note_on_c, 2, 75, 67
4, 185984, Note_on_c, 2, 79, 67
4, 186048, Note_off_c, 2, 75, 67
4, 186048, Note_off_c, 2, 79, 67
4, 186112, Note_off_c, 2, 75, 67
4, 186112, Note_off_c, 2, 79, 67
4, 186112, Note_on_c, 2, 75, 67
4, 186112, Note_on_c, 2, 79, 67
4, 186176, Note_off_c, 2, 75, 67
4, 186176, Note_off_c, 2, 79, 67
4, 186240, Note_off_c, 2, 75, 67
4, 186240, Note_off_c, 2, 79, 67
4, 186240, Note_on_c, 2, 75, 67
4, 186304, Note_off_c, 2, 75, 67
4, 186304, Note_on_c, 2, 77, 67
4, 186368, Note_off_c, 2, 77, 67
4, 186368, Note_on_c, 2, 79, 67
4, 186432, Note_off_c, 2, 79, 67
4, 186496, Note_off_c, 2, 79, 67
4, 186496, Note_on_c, 2, 75, 67
4, 186496, Note_on_c, 2, 79, 67
4, 186560, Note_off_c, 2, 75, 67
4, 186560, Note_off_c, 2, 79, 67
4, 186624, Note_off_c, 2, 75, 67
4, 186624, Note_off_c, 2, 79, 67
4, 186624, Note_on_c, 2, 75, 67
4, 186624, Note_on_c, 2, 80, 67
4, 186656, Note_off_c, 2, 75, 67
4, 186656, Note_off_c, 2, 80, 67
4, 186688, Note_off_c, 2, 75, 67
4, 186688, Note_off_c, 2, 80, 67
4, 186688, Note_on_c, 2, 74, 67
4, 186720, Note_off_c, 2, 74, 67
4, 186752, Note_off_c, 2, 74, 67
4, 186752, Note_on_c, 2, 72, 67
4, 186784, Note_off_c, 2, 72, 67
4, 186816, Note_off_c, 2, 72, 67
4, 186816, Note_on_c, 2, 74, 67
4, 186816, Note_on_c, 2, 79, 67
4, 186848, Note_off_c, 2, 74, 67
4, 186848, Note_off_c, 2, 79, 67
4, 186880, Note_off_c, 2, 74, 67
4, 186880, Note_off_c, 2, 79, 67
4, 186880, Note_on_c, 2, 70, 67
4, 186880, Note_on_c, 2, 77, 67
4, 186944, Note_off_c, 2, 70, 67
4, 186944, Note_off_c, 2, 77, 67
4, 187008, Note_off_c, 2, 70, 67
4, 187008, Note_off_c, 2, 77, 67
4, 187008, Note_on_c, 2, 68, 67
4, 187008, Note_on_c, 2, 70, 67
4, 187072, Note_off_c, 2, 68, 67
4, 187072, Note_off_c, 2, 70, 67
4, 187136, Note_off_c, 2, 68, 67
4, 187136, Note_off_c, 2, 70, 67
4, 187136, Note_on_c, 2, 68, 67
4, 187136, Note_on_c, 2, 70, 67
4, 187200, Note_off_c, 2, 68, 67
4, 187200, Note_off_c, 2, 70, 67
4, 187264, Note_off_c, 2, 68, 67
4, 187264, Note_off_c, 2, 70, 67
4, 187264, Note_on_c, 2, 74, 67
4, 187328, Note_off_c, 2, 74, 67
4, 187328, Note_on_c, 2, 75, 67
4, 187392, Note_off_c, 2, 75, 67
4, 187392, Note_on_c, 2, 77, 67
4, 187456, Note_off_c, 2, 77, 67
4, 187520, Note_off_c, 2, 77, 67
4, 187520, Note_on_c, 2, 74, 67
4, 187520, Note_on_c, 2, 77, 67
4, 187584, Note_off_c, 2, 74, 67
4, 187584, Note_off_c, 2, 77, 67
4, 187648, Note_off_c, 2, 74, 67
4, 187648, Note_off_c, 2, 77, 67
4, 187648, Note_on_c, 2, 74, 67
4, 187648, Note_on_c, 2, 77, 67
4, 187712, Note_off_c, 2, 74, 67
4, 187712, Note_off_c, 2, 77, 67
4, 187776, Note_off_c, 2, 74, 67
4, 187776, Note_off_c, 2, 77, 67
4, 187776, Note_on_c, 2, 74, 67
4, 187840, Note_off_c, 2, 74, 67
4, 187840, Note_on_c, 2, 75, 67
4, 187904, Note_off_c, 2, 75, 67
4, 187904, Note_on_c, 2, 77, 67
4, 187968, Note_off_c, 2, 77, 67
4, 188032, Note_off_c, 2, 77, 67
4, 188032, Note_on_c, 2, 74, 67
4, 188032, Note_on_c, 2, 77, 67
4, 188096, Note_off_c, 2, 74, 67
4, 188096, Note_off_c, 2, 77, 67
4, 188160, Note_off_c, 2, 74, 67
4, 188160, Note_off_c, 2, 77, 67
4, 188160, Note_on_c, 2, 74, 67
4, 188160, Note_on_c, 2, 77, 67
4, 188224, Note_off_c, 2, 74, 67
4, 188224, Note_off_c, 2, 77, 67
4, 188288, Note_off_c, 2, 74, 67
4, 188288, Note_off_c, 2, 77, 67
4, 188288, Note_on_c, 2, 74, 67
4, 188352, Note_off_c, 2, 74, 67
4, 188352, Note_on_c, 2, 75, 67
4, 188416, Note_off_c, 2, 75, 67
4, 188416, Note_on_c, 2, 70, 67
4, 188416, Note_on_c, 2, 77, 67
4, 188480, Note_off_c, 2, 70, 67
4, 188480, Note_off_c, 2, 77, 67
4, 188544, Note_off_c, 2, 70, 67
4, 188544, Note_off_c, 2, 77, 67
4, 188544, Note_on_c, 2, 74, 67
4, 188544, Note_on_c, 2, 77, 67
4, 188608, Note_off_c, 2, 74, 67
4, 188608, Note_off_c, 2, 77, 67
4, 188672, Note_off_c, 2, 74, 67
4, 188672, Note_off_c, 2, 77, 67
4, 188672, Note_on_c, 2, 74, 67
4, 188672, Note_on_c, 2, 79, 67
4, 188704, Note_off_c, 2, 74, 67
4, 188704, Note_off_c, 2, 79, 67
4, 188736, Note_off_c, 2, 74, 67
4, 188736, Note_off_c, 2, 79, 67
4, 188736, Note_on_c, 2, 72, 67
4, 188736, Note_on_c, 2, 77, 67
4, 188768, Note_off_c, 2, 72, 67
4, 188768, Note_off_c, 2, 77, 67
4, 188800, Note_off_c, 2, 72, 67
4, 188800, Note_off_c, 2, 77, 67
4, 188800, Note_on_c, 2, 70, 67
4, 188800, Note_on_c, 2, 77, 67
4, 188832, Note_off_c, 2, 70, 67
4, 188832, Note_off_c, 2, 77, 67
4, 188864, Note_off_c, 2, 70, 67
4, 188864, Note_off_c, 2, 77, 67
4, 188864, Note_on_c, 2, 68, 67
4, 188864, Note_on_c, 2, 79, 67
4, 188896, Note_off_c, 2, 68, 67
4, 188896, Note_off_c, 2, 79, 67
4, 188928, Note_off_c, 2, 68, 67
4, 188928, Note_off_c, 2, 79, 67
4, 188928, Note_on_c, 2, 67, 67
4, 188928, Note_on_c, 2, 75, 67
4, 188992, Note_off_c, 2, 67, 67
4, 188992, Note_off_c, 2, 75, 67
4, 189056, Note_off_c, 2, 67, 67
4, 189056, Note_off_c, 2, 75, 67
4, 189056, Note_on_c, 2, 70, 67
4, 189120, Note_off_c, 2, 70, 67
4, 189184, Note_off_c, 2, 70, 67
4, 189184, Note_on_c, 2, 70, 67
4, 189184, Note_on_c, 2, 79, 67
4, 189248, Note_off_c, 2, 70, 67
4, 189248, Note_off_c, 2, 79, 67
4, 189312, Note_off_c, 2, 70, 67
4, 189312, Note_off_c, 2, 79, 67
4, 189312, Note_on_c, 2, 75, 67
4, 189376, Note_off_c, 2, 75, 67
4, 189376, Note_on_c, 2, 77, 67
4, 189440, Note_off_c, 2, 77, 67
4, 189440, Note_on_c, 2, 79, 67
4, 189504, Note_off_c, 2, 79, 67
4, 189568, Note_off_c, 2, 79, 67
4, 189568, Note_on_c, 2, 75, 67
4, 189568, Note_on_c, 2, 79, 67
4, 189632, Note_off_c, 2, 75, 67
4, 189632, Note_off_c, 2, 79, 67
4, 189696, Note_off_c, 2, 75, 67
4, 189696, Note_off_c, 2, 79, 67
4, 189696, Note_on_c, 2, 75, 67
4, 189696, Note_on_c, 2, 79, 67
4, 189760, Note_off_c, 2, 75, 67
4, 189760, Note_off_c, 2, 79, 67
4, 189824, Note_off_c, 2, 75, 67
4, 189824, Note_off_c, 2, 79, 67
4, 189824, Note_on_c, 2, 75, 67
4, 189888, Note_off_c, 2, 75, 67
4, 189888, Note_on_c, 2, 77, 67
4, 189952, Note_off_c, 2, 77, 67
4, 189952, Note_on_c, 2, 79, 67
4, 190016, Note_off_c, 2, 79, 67
4, 190080, Note_off_c, 2, 79, 67
4, 190080, Note_on_c, 2, 75, 67
4, 190080, Note_on_c, 2, 79, 67
4, 190144, Note_off_c, 2, 75, 67
4, 190144, Note_off_c, 2, 79, 67
4, 190208, Note_off_c, 2, 75, 67
4, 190208, Note_off_c, 2, 79, 67
4, 190208, Note_on_c, 2, 75, 67
4, 190208, Note_on_c, 2, 79, 67
4, 190272, Note_off_c, 2, 75, 67
4, 190272, Note_off_c, 2, 79, 67
4, 190336, Note_off_c, 2, 75, 67
4, 190336, Note_off_c, 2, 79, 67
4, 190336, Note_on_c, 2, 75, 67
4, 190400, Note_off_c, 2, 75, 67
4, 190400, Note_on_c, 2, 77, 67
4, 190464, Note_off_c, 2, 77, 67
4, 190464, Note_on_c, 2, 79, 67
4, 190528, Note_off_c, 2, 79, 67
4, 190592, Note_off_c, 2, 79, 67
4, 190592, Note_on_c, 2, 75, 67
4, 190592, Note_on_c, 2, 79, 67
4, 190656, Note_off_c, 2, 75, 67
4, 190656, Note_off_c, 2, 79, 67
4, 190720, Note_off_c, 2, 75, 67
4, 190720, Note_off_c, 2, 79, 67
4, 190720, Note_on_c, 2, 75, 67
4, 190720, Note_on_c, 2, 80, 67
4, 190752, Note_off_c, 2, 75, 67
4, 190752, Note_off_c, 2, 80, 67
4, 190784, Note_off_c, 2, 75, 67
4, 190784, Note_off_c, 2, 80, 67
4, 190784, Note_on_c, 2, 74, 67
4, 190848, Note_off_c, 2, 74, 67
4, 190848, Note_on_c, 2, 72, 67
4, 190912, Note_off_c, 2, 72, 67
4, 190912, Note_on_c, 2, 74, 67
4, 190912, Note_on_c, 2, 79, 67
4, 190944, Note_off_c, 2, 74, 67
4, 190944, Note_off_c, 2, 79, 67
4, 190976, Note_off_c, 2, 74, 67
4, 190976, Note_off_c, 2, 79, 67
4, 190976, Note_on_c, 2, 70, 67
4, 190976, Note_on_c, 2, 77, 67
4, 191040, Note_off_c, 2, 70, 67
4, 191040, Note_off_c, 2, 77, 67
4, 191104, Note_off_c, 2, 70, 67
4, 191104, Note_off_c, 2, 77, 67
4, 191104, Note_on_c, 2, 68, 67
4, 191104, Note_on_c, 2, 70, 67
4, 191168, Note_off_c, 2, 68, 67
4, 191168, Note_off_c, 2, 70, 67
4, 191232, Note_off_c, 2, 68, 67
4, 191232, Note_off_c, 2, 70, 67
4, 191232, Note_on_c, 2, 68, 67
4, 191232, Note_on_c, 2, 70, 67
4, 191296, Note_off_c, 2, 68, 67
4, 191296, Note_off_c, 2, 70, 67
4, 191360, Note_off_c, 2, 68, 67
4, 191360, Note_off_c, 2, 70, 67
4, 191360, Note_on_c, 2, 74, 67
4, 191424, Note_off_c, 2, 74, 67
4, 191424, Note_on_c, 2, 75, 67
4, 191488, Note_off_c, 2, 75, 67
4, 191488, Note_on_c, 2, 77, 67
4, 191616, Note_off_c, 2, 77, 67
4, 191616, Note_on_c, 2, 74, 67
4, 191616, Note_on_c, 2, 80, 67
4, 191680, Note_off_c, 2, 74, 67
4, 191680, Note_off_c, 2, 80, 67
4, 191744, Note_off_c, 2, 74, 67
4, 191744, Note_off_c, 2, 80, 67
4, 191744, Note_on_c, 2, 74, 67
4, 191744, Note_on_c, 2, 79, 67
4, 191808, Note_off_c, 2, 74, 67
4, 191808, Note_off_c, 2, 79, 67
4, 191872, Note_off_c, 2, 74, 67
4, 191872, Note_off_c, 2, 79, 67
4, 191872, Note_on_c, 2, 77, 67
4, 191936, Note_off_c, 2, 77, 67
4, 192000, Note_off_c, 2, 77, 67
4, 192000, Note_on_c, 2, 75, 67
4, 192064, Note_off_c, 2, 75, 67
4, 192128, Note_off_c, 2, 75, 67
4, 192128, Note_on_c, 2, 70, 67
4, 192128, Note_on_c, 2, 74, 67
4, 192192, Note_off_c, 2, 70, 67
4, 192192, Note_off_c, 2, 74, 67
4, 192256, Note_off_c, 2, 70, 67
4, 192256, Note_off_c, 2, 74, 67
4, 192256, Note_on_c, 2, 72, 67
4, 192256, Note_on_c, 2, 74, 67
4, 192320, Note_off_c, 2, 72, 67
4, 192320, Note_off_c, 2, 74, 67
4, 192384, Note_off_c, 2, 72, 67
4, 192384, Note_off_c, 2, 74, 67
4, 192384, Note_on_c, 2, 70, 67
4, 192384, Note_on_c, 2, 74, 67
4, 192448, Note_off_c, 2, 70, 67
4, 192448, Note_off_c, 2, 74, 67
4, 192512, Note_off_c, 2, 70, 67
4, 192512, Note_off_c, 2, 74, 67
4, 192512, Note_on_c, 2, 80, 67
4, 192512, Note_on_c, 2, 84, 67
4, 192768, Note_off_c, 2, 80, 67
4, 192768, Note_off_c, 2, 84, 67
4, 192768, Note_on_c, 2, 70, 67
4, 192768, Note_on_c, 2, 74, 67
4, 192784, Note_off_c, 2, 70, 67
4, 192784, Note_off_c, 2, 74, 67
4, 192800, Note_off_c, 2, 70, 67
4, 192800, Note_off_c, 2, 74, 67
4, 192800, Note_on_c, 2, 72, 67
4, 192800, Note_on_c, 2, 75, 67
4, 192816, Note_off_c, 2, 72, 67
4, 192816, Note_off_c, 2, 75, 67
4, 192832, Note_off_c, 2, 72, 67
4, 192832, Note_off_c, 2, 75, 67
4, 192832, Note_on_c, 2, 70, 67
4, 192832, Note_on_c, 2, 74, 67
4, 192864, Note_off_c, 2, 70, 67
4, 192864, Note_off_c, 2, 74, 67
4, 192896, Note_off_c, 2, 70, 67
4, 192896, Note_off_c, 2, 74, 67
4, 192896, Note_on_c, 2, 68, 67
4, 192896, Note_on_c, 2, 72, 67
4, 192928, Note_off_c, 2, 68, 67
4, 192928, Note_off_c, 2, 72, 67
4, 192960, Note_off_c, 2, 68, 67
4, 192960, Note_off_c, 2, 72, 67
4, 192960, Note_on_c, 2, 74, 67
4, 192960, Note_on_c, 2, 77, 67
4, 192992, Note_off_c, 2, 74, 67
4, 192992, Note_off_c, 2, 77, 67
4, 193024, Note_off_c, 2, 74, 67
4, 193024, Note_off_c, 2, 77, 67
4, 193024, Note_on_c, 2, 75, 67
4, 193024, Note_on_c, 2, 79, 67
4, 193152, Note_off_c, 2, 75, 67
4, 193152, Note_off_c, 2, 79, 67
4, 193152, Note_on_c, 2, 70, 67
4, 193216, Note_off_c, 2, 70, 67
4, 193280, Note_off_c, 2, 70, 67
4, 193280, Note_on_c, 2, 70, 67
4, 193344, Note_off_c, 2, 70, 67
4, 193408, Note_off_c, 2, 70, 67
4, 193408, Note_on_c, 2, 75, 67
4, 193408, Note_on_c, 2, 79, 67
4, 193472, Note_off_c, 2, 75, 67
4, 193472, Note_off_c, 2, 79, 67
4, 193472, Note_on_c, 2, 77, 67
4, 193472, Note_on_c, 2, 80, 67
4, 193536, Note_off_c, 2, 77, 67
4, 193536, Note_off_c, 2, 80, 67
4, 193536, Note_on_c, 2, 79, 67
4, 193536, Note_on_c, 2, 82, 67
4, 193600, Note_off_c, 2, 79, 67
4, 193600, Note_off_c, 2, 82, 67
4, 193664, Note_off_c, 2, 79, 67
4, 193664, Note_off_c, 2, 82, 67
4, 193664, Note_on_c, 2, 79, 67
4, 193664, Note_on_c, 2, 82, 67
4, 193728, Note_off_c, 2, 79, 67
4, 193728, Note_off_c, 2, 82, 67
4, 193792, Note_off_c, 2, 79, 67
4, 193792, Note_off_c, 2, 82, 67
4, 193792, Note_on_c, 2, 70, 67
4, 193792, Note_on_c, 2, 79, 67
4, 193856, Note_off_c, 2, 70, 67
4, 193856, Note_off_c, 2, 79, 67
4, 193920, Note_off_c, 2, 70, 67
4, 193920, Note_off_c, 2, 79, 67
4, 193920, Note_on_c, 2, 70, 67
4, 193920, Note_on_c, 2, 75, 67
4, 193984, Note_off_c, 2, 70, 67
4, 193984, Note_off_c, 2, 75, 67
4, 194048, Note_off_c, 2, 70, 67
4, 194048, Note_off_c, 2, 75, 67
4, 194048, Note_on_c, 2, 84, 67
4, 194048, Note_on_c, 2, 87, 67
4, 194112, Note_off_c, 2, 84, 67
4, 194112, Note_off_c, 2, 87, 67
4, 194176, Note_off_c, 2, 84, 67
4, 194176, Note_off_c, 2, 87, 67
4, 194176, Note_on_c, 2, 82, 67
4, 194176, Note_on_c, 2, 86, 67
4, 194240, Note_off_c, 2, 82, 67
4, 194240, Note_off_c, 2, 86, 67
4, 194304, Note_off_c, 2, 82, 67
4, 194304, Note_off_c, 2, 86, 67
4, 194304, Note_on_c, 2, 80, 67
4, 194304, Note_on_c, 2, 84, 67
4, 194368, Note_off_c, 2, 80, 67
4, 194368, Note_off_c, 2, 84, 67
4, 194432, Note_off_c, 2, 80, 67
4, 194432, Note_off_c, 2, 84, 67
4, 194432, Note_on_c, 2, 79, 67
4, 194432, Note_on_c, 2, 87, 67
4, 194496, Note_off_c, 2, 79, 67
4, 194496, Note_off_c, 2, 87, 67
4, 194560, Note_off_c, 2, 79, 67
4, 194560, Note_off_c, 2, 87, 67
4, 194560, Note_on_c, 2, 75, 67
4, 194560, Note_on_c, 2, 82, 67
4, 194624, Note_off_c, 2, 75, 67
4, 194624, Note_off_c, 2, 82, 67
4, 194688, Note_off_c, 2, 75, 67
4, 194688, Note_off_c, 2, 82, 67
4, 194688, Note_on_c, 2, 79, 67
4, 194752, Note_off_c, 2, 79, 67
4, 194816, Note_off_c, 2, 79, 67
4, 194816, Note_on_c, 2, 67, 67
4, 194816, Note_on_c, 2, 75, 67
4, 194880, Note_off_c, 2, 67, 67
4, 194880, Note_off_c, 2, 75, 67
4, 194944, Note_off_c, 2, 67, 67
4, 194944, Note_off_c, 2, 75, 67
4, 194944, Note_on_c, 2, 68, 67
4, 194944, Note_on_c, 2, 74, 67
4, 194976, Note_off_c, 2, 68, 67
4, 194976, Note_off_c, 2, 74, 67
4, 195008, Note_off_c, 2, 68, 67
4, 195008, Note_off_c, 2, 74, 67
4, 195008, Note_on_c, 2, 74, 67
4, 195008, Note_on_c, 2, 79, 67
4, 195040, Note_off_c, 2, 74, 67
4, 195040, Note_off_c, 2, 79, 67
4, 195072, Note_off_c, 2, 74, 67
4, 195072, Note_off_c, 2, 79, 67
4, 195072, Note_on_c, 2, 70, 67
4, 195072, Note_on_c, 2, 77, 67
4, 195136, Note_off_c, 2, 70, 67
4, 195136, Note_off_c, 2, 77, 67
4, 195200, Note_off_c, 2, 70, 67
4, 195200, Note_off_c, 2, 77, 67
4, 195200, Note_on_c, 2, 65, 67
4, 195200, Note_on_c, 2, 70, 67
4, 195264, Note_off_c, 2, 65, 67
4, 195264, Note_off_c, 2, 70, 67
4, 195328, Note_off_c, 2, 65, 67
4, 195328, Note_off_c, 2, 70, 67
4, 195328, Note_on_c, 2, 68, 67
4, 195328, Note_on_c, 2, 70, 67
4, 195392, Note_off_c, 2, 68, 67
4, 195392, Note_off_c, 2, 70, 67
4, 195456, Note_off_c, 2, 68, 67
4, 195456, Note_off_c, 2, 70, 67
4, 195456, Note_on_c, 2, 70, 67
4, 195456, Note_on_c, 2, 79, 67
4, 195520, Note_off_c, 2, 70, 67
4, 195520, Note_off_c, 2, 79, 67
4, 195520, Note_on_c, 2, 77, 67
4, 195520, Note_on_c, 2, 80, 67
4, 195584, Note_off_c, 2, 77, 67
4, 195584, Note_off_c, 2, 80, 67
4, 195584, Note_on_c, 2, 79, 67
4, 195584, Note_on_c, 2, 82, 67
4, 195648, Note_off_c, 2, 79, 67
4, 195648, Note_off_c, 2, 82, 67
4, 195712, Note_off_c, 2, 79, 67
4, 195712, Note_off_c, 2, 82, 67
4, 195712, Note_on_c, 2, 79, 67
4, 195712, Note_on_c, 2, 82, 67
4, 195776, Note_off_c, 2, 79, 67
4, 195776, Note_off_c, 2, 82, 67
4, 195840, Note_off_c, 2, 79, 67
4, 195840, Note_off_c, 2, 82, 67
4, 195840, Note_on_c, 2, 70, 67
4, 195840, Note_on_c, 2, 79, 67
4, 195904, Note_off_c, 2, 70, 67
4, 195904, Note_off_c, 2, 79, 67
4, 195968, Note_off_c, 2, 70, 67
4, 195968, Note_off_c, 2, 79, 67
4, 195968, Note_on_c, 2, 75, 67
4, 195968, Note_on_c, 2, 82, 67
4, 196032, Note_off_c, 2, 75, 67
4, 196032, Note_off_c, 2, 82, 67
4, 196096, Note_off_c, 2, 75, 67
4, 196096, Note_off_c, 2, 82, 67
4, 196096, Note_on_c, 2, 84, 67
4, 196096, Note_on_c, 2, 87, 67
4, 196160, Note_off_c, 2, 84, 67
4, 196160, Note_off_c, 2, 87, 67
4, 196224, Note_off_c, 2, 84, 67
4, 196224, Note_off_c, 2, 87, 67
4, 196224, Note_on_c, 2, 82, 67
4, 196224, Note_on_c, 2, 86, 67
4, 196288, Note_off_c, 2, 82, 67
4, 196288, Note_off_c, 2, 86, 67
4, 196352, Note_off_c, 2, 82, 67
4, 196352, Note_off_c, 2, 86, 67
4, 196352, Note_on_c, 2, 80, 67
4, 196352, Note_on_c, 2, 84, 67
4, 196416, Note_off_c, 2, 80, 67
4, 196416, Note_off_c, 2, 84, 67
4, 196480, Note_off_c, 2, 80, 67
4, 196480, Note_off_c, 2, 84, 67
4, 196480, Note_on_c, 2, 70, 67
4, 196480, Note_on_c, 2, 74, 67
4, 196512, Note_off_c, 2, 70, 67
4, 196512, Note_off_c, 2, 74, 67
4, 196544, Note_off_c, 2, 70, 67
4, 196544, Note_off_c, 2, 74, 67
4, 196544, Note_on_c, 2, 77, 67
4, 196544, Note_on_c, 2, 80, 67
4, 196576, Note_off_c, 2, 77, 67
4, 196576, Note_off_c, 2, 80, 67
4, 196608, Note_off_c, 2, 77, 67
4, 196608, Note_off_c, 2, 80, 67
4, 196608, Note_on_c, 2, 77, 67
4, 196608, Note_on_c, 2, 82, 67
4, 196672, Note_off_c, 2, 77, 67
4, 196672, Note_off_c, 2, 82, 67
4, 196736, Note_off_c, 2, 77, 67
4, 196736, Note_off_c, 2, 82, 67
4, 196736, Note_on_c, 2, 80, 67
4, 196736, Note_on_c, 2, 87, 67
4, 196800, Note_off_c, 2, 80, 67
4, 196800, Note_off_c, 2, 87, 67
4, 196864, Note_off_c, 2, 80, 67
4, 196864, Note_off_c, 2, 87, 67
4, 196864, Note_on_c, 2, 82, 67
4, 196864, Note_on_c, 2, 86, 67
4, 196928, Note_off_c, 2, 82, 67
4, 196928, Note_off_c, 2, 86, 67
4, 196992, Note_off_c, 2, 82, 67
4, 196992, Note_off_c, 2, 86, 67
4, 196992, Note_on_c, 2, 80, 67
4, 196992, Note_on_c, 2, 89, 67
4, 197056, Note_off_c, 2, 80, 67
4, 197056, Note_off_c, 2, 89, 67
4, 197120, Note_off_c, 2, 80, 67
4, 197120, Note_off_c, 2, 89, 67
4, 197120, Note_on_c, 2, 79, 67
4, 197120, Note_on_c, 2, 87, 67
4, 197184, Note_off_c, 2, 79, 67
4, 197184, Note_off_c, 2, 87, 67
4, 197248, Note_off_c, 2, 79, 67
4, 197248, Note_off_c, 2, 87, 67
4, 197248, Note_on_c, 2, 70, 67
4, 197248, Note_on_c, 2, 82, 67
4, 197312, Note_off_c, 2, 70, 67
4, 197312, Note_off_c, 2, 82, 67
4, 197376, Note_off_c, 2, 70, 67
4, 197376, Note_off_c, 2, 82, 67
4, 197376, Note_on_c, 2, 70, 67
4, 197376, Note_on_c, 2, 82, 67
4, 197440, Note_off_c, 2, 70, 67
4, 197440, Note_off_c, 2, 82, 67
4, 197504, Note_off_c, 2, 70, 67
4, 197504, Note_off_c, 2, 82, 67
4, 197504, Note_on_c, 2, 75, 67
4, 197568, Note_off_c, 2, 75, 67
4, 197568, Note_on_c, 2, 77, 67
4, 197632, Note_off_c, 2, 77, 67
4, 197632, Note_on_c, 2, 79, 67
4, 197696, Note_off_c, 2, 79, 67
4, 197760, Note_off_c, 2, 79, 67
4, 197760, Note_on_c, 2, 75, 67
4, 197760, Note_on_c, 2, 79, 67
4, 197824, Note_off_c, 2, 75, 67
4, 197824, Note_off_c, 2, 79, 67
4, 197888, Note_off_c, 2, 75, 67
4, 197888, Note_off_c, 2, 79, 67
4, 197888, Note_on_c, 2, 75, 67
4, 197888, Note_on_c, 2, 79, 67
4, 197952, Note_off_c, 2, 75, 67
4, 197952, Note_off_c, 2, 79, 67
4, 198016, Note_off_c, 2, 75, 67
4, 198016, Note_off_c, 2, 79, 67
4, 198016, Note_on_c, 2, 75, 67
4, 198080, Note_off_c, 2, 75, 67
4, 198080, Note_on_c, 2, 77, 67
4, 198144, Note_off_c, 2, 77, 67
4, 198144, Note_on_c, 2, 79, 67
4, 198208, Note_off_c, 2, 79, 67
4, 198272, Note_off_c, 2, 79, 67
4, 198272, Note_on_c, 2, 75, 67
4, 198272, Note_on_c, 2, 79, 67
4, 198336, Note_off_c, 2, 75, 67
4, 198336, Note_off_c, 2, 79, 67
4, 198400, Note_off_c, 2, 75, 67
4, 198400, Note_off_c, 2, 79, 67
4, 198400, Note_on_c, 2, 75, 67
4, 198400, Note_on_c, 2, 79, 67
4, 198464, Note_off_c, 2, 75, 67
4, 198464, Note_off_c, 2, 79, 67
4, 198528, Note_off_c, 2, 75, 67
4, 198528, Note_off_c, 2, 79, 67
4, 198528, Note_on_c, 2, 75, 67
4, 198592, Note_off_c, 2, 75, 67
4, 198592, Note_on_c, 2, 77, 67
4, 198656, Note_off_c, 2, 77, 67
4, 198656, Note_on_c, 2, 79, 67
4, 198720, Note_off_c, 2, 79, 67
4, 198784, Note_off_c, 2, 79, 67
4, 198784, Note_on_c, 2, 75, 67
4, 198784, Note_on_c, 2, 79, 67
4, 198848, Note_off_c, 2, 75, 67
4, 198848, Note_off_c, 2, 79, 67
4, 198912, Note_off_c, 2, 75, 67
4, 198912, Note_off_c, 2, 79, 67
4, 198912, Note_on_c, 2, 75, 67
4, 198912, Note_on_c, 2, 80, 67
4, 198944, Note_off_c, 2, 75, 67
4, 198944, Note_off_c, 2, 80, 67
4, 198976, Note_off_c, 2, 75, 67
4, 198976, Note_off_c, 2, 80, 67
4, 198976, Note_on_c, 2, 74, 67
4, 199008, Note_off_c, 2, 74, 67
4, 199040, Note_off_c, 2, 74, 67
4, 199040, Note_on_c, 2, 72, 67
4, 199072, Note_off_c, 2, 72, 67
4, 199104, Note_off_c, 2, 72, 67
4, 199104, Note_on_c, 2, 74, 67
4, 199104, Note_on_c, 2, 79, 67
4, 199136, Note_off_c, 2, 74, 67
4, 199136, Note_off_c, 2, 79, 67
4, 199168, Note_off_c, 2, 74, 67
4, 199168, Note_off_c, 2, 79, 67
4, 199168, Note_on_c, 2, 70, 67
4, 199168, Note_on_c, 2, 77, 67
4, 199232, Note_off_c, 2, 70, 67
4, 199232, Note_off_c, 2, 77, 67
4, 199296, Note_off_c, 2, 70, 67
4, 199296, Note_off_c, 2, 77, 67
4, 199296, Note_on_c, 2, 68, 67
4, 199296, Note_on_c, 2, 70, 67
4, 199360, Note_off_c, 2, 68, 67
4, 199360, Note_off_c, 2, 70, 67
4, 199424, Note_off_c, 2, 68, 67
4, 199424, Note_off_c, 2, 70, 67
4, 199424, Note_on_c, 2, 68, 67
4, 199424, Note_on_c, 2, 70, 67
4, 199488, Note_off_c, 2, 68, 67
4, 199488, Note_off_c, 2, 70, 67
4, 199552, Note_off_c, 2, 68, 67
4, 199552, Note_off_c, 2, 70, 67
4, 199552, Note_on_c, 2, 74, 67
4, 199616, Note_off_c, 2, 74, 67
4, 199616, Note_on_c, 2, 75, 67
4, 199680, Note_off_c, 2, 75, 67
4, 199680, Note_on_c, 2, 77, 67
4, 199744, Note_off_c, 2, 77, 67
4, 199808, Note_off_c, 2, 77, 67
4, 199808, Note_on_c, 2, 74, 67
4, 199808, Note_on_c, 2, 77, 67
4, 199872, Note_off_c, 2, 74, 67
4, 199872, Note_off_c, 2, 77, 67
4, 199936, Note_off_c, 2, 74, 67
4, 199936, Note_off_c, 2, 77, 67
4, 199936, Note_on_c, 2, 74, 67
4, 199936, Note_on_c, 2, 77, 67
4, 200000, Note_off_c, 2, 74, 67
4, 200000, Note_off_c, 2, 77, 67
4, 200064, Note_off_c, 2, 74, 67
4, 200064, Note_off_c, 2, 77, 67
4, 200064, Note_on_c, 2, 74, 67
4, 200128, Note_off_c, 2, 74, 67
4, 200128, Note_on_c, 2, 75, 67
4, 200192, Note_off_c, 2, 75, 67
4, 200192, Note_on_c, 2, 77, 67
4, 200256, Note_off_c, 2, 77, 67
4, 200320, Note_off_c, 2, 77, 67
4, 200320, Note_on_c, 2, 74, 67
4, 200320, Note_on_c, 2, 77, 67
4, 200384, Note_off_c, 2, 74, 67
4, 200384, Note_off_c, 2, 77, 67
4, 200448, Note_off_c, 2, 74, 67
4, 200448, Note_off_c, 2, 77, 67
4, 200448, Note_on_c, 2, 74, 67
4, 200448, Note_on_c, 2, 77, 67
4, 200512, Note_off_c, 2, 74, 67
4, 200512, Note_off_c, 2, 77, 67
4, 200576, Note_off_c, 2, 74, 67
4, 200576, Note_off_c, 2, 77, 67
4, 200576, Note_on_c, 2, 74, 67
4, 200640, Note_off_c, 2, 74, 67
4, 200640, Note_on_c, 2, 75, 67
4, 200704, Note_off_c, 2, 75, 67
4, 200704, Note_on_c, 2, 70, 67
4, 200704, Note_on_c, 2, 77, 67
4, 200768, Note_off_c, 2, 70, 67
4, 200768, Note_off_c, 2, 77, 67
4, 200832, Note_off_c, 2, 70, 67
4, 200832, Note_off_c, 2, 77, 67
4, 200832, Note_on_c, 2, 74, 67
4, 200832, Note_on_c, 2, 77, 67
4, 200896, Note_off_c, 2, 74, 67
4, 200896, Note_off_c, 2, 77, 67
4, 200960, Note_off_c, 2, 74, 67
4, 200960, Note_off_c, 2, 77, 67
4, 200960, Note_on_c, 2, 74, 67
4, 200960, Note_on_c, 2, 79, 67
4, 200992, Note_off_c, 2, 74, 67
4, 200992, Note_off_c, 2, 79, 67
4, 201024, Note_off_c, 2, 74, 67
4, 201024, Note_off_c, 2, 79, 67
4, 201024, Note_on_c, 2, 72, 67
4, 201024, Note_on_c, 2, 77, 67
4, 201056, Note_off_c, 2, 72, 67
4, 201056, Note_off_c, 2, 77, 67
4, 201088, Note_off_c, 2, 72, 67
4, 201088, Note_off_c, 2, 77, 67
4, 201088, Note_on_c, 2, 70, 67
4, 201088, Note_on_c, 2, 77, 67
4, 201120, Note_off_c, 2, 70, 67
4, 201120, Note_off_c, 2, 77, 67
4, 201152, Note_off_c, 2, 70, 67
4, 201152, Note_off_c, 2, 77, 67
4, 201152, Note_on_c, 2, 68, 67
4, 201152, Note_on_c, 2, 79, 67
4, 201184, Note_off_c, 2, 68, 67
4, 201184, Note_off_c, 2, 79, 67
4, 201216, Note_off_c, 2, 68, 67
4, 201216, Note_off_c, 2, 79, 67
4, 201216, Note_on_c, 2, 67, 67
4, 201216, Note_on_c, 2, 75, 67
4, 201280, Note_off_c, 2, 67, 67
4, 201280, Note_off_c, 2, 75, 67
4, 201344, Note_off_c, 2, 67, 67
4, 201344, Note_off_c, 2, 75, 67
4, 201344, Note_on_c, 2, 70, 67
4, 201408, Note_off_c, 2, 70, 67
4, 201472, Note_off_c, 2, 70, 67
4, 201472, Note_on_c, 2, 70, 67
4, 201472, Note_on_c, 2, 79, 67
4, 201536, Note_off_c, 2, 70, 67
4, 201536, Note_off_c, 2, 79, 67
4, 201600, Note_off_c, 2, 70, 67
4, 201600, Note_off_c, 2, 79, 67
4, 201600, Note_on_c, 2, 75, 67
4, 201664, Note_off_c, 2, 75, 67
4, 201664, Note_on_c, 2, 77, 67
4, 201728, Note_off_c, 2, 77, 67
4, 201728, Note_on_c, 2, 79, 67
4, 201792, Note_off_c, 2, 79, 67
4, 201856, Note_off_c, 2, 79, 67
4, 201856, Note_on_c, 2, 75, 67
4, 201856, Note_on_c, 2, 79, 67
4, 201920, Note_off_c, 2, 75, 67
4, 201920, Note_off_c, 2, 79, 67
4, 201984, Note_off_c, 2, 75, 67
4, 201984, Note_off_c, 2, 79, 67
4, 201984, Note_on_c, 2, 75, 67
4, 201984, Note_on_c, 2, 79, 67
4, 202048, Note_off_c, 2, 75, 67
4, 202048, Note_off_c, 2, 79, 67
4, 202112, Note_off_c, 2, 75, 67
4, 202112, Note_off_c, 2, 79, 67
4, 202112, Note_on_c, 2, 75, 67
4, 202176, Note_off_c, 2, 75, 67
4, 202176, Note_on_c, 2, 77, 67
4, 202240, Note_off_c, 2, 77, 67
4, 202240, Note_on_c, 2, 79, 67
4, 202304, Note_off_c, 2, 79, 67
4, 202368, Note_off_c, 2, 79, 67
4, 202368, Note_on_c, 2, 75, 67
4, 202368, Note_on_c, 2, 79, 67
4, 202432, Note_off_c, 2, 75, 67
4, 202432, Note_off_c, 2, 79, 67
4, 202496, Note_off_c, 2, 75, 67
4, 202496, Note_off_c, 2, 79, 67
4, 202496, Note_on_c, 2, 75, 67
4, 202496, Note_on_c, 2, 79, 67
4, 202560, Note_off_c, 2, 75, 67
4, 202560, Note_off_c, 2, 79, 67
4, 202624, Note_off_c, 2, 75, 67
4, 202624, Note_off_c, 2, 79, 67
4, 202624, Note_on_c, 2, 75, 67
4, 202688, Note_off_c, 2, 75, 67
4, 202688, Note_on_c, 2, 77, 67
4, 202752, Note_off_c, 2, 77, 67
4, 202752, Note_on_c, 2, 79, 67
4, 202816, Note_off_c, 2, 79, 67
4, 202880, Note_off_c, 2, 79, 67
4, 202880, Note_on_c, 2, 75, 67
4, 202880, Note_on_c, 2, 79, 67
4, 202944, Note_off_c, 2, 75, 67
4, 202944, Note_off_c, 2, 79, 67
4, 203008, Note_off_c, 2, 75, 67
4, 203008, Note_off_c, 2, 79, 67
4, 203008, Note_on_c, 2, 75, 67
4, 203008, Note_on_c, 2, 80, 67
4, 203040, Note_off_c, 2, 75, 67
4, 203040, Note_off_c, 2, 80, 67
4, 203072, Note_off_c, 2, 75, 67
4, 203072, Note_off_c, 2, 80, 67
4, 203072, Note_on_c, 2, 74, 67
4, 203136, Note_off_c, 2, 74, 67
4, 203136, Note_on_c, 2, 72, 67
4, 203200, Note_off_c, 2, 72, 67
4, 203200, Note_on_c, 2, 74, 67
4, 203200, Note_on_c, 2, 79, 67
4, 203232, Note_off_c, 2, 74, 67
4, 203232, Note_off_c, 2, 79, 67
4, 203264, Note_off_c, 2, 74, 67
4, 203264, Note_off_c, 2, 79, 67
4, 203264, Note_on_c, 2, 70, 67
4, 203264, Note_on_c, 2, 77, 67
4, 203328, Note_off_c, 2, 70, 67
4, 203328, Note_off_c, 2, 77, 67
4, 203392, Note_off_c, 2, 70, 67
4, 203392, Note_off_c, 2, 77, 67
4, 203392, Note_on_c, 2, 68, 67
4, 203392, Note_on_c, 2, 70, 67
4, 203456, Note_off_c, 2, 68, 67
4, 203456, Note_off_c, 2, 70, 67
4, 203520, Note_off_c, 2, 68, 67
4, 203520, Note_off_c, 2, 70, 67
4, 203520, Note_on_c, 2, 68, 67
4, 203520, Note_on_c, 2, 70, 67
4, 203584, Note_off_c, 2, 68, 67
4, 203584, Note_off_c, 2, 70, 67
4, 203648, Note_off_c, 2, 68, 67
4, 203648, Note_off_c, 2, 70, 67
4, 203648, Note_on_c, 2, 74, 67
4, 203712, Note_off_c, 2, 74, 67
4, 203712, Note_on_c, 2, 75, 67
4, 203776, Note_off_c, 2, 75, 67
4, 203776, Note_on_c, 2, 77, 67
4, 203904, Note_off_c, 2, 77, 67
4, 203904, Note_on_c, 2, 74, 67
4, 203904, Note_on_c, 2, 80, 67
4, 203968, Note_off_c, 2, 74, 67
4, 203968, Note_off_c, 2, 80, 67
4, 204032, Note_off_c, 2, 74, 67
4, 204032, Note_off_c, 2, 80, 67
4, 204032, Note_on_c, 2, 74, 67
4, 204032, Note_on_c, 2, 79, 67
4, 204096, Note_off_c, 2, 74, 67
4, 204096, Note_off_c, 2, 79, 67
4, 204160, Note_off_c, 2, 74, 67
4, 204160, Note_off_c, 2, 79, 67
4, 204160, Note_on_c, 2, 77, 67
4, 204224, Note_off_c, 2, 77, 67
4, 204288, Note_off_c, 2, 77, 67
4, 204288, Note_on_c, 2, 75, 67
4, 204352, Note_off_c, 2, 75, 67
4, 204416, Note_off_c, 2, 75, 67
4, 204416, Note_on_c, 2, 70, 67
4, 204416, Note_on_c, 2, 74, 67
4, 204480, Note_off_c, 2, 70, 67
4, 204480, Note_off_c, 2, 74, 67
4, 204544, Note_off_c, 2, 70, 67
4, 204544, Note_off_c, 2, 74, 67
4, 204544, Note_on_c, 2, 72, 67
4, 204544, Note_on_c, 2, 74, 67
4, 204608, Note_off_c, 2, 72, 67
4, 204608, Note_off_c, 2, 74, 67
4, 204672, Note_off_c, 2, 72, 67
4, 204672, Note_off_c, 2, 74, 67
4, 204672, Note_on_c, 2, 70, 67
4, 204672, Note_on_c, 2, 74, 67
4, 204736, Note_off_c, 2, 70, 67
4, 204736, Note_off_c, 2, 74, 67
4, 204800, Note_off_c, 2, 70, 67
4, 204800, Note_off_c, 2, 74, 67
4, 204800, Note_on_c, 2, 80, 67
4, 204800, Note_on_c, 2, 84, 67
4, 205056, Note_off_c, 2, 80, 67
4, 205056, Note_off_c, 2, 84, 67
4, 205056, Note_on_c, 2, 70, 67
4, 205056, Note_on_c, 2, 74, 67
4, 205072, Note_off_c, 2, 70, 67
4, 205072, Note_off_c, 2, 74, 67
4, 205088, Note_off_c, 2, 70, 67
4, 205088, Note_off_c, 2, 74, 67
4, 205088, Note_on_c, 2, 72, 67
4, 205088, Note_on_c, 2, 75, 67
4, 205104, Note_off_c, 2, 72, 67
4, 205104, Note_off_c, 2, 75, 67
4, 205120, Note_off_c, 2, 72, 67
4, 205120, Note_off_c, 2, 75, 67
4, 205120, Note_on_c, 2, 70, 67
4, 205120, Note_on_c, 2, 74, 67
4, 205152, Note_off_c, 2, 70, 67
4, 205152, Note_off_c, 2, 74, 67
4, 205184, Note_off_c, 2, 70, 67
4, 205184, Note_off_c, 2, 74, 67
4, 205184, Note_on_c, 2, 68, 67
4, 205184, Note_on_c, 2, 72, 67
4, 205216, Note_off_c, 2, 68, 67
4, 205216, Note_off_c, 2, 72, 67
4, 205248, Note_off_c, 2, 68, 67
4, 205248, Note_off_c, 2, 72, 67
4, 205248, Note_on_c, 2, 74, 67
4, 205248, Note_on_c, 2, 77, 67
4, 205280, Note_off_c, 2, 74, 67
4, 205280, Note_off_c, 2, 77, 67
4, 205312, Note_off_c, 2, 74, 67
4, 205312, Note_off_c, 2, 77, 67
4, 205312, Note_on_c, 2, 75, 67
4, 205312, Note_on_c, 2, 79, 67
4, 205440, Note_off_c, 2, 75, 67
4, 205440, Note_off_c, 2, 79, 67
4, 205440, Note_on_c, 2, 70, 67
4, 205504, Note_off_c, 2, 70, 67
4, 205568, Note_off_c, 2, 70, 67
4, 205568, Note_on_c, 2, 70, 67
4, 205632, Note_off_c, 2, 70, 67
4, 205696, Note_off_c, 2, 70, 67
4, 205696, Note_on_c, 2, 75, 67
4, 205696, Note_on_c, 2, 79, 67
4, 205760, Note_off_c, 2, 75, 67
4, 205760, Note_off_c, 2, 79, 67
4, 205760, Note_on_c, 2, 77, 67
4, 205760, Note_on_c, 2, 80, 67
4, 205824, Note_off_c, 2, 77, 67
4, 205824, Note_off_c, 2, 80, 67
4, 205824, Note_on_c, 2, 79, 67
4, 205824, Note_on_c, 2, 82, 67
4, 205888, Note_off_c, 2, 79, 67
4, 205888, Note_off_c, 2, 82, 67
4, 205952, Note_off_c, 2, 79, 67
4, 205952, Note_off_c, 2, 82, 67
4, 205952, Note_on_c, 2, 79, 67
4, 205952, Note_on_c, 2, 82, 67
4, 206016, Note_off_c, 2, 79, 67
4, 206016, Note_off_c, 2, 82, 67
4, 206080, Note_off_c, 2, 79, 67
4, 206080, Note_off_c, 2, 82, 67
4, 206080, Note_on_c, 2, 70, 67
4, 206080, Note_on_c, 2, 79, 67
4, 206144, Note_off_c, 2, 70, 67
4, 206144, Note_off_c, 2, 79, 67
4, 206208, Note_off_c, 2, 70, 67
4, 206208, Note_off_c, 2, 79, 67
4, 206208, Note_on_c, 2, 70, 67
4, 206208, Note_on_c, 2, 75, 67
4, 206272, Note_off_c, 2, 70, 67
4, 206272, Note_off_c, 2, 75, 67
4, 206336, Note_off_c, 2, 70, 67
4, 206336, Note_off_c, 2, 75, 67
4, 206336, Note_on_c, 2, 84, 67
4, 206336, Note_on_c, 2, 87, 67
4, 206400, Note_off_c, 2, 84, 67
4, 206400, Note_off_c, 2, 87, 67
4, 206464, Note_off_c, 2, 84, 67
4, 206464, Note_off_c, 2, 87, 67
4, 206464, Note_on_c, 2, 82, 67
4, 206464, Note_on_c, 2, 86, 67
4, 206528, Note_off_c, 2, 82, 67
4, 206528, Note_off_c, 2, 86, 67
4, 206592, Note_off_c, 2, 82, 67
4, 206592, Note_off_c, 2, 86, 67
4, 206592, Note_on_c, 2, 80, 67
4, 206592, Note_on_c, 2, 84, 67
4, 206656, Note_off_c, 2, 80, 67
4, 206656, Note_off_c, 2, 84, 67
4, 206720, Note_off_c, 2, 80, 67
4, 206720, Note_off_c, 2, 84, 67
4, 206720, Note_on_c, 2, 79, 67
4, 206720, Note_on_c, 2, 87, 67
4, 206784, Note_off_c, 2, 79, 67
4, 206784, Note_off_c, 2, 87, 67
4, 206848, Note_off_c, 2, 79, 67
4, 206848, Note_off_c, 2, 87, 67
4, 206848, Note_on_c, 2, 75, 67
4, 206848, Note_on_c, 2, 82, 67
4, 206912, Note_off_c, 2, 75, 67
4, 206912, Note_off_c, 2, 82, 67
4, 206976, Note_off_c, 2, 75, 67
4, 206976, Note_off_c, 2, 82, 67
4, 206976, Note_on_c, 2, 79, 67
4, 207040, Note_off_c, 2, 79, 67
4, 207104, Note_off_c, 2, 79, 67
4, 207104, Note_on_c, 2, 67, 67
4, 207104, Note_on_c, 2, 75, 67
4, 207168, Note_off_c, 2, 67, 67
4, 207168, Note_off_c, 2, 75, 67
4, 207232, Note_off_c, 2, 67, 67
4, 207232, Note_off_c, 2, 75, 67
4, 207232, Note_on_c, 2, 68, 67
4, 207232, Note_on_c, 2, 74, 67
4, 207264, Note_off_c, 2, 68, 67
4, 207264, Note_off_c, 2, 74, 67
4, 207296, Note_off_c, 2, 68, 67
4, 207296, Note_off_c, 2, 74, 67
4, 207296, Note_on_c, 2, 74, 67
4, 207296, Note_on_c, 2, 79, 67
4, 207328, Note_off_c, 2, 74, 67
4, 207328, Note_off_c, 2, 79, 67
4, 207360, Note_off_c, 2, 74, 67
4, 207360, Note_off_c, 2, 79, 67
4, 207360, Note_on_c, 2, 70, 67
4, 207360, Note_on_c, 2, 77, 67
4, 207424, Note_off_c, 2, 70, 67
4, 207424, Note_off_c, 2, 77, 67
4, 207488, Note_off_c, 2, 70, 67
4, 207488, Note_off_c, 2, 77, 67
4, 207488, Note_on_c, 2, 65, 67
4, 207488, Note_on_c, 2, 70, 67
4, 207552, Note_off_c, 2, 65, 67
4, 207552, Note_off_c, 2, 70, 67
4, 207616, Note_off_c, 2, 65, 67
4, 207616, Note_off_c, 2, 70, 67
4, 207616, Note_on_c, 2, 68, 67
4, 207616, Note_on_c, 2, 70, 67
4, 207680, Note_off_c, 2, 68, 67
4, 207680, Note_off_c, 2, 70, 67
4, 207744, Note_off_c, 2, 68, 67
4, 207744, Note_off_c, 2, 70, 67
4, 207744, Note_on_c, 2, 70, 67
4, 207744, Note_on_c, 2, 79, 67
4, 207808, Note_off_c, 2, 70, 67
4, 207808, Note_off_c, 2, 79, 67
4, 207808, Note_on_c, 2, 77, 67
4, 207808, Note_on_c, 2, 80, 67
4, 207872, Note_off_c, 2, 77, 67
4, 207872, Note_off_c, 2, 80, 67
4, 207872, Note_on_c, 2, 79, 67
4, 207872, Note_on_c, 2, 82, 67
4, 207936, Note_off_c, 2, 79, 67
4, 207936, Note_off_c, 2, 82, 67
4, 208000, Note_off_c, 2, 79, 67
4, 208000, Note_off_c, 2, 82, 67
4, 208000, Note_on_c, 2, 79, 67
4, 208000, Note_on_c, 2, 82, 67
4, 208064, Note_off_c, 2, 79, 67
4, 208064, Note_off_c, 2, 82, 67
4, 208128, Note_off_c, 2, 79, 67
4, 208128, Note_off_c, 2, 82, 67
4, 208128, Note_on_c, 2, 70, 67
4, 208128, Note_on_c, 2, 79, 67
4, 208192, Note_off_c, 2, 70, 67
4, 208192, Note_off_c, 2, 79, 67
4, 208256, Note_off_c, 2, 70, 67
4, 208256, Note_off_c, 2, 79, 67
4, 208256, Note_on_c, 2, 75, 67
4, 208256, Note_on_c, 2, 82, 67
4, 208320, Note_off_c, 2, 75, 67
4, 208320, Note_off_c, 2, 82, 67
4, 208384, Note_off_c, 2, 75, 67
4, 208384, Note_off_c, 2, 82, 67
4, 208384, Note_on_c, 2, 84, 67
4, 208384, Note_on_c, 2, 87, 67
4, 208448, Note_off_c, 2, 84, 67
4, 208448, Note_off_c, 2, 87, 67
4, 208512, Note_off_c, 2, 84, 67
4, 208512, Note_off_c, 2, 87, 67
4, 208512, Note_on_c, 2, 82, 67
4, 208512, Note_on_c, 2, 86, 67
4, 208576, Note_off_c, 2, 82, 67
4, 208576, Note_off_c, 2, 86, 67
4, 208640, Note_off_c, 2, 82, 67
4, 208640, Note_off_c, 2, 86, 67
4, 208640, Note_on_c, 2, 80, 67
4, 208640, Note_on_c, 2, 84, 67
4, 208704, Note_off_c, 2, 80, 67
4, 208704, Note_off_c, 2, 84, 67
4, 208768, Note_off_c, 2, 80, 67
4, 208768, Note_off_c, 2, 84, 67
4, 208768, Note_on_c, 2, 70, 67
4, 208768, Note_on_c, 2, 74, 67
4, 208800, Note_off_c, 2, 70, 67
4, 208800, Note_off_c, 2, 74, 67
4, 208832, Note_off_c, 2, 70, 67
4, 208832, Note_off_c, 2, 74, 67
4, 208832, Note_on_c, 2, 77, 67
4, 208832, Note_on_c, 2, 80, 67
4, 208864, Note_off_c, 2, 77, 67
4, 208864, Note_off_c, 2, 80, 67
4, 208896, Note_off_c, 2, 77, 67
4, 208896, Note_off_c, 2, 80, 67
4, 208896, Note_on_c, 2, 77, 67
4, 208896, Note_on_c, 2, 82, 67
4, 208960, Note_off_c, 2, 77, 67
4, 208960, Note_off_c, 2, 82, 67
4, 209024, Note_off_c, 2, 77, 67
4, 209024, Note_off_c, 2, 82, 67
4, 209024, Note_on_c, 2, 80, 67
4, 209024, Note_on_c, 2, 87, 67
4, 209088, Note_off_c, 2, 80, 67
4, 209088, Note_off_c, 2, 87, 67
4, 209152, Note_off_c, 2, 80, 67
4, 209152, Note_off_c, 2, 87, 67
4, 209152, Note_on_c, 2, 82, 67
4, 209152, Note_on_c, 2, 86, 67
4, 209216, Note_off_c, 2, 82, 67
4, 209216, Note_off_c, 2, 86, 67
4, 209280, Note_off_c, 2, 82, 67
4, 209280, Note_off_c, 2, 86, 67
4, 209280, Note_on_c, 2, 80, 67
4, 209280, Note_on_c, 2, 89, 67
4, 209344, Note_off_c, 2, 80, 67
4, 209344, Note_off_c, 2, 89, 67
4, 209408, Note_off_c, 2, 80, 67
4, 209408, Note_off_c, 2, 89, 67
4, 209408, Note_on_c, 2, 79, 67
4, 209408, Note_on_c, 2, 87, 67
4, 209472, Note_off_c, 2, 79, 67
4, 209472, Note_off_c, 2, 87, 67
4, 209536, Note_off_c, 2, 79, 67
4, 209536, Note_off_c, 2, 87, 67
4, 209536, Note_on_c, 2, 70, 67
4, 209536, Note_on_c, 2, 82, 67
4, 209600, Note_off_c, 2, 70, 67
4, 209600, Note_off_c, 2, 82, 67
4, 209664, Note_off_c, 2, 70, 67
4, 209664, Note_off_c, 2, 82, 67
4, 209664, Note_on_c, 2, 70, 67
4, 209664, Note_on_c, 2, 82, 67
4, 209728, Note_off_c, 2, 70, 67
4, 209728, Note_off_c, 2, 82, 67
4, 209792, Note_off_c, 2, 70, 67
4, 209792, Note_off_c, 2, 82, 67
4, 209792, Note_on_c, 2, 75, 67
4, 209856, Note_off_c, 2, 75, 67
4, 209856, Note_on_c, 2, 77, 67
4, 209920, Note_off_c, 2, 77, 67
4, 209920, Note_on_c, 2, 79, 67
4, 209984, Note_off_c, 2, 79, 67
4, 210048, Note_off_c, 2, 79, 67
4, 210048, Note_on_c, 2, 75, 67
4, 210048, Note_on_c, 2, 79, 67
4, 210112, Note_off_c, 2, 75, 67
4, 210112, Note_off_c, 2, 79, 67
4, 210176, Note_off_c, 2, 75, 67
4, 210176, Note_off_c, 2, 79, 67
4, 210176, Note_on_c, 2, 75, 67
4, 210176, Note_on_c, 2, 79, 67
4, 210240, Note_off_c, 2, 75, 67
4, 210240, Note_off_c, 2, 79, 67
4, 210304, Note_off_c, 2, 75, 67
4, 210304, Note_off_c, 2, 79, 67
4, 210304, Note_on_c, 2, 75, 67
4, 210368, Note_off_c, 2, 75, 67
4, 210368, Note_on_c, 2, 77, 67
4, 210432, Note_off_c, 2, 77, 67
4, 210432, Note_on_c, 2, 79, 67
4, 210496, Note_off_c, 2, 79, 67
4, 210560, Note_off_c, 2, 79, 67
4, 210560, Note_on_c, 2, 75, 67
4, 210560, Note_on_c, 2, 79, 67
4, 210624, Note_off_c, 2, 75, 67
4, 210624, Note_off_c, 2, 79, 67
4, 210688, Note_off_c, 2, 75, 67
4, 210688, Note_off_c, 2, 79, 67
4, 210688, Note_on_c, 2, 75, 67
4, 210688, Note_on_c, 2, 79, 67
4, 210752, Note_off_c, 2, 75, 67
4, 210752, Note_off_c, 2, 79, 67
4, 210816, Note_off_c, 2, 75, 67
4, 210816, Note_off_c, 2, 79, 67
4, 210816, Note_on_c, 2, 75, 67
4, 210880, Note_off_c, 2, 75, 67
4, 210880, Note_on_c, 2, 77, 67
4, 210944, Note_off_c, 2, 77, 67
4, 210944, Note_on_c, 2, 79, 67
4, 211008, Note_off_c, 2, 79, 67
4, 211072, Note_off_c, 2, 79, 67
4, 211072, Note_on_c, 2, 75, 67
4, 211072, Note_on_c, 2, 79, 67
4, 211136, Note_off_c, 2, 75, 67
4, 211136, Note_off_c, 2, 79, 67
4, 211200, Note_off_c, 2, 75, 67
4, 211200, Note_off_c, 2, 79, 67
4, 211200, Note_on_c, 2, 75, 67
4, 211200, Note_on_c, 2, 80, 67
4, 211232, Note_off_c, 2, 75, 67
4, 211232, Note_off_c, 2, 80, 67
4, 211264, Note_off_c, 2, 75, 67
4, 211264, Note_off_c, 2, 80, 67
4, 211264, Note_on_c, 2, 74, 67
4, 211296, Note_off_c, 2, 74, 67
4, 211328, Note_off_c, 2, 74, 67
4, 211328, Note_on_c, 2, 72, 67
4, 211360, Note_off_c, 2, 72, 67
4, 211392, Note_off_c, 2, 72, 67
4, 211392, Note_on_c, 2, 74, 67
4, 211392, Note_on_c, 2, 79, 67
4, 211424, Note_off_c, 2, 74, 67
4, 211424, Note_off_c, 2, 79, 67
4, 211456, Note_off_c, 2, 74, 67
4, 211456, Note_off_c, 2, 79, 67
4, 211456, Note_on_c, 2, 70, 67
4, 211456, Note_on_c, 2, 77, 67
4, 211520, Note_off_c, 2, 70, 67
4, 211520, Note_off_c, 2, 77, 67
4, 211584, Note_off_c, 2, 70, 67
4, 211584, Note_off_c, 2, 77, 67
4, 211584, Note_on_c, 2, 68, 67
4, 211584, Note_on_c, 2, 70, 67
4, 211648, Note_off_c, 2, 68, 67
4, 211648, Note_off_c, 2, 70, 67
4, 211712, Note_off_c, 2, 68, 67
4, 211712, Note_off_c, 2, 70, 67
4, 211712, Note_on_c, 2, 68, 67
4, 211712, Note_on_c, 2, 70, 67
4, 211776, Note_off_c, 2, 68, 67
4, 211776, Note_off_c, 2, 70, 67
4, 211840, Note_off_c, 2, 68, 67
4, 211840, Note_off_c, 2, 70, 67
4, 211840, Note_on_c, 2, 74, 67
4, 211904, Note_off_c, 2, 74, 67
4, 211904, Note_on_c, 2, 75, 67
4, 211968, Note_off_c, 2, 75, 67
4, 211968, Note_on_c, 2, 77, 67
4, 212032, Note_off_c, 2, 77, 67
4, 212096, Note_off_c, 2, 77, 67
4, 212096, Note_on_c, 2, 74, 67
4, 212096, Note_on_c, 2, 77, 67
4, 212160, Note_off_c, 2, 74, 67
4, 212160, Note_off_c, 2, 77, 67
4, 212224, Note_off_c, 2, 74, 67
4, 212224, Note_off_c, 2, 77, 67
4, 212224, Note_on_c, 2, 74, 67
4, 212224, Note_on_c, 2, 77, 67
4, 212288, Note_off_c, 2, 74, 67
4, 212288, Note_off_c, 2, 77, 67
4, 212352, Note_off_c, 2, 74, 67
4, 212352, Note_off_c, 2, 77, 67
4, 212352, Note_on_c, 2, 74, 67
4, 212416, Note_off_c, 2, 74, 67
4, 212416, Note_on_c, 2, 75, 67
4, 212480, Note_off_c, 2, 75, 67
4, 212480, Note_on_c, 2, 77, 67
4, 212544, Note_off_c, 2, 77, 67
4, 212608, Note_off_c, 2, 77, 67
4, 212608, Note_on_c, 2, 74, 67
4, 212608, Note_on_c, 2, 77, 67
4, 212672, Note_off_c, 2, 74, 67
4, 212672, Note_off_c, 2, 77, 67
4, 212736, Note_off_c, 2, 74, 67
4, 212736, Note_off_c, 2, 77, 67
4, 212736, Note_on_c, 2, 74, 67
4, 212736, Note_on_c, 2, 77, 67
4, 212800, Note_off_c, 2, 74, 67
4, 212800, Note_off_c, 2, 77, 67
4, 212864, Note_off_c, 2, 74, 67
4, 212864, Note_off_c, 2, 77, 67
4, 212864, Note_on_c, 2, 74, 67
4, 212928, Note_off_c, 2, 74, 67
4, 212928, Note_on_c, 2, 75, 67
4, 212992, Note_off_c, 2, 75, 67
4, 212992, Note_on_c, 2, 70, 67
4, 212992, Note_on_c, 2, 77, 67
4, 213056, Note_off_c, 2, 70, 67
4, 213056, Note_off_c, 2, 77, 67
4, 213120, Note_off_c, 2, 70, 67
4, 213120, Note_off_c, 2, 77, 67
4, 213120, Note_on_c, 2, 74, 67
4, 213120, Note_on_c, 2, 77, 67
4, 213184, Note_off_c, 2, 74, 67
4, 213184, Note_off_c, 2, 77, 67
4, 213248, Note_off_c, 2, 74, 67
4, 213248, Note_off_c, 2, 77, 67
4, 213248, Note_on_c, 2, 74, 67
4, 213248, Note_on_c, 2, 79, 67
4, 213280, Note_off_c, 2, 74, 67
4, 213280, Note_off_c, 2, 79, 67
4, 213312, Note_off_c, 2, 74, 67
4, 213312, Note_off_c, 2, 79, 67
4, 213312, Note_on_c, 2, 72, 67
4, 213312, Note_on_c, 2, 77, 67
4, 213344, Note_off_c, 2, 72, 67
4, 213344, Note_off_c, 2, 77, 67
4, 213376, Note_off_c, 2, 72, 67
4, 213376, Note_off_c, 2, 77, 67
4, 213376, Note_on_c, 2, 70, 67
4, 213376, Note_on_c, 2, 77, 67
4, 213408, Note_off_c, 2, 70, 67
4, 213408, Note_off_c, 2, 77, 67
4, 213440, Note_off_c, 2, 70, 67
4, 213440, Note_off_c, 2, 77, 67
4, 213440, Note_on_c, 2, 68, 67
4, 213440, Note_on_c, 2, 79, 67
4, 213472, Note_off_c, 2, 68, 67
4, 213472, Note_off_c, 2, 79, 67
4, 213504, Note_off_c, 2, 68, 67
4, 213504, Note_off_c, 2, 79, 67
4, 213504, Note_on_c, 2, 67, 67
4, 213504, Note_on_c, 2, 75, 67
4, 213568, Note_off_c, 2, 67, 67
4, 213568, Note_off_c, 2, 75, 67
4, 213632, Note_off_c, 2, 67, 67
4, 213632, Note_off_c, 2, 75, 67
4, 213632, Note_on_c, 2, 70, 67
4, 213696, Note_off_c, 2, 70, 67
4, 213760, Note_off_c, 2, 70, 67
4, 213760, Note_on_c, 2, 70, 67
4, 213760, Note_on_c, 2, 79, 67
4, 213824, Note_off_c, 2, 70, 67
4, 213824, Note_off_c, 2, 79, 67
4, 213888, Note_off_c, 2, 70, 67
4, 213888, Note_off_c, 2, 79, 67
4, 213888, Note_on_c, 2, 75, 67
4, 213952, Note_off_c, 2, 75, 67
4, 213952, Note_on_c, 2, 77, 67
4, 214016, Note_off_c, 2, 77, 67
4, 214016, Note_on_c, 2, 79, 67
4, 214080, Note_off_c, 2, 79, 67
4, 214144, Note_off_c, 2, 79, 67
4, 214144, Note_on_c, 2, 75, 67
4, 214144, Note_on_c, 2, 79, 67
4, 214208, Note_off_c, 2, 75, 67
4, 214208, Note_off_c, 2, 79, 67
4, 214272, Note_off_c, 2, 75, 67
4, 214272, Note_off_c, 2, 79, 67
4, 214272, Note_on_c, 2, 75, 67
4, 214272, Note_on_c, 2, 79, 67
4, 214336, Note_off_c, 2, 75, 67
4, 214336, Note_off_c, 2, 79, 67
4, 214400, Note_off_c, 2, 75, 67
4, 214400, Note_off_c, 2, 79, 67
4, 214400, Note_on_c, 2, 75, 67
4, 214464, Note_off_c, 2, 75, 67
4, 214464, Note_on_c, 2, 77, 67
4, 214528, Note_off_c, 2, 77, 67
4, 214528, Note_on_c, 2, 79, 67
4, 214592, Note_off_c, 2, 79, 67
4, 214656, Note_off_c, 2, 79, 67
4, 214656, Note_on_c, 2, 75, 67
4, 214656, Note_on_c, 2, 79, 67
4, 214720, Note_off_c, 2, 75, 67
4, 214720, Note_off_c, 2, 79, 67
4, 214784, Note_off_c, 2, 75, 67
4, 214784, Note_off_c, 2, 79, 67
4, 214784, Note_on_c, 2, 75, 67
4, 214784, Note_on_c, 2, 79, 67
4, 214848, Note_off_c, 2, 75, 67
4, 214848, Note_off_c, 2, 79, 67
4, 214912, Note_off_c, 2, 75, 67
4, 214912, Note_off_c, 2, 79, 67
4, 214912, Note_on_c, 2, 75, 67
4, 214976, Note_off_c, 2, 75, 67
4, 214976, Note_on_c, 2, 77, 67
4, 215040, Note_off_c, 2, 77, 67
4, 215040, Note_on_c, 2, 79, 67
4, 215104, Note_off_c, 2, 79, 67
4, 215168, Note_off_c, 2, 79, 67
4, 215168, Note_on_c, 2, 75, 67
4, 215168, Note_on_c, 2, 79, 67
4, 215232, Note_off_c, 2, 75, 67
4, 215232, Note_off_c, 2, 79, 67
4, 215296, Note_off_c, 2, 75, 67
4, 215296, Note_off_c, 2, 79, 67
4, 215296, Note_on_c, 2, 75, 67
4, 215296, Note_on_c, 2, 80, 67
4, 215328, Note_off_c, 2, 75, 67
4, 215328, Note_off_c, 2, 80, 67
4, 215360, Note_off_c, 2, 75, 67
4, 215360, Note_off_c, 2, 80, 67
4, 215360, Note_on_c, 2, 74, 67
4, 215424, Note_off_c, 2, 74, 67
4, 215424, Note_on_c, 2, 72, 67
4, 215488, Note_off_c, 2, 72, 67
4, 215488, Note_on_c, 2, 74, 67
4, 215488, Note_on_c, 2, 79, 67
4, 215520, Note_off_c, 2, 74, 67
4, 215520, Note_off_c, 2, 79, 67
4, 215552, Note_off_c, 2, 74, 67
4, 215552, Note_off_c, 2, 79, 67
4, 215552, Note_on_c, 2, 70, 67
4, 215552, Note_on_c, 2, 77, 67
4, 215616, Note_off_c, 2, 70, 67
4, 215616, Note_off_c, 2, 77, 67
4, 215680, Note_off_c, 2, 70, 67
4, 215680, Note_off_c, 2, 77, 67
4, 215680, Note_on_c, 2, 68, 67
4, 215680, Note_on_c, 2, 70, 67
4, 215744, Note_off_c, 2, 68, 67
4, 215744, Note_off_c, 2, 70, 67
4, 215808, Note_off_c, 2, 68, 67
4, 215808, Note_off_c, 2, 70, 67
4, 215808, Note_on_c, 2, 68, 67
4, 215808, Note_on_c, 2, 70, 67
4, 215872, Note_off_c, 2, 68, 67
4, 215872, Note_off_c, 2, 70, 67
4, 215936, Note_off_c, 2, 68, 67
4, 215936, Note_off_c, 2, 70, 67
4, 215936, Note_on_c, 2, 74, 67
4, 216000, Note_off_c, 2, 74, 67
4, 216000, Note_on_c, 2, 75, 67
4, 216064, Note_off_c, 2, 75, 67
4, 216064, Note_on_c, 2, 77, 67
4, 216192, Note_off_c, 2, 77, 67
4, 216192, Note_on_c, 2, 74, 67
4, 216192, Note_on_c, 2, 80, 67
4, 216256, Note_off_c, 2, 74, 67
4, 216256, Note_off_c, 2, 80, 67
4, 216320, Note_off_c, 2, 74, 67
4, 216320, Note_off_c, 2, 80, 67
4, 216320, Note_on_c, 2, 74, 67
4, 216320, Note_on_c, 2, 79, 67
4, 216384, Note_off_c, 2, 74, 67
4, 216384, Note_off_c, 2, 79, 67
4, 216448, Note_off_c, 2, 74, 67
4, 216448, Note_off_c, 2, 79, 67
4, 216448, Note_on_c, 2, 77, 67
4, 216512, Note_off_c, 2, 77, 67
4, 216576, Note_off_c, 2, 77, 67
4, 216576, Note_on_c, 2, 75, 67
4, 216640, Note_off_c, 2, 75, 67
4, 216704, Note_off_c, 2, 75, 67
4, 216704, Note_on_c, 2, 70, 67
4, 216704, Note_on_c, 2, 74, 67
4, 216768, Note_off_c, 2, 70, 67
4, 216768, Note_off_c, 2, 74, 67
4, 216832, Note_off_c, 2, 70, 67
4, 216832, Note_off_c, 2, 74, 67
4, 216832, Note_on_c, 2, 72, 67
4, 216832, Note_on_c, 2, 74, 67
4, 216896, Note_off_c, 2, 72, 67
4, 216896, Note_off_c, 2, 74, 67
4, 216960, Note_off_c, 2, 72, 67
4, 216960, Note_off_c, 2, 74, 67
4, 216960, Note_on_c, 2, 70, 67
4, 216960, Note_on_c, 2, 74, 67
4, 217024, Note_off_c, 2, 70, 67
4, 217024, Note_off_c, 2, 74, 67
4, 217088, Note_off_c, 2, 70, 67
4, 217088, Note_off_c, 2, 74, 67
4, 217088, Note_on_c, 2, 80, 67
4, 217088, Note_on_c, 2, 84, 67
4, 217344, Note_off_c, 2, 80, 67
4, 217344, Note_off_c, 2, 84, 67
4, 217344, Note_on_c, 2, 70, 67
4, 217344, Note_on_c, 2, 74, 67
4, 217360, Note_off_c, 2, 70, 67
4, 217360, Note_off_c, 2, 74, 67
4, 217376, Note_off_c, 2, 70, 67
4, 217376, Note_off_c, 2, 74, 67
4, 217376, Note_on_c, 2, 72, 67
4, 217376, Note_on_c, 2, 75, 67
4, 217392, Note_off_c, 2, 72, 67
4, 217392, Note_off_c, 2, 75, 67
4, 217408, Note_off_c, 2, 72, 67
4, 217408, Note_off_c, 2, 75, 67
4, 217408, Note_on_c, 2, 70, 67
4, 217408, Note_on_c, 2, 74, 67
4, 217440, Note_off_c, 2, 70, 67
4, 217440, Note_off_c, 2, 74, 67
4, 217472, Note_off_c, 2, 70, 67
4, 217472, Note_off_c, 2, 74, 67
4, 217472, Note_on_c, 2, 68, 67
4, 217472, Note_on_c, 2, 72, 67
4, 217504, Note_off_c, 2, 68, 67
4, 217504, Note_off_c, 2, 72, 67
4, 217536, Note_off_c, 2, 68, 67
4, 217536, Note_off_c, 2, 72, 67
4, 217536, Note_on_c, 2, 74, 67
4, 217536, Note_on_c, 2, 77, 67
4, 217568, Note_off_c, 2, 74, 67
4, 217568, Note_off_c, 2, 77, 67
4, 217600, Note_off_c, 2, 74, 67
4, 217600, Note_off_c, 2, 77, 67
4, 217600, Note_on_c, 2, 75, 67
4, 217600, Note_on_c, 2, 79, 67
4, 217728, Note_off_c, 2, 75, 67
4, 217728, Note_off_c, 2, 79, 67
4, 217728, Note_on_c, 2, 70, 67
4, 217792, Note_off_c, 2, 70, 67
4, 217856, Note_off_c, 2, 70, 67
4, 217856, Note_on_c, 2, 70, 67
4, 217920, Note_off_c, 2, 70, 67
4, 217984, Note_off_c, 2, 70, 67
4, 217984, Note_on_c, 2, 75, 67
4, 217984, Note_on_c, 2, 79, 67
4, 218048, Note_off_c, 2, 75, 67
4, 218048, Note_off_c, 2, 79, 67
4, 218048, Note_on_c, 2, 77, 67
4, 218048, Note_on_c, 2, 80, 67
4, 218112, Note_off_c, 2, 77, 67
4, 218112, Note_off_c, 2, 80, 67
4, 218112, Note_on_c, 2, 79, 67
4, 218112, Note_on_c, 2, 82, 67
4, 218176, Note_off_c, 2, 79, 67
4, 218176, Note_off_c, 2, 82, 67
4, 218240, Note_off_c, 2, 79, 67
4, 218240, Note_off_c, 2, 82, 67
4, 218240, Note_on_c, 2, 79, 67
4, 218240, Note_on_c, 2, 82, 67
4, 218304, Note_off_c, 2, 79, 67
4, 218304, Note_off_c, 2, 82, 67
4, 218368, Note_off_c, 2, 79, 67
4, 218368, Note_off_c, 2, 82, 67
4, 218368, Note_on_c, 2, 70, 67
4, 218368, Note_on_c, 2, 79, 67
4, 218432, Note_off_c, 2, 70, 67
4, 218432, Note_off_c, 2, 79, 67
4, 218496, Note_off_c, 2, 70, 67
4, 218496, Note_off_c, 2, 79, 67
4, 218496, Note_on_c, 2, 70, 67
4, 218496, Note_on_c, 2, 75, 67
4, 218560, Note_off_c, 2, 70, 67
4, 218560, Note_off_c, 2, 75, 67
4, 218624, Note_off_c, 2, 70, 67
4, 218624, Note_off_c, 2, 75, 67
4, 218624, Note_on_c, 2, 84, 67
4, 218624, Note_on_c, 2, 87, 67
4, 218688, Note_off_c, 2, 84, 67
4, 218688, Note_off_c, 2, 87, 67
4, 218752, Note_off_c, 2, 84, 67
4, 218752, Note_off_c, 2, 87, 67
4, 218752, Note_on_c, 2, 82, 67
4, 218752, Note_on_c, 2, 86, 67
4, 218816, Note_off_c, 2, 82, 67
4, 218816, Note_off_c, 2, 86, 67
4, 218880, Note_off_c, 2, 82, 67
4, 218880, Note_off_c, 2, 86, 67
4, 218880, Note_on_c, 2, 80, 67
4, 218880, Note_on_c, 2, 84, 67
4, 218944, Note_off_c, 2, 80, 67
4, 218944, Note_off_c, 2, 84, 67
4, 219008, Note_off_c, 2, 80, 67
4, 219008, Note_off_c, 2, 84, 67
4, 219008, Note_on_c, 2, 79, 67
4, 219008, Note_on_c, 2, 87, 67
4, 219072, Note_off_c, 2, 79, 67
4, 219072, Note_off_c, 2, 87, 67
4, 219136, Note_off_c, 2, 79, 67
4, 219136, Note_off_c, 2, 87, 67
4, 219136, Note_on_c, 2, 75, 67
4, 219136, Note_on_c, 2, 82, 67
4, 219200, Note_off_c, 2, 75, 67
4, 219200, Note_off_c, 2, 82, 67
4, 219264, Note_off_c, 2, 75, 67
4, 219264, Note_off_c, 2, 82, 67
4, 219264, Note_on_c, 2, 79, 67
4, 219328, Note_off_c, 2, 79, 67
4, 219392, Note_off_c, 2, 79, 67
4, 219392, Note_on_c, 2, 67, 67
4, 219392, Note_on_c, 2, 75, 67
4, 219456, Note_off_c, 2, 67, 67
4, 219456, Note_off_c, 2, 75, 67
4, 219520, Note_off_c, 2, 67, 67
4, 219520, Note_off_c, 2, 75, 67
4, 219520, Note_on_c, 2, 68, 67
4, 219520, Note_on_c, 2, 74, 67
4, 219552, Note_off_c, 2, 68, 67
4, 219552, Note_off_c, 2, 74, 67
4, 219584, Note_off_c, 2, 68, 67
4, 219584, Note_off_c, 2, 74, 67
4, 219584, Note_on_c, 2, 74, 67
4, 219584, Note_on_c, 2, 79, 67
4, 219616, Note_off_c, 2, 74, 67
4, 219616, Note_off_c, 2, 79, 67
4, 219648, Note_off_c, 2, 74, 67
4, 219648, Note_off_c, 2, 79, 67
4, 219648, Note_on_c, 2, 70, 67
4, 219648, Note_on_c, 2, 77, 67
4, 219712, Note_off_c, 2, 70, 67
4, 219712, Note_off_c, 2, 77, 67
4, 219776, Note_off_c, 2, 70, 67
4, 219776, Note_off_c, 2, 77, 67
4, 219776, Note_on_c, 2, 65, 67
4, 219776, Note_on_c, 2, 70, 67
4, 219840, Note_off_c, 2, 65, 67
4, 219840, Note_off_c, 2, 70, 67
4, 219904, Note_off_c, 2, 65, 67
4, 219904, Note_off_c, 2, 70, 67
4, 219904, Note_on_c, 2, 68, 67
4, 219904, Note_on_c, 2, 70, 67
4, 219968, Note_off_c, 2, 68, 67
4, 219968, Note_off_c, 2, 70, 67
4, 220032, Note_off_c, 2, 68, 67
4, 220032, Note_off_c, 2, 70, 67
4, 220032, Note_on_c, 2, 70, 67
4, 220032, Note_on_c, 2, 79, 67
4, 220096, Note_off_c, 2, 70, 67
4, 220096, Note_off_c, 2, 79, 67
4, 220096, Note_on_c, 2, 77, 67
4, 220096, Note_on_c, 2, 80, 67
4, 220160, Note_off_c, 2, 77, 67
4, 220160, Note_off_c, 2, 80, 67
4, 220160, Note_on_c, 2, 79, 67
4, 220160, Note_on_c, 2, 82, 67
4, 220224, Note_off_c, 2, 79, 67
4, 220224, Note_off_c, 2, 82, 67
4, 220288, Note_off_c, 2, 79, 67
4, 220288, Note_off_c, 2, 82, 67
4, 220288, Note_on_c, 2, 79, 67
4, 220288, Note_on_c, 2, 82, 67
4, 220352, Note_off_c, 2, 79, 67
4, 220352, Note_off_c, 2, 82, 67
4, 220416, Note_off_c, 2, 79, 67
4, 220416, Note_off_c, 2, 82, 67
4, 220416, Note_on_c, 2, 70, 67
4, 220416, Note_on_c, 2, 79, 67
4, 220480, Note_off_c, 2, 70, 67
4, 220480, Note_off_c, 2, 79, 67
4, 220544, Note_off_c, 2, 70, 67
4, 220544, Note_off_c, 2, 79, 67
4, 220544, Note_on_c, 2, 75, 67
4, 220544, Note_on_c, 2, 82, 67
4, 220608, Note_off_c, 2, 75, 67
4, 220608, Note_off_c, 2, 82, 67
4, 220672, Note_off_c, 2, 75, 67
4, 220672, Note_off_c, 2, 82, 67
4, 220672, Note_on_c, 2, 84, 67
4, 220672, Note_on_c, 2, 87, 67
4, 220736, Note_off_c, 2, 84, 67
4, 220736, Note_off_c, 2, 87, 67
4, 220800, Note_off_c, 2, 84, 67
4, 220800, Note_off_c, 2, 87, 67
4, 220800, Note_on_c, 2, 82, 67
4, 220800, Note_on_c, 2, 86, 67
4, 220864, Note_off_c, 2, 82, 67
4, 220864, Note_off_c, 2, 86, 67
4, 220928, Note_off_c, 2, 82, 67
4, 220928, Note_off_c, 2, 86, 67
4, 220928, Note_on_c, 2, 80, 67
4, 220928, Note_on_c, 2, 84, 67
4, 220992, Note_off_c, 2, 80, 67
4, 220992, Note_off_c, 2, 84, 67
4, 221056, Note_off_c, 2, 80, 67
4, 221056, Note_off_c, 2, 84, 67
4, 221056, Note_on_c, 2, 70, 67
4, 221056, Note_on_c, 2, 74, 67
4, 221088, Note_off_c, 2, 70, 67
4, 221088, Note_off_c, 2, 74, 67
4, 221120, Note_off_c, 2, 70, 67
4, 221120, Note_off_c, 2, 74, 67
4, 221120, Note_on_c, 2, 77, 67
4, 221120, Note_on_c, 2, 80, 67
4, 221152, Note_off_c, 2, 77, 67
4, 221152, Note_off_c, 2, 80, 67
4, 221184, Note_off_c, 2, 77, 67
4, 221184, Note_off_c, 2, 80, 67
4, 221184, Note_on_c, 2, 77, 67
4, 221184, Note_on_c, 2, 82, 67
4, 221248, Note_off_c, 2, 77, 67
4, 221248, Note_off_c, 2, 82, 67
4, 221312, Note_off_c, 2, 77, 67
4, 221312, Note_off_c, 2, 82, 67
4, 221312, Note_on_c, 2, 80, 67
4, 221312, Note_on_c, 2, 87, 67
4, 221376, Note_off_c, 2, 80, 67
4, 221376, Note_off_c, 2, 87, 67
4, 221440, Note_off_c, 2, 80, 67
4, 221440, Note_off_c, 2, 87, 67
4, 221440, Note_on_c, 2, 82, 67
4, 221440, Note_on_c, 2, 86, 67
4, 221504, Note_off_c, 2, 82, 67
4, 221504, Note_off_c, 2, 86, 67
4, 221568, Note_off_c, 2, 82, 67
4, 221568, Note_off_c, 2, 86, 67
4, 221568, Note_on_c, 2, 80, 67
4, 221568, Note_on_c, 2, 89, 67
4, 221632, Note_off_c, 2, 80, 67
4, 221632, Note_off_c, 2, 89, 67
4, 221696, Note_off_c, 2, 80, 67
4, 221696, Note_off_c, 2, 89, 67
4, 221696, Note_on_c, 2, 79, 67
4, 221696, Note_on_c, 2, 87, 67
4, 221760, Note_off_c, 2, 79, 67
4, 221760, Note_off_c, 2, 87, 67
4, 221824, Note_off_c, 2, 79, 67
4, 221824, Note_off_c, 2, 87, 67
4, 221824, Note_on_c, 2, 70, 67
4, 221824, Note_on_c, 2, 82, 67
4, 221888, Note_off_c, 2, 70, 67
4, 221888, Note_off_c, 2, 82, 67
4, 221952, Note_off_c, 2, 70, 67
4, 221952, Note_off_c, 2, 82, 67
4, 221952, Note_on_c, 2, 70, 67
4, 221952, Note_on_c, 2, 82, 67
4, 222016, Note_off_c, 2, 70, 67
4, 222016, Note_off_c, 2, 82, 67
4, 222080, Note_off_c, 2, 70, 67
4, 222080, Note_off_c, 2, 82, 67
4, 222080, Note_on_c, 2, 75, 67
4, 222144, Note_off_c, 2, 75, 67
4, 222144, Note_on_c, 2, 77, 67
4, 222208, Note_off_c, 2, 77, 67
4, 222208, Note_on_c, 2, 79, 67
4, 222272, Note_off_c, 2, 79, 67
4, 222336, Note_off_c, 2, 79, 67
4, 222336, Note_on_c, 2, 75, 67
4, 222336, Note_on_c, 2, 79, 67
4, 222400, Note_off_c, 2, 75, 67
4, 222400, Note_off_c, 2, 79, 67
4, 222464, Note_off_c, 2, 75, 67
4, 222464, Note_off_c, 2, 79, 67
4, 222464, Note_on_c, 2, 75, 67
4, 222464, Note_on_c, 2, 79, 67
4, 222528, Note_off_c, 2, 75, 67
4, 222528, Note_off_c, 2, 79, 67
4, 222592, Note_off_c, 2, 75, 67
4, 222592, Note_off_c, 2, 79, 67
4, 222592, Note_on_c, 2, 75, 67
4, 222656, Note_off_c, 2, 75, 67
4, 222656, Note_on_c, 2, 77, 67
4, 222720, Note_off_c, 2, 77, 67
4, 222720, Note_on_c, 2, 79, 67
4, 222784, Note_off_c, 2, 79, 67
4, 222848, Note_off_c, 2, 79, 67
4, 222848, Note_on_c, 2, 75, 67
4, 222848, Note_on_c, 2, 79, 67
4, 222912, Note_off_c, 2, 75, 67
4, 222912, Note_off_c, 2, 79, 67
4, 222976, Note_off_c, 2, 75, 67
4, 222976, Note_off_c, 2, 79, 67
4, 222976, Note_on_c, 2, 75, 67
4, 222976, Note_on_c, 2, 79, 67
4, 223040, Note_off_c, 2, 75, 67
4, 223040, Note_off_c, 2, 79, 67
4, 223104, Note_off_c, 2, 75, 67
4, 223104, Note_off_c, 2, 79, 67
4, 223104, Note_on_c, 2, 75, 67
4, 223168, Note_off_c, 2, 75, 67
4, 223168, Note_on_c, 2, 77, 67
4, 223232, Note_off_c, 2, 77, 67
4, 223232, Note_on_c, 2, 79, 67
4, 223296, Note_off_c, 2, 79, 67
4, 223360, Note_off_c, 2, 79, 67
4, 223360, Note_on_c, 2, 75, 67
4, 223360, Note_on_c, 2, 79, 67
4, 223424, Note_off_c, 2, 75, 67
4, 223424, Note_off_c, 2, 79, 67
4, 223488, Note_off_c, 2, 75, 67
4, 223488, Note_off_c, 2, 79, 67
4, 223488, Note_on_c, 2, 75, 67
4, 223488, Note_on_c, 2, 80, 67
4, 223520, Note_off_c, 2, 75, 67
4, 223520, Note_off_c, 2, 80, 67
4, 223552, Note_off_c, 2, 75, 67
4, 223552, Note_off_c, 2, 80, 67
4, 223552, Note_on_c, 2, 74, 67
4, 223584, Note_off_c, 2, 74, 67
4, 223616, Note_off_c, 2, 74, 67
4, 223616, Note_on_c, 2, 72, 67
4, 223648, Note_off_c, 2, 72, 67
4, 223680, Note_off_c, 2, 72, 67
4, 223680, Note_on_c, 2, 74, 67
4, 223680, Note_on_c, 2, 79, 67
4, 223712, Note_off_c, 2, 74, 67
4, 223712, Note_off_c, 2, 79, 67
4, 223744, Note_off_c, 2, 74, 67
4, 223744, Note_off_c, 2, 79, 67
4, 223744, Note_on_c, 2, 70, 67
4, 223744, Note_on_c, 2, 77, 67
4, 223808, Note_off_c, 2, 70, 67
4, 223808, Note_off_c, 2, 77, 67
4, 223872, Note_off_c, 2, 70, 67
4, 223872, Note_off_c, 2, 77, 67
4, 223872, Note_on_c, 2, 68, 67
4, 223872, Note_on_c, 2, 70, 67
4, 223936, Note_off_c, 2, 68, 67
4, 223936, Note_off_c, 2, 70, 67
4, 224000, Note_off_c, 2, 68, 67
4, 224000, Note_off_c, 2, 70, 67
4, 224000, Note_on_c, 2, 68, 67
4, 224000, Note_on_c, 2, 70, 67
4, 224064, Note_off_c, 2, 68, 67
4, 224064, Note_off_c, 2, 70, 67
4, 224128, Note_off_c, 2, 68, 67
4, 224128, Note_off_c, 2, 70, 67
4, 224128, Note_on_c, 2, 74, 67
4, 224192, Note_off_c, 2, 74, 67
4, 224192, Note_on_c, 2, 75, 67
4, 224256, Note_off_c, 2, 75, 67
4, 224256, Note_on_c, 2, 77, 67
4, 224320, Note_off_c, 2, 77, 67
4, 224384, Note_off_c, 2, 77, 67
4, 224384, Note_on_c, 2, 74, 67
4, 224384, Note_on_c, 2, 77, 67
4, 224448, Note_off_c, 2, 74, 67
4, 224448, Note_off_c, 2, 77, 67
4, 224512, Note_off_c, 2, 74, 67
4, 224512, Note_off_c, 2, 77, 67
4, 224512, Note_on_c, 2, 74, 67
4, 224512, Note_on_c, 2, 77, 67
4, 224576, Note_off_c, 2, 74, 67
4, 224576, Note_off_c, 2, 77, 67
4, 224640, Note_off_c, 2, 74, 67
4, 224640, Note_off_c, 2, 77, 67
4, 224640, Note_on_c, 2, 74, 67
4, 224704, Note_off_c, 2, 74, 67
4, 224704, Note_on_c, 2, 75, 67
4, 224768, Note_off_c, 2, 75, 67
4, 224768, Note_on_c, 2, 77, 67
4, 224832, Note_off_c, 2, 77, 67
4, 224896, Note_off_c, 2, 77, 67
4, 224896, Note_on_c, 2, 74, 67
4, 224896, Note_on_c, 2, 77, 67
4, 224960, Note_off_c, 2, 74, 67
4, 224960, Note_off_c, 2, 77, 67
4, 225024, Note_off_c, 2, 74, 67
4, 225024, Note_off_c, 2, 77, 67
4, 225024, Note_on_c, 2, 74, 67
4, 225024, Note_on_c, 2, 77, 67
4, 225088, Note_off_c, 2, 74, 67
4, 225088, Note_off_c, 2, 77, 67
4, 225152, Note_off_c, 2, 74, 67
4, 225152, Note_off_c, 2, 77, 67
4, 225152, Note_on_c, 2, 74, 67
4, 225216, Note_off_c, 2, 74, 67
4, 225216, Note_on_c, 2, 75, 67
4, 225280, Note_off_c, 2, 75, 67
4, 225280, Note_on_c, 2, 70, 67
4, 225280, Note_on_c, 2, 77, 67
4, 225344, Note_off_c, 2, 70, 67
4, 225344, Note_off_c, 2, 77, 67
4, 225408, Note_off_c, 2, 70, 67
4, 225408, Note_off_c, 2, 77, 67
4, 225408, Note_on_c, 2, 74, 67
4, 225408, Note_on_c, 2, 77, 67
4, 225472, Note_off_c, 2, 74, 67
4, 225472, Note_off_c, 2, 77, 67
4, 225536, Note_off_c, 2, 74, 67
4, 225536, Note_off_c, 2, 77, 67
4, 225536, Note_on_c, 2, 74, 67
4, 225536, Note_on_c, 2, 79, 67
4, 225568, Note_off_c, 2, 74, 67
4, 225568, Note_off_c, 2, 79, 67
4, 225600, Note_off_c, 2, 74, 67
4, 225600, Note_off_c, 2, 79, 67
4, 225600, Note_on_c, 2, 72, 67
4, 225600, Note_on_c, 2, 77, 67
4, 225632, Note_off_c, 2, 72, 67
4, 225632, Note_off_c, 2, 77, 67
4, 225664, Note_off_c, 2, 72, 67
4, 225664, Note_off_c, 2, 77, 67
4, 225664, Note_on_c, 2, 70, 67
4, 225664, Note_on_c, 2, 77, 67
4, 225696, Note_off_c, 2, 70, 67
4, 225696, Note_off_c, 2, 77, 67
4, 225728, Note_off_c, 2, 70, 67
4, 225728, Note_off_c, 2, 77, 67
4, 225728, Note_on_c, 2, 68, 67
4, 225728, Note_on_c, 2, 79, 67
4, 225760, Note_off_c, 2, 68, 67
4, 225760, Note_off_c, 2, 79, 67
4, 225792, Note_off_c, 2, 68, 67
4, 225792, Note_off_c, 2, 79, 67
4, 225792, Note_on_c, 2, 67, 67
4, 225792, Note_on_c, 2, 75, 67
4, 225856, Note_off_c, 2, 67, 67
4, 225856, Note_off_c, 2, 75, 67
4, 225920, Note_off_c, 2, 67, 67
4, 225920, Note_off_c, 2, 75, 67
4, 225920, Note_on_c, 2, 70, 67
4, 225984, Note_off_c, 2, 70, 67
4, 226048, Note_off_c, 2, 70, 67
4, 226048, Note_on_c, 2, 70, 67
4, 226048, Note_on_c, 2, 79, 67
4, 226112, Note_off_c, 2, 70, 67
4, 226112, Note_off_c, 2, 79, 67
4, 226176, Note_off_c, 2, 70, 67
4, 226176, Note_off_c, 2, 79, 67
4, 226176, Note_on_c, 2, 75, 67
4, 226240, Note_off_c, 2, 75, 67
4, 226240, Note_on_c, 2, 77, 67
4, 226304, Note_off_c, 2, 77, 67
4, 226304, Note_on_c, 2, 79, 67
4, 226368, Note_off_c, 2, 79, 67
4, 226432, Note_off_c, 2, 79, 67
4, 226432, Note_on_c, 2, 75, 67
4, 226432, Note_on_c, 2, 79, 67
4, 226496, Note_off_c, 2, 75, 67
4, 226496, Note_off_c, 2, 79, 67
4, 226560, Note_off_c, 2, 75, 67
4, 226560, Note_off_c, 2, 79, 67
4, 226560, Note_on_c, 2, 75, 67
4, 226560, Note_on_c, 2, 79, 67
4, 226624, Note_off_c, 2, 75, 67
4, 226624, Note_off_c, 2, 79, 67
4, 226688, Note_off_c, 2, 75, 67
4, 226688, Note_off_c, 2, 79, 67
4, 226688, Note_on_c, 2, 75, 67
4, 226752, Note_off_c, 2, 75, 67
4, 226752, Note_on_c, 2, 77, 67
4, 226816, Note_off_c, 2, 77, 67
4, 226816, Note_on_c, 2, 79, 67
4, 226880, Note_off_c, 2, 79, 67
4, 226944, Note_off_c, 2, 79, 67
4, 226944, Note_on_c, 2, 75, 67
4, 226944, Note_on_c, 2, 79, 67
4, 227008, Note_off_c, 2, 75, 67
4, 227008, Note_off_c, 2, 79, 67
4, 227072, Note_off_c, 2, 75, 67
4, 227072, Note_off_c, 2, 79, 67
4, 227072, Note_on_c, 2, 75, 67
4, 227072, Note_on_c, 2, 79, 67
4, 227136, Note_off_c, 2, 75, 67
4, 227136, Note_off_c, 2, 79, 67
4, 227200, Note_off_c, 2, 75, 67
4, 227200, Note_off_c, 2, 79, 67
4, 227200, Note_on_c, 2, 75, 67
4, 227264, Note_off_c, 2, 75, 67
4, 227264, Note_on_c, 2, 77, 67
4, 227328, Note_off_c, 2, 77, 67
4, 227328, Note_on_c, 2, 79, 67
4, 227392, Note_off_c, 2, 79, 67
4, 227456, Note_off_c, 2, 79, 67
4, 227456, Note_on_c, 2, 75, 67
4, 227456, Note_on_c, 2, 79, 67
4, 227520, Note_off_c, 2, 75, 67
4, 227520, Note_off_c, 2, 79, 67
4, 227584, Note_off_c, 2, 75, 67
4, 227584, Note_off_c, 2, 79, 67
4, 227584, Note_on_c, 2, 75, 67
4, 227584, Note_on_c, 2, 80, 67
4, 227616, Note_off_c, 2, 75, 67
4, 227616, Note_off_c, 2, 80, 67
4, 227648, Note_off_c, 2, 75, 67
4, 227648, Note_off_c, 2, 80, 67
4, 227648, Note_on_c, 2, 74, 67
4, 227712, Note_off_c, 2, 74, 67
4, 227712, Note_on_c, 2, 72, 67
4, 227776, Note_off_c, 2, 72, 67
4, 227776, Note_on_c, 2, 74, 67
4, 227776, Note_on_c, 2, 79, 67
4, 227808, Note_off_c, 2, 74, 67
4, 227808, Note_off_c, 2, 79, 67
4, 227840, Note_off_c, 2, 74, 67
4, 227840, Note_off_c, 2, 79, 67
4, 227840, Note_on_c, 2, 70, 67
4, 227840, Note_on_c, 2, 77, 67
4, 227904, Note_off_c, 2, 70, 67
4, 227904, Note_off_c, 2, 77, 67
4, 227968, Note_off_c, 2, 70, 67
4, 227968, Note_off_c, 2, 77, 67
4, 227968, Note_on_c, 2, 68, 67
4, 227968, Note_on_c, 2, 70, 67
4, 228032, Note_off_c, 2, 68, 67
4, 228032, Note_off_c, 2, 70, 67
4, 228096, Note_off_c, 2, 68, 67
4, 228096, Note_off_c, 2, 70, 67
4, 228096, Note_on_c, 2, 68, 67
4, 228096, Note_on_c, 2, 70, 67
4, 228160, Note_off_c, 2, 68, 67
4, 228160, Note_off_c, 2, 70, 67
4, 228224, Note_off_c, 2, 68, 67
4, 228224, Note_off_c, 2, 70, 67
4, 228224, Note_on_c, 2, 74, 67
4, 228288, Note_off_c, 2, 74, 67
4, 228288, Note_on_c, 2, 75, 67
4, 228352, Note_off_c, 2, 75, 67
4, 228352, Note_on_c, 2, 77, 67
4, 228480, Note_off_c, 2, 77, 67
4, 228480, Note_on_c, 2, 74, 67
4, 228480, Note_on_c, 2, 80, 67
4, 228544, Note_off_c, 2, 74, 67
4, 228544, Note_off_c, 2, 80, 67
4, 228608, Note_off_c, 2, 74, 67
4, 228608, Note_off_c, 2, 80, 67
4, 228608, Note_on_c, 2, 74, 67
4, 228608, Note_on_c, 2, 79, 67
4, 228672, Note_off_c, 2, 74, 67
4, 228672, Note_off_c, 2, 79, 67
4, 228736, Note_off_c, 2, 74, 67
4, 228736, Note_off_c, 2, 79, 67
4, 228736, Note_on_c, 2, 77, 67
4, 228800, Note_off_c, 2, 77, 67
4, 228864, Note_off_c, 2, 77, 67
4, 228864, Note_on_c, 2, 75, 67
4, 228928, Note_off_c, 2, 75, 67
4, 228992, Note_off_c, 2, 75, 67
4, 228992, Note_on_c, 2, 70, 67
4, 228992, Note_on_c, 2, 74, 67
4, 229056, Note_off_c, 2, 70, 67
4, 229056, Note_off_c, 2, 74, 67
4, 229120, Note_off_c, 2, 70, 67
4, 229120, Note_off_c, 2, 74, 67
4, 229120, Note_on_c, 2, 72, 67
4, 229120, Note_on_c, 2, 74, 67
4, 229184, Note_off_c, 2, 72, 67
4, 229184, Note_off_c, 2, 74, 67
4, 229248, Note_off_c, 2, 72, 67
4, 229248, Note_off_c, 2, 74, 67
4, 229248, Note_on_c, 2, 70, 67
4, 229248, Note_on_c, 2, 74, 67
4, 229312, Note_off_c, 2, 70, 67
4, 229312, Note_off_c, 2, 74, 67
4, 229376, Note_off_c, 2, 70, 67
4, 229376, Note_off_c, 2, 74, 67
4, 229376, Note_on_c, 2, 80, 67
4, 229376, Note_on_c, 2, 84, 67
4, 229632, Note_off_c, 2, 80, 67
4, 229632, Note_off_c, 2, 84, 67
4, 229632, Note_on_c, 2, 70, 67
4, 229632, Note_on_c, 2, 74, 67
4, 229648, Note_off_c, 2, 70, 67
4, 229648, Note_off_c, 2, 74, 67
4, 229664, Note_off_c, 2, 70, 67
4, 229664, Note_off_c, 2, 74, 67
4, 229664, Note_on_c, 2, 72, 67
4, 229664, Note_on_c, 2, 75, 67
4, 229680, Note_off_c, 2, 72, 67
4, 229680, Note_off_c, 2, 75, 67
4, 229696, Note_off_c, 2, 72, 67
4, 229696, Note_off_c, 2, 75, 67
4, 229696, Note_on_c, 2, 70, 67
4, 229696, Note_on_c, 2, 74, 67
4, 229728, Note_off_c, 2, 70, 67
4, 229728, Note_off_c, 2, 74, 67
4, 229760, Note_off_c, 2, 70, 67
4, 229760, Note_off_c, 2, 74, 67
4, 229760, Note_on_c, 2, 68, 67
4, 229760, Note_on_c, 2, 72, 67
4, 229792, Note_off_c, 2, 68, 67
4, 229792, Note_off_c, 2, 72, 67
4, 229824, Note_off_c, 2, 68, 67
4, 229824, Note_off_c, 2, 72, 67
4, 229824, Note_on_c, 2, 74, 67
4, 229824, Note_on_c, 2, 77, 67
4, 229856, Note_off_c, 2, 74, 67
4, 229856, Note_off_c, 2, 77, 67
4, 229888, Note_off_c, 2, 74, 67
4, 229888, Note_off_c, 2, 77, 67
4, 229888, Note_on_c, 2, 75, 67
4, 229888, Note_on_c, 2, 79, 67
4, 230016, Note_off_c, 2, 75, 67
4, 230016, Note_off_c, 2, 79, 67
4, 230016, Note_on_c, 2, 70, 67
4, 230080, Note_off_c, 2, 70, 67
4, 230144, Note_off_c, 2, 70, 67
4, 230144, Note_on_c, 2, 70, 67
4, 230208, Note_off_c, 2, 70, 67
4, 230272, Note_off_c, 2, 70, 67
4, 230272, Note_on_c, 2, 75, 67
4, 230272, Note_on_c, 2, 79, 67
4, 230336, Note_off_c, 2, 75, 67
4, 230336, Note_off_c, 2, 79, 67
4, 230336, Note_on_c, 2, 77, 67
4, 230336, Note_on_c, 2, 80, 67
4, 230400, Note_off_c, 2, 77, 67
4, 230400, Note_off_c, 2, 80, 67
4, 230400, Note_on_c, 2, 79, 67
4, 230400, Note_on_c, 2, 82, 67
4, 230464, Note_off_c, 2, 79, 67
4, 230464, Note_off_c, 2, 82, 67
4, 230528, Note_off_c, 2, 79, 67
4, 230528, Note_off_c, 2, 82, 67
4, 230528, Note_on_c, 2, 79, 67
4, 230528, Note_on_c, 2, 82, 67
4, 230592, Note_off_c, 2, 79, 67
4, 230592, Note_off_c, 2, 82, 67
4, 230656, Note_off_c, 2, 79, 67
4, 230656, Note_off_c, 2, 82, 67
4, 230656, Note_on_c, 2, 70, 67
4, 230656, Note_on_c, 2, 79, 67
4, 230720, Note_off_c, 2, 70, 67
4, 230720, Note_off_c, 2, 79, 67
4, 230784, Note_off_c, 2, 70, 67
4, 230784, Note_off_c, 2, 79, 67
4, 230784, Note_on_c, 2, 70, 67
4, 230784, Note_on_c, 2, 75, 67
4, 230848, Note_off_c, 2, 70, 67
4, 230848, Note_off_c, 2, 75, 67
4, 230912, Note_off_c, 2, 70, 67
4, 230912, Note_off_c, 2, 75, 67
4, 230912, Note_on_c, 2, 84, 67
4, 230912, Note_on_c, 2, 87, 67
4, 230976, Note_off_c, 2, 84, 67
4, 230976, Note_off_c, 2, 87, 67
4, 231040, Note_off_c, 2, 84, 67
4, 231040, Note_off_c, 2, 87, 67
4, 231040, Note_on_c, 2, 82, 67
4, 231040, Note_on_c, 2, 86, 67
4, 231104, Note_off_c, 2, 82, 67
4, 231104, Note_off_c, 2, 86, 67
4, 231168, Note_off_c, 2, 82, 67
4, 231168, Note_off_c, 2, 86, 67
4, 231168, Note_on_c, 2, 80, 67
4, 231168, Note_on_c, 2, 84, 67
4, 231232, Note_off_c, 2, 80, 67
4, 231232, Note_off_c, 2, 84, 67
4, 231296, Note_off_c, 2, 80, 67
4, 231296, Note_off_c, 2, 84, 67
4, 231296, Note_on_c, 2, 79, 67
4, 231296, Note_on_c, 2, 87, 67
4, 231360, Note_off_c, 2, 79, 67
4, 231360, Note_off_c, 2, 87, 67
4, 231424, Note_off_c, 2, 79, 67
4, 231424, Note_off_c, 2, 87, 67
4, 231424, Note_on_c, 2, 75, 67
4, 231424, Note_on_c, 2, 82, 67
4, 231488, Note_off_c, 2, 75, 67
4, 231488, Note_off_c, 2, 82, 67
4, 231552, Note_off_c, 2, 75, 67
4, 231552, Note_off_c, 2, 82, 67
4, 231552, Note_on_c, 2, 79, 67
4, 231616, Note_off_c, 2, 79, 67
4, 231680, Note_off_c, 2, 79, 67
4, 231680, Note_on_c, 2, 67, 67
4, 231680, Note_on_c, 2, 75, 67
4, 231744, Note_off_c, 2, 67, 67
4, 231744, Note_off_c, 2, 75, 67
4, 231808, Note_off_c, 2, 67, 67
4, 231808, Note_off_c, 2, 75, 67
4, 231808, Note_on_c, 2, 68, 67
4, 231808, Note_on_c, 2, 74, 67
4, 231840, Note_off_c, 2, 68, 67
4, 231840, Note_off_c, 2, 74, 67
4, 231872, Note_off_c, 2, 68, 67
4, 231872, Note_off_c, 2, 74, 67
4, 231872, Note_on_c, 2, 74, 67
4, 231872, Note_on_c, 2, 79, 67
4, 231904, Note_off_c, 2, 74, 67
4, 231904, Note_off_c, 2, 79, 67
4, 231936, Note_off_c, 2, 74, 67
4, 231936, Note_off_c, 2, 79, 67
4, 231936, Note_on_c, 2, 70, 67
4, 231936, Note_on_c, 2, 77, 67
4, 232000, Note_off_c, 2, 70, 67
4, 232000, Note_off_c, 2, 77, 67
4, 232064, Note_off_c, 2, 70, 67
4, 232064, Note_off_c, 2, 77, 67
4, 232064, Note_on_c, 2, 65, 67
4, 232064, Note_on_c, 2, 70, 67
4, 232128, Note_off_c, 2, 65, 67
4, 232128, Note_off_c, 2, 70, 67
4, 232192, Note_off_c, 2, 65, 67
4, 232192, Note_off_c, 2, 70, 67
4, 232192, Note_on_c, 2, 68, 67
4, 232192, Note_on_c, 2, 70, 67
4, 232256, Note_off_c, 2, 68, 67
4, 232256, Note_off_c, 2, 70, 67
4, 232320, Note_off_c, 2, 68, 67
4, 232320, Note_off_c, 2, 70, 67
4, 232320, Note_on_c, 2, 70, 67
4, 232320, Note_on_c, 2, 79, 67
4, 232384, Note_off_c, 2, 70, 67
4, 232384, Note_off_c, 2, 79, 67
4, 232384, Note_on_c, 2, 77, 67
4, 232384, Note_on_c, 2, 80, 67
4, 232448, Note_off_c, 2, 77, 67
4, 232448, Note_off_c, 2, 80, 67
4, 232448, Note_on_c, 2, 79, 67
4, 232448, Note_on_c, 2, 82, 67
4, 232512, Note_off_c, 2, 79, 67
4, 232512, Note_off_c, 2, 82, 67
4, 232576, Note_off_c, 2, 79, 67
4, 232576, Note_off_c, 2, 82, 67
4, 232576, Note_on_c, 2, 79, 67
4, 232576, Note_on_c, 2, 82, 67
4, 232640, Note_off_c, 2, 79, 67
4, 232640, Note_off_c, 2, 82, 67
4, 232704, Note_off_c, 2, 79, 67
4, 232704, Note_off_c, 2, 82, 67
4, 232704, Note_on_c, 2, 70, 67
4, 232704, Note_on_c, 2, 79, 67
4, 232768, Note_off_c, 2, 70, 67
4, 232768, Note_off_c, 2, 79, 67
4, 232832, Note_off_c, 2, 70, 67
4, 232832, Note_off_c, 2, 79, 67
4, 232832, Note_on_c, 2, 75, 67
4, 232832, Note_on_c, 2, 82, 67
4, 232896, Note_off_c, 2, 75, 67
4, 232896, Note_off_c, 2, 82, 67
4, 232960, Note_off_c, 2, 75, 67
4, 232960, Note_off_c, 2, 82, 67
4, 232960, Note_on_c, 2, 84, 67
4, 232960, Note_on_c, 2, 87, 67
4, 233024, Note_off_c, 2, 84, 67
4, 233024, Note_off_c, 2, 87, 67
4, 233088, Note_off_c, 2, 84, 67
4, 233088, Note_off_c, 2, 87, 67
4, 233088, Note_on_c, 2, 82, 67
4, 233088, Note_on_c, 2, 86, 67
4, 233152, Note_off_c, 2, 82, 67
4, 233152, Note_off_c, 2, 86, 67
4, 233216, Note_off_c, 2, 82, 67
4, 233216, Note_off_c, 2, 86, 67
4, 233216, Note_on_c, 2, 80, 67
4, 233216, Note_on_c, 2, 84, 67
4, 233280, Note_off_c, 2, 80, 67
4, 233280, Note_off_c, 2, 84, 67
4, 233344, Note_off_c, 2, 80, 67
4, 233344, Note_off_c, 2, 84, 67
4, 233344, Note_on_c, 2, 70, 67
4, 233344, Note_on_c, 2, 74, 67
4, 233376, Note_off_c, 2, 70, 67
4, 233376, Note_off_c, 2, 74, 67
4, 233408, Note_off_c, 2, 70, 67
4, 233408, Note_off_c, 2, 74, 67
4, 233408, Note_on_c, 2, 77, 67
4, 233408, Note_on_c, 2, 80, 67
4, 233440, Note_off_c, 2, 77, 67
4, 233440, Note_off_c, 2, 80, 67
4, 233472, Note_off_c, 2, 77, 67
4, 233472, Note_off_c, 2, 80, 67
4, 233472, Note_on_c, 2, 77, 67
4, 233472, Note_on_c, 2, 82, 67
4, 233536, Note_off_c, 2, 77, 67
4, 233536, Note_off_c, 2, 82, 67
4, 233600, Note_off_c, 2, 77, 67
4, 233600, Note_off_c, 2, 82, 67
4, 233600, Note_on_c, 2, 80, 67
4, 233600, Note_on_c, 2, 87, 67
4, 233664, Note_off_c, 2, 80, 67
4, 233664, Note_off_c, 2, 87, 67
4, 233728, Note_off_c, 2, 80, 67
4, 233728, Note_off_c, 2, 87, 67
4, 233728, Note_on_c, 2, 82, 67
4, 233728, Note_on_c, 2, 86, 67
4, 233792, Note_off_c, 2, 82, 67
4, 233792, Note_off_c, 2, 86, 67
4, 233856, Note_off_c, 2, 82, 67
4, 233856, Note_off_c, 2, 86, 67
4, 233856, Note_on_c, 2, 80, 67
4, 233856, Note_on_c, 2, 89, 67
4, 233920, Note_off_c, 2, 80, 67
4, 233920, Note_off_c, 2, 89, 67
4, 233984, Note_off_c, 2, 80, 67
4, 233984, Note_off_c, 2, 89, 67
4, 233984, Note_on_c, 2, 79, 67
4, 233984, Note_on_c, 2, 87, 67
4, 234048, Note_off_c, 2, 79, 67
4, 234048, Note_off_c, 2, 87, 67
4, 234112, Note_off_c, 2, 79, 67
4, 234112, Note_off_c, 2, 87, 67
4, 234112, Note_on_c, 2, 70, 67
4, 234112, Note_on_c, 2, 82, 67
4, 234176, Note_off_c, 2, 70, 67
4, 234176, Note_off_c, 2, 82, 67
4, 234240, Note_off_c, 2, 70, 67
4, 234240, Note_off_c, 2, 82, 67
4, 234240, Note_on_c, 2, 70, 67
4, 234240, Note_on_c, 2, 82, 67
4, 234304, Note_off_c, 2, 70, 67
4, 234304, Note_off_c, 2, 82, 67
4, 234368, Note_off_c, 2, 70, 67
4, 234368, Note_off_c, 2, 82, 67
4, 234368, Note_on_c, 2, 75, 67
4, 234432, Note_off_c, 2, 75, 67
4, 234432, Note_on_c, 2, 77, 67
4, 234496, Note_off_c, 2, 77, 67
4, 234496, Note_on_c, 2, 79, 67
4, 234560, Note_off_c, 2, 79, 67
4, 234624, Note_off_c, 2, 79, 67
4, 234624, Note_on_c, 2, 75, 67
4, 234624, Note_on_c, 2, 79, 67
4, 234688, Note_off_c, 2, 75, 67
4, 234688, Note_off_c, 2, 79, 67
4, 234752, Note_off_c, 2, 75, 67
4, 234752, Note_off_c, 2, 79, 67
4, 234752, Note_on_c, 2, 75, 67
4, 234752, Note_on_c, 2, 79, 67
4, 234816, Note_off_c, 2, 75, 67
4, 234816, Note_off_c, 2, 79, 67
4, 234880, Note_off_c, 2, 75, 67
4, 234880, Note_off_c, 2, 79, 67
4, 234880, Note_on_c, 2, 75, 67
4, 234944, Note_off_c, 2, 75, 67
4, 234944, Note_on_c, 2, 77, 67
4, 235008, Note_off_c, 2, 77, 67
4, 235008, Note_on_c, 2, 79, 67
4, 235072, Note_off_c, 2, 79, 67
4, 235136, Note_off_c, 2, 79, 67
4, 235136, Note_on_c, 2, 75, 67
4, 235136, Note_on_c, 2, 79, 67
4, 235200, Note_off_c, 2, 75, 67
4, 235200, Note_off_c, 2, 79, 67
4, 235264, Note_off_c, 2, 75, 67
4, 235264, Note_off_c, 2, 79, 67
4, 235264, Note_on_c, 2, 75, 67
4, 235264, Note_on_c, 2, 79, 67
4, 235328, Note_off_c, 2, 75, 67
4, 235328, Note_off_c, 2, 79, 67
4, 235392, Note_off_c, 2, 75, 67
4, 235392, Note_off_c, 2, 79, 67
4, 235392, Note_on_c, 2, 75, 67
4, 235456, Note_off_c, 2, 75, 67
4, 235456, Note_on_c, 2, 77, 67
4, 235520, Note_off_c, 2, 77, 67
4, 235520, Note_on_c, 2, 79, 67
4, 235584, Note_off_c, 2, 79, 67
4, 235648, Note_off_c, 2, 79, 67
4, 235648, Note_on_c, 2, 75, 67
4, 235648, Note_on_c, 2, 79, 67
4, 235712, Note_off_c, 2, 75, 67
4, 235712, Note_off_c, 2, 79, 67
4, 235776, Note_off_c, 2, 75, 67
4, 235776, Note_off_c, 2, 79, 67
4, 235776, Note_on_c, 2, 75, 67
4, 235776, Note_on_c, 2, 80, 67
4, 235808, Note_off_c, 2, 75, 67
4, 235808, Note_off_c, 2, 80, 67
4, 235840, Note_off_c, 2, 75, 67
4, 235840, Note_off_c, 2, 80, 67
4, 235840, Note_on_c, 2, 74, 67
4, 235872, Note_off_c, 2, 74, 67
4, 235904, Note_off_c, 2, 74, 67
4, 235904, Note_on_c, 2, 72, 67
4, 235936, Note_off_c, 2, 72, 67
4, 235968, Note_off_c, 2, 72, 67
4, 235968, Note_on_c, 2, 74, 67
4, 235968, Note_on_c, 2, 79, 67
4, 236000, Note_off_c, 2, 74, 67
4, 236000, Note_off_c, 2, 79, 67
4, 236032, Note_off_c, 2, 74, 67
4, 236032, Note_off_c, 2, 79, 67
4, 236032, Note_on_c, 2, 70, 67
4, 236032, Note_on_c, 2, 77, 67
4, 236096, Note_off_c, 2, 70, 67
4, 236096, Note_off_c, 2, 77, 67
4, 236160, Note_off_c, 2, 70, 67
4, 236160, Note_off_c, 2, 77, 67
4, 236160, Note_on_c, 2, 68, 67
4, 236160, Note_on_c, 2, 70, 67
4, 236224, Note_off_c, 2, 68, 67
4, 236224, Note_off_c, 2, 70, 67
4, 236288, Note_off_c, 2, 68, 67
4, 236288, Note_off_c, 2, 70, 67
4, 236288, Note_on_c, 2, 68, 67
4, 236288, Note_on_c, 2, 70, 67
4, 236352, Note_off_c, 2, 68, 67
4, 236352, Note_off_c, 2, 70, 67
4, 236416, Note_off_c, 2, 68, 67
4, 236416, Note_off_c, 2, 70, 67
4, 236416, Note_on_c, 2, 74, 67
4, 236480, Note_off_c, 2, 74, 67
4, 236480, Note_on_c, 2, 75, 67
4, 236544, Note_off_c, 2, 75, 67
4, 236544, Note_on_c, 2, 77, 67
4, 236608, Note_off_c, 2, 77, 67
4, 236672, Note_off_c, 2, 77, 67
4, 236672, Note_on_c, 2, 74, 67
4, 236672, Note_on_c, 2, 77, 67
4, 236736, Note_off_c, 2, 74, 67
4, 236736, Note_off_c, 2, 77, 67
4, 236800, Note_off_c, 2, 74, 67
4, 236800, Note_off_c, 2, 77, 67
4, 236800, Note_on_c, 2, 74, 67
4, 236800, Note_on_c, 2, 77, 67
4, 236864, Note_off_c, 2, 74, 67
4, 236864, Note_off_c, 2, 77, 67
4, 236928, Note_off_c, 2, 74, 67
4, 236928, Note_off_c, 2, 77, 67
4, 236928, Note_on_c, 2, 74, 67
4, 236992, Note_off_c, 2, 74, 67
4, 236992, Note_on_c, 2, 75, 67
4, 237056, Note_off_c, 2, 75, 67
4, 237056, Note_on_c, 2, 77, 67
4, 237120, Note_off_c, 2, 77, 67
4, 237184, Note_off_c, 2, 77, 67
4, 237184, Note_on_c, 2, 74, 67
4, 237184, Note_on_c, 2, 77, 67
4, 237248, Note_off_c, 2, 74, 67
4, 237248, Note_off_c, 2, 77, 67
4, 237312, Note_off_c, 2, 74, 67
4, 237312, Note_off_c, 2, 77, 67
4, 237312, Note_on_c, 2, 74, 67
4, 237312, Note_on_c, 2, 77, 67
4, 237376, Note_off_c, 2, 74, 67
4, 237376, Note_off_c, 2, 77, 67
4, 237440, Note_off_c, 2, 74, 67
4, 237440, Note_off_c, 2, 77, 67
4, 237440, Note_on_c, 2, 74, 67
4, 237504, Note_off_c, 2, 74, 67
4, 237504, Note_on_c, 2, 75, 67
4, 237568, Note_off_c, 2, 75, 67
4, 237568, Note_on_c, 2, 70, 67
4, 237568, Note_on_c, 2, 77, 67
4, 237632, Note_off_c, 2, 70, 67
4, 237632, Note_off_c, 2, 77, 67
4, 237696, Note_off_c, 2, 70, 67
4, 237696, Note_off_c, 2, 77, 67
4, 237696, Note_on_c, 2, 74, 67
4, 237696, Note_on_c, 2, 77, 67
4, 237760, Note_off_c, 2, 74, 67
4, 237760, Note_off_c, 2, 77, 67
4, 237824, Note_off_c, 2, 74, 67
4, 237824, Note_off_c, 2, 77, 67
4, 237824, Note_on_c, 2, 74, 67
4, 237824, Note_on_c, 2, 79, 67
4, 237856, Note_off_c, 2, 74, 67
4, 237856, Note_off_c, 2, 79, 67
4, 237888, Note_off_c, 2, 74, 67
4, 237888, Note_off_c, 2, 79, 67
4, 237888, Note_on_c, 2, 72, 67
4, 237888, Note_on_c, 2, 77, 67
4, 237920, Note_off_c, 2, 72, 67
4, 237920, Note_off_c, 2, 77, 67
4, 237952, Note_off_c, 2, 72, 67
4, 237952, Note_off_c, 2, 77, 67
4, 237952, Note_on_c, 2, 70, 67
4, 237952, Note_on_c, 2, 77, 67
4, 237984, Note_off_c, 2, 70, 67
4, 237984, Note_off_c, 2, 77, 67
4, 238016, Note_off_c, 2, 70, 67
4, 238016, Note_off_c, 2, 77, 67
4, 238016, Note_on_c, 2, 68, 67
4, 238016, Note_on_c, 2, 79, 67
4, 238048, Note_off_c, 2, 68, 67
4, 238048, Note_off_c, 2, 79, 67
4, 238080, Note_off_c, 2, 68, 67
4, 238080, Note_off_c, 2, 79, 67
4, 238080, Note_on_c, 2, 67, 67
4, 238080, Note_on_c, 2, 75, 67
4, 238144, Note_off_c, 2, 67, 67
4, 238144, Note_off_c, 2, 75, 67
4, 238208, Note_off_c, 2, 67, 67
4, 238208, Note_off_c, 2, 75, 67
4, 238208, Note_on_c, 2, 70, 67
4, 238272, Note_off_c, 2, 70, 67
4, 238336, Note_off_c, 2, 70, 67
4, 238336, Note_on_c, 2, 70, 67
4, 238336, Note_on_c, 2, 79, 67
4, 238400, Note_off_c, 2, 70, 67
4, 238400, Note_off_c, 2, 79, 67
4, 238464, Note_off_c, 2, 70, 67
4, 238464, Note_off_c, 2, 79, 67
4, 238464, Note_on_c, 2, 75, 67
4, 238528, Note_off_c, 2, 75, 67
4, 238528, Note_on_c, 2, 77, 67
4, 238592, Note_off_c, 2, 77, 67
4, 238592, Note_on_c, 2, 79, 67
4, 238656, Note_off_c, 2, 79, 67
4, 238720, Note_off_c, 2, 79, 67
4, 238720, Note_on_c, 2, 75, 67
4, 238720, Note_on_c, 2, 79, 67
4, 238784, Note_off_c, 2, 75, 67
4, 238784, Note_off_c, 2, 79, 67
4, 238848, Note_off_c, 2, 75, 67
4, 238848, Note_off_c, 2, 79, 67
4, 238848, Note_on_c, 2, 75, 67
4, 238848, Note_on_c, 2, 79, 67
4, 238912, Note_off_c, 2, 75, 67
4, 238912, Note_off_c, 2, 79, 67
4, 238976, Note_off_c, 2, 75, 67
4, 238976, Note_off_c, 2, 79, 67
4, 238976, Note_on_c, 2, 75, 67
4, 239040, Note_off_c, 2, 75, 67
4, 239040, Note_on_c, 2, 77, 67
4, 239104, Note_off_c, 2, 77, 67
4, 239104, Note_on_c, 2, 79, 67
4, 239168, Note_off_c, 2, 79, 67
4, 239232, Note_off_c, 2, 79, 67
4, 239232, Note_on_c, 2, 75, 67
4, 239232, Note_on_c, 2, 79, 67
4, 239296, Note_off_c, 2, 75, 67
4, 239296, Note_off_c, 2, 79, 67
4, 239360, Note_off_c, 2, 75, 67
4, 239360, Note_off_c, 2, 79, 67
4, 239360, Note_on_c, 2, 75, 67
4, 239360, Note_on_c, 2, 79, 67
4, 239424, Note_off_c, 2, 75, 67
4, 239424, Note_off_c, 2, 79, 67
4, 239488, Note_off_c, 2, 75, 67
4, 239488, Note_off_c, 2, 79, 67
4, 239488, Note_on_c, 2, 75, 67
4, 239552, Note_off_c, 2, 75, 67
4, 239552, Note_on_c, 2, 77, 67
4, 239616, Note_off_c, 2, 77, 67
4, 239616, Note_on_c, 2, 79, 67
4, 239680, Note_off_c, 2, 79, 67
4, 239744, Note_off_c, 2, 79, 67
4, 239744, Note_on_c, 2, 75, 67
4, 239744, Note_on_c, 2, 79, 67
4, 239808, Note_off_c, 2, 75, 67
4, 239808, Note_off_c, 2, 79, 67
4, 239872, Note_off_c, 2, 75, 67
4, 239872, Note_off_c, 2, 79, 67
4, 239872, Note_on_c, 2, 75, 67
4, 239872, Note_on_c, 2, 80, 67
4, 239904, Note_off_c, 2, 75, 67
4, 239904, Note_off_c, 2, 80, 67
4, 239936, Note_off_c, 2, 75, 67
4, 239936, Note_off_c, 2, 80, 67
4, 239936, Note_on_c, 2, 74, 67
4, 240000, Note_off_c, 2, 74, 67
4, 240000, Note_on_c, 2, 72, 67
4, 240064, Note_off_c, 2, 72, 67
4, 240064, Note_on_c, 2, 74, 67
4, 240064, Note_on_c, 2, 79, 67
4, 240096, Note_off_c, 2, 74, 67
4, 240096, Note_off_c, 2, 79, 67
4, 240128, Note_off_c, 2, 74, 67
4, 240128, Note_off_c, 2, 79, 67
4, 240128, Note_on_c, 2, 70, 67
4, 240128, Note_on_c, 2, 77, 67
4, 240192, Note_off_c, 2, 70, 67
4, 240192, Note_off_c, 2, 77, 67
4, 240256, Note_off_c, 2, 70, 67
4, 240256, Note_off_c, 2, 77, 67
4, 240256, Note_on_c, 2, 68, 67
4, 240256, Note_on_c, 2, 70, 67
4, 240320, Note_off_c, 2, 68, 67
4, 240320, Note_off_c, 2, 70, 67
4, 240384, Note_off_c, 2, 68, 67
4, 240384, Note_off_c, 2, 70, 67
4, 240384, Note_on_c, 2, 68, 67
4, 240384, Note_on_c, 2, 70, 67
4, 240448, Note_off_c, 2, 68, 67
4, 240448, Note_off_c, 2, 70, 67
4, 240512, Note_off_c, 2, 68, 67
4, 240512, Note_off_c, 2, 70, 67
4, 240512, Note_on_c, 2, 74, 67
4, 240576, Note_off_c, 2, 74, 67
4, 240576, Note_on_c, 2, 75, 67
4, 240640, Note_off_c, 2, 75, 67
4, 240640, Note_on_c, 2, 77, 67
4, 240768, Note_off_c, 2, 77, 67
4, 240768, Note_on_c, 2, 74, 67
4, 240768, Note_on_c, 2, 80, 67
4, 240832, Note_off_c, 2, 74, 67
4, 240832, Note_off_c, 2, 80, 67
4, 240896, Note_off_c, 2, 74, 67
4, 240896, Note_off_c, 2, 80, 67
4, 240896, Note_on_c, 2, 74, 67
4, 240896, Note_on_c, 2, 79, 67
4, 240960, Note_off_c, 2, 74, 67
4, 240960, Note_off_c, 2, 79, 67
4, 241024, Note_off_c, 2, 74, 67
4, 241024, Note_off_c, 2, 79, 67
4, 241024, Note_on_c, 2, 77, 67
4, 241088, Note_off_c, 2, 77, 67
4, 241152, Note_off_c, 2, 77, 67
4, 241152, Note_on_c, 2, 75, 67
4, 241216, Note_off_c, 2, 75, 67
4, 241280, Note_off_c, 2, 75, 67
4, 241280, Note_on_c, 2, 70, 67
4, 241280, Note_on_c, 2, 74, 67
4, 241344, Note_off_c, 2, 70, 67
4, 241344, Note_off_c, 2, 74, 67
4, 241408, Note_off_c, 2, 70, 67
4, 241408, Note_off_c, 2, 74, 67
4, 241408, Note_on_c, 2, 72, 67
4, 241408, Note_on_c, 2, 74, 67
4, 241472, Note_off_c, 2, 72, 67
4, 241472, Note_off_c, 2, 74, 67
4, 241536, Note_off_c, 2, 72, 67
4, 241536, Note_off_c, 2, 74, 67
4, 241536, Note_on_c, 2, 70, 67
4, 241536, Note_on_c, 2, 74, 67
4, 241600, Note_off_c, 2, 70, 67
4, 241600, Note_off_c, 2, 74, 67
4, 241664, Note_off_c, 2, 70, 67
4, 241664, Note_off_c, 2, 74, 67
4, 241664, Note_on_c, 2, 80, 67
4, 241664, Note_on_c, 2, 84, 67
4, 241920, Note_off_c, 2, 80, 67
4, 241920, Note_off_c, 2, 84, 67
4, 241920, Note_on_c, 2, 70, 67
4, 241920, Note_on_c, 2, 74, 67
4, 241936, Note_off_c, 2, 70, 67
4, 241936, Note_off_c, 2, 74, 67
4, 241952, Note_off_c, 2, 70, 67
4, 241952, Note_off_c, 2, 74, 67
4, 241952, Note_on_c, 2, 72, 67
4, 241952, Note_on_c, 2, 75, 67
4, 241968, Note_off_c, 2, 72, 67
4, 241968, Note_off_c, 2, 75, 67
4, 241984, Note_off_c, 2, 72, 67
4, 241984, Note_off_c, 2, 75, 67
4, 241984, Note_on_c, 2, 70, 67
4, 241984, Note_on_c, 2, 74, 67
4, 242016, Note_off_c, 2, 70, 67
4, 242016, Note_off_c, 2, 74, 67
4, 242048, Note_off_c, 2, 70, 67
4, 242048, Note_off_c, 2, 74, 67
4, 242048, Note_on_c, 2, 68, 67
4, 242048, Note_on_c, 2, 72, 67
4, 242080, Note_off_c, 2, 68, 67
4, 242080, Note_off_c, 2, 72, 67
4, 242112, Note_off_c, 2, 68, 67
4, 242112, Note_off_c, 2, 72, 67
4, 242112, Note_on_c, 2, 74, 67
4, 242112, Note_on_c, 2, 77, 67
4, 242144, Note_off_c, 2, 74, 67
4, 242144, Note_off_c, 2, 77, 67
4, 242176, Note_off_c, 2, 74, 67
4, 242176, Note_off_c, 2, 77, 67
4, 242176, Note_on_c, 2, 75, 67
4, 242176, Note_on_c, 2, 79, 67
4, 242304, Note_off_c, 2, 75, 67
4, 242304, Note_off_c, 2, 79, 67
4, 242304, Note_on_c, 2, 70, 67
4, 242368, Note_off_c, 2, 70, 67
4, 242432, Note_off_c, 2, 70, 67
4, 242432, Note_on_c, 2, 70, 67
4, 242496, Note_off_c, 2, 70, 67
4, 242560, Note_off_c, 2, 70, 67
4, 242560, Note_on_c, 2, 75, 67
4, 242560, Note_on_c, 2, 79, 67
4, 242624, Note_off_c, 2, 75, 67
4, 242624, Note_off_c, 2, 79, 67
4, 242624, Note_on_c, 2, 77, 67
4, 242624, Note_on_c, 2, 80, 67
4, 242688, Note_off_c, 2, 77, 67
4, 242688, Note_off_c, 2, 80, 67
4, 242688, Note_on_c, 2, 79, 67
4, 242688, Note_on_c, 2, 82, 67
4, 242752, Note_off_c, 2, 79, 67
4, 242752, Note_off_c, 2, 82, 67
4, 242816, Note_off_c, 2, 79, 67
4, 242816, Note_off_c, 2, 82, 67
4, 242816, Note_on_c, 2, 79, 67
4, 242816, Note_on_c, 2, 82, 67
4, 242880, Note_off_c, 2, 79, 67
4, 242880, Note_off_c, 2, 82, 67
4, 242944, Note_off_c, 2, 79, 67
4, 242944, Note_off_c, 2, 82, 67
4, 242944, Note_on_c, 2, 70, 67
4, 242944, Note_on_c, 2, 79, 67
4, 243008, Note_off_c, 2, 70, 67
4, 243008, Note_off_c, 2, 79, 67
4, 243072, Note_off_c, 2, 70, 67
4, 243072, Note_off_c, 2, 79, 67
4, 243072, Note_on_c, 2, 70, 67
4, 243072, Note_on_c, 2, 75, 67
4, 243136, Note_off_c, 2, 70, 67
4, 243136, Note_off_c, 2, 75, 67
4, 243200, Note_off_c, 2, 70, 67
4, 243200, Note_off_c, 2, 75, 67
4, 243200, Note_on_c, 2, 84, 67
4, 243200, Note_on_c, 2, 87, 67
4, 243264, Note_off_c, 2, 84, 67
4, 243264, Note_off_c, 2, 87, 67
4, 243328, Note_off_c, 2, 84, 67
4, 243328, Note_off_c, 2, 87, 67
4, 243328, Note_on_c, 2, 82, 67
4, 243328, Note_on_c, 2, 86, 67
4, 243392, Note_off_c, 2, 82, 67
4, 243392, Note_off_c, 2, 86, 67
4, 243456, Note_off_c, 2, 82, 67
4, 243456, Note_off_c, 2, 86, 67
4, 243456, Note_on_c, 2, 80, 67
4, 243456, Note_on_c, 2, 84, 67
4, 243520, Note_off_c, 2, 80, 67
4, 243520, Note_off_c, 2, 84, 67
4, 243584, Note_off_c, 2, 80, 67
4, 243584, Note_off_c, 2, 84, 67
4, 243584, Note_on_c, 2, 79, 67
4, 243584, Note_on_c, 2, 87, 67
4, 243648, Note_off_c, 2, 79, 67
4, 243648, Note_off_c, 2, 87, 67
4, 243712, Note_off_c, 2, 79, 67
4, 243712, Note_off_c, 2, 87, 67
4, 243712, Note_on_c, 2, 75, 67
4, 243712, Note_on_c, 2, 82, 67
4, 243776, Note_off_c, 2, 75, 67
4, 243776, Note_off_c, 2, 82, 67
4, 243840, Note_off_c, 2, 75, 67
4, 243840, Note_off_c, 2, 82, 67
4, 243840, Note_on_c, 2, 79, 67
4, 243904, Note_off_c, 2, 79, 67
4, 243968, Note_off_c, 2, 79, 67
4, 243968, Note_on_c, 2, 67, 67
4, 243968, Note_on_c, 2, 75, 67
4, 244032, Note_off_c, 2, 67, 67
4, 244032, Note_off_c, 2, 75, 67
4, 244096, Note_off_c, 2, 67, 67
4, 244096, Note_off_c, 2, 75, 67
4, 244096, Note_on_c, 2, 68, 67
4, 244096, Note_on_c, 2, 74, 67
4, 244128, Note_off_c, 2, 68, 67
4, 244128, Note_off_c, 2, 74, 67
4, 244160, Note_off_c, 2, 68, 67
4, 244160, Note_off_c, 2, 74, 67
4, 244160, Note_on_c, 2, 74, 67
4, 244160, Note_on_c, 2, 79, 67
4, 244192, Note_off_c, 2, 74, 67
4, 244192, Note_off_c, 2, 79, 67
4, 244224, Note_off_c, 2, 74, 67
4, 244224, Note_off_c, 2, 79, 67
4, 244224, Note_on_c, 2, 70, 67
4, 244224, Note_on_c, 2, 77, 67
4, 244288, Note_off_c, 2, 70, 67
4, 244288, Note_off_c, 2, 77, 67
4, 244352, Note_off_c, 2, 70, 67
4, 244352, Note_off_c, 2, 77, 67
4, 244352, Note_on_c, 2, 65, 67
4, 244352, Note_on_c, 2, 70, 67
4, 244416, Note_off_c, 2, 65, 67
4, 244416, Note_off_c, 2, 70, 67
4, 244480, Note_off_c, 2, 65, 67
4, 244480, Note_off_c, 2, 70, 67
4, 244480, Note_on_c, 2, 68, 67
4, 244480, Note_on_c, 2, 70, 67
4, 244544, Note_off_c, 2, 68, 67
4, 244544, Note_off_c, 2, 70, 67
4, 244608, Note_off_c, 2, 68, 67
4, 244608, Note_off_c, 2, 70, 67
4, 244608, Note_on_c, 2, 70, 67
4, 244608, Note_on_c, 2, 79, 67
4, 244672, Note_off_c, 2, 70, 67
4, 244672, Note_off_c, 2, 79, 67
4, 244672, Note_on_c, 2, 77, 67
4, 244672, Note_on_c, 2, 80, 67
4, 244736, Note_off_c, 2, 77, 67
4, 244736, Note_off_c, 2, 80, 67
4, 244736, Note_on_c, 2, 79, 67
4, 244736, Note_on_c, 2, 82, 67
4, 244800, Note_off_c, 2, 79, 67
4, 244800, Note_off_c, 2, 82, 67
4, 244864, Note_off_c, 2, 79, 67
4, 244864, Note_off_c, 2, 82, 67
4, 244864, Note_on_c, 2, 79, 67
4, 244864, Note_on_c, 2, 82, 67
4, 244928, Note_off_c, 2, 79, 67
4, 244928, Note_off_c, 2, 82, 67
4, 244992, Note_off_c, 2, 79, 67
4, 244992, Note_off_c, 2, 82, 67
4, 244992, Note_on_c, 2, 70, 67
4, 244992, Note_on_c, 2, 79, 67
4, 245056, Note_off_c, 2, 70, 67
4, 245056, Note_off_c, 2, 79, 67
4, 245120, Note_off_c, 2, 70, 67
4, 245120, Note_off_c, 2, 79, 67
4, 245120, Note_on_c, 2, 75, 67
4, 245120, Note_on_c, 2, 82, 67
4, 245184, Note_off_c, 2, 75, 67
4, 245184, Note_off_c, 2, 82, 67
4, 245248, Note_off_c, 2, 75, 67
4, 245248, Note_off_c, 2, 82, 67
4, 245248, Note_on_c, 2, 84, 67
4, 245248, Note_on_c, 2, 87, 67
4, 245312, Note_off_c, 2, 84, 67
4, 245312, Note_off_c, 2, 87, 67
4, 245376, Note_off_c, 2, 84, 67
4, 245376, Note_off_c, 2, 87, 67
4, 245376, Note_on_c, 2, 82, 67
4, 245376, Note_on_c, 2, 86, 67
4, 245440, Note_off_c, 2, 82, 67
4, 245440, Note_off_c, 2, 86, 67
4, 245504, Note_off_c, 2, 82, 67
4, 245504, Note_off_c, 2, 86, 67
4, 245504, Note_on_c, 2, 80, 67
4, 245504, Note_on_c, 2, 84, 67
4, 245568, Note_off_c, 2, 80, 67
4, 245568, Note_off_c, 2, 84, 67
4, 245632, Note_off_c, 2, 80, 67
4, 245632, Note_off_c, 2, 84, 67
4, 245632, Note_on_c, 2, 70, 67
4, 245632, Note_on_c, 2, 74, 67
4, 245664, Note_off_c, 2, 70, 67
4, 245664, Note_off_c, 2, 74, 67
4, 245696, Note_off_c, 2, 70, 67
4, 245696, Note_off_c, 2, 74, 67
4, 245696, Note_on_c, 2, 77, 67
4, 245696, Note_on_c, 2, 80, 67
4, 245728, Note_off_c, 2, 77, 67
4, 245728, Note_off_c, 2, 80, 67
4, 245760, Note_off_c, 2, 77, 67
4, 245760, Note_off_c, 2, 80, 67
4, 245760, Note_on_c, 2, 77, 67
4, 245760, Note_on_c, 2, 82, 67
4, 245824, Note_off_c, 2, 77, 67
4, 245824, Note_off_c, 2, 82, 67
4, 245888, Note_off_c, 2, 77, 67
4, 245888, Note_off_c, 2, 82, 67
4, 245888, Note_on_c, 2, 80, 67
4, 245888, Note_on_c, 2, 87, 67
4, 245952, Note_off_c, 2, 80, 67
4, 245952, Note_off_c, 2, 87, 67
4, 246016, Note_off_c, 2, 80, 67
4, 246016, Note_off_c, 2, 87, 67
4, 246016, Note_on_c, 2, 82, 67
4, 246016, Note_on_c, 2, 86, 67
4, 246080, Note_off_c, 2, 82, 67
4, 246080, Note_off_c, 2, 86, 67
4, 246144, Note_off_c, 2, 82, 67
4, 246144, Note_off_c, 2, 86, 67
4, 246144, Note_on_c, 2, 80, 67
4, 246144, Note_on_c, 2, 89, 67
4, 246208, Note_off_c, 2, 80, 67
4, 246208, Note_off_c, 2, 89, 67
4, 246272, Note_off_c, 2, 80, 67
4, 246272, Note_off_c, 2, 89, 67
4, 246272, Note_on_c, 2, 79, 67
4, 246272, Note_on_c, 2, 87, 67
4, 246336, Note_off_c, 2, 79, 67
4, 246336, Note_off_c, 2, 87, 67
4, 246400, Note_off_c, 2, 79, 67
4, 246400, Note_off_c, 2, 87, 67
4, 246400, Note_on_c, 2, 70, 67
4, 246400, Note_on_c, 2, 82, 67
4, 246464, Note_off_c, 2, 70, 67
4, 246464, Note_off_c, 2, 82, 67
4, 246528, Note_off_c, 2, 70, 67
4, 246528, Note_off_c, 2, 82, 67
4, 246528, Note_on_c, 2, 70, 67
4, 246528, Note_on_c, 2, 82, 67
4, 246592, Note_off_c, 2, 70, 67
4, 246592, Note_off_c, 2, 82, 67
4, 246656, Note_off_c, 2, 70, 67
4, 246656, Note_off_c, 2, 82, 67
4, 246656, Note_on_c, 2, 75, 67
4, 246720, Note_off_c, 2, 75, 67
4, 246720, Note_on_c, 2, 77, 67
4, 246784, Note_off_c, 2, 77, 67
4, 246784, Note_on_c, 2, 79, 67
4, 246848, Note_off_c, 2, 79, 67
4, 246912, Note_off_c, 2, 79, 67
4, 246912, Note_on_c, 2, 75, 67
4, 246912, Note_on_c, 2, 79, 67
4, 246976, Note_off_c, 2, 75, 67
4, 246976, Note_off_c, 2, 79, 67
4, 247040, Note_off_c, 2, 75, 67
4, 247040, Note_off_c, 2, 79, 67
4, 247040, Note_on_c, 2, 75, 67
4, 247040, Note_on_c, 2, 79, 67
4, 247104, Note_off_c, 2, 75, 67
4, 247104, Note_off_c, 2, 79, 67
4, 247168, Note_off_c, 2, 75, 67
4, 247168, Note_off_c, 2, 79, 67
4, 247168, Note_on_c, 2, 75, 67
4, 247232, Note_off_c, 2, 75, 67
4, 247232, Note_on_c, 2, 77, 67
4, 247296, Note_off_c, 2, 77, 67
4, 247296, Note_on_c, 2, 79, 67
4, 247360, Note_off_c, 2, 79, 67
4, 247424, Note_off_c, 2, 79, 67
4, 247424, Note_on_c, 2, 75, 67
4, 247424, Note_on_c, 2, 79, 67
4, 247488, Note_off_c, 2, 75, 67
4, 247488, Note_off_c, 2, 79, 67
4, 247552, Note_off_c, 2, 75, 67
4, 247552, Note_off_c, 2, 79, 67
4, 247552, Note_on_c, 2, 75, 67
4, 247552, Note_on_c, 2, 79, 67
4, 247616, Note_off_c, 2, 75, 67
4, 247616, Note_off_c, 2, 79, 67
4, 247680, Note_off_c, 2, 75, 67
4, 247680, Note_off_c, 2, 79, 67
4, 247680, Note_on_c, 2, 75, 67
4, 247744, Note_off_c, 2, 75, 67
4, 247744, Note_on_c, 2, 77, 67
4, 247808, Note_off_c, 2, 77, 67
4, 247808, Note_on_c, 2, 79, 67
4, 247872, Note_off_c, 2, 79, 67
4, 247936, Note_off_c, 2, 79, 67
4, 247936, Note_on_c, 2, 75, 67
4, 247936, Note_on_c, 2, 79, 67
4, 248000, Note_off_c, 2, 75, 67
4, 248000, Note_off_c, 2, 79, 67
4, 248064, Note_off_c, 2, 75, 67
4, 248064, Note_off_c, 2, 79, 67
4, 248064, Note_on_c, 2, 75, 67
4, 248064, Note_on_c, 2, 80, 67
4, 248096, Note_off_c, 2, 75, 67
4, 248096, Note_off_c, 2, 80, 67
4, 248128, Note_off_c, 2, 75, 67
4, 248128, Note_off_c, 2, 80, 67
4, 248128, Note_on_c, 2, 74, 67
4, 248160, Note_off_c, 2, 74, 67
4, 248192, Note_off_c, 2, 74, 67
4, 248192, Note_on_c, 2, 72, 67
4, 248224, Note_off_c, 2, 72, 67
4, 248256, Note_off_c, 2, 72, 67
4, 248256, Note_on_c, 2, 74, 67
4, 248256, Note_on_c, 2, 79, 67
4, 248288, Note_off_c, 2, 74, 67
4, 248288, Note_off_c, 2, 79, 67
4, 248320, Note_off_c, 2, 74, 67
4, 248320, Note_off_c, 2, 79, 67
4, 248320, Note_on_c, 2, 70, 67
4, 248320, Note_on_c, 2, 77, 67
4, 248384, Note_off_c, 2, 70, 67
4, 248384, Note_off_c, 2, 77, 67
4, 248448, Note_off_c, 2, 70, 67
4, 248448, Note_off_c, 2, 77, 67
4, 248448, Note_on_c, 2, 68, 67
4, 248448, Note_on_c, 2, 70, 67
4, 248512, Note_off_c, 2, 68, 67
4, 248512, Note_off_c, 2, 70, 67
4, 248576, Note_off_c, 2, 68, 67
4, 248576, Note_off_c, 2, 70, 67
4, 248576, Note_on_c, 2, 68, 67
4, 248576, Note_on_c, 2, 70, 67
4, 248640, Note_off_c, 2, 68, 67
4, 248640, Note_off_c, 2, 70, 67
4, 248704, Note_off_c, 2, 68, 67
4, 248704, Note_off_c, 2, 70, 67
4, 248704, Note_on_c, 2, 74, 67
4, 248768, Note_off_c, 2, 74, 67
4, 248768, Note_on_c, 2, 75, 67
4, 248832, Note_off_c, 2, 75, 67
4, 248832, Note_on_c, 2, 77, 67
4, 248896, Note_off_c, 2, 77, 67
4, 248960, Note_off_c, 2, 77, 67
4, 248960, Note_on_c, 2, 74, 67
4, 248960, Note_on_c, 2, 77, 67
4, 249024, Note_off_c, 2, 74, 67
4, 249024, Note_off_c, 2, 77, 67
4, 249088, Note_off_c, 2, 74, 67
4, 249088, Note_off_c, 2, 77, 67
4, 249088, Note_on_c, 2, 74, 67
4, 249088, Note_on_c, 2, 77, 67
4, 249152, Note_off_c, 2, 74, 67
4, 249152, Note_off_c, 2, 77, 67
4, 249216, Note_off_c, 2, 74, 67
4, 249216, Note_off_c, 2, 77, 67
4, 249216, Note_on_c, 2, 74, 67
4, 249280, Note_off_c, 2, 74, 67
4, 249280, Note_on_c, 2, 75, 67
4, 249344, Note_off_c, 2, 75, 67
4, 249344, Note_on_c, 2, 77, 67
4, 249408, Note_off_c, 2, 77, 67
4, 249472, Note_off_c, 2, 77, 67
4, 249472, Note_on_c, 2, 74, 67
4, 249472, Note_on_c, 2, 77, 67
4, 249536, Note_off_c, 2, 74, 67
4, 249536, Note_off_c, 2, 77, 67
4, 249600, Note_off_c, 2, 74, 67
4, 249600, Note_off_c, 2, 77, 67
4, 249600, Note_on_c, 2, 74, 67
4, 249600, Note_on_c, 2, 77, 67
4, 249664, Note_off_c, 2, 74, 67
4, 249664, Note_off_c, 2, 77, 67
4, 249728, Note_off_c, 2, 74, 67
4, 249728, Note_off_c, 2, 77, 67
4, 249728, Note_on_c, 2, 74, 67
4, 249792, Note_off_c, 2, 74, 67
4, 249792, Note_on_c, 2, 75, 67
4, 249856, Note_off_c, 2, 75, 67
4, 249856, Note_on_c, 2, 70, 67
4, 249856, Note_on_c, 2, 77, 67
4, 249920, Note_off_c, 2, 70, 67
4, 249920, Note_off_c, 2, 77, 67
4, 249984, Note_off_c, 2, 70, 67
4, 249984, Note_off_c, 2, 77, 67
4, 249984, Note_on_c, 2, 74, 67
4, 249984, Note_on_c, 2, 77, 67
4, 250048, Note_off_c, 2, 74, 67
4, 250048, Note_off_c, 2, 77, 67
4, 250112, Note_off_c, 2, 74, 67
4, 250112, Note_off_c, 2, 77, 67
4, 250112, Note_on_c, 2, 74, 67
4, 250112, Note_on_c, 2, 79, 67
4, 250144, Note_off_c, 2, 74, 67
4, 250144, Note_off_c, 2, 79, 67
4, 250176, Note_off_c, 2, 74, 67
4, 250176, Note_off_c, 2, 79, 67
4, 250176, Note_on_c, 2, 72, 67
4, 250176, Note_on_c, 2, 77, 67
4, 250208, Note_off_c, 2, 72, 67
4, 250208, Note_off_c, 2, 77, 67
4, 250240, Note_off_c, 2, 72, 67
4, 250240, Note_off_c, 2, 77, 67
4, 250240, Note_on_c, 2, 70, 67
4, 250240, Note_on_c, 2, 77, 67
4, 250272, Note_off_c, 2, 70, 67
4, 250272, Note_off_c, 2, 77, 67
4, 250304, Note_off_c, 2, 70, 67
4, 250304, Note_off_c, 2, 77, 67
4, 250304, Note_on_c, 2, 68, 67
4, 250304, Note_on_c, 2, 79, 67
4, 250336, Note_off_c, 2, 68, 67
4, 250336, Note_off_c, 2, 79, 67
4, 250368, Note_off_c, 2, 68, 67
4, 250368, Note_off_c, 2, 79, 67
4, 250368, Note_on_c, 2, 67, 67
4, 250368, Note_on_c, 2, 75, 67
4, 250432, Note_off_c, 2, 67, 67
4, 250432, Note_off_c, 2, 75, 67
4, 250496, Note_off_c, 2, 67, 67
4, 250496, Note_off_c, 2, 75, 67
4, 250496, Note_on_c, 2, 70, 67
4, 250560, Note_off_c, 2, 70, 67
4, 250624, Note_off_c, 2, 70, 67
4, 250624, Note_on_c, 2, 70, 67
4, 250624, Note_on_c, 2, 79, 67
4, 250688, Note_off_c, 2, 70, 67
4, 250688, Note_off_c, 2, 79, 67
4, 250752, Note_off_c, 2, 70, 67
4, 250752, Note_off_c, 2, 79, 67
4, 250752, Note_on_c, 2, 75, 67
4, 250816, Note_off_c, 2, 75, 67
4, 250816, Note_on_c, 2, 77, 67
4, 250880, Note_off_c, 2, 77, 67
4, 250880, Note_on_c, 2, 79, 67
4, 250944, Note_off_c, 2, 79, 67
4, 251008, Note_off_c, 2, 79, 67
4, 251008, Note_on_c, 2, 75, 67
4, 251008, Note_on_c, 2, 79, 67
4, 251072, Note_off_c, 2, 75, 67
4, 251072, Note_off_c, 2, 79, 67
4, 251136, Note_off_c, 2, 75, 67
4, 251136, Note_off_c, 2, 79, 67
4, 251136, Note_on_c, 2, 75, 67
4, 251136, Note_on_c, 2, 79, 67
4, 251200, Note_off_c, 2, 75, 67
4, 251200, Note_off_c, 2, 79, 67
4, 251264, Note_off_c, 2, 75, 67
4, 251264, Note_off_c, 2, 79, 67
4, 251264, Note_on_c, 2, 75, 67
4, 251328, Note_off_c, 2, 75, 67
4, 251328, Note_on_c, 2, 77, 67
4, 251392, Note_off_c, 2, 77, 67
4, 251392, Note_on_c, 2, 79, 67
4, 251456, Note_off_c, 2, 79, 67
4, 251520, Note_off_c, 2, 79, 67
4, 251520, Note_on_c, 2, 75, 67
4, 251520, Note_on_c, 2, 79, 67
4, 251584, Note_off_c, 2, 75, 67
4, 251584, Note_off_c, 2, 79, 67
4, 251648, Note_off_c, 2, 75, 67
4, 251648, Note_off_c, 2, 79, 67
4, 251648, Note_on_c, 2, 75, 67
4, 251648, Note_on_c, 2, 79, 67
4, 251712, Note_off_c, 2, 75, 67
4, 251712, Note_off_c, 2, 79, 67
4, 251776, Note_off_c, 2, 75, 67
4, 251776, Note_off_c, 2, 79, 67
4, 251776, Note_on_c, 2, 75, 67
4, 251840, Note_off_c, 2, 75, 67
4, 251840, Note_on_c, 2, 77, 67
4, 251904, Note_off_c, 2, 77, 67
4, 251904, Note_on_c, 2, 79, 67
4, 251968, Note_off_c, 2, 79, 67
4, 252032, Note_off_c, 2, 79, 67
4, 252032, Note_on_c, 2, 75, 67
4, 252032, Note_on_c, 2, 79, 67
4, 252096, Note_off_c, 2, 75, 67
4, 252096, Note_off_c, 2, 79, 67
4, 252160, Note_off_c, 2, 75, 67
4, 252160, Note_off_c, 2, 79, 67
4, 252160, Note_on_c, 2, 75, 67
4, 252160, Note_on_c, 2, 80, 67
4, 252192, Note_off_c, 2, 75, 67
4, 252192, Note_off_c, 2, 80, 67
4, 252224, Note_off_c, 2, 75, 67
4, 252224, Note_off_c, 2, 80, 67
4, 252224, Note_on_c, 2, 74, 67
4, 252288, Note_off_c, 2, 74, 67
4, 252288, Note_on_c, 2, 72, 67
4, 252352, Note_off_c, 2, 72, 67
4, 252352, Note_on_c, 2, 74, 67
4, 252352, Note_on_c, 2, 79, 67
4, 252384, Note_off_c, 2, 74, 67
4, 252384, Note_off_c, 2, 79, 67
4, 252416, Note_off_c, 2, 74, 67
4, 252416, Note_off_c, 2, 79, 67
4, 252416, Note_on_c, 2, 70, 67
4, 252416, Note_on_c, 2, 77, 67
4, 252480, Note_off_c, 2, 70, 67
4, 252480, Note_off_c, 2, 77, 67
4, 252544, Note_off_c, 2, 70, 67
4, 252544, Note_off_c, 2, 77, 67
4, 252544, Note_on_c, 2, 68, 67
4, 252544, Note_on_c, 2, 70, 67
4, 252608, Note_off_c, 2, 68, 67
4, 252608, Note_off_c, 2, 70, 67
4, 252672, Note_off_c, 2, 68, 67
4, 252672, Note_off_c, 2, 70, 67
4, 252672, Note_on_c, 2, 68, 67
4, 252672, Note_on_c, 2, 70, 67
4, 252736, Note_off_c, 2, 68, 67
4, 252736, Note_off_c, 2, 70, 67
4, 252800, Note_off_c, 2, 68, 67
4, 252800, Note_off_c, 2, 70, 67
4, 252800, Note_on_c, 2, 74, 67
4, 252864, Note_off_c, 2, 74, 67
4, 252864, Note_on_c, 2, 75, 67
4, 252928, Note_off_c, 2, 75, 67
4, 252928, Note_on_c, 2, 77, 67
4, 253056, Note_off_c, 2, 77, 67
4, 253056, Note_on_c, 2, 74, 67
4, 253056, Note_on_c, 2, 80, 67
4, 253120, Note_off_c, 2, 74, 67
4, 253120, Note_off_c, 2, 80, 67
4, 253184, Note_off_c, 2, 74, 67
4, 253184, Note_off_c, 2, 80, 67
4, 253184, Note_on_c, 2, 74, 67
4, 253184, Note_on_c, 2, 79, 67
4, 253248, Note_off_c, 2, 74, 67
4, 253248, Note_off_c, 2, 79, 67
4, 253312, Note_off_c, 2, 74, 67
4, 253312, Note_off_c, 2, 79, 67
4, 253312, Note_on_c, 2, 77, 67
4, 253376, Note_off_c, 2, 77, 67
4, 253440, Note_off_c, 2, 77, 67
4, 253440, Note_on_c, 2, 75, 67
4, 253504, Note_off_c, 2, 75, 67
4, 253568, Note_off_c, 2, 75, 67
4, 253568, Note_on_c, 2, 70, 67
4, 253568, Note_on_c, 2, 74, 67
4, 253632, Note_off_c, 2, 70, 67
4, 253632, Note_off_c, 2, 74, 67
4, 253696, Note_off_c, 2, 70, 67
4, 253696, Note_off_c, 2, 74, 67
4, 253696, Note_on_c, 2, 72, 67
4, 253696, Note_on_c, 2, 74, 67
4, 253760, Note_off_c, 2, 72, 67
4, 253760, Note_off_c, 2, 74, 67
4, 253824, Note_off_c, 2, 72, 67
4, 253824, Note_off_c, 2, 74, 67
4, 253824, Note_on_c, 2, 70, 67
4, 253824, Note_on_c, 2, 74, 67
4, 253888, Note_off_c, 2, 70, 67
4, 253888, Note_off_c, 2, 74, 67
4, 253952, Note_off_c, 2, 70, 67
4, 253952, Note_off_c, 2, 74, 67
4, 253952, Note_on_c, 2, 80, 67
4, 253952, Note_on_c, 2, 84, 67
4, 254208, Note_off_c, 2, 80, 67
4, 254208, Note_off_c, 2, 84, 67
4, 254208, Note_on_c, 2, 70, 67
4, 254208, Note_on_c, 2, 74, 67
4, 254224, Note_off_c, 2, 70, 67
4, 254224, Note_off_c, 2, 74, 67
4, 254240, Note_off_c, 2, 70, 67
4, 254240, Note_off_c, 2, 74, 67
4, 254240, Note_on_c, 2, 72, 67
4, 254240, Note_on_c, 2, 75, 67
4, 254256, Note_off_c, 2, 72, 67
4, 254256, Note_off_c, 2, 75, 67
4, 254272, Note_off_c, 2, 72, 67
4, 254272, Note_off_c, 2, 75, 67
4, 254272, Note_on_c, 2, 70, 67
4, 254272, Note_on_c, 2, 74, 67
4, 254304, Note_off_c, 2, 70, 67
4, 254304, Note_off_c, 2, 74, 67
4, 254336, Note_off_c, 2, 70, 67
4, 254336, Note_off_c, 2, 74, 67
4, 254336, Note_on_c, 2, 68, 67
4, 254336, Note_on_c, 2, 72, 67
4, 254368, Note_off_c, 2, 68, 67
4, 254368, Note_off_c, 2, 72, 67
4, 254400, Note_off_c, 2, 68, 67
4, 254400, Note_off_c, 2, 72, 67
4, 254400, Note_on_c, 2, 74, 67
4, 254400, Note_on_c, 2, 77, 67
4, 254432, Note_off_c, 2, 74, 67
4, 254432, Note_off_c, 2, 77, 67
4, 254464, Note_off_c, 2, 74, 67
4, 254464, Note_off_c, 2, 77, 67
4, 254464, Note_on_c, 2, 75, 67
4, 254464, Note_on_c, 2, 79, 67
4, 254592, Note_off_c, 2, 75, 67
4, 254592, Note_off_c, 2, 79, 67
4, 254592, Note_on_c, 2, 70, 67
4, 254656, Note_off_c, 2, 70, 67
4, 254720, Note_off_c, 2, 70, 67
4, 254720, Note_on_c, 2, 70, 67
4, 254784, Note_off_c, 2, 70, 67
4, 254848, Note_off_c, 2, 70, 67
4, 254848, Note_on_c, 2, 75, 67
4, 254848, Note_on_c, 2, 79, 67
4, 254912, Note_off_c, 2, 75, 67
4, 254912, Note_off_c, 2, 79, 67
4, 254912, Note_on_c, 2, 77, 67
4, 254912, Note_on_c, 2, 80, 67
4, 254976, Note_off_c, 2, 77, 67
4, 254976, Note_off_c, 2, 80, 67
4, 254976, Note_on_c, 2, 79, 67
4, 254976, Note_on_c, 2, 82, 67
4, 255040, Note_off_c, 2, 79, 67
4, 255040, Note_off_c, 2, 82, 67
4, 255104, Note_off_c, 2, 79, 67
4, 255104, Note_off_c, 2, 82, 67
4, 255104, Note_on_c, 2, 79, 67
4, 255104, Note_on_c, 2, 82, 67
4, 255168, Note_off_c, 2, 79, 67
4, 255168, Note_off_c, 2, 82, 67
4, 255232, Note_off_c, 2, 79, 67
4, 255232, Note_off_c, 2, 82, 67
4, 255232, Note_on_c, 2, 70, 67
4, 255232, Note_on_c, 2, 79, 67
4, 255296, Note_off_c, 2, 70, 67
4, 255296, Note_off_c, 2, 79, 67
4, 255360, Note_off_c, 2, 70, 67
4, 255360, Note_off_c, 2, 79, 67
4, 255360, Note_on_c, 2, 70, 67
4, 255360, Note_on_c, 2, 75, 67
4, 255424, Note_off_c, 2, 70, 67
4, 255424, Note_off_c, 2, 75, 67
4, 255488, Note_off_c, 2, 70, 67
4, 255488, Note_off_c, 2, 75, 67
4, 255488, Note_on_c, 2, 84, 67
4, 255488, Note_on_c, 2, 87, 67
4, 255552, Note_off_c, 2, 84, 67
4, 255552, Note_off_c, 2, 87, 67
4, 255616, Note_off_c, 2, 84, 67
4, 255616, Note_off_c, 2, 87, 67
4, 255616, Note_on_c, 2, 82, 67
4, 255616, Note_on_c, 2, 86, 67
4, 255680, Note_off_c, 2, 82, 67
4, 255680, Note_off_c, 2, 86, 67
4, 255744, Note_off_c, 2, 82, 67
4, 255744, Note_off_c, 2, 86, 67
4, 255744, Note_on_c, 2, 80, 67
4, 255744, Note_on_c, 2, 84, 67
4, 255808, Note_off_c, 2, 80, 67
4, 255808, Note_off_c, 2, 84, 67
4, 255872, Note_off_c, 2, 80, 67
4, 255872, Note_off_c, 2, 84, 67
4, 255872, Note_on_c, 2, 79, 67
4, 255872, Note_on_c, 2, 87, 67
4, 255936, Note_off_c, 2, 79, 67
4, 255936, Note_off_c, 2, 87, 67
4, 256000, Note_off_c, 2, 79, 67
4, 256000, Note_off_c, 2, 87, 67
4, 256000, Note_on_c, 2, 75, 67
4, 256000, Note_on_c, 2, 82, 67
4, 256064, Note_off_c, 2, 75, 67
4, 256064, Note_off_c, 2, 82, 67
4, 256128, Note_off_c, 2, 75, 67
4, 256128, Note_off_c, 2, 82, 67
4, 256128, Note_on_c, 2, 79, 67
4, 256192, Note_off_c, 2, 79, 67
4, 256256, Note_off_c, 2, 79, 67
4, 256256, Note_on_c, 2, 67, 67
4, 256256, Note_on_c, 2, 75, 67
4, 256320, Note_off_c, 2, 67, 67
4, 256320, Note_off_c, 2, 75, 67
4, 256384, Note_off_c, 2, 67, 67
4, 256384, Note_off_c, 2, 75, 67
4, 256384, Note_on_c, 2, 68, 67
4, 256384, Note_on_c, 2, 74, 67
4, 256416, Note_off_c, 2, 68, 67
4, 256416, Note_off_c, 2, 74, 67
4, 256448, Note_off_c, 2, 68, 67
4, 256448, Note_off_c, 2, 74, 67
4, 256448, Note_on_c, 2, 74, 67
4, 256448, Note_on_c, 2, 79, 67
4, 256480, Note_off_c, 2, 74, 67
4, 256480, Note_off_c, 2, 79, 67
4, 256512, Note_off_c, 2, 74, 67
4, 256512, Note_off_c, 2, 79, 67
4, 256512, Note_on_c, 2, 70, 67
4, 256512, Note_on_c, 2, 77, 67
4, 256576, Note_off_c, 2, 70, 67
4, 256576, Note_off_c, 2, 77, 67
4, 256640, Note_off_c, 2, 70, 67
4, 256640, Note_off_c, 2, 77, 67
4, 256640, Note_on_c, 2, 65, 67
4, 256640, Note_on_c, 2, 70, 67
4, 256704, Note_off_c, 2, 65, 67
4, 256704, Note_off_c, 2, 70, 67
4, 256768, Note_off_c, 2, 65, 67
4, 256768, Note_off_c, 2, 70, 67
4, 256768, Note_on_c, 2, 68, 67
4, 256768, Note_on_c, 2, 70, 67
4, 256832, Note_off_c, 2, 68, 67
4, 256832, Note_off_c, 2, 70, 67
4, 256896, Note_off_c, 2, 68, 67
4, 256896, Note_off_c, 2, 70, 67
4, 256896, Note_on_c, 2, 70, 67
4, 256896, Note_on_c, 2, 79, 67
4, 256960, Note_off_c, 2, 70, 67
4, 256960, Note_off_c, 2, 79, 67
4, 256960, Note_on_c, 2, 77, 67
4, 256960, Note_on_c, 2, 80, 67
4, 257024, Note_off_c, 2, 77, 67
4, 257024, Note_off_c, 2, 80, 67
4, 257024, Note_on_c, 2, 79, 67
4, 257024, Note_on_c, 2, 82, 67
4, 257088, Note_off_c, 2, 79, 67
4, 257088, Note_off_c, 2, 82, 67
4, 257152, Note_off_c, 2, 79, 67
4, 257152, Note_off_c, 2, 82, 67
4, 257152, Note_on_c, 2, 79, 67
4, 257152, Note_on_c, 2, 82, 67
4, 257216, Note_off_c, 2, 79, 67
4, 257216, Note_off_c, 2, 82, 67
4, 257280, Note_off_c, 2, 79, 67
4, 257280, Note_off_c, 2, 82, 67
4, 257280, Note_on_c, 2, 70, 67
4, 257280, Note_on_c, 2, 79, 67
4, 257344, Note_off_c, 2, 70, 67
4, 257344, Note_off_c, 2, 79, 67
4, 257408, Note_off_c, 2, 70, 67
4, 257408, Note_off_c, 2, 79, 67
4, 257408, Note_on_c, 2, 75, 67
4, 257408, Note_on_c, 2, 82, 67
4, 257472, Note_off_c, 2, 75, 67
4, 257472, Note_off_c, 2, 82, 67
4, 257536, Note_off_c, 2, 75, 67
4, 257536, Note_off_c, 2, 82, 67
4, 257536, Note_on_c, 2, 84, 67
4, 257536, Note_on_c, 2, 87, 67
4, 257600, Note_off_c, 2, 84, 67
4, 257600, Note_off_c, 2, 87, 67
4, 257664, Note_off_c, 2, 84, 67
4, 257664, Note_off_c, 2, 87, 67
4, 257664, Note_on_c, 2, 82, 67
4, 257664, Note_on_c, 2, 86, 67
4, 257728, Note_off_c, 2, 82, 67
4, 257728, Note_off_c, 2, 86, 67
4, 257792, Note_off_c, 2, 82, 67
4, 257792, Note_off_c, 2, 86, 67
4, 257792, Note_on_c, 2, 80, 67
4, 257792, Note_on_c, 2, 84, 67
4, 257856, Note_off_c, 2, 80, 67
4, 257856, Note_off_c, 2, 84, 67
4, 257920, Note_off_c, 2, 80, 67
4, 257920, Note_off_c, 2, 84, 67
4, 257920, Note_on_c, 2, 70, 67
4, 257920, Note_on_c, 2, 74, 67
4, 257952, Note_off_c, 2, 70, 67
4, 257952, Note_off_c, 2, 74, 67
4, 257984, Note_off_c, 2, 70, 67
4, 257984, Note_off_c, 2, 74, 67
4, 257984, Note_on_c, 2, 77, 67
4, 257984, Note_on_c, 2, 80, 67
4, 258016, Note_off_c, 2, 77, 67
4, 258016, Note_off_c, 2, 80, 67
4, 258048, Note_off_c, 2, 77, 67
4, 258048, Note_off_c, 2, 80, 67
4, 258048, Note_on_c, 2, 77, 67
4, 258048, Note_on_c, 2, 82, 67
4, 258112, Note_off_c, 2, 77, 67
4, 258112, Note_off_c, 2, 82, 67
4, 258176, Note_off_c, 2, 77, 67
4, 258176, Note_off_c, 2, 82, 67
4, 258176, Note_on_c, 2, 80, 67
4, 258176, Note_on_c, 2, 87, 67
4, 258240, Note_off_c, 2, 80, 67
4, 258240, Note_off_c, 2, 87, 67
4, 258304, Note_off_c, 2, 80, 67
4, 258304, Note_off_c, 2, 87, 67
4, 258304, Note_on_c, 2, 82, 67
4, 258304, Note_on_c, 2, 86, 67
4, 258368, Note_off_c, 2, 82, 67
4, 258368, Note_off_c, 2, 86, 67
4, 258432, Note_off_c, 2, 82, 67
4, 258432, Note_off_c, 2, 86, 67
4, 258432, Note_on_c, 2, 80, 67
4, 258432, Note_on_c, 2, 89, 67
4, 258496, Note_off_c, 2, 80, 67
4, 258496, Note_off_c, 2, 89, 67
4, 258560, Note_off_c, 2, 80, 67
4, 258560, Note_off_c, 2, 89, 67
4, 258560, Note_on_c, 2, 79, 67
4, 258560, Note_on_c, 2, 87, 67
4, 258624, Note_off_c, 2, 79, 67
4, 258624, Note_off_c, 2, 87, 67
4, 258688, Note_off_c, 2, 79, 67
4, 258688, Note_off_c, 2, 87, 67
4, 258688, Note_on_c, 2, 70, 67
4, 258688, Note_on_c, 2, 82, 67
4, 258752, Note_off_c, 2, 70, 67
4, 258752, Note_off_c, 2, 82, 67
4, 258816, Note_off_c, 2, 70, 67
4, 258816, Note_off_c, 2, 82, 67
4, 258816, Note_on_c, 2, 70, 67
4, 258816, Note_on_c, 2, 82, 67
4, 258880, Note_off_c, 2, 70, 67
4, 258880, Note_off_c, 2, 82, 67
4, 258944, Note_off_c, 2, 70, 67
4, 258944, Note_off_c, 2, 82, 67
4, 258944, Note_on_c, 2, 75, 67
4, 259008, Note_off_c, 2, 75, 67
4, 259008, Note_on_c, 2, 77, 67
4, 259072, Note_off_c, 2, 77, 67
4, 259072, Note_on_c, 2, 79, 67
4, 259136, Note_off_c, 2, 79, 67
4, 259200, Note_off_c, 2, 79, 67
4, 259200, Note_on_c, 2, 75, 67
4, 259200, Note_on_c, 2, 79, 67
4, 259264, Note_off_c, 2, 75, 67
4, 259264, Note_off_c, 2, 79, 67
4, 259328, Note_off_c, 2, 75, 67
4, 259328, Note_off_c, 2, 79, 67
4, 259328, Note_on_c, 2, 75, 67
4, 259328, Note_on_c, 2, 79, 67
4, 259392, Note_off_c, 2, 75, 67
4, 259392, Note_off_c, 2, 79, 67
4, 259456, Note_off_c, 2, 75, 67
4, 259456, Note_off_c, 2, 79, 67
4, 259456, Note_on_c, 2, 75, 67
4, 259520, Note_off_c, 2, 75, 67
4, 259520, Note_on_c, 2, 77, 67
4, 259584, Note_off_c, 2, 77, 67
4, 259584, Note_on_c, 2, 79, 67
4, 259648, Note_off_c, 2, 79, 67
4, 259712, Note_off_c, 2, 79, 67
4, 259712, Note_on_c, 2, 75, 67
4, 259712, Note_on_c, 2, 79, 67
4, 259776, Note_off_c, 2, 75, 67
4, 259776, Note_off_c, 2, 79, 67
4, 259840, Note_off_c, 2, 75, 67
4, 259840, Note_off_c, 2, 79, 67
4, 259840, Note_on_c, 2, 75, 67
4, 259840, Note_on_c, 2, 79, 67
4, 259904, Note_off_c, 2, 75, 67
4, 259904, Note_off_c, 2, 79, 67
4, 259968, Note_off_c, 2, 75, 67
4, 259968, Note_off_c, 2, 79, 67
4, 259968, Note_on_c, 2, 75, 67
4, 260032, Note_off_c, 2, 75, 67
4, 260032, Note_on_c, 2, 77, 67
4, 260096, Note_off_c, 2, 77, 67
4, 260096, Note_on_c, 2, 79, 67
4, 260160, Note_off_c, 2, 79, 67
4, 260224, Note_off_c, 2, 79, 67
4, 260224, Note_on_c, 2, 75, 67
4, 260224, Note_on_c, 2, 79, 67
4, 260288, Note_off_c, 2, 75, 67
4, 260288, Note_off_c, 2, 79, 67
4, 260352, Note_off_c, 2, 75, 67
4, 260352, Note_off_c, 2, 79, 67
4, 260352, Note_on_c, 2, 75, 67
4, 260352, Note_on_c, 2, 80, 67
4, 260384, Note_off_c, 2, 75, 67
4, 260384, Note_off_c, 2, 80, 67
4, 260416, Note_off_c, 2, 75, 67
4, 260416, Note_off_c, 2, 80, 67
4, 260416, Note_on_c, 2, 74, 67
4, 260448, Note_off_c, 2, 74, 67
4, 260480, Note_off_c, 2, 74, 67
4, 260480, Note_on_c, 2, 72, 67
4, 260512, Note_off_c, 2, 72, 67
4, 260544, Note_off_c, 2, 72, 67
4, 260544, Note_on_c, 2, 74, 67
4, 260544, Note_on_c, 2, 79, 67
4, 260576, Note_off_c, 2, 74, 67
4, 260576, Note_off_c, 2, 79, 67
4, 260608, Note_off_c, 2, 74, 67
4, 260608, Note_off_c, 2, 79, 67
4, 260608, Note_on_c, 2, 70, 67
4, 260608, Note_on_c, 2, 77, 67
4, 260672, Note_off_c, 2, 70, 67
4, 260672, Note_off_c, 2, 77, 67
4, 260736, Note_off_c, 2, 70, 67
4, 260736, Note_off_c, 2, 77, 67
4, 260736, Note_on_c, 2, 68, 67
4, 260736, Note_on_c, 2, 70, 67
4, 260800, Note_off_c, 2, 68, 67
4, 260800, Note_off_c, 2, 70, 67
4, 260864, Note_off_c, 2, 68, 67
4, 260864, Note_off_c, 2, 70, 67
4, 260864, Note_on_c, 2, 68, 67
4, 260864, Note_on_c, 2, 70, 67
4, 260928, Note_off_c, 2, 68, 67
4, 260928, Note_off_c, 2, 70, 67
4, 260992, Note_off_c, 2, 68, 67
4, 260992, Note_off_c, 2, 70, 67
4, 260992, Note_on_c, 2, 74, 67
4, 261056, Note_off_c, 2, 74, 67
4, 261056, Note_on_c, 2, 75, 67
4, 261120, Note_off_c, 2, 75, 67
4, 261120, Note_on_c, 2, 77, 67
4, 261184, Note_off_c, 2, 77, 67
4, 261248, Note_off_c, 2, 77, 67
4, 261248, Note_on_c, 2, 74, 67
4, 261248, Note_on_c, 2, 77, 67
4, 261312, Note_off_c, 2, 74, 67
4, 261312, Note_off_c, 2, 77, 67
4, 261376, Note_off_c, 2, 74, 67
4, 261376, Note_off_c, 2, 77, 67
4, 261376, Note_on_c, 2, 74, 67
4, 261376, Note_on_c, 2, 77, 67
4, 261440, Note_off_c, 2, 74, 67
4, 261440, Note_off_c, 2, 77, 67
4, 261504, Note_off_c, 2, 74, 67
4, 261504, Note_off_c, 2, 77, 67
4, 261504, Note_on_c, 2, 74, 67
4, 261568, Note_off_c, 2, 74, 67
4, 261568, Note_on_c, 2, 75, 67
4, 261632, Note_off_c, 2, 75, 67
4, 261632, Note_on_c, 2, 77, 67
4, 261696, Note_off_c, 2, 77, 67
4, 261760, Note_off_c, 2, 77, 67
4, 261760, Note_on_c, 2, 74, 67
4, 261760, Note_on_c, 2, 77, 67
4, 261824, Note_off_c, 2, 74, 67
4, 261824, Note_off_c, 2, 77, 67
4, 261888, Note_off_c, 2, 74, 67
4, 261888, Note_off_c, 2, 77, 67
4, 261888, Note_on_c, 2, 74, 67
4, 261888, Note_on_c, 2, 77, 67
4, 261952, Note_off_c, 2, 74, 67
4, 261952, Note_off_c, 2, 77, 67
4, 262016, Note_off_c, 2, 74, 67
4, 262016, Note_off_c, 2, 77, 67
4, 262016, Note_on_c, 2, 74, 67
4, 262080, Note_off_c, 2, 74, 67
4, 262080, Note_on_c, 2, 75, 67
4, 262144, Note_off_c, 2, 75, 67
4, 262144, Note_on_c, 2, 70, 67
4, 262144, Note_on_c, 2, 77, 67
4, 262208, Note_off_c, 2, 70, 67
4, 262208, Note_off_c, 2, 77, 67
4, 262272, Note_off_c, 2, 70, 67
4, 262272, Note_off_c, 2, 77, 67
4, 262272, Note_on_c, 2, 74, 67
4, 262272, Note_on_c, 2, 77, 67
4, 262336, Note_off_c, 2, 74, 67
4, 262336, Note_off_c, 2, 77, 67
4, 262400, Note_off_c, 2, 74, 67
4, 262400, Note_off_c, 2, 77, 67
4, 262400, Note_on_c, 2, 74, 67
4, 262400, Note_on_c, 2, 79, 67
4, 262432, Note_off_c, 2, 74, 67
4, 262432, Note_off_c, 2, 79, 67
4, 262464, Note_off_c, 2, 74, 67
4, 262464, Note_off_c, 2, 79, 67
4, 262464, Note_on_c, 2, 72, 67
4, 262464, Note_on_c, 2, 77, 67
4, 262496, Note_off_c, 2, 72, 67
4, 262496, Note_off_c, 2, 77, 67
4, 262528, Note_off_c, 2, 72, 67
4, 262528, Note_off_c, 2, 77, 67
4, 262528, Note_on_c, 2, 70, 67
4, 262528, Note_on_c, 2, 77, 67
4, 262560, Note_off_c, 2, 70, 67
4, 262560, Note_off_c, 2, 77, 67
4, 262592, Note_off_c, 2, 70, 67
4, 262592, Note_off_c, 2, 77, 67
4, 262592, Note_on_c, 2, 68, 67
4, 262592, Note_on_c, 2, 79, 67
4, 262624, Note_off_c, 2, 68, 67
4, 262624, Note_off_c, 2, 79, 67
4, 262656, Note_off_c, 2, 68, 67
4, 262656, Note_off_c, 2, 79, 67
4, 262656, Note_on_c, 2, 67, 67
4, 262656, Note_on_c, 2, 75, 67
4, 262720, Note_off_c, 2, 67, 67
4, 262720, Note_off_c, 2, 75, 67
4, 262784, Note_off_c, 2, 67, 67
4, 262784, Note_off_c, 2, 75, 67
4, 262784, Note_on_c, 2, 70, 67
4, 262848, Note_off_c, 2, 70, 67
4, 262912, Note_off_c, 2, 70, 67
4, 262912, Note_on_c, 2, 70, 67
4, 262912, Note_on_c, 2, 79, 67
4, 262976, Note_off_c, 2, 70, 67
4, 262976, Note_off_c, 2, 79, 67
4, 263040, Note_off_c, 2, 70, 67
4, 263040, Note_off_c, 2, 79, 67
4, 263040, Note_on_c, 2, 75, 67
4, 263104, Note_off_c, 2, 75, 67
4, 263104, Note_on_c, 2, 77, 67
4, 263168, Note_off_c, 2, 77, 67
4, 263168, Note_on_c, 2, 79, 67
4, 263232, Note_off_c, 2, 79, 67
4, 263296, Note_off_c, 2, 79, 67
4, 263296, Note_on_c, 2, 75, 67
4, 263296, Note_on_c, 2, 79, 67
4, 263360, Note_off_c, 2, 75, 67
4, 263360, Note_off_c, 2, 79, 67
4, 263424, Note_off_c, 2, 75, 67
4, 263424, Note_off_c, 2, 79, 67
4, 263424, Note_on_c, 2, 75, 67
4, 263424, Note_on_c, 2, 79, 67
4, 263488, Note_off_c, 2, 75, 67
4, 263488, Note_off_c, 2, 79, 67
4, 263552, Note_off_c, 2, 75, 67
4, 263552, Note_off_c, 2, 79, 67
4, 263552, Note_on_c, 2, 75, 67
4, 263616, Note_off_c, 2, 75, 67
4, 263616, Note_on_c, 2, 77, 67
4, 263680, Note_off_c, 2, 77, 67
4, 263680, Note_on_c, 2, 79, 67
4, 263744, Note_off_c, 2, 79, 67
4, 263808, Note_off_c, 2, 79, 67
4, 263808, Note_on_c, 2, 75, 67
4, 263808, Note_on_c, 2, 79, 67
4, 263872, Note_off_c, 2, 75, 67
4, 263872, Note_off_c, 2, 79, 67
4, 263936, Note_off_c, 2, 75, 67
4, 263936, Note_off_c, 2, 79, 67
4, 263936, Note_on_c, 2, 75, 67
4, 263936, Note_on_c, 2, 79, 67
4, 264000, Note_off_c, 2, 75, 67
4, 264000, Note_off_c, 2, 79, 67
4, 264064, Note_off_c, 2, 75, 67
4, 264064, Note_off_c, 2, 79, 67
4, 264064, Note_on_c, 2, 75, 67
4, 264128, Note_off_c, 2, 75, 67
4, 264128, Note_on_c, 2, 77, 67
4, 264192, Note_off_c, 2, 77, 67
4, 264192, Note_on_c, 2, 79, 67
4, 264256, Note_off_c, 2, 79, 67
4, 264320, Note_off_c, 2, 79, 67
4, 264320, Note_on_c, 2, 75, 67
4, 264320, Note_on_c, 2, 79, 67
4, 264384, Note_off_c, 2, 75, 67
4, 264384, Note_off_c, 2, 79, 67
4, 264448, Note_off_c, 2, 75, 67
4, 264448, Note_off_c, 2, 79, 67
4, 264448, Note_on_c, 2, 75, 67
4, 264448, Note_on_c, 2, 80, 67
4, 264480, Note_off_c, 2, 75, 67
4, 264480, Note_off_c, 2, 80, 67
4, 264512, Note_off_c, 2, 75, 67
4, 264512, Note_off_c, 2, 80, 67
4, 264512, Note_on_c, 2, 74, 67
4, 264576, Note_off_c, 2, 74, 67
4, 264576, Note_on_c, 2, 72, 67
4, 264640, Note_off_c, 2, 72, 67
4, 264640, Note_on_c, 2, 74, 67
4, 264640, Note_on_c, 2, 79, 67
4, 264672, Note_off_c, 2, 74, 67
4, 264672, Note_off_c, 2, 79, 67
4, 264704, Note_off_c, 2, 74, 67
4, 264704, Note_off_c, 2, 79, 67
4, 264704, Note_on_c, 2, 70, 67
4, 264704, Note_on_c, 2, 77, 67
4, 264768, Note_off_c, 2, 70, 67
4, 264768, Note_off_c, 2, 77, 67
4, 264832, Note_off_c, 2, 70, 67
4, 264832, Note_off_c, 2, 77, 67
4, 264832, Note_on_c, 2, 68, 67
4, 264832, Note_on_c, 2, 70, 67
4, 264896, Note_off_c, 2, 68, 67
4, 264896, Note_off_c, 2, 70, 67
4, 264960, Note_off_c, 2, 68, 67
4, 264960, Note_off_c, 2, 70, 67
4, 264960, Note_on_c, 2, 68, 67
4, 264960, Note_on_c, 2, 70, 67
4, 265024, Note_off_c, 2, 68, 67
4, 265024, Note_off_c, 2, 70, 67
4, 265088, Note_off_c, 2, 68, 67
4, 265088, Note_off_c, 2, 70, 67
4, 265088, Note_on_c, 2, 74, 67
4, 265152, Note_off_c, 2, 74, 67
4, 265152, Note_on_c, 2, 75, 67
4, 265216, Note_off_c, 2, 75, 67
4, 265216, Note_on_c, 2, 77, 67
4, 265344, Note_off_c, 2, 77, 67
4, 265344, Note_on_c, 2, 74, 67
4, 265344, Note_on_c, 2, 80, 67
4, 265408, Note_off_c, 2, 74, 67
4, 265408, Note_off_c, 2, 80, 67
4, 265472, Note_off_c, 2, 74, 67
4, 265472, Note_off_c, 2, 80, 67
4, 265472, Note_on_c, 2, 74, 67
4, 265472, Note_on_c, 2, 79, 67
4, 265536, Note_off_c, 2, 74, 67
4, 265536, Note_off_c, 2, 79, 67
4, 265600, Note_off_c, 2, 74, 67
4, 265600, Note_off_c, 2, 79, 67
4, 265600, Note_on_c, 2, 77, 67
4, 265664, Note_off_c, 2, 77, 67
4, 265728, Note_off_c, 2, 77, 67
4, 265728, Note_on_c, 2, 75, 67
4, 265792, Note_off_c, 2, 75, 67
4, 265856, Note_off_c, 2, 75, 67
4, 265856, Note_on_c, 2, 70, 67
4, 265856, Note_on_c, 2, 74, 67
4, 265920, Note_off_c, 2, 70, 67
4, 265920, Note_off_c, 2, 74, 67
4, 265984, Note_off_c, 2, 70, 67
4, 265984, Note_off_c, 2, 74, 67
4, 265984, Note_on_c, 2, 72, 67
4, 265984, Note_on_c, 2, 74, 67
4, 266048, Note_off_c, 2, 72, 67
4, 266048, Note_off_c, 2, 74, 67
4, 266112, Note_off_c, 2, 72, 67
4, 266112, Note_off_c, 2, 74, 67
4, 266112, Note_on_c, 2, 70, 67
4, 266112, Note_on_c, 2, 74, 67
4, 266176, Note_off_c, 2, 70, 67
4, 266176, Note_off_c, 2, 74, 67
4, 266240, Note_off_c, 2, 70, 67
4, 266240, Note_off_c, 2, 74, 67
4, 266240, Note_on_c, 2, 80, 67
4, 266240, Note_on_c, 2, 84, 67
4, 266496, Note_off_c, 2, 80, 67
4, 266496, Note_off_c, 2, 84, 67
4, 266496, Note_on_c, 2, 70, 67
4, 266496, Note_on_c, 2, 74, 67
4, 266512, Note_off_c, 2, 70, 67
4, 266512, Note_off_c, 2, 74, 67
4, 266528, Note_off_c, 2, 70, 67
4, 266528, Note_off_c, 2, 74, 67
4, 266528, Note_on_c, 2, 72, 67
4, 266528, Note_on_c, 2, 75, 67
4, 266544, Note_off_c, 2, 72, 67
4, 266544, Note_off_c, 2, 75, 67
4, 266560, Note_off_c, 2, 72, 67
4, 266560, Note_off_c, 2, 75, 67
4, 266560, Note_on_c, 2, 70, 67
4, 266560, Note_on_c, 2, 74, 67
4, 266592, Note_off_c, 2, 70, 67
4, 266592, Note_off_c, 2, 74, 67
4, 266624, Note_off_c, 2, 70, 67
4, 266624, Note_off_c, 2, 74, 67
4, 266624, Note_on_c, 2, 68, 67
4, 266624, Note_on_c, 2, 72, 67
4, 266656, Note_off_c, 2, 68, 67
4, 266656, Note_off_c, 2, 72, 67
4, 266688, Note_off_c, 2, 68, 67
4, 266688, Note_off_c, 2, 72, 67
4, 266688, Note_on_c, 2, 74, 67
4, 266688, Note_on_c, 2, 77, 67
4, 266720, Note_off_c, 2, 74, 67
4, 266720, Note_off_c, 2, 77, 67
4, 266752, Note_off_c, 2, 74, 67
4, 266752, Note_off_c, 2, 77, 67
4, 266752, Note_on_c, 2, 75, 67
4, 266752, Note_on_c, 2, 79, 67
4, 266880, Note_off_c, 2, 75, 67
4, 266880, Note_off_c, 2, 79, 67
4, 266880, Note_on_c, 2, 70, 67
4, 266944, Note_off_c, 2, 70, 67
4, 267008, Note_off_c, 2, 70, 67
4, 267008, Note_on_c, 2, 70, 67
4, 267072, Note_off_c, 2, 70, 67
4, 267136, Note_off_c, 2, 70, 67
4, 267136, Note_on_c, 2, 75, 67
4, 267136, Note_on_c, 2, 79, 67
4, 267200, Note_off_c, 2, 75, 67
4, 267200, Note_off_c, 2, 79, 67
4, 267200, Note_on_c, 2, 77, 67
4, 267200, Note_on_c, 2, 80, 67
4, 267264, Note_off_c, 2, 77, 67
4, 267264, Note_off_c, 2, 80, 67
4, 267264, Note_on_c, 2, 79, 67
4, 267264, Note_on_c, 2, 82, 67
4, 267328, Note_off_c, 2, 79, 67
4, 267328, Note_off_c, 2, 82, 67
4, 267392, Note_off_c, 2, 79, 67
4, 267392, Note_off_c, 2, 82, 67
4, 267392, Note_on_c, 2, 79, 67
4, 267392, Note_on_c, 2, 82, 67
4, 267456, Note_off_c, 2, 79, 67
4, 267456, Note_off_c, 2, 82, 67
4, 267520, Note_off_c, 2, 79, 67
4, 267520, Note_off_c, 2, 82, 67
4, 267520, Note_on_c, 2, 70, 67
4, 267520, Note_on_c, 2, 79, 67
4, 267584, Note_off_c, 2, 70, 67
4, 267584, Note_off_c, 2, 79, 67
4, 267648, Note_off_c, 2, 70, 67
4, 267648, Note_off_c, 2, 79, 67
4, 267648, Note_on_c, 2, 70, 67
4, 267648, Note_on_c, 2, 75, 67
4, 267712, Note_off_c, 2, 70, 67
4, 267712, Note_off_c, 2, 75, 67
4, 267776, Note_off_c, 2, 70, 67
4, 267776, Note_off_c, 2, 75, 67
4, 267776, Note_on_c, 2, 84, 67
4, 267776, Note_on_c, 2, 87, 67
4, 267840, Note_off_c, 2, 84, 67
4, 267840, Note_off_c, 2, 87, 67
4, 267904, Note_off_c, 2, 84, 67
4, 267904, Note_off_c, 2, 87, 67
4, 267904, Note_on_c, 2, 82, 67
4, 267904, Note_on_c, 2, 86, 67
4, 267968, Note_off_c, 2, 82, 67
4, 267968, Note_off_c, 2, 86, 67
4, 268032, Note_off_c, 2, 82, 67
4, 268032, Note_off_c, 2, 86, 67
4, 268032, Note_on_c, 2, 80, 67
4, 268032, Note_on_c, 2, 84, 67
4, 268096, Note_off_c, 2, 80, 67
4, 268096, Note_off_c, 2, 84, 67
4, 268160, Note_off_c, 2, 80, 67
4, 268160, Note_off_c, 2, 84, 67
4, 268160, Note_on_c, 2, 79, 67
4, 268160, Note_on_c, 2, 87, 67
4, 268224, Note_off_c, 2, 79, 67
4, 268224, Note_off_c, 2, 87, 67
4, 268288, Note_off_c, 2, 79, 67
4, 268288, Note_off_c, 2, 87, 67
4, 268288, Note_on_c, 2, 75, 67
4, 268288, Note_on_c, 2, 82, 67
4, 268352, Note_off_c, 2, 75, 67
4, 268352, Note_off_c, 2, 82, 67
4, 268416, Note_off_c, 2, 75, 67
4, 268416, Note_off_c, 2, 82, 67
4, 268416, Note_on_c, 2, 79, 67
4, 268480, Note_off_c, 2, 79, 67
4, 268544, Note_off_c, 2, 79, 67
4, 268544, Note_on_c, 2, 67, 67
4, 268544, Note_on_c, 2, 75, 67
4, 268608, Note_off_c, 2, 67, 67
4, 268608, Note_off_c, 2, 75, 67
4, 268672, Note_off_c, 2, 67, 67
4, 268672, Note_off_c, 2, 75, 67
4, 268672, Note_on_c, 2, 68, 67
4, 268672, Note_on_c, 2, 74, 67
4, 268704, Note_off_c, 2, 68, 67
4, 268704, Note_off_c, 2, 74, 67
4, 268736, Note_off_c, 2, 68, 67
4, 268736, Note_off_c, 2, 74, 67
4, 268736, Note_on_c, 2, 74, 67
4, 268736, Note_on_c, 2, 79, 67
4, 268768, Note_off_c, 2, 74, 67
4, 268768, Note_off_c, 2, 79, 67
4, 268800, Note_off_c, 2, 74, 67
4, 268800, Note_off_c, 2, 79, 67
4, 268800, Note_on_c, 2, 70, 67
4, 268800, Note_on_c, 2, 77, 67
4, 268864, Note_off_c, 2, 70, 67
4, 268864, Note_off_c, 2, 77, 67
4, 268928, Note_off_c, 2, 70, 67
4, 268928, Note_off_c, 2, 77, 67
4, 268928, Note_on_c, 2, 65, 67
4, 268928, Note_on_c, 2, 70, 67
4, 268992, Note_off_c, 2, 65, 67
4, 268992, Note_off_c, 2, 70, 67
4, 269056, Note_off_c, 2, 65, 67
4, 269056, Note_off_c, 2, 70, 67
4, 269056, Note_on_c, 2, 68, 67
4, 269056, Note_on_c, 2, 70, 67
4, 269120, Note_off_c, 2, 68, 67
4, 269120, Note_off_c, 2, 70, 67
4, 269184, Note_off_c, 2, 68, 67
4, 269184, Note_off_c, 2, 70, 67
4, 269184, Note_on_c, 2, 70, 67
4, 269184, Note_on_c, 2, 79, 67
4, 269248, Note_off_c, 2, 70, 67
4, 269248, Note_off_c, 2, 79, 67
4, 269248, Note_on_c, 2, 77, 67
4, 269248, Note_on_c, 2, 80, 67
4, 269312, Note_off_c, 2, 77, 67
4, 269312, Note_off_c, 2, 80, 67
4, 269312, Note_on_c, 2, 79, 67
4, 269312, Note_on_c, 2, 82, 67
4, 269376, Note_off_c, 2, 79, 67
4, 269376, Note_off_c, 2, 82, 67
4, 269440, Note_off_c, 2, 79, 67
4, 269440, Note_off_c, 2, 82, 67
4, 269440, Note_on_c, 2, 79, 67
4, 269440, Note_on_c, 2, 82, 67
4, 269504, Note_off_c, 2, 79, 67
4, 269504, Note_off_c, 2, 82, 67
4, 269568, Note_off_c, 2, 79, 67
4, 269568, Note_off_c, 2, 82, 67
4, 269568, Note_on_c, 2, 70, 67
4, 269568, Note_on_c, 2, 79, 67
4, 269632, Note_off_c, 2, 70, 67
4, 269632, Note_off_c, 2, 79, 67
4, 269696, Note_off_c, 2, 70, 67
4, 269696, Note_off_c, 2, 79, 67
4, 269696, Note_on_c, 2, 75, 67
4, 269696, Note_on_c, 2, 82, 67
4, 269760, Note_off_c, 2, 75, 67
4, 269760, Note_off_c, 2, 82, 67
4, 269824, Note_off_c, 2, 75, 67
4, 269824, Note_off_c, 2, 82, 67
4, 269824, Note_on_c, 2, 84, 67
4, 269824, Note_on_c, 2, 87, 67
4, 269888, Note_off_c, 2, 84, 67
4, 269888, Note_off_c, 2, 87, 67
4, 269952, Note_off_c, 2, 84, 67
4, 269952, Note_off_c, 2, 87, 67
4, 269952, Note_on_c, 2, 82, 67
4, 269952, Note_on_c, 2, 86, 67
4, 270016, Note_off_c, 2, 82, 67
4, 270016, Note_off_c, 2, 86, 67
4, 270080, Note_off_c, 2, 82, 67
4, 270080, Note_off_c, 2, 86, 67
4, 270080, Note_on_c, 2, 80, 67
4, 270080, Note_on_c, 2, 84, 67
4, 270144, Note_off_c, 2, 80, 67
4, 270144, Note_off_c, 2, 84, 67
4, 270208, Note_off_c, 2, 80, 67
4, 270208, Note_off_c, 2, 84, 67
4, 270208, Note_on_c, 2, 70, 67
4, 270208, Note_on_c, 2, 74, 67
4, 270240, Note_off_c, 2, 70, 67
4, 270240, Note_off_c, 2, 74, 67
4, 270272, Note_off_c, 2, 70, 67
4, 270272, Note_off_c, 2, 74, 67
4, 270272, Note_on_c, 2, 77, 67
4, 270272, Note_on_c, 2, 80, 67
4, 270304, Note_off_c, 2, 77, 67
4, 270304, Note_off_c, 2, 80, 67
4, 270336, Note_off_c, 2, 77, 67
4, 270336, Note_off_c, 2, 80, 67
4, 270336, Note_on_c, 2, 77, 67
4, 270336, Note_on_c, 2, 82, 67
4, 270400, Note_off_c, 2, 77, 67
4, 270400, Note_off_c, 2, 82, 67
4, 270464, Note_off_c, 2, 77, 67
4, 270464, Note_off_c, 2, 82, 67
4, 270464, Note_on_c, 2, 80, 67
4, 270464, Note_on_c, 2, 87, 67
4, 270528, Note_off_c, 2, 80, 67
4, 270528, Note_off_c, 2, 87, 67
4, 270592, Note_off_c, 2, 80, 67
4, 270592, Note_off_c, 2, 87, 67
4, 270592, Note_on_c, 2, 82, 67
4, 270592, Note_on_c, 2, 86, 67
4, 270656, Note_off_c, 2, 82, 67
4, 270656, Note_off_c, 2, 86, 67
4, 270720, Note_off_c, 2, 82, 67
4, 270720, Note_off_c, 2, 86, 67
4, 270720, Note_on_c, 2, 80, 67
4, 270720, Note_on_c, 2, 89, 67
4, 270784, Note_off_c, 2, 80, 67
4, 270784, Note_off_c, 2, 89, 67
4, 270848, Note_off_c, 2, 80, 67
4, 270848, Note_off_c, 2, 89, 67
4, 270848, Note_on_c, 2, 79, 67
4, 270848, Note_on_c, 2, 87, 67
4, 270912, Note_off_c, 2, 79, 67
4, 270912, Note_off_c, 2, 87, 67
4, 270976, Note_off_c, 2, 79, 67
4, 270976, Note_off_c, 2, 87, 67
4, 270976, Note_on_c, 2, 70, 67
4, 270976, Note_on_c, 2, 82, 67
4, 271040, Note_off_c, 2, 70, 67
4, 271040, Note_off_c, 2, 82, 67
4, 271104, Note_off_c, 2, 70, 67
4, 271104, Note_off_c, 2, 82, 67
4, 271104, Note_on_c, 2, 70, 67
4, 271104, Note_on_c, 2, 82, 67
4, 271168, Note_off_c, 2, 70, 67
4, 271168, Note_off_c, 2, 82, 67
4, 271232, Note_off_c, 2, 70, 67
4, 271232, Note_off_c, 2, 82, 67
4, 271232, Note_on_c, 2, 75, 67
4, 271296, Note_off_c, 2, 75, 67
4, 271296, Note_on_c, 2, 77, 67
4, 271360, Note_off_c, 2, 77, 67
4, 271360, Note_on_c, 2, 79, 67
4, 271424, Note_off_c, 2, 79, 67
4, 271488, Note_off_c, 2, 79, 67
4, 271488, Note_on_c, 2, 75, 67
4, 271488, Note_on_c, 2, 79, 67
4, 271552, Note_off_c, 2, 75, 67
4, 271552, Note_off_c, 2, 79, 67
4, 271616, Note_off_c, 2, 75, 67
4, 271616, Note_off_c, 2, 79, 67
4, 271616, Note_on_c, 2, 75, 67
4, 271616, Note_on_c, 2, 79, 67
4, 271680, Note_off_c, 2, 75, 67
4, 271680, Note_off_c, 2, 79, 67
4, 271744, Note_off_c, 2, 75, 67
4, 271744, Note_off_c, 2, 79, 67
4, 271744, Note_on_c, 2, 75, 67
4, 271808, Note_off_c, 2, 75, 67
4, 271808, Note_on_c, 2, 77, 67
4, 271872, Note_off_c, 2, 77, 67
4, 271872, Note_on_c, 2, 79, 67
4, 271936, Note_off_c, 2, 79, 67
4, 272000, Note_off_c, 2, 79, 67
4, 272000, Note_on_c, 2, 75, 67
4, 272000, Note_on_c, 2, 79, 67
4, 272064, Note_off_c, 2, 75, 67
4, 272064, Note_off_c, 2, 79, 67
4, 272128, Note_off_c, 2, 75, 67
4, 272128, Note_off_c, 2, 79, 67
4, 272128, Note_on_c, 2, 75, 67
4, 272128, Note_on_c, 2, 79, 67
4, 272192, Note_off_c, 2, 75, 67
4, 272192, Note_off_c, 2, 79, 67
4, 272256, Note_off_c, 2, 75, 67
4, 272256, Note_off_c, 2, 79, 67
4, 272256, Note_on_c, 2, 75, 67
4, 272320, Note_off_c, 2, 75, 67
4, 272320, Note_on_c, 2, 77, 67
4, 272384, Note_off_c, 2, 77, 67
4, 272384, Note_on_c, 2, 79, 67
4, 272448, Note_off_c, 2, 79, 67
4, 272512, Note_off_c, 2, 79, 67
4, 272512, Note_on_c, 2, 75, 67
4, 272512, Note_on_c, 2, 79, 67
4, 272576, Note_off_c, 2, 75, 67
4, 272576, Note_off_c, 2, 79, 67
4, 272640, Note_off_c, 2, 75, 67
4, 272640, Note_off_c, 2, 79, 67
4, 272640, Note_on_c, 2, 75, 67
4, 272640, Note_on_c, 2, 80, 67
4, 272672, Note_off_c, 2, 75, 67
4, 272672, Note_off_c, 2, 80, 67
4, 272704, Note_off_c, 2, 75, 67
4, 272704, Note_off_c, 2, 80, 67
4, 272704, Note_on_c, 2, 74, 67
4, 272736, Note_off_c, 2, 74, 67
4, 272768, Note_off_c, 2, 74, 67
4, 272768, Note_on_c, 2, 72, 67
4, 272800, Note_off_c, 2, 72, 67
4, 272832, Note_off_c, 2, 72, 67
4, 272832, Note_on_c, 2, 74, 67
4, 272832, Note_on_c, 2, 79, 67
4, 272864, Note_off_c, 2, 74, 67
4, 272864, Note_off_c, 2, 79, 67
4, 272896, Note_off_c, 2, 74, 67
4, 272896, Note_off_c, 2, 79, 67
4, 272896, Note_on_c, 2, 70, 67
4, 272896, Note_on_c, 2, 77, 67
4, 272960, Note_off_c, 2, 70, 67
4, 272960, Note_off_c, 2, 77, 67
4, 273024, Note_off_c, 2, 70, 67
4, 273024, Note_off_c, 2, 77, 67
4, 273024, Note_on_c, 2, 68, 67
4, 273024, Note_on_c, 2, 70, 67
4, 273088, Note_off_c, 2, 68, 67
4, 273088, Note_off_c, 2, 70, 67
4, 273152, Note_off_c, 2, 68, 67
4, 273152, Note_off_c, 2, 70, 67
4, 273152, Note_on_c, 2, 68, 67
4, 273152, Note_on_c, 2, 70, 67
4, 273216, Note_off_c, 2, 68, 67
4, 273216, Note_off_c, 2, 70, 67
4, 273280, Note_off_c, 2, 68, 67
4, 273280, Note_off_c, 2, 70, 67
4, 273280, Note_on_c, 2, 74, 67
4, 273344, Note_off_c, 2, 74, 67
4, 273344, Note_on_c, 2, 75, 67
4, 273408, Note_off_c, 2, 75, 67
4, 273408, Note_on_c, 2, 77, 67
4, 273472, Note_off_c, 2, 77, 67
4, 273536, Note_off_c, 2, 77, 67
4, 273536, Note_on_c, 2, 74, 67
4, 273536, Note_on_c, 2, 77, 67
4, 273600, Note_off_c, 2, 74, 67
4, 273600, Note_off_c, 2, 77, 67
4, 273664, Note_off_c, 2, 74, 67
4, 273664, Note_off_c, 2, 77, 67
4, 273664, Note_on_c, 2, 74, 67
4, 273664, Note_on_c, 2, 77, 67
4, 273728, Note_off_c, 2, 74, 67
4, 273728, Note_off_c, 2, 77, 67
4, 273792, Note_off_c, 2, 74, 67
4, 273792, Note_off_c, 2, 77, 67
4, 273792, Note_on_c, 2, 74, 67
4, 273856, Note_off_c, 2, 74, 67
4, 273856, Note_on_c, 2, 75, 67
4, 273920, Note_off_c, 2, 75, 67
4, 273920, Note_on_c, 2, 77, 67
4, 273984, Note_off_c, 2, 77, 67
4, 274048, Note_off_c, 2, 77, 67
4, 274048, Note_on_c, 2, 74, 67
4, 274048, Note_on_c, 2, 77, 67
4, 274112, Note_off_c, 2, 74, 67
4, 274112, Note_off_c, 2, 77, 67
4, 274176, Note_off_c, 2, 74, 67
4, 274176, Note_off_c, 2, 77, 67
4, 274176, Note_on_c, 2, 74, 67
4, 274176, Note_on_c, 2, 77, 67
4, 274240, Note_off_c, 2, 74, 67
4, 274240, Note_off_c, 2, 77, 67
4, 274304, Note_off_c, 2, 74, 67
4, 274304, Note_off_c, 2, 77, 67
4, 274304, Note_on_c, 2, 74, 67
4, 274368, Note_off_c, 2, 74, 67
4, 274368, Note_on_c, 2, 75, 67
4, 274432, Note_off_c, 2, 75, 67
4, 274432, Note_on_c, 2, 70, 67
4, 274432, Note_on_c, 2, 77, 67
4, 274496, Note_off_c, 2, 70, 67
4, 274496, Note_off_c, 2, 77, 67
4, 274560, Note_off_c, 2, 70, 67
4, 274560, Note_off_c, 2, 77, 67
4, 274560, Note_on_c, 2, 74, 67
4, 274560, Note_on_c, 2, 77, 67
4, 274624, Note_off_c, 2, 74, 67
4, 274624, Note_off_c, 2, 77, 67
4, 274688, Note_off_c, 2, 74, 67
4, 274688, Note_off_c, 2, 77, 67
4, 274688, Note_on_c, 2, 74, 67
4, 274688, Note_on_c, 2, 79, 67
4, 274720, Note_off_c, 2, 74, 67
4, 274720, Note_off_c, 2, 79, 67
4, 274752, Note_off_c, 2, 74, 67
4, 274752, Note_off_c, 2, 79, 67
4, 274752, Note_on_c, 2, 72, 67
4, 274752, Note_on_c, 2, 77, 67
4, 274784, Note_off_c, 2, 72, 67
4, 274784, Note_off_c, 2, 77, 67
4, 274816, Note_off_c, 2, 72, 67
4, 274816, Note_off_c, 2, 77, 67
4, 274816, Note_on_c, 2, 70, 67
4, 274816, Note_on_c, 2, 77, 67
4, 274848, Note_off_c, 2, 70, 67
4, 274848, Note_off_c, 2, 77, 67
4, 274880, Note_off_c, 2, 70, 67
4, 274880, Note_off_c, 2, 77, 67
4, 274880, Note_on_c, 2, 68, 67
4, 274880, Note_on_c, 2, 79, 67
4, 274912, Note_off_c, 2, 68, 67
4, 274912, Note_off_c, 2, 79, 67
4, 274944, Note_off_c, 2, 68, 67
4, 274944, Note_off_c, 2, 79, 67
4, 274944, Note_on_c, 2, 67, 67
4, 274944, Note_on_c, 2, 75, 67
4, 275008, Note_off_c, 2, 67, 67
4, 275008, Note_off_c, 2, 75, 67
4, 275072, Note_off_c, 2, 67, 67
4, 275072, Note_off_c, 2, 75, 67
4, 275072, Note_on_c, 2, 70, 67
4, 275136, Note_off_c, 2, 70, 67
4, 275200, Note_off_c, 2, 70, 67
4, 275200, Note_on_c, 2, 70, 67
4, 275200, Note_on_c, 2, 79, 67
4, 275264, Note_off_c, 2, 70, 67
4, 275264, Note_off_c, 2, 79, 67
4, 275328, Note_off_c, 2, 70, 67
4, 275328, Note_off_c, 2, 79, 67
4, 275328, Note_on_c, 2, 75, 67
4, 275392, Note_off_c, 2, 75, 67
4, 275392, Note_on_c, 2, 77, 67
4, 275456, Note_off_c, 2, 77, 67
4, 275456, Note_on_c, 2, 79, 67
4, 275520, Note_off_c, 2, 79, 67
4, 275584, Note_off_c, 2, 79, 67
4, 275584, Note_on_c, 2, 75, 67
4, 275584, Note_on_c, 2, 79, 67
4, 275648, Note_off_c, 2, 75, 67
4, 275648, Note_off_c, 2, 79, 67
4, 275712, Note_off_c, 2, 75, 67
4, 275712, Note_off_c, 2, 79, 67
4, 275712, Note_on_c, 2, 75, 67
4, 275712, Note_on_c, 2, 79, 67
4, 275776, Note_off_c, 2, 75, 67
4, 275776, Note_off_c, 2, 79, 67
4, 275840, Note_off_c, 2, 75, 67
4, 275840, Note_off_c, 2, 79, 67
4, 275840, Note_on_c, 2, 75, 67
4, 275904, Note_off_c, 2, 75, 67
4, 275904, Note_on_c, 2, 77, 67
4, 275968, Note_off_c, 2, 77, 67
4, 275968, Note_on_c, 2, 79, 67
4, 276032, Note_off_c, 2, 79, 67
4, 276096, Note_off_c, 2, 79, 67
4, 276096, Note_on_c, 2, 75, 67
4, 276096, Note_on_c, 2, 79, 67
4, 276160, Note_off_c, 2, 75, 67
4, 276160, Note_off_c, 2, 79, 67
4, 276224, Note_off_c, 2, 75, 67
4, 276224, Note_off_c, 2, 79, 67
4, 276224, Note_on_c, 2, 75, 67
4, 276224, Note_on_c, 2, 79, 67
4, 276288, Note_off_c, 2, 75, 67
4, 276288, Note_off_c, 2, 79, 67
4, 276352, Note_off_c, 2, 75, 67
4, 276352, Note_off_c, 2, 79, 67
4, 276352, Note_on_c, 2, 75, 67
4, 276416, Note_off_c, 2, 75, 67
4, 276416, Note_on_c, 2, 77, 67
4, 276480, Note_off_c, 2, 77, 67
4, 276480, Note_on_c, 2, 79, 67
4, 276544, Note_off_c, 2, 79, 67
4, 276608, Note_off_c, 2, 79, 67
4, 276608, Note_on_c, 2, 75, 67
4, 276608, Note_on_c, 2, 79, 67
4, 276672, Note_off_c, 2, 75, 67
4, 276672, Note_off_c, 2, 79, 67
4, 276736, Note_off_c, 2, 75, 67
4, 276736, Note_off_c, 2, 79, 67
4, 276736, Note_on_c, 2, 75, 67
4, 276736, Note_on_c, 2, 80, 67
4, 276768, Note_off_c, 2, 75, 67
4, 276768, Note_off_c, 2, 80, 67
4, 276800, Note_off_c, 2, 75, 67
4, 276800, Note_off_c, 2, 80, 67
4, 276800, Note_on_c, 2, 74, 67
4, 276864, Note_off_c, 2, 74, 67
4, 276864, Note_on_c, 2, 72, 67
4, 276928, Note_off_c, 2, 72, 67
4, 276928, Note_on_c, 2, 74, 67
4, 276928, Note_on_c, 2, 79, 67
4, 276960, Note_off_c, 2, 74, 67
4, 276960, Note_off_c, 2, 79, 67
4, 276992, Note_off_c, 2, 74, 67
4, 276992, Note_off_c, 2, 79, 67
4, 276992, Note_on_c, 2, 70, 67
4, 276992, Note_on_c, 2, 77, 67
4, 277056, Note_off_c, 2, 70, 67
4, 277056, Note_off_c, 2, 77, 67
4, 277120, Note_off_c, 2, 70, 67
4, 277120, Note_off_c, 2, 77, 67
4, 277120, Note_on_c, 2, 68, 67
4, 277120, Note_on_c, 2, 70, 67
4, 277184, Note_off_c, 2, 68, 67
4, 277184, Note_off_c, 2, 70, 67
4, 277248, Note_off_c, 2, 68, 67
4, 277248, Note_off_c, 2, 70, 67
4, 277248, Note_on_c, 2, 68, 67
4, 277248, Note_on_c, 2, 70, 67
4, 277312, Note_off_c, 2, 68, 67
4, 277312, Note_off_c, 2, 70, 67
4, 277376, Note_off_c, 2, 68, 67
4, 277376, Note_off_c, 2, 70, 67
4, 277376, Note_on_c, 2, 74, 67
4, 277440, Note_off_c, 2, 74, 67
4, 277440, Note_on_c, 2, 75, 67
4, 277504, Note_off_c, 2, 75, 67
4, 277504, Note_on_c, 2, 77, 67
4, 277632, Note_off_c, 2, 77, 67
4, 277632, Note_on_c, 2, 74, 67
4, 277632, Note_on_c, 2, 80, 67
4, 277696, Note_off_c, 2, 74, 67
4, 277696, Note_off_c, 2, 80, 67
4, 277760, Note_off_c, 2, 74, 67
4, 277760, Note_off_c, 2, 80, 67
4, 277760, Note_on_c, 2, 74, 67
4, 277760, Note_on_c, 2, 79, 67
4, 277824, Note_off_c, 2, 74, 67
4, 277824, Note_off_c, 2, 79, 67
4, 277888, Note_off_c, 2, 74, 67
4, 277888, Note_off_c, 2, 79, 67
4, 277888, Note_on_c, 2, 77, 67
4, 277952, Note_off_c, 2, 77, 67
4, 278016, Note_off_c, 2, 77, 67
4, 278016, Note_on_c, 2, 75, 67
4, 278080, Note_off_c, 2, 75, 67
4, 278144, Note_off_c, 2, 75, 67
4, 278144, Note_on_c, 2, 70, 67
4, 278144, Note_on_c, 2, 74, 67
4, 278208, Note_off_c, 2, 70, 67
4, 278208, Note_off_c, 2, 74, 67
4, 278272, Note_off_c, 2, 70, 67
4, 278272, Note_off_c, 2, 74, 67
4, 278272, Note_on_c, 2, 72, 67
4, 278272, Note_on_c, 2, 74, 67
4, 278336, Note_off_c, 2, 72, 67
4, 278336, Note_off_c, 2, 74, 67
4, 278400, Note_off_c, 2, 72, 67
4, 278400, Note_off_c, 2, 74, 67
4, 278400, Note_on_c, 2, 70, 67
4, 278400, Note_on_c, 2, 74, 67
4, 278464, Note_off_c, 2, 70, 67
4, 278464, Note_off_c, 2, 74, 67
4, 278528, Note_off_c, 2, 70, 67
4, 278528, Note_off_c, 2, 74, 67
4, 278528, Note_on_c, 2, 80, 67
4, 278528, Note_on_c, 2, 84, 67
4, 278784, Note_off_c, 2, 80, 67
4, 278784, Note_off_c, 2, 84, 67
4, 278784, Note_on_c, 2, 70, 67
4, 278784, Note_on_c, 2, 74, 67
4, 278800, Note_off_c, 2, 70, 67
4, 278800, Note_off_c, 2, 74, 67
4, 278816, Note_off_c, 2, 70, 67
4, 278816, Note_off_c, 2, 74, 67
4, 278816, Note_on_c, 2, 72, 67
4, 278816, Note_on_c, 2, 75, 67
4, 278832, Note_off_c, 2, 72, 67
4, 278832, Note_off_c, 2, 75, 67
4, 278848, Note_off_c, 2, 72, 67
4, 278848, Note_off_c, 2, 75, 67
4, 278848, Note_on_c, 2, 70, 67
4, 278848, Note_on_c, 2, 74, 67
4, 278880, Note_off_c, 2, 70, 67
4, 278880, Note_off_c, 2, 74, 67
4, 278912, Note_off_c, 2, 70, 67
4, 278912, Note_off_c, 2, 74, 67
4, 278912, Note_on_c, 2, 68, 67
4, 278912, Note_on_c, 2, 72, 67
4, 278944, Note_off_c, 2, 68, 67
4, 278944, Note_off_c, 2, 72, 67
4, 278976, Note_off_c, 2, 68, 67
4, 278976, Note_off_c, 2, 72, 67
4, 278976, Note_on_c, 2, 74, 67
4, 278976, Note_on_c, 2, 77, 67
4, 279008, Note_off_c, 2, 74, 67
4, 279008, Note_off_c, 2, 77, 67
4, 279040, Note_off_c, 2, 74, 67
4, 279040, Note_off_c, 2, 77, 67
4, 279040, Note_on_c, 2, 75, 67
4, 279040, Note_on_c, 2, 79, 67
4, 279168, Note_off_c, 2, 75, 67
4, 279168, Note_off_c, 2, 79, 67
4, 279168, Note_on_c, 2, 70, 67
4, 279232, Note_off_c, 2, 70, 67
4, 279296, Note_off_c, 2, 70, 67
4, 279296, Note_on_c, 2, 70, 67
4, 279360, Note_off_c, 2, 70, 67
4, 279424, Note_off_c, 2, 70, 67
4, 279424, Note_on_c, 2, 75, 67
4, 279424, Note_on_c, 2, 79, 67
4, 279488, Note_off_c, 2, 75, 67
4, 279488, Note_off_c, 2, 79, 67
4, 279488, Note_on_c, 2, 77, 67
4, 279488, Note_on_c, 2, 80, 67
4, 279552, Note_off_c, 2, 77, 67
4, 279552, Note_off_c, 2, 80, 67
4, 279552, Note_on_c, 2, 79, 67
4, 279552, Note_on_c, 2, 82, 67
4, 279616, Note_off_c, 2, 79, 67
4, 279616, Note_off_c, 2, 82, 67
4, 279680, Note_off_c, 2, 79, 67
4, 279680, Note_off_c, 2, 82, 67
4, 279680, Note_on_c, 2, 79, 67
4, 279680, Note_on_c, 2, 82, 67
4, 279744, Note_off_c, 2, 79, 67
4, 279744, Note_off_c, 2, 82, 67
4, 279808, Note_off_c, 2, 79, 67
4, 279808, Note_off_c, 2, 82, 67
4, 279808, Note_on_c, 2, 70, 67
4, 279808, Note_on_c, 2, 79, 67
4, 279872, Note_off_c, 2, 70, 67
4, 279872, Note_off_c, 2, 79, 67
4, 279936, Note_off_c, 2, 70, 67
4, 279936, Note_off_c, 2, 79, 67
4, 279936, Note_on_c, 2, 70, 67
4, 279936, Note_on_c, 2, 75, 67
4, 280000, Note_off_c, 2, 70, 67
4, 280000, Note_off_c, 2, 75, 67
4, 280064, Note_off_c, 2, 70, 67
4, 280064, Note_off_c, 2, 75, 67
4, 280064, Note_on_c, 2, 84, 67
4, 280064, Note_on_c, 2, 87, 67
4, 280128, Note_off_c, 2, 84, 67
4, 280128, Note_off_c, 2, 87, 67
4, 280192, Note_off_c, 2, 84, 67
4, 280192, Note_off_c, 2, 87, 67
4, 280192, Note_on_c, 2, 82, 67
4, 280192, Note_on_c, 2, 86, 67
4, 280256, Note_off_c, 2, 82, 67
4, 280256, Note_off_c, 2, 86, 67
4, 280320, Note_off_c, 2, 82, 67
4, 280320, Note_off_c, 2, 86, 67
4, 280320, Note_on_c, 2, 80, 67
4, 280320, Note_on_c, 2, 84, 67
4, 280384, Note_off_c, 2, 80, 67
4, 280384, Note_off_c, 2, 84, 67
4, 280448, Note_off_c, 2, 80, 67
4, 280448, Note_off_c, 2, 84, 67
4, 280448, Note_on_c, 2, 79, 67
4, 280448, Note_on_c, 2, 87, 67
4, 280512, Note_off_c, 2, 79, 67
4, 280512, Note_off_c, 2, 87, 67
4, 280576, Note_off_c, 2, 79, 67
4, 280576, Note_off_c, 2, 87, 67
4, 280576, Note_on_c, 2, 75, 67
4, 280576, Note_on_c, 2, 82, 67
4, 280640, Note_off_c, 2, 75, 67
4, 280640, Note_off_c, 2, 82, 67
4, 280704, Note_off_c, 2, 75, 67
4, 280704, Note_off_c, 2, 82, 67
4, 280704, Note_on_c, 2, 79, 67
4, 280768, Note_off_c, 2, 79, 67
4, 280832, Note_off_c, 2, 79, 67
4, 280832, Note_on_c, 2, 67, 67
4, 280832, Note_on_c, 2, 75, 67
4, 280896, Note_off_c, 2, 67, 67
4, 280896, Note_off_c, 2, 75, 67
4, 280960, Note_off_c, 2, 67, 67
4, 280960, Note_off_c, 2, 75, 67
4, 280960, Note_on_c, 2, 68, 67
4, 280960, Note_on_c, 2, 74, 67
4, 280992, Note_off_c, 2, 68, 67
4, 280992, Note_off_c, 2, 74, 67
4, 281024, Note_off_c, 2, 68, 67
4, 281024, Note_off_c, 2, 74, 67
4, 281024, Note_on_c, 2, 74, 67
4, 281024, Note_on_c, 2, 79, 67
4, 281056, Note_off_c, 2, 74, 67
4, 281056, Note_off_c, 2, 79, 67
4, 281088, Note_off_c, 2, 74, 67
4, 281088, Note_off_c, 2, 79, 67
4, 281088, Note_on_c, 2, 70, 67
4, 281088, Note_on_c, 2, 77, 67
4, 281152, Note_off_c, 2, 70, 67
4, 281152, Note_off_c, 2, 77, 67
4, 281216, Note_off_c, 2, 70, 67
4, 281216, Note_off_c, 2, 77, 67
4, 281216, Note_on_c, 2, 65, 67
4, 281216, Note_on_c, 2, 70, 67
4, 281280, Note_off_c, 2, 65, 67
4, 281280, Note_off_c, 2, 70, 67
4, 281344, Note_off_c, 2, 65, 67
4, 281344, Note_off_c, 2, 70, 67
4, 281344, Note_on_c, 2, 68, 67
4, 281344, Note_on_c, 2, 70, 67
4, 281408, Note_off_c, 2, 68, 67
4, 281408, Note_off_c, 2, 70, 67
4, 281472, Note_off_c, 2, 68, 67
4, 281472, Note_off_c, 2, 70, 67
4, 281472, Note_on_c, 2, 70, 67
4, 281472, Note_on_c, 2, 79, 67
4, 281536, Note_off_c, 2, 70, 67
4, 281536, Note_off_c, 2, 79, 67
4, 281536, Note_on_c, 2, 77, 67
4, 281536, Note_on_c, 2, 80, 67
4, 281600, Note_off_c, 2, 77, 67
4, 281600, Note_off_c, 2, 80, 67
4, 281600, Note_on_c, 2, 79, 67
4, 281600, Note_on_c, 2, 82, 67
4, 281664, Note_off_c, 2, 79, 67
4, 281664, Note_off_c, 2, 82, 67
4, 281728, Note_off_c, 2, 79, 67
4, 281728, Note_off_c, 2, 82, 67
4, 281728, Note_on_c, 2, 79, 67
4, 281728, Note_on_c, 2, 82, 67
4, 281792, Note_off_c, 2, 79, 67
4, 281792, Note_off_c, 2, 82, 67
4, 281856, Note_off_c, 2, 79, 67
4, 281856, Note_off_c, 2, 82, 67
4, 281856, Note_on_c, 2, 70, 67
4, 281856, Note_on_c, 2, 79, 67
4, 281920, Note_off_c, 2, 70, 67
4, 281920, Note_off_c, 2, 79, 67
4, 281984, Note_off_c, 2, 70, 67
4, 281984, Note_off_c, 2, 79, 67
4, 281984, Note_on_c, 2, 75, 67
4, 281984, Note_on_c, 2, 82, 67
4, 282048, Note_off_c, 2, 75, 67
4, 282048, Note_off_c, 2, 82, 67
4, 282112, Note_off_c, 2, 75, 67
4, 282112, Note_off_c, 2, 82, 67
4, 282112, Note_on_c, 2, 84, 67
4, 282112, Note_on_c, 2, 87, 67
4, 282176, Note_off_c, 2, 84, 67
4, 282176, Note_off_c, 2, 87, 67
4, 282240, Note_off_c, 2, 84, 67
4, 282240, Note_off_c, 2, 87, 67
4, 282240, Note_on_c, 2, 82, 67
4, 282240, Note_on_c, 2, 86, 67
4, 282304, Note_off_c, 2, 82, 67
4, 282304, Note_off_c, 2, 86, 67
4, 282368, Note_off_c, 2, 82, 67
4, 282368, Note_off_c, 2, 86, 67
4, 282368, Note_on_c, 2, 80, 67
4, 282368, Note_on_c, 2, 84, 67
4, 282432, Note_off_c, 2, 80, 67
4, 282432, Note_off_c, 2, 84, 67
4, 282496, Note_off_c, 2, 80, 67
4, 282496, Note_off_c, 2, 84, 67
4, 282496, Note_on_c, 2, 70, 67
4, 282496, Note_on_c, 2, 74, 67
4, 282528, Note_off_c, 2, 70, 67
4, 282528, Note_off_c, 2, 74, 67
4, 282560, Note_off_c, 2, 70, 67
4, 282560, Note_off_c, 2, 74, 67
4, 282560, Note_on_c, 2, 77, 67
4, 282560, Note_on_c, 2, 80, 67
4, 282592, Note_off_c, 2, 77, 67
4, 282592, Note_off_c, 2, 80, 67
4, 282624, Note_off_c, 2, 77, 67
4, 282624, Note_off_c, 2, 80, 67
4, 282624, Note_on_c, 2, 77, 67
4, 282624, Note_on_c, 2, 82, 67
4, 282688, Note_off_c, 2, 77, 67
4, 282688, Note_off_c, 2, 82, 67
4, 282752, Note_off_c, 2, 77, 67
4, 282752, Note_off_c, 2, 82, 67
4, 282752, Note_on_c, 2, 80, 67
4, 282752, Note_on_c, 2, 87, 67
4, 282816, Note_off_c, 2, 80, 67
4, 282816, Note_off_c, 2, 87, 67
4, 282880, Note_off_c, 2, 80, 67
4, 282880, Note_off_c, 2, 87, 67
4, 282880, Note_on_c, 2, 82, 67
4, 282880, Note_on_c, 2, 86, 67
4, 282944, Note_off_c, 2, 82, 67
4, 282944, Note_off_c, 2, 86, 67
4, 283008, Note_off_c, 2, 82, 67
4, 283008, Note_off_c, 2, 86, 67
4, 283008, Note_on_c, 2, 80, 67
4, 283008, Note_on_c, 2, 89, 67
4, 283072, Note_off_c, 2, 80, 67
4, 283072, Note_off_c, 2, 89, 67
4, 283136, Note_off_c, 2, 80, 67
4, 283136, Note_off_c, 2, 89, 67
4, 283136, Note_on_c, 2, 79, 67
4, 283136, Note_on_c, 2, 87, 67
4, 283200, Note_off_c, 2, 79, 67
4, 283200, Note_off_c, 2, 87, 67
4, 283264, Note_off_c, 2, 79, 67
4, 283264, Note_off_c, 2, 87, 67
4, 283264, Note_on_c, 2, 70, 67
4, 283264, Note_on_c, 2, 82, 67
4, 283328, Note_off_c, 2, 70, 67
4, 283328, Note_off_c, 2, 82, 67
4, 283392, Note_off_c, 2, 70, 67
4, 283392, Note_off_c, 2, 82, 67
4, 283392, Note_on_c, 2, 70, 67
4, 283392, Note_on_c, 2, 82, 67
4, 283456, Note_off_c, 2, 70, 67
4, 283456, Note_off_c, 2, 82, 67
4, 283520, Note_off_c, 2, 70, 67
4, 283520, Note_off_c, 2, 82, 67
4, 283520, Note_on_c, 2, 75, 67
4, 283584, Note_off_c, 2, 75, 67
4, 283584, Note_on_c, 2, 77, 67
4, 283648, Note_off_c, 2, 77, 67
4, 283648, Note_on_c, 2, 79, 67
4, 283712, Note_off_c, 2, 79, 67
4, 283776, Note_off_c, 2, 79, 67
4, 283776, Note_on_c, 2, 75, 67
4, 283776, Note_on_c, 2, 79, 67
4, 283840, Note_off_c, 2, 75, 67
4, 283840, Note_off_c, 2, 79, 67
4, 283904, Note_off_c, 2, 75, 67
4, 283904, Note_off_c, 2, 79, 67
4, 283904, Note_on_c, 2, 75, 67
4, 283904, Note_on_c, 2, 79, 67
4, 283968, Note_off_c, 2, 75, 67
4, 283968, Note_off_c, 2, 79, 67
4, 284032, Note_off_c, 2, 75, 67
4, 284032, Note_off_c, 2, 79, 67
4, 284032, Note_on_c, 2, 75, 67
4, 284096, Note_off_c, 2, 75, 67
4, 284096, Note_on_c, 2, 77, 67
4, 284160, Note_off_c, 2, 77, 67
4, 284160, Note_on_c, 2, 79, 67
4, 284224, Note_off_c, 2, 79, 67
4, 284288, Note_off_c, 2, 79, 67
4, 284288, Note_on_c, 2, 75, 67
4, 284288, Note_on_c, 2, 79, 67
4, 284352, Note_off_c, 2, 75, 67
4, 284352, Note_off_c, 2, 79, 67
4, 284416, Note_off_c, 2, 75, 67
4, 284416, Note_off_c, 2, 79, 67
4, 284416, Note_on_c, 2, 75, 67
4, 284416, Note_on_c, 2, 79, 67
4, 284480, Note_off_c, 2, 75, 67
4, 284480, Note_off_c, 2, 79, 67
4, 284544, Note_off_c, 2, 75, 67
4, 284544, Note_off_c, 2, 79, 67
4, 284544, Note_on_c, 2, 75, 67
4, 284608, Note_off_c, 2, 75, 67
4, 284608, Note_on_c, 2, 77, 67
4, 284672, Note_off_c, 2, 77, 67
4, 284672, Note_on_c, 2, 79, 67
4, 284736, Note_off_c, 2, 79, 67
4, 284800, Note_off_c, 2, 79, 67
4, 284800, Note_on_c, 2, 75, 67
4, 284800, Note_on_c, 2, 79, 67
4, 284864, Note_off_c, 2, 75, 67
4, 284864, Note_off_c, 2, 79, 67
4, 284928, Note_off_c, 2, 75, 67
4, 284928, Note_off_c, 2, 79, 67
4, 284928, Note_on_c, 2, 75, 67
4, 284928, Note_on_c, 2, 80, 67
4, 284960, Note_off_c, 2, 75, 67
4, 284960, Note_off_c, 2, 80, 67
4, 284992, Note_off_c, 2, 75, 67
4, 284992, Note_off_c, 2, 80, 67
4, 284992, Note_on_c, 2, 74, 67
4, 285024, Note_off_c, 2, 74, 67
4, 285056, Note_off_c, 2, 74, 67
4, 285056, Note_on_c, 2, 72, 67
4, 285088, Note_off_c, 2, 72, 67
4, 285120, Note_off_c, 2, 72, 67
4, 285120, Note_on_c, 2, 74, 67
4, 285120, Note_on_c, 2, 79, 67
4, 285152, Note_off_c, 2, 74, 67
4, 285152, Note_off_c, 2, 79, 67
4, 285184, Note_off_c, 2, 74, 67
4, 285184, Note_off_c, 2, 79, 67
4, 285184, Note_on_c, 2, 70, 67
4, 285184, Note_on_c, 2, 77, 67
4, 285248, Note_off_c, 2, 70, 67
4, 285248, Note_off_c, 2, 77, 67
4, 285312, Note_off_c, 2, 70, 67
4, 285312, Note_off_c, 2, 77, 67
4, 285312, Note_on_c, 2, 68, 67
4, 285312, Note_on_c, 2, 70, 67
4, 285376, Note_off_c, 2, 68, 67
4, 285376, Note_off_c, 2, 70, 67
4, 285440, Note_off_c, 2, 68, 67
4, 285440, Note_off_c, 2, 70, 67
4, 285440, Note_on_c, 2, 68, 67
4, 285440, Note_on_c, 2, 70, 67
4, 285504, Note_off_c, 2, 68, 67
4, 285504, Note_off_c, 2, 70, 67
4, 285568, Note_off_c, 2, 68, 67
4, 285568, Note_off_c, 2, 70, 67
4, 285568, Note_on_c, 2, 74, 67
4, 285632, Note_off_c, 2, 74, 67
4, 285632, Note_on_c, 2, 75, 67
4, 285696, Note_off_c, 2, 75, 67
4, 285696, Note_on_c, 2, 77, 67
4, 285760, Note_off_c, 2, 77, 67
4, 285824, Note_off_c, 2, 77, 67
4, 285824, Note_on_c, 2, 74, 67
4, 285824, Note_on_c, 2, 77, 67
4, 285888, Note_off_c, 2, 74, 67
4, 285888, Note_off_c, 2, 77, 67
4, 285952, Note_off_c, 2, 74, 67
4, 285952, Note_off_c, 2, 77, 67
4, 285952, Note_on_c, 2, 74, 67
4, 285952, Note_on_c, 2, 77, 67
4, 286016, Note_off_c, 2, 74, 67
4, 286016, Note_off_c, 2, 77, 67
4, 286080, Note_off_c, 2, 74, 67
4, 286080, Note_off_c, 2, 77, 67
4, 286080, Note_on_c, 2, 74, 67
4, 286144, Note_off_c, 2, 74, 67
4, 286144, Note_on_c, 2, 75, 67
4, 286208, Note_off_c, 2, 75, 67
4, 286208, Note_on_c, 2, 77, 67
4, 286272, Note_off_c, 2, 77, 67
4, 286336, Note_off_c, 2, 77, 67
4, 286336, Note_on_c, 2, 74, 67
4, 286336, Note_on_c, 2, 77, 67
4, 286400, Note_off_c, 2, 74, 67
4, 286400, Note_off_c, 2, 77, 67
4, 286464, Note_off_c, 2, 74, 67
4, 286464, Note_off_c, 2, 77, 67
4, 286464, Note_on_c, 2, 74, 67
4, 286464, Note_on_c, 2, 77, 67
4, 286528, Note_off_c, 2, 74, 67
4, 286528, Note_off_c, 2, 77, 67
4, 286592, Note_off_c, 2, 74, 67
4, 286592, Note_off_c, 2, 77, 67
4, 286592, Note_on_c, 2, 74, 67
4, 286656, Note_off_c, 2, 74, 67
4, 286656, Note_on_c, 2, 75, 67
4, 286720, Note_off_c, 2, 75, 67
4, 286720, Note_on_c, 2, 70, 67
4, 286720, Note_on_c, 2, 77, 67
4, 286784, Note_off_c, 2, 70, 67
4, 286784, Note_off_c, 2, 77, 67
4, 286848, Note_off_c, 2, 70, 67
4, 286848, Note_off_c, 2, 77, 67
4, 286848, Note_on_c, 2, 74, 67
4, 286848, Note_on_c, 2, 77, 67
4, 286912, Note_off_c, 2, 74, 67
4, 286912, Note_off_c, 2, 77, 67
4, 286976, Note_off_c, 2, 74, 67
4, 286976, Note_off_c, 2, 77, 67
4, 286976, Note_on_c, 2, 74, 67
4, 286976, Note_on_c, 2, 79, 67
4, 287008, Note_off_c, 2, 74, 67
4, 287008, Note_off_c, 2, 79, 67
4, 287040, Note_off_c, 2, 74, 67
4, 287040, Note_off_c, 2, 79, 67
4, 287040, Note_on_c, 2, 72, 67
4, 287040, Note_on_c, 2, 77, 67
4, 287072, Note_off_c, 2, 72, 67
4, 287072, Note_off_c, 2, 77, 67
4, 287104, Note_off_c, 2, 72, 67
4, 287104, Note_off_c, 2, 77, 67
4, 287104, Note_on_c, 2, 70, 67
4, 287104, Note_on_c, 2, 77, 67
4, 287136, Note_off_c, 2, 70, 67
4, 287136, Note_off_c, 2, 77, 67
4, 287168, Note_off_c, 2, 70, 67
4, 287168, Note_off_c, 2, 77, 67
4, 287168, Note_on_c, 2, 68, 67
4, 287168, Note_on_c, 2, 79, 67
4, 287200, Note_off_c, 2, 68, 67
4, 287200, Note_off_c, 2, 79, 67
4, 287232, Note_off_c, 2, 68, 67
4, 287232, Note_off_c, 2, 79, 67
4, 287232, Note_on_c, 2, 67, 67
4, 287232, Note_on_c, 2, 75, 67
4, 287296, Note_off_c, 2, 67, 67
4, 287296, Note_off_c, 2, 75, 67
4, 287360, Note_off_c, 2, 67, 67
4, 287360, Note_off_c, 2, 75, 67
4, 287360, Note_on_c, 2, 70, 67
4, 287424, Note_off_c, 2, 70, 67
4, 287488, Note_off_c, 2, 70, 67
4, 287488, Note_on_c, 2, 70, 67
4, 287488, Note_on_c, 2, 79, 67
4, 287552, Note_off_c, 2, 70, 67
4, 287552, Note_off_c, 2, 79, 67
4, 287616, Note_off_c, 2, 70, 67
4, 287616, Note_off_c, 2, 79, 67
4, 287616, Note_on_c, 2, 75, 67
4, 287680, Note_off_c, 2, 75, 67
4, 287680, Note_on_c, 2, 77, 67
4, 287744, Note_off_c, 2, 77, 67
4, 287744, Note_on_c, 2, 79, 67
4, 287808, Note_off_c, 2, 79, 67
4, 287872, Note_off_c, 2, 79, 67
4, 287872, Note_on_c, 2, 75, 67
4, 287872, Note_on_c, 2, 79, 67
4, 287936, Note_off_c, 2, 75, 67
4, 287936, Note_off_c, 2, 79, 67
4, 288000, Note_off_c, 2, 75, 67
4, 288000, Note_off_c, 2, 79, 67
4, 288000, Note_on_c, 2, 75, 67
4, 288000, Note_on_c, 2, 79, 67
4, 288064, Note_off_c, 2, 75, 67
4, 288064, Note_off_c, 2, 79, 67
4, 288128, Note_off_c, 2, 75, 67
4, 288128, Note_off_c, 2, 79, 67
4, 288128, Note_on_c, 2, 75, 67
4, 288192, Note_off_c, 2, 75, 67
4, 288192, Note_on_c, 2, 77, 67
4, 288256, Note_off_c, 2, 77, 67
4, 288256, Note_on_c, 2, 79, 67
4, 288320, Note_off_c, 2, 79, 67
4, 288384, Note_off_c, 2, 79, 67
4, 288384, Note_on_c, 2, 75, 67
4, 288384, Note_on_c, 2, 79, 67
4, 288448, Note_off_c, 2, 75, 67
4, 288448, Note_off_c, 2, 79, 67
4, 288512, Note_off_c, 2, 75, 67
4, 288512, Note_off_c, 2, 79, 67
4, 288512, Note_on_c, 2, 75, 67
4, 288512, Note_on_c, 2, 79, 67
4, 288576, Note_off_c, 2, 75, 67
4, 288576, Note_off_c, 2, 79, 67
4, 288640, Note_off_c, 2, 75, 67
4, 288640, Note_off_c, 2, 79, 67
4, 288640, Note_on_c, 2, 75, 67
4, 288704, Note_off_c, 2, 75, 67
4, 288704, Note_on_c, 2, 77, 67
4, 288768, Note_off_c, 2, 77, 67
4, 288768, Note_on_c, 2, 79, 67
4, 288832, Note_off_c, 2, 79, 67
4, 288896, Note_off_c, 2, 79, 67
4, 288896, Note_on_c, 2, 75, 67
4, 288896, Note_on_c, 2, 79, 67
4, 288960, Note_off_c, 2, 75, 67
4, 288960, Note_off_c, 2, 79, 67
4, 289024, Note_off_c, 2, 75, 67
4, 289024, Note_off_c, 2, 79, 67
4, 289024, Note_on_c, 2, 75, 67
4, 289024, Note_on_c, 2, 80, 67
4, 289056, Note_off_c, 2, 75, 67
4, 289056, Note_off_c, 2, 80, 67
4, 289088, Note_off_c, 2, 75, 67
4, 289088, Note_off_c, 2, 80, 67
4, 289088, Note_on_c, 2, 74, 67
4, 289152, Note_off_c, 2, 74, 67
4, 289152, Note_on_c, 2, 72, 67
4, 289216, Note_off_c, 2, 72, 67
4, 289216, Note_on_c, 2, 74, 67
4, 289216, Note_on_c, 2, 79, 67
4, 289248, Note_off_c, 2, 74, 67
4, 289248, Note_off_c, 2, 79, 67
4, 289280, Note_off_c, 2, 74, 67
4, 289280, Note_off_c, 2, 79, 67
4, 289280, Note_on_c, 2, 70, 67
4, 289280, Note_on_c, 2, 77, 67
4, 289344, Note_off_c, 2, 70, 67
4, 289344, Note_off_c, 2, 77, 67
4, 289408, Note_off_c, 2, 70, 67
4, 289408, Note_off_c, 2, 77, 67
4, 289408, Note_on_c, 2, 68, 67
4, 289408, Note_on_c, 2, 70, 67
4, 289472, Note_off_c, 2, 68, 67
4, 289472, Note_off_c, 2, 70, 67
4, 289536, Note_off_c, 2, 68, 67
4, 289536, Note_off_c, 2, 70, 67
4, 289536, Note_on_c, 2, 68, 67
4, 289536, Note_on_c, 2, 70, 67
4, 289600, Note_off_c, 2, 68, 67
4, 289600, Note_off_c, 2, 70, 67
4, 289664, Note_off_c, 2, 68, 67
4, 289664, Note_off_c, 2, 70, 67
4, 289664, Note_on_c, 2, 74, 67
4, 289728, Note_off_c, 2, 74, 67
4, 289728, Note_on_c, 2, 75, 67
4, 289792, Note_off_c, 2, 75, 67
4, 289792, Note_on_c, 2, 77, 67
4, 289920, Note_off_c, 2, 77, 67
4, 289920, Note_on_c, 2, 74, 67
4, 289920, Note_on_c, 2, 80, 67
4, 289984, Note_off_c, 2, 74, 67
4, 289984, Note_off_c, 2, 80, 67
4, 290048, Note_off_c, 2, 74, 67
4, 290048, Note_off_c, 2, 80, 67
4, 290048, Note_on_c, 2, 74, 67
4, 290048, Note_on_c, 2, 79, 67
4, 290112, Note_off_c, 2, 74, 67
4, 290112, Note_off_c, 2, 79, 67
4, 290176, Note_off_c, 2, 74, 67
4, 290176, Note_off_c, 2, 79, 67
4, 290176, Note_on_c, 2, 77, 67
4, 290240, Note_off_c, 2, 77, 67
4, 290304, Note_off_c, 2, 77, 67
4, 290304, Note_on_c, 2, 75, 67
4, 290368, Note_off_c, 2, 75, 67
4, 290432, Note_off_c, 2, 75, 67
4, 290432, Note_on_c, 2, 70, 67
4, 290432, Note_on_c, 2, 74, 67
4, 290496, Note_off_c, 2, 70, 67
4, 290496, Note_off_c, 2, 74, 67
4, 290560, Note_off_c, 2, 70, 67
4, 290560, Note_off_c, 2, 74, 67
4, 290560, Note_on_c, 2, 72, 67
4, 290560, Note_on_c, 2, 74, 67
4, 290624, Note_off_c, 2, 72, 67
4, 290624, Note_off_c, 2, 74, 67
4, 290688, Note_off_c, 2, 72, 67
4, 290688, Note_off_c, 2, 74, 67
4, 290688, Note_on_c, 2, 70, 67
4, 290688, Note_on_c, 2, 74, 67
4, 290752, Note_off_c, 2, 70, 67
4, 290752, Note_off_c, 2, 74, 67
4, 290816, Note_off_c, 2, 70, 67
4, 290816, Note_off_c, 2, 74, 67
4, 290816, Note_on_c, 2, 80, 67
4, 290816, Note_on_c, 2, 84, 67
4, 291072, Note_off_c, 2, 80, 67
4, 291072, Note_off_c, 2, 84, 67
4, 291072, Note_on_c, 2, 70, 67
4, 291072, Note_on_c, 2, 74, 67
4, 291088, Note_off_c, 2, 70, 67
4, 291088, Note_off_c, 2, 74, 67
4, 291104, Note_off_c, 2, 70, 67
4, 291104, Note_off_c, 2, 74, 67
4, 291104, Note_on_c, 2, 72, 67
4, 291104, Note_on_c, 2, 75, 67
4, 291120, Note_off_c, 2, 72, 67
4, 291120, Note_off_c, 2, 75, 67
4, 291136, Note_off_c, 2, 72, 67
4, 291136, Note_off_c, 2, 75, 67
4, 291136, Note_on_c, 2, 70, 67
4, 291136, Note_on_c, 2, 74, 67
4, 291168, Note_off_c, 2, 70, 67
4, 291168, Note_off_c, 2, 74, 67
4, 291200, Note_off_c, 2, 70, 67
4, 291200, Note_off_c, 2, 74, 67
4, 291200, Note_on_c, 2, 68, 67
4, 291200, Note_on_c, 2, 72, 67
4, 291232, Note_off_c, 2, 68, 67
4, 291232, Note_off_c, 2, 72, 67
4, 291264, Note_off_c, 2, 68, 67
4, 291264, Note_off_c, 2, 72, 67
4, 291264, Note_on_c, 2, 74, 67
4, 291264, Note_on_c, 2, 77, 67
4, 291296, Note_off_c, 2, 74, 67
4, 291296, Note_off_c, 2, 77, 67
4, 291328, Note_off_c, 2, 74, 67
4, 291328, Note_off_c, 2, 77, 67
4, 291328, Note_on_c, 2, 75, 67
4, 291328, Note_on_c, 2, 79, 67
4, 291456, Note_off_c, 2, 75, 67
4, 291456, Note_off_c, 2, 79, 67
4, 291456, Note_on_c, 2, 70, 67
4, 291520, Note_off_c, 2, 70, 67
4, 291584, Note_off_c, 2, 70, 67
4, 291584, Note_on_c, 2, 70, 67
4, 291648, Note_off_c, 2, 70, 67
4, 291712, Note_off_c, 2, 70, 67
4, 291712, Note_on_c, 2, 75, 67
4, 291712, Note_on_c, 2, 79, 67
4, 291776, Note_off_c, 2, 75, 67
4, 291776, Note_off_c, 2, 79, 67
4, 291776, Note_on_c, 2, 77, 67
4, 291776, Note_on_c, 2, 80, 67
4, 291840, Note_off_c, 2, 77, 67
4, 291840, Note_off_c, 2, 80, 67
4, 291840, Note_on_c, 2, 79, 67
4, 291840, Note_on_c, 2, 82, 67
4, 291904, Note_off_c, 2, 79, 67
4, 291904, Note_off_c, 2, 82, 67
4, 291968, Note_off_c, 2, 79, 67
4, 291968, Note_off_c, 2, 82, 67
4, 291968, Note_on_c, 2, 79, 67
4, 291968, Note_on_c, 2, 82, 67
4, 292032, Note_off_c, 2, 79, 67
4, 292032, Note_off_c, 2, 82, 67
4, 292096, Note_off_c, 2, 79, 67
4, 292096, Note_off_c, 2, 82, 67
4, 292096, Note_on_c, 2, 70, 67
4, 292096, Note_on_c, 2, 79, 67
4, 292160, Note_off_c, 2, 70, 67
4, 292160, Note_off_c, 2, 79, 67
4, 292224, Note_off_c, 2, 70, 67
4, 292224, Note_off_c, 2, 79, 67
4, 292224, Note_on_c, 2, 70, 67
4, 292224, Note_on_c, 2, 75, 67
4, 292288, Note_off_c, 2, 70, 67
4, 292288, Note_off_c, 2, 75, 67
4, 292352, Note_off_c, 2, 70, 67
4, 292352, Note_off_c, 2, 75, 67
4, 292352, Note_on_c, 2, 84, 67
4, 292352, Note_on_c, 2, 87, 67
4, 292416, Note_off_c, 2, 84, 67
4, 292416, Note_off_c, 2, 87, 67
4, 292480, Note_off_c, 2, 84, 67
4, 292480, Note_off_c, 2, 87, 67
4, 292480, Note_on_c, 2, 82, 67
4, 292480, Note_on_c, 2, 86, 67
4, 292544, Note_off_c, 2, 82, 67
4, 292544, Note_off_c, 2, 86, 67
4, 292608, Note_off_c, 2, 82, 67
4, 292608, Note_off_c, 2, 86, 67
4, 292608, Note_on_c, 2, 80, 67
4, 292608, Note_on_c, 2, 84, 67
4, 292672, Note_off_c, 2, 80, 67
4, 292672, Note_off_c, 2, 84, 67
4, 292736, Note_off_c, 2, 80, 67
4, 292736, Note_off_c, 2, 84, 67
4, 292736, Note_on_c, 2, 79, 67
4, 292736, Note_on_c, 2, 87, 67
4, 292800, Note_off_c, 2, 79, 67
4, 292800, Note_off_c, 2, 87, 67
4, 292864, Note_off_c, 2, 79, 67
4, 292864, Note_off_c, 2, 87, 67
4, 292864, Note_on_c, 2, 75, 67
4, 292864, Note_on_c, 2, 82, 67
4, 292928, Note_off_c, 2, 75, 67
4, 292928, Note_off_c, 2, 82, 67
4, 292992, Note_off_c, 2, 75, 67
4, 292992, Note_off_c, 2, 82, 67
4, 292992, Note_on_c, 2, 79, 67
4, 293056, Note_off_c, 2, 79, 67
4, 293120, Note_off_c, 2, 79, 67
4, 293120, Note_on_c, 2, 67, 67
4, 293120, Note_on_c, 2, 75, 67
4, 293184, Note_off_c, 2, 67, 67
4, 293184, Note_off_c, 2, 75, 67
4, 293248, Note_off_c, 2, 67, 67
4, 293248, Note_off_c, 2, 75, 67
4, 293248, Note_on_c, 2, 68, 67
4, 293248, Note_on_c, 2, 74, 67
4, 293280, Note_off_c, 2, 68, 67
4, 293280, Note_off_c, 2, 74, 67
4, 293312, Note_off_c, 2, 68, 67
4, 293312, Note_off_c, 2, 74, 67
4, 293312, Note_on_c, 2, 74, 67
4, 293312, Note_on_c, 2, 79, 67
4, 293344, Note_off_c, 2, 74, 67
4, 293344, Note_off_c, 2, 79, 67
4, 293376, Note_off_c, 2, 74, 67
4, 293376, Note_off_c, 2, 79, 67
4, 293376, Note_on_c, 2, 70, 67
4, 293376, Note_on_c, 2, 77, 67
4, 293440, Note_off_c, 2, 70, 67
4, 293440, Note_off_c, 2, 77, 67
4, 293504, Note_off_c, 2, 70, 67
4, 293504, Note_off_c, 2, 77, 67
4, 293504, Note_on_c, 2, 65, 67
4, 293504, Note_on_c, 2, 70, 67
4, 293568, Note_off_c, 2, 65, 67
4, 293568, Note_off_c, 2, 70, 67
4, 293632, Note_off_c, 2, 65, 67
4, 293632, Note_off_c, 2, 70, 67
4, 293632, Note_on_c, 2, 68, 67
4, 293632, Note_on_c, 2, 70, 67
4, 293696, Note_off_c, 2, 68, 67
4, 293696, Note_off_c, 2, 70, 67
4, 293760, Note_off_c, 2, 68, 67
4, 293760, Note_off_c, 2, 70, 67
4, 293760, Note_on_c, 2, 70, 67
4, 293760, Note_on_c, 2, 79, 67
4, 293824, Note_off_c, 2, 70, 67
4, 293824, Note_off_c, 2, 79, 67
4, 293824, Note_on_c, 2, 77, 67
4, 293824, Note_on_c, 2, 80, 67
4, 293888, Note_off_c, 2, 77, 67
4, 293888, Note_off_c, 2, 80, 67
4, 293888, Note_on_c, 2, 79, 67
4, 293888, Note_on_c, 2, 82, 67
4, 293952, Note_off_c, 2, 79, 67
4, 293952, Note_off_c, 2, 82, 67
4, 294016, Note_off_c, 2, 79, 67
4, 294016, Note_off_c, 2, 82, 67
4, 294016, Note_on_c, 2, 79, 67
4, 294016, Note_on_c, 2, 82, 67
4, 294080, Note_off_c, 2, 79, 67
4, 294080, Note_off_c, 2, 82, 67
4, 294144, Note_off_c, 2, 79, 67
4, 294144, Note_off_c, 2, 82, 67
4, 294144, Note_on_c, 2, 70, 67
4, 294144, Note_on_c, 2, 79, 67
4, 294208, Note_off_c, 2, 70, 67
4, 294208, Note_off_c, 2, 79, 67
4, 294272, Note_off_c, 2, 70, 67
4, 294272, Note_off_c, 2, 79, 67
4, 294272, Note_on_c, 2, 75, 67
4, 294272, Note_on_c, 2, 82, 67
4, 294336, Note_off_c, 2, 75, 67
4, 294336, Note_off_c, 2, 82, 67
4, 294400, Note_off_c, 2, 75, 67
4, 294400, Note_off_c, 2, 82, 67
4, 294400, Note_on_c, 2, 84, 67
4, 294400, Note_on_c, 2, 87, 67
4, 294464, Note_off_c, 2, 84, 67
4, 294464, Note_off_c, 2, 87, 67
4, 294528, Note_off_c, 2, 84, 67
4, 294528, Note_off_c, 2, 87, 67
4, 294528, Note_on_c, 2, 82, 67
4, 294528, Note_on_c, 2, 86, 67
4, 294592, Note_off_c, 2, 82, 67
4, 294592, Note_off_c, 2, 86, 67
4, 294656, Note_off_c, 2, 82, 67
4, 294656, Note_off_c, 2, 86, 67
4, 294656, Note_on_c, 2, 80, 67
4, 294656, Note_on_c, 2, 84, 67
4, 294720, Note_off_c, 2, 80, 67
4, 294720, Note_off_c, 2, 84, 67
4, 294784, Note_off_c, 2, 80, 67
4, 294784, Note_off_c, 2, 84, 67
4, 294784, Note_on_c, 2, 70, 67
4, 294784, Note_on_c, 2, 74, 67
4, 294816, Note_off_c, 2, 70, 67
4, 294816, Note_off_c, 2, 74, 67
4, 294848, Note_off_c, 2, 70, 67
4, 294848, Note_off_c, 2, 74, 67
4, 294848, Note_on_c, 2, 77, 67
4, 294848, Note_on_c, 2, 80, 67
4, 294880, Note_off_c, 2, 77, 67
4, 294880, Note_off_c, 2, 80, 67
4, 294912, Note_off_c, 2, 77, 67
4, 294912, Note_off_c, 2, 80, 67
4, 294912, Note_on_c, 2, 77, 67
4, 294912, Note_on_c, 2, 82, 67
4, 294976, Note_off_c, 2, 77, 67
4, 294976, Note_off_c, 2, 82, 67
4, 295040, Note_off_c, 2, 77, 67
4, 295040, Note_off_c, 2, 82, 67
4, 295040, Note_on_c, 2, 80, 67
4, 295040, Note_on_c, 2, 87, 67
4, 295104, Note_off_c, 2, 80, 67
4, 295104, Note_off_c, 2, 87, 67
4, 295168, Note_off_c, 2, 80, 67
4, 295168, Note_off_c, 2, 87, 67
4, 295168, Note_on_c, 2, 82, 67
4, 295168, Note_on_c, 2, 86, 67
4, 295232, Note_off_c, 2, 82, 67
4, 295232, Note_off_c, 2, 86, 67
4, 295296, Note_off_c, 2, 82, 67
4, 295296, Note_off_c, 2, 86, 67
4, 295296, Note_on_c, 2, 80, 67
4, 295296, Note_on_c, 2, 89, 67
4, 295360, Note_off_c, 2, 80, 67
4, 295360, Note_off_c, 2, 89, 67
4, 295424, Note_off_c, 2, 80, 67
4, 295424, Note_off_c, 2, 89, 67
4, 295424, Note_on_c, 2, 79, 67
4, 295424, Note_on_c, 2, 87, 67
4, 295488, Note_off_c, 2, 79, 67
4, 295488, Note_off_c, 2, 87, 67
4, 295552, Note_off_c, 2, 79, 67
4, 295552, Note_off_c, 2, 87, 67
4, 295552, Note_on_c, 2, 70, 67
4, 295552, Note_on_c, 2, 82, 67
4, 295616, Note_off_c, 2, 70, 67
4, 295616, Note_off_c, 2, 82, 67
4, 295680, Note_off_c, 2, 70, 67
4, 295680, Note_off_c, 2, 82, 67
4, 295680, Note_on_c, 2, 70, 67
4, 295680, Note_on_c, 2, 82, 67
4, 295744, Note_off_c, 2, 70, 67
4, 295744, Note_off_c, 2, 82, 67
4, 295808, Note_off_c, 2, 70, 67
4, 295808, Note_off_c, 2, 82, 67
4, 295808, Note_on_c, 2, 75, 67
4, 295872, Note_off_c, 2, 75, 67
4, 295872, Note_on_c, 2, 77, 67
4, 295936, Note_off_c, 2, 77, 67
4, 295936, Note_on_c, 2, 79, 67
4, 296000, Note_off_c, 2, 79, 67
4, 296064, Note_off_c, 2, 79, 67
4, 296064, Note_on_c, 2, 75, 67
4, 296064, Note_on_c, 2, 79, 67
4, 296128, Note_off_c, 2, 75, 67
4, 296128, Note_off_c, 2, 79, 67
4, 296192, Note_off_c, 2, 75, 67
4, 296192, Note_off_c, 2, 79, 67
4, 296192, Note_on_c, 2, 75, 67
4, 296192, Note_on_c, 2, 79, 67
4, 296256, Note_off_c, 2, 75, 67
4, 296256, Note_off_c, 2, 79, 67
4, 296320, Note_off_c, 2, 75, 67
4, 296320, Note_off_c, 2, 79, 67
4, 296320, Note_on_c, 2, 75, 67
4, 296384, Note_off_c, 2, 75, 67
4, 296384, Note_on_c, 2, 77, 67
4, 296448, Note_off_c, 2, 77, 67
4, 296448, Note_on_c, 2, 79, 67
4, 296512, Note_off_c, 2, 79, 67
4, 296576, Note_off_c, 2, 79, 67
4, 296576, Note_on_c, 2, 75, 67
4, 296576, Note_on_c, 2, 79, 67
4, 296640, Note_off_c, 2, 75, 67
4, 296640, Note_off_c, 2, 79, 67
4, 296704, Note_off_c, 2, 75, 67
4, 296704, Note_off_c, 2, 79, 67
4, 296704, Note_on_c, 2, 75, 67
4, 296704, Note_on_c, 2, 79, 67
4, 296768, Note_off_c, 2, 75, 67
4, 296768, Note_off_c, 2, 79, 67
4, 296832, Note_off_c, 2, 75, 67
4, 296832, Note_off_c, 2, 79, 67
4, 296832, Note_on_c, 2, 75, 67
4, 296896, Note_off_c, 2, 75, 67
4, 296896, Note_on_c, 2, 77, 67
4, 296960, Note_off_c, 2, 77, 67
4, 296960, Note_on_c, 2, 79, 67
4, 297024, Note_off_c, 2, 79, 67
4, 297088, Note_off_c, 2, 79, 67
4, 297088, Note_on_c, 2, 75, 67
4, 297088, Note_on_c, 2, 79, 67
4, 297152, Note_off_c, 2, 75, 67
4, 297152, Note_off_c, 2, 79, 67
4, 297216, Note_off_c, 2, 75, 67
4, 297216, Note_off_c, 2, 79, 67
4, 297216, Note_on_c, 2, 75, 67
4, 297216, Note_on_c, 2, 80, 67
4, 297248, Note_off_c, 2, 75, 67
4, 297248, Note_off_c, 2, 80, 67
4, 297280, Note_off_c, 2, 75, 67
4, 297280, Note_off_c, 2, 80, 67
4, 297280, Note_on_c, 2, 74, 67
4, 297312, Note_off_c, 2, 74, 67
4, 297344, Note_off_c, 2, 74, 67
4, 297344, Note_on_c, 2, 72, 67
4, 297376, Note_off_c, 2, 72, 67
4, 297408, Note_off_c, 2, 72, 67
4, 297408, Note_on_c, 2, 74, 67
4, 297408, Note_on_c, 2, 79, 67
4, 297440, Note_off_c, 2, 74, 67
4, 297440, Note_off_c, 2, 79, 67
4, 297472, Note_off_c, 2, 74, 67
4, 297472, Note_off_c, 2, 79, 67
4, 297472, Note_on_c, 2, 70, 67
4, 297472, Note_on_c, 2, 77, 67
4, 297536, Note_off_c, 2, 70, 67
4, 297536, Note_off_c, 2, 77, 67
4, 297600, Note_off_c, 2, 70, 67
4, 297600, Note_off_c, 2, 77, 67
4, 297600, Note_on_c, 2, 68, 67
4, 297600, Note_on_c, 2, 70, 67
4, 297664, Note_off_c, 2, 68, 67
4, 297664, Note_off_c, 2, 70, 67
4, 297728, Note_off_c, 2, 68, 67
4, 297728, Note_off_c, 2, 70, 67
4, 297728, Note_on_c, 2, 68, 67
4, 297728, Note_on_c, 2, 70, 67
4, 297792, Note_off_c, 2, 68, 67
4, 297792, Note_off_c, 2, 70, 67
4, 297856, Note_off_c, 2, 68, 67
4, 297856, Note_off_c, 2, 70, 67
4, 297856, Note_on_c, 2, 74, 67
4, 297920, Note_off_c, 2, 74, 67
4, 297920, Note_on_c, 2, 75, 67
4, 297984, Note_off_c, 2, 75, 67
4, 297984, Note_on_c, 2, 77, 67
4, 298048, Note_off_c, 2, 77, 67
4, 298112, Note_off_c, 2, 77, 67
4, 298112, Note_on_c, 2, 74, 67
4, 298112, Note_on_c, 2, 77, 67
4, 298176, Note_off_c, 2, 74, 67
4, 298176, Note_off_c, 2, 77, 67
4, 298240, Note_off_c, 2, 74, 67
4, 298240, Note_off_c, 2, 77, 67
4, 298240, Note_on_c, 2, 74, 67
4, 298240, Note_on_c, 2, 77, 67
4, 298304, Note_off_c, 2, 74, 67
4, 298304, Note_off_c, 2, 77, 67
4, 298368, Note_off_c, 2, 74, 67
4, 298368, Note_off_c, 2, 77, 67
4, 298368, Note_on_c, 2, 74, 67
4, 298432, Note_off_c, 2, 74, 67
4, 298432, Note_on_c, 2, 75, 67
4, 298496, Note_off_c, 2, 75, 67
4, 298496, Note_on_c, 2, 77, 67
4, 298560, Note_off_c, 2, 77, 67
4, 298624, Note_off_c, 2, 77, 67
4, 298624, Note_on_c, 2, 74, 67
4, 298624, Note_on_c, 2, 77, 67
4, 298688, Note_off_c, 2, 74, 67
4, 298688, Note_off_c, 2, 77, 67
4, 298752, Note_off_c, 2, 74, 67
4, 298752, Note_off_c, 2, 77, 67
4, 298752, Note_on_c, 2, 74, 67
4, 298752, Note_on_c, 2, 77, 67
4, 298816, Note_off_c, 2, 74, 67
4, 298816, Note_off_c, 2, 77, 67
4, 298880, Note_off_c, 2, 74, 67
4, 298880, Note_off_c, 2, 77, 67
4, 298880, Note_on_c, 2, 74, 67
4, 298944, Note_off_c, 2, 74, 67
4, 298944, Note_on_c, 2, 75, 67
4, 299008, Note_off_c, 2, 75, 67
4, 299008, Note_on_c, 2, 70, 67
4, 299008, Note_on_c, 2, 77, 67
4, 299072, Note_off_c, 2, 70, 67
4, 299072, Note_off_c, 2, 77, 67
4, 299136, Note_off_c, 2, 70, 67
4, 299136, Note_off_c, 2, 77, 67
4, 299136, Note_on_c, 2, 74, 67
4, 299136, Note_on_c, 2, 77, 67
4, 299200, Note_off_c, 2, 74, 67
4, 299200, Note_off_c, 2, 77, 67
4, 299264, Note_off_c, 2, 74, 67
4, 299264, Note_off_c, 2, 77, 67
4, 299264, Note_on_c, 2, 74, 67
4, 299264, Note_on_c, 2, 79, 67
4, 299296, Note_off_c, 2, 74, 67
4, 299296, Note_off_c, 2, 79, 67
4, 299328, Note_off_c, 2, 74, 67
4, 299328, Note_off_c, 2, 79, 67
4, 299328, Note_on_c, 2, 72, 67
4, 299328, Note_on_c, 2, 77, 67
4, 299360, Note_off_c, 2, 72, 67
4, 299360, Note_off_c, 2, 77, 67
4, 299392, Note_off_c, 2, 72, 67
4, 299392, Note_off_c, 2, 77, 67
4, 299392, Note_on_c, 2, 70, 67
4, 299392, Note_on_c, 2, 77, 67
4, 299424, Note_off_c, 2, 70, 67
4, 299424, Note_off_c, 2, 77, 67
4, 299456, Note_off_c, 2, 70, 67
4, 299456, Note_off_c, 2, 77, 67
4, 299456, Note_on_c, 2, 68, 67
4, 299456, Note_on_c, 2, 79, 67
4, 299488, Note_off_c, 2, 68, 67
4, 299488, Note_off_c, 2, 79, 67
4, 299520, Note_off_c, 2, 68, 67
4, 299520, Note_off_c, 2, 79, 67
4, 299520, Note_on_c, 2, 67, 67
4, 299520, Note_on_c, 2, 75, 67
4, 299584, Note_off_c, 2, 67, 67
4, 299584, Note_off_c, 2, 75, 67
4, 299648, Note_off_c, 2, 67, 67
4, 299648, Note_off_c, 2, 75, 67
4, 299648, Note_on_c, 2, 70, 67
4, 299712, Note_off_c, 2, 70, 67
4, 299776, Note_off_c, 2, 70, 67
4, 299776, Note_on_c, 2, 70, 67
4, 299776, Note_on_c, 2, 79, 67
4, 299840, Note_off_c, 2, 70, 67
4, 299840, Note_off_c, 2, 79, 67
4, 299904, Note_off_c, 2, 70, 67
4, 299904, Note_off_c, 2, 79, 67
4, 299904, Note_on_c, 2, 75, 67
4, 299968, Note_off_c, 2, 75, 67
4, 299968, Note_on_c, 2, 77, 67
4, 300032, Note_off_c, 2, 77, 67
4, 300032, Note_on_c, 2, 79, 67
4, 300096, Note_off_c, 2, 79, 67
4, 300160, Note_off_c, 2, 79, 67
4, 300160, Note_on_c, 2, 75, 67
4, 300160, Note_on_c, 2, 79, 67
4, 300224, Note_off_c, 2, 75, 67
4, 300224, Note_off_c, 2, 79, 67
4, 300288, Note_off_c, 2, 75, 67
4, 300288, Note_off_c, 2, 79, 67
4, 300288, Note_on_c, 2, 75, 67
4, 300288, Note_on_c, 2, 79, 67
4, 300352, Note_off_c, 2, 75, 67
4, 300352, Note_off_c, 2, 79, 67
4, 300416, Note_off_c, 2, 75, 67
4, 300416, Note_off_c, 2, 79, 67
4, 300416, Note_on_c, 2, 75, 67
4, 300480, Note_off_c, 2, 75, 67
4, 300480, Note_on_c, 2, 77, 67
4, 300544, Note_off_c, 2, 77, 67
4, 300544, Note_on_c, 2, 79, 67
4, 300608, Note_off_c, 2, 79, 67
4, 300672, Note_off_c, 2, 79, 67
4, 300672, Note_on_c, 2, 75, 67
4, 300672, Note_on_c, 2, 79, 67
4, 300736, Note_off_c, 2, 75, 67
4, 300736, Note_off_c, 2, 79, 67
4, 300800, Note_off_c, 2, 75, 67
4, 300800, Note_off_c, 2, 79, 67
4, 300800, Note_on_c, 2, 75, 67
4, 300800, Note_on_c, 2, 79, 67
4, 300864, Note_off_c, 2, 75, 67
4, 300864, Note_off_c, 2, 79, 67
4, 300928, Note_off_c, 2, 75, 67
4, 300928, Note_off_c, 2, 79, 67
4, 300928, Note_on_c, 2, 75, 67
4, 300992, Note_off_c, 2, 75, 67
4, 300992, Note_on_c, 2, 77, 67
4, 301056, Note_off_c, 2, 77, 67
4, 301056, Note_on_c, 2, 79, 67
4, 301120, Note_off_c, 2, 79, 67
4, 301184, Note_off_c, 2, 79, 67
4, 301184, Note_on_c, 2, 75, 67
4, 301184, Note_on_c, 2, 79, 67
4, 301248, Note_off_c, 2, 75, 67
4, 301248, Note_off_c, 2, 79, 67
4, 301312, Note_off_c, 2, 75, 67
4, 301312, Note_off_c, 2, 79, 67
4, 301312, Note_on_c, 2, 75, 67
4, 301312, Note_on_c, 2, 80, 67
4, 301344, Note_off_c, 2, 75, 67
4, 301344, Note_off_c, 2, 80, 67
4, 301376, Note_off_c, 2, 75, 67
4, 301376, Note_off_c, 2, 80, 67
4, 301376, Note_on_c, 2, 74, 67
4, 301440, Note_off_c, 2, 74, 67
4, 301440, Note_on_c, 2, 72, 67
4, 301504, Note_off_c, 2, 72, 67
4, 301504, Note_on_c, 2, 74, 67
4, 301504, Note_on_c, 2, 79, 67
4, 301536, Note_off_c, 2, 74, 67
4, 301536, Note_off_c, 2, 79, 67
4, 301568, Note_off_c, 2, 74, 67
4, 301568, Note_off_c, 2, 79, 67
4, 301568, Note_on_c, 2, 70, 67
4, 301568, Note_on_c, 2, 77, 67
4, 301632, Note_off_c, 2, 70, 67
4, 301632, Note_off_c, 2, 77, 67
4, 301696, Note_off_c, 2, 70, 67
4, 301696, Note_off_c, 2, 77, 67
4, 301696, Note_on_c, 2, 68, 67
4, 301696, Note_on_c, 2, 70, 67
4, 301760, Note_off_c, 2, 68, 67
4, 301760, Note_off_c, 2, 70, 67
4, 301824, Note_off_c, 2, 68, 67
4, 301824, Note_off_c, 2, 70, 67
4, 301824, Note_on_c, 2, 68, 67
4, 301824, Note_on_c, 2, 70, 67
4, 301888, Note_off_c, 2, 68, 67
4, 301888, Note_off_c, 2, 70, 67
4, 301952, Note_off_c, 2, 68, 67
4, 301952, Note_off_c, 2, 70, 67
4, 301952, Note_on_c, 2, 74, 67
4, 302016, Note_off_c, 2, 74, 67
4, 302016, Note_on_c, 2, 75, 67
4, 302080, Note_off_c, 2, 75, 67
4, 302080, Note_on_c, 2, 77, 67
4, 302208, Note_off_c, 2, 77, 67
4, 302208, Note_on_c, 2, 74, 67
4, 302208, Note_on_c, 2, 80, 67
4, 302272, Note_off_c, 2, 74, 67
4, 302272, Note_off_c, 2, 80, 67
4, 302336, Note_off_c, 2, 74, 67
4, 302336, Note_off_c, 2, 80, 67
4, 302336, Note_on_c, 2, 74, 67
4, 302336, Note_on_c, 2, 79, 67
4, 302400, Note_off_c, 2, 74, 67
4, 302400, Note_off_c, 2, 79, 67
4, 302464, Note_off_c, 2, 74, 67
4, 302464, Note_off_c, 2, 79, 67
4, 302464, Note_on_c, 2, 77, 67
4, 302528, Note_off_c, 2, 77, 67
4, 302592, Note_off_c, 2, 77, 67
4, 302592, Note_on_c, 2, 75, 67
4, 302656, Note_off_c, 2, 75, 67
4, 302720, Note_off_c, 2, 75, 67
4, 302720, Note_on_c, 2, 70, 67
4, 302720, Note_on_c, 2, 74, 67
4, 302784, Note_off_c, 2, 70, 67
4, 302784, Note_off_c, 2, 74, 67
4, 302848, Note_off_c, 2, 70, 67
4, 302848, Note_off_c, 2, 74, 67
4, 302848, Note_on_c, 2, 72, 67
4, 302848, Note_on_c, 2, 74, 67
4, 302912, Note_off_c, 2, 72, 67
4, 302912, Note_off_c, 2, 74, 67
4, 302976, Note_off_c, 2, 72, 67
4, 302976, Note_off_c, 2, 74, 67
4, 302976, Note_on_c, 2, 70, 67
4, 302976, Note_on_c, 2, 74, 67
4, 303040, Note_off_c, 2, 70, 67
4, 303040, Note_off_c, 2, 74, 67
4, 303104, Note_off_c, 2, 70, 67
4, 303104, Note_off_c, 2, 74, 67
4, 303104, Note_on_c, 2, 80, 67
4, 303104, Note_on_c, 2, 84, 67
4, 303360, Note_off_c, 2, 80, 67
4, 303360, Note_off_c, 2, 84, 67
4, 303360, Note_on_c, 2, 70, 67
4, 303360, Note_on_c, 2, 74, 67
4, 303376, Note_off_c, 2, 70, 67
4, 303376, Note_off_c, 2, 74, 67
4, 303392, Note_off_c, 2, 70, 67
4, 303392, Note_off_c, 2, 74, 67
4, 303392, Note_on_c, 2, 72, 67
4, 303392, Note_on_c, 2, 75, 67
4, 303408, Note_off_c, 2, 72, 67
4, 303408, Note_off_c, 2, 75, 67
4, 303424, Note_off_c, 2, 72, 67
4, 303424, Note_off_c, 2, 75, 67
4, 303424, Note_on_c, 2, 70, 67
4, 303424, Note_on_c, 2, 74, 67
4, 303456, Note_off_c, 2, 70, 67
4, 303456, Note_off_c, 2, 74, 67
4, 303488, Note_off_c, 2, 70, 67
4, 303488, Note_off_c, 2, 74, 67
4, 303488, Note_on_c, 2, 68, 67
4, 303488, Note_on_c, 2, 72, 67
4, 303520, Note_off_c, 2, 68, 67
4, 303520, Note_off_c, 2, 72, 67
4, 303552, Note_off_c, 2, 68, 67
4, 303552, Note_off_c, 2, 72, 67
4, 303552, Note_on_c, 2, 74, 67
4, 303552, Note_on_c, 2, 77, 67
4, 303584, Note_off_c, 2, 74, 67
4, 303584, Note_off_c, 2, 77, 67
4, 303616, Note_off_c, 2, 74, 67
4, 303616, Note_off_c, 2, 77, 67
4, 303616, Note_on_c, 2, 75, 67
4, 303616, Note_on_c, 2, 79, 67
4, 303744, Note_off_c, 2, 75, 67
4, 303744, Note_off_c, 2, 79, 67
4, 303744, Note_on_c, 2, 70, 67
4, 303808, Note_off_c, 2, 70, 67
4, 303872, Note_off_c, 2, 70, 67
4, 303872, Note_on_c, 2, 70, 67
4, 303936, Note_off_c, 2, 70, 67
4, 304000, Note_off_c, 2, 70, 67
4, 304000, Note_on_c, 2, 75, 67
4, 304000, Note_on_c, 2, 79, 67
4, 304064, Note_off_c, 2, 75, 67
4, 304064, Note_off_c, 2, 79, 67
4, 304064, Note_on_c, 2, 77, 67
4, 304064, Note_on_c, 2, 80, 67
4, 304128, Note_off_c, 2, 77, 67
4, 304128, Note_off_c, 2, 80, 67
4, 304128, Note_on_c, 2, 79, 67
4, 304128, Note_on_c, 2, 82, 67
4, 304192, Note_off_c, 2, 79, 67
4, 304192, Note_off_c, 2, 82, 67
4, 304256, Note_off_c, 2, 79, 67
4, 304256, Note_off_c, 2, 82, 67
4, 304256, Note_on_c, 2, 79, 67
4, 304256, Note_on_c, 2, 82, 67
4, 304320, Note_off_c, 2, 79, 67
4, 304320, Note_off_c, 2, 82, 67
4, 304384, Note_off_c, 2, 79, 67
4, 304384, Note_off_c, 2, 82, 67
4, 304384, Note_on_c, 2, 70, 67
4, 304384, Note_on_c, 2, 79, 67
4, 304448, Note_off_c, 2, 70, 67
4, 304448, Note_off_c, 2, 79, 67
4, 304512, Note_off_c, 2, 70, 67
4, 304512, Note_off_c, 2, 79, 67
4, 304512, Note_on_c, 2, 70, 67
4, 304512, Note_on_c, 2, 75, 67
4, 304576, Note_off_c, 2, 70, 67
4, 304576, Note_off_c, 2, 75, 67
4, 304640, Note_off_c, 2, 70, 67
4, 304640, Note_off_c, 2, 75, 67
4, 304640, Note_on_c, 2, 84, 67
4, 304640, Note_on_c, 2, 87, 67
4, 304704, Note_off_c, 2, 84, 67
4, 304704, Note_off_c, 2, 87, 67
4, 304768, Note_off_c, 2, 84, 67
4, 304768, Note_off_c, 2, 87, 67
4, 304768, Note_on_c, 2, 82, 67
4, 304768, Note_on_c, 2, 86, 67
4, 304832, Note_off_c, 2, 82, 67
4, 304832, Note_off_c, 2, 86, 67
4, 304896, Note_off_c, 2, 82, 67
4, 304896, Note_off_c, 2, 86, 67
4, 304896, Note_on_c, 2, 80, 67
4, 304896, Note_on_c, 2, 84, 67
4, 304960, Note_off_c, 2, 80, 67
4, 304960, Note_off_c, 2, 84, 67
4, 305024, Note_off_c, 2, 80, 67
4, 305024, Note_off_c, 2, 84, 67
4, 305024, Note_on_c, 2, 79, 67
4, 305024, Note_on_c, 2, 87, 67
4, 305088, Note_off_c, 2, 79, 67
4, 305088, Note_off_c, 2, 87, 67
4, 305152, Note_off_c, 2, 79, 67
4, 305152, Note_off_c, 2, 87, 67
4, 305152, Note_on_c, 2, 75, 67
4, 305152, Note_on_c, 2, 82, 67
4, 305216, Note_off_c, 2, 75, 67
4, 305216, Note_off_c, 2, 82, 67
4, 305280, Note_off_c, 2, 75, 67
4, 305280, Note_off_c, 2, 82, 67
4, 305280, Note_on_c, 2, 79, 67
4, 305344, Note_off_c, 2, 79, 67
4, 305408, Note_off_c, 2, 79, 67
4, 305408, Note_on_c, 2, 67, 67
4, 305408, Note_on_c, 2, 75, 67
4, 305472, Note_off_c, 2, 67, 67
4, 305472, Note_off_c, 2, 75, 67
4, 305536, Note_off_c, 2, 67, 67
4, 305536, Note_off_c, 2, 75, 67
4, 305536, Note_on_c, 2, 68, 67
4, 305536, Note_on_c, 2, 74, 67
4, 305568, Note_off_c, 2, 68, 67
4, 305568, Note_off_c, 2, 74, 67
4, 305600, Note_off_c, 2, 68, 67
4, 305600, Note_off_c, 2, 74, 67
4, 305600, Note_on_c, 2, 74, 67
4, 305600, Note_on_c, 2, 79, 67
4, 305632, Note_off_c, 2, 74, 67
4, 305632, Note_off_c, 2, 79, 67
4, 305664, Note_off_c, 2, 74, 67
4, 305664, Note_off_c, 2, 79, 67
4, 305664, Note_on_c, 2, 70, 67
4, 305664, Note_on_c, 2, 77, 67
4, 305728, Note_off_c, 2, 70, 67
4, 305728, Note_off_c, 2, 77, 67
4, 305792, Note_off_c, 2, 70, 67
4, 305792, Note_off_c, 2, 77, 67
4, 305792, Note_on_c, 2, 65, 67
4, 305792, Note_on_c, 2, 70, 67
4, 305856, Note_off_c, 2, 65, 67
4, 305856, Note_off_c, 2, 70, 67
4, 305920, Note_off_c, 2, 65, 67
4, 305920, Note_off_c, 2, 70, 67
4, 305920, Note_on_c, 2, 68, 67
4, 305920, Note_on_c, 2, 70, 67
4, 305984, Note_off_c, 2, 68, 67
4, 305984, Note_off_c, 2, 70, 67
4, 306048, Note_off_c, 2, 68, 67
4, 306048, Note_off_c, 2, 70, 67
4, 306048, Note_on_c, 2, 70, 67
4, 306048, Note_on_c, 2, 79, 67
4, 306112, Note_off_c, 2, 70, 67
4, 306112, Note_off_c, 2, 79, 67
4, 306112, Note_on_c, 2, 77, 67
4, 306112, Note_on_c, 2, 80, 67
4, 306176, Note_off_c, 2, 77, 67
4, 306176, Note_off_c, 2, 80, 67
4, 306176, Note_on_c, 2, 79, 67
4, 306176, Note_on_c, 2, 82, 67
4, 306240, Note_off_c, 2, 79, 67
4, 306240, Note_off_c, 2, 82, 67
4, 306304, Note_off_c, 2, 79, 67
4, 306304, Note_off_c, 2, 82, 67
4, 306304, Note_on_c, 2, 79, 67
4, 306304, Note_on_c, 2, 82, 67
4, 306368, Note_off_c, 2, 79, 67
4, 306368, Note_off_c, 2, 82, 67
4, 306432, Note_off_c, 2, 79, 67
4, 306432, Note_off_c, 2, 82, 67
4, 306432, Note_on_c, 2, 70, 67
4, 306432, Note_on_c, 2, 79, 67
4, 306496, Note_off_c, 2, 70, 67
4, 306496, Note_off_c, 2, 79, 67
4, 306560, Note_off_c, 2, 70, 67
4, 306560, Note_off_c, 2, 79, 67
4, 306560, Note_on_c, 2, 75, 67
4, 306560, Note_on_c, 2, 82, 67
4, 306624, Note_off_c, 2, 75, 67
4, 306624, Note_off_c, 2, 82, 67
4, 306688, Note_off_c, 2, 75, 67
4, 306688, Note_off_c, 2, 82, 67
4, 306688, Note_on_c, 2, 84, 67
4, 306688, Note_on_c, 2, 87, 67
4, 306752, Note_off_c, 2, 84, 67
4, 306752, Note_off_c, 2, 87, 67
4, 306816, Note_off_c, 2, 84, 67
4, 306816, Note_off_c, 2, 87, 67
4, 306816, Note_on_c, 2, 82, 67
4, 306816, Note_on_c, 2, 86, 67
4, 306880, Note_off_c, 2, 82, 67
4, 306880, Note_off_c, 2, 86, 67
4, 306944, Note_off_c, 2, 82, 67
4, 306944, Note_off_c, 2, 86, 67
4, 306944, Note_on_c, 2, 80, 67
4, 306944, Note_on_c, 2, 84, 67
4, 307008, Note_off_c, 2, 80, 67
4, 307008, Note_off_c, 2, 84, 67
4, 307072, Note_off_c, 2, 80, 67
4, 307072, Note_off_c, 2, 84, 67
4, 307072, Note_on_c, 2, 70, 67
4, 307072, Note_on_c, 2, 74, 67
4, 307104, Note_off_c, 2, 70, 67
4, 307104, Note_off_c, 2, 74, 67
4, 307136, Note_off_c, 2, 70, 67
4, 307136, Note_off_c, 2, 74, 67
4, 307136, Note_on_c, 2, 77, 67
4, 307136, Note_on_c, 2, 80, 67
4, 307168, Note_off_c, 2, 77, 67
4, 307168, Note_off_c, 2, 80, 67
4, 307200, Note_off_c, 2, 77, 67
4, 307200, Note_off_c, 2, 80, 67
4, 307200, Note_on_c, 2, 77, 67
4, 307200, Note_on_c, 2, 82, 67
4, 307264, Note_off_c, 2, 77, 67
4, 307264, Note_off_c, 2, 82, 67
4, 307328, Note_off_c, 2, 77, 67
4, 307328, Note_off_c, 2, 82, 67
4, 307328, Note_on_c, 2, 80, 67
4, 307328, Note_on_c, 2, 87, 67
4, 307392, Note_off_c, 2, 80, 67
4, 307392, Note_off_c, 2, 87, 67
4, 307456, Note_off_c, 2, 80, 67
4, 307456, Note_off_c, 2, 87, 67
4, 307456, Note_on_c, 2, 82, 67
4, 307456, Note_on_c, 2, 86, 67
4, 307520, Note_off_c, 2, 82, 67
4, 307520, Note_off_c, 2, 86, 67
4, 307584, Note_off_c, 2, 82, 67
4, 307584, Note_off_c, 2, 86, 67
4, 307584, Note_on_c, 2, 80, 67
4, 307584, Note_on_c, 2, 89, 67
4, 307648, Note_off_c, 2, 80, 67
4, 307648, Note_off_c, 2, 89, 67
4, 307712, Note_off_c, 2, 80, 67
4, 307712, Note_off_c, 2, 89, 67
4, 307712, Note_on_c, 2, 79, 67
4, 307712, Note_on_c, 2, 87, 67
4, 307776, Note_off_c, 2, 79, 67
4, 307776, Note_off_c, 2, 87, 67
4, 307840, Note_off_c, 2, 79, 67
4, 307840, Note_off_c, 2, 87, 67
4, 307840, Note_on_c, 2, 70, 67
4, 307840, Note_on_c, 2, 82, 67
4, 307904, Note_off_c, 2, 70, 67
4, 307904, Note_off_c, 2, 82, 67
4, 307968, Note_off_c, 2, 70, 67
4, 307968, Note_off_c, 2, 82, 67
4, 307968, Note_on_c, 2, 70, 67
4, 307968, Note_on_c, 2, 82, 67
4, 308032, Note_off_c, 2, 70, 67
4, 308032, Note_off_c, 2, 82, 67
4, 308096, Note_off_c, 2, 70, 67
4, 308096, Note_off_c, 2, 82, 67
4, 308096, Note_on_c, 2, 75, 67
4, 308160, Note_off_c, 2, 75, 67
4, 308160, Note_on_c, 2, 77, 67
4, 308224, Note_off_c, 2, 77, 67
4, 308224, Note_on_c, 2, 79, 67
4, 308288, Note_off_c, 2, 79, 67
4, 308352, Note_off_c, 2, 79, 67
4, 308352, Note_on_c, 2, 75, 67
4, 308352, Note_on_c, 2, 79, 67
4, 308416, Note_off_c, 2, 75, 67
4, 308416, Note_off_c, 2, 79, 67
4, 308480, Note_off_c, 2, 75, 67
4, 308480, Note_off_c, 2, 79, 67
4, 308480, Note_on_c, 2, 75, 67
4, 308480, Note_on_c, 2, 79, 67
4, 308544, Note_off_c, 2, 75, 67
4, 308544, Note_off_c, 2, 79, 67
4, 308608, Note_off_c, 2, 75, 67
4, 308608, Note_off_c, 2, 79, 67
4, 308608, Note_on_c, 2, 75, 67
4, 308672, Note_off_c, 2, 75, 67
4, 308672, Note_on_c, 2, 77, 67
4, 308736, Note_off_c, 2, 77, 67
4, 308736, Note_on_c, 2, 79, 67
4, 308800, Note_off_c, 2, 79, 67
4, 308864, Note_off_c, 2, 79, 67
4, 308864, Note_on_c, 2, 75, 67
4, 308864, Note_on_c, 2, 79, 67
4, 308928, Note_off_c, 2, 75, 67
4, 308928, Note_off_c, 2, 79, 67
4, 308992, Note_off_c, 2, 75, 67
4, 308992, Note_off_c, 2, 79, 67
4, 308992, Note_on_c, 2, 75, 67
4, 308992, Note_on_c, 2, 79, 67
4, 309056, Note_off_c, 2, 75, 67
4, 309056, Note_off_c, 2, 79, 67
4, 309120, Note_off_c, 2, 75, 67
4, 309120, Note_off_c, 2, 79, 67
4, 309120, Note_on_c, 2, 75, 67
4, 309184, Note_off_c, 2, 75, 67
4, 309184, Note_on_c, 2, 77, 67
4, 309248, Note_off_c, 2, 77, 67
4, 309248, Note_on_c, 2, 79, 67
4, 309312, Note_off_c, 2, 79, 67
4, 309376, Note_off_c, 2, 79, 67
4, 309376, Note_on_c, 2, 75, 67
4, 309376, Note_on_c, 2, 79, 67
4, 309440, Note_off_c, 2, 75, 67
4, 309440, Note_off_c, 2, 79, 67
4, 309504, Note_off_c, 2, 75, 67
4, 309504, Note_off_c, 2, 79, 67
4, 309504, Note_on_c, 2, 75, 67
4, 309504, Note_on_c, 2, 80, 67
4, 309536, Note_off_c, 2, 75, 67
4, 309536, Note_off_c, 2, 80, 67
4, 309568, Note_off_c, 2, 75, 67
4, 309568, Note_off_c, 2, 80, 67
4, 309568, Note_on_c, 2, 74, 67
4, 309600, Note_off_c, 2, 74, 67
4, 309632, Note_off_c, 2, 74, 67
4, 309632, Note_on_c, 2, 72, 67
4, 309664, Note_off_c, 2, 72, 67
4, 309696, Note_off_c, 2, 72, 67
4, 309696, Note_on_c, 2, 74, 67
4, 309696, Note_on_c, 2, 79, 67
4, 309728, Note_off_c, 2, 74, 67
4, 309728, Note_off_c, 2, 79, 67
4, 309760, Note_off_c, 2, 74, 67
4, 309760, Note_off_c, 2, 79, 67
4, 309760, Note_on_c, 2, 70, 67
4, 309760, Note_on_c, 2, 77, 67
4, 309824, Note_off_c, 2, 70, 67
4, 309824, Note_off_c, 2, 77, 67
4, 309888, Note_off_c, 2, 70, 67
4, 309888, Note_off_c, 2, 77, 67
4, 309888, Note_on_c, 2, 68, 67
4, 309888, Note_on_c, 2, 70, 67
4, 309952, Note_off_c, 2, 68, 67
4, 309952, Note_off_c, 2, 70, 67
4, 310016, Note_off_c, 2, 68, 67
4, 310016, Note_off_c, 2, 70, 67
4, 310016, Note_on_c, 2, 68, 67
4, 310016, Note_on_c, 2, 70, 67
4, 310080, Note_off_c, 2, 68, 67
4, 310080, Note_off_c, 2, 70, 67
4, 310144, Note_off_c, 2, 68, 67
4, 310144, Note_off_c, 2, 70, 67
4, 310144, Note_on_c, 2, 74, 67
4, 310208, Note_off_c, 2, 74, 67
4, 310208, Note_on_c, 2, 75, 67
4, 310272, Note_off_c, 2, 75, 67
4, 310272, Note_on_c, 2, 77, 67
4, 310336, Note_off_c, 2, 77, 67
4, 310400, Note_off_c, 2, 77, 67
4, 310400, Note_on_c, 2, 74, 67
4, 310400, Note_on_c, 2, 77, 67
4, 310464, Note_off_c, 2, 74, 67
4, 310464, Note_off_c, 2, 77, 67
4, 310528, Note_off_c, 2, 74, 67
4, 310528, Note_off_c, 2, 77, 67
4, 310528, Note_on_c, 2, 74, 67
4, 310528, Note_on_c, 2, 77, 67
4, 310592, Note_off_c, 2, 74, 67
4, 310592, Note_off_c, 2, 77, 67
4, 310656, Note_off_c, 2, 74, 67
4, 310656, Note_off_c, 2, 77, 67
4, 310656, Note_on_c, 2, 74, 67
4, 310720, Note_off_c, 2, 74, 67
4, 310720, Note_on_c, 2, 75, 67
4, 310784, Note_off_c, 2, 75, 67
4, 310784, Note_on_c, 2, 77, 67
4, 310848, Note_off_c, 2, 77, 67
4, 310912, Note_off_c, 2, 77, 67
4, 310912, Note_on_c, 2, 74, 67
4, 310912, Note_on_c, 2, 77, 67
4, 310976, Note_off_c, 2, 74, 67
4, 310976, Note_off_c, 2, 77, 67
4, 311040, Note_off_c, 2, 74, 67
4, 311040, Note_off_c, 2, 77, 67
4, 311040, Note_on_c, 2, 74, 67
4, 311040, Note_on_c, 2, 77, 67
4, 311104, Note_off_c, 2, 74, 67
4, 311104, Note_off_c, 2, 77, 67
4, 311168, Note_off_c, 2, 74, 67
4, 311168, Note_off_c, 2, 77, 67
4, 311168, Note_on_c, 2, 74, 67
4, 311232, Note_off_c, 2, 74, 67
4, 311232, Note_on_c, 2, 75, 67
4, 311296, Note_off_c, 2, 75, 67
4, 311296, Note_on_c, 2, 70, 67
4, 311296, Note_on_c, 2, 77, 67
4, 311360, Note_off_c, 2, 70, 67
4, 311360, Note_off_c, 2, 77, 67
4, 311424, Note_off_c, 2, 70, 67
4, 311424, Note_off_c, 2, 77, 67
4, 311424, Note_on_c, 2, 74, 67
4, 311424, Note_on_c, 2, 77, 67
4, 311488, Note_off_c, 2, 74, 67
4, 311488, Note_off_c, 2, 77, 67
4, 311552, Note_off_c, 2, 74, 67
4, 311552, Note_off_c, 2, 77, 67
4, 311552, Note_on_c, 2, 74, 67
4, 311552, Note_on_c, 2, 79, 67
4, 311584, Note_off_c, 2, 74, 67
4, 311584, Note_off_c, 2, 79, 67
4, 311616, Note_off_c, 2, 74, 67
4, 311616, Note_off_c, 2, 79, 67
4, 311616, Note_on_c, 2, 72, 67
4, 311616, Note_on_c, 2, 77, 67
4, 311648, Note_off_c, 2, 72, 67
4, 311648, Note_off_c, 2, 77, 67
4, 311680, Note_off_c, 2, 72, 67
4, 311680, Note_off_c, 2, 77, 67
4, 311680, Note_on_c, 2, 70, 67
4, 311680, Note_on_c, 2, 77, 67
4, 311712, Note_off_c, 2, 70, 67
4, 311712, Note_off_c, 2, 77, 67
4, 311744, Note_off_c, 2, 70, 67
4, 311744, Note_off_c, 2, 77, 67
4, 311744, Note_on_c, 2, 68, 67
4, 311744, Note_on_c, 2, 79, 67
4, 311776, Note_off_c, 2, 68, 67
4, 311776, Note_off_c, 2, 79, 67
4, 311808, Note_off_c, 2, 68, 67
4, 311808, Note_off_c, 2, 79, 67
4, 311808, Note_on_c, 2, 67, 67
4, 311808, Note_on_c, 2, 75, 67
4, 311872, Note_off_c, 2, 67, 67
4, 311872, Note_off_c, 2, 75, 67
4, 311936, Note_off_c, 2, 67, 67
4, 311936, Note_off_c, 2, 75, 67
4, 311936, Note_on_c, 2, 70, 67
4, 312000, Note_off_c, 2, 70, 67
4, 312064, Note_off_c, 2, 70, 67
4, 312064, Note_on_c, 2, 70, 67
4, 312064, Note_on_c, 2, 79, 67
4, 312128, Note_off_c, 2, 70, 67
4, 312128, Note_off_c, 2, 79, 67
4, 312192, Note_off_c, 2, 70, 67
4, 312192, Note_off_c, 2, 79, 67
4, 312192, Note_on_c, 2, 75, 67
4, 312256, Note_off_c, 2, 75, 67
4, 312256, Note_on_c, 2, 77, 67
4, 312320, Note_off_c, 2, 77, 67
4, 312320, Note_on_c, 2, 79, 67
4, 312384, Note_off_c, 2, 79, 67
4, 312448, Note_off_c, 2, 79, 67
4, 312448, Note_on_c, 2, 75, 67
4, 312448, Note_on_c, 2, 79, 67
4, 312512, Note_off_c, 2, 75, 67
4, 312512, Note_off_c, 2, 79, 67
4, 312576, Note_off_c, 2, 75, 67
4, 312576, Note_off_c, 2, 79, 67
4, 312576, Note_on_c, 2, 75, 67
4, 312576, Note_on_c, 2, 79, 67
4, 312640, Note_off_c, 2, 75, 67
4, 312640, Note_off_c, 2, 79, 67
4, 312704, Note_off_c, 2, 75, 67
4, 312704, Note_off_c, 2, 79, 67
4, 312704, Note_on_c, 2, 75, 67
4, 312768, Note_off_c, 2, 75, 67
4, 312768, Note_on_c, 2, 77, 67
4, 312832, Note_off_c, 2, 77, 67
4, 312832, Note_on_c, 2, 79, 67
4, 312896, Note_off_c, 2, 79, 67
4, 312960, Note_off_c, 2, 79, 67
4, 312960, Note_on_c, 2, 75, 67
4, 312960, Note_on_c, 2, 79, 67
4, 313024, Note_off_c, 2, 75, 67
4, 313024, Note_off_c, 2, 79, 67
4, 313088, Note_off_c, 2, 75, 67
4, 313088, Note_off_c, 2, 79, 67
4, 313088, Note_on_c, 2, 75, 67
4, 313088, Note_on_c, 2, 79, 67
4, 313152, Note_off_c, 2, 75, 67
4, 313152, Note_off_c, 2, 79, 67
4, 313216, Note_off_c, 2, 75, 67
4, 313216, Note_off_c, 2, 79, 67
4, 313216, Note_on_c, 2, 75, 67
4, 313280, Note_off_c, 2, 75, 67
4, 313280, Note_on_c, 2, 77, 67
4, 313344, Note_off_c, 2, 77, 67
4, 313344, Note_on_c, 2, 79, 67
4, 313408, Note_off_c, 2, 79, 67
4, 313472, Note_off_c, 2, 79, 67
4, 313472, Note_on_c, 2, 75, 67
4, 313472, Note_on_c, 2, 79, 67
4, 313536, Note_off_c, 2, 75, 67
4, 313536, Note_off_c, 2, 79, 67
4, 313600, Note_off_c, 2, 75, 67
4, 313600, Note_off_c, 2, 79, 67
4, 313600, Note_on_c, 2, 75, 67
4, 313600, Note_on_c, 2, 80, 67
4, 313632, Note_off_c, 2, 75, 67
4, 313632, Note_off_c, 2, 80, 67
4, 313664, Note_off_c, 2, 75, 67
4, 313664, Note_off_c, 2, 80, 67
4, 313664, Note_on_c, 2, 74, 67
4, 313728, Note_off_c, 2, 74, 67
4, 313728, Note_on_c, 2, 72, 67
4, 313792, Note_off_c, 2, 72, 67
4, 313792, Note_on_c, 2, 74, 67
4, 313792, Note_on_c, 2, 79, 67
4, 313824, Note_off_c, 2, 74, 67
4, 313824, Note_off_c, 2, 79, 67
4, 313856, Note_off_c, 2, 74, 67
4, 313856, Note_off_c, 2, 79, 67
4, 313856, Note_on_c, 2, 70, 67
4, 313856, Note_on_c, 2, 77, 67
4, 313920, Note_off_c, 2, 70, 67
4, 313920, Note_off_c, 2, 77, 67
4, 313984, Note_off_c, 2, 70, 67
4, 313984, Note_off_c, 2, 77, 67
4, 313984, Note_on_c, 2, 68, 67
4, 313984, Note_on_c, 2, 70, 67
4, 314048, Note_off_c, 2, 68, 67
4, 314048, Note_off_c, 2, 70, 67
4, 314112, Note_off_c, 2, 68, 67
4, 314112, Note_off_c, 2, 70, 67
4, 314112, Note_on_c, 2, 68, 67
4, 314112, Note_on_c, 2, 70, 67
4, 314176, Note_off_c, 2, 68, 67
4, 314176, Note_off_c, 2, 70, 67
4, 314240, Note_off_c, 2, 68, 67
4, 314240, Note_off_c, 2, 70, 67
4, 314240, Note_on_c, 2, 74, 67
4, 314304, Note_off_c, 2, 74, 67
4, 314304, Note_on_c, 2, 75, 67
4, 314368, Note_off_c, 2, 75, 67
4, 314368, Note_on_c, 2, 77, 67
4, 314496, Note_off_c, 2, 77, 67
4, 314496, Note_on_c, 2, 74, 67
4, 314496, Note_on_c, 2, 80, 67
4, 314560, Note_off_c, 2, 74, 67
4, 314560, Note_off_c, 2, 80, 67
4, 314624, Note_off_c, 2, 74, 67
4, 314624, Note_off_c, 2, 80, 67
4, 314624, Note_on_c, 2, 74, 67
4, 314624, Note_on_c, 2, 79, 67
4, 314688, Note_off_c, 2, 74, 67
4, 314688, Note_off_c, 2, 79, 67
4, 314752, Note_off_c, 2, 74, 67
4, 314752, Note_off_c, 2, 79, 67
4, 314752, Note_on_c, 2, 77, 67
4, 314816, Note_off_c, 2, 77, 67
4, 314880, Note_off_c, 2, 77, 67
4, 314880, Note_on_c, 2, 75, 67
4, 314944, Note_off_c, 2, 75, 67
4, 315008, Note_off_c, 2, 75, 67
4, 315008, Note_on_c, 2, 70, 67
4, 315008, Note_on_c, 2, 74, 67
4, 315072, Note_off_c, 2, 70, 67
4, 315072, Note_off_c, 2, 74, 67
4, 315136, Note_off_c, 2, 70, 67
4, 315136, Note_off_c, 2, 74, 67
4, 315136, Note_on_c, 2, 72, 67
4, 315136, Note_on_c, 2, 74, 67
4, 315200, Note_off_c, 2, 72, 67
4, 315200, Note_off_c, 2, 74, 67
4, 315264, Note_off_c, 2, 72, 67
4, 315264, Note_off_c, 2, 74, 67
4, 315264, Note_on_c, 2, 70, 67
4, 315264, Note_on_c, 2, 74, 67
4, 315328, Note_off_c, 2, 70, 67
4, 315328, Note_off_c, 2, 74, 67
4, 315392, Note_off_c, 2, 70, 67
4, 315392, Note_off_c, 2, 74, 67
4, 315392, Note_on_c, 2, 80, 67
4, 315392, Note_on_c, 2, 84, 67
4, 315648, Note_off_c, 2, 80, 67
4, 315648, Note_off_c, 2, 84, 67
4, 315648, Note_on_c, 2, 70, 67
4, 315648, Note_on_c, 2, 74, 67
4, 315664, Note_off_c, 2, 70, 67
4, 315664, Note_off_c, 2, 74, 67
4, 315680, Note_off_c, 2, 70, 67
4, 315680, Note_off_c, 2, 74, 67
4, 315680, Note_on_c, 2, 72, 67
4, 315680, Note_on_c, 2, 75, 67
4, 315696, Note_off_c, 2, 72, 67
4, 315696, Note_off_c, 2, 75, 67
4, 315712, Note_off_c, 2, 72, 67
4, 315712, Note_off_c, 2, 75, 67
4, 315712, Note_on_c, 2, 70, 67
4, 315712, Note_on_c, 2, 74, 67
4, 315744, Note_off_c, 2, 70, 67
4, 315744, Note_off_c, 2, 74, 67
4, 315776, Note_off_c, 2, 70, 67
4, 315776, Note_off_c, 2, 74, 67
4, 315776, Note_on_c, 2, 68, 67
4, 315776, Note_on_c, 2, 72, 67
4, 315808, Note_off_c, 2, 68, 67
4, 315808, Note_off_c, 2, 72, 67
4, 315840, Note_off_c, 2, 68, 67
4, 315840, Note_off_c, 2, 72, 67
4, 315840, Note_on_c, 2, 74, 67
4, 315840, Note_on_c, 2, 77, 67
4, 315872, Note_off_c, 2, 74, 67
4, 315872, Note_off_c, 2, 77, 67
4, 315904, Note_off_c, 2, 74, 67
4, 315904, Note_off_c, 2, 77, 67
4, 315904, Note_on_c, 2, 75, 67
4, 315904, Note_on_c, 2, 79, 67
4, 316032, Note_off_c, 2, 75, 67
4, 316032, Note_off_c, 2, 79, 67
4, 316032, Note_on_c, 2, 70, 67
4, 316096, Note_off_c, 2, 70, 67
4, 316160, Note_off_c, 2, 70, 67
4, 316160, Note_on_c, 2, 70, 67
4, 316224, Note_off_c, 2, 70, 67
4, 316288, Note_off_c, 2, 70, 67
4, 316288, Note_on_c, 2, 75, 67
4, 316288, Note_on_c, 2, 79, 67
4, 316352, Note_off_c, 2, 75, 67
4, 316352, Note_off_c, 2, 79, 67
4, 316352, Note_on_c, 2, 77, 67
4, 316352, Note_on_c, 2, 80, 67
4, 316416, Note_off_c, 2, 77, 67
4, 316416, Note_off_c, 2, 80, 67
4, 316416, Note_on_c, 2, 79, 67
4, 316416, Note_on_c, 2, 82, 67
4, 316480, Note_off_c, 2, 79, 67
4, 316480, Note_off_c, 2, 82, 67
4, 316544, Note_off_c, 2, 79, 67
4, 316544, Note_off_c, 2, 82, 67
4, 316544, Note_on_c, 2, 79, 67
4, 316544, Note_on_c, 2, 82, 67
4, 316608, Note_off_c, 2, 79, 67
4, 316608, Note_off_c, 2, 82, 67
4, 316672, Note_off_c, 2, 79, 67
4, 316672, Note_off_c, 2, 82, 67
4, 316672, Note_on_c, 2, 70, 67
4, 316672, Note_on_c, 2, 79, 67
4, 316736, Note_off_c, 2, 70, 67
4, 316736, Note_off_c, 2, 79, 67
4, 316800, Note_off_c, 2, 70, 67
4, 316800, Note_off_c, 2, 79, 67
4, 316800, Note_on_c, 2, 70, 67
4, 316800, Note_on_c, 2, 75, 67
4, 316864, Note_off_c, 2, 70, 67
4, 316864, Note_off_c, 2, 75, 67
4, 316928, Note_off_c, 2, 70, 67
4, 316928, Note_off_c, 2, 75, 67
4, 316928, Note_on_c, 2, 84, 67
4, 316928, Note_on_c, 2, 87, 67
4, 316992, Note_off_c, 2, 84, 67
4, 316992, Note_off_c, 2, 87, 67
4, 317056, Note_off_c, 2, 84, 67
4, 317056, Note_off_c, 2, 87, 67
4, 317056, Note_on_c, 2, 82, 67
4, 317056, Note_on_c, 2, 86, 67
4, 317120, Note_off_c, 2, 82, 67
4, 317120, Note_off_c, 2, 86, 67
4, 317184, Note_off_c, 2, 82, 67
4, 317184, Note_off_c, 2, 86, 67
4, 317184, Note_on_c, 2, 80, 67
4, 317184, Note_on_c, 2, 84, 67
4, 317248, Note_off_c, 2, 80, 67
4, 317248, Note_off_c, 2, 84, 67
4, 317312, Note_off_c, 2, 80, 67
4, 317312, Note_off_c, 2, 84, 67
4, 317312, Note_on_c, 2, 79, 67
4, 317312, Note_on_c, 2, 87, 67
4, 317376, Note_off_c, 2, 79, 67
4, 317376, Note_off_c, 2, 87, 67
4, 317440, Note_off_c, 2, 79, 67
4, 317440, Note_off_c, 2, 87, 67
4, 317440, Note_on_c, 2, 75, 67
4, 317440, Note_on_c, 2, 82, 67
4, 317504, Note_off_c, 2, 75, 67
4, 317504, Note_off_c, 2, 82, 67
4, 317568, Note_off_c, 2, 75, 67
4, 317568, Note_off_c, 2, 82, 67
4, 317568, Note_on_c, 2, 79, 67
4, 317632, Note_off_c, 2, 79, 67
4, 317696, Note_off_c, 2, 79, 67
4, 317696, Note_on_c, 2, 67, 67
4, 317696, Note_on_c, 2, 75, 67
4, 317760, Note_off_c, 2, 67, 67
4, 317760, Note_off_c, 2, 75, 67
4, 317824, Note_off_c, 2, 67, 67
4, 317824, Note_off_c, 2, 75, 67
4, 317824, Note_on_c, 2, 68, 67
4, 317824, Note_on_c, 2, 74, 67
4, 317856, Note_off_c, 2, 68, 67
4, 317856, Note_off_c, 2, 74, 67
4, 317888, Note_off_c, 2, 68, 67
4, 317888, Note_off_c, 2, 74, 67
4, 317888, Note_on_c, 2, 74, 67
4, 317888, Note_on_c, 2, 79, 67
4, 317920, Note_off_c, 2, 74, 67
4, 317920, Note_off_c, 2, 79, 67
4, 317952, Note_off_c, 2, 74, 67
4, 317952, Note_off_c, 2, 79, 67
4, 317952, Note_on_c, 2, 70, 67
4, 317952, Note_on_c, 2, 77, 67
4, 318016, Note_off_c, 2, 70, 67
4, 318016, Note_off_c, 2, 77, 67
4, 318080, Note_off_c, 2, 70, 67
4, 318080, Note_off_c, 2, 77, 67
4, 318080, Note_on_c, 2, 65, 67
4, 318080, Note_on_c, 2, 70, 67
4, 318144, Note_off_c, 2, 65, 67
4, 318144, Note_off_c, 2, 70, 67
4, 318208, Note_off_c, 2, 65, 67
4, 318208, Note_off_c, 2, 70, 67
4, 318208, Note_on_c, 2, 68, 67
4, 318208, Note_on_c, 2, 70, 67
4, 318272, Note_off_c, 2, 68, 67
4, 318272, Note_off_c, 2, 70, 67
4, 318336, Note_off_c, 2, 68, 67
4, 318336, Note_off_c, 2, 70, 67
4, 318336, Note_on_c, 2, 70, 67
4, 318336, Note_on_c, 2, 79, 67
4, 318400, Note_off_c, 2, 70, 67
4, 318400, Note_off_c, 2, 79, 67
4, 318400, Note_on_c, 2, 77, 67
4, 318400, Note_on_c, 2, 80, 67
4, 318464, Note_off_c, 2, 77, 67
4, 318464, Note_off_c, 2, 80, 67
4, 318464, Note_on_c, 2, 79, 67
4, 318464, Note_on_c, 2, 82, 67
4, 318528, Note_off_c, 2, 79, 67
4, 318528, Note_off_c, 2, 82, 67
4, 318592, Note_off_c, 2, 79, 67
4, 318592, Note_off_c, 2, 82, 67
4, 318592, Note_on_c, 2, 79, 67
4, 318592, Note_on_c, 2, 82, 67
4, 318656, Note_off_c, 2, 79, 67
4, 318656, Note_off_c, 2, 82, 67
4, 318720, Note_off_c, 2, 79, 67
4, 318720, Note_off_c, 2, 82, 67
4, 318720, Note_on_c, 2, 70, 67
4, 318720, Note_on_c, 2, 79, 67
4, 318784, Note_off_c, 2, 70, 67
4, 318784, Note_off_c, 2, 79, 67
4, 318848, Note_off_c, 2, 70, 67
4, 318848, Note_off_c, 2, 79, 67
4, 318848, Note_on_c, 2, 75, 67
4, 318848, Note_on_c, 2, 82, 67
4, 318912, Note_off_c, 2, 75, 67
4, 318912, Note_off_c, 2, 82, 67
4, 318976, Note_off_c, 2, 75, 67
4, 318976, Note_off_c, 2, 82, 67
4, 318976, Note_on_c, 2, 84, 67
4, 318976, Note_on_c, 2, 87, 67
4, 319040, Note_off_c, 2, 84, 67
4, 319040, Note_off_c, 2, 87, 67
4, 319104, Note_off_c, 2, 84, 67
4, 319104, Note_off_c, 2, 87, 67
4, 319104, Note_on_c, 2, 82, 67
4, 319104, Note_on_c, 2, 86, 67
4, 319168, Note_off_c, 2, 82, 67
4, 319168, Note_off_c, 2, 86, 67
4, 319232, Note_off_c, 2, 82, 67
4, 319232, Note_off_c, 2, 86, 67
4, 319232, Note_on_c, 2, 80, 67
4, 319232, Note_on_c, 2, 84, 67
4, 319296, Note_off_c, 2, 80, 67
4, 319296, Note_off_c, 2, 84, 67
4, 319360, Note_off_c, 2, 80, 67
4, 319360, Note_off_c, 2, 84, 67
4, 319360, Note_on_c, 2, 70, 67
4, 319360, Note_on_c, 2, 74, 67
4, 319392, Note_off_c, 2, 70, 67
4, 319392, Note_off_c, 2, 74, 67
4, 319424, Note_off_c, 2, 70, 67
4, 319424, Note_off_c, 2, 74, 67
4, 319424, Note_on_c, 2, 77, 67
4, 319424, Note_on_c, 2, 80, 67
4, 319456, Note_off_c, 2, 77, 67
4, 319456, Note_off_c, 2, 80, 67
4, 319488, Note_off_c, 2, 77, 67
4, 319488, Note_off_c, 2, 80, 67
4, 319488, Note_on_c, 2, 77, 67
4, 319488, Note_on_c, 2, 82, 67
4, 319552, Note_off_c, 2, 77, 67
4, 319552, Note_off_c, 2, 82, 67
4, 319616, Note_off_c, 2, 77, 67
4, 319616, Note_off_c, 2, 82, 67
4, 319616, Note_on_c, 2, 80, 67
4, 319616, Note_on_c, 2, 87, 67
4, 319680, Note_off_c, 2, 80, 67
4, 319680, Note_off_c, 2, 87, 67
4, 319744, Note_off_c, 2, 80, 67
4, 319744, Note_off_c, 2, 87, 67
4, 319744, Note_on_c, 2, 82, 67
4, 319744, Note_on_c, 2, 86, 67
4, 319808, Note_off_c, 2, 82, 67
4, 319808, Note_off_c, 2, 86, 67
4, 319872, Note_off_c, 2, 82, 67
4, 319872, Note_off_c, 2, 86, 67
4, 319872, Note_on_c, 2, 80, 67
4, 319872, Note_on_c, 2, 89, 67
4, 319936, Note_off_c, 2, 80, 67
4, 319936, Note_off_c, 2, 89, 67
4, 320000, Note_off_c, 2, 80, 67
4, 320000, Note_off_c, 2, 89, 67
4, 320000, Note_on_c, 2, 79, 67
4, 320000, Note_on_c, 2, 87, 67
4, 320064, Note_off_c, 2, 79, 67
4, 320064, Note_off_c, 2, 87, 67
4, 320128, Note_off_c, 2, 79, 67
4, 320128, Note_off_c, 2, 87, 67
4, 320128, Note_on_c, 2, 70, 67
4, 320128, Note_on_c, 2, 82, 67
4, 320192, Note_off_c, 2, 70, 67
4, 320192, Note_off_c, 2, 82, 67
4, 320256, Note_off_c, 2, 70, 67
4, 320256, Note_off_c, 2, 82, 67
4, 320256, Note_on_c, 2, 70, 67
4, 320256, Note_on_c, 2, 82, 67
4, 320320, Note_off_c, 2, 70, 67
4, 320320, Note_off_c, 2, 82, 67
4, 320384, Note_off_c, 2, 70, 67
4, 320384, Note_off_c, 2, 82, 67
4, 320384, Note_on_c, 2, 75, 67
4, 320448, Note_off_c, 2, 75, 67
4, 320448, Note_on_c, 2, 77, 67
4, 320512, Note_off_c, 2, 77, 67
4, 320512, Note_on_c, 2, 79, 67
4, 320576, Note_off_c, 2, 79, 67
4, 320640, Note_off_c, 2, 79, 67
4, 320640, Note_on_c, 2, 75, 67
4, 320640, Note_on_c, 2, 79, 67
4, 320704, Note_off_c, 2, 75, 67
4, 320704, Note_off_c, 2, 79, 67
4, 320768, Note_off_c, 2, 75, 67
4, 320768, Note_off_c, 2, 79, 67
4, 320768, Note_on_c, 2, 75, 67
4, 320768, Note_on_c, 2, 79, 67
4, 320832, Note_off_c, 2, 75, 67
4, 320832, Note_off_c, 2, 79, 67
4, 320896, Note_off_c, 2, 75, 67
4, 320896, Note_off_c, 2, 79, 67
4, 320896, Note_on_c, 2, 75, 67
4, 320960, Note_off_c, 2, 75, 67
4, 320960, Note_on_c, 2, 77, 67
4, 321024, Note_off_c, 2, 77, 67
4, 321024, Note_on_c, 2, 79, 67
4, 321088, Note_off_c, 2, 79, 67
4, 321152, Note_off_c, 2, 79, 67
4, 321152, Note_on_c, 2, 75, 67
4, 321152, Note_on_c, 2, 79, 67
4, 321216, Note_off_c, 2, 75, 67
4, 321216, Note_off_c, 2, 79, 67
4, 321280, Note_off_c, 2, 75, 67
4, 321280, Note_off_c, 2, 79, 67
4, 321280, Note_on_c, 2, 75, 67
4, 321280, Note_on_c, 2, 79, 67
4, 321344, Note_off_c, 2, 75, 67
4, 321344, Note_off_c, 2, 79, 67
4, 321408, Note_off_c, 2, 75, 67
4, 321408, Note_off_c, 2, 79, 67
4, 321408, Note_on_c, 2, 75, 67
4, 321472, Note_off_c, 2, 75, 67
4, 321472, Note_on_c, 2, 77, 67
4, 321536, Note_off_c, 2, 77, 67
4, 321536, Note_on_c, 2, 79, 67
4, 321600, Note_off_c, 2, 79, 67
4, 321664, Note_off_c, 2, 79, 67
4, 321664, Note_on_c, 2, 75, 67
4, 321664, Note_on_c, 2, 79, 67
4, 321728, Note_off_c, 2, 75, 67
4, 321728, Note_off_c, 2, 79, 67
4, 321792, Note_off_c, 2, 75, 67
4, 321792, Note_off_c, 2, 79, 67
4, 321792, Note_on_c, 2, 75, 67
4, 321792, Note_on_c, 2, 80, 67
4, 321824, Note_off_c, 2, 75, 67
4, 321824, Note_off_c, 2, 80, 67
4, 321856, Note_off_c, 2, 75, 67
4, 321856, Note_off_c, 2, 80, 67
4, 321856, Note_on_c, 2, 74, 67
4, 321888, Note_off_c, 2, 74, 67
4, 321920, Note_off_c, 2, 74, 67
4, 321920, Note_on_c, 2, 72, 67
4, 321952, Note_off_c, 2, 72, 67
4, 321984, Note_off_c, 2, 72, 67
4, 321984, Note_on_c, 2, 74, 67
4, 321984, Note_on_c, 2, 79, 67
4, 322016, Note_off_c, 2, 74, 67
4, 322016, Note_off_c, 2, 79, 67
4, 322048, Note_off_c, 2, 74, 67
4, 322048, Note_off_c, 2, 79, 67
4, 322048, Note_on_c, 2, 70, 67
4, 322048, Note_on_c, 2, 77, 67
4, 322112, Note_off_c, 2, 70, 67
4, 322112, Note_off_c, 2, 77, 67
4, 322176, Note_off_c, 2, 70, 67
4, 322176, Note_off_c, 2, 77, 67
4, 322176, Note_on_c, 2, 68, 67
4, 322176, Note_on_c, 2, 70, 67
4, 322240, Note_off_c, 2, 68, 67
4, 322240, Note_off_c, 2, 70, 67
4, 322304, Note_off_c, 2, 68, 67
4, 322304, Note_off_c, 2, 70, 67
4, 322304, Note_on_c, 2, 68, 67
4, 322304, Note_on_c, 2, 70, 67
4, 322368, Note_off_c, 2, 68, 67
4, 322368, Note_off_c, 2, 70, 67
4, 322432, Note_off_c, 2, 68, 67
4, 322432, Note_off_c, 2, 70, 67
4, 322432, Note_on_c, 2, 74, 67
4, 322496, Note_off_c, 2, 74, 67
4, 322496, Note_on_c, 2, 75, 67
4, 322560, Note_off_c, 2, 75, 67
4, 322560, Note_on_c, 2, 77, 67
4, 322624, Note_off_c, 2, 77, 67
4, 322688, Note_off_c, 2, 77, 67
4, 322688, Note_on_c, 2, 74, 67
4, 322688, Note_on_c, 2, 77, 67
4, 322752, Note_off_c, 2, 74, 67
4, 322752, Note_off_c, 2, 77, 67
4, 322816, Note_off_c, 2, 74, 67
4, 322816, Note_off_c, 2, 77, 67
4, 322816, Note_on_c, 2, 74, 67
4, 322816, Note_on_c, 2, 77, 67
4, 322880, Note_off_c, 2, 74, 67
4, 322880, Note_off_c, 2, 77, 67
4, 322944, Note_off_c, 2, 74, 67
4, 322944, Note_off_c, 2, 77, 67
4, 322944, Note_on_c, 2, 74, 67
4, 323008, Note_off_c, 2, 74, 67
4, 323008, Note_on_c, 2, 75, 67
4, 323072, Note_off_c, 2, 75, 67
4, 323072, Note_on_c, 2, 77, 67
4, 323136, Note_off_c, 2, 77, 67
4, 323200, Note_off_c, 2, 77, 67
4, 323200, Note_on_c, 2, 74, 67
4, 323200, Note_on_c, 2, 77, 67
4, 323264, Note_off_c, 2, 74, 67
4, 323264, Note_off_c, 2, 77, 67
4, 323328, Note_off_c, 2, 74, 67
4, 323328, Note_off_c, 2, 77, 67
4, 323328, Note_on_c, 2, 74, 67
4, 323328, Note_on_c, 2, 77, 67
4, 323392, Note_off_c, 2, 74, 67
4, 323392, Note_off_c, 2, 77, 67
4, 323456, Note_off_c, 2, 74, 67
4, 323456, Note_off_c, 2, 77, 67
4, 323456, Note_on_c, 2, 74, 67
4, 323520, Note_off_c, 2, 74, 67
4, 323520, Note_on_c, 2, 75, 67
4, 323584, Note_off_c, 2, 75, 67
4, 323584, Note_on_c, 2, 70, 67
4, 323584, Note_on_c, 2, 77, 67
4, 323648, Note_off_c, 2, 70, 67
4, 323648, Note_off_c, 2, 77, 67
4, 323712, Note_off_c, 2, 70, 67
4, 323712, Note_off_c, 2, 77, 67
4, 323712, Note_on_c, 2, 74, 67
4, 323712, Note_on_c, 2, 77, 67
4, 323776, Note_off_c, 2, 74, 67
4, 323776, Note_off_c, 2, 77, 67
4, 323840, Note_off_c, 2, 74, 67
4, 323840, Note_off_c, 2, 77, 67
4, 323840, Note_on_c, 2, 74, 67
4, 323840, Note_on_c, 2, 79, 67
4, 323872, Note_off_c, 2, 74, 67
4, 323872, Note_off_c, 2, 79, 67
4, 323904, Note_off_c, 2, 74, 67
4, 323904, Note_off_c, 2, 79, 67
4, 323904, Note_on_c, 2, 72, 67
4, 323904, Note_on_c, 2, 77, 67
4, 323936, Note_off_c, 2, 72, 67
4, 323936, Note_off_c, 2, 77, 67
4, 323968, Note_off_c, 2, 72, 67
4, 323968, Note_off_c, 2, 77, 67
4, 323968, Note_on_c, 2, 70, 67
4, 323968, Note_on_c, 2, 77, 67
4, 324000, Note_off_c, 2, 70, 67
4, 324000, Note_off_c, 2, 77, 67
4, 324032, Note_off_c, 2, 70, 67
4, 324032, Note_off_c, 2, 77, 67
4, 324032, Note_on_c, 2, 68, 67
4, 324032, Note_on_c, 2, 79, 67
4, 324064, Note_off_c, 2, 68, 67
4, 324064, Note_off_c, 2, 79, 67
4, 324096, Note_off_c, 2, 68, 67
4, 324096, Note_off_c, 2, 79, 67
4, 324096, Note_on_c, 2, 67, 67
4, 324096, Note_on_c, 2, 75, 67
4, 324160, Note_off_c, 2, 67, 67
4, 324160, Note_off_c, 2, 75, 67
4, 324224, Note_off_c, 2, 67, 67
4, 324224, Note_off_c, 2, 75, 67
4, 324224, Note_on_c, 2, 70, 67
4, 324288, Note_off_c, 2, 70, 67
4, 324352, Note_off_c, 2, 70, 67
4, 324352, Note_on_c, 2, 70, 67
4, 324352, Note_on_c, 2, 79, 67
4, 324416, Note_off_c, 2, 70, 67
4, 324416, Note_off_c, 2, 79, 67
4, 324480, Note_off_c, 2, 70, 67
4, 324480, Note_off_c, 2, 79, 67
4, 324480, Note_on_c, 2, 75, 67
4, 324544, Note_off_c, 2, 75, 67
4, 324544, Note_on_c, 2, 77, 67
4, 324608, Note_off_c, 2, 77, 67
4, 324608, Note_on_c, 2, 79, 67
4, 324672, Note_off_c, 2, 79, 67
4, 324736, Note_off_c, 2, 79, 67
4, 324736, Note_on_c, 2, 75, 67
4, 324736, Note_on_c, 2, 79, 67
4, 324800, Note_off_c, 2, 75, 67
4, 324800, Note_off_c, 2, 79, 67
4, 324864, Note_off_c, 2, 75, 67
4, 324864, Note_off_c, 2, 79, 67
4, 324864, Note_on_c, 2, 75, 67
4, 324864, Note_on_c, 2, 79, 67
4, 324928, Note_off_c, 2, 75, 67
4, 324928, Note_off_c, 2, 79, 67
4, 324992, Note_off_c, 2, 75, 67
4, 324992, Note_off_c, 2, 79, 67
4, 324992, Note_on_c, 2, 75, 67
4, 325056, Note_off_c, 2, 75, 67
4, 325056, Note_on_c, 2, 77, 67
4, 325120, Note_off_c, 2, 77, 67
4, 325120, Note_on_c, 2, 79, 67
4, 325184, Note_off_c, 2, 79, 67
4, 325248, Note_off_c, 2, 79, 67
4, 325248, Note_on_c, 2, 75, 67
4, 325248, Note_on_c, 2, 79, 67
4, 325312, Note_off_c, 2, 75, 67
4, 325312, Note_off_c, 2, 79, 67
4, 325376, Note_off_c, 2, 75, 67
4, 325376, Note_off_c, 2, 79, 67
4, 325376, Note_on_c, 2, 75, 67
4, 325376, Note_on_c, 2, 79, 67
4, 325440, Note_off_c, 2, 75, 67
4, 325440, Note_off_c, 2, 79, 67
4, 325504, Note_off_c, 2, 75, 67
4, 325504, Note_off_c, 2, 79, 67
4, 325504, Note_on_c, 2, 75, 67
4, 325568, Note_off_c, 2, 75, 67
4, 325568, Note_on_c, 2, 77, 67
4, 325632, Note_off_c, 2, 77, 67
4, 325632, Note_on_c, 2, 79, 67
4, 325696, Note_off_c, 2, 79, 67
4, 325760, Note_off_c, 2, 79, 67
4, 325760, Note_on_c, 2, 75, 67
4, 325760, Note_on_c, 2, 79, 67
4, 325824, Note_off_c, 2, 75, 67
4, 325824, Note_off_c, 2, 79, 67
4, 325888, Note_off_c, 2, 75, 67
4, 325888, Note_off_c, 2, 79, 67
4, 325888, Note_on_c, 2, 75, 67
4, 325888, Note_on_c, 2, 80, 67
4, 325920, Note_off_c, 2, 75, 67
4, 325920, Note_off_c, 2, 80, 67
4, 325952, Note_off_c, 2, 75, 67
4, 325952, Note_off_c, 2, 80, 67
4, 325952, Note_on_c, 2, 74, 67
4, 326016, Note_off_c, 2, 74, 67
4, 326016, Note_on_c, 2, 72, 67
4, 326080, Note_off_c, 2, 72, 67
4, 326080, Note_on_c, 2, 74, 67
4, 326080, Note_on_c, 2, 79, 67
4, 326112, Note_off_c, 2, 74, 67
4, 326112, Note_off_c, 2, 79, 67
4, 326144, Note_off_c, 2, 74, 67
4, 326144, Note_off_c, 2, 79, 67
4, 326144, Note_on_c, 2, 70, 67
4, 326144, Note_on_c, 2, 77, 67
4, 326208, Note_off_c, 2, 70, 67
4, 326208, Note_off_c, 2, 77, 67
4, 326272, Note_off_c, 2, 70, 67
4, 326272, Note_off_c, 2, 77, 67
4, 326272, Note_on_c, 2, 68, 67
4, 326272, Note_on_c, 2, 70, 67
4, 326336, Note_off_c, 2, 68, 67
4, 326336, Note_off_c, 2, 70, 67
4, 326400, Note_off_c, 2, 68, 67
4, 326400, Note_off_c, 2, 70, 67
4, 326400, Note_on_c, 2, 68, 67
4, 326400, Note_on_c, 2, 70, 67
4, 326464, Note_off_c, 2, 68, 67
4, 326464, Note_off_c, 2, 70, 67
4, 326528, Note_off_c, 2, 68, 67
4, 326528, Note_off_c, 2, 70, 67
4, 326528, Note_on_c, 2, 74, 67
4, 326592, Note_off_c, 2, 74, 67
4, 326592, Note_on_c, 2, 75, 67
4, 326656, Note_off_c, 2, 75, 67
4, 326656, Note_on_c, 2, 77, 67
4, 326784, Note_off_c, 2, 77, 67
4, 326784, Note_on_c, 2, 74, 67
4, 326784, Note_on_c, 2, 80, 67
4, 326848, Note_off_c, 2, 74, 67
4, 326848, Note_off_c, 2, 80, 67
4, 326912, Note_off_c, 2, 74, 67
4, 326912, Note_off_c, 2, 80, 67
4, 326912, Note_on_c, 2, 74, 67
4, 326912, Note_on_c, 2, 79, 67
4, 326976, Note_off_c, 2, 74, 67
4, 326976, Note_off_c, 2, 79, 67
4, 327040, Note_off_c, 2, 74, 67
4, 327040, Note_off_c, 2, 79, 67
4, 327040, Note_on_c, 2, 77, 67
4, 327104, Note_off_c, 2, 77, 67
4, 327168, Note_off_c, 2, 77, 67
4, 327168, Note_on_c, 2, 75, 67
4, 327232, Note_off_c, 2, 75, 67
4, 327296, Note_off_c, 2, 75, 67
4, 327296, Note_on_c, 2, 70, 67
4, 327296, Note_on_c, 2, 74, 67
4, 327360, Note_off_c, 2, 70, 67
4, 327360, Note_off_c, 2, 74, 67
4, 327424, Note_off_c, 2, 70, 67
4, 327424, Note_off_c, 2, 74, 67
4, 327424, Note_on_c, 2, 72, 67
4, 327424, Note_on_c, 2, 74, 67
4, 327488, Note_off_c, 2, 72, 67
4, 327488, Note_off_c, 2, 74, 67
4, 327552, Note_off_c, 2, 72, 67
4, 327552, Note_off_c, 2, 74, 67
4, 327552, Note_on_c, 2, 70, 67
4, 327552, Note_on_c, 2, 74, 67
4, 327616, Note_off_c, 2, 70, 67
4, 327616, Note_off_c, 2, 74, 67
4, 327680, Note_off_c, 2, 70, 67
4, 327680, Note_off_c, 2, 74, 67
4, 327680, Note_on_c, 2, 80, 67
4, 327680, Note_on_c, 2, 84, 67
4, 327936, Note_off_c, 2, 80, 67
4, 327936, Note_off_c, 2, 84, 67
4, 327936, Note_on_c, 2, 70, 67
4, 327936, Note_on_c, 2, 74, 67
4, 327952, Note_off_c, 2, 70, 67
4, 327952, Note_off_c, 2, 74, 67
4, 327968, Note_off_c, 2, 70, 67
4, 327968, Note_off_c, 2, 74, 67
4, 327968, Note_on_c, 2, 72, 67
4, 327968, Note_on_c, 2, 75, 67
4, 327984, Note_off_c, 2, 72, 67
4, 327984, Note_off_c, 2, 75, 67
4, 328000, Note_off_c, 2, 72, 67
4, 328000, Note_off_c, 2, 75, 67
4, 328000, Note_on_c, 2, 70, 67
4, 328000, Note_on_c, 2, 74, 67
4, 328032, Note_off_c, 2, 70, 67
4, 328032, Note_off_c, 2, 74, 67
4, 328064, Note_off_c, 2, 70, 67
4, 328064, Note_off_c, 2, 74, 67
4, 328064, Note_on_c, 2, 68, 67
4, 328064, Note_on_c, 2, 72, 67
4, 328096, Note_off_c, 2, 68, 67
4, 328096, Note_off_c, 2, 72, 67
4, 328128, Note_off_c, 2, 68, 67
4, 328128, Note_off_c, 2, 72, 67
4, 328128, Note_on_c, 2, 74, 67
4, 328128, Note_on_c, 2, 77, 67
4, 328160, Note_off_c, 2, 74, 67
4, 328160, Note_off_c, 2, 77, 67
4, 328192, Note_off_c, 2, 74, 67
4, 328192, Note_off_c, 2, 77, 67
4, 328192, Note_on_c, 2, 75, 67
4, 328192, Note_on_c, 2, 79, 67
4, 328320, Note_off_c, 2, 75, 67
4, 328320, Note_off_c, 2, 79, 67
4, 328320, Note_on_c, 2, 70, 67
4, 328384, Note_off_c, 2, 70, 67
4, 328448, Note_off_c, 2, 70, 67
4, 328448, Note_on_c, 2, 70, 67
4, 328512, Note_off_c, 2, 70, 67
4, 328576, Note_off_c, 2, 70, 67
4, 328576, Note_on_c, 2, 75, 67
4, 328576, Note_on_c, 2, 79, 67
4, 328640, Note_off_c, 2, 75, 67
4, 328640, Note_off_c, 2, 79, 67
4, 328640, Note_on_c, 2, 77, 67
4, 328640, Note_on_c, 2, 80, 67
4, 328704, Note_off_c, 2, 77, 67
4, 328704, Note_off_c, 2, 80, 67
4, 328704, Note_on_c, 2, 79, 67
4, 328704, Note_on_c, 2, 82, 67
4, 328768, Note_off_c, 2, 79, 67
4, 328768, Note_off_c, 2, 82, 67
4, 328832, Note_off_c, 2, 79, 67
4, 328832, Note_off_c, 2, 82, 67
4, 328832, Note_on_c, 2, 79, 67
4, 328832, Note_on_c, 2, 82, 67
4, 328896, Note_off_c, 2, 79, 67
4, 328896, Note_off_c, 2, 82, 67
4, 328960, Note_off_c, 2, 79, 67
4, 328960, Note_off_c, 2, 82, 67
4, 328960, Note_on_c, 2, 70, 67
4, 328960, Note_on_c, 2, 79, 67
4, 329024, Note_off_c, 2, 70, 67
4, 329024, Note_off_c, 2, 79, 67
4, 329088, Note_off_c, 2, 70, 67
4, 329088, Note_off_c, 2, 79, 67
4, 329088, Note_on_c, 2, 70, 67
4, 329088, Note_on_c, 2, 75, 67
4, 329152, Note_off_c, 2, 70, 67
4, 329152, Note_off_c, 2, 75, 67
4, 329216, Note_off_c, 2, 70, 67
4, 329216, Note_off_c, 2, 75, 67
4, 329216, Note_on_c, 2, 84, 67
4, 329216, Note_on_c, 2, 87, 67
4, 329280, Note_off_c, 2, 84, 67
4, 329280, Note_off_c, 2, 87, 67
4, 329344, Note_off_c, 2, 84, 67
4, 329344, Note_off_c, 2, 87, 67
4, 329344, Note_on_c, 2, 82, 67
4, 329344, Note_on_c, 2, 86, 67
4, 329408, Note_off_c, 2, 82, 67
4, 329408, Note_off_c, 2, 86, 67
4, 329472, Note_off_c, 2, 82, 67
4, 329472, Note_off_c, 2, 86, 67
4, 329472, Note_on_c, 2, 80, 67
4, 329472, Note_on_c, 2, 84, 67
4, 329536, Note_off_c, 2, 80, 67
4, 329536, Note_off_c, 2, 84, 67
4, 329600, Note_off_c, 2, 80, 67
4, 329600, Note_off_c, 2, 84, 67
4, 329600, Note_on_c, 2, 79, 67
4, 329600, Note_on_c, 2, 87, 67
4, 329664, Note_off_c, 2, 79, 67
4, 329664, Note_off_c, 2, 87, 67
4, 329728, Note_off_c, 2, 79, 67
4, 329728, Note_off_c, 2, 87, 67
4, 329728, Note_on_c, 2, 75, 67
4, 329728, Note_on_c, 2, 82, 67
4, 329792, Note_off_c, 2, 75, 67
4, 329792, Note_off_c, 2, 82, 67
4, 329856, Note_off_c, 2, 75, 67
4, 329856, Note_off_c, 2, 82, 67
4, 329856, Note_on_c, 2, 79, 67
4, 329920, Note_off_c, 2, 79, 67
4, 329984, Note_off_c, 2, 79, 67
4, 329984, Note_on_c, 2, 67, 67
4, 329984, Note_on_c, 2, 75, 67
4, 330048, Note_off_c, 2, 67, 67
4, 330048, Note_off_c, 2, 75, 67
4, 330112, Note_off_c, 2, 67, 67
4, 330112, Note_off_c, 2, 75, 67
4, 330112, Note_on_c, 2, 68, 67
4, 330112, Note_on_c, 2, 74, 67
4, 330144, Note_off_c, 2, 68, 67
4, 330144, Note_off_c, 2, 74, 67
4, 330176, Note_off_c, 2, 68, 67
4, 330176, Note_off_c, 2, 74, 67
4, 330176, Note_on_c, 2, 74, 67
4, 330176, Note_on_c, 2, 79, 67
4, 330208, Note_off_c, 2, 74, 67
4, 330208, Note_off_c, 2, 79, 67
4, 330240, Note_off_c, 2, 74, 67
4, 330240, Note_off_c, 2, 79, 67
4, 330240, Note_on_c, 2, 70, 67
4, 330240, Note_on_c, 2, 77, 67
4, 330304, Note_off_c, 2, 70, 67
4, 330304, Note_off_c, 2, 77, 67
4, 330368, Note_off_c, 2, 70, 67
4, 330368, Note_off_c, 2, 77, 67
4, 330368, Note_on_c, 2, 65, 67
4, 330368, Note_on_c, 2, 70, 67
4, 330432, Note_off_c, 2, 65, 67
4, 330432, Note_off_c, 2, 70, 67
4, 330496, Note_off_c, 2, 65, 67
4, 330496, Note_off_c, 2, 70, 67
4, 330496, Note_on_c, 2, 68, 67
4, 330496, Note_on_c, 2, 70, 67
4, 330560, Note_off_c, 2, 68, 67
4, 330560, Note_off_c, 2, 70, 67
4, 330624, Note_off_c, 2, 68, 67
4, 330624, Note_off_c, 2, 70, 67
4, 330624, Note_on_c, 2, 70, 67
4, 330624, Note_on_c, 2, 79, 67
4, 330688, Note_off_c, 2, 70, 67
4, 330688, Note_off_c, 2, 79, 67
4, 330688, Note_on_c, 2, 77, 67
4, 330688, Note_on_c, 2, 80, 67
4, 330752, Note_off_c, 2, 77, 67
4, 330752, Note_off_c, 2, 80, 67
4, 330752, Note_on_c, 2, 79, 67
4, 330752, Note_on_c, 2, 82, 67
4, 330816, Note_off_c, 2, 79, 67
4, 330816, Note_off_c, 2, 82, 67
4, 330880, Note_off_c, 2, 79, 67
4, 330880, Note_off_c, 2, 82, 67
4, 330880, Note_on_c, 2, 79, 67
4, 330880, Note_on_c, 2, 82, 67
4, 330944, Note_off_c, 2, 79, 67
4, 330944, Note_off_c, 2, 82, 67
4, 331008, Note_off_c, 2, 79, 67
4, 331008, Note_off_c, 2, 82, 67
4, 331008, Note_on_c, 2, 70, 67
4, 331008, Note_on_c, 2, 79, 67
4, 331072, Note_off_c, 2, 70, 67
4, 331072, Note_off_c, 2, 79, 67
4, 331136, Note_off_c, 2, 70, 67
4, 331136, Note_off_c, 2, 79, 67
4, 331136, Note_on_c, 2, 75, 67
4, 331136, Note_on_c, 2, 82, 67
4, 331200, Note_off_c, 2, 75, 67
4, 331200, Note_off_c, 2, 82, 67
4, 331264, Note_off_c, 2, 75, 67
4, 331264, Note_off_c, 2, 82, 67
4, 331264, Note_on_c, 2, 84, 67
4, 331264, Note_on_c, 2, 87, 67
4, 331328, Note_off_c, 2, 84, 67
4, 331328, Note_off_c, 2, 87, 67
4, 331392, Note_off_c, 2, 84, 67
4, 331392, Note_off_c, 2, 87, 67
4, 331392, Note_on_c, 2, 82, 67
4, 331392, Note_on_c, 2, 86, 67
4, 331456, Note_off_c, 2, 82, 67
4, 331456, Note_off_c, 2, 86, 67
4, 331520, Note_off_c, 2, 82, 67
4, 331520, Note_off_c, 2, 86, 67
4, 331520, Note_on_c, 2, 80, 67
4, 331520, Note_on_c, 2, 84, 67
4, 331584, Note_off_c, 2, 80, 67
4, 331584, Note_off_c, 2, 84, 67
4, 331648, Note_off_c, 2, 80, 67
4, 331648, Note_off_c, 2, 84, 67
4, 331648, Note_on_c, 2, 70, 67
4, 331648, Note_on_c, 2, 74, 67
4, 331680, Note_off_c, 2, 70, 67
4, 331680, Note_off_c, 2, 74, 67
4, 331712, Note_off_c, 2, 70, 67
4, 331712, Note_off_c, 2, 74, 67
4, 331712, Note_on_c, 2, 77, 67
4, 331712, Note_on_c, 2, 80, 67
4, 331744, Note_off_c, 2, 77, 67
4, 331744, Note_off_c, 2, 80, 67
4, 331776, Note_off_c, 2, 77, 67
4, 331776, Note_off_c, 2, 80, 67
4, 331776, Note_on_c, 2, 77, 67
4, 331776, Note_on_c, 2, 82, 67
4, 331840, Note_off_c, 2, 77, 67
4, 331840, Note_off_c, 2, 82, 67
4, 331904, Note_off_c, 2, 77, 67
4, 331904, Note_off_c, 2, 82, 67
4, 331904, Note_on_c, 2, 80, 67
4, 331904, Note_on_c, 2, 87, 67
4, 331968, Note_off_c, 2, 80, 67
4, 331968, Note_off_c, 2, 87, 67
4, 332032, Note_off_c, 2, 80, 67
4, 332032, Note_off_c, 2, 87, 67
4, 332032, Note_on_c, 2, 82, 67
4, 332032, Note_on_c, 2, 86, 67
4, 332096, Note_off_c, 2, 82, 67
4, 332096, Note_off_c, 2, 86, 67
4, 332160, Note_off_c, 2, 82, 67
4, 332160, Note_off_c, 2, 86, 67
4, 332160, Note_on_c, 2, 80, 67
4, 332160, Note_on_c, 2, 89, 67
4, 332224, Note_off_c, 2, 80, 67
4, 332224, Note_off_c, 2, 89, 67
4, 332288, Note_off_c, 2, 80, 67
4, 332288, Note_off_c, 2, 89, 67
4, 332288, Note_on_c, 2, 79, 67
4, 332288, Note_on_c, 2, 87, 67
4, 332352, Note_off_c, 2, 79, 67
4, 332352, Note_off_c, 2, 87, 67
4, 332416, Note_off_c, 2, 79, 67
4, 332416, Note_off_c, 2, 87, 67
4, 332416, Note_on_c, 2, 70, 67
4, 332416, Note_on_c, 2, 82, 67
4, 332480, Note_off_c, 2, 70, 67
4, 332480, Note_off_c, 2, 82, 67
4, 332544, Note_off_c, 2, 70, 67
4, 332544, Note_off_c, 2, 82, 67
4, 332544, Note_on_c, 2, 70, 67
4, 332544, Note_on_c, 2, 82, 67
4, 332608, Note_off_c, 2, 70, 67
4, 332608, Note_off_c, 2, 82, 67
4, 332672, Note_off_c, 2, 70, 67
4, 332672, Note_off_c, 2, 82, 67
4, 332672, Note_on_c, 2, 75, 67
4, 332736, Note_off_c, 2, 75, 67
4, 332736, Note_on_c, 2, 77, 67
4, 332800, Note_off_c, 2, 77, 67
4, 332800, Note_on_c, 2, 79, 67
4, 332864, Note_off_c, 2, 79, 67
4, 332928, Note_off_c, 2, 79, 67
4, 332928, Note_on_c, 2, 75, 67
4, 332928, Note_on_c, 2, 79, 67
4, 332992, Note_off_c, 2, 75, 67
4, 332992, Note_off_c, 2, 79, 67
4, 333056, Note_off_c, 2, 75, 67
4, 333056, Note_off_c, 2, 79, 67
4, 333056, Note_on_c, 2, 75, 67
4, 333056, Note_on_c, 2, 79, 67
4, 333120, Note_off_c, 2, 75, 67
4, 333120, Note_off_c, 2, 79, 67
4, 333184, Note_off_c, 2, 75, 67
4, 333184, Note_off_c, 2, 79, 67
4, 333184, Note_on_c, 2, 75, 67
4, 333248, Note_off_c, 2, 75, 67
4, 333248, Note_on_c, 2, 77, 67
4, 333312, Note_off_c, 2, 77, 67
4, 333312, Note_on_c, 2, 79, 67
4, 333376, Note_off_c, 2, 79, 67
4, 333440, Note_off_c, 2, 79, 67
4, 333440, Note_on_c, 2, 75, 67
4, 333440, Note_on_c, 2, 79, 67
4, 333504, Note_off_c, 2, 75, 67
4, 333504, Note_off_c, 2, 79, 67
4, 333568, Note_off_c, 2, 75, 67
4, 333568, Note_off_c, 2, 79, 67
4, 333568, Note_on_c, 2, 75, 67
4, 333568, Note_on_c, 2, 79, 67
4, 333632, Note_off_c, 2, 75, 67
4, 333632, Note_off_c, 2, 79, 67
4, 333696, Note_off_c, 2, 75, 67
4, 333696, Note_off_c, 2, 79, 67
4, 333696, Note_on_c, 2, 75, 67
4, 333760, Note_off_c, 2, 75, 67
4, 333760, Note_on_c, 2, 77, 67
4, 333824, Note_off_c, 2, 77, 67
4, 333824, Note_on_c, 2, 79, 67
4, 333888, Note_off_c, 2, 79, 67
4, 333952, Note_off_c, 2, 79, 67
4, 333952, Note_on_c, 2, 75, 67
4, 333952, Note_on_c, 2, 79, 67
4, 334016, Note_off_c, 2, 75, 67
4, 334016, Note_off_c, 2, 79, 67
4, 334080, Note_off_c, 2, 75, 67
4, 334080, Note_off_c, 2, 79, 67
4, 334080, Note_on_c, 2, 75, 67
4, 334080, Note_on_c, 2, 80, 67
4, 334112, Note_off_c, 2, 75, 67
4, 334112, Note_off_c, 2, 80, 67
4, 334144, Note_off_c, 2, 75, 67
4, 334144, Note_off_c, 2, 80, 67
4, 334144, Note_on_c, 2, 74, 67
4, 334176, Note_off_c, 2, 74, 67
4, 334208, Note_off_c, 2, 74, 67
4, 334208, Note_on_c, 2, 72, 67
4, 334240, Note_off_c, 2, 72, 67
4, 334272, Note_off_c, 2, 72, 67
4, 334272, Note_on_c, 2, 74, 67
4, 334272, Note_on_c, 2, 79, 67
4, 334304, Note_off_c, 2, 74, 67
4, 334304, Note_off_c, 2, 79, 67
4, 334336, Note_off_c, 2, 74, 67
4, 334336, Note_off_c, 2, 79, 67
4, 334336, Note_on_c, 2, 70, 67
4, 334336, Note_on_c, 2, 77, 67
4, 334400, Note_off_c, 2, 70, 67
4, 334400, Note_off_c, 2, 77, 67
4, 334464, Note_off_c, 2, 70, 67
4, 334464, Note_off_c, 2, 77, 67
4, 334464, Note_on_c, 2, 68, 67
4, 334464, Note_on_c, 2, 70, 67
4, 334528, Note_off_c, 2, 68, 67
4, 334528, Note_off_c, 2, 70, 67
4, 334592, Note_off_c, 2, 68, 67
4, 334592, Note_off_c, 2, 70, 67
4, 334592, Note_on_c, 2, 68, 67
4, 334592, Note_on_c, 2, 70, 67
4, 334656, Note_off_c, 2, 68, 67
4, 334656, Note_off_c, 2, 70, 67
4, 334720, Note_off_c, 2, 68, 67
4, 334720, Note_off_c, 2, 70, 67
4, 334720, Note_on_c, 2, 74, 67
4, 334784, Note_off_c, 2, 74, 67
4, 334784, Note_on_c, 2, 75, 67
4, 334848, Note_off_c, 2, 75, 67
4, 334848, Note_on_c, 2, 77, 67
4, 334912, Note_off_c, 2, 77, 67
4, 334976, Note_off_c, 2, 77, 67
4, 334976, Note_on_c, 2, 74, 67
4, 334976, Note_on_c, 2, 77, 67
4, 335040, Note_off_c, 2, 74, 67
4, 335040, Note_off_c, 2, 77, 67
4, 335104, Note_off_c, 2, 74, 67
4, 335104, Note_off_c, 2, 77, 67
4, 335104, Note_on_c, 2, 74, 67
4, 335104, Note_on_c, 2, 77, 67
4, 335168, Note_off_c, 2, 74, 67
4, 335168, Note_off_c, 2, 77, 67
4, 335232, Note_off_c, 2, 74, 67
4, 335232, Note_off_c, 2, 77, 67
4, 335232, Note_on_c, 2, 74, 67
4, 335296, Note_off_c, 2, 74, 67
4, 335296, Note_on_c, 2, 75, 67
4, 335360, Note_off_c, 2, 75, 67
4, 335360, Note_on_c, 2, 77, 67
4, 335424, Note_off_c, 2, 77, 67
4, 335488, Note_off_c, 2, 77, 67
4, 335488, Note_on_c, 2, 74, 67
4, 335488, Note_on_c, 2, 77, 67
4, 335552, Note_off_c, 2, 74, 67
4, 335552, Note_off_c, 2, 77, 67
4, 335616, Note_off_c, 2, 74, 67
4, 335616, Note_off_c, 2, 77, 67
4, 335616, Note_on_c, 2, 74, 67
4, 335616, Note_on_c, 2, 77, 67
4, 335680, Note_off_c, 2, 74, 67
4, 335680, Note_off_c, 2, 77, 67
4, 335744, Note_off_c, 2, 74, 67
4, 335744, Note_off_c, 2, 77, 67
4, 335744, Note_on_c, 2, 74, 67
4, 335808, Note_off_c, 2, 74, 67
4, 335808, Note_on_c, 2, 75, 67
4, 335872, Note_off_c, 2, 75, 67
4, 335872, Note_on_c, 2, 70, 67
4, 335872, Note_on_c, 2, 77, 67
4, 335936, Note_off_c, 2, 70, 67
4, 335936, Note_off_c, 2, 77, 67
4, 336000, Note_off_c, 2, 70, 67
4, 336000, Note_off_c, 2, 77, 67
4, 336000, Note_on_c, 2, 74, 67
4, 336000, Note_on_c, 2, 77, 67
4, 336064, Note_off_c, 2, 74, 67
4, 336064, Note_off_c, 2, 77, 67
4, 336128, Note_off_c, 2, 74, 67
4, 336128, Note_off_c, 2, 77, 67
4, 336128, Note_on_c, 2, 74, 67
4, 336128, Note_on_c, 2, 79, 67
4, 336160, Note_off_c, 2, 74, 67
4, 336160, Note_off_c, 2, 79, 67
4, 336192, Note_off_c, 2, 74, 67
4, 336192, Note_off_c, 2, 79, 67
4, 336192, Note_on_c, 2, 72, 67
4, 336192, Note_on_c, 2, 77, 67
4, 336224, Note_off_c, 2, 72, 67
4, 336224, Note_off_c, 2, 77, 67
4, 336256, Note_off_c, 2, 72, 67
4, 336256, Note_off_c, 2, 77, 67
4, 336256, Note_on_c, 2, 70, 67
4, 336256, Note_on_c, 2, 77, 67
4, 336288, Note_off_c, 2, 70, 67
4, 336288, Note_off_c, 2, 77, 67
4, 336320, Note_off_c, 2, 70, 67
4, 336320, Note_off_c, 2, 77, 67
4, 336320, Note_on_c, 2, 68, 67
4, 336320, Note_on_c, 2, 79, 67
4, 336352, Note_off_c, 2, 68, 67
4, 336352, Note_off_c, 2, 79, 67
4, 336384, Note_off_c, 2, 68, 67
4, 336384, Note_off_c, 2, 79, 67
4, 336384, Note_on_c, 2, 67, 67
4, 336384, Note_on_c, 2, 75, 67
4, 336448, Note_off_c, 2, 67, 67
4, 336448, Note_off_c, 2, 75, 67
4, 336512, Note_off_c, 2, 67, 67
4, 336512, Note_off_c, 2, 75, 67
4, 336512, Note_on_c, 2, 70, 67
4, 336576, Note_off_c, 2, 70, 67
4, 336640, Note_off_c, 2, 70, 67
4, 336640, Note_on_c, 2, 70, 67
4, 336640, Note_on_c, 2, 79, 67
4, 336704, Note_off_c, 2, 70, 67
4, 336704, Note_off_c, 2, 79, 67
4, 336768, Note_off_c, 2, 70, 67
4, 336768, Note_off_c, 2, 79, 67
4, 336768, Note_on_c, 2, 75, 67
4, 336832, Note_off_c, 2, 75, 67
4, 336832, Note_on_c, 2, 77, 67
4, 336896, Note_off_c, 2, 77, 67
4, 336896, Note_on_c, 2, 79, 67
4, 336960, Note_off_c, 2, 79, 67
4, 337024, Note_off_c, 2, 79, 67
4, 337024, Note_on_c, 2, 75, 67
4, 337024, Note_on_c, 2, 79, 67
4, 337088, Note_off_c, 2, 75, 67
4, 337088, Note_off_c, 2, 79, 67
4, 337152, Note_off_c, 2, 75, 67
4, 337152, Note_off_c, 2, 79, 67
4, 337152, Note_on_c, 2, 75, 67
4, 337152, Note_on_c, 2, 79, 67
4, 337216, Note_off_c, 2, 75, 67
4, 337216, Note_off_c, 2, 79, 67
4, 337280, Note_off_c, 2, 75, 67
4, 337280, Note_off_c, 2, 79, 67
4, 337280, Note_on_c, 2, 75, 67
4, 337344, Note_off_c, 2, 75, 67
4, 337344, Note_on_c, 2, 77, 67
4, 337408, Note_off_c, 2, 77, 67
4, 337408, Note_on_c, 2, 79, 67
4, 337472, Note_off_c, 2, 79, 67
4, 337536, Note_off_c, 2, 79, 67
4, 337536, Note_on_c, 2, 75, 67
4, 337536, Note_on_c, 2, 79, 67
4, 337600, Note_off_c, 2, 75, 67
4, 337600, Note_off_c, 2, 79, 67
4, 337664, Note_off_c, 2, 75, 67
4, 337664, Note_off_c, 2, 79, 67
4, 337664, Note_on_c, 2, 75, 67
4, 337664, Note_on_c, 2, 79, 67
4, 337728, Note_off_c, 2, 75, 67
4, 337728, Note_off_c, 2, 79, 67
4, 337792, Note_off_c, 2, 75, 67
4, 337792, Note_off_c, 2, 79, 67
4, 337792, Note_on_c, 2, 75, 67
4, 337856, Note_off_c, 2, 75, 67
4, 337856, Note_on_c, 2, 77, 67
4, 337920, Note_off_c, 2, 77, 67
4, 337920, Note_on_c, 2, 79, 67
4, 337984, Note_off_c, 2, 79, 67
4, 338048, Note_off_c, 2, 79, 67
4, 338048, Note_on_c, 2, 75, 67
4, 338048, Note_on_c, 2, 79, 67
4, 338112, Note_off_c, 2, 75, 67
4, 338112, Note_off_c, 2, 79, 67
4, 338176, Note_off_c, 2, 75, 67
4, 338176, Note_off_c, 2, 79, 67
4, 338176, Note_on_c, 2, 75, 67
4, 338176, Note_on_c, 2, 80, 67
4, 338208, Note_off_c, 2, 75, 67
4, 338208, Note_off_c, 2, 80, 67
4, 338240, Note_off_c, 2, 75, 67
4, 338240, Note_off_c, 2, 80, 67
4, 338240, Note_on_c, 2, 74, 67
4, 338304, Note_off_c, 2, 74, 67
4, 338304, Note_on_c, 2, 72, 67
4, 338368, Note_off_c, 2, 72, 67
4, 338368, Note_on_c, 2, 74, 67
4, 338368, Note_on_c, 2, 79, 67
4, 338400, Note_off_c, 2, 74, 67
4, 338400, Note_off_c, 2, 79, 67
4, 338432, Note_off_c, 2, 74, 67
4, 338432, Note_off_c, 2, 79, 67
4, 338432, Note_on_c, 2, 70, 67
4, 338432, Note_on_c, 2, 77, 67
4, 338496, Note_off_c, 2, 70, 67
4, 338496, Note_off_c, 2, 77, 67
4, 338560, Note_off_c, 2, 70, 67
4, 338560, Note_off_c, 2, 77, 67
4, 338560, Note_on_c, 2, 68, 67
4, 338560, Note_on_c, 2, 70, 67
4, 338624, Note_off_c, 2, 68, 67
4, 338624, Note_off_c, 2, 70, 67
4, 338688, Note_off_c, 2, 68, 67
4, 338688, Note_off_c, 2, 70, 67
4, 338688, Note_on_c, 2, 68, 67
4, 338688, Note_on_c, 2, 70, 67
4, 338752, Note_off_c, 2, 68, 67
4, 338752, Note_off_c, 2, 70, 67
4, 338816, Note_off_c, 2, 68, 67
4, 338816, Note_off_c, 2, 70, 67
4, 338816, Note_on_c, 2, 74, 67
4, 338880, Note_off_c, 2, 74, 67
4, 338880, Note_on_c, 2, 75, 67
4, 338944, Note_off_c, 2, 75, 67
4, 338944, Note_on_c, 2, 77, 67
4, 339072, Note_off_c, 2, 77, 67
4, 339072, Note_on_c, 2, 74, 67
4, 339072, Note_on_c, 2, 80, 67
4, 339136, Note_off_c, 2, 74, 67
4, 339136, Note_off_c, 2, 80, 67
4, 339200, Note_off_c, 2, 74, 67
4, 339200, Note_off_c, 2, 80, 67
4, 339200, Note_on_c, 2, 74, 67
4, 339200, Note_on_c, 2, 79, 67
4, 339264, Note_off_c, 2, 74, 67
4, 339264, Note_off_c, 2, 79, 67
4, 339328, Note_off_c, 2, 74, 67
4, 339328, Note_off_c, 2, 79, 67
4, 339328, Note_on_c, 2, 77, 67
4, 339392, Note_off_c, 2, 77, 67
4, 339456, Note_off_c, 2, 77, 67
4, 339456, Note_on_c, 2, 75, 67
4, 339520, Note_off_c, 2, 75, 67
4, 339584, Note_off_c, 2, 75, 67
4, 339584, Note_on_c, 2, 70, 67
4, 339584, Note_on_c, 2, 74, 67
4, 339648, Note_off_c, 2, 70, 67
4, 339648, Note_off_c, 2, 74, 67
4, 339712, Note_off_c, 2, 70, 67
4, 339712, Note_off_c, 2, 74, 67
4, 339712, Note_on_c, 2, 72, 67
4, 339712, Note_on_c, 2, 74, 67
4, 339776, Note_off_c, 2, 72, 67
4, 339776, Note_off_c, 2, 74, 67
4, 339840, Note_off_c, 2, 72, 67
4, 339840, Note_off_c, 2, 74, 67
4, 339840, Note_on_c, 2, 70, 67
4, 339840, Note_on_c, 2, 74, 67
4, 339904, Note_off_c, 2, 70, 67
4, 339904, Note_off_c, 2, 74, 67
4, 339968, Note_off_c, 2, 70, 67
4, 339968, Note_off_c, 2, 74, 67
4, 339968, Note_on_c, 2, 80, 67
4, 339968, Note_on_c, 2, 84, 67
4, 340224, Note_off_c, 2, 80, 67
4, 340224, Note_off_c, 2, 84, 67
4, 340224, Note_on_c, 2, 70, 67
4, 340224, Note_on_c, 2, 74, 67
4, 340240, Note_off_c, 2, 70, 67
4, 340240, Note_off_c, 2, 74, 67
4, 340256, Note_off_c, 2, 70, 67
4, 340256, Note_off_c, 2, 74, 67
4, 340256, Note_on_c, 2, 72, 67
4, 340256, Note_on_c, 2, 75, 67
4, 340272, Note_off_c, 2, 72, 67
4, 340272, Note_off_c, 2, 75, 67
4, 340288, Note_off_c, 2, 72, 67
4, 340288, Note_off_c, 2, 75, 67
4, 340288, Note_on_c, 2, 70, 67
4, 340288, Note_on_c, 2, 74, 67
4, 340320, Note_off_c, 2, 70, 67
4, 340320, Note_off_c, 2, 74, 67
4, 340352, Note_off_c, 2, 70, 67
4, 340352, Note_off_c, 2, 74, 67
4, 340352, Note_on_c, 2, 68, 67
4, 340352, Note_on_c, 2, 72, 67
4, 340384, Note_off_c, 2, 68, 67
4, 340384, Note_off_c, 2, 72, 67
4, 340416, Note_off_c, 2, 68, 67
4, 340416, Note_off_c, 2, 72, 67
4, 340416, Note_on_c, 2, 74, 67
4, 340416, Note_on_c, 2, 77, 67
4, 340448, Note_off_c, 2, 74, 67
4, 340448, Note_off_c, 2, 77, 67
4, 340480, Note_off_c, 2, 74, 67
4, 340480, Note_off_c, 2, 77, 67
4, 340480, Note_on_c, 2, 75, 67
4, 340480, Note_on_c, 2, 79, 67
4, 340608, Note_off_c, 2, 75, 67
4, 340608, Note_off_c, 2, 79, 67
4, 340608, Note_on_c, 2, 70, 67
4, 340672, Note_off_c, 2, 70, 67
4, 340736, Note_off_c, 2, 70, 67
4, 340736, Note_on_c, 2, 70, 67
4, 340800, Note_off_c, 2, 70, 67
4, 340864, Note_off_c, 2, 70, 67
4, 340864, Note_on_c, 2, 75, 67
4, 340864, Note_on_c, 2, 79, 67
4, 340928, Note_off_c, 2, 75, 67
4, 340928, Note_off_c, 2, 79, 67
4, 340928, Note_on_c, 2, 77, 67
4, 340928, Note_on_c, 2, 80, 67
4, 340992, Note_off_c, 2, 77, 67
4, 340992, Note_off_c, 2, 80, 67
4, 340992, Note_on_c, 2, 79, 67
4, 340992, Note_on_c, 2, 82, 67
4, 341056, Note_off_c, 2, 79, 67
4, 341056, Note_off_c, 2, 82, 67
4, 341120, Note_off_c, 2, 79, 67
4, 341120, Note_off_c, 2, 82, 67
4, 341120, Note_on_c, 2, 79, 67
4, 341120, Note_on_c, 2, 82, 67
4, 341184, Note_off_c, 2, 79, 67
4, 341184, Note_off_c, 2, 82, 67
4, 341248, Note_off_c, 2, 79, 67
4, 341248, Note_off_c, 2, 82, 67
4, 341248, Note_on_c, 2, 70, 67
4, 341248, Note_on_c, 2, 79, 67
4, 341312, Note_off_c, 2, 70, 67
4, 341312, Note_off_c, 2, 79, 67
4, 341376, Note_off_c, 2, 70, 67
4, 341376, Note_off_c, 2, 79, 67
4, 341376, Note_on_c, 2, 70, 67
4, 341376, Note_on_c, 2, 75, 67
4, 341440, Note_off_c, 2, 70, 67
4, 341440, Note_off_c, 2, 75, 67
4, 341504, Note_off_c, 2, 70, 67
4, 341504, Note_off_c, 2, 75, 67
4, 341504, Note_on_c, 2, 84, 67
4, 341504, Note_on_c, 2, 87, 67
4, 341568, Note_off_c, 2, 84, 67
4, 341568, Note_off_c, 2, 87, 67
4, 341632, Note_off_c, 2, 84, 67
4, 341632, Note_off_c, 2, 87, 67
4, 341632, Note_on_c, 2, 82, 67
4, 341632, Note_on_c, 2, 86, 67
4, 341696, Note_off_c, 2, 82, 67
4, 341696, Note_off_c, 2, 86, 67
4, 341760, Note_off_c, 2, 82, 67
4, 341760, Note_off_c, 2, 86, 67
4, 341760, Note_on_c, 2, 80, 67
4, 341760, Note_on_c, 2, 84, 67
4, 341824, Note_off_c, 2, 80, 67
4, 341824, Note_off_c, 2, 84, 67
4, 341888, Note_off_c, 2, 80, 67
4, 341888, Note_off_c, 2, 84, 67
4, 341888, Note_on_c, 2, 79, 67
4, 341888, Note_on_c, 2, 87, 67
4, 341952, Note_off_c, 2, 79, 67
4, 341952, Note_off_c, 2, 87, 67
4, 342016, Note_off_c, 2, 79, 67
4, 342016, Note_off_c, 2, 87, 67
4, 342016, Note_on_c, 2, 75, 67
4, 342016, Note_on_c, 2, 82, 67
4, 342080, Note_off_c, 2, 75, 67
4, 342080, Note_off_c, 2, 82, 67
4, 342144, Note_off_c, 2, 75, 67
4, 342144, Note_off_c, 2, 82, 67
4, 342144, Note_on_c, 2, 79, 67
4, 342208, Note_off_c, 2, 79, 67
4, 342272, Note_off_c, 2, 79, 67
4, 342272, Note_on_c, 2, 67, 67
4, 342272, Note_on_c, 2, 75, 67
4, 342336, Note_off_c, 2, 67, 67
4, 342336, Note_off_c, 2, 75, 67
4, 342400, Note_off_c, 2, 67, 67
4, 342400, Note_off_c, 2, 75, 67
4, 342400, Note_on_c, 2, 68, 67
4, 342400, Note_on_c, 2, 74, 67
4, 342432, Note_off_c, 2, 68, 67
4, 342432, Note_off_c, 2, 74, 67
4, 342464, Note_off_c, 2, 68, 67
4, 342464, Note_off_c, 2, 74, 67
4, 342464, Note_on_c, 2, 74, 67
4, 342464, Note_on_c, 2, 79, 67
4, 342496, Note_off_c, 2, 74, 67
4, 342496, Note_off_c, 2, 79, 67
4, 342528, Note_off_c, 2, 74, 67
4, 342528, Note_off_c, 2, 79, 67
4, 342528, Note_on_c, 2, 70, 67
4, 342528, Note_on_c, 2, 77, 67
4, 342592, Note_off_c, 2, 70, 67
4, 342592, Note_off_c, 2, 77, 67
4, 342656, Note_off_c, 2, 70, 67
4, 342656, Note_off_c, 2, 77, 67
4, 342656, Note_on_c, 2, 65, 67
4, 342656, Note_on_c, 2, 70, 67
4, 342720, Note_off_c, 2, 65, 67
4, 342720, Note_off_c, 2, 70, 67
4, 342784, Note_off_c, 2, 65, 67
4, 342784, Note_off_c, 2, 70, 67
4, 342784, Note_on_c, 2, 68, 67
4, 342784, Note_on_c, 2, 70, 67
4, 342848, Note_off_c, 2, 68, 67
4, 342848, Note_off_c, 2, 70, 67
4, 342912, Note_off_c, 2, 68, 67
4, 342912, Note_off_c, 2, 70, 67
4, 342912, Note_on_c, 2, 70, 67
4, 342912, Note_on_c, 2, 79, 67
4, 342976, Note_off_c, 2, 70, 67
4, 342976, Note_off_c, 2, 79, 67
4, 342976, Note_on_c, 2, 77, 67
4, 342976, Note_on_c, 2, 80, 67
4, 343040, Note_off_c, 2, 77, 67
4, 343040, Note_off_c, 2, 80, 67
4, 343040, Note_on_c, 2, 79, 67
4, 343040, Note_on_c, 2, 82, 67
4, 343104, Note_off_c, 2, 79, 67
4, 343104, Note_off_c, 2, 82, 67
4, 343168, Note_off_c, 2, 79, 67
4, 343168, Note_off_c, 2, 82, 67
4, 343168, Note_on_c, 2, 79, 67
4, 343168, Note_on_c, 2, 82, 67
4, 343232, Note_off_c, 2, 79, 67
4, 343232, Note_off_c, 2, 82, 67
4, 343296, Note_off_c, 2, 79, 67
4, 343296, Note_off_c, 2, 82, 67
4, 343296, Note_on_c, 2, 70, 67
4, 343296, Note_on_c, 2, 79, 67
4, 343360, Note_off_c, 2, 70, 67
4, 343360, Note_off_c, 2, 79, 67
4, 343424, Note_off_c, 2, 70, 67
4, 343424, Note_off_c, 2, 79, 67
4, 343424, Note_on_c, 2, 75, 67
4, 343424, Note_on_c, 2, 82, 67
4, 343488, Note_off_c, 2, 75, 67
4, 343488, Note_off_c, 2, 82, 67
4, 343552, Note_off_c, 2, 75, 67
4, 343552, Note_off_c, 2, 82, 67
4, 343552, Note_on_c, 2, 84, 67
4, 343552, Note_on_c, 2, 87, 67
4, 343616, Note_off_c, 2, 84, 67
4, 343616, Note_off_c, 2, 87, 67
4, 343680, Note_off_c, 2, 84, 67
4, 343680, Note_off_c, 2, 87, 67
4, 343680, Note_on_c, 2, 82, 67
4, 343680, Note_on_c, 2, 86, 67
4, 343744, Note_off_c, 2, 82, 67
4, 343744, Note_off_c, 2, 86, 67
4, 343808, Note_off_c, 2, 82, 67
4, 343808, Note_off_c, 2, 86, 67
4, 343808, Note_on_c, 2, 80, 67
4, 343808, Note_on_c, 2, 84, 67
4, 343872, Note_off_c, 2, 80, 67
4, 343872, Note_off_c, 2, 84, 67
4, 343936, Note_off_c, 2, 80, 67
4, 343936, Note_off_c, 2, 84, 67
4, 343936, Note_on_c, 2, 70, 67
4, 343936, Note_on_c, 2, 74, 67
4, 343968, Note_off_c, 2, 70, 67
4, 343968, Note_off_c, 2, 74, 67
4, 344000, Note_off_c, 2, 70, 67
4, 344000, Note_off_c, 2, 74, 67
4, 344000, Note_on_c, 2, 77, 67
4, 344000, Note_on_c, 2, 80, 67
4, 344032, Note_off_c, 2, 77, 67
4, 344032, Note_off_c, 2, 80, 67
4, 344064, Note_off_c, 2, 77, 67
4, 344064, Note_off_c, 2, 80, 67
4, 344064, Note_on_c, 2, 77, 67
4, 344064, Note_on_c, 2, 82, 67
4, 344128, Note_off_c, 2, 77, 67
4, 344128, Note_off_c, 2, 82, 67
4, 344192, Note_off_c, 2, 77, 67
4, 344192, Note_off_c, 2, 82, 67
4, 344192, Note_on_c, 2, 80, 67
4, 344192, Note_on_c, 2, 87, 67
4, 344256, Note_off_c, 2, 80, 67
4, 344256, Note_off_c, 2, 87, 67
4, 344320, Note_off_c, 2, 80, 67
4, 344320, Note_off_c, 2, 87, 67
4, 344320, Note_on_c, 2, 82, 67
4, 344320, Note_on_c, 2, 86, 67
4, 344384, Note_off_c, 2, 82, 67
4, 344384, Note_off_c, 2, 86, 67
4, 344448, Note_off_c, 2, 82, 67
4, 344448, Note_off_c, 2, 86, 67
4, 344448, Note_on_c, 2, 80, 67
4, 344448, Note_on_c, 2, 89, 67
4, 344512, Note_off_c, 2, 80, 67
4, 344512, Note_off_c, 2, 89, 67
4, 344576, Note_off_c, 2, 80, 67
4, 344576, Note_off_c, 2, 89, 67
4, 344576, Note_on_c, 2, 79, 67
4, 344576, Note_on_c, 2, 87, 67
4, 344640, Note_off_c, 2, 79, 67
4, 344640, Note_off_c, 2, 87, 67
4, 344704, Note_off_c, 2, 79, 67
4, 344704, Note_off_c, 2, 87, 67
4, 344704, Note_on_c, 2, 70, 67
4, 344704, Note_on_c, 2, 82, 67
4, 344768, Note_off_c, 2, 70, 67
4, 344768, Note_off_c, 2, 82, 67
4, 344832, Note_off_c, 2, 70, 67
4, 344832, Note_off_c, 2, 82, 67
4, 344832, Note_on_c, 2, 70, 67
4, 344832, Note_on_c, 2, 82, 67
4, 344896, Note_off_c, 2, 70, 67
4, 344896, Note_off_c, 2, 82, 67
4, 344960, Note_off_c, 2, 70, 67
4, 344960, Note_off_c, 2, 82, 67
4, 344960, Note_on_c, 2, 75, 67
4, 345024, Note_off_c, 2, 75, 67
4, 345024, Note_on_c, 2, 77, 67
4, 345088, Note_off_c, 2, 77, 67
4, 345088, Note_on_c, 2, 79, 67
4, 345152, Note_off_c, 2, 79, 67
4, 345216, Note_off_c, 2, 79, 67
4, 345216, Note_on_c, 2, 75, 67
4, 345216, Note_on_c, 2, 79, 67
4, 345280, Note_off_c, 2, 75, 67
4, 345280, Note_off_c, 2, 79, 67
4, 345344, Note_off_c, 2, 75, 67
4, 345344, Note_off_c, 2, 79, 67
4, 345344, Note_on_c, 2, 75, 67
4, 345344, Note_on_c, 2, 79, 67
4, 345408, Note_off_c, 2, 75, 67
4, 345408, Note_off_c, 2, 79, 67
4, 345472, Note_off_c, 2, 75, 67
4, 345472, Note_off_c, 2, 79, 67
4, 345472, Note_on_c, 2, 75, 67
4, 345536, Note_off_c, 2, 75, 67
4, 345536, Note_on_c, 2, 77, 67
4, 345600, Note_off_c, 2, 77, 67
4, 345600, Note_on_c, 2, 79, 67
4, 345664, Note_off_c, 2, 79, 67
4, 345728, Note_off_c, 2, 79, 67
4, 345728, Note_on_c, 2, 75, 67
4, 345728, Note_on_c, 2, 79, 67
4, 345792, Note_off_c, 2, 75, 67
4, 345792, Note_off_c, 2, 79, 67
4, 345856, Note_off_c, 2, 75, 67
4, 345856, Note_off_c, 2, 79, 67
4, 345856, Note_on_c, 2, 75, 67
4, 345856, Note_on_c, 2, 79, 67
4, 345920, Note_off_c, 2, 75, 67
4, 345920, Note_off_c, 2, 79, 67
4, 345984, Note_off_c, 2, 75, 67
4, 345984, Note_off_c, 2, 79, 67
4, 345984, Note_on_c, 2, 75, 67
4, 346048, Note_off_c, 2, 75, 67
4, 346048, Note_on_c, 2, 77, 67
4, 346112, Note_off_c, 2, 77, 67
4, 346112, Note_on_c, 2, 79, 67
4, 346176, Note_off_c, 2, 79, 67
4, 346240, Note_off_c, 2, 79, 67
4, 346240, Note_on_c, 2, 75, 67
4, 346240, Note_on_c, 2, 79, 67
4, 346304, Note_off_c, 2, 75, 67
4, 346304, Note_off_c, 2, 79, 67
4, 346368, Note_off_c, 2, 75, 67
4, 346368, Note_off_c, 2, 79, 67
4, 346368, Note_on_c, 2, 75, 67
4, 346368, Note_on_c, 2, 80, 67
4, 346400, Note_off_c, 2, 75, 67
4, 346400, Note_off_c, 2, 80, 67
4, 346432, Note_off_c, 2, 75, 67
4, 346432, Note_off_c, 2, 80, 67
4, 346432, Note_on_c, 2, 74, 67
4, 346464, Note_off_c, 2, 74, 67
4, 346496, Note_off_c, 2, 74, 67
4, 346496, Note_on_c, 2, 72, 67
4, 346528, Note_off_c, 2, 72, 67
4, 346560, Note_off_c, 2, 72, 67
4, 346560, Note_on_c, 2, 74, 67
4, 346560, Note_on_c, 2, 79, 67
4, 346592, Note_off_c, 2, 74, 67
4, 346592, Note_off_c, 2, 79, 67
4, 346624, Note_off_c, 2, 74, 67
4, 346624, Note_off_c, 2, 79, 67
4, 346624, Note_on_c, 2, 70, 67
4, 346624, Note_on_c, 2, 77, 67
4, 346688, Note_off_c, 2, 70, 67
4, 346688, Note_off_c, 2, 77, 67
4, 346752, Note_off_c, 2, 70, 67
4, 346752, Note_off_c, 2, 77, 67
4, 346752, Note_on_c, 2, 68, 67
4, 346752, Note_on_c, 2, 70, 67
4, 346816, Note_off_c, 2, 68, 67
4, 346816, Note_off_c, 2, 70, 67
4, 346880, Note_off_c, 2, 68, 67
4, 346880, Note_off_c, 2, 70, 67
4, 346880, Note_on_c, 2, 68, 67
4, 346880, Note_on_c, 2, 70, 67
4, 346944, Note_off_c, 2, 68, 67
4, 346944, Note_off_c, 2, 70, 67
4, 347008, Note_off_c, 2, 68, 67
4, 347008, Note_off_c, 2, 70, 67
4, 347008, Note_on_c, 2, 74, 67
4, 347072, Note_off_c, 2, 74, 67
4, 347072, Note_on_c, 2, 75, 67
4, 347136, Note_off_c, 2, 75, 67
4, 347136, Note_on_c, 2, 77, 67
4, 347200, Note_off_c, 2, 77, 67
4, 347264, Note_off_c, 2, 77, 67
4, 347264, Note_on_c, 2, 74, 67
4, 347264, Note_on_c, 2, 77, 67
4, 347328, Note_off_c, 2, 74, 67
4, 347328, Note_off_c, 2, 77, 67
4, 347392, Note_off_c, 2, 74, 67
4, 347392, Note_off_c, 2, 77, 67
4, 347392, Note_on_c, 2, 74, 67
4, 347392, Note_on_c, 2, 77, 67
4, 347456, Note_off_c, 2, 74, 67
4, 347456, Note_off_c, 2, 77, 67
4, 347520, Note_off_c, 2, 74, 67
4, 347520, Note_off_c, 2, 77, 67
4, 347520, Note_on_c, 2, 74, 67
4, 347584, Note_off_c, 2, 74, 67
4, 347584, Note_on_c, 2, 75, 67
4, 347648, Note_off_c, 2, 75, 67
4, 347648, Note_on_c, 2, 77, 67
4, 347712, Note_off_c, 2, 77, 67
4, 347776, Note_off_c, 2, 77, 67
4, 347776, Note_on_c, 2, 74, 67
4, 347776, Note_on_c, 2, 77, 67
4, 347840, Note_off_c, 2, 74, 67
4, 347840, Note_off_c, 2, 77, 67
4, 347904, Note_off_c, 2, 74, 67
4, 347904, Note_off_c, 2, 77, 67
4, 347904, Note_on_c, 2, 74, 67
4, 347904, Note_on_c, 2, 77, 67
4, 347968, Note_off_c, 2, 74, 67
4, 347968, Note_off_c, 2, 77, 67
4, 348032, Note_off_c, 2, 74, 67
4, 348032, Note_off_c, 2, 77, 67
4, 348032, Note_on_c, 2, 74, 67
4, 348096, Note_off_c, 2, 74, 67
4, 348096, Note_on_c, 2, 75, 67
4, 348160, Note_off_c, 2, 75, 67
4, 348160, Note_on_c, 2, 70, 67
4, 348160, Note_on_c, 2, 77, 67
4, 348224, Note_off_c, 2, 70, 67
4, 348224, Note_off_c, 2, 77, 67
4, 348288, Note_off_c, 2, 70, 67
4, 348288, Note_off_c, 2, 77, 67
4, 348288, Note_on_c, 2, 74, 67
4, 348288, Note_on_c, 2, 77, 67
4, 348352, Note_off_c, 2, 74, 67
4, 348352, Note_off_c, 2, 77, 67
4, 348416, Note_off_c, 2, 74, 67
4, 348416, Note_off_c, 2, 77, 67
4, 348416, Note_on_c, 2, 74, 67
4, 348416, Note_on_c, 2, 79, 67
4, 348448, Note_off_c, 2, 74, 67
4, 348448, Note_off_c, 2, 79, 67
4, 348480, Note_off_c, 2, 74, 67
4, 348480, Note_off_c, 2, 79, 67
4, 348480, Note_on_c, 2, 72, 67
4, 348480, Note_on_c, 2, 77, 67
4, 348512, Note_off_c, 2, 72, 67
4, 348512, Note_off_c, 2, 77, 67
4, 348544, Note_off_c, 2, 72, 67
4, 348544, Note_off_c, 2, 77, 67
4, 348544, Note_on_c, 2, 70, 67
4, 348544, Note_on_c, 2, 77, 67
4, 348576, Note_off_c, 2, 70, 67
4, 348576, Note_off_c, 2, 77, 67
4, 348608, Note_off_c, 2, 70, 67
4, 348608, Note_off_c, 2, 77, 67
4, 348608, Note_on_c, 2, 68, 67
4, 348608, Note_on_c, 2, 79, 67
4, 348640, Note_off_c, 2, 68, 67
4, 348640, Note_off_c, 2, 79, 67
4, 348672, Note_off_c, 2, 68, 67
4, 348672, Note_off_c, 2, 79, 67
4, 348672, Note_on_c, 2, 67, 67
4, 348672, Note_on_c, 2, 75, 67
4, 348736, Note_off_c, 2, 67, 67
4, 348736, Note_off_c, 2, 75, 67
4, 348800, Note_off_c, 2, 67, 67
4, 348800, Note_off_c, 2, 75, 67
4, 348800, Note_on_c, 2, 70, 67
4, 348864, Note_off_c, 2, 70, 67
4, 348928, Note_off_c, 2, 70, 67
4, 348928, Note_on_c, 2, 70, 67
4, 348928, Note_on_c, 2, 79, 67
4, 348992, Note_off_c, 2, 70, 67
4, 348992, Note_off_c, 2, 79, 67
4, 349056, Note_off_c, 2, 70, 67
4, 349056, Note_off_c, 2, 79, 67
4, 349056, Note_on_c, 2, 75, 67
4, 349120, Note_off_c, 2, 75, 67
4, 349120, Note_on_c, 2, 77, 67
4, 349184, Note_off_c, 2, 77, 67
4, 349184, Note_on_c, 2, 79, 67
4, 349248, Note_off_c, 2, 79, 67
4, 349312, Note_off_c, 2, 79, 67
4, 349312, Note_on_c, 2, 75, 67
4, 349312, Note_on_c, 2, 79, 67
4, 349376, Note_off_c, 2, 75, 67
4, 349376, Note_off_c, 2, 79, 67
4, 349440, Note_off_c, 2, 75, 67
4, 349440, Note_off_c, 2, 79, 67
4, 349440, Note_on_c, 2, 75, 67
4, 349440, Note_on_c, 2, 79, 67
4, 349504, Note_off_c, 2, 75, 67
4, 349504, Note_off_c, 2, 79, 67
4, 349568, Note_off_c, 2, 75, 67
4, 349568, Note_off_c, 2, 79, 67
4, 349568, Note_on_c, 2, 75, 67
4, 349632, Note_off_c, 2, 75, 67
4, 349632, Note_on_c, 2, 77, 67
4, 349696, Note_off_c, 2, 77, 67
4, 349696, Note_on_c, 2, 79, 67
4, 349760, Note_off_c, 2, 79, 67
4, 349824, Note_off_c, 2, 79, 67
4, 349824, Note_on_c, 2, 75, 67
4, 349824, Note_on_c, 2, 79, 67
4, 349888, Note_off_c, 2, 75, 67
4, 349888, Note_off_c, 2, 79, 67
4, 349952, Note_off_c, 2, 75, 67
4, 349952, Note_off_c, 2, 79, 67
4, 349952, Note_on_c, 2, 75, 67
4, 349952, Note_on_c, 2, 79, 67
4, 350016, Note_off_c, 2, 75, 67
4, 350016, Note_off_c, 2, 79, 67
4, 350080, Note_off_c, 2, 75, 67
4, 350080, Note_off_c, 2, 79, 67
4, 350080, Note_on_c, 2, 75, 67
4, 350144, Note_off_c, 2, 75, 67
4, 350144, Note_on_c, 2, 77, 67
4, 350208, Note_off_c, 2, 77, 67
4, 350208, Note_on_c, 2, 79, 67
4, 350272, Note_off_c, 2, 79, 67
4, 350336, Note_off_c, 2, 79, 67
4, 350336, Note_on_c, 2, 75, 67
4, 350336, Note_on_c, 2, 79, 67
4, 350400, Note_off_c, 2, 75, 67
4, 350400, Note_off_c, 2, 79, 67
4, 350464, Note_off_c, 2, 75, 67
4, 350464, Note_off_c, 2, 79, 67
4, 350464, Note_on_c, 2, 75, 67
4, 350464, Note_on_c, 2, 80, 67
4, 350496, Note_off_c, 2, 75, 67
4, 350496, Note_off_c, 2, 80, 67
4, 350528, Note_off_c, 2, 75, 67
4, 350528, Note_off_c, 2, 80, 67
4, 350528, Note_on_c, 2, 74, 67
4, 350592, Note_off_c, 2, 74, 67
4, 350592, Note_on_c, 2, 72, 67
4, 350656, Note_off_c, 2, 72, 67
4, 350656, Note_on_c, 2, 74, 67
4, 350656, Note_on_c, 2, 79, 67
4, 350688, Note_off_c, 2, 74, 67
4, 350688, Note_off_c, 2, 79, 67
4, 350720, Note_off_c, 2, 74, 67
4, 350720, Note_off_c, 2, 79, 67
4, 350720, Note_on_c, 2, 70, 67
4, 350720, Note_on_c, 2, 77, 67
4, 350784, Note_off_c, 2, 70, 67
4, 350784, Note_off_c, 2, 77, 67
4, 350848, Note_off_c, 2, 70, 67
4, 350848, Note_off_c, 2, 77, 67
4, 350848, Note_on_c, 2, 68, 67
4, 350848, Note_on_c, 2, 70, 67
4, 350912, Note_off_c, 2, 68, 67
4, 350912, Note_off_c, 2, 70, 67
4, 350976, Note_off_c, 2, 68, 67
4, 350976, Note_off_c, 2, 70, 67
4, 350976, Note_on_c, 2, 68, 67
4, 350976, Note_on_c, 2, 70, 67
4, 351040, Note_off_c, 2, 68, 67
4, 351040, Note_off_c, 2, 70, 67
4, 351104, Note_off_c, 2, 68, 67
4, 351104, Note_off_c, 2, 70, 67
4, 351104, Note_on_c, 2, 74, 67
4, 351168, Note_off_c, 2, 74, 67
4, 351168, Note_on_c, 2, 75, 67
4, 351232, Note_off_c, 2, 75, 67
4, 351232, Note_on_c, 2, 77, 67
4, 351360, Note_off_c, 2, 77, 67
4, 351360, Note_on_c, 2, 74, 67
4, 351360, Note_on_c, 2, 80, 67
4, 351424, Note_off_c, 2, 74, 67
4, 351424, Note_off_c, 2, 80, 67
4, 351488, Note_off_c, 2, 74, 67
4, 351488, Note_off_c, 2, 80, 67
4, 351488, Note_on_c, 2, 74, 67
4, 351488, Note_on_c, 2, 79, 67
4, 351552, Note_off_c, 2, 74, 67
4, 351552, Note_off_c, 2, 79, 67
4, 351616, Note_off_c, 2, 74, 67
4, 351616, Note_off_c, 2, 79, 67
4, 351616, Note_on_c, 2, 77, 67
4, 351680, Note_off_c, 2, 77, 67
4, 351744, Note_off_c, 2, 77, 67
4, 351744, Note_on_c, 2, 75, 67
4, 351808, Note_off_c, 2, 75, 67
4, 351872, Note_off_c, 2, 75, 67
4, 351872, Note_on_c, 2, 70, 67
4, 351872, Note_on_c, 2, 74, 67
4, 351936, Note_off_c, 2, 70, 67
4, 351936, Note_off_c, 2, 74, 67
4, 352000, Note_off_c, 2, 70, 67
4, 352000, Note_off_c, 2, 74, 67
4, 352000, Note_on_c, 2, 72, 67
4, 352000, Note_on_c, 2, 74, 67
4, 352064, Note_off_c, 2, 72, 67
4, 352064, Note_off_c, 2, 74, 67
4, 352128, Note_off_c, 2, 72, 67
4, 352128, Note_off_c, 2, 74, 67
4, 352128, Note_on_c, 2, 70, 67
4, 352128, Note_on_c, 2, 74, 67
4, 352192, Note_off_c, 2, 70, 67
4, 352192, Note_off_c, 2, 74, 67
4, 352256, Note_off_c, 2, 70, 67
4, 352256, Note_off_c, 2, 74, 67
4, 352256, Note_on_c, 2, 80, 67
4, 352256, Note_on_c, 2, 84, 67
4, 352512, Note_off_c, 2, 80, 67
4, 352512, Note_off_c, 2, 84, 67
4, 352512, Note_on_c, 2, 70, 67
4, 352512, Note_on_c, 2, 74, 67
4, 352528, Note_off_c, 2, 70, 67
4, 352528, Note_off_c, 2, 74, 67
4, 352544, Note_off_c, 2, 70, 67
4, 352544, Note_off_c, 2, 74, 67
4, 352544, Note_on_c, 2, 72, 67
4, 352544, Note_on_c, 2, 75, 67
4, 352560, Note_off_c, 2, 72, 67
4, 352560, Note_off_c, 2, 75, 67
4, 352576, Note_off_c, 2, 72, 67
4, 352576, Note_off_c, 2, 75, 67
4, 352576, Note_on_c, 2, 70, 67
4, 352576, Note_on_c, 2, 74, 67
4, 352608, Note_off_c, 2, 70, 67
4, 352608, Note_off_c, 2, 74, 67
4, 352640, Note_off_c, 2, 70, 67
4, 352640, Note_off_c, 2, 74, 67
4, 352640, Note_on_c, 2, 68, 67
4, 352640, Note_on_c, 2, 72, 67
4, 352672, Note_off_c, 2, 68, 67
4, 352672, Note_off_c, 2, 72, 67
4, 352704, Note_off_c, 2, 68, 67
4, 352704, Note_off_c, 2, 72, 67
4, 352704, Note_on_c, 2, 74, 67
4, 352704, Note_on_c, 2, 77, 67
4, 352736, Note_off_c, 2, 74, 67
4, 352736, Note_off_c, 2, 77, 67
4, 352768, Note_off_c, 2, 74, 67
4, 352768, Note_off_c, 2, 77, 67
4, 352768, Note_on_c, 2, 75, 67
4, 352768, Note_on_c, 2, 79, 67
4, 352896, Note_off_c, 2, 75, 67
4, 352896, Note_off_c, 2, 79, 67
4, 352896, Note_on_c, 2, 70, 67
4, 352960, Note_off_c, 2, 70, 67
4, 353024, Note_off_c, 2, 70, 67
4, 353024, Note_on_c, 2, 70, 67
4, 353088, Note_off_c, 2, 70, 67
4, 353152, Note_off_c, 2, 70, 67
4, 353152, Note_on_c, 2, 75, 67
4, 353152, Note_on_c, 2, 79, 67
4, 353216, Note_off_c, 2, 75, 67
4, 353216, Note_off_c, 2, 79, 67
4, 353216, Note_on_c, 2, 77, 67
4, 353216, Note_on_c, 2, 80, 67
4, 353280, Note_off_c, 2, 77, 67
4, 353280, Note_off_c, 2, 80, 67
4, 353280, Note_on_c, 2, 79, 67
4, 353280, Note_on_c, 2, 82, 67
4, 353344, Note_off_c, 2, 79, 67
4, 353344, Note_off_c, 2, 82, 67
4, 353408, Note_off_c, 2, 79, 67
4, 353408, Note_off_c, 2, 82, 67
4, 353408, Note_on_c, 2, 79, 67
4, 353408, Note_on_c, 2, 82, 67
4, 353472, Note_off_c, 2, 79, 67
4, 353472, Note_off_c, 2, 82, 67
4, 353536, Note_off_c, 2, 79, 67
4, 353536, Note_off_c, 2, 82, 67
4, 353536, Note_on_c, 2, 70, 67
4, 353536, Note_on_c, 2, 79, 67
4, 353600, Note_off_c, 2, 70, 67
4, 353600, Note_off_c, 2, 79, 67
4, 353664, Note_off_c, 2, 70, 67
4, 353664, Note_off_c, 2, 79, 67
4, 353664, Note_on_c, 2, 70, 67
4, 353664, Note_on_c, 2, 75, 67
4, 353728, Note_off_c, 2, 70, 67
4, 353728, Note_off_c, 2, 75, 67
4, 353792, Note_off_c, 2, 70, 67
4, 353792, Note_off_c, 2, 75, 67
4, 353792, Note_on_c, 2, 84, 67
4, 353792, Note_on_c, 2, 87, 67
4, 353856, Note_off_c, 2, 84, 67
4, 353856, Note_off_c, 2, 87, 67
4, 353920, Note_off_c, 2, 84, 67
4, 353920, Note_off_c, 2, 87, 67
4, 353920, Note_on_c, 2, 82, 67
4, 353920, Note_on_c, 2, 86, 67
4, 353984, Note_off_c, 2, 82, 67
4, 353984, Note_off_c, 2, 86, 67
4, 354048, Note_off_c, 2, 82, 67
4, 354048, Note_off_c, 2, 86, 67
4, 354048, Note_on_c, 2, 80, 67
4, 354048, Note_on_c, 2, 84, 67
4, 354112, Note_off_c, 2, 80, 67
4, 354112, Note_off_c, 2, 84, 67
4, 354176, Note_off_c, 2, 80, 67
4, 354176, Note_off_c, 2, 84, 67
4, 354176, Note_on_c, 2, 79, 67
4, 354176, Note_on_c, 2, 87, 67
4, 354240, Note_off_c, 2, 79, 67
4, 354240, Note_off_c, 2, 87, 67
4, 354304, Note_off_c, 2, 79, 67
4, 354304, Note_off_c, 2, 87, 67
4, 354304, Note_on_c, 2, 75, 67
4, 354304, Note_on_c, 2, 82, 67
4, 354368, Note_off_c, 2, 75, 67
4, 354368, Note_off_c, 2, 82, 67
4, 354432, Note_off_c, 2, 75, 67
4, 354432, Note_off_c, 2, 82, 67
4, 354432, Note_on_c, 2, 79, 67
4, 354496, Note_off_c, 2, 79, 67
4, 354560, Note_off_c, 2, 79, 67
4, 354560, Note_on_c, 2, 67, 67
4, 354560, Note_on_c, 2, 75, 67
4, 354624, Note_off_c, 2, 67, 67
4, 354624, Note_off_c, 2, 75, 67
4, 354688, Note_off_c, 2, 67, 67
4, 354688, Note_off_c, 2, 75, 67
4, 354688, Note_on_c, 2, 68, 67
4, 354688, Note_on_c, 2, 74, 67
4, 354720, Note_off_c, 2, 68, 67
4, 354720, Note_off_c, 2, 74, 67
4, 354752, Note_off_c, 2, 68, 67
4, 354752, Note_off_c, 2, 74, 67
4, 354752, Note_on_c, 2, 74, 67
4, 354752, Note_on_c, 2, 79, 67
4, 354784, Note_off_c, 2, 74, 67
4, 354784, Note_off_c, 2, 79, 67
4, 354816, Note_off_c, 2, 74, 67
4, 354816, Note_off_c, 2, 79, 67
4, 354816, Note_on_c, 2, 70, 67
4, 354816, Note_on_c, 2, 77, 67
4, 354880, Note_off_c, 2, 70, 67
4, 354880, Note_off_c, 2, 77, 67
4, 354944, Note_off_c, 2, 70, 67
4, 354944, Note_off_c, 2, 77, 67
4, 354944, Note_on_c, 2, 65, 67
4, 354944, Note_on_c, 2, 70, 67
4, 355008, Note_off_c, 2, 65, 67
4, 355008, Note_off_c, 2, 70, 67
4, 355072, Note_off_c, 2, 65, 67
4, 355072, Note_off_c, 2, 70, 67
4, 355072, Note_on_c, 2, 68, 67
4, 355072, Note_on_c, 2, 70, 67
4, 355136, Note_off_c, 2, 68, 67
4, 355136, Note_off_c, 2, 70, 67
4, 355200, Note_off_c, 2, 68, 67
4, 355200, Note_off_c, 2, 70, 67
4, 355200, Note_on_c, 2, 70, 67
4, 355200, Note_on_c, 2, 79, 67
4, 355264, Note_off_c, 2, 70, 67
4, 355264, Note_off_c, 2, 79, 67
4, 355264, Note_on_c, 2, 77, 67
4, 355264, Note_on_c, 2, 80, 67
4, 355328, Note_off_c, 2, 77, 67
4, 355328, Note_off_c, 2, 80, 67
4, 355328, Note_on_c, 2, 79, 67
4, 355328, Note_on_c, 2, 82, 67
4, 355392, Note_off_c, 2, 79, 67
4, 355392, Note_off_c, 2, 82, 67
4, 355456, Note_off_c, 2, 79, 67
4, 355456, Note_off_c, 2, 82, 67
4, 355456, Note_on_c, 2, 79, 67
4, 355456, Note_on_c, 2, 82, 67
4, 355520, Note_off_c, 2, 79, 67
4, 355520, Note_off_c, 2, 82, 67
4, 355584, Note_off_c, 2, 79, 67
4, 355584, Note_off_c, 2, 82, 67
4, 355584, Note_on_c, 2, 70, 67
4, 355584, Note_on_c, 2, 79, 67
4, 355648, Note_off_c, 2, 70, 67
4, 355648, Note_off_c, 2, 79, 67
4, 355712, Note_off_c, 2, 70, 67
4, 355712, Note_off_c, 2, 79, 67
4, 355712, Note_on_c, 2, 75, 67
4, 355712, Note_on_c, 2, 82, 67
4, 355776, Note_off_c, 2, 75, 67
4, 355776, Note_off_c, 2, 82, 67
4, 355840, Note_off_c, 2, 75, 67
4, 355840, Note_off_c, 2, 82, 67
4, 355840, Note_on_c, 2, 84, 67
4, 355840, Note_on_c, 2, 87, 67
4, 355904, Note_off_c, 2, 84, 67
4, 355904, Note_off_c, 2, 87, 67
4, 355968, Note_off_c, 2, 84, 67
4, 355968, Note_off_c, 2, 87, 67
4, 355968, Note_on_c, 2, 82, 67
4, 355968, Note_on_c, 2, 86, 67
4, 356032, Note_off_c, 2, 82, 67
4, 356032, Note_off_c, 2, 86, 67
4, 356096, Note_off_c, 2, 82, 67
4, 356096, Note_off_c, 2, 86, 67
4, 356096, Note_on_c, 2, 80, 67
4, 356096, Note_on_c, 2, 84, 67
4, 356160, Note_off_c, 2, 80, 67
4, 356160, Note_off_c, 2, 84, 67
4, 356224, Note_off_c, 2, 80, 67
4, 356224, Note_off_c, 2, 84, 67
4, 356224, Note_on_c, 2, 70, 67
4, 356224, Note_on_c, 2, 74, 67
4, 356256, Note_off_c, 2, 70, 67
4, 356256, Note_off_c, 2, 74, 67
4, 356288, Note_off_c, 2, 70, 67
4, 356288, Note_off_c, 2, 74, 67
4, 356288, Note_on_c, 2, 77, 67
4, 356288, Note_on_c, 2, 80, 67
4, 356320, Note_off_c, 2, 77, 67
4, 356320, Note_off_c, 2, 80, 67
4, 356352, Note_off_c, 2, 77, 67
4, 356352, Note_off_c, 2, 80, 67
4, 356352, Note_on_c, 2, 77, 67
4, 356352, Note_on_c, 2, 82, 67
4, 356416, Note_off_c, 2, 77, 67
4, 356416, Note_off_c, 2, 82, 67
4, 356480, Note_off_c, 2, 77, 67
4, 356480, Note_off_c, 2, 82, 67
4, 356480, Note_on_c, 2, 80, 67
4, 356480, Note_on_c, 2, 87, 67
4, 356544, Note_off_c, 2, 80, 67
4, 356544, Note_off_c, 2, 87, 67
4, 356608, Note_off_c, 2, 80, 67
4, 356608, Note_off_c, 2, 87, 67
4, 356608, Note_on_c, 2, 82, 67
4, 356608, Note_on_c, 2, 86, 67
4, 356672, Note_off_c, 2, 82, 67
4, 356672, Note_off_c, 2, 86, 67
4, 356736, Note_off_c, 2, 82, 67
4, 356736, Note_off_c, 2, 86, 67
4, 356736, Note_on_c, 2, 80, 67
4, 356736, Note_on_c, 2, 89, 67
4, 356800, Note_off_c, 2, 80, 67
4, 356800, Note_off_c, 2, 89, 67
4, 356864, Note_off_c, 2, 80, 67
4, 356864, Note_off_c, 2, 89, 67
4, 356864, Note_on_c, 2, 79, 67
4, 356864, Note_on_c, 2, 87, 67
4, 356928, Note_off_c, 2, 79, 67
4, 356928, Note_off_c, 2, 87, 67
4, 356992, Note_off_c, 2, 79, 67
4, 356992, Note_off_c, 2, 87, 67
4, 356992, Note_on_c, 2, 70, 67
4, 356992, Note_on_c, 2, 82, 67
4, 357056, Note_off_c, 2, 70, 67
4, 357056, Note_off_c, 2, 82, 67
4, 357120, Note_off_c, 2, 70, 67
4, 357120, Note_off_c, 2, 82, 67
4, 357120, Note_on_c, 2, 70, 67
4, 357120, Note_on_c, 2, 82, 67
4, 357184, Note_off_c, 2, 70, 67
4, 357184, Note_off_c, 2, 82, 67
4, 357248, Note_off_c, 2, 70, 67
4, 357248, Note_off_c, 2, 82, 67
4, 357248, Note_on_c, 2, 75, 67
4, 357312, Note_off_c, 2, 75, 67
4, 357312, Note_on_c, 2, 77, 67
4, 357376, Note_off_c, 2, 77, 67
4, 357376, Note_on_c, 2, 79, 67
4, 357440, Note_off_c, 2, 79, 67
4, 357504, Note_off_c, 2, 79, 67
4, 357504, Note_on_c, 2, 75, 67
4, 357504, Note_on_c, 2, 79, 67
4, 357568, Note_off_c, 2, 75, 67
4, 357568, Note_off_c, 2, 79, 67
4, 357632, Note_off_c, 2, 75, 67
4, 357632, Note_off_c, 2, 79, 67
4, 357632, Note_on_c, 2, 75, 67
4, 357632, Note_on_c, 2, 79, 67
4, 357696, Note_off_c, 2, 75, 67
4, 357696, Note_off_c, 2, 79, 67
4, 357760, Note_off_c, 2, 75, 67
4, 357760, Note_off_c, 2, 79, 67
4, 357760, Note_on_c, 2, 75, 67
4, 357824, Note_off_c, 2, 75, 67
4, 357824, Note_on_c, 2, 77, 67
4, 357888, Note_off_c, 2, 77, 67
4, 357888, Note_on_c, 2, 79, 67
4, 357952, Note_off_c, 2, 79, 67
4, 358016, Note_off_c, 2, 79, 67
4, 358016, Note_on_c, 2, 75, 67
4, 358016, Note_on_c, 2, 79, 67
4, 358080, Note_off_c, 2, 75, 67
4, 358080, Note_off_c, 2, 79, 67
4, 358144, Note_off_c, 2, 75, 67
4, 358144, Note_off_c, 2, 79, 67
4, 358144, Note_on_c, 2, 75, 67
4, 358144, Note_on_c, 2, 79, 67
4, 358208, Note_off_c, 2, 75, 67
4, 358208, Note_off_c, 2, 79, 67
4, 358272, Note_off_c, 2, 75, 67
4, 358272, Note_off_c, 2, 79, 67
4, 358272, Note_on_c, 2, 75, 67
4, 358336, Note_off_c, 2, 75, 67
4, 358336, Note_on_c, 2, 77, 67
4, 358400, Note_off_c, 2, 77, 67
4, 358400, Note_on_c, 2, 79, 67
4, 358464, Note_off_c, 2, 79, 67
4, 358528, Note_off_c, 2, 79, 67
4, 358528, Note_on_c, 2, 75, 67
4, 358528, Note_on_c, 2, 79, 67
4, 358592, Note_off_c, 2, 75, 67
4, 358592, Note_off_c, 2, 79, 67
4, 358656, Note_off_c, 2, 75, 67
4, 358656, Note_off_c, 2, 79, 67
4, 358656, Note_on_c, 2, 75, 67
4, 358656, Note_on_c, 2, 80, 67
4, 358688, Note_off_c, 2, 75, 67
4, 358688, Note_off_c, 2, 80, 67
4, 358720, Note_off_c, 2, 75, 67
4, 358720, Note_off_c, 2, 80, 67
4, 358720, Note_on_c, 2, 74, 67
4, 358752, Note_off_c, 2, 74, 67
4, 358784, Note_off_c, 2, 74, 67
4, 358784, Note_on_c, 2, 72, 67
4, 358816, Note_off_c, 2, 72, 67
4, 358848, Note_off_c, 2, 72, 67
4, 358848, Note_on_c, 2, 74, 67
4, 358848, Note_on_c, 2, 79, 67
4, 358880, Note_off_c, 2, 74, 67
4, 358880, Note_off_c, 2, 79, 67
4, 358912, Note_off_c, 2, 74, 67
4, 358912, Note_off_c, 2, 79, 67
4, 358912, Note_on_c, 2, 70, 67
4, 358912, Note_on_c, 2, 77, 67
4, 358976, Note_off_c, 2, 70, 67
4, 358976, Note_off_c, 2, 77, 67
4, 359040, Note_off_c, 2, 70, 67
4, 359040, Note_off_c, 2, 77, 67
4, 359040, Note_on_c, 2, 68, 67
4, 359040, Note_on_c, 2, 70, 67
4, 359104, Note_off_c, 2, 68, 67
4, 359104, Note_off_c, 2, 70, 67
4, 359168, Note_off_c, 2, 68, 67
4, 359168, Note_off_c, 2, 70, 67
4, 359168, Note_on_c, 2, 68, 67
4, 359168, Note_on_c, 2, 70, 67
4, 359232, Note_off_c, 2, 68, 67
4, 359232, Note_off_c, 2, 70, 67
4, 359296, Note_off_c, 2, 68, 67
4, 359296, Note_off_c, 2, 70, 67
4, 359296, Note_on_c, 2, 74, 67
4, 359360, Note_off_c, 2, 74, 67
4, 359360, Note_on_c, 2, 75, 67
4, 359424, Note_off_c, 2, 75, 67
4, 359424, Note_on_c, 2, 77, 67
4, 359488, Note_off_c, 2, 77, 67
4, 359552, Note_off_c, 2, 77, 67
4, 359552, Note_on_c, 2, 74, 67
4, 359552, Note_on_c, 2, 77, 67
4, 359616, Note_off_c, 2, 74, 67
4, 359616, Note_off_c, 2, 77, 67
4, 359680, Note_off_c, 2, 74, 67
4, 359680, Note_off_c, 2, 77, 67
4, 359680, Note_on_c, 2, 74, 67
4, 359680, Note_on_c, 2, 77, 67
4, 359744, Note_off_c, 2, 74, 67
4, 359744, Note_off_c, 2, 77, 67
4, 359808, Note_off_c, 2, 74, 67
4, 359808, Note_off_c, 2, 77, 67
4, 359808, Note_on_c, 2, 74, 67
4, 359872, Note_off_c, 2, 74, 67
4, 359872, Note_on_c, 2, 75, 67
4, 359936, Note_off_c, 2, 75, 67
4, 359936, Note_on_c, 2, 77, 67
4, 360000, Note_off_c, 2, 77, 67
4, 360064, Note_off_c, 2, 77, 67
4, 360064, Note_on_c, 2, 74, 67
4, 360064, Note_on_c, 2, 77, 67
4, 360128, Note_off_c, 2, 74, 67
4, 360128, Note_off_c, 2, 77, 67
4, 360192, Note_off_c, 2, 74, 67
4, 360192, Note_off_c, 2, 77, 67
4, 360192, Note_on_c, 2, 74, 67
4, 360192, Note_on_c, 2, 77, 67
4, 360256, Note_off_c, 2, 74, 67
4, 360256, Note_off_c, 2, 77, 67
4, 360320, Note_off_c, 2, 74, 67
4, 360320, Note_off_c, 2, 77, 67
4, 360320, Note_on_c, 2, 74, 67
4, 360384, Note_off_c, 2, 74, 67
4, 360384, Note_on_c, 2, 75, 67
4, 360448, Note_off_c, 2, 75, 67
4, 360448, Note_on_c, 2, 70, 67
4, 360448, Note_on_c, 2, 77, 67
4, 360512, Note_off_c, 2, 70, 67
4, 360512, Note_off_c, 2, 77, 67
4, 360576, Note_off_c, 2, 70, 67
4, 360576, Note_off_c, 2, 77, 67
4, 360576, Note_on_c, 2, 74, 67
4, 360576, Note_on_c, 2, 77, 67
4, 360640, Note_off_c, 2, 74, 67
4, 360640, Note_off_c, 2, 77, 67
4, 360704, Note_off_c, 2, 74, 67
4, 360704, Note_off_c, 2, 77, 67
4, 360704, Note_on_c, 2, 74, 67
4, 360704, Note_on_c, 2, 79, 67
4, 360736, Note_off_c, 2, 74, 67
4, 360736, Note_off_c, 2, 79, 67
4, 360768, Note_off_c, 2, 74, 67
4, 360768, Note_off_c, 2, 79, 67
4, 360768, Note_on_c, 2, 72, 67
4, 360768, Note_on_c, 2, 77, 67
4, 360800, Note_off_c, 2, 72, 67
4, 360800, Note_off_c, 2, 77, 67
4, 360832, Note_off_c, 2, 72, 67
4, 360832, Note_off_c, 2, 77, 67
4, 360832, Note_on_c, 2, 70, 67
4, 360832, Note_on_c, 2, 77, 67
4, 360864, Note_off_c, 2, 70, 67
4, 360864, Note_off_c, 2, 77, 67
4, 360896, Note_off_c, 2, 70, 67
4, 360896, Note_off_c, 2, 77, 67
4, 360896, Note_on_c, 2, 68, 67
4, 360896, Note_on_c, 2, 79, 67
4, 360928, Note_off_c, 2, 68, 67
4, 360928, Note_off_c, 2, 79, 67
4, 360960, Note_off_c, 2, 68, 67
4, 360960, Note_off_c, 2, 79, 67
4, 360960, Note_on_c, 2, 67, 67
4, 360960, Note_on_c, 2, 75, 67
4, 361024, Note_off_c, 2, 67, 67
4, 361024, Note_off_c, 2, 75, 67
4, 361088, Note_off_c, 2, 67, 67
4, 361088, Note_off_c, 2, 75, 67
4, 361088, Note_on_c, 2, 70, 67
4, 361152, Note_off_c, 2, 70, 67
4, 361216, Note_off_c, 2, 70, 67
4, 361216, Note_on_c, 2, 70, 67
4, 361216, Note_on_c, 2, 79, 67
4, 361280, Note_off_c, 2, 70, 67
4, 361280, Note_off_c, 2, 79, 67
4, 361344, Note_off_c, 2, 70, 67
4, 361344, Note_off_c, 2, 79, 67
4, 361344, Note_on_c, 2, 75, 67
4, 361408, Note_off_c, 2, 75, 67
4, 361408, Note_on_c, 2, 77, 67
4, 361472, Note_off_c, 2, 77, 67
4, 361472, Note_on_c, 2, 79, 67
4, 361536, Note_off_c, 2, 79, 67
4, 361600, Note_off_c, 2, 79, 67
4, 361600, Note_on_c, 2, 75, 67
4, 361600, Note_on_c, 2, 79, 67
4, 361664, Note_off_c, 2, 75, 67
4, 361664, Note_off_c, 2, 79, 67
4, 361728, Note_off_c, 2, 75, 67
4, 361728, Note_off_c, 2, 79, 67
4, 361728, Note_on_c, 2, 75, 67
4, 361728, Note_on_c, 2, 79, 67
4, 361792, Note_off_c, 2, 75, 67
4, 361792, Note_off_c, 2, 79, 67
4, 361856, Note_off_c, 2, 75, 67
4, 361856, Note_off_c, 2, 79, 67
4, 361856, Note_on_c, 2, 75, 67
4, 361920, Note_off_c, 2, 75, 67
4, 361920, Note_on_c, 2, 77, 67
4, 361984, Note_off_c, 2, 77, 67
4, 361984, Note_on_c, 2, 79, 67
4, 362048, Note_off_c, 2, 79, 67
4, 362112, Note_off_c, 2, 79, 67
4, 362112, Note_on_c, 2, 75, 67
4, 362112, Note_on_c, 2, 79, 67
4, 362176, Note_off_c, 2, 75, 67
4, 362176, Note_off_c, 2, 79, 67
4, 362240, Note_off_c, 2, 75, 67
4, 362240, Note_off_c, 2, 79, 67
4, 362240, Note_on_c, 2, 75, 67
4, 362240, Note_on_c, 2, 79, 67
4, 362304, Note_off_c, 2, 75, 67
4, 362304, Note_off_c, 2, 79, 67
4, 362368, Note_off_c, 2, 75, 67
4, 362368, Note_off_c, 2, 79, 67
4, 362368, Note_on_c, 2, 75, 67
4, 362432, Note_off_c, 2, 75, 67
4, 362432, Note_on_c, 2, 77, 67
4, 362496, Note_off_c, 2, 77, 67
4, 362496, Note_on_c, 2, 79, 67
4, 362560, Note_off_c, 2, 79, 67
4, 362624, Note_off_c, 2, 79, 67
4, 362624, Note_on_c, 2, 75, 67
4, 362624, Note_on_c, 2, 79, 67
4, 362688, Note_off_c, 2, 75, 67
4, 362688, Note_off_c, 2, 79, 67
4, 362752, Note_off_c, 2, 75, 67
4, 362752, Note_off_c, 2, 79, 67
4, 362752, Note_on_c, 2, 75, 67
4, 362752, Note_on_c, 2, 80, 67
4, 362784, Note_off_c, 2, 75, 67
4, 362784, Note_off_c, 2, 80, 67
4, 362816, Note_off_c, 2, 75, 67
4, 362816, Note_off_c, 2, 80, 67
4, 362816, Note_on_c, 2, 74, 67
4, 362880, Note_off_c, 2, 74, 67
4, 362880, Note_on_c, 2, 72, 67
4, 362944, Note_off_c, 2, 72, 67
4, 362944, Note_on_c, 2, 74, 67
4, 362944, Note_on_c, 2, 79, 67
4, 362976, Note_off_c, 2, 74, 67
4, 362976, Note_off_c, 2, 79, 67
4, 363008, Note_off_c, 2, 74, 67
4, 363008, Note_off_c, 2, 79, 67
4, 363008, Note_on_c, 2, 70, 67
4, 363008, Note_on_c, 2, 77, 67
4, 363072, Note_off_c, 2, 70, 67
4, 363072, Note_off_c, 2, 77, 67
4, 363136, Note_off_c, 2, 70, 67
4, 363136, Note_off_c, 2, 77, 67
4, 363136, Note_on_c, 2, 68, 67
4, 363136, Note_on_c, 2, 70, 67
4, 363200, Note_off_c, 2, 68, 67
4, 363200, Note_off_c, 2, 70, 67
4, 363264, Note_off_c, 2, 68, 67
4, 363264, Note_off_c, 2, 70, 67
4, 363264, Note_on_c, 2, 68, 67
4, 363264, Note_on_c, 2, 70, 67
4, 363328, Note_off_c, 2, 68, 67
4, 363328, Note_off_c, 2, 70, 67
4, 363392, Note_off_c, 2, 68, 67
4, 363392, Note_off_c, 2, 70, 67
4, 363392, Note_on_c, 2, 74, 67
4, 363456, Note_off_c, 2, 74, 67
4, 363456, Note_on_c, 2, 75, 67
4, 363520, Note_off_c, 2, 75, 67
4, 363520, Note_on_c, 2, 77, 67
4, 363648, Note_off_c, 2, 77, 67
4, 363648, Note_on_c, 2, 74, 67
4, 363648, Note_on_c, 2, 80, 67
4, 363712, Note_off_c, 2, 74, 67
4, 363712, Note_off_c, 2, 80, 67
4, 363776, Note_off_c, 2, 74, 67
4, 363776, Note_off_c, 2, 80, 67
4, 363776, Note_on_c, 2, 74, 67
4, 363776, Note_on_c, 2, 79, 67
4, 363840, Note_off_c, 2, 74, 67
4, 363840, Note_off_c, 2, 79, 67
4, 363904, Note_off_c, 2, 74, 67
4, 363904, Note_off_c, 2, 79, 67
4, 363904, Note_on_c, 2, 77, 67
4, 363968, Note_off_c, 2, 77, 67
4, 364032, Note_off_c, 2, 77, 67
4, 364032, Note_on_c, 2, 75, 67
4, 364096, Note_off_c, 2, 75, 67
4, 364160, Note_off_c, 2, 75, 67
4, 364160, Note_on_c, 2, 70, 67
4, 364160, Note_on_c, 2, 74, 67
4, 364224, Note_off_c, 2, 70, 67
4, 364224, Note_off_c, 2, 74, 67
4, 364288, Note_off_c, 2, 70, 67
4, 364288, Note_off_c, 2, 74, 67
4, 364288, Note_on_c, 2, 72, 67
4, 364288, Note_on_c, 2, 74, 67
4, 364352, Note_off_c, 2, 72, 67
4, 364352, Note_off_c, 2, 74, 67
4, 364416, Note_off_c, 2, 72, 67
4, 364416, Note_off_c, 2, 74, 67
4, 364416, Note_on_c, 2, 70, 67
4, 364416, Note_on_c, 2, 74, 67
4, 364480, Note_off_c, 2, 70, 67
4, 364480, Note_off_c, 2, 74, 67
4, 364544, Note_off_c, 2, 70, 67
4, 364544, Note_off_c, 2, 74, 67
4, 364544, Note_on_c, 2, 80, 67
4, 364544, Note_on_c, 2, 84, 67
4, 364800, Note_off_c, 2, 80, 67
4, 364800, Note_off_c, 2, 84, 67
4, 364800, Note_on_c, 2, 70, 67
4, 364800, Note_on_c, 2, 74, 67
4, 364816, Note_off_c, 2, 70, 67
4, 364816, Note_off_c, 2, 74, 67
4, 364832, Note_off_c, 2, 70, 67
4, 364832, Note_off_c, 2, 74, 67
4, 364832, Note_on_c, 2, 72, 67
4, 364832, Note_on_c, 2, 75, 67
4, 364848, Note_off_c, 2, 72, 67
4, 364848, Note_off_c, 2, 75, 67
4, 364864, Note_off_c, 2, 72, 67
4, 364864, Note_off_c, 2, 75, 67
4, 364864, Note_on_c, 2, 70, 67
4, 364864, Note_on_c, 2, 74, 67
4, 364896, Note_off_c, 2, 70, 67
4, 364896, Note_off_c, 2, 74, 67
4, 364928, Note_off_c, 2, 70, 67
4, 364928, Note_off_c, 2, 74, 67
4, 364928, Note_on_c, 2, 68, 67
4, 364928, Note_on_c, 2, 72, 67
4, 364960, Note_off_c, 2, 68, 67
4, 364960, Note_off_c, 2, 72, 67
4, 364992, Note_off_c, 2, 68, 67
4, 364992, Note_off_c, 2, 72, 67
4, 364992, Note_on_c, 2, 74, 67
4, 364992, Note_on_c, 2, 77, 67
4, 365024, Note_off_c, 2, 74, 67
4, 365024, Note_off_c, 2, 77, 67
4, 365056, Note_off_c, 2, 74, 67
4, 365056, Note_off_c, 2, 77, 67
4, 365056, Note_on_c, 2, 75, 67
4, 365056, Note_on_c, 2, 79, 67
4, 365184, Note_off_c, 2, 75, 67
4, 365184, Note_off_c, 2, 79, 67
4, 365184, Note_on_c, 2, 70, 67
4, 365248, Note_off_c, 2, 70, 67
4, 365312, Note_off_c, 2, 70, 67
4, 365312, Note_on_c, 2, 70, 67
4, 365376, Note_off_c, 2, 70, 67
4, 365440, Note_off_c, 2, 70, 67
4, 365440, Note_on_c, 2, 75, 67
4, 365440, Note_on_c, 2, 79, 67
4, 365504, Note_off_c, 2, 75, 67
4, 365504, Note_off_c, 2, 79, 67
4, 365504, Note_on_c, 2, 77, 67
4, 365504, Note_on_c, 2, 80, 67
4, 365568, Note_off_c, 2, 77, 67
4, 365568, Note_off_c, 2, 80, 67
4, 365568, Note_on_c, 2, 79, 67
4, 365568, Note_on_c, 2, 82, 67
4, 365632, Note_off_c, 2, 79, 67
4, 365632, Note_off_c, 2, 82, 67
4, 365696, Note_off_c, 2, 79, 67
4, 365696, Note_off_c, 2, 82, 67
4, 365696, Note_on_c, 2, 79, 67
4, 365696, Note_on_c, 2, 82, 67
4, 365760, Note_off_c, 2, 79, 67
4, 365760, Note_off_c, 2, 82, 67
4, 365824, Note_off_c, 2, 79, 67
4, 365824, Note_off_c, 2, 82, 67
4, 365824, Note_on_c, 2, 70, 67
4, 365824, Note_on_c, 2, 79, 67
4, 365888, Note_off_c, 2, 70, 67
4, 365888, Note_off_c, 2, 79, 67
4, 365952, Note_off_c, 2, 70, 67
4, 365952, Note_off_c, 2, 79, 67
4, 365952, Note_on_c, 2, 70, 67
4, 365952, Note_on_c, 2, 75, 67
4, 366016, Note_off_c, 2, 70, 67
4, 366016, Note_off_c, 2, 75, 67
4, 366080, Note_off_c, 2, 70, 67
4, 366080, Note_off_c, 2, 75, 67
4, 366080, Note_on_c, 2, 84, 67
4, 366080, Note_on_c, 2, 87, 67
4, 366144, Note_off_c, 2, 84, 67
4, 366144, Note_off_c, 2, 87, 67
4, 366208, Note_off_c, 2, 84, 67
4, 366208, Note_off_c, 2, 87, 67
4, 366208, Note_on_c, 2, 82, 67
4, 366208, Note_on_c, 2, 86, 67
4, 366272, Note_off_c, 2, 82, 67
4, 366272, Note_off_c, 2, 86, 67
4, 366336, Note_off_c, 2, 82, 67
4, 366336, Note_off_c, 2, 86, 67
4, 366336, Note_on_c, 2, 80, 67
4, 366336, Note_on_c, 2, 84, 67
4, 366400, Note_off_c, 2, 80, 67
4, 366400, Note_off_c, 2, 84, 67
4, 366464, Note_off_c, 2, 80, 67
4, 366464, Note_off_c, 2, 84, 67
4, 366464, Note_on_c, 2, 79, 67
4, 366464, Note_on_c, 2, 87, 67
4, 366528, Note_off_c, 2, 79, 67
4, 366528, Note_off_c, 2, 87, 67
4, 366592, Note_off_c, 2, 79, 67
4, 366592, Note_off_c, 2, 87, 67
4, 366592, Note_on_c, 2, 75, 67
4, 366592, Note_on_c, 2, 82, 67
4, 366656, Note_off_c, 2, 75, 67
4, 366656, Note_off_c, 2, 82, 67
4, 366720, Note_off_c, 2, 75, 67
4, 366720, Note_off_c, 2, 82, 67
4, 366720, Note_on_c, 2, 79, 67
4, 366784, Note_off_c, 2, 79, 67
4, 366848, Note_off_c, 2, 79, 67
4, 366848, Note_on_c, 2, 67, 67
4, 366848, Note_on_c, 2, 75, 67
4, 366912, Note_off_c, 2, 67, 67
4, 366912, Note_off_c, 2, 75, 67
4, 366976, Note_off_c, 2, 67, 67
4, 366976, Note_off_c, 2, 75, 67
4, 366976, Note_on_c, 2, 68, 67
4, 366976, Note_on_c, 2, 74, 67
4, 367008, Note_off_c, 2, 68, 67
4, 367008, Note_off_c, 2, 74, 67
4, 367040, Note_off_c, 2, 68, 67
4, 367040, Note_off_c, 2, 74, 67
4, 367040, Note_on_c, 2, 74, 67
4, 367040, Note_on_c, 2, 79, 67
4, 367072, Note_off_c, 2, 74, 67
4, 367072, Note_off_c, 2, 79, 67
4, 367104, Note_off_c, 2, 74, 67
4, 367104, Note_off_c, 2, 79, 67
4, 367104, Note_on_c, 2, 70, 67
4, 367104, Note_on_c, 2, 77, 67
4, 367168, Note_off_c, 2, 70, 67
4, 367168, Note_off_c, 2, 77, 67
4, 367232, Note_off_c, 2, 70, 67
4, 367232, Note_off_c, 2, 77, 67
4, 367232, Note_on_c, 2, 65, 67
4, 367232, Note_on_c, 2, 70, 67
4, 367296, Note_off_c, 2, 65, 67
4, 367296, Note_off_c, 2, 70, 67
4, 367360, Note_off_c, 2, 65, 67
4, 367360, Note_off_c, 2, 70, 67
4, 367360, Note_on_c, 2, 68, 67
4, 367360, Note_on_c, 2, 70, 67
4, 367424, Note_off_c, 2, 68, 67
4, 367424, Note_off_c, 2, 70, 67
4, 367488, Note_off_c, 2, 68, 67
4, 367488, Note_off_c, 2, 70, 67
4, 367488, Note_on_c, 2, 70, 67
4, 367488, Note_on_c, 2, 79, 67
4, 367552, Note_off_c, 2, 70, 67
4, 367552, Note_off_c, 2, 79, 67
4, 367552, Note_on_c, 2, 77, 67
4, 367552, Note_on_c, 2, 80, 67
4, 367616, Note_off_c, 2, 77, 67
4, 367616, Note_off_c, 2, 80, 67
4, 367616, Note_on_c, 2, 79, 67
4, 367616, Note_on_c, 2, 82, 67
4, 367680, Note_off_c, 2, 79, 67
4, 367680, Note_off_c, 2, 82, 67
4, 367744, Note_off_c, 2, 79, 67
4, 367744, Note_off_c, 2, 82, 67
4, 367744, Note_on_c, 2, 79, 67
4, 367744, Note_on_c, 2, 82, 67
4, 367808, Note_off_c, 2, 79, 67
4, 367808, Note_off_c, 2, 82, 67
4, 367872, Note_off_c, 2, 79, 67
4, 367872, Note_off_c, 2, 82, 67
4, 367872, Note_on_c, 2, 70, 67
4, 367872, Note_on_c, 2, 79, 67
4, 367936, Note_off_c, 2, 70, 67
4, 367936, Note_off_c, 2, 79, 67
4, 368000, Note_off_c, 2, 70, 67
4, 368000, Note_off_c, 2, 79, 67
4, 368000, Note_on_c, 2, 75, 67
4, 368000, Note_on_c, 2, 82, 67
4, 368064, Note_off_c, 2, 75, 67
4, 368064, Note_off_c, 2, 82, 67
4, 368128, Note_off_c, 2, 75, 67
4, 368128, Note_off_c, 2, 82, 67
4, 368128, Note_on_c, 2, 84, 67
4, 368128, Note_on_c, 2, 87, 67
4, 368192, Note_off_c, 2, 84, 67
4, 368192, Note_off_c, 2, 87, 67
4, 368256, Note_off_c, 2, 84, 67
4, 368256, Note_off_c, 2, 87, 67
4, 368256, Note_on_c, 2, 82, 67
4, 368256, Note_on_c, 2, 86, 67
4, 368320, Note_off_c, 2, 82, 67
4, 368320, Note_off_c, 2, 86, 67
4, 368384, Note_off_c, 2, 82, 67
4, 368384, Note_off_c, 2, 86, 67
4, 368384, Note_on_c, 2, 80, 67
4, 368384, Note_on_c, 2, 84, 67
4, 368448, Note_off_c, 2, 80, 67
4, 368448, Note_off_c, 2, 84, 67
4, 368512, Note_off_c, 2, 80, 67
4, 368512, Note_off_c, 2, 84, 67
4, 368512, Note_on_c, 2, 70, 67
4, 368512, Note_on_c, 2, 74, 67
4, 368544, Note_off_c, 2, 70, 67
4, 368544, Note_off_c, 2, 74, 67
4, 368576, Note_off_c, 2, 70, 67
4, 368576, Note_off_c, 2, 74, 67
4, 368576, Note_on_c, 2, 77, 67
4, 368576, Note_on_c, 2, 80, 67
4, 368608, Note_off_c, 2, 77, 67
4, 368608, Note_off_c, 2, 80, 67
4, 368640, Note_off_c, 2, 77, 67
4, 368640, Note_off_c, 2, 80, 67
4, 368640, Note_on_c, 2, 77, 67
4, 368640, Note_on_c, 2, 82, 67
4, 368704, Note_off_c, 2, 77, 67
4, 368704, Note_off_c, 2, 82, 67
4, 368768, Note_off_c, 2, 77, 67
4, 368768, Note_off_c, 2, 82, 67
4, 368768, Note_on_c, 2, 80, 67
4, 368768, Note_on_c, 2, 87, 67
4, 368832, Note_off_c, 2, 80, 67
4, 368832, Note_off_c, 2, 87, 67
4, 368896, Note_off_c, 2, 80, 67
4, 368896, Note_off_c, 2, 87, 67
4, 368896, Note_on_c, 2, 82, 67
4, 368896, Note_on_c, 2, 86, 67
4, 368960, Note_off_c, 2, 82, 67
4, 368960, Note_off_c, 2, 86, 67
4, 369024, Note_off_c, 2, 82, 67
4, 369024, Note_off_c, 2, 86, 67
4, 369024, Note_on_c, 2, 80, 67
4, 369024, Note_on_c, 2, 89, 67
4, 369088, Note_off_c, 2, 80, 67
4, 369088, Note_off_c, 2, 89, 67
4, 369152, Note_off_c, 2, 80, 67
4, 369152, Note_off_c, 2, 89, 67
4, 369152, Note_on_c, 2, 79, 67
4, 369152, Note_on_c, 2, 87, 67
4, 369216, Note_off_c, 2, 79, 67
4, 369216, Note_off_c, 2, 87, 67
4, 369280, Note_off_c, 2, 79, 67
4, 369280, Note_off_c, 2, 87, 67
4, 369280, Note_on_c, 2, 70, 67
4, 369280, Note_on_c, 2, 82, 67
4, 369344, Note_off_c, 2, 70, 67
4, 369344, Note_off_c, 2, 82, 67
4, 369408, Note_off_c, 2, 70, 67
4, 369408, Note_off_c, 2, 82, 67
4, 369408, Note_on_c, 2, 70, 67
4, 369408, Note_on_c, 2, 82, 67
4, 369472, Note_off_c, 2, 70, 67
4, 369472, Note_off_c, 2, 82, 67
4, 369536, Note_off_c, 2, 70, 67
4, 369536, Note_off_c, 2, 82, 67
4, 369536, Note_on_c, 2, 75, 67
4, 369600, Note_off_c, 2, 75, 67
4, 369600, Note_on_c, 2, 77, 67
4, 369664, Note_off_c, 2, 77, 67
4, 369664, Note_on_c, 2, 79, 67
4, 369728, Note_off_c, 2, 79, 67
4, 369792, Note_off_c, 2, 79, 67
4, 369792, Note_on_c, 2, 75, 67
4, 369792, Note_on_c, 2, 79, 67
4, 369856, Note_off_c, 2, 75, 67
4, 369856, Note_off_c, 2, 79, 67
4, 369920, Note_off_c, 2, 75, 67
4, 369920, Note_off_c, 2, 79, 67
4, 369920, Note_on_c, 2, 75, 67
4, 369920, Note_on_c, 2, 79, 67
4, 369984, Note_off_c, 2, 75, 67
4, 369984, Note_off_c, 2, 79, 67
4, 370048, Note_off_c, 2, 75, 67
4, 370048, Note_off_c, 2, 79, 67
4, 370048, Note_on_c, 2, 75, 67
4, 370112, Note_off_c, 2, 75, 67
4, 370112, Note_on_c, 2, 77, 67
4, 370176, Note_off_c, 2, 77, 67
4, 370176, Note_on_c, 2, 79, 67
4, 370240, Note_off_c, 2, 79, 67
4, 370304, Note_off_c, 2, 79, 67
4, 370304, Note_on_c, 2, 75, 67
4, 370304, Note_on_c, 2, 79, 67
4, 370368, Note_off_c, 2, 75, 67
4, 370368, Note_off_c, 2, 79, 67
4, 370432, Note_off_c, 2, 75, 67
4, 370432, Note_off_c, 2, 79, 67
4, 370432, Note_on_c, 2, 75, 67
4, 370432, Note_on_c, 2, 79, 67
4, 370496, Note_off_c, 2, 75, 67
4, 370496, Note_off_c, 2, 79, 67
4, 370560, Note_off_c, 2, 75, 67
4, 370560, Note_off_c, 2, 79, 67
4, 370560, Note_on_c, 2, 75, 67
4, 370624, Note_off_c, 2, 75, 67
4, 370624, Note_on_c, 2, 77, 67
4, 370688, Note_off_c, 2, 77, 67
4, 370688, Note_on_c, 2, 79, 67
4, 370752, Note_off_c, 2, 79, 67
4, 370816, Note_off_c, 2, 79, 67
4, 370816, Note_on_c, 2, 75, 67
4, 370816, Note_on_c, 2, 79, 67
4, 370880, Note_off_c, 2, 75, 67
4, 370880, Note_off_c, 2, 79, 67
4, 370944, Note_off_c, 2, 75, 67
4, 370944, Note_off_c, 2, 79, 67
4, 370944, Note_on_c, 2, 75, 67
4, 370944, Note_on_c, 2, 80, 67
4, 370976, Note_off_c, 2, 75, 67
4, 370976, Note_off_c, 2, 80, 67
4, 371008, Note_off_c, 2, 75, 67
4, 371008, Note_off_c, 2, 80, 67
4, 371008, Note_on_c, 2, 74, 67
4, 371040, Note_off_c, 2, 74, 67
4, 371072, Note_off_c, 2, 74, 67
4, 371072, Note_on_c, 2, 72, 67
4, 371104, Note_off_c, 2, 72, 67
4, 371136, Note_off_c, 2, 72, 67
4, 371136, Note_on_c, 2, 74, 67
4, 371136, Note_on_c, 2, 79, 67
4, 371168, Note_off_c, 2, 74, 67
4, 371168, Note_off_c, 2, 79, 67
4, 371200, Note_off_c, 2, 74, 67
4, 371200, Note_off_c, 2, 79, 67
4, 371200, Note_on_c, 2, 70, 67
4, 371200, Note_on_c, 2, 77, 67
4, 371264, Note_off_c, 2, 70, 67
4, 371264, Note_off_c, 2, 77, 67
4, 371328, Note_off_c, 2, 70, 67
4, 371328, Note_off_c, 2, 77, 67
4, 371328, Note_on_c, 2, 68, 67
4, 371328, Note_on_c, 2, 70, 67
4, 371392, Note_off_c, 2, 68, 67
4, 371392, Note_off_c, 2, 70, 67
4, 371456, Note_off_c, 2, 68, 67
4, 371456, Note_off_c, 2, 70, 67
4, 371456, Note_on_c, 2, 68, 67
4, 371456, Note_on_c, 2, 70, 67
4, 371520, Note_off_c, 2, 68, 67
4, 371520, Note_off_c, 2, 70, 67
4, 371584, Note_off_c, 2, 68, 67
4, 371584, Note_off_c, 2, 70, 67
4, 371584, Note_on_c, 2, 74, 67
4, 371648, Note_off_c, 2, 74, 67
4, 371648, Note_on_c, 2, 75, 67
4, 371712, Note_off_c, 2, 75, 67
4, 371712, Note_on_c, 2, 77, 67
4, 371776, Note_off_c, 2, 77, 67
4, 371840, Note_off_c, 2, 77, 67
4, 371840, Note_on_c, 2, 74, 67
4, 371840, Note_on_c, 2, 77, 67
4, 371904, Note_off_c, 2, 74, 67
4, 371904, Note_off_c, 2, 77, 67
4, 371968, Note_off_c, 2, 74, 67
4, 371968, Note_off_c, 2, 77, 67
4, 371968, Note_on_c, 2, 74, 67
4, 371968, Note_on_c, 2, 77, 67
4, 372032, Note_off_c, 2, 74, 67
4, 372032, Note_off_c, 2, 77, 67
4, 372096, Note_off_c, 2, 74, 67
4, 372096, Note_off_c, 2, 77, 67
4, 372096, Note_on_c, 2, 74, 67
4, 372160, Note_off_c, 2, 74, 67
4, 372160, Note_on_c, 2, 75, 67
4, 372224, Note_off_c, 2, 75, 67
4, 372224, Note_on_c, 2, 77, 67
4, 372288, Note_off_c, 2, 77, 67
4, 372352, Note_off_c, 2, 77, 67
4, 372352, Note_on_c, 2, 74, 67
4, 372352, Note_on_c, 2, 77, 67
4, 372416, Note_off_c, 2, 74, 67
4, 372416, Note_off_c, 2, 77, 67
4, 372480, Note_off_c, 2, 74, 67
4, 372480, Note_off_c, 2, 77, 67
4, 372480, Note_on_c, 2, 74, 67
4, 372480, Note_on_c, 2, 77, 67
4, 372544, Note_off_c, 2, 74, 67
4, 372544, Note_off_c, 2, 77, 67
4, 372608, Note_off_c, 2, 74, 67
4, 372608, Note_off_c, 2, 77, 67
4, 372608, Note_on_c, 2, 74, 67
4, 372672, Note_off_c, 2, 74, 67
4, 372672, Note_on_c, 2, 75, 67
4, 372736, Note_off_c, 2, 75, 67
4, 372736, Note_on_c, 2, 70, 67
4, 372736, Note_on_c, 2, 77, 67
4, 372800, Note_off_c, 2, 70, 67
4, 372800, Note_off_c, 2, 77, 67
4, 372864, Note_off_c, 2, 70, 67
4, 372864, Note_off_c, 2, 77, 67
4, 372864, Note_on_c, 2, 74, 67
4, 372864, Note_on_c, 2, 77, 67
4, 372928, Note_off_c, 2, 74, 67
4, 372928, Note_off_c, 2, 77, 67
4, 372992, Note_off_c, 2, 74, 67
4, 372992, Note_off_c, 2, 77, 67
4, 372992, Note_on_c, 2, 74, 67
4, 372992, Note_on_c, 2, 79, 67
4, 373024, Note_off_c, 2, 74, 67
4, 373024, Note_off_c, 2, 79, 67
4, 373056, Note_off_c, 2, 74, 67
4, 373056, Note_off_c, 2, 79, 67
4, 373056, Note_on_c, 2, 72, 67
4, 373056, Note_on_c, 2, 77, 67
4, 373088, Note_off_c, 2, 72, 67
4, 373088, Note_off_c, 2, 77, 67
4, 373120, Note_off_c, 2, 72, 67
4, 373120, Note_off_c, 2, 77, 67
4, 373120, Note_on_c, 2, 70, 67
4, 373120, Note_on_c, 2, 77, 67
4, 373152, Note_off_c, 2, 70, 67
4, 373152, Note_off_c, 2, 77, 67
4, 373184, Note_off_c, 2, 70, 67
4, 373184, Note_off_c, 2, 77, 67
4, 373184, Note_on_c, 2, 68, 67
4, 373184, Note_on_c, 2, 79, 67
4, 373216, Note_off_c, 2, 68, 67
4, 373216, Note_off_c, 2, 79, 67
4, 373248, Note_off_c, 2, 68, 67
4, 373248, Note_off_c, 2, 79, 67
4, 373248, Note_on_c, 2, 67, 67
4, 373248, Note_on_c, 2, 75, 67
4, 373312, Note_off_c, 2, 67, 67
4, 373312, Note_off_c, 2, 75, 67
4, 373376, Note_off_c, 2, 67, 67
4, 373376, Note_off_c, 2, 75, 67
4, 373376, Note_on_c, 2, 70, 67
4, 373440, Note_off_c, 2, 70, 67
4, 373504, Note_off_c, 2, 70, 67
4, 373504, Note_on_c, 2, 70, 67
4, 373504, Note_on_c, 2, 79, 67
4, 373568, Note_off_c, 2, 70, 67
4, 373568, Note_off_c, 2, 79, 67
4, 373632, Note_off_c, 2, 70, 67
4, 373632, Note_off_c, 2, 79, 67
4, 373632, Note_on_c, 2, 75, 67
4, 373696, Note_off_c, 2, 75, 67
4, 373696, Note_on_c, 2, 77, 67
4, 373760, Note_off_c, 2, 77, 67
4, 373760, Note_on_c, 2, 79, 67
4, 373824, Note_off_c, 2, 79, 67
4, 373888, Note_off_c, 2, 79, 67
4, 373888, Note_on_c, 2, 75, 67
4, 373888, Note_on_c, 2, 79, 67
4, 373952, Note_off_c, 2, 75, 67
4, 373952, Note_off_c, 2, 79, 67
4, 374016, Note_off_c, 2, 75, 67
4, 374016, Note_off_c, 2, 79, 67
4, 374016, Note_on_c, 2, 75, 67
4, 374016, Note_on_c, 2, 79, 67
4, 374080, Note_off_c, 2, 75, 67
4, 374080, Note_off_c, 2, 79, 67
4, 374144, Note_off_c, 2, 75, 67
4, 374144, Note_off_c, 2, 79, 67
4, 374144, Note_on_c, 2, 75, 67
4, 374208, Note_off_c, 2, 75, 67
4, 374208, Note_on_c, 2, 77, 67
4, 374272, Note_off_c, 2, 77, 67
4, 374272, Note_on_c, 2, 79, 67
4, 374336, Note_off_c, 2, 79, 67
4, 374400, Note_off_c, 2, 79, 67
4, 374400, Note_on_c, 2, 75, 67
4, 374400, Note_on_c, 2, 79, 67
4, 374464, Note_off_c, 2, 75, 67
4, 374464, Note_off_c, 2, 79, 67
4, 374528, Note_off_c, 2, 75, 67
4, 374528, Note_off_c, 2, 79, 67
4, 374528, Note_on_c, 2, 75, 67
4, 374528, Note_on_c, 2, 79, 67
4, 374592, Note_off_c, 2, 75, 67
4, 374592, Note_off_c, 2, 79, 67
4, 374656, Note_off_c, 2, 75, 67
4, 374656, Note_off_c, 2, 79, 67
4, 374656, Note_on_c, 2, 75, 67
4, 374720, Note_off_c, 2, 75, 67
4, 374720, Note_on_c, 2, 77, 67
4, 374784, Note_off_c, 2, 77, 67
4, 374784, Note_on_c, 2, 79, 67
4, 374848, Note_off_c, 2, 79, 67
4, 374912, Note_off_c, 2, 79, 67
4, 374912, Note_on_c, 2, 75, 67
4, 374912, Note_on_c, 2, 79, 67
4, 374976, Note_off_c, 2, 75, 67
4, 374976, Note_off_c, 2, 79, 67
4, 375040, Note_off_c, 2, 75, 67
4, 375040, Note_off_c, 2, 79, 67
4, 375040, Note_on_c, 2, 75, 67
4, 375040, Note_on_c, 2, 80, 67
4, 375072, Note_off_c, 2, 75, 67
4, 375072, Note_off_c, 2, 80, 67
4, 375104, Note_off_c, 2, 75, 67
4, 375104, Note_off_c, 2, 80, 67
4, 375104, Note_on_c, 2, 74, 67
4, 375168, Note_off_c, 2, 74, 67
4, 375168, Note_on_c, 2, 72, 67
4, 375232, Note_off_c, 2, 72, 67
4, 375232, Note_on_c, 2, 74, 67
4, 375232, Note_on_c, 2, 79, 67
4, 375264, Note_off_c, 2, 74, 67
4, 375264, Note_off_c, 2, 79, 67
4, 375296, Note_off_c, 2, 74, 67
4, 375296, Note_off_c, 2, 79, 67
4, 375296, Note_on_c, 2, 70, 67
4, 375296, Note_on_c, 2, 77, 67
4, 375360, Note_off_c, 2, 70, 67
4, 375360, Note_off_c, 2, 77, 67
4, 375424, Note_off_c, 2, 70, 67
4, 375424, Note_off_c, 2, 77, 67
4, 375424, Note_on_c, 2, 68, 67
4, 375424, Note_on_c, 2, 70, 67
4, 375488, Note_off_c, 2, 68, 67
4, 375488, Note_off_c, 2, 70, 67
4, 375552, Note_off_c, 2, 68, 67
4, 375552, Note_off_c, 2, 70, 67
4, 375552, Note_on_c, 2, 68, 67
4, 375552, Note_on_c, 2, 70, 67
4, 375616, Note_off_c, 2, 68, 67
4, 375616, Note_off_c, 2, 70, 67
4, 375680, Note_off_c, 2, 68, 67
4, 375680, Note_off_c, 2, 70, 67
4, 375680, Note_on_c, 2, 74, 67
4, 375744, Note_off_c, 2, 74, 67
4, 375744, Note_on_c, 2, 75, 67
4, 375808, Note_off_c, 2, 75, 67
4, 375808, Note_on_c, 2, 77, 67
4, 375936, Note_off_c, 2, 77, 67
4, 375936, Note_on_c, 2, 74, 67
4, 375936, Note_on_c, 2, 80, 67
4, 376000, Note_off_c, 2, 74, 67
4, 376000, Note_off_c, 2, 80, 67
4, 376064, Note_off_c, 2, 74, 67
4, 376064, Note_off_c, 2, 80, 67
4, 376064, Note_on_c, 2, 74, 67
4, 376064, Note_on_c, 2, 79, 67
4, 376128, Note_off_c, 2, 74, 67
4, 376128, Note_off_c, 2, 79, 67
4, 376192, Note_off_c, 2, 74, 67
4, 376192, Note_off_c, 2, 79, 67
4, 376192, Note_on_c, 2, 77, 67
4, 376256, Note_off_c, 2, 77, 67
4, 376320, Note_off_c, 2, 77, 67
4, 376320, Note_on_c, 2, 75, 67
4, 376384, Note_off_c, 2, 75, 67
4, 376448, Note_off_c, 2, 75, 67
4, 376448, Note_on_c, 2, 70, 67
4, 376448, Note_on_c, 2, 74, 67
4, 376512, Note_off_c, 2, 70, 67
4, 376512, Note_off_c, 2, 74, 67
4, 376576, Note_off_c, 2, 70, 67
4, 376576, Note_off_c, 2, 74, 67
4, 376576, Note_on_c, 2, 72, 67
4, 376576, Note_on_c, 2, 74, 67
4, 376640, Note_off_c, 2, 72, 67
4, 376640, Note_off_c, 2, 74, 67
4, 376704, Note_off_c, 2, 72, 67
4, 376704, Note_off_c, 2, 74, 67
4, 376704, Note_on_c, 2, 70, 67
4, 376704, Note_on_c, 2, 74, 67
4, 376768, Note_off_c, 2, 70, 67
4, 376768, Note_off_c, 2, 74, 67
4, 376832, Note_off_c, 2, 70, 67
4, 376832, Note_off_c, 2, 74, 67
4, 376832, Note_on_c, 2, 80, 67
4, 376832, Note_on_c, 2, 84, 67
4, 377088, Note_off_c, 2, 80, 67
4, 377088, Note_off_c, 2, 84, 67
4, 377088, Note_on_c, 2, 70, 67
4, 377088, Note_on_c, 2, 74, 67
4, 377104, Note_off_c, 2, 70, 67
4, 377104, Note_off_c, 2, 74, 67
4, 377120, Note_off_c, 2, 70, 67
4, 377120, Note_off_c, 2, 74, 67
4, 377120, Note_on_c, 2, 72, 67
4, 377120, Note_on_c, 2, 75, 67
4, 377136, Note_off_c, 2, 72, 67
4, 377136, Note_off_c, 2, 75, 67
4, 377152, Note_off_c, 2, 72, 67
4, 377152, Note_off_c, 2, 75, 67
4, 377152, Note_on_c, 2, 70, 67
4, 377152, Note_on_c, 2, 74, 67
4, 377184, Note_off_c, 2, 70, 67
4, 377184, Note_off_c, 2, 74, 67
4, 377216, Note_off_c, 2, 70, 67
4, 377216, Note_off_c, 2, 74, 67
4, 377216, Note_on_c, 2, 68, 67
4, 377216, Note_on_c, 2, 72, 67
4, 377248, Note_off_c, 2, 68, 67
4, 377248, Note_off_c, 2, 72, 67
4, 377280, Note_off_c, 2, 68, 67
4, 377280, Note_off_c, 2, 72, 67
4, 377280, Note_on_c, 2, 74, 67
4, 377280, Note_on_c, 2, 77, 67
4, 377312, Note_off_c, 2, 74, 67
4, 377312, Note_off_c, 2, 77, 67
4, 377344, Note_off_c, 2, 74, 67
4, 377344, Note_off_c, 2, 77, 67
4, 377344, Note_on_c, 2, 75, 67
4, 377344, Note_on_c, 2, 79, 67
4, 377472, Note_off_c, 2, 75, 67
4, 377472, Note_off_c, 2, 79, 67
4, 377472, Note_on_c, 2, 70, 67
4, 377536, Note_off_c, 2, 70, 67
4, 377600, Note_off_c, 2, 70, 67
4, 377600, Note_on_c, 2, 70, 67
4, 377664, Note_off_c, 2, 70, 67
4, 377728, Note_off_c, 2, 70, 67
4, 377728, Note_on_c, 2, 75, 67
4, 377728, Note_on_c, 2, 79, 67
4, 377792, Note_off_c, 2, 75, 67
4, 377792, Note_off_c, 2, 79, 67
4, 377792, Note_on_c, 2, 77, 67
4, 377792, Note_on_c, 2, 80, 67
4, 377856, Note_off_c, 2, 77, 67
4, 377856, Note_off_c, 2, 80, 67
4, 377856, Note_on_c, 2, 79, 67
4, 377856, Note_on_c, 2, 82, 67
4, 377920, Note_off_c, 2, 79, 67
4, 377920, Note_off_c, 2, 82, 67
4, 377984, Note_off_c, 2, 79, 67
4, 377984, Note_off_c, 2, 82, 67
4, 377984, Note_on_c, 2, 79, 67
4, 377984, Note_on_c, 2, 82, 67
4, 378048, Note_off_c, 2, 79, 67
4, 378048, Note_off_c, 2, 82, 67
4, 378112, Note_off_c, 2, 79, 67
4, 378112, Note_off_c, 2, 82, 67
4, 378112, Note_on_c, 2, 70, 67
4, 378112, Note_on_c, 2, 79, 67
4, 378176, Note_off_c, 2, 70, 67
4, 378176, Note_off_c, 2, 79, 67
4, 378240, Note_off_c, 2, 70, 67
4, 378240, Note_off_c, 2, 79, 67
4, 378240, Note_on_c, 2, 70, 67
4, 378240, Note_on_c, 2, 75, 67
4, 378304, Note_off_c, 2, 70, 67
4, 378304, Note_off_c, 2, 75, 67
4, 378368, Note_off_c, 2, 70, 67
4, 378368, Note_off_c, 2, 75, 67
4, 378368, Note_on_c, 2, 84, 67
4, 378368, Note_on_c, 2, 87, 67
4, 378432, Note_off_c, 2, 84, 67
4, 378432, Note_off_c, 2, 87, 67
4, 378496, Note_off_c, 2, 84, 67
4, 378496, Note_off_c, 2, 87, 67
4, 378496, Note_on_c, 2, 82, 67
4, 378496, Note_on_c, 2, 86, 67
4, 378560, Note_off_c, 2, 82, 67
4, 378560, Note_off_c, 2, 86, 67
4, 378624, Note_off_c, 2, 82, 67
4, 378624, Note_off_c, 2, 86, 67
4, 378624, Note_on_c, 2, 80, 67
4, 378624, Note_on_c, 2, 84, 67
4, 378688, Note_off_c, 2, 80, 67
4, 378688, Note_off_c, 2, 84, 67
4, 378752, Note_off_c, 2, 80, 67
4, 378752, Note_off_c, 2, 84, 67
4, 378752, Note_on_c, 2, 79, 67
4, 378752, Note_on_c, 2, 87, 67
4, 378816, Note_off_c, 2, 79, 67
4, 378816, Note_off_c, 2, 87, 67
4, 378880, Note_off_c, 2, 79, 67
4, 378880, Note_off_c, 2, 87, 67
4, 378880, Note_on_c, 2, 75, 67
4, 378880, Note_on_c, 2, 82, 67
4, 378944, Note_off_c, 2, 75, 67
4, 378944, Note_off_c, 2, 82, 67
4, 379008, Note_off_c, 2, 75, 67
4, 379008, Note_off_c, 2, 82, 67
4, 379008, Note_on_c, 2, 79, 67
4, 379072, Note_off_c, 2, 79, 67
4, 379136, Note_off_c, 2, 79, 67
4, 379136, Note_on_c, 2, 67, 67
4, 379136, Note_on_c, 2, 75, 67
4, 379200, Note_off_c, 2, 67, 67
4, 379200, Note_off_c, 2, 75, 67
4, 379264, Note_off_c, 2, 67, 67
4, 379264, Note_off_c, 2, 75, 67
4, 379264, Note_on_c, 2, 68, 67
4, 379264, Note_on_c, 2, 74, 67
4, 379296, Note_off_c, 2, 68, 67
4, 379296, Note_off_c, 2, 74, 67
4, 379328, Note_off_c, 2, 68, 67
4, 379328, Note_off_c, 2, 74, 67
4, 379328, Note_on_c, 2, 74, 67
4, 379328, Note_on_c, 2, 79, 67
4, 379360, Note_off_c, 2, 74, 67
4, 379360, Note_off_c, 2, 79, 67
4, 379392, Note_off_c, 2, 74, 67
4, 379392, Note_off_c, 2, 79, 67
4, 379392, Note_on_c, 2, 70, 67
4, 379392, Note_on_c, 2, 77, 67
4, 379456, Note_off_c, 2, 70, 67
4, 379456, Note_off_c, 2, 77, 67
4, 379520, Note_off_c, 2, 70, 67
4, 379520, Note_off_c, 2, 77, 67
4, 379520, Note_on_c, 2, 65, 67
4, 379520, Note_on_c, 2, 70, 67
4, 379584, Note_off_c, 2, 65, 67
4, 379584, Note_off_c, 2, 70, 67
4, 379648, Note_off_c, 2, 65, 67
4, 379648, Note_off_c, 2, 70, 67
4, 379648, Note_on_c, 2, 68, 67
4, 379648, Note_on_c, 2, 70, 67
4, 379712, Note_off_c, 2, 68, 67
4, 379712, Note_off_c, 2, 70, 67
4, 379776, Note_off_c, 2, 68, 67
4, 379776, Note_off_c, 2, 70, 67
4, 379776, Note_on_c, 2, 70, 67
4, 379776, Note_on_c, 2, 79, 67
4, 379840, Note_off_c, 2, 70, 67
4, 379840, Note_off_c, 2, 79, 67
4, 379840, Note_on_c, 2, 77, 67
4, 379840, Note_on_c, 2, 80, 67
4, 379904, Note_off_c, 2, 77, 67
4, 379904, Note_off_c, 2, 80, 67
4, 379904, Note_on_c, 2, 79, 67
4, 379904, Note_on_c, 2, 82, 67
4, 379968, Note_off_c, 2, 79, 67
4, 379968, Note_off_c, 2, 82, 67
4, 380032, Note_off_c, 2, 79, 67
4, 380032, Note_off_c, 2, 82, 67
4, 380032, Note_on_c, 2, 79, 67
4, 380032, Note_on_c, 2, 82, 67
4, 380096, Note_off_c, 2, 79, 67
4, 380096, Note_off_c, 2, 82, 67
4, 380160, Note_off_c, 2, 79, 67
4, 380160, Note_off_c, 2, 82, 67
4, 380160, Note_on_c, 2, 70, 67
4, 380160, Note_on_c, 2, 79, 67
4, 380224, Note_off_c, 2, 70, 67
4, 380224, Note_off_c, 2, 79, 67
4, 380288, Note_off_c, 2, 70, 67
4, 380288, Note_off_c, 2, 79, 67
4, 380288, Note_on_c, 2, 75, 67
4, 380288, Note_on_c, 2, 82, 67
4, 380352, Note_off_c, 2, 75, 67
4, 380352, Note_off_c, 2, 82, 67
4, 380416, Note_off_c, 2, 75, 67
4, 380416, Note_off_c, 2, 82, 67
4, 380416, Note_on_c, 2, 84, 67
4, 380416, Note_on_c, 2, 87, 67
4, 380480, Note_off_c, 2, 84, 67
4, 380480, Note_off_c, 2, 87, 67
4, 380544, Note_off_c, 2, 84, 67
4, 380544, Note_off_c, 2, 87, 67
4, 380544, Note_on_c, 2, 82, 67
4, 380544, Note_on_c, 2, 86, 67
4, 380608, Note_off_c, 2, 82, 67
4, 380608, Note_off_c, 2, 86, 67
4, 380672, Note_off_c, 2, 82, 67
4, 380672, Note_off_c, 2, 86, 67
4, 380672, Note_on_c, 2, 80, 67
4, 380672, Note_on_c, 2, 84, 67
4, 380736, Note_off_c, 2, 80, 67
4, 380736, Note_off_c, 2, 84, 67
4, 380800, Note_off_c, 2, 80, 67
4, 380800, Note_off_c, 2, 84, 67
4, 380800, Note_on_c, 2, 70, 67
4, 380800, Note_on_c, 2, 74, 67
4, 380832, Note_off_c, 2, 70, 67
4, 380832, Note_off_c, 2, 74, 67
4, 380864, Note_off_c, 2, 70, 67
4, 380864, Note_off_c, 2, 74, 67
4, 380864, Note_on_c, 2, 77, 67
4, 380864, Note_on_c, 2, 80, 67
4, 380896, Note_off_c, 2, 77, 67
4, 380896, Note_off_c, 2, 80, 67
4, 380928, Note_off_c, 2, 77, 67
4, 380928, Note_off_c, 2, 80, 67
4, 380928, Note_on_c, 2, 77, 67
4, 380928, Note_on_c, 2, 82, 67
4, 380992, Note_off_c, 2, 77, 67
4, 380992, Note_off_c, 2, 82, 67
4, 381056, Note_off_c, 2, 77, 67
4, 381056, Note_off_c, 2, 82, 67
4, 381056, Note_on_c, 2, 80, 67
4, 381056, Note_on_c, 2, 87, 67
4, 381120, Note_off_c, 2, 80, 67
4, 381120, Note_off_c, 2, 87, 67
4, 381184, Note_off_c, 2, 80, 67
4, 381184, Note_off_c, 2, 87, 67
4, 381184, Note_on_c, 2, 82, 67
4, 381184, Note_on_c, 2, 86, 67
4, 381248, Note_off_c, 2, 82, 67
4, 381248, Note_off_c, 2, 86, 67
4, 381312, Note_off_c, 2, 82, 67
4, 381312, Note_off_c, 2, 86, 67
4, 381312, Note_on_c, 2, 80, 67
4, 381312, Note_on_c, 2, 89, 67
4, 381376, Note_off_c, 2, 80, 67
4, 381376, Note_off_c, 2, 89, 67
4, 381440, Note_off_c, 2, 80, 67
4, 381440, Note_off_c, 2, 89, 67
4, 381440, Note_on_c, 2, 79, 67
4, 381440, Note_on_c, 2, 87, 67
4, 381504, Note_off_c, 2, 79, 67
4, 381504, Note_off_c, 2, 87, 67
4, 381568, Note_off_c, 2, 79, 67
4, 381568, Note_off_c, 2, 87, 67
4, 381568, Note_on_c, 2, 70, 67
4, 381568, Note_on_c, 2, 82, 67
4, 381632, Note_off_c, 2, 70, 67
4, 381632, Note_off_c, 2, 82, 67
4, 381696, Note_off_c, 2, 70, 67
4, 381696, Note_off_c, 2, 82, 67
4, 381696, Note_on_c, 2, 70, 67
4, 381696, Note_on_c, 2, 82, 67
4, 381760, Note_off_c, 2, 70, 67
4, 381760, Note_off_c, 2, 82, 67
4, 381824, Note_off_c, 2, 70, 67
4, 381824, Note_off_c, 2, 82, 67
4, 381824, Note_on_c, 2, 75, 67
4, 381888, Note_off_c, 2, 75, 67
4, 381888, Note_on_c, 2, 77, 67
4, 381952, Note_off_c, 2, 77, 67
4, 381952, Note_on_c, 2, 79, 67
4, 382016, Note_off_c, 2, 79, 67
4, 382080, Note_off_c, 2, 79, 67
4, 382080, Note_on_c, 2, 75, 67
4, 382080, Note_on_c, 2, 79, 67
4, 382144, Note_off_c, 2, 75, 67
4, 382144, Note_off_c, 2, 79, 67
4, 382208, Note_off_c, 2, 75, 67
4, 382208, Note_off_c, 2, 79, 67
4, 382208, Note_on_c, 2, 75, 67
4, 382208, Note_on_c, 2, 79, 67
4, 382272, Note_off_c, 2, 75, 67
4, 382272, Note_off_c, 2, 79, 67
4, 382336, Note_off_c, 2, 75, 67
4, 382336, Note_off_c, 2, 79, 67
4, 382336, Note_on_c, 2, 75, 67
4, 382400, Note_off_c, 2, 75, 67
4, 382400, Note_on_c, 2, 77, 67
4, 382464, Note_off_c, 2, 77, 67
4, 382464, Note_on_c, 2, 79, 67
4, 382528, Note_off_c, 2, 79, 67
4, 382592, Note_off_c, 2, 79, 67
4, 382592, Note_on_c, 2, 75, 67
4, 382592, Note_on_c, 2, 79, 67
4, 382656, Note_off_c, 2, 75, 67
4, 382656, Note_off_c, 2, 79, 67
4, 382720, Note_off_c, 2, 75, 67
4, 382720, Note_off_c, 2, 79, 67
4, 382720, Note_on_c, 2, 75, 67
4, 382720, Note_on_c, 2, 79, 67
4, 382784, Note_off_c, 2, 75, 67
4, 382784, Note_off_c, 2, 79, 67
4, 382848, Note_off_c, 2, 75, 67
4, 382848, Note_off_c, 2, 79, 67
4, 382848, Note_on_c, 2, 75, 67
4, 382912, Note_off_c, 2, 75, 67
4, 382912, Note_on_c, 2, 77, 67
4, 382976, Note_off_c, 2, 77, 67
4, 382976, Note_on_c, 2, 79, 67
4, 383040, Note_off_c, 2, 79, 67
4, 383104, Note_off_c, 2, 79, 67
4, 383104, Note_on_c, 2, 75, 67
4, 383104, Note_on_c, 2, 79, 67
4, 383168, Note_off_c, 2, 75, 67
4, 383168, Note_off_c, 2, 79, 67
4, 383232, Note_off_c, 2, 75, 67
4, 383232, Note_off_c, 2, 79, 67
4, 383232, Note_on_c, 2, 75, 67
4, 383232, Note_on_c, 2, 80, 67
4, 383264, Note_off_c, 2, 75, 67
4, 383264, Note_off_c, 2, 80, 67
4, 383296, Note_off_c, 2, 75, 67
4, 383296, Note_off_c, 2, 80, 67
4, 383296, Note_on_c, 2, 74, 67
4, 383328, Note_off_c, 2, 74, 67
4, 383360, Note_off_c, 2, 74, 67
4, 383360, Note_on_c, 2, 72, 67
4, 383392, Note_off_c, 2, 72, 67
4, 383424, Note_off_c, 2, 72, 67
4, 383424, Note_on_c, 2, 74, 67
4, 383424, Note_on_c, 2, 79, 67
4, 383456, Note_off_c, 2, 74, 67
4, 383456, Note_off_c, 2, 79, 67
4, 383488, Note_off_c, 2, 74, 67
4, 383488, Note_off_c, 2, 79, 67
4, 383488, Note_on_c, 2, 70, 67
4, 383488, Note_on_c, 2, 77, 67
4, 383552, Note_off_c, 2, 70, 67
4, 383552, Note_off_c, 2, 77, 67
4, 383616, Note_off_c, 2, 70, 67
4, 383616, Note_off_c, 2, 77, 67
4, 383616, Note_on_c, 2, 68, 67
4, 383616, Note_on_c, 2, 70, 67
4, 383680, Note_off_c, 2, 68, 67
4, 383680, Note_off_c, 2, 70, 67
4, 383744, Note_off_c, 2, 68, 67
4, 383744, Note_off_c, 2, 70, 67
4, 383744, Note_on_c, 2, 68, 67
4, 383744, Note_on_c, 2, 70, 67
4, 383808, Note_off_c, 2, 68, 67
4, 383808, Note_off_c, 2, 70, 67
4, 383872, Note_off_c, 2, 68, 67
4, 383872, Note_off_c, 2, 70, 67
4, 383872, Note_on_c, 2, 74, 67
4, 383936, Note_off_c, 2, 74, 67
4, 383936, Note_on_c, 2, 75, 67
4, 384000, Note_off_c, 2, 75, 67
4, 384000, Note_on_c, 2, 77, 67
4, 384064, Note_off_c, 2, 77, 67
4, 384128, Note_off_c, 2, 77, 67
4, 384128, Note_on_c, 2, 74, 67
4, 384128, Note_on_c, 2, 77, 67
4, 384192, Note_off_c, 2, 74, 67
4, 384192, Note_off_c, 2, 77, 67
4, 384256, Note_off_c, 2, 74, 67
4, 384256, Note_off_c, 2, 77, 67
4, 384256, Note_on_c, 2, 74, 67
4, 384256, Note_on_c, 2, 77, 67
4, 384320, Note_off_c, 2, 74, 67
4, 384320, Note_off_c, 2, 77, 67
4, 384384, Note_off_c, 2, 74, 67
4, 384384, Note_off_c, 2, 77, 67
4, 384384, Note_on_c, 2, 74, 67
4, 384448, Note_off_c, 2, 74, 67
4, 384448, Note_on_c, 2, 75, 67
4, 384512, Note_off_c, 2, 75, 67
4, 384512, Note_on_c, 2, 77, 67
4, 384576, Note_off_c, 2, 77, 67
4, 384640, Note_off_c, 2, 77, 67
4, 384640, Note_on_c, 2, 74, 67
4, 384640, Note_on_c, 2, 77, 67
4, 384704, Note_off_c, 2, 74, 67
4, 384704, Note_off_c, 2, 77, 67
4, 384768, Note_off_c, 2, 74, 67
4, 384768, Note_off_c, 2, 77, 67
4, 384768, Note_on_c, 2, 74, 67
4, 384768, Note_on_c, 2, 77, 67
4, 384832, Note_off_c, 2, 74, 67
4, 384832, Note_off_c, 2, 77, 67
4, 384896, Note_off_c, 2, 74, 67
4, 384896, Note_off_c, 2, 77, 67
4, 384896, Note_on_c, 2, 74, 67
4, 384960, Note_off_c, 2, 74, 67
4, 384960, Note_on_c, 2, 75, 67
4, 385024, Note_off_c, 2, 75, 67
4, 385024, Note_on_c, 2, 70, 67
4, 385024, Note_on_c, 2, 77, 67
4, 385088, Note_off_c, 2, 70, 67
4, 385088, Note_off_c, 2, 77, 67
4, 385152, Note_off_c, 2, 70, 67
4, 385152, Note_off_c, 2, 77, 67
4, 385152, Note_on_c, 2, 74, 67
4, 385152, Note_on_c, 2, 77, 67
4, 385216, Note_off_c, 2, 74, 67
4, 385216, Note_off_c, 2, 77, 67
4, 385280, Note_off_c, 2, 74, 67
4, 385280, Note_off_c, 2, 77, 67
4, 385280, Note_on_c, 2, 74, 67
4, 385280, Note_on_c, 2, 79, 67
4, 385312, Note_off_c, 2, 74, 67
4, 385312, Note_off_c, 2, 79, 67
4, 385344, Note_off_c, 2, 74, 67
4, 385344, Note_off_c, 2, 79, 67
4, 385344, Note_on_c, 2, 72, 67
4, 385344, Note_on_c, 2, 77, 67
4, 385376, Note_off_c, 2, 72, 67
4, 385376, Note_off_c, 2, 77, 67
4, 385408, Note_off_c, 2, 72, 67
4, 385408, Note_off_c, 2, 77, 67
4, 385408, Note_on_c, 2, 70, 67
4, 385408, Note_on_c, 2, 77, 67
4, 385440, Note_off_c, 2, 70, 67
4, 385440, Note_off_c, 2, 77, 67
4, 385472, Note_off_c, 2, 70, 67
4, 385472, Note_off_c, 2, 77, 67
4, 385472, Note_on_c, 2, 68, 67
4, 385472, Note_on_c, 2, 79, 67
4, 385504, Note_off_c, 2, 68, 67
4, 385504, Note_off_c, 2, 79, 67
4, 385536, Note_off_c, 2, 68, 67
4, 385536, Note_off_c, 2, 79, 67
4, 385536, Note_on_c, 2, 67, 67
4, 385536, Note_on_c, 2, 75, 67
4, 385600, Note_off_c, 2, 67, 67
4, 385600, Note_off_c, 2, 75, 67
4, 385664, Note_off_c, 2, 67, 67
4, 385664, Note_off_c, 2, 75, 67
4, 385664, Note_on_c, 2, 70, 67
4, 385728, Note_off_c, 2, 70, 67
4, 385792, Note_off_c, 2, 70, 67
4, 385792, Note_on_c, 2, 70, 67
4, 385792, Note_on_c, 2, 79, 67
4, 385856, Note_off_c, 2, 70, 67
4, 385856, Note_off_c, 2, 79, 67
4, 385920, Note_off_c, 2, 70, 67
4, 385920, Note_off_c, 2, 79, 67
4, 385920, Note_on_c, 2, 75, 67
4, 385984, Note_off_c, 2, 75, 67
4, 385984, Note_on_c, 2, 77, 67
4, 386048, Note_off_c, 2, 77, 67
4, 386048, Note_on_c, 2, 79, 67
4, 386112, Note_off_c, 2, 79, 67
4, 386176, Note_off_c, 2, 79, 67
4, 386176, Note_on_c, 2, 75, 67
4, 386176, Note_on_c, 2, 79, 67
4, 386240, Note_off_c, 2, 75, 67
4, 386240, Note_off_c, 2, 79, 67
4, 386304, Note_off_c, 2, 75, 67
4, 386304, Note_off_c, 2, 79, 67
4, 386304, Note_on_c, 2, 75, 67
4, 386304, Note_on_c, 2, 79, 67
4, 386368, Note_off_c, 2, 75, 67
4, 386368, Note_off_c, 2, 79, 67
4, 386432, Note_off_c, 2, 75, 67
4, 386432, Note_off_c, 2, 79, 67
4, 386432, Note_on_c, 2, 75, 67
4, 386496, Note_off_c, 2, 75, 67
4, 386496, Note_on_c, 2, 77, 67
4, 386560, Note_off_c, 2, 77, 67
4, 386560, Note_on_c, 2, 79, 67
4, 386624, Note_off_c, 2, 79, 67
4, 386688, Note_off_c, 2, 79, 67
4, 386688, Note_on_c, 2, 75, 67
4, 386688, Note_on_c, 2, 79, 67
4, 386752, Note_off_c, 2, 75, 67
4, 386752, Note_off_c, 2, 79, 67
4, 386816, Note_off_c, 2, 75, 67
4, 386816, Note_off_c, 2, 79, 67
4, 386816, Note_on_c, 2, 75, 67
4, 386816, Note_on_c, 2, 79, 67
4, 386880, Note_off_c, 2, 75, 67
4, 386880, Note_off_c, 2, 79, 67
4, 386944, Note_off_c, 2, 75, 67
4, 386944, Note_off_c, 2, 79, 67
4, 386944, Note_on_c, 2, 75, 67
4, 387008, Note_off_c, 2, 75, 67
4, 387008, Note_on_c, 2, 77, 67
4, 387072, Note_off_c, 2, 77, 67
4, 387072, Note_on_c, 2, 79, 67
4, 387136, Note_off_c, 2, 79, 67
4, 387200, Note_off_c, 2, 79, 67
4, 387200, Note_on_c, 2, 75, 67
4, 387200, Note_on_c, 2, 79, 67
4, 387264, Note_off_c, 2, 75, 67
4, 387264, Note_off_c, 2, 79, 67
4, 387328, Note_off_c, 2, 75, 67
4, 387328, Note_off_c, 2, 79, 67
4, 387328, Note_on_c, 2, 75, 67
4, 387328, Note_on_c, 2, 80, 67
4, 387360, Note_off_c, 2, 75, 67
4, 387360, Note_off_c, 2, 80, 67
4, 387392, Note_off_c, 2, 75, 67
4, 387392, Note_off_c, 2, 80, 67
4, 387392, Note_on_c, 2, 74, 67
4, 387456, Note_off_c, 2, 74, 67
4, 387456, Note_on_c, 2, 72, 67
4, 387520, Note_off_c, 2, 72, 67
4, 387520, Note_on_c, 2, 74, 67
4, 387520, Note_on_c, 2, 79, 67
4, 387552, Note_off_c, 2, 74, 67
4, 387552, Note_off_c, 2, 79, 67
4, 387584, Note_off_c, 2, 74, 67
4, 387584, Note_off_c, 2, 79, 67
4, 387584, Note_on_c, 2, 70, 67
4, 387584, Note_on_c, 2, 77, 67
4, 387648, Note_off_c, 2, 70, 67
4, 387648, Note_off_c, 2, 77, 67
4, 387712, Note_off_c, 2, 70, 67
4, 387712, Note_off_c, 2, 77, 67
4, 387712, Note_on_c, 2, 68, 67
4, 387712, Note_on_c, 2, 70, 67
4, 387776, Note_off_c, 2, 68, 67
4, 387776, Note_off_c, 2, 70, 67
4, 387840, Note_off_c, 2, 68, 67
4, 387840, Note_off_c, 2, 70, 67
4, 387840, Note_on_c, 2, 68, 67
4, 387840, Note_on_c, 2, 70, 67
4, 387904, Note_off_c, 2, 68, 67
4, 387904, Note_off_c, 2, 70, 67
4, 387968, Note_off_c, 2, 68, 67
4, 387968, Note_off_c, 2, 70, 67
4, 387968, Note_on_c, 2, 74, 67
4, 388032, Note_off_c, 2, 74, 67
4, 388032, Note_on_c, 2, 75, 67
4, 388096, Note_off_c, 2, 75, 67
4, 388096, Note_on_c, 2, 77, 67
4, 388224, Note_off_c, 2, 77, 67
4, 388224, Note_on_c, 2, 74, 67
4, 388224, Note_on_c, 2, 80, 67
4, 388288, Note_off_c, 2, 74, 67
4, 388288, Note_off_c, 2, 80, 67
4, 388352, Note_off_c, 2, 74, 67
4, 388352, Note_off_c, 2, 80, 67
4, 388352, Note_on_c, 2, 74, 67
4, 388352, Note_on_c, 2, 79, 67
4, 388416, Note_off_c, 2, 74, 67
4, 388416, Note_off_c, 2, 79, 67
4, 388480, Note_off_c, 2, 74, 67
4, 388480, Note_off_c, 2, 79, 67
4, 388480, Note_on_c, 2, 77, 67
4, 388544, Note_off_c, 2, 77, 67
4, 388608, Note_off_c, 2, 77, 67
4, 388608, Note_on_c, 2, 75, 67
4, 388672, Note_off_c, 2, 75, 67
4, 388736, Note_off_c, 2, 75, 67
4, 388736, Note_on_c, 2, 70, 67
4, 388736, Note_on_c, 2, 74, 67
4, 388800, Note_off_c, 2, 70, 67
4, 388800, Note_off_c, 2, 74, 67
4, 388864, Note_off_c, 2, 70, 67
4, 388864, Note_off_c, 2, 74, 67
4, 388864, Note_on_c, 2, 72, 67
4, 388864, Note_on_c, 2, 74, 67
4, 388928, Note_off_c, 2, 72, 67
4, 388928, Note_off_c, 2, 74, 67
4, 388992, Note_off_c, 2, 72, 67
4, 388992, Note_off_c, 2, 74, 67
4, 388992, Note_on_c, 2, 70, 67
4, 388992, Note_on_c, 2, 74, 67
4, 389056, Note_off_c, 2, 70, 67
4, 389056, Note_off_c, 2, 74, 67
4, 389120, Note_off_c, 2, 70, 67
4, 389120, Note_off_c, 2, 74, 67
4, 389120, Note_on_c, 2, 80, 67
4, 389120, Note_on_c, 2, 84, 67
4, 389376, Note_off_c, 2, 80, 67
4, 389376, Note_off_c, 2, 84, 67
4, 389376, Note_on_c, 2, 70, 67
4, 389376, Note_on_c, 2, 74, 67
4, 389392, Note_off_c, 2, 70, 67
4, 389392, Note_off_c, 2, 74, 67
4, 389408, Note_off_c, 2, 70, 67
4, 389408, Note_off_c, 2, 74, 67
4, 389408, Note_on_c, 2, 72, 67
4, 389408, Note_on_c, 2, 75, 67
4, 389424, Note_off_c, 2, 72, 67
4, 389424, Note_off_c, 2, 75, 67
4, 389440, Note_off_c, 2, 72, 67
4, 389440, Note_off_c, 2, 75, 67
4, 389440, Note_on_c, 2, 70, 67
4, 389440, Note_on_c, 2, 74, 67
4, 389472, Note_off_c, 2, 70, 67
4, 389472, Note_off_c, 2, 74, 67
4, 389504, Note_off_c, 2, 70, 67
4, 389504, Note_off_c, 2, 74, 67
4, 389504, Note_on_c, 2, 68, 67
4, 389504, Note_on_c, 2, 72, 67
4, 389536, Note_off_c, 2, 68, 67
4, 389536, Note_off_c, 2, 72, 67
4, 389568, Note_off_c, 2, 68, 67
4, 389568, Note_off_c, 2, 72, 67
4, 389568, Note_on_c, 2, 74, 67
4, 389568, Note_on_c, 2, 77, 67
4, 389600, Note_off_c, 2, 74, 67
4, 389600, Note_off_c, 2, 77, 67
4, 389632, Note_off_c, 2, 74, 67
4, 389632, Note_off_c, 2, 77, 67
4, 389632, Note_on_c, 2, 75, 67
4, 389632, Note_on_c, 2, 79, 67
4, 389760, Note_off_c, 2, 75, 67
4, 389760, Note_off_c, 2, 79, 67
4, 389760, Note_on_c, 2, 70, 67
4, 389824, Note_off_c, 2, 70, 67
4, 389888, Note_off_c, 2, 70, 67
4, 389888, Note_on_c, 2, 70, 67
4, 389952, Note_off_c, 2, 70, 67
4, 390016, Note_off_c, 2, 70, 67
4, 390016, Note_on_c, 2, 75, 67
4, 390016, Note_on_c, 2, 79, 67
4, 390080, Note_off_c, 2, 75, 67
4, 390080, Note_off_c, 2, 79, 67
4, 390080, Note_on_c, 2, 77, 67
4, 390080, Note_on_c, 2, 80, 67
4, 390144, Note_off_c, 2, 77, 67
4, 390144, Note_off_c, 2, 80, 67
4, 390144, Note_on_c, 2, 79, 67
4, 390144, Note_on_c, 2, 82, 67
4, 390208, Note_off_c, 2, 79, 67
4, 390208, Note_off_c, 2, 82, 67
4, 390272, Note_off_c, 2, 79, 67
4, 390272, Note_off_c, 2, 82, 67
4, 390272, Note_on_c, 2, 79, 67
4, 390272, Note_on_c, 2, 82, 67
4, 390336, Note_off_c, 2, 79, 67
4, 390336, Note_off_c, 2, 82, 67
4, 390400, Note_off_c, 2, 79, 67
4, 390400, Note_off_c, 2, 82, 67
4, 390400, Note_on_c, 2, 70, 67
4, 390400, Note_on_c, 2, 79, 67
4, 390464, Note_off_c, 2, 70, 67
4, 390464, Note_off_c, 2, 79, 67
4, 390528, Note_off_c, 2, 70, 67
4, 390528, Note_off_c, 2, 79, 67
4, 390528, Note_on_c, 2, 70, 67
4, 390528, Note_on_c, 2, 75, 67
4, 390592, Note_off_c, 2, 70, 67
4, 390592, Note_off_c, 2, 75, 67
4, 390656, Note_off_c, 2, 70, 67
4, 390656, Note_off_c, 2, 75, 67
4, 390656, Note_on_c, 2, 84, 67
4, 390656, Note_on_c, 2, 87, 67
4, 390720, Note_off_c, 2, 84, 67
4, 390720, Note_off_c, 2, 87, 67
4, 390784, Note_off_c, 2, 84, 67
4, 390784, Note_off_c, 2, 87, 67
4, 390784, Note_on_c, 2, 82, 67
4, 390784, Note_on_c, 2, 86, 67
4, 390848, Note_off_c, 2, 82, 67
4, 390848, Note_off_c, 2, 86, 67
4, 390912, Note_off_c, 2, 82, 67
4, 390912, Note_off_c, 2, 86, 67
4, 390912, Note_on_c, 2, 80, 67
4, 390912, Note_on_c, 2, 84, 67
4, 390976, Note_off_c, 2, 80, 67
4, 390976, Note_off_c, 2, 84, 67
4, 391040, Note_off_c, 2, 80, 67
4, 391040, Note_off_c, 2, 84, 67
4, 391040, Note_on_c, 2, 79, 67
4, 391040, Note_on_c, 2, 87, 67
4, 391104, Note_off_c, 2, 79, 67
4, 391104, Note_off_c, 2, 87, 67
4, 391168, Note_off_c, 2, 79, 67
4, 391168, Note_off_c, 2, 87, 67
4, 391168, Note_on_c, 2, 75, 67
4, 391168, Note_on_c, 2, 82, 67
4, 391232, Note_off_c, 2, 75, 67
4, 391232, Note_off_c, 2, 82, 67
4, 391296, Note_off_c, 2, 75, 67
4, 391296, Note_off_c, 2, 82, 67
4, 391296, Note_on_c, 2, 79, 67
4, 391360, Note_off_c, 2, 79, 67
4, 391424, Note_off_c, 2, 79, 67
4, 391424, Note_on_c, 2, 67, 67
4, 391424, Note_on_c, 2, 75, 67
4, 391488, Note_off_c, 2, 67, 67
4, 391488, Note_off_c, 2, 75, 67
4, 391552, Note_off_c, 2, 67, 67
4, 391552, Note_off_c, 2, 75, 67
4, 391552, Note_on_c, 2, 68, 67
4, 391552, Note_on_c, 2, 74, 67
4, 391584, Note_off_c, 2, 68, 67
4, 391584, Note_off_c, 2, 74, 67
4, 391616, Note_off_c, 2, 68, 67
4, 391616, Note_off_c, 2, 74, 67
4, 391616, Note_on_c, 2, 74, 67
4, 391616, Note_on_c, 2, 79, 67
4, 391648, Note_off_c, 2, 74, 67
4, 391648, Note_off_c, 2, 79, 67
4, 391680, Note_off_c, 2, 74, 67
4, 391680, Note_off_c, 2, 79, 67
4, 391680, Note_on_c, 2, 70, 67
4, 391680, Note_on_c, 2, 77, 67
4, 391744, Note_off_c, 2, 70, 67
4, 391744, Note_off_c, 2, 77, 67
4, 391808, Note_off_c, 2, 70, 67
4, 391808, Note_off_c, 2, 77, 67
4, 391808, Note_on_c, 2, 65, 67
4, 391808, Note_on_c, 2, 70, 67
4, 391872, Note_off_c, 2, 65, 67
4, 391872, Note_off_c, 2, 70, 67
4, 391936, Note_off_c, 2, 65, 67
4, 391936, Note_off_c, 2, 70, 67
4, 391936, Note_on_c, 2, 68, 67
4, 391936, Note_on_c, 2, 70, 67
4, 392000, Note_off_c, 2, 68, 67
4, 392000, Note_off_c, 2, 70, 67
4, 392064, Note_off_c, 2, 68, 67
4, 392064, Note_off_c, 2, 70, 67
4, 392064, Note_on_c, 2, 70, 67
4, 392064, Note_on_c, 2, 79, 67
4, 392128, Note_off_c, 2, 70, 67
4, 392128, Note_off_c, 2, 79, 67
4, 392128, Note_on_c, 2, 77, 67
4, 392128, Note_on_c, 2, 80, 67
4, 392192, Note_off_c, 2, 77, 67
4, 392192, Note_off_c, 2, 80, 67
4, 392192, Note_on_c, 2, 79, 67
4, 392192, Note_on_c, 2, 82, 67
4, 392256, Note_off_c, 2, 79, 67
4, 392256, Note_off_c, 2, 82, 67
4, 392320, Note_off_c, 2, 79, 67
4, 392320, Note_off_c, 2, 82, 67
4, 392320, Note_on_c, 2, 79, 67
4, 392320, Note_on_c, 2, 82, 67
4, 392384, Note_off_c, 2, 79, 67
4, 392384, Note_off_c, 2, 82, 67
4, 392448, Note_off_c, 2, 79, 67
4, 392448, Note_off_c, 2, 82, 67
4, 392448, Note_on_c, 2, 70, 67
4, 392448, Note_on_c, 2, 79, 67
4, 392512, Note_off_c, 2, 70, 67
4, 392512, Note_off_c, 2, 79, 67
4, 392576, Note_off_c, 2, 70, 67
4, 392576, Note_off_c, 2, 79, 67
4, 392576, Note_on_c, 2, 75, 67
4, 392576, Note_on_c, 2, 82, 67
4, 392640, Note_off_c, 2, 75, 67
4, 392640, Note_off_c, 2, 82, 67
4, 392704, Note_off_c, 2, 75, 67
4, 392704, Note_off_c, 2, 82, 67
4, 392704, Note_on_c, 2, 84, 67
4, 392704, Note_on_c, 2, 87, 67
4, 392768, Note_off_c, 2, 84, 67
4, 392768, Note_off_c, 2, 87, 67
4, 392832, Note_off_c, 2, 84, 67
4, 392832, Note_off_c, 2, 87, 67
4, 392832, Note_on_c, 2, 82, 67
4, 392832, Note_on_c, 2, 86, 67
4, 392896, Note_off_c, 2, 82, 67
4, 392896, Note_off_c, 2, 86, 67
4, 392960, Note_off_c, 2, 82, 67
4, 392960, Note_off_c, 2, 86, 67
4, 392960, Note_on_c, 2, 80, 67
4, 392960, Note_on_c, 2, 84, 67
4, 393024, Note_off_c, 2, 80, 67
4, 393024, Note_off_c, 2, 84, 67
4, 393088, Note_off_c, 2, 80, 67
4, 393088, Note_off_c, 2, 84, 67
4, 393088, Note_on_c, 2, 70, 67
4, 393088, Note_on_c, 2, 74, 67
4, 393120, Note_off_c, 2, 70, 67
4, 393120, Note_off_c, 2, 74, 67
4, 393152, Note_off_c, 2, 70, 67
4, 393152, Note_off_c, 2, 74, 67
4, 393152, Note_on_c, 2, 77, 67
4, 393152, Note_on_c, 2, 80, 67
4, 393184, Note_off_c, 2, 77, 67
4, 393184, Note_off_c, 2, 80, 67
4, 393216, Note_off_c, 2, 77, 67
4, 393216, Note_off_c, 2, 80, 67
4, 393216, Note_on_c, 2, 77, 67
4, 393216, Note_on_c, 2, 82, 67
4, 393280, Note_off_c, 2, 77, 67
4, 393280, Note_off_c, 2, 82, 67
4, 393344, Note_off_c, 2, 77, 67
4, 393344, Note_off_c, 2, 82, 67
4, 393344, Note_on_c, 2, 80, 67
4, 393344, Note_on_c, 2, 87, 67
4, 393408, Note_off_c, 2, 80, 67
4, 393408, Note_off_c, 2, 87, 67
4, 393472, Note_off_c, 2, 80, 67
4, 393472, Note_off_c, 2, 87, 67
4, 393472, Note_on_c, 2, 82, 67
4, 393472, Note_on_c, 2, 86, 67
4, 393536, Note_off_c, 2, 82, 67
4, 393536, Note_off_c, 2, 86, 67
4, 393600, Note_off_c, 2, 82, 67
4, 393600, Note_off_c, 2, 86, 67
4, 393600, Note_on_c, 2, 80, 67
4, 393600, Note_on_c, 2, 89, 67
4, 393664, Note_off_c, 2, 80, 67
4, 393664, Note_off_c, 2, 89, 67
4, 393728, Note_off_c, 2, 80, 67
4, 393728, Note_off_c, 2, 89, 67
4, 393728, Note_on_c, 2, 79, 67
4, 393728, Note_on_c, 2, 87, 67
4, 393792, Note_off_c, 2, 79, 67
4, 393792, Note_off_c, 2, 87, 67
4, 393856, Note_off_c, 2, 79, 67
4, 393856, Note_off_c, 2, 87, 67
4, 393856, Note_on_c, 2, 70, 67
4, 393856, Note_on_c, 2, 82, 67
4, 393920, Note_off_c, 2, 70, 67
4, 393920, Note_off_c, 2, 82, 67
4, 393984, Note_off_c, 2, 70, 67
4, 393984, Note_off_c, 2, 82, 67
4, 393984, Note_on_c, 2, 70, 67
4, 393984, Note_on_c, 2, 82, 67
4, 394048, Note_off_c, 2, 70, 67
4, 394048, Note_off_c, 2, 82, 67
4, 394112, Note_off_c, 2, 70, 67
4, 394112, Note_off_c, 2, 82, 67
4, 394112, Note_on_c, 2, 75, 67
4, 394176, Note_off_c, 2, 75, 67
4, 394176, Note_on_c, 2, 77, 67
4, 394240, Note_off_c, 2, 77, 67
4, 394240, Note_on_c, 2, 79, 67
4, 394304, Note_off_c, 2, 79, 67
4, 394368, Note_off_c, 2, 79, 67
4, 394368, Note_on_c, 2, 75, 67
4, 394368, Note_on_c, 2, 79, 67
4, 394432, Note_off_c, 2, 75, 67
4, 394432, Note_off_c, 2, 79, 67
4, 394496, Note_off_c, 2, 75, 67
4, 394496, Note_off_c, 2, 79, 67
4, 394496, Note_on_c, 2, 75, 67
4, 394496, Note_on_c, 2, 79, 67
4, 394560, Note_off_c, 2, 75, 67
4, 394560, Note_off_c, 2, 79, 67
4, 394624, Note_off_c, 2, 75, 67
4, 394624, Note_off_c, 2, 79, 67
4, 394624, Note_on_c, 2, 75, 67
4, 394688, Note_off_c, 2, 75, 67
4, 394688, Note_on_c, 2, 77, 67
4, 394752, Note_off_c, 2, 77, 67
4, 394752, Note_on_c, 2, 79, 67
4, 394816, Note_off_c, 2, 79, 67
4, 394880, Note_off_c, 2, 79, 67
4, 394880, Note_on_c, 2, 75, 67
4, 394880, Note_on_c, 2, 79, 67
4, 394944, Note_off_c, 2, 75, 67
4, 394944, Note_off_c, 2, 79, 67
4, 395008, Note_off_c, 2, 75, 67
4, 395008, Note_off_c, 2, 79, 67
4, 395008, Note_on_c, 2, 75, 67
4, 395008, Note_on_c, 2, 79, 67
4, 395072, Note_off_c, 2, 75, 67
4, 395072, Note_off_c, 2, 79, 67
4, 395136, Note_off_c, 2, 75, 67
4, 395136, Note_off_c, 2, 79, 67
4, 395136, Note_on_c, 2, 75, 67
4, 395200, Note_off_c, 2, 75, 67
4, 395200, Note_on_c, 2, 77, 67
4, 395264, Note_off_c, 2, 77, 67
4, 395264, Note_on_c, 2, 79, 67
4, 395328, Note_off_c, 2, 79, 67
4, 395392, Note_off_c, 2, 79, 67
4, 395392, Note_on_c, 2, 75, 67
4, 395392, Note_on_c, 2, 79, 67
4, 395456, Note_off_c, 2, 75, 67
4, 395456, Note_off_c, 2, 79, 67
4, 395520, Note_off_c, 2, 75, 67
4, 395520, Note_off_c, 2, 79, 67
4, 395520, Note_on_c, 2, 75, 67
4, 395520, Note_on_c, 2, 80, 67
4, 395552, Note_off_c, 2, 75, 67
4, 395552, Note_off_c, 2, 80, 67
4, 395584, Note_off_c, 2, 75, 67
4, 395584, Note_off_c, 2, 80, 67
4, 395584, Note_on_c, 2, 74, 67
4, 395616, Note_off_c, 2, 74, 67
4, 395648, Note_off_c, 2, 74, 67
4, 395648, Note_on_c, 2, 72, 67
4, 395680, Note_off_c, 2, 72, 67
4, 395712, Note_off_c, 2, 72, 67
4, 395712, Note_on_c, 2, 74, 67
4, 395712, Note_on_c, 2, 79, 67
4, 395744, Note_off_c, 2, 74, 67
4, 395744, Note_off_c, 2, 79, 67
4, 395776, Note_off_c, 2, 74, 67
4, 395776, Note_off_c, 2, 79, 67
4, 395776, Note_on_c, 2, 70, 67
4, 395776, Note_on_c, 2, 77, 67
4, 395840, Note_off_c, 2, 70, 67
4, 395840, Note_off_c, 2, 77, 67
4, 395904, Note_off_c, 2, 70, 67
4, 395904, Note_off_c, 2, 77, 67
4, 395904, Note_on_c, 2, 68, 67
4, 395904, Note_on_c, 2, 70, 67
4, 395968, Note_off_c, 2, 68, 67
4, 395968, Note_off_c, 2, 70, 67
4, 396032, Note_off_c, 2, 68, 67
4, 396032, Note_off_c, 2, 70, 67
4, 396032, Note_on_c, 2, 68, 67
4, 396032, Note_on_c, 2, 70, 67
4, 396096, Note_off_c, 2, 68, 67
4, 396096, Note_off_c, 2, 70, 67
4, 396160, Note_off_c, 2, 68, 67
4, 396160, Note_off_c, 2, 70, 67
4, 396160, Note_on_c, 2, 74, 67
4, 396224, Note_off_c, 2, 74, 67
4, 396224, Note_on_c, 2, 75, 67
4, 396288, Note_off_c, 2, 75, 67
4, 396288, Note_on_c, 2, 77, 67
4, 396352, Note_off_c, 2, 77, 67
4, 396416, Note_off_c, 2, 77, 67
4, 396416, Note_on_c, 2, 74, 67
4, 396416, Note_on_c, 2, 77, 67
4, 396480, Note_off_c, 2, 74, 67
4, 396480, Note_off_c, 2, 77, 67
4, 396544, Note_off_c, 2, 74, 67
4, 396544, Note_off_c, 2, 77, 67
4, 396544, Note_on_c, 2, 74, 67
4, 396544, Note_on_c, 2, 77, 67
4, 396608, Note_off_c, 2, 74, 67
4, 396608, Note_off_c, 2, 77, 67
4, 396672, Note_off_c, 2, 74, 67
4, 396672, Note_off_c, 2, 77, 67
4, 396672, Note_on_c, 2, 74, 67
4, 396736, Note_off_c, 2, 74, 67
4, 396736, Note_on_c, 2, 75, 67
4, 396800, Note_off_c, 2, 75, 67
4, 396800, Note_on_c, 2, 77, 67
4, 396864, Note_off_c, 2, 77, 67
4, 396928, Note_off_c, 2, 77, 67
4, 396928, Note_on_c, 2, 74, 67
4, 396928, Note_on_c, 2, 77, 67
4, 396992, Note_off_c, 2, 74, 67
4, 396992, Note_off_c, 2, 77, 67
4, 397056, Note_off_c, 2, 74, 67
4, 397056, Note_off_c, 2, 77, 67
4, 397056, Note_on_c, 2, 74, 67
4, 397056, Note_on_c, 2, 77, 67
4, 397120, Note_off_c, 2, 74, 67
4, 397120, Note_off_c, 2, 77, 67
4, 397184, Note_off_c, 2, 74, 67
4, 397184, Note_off_c, 2, 77, 67
4, 397184, Note_on_c, 2, 74, 67
4, 397248, Note_off_c, 2, 74, 67
4, 397248, Note_on_c, 2, 75, 67
4, 397312, Note_off_c, 2, 75, 67
4, 397312, Note_on_c, 2, 70, 67
4, 397312, Note_on_c, 2, 77, 67
4, 397376, Note_off_c, 2, 70, 67
4, 397376, Note_off_c, 2, 77, 67
4, 397440, Note_off_c, 2, 70, 67
4, 397440, Note_off_c, 2, 77, 67
4, 397440, Note_on_c, 2, 74, 67
4, 397440, Note_on_c, 2, 77, 67
4, 397504, Note_off_c, 2, 74, 67
4, 397504, Note_off_c, 2, 77, 67
4, 397568, Note_off_c, 2, 74, 67
4, 397568, Note_off_c, 2, 77, 67
4, 397568, Note_on_c, 2, 74, 67
4, 397568, Note_on_c, 2, 79, 67
4, 397600, Note_off_c, 2, 74, 67
4, 397600, Note_off_c, 2, 79, 67
4, 397632, Note_off_c, 2, 74, 67
4, 397632, Note_off_c, 2, 79, 67
4, 397632, Note_on_c, 2, 72, 67
4, 397632, Note_on_c, 2, 77, 67
4, 397664, Note_off_c, 2, 72, 67
4, 397664, Note_off_c, 2, 77, 67
4, 397696, Note_off_c, 2, 72, 67
4, 397696, Note_off_c, 2, 77, 67
4, 397696, Note_on_c, 2, 70, 67
4, 397696, Note_on_c, 2, 77, 67
4, 397728, Note_off_c, 2, 70, 67
4, 397728, Note_off_c, 2, 77, 67
4, 397760, Note_off_c, 2, 70, 67
4, 397760, Note_off_c, 2, 77, 67
4, 397760, Note_on_c, 2, 68, 67
4, 397760, Note_on_c, 2, 79, 67
4, 397792, Note_off_c, 2, 68, 67
4, 397792, Note_off_c, 2, 79, 67
4, 397824, Note_off_c, 2, 68, 67
4, 397824, Note_off_c, 2, 79, 67
4, 397824, Note_on_c, 2, 67, 67
4, 397824, Note_on_c, 2, 75, 67
4, 397888, Note_off_c, 2, 67, 67
4, 397888, Note_off_c, 2, 75, 67
4, 397952, Note_off_c, 2, 67, 67
4, 397952, Note_off_c, 2, 75, 67
4, 397952, Note_on_c, 2, 70, 67
4, 398016, Note_off_c, 2, 70, 67
4, 398080, Note_off_c, 2, 70, 67
4, 398080, Note_on_c, 2, 70, 67
4, 398080, Note_on_c, 2, 79, 67
4, 398144, Note_off_c, 2, 70, 67
4, 398144, Note_off_c, 2, 79, 67
4, 398208, Note_off_c, 2, 70, 67
4, 398208, Note_off_c, 2, 79, 67
4, 398208, Note_on_c, 2, 75, 67
4, 398272, Note_off_c, 2, 75, 67
4, 398272, Note_on_c, 2, 77, 67
4, 398336, Note_off_c, 2, 77, 67
4, 398336, Note_on_c, 2, 79, 67
4, 398400, Note_off_c, 2, 79, 67
4, 398464, Note_off_c, 2, 79, 67
4, 398464, Note_on_c, 2, 75, 67
4, 398464, Note_on_c, 2, 79, 67
4, 398528, Note_off_c, 2, 75, 67
4, 398528, Note_off_c, 2, 79, 67
4, 398592, Note_off_c, 2, 75, 67
4, 398592, Note_off_c, 2, 79, 67
4, 398592, Note_on_c, 2, 75, 67
4, 398592, Note_on_c, 2, 79, 67
4, 398656, Note_off_c, 2, 75, 67
4, 398656, Note_off_c, 2, 79, 67
4, 398720, Note_off_c, 2, 75, 67
4, 398720, Note_off_c, 2, 79, 67
4, 398720, Note_on_c, 2, 75, 67
4, 398784, Note_off_c, 2, 75, 67
4, 398784, Note_on_c, 2, 77, 67
4, 398848, Note_off_c, 2, 77, 67
4, 398848, Note_on_c, 2, 79, 67
4, 398912, Note_off_c, 2, 79, 67
4, 398976, Note_off_c, 2, 79, 67
4, 398976, Note_on_c, 2, 75, 67
4, 398976, Note_on_c, 2, 79, 67
4, 399040, Note_off_c, 2, 75, 67
4, 399040, Note_off_c, 2, 79, 67
4, 399104, Note_off_c, 2, 75, 67
4, 399104, Note_off_c, 2, 79, 67
4, 399104, Note_on_c, 2, 75, 67
4, 399104, Note_on_c, 2, 79, 67
4, 399168, Note_off_c, 2, 75, 67
4, 399168, Note_off_c, 2, 79, 67
4, 399232, Note_off_c, 2, 75, 67
4, 399232, Note_off_c, 2, 79, 67
4, 399232, Note_on_c, 2, 75, 67
4, 399296, Note_off_c, 2, 75, 67
4, 399296, Note_on_c, 2, 77, 67
4, 399360, Note_off_c, 2, 77, 67
4, 399360, Note_on_c, 2, 79, 67
4, 399424, Note_off_c, 2, 79, 67
4, 399488, Note_off_c, 2, 79, 67
4, 399488, Note_on_c, 2, 75, 67
4, 399488, Note_on_c, 2, 79, 67
4, 399552, Note_off_c, 2, 75, 67
4, 399552, Note_off_c, 2, 79, 67
4, 399616, Note_off_c, 2, 75, 67
4, 399616, Note_off_c, 2, 79, 67
4, 399616, Note_on_c, 2, 75, 67
4, 399616, Note_on_c, 2, 80, 67
4, 399648, Note_off_c, 2, 75, 67
4, 399648, Note_off_c, 2, 80, 67
4, 399680, Note_off_c, 2, 75, 67
4, 399680, Note_off_c, 2, 80, 67
4, 399680, Note_on_c, 2, 74, 67
4, 399744, Note_off_c, 2, 74, 67
4, 399744, Note_on_c, 2, 72, 67
4, 399808, Note_off_c, 2, 72, 67
4, 399808, Note_on_c, 2, 74, 67
4, 399808, Note_on_c, 2, 79, 67
4, 399840, Note_off_c, 2, 74, 67
4, 399840, Note_off_c, 2, 79, 67
4, 399872, Note_off_c, 2, 74, 67
4, 399872, Note_off_c, 2, 79, 67
4, 399872, Note_on_c, 2, 70, 67
4, 399872, Note_on_c, 2, 77, 67
4, 399936, Note_off_c, 2, 70, 67
4, 399936, Note_off_c, 2, 77, 67
4, 400000, Note_off_c, 2, 70, 67
4, 400000, Note_off_c, 2, 77, 67
4, 400000, Note_on_c, 2, 68, 67
4, 400000, Note_on_c, 2, 70, 67
4, 400064, Note_off_c, 2, 68, 67
4, 400064, Note_off_c, 2, 70, 67
4, 400128, Note_off_c, 2, 68, 67
4, 400128, Note_off_c, 2, 70, 67
4, 400128, Note_on_c, 2, 68, 67
4, 400128, Note_on_c, 2, 70, 67
4, 400192, Note_off_c, 2, 68, 67
4, 400192, Note_off_c, 2, 70, 67
4, 400256, Note_off_c, 2, 68, 67
4, 400256, Note_off_c, 2, 70, 67
4, 400256, Note_on_c, 2, 74, 67
4, 400320, Note_off_c, 2, 74, 67
4, 400320, Note_on_c, 2, 75, 67
4, 400384, Note_off_c, 2, 75, 67
4, 400384, Note_on_c, 2, 77, 67
4, 400512, Note_off_c, 2, 77, 67
4, 400512, Note_on_c, 2, 74, 67
4, 400512, Note_on_c, 2, 80, 67
4, 400576, Note_off_c, 2, 74, 67
4, 400576, Note_off_c, 2, 80, 67
4, 400640, Note_off_c, 2, 74, 67
4, 400640, Note_off_c, 2, 80, 67
4, 400640, Note_on_c, 2, 74, 67
4, 400640, Note_on_c, 2, 79, 67
4, 400704, Note_off_c, 2, 74, 67
4, 400704, Note_off_c, 2, 79, 67
4, 400768, Note_off_c, 2, 74, 67
4, 400768, Note_off_c, 2, 79, 67
4, 400768, Note_on_c, 2, 77, 67
4, 400832, Note_off_c, 2, 77, 67
4, 400896, Note_off_c, 2, 77, 67
4, 400896, Note_on_c, 2, 75, 67
4, 400960, Note_off_c, 2, 75, 67
4, 401024, Note_off_c, 2, 75, 67
4, 401024, Note_on_c, 2, 70, 67
4, 401024, Note_on_c, 2, 74, 67
4, 401088, Note_off_c, 2, 70, 67
4, 401088, Note_off_c, 2, 74, 67
4, 401152, Note_off_c, 2, 70, 67
4, 401152, Note_off_c, 2, 74, 67
4, 401152, Note_on_c, 2, 72, 67
4, 401152, Note_on_c, 2, 74, 67
4, 401216, Note_off_c, 2, 72, 67
4, 401216, Note_off_c, 2, 74, 67
4, 401280, Note_off_c, 2, 72, 67
4, 401280, Note_off_c, 2, 74, 67
4, 401280, Note_on_c, 2, 70, 67
4, 401280, Note_on_c, 2, 74, 67
4, 401344, Note_off_c, 2, 70, 67
4, 401344, Note_off_c, 2, 74, 67
4, 401408, Note_off_c, 2, 70, 67
4, 401408, Note_off_c, 2, 74, 67
4, 401408, Note_on_c, 2, 80, 67
4, 401408, Note_on_c, 2, 84, 67
4, 401664, Note_off_c, 2, 80, 67
4, 401664, Note_off_c, 2, 84, 67
4, 401664, Note_on_c, 2, 70, 67
4, 401664, Note_on_c, 2, 74, 67
4, 401680, Note_off_c, 2, 70, 67
4, 401680, Note_off_c, 2, 74, 67
4, 401696, Note_off_c, 2, 70, 67
4, 401696, Note_off_c, 2, 74, 67
4, 401696, Note_on_c, 2, 72, 67
4, 401696, Note_on_c, 2, 75, 67
4, 401712, Note_off_c, 2, 72, 67
4, 401712, Note_off_c, 2, 75, 67
4, 401728, Note_off_c, 2, 72, 67
4, 401728, Note_off_c, 2, 75, 67
4, 401728, Note_on_c, 2, 70, 67
4, 401728, Note_on_c, 2, 74, 67
4, 401760, Note_off_c, 2, 70, 67
4, 401760, Note_off_c, 2, 74, 67
4, 401792, Note_off_c, 2, 70, 67
4, 401792, Note_off_c, 2, 74, 67
4, 401792, Note_on_c, 2, 68, 67
4, 401792, Note_on_c, 2, 72, 67
4, 401824, Note_off_c, 2, 68, 67
4, 401824, Note_off_c, 2, 72, 67
4, 401856, Note_off_c, 2, 68, 67
4, 401856, Note_off_c, 2, 72, 67
4, 401856, Note_on_c, 2, 74, 67
4, 401856, Note_on_c, 2, 77, 67
4, 401888, Note_off_c, 2, 74, 67
4, 401888, Note_off_c, 2, 77, 67
4, 401920, Note_off_c, 2, 74, 67
4, 401920, Note_off_c, 2, 77, 67
4, 401920, Note_on_c, 2, 75, 67
4, 401920, Note_on_c, 2, 79, 67
4, 402048, Note_off_c, 2, 75, 67
4, 402048, Note_off_c, 2, 79, 67
4, 402048, Note_on_c, 2, 70, 67
4, 402112, Note_off_c, 2, 70, 67
4, 402176, Note_off_c, 2, 70, 67
4, 402176, Note_on_c, 2, 70, 67
4, 402240, Note_off_c, 2, 70, 67
4, 402304, Note_off_c, 2, 70, 67
4, 402304, Note_on_c, 2, 75, 67
4, 402304, Note_on_c, 2, 79, 67
4, 402368, Note_off_c, 2, 75, 67
4, 402368, Note_off_c, 2, 79, 67
4, 402368, Note_on_c, 2, 77, 67
4, 402368, Note_on_c, 2, 80, 67
4, 402432, Note_off_c, 2, 77, 67
4, 402432, Note_off_c, 2, 80, 67
4, 402432, Note_on_c, 2, 79, 67
4, 402432, Note_on_c, 2, 82, 67
4, 402496, Note_off_c, 2, 79, 67
4, 402496, Note_off_c, 2, 82, 67
4, 402560, Note_off_c, 2, 79, 67
4, 402560, Note_off_c, 2, 82, 67
4, 402560, Note_on_c, 2, 79, 67
4, 402560, Note_on_c, 2, 82, 67
4, 402624, Note_off_c, 2, 79, 67
4, 402624, Note_off_c, 2, 82, 67
4, 402688, Note_off_c, 2, 79, 67
4, 402688, Note_off_c, 2, 82, 67
4, 402688, Note_on_c, 2, 70, 67
4, 402688, Note_on_c, 2, 79, 67
4, 402752, Note_off_c, 2, 70, 67
4, 402752, Note_off_c, 2, 79, 67
4, 402816, Note_off_c, 2, 70, 67
4, 402816, Note_off_c, 2, 79, 67
4, 402816, Note_on_c, 2, 70, 67
4, 402816, Note_on_c, 2, 75, 67
4, 402880, Note_off_c, 2, 70, 67
4, 402880, Note_off_c, 2, 75, 67
4, 402944, Note_off_c, 2, 70, 67
4, 402944, Note_off_c, 2, 75, 67
4, 402944, Note_on_c, 2, 84, 67
4, 402944, Note_on_c, 2, 87, 67
4, 403008, Note_off_c, 2, 84, 67
4, 403008, Note_off_c, 2, 87, 67
4, 403072, Note_off_c, 2, 84, 67
4, 403072, Note_off_c, 2, 87, 67
4, 403072, Note_on_c, 2, 82, 67
4, 403072, Note_on_c, 2, 86, 67
4, 403136, Note_off_c, 2, 82, 67
4, 403136, Note_off_c, 2, 86, 67
4, 403200, Note_off_c, 2, 82, 67
4, 403200, Note_off_c, 2, 86, 67
4, 403200, Note_on_c, 2, 80, 67
4, 403200, Note_on_c, 2, 84, 67
4, 403264, Note_off_c, 2, 80, 67
4, 403264, Note_off_c, 2, 84, 67
4, 403328, Note_off_c, 2, 80, 67
4, 403328, Note_off_c, 2, 84, 67
4, 403328, Note_on_c, 2, 79, 67
4, 403328, Note_on_c, 2, 87, 67
4, 403392, Note_off_c, 2, 79, 67
4, 403392, Note_off_c, 2, 87, 67
4, 403456, Note_off_c, 2, 79, 67
4, 403456, Note_off_c, 2, 87, 67
4, 403456, Note_on_c, 2, 75, 67
4, 403456, Note_on_c, 2, 82, 67
4, 403520, Note_off_c, 2, 75, 67
4, 403520, Note_off_c, 2, 82, 67
4, 403584, Note_off_c, 2, 75, 67
4, 403584, Note_off_c, 2, 82, 67
4, 403584, Note_on_c, 2, 79, 67
4, 403648, Note_off_c, 2, 79, 67
4, 403712, Note_off_c, 2, 79, 67
4, 403712, Note_on_c, 2, 67, 67
4, 403712, Note_on_c, 2, 75, 67
4, 403776, Note_off_c, 2, 67, 67
4, 403776, Note_off_c, 2, 75, 67
4, 403840, Note_off_c, 2, 67, 67
4, 403840, Note_off_c, 2, 75, 67
4, 403840, Note_on_c, 2, 68, 67
4, 403840, Note_on_c, 2, 74, 67
4, 403872, Note_off_c, 2, 68, 67
4, 403872, Note_off_c, 2, 74, 67
4, 403904, Note_off_c, 2, 68, 67
4, 403904, Note_off_c, 2, 74, 67
4, 403904, Note_on_c, 2, 74, 67
4, 403904, Note_on_c, 2, 79, 67
4, 403936, Note_off_c, 2, 74, 67
4, 403936, Note_off_c, 2, 79, 67
4, 403968, Note_off_c, 2, 74, 67
4, 403968, Note_off_c, 2, 79, 67
4, 403968, Note_on_c, 2, 70, 67
4, 403968, Note_on_c, 2, 77, 67
4, 404032, Note_off_c, 2, 70, 67
4, 404032, Note_off_c, 2, 77, 67
4, 404096, Note_off_c, 2, 70, 67
4, 404096, Note_off_c, 2, 77, 67
4, 404096, Note_on_c, 2, 65, 67
4, 404096, Note_on_c, 2, 70, 67
4, 404160, Note_off_c, 2, 65, 67
4, 404160, Note_off_c, 2, 70, 67
4, 404224, Note_off_c, 2, 65, 67
4, 404224, Note_off_c, 2, 70, 67
4, 404224, Note_on_c, 2, 68, 67
4, 404224, Note_on_c, 2, 70, 67
4, 404288, Note_off_c, 2, 68, 67
4, 404288, Note_off_c, 2, 70, 67
4, 404352, Note_off_c, 2, 68, 67
4, 404352, Note_off_c, 2, 70, 67
4, 404352, Note_on_c, 2, 70, 67
4, 404352, Note_on_c, 2, 79, 67
4, 404416, Note_off_c, 2, 70, 67
4, 404416, Note_off_c, 2, 79, 67
4, 404416, Note_on_c, 2, 77, 67
4, 404416, Note_on_c, 2, 80, 67
4, 404480, Note_off_c, 2, 77, 67
4, 404480, Note_off_c, 2, 80, 67
4, 404480, Note_on_c, 2, 79, 67
4, 404480, Note_on_c, 2, 82, 67
4, 404544, Note_off_c, 2, 79, 67
4, 404544, Note_off_c, 2, 82, 67
4, 404608, Note_off_c, 2, 79, 67
4, 404608, Note_off_c, 2, 82, 67
4, 404608, Note_on_c, 2, 79, 67
4, 404608, Note_on_c, 2, 82, 67
4, 404672, Note_off_c, 2, 79, 67
4, 404672, Note_off_c, 2, 82, 67
4, 404736, Note_off_c, 2, 79, 67
4, 404736, Note_off_c, 2, 82, 67
4, 404736, Note_on_c, 2, 70, 67
4, 404736, Note_on_c, 2, 79, 67
4, 404800, Note_off_c, 2, 70, 67
4, 404800, Note_off_c, 2, 79, 67
4, 404864, Note_off_c, 2, 70, 67
4, 404864, Note_off_c, 2, 79, 67
4, 404864, Note_on_c, 2, 75, 67
4, 404864, Note_on_c, 2, 82, 67
4, 404928, Note_off_c, 2, 75, 67
4, 404928, Note_off_c, 2, 82, 67
4, 404992, Note_off_c, 2, 75, 67
4, 404992, Note_off_c, 2, 82, 67
4, 404992, Note_on_c, 2, 84, 67
4, 404992, Note_on_c, 2, 87, 67
4, 405056, Note_off_c, 2, 84, 67
4, 405056, Note_off_c, 2, 87, 67
4, 405120, Note_off_c, 2, 84, 67
4, 405120, Note_off_c, 2, 87, 67
4, 405120, Note_on_c, 2, 82, 67
4, 405120, Note_on_c, 2, 86, 67
4, 405184, Note_off_c, 2, 82, 67
4, 405184, Note_off_c, 2, 86, 67
4, 405248, Note_off_c, 2, 82, 67
4, 405248, Note_off_c, 2, 86, 67
4, 405248, Note_on_c, 2, 80, 67
4, 405248, Note_on_c, 2, 84, 67
4, 405312, Note_off_c, 2, 80, 67
4, 405312, Note_off_c, 2, 84, 67
4, 405376, Note_off_c, 2, 80, 67
4, 405376, Note_off_c, 2, 84, 67
4, 405376, Note_on_c, 2, 70, 67
4, 405376, Note_on_c, 2, 74, 67
4, 405408, Note_off_c, 2, 70, 67
4, 405408, Note_off_c, 2, 74, 67
4, 405440, Note_off_c, 2, 70, 67
4, 405440, Note_off_c, 2, 74, 67
4, 405440, Note_on_c, 2, 77, 67
4, 405440, Note_on_c, 2, 80, 67
4, 405472, Note_off_c, 2, 77, 67
4, 405472, Note_off_c, 2, 80, 67
4, 405504, Note_off_c, 2, 77, 67
4, 405504, Note_off_c, 2, 80, 67
4, 405504, Note_on_c, 2, 77, 67
4, 405504, Note_on_c, 2, 82, 67
4, 405568, Note_off_c, 2, 77, 67
4, 405568, Note_off_c, 2, 82, 67
4, 405632, Note_off_c, 2, 77, 67
4, 405632, Note_off_c, 2, 82, 67
4, 405632, Note_on_c, 2, 80, 67
4, 405632, Note_on_c, 2, 87, 67
4, 405696, Note_off_c, 2, 80, 67
4, 405696, Note_off_c, 2, 87, 67
4, 405760, Note_off_c, 2, 80, 67
4, 405760, Note_off_c, 2, 87, 67
4, 405760, Note_on_c, 2, 82, 67
4, 405760, Note_on_c, 2, 86, 67
4, 405824, Note_off_c, 2, 82, 67
4, 405824, Note_off_c, 2, 86, 67
4, 405888, Note_off_c, 2, 82, 67
4, 405888, Note_off_c, 2, 86, 67
4, 405888, Note_on_c, 2, 80, 67
4, 405888, Note_on_c, 2, 89, 67
4, 405952, Note_off_c, 2, 80, 67
4, 405952, Note_off_c, 2, 89, 67
4, 406016, Note_off_c, 2, 80, 67
4, 406016, Note_off_c, 2, 89, 67
4, 406016, Note_on_c, 2, 79, 67
4, 406016, Note_on_c, 2, 87, 67
4, 406080, Note_off_c, 2, 79, 67
4, 406080, Note_off_c, 2, 87, 67
4, 406144, Note_off_c, 2, 79, 67
4, 406144, Note_off_c, 2, 87, 67
4, 406144, Note_on_c, 2, 70, 67
4, 406144, Note_on_c, 2, 82, 67
4, 406208, Note_off_c, 2, 70, 67
4, 406208, Note_off_c, 2, 82, 67
4, 406272, Note_off_c, 2, 70, 67
4, 406272, Note_off_c, 2, 82, 67
4, 406272, Note_on_c, 2, 70, 67
4, 406272, Note_on_c, 2, 82, 67
4, 406336, Note_off_c, 2, 70, 67
4, 406336, Note_off_c, 2, 82, 67
4, 406400, Note_off_c, 2, 70, 67
4, 406400, Note_off_c, 2, 82, 67
4, 406400, Note_on_c, 2, 75, 67
4, 406464, Note_off_c, 2, 75, 67
4, 406464, Note_on_c, 2, 77, 67
4, 406528, Note_off_c, 2, 77, 67
4, 406528, Note_on_c, 2, 79, 67
4, 406592, Note_off_c, 2, 79, 67
4, 406656, Note_off_c, 2, 79, 67
4, 406656, Note_on_c, 2, 75, 67
4, 406656, Note_on_c, 2, 79, 67
4, 406720, Note_off_c, 2, 75, 67
4, 406720, Note_off_c, 2, 79, 67
4, 406784, Note_off_c, 2, 75, 67
4, 406784, Note_off_c, 2, 79, 67
4, 406784, Note_on_c, 2, 75, 67
4, 406784, Note_on_c, 2, 79, 67
4, 406848, Note_off_c, 2, 75, 67
4, 406848, Note_off_c, 2, 79, 67
4, 406912, Note_off_c, 2, 75, 67
4, 406912, Note_off_c, 2, 79, 67
4, 406912, Note_on_c, 2, 75, 67
4, 406976, Note_off_c, 2, 75, 67
4, 406976, Note_on_c, 2, 77, 67
4, 407040, Note_off_c, 2, 77, 67
4, 407040, Note_on_c, 2, 79, 67
4, 407104, Note_off_c, 2, 79, 67
4, 407168, Note_off_c, 2, 79, 67
4, 407168, Note_on_c, 2, 75, 67
4, 407168, Note_on_c, 2, 79, 67
4, 407232, Note_off_c, 2, 75, 67
4, 407232, Note_off_c, 2, 79, 67
4, 407296, Note_off_c, 2, 75, 67
4, 407296, Note_off_c, 2, 79, 67
4, 407296, Note_on_c, 2, 75, 67
4, 407296, Note_on_c, 2, 79, 67
4, 407360, Note_off_c, 2, 75, 67
4, 407360, Note_off_c, 2, 79, 67
4, 407424, Note_off_c, 2, 75, 67
4, 407424, Note_off_c, 2, 79, 67
4, 407424, Note_on_c, 2, 75, 67
4, 407488, Note_off_c, 2, 75, 67
4, 407488, Note_on_c, 2, 77, 67
4, 407552, Note_off_c, 2, 77, 67
4, 407552, Note_on_c, 2, 79, 67
4, 407616, Note_off_c, 2, 79, 67
4, 407680, Note_off_c, 2, 79, 67
4, 407680, Note_on_c, 2, 75, 67
4, 407680, Note_on_c, 2, 79, 67
4, 407744, Note_off_c, 2, 75, 67
4, 407744, Note_off_c, 2, 79, 67
4, 407808, Note_off_c, 2, 75, 67
4, 407808, Note_off_c, 2, 79, 67
4, 407808, Note_on_c, 2, 75, 67
4, 407808, Note_on_c, 2, 80, 67
4, 407840, Note_off_c, 2, 75, 67
4, 407840, Note_off_c, 2, 80, 67
4, 407872, Note_off_c, 2, 75, 67
4, 407872, Note_off_c, 2, 80, 67
4, 407872, Note_on_c, 2, 74, 67
4, 407904, Note_off_c, 2, 74, 67
4, 407936, Note_off_c, 2, 74, 67
4, 407936, Note_on_c, 2, 72, 67
4, 407968, Note_off_c, 2, 72, 67
4, 408000, Note_off_c, 2, 72, 67
4, 408000, Note_on_c, 2, 74, 67
4, 408000, Note_on_c, 2, 79, 67
4, 408032, Note_off_c, 2, 74, 67
4, 408032, Note_off_c, 2, 79, 67
4, 408064, Note_off_c, 2, 74, 67
4, 408064, Note_off_c, 2, 79, 67
4, 408064, Note_on_c, 2, 70, 67
4, 408064, Note_on_c, 2, 77, 67
4, 408128, Note_off_c, 2, 70, 67
4, 408128, Note_off_c, 2, 77, 67
4, 408192, Note_off_c, 2, 70, 67
4, 408192, Note_off_c, 2, 77, 67
4, 408192, Note_on_c, 2, 68, 67
4, 408192, Note_on_c, 2, 70, 67
4, 408256, Note_off_c, 2, 68, 67
4, 408256, Note_off_c, 2, 70, 67
4, 408320, Note_off_c, 2, 68, 67
4, 408320, Note_off_c, 2, 70, 67
4, 408320, Note_on_c, 2, 68, 67
4, 408320, Note_on_c, 2, 70, 67
4, 408384, Note_off_c, 2, 68, 67
4, 408384, Note_off_c, 2, 70, 67
4, 408448, Note_off_c, 2, 68, 67
4, 408448, Note_off_c, 2, 70, 67
4, 408448, Note_on_c, 2, 74, 67
4, 408512, Note_off_c, 2, 74, 67
4, 408512, Note_on_c, 2, 75, 67
4, 408576, Note_off_c, 2, 75, 67
4, 408576, Note_on_c, 2, 77, 67
4, 408640, Note_off_c, 2, 77, 67
4, 408704, Note_off_c, 2, 77, 67
4, 408704, Note_on_c, 2, 74, 67
4, 408704, Note_on_c, 2, 77, 67
4, 408768, Note_off_c, 2, 74, 67
4, 408768, Note_off_c, 2, 77, 67
4, 408832, Note_off_c, 2, 74, 67
4, 408832, Note_off_c, 2, 77, 67
4, 408832, Note_on_c, 2, 74, 67
4, 408832, Note_on_c, 2, 77, 67
4, 408896, Note_off_c, 2, 74, 67
4, 408896, Note_off_c, 2, 77, 67
4, 408960, Note_off_c, 2, 74, 67
4, 408960, Note_off_c, 2, 77, 67
4, 408960, Note_on_c, 2, 74, 67
4, 409024, Note_off_c, 2, 74, 67
4, 409024, Note_on_c, 2, 75, 67
4, 409088, Note_off_c, 2, 75, 67
4, 409088, Note_on_c, 2, 77, 67
4, 409152, Note_off_c, 2, 77, 67
4, 409216, Note_off_c, 2, 77, 67
4, 409216, Note_on_c, 2, 74, 67
4, 409216, Note_on_c, 2, 77, 67
4, 409280, Note_off_c, 2, 74, 67
4, 409280, Note_off_c, 2, 77, 67
4, 409344, Note_off_c, 2, 74, 67
4, 409344, Note_off_c, 2, 77, 67
4, 409344, Note_on_c, 2, 74, 67
4, 409344, Note_on_c, 2, 77, 67
4, 409408, Note_off_c, 2, 74, 67
4, 409408, Note_off_c, 2, 77, 67
4, 409472, Note_off_c, 2, 74, 67
4, 409472, Note_off_c, 2, 77, 67
4, 409472, Note_on_c, 2, 74, 67
4, 409536, Note_off_c, 2, 74, 67
4, 409536, Note_on_c, 2, 75, 67
4, 409600, Note_off_c, 2, 75, 67
4, 409600, Note_on_c, 2, 70, 67
4, 409600, Note_on_c, 2, 77, 67
4, 409664, Note_off_c, 2, 70, 67
4, 409664, Note_off_c, 2, 77, 67
4, 409728, Note_off_c, 2, 70, 67
4, 409728, Note_off_c, 2, 77, 67
4, 409728, Note_on_c, 2, 74, 67
4, 409728, Note_on_c, 2, 77, 67
4, 409792, Note_off_c, 2, 74, 67
4, 409792, Note_off_c, 2, 77, 67
4, 409856, Note_off_c, 2, 74, 67
4, 409856, Note_off_c, 2, 77, 67
4, 409856, Note_on_c, 2, 74, 67
4, 409856, Note_on_c, 2, 79, 67
4, 409888, Note_off_c, 2, 74, 67
4, 409888, Note_off_c, 2, 79, 67
4, 409920, Note_off_c, 2, 74, 67
4, 409920, Note_off_c, 2, 79, 67
4, 409920, Note_on_c, 2, 72, 67
4, 409920, Note_on_c, 2, 77, 67
4, 409952, Note_off_c, 2, 72, 67
4, 409952, Note_off_c, 2, 77, 67
4, 409984, Note_off_c, 2, 72, 67
4, 409984, Note_off_c, 2, 77, 67
4, 409984, Note_on_c, 2, 70, 67
4, 409984, Note_on_c, 2, 77, 67
4, 410016, Note_off_c, 2, 70, 67
4, 410016, Note_off_c, 2, 77, 67
4, 410048, Note_off_c, 2, 70, 67
4, 410048, Note_off_c, 2, 77, 67
4, 410048, Note_on_c, 2, 68, 67
4, 410048, Note_on_c, 2, 79, 67
4, 410080, Note_off_c, 2, 68, 67
4, 410080, Note_off_c, 2, 79, 67
4, 410112, Note_off_c, 2, 68, 67
4, 410112, Note_off_c, 2, 79, 67
4, 410112, Note_on_c, 2, 67, 67
4, 410112, Note_on_c, 2, 75, 67
4, 410176, Note_off_c, 2, 67, 67
4, 410176, Note_off_c, 2, 75, 67
4, 410240, Note_off_c, 2, 67, 67
4, 410240, Note_off_c, 2, 75, 67
4, 410240, Note_on_c, 2, 70, 67
4, 410304, Note_off_c, 2, 70, 67
4, 410368, Note_off_c, 2, 70, 67
4, 410368, Note_on_c, 2, 70, 67
4, 410368, Note_on_c, 2, 79, 67
4, 410432, Note_off_c, 2, 70, 67
4, 410432, Note_off_c, 2, 79, 67
4, 410496, Note_off_c, 2, 70, 67
4, 410496, Note_off_c, 2, 79, 67
4, 410496, Note_on_c, 2, 75, 67
4, 410560, Note_off_c, 2, 75, 67
4, 410560, Note_on_c, 2, 77, 67
4, 410624, Note_off_c, 2, 77, 67
4, 410624, Note_on_c, 2, 79, 67
4, 410688, Note_off_c, 2, 79, 67
4, 410752, Note_off_c, 2, 79, 67
4, 410752, Note_on_c, 2, 75, 67
4, 410752, Note_on_c, 2, 79, 67
4, 410816, Note_off_c, 2, 75, 67
4, 410816, Note_off_c, 2, 79, 67
4, 410880, Note_off_c, 2, 75, 67
4, 410880, Note_off_c, 2, 79, 67
4, 410880, Note_on_c, 2, 75, 67
4, 410880, Note_on_c, 2, 79, 67
4, 410944, Note_off_c, 2, 75, 67
4, 410944, Note_off_c, 2, 79, 67
4, 411008, Note_off_c, 2, 75, 67
4, 411008, Note_off_c, 2, 79, 67
4, 411008, Note_on_c, 2, 75, 67
4, 411072, Note_off_c, 2, 75, 67
4, 411072, Note_on_c, 2, 77, 67
4, 411136, Note_off_c, 2, 77, 67
4, 411136, Note_on_c, 2, 79, 67
4, 411200, Note_off_c, 2, 79, 67
4, 411264, Note_off_c, 2, 79, 67
4, 411264, Note_on_c, 2, 75, 67
4, 411264, Note_on_c, 2, 79, 67
4, 411328, Note_off_c, 2, 75, 67
4, 411328, Note_off_c, 2, 79, 67
4, 411392, Note_off_c, 2, 75, 67
4, 411392, Note_off_c, 2, 79, 67
4, 411392, Note_on_c, 2, 75, 67
4, 411392, Note_on_c, 2, 79, 67
4, 411456, Note_off_c, 2, 75, 67
4, 411456, Note_off_c, 2, 79, 67
4, 411520, Note_off_c, 2, 75, 67
4, 411520, Note_off_c, 2, 79, 67
4, 411520, Note_on_c, 2, 75, 67
4, 411584, Note_off_c, 2, 75, 67
4, 411584, Note_on_c, 2, 77, 67
4, 411648, Note_off_c, 2, 77, 67
4, 411648, Note_on_c, 2, 79, 67
4, 411712, Note_off_c, 2, 79, 67
4, 411776, Note_off_c, 2, 79, 67
4, 411776, Note_on_c, 2, 75, 67
4, 411776, Note_on_c, 2, 79, 67
4, 411840, Note_off_c, 2, 75, 67
4, 411840, Note_off_c, 2, 79, 67
4, 411904, Note_off_c, 2, 75, 67
4, 411904, Note_off_c, 2, 79, 67
4, 411904, Note_on_c, 2, 75, 67
4, 411904, Note_on_c, 2, 80, 67
4, 411936, Note_off_c, 2, 75, 67
4, 411936, Note_off_c, 2, 80, 67
4, 411968, Note_off_c, 2, 75, 67
4, 411968, Note_off_c, 2, 80, 67
4, 411968, Note_on_c, 2, 74, 67
4, 412032, Note_off_c, 2, 74, 67
4, 412032, Note_on_c, 2, 72, 67
4, 412096, Note_off_c, 2, 72, 67
4, 412096, Note_on_c, 2, 74, 67
4, 412096, Note_on_c, 2, 79, 67
4, 412128, Note_off_c, 2, 74, 67
4, 412128, Note_off_c, 2, 79, 67
4, 412160, Note_off_c, 2, 74, 67
4, 412160, Note_off_c, 2, 79, 67
4, 412160, Note_on_c, 2, 70, 67
4, 412160, Note_on_c, 2, 77, 67
4, 412224, Note_off_c, 2, 70, 67
4, 412224, Note_off_c, 2, 77, 67
4, 412288, Note_off_c, 2, 70, 67
4, 412288, Note_off_c, 2, 77, 67
4, 412288, Note_on_c, 2, 68, 67
4, 412288, Note_on_c, 2, 70, 67
4, 412352, Note_off_c, 2, 68, 67
4, 412352, Note_off_c, 2, 70, 67
4, 412416, Note_off_c, 2, 68, 67
4, 412416, Note_off_c, 2, 70, 67
4, 412416, Note_on_c, 2, 68, 67
4, 412416, Note_on_c, 2, 70, 67
4, 412480, Note_off_c, 2, 68, 67
4, 412480, Note_off_c, 2, 70, 67
4, 412544, Note_off_c, 2, 68, 67
4, 412544, Note_off_c, 2, 70, 67
4, 412544, Note_on_c, 2, 74, 67
4, 412608, Note_off_c, 2, 74, 67
4, 412608, Note_on_c, 2, 75, 67
4, 412672, Note_off_c, 2, 75, 67
4, 412672, Note_on_c, 2, 77, 67
4, 412800, Note_off_c, 2, 77, 67
4, 412800, Note_on_c, 2, 74, 67
4, 412800, Note_on_c, 2, 80, 67
4, 412864, Note_off_c, 2, 74, 67
4, 412864, Note_off_c, 2, 80, 67
4, 412928, Note_off_c, 2, 74, 67
4, 412928, Note_off_c, 2, 80, 67
4, 412928, Note_on_c, 2, 74, 67
4, 412928, Note_on_c, 2, 79, 67
4, 412992, Note_off_c, 2, 74, 67
4, 412992, Note_off_c, 2, 79, 67
4, 413056, Note_off_c, 2, 74, 67
4, 413056, Note_off_c, 2, 79, 67
4, 413056, Note_on_c, 2, 77, 67
4, 413120, Note_off_c, 2, 77, 67
4, 413184, Note_off_c, 2, 77, 67
4, 413184, Note_on_c, 2, 75, 67
4, 413248, Note_off_c, 2, 75, 67
4, 413312, Note_off_c, 2, 75, 67
4, 413312, Note_on_c, 2, 70, 67
4, 413312, Note_on_c, 2, 74, 67
4, 413376, Note_off_c, 2, 70, 67
4, 413376, Note_off_c, 2, 74, 67
4, 413440, Note_off_c, 2, 70, 67
4, 413440, Note_off_c, 2, 74, 67
4, 413440, Note_on_c, 2, 72, 67
4, 413440, Note_on_c, 2, 74, 67
4, 413504, Note_off_c, 2, 72, 67
4, 413504, Note_off_c, 2, 74, 67
4, 413568, Note_off_c, 2, 72, 67
4, 413568, Note_off_c, 2, 74, 67
4, 413568, Note_on_c, 2, 70, 67
4, 413568, Note_on_c, 2, 74, 67
4, 413632, Note_off_c, 2, 70, 67
4, 413632, Note_off_c, 2, 74, 67
4, 413696, Note_off_c, 2, 70, 67
4, 413696, Note_off_c, 2, 74, 67
4, 413696, Note_on_c, 2, 80, 67
4, 413696, Note_on_c, 2, 84, 67
4, 413952, Note_off_c, 2, 80, 67
4, 413952, Note_off_c, 2, 84, 67
4, 413952, Note_on_c, 2, 70, 67
4, 413952, Note_on_c, 2, 74, 67
4, 413968, Note_off_c, 2, 70, 67
4, 413968, Note_off_c, 2, 74, 67
4, 413984, Note_off_c, 2, 70, 67
4, 413984, Note_off_c, 2, 74, 67
4, 413984, Note_on_c, 2, 72, 67
4, 413984, Note_on_c, 2, 75, 67
4, 414000, Note_off_c, 2, 72, 67
4, 414000, Note_off_c, 2, 75, 67
4, 414016, Note_off_c, 2, 72, 67
4, 414016, Note_off_c, 2, 75, 67
4, 414016, Note_on_c, 2, 70, 67
4, 414016, Note_on_c, 2, 74, 67
4, 414048, Note_off_c, 2, 70, 67
4, 414048, Note_off_c, 2, 74, 67
4, 414080, Note_off_c, 2, 70, 67
4, 414080, Note_off_c, 2, 74, 67
4, 414080, Note_on_c, 2, 68, 67
4, 414080, Note_on_c, 2, 72, 67
4, 414112, Note_off_c, 2, 68, 67
4, 414112, Note_off_c, 2, 72, 67
4, 414144, Note_off_c, 2, 68, 67
4, 414144, Note_off_c, 2, 72, 67
4, 414144, Note_on_c, 2, 74, 67
4, 414144, Note_on_c, 2, 77, 67
4, 414176, Note_off_c, 2, 74, 67
4, 414176, Note_off_c, 2, 77, 67
4, 414208, Note_off_c, 2, 74, 67
4, 414208, Note_off_c, 2, 77, 67
4, 414208, Note_on_c, 2, 75, 67
4, 414208, Note_on_c, 2, 79, 67
4, 414336, Note_off_c, 2, 75, 67
4, 414336, Note_off_c, 2, 79, 67
4, 414336, Note_on_c, 2, 70, 67
4, 414400, Note_off_c, 2, 70, 67
4, 414464, Note_off_c, 2, 70, 67
4, 414464, Note_on_c, 2, 70, 67
4, 414528, Note_off_c, 2, 70, 67
4, 414592, Note_off_c, 2, 70, 67
4, 414592, Note_on_c, 2, 75, 67
4, 414592, Note_on_c, 2, 79, 67
4, 414656, Note_off_c, 2, 75, 67
4, 414656, Note_off_c, 2, 79, 67
4, 414656, Note_on_c, 2, 77, 67
4, 414656, Note_on_c, 2, 80, 67
4, 414720, Note_off_c, 2, 77, 67
4, 414720, Note_off_c, 2, 80, 67
4, 414720, Note_on_c, 2, 79, 67
4, 414720, Note_on_c, 2, 82, 67
4, 414784, Note_off_c, 2, 79, 67
4, 414784, Note_off_c, 2, 82, 67
4, 414848, Note_off_c, 2, 79, 67
4, 414848, Note_off_c, 2, 82, 67
4, 414848, Note_on_c, 2, 79, 67
4, 414848, Note_on_c, 2, 82, 67
4, 414912, Note_off_c, 2, 79, 67
4, 414912, Note_off_c, 2, 82, 67
4, 414976, Note_off_c, 2, 79, 67
4, 414976, Note_off_c, 2, 82, 67
4, 414976, Note_on_c, 2, 70, 67
4, 414976, Note_on_c, 2, 79, 67
4, 415040, Note_off_c, 2, 70, 67
4, 415040, Note_off_c, 2, 79, 67
4, 415104, Note_off_c, 2, 70, 67
4, 415104, Note_off_c, 2, 79, 67
4, 415104, Note_on_c, 2, 70, 67
4, 415104, Note_on_c, 2, 75, 67
4, 415168, Note_off_c, 2, 70, 67
4, 415168, Note_off_c, 2, 75, 67
4, 415232, Note_off_c, 2, 70, 67
4, 415232, Note_off_c, 2, 75, 67
4, 415232, Note_on_c, 2, 84, 67
4, 415232, Note_on_c, 2, 87, 67
4, 415296, Note_off_c, 2, 84, 67
4, 415296, Note_off_c, 2, 87, 67
4, 415360, Note_off_c, 2, 84, 67
4, 415360, Note_off_c, 2, 87, 67
4, 415360, Note_on_c, 2, 82, 67
4, 415360, Note_on_c, 2, 86, 67
4, 415424, Note_off_c, 2, 82, 67
4, 415424, Note_off_c, 2, 86, 67
4, 415488, Note_off_c, 2, 82, 67
4, 415488, Note_off_c, 2, 86, 67
4, 415488, Note_on_c, 2, 80, 67
4, 415488, Note_on_c, 2, 84, 67
4, 415552, Note_off_c, 2, 80, 67
4, 415552, Note_off_c, 2, 84, 67
4, 415616, Note_off_c, 2, 80, 67
4, 415616, Note_off_c, 2, 84, 67
4, 415616, Note_on_c, 2, 79, 67
4, 415616, Note_on_c, 2, 87, 67
4, 415680, Note_off_c, 2, 79, 67
4, 415680, Note_off_c, 2, 87, 67
4, 415744, Note_off_c, 2, 79, 67
4, 415744, Note_off_c, 2, 87, 67
4, 415744, Note_on_c, 2, 75, 67
4, 415744, Note_on_c, 2, 82, 67
4, 415808, Note_off_c, 2, 75, 67
4, 415808, Note_off_c, 2, 82, 67
4, 415872, Note_off_c, 2, 75, 67
4, 415872, Note_off_c, 2, 82, 67
4, 415872, Note_on_c, 2, 79, 67
4, 415936, Note_off_c, 2, 79, 67
4, 416000, Note_off_c, 2, 79, 67
4, 416000, Note_on_c, 2, 67, 67
4, 416000, Note_on_c, 2, 75, 67
4, 416064, Note_off_c, 2, 67, 67
4, 416064, Note_off_c, 2, 75, 67
4, 416128, Note_off_c, 2, 67, 67
4, 416128, Note_off_c, 2, 75, 67
4, 416128, Note_on_c, 2, 68, 67
4, 416128, Note_on_c, 2, 74, 67
4, 416160, Note_off_c, 2, 68, 67
4, 416160, Note_off_c, 2, 74, 67
4, 416192, Note_off_c, 2, 68, 67
4, 416192, Note_off_c, 2, 74, 67
4, 416192, Note_on_c, 2, 74, 67
4, 416192, Note_on_c, 2, 79, 67
4, 416224, Note_off_c, 2, 74, 67
4, 416224, Note_off_c, 2, 79, 67
4, 416256, Note_off_c, 2, 74, 67
4, 416256, Note_off_c, 2, 79, 67
4, 416256, Note_on_c, 2, 70, 67
4, 416256, Note_on_c, 2, 77, 67
4, 416320, Note_off_c, 2, 70, 67
4, 416320, Note_off_c, 2, 77, 67
4, 416384, Note_off_c, 2, 70, 67
4, 416384, Note_off_c, 2, 77, 67
4, 416384, Note_on_c, 2, 65, 67
4, 416384, Note_on_c, 2, 70, 67
4, 416448, Note_off_c, 2, 65, 67
4, 416448, Note_off_c, 2, 70, 67
4, 416512, Note_off_c, 2, 65, 67
4, 416512, Note_off_c, 2, 70, 67
4, 416512, Note_on_c, 2, 68, 67
4, 416512, Note_on_c, 2, 70, 67
4, 416576, Note_off_c, 2, 68, 67
4, 416576, Note_off_c, 2, 70, 67
4, 416640, Note_off_c, 2, 68, 67
4, 416640, Note_off_c, 2, 70, 67
4, 416640, Note_on_c, 2, 70, 67
4, 416640, Note_on_c, 2, 79, 67
4, 416704, Note_off_c, 2, 70, 67
4, 416704, Note_off_c, 2, 79, 67
4, 416704, Note_on_c, 2, 77, 67
4, 416704, Note_on_c, 2, 80, 67
4, 416768, Note_off_c, 2, 77, 67
4, 416768, Note_off_c, 2, 80, 67
4, 416768, Note_on_c, 2, 79, 67
4, 416768, Note_on_c, 2, 82, 67
4, 416832, Note_off_c, 2, 79, 67
4, 416832, Note_off_c, 2, 82, 67
4, 416896, Note_off_c, 2, 79, 67
4, 416896, Note_off_c, 2, 82, 67
4, 416896, Note_on_c, 2, 79, 67
4, 416896, Note_on_c, 2, 82, 67
4, 416960, Note_off_c, 2, 79, 67
4, 416960, Note_off_c, 2, 82, 67
4, 417024, Note_off_c, 2, 79, 67
4, 417024, Note_off_c, 2, 82, 67
4, 417024, Note_on_c, 2, 70, 67
4, 417024, Note_on_c, 2, 79, 67
4, 417088, Note_off_c, 2, 70, 67
4, 417088, Note_off_c, 2, 79, 67
4, 417152, Note_off_c, 2, 70, 67
4, 417152, Note_off_c, 2, 79, 67
4, 417152, Note_on_c, 2, 75, 67
4, 417152, Note_on_c, 2, 82, 67
4, 417216, Note_off_c, 2, 75, 67
4, 417216, Note_off_c, 2, 82, 67
4, 417280, Note_off_c, 2, 75, 67
4, 417280, Note_off_c, 2, 82, 67
4, 417280, Note_on_c, 2, 84, 67
4, 417280, Note_on_c, 2, 87, 67
4, 417344, Note_off_c, 2, 84, 67
4, 417344, Note_off_c, 2, 87, 67
4, 417408, Note_off_c, 2, 84, 67
4, 417408, Note_off_c, 2, 87, 67
4, 417408, Note_on_c, 2, 82, 67
4, 417408, Note_on_c, 2, 86, 67
4, 417472, Note_off_c, 2, 82, 67
4, 417472, Note_off_c, 2, 86, 67
4, 417536, Note_off_c, 2, 82, 67
4, 417536, Note_off_c, 2, 86, 67
4, 417536, Note_on_c, 2, 80, 67
4, 417536, Note_on_c, 2, 84, 67
4, 417600, Note_off_c, 2, 80, 67
4, 417600, Note_off_c, 2, 84, 67
4, 417664, Note_off_c, 2, 80, 67
4, 417664, Note_off_c, 2, 84, 67
4, 417664, Note_on_c, 2, 70, 67
4, 417664, Note_on_c, 2, 74, 67
4, 417696, Note_off_c, 2, 70, 67
4, 417696, Note_off_c, 2, 74, 67
4, 417728, Note_off_c, 2, 70, 67
4, 417728, Note_off_c, 2, 74, 67
4, 417728, Note_on_c, 2, 77, 67
4, 417728, Note_on_c, 2, 80, 67
4, 417760, Note_off_c, 2, 77, 67
4, 417760, Note_off_c, 2, 80, 67
4, 417792, Note_off_c, 2, 77, 67
4, 417792, Note_off_c, 2, 80, 67
4, 417792, Note_on_c, 2, 77, 67
4, 417792, Note_on_c, 2, 82, 67
4, 417856, Note_off_c, 2, 77, 67
4, 417856, Note_off_c, 2, 82, 67
4, 417920, Note_off_c, 2, 77, 67
4, 417920, Note_off_c, 2, 82, 67
4, 417920, Note_on_c, 2, 80, 67
4, 417920, Note_on_c, 2, 87, 67
4, 417984, Note_off_c, 2, 80, 67
4, 417984, Note_off_c, 2, 87, 67
4, 418048, Note_off_c, 2, 80, 67
4, 418048, Note_off_c, 2, 87, 67
4, 418048, Note_on_c, 2, 82, 67
4, 418048, Note_on_c, 2, 86, 67
4, 418112, Note_off_c, 2, 82, 67
4, 418112, Note_off_c, 2, 86, 67
4, 418176, Note_off_c, 2, 82, 67
4, 418176, Note_off_c, 2, 86, 67
4, 418176, Note_on_c, 2, 80, 67
4, 418176, Note_on_c, 2, 89, 67
4, 418240, Note_off_c, 2, 80, 67
4, 418240, Note_off_c, 2, 89, 67
4, 418304, Note_off_c, 2, 80, 67
4, 418304, Note_off_c, 2, 89, 67
4, 418304, Note_on_c, 2, 79, 67
4, 418304, Note_on_c, 2, 87, 67
4, 418368, Note_off_c, 2, 79, 67
4, 418368, Note_off_c, 2, 87, 67
4, 418432, Note_off_c, 2, 79, 67
4, 418432, Note_off_c, 2, 87, 67
4, 418432, Note_on_c, 2, 70, 67
4, 418432, Note_on_c, 2, 82, 67
4, 418496, Note_off_c, 2, 70, 67
4, 418496, Note_off_c, 2, 82, 67
4, 418560, Note_off_c, 2, 70, 67
4, 418560, Note_off_c, 2, 82, 67
4, 418560, Note_on_c, 2, 70, 67
4, 418560, Note_on_c, 2, 82, 67
4, 418624, Note_off_c, 2, 70, 67
4, 418624, Note_off_c, 2, 82, 67
4, 418688, Note_off_c, 2, 70, 67
4, 418688, Note_off_c, 2, 82, 67
4, 418688, Note_on_c, 2, 75, 67
4, 418752, Note_off_c, 2, 75, 67
4, 418752, Note_on_c, 2, 77, 67
4, 418816, Note_off_c, 2, 77, 67
4, 418816, Note_on_c, 2, 79, 67
4, 418880, Note_off_c, 2, 79, 67
4, 418944, Note_off_c, 2, 79, 67
4, 418944, Note_on_c, 2, 75, 67
4, 418944, Note_on_c, 2, 79, 67
4, 419008, Note_off_c, 2, 75, 67
4, 419008, Note_off_c, 2, 79, 67
4, 419072, Note_off_c, 2, 75, 67
4, 419072, Note_off_c, 2, 79, 67
4, 419072, Note_on_c, 2, 75, 67
4, 419072, Note_on_c, 2, 79, 67
4, 419136, Note_off_c, 2, 75, 67
4, 419136, Note_off_c, 2, 79, 67
4, 419200, Note_off_c, 2, 75, 67
4, 419200, Note_off_c, 2, 79, 67
4, 419200, Note_on_c, 2, 75, 67
4, 419264, Note_off_c, 2, 75, 67
4, 419264, Note_on_c, 2, 77, 67
4, 419328, Note_off_c, 2, 77, 67
4, 419328, Note_on_c, 2, 79, 67
4, 419392, Note_off_c, 2, 79, 67
4, 419456, Note_off_c, 2, 79, 67
4, 419456, Note_on_c, 2, 75, 67
4, 419456, Note_on_c, 2, 79, 67
4, 419520, Note_off_c, 2, 75, 67
4, 419520, Note_off_c, 2, 79, 67
4, 419584, Note_off_c, 2, 75, 67
4, 419584, Note_off_c, 2, 79, 67
4, 419584, Note_on_c, 2, 75, 67
4, 419584, Note_on_c, 2, 79, 67
4, 419648, Note_off_c, 2, 75, 67
4, 419648, Note_off_c, 2, 79, 67
4, 419712, Note_off_c, 2, 75, 67
4, 419712, Note_off_c, 2, 79, 67
4, 419712, Note_on_c, 2, 75, 67
4, 419776, Note_off_c, 2, 75, 67
4, 419776, Note_on_c, 2, 77, 67
4, 419840, Note_off_c, 2, 77, 67
4, 419840, Note_on_c, 2, 79, 67
4, 419904, Note_off_c, 2, 79, 67
4, 419968, Note_off_c, 2, 79, 67
4, 419968, Note_on_c, 2, 75, 67
4, 419968, Note_on_c, 2, 79, 67
4, 420032, Note_off_c, 2, 75, 67
4, 420032, Note_off_c, 2, 79, 67
4, 420096, Note_off_c, 2, 75, 67
4, 420096, Note_off_c, 2, 79, 67
4, 420096, Note_on_c, 2, 75, 67
4, 420096, Note_on_c, 2, 80, 67
4, 420128, Note_off_c, 2, 75, 67
4, 420128, Note_off_c, 2, 80, 67
4, 420160, Note_off_c, 2, 75, 67
4, 420160, Note_off_c, 2, 80, 67
4, 420160, Note_on_c, 2, 74, 67
4, 420192, Note_off_c, 2, 74, 67
4, 420224, Note_off_c, 2, 74, 67
4, 420224, Note_on_c, 2, 72, 67
4, 420256, Note_off_c, 2, 72, 67
4, 420288, Note_off_c, 2, 72, 67
4, 420288, Note_on_c, 2, 74, 67
4, 420288, Note_on_c, 2, 79, 67
4, 420320, Note_off_c, 2, 74, 67
4, 420320, Note_off_c, 2, 79, 67
4, 420352, Note_off_c, 2, 74, 67
4, 420352, Note_off_c, 2, 79, 67
4, 420352, Note_on_c, 2, 70, 67
4, 420352, Note_on_c, 2, 77, 67
4, 420416, Note_off_c, 2, 70, 67
4, 420416, Note_off_c, 2, 77, 67
4, 420480, Note_off_c, 2, 70, 67
4, 420480, Note_off_c, 2, 77, 67
4, 420480, Note_on_c, 2, 68, 67
4, 420480, Note_on_c, 2, 70, 67
4, 420544, Note_off_c, 2, 68, 67
4, 420544, Note_off_c, 2, 70, 67
4, 420608, Note_off_c, 2, 68, 67
4, 420608, Note_off_c, 2, 70, 67
4, 420608, Note_on_c, 2, 68, 67
4, 420608, Note_on_c, 2, 70, 67
4, 420672, Note_off_c, 2, 68, 67
4, 420672, Note_off_c, 2, 70, 67
4, 420736, Note_off_c, 2, 68, 67
4, 420736, Note_off_c, 2, 70, 67
4, 420736, Note_on_c, 2, 74, 67
4, 420800, Note_off_c, 2, 74, 67
4, 420800, Note_on_c, 2, 75, 67
4, 420864, Note_off_c, 2, 75, 67
4, 420864, Note_on_c, 2, 77, 67
4, 420928, Note_off_c, 2, 77, 67
4, 420992, Note_off_c, 2, 77, 67
4, 420992, Note_on_c, 2, 74, 67
4, 420992, Note_on_c, 2, 77, 67
4, 421056, Note_off_c, 2, 74, 67
4, 421056, Note_off_c, 2, 77, 67
4, 421120, Note_off_c, 2, 74, 67
4, 421120, Note_off_c, 2, 77, 67
4, 421120, Note_on_c, 2, 74, 67
4, 421120, Note_on_c, 2, 77, 67
4, 421184, Note_off_c, 2, 74, 67
4, 421184, Note_off_c, 2, 77, 67
4, 421248, Note_off_c, 2, 74, 67
4, 421248, Note_off_c, 2, 77, 67
4, 421248, Note_on_c, 2, 74, 67
4, 421312, Note_off_c, 2, 74, 67
4, 421312, Note_on_c, 2, 75, 67
4, 421376, Note_off_c, 2, 75, 67
4, 421376, Note_on_c, 2, 77, 67
4, 421440, Note_off_c, 2, 77, 67
4, 421504, Note_off_c, 2, 77, 67
4, 421504, Note_on_c, 2, 74, 67
4, 421504, Note_on_c, 2, 77, 67
4, 421568, Note_off_c, 2, 74, 67
4, 421568, Note_off_c, 2, 77, 67
4, 421632, Note_off_c, 2, 74, 67
4, 421632, Note_off_c, 2, 77, 67
4, 421632, Note_on_c, 2, 74, 67
4, 421632, Note_on_c, 2, 77, 67
4, 421696, Note_off_c, 2, 74, 67
4, 421696, Note_off_c, 2, 77, 67
4, 421760, Note_off_c, 2, 74, 67
4, 421760, Note_off_c, 2, 77, 67
4, 421760, Note_on_c, 2, 74, 67
4, 421824, Note_off_c, 2, 74, 67
4, 421824, Note_on_c, 2, 75, 67
4, 421888, Note_off_c, 2, 75, 67
4, 421888, Note_on_c, 2, 70, 67
4, 421888, Note_on_c, 2, 77, 67
4, 421952, Note_off_c, 2, 70, 67
4, 421952, Note_off_c, 2, 77, 67
4, 422016, Note_off_c, 2, 70, 67
4, 422016, Note_off_c, 2, 77, 67
4, 422016, Note_on_c, 2, 74, 67
4, 422016, Note_on_c, 2, 77, 67
4, 422080, Note_off_c, 2, 74, 67
4, 422080, Note_off_c, 2, 77, 67
4, 422144, Note_off_c, 2, 74, 67
4, 422144, Note_off_c, 2, 77, 67
4, 422144, Note_on_c, 2, 74, 67
4, 422144, Note_on_c, 2, 79, 67
4, 422176, Note_off_c, 2, 74, 67
4, 422176, Note_off_c, 2, 79, 67
4, 422208, Note_off_c, 2, 74, 67
4, 422208, Note_off_c, 2, 79, 67
4, 422208, Note_on_c, 2, 72, 67
4, 422208, Note_on_c, 2, 77, 67
4, 422240, Note_off_c, 2, 72, 67
4, 422240, Note_off_c, 2, 77, 67
4, 422272, Note_off_c, 2, 72, 67
4, 422272, Note_off_c, 2, 77, 67
4, 422272, Note_on_c, 2, 70, 67
4, 422272, Note_on_c, 2, 77, 67
4, 422304, Note_off_c, 2, 70, 67
4, 422304, Note_off_c, 2, 77, 67
4, 422336, Note_off_c, 2, 70, 67
4, 422336, Note_off_c, 2, 77, 67
4, 422336, Note_on_c, 2, 68, 67
4, 422336, Note_on_c, 2, 79, 67
4, 422368, Note_off_c, 2, 68, 67
4, 422368, Note_off_c, 2, 79, 67
4, 422400, Note_off_c, 2, 68, 67
4, 422400, Note_off_c, 2, 79, 67
4, 422400, Note_on_c, 2, 67, 67
4, 422400, Note_on_c, 2, 75, 67
4, 422464, Note_off_c, 2, 67, 67
4, 422464, Note_off_c, 2, 75, 67
4, 422528, Note_off_c, 2, 67, 67
4, 422528, Note_off_c, 2, 75, 67
4, 422528, Note_on_c, 2, 70, 67
4, 422592, Note_off_c, 2, 70, 67
4, 422656, Note_off_c, 2, 70, 67
4, 422656, Note_on_c, 2, 70, 67
4, 422656, Note_on_c, 2, 79, 67
4, 422720, Note_off_c, 2, 70, 67
4, 422720, Note_off_c, 2, 79, 67
4, 422784, Note_off_c, 2, 70, 67
4, 422784, Note_off_c, 2, 79, 67
4, 422784, Note_on_c, 2, 75, 67
4, 422848, Note_off_c, 2, 75, 67
4, 422848, Note_on_c, 2, 77, 67
4, 422912, Note_off_c, 2, 77, 67
4, 422912, Note_on_c, 2, 79, 67
4, 422976, Note_off_c, 2, 79, 67
4, 423040, Note_off_c, 2, 79, 67
4, 423040, Note_on_c, 2, 75, 67
4, 423040, Note_on_c, 2, 79, 67
4, 423104, Note_off_c, 2, 75, 67
4, 423104, Note_off_c, 2, 79, 67
4, 423168, Note_off_c, 2, 75, 67
4, 423168, Note_off_c, 2, 79, 67
4, 423168, Note_on_c, 2, 75, 67
4, 423168, Note_on_c, 2, 79, 67
4, 423232, Note_off_c, 2, 75, 67
4, 423232, Note_off_c, 2, 79, 67
4, 423296, Note_off_c, 2, 75, 67
4, 423296, Note_off_c, 2, 79, 67
4, 423296, Note_on_c, 2, 75, 67
4, 423360, Note_off_c, 2, 75, 67
4, 423360, Note_on_c, 2, 77, 67
4, 423424, Note_off_c, 2, 77, 67
4, 423424, Note_on_c, 2, 79, 67
4, 423488, Note_off_c, 2, 79, 67
4, 423552, Note_off_c, 2, 79, 67
4, 423552, Note_on_c, 2, 75, 67
4, 423552, Note_on_c, 2, 79, 67
4, 423616, Note_off_c, 2, 75, 67
4, 423616, Note_off_c, 2, 79, 67
4, 423680, Note_off_c, 2, 75, 67
4, 423680, Note_off_c, 2, 79, 67
4, 423680, Note_on_c, 2, 75, 67
4, 423680, Note_on_c, 2, 79, 67
4, 423744, Note_off_c, 2, 75, 67
4, 423744, Note_off_c, 2, 79, 67
4, 423808, Note_off_c, 2, 75, 67
4, 423808, Note_off_c, 2, 79, 67
4, 423808, Note_on_c, 2, 75, 67
4, 423872, Note_off_c, 2, 75, 67
4, 423872, Note_on_c, 2, 77, 67
4, 423936, Note_off_c, 2, 77, 67
4, 423936, Note_on_c, 2, 79, 67
4, 424000, Note_off_c, 2, 79, 67
4, 424064, Note_off_c, 2, 79, 67
4, 424064, Note_on_c, 2, 75, 67
4, 424064, Note_on_c, 2, 79, 67
4, 424128, Note_off_c, 2, 75, 67
4, 424128, Note_off_c, 2, 79, 67
4, 424192, Note_off_c, 2, 75, 67
4, 424192, Note_off_c, 2, 79, 67
4, 424192, Note_on_c, 2, 75, 67
4, 424192, Note_on_c, 2, 80, 67
4, 424224, Note_off_c, 2, 75, 67
4, 424224, Note_off_c, 2, 80, 67
4, 424256, Note_off_c, 2, 75, 67
4, 424256, Note_off_c, 2, 80, 67
4, 424256, Note_on_c, 2, 74, 67
4, 424320, Note_off_c, 2, 74, 67
4, 424320, Note_on_c, 2, 72, 67
4, 424384, Note_off_c, 2, 72, 67
4, 424384, Note_on_c, 2, 74, 67
4, 424384, Note_on_c, 2, 79, 67
4, 424416, Note_off_c, 2, 74, 67
4, 424416, Note_off_c, 2, 79, 67
4, 424448, Note_off_c, 2, 74, 67
4, 424448, Note_off_c, 2, 79, 67
4, 424448, Note_on_c, 2, 70, 67
4, 424448, Note_on_c, 2, 77, 67
4, 424512, Note_off_c, 2, 70, 67
4, 424512, Note_off_c, 2, 77, 67
4, 424576, Note_off_c, 2, 70, 67
4, 424576, Note_off_c, 2, 77, 67
4, 424576, Note_on_c, 2, 68, 67
4, 424576, Note_on_c, 2, 70, 67
4, 424640, Note_off_c, 2, 68, 67
4, 424640, Note_off_c, 2, 70, 67
4, 424704, Note_off_c, 2, 68, 67
4, 424704, Note_off_c, 2, 70, 67
4, 424704, Note_on_c, 2, 68, 67
4, 424704, Note_on_c, 2, 70, 67
4, 424768, Note_off_c, 2, 68, 67
4, 424768, Note_off_c, 2, 70, 67
4, 424832, Note_off_c, 2, 68, 67
4, 424832, Note_off_c, 2, 70, 67
4, 424832, Note_on_c, 2, 74, 67
4, 424896, Note_off_c, 2, 74, 67
4, 424896, Note_on_c, 2, 75, 67
4, 424960, Note_off_c, 2, 75, 67
4, 424960, Note_on_c, 2, 77, 67
4, 425088, Note_off_c, 2, 77, 67
4, 425088, Note_on_c, 2, 74, 67
4, 425088, Note_on_c, 2, 80, 67
4, 425152, Note_off_c, 2, 74, 67
4, 425152, Note_off_c, 2, 80, 67
4, 425216, Note_off_c, 2, 74, 67
4, 425216, Note_off_c, 2, 80, 67
4, 425216, Note_on_c, 2, 74, 67
4, 425216, Note_on_c, 2, 79, 67
4, 425280, Note_off_c, 2, 74, 67
4, 425280, Note_off_c, 2, 79, 67
4, 425344, Note_off_c, 2, 74, 67
4, 425344, Note_off_c, 2, 79, 67
4, 425344, Note_on_c, 2, 77, 67
4, 425408, Note_off_c, 2, 77, 67
4, 425472, Note_off_c, 2, 77, 67
4, 425472, Note_on_c, 2, 75, 67
4, 425536, Note_off_c, 2, 75, 67
4, 425600, Note_off_c, 2, 75, 67
4, 425600, Note_on_c, 2, 70, 67
4, 425600, Note_on_c, 2, 74, 67
4, 425664, Note_off_c, 2, 70, 67
4, 425664, Note_off_c, 2, 74, 67
4, 425728, Note_off_c, 2, 70, 67
4, 425728, Note_off_c, 2, 74, 67
4, 425728, Note_on_c, 2, 72, 67
4, 425728, Note_on_c, 2, 74, 67
4, 425792, Note_off_c, 2, 72, 67
4, 425792, Note_off_c, 2, 74, 67
4, 425856, Note_off_c, 2, 72, 67
4, 425856, Note_off_c, 2, 74, 67
4, 425856, Note_on_c, 2, 70, 67
4, 425856, Note_on_c, 2, 74, 67
4, 425920, Note_off_c, 2, 70, 67
4, 425920, Note_off_c, 2, 74, 67
4, 425984, Note_off_c, 2, 70, 67
4, 425984, Note_off_c, 2, 74, 67
4, 425984, Note_on_c, 2, 80, 67
4, 425984, Note_on_c, 2, 84, 67
4, 426240, Note_off_c, 2, 80, 67
4, 426240, Note_off_c, 2, 84, 67
4, 426240, Note_on_c, 2, 70, 67
4, 426240, Note_on_c, 2, 74, 67
4, 426256, Note_off_c, 2, 70, 67
4, 426256, Note_off_c, 2, 74, 67
4, 426272, Note_off_c, 2, 70, 67
4, 426272, Note_off_c, 2, 74, 67
4, 426272, Note_on_c, 2, 72, 67
4, 426272, Note_on_c, 2, 75, 67
4, 426288, Note_off_c, 2, 72, 67
4, 426288, Note_off_c, 2, 75, 67
4, 426304, Note_off_c, 2, 72, 67
4, 426304, Note_off_c, 2, 75, 67
4, 426304, Note_on_c, 2, 70, 67
4, 426304, Note_on_c, 2, 74, 67
4, 426336, Note_off_c, 2, 70, 67
4, 426336, Note_off_c, 2, 74, 67
4, 426368, Note_off_c, 2, 70, 67
4, 426368, Note_off_c, 2, 74, 67
4, 426368, Note_on_c, 2, 68, 67
4, 426368, Note_on_c, 2, 72, 67
4, 426400, Note_off_c, 2, 68, 67
4, 426400, Note_off_c, 2, 72, 67
4, 426432, Note_off_c, 2, 68, 67
4, 426432, Note_off_c, 2, 72, 67
4, 426432, Note_on_c, 2, 74, 67
4, 426432, Note_on_c, 2, 77, 67
4, 426464, Note_off_c, 2, 74, 67
4, 426464, Note_off_c, 2, 77, 67
4, 426496, Note_off_c, 2, 74, 67
4, 426496, Note_off_c, 2, 77, 67
4, 426496, Note_on_c, 2, 75, 67
4, 426496, Note_on_c, 2, 79, 67
4, 426624, Note_off_c, 2, 75, 67
4, 426624, Note_off_c, 2, 79, 67
4, 426624, Note_on_c, 2, 70, 67
4, 426688, Note_off_c, 2, 70, 67
4, 426752, Note_off_c, 2, 70, 67
4, 426752, Note_on_c, 2, 70, 67
4, 426816, Note_off_c, 2, 70, 67
4, 426880, Note_off_c, 2, 70, 67
4, 426880, Note_on_c, 2, 75, 67
4, 426880, Note_on_c, 2, 79, 67
4, 426944, Note_off_c, 2, 75, 67
4, 426944, Note_off_c, 2, 79, 67
4, 426944, Note_on_c, 2, 77, 67
4, 426944, Note_on_c, 2, 80, 67
4, 427008, Note_off_c, 2, 77, 67
4, 427008, Note_off_c, 2, 80, 67
4, 427008, Note_on_c, 2, 79, 67
4, 427008, Note_on_c, 2, 82, 67
4, 427072, Note_off_c, 2, 79, 67
4, 427072, Note_off_c, 2, 82, 67
4, 427136, Note_off_c, 2, 79, 67
4, 427136, Note_off_c, 2, 82, 67
4, 427136, Note_on_c, 2, 79, 67
4, 427136, Note_on_c, 2, 82, 67
4, 427200, Note_off_c, 2, 79, 67
4, 427200, Note_off_c, 2, 82, 67
4, 427264, Note_off_c, 2, 79, 67
4, 427264, Note_off_c, 2, 82, 67
4, 427264, Note_on_c, 2, 70, 67
4, 427264, Note_on_c, 2, 79, 67
4, 427328, Note_off_c, 2, 70, 67
4, 427328, Note_off_c, 2, 79, 67
4, 427392, Note_off_c, 2, 70, 67
4, 427392, Note_off_c, 2, 79, 67
4, 427392, Note_on_c, 2, 70, 67
4, 427392, Note_on_c, 2, 75, 67
4, 427456, Note_off_c, 2, 70, 67
4, 427456, Note_off_c, 2, 75, 67
4, 427520, Note_off_c, 2, 70, 67
4, 427520, Note_off_c, 2, 75, 67
4, 427520, Note_on_c, 2, 84, 67
4, 427520, Note_on_c, 2, 87, 67
4, 427584, Note_off_c, 2, 84, 67
4, 427584, Note_off_c, 2, 87, 67
4, 427648, Note_off_c, 2, 84, 67
4, 427648, Note_off_c, 2, 87, 67
4, 427648, Note_on_c, 2, 82, 67
4, 427648, Note_on_c, 2, 86, 67
4, 427712, Note_off_c, 2, 82, 67
4, 427712, Note_off_c, 2, 86, 67
4, 427776, Note_off_c, 2, 82, 67
4, 427776, Note_off_c, 2, 86, 67
4, 427776, Note_on_c, 2, 80, 67
4, 427776, Note_on_c, 2, 84, 67
4, 427840, Note_off_c, 2, 80, 67
4, 427840, Note_off_c, 2, 84, 67
4, 427904, Note_off_c, 2, 80, 67
4, 427904, Note_off_c, 2, 84, 67
4, 427904, Note_on_c, 2, 79, 67
4, 427904, Note_on_c, 2, 87, 67
4, 427968, Note_off_c, 2, 79, 67
4, 427968, Note_off_c, 2, 87, 67
4, 428032, Note_off_c, 2, 79, 67
4, 428032, Note_off_c, 2, 87, 67
4, 428032, Note_on_c, 2, 75, 67
4, 428032, Note_on_c, 2, 82, 67
4, 428096, Note_off_c, 2, 75, 67
4, 428096, Note_off_c, 2, 82, 67
4, 428160, Note_off_c, 2, 75, 67
4, 428160, Note_off_c, 2, 82, 67
4, 428160, Note_on_c, 2, 79, 67
4, 428224, Note_off_c, 2, 79, 67
4, 428288, Note_off_c, 2, 79, 67
4, 428288, Note_on_c, 2, 67, 67
4, 428288, Note_on_c, 2, 75, 67
4, 428352, Note_off_c, 2, 67, 67
4, 428352, Note_off_c, 2, 75, 67
4, 428416, Note_off_c, 2, 67, 67
4, 428416, Note_off_c, 2, 75, 67
4, 428416, Note_on_c, 2, 68, 67
4, 428416, Note_on_c, 2, 74, 67
4, 428448, Note_off_c, 2, 68, 67
4, 428448, Note_off_c, 2, 74, 67
4, 428480, Note_off_c, 2, 68, 67
4, 428480, Note_off_c, 2, 74, 67
4, 428480, Note_on_c, 2, 74, 67
4, 428480, Note_on_c, 2, 79, 67
4, 428512, Note_off_c, 2, 74, 67
4, 428512, Note_off_c, 2, 79, 67
4, 428544, Note_off_c, 2, 74, 67
4, 428544, Note_off_c, 2, 79, 67
4, 428544, Note_on_c, 2, 70, 67
4, 428544, Note_on_c, 2, 77, 67
4, 428608, Note_off_c, 2, 70, 67
4, 428608, Note_off_c, 2, 77, 67
4, 428672, Note_off_c, 2, 70, 67
4, 428672, Note_off_c, 2, 77, 67
4, 428672, Note_on_c, 2, 65, 67
4, 428672, Note_on_c, 2, 70, 67
4, 428736, Note_off_c, 2, 65, 67
4, 428736, Note_off_c, 2, 70, 67
4, 428800, Note_off_c, 2, 65, 67
4, 428800, Note_off_c, 2, 70, 67
4, 428800, Note_on_c, 2, 68, 67
4, 428800, Note_on_c, 2, 70, 67
4, 428864, Note_off_c, 2, 68, 67
4, 428864, Note_off_c, 2, 70, 67
4, 428928, Note_off_c, 2, 68, 67
4, 428928, Note_off_c, 2, 70, 67
4, 428928, Note_on_c, 2, 70, 67
4, 428928, Note_on_c, 2, 79, 67
4, 428992, Note_off_c, 2, 70, 67
4, 428992, Note_off_c, 2, 79, 67
4, 428992, Note_on_c, 2, 77, 67
4, 428992, Note_on_c, 2, 80, 67
4, 429056, Note_off_c, 2, 77, 67
4, 429056, Note_off_c, 2, 80, 67
4, 429056, Note_on_c, 2, 79, 67
4, 429056, Note_on_c, 2, 82, 67
4, 429120, Note_off_c, 2, 79, 67
4, 429120, Note_off_c, 2, 82, 67
4, 429184, Note_off_c, 2, 79, 67
4, 429184, Note_off_c, 2, 82, 67
4, 429184, Note_on_c, 2, 79, 67
4, 429184, Note_on_c, 2, 82, 67
4, 429248, Note_off_c, 2, 79, 67
4, 429248, Note_off_c, 2, 82, 67
4, 429312, Note_off_c, 2, 79, 67
4, 429312, Note_off_c, 2, 82, 67
4, 429312, Note_on_c, 2, 70, 67
4, 429312, Note_on_c, 2, 79, 67
4, 429376, Note_off_c, 2, 70, 67
4, 429376, Note_off_c, 2, 79, 67
4, 429440, Note_off_c, 2, 70, 67
4, 429440, Note_off_c, 2, 79, 67
4, 429440, Note_on_c, 2, 75, 67
4, 429440, Note_on_c, 2, 82, 67
4, 429504, Note_off_c, 2, 75, 67
4, 429504, Note_off_c, 2, 82, 67
4, 429568, Note_off_c, 2, 75, 67
4, 429568, Note_off_c, 2, 82, 67
4, 429568, Note_on_c, 2, 84, 67
4, 429568, Note_on_c, 2, 87, 67
4, 429632, Note_off_c, 2, 84, 67
4, 429632, Note_off_c, 2, 87, 67
4, 429696, Note_off_c, 2, 84, 67
4, 429696, Note_off_c, 2, 87, 67
4, 429696, Note_on_c, 2, 82, 67
4, 429696, Note_on_c, 2, 86, 67
4, 429760, Note_off_c, 2, 82, 67
4, 429760, Note_off_c, 2, 86, 67
4, 429824, Note_off_c, 2, 82, 67
4, 429824, Note_off_c, 2, 86, 67
4, 429824, Note_on_c, 2, 80, 67
4, 429824, Note_on_c, 2, 84, 67
4, 429888, Note_off_c, 2, 80, 67
4, 429888, Note_off_c, 2, 84, 67
4, 429952, Note_off_c, 2, 80, 67
4, 429952, Note_off_c, 2, 84, 67
4, 429952, Note_on_c, 2, 70, 67
4, 429952, Note_on_c, 2, 74, 67
4, 429984, Note_off_c, 2, 70, 67
4, 429984, Note_off_c, 2, 74, 67
4, 430016, Note_off_c, 2, 70, 67
4, 430016, Note_off_c, 2, 74, 67
4, 430016, Note_on_c, 2, 77, 67
4, 430016, Note_on_c, 2, 80, 67
4, 430048, Note_off_c, 2, 77, 67
4, 430048, Note_off_c, 2, 80, 67
4, 430080, Note_off_c, 2, 77, 67
4, 430080, Note_off_c, 2, 80, 67
4, 430080, Note_on_c, 2, 77, 67
4, 430080, Note_on_c, 2, 82, 67
4, 430144, Note_off_c, 2, 77, 67
4, 430144, Note_off_c, 2, 82, 67
4, 430208, Note_off_c, 2, 77, 67
4, 430208, Note_off_c, 2, 82, 67
4, 430208, Note_on_c, 2, 80, 67
4, 430208, Note_on_c, 2, 87, 67
4, 430272, Note_off_c, 2, 80, 67
4, 430272, Note_off_c, 2, 87, 67
4, 430336, Note_off_c, 2, 80, 67
4, 430336, Note_off_c, 2, 87, 67
4, 430336, Note_on_c, 2, 82, 67
4, 430336, Note_on_c, 2, 86, 67
4, 430400, Note_off_c, 2, 82, 67
4, 430400, Note_off_c, 2, 86, 67
4, 430464, Note_off_c, 2, 82, 67
4, 430464, Note_off_c, 2, 86, 67
4, 430464, Note_on_c, 2, 80, 67
4, 430464, Note_on_c, 2, 89, 67
4, 430528, Note_off_c, 2, 80, 67
4, 430528, Note_off_c, 2, 89, 67
4, 430592, Note_off_c, 2, 80, 67
4, 430592, Note_off_c, 2, 89, 67
4, 430592, Note_on_c, 2, 79, 67
4, 430592, Note_on_c, 2, 87, 67
4, 430656, Note_off_c, 2, 79, 67
4, 430656, Note_off_c, 2, 87, 67
4, 430720, Note_off_c, 2, 79, 67
4, 430720, Note_off_c, 2, 87, 67
4, 430720, Note_on_c, 2, 70, 67
4, 430720, Note_on_c, 2, 82, 67
4, 430784, Note_off_c, 2, 70, 67
4, 430784, Note_off_c, 2, 82, 67
4, 430848, Note_off_c, 2, 70, 67
4, 430848, Note_off_c, 2, 82, 67
4, 430848, Note_on_c, 2, 70, 67
4, 430848, Note_on_c, 2, 82, 67
4, 430912, Note_off_c, 2, 70, 67
4, 430912, Note_off_c, 2, 82, 67
4, 430976, Note_off_c, 2, 70, 67
4, 430976, Note_off_c, 2, 82, 67
4, 430976, Note_on_c, 2, 75, 67
4, 431040, Note_off_c, 2, 75, 67
4, 431040, Note_on_c, 2, 77, 67
4, 431104, Note_off_c, 2, 77, 67
4, 431104, Note_on_c, 2, 79, 67
4, 431168, Note_off_c, 2, 79, 67
4, 431232, Note_off_c, 2, 79, 67
4, 431232, Note_on_c, 2, 75, 67
4, 431232, Note_on_c, 2, 79, 67
4, 431296, Note_off_c, 2, 75, 67
4, 431296, Note_off_c, 2, 79, 67
4, 431360, Note_off_c, 2, 75, 67
4, 431360, Note_off_c, 2, 79, 67
4, 431360, Note_on_c, 2, 75, 67
4, 431360, Note_on_c, 2, 79, 67
4, 431424, Note_off_c, 2, 75, 67
4, 431424, Note_off_c, 2, 79, 67
4, 431488, Note_off_c, 2, 75, 67
4, 431488, Note_off_c, 2, 79, 67
4, 431488, Note_on_c, 2, 75, 67
4, 431552, Note_off_c, 2, 75, 67
4, 431552, Note_on_c, 2, 77, 67
4, 431616, Note_off_c, 2, 77, 67
4, 431616, Note_on_c, 2, 79, 67
4, 431680, Note_off_c, 2, 79, 67
4, 431744, Note_off_c, 2, 79, 67
4, 431744, Note_on_c, 2, 75, 67
4, 431744, Note_on_c, 2, 79, 67
4, 431808, Note_off_c, 2, 75, 67
4, 431808, Note_off_c, 2, 79, 67
4, 431872, Note_off_c, 2, 75, 67
4, 431872, Note_off_c, 2, 79, 67
4, 431872, Note_on_c, 2, 75, 67
4, 431872, Note_on_c, 2, 79, 67
4, 431936, Note_off_c, 2, 75, 67
4, 431936, Note_off_c, 2, 79, 67
4, 432000, Note_off_c, 2, 75, 67
4, 432000, Note_off_c, 2, 79, 67
4, 432000, Note_on_c, 2, 75, 67
4, 432064, Note_off_c, 2, 75, 67
4, 432064, Note_on_c, 2, 77, 67
4, 432128, Note_off_c, 2, 77, 67
4, 432128, Note_on_c, 2, 79, 67
4, 432192, Note_off_c, 2, 79, 67
4, 432256, Note_off_c, 2, 79, 67
4, 432256, Note_on_c, 2, 75, 67
4, 432256, Note_on_c, 2, 79, 67
4, 432320, Note_off_c, 2, 75, 67
4, 432320, Note_off_c, 2, 79, 67
4, 432384, Note_off_c, 2, 75, 67
4, 432384, Note_off_c, 2, 79, 67
4, 432384, Note_on_c, 2, 75, 67
4, 432384, Note_on_c, 2, 80, 67
4, 432416, Note_off_c, 2, 75, 67
4, 432416, Note_off_c, 2, 80, 67
4, 432448, Note_off_c, 2, 75, 67
4, 432448, Note_off_c, 2, 80, 67
4, 432448, Note_on_c, 2, 74, 67
4, 432480, Note_off_c, 2, 74, 67
4, 432512, Note_off_c, 2, 74, 67
4, 432512, Note_on_c, 2, 72, 67
4, 432544, Note_off_c, 2, 72, 67
4, 432576, Note_off_c, 2, 72, 67
4, 432576, Note_on_c, 2, 74, 67
4, 432576, Note_on_c, 2, 79, 67
4, 432608, Note_off_c, 2, 74, 67
4, 432608, Note_off_c, 2, 79, 67
4, 432640, Note_off_c, 2, 74, 67
4, 432640, Note_off_c, 2, 79, 67
4, 432640, Note_on_c, 2, 70, 67
4, 432640, Note_on_c, 2, 77, 67
4, 432704, Note_off_c, 2, 70, 67
4, 432704, Note_off_c, 2, 77, 67
4, 432768, Note_off_c, 2, 70, 67
4, 432768, Note_off_c, 2, 77, 67
4, 432768, Note_on_c, 2, 68, 67
4, 432768, Note_on_c, 2, 70, 67
4, 432832, Note_off_c, 2, 68, 67
4, 432832, Note_off_c, 2, 70, 67
4, 432896, Note_off_c, 2, 68, 67
4, 432896, Note_off_c, 2, 70, 67
4, 432896, Note_on_c, 2, 68, 67
4, 432896, Note_on_c, 2, 70, 67
4, 432960, Note_off_c, 2, 68, 67
4, 432960, Note_off_c, 2, 70, 67
4, 433024, Note_off_c, 2, 68, 67
4, 433024, Note_off_c, 2, 70, 67
4, 433024, Note_on_c, 2, 74, 67
4, 433088, Note_off_c, 2, 74, 67
4, 433088, Note_on_c, 2, 75, 67
4, 433152, Note_off_c, 2, 75, 67
4, 433152, Note_on_c, 2, 77, 67
4, 433216, Note_off_c, 2, 77, 67
4, 433280, Note_off_c, 2, 77, 67
4, 433280, Note_on_c, 2, 74, 67
4, 433280, Note_on_c, 2, 77, 67
4, 433344, Note_off_c, 2, 74, 67
4, 433344, Note_off_c, 2, 77, 67
4, 433408, Note_off_c, 2, 74, 67
4, 433408, Note_off_c, 2, 77, 67
4, 433408, Note_on_c, 2, 74, 67
4, 433408, Note_on_c, 2, 77, 67
4, 433472, Note_off_c, 2, 74, 67
4, 433472, Note_off_c, 2, 77, 67
4, 433536, Note_off_c, 2, 74, 67
4, 433536, Note_off_c, 2, 77, 67
4, 433536, Note_on_c, 2, 74, 67
4, 433600, Note_off_c, 2, 74, 67
4, 433600, Note_on_c, 2, 75, 67
4, 433664, Note_off_c, 2, 75, 67
4, 433664, Note_on_c, 2, 77, 67
4, 433728, Note_off_c, 2, 77, 67
4, 433792, Note_off_c, 2, 77, 67
4, 433792, Note_on_c, 2, 74, 67
4, 433792, Note_on_c, 2, 77, 67
4, 433856, Note_off_c, 2, 74, 67
4, 433856, Note_off_c, 2, 77, 67
4, 433920, Note_off_c, 2, 74, 67
4, 433920, Note_off_c, 2, 77, 67
4, 433920, Note_on_c, 2, 74, 67
4, 433920, Note_on_c, 2, 77, 67
4, 433984, Note_off_c, 2, 74, 67
4, 433984, Note_off_c, 2, 77, 67
4, 434048, Note_off_c, 2, 74, 67
4, 434048, Note_off_c, 2, 77, 67
4, 434048, Note_on_c, 2, 74, 67
4, 434112, Note_off_c, 2, 74, 67
4, 434112, Note_on_c, 2, 75, 67
4, 434176, Note_off_c, 2, 75, 67
4, 434176, Note_on_c, 2, 70, 67
4, 434176, Note_on_c, 2, 77, 67
4, 434240, Note_off_c, 2, 70, 67
4, 434240, Note_off_c, 2, 77, 67
4, 434304, Note_off_c, 2, 70, 67
4, 434304, Note_off_c, 2, 77, 67
4, 434304, Note_on_c, 2, 74, 67
4, 434304, Note_on_c, 2, 77, 67
4, 434368, Note_off_c, 2, 74, 67
4, 434368, Note_off_c, 2, 77, 67
4, 434432, Note_off_c, 2, 74, 67
4, 434432, Note_off_c, 2, 77, 67
4, 434432, Note_on_c, 2, 74, 67
4, 434432, Note_on_c, 2, 79, 67
4, 434464, Note_off_c, 2, 74, 67
4, 434464, Note_off_c, 2, 79, 67
4, 434496, Note_off_c, 2, 74, 67
4, 434496, Note_off_c, 2, 79, 67
4, 434496, Note_on_c, 2, 72, 67
4, 434496, Note_on_c, 2, 77, 67
4, 434528, Note_off_c, 2, 72, 67
4, 434528, Note_off_c, 2, 77, 67
4, 434560, Note_off_c, 2, 72, 67
4, 434560, Note_off_c, 2, 77, 67
4, 434560, Note_on_c, 2, 70, 67
4, 434560, Note_on_c, 2, 77, 67
4, 434592, Note_off_c, 2, 70, 67
4, 434592, Note_off_c, 2, 77, 67
4, 434624, Note_off_c, 2, 70, 67
4, 434624, Note_off_c, 2, 77, 67
4, 434624, Note_on_c, 2, 68, 67
4, 434624, Note_on_c, 2, 79, 67
4, 434656, Note_off_c, 2, 68, 67
4, 434656, Note_off_c, 2, 79, 67
4, 434688, Note_off_c, 2, 68, 67
4, 434688, Note_off_c, 2, 79, 67
4, 434688, Note_on_c, 2, 67, 67
4, 434688, Note_on_c, 2, 75, 67
4, 434752, Note_off_c, 2, 67, 67
4, 434752, Note_off_c, 2, 75, 67
4, 434816, Note_off_c, 2, 67, 67
4, 434816, Note_off_c, 2, 75, 67
4, 434816, Note_on_c, 2, 70, 67
4, 434880, Note_off_c, 2, 70, 67
4, 434944, Note_off_c, 2, 70, 67
4, 434944, Note_on_c, 2, 70, 67
4, 434944, Note_on_c, 2, 79, 67
4, 435008, Note_off_c, 2, 70, 67
4, 435008, Note_off_c, 2, 79, 67
4, 435072, Note_off_c, 2, 70, 67
4, 435072, Note_off_c, 2, 79, 67
4, 435072, Note_on_c, 2, 75, 67
4, 435136, Note_off_c, 2, 75, 67
4, 435136, Note_on_c, 2, 77, 67
4, 435200, Note_off_c, 2, 77, 67
4, 435200, Note_on_c, 2, 79, 67
4, 435264, Note_off_c, 2, 79, 67
4, 435328, Note_off_c, 2, 79, 67
4, 435328, Note_on_c, 2, 75, 67
4, 435328, Note_on_c, 2, 79, 67
4, 435392, Note_off_c, 2, 75, 67
4, 435392, Note_off_c, 2, 79, 67
4, 435456, Note_off_c, 2, 75, 67
4, 435456, Note_off_c, 2, 79, 67
4, 435456, Note_on_c, 2, 75, 67
4, 435456, Note_on_c, 2, 79, 67
4, 435520, Note_off_c, 2, 75, 67
4, 435520, Note_off_c, 2, 79, 67
4, 435584, Note_off_c, 2, 75, 67
4, 435584, Note_off_c, 2, 79, 67
4, 435584, Note_on_c, 2, 75, 67
4, 435648, Note_off_c, 2, 75, 67
4, 435648, Note_on_c, 2, 77, 67
4, 435712, Note_off_c, 2, 77, 67
4, 435712, Note_on_c, 2, 79, 67
4, 435776, Note_off_c, 2, 79, 67
4, 435840, Note_off_c, 2, 79, 67
4, 435840, Note_on_c, 2, 75, 67
4, 435840, Note_on_c, 2, 79, 67
4, 435904, Note_off_c, 2, 75, 67
4, 435904, Note_off_c, 2, 79, 67
4, 435968, Note_off_c, 2, 75, 67
4, 435968, Note_off_c, 2, 79, 67
4, 435968, Note_on_c, 2, 75, 67
4, 435968, Note_on_c, 2, 79, 67
4, 436032, Note_off_c, 2, 75, 67
4, 436032, Note_off_c, 2, 79, 67
4, 436096, Note_off_c, 2, 75, 67
4, 436096, Note_off_c, 2, 79, 67
4, 436096, Note_on_c, 2, 75, 67
4, 436160, Note_off_c, 2, 75, 67
4, 436160, Note_on_c, 2, 77, 67
4, 436224, Note_off_c, 2, 77, 67
4, 436224, Note_on_c, 2, 79, 67
4, 436288, Note_off_c, 2, 79, 67
4, 436352, Note_off_c, 2, 79, 67
4, 436352, Note_on_c, 2, 75, 67
4, 436352, Note_on_c, 2, 79, 67
4, 436416, Note_off_c, 2, 75, 67
4, 436416, Note_off_c, 2, 79, 67
4, 436480, Note_off_c, 2, 75, 67
4, 436480, Note_off_c, 2, 79, 67
4, 436480, Note_on_c, 2, 75, 67
4, 436480, Note_on_c, 2, 80, 67
4, 436512, Note_off_c, 2, 75, 67
4, 436512, Note_off_c, 2, 80, 67
4, 436544, Note_off_c, 2, 75, 67
4, 436544, Note_off_c, 2, 80, 67
4, 436544, Note_on_c, 2, 74, 67
4, 436608, Note_off_c, 2, 74, 67
4, 436608, Note_on_c, 2, 72, 67
4, 436672, Note_off_c, 2, 72, 67
4, 436672, Note_on_c, 2, 74, 67
4, 436672, Note_on_c, 2, 79, 67
4, 436704, Note_off_c, 2, 74, 67
4, 436704, Note_off_c, 2, 79, 67
4, 436736, Note_off_c, 2, 74, 67
4, 436736, Note_off_c, 2, 79, 67
4, 436736, Note_on_c, 2, 70, 67
4, 436736, Note_on_c, 2, 77, 67
4, 436800, Note_off_c, 2, 70, 67
4, 436800, Note_off_c, 2, 77, 67
4, 436864, Note_off_c, 2, 70, 67
4, 436864, Note_off_c, 2, 77, 67
4, 436864, Note_on_c, 2, 68, 67
4, 436864, Note_on_c, 2, 70, 67
4, 436928, Note_off_c, 2, 68, 67
4, 436928, Note_off_c, 2, 70, 67
4, 436992, Note_off_c, 2, 68, 67
4, 436992, Note_off_c, 2, 70, 67
4, 436992, Note_on_c, 2, 68, 67
4, 436992, Note_on_c, 2, 70, 67
4, 437056, Note_off_c, 2, 68, 67
4, 437056, Note_off_c, 2, 70, 67
4, 437120, Note_off_c, 2, 68, 67
4, 437120, Note_off_c, 2, 70, 67
4, 437120, Note_on_c, 2, 74, 67
4, 437184, Note_off_c, 2, 74, 67
4, 437184, Note_on_c, 2, 75, 67
4, 437248, Note_off_c, 2, 75, 67
4, 437248, Note_on_c, 2, 77, 67
4, 437376, Note_off_c, 2, 77, 67
4, 437376, Note_on_c, 2, 74, 67
4, 437376, Note_on_c, 2, 80, 67
4, 437440, Note_off_c, 2, 74, 67
4, 437440, Note_off_c, 2, 80, 67
4, 437504, Note_off_c, 2, 74, 67
4, 437504, Note_off_c, 2, 80, 67
4, 437504, Note_on_c, 2, 74, 67
4, 437504, Note_on_c, 2, 79, 67
4, 437568, Note_off_c, 2, 74, 67
4, 437568, Note_off_c, 2, 79, 67
4, 437632, Note_off_c, 2, 74, 67
4, 437632, Note_off_c, 2, 79, 67
4, 437632, Note_on_c, 2, 77, 67
4, 437696, Note_off_c, 2, 77, 67
4, 437760, Note_off_c, 2, 77, 67
4, 437760, Note_on_c, 2, 75, 67
4, 437824, Note_off_c, 2, 75, 67
4, 437888, Note_off_c, 2, 75, 67
4, 437888, Note_on_c, 2, 70, 67
4, 437888, Note_on_c, 2, 74, 67
4, 437952, Note_off_c, 2, 70, 67
4, 437952, Note_off_c, 2, 74, 67
4, 438016, Note_off_c, 2, 70, 67
4, 438016, Note_off_c, 2, 74, 67
4, 438016, Note_on_c, 2, 72, 67
4, 438016, Note_on_c, 2, 74, 67
4, 438080, Note_off_c, 2, 72, 67
4, 438080, Note_off_c, 2, 74, 67
4, 438144, Note_off_c, 2, 72, 67
4, 438144, Note_off_c, 2, 74, 67
4, 438144, Note_on_c, 2, 70, 67
4, 438144, Note_on_c, 2, 74, 67
4, 438208, Note_off_c, 2, 70, 67
4, 438208, Note_off_c, 2, 74, 67
4, 438272, Note_off_c, 2, 70, 67
4, 438272, Note_off_c, 2, 74, 67
4, 438272, Note_on_c, 2, 80, 67
4, 438272, Note_on_c, 2, 84, 67
4, 438528, Note_off_c, 2, 80, 67
4, 438528, Note_off_c, 2, 84, 67
4, 438528, Note_on_c, 2, 70, 67
4, 438528, Note_on_c, 2, 74, 67
4, 438544, Note_off_c, 2, 70, 67
4, 438544, Note_off_c, 2, 74, 67
4, 438560, Note_off_c, 2, 70, 67
4, 438560, Note_off_c, 2, 74, 67
4, 438560, Note_on_c, 2, 72, 67
4, 438560, Note_on_c, 2, 75, 67
4, 438576, Note_off_c, 2, 72, 67
4, 438576, Note_off_c, 2, 75, 67
4, 438592, Note_off_c, 2, 72, 67
4, 438592, Note_off_c, 2, 75, 67
4, 438592, Note_on_c, 2, 70, 67
4, 438592, Note_on_c, 2, 74, 67
4, 438624, Note_off_c, 2, 70, 67
4, 438624, Note_off_c, 2, 74, 67
4, 438656, Note_off_c, 2, 70, 67
4, 438656, Note_off_c, 2, 74, 67
4, 438656, Note_on_c, 2, 68, 67
4, 438656, Note_on_c, 2, 72, 67
4, 438688, Note_off_c, 2, 68, 67
4, 438688, Note_off_c, 2, 72, 67
4, 438720, Note_off_c, 2, 68, 67
4, 438720, Note_off_c, 2, 72, 67
4, 438720, Note_on_c, 2, 74, 67
4, 438720, Note_on_c, 2, 77, 67
4, 438752, Note_off_c, 2, 74, 67
4, 438752, Note_off_c, 2, 77, 67
4, 438784, Note_off_c, 2, 74, 67
4, 438784, Note_off_c, 2, 77, 67
4, 438784, Note_on_c, 2, 75, 67
4, 438784, Note_on_c, 2, 79, 67
4, 438912, Note_off_c, 2, 75, 67
4, 438912, Note_off_c, 2, 79, 67
4, 438912, Note_on_c, 2, 70, 67
4, 438976, Note_off_c, 2, 70, 67
4, 439040, Note_off_c, 2, 70, 67
4, 439040, Note_on_c, 2, 70, 67
4, 439104, Note_off_c, 2, 70, 67
4, 439168, Note_off_c, 2, 70, 67
4, 439168, Note_on_c, 2, 75, 67
4, 439168, Note_on_c, 2, 79, 67
4, 439232, Note_off_c, 2, 75, 67
4, 439232, Note_off_c, 2, 79, 67
4, 439232, Note_on_c, 2, 77, 67
4, 439232, Note_on_c, 2, 80, 67
4, 439296, Note_off_c, 2, 77, 67
4, 439296, Note_off_c, 2, 80, 67
4, 439296, Note_on_c, 2, 79, 67
4, 439296, Note_on_c, 2, 82, 67
4, 439360, Note_off_c, 2, 79, 67
4, 439360, Note_off_c, 2, 82, 67
4, 439424, Note_off_c, 2, 79, 67
4, 439424, Note_off_c, 2, 82, 67
4, 439424, Note_on_c, 2, 79, 67
4, 439424, Note_on_c, 2, 82, 67
4, 439488, Note_off_c, 2, 79, 67
4, 439488, Note_off_c, 2, 82, 67
4, 439552, Note_off_c, 2, 79, 67
4, 439552, Note_off_c, 2, 82, 67
4, 439552, Note_on_c, 2, 70, 67
4, 439552, Note_on_c, 2, 79, 67
4, 439616, Note_off_c, 2, 70, 67
4, 439616, Note_off_c, 2, 79, 67
4, 439680, Note_off_c, 2, 70, 67
4, 439680, Note_off_c, 2, 79, 67
4, 439680, Note_on_c, 2, 70, 67
4, 439680, Note_on_c, 2, 75, 67
4, 439744, Note_off_c, 2, 70, 67
4, 439744, Note_off_c, 2, 75, 67
4, 439808, Note_off_c, 2, 70, 67
4, 439808, Note_off_c, 2, 75, 67
4, 439808, Note_on_c, 2, 84, 67
4, 439808, Note_on_c, 2, 87, 67
4, 439872, Note_off_c, 2, 84, 67
4, 439872, Note_off_c, 2, 87, 67
4, 439936, Note_off_c, 2, 84, 67
4, 439936, Note_off_c, 2, 87, 67
4, 439936, Note_on_c, 2, 82, 67
4, 439936, Note_on_c, 2, 86, 67
4, 440000, Note_off_c, 2, 82, 67
4, 440000, Note_off_c, 2, 86, 67
4, 440064, Note_off_c, 2, 82, 67
4, 440064, Note_off_c, 2, 86, 67
4, 440064, Note_on_c, 2, 80, 67
4, 440064, Note_on_c, 2, 84, 67
4, 440128, Note_off_c, 2, 80, 67
4, 440128, Note_off_c, 2, 84, 67
4, 440192, Note_off_c, 2, 80, 67
4, 440192, Note_off_c, 2, 84, 67
4, 440192, Note_on_c, 2, 79, 67
4, 440192, Note_on_c, 2, 87, 67
4, 440256, Note_off_c, 2, 79, 67
4, 440256, Note_off_c, 2, 87, 67
4, 440320, Note_off_c, 2, 79, 67
4, 440320, Note_off_c, 2, 87, 67
4, 440320, Note_on_c, 2, 75, 67
4, 440320, Note_on_c, 2, 82, 67
4, 440384, Note_off_c, 2, 75, 67
4, 440384, Note_off_c, 2, 82, 67
4, 440448, Note_off_c, 2, 75, 67
4, 440448, Note_off_c, 2, 82, 67
4, 440448, Note_on_c, 2, 79, 67
4, 440512, Note_off_c, 2, 79, 67
4, 440576, Note_off_c, 2, 79, 67
4, 440576, Note_on_c, 2, 67, 67
4, 440576, Note_on_c, 2, 75, 67
4, 440640, Note_off_c, 2, 67, 67
4, 440640, Note_off_c, 2, 75, 67
4, 440704, Note_off_c, 2, 67, 67
4, 440704, Note_off_c, 2, 75, 67
4, 440704, Note_on_c, 2, 68, 67
4, 440704, Note_on_c, 2, 74, 67
4, 440736, Note_off_c, 2, 68, 67
4, 440736, Note_off_c, 2, 74, 67
4, 440768, Note_off_c, 2, 68, 67
4, 440768, Note_off_c, 2, 74, 67
4, 440768, Note_on_c, 2, 74, 67
4, 440768, Note_on_c, 2, 79, 67
4, 440800, Note_off_c, 2, 74, 67
4, 440800, Note_off_c, 2, 79, 67
4, 440832, Note_off_c, 2, 74, 67
4, 440832, Note_off_c, 2, 79, 67
4, 440832, Note_on_c, 2, 70, 67
4, 440832, Note_on_c, 2, 77, 67
4, 440896, Note_off_c, 2, 70, 67
4, 440896, Note_off_c, 2, 77, 67
4, 440960, Note_off_c, 2, 70, 67
4, 440960, Note_off_c, 2, 77, 67
4, 440960, Note_on_c, 2, 65, 67
4, 440960, Note_on_c, 2, 70, 67
4, 441024, Note_off_c, 2, 65, 67
4, 441024, Note_off_c, 2, 70, 67
4, 441088, Note_off_c, 2, 65, 67
4, 441088, Note_off_c, 2, 70, 67
4, 441088, Note_on_c, 2, 68, 67
4, 441088, Note_on_c, 2, 70, 67
4, 441152, Note_off_c, 2, 68, 67
4, 441152, Note_off_c, 2, 70, 67
4, 441216, Note_off_c, 2, 68, 67
4, 441216, Note_off_c, 2, 70, 67
4, 441216, Note_on_c, 2, 70, 67
4, 441216, Note_on_c, 2, 79, 67
4, 441280, Note_off_c, 2, 70, 67
4, 441280, Note_off_c, 2, 79, 67
4, 441280, Note_on_c, 2, 77, 67
4, 441280, Note_on_c, 2, 80, 67
4, 441344, Note_off_c, 2, 77, 67
4, 441344, Note_off_c, 2, 80, 67
4, 441344, Note_on_c, 2, 79, 67
4, 441344, Note_on_c, 2, 82, 67
4, 441408, Note_off_c, 2, 79, 67
4, 441408, Note_off_c, 2, 82, 67
4, 441472, Note_off_c, 2, 79, 67
4, 441472, Note_off_c, 2, 82, 67
4, 441472, Note_on_c, 2, 79, 67
4, 441472, Note_on_c, 2, 82, 67
4, 441536, Note_off_c, 2, 79, 67
4, 441536, Note_off_c, 2, 82, 67
4, 441600, Note_off_c, 2, 79, 67
4, 441600, Note_off_c, 2, 82, 67
4, 441600, Note_on_c, 2, 70, 67
4, 441600, Note_on_c, 2, 79, 67
4, 441664, Note_off_c, 2, 70, 67
4, 441664, Note_off_c, 2, 79, 67
4, 441728, Note_off_c, 2, 70, 67
4, 441728, Note_off_c, 2, 79, 67
4, 441728, Note_on_c, 2, 75, 67
4, 441728, Note_on_c, 2, 82, 67
4, 441792, Note_off_c, 2, 75, 67
4, 441792, Note_off_c, 2, 82, 67
4, 441856, Note_off_c, 2, 75, 67
4, 441856, Note_off_c, 2, 82, 67
4, 441856, Note_on_c, 2, 84, 67
4, 441856, Note_on_c, 2, 87, 67
4, 441920, Note_off_c, 2, 84, 67
4, 441920, Note_off_c, 2, 87, 67
4, 441984, Note_off_c, 2, 84, 67
4, 441984, Note_off_c, 2, 87, 67
4, 441984, Note_on_c, 2, 82, 67
4, 441984, Note_on_c, 2, 86, 67
4, 442048, Note_off_c, 2, 82, 67
4, 442048, Note_off_c, 2, 86, 67
4, 442112, Note_off_c, 2, 82, 67
4, 442112, Note_off_c, 2, 86, 67
4, 442112, Note_on_c, 2, 80, 67
4, 442112, Note_on_c, 2, 84, 67
4, 442176, Note_off_c, 2, 80, 67
4, 442176, Note_off_c, 2, 84, 67
4, 442240, Note_off_c, 2, 80, 67
4, 442240, Note_off_c, 2, 84, 67
4, 442240, Note_on_c, 2, 70, 67
4, 442240, Note_on_c, 2, 74, 67
4, 442272, Note_off_c, 2, 70, 67
4, 442272, Note_off_c, 2, 74, 67
4, 442304, Note_off_c, 2, 70, 67
4, 442304, Note_off_c, 2, 74, 67
4, 442304, Note_on_c, 2, 77, 67
4, 442304, Note_on_c, 2, 80, 67
4, 442336, Note_off_c, 2, 77, 67
4, 442336, Note_off_c, 2, 80, 67
4, 442368, Note_off_c, 2, 77, 67
4, 442368, Note_off_c, 2, 80, 67
4, 442368, Note_on_c, 2, 77, 67
4, 442368, Note_on_c, 2, 82, 67
4, 442432, Note_off_c, 2, 77, 67
4, 442432, Note_off_c, 2, 82, 67
4, 442496, Note_off_c, 2, 77, 67
4, 442496, Note_off_c, 2, 82, 67
4, 442496, Note_on_c, 2, 80, 67
4, 442496, Note_on_c, 2, 87, 67
4, 442560, Note_off_c, 2, 80, 67
4, 442560, Note_off_c, 2, 87, 67
4, 442624, Note_off_c, 2, 80, 67
4, 442624, Note_off_c, 2, 87, 67
4, 442624, Note_on_c, 2, 82, 67
4, 442624, Note_on_c, 2, 86, 67
4, 442688, Note_off_c, 2, 82, 67
4, 442688, Note_off_c, 2, 86, 67
4, 442752, Note_off_c, 2, 82, 67
4, 442752, Note_off_c, 2, 86, 67
4, 442752, Note_on_c, 2, 80, 67
4, 442752, Note_on_c, 2, 89, 67
4, 442816, Note_off_c, 2, 80, 67
4, 442816, Note_off_c, 2, 89, 67
4, 442880, Note_off_c, 2, 80, 67
4, 442880, Note_off_c, 2, 89, 67
4, 442880, Note_on_c, 2, 79, 67
4, 442880, Note_on_c, 2, 87, 67
4, 442944, Note_off_c, 2, 79, 67
4, 442944, Note_off_c, 2, 87, 67
4, 443008, Note_off_c, 2, 79, 67
4, 443008, Note_off_c, 2, 87, 67
4, 443008, Note_on_c, 2, 70, 67
4, 443008, Note_on_c, 2, 82, 67
4, 443072, Note_off_c, 2, 70, 67
4, 443072, Note_off_c, 2, 82, 67
4, 443136, Note_off_c, 2, 70, 67
4, 443136, Note_off_c, 2, 82, 67
4, 443136, Note_on_c, 2, 70, 67
4, 443136, Note_on_c, 2, 82, 67
4, 443200, Note_off_c, 2, 70, 67
4, 443200, Note_off_c, 2, 82, 67
4, 443264, Note_off_c, 2, 70, 67
4, 443264, Note_off_c, 2, 82, 67
4, 443264, Note_on_c, 2, 75, 67
4, 443328, Note_off_c, 2, 75, 67
4, 443328, Note_on_c, 2, 77, 67
4, 443392, Note_off_c, 2, 77, 67
4, 443392, Note_on_c, 2, 79, 67
4, 443456, Note_off_c, 2, 79, 67
4, 443520, Note_off_c, 2, 79, 67
4, 443520, Note_on_c, 2, 75, 67
4, 443520, Note_on_c, 2, 79, 67
4, 443584, Note_off_c, 2, 75, 67
4, 443584, Note_off_c, 2, 79, 67
4, 443648, Note_off_c, 2, 75, 67
4, 443648, Note_off_c, 2, 79, 67
4, 443648, Note_on_c, 2, 75, 67
4, 443648, Note_on_c, 2, 79, 67
4, 443712, Note_off_c, 2, 75, 67
4, 443712, Note_off_c, 2, 79, 67
4, 443776, Note_off_c, 2, 75, 67
4, 443776, Note_off_c, 2, 79, 67
4, 443776, Note_on_c, 2, 75, 67
4, 443840, Note_off_c, 2, 75, 67
4, 443840, Note_on_c, 2, 77, 67
4, 443904, Note_off_c, 2, 77, 67
4, 443904, Note_on_c, 2, 79, 67
4, 443968, Note_off_c, 2, 79, 67
4, 444032, Note_off_c, 2, 79, 67
4, 444032, Note_on_c, 2, 75, 67
4, 444032, Note_on_c, 2, 79, 67
4, 444096, Note_off_c, 2, 75, 67
4, 444096, Note_off_c, 2, 79, 67
4, 444160, Note_off_c, 2, 75, 67
4, 444160, Note_off_c, 2, 79, 67
4, 444160, Note_on_c, 2, 75, 67
4, 444160, Note_on_c, 2, 79, 67
4, 444224, Note_off_c, 2, 75, 67
4, 444224, Note_off_c, 2, 79, 67
4, 444288, Note_off_c, 2, 75, 67
4, 444288, Note_off_c, 2, 79, 67
4, 444288, Note_on_c, 2, 75, 67
4, 444352, Note_off_c, 2, 75, 67
4, 444352, Note_on_c, 2, 77, 67
4, 444416, Note_off_c, 2, 77, 67
4, 444416, Note_on_c, 2, 79, 67
4, 444480, Note_off_c, 2, 79, 67
4, 444544, Note_off_c, 2, 79, 67
4, 444544, Note_on_c, 2, 75, 67
4, 444544, Note_on_c, 2, 79, 67
4, 444608, Note_off_c, 2, 75, 67
4, 444608, Note_off_c, 2, 79, 67
4, 444672, Note_off_c, 2, 75, 67
4, 444672, Note_off_c, 2, 79, 67
4, 444672, Note_on_c, 2, 75, 67
4, 444672, Note_on_c, 2, 80, 67
4, 444704, Note_off_c, 2, 75, 67
4, 444704, Note_off_c, 2, 80, 67
4, 444736, Note_off_c, 2, 75, 67
4, 444736, Note_off_c, 2, 80, 67
4, 444736, Note_on_c, 2, 74, 67
4, 444768, Note_off_c, 2, 74, 67
4, 444800, Note_off_c, 2, 74, 67
4, 444800, Note_on_c, 2, 72, 67
4, 444832, Note_off_c, 2, 72, 67
4, 444864, Note_off_c, 2, 72, 67
4, 444864, Note_on_c, 2, 74, 67
4, 444864, Note_on_c, 2, 79, 67
4, 444896, Note_off_c, 2, 74, 67
4, 444896, Note_off_c, 2, 79, 67
4, 444928, Note_off_c, 2, 74, 67
4, 444928, Note_off_c, 2, 79, 67
4, 444928, Note_on_c, 2, 70, 67
4, 444928, Note_on_c, 2, 77, 67
4, 444992, Note_off_c, 2, 70, 67
4, 444992, Note_off_c, 2, 77, 67
4, 445056, Note_off_c, 2, 70, 67
4, 445056, Note_off_c, 2, 77, 67
4, 445056, Note_on_c, 2, 68, 67
4, 445056, Note_on_c, 2, 70, 67
4, 445120, Note_off_c, 2, 68, 67
4, 445120, Note_off_c, 2, 70, 67
4, 445184, Note_off_c, 2, 68, 67
4, 445184, Note_off_c, 2, 70, 67
4, 445184, Note_on_c, 2, 68, 67
4, 445184, Note_on_c, 2, 70, 67
4, 445248, Note_off_c, 2, 68, 67
4, 445248, Note_off_c, 2, 70, 67
4, 445312, Note_off_c, 2, 68, 67
4, 445312, Note_off_c, 2, 70, 67
4, 445312, Note_on_c, 2, 74, 67
4, 445376, Note_off_c, 2, 74, 67
4, 445376, Note_on_c, 2, 75, 67
4, 445440, Note_off_c, 2, 75, 67
4, 445440, Note_on_c, 2, 77, 67
4, 445504, Note_off_c, 2, 77, 67
4, 445568, Note_off_c, 2, 77, 67
4, 445568, Note_on_c, 2, 74, 67
4, 445568, Note_on_c, 2, 77, 67
4, 445632, Note_off_c, 2, 74, 67
4, 445632, Note_off_c, 2, 77, 67
4, 445696, Note_off_c, 2, 74, 67
4, 445696, Note_off_c, 2, 77, 67
4, 445696, Note_on_c, 2, 74, 67
4, 445696, Note_on_c, 2, 77, 67
4, 445760, Note_off_c, 2, 74, 67
4, 445760, Note_off_c, 2, 77, 67
4, 445824, Note_off_c, 2, 74, 67
4, 445824, Note_off_c, 2, 77, 67
4, 445824, Note_on_c, 2, 74, 67
4, 445888, Note_off_c, 2, 74, 67
4, 445888, Note_on_c, 2, 75, 67
4, 445952, Note_off_c, 2, 75, 67
4, 445952, Note_on_c, 2, 77, 67
4, 446016, Note_off_c, 2, 77, 67
4, 446080, Note_off_c, 2, 77, 67
4, 446080, Note_on_c, 2, 74, 67
4, 446080, Note_on_c, 2, 77, 67
4, 446144, Note_off_c, 2, 74, 67
4, 446144, Note_off_c, 2, 77, 67
4, 446208, Note_off_c, 2, 74, 67
4, 446208, Note_off_c, 2, 77, 67
4, 446208, Note_on_c, 2, 74, 67
4, 446208, Note_on_c, 2, 77, 67
4, 446272, Note_off_c, 2, 74, 67
4, 446272, Note_off_c, 2, 77, 67
4, 446336, Note_off_c, 2, 74, 67
4, 446336, Note_off_c, 2, 77, 67
4, 446336, Note_on_c, 2, 74, 67
4, 446400, Note_off_c, 2, 74, 67
4, 446400, Note_on_c, 2, 75, 67
4, 446464, Note_off_c, 2, 75, 67
4, 446464, Note_on_c, 2, 70, 67
4, 446464, Note_on_c, 2, 77, 67
4, 446528, Note_off_c, 2, 70, 67
4, 446528, Note_off_c, 2, 77, 67
4, 446592, Note_off_c, 2, 70, 67
4, 446592, Note_off_c, 2, 77, 67
4, 446592, Note_on_c, 2, 74, 67
4, 446592, Note_on_c, 2, 77, 67
4, 446656, Note_off_c, 2, 74, 67
4, 446656, Note_off_c, 2, 77, 67
4, 446720, Note_off_c, 2, 74, 67
4, 446720, Note_off_c, 2, 77, 67
4, 446720, Note_on_c, 2, 74, 67
4, 446720, Note_on_c, 2, 79, 67
4, 446752, Note_off_c, 2, 74, 67
4, 446752, Note_off_c, 2, 79, 67
4, 446784, Note_off_c, 2, 74, 67
4, 446784, Note_off_c, 2, 79, 67
4, 446784, Note_on_c, 2, 72, 67
4, 446784, Note_on_c, 2, 77, 67
4, 446816, Note_off_c, 2, 72, 67
4, 446816, Note_off_c, 2, 77, 67
4, 446848, Note_off_c, 2, 72, 67
4, 446848, Note_off_c, 2, 77, 67
4, 446848, Note_on_c, 2, 70, 67
4, 446848, Note_on_c, 2, 77, 67
4, 446880, Note_off_c, 2, 70, 67
4, 446880, Note_off_c, 2, 77, 67
4, 446912, Note_off_c, 2, 70, 67
4, 446912, Note_off_c, 2, 77, 67
4, 446912, Note_on_c, 2, 68, 67
4, 446912, Note_on_c, 2, 79, 67
4, 446944, Note_off_c, 2, 68, 67
4, 446944, Note_off_c, 2, 79, 67
4, 446976, Note_off_c, 2, 68, 67
4, 446976, Note_off_c, 2, 79, 67
4, 446976, Note_on_c, 2, 67, 67
4, 446976, Note_on_c, 2, 75, 67
4, 447040, Note_off_c, 2, 67, 67
4, 447040, Note_off_c, 2, 75, 67
4, 447104, Note_off_c, 2, 67, 67
4, 447104, Note_off_c, 2, 75, 67
4, 447104, Note_on_c, 2, 70, 67
4, 447168, Note_off_c, 2, 70, 67
4, 447232, Note_off_c, 2, 70, 67
4, 447232, Note_on_c, 2, 70, 67
4, 447232, Note_on_c, 2, 79, 67
4, 447296, Note_off_c, 2, 70, 67
4, 447296, Note_off_c, 2, 79, 67
4, 447360, Note_off_c, 2, 70, 67
4, 447360, Note_off_c, 2, 79, 67
4, 447360, Note_on_c, 2, 75, 67
4, 447424, Note_off_c, 2, 75, 67
4, 447424, Note_on_c, 2, 77, 67
4, 447488, Note_off_c, 2, 77, 67
4, 447488, Note_on_c, 2, 79, 67
4, 447552, Note_off_c, 2, 79, 67
4, 447616, Note_off_c, 2, 79, 67
4, 447616, Note_on_c, 2, 75, 67
4, 447616, Note_on_c, 2, 79, 67
4, 447680, Note_off_c, 2, 75, 67
4, 447680, Note_off_c, 2, 79, 67
4, 447744, Note_off_c, 2, 75, 67
4, 447744, Note_off_c, 2, 79, 67
4, 447744, Note_on_c, 2, 75, 67
4, 447744, Note_on_c, 2, 79, 67
4, 447808, Note_off_c, 2, 75, 67
4, 447808, Note_off_c, 2, 79, 67
4, 447872, Note_off_c, 2, 75, 67
4, 447872, Note_off_c, 2, 79, 67
4, 447872, Note_on_c, 2, 75, 67
4, 447936, Note_off_c, 2, 75, 67
4, 447936, Note_on_c, 2, 77, 67
4, 448000, Note_off_c, 2, 77, 67
4, 448000, Note_on_c, 2, 79, 67
4, 448064, Note_off_c, 2, 79, 67
4, 448128, Note_off_c, 2, 79, 67
4, 448128, Note_on_c, 2, 75, 67
4, 448128, Note_on_c, 2, 79, 67
4, 448192, Note_off_c, 2, 75, 67
4, 448192, Note_off_c, 2, 79, 67
4, 448256, Note_off_c, 2, 75, 67
4, 448256, Note_off_c, 2, 79, 67
4, 448256, Note_on_c, 2, 75, 67
4, 448256, Note_on_c, 2, 79, 67
4, 448320, Note_off_c, 2, 75, 67
4, 448320, Note_off_c, 2, 79, 67
4, 448384, Note_off_c, 2, 75, 67
4, 448384, Note_off_c, 2, 79, 67
4, 448384, Note_on_c, 2, 75, 67
4, 448448, Note_off_c, 2, 75, 67
4, 448448, Note_on_c, 2, 77, 67
4, 448512, Note_off_c, 2, 77, 67
4, 448512, Note_on_c, 2, 79, 67
4, 448576, Note_off_c, 2, 79, 67
4, 448640, Note_off_c, 2, 79, 67
4, 448640, Note_on_c, 2, 75, 67
4, 448640, Note_on_c, 2, 79, 67
4, 448704, Note_off_c, 2, 75, 67
4, 448704, Note_off_c, 2, 79, 67
4, 448768, Note_off_c, 2, 75, 67
4, 448768, Note_off_c, 2, 79, 67
4, 448768, Note_on_c, 2, 75, 67
4, 448768, Note_on_c, 2, 80, 67
4, 448800, Note_off_c, 2, 75, 67
4, 448800, Note_off_c, 2, 80, 67
4, 448832, Note_off_c, 2, 75, 67
4, 448832, Note_off_c, 2, 80, 67
4, 448832, Note_on_c, 2, 74, 67
4, 448896, Note_off_c, 2, 74, 67
4, 448896, Note_on_c, 2, 72, 67
4, 448960, Note_off_c, 2, 72, 67
4, 448960, Note_on_c, 2, 74, 67
4, 448960, Note_on_c, 2, 79, 67
4, 448992, Note_off_c, 2, 74, 67
4, 448992, Note_off_c, 2, 79, 67
4, 449024, Note_off_c, 2, 74, 67
4, 449024, Note_off_c, 2, 79, 67
4, 449024, Note_on_c, 2, 70, 67
4, 449024, Note_on_c, 2, 77, 67
4, 449088, Note_off_c, 2, 70, 67
4, 449088, Note_off_c, 2, 77, 67
4, 449152, Note_off_c, 2, 70, 67
4, 449152, Note_off_c, 2, 77, 67
4, 449152, Note_on_c, 2, 68, 67
4, 449152, Note_on_c, 2, 70, 67
4, 449216, Note_off_c, 2, 68, 67
4, 449216, Note_off_c, 2, 70, 67
4, 449280, Note_off_c, 2, 68, 67
4, 449280, Note_off_c, 2, 70, 67
4, 449280, Note_on_c, 2, 68, 67
4, 449280, Note_on_c, 2, 70, 67
4, 449344, Note_off_c, 2, 68, 67
4, 449344, Note_off_c, 2, 70, 67
4, 449408, Note_off_c, 2, 68, 67
4, 449408, Note_off_c, 2, 70, 67
4, 449408, Note_on_c, 2, 74, 67
4, 449472, Note_off_c, 2, 74, 67
4, 449472, Note_on_c, 2, 75, 67
4, 449536, Note_off_c, 2, 75, 67
4, 449536, Note_on_c, 2, 77, 67
4, 449664, Note_off_c, 2, 77, 67
4, 449664, Note_on_c, 2, 74, 67
4, 449664, Note_on_c, 2, 80, 67
4, 449728, Note_off_c, 2, 74, 67
4, 449728, Note_off_c, 2, 80, 67
4, 449792, Note_off_c, 2, 74, 67
4, 449792, Note_off_c, 2, 80, 67
4, 449792, Note_on_c, 2, 74, 67
4, 449792, Note_on_c, 2, 79, 67
4, 449856, Note_off_c, 2, 74, 67
4, 449856, Note_off_c, 2, 79, 67
4, 449920, Note_off_c, 2, 74, 67
4, 449920, Note_off_c, 2, 79, 67
4, 449920, Note_on_c, 2, 77, 67
4, 449984, Note_off_c, 2, 77, 67
4, 450048, Note_off_c, 2, 77, 67
4, 450048, Note_on_c, 2, 75, 67
4, 450112, Note_off_c, 2, 75, 67
4, 450176, Note_off_c, 2, 75, 67
4, 450176, Note_on_c, 2, 70, 67
4, 450176, Note_on_c, 2, 74, 67
4, 450240, Note_off_c, 2, 70, 67
4, 450240, Note_off_c, 2, 74, 67
4, 450304, Note_off_c, 2, 70, 67
4, 450304, Note_off_c, 2, 74, 67
4, 450304, Note_on_c, 2, 72, 67
4, 450304, Note_on_c, 2, 74, 67
4, 450368, Note_off_c, 2, 72, 67
4, 450368, Note_off_c, 2, 74, 67
4, 450432, Note_off_c, 2, 72, 67
4, 450432, Note_off_c, 2, 74, 67
4, 450432, Note_on_c, 2, 70, 67
4, 450432, Note_on_c, 2, 74, 67
4, 450496, Note_off_c, 2, 70, 67
4, 450496, Note_off_c, 2, 74, 67
4, 450560, Note_off_c, 2, 70, 67
4, 450560, Note_off_c, 2, 74, 67
4, 450560, Note_on_c, 2, 80, 67
4, 450560, Note_on_c, 2, 84, 67
4, 450816, Note_off_c, 2, 80, 67
4, 450816, Note_off_c, 2, 84, 67
4, 450816, Note_on_c, 2, 70, 67
4, 450816, Note_on_c, 2, 74, 67
4, 450832, Note_off_c, 2, 70, 67
4, 450832, Note_off_c, 2, 74, 67
4, 450848, Note_off_c, 2, 70, 67
4, 450848, Note_off_c, 2, 74, 67
4, 450848, Note_on_c, 2, 72, 67
4, 450848, Note_on_c, 2, 75, 67
4, 450864, Note_off_c, 2, 72, 67
4, 450864, Note_off_c, 2, 75, 67
4, 450880, Note_off_c, 2, 72, 67
4, 450880, Note_off_c, 2, 75, 67
4, 450880, Note_on_c, 2, 70, 67
4, 450880, Note_on_c, 2, 74, 67
4, 450912, Note_off_c, 2, 70, 67
4, 450912, Note_off_c, 2, 74, 67
4, 450944, Note_off_c, 2, 70, 67
4, 450944, Note_off_c, 2, 74, 67
4, 450944, Note_on_c, 2, 68, 67
4, 450944, Note_on_c, 2, 72, 67
4, 450976, Note_off_c, 2, 68, 67
4, 450976, Note_off_c, 2, 72, 67
4, 451008, Note_off_c, 2, 68, 67
4, 451008, Note_off_c, 2, 72, 67
4, 451008, Note_on_c, 2, 74, 67
4, 451008, Note_on_c, 2, 77, 67
4, 451040, Note_off_c, 2, 74, 67
4, 451040, Note_off_c, 2, 77, 67
4, 451072, Note_off_c, 2, 74, 67
4, 451072, Note_off_c, 2, 77, 67
4, 451072, Note_on_c, 2, 75, 67
4, 451072, Note_on_c, 2, 79, 67
4, 451200, Note_off_c, 2, 75, 67
4, 451200, Note_off_c, 2, 79, 67
4, 451200, Note_on_c, 2, 70, 67
4, 451264, Note_off_c, 2, 70, 67
4, 451328, Note_off_c, 2, 70, 67
4, 451328, Note_on_c, 2, 70, 67
4, 451392, Note_off_c, 2, 70, 67
4, 451456, Note_off_c, 2, 70, 67
4, 451456, Note_on_c, 2, 75, 67
4, 451456, Note_on_c, 2, 79, 67
4, 451520, Note_off_c, 2, 75, 67
4, 451520, Note_off_c, 2, 79, 67
4, 451520, Note_on_c, 2, 77, 67
4, 451520, Note_on_c, 2, 80, 67
4, 451584, Note_off_c, 2, 77, 67
4, 451584, Note_off_c, 2, 80, 67
4, 451584, Note_on_c, 2, 79, 67
4, 451584, Note_on_c, 2, 82, 67
4, 451648, Note_off_c, 2, 79, 67
4, 451648, Note_off_c, 2, 82, 67
4, 451712, Note_off_c, 2, 79, 67
4, 451712, Note_off_c, 2, 82, 67
4, 451712, Note_on_c, 2, 79, 67
4, 451712, Note_on_c, 2, 82, 67
4, 451776, Note_off_c, 2, 79, 67
4, 451776, Note_off_c, 2, 82, 67
4, 451840, Note_off_c, 2, 79, 67
4, 451840, Note_off_c, 2, 82, 67
4, 451840, Note_on_c, 2, 70, 67
4, 451840, Note_on_c, 2, 79, 67
4, 451904, Note_off_c, 2, 70, 67
4, 451904, Note_off_c, 2, 79, 67
4, 451968, Note_off_c, 2, 70, 67
4, 451968, Note_off_c, 2, 79, 67
4, 451968, Note_on_c, 2, 70, 67
4, 451968, Note_on_c, 2, 75, 67
4, 452032, Note_off_c, 2, 70, 67
4, 452032, Note_off_c, 2, 75, 67
4, 452096, Note_off_c, 2, 70, 67
4, 452096, Note_off_c, 2, 75, 67
4, 452096, Note_on_c, 2, 84, 67
4, 452096, Note_on_c, 2, 87, 67
4, 452160, Note_off_c, 2, 84, 67
4, 452160, Note_off_c, 2, 87, 67
4, 452224, Note_off_c, 2, 84, 67
4, 452224, Note_off_c, 2, 87, 67
4, 452224, Note_on_c, 2, 82, 67
4, 452224, Note_on_c, 2, 86, 67
4, 452288, Note_off_c, 2, 82, 67
4, 452288, Note_off_c, 2, 86, 67
4, 452352, Note_off_c, 2, 82, 67
4, 452352, Note_off_c, 2, 86, 67
4, 452352, Note_on_c, 2, 80, 67
4, 452352, Note_on_c, 2, 84, 67
4, 452416, Note_off_c, 2, 80, 67
4, 452416, Note_off_c, 2, 84, 67
4, 452480, Note_off_c, 2, 80, 67
4, 452480, Note_off_c, 2, 84, 67
4, 452480, Note_on_c, 2, 79, 67
4, 452480, Note_on_c, 2, 87, 67
4, 452544, Note_off_c, 2, 79, 67
4, 452544, Note_off_c, 2, 87, 67
4, 452608, Note_off_c, 2, 79, 67
4, 452608, Note_off_c, 2, 87, 67
4, 452608, Note_on_c, 2, 75, 67
4, 452608, Note_on_c, 2, 82, 67
4, 452672, Note_off_c, 2, 75, 67
4, 452672, Note_off_c, 2, 82, 67
4, 452736, Note_off_c, 2, 75, 67
4, 452736, Note_off_c, 2, 82, 67
4, 452736, Note_on_c, 2, 79, 67
4, 452800, Note_off_c, 2, 79, 67
4, 452864, Note_off_c, 2, 79, 67
4, 452864, Note_on_c, 2, 67, 67
4, 452864, Note_on_c, 2, 75, 67
4, 452928, Note_off_c, 2, 67, 67
4, 452928, Note_off_c, 2, 75, 67
4, 452992, Note_off_c, 2, 67, 67
4, 452992, Note_off_c, 2, 75, 67
4, 452992, Note_on_c, 2, 68, 67
4, 452992, Note_on_c, 2, 74, 67
4, 453024, Note_off_c, 2, 68, 67
4, 453024, Note_off_c, 2, 74, 67
4, 453056, Note_off_c, 2, 68, 67
4, 453056, Note_off_c, 2, 74, 67
4, 453056, Note_on_c, 2, 74, 67
4, 453056, Note_on_c, 2, 79, 67
4, 453088, Note_off_c, 2, 74, 67
4, 453088, Note_off_c, 2, 79, 67
4, 453120, Note_off_c, 2, 74, 67
4, 453120, Note_off_c, 2, 79, 67
4, 453120, Note_on_c, 2, 70, 67
4, 453120, Note_on_c, 2, 77, 67
4, 453184, Note_off_c, 2, 70, 67
4, 453184, Note_off_c, 2, 77, 67
4, 453248, Note_off_c, 2, 70, 67
4, 453248, Note_off_c, 2, 77, 67
4, 453248, Note_on_c, 2, 65, 67
4, 453248, Note_on_c, 2, 70, 67
4, 453312, Note_off_c, 2, 65, 67
4, 453312, Note_off_c, 2, 70, 67
4, 453376, Note_off_c, 2, 65, 67
4, 453376, Note_off_c, 2, 70, 67
4, 453376, Note_on_c, 2, 68, 67
4, 453376, Note_on_c, 2, 70, 67
4, 453440, Note_off_c, 2, 68, 67
4, 453440, Note_off_c, 2, 70, 67
4, 453504, Note_off_c, 2, 68, 67
4, 453504, Note_off_c, 2, 70, 67
4, 453504, Note_on_c, 2, 70, 67
4, 453504, Note_on_c, 2, 79, 67
4, 453568, Note_off_c, 2, 70, 67
4, 453568, Note_off_c, 2, 79, 67
4, 453568, Note_on_c, 2, 77, 67
4, 453568, Note_on_c, 2, 80, 67
4, 453632, Note_off_c, 2, 77, 67
4, 453632, Note_off_c, 2, 80, 67
4, 453632, Note_on_c, 2, 79, 67
4, 453632, Note_on_c, 2, 82, 67
4, 453696, Note_off_c, 2, 79, 67
4, 453696, Note_off_c, 2, 82, 67
4, 453760, Note_off_c, 2, 79, 67
4, 453760, Note_off_c, 2, 82, 67
4, 453760, Note_on_c, 2, 79, 67
4, 453760, Note_on_c, 2, 82, 67
4, 453824, Note_off_c, 2, 79, 67
4, 453824, Note_off_c, 2, 82, 67
4, 453888, Note_off_c, 2, 79, 67
4, 453888, Note_off_c, 2, 82, 67
4, 453888, Note_on_c, 2, 70, 67
4, 453888, Note_on_c, 2, 79, 67
4, 453952, Note_off_c, 2, 70, 67
4, 453952, Note_off_c, 2, 79, 67
4, 454016, Note_off_c, 2, 70, 67
4, 454016, Note_off_c, 2, 79, 67
4, 454016, Note_on_c, 2, 75, 67
4, 454016, Note_on_c, 2, 82, 67
4, 454080, Note_off_c, 2, 75, 67
4, 454080, Note_off_c, 2, 82, 67
4, 454144, Note_off_c, 2, 75, 67
4, 454144, Note_off_c, 2, 82, 67
4, 454144, Note_on_c, 2, 84, 67
4, 454144, Note_on_c, 2, 87, 67
4, 454208, Note_off_c, 2, 84, 67
4, 454208, Note_off_c, 2, 87, 67
4, 454272, Note_off_c, 2, 84, 67
4, 454272, Note_off_c, 2, 87, 67
4, 454272, Note_on_c, 2, 82, 67
4, 454272, Note_on_c, 2, 86, 67
4, 454336, Note_off_c, 2, 82, 67
4, 454336, Note_off_c, 2, 86, 67
4, 454400, Note_off_c, 2, 82, 67
4, 454400, Note_off_c, 2, 86, 67
4, 454400, Note_on_c, 2, 80, 67
4, 454400, Note_on_c, 2, 84, 67
4, 454464, Note_off_c, 2, 80, 67
4, 454464, Note_off_c, 2, 84, 67
4, 454528, Note_off_c, 2, 80, 67
4, 454528, Note_off_c, 2, 84, 67
4, 454528, Note_on_c, 2, 70, 67
4, 454528, Note_on_c, 2, 74, 67
4, 454560, Note_off_c, 2, 70, 67
4, 454560, Note_off_c, 2, 74, 67
4, 454592, Note_off_c, 2, 70, 67
4, 454592, Note_off_c, 2, 74, 67
4, 454592, Note_on_c, 2, 77, 67
4, 454592, Note_on_c, 2, 80, 67
4, 454624, Note_off_c, 2, 77, 67
4, 454624, Note_off_c, 2, 80, 67
4, 454656, Note_off_c, 2, 77, 67
4, 454656, Note_off_c, 2, 80, 67
4, 454656, Note_on_c, 2, 77, 67
4, 454656, Note_on_c, 2, 82, 67
4, 454720, Note_off_c, 2, 77, 67
4, 454720, Note_off_c, 2, 82, 67
4, 454784, Note_off_c, 2, 77, 67
4, 454784, Note_off_c, 2, 82, 67
4, 454784, Note_on_c, 2, 80, 67
4, 454784, Note_on_c, 2, 87, 67
4, 454848, Note_off_c, 2, 80, 67
4, 454848, Note_off_c, 2, 87, 67
4, 454912, Note_off_c, 2, 80, 67
4, 454912, Note_off_c, 2, 87, 67
4, 454912, Note_on_c, 2, 82, 67
4, 454912, Note_on_c, 2, 86, 67
4, 454976, Note_off_c, 2, 82, 67
4, 454976, Note_off_c, 2, 86, 67
4, 455040, Note_off_c, 2, 82, 67
4, 455040, Note_off_c, 2, 86, 67
4, 455040, Note_on_c, 2, 80, 67
4, 455040, Note_on_c, 2, 89, 67
4, 455104, Note_off_c, 2, 80, 67
4, 455104, Note_off_c, 2, 89, 67
4, 455168, Note_off_c, 2, 80, 67
4, 455168, Note_off_c, 2, 89, 67
4, 455168, Note_on_c, 2, 79, 67
4, 455168, Note_on_c, 2, 87, 67
4, 455232, Note_off_c, 2, 79, 67
4, 455232, Note_off_c, 2, 87, 67
4, 455296, Note_off_c, 2, 79, 67
4, 455296, Note_off_c, 2, 87, 67
4, 455296, Note_on_c, 2, 70, 67
4, 455296, Note_on_c, 2, 82, 67
4, 455360, Note_off_c, 2, 70, 67
4, 455360, Note_off_c, 2, 82, 67
4, 455424, Note_off_c, 2, 70, 67
4, 455424, Note_off_c, 2, 82, 67
4, 455424, Note_on_c, 2, 70, 67
4, 455424, Note_on_c, 2, 82, 67
4, 455488, Note_off_c, 2, 70, 67
4, 455488, Note_off_c, 2, 82, 67
4, 455552, Note_off_c, 2, 70, 67
4, 455552, Note_off_c, 2, 82, 67
4, 455552, Note_on_c, 2, 75, 67
4, 455616, Note_off_c, 2, 75, 67
4, 455616, Note_on_c, 2, 77, 67
4, 455680, Note_off_c, 2, 77, 67
4, 455680, Note_on_c, 2, 79, 67
4, 455744, Note_off_c, 2, 79, 67
4, 455808, Note_off_c, 2, 79, 67
4, 455808, Note_on_c, 2, 75, 67
4, 455808, Note_on_c, 2, 79, 67
4, 455872, Note_off_c, 2, 75, 67
4, 455872, Note_off_c, 2, 79, 67
4, 455936, Note_off_c, 2, 75, 67
4, 455936, Note_off_c, 2, 79, 67
4, 455936, Note_on_c, 2, 75, 67
4, 455936, Note_on_c, 2, 79, 67
4, 456000, Note_off_c, 2, 75, 67
4, 456000, Note_off_c, 2, 79, 67
4, 456064, Note_off_c, 2, 75, 67
4, 456064, Note_off_c, 2, 79, 67
4, 456064, Note_on_c, 2, 75, 67
4, 456128, Note_off_c, 2, 75, 67
4, 456128, Note_on_c, 2, 77, 67
4, 456192, Note_off_c, 2, 77, 67
4, 456192, Note_on_c, 2, 79, 67
4, 456256, Note_off_c, 2, 79, 67
4, 456320, Note_off_c, 2, 79, 67
4, 456320, Note_on_c, 2, 75, 67
4, 456320, Note_on_c, 2, 79, 67
4, 456384, Note_off_c, 2, 75, 67
4, 456384, Note_off_c, 2, 79, 67
4, 456448, Note_off_c, 2, 75, 67
4, 456448, Note_off_c, 2, 79, 67
4, 456448, Note_on_c, 2, 75, 67
4, 456448, Note_on_c, 2, 79, 67
4, 456512, Note_off_c, 2, 75, 67
4, 456512, Note_off_c, 2, 79, 67
4, 456576, Note_off_c, 2, 75, 67
4, 456576, Note_off_c, 2, 79, 67
4, 456576, Note_on_c, 2, 75, 67
4, 456640, Note_off_c, 2, 75, 67
4, 456640, Note_on_c, 2, 77, 67
4, 456704, Note_off_c, 2, 77, 67
4, 456704, Note_on_c, 2, 79, 67
4, 456768, Note_off_c, 2, 79, 67
4, 456832, Note_off_c, 2, 79, 67
4, 456832, Note_on_c, 2, 75, 67
4, 456832, Note_on_c, 2, 79, 67
4, 456896, Note_off_c, 2, 75, 67
4, 456896, Note_off_c, 2, 79, 67
4, 456960, Note_off_c, 2, 75, 67
4, 456960, Note_off_c, 2, 79, 67
4, 456960, Note_on_c, 2, 75, 67
4, 456960, Note_on_c, 2, 80, 67
4, 456992, Note_off_c, 2, 75, 67
4, 456992, Note_off_c, 2, 80, 67
4, 457024, Note_off_c, 2, 75, 67
4, 457024, Note_off_c, 2, 80, 67
4, 457024, Note_on_c, 2, 74, 67
4, 457056, Note_off_c, 2, 74, 67
4, 457088, Note_off_c, 2, 74, 67
4, 457088, Note_on_c, 2, 72, 67
4, 457120, Note_off_c, 2, 72, 67
4, 457152, Note_off_c, 2, 72, 67
4, 457152, Note_on_c, 2, 74, 67
4, 457152, Note_on_c, 2, 79, 67
4, 457184, Note_off_c, 2, 74, 67
4, 457184, Note_off_c, 2, 79, 67
4, 457216, Note_off_c, 2, 74, 67
4, 457216, Note_off_c, 2, 79, 67
4, 457216, Note_on_c, 2, 70, 67
4, 457216, Note_on_c, 2, 77, 67
4, 457280, Note_off_c, 2, 70, 67
4, 457280, Note_off_c, 2, 77, 67
4, 457344, Note_off_c, 2, 70, 67
4, 457344, Note_off_c, 2, 77, 67
4, 457344, Note_on_c, 2, 68, 67
4, 457344, Note_on_c, 2, 70, 67
4, 457408, Note_off_c, 2, 68, 67
4, 457408, Note_off_c, 2, 70, 67
4, 457472, Note_off_c, 2, 68, 67
4, 457472, Note_off_c, 2, 70, 67
4, 457472, Note_on_c, 2, 68, 67
4, 457472, Note_on_c, 2, 70, 67
4, 457536, Note_off_c, 2, 68, 67
4, 457536, Note_off_c, 2, 70, 67
4, 457600, Note_off_c, 2, 68, 67
4, 457600, Note_off_c, 2, 70, 67
4, 457600, Note_on_c, 2, 74, 67
4, 457664, Note_off_c, 2, 74, 67
4, 457664, Note_on_c, 2, 75, 67
4, 457728, Note_off_c, 2, 75, 67
4, 457728, Note_on_c, 2, 77, 67
4, 457792, Note_off_c, 2, 77, 67
4, 457856, Note_off_c, 2, 77, 67
4, 457856, Note_on_c, 2, 74, 67
4, 457856, Note_on_c, 2, 77, 67
4, 457920, Note_off_c, 2, 74, 67
4, 457920, Note_off_c, 2, 77, 67
4, 457984, Note_off_c, 2, 74, 67
4, 457984, Note_off_c, 2, 77, 67
4, 457984, Note_on_c, 2, 74, 67
4, 457984, Note_on_c, 2, 77, 67
4, 458048, Note_off_c, 2, 74, 67
4, 458048, Note_off_c, 2, 77, 67
4, 458112, Note_off_c, 2, 74, 67
4, 458112, Note_off_c, 2, 77, 67
4, 458112, Note_on_c, 2, 74, 67
4, 458176, Note_off_c, 2, 74, 67
4, 458176, Note_on_c, 2, 75, 67
4, 458240, Note_off_c, 2, 75, 67
4, 458240, Note_on_c, 2, 77, 67
4, 458304, Note_off_c, 2, 77, 67
4, 458368, Note_off_c, 2, 77, 67
4, 458368, Note_on_c, 2, 74, 67
4, 458368, Note_on_c, 2, 77, 67
4, 458432, Note_off_c, 2, 74, 67
4, 458432, Note_off_c, 2, 77, 67
4, 458496, Note_off_c, 2, 74, 67
4, 458496, Note_off_c, 2, 77, 67
4, 458496, Note_on_c, 2, 74, 67
4, 458496, Note_on_c, 2, 77, 67
4, 458560, Note_off_c, 2, 74, 67
4, 458560, Note_off_c, 2, 77, 67
4, 458624, Note_off_c, 2, 74, 67
4, 458624, Note_off_c, 2, 77, 67
4, 458624, Note_on_c, 2, 74, 67
4, 458688, Note_off_c, 2, 74, 67
4, 458688, Note_on_c, 2, 75, 67
4, 458752, Note_off_c, 2, 75, 67
4, 458752, Note_on_c, 2, 70, 67
4, 458752, Note_on_c, 2, 77, 67
4, 458816, Note_off_c, 2, 70, 67
4, 458816, Note_off_c, 2, 77, 67
4, 458880, Note_off_c, 2, 70, 67
4, 458880, Note_off_c, 2, 77, 67
4, 458880, Note_on_c, 2, 74, 67
4, 458880, Note_on_c, 2, 77, 67
4, 458944, Note_off_c, 2, 74, 67
4, 458944, Note_off_c, 2, 77, 67
4, 459008, Note_off_c, 2, 74, 67
4, 459008, Note_off_c, 2, 77, 67
4, 459008, Note_on_c, 2, 74, 67
4, 459008, Note_on_c, 2, 79, 67
4, 459040, Note_off_c, 2, 74, 67
4, 459040, Note_off_c, 2, 79, 67
4, 459072, Note_off_c, 2, 74, 67
4, 459072, Note_off_c, 2, 79, 67
4, 459072, Note_on_c, 2, 72, 67
4, 459072, Note_on_c, 2, 77, 67
4, 459104, Note_off_c, 2, 72, 67
4, 459104, Note_off_c, 2, 77, 67
4, 459136, Note_off_c, 2, 72, 67
4, 459136, Note_off_c, 2, 77, 67
4, 459136, Note_on_c, 2, 70, 67
4, 459136, Note_on_c, 2, 77, 67
4, 459168, Note_off_c, 2, 70, 67
4, 459168, Note_off_c, 2, 77, 67
4, 459200, Note_off_c, 2, 70, 67
4, 459200, Note_off_c, 2, 77, 67
4, 459200, Note_on_c, 2, 68, 67
4, 459200, Note_on_c, 2, 79, 67
4, 459232, Note_off_c, 2, 68, 67
4, 459232, Note_off_c, 2, 79, 67
4, 459264, Note_off_c, 2, 68, 67
4, 459264, Note_off_c, 2, 79, 67
4, 459264, Note_on_c, 2, 67, 67
4, 459264, Note_on_c, 2, 75, 67
4, 459328, Note_off_c, 2, 67, 67
4, 459328, Note_off_c, 2, 75, 67
4, 459392, Note_off_c, 2, 67, 67
4, 459392, Note_off_c, 2, 75, 67
4, 459392, Note_on_c, 2, 70, 67
4, 459456, Note_off_c, 2, 70, 67
4, 459520, Note_off_c, 2, 70, 67
4, 459520, Note_on_c, 2, 70, 67
4, 459520, Note_on_c, 2, 79, 67
4, 459584, Note_off_c, 2, 70, 67
4, 459584, Note_off_c, 2, 79, 67
4, 459648, Note_off_c, 2, 70, 67
4, 459648, Note_off_c, 2, 79, 67
4, 459648, Note_on_c, 2, 75, 67
4, 459712, Note_off_c, 2, 75, 67
4, 459712, Note_on_c, 2, 77, 67
4, 459776, Note_off_c, 2, 77, 67
4, 459776, Note_on_c, 2, 79, 67
4, 459840, Note_off_c, 2, 79, 67
4, 459904, Note_off_c, 2, 79, 67
4, 459904, Note_on_c, 2, 75, 67
4, 459904, Note_on_c, 2, 79, 67
4, 459968, Note_off_c, 2, 75, 67
4, 459968, Note_off_c, 2, 79, 67
4, 460032, Note_off_c, 2, 75, 67
4, 460032, Note_off_c, 2, 79, 67
4, 460032, Note_on_c, 2, 75, 67
4, 460032, Note_on_c, 2, 79, 67
4, 460096, Note_off_c, 2, 75, 67
4, 460096, Note_off_c, 2, 79, 67
4, 460160, Note_off_c, 2, 75, 67
4, 460160, Note_off_c, 2, 79, 67
4, 460160, Note_on_c, 2, 75, 67
4, 460224, Note_off_c, 2, 75, 67
4, 460224, Note_on_c, 2, 77, 67
4, 460288, Note_off_c, 2, 77, 67
4, 460288, Note_on_c, 2, 79, 67
4, 460352, Note_off_c, 2, 79, 67
4, 460416, Note_off_c, 2, 79, 67
4, 460416, Note_on_c, 2, 75, 67
4, 460416, Note_on_c, 2, 79, 67
4, 460480, Note_off_c, 2, 75, 67
4, 460480, Note_off_c, 2, 79, 67
4, 460544, Note_off_c, 2, 75, 67
4, 460544, Note_off_c, 2, 79, 67
4, 460544, Note_on_c, 2, 75, 67
4, 460544, Note_on_c, 2, 79, 67
4, 460608, Note_off_c, 2, 75, 67
4, 460608, Note_off_c, 2, 79, 67
4, 460672, Note_off_c, 2, 75, 67
4, 460672, Note_off_c, 2, 79, 67
4, 460672, Note_on_c, 2, 75, 67
4, 460736, Note_off_c, 2, 75, 67
4, 460736, Note_on_c, 2, 77, 67
4, 460800, Note_off_c, 2, 77, 67
4, 460800, Note_on_c, 2, 79, 67
4, 460864, Note_off_c, 2, 79, 67
4, 460928, Note_off_c, 2, 79, 67
4, 460928, Note_on_c, 2, 75, 67
4, 460928, Note_on_c, 2, 79, 67
4, 460992, Note_off_c, 2, 75, 67
4, 460992, Note_off_c, 2, 79, 67
4, 461056, Note_off_c, 2, 75, 67
4, 461056, Note_off_c, 2, 79, 67
4, 461056, Note_on_c, 2, 75, 67
4, 461056, Note_on_c, 2, 80, 67
4, 461088, Note_off_c, 2, 75, 67
4, 461088, Note_off_c, 2, 80, 67
4, 461120, Note_off_c, 2, 75, 67
4, 461120, Note_off_c, 2, 80, 67
4, 461120, Note_on_c, 2, 74, 67
4, 461184, Note_off_c, 2, 74, 67
4, 461184, Note_on_c, 2, 72, 67
4, 461248, Note_off_c, 2, 72, 67
4, 461248, Note_on_c, 2, 74, 67
4, 461248, Note_on_c, 2, 79, 67
4, 461280, Note_off_c, 2, 74, 67
4, 461280, Note_off_c, 2, 79, 67
4, 461312, Note_off_c, 2, 74, 67
4, 461312, Note_off_c, 2, 79, 67
4, 461312, Note_on_c, 2, 70, 67
4, 461312, Note_on_c, 2, 77, 67
4, 461376, Note_off_c, 2, 70, 67
4, 461376, Note_off_c, 2, 77, 67
4, 461440, Note_off_c, 2, 70, 67
4, 461440, Note_off_c, 2, 77, 67
4, 461440, Note_on_c, 2, 68, 67
4, 461440, Note_on_c, 2, 70, 67
4, 461504, Note_off_c, 2, 68, 67
4, 461504, Note_off_c, 2, 70, 67
4, 461568, Note_off_c, 2, 68, 67
4, 461568, Note_off_c, 2, 70, 67
4, 461568, Note_on_c, 2, 68, 67
4, 461568, Note_on_c, 2, 70, 67
4, 461632, Note_off_c, 2, 68, 67
4, 461632, Note_off_c, 2, 70, 67
4, 461696, Note_off_c, 2, 68, 67
4, 461696, Note_off_c, 2, 70, 67
4, 461696, Note_on_c, 2, 74, 67
4, 461760, Note_off_c, 2, 74, 67
4, 461760, Note_on_c, 2, 75, 67
4, 461824, Note_off_c, 2, 75, 67
4, 461824, Note_on_c, 2, 77, 67
4, 461952, Note_off_c, 2, 77, 67
4, 461952, Note_on_c, 2, 74, 67
4, 461952, Note_on_c, 2, 80, 67
4, 462016, Note_off_c, 2, 74, 67
4, 462016, Note_off_c, 2, 80, 67
4, 462080, Note_off_c, 2, 74, 67
4, 462080, Note_off_c, 2, 80, 67
4, 462080, Note_on_c, 2, 74, 67
4, 462080, Note_on_c, 2, 79, 67
4, 462144, Note_off_c, 2, 74, 67
4, 462144, Note_off_c, 2, 79, 67
4, 462208, Note_off_c, 2, 74, 67
4, 462208, Note_off_c, 2, 79, 67
4, 462208, Note_on_c, 2, 77, 67
4, 462272, Note_off_c, 2, 77, 67
4, 462336, Note_off_c, 2, 77, 67
4, 462336, Note_on_c, 2, 75, 67
4, 462400, Note_off_c, 2, 75, 67
4, 462464, Note_off_c, 2, 75, 67
4, 462464, Note_on_c, 2, 70, 67
4, 462464, Note_on_c, 2, 74, 67
4, 462528, Note_off_c, 2, 70, 67
4, 462528, Note_off_c, 2, 74, 67
4, 462592, Note_off_c, 2, 70, 67
4, 462592, Note_off_c, 2, 74, 67
4, 462592, Note_on_c, 2, 72, 67
4, 462592, Note_on_c, 2, 74, 67
4, 462656, Note_off_c, 2, 72, 67
4, 462656, Note_off_c, 2, 74, 67
4, 462720, Note_off_c, 2, 72, 67
4, 462720, Note_off_c, 2, 74, 67
4, 462720, Note_on_c, 2, 70, 67
4, 462720, Note_on_c, 2, 74, 67
4, 462784, Note_off_c, 2, 70, 67
4, 462784, Note_off_c, 2, 74, 67
4, 462848, Note_off_c, 2, 70, 67
4, 462848, Note_off_c, 2, 74, 67
4, 462848, Note_on_c, 2, 80, 67
4, 462848, Note_on_c, 2, 84, 67
4, 463104, Note_off_c, 2, 80, 67
4, 463104, Note_off_c, 2, 84, 67
4, 463104, Note_on_c, 2, 70, 67
4, 463104, Note_on_c, 2, 74, 67
4, 463120, Note_off_c, 2, 70, 67
4, 463120, Note_off_c, 2, 74, 67
4, 463136, Note_off_c, 2, 70, 67
4, 463136, Note_off_c, 2, 74, 67
4, 463136, Note_on_c, 2, 72, 67
4, 463136, Note_on_c, 2, 75, 67
4, 463152, Note_off_c, 2, 72, 67
4, 463152, Note_off_c, 2, 75, 67
4, 463168, Note_off_c, 2, 72, 67
4, 463168, Note_off_c, 2, 75, 67
4, 463168, Note_on_c, 2, 70, 67
4, 463168, Note_on_c, 2, 74, 67
4, 463200, Note_off_c, 2, 70, 67
4, 463200, Note_off_c, 2, 74, 67
4, 463232, Note_off_c, 2, 70, 67
4, 463232, Note_off_c, 2, 74, 67
4, 463232, Note_on_c, 2, 68, 67
4, 463232, Note_on_c, 2, 72, 67
4, 463264, Note_off_c, 2, 68, 67
4, 463264, Note_off_c, 2, 72, 67
4, 463296, Note_off_c, 2, 68, 67
4, 463296, Note_off_c, 2, 72, 67
4, 463296, Note_on_c, 2, 74, 67
4, 463296, Note_on_c, 2, 77, 67
4, 463328, Note_off_c, 2, 74, 67
4, 463328, Note_off_c, 2, 77, 67
4, 463360, Note_off_c, 2, 74, 67
4, 463360, Note_off_c, 2, 77, 67
4, 463360, Note_on_c, 2, 75, 67
4, 463360, Note_on_c, 2, 79, 67
4, 463488, Note_off_c, 2, 75, 67
4, 463488, Note_off_c, 2, 79, 67
4, 463488, Note_on_c, 2, 70, 67
4, 463552, Note_off_c, 2, 70, 67
4, 463616, Note_off_c, 2, 70, 67
4, 463616, Note_on_c, 2, 70, 67
4, 463680, Note_off_c, 2, 70, 67
4, 463744, Note_off_c, 2, 70, 67
4, 463744, Note_on_c, 2, 75, 67
4, 463744, Note_on_c, 2, 79, 67
4, 463808, Note_off_c, 2, 75, 67
4, 463808, Note_off_c, 2, 79, 67
4, 463808, Note_on_c, 2, 77, 67
4, 463808, Note_on_c, 2, 80, 67
4, 463872, Note_off_c, 2, 77, 67
4, 463872, Note_off_c, 2, 80, 67
4, 463872, Note_on_c, 2, 79, 67
4, 463872, Note_on_c, 2, 82, 67
4, 463936, Note_off_c, 2, 79, 67
4, 463936, Note_off_c, 2, 82, 67
4, 464000, Note_off_c, 2, 79, 67
4, 464000, Note_off_c, 2, 82, 67
4, 464000, Note_on_c, 2, 79, 67
4, 464000, Note_on_c, 2, 82, 67
4, 464064, Note_off_c, 2, 79, 67
4, 464064, Note_off_c, 2, 82, 67
4, 464128, Note_off_c, 2, 79, 67
4, 464128, Note_off_c, 2, 82, 67
4, 464128, Note_on_c, 2, 70, 67
4, 464128, Note_on_c, 2, 79, 67
4, 464192, Note_off_c, 2, 70, 67
4, 464192, Note_off_c, 2, 79, 67
4, 464256, Note_off_c, 2, 70, 67
4, 464256, Note_off_c, 2, 79, 67
4, 464256, Note_on_c, 2, 70, 67
4, 464256, Note_on_c, 2, 75, 67
4, 464320, Note_off_c, 2, 70, 67
4, 464320, Note_off_c, 2, 75, 67
4, 464384, Note_off_c, 2, 70, 67
4, 464384, Note_off_c, 2, 75, 67
4, 464384, Note_on_c, 2, 84, 67
4, 464384, Note_on_c, 2, 87, 67
4, 464448, Note_off_c, 2, 84, 67
4, 464448, Note_off_c, 2, 87, 67
4, 464512, Note_off_c, 2, 84, 67
4, 464512, Note_off_c, 2, 87, 67
4, 464512, Note_on_c, 2, 82, 67
4, 464512, Note_on_c, 2, 86, 67
4, 464576, Note_off_c, 2, 82, 67
4, 464576, Note_off_c, 2, 86, 67
4, 464640, Note_off_c, 2, 82, 67
4, 464640, Note_off_c, 2, 86, 67
4, 464640, Note_on_c, 2, 80, 67
4, 464640, Note_on_c, 2, 84, 67
4, 464704, Note_off_c, 2, 80, 67
4, 464704, Note_off_c, 2, 84, 67
4, 464768, Note_off_c, 2, 80, 67
4, 464768, Note_off_c, 2, 84, 67
4, 464768, Note_on_c, 2, 79, 67
4, 464768, Note_on_c, 2, 87, 67
4, 464832, Note_off_c, 2, 79, 67
4, 464832, Note_off_c, 2, 87, 67
4, 464896, Note_off_c, 2, 79, 67
4, 464896, Note_off_c, 2, 87, 67
4, 464896, Note_on_c, 2, 75, 67
4, 464896, Note_on_c, 2, 82, 67
4, 464960, Note_off_c, 2, 75, 67
4, 464960, Note_off_c, 2, 82, 67
4, 465024, Note_off_c, 2, 75, 67
4, 465024, Note_off_c, 2, 82, 67
4, 465024, Note_on_c, 2, 79, 67
4, 465088, Note_off_c, 2, 79, 67
4, 465152, Note_off_c, 2, 79, 67
4, 465152, Note_on_c, 2, 67, 67
4, 465152, Note_on_c, 2, 75, 67
4, 465216, Note_off_c, 2, 67, 67
4, 465216, Note_off_c, 2, 75, 67
4, 465280, Note_off_c, 2, 67, 67
4, 465280, Note_off_c, 2, 75, 67
4, 465280, Note_on_c, 2, 68, 67
4, 465280, Note_on_c, 2, 74, 67
4, 465312, Note_off_c, 2, 68, 67
4, 465312, Note_off_c, 2, 74, 67
4, 465344, Note_off_c, 2, 68, 67
4, 465344, Note_off_c, 2, 74, 67
4, 465344, Note_on_c, 2, 74, 67
4, 465344, Note_on_c, 2, 79, 67
4, 465376, Note_off_c, 2, 74, 67
4, 465376, Note_off_c, 2, 79, 67
4, 465408, Note_off_c, 2, 74, 67
4, 465408, Note_off_c, 2, 79, 67
4, 465408, Note_on_c, 2, 70, 67
4, 465408, Note_on_c, 2, 77, 67
4, 465472, Note_off_c, 2, 70, 67
4, 465472, Note_off_c, 2, 77, 67
4, 465536, Note_off_c, 2, 70, 67
4, 465536, Note_off_c, 2, 77, 67
4, 465536, Note_on_c, 2, 65, 67
4, 465536, Note_on_c, 2, 70, 67
4, 465600, Note_off_c, 2, 65, 67
4, 465600, Note_off_c, 2, 70, 67
4, 465664, Note_off_c, 2, 65, 67
4, 465664, Note_off_c, 2, 70, 67
4, 465664, Note_on_c, 2, 68, 67
4, 465664, Note_on_c, 2, 70, 67
4, 465728, Note_off_c, 2, 68, 67
4, 465728, Note_off_c, 2, 70, 67
4, 465792, Note_off_c, 2, 68, 67
4, 465792, Note_off_c, 2, 70, 67
4, 465792, Note_on_c, 2, 70, 67
4, 465792, Note_on_c, 2, 79, 67
4, 465856, Note_off_c, 2, 70, 67
4, 465856, Note_off_c, 2, 79, 67
4, 465856, Note_on_c, 2, 77, 67
4, 465856, Note_on_c, 2, 80, 67
4, 465920, Note_off_c, 2, 77, 67
4, 465920, Note_off_c, 2, 80, 67
4, 465920, Note_on_c, 2, 79, 67
4, 465920, Note_on_c, 2, 82, 67
4, 465984, Note_off_c, 2, 79, 67
4, 465984, Note_off_c, 2, 82, 67
4, 466048, Note_off_c, 2, 79, 67
4, 466048, Note_off_c, 2, 82, 67
4, 466048, Note_on_c, 2, 79, 67
4, 466048, Note_on_c, 2, 82, 67
4, 466112, Note_off_c, 2, 79, 67
4, 466112, Note_off_c, 2, 82, 67
4, 466176, Note_off_c, 2, 79, 67
4, 466176, Note_off_c, 2, 82, 67
4, 466176, Note_on_c, 2, 70, 67
4, 466176, Note_on_c, 2, 79, 67
4, 466240, Note_off_c, 2, 70, 67
4, 466240, Note_off_c, 2, 79, 67
4, 466304, Note_off_c, 2, 70, 67
4, 466304, Note_off_c, 2, 79, 67
4, 466304, Note_on_c, 2, 75, 67
4, 466304, Note_on_c, 2, 82, 67
4, 466368, Note_off_c, 2, 75, 67
4, 466368, Note_off_c, 2, 82, 67
4, 466432, Note_off_c, 2, 75, 67
4, 466432, Note_off_c, 2, 82, 67
4, 466432, Note_on_c, 2, 84, 67
4, 466432, Note_on_c, 2, 87, 67
4, 466496, Note_off_c, 2, 84, 67
4, 466496, Note_off_c, 2, 87, 67
4, 466560, Note_off_c, 2, 84, 67
4, 466560, Note_off_c, 2, 87, 67
4, 466560, Note_on_c, 2, 82, 67
4, 466560, Note_on_c, 2, 86, 67
4, 466624, Note_off_c, 2, 82, 67
4, 466624, Note_off_c, 2, 86, 67
4, 466688, Note_off_c, 2, 82, 67
4, 466688, Note_off_c, 2, 86, 67
4, 466688, Note_on_c, 2, 80, 67
4, 466688, Note_on_c, 2, 84, 67
4, 466752, Note_off_c, 2, 80, 67
4, 466752, Note_off_c, 2, 84, 67
4, 466816, Note_off_c, 2, 80, 67
4, 466816, Note_off_c, 2, 84, 67
4, 466816, Note_on_c, 2, 70, 67
4, 466816, Note_on_c, 2, 74, 67
4, 466848, Note_off_c, 2, 70, 67
4, 466848, Note_off_c, 2, 74, 67
4, 466880, Note_off_c, 2, 70, 67
4, 466880, Note_off_c, 2, 74, 67
4, 466880, Note_on_c, 2, 77, 67
4, 466880, Note_on_c, 2, 80, 67
4, 466912, Note_off_c, 2, 77, 67
4, 466912, Note_off_c, 2, 80, 67
4, 466944, Note_off_c, 2, 77, 67
4, 466944, Note_off_c, 2, 80, 67
4, 466944, Note_on_c, 2, 77, 67
4, 466944, Note_on_c, 2, 82, 67
4, 467008, Note_off_c, 2, 77, 67
4, 467008, Note_off_c, 2, 82, 67
4, 467072, Note_off_c, 2, 77, 67
4, 467072, Note_off_c, 2, 82, 67
4, 467072, Note_on_c, 2, 80, 67
4, 467072, Note_on_c, 2, 87, 67
4, 467136, Note_off_c, 2, 80, 67
4, 467136, Note_off_c, 2, 87, 67
4, 467200, Note_off_c, 2, 80, 67
4, 467200, Note_off_c, 2, 87, 67
4, 467200, Note_on_c, 2, 82, 67
4, 467200, Note_on_c, 2, 86, 67
4, 467264, Note_off_c, 2, 82, 67
4, 467264, Note_off_c, 2, 86, 67
4, 467328, Note_off_c, 2, 82, 67
4, 467328, Note_off_c, 2, 86, 67
4, 467328, Note_on_c, 2, 80, 67
4, 467328, Note_on_c, 2, 89, 67
4, 467392, Note_off_c, 2, 80, 67
4, 467392, Note_off_c, 2, 89, 67
4, 467456, Note_off_c, 2, 80, 67
4, 467456, Note_off_c, 2, 89, 67
4, 467456, Note_on_c, 2, 79, 67
4, 467456, Note_on_c, 2, 87, 67
4, 467520, Note_off_c, 2, 79, 67
4, 467520, Note_off_c, 2, 87, 67
4, 467584, Note_off_c, 2, 79, 67
4, 467584, Note_off_c, 2, 87, 67
4, 467584, Note_on_c, 2, 70, 67
4, 467584, Note_on_c, 2, 82, 67
4, 467648, Note_off_c, 2, 70, 67
4, 467648, Note_off_c, 2, 82, 67
4, 467712, Note_off_c, 2, 70, 67
4, 467712, Note_off_c, 2, 82, 67
4, 467712, Note_on_c, 2, 70, 67
4, 467712, Note_on_c, 2, 82, 67
4, 467776, Note_off_c, 2, 70, 67
4, 467776, Note_off_c, 2, 82, 67
4, 467840, Note_off_c, 2, 70, 67
4, 467840, Note_off_c, 2, 82, 67
4, 467840, Note_on_c, 2, 75, 67
4, 467904, Note_off_c, 2, 75, 67
4, 467904, Note_on_c, 2, 77, 67
4, 467968, Note_off_c, 2, 77, 67
4, 467968, Note_on_c, 2, 79, 67
4, 468032, Note_off_c, 2, 79, 67
4, 468096, Note_off_c, 2, 79, 67
4, 468096, Note_on_c, 2, 75, 67
4, 468096, Note_on_c, 2, 79, 67
4, 468160, Note_off_c, 2, 75, 67
4, 468160, Note_off_c, 2, 79, 67
4, 468224, Note_off_c, 2, 75, 67
4, 468224, Note_off_c, 2, 79, 67
4, 468224, Note_on_c, 2, 75, 67
4, 468224, Note_on_c, 2, 79, 67
4, 468288, Note_off_c, 2, 75, 67
4, 468288, Note_off_c, 2, 79, 67
4, 468352, Note_off_c, 2, 75, 67
4, 468352, Note_off_c, 2, 79, 67
4, 468352, Note_on_c, 2, 75, 67
4, 468416, Note_off_c, 2, 75, 67
4, 468416, Note_on_c, 2, 77, 67
4, 468480, Note_off_c, 2, 77, 67
4, 468480, Note_on_c, 2, 79, 67
4, 468544, Note_off_c, 2, 79, 67
4, 468608, Note_off_c, 2, 79, 67
4, 468608, Note_on_c, 2, 75, 67
4, 468608, Note_on_c, 2, 79, 67
4, 468672, Note_off_c, 2, 75, 67
4, 468672, Note_off_c, 2, 79, 67
4, 468736, Note_off_c, 2, 75, 67
4, 468736, Note_off_c, 2, 79, 67
4, 468736, Note_on_c, 2, 75, 67
4, 468736, Note_on_c, 2, 79, 67
4, 468800, Note_off_c, 2, 75, 67
4, 468800, Note_off_c, 2, 79, 67
4, 468864, Note_off_c, 2, 75, 67
4, 468864, Note_off_c, 2, 79, 67
4, 468864, Note_on_c, 2, 75, 67
4, 468928, Note_off_c, 2, 75, 67
4, 468928, Note_on_c, 2, 77, 67
4, 468992, Note_off_c, 2, 77, 67
4, 468992, Note_on_c, 2, 79, 67
4, 469056, Note_off_c, 2, 79, 67
4, 469120, Note_off_c, 2, 79, 67
4, 469120, Note_on_c, 2, 75, 67
4, 469120, Note_on_c, 2, 79, 67
4, 469184, Note_off_c, 2, 75, 67
4, 469184, Note_off_c, 2, 79, 67
4, 469248, Note_off_c, 2, 75, 67
4, 469248, Note_off_c, 2, 79, 67
4, 469248, Note_on_c, 2, 75, 67
4, 469248, Note_on_c, 2, 80, 67
4, 469280, Note_off_c, 2, 75, 67
4, 469280, Note_off_c, 2, 80, 67
4, 469312, Note_off_c, 2, 75, 67
4, 469312, Note_off_c, 2, 80, 67
4, 469312, Note_on_c, 2, 74, 67
4, 469344, Note_off_c, 2, 74, 67
4, 469376, Note_off_c, 2, 74, 67
4, 469376, Note_on_c, 2, 72, 67
4, 469408, Note_off_c, 2, 72, 67
4, 469440, Note_off_c, 2, 72, 67
4, 469440, Note_on_c, 2, 74, 67
4, 469440, Note_on_c, 2, 79, 67
4, 469472, Note_off_c, 2, 74, 67
4, 469472, Note_off_c, 2, 79, 67
4, 469504, Note_off_c, 2, 74, 67
4, 469504, Note_off_c, 2, 79, 67
4, 469504, Note_on_c, 2, 70, 67
4, 469504, Note_on_c, 2, 77, 67
4, 469568, Note_off_c, 2, 70, 67
4, 469568, Note_off_c, 2, 77, 67
4, 469632, Note_off_c, 2, 70, 67
4, 469632, Note_off_c, 2, 77, 67
4, 469632, Note_on_c, 2, 68, 67
4, 469632, Note_on_c, 2, 70, 67
4, 469696, Note_off_c, 2, 68, 67
4, 469696, Note_off_c, 2, 70, 67
4, 469760, Note_off_c, 2, 68, 67
4, 469760, Note_off_c, 2, 70, 67
4, 469760, Note_on_c, 2, 68, 67
4, 469760, Note_on_c, 2, 70, 67
4, 469824, Note_off_c, 2, 68, 67
4, 469824, Note_off_c, 2, 70, 67
4, 469888, Note_off_c, 2, 68, 67
4, 469888, Note_off_c, 2, 70, 67
4, 469888, Note_on_c, 2, 74, 67
4, 469952, Note_off_c, 2, 74, 67
4, 469952, Note_on_c, 2, 75, 67
4, 470016, Note_off_c, 2, 75, 67
4, 470016, Note_on_c, 2, 77, 67
4, 470080, Note_off_c, 2, 77, 67
4, 470144, Note_off_c, 2, 77, 67
4, 470144, Note_on_c, 2, 74, 67
4, 470144, Note_on_c, 2, 77, 67
4, 470208, Note_off_c, 2, 74, 67
4, 470208, Note_off_c, 2, 77, 67
4, 470272, Note_off_c, 2, 74, 67
4, 470272, Note_off_c, 2, 77, 67
4, 470272, Note_on_c, 2, 74, 67
4, 470272, Note_on_c, 2, 77, 67
4, 470336, Note_off_c, 2, 74, 67
4, 470336, Note_off_c, 2, 77, 67
4, 470400, Note_off_c, 2, 74, 67
4, 470400, Note_off_c, 2, 77, 67
4, 470400, Note_on_c, 2, 74, 67
4, 470464, Note_off_c, 2, 74, 67
4, 470464, Note_on_c, 2, 75, 67
4, 470528, Note_off_c, 2, 75, 67
4, 470528, Note_on_c, 2, 77, 67
4, 470592, Note_off_c, 2, 77, 67
4, 470656, Note_off_c, 2, 77, 67
4, 470656, Note_on_c, 2, 74, 67
4, 470656, Note_on_c, 2, 77, 67
4, 470720, Note_off_c, 2, 74, 67
4, 470720, Note_off_c, 2, 77, 67
4, 470784, Note_off_c, 2, 74, 67
4, 470784, Note_off_c, 2, 77, 67
4, 470784, Note_on_c, 2, 74, 67
4, 470784, Note_on_c, 2, 77, 67
4, 470848, Note_off_c, 2, 74, 67
4, 470848, Note_off_c, 2, 77, 67
4, 470912, Note_off_c, 2, 74, 67
4, 470912, Note_off_c, 2, 77, 67
4, 470912, Note_on_c, 2, 74, 67
4, 470976, Note_off_c, 2, 74, 67
4, 470976, Note_on_c, 2, 75, 67
4, 471040, Note_off_c, 2, 75, 67
4, 471040, Note_on_c, 2, 70, 67
4, 471040, Note_on_c, 2, 77, 67
4, 471104, Note_off_c, 2, 70, 67
4, 471104, Note_off_c, 2, 77, 67
4, 471168, Note_off_c, 2, 70, 67
4, 471168, Note_off_c, 2, 77, 67
4, 471168, Note_on_c, 2, 74, 67
4, 471168, Note_on_c, 2, 77, 67
4, 471232, Note_off_c, 2, 74, 67
4, 471232, Note_off_c, 2, 77, 67
4, 471296, Note_off_c, 2, 74, 67
4, 471296, Note_off_c, 2, 77, 67
4, 471296, Note_on_c, 2, 74, 67
4, 471296, Note_on_c, 2, 79, 67
4, 471328, Note_off_c, 2, 74, 67
4, 471328, Note_off_c, 2, 79, 67
4, 471360, Note_off_c, 2, 74, 67
4, 471360, Note_off_c, 2, 79, 67
4, 471360, Note_on_c, 2, 72, 67
4, 471360, Note_on_c, 2, 77, 67
4, 471392, Note_off_c, 2, 72, 67
4, 471392, Note_off_c, 2, 77, 67
4, 471424, Note_off_c, 2, 72, 67
4, 471424, Note_off_c, 2, 77, 67
4, 471424, Note_on_c, 2, 70, 67
4, 471424, Note_on_c, 2, 77, 67
4, 471456, Note_off_c, 2, 70, 67
4, 471456, Note_off_c, 2, 77, 67
4, 471488, Note_off_c, 2, 70, 67
4, 471488, Note_off_c, 2, 77, 67
4, 471488, Note_on_c, 2, 68, 67
4, 471488, Note_on_c, 2, 79, 67
4, 471520, Note_off_c, 2, 68, 67
4, 471520, Note_off_c, 2, 79, 67
4, 471552, Note_off_c, 2, 68, 67
4, 471552, Note_off_c, 2, 79, 67
4, 471552, Note_on_c, 2, 67, 67
4, 471552, Note_on_c, 2, 75, 67
4, 471616, Note_off_c, 2, 67, 67
4, 471616, Note_off_c, 2, 75, 67
4, 471680, Note_off_c, 2, 67, 67
4, 471680, Note_off_c, 2, 75, 67
4, 471680, Note_on_c, 2, 70, 67
4, 471744, Note_off_c, 2, 70, 67
4, 471808, Note_off_c, 2, 70, 67
4, 471808, Note_on_c, 2, 70, 67
4, 471808, Note_on_c, 2, 79, 67
4, 471872, Note_off_c, 2, 70, 67
4, 471872, Note_off_c, 2, 79, 67
4, 471936, Note_off_c, 2, 70, 67
4, 471936, Note_off_c, 2, 79, 67
4, 471936, Note_on_c, 2, 75, 67
4, 472000, Note_off_c, 2, 75, 67
4, 472000, Note_on_c, 2, 77, 67
4, 472064, Note_off_c, 2, 77, 67
4, 472064, Note_on_c, 2, 79, 67
4, 472128, Note_off_c, 2, 79, 67
4, 472192, Note_off_c, 2, 79, 67
4, 472192, Note_on_c, 2, 75, 67
4, 472192, Note_on_c, 2, 79, 67
4, 472256, Note_off_c, 2, 75, 67
4, 472256, Note_off_c, 2, 79, 67
4, 472320, Note_off_c, 2, 75, 67
4, 472320, Note_off_c, 2, 79, 67
4, 472320, Note_on_c, 2, 75, 67
4, 472320, Note_on_c, 2, 79, 67
4, 472384, Note_off_c, 2, 75, 67
4, 472384, Note_off_c, 2, 79, 67
4, 472448, Note_off_c, 2, 75, 67
4, 472448, Note_off_c, 2, 79, 67
4, 472448, Note_on_c, 2, 75, 67
4, 472512, Note_off_c, 2, 75, 67
4, 472512, Note_on_c, 2, 77, 67
4, 472576, Note_off_c, 2, 77, 67
4, 472576, Note_on_c, 2, 79, 67
4, 472640, Note_off_c, 2, 79, 67
4, 472704, Note_off_c, 2, 79, 67
4, 472704, Note_on_c, 2, 75, 67
4, 472704, Note_on_c, 2, 79, 67
4, 472768, Note_off_c, 2, 75, 67
4, 472768, Note_off_c, 2, 79, 67
4, 472832, Note_off_c, 2, 75, 67
4, 472832, Note_off_c, 2, 79, 67
4, 472832, Note_on_c, 2, 75, 67
4, 472832, Note_on_c, 2, 79, 67
4, 472896, Note_off_c, 2, 75, 67
4, 472896, Note_off_c, 2, 79, 67
4, 472960, Note_off_c, 2, 75, 67
4, 472960, Note_off_c, 2, 79, 67
4, 472960, Note_on_c, 2, 75, 67
4, 473024, Note_off_c, 2, 75, 67
4, 473024, Note_on_c, 2, 77, 67
4, 473088, Note_off_c, 2, 77, 67
4, 473088, Note_on_c, 2, 79, 67
4, 473152, Note_off_c, 2, 79, 67
4, 473216, Note_off_c, 2, 79, 67
4, 473216, Note_on_c, 2, 75, 67
4, 473216, Note_on_c, 2, 79, 67
4, 473280, Note_off_c, 2, 75, 67
4, 473280, Note_off_c, 2, 79, 67
4, 473344, Note_off_c, 2, 75, 67
4, 473344, Note_off_c, 2, 79, 67
4, 473344, Note_on_c, 2, 75, 67
4, 473344, Note_on_c, 2, 80, 67
4, 473376, Note_off_c, 2, 75, 67
4, 473376, Note_off_c, 2, 80, 67
4, 473408, Note_off_c, 2, 75, 67
4, 473408, Note_off_c, 2, 80, 67
4, 473408, Note_on_c, 2, 74, 67
4, 473472, Note_off_c, 2, 74, 67
4, 473472, Note_on_c, 2, 72, 67
4, 473536, Note_off_c, 2, 72, 67
4, 473536, Note_on_c, 2, 74, 67
4, 473536, Note_on_c, 2, 79, 67
4, 473568, Note_off_c, 2, 74, 67
4, 473568, Note_off_c, 2, 79, 67
4, 473600, Note_off_c, 2, 74, 67
4, 473600, Note_off_c, 2, 79, 67
4, 473600, Note_on_c, 2, 70, 67
4, 473600, Note_on_c, 2, 77, 67
4, 473664, Note_off_c, 2, 70, 67
4, 473664, Note_off_c, 2, 77, 67
4, 473728, Note_off_c, 2, 70, 67
4, 473728, Note_off_c, 2, 77, 67
4, 473728, Note_on_c, 2, 68, 67
4, 473728, Note_on_c, 2, 70, 67
4, 473792, Note_off_c, 2, 68, 67
4, 473792, Note_off_c, 2, 70, 67
4, 473856, Note_off_c, 2, 68, 67
4, 473856, Note_off_c, 2, 70, 67
4, 473856, Note_on_c, 2, 68, 67
4, 473856, Note_on_c, 2, 70, 67
4, 473920, Note_off_c, 2, 68, 67
4, 473920, Note_off_c, 2, 70, 67
4, 473984, Note_off_c, 2, 68, 67
4, 473984, Note_off_c, 2, 70, 67
4, 473984, Note_on_c, 2, 74, 67
4, 474048, Note_off_c, 2, 74, 67
4, 474048, Note_on_c, 2, 75, 67
4, 474112, Note_off_c, 2, 75, 67
4, 474112, Note_on_c, 2, 77, 67
4, 474240, Note_off_c, 2, 77, 67
4, 474240, Note_on_c, 2, 74, 67
4, 474240, Note_on_c, 2, 80, 67
4, 474304, Note_off_c, 2, 74, 67
4, 474304, Note_off_c, 2, 80, 67
4, 474368, Note_off_c, 2, 74, 67
4, 474368, Note_off_c, 2, 80, 67
4, 474368, Note_on_c, 2, 74, 67
4, 474368, Note_on_c, 2, 79, 67
4, 474432, Note_off_c, 2, 74, 67
4, 474432, Note_off_c, 2, 79, 67
4, 474496, Note_off_c, 2, 74, 67
4, 474496, Note_off_c, 2, 79, 67
4, 474496, Note_on_c, 2, 77, 67
4, 474560, Note_off_c, 2, 77, 67
4, 474624, Note_off_c, 2, 77, 67
4, 474624, Note_on_c, 2, 75, 67
4, 474688, Note_off_c, 2, 75, 67
4, 474752, Note_off_c, 2, 75, 67
4, 474752, Note_on_c, 2, 70, 67
4, 474752, Note_on_c, 2, 74, 67
4, 474816, Note_off_c, 2, 70, 67
4, 474816, Note_off_c, 2, 74, 67
4, 474880, Note_off_c, 2, 70, 67
4, 474880, Note_off_c, 2, 74, 67
4, 474880, Note_on_c, 2, 72, 67
4, 474880, Note_on_c, 2, 74, 67
4, 474944, Note_off_c, 2, 72, 67
4, 474944, Note_off_c, 2, 74, 67
4, 475008, Note_off_c, 2, 72, 67
4, 475008, Note_off_c, 2, 74, 67
4, 475008, Note_on_c, 2, 70, 67
4, 475008, Note_on_c, 2, 74, 67
4, 475072, Note_off_c, 2, 70, 67
4, 475072, Note_off_c, 2, 74, 67
4, 475136, Note_off_c, 2, 70, 67
4, 475136, Note_off_c, 2, 74, 67
4, 475136, Note_on_c, 2, 80, 67
4, 475136, Note_on_c, 2, 84, 67
4, 475392, Note_off_c, 2, 80, 67
4, 475392, Note_off_c, 2, 84, 67
4, 475392, Note_on_c, 2, 70, 67
4, 475392, Note_on_c, 2, 74, 67
4, 475408, Note_off_c, 2, 70, 67
4, 475408, Note_off_c, 2, 74, 67
4, 475424, Note_off_c, 2, 70, 67
4, 475424, Note_off_c, 2, 74, 67
4, 475424, Note_on_c, 2, 72, 67
4, 475424, Note_on_c, 2, 75, 67
4, 475440, Note_off_c, 2, 72, 67
4, 475440, Note_off_c, 2, 75, 67
4, 475456, Note_off_c, 2, 72, 67
4, 475456, Note_off_c, 2, 75, 67
4, 475456, Note_on_c, 2, 70, 67
4, 475456, Note_on_c, 2, 74, 67
4, 475488, Note_off_c, 2, 70, 67
4, 475488, Note_off_c, 2, 74, 67
4, 475520, Note_off_c, 2, 70, 67
4, 475520, Note_off_c, 2, 74, 67
4, 475520, Note_on_c, 2, 68, 67
4, 475520, Note_on_c, 2, 72, 67
4, 475552, Note_off_c, 2, 68, 67
4, 475552, Note_off_c, 2, 72, 67
4, 475584, Note_off_c, 2, 68, 67
4, 475584, Note_off_c, 2, 72, 67
4, 475584, Note_on_c, 2, 74, 67
4, 475584, Note_on_c, 2, 77, 67
4, 475616, Note_off_c, 2, 74, 67
4, 475616, Note_off_c, 2, 77, 67
4, 475648, Note_off_c, 2, 74, 67
4, 475648, Note_off_c, 2, 77, 67
4, 475648, Note_on_c, 2, 75, 67
4, 475648, Note_on_c, 2, 79, 67
4, 475776, Note_off_c, 2, 75, 67
4, 475776, Note_off_c, 2, 79, 67
4, 475776, Note_on_c, 2, 70, 67
4, 475840, Note_off_c, 2, 70, 67
4, 475904, Note_off_c, 2, 70, 67
4, 475904, Note_on_c, 2, 70, 67
4, 475968, Note_off_c, 2, 70, 67
4, 476032, Note_off_c, 2, 70, 67
4, 476032, Note_on_c, 2, 75, 67
4, 476032, Note_on_c, 2, 79, 67
4, 476096, Note_off_c, 2, 75, 67
4, 476096, Note_off_c, 2, 79, 67
4, 476096, Note_on_c, 2, 77, 67
4, 476096, Note_on_c, 2, 80, 67
4, 476160, Note_off_c, 2, 77, 67
4, 476160, Note_off_c, 2, 80, 67
4, 476160, Note_on_c, 2, 79, 67
4, 476160, Note_on_c, 2, 82, 67
4, 476224, Note_off_c, 2, 79, 67
4, 476224, Note_off_c, 2, 82, 67
4, 476288, Note_off_c, 2, 79, 67
4, 476288, Note_off_c, 2, 82, 67
4, 476288, Note_on_c, 2, 79, 67
4, 476288, Note_on_c, 2, 82, 67
4, 476352, Note_off_c, 2, 79, 67
4, 476352, Note_off_c, 2, 82, 67
4, 476416, Note_off_c, 2, 79, 67
4, 476416, Note_off_c, 2, 82, 67
4, 476416, Note_on_c, 2, 70, 67
4, 476416, Note_on_c, 2, 79, 67
4, 476480, Note_off_c, 2, 70, 67
4, 476480, Note_off_c, 2, 79, 67
4, 476544, Note_off_c, 2, 70, 67
4, 476544, Note_off_c, 2, 79, 67
4, 476544, Note_on_c, 2, 70, 67
4, 476544, Note_on_c, 2, 75, 67
4, 476608, Note_off_c, 2, 70, 67
4, 476608, Note_off_c, 2, 75, 67
4, 476672, Note_off_c, 2, 70, 67
4, 476672, Note_off_c, 2, 75, 67
4, 476672, Note_on_c, 2, 84, 67
4, 476672, Note_on_c, 2, 87, 67
4, 476736, Note_off_c, 2, 84, 67
4, 476736, Note_off_c, 2, 87, 67
4, 476800, Note_off_c, 2, 84, 67
4, 476800, Note_off_c, 2, 87, 67
4, 476800, Note_on_c, 2, 82, 67
4, 476800, Note_on_c, 2, 86, 67
4, 476864, Note_off_c, 2, 82, 67
4, 476864, Note_off_c, 2, 86, 67
4, 476928, Note_off_c, 2, 82, 67
4, 476928, Note_off_c, 2, 86, 67
4, 476928, Note_on_c, 2, 80, 67
4, 476928, Note_on_c, 2, 84, 67
4, 476992, Note_off_c, 2, 80, 67
4, 476992, Note_off_c, 2, 84, 67
4, 477056, Note_off_c, 2, 80, 67
4, 477056, Note_off_c, 2, 84, 67
4, 477056, Note_on_c, 2, 79, 67
4, 477056, Note_on_c, 2, 87, 67
4, 477120, Note_off_c, 2, 79, 67
4, 477120, Note_off_c, 2, 87, 67
4, 477184, Note_off_c, 2, 79, 67
4, 477184, Note_off_c, 2, 87, 67
4, 477184, Note_on_c, 2, 75, 67
4, 477184, Note_on_c, 2, 82, 67
4, 477248, Note_off_c, 2, 75, 67
4, 477248, Note_off_c, 2, 82, 67
4, 477312, Note_off_c, 2, 75, 67
4, 477312, Note_off_c, 2, 82, 67
4, 477312, Note_on_c, 2, 79, 67
4, 477376, Note_off_c, 2, 79, 67
4, 477440, Note_off_c, 2, 79, 67
4, 477440, Note_on_c, 2, 67, 67
4, 477440, Note_on_c, 2, 75, 67
4, 477504, Note_off_c, 2, 67, 67
4, 477504, Note_off_c, 2, 75, 67
4, 477568, Note_off_c, 2, 67, 67
4, 477568, Note_off_c, 2, 75, 67
4, 477568, Note_on_c, 2, 68, 67
4, 477568, Note_on_c, 2, 74, 67
4, 477600, Note_off_c, 2, 68, 67
4, 477600, Note_off_c, 2, 74, 67
4, 477632, Note_off_c, 2, 68, 67
4, 477632, Note_off_c, 2, 74, 67
4, 477632, Note_on_c, 2, 74, 67
4, 477632, Note_on_c, 2, 79, 67
4, 477664, Note_off_c, 2, 74, 67
4, 477664, Note_off_c, 2, 79, 67
4, 477696, Note_off_c, 2, 74, 67
4, 477696, Note_off_c, 2, 79, 67
4, 477696, Note_on_c, 2, 70, 67
4, 477696, Note_on_c, 2, 77, 67
4, 477760, Note_off_c, 2, 70, 67
4, 477760, Note_off_c, 2, 77, 67
4, 477824, Note_off_c, 2, 70, 67
4, 477824, Note_off_c, 2, 77, 67
4, 477824, Note_on_c, 2, 65, 67
4, 477824, Note_on_c, 2, 70, 67
4, 477888, Note_off_c, 2, 65, 67
4, 477888, Note_off_c, 2, 70, 67
4, 477952, Note_off_c, 2, 65, 67
4, 477952, Note_off_c, 2, 70, 67
4, 477952, Note_on_c, 2, 68, 67
4, 477952, Note_on_c, 2, 70, 67
4, 478016, Note_off_c, 2, 68, 67
4, 478016, Note_off_c, 2, 70, 67
4, 478080, Note_off_c, 2, 68, 67
4, 478080, Note_off_c, 2, 70, 67
4, 478080, Note_on_c, 2, 70, 67
4, 478080, Note_on_c, 2, 79, 67
4, 478144, Note_off_c, 2, 70, 67
4, 478144, Note_off_c, 2, 79, 67
4, 478144, Note_on_c, 2, 77, 67
4, 478144, Note_on_c, 2, 80, 67
4, 478208, Note_off_c, 2, 77, 67
4, 478208, Note_off_c, 2, 80, 67
4, 478208, Note_on_c, 2, 79, 67
4, 478208, Note_on_c, 2, 82, 67
4, 478272, Note_off_c, 2, 79, 67
4, 478272, Note_off_c, 2, 82, 67
4, 478336, Note_off_c, 2, 79, 67
4, 478336, Note_off_c, 2, 82, 67
4, 478336, Note_on_c, 2, 79, 67
4, 478336, Note_on_c, 2, 82, 67
4, 478400, Note_off_c, 2, 79, 67
4, 478400, Note_off_c, 2, 82, 67
4, 478464, Note_off_c, 2, 79, 67
4, 478464, Note_off_c, 2, 82, 67
4, 478464, Note_on_c, 2, 70, 67
4, 478464, Note_on_c, 2, 79, 67
4, 478528, Note_off_c, 2, 70, 67
4, 478528, Note_off_c, 2, 79, 67
4, 478592, Note_off_c, 2, 70, 67
4, 478592, Note_off_c, 2, 79, 67
4, 478592, Note_on_c, 2, 75, 67
4, 478592, Note_on_c, 2, 82, 67
4, 478656, Note_off_c, 2, 75, 67
4, 478656, Note_off_c, 2, 82, 67
4, 478720, Note_off_c, 2, 75, 67
4, 478720, Note_off_c, 2, 82, 67
4, 478720, Note_on_c, 2, 84, 67
4, 478720, Note_on_c, 2, 87, 67
4, 478784, Note_off_c, 2, 84, 67
4, 478784, Note_off_c, 2, 87, 67
4, 478848, Note_off_c, 2, 84, 67
4, 478848, Note_off_c, 2, 87, 67
4, 478848, Note_on_c, 2, 82, 67
4, 478848, Note_on_c, 2, 86, 67
4, 478912, Note_off_c, 2, 82, 67
4, 478912, Note_off_c, 2, 86, 67
4, 478976, Note_off_c, 2, 82, 67
4, 478976, Note_off_c, 2, 86, 67
4, 478976, Note_on_c, 2, 80, 67
4, 478976, Note_on_c, 2, 84, 67
4, 479040, Note_off_c, 2, 80, 67
4, 479040, Note_off_c, 2, 84, 67
4, 479104, Note_off_c, 2, 80, 67
4, 479104, Note_off_c, 2, 84, 67
4, 479104, Note_on_c, 2, 70, 67
4, 479104, Note_on_c, 2, 74, 67
4, 479136, Note_off_c, 2, 70, 67
4, 479136, Note_off_c, 2, 74, 67
4, 479168, Note_off_c, 2, 70, 67
4, 479168, Note_off_c, 2, 74, 67
4, 479168, Note_on_c, 2, 77, 67
4, 479168, Note_on_c, 2, 80, 67
4, 479200, Note_off_c, 2, 77, 67
4, 479200, Note_off_c, 2, 80, 67
4, 479232, Note_off_c, 2, 77, 67
4, 479232, Note_off_c, 2, 80, 67
4, 479232, Note_on_c, 2, 77, 67
4, 479232, Note_on_c, 2, 82, 67
4, 479296, Note_off_c, 2, 77, 67
4, 479296, Note_off_c, 2, 82, 67
4, 479360, Note_off_c, 2, 77, 67
4, 479360, Note_off_c, 2, 82, 67
4, 479360, Note_on_c, 2, 80, 67
4, 479360, Note_on_c, 2, 87, 67
4, 479424, Note_off_c, 2, 80, 67
4, 479424, Note_off_c, 2, 87, 67
4, 479488, Note_off_c, 2, 80, 67
4, 479488, Note_off_c, 2, 87, 67
4, 479488, Note_on_c, 2, 82, 67
4, 479488, Note_on_c, 2, 86, 67
4, 479552, Note_off_c, 2, 82, 67
4, 479552, Note_off_c, 2, 86, 67
4, 479616, Note_off_c, 2, 82, 67
4, 479616, Note_off_c, 2, 86, 67
4, 479616, Note_on_c, 2, 80, 67
4, 479616, Note_on_c, 2, 89, 67
4, 479680, Note_off_c, 2, 80, 67
4, 479680, Note_off_c, 2, 89, 67
4, 479744, Note_off_c, 2, 80, 67
4, 479744, Note_off_c, 2, 89, 67
4, 479744, Note_on_c, 2, 79, 67
4, 479744, Note_on_c, 2, 87, 67
4, 479808, Note_off_c, 2, 79, 67
4, 479808, Note_off_c, 2, 87, 67
4, 479872, Note_off_c, 2, 79, 67
4, 479872, Note_off_c, 2, 87, 67
4, 479872, Note_on_c, 2, 70, 67
4, 479872, Note_on_c, 2, 82, 67
4, 479936, Note_off_c, 2, 70, 67
4, 479936, Note_off_c, 2, 82, 67
4, 480000, Note_off_c, 2, 70, 67
4, 480000, Note_off_c, 2, 82, 67
4, 480000, Note_on_c, 2, 70, 67
4, 480000, Note_on_c, 2, 82, 67
4, 480064, Note_off_c, 2, 70, 67
4, 480064, Note_off_c, 2, 82, 67
4, 480128, Note_off_c, 2, 70, 67
4, 480128, Note_off_c, 2, 82, 67
4, 480128, Note_on_c, 2, 75, 67
4, 480192, Note_off_c, 2, 75, 67
4, 480192, Note_on_c, 2, 77, 67
4, 480256, Note_off_c, 2, 77, 67
4, 480256, Note_on_c, 2, 79, 67
4, 480320, Note_off_c, 2, 79, 67
4, 480384, Note_off_c, 2, 79, 67
4, 480384, Note_on_c, 2, 75, 67
4, 480384, Note_on_c, 2, 79, 67
4, 480448, Note_off_c, 2, 75, 67
4, 480448, Note_off_c, 2, 79, 67
4, 480512, Note_off_c, 2, 75, 67
4, 480512, Note_off_c, 2, 79, 67
4, 480512, Note_on_c, 2, 75, 67
4, 480512, Note_on_c, 2, 79, 67
4, 480576, Note_off_c, 2, 75, 67
4, 480576, Note_off_c, 2, 79, 67
4, 480640, Note_off_c, 2, 75, 67
4, 480640, Note_off_c, 2, 79, 67
4, 480640, Note_on_c, 2, 75, 67
4, 480704, Note_off_c, 2, 75, 67
4, 480704, Note_on_c, 2, 77, 67
4, 480768, Note_off_c, 2, 77, 67
4, 480768, Note_on_c, 2, 79, 67
4, 480832, Note_off_c, 2, 79, 67
4, 480896, Note_off_c, 2, 79, 67
4, 480896, Note_on_c, 2, 75, 67
4, 480896, Note_on_c, 2, 79, 67
4, 480960, Note_off_c, 2, 75, 67
4, 480960, Note_off_c, 2, 79, 67
4, 481024, Note_off_c, 2, 75, 67
4, 481024, Note_off_c, 2, 79, 67
4, 481024, Note_on_c, 2, 75, 67
4, 481024, Note_on_c, 2, 79, 67
4, 481088, Note_off_c, 2, 75, 67
4, 481088, Note_off_c, 2, 79, 67
4, 481152, Note_off_c, 2, 75, 67
4, 481152, Note_off_c, 2, 79, 67
4, 481152, Note_on_c, 2, 75, 67
4, 481216, Note_off_c, 2, 75, 67
4, 481216, Note_on_c, 2, 77, 67
4, 481280, Note_off_c, 2, 77, 67
4, 481280, Note_on_c, 2, 79, 67
4, 481344, Note_off_c, 2, 79, 67
4, 481408, Note_off_c, 2, 79, 67
4, 481408, Note_on_c, 2, 75, 67
4, 481408, Note_on_c, 2, 79, 67
4, 481472, Note_off_c, 2, 75, 67
4, 481472, Note_off_c, 2, 79, 67
4, 481536, Note_off_c, 2, 75, 67
4, 481536, Note_off_c, 2, 79, 67
4, 481536, Note_on_c, 2, 75, 67
4, 481536, Note_on_c, 2, 80, 67
4, 481568, Note_off_c, 2, 75, 67
4, 481568, Note_off_c, 2, 80, 67
4, 481600, Note_off_c, 2, 75, 67
4, 481600, Note_off_c, 2, 80, 67
4, 481600, Note_on_c, 2, 74, 67
4, 481632, Note_off_c, 2, 74, 67
4, 481664, Note_off_c, 2, 74, 67
4, 481664, Note_on_c, 2, 72, 67
4, 481696, Note_off_c, 2, 72, 67
4, 481728, Note_off_c, 2, 72, 67
4, 481728, Note_on_c, 2, 74, 67
4, 481728, Note_on_c, 2, 79, 67
4, 481760, Note_off_c, 2, 74, 67
4, 481760, Note_off_c, 2, 79, 67
4, 481792, Note_off_c, 2, 74, 67
4, 481792, Note_off_c, 2, 79, 67
4, 481792, Note_on_c, 2, 70, 67
4, 481792, Note_on_c, 2, 77, 67
4, 481856, Note_off_c, 2, 70, 67
4, 481856, Note_off_c, 2, 77, 67
4, 481920, Note_off_c, 2, 70, 67
4, 481920, Note_off_c, 2, 77, 67
4, 481920, Note_on_c, 2, 68, 67
4, 481920, Note_on_c, 2, 70, 67
4, 481984, Note_off_c, 2, 68, 67
4, 481984, Note_off_c, 2, 70, 67
4, 482048, Note_off_c, 2, 68, 67
4, 482048, Note_off_c, 2, 70, 67
4, 482048, Note_on_c, 2, 68, 67
4, 482048, Note_on_c, 2, 70, 67
4, 482112, Note_off_c, 2, 68, 67
4, 482112, Note_off_c, 2, 70, 67
4, 482176, Note_off_c, 2, 68, 67
4, 482176, Note_off_c, 2, 70, 67
4, 482176, Note_on_c, 2, 74, 67
4, 482240, Note_off_c, 2, 74, 67
4, 482240, Note_on_c, 2, 75, 67
4, 482304, Note_off_c, 2, 75, 67
4, 482304, Note_on_c, 2, 77, 67
4, 482368, Note_off_c, 2, 77, 67
4, 482432, Note_off_c, 2, 77, 67
4, 482432, Note_on_c, 2, 74, 67
4, 482432, Note_on_c, 2, 77, 67
4, 482496, Note_off_c, 2, 74, 67
4, 482496, Note_off_c, 2, 77, 67
4, 482560, Note_off_c, 2, 74, 67
4, 482560, Note_off_c, 2, 77, 67
4, 482560, Note_on_c, 2, 74, 67
4, 482560, Note_on_c, 2, 77, 67
4, 482624, Note_off_c, 2, 74, 67
4, 482624, Note_off_c, 2, 77, 67
4, 482688, Note_off_c, 2, 74, 67
4, 482688, Note_off_c, 2, 77, 67
4, 482688, Note_on_c, 2, 74, 67
4, 482752, Note_off_c, 2, 74, 67
4, 482752, Note_on_c, 2, 75, 67
4, 482816, Note_off_c, 2, 75, 67
4, 482816, Note_on_c, 2, 77, 67
4, 482880, Note_off_c, 2, 77, 67
4, 482944, Note_off_c, 2, 77, 67
4, 482944, Note_on_c, 2, 74, 67
4, 482944, Note_on_c, 2, 77, 67
4, 483008, Note_off_c, 2, 74, 67
4, 483008, Note_off_c, 2, 77, 67
4, 483072, Note_off_c, 2, 74, 67
4, 483072, Note_off_c, 2, 77, 67
4, 483072, Note_on_c, 2, 74, 67
4, 483072, Note_on_c, 2, 77, 67
4, 483136, Note_off_c, 2, 74, 67
4, 483136, Note_off_c, 2, 77, 67
4, 483200, Note_off_c, 2, 74, 67
4, 483200, Note_off_c, 2, 77, 67
4, 483200, Note_on_c, 2, 74, 67
4, 483264, Note_off_c, 2, 74, 67
4, 483264, Note_on_c, 2, 75, 67
4, 483328, Note_off_c, 2, 75, 67
4, 483328, Note_on_c, 2, 70, 67
4, 483328, Note_on_c, 2, 77, 67
4, 483392, Note_off_c, 2, 70, 67
4, 483392, Note_off_c, 2, 77, 67
4, 483456, Note_off_c, 2, 70, 67
4, 483456, Note_off_c, 2, 77, 67
4, 483456, Note_on_c, 2, 74, 67
4, 483456, Note_on_c, 2, 77, 67
4, 483520, Note_off_c, 2, 74, 67
4, 483520, Note_off_c, 2, 77, 67
4, 483584, Note_off_c, 2, 74, 67
4, 483584, Note_off_c, 2, 77, 67
4, 483584, Note_on_c, 2, 74, 67
4, 483584, Note_on_c, 2, 79, 67
4, 483616, Note_off_c, 2, 74, 67
4, 483616, Note_off_c, 2, 79, 67
4, 483648, Note_off_c, 2, 74, 67
4, 483648, Note_off_c, 2, 79, 67
4, 483648, Note_on_c, 2, 72, 67
4, 483648, Note_on_c, 2, 77, 67
4, 483680, Note_off_c, 2, 72, 67
4, 483680, Note_off_c, 2, 77, 67
4, 483712, Note_off_c, 2, 72, 67
4, 483712, Note_off_c, 2, 77, 67
4, 483712, Note_on_c, 2, 70, 67
4, 483712, Note_on_c, 2, 77, 67
4, 483744, Note_off_c, 2, 70, 67
4, 483744, Note_off_c, 2, 77, 67
4, 483776, Note_off_c, 2, 70, 67
4, 483776, Note_off_c, 2, 77, 67
4, 483776, Note_on_c, 2, 68, 67
4, 483776, Note_on_c, 2, 79, 67
4, 483808, Note_off_c, 2, 68, 67
4, 483808, Note_off_c, 2, 79, 67
4, 483840, Note_off_c, 2, 68, 67
4, 483840, Note_off_c, 2, 79, 67
4, 483840, Note_on_c, 2, 67, 67
4, 483840, Note_on_c, 2, 75, 67
4, 483904, Note_off_c, 2, 67, 67
4, 483904, Note_off_c, 2, 75, 67
4, 483968, Note_off_c, 2, 67, 67
4, 483968, Note_off_c, 2, 75, 67
4, 483968, Note_on_c, 2, 70, 67
4, 484032, Note_off_c, 2, 70, 67
4, 484096, Note_off_c, 2, 70, 67
4, 484096, Note_on_c, 2, 70, 67
4, 484096, Note_on_c, 2, 79, 67
4, 484160, Note_off_c, 2, 70, 67
4, 484160, Note_off_c, 2, 79, 67
4, 484224, Note_off_c, 2, 70, 67
4, 484224, Note_off_c, 2, 79, 67
4, 484224, Note_on_c, 2, 75, 67
4, 484288, Note_off_c, 2, 75, 67
4, 484288, Note_on_c, 2, 77, 67
4, 484352, Note_off_c, 2, 77, 67
4, 484352, Note_on_c, 2, 79, 67
4, 484416, Note_off_c, 2, 79, 67
4, 484480, Note_off_c, 2, 79, 67
4, 484480, Note_on_c, 2, 75, 67
4, 484480, Note_on_c, 2, 79, 67
4, 484544, Note_off_c, 2, 75, 67
4, 484544, Note_off_c, 2, 79, 67
4, 484608, Note_off_c, 2, 75, 67
4, 484608, Note_off_c, 2, 79, 67
4, 484608, Note_on_c, 2, 75, 67
4, 484608, Note_on_c, 2, 79, 67
4, 484672, Note_off_c, 2, 75, 67
4, 484672, Note_off_c, 2, 79, 67
4, 484736, Note_off_c, 2, 75, 67
4, 484736, Note_off_c, 2, 79, 67
4, 484736, Note_on_c, 2, 75, 67
4, 484800, Note_off_c, 2, 75, 67
4, 484800, Note_on_c, 2, 77, 67
4, 484864, Note_off_c, 2, 77, 67
4, 484864, Note_on_c, 2, 79, 67
4, 484928, Note_off_c, 2, 79, 67
4, 484992, Note_off_c, 2, 79, 67
4, 484992, Note_on_c, 2, 75, 67
4, 484992, Note_on_c, 2, 79, 67
4, 485056, Note_off_c, 2, 75, 67
4, 485056, Note_off_c, 2, 79, 67
4, 485120, Note_off_c, 2, 75, 67
4, 485120, Note_off_c, 2, 79, 67
4, 485120, Note_on_c, 2, 75, 67
4, 485120, Note_on_c, 2, 79, 67
4, 485184, Note_off_c, 2, 75, 67
4, 485184, Note_off_c, 2, 79, 67
4, 485248, Note_off_c, 2, 75, 67
4, 485248, Note_off_c, 2, 79, 67
4, 485248, Note_on_c, 2, 75, 67
4, 485312, Note_off_c, 2, 75, 67
4, 485312, Note_on_c, 2, 77, 67
4, 485376, Note_off_c, 2, 77, 67
4, 485376, Note_on_c, 2, 79, 67
4, 485440, Note_off_c, 2, 79, 67
4, 485504, Note_off_c, 2, 79, 67
4, 485504, Note_on_c, 2, 75, 67
4, 485504, Note_on_c, 2, 79, 67
4, 485568, Note_off_c, 2, 75, 67
4, 485568, Note_off_c, 2, 79, 67
4, 485632, Note_off_c, 2, 75, 67
4, 485632, Note_off_c, 2, 79, 67
4, 485632, Note_on_c, 2, 75, 67
4, 485632, Note_on_c, 2, 80, 67
4, 485664, Note_off_c, 2, 75, 67
4, 485664, Note_off_c, 2, 80, 67
4, 485696, Note_off_c, 2, 75, 67
4, 485696, Note_off_c, 2, 80, 67
4, 485696, Note_on_c, 2, 74, 67
4, 485760, Note_off_c, 2, 74, 67
4, 485760, Note_on_c, 2, 72, 67
4, 485824, Note_off_c, 2, 72, 67
4, 485824, Note_on_c, 2, 74, 67
4, 485824, Note_on_c, 2, 79, 67
4, 485856, Note_off_c, 2, 74, 67
4, 485856, Note_off_c, 2, 79, 67
4, 485888, Note_off_c, 2, 74, 67
4, 485888, Note_off_c, 2, 79, 67
4, 485888, Note_on_c, 2, 70, 67
4, 485888, Note_on_c, 2, 77, 67
4, 485952, Note_off_c, 2, 70, 67
4, 485952, Note_off_c, 2, 77, 67
4, 486016, Note_off_c, 2, 70, 67
4, 486016, Note_off_c, 2, 77, 67
4, 486016, Note_on_c, 2, 68, 67
4, 486016, Note_on_c, 2, 70, 67
4, 486080, Note_off_c, 2, 68, 67
4, 486080, Note_off_c, 2, 70, 67
4, 486144, Note_off_c, 2, 68, 67
4, 486144, Note_off_c, 2, 70, 67
4, 486144, Note_on_c, 2, 68, 67
4, 486144, Note_on_c, 2, 70, 67
4, 486208, Note_off_c, 2, 68, 67
4, 486208, Note_off_c, 2, 70, 67
4, 486272, Note_off_c, 2, 68, 67
4, 486272, Note_off_c, 2, 70, 67
4, 486272, Note_on_c, 2, 74, 67
4, 486336, Note_off_c, 2, 74, 67
4, 486336, Note_on_c, 2, 75, 67
4, 486400, Note_off_c, 2, 75, 67
4, 486400, Note_on_c, 2, 77, 67
4, 486528, Note_off_c, 2, 77, 67
4, 486528, Note_on_c, 2, 74, 67
4, 486528, Note_on_c, 2, 80, 67
4, 486592, Note_off_c, 2, 74, 67
4, 486592, Note_off_c, 2, 80, 67
4, 486656, Note_off_c, 2, 74, 67
4, 486656, Note_off_c, 2, 80, 67
4, 486656, Note_on_c, 2, 74, 67
4, 486656, Note_on_c, 2, 79, 67
4, 486720, Note_off_c, 2, 74, 67
4, 486720, Note_off_c, 2, 79, 67
4, 486784, Note_off_c, 2, 74, 67
4, 486784, Note_off_c, 2, 79, 67
4, 486784, Note_on_c, 2, 77, 67
4, 486848, Note_off_c, 2, 77, 67
4, 486912, Note_off_c, 2, 77, 67
4, 486912, Note_on_c, 2, 75, 67
4, 486976, Note_off_c, 2, 75, 67
4, 487040, Note_off_c, 2, 75, 67
4, 487040, Note_on_c, 2, 70, 67
4, 487040, Note_on_c, 2, 74, 67
4, 487104, Note_off_c, 2, 70, 67
4, 487104, Note_off_c, 2, 74, 67
4, 487168, Note_off_c, 2, 70, 67
4, 487168, Note_off_c, 2, 74, 67
4, 487168, Note_on_c, 2, 72, 67
4, 487168, Note_on_c, 2, 74, 67
4, 487232, Note_off_c, 2, 72, 67
4, 487232, Note_off_c, 2, 74, 67
4, 487296, Note_off_c, 2, 72, 67
4, 487296, Note_off_c, 2, 74, 67
4, 487296, Note_on_c, 2, 70, 67
4, 487296, Note_on_c, 2, 74, 67
4, 487360, Note_off_c, 2, 70, 67
4, 487360, Note_off_c, 2, 74, 67
4, 487424, Note_off_c, 2, 70, 67
4, 487424, Note_off_c, 2, 74, 67
4, 487424, Note_on_c, 2, 80, 67
4, 487424, Note_on_c, 2, 84, 67
4, 487680, Note_off_c, 2, 80, 67
4, 487680, Note_off_c, 2, 84, 67
4, 487680, Note_on_c, 2, 70, 67
4, 487680, Note_on_c, 2, 74, 67
4, 487696, Note_off_c, 2, 70, 67
4, 487696, Note_off_c, 2, 74, 67
4, 487712, Note_off_c, 2, 70, 67
4, 487712, Note_off_c, 2, 74, 67
4, 487712, Note_on_c, 2, 72, 67
4, 487712, Note_on_c, 2, 75, 67
4, 487728, Note_off_c, 2, 72, 67
4, 487728, Note_off_c, 2, 75, 67
4, 487744, Note_off_c, 2, 72, 67
4, 487744, Note_off_c, 2, 75, 67
4, 487744, Note_on_c, 2, 70, 67
4, 487744, Note_on_c, 2, 74, 67
4, 487776, Note_off_c, 2, 70, 67
4, 487776, Note_off_c, 2, 74, 67
4, 487808, Note_off_c, 2, 70, 67
4, 487808, Note_off_c, 2, 74, 67
4, 487808, Note_on_c, 2, 68, 67
4, 487808, Note_on_c, 2, 72, 67
4, 487840, Note_off_c, 2, 68, 67
4, 487840, Note_off_c, 2, 72, 67
4, 487872, Note_off_c, 2, 68, 67
4, 487872, Note_off_c, 2, 72, 67
4, 487872, Note_on_c, 2, 74, 67
4, 487872, Note_on_c, 2, 77, 67
4, 487904, Note_off_c, 2, 74, 67
4, 487904, Note_off_c, 2, 77, 67
4, 487936, Note_off_c, 2, 74, 67
4, 487936, Note_off_c, 2, 77, 67
4, 487936, Note_on_c, 2, 75, 67
4, 487936, Note_on_c, 2, 79, 67
4, 488064, Note_off_c, 2, 75, 67
4, 488064, Note_off_c, 2, 79, 67
4, 488064, Note_on_c, 2, 70, 67
4, 488128, Note_off_c, 2, 70, 67
4, 488192, Note_off_c, 2, 70, 67
4, 488192, Note_on_c, 2, 70, 67
4, 488256, Note_off_c, 2, 70, 67
4, 488320, Note_off_c, 2, 70, 67
4, 488320, Note_on_c, 2, 75, 67
4, 488320, Note_on_c, 2, 79, 67
4, 488384, Note_off_c, 2, 75, 67
4, 488384, Note_off_c, 2, 79, 67
4, 488384, Note_on_c, 2, 77, 67
4, 488384, Note_on_c, 2, 80, 67
4, 488448, Note_off_c, 2, 77, 67
4, 488448, Note_off_c, 2, 80, 67
4, 488448, Note_on_c, 2, 79, 67
4, 488448, Note_on_c, 2, 82, 67
4, 488512, Note_off_c, 2, 79, 67
4, 488512, Note_off_c, 2, 82, 67
4, 488576, Note_off_c, 2, 79, 67
4, 488576, Note_off_c, 2, 82, 67
4, 488576, Note_on_c, 2, 79, 67
4, 488576, Note_on_c, 2, 82, 67
4, 488640, Note_off_c, 2, 79, 67
4, 488640, Note_off_c, 2, 82, 67
4, 488704, Note_off_c, 2, 79, 67
4, 488704, Note_off_c, 2, 82, 67
4, 488704, Note_on_c, 2, 70, 67
4, 488704, Note_on_c, 2, 79, 67
4, 488768, Note_off_c, 2, 70, 67
4, 488768, Note_off_c, 2, 79, 67
4, 488832, Note_off_c, 2, 70, 67
4, 488832, Note_off_c, 2, 79, 67
4, 488832, Note_on_c, 2, 70, 67
4, 488832, Note_on_c, 2, 75, 67
4, 488896, Note_off_c, 2, 70, 67
4, 488896, Note_off_c, 2, 75, 67
4, 488960, Note_off_c, 2, 70, 67
4, 488960, Note_off_c, 2, 75, 67
4, 488960, Note_on_c, 2, 84, 67
4, 488960, Note_on_c, 2, 87, 67
4, 489024, Note_off_c, 2, 84, 67
4, 489024, Note_off_c, 2, 87, 67
4, 489088, Note_off_c, 2, 84, 67
4, 489088, Note_off_c, 2, 87, 67
4, 489088, Note_on_c, 2, 82, 67
4, 489088, Note_on_c, 2, 86, 67
4, 489152, Note_off_c, 2, 82, 67
4, 489152, Note_off_c, 2, 86, 67
4, 489216, Note_off_c, 2, 82, 67
4, 489216, Note_off_c, 2, 86, 67
4, 489216, Note_on_c, 2, 80, 67
4, 489216, Note_on_c, 2, 84, 67
4, 489280, Note_off_c, 2, 80, 67
4, 489280, Note_off_c, 2, 84, 67
4, 489344, Note_off_c, 2, 80, 67
4, 489344, Note_off_c, 2, 84, 67
4, 489344, Note_on_c, 2, 79, 67
4, 489344, Note_on_c, 2, 87, 67
4, 489408, Note_off_c, 2, 79, 67
4, 489408, Note_off_c, 2, 87, 67
4, 489472, Note_off_c, 2, 79, 67
4, 489472, Note_off_c, 2, 87, 67
4, 489472, Note_on_c, 2, 75, 67
4, 489472, Note_on_c, 2, 82, 67
4, 489536, Note_off_c, 2, 75, 67
4, 489536, Note_off_c, 2, 82, 67
4, 489600, Note_off_c, 2, 75, 67
4, 489600, Note_off_c, 2, 82, 67
4, 489600, Note_on_c, 2, 79, 67
4, 489664, Note_off_c, 2, 79, 67
4, 489728, Note_off_c, 2, 79, 67
4, 489728, Note_on_c, 2, 67, 67
4, 489728, Note_on_c, 2, 75, 67
4, 489792, Note_off_c, 2, 67, 67
4, 489792, Note_off_c, 2, 75, 67
4, 489856, Note_off_c, 2, 67, 67
4, 489856, Note_off_c, 2, 75, 67
4, 489856, Note_on_c, 2, 68, 67
4, 489856, Note_on_c, 2, 74, 67
4, 489888, Note_off_c, 2, 68, 67
4, 489888, Note_off_c, 2, 74, 67
4, 489920, Note_off_c, 2, 68, 67
4, 489920, Note_off_c, 2, 74, 67
4, 489920, Note_on_c, 2, 74, 67
4, 489920, Note_on_c, 2, 79, 67
4, 489952, Note_off_c, 2, 74, 67
4, 489952, Note_off_c, 2, 79, 67
4, 489984, Note_off_c, 2, 74, 67
4, 489984, Note_off_c, 2, 79, 67
4, 489984, Note_on_c, 2, 70, 67
4, 489984, Note_on_c, 2, 77, 67
4, 490048, Note_off_c, 2, 70, 67
4, 490048, Note_off_c, 2, 77, 67
4, 490112, Note_off_c, 2, 70, 67
4, 490112, Note_off_c, 2, 77, 67
4, 490112, Note_on_c, 2, 65, 67
4, 490112, Note_on_c, 2, 70, 67
4, 490176, Note_off_c, 2, 65, 67
4, 490176, Note_off_c, 2, 70, 67
4, 490240, Note_off_c, 2, 65, 67
4, 490240, Note_off_c, 2, 70, 67
4, 490240, Note_on_c, 2, 68, 67
4, 490240, Note_on_c, 2, 70, 67
4, 490304, Note_off_c, 2, 68, 67
4, 490304, Note_off_c, 2, 70, 67
4, 490368, Note_off_c, 2, 68, 67
4, 490368, Note_off_c, 2, 70, 67
4, 490368, Note_on_c, 2, 70, 67
4, 490368, Note_on_c, 2, 79, 67
4, 490432, Note_off_c, 2, 70, 67
4, 490432, Note_off_c, 2, 79, 67
4, 490432, Note_on_c, 2, 77, 67
4, 490432, Note_on_c, 2, 80, 67
4, 490496, Note_off_c, 2, 77, 67
4, 490496, Note_off_c, 2, 80, 67
4, 490496, Note_on_c, 2, 79, 67
4, 490496, Note_on_c, 2, 82, 67
4, 490560, Note_off_c, 2, 79, 67
4, 490560, Note_off_c, 2, 82, 67
4, 490624, Note_off_c, 2, 79, 67
4, 490624, Note_off_c, 2, 82, 67
4, 490624, Note_on_c, 2, 79, 67
4, 490624, Note_on_c, 2, 82, 67
4, 490688, Note_off_c, 2, 79, 67
4, 490688, Note_off_c, 2, 82, 67
4, 490752, Note_off_c, 2, 79, 67
4, 490752, Note_off_c, 2, 82, 67
4, 490752, Note_on_c, 2, 70, 67
4, 490752, Note_on_c, 2, 79, 67
4, 490816, Note_off_c, 2, 70, 67
4, 490816, Note_off_c, 2, 79, 67
4, 490880, Note_off_c, 2, 70, 67
4, 490880, Note_off_c, 2, 79, 67
4, 490880, Note_on_c, 2, 75, 67
4, 490880, Note_on_c, 2, 82, 67
4, 490944, Note_off_c, 2, 75, 67
4, 490944, Note_off_c, 2, 82, 67
4, 491008, Note_off_c, 2, 75, 67
4, 491008, Note_off_c, 2, 82, 67
4, 491008, Note_on_c, 2, 84, 67
4, 491008, Note_on_c, 2, 87, 67
4, 491072, Note_off_c, 2, 84, 67
4, 491072, Note_off_c, 2, 87, 67
4, 491136, Note_off_c, 2, 84, 67
4, 491136, Note_off_c, 2, 87, 67
4, 491136, Note_on_c, 2, 82, 67
4, 491136, Note_on_c, 2, 86, 67
4, 491200, Note_off_c, 2, 82, 67
4, 491200, Note_off_c, 2, 86, 67
4, 491264, Note_off_c, 2, 82, 67
4, 491264, Note_off_c, 2, 86, 67
4, 491264, Note_on_c, 2, 80, 67
4, 491264, Note_on_c, 2, 84, 67
4, 491328, Note_off_c, 2, 80, 67
4, 491328, Note_off_c, 2, 84, 67
4, 491392, Note_off_c, 2, 80, 67
4, 491392, Note_off_c, 2, 84, 67
4, 491392, Note_on_c, 2, 70, 67
4, 491392, Note_on_c, 2, 74, 67
4, 491424, Note_off_c, 2, 70, 67
4, 491424, Note_off_c, 2, 74, 67
4, 491456, Note_off_c, 2, 70, 67
4, 491456, Note_off_c, 2, 74, 67
4, 491456, Note_on_c, 2, 77, 67
4, 491456, Note_on_c, 2, 80, 67
4, 491488, Note_off_c, 2, 77, 67
4, 491488, Note_off_c, 2, 80, 67
4, 491520, Note_off_c, 2, 77, 67
4, 491520, Note_off_c, 2, 80, 67
4, 491520, Note_on_c, 2, 77, 67
4, 491520, Note_on_c, 2, 82, 67
4, 491584, Note_off_c, 2, 77, 67
4, 491584, Note_off_c, 2, 82, 67
4, 491648, Note_off_c, 2, 77, 67
4, 491648, Note_off_c, 2, 82, 67
4, 491648, Note_on_c, 2, 80, 67
4, 491648, Note_on_c, 2, 87, 67
4, 491712, Note_off_c, 2, 80, 67
4, 491712, Note_off_c, 2, 87, 67
4, 491776, Note_off_c, 2, 80, 67
4, 491776, Note_off_c, 2, 87, 67
4, 491776, Note_on_c, 2, 82, 67
4, 491776, Note_on_c, 2, 86, 67
4, 491840, Note_off_c, 2, 82, 67
4, 491840, Note_off_c, 2, 86, 67
4, 491904, Note_off_c, 2, 82, 67
4, 491904, Note_off_c, 2, 86, 67
4, 491904, Note_on_c, 2, 80, 67
4, 491904, Note_on_c, 2, 89, 67
4, 491968, Note_off_c, 2, 80, 67
4, 491968, Note_off_c, 2, 89, 67
4, 492032, Note_off_c, 2, 80, 67
4, 492032, Note_off_c, 2, 89, 67
4, 492032, Note_on_c, 2, 79, 67
4, 492032, Note_on_c, 2, 87, 67
4, 492096, Note_off_c, 2, 79, 67
4, 492096, Note_off_c, 2, 87, 67
4, 492160, Note_off_c, 2, 79, 67
4, 492160, Note_off_c, 2, 87, 67
4, 492160, Note_on_c, 2, 70, 67
4, 492160, Note_on_c, 2, 82, 67
4, 492224, Note_off_c, 2, 70, 67
4, 492224, Note_off_c, 2, 82, 67
4, 492288, Note_off_c, 2, 70, 67
4, 492288, Note_off_c, 2, 82, 67
4, 492288, Note_on_c, 2, 70, 67
4, 492288, Note_on_c, 2, 82, 67
4, 492352, Note_off_c, 2, 70, 67
4, 492352, Note_off_c, 2, 82, 67
4, 492416, Note_off_c, 2, 70, 67
4, 492416, Note_off_c, 2, 82, 67
4, 492416, Note_on_c, 2, 75, 67
4, 492480, Note_off_c, 2, 75, 67
4, 492480, Note_on_c, 2, 77, 67
4, 492544, Note_off_c, 2, 77, 67
4, 492544, Note_on_c, 2, 79, 67
4, 492608, Note_off_c, 2, 79, 67
4, 492672, Note_off_c, 2, 79, 67
4, 492672, Note_on_c, 2, 75, 67
4, 492672, Note_on_c, 2, 79, 67
4, 492736, Note_off_c, 2, 75, 67
4, 492736, Note_off_c, 2, 79, 67
4, 492800, Note_off_c, 2, 75, 67
4, 492800, Note_off_c, 2, 79, 67
4, 492800, Note_on_c, 2, 75, 67
4, 492800, Note_on_c, 2, 79, 67
4, 492864, Note_off_c, 2, 75, 67
4, 492864, Note_off_c, 2, 79, 67
4, 492928, Note_off_c, 2, 75, 67
4, 492928, Note_off_c, 2, 79, 67
4, 492928, Note_on_c, 2, 75, 67
4, 492992, Note_off_c, 2, 75, 67
4, 492992, Note_on_c, 2, 77, 67
4, 493056, Note_off_c, 2, 77, 67
4, 493056, Note_on_c, 2, 79, 67
4, 493120, Note_off_c, 2, 79, 67
4, 493184, Note_off_c, 2, 79, 67
4, 493184, Note_on_c, 2, 75, 67
4, 493184, Note_on_c, 2, 79, 67
4, 493248, Note_off_c, 2, 75, 67
4, 493248, Note_off_c, 2, 79, 67
4, 493312, Note_off_c, 2, 75, 67
4, 493312, Note_off_c, 2, 79, 67
4, 493312, Note_on_c, 2, 75, 67
4, 493312, Note_on_c, 2, 79, 67
4, 493376, Note_off_c, 2, 75, 67
4, 493376, Note_off_c, 2, 79, 67
4, 493440, Note_off_c, 2, 75, 67
4, 493440, Note_off_c, 2, 79, 67
4, 493440, Note_on_c, 2, 75, 67
4, 493504, Note_off_c, 2, 75, 67
4, 493504, Note_on_c, 2, 77, 67
4, 493568, Note_off_c, 2, 77, 67
4, 493568, Note_on_c, 2, 79, 67
4, 493632, Note_off_c, 2, 79, 67
4, 493696, Note_off_c, 2, 79, 67
4, 493696, Note_on_c, 2, 75, 67
4, 493696, Note_on_c, 2, 79, 67
4, 493760, Note_off_c, 2, 75, 67
4, 493760, Note_off_c, 2, 79, 67
4, 493824, Note_off_c, 2, 75, 67
4, 493824, Note_off_c, 2, 79, 67
4, 493824, Note_on_c, 2, 75, 67
4, 493824, Note_on_c, 2, 80, 67
4, 493856, Note_off_c, 2, 75, 67
4, 493856, Note_off_c, 2, 80, 67
4, 493888, Note_off_c, 2, 75, 67
4, 493888, Note_off_c, 2, 80, 67
4, 493888, Note_on_c, 2, 74, 67
4, 493920, Note_off_c, 2, 74, 67
4, 493952, Note_off_c, 2, 74, 67
4, 493952, Note_on_c, 2, 72, 67
4, 493984, Note_off_c, 2, 72, 67
4, 494016, Note_off_c, 2, 72, 67
4, 494016, Note_on_c, 2, 74, 67
4, 494016, Note_on_c, 2, 79, 67
4, 494048, Note_off_c, 2, 74, 67
4, 494048, Note_off_c, 2, 79, 67
4, 494080, Note_off_c, 2, 74, 67
4, 494080, Note_off_c, 2, 79, 67
4, 494080, Note_on_c, 2, 70, 67
4, 494080, Note_on_c, 2, 77, 67
4, 494144, Note_off_c, 2, 70, 67
4, 494144, Note_off_c, 2, 77, 67
4, 494208, Note_off_c, 2, 70, 67
4, 494208, Note_off_c, 2, 77, 67
4, 494208, Note_on_c, 2, 68, 67
4, 494208, Note_on_c, 2, 70, 67
4, 494272, Note_off_c, 2, 68, 67
4, 494272, Note_off_c, 2, 70, 67
4, 494336, Note_off_c, 2, 68, 67
4, 494336, Note_off_c, 2, 70, 67
4, 494336, Note_on_c, 2, 68, 67
4, 494336, Note_on_c, 2, 70, 67
4, 494400, Note_off_c, 2, 68, 67
4, 494400, Note_off_c, 2, 70, 67
4, 494464, Note_off_c, 2, 68, 67
4, 494464, Note_off_c, 2, 70, 67
4, 494464, Note_on_c, 2, 74, 67
4, 494528, Note_off_c, 2, 74, 67
4, 494528, Note_on_c, 2, 75, 67
4, 494592, Note_off_c, 2, 75, 67
4, 494592, Note_on_c, 2, 77, 67
4, 494656, Note_off_c, 2, 77, 67
4, 494720, Note_off_c, 2, 77, 67
4, 494720, Note_on_c, 2, 74, 67
4, 494720, Note_on_c, 2, 77, 67
4, 494784, Note_off_c, 2, 74, 67
4, 494784, Note_off_c, 2, 77, 67
4, 494848, Note_off_c, 2, 74, 67
4, 494848, Note_off_c, 2, 77, 67
4, 494848, Note_on_c, 2, 74, 67
4, 494848, Note_on_c, 2, 77, 67
4, 494912, Note_off_c, 2, 74, 67
4, 494912, Note_off_c, 2, 77, 67
4, 494976, Note_off_c, 2, 74, 67
4, 494976, Note_off_c, 2, 77, 67
4, 494976, Note_on_c, 2, 74, 67
4, 495040, Note_off_c, 2, 74, 67
4, 495040, Note_on_c, 2, 75, 67
4, 495104, Note_off_c, 2, 75, 67
4, 495104, Note_on_c, 2, 77, 67
4, 495168, Note_off_c, 2, 77, 67
4, 495232, Note_off_c, 2, 77, 67
4, 495232, Note_on_c, 2, 74, 67
4, 495232, Note_on_c, 2, 77, 67
4, 495296, Note_off_c, 2, 74, 67
4, 495296, Note_off_c, 2, 77, 67
4, 495360, Note_off_c, 2, 74, 67
4, 495360, Note_off_c, 2, 77, 67
4, 495360, Note_on_c, 2, 74, 67
4, 495360, Note_on_c, 2, 77, 67
4, 495424, Note_off_c, 2, 74, 67
4, 495424, Note_off_c, 2, 77, 67
4, 495488, Note_off_c, 2, 74, 67
4, 495488, Note_off_c, 2, 77, 67
4, 495488, Note_on_c, 2, 74, 67
4, 495552, Note_off_c, 2, 74, 67
4, 495552, Note_on_c, 2, 75, 67
4, 495616, Note_off_c, 2, 75, 67
4, 495616, Note_on_c, 2, 70, 67
4, 495616, Note_on_c, 2, 77, 67
4, 495680, Note_off_c, 2, 70, 67
4, 495680, Note_off_c, 2, 77, 67
4, 495744, Note_off_c, 2, 70, 67
4, 495744, Note_off_c, 2, 77, 67
4, 495744, Note_on_c, 2, 74, 67
4, 495744, Note_on_c, 2, 77, 67
4, 495808, Note_off_c, 2, 74, 67
4, 495808, Note_off_c, 2, 77, 67
4, 495872, Note_off_c, 2, 74, 67
4, 495872, Note_off_c, 2, 77, 67
4, 495872, Note_on_c, 2, 74, 67
4, 495872, Note_on_c, 2, 79, 67
4, 495904, Note_off_c, 2, 74, 67
4, 495904, Note_off_c, 2, 79, 67
4, 495936, Note_off_c, 2, 74, 67
4, 495936, Note_off_c, 2, 79, 67
4, 495936, Note_on_c, 2, 72, 67
4, 495936, Note_on_c, 2, 77, 67
4, 495968, Note_off_c, 2, 72, 67
4, 495968, Note_off_c, 2, 77, 67
4, 496000, Note_off_c, 2, 72, 67
4, 496000, Note_off_c, 2, 77, 67
4, 496000, Note_on_c, 2, 70, 67
4, 496000, Note_on_c, 2, 77, 67
4, 496032, Note_off_c, 2, 70, 67
4, 496032, Note_off_c, 2, 77, 67
4, 496064, Note_off_c, 2, 70, 67
4, 496064, Note_off_c, 2, 77, 67
4, 496064, Note_on_c, 2, 68, 67
4, 496064, Note_on_c, 2, 79, 67
4, 496096, Note_off_c, 2, 68, 67
4, 496096, Note_off_c, 2, 79, 67
4, 496128, Note_off_c, 2, 68, 67
4, 496128, Note_off_c, 2, 79, 67
4, 496128, Note_on_c, 2, 67, 67
4, 496128, Note_on_c, 2, 75, 67
4, 496192, Note_off_c, 2, 67, 67
4, 496192, Note_off_c, 2, 75, 67
4, 496256, Note_off_c, 2, 67, 67
4, 496256, Note_off_c, 2, 75, 67
4, 496256, Note_on_c, 2, 70, 67
4, 496320, Note_off_c, 2, 70, 67
4, 496384, Note_off_c, 2, 70, 67
4, 496384, Note_on_c, 2, 70, 67
4, 496384, Note_on_c, 2, 79, 67
4, 496448, Note_off_c, 2, 70, 67
4, 496448, Note_off_c, 2, 79, 67
4, 496512, Note_off_c, 2, 70, 67
4, 496512, Note_off_c, 2, 79, 67
4, 496512, Note_on_c, 2, 75, 67
4, 496576, Note_off_c, 2, 75, 67
4, 496576, Note_on_c, 2, 77, 67
4, 496640, Note_off_c, 2, 77, 67
4, 496640, Note_on_c, 2, 79, 67
4, 496704, Note_off_c, 2, 79, 67
4, 496768, Note_off_c, 2, 79, 67
4, 496768, Note_on_c, 2, 75, 67
4, 496768, Note_on_c, 2, 79, 67
4, 496832, Note_off_c, 2, 75, 67
4, 496832, Note_off_c, 2, 79, 67
4, 496896, Note_off_c, 2, 75, 67
4, 496896, Note_off_c, 2, 79, 67
4, 496896, Note_on_c, 2, 75, 67
4, 496896, Note_on_c, 2, 79, 67
4, 496960, Note_off_c, 2, 75, 67
4, 496960, Note_off_c, 2, 79, 67
4, 497024, Note_off_c, 2, 75, 67
4, 497024, Note_off_c, 2, 79, 67
4, 497024, Note_on_c, 2, 75, 67
4, 497088, Note_off_c, 2, 75, 67
4, 497088, Note_on_c, 2, 77, 67
4, 497152, Note_off_c, 2, 77, 67
4, 497152, Note_on_c, 2, 79, 67
4, 497216, Note_off_c, 2, 79, 67
4, 497280, Note_off_c, 2, 79, 67
4, 497280, Note_on_c, 2, 75, 67
4, 497280, Note_on_c, 2, 79, 67
4, 497344, Note_off_c, 2, 75, 67
4, 497344, Note_off_c, 2, 79, 67
4, 497408, Note_off_c, 2, 75, 67
4, 497408, Note_off_c, 2, 79, 67
4, 497408, Note_on_c, 2, 75, 67
4, 497408, Note_on_c, 2, 79, 67
4, 497472, Note_off_c, 2, 75, 67
4, 497472, Note_off_c, 2, 79, 67
4, 497536, Note_off_c, 2, 75, 67
4, 497536, Note_off_c, 2, 79, 67
4, 497536, Note_on_c, 2, 75, 67
4, 497600, Note_off_c, 2, 75, 67
4, 497600, Note_on_c, 2, 77, 67
4, 497664, Note_off_c, 2, 77, 67
4, 497664, Note_on_c, 2, 79, 67
4, 497728, Note_off_c, 2, 79, 67
4, 497792, Note_off_c, 2, 79, 67
4, 497792, Note_on_c, 2, 75, 67
4, 497792, Note_on_c, 2, 79, 67
4, 497856, Note_off_c, 2, 75, 67
4, 497856, Note_off_c, 2, 79, 67
4, 497920, Note_off_c, 2, 75, 67
4, 497920, Note_off_c, 2, 79, 67
4, 497920, Note_on_c, 2, 75, 67
4, 497920, Note_on_c, 2, 80, 67
4, 497952, Note_off_c, 2, 75, 67
4, 497952, Note_off_c, 2, 80, 67
4, 497984, Note_off_c, 2, 75, 67
4, 497984, Note_off_c, 2, 80, 67
4, 497984, Note_on_c, 2, 74, 67
4, 498048, Note_off_c, 2, 74, 67
4, 498048, Note_on_c, 2, 72, 67
4, 498112, Note_off_c, 2, 72, 67
4, 498112, Note_on_c, 2, 74, 67
4, 498112, Note_on_c, 2, 79, 67
4, 498144, Note_off_c, 2, 74, 67
4, 498144, Note_off_c, 2, 79, 67
4, 498176, Note_off_c, 2, 74, 67
4, 498176, Note_off_c, 2, 79, 67
4, 498176, Note_on_c, 2, 70, 67
4, 498176, Note_on_c, 2, 77, 67
4, 498240, Note_off_c, 2, 70, 67
4, 498240, Note_off_c, 2, 77, 67
4, 498304, Note_off_c, 2, 70, 67
4, 498304, Note_off_c, 2, 77, 67
4, 498304, Note_on_c, 2, 68, 67
4, 498304, Note_on_c, 2, 70, 67
4, 498368, Note_off_c, 2, 68, 67
4, 498368, Note_off_c, 2, 70, 67
4, 498432, Note_off_c, 2, 68, 67
4, 498432, Note_off_c, 2, 70, 67
4, 498432, Note_on_c, 2, 68, 67
4, 498432, Note_on_c, 2, 70, 67
4, 498496, Note_off_c, 2, 68, 67
4, 498496, Note_off_c, 2, 70, 67
4, 498560, Note_off_c, 2, 68, 67
4, 498560, Note_off_c, 2, 70, 67
4, 498560, Note_on_c, 2, 74, 67
4, 498624, Note_off_c, 2, 74, 67
4, 498624, Note_on_c, 2, 75, 67
4, 498688, Note_off_c, 2, 75, 67
4, 498688, Note_on_c, 2, 77, 67
4, 498816, Note_off_c, 2, 77, 67
4, 498816, Note_on_c, 2, 74, 67
4, 498816, Note_on_c, 2, 80, 67
4, 498880, Note_off_c, 2, 74, 67
4, 498880, Note_off_c, 2, 80, 67
4, 498944, Note_off_c, 2, 74, 67
4, 498944, Note_off_c, 2, 80, 67
4, 498944, Note_on_c, 2, 74, 67
4, 498944, Note_on_c, 2, 79, 67
4, 499008, Note_off_c, 2, 74, 67
4, 499008, Note_off_c, 2, 79, 67
4, 499072, Note_off_c, 2, 74, 67
4, 499072, Note_off_c, 2, 79, 67
4, 499072, Note_on_c, 2, 77, 67
4, 499136, Note_off_c, 2, 77, 67
4, 499200, Note_off_c, 2, 77, 67
4, 499200, Note_on_c, 2, 75, 67
4, 499264, Note_off_c, 2, 75, 67
4, 499328, Note_off_c, 2, 75, 67
4, 499328, Note_on_c, 2, 70, 67
4, 499328, Note_on_c, 2, 74, 67
4, 499392, Note_off_c, 2, 70, 67
4, 499392, Note_off_c, 2, 74, 67
4, 499456, Note_off_c, 2, 70, 67
4, 499456, Note_off_c, 2, 74, 67
4, 499456, Note_on_c, 2, 72, 67
4, 499456, Note_on_c, 2, 74, 67
4, 499520, Note_off_c, 2, 72, 67
4, 499520, Note_off_c, 2, 74, 67
4, 499584, Note_off_c, 2, 72, 67
4, 499584, Note_off_c, 2, 74, 67
4, 499584, Note_on_c, 2, 70, 67
4, 499584, Note_on_c, 2, 74, 67
4, 499648, Note_off_c, 2, 70, 67
4, 499648, Note_off_c, 2, 74, 67
4, 499712, Note_off_c, 2, 70, 67
4, 499712, Note_off_c, 2, 74, 67
4, 499712, Note_on_c, 2, 80, 67
4, 499712, Note_on_c, 2, 84, 67
4, 499968, Note_off_c, 2, 80, 67
4, 499968, Note_off_c, 2, 84, 67
4, 499968, Note_on_c, 2, 70, 67
4, 499968, Note_on_c, 2, 74, 67
4, 499984, Note_off_c, 2, 70, 67
4, 499984, Note_off_c, 2, 74, 67
4, 500000, Note_off_c, 2, 70, 67
4, 500000, Note_off_c, 2, 74, 67
4, 500000, Note_on_c, 2, 72, 67
4, 500000, Note_on_c, 2, 75, 67
4, 500016, Note_off_c, 2, 72, 67
4, 500016, Note_off_c, 2, 75, 67
4, 500032, Note_off_c, 2, 72, 67
4, 500032, Note_off_c, 2, 75, 67
4, 500032, Note_on_c, 2, 70, 67
4, 500032, Note_on_c, 2, 74, 67
4, 500064, Note_off_c, 2, 70, 67
4, 500064, Note_off_c, 2, 74, 67
4, 500096, Note_off_c, 2, 70, 67
4, 500096, Note_off_c, 2, 74, 67
4, 500096, Note_on_c, 2, 68, 67
4, 500096, Note_on_c, 2, 72, 67
4, 500128, Note_off_c, 2, 68, 67
4, 500128, Note_off_c, 2, 72, 67
4, 500160, Note_off_c, 2, 68, 67
4, 500160, Note_off_c, 2, 72, 67
4, 500160, Note_on_c, 2, 74, 67
4, 500160, Note_on_c, 2, 77, 67
4, 500192, Note_off_c, 2, 74, 67
4, 500192, Note_off_c, 2, 77, 67
4, 500224, Note_off_c, 2, 74, 67
4, 500224, Note_off_c, 2, 77, 67
4, 500224, Note_on_c, 2, 75, 67
4, 500224, Note_on_c, 2, 79, 67
4, 500352, Note_off_c, 2, 75, 67
4, 500352, Note_off_c, 2, 79, 67
4, 500352, Note_on_c, 2, 70, 67
4, 500416, Note_off_c, 2, 70, 67
4, 500480, Note_off_c, 2, 70, 67
4, 500480, Note_on_c, 2, 70, 67
4, 500544, Note_off_c, 2, 70, 67
4, 500608, Note_off_c, 2, 70, 67
4, 500608, Note_on_c, 2, 75, 67
4, 500608, Note_on_c, 2, 79, 67
4, 500672, Note_off_c, 2, 75, 67
4, 500672, Note_off_c, 2, 79, 67
4, 500672, Note_on_c, 2, 77, 67
4, 500672, Note_on_c, 2, 80, 67
4, 500736, Note_off_c, 2, 77, 67
4, 500736, Note_off_c, 2, 80, 67
4, 500736, Note_on_c, 2, 79, 67
4, 500736, Note_on_c, 2, 82, 67
4, 500800, Note_off_c, 2, 79, 67
4, 500800, Note_off_c, 2, 82, 67
4, 500864, Note_off_c, 2, 79, 67
4, 500864, Note_off_c, 2, 82, 67
4, 500864, Note_on_c, 2, 79, 67
4, 500864, Note_on_c, 2, 82, 67
4, 500928, Note_off_c, 2, 79, 67
4, 500928, Note_off_c, 2, 82, 67
4, 500992, Note_off_c, 2, 79, 67
4, 500992, Note_off_c, 2, 82, 67
4, 500992, Note_on_c, 2, 70, 67
4, 500992, Note_on_c, 2, 79, 67
4, 501056, Note_off_c, 2, 70, 67
4, 501056, Note_off_c, 2, 79, 67
4, 501120, Note_off_c, 2, 70, 67
4, 501120, Note_off_c, 2, 79, 67
4, 501120, Note_on_c, 2, 70, 67
4, 501120, Note_on_c, 2, 75, 67
4, 501184, Note_off_c, 2, 70, 67
4, 501184, Note_off_c, 2, 75, 67
4, 501248, Note_off_c, 2, 70, 67
4, 501248, Note_off_c, 2, 75, 67
4, 501248, Note_on_c, 2, 84, 67
4, 501248, Note_on_c, 2, 87, 67
4, 501312, Note_off_c, 2, 84, 67
4, 501312, Note_off_c, 2, 87, 67
4, 501376, Note_off_c, 2, 84, 67
4, 501376, Note_off_c, 2, 87, 67
4, 501376, Note_on_c, 2, 82, 67
4, 501376, Note_on_c, 2, 86, 67
4, 501440, Note_off_c, 2, 82, 67
4, 501440, Note_off_c, 2, 86, 67
4, 501504, Note_off_c, 2, 82, 67
4, 501504, Note_off_c, 2, 86, 67
4, 501504, Note_on_c, 2, 80, 67
4, 501504, Note_on_c, 2, 84, 67
4, 501568, Note_off_c, 2, 80, 67
4, 501568, Note_off_c, 2, 84, 67
4, 501632, Note_off_c, 2, 80, 67
4, 501632, Note_off_c, 2, 84, 67
4, 501632, Note_on_c, 2, 79, 67
4, 501632, Note_on_c, 2, 87, 67
4, 501696, Note_off_c, 2, 79, 67
4, 501696, Note_off_c, 2, 87, 67
4, 501760, Note_off_c, 2, 79, 67
4, 501760, Note_off_c, 2, 87, 67
4, 501760, Note_on_c, 2, 75, 67
4, 501760, Note_on_c, 2, 82, 67
4, 501824, Note_off_c, 2, 75, 67
4, 501824, Note_off_c, 2, 82, 67
4, 501888, Note_off_c, 2, 75, 67
4, 501888, Note_off_c, 2, 82, 67
4, 501888, Note_on_c, 2, 79, 67
4, 501952, Note_off_c, 2, 79, 67
4, 502016, Note_off_c, 2, 79, 67
4, 502016, Note_on_c, 2, 67, 67
4, 502016, Note_on_c, 2, 75, 67
4, 502080, Note_off_c, 2, 67, 67
4, 502080, Note_off_c, 2, 75, 67
4, 502144, Note_off_c, 2, 67, 67
4, 502144, Note_off_c, 2, 75, 67
4, 502144, Note_on_c, 2, 68, 67
4, 502144, Note_on_c, 2, 74, 67
4, 502176, Note_off_c, 2, 68, 67
4, 502176, Note_off_c, 2, 74, 67
4, 502208, Note_off_c, 2, 68, 67
4, 502208, Note_off_c, 2, 74, 67
4, 502208, Note_on_c, 2, 74, 67
4, 502208, Note_on_c, 2, 79, 67
4, 502240, Note_off_c, 2, 74, 67
4, 502240, Note_off_c, 2, 79, 67
4, 502272, Note_off_c, 2, 74, 67
4, 502272, Note_off_c, 2, 79, 67
4, 502272, Note_on_c, 2, 70, 67
4, 502272, Note_on_c, 2, 77, 67
4, 502336, Note_off_c, 2, 70, 67
4, 502336, Note_off_c, 2, 77, 67
4, 502400, Note_off_c, 2, 70, 67
4, 502400, Note_off_c, 2, 77, 67
4, 502400, Note_on_c, 2, 65, 67
4, 502400, Note_on_c, 2, 70, 67
4, 502464, Note_off_c, 2, 65, 67
4, 502464, Note_off_c, 2, 70, 67
4, 502528, Note_off_c, 2, 65, 67
4, 502528, Note_off_c, 2, 70, 67
4, 502528, Note_on_c, 2, 68, 67
4, 502528, Note_on_c, 2, 70, 67
4, 502592, Note_off_c, 2, 68, 67
4, 502592, Note_off_c, 2, 70, 67
4, 502656, Note_off_c, 2, 68, 67
4, 502656, Note_off_c, 2, 70, 67
4, 502656, Note_on_c, 2, 70, 67
4, 502656, Note_on_c, 2, 79, 67
4, 502720, Note_off_c, 2, 70, 67
4, 502720, Note_off_c, 2, 79, 67
4, 502720, Note_on_c, 2, 77, 67
4, 502720, Note_on_c, 2, 80, 67
4, 502784, Note_off_c, 2, 77, 67
4, 502784, Note_off_c, 2, 80, 67
4, 502784, Note_on_c, 2, 79, 67
4, 502784, Note_on_c, 2, 82, 67
4, 502848, Note_off_c, 2, 79, 67
4, 502848, Note_off_c, 2, 82, 67
4, 502912, Note_off_c, 2, 79, 67
4, 502912, Note_off_c, 2, 82, 67
4, 502912, Note_on_c, 2, 79, 67
4, 502912, Note_on_c, 2, 82, 67
4, 502976, Note_off_c, 2, 79, 67
4, 502976, Note_off_c, 2, 82, 67
4, 503040, Note_off_c, 2, 79, 67
4, 503040, Note_off_c, 2, 82, 67
4, 503040, Note_on_c, 2, 70, 67
4, 503040, Note_on_c, 2, 79, 67
4, 503104, Note_off_c, 2, 70, 67
4, 503104, Note_off_c, 2, 79, 67
4, 503168, Note_off_c, 2, 70, 67
4, 503168, Note_off_c, 2, 79, 67
4, 503168, Note_on_c, 2, 75, 67
4, 503168, Note_on_c, 2, 82, 67
4, 503232, Note_off_c, 2, 75, 67
4, 503232, Note_off_c, 2, 82, 67
4, 503296, Note_off_c, 2, 75, 67
4, 503296, Note_off_c, 2, 82, 67
4, 503296, Note_on_c, 2, 84, 67
4, 503296, Note_on_c, 2, 87, 67
4, 503360, Note_off_c, 2, 84, 67
4, 503360, Note_off_c, 2, 87, 67
4, 503424, Note_off_c, 2, 84, 67
4, 503424, Note_off_c, 2, 87, 67
4, 503424, Note_on_c, 2, 82, 67
4, 503424, Note_on_c, 2, 86, 67
4, 503488, Note_off_c, 2, 82, 67
4, 503488, Note_off_c, 2, 86, 67
4, 503552, Note_off_c, 2, 82, 67
4, 503552, Note_off_c, 2, 86, 67
4, 503552, Note_on_c, 2, 80, 67
4, 503552, Note_on_c, 2, 84, 67
4, 503616, Note_off_c, 2, 80, 67
4, 503616, Note_off_c, 2, 84, 67
4, 503680, Note_off_c, 2, 80, 67
4, 503680, Note_off_c, 2, 84, 67
4, 503680, Note_on_c, 2, 70, 67
4, 503680, Note_on_c, 2, 74, 67
4, 503712, Note_off_c, 2, 70, 67
4, 503712, Note_off_c, 2, 74, 67
4, 503744, Note_off_c, 2, 70, 67
4, 503744, Note_off_c, 2, 74, 67
4, 503744, Note_on_c, 2, 77, 67
4, 503744, Note_on_c, 2, 80, 67
4, 503776, Note_off_c, 2, 77, 67
4, 503776, Note_off_c, 2, 80, 67
4, 503808, Note_off_c, 2, 77, 67
4, 503808, Note_off_c, 2, 80, 67
4, 503808, Note_on_c, 2, 77, 67
4, 503808, Note_on_c, 2, 82, 67
4, 503872, Note_off_c, 2, 77, 67
4, 503872, Note_off_c, 2, 82, 67
4, 503936, Note_off_c, 2, 77, 67
4, 503936, Note_off_c, 2, 82, 67
4, 503936, Note_on_c, 2, 80, 67
4, 503936, Note_on_c, 2, 87, 67
4, 504000, Note_off_c, 2, 80, 67
4, 504000, Note_off_c, 2, 87, 67
4, 504064, Note_off_c, 2, 80, 67
4, 504064, Note_off_c, 2, 87, 67
4, 504064, Note_on_c, 2, 82, 67
4, 504064, Note_on_c, 2, 86, 67
4, 504128, Note_off_c, 2, 82, 67
4, 504128, Note_off_c, 2, 86, 67
4, 504192, Note_off_c, 2, 82, 67
4, 504192, Note_off_c, 2, 86, 67
4, 504192, Note_on_c, 2, 80, 67
4, 504192, Note_on_c, 2, 89, 67
4, 504256, Note_off_c, 2, 80, 67
4, 504256, Note_off_c, 2, 89, 67
4, 504320, Note_off_c, 2, 80, 67
4, 504320, Note_off_c, 2, 89, 67
4, 504320, Note_on_c, 2, 79, 67
4, 504320, Note_on_c, 2, 87, 67
4, 504384, Note_off_c, 2, 79, 67
4, 504384, Note_off_c, 2, 87, 67
4, 504448, Note_off_c, 2, 79, 67
4, 504448, Note_off_c, 2, 87, 67
4, 504448, Note_on_c, 2, 70, 67
4, 504448, Note_on_c, 2, 82, 67
4, 504512, Note_off_c, 2, 70, 67
4, 504512, Note_off_c, 2, 82, 67
4, 504576, Note_off_c, 2, 70, 67
4, 504576, Note_off_c, 2, 82, 67
4, 504576, Note_on_c, 2, 70, 67
4, 504576, Note_on_c, 2, 82, 67
4, 504640, Note_off_c, 2, 70, 67
4, 504640, Note_off_c, 2, 82, 67
4, 504704, Note_off_c, 2, 70, 67
4, 504704, Note_off_c, 2, 82, 67
4, 504704, Note_on_c, 2, 75, 67
4, 504768, Note_off_c, 2, 75, 67
4, 504768, Note_on_c, 2, 77, 67
4, 504832, Note_off_c, 2, 77, 67
4, 504832, Note_on_c, 2, 79, 67
4, 504896, Note_off_c, 2, 79, 67
4, 504960, Note_off_c, 2, 79, 67
4, 504960, Note_on_c, 2, 75, 67
4, 504960, Note_on_c, 2, 79, 67
4, 505024, Note_off_c, 2, 75, 67
4, 505024, Note_off_c, 2, 79, 67
4, 505088, Note_off_c, 2, 75, 67
4, 505088, Note_off_c, 2, 79, 67
4, 505088, Note_on_c, 2, 75, 67
4, 505088, Note_on_c, 2, 79, 67
4, 505152, Note_off_c, 2, 75, 67
4, 505152, Note_off_c, 2, 79, 67
4, 505216, Note_off_c, 2, 75, 67
4, 505216, Note_off_c, 2, 79, 67
4, 505216, Note_on_c, 2, 75, 67
4, 505280, Note_off_c, 2, 75, 67
4, 505280, Note_on_c, 2, 77, 67
4, 505344, Note_off_c, 2, 77, 67
4, 505344, Note_on_c, 2, 79, 67
4, 505408, Note_off_c, 2, 79, 67
4, 505472, Note_off_c, 2, 79, 67
4, 505472, Note_on_c, 2, 75, 67
4, 505472, Note_on_c, 2, 79, 67
4, 505536, Note_off_c, 2, 75, 67
4, 505536, Note_off_c, 2, 79, 67
4, 505600, Note_off_c, 2, 75, 67
4, 505600, Note_off_c, 2, 79, 67
4, 505600, Note_on_c, 2, 75, 67
4, 505600, Note_on_c, 2, 79, 67
4, 505664, Note_off_c, 2, 75, 67
4, 505664, Note_off_c, 2, 79, 67
4, 505728, Note_off_c, 2, 75, 67
4, 505728, Note_off_c, 2, 79, 67
4, 505728, Note_on_c, 2, 75, 67
4, 505792, Note_off_c, 2, 75, 67
4, 505792, Note_on_c, 2, 77, 67
4, 505856, Note_off_c, 2, 77, 67
4, 505856, Note_on_c, 2, 79, 67
4, 505920, Note_off_c, 2, 79, 67
4, 505984, Note_off_c, 2, 79, 67
4, 505984, Note_on_c, 2, 75, 67
4, 505984, Note_on_c, 2, 79, 67
4, 506048, Note_off_c, 2, 75, 67
4, 506048, Note_off_c, 2, 79, 67
4, 506112, Note_off_c, 2, 75, 67
4, 506112, Note_off_c, 2, 79, 67
4, 506112, Note_on_c, 2, 75, 67
4, 506112, Note_on_c, 2, 80, 67
4, 506144, Note_off_c, 2, 75, 67
4, 506144, Note_off_c, 2, 80, 67
4, 506176, Note_off_c, 2, 75, 67
4, 506176, Note_off_c, 2, 80, 67
4, 506176, Note_on_c, 2, 74, 67
4, 506208, Note_off_c, 2, 74, 67
4, 506240, Note_off_c, 2, 74, 67
4, 506240, Note_on_c, 2, 72, 67
4, 506272, Note_off_c, 2, 72, 67
4, 506304, Note_off_c, 2, 72, 67
4, 506304, Note_on_c, 2, 74, 67
4, 506304, Note_on_c, 2, 79, 67
4, 506336, Note_off_c, 2, 74, 67
4, 506336, Note_off_c, 2, 79, 67
4, 506368, Note_off_c, 2, 74, 67
4, 506368, Note_off_c, 2, 79, 67
4, 506368, Note_on_c, 2, 70, 67
4, 506368, Note_on_c, 2, 77, 67
4, 506432, Note_off_c, 2, 70, 67
4, 506432, Note_off_c, 2, 77, 67
4, 506496, Note_off_c, 2, 70, 67
4, 506496, Note_off_c, 2, 77, 67
4, 506496, Note_on_c, 2, 68, 67
4, 506496, Note_on_c, 2, 70, 67
4, 506560, Note_off_c, 2, 68, 67
4, 506560, Note_off_c, 2, 70, 67
4, 506624, Note_off_c, 2, 68, 67
4, 506624, Note_off_c, 2, 70, 67
4, 506624, Note_on_c, 2, 68, 67
4, 506624, Note_on_c, 2, 70, 67
4, 506688, Note_off_c, 2, 68, 67
4, 506688, Note_off_c, 2, 70, 67
4, 506752, Note_off_c, 2, 68, 67
4, 506752, Note_off_c, 2, 70, 67
4, 506752, Note_on_c, 2, 74, 67
4, 506816, Note_off_c, 2, 74, 67
4, 506816, Note_on_c, 2, 75, 67
4, 506880, Note_off_c, 2, 75, 67
4, 506880, Note_on_c, 2, 77, 67
4, 506944, Note_off_c, 2, 77, 67
4, 507008, Note_off_c, 2, 77, 67
4, 507008, Note_on_c, 2, 74, 67
4, 507008, Note_on_c, 2, 77, 67
4, 507072, Note_off_c, 2, 74, 67
4, 507072, Note_off_c, 2, 77, 67
4, 507136, Note_off_c, 2, 74, 67
4, 507136, Note_off_c, 2, 77, 67
4, 507136, Note_on_c, 2, 74, 67
4, 507136, Note_on_c, 2, 77, 67
4, 507200, Note_off_c, 2, 74, 67
4, 507200, Note_off_c, 2, 77, 67
4, 507264, Note_off_c, 2, 74, 67
4, 507264, Note_off_c, 2, 77, 67
4, 507264, Note_on_c, 2, 74, 67
4, 507328, Note_off_c, 2, 74, 67
4, 507328, Note_on_c, 2, 75, 67
4, 507392, Note_off_c, 2, 75, 67
4, 507392, Note_on_c, 2, 77, 67
4, 507456, Note_off_c, 2, 77, 67
4, 507520, Note_off_c, 2, 77, 67
4, 507520, Note_on_c, 2, 74, 67
4, 507520, Note_on_c, 2, 77, 67
4, 507584, Note_off_c, 2, 74, 67
4, 507584, Note_off_c, 2, 77, 67
4, 507648, Note_off_c, 2, 74, 67
4, 507648, Note_off_c, 2, 77, 67
4, 507648, Note_on_c, 2, 74, 67
4, 507648, Note_on_c, 2, 77, 67
4, 507712, Note_off_c, 2, 74, 67
4, 507712, Note_off_c, 2, 77, 67
4, 507776, Note_off_c, 2, 74, 67
4, 507776, Note_off_c, 2, 77, 67
4, 507776, Note_on_c, 2, 74, 67
4, 507840, Note_off_c, 2, 74, 67
4, 507840, Note_on_c, 2, 75, 67
4, 507904, Note_off_c, 2, 75, 67
4, 507904, Note_on_c, 2, 70, 67
4, 507904, Note_on_c, 2, 77, 67
4, 507968, Note_off_c, 2, 70, 67
4, 507968, Note_off_c, 2, 77, 67
4, 508032, Note_off_c, 2, 70, 67
4, 508032, Note_off_c, 2, 77, 67
4, 508032, Note_on_c, 2, 74, 67
4, 508032, Note_on_c, 2, 77, 67
4, 508096, Note_off_c, 2, 74, 67
4, 508096, Note_off_c, 2, 77, 67
4, 508160, Note_off_c, 2, 74, 67
4, 508160, Note_off_c, 2, 77, 67
4, 508160, Note_on_c, 2, 74, 67
4, 508160, Note_on_c, 2, 79, 67
4, 508192, Note_off_c, 2, 74, 67
4, 508192, Note_off_c, 2, 79, 67
4, 508224, Note_off_c, 2, 74, 67
4, 508224, Note_off_c, 2, 79, 67
4, 508224, Note_on_c, 2, 72, 67
4, 508224, Note_on_c, 2, 77, 67
4, 508256, Note_off_c, 2, 72, 67
4, 508256, Note_off_c, 2, 77, 67
4, 508288, Note_off_c, 2, 72, 67
4, 508288, Note_off_c, 2, 77, 67
4, 508288, Note_on_c, 2, 70, 67
4, 508288, Note_on_c, 2, 77, 67
4, 508320, Note_off_c, 2, 70, 67
4, 508320, Note_off_c, 2, 77, 67
4, 508352, Note_off_c, 2, 70, 67
4, 508352, Note_off_c, 2, 77, 67
4, 508352, Note_on_c, 2, 68, 67
4, 508352, Note_on_c, 2, 79, 67
4, 508384, Note_off_c, 2, 68, 67
4, 508384, Note_off_c, 2, 79, 67
4, 508416, Note_off_c, 2, 68, 67
4, 508416, Note_off_c, 2, 79, 67
4, 508416, Note_on_c, 2, 67, 67
4, 508416, Note_on_c, 2, 75, 67
4, 508480, Note_off_c, 2, 67, 67
4, 508480, Note_off_c, 2, 75, 67
4, 508544, Note_off_c, 2, 67, 67
4, 508544, Note_off_c, 2, 75, 67
4, 508544, Note_on_c, 2, 70, 67
4, 508608, Note_off_c, 2, 70, 67
4, 508672, Note_off_c, 2, 70, 67
4, 508672, Note_on_c, 2, 70, 67
4, 508672, Note_on_c, 2, 79, 67
4, 508736, Note_off_c, 2, 70, 67
4, 508736, Note_off_c, 2, 79, 67
4, 508800, Note_off_c, 2, 70, 67
4, 508800, Note_off_c, 2, 79, 67
4, 508800, Note_on_c, 2, 75, 67
4, 508864, Note_off_c, 2, 75, 67
4, 508864, Note_on_c, 2, 77, 67
4, 508928, Note_off_c, 2, 77, 67
4, 508928, Note_on_c, 2, 79, 67
4, 508992, Note_off_c, 2, 79, 67
4, 509056, Note_off_c, 2, 79, 67
4, 509056, Note_on_c, 2, 75, 67
4, 509056, Note_on_c, 2, 79, 67
4, 509120, Note_off_c, 2, 75, 67
4, 509120, Note_off_c, 2, 79, 67
4, 509184, Note_off_c, 2, 75, 67
4, 509184, Note_off_c, 2, 79, 67
4, 509184, Note_on_c, 2, 75, 67
4, 509184, Note_on_c, 2, 79, 67
4, 509248, Note_off_c, 2, 75, 67
4, 509248, Note_off_c, 2, 79, 67
4, 509312, Note_off_c, 2, 75, 67
4, 509312, Note_off_c, 2, 79, 67
4, 509312, Note_on_c, 2, 75, 67
4, 509376, Note_off_c, 2, 75, 67
4, 509376, Note_on_c, 2, 77, 67
4, 509440, Note_off_c, 2, 77, 67
4, 509440, Note_on_c, 2, 79, 67
4, 509504, Note_off_c, 2, 79, 67
4, 509568, Note_off_c, 2, 79, 67
4, 509568, Note_on_c, 2, 75, 67
4, 509568, Note_on_c, 2, 79, 67
4, 509632, Note_off_c, 2, 75, 67
4, 509632, Note_off_c, 2, 79, 67
4, 509696, Note_off_c, 2, 75, 67
4, 509696, Note_off_c, 2, 79, 67
4, 509696, Note_on_c, 2, 75, 67
4, 509696, Note_on_c, 2, 79, 67
4, 509760, Note_off_c, 2, 75, 67
4, 509760, Note_off_c, 2, 79, 67
4, 509824, Note_off_c, 2, 75, 67
4, 509824, Note_off_c, 2, 79, 67
4, 509824, Note_on_c, 2, 75, 67
4, 509888, Note_off_c, 2, 75, 67
4, 509888, Note_on_c, 2, 77, 67
4, 509952, Note_off_c, 2, 77, 67
4, 509952, Note_on_c, 2, 79, 67
4, 510016, Note_off_c, 2, 79, 67
4, 510080, Note_off_c, 2, 79, 67
4, 510080, Note_on_c, 2, 75, 67
4, 510080, Note_on_c, 2, 79, 67
4, 510144, Note_off_c, 2, 75, 67
4, 510144, Note_off_c, 2, 79, 67
4, 510208, Note_off_c, 2, 75, 67
4, 510208, Note_off_c, 2, 79, 67
4, 510208, Note_on_c, 2, 75, 67
4, 510208, Note_on_c, 2, 80, 67
4, 510240, Note_off_c, 2, 75, 67
4, 510240, Note_off_c, 2, 80, 67
4, 510272, Note_off_c, 2, 75, 67
4, 510272, Note_off_c, 2, 80, 67
4, 510272, Note_on_c, 2, 74, 67
4, 510336, Note_off_c, 2, 74, 67
4, 510336, Note_on_c, 2, 72, 67
4, 510400, Note_off_c, 2, 72, 67
4, 510400, Note_on_c, 2, 74, 67
4, 510400, Note_on_c, 2, 79, 67
4, 510432, Note_off_c, 2, 74, 67
4, 510432, Note_off_c, 2, 79, 67
4, 510464, Note_off_c, 2, 74, 67
4, 510464, Note_off_c, 2, 79, 67
4, 510464, Note_on_c, 2, 70, 67
4, 510464, Note_on_c, 2, 77, 67
4, 510528, Note_off_c, 2, 70, 67
4, 510528, Note_off_c, 2, 77, 67
4, 510592, Note_off_c, 2, 70, 67
4, 510592, Note_off_c, 2, 77, 67
4, 510592, Note_on_c, 2, 68, 67
4, 510592, Note_on_c, 2, 70, 67
4, 510656, Note_off_c, 2, 68, 67
4, 510656, Note_off_c, 2, 70, 67
4, 510720, Note_off_c, 2, 68, 67
4, 510720, Note_off_c, 2, 70, 67
4, 510720, Note_on_c, 2, 68, 67
4, 510720, Note_on_c, 2, 70, 67
4, 510784, Note_off_c, 2, 68, 67
4, 510784, Note_off_c, 2, 70, 67
4, 510848, Note_off_c, 2, 68, 67
4, 510848, Note_off_c, 2, 70, 67
4, 510848, Note_on_c, 2, 74, 67
4, 510912, Note_off_c, 2, 74, 67
4, 510912, Note_on_c, 2, 75, 67
4, 510976, Note_off_c, 2, 75, 67
4, 510976, Note_on_c, 2, 77, 67
4, 511104, Note_off_c, 2, 77, 67
4, 511104, Note_on_c, 2, 74, 67
4, 511104, Note_on_c, 2, 80, 67
4, 511168, Note_off_c, 2, 74, 67
4, 511168, Note_off_c, 2, 80, 67
4, 511232, Note_off_c, 2, 74, 67
4, 511232, Note_off_c, 2, 80, 67
4, 511232, Note_on_c, 2, 74, 67
4, 511232, Note_on_c, 2, 79, 67
4, 511296, Note_off_c, 2, 74, 67
4, 511296, Note_off_c, 2, 79, 67
4, 511360, Note_off_c, 2, 74, 67
4, 511360, Note_off_c, 2, 79, 67
4, 511360, Note_on_c, 2, 77, 67
4, 511424, Note_off_c, 2, 77, 67
4, 511488, Note_off_c, 2, 77, 67
4, 511488, Note_on_c, 2, 75, 67
4, 511552, Note_off_c, 2, 75, 67
4, 511616, Note_off_c, 2, 75, 67
4, 511616, Note_on_c, 2, 70, 67
4, 511616, Note_on_c, 2, 74, 67
4, 511680, Note_off_c, 2, 70, 67
4, 511680, Note_off_c, 2, 74, 67
4, 511744, Note_off_c, 2, 70, 67
4, 511744, Note_off_c, 2, 74, 67
4, 511744, Note_on_c, 2, 72, 67
4, 511744, Note_on_c, 2, 74, 67
4, 511808, Note_off_c, 2, 72, 67
4, 511808, Note_off_c, 2, 74, 67
4, 511872, Note_off_c, 2, 72, 67
4, 511872, Note_off_c, 2, 74, 67
4, 511872, Note_on_c, 2, 70, 67
4, 511872, Note_on_c, 2, 74, 67
4, 511936, Note_off_c, 2, 70, 67
4, 511936, Note_off_c, 2, 74, 67
4, 512000, Note_off_c, 2, 70, 67
4, 512000, Note_off_c, 2, 74, 67
4, 512000, Note_on_c, 2, 80, 67
4, 512000, Note_on_c, 2, 84, 67
4, 512256, Note_off_c, 2, 80, 67
4, 512256, Note_off_c, 2, 84, 67
4, 512256, Note_on_c, 2, 70, 67
4, 512256, Note_on_c, 2, 74, 67
4, 512272, Note_off_c, 2, 70, 67
4, 512272, Note_off_c, 2, 74, 67
4, 512288, Note_off_c, 2, 70, 67
4, 512288, Note_off_c, 2, 74, 67
4, 512288, Note_on_c, 2, 72, 67
4, 512288, Note_on_c, 2, 75, 67
4, 512304, Note_off_c, 2, 72, 67
4, 512304, Note_off_c, 2, 75, 67
4, 512320, Note_off_c, 2, 72, 67
4, 512320, Note_off_c, 2, 75, 67
4, 512320, Note_on_c, 2, 70, 67
4, 512320, Note_on_c, 2, 74, 67
4, 512352, Note_off_c, 2, 70, 67
4, 512352, Note_off_c, 2, 74, 67
4, 512384, Note_off_c, 2, 70, 67
4, 512384, Note_off_c, 2, 74, 67
4, 512384, Note_on_c, 2, 68, 67
4, 512384, Note_on_c, 2, 72, 67
4, 512416, Note_off_c, 2, 68, 67
4, 512416, Note_off_c, 2, 72, 67
4, 512448, Note_off_c, 2, 68, 67
4, 512448, Note_off_c, 2, 72, 67
4, 512448, Note_on_c, 2, 74, 67
4, 512448, Note_on_c, 2, 77, 67
4, 512480, Note_off_c, 2, 74, 67
4, 512480, Note_off_c, 2, 77, 67
4, 512512, Note_off_c, 2, 74, 67
4, 512512, Note_off_c, 2, 77, 67
4, 512512, Note_on_c, 2, 75, 67
4, 512512, Note_on_c, 2, 79, 67
4, 512640, Note_off_c, 2, 75, 67
4, 512640, Note_off_c, 2, 79, 67
4, 512640, Note_on_c, 2, 70, 67
4, 512704, Note_off_c, 2, 70, 67
4, 512768, Note_off_c, 2, 70, 67
4, 512768, Note_on_c, 2, 70, 67
4, 512832, Note_off_c, 2, 70, 67
4, 512896, Note_off_c, 2, 70, 67
4, 512896, Note_on_c, 2, 75, 67
4, 512896, Note_on_c, 2, 79, 67
4, 512960, Note_off_c, 2, 75, 67
4, 512960, Note_off_c, 2, 79, 67
4, 512960, Note_on_c, 2, 77, 67
4, 512960, Note_on_c, 2, 80, 67
4, 513024, Note_off_c, 2, 77, 67
4, 513024, Note_off_c, 2, 80, 67
4, 513024, Note_on_c, 2, 79, 67
4, 513024, Note_on_c, 2, 82, 67
4, 513088, Note_off_c, 2, 79, 67
4, 513088, Note_off_c, 2, 82, 67
4, 513152, Note_off_c, 2, 79, 67
4, 513152, Note_off_c, 2, 82, 67
4, 513152, Note_on_c, 2, 79, 67
4, 513152, Note_on_c, 2, 82, 67
4, 513216, Note_off_c, 2, 79, 67
4, 513216, Note_off_c, 2, 82, 67
4, 513280, Note_off_c, 2, 79, 67
4, 513280, Note_off_c, 2, 82, 67
4, 513280, Note_on_c, 2, 70, 67
4, 513280, Note_on_c, 2, 79, 67
4, 513344, Note_off_c, 2, 70, 67
4, 513344, Note_off_c, 2, 79, 67
4, 513408, Note_off_c, 2, 70, 67
4, 513408, Note_off_c, 2, 79, 67
4, 513408, Note_on_c, 2, 70, 67
4, 513408, Note_on_c, 2, 75, 67
4, 513472, Note_off_c, 2, 70, 67
4, 513472, Note_off_c, 2, 75, 67
4, 513536, Note_off_c, 2, 70, 67
4, 513536, Note_off_c, 2, 75, 67
4, 513536, Note_on_c, 2, 84, 67
4, 513536, Note_on_c, 2, 87, 67
4, 513600, Note_off_c, 2, 84, 67
4, 513600, Note_off_c, 2, 87, 67
4, 513664, Note_off_c, 2, 84, 67
4, 513664, Note_off_c, 2, 87, 67
4, 513664, Note_on_c, 2, 82, 67
4, 513664, Note_on_c, 2, 86, 67
4, 513728, Note_off_c, 2, 82, 67
4, 513728, Note_off_c, 2, 86, 67
4, 513792, Note_off_c, 2, 82, 67
4, 513792, Note_off_c, 2, 86, 67
4, 513792, Note_on_c, 2, 80, 67
4, 513792, Note_on_c, 2, 84, 67
4, 513856, Note_off_c, 2, 80, 67
4, 513856, Note_off_c, 2, 84, 67
4, 513920, Note_off_c, 2, 80, 67
4, 513920, Note_off_c, 2, 84, 67
4, 513920, Note_on_c, 2, 79, 67
4, 513920, Note_on_c, 2, 87, 67
4, 513984, Note_off_c, 2, 79, 67
4, 513984, Note_off_c, 2, 87, 67
4, 514048, Note_off_c, 2, 79, 67
4, 514048, Note_off_c, 2, 87, 67
4, 514048, Note_on_c, 2, 75, 67
4, 514048, Note_on_c, 2, 82, 67
4, 514112, Note_off_c, 2, 75, 67
4, 514112, Note_off_c, 2, 82, 67
4, 514176, Note_off_c, 2, 75, 67
4, 514176, Note_off_c, 2, 82, 67
4, 514176, Note_on_c, 2, 79, 67
4, 514240, Note_off_c, 2, 79, 67
4, 514304, Note_off_c, 2, 79, 67
4, 514304, Note_on_c, 2, 67, 67
4, 514304, Note_on_c, 2, 75, 67
4, 514368, Note_off_c, 2, 67, 67
4, 514368, Note_off_c, 2, 75, 67
4, 514432, Note_off_c, 2, 67, 67
4, 514432, Note_off_c, 2, 75, 67
4, 514432, Note_on_c, 2, 68, 67
4, 514432, Note_on_c, 2, 74, 67
4, 514464, Note_off_c, 2, 68, 67
4, 514464, Note_off_c, 2, 74, 67
4, 514496, Note_off_c, 2, 68, 67
4, 514496, Note_off_c, 2, 74, 67
4, 514496, Note_on_c, 2, 74, 67
4, 514496, Note_on_c, 2, 79, 67
4, 514528, Note_off_c, 2, 74, 67
4, 514528, Note_off_c, 2, 79, 67
4, 514560, Note_off_c, 2, 74, 67
4, 514560, Note_off_c, 2, 79, 67
4, 514560, Note_on_c, 2, 70, 67
4, 514560, Note_on_c, 2, 77, 67
4, 514624, Note_off_c, 2, 70, 67
4, 514624, Note_off_c, 2, 77, 67
4, 514688, Note_off_c, 2, 70, 67
4, 514688, Note_off_c, 2, 77, 67
4, 514688, Note_on_c, 2, 65, 67
4, 514688, Note_on_c, 2, 70, 67
4, 514752, Note_off_c, 2, 65, 67
4, 514752, Note_off_c, 2, 70, 67
4, 514816, Note_off_c, 2, 65, 67
4, 514816, Note_off_c, 2, 70, 67
4, 514816, Note_on_c, 2, 68, 67
4, 514816, Note_on_c, 2, 70, 67
4, 514880, Note_off_c, 2, 68, 67
4, 514880, Note_off_c, 2, 70, 67
4, 514944, Note_off_c, 2, 68, 67
4, 514944, Note_off_c, 2, 70, 67
4, 514944, Note_on_c, 2, 70, 67
4, 514944, Note_on_c, 2, 79, 67
4, 515008, Note_off_c, 2, 70, 67
4, 515008, Note_off_c, 2, 79, 67
4, 515008, Note_on_c, 2, 77, 67
4, 515008, Note_on_c, 2, 80, 67
4, 515072, Note_off_c, 2, 77, 67
4, 515072, Note_off_c, 2, 80, 67
4, 515072, Note_on_c, 2, 79, 67
4, 515072, Note_on_c, 2, 82, 67
4, 515136, Note_off_c, 2, 79, 67
4, 515136, Note_off_c, 2, 82, 67
4, 515200, Note_off_c, 2, 79, 67
4, 515200, Note_off_c, 2, 82, 67
4, 515200, Note_on_c, 2, 79, 67
4, 515200, Note_on_c, 2, 82, 67
4, 515264, Note_off_c, 2, 79, 67
4, 515264, Note_off_c, 2, 82, 67
4, 515328, Note_off_c, 2, 79, 67
4, 515328, Note_off_c, 2, 82, 67
4, 515328, Note_on_c, 2, 70, 67
4, 515328, Note_on_c, 2, 79, 67
4, 515392, Note_off_c, 2, 70, 67
4, 515392, Note_off_c, 2, 79, 67
4, 515456, Note_off_c, 2, 70, 67
4, 515456, Note_off_c, 2, 79, 67
4, 515456, Note_on_c, 2, 75, 67
4, 515456, Note_on_c, 2, 82, 67
4, 515520, Note_off_c, 2, 75, 67
4, 515520, Note_off_c, 2, 82, 67
4, 515584, Note_off_c, 2, 75, 67
4, 515584, Note_off_c, 2, 82, 67
4, 515584, Note_on_c, 2, 84, 67
4, 515584, Note_on_c, 2, 87, 67
4, 515648, Note_off_c, 2, 84, 67
4, 515648, Note_off_c, 2, 87, 67
4, 515712, Note_off_c, 2, 84, 67
4, 515712, Note_off_c, 2, 87, 67
4, 515712, Note_on_c, 2, 82, 67
4, 515712, Note_on_c, 2, 86, 67
4, 515776, Note_off_c, 2, 82, 67
4, 515776, Note_off_c, 2, 86, 67
4, 515840, Note_off_c, 2, 82, 67
4, 515840, Note_off_c, 2, 86, 67
4, 515840, Note_on_c, 2, 80, 67
4, 515840, Note_on_c, 2, 84, 67
4, 515904, Note_off_c, 2, 80, 67
4, 515904, Note_off_c, 2, 84, 67
4, 515968, Note_off_c, 2, 80, 67
4, 515968, Note_off_c, 2, 84, 67
4, 515968, Note_on_c, 2, 70, 67
4, 515968, Note_on_c, 2, 74, 67
4, 516000, Note_off_c, 2, 70, 67
4, 516000, Note_off_c, 2, 74, 67
4, 516032, Note_off_c, 2, 70, 67
4, 516032, Note_off_c, 2, 74, 67
4, 516032, Note_on_c, 2, 77, 67
4, 516032, Note_on_c, 2, 80, 67
4, 516064, Note_off_c, 2, 77, 67
4, 516064, Note_off_c, 2, 80, 67
4, 516096, Note_off_c, 2, 77, 67
4, 516096, Note_off_c, 2, 80, 67
4, 516096, Note_on_c, 2, 77, 67
4, 516096, Note_on_c, 2, 82, 67
4, 516160, Note_off_c, 2, 77, 67
4, 516160, Note_off_c, 2, 82, 67
4, 516224, Note_off_c, 2, 77, 67
4, 516224, Note_off_c, 2, 82, 67
4, 516224, Note_on_c, 2, 80, 67
4, 516224, Note_on_c, 2, 87, 67
4, 516288, Note_off_c, 2, 80, 67
4, 516288, Note_off_c, 2, 87, 67
4, 516352, Note_off_c, 2, 80, 67
4, 516352, Note_off_c, 2, 87, 67
4, 516352, Note_on_c, 2, 82, 67
4, 516352, Note_on_c, 2, 86, 67
4, 516416, Note_off_c, 2, 82, 67
4, 516416, Note_off_c, 2, 86, 67
4, 516480, Note_off_c, 2, 82, 67
4, 516480, Note_off_c, 2, 86, 67
4, 516480, Note_on_c, 2, 80, 67
4, 516480, Note_on_c, 2, 89, 67
4, 516544, Note_off_c, 2, 80, 67
4, 516544, Note_off_c, 2, 89, 67
4, 516608, Note_off_c, 2, 80, 67
4, 516608, Note_off_c, 2, 89, 67
4, 516608, Note_on_c, 2, 79, 67
4, 516608, Note_on_c, 2, 87, 67
4, 516672, Note_off_c, 2, 79, 67
4, 516672, Note_off_c, 2, 87, 67
4, 516736, Note_off_c, 2, 79, 67
4, 516736, Note_off_c, 2, 87, 67
4, 516736, Note_on_c, 2, 70, 67
4, 516736, Note_on_c, 2, 82, 67
4, 516800, Note_off_c, 2, 70, 67
4, 516800, Note_off_c, 2, 82, 67
4, 516864, Note_off_c, 2, 70, 67
4, 516864, Note_off_c, 2, 82, 67
4, 516864, Note_on_c, 2, 70, 67
4, 516864, Note_on_c, 2, 82, 67
4, 516928, Note_off_c, 2, 70, 67
4, 516928, Note_off_c, 2, 82, 67
4, 516992, Note_off_c, 2, 70, 67
4, 516992, Note_off_c, 2, 82, 67
4, 516992, Note_on_c, 2, 75, 67
4, 517056, Note_off_c, 2, 75, 67
4, 517056, Note_on_c, 2, 77, 67
4, 517120, Note_off_c, 2, 77, 67
4, 517120, Note_on_c, 2, 79, 67
4, 517184, Note_off_c, 2, 79, 67
4, 517248, Note_off_c, 2, 79, 67
4, 517248, Note_on_c, 2, 75, 67
4, 517248, Note_on_c, 2, 79, 67
4, 517312, Note_off_c, 2, 75, 67
4, 517312, Note_off_c, 2, 79, 67
4, 517376, Note_off_c, 2, 75, 67
4, 517376, Note_off_c, 2, 79, 67
4, 517376, Note_on_c, 2, 75, 67
4, 517376, Note_on_c, 2, 79, 67
4, 517440, Note_off_c, 2, 75, 67
4, 517440, Note_off_c, 2, 79, 67
4, 517504, Note_off_c, 2, 75, 67
4, 517504, Note_off_c, 2, 79, 67
4, 517504, Note_on_c, 2, 75, 67
4, 517568, Note_off_c, 2, 75, 67
4, 517568, Note_on_c, 2, 77, 67
4, 517632, Note_off_c, 2, 77, 67
4, 517632, Note_on_c, 2, 79, 67
4, 517696, Note_off_c, 2, 79, 67
4, 517760, Note_off_c, 2, 79, 67
4, 517760, Note_on_c, 2, 75, 67
4, 517760, Note_on_c, 2, 79, 67
4, 517824, Note_off_c, 2, 75, 67
4, 517824, Note_off_c, 2, 79, 67
4, 517888, Note_off_c, 2, 75, 67
4, 517888, Note_off_c, 2, 79, 67
4, 517888, Note_on_c, 2, 75, 67
4, 517888, Note_on_c, 2, 79, 67
4, 517952, Note_off_c, 2, 75, 67
4, 517952, Note_off_c, 2, 79, 67
4, 518016, Note_off_c, 2, 75, 67
4, 518016, Note_off_c, 2, 79, 67
4, 518016, Note_on_c, 2, 75, 67
4, 518080, Note_off_c, 2, 75, 67
4, 518080, Note_on_c, 2, 77, 67
4, 518144, Note_off_c, 2, 77, 67
4, 518144, Note_on_c, 2, 79, 67
4, 518208, Note_off_c, 2, 79, 67
4, 518272, Note_off_c, 2, 79, 67
4, 518272, Note_on_c, 2, 75, 67
4, 518272, Note_on_c, 2, 79, 67
4, 518336, Note_off_c, 2, 75, 67
4, 518336, Note_off_c, 2, 79, 67
4, 518400, Note_off_c, 2, 75, 67
4, 518400, Note_off_c, 2, 79, 67
4, 518400, Note_on_c, 2, 75, 67
4, 518400, Note_on_c, 2, 80, 67
4, 518432, Note_off_c, 2, 75, 67
4, 518432, Note_off_c, 2, 80, 67
4, 518464, Note_off_c, 2, 75, 67
4, 518464, Note_off_c, 2, 80, 67
4, 518464, Note_on_c, 2, 74, 67
4, 518496, Note_off_c, 2, 74, 67
4, 518528, Note_off_c, 2, 74, 67
4, 518528, Note_on_c, 2, 72, 67
4, 518560, Note_off_c, 2, 72, 67
4, 518592, Note_off_c, 2, 72, 67
4, 518592, Note_on_c, 2, 74, 67
4, 518592, Note_on_c, 2, 79, 67
4, 518624, Note_off_c, 2, 74, 67
4, 518624, Note_off_c, 2, 79, 67
4, 518656, Note_off_c, 2, 74, 67
4, 518656, Note_off_c, 2, 79, 67
4, 518656, Note_on_c, 2, 70, 67
4, 518656, Note_on_c, 2, 77, 67
4, 518720, Note_off_c, 2, 70, 67
4, 518720, Note_off_c, 2, 77, 67
4, 518784, Note_off_c, 2, 70, 67
4, 518784, Note_off_c, 2, 77, 67
4, 518784, Note_on_c, 2, 68, 67
4, 518784, Note_on_c, 2, 70, 67
4, 518848, Note_off_c, 2, 68, 67
4, 518848, Note_off_c, 2, 70, 67
4, 518912, Note_off_c, 2, 68, 67
4, 518912, Note_off_c, 2, 70, 67
4, 518912, Note_on_c, 2, 68, 67
4, 518912, Note_on_c, 2, 70, 67
4, 518976, Note_off_c, 2, 68, 67
4, 518976, Note_off_c, 2, 70, 67
4, 519040, Note_off_c, 2, 68, 67
4, 519040, Note_off_c, 2, 70, 67
4, 519040, Note_on_c, 2, 74, 67
4, 519104, Note_off_c, 2, 74, 67
4, 519104, Note_on_c, 2, 75, 67
4, 519168, Note_off_c, 2, 75, 67
4, 519168, Note_on_c, 2, 77, 67
4, 519232, Note_off_c, 2, 77, 67
4, 519296, Note_off_c, 2, 77, 67
4, 519296, Note_on_c, 2, 74, 67
4, 519296, Note_on_c, 2, 77, 67
4, 519360, Note_off_c, 2, 74, 67
4, 519360, Note_off_c, 2, 77, 67
4, 519424, Note_off_c, 2, 74, 67
4, 519424, Note_off_c, 2, 77, 67
4, 519424, Note_on_c, 2, 74, 67
4, 519424, Note_on_c, 2, 77, 67
4, 519488, Note_off_c, 2, 74, 67
4, 519488, Note_off_c, 2, 77, 67
4, 519552, Note_off_c, 2, 74, 67
4, 519552, Note_off_c, 2, 77, 67
4, 519552, Note_on_c, 2, 74, 67
4, 519616, Note_off_c, 2, 74, 67
4, 519616, Note_on_c, 2, 75, 67
4, 519680, Note_off_c, 2, 75, 67
4, 519680, Note_on_c, 2, 77, 67
4, 519744, Note_off_c, 2, 77, 67
4, 519808, Note_off_c, 2, 77, 67
4, 519808, Note_on_c, 2, 74, 67
4, 519808, Note_on_c, 2, 77, 67
4, 519872, Note_off_c, 2, 74, 67
4, 519872, Note_off_c, 2, 77, 67
4, 519936, Note_off_c, 2, 74, 67
4, 519936, Note_off_c, 2, 77, 67
4, 519936, Note_on_c, 2, 74, 67
4, 519936, Note_on_c, 2, 77, 67
4, 520000, Note_off_c, 2, 74, 67
4, 520000, Note_off_c, 2, 77, 67
4, 520064, Note_off_c, 2, 74, 67
4, 520064, Note_off_c, 2, 77, 67
4, 520064, Note_on_c, 2, 74, 67
4, 520128, Note_off_c, 2, 74, 67
4, 520128, Note_on_c, 2, 75, 67
4, 520192, Note_off_c, 2, 75, 67
4, 520192, Note_on_c, 2, 70, 67
4, 520192, Note_on_c, 2, 77, 67
4, 520256, Note_off_c, 2, 70, 67
4, 520256, Note_off_c, 2, 77, 67
4, 520320, Note_off_c, 2, 70, 67
4, 520320, Note_off_c, 2, 77, 67
4, 520320, Note_on_c, 2, 74, 67
4, 520320, Note_on_c, 2, 77, 67
4, 520384, Note_off_c, 2, 74, 67
4, 520384, Note_off_c, 2, 77, 67
4, 520448, Note_off_c, 2, 74, 67
4, 520448, Note_off_c, 2, 77, 67
4, 520448, Note_on_c, 2, 74, 67
4, 520448, Note_on_c, 2, 79, 67
4, 520480, Note_off_c, 2, 74, 67
4, 520480, Note_off_c, 2, 79, 67
4, 520512, Note_off_c, 2, 74, 67
4, 520512, Note_off_c, 2, 79, 67
4, 520512, Note_on_c, 2, 72, 67
4, 520512, Note_on_c, 2, 77, 67
4, 520544, Note_off_c, 2, 72, 67
4, 520544, Note_off_c, 2, 77, 67
4, 520576, Note_off_c, 2, 72, 67
4, 520576, Note_off_c, 2, 77, 67
4, 520576, Note_on_c, 2, 70, 67
4, 520576, Note_on_c, 2, 77, 67
4, 520608, Note_off_c, 2, 70, 67
4, 520608, Note_off_c, 2, 77, 67
4, 520640, Note_off_c, 2, 70, 67
4, 520640, Note_off_c, 2, 77, 67
4, 520640, Note_on_c, 2, 68, 67
4, 520640, Note_on_c, 2, 79, 67
4, 520672, Note_off_c, 2, 68, 67
4, 520672, Note_off_c, 2, 79, 67
4, 520704, Note_off_c, 2, 68, 67
4, 520704, Note_off_c, 2, 79, 67
4, 520704, Note_on_c, 2, 67, 67
4, 520704, Note_on_c, 2, 75, 67
4, 520768, Note_off_c, 2, 67, 67
4, 520768, Note_off_c, 2, 75, 67
4, 520832, Note_off_c, 2, 67, 67
4, 520832, Note_off_c, 2, 75, 67
4, 520832, Note_on_c, 2, 70, 67
4, 520896, Note_off_c, 2, 70, 67
4, 520960, Note_off_c, 2, 70, 67
4, 520960, Note_on_c, 2, 70, 67
4, 520960, Note_on_c, 2, 79, 67
4, 521024, Note_off_c, 2, 70, 67
4, 521024, Note_off_c, 2, 79, 67
4, 521088, Note_off_c, 2, 70, 67
4, 521088, Note_off_c, 2, 79, 67
4, 521088, Note_on_c, 2, 75, 67
4, 521152, Note_off_c, 2, 75, 67
4, 521152, Note_on_c, 2, 77, 67
4, 521216, Note_off_c, 2, 77, 67
4, 521216, Note_on_c, 2, 79, 67
4, 521280, Note_off_c, 2, 79, 67
4, 521344, Note_off_c, 2, 79, 67
4, 521344, Note_on_c, 2, 75, 67
4, 521344, Note_on_c, 2, 79, 67
4, 521408, Note_off_c, 2, 75, 67
4, 521408, Note_off_c, 2, 79, 67
4, 521472, Note_off_c, 2, 75, 67
4, 521472, Note_off_c, 2, 79, 67
4, 521472, Note_on_c, 2, 75, 67
4, 521472, Note_on_c, 2, 79, 67
4, 521536, Note_off_c, 2, 75, 67
4, 521536, Note_off_c, 2, 79, 67
4, 521600, Note_off_c, 2, 75, 67
4, 521600, Note_off_c, 2, 79, 67
4, 521600, Note_on_c, 2, 75, 67
4, 521664, Note_off_c, 2, 75, 67
4, 521664, Note_on_c, 2, 77, 67
4, 521728, Note_off_c, 2, 77, 67
4, 521728, Note_on_c, 2, 79, 67
4, 521792, Note_off_c, 2, 79, 67
4, 521856, Note_off_c, 2, 79, 67
4, 521856, Note_on_c, 2, 75, 67
4, 521856, Note_on_c, 2, 79, 67
4, 521920, Note_off_c, 2, 75, 67
4, 521920, Note_off_c, 2, 79, 67
4, 521984, Note_off_c, 2, 75, 67
4, 521984, Note_off_c, 2, 79, 67
4, 521984, Note_on_c, 2, 75, 67
4, 521984, Note_on_c, 2, 79, 67
4, 522048, Note_off_c, 2, 75, 67
4, 522048, Note_off_c, 2, 79, 67
4, 522112, Note_off_c, 2, 75, 67
4, 522112, Note_off_c, 2, 79, 67
4, 522112, Note_on_c, 2, 75, 67
4, 522176, Note_off_c, 2, 75, 67
4, 522176, Note_on_c, 2, 77, 67
4, 522240, Note_off_c, 2, 77, 67
4, 522240, Note_on_c, 2, 79, 67
4, 522304, Note_off_c, 2, 79, 67
4, 522368, Note_off_c, 2, 79, 67
4, 522368, Note_on_c, 2, 75, 67
4, 522368, Note_on_c, 2, 79, 67
4, 522432, Note_off_c, 2, 75, 67
4, 522432, Note_off_c, 2, 79, 67
4, 522496, Note_off_c, 2, 75, 67
4, 522496, Note_off_c, 2, 79, 67
4, 522496, Note_on_c, 2, 75, 67
4, 522496, Note_on_c, 2, 80, 67
4, 522528, Note_off_c, 2, 75, 67
4, 522528, Note_off_c, 2, 80, 67
4, 522560, Note_off_c, 2, 75, 67
4, 522560, Note_off_c, 2, 80, 67
4, 522560, Note_on_c, 2, 74, 67
4, 522624, Note_off_c, 2, 74, 67
4, 522624, Note_on_c, 2, 72, 67
4, 522688, Note_off_c, 2, 72, 67
4, 522688, Note_on_c, 2, 74, 67
4, 522688, Note_on_c, 2, 79, 67
4, 522720, Note_off_c, 2, 74, 67
4, 522720, Note_off_c, 2, 79, 67
4, 522752, Note_off_c, 2, 74, 67
4, 522752, Note_off_c, 2, 79, 67
4, 522752, Note_on_c, 2, 70, 67
4, 522752, Note_on_c, 2, 77, 67
4, 522816, Note_off_c, 2, 70, 67
4, 522816, Note_off_c, 2, 77, 67
4, 522880, Note_off_c, 2, 70, 67
4, 522880, Note_off_c, 2, 77, 67
4, 522880, Note_on_c, 2, 68, 67
4, 522880, Note_on_c, 2, 70, 67
4, 522944, Note_off_c, 2, 68, 67
4, 522944, Note_off_c, 2, 70, 67
4, 523008, Note_off_c, 2, 68, 67
4, 523008, Note_off_c, 2, 70, 67
4, 523008, Note_on_c, 2, 68, 67
4, 523008, Note_on_c, 2, 70, 67
4, 523072, Note_off_c, 2, 68, 67
4, 523072, Note_off_c, 2, 70, 67
4, 523136, Note_off_c, 2, 68, 67
4, 523136, Note_off_c, 2, 70, 67
4, 523136, Note_on_c, 2, 74, 67
4, 523200, Note_off_c, 2, 74, 67
4, 523200, Note_on_c, 2, 75, 67
4, 523264, Note_off_c, 2, 75, 67
4, 523264, Note_on_c, 2, 77, 67
4, 523392, Note_off_c, 2, 77, 67
4, 523392, Note_on_c, 2, 74, 67
4, 523392, Note_on_c, 2, 80, 67
4, 523456, Note_off_c, 2, 74, 67
4, 523456, Note_off_c, 2, 80, 67
4, 523520, Note_off_c, 2, 74, 67
4, 523520, Note_off_c, 2, 80, 67
4, 523520, Note_on_c, 2, 74, 67
4, 523520, Note_on_c, 2, 79, 67
4, 523584, Note_off_c, 2, 74, 67
4, 523584, Note_off_c, 2, 79, 67
4, 523648, Note_off_c, 2, 74, 67
4, 523648, Note_off_c, 2, 79, 67
4, 523648, Note_on_c, 2, 77, 67
4, 523712, Note_off_c, 2, 77, 67
4, 523776, Note_off_c, 2, 77, 67
4, 523776, Note_on_c, 2, 75, 67
4, 523840, Note_off_c, 2, 75, 67
4, 523904, Note_off_c, 2, 75, 67
4, 523904, Note_on_c, 2, 70, 67
4, 523904, Note_on_c, 2, 74, 67
4, 523968, Note_off_c, 2, 70, 67
4, 523968, Note_off_c, 2, 74, 67
4, 524032, Note_off_c, 2, 70, 67
4, 524032, Note_off_c, 2, 74, 67
4, 524032, Note_on_c, 2, 72, 67
4, 524032, Note_on_c, 2, 74, 67
4, 524096, Note_off_c, 2, 72, 67
4, 524096, Note_off_c, 2, 74, 67
4, 524160, Note_off_c, 2, 72, 67
4, 524160, Note_off_c, 2, 74, 67
4, 524160, Note_on_c, 2, 70, 67
4, 524160, Note_on_c, 2, 74, 67
4, 524224, Note_off_c, 2, 70, 67
4, 524224, Note_off_c, 2, 74, 67
4, 524288, Note_off_c, 2, 70, 67
4, 524288, Note_off_c, 2, 74, 67
4, 524288, Note_on_c, 2, 80, 67
4, 524288, Note_on_c, 2, 84, 67
4, 524544, Note_off_c, 2, 80, 67
4, 524544, Note_off_c, 2, 84, 67
4, 524544, Note_on_c, 2, 70, 67
4, 524544, Note_on_c, 2, 74, 67
4, 524560, Note_off_c, 2, 70, 67
4, 524560, Note_off_c, 2, 74, 67
4, 524576, Note_off_c, 2, 70, 67
4, 524576, Note_off_c, 2, 74, 67
4, 524576, Note_on_c, 2, 72, 67
4, 524576, Note_on_c, 2, 75, 67
4, 524592, Note_off_c, 2, 72, 67
4, 524592, Note_off_c, 2, 75, 67
4, 524608, Note_off_c, 2, 72, 67
4, 524608, Note_off_c, 2, 75, 67
4, 524608, Note_on_c, 2, 70, 67
4, 524608, Note_on_c, 2, 74, 67
4, 524640, Note_off_c, 2, 70, 67
4, 524640, Note_off_c, 2, 74, 67
4, 524672, Note_off_c, 2, 70, 67
4, 524672, Note_off_c, 2, 74, 67
4, 524672, Note_on_c, 2, 68, 67
4, 524672, Note_on_c, 2, 72, 67
4, 524704, Note_off_c, 2, 68, 67
4, 524704, Note_off_c, 2, 72, 67
4, 524736, Note_off_c, 2, 68, 67
4, 524736, Note_off_c, 2, 72, 67
4, 524736, Note_on_c, 2, 74, 67
4, 524736, Note_on_c, 2, 77, 67
4, 524768, Note_off_c, 2, 74, 67
4, 524768, Note_off_c, 2, 77, 67
4, 524800, Note_off_c, 2, 74, 67
4, 524800, Note_off_c, 2, 77, 67
4, 524800, Note_on_c, 2, 75, 67
4, 524800, Note_on_c, 2, 79, 67
4, 524928, Note_off_c, 2, 75, 67
4, 524928, Note_off_c, 2, 79, 67
4, 524928, Note_on_c, 2, 70, 67
4, 524992, Note_off_c, 2, 70, 67
4, 525056, Note_off_c, 2, 70, 67
4, 525056, Note_on_c, 2, 70, 67
4, 525120, Note_off_c, 2, 70, 67
4, 525184, Note_off_c, 2, 70, 67
4, 525184, Note_on_c, 2, 75, 67
4, 525184, Note_on_c, 2, 79, 67
4, 525248, Note_off_c, 2, 75, 67
4, 525248, Note_off_c, 2, 79, 67
4, 525248, Note_on_c, 2, 77, 67
4, 525248, Note_on_c, 2, 80, 67
4, 525312, Note_off_c, 2, 77, 67
4, 525312, Note_off_c, 2, 80, 67
4, 525312, Note_on_c, 2, 79, 67
4, 525312, Note_on_c, 2, 82, 67
4, 525376, Note_off_c, 2, 79, 67
4, 525376, Note_off_c, 2, 82, 67
4, 525440, Note_off_c, 2, 79, 67
4, 525440, Note_off_c, 2, 82, 67
4, 525440, Note_on_c, 2, 79, 67
4, 525440, Note_on_c, 2, 82, 67
4, 525504, Note_off_c, 2, 79, 67
4, 525504, Note_off_c, 2, 82, 67
4, 525568, Note_off_c, 2, 79, 67
4, 525568, Note_off_c, 2, 82, 67
4, 525568, Note_on_c, 2, 70, 67
4, 525568, Note_on_c, 2, 79, 67
4, 525632, Note_off_c, 2, 70, 67
4, 525632, Note_off_c, 2, 79, 67
4, 525696, Note_off_c, 2, 70, 67
4, 525696, Note_off_c, 2, 79, 67
4, 525696, Note_on_c, 2, 70, 67
4, 525696, Note_on_c, 2, 75, 67
4, 525760, Note_off_c, 2, 70, 67
4, 525760, Note_off_c, 2, 75, 67
4, 525824, Note_off_c, 2, 70, 67
4, 525824, Note_off_c, 2, 75, 67
4, 525824, Note_on_c, 2, 84, 67
4, 525824, Note_on_c, 2, 87, 67
4, 525888, Note_off_c, 2, 84, 67
4, 525888, Note_off_c, 2, 87, 67
4, 525952, Note_off_c, 2, 84, 67
4, 525952, Note_off_c, 2, 87, 67
4, 525952, Note_on_c, 2, 82, 67
4, 525952, Note_on_c, 2, 86, 67
4, 526016, Note_off_c, 2, 82, 67
4, 526016, Note_off_c, 2, 86, 67
4, 526080, Note_off_c, 2, 82, 67
4, 526080, Note_off_c, 2, 86, 67
4, 526080, Note_on_c, 2, 80, 67
4, 526080, Note_on_c, 2, 84, 67
4, 526144, Note_off_c, 2, 80, 67
4, 526144, Note_off_c, 2, 84, 67
4, 526208, Note_off_c, 2, 80, 67
4, 526208, Note_off_c, 2, 84, 67
4, 526208, Note_on_c, 2, 79, 67
4, 526208, Note_on_c, 2, 87, 67
4, 526272, Note_off_c, 2, 79, 67
4, 526272, Note_off_c, 2, 87, 67
4, 526336, Note_off_c, 2, 79, 67
4, 526336, Note_off_c, 2, 87, 67
4, 526336, Note_on_c, 2, 75, 67
4, 526336, Note_on_c, 2, 82, 67
4, 526400, Note_off_c, 2, 75, 67
4, 526400, Note_off_c, 2, 82, 67
4, 526464, Note_off_c, 2, 75, 67
4, 526464, Note_off_c, 2, 82, 67
4, 526464, Note_on_c, 2, 79, 67
4, 526528, Note_off_c, 2, 79, 67
4, 526592, Note_off_c, 2, 79, 67
4, 526592, Note_on_c, 2, 67, 67
4, 526592, Note_on_c, 2, 75, 67
4, 526656, Note_off_c, 2, 67, 67
4, 526656, Note_off_c, 2, 75, 67
4, 526720, Note_off_c, 2, 67, 67
4, 526720, Note_off_c, 2, 75, 67
4, 526720, Note_on_c, 2, 68, 67
4, 526720, Note_on_c, 2, 74, 67
4, 526752, Note_off_c, 2, 68, 67
4, 526752, Note_off_c, 2, 74, 67
4, 526784, Note_off_c, 2, 68, 67
4, 526784, Note_off_c, 2, 74, 67
4, 526784, Note_on_c, 2, 74, 67
4, 526784, Note_on_c, 2, 79, 67
4, 526816, Note_off_c, 2, 74, 67
4, 526816, Note_off_c, 2, 79, 67
4, 526848, Note_off_c, 2, 74, 67
4, 526848, Note_off_c, 2, 79, 67
4, 526848, Note_on_c, 2, 70, 67
4, 526848, Note_on_c, 2, 77, 67
4, 526912, Note_off_c, 2, 70, 67
4, 526912, Note_off_c, 2, 77, 67
4, 526976, Note_off_c, 2, 70, 67
4, 526976, Note_off_c, 2, 77, 67
4, 526976, Note_on_c, 2, 65, 67
4, 526976, Note_on_c, 2, 70, 67
4, 527040, Note_off_c, 2, 65, 67
4, 527040, Note_off_c, 2, 70, 67
4, 527104, Note_off_c, 2, 65, 67
4, 527104, Note_off_c, 2, 70, 67
4, 527104, Note_on_c, 2, 68, 67
4, 527104, Note_on_c, 2, 70, 67
4, 527168, Note_off_c, 2, 68, 67
4, 527168, Note_off_c, 2, 70, 67
4, 527232, Note_off_c, 2, 68, 67
4, 527232, Note_off_c, 2, 70, 67
4, 527232, Note_on_c, 2, 70, 67
4, 527232, Note_on_c, 2, 79, 67
4, 527296, Note_off_c, 2, 70, 67
4, 527296, Note_off_c, 2, 79, 67
4, 527296, Note_on_c, 2, 77, 67
4, 527296, Note_on_c, 2, 80, 67
4, 527360, Note_off_c, 2, 77, 67
4, 527360, Note_off_c, 2, 80, 67
4, 527360, Note_on_c, 2, 79, 67
4, 527360, Note_on_c, 2, 82, 67
4, 527424, Note_off_c, 2, 79, 67
4, 527424, Note_off_c, 2, 82, 67
4, 527488, Note_off_c, 2, 79, 67
4, 527488, Note_off_c, 2, 82, 67
4, 527488, Note_on_c, 2, 79, 67
4, 527488, Note_on_c, 2, 82, 67
4, 527552, Note_off_c, 2, 79, 67
4, 527552, Note_off_c, 2, 82, 67
4, 527616, Note_off_c, 2, 79, 67
4, 527616, Note_off_c, 2, 82, 67
4, 527616, Note_on_c, 2, 70, 67
4, 527616, Note_on_c, 2, 79, 67
4, 527680, Note_off_c, 2, 70, 67
4, 527680, Note_off_c, 2, 79, 67
4, 527744, Note_off_c, 2, 70, 67
4, 527744, Note_off_c, 2, 79, 67
4, 527744, Note_on_c, 2, 75, 67
4, 527744, Note_on_c, 2, 82, 67
4, 527808, Note_off_c, 2, 75, 67
4, 527808, Note_off_c, 2, 82, 67
4, 527872, Note_off_c, 2, 75, 67
4, 527872, Note_off_c, 2, 82, 67
4, 527872, Note_on_c, 2, 84, 67
4, 527872, Note_on_c, 2, 87, 67
4, 527936, Note_off_c, 2, 84, 67
4, 527936, Note_off_c, 2, 87, 67
4, 528000, Note_off_c, 2, 84, 67
4, 528000, Note_off_c, 2, 87, 67
4, 528000, Note_on_c, 2, 82, 67
4, 528000, Note_on_c, 2, 86, 67
4, 528064, Note_off_c, 2, 82, 67
4, 528064, Note_off_c, 2, 86, 67
4, 528128, Note_off_c, 2, 82, 67
4, 528128, Note_off_c, 2, 86, 67
4, 528128, Note_on_c, 2, 80, 67
4, 528128, Note_on_c, 2, 84, 67
4, 528192, Note_off_c, 2, 80, 67
4, 528192, Note_off_c, 2, 84, 67
4, 528256, Note_off_c, 2, 80, 67
4, 528256, Note_off_c, 2, 84, 67
4, 528256, Note_on_c, 2, 70, 67
4, 528256, Note_on_c, 2, 74, 67
4, 528288, Note_off_c, 2, 70, 67
4, 528288, Note_off_c, 2, 74, 67
4, 528320, Note_off_c, 2, 70, 67
4, 528320, Note_off_c, 2, 74, 67
4, 528320, Note_on_c, 2, 77, 67
4, 528320, Note_on_c, 2, 80, 67
4, 528352, Note_off_c, 2, 77, 67
4, 528352, Note_off_c, 2, 80, 67
4, 528384, Note_off_c, 2, 77, 67
4, 528384, Note_off_c, 2, 80, 67
4, 528384, Note_on_c, 2, 77, 67
4, 528384, Note_on_c, 2, 82, 67
4, 528448, Note_off_c, 2, 77, 67
4, 528448, Note_off_c, 2, 82, 67
4, 528512, Note_off_c, 2, 77, 67
4, 528512, Note_off_c, 2, 82, 67
4, 528512, Note_on_c, 2, 80, 67
4, 528512, Note_on_c, 2, 87, 67
4, 528576, Note_off_c, 2, 80, 67
4, 528576, Note_off_c, 2, 87, 67
4, 528640, Note_off_c, 2, 80, 67
4, 528640, Note_off_c, 2, 87, 67
4, 528640, Note_on_c, 2, 82, 67
4, 528640, Note_on_c, 2, 86, 67
4, 528704, Note_off_c, 2, 82, 67
4, 528704, Note_off_c, 2, 86, 67
4, 528768, Note_off_c, 2, 82, 67
4, 528768, Note_off_c, 2, 86, 67
4, 528768, Note_on_c, 2, 80, 67
4, 528768, Note_on_c, 2, 89, 67
4, 528832, Note_off_c, 2, 80, 67
4, 528832, Note_off_c, 2, 89, 67
4, 528896, Note_off_c, 2, 80, 67
4, 528896, Note_off_c, 2, 89, 67
4, 528896, Note_on_c, 2, 79, 67
4, 528896, Note_on_c, 2, 87, 67
4, 528960, Note_off_c, 2, 79, 67
4, 528960, Note_off_c, 2, 87, 67
4, 529024, Note_off_c, 2, 79, 67
4, 529024, Note_off_c, 2, 87, 67
4, 529024, Note_on_c, 2, 70, 67
4, 529024, Note_on_c, 2, 82, 67
4, 529088, Note_off_c, 2, 70, 67
4, 529088, Note_off_c, 2, 82, 67
4, 529152, Note_off_c, 2, 70, 67
4, 529152, Note_off_c, 2, 82, 67
4, 529152, Note_on_c, 2, 70, 67
4, 529152, Note_on_c, 2, 82, 67
4, 529216, Note_off_c, 2, 70, 67
4, 529216, Note_off_c, 2, 82, 67
4, 529280, Note_off_c, 2, 70, 67
4, 529280, Note_off_c, 2, 82, 67
4, 529280, Note_on_c, 2, 75, 67
4, 529344, Note_off_c, 2, 75, 67
4, 529344, Note_on_c, 2, 77, 67
4, 529408, Note_off_c, 2, 77, 67
4, 529408, Note_on_c, 2, 79, 67
4, 529472, Note_off_c, 2, 79, 67
4, 529536, Note_off_c, 2, 79, 67
4, 529536, Note_on_c, 2, 75, 67
4, 529536, Note_on_c, 2, 79, 67
4, 529600, Note_off_c, 2, 75, 67
4, 529600, Note_off_c, 2, 79, 67
4, 529664, Note_off_c, 2, 75, 67
4, 529664, Note_off_c, 2, 79, 67
4, 529664, Note_on_c, 2, 75, 67
4, 529664, Note_on_c, 2, 79, 67
4, 529728, Note_off_c, 2, 75, 67
4, 529728, Note_off_c, 2, 79, 67
4, 529792, Note_off_c, 2, 75, 67
4, 529792, Note_off_c, 2, 79, 67
4, 529792, Note_on_c, 2, 75, 67
4, 529856, Note_off_c, 2, 75, 67
4, 529856, Note_on_c, 2, 77, 67
4, 529920, Note_off_c, 2, 77, 67
4, 529920, Note_on_c, 2, 79, 67
4, 529984, Note_off_c, 2, 79, 67
4, 530048, Note_off_c, 2, 79, 67
4, 530048, Note_on_c, 2, 75, 67
4, 530048, Note_on_c, 2, 79, 67
4, 530112, Note_off_c, 2, 75, 67
4, 530112, Note_off_c, 2, 79, 67
4, 530176, Note_off_c, 2, 75, 67
4, 530176, Note_off_c, 2, 79, 67
4, 530176, Note_on_c, 2, 75, 67
4, 530176, Note_on_c, 2, 79, 67
4, 530240, Note_off_c, 2, 75, 67
4, 530240, Note_off_c, 2, 79, 67
4, 530304, Note_off_c, 2, 75, 67
4, 530304, Note_off_c, 2, 79, 67
4, 530304, Note_on_c, 2, 75, 67
4, 530368, Note_off_c, 2, 75, 67
4, 530368, Note_on_c, 2, 77, 67
4, 530432, Note_off_c, 2, 77, 67
4, 530432, Note_on_c, 2, 79, 67
4, 530496, Note_off_c, 2, 79, 67
4, 530560, Note_off_c, 2, 79, 67
4, 530560, Note_on_c, 2, 75, 67
4, 530560, Note_on_c, 2, 79, 67
4, 530624, Note_off_c, 2, 75, 67
4, 530624, Note_off_c, 2, 79, 67
4, 530688, Note_off_c, 2, 75, 67
4, 530688, Note_off_c, 2, 79, 67
4, 530688, Note_on_c, 2, 75, 67
4, 530688, Note_on_c, 2, 80, 67
4, 530720, Note_off_c, 2, 75, 67
4, 530720, Note_off_c, 2, 80, 67
4, 530752, Note_off_c, 2, 75, 67
4, 530752, Note_off_c, 2, 80, 67
4, 530752, Note_on_c, 2, 74, 67
4, 530784, Note_off_c, 2, 74, 67
4, 530816, Note_off_c, 2, 74, 67
4, 530816, Note_on_c, 2, 72, 67
4, 530848, Note_off_c, 2, 72, 67
4, 530880, Note_off_c, 2, 72, 67
4, 530880, Note_on_c, 2, 74, 67
4, 530880, Note_on_c, 2, 79, 67
4, 530912, Note_off_c, 2, 74, 67
4, 530912, Note_off_c, 2, 79, 67
4, 530944, Note_off_c, 2, 74, 67
4, 530944, Note_off_c, 2, 79, 67
4, 530944, Note_on_c, 2, 70, 67
4, 530944, Note_on_c, 2, 77, 67
4, 531008, Note_off_c, 2, 70, 67
4, 531008, Note_off_c, 2, 77, 67
4, 531072, Note_off_c, 2, 70, 67
4, 531072, Note_off_c, 2, 77, 67
4, 531072, Note_on_c, 2, 68, 67
4, 531072, Note_on_c, 2, 70, 67
4, 531136, Note_off_c, 2, 68, 67
4, 531136, Note_off_c, 2, 70, 67
4, 531200, Note_off_c, 2, 68, 67
4, 531200, Note_off_c, 2, 70, 67
4, 531200, Note_on_c, 2, 68, 67
4, 531200, Note_on_c, 2, 70, 67
4, 531264, Note_off_c, 2, 68, 67
4, 531264, Note_off_c, 2, 70, 67
4, 531328, Note_off_c, 2, 68, 67
4, 531328, Note_off_c, 2, 70, 67
4, 531328, Note_on_c, 2, 74, 67
4, 531392, Note_off_c, 2, 74, 67
4, 531392, Note_on_c, 2, 75, 67
4, 531456, Note_off_c, 2, 75, 67
4, 531456, Note_on_c, 2, 77, 67
4, 531520, Note_off_c, 2, 77, 67
4, 531584, Note_off_c, 2, 77, 67
4, 531584, Note_on_c, 2, 74, 67
4, 531584, Note_on_c, 2, 77, 67
4, 531648, Note_off_c, 2, 74, 67
4, 531648, Note_off_c, 2, 77, 67
4, 531712, Note_off_c, 2, 74, 67
4, 531712, Note_off_c, 2, 77, 67
4, 531712, Note_on_c, 2, 74, 67
4, 531712, Note_on_c, 2, 77, 67
4, 531776, Note_off_c, 2, 74, 67
4, 531776, Note_off_c, 2, 77, 67
4, 531840, Note_off_c, 2, 74, 67
4, 531840, Note_off_c, 2, 77, 67
4, 531840, Note_on_c, 2, 74, 67
4, 531904, Note_off_c, 2, 74, 67
4, 531904, Note_on_c, 2, 75, 67
4, 531968, Note_off_c, 2, 75, 67
4, 531968, Note_on_c, 2, 77, 67
4, 532032, Note_off_c, 2, 77, 67
4, 532096, Note_off_c, 2, 77, 67
4, 532096, Note_on_c, 2, 74, 67
4, 532096, Note_on_c, 2, 77, 67
4, 532160, Note_off_c, 2, 74, 67
4, 532160, Note_off_c, 2, 77, 67
4, 532224, Note_off_c, 2, 74, 67
4, 532224, Note_off_c, 2, 77, 67
4, 532224, Note_on_c, 2, 74, 67
4, 532224, Note_on_c, 2, 77, 67
4, 532288, Note_off_c, 2, 74, 67
4, 532288, Note_off_c, 2, 77, 67
4, 532352, Note_off_c, 2, 74, 67
4, 532352, Note_off_c, 2, 77, 67
4, 532352, Note_on_c, 2, 74, 67
4, 532416, Note_off_c, 2, 74, 67
4, 532416, Note_on_c, 2, 75, 67
4, 532480, Note_off_c, 2, 75, 67
4, 532480, Note_on_c, 2, 70, 67
4, 532480, Note_on_c, 2, 77, 67
4, 532544, Note_off_c, 2, 70, 67
4, 532544, Note_off_c, 2, 77, 67
4, 532608, Note_off_c, 2, 70, 67
4, 532608, Note_off_c, 2, 77, 67
4, 532608, Note_on_c, 2, 74, 67
4, 532608, Note_on_c, 2, 77, 67
4, 532672, Note_off_c, 2, 74, 67
4, 532672, Note_off_c, 2, 77, 67
4, 532736, Note_off_c, 2, 74, 67
4, 532736, Note_off_c, 2, 77, 67
4, 532736, Note_on_c, 2, 74, 67
4, 532736, Note_on_c, 2, 79, 67
4, 532768, Note_off_c, 2, 74, 67
4, 532768, Note_off_c, 2, 79, 67
4, 532800, Note_off_c, 2, 74, 67
4, 532800, Note_off_c, 2, 79, 67
4, 532800, Note_on_c, 2, 72, 67
4, 532800, Note_on_c, 2, 77, 67
4, 532832, Note_off_c, 2, 72, 67
4, 532832, Note_off_c, 2, 77, 67
4, 532864, Note_off_c, 2, 72, 67
4, 532864, Note_off_c, 2, 77, 67
4, 532864, Note_on_c, 2, 70, 67
4, 532864, Note_on_c, 2, 77, 67
4, 532896, Note_off_c, 2, 70, 67
4, 532896, Note_off_c, 2, 77, 67
4, 532928, Note_off_c, 2, 70, 67
4, 532928, Note_off_c, 2, 77, 67
4, 532928, Note_on_c, 2, 68, 67
4, 532928, Note_on_c, 2, 79, 67
4, 532960, Note_off_c, 2, 68, 67
4, 532960, Note_off_c, 2, 79, 67
4, 532992, Note_off_c, 2, 68, 67
4, 532992, Note_off_c, 2, 79, 67
4, 532992, Note_on_c, 2, 67, 67
4, 532992, Note_on_c, 2, 75, 67
4, 533056, Note_off_c, 2, 67, 67
4, 533056, Note_off_c, 2, 75, 67
4, 533120, Note_off_c, 2, 67, 67
4, 533120, Note_off_c, 2, 75, 67
4, 533120, Note_on_c, 2, 70, 67
4, 533184, Note_off_c, 2, 70, 67
4, 533248, Note_off_c, 2, 70, 67
4, 533248, Note_on_c, 2, 70, 67
4, 533248, Note_on_c, 2, 79, 67
4, 533312, Note_off_c, 2, 70, 67
4, 533312, Note_off_c, 2, 79, 67
4, 533376, Note_off_c, 2, 70, 67
4, 533376, Note_off_c, 2, 79, 67
4, 533376, Note_on_c, 2, 75, 67
4, 533440, Note_off_c, 2, 75, 67
4, 533440, Note_on_c, 2, 77, 67
4, 533504, Note_off_c, 2, 77, 67
4, 533504, Note_on_c, 2, 79, 67
4, 533568, Note_off_c, 2, 79, 67
4, 533632, Note_off_c, 2, 79, 67
4, 533632, Note_on_c, 2, 75, 67
4, 533632, Note_on_c, 2, 79, 67
4, 533696, Note_off_c, 2, 75, 67
4, 533696, Note_off_c, 2, 79, 67
4, 533760, Note_off_c, 2, 75, 67
4, 533760, Note_off_c, 2, 79, 67
4, 533760, Note_on_c, 2, 75, 67
4, 533760, Note_on_c, 2, 79, 67
4, 533824, Note_off_c, 2, 75, 67
4, 533824, Note_off_c, 2, 79, 67
4, 533888, Note_off_c, 2, 75, 67
4, 533888, Note_off_c, 2, 79, 67
4, 533888, Note_on_c, 2, 75, 67
4, 533952, Note_off_c, 2, 75, 67
4, 533952, Note_on_c, 2, 77, 67
4, 534016, Note_off_c, 2, 77, 67
4, 534016, Note_on_c, 2, 79, 67
4, 534080, Note_off_c, 2, 79, 67
4, 534144, Note_off_c, 2, 79, 67
4, 534144, Note_on_c, 2, 75, 67
4, 534144, Note_on_c, 2, 79, 67
4, 534208, Note_off_c, 2, 75, 67
4, 534208, Note_off_c, 2, 79, 67
4, 534272, Note_off_c, 2, 75, 67
4, 534272, Note_off_c, 2, 79, 67
4, 534272, Note_on_c, 2, 75, 67
4, 534272, Note_on_c, 2, 79, 67
4, 534336, Note_off_c, 2, 75, 67
4, 534336, Note_off_c, 2, 79, 67
4, 534400, Note_off_c, 2, 75, 67
4, 534400, Note_off_c, 2, 79, 67
4, 534400, Note_on_c, 2, 75, 67
4, 534464, Note_off_c, 2, 75, 67
4, 534464, Note_on_c, 2, 77, 67
4, 534528, Note_off_c, 2, 77, 67
4, 534528, Note_on_c, 2, 79, 67
4, 534592, Note_off_c, 2, 79, 67
4, 534656, Note_off_c, 2, 79, 67
4, 534656, Note_on_c, 2, 75, 67
4, 534656, Note_on_c, 2, 79, 67
4, 534720, Note_off_c, 2, 75, 67
4, 534720, Note_off_c, 2, 79, 67
4, 534784, Note_off_c, 2, 75, 67
4, 534784, Note_off_c, 2, 79, 67
4, 534784, Note_on_c, 2, 75, 67
4, 534784, Note_on_c, 2, 80, 67
4, 534816, Note_off_c, 2, 75, 67
4, 534816, Note_off_c, 2, 80, 67
4, 534848, Note_off_c, 2, 75, 67
4, 534848, Note_off_c, 2, 80, 67
4, 534848, Note_on_c, 2, 74, 67
4, 534912, Note_off_c, 2, 74, 67
4, 534912, Note_on_c, 2, 72, 67
4, 534976, Note_off_c, 2, 72, 67
4, 534976, Note_on_c, 2, 74, 67
4, 534976, Note_on_c, 2, 79, 67
4, 535008, Note_off_c, 2, 74, 67
4, 535008, Note_off_c, 2, 79, 67
4, 535040, Note_off_c, 2, 74, 67
4, 535040, Note_off_c, 2, 79, 67
4, 535040, Note_on_c, 2, 70, 67
4, 535040, Note_on_c, 2, 77, 67
4, 535104, Note_off_c, 2, 70, 67
4, 535104, Note_off_c, 2, 77, 67
4, 535168, Note_off_c, 2, 70, 67
4, 535168, Note_off_c, 2, 77, 67
4, 535168, Note_on_c, 2, 68, 67
4, 535168, Note_on_c, 2, 70, 67
4, 535232, Note_off_c, 2, 68, 67
4, 535232, Note_off_c, 2, 70, 67
4, 535296, Note_off_c, 2, 68, 67
4, 535296, Note_off_c, 2, 70, 67
4, 535296, Note_on_c, 2, 68, 67
4, 535296, Note_on_c, 2, 70, 67
4, 535360, Note_off_c, 2, 68, 67
4, 535360, Note_off_c, 2, 70, 67
4, 535424, Note_off_c, 2, 68, 67
4, 535424, Note_off_c, 2, 70, 67
4, 535424, Note_on_c, 2, 74, 67
4, 535488, Note_off_c, 2, 74, 67
4, 535488, Note_on_c, 2, 75, 67
4, 535552, Note_off_c, 2, 75, 67
4, 535552, Note_on_c, 2, 77, 67
4, 535680, Note_off_c, 2, 77, 67
4, 535680, Note_on_c, 2, 74, 67
4, 535680, Note_on_c, 2, 80, 67
4, 535744, Note_off_c, 2, 74, 67
4, 535744, Note_off_c, 2, 80, 67
4, 535808, Note_off_c, 2, 74, 67
4, 535808, Note_off_c, 2, 80, 67
4, 535808, Note_on_c, 2, 74, 67
4, 535808, Note_on_c, 2, 79, 67
4, 535872, Note_off_c, 2, 74, 67
4, 535872, Note_off_c, 2, 79, 67
4, 535936, Note_off_c, 2, 74, 67
4, 535936, Note_off_c, 2, 79, 67
4, 535936, Note_on_c, 2, 77, 67
4, 536000, Note_off_c, 2, 77, 67
4, 536064, Note_off_c, 2, 77, 67
4, 536064, Note_on_c, 2, 75, 67
4, 536128, Note_off_c, 2, 75, 67
4, 536192, Note_off_c, 2, 75, 67
4, 536192, Note_on_c, 2, 70, 67
4, 536192, Note_on_c, 2, 74, 67
4, 536256, Note_off_c, 2, 70, 67
4, 536256, Note_off_c, 2, 74, 67
4, 536320, Note_off_c, 2, 70, 67
4, 536320, Note_off_c, 2, 74, 67
4, 536320, Note_on_c, 2, 72, 67
4, 536320, Note_on_c, 2, 74, 67
4, 536384, Note_off_c, 2, 72, 67
4, 536384, Note_off_c, 2, 74, 67
4, 536448, Note_off_c, 2, 72, 67
4, 536448, Note_off_c, 2, 74, 67
4, 536448, Note_on_c, 2, 70, 67
4, 536448, Note_on_c, 2, 74, 67
4, 536512, Note_off_c, 2, 70, 67
4, 536512, Note_off_c, 2, 74, 67
4, 536576, Note_off_c, 2, 70, 67
4, 536576, Note_off_c, 2, 74, 67
4, 536576, Note_on_c, 2, 80, 67
4, 536576, Note_on_c, 2, 84, 67
4, 536832, Note_off_c, 2, 80, 67
4, 536832, Note_off_c, 2, 84, 67
4, 536832, Note_on_c, 2, 70, 67
4, 536832, Note_on_c, 2, 74, 67
4, 536848, Note_off_c, 2, 70, 67
4, 536848, Note_off_c, 2, 74, 67
4, 536864, Note_off_c, 2, 70, 67
4, 536864, Note_off_c, 2, 74, 67
4, 536864, Note_on_c, 2, 72, 67
4, 536864, Note_on_c, 2, 75, 67
4, 536880, Note_off_c, 2, 72, 67
4, 536880, Note_off_c, 2, 75, 67
4, 536896, Note_off_c, 2, 72, 67
4, 536896, Note_off_c, 2, 75, 67
4, 536896, Note_on_c, 2, 70, 67
4, 536896, Note_on_c, 2, 74, 67
4, 536928, Note_off_c, 2, 70, 67
4, 536928, Note_off_c, 2, 74, 67
4, 536960, Note_off_c, 2, 70, 67
4, 536960, Note_off_c, 2, 74, 67
4, 536960, Note_on_c, 2, 68, 67
4, 536960, Note_on_c, 2, 72, 67
4, 536992, Note_off_c, 2, 68, 67
4, 536992, Note_off_c, 2, 72, 67
4, 537024, Note_off_c, 2, 68, 67
4, 537024, Note_off_c, 2, 72, 67
4, 537024, Note_on_c, 2, 74, 67
4, 537024, Note_on_c, 2, 77, 67
4, 537056, Note_off_c, 2, 74, 67
4, 537056, Note_off_c, 2, 77, 67
4, 537088, Note_off_c, 2, 74, 67
4, 537088, Note_off_c, 2, 77, 67
4, 537088, Note_on_c, 2, 75, 67
4, 537088, Note_on_c, 2, 79, 67
4, 537216, Note_off_c, 2, 75, 67
4, 537216, Note_off_c, 2, 79, 67
4, 537216, Note_on_c, 2, 70, 67
4, 537280, Note_off_c, 2, 70, 67
4, 537344, Note_off_c, 2, 70, 67
4, 537344, Note_on_c, 2, 70, 67
4, 537408, Note_off_c, 2, 70, 67
4, 537472, Note_off_c, 2, 70, 67
4, 537472, Note_on_c, 2, 75, 67
4, 537472, Note_on_c, 2, 79, 67
4, 537536, Note_off_c, 2, 75, 67
4, 537536, Note_off_c, 2, 79, 67
4, 537536, Note_on_c, 2, 77, 67
4, 537536, Note_on_c, 2, 80, 67
4, 537600, Note_off_c, 2, 77, 67
4, 537600, Note_off_c, 2, 80, 67
4, 537600, Note_on_c, 2, 79, 67
4, 537600, Note_on_c, 2, 82, 67
4, 537664, Note_off_c, 2, 79, 67
4, 537664, Note_off_c, 2, 82, 67
4, 537728, Note_off_c, 2, 79, 67
4, 537728, Note_off_c, 2, 82, 67
4, 537728, Note_on_c, 2, 79, 67
4, 537728, Note_on_c, 2, 82, 67
4, 537792, Note_off_c, 2, 79, 67
4, 537792, Note_off_c, 2, 82, 67
4, 537856, Note_off_c, 2, 79, 67
4, 537856, Note_off_c, 2, 82, 67
4, 537856, Note_on_c, 2, 70, 67
4, 537856, Note_on_c, 2, 79, 67
4, 537920, Note_off_c, 2, 70, 67
4, 537920, Note_off_c, 2, 79, 67
4, 537984, Note_off_c, 2, 70, 67
4, 537984, Note_off_c, 2, 79, 67
4, 537984, Note_on_c, 2, 70, 67
4, 537984, Note_on_c, 2, 75, 67
4, 538048, Note_off_c, 2, 70, 67
4, 538048, Note_off_c, 2, 75, 67
4, 538112, Note_off_c, 2, 70, 67
4, 538112, Note_off_c, 2, 75, 67
4, 538112, Note_on_c, 2, 84, 67
4, 538112, Note_on_c, 2, 87, 67
4, 538176, Note_off_c, 2, 84, 67
4, 538176, Note_off_c, 2, 87, 67
4, 538240, Note_off_c, 2, 84, 67
4, 538240, Note_off_c, 2, 87, 67
4, 538240, Note_on_c, 2, 82, 67
4, 538240, Note_on_c, 2, 86, 67
4, 538304, Note_off_c, 2, 82, 67
4, 538304, Note_off_c, 2, 86, 67
4, 538368, Note_off_c, 2, 82, 67
4, 538368, Note_off_c, 2, 86, 67
4, 538368, Note_on_c, 2, 80, 67
4, 538368, Note_on_c, 2, 84, 67
4, 538432, Note_off_c, 2, 80, 67
4, 538432, Note_off_c, 2, 84, 67
4, 538496, Note_off_c, 2, 80, 67
4, 538496, Note_off_c, 2, 84, 67
4, 538496, Note_on_c, 2, 79, 67
4, 538496, Note_on_c, 2, 87, 67
4, 538560, Note_off_c, 2, 79, 67
4, 538560, Note_off_c, 2, 87, 67
4, 538624, Note_off_c, 2, 79, 67
4, 538624, Note_off_c, 2, 87, 67
4, 538624, Note_on_c, 2, 75, 67
4, 538624, Note_on_c, 2, 82, 67
4, 538688, Note_off_c, 2, 75, 67
4, 538688, Note_off_c, 2, 82, 67
4, 538752, Note_off_c, 2, 75, 67
4, 538752, Note_off_c, 2, 82, 67
4, 538752, Note_on_c, 2, 79, 67
4, 538816, Note_off_c, 2, 79, 67
4, 538880, Note_off_c, 2, 79, 67
4, 538880, Note_on_c, 2, 67, 67
4, 538880, Note_on_c, 2, 75, 67
4, 538944, Note_off_c, 2, 67, 67
4, 538944, Note_off_c, 2, 75, 67
4, 539008, Note_off_c, 2, 67, 67
4, 539008, Note_off_c, 2, 75, 67
4, 539008, Note_on_c, 2, 68, 67
4, 539008, Note_on_c, 2, 74, 67
4, 539040, Note_off_c, 2, 68, 67
4, 539040, Note_off_c, 2, 74, 67
4, 539072, Note_off_c, 2, 68, 67
4, 539072, Note_off_c, 2, 74, 67
4, 539072, Note_on_c, 2, 74, 67
4, 539072, Note_on_c, 2, 79, 67
4, 539104, Note_off_c, 2, 74, 67
4, 539104, Note_off_c, 2, 79, 67
4, 539136, Note_off_c, 2, 74, 67
4, 539136, Note_off_c, 2, 79, 67
4, 539136, Note_on_c, 2, 70, 67
4, 539136, Note_on_c, 2, 77, 67
4, 539200, Note_off_c, 2, 70, 67
4, 539200, Note_off_c, 2, 77, 67
4, 539264, Note_off_c, 2, 70, 67
4, 539264, Note_off_c, 2, 77, 67
4, 539264, Note_on_c, 2, 65, 67
4, 539264, Note_on_c, 2, 70, 67
4, 539328, Note_off_c, 2, 65, 67
4, 539328, Note_off_c, 2, 70, 67
4, 539392, Note_off_c, 2, 65, 67
4, 539392, Note_off_c, 2, 70, 67
4, 539392, Note_on_c, 2, 68, 67
4, 539392, Note_on_c, 2, 70, 67
4, 539456, Note_off_c, 2, 68, 67
4, 539456, Note_off_c, 2, 70, 67
4, 539520, Note_off_c, 2, 68, 67
4, 539520, Note_off_c, 2, 70, 67
4, 539520, Note_on_c, 2, 70, 67
4, 539520, Note_on_c, 2, 79, 67
4, 539584, Note_off_c, 2, 70, 67
4, 539584, Note_off_c, 2, 79, 67
4, 539584, Note_on_c, 2, 77, 67
4, 539584, Note_on_c, 2, 80, 67
4, 539648, Note_off_c, 2, 77, 67
4, 539648, Note_off_c, 2, 80, 67
4, 539648, Note_on_c, 2, 79, 67
4, 539648, Note_on_c, 2, 82, 67
4, 539712, Note_off_c, 2, 79, 67
4, 539712, Note_off_c, 2, 82, 67
4, 539776, Note_off_c, 2, 79, 67
4, 539776, Note_off_c, 2, 82, 67
4, 539776, Note_on_c, 2, 79, 67
4, 539776, Note_on_c, 2, 82, 67
4, 539840, Note_off_c, 2, 79, 67
4, 539840, Note_off_c, 2, 82, 67
4, 539904, Note_off_c, 2, 79, 67
4, 539904, Note_off_c, 2, 82, 67
4, 539904, Note_on_c, 2, 70, 67
4, 539904, Note_on_c, 2, 79, 67
4, 539968, Note_off_c, 2, 70, 67
4, 539968, Note_off_c, 2, 79, 67
4, 540032, Note_off_c, 2, 70, 67
4, 540032, Note_off_c, 2, 79, 67
4, 540032, Note_on_c, 2, 75, 67
4, 540032, Note_on_c, 2, 82, 67
4, 540096, Note_off_c, 2, 75, 67
4, 540096, Note_off_c, 2, 82, 67
4, 540160, Note_off_c, 2, 75, 67
4, 540160, Note_off_c, 2, 82, 67
4, 540160, Note_on_c, 2, 84, 67
4, 540160, Note_on_c, 2, 87, 67
4, 540224, Note_off_c, 2, 84, 67
4, 540224, Note_off_c, 2, 87, 67
4, 540288, Note_off_c, 2, 84, 67
4, 540288, Note_off_c, 2, 87, 67
4, 540288, Note_on_c, 2, 82, 67
4, 540288, Note_on_c, 2, 86, 67
4, 540352, Note_off_c, 2, 82, 67
4, 540352, Note_off_c, 2, 86, 67
4, 540416, Note_off_c, 2, 82, 67
4, 540416, Note_off_c, 2, 86, 67
4, 540416, Note_on_c, 2, 80, 67
4, 540416, Note_on_c, 2, 84, 67
4, 540480, Note_off_c, 2, 80, 67
4, 540480, Note_off_c, 2, 84, 67
4, 540544, Note_off_c, 2, 80, 67
4, 540544, Note_off_c, 2, 84, 67
4, 540544, Note_on_c, 2, 70, 67
4, 540544, Note_on_c, 2, 74, 67
4, 540576, Note_off_c, 2, 70, 67
4, 540576, Note_off_c, 2, 74, 67
4, 540608, Note_off_c, 2, 70, 67
4, 540608, Note_off_c, 2, 74, 67
4, 540608, Note_on_c, 2, 77, 67
4, 540608, Note_on_c, 2, 80, 67
4, 540640, Note_off_c, 2, 77, 67
4, 540640, Note_off_c, 2, 80, 67
4, 540672, Note_off_c, 2, 77, 67
4, 540672, Note_off_c, 2, 80, 67
4, 540672, Note_on_c, 2, 77, 67
4, 540672, Note_on_c, 2, 82, 67
4, 540736, Note_off_c, 2, 77, 67
4, 540736, Note_off_c, 2, 82, 67
4, 540800, Note_off_c, 2, 77, 67
4, 540800, Note_off_c, 2, 82, 67
4, 540800, Note_on_c, 2, 80, 67
4, 540800, Note_on_c, 2, 87, 67
4, 540864, Note_off_c, 2, 80, 67
4, 540864, Note_off_c, 2, 87, 67
4, 540928, Note_off_c, 2, 80, 67
4, 540928, Note_off_c, 2, 87, 67
4, 540928, Note_on_c, 2, 82, 67
4, 540928, Note_on_c, 2, 86, 67
4, 540992, Note_off_c, 2, 82, 67
4, 540992, Note_off_c, 2, 86, 67
4, 541056, Note_off_c, 2, 82, 67
4, 541056, Note_off_c, 2, 86, 67
4, 541056, Note_on_c, 2, 80, 67
4, 541056, Note_on_c, 2, 89, 67
4, 541120, Note_off_c, 2, 80, 67
4, 541120, Note_off_c, 2, 89, 67
4, 541184, Note_off_c, 2, 80, 67
4, 541184, Note_off_c, 2, 89, 67
4, 541184, Note_on_c, 2, 79, 67
4, 541184, Note_on_c, 2, 87, 67
4, 541248, Note_off_c, 2, 79, 67
4, 541248, Note_off_c, 2, 87, 67
4, 541312, Note_off_c, 2, 79, 67
4, 541312, Note_off_c, 2, 87, 67
4, 541312, Note_on_c, 2, 70, 67
4, 541312, Note_on_c, 2, 82, 67
4, 541376, Note_off_c, 2, 70, 67
4, 541376, Note_off_c, 2, 82, 67
4, 541440, Note_off_c, 2, 70, 67
4, 541440, Note_off_c, 2, 82, 67
4, 541440, Note_on_c, 2, 70, 67
4, 541440, Note_on_c, 2, 82, 67
4, 541504, Note_off_c, 2, 70, 67
4, 541504, Note_off_c, 2, 82, 67
4, 541568, Note_off_c, 2, 70, 67
4, 541568, Note_off_c, 2, 82, 67
4, 541568, Note_on_c, 2, 75, 67
4, 541632, Note_off_c, 2, 75, 67
4, 541632, Note_on_c, 2, 77, 67
4, 541696, Note_off_c, 2, 77, 67
4, 541696, Note_on_c, 2, 79, 67
4, 541760, Note_off_c, 2, 79, 67
4, 541824, Note_off_c, 2, 79, 67
4, 541824, Note_on_c, 2, 75, 67
4, 541824, Note_on_c, 2, 79, 67
4, 541888, Note_off_c, 2, 75, 67
4, 541888, Note_off_c, 2, 79, 67
4, 541952, Note_off_c, 2, 75, 67
4, 541952, Note_off_c, 2, 79, 67
4, 541952, Note_on_c, 2, 75, 67
4, 541952, Note_on_c, 2, 79, 67
4, 542016, Note_off_c, 2, 75, 67
4, 542016, Note_off_c, 2, 79, 67
4, 542080, Note_off_c, 2, 75, 67
4, 542080, Note_off_c, 2, 79, 67
4, 542080, Note_on_c, 2, 75, 67
4, 542144, Note_off_c, 2, 75, 67
4, 542144, Note_on_c, 2, 77, 67
4, 542208, Note_off_c, 2, 77, 67
4, 542208, Note_on_c, 2, 79, 67
4, 542272, Note_off_c, 2, 79, 67
4, 542336, Note_off_c, 2, 79, 67
4, 542336, Note_on_c, 2, 75, 67
4, 542336, Note_on_c, 2, 79, 67
4, 542400, Note_off_c, 2, 75, 67
4, 542400, Note_off_c, 2, 79, 67
4, 542464, Note_off_c, 2, 75, 67
4, 542464, Note_off_c, 2, 79, 67
4, 542464, Note_on_c, 2, 75, 67
4, 542464, Note_on_c, 2, 79, 67
4, 542528, Note_off_c, 2, 75, 67
4, 542528, Note_off_c, 2, 79, 67
4, 542592, Note_off_c, 2, 75, 67
4, 542592, Note_off_c, 2, 79, 67
4, 542592, Note_on_c, 2, 75, 67
4, 542656, Note_off_c, 2, 75, 67
4, 542656, Note_on_c, 2, 77, 67
4, 542720, Note_off_c, 2, 77, 67
4, 542720, Note_on_c, 2, 79, 67
4, 542784, Note_off_c, 2, 79, 67
4, 542848, Note_off_c, 2, 79, 67
4, 542848, Note_on_c, 2, 75, 67
4, 542848, Note_on_c, 2, 79, 67
4, 542912, Note_off_c, 2, 75, 67
4, 542912, Note_off_c, 2, 79, 67
4, 542976, Note_off_c, 2, 75, 67
4, 542976, Note_off_c, 2, 79, 67
4, 542976, Note_on_c, 2, 75, 67
4, 542976, Note_on_c, 2, 80, 67
4, 543008, Note_off_c, 2, 75, 67
4, 543008, Note_off_c, 2, 80, 67
4, 543040, Note_off_c, 2, 75, 67
4, 543040, Note_off_c, 2, 80, 67
4, 543040, Note_on_c, 2, 74, 67
4, 543072, Note_off_c, 2, 74, 67
4, 543104, Note_off_c, 2, 74, 67
4, 543104, Note_on_c, 2, 72, 67
4, 543136, Note_off_c, 2, 72, 67
4, 543168, Note_off_c, 2, 72, 67
4, 543168, Note_on_c, 2, 74, 67
4, 543168, Note_on_c, 2, 79, 67
4, 543200, Note_off_c, 2, 74, 67
4, 543200, Note_off_c, 2, 79, 67
4, 543232, Note_off_c, 2, 74, 67
4, 543232, Note_off_c, 2, 79, 67
4, 543232, Note_on_c, 2, 70, 67
4, 543232, Note_on_c, 2, 77, 67
4, 543296, Note_off_c, 2, 70, 67
4, 543296, Note_off_c, 2, 77, 67
4, 543360, Note_off_c, 2, 70, 67
4, 543360, Note_off_c, 2, 77, 67
4, 543360, Note_on_c, 2, 68, 67
4, 543360, Note_on_c, 2, 70, 67
4, 543424, Note_off_c, 2, 68, 67
4, 543424, Note_off_c, 2, 70, 67
4, 543488, Note_off_c, 2, 68, 67
4, 543488, Note_off_c, 2, 70, 67
4, 543488, Note_on_c, 2, 68, 67
4, 543488, Note_on_c, 2, 70, 67
4, 543552, Note_off_c, 2, 68, 67
4, 543552, Note_off_c, 2, 70, 67
4, 543616, Note_off_c, 2, 68, 67
4, 543616, Note_off_c, 2, 70, 67
4, 543616, Note_on_c, 2, 74, 67
4, 543680, Note_off_c, 2, 74, 67
4, 543680, Note_on_c, 2, 75, 67
4, 543744, Note_off_c, 2, 75, 67
4, 543744, Note_on_c, 2, 77, 67
4, 543808, Note_off_c, 2, 77, 67
4, 543872, Note_off_c, 2, 77, 67
4, 543872, Note_on_c, 2, 74, 67
4, 543872, Note_on_c, 2, 77, 67
4, 543936, Note_off_c, 2, 74, 67
4, 543936, Note_off_c, 2, 77, 67
4, 544000, Note_off_c, 2, 74, 67
4, 544000, Note_off_c, 2, 77, 67
4, 544000, Note_on_c, 2, 74, 67
4, 544000, Note_on_c, 2, 77, 67
4, 544064, Note_off_c, 2, 74, 67
4, 544064, Note_off_c, 2, 77, 67
4, 544128, Note_off_c, 2, 74, 67
4, 544128, Note_off_c, 2, 77, 67
4, 544128, Note_on_c, 2, 74, 67
4, 544192, Note_off_c, 2, 74, 67
4, 544192, Note_on_c, 2, 75, 67
4, 544256, Note_off_c, 2, 75, 67
4, 544256, Note_on_c, 2, 77, 67
4, 544320, Note_off_c, 2, 77, 67
4, 544384, Note_off_c, 2, 77, 67
4, 544384, Note_on_c, 2, 74, 67
4, 544384, Note_on_c, 2, 77, 67
4, 544448, Note_off_c, 2, 74, 67
4, 544448, Note_off_c, 2, 77, 67
4, 544512, Note_off_c, 2, 74, 67
4, 544512, Note_off_c, 2, 77, 67
4, 544512, Note_on_c, 2, 74, 67
4, 544512, Note_on_c, 2, 77, 67
4, 544576, Note_off_c, 2, 74, 67
4, 544576, Note_off_c, 2, 77, 67
4, 544640, Note_off_c, 2, 74, 67
4, 544640, Note_off_c, 2, 77, 67
4, 544640, Note_on_c, 2, 74, 67
4, 544704, Note_off_c, 2, 74, 67
4, 544704, Note_on_c, 2, 75, 67
4, 544768, Note_off_c, 2, 75, 67
4, 544768, Note_on_c, 2, 70, 67
4, 544768, Note_on_c, 2, 77, 67
4, 544832, Note_off_c, 2, 70, 67
4, 544832, Note_off_c, 2, 77, 67
4, 544896, Note_off_c, 2, 70, 67
4, 544896, Note_off_c, 2, 77, 67
4, 544896, Note_on_c, 2, 74, 67
4, 544896, Note_on_c, 2, 77, 67
4, 544960, Note_off_c, 2, 74, 67
4, 544960, Note_off_c, 2, 77, 67
4, 545024, Note_off_c, 2, 74, 67
4, 545024, Note_off_c, 2, 77, 67
4, 545024, Note_on_c, 2, 74, 67
4, 545024, Note_on_c, 2, 79, 67
4, 545056, Note_off_c, 2, 74, 67
4, 545056, Note_off_c, 2, 79, 67
4, 545088, Note_off_c, 2, 74, 67
4, 545088, Note_off_c, 2, 79, 67
4, 545088, Note_on_c, 2, 72, 67
4, 545088, Note_on_c, 2, 77, 67
4, 545120, Note_off_c, 2, 72, 67
4, 545120, Note_off_c, 2, 77, 67
4, 545152, Note_off_c, 2, 72, 67
4, 545152, Note_off_c, 2, 77, 67
4, 545152, Note_on_c, 2, 70, 67
4, 545152, Note_on_c, 2, 77, 67
4, 545184, Note_off_c, 2, 70, 67
4, 545184, Note_off_c, 2, 77, 67
4, 545216, Note_off_c, 2, 70, 67
4, 545216, Note_off_c, 2, 77, 67
4, 545216, Note_on_c, 2, 68, 67
4, 545216, Note_on_c, 2, 79, 67
4, 545248, Note_off_c, 2, 68, 67
4, 545248, Note_off_c, 2, 79, 67
4, 545280, Note_off_c, 2, 68, 67
4, 545280, Note_off_c, 2, 79, 67
4, 545280, Note_on_c, 2, 67, 67
4, 545280, Note_on_c, 2, 75, 67
4, 545344, Note_off_c, 2, 67, 67
4, 545344, Note_off_c, 2, 75, 67
4, 545408, Note_off_c, 2, 67, 67
4, 545408, Note_off_c, 2, 75, 67
4, 545408, Note_on_c, 2, 70, 67
4, 545472, Note_off_c, 2, 70, 67
4, 545536, Note_off_c, 2, 70, 67
4, 545536, Note_on_c, 2, 70, 67
4, 545536, Note_on_c, 2, 79, 67
4, 545600, Note_off_c, 2, 70, 67
4, 545600, Note_off_c, 2, 79, 67
4, 545664, Note_off_c, 2, 70, 67
4, 545664, Note_off_c, 2, 79, 67
4, 545664, Note_on_c, 2, 75, 67
4, 545728, Note_off_c, 2, 75, 67
4, 545728, Note_on_c, 2, 77, 67
4, 545792, Note_off_c, 2, 77, 67
4, 545792, Note_on_c, 2, 79, 67
4, 545856, Note_off_c, 2, 79, 67
4, 545920, Note_off_c, 2, 79, 67
4, 545920, Note_on_c, 2, 75, 67
4, 545920, Note_on_c, 2, 79, 67
4, 545984, Note_off_c, 2, 75, 67
4, 545984, Note_off_c, 2, 79, 67
4, 546048, Note_off_c, 2, 75, 67
4, 546048, Note_off_c, 2, 79, 67
4, 546048, Note_on_c, 2, 75, 67
4, 546048, Note_on_c, 2, 79, 67
4, 546112, Note_off_c, 2, 75, 67
4, 546112, Note_off_c, 2, 79, 67
4, 546176, Note_off_c, 2, 75, 67
4, 546176, Note_off_c, 2, 79, 67
4, 546176, Note_on_c, 2, 75, 67
4, 546240, Note_off_c, 2, 75, 67
4, 546240, Note_on_c, 2, 77, 67
4, 546304, Note_off_c, 2, 77, 67
4, 546304, Note_on_c, 2, 79, 67
4, 546368, Note_off_c, 2, 79, 67
4, 546432, Note_off_c, 2, 79, 67
4, 546432, Note_on_c, 2, 75, 67
4, 546432, Note_on_c, 2, 79, 67
4, 546496, Note_off_c, 2, 75, 67
4, 546496, Note_off_c, 2, 79, 67
4, 546560, Note_off_c, 2, 75, 67
4, 546560, Note_off_c, 2, 79, 67
4, 546560, Note_on_c, 2, 75, 67
4, 546560, Note_on_c, 2, 79, 67
4, 546624, Note_off_c, 2, 75, 67
4, 546624, Note_off_c, 2, 79, 67
4, 546688, Note_off_c, 2, 75, 67
4, 546688, Note_off_c, 2, 79, 67
4, 546688, Note_on_c, 2, 75, 67
4, 546752, Note_off_c, 2, 75, 67
4, 546752, Note_on_c, 2, 77, 67
4, 546816, Note_off_c, 2, 77, 67
4, 546816, Note_on_c, 2, 79, 67
4, 546880, Note_off_c, 2, 79, 67
4, 546944, Note_off_c, 2, 79, 67
4, 546944, Note_on_c, 2, 75, 67
4, 546944, Note_on_c, 2, 79, 67
4, 547008, Note_off_c, 2, 75, 67
4, 547008, Note_off_c, 2, 79, 67
4, 547072, Note_off_c, 2, 75, 67
4, 547072, Note_off_c, 2, 79, 67
4, 547072, Note_on_c, 2, 75, 67
4, 547072, Note_on_c, 2, 80, 67
4, 547104, Note_off_c, 2, 75, 67
4, 547104, Note_off_c, 2, 80, 67
4, 547136, Note_off_c, 2, 75, 67
4, 547136, Note_off_c, 2, 80, 67
4, 547136, Note_on_c, 2, 74, 67
4, 547200, Note_off_c, 2, 74, 67
4, 547200, Note_on_c, 2, 72, 67
4, 547264, Note_off_c, 2, 72, 67
4, 547264, Note_on_c, 2, 74, 67
4, 547264, Note_on_c, 2, 79, 67
4, 547296, Note_off_c, 2, 74, 67
4, 547296, Note_off_c, 2, 79, 67
4, 547328, Note_off_c, 2, 74, 67
4, 547328, Note_off_c, 2, 79, 67
4, 547328, Note_on_c, 2, 70, 67
4, 547328, Note_on_c, 2, 77, 67
4, 547392, Note_off_c, 2, 70, 67
4, 547392, Note_off_c, 2, 77, 67
4, 547456, Note_off_c, 2, 70, 67
4, 547456, Note_off_c, 2, 77, 67
4, 547456, Note_on_c, 2, 68, 67
4, 547456, Note_on_c, 2, 70, 67
4, 547520, Note_off_c, 2, 68, 67
4, 547520, Note_off_c, 2, 70, 67
4, 547584, Note_off_c, 2, 68, 67
4, 547584, Note_off_c, 2, 70, 67
4, 547584, Note_on_c, 2, 68, 67
4, 547584, Note_on_c, 2, 70, 67
4, 547648, Note_off_c, 2, 68, 67
4, 547648, Note_off_c, 2, 70, 67
4, 547712, Note_off_c, 2, 68, 67
4, 547712, Note_off_c, 2, 70, 67
4, 547712, Note_on_c, 2, 74, 67
4, 547776, Note_off_c, 2, 74, 67
4, 547776, Note_on_c, 2, 75, 67
4, 547840, Note_off_c, 2, 75, 67
4, 547840, Note_on_c, 2, 77, 67
4, 547968, Note_off_c, 2, 77, 67
4, 547968, Note_on_c, 2, 74, 67
4, 547968, Note_on_c, 2, 80, 67
4, 548032, Note_off_c, 2, 74, 67
4, 548032, Note_off_c, 2, 80, 67
4, 548096, Note_off_c, 2, 74, 67
4, 548096, Note_off_c, 2, 80, 67
4, 548096, Note_on_c, 2, 74, 67
4, 548096, Note_on_c, 2, 79, 67
4, 548160, Note_off_c, 2, 74, 67
4, 548160, Note_off_c, 2, 79, 67
4, 548224, Note_off_c, 2, 74, 67
4, 548224, Note_off_c, 2, 79, 67
4, 548224, Note_on_c, 2, 77, 67
4, 548288, Note_off_c, 2, 77, 67
4, 548352, Note_off_c, 2, 77, 67
4, 548352, Note_on_c, 2, 75, 67
4, 548416, Note_off_c, 2, 75, 67
4, 548480, Note_off_c, 2, 75, 67
4, 548480, Note_on_c, 2, 70, 67
4, 548480, Note_on_c, 2, 74, 67
4, 548544, Note_off_c, 2, 70, 67
4, 548544, Note_off_c, 2, 74, 67
4, 548608, Note_off_c, 2, 70, 67
4, 548608, Note_off_c, 2, 74, 67
4, 548608, Note_on_c, 2, 72, 67
4, 548608, Note_on_c, 2, 74, 67
4, 548672, Note_off_c, 2, 72, 67
4, 548672, Note_off_c, 2, 74, 67
4, 548736, Note_off_c, 2, 72, 67
4, 548736, Note_off_c, 2, 74, 67
4, 548736, Note_on_c, 2, 70, 67
4, 548736, Note_on_c, 2, 74, 67
4, 548800, Note_off_c, 2, 70, 67
4, 548800, Note_off_c, 2, 74, 67
4, 548864, Note_off_c, 2, 70, 67
4, 548864, Note_off_c, 2, 74, 67
4, 548864, Note_on_c, 2, 80, 67
4, 548864, Note_on_c, 2, 84, 67
4, 549120, Note_off_c, 2, 80, 67
4, 549120, Note_off_c, 2, 84, 67
4, 549120, Note_on_c, 2, 70, 67
4, 549120, Note_on_c, 2, 74, 67
4, 549136, Note_off_c, 2, 70, 67
4, 549136, Note_off_c, 2, 74, 67
4, 549152, Note_off_c, 2, 70, 67
4, 549152, Note_off_c, 2, 74, 67
4, 549152, Note_on_c, 2, 72, 67
4, 549152, Note_on_c, 2, 75, 67
4, 549168, Note_off_c, 2, 72, 67
4, 549168, Note_off_c, 2, 75, 67
4, 549184, Note_off_c, 2, 72, 67
4, 549184, Note_off_c, 2, 75, 67
4, 549184, Note_on_c, 2, 70, 67
4, 549184, Note_on_c, 2, 74, 67
4, 549216, Note_off_c, 2, 70, 67
4, 549216, Note_off_c, 2, 74, 67
4, 549248, Note_off_c, 2, 70, 67
4, 549248, Note_off_c, 2, 74, 67
4, 549248, Note_on_c, 2, 68, 67
4, 549248, Note_on_c, 2, 72, 67
4, 549280, Note_off_c, 2, 68, 67
4, 549280, Note_off_c, 2, 72, 67
4, 549312, Note_off_c, 2, 68, 67
4, 549312, Note_off_c, 2, 72, 67
4, 549312, Note_on_c, 2, 74, 67
4, 549312, Note_on_c, 2, 77, 67
4, 549344, Note_off_c, 2, 74, 67
4, 549344, Note_off_c, 2, 77, 67
4, 549376, Note_off_c, 2, 74, 67
4, 549376, Note_off_c, 2, 77, 67
4, 549376, Note_on_c, 2, 75, 67
4, 549376, Note_on_c, 2, 79, 67
4, 549504, Note_off_c, 2, 75, 67
4, 549504, Note_off_c, 2, 79, 67
4, 549504, Note_on_c, 2, 70, 67
4, 549568, Note_off_c, 2, 70, 67
4, 549632, Note_off_c, 2, 70, 67
4, 549632, Note_on_c, 2, 70, 67
4, 549696, Note_off_c, 2, 70, 67
4, 549760, Note_off_c, 2, 70, 67
4, 549760, Note_on_c, 2, 75, 67
4, 549760, Note_on_c, 2, 79, 67
4, 549824, Note_off_c, 2, 75, 67
4, 549824, Note_off_c, 2, 79, 67
4, 549824, Note_on_c, 2, 77, 67
4, 549824, Note_on_c, 2, 80, 67
4, 549888, Note_off_c, 2, 77, 67
4, 549888, Note_off_c, 2, 80, 67
4, 549888, Note_on_c, 2, 79, 67
4, 549888, Note_on_c, 2, 82, 67
4, 549952, Note_off_c, 2, 79, 67
4, 549952, Note_off_c, 2, 82, 67
4, 550016, Note_off_c, 2, 79, 67
4, 550016, Note_off_c, 2, 82, 67
4, 550016, Note_on_c, 2, 79, 67
4, 550016, Note_on_c, 2, 82, 67
4, 550080, Note_off_c, 2, 79, 67
4, 550080, Note_off_c, 2, 82, 67
4, 550144, Note_off_c, 2, 79, 67
4, 550144, Note_off_c, 2, 82, 67
4, 550144, Note_on_c, 2, 70, 67
4, 550144, Note_on_c, 2, 79, 67
4, 550208, Note_off_c, 2, 70, 67
4, 550208, Note_off_c, 2, 79, 67
4, 550272, Note_off_c, 2, 70, 67
4, 550272, Note_off_c, 2, 79, 67
4, 550272, Note_on_c, 2, 70, 67
4, 550272, Note_on_c, 2, 75, 67
4, 550336, Note_off_c, 2, 70, 67
4, 550336, Note_off_c, 2, 75, 67
4, 550400, Note_off_c, 2, 70, 67
4, 550400, Note_off_c, 2, 75, 67
4, 550400, Note_on_c, 2, 84, 67
4, 550400, Note_on_c, 2, 87, 67
4, 550464, Note_off_c, 2, 84, 67
4, 550464, Note_off_c, 2, 87, 67
4, 550528, Note_off_c, 2, 84, 67
4, 550528, Note_off_c, 2, 87, 67
4, 550528, Note_on_c, 2, 82, 67
4, 550528, Note_on_c, 2, 86, 67
4, 550592, Note_off_c, 2, 82, 67
4, 550592, Note_off_c, 2, 86, 67
4, 550656, Note_off_c, 2, 82, 67
4, 550656, Note_off_c, 2, 86, 67
4, 550656, Note_on_c, 2, 80, 67
4, 550656, Note_on_c, 2, 84, 67
4, 550720, Note_off_c, 2, 80, 67
4, 550720, Note_off_c, 2, 84, 67
4, 550784, Note_off_c, 2, 80, 67
4, 550784, Note_off_c, 2, 84, 67
4, 550784, Note_on_c, 2, 79, 67
4, 550784, Note_on_c, 2, 87, 67
4, 550848, Note_off_c, 2, 79, 67
4, 550848, Note_off_c, 2, 87, 67
4, 550912, Note_off_c, 2, 79, 67
4, 550912, Note_off_c, 2, 87, 67
4, 550912, Note_on_c, 2, 75, 67
4, 550912, Note_on_c, 2, 82, 67
4, 550976, Note_off_c, 2, 75, 67
4, 550976, Note_off_c, 2, 82, 67
4, 551040, Note_off_c, 2, 75, 67
4, 551040, Note_off_c, 2, 82, 67
4, 551040, Note_on_c, 2, 79, 67
4, 551104, Note_off_c, 2, 79, 67
4, 551168, Note_off_c, 2, 79, 67
4, 551168, Note_on_c, 2, 67, 67
4, 551168, Note_on_c, 2, 75, 67
4, 551232, Note_off_c, 2, 67, 67
4, 551232, Note_off_c, 2, 75, 67
4, 551296, Note_off_c, 2, 67, 67
4, 551296, Note_off_c, 2, 75, 67
4, 551296, Note_on_c, 2, 68, 67
4, 551296, Note_on_c, 2, 74, 67
4, 551328, Note_off_c, 2, 68, 67
4, 551328, Note_off_c, 2, 74, 67
4, 551360, Note_off_c, 2, 68, 67
4, 551360, Note_off_c, 2, 74, 67
4, 551360, Note_on_c, 2, 74, 67
4, 551360, Note_on_c, 2, 79, 67
4, 551392, Note_off_c, 2, 74, 67
4, 551392, Note_off_c, 2, 79, 67
4, 551424, Note_off_c, 2, 74, 67
4, 551424, Note_off_c, 2, 79, 67
4, 551424, Note_on_c, 2, 70, 67
4, 551424, Note_on_c, 2, 77, 67
4, 551488, Note_off_c, 2, 70, 67
4, 551488, Note_off_c, 2, 77, 67
4, 551552, Note_off_c, 2, 70, 67
4, 551552, Note_off_c, 2, 77, 67
4, 551552, Note_on_c, 2, 65, 67
4, 551552, Note_on_c, 2, 70, 67
4, 551616, Note_off_c, 2, 65, 67
4, 551616, Note_off_c, 2, 70, 67
4, 551680, Note_off_c, 2, 65, 67
4, 551680, Note_off_c, 2, 70, 67
4, 551680, Note_on_c, 2, 68, 67
4, 551680, Note_on_c, 2, 70, 67
4, 551744, Note_off_c, 2, 68, 67
4, 551744, Note_off_c, 2, 70, 67
4, 551808, Note_off_c, 2, 68, 67
4, 551808, Note_off_c, 2, 70, 67
4, 551808, Note_on_c, 2, 70, 67
4, 551808, Note_on_c, 2, 79, 67
4, 551872, Note_off_c, 2, 70, 67
4, 551872, Note_off_c, 2, 79, 67
4, 551872, Note_on_c, 2, 77, 67
4, 551872, Note_on_c, 2, 80, 67
4, 551936, Note_off_c, 2, 77, 67
4, 551936, Note_off_c, 2, 80, 67
4, 551936, Note_on_c, 2, 79, 67
4, 551936, Note_on_c, 2, 82, 67
4, 552000, Note_off_c, 2, 79, 67
4, 552000, Note_off_c, 2, 82, 67
4, 552064, Note_off_c, 2, 79, 67
4, 552064, Note_off_c, 2, 82, 67
4, 552064, Note_on_c, 2, 79, 67
4, 552064, Note_on_c, 2, 82, 67
4, 552128, Note_off_c, 2, 79, 67
4, 552128, Note_off_c, 2, 82, 67
4, 552192, Note_off_c, 2, 79, 67
4, 552192, Note_off_c, 2, 82, 67
4, 552192, Note_on_c, 2, 70, 67
4, 552192, Note_on_c, 2, 79, 67
4, 552256, Note_off_c, 2, 70, 67
4, 552256, Note_off_c, 2, 79, 67
4, 552320, Note_off_c, 2, 70, 67
4, 552320, Note_off_c, 2, 79, 67
4, 552320, Note_on_c, 2, 75, 67
4, 552320, Note_on_c, 2, 82, 67
4, 552384, Note_off_c, 2, 75, 67
4, 552384, Note_off_c, 2, 82, 67
4, 552448, Note_off_c, 2, 75, 67
4, 552448, Note_off_c, 2, 82, 67
4, 552448, Note_on_c, 2, 84, 67
4, 552448, Note_on_c, 2, 87, 67
4, 552512, Note_off_c, 2, 84, 67
4, 552512, Note_off_c, 2, 87, 67
4, 552576, Note_off_c, 2, 84, 67
4, 552576, Note_off_c, 2, 87, 67
4, 552576, Note_on_c, 2, 82, 67
4, 552576, Note_on_c, 2, 86, 67
4, 552640, Note_off_c, 2, 82, 67
4, 552640, Note_off_c, 2, 86, 67
4, 552704, Note_off_c, 2, 82, 67
4, 552704, Note_off_c, 2, 86, 67
4, 552704, Note_on_c, 2, 80, 67
4, 552704, Note_on_c, 2, 84, 67
4, 552768, Note_off_c, 2, 80, 67
4, 552768, Note_off_c, 2, 84, 67
4, 552832, Note_off_c, 2, 80, 67
4, 552832, Note_off_c, 2, 84, 67
4, 552832, Note_on_c, 2, 70, 67
4, 552832, Note_on_c, 2, 74, 67
4, 552864, Note_off_c, 2, 70, 67
4, 552864, Note_off_c, 2, 74, 67
4, 552896, Note_off_c, 2, 70, 67
4, 552896, Note_off_c, 2, 74, 67
4, 552896, Note_on_c, 2, 77, 67
4, 552896, Note_on_c, 2, 80, 67
4, 552928, Note_off_c, 2, 77, 67
4, 552928, Note_off_c, 2, 80, 67
4, 552960, Note_off_c, 2, 77, 67
4, 552960, Note_off_c, 2, 80, 67
4, 552960, Note_on_c, 2, 77, 67
4, 552960, Note_on_c, 2, 82, 67
4, 553024, Note_off_c, 2, 77, 67
4, 553024, Note_off_c, 2, 82, 67
4, 553088, Note_off_c, 2, 77, 67
4, 553088, Note_off_c, 2, 82, 67
4, 553088, Note_on_c, 2, 80, 67
4, 553088, Note_on_c, 2, 87, 67
4, 553152, Note_off_c, 2, 80, 67
4, 553152, Note_off_c, 2, 87, 67
4, 553216, Note_off_c, 2, 80, 67
4, 553216, Note_off_c, 2, 87, 67
4, 553216, Note_on_c, 2, 82, 67
4, 553216, Note_on_c, 2, 86, 67
4, 553280, Note_off_c, 2, 82, 67
4, 553280, Note_off_c, 2, 86, 67
4, 553344, Note_off_c, 2, 82, 67
4, 553344, Note_off_c, 2, 86, 67
4, 553344, Note_on_c, 2, 80, 67
4, 553344, Note_on_c, 2, 89, 67
4, 553408, Note_off_c, 2, 80, 67
4, 553408, Note_off_c, 2, 89, 67
4, 553472, Note_off_c, 2, 80, 67
4, 553472, Note_off_c, 2, 89, 67
4, 553472, Note_on_c, 2, 79, 67
4, 553472, Note_on_c, 2, 87, 67
4, 553536, Note_off_c, 2, 79, 67
4, 553536, Note_off_c, 2, 87, 67
4, 553600, Note_off_c, 2, 79, 67
4, 553600, Note_off_c, 2, 87, 67
4, 553600, Note_on_c, 2, 70, 67
4, 553600, Note_on_c, 2, 82, 67
4, 553664, Note_off_c, 2, 70, 67
4, 553664, Note_off_c, 2, 82, 67
4, 553728, Note_off_c, 2, 70, 67
4, 553728, Note_off_c, 2, 82, 67
4, 553728, Note_on_c, 2, 70, 67
4, 553728, Note_on_c, 2, 82, 67
4, 553792, Note_off_c, 2, 70, 67
4, 553792, Note_off_c, 2, 82, 67
4, 553856, Note_off_c, 2, 70, 67
4, 553856, Note_off_c, 2, 82, 67
4, 553856, Note_on_c, 2, 75, 67
4, 553920, Note_off_c, 2, 75, 67
4, 553920, Note_on_c, 2, 77, 67
4, 553984, Note_off_c, 2, 77, 67
4, 553984, Note_on_c, 2, 79, 67
4, 554048, Note_off_c, 2, 79, 67
4, 554112, Note_off_c, 2, 79, 67
4, 554112, Note_on_c, 2, 75, 67
4, 554112, Note_on_c, 2, 79, 67
4, 554176, Note_off_c, 2, 75, 67
4, 554176, Note_off_c, 2, 79, 67
4, 554240, Note_off_c, 2, 75, 67
4, 554240, Note_off_c, 2, 79, 67
4, 554240, Note_on_c, 2, 75, 67
4, 554240, Note_on_c, 2, 79, 67
4, 554304, Note_off_c, 2, 75, 67
4, 554304, Note_off_c, 2, 79, 67
4, 554368, Note_off_c, 2, 75, 67
4, 554368, Note_off_c, 2, 79, 67
4, 554368, Note_on_c, 2, 75, 67
4, 554432, Note_off_c, 2, 75, 67
4, 554432, Note_on_c, 2, 77, 67
4, 554496, Note_off_c, 2, 77, 67
4, 554496, Note_on_c, 2, 79, 67
4, 554560, Note_off_c, 2, 79, 67
4, 554624, Note_off_c, 2, 79, 67
4, 554624, Note_on_c, 2, 75, 67
4, 554624, Note_on_c, 2, 79, 67
4, 554688, Note_off_c, 2, 75, 67
4, 554688, Note_off_c, 2, 79, 67
4, 554752, Note_off_c, 2, 75, 67
4, 554752, Note_off_c, 2, 79, 67
4, 554752, Note_on_c, 2, 75, 67
4, 554752, Note_on_c, 2, 79, 67
4, 554816, Note_off_c, 2, 75, 67
4, 554816, Note_off_c, 2, 79, 67
4, 554880, Note_off_c, 2, 75, 67
4, 554880, Note_off_c, 2, 79, 67
4, 554880, Note_on_c, 2, 75, 67
4, 554944, Note_off_c, 2, 75, 67
4, 554944, Note_on_c, 2, 77, 67
4, 555008, Note_off_c, 2, 77, 67
4, 555008, Note_on_c, 2, 79, 67
4, 555072, Note_off_c, 2, 79, 67
4, 555136, Note_off_c, 2, 79, 67
4, 555136, Note_on_c, 2, 75, 67
4, 555136, Note_on_c, 2, 79, 67
4, 555200, Note_off_c, 2, 75, 67
4, 555200, Note_off_c, 2, 79, 67
4, 555264, Note_off_c, 2, 75, 67
4, 555264, Note_off_c, 2, 79, 67
4, 555264, Note_on_c, 2, 75, 67
4, 555264, Note_on_c, 2, 80, 67
4, 555296, Note_off_c, 2, 75, 67
4, 555296, Note_off_c, 2, 80, 67
4, 555328, Note_off_c, 2, 75, 67
4, 555328, Note_off_c, 2, 80, 67
4, 555328, Note_on_c, 2, 74, 67
4, 555360, Note_off_c, 2, 74, 67
4, 555392, Note_off_c, 2, 74, 67
4, 555392, Note_on_c, 2, 72, 67
4, 555424, Note_off_c, 2, 72, 67
4, 555456, Note_off_c, 2, 72, 67
4, 555456, Note_on_c, 2, 74, 67
4, 555456, Note_on_c, 2, 79, 67
4, 555488, Note_off_c, 2, 74, 67
4, 555488, Note_off_c, 2, 79, 67
4, 555520, Note_off_c, 2, 74, 67
4, 555520, Note_off_c, 2, 79, 67
4, 555520, Note_on_c, 2, 70, 67
4, 555520, Note_on_c, 2, 77, 67
4, 555584, Note_off_c, 2, 70, 67
4, 555584, Note_off_c, 2, 77, 67
4, 555648, Note_off_c, 2, 70, 67
4, 555648, Note_off_c, 2, 77, 67
4, 555648, Note_on_c, 2, 68, 67
4, 555648, Note_on_c, 2, 70, 67
4, 555712, Note_off_c, 2, 68, 67
4, 555712, Note_off_c, 2, 70, 67
4, 555776, Note_off_c, 2, 68, 67
4, 555776, Note_off_c, 2, 70, 67
4, 555776, Note_on_c, 2, 68, 67
4, 555776, Note_on_c, 2, 70, 67
4, 555840, Note_off_c, 2, 68, 67
4, 555840, Note_off_c, 2, 70, 67
4, 555904, Note_off_c, 2, 68, 67
4, 555904, Note_off_c, 2, 70, 67
4, 555904, Note_on_c, 2, 74, 67
4, 555968, Note_off_c, 2, 74, 67
4, 555968, Note_on_c, 2, 75, 67
4, 556032, Note_off_c, 2, 75, 67
4, 556032, Note_on_c, 2, 77, 67
4, 556096, Note_off_c, 2, 77, 67
4, 556160, Note_off_c, 2, 77, 67
4, 556160, Note_on_c, 2, 74, 67
4, 556160, Note_on_c, 2, 77, 67
4, 556224, Note_off_c, 2, 74, 67
4, 556224, Note_off_c, 2, 77, 67
4, 556288, Note_off_c, 2, 74, 67
4, 556288, Note_off_c, 2, 77, 67
4, 556288, Note_on_c, 2, 74, 67
4, 556288, Note_on_c, 2, 77, 67
4, 556352, Note_off_c, 2, 74, 67
4, 556352, Note_off_c, 2, 77, 67
4, 556416, Note_off_c, 2, 74, 67
4, 556416, Note_off_c, 2, 77, 67
4, 556416, Note_on_c, 2, 74, 67
4, 556480, Note_off_c, 2, 74, 67
4, 556480, Note_on_c, 2, 75, 67
4, 556544, Note_off_c, 2, 75, 67
4, 556544, Note_on_c, 2, 77, 67
4, 556608, Note_off_c, 2, 77, 67
4, 556672, Note_off_c, 2, 77, 67
4, 556672, Note_on_c, 2, 74, 67
4, 556672, Note_on_c, 2, 77, 67
4, 556736, Note_off_c, 2, 74, 67
4, 556736, Note_off_c, 2, 77, 67
4, 556800, Note_off_c, 2, 74, 67
4, 556800, Note_off_c, 2, 77, 67
4, 556800, Note_on_c, 2, 74, 67
4, 556800, Note_on_c, 2, 77, 67
4, 556864, Note_off_c, 2, 74, 67
4, 556864, Note_off_c, 2, 77, 67
4, 556928, Note_off_c, 2, 74, 67
4, 556928, Note_off_c, 2, 77, 67
4, 556928, Note_on_c, 2, 74, 67
4, 556992, Note_off_c, 2, 74, 67
4, 556992, Note_on_c, 2, 75, 67
4, 557056, Note_off_c, 2, 75, 67
4, 557056, Note_on_c, 2, 70, 67
4, 557056, Note_on_c, 2, 77, 67
4, 557120, Note_off_c, 2, 70, 67
4, 557120, Note_off_c, 2, 77, 67
4, 557184, Note_off_c, 2, 70, 67
4, 557184, Note_off_c, 2, 77, 67
4, 557184, Note_on_c, 2, 74, 67
4, 557184, Note_on_c, 2, 77, 67
4, 557248, Note_off_c, 2, 74, 67
4, 557248, Note_off_c, 2, 77, 67
4, 557312, Note_off_c, 2, 74, 67
4, 557312, Note_off_c, 2, 77, 67
4, 557312, Note_on_c, 2, 74, 67
4, 557312, Note_on_c, 2, 79, 67
4, 557344, Note_off_c, 2, 74, 67
4, 557344, Note_off_c, 2, 79, 67
4, 557376, Note_off_c, 2, 74, 67
4, 557376, Note_off_c, 2, 79, 67
4, 557376, Note_on_c, 2, 72, 67
4, 557376, Note_on_c, 2, 77, 67
4, 557408, Note_off_c, 2, 72, 67
4, 557408, Note_off_c, 2, 77, 67
4, 557440, Note_off_c, 2, 72, 67
4, 557440, Note_off_c, 2, 77, 67
4, 557440, Note_on_c, 2, 70, 67
4, 557440, Note_on_c, 2, 77, 67
4, 557472, Note_off_c, 2, 70, 67
4, 557472, Note_off_c, 2, 77, 67
4, 557504, Note_off_c, 2, 70, 67
4, 557504, Note_off_c, 2, 77, 67
4, 557504, Note_on_c, 2, 68, 67
4, 557504, Note_on_c, 2, 79, 67
4, 557536, Note_off_c, 2, 68, 67
4, 557536, Note_off_c, 2, 79, 67
4, 557568, Note_off_c, 2, 68, 67
4, 557568, Note_off_c, 2, 79, 67
4, 557568, Note_on_c, 2, 67, 67
4, 557568, Note_on_c, 2, 75, 67
4, 557632, Note_off_c, 2, 67, 67
4, 557632, Note_off_c, 2, 75, 67
4, 557696, Note_off_c, 2, 67, 67
4, 557696, Note_off_c, 2, 75, 67
4, 557696, Note_on_c, 2, 70, 67
4, 557760, Note_off_c, 2, 70, 67
4, 557824, Note_off_c, 2, 70, 67
4, 557824, Note_on_c, 2, 70, 67
4, 557824, Note_on_c, 2, 79, 67
4, 557888, Note_off_c, 2, 70, 67
4, 557888, Note_off_c, 2, 79, 67
4, 557952, Note_off_c, 2, 70, 67
4, 557952, Note_off_c, 2, 79, 67
4, 557952, Note_on_c, 2, 75, 67
4, 558016, Note_off_c, 2, 75, 67
4, 558016, Note_on_c, 2, 77, 67
4, 558080, Note_off_c, 2, 77, 67
4, 558080, Note_on_c, 2, 79, 67
4, 558144, Note_off_c, 2, 79, 67
4, 558208, Note_off_c, 2, 79, 67
4, 558208, Note_on_c, 2, 75, 67
4, 558208, Note_on_c, 2, 79, 67
4, 558272, Note_off_c, 2, 75, 67
4, 558272, Note_off_c, 2, 79, 67
4, 558336, Note_off_c, 2, 75, 67
4, 558336, Note_off_c, 2, 79, 67
4, 558336, Note_on_c, 2, 75, 67
4, 558336, Note_on_c, 2, 79, 67
4, 558400, Note_off_c, 2, 75, 67
4, 558400, Note_off_c, 2, 79, 67
4, 558464, Note_off_c, 2, 75, 67
4, 558464, Note_off_c, 2, 79, 67
4, 558464, Note_on_c, 2, 75, 67
4, 558528, Note_off_c, 2, 75, 67
4, 558528, Note_on_c, 2, 77, 67
4, 558592, Note_off_c, 2, 77, 67
4, 558592, Note_on_c, 2, 79, 67
4, 558656, Note_off_c, 2, 79, 67
4, 558720, Note_off_c, 2, 79, 67
4, 558720, Note_on_c, 2, 75, 67
4, 558720, Note_on_c, 2, 79, 67
4, 558784, Note_off_c, 2, 75, 67
4, 558784, Note_off_c, 2, 79, 67
4, 558848, Note_off_c, 2, 75, 67
4, 558848, Note_off_c, 2, 79, 67
4, 558848, Note_on_c, 2, 75, 67
4, 558848, Note_on_c, 2, 79, 67
4, 558912, Note_off_c, 2, 75, 67
4, 558912, Note_off_c, 2, 79, 67
4, 558976, Note_off_c, 2, 75, 67
4, 558976, Note_off_c, 2, 79, 67
4, 558976, Note_on_c, 2, 75, 67
4, 559040, Note_off_c, 2, 75, 67
4, 559040, Note_on_c, 2, 77, 67
4, 559104, Note_off_c, 2, 77, 67
4, 559104, Note_on_c, 2, 79, 67
4, 559168, Note_off_c, 2, 79, 67
4, 559232, Note_off_c, 2, 79, 67
4, 559232, Note_on_c, 2, 75, 67
4, 559232, Note_on_c, 2, 79, 67
4, 559296, Note_off_c, 2, 75, 67
4, 559296, Note_off_c, 2, 79, 67
4, 559360, Note_off_c, 2, 75, 67
4, 559360, Note_off_c, 2, 79, 67
4, 559360, Note_on_c, 2, 75, 67
4, 559360, Note_on_c, 2, 80, 67
4, 559392, Note_off_c, 2, 75, 67
4, 559392, Note_off_c, 2, 80, 67
4, 559424, Note_off_c, 2, 75, 67
4, 559424, Note_off_c, 2, 80, 67
4, 559424, Note_on_c, 2, 74, 67
4, 559488, Note_off_c, 2, 74, 67
4, 559488, Note_on_c, 2, 72, 67
4, 559552, Note_off_c, 2, 72, 67
4, 559552, Note_on_c, 2, 74, 67
4, 559552, Note_on_c, 2, 79, 67
4, 559584, Note_off_c, 2, 74, 67
4, 559584, Note_off_c, 2, 79, 67
4, 559616, Note_off_c, 2, 74, 67
4, 559616, Note_off_c, 2, 79, 67
4, 559616, Note_on_c, 2, 70, 67
4, 559616, Note_on_c, 2, 77, 67
4, 559680, Note_off_c, 2, 70, 67
4, 559680, Note_off_c, 2, 77, 67
4, 559744, Note_off_c, 2, 70, 67
4, 559744, Note_off_c, 2, 77, 67
4, 559744, Note_on_c, 2, 68, 67
4, 559744, Note_on_c, 2, 70, 67
4, 559808, Note_off_c, 2, 68, 67
4, 559808, Note_off_c, 2, 70, 67
4, 559872, Note_off_c, 2, 68, 67
4, 559872, Note_off_c, 2, 70, 67
4, 559872, Note_on_c, 2, 68, 67
4, 559872, Note_on_c, 2, 70, 67
4, 559936, Note_off_c, 2, 68, 67
4, 559936, Note_off_c, 2, 70, 67
4, 560000, Note_off_c, 2, 68, 67
4, 560000, Note_off_c, 2, 70, 67
4, 560000, Note_on_c, 2, 74, 67
4, 560064, Note_off_c, 2, 74, 67
4, 560064, Note_on_c, 2, 75, 67
4, 560128, Note_off_c, 2, 75, 67
4, 560128, Note_on_c, 2, 77, 67
4, 560256, Note_off_c, 2, 77, 67
4, 560256, Note_on_c, 2, 74, 67
4, 560256, Note_on_c, 2, 80, 67
4, 560320, Note_off_c, 2, 74, 67
4, 560320, Note_off_c, 2, 80, 67
4, 560384, Note_off_c, 2, 74, 67
4, 560384, Note_off_c, 2, 80, 67
4, 560384, Note_on_c, 2, 74, 67
4, 560384, Note_on_c, 2, 79, 67
4, 560448, Note_off_c, 2, 74, 67
4, 560448, Note_off_c, 2, 79, 67
4, 560512, Note_off_c, 2, 74, 67
4, 560512, Note_off_c, 2, 79, 67
4, 560512, Note_on_c, 2, 77, 67
4, 560576, Note_off_c, 2, 77, 67
4, 560640, Note_off_c, 2, 77, 67
4, 560640, Note_on_c, 2, 75, 67
4, 560704, Note_off_c, 2, 75, 67
4, 560768, Note_off_c, 2, 75, 67
4, 560768, Note_on_c, 2, 70, 67
4, 560768, Note_on_c, 2, 74, 67
4, 560832, Note_off_c, 2, 70, 67
4, 560832, Note_off_c, 2, 74, 67
4, 560896, Note_off_c, 2, 70, 67
4, 560896, Note_off_c, 2, 74, 67
4, 560896, Note_on_c, 2, 72, 67
4, 560896, Note_on_c, 2, 74, 67
4, 560960, Note_off_c, 2, 72, 67
4, 560960, Note_off_c, 2, 74, 67
4, 561024, Note_off_c, 2, 72, 67
4, 561024, Note_off_c, 2, 74, 67
4, 561024, Note_on_c, 2, 70, 67
4, 561024, Note_on_c, 2, 74, 67
4, 561088, Note_off_c, 2, 70, 67
4, 561088, Note_off_c, 2, 74, 67
4, 561152, Note_off_c, 2, 70, 67
4, 561152, Note_off_c, 2, 74, 67
4, 561152, Note_on_c, 2, 80, 67
4, 561152, Note_on_c, 2, 84, 67
4, 561408, Note_off_c, 2, 80, 67
4, 561408, Note_off_c, 2, 84, 67
4, 561408, Note_on_c, 2, 70, 67
4, 561408, Note_on_c, 2, 74, 67
4, 561424, Note_off_c, 2, 70, 67
4, 561424, Note_off_c, 2, 74, 67
4, 561440, Note_off_c, 2, 70, 67
4, 561440, Note_off_c, 2, 74, 67
4, 561440, Note_on_c, 2, 72, 67
4, 561440, Note_on_c, 2, 75, 67
4, 561456, Note_off_c, 2, 72, 67
4, 561456, Note_off_c, 2, 75, 67
4, 561472, Note_off_c, 2, 72, 67
4, 561472, Note_off_c, 2, 75, 67
4, 561472, Note_on_c, 2, 70, 67
4, 561472, Note_on_c, 2, 74, 67
4, 561504, Note_off_c, 2, 70, 67
4, 561504, Note_off_c, 2, 74, 67
4, 561536, Note_off_c, 2, 70, 67
4, 561536, Note_off_c, 2, 74, 67
4, 561536, Note_on_c, 2, 68, 67
4, 561536, Note_on_c, 2, 72, 67
4, 561568, Note_off_c, 2, 68, 67
4, 561568, Note_off_c, 2, 72, 67
4, 561600, Note_off_c, 2, 68, 67
4, 561600, Note_off_c, 2, 72, 67
4, 561600, Note_on_c, 2, 74, 67
4, 561600, Note_on_c, 2, 77, 67
4, 561632, Note_off_c, 2, 74, 67
4, 561632, Note_off_c, 2, 77, 67
4, 561664, Note_off_c, 2, 74, 67
4, 561664, Note_off_c, 2, 77, 67
4, 561664, Note_on_c, 2, 75, 67
4, 561664, Note_on_c, 2, 79, 67
4, 561792, Note_off_c, 2, 75, 67
4, 561792, Note_off_c, 2, 79, 67
4, 561792, Note_on_c, 2, 70, 67
4, 561856, Note_off_c, 2, 70, 67
4, 561920, Note_off_c, 2, 70, 67
4, 561920, Note_on_c, 2, 70, 67
4, 561984, Note_off_c, 2, 70, 67
4, 562048, Note_off_c, 2, 70, 67
4, 562048, Note_on_c, 2, 75, 67
4, 562048, Note_on_c, 2, 79, 67
4, 562112, Note_off_c, 2, 75, 67
4, 562112, Note_off_c, 2, 79, 67
4, 562112, Note_on_c, 2, 77, 67
4, 562112, Note_on_c, 2, 80, 67
4, 562176, Note_off_c, 2, 77, 67
4, 562176, Note_off_c, 2, 80, 67
4, 562176, Note_on_c, 2, 79, 67
4, 562176, Note_on_c, 2, 82, 67
4, 562240, Note_off_c, 2, 79, 67
4, 562240, Note_off_c, 2, 82, 67
4, 562304, Note_off_c, 2, 79, 67
4, 562304, Note_off_c, 2, 82, 67
4, 562304, Note_on_c, 2, 79, 67
4, 562304, Note_on_c, 2, 82, 67
4, 562368, Note_off_c, 2, 79, 67
4, 562368, Note_off_c, 2, 82, 67
4, 562432, Note_off_c, 2, 79, 67
4, 562432, Note_off_c, 2, 82, 67
4, 562432, Note_on_c, 2, 70, 67
4, 562432, Note_on_c, 2, 79, 67
4, 562496, Note_off_c, 2, 70, 67
4, 562496, Note_off_c, 2, 79, 67
4, 562560, Note_off_c, 2, 70, 67
4, 562560, Note_off_c, 2, 79, 67
4, 562560, Note_on_c, 2, 70, 67
4, 562560, Note_on_c, 2, 75, 67
4, 562624, Note_off_c, 2, 70, 67
4, 562624, Note_off_c, 2, 75, 67
4, 562688, Note_off_c, 2, 70, 67
4, 562688, Note_off_c, 2, 75, 67
4, 562688, Note_on_c, 2, 84, 67
4, 562688, Note_on_c, 2, 87, 67
4, 562752, Note_off_c, 2, 84, 67
4, 562752, Note_off_c, 2, 87, 67
4, 562816, Note_off_c, 2, 84, 67
4, 562816, Note_off_c, 2, 87, 67
4, 562816, Note_on_c, 2, 82, 67
4, 562816, Note_on_c, 2, 86, 67
4, 562880, Note_off_c, 2, 82, 67
4, 562880, Note_off_c, 2, 86, 67
4, 562944, Note_off_c, 2, 82, 67
4, 562944, Note_off_c, 2, 86, 67
4, 562944, Note_on_c, 2, 80, 67
4, 562944, Note_on_c, 2, 84, 67
4, 563008, Note_off_c, 2, 80, 67
4, 563008, Note_off_c, 2, 84, 67
4, 563072, Note_off_c, 2, 80, 67
4, 563072, Note_off_c, 2, 84, 67
4, 563072, Note_on_c, 2, 79, 67
4, 563072, Note_on_c, 2, 87, 67
4, 563136, Note_off_c, 2, 79, 67
4, 563136, Note_off_c, 2, 87, 67
4, 563200, Note_off_c, 2, 79, 67
4, 563200, Note_off_c, 2, 87, 67
4, 563200, Note_on_c, 2, 75, 67
4, 563200, Note_on_c, 2, 82, 67
4, 563264, Note_off_c, 2, 75, 67
4, 563264, Note_off_c, 2, 82, 67
4, 563328, Note_off_c, 2, 75, 67
4, 563328, Note_off_c, 2, 82, 67
4, 563328, Note_on_c, 2, 79, 67
4, 563392, Note_off_c, 2, 79, 67
4, 563456, Note_off_c, 2, 79, 67
4, 563456, Note_on_c, 2, 67, 67
4, 563456, Note_on_c, 2, 75, 67
4, 563520, Note_off_c, 2, 67, 67
4, 563520, Note_off_c, 2, 75, 67
4, 563584, Note_off_c, 2, 67, 67
4, 563584, Note_off_c, 2, 75, 67
4, 563584, Note_on_c, 2, 68, 67
4, 563584, Note_on_c, 2, 74, 67
4, 563616, Note_off_c, 2, 68, 67
4, 563616, Note_off_c, 2, 74, 67
4, 563648, Note_off_c, 2, 68, 67
4, 563648, Note_off_c, 2, 74, 67
4, 563648, Note_on_c, 2, 74, 67
4, 563648, Note_on_c, 2, 79, 67
4, 563680, Note_off_c, 2, 74, 67
4, 563680, Note_off_c, 2, 79, 67
4, 563712, Note_off_c, 2, 74, 67
4, 563712, Note_off_c, 2, 79, 67
4, 563712, Note_on_c, 2, 70, 67
4, 563712, Note_on_c, 2, 77, 67
4, 563776, Note_off_c, 2, 70, 67
4, 563776, Note_off_c, 2, 77, 67
4, 563840, Note_off_c, 2, 70, 67
4, 563840, Note_off_c, 2, 77, 67
4, 563840, Note_on_c, 2, 65, 67
4, 563840, Note_on_c, 2, 70, 67
4, 563904, Note_off_c, 2, 65, 67
4, 563904, Note_off_c, 2, 70, 67
4, 563968, Note_off_c, 2, 65, 67
4, 563968, Note_off_c, 2, 70, 67
4, 563968, Note_on_c, 2, 68, 67
4, 563968, Note_on_c, 2, 70, 67
4, 564032, Note_off_c, 2, 68, 67
4, 564032, Note_off_c, 2, 70, 67
4, 564096, Note_off_c, 2, 68, 67
4, 564096, Note_off_c, 2, 70, 67
4, 564096, Note_on_c, 2, 70, 67
4, 564096, Note_on_c, 2, 79, 67
4, 564160, Note_off_c, 2, 70, 67
4, 564160, Note_off_c, 2, 79, 67
4, 564160, Note_on_c, 2, 77, 67
4, 564160, Note_on_c, 2, 80, 67
4, 564224, Note_off_c, 2, 77, 67
4, 564224, Note_off_c, 2, 80, 67
4, 564224, Note_on_c, 2, 79, 67
4, 564224, Note_on_c, 2, 82, 67
4, 564288, Note_off_c, 2, 79, 67
4, 564288, Note_off_c, 2, 82, 67
4, 564352, Note_off_c, 2, 79, 67
4, 564352, Note_off_c, 2, 82, 67
4, 564352, Note_on_c, 2, 79, 67
4, 564352, Note_on_c, 2, 82, 67
4, 564416, Note_off_c, 2, 79, 67
4, 564416, Note_off_c, 2, 82, 67
4, 564480, Note_off_c, 2, 79, 67
4, 564480, Note_off_c, 2, 82, 67
4, 564480, Note_on_c, 2, 70, 67
4, 564480, Note_on_c, 2, 79, 67
4, 564544, Note_off_c, 2, 70, 67
4, 564544, Note_off_c, 2, 79, 67
4, 564608, Note_off_c, 2, 70, 67
4, 564608, Note_off_c, 2, 79, 67
4, 564608, Note_on_c, 2, 75, 67
4, 564608, Note_on_c, 2, 82, 67
4, 564672, Note_off_c, 2, 75, 67
4, 564672, Note_off_c, 2, 82, 67
4, 564736, Note_off_c, 2, 75, 67
4, 564736, Note_off_c, 2, 82, 67
4, 564736, Note_on_c, 2, 84, 67
4, 564736, Note_on_c, 2, 87, 67
4, 564800, Note_off_c, 2, 84, 67
4, 564800, Note_off_c, 2, 87, 67
4, 564864, Note_off_c, 2, 84, 67
4, 564864, Note_off_c, 2, 87, 67
4, 564864, Note_on_c, 2, 82, 67
4, 564864, Note_on_c, 2, 86, 67
4, 564928, Note_off_c, 2, 82, 67
4, 564928, Note_off_c, 2, 86, 67
4, 564992, Note_off_c, 2, 82, 67
4, 564992, Note_off_c, 2, 86, 67
4, 564992, Note_on_c, 2, 80, 67
4, 564992, Note_on_c, 2, 84, 67
4, 565056, Note_off_c, 2, 80, 67
4, 565056, Note_off_c, 2, 84, 67
4, 565120, Note_off_c, 2, 80, 67
4, 565120, Note_off_c, 2, 84, 67
4, 565120, Note_on_c, 2, 70, 67
4, 565120, Note_on_c, 2, 74, 67
4, 565152, Note_off_c, 2, 70, 67
4, 565152, Note_off_c, 2, 74, 67
4, 565184, Note_off_c, 2, 70, 67
4, 565184, Note_off_c, 2, 74, 67
4, 565184, Note_on_c, 2, 77, 67
4, 565184, Note_on_c, 2, 80, 67
4, 565216, Note_off_c, 2, 77, 67
4, 565216, Note_off_c, 2, 80, 67
4, 565248, Note_off_c, 2, 77, 67
4, 565248, Note_off_c, 2, 80, 67
4, 565248, Note_on_c, 2, 77, 67
4, 565248, Note_on_c, 2, 82, 67
4, 565312, Note_off_c, 2, 77, 67
4, 565312, Note_off_c, 2, 82, 67
4, 565376, Note_off_c, 2, 77, 67
4, 565376, Note_off_c, 2, 82, 67
4, 565376, Note_on_c, 2, 80, 67
4, 565376, Note_on_c, 2, 87, 67
4, 565440, Note_off_c, 2, 80, 67
4, 565440, Note_off_c, 2, 87, 67
4, 565504, Note_off_c, 2, 80, 67
4, 565504, Note_off_c, 2, 87, 67
4, 565504, Note_on_c, 2, 82, 67
4, 565504, Note_on_c, 2, 86, 67
4, 565568, Note_off_c, 2, 82, 67
4, 565568, Note_off_c, 2, 86, 67
4, 565632, Note_off_c, 2, 82, 67
4, 565632, Note_off_c, 2, 86, 67
4, 565632, Note_on_c, 2, 80, 67
4, 565632, Note_on_c, 2, 89, 67
4, 565696, Note_off_c, 2, 80, 67
4, 565696, Note_off_c, 2, 89, 67
4, 565760, Note_off_c, 2, 80, 67
4, 565760, Note_off_c, 2, 89, 67
4, 565760, Note_on_c, 2, 79, 67
4, 565760, Note_on_c, 2, 87, 67
4, 565824, Note_off_c, 2, 79, 67
4, 565824, Note_off_c, 2, 87, 67
4, 565888, Note_off_c, 2, 79, 67
4, 565888, Note_off_c, 2, 87, 67
4, 565888, Note_on_c, 2, 70, 67
4, 565888, Note_on_c, 2, 82, 67
4, 565952, Note_off_c, 2, 70, 67
4, 565952, Note_off_c, 2, 82, 67
4, 566016, Note_off_c, 2, 70, 67
4, 566016, Note_off_c, 2, 82, 67
4, 566016, Note_on_c, 2, 70, 67
4, 566016, Note_on_c, 2, 82, 67
4, 566080, Note_off_c, 2, 70, 67
4, 566080, Note_off_c, 2, 82, 67
4, 566144, Note_off_c, 2, 70, 67
4, 566144, Note_off_c, 2, 82, 67
4, 566144, Note_on_c, 2, 75, 67
4, 566208, Note_off_c, 2, 75, 67
4, 566208, Note_on_c, 2, 77, 67
4, 566272, Note_off_c, 2, 77, 67
4, 566272, Note_on_c, 2, 79, 67
4, 566336, Note_off_c, 2, 79, 67
4, 566400, Note_off_c, 2, 79, 67
4, 566400, Note_on_c, 2, 75, 67
4, 566400, Note_on_c, 2, 79, 67
4, 566464, Note_off_c, 2, 75, 67
4, 566464, Note_off_c, 2, 79, 67
4, 566528, Note_off_c, 2, 75, 67
4, 566528, Note_off_c, 2, 79, 67
4, 566528, Note_on_c, 2, 75, 67
4, 566528, Note_on_c, 2, 79, 67
4, 566592, Note_off_c, 2, 75, 67
4, 566592, Note_off_c, 2, 79, 67
4, 566656, Note_off_c, 2, 75, 67
4, 566656, Note_off_c, 2, 79, 67
4, 566656, Note_on_c, 2, 75, 67
4, 566720, Note_off_c, 2, 75, 67
4, 566720, Note_on_c, 2, 77, 67
4, 566784, Note_off_c, 2, 77, 67
4, 566784, Note_on_c, 2, 79, 67
4, 566848, Note_off_c, 2, 79, 67
4, 566912, Note_off_c, 2, 79, 67
4, 566912, Note_on_c, 2, 75, 67
4, 566912, Note_on_c, 2, 79, 67
4, 566976, Note_off_c, 2, 75, 67
4, 566976, Note_off_c, 2, 79, 67
4, 567040, Note_off_c, 2, 75, 67
4, 567040, Note_off_c, 2, 79, 67
4, 567040, Note_on_c, 2, 75, 67
4, 567040, Note_on_c, 2, 79, 67
4, 567104, Note_off_c, 2, 75, 67
4, 567104, Note_off_c, 2, 79, 67
4, 567168, Note_off_c, 2, 75, 67
4, 567168, Note_off_c, 2, 79, 67
4, 567168, Note_on_c, 2, 75, 67
4, 567232, Note_off_c, 2, 75, 67
4, 567232, Note_on_c, 2, 77, 67
4, 567296, Note_off_c, 2, 77, 67
4, 567296, Note_on_c, 2, 79, 67
4, 567360, Note_off_c, 2, 79, 67
4, 567424, Note_off_c, 2, 79, 67
4, 567424, Note_on_c, 2, 75, 67
4, 567424, Note_on_c, 2, 79, 67
4, 567488, Note_off_c, 2, 75, 67
4, 567488, Note_off_c, 2, 79, 67
4, 567552, Note_off_c, 2, 75, 67
4, 567552, Note_off_c, 2, 79, 67
4, 567552, Note_on_c, 2, 75, 67
4, 567552, Note_on_c, 2, 80, 67
4, 567584, Note_off_c, 2, 75, 67
4, 567584, Note_off_c, 2, 80, 67
4, 567616, Note_off_c, 2, 75, 67
4, 567616, Note_off_c, 2, 80, 67
4, 567616, Note_on_c, 2, 74, 67
4, 567648, Note_off_c, 2, 74, 67
4, 567680, Note_off_c, 2, 74, 67
4, 567680, Note_on_c, 2, 72, 67
4, 567712, Note_off_c, 2, 72, 67
4, 567744, Note_off_c, 2, 72, 67
4, 567744, Note_on_c, 2, 74, 67
4, 567744, Note_on_c, 2, 79, 67
4, 567776, Note_off_c, 2, 74, 67
4, 567776, Note_off_c, 2, 79, 67
4, 567808, Note_off_c, 2, 74, 67
4, 567808, Note_off_c, 2, 79, 67
4, 567808, Note_on_c, 2, 70, 67
4, 567808, Note_on_c, 2, 77, 67
4, 567872, Note_off_c, 2, 70, 67
4, 567872, Note_off_c, 2, 77, 67
4, 567936, Note_off_c, 2, 70, 67
4, 567936, Note_off_c, 2, 77, 67
4, 567936, Note_on_c, 2, 68, 67
4, 567936, Note_on_c, 2, 70, 67
4, 568000, Note_off_c, 2, 68, 67
4, 568000, Note_off_c, 2, 70, 67
4, 568064, Note_off_c, 2, 68, 67
4, 568064, Note_off_c, 2, 70, 67
4, 568064, Note_on_c, 2, 68, 67
4, 568064, Note_on_c, 2, 70, 67
4, 568128, Note_off_c, 2, 68, 67
4, 568128, Note_off_c, 2, 70, 67
4, 568192, Note_off_c, 2, 68, 67
4, 568192, Note_off_c, 2, 70, 67
4, 568192, Note_on_c, 2, 74, 67
4, 568256, Note_off_c, 2, 74, 67
4, 568256, Note_on_c, 2, 75, 67
4, 568320, Note_off_c, 2, 75, 67
4, 568320, Note_on_c, 2, 77, 67
4, 568384, Note_off_c, 2, 77, 67
4, 568448, Note_off_c, 2, 77, 67
4, 568448, Note_on_c, 2, 74, 67
4, 568448, Note_on_c, 2, 77, 67
4, 568512, Note_off_c, 2, 74, 67
4, 568512, Note_off_c, 2, 77, 67
4, 568576, Note_off_c, 2, 74, 67
4, 568576, Note_off_c, 2, 77, 67
4, 568576, Note_on_c, 2, 74, 67
4, 568576, Note_on_c, 2, 77, 67
4, 568640, Note_off_c, 2, 74, 67
4, 568640, Note_off_c, 2, 77, 67
4, 568704, Note_off_c, 2, 74, 67
4, 568704, Note_off_c, 2, 77, 67
4, 568704, Note_on_c, 2, 74, 67
4, 568768, Note_off_c, 2, 74, 67
4, 568768, Note_on_c, 2, 75, 67
4, 568832, Note_off_c, 2, 75, 67
4, 568832, Note_on_c, 2, 77, 67
4, 568896, Note_off_c, 2, 77, 67
4, 568960, Note_off_c, 2, 77, 67
4, 568960, Note_on_c, 2, 74, 67
4, 568960, Note_on_c, 2, 77, 67
4, 569024, Note_off_c, 2, 74, 67
4, 569024, Note_off_c, 2, 77, 67
4, 569088, Note_off_c, 2, 74, 67
4, 569088, Note_off_c, 2, 77, 67
4, 569088, Note_on_c, 2, 74, 67
4, 569088, Note_on_c, 2, 77, 67
4, 569152, Note_off_c, 2, 74, 67
4, 569152, Note_off_c, 2, 77, 67
4, 569216, Note_off_c, 2, 74, 67
4, 569216, Note_off_c, 2, 77, 67
4, 569216, Note_on_c, 2, 74, 67
4, 569280, Note_off_c, 2, 74, 67
4, 569280, Note_on_c, 2, 75, 67
4, 569344, Note_off_c, 2, 75, 67
4, 569344, Note_on_c, 2, 70, 67
4, 569344, Note_on_c, 2, 77, 67
4, 569408, Note_off_c, 2, 70, 67
4, 569408, Note_off_c, 2, 77, 67
4, 569472, Note_off_c, 2, 70, 67
4, 569472, Note_off_c, 2, 77, 67
4, 569472, Note_on_c, 2, 74, 67
4, 569472, Note_on_c, 2, 77, 67
4, 569536, Note_off_c, 2, 74, 67
4, 569536, Note_off_c, 2, 77, 67
4, 569600, Note_off_c, 2, 74, 67
4, 569600, Note_off_c, 2, 77, 67
4, 569600, Note_on_c, 2, 74, 67
4, 569600, Note_on_c, 2, 79, 67
4, 569632, Note_off_c, 2, 74, 67
4, 569632, Note_off_c, 2, 79, 67
4, 569664, Note_off_c, 2, 74, 67
4, 569664, Note_off_c, 2, 79, 67
4, 569664, Note_on_c, 2, 72, 67
4, 569664, Note_on_c, 2, 77, 67
4, 569696, Note_off_c, 2, 72, 67
4, 569696, Note_off_c, 2, 77, 67
4, 569728, Note_off_c, 2, 72, 67
4, 569728, Note_off_c, 2, 77, 67
4, 569728, Note_on_c, 2, 70, 67
4, 569728, Note_on_c, 2, 77, 67
4, 569760, Note_off_c, 2, 70, 67
4, 569760, Note_off_c, 2, 77, 67
4, 569792, Note_off_c, 2, 70, 67
4, 569792, Note_off_c, 2, 77, 67
4, 569792, Note_on_c, 2, 68, 67
4, 569792, Note_on_c, 2, 79, 67
4, 569824, Note_off_c, 2, 68, 67
4, 569824, Note_off_c, 2, 79, 67
4, 569856, Note_off_c, 2, 68, 67
4, 569856, Note_off_c, 2, 79, 67
4, 569856, Note_on_c, 2, 67, 67
4, 569856, Note_on_c, 2, 75, 67
4, 569920, Note_off_c, 2, 67, 67
4, 569920, Note_off_c, 2, 75, 67
4, 569984, Note_off_c, 2, 67, 67
4, 569984, Note_off_c, 2, 75, 67
4, 569984, Note_on_c, 2, 70, 67
4, 570048, Note_off_c, 2, 70, 67
4, 570112, Note_off_c, 2, 70, 67
4, 570112, Note_on_c, 2, 70, 67
4, 570112, Note_on_c, 2, 79, 67
4, 570176, Note_off_c, 2, 70, 67
4, 570176, Note_off_c, 2, 79, 67
4, 570240, Note_off_c, 2, 70, 67
4, 570240, Note_off_c, 2, 79, 67
4, 570240, Note_on_c, 2, 75, 67
4, 570304, Note_off_c, 2, 75, 67
4, 570304, Note_on_c, 2, 77, 67
4, 570368, Note_off_c, 2, 77, 67
4, 570368, Note_on_c, 2, 79, 67
4, 570432, Note_off_c, 2, 79, 67
4, 570496, Note_off_c, 2, 79, 67
4, 570496, Note_on_c, 2, 75, 67
4, 570496, Note_on_c, 2, 79, 67
4, 570560, Note_off_c, 2, 75, 67
4, 570560, Note_off_c, 2, 79, 67
4, 570624, Note_off_c, 2, 75, 67
4, 570624, Note_off_c, 2, 79, 67
4, 570624, Note_on_c, 2, 75, 67
4, 570624, Note_on_c, 2, 79, 67
4, 570688, Note_off_c, 2, 75, 67
4, 570688, Note_off_c, 2, 79, 67
4, 570752, Note_off_c, 2, 75, 67
4, 570752, Note_off_c, 2, 79, 67
4, 570752, Note_on_c, 2, 75, 67
4, 570816, Note_off_c, 2, 75, 67
4, 570816, Note_on_c, 2, 77, 67
4, 570880, Note_off_c, 2, 77, 67
4, 570880, Note_on_c, 2, 79, 67
4, 570944, Note_off_c, 2, 79, 67
4, 571008, Note_off_c, 2, 79, 67
4, 571008, Note_on_c, 2, 75, 67
4, 571008, Note_on_c, 2, 79, 67
4, 571072, Note_off_c, 2, 75, 67
4, 571072, Note_off_c, 2, 79, 67
4, 571136, Note_off_c, 2, 75, 67
4, 571136, Note_off_c, 2, 79, 67
4, 571136, Note_on_c, 2, 75, 67
4, 571136, Note_on_c, 2, 79, 67
4, 571200, Note_off_c, 2, 75, 67
4, 571200, Note_off_c, 2, 79, 67
4, 571264, Note_off_c, 2, 75, 67
4, 571264, Note_off_c, 2, 79, 67
4, 571264, Note_on_c, 2, 75, 67
4, 571328, Note_off_c, 2, 75, 67
4, 571328, Note_on_c, 2, 77, 67
4, 571392, Note_off_c, 2, 77, 67
4, 571392, Note_on_c, 2, 79, 67
4, 571456, Note_off_c, 2, 79, 67
4, 571520, Note_off_c, 2, 79, 67
4, 571520, Note_on_c, 2, 75, 67
4, 571520, Note_on_c, 2, 79, 67
4, 571584, Note_off_c, 2, 75, 67
4, 571584, Note_off_c, 2, 79, 67
4, 571648, Note_off_c, 2, 75, 67
4, 571648, Note_off_c, 2, 79, 67
4, 571648, Note_on_c, 2, 75, 67
4, 571648, Note_on_c, 2, 80, 67
4, 571680, Note_off_c, 2, 75, 67
4, 571680, Note_off_c, 2, 80, 67
4, 571712, Note_off_c, 2, 75, 67
4, 571712, Note_off_c, 2, 80, 67
4, 571712, Note_on_c, 2, 74, 67
4, 571776, Note_off_c, 2, 74, 67
4, 571776, Note_on_c, 2, 72, 67
4, 571840, Note_off_c, 2, 72, 67
4, 571840, Note_on_c, 2, 74, 67
4, 571840, Note_on_c, 2, 79, 67
4, 571872, Note_off_c, 2, 74, 67
4, 571872, Note_off_c, 2, 79, 67
4, 571904, Note_off_c, 2, 74, 67
4, 571904, Note_off_c, 2, 79, 67
4, 571904, Note_on_c, 2, 70, 67
4, 571904, Note_on_c, 2, 77, 67
4, 571968, Note_off_c, 2, 70, 67
4, 571968, Note_off_c, 2, 77, 67
4, 572032, Note_off_c, 2, 70, 67
4, 572032, Note_off_c, 2, 77, 67
4, 572032, Note_on_c, 2, 68, 67
4, 572032, Note_on_c, 2, 70, 67
4, 572096, Note_off_c, 2, 68, 67
4, 572096, Note_off_c, 2, 70, 67
4, 572160, Note_off_c, 2, 68, 67
4, 572160, Note_off_c, 2, 70, 67
4, 572160, Note_on_c, 2, 68, 67
4, 572160, Note_on_c, 2, 70, 67
4, 572224, Note_off_c, 2, 68, 67
4, 572224, Note_off_c, 2, 70, 67
4, 572288, Note_off_c, 2, 68, 67
4, 572288, Note_off_c, 2, 70, 67
4, 572288, Note_on_c, 2, 74, 67
4, 572352, Note_off_c, 2, 74, 67
4, 572352, Note_on_c, 2, 75, 67
4, 572416, Note_off_c, 2, 75, 67
4, 572416, Note_on_c, 2, 77, 67
4, 572544, Note_off_c, 2, 77, 67
4, 572544, Note_on_c, 2, 74, 67
4, 572544, Note_on_c, 2, 80, 67
4, 572608, Note_off_c, 2, 74, 67
4, 572608, Note_off_c, 2, 80, 67
4, 572672, Note_off_c, 2, 74, 67
4, 572672, Note_off_c, 2, 80, 67
4, 572672, Note_on_c, 2, 74, 67
4, 572672, Note_on_c, 2, 79, 67
4, 572736, Note_off_c, 2, 74, 67
4, 572736, Note_off_c, 2, 79, 67
4, 572800, Note_off_c, 2, 74, 67
4, 572800, Note_off_c, 2, 79, 67
4, 572800, Note_on_c, 2, 77, 67
4, 572864, Note_off_c, 2, 77, 67
4, 572928, Note_off_c, 2, 77, 67
4, 572928, Note_on_c, 2, 75, 67
4, 572992, Note_off_c, 2, 75, 67
4, 573056, Note_off_c, 2, 75, 67
4, 573056, Note_on_c, 2, 70, 67
4, 573056, Note_on_c, 2, 74, 67
4, 573120, Note_off_c, 2, 70, 67
4, 573120, Note_off_c, 2, 74, 67
4, 573184, Note_off_c, 2, 70, 67
4, 573184, Note_off_c, 2, 74, 67
4, 573184, Note_on_c, 2, 72, 67
4, 573184, Note_on_c, 2, 74, 67
4, 573248, Note_off_c, 2, 72, 67
4, 573248, Note_off_c, 2, 74, 67
4, 573312, Note_off_c, 2, 72, 67
4, 573312, Note_off_c, 2, 74, 67
4, 573312, Note_on_c, 2, 70, 67
4, 573312, Note_on_c, 2, 74, 67
4, 573376, Note_off_c, 2, 70, 67
4, 573376, Note_off_c, 2, 74, 67
4, 573440, Note_off_c, 2, 70, 67
4, 573440, Note_off_c, 2, 74, 67
4, 573440, Note_on_c, 2, 80, 67
4, 573440, Note_on_c, 2, 84, 67
4, 573696, Note_off_c, 2, 80, 67
4, 573696, Note_off_c, 2, 84, 67
4, 573696, Note_on_c, 2, 70, 67
4, 573696, Note_on_c, 2, 74, 67
4, 573712, Note_off_c, 2, 70, 67
4, 573712, Note_off_c, 2, 74, 67
4, 573728, Note_off_c, 2, 70, 67
4, 573728, Note_off_c, 2, 74, 67
4, 573728, Note_on_c, 2, 72, 67
4, 573728, Note_on_c, 2, 75, 67
4, 573744, Note_off_c, 2, 72, 67
4, 573744, Note_off_c, 2, 75, 67
4, 573760, Note_off_c, 2, 72, 67
4, 573760, Note_off_c, 2, 75, 67
4, 573760, Note_on_c, 2, 70, 67
4, 573760, Note_on_c, 2, 74, 67
4, 573792, Note_off_c, 2, 70, 67
4, 573792, Note_off_c, 2, 74, 67
4, 573824, Note_off_c, 2, 70, 67
4, 573824, Note_off_c, 2, 74, 67
4, 573824, Note_on_c, 2, 68, 67
4, 573824, Note_on_c, 2, 72, 67
4, 573856, Note_off_c, 2, 68, 67
4, 573856, Note_off_c, 2, 72, 67
4, 573888, Note_off_c, 2, 68, 67
4, 573888, Note_off_c, 2, 72, 67
4, 573888, Note_on_c, 2, 74, 67
4, 573888, Note_on_c, 2, 77, 67
4, 573920, Note_off_c, 2, 74, 67
4, 573920, Note_off_c, 2, 77, 67
4, 573952, Note_off_c, 2, 74, 67
4, 573952, Note_off_c, 2, 77, 67
4, 573952, Note_on_c, 2, 75, 67
4, 573952, Note_on_c, 2, 79, 67
4, 574080, Note_off_c, 2, 75, 67
4, 574080, Note_off_c, 2, 79, 67
4, 574080, Note_on_c, 2, 70, 67
4, 574144, Note_off_c, 2, 70, 67
4, 574208, Note_off_c, 2, 70, 67
4, 574208, Note_on_c, 2, 70, 67
4, 574272, Note_off_c, 2, 70, 67
4, 574336, Note_off_c, 2, 70, 67
4, 574336, Note_on_c, 2, 75, 67
4, 574336, Note_on_c, 2, 79, 67
4, 574400, Note_off_c, 2, 75, 67
4, 574400, Note_off_c, 2, 79, 67
4, 574400, Note_on_c, 2, 77, 67
4, 574400, Note_on_c, 2, 80, 67
4, 574464, Note_off_c, 2, 77, 67
4, 574464, Note_off_c, 2, 80, 67
4, 574464, Note_on_c, 2, 79, 67
4, 574464, Note_on_c, 2, 82, 67
4, 574528, Note_off_c, 2, 79, 67
4, 574528, Note_off_c, 2, 82, 67
4, 574592, Note_off_c, 2, 79, 67
4, 574592, Note_off_c, 2, 82, 67
4, 574592, Note_on_c, 2, 79, 67
4, 574592, Note_on_c, 2, 82, 67
4, 574656, Note_off_c, 2, 79, 67
4, 574656, Note_off_c, 2, 82, 67
4, 574720, Note_off_c, 2, 79, 67
4, 574720, Note_off_c, 2, 82, 67
4, 574720, Note_on_c, 2, 70, 67
4, 574720, Note_on_c, 2, 79, 67
4, 574784, Note_off_c, 2, 70, 67
4, 574784, Note_off_c, 2, 79, 67
4, 574848, Note_off_c, 2, 70, 67
4, 574848, Note_off_c, 2, 79, 67
4, 574848, Note_on_c, 2, 70, 67
4, 574848, Note_on_c, 2, 75, 67
4, 574912, Note_off_c, 2, 70, 67
4, 574912, Note_off_c, 2, 75, 67
4, 574976, Note_off_c, 2, 70, 67
4, 574976, Note_off_c, 2, 75, 67
4, 574976, Note_on_c, 2, 84, 67
4, 574976, Note_on_c, 2, 87, 67
4, 575040, Note_off_c, 2, 84, 67
4, 575040, Note_off_c, 2, 87, 67
4, 575104, Note_off_c, 2, 84, 67
4, 575104, Note_off_c, 2, 87, 67
4, 575104, Note_on_c, 2, 82, 67
4, 575104, Note_on_c, 2, 86, 67
4, 575168, Note_off_c, 2, 82, 67
4, 575168, Note_off_c, 2, 86, 67
4, 575232, Note_off_c, 2, 82, 67
4, 575232, Note_off_c, 2, 86, 67
4, 575232, Note_on_c, 2, 80, 67
4, 575232, Note_on_c, 2, 84, 67
4, 575296, Note_off_c, 2, 80, 67
4, 575296, Note_off_c, 2, 84, 67
4, 575360, Note_off_c, 2, 80, 67
4, 575360, Note_off_c, 2, 84, 67
4, 575360, Note_on_c, 2, 79, 67
4, 575360, Note_on_c, 2, 87, 67
4, 575424, Note_off_c, 2, 79, 67
4, 575424, Note_off_c, 2, 87, 67
4, 575488, Note_off_c, 2, 79, 67
4, 575488, Note_off_c, 2, 87, 67
4, 575488, Note_on_c, 2, 75, 67
4, 575488, Note_on_c, 2, 82, 67
4, 575552, Note_off_c, 2, 75, 67
4, 575552, Note_off_c, 2, 82, 67
4, 575616, Note_off_c, 2, 75, 67
4, 575616, Note_off_c, 2, 82, 67
4, 575616, Note_on_c, 2, 79, 67
4, 575680, Note_off_c, 2, 79, 67
4, 575744, Note_off_c, 2, 79, 67
4, 575744, Note_on_c, 2, 67, 67
4, 575744, Note_on_c, 2, 75, 67
4, 575808, Note_off_c, 2, 67, 67
4, 575808, Note_off_c, 2, 75, 67
4, 575872, Note_off_c, 2, 67, 67
4, 575872, Note_off_c, 2, 75, 67
4, 575872, Note_on_c, 2, 68, 67
4, 575872, Note_on_c, 2, 74, 67
4, 575904, Note_off_c, 2, 68, 67
4, 575904, Note_off_c, 2, 74, 67
4, 575936, Note_off_c, 2, 68, 67
4, 575936, Note_off_c, 2, 74, 67
4, 575936, Note_on_c, 2, 74, 67
4, 575936, Note_on_c, 2, 79, 67
4, 575968, Note_off_c, 2, 74, 67
4, 575968, Note_off_c, 2, 79, 67
4, 576000, Note_off_c, 2, 74, 67
4, 576000, Note_off_c, 2, 79, 67
4, 576000, Note_on_c, 2, 70, 67
4, 576000, Note_on_c, 2, 77, 67
4, 576064, Note_off_c, 2, 70, 67
4, 576064, Note_off_c, 2, 77, 67
4, 576128, Note_off_c, 2, 70, 67
4, 576128, Note_off_c, 2, 77, 67
4, 576128, Note_on_c, 2, 65, 67
4, 576128, Note_on_c, 2, 70, 67
4, 576192, Note_off_c, 2, 65, 67
4, 576192, Note_off_c, 2, 70, 67
4, 576256, Note_off_c, 2, 65, 67
4, 576256, Note_off_c, 2, 70, 67
4, 576256, Note_on_c, 2, 68, 67
4, 576256, Note_on_c, 2, 70, 67
4, 576320, Note_off_c, 2, 68, 67
4, 576320, Note_off_c, 2, 70, 67
4, 576384, Note_off_c, 2, 68, 67
4, 576384, Note_off_c, 2, 70, 67
4, 576384, Note_on_c, 2, 70, 67
4, 576384, Note_on_c, 2, 79, 67
4, 576448, Note_off_c, 2, 70, 67
4, 576448, Note_off_c, 2, 79, 67
4, 576448, Note_on_c, 2, 77, 67
4, 576448, Note_on_c, 2, 80, 67
4, 576512, Note_off_c, 2, 77, 67
4, 576512, Note_off_c, 2, 80, 67
4, 576512, Note_on_c, 2, 79, 67
4, 576512, Note_on_c, 2, 82, 67
4, 576576, Note_off_c, 2, 79, 67
4, 576576, Note_off_c, 2, 82, 67
4, 576640, Note_off_c, 2, 79, 67
4, 576640, Note_off_c, 2, 82, 67
4, 576640, Note_on_c, 2, 79, 67
4, 576640, Note_on_c, 2, 82, 67
4, 576704, Note_off_c, 2, 79, 67
4, 576704, Note_off_c, 2, 82, 67
4, 576768, Note_off_c, 2, 79, 67
4, 576768, Note_off_c, 2, 82, 67
4, 576768, Note_on_c, 2, 70, 67
4, 576768, Note_on_c, 2, 79, 67
4, 576832, Note_off_c, 2, 70, 67
4, 576832, Note_off_c, 2, 79, 67
4, 576896, Note_off_c, 2, 70, 67
4, 576896, Note_off_c, 2, 79, 67
4, 576896, Note_on_c, 2, 75, 67
4, 576896, Note_on_c, 2, 82, 67
4, 576960, Note_off_c, 2, 75, 67
4, 576960, Note_off_c, 2, 82, 67
4, 577024, Note_off_c, 2, 75, 67
4, 577024, Note_off_c, 2, 82, 67
4, 577024, Note_on_c, 2, 84, 67
4, 577024, Note_on_c, 2, 87, 67
4, 577088, Note_off_c, 2, 84, 67
4, 577088, Note_off_c, 2, 87, 67
4, 577152, Note_off_c, 2, 84, 67
4, 577152, Note_off_c, 2, 87, 67
4, 577152, Note_on_c, 2, 82, 67
4, 577152, Note_on_c, 2, 86, 67
4, 577216, Note_off_c, 2, 82, 67
4, 577216, Note_off_c, 2, 86, 67
4, 577280, Note_off_c, 2, 82, 67
4, 577280, Note_off_c, 2, 86, 67
4, 577280, Note_on_c, 2, 80, 67
4, 577280, Note_on_c, 2, 84, 67
4, 577344, Note_off_c, 2, 80, 67
4, 577344, Note_off_c, 2, 84, 67
4, 577408, Note_off_c, 2, 80, 67
4, 577408, Note_off_c, 2, 84, 67
4, 577408, Note_on_c, 2, 70, 67
4, 577408, Note_on_c, 2, 74, 67
4, 577440, Note_off_c, 2, 70, 67
4, 577440, Note_off_c, 2, 74, 67
4, 577472, Note_off_c, 2, 70, 67
4, 577472, Note_off_c, 2, 74, 67
4, 577472, Note_on_c, 2, 77, 67
4, 577472, Note_on_c, 2, 80, 67
4, 577504, Note_off_c, 2, 77, 67
4, 577504, Note_off_c, 2, 80, 67
4, 577536, Note_off_c, 2, 77, 67
4, 577536, Note_off_c, 2, 80, 67
4, 577536, Note_on_c, 2, 77, 67
4, 577536, Note_on_c, 2, 82, 67
4, 577600, Note_off_c, 2, 77, 67
4, 577600, Note_off_c, 2, 82, 67
4, 577664, Note_off_c, 2, 77, 67
4, 577664, Note_off_c, 2, 82, 67
4, 577664, Note_on_c, 2, 80, 67
4, 577664, Note_on_c, 2, 87, 67
4, 577728, Note_off_c, 2, 80, 67
4, 577728, Note_off_c, 2, 87, 67
4, 577792, Note_off_c, 2, 80, 67
4, 577792, Note_off_c, 2, 87, 67
4, 577792, Note_on_c, 2, 82, 67
4, 577792, Note_on_c, 2, 86, 67
4, 577856, Note_off_c, 2, 82, 67
4, 577856, Note_off_c, 2, 86, 67
4, 577920, Note_off_c, 2, 82, 67
4, 577920, Note_off_c, 2, 86, 67
4, 577920, Note_on_c, 2, 80, 67
4, 577920, Note_on_c, 2, 89, 67
4, 577984, Note_off_c, 2, 80, 67
4, 577984, Note_off_c, 2, 89, 67
4, 578048, Note_off_c, 2, 80, 67
4, 578048, Note_off_c, 2, 89, 67
4, 578048, Note_on_c, 2, 79, 67
4, 578048, Note_on_c, 2, 87, 67
4, 578112, Note_off_c, 2, 79, 67
4, 578112, Note_off_c, 2, 87, 67
4, 578176, Note_off_c, 2, 79, 67
4, 578176, Note_off_c, 2, 87, 67
4, 578176, Note_on_c, 2, 70, 67
4, 578176, Note_on_c, 2, 82, 67
4, 578240, Note_off_c, 2, 70, 67
4, 578240, Note_off_c, 2, 82, 67
4, 578304, Note_off_c, 2, 70, 67
4, 578304, Note_off_c, 2, 82, 67
4, 578304, Note_on_c, 2, 70, 67
4, 578304, Note_on_c, 2, 82, 67
4, 578368, Note_off_c, 2, 70, 67
4, 578368, Note_off_c, 2, 82, 67
4, 578432, Note_off_c, 2, 70, 67
4, 578432, Note_off_c, 2, 82, 67
4, 578432, Note_on_c, 2, 75, 67
4, 578496, Note_off_c, 2, 75, 67
4, 578496, Note_on_c, 2, 77, 67
4, 578560, Note_off_c, 2, 77, 67
4, 578560, Note_on_c, 2, 79, 67
4, 578624, Note_off_c, 2, 79, 67
4, 578688, Note_off_c, 2, 79, 67
4, 578688, Note_on_c, 2, 75, 67
4, 578688, Note_on_c, 2, 79, 67
4, 578752, Note_off_c, 2, 75, 67
4, 578752, Note_off_c, 2, 79, 67
4, 578816, Note_off_c, 2, 75, 67
4, 578816, Note_off_c, 2, 79, 67
4, 578816, Note_on_c, 2, 75, 67
4, 578816, Note_on_c, 2, 79, 67
4, 578880, Note_off_c, 2, 75, 67
4, 578880, Note_off_c, 2, 79, 67
4, 578944, Note_off_c, 2, 75, 67
4, 578944, Note_off_c, 2, 79, 67
4, 578944, Note_on_c, 2, 75, 67
4, 579008, Note_off_c, 2, 75, 67
4, 579008, Note_on_c, 2, 77, 67
4, 579072, Note_off_c, 2, 77, 67
4, 579072, Note_on_c, 2, 79, 67
4, 579136, Note_off_c, 2, 79, 67
4, 579200, Note_off_c, 2, 79, 67
4, 579200, Note_on_c, 2, 75, 67
4, 579200, Note_on_c, 2, 79, 67
4, 579264, Note_off_c, 2, 75, 67
4, 579264, Note_off_c, 2, 79, 67
4, 579328, Note_off_c, 2, 75, 67
4, 579328, Note_off_c, 2, 79, 67
4, 579328, Note_on_c, 2, 75, 67
4, 579328, Note_on_c, 2, 79, 67
4, 579392, Note_off_c, 2, 75, 67
4, 579392, Note_off_c, 2, 79, 67
4, 579456, Note_off_c, 2, 75, 67
4, 579456, Note_off_c, 2, 79, 67
4, 579456, Note_on_c, 2, 75, 67
4, 579520, Note_off_c, 2, 75, 67
4, 579520, Note_on_c, 2, 77, 67
4, 579584, Note_off_c, 2, 77, 67
4, 579584, Note_on_c, 2, 79, 67
4, 579648, Note_off_c, 2, 79, 67
4, 579712, Note_off_c, 2, 79, 67
4, 579712, Note_on_c, 2, 75, 67
4, 579712, Note_on_c, 2, 79, 67
4, 579776, Note_off_c, 2, 75, 67
4, 579776, Note_off_c, 2, 79, 67
4, 579840, Note_off_c, 2, 75, 67
4, 579840, Note_off_c, 2, 79, 67
4, 579840, Note_on_c, 2, 75, 67
4, 579840, Note_on_c, 2, 80, 67
4, 579872, Note_off_c, 2, 75, 67
4, 579872, Note_off_c, 2, 80, 67
4, 579904, Note_off_c, 2, 75, 67
4, 579904, Note_off_c, 2, 80, 67
4, 579904, Note_on_c, 2, 74, 67
4, 579936, Note_off_c, 2, 74, 67
4, 579968, Note_off_c, 2, 74, 67
4, 579968, Note_on_c, 2, 72, 67
4, 580000, Note_off_c, 2, 72, 67
4, 580032, Note_off_c, 2, 72, 67
4, 580032, Note_on_c, 2, 74, 67
4, 580032, Note_on_c, 2, 79, 67
4, 580064, Note_off_c, 2, 74, 67
4, 580064, Note_off_c, 2, 79, 67
4, 580096, Note_off_c, 2, 74, 67
4, 580096, Note_off_c, 2, 79, 67
4, 580096, Note_on_c, 2, 70, 67
4, 580096, Note_on_c, 2, 77, 67
4, 580160, Note_off_c, 2, 70, 67
4, 580160, Note_off_c, 2, 77, 67
4, 580224, Note_off_c, 2, 70, 67
4, 580224, Note_off_c, 2, 77, 67
4, 580224, Note_on_c, 2, 68, 67
4, 580224, Note_on_c, 2, 70, 67
4, 580288, Note_off_c, 2, 68, 67
4, 580288, Note_off_c, 2, 70, 67
4, 580352, Note_off_c, 2, 68, 67
4, 580352, Note_off_c, 2, 70, 67
4, 580352, Note_on_c, 2, 68, 67
4, 580352, Note_on_c, 2, 70, 67
4, 580416, Note_off_c, 2, 68, 67
4, 580416, Note_off_c, 2, 70, 67
4, 580480, Note_off_c, 2, 68, 67
4, 580480, Note_off_c, 2, 70, 67
4, 580480, Note_on_c, 2, 74, 67
4, 580544, Note_off_c, 2, 74, 67
4, 580544, Note_on_c, 2, 75, 67
4, 580608, Note_off_c, 2, 75, 67
4, 580608, Note_on_c, 2, 77, 67
4, 580672, Note_off_c, 2, 77, 67
4, 580736, Note_off_c, 2, 77, 67
4, 580736, Note_on_c, 2, 74, 67
4, 580736, Note_on_c, 2, 77, 67
4, 580800, Note_off_c, 2, 74, 67
4, 580800, Note_off_c, 2, 77, 67
4, 580864, Note_off_c, 2, 74, 67
4, 580864, Note_off_c, 2, 77, 67
4, 580864, Note_on_c, 2, 74, 67
4, 580864, Note_on_c, 2, 77, 67
4, 580928, Note_off_c, 2, 74, 67
4, 580928, Note_off_c, 2, 77, 67
4, 580992, Note_off_c, 2, 74, 67
4, 580992, Note_off_c, 2, 77, 67
4, 580992, Note_on_c, 2, 74, 67
4, 581056, Note_off_c, 2, 74, 67
4, 581056, Note_on_c, 2, 75, 67
4, 581120, Note_off_c, 2, 75, 67
4, 581120, Note_on_c, 2, 77, 67
4, 581184, Note_off_c, 2, 77, 67
4, 581248, Note_off_c, 2, 77, 67
4, 581248, Note_on_c, 2, 74, 67
4, 581248, Note_on_c, 2, 77, 67
4, 581312, Note_off_c, 2, 74, 67
4, 581312, Note_off_c, 2, 77, 67
4, 581376, Note_off_c, 2, 74, 67
4, 581376, Note_off_c, 2, 77, 67
4, 581376, Note_on_c, 2, 74, 67
4, 581376, Note_on_c, 2, 77, 67
4, 581440, Note_off_c, 2, 74, 67
4, 581440, Note_off_c, 2, 77, 67
4, 581504, Note_off_c, 2, 74, 67
4, 581504, Note_off_c, 2, 77, 67
4, 581504, Note_on_c, 2, 74, 67
4, 581568, Note_off_c, 2, 74, 67
4, 581568, Note_on_c, 2, 75, 67
4, 581632, Note_off_c, 2, 75, 67
4, 581632, Note_on_c, 2, 70, 67
4, 581632, Note_on_c, 2, 77, 67
4, 581696, Note_off_c, 2, 70, 67
4, 581696, Note_off_c, 2, 77, 67
4, 581760, Note_off_c, 2, 70, 67
4, 581760, Note_off_c, 2, 77, 67
4, 581760, Note_on_c, 2, 74, 67
4, 581760, Note_on_c, 2, 77, 67
4, 581824, Note_off_c, 2, 74, 67
4, 581824, Note_off_c, 2, 77, 67
4, 581888, Note_off_c, 2, 74, 67
4, 581888, Note_off_c, 2, 77, 67
4, 581888, Note_on_c, 2, 74, 67
4, 581888, Note_on_c, 2, 79, 67
4, 581920, Note_off_c, 2, 74, 67
4, 581920, Note_off_c, 2, 79, 67
4, 581952, Note_off_c, 2, 74, 67
4, 581952, Note_off_c, 2, 79, 67
4, 581952, Note_on_c, 2, 72, 67
4, 581952, Note_on_c, 2, 77, 67
4, 581984, Note_off_c, 2, 72, 67
4, 581984, Note_off_c, 2, 77, 67
4, 582016, Note_off_c, 2, 72, 67
4, 582016, Note_off_c, 2, 77, 67
4, 582016, Note_on_c, 2, 70, 67
4, 582016, Note_on_c, 2, 77, 67
4, 582048, Note_off_c, 2, 70, 67
4, 582048, Note_off_c, 2, 77, 67
4, 582080, Note_off_c, 2, 70, 67
4, 582080, Note_off_c, 2, 77, 67
4, 582080, Note_on_c, 2, 68, 67
4, 582080, Note_on_c, 2, 79, 67
4, 582112, Note_off_c, 2, 68, 67
4, 582112, Note_off_c, 2, 79, 67
4, 582144, Note_off_c, 2, 68, 67
4, 582144, Note_off_c, 2, 79, 67
4, 582144, Note_on_c, 2, 67, 67
4, 582144, Note_on_c, 2, 75, 67
4, 582208, Note_off_c, 2, 67, 67
4, 582208, Note_off_c, 2, 75, 67
4, 582272, Note_off_c, 2, 67, 67
4, 582272, Note_off_c, 2, 75, 67
4, 582272, Note_on_c, 2, 70, 67
4, 582336, Note_off_c, 2, 70, 67
4, 582400, Note_off_c, 2, 70, 67
4, 582400, Note_on_c, 2, 70, 67
4, 582400, Note_on_c, 2, 79, 67
4, 582464, Note_off_c, 2, 70, 67
4, 582464, Note_off_c, 2, 79, 67
4, 582528, Note_off_c, 2, 70, 67
4, 582528, Note_off_c, 2, 79, 67
4, 582528, Note_on_c, 2, 75, 67
4, 582592, Note_off_c, 2, 75, 67
4, 582592, Note_on_c, 2, 77, 67
4, 582656, Note_off_c, 2, 77, 67
4, 582656, Note_on_c, 2, 79, 67
4, 582720, Note_off_c, 2, 79, 67
4, 582784, Note_off_c, 2, 79, 67
4, 582784, Note_on_c, 2, 75, 67
4, 582784, Note_on_c, 2, 79, 67
4, 582848, Note_off_c, 2, 75, 67
4, 582848, Note_off_c, 2, 79, 67
4, 582912, Note_off_c, 2, 75, 67
4, 582912, Note_off_c, 2, 79, 67
4, 582912, Note_on_c, 2, 75, 67
4, 582912, Note_on_c, 2, 79, 67
4, 582976, Note_off_c, 2, 75, 67
4, 582976, Note_off_c, 2, 79, 67
4, 583040, Note_off_c, 2, 75, 67
4, 583040, Note_off_c, 2, 79, 67
4, 583040, Note_on_c, 2, 75, 67
4, 583104, Note_off_c, 2, 75, 67
4, 583104, Note_on_c, 2, 77, 67
4, 583168, Note_off_c, 2, 77, 67
4, 583168, Note_on_c, 2, 79, 67
4, 583232, Note_off_c, 2, 79, 67
4, 583296, Note_off_c, 2, 79, 67
4, 583296, Note_on_c, 2, 75, 67
4, 583296, Note_on_c, 2, 79, 67
4, 583360, Note_off_c, 2, 75, 67
4, 583360, Note_off_c, 2, 79, 67
4, 583424, Note_off_c, 2, 75, 67
4, 583424, Note_off_c, 2, 79, 67
4, 583424, Note_on_c, 2, 75, 67
4, 583424, Note_on_c, 2, 79, 67
4, 583488, Note_off_c, 2, 75, 67
4, 583488, Note_off_c, 2, 79, 67
4, 583552, Note_off_c, 2, 75, 67
4, 583552, Note_off_c, 2, 79, 67
4, 583552, Note_on_c, 2, 75, 67
4, 583616, Note_off_c, 2, 75, 67
4, 583616, Note_on_c, 2, 77, 67
4, 583680, Note_off_c, 2, 77, 67
4, 583680, Note_on_c, 2, 79, 67
4, 583744, Note_off_c, 2, 79, 67
4, 583808, Note_off_c, 2, 79, 67
4, 583808, Note_on_c, 2, 75, 67
4, 583808, Note_on_c, 2, 79, 67
4, 583872, Note_off_c, 2, 75, 67
4, 583872, Note_off_c, 2, 79, 67
4, 583936, Note_off_c, 2, 75, 67
4, 583936, Note_off_c, 2, 79, 67
4, 583936, Note_on_c, 2, 75, 67
4, 583936, Note_on_c, 2, 80, 67
4, 583968, Note_off_c, 2, 75, 67
4, 583968, Note_off_c, 2, 80, 67
4, 584000, Note_off_c, 2, 75, 67
4, 584000, Note_off_c, 2, 80, 67
4, 584000, Note_on_c, 2, 74, 67
4, 584064, Note_off_c, 2, 74, 67
4, 584064, Note_on_c, 2, 72, 67
4, 584128, Note_off_c, 2, 72, 67
4, 584128, Note_on_c, 2, 74, 67
4, 584128, Note_on_c, 2, 79, 67
4, 584160, Note_off_c, 2, 74, 67
4, 584160, Note_off_c, 2, 79, 67
4, 584192, Note_off_c, 2, 74, 67
4, 584192, Note_off_c, 2, 79, 67
4, 584192, Note_on_c, 2, 70, 67
4, 584192, Note_on_c, 2, 77, 67
4, 584256, Note_off_c, 2, 70, 67
4, 584256, Note_off_c, 2, 77, 67
4, 584320, Note_off_c, 2, 70, 67
4, 584320, Note_off_c, 2, 77, 67
4, 584320, Note_on_c, 2, 68, 67
4, 584320, Note_on_c, 2, 70, 67
4, 584384, Note_off_c, 2, 68, 67
4, 584384, Note_off_c, 2, 70, 67
4, 584448, Note_off_c, 2, 68, 67
4, 584448, Note_off_c, 2, 70, 67
4, 584448, Note_on_c, 2, 68, 67
4, 584448, Note_on_c, 2, 70, 67
4, 584512, Note_off_c, 2, 68, 67
4, 584512, Note_off_c, 2, 70, 67
4, 584576, Note_off_c, 2, 68, 67
4, 584576, Note_off_c, 2, 70, 67
4, 584576, Note_on_c, 2, 74, 67
4, 584640, Note_off_c, 2, 74, 67
4, 584640, Note_on_c, 2, 75, 67
4, 584704, Note_off_c, 2, 75, 67
4, 584704, Note_on_c, 2, 77, 67
4, 584832, Note_off_c, 2, 77, 67
4, 584832, Note_on_c, 2, 74, 67
4, 584832, Note_on_c, 2, 80, 67
4, 584896, Note_off_c, 2, 74, 67
4, 584896, Note_off_c, 2, 80, 67
4, 584960, Note_off_c, 2, 74, 67
4, 584960, Note_off_c, 2, 80, 67
4, 584960, Note_on_c, 2, 74, 67
4, 584960, Note_on_c, 2, 79, 67
4, 585024, Note_off_c, 2, 74, 67
4, 585024, Note_off_c, 2, 79, 67
4, 585088, Note_off_c, 2, 74, 67
4, 585088, Note_off_c, 2, 79, 67
4, 585088, Note_on_c, 2, 77, 67
4, 585152, Note_off_c, 2, 77, 67
4, 585216, Note_off_c, 2, 77, 67
4, 585216, Note_on_c, 2, 75, 67
4, 585280, Note_off_c, 2, 75, 67
4, 585344, Note_off_c, 2, 75, 67
4, 585344, Note_on_c, 2, 70, 67
4, 585344, Note_on_c, 2, 74, 67
4, 585408, Note_off_c, 2, 70, 67
4, 585408, Note_off_c, 2, 74, 67
4, 585472, Note_off_c, 2, 70, 67
4, 585472, Note_off_c, 2, 74, 67
4, 585472, Note_on_c, 2, 72, 67
4, 585472, Note_on_c, 2, 74, 67
4, 585536, Note_off_c, 2, 72, 67
4, 585536, Note_off_c, 2, 74, 67
4, 585600, Note_off_c, 2, 72, 67
4, 585600, Note_off_c, 2, 74, 67
4, 585600, Note_on_c, 2, 70, 67
4, 585600, Note_on_c, 2, 74, 67
4, 585664, Note_off_c, 2, 70, 67
4, 585664, Note_off_c, 2, 74, 67
4, 585728, Note_off_c, 2, 70, 67
4, 585728, Note_off_c, 2, 74, 67
4, 585728, Note_on_c, 2, 80, 67
4, 585728, Note_on_c, 2, 84, 67
4, 585984, Note_off_c, 2, 80, 67
4, 585984, Note_off_c, 2, 84, 67
4, 585984, Note_on_c, 2, 70, 67
4, 585984, Note_on_c, 2, 74, 67
4, 586000, Note_off_c, 2, 70, 67
4, 586000, Note_off_c, 2, 74, 67
4, 586016, Note_off_c, 2, 70, 67
4, 586016, Note_off_c, 2, 74, 67
4, 586016, Note_on_c, 2, 72, 67
4, 586016, Note_on_c, 2, 75, 67
4, 586032, Note_off_c, 2, 72, 67
4, 586032, Note_off_c, 2, 75, 67
4, 586048, Note_off_c, 2, 72, 67
4, 586048, Note_off_c, 2, 75, 67
4, 586048, Note_on_c, 2, 70, 67
4, 586048, Note_on_c, 2, 74, 67
4, 586080, Note_off_c, 2, 70, 67
4, 586080, Note_off_c, 2, 74, 67
4, 586112, Note_off_c, 2, 70, 67
4, 586112, Note_off_c, 2, 74, 67
4, 586112, Note_on_c, 2, 68, 67
4, 586112, Note_on_c, 2, 72, 67
4, 586144, Note_off_c, 2, 68, 67
4, 586144, Note_off_c, 2, 72, 67
4, 586176, Note_off_c, 2, 68, 67
4, 586176, Note_off_c, 2, 72, 67
4, 586176, Note_on_c, 2, 74, 67
4, 586176, Note_on_c, 2, 77, 67
4, 586208, Note_off_c, 2, 74, 67
4, 586208, Note_off_c, 2, 77, 67
4, 586240, Note_off_c, 2, 74, 67
4, 586240, Note_off_c, 2, 77, 67
4, 586240, Note_on_c, 2, 75, 67
4, 586240, Note_on_c, 2, 79, 67
4, 586368, Note_off_c, 2, 75, 67
4, 586368, Note_off_c, 2, 79, 67
4, 586368, Note_on_c, 2, 70, 67
4, 586432, Note_off_c, 2, 70, 67
4, 586496, Note_off_c, 2, 70, 67
4, 586496, Note_on_c, 2, 70, 67
4, 586560, Note_off_c, 2, 70, 67
4, 586624, Note_off_c, 2, 70, 67
4, 586624, Note_on_c, 2, 75, 67
4, 586624, Note_on_c, 2, 79, 67
4, 586688, Note_off_c, 2, 75, 67
4, 586688, Note_off_c, 2, 79, 67
4, 586688, Note_on_c, 2, 77, 67
4, 586688, Note_on_c, 2, 80, 67
4, 586752, Note_off_c, 2, 77, 67
4, 586752, Note_off_c, 2, 80, 67
4, 586752, Note_on_c, 2, 79, 67
4, 586752, Note_on_c, 2, 82, 67
4, 586816, Note_off_c, 2, 79, 67
4, 586816, Note_off_c, 2, 82, 67
4, 586880, Note_off_c, 2, 79, 67
4, 586880, Note_off_c, 2, 82, 67
4, 586880, Note_on_c, 2, 79, 67
4, 586880, Note_on_c, 2, 82, 67
4, 586944, Note_off_c, 2, 79, 67
4, 586944, Note_off_c, 2, 82, 67
4, 587008, Note_off_c, 2, 79, 67
4, 587008, Note_off_c, 2, 82, 67
4, 587008, Note_on_c, 2, 70, 67
4, 587008, Note_on_c, 2, 79, 67
4, 587072, Note_off_c, 2, 70, 67
4, 587072, Note_off_c, 2, 79, 67
4, 587136, Note_off_c, 2, 70, 67
4, 587136, Note_off_c, 2, 79, 67
4, 587136, Note_on_c, 2, 70, 67
4, 587136, Note_on_c, 2, 75, 67
4, 587200, Note_off_c, 2, 70, 67
4, 587200, Note_off_c, 2, 75, 67
4, 587264, Note_off_c, 2, 70, 67
4, 587264, Note_off_c, 2, 75, 67
4, 587264, Note_on_c, 2, 84, 67
4, 587264, Note_on_c, 2, 87, 67
4, 587328, Note_off_c, 2, 84, 67
4, 587328, Note_off_c, 2, 87, 67
4, 587392, Note_off_c, 2, 84, 67
4, 587392, Note_off_c, 2, 87, 67
4, 587392, Note_on_c, 2, 82, 67
4, 587392, Note_on_c, 2, 86, 67
4, 587456, Note_off_c, 2, 82, 67
4, 587456, Note_off_c, 2, 86, 67
4, 587520, Note_off_c, 2, 82, 67
4, 587520, Note_off_c, 2, 86, 67
4, 587520, Note_on_c, 2, 80, 67
4, 587520, Note_on_c, 2, 84, 67
4, 587584, Note_off_c, 2, 80, 67
4, 587584, Note_off_c, 2, 84, 67
4, 587648, Note_off_c, 2, 80, 67
4, 587648, Note_off_c, 2, 84, 67
4, 587648, Note_on_c, 2, 79, 67
4, 587648, Note_on_c, 2, 87, 67
4, 587712, Note_off_c, 2, 79, 67
4, 587712, Note_off_c, 2, 87, 67
4, 587776, Note_off_c, 2, 79, 67
4, 587776, Note_off_c, 2, 87, 67
4, 587776, Note_on_c, 2, 75, 67
4, 587776, Note_on_c, 2, 82, 67
4, 587840, Note_off_c, 2, 75, 67
4, 587840, Note_off_c, 2, 82, 67
4, 587904, Note_off_c, 2, 75, 67
4, 587904, Note_off_c, 2, 82, 67
4, 587904, Note_on_c, 2, 79, 67
4, 587968, Note_off_c, 2, 79, 67
4, 588032, Note_off_c, 2, 79, 67
4, 588032, Note_on_c, 2, 67, 67
4, 588032, Note_on_c, 2, 75, 67
4, 588096, Note_off_c, 2, 67, 67
4, 588096, Note_off_c, 2, 75, 67
4, 588160, Note_off_c, 2, 67, 67
4, 588160, Note_off_c, 2, 75, 67
4, 588160, Note_on_c, 2, 68, 67
4, 588160, Note_on_c, 2, 74, 67
4, 588192, Note_off_c, 2, 68, 67
4, 588192, Note_off_c, 2, 74, 67
4, 588224, Note_off_c, 2, 68, 67
4, 588224, Note_off_c, 2, 74, 67
4, 588224, Note_on_c, 2, 74, 67
4, 588224, Note_on_c, 2, 79, 67
4, 588256, Note_off_c, 2, 74, 67
4, 588256, Note_off_c, 2, 79, 67
4, 588288, Note_off_c, 2, 74, 67
4, 588288, Note_off_c, 2, 79, 67
4, 588288, Note_on_c, 2, 70, 67
4, 588288, Note_on_c, 2, 77, 67
4, 588352, Note_off_c, 2, 70, 67
4, 588352, Note_off_c, 2, 77, 67
4, 588416, Note_off_c, 2, 70, 67
4, 588416, Note_off_c, 2, 77, 67
4, 588416, Note_on_c, 2, 65, 67
4, 588416, Note_on_c, 2, 70, 67
4, 588480, Note_off_c, 2, 65, 67
4, 588480, Note_off_c, 2, 70, 67
4, 588544, Note_off_c, 2, 65, 67
4, 588544, Note_off_c, 2, 70, 67
4, 588544, Note_on_c, 2, 68, 67
4, 588544, Note_on_c, 2, 70, 67
4, 588608, Note_off_c, 2, 68, 67
4, 588608, Note_off_c, 2, 70, 67
4, 588672, Note_off_c, 2, 68, 67
4, 588672, Note_off_c, 2, 70, 67
4, 588672, Note_on_c, 2, 70, 67
4, 588672, Note_on_c, 2, 79, 67
4, 588736, Note_off_c, 2, 70, 67
4, 588736, Note_off_c, 2, 79, 67
4, 588736, Note_on_c, 2, 77, 67
4, 588736, Note_on_c, 2, 80, 67
4, 588800, Note_off_c, 2, 77, 67
4, 588800, Note_off_c, 2, 80, 67
4, 588800, Note_on_c, 2, 79, 67
4, 588800, Note_on_c, 2, 82, 67
4, 588864, Note_off_c, 2, 79, 67
4, 588864, Note_off_c, 2, 82, 67
4, 588928, Note_off_c, 2, 79, 67
4, 588928, Note_off_c, 2, 82, 67
4, 588928, Note_on_c, 2, 79, 67
4, 588928, Note_on_c, 2, 82, 67
4, 588992, Note_off_c, 2, 79, 67
4, 588992, Note_off_c, 2, 82, 67
4, 589056, Note_off_c, 2, 79, 67
4, 589056, Note_off_c, 2, 82, 67
4, 589056, Note_on_c, 2, 70, 67
4, 589056, Note_on_c, 2, 79, 67
4, 589120, Note_off_c, 2, 70, 67
4, 589120, Note_off_c, 2, 79, 67
4, 589184, Note_off_c, 2, 70, 67
4, 589184, Note_off_c, 2, 79, 67
4, 589184, Note_on_c, 2, 75, 67
4, 589184, Note_on_c, 2, 82, 67
4, 589248, Note_off_c, 2, 75, 67
4, 589248, Note_off_c, 2, 82, 67
4, 589312, Note_off_c, 2, 75, 67
4, 589312, Note_off_c, 2, 82, 67
4, 589312, Note_on_c, 2, 84, 67
4, 589312, Note_on_c, 2, 87, 67
4, 589376, Note_off_c, 2, 84, 67
4, 589376, Note_off_c, 2, 87, 67
4, 589440, Note_off_c, 2, 84, 67
4, 589440, Note_off_c, 2, 87, 67
4, 589440, Note_on_c, 2, 82, 67
4, 589440, Note_on_c, 2, 86, 67
4, 589504, Note_off_c, 2, 82, 67
4, 589504, Note_off_c, 2, 86, 67
4, 589568, Note_off_c, 2, 82, 67
4, 589568, Note_off_c, 2, 86, 67
4, 589568, Note_on_c, 2, 80, 67
4, 589568, Note_on_c, 2, 84, 67
4, 589632, Note_off_c, 2, 80, 67
4, 589632, Note_off_c, 2, 84, 67
4, 589696, Note_off_c, 2, 80, 67
4, 589696, Note_off_c, 2, 84, 67
4, 589696, Note_on_c, 2, 70, 67
4, 589696, Note_on_c, 2, 74, 67
4, 589728, Note_off_c, 2, 70, 67
4, 589728, Note_off_c, 2, 74, 67
4, 589760, Note_off_c, 2, 70, 67
4, 589760, Note_off_c, 2, 74, 67
4, 589760, Note_on_c, 2, 77, 67
4, 589760, Note_on_c, 2, 80, 67
4, 589792, Note_off_c, 2, 77, 67
4, 589792, Note_off_c, 2, 80, 67
4, 589824, Note_off_c, 2, 77, 67
4, 589824, Note_off_c, 2, 80, 67
4, 589824, Note_on_c, 2, 77, 67
4, 589824, Note_on_c, 2, 82, 67
4, 589888, Note_off_c, 2, 77, 67
4, 589888, Note_off_c, 2, 82, 67
4, 589952, Note_off_c, 2, 77, 67
4, 589952, Note_off_c, 2, 82, 67
4, 589952, Note_on_c, 2, 80, 67
4, 589952, Note_on_c, 2, 87, 67
4, 590016, Note_off_c, 2, 80, 67
4, 590016, Note_off_c, 2, 87, 67
4, 590080, Note_off_c, 2, 80, 67
4, 590080, Note_off_c, 2, 87, 67
4, 590080, Note_on_c, 2, 82, 67
4, 590080, Note_on_c, 2, 86, 67
4, 590144, Note_off_c, 2, 82, 67
4, 590144, Note_off_c, 2, 86, 67
4, 590208, Note_off_c, 2, 82, 67
4, 590208, Note_off_c, 2, 86, 67
4, 590208, Note_on_c, 2, 80, 67
4, 590208, Note_on_c, 2, 89, 67
4, 590272, Note_off_c, 2, 80, 67
4, 590272, Note_off_c, 2, 89, 67
4, 590336, Note_off_c, 2, 80, 67
4, 590336, Note_off_c, 2, 89, 67
4, 590336, Note_on_c, 2, 79, 67
4, 590336, Note_on_c, 2, 87, 67
4, 590400, Note_off_c, 2, 79, 67
4, 590400, Note_off_c, 2, 87, 67
4, 590464, Note_off_c, 2, 79, 67
4, 590464, Note_off_c, 2, 87, 67
4, 590464, Note_on_c, 2, 70, 67
4, 590464, Note_on_c, 2, 82, 67
4, 590528, Note_off_c, 2, 70, 67
4, 590528, Note_off_c, 2, 82, 67
4, 590592, Note_off_c, 2, 70, 67
4, 590592, Note_off_c, 2, 82, 67
4, 590592, Note_on_c, 2, 70, 67
4, 590592, Note_on_c, 2, 82, 67
4, 590656, Note_off_c, 2, 70, 67
4, 590656, Note_off_c, 2, 82, 67
4, 590720, Note_off_c, 2, 70, 67
4, 590720, Note_off_c, 2, 82, 67
4, 590720, Note_on_c, 2, 75, 67
4, 590784, Note_off_c, 2, 75, 67
4, 590784, Note_on_c, 2, 77, 67
4, 590848, Note_off_c, 2, 77, 67
4, 590848, Note_on_c, 2, 79, 67
4, 590912, Note_off_c, 2, 79, 67
4, 590976, Note_off_c, 2, 79, 67
4, 590976, Note_on_c, 2, 75, 67
4, 590976, Note_on_c, 2, 79, 67
4, 591040, Note_off_c, 2, 75, 67
4, 591040, Note_off_c, 2, 79, 67
4, 591104, Note_off_c, 2, 75, 67
4, 591104, Note_off_c, 2, 79, 67
4, 591104, Note_on_c, 2, 75, 67
4, 591104, Note_on_c, 2, 79, 67
4, 591168, Note_off_c, 2, 75, 67
4, 591168, Note_off_c, 2, 79, 67
4, 591232, Note_off_c, 2, 75, 67
4, 591232, Note_off_c, 2, 79, 67
4, 591232, Note_on_c, 2, 75, 67
4, 591296, Note_off_c, 2, 75, 67
4, 591296, Note_on_c, 2, 77, 67
4, 591360, Note_off_c, 2, 77, 67
4, 591360, Note_on_c, 2, 79, 67
4, 591424, Note_off_c, 2, 79, 67
4, 591488, Note_off_c, 2, 79, 67
4, 591488, Note_on_c, 2, 75, 67
4, 591488, Note_on_c, 2, 79, 67
4, 591552, Note_off_c, 2, 75, 67
4, 591552, Note_off_c, 2, 79, 67
4, 591616, Note_off_c, 2, 75, 67
4, 591616, Note_off_c, 2, 79, 67
4, 591616, Note_on_c, 2, 75, 67
4, 591616, Note_on_c, 2, 79, 67
4, 591680, Note_off_c, 2, 75, 67
4, 591680, Note_off_c, 2, 79, 67
4, 591744, Note_off_c, 2, 75, 67
4, 591744, Note_off_c, 2, 79, 67
4, 591744, Note_on_c, 2, 75, 67
4, 591808, Note_off_c, 2, 75, 67
4, 591808, Note_on_c, 2, 77, 67
4, 591872, Note_off_c, 2, 77, 67
4, 591872, Note_on_c, 2, 79, 67
4, 591936, Note_off_c, 2, 79, 67
4, 592000, Note_off_c, 2, 79, 67
4, 592000, Note_on_c, 2, 75, 67
4, 592000, Note_on_c, 2, 79, 67
4, 592064, Note_off_c, 2, 75, 67
4, 592064, Note_off_c, 2, 79, 67
4, 592128, Note_off_c, 2, 75, 67
4, 592128, Note_off_c, 2, 79, 67
4, 592128, Note_on_c, 2, 75, 67
4, 592128, Note_on_c, 2, 80, 67
4, 592160, Note_off_c, 2, 75, 67
4, 592160, Note_off_c, 2, 80, 67
4, 592192, Note_off_c, 2, 75, 67
4, 592192, Note_off_c, 2, 80, 67
4, 592192, Note_on_c, 2, 74, 67
4, 592224, Note_off_c, 2, 74, 67
4, 592256, Note_off_c, 2, 74, 67
4, 592256, Note_on_c, 2, 72, 67
4, 592288, Note_off_c, 2, 72, 67
4, 592320, Note_off_c, 2, 72, 67
4, 592320, Note_on_c, 2, 74, 67
4, 592320, Note_on_c, 2, 79, 67
4, 592352, Note_off_c, 2, 74, 67
4, 592352, Note_off_c, 2, 79, 67
4, 592384, Note_off_c, 2, 74, 67
4, 592384, Note_off_c, 2, 79, 67
4, 592384, Note_on_c, 2, 70, 67
4, 592384, Note_on_c, 2, 77, 67
4, 592448, Note_off_c, 2, 70, 67
4, 592448, Note_off_c, 2, 77, 67
4, 592512, Note_off_c, 2, 70, 67
4, 592512, Note_off_c, 2, 77, 67
4, 592512, Note_on_c, 2, 68, 67
4, 592512, Note_on_c, 2, 70, 67
4, 592576, Note_off_c, 2, 68, 67
4, 592576, Note_off_c, 2, 70, 67
4, 592640, Note_off_c, 2, 68, 67
4, 592640, Note_off_c, 2, 70, 67
4, 592640, Note_on_c, 2, 68, 67
4, 592640, Note_on_c, 2, 70, 67
4, 592704, Note_off_c, 2, 68, 67
4, 592704, Note_off_c, 2, 70, 67
4, 592768, Note_off_c, 2, 68, 67
4, 592768, Note_off_c, 2, 70, 67
4, 592768, Note_on_c, 2, 74, 67
4, 592832, Note_off_c, 2, 74, 67
4, 592832, Note_on_c, 2, 75, 67
4, 592896, Note_off_c, 2, 75, 67
4, 592896, Note_on_c, 2, 77, 67
4, 592960, Note_off_c, 2, 77, 67
4, 593024, Note_off_c, 2, 77, 67
4, 593024, Note_on_c, 2, 74, 67
4, 593024, Note_on_c, 2, 77, 67
4, 593088, Note_off_c, 2, 74, 67
4, 593088, Note_off_c, 2, 77, 67
4, 593152, Note_off_c, 2, 74, 67
4, 593152, Note_off_c, 2, 77, 67
4, 593152, Note_on_c, 2, 74, 67
4, 593152, Note_on_c, 2, 77, 67
4, 593216, Note_off_c, 2, 74, 67
4, 593216, Note_off_c, 2, 77, 67
4, 593280, Note_off_c, 2, 74, 67
4, 593280, Note_off_c, 2, 77, 67
4, 593280, Note_on_c, 2, 74, 67
4, 593344, Note_off_c, 2, 74, 67
4, 593344, Note_on_c, 2, 75, 67
4, 593408, Note_off_c, 2, 75, 67
4, 593408, Note_on_c, 2, 77, 67
4, 593472, Note_off_c, 2, 77, 67
4, 593536, Note_off_c, 2, 77, 67
4, 593536, Note_on_c, 2, 74, 67
4, 593536, Note_on_c, 2, 77, 67
4, 593600, Note_off_c, 2, 74, 67
4, 593600, Note_off_c, 2, 77, 67
4, 593664, Note_off_c, 2, 74, 67
4, 593664, Note_off_c, 2, 77, 67
4, 593664, Note_on_c, 2, 74, 67
4, 593664, Note_on_c, 2, 77, 67
4, 593728, Note_off_c, 2, 74, 67
4, 593728, Note_off_c, 2, 77, 67
4, 593792, Note_off_c, 2, 74, 67
4, 593792, Note_off_c, 2, 77, 67
4, 593792, Note_on_c, 2, 74, 67
4, 593856, Note_off_c, 2, 74, 67
4, 593856, Note_on_c, 2, 75, 67
4, 593920, Note_off_c, 2, 75, 67
4, 593920, Note_on_c, 2, 70, 67
4, 593920, Note_on_c, 2, 77, 67
4, 593984, Note_off_c, 2, 70, 67
4, 593984, Note_off_c, 2, 77, 67
4, 594048, Note_off_c, 2, 70, 67
4, 594048, Note_off_c, 2, 77, 67
4, 594048, Note_on_c, 2, 74, 67
4, 594048, Note_on_c, 2, 77, 67
4, 594112, Note_off_c, 2, 74, 67
4, 594112, Note_off_c, 2, 77, 67
4, 594176, Note_off_c, 2, 74, 67
4, 594176, Note_off_c, 2, 77, 67
4, 594176, Note_on_c, 2, 74, 67
4, 594176, Note_on_c, 2, 79, 67
4, 594208, Note_off_c, 2, 74, 67
4, 594208, Note_off_c, 2, 79, 67
4, 594240, Note_off_c, 2, 74, 67
4, 594240, Note_off_c, 2, 79, 67
4, 594240, Note_on_c, 2, 72, 67
4, 594240, Note_on_c, 2, 77, 67
4, 594272, Note_off_c, 2, 72, 67
4, 594272, Note_off_c, 2, 77, 67
4, 594304, Note_off_c, 2, 72, 67
4, 594304, Note_off_c, 2, 77, 67
4, 594304, Note_on_c, 2, 70, 67
4, 594304, Note_on_c, 2, 77, 67
4, 594336, Note_off_c, 2, 70, 67
4, 594336, Note_off_c, 2, 77, 67
4, 594368, Note_off_c, 2, 70, 67
4, 594368, Note_off_c, 2, 77, 67
4, 594368, Note_on_c, 2, 68, 67
4, 594368, Note_on_c, 2, 79, 67
4, 594400, Note_off_c, 2, 68, 67
4, 594400, Note_off_c, 2, 79, 67
4, 594432, Note_off_c, 2, 68, 67
4, 594432, Note_off_c, 2, 79, 67
4, 594432, Note_on_c, 2, 67, 67
4, 594432, Note_on_c, 2, 75, 67
4, 594496, Note_off_c, 2, 67, 67
4, 594496, Note_off_c, 2, 75, 67
4, 594560, Note_off_c, 2, 67, 67
4, 594560, Note_off_c, 2, 75, 67
4, 594560, Note_on_c, 2, 70, 67
4, 594624, Note_off_c, 2, 70, 67
4, 594688, Note_off_c, 2, 70, 67
4, 594688, Note_on_c, 2, 70, 67
4, 594688, Note_on_c, 2, 79, 67
4, 594752, Note_off_c, 2, 70, 67
4, 594752, Note_off_c, 2, 79, 67
4, 594816, Note_off_c, 2, 70, 67
4, 594816, Note_off_c, 2, 79, 67
4, 594816, Note_on_c, 2, 75, 67
4, 594880, Note_off_c, 2, 75, 67
4, 594880, Note_on_c, 2, 77, 67
4, 594944, Note_off_c, 2, 77, 67
4, 594944, Note_on_c, 2, 79, 67
4, 595008, Note_off_c, 2, 79, 67
4, 595072, Note_off_c, 2, 79, 67
4, 595072, Note_on_c, 2, 75, 67
4, 595072, Note_on_c, 2, 79, 67
4, 595136, Note_off_c, 2, 75, 67
4, 595136, Note_off_c, 2, 79, 67
4, 595200, Note_off_c, 2, 75, 67
4, 595200, Note_off_c, 2, 79, 67
4, 595200, Note_on_c, 2, 75, 67
4, 595200, Note_on_c, 2, 79, 67
4, 595264, Note_off_c, 2, 75, 67
4, 595264, Note_off_c, 2, 79, 67
4, 595328, Note_off_c, 2, 75, 67
4, 595328, Note_off_c, 2, 79, 67
4, 595328, Note_on_c, 2, 75, 67
4, 595392, Note_off_c, 2, 75, 67
4, 595392, Note_on_c, 2, 77, 67
4, 595456, Note_off_c, 2, 77, 67
4, 595456, Note_on_c, 2, 79, 67
4, 595520, Note_off_c, 2, 79, 67
4, 595584, Note_off_c, 2, 79, 67
4, 595584, Note_on_c, 2, 75, 67
4, 595584, Note_on_c, 2, 79, 67
4, 595648, Note_off_c, 2, 75, 67
4, 595648, Note_off_c, 2, 79, 67
4, 595712, Note_off_c, 2, 75, 67
4, 595712, Note_off_c, 2, 79, 67
4, 595712, Note_on_c, 2, 75, 67
4, 595712, Note_on_c, 2, 79, 67
4, 595776, Note_off_c, 2, 75, 67
4, 595776, Note_off_c, 2, 79, 67
4, 595840, Note_off_c, 2, 75, 67
4, 595840, Note_off_c, 2, 79, 67
4, 595840, Note_on_c, 2, 75, 67
4, 595904, Note_off_c, 2, 75, 67
4, 595904, Note_on_c, 2, 77, 67
4, 595968, Note_off_c, 2, 77, 67
4, 595968, Note_on_c, 2, 79, 67
4, 596032, Note_off_c, 2, 79, 67
4, 596096, Note_off_c, 2, 79, 67
4, 596096, Note_on_c, 2, 75, 67
4, 596096, Note_on_c, 2, 79, 67
4, 596160, Note_off_c, 2, 75, 67
4, 596160, Note_off_c, 2, 79, 67
4, 596224, Note_off_c, 2, 75, 67
4, 596224, Note_off_c, 2, 79, 67
4, 596224, Note_on_c, 2, 75, 67
4, 596224, Note_on_c, 2, 80, 67
4, 596256, Note_off_c, 2, 75, 67
4, 596256, Note_off_c, 2, 80, 67
4, 596288, Note_off_c, 2, 75, 67
4, 596288, Note_off_c, 2, 80, 67
4, 596288, Note_on_c, 2, 74, 67
4, 596352, Note_off_c, 2, 74, 67
4, 596352, Note_on_c, 2, 72, 67
4, 596416, Note_off_c, 2, 72, 67
4, 596416, Note_on_c, 2, 74, 67
4, 596416, Note_on_c, 2, 79, 67
4, 596448, Note_off_c, 2, 74, 67
4, 596448, Note_off_c, 2, 79, 67
4, 596480, Note_off_c, 2, 74, 67
4, 596480, Note_off_c, 2, 79, 67
4, 596480, Note_on_c, 2, 70, 67
4, 596480, Note_on_c, 2, 77, 67
4, 596544, Note_off_c, 2, 70, 67
4, 596544, Note_off_c, 2, 77, 67
4, 596608, Note_off_c, 2, 70, 67
4, 596608, Note_off_c, 2, 77, 67
4, 596608, Note_on_c, 2, 68, 67
4, 596608, Note_on_c, 2, 70, 67
4, 596672, Note_off_c, 2, 68, 67
4, 596672, Note_off_c, 2, 70, 67
4, 596736, Note_off_c, 2, 68, 67
4, 596736, Note_off_c, 2, 70, 67
4, 596736, Note_on_c, 2, 68, 67
4, 596736, Note_on_c, 2, 70, 67
4, 596800, Note_off_c, 2, 68, 67
4, 596800, Note_off_c, 2, 70, 67
4, 596864, Note_off_c, 2, 68, 67
4, 596864, Note_off_c, 2, 70, 67
4, 596864, Note_on_c, 2, 74, 67
4, 596928, Note_off_c, 2, 74, 67
4, 596928, Note_on_c, 2, 75, 67
4, 596992, Note_off_c, 2, 75, 67
4, 596992, Note_on_c, 2, 77, 67
4, 597120, Note_off_c, 2, 77, 67
4, 597120, Note_on_c, 2, 74, 67
4, 597120, Note_on_c, 2, 80, 67
4, 597184, Note_off_c, 2, 74, 67
4, 597184, Note_off_c, 2, 80, 67
4, 597248, Note_off_c, 2, 74, 67
4, 597248, Note_off_c, 2, 80, 67
4, 597248, Note_on_c, 2, 74, 67
4, 597248, Note_on_c, 2, 79, 67
4, 597312, Note_off_c, 2, 74, 67
4, 597312, Note_off_c, 2, 79, 67
4, 597376, Note_off_c, 2, 74, 67
4, 597376, Note_off_c, 2, 79, 67
4, 597376, Note_on_c, 2, 77, 67
4, 597440, Note_off_c, 2, 77, 67
4, 597504, Note_off_c, 2, 77, 67
4, 597504, Note_on_c, 2, 75, 67
4, 597568, Note_off_c, 2, 75, 67
4, 597632, Note_off_c, 2, 75, 67
4, 597632, Note_on_c, 2, 70, 67
4, 597632, Note_on_c, 2, 74, 67
4, 597696, Note_off_c, 2, 70, 67
4, 597696, Note_off_c, 2, 74, 67
4, 597760, Note_off_c, 2, 70, 67
4, 597760, Note_off_c, 2, 74, 67
4, 597760, Note_on_c, 2, 72, 67
4, 597760, Note_on_c, 2, 74, 67
4, 597824, Note_off_c, 2, 72, 67
4, 597824, Note_off_c, 2, 74, 67
4, 597888, Note_off_c, 2, 72, 67
4, 597888, Note_off_c, 2, 74, 67
4, 597888, Note_on_c, 2, 70, 67
4, 597888, Note_on_c, 2, 74, 67
4, 597952, Note_off_c, 2, 70, 67
4, 597952, Note_off_c, 2, 74, 67
4, 598016, Note_off_c, 2, 70, 67
4, 598016, Note_off_c, 2, 74, 67
4, 598016, Note_on_c, 2, 80, 67
4, 598016, Note_on_c, 2, 84, 67
4, 598272, Note_off_c, 2, 80, 67
4, 598272, Note_off_c, 2, 84, 67
4, 598272, Note_on_c, 2, 70, 67
4, 598272, Note_on_c, 2, 74, 67
4, 598288, Note_off_c, 2, 70, 67
4, 598288, Note_off_c, 2, 74, 67
4, 598304, Note_off_c, 2, 70, 67
4, 598304, Note_off_c, 2, 74, 67
4, 598304, Note_on_c, 2, 72, 67
4, 598304, Note_on_c, 2, 75, 67
4, 598320, Note_off_c, 2, 72, 67
4, 598320, Note_off_c, 2, 75, 67
4, 598336, Note_off_c, 2, 72, 67
4, 598336, Note_off_c, 2, 75, 67
4, 598336, Note_on_c, 2, 70, 67
4, 598336, Note_on_c, 2, 74, 67
4, 598368, Note_off_c, 2, 70, 67
4, 598368, Note_off_c, 2, 74, 67
4, 598400, Note_off_c, 2, 70, 67
4, 598400, Note_off_c, 2, 74, 67
4, 598400, Note_on_c, 2, 68, 67
4, 598400, Note_on_c, 2, 72, 67
4, 598432, Note_off_c, 2, 68, 67
4, 598432, Note_off_c, 2, 72, 67
4, 598464, Note_off_c, 2, 68, 67
4, 598464, Note_off_c, 2, 72, 67
4, 598464, Note_on_c, 2, 74, 67
4, 598464, Note_on_c, 2, 77, 67
4, 598496, Note_off_c, 2, 74, 67
4, 598496, Note_off_c, 2, 77, 67
4, 598528, Note_off_c, 2, 74, 67
4, 598528, Note_off_c, 2, 77, 67
4, 598528, Note_on_c, 2, 75, 67
4, 598528, Note_on_c, 2, 79, 67
4, 598656, Note_off_c, 2, 75, 67
4, 598656, Note_off_c, 2, 79, 67
4, 598656, Note_on_c, 2, 70, 67
4, 598720, Note_off_c, 2, 70, 67
4, 598784, Note_off_c, 2, 70, 67
4, 598784, Note_on_c, 2, 70, 67
4, 598848, Note_off_c, 2, 70, 67
4, 598912, Note_off_c, 2, 70, 67
4, 598912, Note_on_c, 2, 75, 67
4, 598912, Note_on_c, 2, 79, 67
4, 598976, Note_off_c, 2, 75, 67
4, 598976, Note_off_c, 2, 79, 67
4, 598976, Note_on_c, 2, 77, 67
4, 598976, Note_on_c, 2, 80, 67
4, 599040, Note_off_c, 2, 77, 67
4, 599040, Note_off_c, 2, 80, 67
4, 599040, Note_on_c, 2, 79, 67
4, 599040, Note_on_c, 2, 82, 67
4, 599104, Note_off_c, 2, 79, 67
4, 599104, Note_off_c, 2, 82, 67
4, 599168, Note_off_c, 2, 79, 67
4, 599168, Note_off_c, 2, 82, 67
4, 599168, Note_on_c, 2, 79, 67
4, 599168, Note_on_c, 2, 82, 67
4, 599232, Note_off_c, 2, 79, 67
4, 599232, Note_off_c, 2, 82, 67
4, 599296, Note_off_c, 2, 79, 67
4, 599296, Note_off_c, 2, 82, 67
4, 599296, Note_on_c, 2, 70, 67
4, 599296, Note_on_c, 2, 79, 67
4, 599360, Note_off_c, 2, 70, 67
4, 599360, Note_off_c, 2, 79, 67
4, 599424, Note_off_c, 2, 70, 67
4, 599424, Note_off_c, 2, 79, 67
4, 599424, Note_on_c, 2, 70, 67
4, 599424, Note_on_c, 2, 75, 67
4, 599488, Note_off_c, 2, 70, 67
4, 599488, Note_off_c, 2, 75, 67
4, 599552, Note_off_c, 2, 70, 67
4, 599552, Note_off_c, 2, 75, 67
4, 599552, Note_on_c, 2, 84, 67
4, 599552, Note_on_c, 2, 87, 67
4, 599616, Note_off_c, 2, 84, 67
4, 599616, Note_off_c, 2, 87, 67
4, 599680, Note_off_c, 2, 84, 67
4, 599680, Note_off_c, 2, 87, 67
4, 599680, Note_on_c, 2, 82, 67
4, 599680, Note_on_c, 2, 86, 67
4, 599744, Note_off_c, 2, 82, 67
4, 599744, Note_off_c, 2, 86, 67
4, 599808, Note_off_c, 2, 82, 67
4, 599808, Note_off_c, 2, 86, 67
4, 599808, Note_on_c, 2, 80, 67
4, 599808, Note_on_c, 2, 84, 67
4, 599872, Note_off_c, 2, 80, 67
4, 599872, Note_off_c, 2, 84, 67
4, 599936, Note_off_c, 2, 80, 67
4, 599936, Note_off_c, 2, 84, 67
4, 599936, Note_on_c, 2, 79, 67
4, 599936, Note_on_c, 2, 87, 67
4, 600000, Note_off_c, 2, 79, 67
4, 600000, Note_off_c, 2, 87, 67
4, 600064, Note_off_c, 2, 79, 67
4, 600064, Note_off_c, 2, 87, 67
4, 600064, Note_on_c, 2, 75, 67
4, 600064, Note_on_c, 2, 82, 67
4, 600128, Note_off_c, 2, 75, 67
4, 600128, Note_off_c, 2, 82, 67
4, 600192, Note_off_c, 2, 75, 67
4, 600192, Note_off_c, 2, 82, 67
4, 600192, Note_on_c, 2, 79, 67
4, 600256, Note_off_c, 2, 79, 67
4, 600320, Note_off_c, 2, 79, 67
4, 600320, Note_on_c, 2, 67, 67
4, 600320, Note_on_c, 2, 75, 67
4, 600384, Note_off_c, 2, 67, 67
4, 600384, Note_off_c, 2, 75, 67
4, 600448, Note_off_c, 2, 67, 67
4, 600448, Note_off_c, 2, 75, 67
4, 600448, Note_on_c, 2, 68, 67
4, 600448, Note_on_c, 2, 74, 67
4, 600480, Note_off_c, 2, 68, 67
4, 600480, Note_off_c, 2, 74, 67
4, 600512, Note_off_c, 2, 68, 67
4, 600512, Note_off_c, 2, 74, 67
4, 600512, Note_on_c, 2, 74, 67
4, 600512, Note_on_c, 2, 79, 67
4, 600544, Note_off_c, 2, 74, 67
4, 600544, Note_off_c, 2, 79, 67
4, 600576, Note_off_c, 2, 74, 67
4, 600576, Note_off_c, 2, 79, 67
4, 600576, Note_on_c, 2, 70, 67
4, 600576, Note_on_c, 2, 77, 67
4, 600640, Note_off_c, 2, 70, 67
4, 600640, Note_off_c, 2, 77, 67
4, 600704, Note_off_c, 2, 70, 67
4, 600704, Note_off_c, 2, 77, 67
4, 600704, Note_on_c, 2, 65, 67
4, 600704, Note_on_c, 2, 70, 67
4, 600768, Note_off_c, 2, 65, 67
4, 600768, Note_off_c, 2, 70, 67
4, 600832, Note_off_c, 2, 65, 67
4, 600832, Note_off_c, 2, 70, 67
4, 600832, Note_on_c, 2, 68, 67
4, 600832, Note_on_c, 2, 70, 67
4, 600896, Note_off_c, 2, 68, 67
4, 600896, Note_off_c, 2, 70, 67
4, 600960, Note_off_c, 2, 68, 67
4, 600960, Note_off_c, 2, 70, 67
4, 600960, Note_on_c, 2, 70, 67
4, 600960, Note_on_c, 2, 79, 67
4, 601024, Note_off_c, 2, 70, 67
4, 601024, Note_off_c, 2, 79, 67
4, 601024, Note_on_c, 2, 77, 67
4, 601024, Note_on_c, 2, 80, 67
4, 601088, Note_off_c, 2, 77, 67
4, 601088, Note_off_c, 2, 80, 67
4, 601088, Note_on_c, 2, 79, 67
4, 601088, Note_on_c, 2, 82, 67
4, 601152, Note_off_c, 2, 79, 67
4, 601152, Note_off_c, 2, 82, 67
4, 601216, Note_off_c, 2, 79, 67
4, 601216, Note_off_c, 2, 82, 67
4, 601216, Note_on_c, 2, 79, 67
4, 601216, Note_on_c, 2, 82, 67
4, 601280, Note_off_c, 2, 79, 67
4, 601280, Note_off_c, 2, 82, 67
4, 601344, Note_off_c, 2, 79, 67
4, 601344, Note_off_c, 2, 82, 67
4, 601344, Note_on_c, 2, 70, 67
4, 601344, Note_on_c, 2, 79, 67
4, 601408, Note_off_c, 2, 70, 67
4, 601408, Note_off_c, 2, 79, 67
4, 601472, Note_off_c, 2, 70, 67
4, 601472, Note_off_c, 2, 79, 67
4, 601472, Note_on_c, 2, 75, 67
4, 601472, Note_on_c, 2, 82, 67
4, 601536, Note_off_c, 2, 75, 67
4, 601536, Note_off_c, 2, 82, 67
4, 601600, Note_off_c, 2, 75, 67
4, 601600, Note_off_c, 2, 82, 67
4, 601600, Note_on_c, 2, 84, 67
4, 601600, Note_on_c, 2, 87, 67
4, 601664, Note_off_c, 2, 84, 67
4, 601664, Note_off_c, 2, 87, 67
4, 601728, Note_off_c, 2, 84, 67
4, 601728, Note_off_c, 2, 87, 67
4, 601728, Note_on_c, 2, 82, 67
4, 601728, Note_on_c, 2, 86, 67
4, 601792, Note_off_c, 2, 82, 67
4, 601792, Note_off_c, 2, 86, 67
4, 601856, Note_off_c, 2, 82, 67
4, 601856, Note_off_c, 2, 86, 67
4, 601856, Note_on_c, 2, 80, 67
4, 601856, Note_on_c, 2, 84, 67
4, 601920, Note_off_c, 2, 80, 67
4, 601920, Note_off_c, 2, 84, 67
4, 601984, Note_off_c, 2, 80, 67
4, 601984, Note_off_c, 2, 84, 67
4, 601984, Note_on_c, 2, 70, 67
4, 601984, Note_on_c, 2, 74, 67
4, 602016, Note_off_c, 2, 70, 67
4, 602016, Note_off_c, 2, 74, 67
4, 602048, Note_off_c, 2, 70, 67
4, 602048, Note_off_c, 2, 74, 67
4, 602048, Note_on_c, 2, 77, 67
4, 602048, Note_on_c, 2, 80, 67
4, 602080, Note_off_c, 2, 77, 67
4, 602080, Note_off_c, 2, 80, 67
4, 602112, Note_off_c, 2, 77, 67
4, 602112, Note_off_c, 2, 80, 67
4, 602112, Note_on_c, 2, 77, 67
4, 602112, Note_on_c, 2, 82, 67
4, 602176, Note_off_c, 2, 77, 67
4, 602176, Note_off_c, 2, 82, 67
4, 602240, Note_off_c, 2, 77, 67
4, 602240, Note_off_c, 2, 82, 67
4, 602240, Note_on_c, 2, 80, 67
4, 602240, Note_on_c, 2, 87, 67
4, 602304, Note_off_c, 2, 80, 67
4, 602304, Note_off_c, 2, 87, 67
4, 602368, Note_off_c, 2, 80, 67
4, 602368, Note_off_c, 2, 87, 67
4, 602368, Note_on_c, 2, 82, 67
4, 602368, Note_on_c, 2, 86, 67
4, 602432, Note_off_c, 2, 82, 67
4, 602432, Note_off_c, 2, 86, 67
4, 602496, Note_off_c, 2, 82, 67
4, 602496, Note_off_c, 2, 86, 67
4, 602496, Note_on_c, 2, 80, 67
4, 602496, Note_on_c, 2, 89, 67
4, 602560, Note_off_c, 2, 80, 67
4, 602560, Note_off_c, 2, 89, 67
4, 602624, Note_off_c, 2, 80, 67
4, 602624, Note_off_c, 2, 89, 67
4, 602624, Note_on_c, 2, 79, 67
4, 602624, Note_on_c, 2, 87, 67
4, 602688, Note_off_c, 2, 79, 67
4, 602688, Note_off_c, 2, 87, 67
4, 602752, Note_off_c, 2, 79, 67
4, 602752, Note_off_c, 2, 87, 67
4, 602752, Note_on_c, 2, 70, 67
4, 602752, Note_on_c, 2, 82, 67
4, 602816, Note_off_c, 2, 70, 67
4, 602816, Note_off_c, 2, 82, 67
4, 602880, Note_off_c, 2, 70, 67
4, 602880, Note_off_c, 2, 82, 67
4, 602880, Note_on_c, 2, 70, 67
4, 602880, Note_on_c, 2, 82, 67
4, 602944, Note_off_c, 2, 70, 67
4, 602944, Note_off_c, 2, 82, 67
4, 603008, Note_off_c, 2, 70, 67
4, 603008, Note_off_c, 2, 82, 67
4, 603008, Note_on_c, 2, 75, 67
4, 603072, Note_off_c, 2, 75, 67
4, 603072, Note_on_c, 2, 77, 67
4, 603136, Note_off_c, 2, 77, 67
4, 603136, Note_on_c, 2, 79, 67
4, 603200, Note_off_c, 2, 79, 67
4, 603264, Note_off_c, 2, 79, 67
4, 603264, Note_on_c, 2, 75, 67
4, 603264, Note_on_c, 2, 79, 67
4, 603328, Note_off_c, 2, 75, 67
4, 603328, Note_off_c, 2, 79, 67
4, 603392, Note_off_c, 2, 75, 67
4, 603392, Note_off_c, 2, 79, 67
4, 603392, Note_on_c, 2, 75, 67
4, 603392, Note_on_c, 2, 79, 67
4, 603456, Note_off_c, 2, 75, 67
4, 603456, Note_off_c, 2, 79, 67
4, 603520, Note_off_c, 2, 75, 67
4, 603520, Note_off_c, 2, 79, 67
4, 603520, Note_on_c, 2, 75, 67
4, 603584, Note_off_c, 2, 75, 67
4, 603584, Note_on_c, 2, 77, 67
4, 603648, Note_off_c, 2, 77, 67
4, 603648, Note_on_c, 2, 79, 67
4, 603712, Note_off_c, 2, 79, 67
4, 603776, Note_off_c, 2, 79, 67
4, 603776, Note_on_c, 2, 75, 67
4, 603776, Note_on_c, 2, 79, 67
4, 603840, Note_off_c, 2, 75, 67
4, 603840, Note_off_c, 2, 79, 67
4, 603904, Note_off_c, 2, 75, 67
4, 603904, Note_off_c, 2, 79, 67
4, 603904, Note_on_c, 2, 75, 67
4, 603904, Note_on_c, 2, 79, 67
4, 603968, Note_off_c, 2, 75, 67
4, 603968, Note_off_c, 2, 79, 67
4, 604032, Note_off_c, 2, 75, 67
4, 604032, Note_off_c, 2, 79, 67
4, 604032, Note_on_c, 2, 75, 67
4, 604096, Note_off_c, 2, 75, 67
4, 604096, Note_on_c, 2, 77, 67
4, 604160, Note_off_c, 2, 77, 67
4, 604160, Note_on_c, 2, 79, 67
4, 604224, Note_off_c, 2, 79, 67
4, 604288, Note_off_c, 2, 79, 67
4, 604288, Note_on_c, 2, 75, 67
4, 604288, Note_on_c, 2, 79, 67
4, 604352, Note_off_c, 2, 75, 67
4, 604352, Note_off_c, 2, 79, 67
4, 604416, Note_off_c, 2, 75, 67
4, 604416, Note_off_c, 2, 79, 67
4, 604416, Note_on_c, 2, 75, 67
4, 604416, Note_on_c, 2, 80, 67
4, 604448, Note_off_c, 2, 75, 67
4, 604448, Note_off_c, 2, 80, 67
4, 604480, Note_off_c, 2, 75, 67
4, 604480, Note_off_c, 2, 80, 67
4, 604480, Note_on_c, 2, 74, 67
4, 604512, Note_off_c, 2, 74, 67
4, 604544, Note_off_c, 2, 74, 67
4, 604544, Note_on_c, 2, 72, 67
4, 604576, Note_off_c, 2, 72, 67
4, 604608, Note_off_c, 2, 72, 67
4, 604608, Note_on_c, 2, 74, 67
4, 604608, Note_on_c, 2, 79, 67
4, 604640, Note_off_c, 2, 74, 67
4, 604640, Note_off_c, 2, 79, 67
4, 604672, Note_off_c, 2, 74, 67
4, 604672, Note_off_c, 2, 79, 67
4, 604672, Note_on_c, 2, 70, 67
4, 604672, Note_on_c, 2, 77, 67
4, 604736, Note_off_c, 2, 70, 67
4, 604736, Note_off_c, 2, 77, 67
4, 604800, Note_off_c, 2, 70, 67
4, 604800, Note_off_c, 2, 77, 67
4, 604800, Note_on_c, 2, 68, 67
4, 604800, Note_on_c, 2, 70, 67
4, 604864, Note_off_c, 2, 68, 67
4, 604864, Note_off_c, 2, 70, 67
4, 604928, Note_off_c, 2, 68, 67
4, 604928, Note_off_c, 2, 70, 67
4, 604928, Note_on_c, 2, 68, 67
4, 604928, Note_on_c, 2, 70, 67
4, 604992, Note_off_c, 2, 68, 67
4, 604992, Note_off_c, 2, 70, 67
4, 605056, Note_off_c, 2, 68, 67
4, 605056, Note_off_c, 2, 70, 67
4, 605056, Note_on_c, 2, 74, 67
4, 605120, Note_off_c, 2, 74, 67
4, 605120, Note_on_c, 2, 75, 67
4, 605184, Note_off_c, 2, 75, 67
4, 605184, Note_on_c, 2, 77, 67
4, 605248, Note_off_c, 2, 77, 67
4, 605312, Note_off_c, 2, 77, 67
4, 605312, Note_on_c, 2, 74, 67
4, 605312, Note_on_c, 2, 77, 67
4, 605376, Note_off_c, 2, 74, 67
4, 605376, Note_off_c, 2, 77, 67
4, 605440, Note_off_c, 2, 74, 67
4, 605440, Note_off_c, 2, 77, 67
4, 605440, Note_on_c, 2, 74, 67
4, 605440, Note_on_c, 2, 77, 67
4, 605504, Note_off_c, 2, 74, 67
4, 605504, Note_off_c, 2, 77, 67
4, 605568, Note_off_c, 2, 74, 67
4, 605568, Note_off_c, 2, 77, 67
4, 605568, Note_on_c, 2, 74, 67
4, 605632, Note_off_c, 2, 74, 67
4, 605632, Note_on_c, 2, 75, 67
4, 605696, Note_off_c, 2, 75, 67
4, 605696, Note_on_c, 2, 77, 67
4, 605760, Note_off_c, 2, 77, 67
4, 605824, Note_off_c, 2, 77, 67
4, 605824, Note_on_c, 2, 74, 67
4, 605824, Note_on_c, 2, 77, 67
4, 605888, Note_off_c, 2, 74, 67
4, 605888, Note_off_c, 2, 77, 67
4, 605952, Note_off_c, 2, 74, 67
4, 605952, Note_off_c, 2, 77, 67
4, 605952, Note_on_c, 2, 74, 67
4, 605952, Note_on_c, 2, 77, 67
4, 606016, Note_off_c, 2, 74, 67
4, 606016, Note_off_c, 2, 77, 67
4, 606080, Note_off_c, 2, 74, 67
4, 606080, Note_off_c, 2, 77, 67
4, 606080, Note_on_c, 2, 74, 67
4, 606144, Note_off_c, 2, 74, 67
4, 606144, Note_on_c, 2, 75, 67
4, 606208, Note_off_c, 2, 75, 67
4, 606208, Note_on_c, 2, 70, 67
4, 606208, Note_on_c, 2, 77, 67
4, 606272, Note_off_c, 2, 70, 67
4, 606272, Note_off_c, 2, 77, 67
4, 606336, Note_off_c, 2, 70, 67
4, 606336, Note_off_c, 2, 77, 67
4, 606336, Note_on_c, 2, 74, 67
4, 606336, Note_on_c, 2, 77, 67
4, 606400, Note_off_c, 2, 74, 67
4, 606400, Note_off_c, 2, 77, 67
4, 606464, Note_off_c, 2, 74, 67
4, 606464, Note_off_c, 2, 77, 67
4, 606464, Note_on_c, 2, 74, 67
4, 606464, Note_on_c, 2, 79, 67
4, 606496, Note_off_c, 2, 74, 67
4, 606496, Note_off_c, 2, 79, 67
4, 606528, Note_off_c, 2, 74, 67
4, 606528, Note_off_c, 2, 79, 67
4, 606528, Note_on_c, 2, 72, 67
4, 606528, Note_on_c, 2, 77, 67
4, 606560, Note_off_c, 2, 72, 67
4, 606560, Note_off_c, 2, 77, 67
4, 606592, Note_off_c, 2, 72, 67
4, 606592, Note_off_c, 2, 77, 67
4, 606592, Note_on_c, 2, 70, 67
4, 606592, Note_on_c, 2, 77, 67
4, 606624, Note_off_c, 2, 70, 67
4, 606624, Note_off_c, 2, 77, 67
4, 606656, Note_off_c, 2, 70, 67
4, 606656, Note_off_c, 2, 77, 67
4, 606656, Note_on_c, 2, 68, 67
4, 606656, Note_on_c, 2, 79, 67
4, 606688, Note_off_c, 2, 68, 67
4, 606688, Note_off_c, 2, 79, 67
4, 606720, Note_off_c, 2, 68, 67
4, 606720, Note_off_c, 2, 79, 67
4, 606720, Note_on_c, 2, 67, 67
4, 606720, Note_on_c, 2, 75, 67
4, 606784, Note_off_c, 2, 67, 67
4, 606784, Note_off_c, 2, 75, 67
4, 606848, Note_off_c, 2, 67, 67
4, 606848, Note_off_c, 2, 75, 67
4, 606848, Note_on_c, 2, 70, 67
4, 606912, Note_off_c, 2, 70, 67
4, 606976, Note_off_c, 2, 70, 67
4, 606976, Note_on_c, 2, 70, 67
4, 606976, Note_on_c, 2, 79, 67
4, 607040, Note_off_c, 2, 70, 67
4, 607040, Note_off_c, 2, 79, 67
4, 607104, Note_off_c, 2, 70, 67
4, 607104, Note_off_c, 2, 79, 67
4, 607104, Note_on_c, 2, 75, 67
4, 607168, Note_off_c, 2, 75, 67
4, 607168, Note_on_c, 2, 77, 67
4, 607232, Note_off_c, 2, 77, 67
4, 607232, Note_on_c, 2, 79, 67
4, 607296, Note_off_c, 2, 79, 67
4, 607360, Note_off_c, 2, 79, 67
4, 607360, Note_on_c, 2, 75, 67
4, 607360, Note_on_c, 2, 79, 67
4, 607424, Note_off_c, 2, 75, 67
4, 607424, Note_off_c, 2, 79, 67
4, 607488, Note_off_c, 2, 75, 67
4, 607488, Note_off_c, 2, 79, 67
4, 607488, Note_on_c, 2, 75, 67
4, 607488, Note_on_c, 2, 79, 67
4, 607552, Note_off_c, 2, 75, 67
4, 607552, Note_off_c, 2, 79, 67
4, 607616, Note_off_c, 2, 75, 67
4, 607616, Note_off_c, 2, 79, 67
4, 607616, Note_on_c, 2, 75, 67
4, 607680, Note_off_c, 2, 75, 67
4, 607680, Note_on_c, 2, 77, 67
4, 607744, Note_off_c, 2, 77, 67
4, 607744, Note_on_c, 2, 79, 67
4, 607808, Note_off_c, 2, 79, 67
4, 607872, Note_off_c, 2, 79, 67
4, 607872, Note_on_c, 2, 75, 67
4, 607872, Note_on_c, 2, 79, 67
4, 607936, Note_off_c, 2, 75, 67
4, 607936, Note_off_c, 2, 79, 67
4, 608000, Note_off_c, 2, 75, 67
4, 608000, Note_off_c, 2, 79, 67
4, 608000, Note_on_c, 2, 75, 67
4, 608000, Note_on_c, 2, 79, 67
4, 608064, Note_off_c, 2, 75, 67
4, 608064, Note_off_c, 2, 79, 67
4, 608128, Note_off_c, 2, 75, 67
4, 608128, Note_off_c, 2, 79, 67
4, 608128, Note_on_c, 2, 75, 67
4, 608192, Note_off_c, 2, 75, 67
4, 608192, Note_on_c, 2, 77, 67
4, 608256, Note_off_c, 2, 77, 67
4, 608256, Note_on_c, 2, 79, 67
4, 608320, Note_off_c, 2, 79, 67
4, 608384, Note_off_c, 2, 79, 67
4, 608384, Note_on_c, 2, 75, 67
4, 608384, Note_on_c, 2, 79, 67
4, 608448, Note_off_c, 2, 75, 67
4, 608448, Note_off_c, 2, 79, 67
4, 608512, Note_off_c, 2, 75, 67
4, 608512, Note_off_c, 2, 79, 67
4, 608512, Note_on_c, 2, 75, 67
4, 608512, Note_on_c, 2, 80, 67
4, 608544, Note_off_c, 2, 75, 67
4, 608544, Note_off_c, 2, 80, 67
4, 608576, Note_off_c, 2, 75, 67
4, 608576, Note_off_c, 2, 80, 67
4, 608576, Note_on_c, 2, 74, 67
4, 608640, Note_off_c, 2, 74, 67
4, 608640, Note_on_c, 2, 72, 67
4, 608704, Note_off_c, 2, 72, 67
4, 608704, Note_on_c, 2, 74, 67
4, 608704, Note_on_c, 2, 79, 67
4, 608736, Note_off_c, 2, 74, 67
4, 608736, Note_off_c, 2, 79, 67
4, 608768, Note_off_c, 2, 74, 67
4, 608768, Note_off_c, 2, 79, 67
4, 608768, Note_on_c, 2, 70, 67
4, 608768, Note_on_c, 2, 77, 67
4, 608832, Note_off_c, 2, 70, 67
4, 608832, Note_off_c, 2, 77, 67
4, 608896, Note_off_c, 2, 70, 67
4, 608896, Note_off_c, 2, 77, 67
4, 608896, Note_on_c, 2, 68, 67
4, 608896, Note_on_c, 2, 70, 67
4, 608960, Note_off_c, 2, 68, 67
4, 608960, Note_off_c, 2, 70, 67
4, 609024, Note_off_c, 2, 68, 67
4, 609024, Note_off_c, 2, 70, 67
4, 609024, Note_on_c, 2, 68, 67
4, 609024, Note_on_c, 2, 70, 67
4, 609088, Note_off_c, 2, 68, 67
4, 609088, Note_off_c, 2, 70, 67
4, 609152, Note_off_c, 2, 68, 67
4, 609152, Note_off_c, 2, 70, 67
4, 609152, Note_on_c, 2, 74, 67
4, 609216, Note_off_c, 2, 74, 67
4, 609216, Note_on_c, 2, 75, 67
4, 609280, Note_off_c, 2, 75, 67
4, 609280, Note_on_c, 2, 77, 67
4, 609408, Note_off_c, 2, 77, 67
4, 609408, Note_on_c, 2, 74, 67
4, 609408, Note_on_c, 2, 80, 67
4, 609472, Note_off_c, 2, 74, 67
4, 609472, Note_off_c, 2, 80, 67
4, 609536, Note_off_c, 2, 74, 67
4, 609536, Note_off_c, 2, 80, 67
4, 609536, Note_on_c, 2, 74, 67
4, 609536, Note_on_c, 2, 79, 67
4, 609600, Note_off_c, 2, 74, 67
4, 609600, Note_off_c, 2, 79, 67
4, 609664, Note_off_c, 2, 74, 67
4, 609664, Note_off_c, 2, 79, 67
4, 609664, Note_on_c, 2, 77, 67
4, 609728, Note_off_c, 2, 77, 67
4, 609792, Note_off_c, 2, 77, 67
4, 609792, Note_on_c, 2, 75, 67
4, 609856, Note_off_c, 2, 75, 67
4, 609920, Note_off_c, 2, 75, 67
4, 609920, Note_on_c, 2, 70, 67
4, 609920, Note_on_c, 2, 74, 67
4, 609984, Note_off_c, 2, 70, 67
4, 609984, Note_off_c, 2, 74, 67
4, 610048, Note_off_c, 2, 70, 67
4, 610048, Note_off_c, 2, 74, 67
4, 610048, Note_on_c, 2, 72, 67
4, 610048, Note_on_c, 2, 74, 67
4, 610112, Note_off_c, 2, 72, 67
4, 610112, Note_off_c, 2, 74, 67
4, 610176, Note_off_c, 2, 72, 67
4, 610176, Note_off_c, 2, 74, 67
4, 610176, Note_on_c, 2, 70, 67
4, 610176, Note_on_c, 2, 74, 67
4, 610240, Note_off_c, 2, 70, 67
4, 610240, Note_off_c, 2, 74, 67
4, 610304, Note_off_c, 2, 70, 67
4, 610304, Note_off_c, 2, 74, 67
4, 610304, Note_on_c, 2, 80, 67
4, 610304, Note_on_c, 2, 84, 67
4, 610560, Note_off_c, 2, 80, 67
4, 610560, Note_off_c, 2, 84, 67
4, 610560, Note_on_c, 2, 70, 67
4, 610560, Note_on_c, 2, 74, 67
4, 610576, Note_off_c, 2, 70, 67
4, 610576, Note_off_c, 2, 74, 67
4, 610592, Note_off_c, 2, 70, 67
4, 610592, Note_off_c, 2, 74, 67
4, 610592, Note_on_c, 2, 72, 67
4, 610592, Note_on_c, 2, 75, 67
4, 610608, Note_off_c, 2, 72, 67
4, 610608, Note_off_c, 2, 75, 67
4, 610624, Note_off_c, 2, 72, 67
4, 610624, Note_off_c, 2, 75, 67
4, 610624, Note_on_c, 2, 70, 67
4, 610624, Note_on_c, 2, 74, 67
4, 610656, Note_off_c, 2, 70, 67
4, 610656, Note_off_c, 2, 74, 67
4, 610688, Note_off_c, 2, 70, 67
4, 610688, Note_off_c, 2, 74, 67
4, 610688, Note_on_c, 2, 68, 67
4, 610688, Note_on_c, 2, 72, 67
4, 610720, Note_off_c, 2, 68, 67
4, 610720, Note_off_c, 2, 72, 67
4, 610752, Note_off_c, 2, 68, 67
4, 610752, Note_off_c, 2, 72, 67
4, 610752, Note_on_c, 2, 74, 67
4, 610752, Note_on_c, 2, 77, 67
4, 610784, Note_off_c, 2, 74, 67
4, 610784, Note_off_c, 2, 77, 67
4, 610816, Note_off_c, 2, 74, 67
4, 610816, Note_off_c, 2, 77, 67
4, 610816, Note_on_c, 2, 75, 67
4, 610816, Note_on_c, 2, 79, 67
4, 610944, Note_off_c, 2, 75, 67
4, 610944, Note_off_c, 2, 79, 67
4, 610944, Note_on_c, 2, 70, 67
4, 611008, Note_off_c, 2, 70, 67
4, 611072, Note_off_c, 2, 70, 67
4, 611072, Note_on_c, 2, 70, 67
4, 611136, Note_off_c, 2, 70, 67
4, 611200, Note_off_c, 2, 70, 67
4, 611200, Note_on_c, 2, 75, 67
4, 611200, Note_on_c, 2, 79, 67
4, 611264, Note_off_c, 2, 75, 67
4, 611264, Note_off_c, 2, 79, 67
4, 611264, Note_on_c, 2, 77, 67
4, 611264, Note_on_c, 2, 80, 67
4, 611328, Note_off_c, 2, 77, 67
4, 611328, Note_off_c, 2, 80, 67
4, 611328, Note_on_c, 2, 79, 67
4, 611328, Note_on_c, 2, 82, 67
4, 611392, Note_off_c, 2, 79, 67
4, 611392, Note_off_c, 2, 82, 67
4, 611456, Note_off_c, 2, 79, 67
4, 611456, Note_off_c, 2, 82, 67
4, 611456, Note_on_c, 2, 79, 67
4, 611456, Note_on_c, 2, 82, 67
4, 611520, Note_off_c, 2, 79, 67
4, 611520, Note_off_c, 2, 82, 67
4, 611584, Note_off_c, 2, 79, 67
4, 611584, Note_off_c, 2, 82, 67
4, 611584, Note_on_c, 2, 70, 67
4, 611584, Note_on_c, 2, 79, 67
4, 611648, Note_off_c, 2, 70, 67
4, 611648, Note_off_c, 2, 79, 67
4, 611712, Note_off_c, 2, 70, 67
4, 611712, Note_off_c, 2, 79, 67
4, 611712, Note_on_c, 2, 70, 67
4, 611712, Note_on_c, 2, 75, 67
4, 611776, Note_off_c, 2, 70, 67
4, 611776, Note_off_c, 2, 75, 67
4, 611840, Note_off_c, 2, 70, 67
4, 611840, Note_off_c, 2, 75, 67
4, 611840, Note_on_c, 2, 84, 67
4, 611840, Note_on_c, 2, 87, 67
4, 611904, Note_off_c, 2, 84, 67
4, 611904, Note_off_c, 2, 87, 67
4, 611968, Note_off_c, 2, 84, 67
4, 611968, Note_off_c, 2, 87, 67
4, 611968, Note_on_c, 2, 82, 67
4, 611968, Note_on_c, 2, 86, 67
4, 612032, Note_off_c, 2, 82, 67
4, 612032, Note_off_c, 2, 86, 67
4, 612096, Note_off_c, 2, 82, 67
4, 612096, Note_off_c, 2, 86, 67
4, 612096, Note_on_c, 2, 80, 67
4, 612096, Note_on_c, 2, 84, 67
4, 612160, Note_off_c, 2, 80, 67
4, 612160, Note_off_c, 2, 84, 67
4, 612224, Note_off_c, 2, 80, 67
4, 612224, Note_off_c, 2, 84, 67
4, 612224, Note_on_c, 2, 79, 67
4, 612224, Note_on_c, 2, 87, 67
4, 612288, Note_off_c, 2, 79, 67
4, 612288, Note_off_c, 2, 87, 67
4, 612352, Note_off_c, 2, 79, 67
4, 612352, Note_off_c, 2, 87, 67
4, 612352, Note_on_c, 2, 75, 67
4, 612352, Note_on_c, 2, 82, 67
4, 612416, Note_off_c, 2, 75, 67
4, 612416, Note_off_c, 2, 82, 67
4, 612480, Note_off_c, 2, 75, 67
4, 612480, Note_off_c, 2, 82, 67
4, 612480, Note_on_c, 2, 79, 67
4, 612544, Note_off_c, 2, 79, 67
4, 612608, Note_off_c, 2, 79, 67
4, 612608, Note_on_c, 2, 67, 67
4, 612608, Note_on_c, 2, 75, 67
4, 612672, Note_off_c, 2, 67, 67
4, 612672, Note_off_c, 2, 75, 67
4, 612736, Note_off_c, 2, 67, 67
4, 612736, Note_off_c, 2, 75, 67
4, 612736, Note_on_c, 2, 68, 67
4, 612736, Note_on_c, 2, 74, 67
4, 612768, Note_off_c, 2, 68, 67
4, 612768, Note_off_c, 2, 74, 67
4, 612800, Note_off_c, 2, 68, 67
4, 612800, Note_off_c, 2, 74, 67
4, 612800, Note_on_c, 2, 74, 67
4, 612800, Note_on_c, 2, 79, 67
4, 612832, Note_off_c, 2, 74, 67
4, 612832, Note_off_c, 2, 79, 67
4, 612864, Note_off_c, 2, 74, 67
4, 612864, Note_off_c, 2, 79, 67
4, 612864, Note_on_c, 2, 70, 67
4, 612864, Note_on_c, 2, 77, 67
4, 612928, Note_off_c, 2, 70, 67
4, 612928, Note_off_c, 2, 77, 67
4, 612992, Note_off_c, 2, 70, 67
4, 612992, Note_off_c, 2, 77, 67
4, 612992, Note_on_c, 2, 65, 67
4, 612992, Note_on_c, 2, 70, 67
4, 613056, Note_off_c, 2, 65, 67
4, 613056, Note_off_c, 2, 70, 67
4, 613120, Note_off_c, 2, 65, 67
4, 613120, Note_off_c, 2, 70, 67
4, 613120, Note_on_c, 2, 68, 67
4, 613120, Note_on_c, 2, 70, 67
4, 613184, Note_off_c, 2, 68, 67
4, 613184, Note_off_c, 2, 70, 67
4, 613248, Note_off_c, 2, 68, 67
4, 613248, Note_off_c, 2, 70, 67
4, 613248, Note_on_c, 2, 70, 67
4, 613248, Note_on_c, 2, 79, 67
4, 613312, Note_off_c, 2, 70, 67
4, 613312, Note_off_c, 2, 79, 67
4, 613312, Note_on_c, 2, 77, 67
4, 613312, Note_on_c, 2, 80, 67
4, 613376, Note_off_c, 2, 77, 67
4, 613376, Note_off_c, 2, 80, 67
4, 613376, Note_on_c, 2, 79, 67
4, 613376, Note_on_c, 2, 82, 67
4, 613440, Note_off_c, 2, 79, 67
4, 613440, Note_off_c, 2, 82, 67
4, 613504, Note_off_c, 2, 79, 67
4, 613504, Note_off_c, 2, 82, 67
4, 613504, Note_on_c, 2, 79, 67
4, 613504, Note_on_c, 2, 82, 67
4, 613568, Note_off_c, 2, 79, 67
4, 613568, Note_off_c, 2, 82, 67
4, 613632, Note_off_c, 2, 79, 67
4, 613632, Note_off_c, 2, 82, 67
4, 613632, Note_on_c, 2, 70, 67
4, 613632, Note_on_c, 2, 79, 67
4, 613696, Note_off_c, 2, 70, 67
4, 613696, Note_off_c, 2, 79, 67
4, 613760, Note_off_c, 2, 70, 67
4, 613760, Note_off_c, 2, 79, 67
4, 613760, Note_on_c, 2, 75, 67
4, 613760, Note_on_c, 2, 82, 67
4, 613824, Note_off_c, 2, 75, 67
4, 613824, Note_off_c, 2, 82, 67
4, 613888, Note_off_c, 2, 75, 67
4, 613888, Note_off_c, 2, 82, 67
4, 613888, Note_on_c, 2, 84, 67
4, 613888, Note_on_c, 2, 87, 67
4, 613952, Note_off_c, 2, 84, 67
4, 613952, Note_off_c, 2, 87, 67
4, 614016, Note_off_c, 2, 84, 67
4, 614016, Note_off_c, 2, 87, 67
4, 614016, Note_on_c, 2, 82, 67
4, 614016, Note_on_c, 2, 86, 67
4, 614080, Note_off_c, 2, 82, 67
4, 614080, Note_off_c, 2, 86, 67
4, 614144, Note_off_c, 2, 82, 67
4, 614144, Note_off_c, 2, 86, 67
4, 614144, Note_on_c, 2, 80, 67
4, 614144, Note_on_c, 2, 84, 67
4, 614208, Note_off_c, 2, 80, 67
4, 614208, Note_off_c, 2, 84, 67
4, 614272, Note_off_c, 2, 80, 67
4, 614272, Note_off_c, 2, 84, 67
4, 614272, Note_on_c, 2, 70, 67
4, 614272, Note_on_c, 2, 74, 67
4, 614304, Note_off_c, 2, 70, 67
4, 614304, Note_off_c, 2, 74, 67
4, 614336, Note_off_c, 2, 70, 67
4, 614336, Note_off_c, 2, 74, 67
4, 614336, Note_on_c, 2, 77, 67
4, 614336, Note_on_c, 2, 80, 67
4, 614368, Note_off_c, 2, 77, 67
4, 614368, Note_off_c, 2, 80, 67
4, 614400, Note_off_c, 2, 77, 67
4, 614400, Note_off_c, 2, 80, 67
4, 614400, Note_on_c, 2, 77, 67
4, 614400, Note_on_c, 2, 82, 67
4, 614464, Note_off_c, 2, 77, 67
4, 614464, Note_off_c, 2, 82, 67
4, 614528, Note_off_c, 2, 77, 67
4, 614528, Note_off_c, 2, 82, 67
4, 614528, Note_on_c, 2, 80, 67
4, 614528, Note_on_c, 2, 87, 67
4, 614592, Note_off_c, 2, 80, 67
4, 614592, Note_off_c, 2, 87, 67
4, 614656, Note_off_c, 2, 80, 67
4, 614656, Note_off_c, 2, 87, 67
4, 614656, Note_on_c, 2, 82, 67
4, 614656, Note_on_c, 2, 86, 67
4, 614720, Note_off_c, 2, 82, 67
4, 614720, Note_off_c, 2, 86, 67
4, 614784, Note_off_c, 2, 82, 67
4, 614784, Note_off_c, 2, 86, 67
4, 614784, Note_on_c, 2, 80, 67
4, 614784, Note_on_c, 2, 89, 67
4, 614848, Note_off_c, 2, 80, 67
4, 614848, Note_off_c, 2, 89, 67
4, 614912, Note_off_c, 2, 80, 67
4, 614912, Note_off_c, 2, 89, 67
4, 614912, Note_on_c, 2, 79, 67
4, 614912, Note_on_c, 2, 87, 67
4, 614976, Note_off_c, 2, 79, 67
4, 614976, Note_off_c, 2, 87, 67
4, 615040, Note_off_c, 2, 79, 67
4, 615040, Note_off_c, 2, 87, 67
4, 615040, Note_on_c, 2, 70, 67
4, 615040, Note_on_c, 2, 82, 67
4, 615104, Note_off_c, 2, 70, 67
4, 615104, Note_off_c, 2, 82, 67
4, 615168, Note_off_c, 2, 70, 67
4, 615168, Note_off_c, 2, 82, 67
4, 615168, Note_on_c, 2, 70, 67
4, 615168, Note_on_c, 2, 82, 67
4, 615232, Note_off_c, 2, 70, 67
4, 615232, Note_off_c, 2, 82, 67
4, 615296, Note_off_c, 2, 70, 67
4, 615296, Note_off_c, 2, 82, 67
4, 615296, Note_on_c, 2, 75, 67
4, 615360, Note_off_c, 2, 75, 67
4, 615360, Note_on_c, 2, 77, 67
4, 615424, Note_off_c, 2, 77, 67
4, 615424, Note_on_c, 2, 79, 67
4, 615488, Note_off_c, 2, 79, 67
4, 615552, Note_off_c, 2, 79, 67
4, 615552, Note_on_c, 2, 75, 67
4, 615552, Note_on_c, 2, 79, 67
4, 615616, Note_off_c, 2, 75, 67
4, 615616, Note_off_c, 2, 79, 67
4, 615680, Note_off_c, 2, 75, 67
4, 615680, Note_off_c, 2, 79, 67
4, 615680, Note_on_c, 2, 75, 67
4, 615680, Note_on_c, 2, 79, 67
4, 615744, Note_off_c, 2, 75, 67
4, 615744, Note_off_c, 2, 79, 67
4, 615808, Note_off_c, 2, 75, 67
4, 615808, Note_off_c, 2, 79, 67
4, 615808, Note_on_c, 2, 75, 67
4, 615872, Note_off_c, 2, 75, 67
4, 615872, Note_on_c, 2, 77, 67
4, 615936, Note_off_c, 2, 77, 67
4, 615936, Note_on_c, 2, 79, 67
4, 616000, Note_off_c, 2, 79, 67
4, 616064, Note_off_c, 2, 79, 67
4, 616064, Note_on_c, 2, 75, 67
4, 616064, Note_on_c, 2, 79, 67
4, 616128, Note_off_c, 2, 75, 67
4, 616128, Note_off_c, 2, 79, 67
4, 616192, Note_off_c, 2, 75, 67
4, 616192, Note_off_c, 2, 79, 67
4, 616192, Note_on_c, 2, 75, 67
4, 616192, Note_on_c, 2, 79, 67
4, 616256, Note_off_c, 2, 75, 67
4, 616256, Note_off_c, 2, 79, 67
4, 616320, Note_off_c, 2, 75, 67
4, 616320, Note_off_c, 2, 79, 67
4, 616320, Note_on_c, 2, 75, 67
4, 616384, Note_off_c, 2, 75, 67
4, 616384, Note_on_c, 2, 77, 67
4, 616448, Note_off_c, 2, 77, 67
4, 616448, Note_on_c, 2, 79, 67
4, 616512, Note_off_c, 2, 79, 67
4, 616576, Note_off_c, 2, 79, 67
4, 616576, Note_on_c, 2, 75, 67
4, 616576, Note_on_c, 2, 79, 67
4, 616640, Note_off_c, 2, 75, 67
4, 616640, Note_off_c, 2, 79, 67
4, 616704, Note_off_c, 2, 75, 67
4, 616704, Note_off_c, 2, 79, 67
4, 616704, Note_on_c, 2, 75, 67
4, 616704, Note_on_c, 2, 80, 67
4, 616736, Note_off_c, 2, 75, 67
4, 616736, Note_off_c, 2, 80, 67
4, 616768, Note_off_c, 2, 75, 67
4, 616768, Note_off_c, 2, 80, 67
4, 616768, Note_on_c, 2, 74, 67
4, 616800, Note_off_c, 2, 74, 67
4, 616832, Note_off_c, 2, 74, 67
4, 616832, Note_on_c, 2, 72, 67
4, 616864, Note_off_c, 2, 72, 67
4, 616896, Note_off_c, 2, 72, 67
4, 616896, Note_on_c, 2, 74, 67
4, 616896, Note_on_c, 2, 79, 67
4, 616928, Note_off_c, 2, 74, 67
4, 616928, Note_off_c, 2, 79, 67
4, 616960, Note_off_c, 2, 74, 67
4, 616960, Note_off_c, 2, 79, 67
4, 616960, Note_on_c, 2, 70, 67
4, 616960, Note_on_c, 2, 77, 67
4, 617024, Note_off_c, 2, 70, 67
4, 617024, Note_off_c, 2, 77, 67
4, 617088, Note_off_c, 2, 70, 67
4, 617088, Note_off_c, 2, 77, 67
4, 617088, Note_on_c, 2, 68, 67
4, 617088, Note_on_c, 2, 70, 67
4, 617152, Note_off_c, 2, 68, 67
4, 617152, Note_off_c, 2, 70, 67
4, 617216, Note_off_c, 2, 68, 67
4, 617216, Note_off_c, 2, 70, 67
4, 617216, Note_on_c, 2, 68, 67
4, 617216, Note_on_c, 2, 70, 67
4, 617280, Note_off_c, 2, 68, 67
4, 617280, Note_off_c, 2, 70, 67
4, 617344, Note_off_c, 2, 68, 67
4, 617344, Note_off_c, 2, 70, 67
4, 617344, Note_on_c, 2, 74, 67
4, 617408, Note_off_c, 2, 74, 67
4, 617408, Note_on_c, 2, 75, 67
4, 617472, Note_off_c, 2, 75, 67
4, 617472, Note_on_c, 2, 77, 67
4, 617536, Note_off_c, 2, 77, 67
4, 617600, Note_off_c, 2, 77, 67
4, 617600, Note_on_c, 2, 74, 67
4, 617600, Note_on_c, 2, 77, 67
4, 617664, Note_off_c, 2, 74, 67
4, 617664, Note_off_c, 2, 77, 67
4, 617728, Note_off_c, 2, 74, 67
4, 617728, Note_off_c, 2, 77, 67
4, 617728, Note_on_c, 2, 74, 67
4, 617728, Note_on_c, 2, 77, 67
4, 617792, Note_off_c, 2, 74, 67
4, 617792, Note_off_c, 2, 77, 67
4, 617856, Note_off_c, 2, 74, 67
4, 617856, Note_off_c, 2, 77, 67
4, 617856, Note_on_c, 2, 74, 67
4, 617920, Note_off_c, 2, 74, 67
4, 617920, Note_on_c, 2, 75, 67
4, 617984, Note_off_c, 2, 75, 67
4, 617984, Note_on_c, 2, 77, 67
4, 618048, Note_off_c, 2, 77, 67
4, 618112, Note_off_c, 2, 77, 67
4, 618112, Note_on_c, 2, 74, 67
4, 618112, Note_on_c, 2, 77, 67
4, 618176, Note_off_c, 2, 74, 67
4, 618176, Note_off_c, 2, 77, 67
4, 618240, Note_off_c, 2, 74, 67
4, 618240, Note_off_c, 2, 77, 67
4, 618240, Note_on_c, 2, 74, 67
4, 618240, Note_on_c, 2, 77, 67
4, 618304, Note_off_c, 2, 74, 67
4, 618304, Note_off_c, 2, 77, 67
4, 618368, Note_off_c, 2, 74, 67
4, 618368, Note_off_c, 2, 77, 67
4, 618368, Note_on_c, 2, 74, 67
4, 618432, Note_off_c, 2, 74, 67
4, 618432, Note_on_c, 2, 75, 67
4, 618496, Note_off_c, 2, 75, 67
4, 618496, Note_on_c, 2, 70, 67
4, 618496, Note_on_c, 2, 77, 67
4, 618560, Note_off_c, 2, 70, 67
4, 618560, Note_off_c, 2, 77, 67
4, 618624, Note_off_c, 2, 70, 67
4, 618624, Note_off_c, 2, 77, 67
4, 618624, Note_on_c, 2, 74, 67
4, 618624, Note_on_c, 2, 77, 67
4, 618688, Note_off_c, 2, 74, 67
4, 618688, Note_off_c, 2, 77, 67
4, 618752, Note_off_c, 2, 74, 67
4, 618752, Note_off_c, 2, 77, 67
4, 618752, Note_on_c, 2, 74, 67
4, 618752, Note_on_c, 2, 79, 67
4, 618784, Note_off_c, 2, 74, 67
4, 618784, Note_off_c, 2, 79, 67
4, 618816, Note_off_c, 2, 74, 67
4, 618816, Note_off_c, 2, 79, 67
4, 618816, Note_on_c, 2, 72, 67
4, 618816, Note_on_c, 2, 77, 67
4, 618848, Note_off_c, 2, 72, 67
4, 618848, Note_off_c, 2, 77, 67
4, 618880, Note_off_c, 2, 72, 67
4, 618880, Note_off_c, 2, 77, 67
4, 618880, Note_on_c, 2, 70, 67
4, 618880, Note_on_c, 2, 77, 67
4, 618912, Note_off_c, 2, 70, 67
4, 618912, Note_off_c, 2, 77, 67
4, 618944, Note_off_c, 2, 70, 67
4, 618944, Note_off_c, 2, 77, 67
4, 618944, Note_on_c, 2, 68, 67
4, 618944, Note_on_c, 2, 79, 67
4, 618976, Note_off_c, 2, 68, 67
4, 618976, Note_off_c, 2, 79, 67
4, 619008, Note_off_c, 2, 68, 67
4, 619008, Note_off_c, 2, 79, 67
4, 619008, Note_on_c, 2, 67, 67
4, 619008, Note_on_c, 2, 75, 67
4, 619072, Note_off_c, 2, 67, 67
4, 619072, Note_off_c, 2, 75, 67
4, 619136, Note_off_c, 2, 67, 67
4, 619136, Note_off_c, 2, 75, 67
4, 619136, Note_on_c, 2, 70, 67
4, 619200, Note_off_c, 2, 70, 67
4, 619264, Note_off_c, 2, 70, 67
4, 619264, Note_on_c, 2, 70, 67
4, 619264, Note_on_c, 2, 79, 67
4, 619328, Note_off_c, 2, 70, 67
4, 619328, Note_off_c, 2, 79, 67
4, 619392, Note_off_c, 2, 70, 67
4, 619392, Note_off_c, 2, 79, 67
4, 619392, Note_on_c, 2, 75, 67
4, 619456, Note_off_c, 2, 75, 67
4, 619456, Note_on_c, 2, 77, 67
4, 619520, Note_off_c, 2, 77, 67
4, 619520, Note_on_c, 2, 79, 67
4, 619584, Note_off_c, 2, 79, 67
4, 619648, Note_off_c, 2, 79, 67
4, 619648, Note_on_c, 2, 75, 67
4, 619648, Note_on_c, 2, 79, 67
4, 619712, Note_off_c, 2, 75, 67
4, 619712, Note_off_c, 2, 79, 67
4, 619776, Note_off_c, 2, 75, 67
4, 619776, Note_off_c, 2, 79, 67
4, 619776, Note_on_c, 2, 75, 67
4, 619776, Note_on_c, 2, 79, 67
4, 619840, Note_off_c, 2, 75, 67
4, 619840, Note_off_c, 2, 79, 67
4, 619904, Note_off_c, 2, 75, 67
4, 619904, Note_off_c, 2, 79, 67
4, 619904, Note_on_c, 2, 75, 67
4, 619968, Note_off_c, 2, 75, 67
4, 619968, Note_on_c, 2, 77, 67
4, 620032, Note_off_c, 2, 77, 67
4, 620032, Note_on_c, 2, 79, 67
4, 620096, Note_off_c, 2, 79, 67
4, 620160, Note_off_c, 2, 79, 67
4, 620160, Note_on_c, 2, 75, 67
4, 620160, Note_on_c, 2, 79, 67
4, 620224, Note_off_c, 2, 75, 67
4, 620224, Note_off_c, 2, 79, 67
4, 620288, Note_off_c, 2, 75, 67
4, 620288, Note_off_c, 2, 79, 67
4, 620288, Note_on_c, 2, 75, 67
4, 620288, Note_on_c, 2, 79, 67
4, 620352, Note_off_c, 2, 75, 67
4, 620352, Note_off_c, 2, 79, 67
4, 620416, Note_off_c, 2, 75, 67
4, 620416, Note_off_c, 2, 79, 67
4, 620416, Note_on_c, 2, 75, 67
4, 620480, Note_off_c, 2, 75, 67
4, 620480, Note_on_c, 2, 77, 67
4, 620544, Note_off_c, 2, 77, 67
4, 620544, Note_on_c, 2, 79, 67
4, 620608, Note_off_c, 2, 79, 67
4, 620672, Note_off_c, 2, 79, 67
4, 620672, Note_on_c, 2, 75, 67
4, 620672, Note_on_c, 2, 79, 67
4, 620736, Note_off_c, 2, 75, 67
4, 620736, Note_off_c, 2, 79, 67
4, 620800, Note_off_c, 2, 75, 67
4, 620800, Note_off_c, 2, 79, 67
4, 620800, Note_on_c, 2, 75, 67
4, 620800, Note_on_c, 2, 80, 67
4, 620832, Note_off_c, 2, 75, 67
4, 620832, Note_off_c, 2, 80, 67
4, 620864, Note_off_c, 2, 75, 67
4, 620864, Note_off_c, 2, 80, 67
4, 620864, Note_on_c, 2, 74, 67
4, 620928, Note_off_c, 2, 74, 67
4, 620928, Note_on_c, 2, 72, 67
4, 620992, Note_off_c, 2, 72, 67
4, 620992, Note_on_c, 2, 74, 67
4, 620992, Note_on_c, 2, 79, 67
4, 621024, Note_off_c, 2, 74, 67
4, 621024, Note_off_c, 2, 79, 67
4, 621056, Note_off_c, 2, 74, 67
4, 621056, Note_off_c, 2, 79, 67
4, 621056, Note_on_c, 2, 70, 67
4, 621056, Note_on_c, 2, 77, 67
4, 621120, Note_off_c, 2, 70, 67
4, 621120, Note_off_c, 2, 77, 67
4, 621184, Note_off_c, 2, 70, 67
4, 621184, Note_off_c, 2, 77, 67
4, 621184, Note_on_c, 2, 68, 67
4, 621184, Note_on_c, 2, 70, 67
4, 621248, Note_off_c, 2, 68, 67
4, 621248, Note_off_c, 2, 70, 67
4, 621312, Note_off_c, 2, 68, 67
4, 621312, Note_off_c, 2, 70, 67
4, 621312, Note_on_c, 2, 68, 67
4, 621312, Note_on_c, 2, 70, 67
4, 621376, Note_off_c, 2, 68, 67
4, 621376, Note_off_c, 2, 70, 67
4, 621440, Note_off_c, 2, 68, 67
4, 621440, Note_off_c, 2, 70, 67
4, 621440, Note_on_c, 2, 74, 67
4, 621504, Note_off_c, 2, 74, 67
4, 621504, Note_on_c, 2, 75, 67
4, 621568, Note_off_c, 2, 75, 67
4, 621568, Note_on_c, 2, 77, 67
4, 621696, Note_off_c, 2, 77, 67
4, 621696, Note_on_c, 2, 74, 67
4, 621696, Note_on_c, 2, 80, 67
4, 621760, Note_off_c, 2, 74, 67
4, 621760, Note_off_c, 2, 80, 67
4, 621824, Note_off_c, 2, 74, 67
4, 621824, Note_off_c, 2, 80, 67
4, 621824, Note_on_c, 2, 74, 67
4, 621824, Note_on_c, 2, 79, 67
4, 621888, Note_off_c, 2, 74, 67
4, 621888, Note_off_c, 2, 79, 67
4, 621952, Note_off_c, 2, 74, 67
4, 621952, Note_off_c, 2, 79, 67
4, 621952, Note_on_c, 2, 77, 67
4, 622016, Note_off_c, 2, 77, 67
4, 622080, Note_off_c, 2, 77, 67
4, 622080, Note_on_c, 2, 75, 67
4, 622144, Note_off_c, 2, 75, 67
4, 622208, Note_off_c, 2, 75, 67
4, 622208, Note_on_c, 2, 70, 67
4, 622208, Note_on_c, 2, 74, 67
4, 622272, Note_off_c, 2, 70, 67
4, 622272, Note_off_c, 2, 74, 67
4, 622336, Note_off_c, 2, 70, 67
4, 622336, Note_off_c, 2, 74, 67
4, 622336, Note_on_c, 2, 72, 67
4, 622336, Note_on_c, 2, 74, 67
4, 622400, Note_off_c, 2, 72, 67
4, 622400, Note_off_c, 2, 74, 67
4, 622464, Note_off_c, 2, 72, 67
4, 622464, Note_off_c, 2, 74, 67
4, 622464, Note_on_c, 2, 70, 67
4, 622464, Note_on_c, 2, 74, 67
4, 622528, Note_off_c, 2, 70, 67
4, 622528, Note_off_c, 2, 74, 67
4, 622592, Note_off_c, 2, 70, 67
4, 622592, Note_off_c, 2, 74, 67
4, 622592, Note_on_c, 2, 80, 67
4, 622592, Note_on_c, 2, 84, 67
4, 622848, Note_off_c, 2, 80, 67
4, 622848, Note_off_c, 2, 84, 67
4, 622848, Note_on_c, 2, 70, 67
4, 622848, Note_on_c, 2, 74, 67
4, 622864, Note_off_c, 2, 70, 67
4, 622864, Note_off_c, 2, 74, 67
4, 622880, Note_off_c, 2, 70, 67
4, 622880, Note_off_c, 2, 74, 67
4, 622880, Note_on_c, 2, 72, 67
4, 622880, Note_on_c, 2, 75, 67
4, 622896, Note_off_c, 2, 72, 67
4, 622896, Note_off_c, 2, 75, 67
4, 622912, Note_off_c, 2, 72, 67
4, 622912, Note_off_c, 2, 75, 67
4, 622912, Note_on_c, 2, 70, 67
4, 622912, Note_on_c, 2, 74, 67
4, 622944, Note_off_c, 2, 70, 67
4, 622944, Note_off_c, 2, 74, 67
4, 622976, Note_off_c, 2, 70, 67
4, 622976, Note_off_c, 2, 74, 67
4, 622976, Note_on_c, 2, 68, 67
4, 622976, Note_on_c, 2, 72, 67
4, 623008, Note_off_c, 2, 68, 67
4, 623008, Note_off_c, 2, 72, 67
4, 623040, Note_off_c, 2, 68, 67
4, 623040, Note_off_c, 2, 72, 67
4, 623040, Note_on_c, 2, 74, 67
4, 623040, Note_on_c, 2, 77, 67
4, 623072, Note_off_c, 2, 74, 67
4, 623072, Note_off_c, 2, 77, 67
4, 623104, Note_off_c, 2, 74, 67
4, 623104, Note_off_c, 2, 77, 67
4, 623104, Note_on_c, 2, 75, 67
4, 623104, Note_on_c, 2, 79, 67
4, 623232, Note_off_c, 2, 75, 67
4, 623232, Note_off_c, 2, 79, 67
4, 623232, Note_on_c, 2, 70, 67
4, 623296, Note_off_c, 2, 70, 67
4, 623360, Note_off_c, 2, 70, 67
4, 623360, Note_on_c, 2, 70, 67
4, 623424, Note_off_c, 2, 70, 67
4, 623488, Note_off_c, 2, 70, 67
4, 623488, Note_on_c, 2, 75, 67
4, 623488, Note_on_c, 2, 79, 67
4, 623552, Note_off_c, 2, 75, 67
4, 623552, Note_off_c, 2, 79, 67
4, 623552, Note_on_c, 2, 77, 67
4, 623552, Note_on_c, 2, 80, 67
4, 623616, Note_off_c, 2, 77, 67
4, 623616, Note_off_c, 2, 80, 67
4, 623616, Note_on_c, 2, 79, 67
4, 623616, Note_on_c, 2, 82, 67
4, 623680, Note_off_c, 2, 79, 67
4, 623680, Note_off_c, 2, 82, 67
4, 623744, Note_off_c, 2, 79, 67
4, 623744, Note_off_c, 2, 82, 67
4, 623744, Note_on_c, 2, 79, 67
4, 623744, Note_on_c, 2, 82, 67
4, 623808, Note_off_c, 2, 79, 67
4, 623808, Note_off_c, 2, 82, 67
4, 623872, Note_off_c, 2, 79, 67
4, 623872, Note_off_c, 2, 82, 67
4, 623872, Note_on_c, 2, 70, 67
4, 623872, Note_on_c, 2, 79, 67
4, 623936, Note_off_c, 2, 70, 67
4, 623936, Note_off_c, 2, 79, 67
4, 624000, Note_off_c, 2, 70, 67
4, 624000, Note_off_c, 2, 79, 67
4, 624000, Note_on_c, 2, 70, 67
4, 624000, Note_on_c, 2, 75, 67
4, 624064, Note_off_c, 2, 70, 67
4, 624064, Note_off_c, 2, 75, 67
4, 624128, Note_off_c, 2, 70, 67
4, 624128, Note_off_c, 2, 75, 67
4, 624128, Note_on_c, 2, 84, 67
4, 624128, Note_on_c, 2, 87, 67
4, 624192, Note_off_c, 2, 84, 67
4, 624192, Note_off_c, 2, 87, 67
4, 624256, Note_off_c, 2, 84, 67
4, 624256, Note_off_c, 2, 87, 67
4, 624256, Note_on_c, 2, 82, 67
4, 624256, Note_on_c, 2, 86, 67
4, 624320, Note_off_c, 2, 82, 67
4, 624320, Note_off_c, 2, 86, 67
4, 624384, Note_off_c, 2, 82, 67
4, 624384, Note_off_c, 2, 86, 67
4, 624384, Note_on_c, 2, 80, 67
4, 624384, Note_on_c, 2, 84, 67
4, 624448, Note_off_c, 2, 80, 67
4, 624448, Note_off_c, 2, 84, 67
4, 624512, Note_off_c, 2, 80, 67
4, 624512, Note_off_c, 2, 84, 67
4, 624512, Note_on_c, 2, 79, 67
4, 624512, Note_on_c, 2, 87, 67
4, 624576, Note_off_c, 2, 79, 67
4, 624576, Note_off_c, 2, 87, 67
4, 624640, Note_off_c, 2, 79, 67
4, 624640, Note_off_c, 2, 87, 67
4, 624640, Note_on_c, 2, 75, 67
4, 624640, Note_on_c, 2, 82, 67
4, 624704, Note_off_c, 2, 75, 67
4, 624704, Note_off_c, 2, 82, 67
4, 624768, Note_off_c, 2, 75, 67
4, 624768, Note_off_c, 2, 82, 67
4, 624768, Note_on_c, 2, 79, 67
4, 624832, Note_off_c, 2, 79, 67
4, 624896, Note_off_c, 2, 79, 67
4, 624896, Note_on_c, 2, 67, 67
4, 624896, Note_on_c, 2, 75, 67
4, 624960, Note_off_c, 2, 67, 67
4, 624960, Note_off_c, 2, 75, 67
4, 625024, Note_off_c, 2, 67, 67
4, 625024, Note_off_c, 2, 75, 67
4, 625024, Note_on_c, 2, 68, 67
4, 625024, Note_on_c, 2, 74, 67
4, 625056, Note_off_c, 2, 68, 67
4, 625056, Note_off_c, 2, 74, 67
4, 625088, Note_off_c, 2, 68, 67
4, 625088, Note_off_c, 2, 74, 67
4, 625088, Note_on_c, 2, 74, 67
4, 625088, Note_on_c, 2, 79, 67
4, 625120, Note_off_c, 2, 74, 67
4, 625120, Note_off_c, 2, 79, 67
4, 625152, Note_off_c, 2, 74, 67
4, 625152, Note_off_c, 2, 79, 67
4, 625152, Note_on_c, 2, 70, 67
4, 625152, Note_on_c, 2, 77, 67
4, 625216, Note_off_c, 2, 70, 67
4, 625216, Note_off_c, 2, 77, 67
4, 625280, Note_off_c, 2, 70, 67
4, 625280, Note_off_c, 2, 77, 67
4, 625280, Note_on_c, 2, 65, 67
4, 625280, Note_on_c, 2, 70, 67
4, 625344, Note_off_c, 2, 65, 67
4, 625344, Note_off_c, 2, 70, 67
4, 625408, Note_off_c, 2, 65, 67
4, 625408, Note_off_c, 2, 70, 67
4, 625408, Note_on_c, 2, 68, 67
4, 625408, Note_on_c, 2, 70, 67
4, 625472, Note_off_c, 2, 68, 67
4, 625472, Note_off_c, 2, 70, 67
4, 625536, Note_off_c, 2, 68, 67
4, 625536, Note_off_c, 2, 70, 67
4, 625536, Note_on_c, 2, 70, 67
4, 625536, Note_on_c, 2, 79, 67
4, 625600, Note_off_c, 2, 70, 67
4, 625600, Note_off_c, 2, 79, 67
4, 625600, Note_on_c, 2, 77, 67
4, 625600, Note_on_c, 2, 80, 67
4, 625664, Note_off_c, 2, 77, 67
4, 625664, Note_off_c, 2, 80, 67
4, 625664, Note_on_c, 2, 79, 67
4, 625664, Note_on_c, 2, 82, 67
4, 625728, Note_off_c, 2, 79, 67
4, 625728, Note_off_c, 2, 82, 67
4, 625792, Note_off_c, 2, 79, 67
4, 625792, Note_off_c, 2, 82, 67
4, 625792, Note_on_c, 2, 79, 67
4, 625792, Note_on_c, 2, 82, 67
4, 625856, Note_off_c, 2, 79, 67
4, 625856, Note_off_c, 2, 82, 67
4, 625920, Note_off_c, 2, 79, 67
4, 625920, Note_off_c, 2, 82, 67
4, 625920, Note_on_c, 2, 70, 67
4, 625920, Note_on_c, 2, 79, 67
4, 625984, Note_off_c, 2, 70, 67
4, 625984, Note_off_c, 2, 79, 67
4, 626048, Note_off_c, 2, 70, 67
4, 626048, Note_off_c, 2, 79, 67
4, 626048, Note_on_c, 2, 75, 67
4, 626048, Note_on_c, 2, 82, 67
4, 626112, Note_off_c, 2, 75, 67
4, 626112, Note_off_c, 2, 82, 67
4, 626176, Note_off_c, 2, 75, 67
4, 626176, Note_off_c, 2, 82, 67
4, 626176, Note_on_c, 2, 84, 67
4, 626176, Note_on_c, 2, 87, 67
4, 626240, Note_off_c, 2, 84, 67
4, 626240, Note_off_c, 2, 87, 67
4, 626304, Note_off_c, 2, 84, 67
4, 626304, Note_off_c, 2, 87, 67
4, 626304, Note_on_c, 2, 82, 67
4, 626304, Note_on_c, 2, 86, 67
4, 626368, Note_off_c, 2, 82, 67
4, 626368, Note_off_c, 2, 86, 67
4, 626432, Note_off_c, 2, 82, 67
4, 626432, Note_off_c, 2, 86, 67
4, 626432, Note_on_c, 2, 80, 67
4, 626432, Note_on_c, 2, 84, 67
4, 626496, Note_off_c, 2, 80, 67
4, 626496, Note_off_c, 2, 84, 67
4, 626560, Note_off_c, 2, 80, 67
4, 626560, Note_off_c, 2, 84, 67
4, 626560, Note_on_c, 2, 70, 67
4, 626560, Note_on_c, 2, 74, 67
4, 626592, Note_off_c, 2, 70, 67
4, 626592, Note_off_c, 2, 74, 67
4, 626624, Note_off_c, 2, 70, 67
4, 626624, Note_off_c, 2, 74, 67
4, 626624, Note_on_c, 2, 77, 67
4, 626624, Note_on_c, 2, 80, 67
4, 626656, Note_off_c, 2, 77, 67
4, 626656, Note_off_c, 2, 80, 67
4, 626688, Note_off_c, 2, 77, 67
4, 626688, Note_off_c, 2, 80, 67
4, 626688, Note_on_c, 2, 77, 67
4, 626688, Note_on_c, 2, 82, 67
4, 626752, Note_off_c, 2, 77, 67
4, 626752, Note_off_c, 2, 82, 67
4, 626816, Note_off_c, 2, 77, 67
4, 626816, Note_off_c, 2, 82, 67
4, 626816, Note_on_c, 2, 80, 67
4, 626816, Note_on_c, 2, 87, 67
4, 626880, Note_off_c, 2, 80, 67
4, 626880, Note_off_c, 2, 87, 67
4, 626944, Note_off_c, 2, 80, 67
4, 626944, Note_off_c, 2, 87, 67
4, 626944, Note_on_c, 2, 82, 67
4, 626944, Note_on_c, 2, 86, 67
4, 627008, Note_off_c, 2, 82, 67
4, 627008, Note_off_c, 2, 86, 67
4, 627072, Note_off_c, 2, 82, 67
4, 627072, Note_off_c, 2, 86, 67
4, 627072, Note_on_c, 2, 80, 67
4, 627072, Note_on_c, 2, 89, 67
4, 627136, Note_off_c, 2, 80, 67
4, 627136, Note_off_c, 2, 89, 67
4, 627200, Note_off_c, 2, 80, 67
4, 627200, Note_off_c, 2, 89, 67
4, 627200, Note_on_c, 2, 79, 67
4, 627200, Note_on_c, 2, 87, 67
4, 627264, Note_off_c, 2, 79, 67
4, 627264, Note_off_c, 2, 87, 67
4, 627328, Note_off_c, 2, 79, 67
4, 627328, Note_off_c, 2, 87, 67
4, 627328, Note_on_c, 2, 70, 67
4, 627328, Note_on_c, 2, 82, 67
4, 627392, Note_off_c, 2, 70, 67
4, 627392, Note_off_c, 2, 82, 67
4, 627456, Note_off_c, 2, 70, 67
4, 627456, Note_off_c, 2, 82, 67
4, 627456, Note_on_c, 2, 70, 67
4, 627456, Note_on_c, 2, 82, 67
4, 627520, Note_off_c, 2, 70, 67
4, 627520, Note_off_c, 2, 82, 67
4, 627584, Note_off_c, 2, 70, 67
4, 627584, Note_off_c, 2, 82, 67
4, 627584, Note_on_c, 2, 75, 67
4, 627648, Note_off_c, 2, 75, 67
4, 627648, Note_on_c, 2, 77, 67
4, 627712, Note_off_c, 2, 77, 67
4, 627712, Note_on_c, 2, 79, 67
4, 627776, Note_off_c, 2, 79, 67
4, 627840, Note_off_c, 2, 79, 67
4, 627840, Note_on_c, 2, 75, 67
4, 627840, Note_on_c, 2, 79, 67
4, 627904, Note_off_c, 2, 75, 67
4, 627904, Note_off_c, 2, 79, 67
4, 627968, Note_off_c, 2, 75, 67
4, 627968, Note_off_c, 2, 79, 67
4, 627968, Note_on_c, 2, 75, 67
4, 627968, Note_on_c, 2, 79, 67
4, 628032, Note_off_c, 2, 75, 67
4, 628032, Note_off_c, 2, 79, 67
4, 628096, Note_off_c, 2, 75, 67
4, 628096, Note_off_c, 2, 79, 67
4, 628096, Note_on_c, 2, 75, 67
4, 628160, Note_off_c, 2, 75, 67
4, 628160, Note_on_c, 2, 77, 67
4, 628224, Note_off_c, 2, 77, 67
4, 628224, Note_on_c, 2, 79, 67
4, 628288, Note_off_c, 2, 79, 67
4, 628352, Note_off_c, 2, 79, 67
4, 628352, Note_on_c, 2, 75, 67
4, 628352, Note_on_c, 2, 79, 67
4, 628416, Note_off_c, 2, 75, 67
4, 628416, Note_off_c, 2, 79, 67
4, 628480, Note_off_c, 2, 75, 67
4, 628480, Note_off_c, 2, 79, 67
4, 628480, Note_on_c, 2, 75, 67
4, 628480, Note_on_c, 2, 79, 67
4, 628544, Note_off_c, 2, 75, 67
4, 628544, Note_off_c, 2, 79, 67
4, 628608, Note_off_c, 2, 75, 67
4, 628608, Note_off_c, 2, 79, 67
4, 628608, Note_on_c, 2, 75, 67
4, 628672, Note_off_c, 2, 75, 67
4, 628672, Note_on_c, 2, 77, 67
4, 628736, Note_off_c, 2, 77, 67
4, 628736, Note_on_c, 2, 79, 67
4, 628800, Note_off_c, 2, 79, 67
4, 628864, Note_off_c, 2, 79, 67
4, 628864, Note_on_c, 2, 75, 67
4, 628864, Note_on_c, 2, 79, 67
4, 628928, Note_off_c, 2, 75, 67
4, 628928, Note_off_c, 2, 79, 67
4, 628992, Note_off_c, 2, 75, 67
4, 628992, Note_off_c, 2, 79, 67
4, 628992, Note_on_c, 2, 75, 67
4, 628992, Note_on_c, 2, 80, 67
4, 629024, Note_off_c, 2, 75, 67
4, 629024, Note_off_c, 2, 80, 67
4, 629056, Note_off_c, 2, 75, 67
4, 629056, Note_off_c, 2, 80, 67
4, 629056, Note_on_c, 2, 74, 67
4, 629088, Note_off_c, 2, 74, 67
4, 629120, Note_off_c, 2, 74, 67
4, 629120, Note_on_c, 2, 72, 67
4, 629152, Note_off_c, 2, 72, 67
4, 629184, Note_off_c, 2, 72, 67
4, 629184, Note_on_c, 2, 74, 67
4, 629184, Note_on_c, 2, 79, 67
4, 629216, Note_off_c, 2, 74, 67
4, 629216, Note_off_c, 2, 79, 67
4, 629248, Note_off_c, 2, 74, 67
4, 629248, Note_off_c, 2, 79, 67
4, 629248, Note_on_c, 2, 70, 67
4, 629248, Note_on_c, 2, 77, 67
4, 629312, Note_off_c, 2, 70, 67
4, 629312, Note_off_c, 2, 77, 67
4, 629376, Note_off_c, 2, 70, 67
4, 629376, Note_off_c, 2, 77, 67
4, 629376, Note_on_c, 2, 68, 67
4, 629376, Note_on_c, 2, 70, 67
4, 629440, Note_off_c, 2, 68, 67
4, 629440, Note_off_c, 2, 70, 67
4, 629504, Note_off_c, 2, 68, 67
4, 629504, Note_off_c, 2, 70, 67
4, 629504, Note_on_c, 2, 68, 67
4, 629504, Note_on_c, 2, 70, 67
4, 629568, Note_off_c, 2, 68, 67
4, 629568, Note_off_c, 2, 70, 67
4, 629632, Note_off_c, 2, 68, 67
4, 629632, Note_off_c, 2, 70, 67
4, 629632, Note_on_c, 2, 74, 67
4, 629696, Note_off_c, 2, 74, 67
4, 629696, Note_on_c, 2, 75, 67
4, 629760, Note_off_c, 2, 75, 67
4, 629760, Note_on_c, 2, 77, 67
4, 629824, Note_off_c, 2, 77, 67
4, 629888, Note_off_c, 2, 77, 67
4, 629888, Note_on_c, 2, 74, 67
4, 629888, Note_on_c, 2, 77, 67
4, 629952, Note_off_c, 2, 74, 67
4, 629952, Note_off_c, 2, 77, 67
4, 630016, Note_off_c, 2, 74, 67
4, 630016, Note_off_c, 2, 77, 67
4, 630016, Note_on_c, 2, 74, 67
4, 630016, Note_on_c, 2, 77, 67
4, 630080, Note_off_c, 2, 74, 67
4, 630080, Note_off_c, 2, 77, 67
4, 630144, Note_off_c, 2, 74, 67
4, 630144, Note_off_c, 2, 77, 67
4, 630144, Note_on_c, 2, 74, 67
4, 630208, Note_off_c, 2, 74, 67
4, 630208, Note_on_c, 2, 75, 67
4, 630272, Note_off_c, 2, 75, 67
4, 630272, Note_on_c, 2, 77, 67
4, 630336, Note_off_c, 2, 77, 67
4, 630400, Note_off_c, 2, 77, 67
4, 630400, Note_on_c, 2, 74, 67
4, 630400, Note_on_c, 2, 77, 67
4, 630464, Note_off_c, 2, 74, 67
4, 630464, Note_off_c, 2, 77, 67
4, 630528, Note_off_c, 2, 74, 67
4, 630528, Note_off_c, 2, 77, 67
4, 630528, Note_on_c, 2, 74, 67
4, 630528, Note_on_c, 2, 77, 67
4, 630592, Note_off_c, 2, 74, 67
4, 630592, Note_off_c, 2, 77, 67
4, 630656, Note_off_c, 2, 74, 67
4, 630656, Note_off_c, 2, 77, 67
4, 630656, Note_on_c, 2, 74, 67
4, 630720, Note_off_c, 2, 74, 67
4, 630720, Note_on_c, 2, 75, 67
4, 630784, Note_off_c, 2, 75, 67
4, 630784, Note_on_c, 2, 70, 67
4, 630784, Note_on_c, 2, 77, 67
4, 630848, Note_off_c, 2, 70, 67
4, 630848, Note_off_c, 2, 77, 67
4, 630912, Note_off_c, 2, 70, 67
4, 630912, Note_off_c, 2, 77, 67
4, 630912, Note_on_c, 2, 74, 67
4, 630912, Note_on_c, 2, 77, 67
4, 630976, Note_off_c, 2, 74, 67
4, 630976, Note_off_c, 2, 77, 67
4, 631040, Note_off_c, 2, 74, 67
4, 631040, Note_off_c, 2, 77, 67
4, 631040, Note_on_c, 2, 74, 67
4, 631040, Note_on_c, 2, 79, 67
4, 631072, Note_off_c, 2, 74, 67
4, 631072, Note_off_c, 2, 79, 67
4, 631104, Note_off_c, 2, 74, 67
4, 631104, Note_off_c, 2, 79, 67
4, 631104, Note_on_c, 2, 72, 67
4, 631104, Note_on_c, 2, 77, 67
4, 631136, Note_off_c, 2, 72, 67
4, 631136, Note_off_c, 2, 77, 67
4, 631168, Note_off_c, 2, 72, 67
4, 631168, Note_off_c, 2, 77, 67
4, 631168, Note_on_c, 2, 70, 67
4, 631168, Note_on_c, 2, 77, 67
4, 631200, Note_off_c, 2, 70, 67
4, 631200, Note_off_c, 2, 77, 67
4, 631232, Note_off_c, 2, 70, 67
4, 631232, Note_off_c, 2, 77, 67
4, 631232, Note_on_c, 2, 68, 67
4, 631232, Note_on_c, 2, 79, 67
4, 631264, Note_off_c, 2, 68, 67
4, 631264, Note_off_c, 2, 79, 67
4, 631296, Note_off_c, 2, 68, 67
4, 631296, Note_off_c, 2, 79, 67
4, 631296, Note_on_c, 2, 67, 67
4, 631296, Note_on_c, 2, 75, 67
4, 631360, Note_off_c, 2, 67, 67
4, 631360, Note_off_c, 2, 75, 67
4, 631424, Note_off_c, 2, 67, 67
4, 631424, Note_off_c, 2, 75, 67
4, 631424, Note_on_c, 2, 70, 67
4, 631488, Note_off_c, 2, 70, 67
4, 631552, Note_off_c, 2, 70, 67
4, 631552, Note_on_c, 2, 70, 67
4, 631552, Note_on_c, 2, 79, 67
4, 631616, Note_off_c, 2, 70, 67
4, 631616, Note_off_c, 2, 79, 67
4, 631680, Note_off_c, 2, 70, 67
4, 631680, Note_off_c, 2, 79, 67
4, 631680, Note_on_c, 2, 75, 67
4, 631744, Note_off_c, 2, 75, 67
4, 631744, Note_on_c, 2, 77, 67
4, 631808, Note_off_c, 2, 77, 67
4, 631808, Note_on_c, 2, 79, 67
4, 631872, Note_off_c, 2, 79, 67
4, 631936, Note_off_c, 2, 79, 67
4, 631936, Note_on_c, 2, 75, 67
4, 631936, Note_on_c, 2, 79, 67
4, 632000, Note_off_c, 2, 75, 67
4, 632000, Note_off_c, 2, 79, 67
4, 632064, Note_off_c, 2, 75, 67
4, 632064, Note_off_c, 2, 79, 67
4, 632064, Note_on_c, 2, 75, 67
4, 632064, Note_on_c, 2, 79, 67
4, 632128, Note_off_c, 2, 75, 67
4, 632128, Note_off_c, 2, 79, 67
4, 632192, Note_off_c, 2, 75, 67
4, 632192, Note_off_c, 2, 79, 67
4, 632192, Note_on_c, 2, 75, 67
4, 632256, Note_off_c, 2, 75, 67
4, 632256, Note_on_c, 2, 77, 67
4, 632320, Note_off_c, 2, 77, 67
4, 632320, Note_on_c, 2, 79, 67
4, 632384, Note_off_c, 2, 79, 67
4, 632448, Note_off_c, 2, 79, 67
4, 632448, Note_on_c, 2, 75, 67
4, 632448, Note_on_c, 2, 79, 67
4, 632512, Note_off_c, 2, 75, 67
4, 632512, Note_off_c, 2, 79, 67
4, 632576, Note_off_c, 2, 75, 67
4, 632576, Note_off_c, 2, 79, 67
4, 632576, Note_on_c, 2, 75, 67
4, 632576, Note_on_c, 2, 79, 67
4, 632640, Note_off_c, 2, 75, 67
4, 632640, Note_off_c, 2, 79, 67
4, 632704, Note_off_c, 2, 75, 67
4, 632704, Note_off_c, 2, 79, 67
4, 632704, Note_on_c, 2, 75, 67
4, 632768, Note_off_c, 2, 75, 67
4, 632768, Note_on_c, 2, 77, 67
4, 632832, Note_off_c, 2, 77, 67
4, 632832, Note_on_c, 2, 79, 67
4, 632896, Note_off_c, 2, 79, 67
4, 632960, Note_off_c, 2, 79, 67
4, 632960, Note_on_c, 2, 75, 67
4, 632960, Note_on_c, 2, 79, 67
4, 633024, Note_off_c, 2, 75, 67
4, 633024, Note_off_c, 2, 79, 67
4, 633088, Note_off_c, 2, 75, 67
4, 633088, Note_off_c, 2, 79, 67
4, 633088, Note_on_c, 2, 75, 67
4, 633088, Note_on_c, 2, 80, 67
4, 633120, Note_off_c, 2, 75, 67
4, 633120, Note_off_c, 2, 80, 67
4, 633152, Note_off_c, 2, 75, 67
4, 633152, Note_off_c, 2, 80, 67
4, 633152, Note_on_c, 2, 74, 67
4, 633216, Note_off_c, 2, 74, 67
4, 633216, Note_on_c, 2, 72, 67
4, 633280, Note_off_c, 2, 72, 67
4, 633280, Note_on_c, 2, 74, 67
4, 633280, Note_on_c, 2, 79, 67
4, 633312, Note_off_c, 2, 74, 67
4, 633312, Note_off_c, 2, 79, 67
4, 633344, Note_off_c, 2, 74, 67
4, 633344, Note_off_c, 2, 79, 67
4, 633344, Note_on_c, 2, 70, 67
4, 633344, Note_on_c, 2, 77, 67
4, 633408, Note_off_c, 2, 70, 67
4, 633408, Note_off_c, 2, 77, 67
4, 633472, Note_off_c, 2, 70, 67
4, 633472, Note_off_c, 2, 77, 67
4, 633472, Note_on_c, 2, 68, 67
4, 633472, Note_on_c, 2, 70, 67
4, 633536, Note_off_c, 2, 68, 67
4, 633536, Note_off_c, 2, 70, 67
4, 633600, Note_off_c, 2, 68, 67
4, 633600, Note_off_c, 2, 70, 67
4, 633600, Note_on_c, 2, 68, 67
4, 633600, Note_on_c, 2, 70, 67
4, 633664, Note_off_c, 2, 68, 67
4, 633664, Note_off_c, 2, 70, 67
4, 633728, Note_off_c, 2, 68, 67
4, 633728, Note_off_c, 2, 70, 67
4, 633728, Note_on_c, 2, 74, 67
4, 633792, Note_off_c, 2, 74, 67
4, 633792, Note_on_c, 2, 75, 67
4, 633856, Note_off_c, 2, 75, 67
4, 633856, Note_on_c, 2, 77, 67
4, 633984, Note_off_c, 2, 77, 67
4, 633984, Note_on_c, 2, 74, 67
4, 633984, Note_on_c, 2, 80, 67
4, 634048, Note_off_c, 2, 74, 67
4, 634048, Note_off_c, 2, 80, 67
4, 634112, Note_off_c, 2, 74, 67
4, 634112, Note_off_c, 2, 80, 67
4, 634112, Note_on_c, 2, 74, 67
4, 634112, Note_on_c, 2, 79, 67
4, 634176, Note_off_c, 2, 74, 67
4, 634176, Note_off_c, 2, 79, 67
4, 634240, Note_off_c, 2, 74, 67
4, 634240, Note_off_c, 2, 79, 67
4, 634240, Note_on_c, 2, 77, 67
4, 634304, Note_off_c, 2, 77, 67
4, 634368, Note_off_c, 2, 77, 67
4, 634368, Note_on_c, 2, 75, 67
4, 634432, Note_off_c, 2, 75, 67
4, 634496, Note_off_c, 2, 75, 67
4, 634496, Note_on_c, 2, 70, 67
4, 634496, Note_on_c, 2, 74, 67
4, 634560, Note_off_c, 2, 70, 67
4, 634560, Note_off_c, 2, 74, 67
4, 634624, Note_off_c, 2, 70, 67
4, 634624, Note_off_c, 2, 74, 67
4, 634624, Note_on_c, 2, 72, 67
4, 634624, Note_on_c, 2, 74, 67
4, 634688, Note_off_c, 2, 72, 67
4, 634688, Note_off_c, 2, 74, 67
4, 634752, Note_off_c, 2, 72, 67
4, 634752, Note_off_c, 2, 74, 67
4, 634752, Note_on_c, 2, 70, 67
4, 634752, Note_on_c, 2, 74, 67
4, 634816, Note_off_c, 2, 70, 67
4, 634816, Note_off_c, 2, 74, 67
4, 634880, Note_off_c, 2, 70, 67
4, 634880, Note_off_c, 2, 74, 67
4, 634880, Note_on_c, 2, 80, 67
4, 634880, Note_on_c, 2, 84, 67
4, 635136, Note_off_c, 2, 80, 67
4, 635136, Note_off_c, 2, 84, 67
4, 635136, Note_on_c, 2, 70, 67
4, 635136, Note_on_c, 2, 74, 67
4, 635152, Note_off_c, 2, 70, 67
4, 635152, Note_off_c, 2, 74, 67
4, 635168, Note_off_c, 2, 70, 67
4, 635168, Note_off_c, 2, 74, 67
4, 635168, Note_on_c, 2, 72, 67
4, 635168, Note_on_c, 2, 75, 67
4, 635184, Note_off_c, 2, 72, 67
4, 635184, Note_off_c, 2, 75, 67
4, 635200, Note_off_c, 2, 72, 67
4, 635200, Note_off_c, 2, 75, 67
4, 635200, Note_on_c, 2, 70, 67
4, 635200, Note_on_c, 2, 74, 67
4, 635232, Note_off_c, 2, 70, 67
4, 635232, Note_off_c, 2, 74, 67
4, 635264, Note_off_c, 2, 70, 67
4, 635264, Note_off_c, 2, 74, 67
4, 635264, Note_on_c, 2, 68, 67
4, 635264, Note_on_c, 2, 72, 67
4, 635296, Note_off_c, 2, 68, 67
4, 635296, Note_off_c, 2, 72, 67
4, 635328, Note_off_c, 2, 68, 67
4, 635328, Note_off_c, 2, 72, 67
4, 635328, Note_on_c, 2, 74, 67
4, 635328, Note_on_c, 2, 77, 67
4, 635360, Note_off_c, 2, 74, 67
4, 635360, Note_off_c, 2, 77, 67
4, 635392, Note_off_c, 2, 74, 67
4, 635392, Note_off_c, 2, 77, 67
4, 635392, Note_on_c, 2, 75, 67
4, 635392, Note_on_c, 2, 79, 67
4, 635520, Note_off_c, 2, 75, 67
4, 635520, Note_off_c, 2, 79, 67
4, 635520, Note_on_c, 2, 70, 67
4, 635584, Note_off_c, 2, 70, 67
4, 635648, Note_off_c, 2, 70, 67
4, 635648, Note_on_c, 2, 70, 67
4, 635712, Note_off_c, 2, 70, 67
4, 635776, Note_off_c, 2, 70, 67
4, 635776, Note_on_c, 2, 75, 67
4, 635776, Note_on_c, 2, 79, 67
4, 635840, Note_off_c, 2, 75, 67
4, 635840, Note_off_c, 2, 79, 67
4, 635840, Note_on_c, 2, 77, 67
4, 635840, Note_on_c, 2, 80, 67
4, 635904, Note_off_c, 2, 77, 67
4, 635904, Note_off_c, 2, 80, 67
4, 635904, Note_on_c, 2, 79, 67
4, 635904, Note_on_c, 2, 82, 67
4, 635968, Note_off_c, 2, 79, 67
4, 635968, Note_off_c, 2, 82, 67
4, 636032, Note_off_c, 2, 79, 67
4, 636032, Note_off_c, 2, 82, 67
4, 636032, Note_on_c, 2, 79, 67
4, 636032, Note_on_c, 2, 82, 67
4, 636096, Note_off_c, 2, 79, 67
4, 636096, Note_off_c, 2, 82, 67
4, 636160, Note_off_c, 2, 79, 67
4, 636160, Note_off_c, 2, 82, 67
4, 636160, Note_on_c, 2, 70, 67
4, 636160, Note_on_c, 2, 79, 67
4, 636224, Note_off_c, 2, 70, 67
4, 636224, Note_off_c, 2, 79, 67
4, 636288, Note_off_c, 2, 70, 67
4, 636288, Note_off_c, 2, 79, 67
4, 636288, Note_on_c, 2, 70, 67
4, 636288, Note_on_c, 2, 75, 67
4, 636352, Note_off_c, 2, 70, 67
4, 636352, Note_off_c, 2, 75, 67
4, 636416, Note_off_c, 2, 70, 67
4, 636416, Note_off_c, 2, 75, 67
4, 636416, Note_on_c, 2, 84, 67
4, 636416, Note_on_c, 2, 87, 67
4, 636480, Note_off_c, 2, 84, 67
4, 636480, Note_off_c, 2, 87, 67
4, 636544, Note_off_c, 2, 84, 67
4, 636544, Note_off_c, 2, 87, 67
4, 636544, Note_on_c, 2, 82, 67
4, 636544, Note_on_c, 2, 86, 67
4, 636608, Note_off_c, 2, 82, 67
4, 636608, Note_off_c, 2, 86, 67
4, 636672, Note_off_c, 2, 82, 67
4, 636672, Note_off_c, 2, 86, 67
4, 636672, Note_on_c, 2, 80, 67
4, 636672, Note_on_c, 2, 84, 67
4, 636736, Note_off_c, 2, 80, 67
4, 636736, Note_off_c, 2, 84, 67
4, 636800, Note_off_c, 2, 80, 67
4, 636800, Note_off_c, 2, 84, 67
4, 636800, Note_on_c, 2, 79, 67
4, 636800, Note_on_c, 2, 87, 67
4, 636864, Note_off_c, 2, 79, 67
4, 636864, Note_off_c, 2, 87, 67
4, 636928, Note_off_c, 2, 79, 67
4, 636928, Note_off_c, 2, 87, 67
4, 636928, Note_on_c, 2, 75, 67
4, 636928, Note_on_c, 2, 82, 67
4, 636992, Note_off_c, 2, 75, 67
4, 636992, Note_off_c, 2, 82, 67
4, 637056, Note_off_c, 2, 75, 67
4, 637056, Note_off_c, 2, 82, 67
4, 637056, Note_on_c, 2, 79, 67
4, 637120, Note_off_c, 2, 79, 67
4, 637184, Note_off_c, 2, 79, 67
4, 637184, Note_on_c, 2, 67, 67
4, 637184, Note_on_c, 2, 75, 67
4, 637248, Note_off_c, 2, 67, 67
4, 637248, Note_off_c, 2, 75, 67
4, 637312, Note_off_c, 2, 67, 67
4, 637312, Note_off_c, 2, 75, 67
4, 637312, Note_on_c, 2, 68, 67
4, 637312, Note_on_c, 2, 74, 67
4, 637344, Note_off_c, 2, 68, 67
4, 637344, Note_off_c, 2, 74, 67
4, 637376, Note_off_c, 2, 68, 67
4, 637376, Note_off_c, 2, 74, 67
4, 637376, Note_on_c, 2, 74, 67
4, 637376, Note_on_c, 2, 79, 67
4, 637408, Note_off_c, 2, 74, 67
4, 637408, Note_off_c, 2, 79, 67
4, 637440, Note_off_c, 2, 74, 67
4, 637440, Note_off_c, 2, 79, 67
4, 637440, Note_on_c, 2, 70, 67
4, 637440, Note_on_c, 2, 77, 67
4, 637504, Note_off_c, 2, 70, 67
4, 637504, Note_off_c, 2, 77, 67
4, 637568, Note_off_c, 2, 70, 67
4, 637568, Note_off_c, 2, 77, 67
4, 637568, Note_on_c, 2, 65, 67
4, 637568, Note_on_c, 2, 70, 67
4, 637632, Note_off_c, 2, 65, 67
4, 637632, Note_off_c, 2, 70, 67
4, 637696, Note_off_c, 2, 65, 67
4, 637696, Note_off_c, 2, 70, 67
4, 637696, Note_on_c, 2, 68, 67
4, 637696, Note_on_c, 2, 70, 67
4, 637760, Note_off_c, 2, 68, 67
4, 637760, Note_off_c, 2, 70, 67
4, 637824, Note_off_c, 2, 68, 67
4, 637824, Note_off_c, 2, 70, 67
4, 637824, Note_on_c, 2, 70, 67
4, 637824, Note_on_c, 2, 79, 67
4, 637888, Note_off_c, 2, 70, 67
4, 637888, Note_off_c, 2, 79, 67
4, 637888, Note_on_c, 2, 77, 67
4, 637888, Note_on_c, 2, 80, 67
4, 637952, Note_off_c, 2, 77, 67
4, 637952, Note_off_c, 2, 80, 67
4, 637952, Note_on_c, 2, 79, 67
4, 637952, Note_on_c, 2, 82, 67
4, 638016, Note_off_c, 2, 79, 67
4, 638016, Note_off_c, 2, 82, 67
4, 638080, Note_off_c, 2, 79, 67
4, 638080, Note_off_c, 2, 82, 67
4, 638080, Note_on_c, 2, 79, 67
4, 638080, Note_on_c, 2, 82, 67
4, 638144, Note_off_c, 2, 79, 67
4, 638144, Note_off_c, 2, 82, 67
4, 638208, Note_off_c, 2, 79, 67
4, 638208, Note_off_c, 2, 82, 67
4, 638208, Note_on_c, 2, 70, 67
4, 638208, Note_on_c, 2, 79, 67
4, 638272, Note_off_c, 2, 70, 67
4, 638272, Note_off_c, 2, 79, 67
4, 638336, Note_off_c, 2, 70, 67
4, 638336, Note_off_c, 2, 79, 67
4, 638336, Note_on_c, 2, 75, 67
4, 638336, Note_on_c, 2, 82, 67
4, 638400, Note_off_c, 2, 75, 67
4, 638400, Note_off_c, 2, 82, 67
4, 638464, Note_off_c, 2, 75, 67
4, 638464, Note_off_c, 2, 82, 67
4, 638464, Note_on_c, 2, 84, 67
4, 638464, Note_on_c, 2, 87, 67
4, 638528, Note_off_c, 2, 84, 67
4, 638528, Note_off_c, 2, 87, 67
4, 638592, Note_off_c, 2, 84, 67
4, 638592, Note_off_c, 2, 87, 67
4, 638592, Note_on_c, 2, 82, 67
4, 638592, Note_on_c, 2, 86, 67
4, 638656, Note_off_c, 2, 82, 67
4, 638656, Note_off_c, 2, 86, 67
4, 638720, Note_off_c, 2, 82, 67
4, 638720, Note_off_c, 2, 86, 67
4, 638720, Note_on_c, 2, 80, 67
4, 638720, Note_on_c, 2, 84, 67
4, 638784, Note_off_c, 2, 80, 67
4, 638784, Note_off_c, 2, 84, 67
4, 638848, Note_off_c, 2, 80, 67
4, 638848, Note_off_c, 2, 84, 67
4, 638848, Note_on_c, 2, 70, 67
4, 638848, Note_on_c, 2, 74, 67
4, 638880, Note_off_c, 2, 70, 67
4, 638880, Note_off_c, 2, 74, 67
4, 638912, Note_off_c, 2, 70, 67
4, 638912, Note_off_c, 2, 74, 67
4, 638912, Note_on_c, 2, 77, 67
4, 638912, Note_on_c, 2, 80, 67
4, 638944, Note_off_c, 2, 77, 67
4, 638944, Note_off_c, 2, 80, 67
4, 638976, Note_off_c, 2, 77, 67
4, 638976, Note_off_c, 2, 80, 67
4, 638976, Note_on_c, 2, 77, 67
4, 638976, Note_on_c, 2, 82, 67
4, 639040, Note_off_c, 2, 77, 67
4, 639040, Note_off_c, 2, 82, 67
4, 639104, Note_off_c, 2, 77, 67
4, 639104, Note_off_c, 2, 82, 67
4, 639104, Note_on_c, 2, 80, 67
4, 639104, Note_on_c, 2, 87, 67
4, 639168, Note_off_c, 2, 80, 67
4, 639168, Note_off_c, 2, 87, 67
4, 639232, Note_off_c, 2, 80, 67
4, 639232, Note_off_c, 2, 87, 67
4, 639232, Note_on_c, 2, 82, 67
4, 639232, Note_on_c, 2, 86, 67
4, 639296, Note_off_c, 2, 82, 67
4, 639296, Note_off_c, 2, 86, 67
4, 639360, Note_off_c, 2, 82, 67
4, 639360, Note_off_c, 2, 86, 67
4, 639360, Note_on_c, 2, 80, 67
4, 639360, Note_on_c, 2, 89, 67
4, 639424, Note_off_c, 2, 80, 67
4, 639424, Note_off_c, 2, 89, 67
4, 639488, Note_off_c, 2, 80, 67
4, 639488, Note_off_c, 2, 89, 67
4, 639488, Note_on_c, 2, 79, 67
4, 639488, Note_on_c, 2, 87, 67
4, 639552, Note_off_c, 2, 79, 67
4, 639552, Note_off_c, 2, 87, 67
4, 639616, Note_off_c, 2, 79, 67
4, 639616, Note_off_c, 2, 87, 67
4, 639616, Note_on_c, 2, 70, 67
4, 639616, Note_on_c, 2, 82, 67
4, 639680, Note_off_c, 2, 70, 67
4, 639680, Note_off_c, 2, 82, 67
4, 639744, Note_off_c, 2, 70, 67
4, 639744, Note_off_c, 2, 82, 67
4, 639744, Note_on_c, 2, 70, 67
4, 639744, Note_on_c, 2, 82, 67
4, 639808, Note_off_c, 2, 70, 67
4, 639808, Note_off_c, 2, 82, 67
4, 639872, Note_off_c, 2, 70, 67
4, 639872, Note_off_c, 2, 82, 67
4, 639872, Note_on_c, 2, 75, 67
4, 639936, Note_off_c, 2, 75, 67
4, 639936, Note_on_c, 2, 77, 67
4, 640000, Note_off_c, 2, 77, 67
4, 640000, Note_on_c, 2, 79, 67
4, 640064, Note_off_c, 2, 79, 67
4, 640128, Note_off_c, 2, 79, 67
4, 640128, Note_on_c, 2, 75, 67
4, 640128, Note_on_c, 2, 79, 67
4, 640192, Note_off_c, 2, 75, 67
4, 640192, Note_off_c, 2, 79, 67
4, 640256, Note_off_c, 2, 75, 67
4, 640256, Note_off_c, 2, 79, 67
4, 640256, Note_on_c, 2, 75, 67
4, 640256, Note_on_c, 2, 79, 67
4, 640320, Note_off_c, 2, 75, 67
4, 640320, Note_off_c, 2, 79, 67
4, 640384, Note_off_c, 2, 75, 67
4, 640384, Note_off_c, 2, 79, 67
4, 640384, Note_on_c, 2, 75, 67
4, 640448, Note_off_c, 2, 75, 67
4, 640448, Note_on_c, 2, 77, 67
4, 640512, Note_off_c, 2, 77, 67
4, 640512, Note_on_c, 2, 79, 67
4, 640576, Note_off_c, 2, 79, 67
4, 640640, Note_off_c, 2, 79, 67
4, 640640, Note_on_c, 2, 75, 67
4, 640640, Note_on_c, 2, 79, 67
4, 640704, Note_off_c, 2, 75, 67
4, 640704, Note_off_c, 2, 79, 67
4, 640768, Note_off_c, 2, 75, 67
4, 640768, Note_off_c, 2, 79, 67
4, 640768, Note_on_c, 2, 75, 67
4, 640768, Note_on_c, 2, 79, 67
4, 640832, Note_off_c, 2, 75, 67
4, 640832, Note_off_c, 2, 79, 67
4, 640896, Note_off_c, 2, 75, 67
4, 640896, Note_off_c, 2, 79, 67
4, 640896, Note_on_c, 2, 75, 67
4, 640960, Note_off_c, 2, 75, 67
4, 640960, Note_on_c, 2, 77, 67
4, 641024, Note_off_c, 2, 77, 67
4, 641024, Note_on_c, 2, 79, 67
4, 641088, Note_off_c, 2, 79, 67
4, 641152, Note_off_c, 2, 79, 67
4, 641152, Note_on_c, 2, 75, 67
4, 641152, Note_on_c, 2, 79, 67
4, 641216, Note_off_c, 2, 75, 67
4, 641216, Note_off_c, 2, 79, 67
4, 641280, Note_off_c, 2, 75, 67
4, 641280, Note_off_c, 2, 79, 67
4, 641280, Note_on_c, 2, 75, 67
4, 641280, Note_on_c, 2, 80, 67
4, 641312, Note_off_c, 2, 75, 67
4, 641312, Note_off_c, 2, 80, 67
4, 641344, Note_off_c, 2, 75, 67
4, 641344, Note_off_c, 2, 80, 67
4, 641344, Note_on_c, 2, 74, 67
4, 641376, Note_off_c, 2, 74, 67
4, 641408, Note_off_c, 2, 74, 67
4, 641408, Note_on_c, 2, 72, 67
4, 641440, Note_off_c, 2, 72, 67
4, 641472, Note_off_c, 2, 72, 67
4, 641472, Note_on_c, 2, 74, 67
4, 641472, Note_on_c, 2, 79, 67
4, 641504, Note_off_c, 2, 74, 67
4, 641504, Note_off_c, 2, 79, 67
4, 641536, Note_off_c, 2, 74, 67
4, 641536, Note_off_c, 2, 79, 67
4, 641536, Note_on_c, 2, 70, 67
4, 641536, Note_on_c, 2, 77, 67
4, 641600, Note_off_c, 2, 70, 67
4, 641600, Note_off_c, 2, 77, 67
4, 641664, Note_off_c, 2, 70, 67
4, 641664, Note_off_c, 2, 77, 67
4, 641664, Note_on_c, 2, 68, 67
4, 641664, Note_on_c, 2, 70, 67
4, 641728, Note_off_c, 2, 68, 67
4, 641728, Note_off_c, 2, 70, 67
4, 641792, Note_off_c, 2, 68, 67
4, 641792, Note_off_c, 2, 70, 67
4, 641792, Note_on_c, 2, 68, 67
4, 641792, Note_on_c, 2, 70, 67
4, 641856, Note_off_c, 2, 68, 67
4, 641856, Note_off_c, 2, 70, 67
4, 641920, Note_off_c, 2, 68, 67
4, 641920, Note_off_c, 2, 70, 67
4, 641920, Note_on_c, 2, 74, 67
4, 641984, Note_off_c, 2, 74, 67
4, 641984, Note_on_c, 2, 75, 67
4, 642048, Note_off_c, 2, 75, 67
4, 642048, Note_on_c, 2, 77, 67
4, 642112, Note_off_c, 2, 77, 67
4, 642176, Note_off_c, 2, 77, 67
4, 642176, Note_on_c, 2, 74, 67
4, 642176, Note_on_c, 2, 77, 67
4, 642240, Note_off_c, 2, 74, 67
4, 642240, Note_off_c, 2, 77, 67
4, 642304, Note_off_c, 2, 74, 67
4, 642304, Note_off_c, 2, 77, 67
4, 642304, Note_on_c, 2, 74, 67
4, 642304, Note_on_c, 2, 77, 67
4, 642368, Note_off_c, 2, 74, 67
4, 642368, Note_off_c, 2, 77, 67
4, 642432, Note_off_c, 2, 74, 67
4, 642432, Note_off_c, 2, 77, 67
4, 642432, Note_on_c, 2, 74, 67
4, 642496, Note_off_c, 2, 74, 67
4, 642496, Note_on_c, 2, 75, 67
4, 642560, Note_off_c, 2, 75, 67
4, 642560, Note_on_c, 2, 77, 67
4, 642624, Note_off_c, 2, 77, 67
4, 642688, Note_off_c, 2, 77, 67
4, 642688, Note_on_c, 2, 74, 67
4, 642688, Note_on_c, 2, 77, 67
4, 642752, Note_off_c, 2, 74, 67
4, 642752, Note_off_c, 2, 77, 67
4, 642816, Note_off_c, 2, 74, 67
4, 642816, Note_off_c, 2, 77, 67
4, 642816, Note_on_c, 2, 74, 67
4, 642816, Note_on_c, 2, 77, 67
4, 642880, Note_off_c, 2, 74, 67
4, 642880, Note_off_c, 2, 77, 67
4, 642944, Note_off_c, 2, 74, 67
4, 642944, Note_off_c, 2, 77, 67
4, 642944, Note_on_c, 2, 74, 67
4, 643008, Note_off_c, 2, 74, 67
4, 643008, Note_on_c, 2, 75, 67
4, 643072, Note_off_c, 2, 75, 67
4, 643072, Note_on_c, 2, 70, 67
4, 643072, Note_on_c, 2, 77, 67
4, 643136, Note_off_c, 2, 70, 67
4, 643136, Note_off_c, 2, 77, 67
4, 643200, Note_off_c, 2, 70, 67
4, 643200, Note_off_c, 2, 77, 67
4, 643200, Note_on_c, 2, 74, 67
4, 643200, Note_on_c, 2, 77, 67
4, 643264, Note_off_c, 2, 74, 67
4, 643264, Note_off_c, 2, 77, 67
4, 643328, Note_off_c, 2, 74, 67
4, 643328, Note_off_c, 2, 77, 67
4, 643328, Note_on_c, 2, 74, 67
4, 643328, Note_on_c, 2, 79, 67
4, 643360, Note_off_c, 2, 74, 67
4, 643360, Note_off_c, 2, 79, 67
4, 643392, Note_off_c, 2, 74, 67
4, 643392, Note_off_c, 2, 79, 67
4, 643392, Note_on_c, 2, 72, 67
4, 643392, Note_on_c, 2, 77, 67
4, 643424, Note_off_c, 2, 72, 67
4, 643424, Note_off_c, 2, 77, 67
4, 643456, Note_off_c, 2, 72, 67
4, 643456, Note_off_c, 2, 77, 67
4, 643456, Note_on_c, 2, 70, 67
4, 643456, Note_on_c, 2, 77, 67
4, 643488, Note_off_c, 2, 70, 67
4, 643488, Note_off_c, 2, 77, 67
4, 643520, Note_off_c, 2, 70, 67
4, 643520, Note_off_c, 2, 77, 67
4, 643520, Note_on_c, 2, 68, 67
4, 643520, Note_on_c, 2, 79, 67
4, 643552, Note_off_c, 2, 68, 67
4, 643552, Note_off_c, 2, 79, 67
4, 643584, Note_off_c, 2, 68, 67
4, 643584, Note_off_c, 2, 79, 67
4, 643584, Note_on_c, 2, 67, 67
4, 643584, Note_on_c, 2, 75, 67
4, 643648, Note_off_c, 2, 67, 67
4, 643648, Note_off_c, 2, 75, 67
4, 643712, Note_off_c, 2, 67, 67
4, 643712, Note_off_c, 2, 75, 67
4, 643712, Note_on_c, 2, 70, 67
4, 643776, Note_off_c, 2, 70, 67
4, 643840, Note_off_c, 2, 70, 67
4, 643840, Note_on_c, 2, 70, 67
4, 643840, Note_on_c, 2, 79, 67
4, 643904, Note_off_c, 2, 70, 67
4, 643904, Note_off_c, 2, 79, 67
4, 643968, Note_off_c, 2, 70, 67
4, 643968, Note_off_c, 2, 79, 67
4, 643968, Note_on_c, 2, 75, 67
4, 644032, Note_off_c, 2, 75, 67
4, 644032, Note_on_c, 2, 77, 67
4, 644096, Note_off_c, 2, 77, 67
4, 644096, Note_on_c, 2, 79, 67
4, 644160, Note_off_c, 2, 79, 67
4, 644224, Note_off_c, 2, 79, 67
4, 644224, Note_on_c, 2, 75, 67
4, 644224, Note_on_c, 2, 79, 67
4, 644288, Note_off_c, 2, 75, 67
4, 644288, Note_off_c, 2, 79, 67
4, 644352, Note_off_c, 2, 75, 67
4, 644352, Note_off_c, 2, 79, 67
4, 644352, Note_on_c, 2, 75, 67
4, 644352, Note_on_c, 2, 79, 67
4, 644416, Note_off_c, 2, 75, 67
4, 644416, Note_off_c, 2, 79, 67
4, 644480, Note_off_c, 2, 75, 67
4, 644480, Note_off_c, 2, 79, 67
4, 644480, Note_on_c, 2, 75, 67
4, 644544, Note_off_c, 2, 75, 67
4, 644544, Note_on_c, 2, 77, 67
4, 644608, Note_off_c, 2, 77, 67
4, 644608, Note_on_c, 2, 79, 67
4, 644672, Note_off_c, 2, 79, 67
4, 644736, Note_off_c, 2, 79, 67
4, 644736, Note_on_c, 2, 75, 67
4, 644736, Note_on_c, 2, 79, 67
4, 644800, Note_off_c, 2, 75, 67
4, 644800, Note_off_c, 2, 79, 67
4, 644864, Note_off_c, 2, 75, 67
4, 644864, Note_off_c, 2, 79, 67
4, 644864, Note_on_c, 2, 75, 67
4, 644864, Note_on_c, 2, 79, 67
4, 644928, Note_off_c, 2, 75, 67
4, 644928, Note_off_c, 2, 79, 67
4, 644992, Note_off_c, 2, 75, 67
4, 644992, Note_off_c, 2, 79, 67
4, 644992, Note_on_c, 2, 75, 67
4, 645056, Note_off_c, 2, 75, 67
4, 645056, Note_on_c, 2, 77, 67
4, 645120, Note_off_c, 2, 77, 67
4, 645120, Note_on_c, 2, 79, 67
4, 645184, Note_off_c, 2, 79, 67
4, 645248, Note_off_c, 2, 79, 67
4, 645248, Note_on_c, 2, 75, 67
4, 645248, Note_on_c, 2, 79, 67
4, 645312, Note_off_c, 2, 75, 67
4, 645312, Note_off_c, 2, 79, 67
4, 645376, Note_off_c, 2, 75, 67
4, 645376, Note_off_c, 2, 79, 67
4, 645376, Note_on_c, 2, 75, 67
4, 645376, Note_on_c, 2, 80, 67
4, 645408, Note_off_c, 2, 75, 67
4, 645408, Note_off_c, 2, 80, 67
4, 645440, Note_off_c, 2, 75, 67
4, 645440, Note_off_c, 2, 80, 67
4, 645440, Note_on_c, 2, 74, 67
4, 645504, Note_off_c, 2, 74, 67
4, 645504, Note_on_c, 2, 72, 67
4, 645568, Note_off_c, 2, 72, 67
4, 645568, Note_on_c, 2, 74, 67
4, 645568, Note_on_c, 2, 79, 67
4, 645600, Note_off_c, 2, 74, 67
4, 645600, Note_off_c, 2, 79, 67
4, 645632, Note_off_c, 2, 74, 67
4, 645632, Note_off_c, 2, 79, 67
4, 645632, Note_on_c, 2, 70, 67
4, 645632, Note_on_c, 2, 77, 67
4, 645696, Note_off_c, 2, 70, 67
4, 645696, Note_off_c, 2, 77, 67
4, 645760, Note_off_c, 2, 70, 67
4, 645760, Note_off_c, 2, 77, 67
4, 645760, Note_on_c, 2, 68, 67
4, 645760, Note_on_c, 2, 70, 67
4, 645824, Note_off_c, 2, 68, 67
4, 645824, Note_off_c, 2, 70, 67
4, 645888, Note_off_c, 2, 68, 67
4, 645888, Note_off_c, 2, 70, 67
4, 645888, Note_on_c, 2, 68, 67
4, 645888, Note_on_c, 2, 70, 67
4, 645952, Note_off_c, 2, 68, 67
4, 645952, Note_off_c, 2, 70, 67
4, 646016, Note_off_c, 2, 68, 67
4, 646016, Note_off_c, 2, 70, 67
4, 646016, Note_on_c, 2, 74, 67
4, 646080, Note_off_c, 2, 74, 67
4, 646080, Note_on_c, 2, 75, 67
4, 646144, Note_off_c, 2, 75, 67
4, 646144, Note_on_c, 2, 77, 67
4, 646272, Note_off_c, 2, 77, 67
4, 646272, Note_on_c, 2, 74, 67
4, 646272, Note_on_c, 2, 80, 67
4, 646336, Note_off_c, 2, 74, 67
4, 646336, Note_off_c, 2, 80, 67
4, 646400, Note_off_c, 2, 74, 67
4, 646400, Note_off_c, 2, 80, 67
4, 646400, Note_on_c, 2, 74, 67
4, 646400, Note_on_c, 2, 79, 67
4, 646464, Note_off_c, 2, 74, 67
4, 646464, Note_off_c, 2, 79, 67
4, 646528, Note_off_c, 2, 74, 67
4, 646528, Note_off_c, 2, 79, 67
4, 646528, Note_on_c, 2, 77, 67
4, 646592, Note_off_c, 2, 77, 67
4, 646656, Note_off_c, 2, 77, 67
4, 646656, Note_on_c, 2, 75, 67
4, 646720, Note_off_c, 2, 75, 67
4, 646784, Note_off_c, 2, 75, 67
4, 646784, Note_on_c, 2, 70, 67
4, 646784, Note_on_c, 2, 74, 67
4, 646848, Note_off_c, 2, 70, 67
4, 646848, Note_off_c, 2, 74, 67
4, 646912, Note_off_c, 2, 70, 67
4, 646912, Note_off_c, 2, 74, 67
4, 646912, Note_on_c, 2, 72, 67
4, 646912, Note_on_c, 2, 74, 67
4, 646976, Note_off_c, 2, 72, 67
4, 646976, Note_off_c, 2, 74, 67
4, 647040, Note_off_c, 2, 72, 67
4, 647040, Note_off_c, 2, 74, 67
4, 647040, Note_on_c, 2, 70, 67
4, 647040, Note_on_c, 2, 74, 67
4, 647104, Note_off_c, 2, 70, 67
4, 647104, Note_off_c, 2, 74, 67
4, 647168, Note_off_c, 2, 70, 67
4, 647168, Note_off_c, 2, 74, 67
4, 647168, Note_on_c, 2, 80, 67
4, 647168, Note_on_c, 2, 84, 67
4, 647424, Note_off_c, 2, 80, 67
4, 647424, Note_off_c, 2, 84, 67
4, 647424, Note_on_c, 2, 70, 67
4, 647424, Note_on_c, 2, 74, 67
4, 647440, Note_off_c, 2, 70, 67
4, 647440, Note_off_c, 2, 74, 67
4, 647456, Note_off_c, 2, 70, 67
4, 647456, Note_off_c, 2, 74, 67
4, 647456, Note_on_c, 2, 72, 67
4, 647456, Note_on_c, 2, 75, 67
4, 647472, Note_off_c, 2, 72, 67
4, 647472, Note_off_c, 2, 75, 67
4, 647488, Note_off_c, 2, 72, 67
4, 647488, Note_off_c, 2, 75, 67
4, 647488, Note_on_c, 2, 70, 67
4, 647488, Note_on_c, 2, 74, 67
4, 647520, Note_off_c, 2, 70, 67
4, 647520, Note_off_c, 2, 74, 67
4, 647552, Note_off_c, 2, 70, 67
4, 647552, Note_off_c, 2, 74, 67
4, 647552, Note_on_c, 2, 68, 67
4, 647552, Note_on_c, 2, 72, 67
4, 647584, Note_off_c, 2, 68, 67
4, 647584, Note_off_c, 2, 72, 67
4, 647616, Note_off_c, 2, 68, 67
4, 647616, Note_off_c, 2, 72, 67
4, 647616, Note_on_c, 2, 74, 67
4, 647616, Note_on_c, 2, 77, 67
4, 647648, Note_off_c, 2, 74, 67
4, 647648, Note_off_c, 2, 77, 67
4, 647680, Note_off_c, 2, 74, 67
4, 647680, Note_off_c, 2, 77, 67
4, 647680, Note_on_c, 2, 75, 67
4, 647680, Note_on_c, 2, 79, 67
4, 647808, Note_off_c, 2, 75, 67
4, 647808, Note_off_c, 2, 79, 67
4, 647808, Note_on_c, 2, 70, 67
4, 647872, Note_off_c, 2, 70, 67
4, 647936, Note_off_c, 2, 70, 67
4, 647936, Note_on_c, 2, 70, 67
4, 648000, Note_off_c, 2, 70, 67
4, 648064, Note_off_c, 2, 70, 67
4, 648064, Note_on_c, 2, 75, 67
4, 648064, Note_on_c, 2, 79, 67
4, 648128, Note_off_c, 2, 75, 67
4, 648128, Note_off_c, 2, 79, 67
4, 648128, Note_on_c, 2, 77, 67
4, 648128, Note_on_c, 2, 80, 67
4, 648192, Note_off_c, 2, 77, 67
4, 648192, Note_off_c, 2, 80, 67
4, 648192, Note_on_c, 2, 79, 67
4, 648192, Note_on_c, 2, 82, 67
4, 648256, Note_off_c, 2, 79, 67
4, 648256, Note_off_c, 2, 82, 67
4, 648320, Note_off_c, 2, 79, 67
4, 648320, Note_off_c, 2, 82, 67
4, 648320, Note_on_c, 2, 79, 67
4, 648320, Note_on_c, 2, 82, 67
4, 648384, Note_off_c, 2, 79, 67
4, 648384, Note_off_c, 2, 82, 67
4, 648448, Note_off_c, 2, 79, 67
4, 648448, Note_off_c, 2, 82, 67
4, 648448, Note_on_c, 2, 70, 67
4, 648448, Note_on_c, 2, 79, 67
4, 648512, Note_off_c, 2, 70, 67
4, 648512, Note_off_c, 2, 79, 67
4, 648576, Note_off_c, 2, 70, 67
4, 648576, Note_off_c, 2, 79, 67
4, 648576, Note_on_c, 2, 70, 67
4, 648576, Note_on_c, 2, 75, 67
4, 648640, Note_off_c, 2, 70, 67
4, 648640, Note_off_c, 2, 75, 67
4, 648704, Note_off_c, 2, 70, 67
4, 648704, Note_off_c, 2, 75, 67
4, 648704, Note_on_c, 2, 84, 67
4, 648704, Note_on_c, 2, 87, 67
4, 648768, Note_off_c, 2, 84, 67
4, 648768, Note_off_c, 2, 87, 67
4, 648832, Note_off_c, 2, 84, 67
4, 648832, Note_off_c, 2, 87, 67
4, 648832, Note_on_c, 2, 82, 67
4, 648832, Note_on_c, 2, 86, 67
4, 648896, Note_off_c, 2, 82, 67
4, 648896, Note_off_c, 2, 86, 67
4, 648960, Note_off_c, 2, 82, 67
4, 648960, Note_off_c, 2, 86, 67
4, 648960, Note_on_c, 2, 80, 67
4, 648960, Note_on_c, 2, 84, 67
4, 649024, Note_off_c, 2, 80, 67
4, 649024, Note_off_c, 2, 84, 67
4, 649088, Note_off_c, 2, 80, 67
4, 649088, Note_off_c, 2, 84, 67
4, 649088, Note_on_c, 2, 79, 67
4, 649088, Note_on_c, 2, 87, 67
4, 649152, Note_off_c, 2, 79, 67
4, 649152, Note_off_c, 2, 87, 67
4, 649216, Note_off_c, 2, 79, 67
4, 649216, Note_off_c, 2, 87, 67
4, 649216, Note_on_c, 2, 75, 67
4, 649216, Note_on_c, 2, 82, 67
4, 649280, Note_off_c, 2, 75, 67
4, 649280, Note_off_c, 2, 82, 67
4, 649344, Note_off_c, 2, 75, 67
4, 649344, Note_off_c, 2, 82, 67
4, 649344, Note_on_c, 2, 79, 67
4, 649408, Note_off_c, 2, 79, 67
4, 649472, Note_off_c, 2, 79, 67
4, 649472, Note_on_c, 2, 67, 67
4, 649472, Note_on_c, 2, 75, 67
4, 649536, Note_off_c, 2, 67, 67
4, 649536, Note_off_c, 2, 75, 67
4, 649600, Note_off_c, 2, 67, 67
4, 649600, Note_off_c, 2, 75, 67
4, 649600, Note_on_c, 2, 68, 67
4, 649600, Note_on_c, 2, 74, 67
4, 649632, Note_off_c, 2, 68, 67
4, 649632, Note_off_c, 2, 74, 67
4, 649664, Note_off_c, 2, 68, 67
4, 649664, Note_off_c, 2, 74, 67
4, 649664, Note_on_c, 2, 74, 67
4, 649664, Note_on_c, 2, 79, 67
4, 649696, Note_off_c, 2, 74, 67
4, 649696, Note_off_c, 2, 79, 67
4, 649728, Note_off_c, 2, 74, 67
4, 649728, Note_off_c, 2, 79, 67
4, 649728, Note_on_c, 2, 70, 67
4, 649728, Note_on_c, 2, 77, 67
4, 649792, Note_off_c, 2, 70, 67
4, 649792, Note_off_c, 2, 77, 67
4, 649856, Note_off_c, 2, 70, 67
4, 649856, Note_off_c, 2, 77, 67
4, 649856, Note_on_c, 2, 65, 67
4, 649856, Note_on_c, 2, 70, 67
4, 649920, Note_off_c, 2, 65, 67
4, 649920, Note_off_c, 2, 70, 67
4, 649984, Note_off_c, 2, 65, 67
4, 649984, Note_off_c, 2, 70, 67
4, 649984, Note_on_c, 2, 68, 67
4, 649984, Note_on_c, 2, 70, 67
4, 650048, Note_off_c, 2, 68, 67
4, 650048, Note_off_c, 2, 70, 67
4, 650112, Note_off_c, 2, 68, 67
4, 650112, Note_off_c, 2, 70, 67
4, 650112, Note_on_c, 2, 70, 67
4, 650112, Note_on_c, 2, 79, 67
4, 650176, Note_off_c, 2, 70, 67
4, 650176, Note_off_c, 2, 79, 67
4, 650176, Note_on_c, 2, 77, 67
4, 650176, Note_on_c, 2, 80, 67
4, 650240, Note_off_c, 2, 77, 67
4, 650240, Note_off_c, 2, 80, 67
4, 650240, Note_on_c, 2, 79, 67
4, 650240, Note_on_c, 2, 82, 67
4, 650304, Note_off_c, 2, 79, 67
4, 650304, Note_off_c, 2, 82, 67
4, 650368, Note_off_c, 2, 79, 67
4, 650368, Note_off_c, 2, 82, 67
4, 650368, Note_on_c, 2, 79, 67
4, 650368, Note_on_c, 2, 82, 67
4, 650432, Note_off_c, 2, 79, 67
4, 650432, Note_off_c, 2, 82, 67
4, 650496, Note_off_c, 2, 79, 67
4, 650496, Note_off_c, 2, 82, 67
4, 650496, Note_on_c, 2, 70, 67
4, 650496, Note_on_c, 2, 79, 67
4, 650560, Note_off_c, 2, 70, 67
4, 650560, Note_off_c, 2, 79, 67
4, 650624, Note_off_c, 2, 70, 67
4, 650624, Note_off_c, 2, 79, 67
4, 650624, Note_on_c, 2, 75, 67
4, 650624, Note_on_c, 2, 82, 67
4, 650688, Note_off_c, 2, 75, 67
4, 650688, Note_off_c, 2, 82, 67
4, 650752, Note_off_c, 2, 75, 67
4, 650752, Note_off_c, 2, 82, 67
4, 650752, Note_on_c, 2, 84, 67
4, 650752, Note_on_c, 2, 87, 67
4, 650816, Note_off_c, 2, 84, 67
4, 650816, Note_off_c, 2, 87, 67
4, 650880, Note_off_c, 2, 84, 67
4, 650880, Note_off_c, 2, 87, 67
4, 650880, Note_on_c, 2, 82, 67
4, 650880, Note_on_c, 2, 86, 67
4, 650944, Note_off_c, 2, 82, 67
4, 650944, Note_off_c, 2, 86, 67
4, 651008, Note_off_c, 2, 82, 67
4, 651008, Note_off_c, 2, 86, 67
4, 651008, Note_on_c, 2, 80, 67
4, 651008, Note_on_c, 2, 84, 67
4, 651072, Note_off_c, 2, 80, 67
4, 651072, Note_off_c, 2, 84, 67
4, 651136, Note_off_c, 2, 80, 67
4, 651136, Note_off_c, 2, 84, 67
4, 651136, Note_on_c, 2, 70, 67
4, 651136, Note_on_c, 2, 74, 67
4, 651168, Note_off_c, 2, 70, 67
4, 651168, Note_off_c, 2, 74, 67
4, 651200, Note_off_c, 2, 70, 67
4, 651200, Note_off_c, 2, 74, 67
4, 651200, Note_on_c, 2, 77, 67
4, 651200, Note_on_c, 2, 80, 67
4, 651232, Note_off_c, 2, 77, 67
4, 651232, Note_off_c, 2, 80, 67
4, 651264, Note_off_c, 2, 77, 67
4, 651264, Note_off_c, 2, 80, 67
4, 651264, Note_on_c, 2, 77, 67
4, 651264, Note_on_c, 2, 82, 67
4, 651328, Note_off_c, 2, 77, 67
4, 651328, Note_off_c, 2, 82, 67
4, 651392, Note_off_c, 2, 77, 67
4, 651392, Note_off_c, 2, 82, 67
4, 651392, Note_on_c, 2, 80, 67
4, 651392, Note_on_c, 2, 87, 67
4, 651456, Note_off_c, 2, 80, 67
4, 651456, Note_off_c, 2, 87, 67
4, 651520, Note_off_c, 2, 80, 67
4, 651520, Note_off_c, 2, 87, 67
4, 651520, Note_on_c, 2, 82, 67
4, 651520, Note_on_c, 2, 86, 67
4, 651584, Note_off_c, 2, 82, 67
4, 651584, Note_off_c, 2, 86, 67
4, 651648, Note_off_c, 2, 82, 67
4, 651648, Note_off_c, 2, 86, 67
4, 651648, Note_on_c, 2, 80, 67
4, 651648, Note_on_c, 2, 89, 67
4, 651712, Note_off_c, 2, 80, 67
4, 651712, Note_off_c, 2, 89, 67
4, 651776, Note_off_c, 2, 80, 67
4, 651776, Note_off_c, 2, 89, 67
4, 651776, Note_on_c, 2, 79, 67
4, 651776, Note_on_c, 2, 87, 67
4, 651840, Note_off_c, 2, 79, 67
4, 651840, Note_off_c, 2, 87, 67
4, 651904, Note_off_c, 2, 79, 67
4, 651904, Note_off_c, 2, 87, 67
4, 651904, Note_on_c, 2, 70, 67
4, 651904, Note_on_c, 2, 82, 67
4, 651968, Note_off_c, 2, 70, 67
4, 651968, Note_off_c, 2, 82, 67
4, 652032, Note_off_c, 2, 70, 67
4, 652032, Note_off_c, 2, 82, 67
4, 652032, Note_on_c, 2, 70, 67
4, 652032, Note_on_c, 2, 82, 67
4, 652096, Note_off_c, 2, 70, 67
4, 652096, Note_off_c, 2, 82, 67
4, 652160, Note_off_c, 2, 70, 67
4, 652160, Note_off_c, 2, 82, 67
4, 652160, Note_on_c, 2, 75, 67
4, 652224, Note_off_c, 2, 75, 67
4, 652224, Note_on_c, 2, 77, 67
4, 652288, Note_off_c, 2, 77, 67
4, 652288, Note_on_c, 2, 79, 67
4, 652352, Note_off_c, 2, 79, 67
4, 652416, Note_off_c, 2, 79, 67
4, 652416, Note_on_c, 2, 75, 67
4, 652416, Note_on_c, 2, 79, 67
4, 652480, Note_off_c, 2, 75, 67
4, 652480, Note_off_c, 2, 79, 67
4, 652544, Note_off_c, 2, 75, 67
4, 652544, Note_off_c, 2, 79, 67
4, 652544, Note_on_c, 2, 75, 67
4, 652544, Note_on_c, 2, 79, 67
4, 652608, Note_off_c, 2, 75, 67
4, 652608, Note_off_c, 2, 79, 67
4, 652672, Note_off_c, 2, 75, 67
4, 652672, Note_off_c, 2, 79, 67
4, 652672, Note_on_c, 2, 75, 67
4, 652736, Note_off_c, 2, 75, 67
4, 652736, Note_on_c, 2, 77, 67
4, 652800, Note_off_c, 2, 77, 67
4, 652800, Note_on_c, 2, 79, 67
4, 652864, Note_off_c, 2, 79, 67
4, 652928, Note_off_c, 2, 79, 67
4, 652928, Note_on_c, 2, 75, 67
4, 652928, Note_on_c, 2, 79, 67
4, 652992, Note_off_c, 2, 75, 67
4, 652992, Note_off_c, 2, 79, 67
4, 653056, Note_off_c, 2, 75, 67
4, 653056, Note_off_c, 2, 79, 67
4, 653056, Note_on_c, 2, 75, 67
4, 653056, Note_on_c, 2, 79, 67
4, 653120, Note_off_c, 2, 75, 67
4, 653120, Note_off_c, 2, 79, 67
4, 653184, Note_off_c, 2, 75, 67
4, 653184, Note_off_c, 2, 79, 67
4, 653184, Note_on_c, 2, 75, 67
4, 653248, Note_off_c, 2, 75, 67
4, 653248, Note_on_c, 2, 77, 67
4, 653312, Note_off_c, 2, 77, 67
4, 653312, Note_on_c, 2, 79, 67
4, 653376, Note_off_c, 2, 79, 67
4, 653440, Note_off_c, 2, 79, 67
4, 653440, Note_on_c, 2, 75, 67
4, 653440, Note_on_c, 2, 79, 67
4, 653504, Note_off_c, 2, 75, 67
4, 653504, Note_off_c, 2, 79, 67
4, 653568, Note_off_c, 2, 75, 67
4, 653568, Note_off_c, 2, 79, 67
4, 653568, Note_on_c, 2, 75, 67
4, 653568, Note_on_c, 2, 80, 67
4, 653600, Note_off_c, 2, 75, 67
4, 653600, Note_off_c, 2, 80, 67
4, 653632, Note_off_c, 2, 75, 67
4, 653632, Note_off_c, 2, 80, 67
4, 653632, Note_on_c, 2, 74, 67
4, 653664, Note_off_c, 2, 74, 67
4, 653696, Note_off_c, 2, 74, 67
4, 653696, Note_on_c, 2, 72, 67
4, 653728, Note_off_c, 2, 72, 67
4, 653760, Note_off_c, 2, 72, 67
4, 653760, Note_on_c, 2, 74, 67
4, 653760, Note_on_c, 2, 79, 67
4, 653792, Note_off_c, 2, 74, 67
4, 653792, Note_off_c, 2, 79, 67
4, 653824, Note_off_c, 2, 74, 67
4, 653824, Note_off_c, 2, 79, 67
4, 653824, Note_on_c, 2, 70, 67
4, 653824, Note_on_c, 2, 77, 67
4, 653888, Note_off_c, 2, 70, 67
4, 653888, Note_off_c, 2, 77, 67
4, 653952, Note_off_c, 2, 70, 67
4, 653952, Note_off_c, 2, 77, 67
4, 653952, Note_on_c, 2, 68, 67
4, 653952, Note_on_c, 2, 70, 67
4, 654016, Note_off_c, 2, 68, 67
4, 654016, Note_off_c, 2, 70, 67
4, 654080, Note_off_c, 2, 68, 67
4, 654080, Note_off_c, 2, 70, 67
4, 654080, Note_on_c, 2, 68, 67
4, 654080, Note_on_c, 2, 70, 67
4, 654144, Note_off_c, 2, 68, 67
4, 654144, Note_off_c, 2, 70, 67
4, 654208, Note_off_c, 2, 68, 67
4, 654208, Note_off_c, 2, 70, 67
4, 654208, Note_on_c, 2, 74, 67
4, 654272, Note_off_c, 2, 74, 67
4, 654272, Note_on_c, 2, 75, 67
4, 654336, Note_off_c, 2, 75, 67
4, 654336, Note_on_c, 2, 77, 67
4, 654400, Note_off_c, 2, 77, 67
4, 654464, Note_off_c, 2, 77, 67
4, 654464, Note_on_c, 2, 74, 67
4, 654464, Note_on_c, 2, 77, 67
4, 654528, Note_off_c, 2, 74, 67
4, 654528, Note_off_c, 2, 77, 67
4, 654592, Note_off_c, 2, 74, 67
4, 654592, Note_off_c, 2, 77, 67
4, 654592, Note_on_c, 2, 74, 67
4, 654592, Note_on_c, 2, 77, 67
4, 654656, Note_off_c, 2, 74, 67
4, 654656, Note_off_c, 2, 77, 67
4, 654720, Note_off_c, 2, 74, 67
4, 654720, Note_off_c, 2, 77, 67
4, 654720, Note_on_c, 2, 74, 67
4, 654784, Note_off_c, 2, 74, 67
4, 654784, Note_on_c, 2, 75, 67
4, 654848, Note_off_c, 2, 75, 67
4, 654848, Note_on_c, 2, 77, 67
4, 654912, Note_off_c, 2, 77, 67
4, 654976, Note_off_c, 2, 77, 67
4, 654976, Note_on_c, 2, 74, 67
4, 654976, Note_on_c, 2, 77, 67
4, 655040, Note_off_c, 2, 74, 67
4, 655040, Note_off_c, 2, 77, 67
4, 655104, Note_off_c, 2, 74, 67
4, 655104, Note_off_c, 2, 77, 67
4, 655104, Note_on_c, 2, 74, 67
4, 655104, Note_on_c, 2, 77, 67
4, 655168, Note_off_c, 2, 74, 67
4, 655168, Note_off_c, 2, 77, 67
4, 655232, Note_off_c, 2, 74, 67
4, 655232, Note_off_c, 2, 77, 67
4, 655232, Note_on_c, 2, 74, 67
4, 655296, Note_off_c, 2, 74, 67
4, 655296, Note_on_c, 2, 75, 67
4, 655360, Note_off_c, 2, 75, 67
4, 655360, Note_on_c, 2, 70, 67
4, 655360, Note_on_c, 2, 77, 67
4, 655424, Note_off_c, 2, 70, 67
4, 655424, Note_off_c, 2, 77, 67
4, 655488, Note_off_c, 2, 70, 67
4, 655488, Note_off_c, 2, 77, 67
4, 655488, Note_on_c, 2, 74, 67
4, 655488, Note_on_c, 2, 77, 67
4, 655552, Note_off_c, 2, 74, 67
4, 655552, Note_off_c, 2, 77, 67
4, 655616, Note_off_c, 2, 74, 67
4, 655616, Note_off_c, 2, 77, 67
4, 655616, Note_on_c, 2, 74, 67
4, 655616, Note_on_c, 2, 79, 67
4, 655648, Note_off_c, 2, 74, 67
4, 655648, Note_off_c, 2, 79, 67
4, 655680, Note_off_c, 2, 74, 67
4, 655680, Note_off_c, 2, 79, 67
4, 655680, Note_on_c, 2, 72, 67
4, 655680, Note_on_c, 2, 77, 67
4, 655712, Note_off_c, 2, 72, 67
4, 655712, Note_off_c, 2, 77, 67
4, 655744, Note_off_c, 2, 72, 67
4, 655744, Note_off_c, 2, 77, 67
4, 655744, Note_on_c, 2, 70, 67
4, 655744, Note_on_c, 2, 77, 67
4, 655776, Note_off_c, 2, 70, 67
4, 655776, Note_off_c, 2, 77, 67
4, 655808, Note_off_c, 2, 70, 67
4, 655808, Note_off_c, 2, 77, 67
4, 655808, Note_on_c, 2, 68, 67
4, 655808, Note_on_c, 2, 79, 67
4, 655840, Note_off_c, 2, 68, 67
4, 655840, Note_off_c, 2, 79, 67
4, 655872, Note_off_c, 2, 68, 67
4, 655872, Note_off_c, 2, 79, 67
4, 655872, Note_on_c, 2, 67, 67
4, 655872, Note_on_c, 2, 75, 67
4, 655936, Note_off_c, 2, 67, 67
4, 655936, Note_off_c, 2, 75, 67
4, 656000, Note_off_c, 2, 67, 67
4, 656000, Note_off_c, 2, 75, 67
4, 656000, Note_on_c, 2, 70, 67
4, 656064, Note_off_c, 2, 70, 67
4, 656128, Note_off_c, 2, 70, 67
4, 656128, Note_on_c, 2, 70, 67
4, 656128, Note_on_c, 2, 79, 67
4, 656192, Note_off_c, 2, 70, 67
4, 656192, Note_off_c, 2, 79, 67
4, 656256, Note_off_c, 2, 70, 67
4, 656256, Note_off_c, 2, 79, 67
4, 656256, Note_on_c, 2, 75, 67
4, 656320, Note_off_c, 2, 75, 67
4, 656320, Note_on_c, 2, 77, 67
4, 656384, Note_off_c, 2, 77, 67
4, 656384, Note_on_c, 2, 79, 67
4, 656448, Note_off_c, 2, 79, 67
4, 656512, Note_off_c, 2, 79, 67
4, 656512, Note_on_c, 2, 75, 67
4, 656512, Note_on_c, 2, 79, 67
4, 656576, Note_off_c, 2, 75, 67
4, 656576, Note_off_c, 2, 79, 67
4, 656640, Note_off_c, 2, 75, 67
4, 656640, Note_off_c, 2, 79, 67
4, 656640, Note_on_c, 2, 75, 67
4, 656640, Note_on_c, 2, 79, 67
4, 656704, Note_off_c, 2, 75, 67
4, 656704, Note_off_c, 2, 79, 67
4, 656768, Note_off_c, 2, 75, 67
4, 656768, Note_off_c, 2, 79, 67
4, 656768, Note_on_c, 2, 75, 67
4, 656832, Note_off_c, 2, 75, 67
4, 656832, Note_on_c, 2, 77, 67
4, 656896, Note_off_c, 2, 77, 67
4, 656896, Note_on_c, 2, 79, 67
4, 656960, Note_off_c, 2, 79, 67
4, 657024, Note_off_c, 2, 79, 67
4, 657024, Note_on_c, 2, 75, 67
4, 657024, Note_on_c, 2, 79, 67
4, 657088, Note_off_c, 2, 75, 67
4, 657088, Note_off_c, 2, 79, 67
4, 657152, Note_off_c, 2, 75, 67
4, 657152, Note_off_c, 2, 79, 67
4, 657152, Note_on_c, 2, 75, 67
4, 657152, Note_on_c, 2, 79, 67
4, 657216, Note_off_c, 2, 75, 67
4, 657216, Note_off_c, 2, 79, 67
4, 657280, Note_off_c, 2, 75, 67
4, 657280, Note_off_c, 2, 79, 67
4, 657280, Note_on_c, 2, 75, 67
4, 657344, Note_off_c, 2, 75, 67
4, 657344, Note_on_c, 2, 77, 67
4, 657408, Note_off_c, 2, 77, 67
4, 657408, Note_on_c, 2, 79, 67
4, 657472, Note_off_c, 2, 79, 67
4, 657536, Note_off_c, 2, 79, 67
4, 657536, Note_on_c, 2, 75, 67
4, 657536, Note_on_c, 2, 79, 67
4, 657600, Note_off_c, 2, 75, 67
4, 657600, Note_off_c, 2, 79, 67
4, 657664, Note_off_c, 2, 75, 67
4, 657664, Note_off_c, 2, 79, 67
4, 657664, Note_on_c, 2, 75, 67
4, 657664, Note_on_c, 2, 80, 67
4, 657696, Note_off_c, 2, 75, 67
4, 657696, Note_off_c, 2, 80, 67
4, 657728, Note_off_c, 2, 75, 67
4, 657728, Note_off_c, 2, 80, 67
4, 657728, Note_on_c, 2, 74, 67
4, 657792, Note_off_c, 2, 74, 67
4, 657792, Note_on_c, 2, 72, 67
4, 657856, Note_off_c, 2, 72, 67
4, 657856, Note_on_c, 2, 74, 67
4, 657856, Note_on_c, 2, 79, 67
4, 657888, Note_off_c, 2, 74, 67
4, 657888, Note_off_c, 2, 79, 67
4, 657920, Note_off_c, 2, 74, 67
4, 657920, Note_off_c, 2, 79, 67
4, 657920, Note_on_c, 2, 70, 67
4, 657920, Note_on_c, 2, 77, 67
4, 657984, Note_off_c, 2, 70, 67
4, 657984, Note_off_c, 2, 77, 67
4, 658048, Note_off_c, 2, 70, 67
4, 658048, Note_off_c, 2, 77, 67
4, 658048, Note_on_c, 2, 68, 67
4, 658048, Note_on_c, 2, 70, 67
4, 658112, Note_off_c, 2, 68, 67
4, 658112, Note_off_c, 2, 70, 67
4, 658176, Note_off_c, 2, 68, 67
4, 658176, Note_off_c, 2, 70, 67
4, 658176, Note_on_c, 2, 68, 67
4, 658176, Note_on_c, 2, 70, 67
4, 658240, Note_off_c, 2, 68, 67
4, 658240, Note_off_c, 2, 70, 67
4, 658304, Note_off_c, 2, 68, 67
4, 658304, Note_off_c, 2, 70, 67
4, 658304, Note_on_c, 2, 74, 67
4, 658368, Note_off_c, 2, 74, 67
4, 658368, Note_on_c, 2, 75, 67
4, 658432, Note_off_c, 2, 75, 67
4, 658432, Note_on_c, 2, 77, 67
4, 658560, Note_off_c, 2, 77, 67
4, 658560, Note_on_c, 2, 74, 67
4, 658560, Note_on_c, 2, 80, 67
4, 658624, Note_off_c, 2, 74, 67
4, 658624, Note_off_c, 2, 80, 67
4, 658688, Note_off_c, 2, 74, 67
4, 658688, Note_off_c, 2, 80, 67
4, 658688, Note_on_c, 2, 74, 67
4, 658688, Note_on_c, 2, 79, 67
4, 658752, Note_off_c, 2, 74, 67
4, 658752, Note_off_c, 2, 79, 67
4, 658816, Note_off_c, 2, 74, 67
4, 658816, Note_off_c, 2, 79, 67
4, 658816, Note_on_c, 2, 77, 67
4, 658880, Note_off_c, 2, 77, 67
4, 658944, Note_off_c, 2, 77, 67
4, 658944, Note_on_c, 2, 75, 67
4, 659008, Note_off_c, 2, 75, 67
4, 659072, Note_off_c, 2, 75, 67
4, 659072, Note_on_c, 2, 70, 67
4, 659072, Note_on_c, 2, 74, 67
4, 659136, Note_off_c, 2, 70, 67
4, 659136, Note_off_c, 2, 74, 67
4, 659200, Note_off_c, 2, 70, 67
4, 659200, Note_off_c, 2, 74, 67
4, 659200, Note_on_c, 2, 72, 67
4, 659200, Note_on_c, 2, 74, 67
4, 659264, Note_off_c, 2, 72, 67
4, 659264, Note_off_c, 2, 74, 67
4, 659328, Note_off_c, 2, 72, 67
4, 659328, Note_off_c, 2, 74, 67
4, 659328, Note_on_c, 2, 70, 67
4, 659328, Note_on_c, 2, 74, 67
4, 659392, Note_off_c, 2, 70, 67
4, 659392, Note_off_c, 2, 74, 67
4, 659456, Note_off_c, 2, 70, 67
4, 659456, Note_off_c, 2, 74, 67
4, 659456, Note_on_c, 2, 80, 67
4, 659456, Note_on_c, 2, 84, 67
4, 659712, Note_off_c, 2, 80, 67
4, 659712, Note_off_c, 2, 84, 67
4, 659712, Note_on_c, 2, 70, 67
4, 659712, Note_on_c, 2, 74, 67
4, 659728, Note_off_c, 2, 70, 67
4, 659728, Note_off_c, 2, 74, 67
4, 659744, Note_off_c, 2, 70, 67
4, 659744, Note_off_c, 2, 74, 67
4, 659744, Note_on_c, 2, 72, 67
4, 659744, Note_on_c, 2, 75, 67
4, 659760, Note_off_c, 2, 72, 67
4, 659760, Note_off_c, 2, 75, 67
4, 659776, Note_off_c, 2, 72, 67
4, 659776, Note_off_c, 2, 75, 67
4, 659776, Note_on_c, 2, 70, 67
4, 659776, Note_on_c, 2, 74, 67
4, 659808, Note_off_c, 2, 70, 67
4, 659808, Note_off_c, 2, 74, 67
4, 659840, Note_off_c, 2, 70, 67
4, 659840, Note_off_c, 2, 74, 67
4, 659840, Note_on_c, 2, 68, 67
4, 659840, Note_on_c, 2, 72, 67
4, 659872, Note_off_c, 2, 68, 67
4, 659872, Note_off_c, 2, 72, 67
4, 659904, Note_off_c, 2, 68, 67
4, 659904, Note_off_c, 2, 72, 67
4, 659904, Note_on_c, 2, 74, 67
4, 659904, Note_on_c, 2, 77, 67
4, 659936, Note_off_c, 2, 74, 67
4, 659936, Note_off_c, 2, 77, 67
4, 659968, Note_off_c, 2, 74, 67
4, 659968, Note_off_c, 2, 77, 67
4, 659968, Note_on_c, 2, 75, 67
4, 659968, Note_on_c, 2, 79, 67
4, 660096, Note_off_c, 2, 75, 67
4, 660096, Note_off_c, 2, 79, 67
4, 660096, Note_on_c, 2, 70, 67
4, 660160, Note_off_c, 2, 70, 67
4, 660224, Note_off_c, 2, 70, 67
4, 660224, Note_on_c, 2, 70, 67
4, 660288, Note_off_c, 2, 70, 67
4, 660352, Note_off_c, 2, 70, 67
4, 660352, Note_on_c, 2, 75, 67
4, 660352, Note_on_c, 2, 79, 67
4, 660416, Note_off_c, 2, 75, 67
4, 660416, Note_off_c, 2, 79, 67
4, 660416, Note_on_c, 2, 77, 67
4, 660416, Note_on_c, 2, 80, 67
4, 660480, Note_off_c, 2, 77, 67
4, 660480, Note_off_c, 2, 80, 67
4, 660480, Note_on_c, 2, 79, 67
4, 660480, Note_on_c, 2, 82, 67
4, 660544, Note_off_c, 2, 79, 67
4, 660544, Note_off_c, 2, 82, 67
4, 660608, Note_off_c, 2, 79, 67
4, 660608, Note_off_c, 2, 82, 67
4, 660608, Note_on_c, 2, 79, 67
4, 660608, Note_on_c, 2, 82, 67
4, 660672, Note_off_c, 2, 79, 67
4, 660672, Note_off_c, 2, 82, 67
4, 660736, Note_off_c, 2, 79, 67
4, 660736, Note_off_c, 2, 82, 67
4, 660736, Note_on_c, 2, 70, 67
4, 660736, Note_on_c, 2, 79, 67
4, 660800, Note_off_c, 2, 70, 67
4, 660800, Note_off_c, 2, 79, 67
4, 660864, Note_off_c, 2, 70, 67
4, 660864, Note_off_c, 2, 79, 67
4, 660864, Note_on_c, 2, 70, 67
4, 660864, Note_on_c, 2, 75, 67
4, 660928, Note_off_c, 2, 70, 67
4, 660928, Note_off_c, 2, 75, 67
4, 660992, Note_off_c, 2, 70, 67
4, 660992, Note_off_c, 2, 75, 67
4, 660992, Note_on_c, 2, 84, 67
4, 660992, Note_on_c, 2, 87, 67
4, 661056, Note_off_c, 2, 84, 67
4, 661056, Note_off_c, 2, 87, 67
4, 661120, Note_off_c, 2, 84, 67
4, 661120, Note_off_c, 2, 87, 67
4, 661120, Note_on_c, 2, 82, 67
4, 661120, Note_on_c, 2, 86, 67
4, 661184, Note_off_c, 2, 82, 67
4, 661184, Note_off_c, 2, 86, 67
4, 661248, Note_off_c, 2, 82, 67
4, 661248, Note_off_c, 2, 86, 67
4, 661248, Note_on_c, 2, 80, 67
4, 661248, Note_on_c, 2, 84, 67
4, 661312, Note_off_c, 2, 80, 67
4, 661312, Note_off_c, 2, 84, 67
4, 661376, Note_off_c, 2, 80, 67
4, 661376, Note_off_c, 2, 84, 67
4, 661376, Note_on_c, 2, 79, 67
4, 661376, Note_on_c, 2, 87, 67
4, 661440, Note_off_c, 2, 79, 67
4, 661440, Note_off_c, 2, 87, 67
4, 661504, Note_off_c, 2, 79, 67
4, 661504, Note_off_c, 2, 87, 67
4, 661504, Note_on_c, 2, 75, 67
4, 661504, Note_on_c, 2, 82, 67
4, 661568, Note_off_c, 2, 75, 67
4, 661568, Note_off_c, 2, 82, 67
4, 661632, Note_off_c, 2, 75, 67
4, 661632, Note_off_c, 2, 82, 67
4, 661632, Note_on_c, 2, 79, 67
4, 661696, Note_off_c, 2, 79, 67
4, 661760, Note_off_c, 2, 79, 67
4, 661760, Note_on_c, 2, 67, 67
4, 661760, Note_on_c, 2, 75, 67
4, 661824, Note_off_c, 2, 67, 67
4, 661824, Note_off_c, 2, 75, 67
4, 661888, Note_off_c, 2, 67, 67
4, 661888, Note_off_c, 2, 75, 67
4, 661888, Note_on_c, 2, 68, 67
4, 661888, Note_on_c, 2, 74, 67
4, 661920, Note_off_c, 2, 68, 67
4, 661920, Note_off_c, 2, 74, 67
4, 661952, Note_off_c, 2, 68, 67
4, 661952, Note_off_c, 2, 74, 67
4, 661952, Note_on_c, 2, 74, 67
4, 661952, Note_on_c, 2, 79, 67
4, 661984, Note_off_c, 2, 74, 67
4, 661984, Note_off_c, 2, 79, 67
4, 662016, Note_off_c, 2, 74, 67
4, 662016, Note_off_c, 2, 79, 67
4, 662016, Note_on_c, 2, 70, 67
4, 662016, Note_on_c, 2, 77, 67
4, 662080, Note_off_c, 2, 70, 67
4, 662080, Note_off_c, 2, 77, 67
4, 662144, Note_off_c, 2, 70, 67
4, 662144, Note_off_c, 2, 77, 67
4, 662144, Note_on_c, 2, 65, 67
4, 662144, Note_on_c, 2, 70, 67
4, 662208, Note_off_c, 2, 65, 67
4, 662208, Note_off_c, 2, 70, 67
4, 662272, Note_off_c, 2, 65, 67
4, 662272, Note_off_c, 2, 70, 67
4, 662272, Note_on_c, 2, 68, 67
4, 662272, Note_on_c, 2, 70, 67
4, 662336, Note_off_c, 2, 68, 67
4, 662336, Note_off_c, 2, 70, 67
4, 662400, Note_off_c, 2, 68, 67
4, 662400, Note_off_c, 2, 70, 67
4, 662400, Note_on_c, 2, 70, 67
4, 662400, Note_on_c, 2, 79, 67
4, 662464, Note_off_c, 2, 70, 67
4, 662464, Note_off_c, 2, 79, 67
4, 662464, Note_on_c, 2, 77, 67
4, 662464, Note_on_c, 2, 80, 67
4, 662528, Note_off_c, 2, 77, 67
4, 662528, Note_off_c, 2, 80, 67
4, 662528, Note_on_c, 2, 79, 67
4, 662528, Note_on_c, 2, 82, 67
4, 662592, Note_off_c, 2, 79, 67
4, 662592, Note_off_c, 2, 82, 67
4, 662656, Note_off_c, 2, 79, 67
4, 662656, Note_off_c, 2, 82, 67
4, 662656, Note_on_c, 2, 79, 67
4, 662656, Note_on_c, 2, 82, 67
4, 662720, Note_off_c, 2, 79, 67
4, 662720, Note_off_c, 2, 82, 67
4, 662784, Note_off_c, 2, 79, 67
4, 662784, Note_off_c, 2, 82, 67
4, 662784, Note_on_c, 2, 70, 67
4, 662784, Note_on_c, 2, 79, 67
4, 662848, Note_off_c, 2, 70, 67
4, 662848, Note_off_c, 2, 79, 67
4, 662912, Note_off_c, 2, 70, 67
4, 662912, Note_off_c, 2, 79, 67
4, 662912, Note_on_c, 2, 75, 67
4, 662912, Note_on_c, 2, 82, 67
4, 662976, Note_off_c, 2, 75, 67
4, 662976, Note_off_c, 2, 82, 67
4, 663040, Note_off_c, 2, 75, 67
4, 663040, Note_off_c, 2, 82, 67
4, 663040, Note_on_c, 2, 84, 67
4, 663040, Note_on_c, 2, 87, 67
4, 663104, Note_off_c, 2, 84, 67
4, 663104, Note_off_c, 2, 87, 67
4, 663168, Note_off_c, 2, 84, 67
4, 663168, Note_off_c, 2, 87, 67
4, 663168, Note_on_c, 2, 82, 67
4, 663168, Note_on_c, 2, 86, 67
4, 663232, Note_off_c, 2, 82, 67
4, 663232, Note_off_c, 2, 86, 67
4, 663296, Note_off_c, 2, 82, 67
4, 663296, Note_off_c, 2, 86, 67
4, 663296, Note_on_c, 2, 80, 67
4, 663296, Note_on_c, 2, 84, 67
4, 663360, Note_off_c, 2, 80, 67
4, 663360, Note_off_c, 2, 84, 67
4, 663424, Note_off_c, 2, 80, 67
4, 663424, Note_off_c, 2, 84, 67
4, 663424, Note_on_c, 2, 70, 67
4, 663424, Note_on_c, 2, 74, 67
4, 663456, Note_off_c, 2, 70, 67
4, 663456, Note_off_c, 2, 74, 67
4, 663488, Note_off_c, 2, 70, 67
4, 663488, Note_off_c, 2, 74, 67
4, 663488, Note_on_c, 2, 77, 67
4, 663488, Note_on_c, 2, 80, 67
4, 663520, Note_off_c, 2, 77, 67
4, 663520, Note_off_c, 2, 80, 67
4, 663552, Note_off_c, 2, 77, 67
4, 663552, Note_off_c, 2, 80, 67
4, 663552, Note_on_c, 2, 77, 67
4, 663552, Note_on_c, 2, 82, 67
4, 663616, Note_off_c, 2, 77, 67
4, 663616, Note_off_c, 2, 82, 67
4, 663680, Note_off_c, 2, 77, 67
4, 663680, Note_off_c, 2, 82, 67
4, 663680, Note_on_c, 2, 80, 67
4, 663680, Note_on_c, 2, 87, 67
4, 663744, Note_off_c, 2, 80, 67
4, 663744, Note_off_c, 2, 87, 67
4, 663808, Note_off_c, 2, 80, 67
4, 663808, Note_off_c, 2, 87, 67
4, 663808, Note_on_c, 2, 82, 67
4, 663808, Note_on_c, 2, 86, 67
4, 663872, Note_off_c, 2, 82, 67
4, 663872, Note_off_c, 2, 86, 67
4, 663936, Note_off_c, 2, 82, 67
4, 663936, Note_off_c, 2, 86, 67
4, 663936, Note_on_c, 2, 80, 67
4, 663936, Note_on_c, 2, 89, 67
4, 664000, Note_off_c, 2, 80, 67
4, 664000, Note_off_c, 2, 89, 67
4, 664064, Note_off_c, 2, 80, 67
4, 664064, Note_off_c, 2, 89, 67
4, 664064, Note_on_c, 2, 79, 67
4, 664064, Note_on_c, 2, 87, 67
4, 664128, Note_off_c, 2, 79, 67
4, 664128, Note_off_c, 2, 87, 67
4, 664192, Note_off_c, 2, 79, 67
4, 664192, Note_off_c, 2, 87, 67
4, 664192, Note_on_c, 2, 70, 67
4, 664192, Note_on_c, 2, 82, 67
4, 664256, Note_off_c, 2, 70, 67
4, 664256, Note_off_c, 2, 82, 67
4, 664320, Note_off_c, 2, 70, 67
4, 664320, Note_off_c, 2, 82, 67
4, 664320, Note_on_c, 2, 70, 67
4, 664320, Note_on_c, 2, 82, 67
4, 664384, Note_off_c, 2, 70, 67
4, 664384, Note_off_c, 2, 82, 67
4, 664448, Note_off_c, 2, 70, 67
4, 664448, Note_off_c, 2, 82, 67
4, 664448, Note_on_c, 2, 75, 67
4, 664512, Note_off_c, 2, 75, 67
4, 664512, Note_on_c, 2, 77, 67
4, 664576, Note_off_c, 2, 77, 67
4, 664576, Note_on_c, 2, 79, 67
4, 664640, Note_off_c, 2, 79, 67
4, 664704, Note_off_c, 2, 79, 67
4, 664704, Note_on_c, 2, 75, 67
4, 664704, Note_on_c, 2, 79, 67
4, 664768, Note_off_c, 2, 75, 67
4, 664768, Note_off_c, 2, 79, 67
4, 664832, Note_off_c, 2, 75, 67
4, 664832, Note_off_c, 2, 79, 67
4, 664832, Note_on_c, 2, 75, 67
4, 664832, Note_on_c, 2, 79, 67
4, 664896, Note_off_c, 2, 75, 67
4, 664896, Note_off_c, 2, 79, 67
4, 664960, Note_off_c, 2, 75, 67
4, 664960, Note_off_c, 2, 79, 67
4, 664960, Note_on_c, 2, 75, 67
4, 665024, Note_off_c, 2, 75, 67
4, 665024, Note_on_c, 2, 77, 67
4, 665088, Note_off_c, 2, 77, 67
4, 665088, Note_on_c, 2, 79, 67
4, 665152, Note_off_c, 2, 79, 67
4, 665216, Note_off_c, 2, 79, 67
4, 665216, Note_on_c, 2, 75, 67
4, 665216, Note_on_c, 2, 79, 67
4, 665280, Note_off_c, 2, 75, 67
4, 665280, Note_off_c, 2, 79, 67
4, 665344, Note_off_c, 2, 75, 67
4, 665344, Note_off_c, 2, 79, 67
4, 665344, Note_on_c, 2, 75, 67
4, 665344, Note_on_c, 2, 79, 67
4, 665408, Note_off_c, 2, 75, 67
4, 665408, Note_off_c, 2, 79, 67
4, 665472, Note_off_c, 2, 75, 67
4, 665472, Note_off_c, 2, 79, 67
4, 665472, Note_on_c, 2, 75, 67
4, 665536, Note_off_c, 2, 75, 67
4, 665536, Note_on_c, 2, 77, 67
4, 665600, Note_off_c, 2, 77, 67
4, 665600, Note_on_c, 2, 79, 67
4, 665664, Note_off_c, 2, 79, 67
4, 665728, Note_off_c, 2, 79, 67
4, 665728, Note_on_c, 2, 75, 67
4, 665728, Note_on_c, 2, 79, 67
4, 665792, Note_off_c, 2, 75, 67
4, 665792, Note_off_c, 2, 79, 67
4, 665856, Note_off_c, 2, 75, 67
4, 665856, Note_off_c, 2, 79, 67
4, 665856, Note_on_c, 2, 75, 67
4, 665856, Note_on_c, 2, 80, 67
4, 665888, Note_off_c, 2, 75, 67
4, 665888, Note_off_c, 2, 80, 67
4, 665920, Note_off_c, 2, 75, 67
4, 665920, Note_off_c, 2, 80, 67
4, 665920, Note_on_c, 2, 74, 67
4, 665952, Note_off_c, 2, 74, 67
4, 665984, Note_off_c, 2, 74, 67
4, 665984, Note_on_c, 2, 72, 67
4, 666016, Note_off_c, 2, 72, 67
4, 666048, Note_off_c, 2, 72, 67
4, 666048, Note_on_c, 2, 74, 67
4, 666048, Note_on_c, 2, 79, 67
4, 666080, Note_off_c, 2, 74, 67
4, 666080, Note_off_c, 2, 79, 67
4, 666112, Note_off_c, 2, 74, 67
4, 666112, Note_off_c, 2, 79, 67
4, 666112, Note_on_c, 2, 70, 67
4, 666112, Note_on_c, 2, 77, 67
4, 666176, Note_off_c, 2, 70, 67
4, 666176, Note_off_c, 2, 77, 67
4, 666240, Note_off_c, 2, 70, 67
4, 666240, Note_off_c, 2, 77, 67
4, 666240, Note_on_c, 2, 68, 67
4, 666240, Note_on_c, 2, 70, 67
4, 666304, Note_off_c, 2, 68, 67
4, 666304, Note_off_c, 2, 70, 67
4, 666368, Note_off_c, 2, 68, 67
4, 666368, Note_off_c, 2, 70, 67
4, 666368, Note_on_c, 2, 68, 67
4, 666368, Note_on_c, 2, 70, 67
4, 666432, Note_off_c, 2, 68, 67
4, 666432, Note_off_c, 2, 70, 67
4, 666496, Note_off_c, 2, 68, 67
4, 666496, Note_off_c, 2, 70, 67
4, 666496, Note_on_c, 2, 74, 67
4, 666560, Note_off_c, 2, 74, 67
4, 666560, Note_on_c, 2, 75, 67
4, 666624, Note_off_c, 2, 75, 67
4, 666624, Note_on_c, 2, 77, 67
4, 666688, Note_off_c, 2, 77, 67
4, 666752, Note_off_c, 2, 77, 67
4, 666752, Note_on_c, 2, 74, 67
4, 666752, Note_on_c, 2, 77, 67
4, 666816, Note_off_c, 2, 74, 67
4, 666816, Note_off_c, 2, 77, 67
4, 666880, Note_off_c, 2, 74, 67
4, 666880, Note_off_c, 2, 77, 67
4, 666880, Note_on_c, 2, 74, 67
4, 666880, Note_on_c, 2, 77, 67
4, 666944, Note_off_c, 2, 74, 67
4, 666944, Note_off_c, 2, 77, 67
4, 667008, Note_off_c, 2, 74, 67
4, 667008, Note_off_c, 2, 77, 67
4, 667008, Note_on_c, 2, 74, 67
4, 667072, Note_off_c, 2, 74, 67
4, 667072, Note_on_c, 2, 75, 67
4, 667136, Note_off_c, 2, 75, 67
4, 667136, Note_on_c, 2, 77, 67
4, 667200, Note_off_c, 2, 77, 67
4, 667264, Note_off_c, 2, 77, 67
4, 667264, Note_on_c, 2, 74, 67
4, 667264, Note_on_c, 2, 77, 67
4, 667328, Note_off_c, 2, 74, 67
4, 667328, Note_off_c, 2, 77, 67
4, 667392, Note_off_c, 2, 74, 67
4, 667392, Note_off_c, 2, 77, 67
4, 667392, Note_on_c, 2, 74, 67
4, 667392, Note_on_c, 2, 77, 67
4, 667456, Note_off_c, 2, 74, 67
4, 667456, Note_off_c, 2, 77, 67
4, 667520, Note_off_c, 2, 74, 67
4, 667520, Note_off_c, 2, 77, 67
4, 667520, Note_on_c, 2, 74, 67
4, 667584, Note_off_c, 2, 74, 67
4, 667584, Note_on_c, 2, 75, 67
4, 667648, Note_off_c, 2, 75, 67
4, 667648, Note_on_c, 2, 70, 67
4, 667648, Note_on_c, 2, 77, 67
4, 667712, Note_off_c, 2, 70, 67
4, 667712, Note_off_c, 2, 77, 67
4, 667776, Note_off_c, 2, 70, 67
4, 667776, Note_off_c, 2, 77, 67
4, 667776, Note_on_c, 2, 74, 67
4, 667776, Note_on_c, 2, 77, 67
4, 667840, Note_off_c, 2, 74, 67
4, 667840, Note_off_c, 2, 77, 67
4, 667904, Note_off_c, 2, 74, 67
4, 667904, Note_off_c, 2, 77, 67
4, 667904, Note_on_c, 2, 74, 67
4, 667904, Note_on_c, 2, 79, 67
4, 667936, Note_off_c, 2, 74, 67
4, 667936, Note_off_c, 2, 79, 67
4, 667968, Note_off_c, 2, 74, 67
4, 667968, Note_off_c, 2, 79, 67
4, 667968, Note_on_c, 2, 72, 67
4, 667968, Note_on_c, 2, 77, 67
4, 668000, Note_off_c, 2, 72, 67
4, 668000, Note_off_c, 2, 77, 67
4, 668032, Note_off_c, 2, 72, 67
4, 668032, Note_off_c, 2, 77, 67
4, 668032, Note_on_c, 2, 70, 67
4, 668032, Note_on_c, 2, 77, 67
4, 668064, Note_off_c, 2, 70, 67
4, 668064, Note_off_c, 2, 77, 67
4, 668096, Note_off_c, 2, 70, 67
4, 668096, Note_off_c, 2, 77, 67
4, 668096, Note_on_c, 2, 68, 67
4, 668096, Note_on_c, 2, 79, 67
4, 668128, Note_off_c, 2, 68, 67
4, 668128, Note_off_c, 2, 79, 67
4, 668160, Note_off_c, 2, 68, 67
4, 668160, Note_off_c, 2, 79, 67
4, 668160, Note_on_c, 2, 67, 67
4, 668160, Note_on_c, 2, 75, 67
4, 668224, Note_off_c, 2, 67, 67
4, 668224, Note_off_c, 2, 75, 67
4, 668288, Note_off_c, 2, 67, 67
4, 668288, Note_off_c, 2, 75, 67
4, 668288, Note_on_c, 2, 70, 67
4, 668352, Note_off_c, 2, 70, 67
4, 668416, Note_off_c, 2, 70, 67
4, 668416, Note_on_c, 2, 70, 67
4, 668416, Note_on_c, 2, 79, 67
4, 668480, Note_off_c, 2, 70, 67
4, 668480, Note_off_c, 2, 79, 67
4, 668544, Note_off_c, 2, 70, 67
4, 668544, Note_off_c, 2, 79, 67
4, 668544, Note_on_c, 2, 75, 67
4, 668608, Note_off_c, 2, 75, 67
4, 668608, Note_on_c, 2, 77, 67
4, 668672, Note_off_c, 2, 77, 67
4, 668672, Note_on_c, 2, 79, 67
4, 668736, Note_off_c, 2, 79, 67
4, 668800, Note_off_c, 2, 79, 67
4, 668800, Note_on_c, 2, 75, 67
4, 668800, Note_on_c, 2, 79, 67
4, 668864, Note_off_c, 2, 75, 67
4, 668864, Note_off_c, 2, 79, 67
4, 668928, Note_off_c, 2, 75, 67
4, 668928, Note_off_c, 2, 79, 67
4, 668928, Note_on_c, 2, 75, 67
4, 668928, Note_on_c, 2, 79, 67
4, 668992, Note_off_c, 2, 75, 67
4, 668992, Note_off_c, 2, 79, 67
4, 669056, Note_off_c, 2, 75, 67
4, 669056, Note_off_c, 2, 79, 67
4, 669056, Note_on_c, 2, 75, 67
4, 669120, Note_off_c, 2, 75, 67
4, 669120, Note_on_c, 2, 77, 67
4, 669184, Note_off_c, 2, 77, 67
4, 669184, Note_on_c, 2, 79, 67
4, 669248, Note_off_c, 2, 79, 67
4, 669312, Note_off_c, 2, 79, 67
4, 669312, Note_on_c, 2, 75, 67
4, 669312, Note_on_c, 2, 79, 67
4, 669376, Note_off_c, 2, 75, 67
4, 669376, Note_off_c, 2, 79, 67
4, 669440, Note_off_c, 2, 75, 67
4, 669440, Note_off_c, 2, 79, 67
4, 669440, Note_on_c, 2, 75, 67
4, 669440, Note_on_c, 2, 79, 67
4, 669504, Note_off_c, 2, 75, 67
4, 669504, Note_off_c, 2, 79, 67
4, 669568, Note_off_c, 2, 75, 67
4, 669568, Note_off_c, 2, 79, 67
4, 669568, Note_on_c, 2, 75, 67
4, 669632, Note_off_c, 2, 75, 67
4, 669632, Note_on_c, 2, 77, 67
4, 669696, Note_off_c, 2, 77, 67
4, 669696, Note_on_c, 2, 79, 67
4, 669760, Note_off_c, 2, 79, 67
4, 669824, Note_off_c, 2, 79, 67
4, 669824, Note_on_c, 2, 75, 67
4, 669824, Note_on_c, 2, 79, 67
4, 669888, Note_off_c, 2, 75, 67
4, 669888, Note_off_c, 2, 79, 67
4, 669952, Note_off_c, 2, 75, 67
4, 669952, Note_off_c, 2, 79, 67
4, 669952, Note_on_c, 2, 75, 67
4, 669952, Note_on_c, 2, 80, 67
4, 669984, Note_off_c, 2, 75, 67
4, 669984, Note_off_c, 2, 80, 67
4, 670016, Note_off_c, 2, 75, 67
4, 670016, Note_off_c, 2, 80, 67
4, 670016, Note_on_c, 2, 74, 67
4, 670080, Note_off_c, 2, 74, 67
4, 670080, Note_on_c, 2, 72, 67
4, 670144, Note_off_c, 2, 72, 67
4, 670144, Note_on_c, 2, 74, 67
4, 670144, Note_on_c, 2, 79, 67
4, 670176, Note_off_c, 2, 74, 67
4, 670176, Note_off_c, 2, 79, 67
4, 670208, Note_off_c, 2, 74, 67
4, 670208, Note_off_c, 2, 79, 67
4, 670208, Note_on_c, 2, 70, 67
4, 670208, Note_on_c, 2, 77, 67
4, 670272, Note_off_c, 2, 70, 67
4, 670272, Note_off_c, 2, 77, 67
4, 670336, Note_off_c, 2, 70, 67
4, 670336, Note_off_c, 2, 77, 67
4, 670336, Note_on_c, 2, 68, 67
4, 670336, Note_on_c, 2, 70, 67
4, 670400, Note_off_c, 2, 68, 67
4, 670400, Note_off_c, 2, 70, 67
4, 670464, Note_off_c, 2, 68, 67
4, 670464, Note_off_c, 2, 70, 67
4, 670464, Note_on_c, 2, 68, 67
4, 670464, Note_on_c, 2, 70, 67
4, 670528, Note_off_c, 2, 68, 67
4, 670528, Note_off_c, 2, 70, 67
4, 670592, Note_off_c, 2, 68, 67
4, 670592, Note_off_c, 2, 70, 67
4, 670592, Note_on_c, 2, 74, 67
4, 670656, Note_off_c, 2, 74, 67
4, 670656, Note_on_c, 2, 75, 67
4, 670720, Note_off_c, 2, 75, 67
4, 670720, Note_on_c, 2, 77, 67
4, 670848, Note_off_c, 2, 77, 67
4, 670848, Note_on_c, 2, 74, 67
4, 670848, Note_on_c, 2, 80, 67
4, 670912, Note_off_c, 2, 74, 67
4, 670912, Note_off_c, 2, 80, 67
4, 670976, Note_off_c, 2, 74, 67
4, 670976, Note_off_c, 2, 80, 67
4, 670976, Note_on_c, 2, 74, 67
4, 670976, Note_on_c, 2, 79, 67
4, 671040, Note_off_c, 2, 74, 67
4, 671040, Note_off_c, 2, 79, 67
4, 671104, Note_off_c, 2, 74, 67
4, 671104, Note_off_c, 2, 79, 67
4, 671104, Note_on_c, 2, 77, 67
4, 671168, Note_off_c, 2, 77, 67
4, 671232, Note_off_c, 2, 77, 67
4, 671232, Note_on_c, 2, 75, 67
4, 671296, Note_off_c, 2, 75, 67
4, 671360, Note_off_c, 2, 75, 67
4, 671360, Note_on_c, 2, 70, 67
4, 671360, Note_on_c, 2, 74, 67
4, 671424, Note_off_c, 2, 70, 67
4, 671424, Note_off_c, 2, 74, 67
4, 671488, Note_off_c, 2, 70, 67
4, 671488, Note_off_c, 2, 74, 67
4, 671488, Note_on_c, 2, 72, 67
4, 671488, Note_on_c, 2, 74, 67
4, 671552, Note_off_c, 2, 72, 67
4, 671552, Note_off_c, 2, 74, 67
4, 671616, Note_off_c, 2, 72, 67
4, 671616, Note_off_c, 2, 74, 67
4, 671616, Note_on_c, 2, 70, 67
4, 671616, Note_on_c, 2, 74, 67
4, 671680, Note_off_c, 2, 70, 67
4, 671680, Note_off_c, 2, 74, 67
4, 671744, Note_off_c, 2, 70, 67
4, 671744, Note_off_c, 2, 74, 67
4, 671744, Note_on_c, 2, 80, 67
4, 671744, Note_on_c, 2, 84, 67
4, 672000, Note_off_c, 2, 80, 67
4, 672000, Note_off_c, 2, 84, 67
4, 672000, Note_on_c, 2, 70, 67
4, 672000, Note_on_c, 2, 74, 67
4, 672016, Note_off_c, 2, 70, 67
4, 672016, Note_off_c, 2, 74, 67
4, 672032, Note_off_c, 2, 70, 67
4, 672032, Note_off_c, 2, 74, 67
4, 672032, Note_on_c, 2, 72, 67
4, 672032, Note_on_c, 2, 75, 67
4, 672048, Note_off_c, 2, 72, 67
4, 672048, Note_off_c, 2, 75, 67
4, 672064, Note_off_c, 2, 72, 67
4, 672064, Note_off_c, 2, 75, 67
4, 672064, Note_on_c, 2, 70, 67
4, 672064, Note_on_c, 2, 74, 67
4, 672096, Note_off_c, 2, 70, 67
4, 672096, Note_off_c, 2, 74, 67
4, 672128, Note_off_c, 2, 70, 67
4, 672128, Note_off_c, 2, 74, 67
4, 672128, Note_on_c, 2, 68, 67
4, 672128, Note_on_c, 2, 72, 67
4, 672160, Note_off_c, 2, 68, 67
4, 672160, Note_off_c, 2, 72, 67
4, 672192, Note_off_c, 2, 68, 67
4, 672192, Note_off_c, 2, 72, 67
4, 672192, Note_on_c, 2, 74, 67
4, 672192, Note_on_c, 2, 77, 67
4, 672224, Note_off_c, 2, 74, 67
4, 672224, Note_off_c, 2, 77, 67
4, 672256, Note_off_c, 2, 74, 67
4, 672256, Note_off_c, 2, 77, 67
4, 672256, Note_on_c, 2, 75, 67
4, 672256, Note_on_c, 2, 79, 67
4, 672384, Note_off_c, 2, 75, 67
4, 672384, Note_off_c, 2, 79, 67
4, 672384, Note_on_c, 2, 70, 67
4, 672448, Note_off_c, 2, 70, 67
4, 672512, Note_off_c, 2, 70, 67
4, 672512, Note_on_c, 2, 70, 67
4, 672576, Note_off_c, 2, 70, 67
4, 672640, Note_off_c, 2, 70, 67
4, 672640, Note_on_c, 2, 75, 67
4, 672640, Note_on_c, 2, 79, 67
4, 672704, Note_off_c, 2, 75, 67
4, 672704, Note_off_c, 2, 79, 67
4, 672704, Note_on_c, 2, 77, 67
4, 672704, Note_on_c, 2, 80, 67
4, 672768, Note_off_c, 2, 77, 67
4, 672768, Note_off_c, 2, 80, 67
4, 672768, Note_on_c, 2, 79, 67
4, 672768, Note_on_c, 2, 82, 67
4, 672832, Note_off_c, 2, 79, 67
4, 672832, Note_off_c, 2, 82, 67
4, 672896, Note_off_c, 2, 79, 67
4, 672896, Note_off_c, 2, 82, 67
4, 672896, Note_on_c, 2, 79, 67
4, 672896, Note_on_c, 2, 82, 67
4, 672960, Note_off_c, 2, 79, 67
4, 672960, Note_off_c, 2, 82, 67
4, 673024, Note_off_c, 2, 79, 67
4, 673024, Note_off_c, 2, 82, 67
4, 673024, Note_on_c, 2, 70, 67
4, 673024, Note_on_c, 2, 79, 67
4, 673088, Note_off_c, 2, 70, 67
4, 673088, Note_off_c, 2, 79, 67
4, 673152, Note_off_c, 2, 70, 67
4, 673152, Note_off_c, 2, 79, 67
4, 673152, Note_on_c, 2, 70, 67
4, 673152, Note_on_c, 2, 75, 67
4, 673216, Note_off_c, 2, 70, 67
4, 673216, Note_off_c, 2, 75, 67
4, 673280, Note_off_c, 2, 70, 67
4, 673280, Note_off_c, 2, 75, 67
4, 673280, Note_on_c, 2, 84, 67
4, 673280, Note_on_c, 2, 87, 67
4, 673344, Note_off_c, 2, 84, 67
4, 673344, Note_off_c, 2, 87, 67
4, 673408, Note_off_c, 2, 84, 67
4, 673408, Note_off_c, 2, 87, 67
4, 673408, Note_on_c, 2, 82, 67
4, 673408, Note_on_c, 2, 86, 67
4, 673472, Note_off_c, 2, 82, 67
4, 673472, Note_off_c, 2, 86, 67
4, 673536, Note_off_c, 2, 82, 67
4, 673536, Note_off_c, 2, 86, 67
4, 673536, Note_on_c, 2, 80, 67
4, 673536, Note_on_c, 2, 84, 67
4, 673600, Note_off_c, 2, 80, 67
4, 673600, Note_off_c, 2, 84, 67
4, 673664, Note_off_c, 2, 80, 67
4, 673664, Note_off_c, 2, 84, 67
4, 673664, Note_on_c, 2, 79, 67
4, 673664, Note_on_c, 2, 87, 67
4, 673728, Note_off_c, 2, 79, 67
4, 673728, Note_off_c, 2, 87, 67
4, 673792, Note_off_c, 2, 79, 67
4, 673792, Note_off_c, 2, 87, 67
4, 673792, Note_on_c, 2, 75, 67
4, 673792, Note_on_c, 2, 82, 67
4, 673856, Note_off_c, 2, 75, 67
4, 673856, Note_off_c, 2, 82, 67
4, 673920, Note_off_c, 2, 75, 67
4, 673920, Note_off_c, 2, 82, 67
4, 673920, Note_on_c, 2, 79, 67
4, 673984, Note_off_c, 2, 79, 67
4, 674048, Note_off_c, 2, 79, 67
4, 674048, Note_on_c, 2, 67, 67
4, 674048, Note_on_c, 2, 75, 67
4, 674112, Note_off_c, 2, 67, 67
4, 674112, Note_off_c, 2, 75, 67
4, 674176, Note_off_c, 2, 67, 67
4, 674176, Note_off_c, 2, 75, 67
4, 674176, Note_on_c, 2, 68, 67
4, 674176, Note_on_c, 2, 74, 67
4, 674208, Note_off_c, 2, 68, 67
4, 674208, Note_off_c, 2, 74, 67
4, 674240, Note_off_c, 2, 68, 67
4, 674240, Note_off_c, 2, 74, 67
4, 674240, Note_on_c, 2, 74, 67
4, 674240, Note_on_c, 2, 79, 67
4, 674272, Note_off_c, 2, 74, 67
4, 674272, Note_off_c, 2, 79, 67
4, 674304, Note_off_c, 2, 74, 67
4, 674304, Note_off_c, 2, 79, 67
4, 674304, Note_on_c, 2, 70, 67
4, 674304, Note_on_c, 2, 77, 67
4, 674368, Note_off_c, 2, 70, 67
4, 674368, Note_off_c, 2, 77, 67
4, 674432, Note_off_c, 2, 70, 67
4, 674432, Note_off_c, 2, 77, 67
4, 674432, Note_on_c, 2, 65, 67
4, 674432, Note_on_c, 2, 70, 67
4, 674496, Note_off_c, 2, 65, 67
4, 674496, Note_off_c, 2, 70, 67
4, 674560, Note_off_c, 2, 65, 67
4, 674560, Note_off_c, 2, 70, 67
4, 674560, Note_on_c, 2, 68, 67
4, 674560, Note_on_c, 2, 70, 67
4, 674624, Note_off_c, 2, 68, 67
4, 674624, Note_off_c, 2, 70, 67
4, 674688, Note_off_c, 2, 68, 67
4, 674688, Note_off_c, 2, 70, 67
4, 674688, Note_on_c, 2, 70, 67
4, 674688, Note_on_c, 2, 79, 67
4, 674752, Note_off_c, 2, 70, 67
4, 674752, Note_off_c, 2, 79, 67
4, 674752, Note_on_c, 2, 77, 67
4, 674752, Note_on_c, 2, 80, 67
4, 674816, Note_off_c, 2, 77, 67
4, 674816, Note_off_c, 2, 80, 67
4, 674816, Note_on_c, 2, 79, 67
4, 674816, Note_on_c, 2, 82, 67
4, 674880, Note_off_c, 2, 79, 67
4, 674880, Note_off_c, 2, 82, 67
4, 674944, Note_off_c, 2, 79, 67
4, 674944, Note_off_c, 2, 82, 67
4, 674944, Note_on_c, 2, 79, 67
4, 674944, Note_on_c, 2, 82, 67
4, 675008, Note_off_c, 2, 79, 67
4, 675008, Note_off_c, 2, 82, 67
4, 675072, Note_off_c, 2, 79, 67
4, 675072, Note_off_c, 2, 82, 67
4, 675072, Note_on_c, 2, 70, 67
4, 675072, Note_on_c, 2, 79, 67
4, 675136, Note_off_c, 2, 70, 67
4, 675136, Note_off_c, 2, 79, 67
4, 675200, Note_off_c, 2, 70, 67
4, 675200, Note_off_c, 2, 79, 67
4, 675200, Note_on_c, 2, 75, 67
4, 675200, Note_on_c, 2, 82, 67
4, 675264, Note_off_c, 2, 75, 67
4, 675264, Note_off_c, 2, 82, 67
4, 675328, Note_off_c, 2, 75, 67
4, 675328, Note_off_c, 2, 82, 67
4, 675328, Note_on_c, 2, 84, 67
4, 675328, Note_on_c, 2, 87, 67
4, 675392, Note_off_c, 2, 84, 67
4, 675392, Note_off_c, 2, 87, 67
4, 675456, Note_off_c, 2, 84, 67
4, 675456, Note_off_c, 2, 87, 67
4, 675456, Note_on_c, 2, 82, 67
4, 675456, Note_on_c, 2, 86, 67
4, 675520, Note_off_c, 2, 82, 67
4, 675520, Note_off_c, 2, 86, 67
4, 675584, Note_off_c, 2, 82, 67
4, 675584, Note_off_c, 2, 86, 67
4, 675584, Note_on_c, 2, 80, 67
4, 675584, Note_on_c, 2, 84, 67
4, 675648, Note_off_c, 2, 80, 67
4, 675648, Note_off_c, 2, 84, 67
4, 675712, Note_off_c, 2, 80, 67
4, 675712, Note_off_c, 2, 84, 67
4, 675712, Note_on_c, 2, 70, 67
4, 675712, Note_on_c, 2, 74, 67
4, 675744, Note_off_c, 2, 70, 67
4, 675744, Note_off_c, 2, 74, 67
4, 675776, Note_off_c, 2, 70, 67
4, 675776, Note_off_c, 2, 74, 67
4, 675776, Note_on_c, 2, 77, 67
4, 675776, Note_on_c, 2, 80, 67
4, 675808, Note_off_c, 2, 77, 67
4, 675808, Note_off_c, 2, 80, 67
4, 675840, Note_off_c, 2, 77, 67
4, 675840, Note_off_c, 2, 80, 67
4, 675840, Note_on_c, 2, 77, 67
4, 675840, Note_on_c, 2, 82, 67
4, 675904, Note_off_c, 2, 77, 67
4, 675904, Note_off_c, 2, 82, 67
4, 675968, Note_off_c, 2, 77, 67
4, 675968, Note_off_c, 2, 82, 67
4, 675968, Note_on_c, 2, 80, 67
4, 675968, Note_on_c, 2, 87, 67
4, 676032, Note_off_c, 2, 80, 67
4, 676032, Note_off_c, 2, 87, 67
4, 676096, Note_off_c, 2, 80, 67
4, 676096, Note_off_c, 2, 87, 67
4, 676096, Note_on_c, 2, 82, 67
4, 676096, Note_on_c, 2, 86, 67
4, 676160, Note_off_c, 2, 82, 67
4, 676160, Note_off_c, 2, 86, 67
4, 676224, Note_off_c, 2, 82, 67
4, 676224, Note_off_c, 2, 86, 67
4, 676224, Note_on_c, 2, 80, 67
4, 676224, Note_on_c, 2, 89, 67
4, 676288, Note_off_c, 2, 80, 67
4, 676288, Note_off_c, 2, 89, 67
4, 676352, Note_off_c, 2, 80, 67
4, 676352, Note_off_c, 2, 89, 67
4, 676352, Note_on_c, 2, 79, 67
4, 676352, Note_on_c, 2, 87, 67
4, 676416, Note_off_c, 2, 79, 67
4, 676416, Note_off_c, 2, 87, 67
4, 676480, Note_off_c, 2, 79, 67
4, 676480, Note_off_c, 2, 87, 67
4, 676480, Note_on_c, 2, 70, 67
4, 676480, Note_on_c, 2, 82, 67
4, 676544, Note_off_c, 2, 70, 67
4, 676544, Note_off_c, 2, 82, 67
4, 676608, Note_off_c, 2, 70, 67
4, 676608, Note_off_c, 2, 82, 67
4, 676608, Note_on_c, 2, 70, 67
4, 676608, Note_on_c, 2, 82, 67
4, 676672, Note_off_c, 2, 70, 67
4, 676672, Note_off_c, 2, 82, 67
4, 676736, Note_off_c, 2, 70, 67
4, 676736, Note_off_c, 2, 82, 67
4, 676736, Note_on_c, 2, 75, 67
4, 676800, Note_off_c, 2, 75, 67
4, 676800, Note_on_c, 2, 77, 67
4, 676864, Note_off_c, 2, 77, 67
4, 676864, Note_on_c, 2, 79, 67
4, 676928, Note_off_c, 2, 79, 67
4, 676992, Note_off_c, 2, 79, 67
4, 676992, Note_on_c, 2, 75, 67
4, 676992, Note_on_c, 2, 79, 67
4, 677056, Note_off_c, 2, 75, 67
4, 677056, Note_off_c, 2, 79, 67
4, 677120, Note_off_c, 2, 75, 67
4, 677120, Note_off_c, 2, 79, 67
4, 677120, Note_on_c, 2, 75, 67
4, 677120, Note_on_c, 2, 79, 67
4, 677184, Note_off_c, 2, 75, 67
4, 677184, Note_off_c, 2, 79, 67
4, 677248, Note_off_c, 2, 75, 67
4, 677248, Note_off_c, 2, 79, 67
4, 677248, Note_on_c, 2, 75, 67
4, 677312, Note_off_c, 2, 75, 67
4, 677312, Note_on_c, 2, 77, 67
4, 677376, Note_off_c, 2, 77, 67
4, 677376, Note_on_c, 2, 79, 67
4, 677440, Note_off_c, 2, 79, 67
4, 677504, Note_off_c, 2, 79, 67
4, 677504, Note_on_c, 2, 75, 67
4, 677504, Note_on_c, 2, 79, 67
4, 677568, Note_off_c, 2, 75, 67
4, 677568, Note_off_c, 2, 79, 67
4, 677632, Note_off_c, 2, 75, 67
4, 677632, Note_off_c, 2, 79, 67
4, 677632, Note_on_c, 2, 75, 67
4, 677632, Note_on_c, 2, 79, 67
4, 677696, Note_off_c, 2, 75, 67
4, 677696, Note_off_c, 2, 79, 67
4, 677760, Note_off_c, 2, 75, 67
4, 677760, Note_off_c, 2, 79, 67
4, 677760, Note_on_c, 2, 75, 67
4, 677824, Note_off_c, 2, 75, 67
4, 677824, Note_on_c, 2, 77, 67
4, 677888, Note_off_c, 2, 77, 67
4, 677888, Note_on_c, 2, 79, 67
4, 677952, Note_off_c, 2, 79, 67
4, 678016, Note_off_c, 2, 79, 67
4, 678016, Note_on_c, 2, 75, 67
4, 678016, Note_on_c, 2, 79, 67
4, 678080, Note_off_c, 2, 75, 67
4, 678080, Note_off_c, 2, 79, 67
4, 678144, Note_off_c, 2, 75, 67
4, 678144, Note_off_c, 2, 79, 67
4, 678144, Note_on_c, 2, 75, 67
4, 678144, Note_on_c, 2, 80, 67
4, 678176, Note_off_c, 2, 75, 67
4, 678176, Note_off_c, 2, 80, 67
4, 678208, Note_off_c, 2, 75, 67
4, 678208, Note_off_c, 2, 80, 67
4, 678208, Note_on_c, 2, 74, 67
4, 678240, Note_off_c, 2, 74, 67
4, 678272, Note_off_c, 2, 74, 67
4, 678272, Note_on_c, 2, 72, 67
4, 678304, Note_off_c, 2, 72, 67
4, 678336, Note_off_c, 2, 72, 67
4, 678336, Note_on_c, 2, 74, 67
4, 678336, Note_on_c, 2, 79, 67
4, 678368, Note_off_c, 2, 74, 67
4, 678368, Note_off_c, 2, 79, 67
4, 678400, Note_off_c, 2, 74, 67
4, 678400, Note_off_c, 2, 79, 67
4, 678400, Note_on_c, 2, 70, 67
4, 678400, Note_on_c, 2, 77, 67
4, 678464, Note_off_c, 2, 70, 67
4, 678464, Note_off_c, 2, 77, 67
4, 678528, Note_off_c, 2, 70, 67
4, 678528, Note_off_c, 2, 77, 67
4, 678528, Note_on_c, 2, 68, 67
4, 678528, Note_on_c, 2, 70, 67
4, 678592, Note_off_c, 2, 68, 67
4, 678592, Note_off_c, 2, 70, 67
4, 678656, Note_off_c, 2, 68, 67
4, 678656, Note_off_c, 2, 70, 67
4, 678656, Note_on_c, 2, 68, 67
4, 678656, Note_on_c, 2, 70, 67
4, 678720, Note_off_c, 2, 68, 67
4, 678720, Note_off_c, 2, 70, 67
4, 678784, Note_off_c, 2, 68, 67
4, 678784, Note_off_c, 2, 70, 67
4, 678784, Note_on_c, 2, 74, 67
4, 678848, Note_off_c, 2, 74, 67
4, 678848, Note_on_c, 2, 75, 67
4, 678912, Note_off_c, 2, 75, 67
4, 678912, Note_on_c, 2, 77, 67
4, 678976, Note_off_c, 2, 77, 67
4, 679040, Note_off_c, 2, 77, 67
4, 679040, Note_on_c, 2, 74, 67
4, 679040, Note_on_c, 2, 77, 67
4, 679104, Note_off_c, 2, 74, 67
4, 679104, Note_off_c, 2, 77, 67
4, 679168, Note_off_c, 2, 74, 67
4, 679168, Note_off_c, 2, 77, 67
4, 679168, Note_on_c, 2, 74, 67
4, 679168, Note_on_c, 2, 77, 67
4, 679232, Note_off_c, 2, 74, 67
4, 679232, Note_off_c, 2, 77, 67
4, 679296, Note_off_c, 2, 74, 67
4, 679296, Note_off_c, 2, 77, 67
4, 679296, Note_on_c, 2, 74, 67
4, 679360, Note_off_c, 2, 74, 67
4, 679360, Note_on_c, 2, 75, 67
4, 679424, Note_off_c, 2, 75, 67
4, 679424, Note_on_c, 2, 77, 67
4, 679488, Note_off_c, 2, 77, 67
4, 679552, Note_off_c, 2, 77, 67
4, 679552, Note_on_c, 2, 74, 67
4, 679552, Note_on_c, 2, 77, 67
4, 679616, Note_off_c, 2, 74, 67
4, 679616, Note_off_c, 2, 77, 67
4, 679680, Note_off_c, 2, 74, 67
4, 679680, Note_off_c, 2, 77, 67
4, 679680, Note_on_c, 2, 74, 67
4, 679680, Note_on_c, 2, 77, 67
4, 679744, Note_off_c, 2, 74, 67
4, 679744, Note_off_c, 2, 77, 67
4, 679808, Note_off_c, 2, 74, 67
4, 679808, Note_off_c, 2, 77, 67
4, 679808, Note_on_c, 2, 74, 67
4, 679872, Note_off_c, 2, 74, 67
4, 679872, Note_on_c, 2, 75, 67
4, 679936, Note_off_c, 2, 75, 67
4, 679936, Note_on_c, 2, 70, 67
4, 679936, Note_on_c, 2, 77, 67
4, 680000, Note_off_c, 2, 70, 67
4, 680000, Note_off_c, 2, 77, 67
4, 680064, Note_off_c, 2, 70, 67
4, 680064, Note_off_c, 2, 77, 67
4, 680064, Note_on_c, 2, 74, 67
4, 680064, Note_on_c, 2, 77, 67
4, 680128, Note_off_c, 2, 74, 67
4, 680128, Note_off_c, 2, 77, 67
4, 680192, Note_off_c, 2, 74, 67
4, 680192, Note_off_c, 2, 77, 67
4, 680192, Note_on_c, 2, 74, 67
4, 680192, Note_on_c, 2, 79, 67
4, 680224, Note_off_c, 2, 74, 67
4, 680224, Note_off_c, 2, 79, 67
4, 680256, Note_off_c, 2, 74, 67
4, 680256, Note_off_c, 2, 79, 67
4, 680256, Note_on_c, 2, 72, 67
4, 680256, Note_on_c, 2, 77, 67
4, 680288, Note_off_c, 2, 72, 67
4, 680288, Note_off_c, 2, 77, 67
4, 680320, Note_off_c, 2, 72, 67
4, 680320, Note_off_c, 2, 77, 67
4, 680320, Note_on_c, 2, 70, 67
4, 680320, Note_on_c, 2, 77, 67
4, 680352, Note_off_c, 2, 70, 67
4, 680352, Note_off_c, 2, 77, 67
4, 680384, Note_off_c, 2, 70, 67
4, 680384, Note_off_c, 2, 77, 67
4, 680384, Note_on_c, 2, 68, 67
4, 680384, Note_on_c, 2, 79, 67
4, 680416, Note_off_c, 2, 68, 67
4, 680416, Note_off_c, 2, 79, 67
4, 680448, Note_off_c, 2, 68, 67
4, 680448, Note_off_c, 2, 79, 67
4, 680448, Note_on_c, 2, 67, 67
4, 680448, Note_on_c, 2, 75, 67
4, 680512, Note_off_c, 2, 67, 67
4, 680512, Note_off_c, 2, 75, 67
4, 680576, Note_off_c, 2, 67, 67
4, 680576, Note_off_c, 2, 75, 67
4, 680576, Note_on_c, 2, 70, 67
4, 680640, Note_off_c, 2, 70, 67
4, 680704, Note_off_c, 2, 70, 67
4, 680704, Note_on_c, 2, 70, 67
4, 680704, Note_on_c, 2, 79, 67
4, 680768, Note_off_c, 2, 70, 67
4, 680768, Note_off_c, 2, 79, 67
4, 680832, Note_off_c, 2, 70, 67
4, 680832, Note_off_c, 2, 79, 67
4, 680832, Note_on_c, 2, 75, 67
4, 680896, Note_off_c, 2, 75, 67
4, 680896, Note_on_c, 2, 77, 67
4, 680960, Note_off_c, 2, 77, 67
4, 680960, Note_on_c, 2, 79, 67
4, 681024, Note_off_c, 2, 79, 67
4, 681088, Note_off_c, 2, 79, 67
4, 681088, Note_on_c, 2, 75, 67
4, 681088, Note_on_c, 2, 79, 67
4, 681152, Note_off_c, 2, 75, 67
4, 681152, Note_off_c, 2, 79, 67
4, 681216, Note_off_c, 2, 75, 67
4, 681216, Note_off_c, 2, 79, 67
4, 681216, Note_on_c, 2, 75, 67
4, 681216, Note_on_c, 2, 79, 67
4, 681280, Note_off_c, 2, 75, 67
4, 681280, Note_off_c, 2, 79, 67
4, 681344, Note_off_c, 2, 75, 67
4, 681344, Note_off_c, 2, 79, 67
4, 681344, Note_on_c, 2, 75, 67
4, 681408, Note_off_c, 2, 75, 67
4, 681408, Note_on_c, 2, 77, 67
4, 681472, Note_off_c, 2, 77, 67
4, 681472, Note_on_c, 2, 79, 67
4, 681536, Note_off_c, 2, 79, 67
4, 681600, Note_off_c, 2, 79, 67
4, 681600, Note_on_c, 2, 75, 67
4, 681600, Note_on_c, 2, 79, 67
4, 681664, Note_off_c, 2, 75, 67
4, 681664, Note_off_c, 2, 79, 67
4, 681728, Note_off_c, 2, 75, 67
4, 681728, Note_off_c, 2, 79, 67
4, 681728, Note_on_c, 2, 75, 67
4, 681728, Note_on_c, 2, 79, 67
4, 681792, Note_off_c, 2, 75, 67
4, 681792, Note_off_c, 2, 79, 67
4, 681856, Note_off_c, 2, 75, 67
4, 681856, Note_off_c, 2, 79, 67
4, 681856, Note_on_c, 2, 75, 67
4, 681920, Note_off_c, 2, 75, 67
4, 681920, Note_on_c, 2, 77, 67
4, 681984, Note_off_c, 2, 77, 67
4, 681984, Note_on_c, 2, 79, 67
4, 682048, Note_off_c, 2, 79, 67
4, 682112, Note_off_c, 2, 79, 67
4, 682112, Note_on_c, 2, 75, 67
4, 682112, Note_on_c, 2, 79, 67
4, 682176, Note_off_c, 2, 75, 67
4, 682176, Note_off_c, 2, 79, 67
4, 682240, Note_off_c, 2, 75, 67
4, 682240, Note_off_c, 2, 79, 67
4, 682240, Note_on_c, 2, 75, 67
4, 682240, Note_on_c, 2, 80, 67
4, 682272, Note_off_c, 2, 75, 67
4, 682272, Note_off_c, 2, 80, 67
4, 682304, Note_off_c, 2, 75, 67
4, 682304, Note_off_c, 2, 80, 67
4, 682304, Note_on_c, 2, 74, 67
4, 682368, Note_off_c, 2, 74, 67
4, 682368, Note_on_c, 2, 72, 67
4, 682432, Note_off_c, 2, 72, 67
4, 682432, Note_on_c, 2, 74, 67
4, 682432, Note_on_c, 2, 79, 67
4, 682464, Note_off_c, 2, 74, 67
4, 682464, Note_off_c, 2, 79, 67
4, 682496, Note_off_c, 2, 74, 67
4, 682496, Note_off_c, 2, 79, 67
4, 682496, Note_on_c, 2, 70, 67
4, 682496, Note_on_c, 2, 77, 67
4, 682560, Note_off_c, 2, 70, 67
4, 682560, Note_off_c, 2, 77, 67
4, 682624, Note_off_c, 2, 70, 67
4, 682624, Note_off_c, 2, 77, 67
4, 682624, Note_on_c, 2, 68, 67
4, 682624, Note_on_c, 2, 70, 67
4, 682688, Note_off_c, 2, 68, 67
4, 682688, Note_off_c, 2, 70, 67
4, 682752, Note_off_c, 2, 68, 67
4, 682752, Note_off_c, 2, 70, 67
4, 682752, Note_on_c, 2, 68, 67
4, 682752, Note_on_c, 2, 70, 67
4, 682816, Note_off_c, 2, 68, 67
4, 682816, Note_off_c, 2, 70, 67
4, 682880, Note_off_c, 2, 68, 67
4, 682880, Note_off_c, 2, 70, 67
4, 682880, Note_on_c, 2, 74, 67
4, 682944, Note_off_c, 2, 74, 67
4, 682944, Note_on_c, 2, 75, 67
4, 683008, Note_off_c, 2, 75, 67
4, 683008, Note_on_c, 2, 77, 67
4, 683136, Note_off_c, 2, 77, 67
4, 683136, Note_on_c, 2, 74, 67
4, 683136, Note_on_c, 2, 80, 67
4, 683200, Note_off_c, 2, 74, 67
4, 683200, Note_off_c, 2, 80, 67
4, 683264, Note_off_c, 2, 74, 67
4, 683264, Note_off_c, 2, 80, 67
4, 683264, Note_on_c, 2, 74, 67
4, 683264, Note_on_c, 2, 79, 67
4, 683328, Note_off_c, 2, 74, 67
4, 683328, Note_off_c, 2, 79, 67
4, 683392, Note_off_c, 2, 74, 67
4, 683392, Note_off_c, 2, 79, 67
4, 683392, Note_on_c, 2, 77, 67
4, 683456, Note_off_c, 2, 77, 67
4, 683520, Note_off_c, 2, 77, 67
4, 683520, Note_on_c, 2, 75, 67
4, 683584, Note_off_c, 2, 75, 67
4, 683648, Note_off_c, 2, 75, 67
4, 683648, Note_on_c, 2, 70, 67
4, 683648, Note_on_c, 2, 74, 67
4, 683712, Note_off_c, 2, 70, 67
4, 683712, Note_off_c, 2, 74, 67
4, 683776, Note_off_c, 2, 70, 67
4, 683776, Note_off_c, 2, 74, 67
4, 683776, Note_on_c, 2, 72, 67
4, 683776, Note_on_c, 2, 74, 67
4, 683840, Note_off_c, 2, 72, 67
4, 683840, Note_off_c, 2, 74, 67
4, 683904, Note_off_c, 2, 72, 67
4, 683904, Note_off_c, 2, 74, 67
4, 683904, Note_on_c, 2, 70, 67
4, 683904, Note_on_c, 2, 74, 67
4, 683968, Note_off_c, 2, 70, 67
4, 683968, Note_off_c, 2, 74, 67
4, 684032, Note_off_c, 2, 70, 67
4, 684032, Note_off_c, 2, 74, 67
4, 684032, Note_on_c, 2, 80, 67
4, 684032, Note_on_c, 2, 84, 67
4, 684288, Note_off_c, 2, 80, 67
4, 684288, Note_off_c, 2, 84, 67
4, 684288, Note_on_c, 2, 70, 67
4, 684288, Note_on_c, 2, 74, 67
4, 684304, Note_off_c, 2, 70, 67
4, 684304, Note_off_c, 2, 74, 67
4, 684320, Note_off_c, 2, 70, 67
4, 684320, Note_off_c, 2, 74, 67
4, 684320, Note_on_c, 2, 72, 67
4, 684320, Note_on_c, 2, 75, 67
4, 684336, Note_off_c, 2, 72, 67
4, 684336, Note_off_c, 2, 75, 67
4, 684352, Note_off_c, 2, 72, 67
4, 684352, Note_off_c, 2, 75, 67
4, 684352, Note_on_c, 2, 70, 67
4, 684352, Note_on_c, 2, 74, 67
4, 684384, Note_off_c, 2, 70, 67
4, 684384, Note_off_c, 2, 74, 67
4, 684416, Note_off_c, 2, 70, 67
4, 684416, Note_off_c, 2, 74, 67
4, 684416, Note_on_c, 2, 68, 67
4, 684416, Note_on_c, 2, 72, 67
4, 684448, Note_off_c, 2, 68, 67
4, 684448, Note_off_c, 2, 72, 67
4, 684480, Note_off_c, 2, 68, 67
4, 684480, Note_off_c, 2, 72, 67
4, 684480, Note_on_c, 2, 74, 67
4, 684480, Note_on_c, 2, 77, 67
4, 684512, Note_off_c, 2, 74, 67
4, 684512, Note_off_c, 2, 77, 67
4, 684544, Note_off_c, 2, 74, 67
4, 684544, Note_off_c, 2, 77, 67
4, 684544, Note_on_c, 2, 75, 67
4, 684544, Note_on_c, 2, 79, 67
4, 684672, Note_off_c, 2, 75, 67
4, 684672, Note_off_c, 2, 79, 67
4, 684672, Note_on_c, 2, 70, 67
4, 684736, Note_off_c, 2, 70, 67
4, 684800, Note_off_c, 2, 70, 67
4, 684800, Note_on_c, 2, 70, 67
4, 684864, Note_off_c, 2, 70, 67
4, 684928, Note_off_c, 2, 70, 67
4, 684928, Note_on_c, 2, 75, 67
4, 684928, Note_on_c, 2, 79, 67
4, 684992, Note_off_c, 2, 75, 67
4, 684992, Note_off_c, 2, 79, 67
4, 684992, Note_on_c, 2, 77, 67
4, 684992, Note_on_c, 2, 80, 67
4, 685056, Note_off_c, 2, 77, 67
4, 685056, Note_off_c, 2, 80, 67
4, 685056, Note_on_c, 2, 79, 67
4, 685056, Note_on_c, 2, 82, 67
4, 685120, Note_off_c, 2, 79, 67
4, 685120, Note_off_c, 2, 82, 67
4, 685184, Note_off_c, 2, 79, 67
4, 685184, Note_off_c, 2, 82, 67
4, 685184, Note_on_c, 2, 79, 67
4, 685184, Note_on_c, 2, 82, 67
4, 685248, Note_off_c, 2, 79, 67
4, 685248, Note_off_c, 2, 82, 67
4, 685312, Note_off_c, 2, 79, 67
4, 685312, Note_off_c, 2, 82, 67
4, 685312, Note_on_c, 2, 70, 67
4, 685312, Note_on_c, 2, 79, 67
4, 685376, Note_off_c, 2, 70, 67
4, 685376, Note_off_c, 2, 79, 67
4, 685440, Note_off_c, 2, 70, 67
4, 685440, Note_off_c, 2, 79, 67
4, 685440, Note_on_c, 2, 70, 67
4, 685440, Note_on_c, 2, 75, 67
4, 685504, Note_off_c, 2, 70, 67
4, 685504, Note_off_c, 2, 75, 67
4, 685568, Note_off_c, 2, 70, 67
4, 685568, Note_off_c, 2, 75, 67
4, 685568, Note_on_c, 2, 84, 67
4, 685568, Note_on_c, 2, 87, 67
4, 685632, Note_off_c, 2, 84, 67
4, 685632, Note_off_c, 2, 87, 67
4, 685696, Note_off_c, 2, 84, 67
4, 685696, Note_off_c, 2, 87, 67
4, 685696, Note_on_c, 2, 82, 67
4, 685696, Note_on_c, 2, 86, 67
4, 685760, Note_off_c, 2, 82, 67
4, 685760, Note_off_c, 2, 86, 67
4, 685824, Note_off_c, 2, 82, 67
4, 685824, Note_off_c, 2, 86, 67
4, 685824, Note_on_c, 2, 80, 67
4, 685824, Note_on_c, 2, 84, 67
4, 685888, Note_off_c, 2, 80, 67
4, 685888, Note_off_c, 2, 84, 67
4, 685952, Note_off_c, 2, 80, 67
4, 685952, Note_off_c, 2, 84, 67
4, 685952, Note_on_c, 2, 79, 67
4, 685952, Note_on_c, 2, 87, 67
4, 686016, Note_off_c, 2, 79, 67
4, 686016, Note_off_c, 2, 87, 67
4, 686080, Note_off_c, 2, 79, 67
4, 686080, Note_off_c, 2, 87, 67
4, 686080, Note_on_c, 2, 75, 67
4, 686080, Note_on_c, 2, 82, 67
4, 686144, Note_off_c, 2, 75, 67
4, 686144, Note_off_c, 2, 82, 67
4, 686208, Note_off_c, 2, 75, 67
4, 686208, Note_off_c, 2, 82, 67
4, 686208, Note_on_c, 2, 79, 67
4, 686272, Note_off_c, 2, 79, 67
4, 686336, Note_off_c, 2, 79, 67
4, 686336, Note_on_c, 2, 67, 67
4, 686336, Note_on_c, 2, 75, 67
4, 686400, Note_off_c, 2, 67, 67
4, 686400, Note_off_c, 2, 75, 67
4, 686464, Note_off_c, 2, 67, 67
4, 686464, Note_off_c, 2, 75, 67
4, 686464, Note_on_c, 2, 68, 67
4, 686464, Note_on_c, 2, 74, 67
4, 686496, Note_off_c, 2, 68, 67
4, 686496, Note_off_c, 2, 74, 67
4, 686528, Note_off_c, 2, 68, 67
4, 686528, Note_off_c, 2, 74, 67
4, 686528, Note_on_c, 2, 74, 67
4, 686528, Note_on_c, 2, 79, 67
4, 686560, Note_off_c, 2, 74, 67
4, 686560, Note_off_c, 2, 79, 67
4, 686592, Note_off_c, 2, 74, 67
4, 686592, Note_off_c, 2, 79, 67
4, 686592, Note_on_c, 2, 70, 67
4, 686592, Note_on_c, 2, 77, 67
4, 686656, Note_off_c, 2, 70, 67
4, 686656, Note_off_c, 2, 77, 67
4, 686720, Note_off_c, 2, 70, 67
4, 686720, Note_off_c, 2, 77, 67
4, 686720, Note_on_c, 2, 65, 67
4, 686720, Note_on_c, 2, 70, 67
4, 686784, Note_off_c, 2, 65, 67
4, 686784, Note_off_c, 2, 70, 67
4, 686848, Note_off_c, 2, 65, 67
4, 686848, Note_off_c, 2, 70, 67
4, 686848, Note_on_c, 2, 68, 67
4, 686848, Note_on_c, 2, 70, 67
4, 686912, Note_off_c, 2, 68, 67
4, 686912, Note_off_c, 2, 70, 67
4, 686976, Note_off_c, 2, 68, 67
4, 686976, Note_off_c, 2, 70, 67
4, 686976, Note_on_c, 2, 70, 67
4, 686976, Note_on_c, 2, 79, 67
4, 687040, Note_off_c, 2, 70, 67
4, 687040, Note_off_c, 2, 79, 67
4, 687040, Note_on_c, 2, 77, 67
4, 687040, Note_on_c, 2, 80, 67
4, 687104, Note_off_c, 2, 77, 67
4, 687104, Note_off_c, 2, 80, 67
4, 687104, Note_on_c, 2, 79, 67
4, 687104, Note_on_c, 2, 82, 67
4, 687168, Note_off_c, 2, 79, 67
4, 687168, Note_off_c, 2, 82, 67
4, 687232, Note_off_c, 2, 79, 67
4, 687232, Note_off_c, 2, 82, 67
4, 687232, Note_on_c, 2, 79, 67
4, 687232, Note_on_c, 2, 82, 67
4, 687296, Note_off_c, 2, 79, 67
4, 687296, Note_off_c, 2, 82, 67
4, 687360, Note_off_c, 2, 79, 67
4, 687360, Note_off_c, 2, 82, 67
4, 687360, Note_on_c, 2, 70, 67
4, 687360, Note_on_c, 2, 79, 67
4, 687424, Note_off_c, 2, 70, 67
4, 687424, Note_off_c, 2, 79, 67
4, 687488, Note_off_c, 2, 70, 67
4, 687488, Note_off_c, 2, 79, 67
4, 687488, Note_on_c, 2, 75, 67
4, 687488, Note_on_c, 2, 82, 67
4, 687552, Note_off_c, 2, 75, 67
4, 687552, Note_off_c, 2, 82, 67
4, 687616, Note_off_c, 2, 75, 67
4, 687616, Note_off_c, 2, 82, 67
4, 687616, Note_on_c, 2, 84, 67
4, 687616, Note_on_c, 2, 87, 67
4, 687680, Note_off_c, 2, 84, 67
4, 687680, Note_off_c, 2, 87, 67
4, 687744, Note_off_c, 2, 84, 67
4, 687744, Note_off_c, 2, 87, 67
4, 687744, Note_on_c, 2, 82, 67
4, 687744, Note_on_c, 2, 86, 67
4, 687808, Note_off_c, 2, 82, 67
4, 687808, Note_off_c, 2, 86, 67
4, 687872, Note_off_c, 2, 82, 67
4, 687872, Note_off_c, 2, 86, 67
4, 687872, Note_on_c, 2, 80, 67
4, 687872, Note_on_c, 2, 84, 67
4, 687936, Note_off_c, 2, 80, 67
4, 687936, Note_off_c, 2, 84, 67
4, 688000, Note_off_c, 2, 80, 67
4, 688000, Note_off_c, 2, 84, 67
4, 688000, Note_on_c, 2, 70, 67
4, 688000, Note_on_c, 2, 74, 67
4, 688032, Note_off_c, 2, 70, 67
4, 688032, Note_off_c, 2, 74, 67
4, 688064, Note_off_c, 2, 70, 67
4, 688064, Note_off_c, 2, 74, 67
4, 688064, Note_on_c, 2, 77, 67
4, 688064, Note_on_c, 2, 80, 67
4, 688096, Note_off_c, 2, 77, 67
4, 688096, Note_off_c, 2, 80, 67
4, 688128, Note_off_c, 2, 77, 67
4, 688128, Note_off_c, 2, 80, 67
4, 688128, Note_on_c, 2, 77, 67
4, 688128, Note_on_c, 2, 82, 67
4, 688192, Note_off_c, 2, 77, 67
4, 688192, Note_off_c, 2, 82, 67
4, 688256, Note_off_c, 2, 77, 67
4, 688256, Note_off_c, 2, 82, 67
4, 688256, Note_on_c, 2, 80, 67
4, 688256, Note_on_c, 2, 87, 67
4, 688320, Note_off_c, 2, 80, 67
4, 688320, Note_off_c, 2, 87, 67
4, 688384, Note_off_c, 2, 80, 67
4, 688384, Note_off_c, 2, 87, 67
4, 688384, Note_on_c, 2, 82, 67
4, 688384, Note_on_c, 2, 86, 67
4, 688448, Note_off_c, 2, 82, 67
4, 688448, Note_off_c, 2, 86, 67
4, 688512, Note_off_c, 2, 82, 67
4, 688512, Note_off_c, 2, 86, 67
4, 688512, Note_on_c, 2, 80, 67
4, 688512, Note_on_c, 2, 89, 67
4, 688576, Note_off_c, 2, 80, 67
4, 688576, Note_off_c, 2, 89, 67
4, 688640, Note_off_c, 2, 80, 67
4, 688640, Note_off_c, 2, 89, 67
4, 688640, Note_on_c, 2, 79, 67
4, 688640, Note_on_c, 2, 87, 67
4, 688704, Note_off_c, 2, 79, 67
4, 688704, Note_off_c, 2, 87, 67
4, 688768, Note_off_c, 2, 79, 67
4, 688768, Note_off_c, 2, 87, 67
4, 688768, Note_on_c, 2, 70, 67
4, 688768, Note_on_c, 2, 82, 67
4, 688832, Note_off_c, 2, 70, 67
4, 688832, Note_off_c, 2, 82, 67
4, 688896, Note_off_c, 2, 70, 67
4, 688896, Note_off_c, 2, 82, 67
4, 688896, Note_on_c, 2, 70, 67
4, 688896, Note_on_c, 2, 82, 67
4, 688960, Note_off_c, 2, 70, 67
4, 688960, Note_off_c, 2, 82, 67
4, 689024, Note_off_c, 2, 70, 67
4, 689024, Note_off_c, 2, 82, 67
4, 689024, Note_on_c, 2, 75, 67
4, 689088, Note_off_c, 2, 75, 67
4, 689088, Note_on_c, 2, 77, 67
4, 689152, Note_off_c, 2, 77, 67
4, 689152, Note_on_c, 2, 79, 67
4, 689216, Note_off_c, 2, 79, 67
4, 689280, Note_off_c, 2, 79, 67
4, 689280, Note_on_c, 2, 75, 67
4, 689280, Note_on_c, 2, 79, 67
4, 689344, Note_off_c, 2, 75, 67
4, 689344, Note_off_c, 2, 79, 67
4, 689408, Note_off_c, 2, 75, 67
4, 689408, Note_off_c, 2, 79, 67
4, 689408, Note_on_c, 2, 75, 67
4, 689408, Note_on_c, 2, 79, 67
4, 689472, Note_off_c, 2, 75, 67
4, 689472, Note_off_c, 2, 79, 67
4, 689536, Note_off_c, 2, 75, 67
4, 689536, Note_off_c, 2, 79, 67
4, 689536, Note_on_c, 2, 75, 67
4, 689600, Note_off_c, 2, 75, 67
4, 689600, Note_on_c, 2, 77, 67
4, 689664, Note_off_c, 2, 77, 67
4, 689664, Note_on_c, 2, 79, 67
4, 689728, Note_off_c, 2, 79, 67
4, 689792, Note_off_c, 2, 79, 67
4, 689792, Note_on_c, 2, 75, 67
4, 689792, Note_on_c, 2, 79, 67
4, 689856, Note_off_c, 2, 75, 67
4, 689856, Note_off_c, 2, 79, 67
4, 689920, Note_off_c, 2, 75, 67
4, 689920, Note_off_c, 2, 79, 67
4, 689920, Note_on_c, 2, 75, 67
4, 689920, Note_on_c, 2, 79, 67
4, 689984, Note_off_c, 2, 75, 67
4, 689984, Note_off_c, 2, 79, 67
4, 690048, Note_off_c, 2, 75, 67
4, 690048, Note_off_c, 2, 79, 67
4, 690048, Note_on_c, 2, 75, 67
4, 690112, Note_off_c, 2, 75, 67
4, 690112, Note_on_c, 2, 77, 67
4, 690176, Note_off_c, 2, 77, 67
4, 690176, Note_on_c, 2, 79, 67
4, 690240, Note_off_c, 2, 79, 67
4, 690304, Note_off_c, 2, 79, 67
4, 690304, Note_on_c, 2, 75, 67
4, 690304, Note_on_c, 2, 79, 67
4, 690368, Note_off_c, 2, 75, 67
4, 690368, Note_off_c, 2, 79, 67
4, 690432, Note_off_c, 2, 75, 67
4, 690432, Note_off_c, 2, 79, 67
4, 690432, Note_on_c, 2, 75, 67
4, 690432, Note_on_c, 2, 80, 67
4, 690464, Note_off_c, 2, 75, 67
4, 690464, Note_off_c, 2, 80, 67
4, 690496, Note_off_c, 2, 75, 67
4, 690496, Note_off_c, 2, 80, 67
4, 690496, Note_on_c, 2, 74, 67
4, 690528, Note_off_c, 2, 74, 67
4, 690560, Note_off_c, 2, 74, 67
4, 690560, Note_on_c, 2, 72, 67
4, 690592, Note_off_c, 2, 72, 67
4, 690624, Note_off_c, 2, 72, 67
4, 690624, Note_on_c, 2, 74, 67
4, 690624, Note_on_c, 2, 79, 67
4, 690656, Note_off_c, 2, 74, 67
4, 690656, Note_off_c, 2, 79, 67
4, 690688, Note_off_c, 2, 74, 67
4, 690688, Note_off_c, 2, 79, 67
4, 690688, Note_on_c, 2, 70, 67
4, 690688, Note_on_c, 2, 77, 67
4, 690752, Note_off_c, 2, 70, 67
4, 690752, Note_off_c, 2, 77, 67
4, 690816, Note_off_c, 2, 70, 67
4, 690816, Note_off_c, 2, 77, 67
4, 690816, Note_on_c, 2, 68, 67
4, 690816, Note_on_c, 2, 70, 67
4, 690880, Note_off_c, 2, 68, 67
4, 690880, Note_off_c, 2, 70, 67
4, 690944, Note_off_c, 2, 68, 67
4, 690944, Note_off_c, 2, 70, 67
4, 690944, Note_on_c, 2, 68, 67
4, 690944, Note_on_c, 2, 70, 67
4, 691008, Note_off_c, 2, 68, 67
4, 691008, Note_off_c, 2, 70, 67
4, 691072, Note_off_c, 2, 68, 67
4, 691072, Note_off_c, 2, 70, 67
4, 691072, Note_on_c, 2, 74, 67
4, 691136, Note_off_c, 2, 74, 67
4, 691136, Note_on_c, 2, 75, 67
4, 691200, Note_off_c, 2, 75, 67
4, 691200, Note_on_c, 2, 77, 67
4, 691264, Note_off_c, 2, 77, 67
4, 691328, Note_off_c, 2, 77, 67
4, 691328, Note_on_c, 2, 74, 67
4, 691328, Note_on_c, 2, 77, 67
4, 691392, Note_off_c, 2, 74, 67
4, 691392, Note_off_c, 2, 77, 67
4, 691456, Note_off_c, 2, 74, 67
4, 691456, Note_off_c, 2, 77, 67
4, 691456, Note_on_c, 2, 74, 67
4, 691456, Note_on_c, 2, 77, 67
4, 691520, Note_off_c, 2, 74, 67
4, 691520, Note_off_c, 2, 77, 67
4, 691584, Note_off_c, 2, 74, 67
4, 691584, Note_off_c, 2, 77, 67
4, 691584, Note_on_c, 2, 74, 67
4, 691648, Note_off_c, 2, 74, 67
4, 691648, Note_on_c, 2, 75, 67
4, 691712, Note_off_c, 2, 75, 67
4, 691712, Note_on_c, 2, 77, 67
4, 691776, Note_off_c, 2, 77, 67
4, 691840, Note_off_c, 2, 77, 67
4, 691840, Note_on_c, 2, 74, 67
4, 691840, Note_on_c, 2, 77, 67
4, 691904, Note_off_c, 2, 74, 67
4, 691904, Note_off_c, 2, 77, 67
4, 691968, Note_off_c, 2, 74, 67
4, 691968, Note_off_c, 2, 77, 67
4, 691968, Note_on_c, 2, 74, 67
4, 691968, Note_on_c, 2, 77, 67
4, 692032, Note_off_c, 2, 74, 67
4, 692032, Note_off_c, 2, 77, 67
4, 692096, Note_off_c, 2, 74, 67
4, 692096, Note_off_c, 2, 77, 67
4, 692096, Note_on_c, 2, 74, 67
4, 692160, Note_off_c, 2, 74, 67
4, 692160, Note_on_c, 2, 75, 67
4, 692224, Note_off_c, 2, 75, 67
4, 692224, Note_on_c, 2, 70, 67
4, 692224, Note_on_c, 2, 77, 67
4, 692288, Note_off_c, 2, 70, 67
4, 692288, Note_off_c, 2, 77, 67
4, 692352, Note_off_c, 2, 70, 67
4, 692352, Note_off_c, 2, 77, 67
4, 692352, Note_on_c, 2, 74, 67
4, 692352, Note_on_c, 2, 77, 67
4, 692416, Note_off_c, 2, 74, 67
4, 692416, Note_off_c, 2, 77, 67
4, 692480, Note_off_c, 2, 74, 67
4, 692480, Note_off_c, 2, 77, 67
4, 692480, Note_on_c, 2, 74, 67
4, 692480, Note_on_c, 2, 79, 67
4, 692512, Note_off_c, 2, 74, 67
4, 692512, Note_off_c, 2, 79, 67
4, 692544, Note_off_c, 2, 74, 67
4, 692544, Note_off_c, 2, 79, 67
4, 692544, Note_on_c, 2, 72, 67
4, 692544, Note_on_c, 2, 77, 67
4, 692576, Note_off_c, 2, 72, 67
4, 692576, Note_off_c, 2, 77, 67
4, 692608, Note_off_c, 2, 72, 67
4, 692608, Note_off_c, 2, 77, 67
4, 692608, Note_on_c, 2, 70, 67
4, 692608, Note_on_c, 2, 77, 67
4, 692640, Note_off_c, 2, 70, 67
4, 692640, Note_off_c, 2, 77, 67
4, 692672, Note_off_c, 2, 70, 67
4, 692672, Note_off_c, 2, 77, 67
4, 692672, Note_on_c, 2, 68, 67
4, 692672, Note_on_c, 2, 79, 67
4, 692704, Note_off_c, 2, 68, 67
4, 692704, Note_off_c, 2, 79, 67
4, 692736, Note_off_c, 2, 68, 67
4, 692736, Note_off_c, 2, 79, 67
4, 692736, Note_on_c, 2, 67, 67
4, 692736, Note_on_c, 2, 75, 67
4, 692800, Note_off_c, 2, 67, 67
4, 692800, Note_off_c, 2, 75, 67
4, 692864, Note_off_c, 2, 67, 67
4, 692864, Note_off_c, 2, 75, 67
4, 692864, Note_on_c, 2, 70, 67
4, 692928, Note_off_c, 2, 70, 67
4, 692992, Note_off_c, 2, 70, 67
4, 692992, Note_on_c, 2, 70, 67
4, 692992, Note_on_c, 2, 79, 67
4, 693056, Note_off_c, 2, 70, 67
4, 693056, Note_off_c, 2, 79, 67
4, 693120, Note_off_c, 2, 70, 67
4, 693120, Note_off_c, 2, 79, 67
4, 693120, Note_on_c, 2, 75, 67
4, 693184, Note_off_c, 2, 75, 67
4, 693184, Note_on_c, 2, 77, 67
4, 693248, Note_off_c, 2, 77, 67
4, 693248, Note_on_c, 2, 79, 67
4, 693312, Note_off_c, 2, 79, 67
4, 693376, Note_off_c, 2, 79, 67
4, 693376, Note_on_c, 2, 75, 67
4, 693376, Note_on_c, 2, 79, 67
4, 693440, Note_off_c, 2, 75, 67
4, 693440, Note_off_c, 2, 79, 67
4, 693504, Note_off_c, 2, 75, 67
4, 693504, Note_off_c, 2, 79, 67
4, 693504, Note_on_c, 2, 75, 67
4, 693504, Note_on_c, 2, 79, 67
4, 693568, Note_off_c, 2, 75, 67
4, 693568, Note_off_c, 2, 79, 67
4, 693632, Note_off_c, 2, 75, 67
4, 693632, Note_off_c, 2, 79, 67
4, 693632, Note_on_c, 2, 75, 67
4, 693696, Note_off_c, 2, 75, 67
4, 693696, Note_on_c, 2, 77, 67
4, 693760, Note_off_c, 2, 77, 67
4, 693760, Note_on_c, 2, 79, 67
4, 693824, Note_off_c, 2, 79, 67
4, 693888, Note_off_c, 2, 79, 67
4, 693888, Note_on_c, 2, 75, 67
4, 693888, Note_on_c, 2, 79, 67
4, 693952, Note_off_c, 2, 75, 67
4, 693952, Note_off_c, 2, 79, 67
4, 694016, Note_off_c, 2, 75, 67
4, 694016, Note_off_c, 2, 79, 67
4, 694016, Note_on_c, 2, 75, 67
4, 694016, Note_on_c, 2, 79, 67
4, 694080, Note_off_c, 2, 75, 67
4, 694080, Note_off_c, 2, 79, 67
4, 694144, Note_off_c, 2, 75, 67
4, 694144, Note_off_c, 2, 79, 67
4, 694144, Note_on_c, 2, 75, 67
4, 694208, Note_off_c, 2, 75, 67
4, 694208, Note_on_c, 2, 77, 67
4, 694272, Note_off_c, 2, 77, 67
4, 694272, Note_on_c, 2, 79, 67
4, 694336, Note_off_c, 2, 79, 67
4, 694400, Note_off_c, 2, 79, 67
4, 694400, Note_on_c, 2, 75, 67
4, 694400, Note_on_c, 2, 79, 67
4, 694464, Note_off_c, 2, 75, 67
4, 694464, Note_off_c, 2, 79, 67
4, 694528, Note_off_c, 2, 75, 67
4, 694528, Note_off_c, 2, 79, 67
4, 694528, Note_on_c, 2, 75, 67
4, 694528, Note_on_c, 2, 80, 67
4, 694560, Note_off_c, 2, 75, 67
4, 694560, Note_off_c, 2, 80, 67
4, 694592, Note_off_c, 2, 75, 67
4, 694592, Note_off_c, 2, 80, 67
4, 694592, Note_on_c, 2, 74, 67
4, 694656, Note_off_c, 2, 74, 67
4, 694656, Note_on_c, 2, 72, 67
4, 694720, Note_off_c, 2, 72, 67
4, 694720, Note_on_c, 2, 74, 67
4, 694720, Note_on_c, 2, 79, 67
4, 694752, Note_off_c, 2, 74, 67
4, 694752, Note_off_c, 2, 79, 67
4, 694784, Note_off_c, 2, 74, 67
4, 694784, Note_off_c, 2, 79, 67
4, 694784, Note_on_c, 2, 70, 67
4, 694784, Note_on_c, 2, 77, 67
4, 694848, Note_off_c, 2, 70, 67
4, 694848, Note_off_c, 2, 77, 67
4, 694912, Note_off_c, 2, 70, 67
4, 694912, Note_off_c, 2, 77, 67
4, 694912, Note_on_c, 2, 68, 67
4, 694912, Note_on_c, 2, 70, 67
4, 694976, Note_off_c, 2, 68, 67
4, 694976, Note_off_c, 2, 70, 67
4, 695040, Note_off_c, 2, 68, 67
4, 695040, Note_off_c, 2, 70, 67
4, 695040, Note_on_c, 2, 68, 67
4, 695040, Note_on_c, 2, 70, 67
4, 695104, Note_off_c, 2, 68, 67
4, 695104, Note_off_c, 2, 70, 67
4, 695168, Note_off_c, 2, 68, 67
4, 695168, Note_off_c, 2, 70, 67
4, 695168, Note_on_c, 2, 74, 67
4, 695232, Note_off_c, 2, 74, 67
4, 695232, Note_on_c, 2, 75, 67
4, 695296, Note_off_c, 2, 75, 67
4, 695296, Note_on_c, 2, 77, 67
4, 695424, Note_off_c, 2, 77, 67
4, 695424, Note_on_c, 2, 74, 67
4, 695424, Note_on_c, 2, 80, 67
4, 695488, Note_off_c, 2, 74, 67
4, 695488, Note_off_c, 2, 80, 67
4, 695552, Note_off_c, 2, 74, 67
4, 695552, Note_off_c, 2, 80, 67
4, 695552, Note_on_c, 2, 74, 67
4, 695552, Note_on_c, 2, 79, 67
4, 695616, Note_off_c, 2, 74, 67
4, 695616, Note_off_c, 2, 79, 67
4, 695680, Note_off_c, 2, 74, 67
4, 695680, Note_off_c, 2, 79, 67
4, 695680, Note_on_c, 2, 77, 67
4, 695744, Note_off_c, 2, 77, 67
4, 695808, Note_off_c, 2, 77, 67
4, 695808, Note_on_c, 2, 75, 67
4, 695872, Note_off_c, 2, 75, 67
4, 695936, Note_off_c, 2, 75, 67
4, 695936, Note_on_c, 2, 70, 67
4, 695936, Note_on_c, 2, 74, 67
4, 696000, Note_off_c, 2, 70, 67
4, 696000, Note_off_c, 2, 74, 67
4, 696064, Note_off_c, 2, 70, 67
4, 696064, Note_off_c, 2, 74, 67
4, 696064, Note_on_c, 2, 72, 67
4, 696064, Note_on_c, 2, 74, 67
4, 696128, Note_off_c, 2, 72, 67
4, 696128, Note_off_c, 2, 74, 67
4, 696192, Note_off_c, 2, 72, 67
4, 696192, Note_off_c, 2, 74, 67
4, 696192, Note_on_c, 2, 70, 67
4, 696192, Note_on_c, 2, 74, 67
4, 696256, Note_off_c, 2, 70, 67
4, 696256, Note_off_c, 2, 74, 67
4, 696320, Note_off_c, 2, 70, 67
4, 696320, Note_off_c, 2, 74, 67
4, 696320, Note_on_c, 2, 80, 67
4, 696320, Note_on_c, 2, 84, 67
4, 696576, Note_off_c, 2, 80, 67
4, 696576, Note_off_c, 2, 84, 67
4, 696576, Note_on_c, 2, 70, 67
4, 696576, Note_on_c, 2, 74, 67
4, 696592, Note_off_c, 2, 70, 67
4, 696592, Note_off_c, 2, 74, 67
4, 696608, Note_off_c, 2, 70, 67
4, 696608, Note_off_c, 2, 74, 67
4, 696608, Note_on_c, 2, 72, 67
4, 696608, Note_on_c, 2, 75, 67
4, 696624, Note_off_c, 2, 72, 67
4, 696624, Note_off_c, 2, 75, 67
4, 696640, Note_off_c, 2, 72, 67
4, 696640, Note_off_c, 2, 75, 67
4, 696640, Note_on_c, 2, 70, 67
4, 696640, Note_on_c, 2, 74, 67
4, 696672, Note_off_c, 2, 70, 67
4, 696672, Note_off_c, 2, 74, 67
4, 696704, Note_off_c, 2, 70, 67
4, 696704, Note_off_c, 2, 74, 67
4, 696704, Note_on_c, 2, 68, 67
4, 696704, Note_on_c, 2, 72, 67
4, 696736, Note_off_c, 2, 68, 67
4, 696736, Note_off_c, 2, 72, 67
4, 696768, Note_off_c, 2, 68, 67
4, 696768, Note_off_c, 2, 72, 67
4, 696768, Note_on_c, 2, 74, 67
4, 696768, Note_on_c, 2, 77, 67
4, 696800, Note_off_c, 2, 74, 67
4, 696800, Note_off_c, 2, 77, 67
4, 696832, Note_off_c, 2, 74, 67
4, 696832, Note_off_c, 2, 77, 67
4, 696832, Note_on_c, 2, 75, 67
4, 696832, Note_on_c, 2, 79, 67
4, 696960, Note_off_c, 2, 75, 67
4, 696960, Note_off_c, 2, 79, 67
4, 696960, Note_on_c, 2, 70, 67
4, 697024, Note_off_c, 2, 70, 67
4, 697088, Note_off_c, 2, 70, 67
4, 697088, Note_on_c, 2, 70, 67
4, 697152, Note_off_c, 2, 70, 67
4, 697216, Note_off_c, 2, 70, 67
4, 697216, Note_on_c, 2, 75, 67
4, 697216, Note_on_c, 2, 79, 67
4, 697280, Note_off_c, 2, 75, 67
4, 697280, Note_off_c, 2, 79, 67
4, 697280, Note_on_c, 2, 77, 67
4, 697280, Note_on_c, 2, 80, 67
4, 697344, Note_off_c, 2, 77, 67
4, 697344, Note_off_c, 2, 80, 67
4, 697344, Note_on_c, 2, 79, 67
4, 697344, Note_on_c, 2, 82, 67
4, 697408, Note_off_c, 2, 79, 67
4, 697408, Note_off_c, 2, 82, 67
4, 697472, Note_off_c, 2, 79, 67
4, 697472, Note_off_c, 2, 82, 67
4, 697472, Note_on_c, 2, 79, 67
4, 697472, Note_on_c, 2, 82, 67
4, 697536, Note_off_c, 2, 79, 67
4, 697536, Note_off_c, 2, 82, 67
4, 697600, Note_off_c, 2, 79, 67
4, 697600, Note_off_c, 2, 82, 67
4, 697600, Note_on_c, 2, 70, 67
4, 697600, Note_on_c, 2, 79, 67
4, 697664, Note_off_c, 2, 70, 67
4, 697664, Note_off_c, 2, 79, 67
4, 697728, Note_off_c, 2, 70, 67
4, 697728, Note_off_c, 2, 79, 67
4, 697728, Note_on_c, 2, 70, 67
4, 697728, Note_on_c, 2, 75, 67
4, 697792, Note_off_c, 2, 70, 67
4, 697792, Note_off_c, 2, 75, 67
4, 697856, Note_off_c, 2, 70, 67
4, 697856, Note_off_c, 2, 75, 67
4, 697856, Note_on_c, 2, 84, 67
4, 697856, Note_on_c, 2, 87, 67
4, 697920, Note_off_c, 2, 84, 67
4, 697920, Note_off_c, 2, 87, 67
4, 697984, Note_off_c, 2, 84, 67
4, 697984, Note_off_c, 2, 87, 67
4, 697984, Note_on_c, 2, 82, 67
4, 697984, Note_on_c, 2, 86, 67
4, 698048, Note_off_c, 2, 82, 67
4, 698048, Note_off_c, 2, 86, 67
4, 698112, Note_off_c, 2, 82, 67
4, 698112, Note_off_c, 2, 86, 67
4, 698112, Note_on_c, 2, 80, 67
4, 698112, Note_on_c, 2, 84, 67
4, 698176, Note_off_c, 2, 80, 67
4, 698176, Note_off_c, 2, 84, 67
4, 698240, Note_off_c, 2, 80, 67
4, 698240, Note_off_c, 2, 84, 67
4, 698240, Note_on_c, 2, 79, 67
4, 698240, Note_on_c, 2, 87, 67
4, 698304, Note_off_c, 2, 79, 67
4, 698304, Note_off_c, 2, 87, 67
4, 698368, Note_off_c, 2, 79, 67
4, 698368, Note_off_c, 2, 87, 67
4, 698368, Note_on_c, 2, 75, 67
4, 698368, Note_on_c, 2, 82, 67
4, 698432, Note_off_c, 2, 75, 67
4, 698432, Note_off_c, 2, 82, 67
4, 698496, Note_off_c, 2, 75, 67
4, 698496, Note_off_c, 2, 82, 67
4, 698496, Note_on_c, 2, 79, 67
4, 698560, Note_off_c, 2, 79, 67
4, 698624, Note_off_c, 2, 79, 67
4, 698624, Note_on_c, 2, 67, 67
4, 698624, Note_on_c, 2, 75, 67
4, 698688, Note_off_c, 2, 67, 67
4, 698688, Note_off_c, 2, 75, 67
4, 698752, Note_off_c, 2, 67, 67
4, 698752, Note_off_c, 2, 75, 67
4, 698752, Note_on_c, 2, 68, 67
4, 698752, Note_on_c, 2, 74, 67
4, 698784, Note_off_c, 2, 68, 67
4, 698784, Note_off_c, 2, 74, 67
4, 698816, Note_off_c, 2, 68, 67
4, 698816, Note_off_c, 2, 74, 67
4, 698816, Note_on_c, 2, 74, 67
4, 698816, Note_on_c, 2, 79, 67
4, 698848, Note_off_c, 2, 74, 67
4, 698848, Note_off_c, 2, 79, 67
4, 698880, Note_off_c, 2, 74, 67
4, 698880, Note_off_c, 2, 79, 67
4, 698880, Note_on_c, 2, 70, 67
4, 698880, Note_on_c, 2, 77, 67
4, 698944, Note_off_c, 2, 70, 67
4, 698944, Note_off_c, 2, 77, 67
4, 699008, Note_off_c, 2, 70, 67
4, 699008, Note_off_c, 2, 77, 67
4, 699008, Note_on_c, 2, 65, 67
4, 699008, Note_on_c, 2, 70, 67
4, 699072, Note_off_c, 2, 65, 67
4, 699072, Note_off_c, 2, 70, 67
4, 699136, Note_off_c, 2, 65, 67
4, 699136, Note_off_c, 2, 70, 67
4, 699136, Note_on_c, 2, 68, 67
4, 699136, Note_on_c, 2, 70, 67
4, 699200, Note_off_c, 2, 68, 67
4, 699200, Note_off_c, 2, 70, 67
4, 699264, Note_off_c, 2, 68, 67
4, 699264, Note_off_c, 2, 70, 67
4, 699264, Note_on_c, 2, 70, 67
4, 699264, Note_on_c, 2, 79, 67
4, 699328, Note_off_c, 2, 70, 67
4, 699328, Note_off_c, 2, 79, 67
4, 699328, Note_on_c, 2, 77, 67
4, 699328, Note_on_c, 2, 80, 67
4, 699392, Note_off_c, 2, 77, 67
4, 699392, Note_off_c, 2, 80, 67
4, 699392, Note_on_c, 2, 79, 67
4, 699392, Note_on_c, 2, 82, 67
4, 699456, Note_off_c, 2, 79, 67
4, 699456, Note_off_c, 2, 82, 67
4, 699520, Note_off_c, 2, 79, 67
4, 699520, Note_off_c, 2, 82, 67
4, 699520, Note_on_c, 2, 79, 67
4, 699520, Note_on_c, 2, 82, 67
4, 699584, Note_off_c, 2, 79, 67
4, 699584, Note_off_c, 2, 82, 67
4, 699648, Note_off_c, 2, 79, 67
4, 699648, Note_off_c, 2, 82, 67
4, 699648, Note_on_c, 2, 70, 67
4, 699648, Note_on_c, 2, 79, 67
4, 699712, Note_off_c, 2, 70, 67
4, 699712, Note_off_c, 2, 79, 67
4, 699776, Note_off_c, 2, 70, 67
4, 699776, Note_off_c, 2, 79, 67
4, 699776, Note_on_c, 2, 75, 67
4, 699776, Note_on_c, 2, 82, 67
4, 699840, Note_off_c, 2, 75, 67
4, 699840, Note_off_c, 2, 82, 67
4, 699904, Note_off_c, 2, 75, 67
4, 699904, Note_off_c, 2, 82, 67
4, 699904, Note_on_c, 2, 84, 67
4, 699904, Note_on_c, 2, 87, 67
4, 699968, Note_off_c, 2, 84, 67
4, 699968, Note_off_c, 2, 87, 67
4, 700032, Note_off_c, 2, 84, 67
4, 700032, Note_off_c, 2, 87, 67
4, 700032, Note_on_c, 2, 82, 67
4, 700032, Note_on_c, 2, 86, 67
4, 700096, Note_off_c, 2, 82, 67
4, 700096, Note_off_c, 2, 86, 67
4, 700160, Note_off_c, 2, 82, 67
4, 700160, Note_off_c, 2, 86, 67
4, 700160, Note_on_c, 2, 80, 67
4, 700160, Note_on_c, 2, 84, 67
4, 700224, Note_off_c, 2, 80, 67
4, 700224, Note_off_c, 2, 84, 67
4, 700288, Note_off_c, 2, 80, 67
4, 700288, Note_off_c, 2, 84, 67
4, 700288, Note_on_c, 2, 70, 67
4, 700288, Note_on_c, 2, 74, 67
4, 700320, Note_off_c, 2, 70, 67
4, 700320, Note_off_c, 2, 74, 67
4, 700352, Note_off_c, 2, 70, 67
4, 700352, Note_off_c, 2, 74, 67
4, 700352, Note_on_c, 2, 77, 67
4, 700352, Note_on_c, 2, 80, 67
4, 700384, Note_off_c, 2, 77, 67
4, 700384, Note_off_c, 2, 80, 67
4, 700416, Note_off_c, 2, 77, 67
4, 700416, Note_off_c, 2, 80, 67
4, 700416, Note_on_c, 2, 77, 67
4, 700416, Note_on_c, 2, 82, 67
4, 700480, Note_off_c, 2, 77, 67
4, 700480, Note_off_c, 2, 82, 67
4, 700544, Note_off_c, 2, 77, 67
4, 700544, Note_off_c, 2, 82, 67
4, 700544, Note_on_c, 2, 80, 67
4, 700544, Note_on_c, 2, 87, 67
4, 700608, Note_off_c, 2, 80, 67
4, 700608, Note_off_c, 2, 87, 67
4, 700672, Note_off_c, 2, 80, 67
4, 700672, Note_off_c, 2, 87, 67
4, 700672, Note_on_c, 2, 82, 67
4, 700672, Note_on_c, 2, 86, 67
4, 700736, Note_off_c, 2, 82, 67
4, 700736, Note_off_c, 2, 86, 67
4, 700800, Note_off_c, 2, 82, 67
4, 700800, Note_off_c, 2, 86, 67
4, 700800, Note_on_c, 2, 80, 67
4, 700800, Note_on_c, 2, 89, 67
4, 700864, Note_off_c, 2, 80, 67
4, 700864, Note_off_c, 2, 89, 67
4, 700928, Note_off_c, 2, 80, 67
4, 700928, Note_off_c, 2, 89, 67
4, 700928, Note_on_c, 2, 79, 67
4, 700928, Note_on_c, 2, 87, 67
4, 700992, Note_off_c, 2, 79, 67
4, 700992, Note_off_c, 2, 87, 67
4, 701056, Note_off_c, 2, 79, 67
4, 701056, Note_off_c, 2, 87, 67
4, 701056, Note_on_c, 2, 70, 67
4, 701056, Note_on_c, 2, 82, 67
4, 701120, Note_off_c, 2, 70, 67
4, 701120, Note_off_c, 2, 82, 67
4, 701184, Note_off_c, 2, 70, 67
4, 701184, Note_off_c, 2, 82, 67
4, 701184, Note_on_c, 2, 70, 67
4, 701184, Note_on_c, 2, 82, 67
4, 701248, Note_off_c, 2, 70, 67
4, 701248, Note_off_c, 2, 82, 67
4, 701312, Note_off_c, 2, 70, 67
4, 701312, Note_off_c, 2, 82, 67
4, 701312, Note_on_c, 2, 75, 67
4, 701376, Note_off_c, 2, 75, 67
4, 701376, Note_on_c, 2, 77, 67
4, 701440, Note_off_c, 2, 77, 67
4, 701440, Note_on_c, 2, 79, 67
4, 701504, Note_off_c, 2, 79, 67
4, 701568, Note_off_c, 2, 79, 67
4, 701568, Note_on_c, 2, 75, 67
4, 701568, Note_on_c, 2, 79, 67
4, 701632, Note_off_c, 2, 75, 67
4, 701632, Note_off_c, 2, 79, 67
4, 701696, Note_off_c, 2, 75, 67
4, 701696, Note_off_c, 2, 79, 67
4, 701696, Note_on_c, 2, 75, 67
4, 701696, Note_on_c, 2, 79, 67
4, 701760, Note_off_c, 2, 75, 67
4, 701760, Note_off_c, 2, 79, 67
4, 701824, Note_off_c, 2, 75, 67
4, 701824, Note_off_c, 2, 79, 67
4, 701824, Note_on_c, 2, 75, 67
4, 701888, Note_off_c, 2, 75, 67
4, 701888, Note_on_c, 2, 77, 67
4, 701952, Note_off_c, 2, 77, 67
4, 701952, Note_on_c, 2, 79, 67
4, 702016, Note_off_c, 2, 79, 67
4, 702080, Note_off_c, 2, 79, 67
4, 702080, Note_on_c, 2, 75, 67
4, 702080, Note_on_c, 2, 79, 67
4, 702144, Note_off_c, 2, 75, 67
4, 702144, Note_off_c, 2, 79, 67
4, 702208, Note_off_c, 2, 75, 67
4, 702208, Note_off_c, 2, 79, 67
4, 702208, Note_on_c, 2, 75, 67
4, 702208, Note_on_c, 2, 79, 67
4, 702272, Note_off_c, 2, 75, 67
4, 702272, Note_off_c, 2, 79, 67
4, 702336, Note_off_c, 2, 75, 67
4, 702336, Note_off_c, 2, 79, 67
4, 702336, Note_on_c, 2, 75, 67
4, 702400, Note_off_c, 2, 75, 67
4, 702400, Note_on_c, 2, 77, 67
4, 702464, Note_off_c, 2, 77, 67
4, 702464, Note_on_c, 2, 79, 67
4, 702528, Note_off_c, 2, 79, 67
4, 702592, Note_off_c, 2, 79, 67
4, 702592, Note_on_c, 2, 75, 67
4, 702592, Note_on_c, 2, 79, 67
4, 702656, Note_off_c, 2, 75, 67
4, 702656, Note_off_c, 2, 79, 67
4, 702720, Note_off_c, 2, 75, 67
4, 702720, Note_off_c, 2, 79, 67
4, 702720, Note_on_c, 2, 75, 67
4, 702720, Note_on_c, 2, 80, 67
4, 702752, Note_off_c, 2, 75, 67
4, 702752, Note_off_c, 2, 80, 67
4, 702784, Note_off_c, 2, 75, 67
4, 702784, Note_off_c, 2, 80, 67
4, 702784, Note_on_c, 2, 74, 67
4, 702816, Note_off_c, 2, 74, 67
4, 702848, Note_off_c, 2, 74, 67
4, 702848, Note_on_c, 2, 72, 67
4, 702880, Note_off_c, 2, 72, 67
4, 702912, Note_off_c, 2, 72, 67
4, 702912, Note_on_c, 2, 74, 67
4, 702912, Note_on_c, 2, 79, 67
4, 702944, Note_off_c, 2, 74, 67
4, 702944, Note_off_c, 2, 79, 67
4, 702976, Note_off_c, 2, 74, 67
4, 702976, Note_off_c, 2, 79, 67
4, 702976, Note_on_c, 2, 70, 67
4, 702976, Note_on_c, 2, 77, 67
4, 703040, Note_off_c, 2, 70, 67
4, 703040, Note_off_c, 2, 77, 67
4, 703104, Note_off_c, 2, 70, 67
4, 703104, Note_off_c, 2, 77, 67
4, 703104, Note_on_c, 2, 68, 67
4, 703104, Note_on_c, 2, 70, 67
4, 703168, Note_off_c, 2, 68, 67
4, 703168, Note_off_c, 2, 70, 67
4, 703232, Note_off_c, 2, 68, 67
4, 703232, Note_off_c, 2, 70, 67
4, 703232, Note_on_c, 2, 68, 67
4, 703232, Note_on_c, 2, 70, 67
4, 703296, Note_off_c, 2, 68, 67
4, 703296, Note_off_c, 2, 70, 67
4, 703360, Note_off_c, 2, 68, 67
4, 703360, Note_off_c, 2, 70, 67
4, 703360, Note_on_c, 2, 74, 67
4, 703424, Note_off_c, 2, 74, 67
4, 703424, Note_on_c, 2, 75, 67
4, 703488, Note_off_c, 2, 75, 67
4, 703488, Note_on_c, 2, 77, 67
4, 703552, Note_off_c, 2, 77, 67
4, 703616, Note_off_c, 2, 77, 67
4, 703616, Note_on_c, 2, 74, 67
4, 703616, Note_on_c, 2, 77, 67
4, 703680, Note_off_c, 2, 74, 67
4, 703680, Note_off_c, 2, 77, 67
4, 703744, Note_off_c, 2, 74, 67
4, 703744, Note_off_c, 2, 77, 67
4, 703744, Note_on_c, 2, 74, 67
4, 703744, Note_on_c, 2, 77, 67
4, 703808, Note_off_c, 2, 74, 67
4, 703808, Note_off_c, 2, 77, 67
4, 703872, Note_off_c, 2, 74, 67
4, 703872, Note_off_c, 2, 77, 67
4, 703872, Note_on_c, 2, 74, 67
4, 703936, Note_off_c, 2, 74, 67
4, 703936, Note_on_c, 2, 75, 67
4, 704000, Note_off_c, 2, 75, 67
4, 704000, Note_on_c, 2, 77, 67
4, 704064, Note_off_c, 2, 77, 67
4, 704128, Note_off_c, 2, 77, 67
4, 704128, Note_on_c, 2, 74, 67
4, 704128, Note_on_c, 2, 77, 67
4, 704192, Note_off_c, 2, 74, 67
4, 704192, Note_off_c, 2, 77, 67
4, 704256, Note_off_c, 2, 74, 67
4, 704256, Note_off_c, 2, 77, 67
4, 704256, Note_on_c, 2, 74, 67
4, 704256, Note_on_c, 2, 77, 67
4, 704320, Note_off_c, 2, 74, 67
4, 704320, Note_off_c, 2, 77, 67
4, 704384, Note_off_c, 2, 74, 67
4, 704384, Note_off_c, 2, 77, 67
4, 704384, Note_on_c, 2, 74, 67
4, 704448, Note_off_c, 2, 74, 67
4, 704448, Note_on_c, 2, 75, 67
4, 704512, Note_off_c, 2, 75, 67
4, 704512, Note_on_c, 2, 70, 67
4, 704512, Note_on_c, 2, 77, 67
4, 704576, Note_off_c, 2, 70, 67
4, 704576, Note_off_c, 2, 77, 67
4, 704640, Note_off_c, 2, 70, 67
4, 704640, Note_off_c, 2, 77, 67
4, 704640, Note_on_c, 2, 74, 67
4, 704640, Note_on_c, 2, 77, 67
4, 704704, Note_off_c, 2, 74, 67
4, 704704, Note_off_c, 2, 77, 67
4, 704768, Note_off_c, 2, 74, 67
4, 704768, Note_off_c, 2, 77, 67
4, 704768, Note_on_c, 2, 74, 67
4, 704768, Note_on_c, 2, 79, 67
4, 704800, Note_off_c, 2, 74, 67
4, 704800, Note_off_c, 2, 79, 67
4, 704832, Note_off_c, 2, 74, 67
4, 704832, Note_off_c, 2, 79, 67
4, 704832, Note_on_c, 2, 72, 67
4, 704832, Note_on_c, 2, 77, 67
4, 704864, Note_off_c, 2, 72, 67
4, 704864, Note_off_c, 2, 77, 67
4, 704896, Note_off_c, 2, 72, 67
4, 704896, Note_off_c, 2, 77, 67
4, 704896, Note_on_c, 2, 70, 67
4, 704896, Note_on_c, 2, 77, 67
4, 704928, Note_off_c, 2, 70, 67
4, 704928, Note_off_c, 2, 77, 67
4, 704960, Note_off_c, 2, 70, 67
4, 704960, Note_off_c, 2, 77, 67
4, 704960, Note_on_c, 2, 68, 67
4, 704960, Note_on_c, 2, 79, 67
4, 704992, Note_off_c, 2, 68, 67
4, 704992, Note_off_c, 2, 79, 67
4, 705024, Note_off_c, 2, 68, 67
4, 705024, Note_off_c, 2, 79, 67
4, 705024, Note_on_c, 2, 67, 67
4, 705024, Note_on_c, 2, 75, 67
4, 705088, Note_off_c, 2, 67, 67
4, 705088, Note_off_c, 2, 75, 67
4, 705152, Note_off_c, 2, 67, 67
4, 705152, Note_off_c, 2, 75, 67
4, 705152, Note_on_c, 2, 70, 67
4, 705216, Note_off_c, 2, 70, 67
4, 705280, Note_off_c, 2, 70, 67
4, 705280, Note_on_c, 2, 70, 67
4, 705280, Note_on_c, 2, 79, 67
4, 705344, Note_off_c, 2, 70, 67
4, 705344, Note_off_c, 2, 79, 67
4, 705408, Note_off_c, 2, 70, 67
4, 705408, Note_off_c, 2, 79, 67
4, 705408, Note_on_c, 2, 75, 67
4, 705472, Note_off_c, 2, 75, 67
4, 705472, Note_on_c, 2, 77, 67
4, 705536, Note_off_c, 2, 77, 67
4, 705536, Note_on_c, 2, 79, 67
4, 705600, Note_off_c, 2, 79, 67
4, 705664, Note_off_c, 2, 79, 67
4, 705664, Note_on_c, 2, 75, 67
4, 705664, Note_on_c, 2, 79, 67
4, 705728, Note_off_c, 2, 75, 67
4, 705728, Note_off_c, 2, 79, 67
4, 705792, Note_off_c, 2, 75, 67
4, 705792, Note_off_c, 2, 79, 67
4, 705792, Note_on_c, 2, 75, 67
4, 705792, Note_on_c, 2, 79, 67
4, 705856, Note_off_c, 2, 75, 67
4, 705856, Note_off_c, 2, 79, 67
4, 705920, Note_off_c, 2, 75, 67
4, 705920, Note_off_c, 2, 79, 67
4, 705920, Note_on_c, 2, 75, 67
4, 705984, Note_off_c, 2, 75, 67
4, 705984, Note_on_c, 2, 77, 67
4, 706048, Note_off_c, 2, 77, 67
4, 706048, Note_on_c, 2, 79, 67
4, 706112, Note_off_c, 2, 79, 67
4, 706176, Note_off_c, 2, 79, 67
4, 706176, Note_on_c, 2, 75, 67
4, 706176, Note_on_c, 2, 79, 67
4, 706240, Note_off_c, 2, 75, 67
4, 706240, Note_off_c, 2, 79, 67
4, 706304, Note_off_c, 2, 75, 67
4, 706304, Note_off_c, 2, 79, 67
4, 706304, Note_on_c, 2, 75, 67
4, 706304, Note_on_c, 2, 79, 67
4, 706368, Note_off_c, 2, 75, 67
4, 706368, Note_off_c, 2, 79, 67
4, 706432, Note_off_c, 2, 75, 67
4, 706432, Note_off_c, 2, 79, 67
4, 706432, Note_on_c, 2, 75, 67
4, 706496, Note_off_c, 2, 75, 67
4, 706496, Note_on_c, 2, 77, 67
4, 706560, Note_off_c, 2, 77, 67
4, 706560, Note_on_c, 2, 79, 67
4, 706624, Note_off_c, 2, 79, 67
4, 706688, Note_off_c, 2, 79, 67
4, 706688, Note_on_c, 2, 75, 67
4, 706688, Note_on_c, 2, 79, 67
4, 706752, Note_off_c, 2, 75, 67
4, 706752, Note_off_c, 2, 79, 67
4, 706816, Note_off_c, 2, 75, 67
4, 706816, Note_off_c, 2, 79, 67
4, 706816, Note_on_c, 2, 75, 67
4, 706816, Note_on_c, 2, 80, 67
4, 706848, Note_off_c, 2, 75, 67
4, 706848, Note_off_c, 2, 80, 67
4, 706880, Note_off_c, 2, 75, 67
4, 706880, Note_off_c, 2, 80, 67
4, 706880, Note_on_c, 2, 74, 67
4, 706944, Note_off_c, 2, 74, 67
4, 706944, Note_on_c, 2, 72, 67
4, 707008, Note_off_c, 2, 72, 67
4, 707008, Note_on_c, 2, 74, 67
4, 707008, Note_on_c, 2, 79, 67
4, 707040, Note_off_c, 2, 74, 67
4, 707040, Note_off_c, 2, 79, 67
4, 707072, Note_off_c, 2, 74, 67
4, 707072, Note_off_c, 2, 79, 67
4, 707072, Note_on_c, 2, 70, 67
4, 707072, Note_on_c, 2, 77, 67
4, 707136, Note_off_c, 2, 70, 67
4, 707136, Note_off_c, 2, 77, 67
4, 707200, Note_off_c, 2, 70, 67
4, 707200, Note_off_c, 2, 77, 67
4, 707200, Note_on_c, 2, 68, 67
4, 707200, Note_on_c, 2, 70, 67
4, 707264, Note_off_c, 2, 68, 67
4, 707264, Note_off_c, 2, 70, 67
4, 707328, Note_off_c, 2, 68, 67
4, 707328, Note_off_c, 2, 70, 67
4, 707328, Note_on_c, 2, 68, 67
4, 707328, Note_on_c, 2, 70, 67
4, 707392, Note_off_c, 2, 68, 67
4, 707392, Note_off_c, 2, 70, 67
4, 707456, Note_off_c, 2, 68, 67
4, 707456, Note_off_c, 2, 70, 67
4, 707456, Note_on_c, 2, 74, 67
4, 707520, Note_off_c, 2, 74, 67
4, 707520, Note_on_c, 2, 75, 67
4, 707584, Note_off_c, 2, 75, 67
4, 707584, Note_on_c, 2, 77, 67
4, 707712, Note_off_c, 2, 77, 67
4, 707712, Note_on_c, 2, 74, 67
4, 707712, Note_on_c, 2, 80, 67
4, 707776, Note_off_c, 2, 74, 67
4, 707776, Note_off_c, 2, 80, 67
4, 707840, Note_off_c, 2, 74, 67
4, 707840, Note_off_c, 2, 80, 67
4, 707840, Note_on_c, 2, 74, 67
4, 707840, Note_on_c, 2, 79, 67
4, 707904, Note_off_c, 2, 74, 67
4, 707904, Note_off_c, 2, 79, 67
4, 707968, Note_off_c, 2, 74, 67
4, 707968, Note_off_c, 2, 79, 67
4, 707968, Note_on_c, 2, 77, 67
4, 708032, Note_off_c, 2, 77, 67
4, 708096, Note_off_c, 2, 77, 67
4, 708096, Note_on_c, 2, 75, 67
4, 708160, Note_off_c, 2, 75, 67
4, 708224, Note_off_c, 2, 75, 67
4, 708224, Note_on_c, 2, 70, 67
4, 708224, Note_on_c, 2, 74, 67
4, 708288, Note_off_c, 2, 70, 67
4, 708288, Note_off_c, 2, 74, 67
4, 708352, Note_off_c, 2, 70, 67
4, 708352, Note_off_c, 2, 74, 67
4, 708352, Note_on_c, 2, 72, 67
4, 708352, Note_on_c, 2, 74, 67
4, 708416, Note_off_c, 2, 72, 67
4, 708416, Note_off_c, 2, 74, 67
4, 708480, Note_off_c, 2, 72, 67
4, 708480, Note_off_c, 2, 74, 67
4, 708480, Note_on_c, 2, 70, 67
4, 708480, Note_on_c, 2, 74, 67
4, 708544, Note_off_c, 2, 70, 67
4, 708544, Note_off_c, 2, 74, 67
4, 708608, Note_off_c, 2, 70, 67
4, 708608, Note_off_c, 2, 74, 67
4, 708608, Note_on_c, 2, 80, 67
4, 708608, Note_on_c, 2, 84, 67
4, 708864, Note_off_c, 2, 80, 67
4, 708864, Note_off_c, 2, 84, 67
4, 708864, Note_on_c, 2, 70, 67
4, 708864, Note_on_c, 2, 74, 67
4, 708880, Note_off_c, 2, 70, 67
4, 708880, Note_off_c, 2, 74, 67
4, 708896, Note_off_c, 2, 70, 67
4, 708896, Note_off_c, 2, 74, 67
4, 708896, Note_on_c, 2, 72, 67
4, 708896, Note_on_c, 2, 75, 67
4, 708912, Note_off_c, 2, 72, 67
4, 708912, Note_off_c, 2, 75, 67
4, 708928, Note_off_c, 2, 72, 67
4, 708928, Note_off_c, 2, 75, 67
4, 708928, Note_on_c, 2, 70, 67
4, 708928, Note_on_c, 2, 74, 67
4, 708960, Note_off_c, 2, 70, 67
4, 708960, Note_off_c, 2, 74, 67
4, 708992, Note_off_c, 2, 70, 67
4, 708992, Note_off_c, 2, 74, 67
4, 708992, Note_on_c, 2, 68, 67
4, 708992, Note_on_c, 2, 72, 67
4, 709024, Note_off_c, 2, 68, 67
4, 709024, Note_off_c, 2, 72, 67
4, 709056, Note_off_c, 2, 68, 67
4, 709056, Note_off_c, 2, 72, 67
4, 709056, Note_on_c, 2, 74, 67
4, 709056, Note_on_c, 2, 77, 67
4, 709088, Note_off_c, 2, 74, 67
4, 709088, Note_off_c, 2, 77, 67
4, 709120, Note_off_c, 2, 74, 67
4, 709120, Note_off_c, 2, 77, 67
4, 709120, Note_on_c, 2, 75, 67
4, 709120, Note_on_c, 2, 79, 67
4, 709248, Note_off_c, 2, 75, 67
4, 709248, Note_off_c, 2, 79, 67
4, 709248, Note_on_c, 2, 70, 67
4, 709312, Note_off_c, 2, 70, 67
4, 709376, Note_off_c, 2, 70, 67
4, 709376, Note_on_c, 2, 70, 67
4, 709440, Note_off_c, 2, 70, 67
4, 709504, Note_off_c, 2, 70, 67
4, 709504, Note_on_c, 2, 75, 67
4, 709504, Note_on_c, 2, 79, 67
4, 709568, Note_off_c, 2, 75, 67
4, 709568, Note_off_c, 2, 79, 67
4, 709568, Note_on_c, 2, 77, 67
4, 709568, Note_on_c, 2, 80, 67
4, 709632, Note_off_c, 2, 77, 67
4, 709632, Note_off_c, 2, 80, 67
4, 709632, Note_on_c, 2, 79, 67
4, 709632, Note_on_c, 2, 82, 67
4, 709696, Note_off_c, 2, 79, 67
4, 709696, Note_off_c, 2, 82, 67
4, 709760, Note_off_c, 2, 79, 67
4, 709760, Note_off_c, 2, 82, 67
4, 709760, Note_on_c, 2, 79, 67
4, 709760, Note_on_c, 2, 82, 67
4, 709824, Note_off_c, 2, 79, 67
4, 709824, Note_off_c, 2, 82, 67
4, 709888, Note_off_c, 2, 79, 67
4, 709888, Note_off_c, 2, 82, 67
4, 709888, Note_on_c, 2, 70, 67
4, 709888, Note_on_c, 2, 79, 67
4, 709952, Note_off_c, 2, 70, 67
4, 709952, Note_off_c, 2, 79, 67
4, 710016, Note_off_c, 2, 70, 67
4, 710016, Note_off_c, 2, 79, 67
4, 710016, Note_on_c, 2, 70, 67
4, 710016, Note_on_c, 2, 75, 67
4, 710080, Note_off_c, 2, 70, 67
4, 710080, Note_off_c, 2, 75, 67
4, 710144, Note_off_c, 2, 70, 67
4, 710144, Note_off_c, 2, 75, 67
4, 710144, Note_on_c, 2, 84, 67
4, 710144, Note_on_c, 2, 87, 67
4, 710208, Note_off_c, 2, 84, 67
4, 710208, Note_off_c, 2, 87, 67
4, 710272, Note_off_c, 2, 84, 67
4, 710272, Note_off_c, 2, 87, 67
4, 710272, Note_on_c, 2, 82, 67
4, 710272, Note_on_c, 2, 86, 67
4, 710336, Note_off_c, 2, 82, 67
4, 710336, Note_off_c, 2, 86, 67
4, 710400, Note_off_c, 2, 82, 67
4, 710400, Note_off_c, 2, 86, 67
4, 710400, Note_on_c, 2, 80, 67
4, 710400, Note_on_c, 2, 84, 67
4, 710464, Note_off_c, 2, 80, 67
4, 710464, Note_off_c, 2, 84, 67
4, 710528, Note_off_c, 2, 80, 67
4, 710528, Note_off_c, 2, 84, 67
4, 710528, Note_on_c, 2, 79, 67
4, 710528, Note_on_c, 2, 87, 67
4, 710592, Note_off_c, 2, 79, 67
4, 710592, Note_off_c, 2, 87, 67
4, 710656, Note_off_c, 2, 79, 67
4, 710656, Note_off_c, 2, 87, 67
4, 710656, Note_on_c, 2, 75, 67
4, 710656, Note_on_c, 2, 82, 67
4, 710720, Note_off_c, 2, 75, 67
4, 710720, Note_off_c, 2, 82, 67
4, 710784, Note_off_c, 2, 75, 67
4, 710784, Note_off_c, 2, 82, 67
4, 710784, Note_on_c, 2, 79, 67
4, 710848, Note_off_c, 2, 79, 67
4, 710912, Note_off_c, 2, 79, 67
4, 710912, Note_on_c, 2, 67, 67
4, 710912, Note_on_c, 2, 75, 67
4, 710976, Note_off_c, 2, 67, 67
4, 710976, Note_off_c, 2, 75, 67
4, 711040, Note_off_c, 2, 67, 67
4, 711040, Note_off_c, 2, 75, 67
4, 711040, Note_on_c, 2, 68, 67
4, 711040, Note_on_c, 2, 74, 67
4, 711072, Note_off_c, 2, 68, 67
4, 711072, Note_off_c, 2, 74, 67
4, 711104, Note_off_c, 2, 68, 67
4, 711104, Note_off_c, 2, 74, 67
4, 711104, Note_on_c, 2, 74, 67
4, 711104, Note_on_c, 2, 79, 67
4, 711136, Note_off_c, 2, 74, 67
4, 711136, Note_off_c, 2, 79, 67
4, 711168, Note_off_c, 2, 74, 67
4, 711168, Note_off_c, 2, 79, 67
4, 711168, Note_on_c, 2, 70, 67
4, 711168, Note_on_c, 2, 77, 67
4, 711232, Note_off_c, 2, 70, 67
4, 711232, Note_off_c, 2, 77, 67
4, 711296, Note_off_c, 2, 70, 67
4, 711296, Note_off_c, 2, 77, 67
4, 711296, Note_on_c, 2, 65, 67
4, 711296, Note_on_c, 2, 70, 67
4, 711360, Note_off_c, 2, 65, 67
4, 711360, Note_off_c, 2, 70, 67
4, 711424, Note_off_c, 2, 65, 67
4, 711424, Note_off_c, 2, 70, 67
4, 711424, Note_on_c, 2, 68, 67
4, 711424, Note_on_c, 2, 70, 67
4, 711488, Note_off_c, 2, 68, 67
4, 711488, Note_off_c, 2, 70, 67
4, 711552, Note_off_c, 2, 68, 67
4, 711552, Note_off_c, 2, 70, 67
4, 711552, Note_on_c, 2, 70, 67
4, 711552, Note_on_c, 2, 79, 67
4, 711616, Note_off_c, 2, 70, 67
4, 711616, Note_off_c, 2, 79, 67
4, 711616, Note_on_c, 2, 77, 67
4, 711616, Note_on_c, 2, 80, 67
4, 711680, Note_off_c, 2, 77, 67
4, 711680, Note_off_c, 2, 80, 67
4, 711680, Note_on_c, 2, 79, 67
4, 711680, Note_on_c, 2, 82, 67
4, 711744, Note_off_c, 2, 79, 67
4, 711744, Note_off_c, 2, 82, 67
4, 711808, Note_off_c, 2, 79, 67
4, 711808, Note_off_c, 2, 82, 67
4, 711808, Note_on_c, 2, 79, 67
4, 711808, Note_on_c, 2, 82, 67
4, 711872, Note_off_c, 2, 79, 67
4, 711872, Note_off_c, 2, 82, 67
4, 711936, Note_off_c, 2, 79, 67
4, 711936, Note_off_c, 2, 82, 67
4, 711936, Note_on_c, 2, 70, 67
4, 711936, Note_on_c, 2, 79, 67
4, 712000, Note_off_c, 2, 70, 67
4, 712000, Note_off_c, 2, 79, 67
4, 712064, Note_off_c, 2, 70, 67
4, 712064, Note_off_c, 2, 79, 67
4, 712064, Note_on_c, 2, 75, 67
4, 712064, Note_on_c, 2, 82, 67
4, 712128, Note_off_c, 2, 75, 67
4, 712128, Note_off_c, 2, 82, 67
4, 712192, Note_off_c, 2, 75, 67
4, 712192, Note_off_c, 2, 82, 67
4, 712192, Note_on_c, 2, 84, 67
4, 712192, Note_on_c, 2, 87, 67
4, 712256, Note_off_c, 2, 84, 67
4, 712256, Note_off_c, 2, 87, 67
4, 712320, Note_off_c, 2, 84, 67
4, 712320, Note_off_c, 2, 87, 67
4, 712320, Note_on_c, 2, 82, 67
4, 712320, Note_on_c, 2, 86, 67
4, 712384, Note_off_c, 2, 82, 67
4, 712384, Note_off_c, 2, 86, 67
4, 712448, Note_off_c, 2, 82, 67
4, 712448, Note_off_c, 2, 86, 67
4, 712448, Note_on_c, 2, 80, 67
4, 712448, Note_on_c, 2, 84, 67
4, 712512, Note_off_c, 2, 80, 67
4, 712512, Note_off_c, 2, 84, 67
4, 712576, Note_off_c, 2, 80, 67
4, 712576, Note_off_c, 2, 84, 67
4, 712576, Note_on_c, 2, 70, 67
4, 712576, Note_on_c, 2, 74, 67
4, 712608, Note_off_c, 2, 70, 67
4, 712608, Note_off_c, 2, 74, 67
4, 712640, Note_off_c, 2, 70, 67
4, 712640, Note_off_c, 2, 74, 67
4, 712640, Note_on_c, 2, 77, 67
4, 712640, Note_on_c, 2, 80, 67
4, 712672, Note_off_c, 2, 77, 67
4, 712672, Note_off_c, 2, 80, 67
4, 712704, Note_off_c, 2, 77, 67
4, 712704, Note_off_c, 2, 80, 67
4, 712704, Note_on_c, 2, 77, 67
4, 712704, Note_on_c, 2, 82, 67
4, 712768, Note_off_c, 2, 77, 67
4, 712768, Note_off_c, 2, 82, 67
4, 712832, Note_off_c, 2, 77, 67
4, 712832, Note_off_c, 2, 82, 67
4, 712832, Note_on_c, 2, 80, 67
4, 712832, Note_on_c, 2, 87, 67
4, 712896, Note_off_c, 2, 80, 67
4, 712896, Note_off_c, 2, 87, 67
4, 712960, Note_off_c, 2, 80, 67
4, 712960, Note_off_c, 2, 87, 67
4, 712960, Note_on_c, 2, 82, 67
4, 712960, Note_on_c, 2, 86, 67
4, 713024, Note_off_c, 2, 82, 67
4, 713024, Note_off_c, 2, 86, 67
4, 713088, Note_off_c, 2, 82, 67
4, 713088, Note_off_c, 2, 86, 67
4, 713088, Note_on_c, 2, 80, 67
4, 713088, Note_on_c, 2, 89, 67
4, 713152, Note_off_c, 2, 80, 67
4, 713152, Note_off_c, 2, 89, 67
4, 713216, Note_off_c, 2, 80, 67
4, 713216, Note_off_c, 2, 89, 67
4, 713216, Note_on_c, 2, 79, 67
4, 713216, Note_on_c, 2, 87, 67
4, 713280, Note_off_c, 2, 79, 67
4, 713280, Note_off_c, 2, 87, 67
4, 713344, Note_off_c, 2, 79, 67
4, 713344, Note_off_c, 2, 87, 67
4, 713344, Note_on_c, 2, 70, 67
4, 713344, Note_on_c, 2, 82, 67
4, 713408, Note_off_c, 2, 70, 67
4, 713408, Note_off_c, 2, 82, 67
4, 713472, Note_off_c, 2, 70, 67
4, 713472, Note_off_c, 2, 82, 67
4, 713472, Note_on_c, 2, 70, 67
4, 713472, Note_on_c, 2, 82, 67
4, 713536, Note_off_c, 2, 70, 67
4, 713536, Note_off_c, 2, 82, 67
4, 713600, Note_off_c, 2, 70, 67
4, 713600, Note_off_c, 2, 82, 67
4, 713600, Note_on_c, 2, 75, 67
4, 713664, Note_off_c, 2, 75, 67
4, 713664, Note_on_c, 2, 77, 67
4, 713728, Note_off_c, 2, 77, 67
4, 713728, Note_on_c, 2, 79, 67
4, 713792, Note_off_c, 2, 79, 67
4, 713856, Note_off_c, 2, 79, 67
4, 713856, Note_on_c, 2, 75, 67
4, 713856, Note_on_c, 2, 79, 67
4, 713920, Note_off_c, 2, 75, 67
4, 713920, Note_off_c, 2, 79, 67
4, 713984, Note_off_c, 2, 75, 67
4, 713984, Note_off_c, 2, 79, 67
4, 713984, Note_on_c, 2, 75, 67
4, 713984, Note_on_c, 2, 79, 67
4, 714048, Note_off_c, 2, 75, 67
4, 714048, Note_off_c, 2, 79, 67
4, 714112, Note_off_c, 2, 75, 67
4, 714112, Note_off_c, 2, 79, 67
4, 714112, Note_on_c, 2, 75, 67
4, 714176, Note_off_c, 2, 75, 67
4, 714176, Note_on_c, 2, 77, 67
4, 714240, Note_off_c, 2, 77, 67
4, 714240, Note_on_c, 2, 79, 67
4, 714304, Note_off_c, 2, 79, 67
4, 714368, Note_off_c, 2, 79, 67
4, 714368, Note_on_c, 2, 75, 67
4, 714368, Note_on_c, 2, 79, 67
4, 714432, Note_off_c, 2, 75, 67
4, 714432, Note_off_c, 2, 79, 67
4, 714496, Note_off_c, 2, 75, 67
4, 714496, Note_off_c, 2, 79, 67
4, 714496, Note_on_c, 2, 75, 67
4, 714496, Note_on_c, 2, 79, 67
4, 714560, Note_off_c, 2, 75, 67
4, 714560, Note_off_c, 2, 79, 67
4, 714624, Note_off_c, 2, 75, 67
4, 714624, Note_off_c, 2, 79, 67
4, 714624, Note_on_c, 2, 75, 67
4, 714688, Note_off_c, 2, 75, 67
4, 714688, Note_on_c, 2, 77, 67
4, 714752, Note_off_c, 2, 77, 67
4, 714752, Note_on_c, 2, 79, 67
4, 714816, Note_off_c, 2, 79, 67
4, 714880, Note_off_c, 2, 79, 67
4, 714880, Note_on_c, 2, 75, 67
4, 714880, Note_on_c, 2, 79, 67
4, 714944, Note_off_c, 2, 75, 67
4, 714944, Note_off_c, 2, 79, 67
4, 715008, Note_off_c, 2, 75, 67
4, 715008, Note_off_c, 2, 79, 67
4, 715008, Note_on_c, 2, 75, 67
4, 715008, Note_on_c, 2, 80, 67
4, 715040, Note_off_c, 2, 75, 67
4, 715040, Note_off_c, 2, 80, 67
4, 715072, Note_off_c, 2, 75, 67
4, 715072, Note_off_c, 2, 80, 67
4, 715072, Note_on_c, 2, 74, 67
4, 715104, Note_off_c, 2, 74, 67
4, 715136, Note_off_c, 2, 74, 67
4, 715136, Note_on_c, 2, 72, 67
4, 715168, Note_off_c, 2, 72, 67
4, 715200, Note_off_c, 2, 72, 67
4, 715200, Note_on_c, 2, 74, 67
4, 715200, Note_on_c, 2, 79, 67
4, 715232, Note_off_c, 2, 74, 67
4, 715232, Note_off_c, 2, 79, 67
4, 715264, Note_off_c, 2, 74, 67
4, 715264, Note_off_c, 2, 79, 67
4, 715264, Note_on_c, 2, 70, 67
4, 715264, Note_on_c, 2, 77, 67
4, 715328, Note_off_c, 2, 70, 67
4, 715328, Note_off_c, 2, 77, 67
4, 715392, Note_off_c, 2, 70, 67
4, 715392, Note_off_c, 2, 77, 67
4, 715392, Note_on_c, 2, 68, 67
4, 715392, Note_on_c, 2, 70, 67
4, 715456, Note_off_c, 2, 68, 67
4, 715456, Note_off_c, 2, 70, 67
4, 715520, Note_off_c, 2, 68, 67
4, 715520, Note_off_c, 2, 70, 67
4, 715520, Note_on_c, 2, 68, 67
4, 715520, Note_on_c, 2, 70, 67
4, 715584, Note_off_c, 2, 68, 67
4, 715584, Note_off_c, 2, 70, 67
4, 715648, Note_off_c, 2, 68, 67
4, 715648, Note_off_c, 2, 70, 67
4, 715648, Note_on_c, 2, 74, 67
4, 715712, Note_off_c, 2, 74, 67
4, 715712, Note_on_c, 2, 75, 67
4, 715776, Note_off_c, 2, 75, 67
4, 715776, Note_on_c, 2, 77, 67
4, 715840, Note_off_c, 2, 77, 67
4, 715904, Note_off_c, 2, 77, 67
4, 715904, Note_on_c, 2, 74, 67
4, 715904, Note_on_c, 2, 77, 67
4, 715968, Note_off_c, 2, 74, 67
4, 715968, Note_off_c, 2, 77, 67
4, 716032, Note_off_c, 2, 74, 67
4, 716032, Note_off_c, 2, 77, 67
4, 716032, Note_on_c, 2, 74, 67
4, 716032, Note_on_c, 2, 77, 67
4, 716096, Note_off_c, 2, 74, 67
4, 716096, Note_off_c, 2, 77, 67
4, 716160, Note_off_c, 2, 74, 67
4, 716160, Note_off_c, 2, 77, 67
4, 716160, Note_on_c, 2, 74, 67
4, 716224, Note_off_c, 2, 74, 67
4, 716224, Note_on_c, 2, 75, 67
4, 716288, Note_off_c, 2, 75, 67
4, 716288, Note_on_c, 2, 77, 67
4, 716352, Note_off_c, 2, 77, 67
4, 716416, Note_off_c, 2, 77, 67
4, 716416, Note_on_c, 2, 74, 67
4, 716416, Note_on_c, 2, 77, 67
4, 716480, Note_off_c, 2, 74, 67
4, 716480, Note_off_c, 2, 77, 67
4, 716544, Note_off_c, 2, 74, 67
4, 716544, Note_off_c, 2, 77, 67
4, 716544, Note_on_c, 2, 74, 67
4, 716544, Note_on_c, 2, 77, 67
4, 716608, Note_off_c, 2, 74, 67
4, 716608, Note_off_c, 2, 77, 67
4, 716672, Note_off_c, 2, 74, 67
4, 716672, Note_off_c, 2, 77, 67
4, 716672, Note_on_c, 2, 74, 67
4, 716736, Note_off_c, 2, 74, 67
4, 716736, Note_on_c, 2, 75, 67
4, 716800, Note_off_c, 2, 75, 67
4, 716800, Note_on_c, 2, 70, 67
4, 716800, Note_on_c, 2, 77, 67
4, 716864, Note_off_c, 2, 70, 67
4, 716864, Note_off_c, 2, 77, 67
4, 716928, Note_off_c, 2, 70, 67
4, 716928, Note_off_c, 2, 77, 67
4, 716928, Note_on_c, 2, 74, 67
4, 716928, Note_on_c, 2, 77, 67
4, 716992, Note_off_c, 2, 74, 67
4, 716992, Note_off_c, 2, 77, 67
4, 717056, Note_off_c, 2, 74, 67
4, 717056, Note_off_c, 2, 77, 67
4, 717056, Note_on_c, 2, 74, 67
4, 717056, Note_on_c, 2, 79, 67
4, 717088, Note_off_c, 2, 74, 67
4, 717088, Note_off_c, 2, 79, 67
4, 717120, Note_off_c, 2, 74, 67
4, 717120, Note_off_c, 2, 79, 67
4, 717120, Note_on_c, 2, 72, 67
4, 717120, Note_on_c, 2, 77, 67
4, 717152, Note_off_c, 2, 72, 67
4, 717152, Note_off_c, 2, 77, 67
4, 717184, Note_off_c, 2, 72, 67
4, 717184, Note_off_c, 2, 77, 67
4, 717184, Note_on_c, 2, 70, 67
4, 717184, Note_on_c, 2, 77, 67
4, 717216, Note_off_c, 2, 70, 67
4, 717216, Note_off_c, 2, 77, 67
4, 717248, Note_off_c, 2, 70, 67
4, 717248, Note_off_c, 2, 77, 67
4, 717248, Note_on_c, 2, 68, 67
4, 717248, Note_on_c, 2, 79, 67
4, 717280, Note_off_c, 2, 68, 67
4, 717280, Note_off_c, 2, 79, 67
4, 717312, Note_off_c, 2, 68, 67
4, 717312, Note_off_c, 2, 79, 67
4, 717312, Note_on_c, 2, 67, 67
4, 717312, Note_on_c, 2, 75, 67
4, 717376, Note_off_c, 2, 67, 67
4, 717376, Note_off_c, 2, 75, 67
4, 717440, Note_off_c, 2, 67, 67
4, 717440, Note_off_c, 2, 75, 67
4, 717440, Note_on_c, 2, 70, 67
4, 717504, Note_off_c, 2, 70, 67
4, 717568, Note_off_c, 2, 70, 67
4, 717568, Note_on_c, 2, 70, 67
4, 717568, Note_on_c, 2, 79, 67
4, 717632, Note_off_c, 2, 70, 67
4, 717632, Note_off_c, 2, 79, 67
4, 717696, Note_off_c, 2, 70, 67
4, 717696, Note_off_c, 2, 79, 67
4, 717696, Note_on_c, 2, 75, 67
4, 717760, Note_off_c, 2, 75, 67
4, 717760, Note_on_c, 2, 77, 67
4, 717824, Note_off_c, 2, 77, 67
4, 717824, Note_on_c, 2, 79, 67
4, 717888, Note_off_c, 2, 79, 67
4, 717952, Note_off_c, 2, 79, 67
4, 717952, Note_on_c, 2, 75, 67
4, 717952, Note_on_c, 2, 79, 67
4, 718016, Note_off_c, 2, 75, 67
4, 718016, Note_off_c, 2, 79, 67
4, 718080, Note_off_c, 2, 75, 67
4, 718080, Note_off_c, 2, 79, 67
4, 718080, Note_on_c, 2, 75, 67
4, 718080, Note_on_c, 2, 79, 67
4, 718144, Note_off_c, 2, 75, 67
4, 718144, Note_off_c, 2, 79, 67
4, 718208, Note_off_c, 2, 75, 67
4, 718208, Note_off_c, 2, 79, 67
4, 718208, Note_on_c, 2, 75, 67
4, 718272, Note_off_c, 2, 75, 67
4, 718272, Note_on_c, 2, 77, 67
4, 718336, Note_off_c, 2, 77, 67
4, 718336, Note_on_c, 2, 79, 67
4, 718400, Note_off_c, 2, 79, 67
4, 718464, Note_off_c, 2, 79, 67
4, 718464, Note_on_c, 2, 75, 67
4, 718464, Note_on_c, 2, 79, 67
4, 718528, Note_off_c, 2, 75, 67
4, 718528, Note_off_c, 2, 79, 67
4, 718592, Note_off_c, 2, 75, 67
4, 718592, Note_off_c, 2, 79, 67
4, 718592, Note_on_c, 2, 75, 67
4, 718592, Note_on_c, 2, 79, 67
4, 718656, Note_off_c, 2, 75, 67
4, 718656, Note_off_c, 2, 79, 67
4, 718720, Note_off_c, 2, 75, 67
4, 718720, Note_off_c, 2, 79, 67
4, 718720, Note_on_c, 2, 75, 67
4, 718784, Note_off_c, 2, 75, 67
4, 718784, Note_on_c, 2, 77, 67
4, 718848, Note_off_c, 2, 77, 67
4, 718848, Note_on_c, 2, 79, 67
4, 718912, Note_off_c, 2, 79, 67
4, 718976, Note_off_c, 2, 79, 67
4, 718976, Note_on_c, 2, 75, 67
4, 718976, Note_on_c, 2, 79, 67
4, 719040, Note_off_c, 2, 75, 67
4, 719040, Note_off_c, 2, 79, 67
4, 719104, Note_off_c, 2, 75, 67
4, 719104, Note_off_c, 2, 79, 67
4, 719104, Note_on_c, 2, 75, 67
4, 719104, Note_on_c, 2, 80, 67
4, 719136, Note_off_c, 2, 75, 67
4, 719136, Note_off_c, 2, 80, 67
4, 719168, Note_off_c, 2, 75, 67
4, 719168, Note_off_c, 2, 80, 67
4, 719168, Note_on_c, 2, 74, 67
4, 719232, Note_off_c, 2, 74, 67
4, 719232, Note_on_c, 2, 72, 67
4, 719296, Note_off_c, 2, 72, 67
4, 719296, Note_on_c, 2, 74, 67
4, 719296, Note_on_c, 2, 79, 67
4, 719328, Note_off_c, 2, 74, 67
4, 719328, Note_off_c, 2, 79, 67
4, 719360, Note_off_c, 2, 74, 67
4, 719360, Note_off_c, 2, 79, 67
4, 719360, Note_on_c, 2, 70, 67
4, 719360, Note_on_c, 2, 77, 67
4, 719424, Note_off_c, 2, 70, 67
4, 719424, Note_off_c, 2, 77, 67
4, 719488, Note_off_c, 2, 70, 67
4, 719488, Note_off_c, 2, 77, 67
4, 719488, Note_on_c, 2, 68, 67
4, 719488, Note_on_c, 2, 70, 67
4, 719552, Note_off_c, 2, 68, 67
4, 719552, Note_off_c, 2, 70, 67
4, 719616, Note_off_c, 2, 68, 67
4, 719616, Note_off_c, 2, 70, 67
4, 719616, Note_on_c, 2, 68, 67
4, 719616, Note_on_c, 2, 70, 67
4, 719680, Note_off_c, 2, 68, 67
4, 719680, Note_off_c, 2, 70, 67
4, 719744, Note_off_c, 2, 68, 67
4, 719744, Note_off_c, 2, 70, 67
4, 719744, Note_on_c, 2, 74, 67
4, 719808, Note_off_c, 2, 74, 67
4, 719808, Note_on_c, 2, 75, 67
4, 719872, Note_off_c, 2, 75, 67
4, 719872, Note_on_c, 2, 77, 67
4, 720000, Note_off_c, 2, 77, 67
4, 720000, Note_on_c, 2, 74, 67
4, 720000, Note_on_c, 2, 80, 67
4, 720064, Note_off_c, 2, 74, 67
4, 720064, Note_off_c, 2, 80, 67
4, 720128, Note_off_c, 2, 74, 67
4, 720128, Note_off_c, 2, 80, 67
4, 720128, Note_on_c, 2, 74, 67
4, 720128, Note_on_c, 2, 79, 67
4, 720192, Note_off_c, 2, 74, 67
4, 720192, Note_off_c, 2, 79, 67
4, 720256, Note_off_c, 2, 74, 67
4, 720256, Note_off_c, 2, 79, 67
4, 720256, Note_on_c, 2, 77, 67
4, 720320, Note_off_c, 2, 77, 67
4, 720384, Note_off_c, 2, 77, 67
4, 720384, Note_on_c, 2, 75, 67
4, 720448, Note_off_c, 2, 75, 67
4, 720512, Note_off_c, 2, 75, 67
4, 720512, Note_on_c, 2, 70, 67
4, 720512, Note_on_c, 2, 74, 67
4, 720576, Note_off_c, 2, 70, 67
4, 720576, Note_off_c, 2, 74, 67
4, 720640, Note_off_c, 2, 70, 67
4, 720640, Note_off_c, 2, 74, 67
4, 720640, Note_on_c, 2, 72, 67
4, 720640, Note_on_c, 2, 74, 67
4, 720704, Note_off_c, 2, 72, 67
4, 720704, Note_off_c, 2, 74, 67
4, 720768, Note_off_c, 2, 72, 67
4, 720768, Note_off_c, 2, 74, 67
4, 720768, Note_on_c, 2, 70, 67
4, 720768, Note_on_c, 2, 74, 67
4, 720832, Note_off_c, 2, 70, 67
4, 720832, Note_off_c, 2, 74, 67
4, 720896, Note_off_c, 2, 70, 67
4, 720896, Note_off_c, 2, 74, 67
4, 720896, Note_on_c, 2, 80, 67
4, 720896, Note_on_c, 2, 84, 67
4, 721152, Note_off_c, 2, 80, 67
4, 721152, Note_off_c, 2, 84, 67
4, 721152, Note_on_c, 2, 70, 67
4, 721152, Note_on_c, 2, 74, 67
4, 721168, Note_off_c, 2, 70, 67
4, 721168, Note_off_c, 2, 74, 67
4, 721184, Note_off_c, 2, 70, 67
4, 721184, Note_off_c, 2, 74, 67
4, 721184, Note_on_c, 2, 72, 67
4, 721184, Note_on_c, 2, 75, 67
4, 721200, Note_off_c, 2, 72, 67
4, 721200, Note_off_c, 2, 75, 67
4, 721216, Note_off_c, 2, 72, 67
4, 721216, Note_off_c, 2, 75, 67
4, 721216, Note_on_c, 2, 70, 67
4, 721216, Note_on_c, 2, 74, 67
4, 721248, Note_off_c, 2, 70, 67
4, 721248, Note_off_c, 2, 74, 67
4, 721280, Note_off_c, 2, 70, 67
4, 721280, Note_off_c, 2, 74, 67
4, 721280, Note_on_c, 2, 68, 67
4, 721280, Note_on_c, 2, 72, 67
4, 721312, Note_off_c, 2, 68, 67
4, 721312, Note_off_c, 2, 72, 67
4, 721344, Note_off_c, 2, 68, 67
4, 721344, Note_off_c, 2, 72, 67
4, 721344, Note_on_c, 2, 74, 67
4, 721344, Note_on_c, 2, 77, 67
4, 721376, Note_off_c, 2, 74, 67
4, 721376, Note_off_c, 2, 77, 67
4, 721408, Note_off_c, 2, 74, 67
4, 721408, Note_off_c, 2, 77, 67
4, 721408, Note_on_c, 2, 75, 67
4, 721408, Note_on_c, 2, 79, 67
4, 721536, Note_off_c, 2, 75, 67
4, 721536, Note_off_c, 2, 79, 67
4, 721536, Note_on_c, 2, 70, 67
4, 721600, Note_off_c, 2, 70, 67
4, 721664, Note_off_c, 2, 70, 67
4, 721664, Note_on_c, 2, 70, 67
4, 721728, Note_off_c, 2, 70, 67
4, 721792, Note_off_c, 2, 70, 67
4, 721792, Note_on_c, 2, 75, 67
4, 721792, Note_on_c, 2, 79, 67
4, 721856, Note_off_c, 2, 75, 67
4, 721856, Note_off_c, 2, 79, 67
4, 721856, Note_on_c, 2, 77, 67
4, 721856, Note_on_c, 2, 80, 67
4, 721920, Note_off_c, 2, 77, 67
4, 721920, Note_off_c, 2, 80, 67
4, 721920, Note_on_c, 2, 79, 67
4, 721920, Note_on_c, 2, 82, 67
4, 721984, Note_off_c, 2, 79, 67
4, 721984, Note_off_c, 2, 82, 67
4, 722048, Note_off_c, 2, 79, 67
4, 722048, Note_off_c, 2, 82, 67
4, 722048, Note_on_c, 2, 79, 67
4, 722048, Note_on_c, 2, 82, 67
4, 722112, Note_off_c, 2, 79, 67
4, 722112, Note_off_c, 2, 82, 67
4, 722176, Note_off_c, 2, 79, 67
4, 722176, Note_off_c, 2, 82, 67
4, 722176, Note_on_c, 2, 70, 67
4, 722176, Note_on_c, 2, 79, 67
4, 722240, Note_off_c, 2, 70, 67
4, 722240, Note_off_c, 2, 79, 67
4, 722304, Note_off_c, 2, 70, 67
4, 722304, Note_off_c, 2, 79, 67
4, 722304, Note_on_c, 2, 70, 67
4, 722304, Note_on_c, 2, 75, 67
4, 722368, Note_off_c, 2, 70, 67
4, 722368, Note_off_c, 2, 75, 67
4, 722432, Note_off_c, 2, 70, 67
4, 722432, Note_off_c, 2, 75, 67
4, 722432, Note_on_c, 2, 84, 67
4, 722432, Note_on_c, 2, 87, 67
4, 722496, Note_off_c, 2, 84, 67
4, 722496, Note_off_c, 2, 87, 67
4, 722560, Note_off_c, 2, 84, 67
4, 722560, Note_off_c, 2, 87, 67
4, 722560, Note_on_c, 2, 82, 67
4, 722560, Note_on_c, 2, 86, 67
4, 722624, Note_off_c, 2, 82, 67
4, 722624, Note_off_c, 2, 86, 67
4, 722688, Note_off_c, 2, 82, 67
4, 722688, Note_off_c, 2, 86, 67
4, 722688, Note_on_c, 2, 80, 67
4, 722688, Note_on_c, 2, 84, 67
4, 722752, Note_off_c, 2, 80, 67
4, 722752, Note_off_c, 2, 84, 67
4, 722816, Note_off_c, 2, 80, 67
4, 722816, Note_off_c, 2, 84, 67
4, 722816, Note_on_c, 2, 79, 67
4, 722816, Note_on_c, 2, 87, 67
4, 722880, Note_off_c, 2, 79, 67
4, 722880, Note_off_c, 2, 87, 67
4, 722944, Note_off_c, 2, 79, 67
4, 722944, Note_off_c, 2, 87, 67
4, 722944, Note_on_c, 2, 75, 67
4, 722944, Note_on_c, 2, 82, 67
4, 723008, Note_off_c, 2, 75, 67
4, 723008, Note_off_c, 2, 82, 67
4, 723072, Note_off_c, 2, 75, 67
4, 723072, Note_off_c, 2, 82, 67
4, 723072, Note_on_c, 2, 79, 67
4, 723136, Note_off_c, 2, 79, 67
4, 723200, Note_off_c, 2, 79, 67
4, 723200, Note_on_c, 2, 67, 67
4, 723200, Note_on_c, 2, 75, 67
4, 723264, Note_off_c, 2, 67, 67
4, 723264, Note_off_c, 2, 75, 67
4, 723328, Note_off_c, 2, 67, 67
4, 723328, Note_off_c, 2, 75, 67
4, 723328, Note_on_c, 2, 68, 67
4, 723328, Note_on_c, 2, 74, 67
4, 723360, Note_off_c, 2, 68, 67
4, 723360, Note_off_c, 2, 74, 67
4, 723392, Note_off_c, 2, 68, 67
4, 723392, Note_off_c, 2, 74, 67
4, 723392, Note_on_c, 2, 74, 67
4, 723392, Note_on_c, 2, 79, 67
4, 723424, Note_off_c, 2, 74, 67
4, 723424, Note_off_c, 2, 79, 67
4, 723456, Note_off_c, 2, 74, 67
4, 723456, Note_off_c, 2, 79, 67
4, 723456, Note_on_c, 2, 70, 67
4, 723456, Note_on_c, 2, 77, 67
4, 723520, Note_off_c, 2, 70, 67
4, 723520, Note_off_c, 2, 77, 67
4, 723584, Note_off_c, 2, 70, 67
4, 723584, Note_off_c, 2, 77, 67
4, 723584, Note_on_c, 2, 65, 67
4, 723584, Note_on_c, 2, 70, 67
4, 723648, Note_off_c, 2, 65, 67
4, 723648, Note_off_c, 2, 70, 67
4, 723712, Note_off_c, 2, 65, 67
4, 723712, Note_off_c, 2, 70, 67
4, 723712, Note_on_c, 2, 68, 67
4, 723712, Note_on_c, 2, 70, 67
4, 723776, Note_off_c, 2, 68, 67
4, 723776, Note_off_c, 2, 70, 67
4, 723840, Note_off_c, 2, 68, 67
4, 723840, Note_off_c, 2, 70, 67
4, 723840, Note_on_c, 2, 70, 67
4, 723840, Note_on_c, 2, 79, 67
4, 723904, Note_off_c, 2, 70, 67
4, 723904, Note_off_c, 2, 79, 67
4, 723904, Note_on_c, 2, 77, 67
4, 723904, Note_on_c, 2, 80, 67
4, 723968, Note_off_c, 2, 77, 67
4, 723968, Note_off_c, 2, 80, 67
4, 723968, Note_on_c, 2, 79, 67
4, 723968, Note_on_c, 2, 82, 67
4, 724032, Note_off_c, 2, 79, 67
4, 724032, Note_off_c, 2, 82, 67
4, 724096, Note_off_c, 2, 79, 67
4, 724096, Note_off_c, 2, 82, 67
4, 724096, Note_on_c, 2, 79, 67
4, 724096, Note_on_c, 2, 82, 67
4, 724160, Note_off_c, 2, 79, 67
4, 724160, Note_off_c, 2, 82, 67
4, 724224, Note_off_c, 2, 79, 67
4, 724224, Note_off_c, 2, 82, 67
4, 724224, Note_on_c, 2, 70, 67
4, 724224, Note_on_c, 2, 79, 67
4, 724288, Note_off_c, 2, 70, 67
4, 724288, Note_off_c, 2, 79, 67
4, 724352, Note_off_c, 2, 70, 67
4, 724352, Note_off_c, 2, 79, 67
4, 724352, Note_on_c, 2, 75, 67
4, 724352, Note_on_c, 2, 82, 67
4, 724416, Note_off_c, 2, 75, 67
4, 724416, Note_off_c, 2, 82, 67
4, 724480, Note_off_c, 2, 75, 67
4, 724480, Note_off_c, 2, 82, 67
4, 724480, Note_on_c, 2, 84, 67
4, 724480, Note_on_c, 2, 87, 67
4, 724544, Note_off_c, 2, 84, 67
4, 724544, Note_off_c, 2, 87, 67
4, 724608, Note_off_c, 2, 84, 67
4, 724608, Note_off_c, 2, 87, 67
4, 724608, Note_on_c, 2, 82, 67
4, 724608, Note_on_c, 2, 86, 67
4, 724672, Note_off_c, 2, 82, 67
4, 724672, Note_off_c, 2, 86, 67
4, 724736, Note_off_c, 2, 82, 67
4, 724736, Note_off_c, 2, 86, 67
4, 724736, Note_on_c, 2, 80, 67
4, 724736, Note_on_c, 2, 84, 67
4, 724800, Note_off_c, 2, 80, 67
4, 724800, Note_off_c, 2, 84, 67
4, 724864, Note_off_c, 2, 80, 67
4, 724864, Note_off_c, 2, 84, 67
4, 724864, Note_on_c, 2, 70, 67
4, 724864, Note_on_c, 2, 74, 67
4, 724896, Note_off_c, 2, 70, 67
4, 724896, Note_off_c, 2, 74, 67
4, 724928, Note_off_c, 2, 70, 67
4, 724928, Note_off_c, 2, 74, 67
4, 724928, Note_on_c, 2, 77, 67
4, 724928, Note_on_c, 2, 80, 67
4, 724960, Note_off_c, 2, 77, 67
4, 724960, Note_off_c, 2, 80, 67
4, 724992, Note_off_c, 2, 77, 67
4, 724992, Note_off_c, 2, 80, 67
4, 724992, Note_on_c, 2, 77, 67
4, 724992, Note_on_c, 2, 82, 67
4, 725056, Note_off_c, 2, 77, 67
4, 725056, Note_off_c, 2, 82, 67
4, 725120, Note_off_c, 2, 77, 67
4, 725120, Note_off_c, 2, 82, 67
4, 725120, Note_on_c, 2, 80, 67
4, 725120, Note_on_c, 2, 87, 67
4, 725184, Note_off_c, 2, 80, 67
4, 725184, Note_off_c, 2, 87, 67
4, 725248, Note_off_c, 2, 80, 67
4, 725248, Note_off_c, 2, 87, 67
4, 725248, Note_on_c, 2, 82, 67
4, 725248, Note_on_c, 2, 86, 67
4, 725312, Note_off_c, 2, 82, 67
4, 725312, Note_off_c, 2, 86, 67
4, 725376, Note_off_c, 2, 82, 67
4, 725376, Note_off_c, 2, 86, 67
4, 725376, Note_on_c, 2, 80, 67
4, 725376, Note_on_c, 2, 89, 67
4, 725440, Note_off_c, 2, 80, 67
4, 725440, Note_off_c, 2, 89, 67
4, 725504, Note_off_c, 2, 80, 67
4, 725504, Note_off_c, 2, 89, 67
4, 725504, Note_on_c, 2, 79, 67
4, 725504, Note_on_c, 2, 87, 67
4, 725568, Note_off_c, 2, 79, 67
4, 725568, Note_off_c, 2, 87, 67
4, 725632, Note_off_c, 2, 79, 67
4, 725632, Note_off_c, 2, 87, 67
4, 725632, Note_on_c, 2, 70, 67
4, 725632, Note_on_c, 2, 82, 67
4, 725696, Note_off_c, 2, 70, 67
4, 725696, Note_off_c, 2, 82, 67
4, 725760, Note_off_c, 2, 70, 67
4, 725760, Note_off_c, 2, 82, 67
4, 725760, Note_on_c, 2, 70, 67
4, 725760, Note_on_c, 2, 82, 67
4, 725824, Note_off_c, 2, 70, 67
4, 725824, Note_off_c, 2, 82, 67
4, 725888, Note_off_c, 2, 70, 67
4, 725888, Note_off_c, 2, 82, 67
4, 725888, Note_on_c, 2, 75, 67
4, 725952, Note_off_c, 2, 75, 67
4, 725952, Note_on_c, 2, 77, 67
4, 726016, Note_off_c, 2, 77, 67
4, 726016, Note_on_c, 2, 79, 67
4, 726080, Note_off_c, 2, 79, 67
4, 726144, Note_off_c, 2, 79, 67
4, 726144, Note_on_c, 2, 75, 67
4, 726144, Note_on_c, 2, 79, 67
4, 726208, Note_off_c, 2, 75, 67
4, 726208, Note_off_c, 2, 79, 67
4, 726272, Note_off_c, 2, 75, 67
4, 726272, Note_off_c, 2, 79, 67
4, 726272, Note_on_c, 2, 75, 67
4, 726272, Note_on_c, 2, 79, 67
4, 726336, Note_off_c, 2, 75, 67
4, 726336, Note_off_c, 2, 79, 67
4, 726400, Note_off_c, 2, 75, 67
4, 726400, Note_off_c, 2, 79, 67
4, 726400, Note_on_c, 2, 75, 67
4, 726464, Note_off_c, 2, 75, 67
4, 726464, Note_on_c, 2, 77, 67
4, 726528, Note_off_c, 2, 77, 67
4, 726528, Note_on_c, 2, 79, 67
4, 726592, Note_off_c, 2, 79, 67
4, 726656, Note_off_c, 2, 79, 67
4, 726656, Note_on_c, 2, 75, 67
4, 726656, Note_on_c, 2, 79, 67
4, 726720, Note_off_c, 2, 75, 67
4, 726720, Note_off_c, 2, 79, 67
4, 726784, Note_off_c, 2, 75, 67
4, 726784, Note_off_c, 2, 79, 67
4, 726784, Note_on_c, 2, 75, 67
4, 726784, Note_on_c, 2, 79, 67
4, 726848, Note_off_c, 2, 75, 67
4, 726848, Note_off_c, 2, 79, 67
4, 726912, Note_off_c, 2, 75, 67
4, 726912, Note_off_c, 2, 79, 67
4, 726912, Note_on_c, 2, 75, 67
4, 726976, Note_off_c, 2, 75, 67
4, 726976, Note_on_c, 2, 77, 67
4, 727040, Note_off_c, 2, 77, 67
4, 727040, Note_on_c, 2, 79, 67
4, 727104, Note_off_c, 2, 79, 67
4, 727168, Note_off_c, 2, 79, 67
4, 727168, Note_on_c, 2, 75, 67
4, 727168, Note_on_c, 2, 79, 67
4, 727232, Note_off_c, 2, 75, 67
4, 727232, Note_off_c, 2, 79, 67
4, 727296, Note_off_c, 2, 75, 67
4, 727296, Note_off_c, 2, 79, 67
4, 727296, Note_on_c, 2, 75, 67
4, 727296, Note_on_c, 2, 80, 67
4, 727328, Note_off_c, 2, 75, 67
4, 727328, Note_off_c, 2, 80, 67
4, 727360, Note_off_c, 2, 75, 67
4, 727360, Note_off_c, 2, 80, 67
4, 727360, Note_on_c, 2, 74, 67
4, 727392, Note_off_c, 2, 74, 67
4, 727424, Note_off_c, 2, 74, 67
4, 727424, Note_on_c, 2, 72, 67
4, 727456, Note_off_c, 2, 72, 67
4, 727488, Note_off_c, 2, 72, 67
4, 727488, Note_on_c, 2, 74, 67
4, 727488, Note_on_c, 2, 79, 67
4, 727520, Note_off_c, 2, 74, 67
4, 727520, Note_off_c, 2, 79, 67
4, 727552, Note_off_c, 2, 74, 67
4, 727552, Note_off_c, 2, 79, 67
4, 727552, Note_on_c, 2, 70, 67
4, 727552, Note_on_c, 2, 77, 67
4, 727616, Note_off_c, 2, 70, 67
4, 727616, Note_off_c, 2, 77, 67
4, 727680, Note_off_c, 2, 70, 67
4, 727680, Note_off_c, 2, 77, 67
4, 727680, Note_on_c, 2, 68, 67
4, 727680, Note_on_c, 2, 70, 67
4, 727744, Note_off_c, 2, 68, 67
4, 727744, Note_off_c, 2, 70, 67
4, 727808, Note_off_c, 2, 68, 67
4, 727808, Note_off_c, 2, 70, 67
4, 727808, Note_on_c, 2, 68, 67
4, 727808, Note_on_c, 2, 70, 67
4, 727872, Note_off_c, 2, 68, 67
4, 727872, Note_off_c, 2, 70, 67
4, 727936, Note_off_c, 2, 68, 67
4, 727936, Note_off_c, 2, 70, 67
4, 727936, Note_on_c, 2, 74, 67
4, 728000, Note_off_c, 2, 74, 67
4, 728000, Note_on_c, 2, 75, 67
4, 728064, Note_off_c, 2, 75, 67
4, 728064, Note_on_c, 2, 77, 67
4, 728128, Note_off_c, 2, 77, 67
4, 728192, Note_off_c, 2, 77, 67
4, 728192, Note_on_c, 2, 74, 67
4, 728192, Note_on_c, 2, 77, 67
4, 728256, Note_off_c, 2, 74, 67
4, 728256, Note_off_c, 2, 77, 67
4, 728320, Note_off_c, 2, 74, 67
4, 728320, Note_off_c, 2, 77, 67
4, 728320, Note_on_c, 2, 74, 67
4, 728320, Note_on_c, 2, 77, 67
4, 728384, Note_off_c, 2, 74, 67
4, 728384, Note_off_c, 2, 77, 67
4, 728448, Note_off_c, 2, 74, 67
4, 728448, Note_off_c, 2, 77, 67
4, 728448, Note_on_c, 2, 74, 67
4, 728512, Note_off_c, 2, 74, 67
4, 728512, Note_on_c, 2, 75, 67
4, 728576, Note_off_c, 2, 75, 67
4, 728576, Note_on_c, 2, 77, 67
4, 728640, Note_off_c, 2, 77, 67
4, 728704, Note_off_c, 2, 77, 67
4, 728704, Note_on_c, 2, 74, 67
4, 728704, Note_on_c, 2, 77, 67
4, 728768, Note_off_c, 2, 74, 67
4, 728768, Note_off_c, 2, 77, 67
4, 728832, Note_off_c, 2, 74, 67
4, 728832, Note_off_c, 2, 77, 67
4, 728832, Note_on_c, 2, 74, 67
4, 728832, Note_on_c, 2, 77, 67
4, 728896, Note_off_c, 2, 74, 67
4, 728896, Note_off_c, 2, 77, 67
4, 728960, Note_off_c, 2, 74, 67
4, 728960, Note_off_c, 2, 77, 67
4, 728960, Note_on_c, 2, 74, 67
4, 729024, Note_off_c, 2, 74, 67
4, 729024, Note_on_c, 2, 75, 67
4, 729088, Note_off_c, 2, 75, 67
4, 729088, Note_on_c, 2, 70, 67
4, 729088, Note_on_c, 2, 77, 67
4, 729152, Note_off_c, 2, 70, 67
4, 729152, Note_off_c, 2, 77, 67
4, 729216, Note_off_c, 2, 70, 67
4, 729216, Note_off_c, 2, 77, 67
4, 729216, Note_on_c, 2, 74, 67
4, 729216, Note_on_c, 2, 77, 67
4, 729280, Note_off_c, 2, 74, 67
4, 729280, Note_off_c, 2, 77, 67
4, 729344, Note_off_c, 2, 74, 67
4, 729344, Note_off_c, 2, 77, 67
4, 729344, Note_on_c, 2, 74, 67
4, 729344, Note_on_c, 2, 79, 67
4, 729376, Note_off_c, 2, 74, 67
4, 729376, Note_off_c, 2, 79, 67
4, 729408, Note_off_c, 2, 74, 67
4, 729408, Note_off_c, 2, 79, 67
4, 729408, Note_on_c, 2, 72, 67
4, 729408, Note_on_c, 2, 77, 67
4, 729440, Note_off_c, 2, 72, 67
4, 729440, Note_off_c, 2, 77, 67
4, 729472, Note_off_c, 2, 72, 67
4, 729472, Note_off_c, 2, 77, 67
4, 729472, Note_on_c, 2, 70, 67
4, 729472, Note_on_c, 2, 77, 67
4, 729504, Note_off_c, 2, 70, 67
4, 729504, Note_off_c, 2, 77, 67
4, 729536, Note_off_c, 2, 70, 67
4, 729536, Note_off_c, 2, 77, 67
4, 729536, Note_on_c, 2, 68, 67
4, 729536, Note_on_c, 2, 79, 67
4, 729568, Note_off_c, 2, 68, 67
4, 729568, Note_off_c, 2, 79, 67
4, 729600, Note_off_c, 2, 68, 67
4, 729600, Note_off_c, 2, 79, 67
4, 729600, Note_on_c, 2, 67, 67
4, 729600, Note_on_c, 2, 75, 67
4, 729664, Note_off_c, 2, 67, 67
4, 729664, Note_off_c, 2, 75, 67
4, 729728, Note_off_c, 2, 67, 67
4, 729728, Note_off_c, 2, 75, 67
4, 729728, Note_on_c, 2, 70, 67
4, 729792, Note_off_c, 2, 70, 67
4, 729856, Note_off_c, 2, 70, 67
4, 729856, Note_on_c, 2, 70, 67
4, 729856, Note_on_c, 2, 79, 67
4, 729920, Note_off_c, 2, 70, 67
4, 729920, Note_off_c, 2, 79, 67
4, 729984, Note_off_c, 2, 70, 67
4, 729984, Note_off_c, 2, 79, 67
4, 729984, Note_on_c, 2, 75, 67
4, 730048, Note_off_c, 2, 75, 67
4, 730048, Note_on_c, 2, 77, 67
4, 730112, Note_off_c, 2, 77, 67
4, 730112, Note_on_c, 2, 79, 67
4, 730176, Note_off_c, 2, 79, 67
4, 730240, Note_off_c, 2, 79, 67
4, 730240, Note_on_c, 2, 75, 67
4, 730240, Note_on_c, 2, 79, 67
4, 730304, Note_off_c, 2, 75, 67
4, 730304, Note_off_c, 2, 79, 67
4, 730368, Note_off_c, 2, 75, 67
4, 730368, Note_off_c, 2, 79, 67
4, 730368, Note_on_c, 2, 75, 67
4, 730368, Note_on_c, 2, 79, 67
4, 730432, Note_off_c, 2, 75, 67
4, 730432, Note_off_c, 2, 79, 67
4, 730496, Note_off_c, 2, 75, 67
4, 730496, Note_off_c, 2, 79, 67
4, 730496, Note_on_c, 2, 75, 67
4, 730560, Note_off_c, 2, 75, 67
4, 730560, Note_on_c, 2, 77, 67
4, 730624, Note_off_c, 2, 77, 67
4, 730624, Note_on_c, 2, 79, 67
4, 730688, Note_off_c, 2, 79, 67
4, 730752, Note_off_c, 2, 79, 67
4, 730752, Note_on_c, 2, 75, 67
4, 730752, Note_on_c, 2, 79, 67
4, 730816, Note_off_c, 2, 75, 67
4, 730816, Note_off_c, 2, 79, 67
4, 730880, Note_off_c, 2, 75, 67
4, 730880, Note_off_c, 2, 79, 67
4, 730880, Note_on_c, 2, 75, 67
4, 730880, Note_on_c, 2, 79, 67
4, 730944, Note_off_c, 2, 75, 67
4, 730944, Note_off_c, 2, 79, 67
4, 731008, Note_off_c, 2, 75, 67
4, 731008, Note_off_c, 2, 79, 67
4, 731008, Note_on_c, 2, 75, 67
4, 731072, Note_off_c, 2, 75, 67
4, 731072, Note_on_c, 2, 77, 67
4, 731136, Note_off_c, 2, 77, 67
4, 731136, Note_on_c, 2, 79, 67
4, 731200, Note_off_c, 2, 79, 67
4, 731264, Note_off_c, 2, 79, 67
4, 731264, Note_on_c, 2, 75, 67
4, 731264, Note_on_c, 2, 79, 67
4, 731328, Note_off_c, 2, 75, 67
4, 731328, Note_off_c, 2, 79, 67
4, 731392, Note_off_c, 2, 75, 67
4, 731392, Note_off_c, 2, 79, 67
4, 731392, Note_on_c, 2, 75, 67
4, 731392, Note_on_c, 2, 80, 67
4, 731424, Note_off_c, 2, 75, 67
4, 731424, Note_off_c, 2, 80, 67
4, 731456, Note_off_c, 2, 75, 67
4, 731456, Note_off_c, 2, 80, 67
4, 731456, Note_on_c, 2, 74, 67
4, 731520, Note_off_c, 2, 74, 67
4, 731520, Note_on_c, 2, 72, 67
4, 731584, Note_off_c, 2, 72, 67
4, 731584, Note_on_c, 2, 74, 67
4, 731584, Note_on_c, 2, 79, 67
4, 731616, Note_off_c, 2, 74, 67
4, 731616, Note_off_c, 2, 79, 67
4, 731648, Note_off_c, 2, 74, 67
4, 731648, Note_off_c, 2, 79, 67
4, 731648, Note_on_c, 2, 70, 67
4, 731648, Note_on_c, 2, 77, 67
4, 731712, Note_off_c, 2, 70, 67
4, 731712, Note_off_c, 2, 77, 67
4, 731776, Note_off_c, 2, 70, 67
4, 731776, Note_off_c, 2, 77, 67
4, 731776, Note_on_c, 2, 68, 67
4, 731776, Note_on_c, 2, 70, 67
4, 731840, Note_off_c, 2, 68, 67
4, 731840, Note_off_c, 2, 70, 67
4, 731904, Note_off_c, 2, 68, 67
4, 731904, Note_off_c, 2, 70, 67
4, 731904, Note_on_c, 2, 68, 67
4, 731904, Note_on_c, 2, 70, 67
4, 731968, Note_off_c, 2, 68, 67
4, 731968, Note_off_c, 2, 70, 67
4, 732032, Note_off_c, 2, 68, 67
4, 732032, Note_off_c, 2, 70, 67
4, 732032, Note_on_c, 2, 74, 67
4, 732096, Note_off_c, 2, 74, 67
4, 732096, Note_on_c, 2, 75, 67
4, 732160, Note_off_c, 2, 75, 67
4, 732160, Note_on_c, 2, 77, 67
4, 732288, Note_off_c, 2, 77, 67
4, 732288, Note_on_c, 2, 74, 67
4, 732288, Note_on_c, 2, 80, 67
4, 732352, Note_off_c, 2, 74, 67
4, 732352, Note_off_c, 2, 80, 67
4, 732416, Note_off_c, 2, 74, 67
4, 732416, Note_off_c, 2, 80, 67
4, 732416, Note_on_c, 2, 74, 67
4, 732416, Note_on_c, 2, 79, 67
4, 732480, Note_off_c, 2, 74, 67
4, 732480, Note_off_c, 2, 79, 67
4, 732544, Note_off_c, 2, 74, 67
4, 732544, Note_off_c, 2, 79, 67
4, 732544, Note_on_c, 2, 77, 67
4, 732608, Note_off_c, 2, 77, 67
4, 732672, Note_off_c, 2, 77, 67
4, 732672, Note_on_c, 2, 75, 67
4, 732736, Note_off_c, 2, 75, 67
4, 732800, Note_off_c, 2, 75, 67
4, 732800, Note_on_c, 2, 70, 67
4, 732800, Note_on_c, 2, 74, 67
4, 732864, Note_off_c, 2, 70, 67
4, 732864, Note_off_c, 2, 74, 67
4, 732928, Note_off_c, 2, 70, 67
4, 732928, Note_off_c, 2, 74, 67
4, 732928, Note_on_c, 2, 72, 67
4, 732928, Note_on_c, 2, 74, 67
4, 732992, Note_off_c, 2, 72, 67
4, 732992, Note_off_c, 2, 74, 67
4, 733056, Note_off_c, 2, 72, 67
4, 733056, Note_off_c, 2, 74, 67
4, 733056, Note_on_c, 2, 70, 67
4, 733056, Note_on_c, 2, 74, 67
4, 733120, Note_off_c, 2, 70, 67
4, 733120, Note_off_c, 2, 74, 67
4, 733184, Note_off_c, 2, 70, 67
4, 733184, Note_off_c, 2, 74, 67
4, 733184, Note_on_c, 2, 80, 67
4, 733184, Note_on_c, 2, 84, 67
4, 733440, Note_off_c, 2, 80, 67
4, 733440, Note_off_c, 2, 84, 67
4, 733440, Note_on_c, 2, 70, 67
4, 733440, Note_on_c, 2, 74, 67
4, 733456, Note_off_c, 2, 70, 67
4, 733456, Note_off_c, 2, 74, 67
4, 733472, Note_off_c, 2, 70, 67
4, 733472, Note_off_c, 2, 74, 67
4, 733472, Note_on_c, 2, 72, 67
4, 733472, Note_on_c, 2, 75, 67
4, 733488, Note_off_c, 2, 72, 67
4, 733488, Note_off_c, 2, 75, 67
4, 733504, Note_off_c, 2, 72, 67
4, 733504, Note_off_c, 2, 75, 67
4, 733504, Note_on_c, 2, 70, 67
4, 733504, Note_on_c, 2, 74, 67
4, 733536, Note_off_c, 2, 70, 67
4, 733536, Note_off_c, 2, 74, 67
4, 733568, Note_off_c, 2, 70, 67
4, 733568, Note_off_c, 2, 74, 67
4, 733568, Note_on_c, 2, 68, 67
4, 733568, Note_on_c, 2, 72, 67
4, 733600, Note_off_c, 2, 68, 67
4, 733600, Note_off_c, 2, 72, 67
4, 733632, Note_off_c, 2, 68, 67
4, 733632, Note_off_c, 2, 72, 67
4, 733632, Note_on_c, 2, 74, 67
4, 733632, Note_on_c, 2, 77, 67
4, 733664, Note_off_c, 2, 74, 67
4, 733664, Note_off_c, 2, 77, 67
4, 733696, Note_off_c, 2, 74, 67
4, 733696, Note_off_c, 2, 77, 67
4, 733696, Note_on_c, 2, 75, 67
4, 733696, Note_on_c, 2, 79, 67
4, 733824, Note_off_c, 2, 75, 67
4, 733824, Note_off_c, 2, 79, 67
4, 733824, Note_on_c, 2, 70, 67
4, 733888, Note_off_c, 2, 70, 67
4, 733952, Note_off_c, 2, 70, 67
4, 733952, Note_on_c, 2, 70, 67
4, 734016, Note_off_c, 2, 70, 67
4, 734080, Note_off_c, 2, 70, 67
4, 734080, Note_on_c, 2, 75, 67
4, 734080, Note_on_c, 2, 79, 67
4, 734144, Note_off_c, 2, 75, 67
4, 734144, Note_off_c, 2, 79, 67
4, 734144, Note_on_c, 2, 77, 67
4, 734144, Note_on_c, 2, 80, 67
4, 734208, Note_off_c, 2, 77, 67
4, 734208, Note_off_c, 2, 80, 67
4, 734208, Note_on_c, 2, 79, 67
4, 734208, Note_on_c, 2, 82, 67
4, 734272, Note_off_c, 2, 79, 67
4, 734272, Note_off_c, 2, 82, 67
4, 734336, Note_off_c, 2, 79, 67
4, 734336, Note_off_c, 2, 82, 67
4, 734336, Note_on_c, 2, 79, 67
4, 734336, Note_on_c, 2, 82, 67
4, 734400, Note_off_c, 2, 79, 67
4, 734400, Note_off_c, 2, 82, 67
4, 734464, Note_off_c, 2, 79, 67
4, 734464, Note_off_c, 2, 82, 67
4, 734464, Note_on_c, 2, 70, 67
4, 734464, Note_on_c, 2, 79, 67
4, 734528, Note_off_c, 2, 70, 67
4, 734528, Note_off_c, 2, 79, 67
4, 734592, Note_off_c, 2, 70, 67
4, 734592, Note_off_c, 2, 79, 67
4, 734592, Note_on_c, 2, 70, 67
4, 734592, Note_on_c, 2, 75, 67
4, 734656, Note_off_c, 2, 70, 67
4, 734656, Note_off_c, 2, 75, 67
4, 734720, Note_off_c, 2, 70, 67
4, 734720, Note_off_c, 2, 75, 67
4, 734720, Note_on_c, 2, 84, 67
4, 734720, Note_on_c, 2, 87, 67
4, 734784, Note_off_c, 2, 84, 67
4, 734784, Note_off_c, 2, 87, 67
4, 734848, Note_off_c, 2, 84, 67
4, 734848, Note_off_c, 2, 87, 67
4, 734848, Note_on_c, 2, 82, 67
4, 734848, Note_on_c, 2, 86, 67
4, 734912, Note_off_c, 2, 82, 67
4, 734912, Note_off_c, 2, 86, 67
4, 734976, Note_off_c, 2, 82, 67
4, 734976, Note_off_c, 2, 86, 67
4, 734976, Note_on_c, 2, 80, 67
4, 734976, Note_on_c, 2, 84, 67
4, 735040, Note_off_c, 2, 80, 67
4, 735040, Note_off_c, 2, 84, 67
4, 735104, Note_off_c, 2, 80, 67
4, 735104, Note_off_c, 2, 84, 67
4, 735104, Note_on_c, 2, 79, 67
4, 735104, Note_on_c, 2, 87, 67
4, 735168, Note_off_c, 2, 79, 67
4, 735168, Note_off_c, 2, 87, 67
4, 735232, Note_off_c, 2, 79, 67
4, 735232, Note_off_c, 2, 87, 67
4, 735232, Note_on_c, 2, 75, 67
4, 735232, Note_on_c, 2, 82, 67
4, 735296, Note_off_c, 2, 75, 67
4, 735296, Note_off_c, 2, 82, 67
4, 735360, Note_off_c, 2, 75, 67
4, 735360, Note_off_c, 2, 82, 67
4, 735360, Note_on_c, 2, 79, 67
4, 735424, Note_off_c, 2, 79, 67
4, 735488, Note_off_c, 2, 79, 67
4, 735488, Note_on_c, 2, 67, 67
4, 735488, Note_on_c, 2, 75, 67
4, 735552, Note_off_c, 2, 67, 67
4, 735552, Note_off_c, 2, 75, 67
4, 735616, Note_off_c, 2, 67, 67
4, 735616, Note_off_c, 2, 75, 67
4, 735616, Note_on_c, 2, 68, 67
4, 735616, Note_on_c, 2, 74, 67
4, 735648, Note_off_c, 2, 68, 67
4, 735648, Note_off_c, 2, 74, 67
4, 735680, Note_off_c, 2, 68, 67
4, 735680, Note_off_c, 2, 74, 67
4, 735680, Note_on_c, 2, 74, 67
4, 735680, Note_on_c, 2, 79, 67
4, 735712, Note_off_c, 2, 74, 67
4, 735712, Note_off_c, 2, 79, 67
4, 735744, Note_off_c, 2, 74, 67
4, 735744, Note_off_c, 2, 79, 67
4, 735744, Note_on_c, 2, 70, 67
4, 735744, Note_on_c, 2, 77, 67
4, 735808, Note_off_c, 2, 70, 67
4, 735808, Note_off_c, 2, 77, 67
4, 735872, Note_off_c, 2, 70, 67
4, 735872, Note_off_c, 2, 77, 67
4, 735872, Note_on_c, 2, 65, 67
4, 735872, Note_on_c, 2, 70, 67
4, 735936, Note_off_c, 2, 65, 67
4, 735936, Note_off_c, 2, 70, 67
4, 736000, Note_off_c, 2, 65, 67
4, 736000, Note_off_c, 2, 70, 67
4, 736000, Note_on_c, 2, 68, 67
4, 736000, Note_on_c, 2, 70, 67
4, 736064, Note_off_c, 2, 68, 67
4, 736064, Note_off_c, 2, 70, 67
4, 736128, Note_off_c, 2, 68, 67
4, 736128, Note_off_c, 2, 70, 67
4, 736128, Note_on_c, 2, 70, 67
4, 736128, Note_on_c, 2, 79, 67
4, 736192, Note_off_c, 2, 70, 67
4, 736192, Note_off_c, 2, 79, 67
4, 736192, Note_on_c, 2, 77, 67
4, 736192, Note_on_c, 2, 80, 67
4, 736256, Note_off_c, 2, 77, 67
4, 736256, Note_off_c, 2, 80, 67
4, 736256, Note_on_c, 2, 79, 67
4, 736256, Note_on_c, 2, 82, 67
4, 736320, Note_off_c, 2, 79, 67
4, 736320, Note_off_c, 2, 82, 67
4, 736384, Note_off_c, 2, 79, 67
4, 736384, Note_off_c, 2, 82, 67
4, 736384, Note_on_c, 2, 79, 67
4, 736384, Note_on_c, 2, 82, 67
4, 736448, Note_off_c, 2, 79, 67
4, 736448, Note_off_c, 2, 82, 67
4, 736512, Note_off_c, 2, 79, 67
4, 736512, Note_off_c, 2, 82, 67
4, 736512, Note_on_c, 2, 70, 67
4, 736512, Note_on_c, 2, 79, 67
4, 736576, Note_off_c, 2, 70, 67
4, 736576, Note_off_c, 2, 79, 67
4, 736640, Note_off_c, 2, 70, 67
4, 736640, Note_off_c, 2, 79, 67
4, 736640, Note_on_c, 2, 75, 67
4, 736640, Note_on_c, 2, 82, 67
4, 736704, Note_off_c, 2, 75, 67
4, 736704, Note_off_c, 2, 82, 67
4, 736768, Note_off_c, 2, 75, 67
4, 736768, Note_off_c, 2, 82, 67
4, 736768, Note_on_c, 2, 84, 67
4, 736768, Note_on_c, 2, 87, 67
4, 736832, Note_off_c, 2, 84, 67
4, 736832, Note_off_c, 2, 87, 67
4, 736896, Note_off_c, 2, 84, 67
4, 736896, Note_off_c, 2, 87, 67
4, 736896, Note_on_c, 2, 82, 67
4, 736896, Note_on_c, 2, 86, 67
4, 736960, Note_off_c, 2, 82, 67
4, 736960, Note_off_c, 2, 86, 67
4, 737024, Note_off_c, 2, 82, 67
4, 737024, Note_off_c, 2, 86, 67
4, 737024, Note_on_c, 2, 80, 67
4, 737024, Note_on_c, 2, 84, 67
4, 737088, Note_off_c, 2, 80, 67
4, 737088, Note_off_c, 2, 84, 67
4, 737152, Note_off_c, 2, 80, 67
4, 737152, Note_off_c, 2, 84, 67
4, 737152, Note_on_c, 2, 70, 67
4, 737152, Note_on_c, 2, 74, 67
4, 737184, Note_off_c, 2, 70, 67
4, 737184, Note_off_c, 2, 74, 67
4, 737216, Note_off_c, 2, 70, 67
4, 737216, Note_off_c, 2, 74, 67
4, 737216, Note_on_c, 2, 77, 67
4, 737216, Note_on_c, 2, 80, 67
4, 737248, Note_off_c, 2, 77, 67
4, 737248, Note_off_c, 2, 80, 67
4, 737280, Note_off_c, 2, 77, 67
4, 737280, Note_off_c, 2, 80, 67
4, 737280, Note_on_c, 2, 77, 67
4, 737280, Note_on_c, 2, 82, 67
4, 737344, Note_off_c, 2, 77, 67
4, 737344, Note_off_c, 2, 82, 67
4, 737408, Note_off_c, 2, 77, 67
4, 737408, Note_off_c, 2, 82, 67
4, 737408, Note_on_c, 2, 80, 67
4, 737408, Note_on_c, 2, 87, 67
4, 737472, Note_off_c, 2, 80, 67
4, 737472, Note_off_c, 2, 87, 67
4, 737536, Note_off_c, 2, 80, 67
4, 737536, Note_off_c, 2, 87, 67
4, 737536, Note_on_c, 2, 82, 67
4, 737536, Note_on_c, 2, 86, 67
4, 737600, Note_off_c, 2, 82, 67
4, 737600, Note_off_c, 2, 86, 67
4, 737664, Note_off_c, 2, 82, 67
4, 737664, Note_off_c, 2, 86, 67
4, 737664, Note_on_c, 2, 80, 67
4, 737664, Note_on_c, 2, 89, 67
4, 737728, Note_off_c, 2, 80, 67
4, 737728, Note_off_c, 2, 89, 67
4, 737792, Note_off_c, 2, 80, 67
4, 737792, Note_off_c, 2, 89, 67
4, 737792, Note_on_c, 2, 79, 67
4, 737792, Note_on_c, 2, 87, 67
4, 737856, Note_off_c, 2, 79, 67
4, 737856, Note_off_c, 2, 87, 67
4, 737920, Note_off_c, 2, 79, 67
4, 737920, Note_off_c, 2, 87, 67
4, 737920, Note_on_c, 2, 70, 67
4, 737920, Note_on_c, 2, 82, 67
4, 737984, Note_off_c, 2, 70, 67
4, 737984, Note_off_c, 2, 82, 67
4, 738048, Note_off_c, 2, 70, 67
4, 738048, Note_off_c, 2, 82, 67
4, 738048, Note_on_c, 2, 70, 67
4, 738048, Note_on_c, 2, 82, 67
4, 738112, Note_off_c, 2, 70, 67
4, 738112, Note_off_c, 2, 82, 67
4, 738176, Note_off_c, 2, 70, 67
4, 738176, Note_off_c, 2, 82, 67
4, 738176, Note_on_c, 2, 75, 67
4, 738240, Note_off_c, 2, 75, 67
4, 738240, Note_on_c, 2, 77, 67
4, 738304, Note_off_c, 2, 77, 67
4, 738304, Note_on_c, 2, 79, 67
4, 738368, Note_off_c, 2, 79, 67
4, 738432, Note_off_c, 2, 79, 67
4, 738432, Note_on_c, 2, 75, 67
4, 738432, Note_on_c, 2, 79, 67
4, 738496, Note_off_c, 2, 75, 67
4, 738496, Note_off_c, 2, 79, 67
4, 738560, Note_off_c, 2, 75, 67
4, 738560, Note_off_c, 2, 79, 67
4, 738560, Note_on_c, 2, 75, 67
4, 738560, Note_on_c, 2, 79, 67
4, 738624, Note_off_c, 2, 75, 67
4, 738624, Note_off_c, 2, 79, 67
4, 738688, Note_off_c, 2, 75, 67
4, 738688, Note_off_c, 2, 79, 67
4, 738688, Note_on_c, 2, 75, 67
4, 738752, Note_off_c, 2, 75, 67
4, 738752, Note_on_c, 2, 77, 67
4, 738816, Note_off_c, 2, 77, 67
4, 738816, Note_on_c, 2, 79, 67
4, 738880, Note_off_c, 2, 79, 67
4, 738944, Note_off_c, 2, 79, 67
4, 738944, Note_on_c, 2, 75, 67
4, 738944, Note_on_c, 2, 79, 67
4, 739008, Note_off_c, 2, 75, 67
4, 739008, Note_off_c, 2, 79, 67
4, 739072, Note_off_c, 2, 75, 67
4, 739072, Note_off_c, 2, 79, 67
4, 739072, Note_on_c, 2, 75, 67
4, 739072, Note_on_c, 2, 79, 67
4, 739136, Note_off_c, 2, 75, 67
4, 739136, Note_off_c, 2, 79, 67
4, 739200, Note_off_c, 2, 75, 67
4, 739200, Note_off_c, 2, 79, 67
4, 739200, Note_on_c, 2, 75, 67
4, 739264, Note_off_c, 2, 75, 67
4, 739264, Note_on_c, 2, 77, 67
4, 739328, Note_off_c, 2, 77, 67
4, 739328, Note_on_c, 2, 79, 67
4, 739392, Note_off_c, 2, 79, 67
4, 739456, Note_off_c, 2, 79, 67
4, 739456, Note_on_c, 2, 75, 67
4, 739456, Note_on_c, 2, 79, 67
4, 739520, Note_off_c, 2, 75, 67
4, 739520, Note_off_c, 2, 79, 67
4, 739584, Note_off_c, 2, 75, 67
4, 739584, Note_off_c, 2, 79, 67
4, 739584, Note_on_c, 2, 75, 67
4, 739584, Note_on_c, 2, 80, 67
4, 739616, Note_off_c, 2, 75, 67
4, 739616, Note_off_c, 2, 80, 67
4, 739648, Note_off_c, 2, 75, 67
4, 739648, Note_off_c, 2, 80, 67
4, 739648, Note_on_c, 2, 74, 67
4, 739680, Note_off_c, 2, 74, 67
4, 739712, Note_off_c, 2, 74, 67
4, 739712, Note_on_c, 2, 72, 67
4, 739744, Note_off_c, 2, 72, 67
4, 739776, Note_off_c, 2, 72, 67
4, 739776, Note_on_c, 2, 74, 67
4, 739776, Note_on_c, 2, 79, 67
4, 739808, Note_off_c, 2, 74, 67
4, 739808, Note_off_c, 2, 79, 67
4, 739840, Note_off_c, 2, 74, 67
4, 739840, Note_off_c, 2, 79, 67
4, 739840, Note_on_c, 2, 70, 67
4, 739840, Note_on_c, 2, 77, 67
4, 739904, Note_off_c, 2, 70, 67
4, 739904, Note_off_c, 2, 77, 67
4, 739968, Note_off_c, 2, 70, 67
4, 739968, Note_off_c, 2, 77, 67
4, 739968, Note_on_c, 2, 68, 67
4, 739968, Note_on_c, 2, 70, 67
4, 740032, Note_off_c, 2, 68, 67
4, 740032, Note_off_c, 2, 70, 67
4, 740096, Note_off_c, 2, 68, 67
4, 740096, Note_off_c, 2, 70, 67
4, 740096, Note_on_c, 2, 68, 67
4, 740096, Note_on_c, 2, 70, 67
4, 740160, Note_off_c, 2, 68, 67
4, 740160, Note_off_c, 2, 70, 67
4, 740224, Note_off_c, 2, 68, 67
4, 740224, Note_off_c, 2, 70, 67
4, 740224, Note_on_c, 2, 74, 67
4, 740288, Note_off_c, 2, 74, 67
4, 740288, Note_on_c, 2, 75, 67
4, 740352, Note_off_c, 2, 75, 67
4, 740352, Note_on_c, 2, 77, 67
4, 740416, Note_off_c, 2, 77, 67
4, 740480, Note_off_c, 2, 77, 67
4, 740480, Note_on_c, 2, 74, 67
4, 740480, Note_on_c, 2, 77, 67
4, 740544, Note_off_c, 2, 74, 67
4, 740544, Note_off_c, 2, 77, 67
4, 740608, Note_off_c, 2, 74, 67
4, 740608, Note_off_c, 2, 77, 67
4, 740608, Note_on_c, 2, 74, 67
4, 740608, Note_on_c, 2, 77, 67
4, 740672, Note_off_c, 2, 74, 67
4, 740672, Note_off_c, 2, 77, 67
4, 740736, Note_off_c, 2, 74, 67
4, 740736, Note_off_c, 2, 77, 67
4, 740736, Note_on_c, 2, 74, 67
4, 740800, Note_off_c, 2, 74, 67
4, 740800, Note_on_c, 2, 75, 67
4, 740864, Note_off_c, 2, 75, 67
4, 740864, Note_on_c, 2, 77, 67
4, 740928, Note_off_c, 2, 77, 67
4, 740992, Note_off_c, 2, 77, 67
4, 740992, Note_on_c, 2, 74, 67
4, 740992, Note_on_c, 2, 77, 67
4, 741056, Note_off_c, 2, 74, 67
4, 741056, Note_off_c, 2, 77, 67
4, 741120, Note_off_c, 2, 74, 67
4, 741120, Note_off_c, 2, 77, 67
4, 741120, Note_on_c, 2, 74, 67
4, 741120, Note_on_c, 2, 77, 67
4, 741184, Note_off_c, 2, 74, 67
4, 741184, Note_off_c, 2, 77, 67
4, 741248, Note_off_c, 2, 74, 67
4, 741248, Note_off_c, 2, 77, 67
4, 741248, Note_on_c, 2, 74, 67
4, 741312, Note_off_c, 2, 74, 67
4, 741312, Note_on_c, 2, 75, 67
4, 741376, Note_off_c, 2, 75, 67
4, 741376, Note_on_c, 2, 70, 67
4, 741376, Note_on_c, 2, 77, 67
4, 741440, Note_off_c, 2, 70, 67
4, 741440, Note_off_c, 2, 77, 67
4, 741504, Note_off_c, 2, 70, 67
4, 741504, Note_off_c, 2, 77, 67
4, 741504, Note_on_c, 2, 74, 67
4, 741504, Note_on_c, 2, 77, 67
4, 741568, Note_off_c, 2, 74, 67
4, 741568, Note_off_c, 2, 77, 67
4, 741632, Note_off_c, 2, 74, 67
4, 741632, Note_off_c, 2, 77, 67
4, 741632, Note_on_c, 2, 74, 67
4, 741632, Note_on_c, 2, 79, 67
4, 741664, Note_off_c, 2, 74, 67
4, 741664, Note_off_c, 2, 79, 67
4, 741696, Note_off_c, 2, 74, 67
4, 741696, Note_off_c, 2, 79, 67
4, 741696, Note_on_c, 2, 72, 67
4, 741696, Note_on_c, 2, 77, 67
4, 741728, Note_off_c, 2, 72, 67
4, 741728, Note_off_c, 2, 77, 67
4, 741760, Note_off_c, 2, 72, 67
4, 741760, Note_off_c, 2, 77, 67
4, 741760, Note_on_c, 2, 70, 67
4, 741760, Note_on_c, 2, 77, 67
4, 741792, Note_off_c, 2, 70, 67
4, 741792, Note_off_c, 2, 77, 67
4, 741824, Note_off_c, 2, 70, 67
4, 741824, Note_off_c, 2, 77, 67
4, 741824, Note_on_c, 2, 68, 67
4, 741824, Note_on_c, 2, 79, 67
4, 741856, Note_off_c, 2, 68, 67
4, 741856, Note_off_c, 2, 79, 67
4, 741888, Note_off_c, 2, 68, 67
4, 741888, Note_off_c, 2, 79, 67
4, 741888, Note_on_c, 2, 67, 67
4, 741888, Note_on_c, 2, 75, 67
4, 741952, Note_off_c, 2, 67, 67
4, 741952, Note_off_c, 2, 75, 67
4, 742016, Note_off_c, 2, 67, 67
4, 742016, Note_off_c, 2, 75, 67
4, 742016, Note_on_c, 2, 70, 67
4, 742080, Note_off_c, 2, 70, 67
4, 742144, Note_off_c, 2, 70, 67
4, 742144, Note_on_c, 2, 70, 67
4, 742144, Note_on_c, 2, 79, 67
4, 742208, Note_off_c, 2, 70, 67
4, 742208, Note_off_c, 2, 79, 67
4, 742272, Note_off_c, 2, 70, 67
4, 742272, Note_off_c, 2, 79, 67
4, 742272, Note_on_c, 2, 75, 67
4, 742336, Note_off_c, 2, 75, 67
4, 742336, Note_on_c, 2, 77, 67
4, 742400, Note_off_c, 2, 77, 67
4, 742400, Note_on_c, 2, 79, 67
4, 742464, Note_off_c, 2, 79, 67
4, 742528, Note_off_c, 2, 79, 67
4, 742528, Note_on_c, 2, 75, 67
4, 742528, Note_on_c, 2, 79, 67
4, 742592, Note_off_c, 2, 75, 67
4, 742592, Note_off_c, 2, 79, 67
4, 742656, Note_off_c, 2, 75, 67
4, 742656, Note_off_c, 2, 79, 67
4, 742656, Note_on_c, 2, 75, 67
4, 742656, Note_on_c, 2, 79, 67
4, 742720, Note_off_c, 2, 75, 67
4, 742720, Note_off_c, 2, 79, 67
4, 742784, Note_off_c, 2, 75, 67
4, 742784, Note_off_c, 2, 79, 67
4, 742784, Note_on_c, 2, 75, 67
4, 742848, Note_off_c, 2, 75, 67
4, 742848, Note_on_c, 2, 77, 67
4, 742912, Note_off_c, 2, 77, 67
4, 742912, Note_on_c, 2, 79, 67
4, 742976, Note_off_c, 2, 79, 67
4, 743040, Note_off_c, 2, 79, 67
4, 743040, Note_on_c, 2, 75, 67
4, 743040, Note_on_c, 2, 79, 67
4, 743104, Note_off_c, 2, 75, 67
4, 743104, Note_off_c, 2, 79, 67
4, 743168, Note_off_c, 2, 75, 67
4, 743168, Note_off_c, 2, 79, 67
4, 743168, Note_on_c, 2, 75, 67
4, 743168, Note_on_c, 2, 79, 67
4, 743232, Note_off_c, 2, 75, 67
4, 743232, Note_off_c, 2, 79, 67
4, 743296, Note_off_c, 2, 75, 67
4, 743296, Note_off_c, 2, 79, 67
4, 743296, Note_on_c, 2, 75, 67
4, 743360, Note_off_c, 2, 75, 67
4, 743360, Note_on_c, 2, 77, 67
4, 743424, Note_off_c, 2, 77, 67
4, 743424, Note_on_c, 2, 79, 67
4, 743488, Note_off_c, 2, 79, 67
4, 743552, Note_off_c, 2, 79, 67
4, 743552, Note_on_c, 2, 75, 67
4, 743552, Note_on_c, 2, 79, 67
4, 743616, Note_off_c, 2, 75, 67
4, 743616, Note_off_c, 2, 79, 67
4, 743680, Note_off_c, 2, 75, 67
4, 743680, Note_off_c, 2, 79, 67
4, 743680, Note_on_c, 2, 75, 67
4, 743680, Note_on_c, 2, 80, 67
4, 743712, Note_off_c, 2, 75, 67
4, 743712, Note_off_c, 2, 80, 67
4, 743744, Note_off_c, 2, 75, 67
4, 743744, Note_off_c, 2, 80, 67
4, 743744, Note_on_c, 2, 74, 67
4, 743808, Note_off_c, 2, 74, 67
4, 743808, Note_on_c, 2, 72, 67
4, 743872, Note_off_c, 2, 72, 67
4, 743872, Note_on_c, 2, 74, 67
4, 743872, Note_on_c, 2, 79, 67
4, 743904, Note_off_c, 2, 74, 67
4, 743904, Note_off_c, 2, 79, 67
4, 743936, Note_off_c, 2, 74, 67
4, 743936, Note_off_c, 2, 79, 67
4, 743936, Note_on_c, 2, 70, 67
4, 743936, Note_on_c, 2, 77, 67
4, 744000, Note_off_c, 2, 70, 67
4, 744000, Note_off_c, 2, 77, 67
4, 744064, Note_off_c, 2, 70, 67
4, 744064, Note_off_c, 2, 77, 67
4, 744064, Note_on_c, 2, 68, 67
4, 744064, Note_on_c, 2, 70, 67
4, 744128, Note_off_c, 2, 68, 67
4, 744128, Note_off_c, 2, 70, 67
4, 744192, Note_off_c, 2, 68, 67
4, 744192, Note_off_c, 2, 70, 67
4, 744192, Note_on_c, 2, 68, 67
4, 744192, Note_on_c, 2, 70, 67
4, 744256, Note_off_c, 2, 68, 67
4, 744256, Note_off_c, 2, 70, 67
4, 744320, Note_off_c, 2, 68, 67
4, 744320, Note_off_c, 2, 70, 67
4, 744320, Note_on_c, 2, 74, 67
4, 744384, Note_off_c, 2, 74, 67
4, 744384, Note_on_c, 2, 75, 67
4, 744448, Note_off_c, 2, 75, 67
4, 744448, Note_on_c, 2, 77, 67
4, 744576, Note_off_c, 2, 77, 67
4, 744576, Note_on_c, 2, 74, 67
4, 744576, Note_on_c, 2, 80, 67
4, 744640, Note_off_c, 2, 74, 67
4, 744640, Note_off_c, 2, 80, 67
4, 744704, Note_off_c, 2, 74, 67
4, 744704, Note_off_c, 2, 80, 67
4, 744704, Note_on_c, 2, 74, 67
4, 744704, Note_on_c, 2, 79, 67
4, 744768, Note_off_c, 2, 74, 67
4, 744768, Note_off_c, 2, 79, 67
4, 744832, Note_off_c, 2, 74, 67
4, 744832, Note_off_c, 2, 79, 67
4, 744832, Note_on_c, 2, 77, 67
4, 744896, Note_off_c, 2, 77, 67
4, 744960, Note_off_c, 2, 77, 67
4, 744960, Note_on_c, 2, 75, 67
4, 745024, Note_off_c, 2, 75, 67
4, 745088, Note_off_c, 2, 75, 67
4, 745088, Note_on_c, 2, 70, 67
4, 745088, Note_on_c, 2, 74, 67
4, 745152, Note_off_c, 2, 70, 67
4, 745152, Note_off_c, 2, 74, 67
4, 745216, Note_off_c, 2, 70, 67
4, 745216, Note_off_c, 2, 74, 67
4, 745216, Note_on_c, 2, 72, 67
4, 745216, Note_on_c, 2, 74, 67
4, 745280, Note_off_c, 2, 72, 67
4, 745280, Note_off_c, 2, 74, 67
4, 745344, Note_off_c, 2, 72, 67
4, 745344, Note_off_c, 2, 74, 67
4, 745344, Note_on_c, 2, 70, 67
4, 745344, Note_on_c, 2, 74, 67
4, 745408, Note_off_c, 2, 70, 67
4, 745408, Note_off_c, 2, 74, 67
4, 745472, Note_off_c, 2, 70, 67
4, 745472, Note_off_c, 2, 74, 67
4, 745472, Note_on_c, 2, 80, 67
4, 745472, Note_on_c, 2, 84, 67
4, 745728, Note_off_c, 2, 80, 67
4, 745728, Note_off_c, 2, 84, 67
4, 745728, Note_on_c, 2, 70, 67
4, 745728, Note_on_c, 2, 74, 67
4, 745744, Note_off_c, 2, 70, 67
4, 745744, Note_off_c, 2, 74, 67
4, 745760, Note_off_c, 2, 70, 67
4, 745760, Note_off_c, 2, 74, 67
4, 745760, Note_on_c, 2, 72, 67
4, 745760, Note_on_c, 2, 75, 67
4, 745776, Note_off_c, 2, 72, 67
4, 745776, Note_off_c, 2, 75, 67
4, 745792, Note_off_c, 2, 72, 67
4, 745792, Note_off_c, 2, 75, 67
4, 745792, Note_on_c, 2, 70, 67
4, 745792, Note_on_c, 2, 74, 67
4, 745824, Note_off_c, 2, 70, 67
4, 745824, Note_off_c, 2, 74, 67
4, 745856, Note_off_c, 2, 70, 67
4, 745856, Note_off_c, 2, 74, 67
4, 745856, Note_on_c, 2, 68, 67
4, 745856, Note_on_c, 2, 72, 67
4, 745888, Note_off_c, 2, 68, 67
4, 745888, Note_off_c, 2, 72, 67
4, 745920, Note_off_c, 2, 68, 67
4, 745920, Note_off_c, 2, 72, 67
4, 745920, Note_on_c, 2, 74, 67
4, 745920, Note_on_c, 2, 77, 67
4, 745952, Note_off_c, 2, 74, 67
4, 745952, Note_off_c, 2, 77, 67
4, 745984, Note_off_c, 2, 74, 67
4, 745984, Note_off_c, 2, 77, 67
4, 745984, Note_on_c, 2, 75, 67
4, 745984, Note_on_c, 2, 79, 67
4, 746112, Note_off_c, 2, 75, 67
4, 746112, Note_off_c, 2, 79, 67
4, 746112, Note_on_c, 2, 70, 67
4, 746176, Note_off_c, 2, 70, 67
4, 746240, Note_off_c, 2, 70, 67
4, 746240, Note_on_c, 2, 70, 67
4, 746304, Note_off_c, 2, 70, 67
4, 746368, Note_off_c, 2, 70, 67
4, 746368, Note_on_c, 2, 75, 67
4, 746368, Note_on_c, 2, 79, 67
4, 746432, Note_off_c, 2, 75, 67
4, 746432, Note_off_c, 2, 79, 67
4, 746432, Note_on_c, 2, 77, 67
4, 746432, Note_on_c, 2, 80, 67
4, 746496, Note_off_c, 2, 77, 67
4, 746496, Note_off_c, 2, 80, 67
4, 746496, Note_on_c, 2, 79, 67
4, 746496, Note_on_c, 2, 82, 67
4, 746560, Note_off_c, 2, 79, 67
4, 746560, Note_off_c, 2, 82, 67
4, 746624, Note_off_c, 2, 79, 67
4, 746624, Note_off_c, 2, 82, 67
4, 746624, Note_on_c, 2, 79, 67
4, 746624, Note_on_c, 2, 82, 67
4, 746688, Note_off_c, 2, 79, 67
4, 746688, Note_off_c, 2, 82, 67
4, 746752, Note_off_c, 2, 79, 67
4, 746752, Note_off_c, 2, 82, 67
4, 746752, Note_on_c, 2, 70, 67
4, 746752, Note_on_c, 2, 79, 67
4, 746816, Note_off_c, 2, 70, 67
4, 746816, Note_off_c, 2, 79, 67
4, 746880, Note_off_c, 2, 70, 67
4, 746880, Note_off_c, 2, 79, 67
4, 746880, Note_on_c, 2, 70, 67
4, 746880, Note_on_c, 2, 75, 67
4, 746944, Note_off_c, 2, 70, 67
4, 746944, Note_off_c, 2, 75, 67
4, 747008, Note_off_c, 2, 70, 67
4, 747008, Note_off_c, 2, 75, 67
4, 747008, Note_on_c, 2, 84, 67
4, 747008, Note_on_c, 2, 87, 67
4, 747072, Note_off_c, 2, 84, 67
4, 747072, Note_off_c, 2, 87, 67
4, 747136, Note_off_c, 2, 84, 67
4, 747136, Note_off_c, 2, 87, 67
4, 747136, Note_on_c, 2, 82, 67
4, 747136, Note_on_c, 2, 86, 67
4, 747200, Note_off_c, 2, 82, 67
4, 747200, Note_off_c, 2, 86, 67
4, 747264, Note_off_c, 2, 82, 67
4, 747264, Note_off_c, 2, 86, 67
4, 747264, Note_on_c, 2, 80, 67
4, 747264, Note_on_c, 2, 84, 67
4, 747328, Note_off_c, 2, 80, 67
4, 747328, Note_off_c, 2, 84, 67
4, 747392, Note_off_c, 2, 80, 67
4, 747392, Note_off_c, 2, 84, 67
4, 747392, Note_on_c, 2, 79, 67
4, 747392, Note_on_c, 2, 87, 67
4, 747456, Note_off_c, 2, 79, 67
4, 747456, Note_off_c, 2, 87, 67
4, 747520, Note_off_c, 2, 79, 67
4, 747520, Note_off_c, 2, 87, 67
4, 747520, Note_on_c, 2, 75, 67
4, 747520, Note_on_c, 2, 82, 67
4, 747584, Note_off_c, 2, 75, 67
4, 747584, Note_off_c, 2, 82, 67
4, 747648, Note_off_c, 2, 75, 67
4, 747648, Note_off_c, 2, 82, 67
4, 747648, Note_on_c, 2, 79, 67
4, 747712, Note_off_c, 2, 79, 67
4, 747776, Note_off_c, 2, 79, 67
4, 747776, Note_on_c, 2, 67, 67
4, 747776, Note_on_c, 2, 75, 67
4, 747840, Note_off_c, 2, 67, 67
4, 747840, Note_off_c, 2, 75, 67
4, 747904, Note_off_c, 2, 67, 67
4, 747904, Note_off_c, 2, 75, 67
4, 747904, Note_on_c, 2, 68, 67
4, 747904, Note_on_c, 2, 74, 67
4, 747936, Note_off_c, 2, 68, 67
4, 747936, Note_off_c, 2, 74, 67
4, 747968, Note_off_c, 2, 68, 67
4, 747968, Note_off_c, 2, 74, 67
4, 747968, Note_on_c, 2, 74, 67
4, 747968, Note_on_c, 2, 79, 67
4, 748000, Note_off_c, 2, 74, 67
4, 748000, Note_off_c, 2, 79, 67
4, 748032, Note_off_c, 2, 74, 67
4, 748032, Note_off_c, 2, 79, 67
4, 748032, Note_on_c, 2, 70, 67
4, 748032, Note_on_c, 2, 77, 67
4, 748096, Note_off_c, 2, 70, 67
4, 748096, Note_off_c, 2, 77, 67
4, 748160, Note_off_c, 2, 70, 67
4, 748160, Note_off_c, 2, 77, 67
4, 748160, Note_on_c, 2, 65, 67
4, 748160, Note_on_c, 2, 70, 67
4, 748224, Note_off_c, 2, 65, 67
4, 748224, Note_off_c, 2, 70, 67
4, 748288, Note_off_c, 2, 65, 67
4, 748288, Note_off_c, 2, 70, 67
4, 748288, Note_on_c, 2, 68, 67
4, 748288, Note_on_c, 2, 70, 67
4, 748352, Note_off_c, 2, 68, 67
4, 748352, Note_off_c, 2, 70, 67
4, 748416, Note_off_c, 2, 68, 67
4, 748416, Note_off_c, 2, 70, 67
4, 748416, Note_on_c, 2, 70, 67
4, 748416, Note_on_c, 2, 79, 67
4, 748480, Note_off_c, 2, 70, 67
4, 748480, Note_off_c, 2, 79, 67
4, 748480, Note_on_c, 2, 77, 67
4, 748480, Note_on_c, 2, 80, 67
4, 748544, Note_off_c, 2, 77, 67
4, 748544, Note_off_c, 2, 80, 67
4, 748544, Note_on_c, 2, 79, 67
4, 748544, Note_on_c, 2, 82, 67
4, 748608, Note_off_c, 2, 79, 67
4, 748608, Note_off_c, 2, 82, 67
4, 748672, Note_off_c, 2, 79, 67
4, 748672, Note_off_c, 2, 82, 67
4, 748672, Note_on_c, 2, 79, 67
4, 748672, Note_on_c, 2, 82, 67
4, 748736, Note_off_c, 2, 79, 67
4, 748736, Note_off_c, 2, 82, 67
4, 748800, Note_off_c, 2, 79, 67
4, 748800, Note_off_c, 2, 82, 67
4, 748800, Note_on_c, 2, 70, 67
4, 748800, Note_on_c, 2, 79, 67
4, 748864, Note_off_c, 2, 70, 67
4, 748864, Note_off_c, 2, 79, 67
4, 748928, Note_off_c, 2, 70, 67
4, 748928, Note_off_c, 2, 79, 67
4, 748928, Note_on_c, 2, 75, 67
4, 748928, Note_on_c, 2, 82, 67
4, 748992, Note_off_c, 2, 75, 67
4, 748992, Note_off_c, 2, 82, 67
4, 749056, Note_off_c, 2, 75, 67
4, 749056, Note_off_c, 2, 82, 67
4, 749056, Note_on_c, 2, 84, 67
4, 749056, Note_on_c, 2, 87, 67
4, 749120, Note_off_c, 2, 84, 67
4, 749120, Note_off_c, 2, 87, 67
4, 749184, Note_off_c, 2, 84, 67
4, 749184, Note_off_c, 2, 87, 67
4, 749184, Note_on_c, 2, 82, 67
4, 749184, Note_on_c, 2, 86, 67
4, 749248, Note_off_c, 2, 82, 67
4, 749248, Note_off_c, 2, 86, 67
4, 749312, Note_off_c, 2, 82, 67
4, 749312, Note_off_c, 2, 86, 67
4, 749312, Note_on_c, 2, 80, 67
4, 749312, Note_on_c, 2, 84, 67
4, 749376, Note_off_c, 2, 80, 67
4, 749376, Note_off_c, 2, 84, 67
4, 749440, Note_off_c, 2, 80, 67
4, 749440, Note_off_c, 2, 84, 67
4, 749440, Note_on_c, 2, 70, 67
4, 749440, Note_on_c, 2, 74, 67
4, 749472, Note_off_c, 2, 70, 67
4, 749472, Note_off_c, 2, 74, 67
4, 749504, Note_off_c, 2, 70, 67
4, 749504, Note_off_c, 2, 74, 67
4, 749504, Note_on_c, 2, 77, 67
4, 749504, Note_on_c, 2, 80, 67
4, 749536, Note_off_c, 2, 77, 67
4, 749536, Note_off_c, 2, 80, 67
4, 749568, Note_off_c, 2, 77, 67
4, 749568, Note_off_c, 2, 80, 67
4, 749568, Note_on_c, 2, 77, 67
4, 749568, Note_on_c, 2, 82, 67
4, 749632, Note_off_c, 2, 77, 67
4, 749632, Note_off_c, 2, 82, 67
4, 749696, Note_off_c, 2, 77, 67
4, 749696, Note_off_c, 2, 82, 67
4, 749696, Note_on_c, 2, 80, 67
4, 749696, Note_on_c, 2, 87, 67
4, 749760, Note_off_c, 2, 80, 67
4, 749760, Note_off_c, 2, 87, 67
4, 749824, Note_off_c, 2, 80, 67
4, 749824, Note_off_c, 2, 87, 67
4, 749824, Note_on_c, 2, 82, 67
4, 749824, Note_on_c, 2, 86, 67
4, 749888, Note_off_c, 2, 82, 67
4, 749888, Note_off_c, 2, 86, 67
4, 749952, Note_off_c, 2, 82, 67
4, 749952, Note_off_c, 2, 86, 67
4, 749952, Note_on_c, 2, 80, 67
4, 749952, Note_on_c, 2, 89, 67
4, 750016, Note_off_c, 2, 80, 67
4, 750016, Note_off_c, 2, 89, 67
4, 750080, Note_off_c, 2, 80, 67
4, 750080, Note_off_c, 2, 89, 67
4, 750080, Note_on_c, 2, 79, 67
4, 750080, Note_on_c, 2, 87, 67
4, 750144, Note_off_c, 2, 79, 67
4, 750144, Note_off_c, 2, 87, 67
4, 750208, Note_off_c, 2, 79, 67
4, 750208, Note_off_c, 2, 87, 67
4, 750208, Note_on_c, 2, 70, 67
4, 750208, Note_on_c, 2, 82, 67
4, 750272, Note_off_c, 2, 70, 67
4, 750272, Note_off_c, 2, 82, 67
4, 750336, Note_off_c, 2, 70, 67
4, 750336, Note_off_c, 2, 82, 67
4, 750336, Note_on_c, 2, 70, 67
4, 750336, Note_on_c, 2, 82, 67
4, 750400, Note_off_c, 2, 70, 67
4, 750400, Note_off_c, 2, 82, 67
4, 750464, Note_off_c, 2, 70, 67
4, 750464, Note_off_c, 2, 82, 67
4, 750464, Note_on_c, 2, 75, 67
4, 750528, Note_off_c, 2, 75, 67
4, 750528, Note_on_c, 2, 77, 67
4, 750592, Note_off_c, 2, 77, 67
4, 750592, Note_on_c, 2, 79, 67
4, 750656, Note_off_c, 2, 79, 67
4, 750720, Note_off_c, 2, 79, 67
4, 750720, Note_on_c, 2, 75, 67
4, 750720, Note_on_c, 2, 79, 67
4, 750784, Note_off_c, 2, 75, 67
4, 750784, Note_off_c, 2, 79, 67
4, 750848, Note_off_c, 2, 75, 67
4, 750848, Note_off_c, 2, 79, 67
4, 750848, Note_on_c, 2, 75, 67
4, 750848, Note_on_c, 2, 79, 67
4, 750912, Note_off_c, 2, 75, 67
4, 750912, Note_off_c, 2, 79, 67
4, 750976, Note_off_c, 2, 75, 67
4, 750976, Note_off_c, 2, 79, 67
4, 750976, Note_on_c, 2, 75, 67
4, 751040, Note_off_c, 2, 75, 67
4, 751040, Note_on_c, 2, 77, 67
4, 751104, Note_off_c, 2, 77, 67
4, 751104, Note_on_c, 2, 79, 67
4, 751168, Note_off_c, 2, 79, 67
4, 751232, Note_off_c, 2, 79, 67
4, 751232, Note_on_c, 2, 75, 67
4, 751232, Note_on_c, 2, 79, 67
4, 751296, Note_off_c, 2, 75, 67
4, 751296, Note_off_c, 2, 79, 67
4, 751360, Note_off_c, 2, 75, 67
4, 751360, Note_off_c, 2, 79, 67
4, 751360, Note_on_c, 2, 75, 67
4, 751360, Note_on_c, 2, 79, 67
4, 751424, Note_off_c, 2, 75, 67
4, 751424, Note_off_c, 2, 79, 67
4, 751488, Note_off_c, 2, 75, 67
4, 751488, Note_off_c, 2, 79, 67
4, 751488, Note_on_c, 2, 75, 67
4, 751552, Note_off_c, 2, 75, 67
4, 751552, Note_on_c, 2, 77, 67
4, 751616, Note_off_c, 2, 77, 67
4, 751616, Note_on_c, 2, 79, 67
4, 751680, Note_off_c, 2, 79, 67
4, 751744, Note_off_c, 2, 79, 67
4, 751744, Note_on_c, 2, 75, 67
4, 751744, Note_on_c, 2, 79, 67
4, 751808, Note_off_c, 2, 75, 67
4, 751808, Note_off_c, 2, 79, 67
4, 751872, Note_off_c, 2, 75, 67
4, 751872, Note_off_c, 2, 79, 67
4, 751872, Note_on_c, 2, 75, 67
4, 751872, Note_on_c, 2, 80, 67
4, 751904, Note_off_c, 2, 75, 67
4, 751904, Note_off_c, 2, 80, 67
4, 751936, Note_off_c, 2, 75, 67
4, 751936, Note_off_c, 2, 80, 67
4, 751936, Note_on_c, 2, 74, 67
4, 751968, Note_off_c, 2, 74, 67
4, 752000, Note_off_c, 2, 74, 67
4, 752000, Note_on_c, 2, 72, 67
4, 752032, Note_off_c, 2, 72, 67
4, 752064, Note_off_c, 2, 72, 67
4, 752064, Note_on_c, 2, 74, 67
4, 752064, Note_on_c, 2, 79, 67
4, 752096, Note_off_c, 2, 74, 67
4, 752096, Note_off_c, 2, 79, 67
4, 752128, Note_off_c, 2, 74, 67
4, 752128, Note_off_c, 2, 79, 67
4, 752128, Note_on_c, 2, 70, 67
4, 752128, Note_on_c, 2, 77, 67
4, 752192, Note_off_c, 2, 70, 67
4, 752192, Note_off_c, 2, 77, 67
4, 752256, Note_off_c, 2, 70, 67
4, 752256, Note_off_c, 2, 77, 67
4, 752256, Note_on_c, 2, 68, 67
4, 752256, Note_on_c, 2, 70, 67
4, 752320, Note_off_c, 2, 68, 67
4, 752320, Note_off_c, 2, 70, 67
4, 752384, Note_off_c, 2, 68, 67
4, 752384, Note_off_c, 2, 70, 67
4, 752384, Note_on_c, 2, 68, 67
4, 752384, Note_on_c, 2, 70, 67
4, 752448, Note_off_c, 2, 68, 67
4, 752448, Note_off_c, 2, 70, 67
4, 752512, Note_off_c, 2, 68, 67
4, 752512, Note_off_c, 2, 70, 67
4, 752512, Note_on_c, 2, 74, 67
4, 752576, Note_off_c, 2, 74, 67
4, 752576, Note_on_c, 2, 75, 67
4, 752640, Note_off_c, 2, 75, 67
4, 752640, Note_on_c, 2, 77, 67
4, 752704, Note_off_c, 2, 77, 67
4, 752768, Note_off_c, 2, 77, 67
4, 752768, Note_on_c, 2, 74, 67
4, 752768, Note_on_c, 2, 77, 67
4, 752832, Note_off_c, 2, 74, 67
4, 752832, Note_off_c, 2, 77, 67
4, 752896, Note_off_c, 2, 74, 67
4, 752896, Note_off_c, 2, 77, 67
4, 752896, Note_on_c, 2, 74, 67
4, 752896, Note_on_c, 2, 77, 67
4, 752960, Note_off_c, 2, 74, 67
4, 752960, Note_off_c, 2, 77, 67
4, 753024, Note_off_c, 2, 74, 67
4, 753024, Note_off_c, 2, 77, 67
4, 753024, Note_on_c, 2, 74, 67
4, 753088, Note_off_c, 2, 74, 67
4, 753088, Note_on_c, 2, 75, 67
4, 753152, Note_off_c, 2, 75, 67
4, 753152, Note_on_c, 2, 77, 67
4, 753216, Note_off_c, 2, 77, 67
4, 753280, Note_off_c, 2, 77, 67
4, 753280, Note_on_c, 2, 74, 67
4, 753280, Note_on_c, 2, 77, 67
4, 753344, Note_off_c, 2, 74, 67
4, 753344, Note_off_c, 2, 77, 67
4, 753408, Note_off_c, 2, 74, 67
4, 753408, Note_off_c, 2, 77, 67
4, 753408, Note_on_c, 2, 74, 67
4, 753408, Note_on_c, 2, 77, 67
4, 753472, Note_off_c, 2, 74, 67
4, 753472, Note_off_c, 2, 77, 67
4, 753536, Note_off_c, 2, 74, 67
4, 753536, Note_off_c, 2, 77, 67
4, 753536, Note_on_c, 2, 74, 67
4, 753600, Note_off_c, 2, 74, 67
4, 753600, Note_on_c, 2, 75, 67
4, 753664, Note_off_c, 2, 75, 67
4, 753664, Note_on_c, 2, 70, 67
4, 753664, Note_on_c, 2, 77, 67
4, 753728, Note_off_c, 2, 70, 67
4, 753728, Note_off_c, 2, 77, 67
4, 753792, Note_off_c, 2, 70, 67
4, 753792, Note_off_c, 2, 77, 67
4, 753792, Note_on_c, 2, 74, 67
4, 753792, Note_on_c, 2, 77, 67
4, 753856, Note_off_c, 2, 74, 67
4, 753856, Note_off_c, 2, 77, 67
4, 753920, Note_off_c, 2, 74, 67
4, 753920, Note_off_c, 2, 77, 67
4, 753920, Note_on_c, 2, 74, 67
4, 753920, Note_on_c, 2, 79, 67
4, 753952, Note_off_c, 2, 74, 67
4, 753952, Note_off_c, 2, 79, 67
4, 753984, Note_off_c, 2, 74, 67
4, 753984, Note_off_c, 2, 79, 67
4, 753984, Note_on_c, 2, 72, 67
4, 753984, Note_on_c, 2, 77, 67
4, 754016, Note_off_c, 2, 72, 67
4, 754016, Note_off_c, 2, 77, 67
4, 754048, Note_off_c, 2, 72, 67
4, 754048, Note_off_c, 2, 77, 67
4, 754048, Note_on_c, 2, 70, 67
4, 754048, Note_on_c, 2, 77, 67
4, 754080, Note_off_c, 2, 70, 67
4, 754080, Note_off_c, 2, 77, 67
4, 754112, Note_off_c, 2, 70, 67
4, 754112, Note_off_c, 2, 77, 67
4, 754112, Note_on_c, 2, 68, 67
4, 754112, Note_on_c, 2, 79, 67
4, 754144, Note_off_c, 2, 68, 67
4, 754144, Note_off_c, 2, 79, 67
4, 754176, Note_off_c, 2, 68, 67
4, 754176, Note_off_c, 2, 79, 67
4, 754176, Note_on_c, 2, 67, 67
4, 754176, Note_on_c, 2, 75, 67
4, 754240, Note_off_c, 2, 67, 67
4, 754240, Note_off_c, 2, 75, 67
4, 754304, Note_off_c, 2, 67, 67
4, 754304, Note_off_c, 2, 75, 67
4, 754304, Note_on_c, 2, 70, 67
4, 754368, Note_off_c, 2, 70, 67
4, 754432, Note_off_c, 2, 70, 67
4, 754432, Note_on_c, 2, 70, 67
4, 754432, Note_on_c, 2, 79, 67
4, 754496, Note_off_c, 2, 70, 67
4, 754496, Note_off_c, 2, 79, 67
4, 754560, Note_off_c, 2, 70, 67
4, 754560, Note_off_c, 2, 79, 67
4, 754560, Note_on_c, 2, 75, 67
4, 754624, Note_off_c, 2, 75, 67
4, 754624, Note_on_c, 2, 77, 67
4, 754688, Note_off_c, 2, 77, 67
4, 754688, Note_on_c, 2, 79, 67
4, 754752, Note_off_c, 2, 79, 67
4, 754816, Note_off_c, 2, 79, 67
4, 754816, Note_on_c, 2, 75, 67
4, 754816, Note_on_c, 2, 79, 67
4, 754880, Note_off_c, 2, 75, 67
4, 754880, Note_off_c, 2, 79, 67
4, 754944, Note_off_c, 2, 75, 67
4, 754944, Note_off_c, 2, 79, 67
4, 754944, Note_on_c, 2, 75, 67
4, 754944, Note_on_c, 2, 79, 67
4, 755008, Note_off_c, 2, 75, 67
4, 755008, Note_off_c, 2, 79, 67
4, 755072, Note_off_c, 2, 75, 67
4, 755072, Note_off_c, 2, 79, 67
4, 755072, Note_on_c, 2, 75, 67
4, 755136, Note_off_c, 2, 75, 67
4, 755136, Note_on_c, 2, 77, 67
4, 755200, Note_off_c, 2, 77, 67
4, 755200, Note_on_c, 2, 79, 67
4, 755264, Note_off_c, 2, 79, 67
4, 755328, Note_off_c, 2, 79, 67
4, 755328, Note_on_c, 2, 75, 67
4, 755328, Note_on_c, 2, 79, 67
4, 755392, Note_off_c, 2, 75, 67
4, 755392, Note_off_c, 2, 79, 67
4, 755456, Note_off_c, 2, 75, 67
4, 755456, Note_off_c, 2, 79, 67
4, 755456, Note_on_c, 2, 75, 67
4, 755456, Note_on_c, 2, 79, 67
4, 755520, Note_off_c, 2, 75, 67
4, 755520, Note_off_c, 2, 79, 67
4, 755584, Note_off_c, 2, 75, 67
4, 755584, Note_off_c, 2, 79, 67
4, 755584, Note_on_c, 2, 75, 67
4, 755648, Note_off_c, 2, 75, 67
4, 755648, Note_on_c, 2, 77, 67
4, 755712, Note_off_c, 2, 77, 67
4, 755712, Note_on_c, 2, 79, 67
4, 755776, Note_off_c, 2, 79, 67
4, 755840, Note_off_c, 2, 79, 67
4, 755840, Note_on_c, 2, 75, 67
4, 755840, Note_on_c, 2, 79, 67
4, 755904, Note_off_c, 2, 75, 67
4, 755904, Note_off_c, 2, 79, 67
4, 755968, Note_off_c, 2, 75, 67
4, 755968, Note_off_c, 2, 79, 67
4, 755968, Note_on_c, 2, 75, 67
4, 755968, Note_on_c, 2, 80, 67
4, 756000, Note_off_c, 2, 75, 67
4, 756000, Note_off_c, 2, 80, 67
4, 756032, Note_off_c, 2, 75, 67
4, 756032, Note_off_c, 2, 80, 67
4, 756032, Note_on_c, 2, 74, 67
4, 756096, Note_off_c, 2, 74, 67
4, 756096, Note_on_c, 2, 72, 67
4, 756160, Note_off_c, 2, 72, 67
4, 756160, Note_on_c, 2, 74, 67
4, 756160, Note_on_c, 2, 79, 67
4, 756192, Note_off_c, 2, 74, 67
4, 756192, Note_off_c, 2, 79, 67
4, 756224, Note_off_c, 2, 74, 67
4, 756224, Note_off_c, 2, 79, 67
4, 756224, Note_on_c, 2, 70, 67
4, 756224, Note_on_c, 2, 77, 67
4, 756288, Note_off_c, 2, 70, 67
4, 756288, Note_off_c, 2, 77, 67
4, 756352, Note_off_c, 2, 70, 67
4, 756352, Note_off_c, 2, 77, 67
4, 756352, Note_on_c, 2, 68, 67
4, 756352, Note_on_c, 2, 70, 67
4, 756416, Note_off_c, 2, 68, 67
4, 756416, Note_off_c, 2, 70, 67
4, 756480, Note_off_c, 2, 68, 67
4, 756480, Note_off_c, 2, 70, 67
4, 756480, Note_on_c, 2, 68, 67
4, 756480, Note_on_c, 2, 70, 67
4, 756544, Note_off_c, 2, 68, 67
4, 756544, Note_off_c, 2, 70, 67
4, 756608, Note_off_c, 2, 68, 67
4, 756608, Note_off_c, 2, 70, 67
4, 756608, Note_on_c, 2, 74, 67
4, 756672, Note_off_c, 2, 74, 67
4, 756672, Note_on_c, 2, 75, 67
4, 756736, Note_off_c, 2, 75, 67
4, 756736, Note_on_c, 2, 77, 67
4, 756864, Note_off_c, 2, 77, 67
4, 756864, Note_on_c, 2, 74, 67
4, 756864, Note_on_c, 2, 80, 67
4, 756928, Note_off_c, 2, 74, 67
4, 756928, Note_off_c, 2, 80, 67
4, 756992, Note_off_c, 2, 74, 67
4, 756992, Note_off_c, 2, 80, 67
4, 756992, Note_on_c, 2, 74, 67
4, 756992, Note_on_c, 2, 79, 67
4, 757056, Note_off_c, 2, 74, 67
4, 757056, Note_off_c, 2, 79, 67
4, 757120, Note_off_c, 2, 74, 67
4, 757120, Note_off_c, 2, 79, 67
4, 757120, Note_on_c, 2, 77, 67
4, 757184, Note_off_c, 2, 77, 67
4, 757248, Note_off_c, 2, 77, 67
4, 757248, Note_on_c, 2, 75, 67
4, 757312, Note_off_c, 2, 75, 67
4, 757376, Note_off_c, 2, 75, 67
4, 757376, Note_on_c, 2, 70, 67
4, 757376, Note_on_c, 2, 74, 67
4, 757440, Note_off_c, 2, 70, 67
4, 757440, Note_off_c, 2, 74, 67
4, 757504, Note_off_c, 2, 70, 67
4, 757504, Note_off_c, 2, 74, 67
4, 757504, Note_on_c, 2, 72, 67
4, 757504, Note_on_c, 2, 74, 67
4, 757568, Note_off_c, 2, 72, 67
4, 757568, Note_off_c, 2, 74, 67
4, 757632, Note_off_c, 2, 72, 67
4, 757632, Note_off_c, 2, 74, 67
4, 757632, Note_on_c, 2, 70, 67
4, 757632, Note_on_c, 2, 74, 67
4, 757696, Note_off_c, 2, 70, 67
4, 757696, Note_off_c, 2, 74, 67
4, 757760, Note_off_c, 2, 70, 67
4, 757760, Note_off_c, 2, 74, 67
4, 757760, Note_on_c, 2, 80, 67
4, 757760, Note_on_c, 2, 84, 67
4, 758016, Note_off_c, 2, 80, 67
4, 758016, Note_off_c, 2, 84, 67
4, 758016, Note_on_c, 2, 70, 67
4, 758016, Note_on_c, 2, 74, 67
4, 758032, Note_off_c, 2, 70, 67
4, 758032, Note_off_c, 2, 74, 67
4, 758048, Note_off_c, 2, 70, 67
4, 758048, Note_off_c, 2, 74, 67
4, 758048, Note_on_c, 2, 72, 67
4, 758048, Note_on_c, 2, 75, 67
4, 758064, Note_off_c, 2, 72, 67
4, 758064, Note_off_c, 2, 75, 67
4, 758080, Note_off_c, 2, 72, 67
4, 758080, Note_off_c, 2, 75, 67
4, 758080, Note_on_c, 2, 70, 67
4, 758080, Note_on_c, 2, 74, 67
4, 758112, Note_off_c, 2, 70, 67
4, 758112, Note_off_c, 2, 74, 67
4, 758144, Note_off_c, 2, 70, 67
4, 758144, Note_off_c, 2, 74, 67
4, 758144, Note_on_c, 2, 68, 67
4, 758144, Note_on_c, 2, 72, 67
4, 758176, Note_off_c, 2, 68, 67
4, 758176, Note_off_c, 2, 72, 67
4, 758208, Note_off_c, 2, 68, 67
4, 758208, Note_off_c, 2, 72, 67
4, 758208, Note_on_c, 2, 74, 67
4, 758208, Note_on_c, 2, 77, 67
4, 758240, Note_off_c, 2, 74, 67
4, 758240, Note_off_c, 2, 77, 67
4, 758272, Note_off_c, 2, 74, 67
4, 758272, Note_off_c, 2, 77, 67
4, 758272, Note_on_c, 2, 75, 67
4, 758272, Note_on_c, 2, 79, 67
4, 758400, Note_off_c, 2, 75, 67
4, 758400, Note_off_c, 2, 79, 67
4, 758400, Note_on_c, 2, 70, 67
4, 758464, Note_off_c, 2, 70, 67
4, 758528, Note_off_c, 2, 70, 67
4, 758528, Note_on_c, 2, 70, 67
4, 758592, Note_off_c, 2, 70, 67
4, 758656, Note_off_c, 2, 70, 67
4, 758656, Note_on_c, 2, 75, 67
4, 758656, Note_on_c, 2, 79, 67
4, 758720, Note_off_c, 2, 75, 67
4, 758720, Note_off_c, 2, 79, 67
4, 758720, Note_on_c, 2, 77, 67
4, 758720, Note_on_c, 2, 80, 67
4, 758784, Note_off_c, 2, 77, 67
4, 758784, Note_off_c, 2, 80, 67
4, 758784, Note_on_c, 2, 79, 67
4, 758784, Note_on_c, 2, 82, 67
4, 758848, Note_off_c, 2, 79, 67
4, 758848, Note_off_c, 2, 82, 67
4, 758912, Note_off_c, 2, 79, 67
4, 758912, Note_off_c, 2, 82, 67
4, 758912, Note_on_c, 2, 79, 67
4, 758912, Note_on_c, 2, 82, 67
4, 758976, Note_off_c, 2, 79, 67
4, 758976, Note_off_c, 2, 82, 67
4, 759040, Note_off_c, 2, 79, 67
4, 759040, Note_off_c, 2, 82, 67
4, 759040, Note_on_c, 2, 70, 67
4, 759040, Note_on_c, 2, 79, 67
4, 759104, Note_off_c, 2, 70, 67
4, 759104, Note_off_c, 2, 79, 67
4, 759168, Note_off_c, 2, 70, 67
4, 759168, Note_off_c, 2, 79, 67
4, 759168, Note_on_c, 2, 70, 67
4, 759168, Note_on_c, 2, 75, 67
4, 759232, Note_off_c, 2, 70, 67
4, 759232, Note_off_c, 2, 75, 67
4, 759296, Note_off_c, 2, 70, 67
4, 759296, Note_off_c, 2, 75, 67
4, 759296, Note_on_c, 2, 84, 67
4, 759296, Note_on_c, 2, 87, 67
4, 759360, Note_off_c, 2, 84, 67
4, 759360, Note_off_c, 2, 87, 67
4, 759424, Note_off_c, 2, 84, 67
4, 759424, Note_off_c, 2, 87, 67
4, 759424, Note_on_c, 2, 82, 67
4, 759424, Note_on_c, 2, 86, 67
4, 759488, Note_off_c, 2, 82, 67
4, 759488, Note_off_c, 2, 86, 67
4, 759552, Note_off_c, 2, 82, 67
4, 759552, Note_off_c, 2, 86, 67
4, 759552, Note_on_c, 2, 80, 67
4, 759552, Note_on_c, 2, 84, 67
4, 759616, Note_off_c, 2, 80, 67
4, 759616, Note_off_c, 2, 84, 67
4, 759680, Note_off_c, 2, 80, 67
4, 759680, Note_off_c, 2, 84, 67
4, 759680, Note_on_c, 2, 79, 67
4, 759680, Note_on_c, 2, 87, 67
4, 759744, Note_off_c, 2, 79, 67
4, 759744, Note_off_c, 2, 87, 67
4, 759808, Note_off_c, 2, 79, 67
4, 759808, Note_off_c, 2, 87, 67
4, 759808, Note_on_c, 2, 75, 67
4, 759808, Note_on_c, 2, 82, 67
4, 759872, Note_off_c, 2, 75, 67
4, 759872, Note_off_c, 2, 82, 67
4, 759936, Note_off_c, 2, 75, 67
4, 759936, Note_off_c, 2, 82, 67
4, 759936, Note_on_c, 2, 79, 67
4, 760000, Note_off_c, 2, 79, 67
4, 760064, Note_off_c, 2, 79, 67
4, 760064, Note_on_c, 2, 67, 67
4, 760064, Note_on_c, 2, 75, 67
4, 760128, Note_off_c, 2, 67, 67
4, 760128, Note_off_c, 2, 75, 67
4, 760192, Note_off_c, 2, 67, 67
4, 760192, Note_off_c, 2, 75, 67
4, 760192, Note_on_c, 2, 68, 67
4, 760192, Note_on_c, 2, 74, 67
4, 760224, Note_off_c, 2, 68, 67
4, 760224, Note_off_c, 2, 74, 67
4, 760256, Note_off_c, 2, 68, 67
4, 760256, Note_off_c, 2, 74, 67
4, 760256, Note_on_c, 2, 74, 67
4, 760256, Note_on_c, 2, 79, 67
4, 760288, Note_off_c, 2, 74, 67
4, 760288, Note_off_c, 2, 79, 67
4, 760320, Note_off_c, 2, 74, 67
4, 760320, Note_off_c, 2, 79, 67
4, 760320, Note_on_c, 2, 70, 67
4, 760320, Note_on_c, 2, 77, 67
4, 760384, Note_off_c, 2, 70, 67
4, 760384, Note_off_c, 2, 77, 67
4, 760448, Note_off_c, 2, 70, 67
4, 760448, Note_off_c, 2, 77, 67
4, 760448, Note_on_c, 2, 65, 67
4, 760448, Note_on_c, 2, 70, 67
4, 760512, Note_off_c, 2, 65, 67
4, 760512, Note_off_c, 2, 70, 67
4, 760576, Note_off_c, 2, 65, 67
4, 760576, Note_off_c, 2, 70, 67
4, 760576, Note_on_c, 2, 68, 67
4, 760576, Note_on_c, 2, 70, 67
4, 760640, Note_off_c, 2, 68, 67
4, 760640, Note_off_c, 2, 70, 67
4, 760704, Note_off_c, 2, 68, 67
4, 760704, Note_off_c, 2, 70, 67
4, 760704, Note_on_c, 2, 70, 67
4, 760704, Note_on_c, 2, 79, 67
4, 760768, Note_off_c, 2, 70, 67
4, 760768, Note_off_c, 2, 79, 67
4, 760768, Note_on_c, 2, 77, 67
4, 760768, Note_on_c, 2, 80, 67
4, 760832, Note_off_c, 2, 77, 67
4, 760832, Note_off_c, 2, 80, 67
4, 760832, Note_on_c, 2, 79, 67
4, 760832, Note_on_c, 2, 82, 67
4, 760896, Note_off_c, 2, 79, 67
4, 760896, Note_off_c, 2, 82, 67
4, 760960, Note_off_c, 2, 79, 67
4, 760960, Note_off_c, 2, 82, 67
4, 760960, Note_on_c, 2, 79, 67
4, 760960, Note_on_c, 2, 82, 67
4, 761024, Note_off_c, 2, 79, 67
4, 761024, Note_off_c, 2, 82, 67
4, 761088, Note_off_c, 2, 79, 67
4, 761088, Note_off_c, 2, 82, 67
4, 761088, Note_on_c, 2, 70, 67
4, 761088, Note_on_c, 2, 79, 67
4, 761152, Note_off_c, 2, 70, 67
4, 761152, Note_off_c, 2, 79, 67
4, 761216, Note_off_c, 2, 70, 67
4, 761216, Note_off_c, 2, 79, 67
4, 761216, Note_on_c, 2, 75, 67
4, 761216, Note_on_c, 2, 82, 67
4, 761280, Note_off_c, 2, 75, 67
4, 761280, Note_off_c, 2, 82, 67
4, 761344, Note_off_c, 2, 75, 67
4, 761344, Note_off_c, 2, 82, 67
4, 761344, Note_on_c, 2, 84, 67
4, 761344, Note_on_c, 2, 87, 67
4, 761408, Note_off_c, 2, 84, 67
4, 761408, Note_off_c, 2, 87, 67
4, 761472, Note_off_c, 2, 84, 67
4, 761472, Note_off_c, 2, 87, 67
4, 761472, Note_on_c, 2, 82, 67
4, 761472, Note_on_c, 2, 86, 67
4, 761536, Note_off_c, 2, 82, 67
4, 761536, Note_off_c, 2, 86, 67
4, 761600, Note_off_c, 2, 82, 67
4, 761600, Note_off_c, 2, 86, 67
4, 761600, Note_on_c, 2, 80, 67
4, 761600, Note_on_c, 2, 84, 67
4, 761664, Note_off_c, 2, 80, 67
4, 761664, Note_off_c, 2, 84, 67
4, 761728, Note_off_c, 2, 80, 67
4, 761728, Note_off_c, 2, 84, 67
4, 761728, Note_on_c, 2, 70, 67
4, 761728, Note_on_c, 2, 74, 67
4, 761760, Note_off_c, 2, 70, 67
4, 761760, Note_off_c, 2, 74, 67
4, 761792, Note_off_c, 2, 70, 67
4, 761792, Note_off_c, 2, 74, 67
4, 761792, Note_on_c, 2, 77, 67
4, 761792, Note_on_c, 2, 80, 67
4, 761824, Note_off_c, 2, 77, 67
4, 761824, Note_off_c, 2, 80, 67
4, 761856, Note_off_c, 2, 77, 67
4, 761856, Note_off_c, 2, 80, 67
4, 761856, Note_on_c, 2, 77, 67
4, 761856, Note_on_c, 2, 82, 67
4, 761920, Note_off_c, 2, 77, 67
4, 761920, Note_off_c, 2, 82, 67
4, 761984, Note_off_c, 2, 77, 67
4, 761984, Note_off_c, 2, 82, 67
4, 761984, Note_on_c, 2, 80, 67
4, 761984, Note_on_c, 2, 87, 67
4, 762048, Note_off_c, 2, 80, 67
4, 762048, Note_off_c, 2, 87, 67
4, 762112, Note_off_c, 2, 80, 67
4, 762112, Note_off_c, 2, 87, 67
4, 762112, Note_on_c, 2, 82, 67
4, 762112, Note_on_c, 2, 86, 67
4, 762176, Note_off_c, 2, 82, 67
4, 762176, Note_off_c, 2, 86, 67
4, 762240, Note_off_c, 2, 82, 67
4, 762240, Note_off_c, 2, 86, 67
4, 762240, Note_on_c, 2, 80, 67
4, 762240, Note_on_c, 2, 89, 67
4, 762304, Note_off_c, 2, 80, 67
4, 762304, Note_off_c, 2, 89, 67
4, 762368, Note_off_c, 2, 80, 67
4, 762368, Note_off_c, 2, 89, 67
4, 762368, Note_on_c, 2, 79, 67
4, 762368, Note_on_c, 2, 87, 67
4, 762432, Note_off_c, 2, 79, 67
4, 762432, Note_off_c, 2, 87, 67
4, 762496, Note_off_c, 2, 79, 67
4, 762496, Note_off_c, 2, 87, 67
4, 762496, Note_on_c, 2, 70, 67
4, 762496, Note_on_c, 2, 82, 67
4, 762560, Note_off_c, 2, 70, 67
4, 762560, Note_off_c, 2, 82, 67
4, 762624, Note_off_c, 2, 70, 67
4, 762624, Note_off_c, 2, 82, 67
4, 762624, Note_on_c, 2, 70, 67
4, 762624, Note_on_c, 2, 82, 67
4, 762688, Note_off_c, 2, 70, 67
4, 762688, Note_off_c, 2, 82, 67
4, 762752, Note_off_c, 2, 70, 67
4, 762752, Note_off_c, 2, 82, 67
4, 762752, Note_on_c, 2, 75, 67
4, 762816, Note_off_c, 2, 75, 67
4, 762816, Note_on_c, 2, 77, 67
4, 762880, Note_off_c, 2, 77, 67
4, 762880, Note_on_c, 2, 79, 67
4, 762944, Note_off_c, 2, 79, 67
4, 763008, Note_off_c, 2, 79, 67
4, 763008, Note_on_c, 2, 75, 67
4, 763008, Note_on_c, 2, 79, 67
4, 763072, Note_off_c, 2, 75, 67
4, 763072, Note_off_c, 2, 79, 67
4, 763136, Note_off_c, 2, 75, 67
4, 763136, Note_off_c, 2, 79, 67
4, 763136, Note_on_c, 2, 75, 67
4, 763136, Note_on_c, 2, 79, 67
4, 763200, Note_off_c, 2, 75, 67
4, 763200, Note_off_c, 2, 79, 67
4, 763264, Note_off_c, 2, 75, 67
4, 763264, Note_off_c, 2, 79, 67
4, 763264, Note_on_c, 2, 75, 67
4, 763328, Note_off_c, 2, 75, 67
4, 763328, Note_on_c, 2, 77, 67
4, 763392, Note_off_c, 2, 77, 67
4, 763392, Note_on_c, 2, 79, 67
4, 763456, Note_off_c, 2, 79, 67
4, 763520, Note_off_c, 2, 79, 67
4, 763520, Note_on_c, 2, 75, 67
4, 763520, Note_on_c, 2, 79, 67
4, 763584, Note_off_c, 2, 75, 67
4, 763584, Note_off_c, 2, 79, 67
4, 763648, Note_off_c, 2, 75, 67
4, 763648, Note_off_c, 2, 79, 67
4, 763648, Note_on_c, 2, 75, 67
4, 763648, Note_on_c, 2, 79, 67
4, 763712, Note_off_c, 2, 75, 67
4, 763712, Note_off_c, 2, 79, 67
4, 763776, Note_off_c, 2, 75, 67
4, 763776, Note_off_c, 2, 79, 67
4, 763776, Note_on_c, 2, 75, 67
4, 763840, Note_off_c, 2, 75, 67
4, 763840, Note_on_c, 2, 77, 67
4, 763904, Note_off_c, 2, 77, 67
4, 763904, Note_on_c, 2, 79, 67
4, 763968, Note_off_c, 2, 79, 67
4, 764032, Note_off_c, 2, 79, 67
4, 764032, Note_on_c, 2, 75, 67
4, 764032, Note_on_c, 2, 79, 67
4, 764096, Note_off_c, 2, 75, 67
4, 764096, Note_off_c, 2, 79, 67
4, 764160, Note_off_c, 2, 75, 67
4, 764160, Note_off_c, 2, 79, 67
4, 764160, Note_on_c, 2, 75, 67
4, 764160, Note_on_c, 2, 80, 67
4, 764192, Note_off_c, 2, 75, 67
4, 764192, Note_off_c, 2, 80, 67
4, 764224, Note_off_c, 2, 75, 67
4, 764224, Note_off_c, 2, 80, 67
4, 764224, Note_on_c, 2, 74, 67
4, 764256, Note_off_c, 2, 74, 67
4, 764288, Note_off_c, 2, 74, 67
4, 764288, Note_on_c, 2, 72, 67
4, 764320, Note_off_c, 2, 72, 67
4, 764352, Note_off_c, 2, 72, 67
4, 764352, Note_on_c, 2, 74, 67
4, 764352, Note_on_c, 2, 79, 67
4, 764384, Note_off_c, 2, 74, 67
4, 764384, Note_off_c, 2, 79, 67
4, 764416, Note_off_c, 2, 74, 67
4, 764416, Note_off_c, 2, 79, 67
4, 764416, Note_on_c, 2, 70, 67
4, 764416, Note_on_c, 2, 77, 67
4, 764480, Note_off_c, 2, 70, 67
4, 764480, Note_off_c, 2, 77, 67
4, 764544, Note_off_c, 2, 70, 67
4, 764544, Note_off_c, 2, 77, 67
4, 764544, Note_on_c, 2, 68, 67
4, 764544, Note_on_c, 2, 70, 67
4, 764608, Note_off_c, 2, 68, 67
4, 764608, Note_off_c, 2, 70, 67
4, 764672, Note_off_c, 2, 68, 67
4, 764672, Note_off_c, 2, 70, 67
4, 764672, Note_on_c, 2, 68, 67
4, 764672, Note_on_c, 2, 70, 67
4, 764736, Note_off_c, 2, 68, 67
4, 764736, Note_off_c, 2, 70, 67
4, 764800, Note_off_c, 2, 68, 67
4, 764800, Note_off_c, 2, 70, 67
4, 764800, Note_on_c, 2, 74, 67
4, 764864, Note_off_c, 2, 74, 67
4, 764864, Note_on_c, 2, 75, 67
4, 764928, Note_off_c, 2, 75, 67
4, 764928, Note_on_c, 2, 77, 67
4, 764992, Note_off_c, 2, 77, 67
4, 765056, Note_off_c, 2, 77, 67
4, 765056, Note_on_c, 2, 74, 67
4, 765056, Note_on_c, 2, 77, 67
4, 765120, Note_off_c, 2, 74, 67
4, 765120, Note_off_c, 2, 77, 67
4, 765184, Note_off_c, 2, 74, 67
4, 765184, Note_off_c, 2, 77, 67
4, 765184, Note_on_c, 2, 74, 67
4, 765184, Note_on_c, 2, 77, 67
4, 765248, Note_off_c, 2, 74, 67
4, 765248, Note_off_c, 2, 77, 67
4, 765312, Note_off_c, 2, 74, 67
4, 765312, Note_off_c, 2, 77, 67
4, 765312, Note_on_c, 2, 74, 67
4, 765376, Note_off_c, 2, 74, 67
4, 765376, Note_on_c, 2, 75, 67
4, 765440, Note_off_c, 2, 75, 67
4, 765440, Note_on_c, 2, 77, 67
4, 765504, Note_off_c, 2, 77, 67
4, 765568, Note_off_c, 2, 77, 67
4, 765568, Note_on_c, 2, 74, 67
4, 765568, Note_on_c, 2, 77, 67
4, 765632, Note_off_c, 2, 74, 67
4, 765632, Note_off_c, 2, 77, 67
4, 765696, Note_off_c, 2, 74, 67
4, 765696, Note_off_c, 2, 77, 67
4, 765696, Note_on_c, 2, 74, 67
4, 765696, Note_on_c, 2, 77, 67
4, 765760, Note_off_c, 2, 74, 67
4, 765760, Note_off_c, 2, 77, 67
4, 765824, Note_off_c, 2, 74, 67
4, 765824, Note_off_c, 2, 77, 67
4, 765824, Note_on_c, 2, 74, 67
4, 765888, Note_off_c, 2, 74, 67
4, 765888, Note_on_c, 2, 75, 67
4, 765952, Note_off_c, 2, 75, 67
4, 765952, Note_on_c, 2, 70, 67
4, 765952, Note_on_c, 2, 77, 67
4, 766016, Note_off_c, 2, 70, 67
4, 766016, Note_off_c, 2, 77, 67
4, 766080, Note_off_c, 2, 70, 67
4, 766080, Note_off_c, 2, 77, 67
4, 766080, Note_on_c, 2, 74, 67
4, 766080, Note_on_c, 2, 77, 67
4, 766144, Note_off_c, 2, 74, 67
4, 766144, Note_off_c, 2, 77, 67
4, 766208, Note_off_c, 2, 74, 67
4, 766208, Note_off_c, 2, 77, 67
4, 766208, Note_on_c, 2, 74, 67
4, 766208, Note_on_c, 2, 79, 67
4, 766240, Note_off_c, 2, 74, 67
4, 766240, Note_off_c, 2, 79, 67
4, 766272, Note_off_c, 2, 74, 67
4, 766272, Note_off_c, 2, 79, 67
4, 766272, Note_on_c, 2, 72, 67
4, 766272, Note_on_c, 2, 77, 67
4, 766304, Note_off_c, 2, 72, 67
4, 766304, Note_off_c, 2, 77, 67
4, 766336, Note_off_c, 2, 72, 67
4, 766336, Note_off_c, 2, 77, 67
4, 766336, Note_on_c, 2, 70, 67
4, 766336, Note_on_c, 2, 77, 67
4, 766368, Note_off_c, 2, 70, 67
4, 766368, Note_off_c, 2, 77, 67
4, 766400, Note_off_c, 2, 70, 67
4, 766400, Note_off_c, 2, 77, 67
4, 766400, Note_on_c, 2, 68, 67
4, 766400, Note_on_c, 2, 79, 67
4, 766432, Note_off_c, 2, 68, 67
4, 766432, Note_off_c, 2, 79, 67
4, 766464, Note_off_c, 2, 68, 67
4, 766464, Note_off_c, 2, 79, 67
4, 766464, Note_on_c, 2, 67, 67
4, 766464, Note_on_c, 2, 75, 67
4, 766528, Note_off_c, 2, 67, 67
4, 766528, Note_off_c, 2, 75, 67
4, 766592, Note_off_c, 2, 67, 67
4, 766592, Note_off_c, 2, 75, 67
4, 766592, Note_on_c, 2, 70, 67
4, 766656, Note_off_c, 2, 70, 67
4, 766720, Note_off_c, 2, 70, 67
4, 766720, Note_on_c, 2, 70, 67
4, 766720, Note_on_c, 2, 79, 67
4, 766784, Note_off_c, 2, 70, 67
4, 766784, Note_off_c, 2, 79, 67
4, 766848, Note_off_c, 2, 70, 67
4, 766848, Note_off_c, 2, 79, 67
4, 766848, Note_on_c, 2, 75, 67
4, 766912, Note_off_c, 2, 75, 67
4, 766912, Note_on_c, 2, 77, 67
4, 766976, Note_off_c, 2, 77, 67
4, 766976, Note_on_c, 2, 79, 67
4, 767040, Note_off_c, 2, 79, 67
4, 767104, Note_off_c, 2, 79, 67
4, 767104, Note_on_c, 2, 75, 67
4, 767104, Note_on_c, 2, 79, 67
4, 767168, Note_off_c, 2, 75, 67
4, 767168, Note_off_c, 2, 79, 67
4, 767232, Note_off_c, 2, 75, 67
4, 767232, Note_off_c, 2, 79, 67
4, 767232, Note_on_c, 2, 75, 67
4, 767232, Note_on_c, 2, 79, 67
4, 767296, Note_off_c, 2, 75, 67
4, 767296, Note_off_c, 2, 79, 67
4, 767360, Note_off_c, 2, 75, 67
4, 767360, Note_off_c, 2, 79, 67
4, 767360, Note_on_c, 2, 75, 67
4, 767424, Note_off_c, 2, 75, 67
4, 767424, Note_on_c, 2, 77, 67
4, 767488, Note_off_c, 2, 77, 67
4, 767488, Note_on_c, 2, 79, 67
4, 767552, Note_off_c, 2, 79, 67
4, 767616, Note_off_c, 2, 79, 67
4, 767616, Note_on_c, 2, 75, 67
4, 767616, Note_on_c, 2, 79, 67
4, 767680, Note_off_c, 2, 75, 67
4, 767680, Note_off_c, 2, 79, 67
4, 767744, Note_off_c, 2, 75, 67
4, 767744, Note_off_c, 2, 79, 67
4, 767744, Note_on_c, 2, 75, 67
4, 767744, Note_on_c, 2, 79, 67
4, 767808, Note_off_c, 2, 75, 67
4, 767808, Note_off_c, 2, 79, 67
4, 767872, Note_off_c, 2, 75, 67
4, 767872, Note_off_c, 2, 79, 67
4, 767872, Note_on_c, 2, 75, 67
4, 767936, Note_off_c, 2, 75, 67
4, 767936, Note_on_c, 2, 77, 67
4, 768000, Note_off_c, 2, 77, 67
4, 768000, Note_on_c, 2, 79, 67
4, 768064, Note_off_c, 2, 79, 67
4, 768128, Note_off_c, 2, 79, 67
4, 768128, Note_on_c, 2, 75, 67
4, 768128, Note_on_c, 2, 79, 67
4, 768192, Note_off_c, 2, 75, 67
4, 768192, Note_off_c, 2, 79, 67
4, 768256, Note_off_c, 2, 75, 67
4, 768256, Note_off_c, 2, 79, 67
4, 768256, Note_on_c, 2, 75, 67
4, 768256, Note_on_c, 2, 80, 67
4, 768288, Note_off_c, 2, 75, 67
4, 768288, Note_off_c, 2, 80, 67
4, 768320, Note_off_c, 2, 75, 67
4, 768320, Note_off_c, 2, 80, 67
4, 768320, Note_on_c, 2, 74, 67
4, 768384, Note_off_c, 2, 74, 67
4, 768384, Note_on_c, 2, 72, 67
4, 768448, Note_off_c, 2, 72, 67
4, 768448, Note_on_c, 2, 74, 67
4, 768448, Note_on_c, 2, 79, 67
4, 768480, Note_off_c, 2, 74, 67
4, 768480, Note_off_c, 2, 79, 67
4, 768512, Note_off_c, 2, 74, 67
4, 768512, Note_off_c, 2, 79, 67
4, 768512, Note_on_c, 2, 70, 67
4, 768512, Note_on_c, 2, 77, 67
4, 768576, Note_off_c, 2, 70, 67
4, 768576, Note_off_c, 2, 77, 67
4, 768640, Note_off_c, 2, 70, 67
4, 768640, Note_off_c, 2, 77, 67
4, 768640, Note_on_c, 2, 68, 67
4, 768640, Note_on_c, 2, 70, 67
4, 768704, Note_off_c, 2, 68, 67
4, 768704, Note_off_c, 2, 70, 67
4, 768768, Note_off_c, 2, 68, 67
4, 768768, Note_off_c, 2, 70, 67
4, 768768, Note_on_c, 2, 68, 67
4, 768768, Note_on_c, 2, 70, 67
4, 768832, Note_off_c, 2, 68, 67
4, 768832, Note_off_c, 2, 70, 67
4, 768896, Note_off_c, 2, 68, 67
4, 768896, Note_off_c, 2, 70, 67
4, 768896, Note_on_c, 2, 74, 67
4, 768960, Note_off_c, 2, 74, 67
4, 768960, Note_on_c, 2, 75, 67
4, 769024, Note_off_c, 2, 75, 67
4, 769024, Note_on_c, 2, 77, 67
4, 769152, Note_off_c, 2, 77, 67
4, 769152, Note_on_c, 2, 74, 67
4, 769152, Note_on_c, 2, 80, 67
4, 769216, Note_off_c, 2, 74, 67
4, 769216, Note_off_c, 2, 80, 67
4, 769280, Note_off_c, 2, 74, 67
4, 769280, Note_off_c, 2, 80, 67
4, 769280, Note_on_c, 2, 74, 67
4, 769280, Note_on_c, 2, 79, 67
4, 769344, Note_off_c, 2, 74, 67
4, 769344, Note_off_c, 2, 79, 67
4, 769408, Note_off_c, 2, 74, 67
4, 769408, Note_off_c, 2, 79, 67
4, 769408, Note_on_c, 2, 77, 67
4, 769472, Note_off_c, 2, 77, 67
4, 769536, Note_off_c, 2, 77, 67
4, 769536, Note_on_c, 2, 75, 67
4, 769600, Note_off_c, 2, 75, 67
4, 769664, Note_off_c, 2, 75, 67
4, 769664, Note_on_c, 2, 70, 67
4, 769664, Note_on_c, 2, 74, 67
4, 769728, Note_off_c, 2, 70, 67
4, 769728, Note_off_c, 2, 74, 67
4, 769792, Note_off_c, 2, 70, 67
4, 769792, Note_off_c, 2, 74, 67
4, 769792, Note_on_c, 2, 72, 67
4, 769792, Note_on_c, 2, 74, 67
4, 769856, Note_off_c, 2, 72, 67
4, 769856, Note_off_c, 2, 74, 67
4, 769920, Note_off_c, 2, 72, 67
4, 769920, Note_off_c, 2, 74, 67
4, 769920, Note_on_c, 2, 70, 67
4, 769920, Note_on_c, 2, 74, 67
4, 769984, Note_off_c, 2, 70, 67
4, 769984, Note_off_c, 2, 74, 67
4, 770048, Note_off_c, 2, 70, 67
4, 770048, Note_off_c, 2, 74, 67
4, 770048, Note_on_c, 2, 80, 67
4, 770048, Note_on_c, 2, 84, 67
4, 770304, Note_off_c, 2, 80, 67
4, 770304, Note_off_c, 2, 84, 67
4, 770304, Note_on_c, 2, 70, 67
4, 770304, Note_on_c, 2, 74, 67
4, 770320, Note_off_c, 2, 70, 67
4, 770320, Note_off_c, 2, 74, 67
4, 770336, Note_off_c, 2, 70, 67
4, 770336, Note_off_c, 2, 74, 67
4, 770336, Note_on_c, 2, 72, 67
4, 770336, Note_on_c, 2, 75, 67
4, 770352, Note_off_c, 2, 72, 67
4, 770352, Note_off_c, 2, 75, 67
4, 770368, Note_off_c, 2, 72, 67
4, 770368, Note_off_c, 2, 75, 67
4, 770368, Note_on_c, 2, 70, 67
4, 770368, Note_on_c, 2, 74, 67
4, 770400, Note_off_c, 2, 70, 67
4, 770400, Note_off_c, 2, 74, 67
4, 770432, Note_off_c, 2, 70, 67
4, 770432, Note_off_c, 2, 74, 67
4, 770432, Note_on_c, 2, 68, 67
4, 770432, Note_on_c, 2, 72, 67
4, 770464, Note_off_c, 2, 68, 67
4, 770464, Note_off_c, 2, 72, 67
4, 770496, Note_off_c, 2, 68, 67
4, 770496, Note_off_c, 2, 72, 67
4, 770496, Note_on_c, 2, 74, 67
4, 770496, Note_on_c, 2, 77, 67
4, 770528, Note_off_c, 2, 74, 67
4, 770528, Note_off_c, 2, 77, 67
4, 770560, Note_off_c, 2, 74, 67
4, 770560, Note_off_c, 2, 77, 67
4, 770560, Note_on_c, 2, 75, 67
4, 770560, Note_on_c, 2, 79, 67
4, 770688, Note_off_c, 2, 75, 67
4, 770688, Note_off_c, 2, 79, 67
4, 770688, Note_on_c, 2, 70, 67
4, 770752, Note_off_c, 2, 70, 67
4, 770816, Note_off_c, 2, 70, 67
4, 770816, Note_on_c, 2, 70, 67
4, 770880, Note_off_c, 2, 70, 67
4, 770944, Note_off_c, 2, 70, 67
4, 770944, Note_on_c, 2, 75, 67
4, 770944, Note_on_c, 2, 79, 67
4, 771008, Note_off_c, 2, 75, 67
4, 771008, Note_off_c, 2, 79, 67
4, 771008, Note_on_c, 2, 77, 67
4, 771008, Note_on_c, 2, 80, 67
4, 771072, Note_off_c, 2, 77, 67
4, 771072, Note_off_c, 2, 80, 67
4, 771072, Note_on_c, 2, 79, 67
4, 771072, Note_on_c, 2, 82, 67
4, 771136, Note_off_c, 2, 79, 67
4, 771136, Note_off_c, 2, 82, 67
4, 771200, Note_off_c, 2, 79, 67
4, 771200, Note_off_c, 2, 82, 67
4, 771200, Note_on_c, 2, 79, 67
4, 771200, Note_on_c, 2, 82, 67
4, 771264, Note_off_c, 2, 79, 67
4, 771264, Note_off_c, 2, 82, 67
4, 771328, Note_off_c, 2, 79, 67
4, 771328, Note_off_c, 2, 82, 67
4, 771328, Note_on_c, 2, 70, 67
4, 771328, Note_on_c, 2, 79, 67
4, 771392, Note_off_c, 2, 70, 67
4, 771392, Note_off_c, 2, 79, 67
4, 771456, Note_off_c, 2, 70, 67
4, 771456, Note_off_c, 2, 79, 67
4, 771456, Note_on_c, 2, 70, 67
4, 771456, Note_on_c, 2, 75, 67
4, 771520, Note_off_c, 2, 70, 67
4, 771520, Note_off_c, 2, 75, 67
4, 771584, Note_off_c, 2, 70, 67
4, 771584, Note_off_c, 2, 75, 67
4, 771584, Note_on_c, 2, 84, 67
4, 771584, Note_on_c, 2, 87, 67
4, 771648, Note_off_c, 2, 84, 67
4, 771648, Note_off_c, 2, 87, 67
4, 771712, Note_off_c, 2, 84, 67
4, 771712, Note_off_c, 2, 87, 67
4, 771712, Note_on_c, 2, 82, 67
4, 771712, Note_on_c, 2, 86, 67
4, 771776, Note_off_c, 2, 82, 67
4, 771776, Note_off_c, 2, 86, 67
4, 771840, Note_off_c, 2, 82, 67
4, 771840, Note_off_c, 2, 86, 67
4, 771840, Note_on_c, 2, 80, 67
4, 771840, Note_on_c, 2, 84, 67
4, 771904, Note_off_c, 2, 80, 67
4, 771904, Note_off_c, 2, 84, 67
4, 771968, Note_off_c, 2, 80, 67
4, 771968, Note_off_c, 2, 84, 67
4, 771968, Note_on_c, 2, 79, 67
4, 771968, Note_on_c, 2, 87, 67
4, 772032, Note_off_c, 2, 79, 67
4, 772032, Note_off_c, 2, 87, 67
4, 772096, Note_off_c, 2, 79, 67
4, 772096, Note_off_c, 2, 87, 67
4, 772096, Note_on_c, 2, 75, 67
4, 772096, Note_on_c, 2, 82, 67
4, 772160, Note_off_c, 2, 75, 67
4, 772160, Note_off_c, 2, 82, 67
4, 772224, Note_off_c, 2, 75, 67
4, 772224, Note_off_c, 2, 82, 67
4, 772224, Note_on_c, 2, 79, 67
4, 772288, Note_off_c, 2, 79, 67
4, 772352, Note_off_c, 2, 79, 67
4, 772352, Note_on_c, 2, 67, 67
4, 772352, Note_on_c, 2, 75, 67
4, 772416, Note_off_c, 2, 67, 67
4, 772416, Note_off_c, 2, 75, 67
4, 772480, Note_off_c, 2, 67, 67
4, 772480, Note_off_c, 2, 75, 67
4, 772480, Note_on_c, 2, 68, 67
4, 772480, Note_on_c, 2, 74, 67
4, 772512, Note_off_c, 2, 68, 67
4, 772512, Note_off_c, 2, 74, 67
4, 772544, Note_off_c, 2, 68, 67
4, 772544, Note_off_c, 2, 74, 67
4, 772544, Note_on_c, 2, 74, 67
4, 772544, Note_on_c, 2, 79, 67
4, 772576, Note_off_c, 2, 74, 67
4, 772576, Note_off_c, 2, 79, 67
4, 772608, Note_off_c, 2, 74, 67
4, 772608, Note_off_c, 2, 79, 67
4, 772608, Note_on_c, 2, 70, 67
4, 772608, Note_on_c, 2, 77, 67
4, 772672, Note_off_c, 2, 70, 67
4, 772672, Note_off_c, 2, 77, 67
4, 772736, Note_off_c, 2, 70, 67
4, 772736, Note_off_c, 2, 77, 67
4, 772736, Note_on_c, 2, 65, 67
4, 772736, Note_on_c, 2, 70, 67
4, 772800, Note_off_c, 2, 65, 67
4, 772800, Note_off_c, 2, 70, 67
4, 772864, Note_off_c, 2, 65, 67
4, 772864, Note_off_c, 2, 70, 67
4, 772864, Note_on_c, 2, 68, 67
4, 772864, Note_on_c, 2, 70, 67
4, 772928, Note_off_c, 2, 68, 67
4, 772928, Note_off_c, 2, 70, 67
4, 772992, Note_off_c, 2, 68, 67
4, 772992, Note_off_c, 2, 70, 67
4, 772992, Note_on_c, 2, 70, 67
4, 772992, Note_on_c, 2, 79, 67
4, 773056, Note_off_c, 2, 70, 67
4, 773056, Note_off_c, 2, 79, 67
4, 773056, Note_on_c, 2, 77, 67
4, 773056, Note_on_c, 2, 80, 67
4, 773120, Note_off_c, 2, 77, 67
4, 773120, Note_off_c, 2, 80, 67
4, 773120, Note_on_c, 2, 79, 67
4, 773120, Note_on_c, 2, 82, 67
4, 773184, Note_off_c, 2, 79, 67
4, 773184, Note_off_c, 2, 82, 67
4, 773248, Note_off_c, 2, 79, 67
4, 773248, Note_off_c, 2, 82, 67
4, 773248, Note_on_c, 2, 79, 67
4, 773248, Note_on_c, 2, 82, 67
4, 773312, Note_off_c, 2, 79, 67
4, 773312, Note_off_c, 2, 82, 67
4, 773376, Note_off_c, 2, 79, 67
4, 773376, Note_off_c, 2, 82, 67
4, 773376, Note_on_c, 2, 70, 67
4, 773376, Note_on_c, 2, 79, 67
4, 773440, Note_off_c, 2, 70, 67
4, 773440, Note_off_c, 2, 79, 67
4, 773504, Note_off_c, 2, 70, 67
4, 773504, Note_off_c, 2, 79, 67
4, 773504, Note_on_c, 2, 75, 67
4, 773504, Note_on_c, 2, 82, 67
4, 773568, Note_off_c, 2, 75, 67
4, 773568, Note_off_c, 2, 82, 67
4, 773632, Note_off_c, 2, 75, 67
4, 773632, Note_off_c, 2, 82, 67
4, 773632, Note_on_c, 2, 84, 67
4, 773632, Note_on_c, 2, 87, 67
4, 773696, Note_off_c, 2, 84, 67
4, 773696, Note_off_c, 2, 87, 67
4, 773760, Note_off_c, 2, 84, 67
4, 773760, Note_off_c, 2, 87, 67
4, 773760, Note_on_c, 2, 82, 67
4, 773760, Note_on_c, 2, 86, 67
4, 773824, Note_off_c, 2, 82, 67
4, 773824, Note_off_c, 2, 86, 67
4, 773888, Note_off_c, 2, 82, 67
4, 773888, Note_off_c, 2, 86, 67
4, 773888, Note_on_c, 2, 80, 67
4, 773888, Note_on_c, 2, 84, 67
4, 773952, Note_off_c, 2, 80, 67
4, 773952, Note_off_c, 2, 84, 67
4, 774016, Note_off_c, 2, 80, 67
4, 774016, Note_off_c, 2, 84, 67
4, 774016, Note_on_c, 2, 70, 67
4, 774016, Note_on_c, 2, 74, 67
4, 774048, Note_off_c, 2, 70, 67
4, 774048, Note_off_c, 2, 74, 67
4, 774080, Note_off_c, 2, 70, 67
4, 774080, Note_off_c, 2, 74, 67
4, 774080, Note_on_c, 2, 77, 67
4, 774080, Note_on_c, 2, 80, 67
4, 774112, Note_off_c, 2, 77, 67
4, 774112, Note_off_c, 2, 80, 67
4, 774144, Note_off_c, 2, 77, 67
4, 774144, Note_off_c, 2, 80, 67
4, 774144, Note_on_c, 2, 77, 67
4, 774144, Note_on_c, 2, 82, 67
4, 774208, Note_off_c, 2, 77, 67
4, 774208, Note_off_c, 2, 82, 67
4, 774272, Note_off_c, 2, 77, 67
4, 774272, Note_off_c, 2, 82, 67
4, 774272, Note_on_c, 2, 80, 67
4, 774272, Note_on_c, 2, 87, 67
4, 774336, Note_off_c, 2, 80, 67
4, 774336, Note_off_c, 2, 87, 67
4, 774400, Note_off_c, 2, 80, 67
4, 774400, Note_off_c, 2, 87, 67
4, 774400, Note_on_c, 2, 82, 67
4, 774400, Note_on_c, 2, 86, 67
4, 774464, Note_off_c, 2, 82, 67
4, 774464, Note_off_c, 2, 86, 67
4, 774528, Note_off_c, 2, 82, 67
4, 774528, Note_off_c, 2, 86, 67
4, 774528, Note_on_c, 2, 80, 67
4, 774528, Note_on_c, 2, 89, 67
4, 774592, Note_off_c, 2, 80, 67
4, 774592, Note_off_c, 2, 89, 67
4, 774656, Note_off_c, 2, 80, 67
4, 774656, Note_off_c, 2, 89, 67
4, 774656, Note_on_c, 2, 79, 67
4, 774656, Note_on_c, 2, 87, 67
4, 774720, Note_off_c, 2, 79, 67
4, 774720, Note_off_c, 2, 87, 67
4, 774784, Note_off_c, 2, 79, 67
4, 774784, Note_off_c, 2, 87, 67
4, 774784, Note_on_c, 2, 70, 67
4, 774784, Note_on_c, 2, 82, 67
4, 774848, Note_off_c, 2, 70, 67
4, 774848, Note_off_c, 2, 82, 67
4, 774912, Note_off_c, 2, 70, 67
4, 774912, Note_off_c, 2, 82, 67
4, 774912, Note_on_c, 2, 70, 67
4, 774912, Note_on_c, 2, 82, 67
4, 774976, Note_off_c, 2, 70, 67
4, 774976, Note_off_c, 2, 82, 67
4, 775040, Note_off_c, 2, 70, 67
4, 775040, Note_off_c, 2, 82, 67
4, 775040, Note_on_c, 2, 75, 67
4, 775104, Note_off_c, 2, 75, 67
4, 775104, Note_on_c, 2, 77, 67
4, 775168, Note_off_c, 2, 77, 67
4, 775168, Note_on_c, 2, 79, 67
4, 775232, Note_off_c, 2, 79, 67
4, 775296, Note_off_c, 2, 79, 67
4, 775296, Note_on_c, 2, 75, 67
4, 775296, Note_on_c, 2, 79, 67
4, 775360, Note_off_c, 2, 75, 67
4, 775360, Note_off_c, 2, 79, 67
4, 775424, Note_off_c, 2, 75, 67
4, 775424, Note_off_c, 2, 79, 67
4, 775424, Note_on_c, 2, 75, 67
4, 775424, Note_on_c, 2, 79, 67
4, 775488, Note_off_c, 2, 75, 67
4, 775488, Note_off_c, 2, 79, 67
4, 775552, Note_off_c, 2, 75, 67
4, 775552, Note_off_c, 2, 79, 67
4, 775552, Note_on_c, 2, 75, 67
4, 775616, Note_off_c, 2, 75, 67
4, 775616, Note_on_c, 2, 77, 67
4, 775680, Note_off_c, 2, 77, 67
4, 775680, Note_on_c, 2, 79, 67
4, 775744, Note_off_c, 2, 79, 67
4, 775808, Note_off_c, 2, 79, 67
4, 775808, Note_on_c, 2, 75, 67
4, 775808, Note_on_c, 2, 79, 67
4, 775872, Note_off_c, 2, 75, 67
4, 775872, Note_off_c, 2, 79, 67
4, 775936, Note_off_c, 2, 75, 67
4, 775936, Note_off_c, 2, 79, 67
4, 775936, Note_on_c, 2, 75, 67
4, 775936, Note_on_c, 2, 79, 67
4, 776000, Note_off_c, 2, 75, 67
4, 776000, Note_off_c, 2, 79, 67
4, 776064, Note_off_c, 2, 75, 67
4, 776064, Note_off_c, 2, 79, 67
4, 776064, Note_on_c, 2, 75, 67
4, 776128, Note_off_c, 2, 75, 67
4, 776128, Note_on_c, 2, 77, 67
4, 776192, Note_off_c, 2, 77, 67
4, 776192, Note_on_c, 2, 79, 67
4, 776256, Note_off_c, 2, 79, 67
4, 776320, Note_off_c, 2, 79, 67
4, 776320, Note_on_c, 2, 75, 67
4, 776320, Note_on_c, 2, 79, 67
4, 776384, Note_off_c, 2, 75, 67
4, 776384, Note_off_c, 2, 79, 67
4, 776448, Note_off_c, 2, 75, 67
4, 776448, Note_off_c, 2, 79, 67
4, 776448, Note_on_c, 2, 75, 67
4, 776448, Note_on_c, 2, 80, 67
4, 776480, Note_off_c, 2, 75, 67
4, 776480, Note_off_c, 2, 80, 67
4, 776512, Note_off_c, 2, 75, 67
4, 776512, Note_off_c, 2, 80, 67
4, 776512, Note_on_c, 2, 74, 67
4, 776544, Note_off_c, 2, 74, 67
4, 776576, Note_off_c, 2, 74, 67
4, 776576, Note_on_c, 2, 72, 67
4, 776608, Note_off_c, 2, 72, 67
4, 776640, Note_off_c, 2, 72, 67
4, 776640, Note_on_c, 2, 74, 67
4, 776640, Note_on_c, 2, 79, 67
4, 776672, Note_off_c, 2, 74, 67
4, 776672, Note_off_c, 2, 79, 67
4, 776704, Note_off_c, 2, 74, 67
4, 776704, Note_off_c, 2, 79, 67
4, 776704, Note_on_c, 2, 70, 67
4, 776704, Note_on_c, 2, 77, 67
4, 776768, Note_off_c, 2, 70, 67
4, 776768, Note_off_c, 2, 77, 67
4, 776832, Note_off_c, 2, 70, 67
4, 776832, Note_off_c, 2, 77, 67
4, 776832, Note_on_c, 2, 68, 67
4, 776832, Note_on_c, 2, 70, 67
4, 776896, Note_off_c, 2, 68, 67
4, 776896, Note_off_c, 2, 70, 67
4, 776960, Note_off_c, 2, 68, 67
4, 776960, Note_off_c, 2, 70, 67
4, 776960, Note_on_c, 2, 68, 67
4, 776960, Note_on_c, 2, 70, 67
4, 777024, Note_off_c, 2, 68, 67
4, 777024, Note_off_c, 2, 70, 67
4, 777088, Note_off_c, 2, 68, 67
4, 777088, Note_off_c, 2, 70, 67
4, 777088, Note_on_c, 2, 74, 67
4, 777152, Note_off_c, 2, 74, 67
4, 777152, Note_on_c, 2, 75, 67
4, 777216, Note_off_c, 2, 75, 67
4, 777216, Note_on_c, 2, 77, 67
4, 777280, Note_off_c, 2, 77, 67
4, 777344, Note_off_c, 2, 77, 67
4, 777344, Note_on_c, 2, 74, 67
4, 777344, Note_on_c, 2, 77, 67
4, 777408, Note_off_c, 2, 74, 67
4, 777408, Note_off_c, 2, 77, 67
4, 777472, Note_off_c, 2, 74, 67
4, 777472, Note_off_c, 2, 77, 67
4, 777472, Note_on_c, 2, 74, 67
4, 777472, Note_on_c, 2, 77, 67
4, 777536, Note_off_c, 2, 74, 67
4, 777536, Note_off_c, 2, 77, 67
4, 777600, Note_off_c, 2, 74, 67
4, 777600, Note_off_c, 2, 77, 67
4, 777600, Note_on_c, 2, 74, 67
4, 777664, Note_off_c, 2, 74, 67
4, 777664, Note_on_c, 2, 75, 67
4, 777728, Note_off_c, 2, 75, 67
4, 777728, Note_on_c, 2, 77, 67
4, 777792, Note_off_c, 2, 77, 67
4, 777856, Note_off_c, 2, 77, 67
4, 777856, Note_on_c, 2, 74, 67
4, 777856, Note_on_c, 2, 77, 67
4, 777920, Note_off_c, 2, 74, 67
4, 777920, Note_off_c, 2, 77, 67
4, 777984, Note_off_c, 2, 74, 67
4, 777984, Note_off_c, 2, 77, 67
4, 777984, Note_on_c, 2, 74, 67
4, 777984, Note_on_c, 2, 77, 67
4, 778048, Note_off_c, 2, 74, 67
4, 778048, Note_off_c, 2, 77, 67
4, 778112, Note_off_c, 2, 74, 67
4, 778112, Note_off_c, 2, 77, 67
4, 778112, Note_on_c, 2, 74, 67
4, 778176, Note_off_c, 2, 74, 67
4, 778176, Note_on_c, 2, 75, 67
4, 778240, Note_off_c, 2, 75, 67
4, 778240, Note_on_c, 2, 70, 67
4, 778240, Note_on_c, 2, 77, 67
4, 778304, Note_off_c, 2, 70, 67
4, 778304, Note_off_c, 2, 77, 67
4, 778368, Note_off_c, 2, 70, 67
4, 778368, Note_off_c, 2, 77, 67
4, 778368, Note_on_c, 2, 74, 67
4, 778368, Note_on_c, 2, 77, 67
4, 778432, Note_off_c, 2, 74, 67
4, 778432, Note_off_c, 2, 77, 67
4, 778496, Note_off_c, 2, 74, 67
4, 778496, Note_off_c, 2, 77, 67
4, 778496, Note_on_c, 2, 74, 67
4, 778496, Note_on_c, 2, 79, 67
4, 778528, Note_off_c, 2, 74, 67
4, 778528, Note_off_c, 2, 79, 67
4, 778560, Note_off_c, 2, 74, 67
4, 778560, Note_off_c, 2, 79, 67
4, 778560, Note_on_c, 2, 72, 67
4, 778560, Note_on_c, 2, 77, 67
4, 778592, Note_off_c, 2, 72, 67
4, 778592, Note_off_c, 2, 77, 67
4, 778624, Note_off_c, 2, 72, 67
4, 778624, Note_off_c, 2, 77, 67
4, 778624, Note_on_c, 2, 70, 67
4, 778624, Note_on_c, 2, 77, 67
4, 778656, Note_off_c, 2, 70, 67
4, 778656, Note_off_c, 2, 77, 67
4, 778688, Note_off_c, 2, 70, 67
4, 778688, Note_off_c, 2, 77, 67
4, 778688, Note_on_c, 2, 68, 67
4, 778688, Note_on_c, 2, 79, 67
4, 778720, Note_off_c, 2, 68, 67
4, 778720, Note_off_c, 2, 79, 67
4, 778752, Note_off_c, 2, 68, 67
4, 778752, Note_off_c, 2, 79, 67
4, 778752, Note_on_c, 2, 67, 67
4, 778752, Note_on_c, 2, 75, 67
4, 778816, Note_off_c, 2, 67, 67
4, 778816, Note_off_c, 2, 75, 67
4, 778880, Note_off_c, 2, 67, 67
4, 778880, Note_off_c, 2, 75, 67
4, 778880, Note_on_c, 2, 70, 67
4, 778944, Note_off_c, 2, 70, 67
4, 779008, Note_off_c, 2, 70, 67
4, 779008, Note_on_c, 2, 70, 67
4, 779008, Note_on_c, 2, 79, 67
4, 779072, Note_off_c, 2, 70, 67
4, 779072, Note_off_c, 2, 79, 67
4, 779136, Note_off_c, 2, 70, 67
4, 779136, Note_off_c, 2, 79, 67
4, 779136, Note_on_c, 2, 75, 67
4, 779200, Note_off_c, 2, 75, 67
4, 779200, Note_on_c, 2, 77, 67
4, 779264, Note_off_c, 2, 77, 67
4, 779264, Note_on_c, 2, 79, 67
4, 779328, Note_off_c, 2, 79, 67
4, 779392, Note_off_c, 2, 79, 67
4, 779392, Note_on_c, 2, 75, 67
4, 779392, Note_on_c, 2, 79, 67
4, 779456, Note_off_c, 2, 75, 67
4, 779456, Note_off_c, 2, 79, 67
4, 779520, Note_off_c, 2, 75, 67
4, 779520, Note_off_c, 2, 79, 67
4, 779520, Note_on_c, 2, 75, 67
4, 779520, Note_on_c, 2, 79, 67
4, 779584, Note_off_c, 2, 75, 67
4, 779584, Note_off_c, 2, 79, 67
4, 779648, Note_off_c, 2, 75, 67
4, 779648, Note_off_c, 2, 79, 67
4, 779648, Note_on_c, 2, 75, 67
4, 779712, Note_off_c, 2, 75, 67
4, 779712, Note_on_c, 2, 77, 67
4, 779776, Note_off_c, 2, 77, 67
4, 779776, Note_on_c, 2, 79, 67
4, 779840, Note_off_c, 2, 79, 67
4, 779904, Note_off_c, 2, 79, 67
4, 779904, Note_on_c, 2, 75, 67
4, 779904, Note_on_c, 2, 79, 67
4, 779968, Note_off_c, 2, 75, 67
4, 779968, Note_off_c, 2, 79, 67
4, 780032, Note_off_c, 2, 75, 67
4, 780032, Note_off_c, 2, 79, 67
4, 780032, Note_on_c, 2, 75, 67
4, 780032, Note_on_c, 2, 79, 67
4, 780096, Note_off_c, 2, 75, 67
4, 780096, Note_off_c, 2, 79, 67
4, 780160, Note_off_c, 2, 75, 67
4, 780160, Note_off_c, 2, 79, 67
4, 780160, Note_on_c, 2, 75, 67
4, 780224, Note_off_c, 2, 75, 67
4, 780224, Note_on_c, 2, 77, 67
4, 780288, Note_off_c, 2, 77, 67
4, 780288, Note_on_c, 2, 79, 67
4, 780352, Note_off_c, 2, 79, 67
4, 780416, Note_off_c, 2, 79, 67
4, 780416, Note_on_c, 2, 75, 67
4, 780416, Note_on_c, 2, 79, 67
4, 780480, Note_off_c, 2, 75, 67
4, 780480, Note_off_c, 2, 79, 67
4, 780544, Note_off_c, 2, 75, 67
4, 780544, Note_off_c, 2, 79, 67
4, 780544, Note_on_c, 2, 75, 67
4, 780544, Note_on_c, 2, 80, 67
4, 780576, Note_off_c, 2, 75, 67
4, 780576, Note_off_c, 2, 80, 67
4, 780608, Note_off_c, 2, 75, 67
4, 780608, Note_off_c, 2, 80, 67
4, 780608, Note_on_c, 2, 74, 67
4, 780672, Note_off_c, 2, 74, 67
4, 780672, Note_on_c, 2, 72, 67
4, 780736, Note_off_c, 2, 72, 67
4, 780736, Note_on_c, 2, 74, 67
4, 780736, Note_on_c, 2, 79, 67
4, 780768, Note_off_c, 2, 74, 67
4, 780768, Note_off_c, 2, 79, 67
4, 780800, Note_off_c, 2, 74, 67
4, 780800, Note_off_c, 2, 79, 67
4, 780800, Note_on_c, 2, 70, 67
4, 780800, Note_on_c, 2, 77, 67
4, 780864, Note_off_c, 2, 70, 67
4, 780864, Note_off_c, 2, 77, 67
4, 780928, Note_off_c, 2, 70, 67
4, 780928, Note_off_c, 2, 77, 67
4, 780928, Note_on_c, 2, 68, 67
4, 780928, Note_on_c, 2, 70, 67
4, 780992, Note_off_c, 2, 68, 67
4, 780992, Note_off_c, 2, 70, 67
4, 781056, Note_off_c, 2, 68, 67
4, 781056, Note_off_c, 2, 70, 67
4, 781056, Note_on_c, 2, 68, 67
4, 781056, Note_on_c, 2, 70, 67
4, 781120, Note_off_c, 2, 68, 67
4, 781120, Note_off_c, 2, 70, 67
4, 781184, Note_off_c, 2, 68, 67
4, 781184, Note_off_c, 2, 70, 67
4, 781184, Note_on_c, 2, 74, 67
4, 781248, Note_off_c, 2, 74, 67
4, 781248, Note_on_c, 2, 75, 67
4, 781312, Note_off_c, 2, 75, 67
4, 781312, Note_on_c, 2, 77, 67
4, 781440, Note_off_c, 2, 77, 67
4, 781440, Note_on_c, 2, 74, 67
4, 781440, Note_on_c, 2, 80, 67
4, 781504, Note_off_c, 2, 74, 67
4, 781504, Note_off_c, 2, 80, 67
4, 781568, Note_off_c, 2, 74, 67
4, 781568, Note_off_c, 2, 80, 67
4, 781568, Note_on_c, 2, 74, 67
4, 781568, Note_on_c, 2, 79, 67
4, 781632, Note_off_c, 2, 74, 67
4, 781632, Note_off_c, 2, 79, 67
4, 781696, Note_off_c, 2, 74, 67
4, 781696, Note_off_c, 2, 79, 67
4, 781696, Note_on_c, 2, 77, 67
4, 781760, Note_off_c, 2, 77, 67
4, 781824, Note_off_c, 2, 77, 67
4, 781824, Note_on_c, 2, 75, 67
4, 781888, Note_off_c, 2, 75, 67
4, 781952, Note_off_c, 2, 75, 67
4, 781952, Note_on_c, 2, 70, 67
4, 781952, Note_on_c, 2, 74, 67
4, 782016, Note_off_c, 2, 70, 67
4, 782016, Note_off_c, 2, 74, 67
4, 782080, Note_off_c, 2, 70, 67
4, 782080, Note_off_c, 2, 74, 67
4, 782080, Note_on_c, 2, 72, 67
4, 782080, Note_on_c, 2, 74, 67
4, 782144, Note_off_c, 2, 72, 67
4, 782144, Note_off_c, 2, 74, 67
4, 782208, Note_off_c, 2, 72, 67
4, 782208, Note_off_c, 2, 74, 67
4, 782208, Note_on_c, 2, 70, 67
4, 782208, Note_on_c, 2, 74, 67
4, 782272, Note_off_c, 2, 70, 67
4, 782272, Note_off_c, 2, 74, 67
4, 782336, Note_off_c, 2, 70, 67
4, 782336, Note_off_c, 2, 74, 67
4, 782336, Note_on_c, 2, 80, 67
4, 782336, Note_on_c, 2, 84, 67
4, 782592, Note_off_c, 2, 80, 67
4, 782592, Note_off_c, 2, 84, 67
4, 782592, Note_on_c, 2, 70, 67
4, 782592, Note_on_c, 2, 74, 67
4, 782608, Note_off_c, 2, 70, 67
4, 782608, Note_off_c, 2, 74, 67
4, 782624, Note_off_c, 2, 70, 67
4, 782624, Note_off_c, 2, 74, 67
4, 782624, Note_on_c, 2, 72, 67
4, 782624, Note_on_c, 2, 75, 67
4, 782640, Note_off_c, 2, 72, 67
4, 782640, Note_off_c, 2, 75, 67
4, 782656, Note_off_c, 2, 72, 67
4, 782656, Note_off_c, 2, 75, 67
4, 782656, Note_on_c, 2, 70, 67
4, 782656, Note_on_c, 2, 74, 67
4, 782688, Note_off_c, 2, 70, 67
4, 782688, Note_off_c, 2, 74, 67
4, 782720, Note_off_c, 2, 70, 67
4, 782720, Note_off_c, 2, 74, 67
4, 782720, Note_on_c, 2, 68, 67
4, 782720, Note_on_c, 2, 72, 67
4, 782752, Note_off_c, 2, 68, 67
4, 782752, Note_off_c, 2, 72, 67
4, 782784, Note_off_c, 2, 68, 67
4, 782784, Note_off_c, 2, 72, 67
4, 782784, Note_on_c, 2, 74, 67
4, 782784, Note_on_c, 2, 77, 67
4, 782816, Note_off_c, 2, 74, 67
4, 782816, Note_off_c, 2, 77, 67
4, 782848, Note_off_c, 2, 74, 67
4, 782848, Note_off_c, 2, 77, 67
4, 782848, Note_on_c, 2, 75, 67
4, 782848, Note_on_c, 2, 79, 67
4, 782976, Note_off_c, 2, 75, 67
4, 782976, Note_off_c, 2, 79, 67
4, 782976, Note_on_c, 2, 70, 67
4, 783040, Note_off_c, 2, 70, 67
4, 783104, Note_off_c, 2, 70, 67
4, 783104, Note_on_c, 2, 70, 67
4, 783168, Note_off_c, 2, 70, 67
4, 783232, Note_off_c, 2, 70, 67
4, 783232, Note_on_c, 2, 75, 67
4, 783232, Note_on_c, 2, 79, 67
4, 783296, Note_off_c, 2, 75, 67
4, 783296, Note_off_c, 2, 79, 67
4, 783296, Note_on_c, 2, 77, 67
4, 783296, Note_on_c, 2, 80, 67
4, 783360, Note_off_c, 2, 77, 67
4, 783360, Note_off_c, 2, 80, 67
4, 783360, Note_on_c, 2, 79, 67
4, 783360, Note_on_c, 2, 82, 67
4, 783424, Note_off_c, 2, 79, 67
4, 783424, Note_off_c, 2, 82, 67
4, 783488, Note_off_c, 2, 79, 67
4, 783488, Note_off_c, 2, 82, 67
4, 783488, Note_on_c, 2, 79, 67
4, 783488, Note_on_c, 2, 82, 67
4, 783552, Note_off_c, 2, 79, 67
4, 783552, Note_off_c, 2, 82, 67
4, 783616, Note_off_c, 2, 79, 67
4, 783616, Note_off_c, 2, 82, 67
4, 783616, Note_on_c, 2, 70, 67
4, 783616, Note_on_c, 2, 79, 67
4, 783680, Note_off_c, 2, 70, 67
4, 783680, Note_off_c, 2, 79, 67
4, 783744, Note_off_c, 2, 70, 67
4, 783744, Note_off_c, 2, 79, 67
4, 783744, Note_on_c, 2, 70, 67
4, 783744, Note_on_c, 2, 75, 67
4, 783808, Note_off_c, 2, 70, 67
4, 783808, Note_off_c, 2, 75, 67
4, 783872, Note_off_c, 2, 70, 67
4, 783872, Note_off_c, 2, 75, 67
4, 783872, Note_on_c, 2, 84, 67
4, 783872, Note_on_c, 2, 87, 67
4, 783936, Note_off_c, 2, 84, 67
4, 783936, Note_off_c, 2, 87, 67
4, 784000, Note_off_c, 2, 84, 67
4, 784000, Note_off_c, 2, 87, 67
4, 784000, Note_on_c, 2, 82, 67
4, 784000, Note_on_c, 2, 86, 67
4, 784064, Note_off_c, 2, 82, 67
4, 784064, Note_off_c, 2, 86, 67
4, 784128, Note_off_c, 2, 82, 67
4, 784128, Note_off_c, 2, 86, 67
4, 784128, Note_on_c, 2, 80, 67
4, 784128, Note_on_c, 2, 84, 67
4, 784192, Note_off_c, 2, 80, 67
4, 784192, Note_off_c, 2, 84, 67
4, 784256, Note_off_c, 2, 80, 67
4, 784256, Note_off_c, 2, 84, 67
4, 784256, Note_on_c, 2, 79, 67
4, 784256, Note_on_c, 2, 87, 67
4, 784320, Note_off_c, 2, 79, 67
4, 784320, Note_off_c, 2, 87, 67
4, 784384, Note_off_c, 2, 79, 67
4, 784384, Note_off_c, 2, 87, 67
4, 784384, Note_on_c, 2, 75, 67
4, 784384, Note_on_c, 2, 82, 67
4, 784448, Note_off_c, 2, 75, 67
4, 784448, Note_off_c, 2, 82, 67
4, 784512, Note_off_c, 2, 75, 67
4, 784512, Note_off_c, 2, 82, 67
4, 784512, Note_on_c, 2, 79, 67
4, 784576, Note_off_c, 2, 79, 67
4, 784640, Note_off_c, 2, 79, 67
4, 784640, Note_on_c, 2, 67, 67
4, 784640, Note_on_c, 2, 75, 67
4, 784704, Note_off_c, 2, 67, 67
4, 784704, Note_off_c, 2, 75, 67
4, 784768, Note_off_c, 2, 67, 67
4, 784768, Note_off_c, 2, 75, 67
4, 784768, Note_on_c, 2, 68, 67
4, 784768, Note_on_c, 2, 74, 67
4, 784800, Note_off_c, 2, 68, 67
4, 784800, Note_off_c, 2, 74, 67
4, 784832, Note_off_c, 2, 68, 67
4, 784832, Note_off_c, 2, 74, 67
4, 784832, Note_on_c, 2, 74, 67
4, 784832, Note_on_c, 2, 79, 67
4, 784864, Note_off_c, 2, 74, 67
4, 784864, Note_off_c, 2, 79, 67
4, 784896, Note_off_c, 2, 74, 67
4, 784896, Note_off_c, 2, 79, 67
4, 784896, Note_on_c, 2, 70, 67
4, 784896, Note_on_c, 2, 77, 67
4, 784960, Note_off_c, 2, 70, 67
4, 784960, Note_off_c, 2, 77, 67
4, 785024, Note_off_c, 2, 70, 67
4, 785024, Note_off_c, 2, 77, 67
4, 785024, Note_on_c, 2, 65, 67
4, 785024, Note_on_c, 2, 70, 67
4, 785088, Note_off_c, 2, 65, 67
4, 785088, Note_off_c, 2, 70, 67
4, 785152, Note_off_c, 2, 65, 67
4, 785152, Note_off_c, 2, 70, 67
4, 785152, Note_on_c, 2, 68, 67
4, 785152, Note_on_c, 2, 70, 67
4, 785216, Note_off_c, 2, 68, 67
4, 785216, Note_off_c, 2, 70, 67
4, 785280, Note_off_c, 2, 68, 67
4, 785280, Note_off_c, 2, 70, 67
4, 785280, Note_on_c, 2, 70, 67
4, 785280, Note_on_c, 2, 79, 67
4, 785344, Note_off_c, 2, 70, 67
4, 785344, Note_off_c, 2, 79, 67
4, 785344, Note_on_c, 2, 77, 67
4, 785344, Note_on_c, 2, 80, 67
4, 785408, Note_off_c, 2, 77, 67
4, 785408, Note_off_c, 2, 80, 67
4, 785408, Note_on_c, 2, 79, 67
4, 785408, Note_on_c, 2, 82, 67
4, 785472, Note_off_c, 2, 79, 67
4, 785472, Note_off_c, 2, 82, 67
4, 785536, Note_off_c, 2, 79, 67
4, 785536, Note_off_c, 2, 82, 67
4, 785536, Note_on_c, 2, 79, 67
4, 785536, Note_on_c, 2, 82, 67
4, 785600, Note_off_c, 2, 79, 67
4, 785600, Note_off_c, 2, 82, 67
4, 785664, Note_off_c, 2, 79, 67
4, 785664, Note_off_c, 2, 82, 67
4, 785664, Note_on_c, 2, 70, 67
4, 785664, Note_on_c, 2, 79, 67
4, 785728, Note_off_c, 2, 70, 67
4, 785728, Note_off_c, 2, 79, 67
4, 785792, Note_off_c, 2, 70, 67
4, 785792, Note_off_c, 2, 79, 67
4, 785792, Note_on_c, 2, 75, 67
4, 785792, Note_on_c, 2, 82, 67
4, 785856, Note_off_c, 2, 75, 67
4, 785856, Note_off_c, 2, 82, 67
4, 785920, Note_off_c, 2, 75, 67
4, 785920, Note_off_c, 2, 82, 67
4, 785920, Note_on_c, 2, 84, 67
4, 785920, Note_on_c, 2, 87, 67
4, 785984, Note_off_c, 2, 84, 67
4, 785984, Note_off_c, 2, 87, 67
4, 786048, Note_off_c, 2, 84, 67
4, 786048, Note_off_c, 2, 87, 67
4, 786048, Note_on_c, 2, 82, 67
4, 786048, Note_on_c, 2, 86, 67
4, 786112, Note_off_c, 2, 82, 67
4, 786112, Note_off_c, 2, 86, 67
4, 786176, Note_off_c, 2, 82, 67
4, 786176, Note_off_c, 2, 86, 67
4, 786176, Note_on_c, 2, 80, 67
4, 786176, Note_on_c, 2, 84, 67
4, 786240, Note_off_c, 2, 80, 67
4, 786240, Note_off_c, 2, 84, 67
4, 786304, Note_off_c, 2, 80, 67
4, 786304, Note_off_c, 2, 84, 67
4, 786304, Note_on_c, 2, 70, 67
4, 786304, Note_on_c, 2, 74, 67
4, 786336, Note_off_c, 2, 70, 67
4, 786336, Note_off_c, 2, 74, 67
4, 786368, Note_off_c, 2, 70, 67
4, 786368, Note_off_c, 2, 74, 67
4, 786368, Note_on_c, 2, 77, 67
4, 786368, Note_on_c, 2, 80, 67
4, 786400, Note_off_c, 2, 77, 67
4, 786400, Note_off_c, 2, 80, 67
4, 786432, Note_off_c, 2, 77, 67
4, 786432, Note_off_c, 2, 80, 67
4, 786432, Note_on_c, 2, 77, 67
4, 786432, Note_on_c, 2, 82, 67
4, 786496, Note_off_c, 2, 77, 67
4, 786496, Note_off_c, 2, 82, 67
4, 786560, Note_off_c, 2, 77, 67
4, 786560, Note_off_c, 2, 82, 67
4, 786560, Note_on_c, 2, 80, 67
4, 786560, Note_on_c, 2, 87, 67
4, 786624, Note_off_c, 2, 80, 67
4, 786624, Note_off_c, 2, 87, 67
4, 786688, Note_off_c, 2, 80, 67
4, 786688, Note_off_c, 2, 87, 67
4, 786688, Note_on_c, 2, 82, 67
4, 786688, Note_on_c, 2, 86, 67
4, 786752, Note_off_c, 2, 82, 67
4, 786752, Note_off_c, 2, 86, 67
4, 786816, Note_off_c, 2, 82, 67
4, 786816, Note_off_c, 2, 86, 67
4, 786816, Note_on_c, 2, 80, 67
4, 786816, Note_on_c, 2, 89, 67
4, 786880, Note_off_c, 2, 80, 67
4, 786880, Note_off_c, 2, 89, 67
4, 786944, Note_off_c, 2, 80, 67
4, 786944, Note_off_c, 2, 89, 67
4, 786944, Note_on_c, 2, 79, 67
4, 786944, Note_on_c, 2, 87, 67
4, 787008, Note_off_c, 2, 79, 67
4, 787008, Note_off_c, 2, 87, 67
4, 787072, Note_off_c, 2, 79, 67
4, 787072, Note_off_c, 2, 87, 67
4, 787072, Note_on_c, 2, 70, 67
4, 787072, Note_on_c, 2, 82, 67
4, 787136, Note_off_c, 2, 70, 67
4, 787136, Note_off_c, 2, 82, 67
4, 787200, Note_off_c, 2, 70, 67
4, 787200, Note_off_c, 2, 82, 67
4, 787200, Note_on_c, 2, 70, 67
4, 787200, Note_on_c, 2, 82, 67
4, 787264, Note_off_c, 2, 70, 67
4, 787264, Note_off_c, 2, 82, 67
4, 787328, Note_off_c, 2, 70, 67
4, 787328, Note_off_c, 2, 82, 67
4, 787328, Note_on_c, 2, 75, 67
4, 787392, Note_off_c, 2, 75, 67
4, 787392, Note_on_c, 2, 77, 67
4, 787456, Note_off_c, 2, 77, 67
4, 787456, Note_on_c, 2, 79, 67
4, 787520, Note_off_c, 2, 79, 67
4, 787584, Note_off_c, 2, 79, 67
4, 787584, Note_on_c, 2, 75, 67
4, 787584, Note_on_c, 2, 79, 67
4, 787648, Note_off_c, 2, 75, 67
4, 787648, Note_off_c, 2, 79, 67
4, 787712, Note_off_c, 2, 75, 67
4, 787712, Note_off_c, 2, 79, 67
4, 787712, Note_on_c, 2, 75, 67
4, 787712, Note_on_c, 2, 79, 67
4, 787776, Note_off_c, 2, 75, 67
4, 787776, Note_off_c, 2, 79, 67
4, 787840, Note_off_c, 2, 75, 67
4, 787840, Note_off_c, 2, 79, 67
4, 787840, Note_on_c, 2, 75, 67
4, 787904, Note_off_c, 2, 75, 67
4, 787904, Note_on_c, 2, 77, 67
4, 787968, Note_off_c, 2, 77, 67
4, 787968, Note_on_c, 2, 79, 67
4, 788032, Note_off_c, 2, 79, 67
4, 788096, Note_off_c, 2, 79, 67
4, 788096, Note_on_c, 2, 75, 67
4, 788096, Note_on_c, 2, 79, 67
4, 788160, Note_off_c, 2, 75, 67
4, 788160, Note_off_c, 2, 79, 67
4, 788224, Note_off_c, 2, 75, 67
4, 788224, Note_off_c, 2, 79, 67
4, 788224, Note_on_c, 2, 75, 67
4, 788224, Note_on_c, 2, 79, 67
4, 788288, Note_off_c, 2, 75, 67
4, 788288, Note_off_c, 2, 79, 67
4, 788352, Note_off_c, 2, 75, 67
4, 788352, Note_off_c, 2, 79, 67
4, 788352, Note_on_c, 2, 75, 67
4, 788416, Note_off_c, 2, 75, 67
4, 788416, Note_on_c, 2, 77, 67
4, 788480, Note_off_c, 2, 77, 67
4, 788480, Note_on_c, 2, 79, 67
4, 788544, Note_off_c, 2, 79, 67
4, 788608, Note_off_c, 2, 79, 67
4, 788608, Note_on_c, 2, 75, 67
4, 788608, Note_on_c, 2, 79, 67
4, 788672, Note_off_c, 2, 75, 67
4, 788672, Note_off_c, 2, 79, 67
4, 788736, Note_off_c, 2, 75, 67
4, 788736, Note_off_c, 2, 79, 67
4, 788736, Note_on_c, 2, 75, 67
4, 788736, Note_on_c, 2, 80, 67
4, 788768, Note_off_c, 2, 75, 67
4, 788768, Note_off_c, 2, 80, 67
4, 788800, Note_off_c, 2, 75, 67
4, 788800, Note_off_c, 2, 80, 67
4, 788800, Note_on_c, 2, 74, 67
4, 788832, Note_off_c, 2, 74, 67
4, 788864, Note_off_c, 2, 74, 67
4, 788864, Note_on_c, 2, 72, 67
4, 788896, Note_off_c, 2, 72, 67
4, 788928, Note_off_c, 2, 72, 67
4, 788928, Note_on_c, 2, 74, 67
4, 788928, Note_on_c, 2, 79, 67
4, 788960, Note_off_c, 2, 74, 67
4, 788960, Note_off_c, 2, 79, 67
4, 788992, Note_off_c, 2, 74, 67
4, 788992, Note_off_c, 2, 79, 67
4, 788992, Note_on_c, 2, 70, 67
4, 788992, Note_on_c, 2, 77, 67
4, 789056, Note_off_c, 2, 70, 67
4, 789056, Note_off_c, 2, 77, 67
4, 789120, Note_off_c, 2, 70, 67
4, 789120, Note_off_c, 2, 77, 67
4, 789120, Note_on_c, 2, 68, 67
4, 789120, Note_on_c, 2, 70, 67
4, 789184, Note_off_c, 2, 68, 67
4, 789184, Note_off_c, 2, 70, 67
4, 789248, Note_off_c, 2, 68, 67
4, 789248, Note_off_c, 2, 70, 67
4, 789248, Note_on_c, 2, 68, 67
4, 789248, Note_on_c, 2, 70, 67
4, 789312, Note_off_c, 2, 68, 67
4, 789312, Note_off_c, 2, 70, 67
4, 789376, Note_off_c, 2, 68, 67
4, 789376, Note_off_c, 2, 70, 67
4, 789376, Note_on_c, 2, 74, 67
4, 789440, Note_off_c, 2, 74, 67
4, 789440, Note_on_c, 2, 75, 67
4, 789504, Note_off_c, 2, 75, 67
4, 789504, Note_on_c, 2, 77, 67
4, 789568, Note_off_c, 2, 77, 67
4, 789632, Note_off_c, 2, 77, 67
4, 789632, Note_on_c, 2, 74, 67
4, 789632, Note_on_c, 2, 77, 67
4, 789696, Note_off_c, 2, 74, 67
4, 789696, Note_off_c, 2, 77, 67
4, 789760, Note_off_c, 2, 74, 67
4, 789760, Note_off_c, 2, 77, 67
4, 789760, Note_on_c, 2, 74, 67
4, 789760, Note_on_c, 2, 77, 67
4, 789824, Note_off_c, 2, 74, 67
4, 789824, Note_off_c, 2, 77, 67
4, 789888, Note_off_c, 2, 74, 67
4, 789888, Note_off_c, 2, 77, 67
4, 789888, Note_on_c, 2, 74, 67
4, 789952, Note_off_c, 2, 74, 67
4, 789952, Note_on_c, 2, 75, 67
4, 790016, Note_off_c, 2, 75, 67
4, 790016, Note_on_c, 2, 77, 67
4, 790080, Note_off_c, 2, 77, 67
4, 790144, Note_off_c, 2, 77, 67
4, 790144, Note_on_c, 2, 74, 67
4, 790144, Note_on_c, 2, 77, 67
4, 790208, Note_off_c, 2, 74, 67
4, 790208, Note_off_c, 2, 77, 67
4, 790272, Note_off_c, 2, 74, 67
4, 790272, Note_off_c, 2, 77, 67
4, 790272, Note_on_c, 2, 74, 67
4, 790272, Note_on_c, 2, 77, 67
4, 790336, Note_off_c, 2, 74, 67
4, 790336, Note_off_c, 2, 77, 67
4, 790400, Note_off_c, 2, 74, 67
4, 790400, Note_off_c, 2, 77, 67
4, 790400, Note_on_c, 2, 74, 67
4, 790464, Note_off_c, 2, 74, 67
4, 790464, Note_on_c, 2, 75, 67
4, 790528, Note_off_c, 2, 75, 67
4, 790528, Note_on_c, 2, 70, 67
4, 790528, Note_on_c, 2, 77, 67
4, 790592, Note_off_c, 2, 70, 67
4, 790592, Note_off_c, 2, 77, 67
4, 790656, Note_off_c, 2, 70, 67
4, 790656, Note_off_c, 2, 77, 67
4, 790656, Note_on_c, 2, 74, 67
4, 790656, Note_on_c, 2, 77, 67
4, 790720, Note_off_c, 2, 74, 67
4, 790720, Note_off_c, 2, 77, 67
4, 790784, Note_off_c, 2, 74, 67
4, 790784, Note_off_c, 2, 77, 67
4, 790784, Note_on_c, 2, 74, 67
4, 790784, Note_on_c, 2, 79, 67
4, 790816, Note_off_c, 2, 74, 67
4, 790816, Note_off_c, 2, 79, 67
4, 790848, Note_off_c, 2, 74, 67
4, 790848, Note_off_c, 2, 79, 67
4, 790848, Note_on_c, 2, 72, 67
4, 790848, Note_on_c, 2, 77, 67
4, 790880, Note_off_c, 2, 72, 67
4, 790880, Note_off_c, 2, 77, 67
4, 790912, Note_off_c, 2, 72, 67
4, 790912, Note_off_c, 2, 77, 67
4, 790912, Note_on_c, 2, 70, 67
4, 790912, Note_on_c, 2, 77, 67
4, 790944, Note_off_c, 2, 70, 67
4, 790944, Note_off_c, 2, 77, 67
4, 790976, Note_off_c, 2, 70, 67
4, 790976, Note_off_c, 2, 77, 67
4, 790976, Note_on_c, 2, 68, 67
4, 790976, Note_on_c, 2, 79, 67
4, 791008, Note_off_c, 2, 68, 67
4, 791008, Note_off_c, 2, 79, 67
4, 791040, Note_off_c, 2, 68, 67
4, 791040, Note_off_c, 2, 79, 67
4, 791040, Note_on_c, 2, 67, 67
4, 791040, Note_on_c, 2, 75, 67
4, 791104, Note_off_c, 2, 67, 67
4, 791104, Note_off_c, 2, 75, 67
4, 791168, Note_off_c, 2, 67, 67
4, 791168, Note_off_c, 2, 75, 67
4, 791168, Note_on_c, 2, 70, 67
4, 791232, Note_off_c, 2, 70, 67
4, 791296, Note_off_c, 2, 70, 67
4, 791296, Note_on_c, 2, 70, 67
4, 791296, Note_on_c, 2, 79, 67
4, 791360, Note_off_c, 2, 70, 67
4, 791360, Note_off_c, 2, 79, 67
4, 791424, Note_off_c, 2, 70, 67
4, 791424, Note_off_c, 2, 79, 67
4, 791424, Note_on_c, 2, 75, 67
4, 791488, Note_off_c, 2, 75, 67
4, 791488, Note_on_c, 2, 77, 67
4, 791552, Note_off_c, 2, 77, 67
4, 791552, Note_on_c, 2, 79, 67
4, 791616, Note_off_c, 2, 79, 67
4, 791680, Note_off_c, 2, 79, 67
4, 791680, Note_on_c, 2, 75, 67
4, 791680, Note_on_c, 2, 79, 67
4, 791744, Note_off_c, 2, 75, 67
4, 791744, Note_off_c, 2, 79, 67
4, 791808, Note_off_c, 2, 75, 67
4, 791808, Note_off_c, 2, 79, 67
4, 791808, Note_on_c, 2, 75, 67
4, 791808, Note_on_c, 2, 79, 67
4, 791872, Note_off_c, 2, 75, 67
4, 791872, Note_off_c, 2, 79, 67
4, 791936, Note_off_c, 2, 75, 67
4, 791936, Note_off_c, 2, 79, 67
4, 791936, Note_on_c, 2, 75, 67
4, 792000, Note_off_c, 2, 75, 67
4, 792000, Note_on_c, 2, 77, 67
4, 792064, Note_off_c, 2, 77, 67
4, 792064, Note_on_c, 2, 79, 67
4, 792128, Note_off_c, 2, 79, 67
4, 792192, Note_off_c, 2, 79, 67
4, 792192, Note_on_c, 2, 75, 67
4, 792192, Note_on_c, 2, 79, 67
4, 792256, Note_off_c, 2, 75, 67
4, 792256, Note_off_c, 2, 79, 67
4, 792320, Note_off_c, 2, 75, 67
4, 792320, Note_off_c, 2, 79, 67
4, 792320, Note_on_c, 2, 75, 67
4, 792320, Note_on_c, 2, 79, 67
4, 792384, Note_off_c, 2, 75, 67
4, 792384, Note_off_c, 2, 79, 67
4, 792448, Note_off_c, 2, 75, 67
4, 792448, Note_off_c, 2, 79, 67
4, 792448, Note_on_c, 2, 75, 67
4, 792512, Note_off_c, 2, 75, 67
4, 792512, Note_on_c, 2, 77, 67
4, 792576, Note_off_c, 2, 77, 67
4, 792576, Note_on_c, 2, 79, 67
4, 792640, Note_off_c, 2, 79, 67
4, 792704, Note_off_c, 2, 79, 67
4, 792704, Note_on_c, 2, 75, 67
4, 792704, Note_on_c, 2, 79, 67
4, 792768, Note_off_c, 2, 75, 67
4, 792768, Note_off_c, 2, 79, 67
4, 792832, Note_off_c, 2, 75, 67
4, 792832, Note_off_c, 2, 79, 67
4, 792832, Note_on_c, 2, 75, 67
4, 792832, Note_on_c, 2, 80, 67
4, 792864, Note_off_c, 2, 75, 67
4, 792864, Note_off_c, 2, 80, 67
4, 792896, Note_off_c, 2, 75, 67
4, 792896, Note_off_c, 2, 80, 67
4, 792896, Note_on_c, 2, 74, 67
4, 792960, Note_off_c, 2, 74, 67
4, 792960, Note_on_c, 2, 72, 67
4, 793024, Note_off_c, 2, 72, 67
4, 793024, Note_on_c, 2, 74, 67
4, 793024, Note_on_c, 2, 79, 67
4, 793056, Note_off_c, 2, 74, 67
4, 793056, Note_off_c, 2, 79, 67
4, 793088, Note_off_c, 2, 74, 67
4, 793088, Note_off_c, 2, 79, 67
4, 793088, Note_on_c, 2, 70, 67
4, 793088, Note_on_c, 2, 77, 67
4, 793152, Note_off_c, 2, 70, 67
4, 793152, Note_off_c, 2, 77, 67
4, 793216, Note_off_c, 2, 70, 67
4, 793216, Note_off_c, 2, 77, 67
4, 793216, Note_on_c, 2, 68, 67
4, 793216, Note_on_c, 2, 70, 67
4, 793280, Note_off_c, 2, 68, 67
4, 793280, Note_off_c, 2, 70, 67
4, 793344, Note_off_c, 2, 68, 67
4, 793344, Note_off_c, 2, 70, 67
4, 793344, Note_on_c, 2, 68, 67
4, 793344, Note_on_c, 2, 70, 67
4, 793408, Note_off_c, 2, 68, 67
4, 793408, Note_off_c, 2, 70, 67
4, 793472, Note_off_c, 2, 68, 67
4, 793472, Note_off_c, 2, 70, 67
4, 793472, Note_on_c, 2, 74, 67
4, 793536, Note_off_c, 2, 74, 67
4, 793536, Note_on_c, 2, 75, 67
4, 793600, Note_off_c, 2, 75, 67
4, 793600, Note_on_c, 2, 77, 67
4, 793728, Note_off_c, 2, 77, 67
4, 793728, Note_on_c, 2, 74, 67
4, 793728, Note_on_c, 2, 80, 67
4, 793792, Note_off_c, 2, 74, 67
4, 793792, Note_off_c, 2, 80, 67
4, 793856, Note_off_c, 2, 74, 67
4, 793856, Note_off_c, 2, 80, 67
4, 793856, Note_on_c, 2, 74, 67
4, 793856, Note_on_c, 2, 79, 67
4, 793920, Note_off_c, 2, 74, 67
4, 793920, Note_off_c, 2, 79, 67
4, 793984, Note_off_c, 2, 74, 67
4, 793984, Note_off_c, 2, 79, 67
4, 793984, Note_on_c, 2, 77, 67
4, 794048, Note_off_c, 2, 77, 67
4, 794112, Note_off_c, 2, 77, 67
4, 794112, Note_on_c, 2, 75, 67
4, 794176, Note_off_c, 2, 75, 67
4, 794240, Note_off_c, 2, 75, 67
4, 794240, Note_on_c, 2, 70, 67
4, 794240, Note_on_c, 2, 74, 67
4, 794304, Note_off_c, 2, 70, 67
4, 794304, Note_off_c, 2, 74, 67
4, 794368, Note_off_c, 2, 70, 67
4, 794368, Note_off_c, 2, 74, 67
4, 794368, Note_on_c, 2, 72, 67
4, 794368, Note_on_c, 2, 74, 67
4, 794432, Note_off_c, 2, 72, 67
4, 794432, Note_off_c, 2, 74, 67
4, 794496, Note_off_c, 2, 72, 67
4, 794496, Note_off_c, 2, 74, 67
4, 794496, Note_on_c, 2, 70, 67
4, 794496, Note_on_c, 2, 74, 67
4, 794560, Note_off_c, 2, 70, 67
4, 794560, Note_off_c, 2, 74, 67
4, 794624, Note_off_c, 2, 70, 67
4, 794624, Note_off_c, 2, 74, 67
4, 794624, Note_on_c, 2, 80, 67
4, 794624, Note_on_c, 2, 84, 67
4, 794880, Note_off_c, 2, 80, 67
4, 794880, Note_off_c, 2, 84, 67
4, 794880, Note_on_c, 2, 70, 67
4, 794880, Note_on_c, 2, 74, 67
4, 794896, Note_off_c, 2, 70, 67
4, 794896, Note_off_c, 2, 74, 67
4, 794912, Note_off_c, 2, 70, 67
4, 794912, Note_off_c, 2, 74, 67
4, 794912, Note_on_c, 2, 72, 67
4, 794912, Note_on_c, 2, 75, 67
4, 794928, Note_off_c, 2, 72, 67
4, 794928, Note_off_c, 2, 75, 67
4, 794944, Note_off_c, 2, 72, 67
4, 794944, Note_off_c, 2, 75, 67
4, 794944, Note_on_c, 2, 70, 67
4, 794944, Note_on_c, 2, 74, 67
4, 794976, Note_off_c, 2, 70, 67
4, 794976, Note_off_c, 2, 74, 67
4, 795008, Note_off_c, 2, 70, 67
4, 795008, Note_off_c, 2, 74, 67
4, 795008, Note_on_c, 2, 68, 67
4, 795008, Note_on_c, 2, 72, 67
4, 795040, Note_off_c, 2, 68, 67
4, 795040, Note_off_c, 2, 72, 67
4, 795072, Note_off_c, 2, 68, 67
4, 795072, Note_off_c, 2, 72, 67
4, 795072, Note_on_c, 2, 74, 67
4, 795072, Note_on_c, 2, 77, 67
4, 795104, Note_off_c, 2, 74, 67
4, 795104, Note_off_c, 2, 77, 67
4, 795136, Note_off_c, 2, 74, 67
4, 795136, Note_off_c, 2, 77, 67
4, 795136, Note_on_c, 2, 75, 67
4, 795136, Note_on_c, 2, 79, 67
4, 795264, Note_off_c, 2, 75, 67
4, 795264, Note_off_c, 2, 79, 67
4, 795264, Note_on_c, 2, 70, 67
4, 795328, Note_off_c, 2, 70, 67
4, 795392, Note_off_c, 2, 70, 67
4, 795392, Note_on_c, 2, 70, 67
4, 795456, Note_off_c, 2, 70, 67
4, 795520, Note_off_c, 2, 70, 67
4, 795520, Note_on_c, 2, 75, 67
4, 795520, Note_on_c, 2, 79, 67
4, 795584, Note_off_c, 2, 75, 67
4, 795584, Note_off_c, 2, 79, 67
4, 795584, Note_on_c, 2, 77, 67
4, 795584, Note_on_c, 2, 80, 67
4, 795648, Note_off_c, 2, 77, 67
4, 795648, Note_off_c, 2, 80, 67
4, 795648, Note_on_c, 2, 79, 67
4, 795648, Note_on_c, 2, 82, 67
4, 795712, Note_off_c, 2, 79, 67
4, 795712, Note_off_c, 2, 82, 67
4, 795776, Note_off_c, 2, 79, 67
4, 795776, Note_off_c, 2, 82, 67
4, 795776, Note_on_c, 2, 79, 67
4, 795776, Note_on_c, 2, 82, 67
4, 795840, Note_off_c, 2, 79, 67
4, 795840, Note_off_c, 2, 82, 67
4, 795904, Note_off_c, 2, 79, 67
4, 795904, Note_off_c, 2, 82, 67
4, 795904, Note_on_c, 2, 70, 67
4, 795904, Note_on_c, 2, 79, 67
4, 795968, Note_off_c, 2, 70, 67
4, 795968, Note_off_c, 2, 79, 67
4, 796032, Note_off_c, 2, 70, 67
4, 796032, Note_off_c, 2, 79, 67
4, 796032, Note_on_c, 2, 70, 67
4, 796032, Note_on_c, 2, 75, 67
4, 796096, Note_off_c, 2, 70, 67
4, 796096, Note_off_c, 2, 75, 67
4, 796160, Note_off_c, 2, 70, 67
4, 796160, Note_off_c, 2, 75, 67
4, 796160, Note_on_c, 2, 84, 67
4, 796160, Note_on_c, 2, 87, 67
4, 796224, Note_off_c, 2, 84, 67
4, 796224, Note_off_c, 2, 87, 67
4, 796288, Note_off_c, 2, 84, 67
4, 796288, Note_off_c, 2, 87, 67
4, 796288, Note_on_c, 2, 82, 67
4, 796288, Note_on_c, 2, 86, 67
4, 796352, Note_off_c, 2, 82, 67
4, 796352, Note_off_c, 2, 86, 67
4, 796416, Note_off_c, 2, 82, 67
4, 796416, Note_off_c, 2, 86, 67
4, 796416, Note_on_c, 2, 80, 67
4, 796416, Note_on_c, 2, 84, 67
4, 796480, Note_off_c, 2, 80, 67
4, 796480, Note_off_c, 2, 84, 67
4, 796544, Note_off_c, 2, 80, 67
4, 796544, Note_off_c, 2, 84, 67
4, 796544, Note_on_c, 2, 79, 67
4, 796544, Note_on_c, 2, 87, 67
4, 796608, Note_off_c, 2, 79, 67
4, 796608, Note_off_c, 2, 87, 67
4, 796672, Note_off_c, 2, 79, 67
4, 796672, Note_off_c, 2, 87, 67
4, 796672, Note_on_c, 2, 75, 67
4, 796672, Note_on_c, 2, 82, 67
4, 796736, Note_off_c, 2, 75, 67
4, 796736, Note_off_c, 2, 82, 67
4, 796800, Note_off_c, 2, 75, 67
4, 796800, Note_off_c, 2, 82, 67
4, 796800, Note_on_c, 2, 79, 67
4, 796864, Note_off_c, 2, 79, 67
4, 796928, Note_off_c, 2, 79, 67
4, 796928, Note_on_c, 2, 67, 67
4, 796928, Note_on_c, 2, 75, 67
4, 796992, Note_off_c, 2, 67, 67
4, 796992, Note_off_c, 2, 75, 67
4, 797056, Note_off_c, 2, 67, 67
4, 797056, Note_off_c, 2, 75, 67
4, 797056, Note_on_c, 2, 68, 67
4, 797056, Note_on_c, 2, 74, 67
4, 797088, Note_off_c, 2, 68, 67
4, 797088, Note_off_c, 2, 74, 67
4, 797120, Note_off_c, 2, 68, 67
4, 797120, Note_off_c, 2, 74, 67
4, 797120, Note_on_c, 2, 74, 67
4, 797120, Note_on_c, 2, 79, 67
4, 797152, Note_off_c, 2, 74, 67
4, 797152, Note_off_c, 2, 79, 67
4, 797184, Note_off_c, 2, 74, 67
4, 797184, Note_off_c, 2, 79, 67
4, 797184, Note_on_c, 2, 70, 67
4, 797184, Note_on_c, 2, 77, 67
4, 797248, Note_off_c, 2, 70, 67
4, 797248, Note_off_c, 2, 77, 67
4, 797312, Note_off_c, 2, 70, 67
4, 797312, Note_off_c, 2, 77, 67
4, 797312, Note_on_c, 2, 65, 67
4, 797312, Note_on_c, 2, 70, 67
4, 797376, Note_off_c, 2, 65, 67
4, 797376, Note_off_c, 2, 70, 67
4, 797440, Note_off_c, 2, 65, 67
4, 797440, Note_off_c, 2, 70, 67
4, 797440, Note_on_c, 2, 68, 67
4, 797440, Note_on_c, 2, 70, 67
4, 797504, Note_off_c, 2, 68, 67
4, 797504, Note_off_c, 2, 70, 67
4, 797568, Note_off_c, 2, 68, 67
4, 797568, Note_off_c, 2, 70, 67
4, 797568, Note_on_c, 2, 70, 67
4, 797568, Note_on_c, 2, 79, 67
4, 797632, Note_off_c, 2, 70, 67
4, 797632, Note_off_c, 2, 79, 67
4, 797632, Note_on_c, 2, 77, 67
4, 797632, Note_on_c, 2, 80, 67
4, 797696, Note_off_c, 2, 77, 67
4, 797696, Note_off_c, 2, 80, 67
4, 797696, Note_on_c, 2, 79, 67
4, 797696, Note_on_c, 2, 82, 67
4, 797760, Note_off_c, 2, 79, 67
4, 797760, Note_off_c, 2, 82, 67
4, 797824, Note_off_c, 2, 79, 67
4, 797824, Note_off_c, 2, 82, 67
4, 797824, Note_on_c, 2, 79, 67
4, 797824, Note_on_c, 2, 82, 67
4, 797888, Note_off_c, 2, 79, 67
4, 797888, Note_off_c, 2, 82, 67
4, 797952, Note_off_c, 2, 79, 67
4, 797952, Note_off_c, 2, 82, 67
4, 797952, Note_on_c, 2, 70, 67
4, 797952, Note_on_c, 2, 79, 67
4, 798016, Note_off_c, 2, 70, 67
4, 798016, Note_off_c, 2, 79, 67
4, 798080, Note_off_c, 2, 70, 67
4, 798080, Note_off_c, 2, 79, 67
4, 798080, Note_on_c, 2, 75, 67
4, 798080, Note_on_c, 2, 82, 67
4, 798144, Note_off_c, 2, 75, 67
4, 798144, Note_off_c, 2, 82, 67
4, 798208, Note_off_c, 2, 75, 67
4, 798208, Note_off_c, 2, 82, 67
4, 798208, Note_on_c, 2, 84, 67
4, 798208, Note_on_c, 2, 87, 67
4, 798272, Note_off_c, 2, 84, 67
4, 798272, Note_off_c, 2, 87, 67
4, 798336, Note_off_c, 2, 84, 67
4, 798336, Note_off_c, 2, 87, 67
4, 798336, Note_on_c, 2, 82, 67
4, 798336, Note_on_c, 2, 86, 67
4, 798400, Note_off_c, 2, 82, 67
4, 798400, Note_off_c, 2, 86, 67
4, 798464, Note_off_c, 2, 82, 67
4, 798464, Note_off_c, 2, 86, 67
4, 798464, Note_on_c, 2, 80, 67
4, 798464, Note_on_c, 2, 84, 67
4, 798528, Note_off_c, 2, 80, 67
4, 798528, Note_off_c, 2, 84, 67
4, 798592, Note_off_c, 2, 80, 67
4, 798592, Note_off_c, 2, 84, 67
4, 798592, Note_on_c, 2, 70, 67
4, 798592, Note_on_c, 2, 74, 67
4, 798624, Note_off_c, 2, 70, 67
4, 798624, Note_off_c, 2, 74, 67
4, 798656, Note_off_c, 2, 70, 67
4, 798656, Note_off_c, 2, 74, 67
4, 798656, Note_on_c, 2, 77, 67
4, 798656, Note_on_c, 2, 80, 67
4, 798688, Note_off_c, 2, 77, 67
4, 798688, Note_off_c, 2, 80, 67
4, 798720, Note_off_c, 2, 77, 67
4, 798720, Note_off_c, 2, 80, 67
4, 798720, Note_on_c, 2, 77, 67
4, 798720, Note_on_c, 2, 82, 67
4, 798784, Note_off_c, 2, 77, 67
4, 798784, Note_off_c, 2, 82, 67
4, 798848, Note_off_c, 2, 77, 67
4, 798848, Note_off_c, 2, 82, 67
4, 798848, Note_on_c, 2, 80, 67
4, 798848, Note_on_c, 2, 87, 67
4, 798912, Note_off_c, 2, 80, 67
4, 798912, Note_off_c, 2, 87, 67
4, 798976, Note_off_c, 2, 80, 67
4, 798976, Note_off_c, 2, 87, 67
4, 798976, Note_on_c, 2, 82, 67
4, 798976, Note_on_c, 2, 86, 67
4, 799040, Note_off_c, 2, 82, 67
4, 799040, Note_off_c, 2, 86, 67
4, 799104, Note_off_c, 2, 82, 67
4, 799104, Note_off_c, 2, 86, 67
4, 799104, Note_on_c, 2, 80, 67
4, 799104, Note_on_c, 2, 89, 67
4, 799168, Note_off_c, 2, 80, 67
4, 799168, Note_off_c, 2, 89, 67
4, 799232, Note_off_c, 2, 80, 67
4, 799232, Note_off_c, 2, 89, 67
4, 799232, Note_on_c, 2, 79, 67
4, 799232, Note_on_c, 2, 87, 67
4, 799296, Note_off_c, 2, 79, 67
4, 799296, Note_off_c, 2, 87, 67
4, 799360, Note_off_c, 2, 79, 67
4, 799360, Note_off_c, 2, 87, 67
4, 799360, Note_on_c, 2, 70, 67
4, 799360, Note_on_c, 2, 82, 67
4, 799424, Note_off_c, 2, 70, 67
4, 799424, Note_off_c, 2, 82, 67
4, 799488, Note_off_c, 2, 70, 67
4, 799488, Note_off_c, 2, 82, 67
4, 799488, Note_on_c, 2, 70, 67
4, 799488, Note_on_c, 2, 82, 67
4, 799552, Note_off_c, 2, 70, 67
4, 799552, Note_off_c, 2, 82, 67
4, 799616, Note_off_c, 2, 70, 67
4, 799616, Note_off_c, 2, 82, 67
4, 799616, Note_on_c, 2, 75, 67
4, 799680, Note_off_c, 2, 75, 67
4, 799680, Note_on_c, 2, 77, 67
4, 799744, Note_off_c, 2, 77, 67
4, 799744, Note_on_c, 2, 79, 67
4, 799808, Note_off_c, 2, 79, 67
4, 799872, Note_off_c, 2, 79, 67
4, 799872, Note_on_c, 2, 75, 67
4, 799872, Note_on_c, 2, 79, 67
4, 799936, Note_off_c, 2, 75, 67
4, 799936, Note_off_c, 2, 79, 67
4, 800000, Note_off_c, 2, 75, 67
4, 800000, Note_off_c, 2, 79, 67
4, 800000, Note_on_c, 2, 75, 67
4, 800000, Note_on_c, 2, 79, 67
4, 800064, Note_off_c, 2, 75, 67
4, 800064, Note_off_c, 2, 79, 67
4, 800128, Note_off_c, 2, 75, 67
4, 800128, Note_off_c, 2, 79, 67
4, 800128, Note_on_c, 2, 75, 67
4, 800192, Note_off_c, 2, 75, 67
4, 800192, Note_on_c, 2, 77, 67
4, 800256, Note_off_c, 2, 77, 67
4, 800256, Note_on_c, 2, 79, 67
4, 800320, Note_off_c, 2, 79, 67
4, 800384, Note_off_c, 2, 79, 67
4, 800384, Note_on_c, 2, 75, 67
4, 800384, Note_on_c, 2, 79, 67
4, 800448, Note_off_c, 2, 75, 67
4, 800448, Note_off_c, 2, 79, 67
4, 800512, Note_off_c, 2, 75, 67
4, 800512, Note_off_c, 2, 79, 67
4, 800512, Note_on_c, 2, 75, 67
4, 800512, Note_on_c, 2, 79, 67
4, 800576, Note_off_c, 2, 75, 67
4, 800576, Note_off_c, 2, 79, 67
4, 800640, Note_off_c, 2, 75, 67
4, 800640, Note_off_c, 2, 79, 67
4, 800640, Note_on_c, 2, 75, 67
4, 800704, Note_off_c, 2, 75, 67
4, 800704, Note_on_c, 2, 77, 67
4, 800768, Note_off_c, 2, 77, 67
4, 800768, Note_on_c, 2, 79, 67
4, 800832, Note_off_c, 2, 79, 67
4, 800896, Note_off_c, 2, 79, 67
4, 800896, Note_on_c, 2, 75, 67
4, 800896, Note_on_c, 2, 79, 67
4, 800960, Note_off_c, 2, 75, 67
4, 800960, Note_off_c, 2, 79, 67
4, 801024, Note_off_c, 2, 75, 67
4, 801024, Note_off_c, 2, 79, 67
4, 801024, Note_on_c, 2, 75, 67
4, 801024, Note_on_c, 2, 80, 67
4, 801056, Note_off_c, 2, 75, 67
4, 801056, Note_off_c, 2, 80, 67
4, 801088, Note_off_c, 2, 75, 67
4, 801088, Note_off_c, 2, 80, 67
4, 801088, Note_on_c, 2, 74, 67
4, 801120, Note_off_c, 2, 74, 67
4, 801152, Note_off_c, 2, 74, 67
4, 801152, Note_on_c, 2, 72, 67
4, 801184, Note_off_c, 2, 72, 67
4, 801216, Note_off_c, 2, 72, 67
4, 801216, Note_on_c, 2, 74, 67
4, 801216, Note_on_c, 2, 79, 67
4, 801248, Note_off_c, 2, 74, 67
4, 801248, Note_off_c, 2, 79, 67
4, 801280, Note_off_c, 2, 74, 67
4, 801280, Note_off_c, 2, 79, 67
4, 801280, Note_on_c, 2, 70, 67
4, 801280, Note_on_c, 2, 77, 67
4, 801344, Note_off_c, 2, 70, 67
4, 801344, Note_off_c, 2, 77, 67
4, 801408, Note_off_c, 2, 70, 67
4, 801408, Note_off_c, 2, 77, 67
4, 801408, Note_on_c, 2, 68, 67
4, 801408, Note_on_c, 2, 70, 67
4, 801472, Note_off_c, 2, 68, 67
4, 801472, Note_off_c, 2, 70, 67
4, 801536, Note_off_c, 2, 68, 67
4, 801536, Note_off_c, 2, 70, 67
4, 801536, Note_on_c, 2, 68, 67
4, 801536, Note_on_c, 2, 70, 67
4, 801600, Note_off_c, 2, 68, 67
4, 801600, Note_off_c, 2, 70, 67
4, 801664, Note_off_c, 2, 68, 67
4, 801664, Note_off_c, 2, 70, 67
4, 801664, Note_on_c, 2, 74, 67
4, 801728, Note_off_c, 2, 74, 67
4, 801728, Note_on_c, 2, 75, 67
4, 801792, Note_off_c, 2, 75, 67
4, 801792, Note_on_c, 2, 77, 67
4, 801856, Note_off_c, 2, 77, 67
4, 801920, Note_off_c, 2, 77, 67
4, 801920, Note_on_c, 2, 74, 67
4, 801920, Note_on_c, 2, 77, 67
4, 801984, Note_off_c, 2, 74, 67
4, 801984, Note_off_c, 2, 77, 67
4, 802048, Note_off_c, 2, 74, 67
4, 802048, Note_off_c, 2, 77, 67
4, 802048, Note_on_c, 2, 74, 67
4, 802048, Note_on_c, 2, 77, 67
4, 802112, Note_off_c, 2, 74, 67
4, 802112, Note_off_c, 2, 77, 67
4, 802176, Note_off_c, 2, 74, 67
4, 802176, Note_off_c, 2, 77, 67
4, 802176, Note_on_c, 2, 74, 67
4, 802240, Note_off_c, 2, 74, 67
4, 802240, Note_on_c, 2, 75, 67
4, 802304, Note_off_c, 2, 75, 67
4, 802304, Note_on_c, 2, 77, 67
4, 802368, Note_off_c, 2, 77, 67
4, 802432, Note_off_c, 2, 77, 67
4, 802432, Note_on_c, 2, 74, 67
4, 802432, Note_on_c, 2, 77, 67
4, 802496, Note_off_c, 2, 74, 67
4, 802496, Note_off_c, 2, 77, 67
4, 802560, Note_off_c, 2, 74, 67
4, 802560, Note_off_c, 2, 77, 67
4, 802560, Note_on_c, 2, 74, 67
4, 802560, Note_on_c, 2, 77, 67
4, 802624, Note_off_c, 2, 74, 67
4, 802624, Note_off_c, 2, 77, 67
4, 802688, Note_off_c, 2, 74, 67
4, 802688, Note_off_c, 2, 77, 67
4, 802688, Note_on_c, 2, 74, 67
4, 802752, Note_off_c, 2, 74, 67
4, 802752, Note_on_c, 2, 75, 67
4, 802816, Note_off_c, 2, 75, 67
4, 802816, Note_on_c, 2, 70, 67
4, 802816, Note_on_c, 2, 77, 67
4, 802880, Note_off_c, 2, 70, 67
4, 802880, Note_off_c, 2, 77, 67
4, 802944, Note_off_c, 2, 70, 67
4, 802944, Note_off_c, 2, 77, 67
4, 802944, Note_on_c, 2, 74, 67
4, 802944, Note_on_c, 2, 77, 67
4, 803008, Note_off_c, 2, 74, 67
4, 803008, Note_off_c, 2, 77, 67
4, 803072, Note_off_c, 2, 74, 67
4, 803072, Note_off_c, 2, 77, 67
4, 803072, Note_on_c, 2, 74, 67
4, 803072, Note_on_c, 2, 79, 67
4, 803104, Note_off_c, 2, 74, 67
4, 803104, Note_off_c, 2, 79, 67
4, 803136, Note_off_c, 2, 74, 67
4, 803136, Note_off_c, 2, 79, 67
4, 803136, Note_on_c, 2, 72, 67
4, 803136, Note_on_c, 2, 77, 67
4, 803168, Note_off_c, 2, 72, 67
4, 803168, Note_off_c, 2, 77, 67
4, 803200, Note_off_c, 2, 72, 67
4, 803200, Note_off_c, 2, 77, 67
4, 803200, Note_on_c, 2, 70, 67
4, 803200, Note_on_c, 2, 77, 67
4, 803232, Note_off_c, 2, 70, 67
4, 803232, Note_off_c, 2, 77, 67
4, 803264, Note_off_c, 2, 70, 67
4, 803264, Note_off_c, 2, 77, 67
4, 803264, Note_on_c, 2, 68, 67
4, 803264, Note_on_c, 2, 79, 67
4, 803296, Note_off_c, 2, 68, 67
4, 803296, Note_off_c, 2, 79, 67
4, 803328, Note_off_c, 2, 68, 67
4, 803328, Note_off_c, 2, 79, 67
4, 803328, Note_on_c, 2, 67, 67
4, 803328, Note_on_c, 2, 75, 67
4, 803392, Note_off_c, 2, 67, 67
4, 803392, Note_off_c, 2, 75, 67
4, 803456, Note_off_c, 2, 67, 67
4, 803456, Note_off_c, 2, 75, 67
4, 803456, Note_on_c, 2, 70, 67
4, 803520, Note_off_c, 2, 70, 67
4, 803584, Note_off_c, 2, 70, 67
4, 803584, Note_on_c, 2, 70, 67
4, 803584, Note_on_c, 2, 79, 67
4, 803648, Note_off_c, 2, 70, 67
4, 803648, Note_off_c, 2, 79, 67
4, 803712, Note_off_c, 2, 70, 67
4, 803712, Note_off_c, 2, 79, 67
4, 803712, Note_on_c, 2, 75, 67
4, 803776, Note_off_c, 2, 75, 67
4, 803776, Note_on_c, 2, 77, 67
4, 803840, Note_off_c, 2, 77, 67
4, 803840, Note_on_c, 2, 79, 67
4, 803904, Note_off_c, 2, 79, 67
4, 803968, Note_off_c, 2, 79, 67
4, 803968, Note_on_c, 2, 75, 67
4, 803968, Note_on_c, 2, 79, 67
4, 804032, Note_off_c, 2, 75, 67
4, 804032, Note_off_c, 2, 79, 67
4, 804096, Note_off_c, 2, 75, 67
4, 804096, Note_off_c, 2, 79, 67
4, 804096, Note_on_c, 2, 75, 67
4, 804096, Note_on_c, 2, 79, 67
4, 804160, Note_off_c, 2, 75, 67
4, 804160, Note_off_c, 2, 79, 67
4, 804224, Note_off_c, 2, 75, 67
4, 804224, Note_off_c, 2, 79, 67
4, 804224, Note_on_c, 2, 75, 67
4, 804288, Note_off_c, 2, 75, 67
4, 804288, Note_on_c, 2, 77, 67
4, 804352, Note_off_c, 2, 77, 67
4, 804352, Note_on_c, 2, 79, 67
4, 804416, Note_off_c, 2, 79, 67
4, 804480, Note_off_c, 2, 79, 67
4, 804480, Note_on_c, 2, 75, 67
4, 804480, Note_on_c, 2, 79, 67
4, 804544, Note_off_c, 2, 75, 67
4, 804544, Note_off_c, 2, 79, 67
4, 804608, Note_off_c, 2, 75, 67
4, 804608, Note_off_c, 2, 79, 67
4, 804608, Note_on_c, 2, 75, 67
4, 804608, Note_on_c, 2, 79, 67
4, 804672, Note_off_c, 2, 75, 67
4, 804672, Note_off_c, 2, 79, 67
4, 804736, Note_off_c, 2, 75, 67
4, 804736, Note_off_c, 2, 79, 67
4, 804736, Note_on_c, 2, 75, 67
4, 804800, Note_off_c, 2, 75, 67
4, 804800, Note_on_c, 2, 77, 67
4, 804864, Note_off_c, 2, 77, 67
4, 804864, Note_on_c, 2, 79, 67
4, 804928, Note_off_c, 2, 79, 67
4, 804992, Note_off_c, 2, 79, 67
4, 804992, Note_on_c, 2, 75, 67
4, 804992, Note_on_c, 2, 79, 67
4, 805056, Note_off_c, 2, 75, 67
4, 805056, Note_off_c, 2, 79, 67
4, 805120, Note_off_c, 2, 75, 67
4, 805120, Note_off_c, 2, 79, 67
4, 805120, Note_on_c, 2, 75, 67
4, 805120, Note_on_c, 2, 80, 67
4, 805152, Note_off_c, 2, 75, 67
4, 805152, Note_off_c, 2, 80, 67
4, 805184, Note_off_c, 2, 75, 67
4, 805184, Note_off_c, 2, 80, 67
4, 805184, Note_on_c, 2, 74, 67
4, 805248, Note_off_c, 2, 74, 67
4, 805248, Note_on_c, 2, 72, 67
4, 805312, Note_off_c, 2, 72, 67
4, 805312, Note_on_c, 2, 74, 67
4, 805312, Note_on_c, 2, 79, 67
4, 805344, Note_off_c, 2, 74, 67
4, 805344, Note_off_c, 2, 79, 67
4, 805376, Note_off_c, 2, 74, 67
4, 805376, Note_off_c, 2, 79, 67
4, 805376, Note_on_c, 2, 70, 67
4, 805376, Note_on_c, 2, 77, 67
4, 805440, Note_off_c, 2, 70, 67
4, 805440, Note_off_c, 2, 77, 67
4, 805504, Note_off_c, 2, 70, 67
4, 805504, Note_off_c, 2, 77, 67
4, 805504, Note_on_c, 2, 68, 67
4, 805504, Note_on_c, 2, 70, 67
4, 805568, Note_off_c, 2, 68, 67
4, 805568, Note_off_c, 2, 70, 67
4, 805632, Note_off_c, 2, 68, 67
4, 805632, Note_off_c, 2, 70, 67
4, 805632, Note_on_c, 2, 68, 67
4, 805632, Note_on_c, 2, 70, 67
4, 805696, Note_off_c, 2, 68, 67
4, 805696, Note_off_c, 2, 70, 67
4, 805760, Note_off_c, 2, 68, 67
4, 805760, Note_off_c, 2, 70, 67
4, 805760, Note_on_c, 2, 74, 67
4, 805824, Note_off_c, 2, 74, 67
4, 805824, Note_on_c, 2, 75, 67
4, 805888, Note_off_c, 2, 75, 67
4, 805888, Note_on_c, 2, 77, 67
4, 806016, Note_off_c, 2, 77, 67
4, 806016, Note_on_c, 2, 74, 67
4, 806016, Note_on_c, 2, 80, 67
4, 806080, Note_off_c, 2, 74, 67
4, 806080, Note_off_c, 2, 80, 67
4, 806144, Note_off_c, 2, 74, 67
4, 806144, Note_off_c, 2, 80, 67
4, 806144, Note_on_c, 2, 74, 67
4, 806144, Note_on_c, 2, 79, 67
4, 806208, Note_off_c, 2, 74, 67
4, 806208, Note_off_c, 2, 79, 67
4, 806272, Note_off_c, 2, 74, 67
4, 806272, Note_off_c, 2, 79, 67
4, 806272, Note_on_c, 2, 77, 67
4, 806336, Note_off_c, 2, 77, 67
4, 806400, Note_off_c, 2, 77, 67
4, 806400, Note_on_c, 2, 75, 67
4, 806464, Note_off_c, 2, 75, 67
4, 806528, Note_off_c, 2, 75, 67
4, 806528, Note_on_c, 2, 70, 67
4, 806528, Note_on_c, 2, 74, 67
4, 806592, Note_off_c, 2, 70, 67
4, 806592, Note_off_c, 2, 74, 67
4, 806656, Note_off_c, 2, 70, 67
4, 806656, Note_off_c, 2, 74, 67
4, 806656, Note_on_c, 2, 72, 67
4, 806656, Note_on_c, 2, 74, 67
4, 806720, Note_off_c, 2, 72, 67
4, 806720, Note_off_c, 2, 74, 67
4, 806784, Note_off_c, 2, 72, 67
4, 806784, Note_off_c, 2, 74, 67
4, 806784, Note_on_c, 2, 70, 67
4, 806784, Note_on_c, 2, 74, 67
4, 806848, Note_off_c, 2, 70, 67
4, 806848, Note_off_c, 2, 74, 67
4, 806912, Note_off_c, 2, 70, 67
4, 806912, Note_off_c, 2, 74, 67
4, 806912, Note_on_c, 2, 80, 67
4, 806912, Note_on_c, 2, 84, 67
4, 807168, Note_off_c, 2, 80, 67
4, 807168, Note_off_c, 2, 84, 67
4, 807168, Note_on_c, 2, 70, 67
4, 807168, Note_on_c, 2, 74, 67
4, 807184, Note_off_c, 2, 70, 67
4, 807184, Note_off_c, 2, 74, 67
4, 807200, Note_off_c, 2, 70, 67
4, 807200, Note_off_c, 2, 74, 67
4, 807200, Note_on_c, 2, 72, 67
4, 807200, Note_on_c, 2, 75, 67
4, 807216, Note_off_c, 2, 72, 67
4, 807216, Note_off_c, 2, 75, 67
4, 807232, Note_off_c, 2, 72, 67
4, 807232, Note_off_c, 2, 75, 67
4, 807232, Note_on_c, 2, 70, 67
4, 807232, Note_on_c, 2, 74, 67
4, 807264, Note_off_c, 2, 70, 67
4, 807264, Note_off_c, 2, 74, 67
4, 807296, Note_off_c, 2, 70, 67
4, 807296, Note_off_c, 2, 74, 67
4, 807296, Note_on_c, 2, 68, 67
4, 807296, Note_on_c, 2, 72, 67
4, 807328, Note_off_c, 2, 68, 67
4, 807328, Note_off_c, 2, 72, 67
4, 807360, Note_off_c, 2, 68, 67
4, 807360, Note_off_c, 2, 72, 67
4, 807360, Note_on_c, 2, 74, 67
4, 807360, Note_on_c, 2, 77, 67
4, 807392, Note_off_c, 2, 74, 67
4, 807392, Note_off_c, 2, 77, 67
4, 807424, Note_off_c, 2, 74, 67
4, 807424, Note_off_c, 2, 77, 67
4, 807424, Note_on_c, 2, 75, 67
4, 807424, Note_on_c, 2, 79, 67
4, 807552, Note_off_c, 2, 75, 67
4, 807552, Note_off_c, 2, 79, 67
4, 807552, Note_on_c, 2, 70, 67
4, 807616, Note_off_c, 2, 70, 67
4, 807680, Note_off_c, 2, 70, 67
4, 807680, Note_on_c, 2, 70, 67
4, 807744, Note_off_c, 2, 70, 67
4, 807808, Note_off_c, 2, 70, 67
4, 807808, Note_on_c, 2, 75, 67
4, 807808, Note_on_c, 2, 79, 67
4, 807872, Note_off_c, 2, 75, 67
4, 807872, Note_off_c, 2, 79, 67
4, 807872, Note_on_c, 2, 77, 67
4, 807872, Note_on_c, 2, 80, 67
4, 807936, Note_off_c, 2, 77, 67
4, 807936, Note_off_c, 2, 80, 67
4, 807936, Note_on_c, 2, 79, 67
4, 807936, Note_on_c, 2, 82, 67
4, 808000, Note_off_c, 2, 79, 67
4, 808000, Note_off_c, 2, 82, 67
4, 808064, Note_off_c, 2, 79, 67
4, 808064, Note_off_c, 2, 82, 67
4, 808064, Note_on_c, 2, 79, 67
4, 808064, Note_on_c, 2, 82, 67
4, 808128, Note_off_c, 2, 79, 67
4, 808128, Note_off_c, 2, 82, 67
4, 808192, Note_off_c, 2, 79, 67
4, 808192, Note_off_c, 2, 82, 67
4, 808192, Note_on_c, 2, 70, 67
4, 808192, Note_on_c, 2, 79, 67
4, 808256, Note_off_c, 2, 70, 67
4, 808256, Note_off_c, 2, 79, 67
4, 808320, Note_off_c, 2, 70, 67
4, 808320, Note_off_c, 2, 79, 67
4, 808320, Note_on_c, 2, 70, 67
4, 808320, Note_on_c, 2, 75, 67
4, 808384, Note_off_c, 2, 70, 67
4, 808384, Note_off_c, 2, 75, 67
4, 808448, Note_off_c, 2, 70, 67
4, 808448, Note_off_c, 2, 75, 67
4, 808448, Note_on_c, 2, 84, 67
4, 808448, Note_on_c, 2, 87, 67
4, 808512, Note_off_c, 2, 84, 67
4, 808512, Note_off_c, 2, 87, 67
4, 808576, Note_off_c, 2, 84, 67
4, 808576, Note_off_c, 2, 87, 67
4, 808576, Note_on_c, 2, 82, 67
4, 808576, Note_on_c, 2, 86, 67
4, 808640, Note_off_c, 2, 82, 67
4, 808640, Note_off_c, 2, 86, 67
4, 808704, Note_off_c, 2, 82, 67
4, 808704, Note_off_c, 2, 86, 67
4, 808704, Note_on_c, 2, 80, 67
4, 808704, Note_on_c, 2, 84, 67
4, 808768, Note_off_c, 2, 80, 67
4, 808768, Note_off_c, 2, 84, 67
4, 808832, Note_off_c, 2, 80, 67
4, 808832, Note_off_c, 2, 84, 67
4, 808832, Note_on_c, 2, 79, 67
4, 808832, Note_on_c, 2, 87, 67
4, 808896, Note_off_c, 2, 79, 67
4, 808896, Note_off_c, 2, 87, 67
4, 808960, Note_off_c, 2, 79, 67
4, 808960, Note_off_c, 2, 87, 67
4, 808960, Note_on_c, 2, 75, 67
4, 808960, Note_on_c, 2, 82, 67
4, 809024, Note_off_c, 2, 75, 67
4, 809024, Note_off_c, 2, 82, 67
4, 809088, Note_off_c, 2, 75, 67
4, 809088, Note_off_c, 2, 82, 67
4, 809088, Note_on_c, 2, 79, 67
4, 809152, Note_off_c, 2, 79, 67
4, 809216, Note_off_c, 2, 79, 67
4, 809216, Note_on_c, 2, 67, 67
4, 809216, Note_on_c, 2, 75, 67
4, 809280, Note_off_c, 2, 67, 67
4, 809280, Note_off_c, 2, 75, 67
4, 809344, Note_off_c, 2, 67, 67
4, 809344, Note_off_c, 2, 75, 67
4, 809344, Note_on_c, 2, 68, 67
4, 809344, Note_on_c, 2, 74, 67
4, 809376, Note_off_c, 2, 68, 67
4, 809376, Note_off_c, 2, 74, 67
4, 809408, Note_off_c, 2, 68, 67
4, 809408, Note_off_c, 2, 74, 67
4, 809408, Note_on_c, 2, 74, 67
4, 809408, Note_on_c, 2, 79, 67
4, 809440, Note_off_c, 2, 74, 67
4, 809440, Note_off_c, 2, 79, 67
4, 809472, Note_off_c, 2, 74, 67
4, 809472, Note_off_c, 2, 79, 67
4, 809472, Note_on_c, 2, 70, 67
4, 809472, Note_on_c, 2, 77, 67
4, 809536, Note_off_c, 2, 70, 67
4, 809536, Note_off_c, 2, 77, 67
4, 809600, Note_off_c, 2, 70, 67
4, 809600, Note_off_c, 2, 77, 67
4, 809600, Note_on_c, 2, 65, 67
4, 809600, Note_on_c, 2, 70, 67
4, 809664, Note_off_c, 2, 65, 67
4, 809664, Note_off_c, 2, 70, 67
4, 809728, Note_off_c, 2, 65, 67
4, 809728, Note_off_c, 2, 70, 67
4, 809728, Note_on_c, 2, 68, 67
4, 809728, Note_on_c, 2, 70, 67
4, 809792, Note_off_c, 2, 68, 67
4, 809792, Note_off_c, 2, 70, 67
4, 809856, Note_off_c, 2, 68, 67
4, 809856, Note_off_c, 2, 70, 67
4, 809856, Note_on_c, 2, 70, 67
4, 809856, Note_on_c, 2, 79, 67
4, 809920, Note_off_c, 2, 70, 67
4, 809920, Note_off_c, 2, 79, 67
4, 809920, Note_on_c, 2, 77, 67
4, 809920, Note_on_c, 2, 80, 67
4, 809984, Note_off_c, 2, 77, 67
4, 809984, Note_off_c, 2, 80, 67
4, 809984, Note_on_c, 2, 79, 67
4, 809984, Note_on_c, 2, 82, 67
4, 810048, Note_off_c, 2, 79, 67
4, 810048, Note_off_c, 2, 82, 67
4, 810112, Note_off_c, 2, 79, 67
4, 810112, Note_off_c, 2, 82, 67
4, 810112, Note_on_c, 2, 79, 67
4, 810112, Note_on_c, 2, 82, 67
4, 810176, Note_off_c, 2, 79, 67
4, 810176, Note_off_c, 2, 82, 67
4, 810240, Note_off_c, 2, 79, 67
4, 810240, Note_off_c, 2, 82, 67
4, 810240, Note_on_c, 2, 70, 67
4, 810240, Note_on_c, 2, 79, 67
4, 810304, Note_off_c, 2, 70, 67
4, 810304, Note_off_c, 2, 79, 67
4, 810368, Note_off_c, 2, 70, 67
4, 810368, Note_off_c, 2, 79, 67
4, 810368, Note_on_c, 2, 75, 67
4, 810368, Note_on_c, 2, 82, 67
4, 810432, Note_off_c, 2, 75, 67
4, 810432, Note_off_c, 2, 82, 67
4, 810496, Note_off_c, 2, 75, 67
4, 810496, Note_off_c, 2, 82, 67
4, 810496, Note_on_c, 2, 84, 67
4, 810496, Note_on_c, 2, 87, 67
4, 810560, Note_off_c, 2, 84, 67
4, 810560, Note_off_c, 2, 87, 67
4, 810624, Note_off_c, 2, 84, 67
4, 810624, Note_off_c, 2, 87, 67
4, 810624, Note_on_c, 2, 82, 67
4, 810624, Note_on_c, 2, 86, 67
4, 810688, Note_off_c, 2, 82, 67
4, 810688, Note_off_c, 2, 86, 67
4, 810752, Note_off_c, 2, 82, 67
4, 810752, Note_off_c, 2, 86, 67
4, 810752, Note_on_c, 2, 80, 67
4, 810752, Note_on_c, 2, 84, 67
4, 810816, Note_off_c, 2, 80, 67
4, 810816, Note_off_c, 2, 84, 67
4, 810880, Note_off_c, 2, 80, 67
4, 810880, Note_off_c, 2, 84, 67
4, 810880, Note_on_c, 2, 70, 67
4, 810880, Note_on_c, 2, 74, 67
4, 810912, Note_off_c, 2, 70, 67
4, 810912, Note_off_c, 2, 74, 67
4, 810944, Note_off_c, 2, 70, 67
4, 810944, Note_off_c, 2, 74, 67
4, 810944, Note_on_c, 2, 77, 67
4, 810944, Note_on_c, 2, 80, 67
4, 810976, Note_off_c, 2, 77, 67
4, 810976, Note_off_c, 2, 80, 67
4, 811008, Note_off_c, 2, 77, 67
4, 811008, Note_off_c, 2, 80, 67
4, 811008, Note_on_c, 2, 77, 67
4, 811008, Note_on_c, 2, 82, 67
4, 811072, Note_off_c, 2, 77, 67
4, 811072, Note_off_c, 2, 82, 67
4, 811136, Note_off_c, 2, 77, 67
4, 811136, Note_off_c, 2, 82, 67
4, 811136, Note_on_c, 2, 80, 67
4, 811136, Note_on_c, 2, 87, 67
4, 811200, Note_off_c, 2, 80, 67
4, 811200, Note_off_c, 2, 87, 67
4, 811264, Note_off_c, 2, 80, 67
4, 811264, Note_off_c, 2, 87, 67
4, 811264, Note_on_c, 2, 82, 67
4, 811264, Note_on_c, 2, 86, 67
4, 811328, Note_off_c, 2, 82, 67
4, 811328, Note_off_c, 2, 86, 67
4, 811392, Note_off_c, 2, 82, 67
4, 811392, Note_off_c, 2, 86, 67
4, 811392, Note_on_c, 2, 80, 67
4, 811392, Note_on_c, 2, 89, 67
4, 811456, Note_off_c, 2, 80, 67
4, 811456, Note_off_c, 2, 89, 67
4, 811520, Note_off_c, 2, 80, 67
4, 811520, Note_off_c, 2, 89, 67
4, 811520, Note_on_c, 2, 79, 67
4, 811520, Note_on_c, 2, 87, 67
4, 811584, Note_off_c, 2, 79, 67
4, 811584, Note_off_c, 2, 87, 67
4, 811648, Note_off_c, 2, 79, 67
4, 811648, Note_off_c, 2, 87, 67
4, 811648, Note_on_c, 2, 70, 67
4, 811648, Note_on_c, 2, 82, 67
4, 811712, Note_off_c, 2, 70, 67
4, 811712, Note_off_c, 2, 82, 67
4, 811776, Note_off_c, 2, 70, 67
4, 811776, Note_off_c, 2, 82, 67
4, 811776, Note_on_c, 2, 70, 67
4, 811776, Note_on_c, 2, 82, 67
4, 811840, Note_off_c, 2, 70, 67
4, 811840, Note_off_c, 2, 82, 67
4, 811904, Note_off_c, 2, 70, 67
4, 811904, Note_off_c, 2, 82, 67
4, 811904, Note_on_c, 2, 75, 67
4, 811968, Note_off_c, 2, 75, 67
4, 811968, Note_on_c, 2, 77, 67
4, 812032, Note_off_c, 2, 77, 67
4, 812032, Note_on_c, 2, 79, 67
4, 812096, Note_off_c, 2, 79, 67
4, 812160, Note_off_c, 2, 79, 67
4, 812160, Note_on_c, 2, 75, 67
4, 812160, Note_on_c, 2, 79, 67
4, 812224, Note_off_c, 2, 75, 67
4, 812224, Note_off_c, 2, 79, 67
4, 812288, Note_off_c, 2, 75, 67
4, 812288, Note_off_c, 2, 79, 67
4, 812288, Note_on_c, 2, 75, 67
4, 812288, Note_on_c, 2, 79, 67
4, 812352, Note_off_c, 2, 75, 67
4, 812352, Note_off_c, 2, 79, 67
4, 812416, Note_off_c, 2, 75, 67
4, 812416, Note_off_c, 2, 79, 67
4, 812416, Note_on_c, 2, 75, 67
4, 812480, Note_off_c, 2, 75, 67
4, 812480, Note_on_c, 2, 77, 67
4, 812544, Note_off_c, 2, 77, 67
4, 812544, Note_on_c, 2, 79, 67
4, 812608, Note_off_c, 2, 79, 67
4, 812672, Note_off_c, 2, 79, 67
4, 812672, Note_on_c, 2, 75, 67
4, 812672, Note_on_c, 2, 79, 67
4, 812736, Note_off_c, 2, 75, 67
4, 812736, Note_off_c, 2, 79, 67
4, 812800, Note_off_c, 2, 75, 67
4, 812800, Note_off_c, 2, 79, 67
4, 812800, Note_on_c, 2, 75, 67
4, 812800, Note_on_c, 2, 79, 67
4, 812864, Note_off_c, 2, 75, 67
4, 812864, Note_off_c, 2, 79, 67
4, 812928, Note_off_c, 2, 75, 67
4, 812928, Note_off_c, 2, 79, 67
4, 812928, Note_on_c, 2, 75, 67
4, 812992, Note_off_c, 2, 75, 67
4, 812992, Note_on_c, 2, 77, 67
4, 813056, Note_off_c, 2, 77, 67
4, 813056, Note_on_c, 2, 79, 67
4, 813120, Note_off_c, 2, 79, 67
4, 813184, Note_off_c, 2, 79, 67
4, 813184, Note_on_c, 2, 75, 67
4, 813184, Note_on_c, 2, 79, 67
4, 813248, Note_off_c, 2, 75, 67
4, 813248, Note_off_c, 2, 79, 67
4, 813312, Note_off_c, 2, 75, 67
4, 813312, Note_off_c, 2, 79, 67
4, 813312, Note_on_c, 2, 75, 67
4, 813312, Note_on_c, 2, 80, 67
4, 813344, Note_off_c, 2, 75, 67
4, 813344, Note_off_c, 2, 80, 67
4, 813376, Note_off_c, 2, 75, 67
4, 813376, Note_off_c, 2, 80, 67
4, 813376, Note_on_c, 2, 74, 67
4, 813408, Note_off_c, 2, 74, 67
4, 813440, Note_off_c, 2, 74, 67
4, 813440, Note_on_c, 2, 72, 67
4, 813472, Note_off_c, 2, 72, 67
4, 813504, Note_off_c, 2, 72, 67
4, 813504, Note_on_c, 2, 74, 67
4, 813504, Note_on_c, 2, 79, 67
4, 813536, Note_off_c, 2, 74, 67
4, 813536, Note_off_c, 2, 79, 67
4, 813568, Note_off_c, 2, 74, 67
4, 813568, Note_off_c, 2, 79, 67
4, 813568, Note_on_c, 2, 70, 67
4, 813568, Note_on_c, 2, 77, 67
4, 813632, Note_off_c, 2, 70, 67
4, 813632, Note_off_c, 2, 77, 67
4, 813696, Note_off_c, 2, 70, 67
4, 813696, Note_off_c, 2, 77, 67
4, 813696, Note_on_c, 2, 68, 67
4, 813696, Note_on_c, 2, 70, 67
4, 813760, Note_off_c, 2, 68, 67
4, 813760, Note_off_c, 2, 70, 67
4, 813824, Note_off_c, 2, 68, 67
4, 813824, Note_off_c, 2, 70, 67
4, 813824, Note_on_c, 2, 68, 67
4, 813824, Note_on_c, 2, 70, 67
4, 813888, Note_off_c, 2, 68, 67
4, 813888, Note_off_c, 2, 70, 67
4, 813952, Note_off_c, 2, 68, 67
4, 813952, Note_off_c, 2, 70, 67
4, 813952, Note_on_c, 2, 74, 67
4, 814016, Note_off_c, 2, 74, 67
4, 814016, Note_on_c, 2, 75, 67
4, 814080, Note_off_c, 2, 75, 67
4, 814080, Note_on_c, 2, 77, 67
4, 814144, Note_off_c, 2, 77, 67
4, 814208, Note_off_c, 2, 77, 67
4, 814208, Note_on_c, 2, 74, 67
4, 814208, Note_on_c, 2, 77, 67
4, 814272, Note_off_c, 2, 74, 67
4, 814272, Note_off_c, 2, 77, 67
4, 814336, Note_off_c, 2, 74, 67
4, 814336, Note_off_c, 2, 77, 67
4, 814336, Note_on_c, 2, 74, 67
4, 814336, Note_on_c, 2, 77, 67
4, 814400, Note_off_c, 2, 74, 67
4, 814400, Note_off_c, 2, 77, 67
4, 814464, Note_off_c, 2, 74, 67
4, 814464, Note_off_c, 2, 77, 67
4, 814464, Note_on_c, 2, 74, 67
4, 814528, Note_off_c, 2, 74, 67
4, 814528, Note_on_c, 2, 75, 67
4, 814592, Note_off_c, 2, 75, 67
4, 814592, Note_on_c, 2, 77, 67
4, 814656, Note_off_c, 2, 77, 67
4, 814720, Note_off_c, 2, 77, 67
4, 814720, Note_on_c, 2, 74, 67
4, 814720, Note_on_c, 2, 77, 67
4, 814784, Note_off_c, 2, 74, 67
4, 814784, Note_off_c, 2, 77, 67
4, 814848, Note_off_c, 2, 74, 67
4, 814848, Note_off_c, 2, 77, 67
4, 814848, Note_on_c, 2, 74, 67
4, 814848, Note_on_c, 2, 77, 67
4, 814912, Note_off_c, 2, 74, 67
4, 814912, Note_off_c, 2, 77, 67
4, 814976, Note_off_c, 2, 74, 67
4, 814976, Note_off_c, 2, 77, 67
4, 814976, Note_on_c, 2, 74, 67
4, 815040, Note_off_c, 2, 74, 67
4, 815040, Note_on_c, 2, 75, 67
4, 815104, Note_off_c, 2, 75, 67
4, 815104, Note_on_c, 2, 70, 67
4, 815104, Note_on_c, 2, 77, 67
4, 815168, Note_off_c, 2, 70, 67
4, 815168, Note_off_c, 2, 77, 67
4, 815232, Note_off_c, 2, 70, 67
4, 815232, Note_off_c, 2, 77, 67
4, 815232, Note_on_c, 2, 74, 67
4, 815232, Note_on_c, 2, 77, 67
4, 815296, Note_off_c, 2, 74, 67
4, 815296, Note_off_c, 2, 77, 67
4, 815360, Note_off_c, 2, 74, 67
4, 815360, Note_off_c, 2, 77, 67
4, 815360, Note_on_c, 2, 74, 67
4, 815360, Note_on_c, 2, 79, 67
4, 815392, Note_off_c, 2, 74, 67
4, 815392, Note_off_c, 2, 79, 67
4, 815424, Note_off_c, 2, 74, 67
4, 815424, Note_off_c, 2, 79, 67
4, 815424, Note_on_c, 2, 72, 67
4, 815424, Note_on_c, 2, 77, 67
4, 815456, Note_off_c, 2, 72, 67
4, 815456, Note_off_c, 2, 77, 67
4, 815488, Note_off_c, 2, 72, 67
4, 815488, Note_off_c, 2, 77, 67
4, 815488, Note_on_c, 2, 70, 67
4, 815488, Note_on_c, 2, 77, 67
4, 815520, Note_off_c, 2, 70, 67
4, 815520, Note_off_c, 2, 77, 67
4, 815552, Note_off_c, 2, 70, 67
4, 815552, Note_off_c, 2, 77, 67
4, 815552, Note_on_c, 2, 68, 67
4, 815552, Note_on_c, 2, 79, 67
4, 815584, Note_off_c, 2, 68, 67
4, 815584, Note_off_c, 2, 79, 67
4, 815616, Note_off_c, 2, 68, 67
4, 815616, Note_off_c, 2, 79, 67
4, 815616, Note_on_c, 2, 67, 67
4, 815616, Note_on_c, 2, 75, 67
4, 815680, Note_off_c, 2, 67, 67
4, 815680, Note_off_c, 2, 75, 67
4, 815744, Note_off_c, 2, 67, 67
4, 815744, Note_off_c, 2, 75, 67
4, 815744, Note_on_c, 2, 70, 67
4, 815808, Note_off_c, 2, 70, 67
4, 815872, Note_off_c, 2, 70, 67
4, 815872, Note_on_c, 2, 70, 67
4, 815872, Note_on_c, 2, 79, 67
4, 815936, Note_off_c, 2, 70, 67
4, 815936, Note_off_c, 2, 79, 67
4, 816000, Note_off_c, 2, 70, 67
4, 816000, Note_off_c, 2, 79, 67
4, 816000, Note_on_c, 2, 75, 67
4, 816064, Note_off_c, 2, 75, 67
4, 816064, Note_on_c, 2, 77, 67
4, 816128, Note_off_c, 2, 77, 67
4, 816128, Note_on_c, 2, 79, 67
4, 816192, Note_off_c, 2, 79, 67
4, 816256, Note_off_c, 2, 79, 67
4, 816256, Note_on_c, 2, 75, 67
4, 816256, Note_on_c, 2, 79, 67
4, 816320, Note_off_c, 2, 75, 67
4, 816320, Note_off_c, 2, 79, 67
4, 816384, Note_off_c, 2, 75, 67
4, 816384, Note_off_c, 2, 79, 67
4, 816384, Note_on_c, 2, 75, 67
4, 816384, Note_on_c, 2, 79, 67
4, 816448, Note_off_c, 2, 75, 67
4, 816448, Note_off_c, 2, 79, 67
4, 816512, Note_off_c, 2, 75, 67
4, 816512, Note_off_c, 2, 79, 67
4, 816512, Note_on_c, 2, 75, 67
4, 816576, Note_off_c, 2, 75, 67
4, 816576, Note_on_c, 2, 77, 67
4, 816640, Note_off_c, 2, 77, 67
4, 816640, Note_on_c, 2, 79, 67
4, 816704, Note_off_c, 2, 79, 67
4, 816768, Note_off_c, 2, 79, 67
4, 816768, Note_on_c, 2, 75, 67
4, 816768, Note_on_c, 2, 79, 67
4, 816832, Note_off_c, 2, 75, 67
4, 816832, Note_off_c, 2, 79, 67
4, 816896, Note_off_c, 2, 75, 67
4, 816896, Note_off_c, 2, 79, 67
4, 816896, Note_on_c, 2, 75, 67
4, 816896, Note_on_c, 2, 79, 67
4, 816960, Note_off_c, 2, 75, 67
4, 816960, Note_off_c, 2, 79, 67
4, 817024, Note_off_c, 2, 75, 67
4, 817024, Note_off_c, 2, 79, 67
4, 817024, Note_on_c, 2, 75, 67
4, 817088, Note_off_c, 2, 75, 67
4, 817088, Note_on_c, 2, 77, 67
4, 817152, Note_off_c, 2, 77, 67
4, 817152, Note_on_c, 2, 79, 67
4, 817216, Note_off_c, 2, 79, 67
4, 817280, Note_off_c, 2, 79, 67
4, 817280, Note_on_c, 2, 75, 67
4, 817280, Note_on_c, 2, 79, 67
4, 817344, Note_off_c, 2, 75, 67
4, 817344, Note_off_c, 2, 79, 67
4, 817408, Note_off_c, 2, 75, 67
4, 817408, Note_off_c, 2, 79, 67
4, 817408, Note_on_c, 2, 75, 67
4, 817408, Note_on_c, 2, 80, 67
4, 817440, Note_off_c, 2, 75, 67
4, 817440, Note_off_c, 2, 80, 67
4, 817472, Note_off_c, 2, 75, 67
4, 817472, Note_off_c, 2, 80, 67
4, 817472, Note_on_c, 2, 74, 67
4, 817536, Note_off_c, 2, 74, 67
4, 817536, Note_on_c, 2, 72, 67
4, 817600, Note_off_c, 2, 72, 67
4, 817600, Note_on_c, 2, 74, 67
4, 817600, Note_on_c, 2, 79, 67
4, 817632, Note_off_c, 2, 74, 67
4, 817632, Note_off_c, 2, 79, 67
4, 817664, Note_off_c, 2, 74, 67
4, 817664, Note_off_c, 2, 79, 67
4, 817664, Note_on_c, 2, 70, 67
4, 817664, Note_on_c, 2, 77, 67
4, 817728, Note_off_c, 2, 70, 67
4, 817728, Note_off_c, 2, 77, 67
4, 817792, Note_off_c, 2, 70, 67
4, 817792, Note_off_c, 2, 77, 67
4, 817792, Note_on_c, 2, 68, 67
4, 817792, Note_on_c, 2, 70, 67
4, 817856, Note_off_c, 2, 68, 67
4, 817856, Note_off_c, 2, 70, 67
4, 817920, Note_off_c, 2, 68, 67
4, 817920, Note_off_c, 2, 70, 67
4, 817920, Note_on_c, 2, 68, 67
4, 817920, Note_on_c, 2, 70, 67
4, 817984, Note_off_c, 2, 68, 67
4, 817984, Note_off_c, 2, 70, 67
4, 818048, Note_off_c, 2, 68, 67
4, 818048, Note_off_c, 2, 70, 67
4, 818048, Note_on_c, 2, 74, 67
4, 818112, Note_off_c, 2, 74, 67
4, 818112, Note_on_c, 2, 75, 67
4, 818176, Note_off_c, 2, 75, 67
4, 818176, Note_on_c, 2, 77, 67
4, 818304, Note_off_c, 2, 77, 67
4, 818304, Note_on_c, 2, 74, 67
4, 818304, Note_on_c, 2, 80, 67
4, 818368, Note_off_c, 2, 74, 67
4, 818368, Note_off_c, 2, 80, 67
4, 818432, Note_off_c, 2, 74, 67
4, 818432, Note_off_c, 2, 80, 67
4, 818432, Note_on_c, 2, 74, 67
4, 818432, Note_on_c, 2, 79, 67
4, 818496, Note_off_c, 2, 74, 67
4, 818496, Note_off_c, 2, 79, 67
4, 818560, Note_off_c, 2, 74, 67
4, 818560, Note_off_c, 2, 79, 67
4, 818560, Note_on_c, 2, 77, 67
4, 818624, Note_off_c, 2, 77, 67
4, 818688, Note_off_c, 2, 77, 67
4, 818688, Note_on_c, 2, 75, 67
4, 818752, Note_off_c, 2, 75, 67
4, 818816, Note_off_c, 2, 75, 67
4, 818816, Note_on_c, 2, 70, 67
4, 818816, Note_on_c, 2, 74, 67
4, 818880, Note_off_c, 2, 70, 67
4, 818880, Note_off_c, 2, 74, 67
4, 818944, Note_off_c, 2, 70, 67
4, 818944, Note_off_c, 2, 74, 67
4, 818944, Note_on_c, 2, 72, 67
4, 818944, Note_on_c, 2, 74, 67
4, 819008, Note_off_c, 2, 72, 67
4, 819008, Note_off_c, 2, 74, 67
4, 819072, Note_off_c, 2, 72, 67
4, 819072, Note_off_c, 2, 74, 67
4, 819072, Note_on_c, 2, 70, 67
4, 819072, Note_on_c, 2, 74, 67
4, 819136, Note_off_c, 2, 70, 67
4, 819136, Note_off_c, 2, 74, 67
4, 819200, Note_off_c, 2, 70, 67
4, 819200, Note_off_c, 2, 74, 67
4, 819200, Note_on_c, 2, 80, 67
4, 819200, Note_on_c, 2, 84, 67
4, 819456, Note_off_c, 2, 80, 67
4, 819456, Note_off_c, 2, 84, 67
4, 819456, Note_on_c, 2, 70, 67
4, 819456, Note_on_c, 2, 74, 67
4, 819472, Note_off_c, 2, 70, 67
4, 819472, Note_off_c, 2, 74, 67
4, 819488, Note_off_c, 2, 70, 67
4, 819488, Note_off_c, 2, 74, 67
4, 819488, Note_on_c, 2, 72, 67
4, 819488, Note_on_c, 2, 75, 67
4, 819504, Note_off_c, 2, 72, 67
4, 819504, Note_off_c, 2, 75, 67
4, 819520, Note_off_c, 2, 72, 67
4, 819520, Note_off_c, 2, 75, 67
4, 819520, Note_on_c, 2, 70, 67
4, 819520, Note_on_c, 2, 74, 67
4, 819552, Note_off_c, 2, 70, 67
4, 819552, Note_off_c, 2, 74, 67
4, 819584, Note_off_c, 2, 70, 67
4, 819584, Note_off_c, 2, 74, 67
4, 819584, Note_on_c, 2, 68, 67
4, 819584, Note_on_c, 2, 72, 67
4, 819616, Note_off_c, 2, 68, 67
4, 819616, Note_off_c, 2, 72, 67
4, 819648, Note_off_c, 2, 68, 67
4, 819648, Note_off_c, 2, 72, 67
4, 819648, Note_on_c, 2, 74, 67
4, 819648, Note_on_c, 2, 77, 67
4, 819680, Note_off_c, 2, 74, 67
4, 819680, Note_off_c, 2, 77, 67
4, 819712, Note_off_c, 2, 74, 67
4, 819712, Note_off_c, 2, 77, 67
4, 819712, Note_on_c, 2, 75, 67
4, 819712, Note_on_c, 2, 79, 67
4, 819840, Note_off_c, 2, 75, 67
4, 819840, Note_off_c, 2, 79, 67
4, 819840, Note_on_c, 2, 70, 67
4, 819904, Note_off_c, 2, 70, 67
4, 819968, Note_off_c, 2, 70, 67
4, 819968, Note_on_c, 2, 70, 67
4, 820032, Note_off_c, 2, 70, 67
4, 820096, Note_off_c, 2, 70, 67
4, 820096, Note_on_c, 2, 75, 67
4, 820096, Note_on_c, 2, 79, 67
4, 820160, Note_off_c, 2, 75, 67
4, 820160, Note_off_c, 2, 79, 67
4, 820160, Note_on_c, 2, 77, 67
4, 820160, Note_on_c, 2, 80, 67
4, 820224, Note_off_c, 2, 77, 67
4, 820224, Note_off_c, 2, 80, 67
4, 820224, Note_on_c, 2, 79, 67
4, 820224, Note_on_c, 2, 82, 67
4, 820288, Note_off_c, 2, 79, 67
4, 820288, Note_off_c, 2, 82, 67
4, 820352, Note_off_c, 2, 79, 67
4, 820352, Note_off_c, 2, 82, 67
4, 820352, Note_on_c, 2, 79, 67
4, 820352, Note_on_c, 2, 82, 67
4, 820416, Note_off_c, 2, 79, 67
4, 820416, Note_off_c, 2, 82, 67
4, 820480, Note_off_c, 2, 79, 67
4, 820480, Note_off_c, 2, 82, 67
4, 820480, Note_on_c, 2, 70, 67
4, 820480, Note_on_c, 2, 79, 67
4, 820544, Note_off_c, 2, 70, 67
4, 820544, Note_off_c, 2, 79, 67
4, 820608, Note_off_c, 2, 70, 67
4, 820608, Note_off_c, 2, 79, 67
4, 820608, Note_on_c, 2, 70, 67
4, 820608, Note_on_c, 2, 75, 67
4, 820672, Note_off_c, 2, 70, 67
4, 820672, Note_off_c, 2, 75, 67
4, 820736, Note_off_c, 2, 70, 67
4, 820736, Note_off_c, 2, 75, 67
4, 820736, Note_on_c, 2, 84, 67
4, 820736, Note_on_c, 2, 87, 67
4, 820800, Note_off_c, 2, 84, 67
4, 820800, Note_off_c, 2, 87, 67
4, 820864, Note_off_c, 2, 84, 67
4, 820864, Note_off_c, 2, 87, 67
4, 820864, Note_on_c, 2, 82, 67
4, 820864, Note_on_c, 2, 86, 67
4, 820928, Note_off_c, 2, 82, 67
4, 820928, Note_off_c, 2, 86, 67
4, 820992, Note_off_c, 2, 82, 67
4, 820992, Note_off_c, 2, 86, 67
4, 820992, Note_on_c, 2, 80, 67
4, 820992, Note_on_c, 2, 84, 67
4, 821056, Note_off_c, 2, 80, 67
4, 821056, Note_off_c, 2, 84, 67
4, 821120, Note_off_c, 2, 80, 67
4, 821120, Note_off_c, 2, 84, 67
4, 821120, Note_on_c, 2, 79, 67
4, 821120, Note_on_c, 2, 87, 67
4, 821184, Note_off_c, 2, 79, 67
4, 821184, Note_off_c, 2, 87, 67
4, 821248, Note_off_c, 2, 79, 67
4, 821248, Note_off_c, 2, 87, 67
4, 821248, Note_on_c, 2, 75, 67
4, 821248, Note_on_c, 2, 82, 67
4, 821312, Note_off_c, 2, 75, 67
4, 821312, Note_off_c, 2, 82, 67
4, 821376, Note_off_c, 2, 75, 67
4, 821376, Note_off_c, 2, 82, 67
4, 821376, Note_on_c, 2, 79, 67
4, 821440, Note_off_c, 2, 79, 67
4, 821504, Note_off_c, 2, 79, 67
4, 821504, Note_on_c, 2, 67, 67
4, 821504, Note_on_c, 2, 75, 67
4, 821568, Note_off_c, 2, 67, 67
4, 821568, Note_off_c, 2, 75, 67
4, 821632, Note_off_c, 2, 67, 67
4, 821632, Note_off_c, 2, 75, 67
4, 821632, Note_on_c, 2, 68, 67
4, 821632, Note_on_c, 2, 74, 67
4, 821664, Note_off_c, 2, 68, 67
4, 821664, Note_off_c, 2, 74, 67
4, 821696, Note_off_c, 2, 68, 67
4, 821696, Note_off_c, 2, 74, 67
4, 821696, Note_on_c, 2, 74, 67
4, 821696, Note_on_c, 2, 79, 67
4, 821728, Note_off_c, 2, 74, 67
4, 821728, Note_off_c, 2, 79, 67
4, 821760, Note_off_c, 2, 74, 67
4, 821760, Note_off_c, 2, 79, 67
4, 821760, Note_on_c, 2, 70, 67
4, 821760, Note_on_c, 2, 77, 67
4, 821824, Note_off_c, 2, 70, 67
4, 821824, Note_off_c, 2, 77, 67
4, 821888, Note_off_c, 2, 70, 67
4, 821888, Note_off_c, 2, 77, 67
4, 821888, Note_on_c, 2, 65, 67
4, 821888, Note_on_c, 2, 70, 67
4, 821952, Note_off_c, 2, 65, 67
4, 821952, Note_off_c, 2, 70, 67
4, 822016, Note_off_c, 2, 65, 67
4, 822016, Note_off_c, 2, 70, 67
4, 822016, Note_on_c, 2, 68, 67
4, 822016, Note_on_c, 2, 70, 67
4, 822080, Note_off_c, 2, 68, 67
4, 822080, Note_off_c, 2, 70, 67
4, 822144, Note_off_c, 2, 68, 67
4, 822144, Note_off_c, 2, 70, 67
4, 822144, Note_on_c, 2, 70, 67
4, 822144, Note_on_c, 2, 79, 67
4, 822208, Note_off_c, 2, 70, 67
4, 822208, Note_off_c, 2, 79, 67
4, 822208, Note_on_c, 2, 77, 67
4, 822208, Note_on_c, 2, 80, 67
4, 822272, Note_off_c, 2, 77, 67
4, 822272, Note_off_c, 2, 80, 67
4, 822272, Note_on_c, 2, 79, 67
4, 822272, Note_on_c, 2, 82, 67
4, 822336, Note_off_c, 2, 79, 67
4, 822336, Note_off_c, 2, 82, 67
4, 822400, Note_off_c, 2, 79, 67
4, 822400, Note_off_c, 2, 82, 67
4, 822400, Note_on_c, 2, 79, 67
4, 822400, Note_on_c, 2, 82, 67
4, 822464, Note_off_c, 2, 79, 67
4, 822464, Note_off_c, 2, 82, 67
4, 822528, Note_off_c, 2, 79, 67
4, 822528, Note_off_c, 2, 82, 67
4, 822528, Note_on_c, 2, 70, 67
4, 822528, Note_on_c, 2, 79, 67
4, 822592, Note_off_c, 2, 70, 67
4, 822592, Note_off_c, 2, 79, 67
4, 822656, Note_off_c, 2, 70, 67
4, 822656, Note_off_c, 2, 79, 67
4, 822656, Note_on_c, 2, 75, 67
4, 822656, Note_on_c, 2, 82, 67
4, 822720, Note_off_c, 2, 75, 67
4, 822720, Note_off_c, 2, 82, 67
4, 822784, Note_off_c, 2, 75, 67
4, 822784, Note_off_c, 2, 82, 67
4, 822784, Note_on_c, 2, 84, 67
4, 822784, Note_on_c, 2, 87, 67
4, 822848, Note_off_c, 2, 84, 67
4, 822848, Note_off_c, 2, 87, 67
4, 822912, Note_off_c, 2, 84, 67
4, 822912, Note_off_c, 2, 87, 67
4, 822912, Note_on_c, 2, 82, 67
4, 822912, Note_on_c, 2, 86, 67
4, 822976, Note_off_c, 2, 82, 67
4, 822976, Note_off_c, 2, 86, 67
4, 823040, Note_off_c, 2, 82, 67
4, 823040, Note_off_c, 2, 86, 67
4, 823040, Note_on_c, 2, 80, 67
4, 823040, Note_on_c, 2, 84, 67
4, 823104, Note_off_c, 2, 80, 67
4, 823104, Note_off_c, 2, 84, 67
4, 823168, Note_off_c, 2, 80, 67
4, 823168, Note_off_c, 2, 84, 67
4, 823168, Note_on_c, 2, 70, 67
4, 823168, Note_on_c, 2, 74, 67
4, 823200, Note_off_c, 2, 70, 67
4, 823200, Note_off_c, 2, 74, 67
4, 823232, Note_off_c, 2, 70, 67
4, 823232, Note_off_c, 2, 74, 67
4, 823232, Note_on_c, 2, 77, 67
4, 823232, Note_on_c, 2, 80, 67
4, 823264, Note_off_c, 2, 77, 67
4, 823264, Note_off_c, 2, 80, 67
4, 823296, Note_off_c, 2, 77, 67
4, 823296, Note_off_c, 2, 80, 67
4, 823296, Note_on_c, 2, 77, 67
4, 823296, Note_on_c, 2, 82, 67
4, 823360, Note_off_c, 2, 77, 67
4, 823360, Note_off_c, 2, 82, 67
4, 823424, Note_off_c, 2, 77, 67
4, 823424, Note_off_c, 2, 82, 67
4, 823424, Note_on_c, 2, 80, 67
4, 823424, Note_on_c, 2, 87, 67
4, 823488, Note_off_c, 2, 80, 67
4, 823488, Note_off_c, 2, 87, 67
4, 823552, Note_off_c, 2, 80, 67
4, 823552, Note_off_c, 2, 87, 67
4, 823552, Note_on_c, 2, 82, 67
4, 823552, Note_on_c, 2, 86, 67
4, 823616, Note_off_c, 2, 82, 67
4, 823616, Note_off_c, 2, 86, 67
4, 823680, Note_off_c, 2, 82, 67
4, 823680, Note_off_c, 2, 86, 67
4, 823680, Note_on_c, 2, 80, 67
4, 823680, Note_on_c, 2, 89, 67
4, 823744, Note_off_c, 2, 80, 67
4, 823744, Note_off_c, 2, 89, 67
4, 823808, Note_off_c, 2, 80, 67
4, 823808, Note_off_c, 2, 89, 67
4, 823808, Note_on_c, 2, 79, 67
4, 823808, Note_on_c, 2, 87, 67
4, 823872, Note_off_c, 2, 79, 67
4, 823872, Note_off_c, 2, 87, 67
4, 823936, Note_off_c, 2, 79, 67
4, 823936, Note_off_c, 2, 87, 67
4, 823936, Note_on_c, 2, 70, 67
4, 823936, Note_on_c, 2, 82, 67
4, 824000, Note_off_c, 2, 70, 67
4, 824000, Note_off_c, 2, 82, 67
4, 824064, Note_off_c, 2, 70, 67
4, 824064, Note_off_c, 2, 82, 67
4, 824064, Note_on_c, 2, 70, 67
4, 824064, Note_on_c, 2, 82, 67
4, 824128, Note_off_c, 2, 70, 67
4, 824128, Note_off_c, 2, 82, 67
4, 824192, Note_off_c, 2, 70, 67
4, 824192, Note_off_c, 2, 82, 67
4, 824192, Note_on_c, 2, 75, 67
4, 824256, Note_off_c, 2, 75, 67
4, 824256, Note_on_c, 2, 77, 67
4, 824320, Note_off_c, 2, 77, 67
4, 824320, Note_on_c, 2, 79, 67
4, 824384, Note_off_c, 2, 79, 67
4, 824448, Note_off_c, 2, 79, 67
4, 824448, Note_on_c, 2, 75, 67
4, 824448, Note_on_c, 2, 79, 67
4, 824512, Note_off_c, 2, 75, 67
4, 824512, Note_off_c, 2, 79, 67
4, 824576, Note_off_c, 2, 75, 67
4, 824576, Note_off_c, 2, 79, 67
4, 824576, Note_on_c, 2, 75, 67
4, 824576, Note_on_c, 2, 79, 67
4, 824640, Note_off_c, 2, 75, 67
4, 824640, Note_off_c, 2, 79, 67
4, 824704, Note_off_c, 2, 75, 67
4, 824704, Note_off_c, 2, 79, 67
4, 824704, Note_on_c, 2, 75, 67
4, 824768, Note_off_c, 2, 75, 67
4, 824768, Note_on_c, 2, 77, 67
4, 824832, Note_off_c, 2, 77, 67
4, 824832, Note_on_c, 2, 79, 67
4, 824896, Note_off_c, 2, 79, 67
4, 824960, Note_off_c, 2, 79, 67
4, 824960, Note_on_c, 2, 75, 67
4, 824960, Note_on_c, 2, 79, 67
4, 825024, Note_off_c, 2, 75, 67
4, 825024, Note_off_c, 2, 79, 67
4, 825088, Note_off_c, 2, 75, 67
4, 825088, Note_off_c, 2, 79, 67
4, 825088, Note_on_c, 2, 75, 67
4, 825088, Note_on_c, 2, 79, 67
4, 825152, Note_off_c, 2, 75, 67
4, 825152, Note_off_c, 2, 79, 67
4, 825216, Note_off_c, 2, 75, 67
4, 825216, Note_off_c, 2, 79, 67
4, 825216, Note_on_c, 2, 75, 67
4, 825280, Note_off_c, 2, 75, 67
4, 825280, Note_on_c, 2, 77, 67
4, 825344, Note_off_c, 2, 77, 67
4, 825344, Note_on_c, 2, 79, 67
4, 825408, Note_off_c, 2, 79, 67
4, 825472, Note_off_c, 2, 79, 67
4, 825472, Note_on_c, 2, 75, 67
4, 825472, Note_on_c, 2, 79, 67
4, 825536, Note_off_c, 2, 75, 67
4, 825536, Note_off_c, 2, 79, 67
4, 825600, Note_off_c, 2, 75, 67
4, 825600, Note_off_c, 2, 79, 67
4, 825600, Note_on_c, 2, 75, 67
4, 825600, Note_on_c, 2, 80, 67
4, 825632, Note_off_c, 2, 75, 67
4, 825632, Note_off_c, 2, 80, 67
4, 825664, Note_off_c, 2, 75, 67
4, 825664, Note_off_c, 2, 80, 67
4, 825664, Note_on_c, 2, 74, 67
4, 825696, Note_off_c, 2, 74, 67
4, 825728, Note_off_c, 2, 74, 67
4, 825728, Note_on_c, 2, 72, 67
4, 825760, Note_off_c, 2, 72, 67
4, 825792, Note_off_c, 2, 72, 67
4, 825792, Note_on_c, 2, 74, 67
4, 825792, Note_on_c, 2, 79, 67
4, 825824, Note_off_c, 2, 74, 67
4, 825824, Note_off_c, 2, 79, 67
4, 825856, Note_off_c, 2, 74, 67
4, 825856, Note_off_c, 2, 79, 67
4, 825856, Note_on_c, 2, 70, 67
4, 825856, Note_on_c, 2, 77, 67
4, 825920, Note_off_c, 2, 70, 67
4, 825920, Note_off_c, 2, 77, 67
4, 825984, Note_off_c, 2, 70, 67
4, 825984, Note_off_c, 2, 77, 67
4, 825984, Note_on_c, 2, 68, 67
4, 825984, Note_on_c, 2, 70, 67
4, 826048, Note_off_c, 2, 68, 67
4, 826048, Note_off_c, 2, 70, 67
4, 826112, Note_off_c, 2, 68, 67
4, 826112, Note_off_c, 2, 70, 67
4, 826112, Note_on_c, 2, 68, 67
4, 826112, Note_on_c, 2, 70, 67
4, 826176, Note_off_c, 2, 68, 67
4, 826176, Note_off_c, 2, 70, 67
4, 826240, Note_off_c, 2, 68, 67
4, 826240, Note_off_c, 2, 70, 67
4, 826240, Note_on_c, 2, 74, 67
4, 826304, Note_off_c, 2, 74, 67
4, 826304, Note_on_c, 2, 75, 67
4, 826368, Note_off_c, 2, 75, 67
4, 826368, Note_on_c, 2, 77, 67
4, 826432, Note_off_c, 2, 77, 67
4, 826496, Note_off_c, 2, 77, 67
4, 826496, Note_on_c, 2, 74, 67
4, 826496, Note_on_c, 2, 77, 67
4, 826560, Note_off_c, 2, 74, 67
4, 826560, Note_off_c, 2, 77, 67
4, 826624, Note_off_c, 2, 74, 67
4, 826624, Note_off_c, 2, 77, 67
4, 826624, Note_on_c, 2, 74, 67
4, 826624, Note_on_c, 2, 77, 67
4, 826688, Note_off_c, 2, 74, 67
4, 826688, Note_off_c, 2, 77, 67
4, 826752, Note_off_c, 2, 74, 67
4, 826752, Note_off_c, 2, 77, 67
4, 826752, Note_on_c, 2, 74, 67
4, 826816, Note_off_c, 2, 74, 67
4, 826816, Note_on_c, 2, 75, 67
4, 826880, Note_off_c, 2, 75, 67
4, 826880, Note_on_c, 2, 77, 67
4, 826944, Note_off_c, 2, 77, 67
4, 827008, Note_off_c, 2, 77, 67
4, 827008, Note_on_c, 2, 74, 67
4, 827008, Note_on_c, 2, 77, 67
4, 827072, Note_off_c, 2, 74, 67
4, 827072, Note_off_c, 2, 77, 67
4, 827136, Note_off_c, 2, 74, 67
4, 827136, Note_off_c, 2, 77, 67
4, 827136, Note_on_c, 2, 74, 67
4, 827136, Note_on_c, 2, 77, 67
4, 827200, Note_off_c, 2, 74, 67
4, 827200, Note_off_c, 2, 77, 67
4, 827264, Note_off_c, 2, 74, 67
4, 827264, Note_off_c, 2, 77, 67
4, 827264, Note_on_c, 2, 74, 67
4, 827328, Note_off_c, 2, 74, 67
4, 827328, Note_on_c, 2, 75, 67
4, 827392, Note_off_c, 2, 75, 67
4, 827392, Note_on_c, 2, 70, 67
4, 827392, Note_on_c, 2, 77, 67
4, 827456, Note_off_c, 2, 70, 67
4, 827456, Note_off_c, 2, 77, 67
4, 827520, Note_off_c, 2, 70, 67
4, 827520, Note_off_c, 2, 77, 67
4, 827520, Note_on_c, 2, 74, 67
4, 827520, Note_on_c, 2, 77, 67
4, 827584, Note_off_c, 2, 74, 67
4, 827584, Note_off_c, 2, 77, 67
4, 827648, Note_off_c, 2, 74, 67
4, 827648, Note_off_c, 2, 77, 67
4, 827648, Note_on_c, 2, 74, 67
4, 827648, Note_on_c, 2, 79, 67
4, 827680, Note_off_c, 2, 74, 67
4, 827680, Note_off_c, 2, 79, 67
4, 827712, Note_off_c, 2, 74, 67
4, 827712, Note_off_c, 2, 79, 67
4, 827712, Note_on_c, 2, 72, 67
4, 827712, Note_on_c, 2, 77, 67
4, 827744, Note_off_c, 2, 72, 67
4, 827744, Note_off_c, 2, 77, 67
4, 827776, Note_off_c, 2, 72, 67
4, 827776, Note_off_c, 2, 77, 67
4, 827776, Note_on_c, 2, 70, 67
4, 827776, Note_on_c, 2, 77, 67
4, 827808, Note_off_c, 2, 70, 67
4, 827808, Note_off_c, 2, 77, 67
4, 827840, Note_off_c, 2, 70, 67
4, 827840, Note_off_c, 2, 77, 67
4, 827840, Note_on_c, 2, 68, 67
4, 827840, Note_on_c, 2, 79, 67
4, 827872, Note_off_c, 2, 68, 67
4, 827872, Note_off_c, 2, 79, 67
4, 827904, Note_off_c, 2, 68, 67
4, 827904, Note_off_c, 2, 79, 67
4, 827904, Note_on_c, 2, 67, 67
4, 827904, Note_on_c, 2, 75, 67
4, 827968, Note_off_c, 2, 67, 67
4, 827968, Note_off_c, 2, 75, 67
4, 828032, Note_off_c, 2, 67, 67
4, 828032, Note_off_c, 2, 75, 67
4, 828032, Note_on_c, 2, 70, 67
4, 828096, Note_off_c, 2, 70, 67
4, 828160, Note_off_c, 2, 70, 67
4, 828160, Note_on_c, 2, 70, 67
4, 828160, Note_on_c, 2, 79, 67
4, 828224, Note_off_c, 2, 70, 67
4, 828224, Note_off_c, 2, 79, 67
4, 828288, Note_off_c, 2, 70, 67
4, 828288, Note_off_c, 2, 79, 67
4, 828288, Note_on_c, 2, 75, 67
4, 828352, Note_off_c, 2, 75, 67
4, 828352, Note_on_c, 2, 77, 67
4, 828416, Note_off_c, 2, 77, 67
4, 828416, Note_on_c, 2, 79, 67
4, 828480, Note_off_c, 2, 79, 67
4, 828544, Note_off_c, 2, 79, 67
4, 828544, Note_on_c, 2, 75, 67
4, 828544, Note_on_c, 2, 79, 67
4, 828608, Note_off_c, 2, 75, 67
4, 828608, Note_off_c, 2, 79, 67
4, 828672, Note_off_c, 2, 75, 67
4, 828672, Note_off_c, 2, 79, 67
4, 828672, Note_on_c, 2, 75, 67
4, 828672, Note_on_c, 2, 79, 67
4, 828736, Note_off_c, 2, 75, 67
4, 828736, Note_off_c, 2, 79, 67
4, 828800, Note_off_c, 2, 75, 67
4, 828800, Note_off_c, 2, 79, 67
4, 828800, Note_on_c, 2, 75, 67
4, 828864, Note_off_c, 2, 75, 67
4, 828864, Note_on_c, 2, 77, 67
4, 828928, Note_off_c, 2, 77, 67
4, 828928, Note_on_c, 2, 79, 67
4, 828992, Note_off_c, 2, 79, 67
4, 829056, Note_off_c, 2, 79, 67
4, 829056, Note_on_c, 2, 75, 67
4, 829056, Note_on_c, 2, 79, 67
4, 829120, Note_off_c, 2, 75, 67
4, 829120, Note_off_c, 2, 79, 67
4, 829184, Note_off_c, 2, 75, 67
4, 829184, Note_off_c, 2, 79, 67
4, 829184, Note_on_c, 2, 75, 67
4, 829184, Note_on_c, 2, 79, 67
4, 829248, Note_off_c, 2, 75, 67
4, 829248, Note_off_c, 2, 79, 67
4, 829312, Note_off_c, 2, 75, 67
4, 829312, Note_off_c, 2, 79, 67
4, 829312, Note_on_c, 2, 75, 67
4, 829376, Note_off_c, 2, 75, 67
4, 829376, Note_on_c, 2, 77, 67
4, 829440, Note_off_c, 2, 77, 67
4, 829440, Note_on_c, 2, 79, 67
4, 829504, Note_off_c, 2, 79, 67
4, 829568, Note_off_c, 2, 79, 67
4, 829568, Note_on_c, 2, 75, 67
4, 829568, Note_on_c, 2, 79, 67
4, 829632, Note_off_c, 2, 75, 67
4, 829632, Note_off_c, 2, 79, 67
4, 829696, Note_off_c, 2, 75, 67
4, 829696, Note_off_c, 2, 79, 67
4, 829696, Note_on_c, 2, 75, 67
4, 829696, Note_on_c, 2, 80, 67
4, 829728, Note_off_c, 2, 75, 67
4, 829728, Note_off_c, 2, 80, 67
4, 829760, Note_off_c, 2, 75, 67
4, 829760, Note_off_c, 2, 80, 67
4, 829760, Note_on_c, 2, 74, 67
4, 829824, Note_off_c, 2, 74, 67
4, 829824, Note_on_c, 2, 72, 67
4, 829888, Note_off_c, 2, 72, 67
4, 829888, Note_on_c, 2, 74, 67
4, 829888, Note_on_c, 2, 79, 67
4, 829920, Note_off_c, 2, 74, 67
4, 829920, Note_off_c, 2, 79, 67
4, 829952, Note_off_c, 2, 74, 67
4, 829952, Note_off_c, 2, 79, 67
4, 829952, Note_on_c, 2, 70, 67
4, 829952, Note_on_c, 2, 77, 67
4, 830016, Note_off_c, 2, 70, 67
4, 830016, Note_off_c, 2, 77, 67
4, 830080, Note_off_c, 2, 70, 67
4, 830080, Note_off_c, 2, 77, 67
4, 830080, Note_on_c, 2, 68, 67
4, 830080, Note_on_c, 2, 70, 67
4, 830144, Note_off_c, 2, 68, 67
4, 830144, Note_off_c, 2, 70, 67
4, 830208, Note_off_c, 2, 68, 67
4, 830208, Note_off_c, 2, 70, 67
4, 830208, Note_on_c, 2, 68, 67
4, 830208, Note_on_c, 2, 70, 67
4, 830272, Note_off_c, 2, 68, 67
4, 830272, Note_off_c, 2, 70, 67
4, 830336, Note_off_c, 2, 68, 67
4, 830336, Note_off_c, 2, 70, 67
4, 830336, Note_on_c, 2, 74, 67
4, 830400, Note_off_c, 2, 74, 67
4, 830400, Note_on_c, 2, 75, 67
4, 830464, Note_off_c, 2, 75, 67
4, 830464, Note_on_c, 2, 77, 67
4, 830592, Note_off_c, 2, 77, 67
4, 830592, Note_on_c, 2, 74, 67
4, 830592, Note_on_c, 2, 80, 67
4, 830656, Note_off_c, 2, 74, 67
4, 830656, Note_off_c, 2, 80, 67
4, 830720, Note_off_c, 2, 74, 67
4, 830720, Note_off_c, 2, 80, 67
4, 830720, Note_on_c, 2, 74, 67
4, 830720, Note_on_c, 2, 79, 67
4, 830784, Note_off_c, 2, 74, 67
4, 830784, Note_off_c, 2, 79, 67
4, 830848, Note_off_c, 2, 74, 67
4, 830848, Note_off_c, 2, 79, 67
4, 830848, Note_on_c, 2, 77, 67
4, 830912, Note_off_c, 2, 77, 67
4, 830976, Note_off_c, 2, 77, 67
4, 830976, Note_on_c, 2, 75, 67
4, 831040, Note_off_c, 2, 75, 67
4, 831104, Note_off_c, 2, 75, 67
4, 831104, Note_on_c, 2, 70, 67
4, 831104, Note_on_c, 2, 74, 67
4, 831168, Note_off_c, 2, 70, 67
4, 831168, Note_off_c, 2, 74, 67
4, 831232, Note_off_c, 2, 70, 67
4, 831232, Note_off_c, 2, 74, 67
4, 831232, Note_on_c, 2, 72, 67
4, 831232, Note_on_c, 2, 74, 67
4, 831296, Note_off_c, 2, 72, 67
4, 831296, Note_off_c, 2, 74, 67
4, 831360, Note_off_c, 2, 72, 67
4, 831360, Note_off_c, 2, 74, 67
4, 831360, Note_on_c, 2, 70, 67
4, 831360, Note_on_c, 2, 74, 67
4, 831424, Note_off_c, 2, 70, 67
4, 831424, Note_off_c, 2, 74, 67
4, 831488, Note_off_c, 2, 70, 67
4, 831488, Note_off_c, 2, 74, 67
4, 831488, Note_on_c, 2, 80, 67
4, 831488, Note_on_c, 2, 84, 67
4, 831744, Note_off_c, 2, 80, 67
4, 831744, Note_off_c, 2, 84, 67
4, 831744, Note_on_c, 2, 70, 67
4, 831744, Note_on_c, 2, 74, 67
4, 831760, Note_off_c, 2, 70, 67
4, 831760, Note_off_c, 2, 74, 67
4, 831776, Note_off_c, 2, 70, 67
4, 831776, Note_off_c, 2, 74, 67
4, 831776, Note_on_c, 2, 72, 67
4, 831776, Note_on_c, 2, 75, 67
4, 831792, Note_off_c, 2, 72, 67
4, 831792, Note_off_c, 2, 75, 67
4, 831808, Note_off_c, 2, 72, 67
4, 831808, Note_off_c, 2, 75, 67
4, 831808, Note_on_c, 2, 70, 67
4, 831808, Note_on_c, 2, 74, 67
4, 831840, Note_off_c, 2, 70, 67
4, 831840, Note_off_c, 2, 74, 67
4, 831872, Note_off_c, 2, 70, 67
4, 831872, Note_off_c, 2, 74, 67
4, 831872, Note_on_c, 2, 68, 67
4, 831872, Note_on_c, 2, 72, 67
4, 831904, Note_off_c, 2, 68, 67
4, 831904, Note_off_c, 2, 72, 67
4, 831936, Note_off_c, 2, 68, 67
4, 831936, Note_off_c, 2, 72, 67
4, 831936, Note_on_c, 2, 74, 67
4, 831936, Note_on_c, 2, 77, 67
4, 831968, Note_off_c, 2, 74, 67
4, 831968, Note_off_c, 2, 77, 67
4, 832000, Note_off_c, 2, 74, 67
4, 832000, Note_off_c, 2, 77, 67
4, 832000, Note_on_c, 2, 75, 67
4, 832000, Note_on_c, 2, 79, 67
4, 832128, Note_off_c, 2, 75, 67
4, 832128, Note_off_c, 2, 79, 67
4, 832128, Note_on_c, 2, 70, 67
4, 832192, Note_off_c, 2, 70, 67
4, 832256, Note_off_c, 2, 70, 67
4, 832256, Note_on_c, 2, 70, 67
4, 832320, Note_off_c, 2, 70, 67
4, 832384, Note_off_c, 2, 70, 67
4, 832384, Note_on_c, 2, 75, 67
4, 832384, Note_on_c, 2, 79, 67
4, 832448, Note_off_c, 2, 75, 67
4, 832448, Note_off_c, 2, 79, 67
4, 832448, Note_on_c, 2, 77, 67
4, 832448, Note_on_c, 2, 80, 67
4, 832512, Note_off_c, 2, 77, 67
4, 832512, Note_off_c, 2, 80, 67
4, 832512, Note_on_c, 2, 79, 67
4, 832512, Note_on_c, 2, 82, 67
4, 832576, Note_off_c, 2, 79, 67
4, 832576, Note_off_c, 2, 82, 67
4, 832640, Note_off_c, 2, 79, 67
4, 832640, Note_off_c, 2, 82, 67
4, 832640, Note_on_c, 2, 79, 67
4, 832640, Note_on_c, 2, 82, 67
4, 832704, Note_off_c, 2, 79, 67
4, 832704, Note_off_c, 2, 82, 67
4, 832768, Note_off_c, 2, 79, 67
4, 832768, Note_off_c, 2, 82, 67
4, 832768, Note_on_c, 2, 70, 67
4, 832768, Note_on_c, 2, 79, 67
4, 832832, Note_off_c, 2, 70, 67
4, 832832, Note_off_c, 2, 79, 67
4, 832896, Note_off_c, 2, 70, 67
4, 832896, Note_off_c, 2, 79, 67
4, 832896, Note_on_c, 2, 70, 67
4, 832896, Note_on_c, 2, 75, 67
4, 832960, Note_off_c, 2, 70, 67
4, 832960, Note_off_c, 2, 75, 67
4, 833024, Note_off_c, 2, 70, 67
4, 833024, Note_off_c, 2, 75, 67
4, 833024, Note_on_c, 2, 84, 67
4, 833024, Note_on_c, 2, 87, 67
4, 833088, Note_off_c, 2, 84, 67
4, 833088, Note_off_c, 2, 87, 67
4, 833152, Note_off_c, 2, 84, 67
4, 833152, Note_off_c, 2, 87, 67
4, 833152, Note_on_c, 2, 82, 67
4, 833152, Note_on_c, 2, 86, 67
4, 833216, Note_off_c, 2, 82, 67
4, 833216, Note_off_c, 2, 86, 67
4, 833280, Note_off_c, 2, 82, 67
4, 833280, Note_off_c, 2, 86, 67
4, 833280, Note_on_c, 2, 80, 67
4, 833280, Note_on_c, 2, 84, 67
4, 833344, Note_off_c, 2, 80, 67
4, 833344, Note_off_c, 2, 84, 67
4, 833408, Note_off_c, 2, 80, 67
4, 833408, Note_off_c, 2, 84, 67
4, 833408, Note_on_c, 2, 79, 67
4, 833408, Note_on_c, 2, 87, 67
4, 833472, Note_off_c, 2, 79, 67
4, 833472, Note_off_c, 2, 87, 67
4, 833536, Note_off_c, 2, 79, 67
4, 833536, Note_off_c, 2, 87, 67
4, 833536, Note_on_c, 2, 75, 67
4, 833536, Note_on_c, 2, 82, 67
4, 833600, Note_off_c, 2, 75, 67
4, 833600, Note_off_c, 2, 82, 67
4, 833664, Note_off_c, 2, 75, 67
4, 833664, Note_off_c, 2, 82, 67
4, 833664, Note_on_c, 2, 79, 67
4, 833728, Note_off_c, 2, 79, 67
4, 833792, Note_off_c, 2, 79, 67
4, 833792, Note_on_c, 2, 67, 67
4, 833792, Note_on_c, 2, 75, 67
4, 833856, Note_off_c, 2, 67, 67
4, 833856, Note_off_c, 2, 75, 67
4, 833920, Note_off_c, 2, 67, 67
4, 833920, Note_off_c, 2, 75, 67
4, 833920, Note_on_c, 2, 68, 67
4, 833920, Note_on_c, 2, 74, 67
4, 833952, Note_off_c, 2, 68, 67
4, 833952, Note_off_c, 2, 74, 67
4, 833984, Note_off_c, 2, 68, 67
4, 833984, Note_off_c, 2, 74, 67
4, 833984, Note_on_c, 2, 74, 67
4, 833984, Note_on_c, 2, 79, 67
4, 834016, Note_off_c, 2, 74, 67
4, 834016, Note_off_c, 2, 79, 67
4, 834048, Note_off_c, 2, 74, 67
4, 834048, Note_off_c, 2, 79, 67
4, 834048, Note_on_c, 2, 70, 67
4, 834048, Note_on_c, 2, 77, 67
4, 834112, Note_off_c, 2, 70, 67
4, 834112, Note_off_c, 2, 77, 67
4, 834176, Note_off_c, 2, 70, 67
4, 834176, Note_off_c, 2, 77, 67
4, 834176, Note_on_c, 2, 65, 67
4, 834176, Note_on_c, 2, 70, 67
4, 834240, Note_off_c, 2, 65, 67
4, 834240, Note_off_c, 2, 70, 67
4, 834304, Note_off_c, 2, 65, 67
4, 834304, Note_off_c, 2, 70, 67
4, 834304, Note_on_c, 2, 68, 67
4, 834304, Note_on_c, 2, 70, 67
4, 834368, Note_off_c, 2, 68, 67
4, 834368, Note_off_c, 2, 70, 67
4, 834432, Note_off_c, 2, 68, 67
4, 834432, Note_off_c, 2, 70, 67
4, 834432, Note_on_c, 2, 70, 67
4, 834432, Note_on_c, 2, 79, 67
4, 834496, Note_off_c, 2, 70, 67
4, 834496, Note_off_c, 2, 79, 67
4, 834496, Note_on_c, 2, 77, 67
4, 834496, Note_on_c, 2, 80, 67
4, 834560, Note_off_c, 2, 77, 67
4, 834560, Note_off_c, 2, 80, 67
4, 834560, Note_on_c, 2, 79, 67
4, 834560, Note_on_c, 2, 82, 67
4, 834624, Note_off_c, 2, 79, 67
4, 834624, Note_off_c, 2, 82, 67
4, 834688, Note_off_c, 2, 79, 67
4, 834688, Note_off_c, 2, 82, 67
4, 834688, Note_on_c, 2, 79, 67
4, 834688, Note_on_c, 2, 82, 67
4, 834752, Note_off_c, 2, 79, 67
4, 834752, Note_off_c, 2, 82, 67
4, 834816, Note_off_c, 2, 79, 67
4, 834816, Note_off_c, 2, 82, 67
4, 834816, Note_on_c, 2, 70, 67
4, 834816, Note_on_c, 2, 79, 67
4, 834880, Note_off_c, 2, 70, 67
4, 834880, Note_off_c, 2, 79, 67
4, 834944, Note_off_c, 2, 70, 67
4, 834944, Note_off_c, 2, 79, 67
4, 834944, Note_on_c, 2, 75, 67
4, 834944, Note_on_c, 2, 82, 67
4, 835008, Note_off_c, 2, 75, 67
4, 835008, Note_off_c, 2, 82, 67
4, 835072, Note_off_c, 2, 75, 67
4, 835072, Note_off_c, 2, 82, 67
4, 835072, Note_on_c, 2, 84, 67
4, 835072, Note_on_c, 2, 87, 67
4, 835136, Note_off_c, 2, 84, 67
4, 835136, Note_off_c, 2, 87, 67
4, 835200, Note_off_c, 2, 84, 67
4, 835200, Note_off_c, 2, 87, 67
4, 835200, Note_on_c, 2, 82, 67
4, 835200, Note_on_c, 2, 86, 67
4, 835264, Note_off_c, 2, 82, 67
4, 835264, Note_off_c, 2, 86, 67
4, 835328, Note_off_c, 2, 82, 67
4, 835328, Note_off_c, 2, 86, 67
4, 835328, Note_on_c, 2, 80, 67
4, 835328, Note_on_c, 2, 84, 67
4, 835392, Note_off_c, 2, 80, 67
4, 835392, Note_off_c, 2, 84, 67
4, 835456, Note_off_c, 2, 80, 67
4, 835456, Note_off_c, 2, 84, 67
4, 835456, Note_on_c, 2, 70, 67
4, 835456, Note_on_c, 2, 74, 67
4, 835488, Note_off_c, 2, 70, 67
4, 835488, Note_off_c, 2, 74, 67
4, 835520, Note_off_c, 2, 70, 67
4, 835520, Note_off_c, 2, 74, 67
4, 835520, Note_on_c, 2, 77, 67
4, 835520, Note_on_c, 2, 80, 67
4, 835552, Note_off_c, 2, 77, 67
4, 835552, Note_off_c, 2, 80, 67
4, 835584, Note_off_c, 2, 77, 67
4, 835584, Note_off_c, 2, 80, 67
4, 835584, Note_on_c, 2, 77, 67
4, 835584, Note_on_c, 2, 82, 67
4, 835648, Note_off_c, 2, 77, 67
4, 835648, Note_off_c, 2, 82, 67
4, 835712, Note_off_c, 2, 77, 67
4, 835712, Note_off_c, 2, 82, 67
4, 835712, Note_on_c, 2, 80, 67
4, 835712, Note_on_c, 2, 87, 67
4, 835776, Note_off_c, 2, 80, 67
4, 835776, Note_off_c, 2, 87, 67
4, 835840, Note_off_c, 2, 80, 67
4, 835840, Note_off_c, 2, 87, 67
4, 835840, Note_on_c, 2, 82, 67
4, 835840, Note_on_c, 2, 86, 67
4, 835904, Note_off_c, 2, 82, 67
4, 835904, Note_off_c, 2, 86, 67
4, 835968, Note_off_c, 2, 82, 67
4, 835968, Note_off_c, 2, 86, 67
4, 835968, Note_on_c, 2, 80, 67
4, 835968, Note_on_c, 2, 89, 67
4, 836032, Note_off_c, 2, 80, 67
4, 836032, Note_off_c, 2, 89, 67
4, 836096, Note_off_c, 2, 80, 67
4, 836096, Note_off_c, 2, 89, 67
4, 836096, Note_on_c, 2, 79, 67
4, 836096, Note_on_c, 2, 87, 67
4, 836160, Note_off_c, 2, 79, 67
4, 836160, Note_off_c, 2, 87, 67
4, 836224, Note_off_c, 2, 79, 67
4, 836224, Note_off_c, 2, 87, 67
4, 836224, Note_on_c, 2, 70, 67
4, 836224, Note_on_c, 2, 82, 67
4, 836288, Note_off_c, 2, 70, 67
4, 836288, Note_off_c, 2, 82, 67
4, 836352, Note_off_c, 2, 70, 67
4, 836352, Note_off_c, 2, 82, 67
4, 836352, Note_on_c, 2, 70, 67
4, 836352, Note_on_c, 2, 82, 67
4, 836416, Note_off_c, 2, 70, 67
4, 836416, Note_off_c, 2, 82, 67
4, 836480, Note_off_c, 2, 70, 67
4, 836480, Note_off_c, 2, 82, 67
4, 836480, Note_on_c, 2, 75, 67
4, 836544, Note_off_c, 2, 75, 67
4, 836544, Note_on_c, 2, 77, 67
4, 836608, Note_off_c, 2, 77, 67
4, 836608, Note_on_c, 2, 79, 67
4, 836672, Note_off_c, 2, 79, 67
4, 836736, Note_off_c, 2, 79, 67
4, 836736, Note_on_c, 2, 75, 67
4, 836736, Note_on_c, 2, 79, 67
4, 836800, Note_off_c, 2, 75, 67
4, 836800, Note_off_c, 2, 79, 67
4, 836864, Note_off_c, 2, 75, 67
4, 836864, Note_off_c, 2, 79, 67
4, 836864, Note_on_c, 2, 75, 67
4, 836864, Note_on_c, 2, 79, 67
4, 836928, Note_off_c, 2, 75, 67
4, 836928, Note_off_c, 2, 79, 67
4, 836992, Note_off_c, 2, 75, 67
4, 836992, Note_off_c, 2, 79, 67
4, 836992, Note_on_c, 2, 75, 67
4, 837056, Note_off_c, 2, 75, 67
4, 837056, Note_on_c, 2, 77, 67
4, 837120, Note_off_c, 2, 77, 67
4, 837120, Note_on_c, 2, 79, 67
4, 837184, Note_off_c, 2, 79, 67
4, 837248, Note_off_c, 2, 79, 67
4, 837248, Note_on_c, 2, 75, 67
4, 837248, Note_on_c, 2, 79, 67
4, 837312, Note_off_c, 2, 75, 67
4, 837312, Note_off_c, 2, 79, 67
4, 837376, Note_off_c, 2, 75, 67
4, 837376, Note_off_c, 2, 79, 67
4, 837376, Note_on_c, 2, 75, 67
4, 837376, Note_on_c, 2, 79, 67
4, 837440, Note_off_c, 2, 75, 67
4, 837440, Note_off_c, 2, 79, 67
4, 837504, Note_off_c, 2, 75, 67
4, 837504, Note_off_c, 2, 79, 67
4, 837504, Note_on_c, 2, 75, 67
4, 837568, Note_off_c, 2, 75, 67
4, 837568, Note_on_c, 2, 77, 67
4, 837632, Note_off_c, 2, 77, 67
4, 837632, Note_on_c, 2, 79, 67
4, 837696, Note_off_c, 2, 79, 67
4, 837760, Note_off_c, 2, 79, 67
4, 837760, Note_on_c, 2, 75, 67
4, 837760, Note_on_c, 2, 79, 67
4, 837824, Note_off_c, 2, 75, 67
4, 837824, Note_off_c, 2, 79, 67
4, 837888, Note_off_c, 2, 75, 67
4, 837888, Note_off_c, 2, 79, 67
4, 837888, Note_on_c, 2, 75, 67
4, 837888, Note_on_c, 2, 80, 67
4, 837920, Note_off_c, 2, 75, 67
4, 837920, Note_off_c, 2, 80, 67
4, 837952, Note_off_c, 2, 75, 67
4, 837952, Note_off_c, 2, 80, 67
4, 837952, Note_on_c, 2, 74, 67
4, 837984, Note_off_c, 2, 74, 67
4, 838016, Note_off_c, 2, 74, 67
4, 838016, Note_on_c, 2, 72, 67
4, 838048, Note_off_c, 2, 72, 67
4, 838080, Note_off_c, 2, 72, 67
4, 838080, Note_on_c, 2, 74, 67
4, 838080, Note_on_c, 2, 79, 67
4, 838112, Note_off_c, 2, 74, 67
4, 838112, Note_off_c, 2, 79, 67
4, 838144, Note_off_c, 2, 74, 67
4, 838144, Note_off_c, 2, 79, 67
4, 838144, Note_on_c, 2, 70, 67
4, 838144, Note_on_c, 2, 77, 67
4, 838208, Note_off_c, 2, 70, 67
4, 838208, Note_off_c, 2, 77, 67
4, 838272, Note_off_c, 2, 70, 67
4, 838272, Note_off_c, 2, 77, 67
4, 838272, Note_on_c, 2, 68, 67
4, 838272, Note_on_c, 2, 70, 67
4, 838336, Note_off_c, 2, 68, 67
4, 838336, Note_off_c, 2, 70, 67
4, 838400, Note_off_c, 2, 68, 67
4, 838400, Note_off_c, 2, 70, 67
4, 838400, Note_on_c, 2, 68, 67
4, 838400, Note_on_c, 2, 70, 67
4, 838464, Note_off_c, 2, 68, 67
4, 838464, Note_off_c, 2, 70, 67
4, 838528, Note_off_c, 2, 68, 67
4, 838528, Note_off_c, 2, 70, 67
4, 838528, Note_on_c, 2, 74, 67
4, 838592, Note_off_c, 2, 74, 67
4, 838592, Note_on_c, 2, 75, 67
4, 838656, Note_off_c, 2, 75, 67
4, 838656, Note_on_c, 2, 77, 67
4, 838720, Note_off_c, 2, 77, 67
4, 838784, Note_off_c, 2, 77, 67
4, 838784, Note_on_c, 2, 74, 67
4, 838784, Note_on_c, 2, 77, 67
4, 838848, Note_off_c, 2, 74, 67
4, 838848, Note_off_c, 2, 77, 67
4, 838912, Note_off_c, 2, 74, 67
4, 838912, Note_off_c, 2, 77, 67
4, 838912, Note_on_c, 2, 74, 67
4, 838912, Note_on_c, 2, 77, 67
4, 838976, Note_off_c, 2, 74, 67
4, 838976, Note_off_c, 2, 77, 67
4, 839040, Note_off_c, 2, 74, 67
4, 839040, Note_off_c, 2, 77, 67
4, 839040, Note_on_c, 2, 74, 67
4, 839104, Note_off_c, 2, 74, 67
4, 839104, Note_on_c, 2, 75, 67
4, 839168, Note_off_c, 2, 75, 67
4, 839168, Note_on_c, 2, 77, 67
4, 839232, Note_off_c, 2, 77, 67
4, 839296, Note_off_c, 2, 77, 67
4, 839296, Note_on_c, 2, 74, 67
4, 839296, Note_on_c, 2, 77, 67
4, 839360, Note_off_c, 2, 74, 67
4, 839360, Note_off_c, 2, 77, 67
4, 839424, Note_off_c, 2, 74, 67
4, 839424, Note_off_c, 2, 77, 67
4, 839424, Note_on_c, 2, 74, 67
4, 839424, Note_on_c, 2, 77, 67
4, 839488, Note_off_c, 2, 74, 67
4, 839488, Note_off_c, 2, 77, 67
4, 839552, Note_off_c, 2, 74, 67
4, 839552, Note_off_c, 2, 77, 67
4, 839552, Note_on_c, 2, 74, 67
4, 839616, Note_off_c, 2, 74, 67
4, 839616, Note_on_c, 2, 75, 67
4, 839680, Note_off_c, 2, 75, 67
4, 839680, Note_on_c, 2, 70, 67
4, 839680, Note_on_c, 2, 77, 67
4, 839744, Note_off_c, 2, 70, 67
4, 839744, Note_off_c, 2, 77, 67
4, 839808, Note_off_c, 2, 70, 67
4, 839808, Note_off_c, 2, 77, 67
4, 839808, Note_on_c, 2, 74, 67
4, 839808, Note_on_c, 2, 77, 67
4, 839872, Note_off_c, 2, 74, 67
4, 839872, Note_off_c, 2, 77, 67
4, 839936, Note_off_c, 2, 74, 67
4, 839936, Note_off_c, 2, 77, 67
4, 839936, Note_on_c, 2, 74, 67
4, 839936, Note_on_c, 2, 79, 67
4, 839968, Note_off_c, 2, 74, 67
4, 839968, Note_off_c, 2, 79, 67
4, 840000, Note_off_c, 2, 74, 67
4, 840000, Note_off_c, 2, 79, 67
4, 840000, Note_on_c, 2, 72, 67
4, 840000, Note_on_c, 2, 77, 67
4, 840032, Note_off_c, 2, 72, 67
4, 840032, Note_off_c, 2, 77, 67
4, 840064, Note_off_c, 2, 72, 67
4, 840064, Note_off_c, 2, 77, 67
4, 840064, Note_on_c, 2, 70, 67
4, 840064, Note_on_c, 2, 77, 67
4, 840096, Note_off_c, 2, 70, 67
4, 840096, Note_off_c, 2, 77, 67
4, 840128, Note_off_c, 2, 70, 67
4, 840128, Note_off_c, 2, 77, 67
4, 840128, Note_on_c, 2, 68, 67
4, 840128, Note_on_c, 2, 79, 67
4, 840160, Note_off_c, 2, 68, 67
4, 840160, Note_off_c, 2, 79, 67
4, 840192, Note_off_c, 2, 68, 67
4, 840192, Note_off_c, 2, 79, 67
4, 840192, Note_on_c, 2, 67, 67
4, 840192, Note_on_c, 2, 75, 67
4, 840256, Note_off_c, 2, 67, 67
4, 840256, Note_off_c, 2, 75, 67
4, 840320, Note_off_c, 2, 67, 67
4, 840320, Note_off_c, 2, 75, 67
4, 840320, Note_on_c, 2, 70, 67
4, 840384, Note_off_c, 2, 70, 67
4, 840448, Note_off_c, 2, 70, 67
4, 840448, Note_on_c, 2, 70, 67
4, 840448, Note_on_c, 2, 79, 67
4, 840512, Note_off_c, 2, 70, 67
4, 840512, Note_off_c, 2, 79, 67
4, 840576, Note_off_c, 2, 70, 67
4, 840576, Note_off_c, 2, 79, 67
4, 840576, Note_on_c, 2, 75, 67
4, 840640, Note_off_c, 2, 75, 67
4, 840640, Note_on_c, 2, 77, 67
4, 840704, Note_off_c, 2, 77, 67
4, 840704, Note_on_c, 2, 79, 67
4, 840768, Note_off_c, 2, 79, 67
4, 840832, Note_off_c, 2, 79, 67
4, 840832, Note_on_c, 2, 75, 67
4, 840832, Note_on_c, 2, 79, 67
4, 840896, Note_off_c, 2, 75, 67
4, 840896, Note_off_c, 2, 79, 67
4, 840960, Note_off_c, 2, 75, 67
4, 840960, Note_off_c, 2, 79, 67
4, 840960, Note_on_c, 2, 75, 67
4, 840960, Note_on_c, 2, 79, 67
4, 841024, Note_off_c, 2, 75, 67
4, 841024, Note_off_c, 2, 79, 67
4, 841088, Note_off_c, 2, 75, 67
4, 841088, Note_off_c, 2, 79, 67
4, 841088, Note_on_c, 2, 75, 67
4, 841152, Note_off_c, 2, 75, 67
4, 841152, Note_on_c, 2, 77, 67
4, 841216, Note_off_c, 2, 77, 67
4, 841216, Note_on_c, 2, 79, 67
4, 841280, Note_off_c, 2, 79, 67
4, 841344, Note_off_c, 2, 79, 67
4, 841344, Note_on_c, 2, 75, 67
4, 841344, Note_on_c, 2, 79, 67
4, 841408, Note_off_c, 2, 75, 67
4, 841408, Note_off_c, 2, 79, 67
4, 841472, Note_off_c, 2, 75, 67
4, 841472, Note_off_c, 2, 79, 67
4, 841472, Note_on_c, 2, 75, 67
4, 841472, Note_on_c, 2, 79, 67
4, 841536, Note_off_c, 2, 75, 67
4, 841536, Note_off_c, 2, 79, 67
4, 841600, Note_off_c, 2, 75, 67
4, 841600, Note_off_c, 2, 79, 67
4, 841600, Note_on_c, 2, 75, 67
4, 841664, Note_off_c, 2, 75, 67
4, 841664, Note_on_c, 2, 77, 67
4, 841728, Note_off_c, 2, 77, 67
4, 841728, Note_on_c, 2, 79, 67
4, 841792, Note_off_c, 2, 79, 67
4, 841856, Note_off_c, 2, 79, 67
4, 841856, Note_on_c, 2, 75, 67
4, 841856, Note_on_c, 2, 79, 67
4, 841920, Note_off_c, 2, 75, 67
4, 841920, Note_off_c, 2, 79, 67
4, 841984, Note_off_c, 2, 75, 67
4, 841984, Note_off_c, 2, 79, 67
4, 841984, Note_on_c, 2, 75, 67
4, 841984, Note_on_c, 2, 80, 67
4, 842016, Note_off_c, 2, 75, 67
4, 842016, Note_off_c, 2, 80, 67
4, 842048, Note_off_c, 2, 75, 67
4, 842048, Note_off_c, 2, 80, 67
4, 842048, Note_on_c, 2, 74, 67
4, 842112, Note_off_c, 2, 74, 67
4, 842112, Note_on_c, 2, 72, 67
4, 842176, Note_off_c, 2, 72, 67
4, 842176, Note_on_c, 2, 74, 67
4, 842176, Note_on_c, 2, 79, 67
4, 842208, Note_off_c, 2, 74, 67
4, 842208, Note_off_c, 2, 79, 67
4, 842240, Note_off_c, 2, 74, 67
4, 842240, Note_off_c, 2, 79, 67
4, 842240, Note_on_c, 2, 70, 67
4, 842240, Note_on_c, 2, 77, 67
4, 842304, Note_off_c, 2, 70, 67
4, 842304, Note_off_c, 2, 77, 67
4, 842368, Note_off_c, 2, 70, 67
4, 842368, Note_off_c, 2, 77, 67
4, 842368, Note_on_c, 2, 68, 67
4, 842368, Note_on_c, 2, 70, 67
4, 842432, Note_off_c, 2, 68, 67
4, 842432, Note_off_c, 2, 70, 67
4, 842496, Note_off_c, 2, 68, 67
4, 842496, Note_off_c, 2, 70, 67
4, 842496, Note_on_c, 2, 68, 67
4, 842496, Note_on_c, 2, 70, 67
4, 842560, Note_off_c, 2, 68, 67
4, 842560, Note_off_c, 2, 70, 67
4, 842624, Note_off_c, 2, 68, 67
4, 842624, Note_off_c, 2, 70, 67
4, 842624, Note_on_c, 2, 74, 67
4, 842688, Note_off_c, 2, 74, 67
4, 842688, Note_on_c, 2, 75, 67
4, 842752, Note_off_c, 2, 75, 67
4, 842752, Note_on_c, 2, 77, 67
4, 842880, Note_off_c, 2, 77, 67
4, 842880, Note_on_c, 2, 74, 67
4, 842880, Note_on_c, 2, 80, 67
4, 842944, Note_off_c, 2, 74, 67
4, 842944, Note_off_c, 2, 80, 67
4, 843008, Note_off_c, 2, 74, 67
4, 843008, Note_off_c, 2, 80, 67
4, 843008, Note_on_c, 2, 74, 67
4, 843008, Note_on_c, 2, 79, 67
4, 843072, Note_off_c, 2, 74, 67
4, 843072, Note_off_c, 2, 79, 67
4, 843136, Note_off_c, 2, 74, 67
4, 843136, Note_off_c, 2, 79, 67
4, 843136, Note_on_c, 2, 77, 67
4, 843200, Note_off_c, 2, 77, 67
4, 843264, Note_off_c, 2, 77, 67
4, 843264, Note_on_c, 2, 75, 67
4, 843328, Note_off_c, 2, 75, 67
4, 843392, Note_off_c, 2, 75, 67
4, 843392, Note_on_c, 2, 70, 67
4, 843392, Note_on_c, 2, 74, 67
4, 843456, Note_off_c, 2, 70, 67
4, 843456, Note_off_c, 2, 74, 67
4, 843520, Note_off_c, 2, 70, 67
4, 843520, Note_off_c, 2, 74, 67
4, 843520, Note_on_c, 2, 72, 67
4, 843520, Note_on_c, 2, 74, 67
4, 843584, Note_off_c, 2, 72, 67
4, 843584, Note_off_c, 2, 74, 67
4, 843648, Note_off_c, 2, 72, 67
4, 843648, Note_off_c, 2, 74, 67
4, 843648, Note_on_c, 2, 70, 67
4, 843648, Note_on_c, 2, 74, 67
4, 843712, Note_off_c, 2, 70, 67
4, 843712, Note_off_c, 2, 74, 67
4, 843776, Note_off_c, 2, 70, 67
4, 843776, Note_off_c, 2, 74, 67
4, 843776, Note_on_c, 2, 80, 67
4, 843776, Note_on_c, 2, 84, 67
4, 844032, Note_off_c, 2, 80, 67
4, 844032, Note_off_c, 2, 84, 67
4, 844032, Note_on_c, 2, 70, 67
4, 844032, Note_on_c, 2, 74, 67
4, 844048, Note_off_c, 2, 70, 67
4, 844048, Note_off_c, 2, 74, 67
4, 844064, Note_off_c, 2, 70, 67
4, 844064, Note_off_c, 2, 74, 67
4, 844064, Note_on_c, 2, 72, 67
4, 844064, Note_on_c, 2, 75, 67
4, 844080, Note_off_c, 2, 72, 67
4, 844080, Note_off_c, 2, 75, 67
4, 844096, Note_off_c, 2, 72, 67
4, 844096, Note_off_c, 2, 75, 67
4, 844096, Note_on_c, 2, 70, 67
4, 844096, Note_on_c, 2, 74, 67
4, 844128, Note_off_c, 2, 70, 67
4, 844128, Note_off_c, 2, 74, 67
4, 844160, Note_off_c, 2, 70, 67
4, 844160, Note_off_c, 2, 74, 67
4, 844160, Note_on_c, 2, 68, 67
4, 844160, Note_on_c, 2, 72, 67
4, 844192, Note_off_c, 2, 68, 67
4, 844192, Note_off_c, 2, 72, 67
4, 844224, Note_off_c, 2, 68, 67
4, 844224, Note_off_c, 2, 72, 67
4, 844224, Note_on_c, 2, 74, 67
4, 844224, Note_on_c, 2, 77, 67
4, 844256, Note_off_c, 2, 74, 67
4, 844256, Note_off_c, 2, 77, 67
4, 844288, Note_off_c, 2, 74, 67
4, 844288, Note_off_c, 2, 77, 67
4, 844288, Note_on_c, 2, 75, 67
4, 844288, Note_on_c, 2, 79, 67
4, 844416, Note_off_c, 2, 75, 67
4, 844416, Note_off_c, 2, 79, 67
4, 844416, Note_on_c, 2, 70, 67
4, 844480, Note_off_c, 2, 70, 67
4, 844544, Note_off_c, 2, 70, 67
4, 844544, Note_on_c, 2, 70, 67
4, 844608, Note_off_c, 2, 70, 67
4, 844672, Note_off_c, 2, 70, 67
4, 844672, Note_on_c, 2, 75, 67
4, 844672, Note_on_c, 2, 79, 67
4, 844736, Note_off_c, 2, 75, 67
4, 844736, Note_off_c, 2, 79, 67
4, 844736, Note_on_c, 2, 77, 67
4, 844736, Note_on_c, 2, 80, 67
4, 844800, Note_off_c, 2, 77, 67
4, 844800, Note_off_c, 2, 80, 67
4, 844800, Note_on_c, 2, 79, 67
4, 844800, Note_on_c, 2, 82, 67
4, 844864, Note_off_c, 2, 79, 67
4, 844864, Note_off_c, 2, 82, 67
4, 844928, Note_off_c, 2, 79, 67
4, 844928, Note_off_c, 2, 82, 67
4, 844928, Note_on_c, 2, 79, 67
4, 844928, Note_on_c, 2, 82, 67
4, 844992, Note_off_c, 2, 79, 67
4, 844992, Note_off_c, 2, 82, 67
4, 845056, Note_off_c, 2, 79, 67
4, 845056, Note_off_c, 2, 82, 67
4, 845056, Note_on_c, 2, 70, 67
4, 845056, Note_on_c, 2, 79, 67
4, 845120, Note_off_c, 2, 70, 67
4, 845120, Note_off_c, 2, 79, 67
4, 845184, Note_off_c, 2, 70, 67
4, 845184, Note_off_c, 2, 79, 67
4, 845184, Note_on_c, 2, 70, 67
4, 845184, Note_on_c, 2, 75, 67
4, 845248, Note_off_c, 2, 70, 67
4, 845248, Note_off_c, 2, 75, 67
4, 845312, Note_off_c, 2, 70, 67
4, 845312, Note_off_c, 2, 75, 67
4, 845312, Note_on_c, 2, 84, 67
4, 845312, Note_on_c, 2, 87, 67
4, 845376, Note_off_c, 2, 84, 67
4, 845376, Note_off_c, 2, 87, 67
4, 845440, Note_off_c, 2, 84, 67
4, 845440, Note_off_c, 2, 87, 67
4, 845440, Note_on_c, 2, 82, 67
4, 845440, Note_on_c, 2, 86, 67
4, 845504, Note_off_c, 2, 82, 67
4, 845504, Note_off_c, 2, 86, 67
4, 845568, Note_off_c, 2, 82, 67
4, 845568, Note_off_c, 2, 86, 67
4, 845568, Note_on_c, 2, 80, 67
4, 845568, Note_on_c, 2, 84, 67
4, 845632, Note_off_c, 2, 80, 67
4, 845632, Note_off_c, 2, 84, 67
4, 845696, Note_off_c, 2, 80, 67
4, 845696, Note_off_c, 2, 84, 67
4, 845696, Note_on_c, 2, 79, 67
4, 845696, Note_on_c, 2, 87, 67
4, 845760, Note_off_c, 2, 79, 67
4, 845760, Note_off_c, 2, 87, 67
4, 845824, Note_off_c, 2, 79, 67
4, 845824, Note_off_c, 2, 87, 67
4, 845824, Note_on_c, 2, 75, 67
4, 845824, Note_on_c, 2, 82, 67
4, 845888, Note_off_c, 2, 75, 67
4, 845888, Note_off_c, 2, 82, 67
4, 845952, Note_off_c, 2, 75, 67
4, 845952, Note_off_c, 2, 82, 67
4, 845952, Note_on_c, 2, 79, 67
4, 846016, Note_off_c, 2, 79, 67
4, 846080, Note_off_c, 2, 79, 67
4, 846080, Note_on_c, 2, 67, 67
4, 846080, Note_on_c, 2, 75, 67
4, 846144, Note_off_c, 2, 67, 67
4, 846144, Note_off_c, 2, 75, 67
4, 846208, Note_off_c, 2, 67, 67
4, 846208, Note_off_c, 2, 75, 67
4, 846208, Note_on_c, 2, 68, 67
4, 846208, Note_on_c, 2, 74, 67
4, 846240, Note_off_c, 2, 68, 67
4, 846240, Note_off_c, 2, 74, 67
4, 846272, Note_off_c, 2, 68, 67
4, 846272, Note_off_c, 2, 74, 67
4, 846272, Note_on_c, 2, 74, 67
4, 846272, Note_on_c, 2, 79, 67
4, 846304, Note_off_c, 2, 74, 67
4, 846304, Note_off_c, 2, 79, 67
4, 846336, Note_off_c, 2, 74, 67
4, 846336, Note_off_c, 2, 79, 67
4, 846336, Note_on_c, 2, 70, 67
4, 846336, Note_on_c, 2, 77, 67
4, 846400, Note_off_c, 2, 70, 67
4, 846400, Note_off_c, 2, 77, 67
4, 846464, Note_off_c, 2, 70, 67
4, 846464, Note_off_c, 2, 77, 67
4, 846464, Note_on_c, 2, 65, 67
4, 846464, Note_on_c, 2, 70, 67
4, 846528, Note_off_c, 2, 65, 67
4, 846528, Note_off_c, 2, 70, 67
4, 846592, Note_off_c, 2, 65, 67
4, 846592, Note_off_c, 2, 70, 67
4, 846592, Note_on_c, 2, 68, 67
4, 846592, Note_on_c, 2, 70, 67
4, 846656, Note_off_c, 2, 68, 67
4, 846656, Note_off_c, 2, 70, 67
4, 846720, Note_off_c, 2, 68, 67
4, 846720, Note_off_c, 2, 70, 67
4, 846720, Note_on_c, 2, 70, 67
4, 846720, Note_on_c, 2, 79, 67
4, 846784, Note_off_c, 2, 70, 67
4, 846784, Note_off_c, 2, 79, 67
4, 846784, Note_on_c, 2, 77, 67
4, 846784, Note_on_c, 2, 80, 67
4, 846848, Note_off_c, 2, 77, 67
4, 846848, Note_off_c, 2, 80, 67
4, 846848, Note_on_c, 2, 79, 67
4, 846848, Note_on_c, 2, 82, 67
4, 846912, Note_off_c, 2, 79, 67
4, 846912, Note_off_c, 2, 82, 67
4, 846976, Note_off_c, 2, 79, 67
4, 846976, Note_off_c, 2, 82, 67
4, 846976, Note_on_c, 2, 79, 67
4, 846976, Note_on_c, 2, 82, 67
4, 847040, Note_off_c, 2, 79, 67
4, 847040, Note_off_c, 2, 82, 67
4, 847104, Note_off_c, 2, 79, 67
4, 847104, Note_off_c, 2, 82, 67
4, 847104, Note_on_c, 2, 70, 67
4, 847104, Note_on_c, 2, 79, 67
4, 847168, Note_off_c, 2, 70, 67
4, 847168, Note_off_c, 2, 79, 67
4, 847232, Note_off_c, 2, 70, 67
4, 847232, Note_off_c, 2, 79, 67
4, 847232, Note_on_c, 2, 75, 67
4, 847232, Note_on_c, 2, 82, 67
4, 847296, Note_off_c, 2, 75, 67
4, 847296, Note_off_c, 2, 82, 67
4, 847360, Note_off_c, 2, 75, 67
4, 847360, Note_off_c, 2, 82, 67
4, 847360, Note_on_c, 2, 84, 67
4, 847360, Note_on_c, 2, 87, 67
4, 847424, Note_off_c, 2, 84, 67
4, 847424, Note_off_c, 2, 87, 67
4, 847488, Note_off_c, 2, 84, 67
4, 847488, Note_off_c, 2, 87, 67
4, 847488, Note_on_c, 2, 82, 67
4, 847488, Note_on_c, 2, 86, 67
4, 847552, Note_off_c, 2, 82, 67
4, 847552, Note_off_c, 2, 86, 67
4, 847616, Note_off_c, 2, 82, 67
4, 847616, Note_off_c, 2, 86, 67
4, 847616, Note_on_c, 2, 80, 67
4, 847616, Note_on_c, 2, 84, 67
4, 847680, Note_off_c, 2, 80, 67
4, 847680, Note_off_c, 2, 84, 67
4, 847744, Note_off_c, 2, 80, 67
4, 847744, Note_off_c, 2, 84, 67
4, 847744, Note_on_c, 2, 70, 67
4, 847744, Note_on_c, 2, 74, 67
4, 847776, Note_off_c, 2, 70, 67
4, 847776, Note_off_c, 2, 74, 67
4, 847808, Note_off_c, 2, 70, 67
4, 847808, Note_off_c, 2, 74, 67
4, 847808, Note_on_c, 2, 77, 67
4, 847808, Note_on_c, 2, 80, 67
4, 847840, Note_off_c, 2, 77, 67
4, 847840, Note_off_c, 2, 80, 67
4, 847872, Note_off_c, 2, 77, 67
4, 847872, Note_off_c, 2, 80, 67
4, 847872, Note_on_c, 2, 77, 67
4, 847872, Note_on_c, 2, 82, 67
4, 847936, Note_off_c, 2, 77, 67
4, 847936, Note_off_c, 2, 82, 67
4, 848000, Note_off_c, 2, 77, 67
4, 848000, Note_off_c, 2, 82, 67
4, 848000, Note_on_c, 2, 80, 67
4, 848000, Note_on_c, 2, 87, 67
4, 848064, Note_off_c, 2, 80, 67
4, 848064, Note_off_c, 2, 87, 67
4, 848128, Note_off_c, 2, 80, 67
4, 848128, Note_off_c, 2, 87, 67
4, 848128, Note_on_c, 2, 82, 67
4, 848128, Note_on_c, 2, 86, 67
4, 848192, Note_off_c, 2, 82, 67
4, 848192, Note_off_c, 2, 86, 67
4, 848256, Note_off_c, 2, 82, 67
4, 848256, Note_off_c, 2, 86, 67
4, 848256, Note_on_c, 2, 80, 67
4, 848256, Note_on_c, 2, 89, 67
4, 848320, Note_off_c, 2, 80, 67
4, 848320, Note_off_c, 2, 89, 67
4, 848384, Note_off_c, 2, 80, 67
4, 848384, Note_off_c, 2, 89, 67
4, 848384, Note_on_c, 2, 79, 67
4, 848384, Note_on_c, 2, 87, 67
4, 848448, Note_off_c, 2, 79, 67
4, 848448, Note_off_c, 2, 87, 67
4, 848512, Note_off_c, 2, 79, 67
4, 848512, Note_off_c, 2, 87, 67
4, 848512, Note_on_c, 2, 70, 67
4, 848512, Note_on_c, 2, 82, 67
4, 848576, Note_off_c, 2, 70, 67
4, 848576, Note_off_c, 2, 82, 67
4, 848640, Note_off_c, 2, 70, 67
4, 848640, Note_off_c, 2, 82, 67
4, 848640, Note_on_c, 2, 70, 67
4, 848640, Note_on_c, 2, 82, 67
4, 848704, Note_off_c, 2, 70, 67
4, 848704, Note_off_c, 2, 82, 67
4, 848768, Note_off_c, 2, 70, 67
4, 848768, Note_off_c, 2, 82, 67
4, 848768, Note_on_c, 2, 75, 67
4, 848832, Note_off_c, 2, 75, 67
4, 848832, Note_on_c, 2, 77, 67
4, 848896, Note_off_c, 2, 77, 67
4, 848896, Note_on_c, 2, 79, 67
4, 848960, Note_off_c, 2, 79, 67
4, 849024, Note_off_c, 2, 79, 67
4, 849024, Note_on_c, 2, 75, 67
4, 849024, Note_on_c, 2, 79, 67
4, 849088, Note_off_c, 2, 75, 67
4, 849088, Note_off_c, 2, 79, 67
4, 849152, Note_off_c, 2, 75, 67
4, 849152, Note_off_c, 2, 79, 67
4, 849152, Note_on_c, 2, 75, 67
4, 849152, Note_on_c, 2, 79, 67
4, 849216, Note_off_c, 2, 75, 67
4, 849216, Note_off_c, 2, 79, 67
4, 849280, Note_off_c, 2, 75, 67
4, 849280, Note_off_c, 2, 79, 67
4, 849280, Note_on_c, 2, 75, 67
4, 849344, Note_off_c, 2, 75, 67
4, 849344, Note_on_c, 2, 77, 67
4, 849408, Note_off_c, 2, 77, 67
4, 849408, Note_on_c, 2, 79, 67
4, 849472, Note_off_c, 2, 79, 67
4, 849536, Note_off_c, 2, 79, 67
4, 849536, Note_on_c, 2, 75, 67
4, 849536, Note_on_c, 2, 79, 67
4, 849600, Note_off_c, 2, 75, 67
4, 849600, Note_off_c, 2, 79, 67
4, 849664, Note_off_c, 2, 75, 67
4, 849664, Note_off_c, 2, 79, 67
4, 849664, Note_on_c, 2, 75, 67
4, 849664, Note_on_c, 2, 79, 67
4, 849728, Note_off_c, 2, 75, 67
4, 849728, Note_off_c, 2, 79, 67
4, 849792, Note_off_c, 2, 75, 67
4, 849792, Note_off_c, 2, 79, 67
4, 849792, Note_on_c, 2, 75, 67
4, 849856, Note_off_c, 2, 75, 67
4, 849856, Note_on_c, 2, 77, 67
4, 849920, Note_off_c, 2, 77, 67
4, 849920, Note_on_c, 2, 79, 67
4, 849984, Note_off_c, 2, 79, 67
4, 850048, Note_off_c, 2, 79, 67
4, 850048, Note_on_c, 2, 75, 67
4, 850048, Note_on_c, 2, 79, 67
4, 850112, Note_off_c, 2, 75, 67
4, 850112, Note_off_c, 2, 79, 67
4, 850176, Note_off_c, 2, 75, 67
4, 850176, Note_off_c, 2, 79, 67
4, 850176, Note_on_c, 2, 75, 67
4, 850176, Note_on_c, 2, 80, 67
4, 850208, Note_off_c, 2, 75, 67
4, 850208, Note_off_c, 2, 80, 67
4, 850240, Note_off_c, 2, 75, 67
4, 850240, Note_off_c, 2, 80, 67
4, 850240, Note_on_c, 2, 74, 67
4, 850272, Note_off_c, 2, 74, 67
4, 850304, Note_off_c, 2, 74, 67
4, 850304, Note_on_c, 2, 72, 67
4, 850336, Note_off_c, 2, 72, 67
4, 850368, Note_off_c, 2, 72, 67
4, 850368, Note_on_c, 2, 74, 67
4, 850368, Note_on_c, 2, 79, 67
4, 850400, Note_off_c, 2, 74, 67
4, 850400, Note_off_c, 2, 79, 67
4, 850432, Note_off_c, 2, 74, 67
4, 850432, Note_off_c, 2, 79, 67
4, 850432, Note_on_c, 2, 70, 67
4, 850432, Note_on_c, 2, 77, 67
4, 850496, Note_off_c, 2, 70, 67
4, 850496, Note_off_c, 2, 77, 67
4, 850560, Note_off_c, 2, 70, 67
4, 850560, Note_off_c, 2, 77, 67
4, 850560, Note_on_c, 2, 68, 67
4, 850560, Note_on_c, 2, 70, 67
4, 850624, Note_off_c, 2, 68, 67
4, 850624, Note_off_c, 2, 70, 67
4, 850688, Note_off_c, 2, 68, 67
4, 850688, Note_off_c, 2, 70, 67
4, 850688, Note_on_c, 2, 68, 67
4, 850688, Note_on_c, 2, 70, 67
4, 850752, Note_off_c, 2, 68, 67
4, 850752, Note_off_c, 2, 70, 67
4, 850816, Note_off_c, 2, 68, 67
4, 850816, Note_off_c, 2, 70, 67
4, 850816, Note_on_c, 2, 74, 67
4, 850880, Note_off_c, 2, 74, 67
4, 850880, Note_on_c, 2, 75, 67
4, 850944, Note_off_c, 2, 75, 67
4, 850944, Note_on_c, 2, 77, 67
4, 851008, Note_off_c, 2, 77, 67
4, 851072, Note_off_c, 2, 77, 67
4, 851072, Note_on_c, 2, 74, 67
4, 851072, Note_on_c, 2, 77, 67
4, 851136, Note_off_c, 2, 74, 67
4, 851136, Note_off_c, 2, 77, 67
4, 851200, Note_off_c, 2, 74, 67
4, 851200, Note_off_c, 2, 77, 67
4, 851200, Note_on_c, 2, 74, 67
4, 851200, Note_on_c, 2, 77, 67
4, 851264, Note_off_c, 2, 74, 67
4, 851264, Note_off_c, 2, 77, 67
4, 851328, Note_off_c, 2, 74, 67
4, 851328, Note_off_c, 2, 77, 67
4, 851328, Note_on_c, 2, 74, 67
4, 851392, Note_off_c, 2, 74, 67
4, 851392, Note_on_c, 2, 75, 67
4, 851456, Note_off_c, 2, 75, 67
4, 851456, Note_on_c, 2, 77, 67
4, 851520, Note_off_c, 2, 77, 67
4, 851584, Note_off_c, 2, 77, 67
4, 851584, Note_on_c, 2, 74, 67
4, 851584, Note_on_c, 2, 77, 67
4, 851648, Note_off_c, 2, 74, 67
4, 851648, Note_off_c, 2, 77, 67
4, 851712, Note_off_c, 2, 74, 67
4, 851712, Note_off_c, 2, 77, 67
4, 851712, Note_on_c, 2, 74, 67
4, 851712, Note_on_c, 2, 77, 67
4, 851776, Note_off_c, 2, 74, 67
4, 851776, Note_off_c, 2, 77, 67
4, 851840, Note_off_c, 2, 74, 67
4, 851840, Note_off_c, 2, 77, 67
4, 851840, Note_on_c, 2, 74, 67
4, 851904, Note_off_c, 2, 74, 67
4, 851904, Note_on_c, 2, 75, 67
4, 851968, Note_off_c, 2, 75, 67
4, 851968, Note_on_c, 2, 70, 67
4, 851968, Note_on_c, 2, 77, 67
4, 852032, Note_off_c, 2, 70, 67
4, 852032, Note_off_c, 2, 77, 67
4, 852096, Note_off_c, 2, 70, 67
4, 852096, Note_off_c, 2, 77, 67
4, 852096, Note_on_c, 2, 74, 67
4, 852096, Note_on_c, 2, 77, 67
4, 852160, Note_off_c, 2, 74, 67
4, 852160, Note_off_c, 2, 77, 67
4, 852224, Note_off_c, 2, 74, 67
4, 852224, Note_off_c, 2, 77, 67
4, 852224, Note_on_c, 2, 74, 67
4, 852224, Note_on_c, 2, 79, 67
4, 852256, Note_off_c, 2, 74, 67
4, 852256, Note_off_c, 2, 79, 67
4, 852288, Note_off_c, 2, 74, 67
4, 852288, Note_off_c, 2, 79, 67
4, 852288, Note_on_c, 2, 72, 67
4, 852288, Note_on_c, 2, 77, 67
4, 852320, Note_off_c, 2, 72, 67
4, 852320, Note_off_c, 2, 77, 67
4, 852352, Note_off_c, 2, 72, 67
4, 852352, Note_off_c, 2, 77, 67
4, 852352, Note_on_c, 2, 70, 67
4, 852352, Note_on_c, 2, 77, 67
4, 852384, Note_off_c, 2, 70, 67
4, 852384, Note_off_c, 2, 77, 67
4, 852416, Note_off_c, 2, 70, 67
4, 852416, Note_off_c, 2, 77, 67
4, 852416, Note_on_c, 2, 68, 67
4, 852416, Note_on_c, 2, 79, 67
4, 852448, Note_off_c, 2, 68, 67
4, 852448, Note_off_c, 2, 79, 67
4, 852480, Note_off_c, 2, 68, 67
4, 852480, Note_off_c, 2, 79, 67
4, 852480, Note_on_c, 2, 67, 67
4, 852480, Note_on_c, 2, 75, 67
4, 852544, Note_off_c, 2, 67, 67
4, 852544, Note_off_c, 2, 75, 67
4, 852608, Note_off_c, 2, 67, 67
4, 852608, Note_off_c, 2, 75, 67
4, 852608, Note_on_c, 2, 70, 67
4, 852672, Note_off_c, 2, 70, 67
4, 852736, Note_off_c, 2, 70, 67
4, 852736, Note_on_c, 2, 70, 67
4, 852736, Note_on_c, 2, 79, 67
4, 852800, Note_off_c, 2, 70, 67
4, 852800, Note_off_c, 2, 79, 67
4, 852864, Note_off_c, 2, 70, 67
4, 852864, Note_off_c, 2, 79, 67
4, 852864, Note_on_c, 2, 75, 67
4, 852928, Note_off_c, 2, 75, 67
4, 852928, Note_on_c, 2, 77, 67
4, 852992, Note_off_c, 2, 77, 67
4, 852992, Note_on_c, 2, 79, 67
4, 853056, Note_off_c, 2, 79, 67
4, 853120, Note_off_c, 2, 79, 67
4, 853120, Note_on_c, 2, 75, 67
4, 853120, Note_on_c, 2, 79, 67
4, 853184, Note_off_c, 2, 75, 67
4, 853184, Note_off_c, 2, 79, 67
4, 853248, Note_off_c, 2, 75, 67
4, 853248, Note_off_c, 2, 79, 67
4, 853248, Note_on_c, 2, 75, 67
4, 853248, Note_on_c, 2, 79, 67
4, 853312, Note_off_c, 2, 75, 67
4, 853312, Note_off_c, 2, 79, 67
4, 853376, Note_off_c, 2, 75, 67
4, 853376, Note_off_c, 2, 79, 67
4, 853376, Note_on_c, 2, 75, 67
4, 853440, Note_off_c, 2, 75, 67
4, 853440, Note_on_c, 2, 77, 67
4, 853504, Note_off_c, 2, 77, 67
4, 853504, Note_on_c, 2, 79, 67
4, 853568, Note_off_c, 2, 79, 67
4, 853632, Note_off_c, 2, 79, 67
4, 853632, Note_on_c, 2, 75, 67
4, 853632, Note_on_c, 2, 79, 67
4, 853696, Note_off_c, 2, 75, 67
4, 853696, Note_off_c, 2, 79, 67
4, 853760, Note_off_c, 2, 75, 67
4, 853760, Note_off_c, 2, 79, 67
4, 853760, Note_on_c, 2, 75, 67
4, 853760, Note_on_c, 2, 79, 67
4, 853824, Note_off_c, 2, 75, 67
4, 853824, Note_off_c, 2, 79, 67
4, 853888, Note_off_c, 2, 75, 67
4, 853888, Note_off_c, 2, 79, 67
4, 853888, Note_on_c, 2, 75, 67
4, 853952, Note_off_c, 2, 75, 67
4, 853952, Note_on_c, 2, 77, 67
4, 854016, Note_off_c, 2, 77, 67
4, 854016, Note_on_c, 2, 79, 67
4, 854080, Note_off_c, 2, 79, 67
4, 854144, Note_off_c, 2, 79, 67
4, 854144, Note_on_c, 2, 75, 67
4, 854144, Note_on_c, 2, 79, 67
4, 854208, Note_off_c, 2, 75, 67
4, 854208, Note_off_c, 2, 79, 67
4, 854272, Note_off_c, 2, 75, 67
4, 854272, Note_off_c, 2, 79, 67
4, 854272, Note_on_c, 2, 75, 67
4, 854272, Note_on_c, 2, 80, 67
4, 854304, Note_off_c, 2, 75, 67
4, 854304, Note_off_c, 2, 80, 67
4, 854336, Note_off_c, 2, 75, 67
4, 854336, Note_off_c, 2, 80, 67
4, 854336, Note_on_c, 2, 74, 67
4, 854400, Note_off_c, 2, 74, 67
4, 854400, Note_on_c, 2, 72, 67
4, 854464, Note_off_c, 2, 72, 67
4, 854464, Note_on_c, 2, 74, 67
4, 854464, Note_on_c, 2, 79, 67
4, 854496, Note_off_c, 2, 74, 67
4, 854496, Note_off_c, 2, 79, 67
4, 854528, Note_off_c, 2, 74, 67
4, 854528, Note_off_c, 2, 79, 67
4, 854528, Note_on_c, 2, 70, 67
4, 854528, Note_on_c, 2, 77, 67
4, 854592, Note_off_c, 2, 70, 67
4, 854592, Note_off_c, 2, 77, 67
4, 854656, Note_off_c, 2, 70, 67
4, 854656, Note_off_c, 2, 77, 67
4, 854656, Note_on_c, 2, 68, 67
4, 854656, Note_on_c, 2, 70, 67
4, 854720, Note_off_c, 2, 68, 67
4, 854720, Note_off_c, 2, 70, 67
4, 854784, Note_off_c, 2, 68, 67
4, 854784, Note_off_c, 2, 70, 67
4, 854784, Note_on_c, 2, 68, 67
4, 854784, Note_on_c, 2, 70, 67
4, 854848, Note_off_c, 2, 68, 67
4, 854848, Note_off_c, 2, 70, 67
4, 854912, Note_off_c, 2, 68, 67
4, 854912, Note_off_c, 2, 70, 67
4, 854912, Note_on_c, 2, 74, 67
4, 854976, Note_off_c, 2, 74, 67
4, 854976, Note_on_c, 2, 75, 67
4, 855040, Note_off_c, 2, 75, 67
4, 855040, Note_on_c, 2, 77, 67
4, 855168, Note_off_c, 2, 77, 67
4, 855168, Note_on_c, 2, 74, 67
4, 855168, Note_on_c, 2, 80, 67
4, 855232, Note_off_c, 2, 74, 67
4, 855232, Note_off_c, 2, 80, 67
4, 855296, Note_off_c, 2, 74, 67
4, 855296, Note_off_c, 2, 80, 67
4, 855296, Note_on_c, 2, 74, 67
4, 855296, Note_on_c, 2, 79, 67
4, 855360, Note_off_c, 2, 74, 67
4, 855360, Note_off_c, 2, 79, 67
4, 855424, Note_off_c, 2, 74, 67
4, 855424, Note_off_c, 2, 79, 67
4, 855424, Note_on_c, 2, 77, 67
4, 855488, Note_off_c, 2, 77, 67
4, 855552, Note_off_c, 2, 77, 67
4, 855552, Note_on_c, 2, 75, 67
4, 855616, Note_off_c, 2, 75, 67
4, 855680, Note_off_c, 2, 75, 67
4, 855680, Note_on_c, 2, 70, 67
4, 855680, Note_on_c, 2, 74, 67
4, 855744, Note_off_c, 2, 70, 67
4, 855744, Note_off_c, 2, 74, 67
4, 855808, Note_off_c, 2, 70, 67
4, 855808, Note_off_c, 2, 74, 67
4, 855808, Note_on_c, 2, 72, 67
4, 855808, Note_on_c, 2, 74, 67
4, 855872, Note_off_c, 2, 72, 67
4, 855872, Note_off_c, 2, 74, 67
4, 855936, Note_off_c, 2, 72, 67
4, 855936, Note_off_c, 2, 74, 67
4, 855936, Note_on_c, 2, 70, 67
4, 855936, Note_on_c, 2, 74, 67
4, 856000, Note_off_c, 2, 70, 67
4, 856000, Note_off_c, 2, 74, 67
4, 856064, Note_off_c, 2, 70, 67
4, 856064, Note_off_c, 2, 74, 67
4, 856064, Note_on_c, 2, 80, 67
4, 856064, Note_on_c, 2, 84, 67
4, 856320, Note_off_c, 2, 80, 67
4, 856320, Note_off_c, 2, 84, 67
4, 856320, Note_on_c, 2, 70, 67
4, 856320, Note_on_c, 2, 74, 67
4, 856336, Note_off_c, 2, 70, 67
4, 856336, Note_off_c, 2, 74, 67
4, 856352, Note_off_c, 2, 70, 67
4, 856352, Note_off_c, 2, 74, 67
4, 856352, Note_on_c, 2, 72, 67
4, 856352, Note_on_c, 2, 75, 67
4, 856368, Note_off_c, 2, 72, 67
4, 856368, Note_off_c, 2, 75, 67
4, 856384, Note_off_c, 2, 72, 67
4, 856384, Note_off_c, 2, 75, 67
4, 856384, Note_on_c, 2, 70, 67
4, 856384, Note_on_c, 2, 74, 67
4, 856416, Note_off_c, 2, 70, 67
4, 856416, Note_off_c, 2, 74, 67
4, 856448, Note_off_c, 2, 70, 67
4, 856448, Note_off_c, 2, 74, 67
4, 856448, Note_on_c, 2, 68, 67
4, 856448, Note_on_c, 2, 72, 67
4, 856480, Note_off_c, 2, 68, 67
4, 856480, Note_off_c, 2, 72, 67
4, 856512, Note_off_c, 2, 68, 67
4, 856512, Note_off_c, 2, 72, 67
4, 856512, Note_on_c, 2, 74, 67
4, 856512, Note_on_c, 2, 77, 67
4, 856544, Note_off_c, 2, 74, 67
4, 856544, Note_off_c, 2, 77, 67
4, 856576, Note_off_c, 2, 74, 67
4, 856576, Note_off_c, 2, 77, 67
4, 856576, Note_on_c, 2, 75, 67
4, 856576, Note_on_c, 2, 79, 67
4, 856704, Note_off_c, 2, 75, 67
4, 856704, Note_off_c, 2, 79, 67
4, 856704, Note_on_c, 2, 70, 67
4, 856768, Note_off_c, 2, 70, 67
4, 856832, Note_off_c, 2, 70, 67
4, 856832, Note_on_c, 2, 70, 67
4, 856896, Note_off_c, 2, 70, 67
4, 856960, Note_off_c, 2, 70, 67
4, 856960, Note_on_c, 2, 75, 67
4, 856960, Note_on_c, 2, 79, 67
4, 857024, Note_off_c, 2, 75, 67
4, 857024, Note_off_c, 2, 79, 67
4, 857024, Note_on_c, 2, 77, 67
4, 857024, Note_on_c, 2, 80, 67
4, 857088, Note_off_c, 2, 77, 67
4, 857088, Note_off_c, 2, 80, 67
4, 857088, Note_on_c, 2, 79, 67
4, 857088, Note_on_c, 2, 82, 67
4, 857152, Note_off_c, 2, 79, 67
4, 857152, Note_off_c, 2, 82, 67
4, 857216, Note_off_c, 2, 79, 67
4, 857216, Note_off_c, 2, 82, 67
4, 857216, Note_on_c, 2, 79, 67
4, 857216, Note_on_c, 2, 82, 67
4, 857280, Note_off_c, 2, 79, 67
4, 857280, Note_off_c, 2, 82, 67
4, 857344, Note_off_c, 2, 79, 67
4, 857344, Note_off_c, 2, 82, 67
4, 857344, Note_on_c, 2, 70, 67
4, 857344, Note_on_c, 2, 79, 67
4, 857408, Note_off_c, 2, 70, 67
4, 857408, Note_off_c, 2, 79, 67
4, 857472, Note_off_c, 2, 70, 67
4, 857472, Note_off_c, 2, 79, 67
4, 857472, Note_on_c, 2, 70, 67
4, 857472, Note_on_c, 2, 75, 67
4, 857536, Note_off_c, 2, 70, 67
4, 857536, Note_off_c, 2, 75, 67
4, 857600, Note_off_c, 2, 70, 67
4, 857600, Note_off_c, 2, 75, 67
4, 857600, Note_on_c, 2, 84, 67
4, 857600, Note_on_c, 2, 87, 67
4, 857664, Note_off_c, 2, 84, 67
4, 857664, Note_off_c, 2, 87, 67
4, 857728, Note_off_c, 2, 84, 67
4, 857728, Note_off_c, 2, 87, 67
4, 857728, Note_on_c, 2, 82, 67
4, 857728, Note_on_c, 2, 86, 67
4, 857792, Note_off_c, 2, 82, 67
4, 857792, Note_off_c, 2, 86, 67
4, 857856, Note_off_c, 2, 82, 67
4, 857856, Note_off_c, 2, 86, 67
4, 857856, Note_on_c, 2, 80, 67
4, 857856, Note_on_c, 2, 84, 67
4, 857920, Note_off_c, 2, 80, 67
4, 857920, Note_off_c, 2, 84, 67
4, 857984, Note_off_c, 2, 80, 67
4, 857984, Note_off_c, 2, 84, 67
4, 857984, Note_on_c, 2, 79, 67
4, 857984, Note_on_c, 2, 87, 67
4, 858048, Note_off_c, 2, 79, 67
4, 858048, Note_off_c, 2, 87, 67
4, 858112, Note_off_c, 2, 79, 67
4, 858112, Note_off_c, 2, 87, 67
4, 858112, Note_on_c, 2, 75, 67
4, 858112, Note_on_c, 2, 82, 67
4, 858176, Note_off_c, 2, 75, 67
4, 858176, Note_off_c, 2, 82, 67
4, 858240, Note_off_c, 2, 75, 67
4, 858240, Note_off_c, 2, 82, 67
4, 858240, Note_on_c, 2, 79, 67
4, 858304, Note_off_c, 2, 79, 67
4, 858368, Note_off_c, 2, 79, 67
4, 858368, Note_on_c, 2, 67, 67
4, 858368, Note_on_c, 2, 75, 67
4, 858432, Note_off_c, 2, 67, 67
4, 858432, Note_off_c, 2, 75, 67
4, 858496, Note_off_c, 2, 67, 67
4, 858496, Note_off_c, 2, 75, 67
4, 858496, Note_on_c, 2, 68, 67
4, 858496, Note_on_c, 2, 74, 67
4, 858528, Note_off_c, 2, 68, 67
4, 858528, Note_off_c, 2, 74, 67
4, 858560, Note_off_c, 2, 68, 67
4, 858560, Note_off_c, 2, 74, 67
4, 858560, Note_on_c, 2, 74, 67
4, 858560, Note_on_c, 2, 79, 67
4, 858592, Note_off_c, 2, 74, 67
4, 858592, Note_off_c, 2, 79, 67
4, 858624, Note_off_c, 2, 74, 67
4, 858624, Note_off_c, 2, 79, 67
4, 858624, Note_on_c, 2, 70, 67
4, 858624, Note_on_c, 2, 77, 67
4, 858688, Note_off_c, 2, 70, 67
4, 858688, Note_off_c, 2, 77, 67
4, 858752, Note_off_c, 2, 70, 67
4, 858752, Note_off_c, 2, 77, 67
4, 858752, Note_on_c, 2, 65, 67
4, 858752, Note_on_c, 2, 70, 67
4, 858816, Note_off_c, 2, 65, 67
4, 858816, Note_off_c, 2, 70, 67
4, 858880, Note_off_c, 2, 65, 67
4, 858880, Note_off_c, 2, 70, 67
4, 858880, Note_on_c, 2, 68, 67
4, 858880, Note_on_c, 2, 70, 67
4, 858944, Note_off_c, 2, 68, 67
4, 858944, Note_off_c, 2, 70, 67
4, 859008, Note_off_c, 2, 68, 67
4, 859008, Note_off_c, 2, 70, 67
4, 859008, Note_on_c, 2, 70, 67
4, 859008, Note_on_c, 2, 79, 67
4, 859072, Note_off_c, 2, 70, 67
4, 859072, Note_off_c, 2, 79, 67
4, 859072, Note_on_c, 2, 77, 67
4, 859072, Note_on_c, 2, 80, 67
4, 859136, Note_off_c, 2, 77, 67
4, 859136, Note_off_c, 2, 80, 67
4, 859136, Note_on_c, 2, 79, 67
4, 859136, Note_on_c, 2, 82, 67
4, 859200, Note_off_c, 2, 79, 67
4, 859200, Note_off_c, 2, 82, 67
4, 859264, Note_off_c, 2, 79, 67
4, 859264, Note_off_c, 2, 82, 67
4, 859264, Note_on_c, 2, 79, 67
4, 859264, Note_on_c, 2, 82, 67
4, 859328, Note_off_c, 2, 79, 67
4, 859328, Note_off_c, 2, 82, 67
4, 859392, Note_off_c, 2, 79, 67
4, 859392, Note_off_c, 2, 82, 67
4, 859392, Note_on_c, 2, 70, 67
4, 859392, Note_on_c, 2, 79, 67
4, 859456, Note_off_c, 2, 70, 67
4, 859456, Note_off_c, 2, 79, 67
4, 859520, Note_off_c, 2, 70, 67
4, 859520, Note_off_c, 2, 79, 67
4, 859520, Note_on_c, 2, 75, 67
4, 859520, Note_on_c, 2, 82, 67
4, 859584, Note_off_c, 2, 75, 67
4, 859584, Note_off_c, 2, 82, 67
4, 859648, Note_off_c, 2, 75, 67
4, 859648, Note_off_c, 2, 82, 67
4, 859648, Note_on_c, 2, 84, 67
4, 859648, Note_on_c, 2, 87, 67
4, 859712, Note_off_c, 2, 84, 67
4, 859712, Note_off_c, 2, 87, 67
4, 859776, Note_off_c, 2, 84, 67
4, 859776, Note_off_c, 2, 87, 67
4, 859776, Note_on_c, 2, 82, 67
4, 859776, Note_on_c, 2, 86, 67
4, 859840, Note_off_c, 2, 82, 67
4, 859840, Note_off_c, 2, 86, 67
4, 859904, Note_off_c, 2, 82, 67
4, 859904, Note_off_c, 2, 86, 67
4, 859904, Note_on_c, 2, 80, 67
4, 859904, Note_on_c, 2, 84, 67
4, 859968, Note_off_c, 2, 80, 67
4, 859968, Note_off_c, 2, 84, 67
4, 860032, Note_off_c, 2, 80, 67
4, 860032, Note_off_c, 2, 84, 67
4, 860032, Note_on_c, 2, 70, 67
4, 860032, Note_on_c, 2, 74, 67
4, 860064, Note_off_c, 2, 70, 67
4, 860064, Note_off_c, 2, 74, 67
4, 860096, Note_off_c, 2, 70, 67
4, 860096, Note_off_c, 2, 74, 67
4, 860096, Note_on_c, 2, 77, 67
4, 860096, Note_on_c, 2, 80, 67
4, 860128, Note_off_c, 2, 77, 67
4, 860128, Note_off_c, 2, 80, 67
4, 860160, Note_off_c, 2, 77, 67
4, 860160, Note_off_c, 2, 80, 67
4, 860160, Note_on_c, 2, 77, 67
4, 860160, Note_on_c, 2, 82, 67
4, 860224, Note_off_c, 2, 77, 67
4, 860224, Note_off_c, 2, 82, 67
4, 860288, Note_off_c, 2, 77, 67
4, 860288, Note_off_c, 2, 82, 67
4, 860288, Note_on_c, 2, 80, 67
4, 860288, Note_on_c, 2, 87, 67
4, 860352, Note_off_c, 2, 80, 67
4, 860352, Note_off_c, 2, 87, 67
4, 860416, Note_off_c, 2, 80, 67
4, 860416, Note_off_c, 2, 87, 67
4, 860416, Note_on_c, 2, 82, 67
4, 860416, Note_on_c, 2, 86, 67
4, 860480, Note_off_c, 2, 82, 67
4, 860480, Note_off_c, 2, 86, 67
4, 860544, Note_off_c, 2, 82, 67
4, 860544, Note_off_c, 2, 86, 67
4, 860544, Note_on_c, 2, 80, 67
4, 860544, Note_on_c, 2, 89, 67
4, 860608, Note_off_c, 2, 80, 67
4, 860608, Note_off_c, 2, 89, 67
4, 860672, Note_off_c, 2, 80, 67
4, 860672, Note_off_c, 2, 89, 67
4, 860672, Note_on_c, 2, 79, 67
4, 860672, Note_on_c, 2, 87, 67
4, 860736, Note_off_c, 2, 79, 67
4, 860736, Note_off_c, 2, 87, 67
4, 860800, Note_off_c, 2, 79, 67
4, 860800, Note_off_c, 2, 87, 67
4, 860800, Note_on_c, 2, 70, 67
4, 860800, Note_on_c, 2, 82, 67
4, 860864, Note_off_c, 2, 70, 67
4, 860864, Note_off_c, 2, 82, 67
4, 860928, Note_off_c, 2, 70, 67
4, 860928, Note_off_c, 2, 82, 67
4, 860928, Note_on_c, 2, 70, 67
4, 860928, Note_on_c, 2, 82, 67
4, 860992, Note_off_c, 2, 70, 67
4, 860992, Note_off_c, 2, 82, 67
4, 861056, Note_off_c, 2, 70, 67
4, 861056, Note_off_c, 2, 82, 67
4, 861056, Note_on_c, 2, 75, 67
4, 861120, Note_off_c, 2, 75, 67
4, 861120, Note_on_c, 2, 77, 67
4, 861184, Note_off_c, 2, 77, 67
4, 861184, Note_on_c, 2, 79, 67
4, 861248, Note_off_c, 2, 79, 67
4, 861312, Note_off_c, 2, 79, 67
4, 861312, Note_on_c, 2, 75, 67
4, 861312, Note_on_c, 2, 79, 67
4, 861376, Note_off_c, 2, 75, 67
4, 861376, Note_off_c, 2, 79, 67
4, 861440, Note_off_c, 2, 75, 67
4, 861440, Note_off_c, 2, 79, 67
4, 861440, Note_on_c, 2, 75, 67
4, 861440, Note_on_c, 2, 79, 67
4, 861504, Note_off_c, 2, 75, 67
4, 861504, Note_off_c, 2, 79, 67
4, 861568, Note_off_c, 2, 75, 67
4, 861568, Note_off_c, 2, 79, 67
4, 861568, Note_on_c, 2, 75, 67
4, 861632, Note_off_c, 2, 75, 67
4, 861632, Note_on_c, 2, 77, 67
4, 861696, Note_off_c, 2, 77, 67
4, 861696, Note_on_c, 2, 79, 67
4, 861760, Note_off_c, 2, 79, 67
4, 861824, Note_off_c, 2, 79, 67
4, 861824, Note_on_c, 2, 75, 67
4, 861824, Note_on_c, 2, 79, 67
4, 861888, Note_off_c, 2, 75, 67
4, 861888, Note_off_c, 2, 79, 67
4, 861952, Note_off_c, 2, 75, 67
4, 861952, Note_off_c, 2, 79, 67
4, 861952, Note_on_c, 2, 75, 67
4, 861952, Note_on_c, 2, 79, 67
4, 862016, Note_off_c, 2, 75, 67
4, 862016, Note_off_c, 2, 79, 67
4, 862080, Note_off_c, 2, 75, 67
4, 862080, Note_off_c, 2, 79, 67
4, 862080, Note_on_c, 2, 75, 67
4, 862144, Note_off_c, 2, 75, 67
4, 862144, Note_on_c, 2, 77, 67
4, 862208, Note_off_c, 2, 77, 67
4, 862208, Note_on_c, 2, 79, 67
4, 862272, Note_off_c, 2, 79, 67
4, 862336, Note_off_c, 2, 79, 67
4, 862336, Note_on_c, 2, 75, 67
4, 862336, Note_on_c, 2, 79, 67
4, 862400, Note_off_c, 2, 75, 67
4, 862400, Note_off_c, 2, 79, 67
4, 862464, Note_off_c, 2, 75, 67
4, 862464, Note_off_c, 2, 79, 67
4, 862464, Note_on_c, 2, 75, 67
4, 862464, Note_on_c, 2, 80, 67
4, 862496, Note_off_c, 2, 75, 67
4, 862496, Note_off_c, 2, 80, 67
4, 862528, Note_off_c, 2, 75, 67
4, 862528, Note_off_c, 2, 80, 67
4, 862528, Note_on_c, 2, 74, 67
4, 862560, Note_off_c, 2, 74, 67
4, 862592, Note_off_c, 2, 74, 67
4, 862592, Note_on_c, 2, 72, 67
4, 862624, Note_off_c, 2, 72, 67
4, 862656, Note_off_c, 2, 72, 67
4, 862656, Note_on_c, 2, 74, 67
4, 862656, Note_on_c, 2, 79, 67
4, 862688, Note_off_c, 2, 74, 67
4, 862688, Note_off_c, 2, 79, 67
4, 862720, Note_off_c, 2, 74, 67
4, 862720, Note_off_c, 2, 79, 67
4, 862720, Note_on_c, 2, 70, 67
4, 862720, Note_on_c, 2, 77, 67
4, 862784, Note_off_c, 2, 70, 67
4, 862784, Note_off_c, 2, 77, 67
4, 862848, Note_off_c, 2, 70, 67
4, 862848, Note_off_c, 2, 77, 67
4, 862848, Note_on_c, 2, 68, 67
4, 862848, Note_on_c, 2, 70, 67
4, 862912, Note_off_c, 2, 68, 67
4, 862912, Note_off_c, 2, 70, 67
4, 862976, Note_off_c, 2, 68, 67
4, 862976, Note_off_c, 2, 70, 67
4, 862976, Note_on_c, 2, 68, 67
4, 862976, Note_on_c, 2, 70, 67
4, 863040, Note_off_c, 2, 68, 67
4, 863040, Note_off_c, 2, 70, 67
4, 863104, Note_off_c, 2, 68, 67
4, 863104, Note_off_c, 2, 70, 67
4, 863104, Note_on_c, 2, 74, 67
4, 863168, Note_off_c, 2, 74, 67
4, 863168, Note_on_c, 2, 75, 67
4, 863232, Note_off_c, 2, 75, 67
4, 863232, Note_on_c, 2, 77, 67
4, 863296, Note_off_c, 2, 77, 67
4, 863360, Note_off_c, 2, 77, 67
4, 863360, Note_on_c, 2, 74, 67
4, 863360, Note_on_c, 2, 77, 67
4, 863424, Note_off_c, 2, 74, 67
4, 863424, Note_off_c, 2, 77, 67
4, 863488, Note_off_c, 2, 74, 67
4, 863488, Note_off_c, 2, 77, 67
4, 863488, Note_on_c, 2, 74, 67
4, 863488, Note_on_c, 2, 77, 67
4, 863552, Note_off_c, 2, 74, 67
4, 863552, Note_off_c, 2, 77, 67
4, 863616, Note_off_c, 2, 74, 67
4, 863616, Note_off_c, 2, 77, 67
4, 863616, Note_on_c, 2, 74, 67
4, 863680, Note_off_c, 2, 74, 67
4, 863680, Note_on_c, 2, 75, 67
4, 863744, Note_off_c, 2, 75, 67
4, 863744, Note_on_c, 2, 77, 67
4, 863808, Note_off_c, 2, 77, 67
4, 863872, Note_off_c, 2, 77, 67
4, 863872, Note_on_c, 2, 74, 67
4, 863872, Note_on_c, 2, 77, 67
4, 863936, Note_off_c, 2, 74, 67
4, 863936, Note_off_c, 2, 77, 67
4, 864000, Note_off_c, 2, 74, 67
4, 864000, Note_off_c, 2, 77, 67
4, 864000, Note_on_c, 2, 74, 67
4, 864000, Note_on_c, 2, 77, 67
4, 864064, Note_off_c, 2, 74, 67
4, 864064, Note_off_c, 2, 77, 67
4, 864128, Note_off_c, 2, 74, 67
4, 864128, Note_off_c, 2, 77, 67
4, 864128, Note_on_c, 2, 74, 67
4, 864192, Note_off_c, 2, 74, 67
4, 864192, Note_on_c, 2, 75, 67
4, 864256, Note_off_c, 2, 75, 67
4, 864256, Note_on_c, 2, 70, 67
4, 864256, Note_on_c, 2, 77, 67
4, 864320, Note_off_c, 2, 70, 67
4, 864320, Note_off_c, 2, 77, 67
4, 864384, Note_off_c, 2, 70, 67
4, 864384, Note_off_c, 2, 77, 67
4, 864384, Note_on_c, 2, 74, 67
4, 864384, Note_on_c, 2, 77, 67
4, 864448, Note_off_c, 2, 74, 67
4, 864448, Note_off_c, 2, 77, 67
4, 864512, Note_off_c, 2, 74, 67
4, 864512, Note_off_c, 2, 77, 67
4, 864512, Note_on_c, 2, 74, 67
4, 864512, Note_on_c, 2, 79, 67
4, 864544, Note_off_c, 2, 74, 67
4, 864544, Note_off_c, 2, 79, 67
4, 864576, Note_off_c, 2, 74, 67
4, 864576, Note_off_c, 2, 79, 67
4, 864576, Note_on_c, 2, 72, 67
4, 864576, Note_on_c, 2, 77, 67
4, 864608, Note_off_c, 2, 72, 67
4, 864608, Note_off_c, 2, 77, 67
4, 864640, Note_off_c, 2, 72, 67
4, 864640, Note_off_c, 2, 77, 67
4, 864640, Note_on_c, 2, 70, 67
4, 864640, Note_on_c, 2, 77, 67
4, 864672, Note_off_c, 2, 70, 67
4, 864672, Note_off_c, 2, 77, 67
4, 864704, Note_off_c, 2, 70, 67
4, 864704, Note_off_c, 2, 77, 67
4, 864704, Note_on_c, 2, 68, 67
4, 864704, Note_on_c, 2, 79, 67
4, 864736, Note_off_c, 2, 68, 67
4, 864736, Note_off_c, 2, 79, 67
4, 864768, Note_off_c, 2, 68, 67
4, 864768, Note_off_c, 2, 79, 67
4, 864768, Note_on_c, 2, 67, 67
4, 864768, Note_on_c, 2, 75, 67
4, 864832, Note_off_c, 2, 67, 67
4, 864832, Note_off_c, 2, 75, 67
4, 864896, Note_off_c, 2, 67, 67
4, 864896, Note_off_c, 2, 75, 67
4, 864896, Note_on_c, 2, 70, 67
4, 864960, Note_off_c, 2, 70, 67
4, 865024, Note_off_c, 2, 70, 67
4, 865024, Note_on_c, 2, 70, 67
4, 865024, Note_on_c, 2, 79, 67
4, 865088, Note_off_c, 2, 70, 67
4, 865088, Note_off_c, 2, 79, 67
4, 865152, Note_off_c, 2, 70, 67
4, 865152, Note_off_c, 2, 79, 67
4, 865152, Note_on_c, 2, 75, 67
4, 865216, Note_off_c, 2, 75, 67
4, 865216, Note_on_c, 2, 77, 67
4, 865280, Note_off_c, 2, 77, 67
4, 865280, Note_on_c, 2, 79, 67
4, 865344, Note_off_c, 2, 79, 67
4, 865408, Note_off_c, 2, 79, 67
4, 865408, Note_on_c, 2, 75, 67
4, 865408, Note_on_c, 2, 79, 67
4, 865472, Note_off_c, 2, 75, 67
4, 865472, Note_off_c, 2, 79, 67
4, 865536, Note_off_c, 2, 75, 67
4, 865536, Note_off_c, 2, 79, 67
4, 865536, Note_on_c, 2, 75, 67
4, 865536, Note_on_c, 2, 79, 67
4, 865600, Note_off_c, 2, 75, 67
4, 865600, Note_off_c, 2, 79, 67
4, 865664, Note_off_c, 2, 75, 67
4, 865664, Note_off_c, 2, 79, 67
4, 865664, Note_on_c, 2, 75, 67
4, 865728, Note_off_c, 2, 75, 67
4, 865728, Note_on_c, 2, 77, 67
4, 865792, Note_off_c, 2, 77, 67
4, 865792, Note_on_c, 2, 79, 67
4, 865856, Note_off_c, 2, 79, 67
4, 865920, Note_off_c, 2, 79, 67
4, 865920, Note_on_c, 2, 75, 67
4, 865920, Note_on_c, 2, 79, 67
4, 865984, Note_off_c, 2, 75, 67
4, 865984, Note_off_c, 2, 79, 67
4, 866048, Note_off_c, 2, 75, 67
4, 866048, Note_off_c, 2, 79, 67
4, 866048, Note_on_c, 2, 75, 67
4, 866048, Note_on_c, 2, 79, 67
4, 866112, Note_off_c, 2, 75, 67
4, 866112, Note_off_c, 2, 79, 67
4, 866176, Note_off_c, 2, 75, 67
4, 866176, Note_off_c, 2, 79, 67
4, 866176, Note_on_c, 2, 75, 67
4, 866240, Note_off_c, 2, 75, 67
4, 866240, Note_on_c, 2, 77, 67
4, 866304, Note_off_c, 2, 77, 67
4, 866304, Note_on_c, 2, 79, 67
4, 866368, Note_off_c, 2, 79, 67
4, 866432, Note_off_c, 2, 79, 67
4, 866432, Note_on_c, 2, 75, 67
4, 866432, Note_on_c, 2, 79, 67
4, 866496, Note_off_c, 2, 75, 67
4, 866496, Note_off_c, 2, 79, 67
4, 866560, Note_off_c, 2, 75, 67
4, 866560, Note_off_c, 2, 79, 67
4, 866560, Note_on_c, 2, 75, 67
4, 866560, Note_on_c, 2, 80, 67
4, 866592, Note_off_c, 2, 75, 67
4, 866592, Note_off_c, 2, 80, 67
4, 866624, Note_off_c, 2, 75, 67
4, 866624, Note_off_c, 2, 80, 67
4, 866624, Note_on_c, 2, 74, 67
4, 866688, Note_off_c, 2, 74, 67
4, 866688, Note_on_c, 2, 72, 67
4, 866752, Note_off_c, 2, 72, 67
4, 866752, Note_on_c, 2, 74, 67
4, 866752, Note_on_c, 2, 79, 67
4, 866784, Note_off_c, 2, 74, 67
4, 866784, Note_off_c, 2, 79, 67
4, 866816, Note_off_c, 2, 74, 67
4, 866816, Note_off_c, 2, 79, 67
4, 866816, Note_on_c, 2, 70, 67
4, 866816, Note_on_c, 2, 77, 67
4, 866880, Note_off_c, 2, 70, 67
4, 866880, Note_off_c, 2, 77, 67
4, 866944, Note_off_c, 2, 70, 67
4, 866944, Note_off_c, 2, 77, 67
4, 866944, Note_on_c, 2, 68, 67
4, 866944, Note_on_c, 2, 70, 67
4, 867008, Note_off_c, 2, 68, 67
4, 867008, Note_off_c, 2, 70, 67
4, 867072, Note_off_c, 2, 68, 67
4, 867072, Note_off_c, 2, 70, 67
4, 867072, Note_on_c, 2, 68, 67
4, 867072, Note_on_c, 2, 70, 67
4, 867136, Note_off_c, 2, 68, 67
4, 867136, Note_off_c, 2, 70, 67
4, 867200, Note_off_c, 2, 68, 67
4, 867200, Note_off_c, 2, 70, 67
4, 867200, Note_on_c, 2, 74, 67
4, 867264, Note_off_c, 2, 74, 67
4, 867264, Note_on_c, 2, 75, 67
4, 867328, Note_off_c, 2, 75, 67
4, 867328, Note_on_c, 2, 77, 67
4, 867456, Note_off_c, 2, 77, 67
4, 867456, Note_on_c, 2, 74, 67
4, 867456, Note_on_c, 2, 80, 67
4, 867520, Note_off_c, 2, 74, 67
4, 867520, Note_off_c, 2, 80, 67
4, 867584, Note_off_c, 2, 74, 67
4, 867584, Note_off_c, 2, 80, 67
4, 867584, Note_on_c, 2, 74, 67
4, 867584, Note_on_c, 2, 79, 67
4, 867648, Note_off_c, 2, 74, 67
4, 867648, Note_off_c, 2, 79, 67
4, 867712, Note_off_c, 2, 74, 67
4, 867712, Note_off_c, 2, 79, 67
4, 867712, Note_on_c, 2, 77, 67
4, 867776, Note_off_c, 2, 77, 67
4, 867840, Note_off_c, 2, 77, 67
4, 867840, Note_on_c, 2, 75, 67
4, 867904, Note_off_c, 2, 75, 67
4, 867968, Note_off_c, 2, 75, 67
4, 867968, Note_on_c, 2, 70, 67
4, 867968, Note_on_c, 2, 74, 67
4, 868032, Note_off_c, 2, 70, 67
4, 868032, Note_off_c, 2, 74, 67
4, 868096, Note_off_c, 2, 70, 67
4, 868096, Note_off_c, 2, 74, 67
4, 868096, Note_on_c, 2, 72, 67
4, 868096, Note_on_c, 2, 74, 67
4, 868160, Note_off_c, 2, 72, 67
4, 868160, Note_off_c, 2, 74, 67
4, 868224, Note_off_c, 2, 72, 67
4, 868224, Note_off_c, 2, 74, 67
4, 868224, Note_on_c, 2, 70, 67
4, 868224, Note_on_c, 2, 74, 67
4, 868288, Note_off_c, 2, 70, 67
4, 868288, Note_off_c, 2, 74, 67
4, 868352, Note_off_c, 2, 70, 67
4, 868352, Note_off_c, 2, 74, 67
4, 868352, Note_on_c, 2, 80, 67
4, 868352, Note_on_c, 2, 84, 67
4, 868608, Note_off_c, 2, 80, 67
4, 868608, Note_off_c, 2, 84, 67
4, 868608, Note_on_c, 2, 70, 67
4, 868608, Note_on_c, 2, 74, 67
4, 868624, Note_off_c, 2, 70, 67
4, 868624, Note_off_c, 2, 74, 67
4, 868640, Note_off_c, 2, 70, 67
4, 868640, Note_off_c, 2, 74, 67
4, 868640, Note_on_c, 2, 72, 67
4, 868640, Note_on_c, 2, 75, 67
4, 868656, Note_off_c, 2, 72, 67
4, 868656, Note_off_c, 2, 75, 67
4, 868672, Note_off_c, 2, 72, 67
4, 868672, Note_off_c, 2, 75, 67
4, 868672, Note_on_c, 2, 70, 67
4, 868672, Note_on_c, 2, 74, 67
4, 868704, Note_off_c, 2, 70, 67
4, 868704, Note_off_c, 2, 74, 67
4, 868736, Note_off_c, 2, 70, 67
4, 868736, Note_off_c, 2, 74, 67
4, 868736, Note_on_c, 2, 68, 67
4, 868736, Note_on_c, 2, 72, 67
4, 868768, Note_off_c, 2, 68, 67
4, 868768, Note_off_c, 2, 72, 67
4, 868800, Note_off_c, 2, 68, 67
4, 868800, Note_off_c, 2, 72, 67
4, 868800, Note_on_c, 2, 74, 67
4, 868800, Note_on_c, 2, 77, 67
4, 868832, Note_off_c, 2, 74, 67
4, 868832, Note_off_c, 2, 77, 67
4, 868864, Note_off_c, 2, 74, 67
4, 868864, Note_off_c, 2, 77, 67
4, 868864, Note_on_c, 2, 75, 67
4, 868864, Note_on_c, 2, 79, 67
4, 868992, Note_off_c, 2, 75, 67
4, 868992, Note_off_c, 2, 79, 67
4, 868992, Note_on_c, 2, 70, 67
4, 869056, Note_off_c, 2, 70, 67
4, 869120, Note_off_c, 2, 70, 67
4, 869120, Note_on_c, 2, 70, 67
4, 869184, Note_off_c, 2, 70, 67
4, 869248, Note_off_c, 2, 70, 67
4, 869248, Note_on_c, 2, 75, 67
4, 869248, Note_on_c, 2, 79, 67
4, 869312, Note_off_c, 2, 75, 67
4, 869312, Note_off_c, 2, 79, 67
4, 869312, Note_on_c, 2, 77, 67
4, 869312, Note_on_c, 2, 80, 67
4, 869376, Note_off_c, 2, 77, 67
4, 869376, Note_off_c, 2, 80, 67
4, 869376, Note_on_c, 2, 79, 67
4, 869376, Note_on_c, 2, 82, 67
4, 869440, Note_off_c, 2, 79, 67
4, 869440, Note_off_c, 2, 82, 67
4, 869504, Note_off_c, 2, 79, 67
4, 869504, Note_off_c, 2, 82, 67
4, 869504, Note_on_c, 2, 79, 67
4, 869504, Note_on_c, 2, 82, 67
4, 869568, Note_off_c, 2, 79, 67
4, 869568, Note_off_c, 2, 82, 67
4, 869632, Note_off_c, 2, 79, 67
4, 869632, Note_off_c, 2, 82, 67
4, 869632, Note_on_c, 2, 70, 67
4, 869632, Note_on_c, 2, 79, 67
4, 869696, Note_off_c, 2, 70, 67
4, 869696, Note_off_c, 2, 79, 67
4, 869760, Note_off_c, 2, 70, 67
4, 869760, Note_off_c, 2, 79, 67
4, 869760, Note_on_c, 2, 70, 67
4, 869760, Note_on_c, 2, 75, 67
4, 869824, Note_off_c, 2, 70, 67
4, 869824, Note_off_c, 2, 75, 67
4, 869888, Note_off_c, 2, 70, 67
4, 869888, Note_off_c, 2, 75, 67
4, 869888, Note_on_c, 2, 84, 67
4, 869888, Note_on_c, 2, 87, 67
4, 869952, Note_off_c, 2, 84, 67
4, 869952, Note_off_c, 2, 87, 67
4, 870016, Note_off_c, 2, 84, 67
4, 870016, Note_off_c, 2, 87, 67
4, 870016, Note_on_c, 2, 82, 67
4, 870016, Note_on_c, 2, 86, 67
4, 870080, Note_off_c, 2, 82, 67
4, 870080, Note_off_c, 2, 86, 67
4, 870144, Note_off_c, 2, 82, 67
4, 870144, Note_off_c, 2, 86, 67
4, 870144, Note_on_c, 2, 80, 67
4, 870144, Note_on_c, 2, 84, 67
4, 870208, Note_off_c, 2, 80, 67
4, 870208, Note_off_c, 2, 84, 67
4, 870272, Note_off_c, 2, 80, 67
4, 870272, Note_off_c, 2, 84, 67
4, 870272, Note_on_c, 2, 79, 67
4, 870272, Note_on_c, 2, 87, 67
4, 870336, Note_off_c, 2, 79, 67
4, 870336, Note_off_c, 2, 87, 67
4, 870400, Note_off_c, 2, 79, 67
4, 870400, Note_off_c, 2, 87, 67
4, 870400, Note_on_c, 2, 75, 67
4, 870400, Note_on_c, 2, 82, 67
4, 870464, Note_off_c, 2, 75, 67
4, 870464, Note_off_c, 2, 82, 67
4, 870528, Note_off_c, 2, 75, 67
4, 870528, Note_off_c, 2, 82, 67
4, 870528, Note_on_c, 2, 79, 67
4, 870592, Note_off_c, 2, 79, 67
4, 870656, Note_off_c, 2, 79, 67
4, 870656, Note_on_c, 2, 67, 67
4, 870656, Note_on_c, 2, 75, 67
4, 870720, Note_off_c, 2, 67, 67
4, 870720, Note_off_c, 2, 75, 67
4, 870784, Note_off_c, 2, 67, 67
4, 870784, Note_off_c, 2, 75, 67
4, 870784, Note_on_c, 2, 68, 67
4, 870784, Note_on_c, 2, 74, 67
4, 870816, Note_off_c, 2, 68, 67
4, 870816, Note_off_c, 2, 74, 67
4, 870848, Note_off_c, 2, 68, 67
4, 870848, Note_off_c, 2, 74, 67
4, 870848, Note_on_c, 2, 74, 67
4, 870848, Note_on_c, 2, 79, 67
4, 870880, Note_off_c, 2, 74, 67
4, 870880, Note_off_c, 2, 79, 67
4, 870912, Note_off_c, 2, 74, 67
4, 870912, Note_off_c, 2, 79, 67
4, 870912, Note_on_c, 2, 70, 67
4, 870912, Note_on_c, 2, 77, 67
4, 870976, Note_off_c, 2, 70, 67
4, 870976, Note_off_c, 2, 77, 67
4, 871040, Note_off_c, 2, 70, 67
4, 871040, Note_off_c, 2, 77, 67
4, 871040, Note_on_c, 2, 65, 67
4, 871040, Note_on_c, 2, 70, 67
4, 871104, Note_off_c, 2, 65, 67
4, 871104, Note_off_c, 2, 70, 67
4, 871168, Note_off_c, 2, 65, 67
4, 871168, Note_off_c, 2, 70, 67
4, 871168, Note_on_c, 2, 68, 67
4, 871168, Note_on_c, 2, 70, 67
4, 871232, Note_off_c, 2, 68, 67
4, 871232, Note_off_c, 2, 70, 67
4, 871296, Note_off_c, 2, 68, 67
4, 871296, Note_off_c, 2, 70, 67
4, 871296, Note_on_c, 2, 70, 67
4, 871296, Note_on_c, 2, 79, 67
4, 871360, Note_off_c, 2, 70, 67
4, 871360, Note_off_c, 2, 79, 67
4, 871360, Note_on_c, 2, 77, 67
4, 871360, Note_on_c, 2, 80, 67
4, 871424, Note_off_c, 2, 77, 67
4, 871424, Note_off_c, 2, 80, 67
4, 871424, Note_on_c, 2, 79, 67
4, 871424, Note_on_c, 2, 82, 67
4, 871488, Note_off_c, 2, 79, 67
4, 871488, Note_off_c, 2, 82, 67
4, 871552, Note_off_c, 2, 79, 67
4, 871552, Note_off_c, 2, 82, 67
4, 871552, Note_on_c, 2, 79, 67
4, 871552, Note_on_c, 2, 82, 67
4, 871616, Note_off_c, 2, 79, 67
4, 871616, Note_off_c, 2, 82, 67
4, 871680, Note_off_c, 2, 79, 67
4, 871680, Note_off_c, 2, 82, 67
4, 871680, Note_on_c, 2, 70, 67
4, 871680, Note_on_c, 2, 79, 67
4, 871744, Note_off_c, 2, 70, 67
4, 871744, Note_off_c, 2, 79, 67
4, 871808, Note_off_c, 2, 70, 67
4, 871808, Note_off_c, 2, 79, 67
4, 871808, Note_on_c, 2, 75, 67
4, 871808, Note_on_c, 2, 82, 67
4, 871872, Note_off_c, 2, 75, 67
4, 871872, Note_off_c, 2, 82, 67
4, 871936, Note_off_c, 2, 75, 67
4, 871936, Note_off_c, 2, 82, 67
4, 871936, Note_on_c, 2, 84, 67
4, 871936, Note_on_c, 2, 87, 67
4, 872000, Note_off_c, 2, 84, 67
4, 872000, Note_off_c, 2, 87, 67
4, 872064, Note_off_c, 2, 84, 67
4, 872064, Note_off_c, 2, 87, 67
4, 872064, Note_on_c, 2, 82, 67
4, 872064, Note_on_c, 2, 86, 67
4, 872128, Note_off_c, 2, 82, 67
4, 872128, Note_off_c, 2, 86, 67
4, 872192, Note_off_c, 2, 82, 67
4, 872192, Note_off_c, 2, 86, 67
4, 872192, Note_on_c, 2, 80, 67
4, 872192, Note_on_c, 2, 84, 67
4, 872256, Note_off_c, 2, 80, 67
4, 872256, Note_off_c, 2, 84, 67
4, 872320, Note_off_c, 2, 80, 67
4, 872320, Note_off_c, 2, 84, 67
4, 872320, Note_on_c, 2, 70, 67
4, 872320, Note_on_c, 2, 74, 67
4, 872352, Note_off_c, 2, 70, 67
4, 872352, Note_off_c, 2, 74, 67
4, 872384, Note_off_c, 2, 70, 67
4, 872384, Note_off_c, 2, 74, 67
4, 872384, Note_on_c, 2, 77, 67
4, 872384, Note_on_c, 2, 80, 67
4, 872416, Note_off_c, 2, 77, 67
4, 872416, Note_off_c, 2, 80, 67
4, 872448, Note_off_c, 2, 77, 67
4, 872448, Note_off_c, 2, 80, 67
4, 872448, Note_on_c, 2, 77, 67
4, 872448, Note_on_c, 2, 82, 67
4, 872512, Note_off_c, 2, 77, 67
4, 872512, Note_off_c, 2, 82, 67
4, 872576, Note_off_c, 2, 77, 67
4, 872576, Note_off_c, 2, 82, 67
4, 872576, Note_on_c, 2, 80, 67
4, 872576, Note_on_c, 2, 87, 67
4, 872640, Note_off_c, 2, 80, 67
4, 872640, Note_off_c, 2, 87, 67
4, 872704, Note_off_c, 2, 80, 67
4, 872704, Note_off_c, 2, 87, 67
4, 872704, Note_on_c, 2, 82, 67
4, 872704, Note_on_c, 2, 86, 67
4, 872768, Note_off_c, 2, 82, 67
4, 872768, Note_off_c, 2, 86, 67
4, 872832, Note_off_c, 2, 82, 67
4, 872832, Note_off_c, 2, 86, 67
4, 872832, Note_on_c, 2, 80, 67
4, 872832, Note_on_c, 2, 89, 67
4, 872896, Note_off_c, 2, 80, 67
4, 872896, Note_off_c, 2, 89, 67
4, 872960, Note_off_c, 2, 80, 67
4, 872960, Note_off_c, 2, 89, 67
4, 872960, Note_on_c, 2, 79, 67
4, 872960, Note_on_c, 2, 87, 67
4, 873024, Note_off_c, 2, 79, 67
4, 873024, Note_off_c, 2, 87, 67
4, 873088, Note_off_c, 2, 79, 67
4, 873088, Note_off_c, 2, 87, 67
4, 873088, Note_on_c, 2, 70, 67
4, 873088, Note_on_c, 2, 82, 67
4, 873152, Note_off_c, 2, 70, 67
4, 873152, Note_off_c, 2, 82, 67
4, 873216, Note_off_c, 2, 70, 67
4, 873216, Note_off_c, 2, 82, 67
4, 873216, Note_on_c, 2, 70, 67
4, 873216, Note_on_c, 2, 82, 67
4, 873280, Note_off_c, 2, 70, 67
4, 873280, Note_off_c, 2, 82, 67
4, 873344, Note_off_c, 2, 70, 67
4, 873344, Note_off_c, 2, 82, 67
4, 873344, Note_on_c, 2, 75, 67
4, 873408, Note_off_c, 2, 75, 67
4, 873408, Note_on_c, 2, 77, 67
4, 873472, Note_off_c, 2, 77, 67
4, 873472, Note_on_c, 2, 79, 67
4, 873536, Note_off_c, 2, 79, 67
4, 873600, Note_off_c, 2, 79, 67
4, 873600, Note_on_c, 2, 75, 67
4, 873600, Note_on_c, 2, 79, 67
4, 873664, Note_off_c, 2, 75, 67
4, 873664, Note_off_c, 2, 79, 67
4, 873728, Note_off_c, 2, 75, 67
4, 873728, Note_off_c, 2, 79, 67
4, 873728, Note_on_c, 2, 75, 67
4, 873728, Note_on_c, 2, 79, 67
4, 873792, Note_off_c, 2, 75, 67
4, 873792, Note_off_c, 2, 79, 67
4, 873856, Note_off_c, 2, 75, 67
4, 873856, Note_off_c, 2, 79, 67
4, 873856, Note_on_c, 2, 75, 67
4, 873920, Note_off_c, 2, 75, 67
4, 873920, Note_on_c, 2, 77, 67
4, 873984, Note_off_c, 2, 77, 67
4, 873984, Note_on_c, 2, 79, 67
4, 874048, Note_off_c, 2, 79, 67
4, 874112, Note_off_c, 2, 79, 67
4, 874112, Note_on_c, 2, 75, 67
4, 874112, Note_on_c, 2, 79, 67
4, 874176, Note_off_c, 2, 75, 67
4, 874176, Note_off_c, 2, 79, 67
4, 874240, Note_off_c, 2, 75, 67
4, 874240, Note_off_c, 2, 79, 67
4, 874240, Note_on_c, 2, 75, 67
4, 874240, Note_on_c, 2, 79, 67
4, 874304, Note_off_c, 2, 75, 67
4, 874304, Note_off_c, 2, 79, 67
4, 874368, Note_off_c, 2, 75, 67
4, 874368, Note_off_c, 2, 79, 67
4, 874368, Note_on_c, 2, 75, 67
4, 874432, Note_off_c, 2, 75, 67
4, 874432, Note_on_c, 2, 77, 67
4, 874496, Note_off_c, 2, 77, 67
4, 874496, Note_on_c, 2, 79, 67
4, 874560, Note_off_c, 2, 79, 67
4, 874624, Note_off_c, 2, 79, 67
4, 874624, Note_on_c, 2, 75, 67
4, 874624, Note_on_c, 2, 79, 67
4, 874688, Note_off_c, 2, 75, 67
4, 874688, Note_off_c, 2, 79, 67
4, 874752, Note_off_c, 2, 75, 67
4, 874752, Note_off_c, 2, 79, 67
4, 874752, Note_on_c, 2, 75, 67
4, 874752, Note_on_c, 2, 80, 67
4, 874784, Note_off_c, 2, 75, 67
4, 874784, Note_off_c, 2, 80, 67
4, 874816, Note_off_c, 2, 75, 67
4, 874816, Note_off_c, 2, 80, 67
4, 874816, Note_on_c, 2, 74, 67
4, 874848, Note_off_c, 2, 74, 67
4, 874880, Note_off_c, 2, 74, 67
4, 874880, Note_on_c, 2, 72, 67
4, 874912, Note_off_c, 2, 72, 67
4, 874944, Note_off_c, 2, 72, 67
4, 874944, Note_on_c, 2, 74, 67
4, 874944, Note_on_c, 2, 79, 67
4, 874976, Note_off_c, 2, 74, 67
4, 874976, Note_off_c, 2, 79, 67
4, 875008, Note_off_c, 2, 74, 67
4, 875008, Note_off_c, 2, 79, 67
4, 875008, Note_on_c, 2, 70, 67
4, 875008, Note_on_c, 2, 77, 67
4, 875072, Note_off_c, 2, 70, 67
4, 875072, Note_off_c, 2, 77, 67
4, 875136, Note_off_c, 2, 70, 67
4, 875136, Note_off_c, 2, 77, 67
4, 875136, Note_on_c, 2, 68, 67
4, 875136, Note_on_c, 2, 70, 67
4, 875200, Note_off_c, 2, 68, 67
4, 875200, Note_off_c, 2, 70, 67
4, 875264, Note_off_c, 2, 68, 67
4, 875264, Note_off_c, 2, 70, 67
4, 875264, Note_on_c, 2, 68, 67
4, 875264, Note_on_c, 2, 70, 67
4, 875328, Note_off_c, 2, 68, 67
4, 875328, Note_off_c, 2, 70, 67
4, 875392, Note_off_c, 2, 68, 67
4, 875392, Note_off_c, 2, 70, 67
4, 875392, Note_on_c, 2, 74, 67
4, 875456, Note_off_c, 2, 74, 67
4, 875456, Note_on_c, 2, 75, 67
4, 875520, Note_off_c, 2, 75, 67
4, 875520, Note_on_c, 2, 77, 67
4, 875584, Note_off_c, 2, 77, 67
4, 875648, Note_off_c, 2, 77, 67
4, 875648, Note_on_c, 2, 74, 67
4, 875648, Note_on_c, 2, 77, 67
4, 875712, Note_off_c, 2, 74, 67
4, 875712, Note_off_c, 2, 77, 67
4, 875776, Note_off_c, 2, 74, 67
4, 875776, Note_off_c, 2, 77, 67
4, 875776, Note_on_c, 2, 74, 67
4, 875776, Note_on_c, 2, 77, 67
4, 875840, Note_off_c, 2, 74, 67
4, 875840, Note_off_c, 2, 77, 67
4, 875904, Note_off_c, 2, 74, 67
4, 875904, Note_off_c, 2, 77, 67
4, 875904, Note_on_c, 2, 74, 67
4, 875968, Note_off_c, 2, 74, 67
4, 875968, Note_on_c, 2, 75, 67
4, 876032, Note_off_c, 2, 75, 67
4, 876032, Note_on_c, 2, 77, 67
4, 876096, Note_off_c, 2, 77, 67
4, 876160, Note_off_c, 2, 77, 67
4, 876160, Note_on_c, 2, 74, 67
4, 876160, Note_on_c, 2, 77, 67
4, 876224, Note_off_c, 2, 74, 67
4, 876224, Note_off_c, 2, 77, 67
4, 876288, Note_off_c, 2, 74, 67
4, 876288, Note_off_c, 2, 77, 67
4, 876288, Note_on_c, 2, 74, 67
4, 876288, Note_on_c, 2, 77, 67
4, 876352, Note_off_c, 2, 74, 67
4, 876352, Note_off_c, 2, 77, 67
4, 876416, Note_off_c, 2, 74, 67
4, 876416, Note_off_c, 2, 77, 67
4, 876416, Note_on_c, 2, 74, 67
4, 876480, Note_off_c, 2, 74, 67
4, 876480, Note_on_c, 2, 75, 67
4, 876544, Note_off_c, 2, 75, 67
4, 876544, Note_on_c, 2, 70, 67
4, 876544, Note_on_c, 2, 77, 67
4, 876608, Note_off_c, 2, 70, 67
4, 876608, Note_off_c, 2, 77, 67
4, 876672, Note_off_c, 2, 70, 67
4, 876672, Note_off_c, 2, 77, 67
4, 876672, Note_on_c, 2, 74, 67
4, 876672, Note_on_c, 2, 77, 67
4, 876736, Note_off_c, 2, 74, 67
4, 876736, Note_off_c, 2, 77, 67
4, 876800, Note_off_c, 2, 74, 67
4, 876800, Note_off_c, 2, 77, 67
4, 876800, Note_on_c, 2, 74, 67
4, 876800, Note_on_c, 2, 79, 67
4, 876832, Note_off_c, 2, 74, 67
4, 876832, Note_off_c, 2, 79, 67
4, 876864, Note_off_c, 2, 74, 67
4, 876864, Note_off_c, 2, 79, 67
4, 876864, Note_on_c, 2, 72, 67
4, 876864, Note_on_c, 2, 77, 67
4, 876896, Note_off_c, 2, 72, 67
4, 876896, Note_off_c, 2, 77, 67
4, 876928, Note_off_c, 2, 72, 67
4, 876928, Note_off_c, 2, 77, 67
4, 876928, Note_on_c, 2, 70, 67
4, 876928, Note_on_c, 2, 77, 67
4, 876960, Note_off_c, 2, 70, 67
4, 876960, Note_off_c, 2, 77, 67
4, 876992, Note_off_c, 2, 70, 67
4, 876992, Note_off_c, 2, 77, 67
4, 876992, Note_on_c, 2, 68, 67
4, 876992, Note_on_c, 2, 79, 67
4, 877024, Note_off_c, 2, 68, 67
4, 877024, Note_off_c, 2, 79, 67
4, 877056, Note_off_c, 2, 68, 67
4, 877056, Note_off_c, 2, 79, 67
4, 877056, Note_on_c, 2, 67, 67
4, 877056, Note_on_c, 2, 75, 67
4, 877120, Note_off_c, 2, 67, 67
4, 877120, Note_off_c, 2, 75, 67
4, 877184, Note_off_c, 2, 67, 67
4, 877184, Note_off_c, 2, 75, 67
4, 877184, Note_on_c, 2, 70, 67
4, 877248, Note_off_c, 2, 70, 67
4, 877312, Note_off_c, 2, 70, 67
4, 877312, Note_on_c, 2, 70, 67
4, 877312, Note_on_c, 2, 79, 67
4, 877376, Note_off_c, 2, 70, 67
4, 877376, Note_off_c, 2, 79, 67
4, 877440, Note_off_c, 2, 70, 67
4, 877440, Note_off_c, 2, 79, 67
4, 877440, Note_on_c, 2, 75, 67
4, 877504, Note_off_c, 2, 75, 67
4, 877504, Note_on_c, 2, 77, 67
4, 877568, Note_off_c, 2, 77, 67
4, 877568, Note_on_c, 2, 79, 67
4, 877632, Note_off_c, 2, 79, 67
4, 877696, Note_off_c, 2, 79, 67
4, 877696, Note_on_c, 2, 75, 67
4, 877696, Note_on_c, 2, 79, 67
4, 877760, Note_off_c, 2, 75, 67
4, 877760, Note_off_c, 2, 79, 67
4, 877824, Note_off_c, 2, 75, 67
4, 877824, Note_off_c, 2, 79, 67
4, 877824, Note_on_c, 2, 75, 67
4, 877824, Note_on_c, 2, 79, 67
4, 877888, Note_off_c, 2, 75, 67
4, 877888, Note_off_c, 2, 79, 67
4, 877952, Note_off_c, 2, 75, 67
4, 877952, Note_off_c, 2, 79, 67
4, 877952, Note_on_c, 2, 75, 67
4, 878016, Note_off_c, 2, 75, 67
4, 878016, Note_on_c, 2, 77, 67
4, 878080, Note_off_c, 2, 77, 67
4, 878080, Note_on_c, 2, 79, 67
4, 878144, Note_off_c, 2, 79, 67
4, 878208, Note_off_c, 2, 79, 67
4, 878208, Note_on_c, 2, 75, 67
4, 878208, Note_on_c, 2, 79, 67
4, 878272, Note_off_c, 2, 75, 67
4, 878272, Note_off_c, 2, 79, 67
4, 878336, Note_off_c, 2, 75, 67
4, 878336, Note_off_c, 2, 79, 67
4, 878336, Note_on_c, 2, 75, 67
4, 878336, Note_on_c, 2, 79, 67
4, 878400, Note_off_c, 2, 75, 67
4, 878400, Note_off_c, 2, 79, 67
4, 878464, Note_off_c, 2, 75, 67
4, 878464, Note_off_c, 2, 79, 67
4, 878464, Note_on_c, 2, 75, 67
4, 878528, Note_off_c, 2, 75, 67
4, 878528, Note_on_c, 2, 77, 67
4, 878592, Note_off_c, 2, 77, 67
4, 878592, Note_on_c, 2, 79, 67
4, 878656, Note_off_c, 2, 79, 67
4, 878720, Note_off_c, 2, 79, 67
4, 878720, Note_on_c, 2, 75, 67
4, 878720, Note_on_c, 2, 79, 67
4, 878784, Note_off_c, 2, 75, 67
4, 878784, Note_off_c, 2, 79, 67
4, 878848, Note_off_c, 2, 75, 67
4, 878848, Note_off_c, 2, 79, 67
4, 878848, Note_on_c, 2, 75, 67
4, 878848, Note_on_c, 2, 80, 67
4, 878880, Note_off_c, 2, 75, 67
4, 878880, Note_off_c, 2, 80, 67
4, 878912, Note_off_c, 2, 75, 67
4, 878912, Note_off_c, 2, 80, 67
4, 878912, Note_on_c, 2, 74, 67
4, 878976, Note_off_c, 2, 74, 67
4, 878976, Note_on_c, 2, 72, 67
4, 879040, Note_off_c, 2, 72, 67
4, 879040, Note_on_c, 2, 74, 67
4, 879040, Note_on_c, 2, 79, 67
4, 879072, Note_off_c, 2, 74, 67
4, 879072, Note_off_c, 2, 79, 67
4, 879104, Note_off_c, 2, 74, 67
4, 879104, Note_off_c, 2, 79, 67
4, 879104, Note_on_c, 2, 70, 67
4, 879104, Note_on_c, 2, 77, 67
4, 879168, Note_off_c, 2, 70, 67
4, 879168, Note_off_c, 2, 77, 67
4, 879232, Note_off_c, 2, 70, 67
4, 879232, Note_off_c, 2, 77, 67
4, 879232, Note_on_c, 2, 68, 67
4, 879232, Note_on_c, 2, 70, 67
4, 879296, Note_off_c, 2, 68, 67
4, 879296, Note_off_c, 2, 70, 67
4, 879360, Note_off_c, 2, 68, 67
4, 879360, Note_off_c, 2, 70, 67
4, 879360, Note_on_c, 2, 68, 67
4, 879360, Note_on_c, 2, 70, 67
4, 879424, Note_off_c, 2, 68, 67
4, 879424, Note_off_c, 2, 70, 67
4, 879488, Note_off_c, 2, 68, 67
4, 879488, Note_off_c, 2, 70, 67
4, 879488, Note_on_c, 2, 74, 67
4, 879552, Note_off_c, 2, 74, 67
4, 879552, Note_on_c, 2, 75, 67
4, 879616, Note_off_c, 2, 75, 67
4, 879616, Note_on_c, 2, 77, 67
4, 879744, Note_off_c, 2, 77, 67
4, 879744, Note_on_c, 2, 74, 67
4, 879744, Note_on_c, 2, 80, 67
4, 879808, Note_off_c, 2, 74, 67
4, 879808, Note_off_c, 2, 80, 67
4, 879872, Note_off_c, 2, 74, 67
4, 879872, Note_off_c, 2, 80, 67
4, 879872, Note_on_c, 2, 74, 67
4, 879872, Note_on_c, 2, 79, 67
4, 879936, Note_off_c, 2, 74, 67
4, 879936, Note_off_c, 2, 79, 67
4, 880000, Note_off_c, 2, 74, 67
4, 880000, Note_off_c, 2, 79, 67
4, 880000, Note_on_c, 2, 77, 67
4, 880064, Note_off_c, 2, 77, 67
4, 880128, Note_off_c, 2, 77, 67
4, 880128, Note_on_c, 2, 75, 67
4, 880192, Note_off_c, 2, 75, 67
4, 880256, Note_off_c, 2, 75, 67
4, 880256, Note_on_c, 2, 70, 67
4, 880256, Note_on_c, 2, 74, 67
4, 880320, Note_off_c, 2, 70, 67
4, 880320, Note_off_c, 2, 74, 67
4, 880384, Note_off_c, 2, 70, 67
4, 880384, Note_off_c, 2, 74, 67
4, 880384, Note_on_c, 2, 72, 67
4, 880384, Note_on_c, 2, 74, 67
4, 880448, Note_off_c, 2, 72, 67
4, 880448, Note_off_c, 2, 74, 67
4, 880512, Note_off_c, 2, 72, 67
4, 880512, Note_off_c, 2, 74, 67
4, 880512, Note_on_c, 2, 70, 67
4, 880512, Note_on_c, 2, 74, 67
4, 880576, Note_off_c, 2, 70, 67
4, 880576, Note_off_c, 2, 74, 67
4, 880640, Note_off_c, 2, 70, 67
4, 880640, Note_off_c, 2, 74, 67
4, 880640, Note_on_c, 2, 80, 67
4, 880640, Note_on_c, 2, 84, 67
4, 880896, Note_off_c, 2, 80, 67
4, 880896, Note_off_c, 2, 84, 67
4, 880896, Note_on_c, 2, 70, 67
4, 880896, Note_on_c, 2, 74, 67
4, 880912, Note_off_c, 2, 70, 67
4, 880912, Note_off_c, 2, 74, 67
4, 880928, Note_off_c, 2, 70, 67
4, 880928, Note_off_c, 2, 74, 67
4, 880928, Note_on_c, 2, 72, 67
4, 880928, Note_on_c, 2, 75, 67
4, 880944, Note_off_c, 2, 72, 67
4, 880944, Note_off_c, 2, 75, 67
4, 880960, Note_off_c, 2, 72, 67
4, 880960, Note_off_c, 2, 75, 67
4, 880960, Note_on_c, 2, 70, 67
4, 880960, Note_on_c, 2, 74, 67
4, 880992, Note_off_c, 2, 70, 67
4, 880992, Note_off_c, 2, 74, 67
4, 881024, Note_off_c, 2, 70, 67
4, 881024, Note_off_c, 2, 74, 67
4, 881024, Note_on_c, 2, 68, 67
4, 881024, Note_on_c, 2, 72, 67
4, 881056, Note_off_c, 2, 68, 67
4, 881056, Note_off_c, 2, 72, 67
4, 881088, Note_off_c, 2, 68, 67
4, 881088, Note_off_c, 2, 72, 67
4, 881088, Note_on_c, 2, 74, 67
4, 881088, Note_on_c, 2, 77, 67
4, 881120, Note_off_c, 2, 74, 67
4, 881120, Note_off_c, 2, 77, 67
4, 881152, Note_off_c, 2, 74, 67
4, 881152, Note_off_c, 2, 77, 67
4, 881152, Note_on_c, 2, 75, 67
4, 881152, Note_on_c, 2, 79, 67
4, 881280, Note_off_c, 2, 75, 67
4, 881280, Note_off_c, 2, 79, 67
4, 881280, Note_on_c, 2, 70, 67
4, 881344, Note_off_c, 2, 70, 67
4, 881408, Note_off_c, 2, 70, 67
4, 881408, Note_on_c, 2, 70, 67
4, 881472, Note_off_c, 2, 70, 67
4, 881536, Note_off_c, 2, 70, 67
4, 881536, Note_on_c, 2, 75, 67
4, 881536, Note_on_c, 2, 79, 67
4, 881600, Note_off_c, 2, 75, 67
4, 881600, Note_off_c, 2, 79, 67
4, 881600, Note_on_c, 2, 77, 67
4, 881600, Note_on_c, 2, 80, 67
4, 881664, Note_off_c, 2, 77, 67
4, 881664, Note_off_c, 2, 80, 67
4, 881664, Note_on_c, 2, 79, 67
4, 881664, Note_on_c, 2, 82, 67
4, 881728, Note_off_c, 2, 79, 67
4, 881728, Note_off_c, 2, 82, 67
4, 881792, Note_off_c, 2, 79, 67
4, 881792, Note_off_c, 2, 82, 67
4, 881792, Note_on_c, 2, 79, 67
4, 881792, Note_on_c, 2, 82, 67
4, 881856, Note_off_c, 2, 79, 67
4, 881856, Note_off_c, 2, 82, 67
4, 881920, Note_off_c, 2, 79, 67
4, 881920, Note_off_c, 2, 82, 67
4, 881920, Note_on_c, 2, 70, 67
4, 881920, Note_on_c, 2, 79, 67
4, 881984, Note_off_c, 2, 70, 67
4, 881984, Note_off_c, 2, 79, 67
4, 882048, Note_off_c, 2, 70, 67
4, 882048, Note_off_c, 2, 79, 67
4, 882048, Note_on_c, 2, 70, 67
4, 882048, Note_on_c, 2, 75, 67
4, 882112, Note_off_c, 2, 70, 67
4, 882112, Note_off_c, 2, 75, 67
4, 882176, Note_off_c, 2, 70, 67
4, 882176, Note_off_c, 2, 75, 67
4, 882176, Note_on_c, 2, 84, 67
4, 882176, Note_on_c, 2, 87, 67
4, 882240, Note_off_c, 2, 84, 67
4, 882240, Note_off_c, 2, 87, 67
4, 882304, Note_off_c, 2, 84, 67
4, 882304, Note_off_c, 2, 87, 67
4, 882304, Note_on_c, 2, 82, 67
4, 882304, Note_on_c, 2, 86, 67
4, 882368, Note_off_c, 2, 82, 67
4, 882368, Note_off_c, 2, 86, 67
4, 882432, Note_off_c, 2, 82, 67
4, 882432, Note_off_c, 2, 86, 67
4, 882432, Note_on_c, 2, 80, 67
4, 882432, Note_on_c, 2, 84, 67
4, 882496, Note_off_c, 2, 80, 67
4, 882496, Note_off_c, 2, 84, 67
4, 882560, Note_off_c, 2, 80, 67
4, 882560, Note_off_c, 2, 84, 67
4, 882560, Note_on_c, 2, 79, 67
4, 882560, Note_on_c, 2, 87, 67
4, 882624, Note_off_c, 2, 79, 67
4, 882624, Note_off_c, 2, 87, 67
4, 882688, Note_off_c, 2, 79, 67
4, 882688, Note_off_c, 2, 87, 67
4, 882688, Note_on_c, 2, 75, 67
4, 882688, Note_on_c, 2, 82, 67
4, 882752, Note_off_c, 2, 75, 67
4, 882752, Note_off_c, 2, 82, 67
4, 882816, Note_off_c, 2, 75, 67
4, 882816, Note_off_c, 2, 82, 67
4, 882816, Note_on_c, 2, 79, 67
4, 882880, Note_off_c, 2, 79, 67
4, 882944, Note_off_c, 2, 79, 67
4, 882944, Note_on_c, 2, 67, 67
4, 882944, Note_on_c, 2, 75, 67
4, 883008, Note_off_c, 2, 67, 67
4, 883008, Note_off_c, 2, 75, 67
4, 883072, Note_off_c, 2, 67, 67
4, 883072, Note_off_c, 2, 75, 67
4, 883072, Note_on_c, 2, 68, 67
4, 883072, Note_on_c, 2, 74, 67
4, 883104, Note_off_c, 2, 68, 67
4, 883104, Note_off_c, 2, 74, 67
4, 883136, Note_off_c, 2, 68, 67
4, 883136, Note_off_c, 2, 74, 67
4, 883136, Note_on_c, 2, 74, 67
4, 883136, Note_on_c, 2, 79, 67
4, 883168, Note_off_c, 2, 74, 67
4, 883168, Note_off_c, 2, 79, 67
4, 883200, Note_off_c, 2, 74, 67
4, 883200, Note_off_c, 2, 79, 67
4, 883200, Note_on_c, 2, 70, 67
4, 883200, Note_on_c, 2, 77, 67
4, 883264, Note_off_c, 2, 70, 67
4, 883264, Note_off_c, 2, 77, 67
4, 883328, Note_off_c, 2, 70, 67
4, 883328, Note_off_c, 2, 77, 67
4, 883328, Note_on_c, 2, 65, 67
4, 883328, Note_on_c, 2, 70, 67
4, 883392, Note_off_c, 2, 65, 67
4, 883392, Note_off_c, 2, 70, 67
4, 883456, Note_off_c, 2, 65, 67
4, 883456, Note_off_c, 2, 70, 67
4, 883456, Note_on_c, 2, 68, 67
4, 883456, Note_on_c, 2, 70, 67
4, 883520, Note_off_c, 2, 68, 67
4, 883520, Note_off_c, 2, 70, 67
4, 883584, Note_off_c, 2, 68, 67
4, 883584, Note_off_c, 2, 70, 67
4, 883584, Note_on_c, 2, 70, 67
4, 883584, Note_on_c, 2, 79, 67
4, 883648, Note_off_c, 2, 70, 67
4, 883648, Note_off_c, 2, 79, 67
4, 883648, Note_on_c, 2, 77, 67
4, 883648, Note_on_c, 2, 80, 67
4, 883712, Note_off_c, 2, 77, 67
4, 883712, Note_off_c, 2, 80, 67
4, 883712, Note_on_c, 2, 79, 67
4, 883712, Note_on_c, 2, 82, 67
4, 883776, Note_off_c, 2, 79, 67
4, 883776, Note_off_c, 2, 82, 67
4, 883840, Note_off_c, 2, 79, 67
4, 883840, Note_off_c, 2, 82, 67
4, 883840, Note_on_c, 2, 79, 67
4, 883840, Note_on_c, 2, 82, 67
4, 883904, Note_off_c, 2, 79, 67
4, 883904, Note_off_c, 2, 82, 67
4, 883968, Note_off_c, 2, 79, 67
4, 883968, Note_off_c, 2, 82, 67
4, 883968, Note_on_c, 2, 70, 67
4, 883968, Note_on_c, 2, 79, 67
4, 884032, Note_off_c, 2, 70, 67
4, 884032, Note_off_c, 2, 79, 67
4, 884096, Note_off_c, 2, 70, 67
4, 884096, Note_off_c, 2, 79, 67
4, 884096, Note_on_c, 2, 75, 67
4, 884096, Note_on_c, 2, 82, 67
4, 884160, Note_off_c, 2, 75, 67
4, 884160, Note_off_c, 2, 82, 67
4, 884224, Note_off_c, 2, 75, 67
4, 884224, Note_off_c, 2, 82, 67
4, 884224, Note_on_c, 2, 84, 67
4, 884224, Note_on_c, 2, 87, 67
4, 884288, Note_off_c, 2, 84, 67
4, 884288, Note_off_c, 2, 87, 67
4, 884352, Note_off_c, 2, 84, 67
4, 884352, Note_off_c, 2, 87, 67
4, 884352, Note_on_c, 2, 82, 67
4, 884352, Note_on_c, 2, 86, 67
4, 884416, Note_off_c, 2, 82, 67
4, 884416, Note_off_c, 2, 86, 67
4, 884480, Note_off_c, 2, 82, 67
4, 884480, Note_off_c, 2, 86, 67
4, 884480, Note_on_c, 2, 80, 67
4, 884480, Note_on_c, 2, 84, 67
4, 884544, Note_off_c, 2, 80, 67
4, 884544, Note_off_c, 2, 84, 67
4, 884608, Note_off_c, 2, 80, 67
4, 884608, Note_off_c, 2, 84, 67
4, 884608, Note_on_c, 2, 70, 67
4, 884608, Note_on_c, 2, 74, 67
4, 884640, Note_off_c, 2, 70, 67
4, 884640, Note_off_c, 2, 74, 67
4, 884672, Note_off_c, 2, 70, 67
4, 884672, Note_off_c, 2, 74, 67
4, 884672, Note_on_c, 2, 77, 67
4, 884672, Note_on_c, 2, 80, 67
4, 884704, Note_off_c, 2, 77, 67
4, 884704, Note_off_c, 2, 80, 67
4, 884736, Note_off_c, 2, 77, 67
4, 884736, Note_off_c, 2, 80, 67
4, 884736, Note_on_c, 2, 77, 67
4, 884736, Note_on_c, 2, 82, 67
4, 884800, Note_off_c, 2, 77, 67
4, 884800, Note_off_c, 2, 82, 67
4, 884864, Note_off_c, 2, 77, 67
4, 884864, Note_off_c, 2, 82, 67
4, 884864, Note_on_c, 2, 80, 67
4, 884864, Note_on_c, 2, 87, 67
4, 884928, Note_off_c, 2, 80, 67
4, 884928, Note_off_c, 2, 87, 67
4, 884992, Note_off_c, 2, 80, 67
4, 884992, Note_off_c, 2, 87, 67
4, 884992, Note_on_c, 2, 82, 67
4, 884992, Note_on_c, 2, 86, 67
4, 885056, Note_off_c, 2, 82, 67
4, 885056, Note_off_c, 2, 86, 67
4, 885120, Note_off_c, 2, 82, 67
4, 885120, Note_off_c, 2, 86, 67
4, 885120, Note_on_c, 2, 80, 67
4, 885120, Note_on_c, 2, 89, 67
4, 885184, Note_off_c, 2, 80, 67
4, 885184, Note_off_c, 2, 89, 67
4, 885248, Note_off_c, 2, 80, 67
4, 885248, Note_off_c, 2, 89, 67
4, 885248, Note_on_c, 2, 79, 67
4, 885248, Note_on_c, 2, 87, 67
4, 885312, Note_off_c, 2, 79, 67
4, 885312, Note_off_c, 2, 87, 67
4, 885376, Note_off_c, 2, 79, 67
4, 885376, Note_off_c, 2, 87, 67
4, 885376, Note_on_c, 2, 70, 67
4, 885376, Note_on_c, 2, 82, 67
4, 885440, Note_off_c, 2, 70, 67
4, 885440, Note_off_c, 2, 82, 67
4, 885504, Note_off_c, 2, 70, 67
4, 885504, Note_off_c, 2, 82, 67
4, 885504, Note_on_c, 2, 70, 67
4, 885504, Note_on_c, 2, 82, 67
4, 885568, Note_off_c, 2, 70, 67
4, 885568, Note_off_c, 2, 82, 67
4, 885632, Note_off_c, 2, 70, 67
4, 885632, Note_off_c, 2, 82, 67
4, 885632, Note_on_c, 2, 75, 67
4, 885696, Note_off_c, 2, 75, 67
4, 885696, Note_on_c, 2, 77, 67
4, 885760, Note_off_c, 2, 77, 67
4, 885760, Note_on_c, 2, 79, 67
4, 885824, Note_off_c, 2, 79, 67
4, 885888, Note_off_c, 2, 79, 67
4, 885888, Note_on_c, 2, 75, 67
4, 885888, Note_on_c, 2, 79, 67
4, 885952, Note_off_c, 2, 75, 67
4, 885952, Note_off_c, 2, 79, 67
4, 886016, Note_off_c, 2, 75, 67
4, 886016, Note_off_c, 2, 79, 67
4, 886016, Note_on_c, 2, 75, 67
4, 886016, Note_on_c, 2, 79, 67
4, 886080, Note_off_c, 2, 75, 67
4, 886080, Note_off_c, 2, 79, 67
4, 886144, Note_off_c, 2, 75, 67
4, 886144, Note_off_c, 2, 79, 67
4, 886144, Note_on_c, 2, 75, 67
4, 886208, Note_off_c, 2, 75, 67
4, 886208, Note_on_c, 2, 77, 67
4, 886272, Note_off_c, 2, 77, 67
4, 886272, Note_on_c, 2, 79, 67
4, 886336, Note_off_c, 2, 79, 67
4, 886400, Note_off_c, 2, 79, 67
4, 886400, Note_on_c, 2, 75, 67
4, 886400, Note_on_c, 2, 79, 67
4, 886464, Note_off_c, 2, 75, 67
4, 886464, Note_off_c, 2, 79, 67
4, 886528, Note_off_c, 2, 75, 67
4, 886528, Note_off_c, 2, 79, 67
4, 886528, Note_on_c, 2, 75, 67
4, 886528, Note_on_c, 2, 79, 67
4, 886592, Note_off_c, 2, 75, 67
4, 886592, Note_off_c, 2, 79, 67
4, 886656, Note_off_c, 2, 75, 67
4, 886656, Note_off_c, 2, 79, 67
4, 886656, Note_on_c, 2, 75, 67
4, 886720, Note_off_c, 2, 75, 67
4, 886720, Note_on_c, 2, 77, 67
4, 886784, Note_off_c, 2, 77, 67
4, 886784, Note_on_c, 2, 79, 67
4, 886848, Note_off_c, 2, 79, 67
4, 886912, Note_off_c, 2, 79, 67
4, 886912, Note_on_c, 2, 75, 67
4, 886912, Note_on_c, 2, 79, 67
4, 886976, Note_off_c, 2, 75, 67
4, 886976, Note_off_c, 2, 79, 67
4, 887040, Note_off_c, 2, 75, 67
4, 887040, Note_off_c, 2, 79, 67
4, 887040, Note_on_c, 2, 75, 67
4, 887040, Note_on_c, 2, 80, 67
4, 887072, Note_off_c, 2, 75, 67
4, 887072, Note_off_c, 2, 80, 67
4, 887104, Note_off_c, 2, 75, 67
4, 887104, Note_off_c, 2, 80, 67
4, 887104, Note_on_c, 2, 74, 67
4, 887136, Note_off_c, 2, 74, 67
4, 887168, Note_off_c, 2, 74, 67
4, 887168, Note_on_c, 2, 72, 67
4, 887200, Note_off_c, 2, 72, 67
4, 887232, Note_off_c, 2, 72, 67
4, 887232, Note_on_c, 2, 74, 67
4, 887232, Note_on_c, 2, 79, 67
4, 887264, Note_off_c, 2, 74, 67
4, 887264, Note_off_c, 2, 79, 67
4, 887296, Note_off_c, 2, 74, 67
4, 887296, Note_off_c, 2, 79, 67
4, 887296, Note_on_c, 2, 70, 67
4, 887296, Note_on_c, 2, 77, 67
4, 887360, Note_off_c, 2, 70, 67
4, 887360, Note_off_c, 2, 77, 67
4, 887424, Note_off_c, 2, 70, 67
4, 887424, Note_off_c, 2, 77, 67
4, 887424, Note_on_c, 2, 68, 67
4, 887424, Note_on_c, 2, 70, 67
4, 887488, Note_off_c, 2, 68, 67
4, 887488, Note_off_c, 2, 70, 67
4, 887552, Note_off_c, 2, 68, 67
4, 887552, Note_off_c, 2, 70, 67
4, 887552, Note_on_c, 2, 68, 67
4, 887552, Note_on_c, 2, 70, 67
4, 887616, Note_off_c, 2, 68, 67
4, 887616, Note_off_c, 2, 70, 67
4, 887680, Note_off_c, 2, 68, 67
4, 887680, Note_off_c, 2, 70, 67
4, 887680, Note_on_c, 2, 74, 67
4, 887744, Note_off_c, 2, 74, 67
4, 887744, Note_on_c, 2, 75, 67
4, 887808, Note_off_c, 2, 75, 67
4, 887808, Note_on_c, 2, 77, 67
4, 887872, Note_off_c, 2, 77, 67
4, 887936, Note_off_c, 2, 77, 67
4, 887936, Note_on_c, 2, 74, 67
4, 887936, Note_on_c, 2, 77, 67
4, 888000, Note_off_c, 2, 74, 67
4, 888000, Note_off_c, 2, 77, 67
4, 888064, Note_off_c, 2, 74, 67
4, 888064, Note_off_c, 2, 77, 67
4, 888064, Note_on_c, 2, 74, 67
4, 888064, Note_on_c, 2, 77, 67
4, 888128, Note_off_c, 2, 74, 67
4, 888128, Note_off_c, 2, 77, 67
4, 888192, Note_off_c, 2, 74, 67
4, 888192, Note_off_c, 2, 77, 67
4, 888192, Note_on_c, 2, 74, 67
4, 888256, Note_off_c, 2, 74, 67
4, 888256, Note_on_c, 2, 75, 67
4, 888320, Note_off_c, 2, 75, 67
4, 888320, Note_on_c, 2, 77, 67
4, 888384, Note_off_c, 2, 77, 67
4, 888448, Note_off_c, 2, 77, 67
4, 888448, Note_on_c, 2, 74, 67
4, 888448, Note_on_c, 2, 77, 67
4, 888512, Note_off_c, 2, 74, 67
4, 888512, Note_off_c, 2, 77, 67
4, 888576, Note_off_c, 2, 74, 67
4, 888576, Note_off_c, 2, 77, 67
4, 888576, Note_on_c, 2, 74, 67
4, 888576, Note_on_c, 2, 77, 67
4, 888640, Note_off_c, 2, 74, 67
4, 888640, Note_off_c, 2, 77, 67
4, 888704, Note_off_c, 2, 74, 67
4, 888704, Note_off_c, 2, 77, 67
4, 888704, Note_on_c, 2, 74, 67
4, 888768, Note_off_c, 2, 74, 67
4, 888768, Note_on_c, 2, 75, 67
4, 888832, Note_off_c, 2, 75, 67
4, 888832, Note_on_c, 2, 70, 67
4, 888832, Note_on_c, 2, 77, 67
4, 888896, Note_off_c, 2, 70, 67
4, 888896, Note_off_c, 2, 77, 67
4, 888960, Note_off_c, 2, 70, 67
4, 888960, Note_off_c, 2, 77, 67
4, 888960, Note_on_c, 2, 74, 67
4, 888960, Note_on_c, 2, 77, 67
4, 889024, Note_off_c, 2, 74, 67
4, 889024, Note_off_c, 2, 77, 67
4, 889088, Note_off_c, 2, 74, 67
4, 889088, Note_off_c, 2, 77, 67
4, 889088, Note_on_c, 2, 74, 67
4, 889088, Note_on_c, 2, 79, 67
4, 889120, Note_off_c, 2, 74, 67
4, 889120, Note_off_c, 2, 79, 67
4, 889152, Note_off_c, 2, 74, 67
4, 889152, Note_off_c, 2, 79, 67
4, 889152, Note_on_c, 2, 72, 67
4, 889152, Note_on_c, 2, 77, 67
4, 889184, Note_off_c, 2, 72, 67
4, 889184, Note_off_c, 2, 77, 67
4, 889216, Note_off_c, 2, 72, 67
4, 889216, Note_off_c, 2, 77, 67
4, 889216, Note_on_c, 2, 70, 67
4, 889216, Note_on_c, 2, 77, 67
4, 889248, Note_off_c, 2, 70, 67
4, 889248, Note_off_c, 2, 77, 67
4, 889280, Note_off_c, 2, 70, 67
4, 889280, Note_off_c, 2, 77, 67
4, 889280, Note_on_c, 2, 68, 67
4, 889280, Note_on_c, 2, 79, 67
4, 889312, Note_off_c, 2, 68, 67
4, 889312, Note_off_c, 2, 79, 67
4, 889344, Note_off_c, 2, 68, 67
4, 889344, Note_off_c, 2, 79, 67
4, 889344, Note_on_c, 2, 67, 67
4, 889344, Note_on_c, 2, 75, 67
4, 889408, Note_off_c, 2, 67, 67
4, 889408, Note_off_c, 2, 75, 67
4, 889472, Note_off_c, 2, 67, 67
4, 889472, Note_off_c, 2, 75, 67
4, 889472, Note_on_c, 2, 70, 67
4, 889536, Note_off_c, 2, 70, 67
4, 889600, Note_off_c, 2, 70, 67
4, 889600, Note_on_c, 2, 70, 67
4, 889600, Note_on_c, 2, 79, 67
4, 889664, Note_off_c, 2, 70, 67
4, 889664, Note_off_c, 2, 79, 67
4, 889728, Note_off_c, 2, 70, 67
4, 889728, Note_off_c, 2, 79, 67
4, 889728, Note_on_c, 2, 75, 67
4, 889792, Note_off_c, 2, 75, 67
4, 889792, Note_on_c, 2, 77, 67
4, 889856, Note_off_c, 2, 77, 67
4, 889856, Note_on_c, 2, 79, 67
4, 889920, Note_off_c, 2, 79, 67
4, 889984, Note_off_c, 2, 79, 67
4, 889984, Note_on_c, 2, 75, 67
4, 889984, Note_on_c, 2, 79, 67
4, 890048, Note_off_c, 2, 75, 67
4, 890048, Note_off_c, 2, 79, 67
4, 890112, Note_off_c, 2, 75, 67
4, 890112, Note_off_c, 2, 79, 67
4, 890112, Note_on_c, 2, 75, 67
4, 890112, Note_on_c, 2, 79, 67
4, 890176, Note_off_c, 2, 75, 67
4, 890176, Note_off_c, 2, 79, 67
4, 890240, Note_off_c, 2, 75, 67
4, 890240, Note_off_c, 2, 79, 67
4, 890240, Note_on_c, 2, 75, 67
4, 890304, Note_off_c, 2, 75, 67
4, 890304, Note_on_c, 2, 77, 67
4, 890368, Note_off_c, 2, 77, 67
4, 890368, Note_on_c, 2, 79, 67
4, 890432, Note_off_c, 2, 79, 67
4, 890496, Note_off_c, 2, 79, 67
4, 890496, Note_on_c, 2, 75, 67
4, 890496, Note_on_c, 2, 79, 67
4, 890560, Note_off_c, 2, 75, 67
4, 890560, Note_off_c, 2, 79, 67
4, 890624, Note_off_c, 2, 75, 67
4, 890624, Note_off_c, 2, 79, 67
4, 890624, Note_on_c, 2, 75, 67
4, 890624, Note_on_c, 2, 79, 67
4, 890688, Note_off_c, 2, 75, 67
4, 890688, Note_off_c, 2, 79, 67
4, 890752, Note_off_c, 2, 75, 67
4, 890752, Note_off_c, 2, 79, 67
4, 890752, Note_on_c, 2, 75, 67
4, 890816, Note_off_c, 2, 75, 67
4, 890816, Note_on_c, 2, 77, 67
4, 890880, Note_off_c, 2, 77, 67
4, 890880, Note_on_c, 2, 79, 67
4, 890944, Note_off_c, 2, 79, 67
4, 891008, Note_off_c, 2, 79, 67
4, 891008, Note_on_c, 2, 75, 67
4, 891008, Note_on_c, 2, 79, 67
4, 891072, Note_off_c, 2, 75, 67
4, 891072, Note_off_c, 2, 79, 67
4, 891136, Note_off_c, 2, 75, 67
4, 891136, Note_off_c, 2, 79, 67
4, 891136, Note_on_c, 2, 75, 67
4, 891136, Note_on_c, 2, 80, 67
4, 891168, Note_off_c, 2, 75, 67
4, 891168, Note_off_c, 2, 80, 67
4, 891200, Note_off_c, 2, 75, 67
4, 891200, Note_off_c, 2, 80, 67
4, 891200, Note_on_c, 2, 74, 67
4, 891264, Note_off_c, 2, 74, 67
4, 891264, Note_on_c, 2, 72, 67
4, 891328, Note_off_c, 2, 72, 67
4, 891328, Note_on_c, 2, 74, 67
4, 891328, Note_on_c, 2, 79, 67
4, 891360, Note_off_c, 2, 74, 67
4, 891360, Note_off_c, 2, 79, 67
4, 891392, Note_off_c, 2, 74, 67
4, 891392, Note_off_c, 2, 79, 67
4, 891392, Note_on_c, 2, 70, 67
4, 891392, Note_on_c, 2, 77, 67
4, 891456, Note_off_c, 2, 70, 67
4, 891456, Note_off_c, 2, 77, 67
4, 891520, Note_off_c, 2, 70, 67
4, 891520, Note_off_c, 2, 77, 67
4, 891520, Note_on_c, 2, 68, 67
4, 891520, Note_on_c, 2, 70, 67
4, 891584, Note_off_c, 2, 68, 67
4, 891584, Note_off_c, 2, 70, 67
4, 891648, Note_off_c, 2, 68, 67
4, 891648, Note_off_c, 2, 70, 67
4, 891648, Note_on_c, 2, 68, 67
4, 891648, Note_on_c, 2, 70, 67
4, 891712, Note_off_c, 2, 68, 67
4, 891712, Note_off_c, 2, 70, 67
4, 891776, Note_off_c, 2, 68, 67
4, 891776, Note_off_c, 2, 70, 67
4, 891776, Note_on_c, 2, 74, 67
4, 891840, Note_off_c, 2, 74, 67
4, 891840, Note_on_c, 2, 75, 67
4, 891904, Note_off_c, 2, 75, 67
4, 891904, Note_on_c, 2, 77, 67
4, 892032, Note_off_c, 2, 77, 67
4, 892032, Note_on_c, 2, 74, 67
4, 892032, Note_on_c, 2, 80, 67
4, 892096, Note_off_c, 2, 74, 67
4, 892096, Note_off_c, 2, 80, 67
4, 892160, Note_off_c, 2, 74, 67
4, 892160, Note_off_c, 2, 80, 67
4, 892160, Note_on_c, 2, 74, 67
4, 892160, Note_on_c, 2, 79, 67
4, 892224, Note_off_c, 2, 74, 67
4, 892224, Note_off_c, 2, 79, 67
4, 892288, Note_off_c, 2, 74, 67
4, 892288, Note_off_c, 2, 79, 67
4, 892288, Note_on_c, 2, 77, 67
4, 892352, Note_off_c, 2, 77, 67
4, 892416, Note_off_c, 2, 77, 67
4, 892416, Note_on_c, 2, 75, 67
4, 892480, Note_off_c, 2, 75, 67
4, 892544, Note_off_c, 2, 75, 67
4, 892544, Note_on_c, 2, 70, 67
4, 892544, Note_on_c, 2, 74, 67
4, 892608, Note_off_c, 2, 70, 67
4, 892608, Note_off_c, 2, 74, 67
4, 892672, Note_off_c, 2, 70, 67
4, 892672, Note_off_c, 2, 74, 67
4, 892672, Note_on_c, 2, 72, 67
4, 892672, Note_on_c, 2, 74, 67
4, 892736, Note_off_c, 2, 72, 67
4, 892736, Note_off_c, 2, 74, 67
4, 892800, Note_off_c, 2, 72, 67
4, 892800, Note_off_c, 2, 74, 67
4, 892800, Note_on_c, 2, 70, 67
4, 892800, Note_on_c, 2, 74, 67
4, 892864, Note_off_c, 2, 70, 67
4, 892864, Note_off_c, 2, 74, 67
4, 892928, Note_off_c, 2, 70, 67
4, 892928, Note_off_c, 2, 74, 67
4, 892928, Note_on_c, 2, 80, 67
4, 892928, Note_on_c, 2, 84, 67
4, 893184, Note_off_c, 2, 80, 67
4, 893184, Note_off_c, 2, 84, 67
4, 893184, Note_on_c, 2, 70, 67
4, 893184, Note_on_c, 2, 74, 67
4, 893200, Note_off_c, 2, 70, 67
4, 893200, Note_off_c, 2, 74, 67
4, 893216, Note_off_c, 2, 70, 67
4, 893216, Note_off_c, 2, 74, 67
4, 893216, Note_on_c, 2, 72, 67
4, 893216, Note_on_c, 2, 75, 67
4, 893232, Note_off_c, 2, 72, 67
4, 893232, Note_off_c, 2, 75, 67
4, 893248, Note_off_c, 2, 72, 67
4, 893248, Note_off_c, 2, 75, 67
4, 893248, Note_on_c, 2, 70, 67
4, 893248, Note_on_c, 2, 74, 67
4, 893280, Note_off_c, 2, 70, 67
4, 893280, Note_off_c, 2, 74, 67
4, 893312, Note_off_c, 2, 70, 67
4, 893312, Note_off_c, 2, 74, 67
4, 893312, Note_on_c, 2, 68, 67
4, 893312, Note_on_c, 2, 72, 67
4, 893344, Note_off_c, 2, 68, 67
4, 893344, Note_off_c, 2, 72, 67
4, 893376, Note_off_c, 2, 68, 67
4, 893376, Note_off_c, 2, 72, 67
4, 893376, Note_on_c, 2, 74, 67
4, 893376, Note_on_c, 2, 77, 67
4, 893408, Note_off_c, 2, 74, 67
4, 893408, Note_off_c, 2, 77, 67
4, 893440, Note_off_c, 2, 74, 67
4, 893440, Note_off_c, 2, 77, 67
4, 893440, Note_on_c, 2, 75, 67
4, 893440, Note_on_c, 2, 79, 67
4, 893568, Note_off_c, 2, 75, 67
4, 893568, Note_off_c, 2, 79, 67
4, 893568, Note_on_c, 2, 70, 67
4, 893632, Note_off_c, 2, 70, 67
4, 893696, Note_off_c, 2, 70, 67
4, 893696, Note_on_c, 2, 70, 67
4, 893760, Note_off_c, 2, 70, 67
4, 893824, Note_off_c, 2, 70, 67
4, 893824, Note_on_c, 2, 75, 67
4, 893824, Note_on_c, 2, 79, 67
4, 893888, Note_off_c, 2, 75, 67
4, 893888, Note_off_c, 2, 79, 67
4, 893888, Note_on_c, 2, 77, 67
4, 893888, Note_on_c, 2, 80, 67
4, 893952, Note_off_c, 2, 77, 67
4, 893952, Note_off_c, 2, 80, 67
4, 893952, Note_on_c, 2, 79, 67
4, 893952, Note_on_c, 2, 82, 67
4, 894016, Note_off_c, 2, 79, 67
4, 894016, Note_off_c, 2, 82, 67
4, 894080, Note_off_c, 2, 79, 67
4, 894080, Note_off_c, 2, 82, 67
4, 894080, Note_on_c, 2, 79, 67
4, 894080, Note_on_c, 2, 82, 67
4, 894144, Note_off_c, 2, 79, 67
4, 894144, Note_off_c, 2, 82, 67
4, 894208, Note_off_c, 2, 79, 67
4, 894208, Note_off_c, 2, 82, 67
4, 894208, Note_on_c, 2, 70, 67
4, 894208, Note_on_c, 2, 79, 67
4, 894272, Note_off_c, 2, 70, 67
4, 894272, Note_off_c, 2, 79, 67
4, 894336, Note_off_c, 2, 70, 67
4, 894336, Note_off_c, 2, 79, 67
4, 894336, Note_on_c, 2, 70, 67
4, 894336, Note_on_c, 2, 75, 67
4, 894400, Note_off_c, 2, 70, 67
4, 894400, Note_off_c, 2, 75, 67
4, 894464, Note_off_c, 2, 70, 67
4, 894464, Note_off_c, 2, 75, 67
4, 894464, Note_on_c, 2, 84, 67
4, 894464, Note_on_c, 2, 87, 67
4, 894528, Note_off_c, 2, 84, 67
4, 894528, Note_off_c, 2, 87, 67
4, 894592, Note_off_c, 2, 84, 67
4, 894592, Note_off_c, 2, 87, 67
4, 894592, Note_on_c, 2, 82, 67
4, 894592, Note_on_c, 2, 86, 67
4, 894656, Note_off_c, 2, 82, 67
4, 894656, Note_off_c, 2, 86, 67
4, 894720, Note_off_c, 2, 82, 67
4, 894720, Note_off_c, 2, 86, 67
4, 894720, Note_on_c, 2, 80, 67
4, 894720, Note_on_c, 2, 84, 67
4, 894784, Note_off_c, 2, 80, 67
4, 894784, Note_off_c, 2, 84, 67
4, 894848, Note_off_c, 2, 80, 67
4, 894848, Note_off_c, 2, 84, 67
4, 894848, Note_on_c, 2, 79, 67
4, 894848, Note_on_c, 2, 87, 67
4, 894912, Note_off_c, 2, 79, 67
4, 894912, Note_off_c, 2, 87, 67
4, 894976, Note_off_c, 2, 79, 67
4, 894976, Note_off_c, 2, 87, 67
4, 894976, Note_on_c, 2, 75, 67
4, 894976, Note_on_c, 2, 82, 67
4, 895040, Note_off_c, 2, 75, 67
4, 895040, Note_off_c, 2, 82, 67
4, 895104, Note_off_c, 2, 75, 67
4, 895104, Note_off_c, 2, 82, 67
4, 895104, Note_on_c, 2, 79, 67
4, 895168, Note_off_c, 2, 79, 67
4, 895232, Note_off_c, 2, 79, 67
4, 895232, Note_on_c, 2, 67, 67
4, 895232, Note_on_c, 2, 75, 67
4, 895296, Note_off_c, 2, 67, 67
4, 895296, Note_off_c, 2, 75, 67
4, 895360, Note_off_c, 2, 67, 67
4, 895360, Note_off_c, 2, 75, 67
4, 895360, Note_on_c, 2, 68, 67
4, 895360, Note_on_c, 2, 74, 67
4, 895392, Note_off_c, 2, 68, 67
4, 895392, Note_off_c, 2, 74, 67
4, 895424, Note_off_c, 2, 68, 67
4, 895424, Note_off_c, 2, 74, 67
4, 895424, Note_on_c, 2, 74, 67
4, 895424, Note_on_c, 2, 79, 67
4, 895456, Note_off_c, 2, 74, 67
4, 895456, Note_off_c, 2, 79, 67
4, 895488, Note_off_c, 2, 74, 67
4, 895488, Note_off_c, 2, 79, 67
4, 895488, Note_on_c, 2, 70, 67
4, 895488, Note_on_c, 2, 77, 67
4, 895552, Note_off_c, 2, 70, 67
4, 895552, Note_off_c, 2, 77, 67
4, 895616, Note_off_c, 2, 70, 67
4, 895616, Note_off_c, 2, 77, 67
4, 895616, Note_on_c, 2, 65, 67
4, 895616, Note_on_c, 2, 70, 67
4, 895680, Note_off_c, 2, 65, 67
4, 895680, Note_off_c, 2, 70, 67
4, 895744, Note_off_c, 2, 65, 67
4, 895744, Note_off_c, 2, 70, 67
4, 895744, Note_on_c, 2, 68, 67
4, 895744, Note_on_c, 2, 70, 67
4, 895808, Note_off_c, 2, 68, 67
4, 895808, Note_off_c, 2, 70, 67
4, 895872, Note_off_c, 2, 68, 67
4, 895872, Note_off_c, 2, 70, 67
4, 895872, Note_on_c, 2, 70, 67
4, 895872, Note_on_c, 2, 79, 67
4, 895936, Note_off_c, 2, 70, 67
4, 895936, Note_off_c, 2, 79, 67
4, 895936, Note_on_c, 2, 77, 67
4, 895936, Note_on_c, 2, 80, 67
4, 896000, Note_off_c, 2, 77, 67
4, 896000, Note_off_c, 2, 80, 67
4, 896000, Note_on_c, 2, 79, 67
4, 896000, Note_on_c, 2, 82, 67
4, 896064, Note_off_c, 2, 79, 67
4, 896064, Note_off_c, 2, 82, 67
4, 896128, Note_off_c, 2, 79, 67
4, 896128, Note_off_c, 2, 82, 67
4, 896128, Note_on_c, 2, 79, 67
4, 896128, Note_on_c, 2, 82, 67
4, 896192, Note_off_c, 2, 79, 67
4, 896192, Note_off_c, 2, 82, 67
4, 896256, Note_off_c, 2, 79, 67
4, 896256, Note_off_c, 2, 82, 67
4, 896256, Note_on_c, 2, 70, 67
4, 896256, Note_on_c, 2, 79, 67
4, 896320, Note_off_c, 2, 70, 67
4, 896320, Note_off_c, 2, 79, 67
4, 896384, Note_off_c, 2, 70, 67
4, 896384, Note_off_c, 2, 79, 67
4, 896384, Note_on_c, 2, 75, 67
4, 896384, Note_on_c, 2, 82, 67
4, 896448, Note_off_c, 2, 75, 67
4, 896448, Note_off_c, 2, 82, 67
4, 896512, Note_off_c, 2, 75, 67
4, 896512, Note_off_c, 2, 82, 67
4, 896512, Note_on_c, 2, 84, 67
4, 896512, Note_on_c, 2, 87, 67
4, 896576, Note_off_c, 2, 84, 67
4, 896576, Note_off_c, 2, 87, 67
4, 896640, Note_off_c, 2, 84, 67
4, 896640, Note_off_c, 2, 87, 67
4, 896640, Note_on_c, 2, 82, 67
4, 896640, Note_on_c, 2, 86, 67
4, 896704, Note_off_c, 2, 82, 67
4, 896704, Note_off_c, 2, 86, 67
4, 896768, Note_off_c, 2, 82, 67
4, 896768, Note_off_c, 2, 86, 67
4, 896768, Note_on_c, 2, 80, 67
4, 896768, Note_on_c, 2, 84, 67
4, 896832, Note_off_c, 2, 80, 67
4, 896832, Note_off_c, 2, 84, 67
4, 896896, Note_off_c, 2, 80, 67
4, 896896, Note_off_c, 2, 84, 67
4, 896896, Note_on_c, 2, 70, 67
4, 896896, Note_on_c, 2, 74, 67
4, 896928, Note_off_c, 2, 70, 67
4, 896928, Note_off_c, 2, 74, 67
4, 896960, Note_off_c, 2, 70, 67
4, 896960, Note_off_c, 2, 74, 67
4, 896960, Note_on_c, 2, 77, 67
4, 896960, Note_on_c, 2, 80, 67
4, 896992, Note_off_c, 2, 77, 67
4, 896992, Note_off_c, 2, 80, 67
4, 897024, Note_off_c, 2, 77, 67
4, 897024, Note_off_c, 2, 80, 67
4, 897024, Note_on_c, 2, 77, 67
4, 897024, Note_on_c, 2, 82, 67
4, 897088, Note_off_c, 2, 77, 67
4, 897088, Note_off_c, 2, 82, 67
4, 897152, Note_off_c, 2, 77, 67
4, 897152, Note_off_c, 2, 82, 67
4, 897152, Note_on_c, 2, 80, 67
4, 897152, Note_on_c, 2, 87, 67
4, 897216, Note_off_c, 2, 80, 67
4, 897216, Note_off_c, 2, 87, 67
4, 897280, Note_off_c, 2, 80, 67
4, 897280, Note_off_c, 2, 87, 67
4, 897280, Note_on_c, 2, 82, 67
4, 897280, Note_on_c, 2, 86, 67
4, 897344, Note_off_c, 2, 82, 67
4, 897344, Note_off_c, 2, 86, 67
4, 897408, Note_off_c, 2, 82, 67
4, 897408, Note_off_c, 2, 86, 67
4, 897408, Note_on_c, 2, 80, 67
4, 897408, Note_on_c, 2, 89, 67
4, 897472, Note_off_c, 2, 80, 67
4, 897472, Note_off_c, 2, 89, 67
4, 897536, Note_off_c, 2, 80, 67
4, 897536, Note_off_c, 2, 89, 67
4, 897536, Note_on_c, 2, 79, 67
4, 897536, Note_on_c, 2, 87, 67
4, 897600, Note_off_c, 2, 79, 67
4, 897600, Note_off_c, 2, 87, 67
4, 897664, Note_off_c, 2, 79, 67
4, 897664, Note_off_c, 2, 87, 67
4, 897664, Note_on_c, 2, 70, 67
4, 897664, Note_on_c, 2, 82, 67
4, 897728, Note_off_c, 2, 70, 67
4, 897728, Note_off_c, 2, 82, 67
4, 897792, Note_off_c, 2, 70, 67
4, 897792, Note_off_c, 2, 82, 67
4, 897792, Note_on_c, 2, 70, 67
4, 897792, Note_on_c, 2, 82, 67
4, 897856, Note_off_c, 2, 70, 67
4, 897856, Note_off_c, 2, 82, 67
4, 897920, Note_off_c, 2, 70, 67
4, 897920, Note_off_c, 2, 82, 67
4, 897920, Note_on_c, 2, 75, 67
4, 897984, Note_off_c, 2, 75, 67
4, 897984, Note_on_c, 2, 77, 67
4, 898048, Note_off_c, 2, 77, 67
4, 898048, Note_on_c, 2, 79, 67
4, 898112, Note_off_c, 2, 79, 67
4, 898176, Note_off_c, 2, 79, 67
4, 898176, Note_on_c, 2, 75, 67
4, 898176, Note_on_c, 2, 79, 67
4, 898240, Note_off_c, 2, 75, 67
4, 898240, Note_off_c, 2, 79, 67
4, 898304, Note_off_c, 2, 75, 67
4, 898304, Note_off_c, 2, 79, 67
4, 898304, Note_on_c, 2, 75, 67
4, 898304, Note_on_c, 2, 79, 67
4, 898368, Note_off_c, 2, 75, 67
4, 898368, Note_off_c, 2, 79, 67
4, 898432, Note_off_c, 2, 75, 67
4, 898432, Note_off_c, 2, 79, 67
4, 898432, Note_on_c, 2, 75, 67
4, 898496, Note_off_c, 2, 75, 67
4, 898496, Note_on_c, 2, 77, 67
4, 898560, Note_off_c, 2, 77, 67
4, 898560, Note_on_c, 2, 79, 67
4, 898624, Note_off_c, 2, 79, 67
4, 898688, Note_off_c, 2, 79, 67
4, 898688, Note_on_c, 2, 75, 67
4, 898688, Note_on_c, 2, 79, 67
4, 898752, Note_off_c, 2, 75, 67
4, 898752, Note_off_c, 2, 79, 67
4, 898816, Note_off_c, 2, 75, 67
4, 898816, Note_off_c, 2, 79, 67
4, 898816, Note_on_c, 2, 75, 67
4, 898816, Note_on_c, 2, 79, 67
4, 898880, Note_off_c, 2, 75, 67
4, 898880, Note_off_c, 2, 79, 67
4, 898944, Note_off_c, 2, 75, 67
4, 898944, Note_off_c, 2, 79, 67
4, 898944, Note_on_c, 2, 75, 67
4, 899008, Note_off_c, 2, 75, 67
4, 899008, Note_on_c, 2, 77, 67
4, 899072, Note_off_c, 2, 77, 67
4, 899072, Note_on_c, 2, 79, 67
4, 899136, Note_off_c, 2, 79, 67
4, 899200, Note_off_c, 2, 79, 67
4, 899200, Note_on_c, 2, 75, 67
4, 899200, Note_on_c, 2, 79, 67
4, 899264, Note_off_c, 2, 75, 67
4, 899264, Note_off_c, 2, 79, 67
4, 899328, Note_off_c, 2, 75, 67
4, 899328, Note_off_c, 2, 79, 67
4, 899328, Note_on_c, 2, 75, 67
4, 899328, Note_on_c, 2, 80, 67
4, 899360, Note_off_c, 2, 75, 67
4, 899360, Note_off_c, 2, 80, 67
4, 899392, Note_off_c, 2, 75, 67
4, 899392, Note_off_c, 2, 80, 67
4, 899392, Note_on_c, 2, 74, 67
4, 899424, Note_off_c, 2, 74, 67
4, 899456, Note_off_c, 2, 74, 67
4, 899456, Note_on_c, 2, 72, 67
4, 899488, Note_off_c, 2, 72, 67
4, 899520, Note_off_c, 2, 72, 67
4, 899520, Note_on_c, 2, 74, 67
4, 899520, Note_on_c, 2, 79, 67
4, 899552, Note_off_c, 2, 74, 67
4, 899552, Note_off_c, 2, 79, 67
4, 899584, Note_off_c, 2, 74, 67
4, 899584, Note_off_c, 2, 79, 67
4, 899584, Note_on_c, 2, 70, 67
4, 899584, Note_on_c, 2, 77, 67
4, 899648, Note_off_c, 2, 70, 67
4, 899648, Note_off_c, 2, 77, 67
4, 899712, Note_off_c, 2, 70, 67
4, 899712, Note_off_c, 2, 77, 67
4, 899712, Note_on_c, 2, 68, 67
4, 899712, Note_on_c, 2, 70, 67
4, 899776, Note_off_c, 2, 68, 67
4, 899776, Note_off_c, 2, 70, 67
4, 899840, Note_off_c, 2, 68, 67
4, 899840, Note_off_c, 2, 70, 67
4, 899840, Note_on_c, 2, 68, 67
4, 899840, Note_on_c, 2, 70, 67
4, 899904, Note_off_c, 2, 68, 67
4, 899904, Note_off_c, 2, 70, 67
4, 899968, Note_off_c, 2, 68, 67
4, 899968, Note_off_c, 2, 70, 67
4, 899968, Note_on_c, 2, 74, 67
4, 900032, Note_off_c, 2, 74, 67
4, 900032, Note_on_c, 2, 75, 67
4, 900096, Note_off_c, 2, 75, 67
4, 900096, Note_on_c, 2, 77, 67
4, 900160, Note_off_c, 2, 77, 67
4, 900224, Note_off_c, 2, 77, 67
4, 900224, Note_on_c, 2, 74, 67
4, 900224, Note_on_c, 2, 77, 67
4, 900288, Note_off_c, 2, 74, 67
4, 900288, Note_off_c, 2, 77, 67
4, 900352, Note_off_c, 2, 74, 67
4, 900352, Note_off_c, 2, 77, 67
4, 900352, Note_on_c, 2, 74, 67
4, 900352, Note_on_c, 2, 77, 67
4, 900416, Note_off_c, 2, 74, 67
4, 900416, Note_off_c, 2, 77, 67
4, 900480, Note_off_c, 2, 74, 67
4, 900480, Note_off_c, 2, 77, 67
4, 900480, Note_on_c, 2, 74, 67
4, 900544, Note_off_c, 2, 74, 67
4, 900544, Note_on_c, 2, 75, 67
4, 900608, Note_off_c, 2, 75, 67
4, 900608, Note_on_c, 2, 77, 67
4, 900672, Note_off_c, 2, 77, 67
4, 900736, Note_off_c, 2, 77, 67
4, 900736, Note_on_c, 2, 74, 67
4, 900736, Note_on_c, 2, 77, 67
4, 900800, Note_off_c, 2, 74, 67
4, 900800, Note_off_c, 2, 77, 67
4, 900864, Note_off_c, 2, 74, 67
4, 900864, Note_off_c, 2, 77, 67
4, 900864, Note_on_c, 2, 74, 67
4, 900864, Note_on_c, 2, 77, 67
4, 900928, Note_off_c, 2, 74, 67
4, 900928, Note_off_c, 2, 77, 67
4, 900992, Note_off_c, 2, 74, 67
4, 900992, Note_off_c, 2, 77, 67
4, 900992, Note_on_c, 2, 74, 67
4, 901056, Note_off_c, 2, 74, 67
4, 901056, Note_on_c, 2, 75, 67
4, 901120, Note_off_c, 2, 75, 67
4, 901120, Note_on_c, 2, 70, 67
4, 901120, Note_on_c, 2, 77, 67
4, 901184, Note_off_c, 2, 70, 67
4, 901184, Note_off_c, 2, 77, 67
4, 901248, Note_off_c, 2, 70, 67
4, 901248, Note_off_c, 2, 77, 67
4, 901248, Note_on_c, 2, 74, 67
4, 901248, Note_on_c, 2, 77, 67
4, 901312, Note_off_c, 2, 74, 67
4, 901312, Note_off_c, 2, 77, 67
4, 901376, Note_off_c, 2, 74, 67
4, 901376, Note_off_c, 2, 77, 67
4, 901376, Note_on_c, 2, 74, 67
4, 901376, Note_on_c, 2, 79, 67
4, 901408, Note_off_c, 2, 74, 67
4, 901408, Note_off_c, 2, 79, 67
4, 901440, Note_off_c, 2, 74, 67
4, 901440, Note_off_c, 2, 79, 67
4, 901440, Note_on_c, 2, 72, 67
4, 901440, Note_on_c, 2, 77, 67
4, 901472, Note_off_c, 2, 72, 67
4, 901472, Note_off_c, 2, 77, 67
4, 901504, Note_off_c, 2, 72, 67
4, 901504, Note_off_c, 2, 77, 67
4, 901504, Note_on_c, 2, 70, 67
4, 901504, Note_on_c, 2, 77, 67
4, 901536, Note_off_c, 2, 70, 67
4, 901536, Note_off_c, 2, 77, 67
4, 901568, Note_off_c, 2, 70, 67
4, 901568, Note_off_c, 2, 77, 67
4, 901568, Note_on_c, 2, 68, 67
4, 901568, Note_on_c, 2, 79, 67
4, 901600, Note_off_c, 2, 68, 67
4, 901600, Note_off_c, 2, 79, 67
4, 901632, Note_off_c, 2, 68, 67
4, 901632, Note_off_c, 2, 79, 67
4, 901632, Note_on_c, 2, 67, 67
4, 901632, Note_on_c, 2, 75, 67
4, 901696, Note_off_c, 2, 67, 67
4, 901696, Note_off_c, 2, 75, 67
4, 901760, Note_off_c, 2, 67, 67
4, 901760, Note_off_c, 2, 75, 67
4, 901760, Note_on_c, 2, 70, 67
4, 901824, Note_off_c, 2, 70, 67
4, 901888, Note_off_c, 2, 70, 67
4, 901888, Note_on_c, 2, 70, 67
4, 901888, Note_on_c, 2, 79, 67
4, 901952, Note_off_c, 2, 70, 67
4, 901952, Note_off_c, 2, 79, 67
4, 902016, Note_off_c, 2, 70, 67
4, 902016, Note_off_c, 2, 79, 67
4, 902016, Note_on_c, 2, 75, 67
4, 902080, Note_off_c, 2, 75, 67
4, 902080, Note_on_c, 2, 77, 67
4, 902144, Note_off_c, 2, 77, 67
4, 902144, Note_on_c, 2, 79, 67
4, 902208, Note_off_c, 2, 79, 67
4, 902272, Note_off_c, 2, 79, 67
4, 902272, Note_on_c, 2, 75, 67
4, 902272, Note_on_c, 2, 79, 67
4, 902336, Note_off_c, 2, 75, 67
4, 902336, Note_off_c, 2, 79, 67
4, 902400, Note_off_c, 2, 75, 67
4, 902400, Note_off_c, 2, 79, 67
4, 902400, Note_on_c, 2, 75, 67
4, 902400, Note_on_c, 2, 79, 67
4, 902464, Note_off_c, 2, 75, 67
4, 902464, Note_off_c, 2, 79, 67
4, 902528, Note_off_c, 2, 75, 67
4, 902528, Note_off_c, 2, 79, 67
4, 902528, Note_on_c, 2, 75, 67
4, 902592, Note_off_c, 2, 75, 67
4, 902592, Note_on_c, 2, 77, 67
4, 902656, Note_off_c, 2, 77, 67
4, 902656, Note_on_c, 2, 79, 67
4, 902720, Note_off_c, 2, 79, 67
4, 902784, Note_off_c, 2, 79, 67
4, 902784, Note_on_c, 2, 75, 67
4, 902784, Note_on_c, 2, 79, 67
4, 902848, Note_off_c, 2, 75, 67
4, 902848, Note_off_c, 2, 79, 67
4, 902912, Note_off_c, 2, 75, 67
4, 902912, Note_off_c, 2, 79, 67
4, 902912, Note_on_c, 2, 75, 67
4, 902912, Note_on_c, 2, 79, 67
4, 902976, Note_off_c, 2, 75, 67
4, 902976, Note_off_c, 2, 79, 67
4, 903040, Note_off_c, 2, 75, 67
4, 903040, Note_off_c, 2, 79, 67
4, 903040, Note_on_c, 2, 75, 67
4, 903104, Note_off_c, 2, 75, 67
4, 903104, Note_on_c, 2, 77, 67
4, 903168, Note_off_c, 2, 77, 67
4, 903168, Note_on_c, 2, 79, 67
4, 903232, Note_off_c, 2, 79, 67
4, 903296, Note_off_c, 2, 79, 67
4, 903296, Note_on_c, 2, 75, 67
4, 903296, Note_on_c, 2, 79, 67
4, 903360, Note_off_c, 2, 75, 67
4, 903360, Note_off_c, 2, 79, 67
4, 903424, Note_off_c, 2, 75, 67
4, 903424, Note_off_c, 2, 79, 67
4, 903424, Note_on_c, 2, 75, 67
4, 903424, Note_on_c, 2, 80, 67
4, 903456, Note_off_c, 2, 75, 67
4, 903456, Note_off_c, 2, 80, 67
4, 903488, Note_off_c, 2, 75, 67
4, 903488, Note_off_c, 2, 80, 67
4, 903488, Note_on_c, 2, 74, 67
4, 903552, Note_off_c, 2, 74, 67
4, 903552, Note_on_c, 2, 72, 67
4, 903616, Note_off_c, 2, 72, 67
4, 903616, Note_on_c, 2, 74, 67
4, 903616, Note_on_c, 2, 79, 67
4, 903648, Note_off_c, 2, 74, 67
4, 903648, Note_off_c, 2, 79, 67
4, 903680, Note_off_c, 2, 74, 67
4, 903680, Note_off_c, 2, 79, 67
4, 903680, Note_on_c, 2, 70, 67
4, 903680, Note_on_c, 2, 77, 67
4, 903744, Note_off_c, 2, 70, 67
4, 903744, Note_off_c, 2, 77, 67
4, 903808, Note_off_c, 2, 70, 67
4, 903808, Note_off_c, 2, 77, 67
4, 903808, Note_on_c, 2, 68, 67
4, 903808, Note_on_c, 2, 70, 67
4, 903872, Note_off_c, 2, 68, 67
4, 903872, Note_off_c, 2, 70, 67
4, 903936, Note_off_c, 2, 68, 67
4, 903936, Note_off_c, 2, 70, 67
4, 903936, Note_on_c, 2, 68, 67
4, 903936, Note_on_c, 2, 70, 67
4, 904000, Note_off_c, 2, 68, 67
4, 904000, Note_off_c, 2, 70, 67
4, 904064, Note_off_c, 2, 68, 67
4, 904064, Note_off_c, 2, 70, 67
4, 904064, Note_on_c, 2, 74, 67
4, 904128, Note_off_c, 2, 74, 67
4, 904128, Note_on_c, 2, 75, 67
4, 904192, Note_off_c, 2, 75, 67
4, 904192, Note_on_c, 2, 77, 67
4, 904320, Note_off_c, 2, 77, 67
4, 904320, Note_on_c, 2, 74, 67
4, 904320, Note_on_c, 2, 80, 67
4, 904384, Note_off_c, 2, 74, 67
4, 904384, Note_off_c, 2, 80, 67
4, 904448, Note_off_c, 2, 74, 67
4, 904448, Note_off_c, 2, 80, 67
4, 904448, Note_on_c, 2, 74, 67
4, 904448, Note_on_c, 2, 79, 67
4, 904512, Note_off_c, 2, 74, 67
4, 904512, Note_off_c, 2, 79, 67
4, 904576, Note_off_c, 2, 74, 67
4, 904576, Note_off_c, 2, 79, 67
4, 904576, Note_on_c, 2, 77, 67
4, 904640, Note_off_c, 2, 77, 67
4, 904704, Note_off_c, 2, 77, 67
4, 904704, Note_on_c, 2, 75, 67
4, 904768, Note_off_c, 2, 75, 67
4, 904832, Note_off_c, 2, 75, 67
4, 904832, Note_on_c, 2, 70, 67
4, 904832, Note_on_c, 2, 74, 67
4, 904896, Note_off_c, 2, 70, 67
4, 904896, Note_off_c, 2, 74, 67
4, 904960, Note_off_c, 2, 70, 67
4, 904960, Note_off_c, 2, 74, 67
4, 904960, Note_on_c, 2, 72, 67
4, 904960, Note_on_c, 2, 74, 67
4, 905024, Note_off_c, 2, 72, 67
4, 905024, Note_off_c, 2, 74, 67
4, 905088, Note_off_c, 2, 72, 67
4, 905088, Note_off_c, 2, 74, 67
4, 905088, Note_on_c, 2, 70, 67
4, 905088, Note_on_c, 2, 74, 67
4, 905152, Note_off_c, 2, 70, 67
4, 905152, Note_off_c, 2, 74, 67
4, 905216, Note_off_c, 2, 70, 67
4, 905216, Note_off_c, 2, 74, 67
4, 905216, Note_on_c, 2, 80, 67
4, 905216, Note_on_c, 2, 84, 67
4, 905472, Note_off_c, 2, 80, 67
4, 905472, Note_off_c, 2, 84, 67
4, 905472, Note_on_c, 2, 70, 67
4, 905472, Note_on_c, 2, 74, 67
4, 905488, Note_off_c, 2, 70, 67
4, 905488, Note_off_c, 2, 74, 67
4, 905504, Note_off_c, 2, 70, 67
4, 905504, Note_off_c, 2, 74, 67
4, 905504, Note_on_c, 2, 72, 67
4, 905504, Note_on_c, 2, 75, 67
4, 905520, Note_off_c, 2, 72, 67
4, 905520, Note_off_c, 2, 75, 67
4, 905536, Note_off_c, 2, 72, 67
4, 905536, Note_off_c, 2, 75, 67
4, 905536, Note_on_c, 2, 70, 67
4, 905536, Note_on_c, 2, 74, 67
4, 905568, Note_off_c, 2, 70, 67
4, 905568, Note_off_c, 2, 74, 67
4, 905600, Note_off_c, 2, 70, 67
4, 905600, Note_off_c, 2, 74, 67
4, 905600, Note_on_c, 2, 68, 67
4, 905600, Note_on_c, 2, 72, 67
4, 905632, Note_off_c, 2, 68, 67
4, 905632, Note_off_c, 2, 72, 67
4, 905664, Note_off_c, 2, 68, 67
4, 905664, Note_off_c, 2, 72, 67
4, 905664, Note_on_c, 2, 74, 67
4, 905664, Note_on_c, 2, 77, 67
4, 905696, Note_off_c, 2, 74, 67
4, 905696, Note_off_c, 2, 77, 67
4, 905728, Note_off_c, 2, 74, 67
4, 905728, Note_off_c, 2, 77, 67
4, 905728, Note_on_c, 2, 75, 67
4, 905728, Note_on_c, 2, 79, 67
4, 905856, Note_off_c, 2, 75, 67
4, 905856, Note_off_c, 2, 79, 67
4, 905856, Note_on_c, 2, 70, 67
4, 905920, Note_off_c, 2, 70, 67
4, 905984, Note_off_c, 2, 70, 67
4, 905984, Note_on_c, 2, 70, 67
4, 906048, Note_off_c, 2, 70, 67
4, 906112, Note_off_c, 2, 70, 67
4, 906112, Note_on_c, 2, 75, 67
4, 906112, Note_on_c, 2, 79, 67
4, 906176, Note_off_c, 2, 75, 67
4, 906176, Note_off_c, 2, 79, 67
4, 906176, Note_on_c, 2, 77, 67
4, 906176, Note_on_c, 2, 80, 67
4, 906240, Note_off_c, 2, 77, 67
4, 906240, Note_off_c, 2, 80, 67
4, 906240, Note_on_c, 2, 79, 67
4, 906240, Note_on_c, 2, 82, 67
4, 906304, Note_off_c, 2, 79, 67
4, 906304, Note_off_c, 2, 82, 67
4, 906368, Note_off_c, 2, 79, 67
4, 906368, Note_off_c, 2, 82, 67
4, 906368, Note_on_c, 2, 79, 67
4, 906368, Note_on_c, 2, 82, 67
4, 906432, Note_off_c, 2, 79, 67
4, 906432, Note_off_c, 2, 82, 67
4, 906496, Note_off_c, 2, 79, 67
4, 906496, Note_off_c, 2, 82, 67
4, 906496, Note_on_c, 2, 70, 67
4, 906496, Note_on_c, 2, 79, 67
4, 906560, Note_off_c, 2, 70, 67
4, 906560, Note_off_c, 2, 79, 67
4, 906624, Note_off_c, 2, 70, 67
4, 906624, Note_off_c, 2, 79, 67
4, 906624, Note_on_c, 2, 70, 67
4, 906624, Note_on_c, 2, 75, 67
4, 906688, Note_off_c, 2, 70, 67
4, 906688, Note_off_c, 2, 75, 67
4, 906752, Note_off_c, 2, 70, 67
4, 906752, Note_off_c, 2, 75, 67
4, 906752, Note_on_c, 2, 84, 67
4, 906752, Note_on_c, 2, 87, 67
4, 906816, Note_off_c, 2, 84, 67
4, 906816, Note_off_c, 2, 87, 67
4, 906880, Note_off_c, 2, 84, 67
4, 906880, Note_off_c, 2, 87, 67
4, 906880, Note_on_c, 2, 82, 67
4, 906880, Note_on_c, 2, 86, 67
4, 906944, Note_off_c, 2, 82, 67
4, 906944, Note_off_c, 2, 86, 67
4, 907008, Note_off_c, 2, 82, 67
4, 907008, Note_off_c, 2, 86, 67
4, 907008, Note_on_c, 2, 80, 67
4, 907008, Note_on_c, 2, 84, 67
4, 907072, Note_off_c, 2, 80, 67
4, 907072, Note_off_c, 2, 84, 67
4, 907136, Note_off_c, 2, 80, 67
4, 907136, Note_off_c, 2, 84, 67
4, 907136, Note_on_c, 2, 79, 67
4, 907136, Note_on_c, 2, 87, 67
4, 907200, Note_off_c, 2, 79, 67
4, 907200, Note_off_c, 2, 87, 67
4, 907264, Note_off_c, 2, 79, 67
4, 907264, Note_off_c, 2, 87, 67
4, 907264, Note_on_c, 2, 75, 67
4, 907264, Note_on_c, 2, 82, 67
4, 907328, Note_off_c, 2, 75, 67
4, 907328, Note_off_c, 2, 82, 67
4, 907392, Note_off_c, 2, 75, 67
4, 907392, Note_off_c, 2, 82, 67
4, 907392, Note_on_c, 2, 79, 67
4, 907456, Note_off_c, 2, 79, 67
4, 907520, Note_off_c, 2, 79, 67
4, 907520, Note_on_c, 2, 67, 67
4, 907520, Note_on_c, 2, 75, 67
4, 907584, Note_off_c, 2, 67, 67
4, 907584, Note_off_c, 2, 75, 67
4, 907648, Note_off_c, 2, 67, 67
4, 907648, Note_off_c, 2, 75, 67
4, 907648, Note_on_c, 2, 68, 67
4, 907648, Note_on_c, 2, 74, 67
4, 907680, Note_off_c, 2, 68, 67
4, 907680, Note_off_c, 2, 74, 67
4, 907712, Note_off_c, 2, 68, 67
4, 907712, Note_off_c, 2, 74, 67
4, 907712, Note_on_c, 2, 74, 67
4, 907712, Note_on_c, 2, 79, 67
4, 907744, Note_off_c, 2, 74, 67
4, 907744, Note_off_c, 2, 79, 67
4, 907776, Note_off_c, 2, 74, 67
4, 907776, Note_off_c, 2, 79, 67
4, 907776, Note_on_c, 2, 70, 67
4, 907776, Note_on_c, 2, 77, 67
4, 907840, Note_off_c, 2, 70, 67
4, 907840, Note_off_c, 2, 77, 67
4, 907904, Note_off_c, 2, 70, 67
4, 907904, Note_off_c, 2, 77, 67
4, 907904, Note_on_c, 2, 65, 67
4, 907904, Note_on_c, 2, 70, 67
4, 907968, Note_off_c, 2, 65, 67
4, 907968, Note_off_c, 2, 70, 67
4, 908032, Note_off_c, 2, 65, 67
4, 908032, Note_off_c, 2, 70, 67
4, 908032, Note_on_c, 2, 68, 67
4, 908032, Note_on_c, 2, 70, 67
4, 908096, Note_off_c, 2, 68, 67
4, 908096, Note_off_c, 2, 70, 67
4, 908160, Note_off_c, 2, 68, 67
4, 908160, Note_off_c, 2, 70, 67
4, 908160, Note_on_c, 2, 70, 67
4, 908160, Note_on_c, 2, 79, 67
4, 908224, Note_off_c, 2, 70, 67
4, 908224, Note_off_c, 2, 79, 67
4, 908224, Note_on_c, 2, 77, 67
4, 908224, Note_on_c, 2, 80, 67
4, 908288, Note_off_c, 2, 77, 67
4, 908288, Note_off_c, 2, 80, 67
4, 908288, Note_on_c, 2, 79, 67
4, 908288, Note_on_c, 2, 82, 67
4, 908352, Note_off_c, 2, 79, 67
4, 908352, Note_off_c, 2, 82, 67
4, 908416, Note_off_c, 2, 79, 67
4, 908416, Note_off_c, 2, 82, 67
4, 908416, Note_on_c, 2, 79, 67
4, 908416, Note_on_c, 2, 82, 67
4, 908480, Note_off_c, 2, 79, 67
4, 908480, Note_off_c, 2, 82, 67
4, 908544, Note_off_c, 2, 79, 67
4, 908544, Note_off_c, 2, 82, 67
4, 908544, Note_on_c, 2, 70, 67
4, 908544, Note_on_c, 2, 79, 67
4, 908608, Note_off_c, 2, 70, 67
4, 908608, Note_off_c, 2, 79, 67
4, 908672, Note_off_c, 2, 70, 67
4, 908672, Note_off_c, 2, 79, 67
4, 908672, Note_on_c, 2, 75, 67
4, 908672, Note_on_c, 2, 82, 67
4, 908736, Note_off_c, 2, 75, 67
4, 908736, Note_off_c, 2, 82, 67
4, 908800, Note_off_c, 2, 75, 67
4, 908800, Note_off_c, 2, 82, 67
4, 908800, Note_on_c, 2, 84, 67
4, 908800, Note_on_c, 2, 87, 67
4, 908864, Note_off_c, 2, 84, 67
4, 908864, Note_off_c, 2, 87, 67
4, 908928, Note_off_c, 2, 84, 67
4, 908928, Note_off_c, 2, 87, 67
4, 908928, Note_on_c, 2, 82, 67
4, 908928, Note_on_c, 2, 86, 67
4, 908992, Note_off_c, 2, 82, 67
4, 908992, Note_off_c, 2, 86, 67
4, 909056, Note_off_c, 2, 82, 67
4, 909056, Note_off_c, 2, 86, 67
4, 909056, Note_on_c, 2, 80, 67
4, 909056, Note_on_c, 2, 84, 67
4, 909120, Note_off_c, 2, 80, 67
4, 909120, Note_off_c, 2, 84, 67
4, 909184, Note_off_c, 2, 80, 67
4, 909184, Note_off_c, 2, 84, 67
4, 909184, Note_on_c, 2, 70, 67
4, 909184, Note_on_c, 2, 74, 67
4, 909216, Note_off_c, 2, 70, 67
4, 909216, Note_off_c, 2, 74, 67
4, 909248, Note_off_c, 2, 70, 67
4, 909248, Note_off_c, 2, 74, 67
4, 909248, Note_on_c, 2, 77, 67
4, 909248, Note_on_c, 2, 80, 67
4, 909280, Note_off_c, 2, 77, 67
4, 909280, Note_off_c, 2, 80, 67
4, 909312, Note_off_c, 2, 77, 67
4, 909312, Note_off_c, 2, 80, 67
4, 909312, Note_on_c, 2, 77, 67
4, 909312, Note_on_c, 2, 82, 67
4, 909376, Note_off_c, 2, 77, 67
4, 909376, Note_off_c, 2, 82, 67
4, 909440, Note_off_c, 2, 77, 67
4, 909440, Note_off_c, 2, 82, 67
4, 909440, Note_on_c, 2, 80, 67
4, 909440, Note_on_c, 2, 87, 67
4, 909504, Note_off_c, 2, 80, 67
4, 909504, Note_off_c, 2, 87, 67
4, 909568, Note_off_c, 2, 80, 67
4, 909568, Note_off_c, 2, 87, 67
4, 909568, Note_on_c, 2, 82, 67
4, 909568, Note_on_c, 2, 86, 67
4, 909632, Note_off_c, 2, 82, 67
4, 909632, Note_off_c, 2, 86, 67
4, 909696, Note_off_c, 2, 82, 67
4, 909696, Note_off_c, 2, 86, 67
4, 909696, Note_on_c, 2, 80, 67
4, 909696, Note_on_c, 2, 89, 67
4, 909760, Note_off_c, 2, 80, 67
4, 909760, Note_off_c, 2, 89, 67
4, 909824, Note_off_c, 2, 80, 67
4, 909824, Note_off_c, 2, 89, 67
4, 909824, Note_on_c, 2, 79, 67
4, 909824, Note_on_c, 2, 87, 67
4, 909888, Note_off_c, 2, 79, 67
4, 909888, Note_off_c, 2, 87, 67
4, 909952, Note_off_c, 2, 79, 67
4, 909952, Note_off_c, 2, 87, 67
4, 909952, Note_on_c, 2, 70, 67
4, 909952, Note_on_c, 2, 82, 67
4, 910016, Note_off_c, 2, 70, 67
4, 910016, Note_off_c, 2, 82, 67
4, 910080, Note_off_c, 2, 70, 67
4, 910080, Note_off_c, 2, 82, 67
4, 910080, Note_on_c, 2, 70, 67
4, 910080, Note_on_c, 2, 82, 67
4, 910144, Note_off_c, 2, 70, 67
4, 910144, Note_off_c, 2, 82, 67
4, 910208, Note_off_c, 2, 70, 67
4, 910208, Note_off_c, 2, 82, 67
4, 910208, Note_on_c, 2, 75, 67
4, 910272, Note_off_c, 2, 75, 67
4, 910272, Note_on_c, 2, 77, 67
4, 910336, Note_off_c, 2, 77, 67
4, 910336, Note_on_c, 2, 79, 67
4, 910400, Note_off_c, 2, 79, 67
4, 910464, Note_off_c, 2, 79, 67
4, 910464, Note_on_c, 2, 75, 67
4, 910464, Note_on_c, 2, 79, 67
4, 910528, Note_off_c, 2, 75, 67
4, 910528, Note_off_c, 2, 79, 67
4, 910592, Note_off_c, 2, 75, 67
4, 910592, Note_off_c, 2, 79, 67
4, 910592, Note_on_c, 2, 75, 67
4, 910592, Note_on_c, 2, 79, 67
4, 910656, Note_off_c, 2, 75, 67
4, 910656, Note_off_c, 2, 79, 67
4, 910720, Note_off_c, 2, 75, 67
4, 910720, Note_off_c, 2, 79, 67
4, 910720, Note_on_c, 2, 75, 67
4, 910784, Note_off_c, 2, 75, 67
4, 910784, Note_on_c, 2, 77, 67
4, 910848, Note_off_c, 2, 77, 67
4, 910848, Note_on_c, 2, 79, 67
4, 910912, Note_off_c, 2, 79, 67
4, 910976, Note_off_c, 2, 79, 67
4, 910976, Note_on_c, 2, 75, 67
4, 910976, Note_on_c, 2, 79, 67
4, 911040, Note_off_c, 2, 75, 67
4, 911040, Note_off_c, 2, 79, 67
4, 911104, Note_off_c, 2, 75, 67
4, 911104, Note_off_c, 2, 79, 67
4, 911104, Note_on_c, 2, 75, 67
4, 911104, Note_on_c, 2, 79, 67
4, 911168, Note_off_c, 2, 75, 67
4, 911168, Note_off_c, 2, 79, 67
4, 911232, Note_off_c, 2, 75, 67
4, 911232, Note_off_c, 2, 79, 67
4, 911232, Note_on_c, 2, 75, 67
4, 911296, Note_off_c, 2, 75, 67
4, 911296, Note_on_c, 2, 77, 67
4, 911360, Note_off_c, 2, 77, 67
4, 911360, Note_on_c, 2, 79, 67
4, 911424, Note_off_c, 2, 79, 67
4, 911488, Note_off_c, 2, 79, 67
4, 911488, Note_on_c, 2, 75, 67
4, 911488, Note_on_c, 2, 79, 67
4, 911552, Note_off_c, 2, 75, 67
4, 911552, Note_off_c, 2, 79, 67
4, 911616, Note_off_c, 2, 75, 67
4, 911616, Note_off_c, 2, 79, 67
4, 911616, Note_on_c, 2, 75, 67
4, 911616, Note_on_c, 2, 80, 67
4, 911648, Note_off_c, 2, 75, 67
4, 911648, Note_off_c, 2, 80, 67
4, 911680, Note_off_c, 2, 75, 67
4, 911680, Note_off_c, 2, 80, 67
4, 911680, Note_on_c, 2, 74, 67
4, 911712, Note_off_c, 2, 74, 67
4, 911744, Note_off_c, 2, 74, 67
4, 911744, Note_on_c, 2, 72, 67
4, 911776, Note_off_c, 2, 72, 67
4, 911808, Note_off_c, 2, 72, 67
4, 911808, Note_on_c, 2, 74, 67
4, 911808, Note_on_c, 2, 79, 67
4, 911840, Note_off_c, 2, 74, 67
4, 911840, Note_off_c, 2, 79, 67
4, 911872, Note_off_c, 2, 74, 67
4, 911872, Note_off_c, 2, 79, 67
4, 911872, Note_on_c, 2, 70, 67
4, 911872, Note_on_c, 2, 77, 67
4, 911936, Note_off_c, 2, 70, 67
4, 911936, Note_off_c, 2, 77, 67
4, 912000, Note_off_c, 2, 70, 67
4, 912000, Note_off_c, 2, 77, 67
4, 912000, Note_on_c, 2, 68, 67
4, 912000, Note_on_c, 2, 70, 67
4, 912064, Note_off_c, 2, 68, 67
4, 912064, Note_off_c, 2, 70, 67
4, 912128, Note_off_c, 2, 68, 67
4, 912128, Note_off_c, 2, 70, 67
4, 912128, Note_on_c, 2, 68, 67
4, 912128, Note_on_c, 2, 70, 67
4, 912192, Note_off_c, 2, 68, 67
4, 912192, Note_off_c, 2, 70, 67
4, 912256, Note_off_c, 2, 68, 67
4, 912256, Note_off_c, 2, 70, 67
4, 912256, Note_on_c, 2, 74, 67
4, 912320, Note_off_c, 2, 74, 67
4, 912320, Note_on_c, 2, 75, 67
4, 912384, Note_off_c, 2, 75, 67
4, 912384, Note_on_c, 2, 77, 67
4, 912448, Note_off_c, 2, 77, 67
4, 912512, Note_off_c, 2, 77, 67
4, 912512, Note_on_c, 2, 74, 67
4, 912512, Note_on_c, 2, 77, 67
4, 912576, Note_off_c, 2, 74, 67
4, 912576, Note_off_c, 2, 77, 67
4, 912640, Note_off_c, 2, 74, 67
4, 912640, Note_off_c, 2, 77, 67
4, 912640, Note_on_c, 2, 74, 67
4, 912640, Note_on_c, 2, 77, 67
4, 912704, Note_off_c, 2, 74, 67
4, 912704, Note_off_c, 2, 77, 67
4, 912768, Note_off_c, 2, 74, 67
4, 912768, Note_off_c, 2, 77, 67
4, 912768, Note_on_c, 2, 74, 67
4, 912832, Note_off_c, 2, 74, 67
4, 912832, Note_on_c, 2, 75, 67
4, 912896, Note_off_c, 2, 75, 67
4, 912896, Note_on_c, 2, 77, 67
4, 912960, Note_off_c, 2, 77, 67
4, 913024, Note_off_c, 2, 77, 67
4, 913024, Note_on_c, 2, 74, 67
4, 913024, Note_on_c, 2, 77, 67
4, 913088, Note_off_c, 2, 74, 67
4, 913088, Note_off_c, 2, 77, 67
4, 913152, Note_off_c, 2, 74, 67
4, 913152, Note_off_c, 2, 77, 67
4, 913152, Note_on_c, 2, 74, 67
4, 913152, Note_on_c, 2, 77, 67
4, 913216, Note_off_c, 2, 74, 67
4, 913216, Note_off_c, 2, 77, 67
4, 913280, Note_off_c, 2, 74, 67
4, 913280, Note_off_c, 2, 77, 67
4, 913280, Note_on_c, 2, 74, 67
4, 913344, Note_off_c, 2, 74, 67
4, 913344, Note_on_c, 2, 75, 67
4, 913408, Note_off_c, 2, 75, 67
4, 913408, Note_on_c, 2, 70, 67
4, 913408, Note_on_c, 2, 77, 67
4, 913472, Note_off_c, 2, 70, 67
4, 913472, Note_off_c, 2, 77, 67
4, 913536, Note_off_c, 2, 70, 67
4, 913536, Note_off_c, 2, 77, 67
4, 913536, Note_on_c, 2, 74, 67
4, 913536, Note_on_c, 2, 77, 67
4, 913600, Note_off_c, 2, 74, 67
4, 913600, Note_off_c, 2, 77, 67
4, 913664, Note_off_c, 2, 74, 67
4, 913664, Note_off_c, 2, 77, 67
4, 913664, Note_on_c, 2, 74, 67
4, 913664, Note_on_c, 2, 79, 67
4, 913696, Note_off_c, 2, 74, 67
4, 913696, Note_off_c, 2, 79, 67
4, 913728, Note_off_c, 2, 74, 67
4, 913728, Note_off_c, 2, 79, 67
4, 913728, Note_on_c, 2, 72, 67
4, 913728, Note_on_c, 2, 77, 67
4, 913760, Note_off_c, 2, 72, 67
4, 913760, Note_off_c, 2, 77, 67
4, 913792, Note_off_c, 2, 72, 67
4, 913792, Note_off_c, 2, 77, 67
4, 913792, Note_on_c, 2, 70, 67
4, 913792, Note_on_c, 2, 77, 67
4, 913824, Note_off_c, 2, 70, 67
4, 913824, Note_off_c, 2, 77, 67
4, 913856, Note_off_c, 2, 70, 67
4, 913856, Note_off_c, 2, 77, 67
4, 913856, Note_on_c, 2, 68, 67
4, 913856, Note_on_c, 2, 79, 67
4, 913888, Note_off_c, 2, 68, 67
4, 913888, Note_off_c, 2, 79, 67
4, 913920, Note_off_c, 2, 68, 67
4, 913920, Note_off_c, 2, 79, 67
4, 913920, Note_on_c, 2, 67, 67
4, 913920, Note_on_c, 2, 75, 67
4, 913984, Note_off_c, 2, 67, 67
4, 913984, Note_off_c, 2, 75, 67
4, 914048, Note_off_c, 2, 67, 67
4, 914048, Note_off_c, 2, 75, 67
4, 914048, Note_on_c, 2, 70, 67
4, 914112, Note_off_c, 2, 70, 67
4, 914176, Note_off_c, 2, 70, 67
4, 914176, Note_on_c, 2, 70, 67
4, 914176, Note_on_c, 2, 79, 67
4, 914240, Note_off_c, 2, 70, 67
4, 914240, Note_off_c, 2, 79, 67
4, 914304, Note_off_c, 2, 70, 67
4, 914304, Note_off_c, 2, 79, 67
4, 914304, Note_on_c, 2, 75, 67
4, 914368, Note_off_c, 2, 75, 67
4, 914368, Note_on_c, 2, 77, 67
4, 914432, Note_off_c, 2, 77, 67
4, 914432, Note_on_c, 2, 79, 67
4, 914496, Note_off_c, 2, 79, 67
4, 914560, Note_off_c, 2, 79, 67
4, 914560, Note_on_c, 2, 75, 67
4, 914560, Note_on_c, 2, 79, 67
4, 914624, Note_off_c, 2, 75, 67
4, 914624, Note_off_c, 2, 79, 67
4, 914688, Note_off_c, 2, 75, 67
4, 914688, Note_off_c, 2, 79, 67
4, 914688, Note_on_c, 2, 75, 67
4, 914688, Note_on_c, 2, 79, 67
4, 914752, Note_off_c, 2, 75, 67
4, 914752, Note_off_c, 2, 79, 67
4, 914816, Note_off_c, 2, 75, 67
4, 914816, Note_off_c, 2, 79, 67
4, 914816, Note_on_c, 2, 75, 67
4, 914880, Note_off_c, 2, 75, 67
4, 914880, Note_on_c, 2, 77, 67
4, 914944, Note_off_c, 2, 77, 67
4, 914944, Note_on_c, 2, 79, 67
4, 915008, Note_off_c, 2, 79, 67
4, 915072, Note_off_c, 2, 79, 67
4, 915072, Note_on_c, 2, 75, 67
4, 915072, Note_on_c, 2, 79, 67
4, 915136, Note_off_c, 2, 75, 67
4, 915136, Note_off_c, 2, 79, 67
4, 915200, Note_off_c, 2, 75, 67
4, 915200, Note_off_c, 2, 79, 67
4, 915200, Note_on_c, 2, 75, 67
4, 915200, Note_on_c, 2, 79, 67
4, 915264, Note_off_c, 2, 75, 67
4, 915264, Note_off_c, 2, 79, 67
4, 915328, Note_off_c, 2, 75, 67
4, 915328, Note_off_c, 2, 79, 67
4, 915328, Note_on_c, 2, 75, 67
4, 915392, Note_off_c, 2, 75, 67
4, 915392, Note_on_c, 2, 77, 67
4, 915456, Note_off_c, 2, 77, 67
4, 915456, Note_on_c, 2, 79, 67
4, 915520, Note_off_c, 2, 79, 67
4, 915584, Note_off_c, 2, 79, 67
4, 915584, Note_on_c, 2, 75, 67
4, 915584, Note_on_c, 2, 79, 67
4, 915648, Note_off_c, 2, 75, 67
4, 915648, Note_off_c, 2, 79, 67
4, 915712, Note_off_c, 2, 75, 67
4, 915712, Note_off_c, 2, 79, 67
4, 915712, Note_on_c, 2, 75, 67
4, 915712, Note_on_c, 2, 80, 67
4, 915744, Note_off_c, 2, 75, 67
4, 915744, Note_off_c, 2, 80, 67
4, 915776, Note_off_c, 2, 75, 67
4, 915776, Note_off_c, 2, 80, 67
4, 915776, Note_on_c, 2, 74, 67
4, 915840, Note_off_c, 2, 74, 67
4, 915840, Note_on_c, 2, 72, 67
4, 915904, Note_off_c, 2, 72, 67
4, 915904, Note_on_c, 2, 74, 67
4, 915904, Note_on_c, 2, 79, 67
4, 915936, Note_off_c, 2, 74, 67
4, 915936, Note_off_c, 2, 79, 67
4, 915968, Note_off_c, 2, 74, 67
4, 915968, Note_off_c, 2, 79, 67
4, 915968, Note_on_c, 2, 70, 67
4, 915968, Note_on_c, 2, 77, 67
4, 916032, Note_off_c, 2, 70, 67
4, 916032, Note_off_c, 2, 77, 67
4, 916096, Note_off_c, 2, 70, 67
4, 916096, Note_off_c, 2, 77, 67
4, 916096, Note_on_c, 2, 68, 67
4, 916096, Note_on_c, 2, 70, 67
4, 916160, Note_off_c, 2, 68, 67
4, 916160, Note_off_c, 2, 70, 67
4, 916224, Note_off_c, 2, 68, 67
4, 916224, Note_off_c, 2, 70, 67
4, 916224, Note_on_c, 2, 68, 67
4, 916224, Note_on_c, 2, 70, 67
4, 916288, Note_off_c, 2, 68, 67
4, 916288, Note_off_c, 2, 70, 67
4, 916352, Note_off_c, 2, 68, 67
4, 916352, Note_off_c, 2, 70, 67
4, 916352, Note_on_c, 2, 74, 67
4, 916416, Note_off_c, 2, 74, 67
4, 916416, Note_on_c, 2, 75, 67
4, 916480, Note_off_c, 2, 75, 67
4, 916480, Note_on_c, 2, 77, 67
4, 916608, Note_off_c, 2, 77, 67
4, 916608, Note_on_c, 2, 74, 67
4, 916608, Note_on_c, 2, 80, 67
4, 916672, Note_off_c, 2, 74, 67
4, 916672, Note_off_c, 2, 80, 67
4, 916736, Note_off_c, 2, 74, 67
4, 916736, Note_off_c, 2, 80, 67
4, 916736, Note_on_c, 2, 74, 67
4, 916736, Note_on_c, 2, 79, 67
4, 916800, Note_off_c, 2, 74, 67
4, 916800, Note_off_c, 2, 79, 67
4, 916864, Note_off_c, 2, 74, 67
4, 916864, Note_off_c, 2, 79, 67
4, 916864, Note_on_c, 2, 77, 67
4, 916928, Note_off_c, 2, 77, 67
4, 916992, Note_off_c, 2, 77, 67
4, 916992, Note_on_c, 2, 75, 67
4, 917056, Note_off_c, 2, 75, 67
4, 917120, Note_off_c, 2, 75, 67
4, 917120, Note_on_c, 2, 70, 67
4, 917120, Note_on_c, 2, 74, 67
4, 917184, Note_off_c, 2, 70, 67
4, 917184, Note_off_c, 2, 74, 67
4, 917248, Note_off_c, 2, 70, 67
4, 917248, Note_off_c, 2, 74, 67
4, 917248, Note_on_c, 2, 72, 67
4, 917248, Note_on_c, 2, 74, 67
4, 917312, Note_off_c, 2, 72, 67
4, 917312, Note_off_c, 2, 74, 67
4, 917376, Note_off_c, 2, 72, 67
4, 917376, Note_off_c, 2, 74, 67
4, 917376, Note_on_c, 2, 70, 67
4, 917376, Note_on_c, 2, 74, 67
4, 917440, Note_off_c, 2, 70, 67
4, 917440, Note_off_c, 2, 74, 67
4, 917504, Note_off_c, 2, 70, 67
4, 917504, Note_off_c, 2, 74, 67
4, 917504, Note_on_c, 2, 80, 67
4, 917504, Note_on_c, 2, 84, 67
4, 917760, Note_off_c, 2, 80, 67
4, 917760, Note_off_c, 2, 84, 67
4, 917760, Note_on_c, 2, 70, 67
4, 917760, Note_on_c, 2, 74, 67
4, 917776, Note_off_c, 2, 70, 67
4, 917776, Note_off_c, 2, 74, 67
4, 917792, Note_off_c, 2, 70, 67
4, 917792, Note_off_c, 2, 74, 67
4, 917792, Note_on_c, 2, 72, 67
4, 917792, Note_on_c, 2, 75, 67
4, 917808, Note_off_c, 2, 72, 67
4, 917808, Note_off_c, 2, 75, 67
4, 917824, Note_off_c, 2, 72, 67
4, 917824, Note_off_c, 2, 75, 67
4, 917824, Note_on_c, 2, 70, 67
4, 917824, Note_on_c, 2, 74, 67
4, 917856, Note_off_c, 2, 70, 67
4, 917856, Note_off_c, 2, 74, 67
4, 917888, Note_off_c, 2, 70, 67
4, 917888, Note_off_c, 2, 74, 67
4, 917888, Note_on_c, 2, 68, 67
4, 917888, Note_on_c, 2, 72, 67
4, 917920, Note_off_c, 2, 68, 67
4, 917920, Note_off_c, 2, 72, 67
4, 917952, Note_off_c, 2, 68, 67
4, 917952, Note_off_c, 2, 72, 67
4, 917952, Note_on_c, 2, 74, 67
4, 917952, Note_on_c, 2, 77, 67
4, 917984, Note_off_c, 2, 74, 67
4, 917984, Note_off_c, 2, 77, 67
4, 918016, Note_off_c, 2, 74, 67
4, 918016, Note_off_c, 2, 77, 67
4, 918016, Note_on_c, 2, 75, 67
4, 918016, Note_on_c, 2, 79, 67
4, 918144, Note_off_c, 2, 75, 67
4, 918144, Note_off_c, 2, 79, 67
4, 918144, Note_on_c, 2, 70, 67
4, 918208, Note_off_c, 2, 70, 67
4, 918272, Note_off_c, 2, 70, 67
4, 918272, Note_on_c, 2, 70, 67
4, 918336, Note_off_c, 2, 70, 67
4, 918400, Note_off_c, 2, 70, 67
4, 918400, Note_on_c, 2, 75, 67
4, 918400, Note_on_c, 2, 79, 67
4, 918464, Note_off_c, 2, 75, 67
4, 918464, Note_off_c, 2, 79, 67
4, 918464, Note_on_c, 2, 77, 67
4, 918464, Note_on_c, 2, 80, 67
4, 918528, Note_off_c, 2, 77, 67
4, 918528, Note_off_c, 2, 80, 67
4, 918528, Note_on_c, 2, 79, 67
4, 918528, Note_on_c, 2, 82, 67
4, 918592, Note_off_c, 2, 79, 67
4, 918592, Note_off_c, 2, 82, 67
4, 918656, Note_off_c, 2, 79, 67
4, 918656, Note_off_c, 2, 82, 67
4, 918656, Note_on_c, 2, 79, 67
4, 918656, Note_on_c, 2, 82, 67
4, 918720, Note_off_c, 2, 79, 67
4, 918720, Note_off_c, 2, 82, 67
4, 918784, Note_off_c, 2, 79, 67
4, 918784, Note_off_c, 2, 82, 67
4, 918784, Note_on_c, 2, 70, 67
4, 918784, Note_on_c, 2, 79, 67
4, 918848, Note_off_c, 2, 70, 67
4, 918848, Note_off_c, 2, 79, 67
4, 918912, Note_off_c, 2, 70, 67
4, 918912, Note_off_c, 2, 79, 67
4, 918912, Note_on_c, 2, 70, 67
4, 918912, Note_on_c, 2, 75, 67
4, 918976, Note_off_c, 2, 70, 67
4, 918976, Note_off_c, 2, 75, 67
4, 919040, Note_off_c, 2, 70, 67
4, 919040, Note_off_c, 2, 75, 67
4, 919040, Note_on_c, 2, 84, 67
4, 919040, Note_on_c, 2, 87, 67
4, 919104, Note_off_c, 2, 84, 67
4, 919104, Note_off_c, 2, 87, 67
4, 919168, Note_off_c, 2, 84, 67
4, 919168, Note_off_c, 2, 87, 67
4, 919168, Note_on_c, 2, 82, 67
4, 919168, Note_on_c, 2, 86, 67
4, 919232, Note_off_c, 2, 82, 67
4, 919232, Note_off_c, 2, 86, 67
4, 919296, Note_off_c, 2, 82, 67
4, 919296, Note_off_c, 2, 86, 67
4, 919296, Note_on_c, 2, 80, 67
4, 919296, Note_on_c, 2, 84, 67
4, 919360, Note_off_c, 2, 80, 67
4, 919360, Note_off_c, 2, 84, 67
4, 919424, Note_off_c, 2, 80, 67
4, 919424, Note_off_c, 2, 84, 67
4, 919424, Note_on_c, 2, 79, 67
4, 919424, Note_on_c, 2, 87, 67
4, 919488, Note_off_c, 2, 79, 67
4, 919488, Note_off_c, 2, 87, 67
4, 919552, Note_off_c, 2, 79, 67
4, 919552, Note_off_c, 2, 87, 67
4, 919552, Note_on_c, 2, 75, 67
4, 919552, Note_on_c, 2, 82, 67
4, 919616, Note_off_c, 2, 75, 67
4, 919616, Note_off_c, 2, 82, 67
4, 919680, Note_off_c, 2, 75, 67
4, 919680, Note_off_c, 2, 82, 67
4, 919680, Note_on_c, 2, 79, 67
4, 919744, Note_off_c, 2, 79, 67
4, 919808, Note_off_c, 2, 79, 67
4, 919808, Note_on_c, 2, 67, 67
4, 919808, Note_on_c, 2, 75, 67
4, 919872, Note_off_c, 2, 67, 67
4, 919872, Note_off_c, 2, 75, 67
4, 919936, Note_off_c, 2, 67, 67
4, 919936, Note_off_c, 2, 75, 67
4, 919936, Note_on_c, 2, 68, 67
4, 919936, Note_on_c, 2, 74, 67
4, 919968, Note_off_c, 2, 68, 67
4, 919968, Note_off_c, 2, 74, 67
4, 920000, Note_off_c, 2, 68, 67
4, 920000, Note_off_c, 2, 74, 67
4, 920000, Note_on_c, 2, 74, 67
4, 920000, Note_on_c, 2, 79, 67
4, 920032, Note_off_c, 2, 74, 67
4, 920032, Note_off_c, 2, 79, 67
4, 920064, Note_off_c, 2, 74, 67
4, 920064, Note_off_c, 2, 79, 67
4, 920064, Note_on_c, 2, 70, 67
4, 920064, Note_on_c, 2, 77, 67
4, 920128, Note_off_c, 2, 70, 67
4, 920128, Note_off_c, 2, 77, 67
4, 920192, Note_off_c, 2, 70, 67
4, 920192, Note_off_c, 2, 77, 67
4, 920192, Note_on_c, 2, 65, 67
4, 920192, Note_on_c, 2, 70, 67
4, 920256, Note_off_c, 2, 65, 67
4, 920256, Note_off_c, 2, 70, 67
4, 920320, Note_off_c, 2, 65, 67
4, 920320, Note_off_c, 2, 70, 67
4, 920320, Note_on_c, 2, 68, 67
4, 920320, Note_on_c, 2, 70, 67
4, 920384, Note_off_c, 2, 68, 67
4, 920384, Note_off_c, 2, 70, 67
4, 920448, Note_off_c, 2, 68, 67
4, 920448, Note_off_c, 2, 70, 67
4, 920448, Note_on_c, 2, 70, 67
4, 920448, Note_on_c, 2, 79, 67
4, 920512, Note_off_c, 2, 70, 67
4, 920512, Note_off_c, 2, 79, 67
4, 920512, Note_on_c, 2, 77, 67
4, 920512, Note_on_c, 2, 80, 67
4, 920576, Note_off_c, 2, 77, 67
4, 920576, Note_off_c, 2, 80, 67
4, 920576, Note_on_c, 2, 79, 67
4, 920576, Note_on_c, 2, 82, 67
4, 920640, Note_off_c, 2, 79, 67
4, 920640, Note_off_c, 2, 82, 67
4, 920704, Note_off_c, 2, 79, 67
4, 920704, Note_off_c, 2, 82, 67
4, 920704, Note_on_c, 2, 79, 67
4, 920704, Note_on_c, 2, 82, 67
4, 920768, Note_off_c, 2, 79, 67
4, 920768, Note_off_c, 2, 82, 67
4, 920832, Note_off_c, 2, 79, 67
4, 920832, Note_off_c, 2, 82, 67
4, 920832, Note_on_c, 2, 70, 67
4, 920832, Note_on_c, 2, 79, 67
4, 920896, Note_off_c, 2, 70, 67
4, 920896, Note_off_c, 2, 79, 67
4, 920960, Note_off_c, 2, 70, 67
4, 920960, Note_off_c, 2, 79, 67
4, 920960, Note_on_c, 2, 75, 67
4, 920960, Note_on_c, 2, 82, 67
4, 921024, Note_off_c, 2, 75, 67
4, 921024, Note_off_c, 2, 82, 67
4, 921088, Note_off_c, 2, 75, 67
4, 921088, Note_off_c, 2, 82, 67
4, 921088, Note_on_c, 2, 84, 67
4, 921088, Note_on_c, 2, 87, 67
4, 921152, Note_off_c, 2, 84, 67
4, 921152, Note_off_c, 2, 87, 67
4, 921216, Note_off_c, 2, 84, 67
4, 921216, Note_off_c, 2, 87, 67
4, 921216, Note_on_c, 2, 82, 67
4, 921216, Note_on_c, 2, 86, 67
4, 921280, Note_off_c, 2, 82, 67
4, 921280, Note_off_c, 2, 86, 67
4, 921344, Note_off_c, 2, 82, 67
4, 921344, Note_off_c, 2, 86, 67
4, 921344, Note_on_c, 2, 80, 67
4, 921344, Note_on_c, 2, 84, 67
4, 921408, Note_off_c, 2, 80, 67
4, 921408, Note_off_c, 2, 84, 67
4, 921472, Note_off_c, 2, 80, 67
4, 921472, Note_off_c, 2, 84, 67
4, 921472, Note_on_c, 2, 70, 67
4, 921472, Note_on_c, 2, 74, 67
4, 921504, Note_off_c, 2, 70, 67
4, 921504, Note_off_c, 2, 74, 67
4, 921536, Note_off_c, 2, 70, 67
4, 921536, Note_off_c, 2, 74, 67
4, 921536, Note_on_c, 2, 77, 67
4, 921536, Note_on_c, 2, 80, 67
4, 921568, Note_off_c, 2, 77, 67
4, 921568, Note_off_c, 2, 80, 67
4, 921600, Note_off_c, 2, 77, 67
4, 921600, Note_off_c, 2, 80, 67
4, 921600, Note_on_c, 2, 77, 67
4, 921600, Note_on_c, 2, 82, 67
4, 921664, Note_off_c, 2, 77, 67
4, 921664, Note_off_c, 2, 82, 67
4, 921728, Note_off_c, 2, 77, 67
4, 921728, Note_off_c, 2, 82, 67
4, 921728, Note_on_c, 2, 80, 67
4, 921728, Note_on_c, 2, 87, 67
4, 921792, Note_off_c, 2, 80, 67
4, 921792, Note_off_c, 2, 87, 67
4, 921856, Note_off_c, 2, 80, 67
4, 921856, Note_off_c, 2, 87, 67
4, 921856, Note_on_c, 2, 82, 67
4, 921856, Note_on_c, 2, 86, 67
4, 921920, Note_off_c, 2, 82, 67
4, 921920, Note_off_c, 2, 86, 67
4, 921984, Note_off_c, 2, 82, 67
4, 921984, Note_off_c, 2, 86, 67
4, 921984, Note_on_c, 2, 80, 67
4, 921984, Note_on_c, 2, 89, 67
4, 922048, Note_off_c, 2, 80, 67
4, 922048, Note_off_c, 2, 89, 67
4, 922112, Note_off_c, 2, 80, 67
4, 922112, Note_off_c, 2, 89, 67
4, 922112, Note_on_c, 2, 79, 67
4, 922112, Note_on_c, 2, 87, 67
4, 922176, Note_off_c, 2, 79, 67
4, 922176, Note_off_c, 2, 87, 67
4, 922240, Note_off_c, 2, 79, 67
4, 922240, Note_off_c, 2, 87, 67
4, 922240, Note_on_c, 2, 70, 67
4, 922240, Note_on_c, 2, 82, 67
4, 922304, Note_off_c, 2, 70, 67
4, 922304, Note_off_c, 2, 82, 67
4, 922368, Note_off_c, 2, 70, 67
4, 922368, Note_off_c, 2, 82, 67
4, 922368, Note_on_c, 2, 70, 67
4, 922368, Note_on_c, 2, 82, 67
4, 922432, Note_off_c, 2, 70, 67
4, 922432, Note_off_c, 2, 82, 67
4, 922496, Note_off_c, 2, 70, 67
4, 922496, Note_off_c, 2, 82, 67
4, 922496, Note_on_c, 2, 75, 67
4, 922560, Note_off_c, 2, 75, 67
4, 922560, Note_on_c, 2, 77, 67
4, 922624, Note_off_c, 2, 77, 67
4, 922624, Note_on_c, 2, 79, 67
4, 922688, Note_off_c, 2, 79, 67
4, 922752, Note_off_c, 2, 79, 67
4, 922752, Note_on_c, 2, 75, 67
4, 922752, Note_on_c, 2, 79, 67
4, 922816, Note_off_c, 2, 75, 67
4, 922816, Note_off_c, 2, 79, 67
4, 922880, Note_off_c, 2, 75, 67
4, 922880, Note_off_c, 2, 79, 67
4, 922880, Note_on_c, 2, 75, 67
4, 922880, Note_on_c, 2, 79, 67
4, 922944, Note_off_c, 2, 75, 67
4, 922944, Note_off_c, 2, 79, 67
4, 923008, Note_off_c, 2, 75, 67
4, 923008, Note_off_c, 2, 79, 67
4, 923008, Note_on_c, 2, 75, 67
4, 923072, Note_off_c, 2, 75, 67
4, 923072, Note_on_c, 2, 77, 67
4, 923136, Note_off_c, 2, 77, 67
4, 923136, Note_on_c, 2, 79, 67
4, 923200, Note_off_c, 2, 79, 67
4, 923264, Note_off_c, 2, 79, 67
4, 923264, Note_on_c, 2, 75, 67
4, 923264, Note_on_c, 2, 79, 67
4, 923328, Note_off_c, 2, 75, 67
4, 923328, Note_off_c, 2, 79, 67
4, 923392, Note_off_c, 2, 75, 67
4, 923392, Note_off_c, 2, 79, 67
4, 923392, Note_on_c, 2, 75, 67
4, 923392, Note_on_c, 2, 79, 67
4, 923456, Note_off_c, 2, 75, 67
4, 923456, Note_off_c, 2, 79, 67
4, 923520, Note_off_c, 2, 75, 67
4, 923520, Note_off_c, 2, 79, 67
4, 923520, Note_on_c, 2, 75, 67
4, 923584, Note_off_c, 2, 75, 67
4, 923584, Note_on_c, 2, 77, 67
4, 923648, Note_off_c, 2, 77, 67
4, 923648, Note_on_c, 2, 79, 67
4, 923712, Note_off_c, 2, 79, 67
4, 923776, Note_off_c, 2, 79, 67
4, 923776, Note_on_c, 2, 75, 67
4, 923776, Note_on_c, 2, 79, 67
4, 923840, Note_off_c, 2, 75, 67
4, 923840, Note_off_c, 2, 79, 67
4, 923904, Note_off_c, 2, 75, 67
4, 923904, Note_off_c, 2, 79, 67
4, 923904, Note_on_c, 2, 75, 67
4, 923904, Note_on_c, 2, 80, 67
4, 923936, Note_off_c, 2, 75, 67
4, 923936, Note_off_c, 2, 80, 67
4, 923968, Note_off_c, 2, 75, 67
4, 923968, Note_off_c, 2, 80, 67
4, 923968, Note_on_c, 2, 74, 67
4, 924000, Note_off_c, 2, 74, 67
4, 924032, Note_off_c, 2, 74, 67
4, 924032, Note_on_c, 2, 72, 67
4, 924064, Note_off_c, 2, 72, 67
4, 924096, Note_off_c, 2, 72, 67
4, 924096, Note_on_c, 2, 74, 67
4, 924096, Note_on_c, 2, 79, 67
4, 924128, Note_off_c, 2, 74, 67
4, 924128, Note_off_c, 2, 79, 67
4, 924160, Note_off_c, 2, 74, 67
4, 924160, Note_off_c, 2, 79, 67
4, 924160, Note_on_c, 2, 70, 67
4, 924160, Note_on_c, 2, 77, 67
4, 924224, Note_off_c, 2, 70, 67
4, 924224, Note_off_c, 2, 77, 67
4, 924288, Note_off_c, 2, 70, 67
4, 924288, Note_off_c, 2, 77, 67
4, 924288, Note_on_c, 2, 68, 67
4, 924288, Note_on_c, 2, 70, 67
4, 924352, Note_off_c, 2, 68, 67
4, 924352, Note_off_c, 2, 70, 67
4, 924416, Note_off_c, 2, 68, 67
4, 924416, Note_off_c, 2, 70, 67
4, 924416, Note_on_c, 2, 68, 67
4, 924416, Note_on_c, 2, 70, 67
4, 924480, Note_off_c, 2, 68, 67
4, 924480, Note_off_c, 2, 70, 67
4, 924544, Note_off_c, 2, 68, 67
4, 924544, Note_off_c, 2, 70, 67
4, 924544, Note_on_c, 2, 74, 67
4, 924608, Note_off_c, 2, 74, 67
4, 924608, Note_on_c, 2, 75, 67
4, 924672, Note_off_c, 2, 75, 67
4, 924672, Note_on_c, 2, 77, 67
4, 924736, Note_off_c, 2, 77, 67
4, 924800, Note_off_c, 2, 77, 67
4, 924800, Note_on_c, 2, 74, 67
4, 924800, Note_on_c, 2, 77, 67
4, 924864, Note_off_c, 2, 74, 67
4, 924864, Note_off_c, 2, 77, 67
4, 924928, Note_off_c, 2, 74, 67
4, 924928, Note_off_c, 2, 77, 67
4, 924928, Note_on_c, 2, 74, 67
4, 924928, Note_on_c, 2, 77, 67
4, 924992, Note_off_c, 2, 74, 67
4, 924992, Note_off_c, 2, 77, 67
4, 925056, Note_off_c, 2, 74, 67
4, 925056, Note_off_c, 2, 77, 67
4, 925056, Note_on_c, 2, 74, 67
4, 925120, Note_off_c, 2, 74, 67
4, 925120, Note_on_c, 2, 75, 67
4, 925184, Note_off_c, 2, 75, 67
4, 925184, Note_on_c, 2, 77, 67
4, 925248, Note_off_c, 2, 77, 67
4, 925312, Note_off_c, 2, 77, 67
4, 925312, Note_on_c, 2, 74, 67
4, 925312, Note_on_c, 2, 77, 67
4, 925376, Note_off_c, 2, 74, 67
4, 925376, Note_off_c, 2, 77, 67
4, 925440, Note_off_c, 2, 74, 67
4, 925440, Note_off_c, 2, 77, 67
4, 925440, Note_on_c, 2, 74, 67
4, 925440, Note_on_c, 2, 77, 67
4, 925504, Note_off_c, 2, 74, 67
4, 925504, Note_off_c, 2, 77, 67
4, 925568, Note_off_c, 2, 74, 67
4, 925568, Note_off_c, 2, 77, 67
4, 925568, Note_on_c, 2, 74, 67
4, 925632, Note_off_c, 2, 74, 67
4, 925632, Note_on_c, 2, 75, 67
4, 925696, Note_off_c, 2, 75, 67
4, 925696, Note_on_c, 2, 70, 67
4, 925696, Note_on_c, 2, 77, 67
4, 925760, Note_off_c, 2, 70, 67
4, 925760, Note_off_c, 2, 77, 67
4, 925824, Note_off_c, 2, 70, 67
4, 925824, Note_off_c, 2, 77, 67
4, 925824, Note_on_c, 2, 74, 67
4, 925824, Note_on_c, 2, 77, 67
4, 925888, Note_off_c, 2, 74, 67
4, 925888, Note_off_c, 2, 77, 67
4, 925952, Note_off_c, 2, 74, 67
4, 925952, Note_off_c, 2, 77, 67
4, 925952, Note_on_c, 2, 74, 67
4, 925952, Note_on_c, 2, 79, 67
4, 925984, Note_off_c, 2, 74, 67
4, 925984, Note_off_c, 2, 79, 67
4, 926016, Note_off_c, 2, 74, 67
4, 926016, Note_off_c, 2, 79, 67
4, 926016, Note_on_c, 2, 72, 67
4, 926016, Note_on_c, 2, 77, 67
4, 926048, Note_off_c, 2, 72, 67
4, 926048, Note_off_c, 2, 77, 67
4, 926080, Note_off_c, 2, 72, 67
4, 926080, Note_off_c, 2, 77, 67
4, 926080, Note_on_c, 2, 70, 67
4, 926080, Note_on_c, 2, 77, 67
4, 926112, Note_off_c, 2, 70, 67
4, 926112, Note_off_c, 2, 77, 67
4, 926144, Note_off_c, 2, 70, 67
4, 926144, Note_off_c, 2, 77, 67
4, 926144, Note_on_c, 2, 68, 67
4, 926144, Note_on_c, 2, 79, 67
4, 926176, Note_off_c, 2, 68, 67
4, 926176, Note_off_c, 2, 79, 67
4, 926208, Note_off_c, 2, 68, 67
4, 926208, Note_off_c, 2, 79, 67
4, 926208, Note_on_c, 2, 67, 67
4, 926208, Note_on_c, 2, 75, 67
4, 926272, Note_off_c, 2, 67, 67
4, 926272, Note_off_c, 2, 75, 67
4, 926336, Note_off_c, 2, 67, 67
4, 926336, Note_off_c, 2, 75, 67
4, 926336, Note_on_c, 2, 70, 67
4, 926400, Note_off_c, 2, 70, 67
4, 926464, Note_off_c, 2, 70, 67
4, 926464, Note_on_c, 2, 70, 67
4, 926464, Note_on_c, 2, 79, 67
4, 926528, Note_off_c, 2, 70, 67
4, 926528, Note_off_c, 2, 79, 67
4, 926592, Note_off_c, 2, 70, 67
4, 926592, Note_off_c, 2, 79, 67
4, 926592, Note_on_c, 2, 75, 67
4, 926656, Note_off_c, 2, 75, 67
4, 926656, Note_on_c, 2, 77, 67
4, 926720, Note_off_c, 2, 77, 67
4, 926720, Note_on_c, 2, 79, 67
4, 926784, Note_off_c, 2, 79, 67
4, 926848, Note_off_c, 2, 79, 67
4, 926848, Note_on_c, 2, 75, 67
4, 926848, Note_on_c, 2, 79, 67
4, 926912, Note_off_c, 2, 75, 67
4, 926912, Note_off_c, 2, 79, 67
4, 926976, Note_off_c, 2, 75, 67
4, 926976, Note_off_c, 2, 79, 67
4, 926976, Note_on_c, 2, 75, 67
4, 926976, Note_on_c, 2, 79, 67
4, 927040, Note_off_c, 2, 75, 67
4, 927040, Note_off_c, 2, 79, 67
4, 927104, Note_off_c, 2, 75, 67
4, 927104, Note_off_c, 2, 79, 67
4, 927104, Note_on_c, 2, 75, 67
4, 927168, Note_off_c, 2, 75, 67
4, 927168, Note_on_c, 2, 77, 67
4, 927232, Note_off_c, 2, 77, 67
4, 927232, Note_on_c, 2, 79, 67
4, 927296, Note_off_c, 2, 79, 67
4, 927360, Note_off_c, 2, 79, 67
4, 927360, Note_on_c, 2, 75, 67
4, 927360, Note_on_c, 2, 79, 67
4, 927424, Note_off_c, 2, 75, 67
4, 927424, Note_off_c, 2, 79, 67
4, 927488, Note_off_c, 2, 75, 67
4, 927488, Note_off_c, 2, 79, 67
4, 927488, Note_on_c, 2, 75, 67
4, 927488, Note_on_c, 2, 79, 67
4, 927552, Note_off_c, 2, 75, 67
4, 927552, Note_off_c, 2, 79, 67
4, 927616, Note_off_c, 2, 75, 67
4, 927616, Note_off_c, 2, 79, 67
4, 927616, Note_on_c, 2, 75, 67
4, 927680, Note_off_c, 2, 75, 67
4, 927680, Note_on_c, 2, 77, 67
4, 927744, Note_off_c, 2, 77, 67
4, 927744, Note_on_c, 2, 79, 67
4, 927808, Note_off_c, 2, 79, 67
4, 927872, Note_off_c, 2, 79, 67
4, 927872, Note_on_c, 2, 75, 67
4, 927872, Note_on_c, 2, 79, 67
4, 927936, Note_off_c, 2, 75, 67
4, 927936, Note_off_c, 2, 79, 67
4, 928000, Note_off_c, 2, 75, 67
4, 928000, Note_off_c, 2, 79, 67
4, 928000, Note_on_c, 2, 75, 67
4, 928000, Note_on_c, 2, 80, 67
4, 928032, Note_off_c, 2, 75, 67
4, 928032, Note_off_c, 2, 80, 67
4, 928064, Note_off_c, 2, 75, 67
4, 928064, Note_off_c, 2, 80, 67
4, 928064, Note_on_c, 2, 74, 67
4, 928128, Note_off_c, 2, 74, 67
4, 928128, Note_on_c, 2, 72, 67
4, 928192, Note_off_c, 2, 72, 67
4, 928192, Note_on_c, 2, 74, 67
4, 928192, Note_on_c, 2, 79, 67
4, 928224, Note_off_c, 2, 74, 67
4, 928224, Note_off_c, 2, 79, 67
4, 928256, Note_off_c, 2, 74, 67
4, 928256, Note_off_c, 2, 79, 67
4, 928256, Note_on_c, 2, 70, 67
4, 928256, Note_on_c, 2, 77, 67
4, 928320, Note_off_c, 2, 70, 67
4, 928320, Note_off_c, 2, 77, 67
4, 928384, Note_off_c, 2, 70, 67
4, 928384, Note_off_c, 2, 77, 67
4, 928384, Note_on_c, 2, 68, 67
4, 928384, Note_on_c, 2, 70, 67
4, 928448, Note_off_c, 2, 68, 67
4, 928448, Note_off_c, 2, 70, 67
4, 928512, Note_off_c, 2, 68, 67
4, 928512, Note_off_c, 2, 70, 67
4, 928512, Note_on_c, 2, 68, 67
4, 928512, Note_on_c, 2, 70, 67
4, 928576, Note_off_c, 2, 68, 67
4, 928576, Note_off_c, 2, 70, 67
4, 928640, Note_off_c, 2, 68, 67
4, 928640, Note_off_c, 2, 70, 67
4, 928640, Note_on_c, 2, 74, 67
4, 928704, Note_off_c, 2, 74, 67
4, 928704, Note_on_c, 2, 75, 67
4, 928768, Note_off_c, 2, 75, 67
4, 928768, Note_on_c, 2, 77, 67
4, 928896, Note_off_c, 2, 77, 67
4, 928896, Note_on_c, 2, 74, 67
4, 928896, Note_on_c, 2, 80, 67
4, 928960, Note_off_c, 2, 74, 67
4, 928960, Note_off_c, 2, 80, 67
4, 929024, Note_off_c, 2, 74, 67
4, 929024, Note_off_c, 2, 80, 67
4, 929024, Note_on_c, 2, 74, 67
4, 929024, Note_on_c, 2, 79, 67
4, 929088, Note_off_c, 2, 74, 67
4, 929088, Note_off_c, 2, 79, 67
4, 929152, Note_off_c, 2, 74, 67
4, 929152, Note_off_c, 2, 79, 67
4, 929152, Note_on_c, 2, 77, 67
4, 929216, Note_off_c, 2, 77, 67
4, 929280, Note_off_c, 2, 77, 67
4, 929280, Note_on_c, 2, 75, 67
4, 929344, Note_off_c, 2, 75, 67
4, 929408, Note_off_c, 2, 75, 67
4, 929408, Note_on_c, 2, 70, 67
4, 929408, Note_on_c, 2, 74, 67
4, 929472, Note_off_c, 2, 70, 67
4, 929472, Note_off_c, 2, 74, 67
4, 929536, Note_off_c, 2, 70, 67
4, 929536, Note_off_c, 2, 74, 67
4, 929536, Note_on_c, 2, 72, 67
4, 929536, Note_on_c, 2, 74, 67
4, 929600, Note_off_c, 2, 72, 67
4, 929600, Note_off_c, 2, 74, 67
4, 929664, Note_off_c, 2, 72, 67
4, 929664, Note_off_c, 2, 74, 67
4, 929664, Note_on_c, 2, 70, 67
4, 929664, Note_on_c, 2, 74, 67
4, 929728, Note_off_c, 2, 70, 67
4, 929728, Note_off_c, 2, 74, 67
4, 929792, Note_off_c, 2, 70, 67
4, 929792, Note_off_c, 2, 74, 67
4, 929792, Note_on_c, 2, 80, 67
4, 929792, Note_on_c, 2, 84, 67
4, 930048, Note_off_c, 2, 80, 67
4, 930048, Note_off_c, 2, 84, 67
4, 930048, Note_on_c, 2, 70, 67
4, 930048, Note_on_c, 2, 74, 67
4, 930064, Note_off_c, 2, 70, 67
4, 930064, Note_off_c, 2, 74, 67
4, 930080, Note_off_c, 2, 70, 67
4, 930080, Note_off_c, 2, 74, 67
4, 930080, Note_on_c, 2, 72, 67
4, 930080, Note_on_c, 2, 75, 67
4, 930096, Note_off_c, 2, 72, 67
4, 930096, Note_off_c, 2, 75, 67
4, 930112, Note_off_c, 2, 72, 67
4, 930112, Note_off_c, 2, 75, 67
4, 930112, Note_on_c, 2, 70, 67
4, 930112, Note_on_c, 2, 74, 67
4, 930144, Note_off_c, 2, 70, 67
4, 930144, Note_off_c, 2, 74, 67
4, 930176, Note_off_c, 2, 70, 67
4, 930176, Note_off_c, 2, 74, 67
4, 930176, Note_on_c, 2, 68, 67
4, 930176, Note_on_c, 2, 72, 67
4, 930208, Note_off_c, 2, 68, 67
4, 930208, Note_off_c, 2, 72, 67
4, 930240, Note_off_c, 2, 68, 67
4, 930240, Note_off_c, 2, 72, 67
4, 930240, Note_on_c, 2, 74, 67
4, 930240, Note_on_c, 2, 77, 67
4, 930272, Note_off_c, 2, 74, 67
4, 930272, Note_off_c, 2, 77, 67
4, 930304, Note_off_c, 2, 74, 67
4, 930304, Note_off_c, 2, 77, 67
4, 930304, Note_on_c, 2, 75, 67
4, 930304, Note_on_c, 2, 79, 67
4, 930432, Note_off_c, 2, 75, 67
4, 930432, Note_off_c, 2, 79, 67
4, 930432, Note_on_c, 2, 70, 67
4, 930496, Note_off_c, 2, 70, 67
4, 930560, Note_off_c, 2, 70, 67
4, 930560, Note_on_c, 2, 70, 67
4, 930624, Note_off_c, 2, 70, 67
4, 930688, Note_off_c, 2, 70, 67
4, 930688, Note_on_c, 2, 75, 67
4, 930688, Note_on_c, 2, 79, 67
4, 930752, Note_off_c, 2, 75, 67
4, 930752, Note_off_c, 2, 79, 67
4, 930752, Note_on_c, 2, 77, 67
4, 930752, Note_on_c, 2, 80, 67
4, 930816, Note_off_c, 2, 77, 67
4, 930816, Note_off_c, 2, 80, 67
4, 930816, Note_on_c, 2, 79, 67
4, 930816, Note_on_c, 2, 82, 67
4, 930880, Note_off_c, 2, 79, 67
4, 930880, Note_off_c, 2, 82, 67
4, 930944, Note_off_c, 2, 79, 67
4, 930944, Note_off_c, 2, 82, 67
4, 930944, Note_on_c, 2, 79, 67
4, 930944, Note_on_c, 2, 82, 67
4, 931008, Note_off_c, 2, 79, 67
4, 931008, Note_off_c, 2, 82, 67
4, 931072, Note_off_c, 2, 79, 67
4, 931072, Note_off_c, 2, 82, 67
4, 931072, Note_on_c, 2, 70, 67
4, 931072, Note_on_c, 2, 79, 67
4, 931136, Note_off_c, 2, 70, 67
4, 931136, Note_off_c, 2, 79, 67
4, 931200, Note_off_c, 2, 70, 67
4, 931200, Note_off_c, 2, 79, 67
4, 931200, Note_on_c, 2, 70, 67
4, 931200, Note_on_c, 2, 75, 67
4, 931264, Note_off_c, 2, 70, 67
4, 931264, Note_off_c, 2, 75, 67
4, 931328, Note_off_c, 2, 70, 67
4, 931328, Note_off_c, 2, 75, 67
4, 931328, Note_on_c, 2, 84, 67
4, 931328, Note_on_c, 2, 87, 67
4, 931392, Note_off_c, 2, 84, 67
4, 931392, Note_off_c, 2, 87, 67
4, 931456, Note_off_c, 2, 84, 67
4, 931456, Note_off_c, 2, 87, 67
4, 931456, Note_on_c, 2, 82, 67
4, 931456, Note_on_c, 2, 86, 67
4, 931520, Note_off_c, 2, 82, 67
4, 931520, Note_off_c, 2, 86, 67
4, 931584, Note_off_c, 2, 82, 67
4, 931584, Note_off_c, 2, 86, 67
4, 931584, Note_on_c, 2, 80, 67
4, 931584, Note_on_c, 2, 84, 67
4, 931648, Note_off_c, 2, 80, 67
4, 931648, Note_off_c, 2, 84, 67
4, 931712, Note_off_c, 2, 80, 67
4, 931712, Note_off_c, 2, 84, 67
4, 931712, Note_on_c, 2, 79, 67
4, 931712, Note_on_c, 2, 87, 67
4, 931776, Note_off_c, 2, 79, 67
4, 931776, Note_off_c, 2, 87, 67
4, 931840, Note_off_c, 2, 79, 67
4, 931840, Note_off_c, 2, 87, 67
4, 931840, Note_on_c, 2, 75, 67
4, 931840, Note_on_c, 2, 82, 67
4, 931904, Note_off_c, 2, 75, 67
4, 931904, Note_off_c, 2, 82, 67
4, 931968, Note_off_c, 2, 75, 67
4, 931968, Note_off_c, 2, 82, 67
4, 931968, Note_on_c, 2, 79, 67
4, 932032, Note_off_c, 2, 79, 67
4, 932096, Note_off_c, 2, 79, 67
4, 932096, Note_on_c, 2, 67, 67
4, 932096, Note_on_c, 2, 75, 67
4, 932160, Note_off_c, 2, 67, 67
4, 932160, Note_off_c, 2, 75, 67
4, 932224, Note_off_c, 2, 67, 67
4, 932224, Note_off_c, 2, 75, 67
4, 932224, Note_on_c, 2, 68, 67
4, 932224, Note_on_c, 2, 74, 67
4, 932256, Note_off_c, 2, 68, 67
4, 932256, Note_off_c, 2, 74, 67
4, 932288, Note_off_c, 2, 68, 67
4, 932288, Note_off_c, 2, 74, 67
4, 932288, Note_on_c, 2, 74, 67
4, 932288, Note_on_c, 2, 79, 67
4, 932320, Note_off_c, 2, 74, 67
4, 932320, Note_off_c, 2, 79, 67
4, 932352, Note_off_c, 2, 74, 67
4, 932352, Note_off_c, 2, 79, 67
4, 932352, Note_on_c, 2, 70, 67
4, 932352, Note_on_c, 2, 77, 67
4, 932416, Note_off_c, 2, 70, 67
4, 932416, Note_off_c, 2, 77, 67
4, 932480, Note_off_c, 2, 70, 67
4, 932480, Note_off_c, 2, 77, 67
4, 932480, Note_on_c, 2, 65, 67
4, 932480, Note_on_c, 2, 70, 67
4, 932544, Note_off_c, 2, 65, 67
4, 932544, Note_off_c, 2, 70, 67
4, 932608, Note_off_c, 2, 65, 67
4, 932608, Note_off_c, 2, 70, 67
4, 932608, Note_on_c, 2, 68, 67
4, 932608, Note_on_c, 2, 70, 67
4, 932672, Note_off_c, 2, 68, 67
4, 932672, Note_off_c, 2, 70, 67
4, 932736, Note_off_c, 2, 68, 67
4, 932736, Note_off_c, 2, 70, 67
4, 932736, Note_on_c, 2, 70, 67
4, 932736, Note_on_c, 2, 79, 67
4, 932800, Note_off_c, 2, 70, 67
4, 932800, Note_off_c, 2, 79, 67
4, 932800, Note_on_c, 2, 77, 67
4, 932800, Note_on_c, 2, 80, 67
4, 932864, Note_off_c, 2, 77, 67
4, 932864, Note_off_c, 2, 80, 67
4, 932864, Note_on_c, 2, 79, 67
4, 932864, Note_on_c, 2, 82, 67
4, 932928, Note_off_c, 2, 79, 67
4, 932928, Note_off_c, 2, 82, 67
4, 932992, Note_off_c, 2, 79, 67
4, 932992, Note_off_c, 2, 82, 67
4, 932992, Note_on_c, 2, 79, 67
4, 932992, Note_on_c, 2, 82, 67
4, 933056, Note_off_c, 2, 79, 67
4, 933056, Note_off_c, 2, 82, 67
4, 933120, Note_off_c, 2, 79, 67
4, 933120, Note_off_c, 2, 82, 67
4, 933120, Note_on_c, 2, 70, 67
4, 933120, Note_on_c, 2, 79, 67
4, 933184, Note_off_c, 2, 70, 67
4, 933184, Note_off_c, 2, 79, 67
4, 933248, Note_off_c, 2, 70, 67
4, 933248, Note_off_c, 2, 79, 67
4, 933248, Note_on_c, 2, 75, 67
4, 933248, Note_on_c, 2, 82, 67
4, 933312, Note_off_c, 2, 75, 67
4, 933312, Note_off_c, 2, 82, 67
4, 933376, Note_off_c, 2, 75, 67
4, 933376, Note_off_c, 2, 82, 67
4, 933376, Note_on_c, 2, 84, 67
4, 933376, Note_on_c, 2, 87, 67
4, 933440, Note_off_c, 2, 84, 67
4, 933440, Note_off_c, 2, 87, 67
4, 933504, Note_off_c, 2, 84, 67
4, 933504, Note_off_c, 2, 87, 67
4, 933504, Note_on_c, 2, 82, 67
4, 933504, Note_on_c, 2, 86, 67
4, 933568, Note_off_c, 2, 82, 67
4, 933568, Note_off_c, 2, 86, 67
4, 933632, Note_off_c, 2, 82, 67
4, 933632, Note_off_c, 2, 86, 67
4, 933632, Note_on_c, 2, 80, 67
4, 933632, Note_on_c, 2, 84, 67
4, 933696, Note_off_c, 2, 80, 67
4, 933696, Note_off_c, 2, 84, 67
4, 933760, Note_off_c, 2, 80, 67
4, 933760, Note_off_c, 2, 84, 67
4, 933760, Note_on_c, 2, 70, 67
4, 933760, Note_on_c, 2, 74, 67
4, 933792, Note_off_c, 2, 70, 67
4, 933792, Note_off_c, 2, 74, 67
4, 933824, Note_off_c, 2, 70, 67
4, 933824, Note_off_c, 2, 74, 67
4, 933824, Note_on_c, 2, 77, 67
4, 933824, Note_on_c, 2, 80, 67
4, 933856, Note_off_c, 2, 77, 67
4, 933856, Note_off_c, 2, 80, 67
4, 933888, Note_off_c, 2, 77, 67
4, 933888, Note_off_c, 2, 80, 67
4, 933888, Note_on_c, 2, 77, 67
4, 933888, Note_on_c, 2, 82, 67
4, 933952, Note_off_c, 2, 77, 67
4, 933952, Note_off_c, 2, 82, 67
4, 934016, Note_off_c, 2, 77, 67
4, 934016, Note_off_c, 2, 82, 67
4, 934016, Note_on_c, 2, 80, 67
4, 934016, Note_on_c, 2, 87, 67
4, 934080, Note_off_c, 2, 80, 67
4, 934080, Note_off_c, 2, 87, 67
4, 934144, Note_off_c, 2, 80, 67
4, 934144, Note_off_c, 2, 87, 67
4, 934144, Note_on_c, 2, 82, 67
4, 934144, Note_on_c, 2, 86, 67
4, 934208, Note_off_c, 2, 82, 67
4, 934208, Note_off_c, 2, 86, 67
4, 934272, Note_off_c, 2, 82, 67
4, 934272, Note_off_c, 2, 86, 67
4, 934272, Note_on_c, 2, 80, 67
4, 934272, Note_on_c, 2, 89, 67
4, 934336, Note_off_c, 2, 80, 67
4, 934336, Note_off_c, 2, 89, 67
4, 934400, Note_off_c, 2, 80, 67
4, 934400, Note_off_c, 2, 89, 67
4, 934400, Note_on_c, 2, 79, 67
4, 934400, Note_on_c, 2, 87, 67
4, 934464, Note_off_c, 2, 79, 67
4, 934464, Note_off_c, 2, 87, 67
4, 934528, Note_off_c, 2, 79, 67
4, 934528, Note_off_c, 2, 87, 67
4, 934528, Note_on_c, 2, 70, 67
4, 934528, Note_on_c, 2, 82, 67
4, 934592, Note_off_c, 2, 70, 67
4, 934592, Note_off_c, 2, 82, 67
4, 934656, Note_off_c, 2, 70, 67
4, 934656, Note_off_c, 2, 82, 67
4, 934656, Note_on_c, 2, 70, 67
4, 934656, Note_on_c, 2, 82, 67
4, 934720, Note_off_c, 2, 70, 67
4, 934720, Note_off_c, 2, 82, 67
4, 934784, Note_off_c, 2, 70, 67
4, 934784, Note_off_c, 2, 82, 67
4, 934784, Note_on_c, 2, 75, 67
4, 934848, Note_off_c, 2, 75, 67
4, 934848, Note_on_c, 2, 77, 67
4, 934912, Note_off_c, 2, 77, 67
4, 934912, Note_on_c, 2, 79, 67
4, 934976, Note_off_c, 2, 79, 67
4, 935040, Note_off_c, 2, 79, 67
4, 935040, Note_on_c, 2, 75, 67
4, 935040, Note_on_c, 2, 79, 67
4, 935104, Note_off_c, 2, 75, 67
4, 935104, Note_off_c, 2, 79, 67
4, 935168, Note_off_c, 2, 75, 67
4, 935168, Note_off_c, 2, 79, 67
4, 935168, Note_on_c, 2, 75, 67
4, 935168, Note_on_c, 2, 79, 67
4, 935232, Note_off_c, 2, 75, 67
4, 935232, Note_off_c, 2, 79, 67
4, 935296, Note_off_c, 2, 75, 67
4, 935296, Note_off_c, 2, 79, 67
4, 935296, Note_on_c, 2, 75, 67
4, 935360, Note_off_c, 2, 75, 67
4, 935360, Note_on_c, 2, 77, 67
4, 935424, Note_off_c, 2, 77, 67
4, 935424, Note_on_c, 2, 79, 67
4, 935488, Note_off_c, 2, 79, 67
4, 935552, Note_off_c, 2, 79, 67
4, 935552, Note_on_c, 2, 75, 67
4, 935552, Note_on_c, 2, 79, 67
4, 935616, Note_off_c, 2, 75, 67
4, 935616, Note_off_c, 2, 79, 67
4, 935680, Note_off_c, 2, 75, 67
4, 935680, Note_off_c, 2, 79, 67
4, 935680, Note_on_c, 2, 75, 67
4, 935680, Note_on_c, 2, 79, 67
4, 935744, Note_off_c, 2, 75, 67
4, 935744, Note_off_c, 2, 79, 67
4, 935808, Note_off_c, 2, 75, 67
4, 935808, Note_off_c, 2, 79, 67
4, 935808, Note_on_c, 2, 75, 67
4, 935872, Note_off_c, 2, 75, 67
4, 935872, Note_on_c, 2, 77, 67
4, 935936, Note_off_c, 2, 77, 67
4, 935936, Note_on_c, 2, 79, 67
4, 936000, Note_off_c, 2, 79, 67
4, 936064, Note_off_c, 2, 79, 67
4, 936064, Note_on_c, 2, 75, 67
4, 936064, Note_on_c, 2, 79, 67
4, 936128, Note_off_c, 2, 75, 67
4, 936128, Note_off_c, 2, 79, 67
4, 936192, Note_off_c, 2, 75, 67
4, 936192, Note_off_c, 2, 79, 67
4, 936192, Note_on_c, 2, 75, 67
4, 936192, Note_on_c, 2, 80, 67
4, 936224, Note_off_c, 2, 75, 67
4, 936224, Note_off_c, 2, 80, 67
4, 936256, Note_off_c, 2, 75, 67
4, 936256, Note_off_c, 2, 80, 67
4, 936256, Note_on_c, 2, 74, 67
4, 936288, Note_off_c, 2, 74, 67
4, 936320, Note_off_c, 2, 74, 67
4, 936320, Note_on_c, 2, 72, 67
4, 936352, Note_off_c, 2, 72, 67
4, 936384, Note_off_c, 2, 72, 67
4, 936384, Note_on_c, 2, 74, 67
4, 936384, Note_on_c, 2, 79, 67
4, 936416, Note_off_c, 2, 74, 67
4, 936416, Note_off_c, 2, 79, 67
4, 936448, Note_off_c, 2, 74, 67
4, 936448, Note_off_c, 2, 79, 67
4, 936448, Note_on_c, 2, 70, 67
4, 936448, Note_on_c, 2, 77, 67
4, 936512, Note_off_c, 2, 70, 67
4, 936512, Note_off_c, 2, 77, 67
4, 936576, Note_off_c, 2, 70, 67
4, 936576, Note_off_c, 2, 77, 67
4, 936576, Note_on_c, 2, 68, 67
4, 936576, Note_on_c, 2, 70, 67
4, 936640, Note_off_c, 2, 68, 67
4, 936640, Note_off_c, 2, 70, 67
4, 936704, Note_off_c, 2, 68, 67
4, 936704, Note_off_c, 2, 70, 67
4, 936704, Note_on_c, 2, 68, 67
4, 936704, Note_on_c, 2, 70, 67
4, 936768, Note_off_c, 2, 68, 67
4, 936768, Note_off_c, 2, 70, 67
4, 936832, Note_off_c, 2, 68, 67
4, 936832, Note_off_c, 2, 70, 67
4, 936832, Note_on_c, 2, 74, 67
4, 936896, Note_off_c, 2, 74, 67
4, 936896, Note_on_c, 2, 75, 67
4, 936960, Note_off_c, 2, 75, 67
4, 936960, Note_on_c, 2, 77, 67
4, 937024, Note_off_c, 2, 77, 67
4, 937088, Note_off_c, 2, 77, 67
4, 937088, Note_on_c, 2, 74, 67
4, 937088, Note_on_c, 2, 77, 67
4, 937152, Note_off_c, 2, 74, 67
4, 937152, Note_off_c, 2, 77, 67
4, 937216, Note_off_c, 2, 74, 67
4, 937216, Note_off_c, 2, 77, 67
4, 937216, Note_on_c, 2, 74, 67
4, 937216, Note_on_c, 2, 77, 67
4, 937280, Note_off_c, 2, 74, 67
4, 937280, Note_off_c, 2, 77, 67
4, 937344, Note_off_c, 2, 74, 67
4, 937344, Note_off_c, 2, 77, 67
4, 937344, Note_on_c, 2, 74, 67
4, 937408, Note_off_c, 2, 74, 67
4, 937408, Note_on_c, 2, 75, 67
4, 937472, Note_off_c, 2, 75, 67
4, 937472, Note_on_c, 2, 77, 67
4, 937536, Note_off_c, 2, 77, 67
4, 937600, Note_off_c, 2, 77, 67
4, 937600, Note_on_c, 2, 74, 67
4, 937600, Note_on_c, 2, 77, 67
4, 937664, Note_off_c, 2, 74, 67
4, 937664, Note_off_c, 2, 77, 67
4, 937728, Note_off_c, 2, 74, 67
4, 937728, Note_off_c, 2, 77, 67
4, 937728, Note_on_c, 2, 74, 67
4, 937728, Note_on_c, 2, 77, 67
4, 937792, Note_off_c, 2, 74, 67
4, 937792, Note_off_c, 2, 77, 67
4, 937856, Note_off_c, 2, 74, 67
4, 937856, Note_off_c, 2, 77, 67
4, 937856, Note_on_c, 2, 74, 67
4, 937920, Note_off_c, 2, 74, 67
4, 937920, Note_on_c, 2, 75, 67
4, 937984, Note_off_c, 2, 75, 67
4, 937984, Note_on_c, 2, 70, 67
4, 937984, Note_on_c, 2, 77, 67
4, 938048, Note_off_c, 2, 70, 67
4, 938048, Note_off_c, 2, 77, 67
4, 938112, Note_off_c, 2, 70, 67
4, 938112, Note_off_c, 2, 77, 67
4, 938112, Note_on_c, 2, 74, 67
4, 938112, Note_on_c, 2, 77, 67
4, 938176, Note_off_c, 2, 74, 67
4, 938176, Note_off_c, 2, 77, 67
4, 938240, Note_off_c, 2, 74, 67
4, 938240, Note_off_c, 2, 77, 67
4, 938240, Note_on_c, 2, 74, 67
4, 938240, Note_on_c, 2, 79, 67
4, 938272, Note_off_c, 2, 74, 67
4, 938272, Note_off_c, 2, 79, 67
4, 938304, Note_off_c, 2, 74, 67
4, 938304, Note_off_c, 2, 79, 67
4, 938304, Note_on_c, 2, 72, 67
4, 938304, Note_on_c, 2, 77, 67
4, 938336, Note_off_c, 2, 72, 67
4, 938336, Note_off_c, 2, 77, 67
4, 938368, Note_off_c, 2, 72, 67
4, 938368, Note_off_c, 2, 77, 67
4, 938368, Note_on_c, 2, 70, 67
4, 938368, Note_on_c, 2, 77, 67
4, 938400, Note_off_c, 2, 70, 67
4, 938400, Note_off_c, 2, 77, 67
4, 938432, Note_off_c, 2, 70, 67
4, 938432, Note_off_c, 2, 77, 67
4, 938432, Note_on_c, 2, 68, 67
4, 938432, Note_on_c, 2, 79, 67
4, 938464, Note_off_c, 2, 68, 67
4, 938464, Note_off_c, 2, 79, 67
4, 938496, Note_off_c, 2, 68, 67
4, 938496, Note_off_c, 2, 79, 67
4, 938496, Note_on_c, 2, 67, 67
4, 938496, Note_on_c, 2, 75, 67
4, 938560, Note_off_c, 2, 67, 67
4, 938560, Note_off_c, 2, 75, 67
4, 938624, Note_off_c, 2, 67, 67
4, 938624, Note_off_c, 2, 75, 67
4, 938624, Note_on_c, 2, 70, 67
4, 938688, Note_off_c, 2, 70, 67
4, 938752, Note_off_c, 2, 70, 67
4, 938752, Note_on_c, 2, 70, 67
4, 938752, Note_on_c, 2, 79, 67
4, 938816, Note_off_c, 2, 70, 67
4, 938816, Note_off_c, 2, 79, 67
4, 938880, Note_off_c, 2, 70, 67
4, 938880, Note_off_c, 2, 79, 67
4, 938880, Note_on_c, 2, 75, 67
4, 938944, Note_off_c, 2, 75, 67
4, 938944, Note_on_c, 2, 77, 67
4, 939008, Note_off_c, 2, 77, 67
4, 939008, Note_on_c, 2, 79, 67
4, 939072, Note_off_c, 2, 79, 67
4, 939136, Note_off_c, 2, 79, 67
4, 939136, Note_on_c, 2, 75, 67
4, 939136, Note_on_c, 2, 79, 67
4, 939200, Note_off_c, 2, 75, 67
4, 939200, Note_off_c, 2, 79, 67
4, 939264, Note_off_c, 2, 75, 67
4, 939264, Note_off_c, 2, 79, 67
4, 939264, Note_on_c, 2, 75, 67
4, 939264, Note_on_c, 2, 79, 67
4, 939328, Note_off_c, 2, 75, 67
4, 939328, Note_off_c, 2, 79, 67
4, 939392, Note_off_c, 2, 75, 67
4, 939392, Note_off_c, 2, 79, 67
4, 939392, Note_on_c, 2, 75, 67
4, 939456, Note_off_c, 2, 75, 67
4, 939456, Note_on_c, 2, 77, 67
4, 939520, Note_off_c, 2, 77, 67
4, 939520, Note_on_c, 2, 79, 67
4, 939584, Note_off_c, 2, 79, 67
4, 939648, Note_off_c, 2, 79, 67
4, 939648, Note_on_c, 2, 75, 67
4, 939648, Note_on_c, 2, 79, 67
4, 939712, Note_off_c, 2, 75, 67
4, 939712, Note_off_c, 2, 79, 67
4, 939776, Note_off_c, 2, 75, 67
4, 939776, Note_off_c, 2, 79, 67
4, 939776, Note_on_c, 2, 75, 67
4, 939776, Note_on_c, 2, 79, 67
4, 939840, Note_off_c, 2, 75, 67
4, 939840, Note_off_c, 2, 79, 67
4, 939904, Note_off_c, 2, 75, 67
4, 939904, Note_off_c, 2, 79, 67
4, 939904, Note_on_c, 2, 75, 67
4, 939968, Note_off_c, 2, 75, 67
4, 939968, Note_on_c, 2, 77, 67
4, 940032, Note_off_c, 2, 77, 67
4, 940032, Note_on_c, 2, 79, 67
4, 940096, Note_off_c, 2, 79, 67
4, 940160, Note_off_c, 2, 79, 67
4, 940160, Note_on_c, 2, 75, 67
4, 940160, Note_on_c, 2, 79, 67
4, 940224, Note_off_c, 2, 75, 67
4, 940224, Note_off_c, 2, 79, 67
4, 940288, Note_off_c, 2, 75, 67
4, 940288, Note_off_c, 2, 79, 67
4, 940288, Note_on_c, 2, 75, 67
4, 940288, Note_on_c, 2, 80, 67
4, 940320, Note_off_c, 2, 75, 67
4, 940320, Note_off_c, 2, 80, 67
4, 940352, Note_off_c, 2, 75, 67
4, 940352, Note_off_c, 2, 80, 67
4, 940352, Note_on_c, 2, 74, 67
4, 940416, Note_off_c, 2, 74, 67
4, 940416, Note_on_c, 2, 72, 67
4, 940480, Note_off_c, 2, 72, 67
4, 940480, Note_on_c, 2, 74, 67
4, 940480, Note_on_c, 2, 79, 67
4, 940512, Note_off_c, 2, 74, 67
4, 940512, Note_off_c, 2, 79, 67
4, 940544, Note_off_c, 2, 74, 67
4, 940544, Note_off_c, 2, 79, 67
4, 940544, Note_on_c, 2, 70, 67
4, 940544, Note_on_c, 2, 77, 67
4, 940608, Note_off_c, 2, 70, 67
4, 940608, Note_off_c, 2, 77, 67
4, 940672, Note_off_c, 2, 70, 67
4, 940672, Note_off_c, 2, 77, 67
4, 940672, Note_on_c, 2, 68, 67
4, 940672, Note_on_c, 2, 70, 67
4, 940736, Note_off_c, 2, 68, 67
4, 940736, Note_off_c, 2, 70, 67
4, 940800, Note_off_c, 2, 68, 67
4, 940800, Note_off_c, 2, 70, 67
4, 940800, Note_on_c, 2, 68, 67
4, 940800, Note_on_c, 2, 70, 67
4, 940864, Note_off_c, 2, 68, 67
4, 940864, Note_off_c, 2, 70, 67
4, 940928, Note_off_c, 2, 68, 67
4, 940928, Note_off_c, 2, 70, 67
4, 940928, Note_on_c, 2, 74, 67
4, 940992, Note_off_c, 2, 74, 67
4, 940992, Note_on_c, 2, 75, 67
4, 941056, Note_off_c, 2, 75, 67
4, 941056, Note_on_c, 2, 77, 67
4, 941184, Note_off_c, 2, 77, 67
4, 941184, Note_on_c, 2, 74, 67
4, 941184, Note_on_c, 2, 80, 67
4, 941248, Note_off_c, 2, 74, 67
4, 941248, Note_off_c, 2, 80, 67
4, 941312, Note_off_c, 2, 74, 67
4, 941312, Note_off_c, 2, 80, 67
4, 941312, Note_on_c, 2, 74, 67
4, 941312, Note_on_c, 2, 79, 67
4, 941376, Note_off_c, 2, 74, 67
4, 941376, Note_off_c, 2, 79, 67
4, 941440, Note_off_c, 2, 74, 67
4, 941440, Note_off_c, 2, 79, 67
4, 941440, Note_on_c, 2, 77, 67
4, 941504, Note_off_c, 2, 77, 67
4, 941568, Note_off_c, 2, 77, 67
4, 941568, Note_on_c, 2, 75, 67
4, 941632, Note_off_c, 2, 75, 67
4, 941696, Note_off_c, 2, 75, 67
4, 941696, Note_on_c, 2, 70, 67
4, 941696, Note_on_c, 2, 74, 67
4, 941760, Note_off_c, 2, 70, 67
4, 941760, Note_off_c, 2, 74, 67
4, 941824, Note_off_c, 2, 70, 67
4, 941824, Note_off_c, 2, 74, 67
4, 941824, Note_on_c, 2, 72, 67
4, 941824, Note_on_c, 2, 74, 67
4, 941888, Note_off_c, 2, 72, 67
4, 941888, Note_off_c, 2, 74, 67
4, 941952, Note_off_c, 2, 72, 67
4, 941952, Note_off_c, 2, 74, 67
4, 941952, Note_on_c, 2, 70, 67
4, 941952, Note_on_c, 2, 74, 67
4, 942016, Note_off_c, 2, 70, 67
4, 942016, Note_off_c, 2, 74, 67
4, 942080, Note_off_c, 2, 70, 67
4, 942080, Note_off_c, 2, 74, 67
4, 942080, Note_on_c, 2, 80, 67
4, 942080, Note_on_c, 2, 84, 67
4, 942336, Note_off_c, 2, 80, 67
4, 942336, Note_off_c, 2, 84, 67
4, 942336, Note_on_c, 2, 70, 67
4, 942336, Note_on_c, 2, 74, 67
4, 942352, Note_off_c, 2, 70, 67
4, 942352, Note_off_c, 2, 74, 67
4, 942368, Note_off_c, 2, 70, 67
4, 942368, Note_off_c, 2, 74, 67
4, 942368, Note_on_c, 2, 72, 67
4, 942368, Note_on_c, 2, 75, 67
4, 942384, Note_off_c, 2, 72, 67
4, 942384, Note_off_c, 2, 75, 67
4, 942400, Note_off_c, 2, 72, 67
4, 942400, Note_off_c, 2, 75, 67
4, 942400, Note_on_c, 2, 70, 67
4, 942400, Note_on_c, 2, 74, 67
4, 942432, Note_off_c, 2, 70, 67
4, 942432, Note_off_c, 2, 74, 67
4, 942464, Note_off_c, 2, 70, 67
4, 942464, Note_off_c, 2, 74, 67
4, 942464, Note_on_c, 2, 68, 67
4, 942464, Note_on_c, 2, 72, 67
4, 942496, Note_off_c, 2, 68, 67
4, 942496, Note_off_c, 2, 72, 67
4, 942528, Note_off_c, 2, 68, 67
4, 942528, Note_off_c, 2, 72, 67
4, 942528, Note_on_c, 2, 74, 67
4, 942528, Note_on_c, 2, 77, 67
4, 942560, Note_off_c, 2, 74, 67
4, 942560, Note_off_c, 2, 77, 67
4, 942592, Note_off_c, 2, 74, 67
4, 942592, Note_off_c, 2, 77, 67
4, 942592, Note_on_c, 2, 75, 67
4, 942592, Note_on_c, 2, 79, 67
4, 942720, Note_off_c, 2, 75, 67
4, 942720, Note_off_c, 2, 79, 67
4, 942720, Note_on_c, 2, 70, 67
4, 942784, Note_off_c, 2, 70, 67
4, 942848, Note_off_c, 2, 70, 67
4, 942848, Note_on_c, 2, 70, 67
4, 942912, Note_off_c, 2, 70, 67
4, 942976, Note_off_c, 2, 70, 67
4, 942976, Note_on_c, 2, 75, 67
4, 942976, Note_on_c, 2, 79, 67
4, 943040, Note_off_c, 2, 75, 67
4, 943040, Note_off_c, 2, 79, 67
4, 943040, Note_on_c, 2, 77, 67
4, 943040, Note_on_c, 2, 80, 67
4, 943104, Note_off_c, 2, 77, 67
4, 943104, Note_off_c, 2, 80, 67
4, 943104, Note_on_c, 2, 79, 67
4, 943104, Note_on_c, 2, 82, 67
4, 943168, Note_off_c, 2, 79, 67
4, 943168, Note_off_c, 2, 82, 67
4, 943232, Note_off_c, 2, 79, 67
4, 943232, Note_off_c, 2, 82, 67
4, 943232, Note_on_c, 2, 79, 67
4, 943232, Note_on_c, 2, 82, 67
4, 943296, Note_off_c, 2, 79, 67
4, 943296, Note_off_c, 2, 82, 67
4, 943360, Note_off_c, 2, 79, 67
4, 943360, Note_off_c, 2, 82, 67
4, 943360, Note_on_c, 2, 70, 67
4, 943360, Note_on_c, 2, 79, 67
4, 943424, Note_off_c, 2, 70, 67
4, 943424, Note_off_c, 2, 79, 67
4, 943488, Note_off_c, 2, 70, 67
4, 943488, Note_off_c, 2, 79, 67
4, 943488, Note_on_c, 2, 70, 67
4, 943488, Note_on_c, 2, 75, 67
4, 943552, Note_off_c, 2, 70, 67
4, 943552, Note_off_c, 2, 75, 67
4, 943616, Note_off_c, 2, 70, 67
4, 943616, Note_off_c, 2, 75, 67
4, 943616, Note_on_c, 2, 84, 67
4, 943616, Note_on_c, 2, 87, 67
4, 943680, Note_off_c, 2, 84, 67
4, 943680, Note_off_c, 2, 87, 67
4, 943744, Note_off_c, 2, 84, 67
4, 943744, Note_off_c, 2, 87, 67
4, 943744, Note_on_c, 2, 82, 67
4, 943744, Note_on_c, 2, 86, 67
4, 943808, Note_off_c, 2, 82, 67
4, 943808, Note_off_c, 2, 86, 67
4, 943872, Note_off_c, 2, 82, 67
4, 943872, Note_off_c, 2, 86, 67
4, 943872, Note_on_c, 2, 80, 67
4, 943872, Note_on_c, 2, 84, 67
4, 943936, Note_off_c, 2, 80, 67
4, 943936, Note_off_c, 2, 84, 67
4, 944000, Note_off_c, 2, 80, 67
4, 944000, Note_off_c, 2, 84, 67
4, 944000, Note_on_c, 2, 79, 67
4, 944000, Note_on_c, 2, 87, 67
4, 944064, Note_off_c, 2, 79, 67
4, 944064, Note_off_c, 2, 87, 67
4, 944128, Note_off_c, 2, 79, 67
4, 944128, Note_off_c, 2, 87, 67
4, 944128, Note_on_c, 2, 75, 67
4, 944128, Note_on_c, 2, 82, 67
4, 944192, Note_off_c, 2, 75, 67
4, 944192, Note_off_c, 2, 82, 67
4, 944256, Note_off_c, 2, 75, 67
4, 944256, Note_off_c, 2, 82, 67
4, 944256, Note_on_c, 2, 79, 67
4, 944320, Note_off_c, 2, 79, 67
4, 944384, Note_off_c, 2, 79, 67
4, 944384, Note_on_c, 2, 67, 67
4, 944384, Note_on_c, 2, 75, 67
4, 944448, Note_off_c, 2, 67, 67
4, 944448, Note_off_c, 2, 75, 67
4, 944512, Note_off_c, 2, 67, 67
4, 944512, Note_off_c, 2, 75, 67
4, 944512, Note_on_c, 2, 68, 67
4, 944512, Note_on_c, 2, 74, 67
4, 944544, Note_off_c, 2, 68, 67
4, 944544, Note_off_c, 2, 74, 67
4, 944576, Note_off_c, 2, 68, 67
4, 944576, Note_off_c, 2, 74, 67
4, 944576, Note_on_c, 2, 74, 67
4, 944576, Note_on_c, 2, 79, 67
4, 944608, Note_off_c, 2, 74, 67
4, 944608, Note_off_c, 2, 79, 67
4, 944640, Note_off_c, 2, 74, 67
4, 944640, Note_off_c, 2, 79, 67
4, 944640, Note_on_c, 2, 70, 67
4, 944640, Note_on_c, 2, 77, 67
4, 944704, Note_off_c, 2, 70, 67
4, 944704, Note_off_c, 2, 77, 67
4, 944768, Note_off_c, 2, 70, 67
4, 944768, Note_off_c, 2, 77, 67
4, 944768, Note_on_c, 2, 65, 67
4, 944768, Note_on_c, 2, 70, 67
4, 944832, Note_off_c, 2, 65, 67
4, 944832, Note_off_c, 2, 70, 67
4, 944896, Note_off_c, 2, 65, 67
4, 944896, Note_off_c, 2, 70, 67
4, 944896, Note_on_c, 2, 68, 67
4, 944896, Note_on_c, 2, 70, 67
4, 944960, Note_off_c, 2, 68, 67
4, 944960, Note_off_c, 2, 70, 67
4, 945024, Note_off_c, 2, 68, 67
4, 945024, Note_off_c, 2, 70, 67
4, 945024, Note_on_c, 2, 70, 67
4, 945024, Note_on_c, 2, 79, 67
4, 945088, Note_off_c, 2, 70, 67
4, 945088, Note_off_c, 2, 79, 67
4, 945088, Note_on_c, 2, 77, 67
4, 945088, Note_on_c, 2, 80, 67
4, 945152, Note_off_c, 2, 77, 67
4, 945152, Note_off_c, 2, 80, 67
4, 945152, Note_on_c, 2, 79, 67
4, 945152, Note_on_c, 2, 82, 67
4, 945216, Note_off_c, 2, 79, 67
4, 945216, Note_off_c, 2, 82, 67
4, 945280, Note_off_c, 2, 79, 67
4, 945280, Note_off_c, 2, 82, 67
4, 945280, Note_on_c, 2, 79, 67
4, 945280, Note_on_c, 2, 82, 67
4, 945344, Note_off_c, 2, 79, 67
4, 945344, Note_off_c, 2, 82, 67
4, 945408, Note_off_c, 2, 79, 67
4, 945408, Note_off_c, 2, 82, 67
4, 945408, Note_on_c, 2, 70, 67
4, 945408, Note_on_c, 2, 79, 67
4, 945472, Note_off_c, 2, 70, 67
4, 945472, Note_off_c, 2, 79, 67
4, 945536, Note_off_c, 2, 70, 67
4, 945536, Note_off_c, 2, 79, 67
4, 945536, Note_on_c, 2, 75, 67
4, 945536, Note_on_c, 2, 82, 67
4, 945600, Note_off_c, 2, 75, 67
4, 945600, Note_off_c, 2, 82, 67
4, 945664, Note_off_c, 2, 75, 67
4, 945664, Note_off_c, 2, 82, 67
4, 945664, Note_on_c, 2, 84, 67
4, 945664, Note_on_c, 2, 87, 67
4, 945728, Note_off_c, 2, 84, 67
4, 945728, Note_off_c, 2, 87, 67
4, 945792, Note_off_c, 2, 84, 67
4, 945792, Note_off_c, 2, 87, 67
4, 945792, Note_on_c, 2, 82, 67
4, 945792, Note_on_c, 2, 86, 67
4, 945856, Note_off_c, 2, 82, 67
4, 945856, Note_off_c, 2, 86, 67
4, 945920, Note_off_c, 2, 82, 67
4, 945920, Note_off_c, 2, 86, 67
4, 945920, Note_on_c, 2, 80, 67
4, 945920, Note_on_c, 2, 84, 67
4, 945984, Note_off_c, 2, 80, 67
4, 945984, Note_off_c, 2, 84, 67
4, 946048, Note_off_c, 2, 80, 67
4, 946048, Note_off_c, 2, 84, 67
4, 946048, Note_on_c, 2, 70, 67
4, 946048, Note_on_c, 2, 74, 67
4, 946080, Note_off_c, 2, 70, 67
4, 946080, Note_off_c, 2, 74, 67
4, 946112, Note_off_c, 2, 70, 67
4, 946112, Note_off_c, 2, 74, 67
4, 946112, Note_on_c, 2, 77, 67
4, 946112, Note_on_c, 2, 80, 67
4, 946144, Note_off_c, 2, 77, 67
4, 946144, Note_off_c, 2, 80, 67
4, 946176, Note_off_c, 2, 77, 67
4, 946176, Note_off_c, 2, 80, 67
4, 946176, Note_on_c, 2, 77, 67
4, 946176, Note_on_c, 2, 82, 67
4, 946240, Note_off_c, 2, 77, 67
4, 946240, Note_off_c, 2, 82, 67
4, 946304, Note_off_c, 2, 77, 67
4, 946304, Note_off_c, 2, 82, 67
4, 946304, Note_on_c, 2, 80, 67
4, 946304, Note_on_c, 2, 87, 67
4, 946368, Note_off_c, 2, 80, 67
4, 946368, Note_off_c, 2, 87, 67
4, 946432, Note_off_c, 2, 80, 67
4, 946432, Note_off_c, 2, 87, 67
4, 946432, Note_on_c, 2, 82, 67
4, 946432, Note_on_c, 2, 86, 67
4, 946496, Note_off_c, 2, 82, 67
4, 946496, Note_off_c, 2, 86, 67
4, 946560, Note_off_c, 2, 82, 67
4, 946560, Note_off_c, 2, 86, 67
4, 946560, Note_on_c, 2, 80, 67
4, 946560, Note_on_c, 2, 89, 67
4, 946624, Note_off_c, 2, 80, 67
4, 946624, Note_off_c, 2, 89, 67
4, 946688, Note_off_c, 2, 80, 67
4, 946688, Note_off_c, 2, 89, 67
4, 946688, Note_on_c, 2, 79, 67
4, 946688, Note_on_c, 2, 87, 67
4, 946752, Note_off_c, 2, 79, 67
4, 946752, Note_off_c, 2, 87, 67
4, 946816, Note_off_c, 2, 79, 67
4, 946816, Note_off_c, 2, 87, 67
4, 946816, Note_on_c, 2, 70, 67
4, 946816, Note_on_c, 2, 82, 67
4, 946880, Note_off_c, 2, 70, 67
4, 946880, Note_off_c, 2, 82, 67
4, 946944, Note_off_c, 2, 70, 67
4, 946944, Note_off_c, 2, 82, 67
4, 946944, Note_on_c, 2, 70, 67
4, 946944, Note_on_c, 2, 82, 67
4, 947008, Note_off_c, 2, 70, 67
4, 947008, Note_off_c, 2, 82, 67
4, 947072, Note_off_c, 2, 70, 67
4, 947072, Note_off_c, 2, 82, 67
4, 947072, Note_on_c, 2, 75, 67
4, 947136, Note_off_c, 2, 75, 67
4, 947136, Note_on_c, 2, 77, 67
4, 947200, Note_off_c, 2, 77, 67
4, 947200, Note_on_c, 2, 79, 67
4, 947264, Note_off_c, 2, 79, 67
4, 947328, Note_off_c, 2, 79, 67
4, 947328, Note_on_c, 2, 75, 67
4, 947328, Note_on_c, 2, 79, 67
4, 947392, Note_off_c, 2, 75, 67
4, 947392, Note_off_c, 2, 79, 67
4, 947456, Note_off_c, 2, 75, 67
4, 947456, Note_off_c, 2, 79, 67
4, 947456, Note_on_c, 2, 75, 67
4, 947456, Note_on_c, 2, 79, 67
4, 947520, Note_off_c, 2, 75, 67
4, 947520, Note_off_c, 2, 79, 67
4, 947584, Note_off_c, 2, 75, 67
4, 947584, Note_off_c, 2, 79, 67
4, 947584, Note_on_c, 2, 75, 67
4, 947648, Note_off_c, 2, 75, 67
4, 947648, Note_on_c, 2, 77, 67
4, 947712, Note_off_c, 2, 77, 67
4, 947712, Note_on_c, 2, 79, 67
4, 947776, Note_off_c, 2, 79, 67
4, 947840, Note_off_c, 2, 79, 67
4, 947840, Note_on_c, 2, 75, 67
4, 947840, Note_on_c, 2, 79, 67
4, 947904, Note_off_c, 2, 75, 67
4, 947904, Note_off_c, 2, 79, 67
4, 947968, Note_off_c, 2, 75, 67
4, 947968, Note_off_c, 2, 79, 67
4, 947968, Note_on_c, 2, 75, 67
4, 947968, Note_on_c, 2, 79, 67
4, 948032, Note_off_c, 2, 75, 67
4, 948032, Note_off_c, 2, 79, 67
4, 948096, Note_off_c, 2, 75, 67
4, 948096, Note_off_c, 2, 79, 67
4, 948096, Note_on_c, 2, 75, 67
4, 948160, Note_off_c, 2, 75, 67
4, 948160, Note_on_c, 2, 77, 67
4, 948224, Note_off_c, 2, 77, 67
4, 948224, Note_on_c, 2, 79, 67
4, 948288, Note_off_c, 2, 79, 67
4, 948352, Note_off_c, 2, 79, 67
4, 948352, Note_on_c, 2, 75, 67
4, 948352, Note_on_c, 2, 79, 67
4, 948416, Note_off_c, 2, 75, 67
4, 948416, Note_off_c, 2, 79, 67
4, 948480, Note_off_c, 2, 75, 67
4, 948480, Note_off_c, 2, 79, 67
4, 948480, Note_on_c, 2, 75, 67
4, 948480, Note_on_c, 2, 80, 67
4, 948512, Note_off_c, 2, 75, 67
4, 948512, Note_off_c, 2, 80, 67
4, 948544, Note_off_c, 2, 75, 67
4, 948544, Note_off_c, 2, 80, 67
4, 948544, Note_on_c, 2, 74, 67
4, 948576, Note_off_c, 2, 74, 67
4, 948608, Note_off_c, 2, 74, 67
4, 948608, Note_on_c, 2, 72, 67
4, 948640, Note_off_c, 2, 72, 67
4, 948672, Note_off_c, 2, 72, 67
4, 948672, Note_on_c, 2, 74, 67
4, 948672, Note_on_c, 2, 79, 67
4, 948704, Note_off_c, 2, 74, 67
4, 948704, Note_off_c, 2, 79, 67
4, 948736, Note_off_c, 2, 74, 67
4, 948736, Note_off_c, 2, 79, 67
4, 948736, Note_on_c, 2, 70, 67
4, 948736, Note_on_c, 2, 77, 67
4, 948800, Note_off_c, 2, 70, 67
4, 948800, Note_off_c, 2, 77, 67
4, 948864, Note_off_c, 2, 70, 67
4, 948864, Note_off_c, 2, 77, 67
4, 948864, Note_on_c, 2, 68, 67
4, 948864, Note_on_c, 2, 70, 67
4, 948928, Note_off_c, 2, 68, 67
4, 948928, Note_off_c, 2, 70, 67
4, 948992, Note_off_c, 2, 68, 67
4, 948992, Note_off_c, 2, 70, 67
4, 948992, Note_on_c, 2, 68, 67
4, 948992, Note_on_c, 2, 70, 67
4, 949056, Note_off_c, 2, 68, 67
4, 949056, Note_off_c, 2, 70, 67
4, 949120, Note_off_c, 2, 68, 67
4, 949120, Note_off_c, 2, 70, 67
4, 949120, Note_on_c, 2, 74, 67
4, 949184, Note_off_c, 2, 74, 67
4, 949184, Note_on_c, 2, 75, 67
4, 949248, Note_off_c, 2, 75, 67
4, 949248, Note_on_c, 2, 77, 67
4, 949312, Note_off_c, 2, 77, 67
4, 949376, Note_off_c, 2, 77, 67
4, 949376, Note_on_c, 2, 74, 67
4, 949376, Note_on_c, 2, 77, 67
4, 949440, Note_off_c, 2, 74, 67
4, 949440, Note_off_c, 2, 77, 67
4, 949504, Note_off_c, 2, 74, 67
4, 949504, Note_off_c, 2, 77, 67
4, 949504, Note_on_c, 2, 74, 67
4, 949504, Note_on_c, 2, 77, 67
4, 949568, Note_off_c, 2, 74, 67
4, 949568, Note_off_c, 2, 77, 67
4, 949632, Note_off_c, 2, 74, 67
4, 949632, Note_off_c, 2, 77, 67
4, 949632, Note_on_c, 2, 74, 67
4, 949696, Note_off_c, 2, 74, 67
4, 949696, Note_on_c, 2, 75, 67
4, 949760, Note_off_c, 2, 75, 67
4, 949760, Note_on_c, 2, 77, 67
4, 949824, Note_off_c, 2, 77, 67
4, 949888, Note_off_c, 2, 77, 67
4, 949888, Note_on_c, 2, 74, 67
4, 949888, Note_on_c, 2, 77, 67
4, 949952, Note_off_c, 2, 74, 67
4, 949952, Note_off_c, 2, 77, 67
4, 950016, Note_off_c, 2, 74, 67
4, 950016, Note_off_c, 2, 77, 67
4, 950016, Note_on_c, 2, 74, 67
4, 950016, Note_on_c, 2, 77, 67
4, 950080, Note_off_c, 2, 74, 67
4, 950080, Note_off_c, 2, 77, 67
4, 950144, Note_off_c, 2, 74, 67
4, 950144, Note_off_c, 2, 77, 67
4, 950144, Note_on_c, 2, 74, 67
4, 950208, Note_off_c, 2, 74, 67
4, 950208, Note_on_c, 2, 75, 67
4, 950272, Note_off_c, 2, 75, 67
4, 950272, Note_on_c, 2, 70, 67
4, 950272, Note_on_c, 2, 77, 67
4, 950336, Note_off_c, 2, 70, 67
4, 950336, Note_off_c, 2, 77, 67
4, 950400, Note_off_c, 2, 70, 67
4, 950400, Note_off_c, 2, 77, 67
4, 950400, Note_on_c, 2, 74, 67
4, 950400, Note_on_c, 2, 77, 67
4, 950464, Note_off_c, 2, 74, 67
4, 950464, Note_off_c, 2, 77, 67
4, 950528, Note_off_c, 2, 74, 67
4, 950528, Note_off_c, 2, 77, 67
4, 950528, Note_on_c, 2, 74, 67
4, 950528, Note_on_c, 2, 79, 67
4, 950560, Note_off_c, 2, 74, 67
4, 950560, Note_off_c, 2, 79, 67
4, 950592, Note_off_c, 2, 74, 67
4, 950592, Note_off_c, 2, 79, 67
4, 950592, Note_on_c, 2, 72, 67
4, 950592, Note_on_c, 2, 77, 67
4, 950624, Note_off_c, 2, 72, 67
4, 950624, Note_off_c, 2, 77, 67
4, 950656, Note_off_c, 2, 72, 67
4, 950656, Note_off_c, 2, 77, 67
4, 950656, Note_on_c, 2, 70, 67
4, 950656, Note_on_c, 2, 77, 67
4, 950688, Note_off_c, 2, 70, 67
4, 950688, Note_off_c, 2, 77, 67
4, 950720, Note_off_c, 2, 70, 67
4, 950720, Note_off_c, 2, 77, 67
4, 950720, Note_on_c, 2, 68, 67
4, 950720, Note_on_c, 2, 79, 67
4, 950752, Note_off_c, 2, 68, 67
4, 950752, Note_off_c, 2, 79, 67
4, 950784, Note_off_c, 2, 68, 67
4, 950784, Note_off_c, 2, 79, 67
4, 950784, Note_on_c, 2, 67, 67
4, 950784, Note_on_c, 2, 75, 67
4, 950848, Note_off_c, 2, 67, 67
4, 950848, Note_off_c, 2, 75, 67
4, 950912, Note_off_c, 2, 67, 67
4, 950912, Note_off_c, 2, 75, 67
4, 950912, Note_on_c, 2, 70, 67
4, 950976, Note_off_c, 2, 70, 67
4, 951040, Note_off_c, 2, 70, 67
4, 951040, Note_on_c, 2, 70, 67
4, 951040, Note_on_c, 2, 79, 67
4, 951104, Note_off_c, 2, 70, 67
4, 951104, Note_off_c, 2, 79, 67
4, 951168, Note_off_c, 2, 70, 67
4, 951168, Note_off_c, 2, 79, 67
4, 951168, Note_on_c, 2, 75, 67
4, 951232, Note_off_c, 2, 75, 67
4, 951232, Note_on_c, 2, 77, 67
4, 951296, Note_off_c, 2, 77, 67
4, 951296, Note_on_c, 2, 79, 67
4, 951360, Note_off_c, 2, 79, 67
4, 951424, Note_off_c, 2, 79, 67
4, 951424, Note_on_c, 2, 75, 67
4, 951424, Note_on_c, 2, 79, 67
4, 951488, Note_off_c, 2, 75, 67
4, 951488, Note_off_c, 2, 79, 67
4, 951552, Note_off_c, 2, 75, 67
4, 951552, Note_off_c, 2, 79, 67
4, 951552, Note_on_c, 2, 75, 67
4, 951552, Note_on_c, 2, 79, 67
4, 951616, Note_off_c, 2, 75, 67
4, 951616, Note_off_c, 2, 79, 67
4, 951680, Note_off_c, 2, 75, 67
4, 951680, Note_off_c, 2, 79, 67
4, 951680, Note_on_c, 2, 75, 67
4, 951744, Note_off_c, 2, 75, 67
4, 951744, Note_on_c, 2, 77, 67
4, 951808, Note_off_c, 2, 77, 67
4, 951808, Note_on_c, 2, 79, 67
4, 951872, Note_off_c, 2, 79, 67
4, 951936, Note_off_c, 2, 79, 67
4, 951936, Note_on_c, 2, 75, 67
4, 951936, Note_on_c, 2, 79, 67
4, 952000, Note_off_c, 2, 75, 67
4, 952000, Note_off_c, 2, 79, 67
4, 952064, Note_off_c, 2, 75, 67
4, 952064, Note_off_c, 2, 79, 67
4, 952064, Note_on_c, 2, 75, 67
4, 952064, Note_on_c, 2, 79, 67
4, 952128, Note_off_c, 2, 75, 67
4, 952128, Note_off_c, 2, 79, 67
4, 952192, Note_off_c, 2, 75, 67
4, 952192, Note_off_c, 2, 79, 67
4, 952192, Note_on_c, 2, 75, 67
4, 952256, Note_off_c, 2, 75, 67
4, 952256, Note_on_c, 2, 77, 67
4, 952320, Note_off_c, 2, 77, 67
4, 952320, Note_on_c, 2, 79, 67
4, 952384, Note_off_c, 2, 79, 67
4, 952448, Note_off_c, 2, 79, 67
4, 952448, Note_on_c, 2, 75, 67
4, 952448, Note_on_c, 2, 79, 67
4, 952512, Note_off_c, 2, 75, 67
4, 952512, Note_off_c, 2, 79, 67
4, 952576, Note_off_c, 2, 75, 67
4, 952576, Note_off_c, 2, 79, 67
4, 952576, Note_on_c, 2, 75, 67
4, 952576, Note_on_c, 2, 80, 67
4, 952608, Note_off_c, 2, 75, 67
4, 952608, Note_off_c, 2, 80, 67
4, 952640, Note_off_c, 2, 75, 67
4, 952640, Note_off_c, 2, 80, 67
4, 952640, Note_on_c, 2, 74, 67
4, 952704, Note_off_c, 2, 74, 67
4, 952704, Note_on_c, 2, 72, 67
4, 952768, Note_off_c, 2, 72, 67
4, 952768, Note_on_c, 2, 74, 67
4, 952768, Note_on_c, 2, 79, 67
4, 952800, Note_off_c, 2, 74, 67
4, 952800, Note_off_c, 2, 79, 67
4, 952832, Note_off_c, 2, 74, 67
4, 952832, Note_off_c, 2, 79, 67
4, 952832, Note_on_c, 2, 70, 67
4, 952832, Note_on_c, 2, 77, 67
4, 952896, Note_off_c, 2, 70, 67
4, 952896, Note_off_c, 2, 77, 67
4, 952960, Note_off_c, 2, 70, 67
4, 952960, Note_off_c, 2, 77, 67
4, 952960, Note_on_c, 2, 68, 67
4, 952960, Note_on_c, 2, 70, 67
4, 953024, Note_off_c, 2, 68, 67
4, 953024, Note_off_c, 2, 70, 67
4, 953088, Note_off_c, 2, 68, 67
4, 953088, Note_off_c, 2, 70, 67
4, 953088, Note_on_c, 2, 68, 67
4, 953088, Note_on_c, 2, 70, 67
4, 953152, Note_off_c, 2, 68, 67
4, 953152, Note_off_c, 2, 70, 67
4, 953216, Note_off_c, 2, 68, 67
4, 953216, Note_off_c, 2, 70, 67
4, 953216, Note_on_c, 2, 74, 67
4, 953280, Note_off_c, 2, 74, 67
4, 953280, Note_on_c, 2, 75, 67
4, 953344, Note_off_c, 2, 75, 67
4, 953344, Note_on_c, 2, 77, 67
4, 953472, Note_off_c, 2, 77, 67
4, 953472, Note_on_c, 2, 74, 67
4, 953472, Note_on_c, 2, 80, 67
4, 953536, Note_off_c, 2, 74, 67
4, 953536, Note_off_c, 2, 80, 67
4, 953600, Note_off_c, 2, 74, 67
4, 953600, Note_off_c, 2, 80, 67
4, 953600, Note_on_c, 2, 74, 67
4, 953600, Note_on_c, 2, 79, 67
4, 953664, Note_off_c, 2, 74, 67
4, 953664, Note_off_c, 2, 79, 67
4, 953728, Note_off_c, 2, 74, 67
4, 953728, Note_off_c, 2, 79, 67
4, 953728, Note_on_c, 2, 77, 67
4, 953792, Note_off_c, 2, 77, 67
4, 953856, Note_off_c, 2, 77, 67
4, 953856, Note_on_c, 2, 75, 67
4, 953920, Note_off_c, 2, 75, 67
4, 953984, Note_off_c, 2, 75, 67
4, 953984, Note_on_c, 2, 70, 67
4, 953984, Note_on_c, 2, 74, 67
4, 954048, Note_off_c, 2, 70, 67
4, 954048, Note_off_c, 2, 74, 67
4, 954112, Note_off_c, 2, 70, 67
4, 954112, Note_off_c, 2, 74, 67
4, 954112, Note_on_c, 2, 72, 67
4, 954112, Note_on_c, 2, 74, 67
4, 954176, Note_off_c, 2, 72, 67
4, 954176, Note_off_c, 2, 74, 67
4, 954240, Note_off_c, 2, 72, 67
4, 954240, Note_off_c, 2, 74, 67
4, 954240, Note_on_c, 2, 70, 67
4, 954240, Note_on_c, 2, 74, 67
4, 954304, Note_off_c, 2, 70, 67
4, 954304, Note_off_c, 2, 74, 67
4, 954368, Note_off_c, 2, 70, 67
4, 954368, Note_off_c, 2, 74, 67
4, 954368, Note_on_c, 2, 80, 67
4, 954368, Note_on_c, 2, 84, 67
4, 954624, Note_off_c, 2, 80, 67
4, 954624, Note_off_c, 2, 84, 67
4, 954624, Note_on_c, 2, 70, 67
4, 954624, Note_on_c, 2, 74, 67
4, 954640, Note_off_c, 2, 70, 67
4, 954640, Note_off_c, 2, 74, 67
4, 954656, Note_off_c, 2, 70, 67
4, 954656, Note_off_c, 2, 74, 67
4, 954656, Note_on_c, 2, 72, 67
4, 954656, Note_on_c, 2, 75, 67
4, 954672, Note_off_c, 2, 72, 67
4, 954672, Note_off_c, 2, 75, 67
4, 954688, Note_off_c, 2, 72, 67
4, 954688, Note_off_c, 2, 75, 67
4, 954688, Note_on_c, 2, 70, 67
4, 954688, Note_on_c, 2, 74, 67
4, 954720, Note_off_c, 2, 70, 67
4, 954720, Note_off_c, 2, 74, 67
4, 954752, Note_off_c, 2, 70, 67
4, 954752, Note_off_c, 2, 74, 67
4, 954752, Note_on_c, 2, 68, 67
4, 954752, Note_on_c, 2, 72, 67
4, 954784, Note_off_c, 2, 68, 67
4, 954784, Note_off_c, 2, 72, 67
4, 954816, Note_off_c, 2, 68, 67
4, 954816, Note_off_c, 2, 72, 67
4, 954816, Note_on_c, 2, 74, 67
4, 954816, Note_on_c, 2, 77, 67
4, 954848, Note_off_c, 2, 74, 67
4, 954848, Note_off_c, 2, 77, 67
4, 954880, Note_off_c, 2, 74, 67
4, 954880, Note_off_c, 2, 77, 67
4, 954880, Note_on_c, 2, 75, 67
4, 954880, Note_on_c, 2, 79, 67
4, 955008, Note_off_c, 2, 75, 67
4, 955008, Note_off_c, 2, 79, 67
4, 955008, Note_on_c, 2, 70, 67
4, 955072, Note_off_c, 2, 70, 67
4, 955136, Note_off_c, 2, 70, 67
4, 955136, Note_on_c, 2, 70, 67
4, 955200, Note_off_c, 2, 70, 67
4, 955264, Note_off_c, 2, 70, 67
4, 955264, Note_on_c, 2, 75, 67
4, 955264, Note_on_c, 2, 79, 67
4, 955328, Note_off_c, 2, 75, 67
4, 955328, Note_off_c, 2, 79, 67
4, 955328, Note_on_c, 2, 77, 67
4, 955328, Note_on_c, 2, 80, 67
4, 955392, Note_off_c, 2, 77, 67
4, 955392, Note_off_c, 2, 80, 67
4, 955392, Note_on_c, 2, 79, 67
4, 955392, Note_on_c, 2, 82, 67
4, 955456, Note_off_c, 2, 79, 67
4, 955456, Note_off_c, 2, 82, 67
4, 955520, Note_off_c, 2, 79, 67
4, 955520, Note_off_c, 2, 82, 67
4, 955520, Note_on_c, 2, 79, 67
4, 955520, Note_on_c, 2, 82, 67
4, 955584, Note_off_c, 2, 79, 67
4, 955584, Note_off_c, 2, 82, 67
4, 955648, Note_off_c, 2, 79, 67
4, 955648, Note_off_c, 2, 82, 67
4, 955648, Note_on_c, 2, 70, 67
4, 955648, Note_on_c, 2, 79, 67
4, 955712, Note_off_c, 2, 70, 67
4, 955712, Note_off_c, 2, 79, 67
4, 955776, Note_off_c, 2, 70, 67
4, 955776, Note_off_c, 2, 79, 67
4, 955776, Note_on_c, 2, 70, 67
4, 955776, Note_on_c, 2, 75, 67
4, 955840, Note_off_c, 2, 70, 67
4, 955840, Note_off_c, 2, 75, 67
4, 955904, Note_off_c, 2, 70, 67
4, 955904, Note_off_c, 2, 75, 67
4, 955904, Note_on_c, 2, 84, 67
4, 955904, Note_on_c, 2, 87, 67
4, 955968, Note_off_c, 2, 84, 67
4, 955968, Note_off_c, 2, 87, 67
4, 956032, Note_off_c, 2, 84, 67
4, 956032, Note_off_c, 2, 87, 67
4, 956032, Note_on_c, 2, 82, 67
4, 956032, Note_on_c, 2, 86, 67
4, 956096, Note_off_c, 2, 82, 67
4, 956096, Note_off_c, 2, 86, 67
4, 956160, Note_off_c, 2, 82, 67
4, 956160, Note_off_c, 2, 86, 67
4, 956160, Note_on_c, 2, 80, 67
4, 956160, Note_on_c, 2, 84, 67
4, 956224, Note_off_c, 2, 80, 67
4, 956224, Note_off_c, 2, 84, 67
4, 956288, Note_off_c, 2, 80, 67
4, 956288, Note_off_c, 2, 84, 67
4, 956288, Note_on_c, 2, 79, 67
4, 956288, Note_on_c, 2, 87, 67
4, 956352, Note_off_c, 2, 79, 67
4, 956352, Note_off_c, 2, 87, 67
4, 956416, Note_off_c, 2, 79, 67
4, 956416, Note_off_c, 2, 87, 67
4, 956416, Note_on_c, 2, 75, 67
4, 956416, Note_on_c, 2, 82, 67
4, 956480, Note_off_c, 2, 75, 67
4, 956480, Note_off_c, 2, 82, 67
4, 956544, Note_off_c, 2, 75, 67
4, 956544, Note_off_c, 2, 82, 67
4, 956544, Note_on_c, 2, 79, 67
4, 956608, Note_off_c, 2, 79, 67
4, 956672, Note_off_c, 2, 79, 67
4, 956672, Note_on_c, 2, 67, 67
4, 956672, Note_on_c, 2, 75, 67
4, 956736, Note_off_c, 2, 67, 67
4, 956736, Note_off_c, 2, 75, 67
4, 956800, Note_off_c, 2, 67, 67
4, 956800, Note_off_c, 2, 75, 67
4, 956800, Note_on_c, 2, 68, 67
4, 956800, Note_on_c, 2, 74, 67
4, 956832, Note_off_c, 2, 68, 67
4, 956832, Note_off_c, 2, 74, 67
4, 956864, Note_off_c, 2, 68, 67
4, 956864, Note_off_c, 2, 74, 67
4, 956864, Note_on_c, 2, 74, 67
4, 956864, Note_on_c, 2, 79, 67
4, 956896, Note_off_c, 2, 74, 67
4, 956896, Note_off_c, 2, 79, 67
4, 956928, Note_off_c, 2, 74, 67
4, 956928, Note_off_c, 2, 79, 67
4, 956928, Note_on_c, 2, 70, 67
4, 956928, Note_on_c, 2, 77, 67
4, 956992, Note_off_c, 2, 70, 67
4, 956992, Note_off_c, 2, 77, 67
4, 957056, Note_off_c, 2, 70, 67
4, 957056, Note_off_c, 2, 77, 67
4, 957056, Note_on_c, 2, 65, 67
4, 957056, Note_on_c, 2, 70, 67
4, 957120, Note_off_c, 2, 65, 67
4, 957120, Note_off_c, 2, 70, 67
4, 957184, Note_off_c, 2, 65, 67
4, 957184, Note_off_c, 2, 70, 67
4, 957184, Note_on_c, 2, 68, 67
4, 957184, Note_on_c, 2, 70, 67
4, 957248, Note_off_c, 2, 68, 67
4, 957248, Note_off_c, 2, 70, 67
4, 957312, Note_off_c, 2, 68, 67
4, 957312, Note_off_c, 2, 70, 67
4, 957312, Note_on_c, 2, 70, 67
4, 957312, Note_on_c, 2, 79, 67
4, 957376, Note_off_c, 2, 70, 67
4, 957376, Note_off_c, 2, 79, 67
4, 957376, Note_on_c, 2, 77, 67
4, 957376, Note_on_c, 2, 80, 67
4, 957440, Note_off_c, 2, 77, 67
4, 957440, Note_off_c, 2, 80, 67
4, 957440, Note_on_c, 2, 79, 67
4, 957440, Note_on_c, 2, 82, 67
4, 957504, Note_off_c, 2, 79, 67
4, 957504, Note_off_c, 2, 82, 67
4, 957568, Note_off_c, 2, 79, 67
4, 957568, Note_off_c, 2, 82, 67
4, 957568, Note_on_c, 2, 79, 67
4, 957568, Note_on_c, 2, 82, 67
4, 957632, Note_off_c, 2, 79, 67
4, 957632, Note_off_c, 2, 82, 67
4, 957696, Note_off_c, 2, 79, 67
4, 957696, Note_off_c, 2, 82, 67
4, 957696, Note_on_c, 2, 70, 67
4, 957696, Note_on_c, 2, 79, 67
4, 957760, Note_off_c, 2, 70, 67
4, 957760, Note_off_c, 2, 79, 67
4, 957824, Note_off_c, 2, 70, 67
4, 957824, Note_off_c, 2, 79, 67
4, 957824, Note_on_c, 2, 75, 67
4, 957824, Note_on_c, 2, 82, 67
4, 957888, Note_off_c, 2, 75, 67
4, 957888, Note_off_c, 2, 82, 67
4, 957952, Note_off_c, 2, 75, 67
4, 957952, Note_off_c, 2, 82, 67
4, 957952, Note_on_c, 2, 84, 67
4, 957952, Note_on_c, 2, 87, 67
4, 958016, Note_off_c, 2, 84, 67
4, 958016, Note_off_c, 2, 87, 67
4, 958080, Note_off_c, 2, 84, 67
4, 958080, Note_off_c, 2, 87, 67
4, 958080, Note_on_c, 2, 82, 67
4, 958080, Note_on_c, 2, 86, 67
4, 958144, Note_off_c, 2, 82, 67
4, 958144, Note_off_c, 2, 86, 67
4, 958208, Note_off_c, 2, 82, 67
4, 958208, Note_off_c, 2, 86, 67
4, 958208, Note_on_c, 2, 80, 67
4, 958208, Note_on_c, 2, 84, 67
4, 958272, Note_off_c, 2, 80, 67
4, 958272, Note_off_c, 2, 84, 67
4, 958336, Note_off_c, 2, 80, 67
4, 958336, Note_off_c, 2, 84, 67
4, 958336, Note_on_c, 2, 70, 67
4, 958336, Note_on_c, 2, 74, 67
4, 958368, Note_off_c, 2, 70, 67
4, 958368, Note_off_c, 2, 74, 67
4, 958400, Note_off_c, 2, 70, 67
4, 958400, Note_off_c, 2, 74, 67
4, 958400, Note_on_c, 2, 77, 67
4, 958400, Note_on_c, 2, 80, 67
4, 958432, Note_off_c, 2, 77, 67
4, 958432, Note_off_c, 2, 80, 67
4, 958464, Note_off_c, 2, 77, 67
4, 958464, Note_off_c, 2, 80, 67
4, 958464, Note_on_c, 2, 77, 67
4, 958464, Note_on_c, 2, 82, 67
4, 958528, Note_off_c, 2, 77, 67
4, 958528, Note_off_c, 2, 82, 67
4, 958592, Note_off_c, 2, 77, 67
4, 958592, Note_off_c, 2, 82, 67
4, 958592, Note_on_c, 2, 80, 67
4, 958592, Note_on_c, 2, 87, 67
4, 958656, Note_off_c, 2, 80, 67
4, 958656, Note_off_c, 2, 87, 67
4, 958720, Note_off_c, 2, 80, 67
4, 958720, Note_off_c, 2, 87, 67
4, 958720, Note_on_c, 2, 82, 67
4, 958720, Note_on_c, 2, 86, 67
4, 958784, Note_off_c, 2, 82, 67
4, 958784, Note_off_c, 2, 86, 67
4, 958848, Note_off_c, 2, 82, 67
4, 958848, Note_off_c, 2, 86, 67
4, 958848, Note_on_c, 2, 80, 67
4, 958848, Note_on_c, 2, 89, 67
4, 958912, Note_off_c, 2, 80, 67
4, 958912, Note_off_c, 2, 89, 67
4, 958976, Note_off_c, 2, 80, 67
4, 958976, Note_off_c, 2, 89, 67
4, 958976, Note_on_c, 2, 79, 67
4, 958976, Note_on_c, 2, 87, 67
4, 959040, Note_off_c, 2, 79, 67
4, 959040, Note_off_c, 2, 87, 67
4, 959104, Note_off_c, 2, 79, 67
4, 959104, Note_off_c, 2, 87, 67
4, 959104, Note_on_c, 2, 70, 67
4, 959104, Note_on_c, 2, 82, 67
4, 959168, Note_off_c, 2, 70, 67
4, 959168, Note_off_c, 2, 82, 67
4, 959232, Note_off_c, 2, 70, 67
4, 959232, Note_off_c, 2, 82, 67
4, 959232, Note_on_c, 2, 70, 67
4, 959232, Note_on_c, 2, 82, 67
4, 959296, Note_off_c, 2, 70, 67
4, 959296, Note_off_c, 2, 82, 67
4, 959360, Note_off_c, 2, 70, 67
4, 959360, Note_off_c, 2, 82, 67
4, 959360, Note_on_c, 2, 75, 67
4, 959424, Note_off_c, 2, 75, 67
4, 959424, Note_on_c, 2, 77, 67
4, 959488, Note_off_c, 2, 77, 67
4, 959488, Note_on_c, 2, 79, 67
4, 959552, Note_off_c, 2, 79, 67
4, 959616, Note_off_c, 2, 79, 67
4, 959616, Note_on_c, 2, 75, 67
4, 959616, Note_on_c, 2, 79, 67
4, 959680, Note_off_c, 2, 75, 67
4, 959680, Note_off_c, 2, 79, 67
4, 959744, Note_off_c, 2, 75, 67
4, 959744, Note_off_c, 2, 79, 67
4, 959744, Note_on_c, 2, 75, 67
4, 959744, Note_on_c, 2, 79, 67
4, 959808, Note_off_c, 2, 75, 67
4, 959808, Note_off_c, 2, 79, 67
4, 959872, Note_off_c, 2, 75, 67
4, 959872, Note_off_c, 2, 79, 67
4, 959872, Note_on_c, 2, 75, 67
4, 959936, Note_off_c, 2, 75, 67
4, 959936, Note_on_c, 2, 77, 67
4, 960000, Note_off_c, 2, 77, 67
4, 960000, Note_on_c, 2, 79, 67
4, 960064, Note_off_c, 2, 79, 67
4, 960128, Note_off_c, 2, 79, 67
4, 960128, Note_on_c, 2, 75, 67
4, 960128, Note_on_c, 2, 79, 67
4, 960192, Note_off_c, 2, 75, 67
4, 960192, Note_off_c, 2, 79, 67
4, 960256, Note_off_c, 2, 75, 67
4, 960256, Note_off_c, 2, 79, 67
4, 960256, Note_on_c, 2, 75, 67
4, 960256, Note_on_c, 2, 79, 67
4, 960320, Note_off_c, 2, 75, 67
4, 960320, Note_off_c, 2, 79, 67
4, 960384, Note_off_c, 2, 75, 67
4, 960384, Note_off_c, 2, 79, 67
4, 960384, Note_on_c, 2, 75, 67
4, 960448, Note_off_c, 2, 75, 67
4, 960448, Note_on_c, 2, 77, 67
4, 960512, Note_off_c, 2, 77, 67
4, 960512, Note_on_c, 2, 79, 67
4, 960576, Note_off_c, 2, 79, 67
4, 960640, Note_off_c, 2, 79, 67
4, 960640, Note_on_c, 2, 75, 67
4, 960640, Note_on_c, 2, 79, 67
4, 960704, Note_off_c, 2, 75, 67
4, 960704, Note_off_c, 2, 79, 67
4, 960768, Note_off_c, 2, 75, 67
4, 960768, Note_off_c, 2, 79, 67
4, 960768, Note_on_c, 2, 75, 67
4, 960768, Note_on_c, 2, 80, 67
4, 960800, Note_off_c, 2, 75, 67
4, 960800, Note_off_c, 2, 80, 67
4, 960832, Note_off_c, 2, 75, 67
4, 960832, Note_off_c, 2, 80, 67
4, 960832, Note_on_c, 2, 74, 67
4, 960864, Note_off_c, 2, 74, 67
4, 960896, Note_off_c, 2, 74, 67
4, 960896, Note_on_c, 2, 72, 67
4, 960928, Note_off_c, 2, 72, 67
4, 960960, Note_off_c, 2, 72, 67
4, 960960, Note_on_c, 2, 74, 67
4, 960960, Note_on_c, 2, 79, 67
4, 960992, Note_off_c, 2, 74, 67
4, 960992, Note_off_c, 2, 79, 67
4, 961024, Note_off_c, 2, 74, 67
4, 961024, Note_off_c, 2, 79, 67
4, 961024, Note_on_c, 2, 70, 67
4, 961024, Note_on_c, 2, 77, 67
4, 961088, Note_off_c, 2, 70, 67
4, 961088, Note_off_c, 2, 77, 67
4, 961152, Note_off_c, 2, 70, 67
4, 961152, Note_off_c, 2, 77, 67
4, 961152, Note_on_c, 2, 68, 67
4, 961152, Note_on_c, 2, 70, 67
4, 961216, Note_off_c, 2, 68, 67
4, 961216, Note_off_c, 2, 70, 67
4, 961280, Note_off_c, 2, 68, 67
4, 961280, Note_off_c, 2, 70, 67
4, 961280, Note_on_c, 2, 68, 67
4, 961280, Note_on_c, 2, 70, 67
4, 961344, Note_off_c, 2, 68, 67
4, 961344, Note_off_c, 2, 70, 67
4, 961408, Note_off_c, 2, 68, 67
4, 961408, Note_off_c, 2, 70, 67
4, 961408, Note_on_c, 2, 74, 67
4, 961472, Note_off_c, 2, 74, 67
4, 961472, Note_on_c, 2, 75, 67
4, 961536, Note_off_c, 2, 75, 67
4, 961536, Note_on_c, 2, 77, 67
4, 961600, Note_off_c, 2, 77, 67
4, 961664, Note_off_c, 2, 77, 67
4, 961664, Note_on_c, 2, 74, 67
4, 961664, Note_on_c, 2, 77, 67
4, 961728, Note_off_c, 2, 74, 67
4, 961728, Note_off_c, 2, 77, 67
4, 961792, Note_off_c, 2, 74, 67
4, 961792, Note_off_c, 2, 77, 67
4, 961792, Note_on_c, 2, 74, 67
4, 961792, Note_on_c, 2, 77, 67
4, 961856, Note_off_c, 2, 74, 67
4, 961856, Note_off_c, 2, 77, 67
4, 961920, Note_off_c, 2, 74, 67
4, 961920, Note_off_c, 2, 77, 67
4, 961920, Note_on_c, 2, 74, 67
4, 961984, Note_off_c, 2, 74, 67
4, 961984, Note_on_c, 2, 75, 67
4, 962048, Note_off_c, 2, 75, 67
4, 962048, Note_on_c, 2, 77, 67
4, 962112, Note_off_c, 2, 77, 67
4, 962176, Note_off_c, 2, 77, 67
4, 962176, Note_on_c, 2, 74, 67
4, 962176, Note_on_c, 2, 77, 67
4, 962240, Note_off_c, 2, 74, 67
4, 962240, Note_off_c, 2, 77, 67
4, 962304, Note_off_c, 2, 74, 67
4, 962304, Note_off_c, 2, 77, 67
4, 962304, Note_on_c, 2, 74, 67
4, 962304, Note_on_c, 2, 77, 67
4, 962368, Note_off_c, 2, 74, 67
4, 962368, Note_off_c, 2, 77, 67
4, 962432, Note_off_c, 2, 74, 67
4, 962432, Note_off_c, 2, 77, 67
4, 962432, Note_on_c, 2, 74, 67
4, 962496, Note_off_c, 2, 74, 67
4, 962496, Note_on_c, 2, 75, 67
4, 962560, Note_off_c, 2, 75, 67
4, 962560, Note_on_c, 2, 70, 67
4, 962560, Note_on_c, 2, 77, 67
4, 962624, Note_off_c, 2, 70, 67
4, 962624, Note_off_c, 2, 77, 67
4, 962688, Note_off_c, 2, 70, 67
4, 962688, Note_off_c, 2, 77, 67
4, 962688, Note_on_c, 2, 74, 67
4, 962688, Note_on_c, 2, 77, 67
4, 962752, Note_off_c, 2, 74, 67
4, 962752, Note_off_c, 2, 77, 67
4, 962816, Note_off_c, 2, 74, 67
4, 962816, Note_off_c, 2, 77, 67
4, 962816, Note_on_c, 2, 74, 67
4, 962816, Note_on_c, 2, 79, 67
4, 962848, Note_off_c, 2, 74, 67
4, 962848, Note_off_c, 2, 79, 67
4, 962880, Note_off_c, 2, 74, 67
4, 962880, Note_off_c, 2, 79, 67
4, 962880, Note_on_c, 2, 72, 67
4, 962880, Note_on_c, 2, 77, 67
4, 962912, Note_off_c, 2, 72, 67
4, 962912, Note_off_c, 2, 77, 67
4, 962944, Note_off_c, 2, 72, 67
4, 962944, Note_off_c, 2, 77, 67
4, 962944, Note_on_c, 2, 70, 67
4, 962944, Note_on_c, 2, 77, 67
4, 962976, Note_off_c, 2, 70, 67
4, 962976, Note_off_c, 2, 77, 67
4, 963008, Note_off_c, 2, 70, 67
4, 963008, Note_off_c, 2, 77, 67
4, 963008, Note_on_c, 2, 68, 67
4, 963008, Note_on_c, 2, 79, 67
4, 963040, Note_off_c, 2, 68, 67
4, 963040, Note_off_c, 2, 79, 67
4, 963072, Note_off_c, 2, 68, 67
4, 963072, Note_off_c, 2, 79, 67
4, 963072, Note_on_c, 2, 67, 67
4, 963072, Note_on_c, 2, 75, 67
4, 963136, Note_off_c, 2, 67, 67
4, 963136, Note_off_c, 2, 75, 67
4, 963200, Note_off_c, 2, 67, 67
4, 963200, Note_off_c, 2, 75, 67
4, 963200, Note_on_c, 2, 70, 67
4, 963264, Note_off_c, 2, 70, 67
4, 963328, Note_off_c, 2, 70, 67
4, 963328, Note_on_c, 2, 70, 67
4, 963328, Note_on_c, 2, 79, 67
4, 963392, Note_off_c, 2, 70, 67
4, 963392, Note_off_c, 2, 79, 67
4, 963456, Note_off_c, 2, 70, 67
4, 963456, Note_off_c, 2, 79, 67
4, 963456, Note_on_c, 2, 75, 67
4, 963520, Note_off_c, 2, 75, 67
4, 963520, Note_on_c, 2, 77, 67
4, 963584, Note_off_c, 2, 77, 67
4, 963584, Note_on_c, 2, 79, 67
4, 963648, Note_off_c, 2, 79, 67
4, 963712, Note_off_c, 2, 79, 67
4, 963712, Note_on_c, 2, 75, 67
4, 963712, Note_on_c, 2, 79, 67
4, 963776, Note_off_c, 2, 75, 67
4, 963776, Note_off_c, 2, 79, 67
4, 963840, Note_off_c, 2, 75, 67
4, 963840, Note_off_c, 2, 79, 67
4, 963840, Note_on_c, 2, 75, 67
4, 963840, Note_on_c, 2, 79, 67
4, 963904, Note_off_c, 2, 75, 67
4, 963904, Note_off_c, 2, 79, 67
4, 963968, Note_off_c, 2, 75, 67
4, 963968, Note_off_c, 2, 79, 67
4, 963968, Note_on_c, 2, 75, 67
4, 964032, Note_off_c, 2, 75, 67
4, 964032, Note_on_c, 2, 77, 67
4, 964096, Note_off_c, 2, 77, 67
4, 964096, Note_on_c, 2, 79, 67
4, 964160, Note_off_c, 2, 79, 67
4, 964224, Note_off_c, 2, 79, 67
4, 964224, Note_on_c, 2, 75, 67
4, 964224, Note_on_c, 2, 79, 67
4, 964288, Note_off_c, 2, 75, 67
4, 964288, Note_off_c, 2, 79, 67
4, 964352, Note_off_c, 2, 75, 67
4, 964352, Note_off_c, 2, 79, 67
4, 964352, Note_on_c, 2, 75, 67
4, 964352, Note_on_c, 2, 79, 67
4, 964416, Note_off_c, 2, 75, 67
4, 964416, Note_off_c, 2, 79, 67
4, 964480, Note_off_c, 2, 75, 67
4, 964480, Note_off_c, 2, 79, 67
4, 964480, Note_on_c, 2, 75, 67
4, 964544, Note_off_c, 2, 75, 67
4, 964544, Note_on_c, 2, 77, 67
4, 964608, Note_off_c, 2, 77, 67
4, 964608, Note_on_c, 2, 79, 67
4, 964672, Note_off_c, 2, 79, 67
4, 964736, Note_off_c, 2, 79, 67
4, 964736, Note_on_c, 2, 75, 67
4, 964736, Note_on_c, 2, 79, 67
4, 964800, Note_off_c, 2, 75, 67
4, 964800, Note_off_c, 2, 79, 67
4, 964864, Note_off_c, 2, 75, 67
4, 964864, Note_off_c, 2, 79, 67
4, 964864, Note_on_c, 2, 75, 67
4, 964864, Note_on_c, 2, 80, 67
4, 964896, Note_off_c, 2, 75, 67
4, 964896, Note_off_c, 2, 80, 67
4, 964928, Note_off_c, 2, 75, 67
4, 964928, Note_off_c, 2, 80, 67
4, 964928, Note_on_c, 2, 74, 67
4, 964992, Note_off_c, 2, 74, 67
4, 964992, Note_on_c, 2, 72, 67
4, 965056, Note_off_c, 2, 72, 67
4, 965056, Note_on_c, 2, 74, 67
4, 965056, Note_on_c, 2, 79, 67
4, 965088, Note_off_c, 2, 74, 67
4, 965088, Note_off_c, 2, 79, 67
4, 965120, Note_off_c, 2, 74, 67
4, 965120, Note_off_c, 2, 79, 67
4, 965120, Note_on_c, 2, 70, 67
4, 965120, Note_on_c, 2, 77, 67
4, 965184, Note_off_c, 2, 70, 67
4, 965184, Note_off_c, 2, 77, 67
4, 965248, Note_off_c, 2, 70, 67
4, 965248, Note_off_c, 2, 77, 67
4, 965248, Note_on_c, 2, 68, 67
4, 965248, Note_on_c, 2, 70, 67
4, 965312, Note_off_c, 2, 68, 67
4, 965312, Note_off_c, 2, 70, 67
4, 965376, Note_off_c, 2, 68, 67
4, 965376, Note_off_c, 2, 70, 67
4, 965376, Note_on_c, 2, 68, 67
4, 965376, Note_on_c, 2, 70, 67
4, 965440, Note_off_c, 2, 68, 67
4, 965440, Note_off_c, 2, 70, 67
4, 965504, Note_off_c, 2, 68, 67
4, 965504, Note_off_c, 2, 70, 67
4, 965504, Note_on_c, 2, 74, 67
4, 965568, Note_off_c, 2, 74, 67
4, 965568, Note_on_c, 2, 75, 67
4, 965632, Note_off_c, 2, 75, 67
4, 965632, Note_on_c, 2, 77, 67
4, 965760, Note_off_c, 2, 77, 67
4, 965760, Note_on_c, 2, 74, 67
4, 965760, Note_on_c, 2, 80, 67
4, 965824, Note_off_c, 2, 74, 67
4, 965824, Note_off_c, 2, 80, 67
4, 965888, Note_off_c, 2, 74, 67
4, 965888, Note_off_c, 2, 80, 67
4, 965888, Note_on_c, 2, 74, 67
4, 965888, Note_on_c, 2, 79, 67
4, 965952, Note_off_c, 2, 74, 67
4, 965952, Note_off_c, 2, 79, 67
4, 966016, Note_off_c, 2, 74, 67
4, 966016, Note_off_c, 2, 79, 67
4, 966016, Note_on_c, 2, 77, 67
4, 966080, Note_off_c, 2, 77, 67
4, 966144, Note_off_c, 2, 77, 67
4, 966144, Note_on_c, 2, 75, 67
4, 966208, Note_off_c, 2, 75, 67
4, 966272, Note_off_c, 2, 75, 67
4, 966272, Note_on_c, 2, 70, 67
4, 966272, Note_on_c, 2, 74, 67
4, 966336, Note_off_c, 2, 70, 67
4, 966336, Note_off_c, 2, 74, 67
4, 966400, Note_off_c, 2, 70, 67
4, 966400, Note_off_c, 2, 74, 67
4, 966400, Note_on_c, 2, 72, 67
4, 966400, Note_on_c, 2, 74, 67
4, 966464, Note_off_c, 2, 72, 67
4, 966464, Note_off_c, 2, 74, 67
4, 966528, Note_off_c, 2, 72, 67
4, 966528, Note_off_c, 2, 74, 67
4, 966528, Note_on_c, 2, 70, 67
4, 966528, Note_on_c, 2, 74, 67
4, 966592, Note_off_c, 2, 70, 67
4, 966592, Note_off_c, 2, 74, 67
4, 966656, Note_off_c, 2, 70, 67
4, 966656, Note_off_c, 2, 74, 67
4, 966656, Note_on_c, 2, 80, 67
4, 966656, Note_on_c, 2, 84, 67
4, 966912, Note_off_c, 2, 80, 67
4, 966912, Note_off_c, 2, 84, 67
4, 966912, Note_on_c, 2, 70, 67
4, 966912, Note_on_c, 2, 74, 67
4, 966928, Note_off_c, 2, 70, 67
4, 966928, Note_off_c, 2, 74, 67
4, 966944, Note_off_c, 2, 70, 67
4, 966944, Note_off_c, 2, 74, 67
4, 966944, Note_on_c, 2, 72, 67
4, 966944, Note_on_c, 2, 75, 67
4, 966960, Note_off_c, 2, 72, 67
4, 966960, Note_off_c, 2, 75, 67
4, 966976, Note_off_c, 2, 72, 67
4, 966976, Note_off_c, 2, 75, 67
4, 966976, Note_on_c, 2, 70, 67
4, 966976, Note_on_c, 2, 74, 67
4, 967008, Note_off_c, 2, 70, 67
4, 967008, Note_off_c, 2, 74, 67
4, 967040, Note_off_c, 2, 70, 67
4, 967040, Note_off_c, 2, 74, 67
4, 967040, Note_on_c, 2, 68, 67
4, 967040, Note_on_c, 2, 72, 67
4, 967072, Note_off_c, 2, 68, 67
4, 967072, Note_off_c, 2, 72, 67
4, 967104, Note_off_c, 2, 68, 67
4, 967104, Note_off_c, 2, 72, 67
4, 967104, Note_on_c, 2, 74, 67
4, 967104, Note_on_c, 2, 77, 67
4, 967136, Note_off_c, 2, 74, 67
4, 967136, Note_off_c, 2, 77, 67
4, 967168, Note_off_c, 2, 74, 67
4, 967168, Note_off_c, 2, 77, 67
4, 967168, Note_on_c, 2, 75, 67
4, 967168, Note_on_c, 2, 79, 67
4, 967296, Note_off_c, 2, 75, 67
4, 967296, Note_off_c, 2, 79, 67
4, 967296, Note_on_c, 2, 70, 67
4, 967360, Note_off_c, 2, 70, 67
4, 967424, Note_off_c, 2, 70, 67
4, 967424, Note_on_c, 2, 70, 67
4, 967488, Note_off_c, 2, 70, 67
4, 967552, Note_off_c, 2, 70, 67
4, 967552, Note_on_c, 2, 75, 67
4, 967552, Note_on_c, 2, 79, 67
4, 967616, Note_off_c, 2, 75, 67
4, 967616, Note_off_c, 2, 79, 67
4, 967616, Note_on_c, 2, 77, 67
4, 967616, Note_on_c, 2, 80, 67
4, 967680, Note_off_c, 2, 77, 67
4, 967680, Note_off_c, 2, 80, 67
4, 967680, Note_on_c, 2, 79, 67
4, 967680, Note_on_c, 2, 82, 67
4, 967744, Note_off_c, 2, 79, 67
4, 967744, Note_off_c, 2, 82, 67
4, 967808, Note_off_c, 2, 79, 67
4, 967808, Note_off_c, 2, 82, 67
4, 967808, Note_on_c, 2, 79, 67
4, 967808, Note_on_c, 2, 82, 67
4, 967872, Note_off_c, 2, 79, 67
4, 967872, Note_off_c, 2, 82, 67
4, 967936, Note_off_c, 2, 79, 67
4, 967936, Note_off_c, 2, 82, 67
4, 967936, Note_on_c, 2, 70, 67
4, 967936, Note_on_c, 2, 79, 67
4, 968000, Note_off_c, 2, 70, 67
4, 968000, Note_off_c, 2, 79, 67
4, 968064, Note_off_c, 2, 70, 67
4, 968064, Note_off_c, 2, 79, 67
4, 968064, Note_on_c, 2, 70, 67
4, 968064, Note_on_c, 2, 75, 67
4, 968128, Note_off_c, 2, 70, 67
4, 968128, Note_off_c, 2, 75, 67
4, 968192, Note_off_c, 2, 70, 67
4, 968192, Note_off_c, 2, 75, 67
4, 968192, Note_on_c, 2, 84, 67
4, 968192, Note_on_c, 2, 87, 67
4, 968256, Note_off_c, 2, 84, 67
4, 968256, Note_off_c, 2, 87, 67
4, 968320, Note_off_c, 2, 84, 67
4, 968320, Note_off_c, 2, 87, 67
4, 968320, Note_on_c, 2, 82, 67
4, 968320, Note_on_c, 2, 86, 67
4, 968384, Note_off_c, 2, 82, 67
4, 968384, Note_off_c, 2, 86, 67
4, 968448, Note_off_c, 2, 82, 67
4, 968448, Note_off_c, 2, 86, 67
4, 968448, Note_on_c, 2, 80, 67
4, 968448, Note_on_c, 2, 84, 67
4, 968512, Note_off_c, 2, 80, 67
4, 968512, Note_off_c, 2, 84, 67
4, 968576, Note_off_c, 2, 80, 67
4, 968576, Note_off_c, 2, 84, 67
4, 968576, Note_on_c, 2, 79, 67
4, 968576, Note_on_c, 2, 87, 67
4, 968640, Note_off_c, 2, 79, 67
4, 968640, Note_off_c, 2, 87, 67
4, 968704, Note_off_c, 2, 79, 67
4, 968704, Note_off_c, 2, 87, 67
4, 968704, Note_on_c, 2, 75, 67
4, 968704, Note_on_c, 2, 82, 67
4, 968768, Note_off_c, 2, 75, 67
4, 968768, Note_off_c, 2, 82, 67
4, 968832, Note_off_c, 2, 75, 67
4, 968832, Note_off_c, 2, 82, 67
4, 968832, Note_on_c, 2, 79, 67
4, 968896, Note_off_c, 2, 79, 67
4, 968960, Note_off_c, 2, 79, 67
4, 968960, Note_on_c, 2, 67, 67
4, 968960, Note_on_c, 2, 75, 67
4, 969024, Note_off_c, 2, 67, 67
4, 969024, Note_off_c, 2, 75, 67
4, 969088, Note_off_c, 2, 67, 67
4, 969088, Note_off_c, 2, 75, 67
4, 969088, Note_on_c, 2, 68, 67
4, 969088, Note_on_c, 2, 74, 67
4, 969120, Note_off_c, 2, 68, 67
4, 969120, Note_off_c, 2, 74, 67
4, 969152, Note_off_c, 2, 68, 67
4, 969152, Note_off_c, 2, 74, 67
4, 969152, Note_on_c, 2, 74, 67
4, 969152, Note_on_c, 2, 79, 67
4, 969184, Note_off_c, 2, 74, 67
4, 969184, Note_off_c, 2, 79, 67
4, 969216, Note_off_c, 2, 74, 67
4, 969216, Note_off_c, 2, 79, 67
4, 969216, Note_on_c, 2, 70, 67
4, 969216, Note_on_c, 2, 77, 67
4, 969280, Note_off_c, 2, 70, 67
4, 969280, Note_off_c, 2, 77, 67
4, 969344, Note_off_c, 2, 70, 67
4, 969344, Note_off_c, 2, 77, 67
4, 969344, Note_on_c, 2, 65, 67
4, 969344, Note_on_c, 2, 70, 67
4, 969408, Note_off_c, 2, 65, 67
4, 969408, Note_off_c, 2, 70, 67
4, 969472, Note_off_c, 2, 65, 67
4, 969472, Note_off_c, 2, 70, 67
4, 969472, Note_on_c, 2, 68, 67
4, 969472, Note_on_c, 2, 70, 67
4, 969536, Note_off_c, 2, 68, 67
4, 969536, Note_off_c, 2, 70, 67
4, 969600, Note_off_c, 2, 68, 67
4, 969600, Note_off_c, 2, 70, 67
4, 969600, Note_on_c, 2, 70, 67
4, 969600, Note_on_c, 2, 79, 67
4, 969664, Note_off_c, 2, 70, 67
4, 969664, Note_off_c, 2, 79, 67
4, 969664, Note_on_c, 2, 77, 67
4, 969664, Note_on_c, 2, 80, 67
4, 969728, Note_off_c, 2, 77, 67
4, 969728, Note_off_c, 2, 80, 67
4, 969728, Note_on_c, 2, 79, 67
4, 969728, Note_on_c, 2, 82, 67
4, 969792, Note_off_c, 2, 79, 67
4, 969792, Note_off_c, 2, 82, 67
4, 969856, Note_off_c, 2, 79, 67
4, 969856, Note_off_c, 2, 82, 67
4, 969856, Note_on_c, 2, 79, 67
4, 969856, Note_on_c, 2, 82, 67
4, 969920, Note_off_c, 2, 79, 67
4, 969920, Note_off_c, 2, 82, 67
4, 969984, Note_off_c, 2, 79, 67
4, 969984, Note_off_c, 2, 82, 67
4, 969984, Note_on_c, 2, 70, 67
4, 969984, Note_on_c, 2, 79, 67
4, 970048, Note_off_c, 2, 70, 67
4, 970048, Note_off_c, 2, 79, 67
4, 970112, Note_off_c, 2, 70, 67
4, 970112, Note_off_c, 2, 79, 67
4, 970112, Note_on_c, 2, 75, 67
4, 970112, Note_on_c, 2, 82, 67
4, 970176, Note_off_c, 2, 75, 67
4, 970176, Note_off_c, 2, 82, 67
4, 970240, Note_off_c, 2, 75, 67
4, 970240, Note_off_c, 2, 82, 67
4, 970240, Note_on_c, 2, 84, 67
4, 970240, Note_on_c, 2, 87, 67
4, 970304, Note_off_c, 2, 84, 67
4, 970304, Note_off_c, 2, 87, 67
4, 970368, Note_off_c, 2, 84, 67
4, 970368, Note_off_c, 2, 87, 67
4, 970368, Note_on_c, 2, 82, 67
4, 970368, Note_on_c, 2, 86, 67
4, 970432, Note_off_c, 2, 82, 67
4, 970432, Note_off_c, 2, 86, 67
4, 970496, Note_off_c, 2, 82, 67
4, 970496, Note_off_c, 2, 86, 67
4, 970496, Note_on_c, 2, 80, 67
4, 970496, Note_on_c, 2, 84, 67
4, 970560, Note_off_c, 2, 80, 67
4, 970560, Note_off_c, 2, 84, 67
4, 970624, Note_off_c, 2, 80, 67
4, 970624, Note_off_c, 2, 84, 67
4, 970624, Note_on_c, 2, 70, 67
4, 970624, Note_on_c, 2, 74, 67
4, 970656, Note_off_c, 2, 70, 67
4, 970656, Note_off_c, 2, 74, 67
4, 970688, Note_off_c, 2, 70, 67
4, 970688, Note_off_c, 2, 74, 67
4, 970688, Note_on_c, 2, 77, 67
4, 970688, Note_on_c, 2, 80, 67
4, 970720, Note_off_c, 2, 77, 67
4, 970720, Note_off_c, 2, 80, 67
4, 970752, Note_off_c, 2, 77, 67
4, 970752, Note_off_c, 2, 80, 67
4, 970752, Note_on_c, 2, 77, 67
4, 970752, Note_on_c, 2, 82, 67
4, 970816, Note_off_c, 2, 77, 67
4, 970816, Note_off_c, 2, 82, 67
4, 970880, Note_off_c, 2, 77, 67
4, 970880, Note_off_c, 2, 82, 67
4, 970880, Note_on_c, 2, 80, 67
4, 970880, Note_on_c, 2, 87, 67
4, 970944, Note_off_c, 2, 80, 67
4, 970944, Note_off_c, 2, 87, 67
4, 971008, Note_off_c, 2, 80, 67
4, 971008, Note_off_c, 2, 87, 67
4, 971008, Note_on_c, 2, 82, 67
4, 971008, Note_on_c, 2, 86, 67
4, 971072, Note_off_c, 2, 82, 67
4, 971072, Note_off_c, 2, 86, 67
4, 971136, Note_off_c, 2, 82, 67
4, 971136, Note_off_c, 2, 86, 67
4, 971136, Note_on_c, 2, 80, 67
4, 971136, Note_on_c, 2, 89, 67
4, 971200, Note_off_c, 2, 80, 67
4, 971200, Note_off_c, 2, 89, 67
4, 971264, Note_off_c, 2, 80, 67
4, 971264, Note_off_c, 2, 89, 67
4, 971264, Note_on_c, 2, 79, 67
4, 971264, Note_on_c, 2, 87, 67
4, 971328, Note_off_c, 2, 79, 67
4, 971328, Note_off_c, 2, 87, 67
4, 971392, Note_off_c, 2, 79, 67
4, 971392, Note_off_c, 2, 87, 67
4, 971392, Note_on_c, 2, 70, 67
4, 971392, Note_on_c, 2, 82, 67
4, 971456, Note_off_c, 2, 70, 67
4, 971456, Note_off_c, 2, 82, 67
4, 971520, Note_off_c, 2, 70, 67
4, 971520, Note_off_c, 2, 82, 67
4, 971520, Note_on_c, 2, 70, 67
4, 971520, Note_on_c, 2, 82, 67
4, 971584, Note_off_c, 2, 70, 67
4, 971584, Note_off_c, 2, 82, 67
4, 971648, Note_off_c, 2, 70, 67
4, 971648, Note_off_c, 2, 82, 67
4, 971648, Note_on_c, 2, 75, 67
4, 971712, Note_off_c, 2, 75, 67
4, 971712, Note_on_c, 2, 77, 67
4, 971776, Note_off_c, 2, 77, 67
4, 971776, Note_on_c, 2, 79, 67
4, 971840, Note_off_c, 2, 79, 67
4, 971904, Note_off_c, 2, 79, 67
4, 971904, Note_on_c, 2, 75, 67
4, 971904, Note_on_c, 2, 79, 67
4, 971968, Note_off_c, 2, 75, 67
4, 971968, Note_off_c, 2, 79, 67
4, 972032, Note_off_c, 2, 75, 67
4, 972032, Note_off_c, 2, 79, 67
4, 972032, Note_on_c, 2, 75, 67
4, 972032, Note_on_c, 2, 79, 67
4, 972096, Note_off_c, 2, 75, 67
4, 972096, Note_off_c, 2, 79, 67
4, 972160, Note_off_c, 2, 75, 67
4, 972160, Note_off_c, 2, 79, 67
4, 972160, Note_on_c, 2, 75, 67
4, 972224, Note_off_c, 2, 75, 67
4, 972224, Note_on_c, 2, 77, 67
4, 972288, Note_off_c, 2, 77, 67
4, 972288, Note_on_c, 2, 79, 67
4, 972352, Note_off_c, 2, 79, 67
4, 972416, Note_off_c, 2, 79, 67
4, 972416, Note_on_c, 2, 75, 67
4, 972416, Note_on_c, 2, 79, 67
4, 972480, Note_off_c, 2, 75, 67
4, 972480, Note_off_c, 2, 79, 67
4, 972544, Note_off_c, 2, 75, 67
4, 972544, Note_off_c, 2, 79, 67
4, 972544, Note_on_c, 2, 75, 67
4, 972544, Note_on_c, 2, 79, 67
4, 972608, Note_off_c, 2, 75, 67
4, 972608, Note_off_c, 2, 79, 67
4, 972672, Note_off_c, 2, 75, 67
4, 972672, Note_off_c, 2, 79, 67
4, 972672, Note_on_c, 2, 75, 67
4, 972736, Note_off_c, 2, 75, 67
4, 972736, Note_on_c, 2, 77, 67
4, 972800, Note_off_c, 2, 77, 67
4, 972800, Note_on_c, 2, 79, 67
4, 972864, Note_off_c, 2, 79, 67
4, 972928, Note_off_c, 2, 79, 67
4, 972928, Note_on_c, 2, 75, 67
4, 972928, Note_on_c, 2, 79, 67
4, 972992, Note_off_c, 2, 75, 67
4, 972992, Note_off_c, 2, 79, 67
4, 973056, Note_off_c, 2, 75, 67
4, 973056, Note_off_c, 2, 79, 67
4, 973056, Note_on_c, 2, 75, 67
4, 973056, Note_on_c, 2, 80, 67
4, 973088, Note_off_c, 2, 75, 67
4, 973088, Note_off_c, 2, 80, 67
4, 973120, Note_off_c, 2, 75, 67
4, 973120, Note_off_c, 2, 80, 67
4, 973120, Note_on_c, 2, 74, 67
4, 973152, Note_off_c, 2, 74, 67
4, 973184, Note_off_c, 2, 74, 67
4, 973184, Note_on_c, 2, 72, 67
4, 973216, Note_off_c, 2, 72, 67
4, 973248, Note_off_c, 2, 72, 67
4, 973248, Note_on_c, 2, 74, 67
4, 973248, Note_on_c, 2, 79, 67
4, 973280, Note_off_c, 2, 74, 67
4, 973280, Note_off_c, 2, 79, 67
4, 973312, Note_off_c, 2, 74, 67
4, 973312, Note_off_c, 2, 79, 67
4, 973312, Note_on_c, 2, 70, 67
4, 973312, Note_on_c, 2, 77, 67
4, 973376, Note_off_c, 2, 70, 67
4, 973376, Note_off_c, 2, 77, 67
4, 973440, Note_off_c, 2, 70, 67
4, 973440, Note_off_c, 2, 77, 67
4, 973440, Note_on_c, 2, 68, 67
4, 973440, Note_on_c, 2, 70, 67
4, 973504, Note_off_c, 2, 68, 67
4, 973504, Note_off_c, 2, 70, 67
4, 973568, Note_off_c, 2, 68, 67
4, 973568, Note_off_c, 2, 70, 67
4, 973568, Note_on_c, 2, 68, 67
4, 973568, Note_on_c, 2, 70, 67
4, 973632, Note_off_c, 2, 68, 67
4, 973632, Note_off_c, 2, 70, 67
4, 973696, Note_off_c, 2, 68, 67
4, 973696, Note_off_c, 2, 70, 67
4, 973696, Note_on_c, 2, 74, 67
4, 973760, Note_off_c, 2, 74, 67
4, 973760, Note_on_c, 2, 75, 67
4, 973824, Note_off_c, 2, 75, 67
4, 973824, Note_on_c, 2, 77, 67
4, 973888, Note_off_c, 2, 77, 67
4, 973952, Note_off_c, 2, 77, 67
4, 973952, Note_on_c, 2, 74, 67
4, 973952, Note_on_c, 2, 77, 67
4, 974016, Note_off_c, 2, 74, 67
4, 974016, Note_off_c, 2, 77, 67
4, 974080, Note_off_c, 2, 74, 67
4, 974080, Note_off_c, 2, 77, 67
4, 974080, Note_on_c, 2, 74, 67
4, 974080, Note_on_c, 2, 77, 67
4, 974144, Note_off_c, 2, 74, 67
4, 974144, Note_off_c, 2, 77, 67
4, 974208, Note_off_c, 2, 74, 67
4, 974208, Note_off_c, 2, 77, 67
4, 974208, Note_on_c, 2, 74, 67
4, 974272, Note_off_c, 2, 74, 67
4, 974272, Note_on_c, 2, 75, 67
4, 974336, Note_off_c, 2, 75, 67
4, 974336, Note_on_c, 2, 77, 67
4, 974400, Note_off_c, 2, 77, 67
4, 974464, Note_off_c, 2, 77, 67
4, 974464, Note_on_c, 2, 74, 67
4, 974464, Note_on_c, 2, 77, 67
4, 974528, Note_off_c, 2, 74, 67
4, 974528, Note_off_c, 2, 77, 67
4, 974592, Note_off_c, 2, 74, 67
4, 974592, Note_off_c, 2, 77, 67
4, 974592, Note_on_c, 2, 74, 67
4, 974592, Note_on_c, 2, 77, 67
4, 974656, Note_off_c, 2, 74, 67
4, 974656, Note_off_c, 2, 77, 67
4, 974720, Note_off_c, 2, 74, 67
4, 974720, Note_off_c, 2, 77, 67
4, 974720, Note_on_c, 2, 74, 67
4, 974784, Note_off_c, 2, 74, 67
4, 974784, Note_on_c, 2, 75, 67
4, 974848, Note_off_c, 2, 75, 67
4, 974848, Note_on_c, 2, 70, 67
4, 974848, Note_on_c, 2, 77, 67
4, 974912, Note_off_c, 2, 70, 67
4, 974912, Note_off_c, 2, 77, 67
4, 974976, Note_off_c, 2, 70, 67
4, 974976, Note_off_c, 2, 77, 67
4, 974976, Note_on_c, 2, 74, 67
4, 974976, Note_on_c, 2, 77, 67
4, 975040, Note_off_c, 2, 74, 67
4, 975040, Note_off_c, 2, 77, 67
4, 975104, Note_off_c, 2, 74, 67
4, 975104, Note_off_c, 2, 77, 67
4, 975104, Note_on_c, 2, 74, 67
4, 975104, Note_on_c, 2, 79, 67
4, 975136, Note_off_c, 2, 74, 67
4, 975136, Note_off_c, 2, 79, 67
4, 975168, Note_off_c, 2, 74, 67
4, 975168, Note_off_c, 2, 79, 67
4, 975168, Note_on_c, 2, 72, 67
4, 975168, Note_on_c, 2, 77, 67
4, 975200, Note_off_c, 2, 72, 67
4, 975200, Note_off_c, 2, 77, 67
4, 975232, Note_off_c, 2, 72, 67
4, 975232, Note_off_c, 2, 77, 67
4, 975232, Note_on_c, 2, 70, 67
4, 975232, Note_on_c, 2, 77, 67
4, 975264, Note_off_c, 2, 70, 67
4, 975264, Note_off_c, 2, 77, 67
4, 975296, Note_off_c, 2, 70, 67
4, 975296, Note_off_c, 2, 77, 67
4, 975296, Note_on_c, 2, 68, 67
4, 975296, Note_on_c, 2, 79, 67
4, 975328, Note_off_c, 2, 68, 67
4, 975328, Note_off_c, 2, 79, 67
4, 975360, Note_off_c, 2, 68, 67
4, 975360, Note_off_c, 2, 79, 67
4, 975360, Note_on_c, 2, 67, 67
4, 975360, Note_on_c, 2, 75, 67
4, 975424, Note_off_c, 2, 67, 67
4, 975424, Note_off_c, 2, 75, 67
4, 975488, Note_off_c, 2, 67, 67
4, 975488, Note_off_c, 2, 75, 67
4, 975488, Note_on_c, 2, 70, 67
4, 975552, Note_off_c, 2, 70, 67
4, 975616, Note_off_c, 2, 70, 67
4, 975616, Note_on_c, 2, 70, 67
4, 975616, Note_on_c, 2, 79, 67
4, 975680, Note_off_c, 2, 70, 67
4, 975680, Note_off_c, 2, 79, 67
4, 975744, Note_off_c, 2, 70, 67
4, 975744, Note_off_c, 2, 79, 67
4, 975744, Note_on_c, 2, 75, 67
4, 975808, Note_off_c, 2, 75, 67
4, 975808, Note_on_c, 2, 77, 67
4, 975872, Note_off_c, 2, 77, 67
4, 975872, Note_on_c, 2, 79, 67
4, 975936, Note_off_c, 2, 79, 67
4, 976000, Note_off_c, 2, 79, 67
4, 976000, Note_on_c, 2, 75, 67
4, 976000, Note_on_c, 2, 79, 67
4, 976064, Note_off_c, 2, 75, 67
4, 976064, Note_off_c, 2, 79, 67
4, 976128, Note_off_c, 2, 75, 67
4, 976128, Note_off_c, 2, 79, 67
4, 976128, Note_on_c, 2, 75, 67
4, 976128, Note_on_c, 2, 79, 67
4, 976192, Note_off_c, 2, 75, 67
4, 976192, Note_off_c, 2, 79, 67
4, 976256, Note_off_c, 2, 75, 67
4, 976256, Note_off_c, 2, 79, 67
4, 976256, Note_on_c, 2, 75, 67
4, 976320, Note_off_c, 2, 75, 67
4, 976320, Note_on_c, 2, 77, 67
4, 976384, Note_off_c, 2, 77, 67
4, 976384, Note_on_c, 2, 79, 67
4, 976448, Note_off_c, 2, 79, 67
4, 976512, Note_off_c, 2, 79, 67
4, 976512, Note_on_c, 2, 75, 67
4, 976512, Note_on_c, 2, 79, 67
4, 976576, Note_off_c, 2, 75, 67
4, 976576, Note_off_c, 2, 79, 67
4, 976640, Note_off_c, 2, 75, 67
4, 976640, Note_off_c, 2, 79, 67
4, 976640, Note_on_c, 2, 75, 67
4, 976640, Note_on_c, 2, 79, 67
4, 976704, Note_off_c, 2, 75, 67
4, 976704, Note_off_c, 2, 79, 67
4, 976768, Note_off_c, 2, 75, 67
4, 976768, Note_off_c, 2, 79, 67
4, 976768, Note_on_c, 2, 75, 67
4, 976832, Note_off_c, 2, 75, 67
4, 976832, Note_on_c, 2, 77, 67
4, 976896, Note_off_c, 2, 77, 67
4, 976896, Note_on_c, 2, 79, 67
4, 976960, Note_off_c, 2, 79, 67
4, 977024, Note_off_c, 2, 79, 67
4, 977024, Note_on_c, 2, 75, 67
4, 977024, Note_on_c, 2, 79, 67
4, 977088, Note_off_c, 2, 75, 67
4, 977088, Note_off_c, 2, 79, 67
4, 977152, Note_off_c, 2, 75, 67
4, 977152, Note_off_c, 2, 79, 67
4, 977152, Note_on_c, 2, 75, 67
4, 977152, Note_on_c, 2, 80, 67
4, 977184, Note_off_c, 2, 75, 67
4, 977184, Note_off_c, 2, 80, 67
4, 977216, Note_off_c, 2, 75, 67
4, 977216, Note_off_c, 2, 80, 67
4, 977216, Note_on_c, 2, 74, 67
4, 977280, Note_off_c, 2, 74, 67
4, 977280, Note_on_c, 2, 72, 67
4, 977344, Note_off_c, 2, 72, 67
4, 977344, Note_on_c, 2, 74, 67
4, 977344, Note_on_c, 2, 79, 67
4, 977376, Note_off_c, 2, 74, 67
4, 977376, Note_off_c, 2, 79, 67
4, 977408, Note_off_c, 2, 74, 67
4, 977408, Note_off_c, 2, 79, 67
4, 977408, Note_on_c, 2, 70, 67
4, 977408, Note_on_c, 2, 77, 67
4, 977472, Note_off_c, 2, 70, 67
4, 977472, Note_off_c, 2, 77, 67
4, 977536, Note_off_c, 2, 70, 67
4, 977536, Note_off_c, 2, 77, 67
4, 977536, Note_on_c, 2, 68, 67
4, 977536, Note_on_c, 2, 70, 67
4, 977600, Note_off_c, 2, 68, 67
4, 977600, Note_off_c, 2, 70, 67
4, 977664, Note_off_c, 2, 68, 67
4, 977664, Note_off_c, 2, 70, 67
4, 977664, Note_on_c, 2, 68, 67
4, 977664, Note_on_c, 2, 70, 67
4, 977728, Note_off_c, 2, 68, 67
4, 977728, Note_off_c, 2, 70, 67
4, 977792, Note_off_c, 2, 68, 67
4, 977792, Note_off_c, 2, 70, 67
4, 977792, Note_on_c, 2, 74, 67
4, 977856, Note_off_c, 2, 74, 67
4, 977856, Note_on_c, 2, 75, 67
4, 977920, Note_off_c, 2, 75, 67
4, 977920, Note_on_c, 2, 77, 67
4, 978048, Note_off_c, 2, 77, 67
4, 978048, Note_on_c, 2, 74, 67
4, 978048, Note_on_c, 2, 80, 67
4, 978112, Note_off_c, 2, 74, 67
4, 978112, Note_off_c, 2, 80, 67
4, 978176, Note_off_c, 2, 74, 67
4, 978176, Note_off_c, 2, 80, 67
4, 978176, Note_on_c, 2, 74, 67
4, 978176, Note_on_c, 2, 79, 67
4, 978240, Note_off_c, 2, 74, 67
4, 978240, Note_off_c, 2, 79, 67
4, 978304, Note_off_c, 2, 74, 67
4, 978304, Note_off_c, 2, 79, 67
4, 978304, Note_on_c, 2, 77, 67
4, 978368, Note_off_c, 2, 77, 67
4, 978432, Note_off_c, 2, 77, 67
4, 978432, Note_on_c, 2, 75, 67
4, 978496, Note_off_c, 2, 75, 67
4, 978560, Note_off_c, 2, 75, 67
4, 978560, Note_on_c, 2, 70, 67
4, 978560, Note_on_c, 2, 74, 67
4, 978624, Note_off_c, 2, 70, 67
4, 978624, Note_off_c, 2, 74, 67
4, 978688, Note_off_c, 2, 70, 67
4, 978688, Note_off_c, 2, 74, 67
4, 978688, Note_on_c, 2, 72, 67
4, 978688, Note_on_c, 2, 74, 67
4, 978752, Note_off_c, 2, 72, 67
4, 978752, Note_off_c, 2, 74, 67
4, 978816, Note_off_c, 2, 72, 67
4, 978816, Note_off_c, 2, 74, 67
4, 978816, Note_on_c, 2, 70, 67
4, 978816, Note_on_c, 2, 74, 67
4, 978880, Note_off_c, 2, 70, 67
4, 978880, Note_off_c, 2, 74, 67
4, 978944, Note_off_c, 2, 70, 67
4, 978944, Note_off_c, 2, 74, 67
4, 978944, Note_on_c, 2, 80, 67
4, 978944, Note_on_c, 2, 84, 67
4, 979200, Note_off_c, 2, 80, 67
4, 979200, Note_off_c, 2, 84, 67
4, 979200, Note_on_c, 2, 70, 67
4, 979200, Note_on_c, 2, 74, 67
4, 979216, Note_off_c, 2, 70, 67
4, 979216, Note_off_c, 2, 74, 67
4, 979232, Note_off_c, 2, 70, 67
4, 979232, Note_off_c, 2, 74, 67
4, 979232, Note_on_c, 2, 72, 67
4, 979232, Note_on_c, 2, 75, 67
4, 979248, Note_off_c, 2, 72, 67
4, 979248, Note_off_c, 2, 75, 67
4, 979264, Note_off_c, 2, 72, 67
4, 979264, Note_off_c, 2, 75, 67
4, 979264, Note_on_c, 2, 70, 67
4, 979264, Note_on_c, 2, 74, 67
4, 979296, Note_off_c, 2, 70, 67
4, 979296, Note_off_c, 2, 74, 67
4, 979328, Note_off_c, 2, 70, 67
4, 979328, Note_off_c, 2, 74, 67
4, 979328, Note_on_c, 2, 68, 67
4, 979328, Note_on_c, 2, 72, 67
4, 979360, Note_off_c, 2, 68, 67
4, 979360, Note_off_c, 2, 72, 67
4, 979392, Note_off_c, 2, 68, 67
4, 979392, Note_off_c, 2, 72, 67
4, 979392, Note_on_c, 2, 74, 67
4, 979392, Note_on_c, 2, 77, 67
4, 979424, Note_off_c, 2, 74, 67
4, 979424, Note_off_c, 2, 77, 67
4, 979456, Note_off_c, 2, 74, 67
4, 979456, Note_off_c, 2, 77, 67
4, 979456, Note_on_c, 2, 75, 67
4, 979456, Note_on_c, 2, 79, 67
4, 979584, Note_off_c, 2, 75, 67
4, 979584, Note_off_c, 2, 79, 67
4, 979584, Note_on_c, 2, 70, 67
4, 979648, Note_off_c, 2, 70, 67
4, 979712, Note_off_c, 2, 70, 67
4, 979712, Note_on_c, 2, 70, 67
4, 979776, Note_off_c, 2, 70, 67
4, 979840, Note_off_c, 2, 70, 67
4, 979840, Note_on_c, 2, 75, 67
4, 979840, Note_on_c, 2, 79, 67
4, 979904, Note_off_c, 2, 75, 67
4, 979904, Note_off_c, 2, 79, 67
4, 979904, Note_on_c, 2, 77, 67
4, 979904, Note_on_c, 2, 80, 67
4, 979968, Note_off_c, 2, 77, 67
4, 979968, Note_off_c, 2, 80, 67
4, 979968, Note_on_c, 2, 79, 67
4, 979968, Note_on_c, 2, 82, 67
4, 980032, Note_off_c, 2, 79, 67
4, 980032, Note_off_c, 2, 82, 67
4, 980096, Note_off_c, 2, 79, 67
4, 980096, Note_off_c, 2, 82, 67
4, 980096, Note_on_c, 2, 79, 67
4, 980096, Note_on_c, 2, 82, 67
4, 980160, Note_off_c, 2, 79, 67
4, 980160, Note_off_c, 2, 82, 67
4, 980224, Note_off_c, 2, 79, 67
4, 980224, Note_off_c, 2, 82, 67
4, 980224, Note_on_c, 2, 70, 67
4, 980224, Note_on_c, 2, 79, 67
4, 980288, Note_off_c, 2, 70, 67
4, 980288, Note_off_c, 2, 79, 67
4, 980352, Note_off_c, 2, 70, 67
4, 980352, Note_off_c, 2, 79, 67
4, 980352, Note_on_c, 2, 70, 67
4, 980352, Note_on_c, 2, 75, 67
4, 980416, Note_off_c, 2, 70, 67
4, 980416, Note_off_c, 2, 75, 67
4, 980480, Note_off_c, 2, 70, 67
4, 980480, Note_off_c, 2, 75, 67
4, 980480, Note_on_c, 2, 84, 67
4, 980480, Note_on_c, 2, 87, 67
4, 980544, Note_off_c, 2, 84, 67
4, 980544, Note_off_c, 2, 87, 67
4, 980608, Note_off_c, 2, 84, 67
4, 980608, Note_off_c, 2, 87, 67
4, 980608, Note_on_c, 2, 82, 67
4, 980608, Note_on_c, 2, 86, 67
4, 980672, Note_off_c, 2, 82, 67
4, 980672, Note_off_c, 2, 86, 67
4, 980736, Note_off_c, 2, 82, 67
4, 980736, Note_off_c, 2, 86, 67
4, 980736, Note_on_c, 2, 80, 67
4, 980736, Note_on_c, 2, 84, 67
4, 980800, Note_off_c, 2, 80, 67
4, 980800, Note_off_c, 2, 84, 67
4, 980864, Note_off_c, 2, 80, 67
4, 980864, Note_off_c, 2, 84, 67
4, 980864, Note_on_c, 2, 79, 67
4, 980864, Note_on_c, 2, 87, 67
4, 980928, Note_off_c, 2, 79, 67
4, 980928, Note_off_c, 2, 87, 67
4, 980992, Note_off_c, 2, 79, 67
4, 980992, Note_off_c, 2, 87, 67
4, 980992, Note_on_c, 2, 75, 67
4, 980992, Note_on_c, 2, 82, 67
4, 981056, Note_off_c, 2, 75, 67
4, 981056, Note_off_c, 2, 82, 67
4, 981120, Note_off_c, 2, 75, 67
4, 981120, Note_off_c, 2, 82, 67
4, 981120, Note_on_c, 2, 79, 67
4, 981184, Note_off_c, 2, 79, 67
4, 981248, Note_off_c, 2, 79, 67
4, 981248, Note_on_c, 2, 67, 67
4, 981248, Note_on_c, 2, 75, 67
4, 981312, Note_off_c, 2, 67, 67
4, 981312, Note_off_c, 2, 75, 67
4, 981376, Note_off_c, 2, 67, 67
4, 981376, Note_off_c, 2, 75, 67
4, 981376, Note_on_c, 2, 68, 67
4, 981376, Note_on_c, 2, 74, 67
4, 981408, Note_off_c, 2, 68, 67
4, 981408, Note_off_c, 2, 74, 67
4, 981440, Note_off_c, 2, 68, 67
4, 981440, Note_off_c, 2, 74, 67
4, 981440, Note_on_c, 2, 74, 67
4, 981440, Note_on_c, 2, 79, 67
4, 981472, Note_off_c, 2, 74, 67
4, 981472, Note_off_c, 2, 79, 67
4, 981504, Note_off_c, 2, 74, 67
4, 981504, Note_off_c, 2, 79, 67
4, 981504, Note_on_c, 2, 70, 67
4, 981504, Note_on_c, 2, 77, 67
4, 981568, Note_off_c, 2, 70, 67
4, 981568, Note_off_c, 2, 77, 67
4, 981632, Note_off_c, 2, 70, 67
4, 981632, Note_off_c, 2, 77, 67
4, 981632, Note_on_c, 2, 65, 67
4, 981632, Note_on_c, 2, 70, 67
4, 981696, Note_off_c, 2, 65, 67
4, 981696, Note_off_c, 2, 70, 67
4, 981760, Note_off_c, 2, 65, 67
4, 981760, Note_off_c, 2, 70, 67
4, 981760, Note_on_c, 2, 68, 67
4, 981760, Note_on_c, 2, 70, 67
4, 981824, Note_off_c, 2, 68, 67
4, 981824, Note_off_c, 2, 70, 67
4, 981888, Note_off_c, 2, 68, 67
4, 981888, Note_off_c, 2, 70, 67
4, 981888, Note_on_c, 2, 70, 67
4, 981888, Note_on_c, 2, 79, 67
4, 981952, Note_off_c, 2, 70, 67
4, 981952, Note_off_c, 2, 79, 67
4, 981952, Note_on_c, 2, 77, 67
4, 981952, Note_on_c, 2, 80, 67
4, 982016, Note_off_c, 2, 77, 67
4, 982016, Note_off_c, 2, 80, 67
4, 982016, Note_on_c, 2, 79, 67
4, 982016, Note_on_c, 2, 82, 67
4, 982080, Note_off_c, 2, 79, 67
4, 982080, Note_off_c, 2, 82, 67
4, 982144, Note_off_c, 2, 79, 67
4, 982144, Note_off_c, 2, 82, 67
4, 982144, Note_on_c, 2, 79, 67
4, 982144, Note_on_c, 2, 82, 67
4, 982208, Note_off_c, 2, 79, 67
4, 982208, Note_off_c, 2, 82, 67
4, 982272, Note_off_c, 2, 79, 67
4, 982272, Note_off_c, 2, 82, 67
4, 982272, Note_on_c, 2, 70, 67
4, 982272, Note_on_c, 2, 79, 67
4, 982336, Note_off_c, 2, 70, 67
4, 982336, Note_off_c, 2, 79, 67
4, 982400, Note_off_c, 2, 70, 67
4, 982400, Note_off_c, 2, 79, 67
4, 982400, Note_on_c, 2, 75, 67
4, 982400, Note_on_c, 2, 82, 67
4, 982464, Note_off_c, 2, 75, 67
4, 982464, Note_off_c, 2, 82, 67
4, 982528, Note_off_c, 2, 75, 67
4, 982528, Note_off_c, 2, 82, 67
4, 982528, Note_on_c, 2, 84, 67
4, 982528, Note_on_c, 2, 87, 67
4, 982592, Note_off_c, 2, 84, 67
4, 982592, Note_off_c, 2, 87, 67
4, 982656, Note_off_c, 2, 84, 67
4, 982656, Note_off_c, 2, 87, 67
4, 982656, Note_on_c, 2, 82, 67
4, 982656, Note_on_c, 2, 86, 67
4, 982720, Note_off_c, 2, 82, 67
4, 982720, Note_off_c, 2, 86, 67
4, 982784, Note_off_c, 2, 82, 67
4, 982784, Note_off_c, 2, 86, 67
4, 982784, Note_on_c, 2, 80, 67
4, 982784, Note_on_c, 2, 84, 67
4, 982848, Note_off_c, 2, 80, 67
4, 982848, Note_off_c, 2, 84, 67
4, 982912, Note_off_c, 2, 80, 67
4, 982912, Note_off_c, 2, 84, 67
4, 982912, Note_on_c, 2, 70, 67
4, 982912, Note_on_c, 2, 74, 67
4, 982944, Note_off_c, 2, 70, 67
4, 982944, Note_off_c, 2, 74, 67
4, 982976, Note_off_c, 2, 70, 67
4, 982976, Note_off_c, 2, 74, 67
4, 982976, Note_on_c, 2, 77, 67
4, 982976, Note_on_c, 2, 80, 67
4, 983008, Note_off_c, 2, 77, 67
4, 983008, Note_off_c, 2, 80, 67
4, 983040, Note_off_c, 2, 77, 67
4, 983040, Note_off_c, 2, 80, 67
4, 983040, Note_on_c, 2, 77, 67
4, 983040, Note_on_c, 2, 82, 67
4, 983104, Note_off_c, 2, 77, 67
4, 983104, Note_off_c, 2, 82, 67
4, 983168, Note_off_c, 2, 77, 67
4, 983168, Note_off_c, 2, 82, 67
4, 983168, Note_on_c, 2, 80, 67
4, 983168, Note_on_c, 2, 87, 67
4, 983232, Note_off_c, 2, 80, 67
4, 983232, Note_off_c, 2, 87, 67
4, 983296, Note_off_c, 2, 80, 67
4, 983296, Note_off_c, 2, 87, 67
4, 983296, Note_on_c, 2, 82, 67
4, 983296, Note_on_c, 2, 86, 67
4, 983360, Note_off_c, 2, 82, 67
4, 983360, Note_off_c, 2, 86, 67
4, 983424, Note_off_c, 2, 82, 67
4, 983424, Note_off_c, 2, 86, 67
4, 983424, Note_on_c, 2, 80, 67
4, 983424, Note_on_c, 2, 89, 67
4, 983488, Note_off_c, 2, 80, 67
4, 983488, Note_off_c, 2, 89, 67
4, 983552, Note_off_c, 2, 80, 67
4, 983552, Note_off_c, 2, 89, 67
4, 983552, Note_on_c, 2, 79, 67
4, 983552, Note_on_c, 2, 87, 67
4, 983616, Note_off_c, 2, 79, 67
4, 983616, Note_off_c, 2, 87, 67
4, 983680, Note_off_c, 2, 79, 67
4, 983680, Note_off_c, 2, 87, 67
4, 983680, Note_on_c, 2, 70, 67
4, 983680, Note_on_c, 2, 82, 67
4, 983744, Note_off_c, 2, 70, 67
4, 983744, Note_off_c, 2, 82, 67
4, 983808, Note_off_c, 2, 70, 67
4, 983808, Note_off_c, 2, 82, 67
4, 983808, Note_on_c, 2, 70, 67
4, 983808, Note_on_c, 2, 82, 67
4, 983872, Note_off_c, 2, 70, 67
4, 983872, Note_off_c, 2, 82, 67
4, 983936, Note_off_c, 2, 70, 67
4, 983936, Note_off_c, 2, 82, 67
4, 983936, Note_on_c, 2, 75, 67
4, 984000, Note_off_c, 2, 75, 67
4, 984000, Note_on_c, 2, 77, 67
4, 984064, Note_off_c, 2, 77, 67
4, 984064, Note_on_c, 2, 79, 67
4, 984128, Note_off_c, 2, 79, 67
4, 984192, Note_off_c, 2, 79, 67
4, 984192, Note_on_c, 2, 75, 67
4, 984192, Note_on_c, 2, 79, 67
4, 984256, Note_off_c, 2, 75, 67
4, 984256, Note_off_c, 2, 79, 67
4, 984320, Note_off_c, 2, 75, 67
4, 984320, Note_off_c, 2, 79, 67
4, 984320, Note_on_c, 2, 75, 67
4, 984320, Note_on_c, 2, 79, 67
4, 984384, Note_off_c, 2, 75, 67
4, 984384, Note_off_c, 2, 79, 67
4, 984448, Note_off_c, 2, 75, 67
4, 984448, Note_off_c, 2, 79, 67
4, 984448, Note_on_c, 2, 75, 67
4, 984512, Note_off_c, 2, 75, 67
4, 984512, Note_on_c, 2, 77, 67
4, 984576, Note_off_c, 2, 77, 67
4, 984576, Note_on_c, 2, 79, 67
4, 984640, Note_off_c, 2, 79, 67
4, 984704, Note_off_c, 2, 79, 67
4, 984704, Note_on_c, 2, 75, 67
4, 984704, Note_on_c, 2, 79, 67
4, 984768, Note_off_c, 2, 75, 67
4, 984768, Note_off_c, 2, 79, 67
4, 984832, Note_off_c, 2, 75, 67
4, 984832, Note_off_c, 2, 79, 67
4, 984832, Note_on_c, 2, 75, 67
4, 984832, Note_on_c, 2, 79, 67
4, 984896, Note_off_c, 2, 75, 67
4, 984896, Note_off_c, 2, 79, 67
4, 984960, Note_off_c, 2, 75, 67
4, 984960, Note_off_c, 2, 79, 67
4, 984960, Note_on_c, 2, 75, 67
4, 985024, Note_off_c, 2, 75, 67
4, 985024, Note_on_c, 2, 77, 67
4, 985088, Note_off_c, 2, 77, 67
4, 985088, Note_on_c, 2, 79, 67
4, 985152, Note_off_c, 2, 79, 67
4, 985216, Note_off_c, 2, 79, 67
4, 985216, Note_on_c, 2, 75, 67
4, 985216, Note_on_c, 2, 79, 67
4, 985280, Note_off_c, 2, 75, 67
4, 985280, Note_off_c, 2, 79, 67
4, 985344, Note_off_c, 2, 75, 67
4, 985344, Note_off_c, 2, 79, 67
4, 985344, Note_on_c, 2, 75, 67
4, 985344, Note_on_c, 2, 80, 67
4, 985376, Note_off_c, 2, 75, 67
4, 985376, Note_off_c, 2, 80, 67
4, 985408, Note_off_c, 2, 75, 67
4, 985408, Note_off_c, 2, 80, 67
4, 985408, Note_on_c, 2, 74, 67
4, 985440, Note_off_c, 2, 74, 67
4, 985472, Note_off_c, 2, 74, 67
4, 985472, Note_on_c, 2, 72, 67
4, 985504, Note_off_c, 2, 72, 67
4, 985536, Note_off_c, 2, 72, 67
4, 985536, Note_on_c, 2, 74, 67
4, 985536, Note_on_c, 2, 79, 67
4, 985568, Note_off_c, 2, 74, 67
4, 985568, Note_off_c, 2, 79, 67
4, 985600, Note_off_c, 2, 74, 67
4, 985600, Note_off_c, 2, 79, 67
4, 985600, Note_on_c, 2, 70, 67
4, 985600, Note_on_c, 2, 77, 67
4, 985664, Note_off_c, 2, 70, 67
4, 985664, Note_off_c, 2, 77, 67
4, 985728, Note_off_c, 2, 70, 67
4, 985728, Note_off_c, 2, 77, 67
4, 985728, Note_on_c, 2, 68, 67
4, 985728, Note_on_c, 2, 70, 67
4, 985792, Note_off_c, 2, 68, 67
4, 985792, Note_off_c, 2, 70, 67
4, 985856, Note_off_c, 2, 68, 67
4, 985856, Note_off_c, 2, 70, 67
4, 985856, Note_on_c, 2, 68, 67
4, 985856, Note_on_c, 2, 70, 67
4, 985920, Note_off_c, 2, 68, 67
4, 985920, Note_off_c, 2, 70, 67
4, 985984, Note_off_c, 2, 68, 67
4, 985984, Note_off_c, 2, 70, 67
4, 985984, Note_on_c, 2, 74, 67
4, 986048, Note_off_c, 2, 74, 67
4, 986048, Note_on_c, 2, 75, 67
4, 986112, Note_off_c, 2, 75, 67
4, 986112, Note_on_c, 2, 77, 67
4, 986176, Note_off_c, 2, 77, 67
4, 986240, Note_off_c, 2, 77, 67
4, 986240, Note_on_c, 2, 74, 67
4, 986240, Note_on_c, 2, 77, 67
4, 986304, Note_off_c, 2, 74, 67
4, 986304, Note_off_c, 2, 77, 67
4, 986368, Note_off_c, 2, 74, 67
4, 986368, Note_off_c, 2, 77, 67
4, 986368, Note_on_c, 2, 74, 67
4, 986368, Note_on_c, 2, 77, 67
4, 986432, Note_off_c, 2, 74, 67
4, 986432, Note_off_c, 2, 77, 67
4, 986496, Note_off_c, 2, 74, 67
4, 986496, Note_off_c, 2, 77, 67
4, 986496, Note_on_c, 2, 74, 67
4, 986560, Note_off_c, 2, 74, 67
4, 986560, Note_on_c, 2, 75, 67
4, 986624, Note_off_c, 2, 75, 67
4, 986624, Note_on_c, 2, 77, 67
4, 986688, Note_off_c, 2, 77, 67
4, 986752, Note_off_c, 2, 77, 67
4, 986752, Note_on_c, 2, 74, 67
4, 986752, Note_on_c, 2, 77, 67
4, 986816, Note_off_c, 2, 74, 67
4, 986816, Note_off_c, 2, 77, 67
4, 986880, Note_off_c, 2, 74, 67
4, 986880, Note_off_c, 2, 77, 67
4, 986880, Note_on_c, 2, 74, 67
4, 986880, Note_on_c, 2, 77, 67
4, 986944, Note_off_c, 2, 74, 67
4, 986944, Note_off_c, 2, 77, 67
4, 987008, Note_off_c, 2, 74, 67
4, 987008, Note_off_c, 2, 77, 67
4, 987008, Note_on_c, 2, 74, 67
4, 987072, Note_off_c, 2, 74, 67
4, 987072, Note_on_c, 2, 75, 67
4, 987136, Note_off_c, 2, 75, 67
4, 987136, Note_on_c, 2, 70, 67
4, 987136, Note_on_c, 2, 77, 67
4, 987200, Note_off_c, 2, 70, 67
4, 987200, Note_off_c, 2, 77, 67
4, 987264, Note_off_c, 2, 70, 67
4, 987264, Note_off_c, 2, 77, 67
4, 987264, Note_on_c, 2, 74, 67
4, 987264, Note_on_c, 2, 77, 67
4, 987328, Note_off_c, 2, 74, 67
4, 987328, Note_off_c, 2, 77, 67
4, 987392, Note_off_c, 2, 74, 67
4, 987392, Note_off_c, 2, 77, 67
4, 987392, Note_on_c, 2, 74, 67
4, 987392, Note_on_c, 2, 79, 67
4, 987424, Note_off_c, 2, 74, 67
4, 987424, Note_off_c, 2, 79, 67
4, 987456, Note_off_c, 2, 74, 67
4, 987456, Note_off_c, 2, 79, 67
4, 987456, Note_on_c, 2, 72, 67
4, 987456, Note_on_c, 2, 77, 67
4, 987488, Note_off_c, 2, 72, 67
4, 987488, Note_off_c, 2, 77, 67
4, 987520, Note_off_c, 2, 72, 67
4, 987520, Note_off_c, 2, 77, 67
4, 987520, Note_on_c, 2, 70, 67
4, 987520, Note_on_c, 2, 77, 67
4, 987552, Note_off_c, 2, 70, 67
4, 987552, Note_off_c, 2, 77, 67
4, 987584, Note_off_c, 2, 70, 67
4, 987584, Note_off_c, 2, 77, 67
4, 987584, Note_on_c, 2, 68, 67
4, 987584, Note_on_c, 2, 79, 67
4, 987616, Note_off_c, 2, 68, 67
4, 987616, Note_off_c, 2, 79, 67
4, 987648, Note_off_c, 2, 68, 67
4, 987648, Note_off_c, 2, 79, 67
4, 987648, Note_on_c, 2, 67, 67
4, 987648, Note_on_c, 2, 75, 67
4, 987712, Note_off_c, 2, 67, 67
4, 987712, Note_off_c, 2, 75, 67
4, 987776, Note_off_c, 2, 67, 67
4, 987776, Note_off_c, 2, 75, 67
4, 987776, Note_on_c, 2, 70, 67
4, 987840, Note_off_c, 2, 70, 67
4, 987904, Note_off_c, 2, 70, 67
4, 987904, Note_on_c, 2, 70, 67
4, 987904, Note_on_c, 2, 79, 67
4, 987968, Note_off_c, 2, 70, 67
4, 987968, Note_off_c, 2, 79, 67
4, 988032, Note_off_c, 2, 70, 67
4, 988032, Note_off_c, 2, 79, 67
4, 988032, Note_on_c, 2, 75, 67
4, 988096, Note_off_c, 2, 75, 67
4, 988096, Note_on_c, 2, 77, 67
4, 988160, Note_off_c, 2, 77, 67
4, 988160, Note_on_c, 2, 79, 67
4, 988224, Note_off_c, 2, 79, 67
4, 988288, Note_off_c, 2, 79, 67
4, 988288, Note_on_c, 2, 75, 67
4, 988288, Note_on_c, 2, 79, 67
4, 988352, Note_off_c, 2, 75, 67
4, 988352, Note_off_c, 2, 79, 67
4, 988416, Note_off_c, 2, 75, 67
4, 988416, Note_off_c, 2, 79, 67
4, 988416, Note_on_c, 2, 75, 67
4, 988416, Note_on_c, 2, 79, 67
4, 988480, Note_off_c, 2, 75, 67
4, 988480, Note_off_c, 2, 79, 67
4, 988544, Note_off_c, 2, 75, 67
4, 988544, Note_off_c, 2, 79, 67
4, 988544, Note_on_c, 2, 75, 67
4, 988608, Note_off_c, 2, 75, 67
4, 988608, Note_on_c, 2, 77, 67
4, 988672, Note_off_c, 2, 77, 67
4, 988672, Note_on_c, 2, 79, 67
4, 988736, Note_off_c, 2, 79, 67
4, 988800, Note_off_c, 2, 79, 67
4, 988800, Note_on_c, 2, 75, 67
4, 988800, Note_on_c, 2, 79, 67
4, 988864, Note_off_c, 2, 75, 67
4, 988864, Note_off_c, 2, 79, 67
4, 988928, Note_off_c, 2, 75, 67
4, 988928, Note_off_c, 2, 79, 67
4, 988928, Note_on_c, 2, 75, 67
4, 988928, Note_on_c, 2, 79, 67
4, 988992, Note_off_c, 2, 75, 67
4, 988992, Note_off_c, 2, 79, 67
4, 989056, Note_off_c, 2, 75, 67
4, 989056, Note_off_c, 2, 79, 67
4, 989056, Note_on_c, 2, 75, 67
4, 989120, Note_off_c, 2, 75, 67
4, 989120, Note_on_c, 2, 77, 67
4, 989184, Note_off_c, 2, 77, 67
4, 989184, Note_on_c, 2, 79, 67
4, 989248, Note_off_c, 2, 79, 67
4, 989312, Note_off_c, 2, 79, 67
4, 989312, Note_on_c, 2, 75, 67
4, 989312, Note_on_c, 2, 79, 67
4, 989376, Note_off_c, 2, 75, 67
4, 989376, Note_off_c, 2, 79, 67
4, 989440, Note_off_c, 2, 75, 67
4, 989440, Note_off_c, 2, 79, 67
4, 989440, Note_on_c, 2, 75, 67
4, 989440, Note_on_c, 2, 80, 67
4, 989472, Note_off_c, 2, 75, 67
4, 989472, Note_off_c, 2, 80, 67
4, 989504, Note_off_c, 2, 75, 67
4, 989504, Note_off_c, 2, 80, 67
4, 989504, Note_on_c, 2, 74, 67
4, 989568, Note_off_c, 2, 74, 67
4, 989568, Note_on_c, 2, 72, 67
4, 989632, Note_off_c, 2, 72, 67
4, 989632, Note_on_c, 2, 74, 67
4, 989632, Note_on_c, 2, 79, 67
4, 989664, Note_off_c, 2, 74, 67
4, 989664, Note_off_c, 2, 79, 67
4, 989696, Note_off_c, 2, 74, 67
4, 989696, Note_off_c, 2, 79, 67
4, 989696, Note_on_c, 2, 70, 67
4, 989696, Note_on_c, 2, 77, 67
4, 989760, Note_off_c, 2, 70, 67
4, 989760, Note_off_c, 2, 77, 67
4, 989824, Note_off_c, 2, 70, 67
4, 989824, Note_off_c, 2, 77, 67
4, 989824, Note_on_c, 2, 68, 67
4, 989824, Note_on_c, 2, 70, 67
4, 989888, Note_off_c, 2, 68, 67
4, 989888, Note_off_c, 2, 70, 67
4, 989952, Note_off_c, 2, 68, 67
4, 989952, Note_off_c, 2, 70, 67
4, 989952, Note_on_c, 2, 68, 67
4, 989952, Note_on_c, 2, 70, 67
4, 990016, Note_off_c, 2, 68, 67
4, 990016, Note_off_c, 2, 70, 67
4, 990080, Note_off_c, 2, 68, 67
4, 990080, Note_off_c, 2, 70, 67
4, 990080, Note_on_c, 2, 74, 67
4, 990144, Note_off_c, 2, 74, 67
4, 990144, Note_on_c, 2, 75, 67
4, 990208, Note_off_c, 2, 75, 67
4, 990208, Note_on_c, 2, 77, 67
4, 990336, Note_off_c, 2, 77, 67
4, 990336, Note_on_c, 2, 74, 67
4, 990336, Note_on_c, 2, 80, 67
4, 990400, Note_off_c, 2, 74, 67
4, 990400, Note_off_c, 2, 80, 67
4, 990464, Note_off_c, 2, 74, 67
4, 990464, Note_off_c, 2, 80, 67
4, 990464, Note_on_c, 2, 74, 67
4, 990464, Note_on_c, 2, 79, 67
4, 990528, Note_off_c, 2, 74, 67
4, 990528, Note_off_c, 2, 79, 67
4, 990592, Note_off_c, 2, 74, 67
4, 990592, Note_off_c, 2, 79, 67
4, 990592, Note_on_c, 2, 77, 67
4, 990656, Note_off_c, 2, 77, 67
4, 990720, Note_off_c, 2, 77, 67
4, 990720, Note_on_c, 2, 75, 67
4, 990784, Note_off_c, 2, 75, 67
4, 990848, Note_off_c, 2, 75, 67
4, 990848, Note_on_c, 2, 70, 67
4, 990848, Note_on_c, 2, 74, 67
4, 990912, Note_off_c, 2, 70, 67
4, 990912, Note_off_c, 2, 74, 67
4, 990976, Note_off_c, 2, 70, 67
4, 990976, Note_off_c, 2, 74, 67
4, 990976, Note_on_c, 2, 72, 67
4, 990976, Note_on_c, 2, 74, 67
4, 991040, Note_off_c, 2, 72, 67
4, 991040, Note_off_c, 2, 74, 67
4, 991104, Note_off_c, 2, 72, 67
4, 991104, Note_off_c, 2, 74, 67
4, 991104, Note_on_c, 2, 70, 67
4, 991104, Note_on_c, 2, 74, 67
4, 991168, Note_off_c, 2, 70, 67
4, 991168, Note_off_c, 2, 74, 67
4, 991232, Note_off_c, 2, 70, 67
4, 991232, Note_off_c, 2, 74, 67
4, 991232, Note_on_c, 2, 80, 67
4, 991232, Note_on_c, 2, 84, 67
4, 991488, Note_off_c, 2, 80, 67
4, 991488, Note_off_c, 2, 84, 67
4, 991488, Note_on_c, 2, 70, 67
4, 991488, Note_on_c, 2, 74, 67
4, 991504, Note_off_c, 2, 70, 67
4, 991504, Note_off_c, 2, 74, 67
4, 991520, Note_off_c, 2, 70, 67
4, 991520, Note_off_c, 2, 74, 67
4, 991520, Note_on_c, 2, 72, 67
4, 991520, Note_on_c, 2, 75, 67
4, 991536, Note_off_c, 2, 72, 67
4, 991536, Note_off_c, 2, 75, 67
4, 991552, Note_off_c, 2, 72, 67
4, 991552, Note_off_c, 2, 75, 67
4, 991552, Note_on_c, 2, 70, 67
4, 991552, Note_on_c, 2, 74, 67
4, 991584, Note_off_c, 2, 70, 67
4, 991584, Note_off_c, 2, 74, 67
4, 991616, Note_off_c, 2, 70, 67
4, 991616, Note_off_c, 2, 74, 67
4, 991616, Note_on_c, 2, 68, 67
4, 991616, Note_on_c, 2, 72, 67
4, 991648, Note_off_c, 2, 68, 67
4, 991648, Note_off_c, 2, 72, 67
4, 991680, Note_off_c, 2, 68, 67
4, 991680, Note_off_c, 2, 72, 67
4, 991680, Note_on_c, 2, 74, 67
4, 991680, Note_on_c, 2, 77, 67
4, 991712, Note_off_c, 2, 74, 67
4, 991712, Note_off_c, 2, 77, 67
4, 991744, Note_off_c, 2, 74, 67
4, 991744, Note_off_c, 2, 77, 67
4, 991744, Note_on_c, 2, 75, 67
4, 991744, Note_on_c, 2, 79, 67
4, 991872, Note_off_c, 2, 75, 67
4, 991872, Note_off_c, 2, 79, 67
4, 991872, Note_on_c, 2, 70, 67
4, 991936, Note_off_c, 2, 70, 67
4, 992000, Note_off_c, 2, 70, 67
4, 992000, Note_on_c, 2, 70, 67
4, 992064, Note_off_c, 2, 70, 67
4, 992128, Note_off_c, 2, 70, 67
4, 992128, Note_on_c, 2, 75, 67
4, 992128, Note_on_c, 2, 79, 67
4, 992192, Note_off_c, 2, 75, 67
4, 992192, Note_off_c, 2, 79, 67
4, 992192, Note_on_c, 2, 77, 67
4, 992192, Note_on_c, 2, 80, 67
4, 992256, Note_off_c, 2, 77, 67
4, 992256, Note_off_c, 2, 80, 67
4, 992256, Note_on_c, 2, 79, 67
4, 992256, Note_on_c, 2, 82, 67
4, 992320, Note_off_c, 2, 79, 67
4, 992320, Note_off_c, 2, 82, 67
4, 992384, Note_off_c, 2, 79, 67
4, 992384, Note_off_c, 2, 82, 67
4, 992384, Note_on_c, 2, 79, 67
4, 992384, Note_on_c, 2, 82, 67
4, 992448, Note_off_c, 2, 79, 67
4, 992448, Note_off_c, 2, 82, 67
4, 992512, Note_off_c, 2, 79, 67
4, 992512, Note_off_c, 2, 82, 67
4, 992512, Note_on_c, 2, 70, 67
4, 992512, Note_on_c, 2, 79, 67
4, 992576, Note_off_c, 2, 70, 67
4, 992576, Note_off_c, 2, 79, 67
4, 992640, Note_off_c, 2, 70, 67
4, 992640, Note_off_c, 2, 79, 67
4, 992640, Note_on_c, 2, 70, 67
4, 992640, Note_on_c, 2, 75, 67
4, 992704, Note_off_c, 2, 70, 67
4, 992704, Note_off_c, 2, 75, 67
4, 992768, Note_off_c, 2, 70, 67
4, 992768, Note_off_c, 2, 75, 67
4, 992768, Note_on_c, 2, 84, 67
4, 992768, Note_on_c, 2, 87, 67
4, 992832, Note_off_c, 2, 84, 67
4, 992832, Note_off_c, 2, 87, 67
4, 992896, Note_off_c, 2, 84, 67
4, 992896, Note_off_c, 2, 87, 67
4, 992896, Note_on_c, 2, 82, 67
4, 992896, Note_on_c, 2, 86, 67
4, 992960, Note_off_c, 2, 82, 67
4, 992960, Note_off_c, 2, 86, 67
4, 993024, Note_off_c, 2, 82, 67
4, 993024, Note_off_c, 2, 86, 67
4, 993024, Note_on_c, 2, 80, 67
4, 993024, Note_on_c, 2, 84, 67
4, 993088, Note_off_c, 2, 80, 67
4, 993088, Note_off_c, 2, 84, 67
4, 993152, Note_off_c, 2, 80, 67
4, 993152, Note_off_c, 2, 84, 67
4, 993152, Note_on_c, 2, 79, 67
4, 993152, Note_on_c, 2, 87, 67
4, 993216, Note_off_c, 2, 79, 67
4, 993216, Note_off_c, 2, 87, 67
4, 993280, Note_off_c, 2, 79, 67
4, 993280, Note_off_c, 2, 87, 67
4, 993280, Note_on_c, 2, 75, 67
4, 993280, Note_on_c, 2, 82, 67
4, 993344, Note_off_c, 2, 75, 67
4, 993344, Note_off_c, 2, 82, 67
4, 993408, Note_off_c, 2, 75, 67
4, 993408, Note_off_c, 2, 82, 67
4, 993408, Note_on_c, 2, 79, 67
4, 993472, Note_off_c, 2, 79, 67
4, 993536, Note_off_c, 2, 79, 67
4, 993536, Note_on_c, 2, 67, 67
4, 993536, Note_on_c, 2, 75, 67
4, 993600, Note_off_c, 2, 67, 67
4, 993600, Note_off_c, 2, 75, 67
4, 993664, Note_off_c, 2, 67, 67
4, 993664, Note_off_c, 2, 75, 67
4, 993664, Note_on_c, 2, 68, 67
4, 993664, Note_on_c, 2, 74, 67
4, 993696, Note_off_c, 2, 68, 67
4, 993696, Note_off_c, 2, 74, 67
4, 993728, Note_off_c, 2, 68, 67
4, 993728, Note_off_c, 2, 74, 67
4, 993728, Note_on_c, 2, 74, 67
4, 993728, Note_on_c, 2, 79, 67
4, 993760, Note_off_c, 2, 74, 67
4, 993760, Note_off_c, 2, 79, 67
4, 993792, Note_off_c, 2, 74, 67
4, 993792, Note_off_c, 2, 79, 67
4, 993792, Note_on_c, 2, 70, 67
4, 993792, Note_on_c, 2, 77, 67
4, 993856, Note_off_c, 2, 70, 67
4, 993856, Note_off_c, 2, 77, 67
4, 993920, Note_off_c, 2, 70, 67
4, 993920, Note_off_c, 2, 77, 67
4, 993920, Note_on_c, 2, 65, 67
4, 993920, Note_on_c, 2, 70, 67
4, 993984, Note_off_c, 2, 65, 67
4, 993984, Note_off_c, 2, 70, 67
4, 994048, Note_off_c, 2, 65, 67
4, 994048, Note_off_c, 2, 70, 67
4, 994048, Note_on_c, 2, 68, 67
4, 994048, Note_on_c, 2, 70, 67
4, 994112, Note_off_c, 2, 68, 67
4, 994112, Note_off_c, 2, 70, 67
4, 994176, Note_off_c, 2, 68, 67
4, 994176, Note_off_c, 2, 70, 67
4, 994176, Note_on_c, 2, 70, 67
4, 994176, Note_on_c, 2, 79, 67
4, 994240, Note_off_c, 2, 70, 67
4, 994240, Note_off_c, 2, 79, 67
4, 994240, Note_on_c, 2, 77, 67
4, 994240, Note_on_c, 2, 80, 67
4, 994304, Note_off_c, 2, 77, 67
4, 994304, Note_off_c, 2, 80, 67
4, 994304, Note_on_c, 2, 79, 67
4, 994304, Note_on_c, 2, 82, 67
4, 994368, Note_off_c, 2, 79, 67
4, 994368, Note_off_c, 2, 82, 67
4, 994432, Note_off_c, 2, 79, 67
4, 994432, Note_off_c, 2, 82, 67
4, 994432, Note_on_c, 2, 79, 67
4, 994432, Note_on_c, 2, 82, 67
4, 994496, Note_off_c, 2, 79, 67
4, 994496, Note_off_c, 2, 82, 67
4, 994560, Note_off_c, 2, 79, 67
4, 994560, Note_off_c, 2, 82, 67
4, 994560, Note_on_c, 2, 70, 67
4, 994560, Note_on_c, 2, 79, 67
4, 994624, Note_off_c, 2, 70, 67
4, 994624, Note_off_c, 2, 79, 67
4, 994688, Note_off_c, 2, 70, 67
4, 994688, Note_off_c, 2, 79, 67
4, 994688, Note_on_c, 2, 75, 67
4, 994688, Note_on_c, 2, 82, 67
4, 994752, Note_off_c, 2, 75, 67
4, 994752, Note_off_c, 2, 82, 67
4, 994816, Note_off_c, 2, 75, 67
4, 994816, Note_off_c, 2, 82, 67
4, 994816, Note_on_c, 2, 84, 67
4, 994816, Note_on_c, 2, 87, 67
4, 994880, Note_off_c, 2, 84, 67
4, 994880, Note_off_c, 2, 87, 67
4, 994944, Note_off_c, 2, 84, 67
4, 994944, Note_off_c, 2, 87, 67
4, 994944, Note_on_c, 2, 82, 67
4, 994944, Note_on_c, 2, 86, 67
4, 995008, Note_off_c, 2, 82, 67
4, 995008, Note_off_c, 2, 86, 67
4, 995072, Note_off_c, 2, 82, 67
4, 995072, Note_off_c, 2, 86, 67
4, 995072, Note_on_c, 2, 80, 67
4, 995072, Note_on_c, 2, 84, 67
4, 995136, Note_off_c, 2, 80, 67
4, 995136, Note_off_c, 2, 84, 67
4, 995200, Note_off_c, 2, 80, 67
4, 995200, Note_off_c, 2, 84, 67
4, 995200, Note_on_c, 2, 70, 67
4, 995200, Note_on_c, 2, 74, 67
4, 995232, Note_off_c, 2, 70, 67
4, 995232, Note_off_c, 2, 74, 67
4, 995264, Note_off_c, 2, 70, 67
4, 995264, Note_off_c, 2, 74, 67
4, 995264, Note_on_c, 2, 77, 67
4, 995264, Note_on_c, 2, 80, 67
4, 995296, Note_off_c, 2, 77, 67
4, 995296, Note_off_c, 2, 80, 67
4, 995328, Note_off_c, 2, 77, 67
4, 995328, Note_off_c, 2, 80, 67
4, 995328, Note_on_c, 2, 77, 67
4, 995328, Note_on_c, 2, 82, 67
4, 995392, Note_off_c, 2, 77, 67
4, 995392, Note_off_c, 2, 82, 67
4, 995456, Note_off_c, 2, 77, 67
4, 995456, Note_off_c, 2, 82, 67
4, 995456, Note_on_c, 2, 80, 67
4, 995456, Note_on_c, 2, 87, 67
4, 995520, Note_off_c, 2, 80, 67
4, 995520, Note_off_c, 2, 87, 67
4, 995584, Note_off_c, 2, 80, 67
4, 995584, Note_off_c, 2, 87, 67
4, 995584, Note_on_c, 2, 82, 67
4, 995584, Note_on_c, 2, 86, 67
4, 995648, Note_off_c, 2, 82, 67
4, 995648, Note_off_c, 2, 86, 67
4, 995712, Note_off_c, 2, 82, 67
4, 995712, Note_off_c, 2, 86, 67
4, 995712, Note_on_c, 2, 80, 67
4, 995712, Note_on_c, 2, 89, 67
4, 995776, Note_off_c, 2, 80, 67
4, 995776, Note_off_c, 2, 89, 67
4, 995840, Note_off_c, 2, 80, 67
4, 995840, Note_off_c, 2, 89, 67
4, 995840, Note_on_c, 2, 79, 67
4, 995840, Note_on_c, 2, 87, 67
4, 995904, Note_off_c, 2, 79, 67
4, 995904, Note_off_c, 2, 87, 67
4, 995968, Note_off_c, 2, 79, 67
4, 995968, Note_off_c, 2, 87, 67
4, 995968, Note_on_c, 2, 70, 67
4, 995968, Note_on_c, 2, 82, 67
4, 996032, Note_off_c, 2, 70, 67
4, 996032, Note_off_c, 2, 82, 67
4, 996096, Note_off_c, 2, 70, 67
4, 996096, Note_off_c, 2, 82, 67
4, 996096, Note_on_c, 2, 70, 67
4, 996096, Note_on_c, 2, 82, 67
4, 996160, Note_off_c, 2, 70, 67
4, 996160, Note_off_c, 2, 82, 67
4, 996224, Note_off_c, 2, 70, 67
4, 996224, Note_off_c, 2, 82, 67
4, 996224, Note_on_c, 2, 75, 67
4, 996288, Note_off_c, 2, 75, 67
4, 996288, Note_on_c, 2, 77, 67
4, 996352, Note_off_c, 2, 77, 67
4, 996352, Note_on_c, 2, 79, 67
4, 996416, Note_off_c, 2, 79, 67
4, 996480, Note_off_c, 2, 79, 67
4, 996480, Note_on_c, 2, 75, 67
4, 996480, Note_on_c, 2, 79, 67
4, 996544, Note_off_c, 2, 75, 67
4, 996544, Note_off_c, 2, 79, 67
4, 996608, Note_off_c, 2, 75, 67
4, 996608, Note_off_c, 2, 79, 67
4, 996608, Note_on_c, 2, 75, 67
4, 996608, Note_on_c, 2, 79, 67
4, 996672, Note_off_c, 2, 75, 67
4, 996672, Note_off_c, 2, 79, 67
4, 996736, Note_off_c, 2, 75, 67
4, 996736, Note_off_c, 2, 79, 67
4, 996736, Note_on_c, 2, 75, 67
4, 996800, Note_off_c, 2, 75, 67
4, 996800, Note_on_c, 2, 77, 67
4, 996864, Note_off_c, 2, 77, 67
4, 996864, Note_on_c, 2, 79, 67
4, 996928, Note_off_c, 2, 79, 67
4, 996992, Note_off_c, 2, 79, 67
4, 996992, Note_on_c, 2, 75, 67
4, 996992, Note_on_c, 2, 79, 67
4, 997056, Note_off_c, 2, 75, 67
4, 997056, Note_off_c, 2, 79, 67
4, 997120, Note_off_c, 2, 75, 67
4, 997120, Note_off_c, 2, 79, 67
4, 997120, Note_on_c, 2, 75, 67
4, 997120, Note_on_c, 2, 79, 67
4, 997184, Note_off_c, 2, 75, 67
4, 997184, Note_off_c, 2, 79, 67
4, 997248, Note_off_c, 2, 75, 67
4, 997248, Note_off_c, 2, 79, 67
4, 997248, Note_on_c, 2, 75, 67
4, 997312, Note_off_c, 2, 75, 67
4, 997312, Note_on_c, 2, 77, 67
4, 997376, Note_off_c, 2, 77, 67
4, 997376, Note_on_c, 2, 79, 67
4, 997440, Note_off_c, 2, 79, 67
4, 997504, Note_off_c, 2, 79, 67
4, 997504, Note_on_c, 2, 75, 67
4, 997504, Note_on_c, 2, 79, 67
4, 997568, Note_off_c, 2, 75, 67
4, 997568, Note_off_c, 2, 79, 67
4, 997632, Note_off_c, 2, 75, 67
4, 997632, Note_off_c, 2, 79, 67
4, 997632, Note_on_c, 2, 75, 67
4, 997632, Note_on_c, 2, 80, 67
4, 997664, Note_off_c, 2, 75, 67
4, 997664, Note_off_c, 2, 80, 67
4, 997696, Note_off_c, 2, 75, 67
4, 997696, Note_off_c, 2, 80, 67
4, 997696, Note_on_c, 2, 74, 67
4, 997728, Note_off_c, 2, 74, 67
4, 997760, Note_off_c, 2, 74, 67
4, 997760, Note_on_c, 2, 72, 67
4, 997792, Note_off_c, 2, 72, 67
4, 997824, Note_off_c, 2, 72, 67
4, 997824, Note_on_c, 2, 74, 67
4, 997824, Note_on_c, 2, 79, 67
4, 997856, Note_off_c, 2, 74, 67
4, 997856, Note_off_c, 2, 79, 67
4, 997888, Note_off_c, 2, 74, 67
4, 997888, Note_off_c, 2, 79, 67
4, 997888, Note_on_c, 2, 70, 67
4, 997888, Note_on_c, 2, 77, 67
4, 997952, Note_off_c, 2, 70, 67
4, 997952, Note_off_c, 2, 77, 67
4, 998016, Note_off_c, 2, 70, 67
4, 998016, Note_off_c, 2, 77, 67
4, 998016, Note_on_c, 2, 68, 67
4, 998016, Note_on_c, 2, 70, 67
4, 998080, Note_off_c, 2, 68, 67
4, 998080, Note_off_c, 2, 70, 67
4, 998144, Note_off_c, 2, 68, 67
4, 998144, Note_off_c, 2, 70, 67
4, 998144, Note_on_c, 2, 68, 67
4, 998144, Note_on_c, 2, 70, 67
4, 998208, Note_off_c, 2, 68, 67
4, 998208, Note_off_c, 2, 70, 67
4, 998272, Note_off_c, 2, 68, 67
4, 998272, Note_off_c, 2, 70, 67
4, 998272, Note_on_c, 2, 74, 67
4, 998336, Note_off_c, 2, 74, 67
4, 998336, Note_on_c, 2, 75, 67
4, 998400, Note_off_c, 2, 75, 67
4, 998400, Note_on_c, 2, 77, 67
4, 998464, Note_off_c, 2, 77, 67
4, 998528, Note_off_c, 2, 77, 67
4, 998528, Note_on_c, 2, 74, 67
4, 998528, Note_on_c, 2, 77, 67
4, 998592, Note_off_c, 2, 74, 67
4, 998592, Note_off_c, 2, 77, 67
4, 998656, Note_off_c, 2, 74, 67
4, 998656, Note_off_c, 2, 77, 67
4, 998656, Note_on_c, 2, 74, 67
4, 998656, Note_on_c, 2, 77, 67
4, 998720, Note_off_c, 2, 74, 67
4, 998720, Note_off_c, 2, 77, 67
4, 998784, Note_off_c, 2, 74, 67
4, 998784, Note_off_c, 2, 77, 67
4, 998784, Note_on_c, 2, 74, 67
4, 998848, Note_off_c, 2, 74, 67
4, 998848, Note_on_c, 2, 75, 67
4, 998912, Note_off_c, 2, 75, 67
4, 998912, Note_on_c, 2, 77, 67
4, 998976, Note_off_c, 2, 77, 67
4, 999040, Note_off_c, 2, 77, 67
4, 999040, Note_on_c, 2, 74, 67
4, 999040, Note_on_c, 2, 77, 67
4, 999104, Note_off_c, 2, 74, 67
4, 999104, Note_off_c, 2, 77, 67
4, 999168, Note_off_c, 2, 74, 67
4, 999168, Note_off_c, 2, 77, 67
4, 999168, Note_on_c, 2, 74, 67
4, 999168, Note_on_c, 2, 77, 67
4, 999232, Note_off_c, 2, 74, 67
4, 999232, Note_off_c, 2, 77, 67
4, 999296, Note_off_c, 2, 74, 67
4, 999296, Note_off_c, 2, 77, 67
4, 999296, Note_on_c, 2, 74, 67
4, 999360, Note_off_c, 2, 74, 67
4, 999360, Note_on_c, 2, 75, 67
4, 999424, Note_off_c, 2, 75, 67
4, 999424, Note_on_c, 2, 70, 67
4, 999424, Note_on_c, 2, 77, 67
4, 999488, Note_off_c, 2, 70, 67
4, 999488, Note_off_c, 2, 77, 67
4, 999552, Note_off_c, 2, 70, 67
4, 999552, Note_off_c, 2, 77, 67
4, 999552, Note_on_c, 2, 74, 67
4, 999552, Note_on_c, 2, 77, 67
4, 999616, Note_off_c, 2, 74, 67
4, 999616, Note_off_c, 2, 77, 67
4, 999680, Note_off_c, 2, 74, 67
4, 999680, Note_off_c, 2, 77, 67
4, 999680, Note_on_c, 2, 74, 67
4, 999680, Note_on_c, 2, 79, 67
4, 999712, Note_off_c, 2, 74, 67
4, 999712, Note_off_c, 2, 79, 67
4, 999744, Note_off_c, 2, 74, 67
4, 999744, Note_off_c, 2, 79, 67
4, 999744, Note_on_c, 2, 72, 67
4, 999744, Note_on_c, 2, 77, 67
4, 999776, Note_off_c, 2, 72, 67
4, 999776, Note_off_c, 2, 77, 67
4, 999808, Note_off_c, 2, 72, 67
4, 999808, Note_off_c, 2, 77, 67
4, 999808, Note_on_c, 2, 70, 67
4, 999808, Note_on_c, 2, 77, 67
4, 999840, Note_off_c, 2, 70, 67
4, 999840, Note_off_c, 2, 77, 67
4, 999872, Note_off_c, 2, 70, 67
4, 999872, Note_off_c, 2, 77, 67
4, 999872, Note_on_c, 2, 68, 67
4, 999872, Note_on_c, 2, 79, 67
4, 999904, Note_off_c, 2, 68, 67
4, 999904, Note_off_c, 2, 79, 67
4, 999936, Note_off_c, 2, 68, 67
4, 999936, Note_off_c, 2, 79, 67
4, 999936, Note_on_c, 2, 67, 67
4, 999936, Note_on_c, 2, 75, 67
4, 1000000, Note_off_c, 2, 67, 67
4, 1000000, Note_off_c, 2, 75, 67
4, 1000064, Note_off_c, 2, 67, 67
4, 1000064, Note_off_c, 2, 75, 67
4, 1000064, Note_on_c, 2, 70, 67
4, 1000128, Note_off_c, 2, 70, 67
4, 1000192, Note_off_c, 2, 70, 67
4, 1000192, Note_on_c, 2, 70, 67
4, 1000192, Note_on_c, 2, 79, 67
4, 1000256, Note_off_c, 2, 70, 67
4, 1000256, Note_off_c, 2, 79, 67
4, 1000320, Note_off_c, 2, 70, 67
4, 1000320, Note_off_c, 2, 79, 67
4, 1000320, Note_on_c, 2, 75, 67
4, 1000384, Note_off_c, 2, 75, 67
4, 1000384, Note_on_c, 2, 77, 67
4, 1000448, Note_off_c, 2, 77, 67
4, 1000448, Note_on_c, 2, 79, 67
4, 1000512, Note_off_c, 2, 79, 67
4, 1000576, Note_off_c, 2, 79, 67
4, 1000576, Note_on_c, 2, 75, 67
4, 1000576, Note_on_c, 2, 79, 67
4, 1000640, Note_off_c, 2, 75, 67
4, 1000640, Note_off_c, 2, 79, 67
4, 1000704, Note_off_c, 2, 75, 67
4, 1000704, Note_off_c, 2, 79, 67
4, 1000704, Note_on_c, 2, 75, 67
4, 1000704, Note_on_c, 2, 79, 67
4, 1000768, Note_off_c, 2, 75, 67
4, 1000768, Note_off_c, 2, 79, 67
4, 1000832, Note_off_c, 2, 75, 67
4, 1000832, Note_off_c, 2, 79, 67
4, 1000832, Note_on_c, 2, 75, 67
4, 1000896, Note_off_c, 2, 75, 67
4, 1000896, Note_on_c, 2, 77, 67
4, 1000960, Note_off_c, 2, 77, 67
4, 1000960, Note_on_c, 2, 79, 67
4, 1001024, Note_off_c, 2, 79, 67
4, 1001088, Note_off_c, 2, 79, 67
4, 1001088, Note_on_c, 2, 75, 67
4, 1001088, Note_on_c, 2, 79, 67
4, 1001152, Note_off_c, 2, 75, 67
4, 1001152, Note_off_c, 2, 79, 67
4, 1001216, Note_off_c, 2, 75, 67
4, 1001216, Note_off_c, 2, 79, 67
4, 1001216, Note_on_c, 2, 75, 67
4, 1001216, Note_on_c, 2, 79, 67
4, 1001280, Note_off_c, 2, 75, 67
4, 1001280, Note_off_c, 2, 79, 67
4, 1001344, Note_off_c, 2, 75, 67
4, 1001344, Note_off_c, 2, 79, 67
4, 1001344, Note_on_c, 2, 75, 67
4, 1001408, Note_off_c, 2, 75, 67
4, 1001408, Note_on_c, 2, 77, 67
4, 1001472, Note_off_c, 2, 77, 67
4, 1001472, Note_on_c, 2, 79, 67
4, 1001536, Note_off_c, 2, 79, 67
4, 1001600, Note_off_c, 2, 79, 67
4, 1001600, Note_on_c, 2, 75, 67
4, 1001600, Note_on_c, 2, 79, 67
4, 1001664, Note_off_c, 2, 75, 67
4, 1001664, Note_off_c, 2, 79, 67
4, 1001728, Note_off_c, 2, 75, 67
4, 1001728, Note_off_c, 2, 79, 67
4, 1001728, Note_on_c, 2, 75, 67
4, 1001728, Note_on_c, 2, 80, 67
4, 1001760, Note_off_c, 2, 75, 67
4, 1001760, Note_off_c, 2, 80, 67
4, 1001792, Note_off_c, 2, 75, 67
4, 1001792, Note_off_c, 2, 80, 67
4, 1001792, Note_on_c, 2, 74, 67
4, 1001856, Note_off_c, 2, 74, 67
4, 1001856, Note_on_c, 2, 72, 67
4, 1001920, Note_off_c, 2, 72, 67
4, 1001920, Note_on_c, 2, 74, 67
4, 1001920, Note_on_c, 2, 79, 67
4, 1001952, Note_off_c, 2, 74, 67
4, 1001952, Note_off_c, 2, 79, 67
4, 1001984, Note_off_c, 2, 74, 67
4, 1001984, Note_off_c, 2, 79, 67
4, 1001984, Note_on_c, 2, 70, 67
4, 1001984, Note_on_c, 2, 77, 67
4, 1002048, Note_off_c, 2, 70, 67
4, 1002048, Note_off_c, 2, 77, 67
4, 1002112, Note_off_c, 2, 70, 67
4, 1002112, Note_off_c, 2, 77, 67
4, 1002112, Note_on_c, 2, 68, 67
4, 1002112, Note_on_c, 2, 70, 67
4, 1002176, Note_off_c, 2, 68, 67
4, 1002176, Note_off_c, 2, 70, 67
4, 1002240, Note_off_c, 2, 68, 67
4, 1002240, Note_off_c, 2, 70, 67
4, 1002240, Note_on_c, 2, 68, 67
4, 1002240, Note_on_c, 2, 70, 67
4, 1002304, Note_off_c, 2, 68, 67
4, 1002304, Note_off_c, 2, 70, 67
4, 1002368, Note_off_c, 2, 68, 67
4, 1002368, Note_off_c, 2, 70, 67
4, 1002368, Note_on_c, 2, 74, 67
4, 1002432, Note_off_c, 2, 74, 67
4, 1002432, Note_on_c, 2, 75, 67
4, 1002496, Note_off_c, 2, 75, 67
4, 1002496, Note_on_c, 2, 77, 67
4, 1002624, Note_off_c, 2, 77, 67
4, 1002624, Note_on_c, 2, 74, 67
4, 1002624, Note_on_c, 2, 80, 67
4, 1002688, Note_off_c, 2, 74, 67
4, 1002688, Note_off_c, 2, 80, 67
4, 1002752, Note_off_c, 2, 74, 67
4, 1002752, Note_off_c, 2, 80, 67
4, 1002752, Note_on_c, 2, 74, 67
4, 1002752, Note_on_c, 2, 79, 67
4, 1002816, Note_off_c, 2, 74, 67
4, 1002816, Note_off_c, 2, 79, 67
4, 1002880, Note_off_c, 2, 74, 67
4, 1002880, Note_off_c, 2, 79, 67
4, 1002880, Note_on_c, 2, 77, 67
4, 1002944, Note_off_c, 2, 77, 67
4, 1003008, Note_off_c, 2, 77, 67
4, 1003008, Note_on_c, 2, 75, 67
4, 1003072, Note_off_c, 2, 75, 67
4, 1003136, Note_off_c, 2, 75, 67
4, 1003136, Note_on_c, 2, 70, 67
4, 1003136, Note_on_c, 2, 74, 67
4, 1003200, Note_off_c, 2, 70, 67
4, 1003200, Note_off_c, 2, 74, 67
4, 1003264, Note_off_c, 2, 70, 67
4, 1003264, Note_off_c, 2, 74, 67
4, 1003264, Note_on_c, 2, 72, 67
4, 1003264, Note_on_c, 2, 74, 67
4, 1003328, Note_off_c, 2, 72, 67
4, 1003328, Note_off_c, 2, 74, 67
4, 1003392, Note_off_c, 2, 72, 67
4, 1003392, Note_off_c, 2, 74, 67
4, 1003392, Note_on_c, 2, 70, 67
4, 1003392, Note_on_c, 2, 74, 67
4, 1003456, Note_off_c, 2, 70, 67
4, 1003456, Note_off_c, 2, 74, 67
4, 1003520, Note_off_c, 2, 70, 67
4, 1003520, Note_off_c, 2, 74, 67
4, 1003520, Note_on_c, 2, 80, 67
4, 1003520, Note_on_c, 2, 84, 67
4, 1003776, Note_off_c, 2, 80, 67
4, 1003776, Note_off_c, 2, 84, 67
4, 1003776, Note_on_c, 2, 70, 67
4, 1003776, Note_on_c, 2, 74, 67
4, 1003792, Note_off_c, 2, 70, 67
4, 1003792, Note_off_c, 2, 74, 67
4, 1003808, Note_off_c, 2, 70, 67
4, 1003808, Note_off_c, 2, 74, 67
4, 1003808, Note_on_c, 2, 72, 67
4, 1003808, Note_on_c, 2, 75, 67
4, 1003824, Note_off_c, 2, 72, 67
4, 1003824, Note_off_c, 2, 75, 67
4, 1003840, Note_off_c, 2, 72, 67
4, 1003840, Note_off_c, 2, 75, 67
4, 1003840, Note_on_c, 2, 70, 67
4, 1003840, Note_on_c, 2, 74, 67
4, 1003872, Note_off_c, 2, 70, 67
4, 1003872, Note_off_c, 2, 74, 67
4, 1003904, Note_off_c, 2, 70, 67
4, 1003904, Note_off_c, 2, 74, 67
4, 1003904, Note_on_c, 2, 68, 67
4, 1003904, Note_on_c, 2, 72, 67
4, 1003936, Note_off_c, 2, 68, 67
4, 1003936, Note_off_c, 2, 72, 67
4, 1003968, Note_off_c, 2, 68, 67
4, 1003968, Note_off_c, 2, 72, 67
4, 1003968, Note_on_c, 2, 74, 67
4, 1003968, Note_on_c, 2, 77, 67
4, 1004000, Note_off_c, 2, 74, 67
4, 1004000, Note_off_c, 2, 77, 67
4, 1004032, Note_off_c, 2, 74, 67
4, 1004032, Note_off_c, 2, 77, 67
4, 1004032, Note_on_c, 2, 75, 67
4, 1004032, Note_on_c, 2, 79, 67
4, 1004160, Note_off_c, 2, 75, 67
4, 1004160, Note_off_c, 2, 79, 67
4, 1004160, Note_on_c, 2, 70, 67
4, 1004224, Note_off_c, 2, 70, 67
4, 1004288, Note_off_c, 2, 70, 67
4, 1004288, Note_on_c, 2, 70, 67
4, 1004352, Note_off_c, 2, 70, 67
4, 1004416, Note_off_c, 2, 70, 67
4, 1004416, Note_on_c, 2, 75, 67
4, 1004416, Note_on_c, 2, 79, 67
4, 1004480, Note_off_c, 2, 75, 67
4, 1004480, Note_off_c, 2, 79, 67
4, 1004480, Note_on_c, 2, 77, 67
4, 1004480, Note_on_c, 2, 80, 67
4, 1004544, Note_off_c, 2, 77, 67
4, 1004544, Note_off_c, 2, 80, 67
4, 1004544, Note_on_c, 2, 79, 67
4, 1004544, Note_on_c, 2, 82, 67
4, 1004608, Note_off_c, 2, 79, 67
4, 1004608, Note_off_c, 2, 82, 67
4, 1004672, Note_off_c, 2, 79, 67
4, 1004672, Note_off_c, 2, 82, 67
4, 1004672, Note_on_c, 2, 79, 67
4, 1004672, Note_on_c, 2, 82, 67
4, 1004736, Note_off_c, 2, 79, 67
4, 1004736, Note_off_c, 2, 82, 67
4, 1004800, Note_off_c, 2, 79, 67
4, 1004800, Note_off_c, 2, 82, 67
4, 1004800, Note_on_c, 2, 70, 67
4, 1004800, Note_on_c, 2, 79, 67
4, 1004864, Note_off_c, 2, 70, 67
4, 1004864, Note_off_c, 2, 79, 67
4, 1004928, Note_off_c, 2, 70, 67
4, 1004928, Note_off_c, 2, 79, 67
4, 1004928, Note_on_c, 2, 70, 67
4, 1004928, Note_on_c, 2, 75, 67
4, 1004992, Note_off_c, 2, 70, 67
4, 1004992, Note_off_c, 2, 75, 67
4, 1005056, Note_off_c, 2, 70, 67
4, 1005056, Note_off_c, 2, 75, 67
4, 1005056, Note_on_c, 2, 84, 67
4, 1005056, Note_on_c, 2, 87, 67
4, 1005120, Note_off_c, 2, 84, 67
4, 1005120, Note_off_c, 2, 87, 67
4, 1005184, Note_off_c, 2, 84, 67
4, 1005184, Note_off_c, 2, 87, 67
4, 1005184, Note_on_c, 2, 82, 67
4, 1005184, Note_on_c, 2, 86, 67
4, 1005248, Note_off_c, 2, 82, 67
4, 1005248, Note_off_c, 2, 86, 67
4, 1005312, Note_off_c, 2, 82, 67
4, 1005312, Note_off_c, 2, 86, 67
4, 1005312, Note_on_c, 2, 80, 67
4, 1005312, Note_on_c, 2, 84, 67
4, 1005376, Note_off_c, 2, 80, 67
4, 1005376, Note_off_c, 2, 84, 67
4, 1005440, Note_off_c, 2, 80, 67
4, 1005440, Note_off_c, 2, 84, 67
4, 1005440, Note_on_c, 2, 79, 67
4, 1005440, Note_on_c, 2, 87, 67
4, 1005504, Note_off_c, 2, 79, 67
4, 1005504, Note_off_c, 2, 87, 67
4, 1005568, Note_off_c, 2, 79, 67
4, 1005568, Note_off_c, 2, 87, 67
4, 1005568, Note_on_c, 2, 75, 67
4, 1005568, Note_on_c, 2, 82, 67
4, 1005632, Note_off_c, 2, 75, 67
4, 1005632, Note_off_c, 2, 82, 67
4, 1005696, Note_off_c, 2, 75, 67
4, 1005696, Note_off_c, 2, 82, 67
4, 1005696, Note_on_c, 2, 79, 67
4, 1005760, Note_off_c, 2, 79, 67
4, 1005824, Note_off_c, 2, 79, 67
4, 1005824, Note_on_c, 2, 67, 67
4, 1005824, Note_on_c, 2, 75, 67
4, 1005888, Note_off_c, 2, 67, 67
4, 1005888, Note_off_c, 2, 75, 67
4, 1005952, Note_off_c, 2, 67, 67
4, 1005952, Note_off_c, 2, 75, 67
4, 1005952, Note_on_c, 2, 68, 67
4, 1005952, Note_on_c, 2, 74, 67
4, 1005984, Note_off_c, 2, 68, 67
4, 1005984, Note_off_c, 2, 74, 67
4, 1006016, Note_off_c, 2, 68, 67
4, 1006016, Note_off_c, 2, 74, 67
4, 1006016, Note_on_c, 2, 74, 67
4, 1006016, Note_on_c, 2, 79, 67
4, 1006048, Note_off_c, 2, 74, 67
4, 1006048, Note_off_c, 2, 79, 67
4, 1006080, Note_off_c, 2, 74, 67
4, 1006080, Note_off_c, 2, 79, 67
4, 1006080, Note_on_c, 2, 70, 67
4, 1006080, Note_on_c, 2, 77, 67
4, 1006144, Note_off_c, 2, 70, 67
4, 1006144, Note_off_c, 2, 77, 67
4, 1006208, Note_off_c, 2, 70, 67
4, 1006208, Note_off_c, 2, 77, 67
4, 1006208, Note_on_c, 2, 65, 67
4, 1006208, Note_on_c, 2, 70, 67
4, 1006272, Note_off_c, 2, 65, 67
4, 1006272, Note_off_c, 2, 70, 67
4, 1006336, Note_off_c, 2, 65, 67
4, 1006336, Note_off_c, 2, 70, 67
4, 1006336, Note_on_c, 2, 68, 67
4, 1006336, Note_on_c, 2, 70, 67
4, 1006400, Note_off_c, 2, 68, 67
4, 1006400, Note_off_c, 2, 70, 67
4, 1006464, Note_off_c, 2, 68, 67
4, 1006464, Note_off_c, 2, 70, 67
4, 1006464, Note_on_c, 2, 70, 67
4, 1006464, Note_on_c, 2, 79, 67
4, 1006528, Note_off_c, 2, 70, 67
4, 1006528, Note_off_c, 2, 79, 67
4, 1006528, Note_on_c, 2, 77, 67
4, 1006528, Note_on_c, 2, 80, 67
4, 1006592, Note_off_c, 2, 77, 67
4, 1006592, Note_off_c, 2, 80, 67
4, 1006592, Note_on_c, 2, 79, 67
4, 1006592, Note_on_c, 2, 82, 67
4, 1006656, Note_off_c, 2, 79, 67
4, 1006656, Note_off_c, 2, 82, 67
4, 1006720, Note_off_c, 2, 79, 67
4, 1006720, Note_off_c, 2, 82, 67
4, 1006720, Note_on_c, 2, 79, 67
4, 1006720, Note_on_c, 2, 82, 67
4, 1006784, Note_off_c, 2, 79, 67
4, 1006784, Note_off_c, 2, 82, 67
4, 1006848, Note_off_c, 2, 79, 67
4, 1006848, Note_off_c, 2, 82, 67
4, 1006848, Note_on_c, 2, 70, 67
4, 1006848, Note_on_c, 2, 79, 67
4, 1006912, Note_off_c, 2, 70, 67
4, 1006912, Note_off_c, 2, 79, 67
4, 1006976, Note_off_c, 2, 70, 67
4, 1006976, Note_off_c, 2, 79, 67
4, 1006976, Note_on_c, 2, 75, 67
4, 1006976, Note_on_c, 2, 82, 67
4, 1007040, Note_off_c, 2, 75, 67
4, 1007040, Note_off_c, 2, 82, 67
4, 1007104, Note_off_c, 2, 75, 67
4, 1007104, Note_off_c, 2, 82, 67
4, 1007104, Note_on_c, 2, 84, 67
4, 1007104, Note_on_c, 2, 87, 67
4, 1007168, Note_off_c, 2, 84, 67
4, 1007168, Note_off_c, 2, 87, 67
4, 1007232, Note_off_c, 2, 84, 67
4, 1007232, Note_off_c, 2, 87, 67
4, 1007232, Note_on_c, 2, 82, 67
4, 1007232, Note_on_c, 2, 86, 67
4, 1007296, Note_off_c, 2, 82, 67
4, 1007296, Note_off_c, 2, 86, 67
4, 1007360, Note_off_c, 2, 82, 67
4, 1007360, Note_off_c, 2, 86, 67
4, 1007360, Note_on_c, 2, 80, 67
4, 1007360, Note_on_c, 2, 84, 67
4, 1007424, Note_off_c, 2, 80, 67
4, 1007424, Note_off_c, 2, 84, 67
4, 1007488, Note_off_c, 2, 80, 67
4, 1007488, Note_off_c, 2, 84, 67
4, 1007488, Note_on_c, 2, 70, 67
4, 1007488, Note_on_c, 2, 74, 67
4, 1007520, Note_off_c, 2, 70, 67
4, 1007520, Note_off_c, 2, 74, 67
4, 1007552, Note_off_c, 2, 70, 67
4, 1007552, Note_off_c, 2, 74, 67
4, 1007552, Note_on_c, 2, 77, 67
4, 1007552, Note_on_c, 2, 80, 67
4, 1007584, Note_off_c, 2, 77, 67
4, 1007584, Note_off_c, 2, 80, 67
4, 1007616, Note_off_c, 2, 77, 67
4, 1007616, Note_off_c, 2, 80, 67
4, 1007616, Note_on_c, 2, 77, 67
4, 1007616, Note_on_c, 2, 82, 67
4, 1007680, Note_off_c, 2, 77, 67
4, 1007680, Note_off_c, 2, 82, 67
4, 1007744, Note_off_c, 2, 77, 67
4, 1007744, Note_off_c, 2, 82, 67
4, 1007744, Note_on_c, 2, 80, 67
4, 1007744, Note_on_c, 2, 87, 67
4, 1007808, Note_off_c, 2, 80, 67
4, 1007808, Note_off_c, 2, 87, 67
4, 1007872, Note_off_c, 2, 80, 67
4, 1007872, Note_off_c, 2, 87, 67
4, 1007872, Note_on_c, 2, 82, 67
4, 1007872, Note_on_c, 2, 86, 67
4, 1007936, Note_off_c, 2, 82, 67
4, 1007936, Note_off_c, 2, 86, 67
4, 1008000, Note_off_c, 2, 82, 67
4, 1008000, Note_off_c, 2, 86, 67
4, 1008000, Note_on_c, 2, 80, 67
4, 1008000, Note_on_c, 2, 89, 67
4, 1008064, Note_off_c, 2, 80, 67
4, 1008064, Note_off_c, 2, 89, 67
4, 1008128, Note_off_c, 2, 80, 67
4, 1008128, Note_off_c, 2, 89, 67
4, 1008128, Note_on_c, 2, 79, 67
4, 1008128, Note_on_c, 2, 87, 67
4, 1008192, Note_off_c, 2, 79, 67
4, 1008192, Note_off_c, 2, 87, 67
4, 1008256, Note_off_c, 2, 79, 67
4, 1008256, Note_off_c, 2, 87, 67
4, 1008256, Note_on_c, 2, 70, 67
4, 1008256, Note_on_c, 2, 82, 67
4, 1008320, Note_off_c, 2, 70, 67
4, 1008320, Note_off_c, 2, 82, 67
4, 1008384, Note_off_c, 2, 70, 67
4, 1008384, Note_off_c, 2, 82, 67
4, 1008384, Note_on_c, 2, 70, 67
4, 1008384, Note_on_c, 2, 82, 67
4, 1008448, Note_off_c, 2, 70, 67
4, 1008448, Note_off_c, 2, 82, 67
4, 1008512, Note_off_c, 2, 70, 67
4, 1008512, Note_off_c, 2, 82, 67
4, 1008512, Note_on_c, 2, 75, 67
4, 1008576, Note_off_c, 2, 75, 67
4, 1008576, Note_on_c, 2, 77, 67
4, 1008640, Note_off_c, 2, 77, 67
4, 1008640, Note_on_c, 2, 79, 67
4, 1008704, Note_off_c, 2, 79, 67
4, 1008768, Note_off_c, 2, 79, 67
4, 1008768, Note_on_c, 2, 75, 67
4, 1008768, Note_on_c, 2, 79, 67
4, 1008832, Note_off_c, 2, 75, 67
4, 1008832, Note_off_c, 2, 79, 67
4, 1008896, Note_off_c, 2, 75, 67
4, 1008896, Note_off_c, 2, 79, 67
4, 1008896, Note_on_c, 2, 75, 67
4, 1008896, Note_on_c, 2, 79, 67
4, 1008960, Note_off_c, 2, 75, 67
4, 1008960, Note_off_c, 2, 79, 67
4, 1009024, Note_off_c, 2, 75, 67
4, 1009024, Note_off_c, 2, 79, 67
4, 1009024, Note_on_c, 2, 75, 67
4, 1009088, Note_off_c, 2, 75, 67
4, 1009088, Note_on_c, 2, 77, 67
4, 1009152, Note_off_c, 2, 77, 67
4, 1009152, Note_on_c, 2, 79, 67
4, 1009216, Note_off_c, 2, 79, 67
4, 1009280, Note_off_c, 2, 79, 67
4, 1009280, Note_on_c, 2, 75, 67
4, 1009280, Note_on_c, 2, 79, 67
4, 1009344, Note_off_c, 2, 75, 67
4, 1009344, Note_off_c, 2, 79, 67
4, 1009408, Note_off_c, 2, 75, 67
4, 1009408, Note_off_c, 2, 79, 67
4, 1009408, Note_on_c, 2, 75, 67
4, 1009408, Note_on_c, 2, 79, 67
4, 1009472, Note_off_c, 2, 75, 67
4, 1009472, Note_off_c, 2, 79, 67
4, 1009536, Note_off_c, 2, 75, 67
4, 1009536, Note_off_c, 2, 79, 67
4, 1009536, Note_on_c, 2, 75, 67
4, 1009600, Note_off_c, 2, 75, 67
4, 1009600, Note_on_c, 2, 77, 67
4, 1009664, Note_off_c, 2, 77, 67
4, 1009664, Note_on_c, 2, 79, 67
4, 1009728, Note_off_c, 2, 79, 67
4, 1009792, Note_off_c, 2, 79, 67
4, 1009792, Note_on_c, 2, 75, 67
4, 1009792, Note_on_c, 2, 79, 67
4, 1009856, Note_off_c, 2, 75, 67
4, 1009856, Note_off_c, 2, 79, 67
4, 1009920, Note_off_c, 2, 75, 67
4, 1009920, Note_off_c, 2, 79, 67
4, 1009920, Note_on_c, 2, 75, 67
4, 1009920, Note_on_c, 2, 80, 67
4, 1009952, Note_off_c, 2, 75, 67
4, 1009952, Note_off_c, 2, 80, 67
4, 1009984, Note_off_c, 2, 75, 67
4, 1009984, Note_off_c, 2, 80, 67
4, 1009984, Note_on_c, 2, 74, 67
4, 1010016, Note_off_c, 2, 74, 67
4, 1010048, Note_off_c, 2, 74, 67
4, 1010048, Note_on_c, 2, 72, 67
4, 1010080, Note_off_c, 2, 72, 67
4, 1010112, Note_off_c, 2, 72, 67
4, 1010112, Note_on_c, 2, 74, 67
4, 1010112, Note_on_c, 2, 79, 67
4, 1010144, Note_off_c, 2, 74, 67
4, 1010144, Note_off_c, 2, 79, 67
4, 1010176, Note_off_c, 2, 74, 67
4, 1010176, Note_off_c, 2, 79, 67
4, 1010176, Note_on_c, 2, 70, 67
4, 1010176, Note_on_c, 2, 77, 67
4, 1010240, Note_off_c, 2, 70, 67
4, 1010240, Note_off_c, 2, 77, 67
4, 1010304, Note_off_c, 2, 70, 67
4, 1010304, Note_off_c, 2, 77, 67
4, 1010304, Note_on_c, 2, 68, 67
4, 1010304, Note_on_c, 2, 70, 67
4, 1010368, Note_off_c, 2, 68, 67
4, 1010368, Note_off_c, 2, 70, 67
4, 1010432, Note_off_c, 2, 68, 67
4, 1010432, Note_off_c, 2, 70, 67
4, 1010432, Note_on_c, 2, 68, 67
4, 1010432, Note_on_c, 2, 70, 67
4, 1010496, Note_off_c, 2, 68, 67
4, 1010496, Note_off_c, 2, 70, 67
4, 1010560, Note_off_c, 2, 68, 67
4, 1010560, Note_off_c, 2, 70, 67
4, 1010560, Note_on_c, 2, 74, 67
4, 1010624, Note_off_c, 2, 74, 67
4, 1010624, Note_on_c, 2, 75, 67
4, 1010688, Note_off_c, 2, 75, 67
4, 1010688, Note_on_c, 2, 77, 67
4, 1010752, Note_off_c, 2, 77, 67
4, 1010816, Note_off_c, 2, 77, 67
4, 1010816, Note_on_c, 2, 74, 67
4, 1010816, Note_on_c, 2, 77, 67
4, 1010880, Note_off_c, 2, 74, 67
4, 1010880, Note_off_c, 2, 77, 67
4, 1010944, Note_off_c, 2, 74, 67
4, 1010944, Note_off_c, 2, 77, 67
4, 1010944, Note_on_c, 2, 74, 67
4, 1010944, Note_on_c, 2, 77, 67
4, 1011008, Note_off_c, 2, 74, 67
4, 1011008, Note_off_c, 2, 77, 67
4, 1011072, Note_off_c, 2, 74, 67
4, 1011072, Note_off_c, 2, 77, 67
4, 1011072, Note_on_c, 2, 74, 67
4, 1011136, Note_off_c, 2, 74, 67
4, 1011136, Note_on_c, 2, 75, 67
4, 1011200, Note_off_c, 2, 75, 67
4, 1011200, Note_on_c, 2, 77, 67
4, 1011264, Note_off_c, 2, 77, 67
4, 1011328, Note_off_c, 2, 77, 67
4, 1011328, Note_on_c, 2, 74, 67
4, 1011328, Note_on_c, 2, 77, 67
4, 1011392, Note_off_c, 2, 74, 67
4, 1011392, Note_off_c, 2, 77, 67
4, 1011456, Note_off_c, 2, 74, 67
4, 1011456, Note_off_c, 2, 77, 67
4, 1011456, Note_on_c, 2, 74, 67
4, 1011456, Note_on_c, 2, 77, 67
4, 1011520, Note_off_c, 2, 74, 67
4, 1011520, Note_off_c, 2, 77, 67
4, 1011584, Note_off_c, 2, 74, 67
4, 1011584, Note_off_c, 2, 77, 67
4, 1011584, Note_on_c, 2, 74, 67
4, 1011648, Note_off_c, 2, 74, 67
4, 1011648, Note_on_c, 2, 75, 67
4, 1011712, Note_off_c, 2, 75, 67
4, 1011712, Note_on_c, 2, 70, 67
4, 1011712, Note_on_c, 2, 77, 67
4, 1011776, Note_off_c, 2, 70, 67
4, 1011776, Note_off_c, 2, 77, 67
4, 1011840, Note_off_c, 2, 70, 67
4, 1011840, Note_off_c, 2, 77, 67
4, 1011840, Note_on_c, 2, 74, 67
4, 1011840, Note_on_c, 2, 77, 67
4, 1011904, Note_off_c, 2, 74, 67
4, 1011904, Note_off_c, 2, 77, 67
4, 1011968, Note_off_c, 2, 74, 67
4, 1011968, Note_off_c, 2, 77, 67
4, 1011968, Note_on_c, 2, 74, 67
4, 1011968, Note_on_c, 2, 79, 67
4, 1012000, Note_off_c, 2, 74, 67
4, 1012000, Note_off_c, 2, 79, 67
4, 1012032, Note_off_c, 2, 74, 67
4, 1012032, Note_off_c, 2, 79, 67
4, 1012032, Note_on_c, 2, 72, 67
4, 1012032, Note_on_c, 2, 77, 67
4, 1012064, Note_off_c, 2, 72, 67
4, 1012064, Note_off_c, 2, 77, 67
4, 1012096, Note_off_c, 2, 72, 67
4, 1012096, Note_off_c, 2, 77, 67
4, 1012096, Note_on_c, 2, 70, 67
4, 1012096, Note_on_c, 2, 77, 67
4, 1012128, Note_off_c, 2, 70, 67
4, 1012128, Note_off_c, 2, 77, 67
4, 1012160, Note_off_c, 2, 70, 67
4, 1012160, Note_off_c, 2, 77, 67
4, 1012160, Note_on_c, 2, 68, 67
4, 1012160, Note_on_c, 2, 79, 67
4, 1012192, Note_off_c, 2, 68, 67
4, 1012192, Note_off_c, 2, 79, 67
4, 1012224, Note_off_c, 2, 68, 67
4, 1012224, Note_off_c, 2, 79, 67
4, 1012224, Note_on_c, 2, 67, 67
4, 1012224, Note_on_c, 2, 75, 67
4, 1012288, Note_off_c, 2, 67, 67
4, 1012288, Note_off_c, 2, 75, 67
4, 1012352, Note_off_c, 2, 67, 67
4, 1012352, Note_off_c, 2, 75, 67
4, 1012352, Note_on_c, 2, 70, 67
4, 1012416, Note_off_c, 2, 70, 67
4, 1012480, Note_off_c, 2, 70, 67
4, 1012480, Note_on_c, 2, 70, 67
4, 1012480, Note_on_c, 2, 79, 67
4, 1012544, Note_off_c, 2, 70, 67
4, 1012544, Note_off_c, 2, 79, 67
4, 1012608, Note_off_c, 2, 70, 67
4, 1012608, Note_off_c, 2, 79, 67
4, 1012608, Note_on_c, 2, 75, 67
4, 1012672, Note_off_c, 2, 75, 67
4, 1012672, Note_on_c, 2, 77, 67
4, 1012736, Note_off_c, 2, 77, 67
4, 1012736, Note_on_c, 2, 79, 67
4, 1012800, Note_off_c, 2, 79, 67
4, 1012864, Note_off_c, 2, 79, 67
4, 1012864, Note_on_c, 2, 75, 67
4, 1012864, Note_on_c, 2, 79, 67
4, 1012928, Note_off_c, 2, 75, 67
4, 1012928, Note_off_c, 2, 79, 67
4, 1012992, Note_off_c, 2, 75, 67
4, 1012992, Note_off_c, 2, 79, 67
4, 1012992, Note_on_c, 2, 75, 67
4, 1012992, Note_on_c, 2, 79, 67
4, 1013056, Note_off_c, 2, 75, 67
4, 1013056, Note_off_c, 2, 79, 67
4, 1013120, Note_off_c, 2, 75, 67
4, 1013120, Note_off_c, 2, 79, 67
4, 1013120, Note_on_c, 2, 75, 67
4, 1013184, Note_off_c, 2, 75, 67
4, 1013184, Note_on_c, 2, 77, 67
4, 1013248, Note_off_c, 2, 77, 67
4, 1013248, Note_on_c, 2, 79, 67
4, 1013312, Note_off_c, 2, 79, 67
4, 1013376, Note_off_c, 2, 79, 67
4, 1013376, Note_on_c, 2, 75, 67
4, 1013376, Note_on_c, 2, 79, 67
4, 1013440, Note_off_c, 2, 75, 67
4, 1013440, Note_off_c, 2, 79, 67
4, 1013504, Note_off_c, 2, 75, 67
4, 1013504, Note_off_c, 2, 79, 67
4, 1013504, Note_on_c, 2, 75, 67
4, 1013504, Note_on_c, 2, 79, 67
4, 1013568, Note_off_c, 2, 75, 67
4, 1013568, Note_off_c, 2, 79, 67
4, 1013632, Note_off_c, 2, 75, 67
4, 1013632, Note_off_c, 2, 79, 67
4, 1013632, Note_on_c, 2, 75, 67
4, 1013696, Note_off_c, 2, 75, 67
4, 1013696, Note_on_c, 2, 77, 67
4, 1013760, Note_off_c, 2, 77, 67
4, 1013760, Note_on_c, 2, 79, 67
4, 1013824, Note_off_c, 2, 79, 67
4, 1013888, Note_off_c, 2, 79, 67
4, 1013888, Note_on_c, 2, 75, 67
4, 1013888, Note_on_c, 2, 79, 67
4, 1013952, Note_off_c, 2, 75, 67
4, 1013952, Note_off_c, 2, 79, 67
4, 1014016, Note_off_c, 2, 75, 67
4, 1014016, Note_off_c, 2, 79, 67
4, 1014016, Note_on_c, 2, 75, 67
4, 1014016, Note_on_c, 2, 80, 67
4, 1014048, Note_off_c, 2, 75, 67
4, 1014048, Note_off_c, 2, 80, 67
4, 1014080, Note_off_c, 2, 75, 67
4, 1014080, Note_off_c, 2, 80, 67
4, 1014080, Note_on_c, 2, 74, 67
4, 1014144, Note_off_c, 2, 74, 67
4, 1014144, Note_on_c, 2, 72, 67
4, 1014208, Note_off_c, 2, 72, 67
4, 1014208, Note_on_c, 2, 74, 67
4, 1014208, Note_on_c, 2, 79, 67
4, 1014240, Note_off_c, 2, 74, 67
4, 1014240, Note_off_c, 2, 79, 67
4, 1014272, Note_off_c, 2, 74, 67
4, 1014272, Note_off_c, 2, 79, 67
4, 1014272, Note_on_c, 2, 70, 67
4, 1014272, Note_on_c, 2, 77, 67
4, 1014336, Note_off_c, 2, 70, 67
4, 1014336, Note_off_c, 2, 77, 67
4, 1014400, Note_off_c, 2, 70, 67
4, 1014400, Note_off_c, 2, 77, 67
4, 1014400, Note_on_c, 2, 68, 67
4, 1014400, Note_on_c, 2, 70, 67
4, 1014464, Note_off_c, 2, 68, 67
4, 1014464, Note_off_c, 2, 70, 67
4, 1014528, Note_off_c, 2, 68, 67
4, 1014528, Note_off_c, 2, 70, 67
4, 1014528, Note_on_c, 2, 68, 67
4, 1014528, Note_on_c, 2, 70, 67
4, 1014592, Note_off_c, 2, 68, 67
4, 1014592, Note_off_c, 2, 70, 67
4, 1014656, Note_off_c, 2, 68, 67
4, 1014656, Note_off_c, 2, 70, 67
4, 1014656, Note_on_c, 2, 74, 67
4, 1014720, Note_off_c, 2, 74, 67
4, 1014720, Note_on_c, 2, 75, 67
4, 1014784, Note_off_c, 2, 75, 67
4, 1014784, Note_on_c, 2, 77, 67
4, 1014912, Note_off_c, 2, 77, 67
4, 1014912, Note_on_c, 2, 74, 67
4, 1014912, Note_on_c, 2, 80, 67
4, 1014976, Note_off_c, 2, 74, 67
4, 1014976, Note_off_c, 2, 80, 67
4, 1015040, Note_off_c, 2, 74, 67
4, 1015040, Note_off_c, 2, 80, 67
4, 1015040, Note_on_c, 2, 74, 67
4, 1015040, Note_on_c, 2, 79, 67
4, 1015104, Note_off_c, 2, 74, 67
4, 1015104, Note_off_c, 2, 79, 67
4, 1015168, Note_off_c, 2, 74, 67
4, 1015168, Note_off_c, 2, 79, 67
4, 1015168, Note_on_c, 2, 77, 67
4, 1015232, Note_off_c, 2, 77, 67
4, 1015296, Note_off_c, 2, 77, 67
4, 1015296, Note_on_c, 2, 75, 67
4, 1015360, Note_off_c, 2, 75, 67
4, 1015424, Note_off_c, 2, 75, 67
4, 1015424, Note_on_c, 2, 70, 67
4, 1015424, Note_on_c, 2, 74, 67
4, 1015488, Note_off_c, 2, 70, 67
4, 1015488, Note_off_c, 2, 74, 67
4, 1015552, Note_off_c, 2, 70, 67
4, 1015552, Note_off_c, 2, 74, 67
4, 1015552, Note_on_c, 2, 72, 67
4, 1015552, Note_on_c, 2, 74, 67
4, 1015616, Note_off_c, 2, 72, 67
4, 1015616, Note_off_c, 2, 74, 67
4, 1015680, Note_off_c, 2, 72, 67
4, 1015680, Note_off_c, 2, 74, 67
4, 1015680, Note_on_c, 2, 70, 67
4, 1015680, Note_on_c, 2, 74, 67
4, 1015744, Note_off_c, 2, 70, 67
4, 1015744, Note_off_c, 2, 74, 67
4, 1015808, Note_off_c, 2, 70, 67
4, 1015808, Note_off_c, 2, 74, 67
4, 1015808, Note_on_c, 2, 80, 67
4, 1015808, Note_on_c, 2, 84, 67
4, 1016064, Note_off_c, 2, 80, 67
4, 1016064, Note_off_c, 2, 84, 67
4, 1016064, Note_on_c, 2, 70, 67
4, 1016064, Note_on_c, 2, 74, 67
4, 1016080, Note_off_c, 2, 70, 67
4, 1016080, Note_off_c, 2, 74, 67
4, 1016096, Note_off_c, 2, 70, 67
4, 1016096, Note_off_c, 2, 74, 67
4, 1016096, Note_on_c, 2, 72, 67
4, 1016096, Note_on_c, 2, 75, 67
4, 1016112, Note_off_c, 2, 72, 67
4, 1016112, Note_off_c, 2, 75, 67
4, 1016128, Note_off_c, 2, 72, 67
4, 1016128, Note_off_c, 2, 75, 67
4, 1016128, Note_on_c, 2, 70, 67
4, 1016128, Note_on_c, 2, 74, 67
4, 1016160, Note_off_c, 2, 70, 67
4, 1016160, Note_off_c, 2, 74, 67
4, 1016192, Note_off_c, 2, 70, 67
4, 1016192, Note_off_c, 2, 74, 67
4, 1016192, Note_on_c, 2, 68, 67
4, 1016192, Note_on_c, 2, 72, 67
4, 1016224, Note_off_c, 2, 68, 67
4, 1016224, Note_off_c, 2, 72, 67
4, 1016256, Note_off_c, 2, 68, 67
4, 1016256, Note_off_c, 2, 72, 67
4, 1016256, Note_on_c, 2, 74, 67
4, 1016256, Note_on_c, 2, 77, 67
4, 1016288, Note_off_c, 2, 74, 67
4, 1016288, Note_off_c, 2, 77, 67
4, 1016320, Note_off_c, 2, 74, 67
4, 1016320, Note_off_c, 2, 77, 67
4, 1016320, Note_on_c, 2, 75, 67
4, 1016320, Note_on_c, 2, 79, 67
4, 1016448, Note_off_c, 2, 75, 67
4, 1016448, Note_off_c, 2, 79, 67
4, 1016448, Note_on_c, 2, 70, 67
4, 1016512, Note_off_c, 2, 70, 67
4, 1016576, Note_off_c, 2, 70, 67
4, 1016576, Note_on_c, 2, 70, 67
4, 1016640, Note_off_c, 2, 70, 67
4, 1016704, Note_off_c, 2, 70, 67
4, 1016704, Note_on_c, 2, 75, 67
4, 1016704, Note_on_c, 2, 79, 67
4, 1016768, Note_off_c, 2, 75, 67
4, 1016768, Note_off_c, 2, 79, 67
4, 1016768, Note_on_c, 2, 77, 67
4, 1016768, Note_on_c, 2, 80, 67
4, 1016832, Note_off_c, 2, 77, 67
4, 1016832, Note_off_c, 2, 80, 67
4, 1016832, Note_on_c, 2, 79, 67
4, 1016832, Note_on_c, 2, 82, 67
4, 1016896, Note_off_c, 2, 79, 67
4, 1016896, Note_off_c, 2, 82, 67
4, 1016960, Note_off_c, 2, 79, 67
4, 1016960, Note_off_c, 2, 82, 67
4, 1016960, Note_on_c, 2, 79, 67
4, 1016960, Note_on_c, 2, 82, 67
4, 1017024, Note_off_c, 2, 79, 67
4, 1017024, Note_off_c, 2, 82, 67
4, 1017088, Note_off_c, 2, 79, 67
4, 1017088, Note_off_c, 2, 82, 67
4, 1017088, Note_on_c, 2, 70, 67
4, 1017088, Note_on_c, 2, 79, 67
4, 1017152, Note_off_c, 2, 70, 67
4, 1017152, Note_off_c, 2, 79, 67
4, 1017216, Note_off_c, 2, 70, 67
4, 1017216, Note_off_c, 2, 79, 67
4, 1017216, Note_on_c, 2, 70, 67
4, 1017216, Note_on_c, 2, 75, 67
4, 1017280, Note_off_c, 2, 70, 67
4, 1017280, Note_off_c, 2, 75, 67
4, 1017344, Note_off_c, 2, 70, 67
4, 1017344, Note_off_c, 2, 75, 67
4, 1017344, Note_on_c, 2, 84, 67
4, 1017344, Note_on_c, 2, 87, 67
4, 1017408, Note_off_c, 2, 84, 67
4, 1017408, Note_off_c, 2, 87, 67
4, 1017472, Note_off_c, 2, 84, 67
4, 1017472, Note_off_c, 2, 87, 67
4, 1017472, Note_on_c, 2, 82, 67
4, 1017472, Note_on_c, 2, 86, 67
4, 1017536, Note_off_c, 2, 82, 67
4, 1017536, Note_off_c, 2, 86, 67
4, 1017600, Note_off_c, 2, 82, 67
4, 1017600, Note_off_c, 2, 86, 67
4, 1017600, Note_on_c, 2, 80, 67
4, 1017600, Note_on_c, 2, 84, 67
4, 1017664, Note_off_c, 2, 80, 67
4, 1017664, Note_off_c, 2, 84, 67
4, 1017728, Note_off_c, 2, 80, 67
4, 1017728, Note_off_c, 2, 84, 67
4, 1017728, Note_on_c, 2, 79, 67
4, 1017728, Note_on_c, 2, 87, 67
4, 1017792, Note_off_c, 2, 79, 67
4, 1017792, Note_off_c, 2, 87, 67
4, 1017856, Note_off_c, 2, 79, 67
4, 1017856, Note_off_c, 2, 87, 67
4, 1017856, Note_on_c, 2, 75, 67
4, 1017856, Note_on_c, 2, 82, 67
4, 1017920, Note_off_c, 2, 75, 67
4, 1017920, Note_off_c, 2, 82, 67
4, 1017984, Note_off_c, 2, 75, 67
4, 1017984, Note_off_c, 2, 82, 67
4, 1017984, Note_on_c, 2, 79, 67
4, 1018048, Note_off_c, 2, 79, 67
4, 1018112, Note_off_c, 2, 79, 67
4, 1018112, Note_on_c, 2, 67, 67
4, 1018112, Note_on_c, 2, 75, 67
4, 1018176, Note_off_c, 2, 67, 67
4, 1018176, Note_off_c, 2, 75, 67
4, 1018240, Note_off_c, 2, 67, 67
4, 1018240, Note_off_c, 2, 75, 67
4, 1018240, Note_on_c, 2, 68, 67
4, 1018240, Note_on_c, 2, 74, 67
4, 1018272, Note_off_c, 2, 68, 67
4, 1018272, Note_off_c, 2, 74, 67
4, 1018304, Note_off_c, 2, 68, 67
4, 1018304, Note_off_c, 2, 74, 67
4, 1018304, Note_on_c, 2, 74, 67
4, 1018304, Note_on_c, 2, 79, 67
4, 1018336, Note_off_c, 2, 74, 67
4, 1018336, Note_off_c, 2, 79, 67
4, 1018368, Note_off_c, 2, 74, 67
4, 1018368, Note_off_c, 2, 79, 67
4, 1018368, Note_on_c, 2, 70, 67
4, 1018368, Note_on_c, 2, 77, 67
4, 1018432, Note_off_c, 2, 70, 67
4, 1018432, Note_off_c, 2, 77, 67
4, 1018496, Note_off_c, 2, 70, 67
4, 1018496, Note_off_c, 2, 77, 67
4, 1018496, Note_on_c, 2, 65, 67
4, 1018496, Note_on_c, 2, 70, 67
4, 1018560, Note_off_c, 2, 65, 67
4, 1018560, Note_off_c, 2, 70, 67
4, 1018624, Note_off_c, 2, 65, 67
4, 1018624, Note_off_c, 2, 70, 67
4, 1018624, Note_on_c, 2, 68, 67
4, 1018624, Note_on_c, 2, 70, 67
4, 1018688, Note_off_c, 2, 68, 67
4, 1018688, Note_off_c, 2, 70, 67
4, 1018752, Note_off_c, 2, 68, 67
4, 1018752, Note_off_c, 2, 70, 67
4, 1018752, Note_on_c, 2, 70, 67
4, 1018752, Note_on_c, 2, 79, 67
4, 1018816, Note_off_c, 2, 70, 67
4, 1018816, Note_off_c, 2, 79, 67
4, 1018816, Note_on_c, 2, 77, 67
4, 1018816, Note_on_c, 2, 80, 67
4, 1018880, Note_off_c, 2, 77, 67
4, 1018880, Note_off_c, 2, 80, 67
4, 1018880, Note_on_c, 2, 79, 67
4, 1018880, Note_on_c, 2, 82, 67
4, 1018944, Note_off_c, 2, 79, 67
4, 1018944, Note_off_c, 2, 82, 67
4, 1019008, Note_off_c, 2, 79, 67
4, 1019008, Note_off_c, 2, 82, 67
4, 1019008, Note_on_c, 2, 79, 67
4, 1019008, Note_on_c, 2, 82, 67
4, 1019072, Note_off_c, 2, 79, 67
4, 1019072, Note_off_c, 2, 82, 67
4, 1019136, Note_off_c, 2, 79, 67
4, 1019136, Note_off_c, 2, 82, 67
4, 1019136, Note_on_c, 2, 70, 67
4, 1019136, Note_on_c, 2, 79, 67
4, 1019200, Note_off_c, 2, 70, 67
4, 1019200, Note_off_c, 2, 79, 67
4, 1019264, Note_off_c, 2, 70, 67
4, 1019264, Note_off_c, 2, 79, 67
4, 1019264, Note_on_c, 2, 75, 67
4, 1019264, Note_on_c, 2, 82, 67
4, 1019328, Note_off_c, 2, 75, 67
4, 1019328, Note_off_c, 2, 82, 67
4, 1019392, Note_off_c, 2, 75, 67
4, 1019392, Note_off_c, 2, 82, 67
4, 1019392, Note_on_c, 2, 84, 67
4, 1019392, Note_on_c, 2, 87, 67
4, 1019456, Note_off_c, 2, 84, 67
4, 1019456, Note_off_c, 2, 87, 67
4, 1019520, Note_off_c, 2, 84, 67
4, 1019520, Note_off_c, 2, 87, 67
4, 1019520, Note_on_c, 2, 82, 67
4, 1019520, Note_on_c, 2, 86, 67
4, 1019584, Note_off_c, 2, 82, 67
4, 1019584, Note_off_c, 2, 86, 67
4, 1019648, Note_off_c, 2, 82, 67
4, 1019648, Note_off_c, 2, 86, 67
4, 1019648, Note_on_c, 2, 80, 67
4, 1019648, Note_on_c, 2, 84, 67
4, 1019712, Note_off_c, 2, 80, 67
4, 1019712, Note_off_c, 2, 84, 67
4, 1019776, Note_off_c, 2, 80, 67
4, 1019776, Note_off_c, 2, 84, 67
4, 1019776, Note_on_c, 2, 70, 67
4, 1019776, Note_on_c, 2, 74, 67
4, 1019808, Note_off_c, 2, 70, 67
4, 1019808, Note_off_c, 2, 74, 67
4, 1019840, Note_off_c, 2, 70, 67
4, 1019840, Note_off_c, 2, 74, 67
4, 1019840, Note_on_c, 2, 77, 67
4, 1019840, Note_on_c, 2, 80, 67
4, 1019872, Note_off_c, 2, 77, 67
4, 1019872, Note_off_c, 2, 80, 67
4, 1019904, Note_off_c, 2, 77, 67
4, 1019904, Note_off_c, 2, 80, 67
4, 1019904, Note_on_c, 2, 77, 67
4, 1019904, Note_on_c, 2, 82, 67
4, 1019968, Note_off_c, 2, 77, 67
4, 1019968, Note_off_c, 2, 82, 67
4, 1020032, Note_off_c, 2, 77, 67
4, 1020032, Note_off_c, 2, 82, 67
4, 1020032, Note_on_c, 2, 80, 67
4, 1020032, Note_on_c, 2, 87, 67
4, 1020096, Note_off_c, 2, 80, 67
4, 1020096, Note_off_c, 2, 87, 67
4, 1020160, Note_off_c, 2, 80, 67
4, 1020160, Note_off_c, 2, 87, 67
4, 1020160, Note_on_c, 2, 82, 67
4, 1020160, Note_on_c, 2, 86, 67
4, 1020224, Note_off_c, 2, 82, 67
4, 1020224, Note_off_c, 2, 86, 67
4, 1020288, Note_off_c, 2, 82, 67
4, 1020288, Note_off_c, 2, 86, 67
4, 1020288, Note_on_c, 2, 80, 67
4, 1020288, Note_on_c, 2, 89, 67
4, 1020352, Note_off_c, 2, 80, 67
4, 1020352, Note_off_c, 2, 89, 67
4, 1020416, Note_off_c, 2, 80, 67
4, 1020416, Note_off_c, 2, 89, 67
4, 1020416, Note_on_c, 2, 79, 67
4, 1020416, Note_on_c, 2, 87, 67
4, 1020480, Note_off_c, 2, 79, 67
4, 1020480, Note_off_c, 2, 87, 67
4, 1020544, Note_off_c, 2, 79, 67
4, 1020544, Note_off_c, 2, 87, 67
4, 1020544, Note_on_c, 2, 70, 67
4, 1020544, Note_on_c, 2, 82, 67
4, 1020608, Note_off_c, 2, 70, 67
4, 1020608, Note_off_c, 2, 82, 67
4, 1020672, Note_off_c, 2, 70, 67
4, 1020672, Note_off_c, 2, 82, 67
4, 1020672, Note_on_c, 2, 70, 67
4, 1020672, Note_on_c, 2, 82, 67
4, 1020736, Note_off_c, 2, 70, 67
4, 1020736, Note_off_c, 2, 82, 67
4, 1020800, Note_off_c, 2, 70, 67
4, 1020800, Note_off_c, 2, 82, 67
4, 1020800, Note_on_c, 2, 75, 67
4, 1020864, Note_off_c, 2, 75, 67
4, 1020864, Note_on_c, 2, 77, 67
4, 1020928, Note_off_c, 2, 77, 67
4, 1020928, Note_on_c, 2, 79, 67
4, 1020992, Note_off_c, 2, 79, 67
4, 1021056, Note_off_c, 2, 79, 67
4, 1021056, Note_on_c, 2, 75, 67
4, 1021056, Note_on_c, 2, 79, 67
4, 1021120, Note_off_c, 2, 75, 67
4, 1021120, Note_off_c, 2, 79, 67
4, 1021184, Note_off_c, 2, 75, 67
4, 1021184, Note_off_c, 2, 79, 67
4, 1021184, Note_on_c, 2, 75, 67
4, 1021184, Note_on_c, 2, 79, 67
4, 1021248, Note_off_c, 2, 75, 67
4, 1021248, Note_off_c, 2, 79, 67
4, 1021312, Note_off_c, 2, 75, 67
4, 1021312, Note_off_c, 2, 79, 67
4, 1021312, Note_on_c, 2, 75, 67
4, 1021376, Note_off_c, 2, 75, 67
4, 1021376, Note_on_c, 2, 77, 67
4, 1021440, Note_off_c, 2, 77, 67
4, 1021440, Note_on_c, 2, 79, 67
4, 1021504, Note_off_c, 2, 79, 67
4, 1021568, Note_off_c, 2, 79, 67
4, 1021568, Note_on_c, 2, 75, 67
4, 1021568, Note_on_c, 2, 79, 67
4, 1021632, Note_off_c, 2, 75, 67
4, 1021632, Note_off_c, 2, 79, 67
4, 1021696, Note_off_c, 2, 75, 67
4, 1021696, Note_off_c, 2, 79, 67
4, 1021696, Note_on_c, 2, 75, 67
4, 1021696, Note_on_c, 2, 79, 67
4, 1021760, Note_off_c, 2, 75, 67
4, 1021760, Note_off_c, 2, 79, 67
4, 1021824, Note_off_c, 2, 75, 67
4, 1021824, Note_off_c, 2, 79, 67
4, 1021824, Note_on_c, 2, 75, 67
4, 1021888, Note_off_c, 2, 75, 67
4, 1021888, Note_on_c, 2, 77, 67
4, 1021952, Note_off_c, 2, 77, 67
4, 1021952, Note_on_c, 2, 79, 67
4, 1022016, Note_off_c, 2, 79, 67
4, 1022080, Note_off_c, 2, 79, 67
4, 1022080, Note_on_c, 2, 75, 67
4, 1022080, Note_on_c, 2, 79, 67
4, 1022144, Note_off_c, 2, 75, 67
4, 1022144, Note_off_c, 2, 79, 67
4, 1022208, Note_off_c, 2, 75, 67
4, 1022208, Note_off_c, 2, 79, 67
4, 1022208, Note_on_c, 2, 75, 67
4, 1022208, Note_on_c, 2, 80, 67
4, 1022240, Note_off_c, 2, 75, 67
4, 1022240, Note_off_c, 2, 80, 67
4, 1022272, Note_off_c, 2, 75, 67
4, 1022272, Note_off_c, 2, 80, 67
4, 1022272, Note_on_c, 2, 74, 67
4, 1022304, Note_off_c, 2, 74, 67
4, 1022336, Note_off_c, 2, 74, 67
4, 1022336, Note_on_c, 2, 72, 67
4, 1022368, Note_off_c, 2, 72, 67
4, 1022400, Note_off_c, 2, 72, 67
4, 1022400, Note_on_c, 2, 74, 67
4, 1022400, Note_on_c, 2, 79, 67
4, 1022432, Note_off_c, 2, 74, 67
4, 1022432, Note_off_c, 2, 79, 67
4, 1022464, Note_off_c, 2, 74, 67
4, 1022464, Note_off_c, 2, 79, 67
4, 1022464, Note_on_c, 2, 70, 67
4, 1022464, Note_on_c, 2, 77, 67
4, 1022528, Note_off_c, 2, 70, 67
4, 1022528, Note_off_c, 2, 77, 67
4, 1022592, Note_off_c, 2, 70, 67
4, 1022592, Note_off_c, 2, 77, 67
4, 1022592, Note_on_c, 2, 68, 67
4, 1022592, Note_on_c, 2, 70, 67
4, 1022656, Note_off_c, 2, 68, 67
4, 1022656, Note_off_c, 2, 70, 67
4, 1022720, Note_off_c, 2, 68, 67
4, 1022720, Note_off_c, 2, 70, 67
4, 1022720, Note_on_c, 2, 68, 67
4, 1022720, Note_on_c, 2, 70, 67
4, 1022784, Note_off_c, 2, 68, 67
4, 1022784, Note_off_c, 2, 70, 67
4, 1022848, Note_off_c, 2, 68, 67
4, 1022848, Note_off_c, 2, 70, 67
4, 1022848, Note_on_c, 2, 74, 67
4, 1022912, Note_off_c, 2, 74, 67
4, 1022912, Note_on_c, 2, 75, 67
4, 1022976, Note_off_c, 2, 75, 67
4, 1022976, Note_on_c, 2, 77, 67
4, 1023040, Note_off_c, 2, 77, 67
4, 1023104, Note_off_c, 2, 77, 67
4, 1023104, Note_on_c, 2, 74, 67
4, 1023104, Note_on_c, 2, 77, 67
4, 1023168, Note_off_c, 2, 74, 67
4, 1023168, Note_off_c, 2, 77, 67
4, 1023232, Note_off_c, 2, 74, 67
4, 1023232, Note_off_c, 2, 77, 67
4, 1023232, Note_on_c, 2, 74, 67
4, 1023232, Note_on_c, 2, 77, 67
4, 1023296, Note_off_c, 2, 74, 67
4, 1023296, Note_off_c, 2, 77, 67
4, 1023360, Note_off_c, 2, 74, 67
4, 1023360, Note_off_c, 2, 77, 67
4, 1023360, Note_on_c, 2, 74, 67
4, 1023424, Note_off_c, 2, 74, 67
4, 1023424, Note_on_c, 2, 75, 67
4, 1023488, Note_off_c, 2, 75, 67
4, 1023488, Note_on_c, 2, 77, 67
4, 1023552, Note_off_c, 2, 77, 67
4, 1023616, Note_off_c, 2, 77, 67
4, 1023616, Note_on_c, 2, 74, 67
4, 1023616, Note_on_c, 2, 77, 67
4, 1023680, Note_off_c, 2, 74, 67
4, 1023680, Note_off_c, 2, 77, 67
4, 1023744, Note_off_c, 2, 74, 67
4, 1023744, Note_off_c, 2, 77, 67
4, 1023744, Note_on_c, 2, 74, 67
4, 1023744, Note_on_c, 2, 77, 67
4, 1023808, Note_off_c, 2, 74, 67
4, 1023808, Note_off_c, 2, 77, 67
4, 1023872, Note_off_c, 2, 74, 67
4, 1023872, Note_off_c, 2, 77, 67
4, 1023872, Note_on_c, 2, 74, 67
4, 1023936, Note_off_c, 2, 74, 67
4, 1023936, Note_on_c, 2, 75, 67
4, 1024000, Note_off_c, 2, 75, 67
4, 1024000, Note_on_c, 2, 70, 67
4, 1024000, Note_on_c, 2, 77, 67
4, 1024064, Note_off_c, 2, 70, 67
4, 1024064, Note_off_c, 2, 77, 67
4, 1024128, Note_off_c, 2, 70, 67
4, 1024128, Note_off_c, 2, 77, 67
4, 1024128, Note_on_c, 2, 74, 67
4, 1024128, Note_on_c, 2, 77, 67
4, 1024192, Note_off_c, 2, 74, 67
4, 1024192, Note_off_c, 2, 77, 67
4, 1024256, Note_off_c, 2, 74, 67
4, 1024256, Note_off_c, 2, 77, 67
4, 1024256, Note_on_c, 2, 74, 67
4, 1024256, Note_on_c, 2, 79, 67
4, 1024288, Note_off_c, 2, 74, 67
4, 1024288, Note_off_c, 2, 79, 67
4, 1024320, Note_off_c, 2, 74, 67
4, 1024320, Note_off_c, 2, 79, 67
4, 1024320, Note_on_c, 2, 72, 67
4, 1024320, Note_on_c, 2, 77, 67
4, 1024352, Note_off_c, 2, 72, 67
4, 1024352, Note_off_c, 2, 77, 67
4, 1024384, Note_off_c, 2, 72, 67
4, 1024384, Note_off_c, 2, 77, 67
4, 1024384, Note_on_c, 2, 70, 67
4, 1024384, Note_on_c, 2, 77, 67
4, 1024416, Note_off_c, 2, 70, 67
4, 1024416, Note_off_c, 2, 77, 67
4, 1024448, Note_off_c, 2, 70, 67
4, 1024448, Note_off_c, 2, 77, 67
4, 1024448, Note_on_c, 2, 68, 67
4, 1024448, Note_on_c, 2, 79, 67
4, 1024480, Note_off_c, 2, 68, 67
4, 1024480, Note_off_c, 2, 79, 67
4, 1024512, Note_off_c, 2, 68, 67
4, 1024512, Note_off_c, 2, 79, 67
4, 1024512, Note_on_c, 2, 67, 67
4, 1024512, Note_on_c, 2, 75, 67
4, 1024576, Note_off_c, 2, 67, 67
4, 1024576, Note_off_c, 2, 75, 67
4, 1024640, Note_off_c, 2, 67, 67
4, 1024640, Note_off_c, 2, 75, 67
4, 1024640, Note_on_c, 2, 70, 67
4, 1024704, Note_off_c, 2, 70, 67
4, 1024768, Note_off_c, 2, 70, 67
4, 1024768, Note_on_c, 2, 70, 67
4, 1024768, Note_on_c, 2, 79, 67
4, 1024832, Note_off_c, 2, 70, 67
4, 1024832, Note_off_c, 2, 79, 67
4, 1024896, Note_off_c, 2, 70, 67
4, 1024896, Note_off_c, 2, 79, 67
4, 1024896, Note_on_c, 2, 75, 67
4, 1024960, Note_off_c, 2, 75, 67
4, 1024960, Note_on_c, 2, 77, 67
4, 1025024, Note_off_c, 2, 77, 67
4, 1025024, Note_on_c, 2, 79, 67
4, 1025088, Note_off_c, 2, 79, 67
4, 1025152, Note_off_c, 2, 79, 67
4, 1025152, Note_on_c, 2, 75, 67
4, 1025152, Note_on_c, 2, 79, 67
4, 1025216, Note_off_c, 2, 75, 67
4, 1025216, Note_off_c, 2, 79, 67
4, 1025280, Note_off_c, 2, 75, 67
4, 1025280, Note_off_c, 2, 79, 67
4, 1025280, Note_on_c, 2, 75, 67
4, 1025280, Note_on_c, 2, 79, 67
4, 1025344, Note_off_c, 2, 75, 67
4, 1025344, Note_off_c, 2, 79, 67
4, 1025408, Note_off_c, 2, 75, 67
4, 1025408, Note_off_c, 2, 79, 67
4, 1025408, Note_on_c, 2, 75, 67
4, 1025472, Note_off_c, 2, 75, 67
4, 1025472, Note_on_c, 2, 77, 67
4, 1025536, Note_off_c, 2, 77, 67
4, 1025536, Note_on_c, 2, 79, 67
4, 1025600, Note_off_c, 2, 79, 67
4, 1025664, Note_off_c, 2, 79, 67
4, 1025664, Note_on_c, 2, 75, 67
4, 1025664, Note_on_c, 2, 79, 67
4, 1025728, Note_off_c, 2, 75, 67
4, 1025728, Note_off_c, 2, 79, 67
4, 1025792, Note_off_c, 2, 75, 67
4, 1025792, Note_off_c, 2, 79, 67
4, 1025792, Note_on_c, 2, 75, 67
4, 1025792, Note_on_c, 2, 79, 67
4, 1025856, Note_off_c, 2, 75, 67
4, 1025856, Note_off_c, 2, 79, 67
4, 1025920, Note_off_c, 2, 75, 67
4, 1025920, Note_off_c, 2, 79, 67
4, 1025920, Note_on_c, 2, 75, 67
4, 1025984, Note_off_c, 2, 75, 67
4, 1025984, Note_on_c, 2, 77, 67
4, 1026048, Note_off_c, 2, 77, 67
4, 1026048, Note_on_c, 2, 79, 67
4, 1026112, Note_off_c, 2, 79, 67
4, 1026176, Note_off_c, 2, 79, 67
4, 1026176, Note_on_c, 2, 75, 67
4, 1026176, Note_on_c, 2, 79, 67
4, 1026240, Note_off_c, 2, 75, 67
4, 1026240, Note_off_c, 2, 79, 67
4, 1026304, Note_off_c, 2, 75, 67
4, 1026304, Note_off_c, 2, 79, 67
4, 1026304, Note_on_c, 2, 75, 67
4, 1026304, Note_on_c, 2, 80, 67
4, 1026336, Note_off_c, 2, 75, 67
4, 1026336, Note_off_c, 2, 80, 67
4, 1026368, Note_off_c, 2, 75, 67
4, 1026368, Note_off_c, 2, 80, 67
4, 1026368, Note_on_c, 2, 74, 67
4, 1026432, Note_off_c, 2, 74, 67
4, 1026432, Note_on_c, 2, 72, 67
4, 1026496, Note_off_c, 2, 72, 67
4, 1026496, Note_on_c, 2, 74, 67
4, 1026496, Note_on_c, 2, 79, 67
4, 1026528, Note_off_c, 2, 74, 67
4, 1026528, Note_off_c, 2, 79, 67
4, 1026560, Note_off_c, 2, 74, 67
4, 1026560, Note_off_c, 2, 79, 67
4, 1026560, Note_on_c, 2, 70, 67
4, 1026560, Note_on_c, 2, 77, 67
4, 1026624, Note_off_c, 2, 70, 67
4, 1026624, Note_off_c, 2, 77, 67
4, 1026688, Note_off_c, 2, 70, 67
4, 1026688, Note_off_c, 2, 77, 67
4, 1026688, Note_on_c, 2, 68, 67
4, 1026688, Note_on_c, 2, 70, 67
4, 1026752, Note_off_c, 2, 68, 67
4, 1026752, Note_off_c, 2, 70, 67
4, 1026816, Note_off_c, 2, 68, 67
4, 1026816, Note_off_c, 2, 70, 67
4, 1026816, Note_on_c, 2, 68, 67
4, 1026816, Note_on_c, 2, 70, 67
4, 1026880, Note_off_c, 2, 68, 67
4, 1026880, Note_off_c, 2, 70, 67
4, 1026944, Note_off_c, 2, 68, 67
4, 1026944, Note_off_c, 2, 70, 67
4, 1026944, Note_on_c, 2, 74, 67
4, 1027008, Note_off_c, 2, 74, 67
4, 1027008, Note_on_c, 2, 75, 67
4, 1027072, Note_off_c, 2, 75, 67
4, 1027072, Note_on_c, 2, 77, 67
4, 1027200, Note_off_c, 2, 77, 67
4, 1027200, Note_on_c, 2, 74, 67
4, 1027200, Note_on_c, 2, 80, 67
4, 1027264, Note_off_c, 2, 74, 67
4, 1027264, Note_off_c, 2, 80, 67
4, 1027328, Note_off_c, 2, 74, 67
4, 1027328, Note_off_c, 2, 80, 67
4, 1027328, Note_on_c, 2, 74, 67
4, 1027328, Note_on_c, 2, 79, 67
4, 1027392, Note_off_c, 2, 74, 67
4, 1027392, Note_off_c, 2, 79, 67
4, 1027456, Note_off_c, 2, 74, 67
4, 1027456, Note_off_c, 2, 79, 67
4, 1027456, Note_on_c, 2, 77, 67
4, 1027520, Note_off_c, 2, 77, 67
4, 1027584, Note_off_c, 2, 77, 67
4, 1027584, Note_on_c, 2, 75, 67
4, 1027648, Note_off_c, 2, 75, 67
4, 1027712, Note_off_c, 2, 75, 67
4, 1027712, Note_on_c, 2, 70, 67
4, 1027712, Note_on_c, 2, 74, 67
4, 1027776, Note_off_c, 2, 70, 67
4, 1027776, Note_off_c, 2, 74, 67
4, 1027840, Note_off_c, 2, 70, 67
4, 1027840, Note_off_c, 2, 74, 67
4, 1027840, Note_on_c, 2, 72, 67
4, 1027840, Note_on_c, 2, 74, 67
4, 1027904, Note_off_c, 2, 72, 67
4, 1027904, Note_off_c, 2, 74, 67
4, 1027968, Note_off_c, 2, 72, 67
4, 1027968, Note_off_c, 2, 74, 67
4, 1027968, Note_on_c, 2, 70, 67
4, 1027968, Note_on_c, 2, 74, 67
4, 1028032, Note_off_c, 2, 70, 67
4, 1028032, Note_off_c, 2, 74, 67
4, 1028096, Note_off_c, 2, 70, 67
4, 1028096, Note_off_c, 2, 74, 67
4, 1028096, Note_on_c, 2, 80, 67
4, 1028096, Note_on_c, 2, 84, 67
4, 1028352, Note_off_c, 2, 80, 67
4, 1028352, Note_off_c, 2, 84, 67
4, 1028352, Note_on_c, 2, 70, 67
4, 1028352, Note_on_c, 2, 74, 67
4, 1028368, Note_off_c, 2, 70, 67
4, 1028368, Note_off_c, 2, 74, 67
4, 1028384, Note_off_c, 2, 70, 67
4, 1028384, Note_off_c, 2, 74, 67
4, 1028384, Note_on_c, 2, 72, 67
4, 1028384, Note_on_c, 2, 75, 67
4, 1028400, Note_off_c, 2, 72, 67
4, 1028400, Note_off_c, 2, 75, 67
4, 1028416, Note_off_c, 2, 72, 67
4, 1028416, Note_off_c, 2, 75, 67
4, 1028416, Note_on_c, 2, 70, 67
4, 1028416, Note_on_c, 2, 74, 67
4, 1028448, Note_off_c, 2, 70, 67
4, 1028448, Note_off_c, 2, 74, 67
4, 1028480, Note_off_c, 2, 70, 67
4, 1028480, Note_off_c, 2, 74, 67
4, 1028480, Note_on_c, 2, 68, 67
4, 1028480, Note_on_c, 2, 72, 67
4, 1028512, Note_off_c, 2, 68, 67
4, 1028512, Note_off_c, 2, 72, 67
4, 1028544, Note_off_c, 2, 68, 67
4, 1028544, Note_off_c, 2, 72, 67
4, 1028544, Note_on_c, 2, 74, 67
4, 1028544, Note_on_c, 2, 77, 67
4, 1028576, Note_off_c, 2, 74, 67
4, 1028576, Note_off_c, 2, 77, 67
4, 1028608, Note_off_c, 2, 74, 67
4, 1028608, Note_off_c, 2, 77, 67
4, 1028608, Note_on_c, 2, 75, 67
4, 1028608, Note_on_c, 2, 79, 67
4, 1028736, Note_off_c, 2, 75, 67
4, 1028736, Note_off_c, 2, 79, 67
4, 1028736, Note_on_c, 2, 70, 67
4, 1028800, Note_off_c, 2, 70, 67
4, 1028864, Note_off_c, 2, 70, 67
4, 1028864, Note_on_c, 2, 70, 67
4, 1028928, Note_off_c, 2, 70, 67
4, 1028992, Note_off_c, 2, 70, 67
4, 1028992, Note_on_c, 2, 75, 67
4, 1028992, Note_on_c, 2, 79, 67
4, 1029056, Note_off_c, 2, 75, 67
4, 1029056, Note_off_c, 2, 79, 67
4, 1029056, Note_on_c, 2, 77, 67
4, 1029056, Note_on_c, 2, 80, 67
4, 1029120, Note_off_c, 2, 77, 67
4, 1029120, Note_off_c, 2, 80, 67
4, 1029120, Note_on_c, 2, 79, 67
4, 1029120, Note_on_c, 2, 82, 67
4, 1029184, Note_off_c, 2, 79, 67
4, 1029184, Note_off_c, 2, 82, 67
4, 1029248, Note_off_c, 2, 79, 67
4, 1029248, Note_off_c, 2, 82, 67
4, 1029248, Note_on_c, 2, 79, 67
4, 1029248, Note_on_c, 2, 82, 67
4, 1029312, Note_off_c, 2, 79, 67
4, 1029312, Note_off_c, 2, 82, 67
4, 1029376, Note_off_c, 2, 79, 67
4, 1029376, Note_off_c, 2, 82, 67
4, 1029376, Note_on_c, 2, 70, 67
4, 1029376, Note_on_c, 2, 79, 67
4, 1029440, Note_off_c, 2, 70, 67
4, 1029440, Note_off_c, 2, 79, 67
4, 1029504, Note_off_c, 2, 70, 67
4, 1029504, Note_off_c, 2, 79, 67
4, 1029504, Note_on_c, 2, 70, 67
4, 1029504, Note_on_c, 2, 75, 67
4, 1029568, Note_off_c, 2, 70, 67
4, 1029568, Note_off_c, 2, 75, 67
4, 1029632, Note_off_c, 2, 70, 67
4, 1029632, Note_off_c, 2, 75, 67
4, 1029632, Note_on_c, 2, 84, 67
4, 1029632, Note_on_c, 2, 87, 67
4, 1029696, Note_off_c, 2, 84, 67
4, 1029696, Note_off_c, 2, 87, 67
4, 1029760, Note_off_c, 2, 84, 67
4, 1029760, Note_off_c, 2, 87, 67
4, 1029760, Note_on_c, 2, 82, 67
4, 1029760, Note_on_c, 2, 86, 67
4, 1029824, Note_off_c, 2, 82, 67
4, 1029824, Note_off_c, 2, 86, 67
4, 1029888, Note_off_c, 2, 82, 67
4, 1029888, Note_off_c, 2, 86, 67
4, 1029888, Note_on_c, 2, 80, 67
4, 1029888, Note_on_c, 2, 84, 67
4, 1029952, Note_off_c, 2, 80, 67
4, 1029952, Note_off_c, 2, 84, 67
4, 1030016, Note_off_c, 2, 80, 67
4, 1030016, Note_off_c, 2, 84, 67
4, 1030016, Note_on_c, 2, 79, 67
4, 1030016, Note_on_c, 2, 87, 67
4, 1030080, Note_off_c, 2, 79, 67
4, 1030080, Note_off_c, 2, 87, 67
4, 1030144, Note_off_c, 2, 79, 67
4, 1030144, Note_off_c, 2, 87, 67
4, 1030144, Note_on_c, 2, 75, 67
4, 1030144, Note_on_c, 2, 82, 67
4, 1030208, Note_off_c, 2, 75, 67
4, 1030208, Note_off_c, 2, 82, 67
4, 1030272, Note_off_c, 2, 75, 67
4, 1030272, Note_off_c, 2, 82, 67
4, 1030272, Note_on_c, 2, 79, 67
4, 1030336, Note_off_c, 2, 79, 67
4, 1030400, Note_off_c, 2, 79, 67
4, 1030400, Note_on_c, 2, 67, 67
4, 1030400, Note_on_c, 2, 75, 67
4, 1030464, Note_off_c, 2, 67, 67
4, 1030464, Note_off_c, 2, 75, 67
4, 1030528, Note_off_c, 2, 67, 67
4, 1030528, Note_off_c, 2, 75, 67
4, 1030528, Note_on_c, 2, 68, 67
4, 1030528, Note_on_c, 2, 74, 67
4, 1030560, Note_off_c, 2, 68, 67
4, 1030560, Note_off_c, 2, 74, 67
4, 1030592, Note_off_c, 2, 68, 67
4, 1030592, Note_off_c, 2, 74, 67
4, 1030592, Note_on_c, 2, 74, 67
4, 1030592, Note_on_c, 2, 79, 67
4, 1030624, Note_off_c, 2, 74, 67
4, 1030624, Note_off_c, 2, 79, 67
4, 1030656, Note_off_c, 2, 74, 67
4, 1030656, Note_off_c, 2, 79, 67
4, 1030656, Note_on_c, 2, 70, 67
4, 1030656, Note_on_c, 2, 77, 67
4, 1030720, Note_off_c, 2, 70, 67
4, 1030720, Note_off_c, 2, 77, 67
4, 1030784, Note_off_c, 2, 70, 67
4, 1030784, Note_off_c, 2, 77, 67
4, 1030784, Note_on_c, 2, 65, 67
4, 1030784, Note_on_c, 2, 70, 67
4, 1030848, Note_off_c, 2, 65, 67
4, 1030848, Note_off_c, 2, 70, 67
4, 1030912, Note_off_c, 2, 65, 67
4, 1030912, Note_off_c, 2, 70, 67
4, 1030912, Note_on_c, 2, 68, 67
4, 1030912, Note_on_c, 2, 70, 67
4, 1030976, Note_off_c, 2, 68, 67
4, 1030976, Note_off_c, 2, 70, 67
4, 1031040, Note_off_c, 2, 68, 67
4, 1031040, Note_off_c, 2, 70, 67
4, 1031040, Note_on_c, 2, 70, 67
4, 1031040, Note_on_c, 2, 79, 67
4, 1031104, Note_off_c, 2, 70, 67
4, 1031104, Note_off_c, 2, 79, 67
4, 1031104, Note_on_c, 2, 77, 67
4, 1031104, Note_on_c, 2, 80, 67
4, 1031168, Note_off_c, 2, 77, 67
4, 1031168, Note_off_c, 2, 80, 67
4, 1031168, Note_on_c, 2, 79, 67
4, 1031168, Note_on_c, 2, 82, 67
4, 1031232, Note_off_c, 2, 79, 67
4, 1031232, Note_off_c, 2, 82, 67
4, 1031296, Note_off_c, 2, 79, 67
4, 1031296, Note_off_c, 2, 82, 67
4, 1031296, Note_on_c, 2, 79, 67
4, 1031296, Note_on_c, 2, 82, 67
4, 1031360, Note_off_c, 2, 79, 67
4, 1031360, Note_off_c, 2, 82, 67
4, 1031424, Note_off_c, 2, 79, 67
4, 1031424, Note_off_c, 2, 82, 67
4, 1031424, Note_on_c, 2, 70, 67
4, 1031424, Note_on_c, 2, 79, 67
4, 1031488, Note_off_c, 2, 70, 67
4, 1031488, Note_off_c, 2, 79, 67
4, 1031552, Note_off_c, 2, 70, 67
4, 1031552, Note_off_c, 2, 79, 67
4, 1031552, Note_on_c, 2, 75, 67
4, 1031552, Note_on_c, 2, 82, 67
4, 1031616, Note_off_c, 2, 75, 67
4, 1031616, Note_off_c, 2, 82, 67
4, 1031680, Note_off_c, 2, 75, 67
4, 1031680, Note_off_c, 2, 82, 67
4, 1031680, Note_on_c, 2, 84, 67
4, 1031680, Note_on_c, 2, 87, 67
4, 1031744, Note_off_c, 2, 84, 67
4, 1031744, Note_off_c, 2, 87, 67
4, 1031808, Note_off_c, 2, 84, 67
4, 1031808, Note_off_c, 2, 87, 67
4, 1031808, Note_on_c, 2, 82, 67
4, 1031808, Note_on_c, 2, 86, 67
4, 1031872, Note_off_c, 2, 82, 67
4, 1031872, Note_off_c, 2, 86, 67
4, 1031936, Note_off_c, 2, 82, 67
4, 1031936, Note_off_c, 2, 86, 67
4, 1031936, Note_on_c, 2, 80, 67
4, 1031936, Note_on_c, 2, 84, 67
4, 1032000, Note_off_c, 2, 80, 67
4, 1032000, Note_off_c, 2, 84, 67
4, 1032064, Note_off_c, 2, 80, 67
4, 1032064, Note_off_c, 2, 84, 67
4, 1032064, Note_on_c, 2, 70, 67
4, 1032064, Note_on_c, 2, 74, 67
4, 1032096, Note_off_c, 2, 70, 67
4, 1032096, Note_off_c, 2, 74, 67
4, 1032128, Note_off_c, 2, 70, 67
4, 1032128, Note_off_c, 2, 74, 67
4, 1032128, Note_on_c, 2, 77, 67
4, 1032128, Note_on_c, 2, 80, 67
4, 1032160, Note_off_c, 2, 77, 67
4, 1032160, Note_off_c, 2, 80, 67
4, 1032192, Note_off_c, 2, 77, 67
4, 1032192, Note_off_c, 2, 80, 67
4, 1032192, Note_on_c, 2, 77, 67
4, 1032192, Note_on_c, 2, 82, 67
4, 1032256, Note_off_c, 2, 77, 67
4, 1032256, Note_off_c, 2, 82, 67
4, 1032320, Note_off_c, 2, 77, 67
4, 1032320, Note_off_c, 2, 82, 67
4, 1032320, Note_on_c, 2, 80, 67
4, 1032320, Note_on_c, 2, 87, 67
4, 1032384, Note_off_c, 2, 80, 67
4, 1032384, Note_off_c, 2, 87, 67
4, 1032448, Note_off_c, 2, 80, 67
4, 1032448, Note_off_c, 2, 87, 67
4, 1032448, Note_on_c, 2, 82, 67
4, 1032448, Note_on_c, 2, 86, 67
4, 1032512, Note_off_c, 2, 82, 67
4, 1032512, Note_off_c, 2, 86, 67
4, 1032576, Note_off_c, 2, 82, 67
4, 1032576, Note_off_c, 2, 86, 67
4, 1032576, Note_on_c, 2, 80, 67
4, 1032576, Note_on_c, 2, 89, 67
4, 1032640, Note_off_c, 2, 80, 67
4, 1032640, Note_off_c, 2, 89, 67
4, 1032704, Note_off_c, 2, 80, 67
4, 1032704, Note_off_c, 2, 89, 67
4, 1032704, Note_on_c, 2, 79, 67
4, 1032704, Note_on_c, 2, 87, 67
4, 1032768, Note_off_c, 2, 79, 67
4, 1032768, Note_off_c, 2, 87, 67
4, 1032832, Note_off_c, 2, 79, 67
4, 1032832, Note_off_c, 2, 87, 67
4, 1032832, Note_on_c, 2, 70, 67
4, 1032832, Note_on_c, 2, 82, 67
4, 1032896, Note_off_c, 2, 70, 67
4, 1032896, Note_off_c, 2, 82, 67
4, 1032960, Note_off_c, 2, 70, 67
4, 1032960, Note_off_c, 2, 82, 67
4, 1032960, Note_on_c, 2, 70, 67
4, 1032960, Note_on_c, 2, 82, 67
4, 1033024, Note_off_c, 2, 70, 67
4, 1033024, Note_off_c, 2, 82, 67
4, 1033088, Note_off_c, 2, 70, 67
4, 1033088, Note_off_c, 2, 82, 67
4, 1033088, Note_on_c, 2, 75, 67
4, 1033152, Note_off_c, 2, 75, 67
4, 1033152, Note_on_c, 2, 77, 67
4, 1033216, Note_off_c, 2, 77, 67
4, 1033216, Note_on_c, 2, 79, 67
4, 1033280, Note_off_c, 2, 79, 67
4, 1033344, Note_off_c, 2, 79, 67
4, 1033344, Note_on_c, 2, 75, 67
4, 1033344, Note_on_c, 2, 79, 67
4, 1033408, Note_off_c, 2, 75, 67
4, 1033408, Note_off_c, 2, 79, 67
4, 1033472, Note_off_c, 2, 75, 67
4, 1033472, Note_off_c, 2, 79, 67
4, 1033472, Note_on_c, 2, 75, 67
4, 1033472, Note_on_c, 2, 79, 67
4, 1033536, Note_off_c, 2, 75, 67
4, 1033536, Note_off_c, 2, 79, 67
4, 1033600, Note_off_c, 2, 75, 67
4, 1033600, Note_off_c, 2, 79, 67
4, 1033600, Note_on_c, 2, 75, 67
4, 1033664, Note_off_c, 2, 75, 67
4, 1033664, Note_on_c, 2, 77, 67
4, 1033728, Note_off_c, 2, 77, 67
4, 1033728, Note_on_c, 2, 79, 67
4, 1033792, Note_off_c, 2, 79, 67
4, 1033856, Note_off_c, 2, 79, 67
4, 1033856, Note_on_c, 2, 75, 67
4, 1033856, Note_on_c, 2, 79, 67
4, 1033920, Note_off_c, 2, 75, 67
4, 1033920, Note_off_c, 2, 79, 67
4, 1033984, Note_off_c, 2, 75, 67
4, 1033984, Note_off_c, 2, 79, 67
4, 1033984, Note_on_c, 2, 75, 67
4, 1033984, Note_on_c, 2, 79, 67
4, 1034048, Note_off_c, 2, 75, 67
4, 1034048, Note_off_c, 2, 79, 67
4, 1034112, Note_off_c, 2, 75, 67
4, 1034112, Note_off_c, 2, 79, 67
4, 1034112, Note_on_c, 2, 75, 67
4, 1034176, Note_off_c, 2, 75, 67
4, 1034176, Note_on_c, 2, 77, 67
4, 1034240, Note_off_c, 2, 77, 67
4, 1034240, Note_on_c, 2, 79, 67
4, 1034304, Note_off_c, 2, 79, 67
4, 1034368, Note_off_c, 2, 79, 67
4, 1034368, Note_on_c, 2, 75, 67
4, 1034368, Note_on_c, 2, 79, 67
4, 1034432, Note_off_c, 2, 75, 67
4, 1034432, Note_off_c, 2, 79, 67
4, 1034496, Note_off_c, 2, 75, 67
4, 1034496, Note_off_c, 2, 79, 67
4, 1034496, Note_on_c, 2, 75, 67
4, 1034496, Note_on_c, 2, 80, 67
4, 1034528, Note_off_c, 2, 75, 67
4, 1034528, Note_off_c, 2, 80, 67
4, 1034560, Note_off_c, 2, 75, 67
4, 1034560, Note_off_c, 2, 80, 67
4, 1034560, Note_on_c, 2, 74, 67
4, 1034592, Note_off_c, 2, 74, 67
4, 1034624, Note_off_c, 2, 74, 67
4, 1034624, Note_on_c, 2, 72, 67
4, 1034656, Note_off_c, 2, 72, 67
4, 1034688, Note_off_c, 2, 72, 67
4, 1034688, Note_on_c, 2, 74, 67
4, 1034688, Note_on_c, 2, 79, 67
4, 1034720, Note_off_c, 2, 74, 67
4, 1034720, Note_off_c, 2, 79, 67
4, 1034752, Note_off_c, 2, 74, 67
4, 1034752, Note_off_c, 2, 79, 67
4, 1034752, Note_on_c, 2, 70, 67
4, 1034752, Note_on_c, 2, 77, 67
4, 1034816, Note_off_c, 2, 70, 67
4, 1034816, Note_off_c, 2, 77, 67
4, 1034880, Note_off_c, 2, 70, 67
4, 1034880, Note_off_c, 2, 77, 67
4, 1034880, Note_on_c, 2, 68, 67
4, 1034880, Note_on_c, 2, 70, 67
4, 1034944, Note_off_c, 2, 68, 67
4, 1034944, Note_off_c, 2, 70, 67
4, 1035008, Note_off_c, 2, 68, 67
4, 1035008, Note_off_c, 2, 70, 67
4, 1035008, Note_on_c, 2, 68, 67
4, 1035008, Note_on_c, 2, 70, 67
4, 1035072, Note_off_c, 2, 68, 67
4, 1035072, Note_off_c, 2, 70, 67
4, 1035136, Note_off_c, 2, 68, 67
4, 1035136, Note_off_c, 2, 70, 67
4, 1035136, Note_on_c, 2, 74, 67
4, 1035200, Note_off_c, 2, 74, 67
4, 1035200, Note_on_c, 2, 75, 67
4, 1035264, Note_off_c, 2, 75, 67
4, 1035264, Note_on_c, 2, 77, 67
4, 1035328, Note_off_c, 2, 77, 67
4, 1035392, Note_off_c, 2, 77, 67
4, 1035392, Note_on_c, 2, 74, 67
4, 1035392, Note_on_c, 2, 77, 67
4, 1035456, Note_off_c, 2, 74, 67
4, 1035456, Note_off_c, 2, 77, 67
4, 1035520, Note_off_c, 2, 74, 67
4, 1035520, Note_off_c, 2, 77, 67
4, 1035520, Note_on_c, 2, 74, 67
4, 1035520, Note_on_c, 2, 77, 67
4, 1035584, Note_off_c, 2, 74, 67
4, 1035584, Note_off_c, 2, 77, 67
4, 1035648, Note_off_c, 2, 74, 67
4, 1035648, Note_off_c, 2, 77, 67
4, 1035648, Note_on_c, 2, 74, 67
4, 1035712, Note_off_c, 2, 74, 67
4, 1035712, Note_on_c, 2, 75, 67
4, 1035776, Note_off_c, 2, 75, 67
4, 1035776, Note_on_c, 2, 77, 67
4, 1035840, Note_off_c, 2, 77, 67
4, 1035904, Note_off_c, 2, 77, 67
4, 1035904, Note_on_c, 2, 74, 67
4, 1035904, Note_on_c, 2, 77, 67
4, 1035968, Note_off_c, 2, 74, 67
4, 1035968, Note_off_c, 2, 77, 67
4, 1036032, Note_off_c, 2, 74, 67
4, 1036032, Note_off_c, 2, 77, 67
4, 1036032, Note_on_c, 2, 74, 67
4, 1036032, Note_on_c, 2, 77, 67
4, 1036096, Note_off_c, 2, 74, 67
4, 1036096, Note_off_c, 2, 77, 67
4, 1036160, Note_off_c, 2, 74, 67
4, 1036160, Note_off_c, 2, 77, 67
4, 1036160, Note_on_c, 2, 74, 67
4, 1036224, Note_off_c, 2, 74, 67
4, 1036224, Note_on_c, 2, 75, 67
4, 1036288, Note_off_c, 2, 75, 67
4, 1036288, Note_on_c, 2, 70, 67
4, 1036288, Note_on_c, 2, 77, 67
4, 1036352, Note_off_c, 2, 70, 67
4, 1036352, Note_off_c, 2, 77, 67
4, 1036416, Note_off_c, 2, 70, 67
4, 1036416, Note_off_c, 2, 77, 67
4, 1036416, Note_on_c, 2, 74, 67
4, 1036416, Note_on_c, 2, 77, 67
4, 1036480, Note_off_c, 2, 74, 67
4, 1036480, Note_off_c, 2, 77, 67
4, 1036544, Note_off_c, 2, 74, 67
4, 1036544, Note_off_c, 2, 77, 67
4, 1036544, Note_on_c, 2, 74, 67
4, 1036544, Note_on_c, 2, 79, 67
4, 1036576, Note_off_c, 2, 74, 67
4, 1036576, Note_off_c, 2, 79, 67
4, 1036608, Note_off_c, 2, 74, 67
4, 1036608, Note_off_c, 2, 79, 67
4, 1036608, Note_on_c, 2, 72, 67
4, 1036608, Note_on_c, 2, 77, 67
4, 1036640, Note_off_c, 2, 72, 67
4, 1036640, Note_off_c, 2, 77, 67
4, 1036672, Note_off_c, 2, 72, 67
4, 1036672, Note_off_c, 2, 77, 67
4, 1036672, Note_on_c, 2, 70, 67
4, 1036672, Note_on_c, 2, 77, 67
4, 1036704, Note_off_c, 2, 70, 67
4, 1036704, Note_off_c, 2, 77, 67
4, 1036736, Note_off_c, 2, 70, 67
4, 1036736, Note_off_c, 2, 77, 67
4, 1036736, Note_on_c, 2, 68, 67
4, 1036736, Note_on_c, 2, 79, 67
4, 1036768, Note_off_c, 2, 68, 67
4, 1036768, Note_off_c, 2, 79, 67
4, 1036800, Note_off_c, 2, 68, 67
4, 1036800, Note_off_c, 2, 79, 67
4, 1036800, Note_on_c, 2, 67, 67
4, 1036800, Note_on_c, 2, 75, 67
4, 1036864, Note_off_c, 2, 67, 67
4, 1036864, Note_off_c, 2, 75, 67
4, 1036928, Note_off_c, 2, 67, 67
4, 1036928, Note_off_c, 2, 75, 67
4, 1036928, Note_on_c, 2, 70, 67
4, 1036992, Note_off_c, 2, 70, 67
4, 1037056, Note_off_c, 2, 70, 67
4, 1037056, Note_on_c, 2, 70, 67
4, 1037056, Note_on_c, 2, 79, 67
4, 1037120, Note_off_c, 2, 70, 67
4, 1037120, Note_off_c, 2, 79, 67
4, 1037184, Note_off_c, 2, 70, 67
4, 1037184, Note_off_c, 2, 79, 67
4, 1037184, Note_on_c, 2, 75, 67
4, 1037248, Note_off_c, 2, 75, 67
4, 1037248, Note_on_c, 2, 77, 67
4, 1037312, Note_off_c, 2, 77, 67
4, 1037312, Note_on_c, 2, 79, 67
4, 1037376, Note_off_c, 2, 79, 67
4, 1037440, Note_off_c, 2, 79, 67
4, 1037440, Note_on_c, 2, 75, 67
4, 1037440, Note_on_c, 2, 79, 67
4, 1037504, Note_off_c, 2, 75, 67
4, 1037504, Note_off_c, 2, 79, 67
4, 1037568, Note_off_c, 2, 75, 67
4, 1037568, Note_off_c, 2, 79, 67
4, 1037568, Note_on_c, 2, 75, 67
4, 1037568, Note_on_c, 2, 79, 67
4, 1037632, Note_off_c, 2, 75, 67
4, 1037632, Note_off_c, 2, 79, 67
4, 1037696, Note_off_c, 2, 75, 67
4, 1037696, Note_off_c, 2, 79, 67
4, 1037696, Note_on_c, 2, 75, 67
4, 1037760, Note_off_c, 2, 75, 67
4, 1037760, Note_on_c, 2, 77, 67
4, 1037824, Note_off_c, 2, 77, 67
4, 1037824, Note_on_c, 2, 79, 67
4, 1037888, Note_off_c, 2, 79, 67
4, 1037952, Note_off_c, 2, 79, 67
4, 1037952, Note_on_c, 2, 75, 67
4, 1037952, Note_on_c, 2, 79, 67
4, 1038016, Note_off_c, 2, 75, 67
4, 1038016, Note_off_c, 2, 79, 67
4, 1038080, Note_off_c, 2, 75, 67
4, 1038080, Note_off_c, 2, 79, 67
4, 1038080, Note_on_c, 2, 75, 67
4, 1038080, Note_on_c, 2, 79, 67
4, 1038144, Note_off_c, 2, 75, 67
4, 1038144, Note_off_c, 2, 79, 67
4, 1038208, Note_off_c, 2, 75, 67
4, 1038208, Note_off_c, 2, 79, 67
4, 1038208, Note_on_c, 2, 75, 67
4, 1038272, Note_off_c, 2, 75, 67
4, 1038272, Note_on_c, 2, 77, 67
4, 1038336, Note_off_c, 2, 77, 67
4, 1038336, Note_on_c, 2, 79, 67
4, 1038400, Note_off_c, 2, 79, 67
4, 1038464, Note_off_c, 2, 79, 67
4, 1038464, Note_on_c, 2, 75, 67
4, 1038464, Note_on_c, 2, 79, 67
4, 1038528, Note_off_c, 2, 75, 67
4, 1038528, Note_off_c, 2, 79, 67
4, 1038592, Note_off_c, 2, 75, 67
4, 1038592, Note_off_c, 2, 79, 67
4, 1038592, Note_on_c, 2, 75, 67
4, 1038592, Note_on_c, 2, 80, 67
4, 1038624, Note_off_c, 2, 75, 67
4, 1038624, Note_off_c, 2, 80, 67
4, 1038656, Note_off_c, 2, 75, 67
4, 1038656, Note_off_c, 2, 80, 67
4, 1038656, Note_on_c, 2, 74, 67
4, 1038720, Note_off_c, 2, 74, 67
4, 1038720, Note_on_c, 2, 72, 67
4, 1038784, Note_off_c, 2, 72, 67
4, 1038784, Note_on_c, 2, 74, 67
4, 1038784, Note_on_c, 2, 79, 67
4, 1038816, Note_off_c, 2, 74, 67
4, 1038816, Note_off_c, 2, 79, 67
4, 1038848, Note_off_c, 2, 74, 67
4, 1038848, Note_off_c, 2, 79, 67
4, 1038848, Note_on_c, 2, 70, 67
4, 1038848, Note_on_c, 2, 77, 67
4, 1038912, Note_off_c, 2, 70, 67
4, 1038912, Note_off_c, 2, 77, 67
4, 1038976, Note_off_c, 2, 70, 67
4, 1038976, Note_off_c, 2, 77, 67
4, 1038976, Note_on_c, 2, 68, 67
4, 1038976, Note_on_c, 2, 70, 67
4, 1039040, Note_off_c, 2, 68, 67
4, 1039040, Note_off_c, 2, 70, 67
4, 1039104, Note_off_c, 2, 68, 67
4, 1039104, Note_off_c, 2, 70, 67
4, 1039104, Note_on_c, 2, 68, 67
4, 1039104, Note_on_c, 2, 70, 67
4, 1039168, Note_off_c, 2, 68, 67
4, 1039168, Note_off_c, 2, 70, 67
4, 1039232, Note_off_c, 2, 68, 67
4, 1039232, Note_off_c, 2, 70, 67
4, 1039232, Note_on_c, 2, 74, 67
4, 1039296, Note_off_c, 2, 74, 67
4, 1039296, Note_on_c, 2, 75, 67
4, 1039360, Note_off_c, 2, 75, 67
4, 1039360, Note_on_c, 2, 77, 67
4, 1039488, Note_off_c, 2, 77, 67
4, 1039488, Note_on_c, 2, 74, 67
4, 1039488, Note_on_c, 2, 80, 67
4, 1039552, Note_off_c, 2, 74, 67
4, 1039552, Note_off_c, 2, 80, 67
4, 1039616, Note_off_c, 2, 74, 67
4, 1039616, Note_off_c, 2, 80, 67
4, 1039616, Note_on_c, 2, 74, 67
4, 1039616, Note_on_c, 2, 79, 67
4, 1039680, Note_off_c, 2, 74, 67
4, 1039680, Note_off_c, 2, 79, 67
4, 1039744, Note_off_c, 2, 74, 67
4, 1039744, Note_off_c, 2, 79, 67
4, 1039744, Note_on_c, 2, 77, 67
4, 1039808, Note_off_c, 2, 77, 67
4, 1039872, Note_off_c, 2, 77, 67
4, 1039872, Note_on_c, 2, 75, 67
4, 1039936, Note_off_c, 2, 75, 67
4, 1040000, Note_off_c, 2, 75, 67
4, 1040000, Note_on_c, 2, 70, 67
4, 1040000, Note_on_c, 2, 74, 67
4, 1040064, Note_off_c, 2, 70, 67
4, 1040064, Note_off_c, 2, 74, 67
4, 1040128, Note_off_c, 2, 70, 67
4, 1040128, Note_off_c, 2, 74, 67
4, 1040128, Note_on_c, 2, 72, 67
4, 1040128, Note_on_c, 2, 74, 67
4, 1040192, Note_off_c, 2, 72, 67
4, 1040192, Note_off_c, 2, 74, 67
4, 1040256, Note_off_c, 2, 72, 67
4, 1040256, Note_off_c, 2, 74, 67
4, 1040256, Note_on_c, 2, 70, 67
4, 1040256, Note_on_c, 2, 74, 67
4, 1040320, Note_off_c, 2, 70, 67
4, 1040320, Note_off_c, 2, 74, 67
4, 1040384, Note_off_c, 2, 70, 67
4, 1040384, Note_off_c, 2, 74, 67
4, 1040384, Note_on_c, 2, 80, 67
4, 1040384, Note_on_c, 2, 84, 67
4, 1040640, Note_off_c, 2, 80, 67
4, 1040640, Note_off_c, 2, 84, 67
4, 1040640, Note_on_c, 2, 70, 67
4, 1040640, Note_on_c, 2, 74, 67
4, 1040656, Note_off_c, 2, 70, 67
4, 1040656, Note_off_c, 2, 74, 67
4, 1040672, Note_off_c, 2, 70, 67
4, 1040672, Note_off_c, 2, 74, 67
4, 1040672, Note_on_c, 2, 72, 67
4, 1040672, Note_on_c, 2, 75, 67
4, 1040688, Note_off_c, 2, 72, 67
4, 1040688, Note_off_c, 2, 75, 67
4, 1040704, Note_off_c, 2, 72, 67
4, 1040704, Note_off_c, 2, 75, 67
4, 1040704, Note_on_c, 2, 70, 67
4, 1040704, Note_on_c, 2, 74, 67
4, 1040736, Note_off_c, 2, 70, 67
4, 1040736, Note_off_c, 2, 74, 67
4, 1040768, Note_off_c, 2, 70, 67
4, 1040768, Note_off_c, 2, 74, 67
4, 1040768, Note_on_c, 2, 68, 67
4, 1040768, Note_on_c, 2, 72, 67
4, 1040800, Note_off_c, 2, 68, 67
4, 1040800, Note_off_c, 2, 72, 67
4, 1040832, Note_off_c, 2, 68, 67
4, 1040832, Note_off_c, 2, 72, 67
4, 1040832, Note_on_c, 2, 74, 67
4, 1040832, Note_on_c, 2, 77, 67
4, 1040864, Note_off_c, 2, 74, 67
4, 1040864, Note_off_c, 2, 77, 67
4, 1040896, Note_off_c, 2, 74, 67
4, 1040896, Note_off_c, 2, 77, 67
4, 1040896, Note_on_c, 2, 75, 67
4, 1040896, Note_on_c, 2, 79, 67
4, 1041024, Note_off_c, 2, 75, 67
4, 1041024, Note_off_c, 2, 79, 67
4, 1041024, Note_on_c, 2, 70, 67
4, 1041088, Note_off_c, 2, 70, 67
4, 1041152, Note_off_c, 2, 70, 67
4, 1041152, Note_on_c, 2, 70, 67
4, 1041216, Note_off_c, 2, 70, 67
4, 1041280, Note_off_c, 2, 70, 67
4, 1041280, Note_on_c, 2, 75, 67
4, 1041280, Note_on_c, 2, 79, 67
4, 1041344, Note_off_c, 2, 75, 67
4, 1041344, Note_off_c, 2, 79, 67
4, 1041344, Note_on_c, 2, 77, 67
4, 1041344, Note_on_c, 2, 80, 67
4, 1041408, Note_off_c, 2, 77, 67
4, 1041408, Note_off_c, 2, 80, 67
4, 1041408, Note_on_c, 2, 79, 67
4, 1041408, Note_on_c, 2, 82, 67
4, 1041472, Note_off_c, 2, 79, 67
4, 1041472, Note_off_c, 2, 82, 67
4, 1041536, Note_off_c, 2, 79, 67
4, 1041536, Note_off_c, 2, 82, 67
4, 1041536, Note_on_c, 2, 79, 67
4, 1041536, Note_on_c, 2, 82, 67
4, 1041600, Note_off_c, 2, 79, 67
4, 1041600, Note_off_c, 2, 82, 67
4, 1041664, Note_off_c, 2, 79, 67
4, 1041664, Note_off_c, 2, 82, 67
4, 1041664, Note_on_c, 2, 70, 67
4, 1041664, Note_on_c, 2, 79, 67
4, 1041728, Note_off_c, 2, 70, 67
4, 1041728, Note_off_c, 2, 79, 67
4, 1041792, Note_off_c, 2, 70, 67
4, 1041792, Note_off_c, 2, 79, 67
4, 1041792, Note_on_c, 2, 70, 67
4, 1041792, Note_on_c, 2, 75, 67
4, 1041856, Note_off_c, 2, 70, 67
4, 1041856, Note_off_c, 2, 75, 67
4, 1041920, Note_off_c, 2, 70, 67
4, 1041920, Note_off_c, 2, 75, 67
4, 1041920, Note_on_c, 2, 84, 67
4, 1041920, Note_on_c, 2, 87, 67
4, 1041984, Note_off_c, 2, 84, 67
4, 1041984, Note_off_c, 2, 87, 67
4, 1042048, Note_off_c, 2, 84, 67
4, 1042048, Note_off_c, 2, 87, 67
4, 1042048, Note_on_c, 2, 82, 67
4, 1042048, Note_on_c, 2, 86, 67
4, 1042112, Note_off_c, 2, 82, 67
4, 1042112, Note_off_c, 2, 86, 67
4, 1042176, Note_off_c, 2, 82, 67
4, 1042176, Note_off_c, 2, 86, 67
4, 1042176, Note_on_c, 2, 80, 67
4, 1042176, Note_on_c, 2, 84, 67
4, 1042240, Note_off_c, 2, 80, 67
4, 1042240, Note_off_c, 2, 84, 67
4, 1042304, Note_off_c, 2, 80, 67
4, 1042304, Note_off_c, 2, 84, 67
4, 1042304, Note_on_c, 2, 79, 67
4, 1042304, Note_on_c, 2, 87, 67
4, 1042368, Note_off_c, 2, 79, 67
4, 1042368, Note_off_c, 2, 87, 67
4, 1042432, Note_off_c, 2, 79, 67
4, 1042432, Note_off_c, 2, 87, 67
4, 1042432, Note_on_c, 2, 75, 67
4, 1042432, Note_on_c, 2, 82, 67
4, 1042496, Note_off_c, 2, 75, 67
4, 1042496, Note_off_c, 2, 82, 67
4, 1042560, Note_off_c, 2, 75, 67
4, 1042560, Note_off_c, 2, 82, 67
4, 1042560, Note_on_c, 2, 79, 67
4, 1042624, Note_off_c, 2, 79, 67
4, 1042688, Note_off_c, 2, 79, 67
4, 1042688, Note_on_c, 2, 67, 67
4, 1042688, Note_on_c, 2, 75, 67
4, 1042752, Note_off_c, 2, 67, 67
4, 1042752, Note_off_c, 2, 75, 67
4, 1042816, Note_off_c, 2, 67, 67
4, 1042816, Note_off_c, 2, 75, 67
4, 1042816, Note_on_c, 2, 68, 67
4, 1042816, Note_on_c, 2, 74, 67
4, 1042848, Note_off_c, 2, 68, 67
4, 1042848, Note_off_c, 2, 74, 67
4, 1042880, Note_off_c, 2, 68, 67
4, 1042880, Note_off_c, 2, 74, 67
4, 1042880, Note_on_c, 2, 74, 67
4, 1042880, Note_on_c, 2, 79, 67
4, 1042912, Note_off_c, 2, 74, 67
4, 1042912, Note_off_c, 2, 79, 67
4, 1042944, Note_off_c, 2, 74, 67
4, 1042944, Note_off_c, 2, 79, 67
4, 1042944, Note_on_c, 2, 70, 67
4, 1042944, Note_on_c, 2, 77, 67
4, 1043008, Note_off_c, 2, 70, 67
4, 1043008, Note_off_c, 2, 77, 67
4, 1043072, Note_off_c, 2, 70, 67
4, 1043072, Note_off_c, 2, 77, 67
4, 1043072, Note_on_c, 2, 65, 67
4, 1043072, Note_on_c, 2, 70, 67
4, 1043136, Note_off_c, 2, 65, 67
4, 1043136, Note_off_c, 2, 70, 67
4, 1043200, Note_off_c, 2, 65, 67
4, 1043200, Note_off_c, 2, 70, 67
4, 1043200, Note_on_c, 2, 68, 67
4, 1043200, Note_on_c, 2, 70, 67
4, 1043264, Note_off_c, 2, 68, 67
4, 1043264, Note_off_c, 2, 70, 67
4, 1043328, Note_off_c, 2, 68, 67
4, 1043328, Note_off_c, 2, 70, 67
4, 1043328, Note_on_c, 2, 70, 67
4, 1043328, Note_on_c, 2, 79, 67
4, 1043392, Note_off_c, 2, 70, 67
4, 1043392, Note_off_c, 2, 79, 67
4, 1043392, Note_on_c, 2, 77, 67
4, 1043392, Note_on_c, 2, 80, 67
4, 1043456, Note_off_c, 2, 77, 67
4, 1043456, Note_off_c, 2, 80, 67
4, 1043456, Note_on_c, 2, 79, 67
4, 1043456, Note_on_c, 2, 82, 67
4, 1043520, Note_off_c, 2, 79, 67
4, 1043520, Note_off_c, 2, 82, 67
4, 1043584, Note_off_c, 2, 79, 67
4, 1043584, Note_off_c, 2, 82, 67
4, 1043584, Note_on_c, 2, 79, 67
4, 1043584, Note_on_c, 2, 82, 67
4, 1043648, Note_off_c, 2, 79, 67
4, 1043648, Note_off_c, 2, 82, 67
4, 1043712, Note_off_c, 2, 79, 67
4, 1043712, Note_off_c, 2, 82, 67
4, 1043712, Note_on_c, 2, 70, 67
4, 1043712, Note_on_c, 2, 79, 67
4, 1043776, Note_off_c, 2, 70, 67
4, 1043776, Note_off_c, 2, 79, 67
4, 1043840, Note_off_c, 2, 70, 67
4, 1043840, Note_off_c, 2, 79, 67
4, 1043840, Note_on_c, 2, 75, 67
4, 1043840, Note_on_c, 2, 82, 67
4, 1043904, Note_off_c, 2, 75, 67
4, 1043904, Note_off_c, 2, 82, 67
4, 1043968, Note_off_c, 2, 75, 67
4, 1043968, Note_off_c, 2, 82, 67
4, 1043968, Note_on_c, 2, 84, 67
4, 1043968, Note_on_c, 2, 87, 67
4, 1044032, Note_off_c, 2, 84, 67
4, 1044032, Note_off_c, 2, 87, 67
4, 1044096, Note_off_c, 2, 84, 67
4, 1044096, Note_off_c, 2, 87, 67
4, 1044096, Note_on_c, 2, 82, 67
4, 1044096, Note_on_c, 2, 86, 67
4, 1044160, Note_off_c, 2, 82, 67
4, 1044160, Note_off_c, 2, 86, 67
4, 1044224, Note_off_c, 2, 82, 67
4, 1044224, Note_off_c, 2, 86, 67
4, 1044224, Note_on_c, 2, 80, 67
4, 1044224, Note_on_c, 2, 84, 67
4, 1044288, Note_off_c, 2, 80, 67
4, 1044288, Note_off_c, 2, 84, 67
4, 1044352, Note_off_c, 2, 80, 67
4, 1044352, Note_off_c, 2, 84, 67
4, 1044352, Note_on_c, 2, 70, 67
4, 1044352, Note_on_c, 2, 74, 67
4, 1044384, Note_off_c, 2, 70, 67
4, 1044384, Note_off_c, 2, 74, 67
4, 1044416, Note_off_c, 2, 70, 67
4, 1044416, Note_off_c, 2, 74, 67
4, 1044416, Note_on_c, 2, 77, 67
4, 1044416, Note_on_c, 2, 80, 67
4, 1044448, Note_off_c, 2, 77, 67
4, 1044448, Note_off_c, 2, 80, 67
4, 1044480, Note_off_c, 2, 77, 67
4, 1044480, Note_off_c, 2, 80, 67
4, 1044480, Note_on_c, 2, 77, 67
4, 1044480, Note_on_c, 2, 82, 67
4, 1044544, Note_off_c, 2, 77, 67
4, 1044544, Note_off_c, 2, 82, 67
4, 1044608, Note_off_c, 2, 77, 67
4, 1044608, Note_off_c, 2, 82, 67
4, 1044608, Note_on_c, 2, 80, 67
4, 1044608, Note_on_c, 2, 87, 67
4, 1044672, Note_off_c, 2, 80, 67
4, 1044672, Note_off_c, 2, 87, 67
4, 1044736, Note_off_c, 2, 80, 67
4, 1044736, Note_off_c, 2, 87, 67
4, 1044736, Note_on_c, 2, 82, 67
4, 1044736, Note_on_c, 2, 86, 67
4, 1044800, Note_off_c, 2, 82, 67
4, 1044800, Note_off_c, 2, 86, 67
4, 1044864, Note_off_c, 2, 82, 67
4, 1044864, Note_off_c, 2, 86, 67
4, 1044864, Note_on_c, 2, 80, 67
4, 1044864, Note_on_c, 2, 89, 67
4, 1044928, Note_off_c, 2, 80, 67
4, 1044928, Note_off_c, 2, 89, 67
4, 1044992, Note_off_c, 2, 80, 67
4, 1044992, Note_off_c, 2, 89, 67
4, 1044992, Note_on_c, 2, 79, 67
4, 1044992, Note_on_c, 2, 87, 67
4, 1045056, Note_off_c, 2, 79, 67
4, 1045056, Note_off_c, 2, 87, 67
4, 1045120, Note_off_c, 2, 79, 67
4, 1045120, Note_off_c, 2, 87, 67
4, 1045120, Note_on_c, 2, 70, 67
4, 1045120, Note_on_c, 2, 82, 67
4, 1045184, Note_off_c, 2, 70, 67
4, 1045184, Note_off_c, 2, 82, 67
4, 1045248, Note_off_c, 2, 70, 67
4, 1045248, Note_off_c, 2, 82, 67
4, 1045248, Note_on_c, 2, 70, 67
4, 1045248, Note_on_c, 2, 82, 67
4, 1045312, Note_off_c, 2, 70, 67
4, 1045312, Note_off_c, 2, 82, 67
4, 1045376, Note_off_c, 2, 70, 67
4, 1045376, Note_off_c, 2, 82, 67
4, 1045376, Note_on_c, 2, 75, 67
4, 1045440, Note_off_c, 2, 75, 67
4, 1045440, Note_on_c, 2, 77, 67
4, 1045504, Note_off_c, 2, 77, 67
4, 1045504, Note_on_c, 2, 79, 67
4, 1045568, Note_off_c, 2, 79, 67
4, 1045632, Note_off_c, 2, 79, 67
4, 1045632, Note_on_c, 2, 75, 67
4, 1045632, Note_on_c, 2, 79, 67
4, 1045696, Note_off_c, 2, 75, 67
4, 1045696, Note_off_c, 2, 79, 67
4, 1045760, Note_off_c, 2, 75, 67
4, 1045760, Note_off_c, 2, 79, 67
4, 1045760, Note_on_c, 2, 75, 67
4, 1045760, Note_on_c, 2, 79, 67
4, 1045824, Note_off_c, 2, 75, 67
4, 1045824, Note_off_c, 2, 79, 67
4, 1045888, Note_off_c, 2, 75, 67
4, 1045888, Note_off_c, 2, 79, 67
4, 1045888, Note_on_c, 2, 75, 67
4, 1045952, Note_off_c, 2, 75, 67
4, 1045952, Note_on_c, 2, 77, 67
4, 1046016, Note_off_c, 2, 77, 67
4, 1046016, Note_on_c, 2, 79, 67
4, 1046080, Note_off_c, 2, 79, 67
4, 1046144, Note_off_c, 2, 79, 67
4, 1046144, Note_on_c, 2, 75, 67
4, 1046144, Note_on_c, 2, 79, 67
4, 1046208, Note_off_c, 2, 75, 67
4, 1046208, Note_off_c, 2, 79, 67
4, 1046272, Note_off_c, 2, 75, 67
4, 1046272, Note_off_c, 2, 79, 67
4, 1046272, Note_on_c, 2, 75, 67
4, 1046272, Note_on_c, 2, 79, 67
4, 1046336, Note_off_c, 2, 75, 67
4, 1046336, Note_off_c, 2, 79, 67
4, 1046400, Note_off_c, 2, 75, 67
4, 1046400, Note_off_c, 2, 79, 67
4, 1046400, Note_on_c, 2, 75, 67
4, 1046464, Note_off_c, 2, 75, 67
4, 1046464, Note_on_c, 2, 77, 67
4, 1046528, Note_off_c, 2, 77, 67
4, 1046528, Note_on_c, 2, 79, 67
4, 1046592, Note_off_c, 2, 79, 67
4, 1046656, Note_off_c, 2, 79, 67
4, 1046656, Note_on_c, 2, 75, 67
4, 1046656, Note_on_c, 2, 79, 67
4, 1046720, Note_off_c, 2, 75, 67
4, 1046720, Note_off_c, 2, 79, 67
4, 1046784, Note_off_c, 2, 75, 67
4, 1046784, Note_off_c, 2, 79, 67
4, 1046784, Note_on_c, 2, 75, 67
4, 1046784, Note_on_c, 2, 80, 67
4, 1046816, Note_off_c, 2, 75, 67
4, 1046816, Note_off_c, 2, 80, 67
4, 1046848, Note_off_c, 2, 75, 67
4, 1046848, Note_off_c, 2, 80, 67
4, 1046848, Note_on_c, 2, 74, 67
4, 1046880, Note_off_c, 2, 74, 67
4, 1046912, Note_off_c, 2, 74, 67
4, 1046912, Note_on_c, 2, 72, 67
4, 1046944, Note_off_c, 2, 72, 67
4, 1046976, Note_off_c, 2, 72, 67
4, 1046976, Note_on_c, 2, 74, 67
4, 1046976, Note_on_c, 2, 79, 67
4, 1047008, Note_off_c, 2, 74, 67
4, 1047008, Note_off_c, 2, 79, 67
4, 1047040, Note_off_c, 2, 74, 67
4, 1047040, Note_off_c, 2, 79, 67
4, 1047040, Note_on_c, 2, 70, 67
4, 1047040, Note_on_c, 2, 77, 67
4, 1047104, Note_off_c, 2, 70, 67
4, 1047104, Note_off_c, 2, 77, 67
4, 1047168, Note_off_c, 2, 70, 67
4, 1047168, Note_off_c, 2, 77, 67
4, 1047168, Note_on_c, 2, 68, 67
4, 1047168, Note_on_c, 2, 70, 67
4, 1047232, Note_off_c, 2, 68, 67
4, 1047232, Note_off_c, 2, 70, 67
4, 1047296, Note_off_c, 2, 68, 67
4, 1047296, Note_off_c, 2, 70, 67
4, 1047296, Note_on_c, 2, 68, 67
4, 1047296, Note_on_c, 2, 70, 67
4, 1047360, Note_off_c, 2, 68, 67
4, 1047360, Note_off_c, 2, 70, 67
4, 1047424, Note_off_c, 2, 68, 67
4, 1047424, Note_off_c, 2, 70, 67
4, 1047424, Note_on_c, 2, 74, 67
4, 1047488, Note_off_c, 2, 74, 67
4, 1047488, Note_on_c, 2, 75, 67
4, 1047552, Note_off_c, 2, 75, 67
4, 1047552, Note_on_c, 2, 77, 67
4, 1047616, Note_off_c, 2, 77, 67
4, 1047680, Note_off_c, 2, 77, 67
4, 1047680, Note_on_c, 2, 74, 67
4, 1047680, Note_on_c, 2, 77, 67
4, 1047744, Note_off_c, 2, 74, 67
4, 1047744, Note_off_c, 2, 77, 67
4, 1047808, Note_off_c, 2, 74, 67
4, 1047808, Note_off_c, 2, 77, 67
4, 1047808, Note_on_c, 2, 74, 67
4, 1047808, Note_on_c, 2, 77, 67
4, 1047872, Note_off_c, 2, 74, 67
4, 1047872, Note_off_c, 2, 77, 67
4, 1047936, Note_off_c, 2, 74, 67
4, 1047936, Note_off_c, 2, 77, 67
4, 1047936, Note_on_c, 2, 74, 67
4, 1048000, Note_off_c, 2, 74, 67
4, 1048000, Note_on_c, 2, 75, 67
4, 1048064, Note_off_c, 2, 75, 67
4, 1048064, Note_on_c, 2, 77, 67
4, 1048128, Note_off_c, 2, 77, 67
4, 1048192, Note_off_c, 2, 77, 67
4, 1048192, Note_on_c, 2, 74, 67
4, 1048192, Note_on_c, 2, 77, 67
4, 1048256, Note_off_c, 2, 74, 67
4, 1048256, Note_off_c, 2, 77, 67
4, 1048320, Note_off_c, 2, 74, 67
4, 1048320, Note_off_c, 2, 77, 67
4, 1048320, Note_on_c, 2, 74, 67
4, 1048320, Note_on_c, 2, 77, 67
4, 1048384, Note_off_c, 2, 74, 67
4, 1048384, Note_off_c, 2, 77, 67
4, 1048448, Note_off_c, 2, 74, 67
4, 1048448, Note_off_c, 2, 77, 67
4, 1048448, Note_on_c, 2, 74, 67
4, 1048512, Note_off_c, 2, 74, 67
4, 1048512, Note_on_c, 2, 75, 67
4, 1048576, Note_off_c, 2, 75, 67
4, 1048576, Note_on_c, 2, 70, 67
4, 1048576, Note_on_c, 2, 77, 67
4, 1048640, Note_off_c, 2, 70, 67
4, 1048640, Note_off_c, 2, 77, 67
4, 1048704, Note_off_c, 2, 70, 67
4, 1048704, Note_off_c, 2, 77, 67
4, 1048704, Note_on_c, 2, 74, 67
4, 1048704, Note_on_c, 2, 77, 67
4, 1048768, Note_off_c, 2, 74, 67
4, 1048768, Note_off_c, 2, 77, 67
4, 1048832, Note_off_c, 2, 74, 67
4, 1048832, Note_off_c, 2, 77, 67
4, 1048832, Note_on_c, 2, 74, 67
4, 1048832, Note_on_c, 2, 79, 67
4, 1048864, Note_off_c, 2, 74, 67
4, 1048864, Note_off_c, 2, 79, 67
4, 1048896, Note_off_c, 2, 74, 67
4, 1048896, Note_off_c, 2, 79, 67
4, 1048896, Note_on_c, 2, 72, 67
4, 1048896, Note_on_c, 2, 77, 67
4, 1048928, Note_off_c, 2, 72, 67
4, 1048928, Note_off_c, 2, 77, 67
4, 1048960, Note_off_c, 2, 72, 67
4, 1048960, Note_off_c, 2, 77, 67
4, 1048960, Note_on_c, 2, 70, 67
4, 1048960, Note_on_c, 2, 77, 67
4, 1048992, Note_off_c, 2, 70, 67
4, 1048992, Note_off_c, 2, 77, 67
4, 1049024, Note_off_c, 2, 70, 67
4, 1049024, Note_off_c, 2, 77, 67
4, 1049024, Note_on_c, 2, 68, 67
4, 1049024, Note_on_c, 2, 79, 67
4, 1049056, Note_off_c, 2, 68, 67
4, 1049056, Note_off_c, 2, 79, 67
4, 1049088, Note_off_c, 2, 68, 67
4, 1049088, Note_off_c, 2, 79, 67
4, 1049088, Note_on_c, 2, 67, 67
4, 1049088, Note_on_c, 2, 75, 67
4, 1049152, Note_off_c, 2, 67, 67
4, 1049152, Note_off_c, 2, 75, 67
4, 1049216, Note_off_c, 2, 67, 67
4, 1049216, Note_off_c, 2, 75, 67
4, 1049216, Note_on_c, 2, 70, 67
4, 1049280, Note_off_c, 2, 70, 67
4, 1049344, Note_off_c, 2, 70, 67
4, 1049344, Note_on_c, 2, 70, 67
4, 1049344, Note_on_c, 2, 79, 67
4, 1049408, Note_off_c, 2, 70, 67
4, 1049408, Note_off_c, 2, 79, 67
4, 1049472, Note_off_c, 2, 70, 67
4, 1049472, Note_off_c, 2, 79, 67
4, 1049472, Note_on_c, 2, 75, 67
4, 1049536, Note_off_c, 2, 75, 67
4, 1049536, Note_on_c, 2, 77, 67
4, 1049600, Note_off_c, 2, 77, 67
4, 1049600, Note_on_c, 2, 79, 67
4, 1049664, Note_off_c, 2, 79, 67
4, 1049728, Note_off_c, 2, 79, 67
4, 1049728, Note_on_c, 2, 75, 67
4, 1049728, Note_on_c, 2, 79, 67
4, 1049792, Note_off_c, 2, 75, 67
4, 1049792, Note_off_c, 2, 79, 67
4, 1049856, Note_off_c, 2, 75, 67
4, 1049856, Note_off_c, 2, 79, 67
4, 1049856, Note_on_c, 2, 75, 67
4, 1049856, Note_on_c, 2, 79, 67
4, 1049920, Note_off_c, 2, 75, 67
4, 1049920, Note_off_c, 2, 79, 67
4, 1049984, Note_off_c, 2, 75, 67
4, 1049984, Note_off_c, 2, 79, 67
4, 1049984, Note_on_c, 2, 75, 67
4, 1050048, Note_off_c, 2, 75, 67
4, 1050048, Note_on_c, 2, 77, 67
4, 1050112, Note_off_c, 2, 77, 67
4, 1050112, Note_on_c, 2, 79, 67
4, 1050176, Note_off_c, 2, 79, 67
4, 1050240, Note_off_c, 2, 79, 67
4, 1050240, Note_on_c, 2, 75, 67
4, 1050240, Note_on_c, 2, 79, 67
4, 1050304, Note_off_c, 2, 75, 67
4, 1050304, Note_off_c, 2, 79, 67
4, 1050368, Note_off_c, 2, 75, 67
4, 1050368, Note_off_c, 2, 79, 67
4, 1050368, Note_on_c, 2, 75, 67
4, 1050368, Note_on_c, 2, 79, 67
4, 1050432, Note_off_c, 2, 75, 67
4, 1050432, Note_off_c, 2, 79, 67
4, 1050496, Note_off_c, 2, 75, 67
4, 1050496, Note_off_c, 2, 79, 67
4, 1050496, Note_on_c, 2, 75, 67
4, 1050560, Note_off_c, 2, 75, 67
4, 1050560, Note_on_c, 2, 77, 67
4, 1050624, Note_off_c, 2, 77, 67
4, 1050624, Note_on_c, 2, 79, 67
4, 1050688, Note_off_c, 2, 79, 67
4, 1050752, Note_off_c, 2, 79, 67
4, 1050752, Note_on_c, 2, 75, 67
4, 1050752, Note_on_c, 2, 79, 67
4, 1050816, Note_off_c, 2, 75, 67
4, 1050816, Note_off_c, 2, 79, 67
4, 1050880, Note_off_c, 2, 75, 67
4, 1050880, Note_off_c, 2, 79, 67
4, 1050880, Note_on_c, 2, 75, 67
4, 1050880, Note_on_c, 2, 80, 67
4, 1050912, Note_off_c, 2, 75, 67
4, 1050912, Note_off_c, 2, 80, 67
4, 1050944, Note_off_c, 2, 75, 67
4, 1050944, Note_off_c, 2, 80, 67
4, 1050944, Note_on_c, 2, 74, 67
4, 1051008, Note_off_c, 2, 74, 67
4, 1051008, Note_on_c, 2, 72, 67
4, 1051072, Note_off_c, 2, 72, 67
4, 1051072, Note_on_c, 2, 74, 67
4, 1051072, Note_on_c, 2, 79, 67
4, 1051104, Note_off_c, 2, 74, 67
4, 1051104, Note_off_c, 2, 79, 67
4, 1051136, Note_off_c, 2, 74, 67
4, 1051136, Note_off_c, 2, 79, 67
4, 1051136, Note_on_c, 2, 70, 67
4, 1051136, Note_on_c, 2, 77, 67
4, 1051200, Note_off_c, 2, 70, 67
4, 1051200, Note_off_c, 2, 77, 67
4, 1051264, Note_off_c, 2, 70, 67
4, 1051264, Note_off_c, 2, 77, 67
4, 1051264, Note_on_c, 2, 68, 67
4, 1051264, Note_on_c, 2, 70, 67
4, 1051328, Note_off_c, 2, 68, 67
4, 1051328, Note_off_c, 2, 70, 67
4, 1051392, Note_off_c, 2, 68, 67
4, 1051392, Note_off_c, 2, 70, 67
4, 1051392, Note_on_c, 2, 68, 67
4, 1051392, Note_on_c, 2, 70, 67
4, 1051456, Note_off_c, 2, 68, 67
4, 1051456, Note_off_c, 2, 70, 67
4, 1051520, Note_off_c, 2, 68, 67
4, 1051520, Note_off_c, 2, 70, 67
4, 1051520, Note_on_c, 2, 74, 67
4, 1051584, Note_off_c, 2, 74, 67
4, 1051584, Note_on_c, 2, 75, 67
4, 1051648, Note_off_c, 2, 75, 67
4, 1051648, Note_on_c, 2, 77, 67
4, 1051776, Note_off_c, 2, 77, 67
4, 1051776, Note_on_c, 2, 74, 67
4, 1051776, Note_on_c, 2, 80, 67
4, 1051840, Note_off_c, 2, 74, 67
4, 1051840, Note_off_c, 2, 80, 67
4, 1051904, Note_off_c, 2, 74, 67
4, 1051904, Note_off_c, 2, 80, 67
4, 1051904, Note_on_c, 2, 74, 67
4, 1051904, Note_on_c, 2, 79, 67
4, 1051968, Note_off_c, 2, 74, 67
4, 1051968, Note_off_c, 2, 79, 67
4, 1052032, Note_off_c, 2, 74, 67
4, 1052032, Note_off_c, 2, 79, 67
4, 1052032, Note_on_c, 2, 77, 67
4, 1052096, Note_off_c, 2, 77, 67
4, 1052160, Note_off_c, 2, 77, 67
4, 1052160, Note_on_c, 2, 75, 67
4, 1052224, Note_off_c, 2, 75, 67
4, 1052288, Note_off_c, 2, 75, 67
4, 1052288, Note_on_c, 2, 70, 67
4, 1052288, Note_on_c, 2, 74, 67
4, 1052352, Note_off_c, 2, 70, 67
4, 1052352, Note_off_c, 2, 74, 67
4, 1052416, Note_off_c, 2, 70, 67
4, 1052416, Note_off_c, 2, 74, 67
4, 1052416, Note_on_c, 2, 72, 67
4, 1052416, Note_on_c, 2, 74, 67
4, 1052480, Note_off_c, 2, 72, 67
4, 1052480, Note_off_c, 2, 74, 67
4, 1052544, Note_off_c, 2, 72, 67
4, 1052544, Note_off_c, 2, 74, 67
4, 1052544, Note_on_c, 2, 70, 67
4, 1052544, Note_on_c, 2, 74, 67
4, 1052608, Note_off_c, 2, 70, 67
4, 1052608, Note_off_c, 2, 74, 67
4, 1052672, Note_off_c, 2, 70, 67
4, 1052672, Note_off_c, 2, 74, 67
4, 1052672, Note_on_c, 2, 80, 67
4, 1052672, Note_on_c, 2, 84, 67
4, 1052928, Note_off_c, 2, 80, 67
4, 1052928, Note_off_c, 2, 84, 67
4, 1052928, Note_on_c, 2, 70, 67
4, 1052928, Note_on_c, 2, 74, 67
4, 1052944, Note_off_c, 2, 70, 67
4, 1052944, Note_off_c, 2, 74, 67
4, 1052960, Note_off_c, 2, 70, 67
4, 1052960, Note_off_c, 2, 74, 67
4, 1052960, Note_on_c, 2, 72, 67
4, 1052960, Note_on_c, 2, 75, 67
4, 1052976, Note_off_c, 2, 72, 67
4, 1052976, Note_off_c, 2, 75, 67
4, 1052992, Note_off_c, 2, 72, 67
4, 1052992, Note_off_c, 2, 75, 67
4, 1052992, Note_on_c, 2, 70, 67
4, 1052992, Note_on_c, 2, 74, 67
4, 1053024, Note_off_c, 2, 70, 67
4, 1053024, Note_off_c, 2, 74, 67
4, 1053056, Note_off_c, 2, 70, 67
4, 1053056, Note_off_c, 2, 74, 67
4, 1053056, Note_on_c, 2, 68, 67
4, 1053056, Note_on_c, 2, 72, 67
4, 1053088, Note_off_c, 2, 68, 67
4, 1053088, Note_off_c, 2, 72, 67
4, 1053120, Note_off_c, 2, 68, 67
4, 1053120, Note_off_c, 2, 72, 67
4, 1053120, Note_on_c, 2, 74, 67
4, 1053120, Note_on_c, 2, 77, 67
4, 1053152, Note_off_c, 2, 74, 67
4, 1053152, Note_off_c, 2, 77, 67
4, 1053184, Note_off_c, 2, 74, 67
4, 1053184, Note_off_c, 2, 77, 67
4, 1053184, Note_on_c, 2, 75, 67
4, 1053184, Note_on_c, 2, 79, 67
4, 1053312, Note_off_c, 2, 75, 67
4, 1053312, Note_off_c, 2, 79, 67
4, 1053312, Note_on_c, 2, 70, 67
4, 1053376, Note_off_c, 2, 70, 67
4, 1053440, Note_off_c, 2, 70, 67
4, 1053440, Note_on_c, 2, 70, 67
4, 1053504, Note_off_c, 2, 70, 67
4, 1053568, Note_off_c, 2, 70, 67
4, 1053568, Note_on_c, 2, 75, 67
4, 1053568, Note_on_c, 2, 79, 67
4, 1053632, Note_off_c, 2, 75, 67
4, 1053632, Note_off_c, 2, 79, 67
4, 1053632, Note_on_c, 2, 77, 67
4, 1053632, Note_on_c, 2, 80, 67
4, 1053696, Note_off_c, 2, 77, 67
4, 1053696, Note_off_c, 2, 80, 67
4, 1053696, Note_on_c, 2, 79, 67
4, 1053696, Note_on_c, 2, 82, 67
4, 1053760, Note_off_c, 2, 79, 67
4, 1053760, Note_off_c, 2, 82, 67
4, 1053824, Note_off_c, 2, 79, 67
4, 1053824, Note_off_c, 2, 82, 67
4, 1053824, Note_on_c, 2, 79, 67
4, 1053824, Note_on_c, 2, 82, 67
4, 1053888, Note_off_c, 2, 79, 67
4, 1053888, Note_off_c, 2, 82, 67
4, 1053952, Note_off_c, 2, 79, 67
4, 1053952, Note_off_c, 2, 82, 67
4, 1053952, Note_on_c, 2, 70, 67
4, 1053952, Note_on_c, 2, 79, 67
4, 1054016, Note_off_c, 2, 70, 67
4, 1054016, Note_off_c, 2, 79, 67
4, 1054080, Note_off_c, 2, 70, 67
4, 1054080, Note_off_c, 2, 79, 67
4, 1054080, Note_on_c, 2, 70, 67
4, 1054080, Note_on_c, 2, 75, 67
4, 1054144, Note_off_c, 2, 70, 67
4, 1054144, Note_off_c, 2, 75, 67
4, 1054208, Note_off_c, 2, 70, 67
4, 1054208, Note_off_c, 2, 75, 67
4, 1054208, Note_on_c, 2, 84, 67
4, 1054208, Note_on_c, 2, 87, 67
4, 1054272, Note_off_c, 2, 84, 67
4, 1054272, Note_off_c, 2, 87, 67
4, 1054336, Note_off_c, 2, 84, 67
4, 1054336, Note_off_c, 2, 87, 67
4, 1054336, Note_on_c, 2, 82, 67
4, 1054336, Note_on_c, 2, 86, 67
4, 1054400, Note_off_c, 2, 82, 67
4, 1054400, Note_off_c, 2, 86, 67
4, 1054464, Note_off_c, 2, 82, 67
4, 1054464, Note_off_c, 2, 86, 67
4, 1054464, Note_on_c, 2, 80, 67
4, 1054464, Note_on_c, 2, 84, 67
4, 1054528, Note_off_c, 2, 80, 67
4, 1054528, Note_off_c, 2, 84, 67
4, 1054592, Note_off_c, 2, 80, 67
4, 1054592, Note_off_c, 2, 84, 67
4, 1054592, Note_on_c, 2, 79, 67
4, 1054592, Note_on_c, 2, 87, 67
4, 1054656, Note_off_c, 2, 79, 67
4, 1054656, Note_off_c, 2, 87, 67
4, 1054720, Note_off_c, 2, 79, 67
4, 1054720, Note_off_c, 2, 87, 67
4, 1054720, Note_on_c, 2, 75, 67
4, 1054720, Note_on_c, 2, 82, 67
4, 1054784, Note_off_c, 2, 75, 67
4, 1054784, Note_off_c, 2, 82, 67
4, 1054848, Note_off_c, 2, 75, 67
4, 1054848, Note_off_c, 2, 82, 67
4, 1054848, Note_on_c, 2, 79, 67
4, 1054912, Note_off_c, 2, 79, 67
4, 1054976, Note_off_c, 2, 79, 67
4, 1054976, Note_on_c, 2, 67, 67
4, 1054976, Note_on_c, 2, 75, 67
4, 1055040, Note_off_c, 2, 67, 67
4, 1055040, Note_off_c, 2, 75, 67
4, 1055104, Note_off_c, 2, 67, 67
4, 1055104, Note_off_c, 2, 75, 67
4, 1055104, Note_on_c, 2, 68, 67
4, 1055104, Note_on_c, 2, 74, 67
4, 1055136, Note_off_c, 2, 68, 67
4, 1055136, Note_off_c, 2, 74, 67
4, 1055168, Note_off_c, 2, 68, 67
4, 1055168, Note_off_c, 2, 74, 67
4, 1055168, Note_on_c, 2, 74, 67
4, 1055168, Note_on_c, 2, 79, 67
4, 1055200, Note_off_c, 2, 74, 67
4, 1055200, Note_off_c, 2, 79, 67
4, 1055232, Note_off_c, 2, 74, 67
4, 1055232, Note_off_c, 2, 79, 67
4, 1055232, Note_on_c, 2, 70, 67
4, 1055232, Note_on_c, 2, 77, 67
4, 1055296, Note_off_c, 2, 70, 67
4, 1055296, Note_off_c, 2, 77, 67
4, 1055360, Note_off_c, 2, 70, 67
4, 1055360, Note_off_c, 2, 77, 67
4, 1055360, Note_on_c, 2, 65, 67
4, 1055360, Note_on_c, 2, 70, 67
4, 1055424, Note_off_c, 2, 65, 67
4, 1055424, Note_off_c, 2, 70, 67
4, 1055488, Note_off_c, 2, 65, 67
4, 1055488, Note_off_c, 2, 70, 67
4, 1055488, Note_on_c, 2, 68, 67
4, 1055488, Note_on_c, 2, 70, 67
4, 1055552, Note_off_c, 2, 68, 67
4, 1055552, Note_off_c, 2, 70, 67
4, 1055616, Note_off_c, 2, 68, 67
4, 1055616, Note_off_c, 2, 70, 67
4, 1055616, Note_on_c, 2, 70, 67
4, 1055616, Note_on_c, 2, 79, 67
4, 1055680, Note_off_c, 2, 70, 67
4, 1055680, Note_off_c, 2, 79, 67
4, 1055680, Note_on_c, 2, 77, 67
4, 1055680, Note_on_c, 2, 80, 67
4, 1055744, Note_off_c, 2, 77, 67
4, 1055744, Note_off_c, 2, 80, 67
4, 1055744, Note_on_c, 2, 79, 67
4, 1055744, Note_on_c, 2, 82, 67
4, 1055808, Note_off_c, 2, 79, 67
4, 1055808, Note_off_c, 2, 82, 67
4, 1055872, Note_off_c, 2, 79, 67
4, 1055872, Note_off_c, 2, 82, 67
4, 1055872, Note_on_c, 2, 79, 67
4, 1055872, Note_on_c, 2, 82, 67
4, 1055936, Note_off_c, 2, 79, 67
4, 1055936, Note_off_c, 2, 82, 67
4, 1056000, Note_off_c, 2, 79, 67
4, 1056000, Note_off_c, 2, 82, 67
4, 1056000, Note_on_c, 2, 70, 67
4, 1056000, Note_on_c, 2, 79, 67
4, 1056064, Note_off_c, 2, 70, 67
4, 1056064, Note_off_c, 2, 79, 67
4, 1056128, Note_off_c, 2, 70, 67
4, 1056128, Note_off_c, 2, 79, 67
4, 1056128, Note_on_c, 2, 75, 67
4, 1056128, Note_on_c, 2, 82, 67
4, 1056192, Note_off_c, 2, 75, 67
4, 1056192, Note_off_c, 2, 82, 67
4, 1056256, Note_off_c, 2, 75, 67
4, 1056256, Note_off_c, 2, 82, 67
4, 1056256, Note_on_c, 2, 84, 67
4, 1056256, Note_on_c, 2, 87, 67
4, 1056320, Note_off_c, 2, 84, 67
4, 1056320, Note_off_c, 2, 87, 67
4, 1056384, Note_off_c, 2, 84, 67
4, 1056384, Note_off_c, 2, 87, 67
4, 1056384, Note_on_c, 2, 82, 67
4, 1056384, Note_on_c, 2, 86, 67
4, 1056448, Note_off_c, 2, 82, 67
4, 1056448, Note_off_c, 2, 86, 67
4, 1056512, Note_off_c, 2, 82, 67
4, 1056512, Note_off_c, 2, 86, 67
4, 1056512, Note_on_c, 2, 80, 67
4, 1056512, Note_on_c, 2, 84, 67
4, 1056576, Note_off_c, 2, 80, 67
4, 1056576, Note_off_c, 2, 84, 67
4, 1056640, Note_off_c, 2, 80, 67
4, 1056640, Note_off_c, 2, 84, 67
4, 1056640, Note_on_c, 2, 70, 67
4, 1056640, Note_on_c, 2, 74, 67
4, 1056672, Note_off_c, 2, 70, 67
4, 1056672, Note_off_c, 2, 74, 67
4, 1056704, Note_off_c, 2, 70, 67
4, 1056704, Note_off_c, 2, 74, 67
4, 1056704, Note_on_c, 2, 77, 67
4, 1056704, Note_on_c, 2, 80, 67
4, 1056736, Note_off_c, 2, 77, 67
4, 1056736, Note_off_c, 2, 80, 67
4, 1056768, Note_off_c, 2, 77, 67
4, 1056768, Note_off_c, 2, 80, 67
4, 1056768, Note_on_c, 2, 77, 67
4, 1056768, Note_on_c, 2, 82, 67
4, 1056832, Note_off_c, 2, 77, 67
4, 1056832, Note_off_c, 2, 82, 67
4, 1056896, Note_off_c, 2, 77, 67
4, 1056896, Note_off_c, 2, 82, 67
4, 1056896, Note_on_c, 2, 80, 67
4, 1056896, Note_on_c, 2, 87, 67
4, 1056960, Note_off_c, 2, 80, 67
4, 1056960, Note_off_c, 2, 87, 67
4, 1057024, Note_off_c, 2, 80, 67
4, 1057024, Note_off_c, 2, 87, 67
4, 1057024, Note_on_c, 2, 82, 67
4, 1057024, Note_on_c, 2, 86, 67
4, 1057088, Note_off_c, 2, 82, 67
4, 1057088, Note_off_c, 2, 86, 67
4, 1057152, Note_off_c, 2, 82, 67
4, 1057152, Note_off_c, 2, 86, 67
4, 1057152, Note_on_c, 2, 80, 67
4, 1057152, Note_on_c, 2, 89, 67
4, 1057216, Note_off_c, 2, 80, 67
4, 1057216, Note_off_c, 2, 89, 67
4, 1057280, Note_off_c, 2, 80, 67
4, 1057280, Note_off_c, 2, 89, 67
4, 1057280, Note_on_c, 2, 79, 67
4, 1057280, Note_on_c, 2, 87, 67
4, 1057344, Note_off_c, 2, 79, 67
4, 1057344, Note_off_c, 2, 87, 67
4, 1057408, Note_off_c, 2, 79, 67
4, 1057408, Note_off_c, 2, 87, 67
4, 1057408, Note_on_c, 2, 70, 67
4, 1057408, Note_on_c, 2, 82, 67
4, 1057472, Note_off_c, 2, 70, 67
4, 1057472, Note_off_c, 2, 82, 67
4, 1057536, Note_off_c, 2, 70, 67
4, 1057536, Note_off_c, 2, 82, 67
4, 1057536, Note_on_c, 2, 70, 67
4, 1057536, Note_on_c, 2, 82, 67
4, 1057600, Note_off_c, 2, 70, 67
4, 1057600, Note_off_c, 2, 82, 67
4, 1057664, Note_off_c, 2, 70, 67
4, 1057664, Note_off_c, 2, 82, 67
4, 1057664, Note_on_c, 2, 75, 67
4, 1057728, Note_off_c, 2, 75, 67
4, 1057728, Note_on_c, 2, 77, 67
4, 1057792, Note_off_c, 2, 77, 67
4, 1057792, Note_on_c, 2, 79, 67
4, 1057856, Note_off_c, 2, 79, 67
4, 1057920, Note_off_c, 2, 79, 67
4, 1057920, Note_on_c, 2, 75, 67
4, 1057920, Note_on_c, 2, 79, 67
4, 1057984, Note_off_c, 2, 75, 67
4, 1057984, Note_off_c, 2, 79, 67
4, 1058048, Note_off_c, 2, 75, 67
4, 1058048, Note_off_c, 2, 79, 67
4, 1058048, Note_on_c, 2, 75, 67
4, 1058048, Note_on_c, 2, 79, 67
4, 1058112, Note_off_c, 2, 75, 67
4, 1058112, Note_off_c, 2, 79, 67
4, 1058176, Note_off_c, 2, 75, 67
4, 1058176, Note_off_c, 2, 79, 67
4, 1058176, Note_on_c, 2, 75, 67
4, 1058240, Note_off_c, 2, 75, 67
4, 1058240, Note_on_c, 2, 77, 67
4, 1058304, Note_off_c, 2, 77, 67
4, 1058304, Note_on_c, 2, 79, 67
4, 1058368, Note_off_c, 2, 79, 67
4, 1058432, Note_off_c, 2, 79, 67
4, 1058432, Note_on_c, 2, 75, 67
4, 1058432, Note_on_c, 2, 79, 67
4, 1058496, Note_off_c, 2, 75, 67
4, 1058496, Note_off_c, 2, 79, 67
4, 1058560, Note_off_c, 2, 75, 67
4, 1058560, Note_off_c, 2, 79, 67
4, 1058560, Note_on_c, 2, 75, 67
4, 1058560, Note_on_c, 2, 79, 67
4, 1058624, Note_off_c, 2, 75, 67
4, 1058624, Note_off_c, 2, 79, 67
4, 1058688, Note_off_c, 2, 75, 67
4, 1058688, Note_off_c, 2, 79, 67
4, 1058688, Note_on_c, 2, 75, 67
4, 1058752, Note_off_c, 2, 75, 67
4, 1058752, Note_on_c, 2, 77, 67
4, 1058816, Note_off_c, 2, 77, 67
4, 1058816, Note_on_c, 2, 79, 67
4, 1058880, Note_off_c, 2, 79, 67
4, 1058944, Note_off_c, 2, 79, 67
4, 1058944, Note_on_c, 2, 75, 67
4, 1058944, Note_on_c, 2, 79, 67
4, 1059008, Note_off_c, 2, 75, 67
4, 1059008, Note_off_c, 2, 79, 67
4, 1059072, Note_off_c, 2, 75, 67
4, 1059072, Note_off_c, 2, 79, 67
4, 1059072, Note_on_c, 2, 75, 67
4, 1059072, Note_on_c, 2, 80, 67
4, 1059104, Note_off_c, 2, 75, 67
4, 1059104, Note_off_c, 2, 80, 67
4, 1059136, Note_off_c, 2, 75, 67
4, 1059136, Note_off_c, 2, 80, 67
4, 1059136, Note_on_c, 2, 74, 67
4, 1059168, Note_off_c, 2, 74, 67
4, 1059200, Note_off_c, 2, 74, 67
4, 1059200, Note_on_c, 2, 72, 67
4, 1059232, Note_off_c, 2, 72, 67
4, 1059264, Note_off_c, 2, 72, 67
4, 1059264, Note_on_c, 2, 74, 67
4, 1059264, Note_on_c, 2, 79, 67
4, 1059296, Note_off_c, 2, 74, 67
4, 1059296, Note_off_c, 2, 79, 67
4, 1059328, Note_off_c, 2, 74, 67
4, 1059328, Note_off_c, 2, 79, 67
4, 1059328, Note_on_c, 2, 70, 67
4, 1059328, Note_on_c, 2, 77, 67
4, 1059392, Note_off_c, 2, 70, 67
4, 1059392, Note_off_c, 2, 77, 67
4, 1059456, Note_off_c, 2, 70, 67
4, 1059456, Note_off_c, 2, 77, 67
4, 1059456, Note_on_c, 2, 68, 67
4, 1059456, Note_on_c, 2, 70, 67
4, 1059520, Note_off_c, 2, 68, 67
4, 1059520, Note_off_c, 2, 70, 67
4, 1059584, Note_off_c, 2, 68, 67
4, 1059584, Note_off_c, 2, 70, 67
4, 1059584, Note_on_c, 2, 68, 67
4, 1059584, Note_on_c, 2, 70, 67
4, 1059648, Note_off_c, 2, 68, 67
4, 1059648, Note_off_c, 2, 70, 67
4, 1059712, Note_off_c, 2, 68, 67
4, 1059712, Note_off_c, 2, 70, 67
4, 1059712, Note_on_c, 2, 74, 67
4, 1059776, Note_off_c, 2, 74, 67
4, 1059776, Note_on_c, 2, 75, 67
4, 1059840, Note_off_c, 2, 75, 67
4, 1059840, Note_on_c, 2, 77, 67
4, 1059904, Note_off_c, 2, 77, 67
4, 1059968, Note_off_c, 2, 77, 67
4, 1059968, Note_on_c, 2, 74, 67
4, 1059968, Note_on_c, 2, 77, 67
4, 1060032, Note_off_c, 2, 74, 67
4, 1060032, Note_off_c, 2, 77, 67
4, 1060096, Note_off_c, 2, 74, 67
4, 1060096, Note_off_c, 2, 77, 67
4, 1060096, Note_on_c, 2, 74, 67
4, 1060096, Note_on_c, 2, 77, 67
4, 1060160, Note_off_c, 2, 74, 67
4, 1060160, Note_off_c, 2, 77, 67
4, 1060224, Note_off_c, 2, 74, 67
4, 1060224, Note_off_c, 2, 77, 67
4, 1060224, Note_on_c, 2, 74, 67
4, 1060288, Note_off_c, 2, 74, 67
4, 1060288, Note_on_c, 2, 75, 67
4, 1060352, Note_off_c, 2, 75, 67
4, 1060352, Note_on_c, 2, 77, 67
4, 1060416, Note_off_c, 2, 77, 67
4, 1060480, Note_off_c, 2, 77, 67
4, 1060480, Note_on_c, 2, 74, 67
4, 1060480, Note_on_c, 2, 77, 67
4, 1060544, Note_off_c, 2, 74, 67
4, 1060544, Note_off_c, 2, 77, 67
4, 1060608, Note_off_c, 2, 74, 67
4, 1060608, Note_off_c, 2, 77, 67
4, 1060608, Note_on_c, 2, 74, 67
4, 1060608, Note_on_c, 2, 77, 67
4, 1060672, Note_off_c, 2, 74, 67
4, 1060672, Note_off_c, 2, 77, 67
4, 1060736, Note_off_c, 2, 74, 67
4, 1060736, Note_off_c, 2, 77, 67
4, 1060736, Note_on_c, 2, 74, 67
4, 1060800, Note_off_c, 2, 74, 67
4, 1060800, Note_on_c, 2, 75, 67
4, 1060864, Note_off_c, 2, 75, 67
4, 1060864, Note_on_c, 2, 70, 67
4, 1060864, Note_on_c, 2, 77, 67
4, 1060928, Note_off_c, 2, 70, 67
4, 1060928, Note_off_c, 2, 77, 67
4, 1060992, Note_off_c, 2, 70, 67
4, 1060992, Note_off_c, 2, 77, 67
4, 1060992, Note_on_c, 2, 74, 67
4, 1060992, Note_on_c, 2, 77, 67
4, 1061056, Note_off_c, 2, 74, 67
4, 1061056, Note_off_c, 2, 77, 67
4, 1061120, Note_off_c, 2, 74, 67
4, 1061120, Note_off_c, 2, 77, 67
4, 1061120, Note_on_c, 2, 74, 67
4, 1061120, Note_on_c, 2, 79, 67
4, 1061152, Note_off_c, 2, 74, 67
4, 1061152, Note_off_c, 2, 79, 67
4, 1061184, Note_off_c, 2, 74, 67
4, 1061184, Note_off_c, 2, 79, 67
4, 1061184, Note_on_c, 2, 72, 67
4, 1061184, Note_on_c, 2, 77, 67
4, 1061216, Note_off_c, 2, 72, 67
4, 1061216, Note_off_c, 2, 77, 67
4, 1061248, Note_off_c, 2, 72, 67
4, 1061248, Note_off_c, 2, 77, 67
4, 1061248, Note_on_c, 2, 70, 67
4, 1061248, Note_on_c, 2, 77, 67
4, 1061280, Note_off_c, 2, 70, 67
4, 1061280, Note_off_c, 2, 77, 67
4, 1061312, Note_off_c, 2, 70, 67
4, 1061312, Note_off_c, 2, 77, 67
4, 1061312, Note_on_c, 2, 68, 67
4, 1061312, Note_on_c, 2, 79, 67
4, 1061344, Note_off_c, 2, 68, 67
4, 1061344, Note_off_c, 2, 79, 67
4, 1061376, Note_off_c, 2, 68, 67
4, 1061376, Note_off_c, 2, 79, 67
4, 1061376, Note_on_c, 2, 67, 67
4, 1061376, Note_on_c, 2, 75, 67
4, 1061440, Note_off_c, 2, 67, 67
4, 1061440, Note_off_c, 2, 75, 67
4, 1061504, Note_off_c, 2, 67, 67
4, 1061504, Note_off_c, 2, 75, 67
4, 1061504, Note_on_c, 2, 70, 67
4, 1061568, Note_off_c, 2, 70, 67
4, 1061632, Note_off_c, 2, 70, 67
4, 1061632, Note_on_c, 2, 70, 67
4, 1061632, Note_on_c, 2, 79, 67
4, 1061696, Note_off_c, 2, 70, 67
4, 1061696, Note_off_c, 2, 79, 67
4, 1061760, Note_off_c, 2, 70, 67
4, 1061760, Note_off_c, 2, 79, 67
4, 1061760, Note_on_c, 2, 75, 67
4, 1061824, Note_off_c, 2, 75, 67
4, 1061824, Note_on_c, 2, 77, 67
4, 1061888, Note_off_c, 2, 77, 67
4, 1061888, Note_on_c, 2, 79, 67
4, 1061952, Note_off_c, 2, 79, 67
4, 1062016, Note_off_c, 2, 79, 67
4, 1062016, Note_on_c, 2, 75, 67
4, 1062016, Note_on_c, 2, 79, 67
4, 1062080, Note_off_c, 2, 75, 67
4, 1062080, Note_off_c, 2, 79, 67
4, 1062144, Note_off_c, 2, 75, 67
4, 1062144, Note_off_c, 2, 79, 67
4, 1062144, Note_on_c, 2, 75, 67
4, 1062144, Note_on_c, 2, 79, 67
4, 1062208, Note_off_c, 2, 75, 67
4, 1062208, Note_off_c, 2, 79, 67
4, 1062272, Note_off_c, 2, 75, 67
4, 1062272, Note_off_c, 2, 79, 67
4, 1062272, Note_on_c, 2, 75, 67
4, 1062336, Note_off_c, 2, 75, 67
4, 1062336, Note_on_c, 2, 77, 67
4, 1062400, Note_off_c, 2, 77, 67
4, 1062400, Note_on_c, 2, 79, 67
4, 1062464, Note_off_c, 2, 79, 67
4, 1062528, Note_off_c, 2, 79, 67
4, 1062528, Note_on_c, 2, 75, 67
4, 1062528, Note_on_c, 2, 79, 67
4, 1062592, Note_off_c, 2, 75, 67
4, 1062592, Note_off_c, 2, 79, 67
4, 1062656, Note_off_c, 2, 75, 67
4, 1062656, Note_off_c, 2, 79, 67
4, 1062656, Note_on_c, 2, 75, 67
4, 1062656, Note_on_c, 2, 79, 67
4, 1062720, Note_off_c, 2, 75, 67
4, 1062720, Note_off_c, 2, 79, 67
4, 1062784, Note_off_c, 2, 75, 67
4, 1062784, Note_off_c, 2, 79, 67
4, 1062784, Note_on_c, 2, 75, 67
4, 1062848, Note_off_c, 2, 75, 67
4, 1062848, Note_on_c, 2, 77, 67
4, 1062912, Note_off_c, 2, 77, 67
4, 1062912, Note_on_c, 2, 79, 67
4, 1062976, Note_off_c, 2, 79, 67
4, 1063040, Note_off_c, 2, 79, 67
4, 1063040, Note_on_c, 2, 75, 67
4, 1063040, Note_on_c, 2, 79, 67
4, 1063104, Note_off_c, 2, 75, 67
4, 1063104, Note_off_c, 2, 79, 67
4, 1063168, Note_off_c, 2, 75, 67
4, 1063168, Note_off_c, 2, 79, 67
4, 1063168, Note_on_c, 2, 75, 67
4, 1063168, Note_on_c, 2, 80, 67
4, 1063200, Note_off_c, 2, 75, 67
4, 1063200, Note_off_c, 2, 80, 67
4, 1063232, Note_off_c, 2, 75, 67
4, 1063232, Note_off_c, 2, 80, 67
4, 1063232, Note_on_c, 2, 74, 67
4, 1063296, Note_off_c, 2, 74, 67
4, 1063296, Note_on_c, 2, 72, 67
4, 1063360, Note_off_c, 2, 72, 67
4, 1063360, Note_on_c, 2, 74, 67
4, 1063360, Note_on_c, 2, 79, 67
4, 1063392, Note_off_c, 2, 74, 67
4, 1063392, Note_off_c, 2, 79, 67
4, 1063424, Note_off_c, 2, 74, 67
4, 1063424, Note_off_c, 2, 79, 67
4, 1063424, Note_on_c, 2, 70, 67
4, 1063424, Note_on_c, 2, 77, 67
4, 1063488, Note_off_c, 2, 70, 67
4, 1063488, Note_off_c, 2, 77, 67
4, 1063552, Note_off_c, 2, 70, 67
4, 1063552, Note_off_c, 2, 77, 67
4, 1063552, Note_on_c, 2, 68, 67
4, 1063552, Note_on_c, 2, 70, 67
4, 1063616, Note_off_c, 2, 68, 67
4, 1063616, Note_off_c, 2, 70, 67
4, 1063680, Note_off_c, 2, 68, 67
4, 1063680, Note_off_c, 2, 70, 67
4, 1063680, Note_on_c, 2, 68, 67
4, 1063680, Note_on_c, 2, 70, 67
4, 1063744, Note_off_c, 2, 68, 67
4, 1063744, Note_off_c, 2, 70, 67
4, 1063808, Note_off_c, 2, 68, 67
4, 1063808, Note_off_c, 2, 70, 67
4, 1063808, Note_on_c, 2, 74, 67
4, 1063872, Note_off_c, 2, 74, 67
4, 1063872, Note_on_c, 2, 75, 67
4, 1063936, Note_off_c, 2, 75, 67
4, 1063936, Note_on_c, 2, 77, 67
4, 1064064, Note_off_c, 2, 77, 67
4, 1064064, Note_on_c, 2, 74, 67
4, 1064064, Note_on_c, 2, 80, 67
4, 1064128, Note_off_c, 2, 74, 67
4, 1064128, Note_off_c, 2, 80, 67
4, 1064192, Note_off_c, 2, 74, 67
4, 1064192, Note_off_c, 2, 80, 67
4, 1064192, Note_on_c, 2, 74, 67
4, 1064192, Note_on_c, 2, 79, 67
4, 1064256, Note_off_c, 2, 74, 67
4, 1064256, Note_off_c, 2, 79, 67
4, 1064320, Note_off_c, 2, 74, 67
4, 1064320, Note_off_c, 2, 79, 67
4, 1064320, Note_on_c, 2, 77, 67
4, 1064384, Note_off_c, 2, 77, 67
4, 1064448, Note_off_c, 2, 77, 67
4, 1064448, Note_on_c, 2, 75, 67
4, 1064512, Note_off_c, 2, 75, 67
4, 1064576, Note_off_c, 2, 75, 67
4, 1064576, Note_on_c, 2, 70, 67
4, 1064576, Note_on_c, 2, 74, 67
4, 1064640, Note_off_c, 2, 70, 67
4, 1064640, Note_off_c, 2, 74, 67
4, 1064704, Note_off_c, 2, 70, 67
4, 1064704, Note_off_c, 2, 74, 67
4, 1064704, Note_on_c, 2, 72, 67
4, 1064704, Note_on_c, 2, 74, 67
4, 1064768, Note_off_c, 2, 72, 67
4, 1064768, Note_off_c, 2, 74, 67
4, 1064832, Note_off_c, 2, 72, 67
4, 1064832, Note_off_c, 2, 74, 67
4, 1064832, Note_on_c, 2, 70, 67
4, 1064832, Note_on_c, 2, 74, 67
4, 1064896, Note_off_c, 2, 70, 67
4, 1064896, Note_off_c, 2, 74, 67
4, 1064960, Note_off_c, 2, 70, 67
4, 1064960, Note_off_c, 2, 74, 67
4, 1064960, Note_on_c, 2, 80, 67
4, 1064960, Note_on_c, 2, 84, 67
4, 1065216, Note_off_c, 2, 80, 67
4, 1065216, Note_off_c, 2, 84, 67
4, 1065216, Note_on_c, 2, 70, 67
4, 1065216, Note_on_c, 2, 74, 67
4, 1065232, Note_off_c, 2, 70, 67
4, 1065232, Note_off_c, 2, 74, 67
4, 1065248, Note_off_c, 2, 70, 67
4, 1065248, Note_off_c, 2, 74, 67
4, 1065248, Note_on_c, 2, 72, 67
4, 1065248, Note_on_c, 2, 75, 67
4, 1065264, Note_off_c, 2, 72, 67
4, 1065264, Note_off_c, 2, 75, 67
4, 1065280, Note_off_c, 2, 72, 67
4, 1065280, Note_off_c, 2, 75, 67
4, 1065280, Note_on_c, 2, 70, 67
4, 1065280, Note_on_c, 2, 74, 67
4, 1065312, Note_off_c, 2, 70, 67
4, 1065312, Note_off_c, 2, 74, 67
4, 1065344, Note_off_c, 2, 70, 67
4, 1065344, Note_off_c, 2, 74, 67
4, 1065344, Note_on_c, 2, 68, 67
4, 1065344, Note_on_c, 2, 72, 67
4, 1065376, Note_off_c, 2, 68, 67
4, 1065376, Note_off_c, 2, 72, 67
4, 1065408, Note_off_c, 2, 68, 67
4, 1065408, Note_off_c, 2, 72, 67
4, 1065408, Note_on_c, 2, 74, 67
4, 1065408, Note_on_c, 2, 77, 67
4, 1065440, Note_off_c, 2, 74, 67
4, 1065440, Note_off_c, 2, 77, 67
4, 1065472, Note_off_c, 2, 74, 67
4, 1065472, Note_off_c, 2, 77, 67
4, 1065472, Note_on_c, 2, 75, 67
4, 1065472, Note_on_c, 2, 79, 67
4, 1065600, Note_off_c, 2, 75, 67
4, 1065600, Note_off_c, 2, 79, 67
4, 1065600, Note_on_c, 2, 70, 67
4, 1065664, Note_off_c, 2, 70, 67
4, 1065728, Note_off_c, 2, 70, 67
4, 1065728, Note_on_c, 2, 70, 67
4, 1065792, Note_off_c, 2, 70, 67
4, 1065856, Note_off_c, 2, 70, 67
4, 1065856, Note_on_c, 2, 75, 67
4, 1065856, Note_on_c, 2, 79, 67
4, 1065920, Note_off_c, 2, 75, 67
4, 1065920, Note_off_c, 2, 79, 67
4, 1065920, Note_on_c, 2, 77, 67
4, 1065920, Note_on_c, 2, 80, 67
4, 1065984, Note_off_c, 2, 77, 67
4, 1065984, Note_off_c, 2, 80, 67
4, 1065984, Note_on_c, 2, 79, 67
4, 1065984, Note_on_c, 2, 82, 67
4, 1066048, Note_off_c, 2, 79, 67
4, 1066048, Note_off_c, 2, 82, 67
4, 1066112, Note_off_c, 2, 79, 67
4, 1066112, Note_off_c, 2, 82, 67
4, 1066112, Note_on_c, 2, 79, 67
4, 1066112, Note_on_c, 2, 82, 67
4, 1066176, Note_off_c, 2, 79, 67
4, 1066176, Note_off_c, 2, 82, 67
4, 1066240, Note_off_c, 2, 79, 67
4, 1066240, Note_off_c, 2, 82, 67
4, 1066240, Note_on_c, 2, 70, 67
4, 1066240, Note_on_c, 2, 79, 67
4, 1066304, Note_off_c, 2, 70, 67
4, 1066304, Note_off_c, 2, 79, 67
4, 1066368, Note_off_c, 2, 70, 67
4, 1066368, Note_off_c, 2, 79, 67
4, 1066368, Note_on_c, 2, 70, 67
4, 1066368, Note_on_c, 2, 75, 67
4, 1066432, Note_off_c, 2, 70, 67
4, 1066432, Note_off_c, 2, 75, 67
4, 1066496, Note_off_c, 2, 70, 67
4, 1066496, Note_off_c, 2, 75, 67
4, 1066496, Note_on_c, 2, 84, 67
4, 1066496, Note_on_c, 2, 87, 67
4, 1066560, Note_off_c, 2, 84, 67
4, 1066560, Note_off_c, 2, 87, 67
4, 1066624, Note_off_c, 2, 84, 67
4, 1066624, Note_off_c, 2, 87, 67
4, 1066624, Note_on_c, 2, 82, 67
4, 1066624, Note_on_c, 2, 86, 67
4, 1066688, Note_off_c, 2, 82, 67
4, 1066688, Note_off_c, 2, 86, 67
4, 1066752, Note_off_c, 2, 82, 67
4, 1066752, Note_off_c, 2, 86, 67
4, 1066752, Note_on_c, 2, 80, 67
4, 1066752, Note_on_c, 2, 84, 67
4, 1066816, Note_off_c, 2, 80, 67
4, 1066816, Note_off_c, 2, 84, 67
4, 1066880, Note_off_c, 2, 80, 67
4, 1066880, Note_off_c, 2, 84, 67
4, 1066880, Note_on_c, 2, 79, 67
4, 1066880, Note_on_c, 2, 87, 67
4, 1066944, Note_off_c, 2, 79, 67
4, 1066944, Note_off_c, 2, 87, 67
4, 1067008, Note_off_c, 2, 79, 67
4, 1067008, Note_off_c, 2, 87, 67
4, 1067008, Note_on_c, 2, 75, 67
4, 1067008, Note_on_c, 2, 82, 67
4, 1067072, Note_off_c, 2, 75, 67
4, 1067072, Note_off_c, 2, 82, 67
4, 1067136, Note_off_c, 2, 75, 67
4, 1067136, Note_off_c, 2, 82, 67
4, 1067136, Note_on_c, 2, 79, 67
4, 1067200, Note_off_c, 2, 79, 67
4, 1067264, Note_off_c, 2, 79, 67
4, 1067264, Note_on_c, 2, 67, 67
4, 1067264, Note_on_c, 2, 75, 67
4, 1067328, Note_off_c, 2, 67, 67
4, 1067328, Note_off_c, 2, 75, 67
4, 1067392, Note_off_c, 2, 67, 67
4, 1067392, Note_off_c, 2, 75, 67
4, 1067392, Note_on_c, 2, 68, 67
4, 1067392, Note_on_c, 2, 74, 67
4, 1067424, Note_off_c, 2, 68, 67
4, 1067424, Note_off_c, 2, 74, 67
4, 1067456, Note_off_c, 2, 68, 67
4, 1067456, Note_off_c, 2, 74, 67
4, 1067456, Note_on_c, 2, 74, 67
4, 1067456, Note_on_c, 2, 79, 67
4, 1067488, Note_off_c, 2, 74, 67
4, 1067488, Note_off_c, 2, 79, 67
4, 1067520, Note_off_c, 2, 74, 67
4, 1067520, Note_off_c, 2, 79, 67
4, 1067520, Note_on_c, 2, 70, 67
4, 1067520, Note_on_c, 2, 77, 67
4, 1067584, Note_off_c, 2, 70, 67
4, 1067584, Note_off_c, 2, 77, 67
4, 1067648, Note_off_c, 2, 70, 67
4, 1067648, Note_off_c, 2, 77, 67
4, 1067648, Note_on_c, 2, 65, 67
4, 1067648, Note_on_c, 2, 70, 67
4, 1067712, Note_off_c, 2, 65, 67
4, 1067712, Note_off_c, 2, 70, 67
4, 1067776, Note_off_c, 2, 65, 67
4, 1067776, Note_off_c, 2, 70, 67
4, 1067776, Note_on_c, 2, 68, 67
4, 1067776, Note_on_c, 2, 70, 67
4, 1067840, Note_off_c, 2, 68, 67
4, 1067840, Note_off_c, 2, 70, 67
4, 1067904, Note_off_c, 2, 68, 67
4, 1067904, Note_off_c, 2, 70, 67
4, 1067904, Note_on_c, 2, 70, 67
4, 1067904, Note_on_c, 2, 79, 67
4, 1067968, Note_off_c, 2, 70, 67
4, 1067968, Note_off_c, 2, 79, 67
4, 1067968, Note_on_c, 2, 77, 67
4, 1067968, Note_on_c, 2, 80, 67
4, 1068032, Note_off_c, 2, 77, 67
4, 1068032, Note_off_c, 2, 80, 67
4, 1068032, Note_on_c, 2, 79, 67
4, 1068032, Note_on_c, 2, 82, 67
4, 1068096, Note_off_c, 2, 79, 67
4, 1068096, Note_off_c, 2, 82, 67
4, 1068160, Note_off_c, 2, 79, 67
4, 1068160, Note_off_c, 2, 82, 67
4, 1068160, Note_on_c, 2, 79, 67
4, 1068160, Note_on_c, 2, 82, 67
4, 1068224, Note_off_c, 2, 79, 67
4, 1068224, Note_off_c, 2, 82, 67
4, 1068288, Note_off_c, 2, 79, 67
4, 1068288, Note_off_c, 2, 82, 67
4, 1068288, Note_on_c, 2, 70, 67
4, 1068288, Note_on_c, 2, 79, 67
4, 1068352, Note_off_c, 2, 70, 67
4, 1068352, Note_off_c, 2, 79, 67
4, 1068416, Note_off_c, 2, 70, 67
4, 1068416, Note_off_c, 2, 79, 67
4, 1068416, Note_on_c, 2, 75, 67
4, 1068416, Note_on_c, 2, 82, 67
4, 1068480, Note_off_c, 2, 75, 67
4, 1068480, Note_off_c, 2, 82, 67
4, 1068544, Note_off_c, 2, 75, 67
4, 1068544, Note_off_c, 2, 82, 67
4, 1068544, Note_on_c, 2, 84, 67
4, 1068544, Note_on_c, 2, 87, 67
4, 1068608, Note_off_c, 2, 84, 67
4, 1068608, Note_off_c, 2, 87, 67
4, 1068672, Note_off_c, 2, 84, 67
4, 1068672, Note_off_c, 2, 87, 67
4, 1068672, Note_on_c, 2, 82, 67
4, 1068672, Note_on_c, 2, 86, 67
4, 1068736, Note_off_c, 2, 82, 67
4, 1068736, Note_off_c, 2, 86, 67
4, 1068800, Note_off_c, 2, 82, 67
4, 1068800, Note_off_c, 2, 86, 67
4, 1068800, Note_on_c, 2, 80, 67
4, 1068800, Note_on_c, 2, 84, 67
4, 1068864, Note_off_c, 2, 80, 67
4, 1068864, Note_off_c, 2, 84, 67
4, 1068928, Note_off_c, 2, 80, 67
4, 1068928, Note_off_c, 2, 84, 67
4, 1068928, Note_on_c, 2, 70, 67
4, 1068928, Note_on_c, 2, 74, 67
4, 1068960, Note_off_c, 2, 70, 67
4, 1068960, Note_off_c, 2, 74, 67
4, 1068992, Note_off_c, 2, 70, 67
4, 1068992, Note_off_c, 2, 74, 67
4, 1068992, Note_on_c, 2, 77, 67
4, 1068992, Note_on_c, 2, 80, 67
4, 1069024, Note_off_c, 2, 77, 67
4, 1069024, Note_off_c, 2, 80, 67
4, 1069056, Note_off_c, 2, 77, 67
4, 1069056, Note_off_c, 2, 80, 67
4, 1069056, Note_on_c, 2, 77, 67
4, 1069056, Note_on_c, 2, 82, 67
4, 1069120, Note_off_c, 2, 77, 67
4, 1069120, Note_off_c, 2, 82, 67
4, 1069184, Note_off_c, 2, 77, 67
4, 1069184, Note_off_c, 2, 82, 67
4, 1069184, Note_on_c, 2, 80, 67
4, 1069184, Note_on_c, 2, 87, 67
4, 1069248, Note_off_c, 2, 80, 67
4, 1069248, Note_off_c, 2, 87, 67
4, 1069312, Note_off_c, 2, 80, 67
4, 1069312, Note_off_c, 2, 87, 67
4, 1069312, Note_on_c, 2, 82, 67
4, 1069312, Note_on_c, 2, 86, 67
4, 1069376, Note_off_c, 2, 82, 67
4, 1069376, Note_off_c, 2, 86, 67
4, 1069440, Note_off_c, 2, 82, 67
4, 1069440, Note_off_c, 2, 86, 67
4, 1069440, Note_on_c, 2, 80, 67
4, 1069440, Note_on_c, 2, 89, 67
4, 1069504, Note_off_c, 2, 80, 67
4, 1069504, Note_off_c, 2, 89, 67
4, 1069568, Note_off_c, 2, 80, 67
4, 1069568, Note_off_c, 2, 89, 67
4, 1069568, Note_on_c, 2, 79, 67
4, 1069568, Note_on_c, 2, 87, 67
4, 1069632, Note_off_c, 2, 79, 67
4, 1069632, Note_off_c, 2, 87, 67
4, 1069696, Note_off_c, 2, 79, 67
4, 1069696, Note_off_c, 2, 87, 67
4, 1069696, Note_on_c, 2, 70, 67
4, 1069696, Note_on_c, 2, 82, 67
4, 1069760, Note_off_c, 2, 70, 67
4, 1069760, Note_off_c, 2, 82, 67
4, 1069824, Note_off_c, 2, 70, 67
4, 1069824, Note_off_c, 2, 82, 67
4, 1069824, Note_on_c, 2, 70, 67
4, 1069824, Note_on_c, 2, 82, 67
4, 1069888, Note_off_c, 2, 70, 67
4, 1069888, Note_off_c, 2, 82, 67
4, 1069952, Note_off_c, 2, 70, 67
4, 1069952, Note_off_c, 2, 82, 67
4, 1069952, Note_on_c, 2, 75, 67
4, 1070016, Note_off_c, 2, 75, 67
4, 1070016, Note_on_c, 2, 77, 67
4, 1070080, Note_off_c, 2, 77, 67
4, 1070080, Note_on_c, 2, 79, 67
4, 1070144, Note_off_c, 2, 79, 67
4, 1070208, Note_off_c, 2, 79, 67
4, 1070208, Note_on_c, 2, 75, 67
4, 1070208, Note_on_c, 2, 79, 67
4, 1070272, Note_off_c, 2, 75, 67
4, 1070272, Note_off_c, 2, 79, 67
4, 1070336, Note_off_c, 2, 75, 67
4, 1070336, Note_off_c, 2, 79, 67
4, 1070336, Note_on_c, 2, 75, 67
4, 1070336, Note_on_c, 2, 79, 67
4, 1070400, Note_off_c, 2, 75, 67
4, 1070400, Note_off_c, 2, 79, 67
4, 1070464, Note_off_c, 2, 75, 67
4, 1070464, Note_off_c, 2, 79, 67
4, 1070464, Note_on_c, 2, 75, 67
4, 1070528, Note_off_c, 2, 75, 67
4, 1070528, Note_on_c, 2, 77, 67
4, 1070592, Note_off_c, 2, 77, 67
4, 1070592, Note_on_c, 2, 79, 67
4, 1070656, Note_off_c, 2, 79, 67
4, 1070720, Note_off_c, 2, 79, 67
4, 1070720, Note_on_c, 2, 75, 67
4, 1070720, Note_on_c, 2, 79, 67
4, 1070784, Note_off_c, 2, 75, 67
4, 1070784, Note_off_c, 2, 79, 67
4, 1070848, Note_off_c, 2, 75, 67
4, 1070848, Note_off_c, 2, 79, 67
4, 1070848, Note_on_c, 2, 75, 67
4, 1070848, Note_on_c, 2, 79, 67
4, 1070912, Note_off_c, 2, 75, 67
4, 1070912, Note_off_c, 2, 79, 67
4, 1070976, Note_off_c, 2, 75, 67
4, 1070976, Note_off_c, 2, 79, 67
4, 1070976, Note_on_c, 2, 75, 67
4, 1071040, Note_off_c, 2, 75, 67
4, 1071040, Note_on_c, 2, 77, 67
4, 1071104, Note_off_c, 2, 77, 67
4, 1071104, Note_on_c, 2, 79, 67
4, 1071168, Note_off_c, 2, 79, 67
4, 1071232, Note_off_c, 2, 79, 67
4, 1071232, Note_on_c, 2, 75, 67
4, 1071232, Note_on_c, 2, 79, 67
4, 1071296, Note_off_c, 2, 75, 67
4, 1071296, Note_off_c, 2, 79, 67
4, 1071360, Note_off_c, 2, 75, 67
4, 1071360, Note_off_c, 2, 79, 67
4, 1071360, Note_on_c, 2, 75, 67
4, 1071360, Note_on_c, 2, 80, 67
4, 1071392, Note_off_c, 2, 75, 67
4, 1071392, Note_off_c, 2, 80, 67
4, 1071424, Note_off_c, 2, 75, 67
4, 1071424, Note_off_c, 2, 80, 67
4, 1071424, Note_on_c, 2, 74, 67
4, 1071456, Note_off_c, 2, 74, 67
4, 1071488, Note_off_c, 2, 74, 67
4, 1071488, Note_on_c, 2, 72, 67
4, 1071520, Note_off_c, 2, 72, 67
4, 1071552, Note_off_c, 2, 72, 67
4, 1071552, Note_on_c, 2, 74, 67
4, 1071552, Note_on_c, 2, 79, 67
4, 1071584, Note_off_c, 2, 74, 67
4, 1071584, Note_off_c, 2, 79, 67
4, 1071616, Note_off_c, 2, 74, 67
4, 1071616, Note_off_c, 2, 79, 67
4, 1071616, Note_on_c, 2, 70, 67
4, 1071616, Note_on_c, 2, 77, 67
4, 1071680, Note_off_c, 2, 70, 67
4, 1071680, Note_off_c, 2, 77, 67
4, 1071744, Note_off_c, 2, 70, 67
4, 1071744, Note_off_c, 2, 77, 67
4, 1071744, Note_on_c, 2, 68, 67
4, 1071744, Note_on_c, 2, 70, 67
4, 1071808, Note_off_c, 2, 68, 67
4, 1071808, Note_off_c, 2, 70, 67
4, 1071872, Note_off_c, 2, 68, 67
4, 1071872, Note_off_c, 2, 70, 67
4, 1071872, Note_on_c, 2, 68, 67
4, 1071872, Note_on_c, 2, 70, 67
4, 1071936, Note_off_c, 2, 68, 67
4, 1071936, Note_off_c, 2, 70, 67
4, 1072000, Note_off_c, 2, 68, 67
4, 1072000, Note_off_c, 2, 70, 67
4, 1072000, Note_on_c, 2, 74, 67
4, 1072064, Note_off_c, 2, 74, 67
4, 1072064, Note_on_c, 2, 75, 67
4, 1072128, Note_off_c, 2, 75, 67
4, 1072128, Note_on_c, 2, 77, 67
4, 1072192, Note_off_c, 2, 77, 67
4, 1072256, Note_off_c, 2, 77, 67
4, 1072256, Note_on_c, 2, 74, 67
4, 1072256, Note_on_c, 2, 77, 67
4, 1072320, Note_off_c, 2, 74, 67
4, 1072320, Note_off_c, 2, 77, 67
4, 1072384, Note_off_c, 2, 74, 67
4, 1072384, Note_off_c, 2, 77, 67
4, 1072384, Note_on_c, 2, 74, 67
4, 1072384, Note_on_c, 2, 77, 67
4, 1072448, Note_off_c, 2, 74, 67
4, 1072448, Note_off_c, 2, 77, 67
4, 1072512, Note_off_c, 2, 74, 67
4, 1072512, Note_off_c, 2, 77, 67
4, 1072512, Note_on_c, 2, 74, 67
4, 1072576, Note_off_c, 2, 74, 67
4, 1072576, Note_on_c, 2, 75, 67
4, 1072640, Note_off_c, 2, 75, 67
4, 1072640, Note_on_c, 2, 77, 67
4, 1072704, Note_off_c, 2, 77, 67
4, 1072768, Note_off_c, 2, 77, 67
4, 1072768, Note_on_c, 2, 74, 67
4, 1072768, Note_on_c, 2, 77, 67
4, 1072832, Note_off_c, 2, 74, 67
4, 1072832, Note_off_c, 2, 77, 67
4, 1072896, Note_off_c, 2, 74, 67
4, 1072896, Note_off_c, 2, 77, 67
4, 1072896, Note_on_c, 2, 74, 67
4, 1072896, Note_on_c, 2, 77, 67
4, 1072960, Note_off_c, 2, 74, 67
4, 1072960, Note_off_c, 2, 77, 67
4, 1073024, Note_off_c, 2, 74, 67
4, 1073024, Note_off_c, 2, 77, 67
4, 1073024, Note_on_c, 2, 74, 67
4, 1073088, Note_off_c, 2, 74, 67
4, 1073088, Note_on_c, 2, 75, 67
4, 1073152, Note_off_c, 2, 75, 67
4, 1073152, Note_on_c, 2, 70, 67
4, 1073152, Note_on_c, 2, 77, 67
4, 1073216, Note_off_c, 2, 70, 67
4, 1073216, Note_off_c, 2, 77, 67
4, 1073280, Note_off_c, 2, 70, 67
4, 1073280, Note_off_c, 2, 77, 67
4, 1073280, Note_on_c, 2, 74, 67
4, 1073280, Note_on_c, 2, 77, 67
4, 1073344, Note_off_c, 2, 74, 67
4, 1073344, Note_off_c, 2, 77, 67
4, 1073408, Note_off_c, 2, 74, 67
4, 1073408, Note_off_c, 2, 77, 67
4, 1073408, Note_on_c, 2, 74, 67
4, 1073408, Note_on_c, 2, 79, 67
4, 1073440, Note_off_c, 2, 74, 67
4, 1073440, Note_off_c, 2, 79, 67
4, 1073472, Note_off_c, 2, 74, 67
4, 1073472, Note_off_c, 2, 79, 67
4, 1073472, Note_on_c, 2, 72, 67
4, 1073472, Note_on_c, 2, 77, 67
4, 1073504, Note_off_c, 2, 72, 67
4, 1073504, Note_off_c, 2, 77, 67
4, 1073536, Note_off_c, 2, 72, 67
4, 1073536, Note_off_c, 2, 77, 67
4, 1073536, Note_on_c, 2, 70, 67
4, 1073536, Note_on_c, 2, 77, 67
4, 1073568, Note_off_c, 2, 70, 67
4, 1073568, Note_off_c, 2, 77, 67
4, 1073600, Note_off_c, 2, 70, 67
4, 1073600, Note_off_c, 2, 77, 67
4, 1073600, Note_on_c, 2, 68, 67
4, 1073600, Note_on_c, 2, 79, 67
4, 1073632, Note_off_c, 2, 68, 67
4, 1073632, Note_off_c, 2, 79, 67
4, 1073664, Note_off_c, 2, 68, 67
4, 1073664, Note_off_c, 2, 79, 67
4, 1073664, Note_on_c, 2, 67, 67
4, 1073664, Note_on_c, 2, 75, 67
4, 1073728, Note_off_c, 2, 67, 67
4, 1073728, Note_off_c, 2, 75, 67
4, 1073792, Note_off_c, 2, 67, 67
4, 1073792, Note_off_c, 2, 75, 67
4, 1073792, Note_on_c, 2, 70, 67
4, 1073856, Note_off_c, 2, 70, 67
4, 1073920, Note_off_c, 2, 70, 67
4, 1073920, Note_on_c, 2, 70, 67
4, 1073920, Note_on_c, 2, 79, 67
4, 1073984, Note_off_c, 2, 70, 67
4, 1073984, Note_off_c, 2, 79, 67
4, 1074048, Note_off_c, 2, 70, 67
4, 1074048, Note_off_c, 2, 79, 67
4, 1074048, Note_on_c, 2, 75, 67
4, 1074112, Note_off_c, 2, 75, 67
4, 1074112, Note_on_c, 2, 77, 67
4, 1074176, Note_off_c, 2, 77, 67
4, 1074176, Note_on_c, 2, 79, 67
4, 1074240, Note_off_c, 2, 79, 67
4, 1074304, Note_off_c, 2, 79, 67
4, 1074304, Note_on_c, 2, 75, 67
4, 1074304, Note_on_c, 2, 79, 67
4, 1074368, Note_off_c, 2, 75, 67
4, 1074368, Note_off_c, 2, 79, 67
4, 1074432, Note_off_c, 2, 75, 67
4, 1074432, Note_off_c, 2, 79, 67
4, 1074432, Note_on_c, 2, 75, 67
4, 1074432, Note_on_c, 2, 79, 67
4, 1074496, Note_off_c, 2, 75, 67
4, 1074496, Note_off_c, 2, 79, 67
4, 1074560, Note_off_c, 2, 75, 67
4, 1074560, Note_off_c, 2, 79, 67
4, 1074560, Note_on_c, 2, 75, 67
4, 1074624, Note_off_c, 2, 75, 67
4, 1074624, Note_on_c, 2, 77, 67
4, 1074688, Note_off_c, 2, 77, 67
4, 1074688, Note_on_c, 2, 79, 67
4, 1074752, Note_off_c, 2, 79, 67
4, 1074816, Note_off_c, 2, 79, 67
4, 1074816, Note_on_c, 2, 75, 67
4, 1074816, Note_on_c, 2, 79, 67
4, 1074880, Note_off_c, 2, 75, 67
4, 1074880, Note_off_c, 2, 79, 67
4, 1074944, Note_off_c, 2, 75, 67
4, 1074944, Note_off_c, 2, 79, 67
4, 1074944, Note_on_c, 2, 75, 67
4, 1074944, Note_on_c, 2, 79, 67
4, 1075008, Note_off_c, 2, 75, 67
4, 1075008, Note_off_c, 2, 79, 67
4, 1075072, Note_off_c, 2, 75, 67
4, 1075072, Note_off_c, 2, 79, 67
4, 1075072, Note_on_c, 2, 75, 67
4, 1075136, Note_off_c, 2, 75, 67
4, 1075136, Note_on_c, 2, 77, 67
4, 1075200, Note_off_c, 2, 77, 67
4, 1075200, Note_on_c, 2, 79, 67
4, 1075264, Note_off_c, 2, 79, 67
4, 1075328, Note_off_c, 2, 79, 67
4, 1075328, Note_on_c, 2, 75, 67
4, 1075328, Note_on_c, 2, 79, 67
4, 1075392, Note_off_c, 2, 75, 67
4, 1075392, Note_off_c, 2, 79, 67
4, 1075456, Note_off_c, 2, 75, 67
4, 1075456, Note_off_c, 2, 79, 67
4, 1075456, Note_on_c, 2, 75, 67
4, 1075456, Note_on_c, 2, 80, 67
4, 1075488, Note_off_c, 2, 75, 67
4, 1075488, Note_off_c, 2, 80, 67
4, 1075520, Note_off_c, 2, 75, 67
4, 1075520, Note_off_c, 2, 80, 67
4, 1075520, Note_on_c, 2, 74, 67
4, 1075584, Note_off_c, 2, 74, 67
4, 1075584, Note_on_c, 2, 72, 67
4, 1075648, Note_off_c, 2, 72, 67
4, 1075648, Note_on_c, 2, 74, 67
4, 1075648, Note_on_c, 2, 79, 67
4, 1075680, Note_off_c, 2, 74, 67
4, 1075680, Note_off_c, 2, 79, 67
4, 1075712, Note_off_c, 2, 74, 67
4, 1075712, Note_off_c, 2, 79, 67
4, 1075712, Note_on_c, 2, 70, 67
4, 1075712, Note_on_c, 2, 77, 67
4, 1075776, Note_off_c, 2, 70, 67
4, 1075776, Note_off_c, 2, 77, 67
4, 1075840, Note_off_c, 2, 70, 67
4, 1075840, Note_off_c, 2, 77, 67
4, 1075840, Note_on_c, 2, 68, 67
4, 1075840, Note_on_c, 2, 70, 67
4, 1075904, Note_off_c, 2, 68, 67
4, 1075904, Note_off_c, 2, 70, 67
4, 1075968, Note_off_c, 2, 68, 67
4, 1075968, Note_off_c, 2, 70, 67
4, 1075968, Note_on_c, 2, 68, 67
4, 1075968, Note_on_c, 2, 70, 67
4, 1076032, Note_off_c, 2, 68, 67
4, 1076032, Note_off_c, 2, 70, 67
4, 1076096, Note_off_c, 2, 68, 67
4, 1076096, Note_off_c, 2, 70, 67
4, 1076096, Note_on_c, 2, 74, 67
4, 1076160, Note_off_c, 2, 74, 67
4, 1076160, Note_on_c, 2, 75, 67
4, 1076224, Note_off_c, 2, 75, 67
4, 1076224, Note_on_c, 2, 77, 67
4, 1076352, Note_off_c, 2, 77, 67
4, 1076352, Note_on_c, 2, 74, 67
4, 1076352, Note_on_c, 2, 80, 67
4, 1076416, Note_off_c, 2, 74, 67
4, 1076416, Note_off_c, 2, 80, 67
4, 1076480, Note_off_c, 2, 74, 67
4, 1076480, Note_off_c, 2, 80, 67
4, 1076480, Note_on_c, 2, 74, 67
4, 1076480, Note_on_c, 2, 79, 67
4, 1076544, Note_off_c, 2, 74, 67
4, 1076544, Note_off_c, 2, 79, 67
4, 1076608, Note_off_c, 2, 74, 67
4, 1076608, Note_off_c, 2, 79, 67
4, 1076608, Note_on_c, 2, 77, 67
4, 1076672, Note_off_c, 2, 77, 67
4, 1076736, Note_off_c, 2, 77, 67
4, 1076736, Note_on_c, 2, 75, 67
4, 1076800, Note_off_c, 2, 75, 67
4, 1076864, Note_off_c, 2, 75, 67
4, 1076864, Note_on_c, 2, 70, 67
4, 1076864, Note_on_c, 2, 74, 67
4, 1076928, Note_off_c, 2, 70, 67
4, 1076928, Note_off_c, 2, 74, 67
4, 1076992, Note_off_c, 2, 70, 67
4, 1076992, Note_off_c, 2, 74, 67
4, 1076992, Note_on_c, 2, 72, 67
4, 1076992, Note_on_c, 2, 74, 67
4, 1077056, Note_off_c, 2, 72, 67
4, 1077056, Note_off_c, 2, 74, 67
4, 1077120, Note_off_c, 2, 72, 67
4, 1077120, Note_off_c, 2, 74, 67
4, 1077120, Note_on_c, 2, 70, 67
4, 1077120, Note_on_c, 2, 74, 67
4, 1077184, Note_off_c, 2, 70, 67
4, 1077184, Note_off_c, 2, 74, 67
4, 1077248, Note_off_c, 2, 70, 67
4, 1077248, Note_off_c, 2, 74, 67
4, 1077248, Note_on_c, 2, 80, 67
4, 1077248, Note_on_c, 2, 84, 67
4, 1077504, Note_off_c, 2, 80, 67
4, 1077504, Note_off_c, 2, 84, 67
4, 1077504, Note_on_c, 2, 70, 67
4, 1077504, Note_on_c, 2, 74, 67
4, 1077520, Note_off_c, 2, 70, 67
4, 1077520, Note_off_c, 2, 74, 67
4, 1077536, Note_off_c, 2, 70, 67
4, 1077536, Note_off_c, 2, 74, 67
4, 1077536, Note_on_c, 2, 72, 67
4, 1077536, Note_on_c, 2, 75, 67
4, 1077552, Note_off_c, 2, 72, 67
4, 1077552, Note_off_c, 2, 75, 67
4, 1077568, Note_off_c, 2, 72, 67
4, 1077568, Note_off_c, 2, 75, 67
4, 1077568, Note_on_c, 2, 70, 67
4, 1077568, Note_on_c, 2, 74, 67
4, 1077600, Note_off_c, 2, 70, 67
4, 1077600, Note_off_c, 2, 74, 67
4, 1077632, Note_off_c, 2, 70, 67
4, 1077632, Note_off_c, 2, 74, 67
4, 1077632, Note_on_c, 2, 68, 67
4, 1077632, Note_on_c, 2, 72, 67
4, 1077664, Note_off_c, 2, 68, 67
4, 1077664, Note_off_c, 2, 72, 67
4, 1077696, Note_off_c, 2, 68, 67
4, 1077696, Note_off_c, 2, 72, 67
4, 1077696, Note_on_c, 2, 74, 67
4, 1077696, Note_on_c, 2, 77, 67
4, 1077728, Note_off_c, 2, 74, 67
4, 1077728, Note_off_c, 2, 77, 67
4, 1077760, Note_off_c, 2, 74, 67
4, 1077760, Note_off_c, 2, 77, 67
4, 1077760, Note_on_c, 2, 75, 67
4, 1077760, Note_on_c, 2, 79, 67
4, 1077888, Note_off_c, 2, 75, 67
4, 1077888, Note_off_c, 2, 79, 67
4, 1077888, Note_on_c, 2, 70, 67
4, 1077952, Note_off_c, 2, 70, 67
4, 1078016, Note_off_c, 2, 70, 67
4, 1078016, Note_on_c, 2, 70, 67
4, 1078080, Note_off_c, 2, 70, 67
4, 1078144, Note_off_c, 2, 70, 67
4, 1078144, Note_on_c, 2, 75, 67
4, 1078144, Note_on_c, 2, 79, 67
4, 1078208, Note_off_c, 2, 75, 67
4, 1078208, Note_off_c, 2, 79, 67
4, 1078208, Note_on_c, 2, 77, 67
4, 1078208, Note_on_c, 2, 80, 67
4, 1078272, Note_off_c, 2, 77, 67
4, 1078272, Note_off_c, 2, 80, 67
4, 1078272, Note_on_c, 2, 79, 67
4, 1078272, Note_on_c, 2, 82, 67
4, 1078336, Note_off_c, 2, 79, 67
4, 1078336, Note_off_c, 2, 82, 67
4, 1078400, Note_off_c, 2, 79, 67
4, 1078400, Note_off_c, 2, 82, 67
4, 1078400, Note_on_c, 2, 79, 67
4, 1078400, Note_on_c, 2, 82, 67
4, 1078464, Note_off_c, 2, 79, 67
4, 1078464, Note_off_c, 2, 82, 67
4, 1078528, Note_off_c, 2, 79, 67
4, 1078528, Note_off_c, 2, 82, 67
4, 1078528, Note_on_c, 2, 70, 67
4, 1078528, Note_on_c, 2, 79, 67
4, 1078592, Note_off_c, 2, 70, 67
4, 1078592, Note_off_c, 2, 79, 67
4, 1078656, Note_off_c, 2, 70, 67
4, 1078656, Note_off_c, 2, 79, 67
4, 1078656, Note_on_c, 2, 70, 67
4, 1078656, Note_on_c, 2, 75, 67
4, 1078720, Note_off_c, 2, 70, 67
4, 1078720, Note_off_c, 2, 75, 67
4, 1078784, Note_off_c, 2, 70, 67
4, 1078784, Note_off_c, 2, 75, 67
4, 1078784, Note_on_c, 2, 84, 67
4, 1078784, Note_on_c, 2, 87, 67
4, 1078848, Note_off_c, 2, 84, 67
4, 1078848, Note_off_c, 2, 87, 67
4, 1078912, Note_off_c, 2, 84, 67
4, 1078912, Note_off_c, 2, 87, 67
4, 1078912, Note_on_c, 2, 82, 67
4, 1078912, Note_on_c, 2, 86, 67
4, 1078976, Note_off_c, 2, 82, 67
4, 1078976, Note_off_c, 2, 86, 67
4, 1079040, Note_off_c, 2, 82, 67
4, 1079040, Note_off_c, 2, 86, 67
4, 1079040, Note_on_c, 2, 80, 67
4, 1079040, Note_on_c, 2, 84, 67
4, 1079104, Note_off_c, 2, 80, 67
4, 1079104, Note_off_c, 2, 84, 67
4, 1079168, Note_off_c, 2, 80, 67
4, 1079168, Note_off_c, 2, 84, 67
4, 1079168, Note_on_c, 2, 79, 67
4, 1079168, Note_on_c, 2, 87, 67
4, 1079232, Note_off_c, 2, 79, 67
4, 1079232, Note_off_c, 2, 87, 67
4, 1079296, Note_off_c, 2, 79, 67
4, 1079296, Note_off_c, 2, 87, 67
4, 1079296, Note_on_c, 2, 75, 67
4, 1079296, Note_on_c, 2, 82, 67
4, 1079360, Note_off_c, 2, 75, 67
4, 1079360, Note_off_c, 2, 82, 67
4, 1079424, Note_off_c, 2, 75, 67
4, 1079424, Note_off_c, 2, 82, 67
4, 1079424, Note_on_c, 2, 79, 67
4, 1079488, Note_off_c, 2, 79, 67
4, 1079552, Note_off_c, 2, 79, 67
4, 1079552, Note_on_c, 2, 67, 67
4, 1079552, Note_on_c, 2, 75, 67
4, 1079616, Note_off_c, 2, 67, 67
4, 1079616, Note_off_c, 2, 75, 67
4, 1079680, Note_off_c, 2, 67, 67
4, 1079680, Note_off_c, 2, 75, 67
4, 1079680, Note_on_c, 2, 68, 67
4, 1079680, Note_on_c, 2, 74, 67
4, 1079712, Note_off_c, 2, 68, 67
4, 1079712, Note_off_c, 2, 74, 67
4, 1079744, Note_off_c, 2, 68, 67
4, 1079744, Note_off_c, 2, 74, 67
4, 1079744, Note_on_c, 2, 74, 67
4, 1079744, Note_on_c, 2, 79, 67
4, 1079776, Note_off_c, 2, 74, 67
4, 1079776, Note_off_c, 2, 79, 67
4, 1079808, Note_off_c, 2, 74, 67
4, 1079808, Note_off_c, 2, 79, 67
4, 1079808, Note_on_c, 2, 70, 67
4, 1079808, Note_on_c, 2, 77, 67
4, 1079872, Note_off_c, 2, 70, 67
4, 1079872, Note_off_c, 2, 77, 67
4, 1079936, Note_off_c, 2, 70, 67
4, 1079936, Note_off_c, 2, 77, 67
4, 1079936, Note_on_c, 2, 65, 67
4, 1079936, Note_on_c, 2, 70, 67
4, 1080000, Note_off_c, 2, 65, 67
4, 1080000, Note_off_c, 2, 70, 67
4, 1080064, Note_off_c, 2, 65, 67
4, 1080064, Note_off_c, 2, 70, 67
4, 1080064, Note_on_c, 2, 68, 67
4, 1080064, Note_on_c, 2, 70, 67
4, 1080128, Note_off_c, 2, 68, 67
4, 1080128, Note_off_c, 2, 70, 67
4, 1080192, Note_off_c, 2, 68, 67
4, 1080192, Note_off_c, 2, 70, 67
4, 1080192, Note_on_c, 2, 70, 67
4, 1080192, Note_on_c, 2, 79, 67
4, 1080256, Note_off_c, 2, 70, 67
4, 1080256, Note_off_c, 2, 79, 67
4, 1080256, Note_on_c, 2, 77, 67
4, 1080256, Note_on_c, 2, 80, 67
4, 1080320, Note_off_c, 2, 77, 67
4, 1080320, Note_off_c, 2, 80, 67
4, 1080320, Note_on_c, 2, 79, 67
4, 1080320, Note_on_c, 2, 82, 67
4, 1080384, Note_off_c, 2, 79, 67
4, 1080384, Note_off_c, 2, 82, 67
4, 1080448, Note_off_c, 2, 79, 67
4, 1080448, Note_off_c, 2, 82, 67
4, 1080448, Note_on_c, 2, 79, 67
4, 1080448, Note_on_c, 2, 82, 67
4, 1080512, Note_off_c, 2, 79, 67
4, 1080512, Note_off_c, 2, 82, 67
4, 1080576, Note_off_c, 2, 79, 67
4, 1080576, Note_off_c, 2, 82, 67
4, 1080576, Note_on_c, 2, 70, 67
4, 1080576, Note_on_c, 2, 79, 67
4, 1080640, Note_off_c, 2, 70, 67
4, 1080640, Note_off_c, 2, 79, 67
4, 1080704, Note_off_c, 2, 70, 67
4, 1080704, Note_off_c, 2, 79, 67
4, 1080704, Note_on_c, 2, 75, 67
4, 1080704, Note_on_c, 2, 82, 67
4, 1080768, Note_off_c, 2, 75, 67
4, 1080768, Note_off_c, 2, 82, 67
4, 1080832, Note_off_c, 2, 75, 67
4, 1080832, Note_off_c, 2, 82, 67
4, 1080832, Note_on_c, 2, 84, 67
4, 1080832, Note_on_c, 2, 87, 67
4, 1080896, Note_off_c, 2, 84, 67
4, 1080896, Note_off_c, 2, 87, 67
4, 1080960, Note_off_c, 2, 84, 67
4, 1080960, Note_off_c, 2, 87, 67
4, 1080960, Note_on_c, 2, 82, 67
4, 1080960, Note_on_c, 2, 86, 67
4, 1081024, Note_off_c, 2, 82, 67
4, 1081024, Note_off_c, 2, 86, 67
4, 1081088, Note_off_c, 2, 82, 67
4, 1081088, Note_off_c, 2, 86, 67
4, 1081088, Note_on_c, 2, 80, 67
4, 1081088, Note_on_c, 2, 84, 67
4, 1081152, Note_off_c, 2, 80, 67
4, 1081152, Note_off_c, 2, 84, 67
4, 1081216, Note_off_c, 2, 80, 67
4, 1081216, Note_off_c, 2, 84, 67
4, 1081216, Note_on_c, 2, 70, 67
4, 1081216, Note_on_c, 2, 74, 67
4, 1081248, Note_off_c, 2, 70, 67
4, 1081248, Note_off_c, 2, 74, 67
4, 1081280, Note_off_c, 2, 70, 67
4, 1081280, Note_off_c, 2, 74, 67
4, 1081280, Note_on_c, 2, 77, 67
4, 1081280, Note_on_c, 2, 80, 67
4, 1081312, Note_off_c, 2, 77, 67
4, 1081312, Note_off_c, 2, 80, 67
4, 1081344, Note_off_c, 2, 77, 67
4, 1081344, Note_off_c, 2, 80, 67
4, 1081344, Note_on_c, 2, 77, 67
4, 1081344, Note_on_c, 2, 82, 67
4, 1081408, Note_off_c, 2, 77, 67
4, 1081408, Note_off_c, 2, 82, 67
4, 1081472, Note_off_c, 2, 77, 67
4, 1081472, Note_off_c, 2, 82, 67
4, 1081472, Note_on_c, 2, 80, 67
4, 1081472, Note_on_c, 2, 87, 67
4, 1081536, Note_off_c, 2, 80, 67
4, 1081536, Note_off_c, 2, 87, 67
4, 1081600, Note_off_c, 2, 80, 67
4, 1081600, Note_off_c, 2, 87, 67
4, 1081600, Note_on_c, 2, 82, 67
4, 1081600, Note_on_c, 2, 86, 67
4, 1081664, Note_off_c, 2, 82, 67
4, 1081664, Note_off_c, 2, 86, 67
4, 1081728, Note_off_c, 2, 82, 67
4, 1081728, Note_off_c, 2, 86, 67
4, 1081728, Note_on_c, 2, 80, 67
4, 1081728, Note_on_c, 2, 89, 67
4, 1081792, Note_off_c, 2, 80, 67
4, 1081792, Note_off_c, 2, 89, 67
4, 1081856, Note_off_c, 2, 80, 67
4, 1081856, Note_off_c, 2, 89, 67
4, 1081856, Note_on_c, 2, 79, 67
4, 1081856, Note_on_c, 2, 87, 67
4, 1081920, Note_off_c, 2, 79, 67
4, 1081920, Note_off_c, 2, 87, 67
4, 1081984, Note_off_c, 2, 79, 67
4, 1081984, Note_off_c, 2, 87, 67
4, 1081984, Note_on_c, 2, 70, 67
4, 1081984, Note_on_c, 2, 82, 67
4, 1082048, Note_off_c, 2, 70, 67
4, 1082048, Note_off_c, 2, 82, 67
4, 1082112, Note_off_c, 2, 70, 67
4, 1082112, Note_off_c, 2, 82, 67
4, 1082112, Note_on_c, 2, 70, 67
4, 1082112, Note_on_c, 2, 82, 67
4, 1082176, Note_off_c, 2, 70, 67
4, 1082176, Note_off_c, 2, 82, 67
4, 1082240, Note_off_c, 2, 70, 67
4, 1082240, Note_off_c, 2, 82, 67
4, 1082240, Note_on_c, 2, 75, 67
4, 1082304, Note_off_c, 2, 75, 67
4, 1082304, Note_on_c, 2, 77, 67
4, 1082368, Note_off_c, 2, 77, 67
4, 1082368, Note_on_c, 2, 79, 67
4, 1082432, Note_off_c, 2, 79, 67
4, 1082496, Note_off_c, 2, 79, 67
4, 1082496, Note_on_c, 2, 75, 67
4, 1082496, Note_on_c, 2, 79, 67
4, 1082560, Note_off_c, 2, 75, 67
4, 1082560, Note_off_c, 2, 79, 67
4, 1082624, Note_off_c, 2, 75, 67
4, 1082624, Note_off_c, 2, 79, 67
4, 1082624, Note_on_c, 2, 75, 67
4, 1082624, Note_on_c, 2, 79, 67
4, 1082688, Note_off_c, 2, 75, 67
4, 1082688, Note_off_c, 2, 79, 67
4, 1082752, Note_off_c, 2, 75, 67
4, 1082752, Note_off_c, 2, 79, 67
4, 1082752, Note_on_c, 2, 75, 67
4, 1082816, Note_off_c, 2, 75, 67
4, 1082816, Note_on_c, 2, 77, 67
4, 1082880, Note_off_c, 2, 77, 67
4, 1082880, Note_on_c, 2, 79, 67
4, 1082944, Note_off_c, 2, 79, 67
4, 1083008, Note_off_c, 2, 79, 67
4, 1083008, Note_on_c, 2, 75, 67
4, 1083008, Note_on_c, 2, 79, 67
4, 1083072, Note_off_c, 2, 75, 67
4, 1083072, Note_off_c, 2, 79, 67
4, 1083136, Note_off_c, 2, 75, 67
4, 1083136, Note_off_c, 2, 79, 67
4, 1083136, Note_on_c, 2, 75, 67
4, 1083136, Note_on_c, 2, 79, 67
4, 1083200, Note_off_c, 2, 75, 67
4, 1083200, Note_off_c, 2, 79, 67
4, 1083264, Note_off_c, 2, 75, 67
4, 1083264, Note_off_c, 2, 79, 67
4, 1083264, Note_on_c, 2, 75, 67
4, 1083328, Note_off_c, 2, 75, 67
4, 1083328, Note_on_c, 2, 77, 67
4, 1083392, Note_off_c, 2, 77, 67
4, 1083392, Note_on_c, 2, 79, 67
4, 1083456, Note_off_c, 2, 79, 67
4, 1083520, Note_off_c, 2, 79, 67
4, 1083520, Note_on_c, 2, 75, 67
4, 1083520, Note_on_c, 2, 79, 67
4, 1083584, Note_off_c, 2, 75, 67
4, 1083584, Note_off_c, 2, 79, 67
4, 1083648, Note_off_c, 2, 75, 67
4, 1083648, Note_off_c, 2, 79, 67
4, 1083648, Note_on_c, 2, 75, 67
4, 1083648, Note_on_c, 2, 80, 67
4, 1083680, Note_off_c, 2, 75, 67
4, 1083680, Note_off_c, 2, 80, 67
4, 1083712, Note_off_c, 2, 75, 67
4, 1083712, Note_off_c, 2, 80, 67
4, 1083712, Note_on_c, 2, 74, 67
4, 1083744, Note_off_c, 2, 74, 67
4, 1083776, Note_off_c, 2, 74, 67
4, 1083776, Note_on_c, 2, 72, 67
4, 1083808, Note_off_c, 2, 72, 67
4, 1083840, Note_off_c, 2, 72, 67
4, 1083840, Note_on_c, 2, 74, 67
4, 1083840, Note_on_c, 2, 79, 67
4, 1083872, Note_off_c, 2, 74, 67
4, 1083872, Note_off_c, 2, 79, 67
4, 1083904, Note_off_c, 2, 74, 67
4, 1083904, Note_off_c, 2, 79, 67
4, 1083904, Note_on_c, 2, 70, 67
4, 1083904, Note_on_c, 2, 77, 67
4, 1083968, Note_off_c, 2, 70, 67
4, 1083968, Note_off_c, 2, 77, 67
4, 1084032, Note_off_c, 2, 70, 67
4, 1084032, Note_off_c, 2, 77, 67
4, 1084032, Note_on_c, 2, 68, 67
4, 1084032, Note_on_c, 2, 70, 67
4, 1084096, Note_off_c, 2, 68, 67
4, 1084096, Note_off_c, 2, 70, 67
4, 1084160, Note_off_c, 2, 68, 67
4, 1084160, Note_off_c, 2, 70, 67
4, 1084160, Note_on_c, 2, 68, 67
4, 1084160, Note_on_c, 2, 70, 67
4, 1084224, Note_off_c, 2, 68, 67
4, 1084224, Note_off_c, 2, 70, 67
4, 1084288, Note_off_c, 2, 68, 67
4, 1084288, Note_off_c, 2, 70, 67
4, 1084288, Note_on_c, 2, 74, 67
4, 1084352, Note_off_c, 2, 74, 67
4, 1084352, Note_on_c, 2, 75, 67
4, 1084416, Note_off_c, 2, 75, 67
4, 1084416, Note_on_c, 2, 77, 67
4, 1084480, Note_off_c, 2, 77, 67
4, 1084544, Note_off_c, 2, 77, 67
4, 1084544, Note_on_c, 2, 74, 67
4, 1084544, Note_on_c, 2, 77, 67
4, 1084608, Note_off_c, 2, 74, 67
4, 1084608, Note_off_c, 2, 77, 67
4, 1084672, Note_off_c, 2, 74, 67
4, 1084672, Note_off_c, 2, 77, 67
4, 1084672, Note_on_c, 2, 74, 67
4, 1084672, Note_on_c, 2, 77, 67
4, 1084736, Note_off_c, 2, 74, 67
4, 1084736, Note_off_c, 2, 77, 67
4, 1084800, Note_off_c, 2, 74, 67
4, 1084800, Note_off_c, 2, 77, 67
4, 1084800, Note_on_c, 2, 74, 67
4, 1084864, Note_off_c, 2, 74, 67
4, 1084864, Note_on_c, 2, 75, 67
4, 1084928, Note_off_c, 2, 75, 67
4, 1084928, Note_on_c, 2, 77, 67
4, 1084992, Note_off_c, 2, 77, 67
4, 1085056, Note_off_c, 2, 77, 67
4, 1085056, Note_on_c, 2, 74, 67
4, 1085056, Note_on_c, 2, 77, 67
4, 1085120, Note_off_c, 2, 74, 67
4, 1085120, Note_off_c, 2, 77, 67
4, 1085184, Note_off_c, 2, 74, 67
4, 1085184, Note_off_c, 2, 77, 67
4, 1085184, Note_on_c, 2, 74, 67
4, 1085184, Note_on_c, 2, 77, 67
4, 1085248, Note_off_c, 2, 74, 67
4, 1085248, Note_off_c, 2, 77, 67
4, 1085312, Note_off_c, 2, 74, 67
4, 1085312, Note_off_c, 2, 77, 67
4, 1085312, Note_on_c, 2, 74, 67
4, 1085376, Note_off_c, 2, 74, 67
4, 1085376, Note_on_c, 2, 75, 67
4, 1085440, Note_off_c, 2, 75, 67
4, 1085440, Note_on_c, 2, 70, 67
4, 1085440, Note_on_c, 2, 77, 67
4, 1085504, Note_off_c, 2, 70, 67
4, 1085504, Note_off_c, 2, 77, 67
4, 1085568, Note_off_c, 2, 70, 67
4, 1085568, Note_off_c, 2, 77, 67
4, 1085568, Note_on_c, 2, 74, 67
4, 1085568, Note_on_c, 2, 77, 67
4, 1085632, Note_off_c, 2, 74, 67
4, 1085632, Note_off_c, 2, 77, 67
4, 1085696, Note_off_c, 2, 74, 67
4, 1085696, Note_off_c, 2, 77, 67
4, 1085696, Note_on_c, 2, 74, 67
4, 1085696, Note_on_c, 2, 79, 67
4, 1085728, Note_off_c, 2, 74, 67
4, 1085728, Note_off_c, 2, 79, 67
4, 1085760, Note_off_c, 2, 74, 67
4, 1085760, Note_off_c, 2, 79, 67
4, 1085760, Note_on_c, 2, 72, 67
4, 1085760, Note_on_c, 2, 77, 67
4, 1085792, Note_off_c, 2, 72, 67
4, 1085792, Note_off_c, 2, 77, 67
4, 1085824, Note_off_c, 2, 72, 67
4, 1085824, Note_off_c, 2, 77, 67
4, 1085824, Note_on_c, 2, 70, 67
4, 1085824, Note_on_c, 2, 77, 67
4, 1085856, Note_off_c, 2, 70, 67
4, 1085856, Note_off_c, 2, 77, 67
4, 1085888, Note_off_c, 2, 70, 67
4, 1085888, Note_off_c, 2, 77, 67
4, 1085888, Note_on_c, 2, 68, 67
4, 1085888, Note_on_c, 2, 79, 67
4, 1085920, Note_off_c, 2, 68, 67
4, 1085920, Note_off_c, 2, 79, 67
4, 1085952, Note_off_c, 2, 68, 67
4, 1085952, Note_off_c, 2, 79, 67
4, 1085952, Note_on_c, 2, 67, 67
4, 1085952, Note_on_c, 2, 75, 67
4, 1086016, Note_off_c, 2, 67, 67
4, 1086016, Note_off_c, 2, 75, 67
4, 1086080, Note_off_c, 2, 67, 67
4, 1086080, Note_off_c, 2, 75, 67
4, 1086080, Note_on_c, 2, 70, 67
4, 1086144, Note_off_c, 2, 70, 67
4, 1086208, Note_off_c, 2, 70, 67
4, 1086208, Note_on_c, 2, 70, 67
4, 1086208, Note_on_c, 2, 79, 67
4, 1086272, Note_off_c, 2, 70, 67
4, 1086272, Note_off_c, 2, 79, 67
4, 1086336, Note_off_c, 2, 70, 67
4, 1086336, Note_off_c, 2, 79, 67
4, 1086336, Note_on_c, 2, 75, 67
4, 1086400, Note_off_c, 2, 75, 67
4, 1086400, Note_on_c, 2, 77, 67
4, 1086464, Note_off_c, 2, 77, 67
4, 1086464, Note_on_c, 2, 79, 67
4, 1086528, Note_off_c, 2, 79, 67
4, 1086592, Note_off_c, 2, 79, 67
4, 1086592, Note_on_c, 2, 75, 67
4, 1086592, Note_on_c, 2, 79, 67
4, 1086656, Note_off_c, 2, 75, 67
4, 1086656, Note_off_c, 2, 79, 67
4, 1086720, Note_off_c, 2, 75, 67
4, 1086720, Note_off_c, 2, 79, 67
4, 1086720, Note_on_c, 2, 75, 67
4, 1086720, Note_on_c, 2, 79, 67
4, 1086784, Note_off_c, 2, 75, 67
4, 1086784, Note_off_c, 2, 79, 67
4, 1086848, Note_off_c, 2, 75, 67
4, 1086848, Note_off_c, 2, 79, 67
4, 1086848, Note_on_c, 2, 75, 67
4, 1086912, Note_off_c, 2, 75, 67
4, 1086912, Note_on_c, 2, 77, 67
4, 1086976, Note_off_c, 2, 77, 67
4, 1086976, Note_on_c, 2, 79, 67
4, 1087040, Note_off_c, 2, 79, 67
4, 1087104, Note_off_c, 2, 79, 67
4, 1087104, Note_on_c, 2, 75, 67
4, 1087104, Note_on_c, 2, 79, 67
4, 1087168, Note_off_c, 2, 75, 67
4, 1087168, Note_off_c, 2, 79, 67
4, 1087232, Note_off_c, 2, 75, 67
4, 1087232, Note_off_c, 2, 79, 67
4, 1087232, Note_on_c, 2, 75, 67
4, 1087232, Note_on_c, 2, 79, 67
4, 1087296, Note_off_c, 2, 75, 67
4, 1087296, Note_off_c, 2, 79, 67
4, 1087360, Note_off_c, 2, 75, 67
4, 1087360, Note_off_c, 2, 79, 67
4, 1087360, Note_on_c, 2, 75, 67
4, 1087424, Note_off_c, 2, 75, 67
4, 1087424, Note_on_c, 2, 77, 67
4, 1087488, Note_off_c, 2, 77, 67
4, 1087488, Note_on_c, 2, 79, 67
4, 1087552, Note_off_c, 2, 79, 67
4, 1087616, Note_off_c, 2, 79, 67
4, 1087616, Note_on_c, 2, 75, 67
4, 1087616, Note_on_c, 2, 79, 67
4, 1087680, Note_off_c, 2, 75, 67
4, 1087680, Note_off_c, 2, 79, 67
4, 1087744, Note_off_c, 2, 75, 67
4, 1087744, Note_off_c, 2, 79, 67
4, 1087744, Note_on_c, 2, 75, 67
4, 1087744, Note_on_c, 2, 80, 67
4, 1087776, Note_off_c, 2, 75, 67
4, 1087776, Note_off_c, 2, 80, 67
4, 1087808, Note_off_c, 2, 75, 67
4, 1087808, Note_off_c, 2, 80, 67
4, 1087808, Note_on_c, 2, 74, 67
4, 1087872, Note_off_c, 2, 74, 67
4, 1087872, Note_on_c, 2, 72, 67
4, 1087936, Note_off_c, 2, 72, 67
4, 1087936, Note_on_c, 2, 74, 67
4, 1087936, Note_on_c, 2, 79, 67
4, 1087968, Note_off_c, 2, 74, 67
4, 1087968, Note_off_c, 2, 79, 67
4, 1088000, Note_off_c, 2, 74, 67
4, 1088000, Note_off_c, 2, 79, 67
4, 1088000, Note_on_c, 2, 70, 67
4, 1088000, Note_on_c, 2, 77, 67
4, 1088064, Note_off_c, 2, 70, 67
4, 1088064, Note_off_c, 2, 77, 67
4, 1088128, Note_off_c, 2, 70, 67
4, 1088128, Note_off_c, 2, 77, 67
4, 1088128, Note_on_c, 2, 68, 67
4, 1088128, Note_on_c, 2, 70, 67
4, 1088192, Note_off_c, 2, 68, 67
4, 1088192, Note_off_c, 2, 70, 67
4, 1088256, Note_off_c, 2, 68, 67
4, 1088256, Note_off_c, 2, 70, 67
4, 1088256, Note_on_c, 2, 68, 67
4, 1088256, Note_on_c, 2, 70, 67
4, 1088320, Note_off_c, 2, 68, 67
4, 1088320, Note_off_c, 2, 70, 67
4, 1088384, Note_off_c, 2, 68, 67
4, 1088384, Note_off_c, 2, 70, 67
4, 1088384, Note_on_c, 2, 74, 67
4, 1088448, Note_off_c, 2, 74, 67
4, 1088448, Note_on_c, 2, 75, 67
4, 1088512, Note_off_c, 2, 75, 67
4, 1088512, Note_on_c, 2, 77, 67
4, 1088640, Note_off_c, 2, 77, 67
4, 1088640, Note_on_c, 2, 74, 67
4, 1088640, Note_on_c, 2, 80, 67
4, 1088704, Note_off_c, 2, 74, 67
4, 1088704, Note_off_c, 2, 80, 67
4, 1088768, Note_off_c, 2, 74, 67
4, 1088768, Note_off_c, 2, 80, 67
4, 1088768, Note_on_c, 2, 74, 67
4, 1088768, Note_on_c, 2, 79, 67
4, 1088832, Note_off_c, 2, 74, 67
4, 1088832, Note_off_c, 2, 79, 67
4, 1088896, Note_off_c, 2, 74, 67
4, 1088896, Note_off_c, 2, 79, 67
4, 1088896, Note_on_c, 2, 77, 67
4, 1088960, Note_off_c, 2, 77, 67
4, 1089024, Note_off_c, 2, 77, 67
4, 1089024, Note_on_c, 2, 75, 67
4, 1089088, Note_off_c, 2, 75, 67
4, 1089152, Note_off_c, 2, 75, 67
4, 1089152, Note_on_c, 2, 70, 67
4, 1089152, Note_on_c, 2, 74, 67
4, 1089216, Note_off_c, 2, 70, 67
4, 1089216, Note_off_c, 2, 74, 67
4, 1089280, Note_off_c, 2, 70, 67
4, 1089280, Note_off_c, 2, 74, 67
4, 1089280, Note_on_c, 2, 72, 67
4, 1089280, Note_on_c, 2, 74, 67
4, 1089344, Note_off_c, 2, 72, 67
4, 1089344, Note_off_c, 2, 74, 67
4, 1089408, Note_off_c, 2, 72, 67
4, 1089408, Note_off_c, 2, 74, 67
4, 1089408, Note_on_c, 2, 70, 67
4, 1089408, Note_on_c, 2, 74, 67
4, 1089472, Note_off_c, 2, 70, 67
4, 1089472, Note_off_c, 2, 74, 67
4, 1089536, Note_off_c, 2, 70, 67
4, 1089536, Note_off_c, 2, 74, 67
4, 1089536, Note_on_c, 2, 80, 67
4, 1089536, Note_on_c, 2, 84, 67
4, 1089792, Note_off_c, 2, 80, 67
4, 1089792, Note_off_c, 2, 84, 67
4, 1089792, Note_on_c, 2, 70, 67
4, 1089792, Note_on_c, 2, 74, 67
4, 1089808, Note_off_c, 2, 70, 67
4, 1089808, Note_off_c, 2, 74, 67
4, 1089824, Note_off_c, 2, 70, 67
4, 1089824, Note_off_c, 2, 74, 67
4, 1089824, Note_on_c, 2, 72, 67
4, 1089824, Note_on_c, 2, 75, 67
4, 1089840, Note_off_c, 2, 72, 67
4, 1089840, Note_off_c, 2, 75, 67
4, 1089856, Note_off_c, 2, 72, 67
4, 1089856, Note_off_c, 2, 75, 67
4, 1089856, Note_on_c, 2, 70, 67
4, 1089856, Note_on_c, 2, 74, 67
4, 1089888, Note_off_c, 2, 70, 67
4, 1089888, Note_off_c, 2, 74, 67
4, 1089920, Note_off_c, 2, 70, 67
4, 1089920, Note_off_c, 2, 74, 67
4, 1089920, Note_on_c, 2, 68, 67
4, 1089920, Note_on_c, 2, 72, 67
4, 1089952, Note_off_c, 2, 68, 67
4, 1089952, Note_off_c, 2, 72, 67
4, 1089984, Note_off_c, 2, 68, 67
4, 1089984, Note_off_c, 2, 72, 67
4, 1089984, Note_on_c, 2, 74, 67
4, 1089984, Note_on_c, 2, 77, 67
4, 1090016, Note_off_c, 2, 74, 67
4, 1090016, Note_off_c, 2, 77, 67
4, 1090048, Note_off_c, 2, 74, 67
4, 1090048, Note_off_c, 2, 77, 67
4, 1090048, Note_on_c, 2, 75, 67
4, 1090048, Note_on_c, 2, 79, 67
4, 1090176, Note_off_c, 2, 75, 67
4, 1090176, Note_off_c, 2, 79, 67
4, 1090176, Note_on_c, 2, 70, 67
4, 1090240, Note_off_c, 2, 70, 67
4, 1090304, Note_off_c, 2, 70, 67
4, 1090304, Note_on_c, 2, 70, 67
4, 1090368, Note_off_c, 2, 70, 67
4, 1090432, Note_off_c, 2, 70, 67
4, 1090432, Note_on_c, 2, 75, 67
4, 1090432, Note_on_c, 2, 79, 67
4, 1090496, Note_off_c, 2, 75, 67
4, 1090496, Note_off_c, 2, 79, 67
4, 1090496, Note_on_c, 2, 77, 67
4, 1090496, Note_on_c, 2, 80, 67
4, 1090560, Note_off_c, 2, 77, 67
4, 1090560, Note_off_c, 2, 80, 67
4, 1090560, Note_on_c, 2, 79, 67
4, 1090560, Note_on_c, 2, 82, 67
4, 1090624, Note_off_c, 2, 79, 67
4, 1090624, Note_off_c, 2, 82, 67
4, 1090688, Note_off_c, 2, 79, 67
4, 1090688, Note_off_c, 2, 82, 67
4, 1090688, Note_on_c, 2, 79, 67
4, 1090688, Note_on_c, 2, 82, 67
4, 1090752, Note_off_c, 2, 79, 67
4, 1090752, Note_off_c, 2, 82, 67
4, 1090816, Note_off_c, 2, 79, 67
4, 1090816, Note_off_c, 2, 82, 67
4, 1090816, Note_on_c, 2, 70, 67
4, 1090816, Note_on_c, 2, 79, 67
4, 1090880, Note_off_c, 2, 70, 67
4, 1090880, Note_off_c, 2, 79, 67
4, 1090944, Note_off_c, 2, 70, 67
4, 1090944, Note_off_c, 2, 79, 67
4, 1090944, Note_on_c, 2, 70, 67
4, 1090944, Note_on_c, 2, 75, 67
4, 1091008, Note_off_c, 2, 70, 67
4, 1091008, Note_off_c, 2, 75, 67
4, 1091072, Note_off_c, 2, 70, 67
4, 1091072, Note_off_c, 2, 75, 67
4, 1091072, Note_on_c, 2, 84, 67
4, 1091072, Note_on_c, 2, 87, 67
4, 1091136, Note_off_c, 2, 84, 67
4, 1091136, Note_off_c, 2, 87, 67
4, 1091200, Note_off_c, 2, 84, 67
4, 1091200, Note_off_c, 2, 87, 67
4, 1091200, Note_on_c, 2, 82, 67
4, 1091200, Note_on_c, 2, 86, 67
4, 1091264, Note_off_c, 2, 82, 67
4, 1091264, Note_off_c, 2, 86, 67
4, 1091328, Note_off_c, 2, 82, 67
4, 1091328, Note_off_c, 2, 86, 67
4, 1091328, Note_on_c, 2, 80, 67
4, 1091328, Note_on_c, 2, 84, 67
4, 1091392, Note_off_c, 2, 80, 67
4, 1091392, Note_off_c, 2, 84, 67
4, 1091456, Note_off_c, 2, 80, 67
4, 1091456, Note_off_c, 2, 84, 67
4, 1091456, Note_on_c, 2, 79, 67
4, 1091456, Note_on_c, 2, 87, 67
4, 1091520, Note_off_c, 2, 79, 67
4, 1091520, Note_off_c, 2, 87, 67
4, 1091584, Note_off_c, 2, 79, 67
4, 1091584, Note_off_c, 2, 87, 67
4, 1091584, Note_on_c, 2, 75, 67
4, 1091584, Note_on_c, 2, 82, 67
4, 1091648, Note_off_c, 2, 75, 67
4, 1091648, Note_off_c, 2, 82, 67
4, 1091712, Note_off_c, 2, 75, 67
4, 1091712, Note_off_c, 2, 82, 67
4, 1091712, Note_on_c, 2, 79, 67
4, 1091776, Note_off_c, 2, 79, 67
4, 1091840, Note_off_c, 2, 79, 67
4, 1091840, Note_on_c, 2, 67, 67
4, 1091840, Note_on_c, 2, 75, 67
4, 1091904, Note_off_c, 2, 67, 67
4, 1091904, Note_off_c, 2, 75, 67
4, 1091968, Note_off_c, 2, 67, 67
4, 1091968, Note_off_c, 2, 75, 67
4, 1091968, Note_on_c, 2, 68, 67
4, 1091968, Note_on_c, 2, 74, 67
4, 1092000, Note_off_c, 2, 68, 67
4, 1092000, Note_off_c, 2, 74, 67
4, 1092032, Note_off_c, 2, 68, 67
4, 1092032, Note_off_c, 2, 74, 67
4, 1092032, Note_on_c, 2, 74, 67
4, 1092032, Note_on_c, 2, 79, 67
4, 1092064, Note_off_c, 2, 74, 67
4, 1092064, Note_off_c, 2, 79, 67
4, 1092096, Note_off_c, 2, 74, 67
4, 1092096, Note_off_c, 2, 79, 67
4, 1092096, Note_on_c, 2, 70, 67
4, 1092096, Note_on_c, 2, 77, 67
4, 1092160, Note_off_c, 2, 70, 67
4, 1092160, Note_off_c, 2, 77, 67
4, 1092224, Note_off_c, 2, 70, 67
4, 1092224, Note_off_c, 2, 77, 67
4, 1092224, Note_on_c, 2, 65, 67
4, 1092224, Note_on_c, 2, 70, 67
4, 1092288, Note_off_c, 2, 65, 67
4, 1092288, Note_off_c, 2, 70, 67
4, 1092352, Note_off_c, 2, 65, 67
4, 1092352, Note_off_c, 2, 70, 67
4, 1092352, Note_on_c, 2, 68, 67
4, 1092352, Note_on_c, 2, 70, 67
4, 1092416, Note_off_c, 2, 68, 67
4, 1092416, Note_off_c, 2, 70, 67
4, 1092480, Note_off_c, 2, 68, 67
4, 1092480, Note_off_c, 2, 70, 67
4, 1092480, Note_on_c, 2, 70, 67
4, 1092480, Note_on_c, 2, 79, 67
4, 1092544, Note_off_c, 2, 70, 67
4, 1092544, Note_off_c, 2, 79, 67
4, 1092544, Note_on_c, 2, 77, 67
4, 1092544, Note_on_c, 2, 80, 67
4, 1092608, Note_off_c, 2, 77, 67
4, 1092608, Note_off_c, 2, 80, 67
4, 1092608, Note_on_c, 2, 79, 67
4, 1092608, Note_on_c, 2, 82, 67
4, 1092672, Note_off_c, 2, 79, 67
4, 1092672, Note_off_c, 2, 82, 67
4, 1092736, Note_off_c, 2, 79, 67
4, 1092736, Note_off_c, 2, 82, 67
4, 1092736, Note_on_c, 2, 79, 67
4, 1092736, Note_on_c, 2, 82, 67
4, 1092800, Note_off_c, 2, 79, 67
4, 1092800, Note_off_c, 2, 82, 67
4, 1092864, Note_off_c, 2, 79, 67
4, 1092864, Note_off_c, 2, 82, 67
4, 1092864, Note_on_c, 2, 70, 67
4, 1092864, Note_on_c, 2, 79, 67
4, 1092928, Note_off_c, 2, 70, 67
4, 1092928, Note_off_c, 2, 79, 67
4, 1092992, Note_off_c, 2, 70, 67
4, 1092992, Note_off_c, 2, 79, 67
4, 1092992, Note_on_c, 2, 75, 67
4, 1092992, Note_on_c, 2, 82, 67
4, 1093056, Note_off_c, 2, 75, 67
4, 1093056, Note_off_c, 2, 82, 67
4, 1093120, Note_off_c, 2, 75, 67
4, 1093120, Note_off_c, 2, 82, 67
4, 1093120, Note_on_c, 2, 84, 67
4, 1093120, Note_on_c, 2, 87, 67
4, 1093184, Note_off_c, 2, 84, 67
4, 1093184, Note_off_c, 2, 87, 67
4, 1093248, Note_off_c, 2, 84, 67
4, 1093248, Note_off_c, 2, 87, 67
4, 1093248, Note_on_c, 2, 82, 67
4, 1093248, Note_on_c, 2, 86, 67
4, 1093312, Note_off_c, 2, 82, 67
4, 1093312, Note_off_c, 2, 86, 67
4, 1093376, Note_off_c, 2, 82, 67
4, 1093376, Note_off_c, 2, 86, 67
4, 1093376, Note_on_c, 2, 80, 67
4, 1093376, Note_on_c, 2, 84, 67
4, 1093440, Note_off_c, 2, 80, 67
4, 1093440, Note_off_c, 2, 84, 67
4, 1093504, Note_off_c, 2, 80, 67
4, 1093504, Note_off_c, 2, 84, 67
4, 1093504, Note_on_c, 2, 70, 67
4, 1093504, Note_on_c, 2, 74, 67
4, 1093536, Note_off_c, 2, 70, 67
4, 1093536, Note_off_c, 2, 74, 67
4, 1093568, Note_off_c, 2, 70, 67
4, 1093568, Note_off_c, 2, 74, 67
4, 1093568, Note_on_c, 2, 77, 67
4, 1093568, Note_on_c, 2, 80, 67
4, 1093600, Note_off_c, 2, 77, 67
4, 1093600, Note_off_c, 2, 80, 67
4, 1093632, Note_off_c, 2, 77, 67
4, 1093632, Note_off_c, 2, 80, 67
4, 1093632, Note_on_c, 2, 77, 67
4, 1093632, Note_on_c, 2, 82, 67
4, 1093696, Note_off_c, 2, 77, 67
4, 1093696, Note_off_c, 2, 82, 67
4, 1093760, Note_off_c, 2, 77, 67
4, 1093760, Note_off_c, 2, 82, 67
4, 1093760, Note_on_c, 2, 80, 67
4, 1093760, Note_on_c, 2, 87, 67
4, 1093824, Note_off_c, 2, 80, 67
4, 1093824, Note_off_c, 2, 87, 67
4, 1093888, Note_off_c, 2, 80, 67
4, 1093888, Note_off_c, 2, 87, 67
4, 1093888, Note_on_c, 2, 82, 67
4, 1093888, Note_on_c, 2, 86, 67
4, 1093952, Note_off_c, 2, 82, 67
4, 1093952, Note_off_c, 2, 86, 67
4, 1094016, Note_off_c, 2, 82, 67
4, 1094016, Note_off_c, 2, 86, 67
4, 1094016, Note_on_c, 2, 80, 67
4, 1094016, Note_on_c, 2, 89, 67
4, 1094080, Note_off_c, 2, 80, 67
4, 1094080, Note_off_c, 2, 89, 67
4, 1094144, Note_off_c, 2, 80, 67
4, 1094144, Note_off_c, 2, 89, 67
4, 1094144, Note_on_c, 2, 79, 67
4, 1094144, Note_on_c, 2, 87, 67
4, 1094208, Note_off_c, 2, 79, 67
4, 1094208, Note_off_c, 2, 87, 67
4, 1094272, Note_off_c, 2, 79, 67
4, 1094272, Note_off_c, 2, 87, 67
4, 1094272, Note_on_c, 2, 70, 67
4, 1094272, Note_on_c, 2, 82, 67
4, 1094336, Note_off_c, 2, 70, 67
4, 1094336, Note_off_c, 2, 82, 67
4, 1094400, Note_off_c, 2, 70, 67
4, 1094400, Note_off_c, 2, 82, 67
4, 1094400, Note_on_c, 2, 70, 67
4, 1094400, Note_on_c, 2, 82, 67
4, 1094464, Note_off_c, 2, 70, 67
4, 1094464, Note_off_c, 2, 82, 67
4, 1094528, Note_off_c, 2, 70, 67
4, 1094528, Note_off_c, 2, 82, 67
4, 1094528, Note_on_c, 2, 75, 67
4, 1094592, Note_off_c, 2, 75, 67
4, 1094592, Note_on_c, 2, 77, 67
4, 1094656, Note_off_c, 2, 77, 67
4, 1094656, Note_on_c, 2, 79, 67
4, 1094720, Note_off_c, 2, 79, 67
4, 1094784, Note_off_c, 2, 79, 67
4, 1094784, Note_on_c, 2, 75, 67
4, 1094784, Note_on_c, 2, 79, 67
4, 1094848, Note_off_c, 2, 75, 67
4, 1094848, Note_off_c, 2, 79, 67
4, 1094912, Note_off_c, 2, 75, 67
4, 1094912, Note_off_c, 2, 79, 67
4, 1094912, Note_on_c, 2, 75, 67
4, 1094912, Note_on_c, 2, 79, 67
4, 1094976, Note_off_c, 2, 75, 67
4, 1094976, Note_off_c, 2, 79, 67
4, 1095040, Note_off_c, 2, 75, 67
4, 1095040, Note_off_c, 2, 79, 67
4, 1095040, Note_on_c, 2, 75, 67
4, 1095104, Note_off_c, 2, 75, 67
4, 1095104, Note_on_c, 2, 77, 67
4, 1095168, Note_off_c, 2, 77, 67
4, 1095168, Note_on_c, 2, 79, 67
4, 1095232, Note_off_c, 2, 79, 67
4, 1095296, Note_off_c, 2, 79, 67
4, 1095296, Note_on_c, 2, 75, 67
4, 1095296, Note_on_c, 2, 79, 67
4, 1095360, Note_off_c, 2, 75, 67
4, 1095360, Note_off_c, 2, 79, 67
4, 1095424, Note_off_c, 2, 75, 67
4, 1095424, Note_off_c, 2, 79, 67
4, 1095424, Note_on_c, 2, 75, 67
4, 1095424, Note_on_c, 2, 79, 67
4, 1095488, Note_off_c, 2, 75, 67
4, 1095488, Note_off_c, 2, 79, 67
4, 1095552, Note_off_c, 2, 75, 67
4, 1095552, Note_off_c, 2, 79, 67
4, 1095552, Note_on_c, 2, 75, 67
4, 1095616, Note_off_c, 2, 75, 67
4, 1095616, Note_on_c, 2, 77, 67
4, 1095680, Note_off_c, 2, 77, 67
4, 1095680, Note_on_c, 2, 79, 67
4, 1095744, Note_off_c, 2, 79, 67
4, 1095808, Note_off_c, 2, 79, 67
4, 1095808, Note_on_c, 2, 75, 67
4, 1095808, Note_on_c, 2, 79, 67
4, 1095872, Note_off_c, 2, 75, 67
4, 1095872, Note_off_c, 2, 79, 67
4, 1095936, Note_off_c, 2, 75, 67
4, 1095936, Note_off_c, 2, 79, 67
4, 1095936, Note_on_c, 2, 75, 67
4, 1095936, Note_on_c, 2, 80, 67
4, 1095968, Note_off_c, 2, 75, 67
4, 1095968, Note_off_c, 2, 80, 67
4, 1096000, Note_off_c, 2, 75, 67
4, 1096000, Note_off_c, 2, 80, 67
4, 1096000, Note_on_c, 2, 74, 67
4, 1096032, Note_off_c, 2, 74, 67
4, 1096064, Note_off_c, 2, 74, 67
4, 1096064, Note_on_c, 2, 72, 67
4, 1096096, Note_off_c, 2, 72, 67
4, 1096128, Note_off_c, 2, 72, 67
4, 1096128, Note_on_c, 2, 74, 67
4, 1096128, Note_on_c, 2, 79, 67
4, 1096160, Note_off_c, 2, 74, 67
4, 1096160, Note_off_c, 2, 79, 67
4, 1096192, Note_off_c, 2, 74, 67
4, 1096192, Note_off_c, 2, 79, 67
4, 1096192, Note_on_c, 2, 70, 67
4, 1096192, Note_on_c, 2, 77, 67
4, 1096256, Note_off_c, 2, 70, 67
4, 1096256, Note_off_c, 2, 77, 67
4, 1096320, Note_off_c, 2, 70, 67
4, 1096320, Note_off_c, 2, 77, 67
4, 1096320, Note_on_c, 2, 68, 67
4, 1096320, Note_on_c, 2, 70, 67
4, 1096384, Note_off_c, 2, 68, 67
4, 1096384, Note_off_c, 2, 70, 67
4, 1096448, Note_off_c, 2, 68, 67
4, 1096448, Note_off_c, 2, 70, 67
4, 1096448, Note_on_c, 2, 68, 67
4, 1096448, Note_on_c, 2, 70, 67
4, 1096512, Note_off_c, 2, 68, 67
4, 1096512, Note_off_c, 2, 70, 67
4, 1096576, Note_off_c, 2, 68, 67
4, 1096576, Note_off_c, 2, 70, 67
4, 1096576, Note_on_c, 2, 74, 67
4, 1096640, Note_off_c, 2, 74, 67
4, 1096640, Note_on_c, 2, 75, 67
4, 1096704, Note_off_c, 2, 75, 67
4, 1096704, Note_on_c, 2, 77, 67
4, 1096768, Note_off_c, 2, 77, 67
4, 1096832, Note_off_c, 2, 77, 67
4, 1096832, Note_on_c, 2, 74, 67
4, 1096832, Note_on_c, 2, 77, 67
4, 1096896, Note_off_c, 2, 74, 67
4, 1096896, Note_off_c, 2, 77, 67
4, 1096960, Note_off_c, 2, 74, 67
4, 1096960, Note_off_c, 2, 77, 67
4, 1096960, Note_on_c, 2, 74, 67
4, 1096960, Note_on_c, 2, 77, 67
4, 1097024, Note_off_c, 2, 74, 67
4, 1097024, Note_off_c, 2, 77, 67
4, 1097088, Note_off_c, 2, 74, 67
4, 1097088, Note_off_c, 2, 77, 67
4, 1097088, Note_on_c, 2, 74, 67
4, 1097152, Note_off_c, 2, 74, 67
4, 1097152, Note_on_c, 2, 75, 67
4, 1097216, Note_off_c, 2, 75, 67
4, 1097216, Note_on_c, 2, 77, 67
4, 1097280, Note_off_c, 2, 77, 67
4, 1097344, Note_off_c, 2, 77, 67
4, 1097344, Note_on_c, 2, 74, 67
4, 1097344, Note_on_c, 2, 77, 67
4, 1097408, Note_off_c, 2, 74, 67
4, 1097408, Note_off_c, 2, 77, 67
4, 1097472, Note_off_c, 2, 74, 67
4, 1097472, Note_off_c, 2, 77, 67
4, 1097472, Note_on_c, 2, 74, 67
4, 1097472, Note_on_c, 2, 77, 67
4, 1097536, Note_off_c, 2, 74, 67
4, 1097536, Note_off_c, 2, 77, 67
4, 1097600, Note_off_c, 2, 74, 67
4, 1097600, Note_off_c, 2, 77, 67
4, 1097600, Note_on_c, 2, 74, 67
4, 1097664, Note_off_c, 2, 74, 67
4, 1097664, Note_on_c, 2, 75, 67
4, 1097728, Note_off_c, 2, 75, 67
4, 1097728, Note_on_c, 2, 70, 67
4, 1097728, Note_on_c, 2, 77, 67
4, 1097792, Note_off_c, 2, 70, 67
4, 1097792, Note_off_c, 2, 77, 67
4, 1097856, Note_off_c, 2, 70, 67
4, 1097856, Note_off_c, 2, 77, 67
4, 1097856, Note_on_c, 2, 74, 67
4, 1097856, Note_on_c, 2, 77, 67
4, 1097920, Note_off_c, 2, 74, 67
4, 1097920, Note_off_c, 2, 77, 67
4, 1097984, Note_off_c, 2, 74, 67
4, 1097984, Note_off_c, 2, 77, 67
4, 1097984, Note_on_c, 2, 74, 67
4, 1097984, Note_on_c, 2, 79, 67
4, 1098016, Note_off_c, 2, 74, 67
4, 1098016, Note_off_c, 2, 79, 67
4, 1098048, Note_off_c, 2, 74, 67
4, 1098048, Note_off_c, 2, 79, 67
4, 1098048, Note_on_c, 2, 72, 67
4, 1098048, Note_on_c, 2, 77, 67
4, 1098080, Note_off_c, 2, 72, 67
4, 1098080, Note_off_c, 2, 77, 67
4, 1098112, Note_off_c, 2, 72, 67
4, 1098112, Note_off_c, 2, 77, 67
4, 1098112, Note_on_c, 2, 70, 67
4, 1098112, Note_on_c, 2, 77, 67
4, 1098144, Note_off_c, 2, 70, 67
4, 1098144, Note_off_c, 2, 77, 67
4, 1098176, Note_off_c, 2, 70, 67
4, 1098176, Note_off_c, 2, 77, 67
4, 1098176, Note_on_c, 2, 68, 67
4, 1098176, Note_on_c, 2, 79, 67
4, 1098208, Note_off_c, 2, 68, 67
4, 1098208, Note_off_c, 2, 79, 67
4, 1098240, Note_off_c, 2, 68, 67
4, 1098240, Note_off_c, 2, 79, 67
4, 1098240, Note_on_c, 2, 67, 67
4, 1098240, Note_on_c, 2, 75, 67
4, 1098304, Note_off_c, 2, 67, 67
4, 1098304, Note_off_c, 2, 75, 67
4, 1098368, Note_off_c, 2, 67, 67
4, 1098368, Note_off_c, 2, 75, 67
4, 1098368, Note_on_c, 2, 70, 67
4, 1098432, Note_off_c, 2, 70, 67
4, 1098496, Note_off_c, 2, 70, 67
4, 1098496, Note_on_c, 2, 70, 67
4, 1098496, Note_on_c, 2, 79, 67
4, 1098560, Note_off_c, 2, 70, 67
4, 1098560, Note_off_c, 2, 79, 67
4, 1098624, Note_off_c, 2, 70, 67
4, 1098624, Note_off_c, 2, 79, 67
4, 1098624, Note_on_c, 2, 75, 67
4, 1098688, Note_off_c, 2, 75, 67
4, 1098688, Note_on_c, 2, 77, 67
4, 1098752, Note_off_c, 2, 77, 67
4, 1098752, Note_on_c, 2, 79, 67
4, 1098816, Note_off_c, 2, 79, 67
4, 1098880, Note_off_c, 2, 79, 67
4, 1098880, Note_on_c, 2, 75, 67
4, 1098880, Note_on_c, 2, 79, 67
4, 1098944, Note_off_c, 2, 75, 67
4, 1098944, Note_off_c, 2, 79, 67
4, 1099008, Note_off_c, 2, 75, 67
4, 1099008, Note_off_c, 2, 79, 67
4, 1099008, Note_on_c, 2, 75, 67
4, 1099008, Note_on_c, 2, 79, 67
4, 1099072, Note_off_c, 2, 75, 67
4, 1099072, Note_off_c, 2, 79, 67
4, 1099136, Note_off_c, 2, 75, 67
4, 1099136, Note_off_c, 2, 79, 67
4, 1099136, Note_on_c, 2, 75, 67
4, 1099200, Note_off_c, 2, 75, 67
4, 1099200, Note_on_c, 2, 77, 67
4, 1099264, Note_off_c, 2, 77, 67
4, 1099264, Note_on_c, 2, 79, 67
4, 1099328, Note_off_c, 2, 79, 67
4, 1099392, Note_off_c, 2, 79, 67
4, 1099392, Note_on_c, 2, 75, 67
4, 1099392, Note_on_c, 2, 79, 67
4, 1099456, Note_off_c, 2, 75, 67
4, 1099456, Note_off_c, 2, 79, 67
4, 1099520, Note_off_c, 2, 75, 67
4, 1099520, Note_off_c, 2, 79, 67
4, 1099520, Note_on_c, 2, 75, 67
4, 1099520, Note_on_c, 2, 79, 67
4, 1099584, Note_off_c, 2, 75, 67
4, 1099584, Note_off_c, 2, 79, 67
4, 1099648, Note_off_c, 2, 75, 67
4, 1099648, Note_off_c, 2, 79, 67
4, 1099648, Note_on_c, 2, 75, 67
4, 1099712, Note_off_c, 2, 75, 67
4, 1099712, Note_on_c, 2, 77, 67
4, 1099776, Note_off_c, 2, 77, 67
4, 1099776, Note_on_c, 2, 79, 67
4, 1099840, Note_off_c, 2, 79, 67
4, 1099904, Note_off_c, 2, 79, 67
4, 1099904, Note_on_c, 2, 75, 67
4, 1099904, Note_on_c, 2, 79, 67
4, 1099968, Note_off_c, 2, 75, 67
4, 1099968, Note_off_c, 2, 79, 67
4, 1100032, Note_off_c, 2, 75, 67
4, 1100032, Note_off_c, 2, 79, 67
4, 1100032, Note_on_c, 2, 75, 67
4, 1100032, Note_on_c, 2, 80, 67
4, 1100064, Note_off_c, 2, 75, 67
4, 1100064, Note_off_c, 2, 80, 67
4, 1100096, Note_off_c, 2, 75, 67
4, 1100096, Note_off_c, 2, 80, 67
4, 1100096, Note_on_c, 2, 74, 67
4, 1100160, Note_off_c, 2, 74, 67
4, 1100160, Note_on_c, 2, 72, 67
4, 1100224, Note_off_c, 2, 72, 67
4, 1100224, Note_on_c, 2, 74, 67
4, 1100224, Note_on_c, 2, 79, 67
4, 1100256, Note_off_c, 2, 74, 67
4, 1100256, Note_off_c, 2, 79, 67
4, 1100288, Note_off_c, 2, 74, 67
4, 1100288, Note_off_c, 2, 79, 67
4, 1100288, Note_on_c, 2, 70, 67
4, 1100288, Note_on_c, 2, 77, 67
4, 1100352, Note_off_c, 2, 70, 67
4, 1100352, Note_off_c, 2, 77, 67
4, 1100416, Note_off_c, 2, 70, 67
4, 1100416, Note_off_c, 2, 77, 67
4, 1100416, Note_on_c, 2, 68, 67
4, 1100416, Note_on_c, 2, 70, 67
4, 1100480, Note_off_c, 2, 68, 67
4, 1100480, Note_off_c, 2, 70, 67
4, 1100544, Note_off_c, 2, 68, 67
4, 1100544, Note_off_c, 2, 70, 67
4, 1100544, Note_on_c, 2, 68, 67
4, 1100544, Note_on_c, 2, 70, 67
4, 1100608, Note_off_c, 2, 68, 67
4, 1100608, Note_off_c, 2, 70, 67
4, 1100672, Note_off_c, 2, 68, 67
4, 1100672, Note_off_c, 2, 70, 67
4, 1100672, Note_on_c, 2, 74, 67
4, 1100736, Note_off_c, 2, 74, 67
4, 1100736, Note_on_c, 2, 75, 67
4, 1100800, Note_off_c, 2, 75, 67
4, 1100800, Note_on_c, 2, 77, 67
4, 1100928, Note_off_c, 2, 77, 67
4, 1100928, Note_on_c, 2, 74, 67
4, 1100928, Note_on_c, 2, 80, 67
4, 1100992, Note_off_c, 2, 74, 67
4, 1100992, Note_off_c, 2, 80, 67
4, 1101056, Note_off_c, 2, 74, 67
4, 1101056, Note_off_c, 2, 80, 67
4, 1101056, Note_on_c, 2, 74, 67
4, 1101056, Note_on_c, 2, 79, 67
4, 1101120, Note_off_c, 2, 74, 67
4, 1101120, Note_off_c, 2, 79, 67
4, 1101184, Note_off_c, 2, 74, 67
4, 1101184, Note_off_c, 2, 79, 67
4, 1101184, Note_on_c, 2, 77, 67
4, 1101248, Note_off_c, 2, 77, 67
4, 1101312, Note_off_c, 2, 77, 67
4, 1101312, Note_on_c, 2, 75, 67
4, 1101376, Note_off_c, 2, 75, 67
4, 1101440, Note_off_c, 2, 75, 67
4, 1101440, Note_on_c, 2, 70, 67
4, 1101440, Note_on_c, 2, 74, 67
4, 1101504, Note_off_c, 2, 70, 67
4, 1101504, Note_off_c, 2, 74, 67
4, 1101568, Note_off_c, 2, 70, 67
4, 1101568, Note_off_c, 2, 74, 67
4, 1101568, Note_on_c, 2, 72, 67
4, 1101568, Note_on_c, 2, 74, 67
4, 1101632, Note_off_c, 2, 72, 67
4, 1101632, Note_off_c, 2, 74, 67
4, 1101696, Note_off_c, 2, 72, 67
4, 1101696, Note_off_c, 2, 74, 67
4, 1101696, Note_on_c, 2, 70, 67
4, 1101696, Note_on_c, 2, 74, 67
4, 1101760, Note_off_c, 2, 70, 67
4, 1101760, Note_off_c, 2, 74, 67
4, 1101824, Note_off_c, 2, 70, 67
4, 1101824, Note_off_c, 2, 74, 67
4, 1101824, Note_on_c, 2, 80, 67
4, 1101824, Note_on_c, 2, 84, 67
4, 1102080, Note_off_c, 2, 80, 67
4, 1102080, Note_off_c, 2, 84, 67
4, 1102080, Note_on_c, 2, 70, 67
4, 1102080, Note_on_c, 2, 74, 67
4, 1102096, Note_off_c, 2, 70, 67
4, 1102096, Note_off_c, 2, 74, 67
4, 1102112, Note_off_c, 2, 70, 67
4, 1102112, Note_off_c, 2, 74, 67
4, 1102112, Note_on_c, 2, 72, 67
4, 1102112, Note_on_c, 2, 75, 67
4, 1102128, Note_off_c, 2, 72, 67
4, 1102128, Note_off_c, 2, 75, 67
4, 1102144, Note_off_c, 2, 72, 67
4, 1102144, Note_off_c, 2, 75, 67
4, 1102144, Note_on_c, 2, 70, 67
4, 1102144, Note_on_c, 2, 74, 67
4, 1102176, Note_off_c, 2, 70, 67
4, 1102176, Note_off_c, 2, 74, 67
4, 1102208, Note_off_c, 2, 70, 67
4, 1102208, Note_off_c, 2, 74, 67
4, 1102208, Note_on_c, 2, 68, 67
4, 1102208, Note_on_c, 2, 72, 67
4, 1102240, Note_off_c, 2, 68, 67
4, 1102240, Note_off_c, 2, 72, 67
4, 1102272, Note_off_c, 2, 68, 67
4, 1102272, Note_off_c, 2, 72, 67
4, 1102272, Note_on_c, 2, 74, 67
4, 1102272, Note_on_c, 2, 77, 67
4, 1102304, Note_off_c, 2, 74, 67
4, 1102304, Note_off_c, 2, 77, 67
4, 1102336, Note_off_c, 2, 74, 67
4, 1102336, Note_off_c, 2, 77, 67
4, 1102336, Note_on_c, 2, 75, 67
4, 1102336, Note_on_c, 2, 79, 67
4, 1102464, Note_off_c, 2, 75, 67
4, 1102464, Note_off_c, 2, 79, 67
4, 1102464, Note_on_c, 2, 70, 67
4, 1102528, Note_off_c, 2, 70, 67
4, 1102592, Note_off_c, 2, 70, 67
4, 1102592, Note_on_c, 2, 70, 67
4, 1102656, Note_off_c, 2, 70, 67
4, 1102720, Note_off_c, 2, 70, 67
4, 1102720, Note_on_c, 2, 75, 67
4, 1102720, Note_on_c, 2, 79, 67
4, 1102784, Note_off_c, 2, 75, 67
4, 1102784, Note_off_c, 2, 79, 67
4, 1102784, Note_on_c, 2, 77, 67
4, 1102784, Note_on_c, 2, 80, 67
4, 1102848, Note_off_c, 2, 77, 67
4, 1102848, Note_off_c, 2, 80, 67
4, 1102848, Note_on_c, 2, 79, 67
4, 1102848, Note_on_c, 2, 82, 67
4, 1102912, Note_off_c, 2, 79, 67
4, 1102912, Note_off_c, 2, 82, 67
4, 1102976, Note_off_c, 2, 79, 67
4, 1102976, Note_off_c, 2, 82, 67
4, 1102976, Note_on_c, 2, 79, 67
4, 1102976, Note_on_c, 2, 82, 67
4, 1103040, Note_off_c, 2, 79, 67
4, 1103040, Note_off_c, 2, 82, 67
4, 1103104, Note_off_c, 2, 79, 67
4, 1103104, Note_off_c, 2, 82, 67
4, 1103104, Note_on_c, 2, 70, 67
4, 1103104, Note_on_c, 2, 79, 67
4, 1103168, Note_off_c, 2, 70, 67
4, 1103168, Note_off_c, 2, 79, 67
4, 1103232, Note_off_c, 2, 70, 67
4, 1103232, Note_off_c, 2, 79, 67
4, 1103232, Note_on_c, 2, 70, 67
4, 1103232, Note_on_c, 2, 75, 67
4, 1103296, Note_off_c, 2, 70, 67
4, 1103296, Note_off_c, 2, 75, 67
4, 1103360, Note_off_c, 2, 70, 67
4, 1103360, Note_off_c, 2, 75, 67
4, 1103360, Note_on_c, 2, 84, 67
4, 1103360, Note_on_c, 2, 87, 67
4, 1103424, Note_off_c, 2, 84, 67
4, 1103424, Note_off_c, 2, 87, 67
4, 1103488, Note_off_c, 2, 84, 67
4, 1103488, Note_off_c, 2, 87, 67
4, 1103488, Note_on_c, 2, 82, 67
4, 1103488, Note_on_c, 2, 86, 67
4, 1103552, Note_off_c, 2, 82, 67
4, 1103552, Note_off_c, 2, 86, 67
4, 1103616, Note_off_c, 2, 82, 67
4, 1103616, Note_off_c, 2, 86, 67
4, 1103616, Note_on_c, 2, 80, 67
4, 1103616, Note_on_c, 2, 84, 67
4, 1103680, Note_off_c, 2, 80, 67
4, 1103680, Note_off_c, 2, 84, 67
4, 1103744, Note_off_c, 2, 80, 67
4, 1103744, Note_off_c, 2, 84, 67
4, 1103744, Note_on_c, 2, 79, 67
4, 1103744, Note_on_c, 2, 87, 67
4, 1103808, Note_off_c, 2, 79, 67
4, 1103808, Note_off_c, 2, 87, 67
4, 1103872, Note_off_c, 2, 79, 67
4, 1103872, Note_off_c, 2, 87, 67
4, 1103872, Note_on_c, 2, 75, 67
4, 1103872, Note_on_c, 2, 82, 67
4, 1103936, Note_off_c, 2, 75, 67
4, 1103936, Note_off_c, 2, 82, 67
4, 1104000, Note_off_c, 2, 75, 67
4, 1104000, Note_off_c, 2, 82, 67
4, 1104000, Note_on_c, 2, 79, 67
4, 1104064, Note_off_c, 2, 79, 67
4, 1104128, Note_off_c, 2, 79, 67
4, 1104128, Note_on_c, 2, 67, 67
4, 1104128, Note_on_c, 2, 75, 67
4, 1104192, Note_off_c, 2, 67, 67
4, 1104192, Note_off_c, 2, 75, 67
4, 1104256, Note_off_c, 2, 67, 67
4, 1104256, Note_off_c, 2, 75, 67
4, 1104256, Note_on_c, 2, 68, 67
4, 1104256, Note_on_c, 2, 74, 67
4, 1104288, Note_off_c, 2, 68, 67
4, 1104288, Note_off_c, 2, 74, 67
4, 1104320, Note_off_c, 2, 68, 67
4, 1104320, Note_off_c, 2, 74, 67
4, 1104320, Note_on_c, 2, 74, 67
4, 1104320, Note_on_c, 2, 79, 67
4, 1104352, Note_off_c, 2, 74, 67
4, 1104352, Note_off_c, 2, 79, 67
4, 1104384, Note_off_c, 2, 74, 67
4, 1104384, Note_off_c, 2, 79, 67
4, 1104384, Note_on_c, 2, 70, 67
4, 1104384, Note_on_c, 2, 77, 67
4, 1104448, Note_off_c, 2, 70, 67
4, 1104448, Note_off_c, 2, 77, 67
4, 1104512, Note_off_c, 2, 70, 67
4, 1104512, Note_off_c, 2, 77, 67
4, 1104512, Note_on_c, 2, 65, 67
4, 1104512, Note_on_c, 2, 70, 67
4, 1104576, Note_off_c, 2, 65, 67
4, 1104576, Note_off_c, 2, 70, 67
4, 1104640, Note_off_c, 2, 65, 67
4, 1104640, Note_off_c, 2, 70, 67
4, 1104640, Note_on_c, 2, 68, 67
4, 1104640, Note_on_c, 2, 70, 67
4, 1104704, Note_off_c, 2, 68, 67
4, 1104704, Note_off_c, 2, 70, 67
4, 1104768, Note_off_c, 2, 68, 67
4, 1104768, Note_off_c, 2, 70, 67
4, 1104768, Note_on_c, 2, 70, 67
4, 1104768, Note_on_c, 2, 79, 67
4, 1104832, Note_off_c, 2, 70, 67
4, 1104832, Note_off_c, 2, 79, 67
4, 1104832, Note_on_c, 2, 77, 67
4, 1104832, Note_on_c, 2, 80, 67
4, 1104896, Note_off_c, 2, 77, 67
4, 1104896, Note_off_c, 2, 80, 67
4, 1104896, Note_on_c, 2, 79, 67
4, 1104896, Note_on_c, 2, 82, 67
4, 1104960, Note_off_c, 2, 79, 67
4, 1104960, Note_off_c, 2, 82, 67
4, 1105024, Note_off_c, 2, 79, 67
4, 1105024, Note_off_c, 2, 82, 67
4, 1105024, Note_on_c, 2, 79, 67
4, 1105024, Note_on_c, 2, 82, 67
4, 1105088, Note_off_c, 2, 79, 67
4, 1105088, Note_off_c, 2, 82, 67
4, 1105152, Note_off_c, 2, 79, 67
4, 1105152, Note_off_c, 2, 82, 67
4, 1105152, Note_on_c, 2, 70, 67
4, 1105152, Note_on_c, 2, 79, 67
4, 1105216, Note_off_c, 2, 70, 67
4, 1105216, Note_off_c, 2, 79, 67
4, 1105280, Note_off_c, 2, 70, 67
4, 1105280, Note_off_c, 2, 79, 67
4, 1105280, Note_on_c, 2, 75, 67
4, 1105280, Note_on_c, 2, 82, 67
4, 1105344, Note_off_c, 2, 75, 67
4, 1105344, Note_off_c, 2, 82, 67
4, 1105408, Note_off_c, 2, 75, 67
4, 1105408, Note_off_c, 2, 82, 67
4, 1105408, Note_on_c, 2, 84, 67
4, 1105408, Note_on_c, 2, 87, 67
4, 1105472, Note_off_c, 2, 84, 67
4, 1105472, Note_off_c, 2, 87, 67
4, 1105536, Note_off_c, 2, 84, 67
4, 1105536, Note_off_c, 2, 87, 67
4, 1105536, Note_on_c, 2, 82, 67
4, 1105536, Note_on_c, 2, 86, 67
4, 1105600, Note_off_c, 2, 82, 67
4, 1105600, Note_off_c, 2, 86, 67
4, 1105664, Note_off_c, 2, 82, 67
4, 1105664, Note_off_c, 2, 86, 67
4, 1105664, Note_on_c, 2, 80, 67
4, 1105664, Note_on_c, 2, 84, 67
4, 1105728, Note_off_c, 2, 80, 67
4, 1105728, Note_off_c, 2, 84, 67
4, 1105792, Note_off_c, 2, 80, 67
4, 1105792, Note_off_c, 2, 84, 67
4, 1105792, Note_on_c, 2, 70, 67
4, 1105792, Note_on_c, 2, 74, 67
4, 1105824, Note_off_c, 2, 70, 67
4, 1105824, Note_off_c, 2, 74, 67
4, 1105856, Note_off_c, 2, 70, 67
4, 1105856, Note_off_c, 2, 74, 67
4, 1105856, Note_on_c, 2, 77, 67
4, 1105856, Note_on_c, 2, 80, 67
4, 1105888, Note_off_c, 2, 77, 67
4, 1105888, Note_off_c, 2, 80, 67
4, 1105920, Note_off_c, 2, 77, 67
4, 1105920, Note_off_c, 2, 80, 67
4, 1105920, Note_on_c, 2, 77, 67
4, 1105920, Note_on_c, 2, 82, 67
4, 1105984, Note_off_c, 2, 77, 67
4, 1105984, Note_off_c, 2, 82, 67
4, 1106048, Note_off_c, 2, 77, 67
4, 1106048, Note_off_c, 2, 82, 67
4, 1106048, Note_on_c, 2, 80, 67
4, 1106048, Note_on_c, 2, 87, 67
4, 1106112, Note_off_c, 2, 80, 67
4, 1106112, Note_off_c, 2, 87, 67
4, 1106176, Note_off_c, 2, 80, 67
4, 1106176, Note_off_c, 2, 87, 67
4, 1106176, Note_on_c, 2, 82, 67
4, 1106176, Note_on_c, 2, 86, 67
4, 1106240, Note_off_c, 2, 82, 67
4, 1106240, Note_off_c, 2, 86, 67
4, 1106304, Note_off_c, 2, 82, 67
4, 1106304, Note_off_c, 2, 86, 67
4, 1106304, Note_on_c, 2, 80, 67
4, 1106304, Note_on_c, 2, 89, 67
4, 1106368, Note_off_c, 2, 80, 67
4, 1106368, Note_off_c, 2, 89, 67
4, 1106432, Note_off_c, 2, 80, 67
4, 1106432, Note_off_c, 2, 89, 67
4, 1106432, Note_on_c, 2, 79, 67
4, 1106432, Note_on_c, 2, 87, 67
4, 1106496, Note_off_c, 2, 79, 67
4, 1106496, Note_off_c, 2, 87, 67
4, 1106560, Note_off_c, 2, 79, 67
4, 1106560, Note_off_c, 2, 87, 67
4, 1106560, Note_on_c, 2, 70, 67
4, 1106560, Note_on_c, 2, 82, 67
4, 1106624, Note_off_c, 2, 70, 67
4, 1106624, Note_off_c, 2, 82, 67
4, 1106688, Note_off_c, 2, 70, 67
4, 1106688, Note_off_c, 2, 82, 67
4, 1106688, Note_on_c, 2, 70, 67
4, 1106688, Note_on_c, 2, 82, 67
4, 1106752, Note_off_c, 2, 70, 67
4, 1106752, Note_off_c, 2, 82, 67
4, 1106816, Note_off_c, 2, 70, 67
4, 1106816, Note_off_c, 2, 82, 67
4, 1106816, Note_on_c, 2, 75, 67
4, 1106880, Note_off_c, 2, 75, 67
4, 1106880, Note_on_c, 2, 77, 67
4, 1106944, Note_off_c, 2, 77, 67
4, 1106944, Note_on_c, 2, 79, 67
4, 1107008, Note_off_c, 2, 79, 67
4, 1107072, Note_off_c, 2, 79, 67
4, 1107072, Note_on_c, 2, 75, 67
4, 1107072, Note_on_c, 2, 79, 67
4, 1107136, Note_off_c, 2, 75, 67
4, 1107136, Note_off_c, 2, 79, 67
4, 1107200, Note_off_c, 2, 75, 67
4, 1107200, Note_off_c, 2, 79, 67
4, 1107200, Note_on_c, 2, 75, 67
4, 1107200, Note_on_c, 2, 79, 67
4, 1107264, Note_off_c, 2, 75, 67
4, 1107264, Note_off_c, 2, 79, 67
4, 1107328, Note_off_c, 2, 75, 67
4, 1107328, Note_off_c, 2, 79, 67
4, 1107328, Note_on_c, 2, 75, 67
4, 1107392, Note_off_c, 2, 75, 67
4, 1107392, Note_on_c, 2, 77, 67
4, 1107456, Note_off_c, 2, 77, 67
4, 1107456, Note_on_c, 2, 79, 67
4, 1107520, Note_off_c, 2, 79, 67
4, 1107584, Note_off_c, 2, 79, 67
4, 1107584, Note_on_c, 2, 75, 67
4, 1107584, Note_on_c, 2, 79, 67
4, 1107648, Note_off_c, 2, 75, 67
4, 1107648, Note_off_c, 2, 79, 67
4, 1107712, Note_off_c, 2, 75, 67
4, 1107712, Note_off_c, 2, 79, 67
4, 1107712, Note_on_c, 2, 75, 67
4, 1107712, Note_on_c, 2, 79, 67
4, 1107776, Note_off_c, 2, 75, 67
4, 1107776, Note_off_c, 2, 79, 67
4, 1107840, Note_off_c, 2, 75, 67
4, 1107840, Note_off_c, 2, 79, 67
4, 1107840, Note_on_c, 2, 75, 67
4, 1107904, Note_off_c, 2, 75, 67
4, 1107904, Note_on_c, 2, 77, 67
4, 1107968, Note_off_c, 2, 77, 67
4, 1107968, Note_on_c, 2, 79, 67
4, 1108032, Note_off_c, 2, 79, 67
4, 1108096, Note_off_c, 2, 79, 67
4, 1108096, Note_on_c, 2, 75, 67
4, 1108096, Note_on_c, 2, 79, 67
4, 1108160, Note_off_c, 2, 75, 67
4, 1108160, Note_off_c, 2, 79, 67
4, 1108224, Note_off_c, 2, 75, 67
4, 1108224, Note_off_c, 2, 79, 67
4, 1108224, Note_on_c, 2, 75, 67
4, 1108224, Note_on_c, 2, 80, 67
4, 1108256, Note_off_c, 2, 75, 67
4, 1108256, Note_off_c, 2, 80, 67
4, 1108288, Note_off_c, 2, 75, 67
4, 1108288, Note_off_c, 2, 80, 67
4, 1108288, Note_on_c, 2, 74, 67
4, 1108320, Note_off_c, 2, 74, 67
4, 1108352, Note_off_c, 2, 74, 67
4, 1108352, Note_on_c, 2, 72, 67
4, 1108384, Note_off_c, 2, 72, 67
4, 1108416, Note_off_c, 2, 72, 67
4, 1108416, Note_on_c, 2, 74, 67
4, 1108416, Note_on_c, 2, 79, 67
4, 1108448, Note_off_c, 2, 74, 67
4, 1108448, Note_off_c, 2, 79, 67
4, 1108480, Note_off_c, 2, 74, 67
4, 1108480, Note_off_c, 2, 79, 67
4, 1108480, Note_on_c, 2, 70, 67
4, 1108480, Note_on_c, 2, 77, 67
4, 1108544, Note_off_c, 2, 70, 67
4, 1108544, Note_off_c, 2, 77, 67
4, 1108608, Note_off_c, 2, 70, 67
4, 1108608, Note_off_c, 2, 77, 67
4, 1108608, Note_on_c, 2, 68, 67
4, 1108608, Note_on_c, 2, 70, 67
4, 1108672, Note_off_c, 2, 68, 67
4, 1108672, Note_off_c, 2, 70, 67
4, 1108736, Note_off_c, 2, 68, 67
4, 1108736, Note_off_c, 2, 70, 67
4, 1108736, Note_on_c, 2, 68, 67
4, 1108736, Note_on_c, 2, 70, 67
4, 1108800, Note_off_c, 2, 68, 67
4, 1108800, Note_off_c, 2, 70, 67
4, 1108864, Note_off_c, 2, 68, 67
4, 1108864, Note_off_c, 2, 70, 67
4, 1108864, Note_on_c, 2, 74, 67
4, 1108928, Note_off_c, 2, 74, 67
4, 1108928, Note_on_c, 2, 75, 67
4, 1108992, Note_off_c, 2, 75, 67
4, 1108992, Note_on_c, 2, 77, 67
4, 1109056, Note_off_c, 2, 77, 67
4, 1109120, Note_off_c, 2, 77, 67
4, 1109120, Note_on_c, 2, 74, 67
4, 1109120, Note_on_c, 2, 77, 67
4, 1109184, Note_off_c, 2, 74, 67
4, 1109184, Note_off_c, 2, 77, 67
4, 1109248, Note_off_c, 2, 74, 67
4, 1109248, Note_off_c, 2, 77, 67
4, 1109248, Note_on_c, 2, 74, 67
4, 1109248, Note_on_c, 2, 77, 67
4, 1109312, Note_off_c, 2, 74, 67
4, 1109312, Note_off_c, 2, 77, 67
4, 1109376, Note_off_c, 2, 74, 67
4, 1109376, Note_off_c, 2, 77, 67
4, 1109376, Note_on_c, 2, 74, 67
4, 1109440, Note_off_c, 2, 74, 67
4, 1109440, Note_on_c, 2, 75, 67
4, 1109504, Note_off_c, 2, 75, 67
4, 1109504, Note_on_c, 2, 77, 67
4, 1109568, Note_off_c, 2, 77, 67
4, 1109632, Note_off_c, 2, 77, 67
4, 1109632, Note_on_c, 2, 74, 67
4, 1109632, Note_on_c, 2, 77, 67
4, 1109696, Note_off_c, 2, 74, 67
4, 1109696, Note_off_c, 2, 77, 67
4, 1109760, Note_off_c, 2, 74, 67
4, 1109760, Note_off_c, 2, 77, 67
4, 1109760, Note_on_c, 2, 74, 67
4, 1109760, Note_on_c, 2, 77, 67
4, 1109824, Note_off_c, 2, 74, 67
4, 1109824, Note_off_c, 2, 77, 67
4, 1109888, Note_off_c, 2, 74, 67
4, 1109888, Note_off_c, 2, 77, 67
4, 1109888, Note_on_c, 2, 74, 67
4, 1109952, Note_off_c, 2, 74, 67
4, 1109952, Note_on_c, 2, 75, 67
4, 1110016, Note_off_c, 2, 75, 67
4, 1110016, Note_on_c, 2, 70, 67
4, 1110016, Note_on_c, 2, 77, 67
4, 1110080, Note_off_c, 2, 70, 67
4, 1110080, Note_off_c, 2, 77, 67
4, 1110144, Note_off_c, 2, 70, 67
4, 1110144, Note_off_c, 2, 77, 67
4, 1110144, Note_on_c, 2, 74, 67
4, 1110144, Note_on_c, 2, 77, 67
4, 1110208, Note_off_c, 2, 74, 67
4, 1110208, Note_off_c, 2, 77, 67
4, 1110272, Note_off_c, 2, 74, 67
4, 1110272, Note_off_c, 2, 77, 67
4, 1110272, Note_on_c, 2, 74, 67
4, 1110272, Note_on_c, 2, 79, 67
4, 1110304, Note_off_c, 2, 74, 67
4, 1110304, Note_off_c, 2, 79, 67
4, 1110336, Note_off_c, 2, 74, 67
4, 1110336, Note_off_c, 2, 79, 67
4, 1110336, Note_on_c, 2, 72, 67
4, 1110336, Note_on_c, 2, 77, 67
4, 1110368, Note_off_c, 2, 72, 67
4, 1110368, Note_off_c, 2, 77, 67
4, 1110400, Note_off_c, 2, 72, 67
4, 1110400, Note_off_c, 2, 77, 67
4, 1110400, Note_on_c, 2, 70, 67
4, 1110400, Note_on_c, 2, 77, 67
4, 1110432, Note_off_c, 2, 70, 67
4, 1110432, Note_off_c, 2, 77, 67
4, 1110464, Note_off_c, 2, 70, 67
4, 1110464, Note_off_c, 2, 77, 67
4, 1110464, Note_on_c, 2, 68, 67
4, 1110464, Note_on_c, 2, 79, 67
4, 1110496, Note_off_c, 2, 68, 67
4, 1110496, Note_off_c, 2, 79, 67
4, 1110528, Note_off_c, 2, 68, 67
4, 1110528, Note_off_c, 2, 79, 67
4, 1110528, Note_on_c, 2, 67, 67
4, 1110528, Note_on_c, 2, 75, 67
4, 1110592, Note_off_c, 2, 67, 67
4, 1110592, Note_off_c, 2, 75, 67
4, 1110656, Note_off_c, 2, 67, 67
4, 1110656, Note_off_c, 2, 75, 67
4, 1110656, Note_on_c, 2, 70, 67
4, 1110720, Note_off_c, 2, 70, 67
4, 1110784, Note_off_c, 2, 70, 67
4, 1110784, Note_on_c, 2, 70, 67
4, 1110784, Note_on_c, 2, 79, 67
4, 1110848, Note_off_c, 2, 70, 67
4, 1110848, Note_off_c, 2, 79, 67
4, 1110912, Note_off_c, 2, 70, 67
4, 1110912, Note_off_c, 2, 79, 67
4, 1110912, Note_on_c, 2, 75, 67
4, 1110976, Note_off_c, 2, 75, 67
4, 1110976, Note_on_c, 2, 77, 67
4, 1111040, Note_off_c, 2, 77, 67
4, 1111040, Note_on_c, 2, 79, 67
4, 1111104, Note_off_c, 2, 79, 67
4, 1111168, Note_off_c, 2, 79, 67
4, 1111168, Note_on_c, 2, 75, 67
4, 1111168, Note_on_c, 2, 79, 67
4, 1111232, Note_off_c, 2, 75, 67
4, 1111232, Note_off_c, 2, 79, 67
4, 1111296, Note_off_c, 2, 75, 67
4, 1111296, Note_off_c, 2, 79, 67
4, 1111296, Note_on_c, 2, 75, 67
4, 1111296, Note_on_c, 2, 79, 67
4, 1111360, Note_off_c, 2, 75, 67
4, 1111360, Note_off_c, 2, 79, 67
4, 1111424, Note_off_c, 2, 75, 67
4, 1111424, Note_off_c, 2, 79, 67
4, 1111424, Note_on_c, 2, 75, 67
4, 1111488, Note_off_c, 2, 75, 67
4, 1111488, Note_on_c, 2, 77, 67
4, 1111552, Note_off_c, 2, 77, 67
4, 1111552, Note_on_c, 2, 79, 67
4, 1111616, Note_off_c, 2, 79, 67
4, 1111680, Note_off_c, 2, 79, 67
4, 1111680, Note_on_c, 2, 75, 67
4, 1111680, Note_on_c, 2, 79, 67
4, 1111744, Note_off_c, 2, 75, 67
4, 1111744, Note_off_c, 2, 79, 67
4, 1111808, Note_off_c, 2, 75, 67
4, 1111808, Note_off_c, 2, 79, 67
4, 1111808, Note_on_c, 2, 75, 67
4, 1111808, Note_on_c, 2, 79, 67
4, 1111872, Note_off_c, 2, 75, 67
4, 1111872, Note_off_c, 2, 79, 67
4, 1111936, Note_off_c, 2, 75, 67
4, 1111936, Note_off_c, 2, 79, 67
4, 1111936, Note_on_c, 2, 75, 67
4, 1112000, Note_off_c, 2, 75, 67
4, 1112000, Note_on_c, 2, 77, 67
4, 1112064, Note_off_c, 2, 77, 67
4, 1112064, Note_on_c, 2, 79, 67
4, 1112128, Note_off_c, 2, 79, 67
4, 1112192, Note_off_c, 2, 79, 67
4, 1112192, Note_on_c, 2, 75, 67
4, 1112192, Note_on_c, 2, 79, 67
4, 1112256, Note_off_c, 2, 75, 67
4, 1112256, Note_off_c, 2, 79, 67
4, 1112320, Note_off_c, 2, 75, 67
4, 1112320, Note_off_c, 2, 79, 67
4, 1112320, Note_on_c, 2, 75, 67
4, 1112320, Note_on_c, 2, 80, 67
4, 1112352, Note_off_c, 2, 75, 67
4, 1112352, Note_off_c, 2, 80, 67
4, 1112384, Note_off_c, 2, 75, 67
4, 1112384, Note_off_c, 2, 80, 67
4, 1112384, Note_on_c, 2, 74, 67
4, 1112448, Note_off_c, 2, 74, 67
4, 1112448, Note_on_c, 2, 72, 67
4, 1112512, Note_off_c, 2, 72, 67
4, 1112512, Note_on_c, 2, 74, 67
4, 1112512, Note_on_c, 2, 79, 67
4, 1112544, Note_off_c, 2, 74, 67
4, 1112544, Note_off_c, 2, 79, 67
4, 1112576, Note_off_c, 2, 74, 67
4, 1112576, Note_off_c, 2, 79, 67
4, 1112576, Note_on_c, 2, 70, 67
4, 1112576, Note_on_c, 2, 77, 67
4, 1112640, Note_off_c, 2, 70, 67
4, 1112640, Note_off_c, 2, 77, 67
4, 1112704, Note_off_c, 2, 70, 67
4, 1112704, Note_off_c, 2, 77, 67
4, 1112704, Note_on_c, 2, 68, 67
4, 1112704, Note_on_c, 2, 70, 67
4, 1112768, Note_off_c, 2, 68, 67
4, 1112768, Note_off_c, 2, 70, 67
4, 1112832, Note_off_c, 2, 68, 67
4, 1112832, Note_off_c, 2, 70, 67
4, 1112832, Note_on_c, 2, 68, 67
4, 1112832, Note_on_c, 2, 70, 67
4, 1112896, Note_off_c, 2, 68, 67
4, 1112896, Note_off_c, 2, 70, 67
4, 1112960, Note_off_c, 2, 68, 67
4, 1112960, Note_off_c, 2, 70, 67
4, 1112960, Note_on_c, 2, 74, 67
4, 1113024, Note_off_c, 2, 74, 67
4, 1113024, Note_on_c, 2, 75, 67
4, 1113088, Note_off_c, 2, 75, 67
4, 1113088, Note_on_c, 2, 77, 67
4, 1113216, Note_off_c, 2, 77, 67
4, 1113216, Note_on_c, 2, 74, 67
4, 1113216, Note_on_c, 2, 80, 67
4, 1113280, Note_off_c, 2, 74, 67
4, 1113280, Note_off_c, 2, 80, 67
4, 1113344, Note_off_c, 2, 74, 67
4, 1113344, Note_off_c, 2, 80, 67
4, 1113344, Note_on_c, 2, 74, 67
4, 1113344, Note_on_c, 2, 79, 67
4, 1113408, Note_off_c, 2, 74, 67
4, 1113408, Note_off_c, 2, 79, 67
4, 1113472, Note_off_c, 2, 74, 67
4, 1113472, Note_off_c, 2, 79, 67
4, 1113472, Note_on_c, 2, 77, 67
4, 1113536, Note_off_c, 2, 77, 67
4, 1113600, Note_off_c, 2, 77, 67
4, 1113600, Note_on_c, 2, 75, 67
4, 1113664, Note_off_c, 2, 75, 67
4, 1113728, Note_off_c, 2, 75, 67
4, 1113728, Note_on_c, 2, 70, 67
4, 1113728, Note_on_c, 2, 74, 67
4, 1113792, Note_off_c, 2, 70, 67
4, 1113792, Note_off_c, 2, 74, 67
4, 1113856, Note_off_c, 2, 70, 67
4, 1113856, Note_off_c, 2, 74, 67
4, 1113856, Note_on_c, 2, 72, 67
4, 1113856, Note_on_c, 2, 74, 67
4, 1113920, Note_off_c, 2, 72, 67
4, 1113920, Note_off_c, 2, 74, 67
4, 1113984, Note_off_c, 2, 72, 67
4, 1113984, Note_off_c, 2, 74, 67
4, 1113984, Note_on_c, 2, 70, 67
4, 1113984, Note_on_c, 2, 74, 67
4, 1114048, Note_off_c, 2, 70, 67
4, 1114048, Note_off_c, 2, 74, 67
4, 1114112, Note_off_c, 2, 70, 67
4, 1114112, Note_off_c, 2, 74, 67
4, 1114112, Note_on_c, 2, 80, 67
4, 1114112, Note_on_c, 2, 84, 67
4, 1114368, Note_off_c, 2, 80, 67
4, 1114368, Note_off_c, 2, 84, 67
4, 1114368, Note_on_c, 2, 70, 67
4, 1114368, Note_on_c, 2, 74, 67
4, 1114384, Note_off_c, 2, 70, 67
4, 1114384, Note_off_c, 2, 74, 67
4, 1114400, Note_off_c, 2, 70, 67
4, 1114400, Note_off_c, 2, 74, 67
4, 1114400, Note_on_c, 2, 72, 67
4, 1114400, Note_on_c, 2, 75, 67
4, 1114416, Note_off_c, 2, 72, 67
4, 1114416, Note_off_c, 2, 75, 67
4, 1114432, Note_off_c, 2, 72, 67
4, 1114432, Note_off_c, 2, 75, 67
4, 1114432, Note_on_c, 2, 70, 67
4, 1114432, Note_on_c, 2, 74, 67
4, 1114464, Note_off_c, 2, 70, 67
4, 1114464, Note_off_c, 2, 74, 67
4, 1114496, Note_off_c, 2, 70, 67
4, 1114496, Note_off_c, 2, 74, 67
4, 1114496, Note_on_c, 2, 68, 67
4, 1114496, Note_on_c, 2, 72, 67
4, 1114528, Note_off_c, 2, 68, 67
4, 1114528, Note_off_c, 2, 72, 67
4, 1114560, Note_off_c, 2, 68, 67
4, 1114560, Note_off_c, 2, 72, 67
4, 1114560, Note_on_c, 2, 74, 67
4, 1114560, Note_on_c, 2, 77, 67
4, 1114592, Note_off_c, 2, 74, 67
4, 1114592, Note_off_c, 2, 77, 67
4, 1114624, Note_off_c, 2, 74, 67
4, 1114624, Note_off_c, 2, 77, 67
4, 1114624, Note_on_c, 2, 75, 67
4, 1114624, Note_on_c, 2, 79, 67
4, 1114752, Note_off_c, 2, 75, 67
4, 1114752, Note_off_c, 2, 79, 67
4, 1114752, Note_on_c, 2, 70, 67
4, 1114816, Note_off_c, 2, 70, 67
4, 1114880, Note_off_c, 2, 70, 67
4, 1114880, Note_on_c, 2, 70, 67
4, 1114944, Note_off_c, 2, 70, 67
4, 1115008, Note_off_c, 2, 70, 67
4, 1115008, Note_on_c, 2, 75, 67
4, 1115008, Note_on_c, 2, 79, 67
4, 1115072, Note_off_c, 2, 75, 67
4, 1115072, Note_off_c, 2, 79, 67
4, 1115072, Note_on_c, 2, 77, 67
4, 1115072, Note_on_c, 2, 80, 67
4, 1115136, Note_off_c, 2, 77, 67
4, 1115136, Note_off_c, 2, 80, 67
4, 1115136, Note_on_c, 2, 79, 67
4, 1115136, Note_on_c, 2, 82, 67
4, 1115200, Note_off_c, 2, 79, 67
4, 1115200, Note_off_c, 2, 82, 67
4, 1115264, Note_off_c, 2, 79, 67
4, 1115264, Note_off_c, 2, 82, 67
4, 1115264, Note_on_c, 2, 79, 67
4, 1115264, Note_on_c, 2, 82, 67
4, 1115328, Note_off_c, 2, 79, 67
4, 1115328, Note_off_c, 2, 82, 67
4, 1115392, Note_off_c, 2, 79, 67
4, 1115392, Note_off_c, 2, 82, 67
4, 1115392, Note_on_c, 2, 70, 67
4, 1115392, Note_on_c, 2, 79, 67
4, 1115456, Note_off_c, 2, 70, 67
4, 1115456, Note_off_c, 2, 79, 67
4, 1115520, Note_off_c, 2, 70, 67
4, 1115520, Note_off_c, 2, 79, 67
4, 1115520, Note_on_c, 2, 70, 67
4, 1115520, Note_on_c, 2, 75, 67
4, 1115584, Note_off_c, 2, 70, 67
4, 1115584, Note_off_c, 2, 75, 67
4, 1115648, Note_off_c, 2, 70, 67
4, 1115648, Note_off_c, 2, 75, 67
4, 1115648, Note_on_c, 2, 84, 67
4, 1115648, Note_on_c, 2, 87, 67
4, 1115712, Note_off_c, 2, 84, 67
4, 1115712, Note_off_c, 2, 87, 67
4, 1115776, Note_off_c, 2, 84, 67
4, 1115776, Note_off_c, 2, 87, 67
4, 1115776, Note_on_c, 2, 82, 67
4, 1115776, Note_on_c, 2, 86, 67
4, 1115840, Note_off_c, 2, 82, 67
4, 1115840, Note_off_c, 2, 86, 67
4, 1115904, Note_off_c, 2, 82, 67
4, 1115904, Note_off_c, 2, 86, 67
4, 1115904, Note_on_c, 2, 80, 67
4, 1115904, Note_on_c, 2, 84, 67
4, 1115968, Note_off_c, 2, 80, 67
4, 1115968, Note_off_c, 2, 84, 67
4, 1116032, Note_off_c, 2, 80, 67
4, 1116032, Note_off_c, 2, 84, 67
4, 1116032, Note_on_c, 2, 79, 67
4, 1116032, Note_on_c, 2, 87, 67
4, 1116096, Note_off_c, 2, 79, 67
4, 1116096, Note_off_c, 2, 87, 67
4, 1116160, Note_off_c, 2, 79, 67
4, 1116160, Note_off_c, 2, 87, 67
4, 1116160, Note_on_c, 2, 75, 67
4, 1116160, Note_on_c, 2, 82, 67
4, 1116224, Note_off_c, 2, 75, 67
4, 1116224, Note_off_c, 2, 82, 67
4, 1116288, Note_off_c, 2, 75, 67
4, 1116288, Note_off_c, 2, 82, 67
4, 1116288, Note_on_c, 2, 79, 67
4, 1116352, Note_off_c, 2, 79, 67
4, 1116416, Note_off_c, 2, 79, 67
4, 1116416, Note_on_c, 2, 67, 67
4, 1116416, Note_on_c, 2, 75, 67
4, 1116480, Note_off_c, 2, 67, 67
4, 1116480, Note_off_c, 2, 75, 67
4, 1116544, Note_off_c, 2, 67, 67
4, 1116544, Note_off_c, 2, 75, 67
4, 1116544, Note_on_c, 2, 68, 67
4, 1116544, Note_on_c, 2, 74, 67
4, 1116576, Note_off_c, 2, 68, 67
4, 1116576, Note_off_c, 2, 74, 67
4, 1116608, Note_off_c, 2, 68, 67
4, 1116608, Note_off_c, 2, 74, 67
4, 1116608, Note_on_c, 2, 74, 67
4, 1116608, Note_on_c, 2, 79, 67
4, 1116640, Note_off_c, 2, 74, 67
4, 1116640, Note_off_c, 2, 79, 67
4, 1116672, Note_off_c, 2, 74, 67
4, 1116672, Note_off_c, 2, 79, 67
4, 1116672, Note_on_c, 2, 70, 67
4, 1116672, Note_on_c, 2, 77, 67
4, 1116736, Note_off_c, 2, 70, 67
4, 1116736, Note_off_c, 2, 77, 67
4, 1116800, Note_off_c, 2, 70, 67
4, 1116800, Note_off_c, 2, 77, 67
4, 1116800, Note_on_c, 2, 65, 67
4, 1116800, Note_on_c, 2, 70, 67
4, 1116864, Note_off_c, 2, 65, 67
4, 1116864, Note_off_c, 2, 70, 67
4, 1116928, Note_off_c, 2, 65, 67
4, 1116928, Note_off_c, 2, 70, 67
4, 1116928, Note_on_c, 2, 68, 67
4, 1116928, Note_on_c, 2, 70, 67
4, 1116992, Note_off_c, 2, 68, 67
4, 1116992, Note_off_c, 2, 70, 67
4, 1117056, Note_off_c, 2, 68, 67
4, 1117056, Note_off_c, 2, 70, 67
4, 1117056, Note_on_c, 2, 70, 67
4, 1117056, Note_on_c, 2, 79, 67
4, 1117120, Note_off_c, 2, 70, 67
4, 1117120, Note_off_c, 2, 79, 67
4, 1117120, Note_on_c, 2, 77, 67
4, 1117120, Note_on_c, 2, 80, 67
4, 1117184, Note_off_c, 2, 77, 67
4, 1117184, Note_off_c, 2, 80, 67
4, 1117184, Note_on_c, 2, 79, 67
4, 1117184, Note_on_c, 2, 82, 67
4, 1117248, Note_off_c, 2, 79, 67
4, 1117248, Note_off_c, 2, 82, 67
4, 1117312, Note_off_c, 2, 79, 67
4, 1117312, Note_off_c, 2, 82, 67
4, 1117312, Note_on_c, 2, 79, 67
4, 1117312, Note_on_c, 2, 82, 67
4, 1117376, Note_off_c, 2, 79, 67
4, 1117376, Note_off_c, 2, 82, 67
4, 1117440, Note_off_c, 2, 79, 67
4, 1117440, Note_off_c, 2, 82, 67
4, 1117440, Note_on_c, 2, 70, 67
4, 1117440, Note_on_c, 2, 79, 67
4, 1117504, Note_off_c, 2, 70, 67
4, 1117504, Note_off_c, 2, 79, 67
4, 1117568, Note_off_c, 2, 70, 67
4, 1117568, Note_off_c, 2, 79, 67
4, 1117568, Note_on_c, 2, 75, 67
4, 1117568, Note_on_c, 2, 82, 67
4, 1117632, Note_off_c, 2, 75, 67
4, 1117632, Note_off_c, 2, 82, 67
4, 1117696, Note_off_c, 2, 75, 67
4, 1117696, Note_off_c, 2, 82, 67
4, 1117696, Note_on_c, 2, 84, 67
4, 1117696, Note_on_c, 2, 87, 67
4, 1117760, Note_off_c, 2, 84, 67
4, 1117760, Note_off_c, 2, 87, 67
4, 1117824, Note_off_c, 2, 84, 67
4, 1117824, Note_off_c, 2, 87, 67
4, 1117824, Note_on_c, 2, 82, 67
4, 1117824, Note_on_c, 2, 86, 67
4, 1117888, Note_off_c, 2, 82, 67
4, 1117888, Note_off_c, 2, 86, 67
4, 1117952, Note_off_c, 2, 82, 67
4, 1117952, Note_off_c, 2, 86, 67
4, 1117952, Note_on_c, 2, 80, 67
4, 1117952, Note_on_c, 2, 84, 67
4, 1118016, Note_off_c, 2, 80, 67
4, 1118016, Note_off_c, 2, 84, 67
4, 1118080, Note_off_c, 2, 80, 67
4, 1118080, Note_off_c, 2, 84, 67
4, 1118080, Note_on_c, 2, 70, 67
4, 1118080, Note_on_c, 2, 74, 67
4, 1118112, Note_off_c, 2, 70, 67
4, 1118112, Note_off_c, 2, 74, 67
4, 1118144, Note_off_c, 2, 70, 67
4, 1118144, Note_off_c, 2, 74, 67
4, 1118144, Note_on_c, 2, 77, 67
4, 1118144, Note_on_c, 2, 80, 67
4, 1118176, Note_off_c, 2, 77, 67
4, 1118176, Note_off_c, 2, 80, 67
4, 1118208, Note_off_c, 2, 77, 67
4, 1118208, Note_off_c, 2, 80, 67
4, 1118208, Note_on_c, 2, 77, 67
4, 1118208, Note_on_c, 2, 82, 67
4, 1118272, Note_off_c, 2, 77, 67
4, 1118272, Note_off_c, 2, 82, 67
4, 1118336, Note_off_c, 2, 77, 67
4, 1118336, Note_off_c, 2, 82, 67
4, 1118336, Note_on_c, 2, 80, 67
4, 1118336, Note_on_c, 2, 87, 67
4, 1118400, Note_off_c, 2, 80, 67
4, 1118400, Note_off_c, 2, 87, 67
4, 1118464, Note_off_c, 2, 80, 67
4, 1118464, Note_off_c, 2, 87, 67
4, 1118464, Note_on_c, 2, 82, 67
4, 1118464, Note_on_c, 2, 86, 67
4, 1118528, Note_off_c, 2, 82, 67
4, 1118528, Note_off_c, 2, 86, 67
4, 1118592, Note_off_c, 2, 82, 67
4, 1118592, Note_off_c, 2, 86, 67
4, 1118592, Note_on_c, 2, 80, 67
4, 1118592, Note_on_c, 2, 89, 67
4, 1118656, Note_off_c, 2, 80, 67
4, 1118656, Note_off_c, 2, 89, 67
4, 1118720, Note_off_c, 2, 80, 67
4, 1118720, Note_off_c, 2, 89, 67
4, 1118720, Note_on_c, 2, 79, 67
4, 1118720, Note_on_c, 2, 87, 67
4, 1118784, Note_off_c, 2, 79, 67
4, 1118784, Note_off_c, 2, 87, 67
4, 1118848, Note_off_c, 2, 79, 67
4, 1118848, Note_off_c, 2, 87, 67
4, 1118848, Note_on_c, 2, 70, 67
4, 1118848, Note_on_c, 2, 82, 67
4, 1118912, Note_off_c, 2, 70, 67
4, 1118912, Note_off_c, 2, 82, 67
4, 1118976, Note_off_c, 2, 70, 67
4, 1118976, Note_off_c, 2, 82, 67
4, 1118976, Note_on_c, 2, 70, 67
4, 1118976, Note_on_c, 2, 82, 67
4, 1119040, Note_off_c, 2, 70, 67
4, 1119040, Note_off_c, 2, 82, 67
4, 1119104, Note_off_c, 2, 70, 67
4, 1119104, Note_off_c, 2, 82, 67
4, 1119104, Note_on_c, 2, 75, 67
4, 1119168, Note_off_c, 2, 75, 67
4, 1119168, Note_on_c, 2, 77, 67
4, 1119232, Note_off_c, 2, 77, 67
4, 1119232, Note_on_c, 2, 79, 67
4, 1119296, Note_off_c, 2, 79, 67
4, 1119360, Note_off_c, 2, 79, 67
4, 1119360, Note_on_c, 2, 75, 67
4, 1119360, Note_on_c, 2, 79, 67
4, 1119424, Note_off_c, 2, 75, 67
4, 1119424, Note_off_c, 2, 79, 67
4, 1119488, Note_off_c, 2, 75, 67
4, 1119488, Note_off_c, 2, 79, 67
4, 1119488, Note_on_c, 2, 75, 67
4, 1119488, Note_on_c, 2, 79, 67
4, 1119552, Note_off_c, 2, 75, 67
4, 1119552, Note_off_c, 2, 79, 67
4, 1119616, Note_off_c, 2, 75, 67
4, 1119616, Note_off_c, 2, 79, 67
4, 1119616, Note_on_c, 2, 75, 67
4, 1119680, Note_off_c, 2, 75, 67
4, 1119680, Note_on_c, 2, 77, 67
4, 1119744, Note_off_c, 2, 77, 67
4, 1119744, Note_on_c, 2, 79, 67
4, 1119808, Note_off_c, 2, 79, 67
4, 1119872, Note_off_c, 2, 79, 67
4, 1119872, Note_on_c, 2, 75, 67
4, 1119872, Note_on_c, 2, 79, 67
4, 1119936, Note_off_c, 2, 75, 67
4, 1119936, Note_off_c, 2, 79, 67
4, 1120000, Note_off_c, 2, 75, 67
4, 1120000, Note_off_c, 2, 79, 67
4, 1120000, Note_on_c, 2, 75, 67
4, 1120000, Note_on_c, 2, 79, 67
4, 1120064, Note_off_c, 2, 75, 67
4, 1120064, Note_off_c, 2, 79, 67
4, 1120128, Note_off_c, 2, 75, 67
4, 1120128, Note_off_c, 2, 79, 67
4, 1120128, Note_on_c, 2, 75, 67
4, 1120192, Note_off_c, 2, 75, 67
4, 1120192, Note_on_c, 2, 77, 67
4, 1120256, Note_off_c, 2, 77, 67
4, 1120256, Note_on_c, 2, 79, 67
4, 1120320, Note_off_c, 2, 79, 67
4, 1120384, Note_off_c, 2, 79, 67
4, 1120384, Note_on_c, 2, 75, 67
4, 1120384, Note_on_c, 2, 79, 67
4, 1120448, Note_off_c, 2, 75, 67
4, 1120448, Note_off_c, 2, 79, 67
4, 1120512, Note_off_c, 2, 75, 67
4, 1120512, Note_off_c, 2, 79, 67
4, 1120512, Note_on_c, 2, 75, 67
4, 1120512, Note_on_c, 2, 80, 67
4, 1120544, Note_off_c, 2, 75, 67
4, 1120544, Note_off_c, 2, 80, 67
4, 1120576, Note_off_c, 2, 75, 67
4, 1120576, Note_off_c, 2, 80, 67
4, 1120576, Note_on_c, 2, 74, 67
4, 1120608, Note_off_c, 2, 74, 67
4, 1120640, Note_off_c, 2, 74, 67
4, 1120640, Note_on_c, 2, 72, 67
4, 1120672, Note_off_c, 2, 72, 67
4, 1120704, Note_off_c, 2, 72, 67
4, 1120704, Note_on_c, 2, 74, 67
4, 1120704, Note_on_c, 2, 79, 67
4, 1120736, Note_off_c, 2, 74, 67
4, 1120736, Note_off_c, 2, 79, 67
4, 1120768, Note_off_c, 2, 74, 67
4, 1120768, Note_off_c, 2, 79, 67
4, 1120768, Note_on_c, 2, 70, 67
4, 1120768, Note_on_c, 2, 77, 67
4, 1120832, Note_off_c, 2, 70, 67
4, 1120832, Note_off_c, 2, 77, 67
4, 1120896, Note_off_c, 2, 70, 67
4, 1120896, Note_off_c, 2, 77, 67
4, 1120896, Note_on_c, 2, 68, 67
4, 1120896, Note_on_c, 2, 70, 67
4, 1120960, Note_off_c, 2, 68, 67
4, 1120960, Note_off_c, 2, 70, 67
4, 1121024, Note_off_c, 2, 68, 67
4, 1121024, Note_off_c, 2, 70, 67
4, 1121024, Note_on_c, 2, 68, 67
4, 1121024, Note_on_c, 2, 70, 67
4, 1121088, Note_off_c, 2, 68, 67
4, 1121088, Note_off_c, 2, 70, 67
4, 1121152, Note_off_c, 2, 68, 67
4, 1121152, Note_off_c, 2, 70, 67
4, 1121152, Note_on_c, 2, 74, 67
4, 1121216, Note_off_c, 2, 74, 67
4, 1121216, Note_on_c, 2, 75, 67
4, 1121280, Note_off_c, 2, 75, 67
4, 1121280, Note_on_c, 2, 77, 67
4, 1121344, Note_off_c, 2, 77, 67
4, 1121408, Note_off_c, 2, 77, 67
4, 1121408, Note_on_c, 2, 74, 67
4, 1121408, Note_on_c, 2, 77, 67
4, 1121472, Note_off_c, 2, 74, 67
4, 1121472, Note_off_c, 2, 77, 67
4, 1121536, Note_off_c, 2, 74, 67
4, 1121536, Note_off_c, 2, 77, 67
4, 1121536, Note_on_c, 2, 74, 67
4, 1121536, Note_on_c, 2, 77, 67
4, 1121600, Note_off_c, 2, 74, 67
4, 1121600, Note_off_c, 2, 77, 67
4, 1121664, Note_off_c, 2, 74, 67
4, 1121664, Note_off_c, 2, 77, 67
4, 1121664, Note_on_c, 2, 74, 67
4, 1121728, Note_off_c, 2, 74, 67
4, 1121728, Note_on_c, 2, 75, 67
4, 1121792, Note_off_c, 2, 75, 67
4, 1121792, Note_on_c, 2, 77, 67
4, 1121856, Note_off_c, 2, 77, 67
4, 1121920, Note_off_c, 2, 77, 67
4, 1121920, Note_on_c, 2, 74, 67
4, 1121920, Note_on_c, 2, 77, 67
4, 1121984, Note_off_c, 2, 74, 67
4, 1121984, Note_off_c, 2, 77, 67
4, 1122048, Note_off_c, 2, 74, 67
4, 1122048, Note_off_c, 2, 77, 67
4, 1122048, Note_on_c, 2, 74, 67
4, 1122048, Note_on_c, 2, 77, 67
4, 1122112, Note_off_c, 2, 74, 67
4, 1122112, Note_off_c, 2, 77, 67
4, 1122176, Note_off_c, 2, 74, 67
4, 1122176, Note_off_c, 2, 77, 67
4, 1122176, Note_on_c, 2, 74, 67
4, 1122240, Note_off_c, 2, 74, 67
4, 1122240, Note_on_c, 2, 75, 67
4, 1122304, Note_off_c, 2, 75, 67
4, 1122304, Note_on_c, 2, 70, 67
4, 1122304, Note_on_c, 2, 77, 67
4, 1122368, Note_off_c, 2, 70, 67
4, 1122368, Note_off_c, 2, 77, 67
4, 1122432, Note_off_c, 2, 70, 67
4, 1122432, Note_off_c, 2, 77, 67
4, 1122432, Note_on_c, 2, 74, 67
4, 1122432, Note_on_c, 2, 77, 67
4, 1122496, Note_off_c, 2, 74, 67
4, 1122496, Note_off_c, 2, 77, 67
4, 1122560, Note_off_c, 2, 74, 67
4, 1122560, Note_off_c, 2, 77, 67
4, 1122560, Note_on_c, 2, 74, 67
4, 1122560, Note_on_c, 2, 79, 67
4, 1122592, Note_off_c, 2, 74, 67
4, 1122592, Note_off_c, 2, 79, 67
4, 1122624, Note_off_c, 2, 74, 67
4, 1122624, Note_off_c, 2, 79, 67
4, 1122624, Note_on_c, 2, 72, 67
4, 1122624, Note_on_c, 2, 77, 67
4, 1122656, Note_off_c, 2, 72, 67
4, 1122656, Note_off_c, 2, 77, 67
4, 1122688, Note_off_c, 2, 72, 67
4, 1122688, Note_off_c, 2, 77, 67
4, 1122688, Note_on_c, 2, 70, 67
4, 1122688, Note_on_c, 2, 77, 67
4, 1122720, Note_off_c, 2, 70, 67
4, 1122720, Note_off_c, 2, 77, 67
4, 1122752, Note_off_c, 2, 70, 67
4, 1122752, Note_off_c, 2, 77, 67
4, 1122752, Note_on_c, 2, 68, 67
4, 1122752, Note_on_c, 2, 79, 67
4, 1122784, Note_off_c, 2, 68, 67
4, 1122784, Note_off_c, 2, 79, 67
4, 1122816, Note_off_c, 2, 68, 67
4, 1122816, Note_off_c, 2, 79, 67
4, 1122816, Note_on_c, 2, 67, 67
4, 1122816, Note_on_c, 2, 75, 67
4, 1122880, Note_off_c, 2, 67, 67
4, 1122880, Note_off_c, 2, 75, 67
4, 1122944, Note_off_c, 2, 67, 67
4, 1122944, Note_off_c, 2, 75, 67
4, 1122944, Note_on_c, 2, 70, 67
4, 1123008, Note_off_c, 2, 70, 67
4, 1123072, Note_off_c, 2, 70, 67
4, 1123072, Note_on_c, 2, 70, 67
4, 1123072, Note_on_c, 2, 79, 67
4, 1123136, Note_off_c, 2, 70, 67
4, 1123136, Note_off_c, 2, 79, 67
4, 1123200, Note_off_c, 2, 70, 67
4, 1123200, Note_off_c, 2, 79, 67
4, 1123200, Note_on_c, 2, 75, 67
4, 1123264, Note_off_c, 2, 75, 67
4, 1123264, Note_on_c, 2, 77, 67
4, 1123328, Note_off_c, 2, 77, 67
4, 1123328, Note_on_c, 2, 79, 67
4, 1123392, Note_off_c, 2, 79, 67
4, 1123456, Note_off_c, 2, 79, 67
4, 1123456, Note_on_c, 2, 75, 67
4, 1123456, Note_on_c, 2, 79, 67
4, 1123520, Note_off_c, 2, 75, 67
4, 1123520, Note_off_c, 2, 79, 67
4, 1123584, Note_off_c, 2, 75, 67
4, 1123584, Note_off_c, 2, 79, 67
4, 1123584, Note_on_c, 2, 75, 67
4, 1123584, Note_on_c, 2, 79, 67
4, 1123648, Note_off_c, 2, 75, 67
4, 1123648, Note_off_c, 2, 79, 67
4, 1123712, Note_off_c, 2, 75, 67
4, 1123712, Note_off_c, 2, 79, 67
4, 1123712, Note_on_c, 2, 75, 67
4, 1123776, Note_off_c, 2, 75, 67
4, 1123776, Note_on_c, 2, 77, 67
4, 1123840, Note_off_c, 2, 77, 67
4, 1123840, Note_on_c, 2, 79, 67
4, 1123904, Note_off_c, 2, 79, 67
4, 1123968, Note_off_c, 2, 79, 67
4, 1123968, Note_on_c, 2, 75, 67
4, 1123968, Note_on_c, 2, 79, 67
4, 1124032, Note_off_c, 2, 75, 67
4, 1124032, Note_off_c, 2, 79, 67
4, 1124096, Note_off_c, 2, 75, 67
4, 1124096, Note_off_c, 2, 79, 67
4, 1124096, Note_on_c, 2, 75, 67
4, 1124096, Note_on_c, 2, 79, 67
4, 1124160, Note_off_c, 2, 75, 67
4, 1124160, Note_off_c, 2, 79, 67
4, 1124224, Note_off_c, 2, 75, 67
4, 1124224, Note_off_c, 2, 79, 67
4, 1124224, Note_on_c, 2, 75, 67
4, 1124288, Note_off_c, 2, 75, 67
4, 1124288, Note_on_c, 2, 77, 67
4, 1124352, Note_off_c, 2, 77, 67
4, 1124352, Note_on_c, 2, 79, 67
4, 1124416, Note_off_c, 2, 79, 67
4, 1124480, Note_off_c, 2, 79, 67
4, 1124480, Note_on_c, 2, 75, 67
4, 1124480, Note_on_c, 2, 79, 67
4, 1124544, Note_off_c, 2, 75, 67
4, 1124544, Note_off_c, 2, 79, 67
4, 1124608, Note_off_c, 2, 75, 67
4, 1124608, Note_off_c, 2, 79, 67
4, 1124608, Note_on_c, 2, 75, 67
4, 1124608, Note_on_c, 2, 80, 67
4, 1124640, Note_off_c, 2, 75, 67
4, 1124640, Note_off_c, 2, 80, 67
4, 1124672, Note_off_c, 2, 75, 67
4, 1124672, Note_off_c, 2, 80, 67
4, 1124672, Note_on_c, 2, 74, 67
4, 1124736, Note_off_c, 2, 74, 67
4, 1124736, Note_on_c, 2, 72, 67
4, 1124800, Note_off_c, 2, 72, 67
4, 1124800, Note_on_c, 2, 74, 67
4, 1124800, Note_on_c, 2, 79, 67
4, 1124832, Note_off_c, 2, 74, 67
4, 1124832, Note_off_c, 2, 79, 67
4, 1124864, Note_off_c, 2, 74, 67
4, 1124864, Note_off_c, 2, 79, 67
4, 1124864, Note_on_c, 2, 70, 67
4, 1124864, Note_on_c, 2, 77, 67
4, 1124928, Note_off_c, 2, 70, 67
4, 1124928, Note_off_c, 2, 77, 67
4, 1124992, Note_off_c, 2, 70, 67
4, 1124992, Note_off_c, 2, 77, 67
4, 1124992, Note_on_c, 2, 68, 67
4, 1124992, Note_on_c, 2, 70, 67
4, 1125056, Note_off_c, 2, 68, 67
4, 1125056, Note_off_c, 2, 70, 67
4, 1125120, Note_off_c, 2, 68, 67
4, 1125120, Note_off_c, 2, 70, 67
4, 1125120, Note_on_c, 2, 68, 67
4, 1125120, Note_on_c, 2, 70, 67
4, 1125184, Note_off_c, 2, 68, 67
4, 1125184, Note_off_c, 2, 70, 67
4, 1125248, Note_off_c, 2, 68, 67
4, 1125248, Note_off_c, 2, 70, 67
4, 1125248, Note_on_c, 2, 74, 67
4, 1125312, Note_off_c, 2, 74, 67
4, 1125312, Note_on_c, 2, 75, 67
4, 1125376, Note_off_c, 2, 75, 67
4, 1125376, Note_on_c, 2, 77, 67
4, 1125504, Note_off_c, 2, 77, 67
4, 1125504, Note_on_c, 2, 74, 67
4, 1125504, Note_on_c, 2, 80, 67
4, 1125568, Note_off_c, 2, 74, 67
4, 1125568, Note_off_c, 2, 80, 67
4, 1125632, Note_off_c, 2, 74, 67
4, 1125632, Note_off_c, 2, 80, 67
4, 1125632, Note_on_c, 2, 74, 67
4, 1125632, Note_on_c, 2, 79, 67
4, 1125696, Note_off_c, 2, 74, 67
4, 1125696, Note_off_c, 2, 79, 67
4, 1125760, Note_off_c, 2, 74, 67
4, 1125760, Note_off_c, 2, 79, 67
4, 1125760, Note_on_c, 2, 77, 67
4, 1125824, Note_off_c, 2, 77, 67
4, 1125888, Note_off_c, 2, 77, 67
4, 1125888, Note_on_c, 2, 75, 67
4, 1125952, Note_off_c, 2, 75, 67
4, 1126016, Note_off_c, 2, 75, 67
4, 1126016, Note_on_c, 2, 70, 67
4, 1126016, Note_on_c, 2, 74, 67
4, 1126080, Note_off_c, 2, 70, 67
4, 1126080, Note_off_c, 2, 74, 67
4, 1126144, Note_off_c, 2, 70, 67
4, 1126144, Note_off_c, 2, 74, 67
4, 1126144, Note_on_c, 2, 72, 67
4, 1126144, Note_on_c, 2, 74, 67
4, 1126208, Note_off_c, 2, 72, 67
4, 1126208, Note_off_c, 2, 74, 67
4, 1126272, Note_off_c, 2, 72, 67
4, 1126272, Note_off_c, 2, 74, 67
4, 1126272, Note_on_c, 2, 70, 67
4, 1126272, Note_on_c, 2, 74, 67
4, 1126336, Note_off_c, 2, 70, 67
4, 1126336, Note_off_c, 2, 74, 67
4, 1126400, Note_off_c, 2, 70, 67
4, 1126400, Note_off_c, 2, 74, 67
4, 1126400, Note_on_c, 2, 80, 67
4, 1126400, Note_on_c, 2, 84, 67
4, 1126656, Note_off_c, 2, 80, 67
4, 1126656, Note_off_c, 2, 84, 67
4, 1126656, Note_on_c, 2, 70, 67
4, 1126656, Note_on_c, 2, 74, 67
4, 1126672, Note_off_c, 2, 70, 67
4, 1126672, Note_off_c, 2, 74, 67
4, 1126688, Note_off_c, 2, 70, 67
4, 1126688, Note_off_c, 2, 74, 67
4, 1126688, Note_on_c, 2, 72, 67
4, 1126688, Note_on_c, 2, 75, 67
4, 1126704, Note_off_c, 2, 72, 67
4, 1126704, Note_off_c, 2, 75, 67
4, 1126720, Note_off_c, 2, 72, 67
4, 1126720, Note_off_c, 2, 75, 67
4, 1126720, Note_on_c, 2, 70, 67
4, 1126720, Note_on_c, 2, 74, 67
4, 1126752, Note_off_c, 2, 70, 67
4, 1126752, Note_off_c, 2, 74, 67
4, 1126784, Note_off_c, 2, 70, 67
4, 1126784, Note_off_c, 2, 74, 67
4, 1126784, Note_on_c, 2, 68, 67
4, 1126784, Note_on_c, 2, 72, 67
4, 1126816, Note_off_c, 2, 68, 67
4, 1126816, Note_off_c, 2, 72, 67
4, 1126848, Note_off_c, 2, 68, 67
4, 1126848, Note_off_c, 2, 72, 67
4, 1126848, Note_on_c, 2, 74, 67
4, 1126848, Note_on_c, 2, 77, 67
4, 1126880, Note_off_c, 2, 74, 67
4, 1126880, Note_off_c, 2, 77, 67
4, 1126912, Note_off_c, 2, 74, 67
4, 1126912, Note_off_c, 2, 77, 67
4, 1126912, Note_on_c, 2, 75, 67
4, 1126912, Note_on_c, 2, 79, 67
4, 1127040, Note_off_c, 2, 75, 67
4, 1127040, Note_off_c, 2, 79, 67
4, 1127040, Note_on_c, 2, 70, 67
4, 1127104, Note_off_c, 2, 70, 67
4, 1127168, Note_off_c, 2, 70, 67
4, 1127168, Note_on_c, 2, 70, 67
4, 1127232, Note_off_c, 2, 70, 67
4, 1127296, Note_off_c, 2, 70, 67
4, 1127296, Note_on_c, 2, 75, 67
4, 1127296, Note_on_c, 2, 79, 67
4, 1127360, Note_off_c, 2, 75, 67
4, 1127360, Note_off_c, 2, 79, 67
4, 1127360, Note_on_c, 2, 77, 67
4, 1127360, Note_on_c, 2, 80, 67
4, 1127424, Note_off_c, 2, 77, 67
4, 1127424, Note_off_c, 2, 80, 67
4, 1127424, Note_on_c, 2, 79, 67
4, 1127424, Note_on_c, 2, 82, 67
4, 1127488, Note_off_c, 2, 79, 67
4, 1127488, Note_off_c, 2, 82, 67
4, 1127552, Note_off_c, 2, 79, 67
4, 1127552, Note_off_c, 2, 82, 67
4, 1127552, Note_on_c, 2, 79, 67
4, 1127552, Note_on_c, 2, 82, 67
4, 1127616, Note_off_c, 2, 79, 67
4, 1127616, Note_off_c, 2, 82, 67
4, 1127680, Note_off_c, 2, 79, 67
4, 1127680, Note_off_c, 2, 82, 67
4, 1127680, Note_on_c, 2, 70, 67
4, 1127680, Note_on_c, 2, 79, 67
4, 1127744, Note_off_c, 2, 70, 67
4, 1127744, Note_off_c, 2, 79, 67
4, 1127808, Note_off_c, 2, 70, 67
4, 1127808, Note_off_c, 2, 79, 67
4, 1127808, Note_on_c, 2, 70, 67
4, 1127808, Note_on_c, 2, 75, 67
4, 1127872, Note_off_c, 2, 70, 67
4, 1127872, Note_off_c, 2, 75, 67
4, 1127936, Note_off_c, 2, 70, 67
4, 1127936, Note_off_c, 2, 75, 67
4, 1127936, Note_on_c, 2, 84, 67
4, 1127936, Note_on_c, 2, 87, 67
4, 1128000, Note_off_c, 2, 84, 67
4, 1128000, Note_off_c, 2, 87, 67
4, 1128064, Note_off_c, 2, 84, 67
4, 1128064, Note_off_c, 2, 87, 67
4, 1128064, Note_on_c, 2, 82, 67
4, 1128064, Note_on_c, 2, 86, 67
4, 1128128, Note_off_c, 2, 82, 67
4, 1128128, Note_off_c, 2, 86, 67
4, 1128192, Note_off_c, 2, 82, 67
4, 1128192, Note_off_c, 2, 86, 67
4, 1128192, Note_on_c, 2, 80, 67
4, 1128192, Note_on_c, 2, 84, 67
4, 1128256, Note_off_c, 2, 80, 67
4, 1128256, Note_off_c, 2, 84, 67
4, 1128320, Note_off_c, 2, 80, 67
4, 1128320, Note_off_c, 2, 84, 67
4, 1128320, Note_on_c, 2, 79, 67
4, 1128320, Note_on_c, 2, 87, 67
4, 1128384, Note_off_c, 2, 79, 67
4, 1128384, Note_off_c, 2, 87, 67
4, 1128448, Note_off_c, 2, 79, 67
4, 1128448, Note_off_c, 2, 87, 67
4, 1128448, Note_on_c, 2, 75, 67
4, 1128448, Note_on_c, 2, 82, 67
4, 1128512, Note_off_c, 2, 75, 67
4, 1128512, Note_off_c, 2, 82, 67
4, 1128576, Note_off_c, 2, 75, 67
4, 1128576, Note_off_c, 2, 82, 67
4, 1128576, Note_on_c, 2, 79, 67
4, 1128640, Note_off_c, 2, 79, 67
4, 1128704, Note_off_c, 2, 79, 67
4, 1128704, Note_on_c, 2, 67, 67
4, 1128704, Note_on_c, 2, 75, 67
4, 1128768, Note_off_c, 2, 67, 67
4, 1128768, Note_off_c, 2, 75, 67
4, 1128832, Note_off_c, 2, 67, 67
4, 1128832, Note_off_c, 2, 75, 67
4, 1128832, Note_on_c, 2, 68, 67
4, 1128832, Note_on_c, 2, 74, 67
4, 1128864, Note_off_c, 2, 68, 67
4, 1128864, Note_off_c, 2, 74, 67
4, 1128896, Note_off_c, 2, 68, 67
4, 1128896, Note_off_c, 2, 74, 67
4, 1128896, Note_on_c, 2, 74, 67
4, 1128896, Note_on_c, 2, 79, 67
4, 1128928, Note_off_c, 2, 74, 67
4, 1128928, Note_off_c, 2, 79, 67
4, 1128960, Note_off_c, 2, 74, 67
4, 1128960, Note_off_c, 2, 79, 67
4, 1128960, Note_on_c, 2, 70, 67
4, 1128960, Note_on_c, 2, 77, 67
4, 1129024, Note_off_c, 2, 70, 67
4, 1129024, Note_off_c, 2, 77, 67
4, 1129088, Note_off_c, 2, 70, 67
4, 1129088, Note_off_c, 2, 77, 67
4, 1129088, Note_on_c, 2, 65, 67
4, 1129088, Note_on_c, 2, 70, 67
4, 1129152, Note_off_c, 2, 65, 67
4, 1129152, Note_off_c, 2, 70, 67
4, 1129216, Note_off_c, 2, 65, 67
4, 1129216, Note_off_c, 2, 70, 67
4, 1129216, Note_on_c, 2, 68, 67
4, 1129216, Note_on_c, 2, 70, 67
4, 1129280, Note_off_c, 2, 68, 67
4, 1129280, Note_off_c, 2, 70, 67
4, 1129344, Note_off_c, 2, 68, 67
4, 1129344, Note_off_c, 2, 70, 67
4, 1129344, Note_on_c, 2, 70, 67
4, 1129344, Note_on_c, 2, 79, 67
4, 1129408, Note_off_c, 2, 70, 67
4, 1129408, Note_off_c, 2, 79, 67
4, 1129408, Note_on_c, 2, 77, 67
4, 1129408, Note_on_c, 2, 80, 67
4, 1129472, Note_off_c, 2, 77, 67
4, 1129472, Note_off_c, 2, 80, 67
4, 1129472, Note_on_c, 2, 79, 67
4, 1129472, Note_on_c, 2, 82, 67
4, 1129536, Note_off_c, 2, 79, 67
4, 1129536, Note_off_c, 2, 82, 67
4, 1129600, Note_off_c, 2, 79, 67
4, 1129600, Note_off_c, 2, 82, 67
4, 1129600, Note_on_c, 2, 79, 67
4, 1129600, Note_on_c, 2, 82, 67
4, 1129664, Note_off_c, 2, 79, 67
4, 1129664, Note_off_c, 2, 82, 67
4, 1129728, Note_off_c, 2, 79, 67
4, 1129728, Note_off_c, 2, 82, 67
4, 1129728, Note_on_c, 2, 70, 67
4, 1129728, Note_on_c, 2, 79, 67
4, 1129792, Note_off_c, 2, 70, 67
4, 1129792, Note_off_c, 2, 79, 67
4, 1129856, Note_off_c, 2, 70, 67
4, 1129856, Note_off_c, 2, 79, 67
4, 1129856, Note_on_c, 2, 75, 67
4, 1129856, Note_on_c, 2, 82, 67
4, 1129920, Note_off_c, 2, 75, 67
4, 1129920, Note_off_c, 2, 82, 67
4, 1129984, Note_off_c, 2, 75, 67
4, 1129984, Note_off_c, 2, 82, 67
4, 1129984, Note_on_c, 2, 84, 67
4, 1129984, Note_on_c, 2, 87, 67
4, 1130048, Note_off_c, 2, 84, 67
4, 1130048, Note_off_c, 2, 87, 67
4, 1130112, Note_off_c, 2, 84, 67
4, 1130112, Note_off_c, 2, 87, 67
4, 1130112, Note_on_c, 2, 82, 67
4, 1130112, Note_on_c, 2, 86, 67
4, 1130176, Note_off_c, 2, 82, 67
4, 1130176, Note_off_c, 2, 86, 67
4, 1130240, Note_off_c, 2, 82, 67
4, 1130240, Note_off_c, 2, 86, 67
4, 1130240, Note_on_c, 2, 80, 67
4, 1130240, Note_on_c, 2, 84, 67
4, 1130304, Note_off_c, 2, 80, 67
4, 1130304, Note_off_c, 2, 84, 67
4, 1130368, Note_off_c, 2, 80, 67
4, 1130368, Note_off_c, 2, 84, 67
4, 1130368, Note_on_c, 2, 70, 67
4, 1130368, Note_on_c, 2, 74, 67
4, 1130400, Note_off_c, 2, 70, 67
4, 1130400, Note_off_c, 2, 74, 67
4, 1130432, Note_off_c, 2, 70, 67
4, 1130432, Note_off_c, 2, 74, 67
4, 1130432, Note_on_c, 2, 77, 67
4, 1130432, Note_on_c, 2, 80, 67
4, 1130464, Note_off_c, 2, 77, 67
4, 1130464, Note_off_c, 2, 80, 67
4, 1130496, Note_off_c, 2, 77, 67
4, 1130496, Note_off_c, 2, 80, 67
4, 1130496, Note_on_c, 2, 77, 67
4, 1130496, Note_on_c, 2, 82, 67
4, 1130560, Note_off_c, 2, 77, 67
4, 1130560, Note_off_c, 2, 82, 67
4, 1130624, Note_off_c, 2, 77, 67
4, 1130624, Note_off_c, 2, 82, 67
4, 1130624, Note_on_c, 2, 80, 67
4, 1130624, Note_on_c, 2, 87, 67
4, 1130688, Note_off_c, 2, 80, 67
4, 1130688, Note_off_c, 2, 87, 67
4, 1130752, Note_off_c, 2, 80, 67
4, 1130752, Note_off_c, 2, 87, 67
4, 1130752, Note_on_c, 2, 82, 67
4, 1130752, Note_on_c, 2, 86, 67
4, 1130816, Note_off_c, 2, 82, 67
4, 1130816, Note_off_c, 2, 86, 67
4, 1130880, Note_off_c, 2, 82, 67
4, 1130880, Note_off_c, 2, 86, 67
4, 1130880, Note_on_c, 2, 80, 67
4, 1130880, Note_on_c, 2, 89, 67
4, 1130944, Note_off_c, 2, 80, 67
4, 1130944, Note_off_c, 2, 89, 67
4, 1131008, Note_off_c, 2, 80, 67
4, 1131008, Note_off_c, 2, 89, 67
4, 1131008, Note_on_c, 2, 79, 67
4, 1131008, Note_on_c, 2, 87, 67
4, 1131072, Note_off_c, 2, 79, 67
4, 1131072, Note_off_c, 2, 87, 67
4, 1131136, Note_off_c, 2, 79, 67
4, 1131136, Note_off_c, 2, 87, 67
4, 1131136, Note_on_c, 2, 70, 67
4, 1131136, Note_on_c, 2, 82, 67
4, 1131200, Note_off_c, 2, 70, 67
4, 1131200, Note_off_c, 2, 82, 67
4, 1131264, Note_off_c, 2, 70, 67
4, 1131264, Note_off_c, 2, 82, 67
4, 1131264, Note_on_c, 2, 70, 67
4, 1131264, Note_on_c, 2, 82, 67
4, 1131328, Note_off_c, 2, 70, 67
4, 1131328, Note_off_c, 2, 82, 67
4, 1131392, Note_off_c, 2, 70, 67
4, 1131392, Note_off_c, 2, 82, 67
4, 1131392, Note_on_c, 2, 75, 67
4, 1131456, Note_off_c, 2, 75, 67
4, 1131456, Note_on_c, 2, 77, 67
4, 1131520, Note_off_c, 2, 77, 67
4, 1131520, Note_on_c, 2, 79, 67
4, 1131584, Note_off_c, 2, 79, 67
4, 1131648, Note_off_c, 2, 79, 67
4, 1131648, Note_on_c, 2, 75, 67
4, 1131648, Note_on_c, 2, 79, 67
4, 1131712, Note_off_c, 2, 75, 67
4, 1131712, Note_off_c, 2, 79, 67
4, 1131776, Note_off_c, 2, 75, 67
4, 1131776, Note_off_c, 2, 79, 67
4, 1131776, Note_on_c, 2, 75, 67
4, 1131776, Note_on_c, 2, 79, 67
4, 1131840, Note_off_c, 2, 75, 67
4, 1131840, Note_off_c, 2, 79, 67
4, 1131904, Note_off_c, 2, 75, 67
4, 1131904, Note_off_c, 2, 79, 67
4, 1131904, Note_on_c, 2, 75, 67
4, 1131968, Note_off_c, 2, 75, 67
4, 1131968, Note_on_c, 2, 77, 67
4, 1132032, Note_off_c, 2, 77, 67
4, 1132032, Note_on_c, 2, 79, 67
4, 1132096, Note_off_c, 2, 79, 67
4, 1132160, Note_off_c, 2, 79, 67
4, 1132160, Note_on_c, 2, 75, 67
4, 1132160, Note_on_c, 2, 79, 67
4, 1132224, Note_off_c, 2, 75, 67
4, 1132224, Note_off_c, 2, 79, 67
4, 1132288, Note_off_c, 2, 75, 67
4, 1132288, Note_off_c, 2, 79, 67
4, 1132288, Note_on_c, 2, 75, 67
4, 1132288, Note_on_c, 2, 79, 67
4, 1132352, Note_off_c, 2, 75, 67
4, 1132352, Note_off_c, 2, 79, 67
4, 1132416, Note_off_c, 2, 75, 67
4, 1132416, Note_off_c, 2, 79, 67
4, 1132416, Note_on_c, 2, 75, 67
4, 1132480, Note_off_c, 2, 75, 67
4, 1132480, Note_on_c, 2, 77, 67
4, 1132544, Note_off_c, 2, 77, 67
4, 1132544, Note_on_c, 2, 79, 67
4, 1132608, Note_off_c, 2, 79, 67
4, 1132672, Note_off_c, 2, 79, 67
4, 1132672, Note_on_c, 2, 75, 67
4, 1132672, Note_on_c, 2, 79, 67
4, 1132736, Note_off_c, 2, 75, 67
4, 1132736, Note_off_c, 2, 79, 67
4, 1132800, Note_off_c, 2, 75, 67
4, 1132800, Note_off_c, 2, 79, 67
4, 1132800, Note_on_c, 2, 75, 67
4, 1132800, Note_on_c, 2, 80, 67
4, 1132832, Note_off_c, 2, 75, 67
4, 1132832, Note_off_c, 2, 80, 67
4, 1132864, Note_off_c, 2, 75, 67
4, 1132864, Note_off_c, 2, 80, 67
4, 1132864, Note_on_c, 2, 74, 67
4, 1132896, Note_off_c, 2, 74, 67
4, 1132928, Note_off_c, 2, 74, 67
4, 1132928, Note_on_c, 2, 72, 67
4, 1132960, Note_off_c, 2, 72, 67
4, 1132992, Note_off_c, 2, 72, 67
4, 1132992, Note_on_c, 2, 74, 67
4, 1132992, Note_on_c, 2, 79, 67
4, 1133024, Note_off_c, 2, 74, 67
4, 1133024, Note_off_c, 2, 79, 67
4, 1133056, Note_off_c, 2, 74, 67
4, 1133056, Note_off_c, 2, 79, 67
4, 1133056, Note_on_c, 2, 70, 67
4, 1133056, Note_on_c, 2, 77, 67
4, 1133120, Note_off_c, 2, 70, 67
4, 1133120, Note_off_c, 2, 77, 67
4, 1133184, Note_off_c, 2, 70, 67
4, 1133184, Note_off_c, 2, 77, 67
4, 1133184, Note_on_c, 2, 68, 67
4, 1133184, Note_on_c, 2, 70, 67
4, 1133248, Note_off_c, 2, 68, 67
4, 1133248, Note_off_c, 2, 70, 67
4, 1133312, Note_off_c, 2, 68, 67
4, 1133312, Note_off_c, 2, 70, 67
4, 1133312, Note_on_c, 2, 68, 67
4, 1133312, Note_on_c, 2, 70, 67
4, 1133376, Note_off_c, 2, 68, 67
4, 1133376, Note_off_c, 2, 70, 67
4, 1133440, Note_off_c, 2, 68, 67
4, 1133440, Note_off_c, 2, 70, 67
4, 1133440, Note_on_c, 2, 74, 67
4, 1133504, Note_off_c, 2, 74, 67
4, 1133504, Note_on_c, 2, 75, 67
4, 1133568, Note_off_c, 2, 75, 67
4, 1133568, Note_on_c, 2, 77, 67
4, 1133632, Note_off_c, 2, 77, 67
4, 1133696, Note_off_c, 2, 77, 67
4, 1133696, Note_on_c, 2, 74, 67
4, 1133696, Note_on_c, 2, 77, 67
4, 1133760, Note_off_c, 2, 74, 67
4, 1133760, Note_off_c, 2, 77, 67
4, 1133824, Note_off_c, 2, 74, 67
4, 1133824, Note_off_c, 2, 77, 67
4, 1133824, Note_on_c, 2, 74, 67
4, 1133824, Note_on_c, 2, 77, 67
4, 1133888, Note_off_c, 2, 74, 67
4, 1133888, Note_off_c, 2, 77, 67
4, 1133952, Note_off_c, 2, 74, 67
4, 1133952, Note_off_c, 2, 77, 67
4, 1133952, Note_on_c, 2, 74, 67
4, 1134016, Note_off_c, 2, 74, 67
4, 1134016, Note_on_c, 2, 75, 67
4, 1134080, Note_off_c, 2, 75, 67
4, 1134080, Note_on_c, 2, 77, 67
4, 1134144, Note_off_c, 2, 77, 67
4, 1134208, Note_off_c, 2, 77, 67
4, 1134208, Note_on_c, 2, 74, 67
4, 1134208, Note_on_c, 2, 77, 67
4, 1134272, Note_off_c, 2, 74, 67
4, 1134272, Note_off_c, 2, 77, 67
4, 1134336, Note_off_c, 2, 74, 67
4, 1134336, Note_off_c, 2, 77, 67
4, 1134336, Note_on_c, 2, 74, 67
4, 1134336, Note_on_c, 2, 77, 67
4, 1134400, Note_off_c, 2, 74, 67
4, 1134400, Note_off_c, 2, 77, 67
4, 1134464, Note_off_c, 2, 74, 67
4, 1134464, Note_off_c, 2, 77, 67
4, 1134464, Note_on_c, 2, 74, 67
4, 1134528, Note_off_c, 2, 74, 67
4, 1134528, Note_on_c, 2, 75, 67
4, 1134592, Note_off_c, 2, 75, 67
4, 1134592, Note_on_c, 2, 70, 67
4, 1134592, Note_on_c, 2, 77, 67
4, 1134656, Note_off_c, 2, 70, 67
4, 1134656, Note_off_c, 2, 77, 67
4, 1134720, Note_off_c, 2, 70, 67
4, 1134720, Note_off_c, 2, 77, 67
4, 1134720, Note_on_c, 2, 74, 67
4, 1134720, Note_on_c, 2, 77, 67
4, 1134784, Note_off_c, 2, 74, 67
4, 1134784, Note_off_c, 2, 77, 67
4, 1134848, Note_off_c, 2, 74, 67
4, 1134848, Note_off_c, 2, 77, 67
4, 1134848, Note_on_c, 2, 74, 67
4, 1134848, Note_on_c, 2, 79, 67
4, 1134880, Note_off_c, 2, 74, 67
4, 1134880, Note_off_c, 2, 79, 67
4, 1134912, Note_off_c, 2, 74, 67
4, 1134912, Note_off_c, 2, 79, 67
4, 1134912, Note_on_c, 2, 72, 67
4, 1134912, Note_on_c, 2, 77, 67
4, 1134944, Note_off_c, 2, 72, 67
4, 1134944, Note_off_c, 2, 77, 67
4, 1134976, Note_off_c, 2, 72, 67
4, 1134976, Note_off_c, 2, 77, 67
4, 1134976, Note_on_c, 2, 70, 67
4, 1134976, Note_on_c, 2, 77, 67
4, 1135008, Note_off_c, 2, 70, 67
4, 1135008, Note_off_c, 2, 77, 67
4, 1135040, Note_off_c, 2, 70, 67
4, 1135040, Note_off_c, 2, 77, 67
4, 1135040, Note_on_c, 2, 68, 67
4, 1135040, Note_on_c, 2, 79, 67
4, 1135072, Note_off_c, 2, 68, 67
4, 1135072, Note_off_c, 2, 79, 67
4, 1135104, Note_off_c, 2, 68, 67
4, 1135104, Note_off_c, 2, 79, 67
4, 1135104, Note_on_c, 2, 67, 67
4, 1135104, Note_on_c, 2, 75, 67
4, 1135168, Note_off_c, 2, 67, 67
4, 1135168, Note_off_c, 2, 75, 67
4, 1135232, Note_off_c, 2, 67, 67
4, 1135232, Note_off_c, 2, 75, 67
4, 1135232, Note_on_c, 2, 70, 67
4, 1135296, Note_off_c, 2, 70, 67
4, 1135360, Note_off_c, 2, 70, 67
4, 1135360, Note_on_c, 2, 70, 67
4, 1135360, Note_on_c, 2, 79, 67
4, 1135424, Note_off_c, 2, 70, 67
4, 1135424, Note_off_c, 2, 79, 67
4, 1135488, Note_off_c, 2, 70, 67
4, 1135488, Note_off_c, 2, 79, 67
4, 1135488, Note_on_c, 2, 75, 67
4, 1135552, Note_off_c, 2, 75, 67
4, 1135552, Note_on_c, 2, 77, 67
4, 1135616, Note_off_c, 2, 77, 67
4, 1135616, Note_on_c, 2, 79, 67
4, 1135680, Note_off_c, 2, 79, 67
4, 1135744, Note_off_c, 2, 79, 67
4, 1135744, Note_on_c, 2, 75, 67
4, 1135744, Note_on_c, 2, 79, 67
4, 1135808, Note_off_c, 2, 75, 67
4, 1135808, Note_off_c, 2, 79, 67
4, 1135872, Note_off_c, 2, 75, 67
4, 1135872, Note_off_c, 2, 79, 67
4, 1135872, Note_on_c, 2, 75, 67
4, 1135872, Note_on_c, 2, 79, 67
4, 1135936, Note_off_c, 2, 75, 67
4, 1135936, Note_off_c, 2, 79, 67
4, 1136000, Note_off_c, 2, 75, 67
4, 1136000, Note_off_c, 2, 79, 67
4, 1136000, Note_on_c, 2, 75, 67
4, 1136064, Note_off_c, 2, 75, 67
4, 1136064, Note_on_c, 2, 77, 67
4, 1136128, Note_off_c, 2, 77, 67
4, 1136128, Note_on_c, 2, 79, 67
4, 1136192, Note_off_c, 2, 79, 67
4, 1136256, Note_off_c, 2, 79, 67
4, 1136256, Note_on_c, 2, 75, 67
4, 1136256, Note_on_c, 2, 79, 67
4, 1136320, Note_off_c, 2, 75, 67
4, 1136320, Note_off_c, 2, 79, 67
4, 1136384, Note_off_c, 2, 75, 67
4, 1136384, Note_off_c, 2, 79, 67
4, 1136384, Note_on_c, 2, 75, 67
4, 1136384, Note_on_c, 2, 79, 67
4, 1136448, Note_off_c, 2, 75, 67
4, 1136448, Note_off_c, 2, 79, 67
4, 1136512, Note_off_c, 2, 75, 67
4, 1136512, Note_off_c, 2, 79, 67
4, 1136512, Note_on_c, 2, 75, 67
4, 1136576, Note_off_c, 2, 75, 67
4, 1136576, Note_on_c, 2, 77, 67
4, 1136640, Note_off_c, 2, 77, 67
4, 1136640, Note_on_c, 2, 79, 67
4, 1136704, Note_off_c, 2, 79, 67
4, 1136768, Note_off_c, 2, 79, 67
4, 1136768, Note_on_c, 2, 75, 67
4, 1136768, Note_on_c, 2, 79, 67
4, 1136832, Note_off_c, 2, 75, 67
4, 1136832, Note_off_c, 2, 79, 67
4, 1136896, Note_off_c, 2, 75, 67
4, 1136896, Note_off_c, 2, 79, 67
4, 1136896, Note_on_c, 2, 75, 67
4, 1136896, Note_on_c, 2, 80, 67
4, 1136928, Note_off_c, 2, 75, 67
4, 1136928, Note_off_c, 2, 80, 67
4, 1136960, Note_off_c, 2, 75, 67
4, 1136960, Note_off_c, 2, 80, 67
4, 1136960, Note_on_c, 2, 74, 67
4, 1137024, Note_off_c, 2, 74, 67
4, 1137024, Note_on_c, 2, 72, 67
4, 1137088, Note_off_c, 2, 72, 67
4, 1137088, Note_on_c, 2, 74, 67
4, 1137088, Note_on_c, 2, 79, 67
4, 1137120, Note_off_c, 2, 74, 67
4, 1137120, Note_off_c, 2, 79, 67
4, 1137152, Note_off_c, 2, 74, 67
4, 1137152, Note_off_c, 2, 79, 67
4, 1137152, Note_on_c, 2, 70, 67
4, 1137152, Note_on_c, 2, 77, 67
4, 1137216, Note_off_c, 2, 70, 67
4, 1137216, Note_off_c, 2, 77, 67
4, 1137280, Note_off_c, 2, 70, 67
4, 1137280, Note_off_c, 2, 77, 67
4, 1137280, Note_on_c, 2, 68, 67
4, 1137280, Note_on_c, 2, 70, 67
4, 1137344, Note_off_c, 2, 68, 67
4, 1137344, Note_off_c, 2, 70, 67
4, 1137408, Note_off_c, 2, 68, 67
4, 1137408, Note_off_c, 2, 70, 67
4, 1137408, Note_on_c, 2, 68, 67
4, 1137408, Note_on_c, 2, 70, 67
4, 1137472, Note_off_c, 2, 68, 67
4, 1137472, Note_off_c, 2, 70, 67
4, 1137536, Note_off_c, 2, 68, 67
4, 1137536, Note_off_c, 2, 70, 67
4, 1137536, Note_on_c, 2, 74, 67
4, 1137600, Note_off_c, 2, 74, 67
4, 1137600, Note_on_c, 2, 75, 67
4, 1137664, Note_off_c, 2, 75, 67
4, 1137664, Note_on_c, 2, 77, 67
4, 1137792, Note_off_c, 2, 77, 67
4, 1137792, Note_on_c, 2, 74, 67
4, 1137792, Note_on_c, 2, 80, 67
4, 1137856, Note_off_c, 2, 74, 67
4, 1137856, Note_off_c, 2, 80, 67
4, 1137920, Note_off_c, 2, 74, 67
4, 1137920, Note_off_c, 2, 80, 67
4, 1137920, Note_on_c, 2, 74, 67
4, 1137920, Note_on_c, 2, 79, 67
4, 1137984, Note_off_c, 2, 74, 67
4, 1137984, Note_off_c, 2, 79, 67
4, 1138048, Note_off_c, 2, 74, 67
4, 1138048, Note_off_c, 2, 79, 67
4, 1138048, Note_on_c, 2, 77, 67
4, 1138112, Note_off_c, 2, 77, 67
4, 1138176, Note_off_c, 2, 77, 67
4, 1138176, Note_on_c, 2, 75, 67
4, 1138240, Note_off_c, 2, 75, 67
4, 1138304, Note_off_c, 2, 75, 67
4, 1138304, Note_on_c, 2, 70, 67
4, 1138304, Note_on_c, 2, 74, 67
4, 1138368, Note_off_c, 2, 70, 67
4, 1138368, Note_off_c, 2, 74, 67
4, 1138432, Note_off_c, 2, 70, 67
4, 1138432, Note_off_c, 2, 74, 67
4, 1138432, Note_on_c, 2, 72, 67
4, 1138432, Note_on_c, 2, 74, 67
4, 1138496, Note_off_c, 2, 72, 67
4, 1138496, Note_off_c, 2, 74, 67
4, 1138560, Note_off_c, 2, 72, 67
4, 1138560, Note_off_c, 2, 74, 67
4, 1138560, Note_on_c, 2, 70, 67
4, 1138560, Note_on_c, 2, 74, 67
4, 1138624, Note_off_c, 2, 70, 67
4, 1138624, Note_off_c, 2, 74, 67
4, 1138688, Note_off_c, 2, 70, 67
4, 1138688, Note_off_c, 2, 74, 67
4, 1138688, Note_on_c, 2, 80, 67
4, 1138688, Note_on_c, 2, 84, 67
4, 1138944, Note_off_c, 2, 80, 67
4, 1138944, Note_off_c, 2, 84, 67
4, 1138944, Note_on_c, 2, 70, 67
4, 1138944, Note_on_c, 2, 74, 67
4, 1138960, Note_off_c, 2, 70, 67
4, 1138960, Note_off_c, 2, 74, 67
4, 1138976, Note_off_c, 2, 70, 67
4, 1138976, Note_off_c, 2, 74, 67
4, 1138976, Note_on_c, 2, 72, 67
4, 1138976, Note_on_c, 2, 75, 67
4, 1138992, Note_off_c, 2, 72, 67
4, 1138992, Note_off_c, 2, 75, 67
4, 1139008, Note_off_c, 2, 72, 67
4, 1139008, Note_off_c, 2, 75, 67
4, 1139008, Note_on_c, 2, 70, 67
4, 1139008, Note_on_c, 2, 74, 67
4, 1139040, Note_off_c, 2, 70, 67
4, 1139040, Note_off_c, 2, 74, 67
4, 1139072, Note_off_c, 2, 70, 67
4, 1139072, Note_off_c, 2, 74, 67
4, 1139072, Note_on_c, 2, 68, 67
4, 1139072, Note_on_c, 2, 72, 67
4, 1139104, Note_off_c, 2, 68, 67
4, 1139104, Note_off_c, 2, 72, 67
4, 1139136, Note_off_c, 2, 68, 67
4, 1139136, Note_off_c, 2, 72, 67
4, 1139136, Note_on_c, 2, 74, 67
4, 1139136, Note_on_c, 2, 77, 67
4, 1139168, Note_off_c, 2, 74, 67
4, 1139168, Note_off_c, 2, 77, 67
4, 1139200, Note_off_c, 2, 74, 67
4, 1139200, Note_off_c, 2, 77, 67
4, 1139200, Note_on_c, 2, 75, 67
4, 1139200, Note_on_c, 2, 79, 67
4, 1139328, Note_off_c, 2, 75, 67
4, 1139328, Note_off_c, 2, 79, 67
4, 1139328, Note_on_c, 2, 70, 67
4, 1139392, Note_off_c, 2, 70, 67
4, 1139456, Note_off_c, 2, 70, 67
4, 1139456, Note_on_c, 2, 70, 67
4, 1139520, Note_off_c, 2, 70, 67
4, 1139584, Note_off_c, 2, 70, 67
4, 1139584, Note_on_c, 2, 75, 67
4, 1139584, Note_on_c, 2, 79, 67
4, 1139648, Note_off_c, 2, 75, 67
4, 1139648, Note_off_c, 2, 79, 67
4, 1139648, Note_on_c, 2, 77, 67
4, 1139648, Note_on_c, 2, 80, 67
4, 1139712, Note_off_c, 2, 77, 67
4, 1139712, Note_off_c, 2, 80, 67
4, 1139712, Note_on_c, 2, 79, 67
4, 1139712, Note_on_c, 2, 82, 67
4, 1139776, Note_off_c, 2, 79, 67
4, 1139776, Note_off_c, 2, 82, 67
4, 1139840, Note_off_c, 2, 79, 67
4, 1139840, Note_off_c, 2, 82, 67
4, 1139840, Note_on_c, 2, 79, 67
4, 1139840, Note_on_c, 2, 82, 67
4, 1139904, Note_off_c, 2, 79, 67
4, 1139904, Note_off_c, 2, 82, 67
4, 1139968, Note_off_c, 2, 79, 67
4, 1139968, Note_off_c, 2, 82, 67
4, 1139968, Note_on_c, 2, 70, 67
4, 1139968, Note_on_c, 2, 79, 67
4, 1140032, Note_off_c, 2, 70, 67
4, 1140032, Note_off_c, 2, 79, 67
4, 1140096, Note_off_c, 2, 70, 67
4, 1140096, Note_off_c, 2, 79, 67
4, 1140096, Note_on_c, 2, 70, 67
4, 1140096, Note_on_c, 2, 75, 67
4, 1140160, Note_off_c, 2, 70, 67
4, 1140160, Note_off_c, 2, 75, 67
4, 1140224, Note_off_c, 2, 70, 67
4, 1140224, Note_off_c, 2, 75, 67
4, 1140224, Note_on_c, 2, 84, 67
4, 1140224, Note_on_c, 2, 87, 67
4, 1140288, Note_off_c, 2, 84, 67
4, 1140288, Note_off_c, 2, 87, 67
4, 1140352, Note_off_c, 2, 84, 67
4, 1140352, Note_off_c, 2, 87, 67
4, 1140352, Note_on_c, 2, 82, 67
4, 1140352, Note_on_c, 2, 86, 67
4, 1140416, Note_off_c, 2, 82, 67
4, 1140416, Note_off_c, 2, 86, 67
4, 1140480, Note_off_c, 2, 82, 67
4, 1140480, Note_off_c, 2, 86, 67
4, 1140480, Note_on_c, 2, 80, 67
4, 1140480, Note_on_c, 2, 84, 67
4, 1140544, Note_off_c, 2, 80, 67
4, 1140544, Note_off_c, 2, 84, 67
4, 1140608, Note_off_c, 2, 80, 67
4, 1140608, Note_off_c, 2, 84, 67
4, 1140608, Note_on_c, 2, 79, 67
4, 1140608, Note_on_c, 2, 87, 67
4, 1140672, Note_off_c, 2, 79, 67
4, 1140672, Note_off_c, 2, 87, 67
4, 1140736, Note_off_c, 2, 79, 67
4, 1140736, Note_off_c, 2, 87, 67
4, 1140736, Note_on_c, 2, 75, 67
4, 1140736, Note_on_c, 2, 82, 67
4, 1140800, Note_off_c, 2, 75, 67
4, 1140800, Note_off_c, 2, 82, 67
4, 1140864, Note_off_c, 2, 75, 67
4, 1140864, Note_off_c, 2, 82, 67
4, 1140864, Note_on_c, 2, 79, 67
4, 1140928, Note_off_c, 2, 79, 67
4, 1140992, Note_off_c, 2, 79, 67
4, 1140992, Note_on_c, 2, 67, 67
4, 1140992, Note_on_c, 2, 75, 67
4, 1141056, Note_off_c, 2, 67, 67
4, 1141056, Note_off_c, 2, 75, 67
4, 1141120, Note_off_c, 2, 67, 67
4, 1141120, Note_off_c, 2, 75, 67
4, 1141120, Note_on_c, 2, 68, 67
4, 1141120, Note_on_c, 2, 74, 67
4, 1141152, Note_off_c, 2, 68, 67
4, 1141152, Note_off_c, 2, 74, 67
4, 1141184, Note_off_c, 2, 68, 67
4, 1141184, Note_off_c, 2, 74, 67
4, 1141184, Note_on_c, 2, 74, 67
4, 1141184, Note_on_c, 2, 79, 67
4, 1141216, Note_off_c, 2, 74, 67
4, 1141216, Note_off_c, 2, 79, 67
4, 1141248, Note_off_c, 2, 74, 67
4, 1141248, Note_off_c, 2, 79, 67
4, 1141248, Note_on_c, 2, 70, 67
4, 1141248, Note_on_c, 2, 77, 67
4, 1141312, Note_off_c, 2, 70, 67
4, 1141312, Note_off_c, 2, 77, 67
4, 1141376, Note_off_c, 2, 70, 67
4, 1141376, Note_off_c, 2, 77, 67
4, 1141376, Note_on_c, 2, 65, 67
4, 1141376, Note_on_c, 2, 70, 67
4, 1141440, Note_off_c, 2, 65, 67
4, 1141440, Note_off_c, 2, 70, 67
4, 1141504, Note_off_c, 2, 65, 67
4, 1141504, Note_off_c, 2, 70, 67
4, 1141504, Note_on_c, 2, 68, 67
4, 1141504, Note_on_c, 2, 70, 67
4, 1141568, Note_off_c, 2, 68, 67
4, 1141568, Note_off_c, 2, 70, 67
4, 1141632, Note_off_c, 2, 68, 67
4, 1141632, Note_off_c, 2, 70, 67
4, 1141632, Note_on_c, 2, 70, 67
4, 1141632, Note_on_c, 2, 79, 67
4, 1141696, Note_off_c, 2, 70, 67
4, 1141696, Note_off_c, 2, 79, 67
4, 1141696, Note_on_c, 2, 77, 67
4, 1141696, Note_on_c, 2, 80, 67
4, 1141760, Note_off_c, 2, 77, 67
4, 1141760, Note_off_c, 2, 80, 67
4, 1141760, Note_on_c, 2, 79, 67
4, 1141760, Note_on_c, 2, 82, 67
4, 1141824, Note_off_c, 2, 79, 67
4, 1141824, Note_off_c, 2, 82, 67
4, 1141888, Note_off_c, 2, 79, 67
4, 1141888, Note_off_c, 2, 82, 67
4, 1141888, Note_on_c, 2, 79, 67
4, 1141888, Note_on_c, 2, 82, 67
4, 1141952, Note_off_c, 2, 79, 67
4, 1141952, Note_off_c, 2, 82, 67
4, 1142016, Note_off_c, 2, 79, 67
4, 1142016, Note_off_c, 2, 82, 67
4, 1142016, Note_on_c, 2, 70, 67
4, 1142016, Note_on_c, 2, 79, 67
4, 1142080, Note_off_c, 2, 70, 67
4, 1142080, Note_off_c, 2, 79, 67
4, 1142144, Note_off_c, 2, 70, 67
4, 1142144, Note_off_c, 2, 79, 67
4, 1142144, Note_on_c, 2, 75, 67
4, 1142144, Note_on_c, 2, 82, 67
4, 1142208, Note_off_c, 2, 75, 67
4, 1142208, Note_off_c, 2, 82, 67
4, 1142272, Note_off_c, 2, 75, 67
4, 1142272, Note_off_c, 2, 82, 67
4, 1142272, Note_on_c, 2, 84, 67
4, 1142272, Note_on_c, 2, 87, 67
4, 1142336, Note_off_c, 2, 84, 67
4, 1142336, Note_off_c, 2, 87, 67
4, 1142400, Note_off_c, 2, 84, 67
4, 1142400, Note_off_c, 2, 87, 67
4, 1142400, Note_on_c, 2, 82, 67
4, 1142400, Note_on_c, 2, 86, 67
4, 1142464, Note_off_c, 2, 82, 67
4, 1142464, Note_off_c, 2, 86, 67
4, 1142528, Note_off_c, 2, 82, 67
4, 1142528, Note_off_c, 2, 86, 67
4, 1142528, Note_on_c, 2, 80, 67
4, 1142528, Note_on_c, 2, 84, 67
4, 1142592, Note_off_c, 2, 80, 67
4, 1142592, Note_off_c, 2, 84, 67
4, 1142656, Note_off_c, 2, 80, 67
4, 1142656, Note_off_c, 2, 84, 67
4, 1142656, Note_on_c, 2, 70, 67
4, 1142656, Note_on_c, 2, 74, 67
4, 1142688, Note_off_c, 2, 70, 67
4, 1142688, Note_off_c, 2, 74, 67
4, 1142720, Note_off_c, 2, 70, 67
4, 1142720, Note_off_c, 2, 74, 67
4, 1142720, Note_on_c, 2, 77, 67
4, 1142720, Note_on_c, 2, 80, 67
4, 1142752, Note_off_c, 2, 77, 67
4, 1142752, Note_off_c, 2, 80, 67
4, 1142784, Note_off_c, 2, 77, 67
4, 1142784, Note_off_c, 2, 80, 67
4, 1142784, Note_on_c, 2, 77, 67
4, 1142784, Note_on_c, 2, 82, 67
4, 1142848, Note_off_c, 2, 77, 67
4, 1142848, Note_off_c, 2, 82, 67
4, 1142912, Note_off_c, 2, 77, 67
4, 1142912, Note_off_c, 2, 82, 67
4, 1142912, Note_on_c, 2, 80, 67
4, 1142912, Note_on_c, 2, 87, 67
4, 1142976, Note_off_c, 2, 80, 67
4, 1142976, Note_off_c, 2, 87, 67
4, 1143040, Note_off_c, 2, 80, 67
4, 1143040, Note_off_c, 2, 87, 67
4, 1143040, Note_on_c, 2, 82, 67
4, 1143040, Note_on_c, 2, 86, 67
4, 1143104, Note_off_c, 2, 82, 67
4, 1143104, Note_off_c, 2, 86, 67
4, 1143168, Note_off_c, 2, 82, 67
4, 1143168, Note_off_c, 2, 86, 67
4, 1143168, Note_on_c, 2, 80, 67
4, 1143168, Note_on_c, 2, 89, 67
4, 1143232, Note_off_c, 2, 80, 67
4, 1143232, Note_off_c, 2, 89, 67
4, 1143296, Note_off_c, 2, 80, 67
4, 1143296, Note_off_c, 2, 89, 67
4, 1143296, Note_on_c, 2, 79, 67
4, 1143296, Note_on_c, 2, 87, 67
4, 1143360, Note_off_c, 2, 79, 67
4, 1143360, Note_off_c, 2, 87, 67
4, 1143424, Note_off_c, 2, 79, 67
4, 1143424, Note_off_c, 2, 87, 67
4, 1143424, Note_on_c, 2, 70, 67
4, 1143424, Note_on_c, 2, 82, 67
4, 1143488, Note_off_c, 2, 70, 67
4, 1143488, Note_off_c, 2, 82, 67
4, 1143552, Note_off_c, 2, 70, 67
4, 1143552, Note_off_c, 2, 82, 67
4, 1143552, Note_on_c, 2, 70, 67
4, 1143552, Note_on_c, 2, 82, 67
4, 1143616, Note_off_c, 2, 70, 67
4, 1143616, Note_off_c, 2, 82, 67
4, 1143680, Note_off_c, 2, 70, 67
4, 1143680, Note_off_c, 2, 82, 67
4, 1143680, Note_on_c, 2, 75, 67
4, 1143744, Note_off_c, 2, 75, 67
4, 1143744, Note_on_c, 2, 77, 67
4, 1143808, Note_off_c, 2, 77, 67
4, 1143808, Note_on_c, 2, 79, 67
4, 1143872, Note_off_c, 2, 79, 67
4, 1143936, Note_off_c, 2, 79, 67
4, 1143936, Note_on_c, 2, 75, 67
4, 1143936, Note_on_c, 2, 79, 67
4, 1144000, Note_off_c, 2, 75, 67
4, 1144000, Note_off_c, 2, 79, 67
4, 1144064, Note_off_c, 2, 75, 67
4, 1144064, Note_off_c, 2, 79, 67
4, 1144064, Note_on_c, 2, 75, 67
4, 1144064, Note_on_c, 2, 79, 67
4, 1144128, Note_off_c, 2, 75, 67
4, 1144128, Note_off_c, 2, 79, 67
4, 1144192, Note_off_c, 2, 75, 67
4, 1144192, Note_off_c, 2, 79, 67
4, 1144192, Note_on_c, 2, 75, 67
4, 1144256, Note_off_c, 2, 75, 67
4, 1144256, Note_on_c, 2, 77, 67
4, 1144320, Note_off_c, 2, 77, 67
4, 1144320, Note_on_c, 2, 79, 67
4, 1144384, Note_off_c, 2, 79, 67
4, 1144448, Note_off_c, 2, 79, 67
4, 1144448, Note_on_c, 2, 75, 67
4, 1144448, Note_on_c, 2, 79, 67
4, 1144512, Note_off_c, 2, 75, 67
4, 1144512, Note_off_c, 2, 79, 67
4, 1144576, Note_off_c, 2, 75, 67
4, 1144576, Note_off_c, 2, 79, 67
4, 1144576, Note_on_c, 2, 75, 67
4, 1144576, Note_on_c, 2, 79, 67
4, 1144640, Note_off_c, 2, 75, 67
4, 1144640, Note_off_c, 2, 79, 67
4, 1144704, Note_off_c, 2, 75, 67
4, 1144704, Note_off_c, 2, 79, 67
4, 1144704, Note_on_c, 2, 75, 67
4, 1144768, Note_off_c, 2, 75, 67
4, 1144768, Note_on_c, 2, 77, 67
4, 1144832, Note_off_c, 2, 77, 67
4, 1144832, Note_on_c, 2, 79, 67
4, 1144896, Note_off_c, 2, 79, 67
4, 1144960, Note_off_c, 2, 79, 67
4, 1144960, Note_on_c, 2, 75, 67
4, 1144960, Note_on_c, 2, 79, 67
4, 1145024, Note_off_c, 2, 75, 67
4, 1145024, Note_off_c, 2, 79, 67
4, 1145088, Note_off_c, 2, 75, 67
4, 1145088, Note_off_c, 2, 79, 67
4, 1145088, Note_on_c, 2, 75, 67
4, 1145088, Note_on_c, 2, 80, 67
4, 1145120, Note_off_c, 2, 75, 67
4, 1145120, Note_off_c, 2, 80, 67
4, 1145152, Note_off_c, 2, 75, 67
4, 1145152, Note_off_c, 2, 80, 67
4, 1145152, Note_on_c, 2, 74, 67
4, 1145184, Note_off_c, 2, 74, 67
4, 1145216, Note_off_c, 2, 74, 67
4, 1145216, Note_on_c, 2, 72, 67
4, 1145248, Note_off_c, 2, 72, 67
4, 1145280, Note_off_c, 2, 72, 67
4, 1145280, Note_on_c, 2, 74, 67
4, 1145280, Note_on_c, 2, 79, 67
4, 1145312, Note_off_c, 2, 74, 67
4, 1145312, Note_off_c, 2, 79, 67
4, 1145344, Note_off_c, 2, 74, 67
4, 1145344, Note_off_c, 2, 79, 67
4, 1145344, Note_on_c, 2, 70, 67
4, 1145344, Note_on_c, 2, 77, 67
4, 1145408, Note_off_c, 2, 70, 67
4, 1145408, Note_off_c, 2, 77, 67
4, 1145472, Note_off_c, 2, 70, 67
4, 1145472, Note_off_c, 2, 77, 67
4, 1145472, Note_on_c, 2, 68, 67
4, 1145472, Note_on_c, 2, 70, 67
4, 1145536, Note_off_c, 2, 68, 67
4, 1145536, Note_off_c, 2, 70, 67
4, 1145600, Note_off_c, 2, 68, 67
4, 1145600, Note_off_c, 2, 70, 67
4, 1145600, Note_on_c, 2, 68, 67
4, 1145600, Note_on_c, 2, 70, 67
4, 1145664, Note_off_c, 2, 68, 67
4, 1145664, Note_off_c, 2, 70, 67
4, 1145728, Note_off_c, 2, 68, 67
4, 1145728, Note_off_c, 2, 70, 67
4, 1145728, Note_on_c, 2, 74, 67
4, 1145792, Note_off_c, 2, 74, 67
4, 1145792, Note_on_c, 2, 75, 67
4, 1145856, Note_off_c, 2, 75, 67
4, 1145856, Note_on_c, 2, 77, 67
4, 1145920, Note_off_c, 2, 77, 67
4, 1145984, Note_off_c, 2, 77, 67
4, 1145984, Note_on_c, 2, 74, 67
4, 1145984, Note_on_c, 2, 77, 67
4, 1146048, Note_off_c, 2, 74, 67
4, 1146048, Note_off_c, 2, 77, 67
4, 1146112, Note_off_c, 2, 74, 67
4, 1146112, Note_off_c, 2, 77, 67
4, 1146112, Note_on_c, 2, 74, 67
4, 1146112, Note_on_c, 2, 77, 67
4, 1146176, Note_off_c, 2, 74, 67
4, 1146176, Note_off_c, 2, 77, 67
4, 1146240, Note_off_c, 2, 74, 67
4, 1146240, Note_off_c, 2, 77, 67
4, 1146240, Note_on_c, 2, 74, 67
4, 1146304, Note_off_c, 2, 74, 67
4, 1146304, Note_on_c, 2, 75, 67
4, 1146368, Note_off_c, 2, 75, 67
4, 1146368, Note_on_c, 2, 77, 67
4, 1146432, Note_off_c, 2, 77, 67
4, 1146496, Note_off_c, 2, 77, 67
4, 1146496, Note_on_c, 2, 74, 67
4, 1146496, Note_on_c, 2, 77, 67
4, 1146560, Note_off_c, 2, 74, 67
4, 1146560, Note_off_c, 2, 77, 67
4, 1146624, Note_off_c, 2, 74, 67
4, 1146624, Note_off_c, 2, 77, 67
4, 1146624, Note_on_c, 2, 74, 67
4, 1146624, Note_on_c, 2, 77, 67
4, 1146688, Note_off_c, 2, 74, 67
4, 1146688, Note_off_c, 2, 77, 67
4, 1146752, Note_off_c, 2, 74, 67
4, 1146752, Note_off_c, 2, 77, 67
4, 1146752, Note_on_c, 2, 74, 67
4, 1146816, Note_off_c, 2, 74, 67
4, 1146816, Note_on_c, 2, 75, 67
4, 1146880, Note_off_c, 2, 75, 67
4, 1146880, Note_on_c, 2, 70, 67
4, 1146880, Note_on_c, 2, 77, 67
4, 1146944, Note_off_c, 2, 70, 67
4, 1146944, Note_off_c, 2, 77, 67
4, 1147008, Note_off_c, 2, 70, 67
4, 1147008, Note_off_c, 2, 77, 67
4, 1147008, Note_on_c, 2, 74, 67
4, 1147008, Note_on_c, 2, 77, 67
4, 1147072, Note_off_c, 2, 74, 67
4, 1147072, Note_off_c, 2, 77, 67
4, 1147136, Note_off_c, 2, 74, 67
4, 1147136, Note_off_c, 2, 77, 67
4, 1147136, Note_on_c, 2, 74, 67
4, 1147136, Note_on_c, 2, 79, 67
4, 1147168, Note_off_c, 2, 74, 67
4, 1147168, Note_off_c, 2, 79, 67
4, 1147200, Note_off_c, 2, 74, 67
4, 1147200, Note_off_c, 2, 79, 67
4, 1147200, Note_on_c, 2, 72, 67
4, 1147200, Note_on_c, 2, 77, 67
4, 1147232, Note_off_c, 2, 72, 67
4, 1147232, Note_off_c, 2, 77, 67
4, 1147264, Note_off_c, 2, 72, 67
4, 1147264, Note_off_c, 2, 77, 67
4, 1147264, Note_on_c, 2, 70, 67
4, 1147264, Note_on_c, 2, 77, 67
4, 1147296, Note_off_c, 2, 70, 67
4, 1147296, Note_off_c, 2, 77, 67
4, 1147328, Note_off_c, 2, 70, 67
4, 1147328, Note_off_c, 2, 77, 67
4, 1147328, Note_on_c, 2, 68, 67
4, 1147328, Note_on_c, 2, 79, 67
4, 1147360, Note_off_c, 2, 68, 67
4, 1147360, Note_off_c, 2, 79, 67
4, 1147392, Note_off_c, 2, 68, 67
4, 1147392, Note_off_c, 2, 79, 67
4, 1147392, Note_on_c, 2, 67, 67
4, 1147392, Note_on_c, 2, 75, 67
4, 1147456, Note_off_c, 2, 67, 67
4, 1147456, Note_off_c, 2, 75, 67
4, 1147520, Note_off_c, 2, 67, 67
4, 1147520, Note_off_c, 2, 75, 67
4, 1147520, Note_on_c, 2, 70, 67
4, 1147584, Note_off_c, 2, 70, 67
4, 1147648, Note_off_c, 2, 70, 67
4, 1147648, Note_on_c, 2, 70, 67
4, 1147648, Note_on_c, 2, 79, 67
4, 1147712, Note_off_c, 2, 70, 67
4, 1147712, Note_off_c, 2, 79, 67
4, 1147776, Note_off_c, 2, 70, 67
4, 1147776, Note_off_c, 2, 79, 67
4, 1147776, Note_on_c, 2, 75, 67
4, 1147840, Note_off_c, 2, 75, 67
4, 1147840, Note_on_c, 2, 77, 67
4, 1147904, Note_off_c, 2, 77, 67
4, 1147904, Note_on_c, 2, 79, 67
4, 1147968, Note_off_c, 2, 79, 67
4, 1148032, Note_off_c, 2, 79, 67
4, 1148032, Note_on_c, 2, 75, 67
4, 1148032, Note_on_c, 2, 79, 67
4, 1148096, Note_off_c, 2, 75, 67
4, 1148096, Note_off_c, 2, 79, 67
4, 1148160, Note_off_c, 2, 75, 67
4, 1148160, Note_off_c, 2, 79, 67
4, 1148160, Note_on_c, 2, 75, 67
4, 1148160, Note_on_c, 2, 79, 67
4, 1148224, Note_off_c, 2, 75, 67
4, 1148224, Note_off_c, 2, 79, 67
4, 1148288, Note_off_c, 2, 75, 67
4, 1148288, Note_off_c, 2, 79, 67
4, 1148288, Note_on_c, 2, 75, 67
4, 1148352, Note_off_c, 2, 75, 67
4, 1148352, Note_on_c, 2, 77, 67
4, 1148416, Note_off_c, 2, 77, 67
4, 1148416, Note_on_c, 2, 79, 67
4, 1148480, Note_off_c, 2, 79, 67
4, 1148544, Note_off_c, 2, 79, 67
4, 1148544, Note_on_c, 2, 75, 67
4, 1148544, Note_on_c, 2, 79, 67
4, 1148608, Note_off_c, 2, 75, 67
4, 1148608, Note_off_c, 2, 79, 67
4, 1148672, Note_off_c, 2, 75, 67
4, 1148672, Note_off_c, 2, 79, 67
4, 1148672, Note_on_c, 2, 75, 67
4, 1148672, Note_on_c, 2, 79, 67
4, 1148736, Note_off_c, 2, 75, 67
4, 1148736, Note_off_c, 2, 79, 67
4, 1148800, Note_off_c, 2, 75, 67
4, 1148800, Note_off_c, 2, 79, 67
4, 1148800, Note_on_c, 2, 75, 67
4, 1148864, Note_off_c, 2, 75, 67
4, 1148864, Note_on_c, 2, 77, 67
4, 1148928, Note_off_c, 2, 77, 67
4, 1148928, Note_on_c, 2, 79, 67
4, 1148992, Note_off_c, 2, 79, 67
4, 1149056, Note_off_c, 2, 79, 67
4, 1149056, Note_on_c, 2, 75, 67
4, 1149056, Note_on_c, 2, 79, 67
4, 1149120, Note_off_c, 2, 75, 67
4, 1149120, Note_off_c, 2, 79, 67
4, 1149184, Note_off_c, 2, 75, 67
4, 1149184, Note_off_c, 2, 79, 67
4, 1149184, Note_on_c, 2, 75, 67
4, 1149184, Note_on_c, 2, 80, 67
4, 1149216, Note_off_c, 2, 75, 67
4, 1149216, Note_off_c, 2, 80, 67
4, 1149248, Note_off_c, 2, 75, 67
4, 1149248, Note_off_c, 2, 80, 67
4, 1149248, Note_on_c, 2, 74, 67
4, 1149312, Note_off_c, 2, 74, 67
4, 1149312, Note_on_c, 2, 72, 67
4, 1149376, Note_off_c, 2, 72, 67
4, 1149376, Note_on_c, 2, 74, 67
4, 1149376, Note_on_c, 2, 79, 67
4, 1149408, Note_off_c, 2, 74, 67
4, 1149408, Note_off_c, 2, 79, 67
4, 1149440, Note_off_c, 2, 74, 67
4, 1149440, Note_off_c, 2, 79, 67
4, 1149440, Note_on_c, 2, 70, 67
4, 1149440, Note_on_c, 2, 77, 67
4, 1149504, Note_off_c, 2, 70, 67
4, 1149504, Note_off_c, 2, 77, 67
4, 1149568, Note_off_c, 2, 70, 67
4, 1149568, Note_off_c, 2, 77, 67
4, 1149568, Note_on_c, 2, 68, 67
4, 1149568, Note_on_c, 2, 70, 67
4, 1149632, Note_off_c, 2, 68, 67
4, 1149632, Note_off_c, 2, 70, 67
4, 1149696, Note_off_c, 2, 68, 67
4, 1149696, Note_off_c, 2, 70, 67
4, 1149696, Note_on_c, 2, 68, 67
4, 1149696, Note_on_c, 2, 70, 67
4, 1149760, Note_off_c, 2, 68, 67
4, 1149760, Note_off_c, 2, 70, 67
4, 1149824, Note_off_c, 2, 68, 67
4, 1149824, Note_off_c, 2, 70, 67
4, 1149824, Note_on_c, 2, 74, 67
4, 1149888, Note_off_c, 2, 74, 67
4, 1149888, Note_on_c, 2, 75, 67
4, 1149952, Note_off_c, 2, 75, 67
4, 1149952, Note_on_c, 2, 77, 67
4, 1150080, Note_off_c, 2, 77, 67
4, 1150080, Note_on_c, 2, 74, 67
4, 1150080, Note_on_c, 2, 80, 67
4, 1150144, Note_off_c, 2, 74, 67
4, 1150144, Note_off_c, 2, 80, 67
4, 1150208, Note_off_c, 2, 74, 67
4, 1150208, Note_off_c, 2, 80, 67
4, 1150208, Note_on_c, 2, 74, 67
4, 1150208, Note_on_c, 2, 79, 67
4, 1150272, Note_off_c, 2, 74, 67
4, 1150272, Note_off_c, 2, 79, 67
4, 1150336, Note_off_c, 2, 74, 67
4, 1150336, Note_off_c, 2, 79, 67
4, 1150336, Note_on_c, 2, 77, 67
4, 1150400, Note_off_c, 2, 77, 67
4, 1150464, Note_off_c, 2, 77, 67
4, 1150464, Note_on_c, 2, 75, 67
4, 1150528, Note_off_c, 2, 75, 67
4, 1150592, Note_off_c, 2, 75, 67
4, 1150592, Note_on_c, 2, 70, 67
4, 1150592, Note_on_c, 2, 74, 67
4, 1150656, Note_off_c, 2, 70, 67
4, 1150656, Note_off_c, 2, 74, 67
4, 1150720, Note_off_c, 2, 70, 67
4, 1150720, Note_off_c, 2, 74, 67
4, 1150720, Note_on_c, 2, 72, 67
4, 1150720, Note_on_c, 2, 74, 67
4, 1150784, Note_off_c, 2, 72, 67
4, 1150784, Note_off_c, 2, 74, 67
4, 1150848, Note_off_c, 2, 72, 67
4, 1150848, Note_off_c, 2, 74, 67
4, 1150848, Note_on_c, 2, 70, 67
4, 1150848, Note_on_c, 2, 74, 67
4, 1150912, Note_off_c, 2, 70, 67
4, 1150912, Note_off_c, 2, 74, 67
4, 1150976, Note_off_c, 2, 70, 67
4, 1150976, Note_off_c, 2, 74, 67
4, 1150976, Note_on_c, 2, 80, 67
4, 1150976, Note_on_c, 2, 84, 67
4, 1151232, Note_off_c, 2, 80, 67
4, 1151232, Note_off_c, 2, 84, 67
4, 1151232, Note_on_c, 2, 70, 67
4, 1151232, Note_on_c, 2, 74, 67
4, 1151248, Note_off_c, 2, 70, 67
4, 1151248, Note_off_c, 2, 74, 67
4, 1151264, Note_off_c, 2, 70, 67
4, 1151264, Note_off_c, 2, 74, 67
4, 1151264, Note_on_c, 2, 72, 67
4, 1151264, Note_on_c, 2, 75, 67
4, 1151280, Note_off_c, 2, 72, 67
4, 1151280, Note_off_c, 2, 75, 67
4, 1151296, Note_off_c, 2, 72, 67
4, 1151296, Note_off_c, 2, 75, 67
4, 1151296, Note_on_c, 2, 70, 67
4, 1151296, Note_on_c, 2, 74, 67
4, 1151328, Note_off_c, 2, 70, 67
4, 1151328, Note_off_c, 2, 74, 67
4, 1151360, Note_off_c, 2, 70, 67
4, 1151360, Note_off_c, 2, 74, 67
4, 1151360, Note_on_c, 2, 68, 67
4, 1151360, Note_on_c, 2, 72, 67
4, 1151392, Note_off_c, 2, 68, 67
4, 1151392, Note_off_c, 2, 72, 67
4, 1151424, Note_off_c, 2, 68, 67
4, 1151424, Note_off_c, 2, 72, 67
4, 1151424, Note_on_c, 2, 74, 67
4, 1151424, Note_on_c, 2, 77, 67
4, 1151456, Note_off_c, 2, 74, 67
4, 1151456, Note_off_c, 2, 77, 67
4, 1151488, Note_off_c, 2, 74, 67
4, 1151488, Note_off_c, 2, 77, 67
4, 1151488, Note_on_c, 2, 75, 67
4, 1151488, Note_on_c, 2, 79, 67
4, 1151616, Note_off_c, 2, 75, 67
4, 1151616, Note_off_c, 2, 79, 67
4, 1151616, Note_on_c, 2, 70, 67
4, 1151680, Note_off_c, 2, 70, 67
4, 1151744, Note_off_c, 2, 70, 67
4, 1151744, Note_on_c, 2, 70, 67
4, 1151808, Note_off_c, 2, 70, 67
4, 1151872, Note_off_c, 2, 70, 67
4, 1151872, Note_on_c, 2, 75, 67
4, 1151872, Note_on_c, 2, 79, 67
4, 1151936, Note_off_c, 2, 75, 67
4, 1151936, Note_off_c, 2, 79, 67
4, 1151936, Note_on_c, 2, 77, 67
4, 1151936, Note_on_c, 2, 80, 67
4, 1152000, Note_off_c, 2, 77, 67
4, 1152000, Note_off_c, 2, 80, 67
4, 1152000, Note_on_c, 2, 79, 67
4, 1152000, Note_on_c, 2, 82, 67
4, 1152064, Note_off_c, 2, 79, 67
4, 1152064, Note_off_c, 2, 82, 67
4, 1152128, Note_off_c, 2, 79, 67
4, 1152128, Note_off_c, 2, 82, 67
4, 1152128, Note_on_c, 2, 79, 67
4, 1152128, Note_on_c, 2, 82, 67
4, 1152192, Note_off_c, 2, 79, 67
4, 1152192, Note_off_c, 2, 82, 67
4, 1152256, Note_off_c, 2, 79, 67
4, 1152256, Note_off_c, 2, 82, 67
4, 1152256, Note_on_c, 2, 70, 67
4, 1152256, Note_on_c, 2, 79, 67
4, 1152320, Note_off_c, 2, 70, 67
4, 1152320, Note_off_c, 2, 79, 67
4, 1152384, Note_off_c, 2, 70, 67
4, 1152384, Note_off_c, 2, 79, 67
4, 1152384, Note_on_c, 2, 70, 67
4, 1152384, Note_on_c, 2, 75, 67
4, 1152448, Note_off_c, 2, 70, 67
4, 1152448, Note_off_c, 2, 75, 67
4, 1152512, Note_off_c, 2, 70, 67
4, 1152512, Note_off_c, 2, 75, 67
4, 1152512, Note_on_c, 2, 84, 67
4, 1152512, Note_on_c, 2, 87, 67
4, 1152576, Note_off_c, 2, 84, 67
4, 1152576, Note_off_c, 2, 87, 67
4, 1152640, Note_off_c, 2, 84, 67
4, 1152640, Note_off_c, 2, 87, 67
4, 1152640, Note_on_c, 2, 82, 67
4, 1152640, Note_on_c, 2, 86, 67
4, 1152704, Note_off_c, 2, 82, 67
4, 1152704, Note_off_c, 2, 86, 67
4, 1152768, Note_off_c, 2, 82, 67
4, 1152768, Note_off_c, 2, 86, 67
4, 1152768, Note_on_c, 2, 80, 67
4, 1152768, Note_on_c, 2, 84, 67
4, 1152832, Note_off_c, 2, 80, 67
4, 1152832, Note_off_c, 2, 84, 67
4, 1152896, Note_off_c, 2, 80, 67
4, 1152896, Note_off_c, 2, 84, 67
4, 1152896, Note_on_c, 2, 79, 67
4, 1152896, Note_on_c, 2, 87, 67
4, 1152960, Note_off_c, 2, 79, 67
4, 1152960, Note_off_c, 2, 87, 67
4, 1153024, Note_off_c, 2, 79, 67
4, 1153024, Note_off_c, 2, 87, 67
4, 1153024, Note_on_c, 2, 75, 67
4, 1153024, Note_on_c, 2, 82, 67
4, 1153088, Note_off_c, 2, 75, 67
4, 1153088, Note_off_c, 2, 82, 67
4, 1153152, Note_off_c, 2, 75, 67
4, 1153152, Note_off_c, 2, 82, 67
4, 1153152, Note_on_c, 2, 79, 67
4, 1153216, Note_off_c, 2, 79, 67
4, 1153280, Note_off_c, 2, 79, 67
4, 1153280, Note_on_c, 2, 67, 67
4, 1153280, Note_on_c, 2, 75, 67
4, 1153344, Note_off_c, 2, 67, 67
4, 1153344, Note_off_c, 2, 75, 67
4, 1153408, Note_off_c, 2, 67, 67
4, 1153408, Note_off_c, 2, 75, 67
4, 1153408, Note_on_c, 2, 68, 67
4, 1153408, Note_on_c, 2, 74, 67
4, 1153440, Note_off_c, 2, 68, 67
4, 1153440, Note_off_c, 2, 74, 67
4, 1153472, Note_off_c, 2, 68, 67
4, 1153472, Note_off_c, 2, 74, 67
4, 1153472, Note_on_c, 2, 74, 67
4, 1153472, Note_on_c, 2, 79, 67
4, 1153504, Note_off_c, 2, 74, 67
4, 1153504, Note_off_c, 2, 79, 67
4, 1153536, Note_off_c, 2, 74, 67
4, 1153536, Note_off_c, 2, 79, 67
4, 1153536, Note_on_c, 2, 70, 67
4, 1153536, Note_on_c, 2, 77, 67
4, 1153600, Note_off_c, 2, 70, 67
4, 1153600, Note_off_c, 2, 77, 67
4, 1153664, Note_off_c, 2, 70, 67
4, 1153664, Note_off_c, 2, 77, 67
4, 1153664, Note_on_c, 2, 65, 67
4, 1153664, Note_on_c, 2, 70, 67
4, 1153728, Note_off_c, 2, 65, 67
4, 1153728, Note_off_c, 2, 70, 67
4, 1153792, Note_off_c, 2, 65, 67
4, 1153792, Note_off_c, 2, 70, 67
4, 1153792, Note_on_c, 2, 68, 67
4, 1153792, Note_on_c, 2, 70, 67
4, 1153856, Note_off_c, 2, 68, 67
4, 1153856, Note_off_c, 2, 70, 67
4, 1153920, Note_off_c, 2, 68, 67
4, 1153920, Note_off_c, 2, 70, 67
4, 1153920, Note_on_c, 2, 70, 67
4, 1153920, Note_on_c, 2, 79, 67
4, 1153984, Note_off_c, 2, 70, 67
4, 1153984, Note_off_c, 2, 79, 67
4, 1153984, Note_on_c, 2, 77, 67
4, 1153984, Note_on_c, 2, 80, 67
4, 1154048, Note_off_c, 2, 77, 67
4, 1154048, Note_off_c, 2, 80, 67
4, 1154048, Note_on_c, 2, 79, 67
4, 1154048, Note_on_c, 2, 82, 67
4, 1154112, Note_off_c, 2, 79, 67
4, 1154112, Note_off_c, 2, 82, 67
4, 1154176, Note_off_c, 2, 79, 67
4, 1154176, Note_off_c, 2, 82, 67
4, 1154176, Note_on_c, 2, 79, 67
4, 1154176, Note_on_c, 2, 82, 67
4, 1154240, Note_off_c, 2, 79, 67
4, 1154240, Note_off_c, 2, 82, 67
4, 1154304, Note_off_c, 2, 79, 67
4, 1154304, Note_off_c, 2, 82, 67
4, 1154304, Note_on_c, 2, 70, 67
4, 1154304, Note_on_c, 2, 79, 67
4, 1154368, Note_off_c, 2, 70, 67
4, 1154368, Note_off_c, 2, 79, 67
4, 1154432, Note_off_c, 2, 70, 67
4, 1154432, Note_off_c, 2, 79, 67
4, 1154432, Note_on_c, 2, 75, 67
4, 1154432, Note_on_c, 2, 82, 67
4, 1154496, Note_off_c, 2, 75, 67
4, 1154496, Note_off_c, 2, 82, 67
4, 1154560, Note_off_c, 2, 75, 67
4, 1154560, Note_off_c, 2, 82, 67
4, 1154560, Note_on_c, 2, 84, 67
4, 1154560, Note_on_c, 2, 87, 67
4, 1154624, Note_off_c, 2, 84, 67
4, 1154624, Note_off_c, 2, 87, 67
4, 1154688, Note_off_c, 2, 84, 67
4, 1154688, Note_off_c, 2, 87, 67
4, 1154688, Note_on_c, 2, 82, 67
4, 1154688, Note_on_c, 2, 86, 67
4, 1154752, Note_off_c, 2, 82, 67
4, 1154752, Note_off_c, 2, 86, 67
4, 1154816, Note_off_c, 2, 82, 67
4, 1154816, Note_off_c, 2, 86, 67
4, 1154816, Note_on_c, 2, 80, 67
4, 1154816, Note_on_c, 2, 84, 67
4, 1154880, Note_off_c, 2, 80, 67
4, 1154880, Note_off_c, 2, 84, 67
4, 1154944, Note_off_c, 2, 80, 67
4, 1154944, Note_off_c, 2, 84, 67
4, 1154944, Note_on_c, 2, 70, 67
4, 1154944, Note_on_c, 2, 74, 67
4, 1154976, Note_off_c, 2, 70, 67
4, 1154976, Note_off_c, 2, 74, 67
4, 1155008, Note_off_c, 2, 70, 67
4, 1155008, Note_off_c, 2, 74, 67
4, 1155008, Note_on_c, 2, 77, 67
4, 1155008, Note_on_c, 2, 80, 67
4, 1155040, Note_off_c, 2, 77, 67
4, 1155040, Note_off_c, 2, 80, 67
4, 1155072, Note_off_c, 2, 77, 67
4, 1155072, Note_off_c, 2, 80, 67
4, 1155072, Note_on_c, 2, 77, 67
4, 1155072, Note_on_c, 2, 82, 67
4, 1155136, Note_off_c, 2, 77, 67
4, 1155136, Note_off_c, 2, 82, 67
4, 1155200, Note_off_c, 2, 77, 67
4, 1155200, Note_off_c, 2, 82, 67
4, 1155200, Note_on_c, 2, 80, 67
4, 1155200, Note_on_c, 2, 87, 67
4, 1155264, Note_off_c, 2, 80, 67
4, 1155264, Note_off_c, 2, 87, 67
4, 1155328, Note_off_c, 2, 80, 67
4, 1155328, Note_off_c, 2, 87, 67
4, 1155328, Note_on_c, 2, 82, 67
4, 1155328, Note_on_c, 2, 86, 67
4, 1155392, Note_off_c, 2, 82, 67
4, 1155392, Note_off_c, 2, 86, 67
4, 1155456, Note_off_c, 2, 82, 67
4, 1155456, Note_off_c, 2, 86, 67
4, 1155456, Note_on_c, 2, 80, 67
4, 1155456, Note_on_c, 2, 89, 67
4, 1155520, Note_off_c, 2, 80, 67
4, 1155520, Note_off_c, 2, 89, 67
4, 1155584, Note_off_c, 2, 80, 67
4, 1155584, Note_off_c, 2, 89, 67
4, 1155584, Note_on_c, 2, 79, 67
4, 1155584, Note_on_c, 2, 87, 67
4, 1155648, Note_off_c, 2, 79, 67
4, 1155648, Note_off_c, 2, 87, 67
4, 1155712, Note_off_c, 2, 79, 67
4, 1155712, Note_off_c, 2, 87, 67
4, 1155712, Note_on_c, 2, 70, 67
4, 1155712, Note_on_c, 2, 82, 67
4, 1155776, Note_off_c, 2, 70, 67
4, 1155776, Note_off_c, 2, 82, 67
4, 1155840, Note_off_c, 2, 70, 67
4, 1155840, Note_off_c, 2, 82, 67
4, 1155840, Note_on_c, 2, 70, 67
4, 1155840, Note_on_c, 2, 82, 67
4, 1155904, Note_off_c, 2, 70, 67
4, 1155904, Note_off_c, 2, 82, 67
4, 1155968, Note_off_c, 2, 70, 67
4, 1155968, Note_off_c, 2, 82, 67
4, 1155968, Note_on_c, 2, 75, 67
4, 1156032, Note_off_c, 2, 75, 67
4, 1156032, Note_on_c, 2, 77, 67
4, 1156096, Note_off_c, 2, 77, 67
4, 1156096, Note_on_c, 2, 79, 67
4, 1156160, Note_off_c, 2, 79, 67
4, 1156224, Note_off_c, 2, 79, 67
4, 1156224, Note_on_c, 2, 75, 67
4, 1156224, Note_on_c, 2, 79, 67
4, 1156288, Note_off_c, 2, 75, 67
4, 1156288, Note_off_c, 2, 79, 67
4, 1156352, Note_off_c, 2, 75, 67
4, 1156352, Note_off_c, 2, 79, 67
4, 1156352, Note_on_c, 2, 75, 67
4, 1156352, Note_on_c, 2, 79, 67
4, 1156416, Note_off_c, 2, 75, 67
4, 1156416, Note_off_c, 2, 79, 67
4, 1156480, Note_off_c, 2, 75, 67
4, 1156480, Note_off_c, 2, 79, 67
4, 1156480, Note_on_c, 2, 75, 67
4, 1156544, Note_off_c, 2, 75, 67
4, 1156544, Note_on_c, 2, 77, 67
4, 1156608, Note_off_c, 2, 77, 67
4, 1156608, Note_on_c, 2, 79, 67
4, 1156672, Note_off_c, 2, 79, 67
4, 1156736, Note_off_c, 2, 79, 67
4, 1156736, Note_on_c, 2, 75, 67
4, 1156736, Note_on_c, 2, 79, 67
4, 1156800, Note_off_c, 2, 75, 67
4, 1156800, Note_off_c, 2, 79, 67
4, 1156864, Note_off_c, 2, 75, 67
4, 1156864, Note_off_c, 2, 79, 67
4, 1156864, Note_on_c, 2, 75, 67
4, 1156864, Note_on_c, 2, 79, 67
4, 1156928, Note_off_c, 2, 75, 67
4, 1156928, Note_off_c, 2, 79, 67
4, 1156992, Note_off_c, 2, 75, 67
4, 1156992, Note_off_c, 2, 79, 67
4, 1156992, Note_on_c, 2, 75, 67
4, 1157056, Note_off_c, 2, 75, 67
4, 1157056, Note_on_c, 2, 77, 67
4, 1157120, Note_off_c, 2, 77, 67
4, 1157120, Note_on_c, 2, 79, 67
4, 1157184, Note_off_c, 2, 79, 67
4, 1157248, Note_off_c, 2, 79, 67
4, 1157248, Note_on_c, 2, 75, 67
4, 1157248, Note_on_c, 2, 79, 67
4, 1157312, Note_off_c, 2, 75, 67
4, 1157312, Note_off_c, 2, 79, 67
4, 1157376, Note_off_c, 2, 75, 67
4, 1157376, Note_off_c, 2, 79, 67
4, 1157376, Note_on_c, 2, 75, 67
4, 1157376, Note_on_c, 2, 80, 67
4, 1157408, Note_off_c, 2, 75, 67
4, 1157408, Note_off_c, 2, 80, 67
4, 1157440, Note_off_c, 2, 75, 67
4, 1157440, Note_off_c, 2, 80, 67
4, 1157440, Note_on_c, 2, 74, 67
4, 1157472, Note_off_c, 2, 74, 67
4, 1157504, Note_off_c, 2, 74, 67
4, 1157504, Note_on_c, 2, 72, 67
4, 1157536, Note_off_c, 2, 72, 67
4, 1157568, Note_off_c, 2, 72, 67
4, 1157568, Note_on_c, 2, 74, 67
4, 1157568, Note_on_c, 2, 79, 67
4, 1157600, Note_off_c, 2, 74, 67
4, 1157600, Note_off_c, 2, 79, 67
4, 1157632, Note_off_c, 2, 74, 67
4, 1157632, Note_off_c, 2, 79, 67
4, 1157632, Note_on_c, 2, 70, 67
4, 1157632, Note_on_c, 2, 77, 67
4, 1157696, Note_off_c, 2, 70, 67
4, 1157696, Note_off_c, 2, 77, 67
4, 1157760, Note_off_c, 2, 70, 67
4, 1157760, Note_off_c, 2, 77, 67
4, 1157760, Note_on_c, 2, 68, 67
4, 1157760, Note_on_c, 2, 70, 67
4, 1157824, Note_off_c, 2, 68, 67
4, 1157824, Note_off_c, 2, 70, 67
4, 1157888, Note_off_c, 2, 68, 67
4, 1157888, Note_off_c, 2, 70, 67
4, 1157888, Note_on_c, 2, 68, 67
4, 1157888, Note_on_c, 2, 70, 67
4, 1157952, Note_off_c, 2, 68, 67
4, 1157952, Note_off_c, 2, 70, 67
4, 1158016, Note_off_c, 2, 68, 67
4, 1158016, Note_off_c, 2, 70, 67
4, 1158016, Note_on_c, 2, 74, 67
4, 1158080, Note_off_c, 2, 74, 67
4, 1158080, Note_on_c, 2, 75, 67
4, 1158144, Note_off_c, 2, 75, 67
4, 1158144, Note_on_c, 2, 77, 67
4, 1158208, Note_off_c, 2, 77, 67
4, 1158272, Note_off_c, 2, 77, 67
4, 1158272, Note_on_c, 2, 74, 67
4, 1158272, Note_on_c, 2, 77, 67
4, 1158336, Note_off_c, 2, 74, 67
4, 1158336, Note_off_c, 2, 77, 67
4, 1158400, Note_off_c, 2, 74, 67
4, 1158400, Note_off_c, 2, 77, 67
4, 1158400, Note_on_c, 2, 74, 67
4, 1158400, Note_on_c, 2, 77, 67
4, 1158464, Note_off_c, 2, 74, 67
4, 1158464, Note_off_c, 2, 77, 67
4, 1158528, Note_off_c, 2, 74, 67
4, 1158528, Note_off_c, 2, 77, 67
4, 1158528, Note_on_c, 2, 74, 67
4, 1158592, Note_off_c, 2, 74, 67
4, 1158592, Note_on_c, 2, 75, 67
4, 1158656, Note_off_c, 2, 75, 67
4, 1158656, Note_on_c, 2, 77, 67
4, 1158720, Note_off_c, 2, 77, 67
4, 1158784, Note_off_c, 2, 77, 67
4, 1158784, Note_on_c, 2, 74, 67
4, 1158784, Note_on_c, 2, 77, 67
4, 1158848, Note_off_c, 2, 74, 67
4, 1158848, Note_off_c, 2, 77, 67
4, 1158912, Note_off_c, 2, 74, 67
4, 1158912, Note_off_c, 2, 77, 67
4, 1158912, Note_on_c, 2, 74, 67
4, 1158912, Note_on_c, 2, 77, 67
4, 1158976, Note_off_c, 2, 74, 67
4, 1158976, Note_off_c, 2, 77, 67
4, 1159040, Note_off_c, 2, 74, 67
4, 1159040, Note_off_c, 2, 77, 67
4, 1159040, Note_on_c, 2, 74, 67
4, 1159104, Note_off_c, 2, 74, 67
4, 1159104, Note_on_c, 2, 75, 67
4, 1159168, Note_off_c, 2, 75, 67
4, 1159168, Note_on_c, 2, 70, 67
4, 1159168, Note_on_c, 2, 77, 67
4, 1159232, Note_off_c, 2, 70, 67
4, 1159232, Note_off_c, 2, 77, 67
4, 1159296, Note_off_c, 2, 70, 67
4, 1159296, Note_off_c, 2, 77, 67
4, 1159296, Note_on_c, 2, 74, 67
4, 1159296, Note_on_c, 2, 77, 67
4, 1159360, Note_off_c, 2, 74, 67
4, 1159360, Note_off_c, 2, 77, 67
4, 1159424, Note_off_c, 2, 74, 67
4, 1159424, Note_off_c, 2, 77, 67
4, 1159424, Note_on_c, 2, 74, 67
4, 1159424, Note_on_c, 2, 79, 67
4, 1159456, Note_off_c, 2, 74, 67
4, 1159456, Note_off_c, 2, 79, 67
4, 1159488, Note_off_c, 2, 74, 67
4, 1159488, Note_off_c, 2, 79, 67
4, 1159488, Note_on_c, 2, 72, 67
4, 1159488, Note_on_c, 2, 77, 67
4, 1159520, Note_off_c, 2, 72, 67
4, 1159520, Note_off_c, 2, 77, 67
4, 1159552, Note_off_c, 2, 72, 67
4, 1159552, Note_off_c, 2, 77, 67
4, 1159552, Note_on_c, 2, 70, 67
4, 1159552, Note_on_c, 2, 77, 67
4, 1159584, Note_off_c, 2, 70, 67
4, 1159584, Note_off_c, 2, 77, 67
4, 1159616, Note_off_c, 2, 70, 67
4, 1159616, Note_off_c, 2, 77, 67
4, 1159616, Note_on_c, 2, 68, 67
4, 1159616, Note_on_c, 2, 79, 67
4, 1159648, Note_off_c, 2, 68, 67
4, 1159648, Note_off_c, 2, 79, 67
4, 1159680, Note_off_c, 2, 68, 67
4, 1159680, Note_off_c, 2, 79, 67
4, 1159680, Note_on_c, 2, 67, 67
4, 1159680, Note_on_c, 2, 75, 67
4, 1159744, Note_off_c, 2, 67, 67
4, 1159744, Note_off_c, 2, 75, 67
4, 1159808, Note_off_c, 2, 67, 67
4, 1159808, Note_off_c, 2, 75, 67
4, 1159808, Note_on_c, 2, 70, 67
4, 1159872, Note_off_c, 2, 70, 67
4, 1159936, Note_off_c, 2, 70, 67
4, 1159936, Note_on_c, 2, 70, 67
4, 1159936, Note_on_c, 2, 79, 67
4, 1160000, Note_off_c, 2, 70, 67
4, 1160000, Note_off_c, 2, 79, 67
4, 1160064, Note_off_c, 2, 70, 67
4, 1160064, Note_off_c, 2, 79, 67
4, 1160064, Note_on_c, 2, 75, 67
4, 1160128, Note_off_c, 2, 75, 67
4, 1160128, Note_on_c, 2, 77, 67
4, 1160192, Note_off_c, 2, 77, 67
4, 1160192, Note_on_c, 2, 79, 67
4, 1160256, Note_off_c, 2, 79, 67
4, 1160320, Note_off_c, 2, 79, 67
4, 1160320, Note_on_c, 2, 75, 67
4, 1160320, Note_on_c, 2, 79, 67
4, 1160384, Note_off_c, 2, 75, 67
4, 1160384, Note_off_c, 2, 79, 67
4, 1160448, Note_off_c, 2, 75, 67
4, 1160448, Note_off_c, 2, 79, 67
4, 1160448, Note_on_c, 2, 75, 67
4, 1160448, Note_on_c, 2, 79, 67
4, 1160512, Note_off_c, 2, 75, 67
4, 1160512, Note_off_c, 2, 79, 67
4, 1160576, Note_off_c, 2, 75, 67
4, 1160576, Note_off_c, 2, 79, 67
4, 1160576, Note_on_c, 2, 75, 67
4, 1160640, Note_off_c, 2, 75, 67
4, 1160640, Note_on_c, 2, 77, 67
4, 1160704, Note_off_c, 2, 77, 67
4, 1160704, Note_on_c, 2, 79, 67
4, 1160768, Note_off_c, 2, 79, 67
4, 1160832, Note_off_c, 2, 79, 67
4, 1160832, Note_on_c, 2, 75, 67
4, 1160832, Note_on_c, 2, 79, 67
4, 1160896, Note_off_c, 2, 75, 67
4, 1160896, Note_off_c, 2, 79, 67
4, 1160960, Note_off_c, 2, 75, 67
4, 1160960, Note_off_c, 2, 79, 67
4, 1160960, Note_on_c, 2, 75, 67
4, 1160960, Note_on_c, 2, 79, 67
4, 1161024, Note_off_c, 2, 75, 67
4, 1161024, Note_off_c, 2, 79, 67
4, 1161088, Note_off_c, 2, 75, 67
4, 1161088, Note_off_c, 2, 79, 67
4, 1161088, Note_on_c, 2, 75, 67
4, 1161152, Note_off_c, 2, 75, 67
4, 1161152, Note_on_c, 2, 77, 67
4, 1161216, Note_off_c, 2, 77, 67
4, 1161216, Note_on_c, 2, 79, 67
4, 1161280, Note_off_c, 2, 79, 67
4, 1161344, Note_off_c, 2, 79, 67
4, 1161344, Note_on_c, 2, 75, 67
4, 1161344, Note_on_c, 2, 79, 67
4, 1161408, Note_off_c, 2, 75, 67
4, 1161408, Note_off_c, 2, 79, 67
4, 1161472, Note_off_c, 2, 75, 67
4, 1161472, Note_off_c, 2, 79, 67
4, 1161472, Note_on_c, 2, 75, 67
4, 1161472, Note_on_c, 2, 80, 67
4, 1161504, Note_off_c, 2, 75, 67
4, 1161504, Note_off_c, 2, 80, 67
4, 1161536, Note_off_c, 2, 75, 67
4, 1161536, Note_off_c, 2, 80, 67
4, 1161536, Note_on_c, 2, 74, 67
4, 1161600, Note_off_c, 2, 74, 67
4, 1161600, Note_on_c, 2, 72, 67
4, 1161664, Note_off_c, 2, 72, 67
4, 1161664, Note_on_c, 2, 74, 67
4, 1161664, Note_on_c, 2, 79, 67
4, 1161696, Note_off_c, 2, 74, 67
4, 1161696, Note_off_c, 2, 79, 67
4, 1161728, Note_off_c, 2, 74, 67
4, 1161728, Note_off_c, 2, 79, 67
4, 1161728, Note_on_c, 2, 70, 67
4, 1161728, Note_on_c, 2, 77, 67
4, 1161792, Note_off_c, 2, 70, 67
4, 1161792, Note_off_c, 2, 77, 67
4, 1161856, Note_off_c, 2, 70, 67
4, 1161856, Note_off_c, 2, 77, 67
4, 1161856, Note_on_c, 2, 68, 67
4, 1161856, Note_on_c, 2, 70, 67
4, 1161920, Note_off_c, 2, 68, 67
4, 1161920, Note_off_c, 2, 70, 67
4, 1161984, Note_off_c, 2, 68, 67
4, 1161984, Note_off_c, 2, 70, 67
4, 1161984, Note_on_c, 2, 68, 67
4, 1161984, Note_on_c, 2, 70, 67
4, 1162048, Note_off_c, 2, 68, 67
4, 1162048, Note_off_c, 2, 70, 67
4, 1162112, Note_off_c, 2, 68, 67
4, 1162112, Note_off_c, 2, 70, 67
4, 1162112, Note_on_c, 2, 74, 67
4, 1162176, Note_off_c, 2, 74, 67
4, 1162176, Note_on_c, 2, 75, 67
4, 1162240, Note_off_c, 2, 75, 67
4, 1162240, Note_on_c, 2, 77, 67
4, 1162368, Note_off_c, 2, 77, 67
4, 1162368, Note_on_c, 2, 74, 67
4, 1162368, Note_on_c, 2, 80, 67
4, 1162432, Note_off_c, 2, 74, 67
4, 1162432, Note_off_c, 2, 80, 67
4, 1162496, Note_off_c, 2, 74, 67
4, 1162496, Note_off_c, 2, 80, 67
4, 1162496, Note_on_c, 2, 74, 67
4, 1162496, Note_on_c, 2, 79, 67
4, 1162560, Note_off_c, 2, 74, 67
4, 1162560, Note_off_c, 2, 79, 67
4, 1162624, Note_off_c, 2, 74, 67
4, 1162624, Note_off_c, 2, 79, 67
4, 1162624, Note_on_c, 2, 77, 67
4, 1162688, Note_off_c, 2, 77, 67
4, 1162752, Note_off_c, 2, 77, 67
4, 1162752, Note_on_c, 2, 75, 67
4, 1162816, Note_off_c, 2, 75, 67
4, 1162880, Note_off_c, 2, 75, 67
4, 1162880, Note_on_c, 2, 70, 67
4, 1162880, Note_on_c, 2, 74, 67
4, 1162944, Note_off_c, 2, 70, 67
4, 1162944, Note_off_c, 2, 74, 67
4, 1163008, Note_off_c, 2, 70, 67
4, 1163008, Note_off_c, 2, 74, 67
4, 1163008, Note_on_c, 2, 72, 67
4, 1163008, Note_on_c, 2, 74, 67
4, 1163072, Note_off_c, 2, 72, 67
4, 1163072, Note_off_c, 2, 74, 67
4, 1163136, Note_off_c, 2, 72, 67
4, 1163136, Note_off_c, 2, 74, 67
4, 1163136, Note_on_c, 2, 70, 67
4, 1163136, Note_on_c, 2, 74, 67
4, 1163200, Note_off_c, 2, 70, 67
4, 1163200, Note_off_c, 2, 74, 67
4, 1163264, Note_off_c, 2, 70, 67
4, 1163264, Note_off_c, 2, 74, 67
4, 1163264, Note_on_c, 2, 80, 67
4, 1163264, Note_on_c, 2, 84, 67
4, 1163520, Note_off_c, 2, 80, 67
4, 1163520, Note_off_c, 2, 84, 67
4, 1163520, Note_on_c, 2, 70, 67
4, 1163520, Note_on_c, 2, 74, 67
4, 1163536, Note_off_c, 2, 70, 67
4, 1163536, Note_off_c, 2, 74, 67
4, 1163552, Note_off_c, 2, 70, 67
4, 1163552, Note_off_c, 2, 74, 67
4, 1163552, Note_on_c, 2, 72, 67
4, 1163552, Note_on_c, 2, 75, 67
4, 1163568, Note_off_c, 2, 72, 67
4, 1163568, Note_off_c, 2, 75, 67
4, 1163584, Note_off_c, 2, 72, 67
4, 1163584, Note_off_c, 2, 75, 67
4, 1163584, Note_on_c, 2, 70, 67
4, 1163584, Note_on_c, 2, 74, 67
4, 1163616, Note_off_c, 2, 70, 67
4, 1163616, Note_off_c, 2, 74, 67
4, 1163648, Note_off_c, 2, 70, 67
4, 1163648, Note_off_c, 2, 74, 67
4, 1163648, Note_on_c, 2, 68, 67
4, 1163648, Note_on_c, 2, 72, 67
4, 1163680, Note_off_c, 2, 68, 67
4, 1163680, Note_off_c, 2, 72, 67
4, 1163712, Note_off_c, 2, 68, 67
4, 1163712, Note_off_c, 2, 72, 67
4, 1163712, Note_on_c, 2, 74, 67
4, 1163712, Note_on_c, 2, 77, 67
4, 1163744, Note_off_c, 2, 74, 67
4, 1163744, Note_off_c, 2, 77, 67
4, 1163776, Note_off_c, 2, 74, 67
4, 1163776, Note_off_c, 2, 77, 67
4, 1163776, Note_on_c, 2, 75, 67
4, 1163776, Note_on_c, 2, 79, 67
4, 1163904, Note_off_c, 2, 75, 67
4, 1163904, Note_off_c, 2, 79, 67
4, 1163904, Note_on_c, 2, 70, 67
4, 1163968, Note_off_c, 2, 70, 67
4, 1164032, Note_off_c, 2, 70, 67
4, 1164032, Note_on_c, 2, 70, 67
4, 1164096, Note_off_c, 2, 70, 67
4, 1164160, Note_off_c, 2, 70, 67
4, 1164160, Note_on_c, 2, 75, 67
4, 1164160, Note_on_c, 2, 79, 67
4, 1164224, Note_off_c, 2, 75, 67
4, 1164224, Note_off_c, 2, 79, 67
4, 1164224, Note_on_c, 2, 77, 67
4, 1164224, Note_on_c, 2, 80, 67
4, 1164288, Note_off_c, 2, 77, 67
4, 1164288, Note_off_c, 2, 80, 67
4, 1164288, Note_on_c, 2, 79, 67
4, 1164288, Note_on_c, 2, 82, 67
4, 1164352, Note_off_c, 2, 79, 67
4, 1164352, Note_off_c, 2, 82, 67
4, 1164416, Note_off_c, 2, 79, 67
4, 1164416, Note_off_c, 2, 82, 67
4, 1164416, Note_on_c, 2, 79, 67
4, 1164416, Note_on_c, 2, 82, 67
4, 1164480, Note_off_c, 2, 79, 67
4, 1164480, Note_off_c, 2, 82, 67
4, 1164544, Note_off_c, 2, 79, 67
4, 1164544, Note_off_c, 2, 82, 67
4, 1164544, Note_on_c, 2, 70, 67
4, 1164544, Note_on_c, 2, 79, 67
4, 1164608, Note_off_c, 2, 70, 67
4, 1164608, Note_off_c, 2, 79, 67
4, 1164672, Note_off_c, 2, 70, 67
4, 1164672, Note_off_c, 2, 79, 67
4, 1164672, Note_on_c, 2, 70, 67
4, 1164672, Note_on_c, 2, 75, 67
4, 1164736, Note_off_c, 2, 70, 67
4, 1164736, Note_off_c, 2, 75, 67
4, 1164800, Note_off_c, 2, 70, 67
4, 1164800, Note_off_c, 2, 75, 67
4, 1164800, Note_on_c, 2, 84, 67
4, 1164800, Note_on_c, 2, 87, 67
4, 1164864, Note_off_c, 2, 84, 67
4, 1164864, Note_off_c, 2, 87, 67
4, 1164928, Note_off_c, 2, 84, 67
4, 1164928, Note_off_c, 2, 87, 67
4, 1164928, Note_on_c, 2, 82, 67
4, 1164928, Note_on_c, 2, 86, 67
4, 1164992, Note_off_c, 2, 82, 67
4, 1164992, Note_off_c, 2, 86, 67
4, 1165056, Note_off_c, 2, 82, 67
4, 1165056, Note_off_c, 2, 86, 67
4, 1165056, Note_on_c, 2, 80, 67
4, 1165056, Note_on_c, 2, 84, 67
4, 1165120, Note_off_c, 2, 80, 67
4, 1165120, Note_off_c, 2, 84, 67
4, 1165184, Note_off_c, 2, 80, 67
4, 1165184, Note_off_c, 2, 84, 67
4, 1165184, Note_on_c, 2, 79, 67
4, 1165184, Note_on_c, 2, 87, 67
4, 1165248, Note_off_c, 2, 79, 67
4, 1165248, Note_off_c, 2, 87, 67
4, 1165312, Note_off_c, 2, 79, 67
4, 1165312, Note_off_c, 2, 87, 67
4, 1165312, Note_on_c, 2, 75, 67
4, 1165312, Note_on_c, 2, 82, 67
4, 1165376, Note_off_c, 2, 75, 67
4, 1165376, Note_off_c, 2, 82, 67
4, 1165440, Note_off_c, 2, 75, 67
4, 1165440, Note_off_c, 2, 82, 67
4, 1165440, Note_on_c, 2, 79, 67
4, 1165504, Note_off_c, 2, 79, 67
4, 1165568, Note_off_c, 2, 79, 67
4, 1165568, Note_on_c, 2, 67, 67
4, 1165568, Note_on_c, 2, 75, 67
4, 1165632, Note_off_c, 2, 67, 67
4, 1165632, Note_off_c, 2, 75, 67
4, 1165696, Note_off_c, 2, 67, 67
4, 1165696, Note_off_c, 2, 75, 67
4, 1165696, Note_on_c, 2, 68, 67
4, 1165696, Note_on_c, 2, 74, 67
4, 1165728, Note_off_c, 2, 68, 67
4, 1165728, Note_off_c, 2, 74, 67
4, 1165760, Note_off_c, 2, 68, 67
4, 1165760, Note_off_c, 2, 74, 67
4, 1165760, Note_on_c, 2, 74, 67
4, 1165760, Note_on_c, 2, 79, 67
4, 1165792, Note_off_c, 2, 74, 67
4, 1165792, Note_off_c, 2, 79, 67
4, 1165824, Note_off_c, 2, 74, 67
4, 1165824, Note_off_c, 2, 79, 67
4, 1165824, Note_on_c, 2, 70, 67
4, 1165824, Note_on_c, 2, 77, 67
4, 1165888, Note_off_c, 2, 70, 67
4, 1165888, Note_off_c, 2, 77, 67
4, 1165952, Note_off_c, 2, 70, 67
4, 1165952, Note_off_c, 2, 77, 67
4, 1165952, Note_on_c, 2, 65, 67
4, 1165952, Note_on_c, 2, 70, 67
4, 1166016, Note_off_c, 2, 65, 67
4, 1166016, Note_off_c, 2, 70, 67
4, 1166080, Note_off_c, 2, 65, 67
4, 1166080, Note_off_c, 2, 70, 67
4, 1166080, Note_on_c, 2, 68, 67
4, 1166080, Note_on_c, 2, 70, 67
4, 1166144, Note_off_c, 2, 68, 67
4, 1166144, Note_off_c, 2, 70, 67
4, 1166208, Note_off_c, 2, 68, 67
4, 1166208, Note_off_c, 2, 70, 67
4, 1166208, Note_on_c, 2, 70, 67
4, 1166208, Note_on_c, 2, 79, 67
4, 1166272, Note_off_c, 2, 70, 67
4, 1166272, Note_off_c, 2, 79, 67
4, 1166272, Note_on_c, 2, 77, 67
4, 1166272, Note_on_c, 2, 80, 67
4, 1166336, Note_off_c, 2, 77, 67
4, 1166336, Note_off_c, 2, 80, 67
4, 1166336, Note_on_c, 2, 79, 67
4, 1166336, Note_on_c, 2, 82, 67
4, 1166400, Note_off_c, 2, 79, 67
4, 1166400, Note_off_c, 2, 82, 67
4, 1166464, Note_off_c, 2, 79, 67
4, 1166464, Note_off_c, 2, 82, 67
4, 1166464, Note_on_c, 2, 79, 67
4, 1166464, Note_on_c, 2, 82, 67
4, 1166528, Note_off_c, 2, 79, 67
4, 1166528, Note_off_c, 2, 82, 67
4, 1166592, Note_off_c, 2, 79, 67
4, 1166592, Note_off_c, 2, 82, 67
4, 1166592, Note_on_c, 2, 70, 67
4, 1166592, Note_on_c, 2, 79, 67
4, 1166656, Note_off_c, 2, 70, 67
4, 1166656, Note_off_c, 2, 79, 67
4, 1166720, Note_off_c, 2, 70, 67
4, 1166720, Note_off_c, 2, 79, 67
4, 1166720, Note_on_c, 2, 75, 67
4, 1166720, Note_on_c, 2, 82, 67
4, 1166784, Note_off_c, 2, 75, 67
4, 1166784, Note_off_c, 2, 82, 67
4, 1166848, Note_off_c, 2, 75, 67
4, 1166848, Note_off_c, 2, 82, 67
4, 1166848, Note_on_c, 2, 84, 67
4, 1166848, Note_on_c, 2, 87, 67
4, 1166912, Note_off_c, 2, 84, 67
4, 1166912, Note_off_c, 2, 87, 67
4, 1166976, Note_off_c, 2, 84, 67
4, 1166976, Note_off_c, 2, 87, 67
4, 1166976, Note_on_c, 2, 82, 67
4, 1166976, Note_on_c, 2, 86, 67
4, 1167040, Note_off_c, 2, 82, 67
4, 1167040, Note_off_c, 2, 86, 67
4, 1167104, Note_off_c, 2, 82, 67
4, 1167104, Note_off_c, 2, 86, 67
4, 1167104, Note_on_c, 2, 80, 67
4, 1167104, Note_on_c, 2, 84, 67
4, 1167168, Note_off_c, 2, 80, 67
4, 1167168, Note_off_c, 2, 84, 67
4, 1167232, Note_off_c, 2, 80, 67
4, 1167232, Note_off_c, 2, 84, 67
4, 1167232, Note_on_c, 2, 70, 67
4, 1167232, Note_on_c, 2, 74, 67
4, 1167264, Note_off_c, 2, 70, 67
4, 1167264, Note_off_c, 2, 74, 67
4, 1167296, Note_off_c, 2, 70, 67
4, 1167296, Note_off_c, 2, 74, 67
4, 1167296, Note_on_c, 2, 77, 67
4, 1167296, Note_on_c, 2, 80, 67
4, 1167328, Note_off_c, 2, 77, 67
4, 1167328, Note_off_c, 2, 80, 67
4, 1167360, Note_off_c, 2, 77, 67
4, 1167360, Note_off_c, 2, 80, 67
4, 1167360, Note_on_c, 2, 77, 67
4, 1167360, Note_on_c, 2, 82, 67
4, 1167424, Note_off_c, 2, 77, 67
4, 1167424, Note_off_c, 2, 82, 67
4, 1167488, Note_off_c, 2, 77, 67
4, 1167488, Note_off_c, 2, 82, 67
4, 1167488, Note_on_c, 2, 80, 67
4, 1167488, Note_on_c, 2, 87, 67
4, 1167552, Note_off_c, 2, 80, 67
4, 1167552, Note_off_c, 2, 87, 67
4, 1167616, Note_off_c, 2, 80, 67
4, 1167616, Note_off_c, 2, 87, 67
4, 1167616, Note_on_c, 2, 82, 67
4, 1167616, Note_on_c, 2, 86, 67
4, 1167680, Note_off_c, 2, 82, 67
4, 1167680, Note_off_c, 2, 86, 67
4, 1167744, Note_off_c, 2, 82, 67
4, 1167744, Note_off_c, 2, 86, 67
4, 1167744, Note_on_c, 2, 80, 67
4, 1167744, Note_on_c, 2, 89, 67
4, 1167808, Note_off_c, 2, 80, 67
4, 1167808, Note_off_c, 2, 89, 67
4, 1167872, Note_off_c, 2, 80, 67
4, 1167872, Note_off_c, 2, 89, 67
4, 1167872, Note_on_c, 2, 79, 67
4, 1167872, Note_on_c, 2, 87, 67
4, 1167936, Note_off_c, 2, 79, 67
4, 1167936, Note_off_c, 2, 87, 67
4, 1168000, Note_off_c, 2, 79, 67
4, 1168000, Note_off_c, 2, 87, 67
4, 1168000, Note_on_c, 2, 70, 67
4, 1168000, Note_on_c, 2, 82, 67
4, 1168064, Note_off_c, 2, 70, 67
4, 1168064, Note_off_c, 2, 82, 67
4, 1168128, Note_off_c, 2, 70, 67
4, 1168128, Note_off_c, 2, 82, 67
4, 1168128, Note_on_c, 2, 70, 67
4, 1168128, Note_on_c, 2, 82, 67
4, 1168192, Note_off_c, 2, 70, 67
4, 1168192, Note_off_c, 2, 82, 67
4, 1168256, Note_off_c, 2, 70, 67
4, 1168256, Note_off_c, 2, 82, 67
4, 1168256, Note_on_c, 2, 75, 67
4, 1168320, Note_off_c, 2, 75, 67
4, 1168320, Note_on_c, 2, 77, 67
4, 1168384, Note_off_c, 2, 77, 67
4, 1168384, Note_on_c, 2, 79, 67
4, 1168448, Note_off_c, 2, 79, 67
4, 1168512, Note_off_c, 2, 79, 67
4, 1168512, Note_on_c, 2, 75, 67
4, 1168512, Note_on_c, 2, 79, 67
4, 1168576, Note_off_c, 2, 75, 67
4, 1168576, Note_off_c, 2, 79, 67
4, 1168640, Note_off_c, 2, 75, 67
4, 1168640, Note_off_c, 2, 79, 67
4, 1168640, Note_on_c, 2, 75, 67
4, 1168640, Note_on_c, 2, 79, 67
4, 1168704, Note_off_c, 2, 75, 67
4, 1168704, Note_off_c, 2, 79, 67
4, 1168768, Note_off_c, 2, 75, 67
4, 1168768, Note_off_c, 2, 79, 67
4, 1168768, Note_on_c, 2, 75, 67
4, 1168832, Note_off_c, 2, 75, 67
4, 1168832, Note_on_c, 2, 77, 67
4, 1168896, Note_off_c, 2, 77, 67
4, 1168896, Note_on_c, 2, 79, 67
4, 1168960, Note_off_c, 2, 79, 67
4, 1169024, Note_off_c, 2, 79, 67
4, 1169024, Note_on_c, 2, 75, 67
4, 1169024, Note_on_c, 2, 79, 67
4, 1169088, Note_off_c, 2, 75, 67
4, 1169088, Note_off_c, 2, 79, 67
4, 1169152, Note_off_c, 2, 75, 67
4, 1169152, Note_off_c, 2, 79, 67
4, 1169152, Note_on_c, 2, 75, 67
4, 1169152, Note_on_c, 2, 79, 67
4, 1169216, Note_off_c, 2, 75, 67
4, 1169216, Note_off_c, 2, 79, 67
4, 1169280, Note_off_c, 2, 75, 67
4, 1169280, Note_off_c, 2, 79, 67
4, 1169280, Note_on_c, 2, 75, 67
4, 1169344, Note_off_c, 2, 75, 67
4, 1169344, Note_on_c, 2, 77, 67
4, 1169408, Note_off_c, 2, 77, 67
4, 1169408, Note_on_c, 2, 79, 67
4, 1169472, Note_off_c, 2, 79, 67
4, 1169536, Note_off_c, 2, 79, 67
4, 1169536, Note_on_c, 2, 75, 67
4, 1169536, Note_on_c, 2, 79, 67
4, 1169600, Note_off_c, 2, 75, 67
4, 1169600, Note_off_c, 2, 79, 67
4, 1169664, Note_off_c, 2, 75, 67
4, 1169664, Note_off_c, 2, 79, 67
4, 1169664, Note_on_c, 2, 75, 67
4, 1169664, Note_on_c, 2, 80, 67
4, 1169696, Note_off_c, 2, 75, 67
4, 1169696, Note_off_c, 2, 80, 67
4, 1169728, Note_off_c, 2, 75, 67
4, 1169728, Note_off_c, 2, 80, 67
4, 1169728, Note_on_c, 2, 74, 67
4, 1169760, Note_off_c, 2, 74, 67
4, 1169792, Note_off_c, 2, 74, 67
4, 1169792, Note_on_c, 2, 72, 67
4, 1169824, Note_off_c, 2, 72, 67
4, 1169856, Note_off_c, 2, 72, 67
4, 1169856, Note_on_c, 2, 74, 67
4, 1169856, Note_on_c, 2, 79, 67
4, 1169888, Note_off_c, 2, 74, 67
4, 1169888, Note_off_c, 2, 79, 67
4, 1169920, Note_off_c, 2, 74, 67
4, 1169920, Note_off_c, 2, 79, 67
4, 1169920, Note_on_c, 2, 70, 67
4, 1169920, Note_on_c, 2, 77, 67
4, 1169984, Note_off_c, 2, 70, 67
4, 1169984, Note_off_c, 2, 77, 67
4, 1170048, Note_off_c, 2, 70, 67
4, 1170048, Note_off_c, 2, 77, 67
4, 1170048, Note_on_c, 2, 68, 67
4, 1170048, Note_on_c, 2, 70, 67
4, 1170112, Note_off_c, 2, 68, 67
4, 1170112, Note_off_c, 2, 70, 67
4, 1170176, Note_off_c, 2, 68, 67
4, 1170176, Note_off_c, 2, 70, 67
4, 1170176, Note_on_c, 2, 68, 67
4, 1170176, Note_on_c, 2, 70, 67
4, 1170240, Note_off_c, 2, 68, 67
4, 1170240, Note_off_c, 2, 70, 67
4, 1170304, Note_off_c, 2, 68, 67
4, 1170304, Note_off_c, 2, 70, 67
4, 1170304, Note_on_c, 2, 74, 67
4, 1170368, Note_off_c, 2, 74, 67
4, 1170368, Note_on_c, 2, 75, 67
4, 1170432, Note_off_c, 2, 75, 67
4, 1170432, Note_on_c, 2, 77, 67
4, 1170496, Note_off_c, 2, 77, 67
4, 1170560, Note_off_c, 2, 77, 67
4, 1170560, Note_on_c, 2, 74, 67
4, 1170560, Note_on_c, 2, 77, 67
4, 1170624, Note_off_c, 2, 74, 67
4, 1170624, Note_off_c, 2, 77, 67
4, 1170688, Note_off_c, 2, 74, 67
4, 1170688, Note_off_c, 2, 77, 67
4, 1170688, Note_on_c, 2, 74, 67
4, 1170688, Note_on_c, 2, 77, 67
4, 1170752, Note_off_c, 2, 74, 67
4, 1170752, Note_off_c, 2, 77, 67
4, 1170816, Note_off_c, 2, 74, 67
4, 1170816, Note_off_c, 2, 77, 67
4, 1170816, Note_on_c, 2, 74, 67
4, 1170880, Note_off_c, 2, 74, 67
4, 1170880, Note_on_c, 2, 75, 67
4, 1170944, Note_off_c, 2, 75, 67
4, 1170944, Note_on_c, 2, 77, 67
4, 1171008, Note_off_c, 2, 77, 67
4, 1171072, Note_off_c, 2, 77, 67
4, 1171072, Note_on_c, 2, 74, 67
4, 1171072, Note_on_c, 2, 77, 67
4, 1171136, Note_off_c, 2, 74, 67
4, 1171136, Note_off_c, 2, 77, 67
4, 1171200, Note_off_c, 2, 74, 67
4, 1171200, Note_off_c, 2, 77, 67
4, 1171200, Note_on_c, 2, 74, 67
4, 1171200, Note_on_c, 2, 77, 67
4, 1171264, Note_off_c, 2, 74, 67
4, 1171264, Note_off_c, 2, 77, 67
4, 1171328, Note_off_c, 2, 74, 67
4, 1171328, Note_off_c, 2, 77, 67
4, 1171328, Note_on_c, 2, 74, 67
4, 1171392, Note_off_c, 2, 74, 67
4, 1171392, Note_on_c, 2, 75, 67
4, 1171456, Note_off_c, 2, 75, 67
4, 1171456, Note_on_c, 2, 70, 67
4, 1171456, Note_on_c, 2, 77, 67
4, 1171520, Note_off_c, 2, 70, 67
4, 1171520, Note_off_c, 2, 77, 67
4, 1171584, Note_off_c, 2, 70, 67
4, 1171584, Note_off_c, 2, 77, 67
4, 1171584, Note_on_c, 2, 74, 67
4, 1171584, Note_on_c, 2, 77, 67
4, 1171648, Note_off_c, 2, 74, 67
4, 1171648, Note_off_c, 2, 77, 67
4, 1171712, Note_off_c, 2, 74, 67
4, 1171712, Note_off_c, 2, 77, 67
4, 1171712, Note_on_c, 2, 74, 67
4, 1171712, Note_on_c, 2, 79, 67
4, 1171744, Note_off_c, 2, 74, 67
4, 1171744, Note_off_c, 2, 79, 67
4, 1171776, Note_off_c, 2, 74, 67
4, 1171776, Note_off_c, 2, 79, 67
4, 1171776, Note_on_c, 2, 72, 67
4, 1171776, Note_on_c, 2, 77, 67
4, 1171808, Note_off_c, 2, 72, 67
4, 1171808, Note_off_c, 2, 77, 67
4, 1171840, Note_off_c, 2, 72, 67
4, 1171840, Note_off_c, 2, 77, 67
4, 1171840, Note_on_c, 2, 70, 67
4, 1171840, Note_on_c, 2, 77, 67
4, 1171872, Note_off_c, 2, 70, 67
4, 1171872, Note_off_c, 2, 77, 67
4, 1171904, Note_off_c, 2, 70, 67
4, 1171904, Note_off_c, 2, 77, 67
4, 1171904, Note_on_c, 2, 68, 67
4, 1171904, Note_on_c, 2, 79, 67
4, 1171936, Note_off_c, 2, 68, 67
4, 1171936, Note_off_c, 2, 79, 67
4, 1171968, Note_off_c, 2, 68, 67
4, 1171968, Note_off_c, 2, 79, 67
4, 1171968, Note_on_c, 2, 67, 67
4, 1171968, Note_on_c, 2, 75, 67
4, 1172032, Note_off_c, 2, 67, 67
4, 1172032, Note_off_c, 2, 75, 67
4, 1172096, Note_off_c, 2, 67, 67
4, 1172096, Note_off_c, 2, 75, 67
4, 1172096, Note_on_c, 2, 70, 67
4, 1172160, Note_off_c, 2, 70, 67
4, 1172224, Note_off_c, 2, 70, 67
4, 1172224, Note_on_c, 2, 70, 67
4, 1172224, Note_on_c, 2, 79, 67
4, 1172288, Note_off_c, 2, 70, 67
4, 1172288, Note_off_c, 2, 79, 67
4, 1172352, Note_off_c, 2, 70, 67
4, 1172352, Note_off_c, 2, 79, 67
4, 1172352, Note_on_c, 2, 75, 67
4, 1172416, Note_off_c, 2, 75, 67
4, 1172416, Note_on_c, 2, 77, 67
4, 1172480, Note_off_c, 2, 77, 67
4, 1172480, Note_on_c, 2, 79, 67
4, 1172544, Note_off_c, 2, 79, 67
4, 1172608, Note_off_c, 2, 79, 67
4, 1172608, Note_on_c, 2, 75, 67
4, 1172608, Note_on_c, 2, 79, 67
4, 1172672, Note_off_c, 2, 75, 67
4, 1172672, Note_off_c, 2, 79, 67
4, 1172736, Note_off_c, 2, 75, 67
4, 1172736, Note_off_c, 2, 79, 67
4, 1172736, Note_on_c, 2, 75, 67
4, 1172736, Note_on_c, 2, 79, 67
4, 1172800, Note_off_c, 2, 75, 67
4, 1172800, Note_off_c, 2, 79, 67
4, 1172864, Note_off_c, 2, 75, 67
4, 1172864, Note_off_c, 2, 79, 67
4, 1172864, Note_on_c, 2, 75, 67
4, 1172928, Note_off_c, 2, 75, 67
4, 1172928, Note_on_c, 2, 77, 67
4, 1172992, Note_off_c, 2, 77, 67
4, 1172992, Note_on_c, 2, 79, 67
4, 1173056, Note_off_c, 2, 79, 67
4, 1173120, Note_off_c, 2, 79, 67
4, 1173120, Note_on_c, 2, 75, 67
4, 1173120, Note_on_c, 2, 79, 67
4, 1173184, Note_off_c, 2, 75, 67
4, 1173184, Note_off_c, 2, 79, 67
4, 1173248, Note_off_c, 2, 75, 67
4, 1173248, Note_off_c, 2, 79, 67
4, 1173248, Note_on_c, 2, 75, 67
4, 1173248, Note_on_c, 2, 79, 67
4, 1173312, Note_off_c, 2, 75, 67
4, 1173312, Note_off_c, 2, 79, 67
4, 1173376, Note_off_c, 2, 75, 67
4, 1173376, Note_off_c, 2, 79, 67
4, 1173376, Note_on_c, 2, 75, 67
4, 1173440, Note_off_c, 2, 75, 67
4, 1173440, Note_on_c, 2, 77, 67
4, 1173504, Note_off_c, 2, 77, 67
4, 1173504, Note_on_c, 2, 79, 67
4, 1173568, Note_off_c, 2, 79, 67
4, 1173632, Note_off_c, 2, 79, 67
4, 1173632, Note_on_c, 2, 75, 67
4, 1173632, Note_on_c, 2, 79, 67
4, 1173696, Note_off_c, 2, 75, 67
4, 1173696, Note_off_c, 2, 79, 67
4, 1173760, Note_off_c, 2, 75, 67
4, 1173760, Note_off_c, 2, 79, 67
4, 1173760, Note_on_c, 2, 75, 67
4, 1173760, Note_on_c, 2, 80, 67
4, 1173792, Note_off_c, 2, 75, 67
4, 1173792, Note_off_c, 2, 80, 67
4, 1173824, Note_off_c, 2, 75, 67
4, 1173824, Note_off_c, 2, 80, 67
4, 1173824, Note_on_c, 2, 74, 67
4, 1173888, Note_off_c, 2, 74, 67
4, 1173888, Note_on_c, 2, 72, 67
4, 1173952, Note_off_c, 2, 72, 67
4, 1173952, Note_on_c, 2, 74, 67
4, 1173952, Note_on_c, 2, 79, 67
4, 1173984, Note_off_c, 2, 74, 67
4, 1173984, Note_off_c, 2, 79, 67
4, 1174016, Note_off_c, 2, 74, 67
4, 1174016, Note_off_c, 2, 79, 67
4, 1174016, Note_on_c, 2, 70, 67
4, 1174016, Note_on_c, 2, 77, 67
4, 1174080, Note_off_c, 2, 70, 67
4, 1174080, Note_off_c, 2, 77, 67
4, 1174144, Note_off_c, 2, 70, 67
4, 1174144, Note_off_c, 2, 77, 67
4, 1174144, Note_on_c, 2, 68, 67
4, 1174144, Note_on_c, 2, 70, 67
4, 1174208, Note_off_c, 2, 68, 67
4, 1174208, Note_off_c, 2, 70, 67
4, 1174272, Note_off_c, 2, 68, 67
4, 1174272, Note_off_c, 2, 70, 67
4, 1174272, Note_on_c, 2, 68, 67
4, 1174272, Note_on_c, 2, 70, 67
4, 1174336, Note_off_c, 2, 68, 67
4, 1174336, Note_off_c, 2, 70, 67
4, 1174400, Note_off_c, 2, 68, 67
4, 1174400, Note_off_c, 2, 70, 67
4, 1174400, Note_on_c, 2, 74, 67
4, 1174464, Note_off_c, 2, 74, 67
4, 1174464, Note_on_c, 2, 75, 67
4, 1174528, Note_off_c, 2, 75, 67
4, 1174528, Note_on_c, 2, 77, 67
4, 1174656, Note_off_c, 2, 77, 67
4, 1174656, Note_on_c, 2, 74, 67
4, 1174656, Note_on_c, 2, 80, 67
4, 1174720, Note_off_c, 2, 74, 67
4, 1174720, Note_off_c, 2, 80, 67
4, 1174784, Note_off_c, 2, 74, 67
4, 1174784, Note_off_c, 2, 80, 67
4, 1174784, Note_on_c, 2, 74, 67
4, 1174784, Note_on_c, 2, 79, 67
4, 1174848, Note_off_c, 2, 74, 67
4, 1174848, Note_off_c, 2, 79, 67
4, 1174912, Note_off_c, 2, 74, 67
4, 1174912, Note_off_c, 2, 79, 67
4, 1174912, Note_on_c, 2, 77, 67
4, 1174976, Note_off_c, 2, 77, 67
4, 1175040, Note_off_c, 2, 77, 67
4, 1175040, Note_on_c, 2, 75, 67
4, 1175104, Note_off_c, 2, 75, 67
4, 1175168, Note_off_c, 2, 75, 67
4, 1175168, Note_on_c, 2, 70, 67
4, 1175168, Note_on_c, 2, 74, 67
4, 1175232, Note_off_c, 2, 70, 67
4, 1175232, Note_off_c, 2, 74, 67
4, 1175296, Note_off_c, 2, 70, 67
4, 1175296, Note_off_c, 2, 74, 67
4, 1175296, Note_on_c, 2, 72, 67
4, 1175296, Note_on_c, 2, 74, 67
4, 1175360, Note_off_c, 2, 72, 67
4, 1175360, Note_off_c, 2, 74, 67
4, 1175424, Note_off_c, 2, 72, 67
4, 1175424, Note_off_c, 2, 74, 67
4, 1175424, Note_on_c, 2, 70, 67
4, 1175424, Note_on_c, 2, 74, 67
4, 1175488, Note_off_c, 2, 70, 67
4, 1175488, Note_off_c, 2, 74, 67
4, 1175552, Note_off_c, 2, 70, 67
4, 1175552, Note_off_c, 2, 74, 67
4, 1175552, Note_on_c, 2, 80, 67
4, 1175552, Note_on_c, 2, 84, 67
4, 1175808, Note_off_c, 2, 80, 67
4, 1175808, Note_off_c, 2, 84, 67
4, 1175808, Note_on_c, 2, 70, 67
4, 1175808, Note_on_c, 2, 74, 67
4, 1175824, Note_off_c, 2, 70, 67
4, 1175824, Note_off_c, 2, 74, 67
4, 1175840, Note_off_c, 2, 70, 67
4, 1175840, Note_off_c, 2, 74, 67
4, 1175840, Note_on_c, 2, 72, 67
4, 1175840, Note_on_c, 2, 75, 67
4, 1175856, Note_off_c, 2, 72, 67
4, 1175856, Note_off_c, 2, 75, 67
4, 1175872, Note_off_c, 2, 72, 67
4, 1175872, Note_off_c, 2, 75, 67
4, 1175872, Note_on_c, 2, 70, 67
4, 1175872, Note_on_c, 2, 74, 67
4, 1175904, Note_off_c, 2, 70, 67
4, 1175904, Note_off_c, 2, 74, 67
4, 1175936, Note_off_c, 2, 70, 67
4, 1175936, Note_off_c, 2, 74, 67
4, 1175936, Note_on_c, 2, 68, 67
4, 1175936, Note_on_c, 2, 72, 67
4, 1175968, Note_off_c, 2, 68, 67
4, 1175968, Note_off_c, 2, 72, 67
4, 1176000, Note_off_c, 2, 68, 67
4, 1176000, Note_off_c, 2, 72, 67
4, 1176000, Note_on_c, 2, 74, 67
4, 1176000, Note_on_c, 2, 77, 67
4, 1176032, Note_off_c, 2, 74, 67
4, 1176032, Note_off_c, 2, 77, 67
4, 1176064, Note_off_c, 2, 74, 67
4, 1176064, Note_off_c, 2, 77, 67
4, 1176064, Note_on_c, 2, 75, 67
4, 1176064, Note_on_c, 2, 79, 67
4, 1176192, Note_off_c, 2, 75, 67
4, 1176192, Note_off_c, 2, 79, 67
4, 1176192, Note_on_c, 2, 70, 67
4, 1176256, Note_off_c, 2, 70, 67
4, 1176320, Note_off_c, 2, 70, 67
4, 1176320, Note_on_c, 2, 70, 67
4, 1176384, Note_off_c, 2, 70, 67
4, 1176448, Note_off_c, 2, 70, 67
4, 1176448, Note_on_c, 2, 75, 67
4, 1176448, Note_on_c, 2, 79, 67
4, 1176512, Note_off_c, 2, 75, 67
4, 1176512, Note_off_c, 2, 79, 67
4, 1176512, Note_on_c, 2, 77, 67
4, 1176512, Note_on_c, 2, 80, 67
4, 1176576, Note_off_c, 2, 77, 67
4, 1176576, Note_off_c, 2, 80, 67
4, 1176576, Note_on_c, 2, 79, 67
4, 1176576, Note_on_c, 2, 82, 67
4, 1176640, Note_off_c, 2, 79, 67
4, 1176640, Note_off_c, 2, 82, 67
4, 1176704, Note_off_c, 2, 79, 67
4, 1176704, Note_off_c, 2, 82, 67
4, 1176704, Note_on_c, 2, 79, 67
4, 1176704, Note_on_c, 2, 82, 67
4, 1176768, Note_off_c, 2, 79, 67
4, 1176768, Note_off_c, 2, 82, 67
4, 1176832, Note_off_c, 2, 79, 67
4, 1176832, Note_off_c, 2, 82, 67
4, 1176832, Note_on_c, 2, 70, 67
4, 1176832, Note_on_c, 2, 79, 67
4, 1176896, Note_off_c, 2, 70, 67
4, 1176896, Note_off_c, 2, 79, 67
4, 1176960, Note_off_c, 2, 70, 67
4, 1176960, Note_off_c, 2, 79, 67
4, 1176960, Note_on_c, 2, 70, 67
4, 1176960, Note_on_c, 2, 75, 67
4, 1177024, Note_off_c, 2, 70, 67
4, 1177024, Note_off_c, 2, 75, 67
4, 1177088, Note_off_c, 2, 70, 67
4, 1177088, Note_off_c, 2, 75, 67
4, 1177088, Note_on_c, 2, 84, 67
4, 1177088, Note_on_c, 2, 87, 67
4, 1177152, Note_off_c, 2, 84, 67
4, 1177152, Note_off_c, 2, 87, 67
4, 1177216, Note_off_c, 2, 84, 67
4, 1177216, Note_off_c, 2, 87, 67
4, 1177216, Note_on_c, 2, 82, 67
4, 1177216, Note_on_c, 2, 86, 67
4, 1177280, Note_off_c, 2, 82, 67
4, 1177280, Note_off_c, 2, 86, 67
4, 1177344, Note_off_c, 2, 82, 67
4, 1177344, Note_off_c, 2, 86, 67
4, 1177344, Note_on_c, 2, 80, 67
4, 1177344, Note_on_c, 2, 84, 67
4, 1177408, Note_off_c, 2, 80, 67
4, 1177408, Note_off_c, 2, 84, 67
4, 1177472, Note_off_c, 2, 80, 67
4, 1177472, Note_off_c, 2, 84, 67
4, 1177472, Note_on_c, 2, 79, 67
4, 1177472, Note_on_c, 2, 87, 67
4, 1177536, Note_off_c, 2, 79, 67
4, 1177536, Note_off_c, 2, 87, 67
4, 1177600, Note_off_c, 2, 79, 67
4, 1177600, Note_off_c, 2, 87, 67
4, 1177600, Note_on_c, 2, 75, 67
4, 1177600, Note_on_c, 2, 82, 67
4, 1177664, Note_off_c, 2, 75, 67
4, 1177664, Note_off_c, 2, 82, 67
4, 1177728, Note_off_c, 2, 75, 67
4, 1177728, Note_off_c, 2, 82, 67
4, 1177728, Note_on_c, 2, 79, 67
4, 1177792, Note_off_c, 2, 79, 67
4, 1177856, Note_off_c, 2, 79, 67
4, 1177856, Note_on_c, 2, 67, 67
4, 1177856, Note_on_c, 2, 75, 67
4, 1177920, Note_off_c, 2, 67, 67
4, 1177920, Note_off_c, 2, 75, 67
4, 1177984, Note_off_c, 2, 67, 67
4, 1177984, Note_off_c, 2, 75, 67
4, 1177984, Note_on_c, 2, 68, 67
4, 1177984, Note_on_c, 2, 74, 67
4, 1178016, Note_off_c, 2, 68, 67
4, 1178016, Note_off_c, 2, 74, 67
4, 1178048, Note_off_c, 2, 68, 67
4, 1178048, Note_off_c, 2, 74, 67
4, 1178048, Note_on_c, 2, 74, 67
4, 1178048, Note_on_c, 2, 79, 67
4, 1178080, Note_off_c, 2, 74, 67
4, 1178080, Note_off_c, 2, 79, 67
4, 1178112, Note_off_c, 2, 74, 67
4, 1178112, Note_off_c, 2, 79, 67
4, 1178112, Note_on_c, 2, 70, 67
4, 1178112, Note_on_c, 2, 77, 67
4, 1178176, Note_off_c, 2, 70, 67
4, 1178176, Note_off_c, 2, 77, 67
4, 1178240, Note_off_c, 2, 70, 67
4, 1178240, Note_off_c, 2, 77, 67
4, 1178240, Note_on_c, 2, 65, 67
4, 1178240, Note_on_c, 2, 70, 67
4, 1178304, Note_off_c, 2, 65, 67
4, 1178304, Note_off_c, 2, 70, 67
4, 1178368, Note_off_c, 2, 65, 67
4, 1178368, Note_off_c, 2, 70, 67
4, 1178368, Note_on_c, 2, 68, 67
4, 1178368, Note_on_c, 2, 70, 67
4, 1178432, Note_off_c, 2, 68, 67
4, 1178432, Note_off_c, 2, 70, 67
4, 1178496, Note_off_c, 2, 68, 67
4, 1178496, Note_off_c, 2, 70, 67
4, 1178496, Note_on_c, 2, 70, 67
4, 1178496, Note_on_c, 2, 79, 67
4, 1178560, Note_off_c, 2, 70, 67
4, 1178560, Note_off_c, 2, 79, 67
4, 1178560, Note_on_c, 2, 77, 67
4, 1178560, Note_on_c, 2, 80, 67
4, 1178624, Note_off_c, 2, 77, 67
4, 1178624, Note_off_c, 2, 80, 67
4, 1178624, Note_on_c, 2, 79, 67
4, 1178624, Note_on_c, 2, 82, 67
4, 1178688, Note_off_c, 2, 79, 67
4, 1178688, Note_off_c, 2, 82, 67
4, 1178752, Note_off_c, 2, 79, 67
4, 1178752, Note_off_c, 2, 82, 67
4, 1178752, Note_on_c, 2, 79, 67
4, 1178752, Note_on_c, 2, 82, 67
4, 1178816, Note_off_c, 2, 79, 67
4, 1178816, Note_off_c, 2, 82, 67
4, 1178880, Note_off_c, 2, 79, 67
4, 1178880, Note_off_c, 2, 82, 67
4, 1178880, Note_on_c, 2, 70, 67
4, 1178880, Note_on_c, 2, 79, 67
4, 1178944, Note_off_c, 2, 70, 67
4, 1178944, Note_off_c, 2, 79, 67
4, 1179008, Note_off_c, 2, 70, 67
4, 1179008, Note_off_c, 2, 79, 67
4, 1179008, Note_on_c, 2, 75, 67
4, 1179008, Note_on_c, 2, 82, 67
4, 1179072, Note_off_c, 2, 75, 67
4, 1179072, Note_off_c, 2, 82, 67
4, 1179136, Note_off_c, 2, 75, 67
4, 1179136, Note_off_c, 2, 82, 67
4, 1179136, Note_on_c, 2, 84, 67
4, 1179136, Note_on_c, 2, 87, 67
4, 1179200, Note_off_c, 2, 84, 67
4, 1179200, Note_off_c, 2, 87, 67
4, 1179264, Note_off_c, 2, 84, 67
4, 1179264, Note_off_c, 2, 87, 67
4, 1179264, Note_on_c, 2, 82, 67
4, 1179264, Note_on_c, 2, 86, 67
4, 1179328, Note_off_c, 2, 82, 67
4, 1179328, Note_off_c, 2, 86, 67
4, 1179392, Note_off_c, 2, 82, 67
4, 1179392, Note_off_c, 2, 86, 67
4, 1179392, Note_on_c, 2, 80, 67
4, 1179392, Note_on_c, 2, 84, 67
4, 1179456, Note_off_c, 2, 80, 67
4, 1179456, Note_off_c, 2, 84, 67
4, 1179520, Note_off_c, 2, 80, 67
4, 1179520, Note_off_c, 2, 84, 67
4, 1179520, Note_on_c, 2, 70, 67
4, 1179520, Note_on_c, 2, 74, 67
4, 1179552, Note_off_c, 2, 70, 67
4, 1179552, Note_off_c, 2, 74, 67
4, 1179584, Note_off_c, 2, 70, 67
4, 1179584, Note_off_c, 2, 74, 67
4, 1179584, Note_on_c, 2, 77, 67
4, 1179584, Note_on_c, 2, 80, 67
4, 1179616, Note_off_c, 2, 77, 67
4, 1179616, Note_off_c, 2, 80, 67
4, 1179648, Note_off_c, 2, 77, 67
4, 1179648, Note_off_c, 2, 80, 67
4, 1179648, Note_on_c, 2, 77, 67
4, 1179648, Note_on_c, 2, 82, 67
4, 1179712, Note_off_c, 2, 77, 67
4, 1179712, Note_off_c, 2, 82, 67
4, 1179776, Note_off_c, 2, 77, 67
4, 1179776, Note_off_c, 2, 82, 67
4, 1179776, Note_on_c, 2, 80, 67
4, 1179776, Note_on_c, 2, 87, 67
4, 1179840, Note_off_c, 2, 80, 67
4, 1179840, Note_off_c, 2, 87, 67
4, 1179904, Note_off_c, 2, 80, 67
4, 1179904, Note_off_c, 2, 87, 67
4, 1179904, Note_on_c, 2, 82, 67
4, 1179904, Note_on_c, 2, 86, 67
4, 1179968, Note_off_c, 2, 82, 67
4, 1179968, Note_off_c, 2, 86, 67
4, 1180032, Note_off_c, 2, 82, 67
4, 1180032, Note_off_c, 2, 86, 67
4, 1180032, Note_on_c, 2, 80, 67
4, 1180032, Note_on_c, 2, 89, 67
4, 1180096, Note_off_c, 2, 80, 67
4, 1180096, Note_off_c, 2, 89, 67
4, 1180160, Note_off_c, 2, 80, 67
4, 1180160, Note_off_c, 2, 89, 67
4, 1180160, Note_on_c, 2, 79, 67
4, 1180160, Note_on_c, 2, 87, 67
4, 1180224, Note_off_c, 2, 79, 67
4, 1180224, Note_off_c, 2, 87, 67
4, 1180288, Note_off_c, 2, 79, 67
4, 1180288, Note_off_c, 2, 87, 67
4, 1180288, Note_on_c, 2, 70, 67
4, 1180288, Note_on_c, 2, 82, 67
4, 1180352, Note_off_c, 2, 70, 67
4, 1180352, Note_off_c, 2, 82, 67
4, 1180416, Note_off_c, 2, 70, 67
4, 1180416, Note_off_c, 2, 82, 67
4, 1180416, Note_on_c, 2, 70, 67
4, 1180416, Note_on_c, 2, 82, 67
4, 1180480, Note_off_c, 2, 70, 67
4, 1180480, Note_off_c, 2, 82, 67
4, 1180544, Note_off_c, 2, 70, 67
4, 1180544, Note_off_c, 2, 82, 67
4, 1180544, Note_on_c, 2, 75, 67
4, 1180608, Note_off_c, 2, 75, 67
4, 1180608, Note_on_c, 2, 77, 67
4, 1180672, Note_off_c, 2, 77, 67
4, 1180672, Note_on_c, 2, 79, 67
4, 1180736, Note_off_c, 2, 79, 67
4, 1180800, Note_off_c, 2, 79, 67
4, 1180800, Note_on_c, 2, 75, 67
4, 1180800, Note_on_c, 2, 79, 67
4, 1180864, Note_off_c, 2, 75, 67
4, 1180864, Note_off_c, 2, 79, 67
4, 1180928, Note_off_c, 2, 75, 67
4, 1180928, Note_off_c, 2, 79, 67
4, 1180928, Note_on_c, 2, 75, 67
4, 1180928, Note_on_c, 2, 79, 67
4, 1180992, Note_off_c, 2, 75, 67
4, 1180992, Note_off_c, 2, 79, 67
4, 1181056, Note_off_c, 2, 75, 67
4, 1181056, Note_off_c, 2, 79, 67
4, 1181056, Note_on_c, 2, 75, 67
4, 1181120, Note_off_c, 2, 75, 67
4, 1181120, Note_on_c, 2, 77, 67
4, 1181184, Note_off_c, 2, 77, 67
4, 1181184, Note_on_c, 2, 79, 67
4, 1181248, Note_off_c, 2, 79, 67
4, 1181312, Note_off_c, 2, 79, 67
4, 1181312, Note_on_c, 2, 75, 67
4, 1181312, Note_on_c, 2, 79, 67
4, 1181376, Note_off_c, 2, 75, 67
4, 1181376, Note_off_c, 2, 79, 67
4, 1181440, Note_off_c, 2, 75, 67
4, 1181440, Note_off_c, 2, 79, 67
4, 1181440, Note_on_c, 2, 75, 67
4, 1181440, Note_on_c, 2, 79, 67
4, 1181504, Note_off_c, 2, 75, 67
4, 1181504, Note_off_c, 2, 79, 67
4, 1181568, Note_off_c, 2, 75, 67
4, 1181568, Note_off_c, 2, 79, 67
4, 1181568, Note_on_c, 2, 75, 67
4, 1181632, Note_off_c, 2, 75, 67
4, 1181632, Note_on_c, 2, 77, 67
4, 1181696, Note_off_c, 2, 77, 67
4, 1181696, Note_on_c, 2, 79, 67
4, 1181760, Note_off_c, 2, 79, 67
4, 1181824, Note_off_c, 2, 79, 67
4, 1181824, Note_on_c, 2, 75, 67
4, 1181824, Note_on_c, 2, 79, 67
4, 1181888, Note_off_c, 2, 75, 67
4, 1181888, Note_off_c, 2, 79, 67
4, 1181952, Note_off_c, 2, 75, 67
4, 1181952, Note_off_c, 2, 79, 67
4, 1181952, Note_on_c, 2, 75, 67
4, 1181952, Note_on_c, 2, 80, 67
4, 1181984, Note_off_c, 2, 75, 67
4, 1181984, Note_off_c, 2, 80, 67
4, 1182016, Note_off_c, 2, 75, 67
4, 1182016, Note_off_c, 2, 80, 67
4, 1182016, Note_on_c, 2, 74, 67
4, 1182048, Note_off_c, 2, 74, 67
4, 1182080, Note_off_c, 2, 74, 67
4, 1182080, Note_on_c, 2, 72, 67
4, 1182112, Note_off_c, 2, 72, 67
4, 1182144, Note_off_c, 2, 72, 67
4, 1182144, Note_on_c, 2, 74, 67
4, 1182144, Note_on_c, 2, 79, 67
4, 1182176, Note_off_c, 2, 74, 67
4, 1182176, Note_off_c, 2, 79, 67
4, 1182208, Note_off_c, 2, 74, 67
4, 1182208, Note_off_c, 2, 79, 67
4, 1182208, Note_on_c, 2, 70, 67
4, 1182208, Note_on_c, 2, 77, 67
4, 1182272, Note_off_c, 2, 70, 67
4, 1182272, Note_off_c, 2, 77, 67
4, 1182336, Note_off_c, 2, 70, 67
4, 1182336, Note_off_c, 2, 77, 67
4, 1182336, Note_on_c, 2, 68, 67
4, 1182336, Note_on_c, 2, 70, 67
4, 1182400, Note_off_c, 2, 68, 67
4, 1182400, Note_off_c, 2, 70, 67
4, 1182464, Note_off_c, 2, 68, 67
4, 1182464, Note_off_c, 2, 70, 67
4, 1182464, Note_on_c, 2, 68, 67
4, 1182464, Note_on_c, 2, 70, 67
4, 1182528, Note_off_c, 2, 68, 67
4, 1182528, Note_off_c, 2, 70, 67
4, 1182592, Note_off_c, 2, 68, 67
4, 1182592, Note_off_c, 2, 70, 67
4, 1182592, Note_on_c, 2, 74, 67
4, 1182656, Note_off_c, 2, 74, 67
4, 1182656, Note_on_c, 2, 75, 67
4, 1182720, Note_off_c, 2, 75, 67
4, 1182720, Note_on_c, 2, 77, 67
4, 1182784, Note_off_c, 2, 77, 67
4, 1182848, Note_off_c, 2, 77, 67
4, 1182848, Note_on_c, 2, 74, 67
4, 1182848, Note_on_c, 2, 77, 67
4, 1182912, Note_off_c, 2, 74, 67
4, 1182912, Note_off_c, 2, 77, 67
4, 1182976, Note_off_c, 2, 74, 67
4, 1182976, Note_off_c, 2, 77, 67
4, 1182976, Note_on_c, 2, 74, 67
4, 1182976, Note_on_c, 2, 77, 67
4, 1183040, Note_off_c, 2, 74, 67
4, 1183040, Note_off_c, 2, 77, 67
4, 1183104, Note_off_c, 2, 74, 67
4, 1183104, Note_off_c, 2, 77, 67
4, 1183104, Note_on_c, 2, 74, 67
4, 1183168, Note_off_c, 2, 74, 67
4, 1183168, Note_on_c, 2, 75, 67
4, 1183232, Note_off_c, 2, 75, 67
4, 1183232, Note_on_c, 2, 77, 67
4, 1183296, Note_off_c, 2, 77, 67
4, 1183360, Note_off_c, 2, 77, 67
4, 1183360, Note_on_c, 2, 74, 67
4, 1183360, Note_on_c, 2, 77, 67
4, 1183424, Note_off_c, 2, 74, 67
4, 1183424, Note_off_c, 2, 77, 67
4, 1183488, Note_off_c, 2, 74, 67
4, 1183488, Note_off_c, 2, 77, 67
4, 1183488, Note_on_c, 2, 74, 67
4, 1183488, Note_on_c, 2, 77, 67
4, 1183552, Note_off_c, 2, 74, 67
4, 1183552, Note_off_c, 2, 77, 67
4, 1183616, Note_off_c, 2, 74, 67
4, 1183616, Note_off_c, 2, 77, 67
4, 1183616, Note_on_c, 2, 74, 67
4, 1183680, Note_off_c, 2, 74, 67
4, 1183680, Note_on_c, 2, 75, 67
4, 1183744, Note_off_c, 2, 75, 67
4, 1183744, Note_on_c, 2, 70, 67
4, 1183744, Note_on_c, 2, 77, 67
4, 1183808, Note_off_c, 2, 70, 67
4, 1183808, Note_off_c, 2, 77, 67
4, 1183872, Note_off_c, 2, 70, 67
4, 1183872, Note_off_c, 2, 77, 67
4, 1183872, Note_on_c, 2, 74, 67
4, 1183872, Note_on_c, 2, 77, 67
4, 1183936, Note_off_c, 2, 74, 67
4, 1183936, Note_off_c, 2, 77, 67
4, 1184000, Note_off_c, 2, 74, 67
4, 1184000, Note_off_c, 2, 77, 67
4, 1184000, Note_on_c, 2, 74, 67
4, 1184000, Note_on_c, 2, 79, 67
4, 1184032, Note_off_c, 2, 74, 67
4, 1184032, Note_off_c, 2, 79, 67
4, 1184064, Note_off_c, 2, 74, 67
4, 1184064, Note_off_c, 2, 79, 67
4, 1184064, Note_on_c, 2, 72, 67
4, 1184064, Note_on_c, 2, 77, 67
4, 1184096, Note_off_c, 2, 72, 67
4, 1184096, Note_off_c, 2, 77, 67
4, 1184128, Note_off_c, 2, 72, 67
4, 1184128, Note_off_c, 2, 77, 67
4, 1184128, Note_on_c, 2, 70, 67
4, 1184128, Note_on_c, 2, 77, 67
4, 1184160, Note_off_c, 2, 70, 67
4, 1184160, Note_off_c, 2, 77, 67
4, 1184192, Note_off_c, 2, 70, 67
4, 1184192, Note_off_c, 2, 77, 67
4, 1184192, Note_on_c, 2, 68, 67
4, 1184192, Note_on_c, 2, 79, 67
4, 1184224, Note_off_c, 2, 68, 67
4, 1184224, Note_off_c, 2, 79, 67
4, 1184256, Note_off_c, 2, 68, 67
4, 1184256, Note_off_c, 2, 79, 67
4, 1184256, Note_on_c, 2, 67, 67
4, 1184256, Note_on_c, 2, 75, 67
4, 1184320, Note_off_c, 2, 67, 67
4, 1184320, Note_off_c, 2, 75, 67
4, 1184384, Note_off_c, 2, 67, 67
4, 1184384, Note_off_c, 2, 75, 67
4, 1184384, Note_on_c, 2, 70, 67
4, 1184448, Note_off_c, 2, 70, 67
4, 1184512, Note_off_c, 2, 70, 67
4, 1184512, Note_on_c, 2, 70, 67
4, 1184512, Note_on_c, 2, 79, 67
4, 1184576, Note_off_c, 2, 70, 67
4, 1184576, Note_off_c, 2, 79, 67
4, 1184640, Note_off_c, 2, 70, 67
4, 1184640, Note_off_c, 2, 79, 67
4, 1184640, Note_on_c, 2, 75, 67
4, 1184704, Note_off_c, 2, 75, 67
4, 1184704, Note_on_c, 2, 77, 67
4, 1184768, Note_off_c, 2, 77, 67
4, 1184768, Note_on_c, 2, 79, 67
4, 1184832, Note_off_c, 2, 79, 67
4, 1184896, Note_off_c, 2, 79, 67
4, 1184896, Note_on_c, 2, 75, 67
4, 1184896, Note_on_c, 2, 79, 67
4, 1184960, Note_off_c, 2, 75, 67
4, 1184960, Note_off_c, 2, 79, 67
4, 1185024, Note_off_c, 2, 75, 67
4, 1185024, Note_off_c, 2, 79, 67
4, 1185024, Note_on_c, 2, 75, 67
4, 1185024, Note_on_c, 2, 79, 67
4, 1185088, Note_off_c, 2, 75, 67
4, 1185088, Note_off_c, 2, 79, 67
4, 1185152, Note_off_c, 2, 75, 67
4, 1185152, Note_off_c, 2, 79, 67
4, 1185152, Note_on_c, 2, 75, 67
4, 1185216, Note_off_c, 2, 75, 67
4, 1185216, Note_on_c, 2, 77, 67
4, 1185280, Note_off_c, 2, 77, 67
4, 1185280, Note_on_c, 2, 79, 67
4, 1185344, Note_off_c, 2, 79, 67
4, 1185408, Note_off_c, 2, 79, 67
4, 1185408, Note_on_c, 2, 75, 67
4, 1185408, Note_on_c, 2, 79, 67
4, 1185472, Note_off_c, 2, 75, 67
4, 1185472, Note_off_c, 2, 79, 67
4, 1185536, Note_off_c, 2, 75, 67
4, 1185536, Note_off_c, 2, 79, 67
4, 1185536, Note_on_c, 2, 75, 67
4, 1185536, Note_on_c, 2, 79, 67
4, 1185600, Note_off_c, 2, 75, 67
4, 1185600, Note_off_c, 2, 79, 67
4, 1185664, Note_off_c, 2, 75, 67
4, 1185664, Note_off_c, 2, 79, 67
4, 1185664, Note_on_c, 2, 75, 67
4, 1185728, Note_off_c, 2, 75, 67
4, 1185728, Note_on_c, 2, 77, 67
4, 1185792, Note_off_c, 2, 77, 67
4, 1185792, Note_on_c, 2, 79, 67
4, 1185856, Note_off_c, 2, 79, 67
4, 1185920, Note_off_c, 2, 79, 67
4, 1185920, Note_on_c, 2, 75, 67
4, 1185920, Note_on_c, 2, 79, 67
4, 1185984, Note_off_c, 2, 75, 67
4, 1185984, Note_off_c, 2, 79, 67
4, 1186048, Note_off_c, 2, 75, 67
4, 1186048, Note_off_c, 2, 79, 67
4, 1186048, Note_on_c, 2, 75, 67
4, 1186048, Note_on_c, 2, 80, 67
4, 1186080, Note_off_c, 2, 75, 67
4, 1186080, Note_off_c, 2, 80, 67
4, 1186112, Note_off_c, 2, 75, 67
4, 1186112, Note_off_c, 2, 80, 67
4, 1186112, Note_on_c, 2, 74, 67
4, 1186176, Note_off_c, 2, 74, 67
4, 1186176, Note_on_c, 2, 72, 67
4, 1186240, Note_off_c, 2, 72, 67
4, 1186240, Note_on_c, 2, 74, 67
4, 1186240, Note_on_c, 2, 79, 67
4, 1186272, Note_off_c, 2, 74, 67
4, 1186272, Note_off_c, 2, 79, 67
4, 1186304, Note_off_c, 2, 74, 67
4, 1186304, Note_off_c, 2, 79, 67
4, 1186304, Note_on_c, 2, 70, 67
4, 1186304, Note_on_c, 2, 77, 67
4, 1186368, Note_off_c, 2, 70, 67
4, 1186368, Note_off_c, 2, 77, 67
4, 1186432, Note_off_c, 2, 70, 67
4, 1186432, Note_off_c, 2, 77, 67
4, 1186432, Note_on_c, 2, 68, 67
4, 1186432, Note_on_c, 2, 70, 67
4, 1186496, Note_off_c, 2, 68, 67
4, 1186496, Note_off_c, 2, 70, 67
4, 1186560, Note_off_c, 2, 68, 67
4, 1186560, Note_off_c, 2, 70, 67
4, 1186560, Note_on_c, 2, 68, 67
4, 1186560, Note_on_c, 2, 70, 67
4, 1186624, Note_off_c, 2, 68, 67
4, 1186624, Note_off_c, 2, 70, 67
4, 1186688, Note_off_c, 2, 68, 67
4, 1186688, Note_off_c, 2, 70, 67
4, 1186688, Note_on_c, 2, 74, 67
4, 1186752, Note_off_c, 2, 74, 67
4, 1186752, Note_on_c, 2, 75, 67
4, 1186816, Note_off_c, 2, 75, 67
4, 1186816, Note_on_c, 2, 77, 67
4, 1186944, Note_off_c, 2, 77, 67
4, 1186944, Note_on_c, 2, 74, 67
4, 1186944, Note_on_c, 2, 80, 67
4, 1187008, Note_off_c, 2, 74, 67
4, 1187008, Note_off_c, 2, 80, 67
4, 1187072, Note_off_c, 2, 74, 67
4, 1187072, Note_off_c, 2, 80, 67
4, 1187072, Note_on_c, 2, 74, 67
4, 1187072, Note_on_c, 2, 79, 67
4, 1187136, Note_off_c, 2, 74, 67
4, 1187136, Note_off_c, 2, 79, 67
4, 1187200, Note_off_c, 2, 74, 67
4, 1187200, Note_off_c, 2, 79, 67
4, 1187200, Note_on_c, 2, 77, 67
4, 1187264, Note_off_c, 2, 77, 67
4, 1187328, Note_off_c, 2, 77, 67
4, 1187328, Note_on_c, 2, 75, 67
4, 1187392, Note_off_c, 2, 75, 67
4, 1187456, Note_off_c, 2, 75, 67
4, 1187456, Note_on_c, 2, 70, 67
4, 1187456, Note_on_c, 2, 74, 67
4, 1187520, Note_off_c, 2, 70, 67
4, 1187520, Note_off_c, 2, 74, 67
4, 1187584, Note_off_c, 2, 70, 67
4, 1187584, Note_off_c, 2, 74, 67
4, 1187584, Note_on_c, 2, 72, 67
4, 1187584, Note_on_c, 2, 74, 67
4, 1187648, Note_off_c, 2, 72, 67
4, 1187648, Note_off_c, 2, 74, 67
4, 1187712, Note_off_c, 2, 72, 67
4, 1187712, Note_off_c, 2, 74, 67
4, 1187712, Note_on_c, 2, 70, 67
4, 1187712, Note_on_c, 2, 74, 67
4, 1187776, Note_off_c, 2, 70, 67
4, 1187776, Note_off_c, 2, 74, 67
4, 1187840, Note_off_c, 2, 70, 67
4, 1187840, Note_off_c, 2, 74, 67
4, 1187840, Note_on_c, 2, 80, 67
4, 1187840, Note_on_c, 2, 84, 67
4, 1188096, Note_off_c, 2, 80, 67
4, 1188096, Note_off_c, 2, 84, 67
4, 1188096, Note_on_c, 2, 70, 67
4, 1188096, Note_on_c, 2, 74, 67
4, 1188112, Note_off_c, 2, 70, 67
4, 1188112, Note_off_c, 2, 74, 67
4, 1188128, Note_off_c, 2, 70, 67
4, 1188128, Note_off_c, 2, 74, 67
4, 1188128, Note_on_c, 2, 72, 67
4, 1188128, Note_on_c, 2, 75, 67
4, 1188144, Note_off_c, 2, 72, 67
4, 1188144, Note_off_c, 2, 75, 67
4, 1188160, Note_off_c, 2, 72, 67
4, 1188160, Note_off_c, 2, 75, 67
4, 1188160, Note_on_c, 2, 70, 67
4, 1188160, Note_on_c, 2, 74, 67
4, 1188192, Note_off_c, 2, 70, 67
4, 1188192, Note_off_c, 2, 74, 67
4, 1188224, Note_off_c, 2, 70, 67
4, 1188224, Note_off_c, 2, 74, 67
4, 1188224, Note_on_c, 2, 68, 67
4, 1188224, Note_on_c, 2, 72, 67
4, 1188256, Note_off_c, 2, 68, 67
4, 1188256, Note_off_c, 2, 72, 67
4, 1188288, Note_off_c, 2, 68, 67
4, 1188288, Note_off_c, 2, 72, 67
4, 1188288, Note_on_c, 2, 74, 67
4, 1188288, Note_on_c, 2, 77, 67
4, 1188320, Note_off_c, 2, 74, 67
4, 1188320, Note_off_c, 2, 77, 67
4, 1188352, Note_off_c, 2, 74, 67
4, 1188352, Note_off_c, 2, 77, 67
4, 1188352, Note_on_c, 2, 75, 67
4, 1188352, Note_on_c, 2, 79, 67
4, 1188480, Note_off_c, 2, 75, 67
4, 1188480, Note_off_c, 2, 79, 67
4, 1188480, Note_on_c, 2, 70, 67
4, 1188544, Note_off_c, 2, 70, 67
4, 1188608, Note_off_c, 2, 70, 67
4, 1188608, Note_on_c, 2, 70, 67
4, 1188672, Note_off_c, 2, 70, 67
4, 1188736, Note_off_c, 2, 70, 67
4, 1188736, Note_on_c, 2, 75, 67
4, 1188736, Note_on_c, 2, 79, 67
4, 1188800, Note_off_c, 2, 75, 67
4, 1188800, Note_off_c, 2, 79, 67
4, 1188800, Note_on_c, 2, 77, 67
4, 1188800, Note_on_c, 2, 80, 67
4, 1188864, Note_off_c, 2, 77, 67
4, 1188864, Note_off_c, 2, 80, 67
4, 1188864, Note_on_c, 2, 79, 67
4, 1188864, Note_on_c, 2, 82, 67
4, 1188928, Note_off_c, 2, 79, 67
4, 1188928, Note_off_c, 2, 82, 67
4, 1188992, Note_off_c, 2, 79, 67
4, 1188992, Note_off_c, 2, 82, 67
4, 1188992, Note_on_c, 2, 79, 67
4, 1188992, Note_on_c, 2, 82, 67
4, 1189056, Note_off_c, 2, 79, 67
4, 1189056, Note_off_c, 2, 82, 67
4, 1189120, Note_off_c, 2, 79, 67
4, 1189120, Note_off_c, 2, 82, 67
4, 1189120, Note_on_c, 2, 70, 67
4, 1189120, Note_on_c, 2, 79, 67
4, 1189184, Note_off_c, 2, 70, 67
4, 1189184, Note_off_c, 2, 79, 67
4, 1189248, Note_off_c, 2, 70, 67
4, 1189248, Note_off_c, 2, 79, 67
4, 1189248, Note_on_c, 2, 70, 67
4, 1189248, Note_on_c, 2, 75, 67
4, 1189312, Note_off_c, 2, 70, 67
4, 1189312, Note_off_c, 2, 75, 67
4, 1189376, Note_off_c, 2, 70, 67
4, 1189376, Note_off_c, 2, 75, 67
4, 1189376, Note_on_c, 2, 84, 67
4, 1189376, Note_on_c, 2, 87, 67
4, 1189440, Note_off_c, 2, 84, 67
4, 1189440, Note_off_c, 2, 87, 67
4, 1189504, Note_off_c, 2, 84, 67
4, 1189504, Note_off_c, 2, 87, 67
4, 1189504, Note_on_c, 2, 82, 67
4, 1189504, Note_on_c, 2, 86, 67
4, 1189568, Note_off_c, 2, 82, 67
4, 1189568, Note_off_c, 2, 86, 67
4, 1189632, Note_off_c, 2, 82, 67
4, 1189632, Note_off_c, 2, 86, 67
4, 1189632, Note_on_c, 2, 80, 67
4, 1189632, Note_on_c, 2, 84, 67
4, 1189696, Note_off_c, 2, 80, 67
4, 1189696, Note_off_c, 2, 84, 67
4, 1189760, Note_off_c, 2, 80, 67
4, 1189760, Note_off_c, 2, 84, 67
4, 1189760, Note_on_c, 2, 79, 67
4, 1189760, Note_on_c, 2, 87, 67
4, 1189824, Note_off_c, 2, 79, 67
4, 1189824, Note_off_c, 2, 87, 67
4, 1189888, Note_off_c, 2, 79, 67
4, 1189888, Note_off_c, 2, 87, 67
4, 1189888, Note_on_c, 2, 75, 67
4, 1189888, Note_on_c, 2, 82, 67
4, 1189952, Note_off_c, 2, 75, 67
4, 1189952, Note_off_c, 2, 82, 67
4, 1190016, Note_off_c, 2, 75, 67
4, 1190016, Note_off_c, 2, 82, 67
4, 1190016, Note_on_c, 2, 79, 67
4, 1190080, Note_off_c, 2, 79, 67
4, 1190144, Note_off_c, 2, 79, 67
4, 1190144, Note_on_c, 2, 67, 67
4, 1190144, Note_on_c, 2, 75, 67
4, 1190208, Note_off_c, 2, 67, 67
4, 1190208, Note_off_c, 2, 75, 67
4, 1190272, Note_off_c, 2, 67, 67
4, 1190272, Note_off_c, 2, 75, 67
4, 1190272, Note_on_c, 2, 68, 67
4, 1190272, Note_on_c, 2, 74, 67
4, 1190304, Note_off_c, 2, 68, 67
4, 1190304, Note_off_c, 2, 74, 67
4, 1190336, Note_off_c, 2, 68, 67
4, 1190336, Note_off_c, 2, 74, 67
4, 1190336, Note_on_c, 2, 74, 67
4, 1190336, Note_on_c, 2, 79, 67
4, 1190368, Note_off_c, 2, 74, 67
4, 1190368, Note_off_c, 2, 79, 67
4, 1190400, Note_off_c, 2, 74, 67
4, 1190400, Note_off_c, 2, 79, 67
4, 1190400, Note_on_c, 2, 70, 67
4, 1190400, Note_on_c, 2, 77, 67
4, 1190464, Note_off_c, 2, 70, 67
4, 1190464, Note_off_c, 2, 77, 67
4, 1190528, Note_off_c, 2, 70, 67
4, 1190528, Note_off_c, 2, 77, 67
4, 1190528, Note_on_c, 2, 65, 67
4, 1190528, Note_on_c, 2, 70, 67
4, 1190592, Note_off_c, 2, 65, 67
4, 1190592, Note_off_c, 2, 70, 67
4, 1190656, Note_off_c, 2, 65, 67
4, 1190656, Note_off_c, 2, 70, 67
4, 1190656, Note_on_c, 2, 68, 67
4, 1190656, Note_on_c, 2, 70, 67
4, 1190720, Note_off_c, 2, 68, 67
4, 1190720, Note_off_c, 2, 70, 67
4, 1190784, Note_off_c, 2, 68, 67
4, 1190784, Note_off_c, 2, 70, 67
4, 1190784, Note_on_c, 2, 70, 67
4, 1190784, Note_on_c, 2, 79, 67
4, 1190848, Note_off_c, 2, 70, 67
4, 1190848, Note_off_c, 2, 79, 67
4, 1190848, Note_on_c, 2, 77, 67
4, 1190848, Note_on_c, 2, 80, 67
4, 1190912, Note_off_c, 2, 77, 67
4, 1190912, Note_off_c, 2, 80, 67
4, 1190912, Note_on_c, 2, 79, 67
4, 1190912, Note_on_c, 2, 82, 67
4, 1190976, Note_off_c, 2, 79, 67
4, 1190976, Note_off_c, 2, 82, 67
4, 1191040, Note_off_c, 2, 79, 67
4, 1191040, Note_off_c, 2, 82, 67
4, 1191040, Note_on_c, 2, 79, 67
4, 1191040, Note_on_c, 2, 82, 67
4, 1191104, Note_off_c, 2, 79, 67
4, 1191104, Note_off_c, 2, 82, 67
4, 1191168, Note_off_c, 2, 79, 67
4, 1191168, Note_off_c, 2, 82, 67
4, 1191168, Note_on_c, 2, 70, 67
4, 1191168, Note_on_c, 2, 79, 67
4, 1191232, Note_off_c, 2, 70, 67
4, 1191232, Note_off_c, 2, 79, 67
4, 1191296, Note_off_c, 2, 70, 67
4, 1191296, Note_off_c, 2, 79, 67
4, 1191296, Note_on_c, 2, 75, 67
4, 1191296, Note_on_c, 2, 82, 67
4, 1191360, Note_off_c, 2, 75, 67
4, 1191360, Note_off_c, 2, 82, 67
4, 1191424, Note_off_c, 2, 75, 67
4, 1191424, Note_off_c, 2, 82, 67
4, 1191424, Note_on_c, 2, 84, 67
4, 1191424, Note_on_c, 2, 87, 67
4, 1191488, Note_off_c, 2, 84, 67
4, 1191488, Note_off_c, 2, 87, 67
4, 1191552, Note_off_c, 2, 84, 67
4, 1191552, Note_off_c, 2, 87, 67
4, 1191552, Note_on_c, 2, 82, 67
4, 1191552, Note_on_c, 2, 86, 67
4, 1191616, Note_off_c, 2, 82, 67
4, 1191616, Note_off_c, 2, 86, 67
4, 1191680, Note_off_c, 2, 82, 67
4, 1191680, Note_off_c, 2, 86, 67
4, 1191680, Note_on_c, 2, 80, 67
4, 1191680, Note_on_c, 2, 84, 67
4, 1191744, Note_off_c, 2, 80, 67
4, 1191744, Note_off_c, 2, 84, 67
4, 1191808, Note_off_c, 2, 80, 67
4, 1191808, Note_off_c, 2, 84, 67
4, 1191808, Note_on_c, 2, 70, 67
4, 1191808, Note_on_c, 2, 74, 67
4, 1191840, Note_off_c, 2, 70, 67
4, 1191840, Note_off_c, 2, 74, 67
4, 1191872, Note_off_c, 2, 70, 67
4, 1191872, Note_off_c, 2, 74, 67
4, 1191872, Note_on_c, 2, 77, 67
4, 1191872, Note_on_c, 2, 80, 67
4, 1191904, Note_off_c, 2, 77, 67
4, 1191904, Note_off_c, 2, 80, 67
4, 1191936, Note_off_c, 2, 77, 67
4, 1191936, Note_off_c, 2, 80, 67
4, 1191936, Note_on_c, 2, 77, 67
4, 1191936, Note_on_c, 2, 82, 67
4, 1192000, Note_off_c, 2, 77, 67
4, 1192000, Note_off_c, 2, 82, 67
4, 1192064, Note_off_c, 2, 77, 67
4, 1192064, Note_off_c, 2, 82, 67
4, 1192064, Note_on_c, 2, 80, 67
4, 1192064, Note_on_c, 2, 87, 67
4, 1192128, Note_off_c, 2, 80, 67
4, 1192128, Note_off_c, 2, 87, 67
4, 1192192, Note_off_c, 2, 80, 67
4, 1192192, Note_off_c, 2, 87, 67
4, 1192192, Note_on_c, 2, 82, 67
4, 1192192, Note_on_c, 2, 86, 67
4, 1192256, Note_off_c, 2, 82, 67
4, 1192256, Note_off_c, 2, 86, 67
4, 1192320, Note_off_c, 2, 82, 67
4, 1192320, Note_off_c, 2, 86, 67
4, 1192320, Note_on_c, 2, 80, 67
4, 1192320, Note_on_c, 2, 89, 67
4, 1192384, Note_off_c, 2, 80, 67
4, 1192384, Note_off_c, 2, 89, 67
4, 1192448, Note_off_c, 2, 80, 67
4, 1192448, Note_off_c, 2, 89, 67
4, 1192448, Note_on_c, 2, 79, 67
4, 1192448, Note_on_c, 2, 87, 67
4, 1192512, Note_off_c, 2, 79, 67
4, 1192512, Note_off_c, 2, 87, 67
4, 1192576, Note_off_c, 2, 79, 67
4, 1192576, Note_off_c, 2, 87, 67
4, 1192576, Note_on_c, 2, 70, 67
4, 1192576, Note_on_c, 2, 82, 67
4, 1192640, Note_off_c, 2, 70, 67
4, 1192640, Note_off_c, 2, 82, 67
4, 1192704, Note_off_c, 2, 70, 67
4, 1192704, Note_off_c, 2, 82, 67
4, 1192704, Note_on_c, 2, 70, 67
4, 1192704, Note_on_c, 2, 82, 67
4, 1192768, Note_off_c, 2, 70, 67
4, 1192768, Note_off_c, 2, 82, 67
4, 1192832, Note_off_c, 2, 70, 67
4, 1192832, Note_off_c, 2, 82, 67
4, 1192832, Note_on_c, 2, 75, 67
4, 1192896, Note_off_c, 2, 75, 67
4, 1192896, Note_on_c, 2, 77, 67
4, 1192960, Note_off_c, 2, 77, 67
4, 1192960, Note_on_c, 2, 79, 67
4, 1193024, Note_off_c, 2, 79, 67
4, 1193088, Note_off_c, 2, 79, 67
4, 1193088, Note_on_c, 2, 75, 67
4, 1193088, Note_on_c, 2, 79, 67
4, 1193152, Note_off_c, 2, 75, 67
4, 1193152, Note_off_c, 2, 79, 67
4, 1193216, Note_off_c, 2, 75, 67
4, 1193216, Note_off_c, 2, 79, 67
4, 1193216, Note_on_c, 2, 75, 67
4, 1193216, Note_on_c, 2, 79, 67
4, 1193280, Note_off_c, 2, 75, 67
4, 1193280, Note_off_c, 2, 79, 67
4, 1193344, Note_off_c, 2, 75, 67
4, 1193344, Note_off_c, 2, 79, 67
4, 1193344, Note_on_c, 2, 75, 67
4, 1193408, Note_off_c, 2, 75, 67
4, 1193408, Note_on_c, 2, 77, 67
4, 1193472, Note_off_c, 2, 77, 67
4, 1193472, Note_on_c, 2, 79, 67
4, 1193536, Note_off_c, 2, 79, 67
4, 1193600, Note_off_c, 2, 79, 67
4, 1193600, Note_on_c, 2, 75, 67
4, 1193600, Note_on_c, 2, 79, 67
4, 1193664, Note_off_c, 2, 75, 67
4, 1193664, Note_off_c, 2, 79, 67
4, 1193728, Note_off_c, 2, 75, 67
4, 1193728, Note_off_c, 2, 79, 67
4, 1193728, Note_on_c, 2, 75, 67
4, 1193728, Note_on_c, 2, 79, 67
4, 1193792, Note_off_c, 2, 75, 67
4, 1193792, Note_off_c, 2, 79, 67
4, 1193856, Note_off_c, 2, 75, 67
4, 1193856, Note_off_c, 2, 79, 67
4, 1193856, Note_on_c, 2, 75, 67
4, 1193920, Note_off_c, 2, 75, 67
4, 1193920, Note_on_c, 2, 77, 67
4, 1193984, Note_off_c, 2, 77, 67
4, 1193984, Note_on_c, 2, 79, 67
4, 1194048, Note_off_c, 2, 79, 67
4, 1194112, Note_off_c, 2, 79, 67
4, 1194112, Note_on_c, 2, 75, 67
4, 1194112, Note_on_c, 2, 79, 67
4, 1194176, Note_off_c, 2, 75, 67
4, 1194176, Note_off_c, 2, 79, 67
4, 1194240, Note_off_c, 2, 75, 67
4, 1194240, Note_off_c, 2, 79, 67
4, 1194240, Note_on_c, 2, 75, 67
4, 1194240, Note_on_c, 2, 80, 67
4, 1194272, Note_off_c, 2, 75, 67
4, 1194272, Note_off_c, 2, 80, 67
4, 1194304, Note_off_c, 2, 75, 67
4, 1194304, Note_off_c, 2, 80, 67
4, 1194304, Note_on_c, 2, 74, 67
4, 1194336, Note_off_c, 2, 74, 67
4, 1194368, Note_off_c, 2, 74, 67
4, 1194368, Note_on_c, 2, 72, 67
4, 1194400, Note_off_c, 2, 72, 67
4, 1194432, Note_off_c, 2, 72, 67
4, 1194432, Note_on_c, 2, 74, 67
4, 1194432, Note_on_c, 2, 79, 67
4, 1194464, Note_off_c, 2, 74, 67
4, 1194464, Note_off_c, 2, 79, 67
4, 1194496, Note_off_c, 2, 74, 67
4, 1194496, Note_off_c, 2, 79, 67
4, 1194496, Note_on_c, 2, 70, 67
4, 1194496, Note_on_c, 2, 77, 67
4, 1194560, Note_off_c, 2, 70, 67
4, 1194560, Note_off_c, 2, 77, 67
4, 1194624, Note_off_c, 2, 70, 67
4, 1194624, Note_off_c, 2, 77, 67
4, 1194624, Note_on_c, 2, 68, 67
4, 1194624, Note_on_c, 2, 70, 67
4, 1194688, Note_off_c, 2, 68, 67
4, 1194688, Note_off_c, 2, 70, 67
4, 1194752, Note_off_c, 2, 68, 67
4, 1194752, Note_off_c, 2, 70, 67
4, 1194752, Note_on_c, 2, 68, 67
4, 1194752, Note_on_c, 2, 70, 67
4, 1194816, Note_off_c, 2, 68, 67
4, 1194816, Note_off_c, 2, 70, 67
4, 1194880, Note_off_c, 2, 68, 67
4, 1194880, Note_off_c, 2, 70, 67
4, 1194880, Note_on_c, 2, 74, 67
4, 1194944, Note_off_c, 2, 74, 67
4, 1194944, Note_on_c, 2, 75, 67
4, 1195008, Note_off_c, 2, 75, 67
4, 1195008, Note_on_c, 2, 77, 67
4, 1195072, Note_off_c, 2, 77, 67
4, 1195136, Note_off_c, 2, 77, 67
4, 1195136, Note_on_c, 2, 74, 67
4, 1195136, Note_on_c, 2, 77, 67
4, 1195200, Note_off_c, 2, 74, 67
4, 1195200, Note_off_c, 2, 77, 67
4, 1195264, Note_off_c, 2, 74, 67
4, 1195264, Note_off_c, 2, 77, 67
4, 1195264, Note_on_c, 2, 74, 67
4, 1195264, Note_on_c, 2, 77, 67
4, 1195328, Note_off_c, 2, 74, 67
4, 1195328, Note_off_c, 2, 77, 67
4, 1195392, Note_off_c, 2, 74, 67
4, 1195392, Note_off_c, 2, 77, 67
4, 1195392, Note_on_c, 2, 74, 67
4, 1195456, Note_off_c, 2, 74, 67
4, 1195456, Note_on_c, 2, 75, 67
4, 1195520, Note_off_c, 2, 75, 67
4, 1195520, Note_on_c, 2, 77, 67
4, 1195584, Note_off_c, 2, 77, 67
4, 1195648, Note_off_c, 2, 77, 67
4, 1195648, Note_on_c, 2, 74, 67
4, 1195648, Note_on_c, 2, 77, 67
4, 1195712, Note_off_c, 2, 74, 67
4, 1195712, Note_off_c, 2, 77, 67
4, 1195776, Note_off_c, 2, 74, 67
4, 1195776, Note_off_c, 2, 77, 67
4, 1195776, Note_on_c, 2, 74, 67
4, 1195776, Note_on_c, 2, 77, 67
4, 1195840, Note_off_c, 2, 74, 67
4, 1195840, Note_off_c, 2, 77, 67
4, 1195904, Note_off_c, 2, 74, 67
4, 1195904, Note_off_c, 2, 77, 67
4, 1195904, Note_on_c, 2, 74, 67
4, 1195968, Note_off_c, 2, 74, 67
4, 1195968, Note_on_c, 2, 75, 67
4, 1196032, Note_off_c, 2, 75, 67
4, 1196032, Note_on_c, 2, 70, 67
4, 1196032, Note_on_c, 2, 77, 67
4, 1196096, Note_off_c, 2, 70, 67
4, 1196096, Note_off_c, 2, 77, 67
4, 1196160, Note_off_c, 2, 70, 67
4, 1196160, Note_off_c, 2, 77, 67
4, 1196160, Note_on_c, 2, 74, 67
4, 1196160, Note_on_c, 2, 77, 67
4, 1196224, Note_off_c, 2, 74, 67
4, 1196224, Note_off_c, 2, 77, 67
4, 1196288, Note_off_c, 2, 74, 67
4, 1196288, Note_off_c, 2, 77, 67
4, 1196288, Note_on_c, 2, 74, 67
4, 1196288, Note_on_c, 2, 79, 67
4, 1196320, Note_off_c, 2, 74, 67
4, 1196320, Note_off_c, 2, 79, 67
4, 1196352, Note_off_c, 2, 74, 67
4, 1196352, Note_off_c, 2, 79, 67
4, 1196352, Note_on_c, 2, 72, 67
4, 1196352, Note_on_c, 2, 77, 67
4, 1196384, Note_off_c, 2, 72, 67
4, 1196384, Note_off_c, 2, 77, 67
4, 1196416, Note_off_c, 2, 72, 67
4, 1196416, Note_off_c, 2, 77, 67
4, 1196416, Note_on_c, 2, 70, 67
4, 1196416, Note_on_c, 2, 77, 67
4, 1196448, Note_off_c, 2, 70, 67
4, 1196448, Note_off_c, 2, 77, 67
4, 1196480, Note_off_c, 2, 70, 67
4, 1196480, Note_off_c, 2, 77, 67
4, 1196480, Note_on_c, 2, 68, 67
4, 1196480, Note_on_c, 2, 79, 67
4, 1196512, Note_off_c, 2, 68, 67
4, 1196512, Note_off_c, 2, 79, 67
4, 1196544, Note_off_c, 2, 68, 67
4, 1196544, Note_off_c, 2, 79, 67
4, 1196544, Note_on_c, 2, 67, 67
4, 1196544, Note_on_c, 2, 75, 67
4, 1196608, Note_off_c, 2, 67, 67
4, 1196608, Note_off_c, 2, 75, 67
4, 1196672, Note_off_c, 2, 67, 67
4, 1196672, Note_off_c, 2, 75, 67
4, 1196672, Note_on_c, 2, 70, 67
4, 1196736, Note_off_c, 2, 70, 67
4, 1196800, Note_off_c, 2, 70, 67
4, 1196800, Note_on_c, 2, 70, 67
4, 1196800, Note_on_c, 2, 79, 67
4, 1196864, Note_off_c, 2, 70, 67
4, 1196864, Note_off_c, 2, 79, 67
4, 1196928, Note_off_c, 2, 70, 67
4, 1196928, Note_off_c, 2, 79, 67
4, 1196928, Note_on_c, 2, 75, 67
4, 1196992, Note_off_c, 2, 75, 67
4, 1196992, Note_on_c, 2, 77, 67
4, 1197056, Note_off_c, 2, 77, 67
4, 1197056, Note_on_c, 2, 79, 67
4, 1197120, Note_off_c, 2, 79, 67
4, 1197184, Note_off_c, 2, 79, 67
4, 1197184, Note_on_c, 2, 75, 67
4, 1197184, Note_on_c, 2, 79, 67
4, 1197248, Note_off_c, 2, 75, 67
4, 1197248, Note_off_c, 2, 79, 67
4, 1197312, Note_off_c, 2, 75, 67
4, 1197312, Note_off_c, 2, 79, 67
4, 1197312, Note_on_c, 2, 75, 67
4, 1197312, Note_on_c, 2, 79, 67
4, 1197376, Note_off_c, 2, 75, 67
4, 1197376, Note_off_c, 2, 79, 67
4, 1197440, Note_off_c, 2, 75, 67
4, 1197440, Note_off_c, 2, 79, 67
4, 1197440, Note_on_c, 2, 75, 67
4, 1197504, Note_off_c, 2, 75, 67
4, 1197504, Note_on_c, 2, 77, 67
4, 1197568, Note_off_c, 2, 77, 67
4, 1197568, Note_on_c, 2, 79, 67
4, 1197632, Note_off_c, 2, 79, 67
4, 1197696, Note_off_c, 2, 79, 67
4, 1197696, Note_on_c, 2, 75, 67
4, 1197696, Note_on_c, 2, 79, 67
4, 1197760, Note_off_c, 2, 75, 67
4, 1197760, Note_off_c, 2, 79, 67
4, 1197824, Note_off_c, 2, 75, 67
4, 1197824, Note_off_c, 2, 79, 67
4, 1197824, Note_on_c, 2, 75, 67
4, 1197824, Note_on_c, 2, 79, 67
4, 1197888, Note_off_c, 2, 75, 67
4, 1197888, Note_off_c, 2, 79, 67
4, 1197952, Note_off_c, 2, 75, 67
4, 1197952, Note_off_c, 2, 79, 67
4, 1197952, Note_on_c, 2, 75, 67
4, 1198016, Note_off_c, 2, 75, 67
4, 1198016, Note_on_c, 2, 77, 67
4, 1198080, Note_off_c, 2, 77, 67
4, 1198080, Note_on_c, 2, 79, 67
4, 1198144, Note_off_c, 2, 79, 67
4, 1198208, Note_off_c, 2, 79, 67
4, 1198208, Note_on_c, 2, 75, 67
4, 1198208, Note_on_c, 2, 79, 67
4, 1198272, Note_off_c, 2, 75, 67
4, 1198272, Note_off_c, 2, 79, 67
4, 1198336, Note_off_c, 2, 75, 67
4, 1198336, Note_off_c, 2, 79, 67
4, 1198336, Note_on_c, 2, 75, 67
4, 1198336, Note_on_c, 2, 80, 67
4, 1198368, Note_off_c, 2, 75, 67
4, 1198368, Note_off_c, 2, 80, 67
4, 1198400, Note_off_c, 2, 75, 67
4, 1198400, Note_off_c, 2, 80, 67
4, 1198400, Note_on_c, 2, 74, 67
4, 1198464, Note_off_c, 2, 74, 67
4, 1198464, Note_on_c, 2, 72, 67
4, 1198528, Note_off_c, 2, 72, 67
4, 1198528, Note_on_c, 2, 74, 67
4, 1198528, Note_on_c, 2, 79, 67
4, 1198560, Note_off_c, 2, 74, 67
4, 1198560, Note_off_c, 2, 79, 67
4, 1198592, Note_off_c, 2, 74, 67
4, 1198592, Note_off_c, 2, 79, 67
4, 1198592, Note_on_c, 2, 70, 67
4, 1198592, Note_on_c, 2, 77, 67
4, 1198656, Note_off_c, 2, 70, 67
4, 1198656, Note_off_c, 2, 77, 67
4, 1198720, Note_off_c, 2, 70, 67
4, 1198720, Note_off_c, 2, 77, 67
4, 1198720, Note_on_c, 2, 68, 67
4, 1198720, Note_on_c, 2, 70, 67
4, 1198784, Note_off_c, 2, 68, 67
4, 1198784, Note_off_c, 2, 70, 67
4, 1198848, Note_off_c, 2, 68, 67
4, 1198848, Note_off_c, 2, 70, 67
4, 1198848, Note_on_c, 2, 68, 67
4, 1198848, Note_on_c, 2, 70, 67
4, 1198912, Note_off_c, 2, 68, 67
4, 1198912, Note_off_c, 2, 70, 67
4, 1198976, Note_off_c, 2, 68, 67
4, 1198976, Note_off_c, 2, 70, 67
4, 1198976, Note_on_c, 2, 74, 67
4, 1199040, Note_off_c, 2, 74, 67
4, 1199040, Note_on_c, 2, 75, 67
4, 1199104, Note_off_c, 2, 75, 67
4, 1199104, Note_on_c, 2, 77, 67
4, 1199232, Note_off_c, 2, 77, 67
4, 1199232, Note_on_c, 2, 74, 67
4, 1199232, Note_on_c, 2, 80, 67
4, 1199296, Note_off_c, 2, 74, 67
4, 1199296, Note_off_c, 2, 80, 67
4, 1199360, Note_off_c, 2, 74, 67
4, 1199360, Note_off_c, 2, 80, 67
4, 1199360, Note_on_c, 2, 74, 67
4, 1199360, Note_on_c, 2, 79, 67
4, 1199424, Note_off_c, 2, 74, 67
4, 1199424, Note_off_c, 2, 79, 67
4, 1199488, Note_off_c, 2, 74, 67
4, 1199488, Note_off_c, 2, 79, 67
4, 1199488, Note_on_c, 2, 77, 67
4, 1199552, Note_off_c, 2, 77, 67
4, 1199616, Note_off_c, 2, 77, 67
4, 1199616, Note_on_c, 2, 75, 67
4, 1199680, Note_off_c, 2, 75, 67
4, 1199744, Note_off_c, 2, 75, 67
4, 1199744, Note_on_c, 2, 70, 67
4, 1199744, Note_on_c, 2, 74, 67
4, 1199808, Note_off_c, 2, 70, 67
4, 1199808, Note_off_c, 2, 74, 67
4, 1199872, Note_off_c, 2, 70, 67
4, 1199872, Note_off_c, 2, 74, 67
4, 1199872, Note_on_c, 2, 72, 67
4, 1199872, Note_on_c, 2, 74, 67
4, 1199936, Note_off_c, 2, 72, 67
4, 1199936, Note_off_c, 2, 74, 67
4, 1200000, Note_off_c, 2, 72, 67
4, 1200000, Note_off_c, 2, 74, 67
4, 1200000, Note_on_c, 2, 70, 67
4, 1200000, Note_on_c, 2, 74, 67
4, 1200064, Note_off_c, 2, 70, 67
4, 1200064, Note_off_c, 2, 74, 67
4, 1200128, Note_off_c, 2, 70, 67
4, 1200128, Note_off_c, 2, 74, 67
4, 1200128, Note_on_c, 2, 80, 67
4, 1200128, Note_on_c, 2, 84, 67
4, 1200384, Note_off_c, 2, 80, 67
4, 1200384, Note_off_c, 2, 84, 67
4, 1200384, Note_on_c, 2, 70, 67
4, 1200384, Note_on_c, 2, 74, 67
4, 1200400, Note_off_c, 2, 70, 67
4, 1200400, Note_off_c, 2, 74, 67
4, 1200416, Note_off_c, 2, 70, 67
4, 1200416, Note_off_c, 2, 74, 67
4, 1200416, Note_on_c, 2, 72, 67
4, 1200416, Note_on_c, 2, 75, 67
4, 1200432, Note_off_c, 2, 72, 67
4, 1200432, Note_off_c, 2, 75, 67
4, 1200448, Note_off_c, 2, 72, 67
4, 1200448, Note_off_c, 2, 75, 67
4, 1200448, Note_on_c, 2, 70, 67
4, 1200448, Note_on_c, 2, 74, 67
4, 1200480, Note_off_c, 2, 70, 67
4, 1200480, Note_off_c, 2, 74, 67
4, 1200512, Note_off_c, 2, 70, 67
4, 1200512, Note_off_c, 2, 74, 67
4, 1200512, Note_on_c, 2, 68, 67
4, 1200512, Note_on_c, 2, 72, 67
4, 1200544, Note_off_c, 2, 68, 67
4, 1200544, Note_off_c, 2, 72, 67
4, 1200576, Note_off_c, 2, 68, 67
4, 1200576, Note_off_c, 2, 72, 67
4, 1200576, Note_on_c, 2, 74, 67
4, 1200576, Note_on_c, 2, 77, 67
4, 1200608, Note_off_c, 2, 74, 67
4, 1200608, Note_off_c, 2, 77, 67
4, 1200640, Note_off_c, 2, 74, 67
4, 1200640, Note_off_c, 2, 77, 67
4, 1200640, Note_on_c, 2, 75, 67
4, 1200640, Note_on_c, 2, 79, 67
4, 1200768, Note_off_c, 2, 75, 67
4, 1200768, Note_off_c, 2, 79, 67
4, 1200768, Note_on_c, 2, 70, 67
4, 1200832, Note_off_c, 2, 70, 67
4, 1200896, Note_off_c, 2, 70, 67
4, 1200896, Note_on_c, 2, 70, 67
4, 1200960, Note_off_c, 2, 70, 67
4, 1201024, Note_off_c, 2, 70, 67
4, 1201024, Note_on_c, 2, 75, 67
4, 1201024, Note_on_c, 2, 79, 67
4, 1201088, Note_off_c, 2, 75, 67
4, 1201088, Note_off_c, 2, 79, 67
4, 1201088, Note_on_c, 2, 77, 67
4, 1201088, Note_on_c, 2, 80, 67
4, 1201152, Note_off_c, 2, 77, 67
4, 1201152, Note_off_c, 2, 80, 67
4, 1201152, Note_on_c, 2, 79, 67
4, 1201152, Note_on_c, 2, 82, 67
4, 1201216, Note_off_c, 2, 79, 67
4, 1201216, Note_off_c, 2, 82, 67
4, 1201280, Note_off_c, 2, 79, 67
4, 1201280, Note_off_c, 2, 82, 67
4, 1201280, Note_on_c, 2, 79, 67
4, 1201280, Note_on_c, 2, 82, 67
4, 1201344, Note_off_c, 2, 79, 67
4, 1201344, Note_off_c, 2, 82, 67
4, 1201408, Note_off_c, 2, 79, 67
4, 1201408, Note_off_c, 2, 82, 67
4, 1201408, Note_on_c, 2, 70, 67
4, 1201408, Note_on_c, 2, 79, 67
4, 1201472, Note_off_c, 2, 70, 67
4, 1201472, Note_off_c, 2, 79, 67
4, 1201536, Note_off_c, 2, 70, 67
4, 1201536, Note_off_c, 2, 79, 67
4, 1201536, Note_on_c, 2, 70, 67
4, 1201536, Note_on_c, 2, 75, 67
4, 1201600, Note_off_c, 2, 70, 67
4, 1201600, Note_off_c, 2, 75, 67
4, 1201664, Note_off_c, 2, 70, 67
4, 1201664, Note_off_c, 2, 75, 67
4, 1201664, Note_on_c, 2, 84, 67
4, 1201664, Note_on_c, 2, 87, 67
4, 1201728, Note_off_c, 2, 84, 67
4, 1201728, Note_off_c, 2, 87, 67
4, 1201792, Note_off_c, 2, 84, 67
4, 1201792, Note_off_c, 2, 87, 67
4, 1201792, Note_on_c, 2, 82, 67
4, 1201792, Note_on_c, 2, 86, 67
4, 1201856, Note_off_c, 2, 82, 67
4, 1201856, Note_off_c, 2, 86, 67
4, 1201920, Note_off_c, 2, 82, 67
4, 1201920, Note_off_c, 2, 86, 67
4, 1201920, Note_on_c, 2, 80, 67
4, 1201920, Note_on_c, 2, 84, 67
4, 1201984, Note_off_c, 2, 80, 67
4, 1201984, Note_off_c, 2, 84, 67
4, 1202048, Note_off_c, 2, 80, 67
4, 1202048, Note_off_c, 2, 84, 67
4, 1202048, Note_on_c, 2, 79, 67
4, 1202048, Note_on_c, 2, 87, 67
4, 1202112, Note_off_c, 2, 79, 67
4, 1202112, Note_off_c, 2, 87, 67
4, 1202176, Note_off_c, 2, 79, 67
4, 1202176, Note_off_c, 2, 87, 67
4, 1202176, Note_on_c, 2, 75, 67
4, 1202176, Note_on_c, 2, 82, 67
4, 1202240, Note_off_c, 2, 75, 67
4, 1202240, Note_off_c, 2, 82, 67
4, 1202304, Note_off_c, 2, 75, 67
4, 1202304, Note_off_c, 2, 82, 67
4, 1202304, Note_on_c, 2, 79, 67
4, 1202368, Note_off_c, 2, 79, 67
4, 1202432, Note_off_c, 2, 79, 67
4, 1202432, Note_on_c, 2, 67, 67
4, 1202432, Note_on_c, 2, 75, 67
4, 1202496, Note_off_c, 2, 67, 67
4, 1202496, Note_off_c, 2, 75, 67
4, 1202560, Note_off_c, 2, 67, 67
4, 1202560, Note_off_c, 2, 75, 67
4, 1202560, Note_on_c, 2, 68, 67
4, 1202560, Note_on_c, 2, 74, 67
4, 1202592, Note_off_c, 2, 68, 67
4, 1202592, Note_off_c, 2, 74, 67
4, 1202624, Note_off_c, 2, 68, 67
4, 1202624, Note_off_c, 2, 74, 67
4, 1202624, Note_on_c, 2, 74, 67
4, 1202624, Note_on_c, 2, 79, 67
4, 1202656, Note_off_c, 2, 74, 67
4, 1202656, Note_off_c, 2, 79, 67
4, 1202688, Note_off_c, 2, 74, 67
4, 1202688, Note_off_c, 2, 79, 67
4, 1202688, Note_on_c, 2, 70, 67
4, 1202688, Note_on_c, 2, 77, 67
4, 1202752, Note_off_c, 2, 70, 67
4, 1202752, Note_off_c, 2, 77, 67
4, 1202816, Note_off_c, 2, 70, 67
4, 1202816, Note_off_c, 2, 77, 67
4, 1202816, Note_on_c, 2, 65, 67
4, 1202816, Note_on_c, 2, 70, 67
4, 1202880, Note_off_c, 2, 65, 67
4, 1202880, Note_off_c, 2, 70, 67
4, 1202944, Note_off_c, 2, 65, 67
4, 1202944, Note_off_c, 2, 70, 67
4, 1202944, Note_on_c, 2, 68, 67
4, 1202944, Note_on_c, 2, 70, 67
4, 1203008, Note_off_c, 2, 68, 67
4, 1203008, Note_off_c, 2, 70, 67
4, 1203072, Note_off_c, 2, 68, 67
4, 1203072, Note_off_c, 2, 70, 67
4, 1203072, Note_on_c, 2, 70, 67
4, 1203072, Note_on_c, 2, 79, 67
4, 1203136, Note_off_c, 2, 70, 67
4, 1203136, Note_off_c, 2, 79, 67
4, 1203136, Note_on_c, 2, 77, 67
4, 1203136, Note_on_c, 2, 80, 67
4, 1203200, Note_off_c, 2, 77, 67
4, 1203200, Note_off_c, 2, 80, 67
4, 1203200, Note_on_c, 2, 79, 67
4, 1203200, Note_on_c, 2, 82, 67
4, 1203264, Note_off_c, 2, 79, 67
4, 1203264, Note_off_c, 2, 82, 67
4, 1203328, Note_off_c, 2, 79, 67
4, 1203328, Note_off_c, 2, 82, 67
4, 1203328, Note_on_c, 2, 79, 67
4, 1203328, Note_on_c, 2, 82, 67
4, 1203392, Note_off_c, 2, 79, 67
4, 1203392, Note_off_c, 2, 82, 67
4, 1203456, Note_off_c, 2, 79, 67
4, 1203456, Note_off_c, 2, 82, 67
4, 1203456, Note_on_c, 2, 70, 67
4, 1203456, Note_on_c, 2, 79, 67
4, 1203520, Note_off_c, 2, 70, 67
4, 1203520, Note_off_c, 2, 79, 67
4, 1203584, Note_off_c, 2, 70, 67
4, 1203584, Note_off_c, 2, 79, 67
4, 1203584, Note_on_c, 2, 75, 67
4, 1203584, Note_on_c, 2, 82, 67
4, 1203648, Note_off_c, 2, 75, 67
4, 1203648, Note_off_c, 2, 82, 67
4, 1203712, Note_off_c, 2, 75, 67
4, 1203712, Note_off_c, 2, 82, 67
4, 1203712, Note_on_c, 2, 84, 67
4, 1203712, Note_on_c, 2, 87, 67
4, 1203776, Note_off_c, 2, 84, 67
4, 1203776, Note_off_c, 2, 87, 67
4, 1203840, Note_off_c, 2, 84, 67
4, 1203840, Note_off_c, 2, 87, 67
4, 1203840, Note_on_c, 2, 82, 67
4, 1203840, Note_on_c, 2, 86, 67
4, 1203904, Note_off_c, 2, 82, 67
4, 1203904, Note_off_c, 2, 86, 67
4, 1203968, Note_off_c, 2, 82, 67
4, 1203968, Note_off_c, 2, 86, 67
4, 1203968, Note_on_c, 2, 80, 67
4, 1203968, Note_on_c, 2, 84, 67
4, 1204032, Note_off_c, 2, 80, 67
4, 1204032, Note_off_c, 2, 84, 67
4, 1204096, Note_off_c, 2, 80, 67
4, 1204096, Note_off_c, 2, 84, 67
4, 1204096, Note_on_c, 2, 70, 67
4, 1204096, Note_on_c, 2, 74, 67
4, 1204128, Note_off_c, 2, 70, 67
4, 1204128, Note_off_c, 2, 74, 67
4, 1204160, Note_off_c, 2, 70, 67
4, 1204160, Note_off_c, 2, 74, 67
4, 1204160, Note_on_c, 2, 77, 67
4, 1204160, Note_on_c, 2, 80, 67
4, 1204192, Note_off_c, 2, 77, 67
4, 1204192, Note_off_c, 2, 80, 67
4, 1204224, Note_off_c, 2, 77, 67
4, 1204224, Note_off_c, 2, 80, 67
4, 1204224, Note_on_c, 2, 77, 67
4, 1204224, Note_on_c, 2, 82, 67
4, 1204288, Note_off_c, 2, 77, 67
4, 1204288, Note_off_c, 2, 82, 67
4, 1204352, Note_off_c, 2, 77, 67
4, 1204352, Note_off_c, 2, 82, 67
4, 1204352, Note_on_c, 2, 80, 67
4, 1204352, Note_on_c, 2, 87, 67
4, 1204416, Note_off_c, 2, 80, 67
4, 1204416, Note_off_c, 2, 87, 67
4, 1204480, Note_off_c, 2, 80, 67
4, 1204480, Note_off_c, 2, 87, 67
4, 1204480, Note_on_c, 2, 82, 67
4, 1204480, Note_on_c, 2, 86, 67
4, 1204544, Note_off_c, 2, 82, 67
4, 1204544, Note_off_c, 2, 86, 67
4, 1204608, Note_off_c, 2, 82, 67
4, 1204608, Note_off_c, 2, 86, 67
4, 1204608, Note_on_c, 2, 80, 67
4, 1204608, Note_on_c, 2, 89, 67
4, 1204672, Note_off_c, 2, 80, 67
4, 1204672, Note_off_c, 2, 89, 67
4, 1204736, Note_off_c, 2, 80, 67
4, 1204736, Note_off_c, 2, 89, 67
4, 1204736, Note_on_c, 2, 79, 67
4, 1204736, Note_on_c, 2, 87, 67
4, 1204800, Note_off_c, 2, 79, 67
4, 1204800, Note_off_c, 2, 87, 67
4, 1204864, Note_off_c, 2, 79, 67
4, 1204864, Note_off_c, 2, 87, 67
4, 1204864, Note_on_c, 2, 70, 67
4, 1204864, Note_on_c, 2, 82, 67
4, 1204928, Note_off_c, 2, 70, 67
4, 1204928, Note_off_c, 2, 82, 67
4, 1204992, Note_off_c, 2, 70, 67
4, 1204992, Note_off_c, 2, 82, 67
4, 1204992, Note_on_c, 2, 70, 67
4, 1204992, Note_on_c, 2, 82, 67
4, 1205056, Note_off_c, 2, 70, 67
4, 1205056, Note_off_c, 2, 82, 67
4, 1205120, Note_off_c, 2, 70, 67
4, 1205120, Note_off_c, 2, 82, 67
4, 1205120, Note_on_c, 2, 75, 67
4, 1205184, Note_off_c, 2, 75, 67
4, 1205184, Note_on_c, 2, 77, 67
4, 1205248, Note_off_c, 2, 77, 67
4, 1205248, Note_on_c, 2, 79, 67
4, 1205312, Note_off_c, 2, 79, 67
4, 1205376, Note_off_c, 2, 79, 67
4, 1205376, Note_on_c, 2, 75, 67
4, 1205376, Note_on_c, 2, 79, 67
4, 1205440, Note_off_c, 2, 75, 67
4, 1205440, Note_off_c, 2, 79, 67
4, 1205504, Note_off_c, 2, 75, 67
4, 1205504, Note_off_c, 2, 79, 67
4, 1205504, Note_on_c, 2, 75, 67
4, 1205504, Note_on_c, 2, 79, 67
4, 1205568, Note_off_c, 2, 75, 67
4, 1205568, Note_off_c, 2, 79, 67
4, 1205632, Note_off_c, 2, 75, 67
4, 1205632, Note_off_c, 2, 79, 67
4, 1205632, Note_on_c, 2, 75, 67
4, 1205696, Note_off_c, 2, 75, 67
4, 1205696, Note_on_c, 2, 77, 67
4, 1205760, Note_off_c, 2, 77, 67
4, 1205760, Note_on_c, 2, 79, 67
4, 1205824, Note_off_c, 2, 79, 67
4, 1205888, Note_off_c, 2, 79, 67
4, 1205888, Note_on_c, 2, 75, 67
4, 1205888, Note_on_c, 2, 79, 67
4, 1205952, Note_off_c, 2, 75, 67
4, 1205952, Note_off_c, 2, 79, 67
4, 1206016, Note_off_c, 2, 75, 67
4, 1206016, Note_off_c, 2, 79, 67
4, 1206016, Note_on_c, 2, 75, 67
4, 1206016, Note_on_c, 2, 79, 67
4, 1206080, Note_off_c, 2, 75, 67
4, 1206080, Note_off_c, 2, 79, 67
4, 1206144, Note_off_c, 2, 75, 67
4, 1206144, Note_off_c, 2, 79, 67
4, 1206144, Note_on_c, 2, 75, 67
4, 1206208, Note_off_c, 2, 75, 67
4, 1206208, Note_on_c, 2, 77, 67
4, 1206272, Note_off_c, 2, 77, 67
4, 1206272, Note_on_c, 2, 79, 67
4, 1206336, Note_off_c, 2, 79, 67
4, 1206400, Note_off_c, 2, 79, 67
4, 1206400, Note_on_c, 2, 75, 67
4, 1206400, Note_on_c, 2, 79, 67
4, 1206464, Note_off_c, 2, 75, 67
4, 1206464, Note_off_c, 2, 79, 67
4, 1206528, Note_off_c, 2, 75, 67
4, 1206528, Note_off_c, 2, 79, 67
4, 1206528, Note_on_c, 2, 75, 67
4, 1206528, Note_on_c, 2, 80, 67
4, 1206560, Note_off_c, 2, 75, 67
4, 1206560, Note_off_c, 2, 80, 67
4, 1206592, Note_off_c, 2, 75, 67
4, 1206592, Note_off_c, 2, 80, 67
4, 1206592, Note_on_c, 2, 74, 67
4, 1206624, Note_off_c, 2, 74, 67
4, 1206656, Note_off_c, 2, 74, 67
4, 1206656, Note_on_c, 2, 72, 67
4, 1206688, Note_off_c, 2, 72, 67
4, 1206720, Note_off_c, 2, 72, 67
4, 1206720, Note_on_c, 2, 74, 67
4, 1206720, Note_on_c, 2, 79, 67
4, 1206752, Note_off_c, 2, 74, 67
4, 1206752, Note_off_c, 2, 79, 67
4, 1206784, Note_off_c, 2, 74, 67
4, 1206784, Note_off_c, 2, 79, 67
4, 1206784, Note_on_c, 2, 70, 67
4, 1206784, Note_on_c, 2, 77, 67
4, 1206848, Note_off_c, 2, 70, 67
4, 1206848, Note_off_c, 2, 77, 67
4, 1206912, Note_off_c, 2, 70, 67
4, 1206912, Note_off_c, 2, 77, 67
4, 1206912, Note_on_c, 2, 68, 67
4, 1206912, Note_on_c, 2, 70, 67
4, 1206976, Note_off_c, 2, 68, 67
4, 1206976, Note_off_c, 2, 70, 67
4, 1207040, Note_off_c, 2, 68, 67
4, 1207040, Note_off_c, 2, 70, 67
4, 1207040, Note_on_c, 2, 68, 67
4, 1207040, Note_on_c, 2, 70, 67
4, 1207104, Note_off_c, 2, 68, 67
4, 1207104, Note_off_c, 2, 70, 67
4, 1207168, Note_off_c, 2, 68, 67
4, 1207168, Note_off_c, 2, 70, 67
4, 1207168, Note_on_c, 2, 74, 67
4, 1207232, Note_off_c, 2, 74, 67
4, 1207232, Note_on_c, 2, 75, 67
4, 1207296, Note_off_c, 2, 75, 67
4, 1207296, Note_on_c, 2, 77, 67
4, 1207360, Note_off_c, 2, 77, 67
4, 1207424, Note_off_c, 2, 77, 67
4, 1207424, Note_on_c, 2, 74, 67
4, 1207424, Note_on_c, 2, 77, 67
4, 1207488, Note_off_c, 2, 74, 67
4, 1207488, Note_off_c, 2, 77, 67
4, 1207552, Note_off_c, 2, 74, 67
4, 1207552, Note_off_c, 2, 77, 67
4, 1207552, Note_on_c, 2, 74, 67
4, 1207552, Note_on_c, 2, 77, 67
4, 1207616, Note_off_c, 2, 74, 67
4, 1207616, Note_off_c, 2, 77, 67
4, 1207680, Note_off_c, 2, 74, 67
4, 1207680, Note_off_c, 2, 77, 67
4, 1207680, Note_on_c, 2, 74, 67
4, 1207744, Note_off_c, 2, 74, 67
4, 1207744, Note_on_c, 2, 75, 67
4, 1207808, Note_off_c, 2, 75, 67
4, 1207808, Note_on_c, 2, 77, 67
4, 1207872, Note_off_c, 2, 77, 67
4, 1207936, Note_off_c, 2, 77, 67
4, 1207936, Note_on_c, 2, 74, 67
4, 1207936, Note_on_c, 2, 77, 67
4, 1208000, Note_off_c, 2, 74, 67
4, 1208000, Note_off_c, 2, 77, 67
4, 1208064, Note_off_c, 2, 74, 67
4, 1208064, Note_off_c, 2, 77, 67
4, 1208064, Note_on_c, 2, 74, 67
4, 1208064, Note_on_c, 2, 77, 67
4, 1208128, Note_off_c, 2, 74, 67
4, 1208128, Note_off_c, 2, 77, 67
4, 1208192, Note_off_c, 2, 74, 67
4, 1208192, Note_off_c, 2, 77, 67
4, 1208192, Note_on_c, 2, 74, 67
4, 1208256, Note_off_c, 2, 74, 67
4, 1208256, Note_on_c, 2, 75, 67
4, 1208320, Note_off_c, 2, 75, 67
4, 1208320, Note_on_c, 2, 70, 67
4, 1208320, Note_on_c, 2, 77, 67
4, 1208384, Note_off_c, 2, 70, 67
4, 1208384, Note_off_c, 2, 77, 67
4, 1208448, Note_off_c, 2, 70, 67
4, 1208448, Note_off_c, 2, 77, 67
4, 1208448, Note_on_c, 2, 74, 67
4, 1208448, Note_on_c, 2, 77, 67
4, 1208512, Note_off_c, 2, 74, 67
4, 1208512, Note_off_c, 2, 77, 67
4, 1208576, Note_off_c, 2, 74, 67
4, 1208576, Note_off_c, 2, 77, 67
4, 1208576, Note_on_c, 2, 74, 67
4, 1208576, Note_on_c, 2, 79, 67
4, 1208608, Note_off_c, 2, 74, 67
4, 1208608, Note_off_c, 2, 79, 67
4, 1208640, Note_off_c, 2, 74, 67
4, 1208640, Note_off_c, 2, 79, 67
4, 1208640, Note_on_c, 2, 72, 67
4, 1208640, Note_on_c, 2, 77, 67
4, 1208672, Note_off_c, 2, 72, 67
4, 1208672, Note_off_c, 2, 77, 67
4, 1208704, Note_off_c, 2, 72, 67
4, 1208704, Note_off_c, 2, 77, 67
4, 1208704, Note_on_c, 2, 70, 67
4, 1208704, Note_on_c, 2, 77, 67
4, 1208736, Note_off_c, 2, 70, 67
4, 1208736, Note_off_c, 2, 77, 67
4, 1208768, Note_off_c, 2, 70, 67
4, 1208768, Note_off_c, 2, 77, 67
4, 1208768, Note_on_c, 2, 68, 67
4, 1208768, Note_on_c, 2, 79, 67
4, 1208800, Note_off_c, 2, 68, 67
4, 1208800, Note_off_c, 2, 79, 67
4, 1208832, Note_off_c, 2, 68, 67
4, 1208832, Note_off_c, 2, 79, 67
4, 1208832, Note_on_c, 2, 67, 67
4, 1208832, Note_on_c, 2, 75, 67
4, 1208896, Note_off_c, 2, 67, 67
4, 1208896, Note_off_c, 2, 75, 67
4, 1208960, Note_off_c, 2, 67, 67
4, 1208960, Note_off_c, 2, 75, 67
4, 1208960, Note_on_c, 2, 70, 67
4, 1209024, Note_off_c, 2, 70, 67
4, 1209088, Note_off_c, 2, 70, 67
4, 1209088, Note_on_c, 2, 70, 67
4, 1209088, Note_on_c, 2, 79, 67
4, 1209152, Note_off_c, 2, 70, 67
4, 1209152, Note_off_c, 2, 79, 67
4, 1209216, Note_off_c, 2, 70, 67
4, 1209216, Note_off_c, 2, 79, 67
4, 1209216, Note_on_c, 2, 75, 67
4, 1209280, Note_off_c, 2, 75, 67
4, 1209280, Note_on_c, 2, 77, 67
4, 1209344, Note_off_c, 2, 77, 67
4, 1209344, Note_on_c, 2, 79, 67
4, 1209408, Note_off_c, 2, 79, 67
4, 1209472, Note_off_c, 2, 79, 67
4, 1209472, Note_on_c, 2, 75, 67
4, 1209472, Note_on_c, 2, 79, 67
4, 1209536, Note_off_c, 2, 75, 67
4, 1209536, Note_off_c, 2, 79, 67
4, 1209600, Note_off_c, 2, 75, 67
4, 1209600, Note_off_c, 2, 79, 67
4, 1209600, Note_on_c, 2, 75, 67
4, 1209600, Note_on_c, 2, 79, 67
4, 1209664, Note_off_c, 2, 75, 67
4, 1209664, Note_off_c, 2, 79, 67
4, 1209728, Note_off_c, 2, 75, 67
4, 1209728, Note_off_c, 2, 79, 67
4, 1209728, Note_on_c, 2, 75, 67
4, 1209792, Note_off_c, 2, 75, 67
4, 1209792, Note_on_c, 2, 77, 67
4, 1209856, Note_off_c, 2, 77, 67
4, 1209856, Note_on_c, 2, 79, 67
4, 1209920, Note_off_c, 2, 79, 67
4, 1209984, Note_off_c, 2, 79, 67
4, 1209984, Note_on_c, 2, 75, 67
4, 1209984, Note_on_c, 2, 79, 67
4, 1210048, Note_off_c, 2, 75, 67
4, 1210048, Note_off_c, 2, 79, 67
4, 1210112, Note_off_c, 2, 75, 67
4, 1210112, Note_off_c, 2, 79, 67
4, 1210112, Note_on_c, 2, 75, 67
4, 1210112, Note_on_c, 2, 79, 67
4, 1210176, Note_off_c, 2, 75, 67
4, 1210176, Note_off_c, 2, 79, 67
4, 1210240, Note_off_c, 2, 75, 67
4, 1210240, Note_off_c, 2, 79, 67
4, 1210240, Note_on_c, 2, 75, 67
4, 1210304, Note_off_c, 2, 75, 67
4, 1210304, Note_on_c, 2, 77, 67
4, 1210368, Note_off_c, 2, 77, 67
4, 1210368, Note_on_c, 2, 79, 67
4, 1210432, Note_off_c, 2, 79, 67
4, 1210496, Note_off_c, 2, 79, 67
4, 1210496, Note_on_c, 2, 75, 67
4, 1210496, Note_on_c, 2, 79, 67
4, 1210560, Note_off_c, 2, 75, 67
4, 1210560, Note_off_c, 2, 79, 67
4, 1210624, Note_off_c, 2, 75, 67
4, 1210624, Note_off_c, 2, 79, 67
4, 1210624, Note_on_c, 2, 75, 67
4, 1210624, Note_on_c, 2, 80, 67
4, 1210656, Note_off_c, 2, 75, 67
4, 1210656, Note_off_c, 2, 80, 67
4, 1210688, Note_off_c, 2, 75, 67
4, 1210688, Note_off_c, 2, 80, 67
4, 1210688, Note_on_c, 2, 74, 67
4, 1210752, Note_off_c, 2, 74, 67
4, 1210752, Note_on_c, 2, 72, 67
4, 1210816, Note_off_c, 2, 72, 67
4, 1210816, Note_on_c, 2, 74, 67
4, 1210816, Note_on_c, 2, 79, 67
4, 1210848, Note_off_c, 2, 74, 67
4, 1210848, Note_off_c, 2, 79, 67
4, 1210880, Note_off_c, 2, 74, 67
4, 1210880, Note_off_c, 2, 79, 67
4, 1210880, Note_on_c, 2, 70, 67
4, 1210880, Note_on_c, 2, 77, 67
4, 1210944, Note_off_c, 2, 70, 67
4, 1210944, Note_off_c, 2, 77, 67
4, 1211008, Note_off_c, 2, 70, 67
4, 1211008, Note_off_c, 2, 77, 67
4, 1211008, Note_on_c, 2, 68, 67
4, 1211008, Note_on_c, 2, 70, 67
4, 1211072, Note_off_c, 2, 68, 67
4, 1211072, Note_off_c, 2, 70, 67
4, 1211136, Note_off_c, 2, 68, 67
4, 1211136, Note_off_c, 2, 70, 67
4, 1211136, Note_on_c, 2, 68, 67
4, 1211136, Note_on_c, 2, 70, 67
4, 1211200, Note_off_c, 2, 68, 67
4, 1211200, Note_off_c, 2, 70, 67
4, 1211264, Note_off_c, 2, 68, 67
4, 1211264, Note_off_c, 2, 70, 67
4, 1211264, Note_on_c, 2, 74, 67
4, 1211328, Note_off_c, 2, 74, 67
4, 1211328, Note_on_c, 2, 75, 67
4, 1211392, Note_off_c, 2, 75, 67
4, 1211392, Note_on_c, 2, 77, 67
4, 1211520, Note_off_c, 2, 77, 67
4, 1211520, Note_on_c, 2, 74, 67
4, 1211520, Note_on_c, 2, 80, 67
4, 1211584, Note_off_c, 2, 74, 67
4, 1211584, Note_off_c, 2, 80, 67
4, 1211648, Note_off_c, 2, 74, 67
4, 1211648, Note_off_c, 2, 80, 67
4, 1211648, Note_on_c, 2, 74, 67
4, 1211648, Note_on_c, 2, 79, 67
4, 1211712, Note_off_c, 2, 74, 67
4, 1211712, Note_off_c, 2, 79, 67
4, 1211776, Note_off_c, 2, 74, 67
4, 1211776, Note_off_c, 2, 79, 67
4, 1211776, Note_on_c, 2, 77, 67
4, 1211840, Note_off_c, 2, 77, 67
4, 1211904, Note_off_c, 2, 77, 67
4, 1211904, Note_on_c, 2, 75, 67
4, 1211968, Note_off_c, 2, 75, 67
4, 1212032, Note_off_c, 2, 75, 67
4, 1212032, Note_on_c, 2, 70, 67
4, 1212032, Note_on_c, 2, 74, 67
4, 1212096, Note_off_c, 2, 70, 67
4, 1212096, Note_off_c, 2, 74, 67
4, 1212160, Note_off_c, 2, 70, 67
4, 1212160, Note_off_c, 2, 74, 67
4, 1212160, Note_on_c, 2, 72, 67
4, 1212160, Note_on_c, 2, 74, 67
4, 1212224, Note_off_c, 2, 72, 67
4, 1212224, Note_off_c, 2, 74, 67
4, 1212288, Note_off_c, 2, 72, 67
4, 1212288, Note_off_c, 2, 74, 67
4, 1212288, Note_on_c, 2, 70, 67
4, 1212288, Note_on_c, 2, 74, 67
4, 1212352, Note_off_c, 2, 70, 67
4, 1212352, Note_off_c, 2, 74, 67
4, 1212416, Note_off_c, 2, 70, 67
4, 1212416, Note_off_c, 2, 74, 67
4, 1212416, Note_on_c, 2, 80, 67
4, 1212416, Note_on_c, 2, 84, 67
4, 1212672, Note_off_c, 2, 80, 67
4, 1212672, Note_off_c, 2, 84, 67
4, 1212672, Note_on_c, 2, 70, 67
4, 1212672, Note_on_c, 2, 74, 67
4, 1212688, Note_off_c, 2, 70, 67
4, 1212688, Note_off_c, 2, 74, 67
4, 1212704, Note_off_c, 2, 70, 67
4, 1212704, Note_off_c, 2, 74, 67
4, 1212704, Note_on_c, 2, 72, 67
4, 1212704, Note_on_c, 2, 75, 67
4, 1212720, Note_off_c, 2, 72, 67
4, 1212720, Note_off_c, 2, 75, 67
4, 1212736, Note_off_c, 2, 72, 67
4, 1212736, Note_off_c, 2, 75, 67
4, 1212736, Note_on_c, 2, 70, 67
4, 1212736, Note_on_c, 2, 74, 67
4, 1212768, Note_off_c, 2, 70, 67
4, 1212768, Note_off_c, 2, 74, 67
4, 1212800, Note_off_c, 2, 70, 67
4, 1212800, Note_off_c, 2, 74, 67
4, 1212800, Note_on_c, 2, 68, 67
4, 1212800, Note_on_c, 2, 72, 67
4, 1212832, Note_off_c, 2, 68, 67
4, 1212832, Note_off_c, 2, 72, 67
4, 1212864, Note_off_c, 2, 68, 67
4, 1212864, Note_off_c, 2, 72, 67
4, 1212864, Note_on_c, 2, 74, 67
4, 1212864, Note_on_c, 2, 77, 67
4, 1212896, Note_off_c, 2, 74, 67
4, 1212896, Note_off_c, 2, 77, 67
4, 1212928, Note_off_c, 2, 74, 67
4, 1212928, Note_off_c, 2, 77, 67
4, 1212928, Note_on_c, 2, 75, 67
4, 1212928, Note_on_c, 2, 79, 67
4, 1213056, Note_off_c, 2, 75, 67
4, 1213056, Note_off_c, 2, 79, 67
4, 1213056, Note_on_c, 2, 70, 67
4, 1213120, Note_off_c, 2, 70, 67
4, 1213184, Note_off_c, 2, 70, 67
4, 1213184, Note_on_c, 2, 70, 67
4, 1213248, Note_off_c, 2, 70, 67
4, 1213312, Note_off_c, 2, 70, 67
4, 1213312, Note_on_c, 2, 75, 67
4, 1213312, Note_on_c, 2, 79, 67
4, 1213376, Note_off_c, 2, 75, 67
4, 1213376, Note_off_c, 2, 79, 67
4, 1213376, Note_on_c, 2, 77, 67
4, 1213376, Note_on_c, 2, 80, 67
4, 1213440, Note_off_c, 2, 77, 67
4, 1213440, Note_off_c, 2, 80, 67
4, 1213440, Note_on_c, 2, 79, 67
4, 1213440, Note_on_c, 2, 82, 67
4, 1213504, Note_off_c, 2, 79, 67
4, 1213504, Note_off_c, 2, 82, 67
4, 1213568, Note_off_c, 2, 79, 67
4, 1213568, Note_off_c, 2, 82, 67
4, 1213568, Note_on_c, 2, 79, 67
4, 1213568, Note_on_c, 2, 82, 67
4, 1213632, Note_off_c, 2, 79, 67
4, 1213632, Note_off_c, 2, 82, 67
4, 1213696, Note_off_c, 2, 79, 67
4, 1213696, Note_off_c, 2, 82, 67
4, 1213696, Note_on_c, 2, 70, 67
4, 1213696, Note_on_c, 2, 79, 67
4, 1213760, Note_off_c, 2, 70, 67
4, 1213760, Note_off_c, 2, 79, 67
4, 1213824, Note_off_c, 2, 70, 67
4, 1213824, Note_off_c, 2, 79, 67
4, 1213824, Note_on_c, 2, 70, 67
4, 1213824, Note_on_c, 2, 75, 67
4, 1213888, Note_off_c, 2, 70, 67
4, 1213888, Note_off_c, 2, 75, 67
4, 1213952, Note_off_c, 2, 70, 67
4, 1213952, Note_off_c, 2, 75, 67
4, 1213952, Note_on_c, 2, 84, 67
4, 1213952, Note_on_c, 2, 87, 67
4, 1214016, Note_off_c, 2, 84, 67
4, 1214016, Note_off_c, 2, 87, 67
4, 1214080, Note_off_c, 2, 84, 67
4, 1214080, Note_off_c, 2, 87, 67
4, 1214080, Note_on_c, 2, 82, 67
4, 1214080, Note_on_c, 2, 86, 67
4, 1214144, Note_off_c, 2, 82, 67
4, 1214144, Note_off_c, 2, 86, 67
4, 1214208, Note_off_c, 2, 82, 67
4, 1214208, Note_off_c, 2, 86, 67
4, 1214208, Note_on_c, 2, 80, 67
4, 1214208, Note_on_c, 2, 84, 67
4, 1214272, Note_off_c, 2, 80, 67
4, 1214272, Note_off_c, 2, 84, 67
4, 1214336, Note_off_c, 2, 80, 67
4, 1214336, Note_off_c, 2, 84, 67
4, 1214336, Note_on_c, 2, 79, 67
4, 1214336, Note_on_c, 2, 87, 67
4, 1214400, Note_off_c, 2, 79, 67
4, 1214400, Note_off_c, 2, 87, 67
4, 1214464, Note_off_c, 2, 79, 67
4, 1214464, Note_off_c, 2, 87, 67
4, 1214464, Note_on_c, 2, 75, 67
4, 1214464, Note_on_c, 2, 82, 67
4, 1214528, Note_off_c, 2, 75, 67
4, 1214528, Note_off_c, 2, 82, 67
4, 1214592, Note_off_c, 2, 75, 67
4, 1214592, Note_off_c, 2, 82, 67
4, 1214592, Note_on_c, 2, 79, 67
4, 1214656, Note_off_c, 2, 79, 67
4, 1214720, Note_off_c, 2, 79, 67
4, 1214720, Note_on_c, 2, 67, 67
4, 1214720, Note_on_c, 2, 75, 67
4, 1214784, Note_off_c, 2, 67, 67
4, 1214784, Note_off_c, 2, 75, 67
4, 1214848, Note_off_c, 2, 67, 67
4, 1214848, Note_off_c, 2, 75, 67
4, 1214848, Note_on_c, 2, 68, 67
4, 1214848, Note_on_c, 2, 74, 67
4, 1214880, Note_off_c, 2, 68, 67
4, 1214880, Note_off_c, 2, 74, 67
4, 1214912, Note_off_c, 2, 68, 67
4, 1214912, Note_off_c, 2, 74, 67
4, 1214912, Note_on_c, 2, 74, 67
4, 1214912, Note_on_c, 2, 79, 67
4, 1214944, Note_off_c, 2, 74, 67
4, 1214944, Note_off_c, 2, 79, 67
4, 1214976, Note_off_c, 2, 74, 67
4, 1214976, Note_off_c, 2, 79, 67
4, 1214976, Note_on_c, 2, 70, 67
4, 1214976, Note_on_c, 2, 77, 67
4, 1215040, Note_off_c, 2, 70, 67
4, 1215040, Note_off_c, 2, 77, 67
4, 1215104, Note_off_c, 2, 70, 67
4, 1215104, Note_off_c, 2, 77, 67
4, 1215104, Note_on_c, 2, 65, 67
4, 1215104, Note_on_c, 2, 70, 67
4, 1215168, Note_off_c, 2, 65, 67
4, 1215168, Note_off_c, 2, 70, 67
4, 1215232, Note_off_c, 2, 65, 67
4, 1215232, Note_off_c, 2, 70, 67
4, 1215232, Note_on_c, 2, 68, 67
4, 1215232, Note_on_c, 2, 70, 67
4, 1215296, Note_off_c, 2, 68, 67
4, 1215296, Note_off_c, 2, 70, 67
4, 1215360, Note_off_c, 2, 68, 67
4, 1215360, Note_off_c, 2, 70, 67
4, 1215360, Note_on_c, 2, 70, 67
4, 1215360, Note_on_c, 2, 79, 67
4, 1215424, Note_off_c, 2, 70, 67
4, 1215424, Note_off_c, 2, 79, 67
4, 1215424, Note_on_c, 2, 77, 67
4, 1215424, Note_on_c, 2, 80, 67
4, 1215488, Note_off_c, 2, 77, 67
4, 1215488, Note_off_c, 2, 80, 67
4, 1215488, Note_on_c, 2, 79, 67
4, 1215488, Note_on_c, 2, 82, 67
4, 1215552, Note_off_c, 2, 79, 67
4, 1215552, Note_off_c, 2, 82, 67
4, 1215616, Note_off_c, 2, 79, 67
4, 1215616, Note_off_c, 2, 82, 67
4, 1215616, Note_on_c, 2, 79, 67
4, 1215616, Note_on_c, 2, 82, 67
4, 1215680, Note_off_c, 2, 79, 67
4, 1215680, Note_off_c, 2, 82, 67
4, 1215744, Note_off_c, 2, 79, 67
4, 1215744, Note_off_c, 2, 82, 67
4, 1215744, Note_on_c, 2, 70, 67
4, 1215744, Note_on_c, 2, 79, 67
4, 1215808, Note_off_c, 2, 70, 67
4, 1215808, Note_off_c, 2, 79, 67
4, 1215872, Note_off_c, 2, 70, 67
4, 1215872, Note_off_c, 2, 79, 67
4, 1215872, Note_on_c, 2, 75, 67
4, 1215872, Note_on_c, 2, 82, 67
4, 1215936, Note_off_c, 2, 75, 67
4, 1215936, Note_off_c, 2, 82, 67
4, 1216000, Note_off_c, 2, 75, 67
4, 1216000, Note_off_c, 2, 82, 67
4, 1216000, Note_on_c, 2, 84, 67
4, 1216000, Note_on_c, 2, 87, 67
4, 1216064, Note_off_c, 2, 84, 67
4, 1216064, Note_off_c, 2, 87, 67
4, 1216128, Note_off_c, 2, 84, 67
4, 1216128, Note_off_c, 2, 87, 67
4, 1216128, Note_on_c, 2, 82, 67
4, 1216128, Note_on_c, 2, 86, 67
4, 1216192, Note_off_c, 2, 82, 67
4, 1216192, Note_off_c, 2, 86, 67
4, 1216256, Note_off_c, 2, 82, 67
4, 1216256, Note_off_c, 2, 86, 67
4, 1216256, Note_on_c, 2, 80, 67
4, 1216256, Note_on_c, 2, 84, 67
4, 1216320, Note_off_c, 2, 80, 67
4, 1216320, Note_off_c, 2, 84, 67
4, 1216384, Note_off_c, 2, 80, 67
4, 1216384, Note_off_c, 2, 84, 67
4, 1216384, Note_on_c, 2, 70, 67
4, 1216384, Note_on_c, 2, 74, 67
4, 1216416, Note_off_c, 2, 70, 67
4, 1216416, Note_off_c, 2, 74, 67
4, 1216448, Note_off_c, 2, 70, 67
4, 1216448, Note_off_c, 2, 74, 67
4, 1216448, Note_on_c, 2, 77, 67
4, 1216448, Note_on_c, 2, 80, 67
4, 1216480, Note_off_c, 2, 77, 67
4, 1216480, Note_off_c, 2, 80, 67
4, 1216512, Note_off_c, 2, 77, 67
4, 1216512, Note_off_c, 2, 80, 67
4, 1216512, Note_on_c, 2, 77, 67
4, 1216512, Note_on_c, 2, 82, 67
4, 1216576, Note_off_c, 2, 77, 67
4, 1216576, Note_off_c, 2, 82, 67
4, 1216640, Note_off_c, 2, 77, 67
4, 1216640, Note_off_c, 2, 82, 67
4, 1216640, Note_on_c, 2, 80, 67
4, 1216640, Note_on_c, 2, 87, 67
4, 1216704, Note_off_c, 2, 80, 67
4, 1216704, Note_off_c, 2, 87, 67
4, 1216768, Note_off_c, 2, 80, 67
4, 1216768, Note_off_c, 2, 87, 67
4, 1216768, Note_on_c, 2, 82, 67
4, 1216768, Note_on_c, 2, 86, 67
4, 1216832, Note_off_c, 2, 82, 67
4, 1216832, Note_off_c, 2, 86, 67
4, 1216896, Note_off_c, 2, 82, 67
4, 1216896, Note_off_c, 2, 86, 67
4, 1216896, Note_on_c, 2, 80, 67
4, 1216896, Note_on_c, 2, 89, 67
4, 1216960, Note_off_c, 2, 80, 67
4, 1216960, Note_off_c, 2, 89, 67
4, 1217024, Note_off_c, 2, 80, 67
4, 1217024, Note_off_c, 2, 89, 67
4, 1217024, Note_on_c, 2, 79, 67
4, 1217024, Note_on_c, 2, 87, 67
4, 1217088, Note_off_c, 2, 79, 67
4, 1217088, Note_off_c, 2, 87, 67
4, 1217152, Note_off_c, 2, 79, 67
4, 1217152, Note_off_c, 2, 87, 67
4, 1217152, Note_on_c, 2, 70, 67
4, 1217152, Note_on_c, 2, 82, 67
4, 1217216, Note_off_c, 2, 70, 67
4, 1217216, Note_off_c, 2, 82, 67
4, 1217280, Note_off_c, 2, 70, 67
4, 1217280, Note_off_c, 2, 82, 67
4, 1217280, Note_on_c, 2, 70, 67
4, 1217280, Note_on_c, 2, 82, 67
4, 1217344, Note_off_c, 2, 70, 67
4, 1217344, Note_off_c, 2, 82, 67
4, 1217408, Note_off_c, 2, 70, 67
4, 1217408, Note_off_c, 2, 82, 67
4, 1217408, Note_on_c, 2, 75, 67
4, 1217472, Note_off_c, 2, 75, 67
4, 1217472, Note_on_c, 2, 77, 67
4, 1217536, Note_off_c, 2, 77, 67
4, 1217536, Note_on_c, 2, 79, 67
4, 1217600, Note_off_c, 2, 79, 67
4, 1217664, Note_off_c, 2, 79, 67
4, 1217664, Note_on_c, 2, 75, 67
4, 1217664, Note_on_c, 2, 79, 67
4, 1217728, Note_off_c, 2, 75, 67
4, 1217728, Note_off_c, 2, 79, 67
4, 1217792, Note_off_c, 2, 75, 67
4, 1217792, Note_off_c, 2, 79, 67
4, 1217792, Note_on_c, 2, 75, 67
4, 1217792, Note_on_c, 2, 79, 67
4, 1217856, Note_off_c, 2, 75, 67
4, 1217856, Note_off_c, 2, 79, 67
4, 1217920, Note_off_c, 2, 75, 67
4, 1217920, Note_off_c, 2, 79, 67
4, 1217920, Note_on_c, 2, 75, 67
4, 1217984, Note_off_c, 2, 75, 67
4, 1217984, Note_on_c, 2, 77, 67
4, 1218048, Note_off_c, 2, 77, 67
4, 1218048, Note_on_c, 2, 79, 67
4, 1218112, Note_off_c, 2, 79, 67
4, 1218176, Note_off_c, 2, 79, 67
4, 1218176, Note_on_c, 2, 75, 67
4, 1218176, Note_on_c, 2, 79, 67
4, 1218240, Note_off_c, 2, 75, 67
4, 1218240, Note_off_c, 2, 79, 67
4, 1218304, Note_off_c, 2, 75, 67
4, 1218304, Note_off_c, 2, 79, 67
4, 1218304, Note_on_c, 2, 75, 67
4, 1218304, Note_on_c, 2, 79, 67
4, 1218368, Note_off_c, 2, 75, 67
4, 1218368, Note_off_c, 2, 79, 67
4, 1218432, Note_off_c, 2, 75, 67
4, 1218432, Note_off_c, 2, 79, 67
4, 1218432, Note_on_c, 2, 75, 67
4, 1218496, Note_off_c, 2, 75, 67
4, 1218496, Note_on_c, 2, 77, 67
4, 1218560, Note_off_c, 2, 77, 67
4, 1218560, Note_on_c, 2, 79, 67
4, 1218624, Note_off_c, 2, 79, 67
4, 1218688, Note_off_c, 2, 79, 67
4, 1218688, Note_on_c, 2, 75, 67
4, 1218688, Note_on_c, 2, 79, 67
4, 1218752, Note_off_c, 2, 75, 67
4, 1218752, Note_off_c, 2, 79, 67
4, 1218816, Note_off_c, 2, 75, 67
4, 1218816, Note_off_c, 2, 79, 67
4, 1218816, Note_on_c, 2, 75, 67
4, 1218816, Note_on_c, 2, 80, 67
4, 1218848, Note_off_c, 2, 75, 67
4, 1218848, Note_off_c, 2, 80, 67
4, 1218880, Note_off_c, 2, 75, 67
4, 1218880, Note_off_c, 2, 80, 67
4, 1218880, Note_on_c, 2, 74, 67
4, 1218912, Note_off_c, 2, 74, 67
4, 1218944, Note_off_c, 2, 74, 67
4, 1218944, Note_on_c, 2, 72, 67
4, 1218976, Note_off_c, 2, 72, 67
4, 1219008, Note_off_c, 2, 72, 67
4, 1219008, Note_on_c, 2, 74, 67
4, 1219008, Note_on_c, 2, 79, 67
4, 1219040, Note_off_c, 2, 74, 67
4, 1219040, Note_off_c, 2, 79, 67
4, 1219072, Note_off_c, 2, 74, 67
4, 1219072, Note_off_c, 2, 79, 67
4, 1219072, Note_on_c, 2, 70, 67
4, 1219072, Note_on_c, 2, 77, 67
4, 1219136, Note_off_c, 2, 70, 67
4, 1219136, Note_off_c, 2, 77, 67
4, 1219200, Note_off_c, 2, 70, 67
4, 1219200, Note_off_c, 2, 77, 67
4, 1219200, Note_on_c, 2, 68, 67
4, 1219200, Note_on_c, 2, 70, 67
4, 1219264, Note_off_c, 2, 68, 67
4, 1219264, Note_off_c, 2, 70, 67
4, 1219328, Note_off_c, 2, 68, 67
4, 1219328, Note_off_c, 2, 70, 67
4, 1219328, Note_on_c, 2, 68, 67
4, 1219328, Note_on_c, 2, 70, 67
4, 1219392, Note_off_c, 2, 68, 67
4, 1219392, Note_off_c, 2, 70, 67
4, 1219456, Note_off_c, 2, 68, 67
4, 1219456, Note_off_c, 2, 70, 67
4, 1219456, Note_on_c, 2, 74, 67
4, 1219520, Note_off_c, 2, 74, 67
4, 1219520, Note_on_c, 2, 75, 67
4, 1219584, Note_off_c, 2, 75, 67
4, 1219584, Note_on_c, 2, 77, 67
4, 1219648, Note_off_c, 2, 77, 67
4, 1219712, Note_off_c, 2, 77, 67
4, 1219712, Note_on_c, 2, 74, 67
4, 1219712, Note_on_c, 2, 77, 67
4, 1219776, Note_off_c, 2, 74, 67
4, 1219776, Note_off_c, 2, 77, 67
4, 1219840, Note_off_c, 2, 74, 67
4, 1219840, Note_off_c, 2, 77, 67
4, 1219840, Note_on_c, 2, 74, 67
4, 1219840, Note_on_c, 2, 77, 67
4, 1219904, Note_off_c, 2, 74, 67
4, 1219904, Note_off_c, 2, 77, 67
4, 1219968, Note_off_c, 2, 74, 67
4, 1219968, Note_off_c, 2, 77, 67
4, 1219968, Note_on_c, 2, 74, 67
4, 1220032, Note_off_c, 2, 74, 67
4, 1220032, Note_on_c, 2, 75, 67
4, 1220096, Note_off_c, 2, 75, 67
4, 1220096, Note_on_c, 2, 77, 67
4, 1220160, Note_off_c, 2, 77, 67
4, 1220224, Note_off_c, 2, 77, 67
4, 1220224, Note_on_c, 2, 74, 67
4, 1220224, Note_on_c, 2, 77, 67
4, 1220288, Note_off_c, 2, 74, 67
4, 1220288, Note_off_c, 2, 77, 67
4, 1220352, Note_off_c, 2, 74, 67
4, 1220352, Note_off_c, 2, 77, 67
4, 1220352, Note_on_c, 2, 74, 67
4, 1220352, Note_on_c, 2, 77, 67
4, 1220416, Note_off_c, 2, 74, 67
4, 1220416, Note_off_c, 2, 77, 67
4, 1220480, Note_off_c, 2, 74, 67
4, 1220480, Note_off_c, 2, 77, 67
4, 1220480, Note_on_c, 2, 74, 67
4, 1220544, Note_off_c, 2, 74, 67
4, 1220544, Note_on_c, 2, 75, 67
4, 1220608, Note_off_c, 2, 75, 67
4, 1220608, Note_on_c, 2, 70, 67
4, 1220608, Note_on_c, 2, 77, 67
4, 1220672, Note_off_c, 2, 70, 67
4, 1220672, Note_off_c, 2, 77, 67
4, 1220736, Note_off_c, 2, 70, 67
4, 1220736, Note_off_c, 2, 77, 67
4, 1220736, Note_on_c, 2, 74, 67
4, 1220736, Note_on_c, 2, 77, 67
4, 1220800, Note_off_c, 2, 74, 67
4, 1220800, Note_off_c, 2, 77, 67
4, 1220864, Note_off_c, 2, 74, 67
4, 1220864, Note_off_c, 2, 77, 67
4, 1220864, Note_on_c, 2, 74, 67
4, 1220864, Note_on_c, 2, 79, 67
4, 1220896, Note_off_c, 2, 74, 67
4, 1220896, Note_off_c, 2, 79, 67
4, 1220928, Note_off_c, 2, 74, 67
4, 1220928, Note_off_c, 2, 79, 67
4, 1220928, Note_on_c, 2, 72, 67
4, 1220928, Note_on_c, 2, 77, 67
4, 1220960, Note_off_c, 2, 72, 67
4, 1220960, Note_off_c, 2, 77, 67
4, 1220992, Note_off_c, 2, 72, 67
4, 1220992, Note_off_c, 2, 77, 67
4, 1220992, Note_on_c, 2, 70, 67
4, 1220992, Note_on_c, 2, 77, 67
4, 1221024, Note_off_c, 2, 70, 67
4, 1221024, Note_off_c, 2, 77, 67
4, 1221056, Note_off_c, 2, 70, 67
4, 1221056, Note_off_c, 2, 77, 67
4, 1221056, Note_on_c, 2, 68, 67
4, 1221056, Note_on_c, 2, 79, 67
4, 1221088, Note_off_c, 2, 68, 67
4, 1221088, Note_off_c, 2, 79, 67
4, 1221120, Note_off_c, 2, 68, 67
4, 1221120, Note_off_c, 2, 79, 67
4, 1221120, Note_on_c, 2, 67, 67
4, 1221120, Note_on_c, 2, 75, 67
4, 1221184, Note_off_c, 2, 67, 67
4, 1221184, Note_off_c, 2, 75, 67
4, 1221248, Note_off_c, 2, 67, 67
4, 1221248, Note_off_c, 2, 75, 67
4, 1221248, Note_on_c, 2, 70, 67
4, 1221312, Note_off_c, 2, 70, 67
4, 1221376, Note_off_c, 2, 70, 67
4, 1221376, Note_on_c, 2, 70, 67
4, 1221376, Note_on_c, 2, 79, 67
4, 1221440, Note_off_c, 2, 70, 67
4, 1221440, Note_off_c, 2, 79, 67
4, 1221504, Note_off_c, 2, 70, 67
4, 1221504, Note_off_c, 2, 79, 67
4, 1221504, Note_on_c, 2, 75, 67
4, 1221568, Note_off_c, 2, 75, 67
4, 1221568, Note_on_c, 2, 77, 67
4, 1221632, Note_off_c, 2, 77, 67
4, 1221632, Note_on_c, 2, 79, 67
4, 1221696, Note_off_c, 2, 79, 67
4, 1221760, Note_off_c, 2, 79, 67
4, 1221760, Note_on_c, 2, 75, 67
4, 1221760, Note_on_c, 2, 79, 67
4, 1221824, Note_off_c, 2, 75, 67
4, 1221824, Note_off_c, 2, 79, 67
4, 1221888, Note_off_c, 2, 75, 67
4, 1221888, Note_off_c, 2, 79, 67
4, 1221888, Note_on_c, 2, 75, 67
4, 1221888, Note_on_c, 2, 79, 67
4, 1221952, Note_off_c, 2, 75, 67
4, 1221952, Note_off_c, 2, 79, 67
4, 1222016, Note_off_c, 2, 75, 67
4, 1222016, Note_off_c, 2, 79, 67
4, 1222016, Note_on_c, 2, 75, 67
4, 1222080, Note_off_c, 2, 75, 67
4, 1222080, Note_on_c, 2, 77, 67
4, 1222144, Note_off_c, 2, 77, 67
4, 1222144, Note_on_c, 2, 79, 67
4, 1222208, Note_off_c, 2, 79, 67
4, 1222272, Note_off_c, 2, 79, 67
4, 1222272, Note_on_c, 2, 75, 67
4, 1222272, Note_on_c, 2, 79, 67
4, 1222336, Note_off_c, 2, 75, 67
4, 1222336, Note_off_c, 2, 79, 67
4, 1222400, Note_off_c, 2, 75, 67
4, 1222400, Note_off_c, 2, 79, 67
4, 1222400, Note_on_c, 2, 75, 67
4, 1222400, Note_on_c, 2, 79, 67
4, 1222464, Note_off_c, 2, 75, 67
4, 1222464, Note_off_c, 2, 79, 67
4, 1222528, Note_off_c, 2, 75, 67
4, 1222528, Note_off_c, 2, 79, 67
4, 1222528, Note_on_c, 2, 75, 67
4, 1222592, Note_off_c, 2, 75, 67
4, 1222592, Note_on_c, 2, 77, 67
4, 1222656, Note_off_c, 2, 77, 67
4, 1222656, Note_on_c, 2, 79, 67
4, 1222720, Note_off_c, 2, 79, 67
4, 1222784, Note_off_c, 2, 79, 67
4, 1222784, Note_on_c, 2, 75, 67
4, 1222784, Note_on_c, 2, 79, 67
4, 1222848, Note_off_c, 2, 75, 67
4, 1222848, Note_off_c, 2, 79, 67
4, 1222912, Note_off_c, 2, 75, 67
4, 1222912, Note_off_c, 2, 79, 67
4, 1222912, Note_on_c, 2, 75, 67
4, 1222912, Note_on_c, 2, 80, 67
4, 1222944, Note_off_c, 2, 75, 67
4, 1222944, Note_off_c, 2, 80, 67
4, 1222976, Note_off_c, 2, 75, 67
4, 1222976, Note_off_c, 2, 80, 67
4, 1222976, Note_on_c, 2, 74, 67
4, 1223040, Note_off_c, 2, 74, 67
4, 1223040, Note_on_c, 2, 72, 67
4, 1223104, Note_off_c, 2, 72, 67
4, 1223104, Note_on_c, 2, 74, 67
4, 1223104, Note_on_c, 2, 79, 67
4, 1223136, Note_off_c, 2, 74, 67
4, 1223136, Note_off_c, 2, 79, 67
4, 1223168, Note_off_c, 2, 74, 67
4, 1223168, Note_off_c, 2, 79, 67
4, 1223168, Note_on_c, 2, 70, 67
4, 1223168, Note_on_c, 2, 77, 67
4, 1223232, Note_off_c, 2, 70, 67
4, 1223232, Note_off_c, 2, 77, 67
4, 1223296, Note_off_c, 2, 70, 67
4, 1223296, Note_off_c, 2, 77, 67
4, 1223296, Note_on_c, 2, 68, 67
4, 1223296, Note_on_c, 2, 70, 67
4, 1223360, Note_off_c, 2, 68, 67
4, 1223360, Note_off_c, 2, 70, 67
4, 1223424, Note_off_c, 2, 68, 67
4, 1223424, Note_off_c, 2, 70, 67
4, 1223424, Note_on_c, 2, 68, 67
4, 1223424, Note_on_c, 2, 70, 67
4, 1223488, Note_off_c, 2, 68, 67
4, 1223488, Note_off_c, 2, 70, 67
4, 1223552, Note_off_c, 2, 68, 67
4, 1223552, Note_off_c, 2, 70, 67
4, 1223552, Note_on_c, 2, 74, 67
4, 1223616, Note_off_c, 2, 74, 67
4, 1223616, Note_on_c, 2, 75, 67
4, 1223680, Note_off_c, 2, 75, 67
4, 1223680, Note_on_c, 2, 77, 67
4, 1223808, Note_off_c, 2, 77, 67
4, 1223808, Note_on_c, 2, 74, 67
4, 1223808, Note_on_c, 2, 80, 67
4, 1223872, Note_off_c, 2, 74, 67
4, 1223872, Note_off_c, 2, 80, 67
4, 1223936, Note_off_c, 2, 74, 67
4, 1223936, Note_off_c, 2, 80, 67
4, 1223936, Note_on_c, 2, 74, 67
4, 1223936, Note_on_c, 2, 79, 67
4, 1224000, Note_off_c, 2, 74, 67
4, 1224000, Note_off_c, 2, 79, 67
4, 1224064, Note_off_c, 2, 74, 67
4, 1224064, Note_off_c, 2, 79, 67
4, 1224064, Note_on_c, 2, 77, 67
4, 1224128, Note_off_c, 2, 77, 67
4, 1224192, Note_off_c, 2, 77, 67
4, 1224192, Note_on_c, 2, 75, 67
4, 1224256, Note_off_c, 2, 75, 67
4, 1224320, Note_off_c, 2, 75, 67
4, 1224320, Note_on_c, 2, 70, 67
4, 1224320, Note_on_c, 2, 74, 67
4, 1224384, Note_off_c, 2, 70, 67
4, 1224384, Note_off_c, 2, 74, 67
4, 1224448, Note_off_c, 2, 70, 67
4, 1224448, Note_off_c, 2, 74, 67
4, 1224448, Note_on_c, 2, 72, 67
4, 1224448, Note_on_c, 2, 74, 67
4, 1224512, Note_off_c, 2, 72, 67
4, 1224512, Note_off_c, 2, 74, 67
4, 1224576, Note_off_c, 2, 72, 67
4, 1224576, Note_off_c, 2, 74, 67
4, 1224576, Note_on_c, 2, 70, 67
4, 1224576, Note_on_c, 2, 74, 67
4, 1224640, Note_off_c, 2, 70, 67
4, 1224640, Note_off_c, 2, 74, 67
4, 1224704, Note_off_c, 2, 70, 67
4, 1224704, Note_off_c, 2, 74, 67
4, 1224704, Note_on_c, 2, 80, 67
4, 1224704, Note_on_c, 2, 84, 67
4, 1224960, Note_off_c, 2, 80, 67
4, 1224960, Note_off_c, 2, 84, 67
4, 1224960, Note_on_c, 2, 70, 67
4, 1224960, Note_on_c, 2, 74, 67
4, 1224976, Note_off_c, 2, 70, 67
4, 1224976, Note_off_c, 2, 74, 67
4, 1224992, Note_off_c, 2, 70, 67
4, 1224992, Note_off_c, 2, 74, 67
4, 1224992, Note_on_c, 2, 72, 67
4, 1224992, Note_on_c, 2, 75, 67
4, 1225008, Note_off_c, 2, 72, 67
4, 1225008, Note_off_c, 2, 75, 67
4, 1225024, Note_off_c, 2, 72, 67
4, 1225024, Note_off_c, 2, 75, 67
4, 1225024, Note_on_c, 2, 70, 67
4, 1225024, Note_on_c, 2, 74, 67
4, 1225056, Note_off_c, 2, 70, 67
4, 1225056, Note_off_c, 2, 74, 67
4, 1225088, Note_off_c, 2, 70, 67
4, 1225088, Note_off_c, 2, 74, 67
4, 1225088, Note_on_c, 2, 68, 67
4, 1225088, Note_on_c, 2, 72, 67
4, 1225120, Note_off_c, 2, 68, 67
4, 1225120, Note_off_c, 2, 72, 67
4, 1225152, Note_off_c, 2, 68, 67
4, 1225152, Note_off_c, 2, 72, 67
4, 1225152, Note_on_c, 2, 74, 67
4, 1225152, Note_on_c, 2, 77, 67
4, 1225184, Note_off_c, 2, 74, 67
4, 1225184, Note_off_c, 2, 77, 67
4, 1225216, Note_off_c, 2, 74, 67
4, 1225216, Note_off_c, 2, 77, 67
4, 1225216, Note_on_c, 2, 75, 67
4, 1225216, Note_on_c, 2, 79, 67
4, 1225344, Note_off_c, 2, 75, 67
4, 1225344, Note_off_c, 2, 79, 67
4, 1225344, Note_on_c, 2, 70, 67
4, 1225408, Note_off_c, 2, 70, 67
4, 1225472, Note_off_c, 2, 70, 67
4, 1225472, Note_on_c, 2, 70, 67
4, 1225536, Note_off_c, 2, 70, 67
4, 1225600, Note_off_c, 2, 70, 67
4, 1225600, Note_on_c, 2, 75, 67
4, 1225600, Note_on_c, 2, 79, 67
4, 1225664, Note_off_c, 2, 75, 67
4, 1225664, Note_off_c, 2, 79, 67
4, 1225664, Note_on_c, 2, 77, 67
4, 1225664, Note_on_c, 2, 80, 67
4, 1225728, Note_off_c, 2, 77, 67
4, 1225728, Note_off_c, 2, 80, 67
4, 1225728, Note_on_c, 2, 79, 67
4, 1225728, Note_on_c, 2, 82, 67
4, 1225792, Note_off_c, 2, 79, 67
4, 1225792, Note_off_c, 2, 82, 67
4, 1225856, Note_off_c, 2, 79, 67
4, 1225856, Note_off_c, 2, 82, 67
4, 1225856, Note_on_c, 2, 79, 67
4, 1225856, Note_on_c, 2, 82, 67
4, 1225920, Note_off_c, 2, 79, 67
4, 1225920, Note_off_c, 2, 82, 67
4, 1225984, Note_off_c, 2, 79, 67
4, 1225984, Note_off_c, 2, 82, 67
4, 1225984, Note_on_c, 2, 70, 67
4, 1225984, Note_on_c, 2, 79, 67
4, 1226048, Note_off_c, 2, 70, 67
4, 1226048, Note_off_c, 2, 79, 67
4, 1226112, Note_off_c, 2, 70, 67
4, 1226112, Note_off_c, 2, 79, 67
4, 1226112, Note_on_c, 2, 70, 67
4, 1226112, Note_on_c, 2, 75, 67
4, 1226176, Note_off_c, 2, 70, 67
4, 1226176, Note_off_c, 2, 75, 67
4, 1226240, Note_off_c, 2, 70, 67
4, 1226240, Note_off_c, 2, 75, 67
4, 1226240, Note_on_c, 2, 84, 67
4, 1226240, Note_on_c, 2, 87, 67
4, 1226304, Note_off_c, 2, 84, 67
4, 1226304, Note_off_c, 2, 87, 67
4, 1226368, Note_off_c, 2, 84, 67
4, 1226368, Note_off_c, 2, 87, 67
4, 1226368, Note_on_c, 2, 82, 67
4, 1226368, Note_on_c, 2, 86, 67
4, 1226432, Note_off_c, 2, 82, 67
4, 1226432, Note_off_c, 2, 86, 67
4, 1226496, Note_off_c, 2, 82, 67
4, 1226496, Note_off_c, 2, 86, 67
4, 1226496, Note_on_c, 2, 80, 67
4, 1226496, Note_on_c, 2, 84, 67
4, 1226560, Note_off_c, 2, 80, 67
4, 1226560, Note_off_c, 2, 84, 67
4, 1226624, Note_off_c, 2, 80, 67
4, 1226624, Note_off_c, 2, 84, 67
4, 1226624, Note_on_c, 2, 79, 67
4, 1226624, Note_on_c, 2, 87, 67
4, 1226688, Note_off_c, 2, 79, 67
4, 1226688, Note_off_c, 2, 87, 67
4, 1226752, Note_off_c, 2, 79, 67
4, 1226752, Note_off_c, 2, 87, 67
4, 1226752, Note_on_c, 2, 75, 67
4, 1226752, Note_on_c, 2, 82, 67
4, 1226816, Note_off_c, 2, 75, 67
4, 1226816, Note_off_c, 2, 82, 67
4, 1226880, Note_off_c, 2, 75, 67
4, 1226880, Note_off_c, 2, 82, 67
4, 1226880, Note_on_c, 2, 79, 67
4, 1226944, Note_off_c, 2, 79, 67
4, 1227008, Note_off_c, 2, 79, 67
4, 1227008, Note_on_c, 2, 67, 67
4, 1227008, Note_on_c, 2, 75, 67
4, 1227072, Note_off_c, 2, 67, 67
4, 1227072, Note_off_c, 2, 75, 67
4, 1227136, Note_off_c, 2, 67, 67
4, 1227136, Note_off_c, 2, 75, 67
4, 1227136, Note_on_c, 2, 68, 67
4, 1227136, Note_on_c, 2, 74, 67
4, 1227168, Note_off_c, 2, 68, 67
4, 1227168, Note_off_c, 2, 74, 67
4, 1227200, Note_off_c, 2, 68, 67
4, 1227200, Note_off_c, 2, 74, 67
4, 1227200, Note_on_c, 2, 74, 67
4, 1227200, Note_on_c, 2, 79, 67
4, 1227232, Note_off_c, 2, 74, 67
4, 1227232, Note_off_c, 2, 79, 67
4, 1227264, Note_off_c, 2, 74, 67
4, 1227264, Note_off_c, 2, 79, 67
4, 1227264, Note_on_c, 2, 70, 67
4, 1227264, Note_on_c, 2, 77, 67
4, 1227328, Note_off_c, 2, 70, 67
4, 1227328, Note_off_c, 2, 77, 67
4, 1227392, Note_off_c, 2, 70, 67
4, 1227392, Note_off_c, 2, 77, 67
4, 1227392, Note_on_c, 2, 65, 67
4, 1227392, Note_on_c, 2, 70, 67
4, 1227456, Note_off_c, 2, 65, 67
4, 1227456, Note_off_c, 2, 70, 67
4, 1227520, Note_off_c, 2, 65, 67
4, 1227520, Note_off_c, 2, 70, 67
4, 1227520, Note_on_c, 2, 68, 67
4, 1227520, Note_on_c, 2, 70, 67
4, 1227584, Note_off_c, 2, 68, 67
4, 1227584, Note_off_c, 2, 70, 67
4, 1227648, Note_off_c, 2, 68, 67
4, 1227648, Note_off_c, 2, 70, 67
4, 1227648, Note_on_c, 2, 70, 67
4, 1227648, Note_on_c, 2, 79, 67
4, 1227712, Note_off_c, 2, 70, 67
4, 1227712, Note_off_c, 2, 79, 67
4, 1227712, Note_on_c, 2, 77, 67
4, 1227712, Note_on_c, 2, 80, 67
4, 1227776, Note_off_c, 2, 77, 67
4, 1227776, Note_off_c, 2, 80, 67
4, 1227776, Note_on_c, 2, 79, 67
4, 1227776, Note_on_c, 2, 82, 67
4, 1227840, Note_off_c, 2, 79, 67
4, 1227840, Note_off_c, 2, 82, 67
4, 1227904, Note_off_c, 2, 79, 67
4, 1227904, Note_off_c, 2, 82, 67
4, 1227904, Note_on_c, 2, 79, 67
4, 1227904, Note_on_c, 2, 82, 67
4, 1227968, Note_off_c, 2, 79, 67
4, 1227968, Note_off_c, 2, 82, 67
4, 1228032, Note_off_c, 2, 79, 67
4, 1228032, Note_off_c, 2, 82, 67
4, 1228032, Note_on_c, 2, 70, 67
4, 1228032, Note_on_c, 2, 79, 67
4, 1228096, Note_off_c, 2, 70, 67
4, 1228096, Note_off_c, 2, 79, 67
4, 1228160, Note_off_c, 2, 70, 67
4, 1228160, Note_off_c, 2, 79, 67
4, 1228160, Note_on_c, 2, 75, 67
4, 1228160, Note_on_c, 2, 82, 67
4, 1228224, Note_off_c, 2, 75, 67
4, 1228224, Note_off_c, 2, 82, 67
4, 1228288, Note_off_c, 2, 75, 67
4, 1228288, Note_off_c, 2, 82, 67
4, 1228288, Note_on_c, 2, 84, 67
4, 1228288, Note_on_c, 2, 87, 67
4, 1228352, Note_off_c, 2, 84, 67
4, 1228352, Note_off_c, 2, 87, 67
4, 1228416, Note_off_c, 2, 84, 67
4, 1228416, Note_off_c, 2, 87, 67
4, 1228416, Note_on_c, 2, 82, 67
4, 1228416, Note_on_c, 2, 86, 67
4, 1228480, Note_off_c, 2, 82, 67
4, 1228480, Note_off_c, 2, 86, 67
4, 1228544, Note_off_c, 2, 82, 67
4, 1228544, Note_off_c, 2, 86, 67
4, 1228544, Note_on_c, 2, 80, 67
4, 1228544, Note_on_c, 2, 84, 67
4, 1228608, Note_off_c, 2, 80, 67
4, 1228608, Note_off_c, 2, 84, 67
4, 1228672, Note_off_c, 2, 80, 67
4, 1228672, Note_off_c, 2, 84, 67
4, 1228672, Note_on_c, 2, 70, 67
4, 1228672, Note_on_c, 2, 74, 67
4, 1228704, Note_off_c, 2, 70, 67
4, 1228704, Note_off_c, 2, 74, 67
4, 1228736, Note_off_c, 2, 70, 67
4, 1228736, Note_off_c, 2, 74, 67
4, 1228736, Note_on_c, 2, 77, 67
4, 1228736, Note_on_c, 2, 80, 67
4, 1228768, Note_off_c, 2, 77, 67
4, 1228768, Note_off_c, 2, 80, 67
4, 1228800, Note_off_c, 2, 77, 67
4, 1228800, Note_off_c, 2, 80, 67
4, 1228800, Note_on_c, 2, 77, 67
4, 1228800, Note_on_c, 2, 82, 67
4, 1228864, Note_off_c, 2, 77, 67
4, 1228864, Note_off_c, 2, 82, 67
4, 1228928, Note_off_c, 2, 77, 67
4, 1228928, Note_off_c, 2, 82, 67
4, 1228928, Note_on_c, 2, 80, 67
4, 1228928, Note_on_c, 2, 87, 67
4, 1228992, Note_off_c, 2, 80, 67
4, 1228992, Note_off_c, 2, 87, 67
4, 1229056, Note_off_c, 2, 80, 67
4, 1229056, Note_off_c, 2, 87, 67
4, 1229056, Note_on_c, 2, 82, 67
4, 1229056, Note_on_c, 2, 86, 67
4, 1229120, Note_off_c, 2, 82, 67
4, 1229120, Note_off_c, 2, 86, 67
4, 1229184, Note_off_c, 2, 82, 67
4, 1229184, Note_off_c, 2, 86, 67
4, 1229184, Note_on_c, 2, 80, 67
4, 1229184, Note_on_c, 2, 89, 67
4, 1229248, Note_off_c, 2, 80, 67
4, 1229248, Note_off_c, 2, 89, 67
4, 1229312, Note_off_c, 2, 80, 67
4, 1229312, Note_off_c, 2, 89, 67
4, 1229312, Note_on_c, 2, 79, 67
4, 1229312, Note_on_c, 2, 87, 67
4, 1229376, Note_off_c, 2, 79, 67
4, 1229376, Note_off_c, 2, 87, 67
4, 1229440, Note_off_c, 2, 79, 67
4, 1229440, Note_off_c, 2, 87, 67
4, 1229440, Note_on_c, 2, 70, 67
4, 1229440, Note_on_c, 2, 82, 67
4, 1229504, Note_off_c, 2, 70, 67
4, 1229504, Note_off_c, 2, 82, 67
4, 1229568, Note_off_c, 2, 70, 67
4, 1229568, Note_off_c, 2, 82, 67
4, 1229568, Note_on_c, 2, 70, 67
4, 1229568, Note_on_c, 2, 82, 67
4, 1229824, Control_c, 2, 93, 0
4, 1230848, Note_off_c, 2, 70, 67
4, 1230848, Note_off_c, 2, 82, 67
4, 1230976, Control_c, 2, 93, 0
4, 1230976, End_track
0, 0, End_of_file
